<svg width="37" height="41" viewBox="0 0 37 41" fill="none" xmlns="http://www.w3.org/2000/svg">
<rect y="5" width="36" height="36" rx="7.2" fill="white"/>
<rect x="0.39375" y="5.39375" width="35.2125" height="35.2125" rx="6.80625" stroke="black" stroke-opacity="0.05" stroke-width="0.7875"/>
<path d="M10.6495 23.2042C16.2641 12.5171 22.2329 4.83687 26.5477 0.609788C27.3237 -0.150398 28.5094 0.70978 28.1906 1.74825C25.7799 9.60279 24.1155 22.0354 23.3715 28.0084C23.2919 28.6471 22.6668 29.0654 22.0454 28.8981L11.9678 26.1849C10.6755 25.837 10.027 24.389 10.6495 23.2042Z" fill="#7EC9FF"/>
<path d="M19.7875 28.4963C19.6757 21.2099 20.3947 15.2719 21.1657 11.2726C21.4922 9.57884 23.5669 9.18339 24.5104 10.6274C27.478 15.169 29.467 19.7398 30.4836 23.9347C30.691 24.7907 30.2988 25.6695 29.5488 26.1311L22.9463 30.1943C21.5774 31.0368 19.8121 30.1035 19.7875 28.4963Z" fill="#1A93EB"/>
<path d="M4.1636 28.2024C3.37291 27.4915 4.0782 26.1991 5.1039 26.4794L30.7485 33.4874C31.8049 33.7761 32.0597 35.1578 31.1758 35.8043C29.9403 36.708 28.4444 37.1851 26.9139 37.1637L15.3748 37.0025C14.4422 36.9894 13.546 36.6386 12.8524 36.0149L4.1636 28.2024Z" fill="#1B5BBC"/>
</svg>
