<svg xmlns="http://www.w3.org/2000/svg" width="36" height="36" fill="currentColor" viewBox="0 0 36 36">
  <path d="M27 19.5a1.5 1.5 0 0 0-1.5 1.5l.007.148A1.5 1.5 0 0 0 27 22.5h4.5v-3H27ZM7.5 6A1.5 1.5 0 0 0 6 7.5l.007.148A1.5 1.5 0 0 0 7.5 9H27V6H7.5ZM30 9a3 3 0 0 1 3 3v4.904a3 3 0 0 1 1.5 2.596v3a3 3 0 0 1-3 3H27a4.5 4.5 0 0 1-4.478-4.055L22.5 21a4.5 4.5 0 0 1 4.5-4.5h3V12H7.5a4.5 4.5 0 0 1-4.478-4.055L3 7.5A4.5 4.5 0 0 1 7.5 3H27a3 3 0 0 1 3 3v3Z"/>
  <path d="M3 28.5v-21a1.5 1.5 0 1 1 3 0v21A1.5 1.5 0 0 0 7.5 30H30v-6a1.5 1.5 0 0 1 3 0v6a3 3 0 0 1-3 3H7.5A4.5 4.5 0 0 1 3 28.5Z"/>
</svg>
