<svg width="36" height="36" viewBox="0 0 36 36" fill="none" xmlns="http://www.w3.org/2000/svg">
<path d="M25.9395 19.9395C26.5252 19.3537 27.4748 19.3537 28.0605 19.9395L34.0605 25.9395C34.6463 26.5252 34.6463 27.4748 34.0605 28.0606L28.0605 34.0606C27.4748 34.6463 26.5252 34.6463 25.9395 34.0606C25.3537 33.4748 25.3537 32.5252 25.9395 31.9395L30.8789 27L25.9395 22.0606C25.3537 21.4748 25.3537 20.5252 25.9395 19.9395Z" fill="url(#paint0_linear_24542_43289)"/>
<path d="M25.9395 1.93946C26.5252 1.35368 27.4748 1.35368 28.0605 1.93946L34.0605 7.93946C34.6463 8.52525 34.6463 9.47477 34.0605 10.0606L28.0605 16.0606C27.4748 16.6463 26.5252 16.6463 25.9395 16.0606C25.3537 15.4748 25.3537 14.5252 25.9395 13.9395L30.8789 9.00001L25.9395 4.06056C25.3537 3.47477 25.3537 2.52525 25.9395 1.93946Z" fill="url(#paint1_linear_24542_43289)"/>
<path d="M33 7.49987C33.8284 7.49987 34.4999 8.1715 34.5 8.99987C34.5 9.82829 33.8284 10.4999 33 10.4999H24.0308C23.3035 10.4949 22.5855 10.6664 21.939 10.9994C21.2969 11.3301 20.7434 11.8104 20.3262 12.3998L12.1758 25.2538C12.1632 25.2736 12.1497 25.2931 12.1362 25.3124C11.4393 26.3041 10.5126 27.1127 9.43506 27.6678C8.36038 28.2214 7.16774 28.5051 5.95898 28.4984L3 28.4999C2.17157 28.4999 1.5 27.8283 1.5 26.9999C1.50008 26.1715 2.17162 25.4999 3 25.4999H5.96924C6.69649 25.5048 7.4145 25.3334 8.06103 25.0004C8.70013 24.6711 9.25 24.193 9.6665 23.6073L17.8242 10.746L17.8638 10.6874C18.5607 9.69575 19.4875 8.88697 20.5649 8.3319C21.6396 7.77837 22.8323 7.49464 24.041 7.50133L33 7.49987Z" fill="url(#paint2_linear_24542_43289)"/>
<path d="M5.95752 7.49986C7.35182 7.49201 8.72127 7.87282 9.91113 8.59996C11.1036 9.32877 12.0683 10.3768 12.6973 11.6249C13.0699 12.3644 12.7729 13.266 12.0337 13.639C11.2939 14.0118 10.3909 13.7151 10.0181 12.9754C9.64077 12.2267 9.06208 11.5978 8.34668 11.1605C7.63106 10.7232 6.80641 10.494 5.96777 10.4999H3C2.17157 10.4999 1.5 9.82829 1.5 8.99986C1.50008 8.1715 2.17162 7.49986 3 7.49986H5.95752Z" fill="url(#paint3_linear_24542_43289)"/>
<path d="M17.514 22.4531C18.1613 21.9367 19.1051 22.042 19.6219 22.689L20.1609 23.3643L20.2415 23.4756C20.647 24.0913 21.1983 24.5977 21.8455 24.9507C22.4926 25.3036 23.2163 25.4924 23.9534 25.5H33.0003C33.8286 25.5002 34.5003 26.1717 34.5003 27C34.5003 27.8283 33.8286 28.4998 33.0003 28.5H23.9227C22.694 28.4874 21.4872 28.1729 20.4085 27.5845C19.3565 27.0107 18.4601 26.1917 17.7894 25.1997L17.2781 24.561C16.7617 23.9137 16.867 22.9699 17.514 22.4531Z" fill="url(#paint4_linear_24542_43289)"/>
<defs>
<linearGradient id="paint0_linear_24542_43289" x1="18.0001" y1="1.50012" x2="18.0001" y2="34.4999" gradientUnits="userSpaceOnUse">
<stop stop-color="#12A3FC"/>
<stop offset="1" stop-color="#AA7EFF"/>
</linearGradient>
<linearGradient id="paint1_linear_24542_43289" x1="18.0001" y1="1.50012" x2="18.0001" y2="34.4999" gradientUnits="userSpaceOnUse">
<stop stop-color="#12A3FC"/>
<stop offset="1" stop-color="#AA7EFF"/>
</linearGradient>
<linearGradient id="paint2_linear_24542_43289" x1="18.0001" y1="1.50012" x2="18.0001" y2="34.4999" gradientUnits="userSpaceOnUse">
<stop stop-color="#12A3FC"/>
<stop offset="1" stop-color="#AA7EFF"/>
</linearGradient>
<linearGradient id="paint3_linear_24542_43289" x1="18.0001" y1="1.50012" x2="18.0001" y2="34.4999" gradientUnits="userSpaceOnUse">
<stop stop-color="#12A3FC"/>
<stop offset="1" stop-color="#AA7EFF"/>
</linearGradient>
<linearGradient id="paint4_linear_24542_43289" x1="18.0001" y1="1.50012" x2="18.0001" y2="34.4999" gradientUnits="userSpaceOnUse">
<stop stop-color="#12A3FC"/>
<stop offset="1" stop-color="#AA7EFF"/>
</linearGradient>
</defs>
</svg>
