<svg width="60" height="60" viewBox="0 0 60 60" fill="none" xmlns="http://www.w3.org/2000/svg">
<path d="M11.666 26.4746C11.666 25.5354 12.0622 24.6398 12.7571 24.0081L27.7571 10.3717C29.0285 9.21591 30.9702 9.21591 32.2416 10.3717L47.2416 24.0081C47.9365 24.6398 48.3327 25.5354 48.3327 26.4746V46.6667C48.3327 48.5076 46.8403 50 44.9994 50H14.9994C13.1584 50 11.666 48.5076 11.666 46.6667L11.666 26.4746Z" fill="#7E0FFF"/>
<path d="M40 32.4999H38.3333C35.5556 29.5832 30 22.4999 30 17.4999C30 11.2499 33.75 8.33324 39.1667 8.33324C44.5833 8.33324 48.3333 10.8332 48.3333 17.4999C48.3333 23.3332 42.5 29.7221 40 32.4999Z" fill="#BF6EFF"/>
<ellipse cx="39.6167" cy="17.5883" rx="3.5" ry="3.5" transform="rotate(-15 39.6167 17.5883)" fill="white"/>
</svg>
