<svg width="36" height="36" viewBox="0 0 36 36" fill="none" xmlns="http://www.w3.org/2000/svg">
<path d="M27 22.4998L22.5 25.4998V31.4998H31.5V25.4998L27 22.4998ZM34.5 31.4998C34.5 32.2954 34.1836 33.0583 33.6211 33.6209C33.0585 34.1835 32.2956 34.4998 31.5 34.4998H22.5C21.7044 34.4998 20.9415 34.1835 20.3789 33.6209C19.8164 33.0583 19.5 32.2954 19.5 31.4998V25.4998C19.5 25.0062 19.6217 24.52 19.8545 24.0847C20.0873 23.6494 20.4238 23.2777 20.8345 23.0037L25.3345 20.0051C25.8275 19.6762 26.4074 19.4998 27 19.4998C27.5926 19.4998 28.1725 19.6748 28.6655 20.0037L28.6641 20.0051L33.1641 23.0037C33.5747 23.2777 33.9127 23.6494 34.1455 24.0847C34.3783 24.52 34.5 25.0061 34.5 25.4998V31.4998Z" fill="url(#paint0_linear_24542_43268)"/>
<path d="M25.5 15C25.5 12.2152 24.3944 9.54384 22.4253 7.57471C20.5791 5.7285 18.1155 4.64179 15.52 4.51318L15 4.5C12.2152 4.5 9.54384 5.60558 7.57471 7.57471C5.60558 9.54384 4.5 12.2152 4.5 15C4.5 18.239 6.32518 21.7307 8.69678 24.8467C10.9919 27.8621 13.6269 30.3023 15.0059 31.4985C15.8309 31.5017 16.4992 32.1711 16.5 32.9971C16.5008 33.8255 15.8299 34.4977 15.0015 34.4985C14.3513 34.4992 13.7183 34.288 13.1982 33.8979C13.1709 33.8774 13.1436 33.8558 13.1177 33.8335C11.6847 32.5962 8.82372 29.967 6.30908 26.6631C3.82893 23.4045 1.5 19.2505 1.5 15C1.5 11.4196 2.92187 7.98535 5.45361 5.45361C7.98535 2.92187 11.4196 1.5 15 1.5C18.5804 1.5 22.0146 2.92187 24.5464 5.45361C27.0781 7.98535 28.5 11.4196 28.5 15C28.5 15.8284 27.8284 16.5 27 16.5C26.1716 16.5 25.5 15.8284 25.5 15Z" fill="url(#paint1_linear_24542_43268)"/>
<path d="M25.5 33V28.5C25.5 27.6716 26.1716 27 27 27C27.8284 27 28.5 27.6716 28.5 28.5V33C28.5 33.8284 27.8284 34.5 27 34.5C26.1716 34.5 25.5 33.8284 25.5 33Z" fill="url(#paint2_linear_24542_43268)"/>
<path d="M18 15C18 13.3431 16.6569 12 15 12C13.3431 12 12 13.3431 12 15C12 16.6569 13.3431 18 15 18C16.6569 18 18 16.6569 18 15ZM21 15C21 18.3137 18.3137 21 15 21C11.6863 21 9 18.3137 9 15C9 11.6863 11.6863 9 15 9C18.3137 9 21 11.6863 21 15Z" fill="url(#paint3_linear_24542_43268)"/>
<defs>
<linearGradient id="paint0_linear_24542_43268" x1="18" y1="1.5" x2="18" y2="34.5" gradientUnits="userSpaceOnUse">
<stop stop-color="#12A3FC"/>
<stop offset="1" stop-color="#AA7EFF"/>
</linearGradient>
<linearGradient id="paint1_linear_24542_43268" x1="18" y1="1.5" x2="18" y2="34.5" gradientUnits="userSpaceOnUse">
<stop stop-color="#12A3FC"/>
<stop offset="1" stop-color="#AA7EFF"/>
</linearGradient>
<linearGradient id="paint2_linear_24542_43268" x1="18" y1="1.5" x2="18" y2="34.5" gradientUnits="userSpaceOnUse">
<stop stop-color="#12A3FC"/>
<stop offset="1" stop-color="#AA7EFF"/>
</linearGradient>
<linearGradient id="paint3_linear_24542_43268" x1="18" y1="1.5" x2="18" y2="34.5" gradientUnits="userSpaceOnUse">
<stop stop-color="#12A3FC"/>
<stop offset="1" stop-color="#AA7EFF"/>
</linearGradient>
</defs>
</svg>
