<svg width="36" height="36" viewBox="0 0 36 36" fill="none" xmlns="http://www.w3.org/2000/svg">
<path d="M28.5 8.99927C25.0208 8.99927 20.9559 6.99438 18.1655 4.55933C18.1194 4.5202 18.0605 4.49927 18 4.49927C17.9393 4.49927 17.8806 4.52134 17.8345 4.56079L17.833 4.55933C15.059 6.97792 10.9801 8.99927 7.5 8.99927V19.4993L7.51318 20.1174C7.64672 23.1556 8.76976 25.4076 10.4795 27.1589C12.3442 29.0687 14.9753 30.4494 17.9941 31.4919C18.0051 31.4957 18.017 31.4982 18.0278 31.5022C21.0354 30.4526 23.6592 29.0715 25.5205 27.1619C27.3435 25.2915 28.5 22.853 28.5 19.4993V8.99927ZM31.5 19.4993C31.5 23.6454 30.0314 26.8332 27.6694 29.2566C25.3482 31.6381 22.2307 33.2162 19.0034 34.3411L18.9917 34.3455C18.3495 34.5631 17.6531 34.5553 17.0156 34.3264C17.0068 34.3234 16.9981 34.3207 16.9893 34.3176C16.987 34.3168 16.9842 34.317 16.9819 34.3162C13.7581 33.1994 10.6493 31.627 8.3335 29.2551C6.11673 26.9847 4.68775 24.0417 4.51758 20.2668L4.5 19.4993V8.99927C4.50018 8.20386 4.81646 7.44062 5.37891 6.87817C5.94148 6.31578 6.70451 5.99927 7.5 5.99927L7.98193 5.98169C10.4377 5.80091 13.5803 4.29313 15.873 2.29028L15.8862 2.28003C16.4756 1.77652 17.2248 1.49927 18 1.49927C18.7752 1.49927 19.5244 1.77652 20.1138 2.28003L20.127 2.29028C22.5862 4.44039 25.9843 5.99927 28.5 5.99927C29.2955 5.99927 30.0585 6.31578 30.6211 6.87817C31.1835 7.44063 31.4998 8.20386 31.5 8.99927V19.4993Z" fill="url(#paint0_linear_24542_43273)"/>
<path d="M21.4395 13.9394C22.0252 13.3536 22.9748 13.3536 23.5605 13.9394C24.1463 14.5252 24.1463 15.4747 23.5605 16.0605L17.5605 22.0605C16.9748 22.6463 16.0252 22.6463 15.4395 22.0605L12.4395 19.0605C11.8537 18.4747 11.8537 17.5252 12.4395 16.9394C13.0252 16.3536 13.9748 16.3536 14.5605 16.9394L16.5 18.8788L21.4395 13.9394Z" fill="url(#paint1_linear_24542_43273)"/>
<defs>
<linearGradient id="paint0_linear_24542_43273" x1="18" y1="1.49927" x2="18" y2="34.5035" gradientUnits="userSpaceOnUse">
<stop stop-color="#12A3FC"/>
<stop offset="1" stop-color="#AA7EFF"/>
</linearGradient>
<linearGradient id="paint1_linear_24542_43273" x1="18" y1="1.49927" x2="18" y2="34.5035" gradientUnits="userSpaceOnUse">
<stop stop-color="#12A3FC"/>
<stop offset="1" stop-color="#AA7EFF"/>
</linearGradient>
</defs>
</svg>
