<svg width="36" height="36" viewBox="0 0 36 36" fill="none" xmlns="http://www.w3.org/2000/svg">
<path d="M13.5 12L18 12C18.8284 12 19.5 12.6716 19.5 13.5C19.5 14.3284 18.8284 15 18 15L13.5 15C12.6716 15 12 14.3284 12 13.5C12 12.6716 12.6716 12 13.5 12Z" fill="url(#paint0_linear_24542_43278)"/>
<path d="M3 12L6 12C8.48528 12 10.5 14.0147 10.5 16.5L10.5 24C10.5 24.8287 11.1709 25.4996 11.9985 25.5L19.5015 25.5C20.3291 25.4997 21 24.8287 21 24V16.5C21 14.0147 23.0147 12 25.5 12L30 12C30.8284 12 31.5 12.6716 31.5 13.5C31.5 14.3284 30.8284 15 30 15H25.5C24.6716 15 24 15.6716 24 16.5V24C24 26.4845 21.987 28.4997 19.5015 28.5L11.9985 28.5C9.51304 28.4996 7.5 26.4845 7.5 24L7.5 16.5C7.5 15.6716 6.82843 15 6 15H3C2.17157 15 1.5 14.3284 1.5 13.5C1.5 12.6716 2.17157 12 3 12Z" fill="url(#paint1_linear_24542_43278)"/>
<path d="M27.4395 7.93946C28.0252 7.35368 28.9748 7.35368 29.5605 7.93946L34.0606 12.4395C34.6463 13.0252 34.6463 13.9748 34.0606 14.5606L29.5605 19.0606C28.9748 19.6463 28.0252 19.6463 27.4395 19.0606C26.8537 18.4748 26.8537 17.5252 27.4395 16.9395L30.8789 13.5L27.4395 10.0606C26.8537 9.47477 26.8537 8.52525 27.4395 7.93946Z" fill="url(#paint2_linear_24542_43278)"/>
<defs>
<linearGradient id="paint0_linear_24542_43278" x1="17.9999" y1="7.50012" x2="17.9999" y2="28.5" gradientUnits="userSpaceOnUse">
<stop stop-color="#12A3FC"/>
<stop offset="1" stop-color="#AA7EFF"/>
</linearGradient>
<linearGradient id="paint1_linear_24542_43278" x1="17.9999" y1="7.50012" x2="17.9999" y2="28.5" gradientUnits="userSpaceOnUse">
<stop stop-color="#12A3FC"/>
<stop offset="1" stop-color="#AA7EFF"/>
</linearGradient>
<linearGradient id="paint2_linear_24542_43278" x1="17.9999" y1="7.50012" x2="17.9999" y2="28.5" gradientUnits="userSpaceOnUse">
<stop stop-color="#12A3FC"/>
<stop offset="1" stop-color="#AA7EFF"/>
</linearGradient>
</defs>
</svg>
