<svg width="60" height="60" viewBox="0 0 60 60" fill="none" xmlns="http://www.w3.org/2000/svg">
<path d="M20.4353 13.7033C17.8816 14.1821 15.2478 14.118 13.4457 13.9727C12.2179 13.8737 11.0883 14.7504 11.0429 15.9813C10.8817 20.3545 10.9991 30.1516 14.6139 37.5837C18.8234 46.2385 27.6702 50.8889 30.1078 50.8889C32.5454 50.8889 41.1873 45.9877 45.4983 37.0853C48.9223 30.0145 49.1114 20.495 48.9668 15.9005C48.9235 14.5242 47.5369 13.6022 46.1761 13.8123C44.521 14.0678 42.2398 14.2025 39.7803 13.7033C36.4797 13.0334 33.2075 11.0581 31.4431 9.85589C30.6414 9.3097 29.5661 9.30186 28.7608 9.84272C26.929 11.073 23.5258 13.1239 20.4353 13.7033Z" fill="url(#paint0_linear_24995_66508)"/>
<g filter="url(#filter0_f_24995_66508)">
<path d="M33.0762 25.0808C33.0762 23.5682 31.8498 22.3419 30.3373 22.3419C28.8248 22.3419 27.5984 23.5682 27.5984 25.0808V29.069H25.9099V25.0808C25.9099 22.6355 27.892 20.6534 30.3373 20.6534C32.7826 20.6534 34.7646 22.6355 34.7646 25.0808V29.069H33.0762V25.0808Z" fill="#238AFF"/>
<path fill-rule="evenodd" clip-rule="evenodd" d="M35.3275 27.6169C36.2018 27.6169 36.9106 28.326 36.9108 29.2003V35.7635C36.9108 36.6379 36.2019 37.3468 35.3275 37.3468H25.3451C24.4706 37.3468 23.7617 36.6379 23.7617 35.7635V29.2003C23.7619 28.326 24.4707 27.6169 25.3451 27.6169H35.3275ZM30.3373 29.5281C29.5523 29.5283 28.916 30.1646 28.9158 30.9496C28.9158 31.584 29.3316 32.1211 29.9054 32.3041L29.5755 35.0048H31.097L30.7043 32.3216C31.3115 32.1597 31.7598 31.6078 31.7598 30.9496C31.7596 30.1645 31.1224 29.5281 30.3373 29.5281Z" fill="#238AFF"/>
</g>
<path d="M32.7402 24.771C32.7402 23.2585 31.5139 22.0321 30.0014 22.0321C28.4888 22.0321 27.2625 23.2585 27.2625 24.771V28.7592H25.574V24.771C25.574 22.3257 27.5561 20.3436 30.0014 20.3436C32.4466 20.3436 34.4287 22.3257 34.4287 24.771V28.7592H32.7402V24.771Z" fill="white"/>
<path fill-rule="evenodd" clip-rule="evenodd" d="M34.9915 27.3072C35.8659 27.3072 36.5747 28.0162 36.5749 28.8905V35.4537C36.5749 36.3281 35.866 37.037 34.9915 37.037H25.0091C24.1347 37.037 23.4258 36.3281 23.4258 35.4537V28.8905C23.426 28.0162 24.1348 27.3072 25.0091 27.3072H34.9915ZM30.0014 29.2183C29.2164 29.2185 28.5801 29.8548 28.5799 30.6398C28.5799 31.2742 28.9957 31.8113 29.5694 31.9943L29.2396 34.695H30.7611L30.3683 32.0118C30.9756 31.8499 31.4239 31.298 31.4239 30.6398C31.4237 29.8547 30.7865 29.2183 30.0014 29.2183Z" fill="white"/>
<defs>
<filter id="filter0_f_24995_66508" x="21.6506" y="18.5423" width="17.3707" height="20.9156" filterUnits="userSpaceOnUse" color-interpolation-filters="sRGB">
<feFlood flood-opacity="0" result="BackgroundImageFix"/>
<feBlend mode="normal" in="SourceGraphic" in2="BackgroundImageFix" result="shape"/>
<feGaussianBlur stdDeviation="1.05556" result="effect1_foregroundBlur_24995_66508"/>
</filter>
<linearGradient id="paint0_linear_24995_66508" x1="30" y1="8.88889" x2="30" y2="50.8889" gradientUnits="userSpaceOnUse">
<stop stop-color="#8BC1FF"/>
<stop offset="0.863909" stop-color="#238AFF"/>
</linearGradient>
</defs>
</svg>
