<svg width="36" height="36" viewBox="0 0 36 36" fill="none" xmlns="http://www.w3.org/2000/svg">
<path d="M31.9395 12.4395C32.5252 11.8537 33.4748 11.8537 34.0605 12.4395C34.6463 13.0252 34.6463 13.9748 34.0605 14.5605L28.0605 20.5605C27.4748 21.1463 26.5252 21.1463 25.9395 20.5605L22.9395 17.5605C22.3537 16.9748 22.3537 16.0252 22.9395 15.4395C23.5252 14.8537 24.4748 14.8537 25.0605 15.4395L27 17.3789L31.9395 12.4395Z" fill="url(#paint0_linear_24542_43294)"/>
<path d="M22.5 31.5V28.5C22.5 27.3065 22.0256 26.1623 21.1816 25.3184C20.4433 24.5801 19.4753 24.1244 18.4453 24.022L18 24H9C7.80653 24 6.66227 24.4744 5.81836 25.3184C4.97445 26.1623 4.5 27.3065 4.5 28.5V31.5C4.5 32.3284 3.82843 33 3 33C2.17157 33 1.5 32.3284 1.5 31.5V28.5C1.5 26.5109 2.29074 24.6038 3.69727 23.1973C5.10379 21.7907 7.01088 21 9 21H18C19.9891 21 21.8962 21.7907 23.3027 23.1973C24.7093 24.6038 25.5 26.5109 25.5 28.5V31.5C25.5 32.3284 24.8284 33 24 33C23.1716 33 22.5 32.3284 22.5 31.5Z" fill="url(#paint1_linear_24542_43294)"/>
<path d="M18 10.5C18 8.01472 15.9853 6 13.5 6C11.0147 6 9 8.01472 9 10.5C9 12.9853 11.0147 15 13.5 15C15.9853 15 18 12.9853 18 10.5ZM21 10.5C21 14.6421 17.6421 18 13.5 18C9.35786 18 6 14.6421 6 10.5C6 6.35786 9.35786 3 13.5 3C17.6421 3 21 6.35786 21 10.5Z" fill="url(#paint2_linear_24542_43294)"/>
<defs>
<linearGradient id="paint0_linear_24542_43294" x1="17.9999" y1="3" x2="17.9999" y2="33" gradientUnits="userSpaceOnUse">
<stop stop-color="#12A3FC"/>
<stop offset="1" stop-color="#AA7EFF"/>
</linearGradient>
<linearGradient id="paint1_linear_24542_43294" x1="17.9999" y1="3" x2="17.9999" y2="33" gradientUnits="userSpaceOnUse">
<stop stop-color="#12A3FC"/>
<stop offset="1" stop-color="#AA7EFF"/>
</linearGradient>
<linearGradient id="paint2_linear_24542_43294" x1="17.9999" y1="3" x2="17.9999" y2="33" gradientUnits="userSpaceOnUse">
<stop stop-color="#12A3FC"/>
<stop offset="1" stop-color="#AA7EFF"/>
</linearGradient>
</defs>
</svg>
