<svg width="36" height="36" viewBox="0 0 36 36" fill="none" xmlns="http://www.w3.org/2000/svg">
<path d="M22.5 31.5V28.5C22.5 27.3065 22.0256 26.1623 21.1816 25.3184C20.4433 24.5801 19.4753 24.1244 18.4453 24.022L18 24H9C7.80653 24 6.66227 24.4744 5.81836 25.3184C4.97445 26.1623 4.5 27.3065 4.5 28.5V31.5C4.5 32.3284 3.82843 33 3 33C2.17157 33 1.5 32.3284 1.5 31.5V28.5C1.5 26.5109 2.29074 24.6038 3.69727 23.1973C5.10379 21.7907 7.01088 21 9 21H18C19.9891 21 21.8962 21.7907 23.3027 23.1973C24.7093 24.6038 25.5 26.5109 25.5 28.5V31.5C25.5 32.3284 24.8284 33 24 33C23.1716 33 22.5 32.3284 22.5 31.5Z" fill="url(#paint0_linear_24542_43284)"/>
<path d="M26.9941 10.5001C26.9941 9.50336 26.6636 8.53454 26.0537 7.7462C25.4436 6.9578 24.5885 6.39383 23.6235 6.14366C22.8217 5.93572 22.3405 5.11741 22.5483 4.31553C22.7563 3.51369 23.5746 3.03246 24.3765 3.24034C25.9847 3.6573 27.4085 4.59678 28.4253 5.91075C29.442 7.22472 29.9941 8.83871 29.9941 10.5001C29.9941 12.1615 29.4421 13.7755 28.4253 15.0895C27.4085 16.4034 25.9847 17.3429 24.3765 17.7599C23.5747 17.9677 22.7564 17.4864 22.5483 16.6847C22.3405 15.8828 22.8217 15.0645 23.6235 14.8565C24.5885 14.6064 25.4436 14.0424 26.0537 13.254C26.6637 12.4657 26.9941 11.4969 26.9941 10.5001Z" fill="url(#paint1_linear_24542_43284)"/>
<path d="M31.5 31.5002V28.5016L31.4839 28.1296C31.4116 27.2653 31.0912 26.4374 30.5566 25.7477C29.9458 24.9597 29.0904 24.3959 28.125 24.1467C27.323 23.9395 26.8412 23.1221 27.0483 22.32C27.2555 21.518 28.0729 21.0362 28.875 21.2433C30.4839 21.6588 31.9102 22.596 32.9282 23.9094C33.9462 25.2226 34.4987 26.8371 34.5 28.4987V31.5002C34.4999 32.3285 33.8284 33.0002 33 33.0002C32.1716 33.0002 31.5001 32.3285 31.5 31.5002Z" fill="url(#paint2_linear_24542_43284)"/>
<path d="M18 10.5C18 8.01472 15.9853 6 13.5 6C11.0147 6 9 8.01472 9 10.5C9 12.9853 11.0147 15 13.5 15C15.9853 15 18 12.9853 18 10.5ZM21 10.5C21 14.6421 17.6421 18 13.5 18C9.35786 18 6 14.6421 6 10.5C6 6.35786 9.35786 3 13.5 3C17.6421 3 21 6.35786 21 10.5Z" fill="url(#paint3_linear_24542_43284)"/>
<defs>
<linearGradient id="paint0_linear_24542_43284" x1="18" y1="3" x2="18" y2="33.0002" gradientUnits="userSpaceOnUse">
<stop stop-color="#12A3FC"/>
<stop offset="1" stop-color="#AA7EFF"/>
</linearGradient>
<linearGradient id="paint1_linear_24542_43284" x1="18" y1="3" x2="18" y2="33.0002" gradientUnits="userSpaceOnUse">
<stop stop-color="#12A3FC"/>
<stop offset="1" stop-color="#AA7EFF"/>
</linearGradient>
<linearGradient id="paint2_linear_24542_43284" x1="18" y1="3" x2="18" y2="33.0002" gradientUnits="userSpaceOnUse">
<stop stop-color="#12A3FC"/>
<stop offset="1" stop-color="#AA7EFF"/>
</linearGradient>
<linearGradient id="paint3_linear_24542_43284" x1="18" y1="3" x2="18" y2="33.0002" gradientUnits="userSpaceOnUse">
<stop stop-color="#12A3FC"/>
<stop offset="1" stop-color="#AA7EFF"/>
</linearGradient>
</defs>
</svg>
