<svg xmlns="http://www.w3.org/2000/svg" width="36" height="36" fill="currentColor" viewBox="0 0 36 36">
  <path d="M28.5 9c-3.48 0-7.544-2.006-10.334-4.44a.256.256 0 0 0-.332 0h-.001C15.059 6.977 10.98 9 7.5 9v10.5l.013.617c.134 3.039 1.257 5.29 2.966 7.042 1.865 1.91 4.496 3.29 7.515 4.333l.034.01c3.007-1.05 5.631-2.43 7.492-4.34 1.823-1.87 2.98-4.309 2.98-7.663V9Zm3 10.5c0 4.145-1.469 7.333-3.83 9.757-2.322 2.381-5.44 3.96-8.667 5.084l-.011.005a3 3 0 0 1-1.976-.02l-.027-.008-.007-.002c-3.224-1.117-6.333-2.689-8.648-5.06-2.217-2.271-3.646-5.214-3.816-8.99L4.5 19.5V9a3.001 3.001 0 0 1 3-3l.482-.017c2.456-.181 5.598-1.689 7.891-3.692l.013-.01a3.254 3.254 0 0 1 4.228 0l.013.01C22.587 4.44 25.984 6 28.5 6a3 3 0 0 1 3 3v10.5Z"/>
  <path d="M21.44 13.94a1.5 1.5 0 1 1 2.12 2.12l-6 6a1.5 1.5 0 0 1-2.12 0l-3-3a1.5 1.5 0 1 1 2.12-2.12l1.94 1.939 4.94-4.94Z"/>
</svg>
