<svg width="20" height="20" viewBox="0 0 20 20" fill="none" xmlns="http://www.w3.org/2000/svg">
<path d="M13.5667 7.36328C13.9195 7.01332 14.4891 7.01533 14.8391 7.36816C15.189 7.72094 15.1868 8.29057 14.8342 8.64062L10.634 12.8076C10.2832 13.1557 9.71735 13.1555 9.36646 12.8076L5.16626 8.64062L5.10376 8.57324C4.81396 8.2209 4.83316 7.69901 5.16138 7.36816C5.48964 7.03737 6.01087 7.01469 6.36548 7.30176L6.43384 7.36328L10.0002 10.9004L13.5667 7.36328Z" fill="#11A3FD"/>
<path d="M9.09961 12.168V2.16797C9.09961 1.67091 9.50294 1.26758 10 1.26758C10.4971 1.26758 10.9004 1.67091 10.9004 2.16797V12.168C10.9004 12.665 10.4971 13.0684 10 13.0684C9.50294 13.0684 9.09961 12.665 9.09961 12.168Z" fill="#11A3FD"/>
<path d="M1.09961 14.9999V12.9999C1.09961 12.5029 1.50294 12.0995 2 12.0995C2.49706 12.0995 2.90039 12.5029 2.90039 12.9999V14.9999C2.90039 15.6075 3.39249 16.0995 4 16.0995H16C16.6075 16.0995 17.0996 15.6075 17.0996 14.9999V12.9999C17.0996 12.5029 17.5029 12.0995 18 12.0995C18.4971 12.0995 18.9004 12.5029 18.9004 12.9999V14.9999C18.9004 16.6016 17.6016 17.9003 16 17.9003H4C2.39837 17.9003 1.09961 16.6016 1.09961 14.9999Z" fill="#11A3FD"/>
</svg>
