<svg width="24" height="24" viewBox="0 0 24 24" fill="none" xmlns="http://www.w3.org/2000/svg">
<path d="M20.0605 6.06047C20.451 6.451 20.451 7.08416 20.0605 7.47469L7.47468 20.0605C7.08416 20.451 6.451 20.451 6.06047 20.0605L3.93953 17.9395C3.549 17.549 3.549 16.9158 3.93953 16.5253L16.5253 3.93953C16.9158 3.549 17.549 3.549 17.9395 3.93953L20.0605 6.06047Z" fill="#FF5025"/>
<path d="M6.06047 3.93953C6.451 3.549 7.08416 3.549 7.47468 3.93953L20.0605 16.5253C20.451 16.9158 20.451 17.549 20.0605 17.9395L17.9395 20.0605C17.549 20.451 16.9158 20.451 16.5253 20.0605L3.93953 7.47468C3.549 7.08416 3.549 6.451 3.93953 6.06047L6.06047 3.93953Z" fill="#FF5025"/>
</svg>
