<svg width="120" height="60" viewBox="0 0 120 60" fill="none" xmlns="http://www.w3.org/2000/svg">
<path d="M32.3994 36.6206V18.715H42.9839V20.9676H34.5942V26.4692H42.1319V28.7219H34.5942V34.339H43.5759V36.5917H32.3994V36.6206Z" fill="white"/>
<path d="M54.695 36.6203L51.0561 31.8551L47.4173 36.6203H44.8469L49.8143 30.2523L44.5726 23.6821H47.4606L51.0417 28.6061L54.6806 23.6821H57.5108L52.5434 30.2523L57.2509 36.6203H54.695Z" fill="white"/>
<path d="M60.7883 34.7004V43.5232H58.5935V30.3106C58.5935 26.9461 61.1638 23.365 65.1637 23.365C69.2213 23.365 72.2826 25.9353 72.2826 30.1518C72.2826 34.2672 69.178 37.0974 65.6546 37.0974C63.9507 37.0974 61.6403 36.361 60.7883 34.7004ZM69.9866 30.1518C69.9866 27.2638 68.1094 25.5599 64.8027 25.7187C63.1998 25.7765 60.745 26.9461 60.9472 31.0615C61.0049 32.4044 62.3912 34.917 65.438 34.917C68.0661 34.917 69.9866 33.4152 69.9866 30.1518Z" fill="white"/>
<path d="M74.1596 23.6824H76.3545V25.0687C77.4231 23.8413 79.0836 23.4081 80.8453 23.4081V25.7618C80.571 25.704 77.9573 25.3864 76.3545 28.8086V36.664H74.1596V23.6824Z" fill="white"/>
<path d="M81.4375 30.1518C81.4375 26.4118 84.1089 23.365 87.8055 23.365C92.3975 23.365 94.1158 26.4118 94.1158 30.3106V31.3792H83.849C84.0078 33.834 86.2027 35.1191 88.2387 35.0758C89.7405 35.018 90.7513 34.5993 91.8199 33.5307L93.2639 35.0325C91.9209 36.3176 90.217 37.1696 88.1377 37.1696C84.21 37.0974 81.4375 34.2094 81.4375 30.1518ZM87.6323 25.5599C85.5529 25.5599 83.9356 27.3793 83.8345 29.3576H91.8054C91.8054 27.4226 90.4192 25.5599 87.6323 25.5599Z" fill="white"/>
<path d="M95.2279 34.8006L96.8308 33.3566C96.773 33.3566 97.6394 34.2086 97.7405 34.2663C98.1159 34.584 98.4914 34.8006 98.9679 34.9017C100.354 35.2771 102.867 35.176 103.083 33.2411C103.184 32.1725 102.39 31.5805 101.48 31.2051C100.311 30.7719 99.0256 30.613 97.8416 30.0787C96.4986 29.4867 95.6467 28.4759 95.6467 26.9741C95.6467 23.0753 101.206 22.4255 103.719 24.245C103.82 24.3461 105.062 25.4724 105.004 25.4724L103.401 26.7575C102.592 25.7901 101.856 25.3135 100.138 25.3135C99.2856 25.3135 98.1015 25.689 97.8849 26.5987C97.5672 27.8839 99.0112 28.3604 99.9642 28.6347C101.249 28.9524 102.636 29.169 103.762 29.8621C105.307 30.8296 105.682 32.909 105.105 34.5118C104.47 36.2735 102.535 36.9666 100.831 37.0244C98.809 37.1543 97.0474 36.519 95.6034 35.075C95.4878 35.075 95.2279 34.8006 95.2279 34.8006Z" fill="white"/>
<path d="M106.506 34.8006L108.108 33.3566C108.051 33.3566 108.917 34.2086 109.018 34.2663C109.394 34.584 109.769 34.8006 110.246 34.9017C111.632 35.2771 114.144 35.1761 114.361 33.2411C114.462 32.1725 113.668 31.5805 112.758 31.2051C111.588 30.7719 110.303 30.613 109.119 30.0787C107.776 29.4867 106.924 28.4759 106.924 26.9741C106.924 23.0753 112.484 22.4255 114.996 24.245C115.097 24.3461 116.339 25.4724 116.281 25.4724L114.679 26.7575C113.87 25.7901 113.134 25.3135 111.415 25.3135C110.563 25.3135 109.379 25.689 109.163 26.5987C108.845 27.8839 110.289 28.3604 111.242 28.6347C112.527 28.9524 113.913 29.169 115.04 29.8621C116.585 30.8296 116.96 32.909 116.383 34.5118C115.747 36.2735 113.812 36.9666 112.108 37.0244C110.072 37.1254 108.311 36.4901 106.867 35.0461C106.78 35.075 106.506 34.8006 106.506 34.8006Z" fill="white"/>
<path d="M17.5262 36.6202L15.9234 32.346H7.25939L5.65655 36.6202H3.3606L10.3062 18.7002H12.8188L19.7211 36.6202H17.5262ZM11.4903 21.2705L8.22687 30.1511H15.0137L11.4903 21.2705Z" fill="white"/>
<path d="M21.1648 18.715H23.4174V36.635H21.1648V18.715Z" fill="white"/>
<path d="M26.7824 36.6204V23.9421H29.0351V36.6204H26.7824Z" fill="white"/>
<path d="M31.1717 19.8269C31.1717 19.7691 31.1717 19.7691 31.1717 19.7258C31.1717 19.668 31.1717 19.668 31.1717 19.6247C29.4678 19.567 28.0671 18.1807 28.0238 16.4768C27.966 16.4768 27.9227 16.4768 27.865 16.4768C27.8072 16.4768 27.7639 16.4768 27.7061 16.4768C27.6484 18.1807 26.2621 19.5814 24.5582 19.6247C24.5582 19.6825 24.5582 19.6825 24.5582 19.7258C24.5582 19.7836 24.5582 19.7836 24.5582 19.8269C26.2621 19.8846 27.6628 21.2709 27.7061 22.9748C27.7639 22.9748 27.8072 22.9748 27.865 22.9748C27.9227 22.9748 27.966 22.9748 28.0238 22.9748C28.0671 21.2709 29.4534 19.8846 31.1717 19.8269Z" fill="white"/>
</svg>
