<svg width="120" height="60" viewBox="0 0 120 60" fill="none" xmlns="http://www.w3.org/2000/svg">
<path fill-rule="evenodd" clip-rule="evenodd" d="M70.9356 38.0207C66.2465 41.477 59.4498 43.321 53.5981 43.321C45.3929 43.321 38.0062 40.2862 32.4179 35.2388C31.9788 34.8419 32.3722 34.301 32.8991 34.6101C38.93 38.119 46.387 40.23 54.0898 40.23C59.2848 40.23 64.9995 39.1552 70.2542 36.9248C71.048 36.5876 71.7119 37.4447 70.9356 38.0207Z" fill="white"/>
<path fill-rule="evenodd" clip-rule="evenodd" d="M72.885 35.7903C72.2878 35.0245 68.9229 35.4285 67.4125 35.6076C66.9524 35.6638 66.8821 35.2634 67.2966 34.9754C69.9766 33.0892 74.3742 33.6336 74.8871 34.2658C75.3999 34.9016 74.7536 39.3098 72.2351 41.4137C71.8488 41.7369 71.48 41.5648 71.6521 41.1362C72.2176 39.7242 73.4856 36.5595 72.885 35.7903Z" fill="white"/>
<path fill-rule="evenodd" clip-rule="evenodd" d="M67.5179 21.6596V19.8261C67.5179 19.5486 67.7286 19.3625 67.9815 19.3625H76.1902C76.4536 19.3625 76.6644 19.5521 76.6644 19.8261V21.3962C76.6608 21.6596 76.4396 22.0038 76.0462 22.5483L71.7926 28.6213C73.3732 28.5827 75.0416 28.818 76.4747 29.6259C76.7978 29.8086 76.8856 30.0755 76.9102 30.3389V32.2954C76.9102 32.5623 76.6152 32.8749 76.3061 32.7134C73.7806 31.3892 70.4262 31.2452 67.6338 32.7274C67.3493 32.882 67.0507 32.5729 67.0507 32.3059V30.4478C67.0507 30.1493 67.0542 29.64 67.3528 29.1868L72.2808 22.1198H67.9921C67.7286 22.1198 67.5179 21.9336 67.5179 21.6596Z" fill="white"/>
<path fill-rule="evenodd" clip-rule="evenodd" d="M37.5742 33.0997H35.0769C34.838 33.0822 34.6483 32.903 34.6308 32.6747V19.8577C34.6308 19.6013 34.845 19.3976 35.112 19.3976H37.4407C37.6831 19.4081 37.8763 19.5943 37.8939 19.8261V21.5016H37.9395C38.5472 19.8823 39.6887 19.1271 41.2272 19.1271C42.7902 19.1271 43.7667 19.8823 44.4692 21.5016C45.0733 19.8823 46.4467 19.1271 47.9184 19.1271C48.9652 19.1271 50.1102 19.5592 50.8092 20.5286C51.5995 21.6069 51.4379 23.1735 51.4379 24.5469L51.4344 32.6361C51.4344 32.8925 51.2202 33.0997 50.9532 33.0997H48.4594C48.21 33.0822 48.0098 32.882 48.0098 32.6361V25.843C48.0098 25.3021 48.0589 23.9533 47.9395 23.4405C47.7534 22.5799 47.1949 22.3375 46.4713 22.3375C45.8672 22.3375 45.2349 22.7415 44.9785 23.3878C44.7221 24.0341 44.7467 25.1159 44.7467 25.843V32.6361C44.7467 32.8925 44.5324 33.0997 44.2655 33.0997H41.7716C41.5187 33.0822 41.322 32.882 41.322 32.6361L41.3185 25.843C41.3185 24.4134 41.5538 22.3094 39.7801 22.3094C37.9852 22.3094 38.0554 24.3607 38.0554 25.843V32.6361C38.0554 32.8925 37.8412 33.0997 37.5742 33.0997Z" fill="white"/>
<path fill-rule="evenodd" clip-rule="evenodd" d="M83.7314 19.1271C87.4371 19.1271 89.4427 22.3094 89.4427 26.3558C89.4427 30.2652 87.2263 33.3667 83.7314 33.3667C80.0925 33.3667 78.1115 30.1844 78.1115 26.2188C78.1115 22.2286 80.1171 19.1271 83.7314 19.1271ZM83.7525 21.7439C81.912 21.7439 81.7961 24.2518 81.7961 25.8149C81.7961 27.3814 81.7715 30.7253 83.7314 30.7253C85.6668 30.7253 85.7581 28.0277 85.7581 26.3839C85.7581 25.3021 85.7125 24.0095 85.3858 22.9838C85.1048 22.0917 84.5463 21.7439 83.7525 21.7439Z" fill="white"/>
<path fill-rule="evenodd" clip-rule="evenodd" d="M94.2477 33.0997H91.7609C91.5115 33.0822 91.3113 32.882 91.3113 32.6361L91.3078 19.8156C91.3289 19.5802 91.5361 19.3976 91.789 19.3976H94.1037C94.3215 19.4081 94.5006 19.5557 94.5498 19.7559V21.7158H94.5955C95.2944 19.9631 96.2744 19.1271 97.999 19.1271C99.1195 19.1271 100.212 19.5311 100.914 20.6375C101.568 21.6631 101.568 23.3878 101.568 24.6277V32.6958C101.54 32.9206 101.332 33.0997 101.086 33.0997H98.5821C98.3538 33.0822 98.1641 32.9136 98.1395 32.6958V25.7341C98.1395 24.3326 98.3011 22.2813 96.5765 22.2813C95.9688 22.2813 95.4103 22.6888 95.1329 23.307C94.7816 24.0903 94.736 24.87 94.736 25.7341V32.6361C94.7324 32.8925 94.5147 33.0997 94.2477 33.0997Z" fill="white"/>
<path fill-rule="evenodd" clip-rule="evenodd" d="M60.9743 26.9775C60.9743 27.9505 60.9989 28.7619 60.5071 29.6259C60.1102 30.3284 59.478 30.7605 58.779 30.7605C57.8201 30.7605 57.2581 30.0299 57.2581 28.9515C57.2581 26.823 59.1654 26.4366 60.9743 26.4366V26.9775ZM63.4927 33.0646C63.3276 33.2122 63.0888 33.2227 62.9026 33.1244C62.0737 32.4359 61.9227 32.1163 61.4696 31.4594C60.0997 32.8574 59.1267 33.2754 57.3529 33.2754C55.249 33.2754 53.6157 31.9793 53.6157 29.3836C53.6157 27.3569 54.7116 25.9765 56.2781 25.3021C57.6339 24.705 59.5272 24.5996 60.9743 24.4345V24.1114C60.9743 23.5177 61.02 22.8153 60.6687 22.3024C60.3666 21.8423 59.7836 21.6526 59.2672 21.6526C58.3153 21.6526 57.4688 22.1409 57.2616 23.1525C57.2195 23.3773 57.0544 23.5985 56.8261 23.6091L54.406 23.3491C54.2023 23.3035 53.9739 23.1384 54.0337 22.8258C54.5886 19.8894 57.244 19.0042 59.6185 19.0042C60.8338 19.0042 62.4214 19.3274 63.3803 20.2476C64.5956 21.3822 64.4797 22.896 64.4797 24.5434V28.4352C64.4797 29.6049 64.9645 30.1177 65.4211 30.7499C65.5791 30.9747 65.6143 31.2452 65.4105 31.4138C64.9012 31.8388 63.995 32.6291 63.4962 33.0717L63.4927 33.0646Z" fill="white"/>
<path fill-rule="evenodd" clip-rule="evenodd" d="M28.2342 26.9775C28.2342 27.9504 28.2588 28.7618 27.7671 29.6259C27.3702 30.3284 26.7414 30.7604 26.0389 30.7604C25.08 30.7604 24.5216 30.0298 24.5216 28.9515C24.5216 26.8229 26.4288 26.4365 28.2342 26.4365V26.9775ZM30.7527 33.0646C30.5876 33.2121 30.3487 33.2226 30.1626 33.1243C29.3336 32.4358 29.1861 32.1162 28.7295 31.4594C27.3596 32.8573 26.3902 33.2753 24.6129 33.2753C22.5124 33.2753 20.8756 31.9792 20.8756 29.3835C20.8756 27.3568 21.975 25.9764 23.5381 25.302C24.8939 24.7049 26.7871 24.5995 28.2342 24.4344V24.1113C28.2342 23.5177 28.2799 22.8152 27.9322 22.3024C27.6266 21.8422 27.0435 21.6526 26.5307 21.6526C25.5788 21.6526 24.7288 22.1408 24.5216 23.1524C24.4794 23.3772 24.3143 23.5985 24.0895 23.609L21.6659 23.3491C21.4622 23.3034 21.2374 23.1383 21.2936 22.8257C21.8521 19.8893 24.504 19.0042 26.8784 19.0042C28.0937 19.0042 29.6814 19.3273 30.6403 20.2476C31.8556 21.3821 31.7397 22.896 31.7397 24.5433V28.4351C31.7397 29.6048 32.2244 30.1176 32.681 30.7499C32.8426 30.9746 32.8777 31.2451 32.674 31.4137C32.1647 31.8387 31.2585 32.629 30.7597 33.0716L30.7527 33.0646Z" fill="white"/>
</svg>
