<svg width="120" height="60" viewBox="0 0 120 60" fill="none" xmlns="http://www.w3.org/2000/svg">
<path d="M37.2337 22.7756C32.9018 22.7756 29.2921 24.69 29.2921 30.4655C29.2921 35.041 31.7194 37.9224 37.3455 37.9224C43.9678 37.9224 44.3923 33.3784 44.3923 33.3784H41.1835C41.1835 33.3784 40.4955 35.8252 37.1498 35.8252C36.5464 35.8671 35.9413 35.7789 35.3722 35.5659C34.8031 35.3529 34.2824 35.0199 33.8426 34.5876C33.4028 34.1552 33.0534 33.633 32.8164 33.0535C32.5793 32.4741 32.4597 31.8499 32.465 31.22H44.7279V29.5334C44.7279 26.8744 43.1074 22.7756 37.2337 22.7756ZM37.1219 24.9311C39.7158 24.9311 41.4841 26.5864 41.4841 29.0673H32.5359C32.5359 26.4335 34.844 24.9311 37.1219 24.9311Z" fill="white"/>
<path d="M44.7258 17.1831V35.0221C44.7258 36.0347 44.6564 37.4565 44.6564 37.4565H47.717C47.717 37.4565 47.8268 36.4353 47.8268 35.5021C47.8268 35.5021 49.3389 37.9662 53.4504 37.9662C54.421 38.0145 55.3906 37.8501 56.2964 37.4838C57.2023 37.1175 58.0244 36.5573 58.7095 35.8395C59.3947 35.1217 59.9277 34.2622 60.2741 33.3165C60.6205 32.3708 60.7727 31.3599 60.7208 30.3491C60.7665 29.3445 60.6097 28.3411 60.2604 27.4036C59.9111 26.466 59.377 25.6151 58.6927 24.9057C58.0084 24.1963 57.1889 23.6441 56.2872 23.2848C55.3855 22.9255 54.4215 22.7669 53.4574 22.8194C49.1853 22.8194 47.8577 25.2225 47.8577 25.2225V17.1831H44.7258ZM52.6674 25.0259C55.6075 25.0259 57.4771 27.2989 57.4771 30.3491C57.4771 33.62 55.3178 35.7597 52.6884 35.7597C49.5504 35.7597 47.8577 33.2076 47.8577 30.3783C47.8577 27.7419 49.3766 25.0259 52.6674 25.0259Z" fill="white"/>
<path d="M68.3267 22.7756C61.8098 22.7756 61.3918 26.4926 61.3918 27.0866H64.6355C64.6355 27.0866 64.8056 24.9165 68.103 24.9165C70.2456 24.9165 71.906 25.9381 71.906 27.9022V28.6013H68.103C63.0542 28.6013 60.3851 30.1398 60.3851 33.2618C60.3851 36.3344 62.8513 38.0061 66.184 38.0061C70.726 38.0061 72.1891 35.3918 72.1891 35.3918C72.1891 36.4317 72.266 37.4563 72.266 37.4563H75.1497C75.1497 37.4563 75.0378 36.1862 75.0378 35.3737V28.3501C75.0378 23.7449 71.4718 22.7756 68.3267 22.7756ZM71.906 30.6985V31.6306C71.906 32.8464 71.1858 35.8688 66.946 35.8688C64.6243 35.8688 63.6289 34.6618 63.6289 33.2618C63.6289 30.7149 66.9811 30.6985 71.906 30.6985Z" fill="white"/>
<path d="M73.2909 23.3591H76.9401L82.1772 34.2885L87.4023 23.3591H90.708L81.1905 42.8168H77.7231L80.4695 37.3927L73.2909 23.3591Z" fill="white"/>
</svg>
