<svg width="120" height="60" viewBox="0 0 120 60" fill="none" xmlns="http://www.w3.org/2000/svg">
<path d="M38.0776 19.8072V27.3219C38.0776 27.3219 40.7266 27.3219 42.1323 27.2137C43.2676 26.9975 43.4298 26.8894 43.646 25.8081L44.0785 24.1862H45.2679L45.0516 27.7003L45.1598 31.3765H43.9704L43.646 29.9709C43.3216 28.9437 42.9432 28.7275 42.1323 28.6734C41.1051 28.5653 38.0776 28.5653 38.0776 28.5653V34.8906C38.0776 36.08 38.6723 36.6206 40.132 36.6206H44.4029C45.7004 36.6206 47.052 36.5125 47.8629 34.5662L48.9441 32.1334H49.9713C49.8632 32.62 49.3766 37.1072 49.2685 38.1343C49.2685 38.1343 45.4301 38.0262 43.8082 38.0262H32.0767V36.945L33.4823 36.6206C34.5095 36.4043 34.8338 36.134 34.8338 35.3231C34.8338 35.3231 34.942 32.5659 34.942 28.0247C34.942 23.4834 34.8338 20.7262 34.8338 20.7262C34.8338 19.8072 34.5095 19.5909 33.4823 19.4287L32.0767 19.0503V17.9691L36.3476 18.0772H44.457C46.0788 18.0231 48.836 17.7528 48.836 17.7528C48.836 17.7528 48.7279 19.4828 48.6198 23.5375H47.4845L47.052 22.1319C46.6735 20.2937 46.0788 19.3747 44.9435 19.3747H38.5642C38.0776 19.3747 38.0776 19.4828 38.0776 19.8072ZM54.5126 20.5641H55.756V24.835L59.9188 24.6187L59.7026 26.565L55.6479 26.2406V33.7553C55.6479 35.8637 56.3507 36.7287 57.5941 36.7287C58.6754 36.7287 59.5404 36.134 59.8107 35.5934L60.4054 36.2962C59.8107 37.7018 58.0807 38.4047 56.4588 38.4047C54.4585 38.4047 52.7826 37.2153 52.7826 34.8365V26.3487H50.3498V25.3215C52.4041 25.1594 53.9179 23.9159 54.5126 20.5641ZM63.2707 33.7012L64.0816 35.6475C64.406 36.4584 65.1088 37.2693 66.7307 37.2693C68.4607 37.2693 69.1635 36.3503 69.1635 35.215C69.1635 31.755 62.3516 32.7822 62.3516 28.0787C62.3516 25.4297 64.46 24.1862 67.2172 24.1862C68.4607 24.1862 70.2447 24.4025 71.1638 24.7809C70.9475 25.8081 70.8394 27.1056 70.8394 28.1328L69.8122 28.2409L69.1094 26.1865C68.8932 25.7 68.0822 25.2675 67.055 25.2675C65.8116 25.2675 64.6222 25.754 64.6222 27.1056C64.6222 30.2412 71.6503 29.5384 71.6503 34.2418C71.6503 36.8909 69.3257 38.2965 66.4604 38.2965C64.3519 38.2965 62.1894 37.4856 62.1894 37.4856C62.4057 36.2962 62.2976 34.9447 62.1894 33.6472C62.2435 33.7012 63.2707 33.7012 63.2707 33.7012ZM71.1638 43.4325C71.4882 42.2971 71.6503 40.8915 71.8666 39.594L73.0019 39.4859L73.4344 41.5943C73.5425 42.0809 73.8128 42.5134 74.6238 42.5134C75.9213 42.5134 77.6513 41.7025 79.3272 38.8372C78.6244 37.1072 76.4619 31.5387 74.5157 27.2678C74.0291 26.1325 73.921 26.0244 73.2182 25.8622L72.6775 25.6459V24.6187L75.7591 24.7269L79.4894 24.5106V25.5378L78.5703 25.754C77.8675 25.8622 77.5432 26.2406 77.5432 26.6731C77.5432 26.7812 77.5432 26.8894 77.6513 27.1056C77.8675 27.7003 79.4894 32.2956 80.6788 35.3231C81.706 33.2147 83.5981 28.4031 83.9225 27.5922C84.0306 27.1597 84.1388 27.1056 84.1388 26.7812C84.1388 26.2406 83.8144 25.9703 83.1116 25.754L82.4088 25.5378V24.5106L85.2741 24.6187L87.9231 24.5106V25.5378L87.4366 25.9162C86.4094 26.3487 86.3013 26.4028 85.9228 27.2678L81.4356 37.7559C78.7866 43.7568 76.0294 44.2434 74.1372 44.2434C72.8938 44.2434 71.9747 43.919 71.1638 43.4325Z" fill="white"/>
</svg>
