<svg width="120" height="60" viewBox="0 0 120 60" fill="none" xmlns="http://www.w3.org/2000/svg">
<path d="M18.4351 23.4464C17.2687 23.4464 16.9378 23.9636 16.9378 25.1028V26.9853H20.0391L19.7344 30.0321H16.9379V39.2698H13.2273V30.0322H10.7111V26.9853H13.2146V25.1562C13.2146 22.0821 14.447 20.4655 17.9053 20.4655C18.6274 20.4634 19.3489 20.5078 20.0652 20.5985V23.461M20.2787 33.506C20.2787 36.9382 21.9089 39.5086 25.3012 39.5086C26.035 39.5586 26.7666 39.3838 27.3987 39.0077C28.0307 38.6315 28.5331 38.0717 28.8391 37.4029V39.2583H32.4042V26.9833H28.8391V28.8658C28.5349 28.1928 28.0341 27.6276 27.4027 27.2445C26.7713 26.8615 26.0387 26.6784 25.3012 26.7194C21.905 26.7194 20.2787 29.3034 20.2787 32.722M24.0029 32.6686C24.0029 30.8395 24.6782 29.6217 26.4016 29.6217C27.925 29.6217 28.6945 30.7347 28.6945 32.4842V33.7167C28.6945 35.4661 27.926 36.5792 26.4016 36.5792C24.6792 36.5792 24.0029 35.373 24.0029 33.5323V32.6686ZM40.1436 26.7184C35.7946 26.7203 33.8054 29.0647 33.8054 32.8287V33.3983C33.8054 37.1613 35.7926 39.5076 40.1534 39.5076C41.3945 39.5652 42.6277 39.2809 43.7184 38.6857L42.8965 36.0483C42.1212 36.4149 41.2758 36.6092 40.4183 36.6179C38.4038 36.6179 37.5295 35.4516 37.5295 33.4769V32.7618C37.5295 30.7745 38.4028 29.6208 40.4183 29.6208C41.2763 29.6246 42.1228 29.8192 42.8965 30.1904L43.7184 27.553C42.6309 26.9484 41.3962 26.6594 40.1534 26.7185M44.1948 33.5827C44.1948 37.1875 45.9443 39.5329 50.635 39.5329C52.2701 39.5616 53.8937 39.2545 55.4053 38.6304L54.7299 36.0727C53.4729 36.5699 52.1323 36.8219 50.7806 36.815C48.7137 36.815 47.9714 36.0727 47.8918 34.3891H55.7099V32.4289C55.7099 29.0326 54.0409 26.7038 50.2236 26.7038C46.1675 26.7038 44.1939 28.9968 44.1939 32.4813V33.5904M47.9045 31.9874C47.9045 30.331 48.5546 29.284 50.2333 29.284C51.8635 29.284 52.3933 30.3446 52.3933 31.6827V31.9874L47.9045 31.9874ZM69.4918 32.7297C69.4918 29.2976 67.8354 26.7272 64.4431 26.7272C63.7401 26.6923 63.0417 26.8581 62.4293 27.2052C61.817 27.5522 61.316 28.0663 60.9848 28.6873V20.4849L57.2741 20.8148V39.2514H60.7868V37.3961C61.1191 38.0713 61.6438 38.6329 62.2948 39.0102C62.9459 39.3875 63.694 39.5637 64.445 39.5164C67.8412 39.5164 69.4937 36.9324 69.4937 33.5138M65.7831 33.5672C65.7831 35.2896 65.1077 36.5889 63.332 36.5889C61.8086 36.5889 60.9867 35.5021 60.9867 33.7526V32.467C60.9867 30.7175 61.8086 29.6306 63.332 29.6306C65.1077 29.6306 65.7831 30.9163 65.7831 32.6523V33.5672ZM70.7396 33.4217C70.7396 36.9595 72.754 39.5038 76.8489 39.5038C80.9438 39.5038 82.9582 36.946 82.9582 33.4217V32.7987C82.9582 29.2608 80.9438 26.7166 76.8489 26.7166C72.7541 26.7166 70.7396 29.2744 70.7396 32.7987V33.4217ZM79.2476 33.6739C79.2476 35.3041 78.5722 36.5889 76.8489 36.5889C75.1255 36.5889 74.4502 35.3032 74.4502 33.6739V32.5347C74.4502 30.9046 75.1256 29.6198 76.8489 29.6198C78.5723 29.6198 79.2477 30.9055 79.2477 32.5347L79.2476 33.6739ZM84.1905 33.4217C84.1905 36.9595 86.2049 39.5038 90.2998 39.5038C94.3947 39.5038 96.4091 36.946 96.4091 33.4217V32.7987C96.4091 29.2608 94.3947 26.7166 90.2998 26.7166C86.2049 26.7166 84.1905 29.2744 84.1905 32.7987V33.4217ZM92.7101 33.6739C92.7101 35.3041 92.0348 36.5889 90.3114 36.5889C88.5881 36.5889 87.9118 35.3274 87.9118 33.6778V32.5386C87.9118 30.9084 88.5871 29.6236 90.3105 29.6236C92.0338 29.6236 92.7092 30.9093 92.7092 32.5386L92.7101 33.6739ZM101.523 20.4752L97.8122 20.8052V39.2184H101.523V33.2159L105.339 39.2184H109.289L105.287 33.0082L109.129 26.9532H105.18L101.522 32.8102" fill="white"/>
</svg>
