<svg width="120" height="60" viewBox="0 0 120 60" fill="none" xmlns="http://www.w3.org/2000/svg">
<path d="M95.1876 29.489L99.4224 40.7088C98.1811 40.5385 96.9156 40.2951 95.65 40.1004L93.2648 33.8942L90.8067 39.5893C89.6142 39.3946 88.4216 39.3216 87.2047 39.1755L91.5125 29.3673L87.6184 19.2914H91.2448L93.4352 24.9135L95.7717 19.2914H99.4224L95.1876 29.489ZM84.7709 19.2914H81.4853V38.7374C82.5561 38.8105 83.6757 38.8591 84.7709 38.9808V19.2914ZM78.662 38.5184C75.6685 38.3237 72.6749 38.129 69.6326 38.0803V19.2914H72.967V34.9164C74.8897 34.9651 76.8124 35.1111 78.662 35.2084V38.5184ZM66.055 26.9092V30.2435H61.4794V37.8613H58.1694V19.2914H67.5396V22.6257H61.4794V26.8848L66.055 26.9092ZM52.5474 22.6257V38.0316C51.4278 38.0316 50.2839 38.0316 49.1887 38.0803V22.6257H45.7327V19.2914H56.0277V22.6257H52.5474ZM42.1307 30.4138C40.6704 30.4138 38.9181 30.4138 37.6768 30.4869V35.4518C39.6482 35.3058 41.5953 35.1598 43.591 35.0867V38.2994L34.3425 39.0295V19.2914H43.591V22.6257H37.6768V27.1282C38.9668 27.1282 40.9625 27.0552 42.1307 27.0552V30.4138ZM23.5851 28.5398V40.2221C22.3926 40.3681 21.3217 40.5385 20.1778 40.7088V19.2914H23.3661L27.7226 31.4604V19.2914H31.0813V39.3216C29.8887 39.5163 28.6961 39.5893 27.4306 39.7596L23.5851 28.5398Z" fill="white"/>
</svg>
