<svg width="120" height="60" viewBox="0 0 120 60" fill="none" xmlns="http://www.w3.org/2000/svg">
<path d="M28.3953 28.77C27.4327 28.2352 27.0049 27.8074 27.0049 27.2726C27.0049 26.5239 27.6466 26.0961 28.7162 26.0961C29.8927 26.0961 30.9622 26.6309 30.9622 26.6309L31.8178 24.064C31.8178 24.064 31.0692 23.4223 28.8231 23.4223C25.6145 23.4223 23.4754 25.2405 23.4754 27.8074C23.4754 29.3047 24.545 30.3743 25.8284 31.123C26.8979 31.7647 27.3258 32.1925 27.3258 32.8342C27.3258 33.476 26.791 34.1177 25.7214 34.1177C24.2241 34.1177 22.7267 33.369 22.7267 33.369L21.8711 35.9359C21.8711 35.9359 23.1545 36.7915 25.4006 36.7915C28.6092 36.7915 30.9622 35.1872 30.9622 32.2995C30.9622 30.6951 29.7857 29.5186 28.3953 28.77ZM41.3368 23.3153C39.7324 23.3153 38.449 24.064 37.4864 25.2405L38.8768 17.9676H35.2404L31.7109 36.4707H35.3473L36.5238 30.1604C36.9516 27.8074 38.2351 26.31 39.4116 26.31C40.2672 26.31 40.5881 26.8448 40.5881 27.7004C40.5881 28.2352 40.5881 28.77 40.4811 29.3047L39.0907 36.5776H42.7272L44.1176 29.0908C44.2245 28.3421 44.3315 27.3796 44.3315 26.7378C44.3315 24.5988 43.2619 23.3153 41.3368 23.3153ZM50.6418 33.9038C49.3583 33.9038 48.9305 32.8342 48.9305 31.5508C48.9305 29.5186 50 26.0961 51.9252 26.0961C53.2087 26.0961 53.6365 27.1657 53.6365 28.2352C53.6365 30.5882 52.567 33.9038 50.6418 33.9038ZM52.46 23.3153C48.0749 23.3153 45.1871 27.2726 45.1871 31.6577C45.1871 34.4385 46.8984 36.6846 50.214 36.6846C54.4921 36.6846 57.3799 32.8342 57.3799 28.3421C57.3799 25.7752 55.8825 23.3153 52.46 23.3153ZM63.1554 34.0107C62.1928 34.0107 61.6581 33.476 61.6581 33.476L62.2998 30.0534C62.7276 27.8074 63.9041 26.31 65.1876 26.31C66.2571 26.31 66.6849 27.3796 66.6849 28.3421C66.578 30.6951 65.1875 34.0107 63.1554 34.0107ZM66.6849 23.3153C64.225 23.3153 62.8346 25.4544 62.8346 25.4544L63.0485 23.5292H59.8398C59.7329 24.8127 59.412 26.8448 59.0912 28.3421L56.5243 41.6045H60.1607L61.1233 36.2568H61.2302C61.2302 36.2568 61.9789 36.6846 63.3693 36.6846C67.6475 36.6846 70.4283 32.2995 70.4283 27.9143C70.4283 25.5613 69.3588 23.3153 66.6849 23.3153ZM75.5621 18.1815C74.3856 18.1815 73.53 19.1441 73.53 20.3206C73.53 21.3901 74.1717 22.1388 75.2412 22.1388C76.4177 22.1388 77.3803 21.3901 77.3803 19.9997C77.3803 18.9302 76.6316 18.1815 75.5621 18.1815ZM70.5353 36.4707H74.1717L76.6316 23.6362H72.9952L70.5353 36.4707ZM85.8297 23.6362H83.2628L83.3698 22.9944C83.5837 21.711 84.3324 20.6414 85.5089 20.6414C86.1506 20.6414 86.6853 20.8554 86.6853 20.8554L87.434 17.9676C87.434 17.9676 86.7923 17.6467 85.5089 17.6467C84.2254 17.6467 82.9419 17.9676 81.9794 18.8232C80.6959 19.8928 80.1611 21.3901 79.8403 22.8875L79.7333 23.5292H78.0221L77.4873 26.31H79.1986L77.2734 36.4707H80.9098L82.835 26.31H85.2949L85.8297 23.6362ZM94.493 23.6362C94.493 23.6362 92.247 29.3047 91.1774 32.4064C91.0705 31.4438 90.3218 23.6362 90.3218 23.6362H86.4714L88.6105 35.4011C88.6105 35.615 88.6105 35.8289 88.5036 36.0429C88.0758 36.8985 87.3271 37.6472 86.5784 38.1819C85.9367 38.7167 85.081 39.0376 84.5463 39.2515L85.5089 42.3531C86.2575 42.2462 87.7549 41.6045 89.0383 40.428C90.6427 38.9306 92.247 36.4707 93.7443 33.262L98.1295 23.7431L94.493 23.6362Z" fill="white"/>
</svg>
