<svg width="120" height="60" viewBox="0 0 120 60" fill="none" xmlns="http://www.w3.org/2000/svg">
<path d="M31.8783 22.9157C30.4701 22.0003 29.6252 20.4413 29.6201 18.7665H26.0594L26.0543 33.0398C25.989 34.6894 24.6009 35.9769 22.9512 35.9165C21.3016 35.8562 20.0141 34.458 20.0744 32.8084C20.1348 31.199 21.4575 29.9316 23.0669 29.9316C23.3687 29.9316 23.6654 29.9769 23.9521 30.0724V26.4362C23.6604 26.396 23.3636 26.3759 23.0669 26.3708C19.4558 26.3708 16.5137 29.313 16.5137 32.9241C16.5137 36.5452 19.4458 39.4773 23.0669 39.4773C26.688 39.4773 29.6201 36.5452 29.6201 32.9241V25.6869C31.0636 26.7229 32.7987 27.2812 34.574 27.2812V23.7204C33.6185 23.7204 32.683 23.4438 31.8783 22.9157Z" fill="white"/>
<path d="M37.979 23.7405H49.2045L48.1734 26.9492H45.2564V38.8285H41.6303V26.9492L37.979 26.9542V23.7405Z" fill="white"/>
<path d="M67.6019 23.7405H79.0889L78.0579 26.9492H74.8894V38.8285H71.2532V26.9492L67.6019 26.9542V23.7405Z" fill="white"/>
<path d="M49.8934 28.5385H53.4894V38.8285H49.9135L49.8934 28.5385Z" fill="white"/>
<path d="M54.9178 23.6951H58.5138V30.7211L62.0796 27.2257H66.3696L61.8633 31.6013L66.9128 38.8284H62.9496L59.58 33.8142L58.5138 34.8502V38.8234H54.9178V23.6951Z" fill="white"/>
<path d="M91.4861 23.6951H95.0821V30.7211L98.6479 27.2257H102.943L98.4367 31.6013L103.486 38.8284H99.523L96.1534 33.8142L95.0871 34.8502V38.8234H91.4912V23.6951H91.4861Z" fill="white"/>
<path d="M51.689 27.3616C52.6889 27.3616 53.4996 26.551 53.4996 25.5511C53.4996 24.5511 52.6889 23.7405 51.689 23.7405C50.6891 23.7405 49.8784 24.5511 49.8784 25.5511C49.8784 26.551 50.6891 27.3616 51.689 27.3616Z" fill="white"/>
<path d="M83.8617 26.5065C80.4619 26.5065 77.7007 29.2626 77.7007 32.6624C77.7007 36.0623 80.4568 38.8234 83.8567 38.8234C87.2565 38.8234 90.0176 36.0673 90.0176 32.6674C90.0226 29.2676 87.2665 26.5115 83.8617 26.5065ZM83.8617 35.6599C82.207 35.6599 80.8692 34.3221 80.8692 32.6674C80.8692 31.0128 82.207 29.675 83.8617 29.675C85.5163 29.675 86.8541 31.0128 86.8541 32.6674C86.8592 34.3221 85.5163 35.6599 83.8617 35.6599Z" fill="white"/>
</svg>
