<svg width="41" height="40" viewBox="0 0 41 40" fill="none" xmlns="http://www.w3.org/2000/svg">
<g clip-path="url(#clip0_24140_12797)">
<path d="M20.3395 0C11.9897 0 9.54771 0.0086172 9.07303 0.0479999C7.35952 0.190473 6.29327 0.460347 5.13162 1.03884C4.23642 1.48351 3.53039 1.99893 2.83359 2.72146C1.56461 4.03911 0.79552 5.66016 0.517105 7.5871C0.381752 8.52256 0.342369 8.71334 0.334372 13.4916C0.331303 15.0844 0.334372 17.1805 0.334372 19.9921C0.334372 28.3375 0.343594 30.7777 0.383596 31.2516C0.522033 32.9194 0.783515 33.9687 1.33726 35.1165C2.39553 37.3136 4.41667 38.963 6.79777 39.5784C7.62224 39.7907 8.53283 39.9077 9.70184 39.9631C10.1971 39.9846 15.2454 40 20.2968 40C25.3481 40 30.3995 39.9938 30.8825 39.9692C32.2361 39.9055 33.0221 39.8 33.8911 39.5753C36.2876 38.9568 38.2719 37.3321 39.3517 35.1042C39.8946 33.9841 40.17 32.8948 40.2946 31.314C40.3216 30.9694 40.333 25.4745 40.333 19.9869C40.333 14.4985 40.3207 9.01368 40.2936 8.66903C40.1675 7.06274 39.8922 5.98266 39.3317 4.84102C38.8718 3.90647 38.3611 3.20856 37.6197 2.49499C36.2966 1.23087 34.6784 0.461571 32.7501 0.183398C31.8158 0.0483024 31.6297 0.00829984 26.8491 0L20.3395 0Z" fill="url(#paint0_radial_24140_12797)"/>
<path d="M20.3395 0C11.9897 0 9.54771 0.0086172 9.07303 0.0479999C7.35952 0.190473 6.29327 0.460347 5.13162 1.03884C4.23642 1.48351 3.53039 1.99893 2.83359 2.72146C1.56461 4.03911 0.79552 5.66016 0.517105 7.5871C0.381752 8.52256 0.342369 8.71334 0.334372 13.4916C0.331303 15.0844 0.334372 17.1805 0.334372 19.9921C0.334372 28.3375 0.343594 30.7777 0.383596 31.2516C0.522033 32.9194 0.783515 33.9687 1.33726 35.1165C2.39553 37.3136 4.41667 38.963 6.79777 39.5784C7.62224 39.7907 8.53283 39.9077 9.70184 39.9631C10.1971 39.9846 15.2454 40 20.2968 40C25.3481 40 30.3995 39.9938 30.8825 39.9692C32.2361 39.9055 33.0221 39.8 33.8911 39.5753C36.2876 38.9568 38.2719 37.3321 39.3517 35.1042C39.8946 33.9841 40.17 32.8948 40.2946 31.314C40.3216 30.9694 40.333 25.4745 40.333 19.9869C40.333 14.4985 40.3207 9.01368 40.2936 8.66903C40.1675 7.06274 39.8922 5.98266 39.3317 4.84102C38.8718 3.90647 38.3611 3.20856 37.6197 2.49499C36.2966 1.23087 34.6784 0.461571 32.7501 0.183398C31.8158 0.0483024 31.6297 0.00829984 26.8491 0L20.3395 0Z" fill="url(#paint1_radial_24140_12797)"/>
<path d="M20.3395 0C11.9897 0 9.54771 0.0086172 9.07303 0.0479999C7.35952 0.190473 6.29327 0.460347 5.13162 1.03884C4.23642 1.48351 3.53039 1.99893 2.83359 2.72146C1.56461 4.03911 0.79552 5.66016 0.517105 7.5871C0.381752 8.52256 0.342369 8.71334 0.334372 13.4916C0.331303 15.0844 0.334372 17.1805 0.334372 19.9921C0.334372 28.3375 0.343594 30.7777 0.383596 31.2516C0.522033 32.9194 0.783515 33.9687 1.33726 35.1165C2.39553 37.3136 4.41667 38.963 6.79777 39.5784C7.62224 39.7907 8.53283 39.9077 9.70184 39.9631C10.1971 39.9846 15.2454 40 20.2968 40C25.3481 40 30.3995 39.9938 30.8825 39.9692C32.2361 39.9055 33.0221 39.8 33.8911 39.5753C36.2876 38.9568 38.2719 37.3321 39.3517 35.1042C39.8946 33.9841 40.17 32.8948 40.2946 31.314C40.3216 30.9694 40.333 25.4745 40.333 19.9869C40.333 14.4985 40.3207 9.01368 40.2936 8.66903C40.1675 7.06274 39.8922 5.98266 39.3317 4.84102C38.8718 3.90647 38.3611 3.20856 37.6197 2.49499C36.2966 1.23087 34.6784 0.461571 32.7501 0.183398C31.8158 0.0483024 31.6297 0.00829984 26.8491 0L20.3395 0Z" fill="url(#paint2_radial_24140_12797)"/>
<path d="M20.3395 0C11.9897 0 9.54771 0.0086172 9.07303 0.0479999C7.35952 0.190473 6.29327 0.460347 5.13162 1.03884C4.23642 1.48351 3.53039 1.99893 2.83359 2.72146C1.56461 4.03911 0.79552 5.66016 0.517105 7.5871C0.381752 8.52256 0.342369 8.71334 0.334372 13.4916C0.331303 15.0844 0.334372 17.1805 0.334372 19.9921C0.334372 28.3375 0.343594 30.7777 0.383596 31.2516C0.522033 32.9194 0.783515 33.9687 1.33726 35.1165C2.39553 37.3136 4.41667 38.963 6.79777 39.5784C7.62224 39.7907 8.53283 39.9077 9.70184 39.9631C10.1971 39.9846 15.2454 40 20.2968 40C25.3481 40 30.3995 39.9938 30.8825 39.9692C32.2361 39.9055 33.0221 39.8 33.8911 39.5753C36.2876 38.9568 38.2719 37.3321 39.3517 35.1042C39.8946 33.9841 40.17 32.8948 40.2946 31.314C40.3216 30.9694 40.333 25.4745 40.333 19.9869C40.333 14.4985 40.3207 9.01368 40.2936 8.66903C40.1675 7.06274 39.8922 5.98266 39.3317 4.84102C38.8718 3.90647 38.3611 3.20856 37.6197 2.49499C36.2966 1.23087 34.6784 0.461571 32.7501 0.183398C31.8158 0.0483024 31.6297 0.00829984 26.8491 0L20.3395 0Z" fill="url(#paint3_radial_24140_12797)"/>
<path d="M20.3411 5.13608C16.3021 5.13608 15.7952 5.15372 14.2088 5.22586C12.6255 5.29831 11.5448 5.54878 10.5992 5.91631C9.62101 6.29588 8.79125 6.80363 7.96461 7.62997C7.13735 8.45603 6.6292 9.28515 6.2481 10.2623C5.87938 11.2075 5.62841 12.2877 5.55716 13.8692C5.48621 15.4544 5.46761 15.9613 5.46761 19.9973C5.46761 24.0334 5.48559 24.5384 5.55746 26.1236C5.63028 27.7057 5.88094 28.7856 6.2484 29.7305C6.62858 30.708 7.13671 31.5371 7.96367 32.3631C8.79003 33.1898 9.61977 33.6988 10.5973 34.0784C11.5436 34.4459 12.6246 34.6964 14.2076 34.7688C15.7939 34.8409 16.3005 34.8586 20.3393 34.8586C24.3787 34.8586 24.884 34.8409 26.4704 34.7688C28.0537 34.6964 29.1356 34.4459 30.0819 34.0784C31.0597 33.6988 31.8883 33.1898 32.7146 32.3631C33.5419 31.5371 34.05 30.708 34.4311 29.7308C34.7967 28.7856 35.0477 27.7054 35.122 26.1239C35.1933 24.5387 35.2119 24.0334 35.2119 19.9973C35.2119 15.9612 35.1933 15.4547 35.122 13.8695C35.0477 12.2874 34.7967 11.2075 34.4311 10.2626C34.05 9.28515 33.5419 8.45601 32.7146 7.62997C31.8873 6.80332 31.06 6.29556 30.081 5.91629C29.1328 5.54878 28.0515 5.29831 26.4682 5.22586C24.8818 5.15372 24.3768 5.13608 20.3365 5.13608H20.3411ZM19.007 7.8142C19.403 7.81358 19.8448 7.8142 20.3411 7.8142C24.3121 7.8142 24.7827 7.82844 26.3508 7.89965C27.8008 7.96591 28.5878 8.20802 29.1121 8.41143C29.8061 8.68079 30.3009 9.00279 30.8212 9.52293C31.3417 10.0431 31.6639 10.5385 31.9341 11.232C32.1377 11.7552 32.3803 12.5416 32.4463 13.9906C32.5175 15.5572 32.533 16.0278 32.533 19.9939C32.533 23.96 32.5175 24.4306 32.4463 25.9973C32.38 27.4462 32.1377 28.2326 31.9341 28.7559C31.6646 29.4494 31.3417 29.9432 30.8212 30.4631C30.3006 30.9832 29.8064 31.3052 29.1121 31.5746C28.5885 31.7789 27.8008 32.0204 26.3508 32.0867C24.783 32.1579 24.3121 32.1733 20.3411 32.1733C16.3699 32.1733 15.8993 32.1579 14.3315 32.0867C12.8815 32.0198 12.0945 31.7777 11.5699 31.5743C10.8759 31.3049 10.3801 30.9829 9.85959 30.4628C9.33906 29.9426 9.01683 29.4485 8.74664 28.7546C8.54308 28.2314 8.30048 27.445 8.23449 25.996C8.16322 24.4294 8.14896 23.9588 8.14896 19.9902C8.14896 16.0216 8.16322 15.5535 8.23449 13.9869C8.30079 12.5379 8.54308 11.7515 8.74664 11.2276C9.0162 10.5341 9.33906 10.0387 9.85959 9.51861C10.3801 8.99845 10.8759 8.67647 11.5699 8.40649C12.0942 8.20213 12.8815 7.96065 14.3315 7.89407C15.7035 7.83215 16.2352 7.81358 19.007 7.81047L19.007 7.8142ZM28.2799 10.2818C27.2946 10.2818 26.4952 11.0797 26.4952 12.0645C26.4952 13.0491 27.2946 13.8479 28.2799 13.8479C29.2651 13.8479 30.0645 13.0491 30.0645 12.0645C30.0645 11.08 29.2652 10.2818 28.2799 10.2818ZM20.3411 12.3655C16.1233 12.3655 12.7036 15.7826 12.7036 19.9973C12.7036 24.212 16.1233 27.6277 20.3411 27.6277C24.559 27.6277 27.9775 24.212 27.9775 19.9973C27.9775 15.7826 24.559 12.3655 20.3411 12.3655ZM20.3411 15.0436C23.0789 15.0436 25.2986 17.2613 25.2986 19.9973C25.2986 22.733 23.0789 24.9511 20.3411 24.9511C17.6031 24.9511 15.3837 22.733 15.3837 19.9973C15.3837 17.2613 17.6031 15.0436 20.3411 15.0436Z" fill="white"/>
</g>
<defs>
<radialGradient id="paint0_radial_24140_12797" cx="0" cy="0" r="1" gradientUnits="userSpaceOnUse" gradientTransform="translate(39.0414 18.7485) rotate(164.25) scale(25.5577 18.4131)">
<stop stop-color="#FF005F"/>
<stop offset="1" stop-color="#FC01D8"/>
</radialGradient>
<radialGradient id="paint1_radial_24140_12797" cx="0" cy="0" r="1" gradientUnits="userSpaceOnUse" gradientTransform="translate(10.9577 43.0808) rotate(-90) scale(31.9288 33.8757)">
<stop stop-color="#FFCC00"/>
<stop offset="0.1242" stop-color="#FFCC00"/>
<stop offset="0.5672" stop-color="#FE4A05"/>
<stop offset="0.6942" stop-color="#FF0F3F"/>
<stop offset="1" stop-color="#FE0657" stop-opacity="0"/>
</radialGradient>
<radialGradient id="paint2_radial_24140_12797" cx="0" cy="0" r="1" gradientUnits="userSpaceOnUse" gradientTransform="translate(21.3438 39.4359) rotate(-59.8703) scale(13.2028 17.1886)">
<stop stop-color="#FFCC00"/>
<stop offset="1" stop-color="#FFCC00" stop-opacity="0"/>
</radialGradient>
<radialGradient id="paint3_radial_24140_12797" cx="0" cy="0" r="1" gradientUnits="userSpaceOnUse" gradientTransform="translate(5.76015 1.62879) rotate(164.274) scale(25.2742 8.61091)">
<stop stop-color="#780CFF"/>
<stop offset="1" stop-color="#820BFF" stop-opacity="0"/>
</radialGradient>
<clipPath id="clip0_24140_12797">
<rect width="40" height="40" fill="white" transform="translate(0.333008)"/>
</clipPath>
</defs>
</svg>
