<svg width="41" height="40" viewBox="0 0 41 40" fill="none" xmlns="http://www.w3.org/2000/svg">
<rect x="0.333008" width="40" height="40" rx="7.27273" fill="url(#paint0_radial_24140_12806)"/>
<path d="M17.5622 16.9935V15.8917C17.1781 15.835 16.794 15.8098 16.4036 15.8098C11.6751 15.8035 7.82812 19.6505 7.82813 24.3853C7.82813 27.1872 9.19441 29.8064 11.4926 31.412C10.0129 29.8253 9.18812 27.7412 9.18812 25.569C9.18812 20.9035 12.9281 17.1005 17.5622 16.9935Z" fill="#25F4EE"/>
<path d="M17.7699 29.4853C19.8729 29.479 21.598 27.8168 21.6799 25.7138L21.6862 7.03282H25.0988C25.0232 6.64245 24.9917 6.24579 24.9917 5.84912L20.3325 5.84912L20.3199 24.5301C20.2443 26.6898 18.431 28.3772 16.2714 28.3016C15.6858 28.2827 15.1066 28.1253 14.5903 27.8546C15.3207 28.8746 16.5044 29.4853 17.7699 29.4853Z" fill="#25F4EE"/>
<path d="M31.4769 13.3732V12.3343C30.224 12.3343 28.9962 11.9691 27.9447 11.2828C28.864 12.3469 30.1044 13.0772 31.4769 13.3732Z" fill="#25F4EE"/>
<path d="M27.9447 11.2828C26.9184 10.1054 26.3517 8.5943 26.3517 7.03282H25.1051C25.4262 8.77689 26.4525 10.3132 27.9447 11.2828Z" fill="#FE2C55"/>
<path d="M16.4099 20.4628C14.244 20.4628 12.4937 22.2131 12.4937 24.379C12.4937 25.8398 13.2996 27.1746 14.5966 27.8483C13.3248 26.1042 13.7088 23.6676 15.4466 22.3957C16.4477 21.6653 17.7447 21.4513 18.9284 21.8291V17.0691C18.5444 17.0124 18.1603 16.9872 17.7699 16.9872C17.7007 16.9872 17.6377 16.9935 17.5684 16.9935V20.6454C17.1907 20.5257 16.8003 20.4628 16.4099 20.4628Z" fill="#FE2C55"/>
<path d="M31.4769 13.3732L31.4769 16.9935C29.1473 16.9935 26.8806 16.2694 24.9917 14.9094V24.3853C24.9917 29.1201 21.1447 32.9671 16.4099 32.9671C14.647 32.9671 12.9344 32.4257 11.4926 31.412C13.1107 33.156 15.3836 34.1508 17.7699 34.1508C22.4984 34.1508 26.3517 30.3038 26.3517 25.569V16.0931C28.2406 17.4531 30.5073 18.1835 32.8369 18.1772V13.518C32.3773 13.518 31.924 13.4676 31.4769 13.3732Z" fill="#FE2C55"/>
<path d="M24.9917 24.3853V14.9094C26.8806 16.2694 29.1473 16.9998 31.4769 16.9935L31.4769 13.3732C30.1044 13.0772 28.864 12.3469 27.9447 11.2828C26.4525 10.3132 25.4262 8.77689 25.0988 7.03282H21.6862L21.6799 25.7138C21.6043 27.8735 19.791 29.5609 17.6314 29.4853C16.4225 29.4412 15.2955 28.8431 14.5903 27.8546C12.6762 26.8535 11.9333 24.4861 12.9344 22.5657C13.6081 21.275 14.9492 20.4628 16.4036 20.4628C16.794 20.4628 17.1844 20.5257 17.5621 20.6454L17.5622 16.9935C12.9281 17.1068 9.18811 20.9098 9.18811 25.5753C9.18811 27.7475 10.0129 29.8316 11.4925 31.4183C12.9344 32.432 14.647 32.9734 16.4099 32.9734C21.1384 32.9671 24.9917 29.1138 24.9917 24.3853Z" fill="white"/>
<defs>
<radialGradient id="paint0_radial_24140_12806" cx="0" cy="0" r="1" gradientUnits="userSpaceOnUse" gradientTransform="translate(20.333 20) rotate(90) scale(20)">
<stop stop-color="#2A1216"/>
<stop offset="1" stop-color="#1A1720"/>
</radialGradient>
</defs>
</svg>
