<svg width="226" height="124" viewBox="0 0 226 124" fill="none" xmlns="http://www.w3.org/2000/svg">
<path d="M172.594 75.535H177.818V67.0993L185.108 75.535H191.5L183.014 65.8129L190.263 57.383H184.446L177.818 65.1527V48L172.594 48.6834V75.535ZM160.546 56.9181C154.747 56.9181 150.72 60.8114 150.72 66.4562C150.72 72.101 154.747 75.9943 160.546 75.9943C166.346 75.9943 170.373 72.101 170.373 66.4562C170.373 60.8114 166.346 56.9181 160.546 56.9181ZM160.546 71.5497C157.86 71.5497 156.019 69.4767 156.019 66.4562C156.019 63.4357 157.86 61.3627 160.546 61.3627C163.233 61.3627 165.074 63.4357 165.074 66.4562C165.074 69.4767 163.233 71.5497 160.546 71.5497ZM139.316 56.9181C133.517 56.9181 129.489 60.8114 129.489 66.4562C129.489 72.101 133.517 75.9943 139.316 75.9943C145.116 75.9943 149.143 72.101 149.143 66.4562C149.143 60.8114 145.116 56.9181 139.316 56.9181ZM139.316 71.5497C136.629 71.5497 134.788 69.4767 134.788 66.4562C134.788 63.4357 136.629 61.3627 139.316 61.3627C142.003 61.3627 143.844 63.4357 143.844 66.4562C143.844 69.4767 142.003 71.5497 139.316 71.5497ZM119.323 56.9181C116.907 56.9181 114.904 57.8655 113.65 59.5997V48L108.42 48.6776V75.5292H113.058L113.149 72.7269C114.387 74.8171 116.602 75.9943 119.323 75.9943C124.283 75.9943 127.913 71.9746 127.913 66.4562C127.913 60.9377 124.3 56.9181 119.323 56.9181ZM118.086 71.5497C115.399 71.5497 113.558 69.4767 113.558 66.4562C113.558 63.4357 115.399 61.3627 118.086 61.3627C120.773 61.3627 122.614 63.4357 122.614 66.4562C122.614 69.4767 120.773 71.5497 118.086 71.5497ZM97.9489 71.7851C95.1758 71.7851 93.1851 70.4988 92.5062 68.2823H105.377C105.503 67.6048 105.59 66.8007 105.59 66.2609C105.59 60.4209 102.316 56.9181 96.8155 56.9181C91.2635 56.9181 87.4201 60.8114 87.4201 66.4562C87.4201 72.1757 91.4476 75.9943 97.4254 75.9943C100.521 75.9943 103.53 74.9607 105.411 73.2437L103.53 69.9362C101.706 71.1937 99.9166 71.7851 97.9489 71.7851ZM96.7809 60.9722C99.1975 60.9722 100.739 62.4364 100.739 64.7047V64.722H92.3969C92.8975 62.316 94.4565 60.9722 96.7809 60.9722ZM79.2388 76C81.9429 76 84.5895 74.9664 86.4535 73.1748L84.411 69.7466C82.9611 70.8722 81.3158 71.4808 79.7566 71.4808C76.8568 71.4808 74.9237 69.4594 74.9237 66.4619C74.9237 63.4644 76.8568 61.443 79.7566 61.443C81.1891 61.443 82.7483 61.9598 84.0141 62.8729L86.0911 59.3699C84.411 57.854 81.8105 56.9237 79.2329 56.9237C73.5601 56.9237 69.55 60.8745 69.55 66.4619C69.5556 72.032 73.5658 76 79.2388 76ZM62.6285 57.383L62.5366 60.2084C61.2995 58.1009 59.0844 56.9237 56.3631 56.9237C51.3863 56.9237 47.7731 60.9435 47.7731 66.4619C47.7731 71.9804 51.4094 76 56.3631 76C59.0844 76 61.3052 74.8228 62.5366 72.7326L62.6285 75.5348H67.2658V57.383H62.6285ZM57.6 71.5497C54.9132 71.5497 53.0721 69.4767 53.0721 66.4562C53.0721 63.4357 54.9132 61.3627 57.6 61.3627C60.2869 61.3627 62.1279 63.4357 62.1279 66.4562C62.1279 69.4767 60.2811 71.5497 57.6 71.5497ZM47.3819 57.4172H42.6813V55.8666C42.6813 53.5467 43.5904 52.6567 45.9493 52.6567C46.68 52.6567 47.2725 52.6738 47.6121 52.7083V48.7289C46.9676 48.5508 45.397 48.3728 44.4879 48.3728C39.6838 48.3728 37.4687 50.6353 37.4687 55.5221V57.4113H34.5V61.7986H37.4687V75.5288H42.687V61.8043H46.5765L47.3819 57.4172Z" fill="#0866FF"/>
</svg>
