<svg width="226" height="124" viewBox="0 0 226 124" fill="none" xmlns="http://www.w3.org/2000/svg">
<path fill-rule="evenodd" clip-rule="evenodd" d="M78.6551 48.251L71.6419 50.7218L62.4795 69.7366C62.2116 70.2971 62.1837 70.9375 62.4021 71.5178C62.6204 72.098 63.0671 72.5711 63.6447 72.8338L71.3571 76.3145V55.4031L78.6551 48.251Z" fill="#FF6619"/>
<path fill-rule="evenodd" clip-rule="evenodd" d="M88.04 45.6801C87.5871 45.2445 86.9745 45 86.3359 45C85.6974 45 85.0848 45.2445 84.6319 45.6801L74.2895 55.6874V76.6697C74.2895 77.9509 75.3737 79 76.6989 79H95.9718C97.297 79 98.3812 77.9508 98.3812 76.6686V55.6874L88.04 45.6801ZM86.3365 50.1576C86.1346 50.1631 85.9335 50.1295 85.7453 50.0585C85.557 49.9876 85.3854 49.8808 85.2405 49.7446C85.0955 49.6085 84.9803 49.4456 84.9015 49.2656C84.8227 49.0856 84.782 48.8921 84.7818 48.6967C84.7816 48.5012 84.8218 48.3077 84.9002 48.1276C84.9786 47.9474 85.0934 47.7842 85.238 47.6477C85.3826 47.5112 85.5541 47.4041 85.7421 47.3328C85.9302 47.2615 86.1312 47.2275 86.3331 47.2325C86.7337 47.2327 87.1179 47.3866 87.4013 47.6606C87.6847 47.9347 87.8441 48.3063 87.8446 48.6939C87.845 49.0816 87.6865 49.4536 87.4037 49.7282C87.1209 50.0028 86.7371 50.1565 86.3365 50.1576Z" fill="#FF6619"/>
<path fill-rule="evenodd" clip-rule="evenodd" d="M84.029 71.2824V55.6841H79.4241V75.7393H93.241V71.2835L84.029 71.2824Z" fill="white"/>
<path fill-rule="evenodd" clip-rule="evenodd" d="M152.805 55.1438C146.763 55.1438 141.865 59.8828 141.865 65.7297C141.865 71.5755 146.763 76.3146 152.805 76.3146C158.846 76.3146 163.744 71.5755 163.744 65.7297C163.744 59.8828 158.846 55.1438 152.805 55.1438ZM152.805 72.08C151.935 72.0909 151.073 71.9347 150.267 71.6204C149.46 71.3062 148.727 70.8402 148.108 70.2494C147.489 69.6586 146.998 68.9548 146.663 68.1788C146.328 67.4029 146.155 66.5702 146.155 65.7292C146.155 64.8882 146.328 64.0555 146.663 63.2795C146.998 62.5036 147.489 61.7998 148.108 61.209C148.727 60.6182 149.46 60.152 150.267 59.8378C151.073 59.5236 151.935 59.3675 152.805 59.3784C154.544 59.3801 156.212 60.05 157.442 61.2409C158.671 62.4318 159.362 64.0463 159.362 65.7297C159.362 67.413 158.671 69.0276 157.442 70.2185C156.212 71.4094 154.544 72.0783 152.805 72.08ZM101.436 55.6482H106.041V75.7045H101.437L101.436 55.6482ZM134.717 55.6482H139.322V75.7109H134.717V55.6482ZM126.889 55.6482V67.5698L109.255 55.1438V75.7109H113.861V63.8907L131.495 76.3156V55.6493L126.889 55.6482Z" fill="#666666"/>
</svg>
