<svg width="226" height="124" viewBox="0 0 226 124" fill="none" xmlns="http://www.w3.org/2000/svg">
<path d="M58.0219 58.6005V57.3547C57.587 57.2906 57.1521 57.2622 56.7101 57.2622C51.356 57.255 47 61.6046 47 66.9579C47 70.1258 48.5471 73.0872 51.1493 74.9025C49.4739 73.1086 48.5399 70.7522 48.5399 68.2963C48.5399 63.0213 52.7747 58.7215 58.0219 58.6005Z" fill="#25F4EE"/>
<path d="M58.2567 72.7239C60.6379 72.7168 62.5913 70.8374 62.684 68.4598L62.6911 47.3383H66.5552C66.4696 46.897 66.434 46.4485 66.434 46H61.1583L61.144 67.1214C61.0585 69.5632 59.0052 71.471 56.5599 71.3856C55.8969 71.3642 55.241 71.1863 54.6564 70.8801C55.4834 72.0334 56.8237 72.7239 58.2567 72.7239ZM73.7772 54.5069V53.3323C72.3584 53.3323 70.9682 52.9195 69.7776 52.1435C70.8185 53.3466 72.223 54.1724 73.7772 54.5069Z" fill="#25F4EE"/>
<path d="M69.7784 52.1437C68.6164 50.8125 67.9747 49.104 67.9747 47.3386H66.5631C66.9267 49.3105 68.0888 51.0474 69.7784 52.1437ZM56.7176 62.5229C54.2651 62.5229 52.2831 64.5019 52.2831 66.9508C52.2831 68.6024 53.1957 70.1115 54.6643 70.8733C53.2242 68.9014 53.6591 66.1464 55.6268 64.7084C56.7603 63.8826 58.229 63.6406 59.5693 64.0677V58.6859C59.1344 58.6218 58.6995 58.5934 58.2575 58.5934C58.1791 58.5934 58.1078 58.6005 58.0294 58.6005V62.7294C57.6016 62.5941 57.1596 62.5229 56.7176 62.5229Z" fill="#FE2C55"/>
<path d="M73.7774 54.5081V58.6014C71.1395 58.6014 68.573 57.7828 66.4342 56.2451V66.9589C66.4342 72.3122 62.0782 76.6618 56.717 76.6618C54.7208 76.6618 52.7816 76.0496 51.149 74.9034C52.9812 76.8753 55.5549 78.0001 58.2569 78.0001C63.611 78.0001 67.9741 73.6505 67.9741 68.2972V57.5834C70.1129 59.1211 72.6795 59.9469 75.3173 59.9397V54.6718C74.7969 54.6718 74.2836 54.6149 73.7774 54.5081Z" fill="#FE2C55"/>
<path d="M66.4356 66.9579V56.2442C68.5744 57.7818 71.1409 58.6076 73.7787 58.6005V54.5072C72.2246 54.1726 70.8201 53.3468 69.7792 52.1437C68.0896 51.0474 66.9275 49.3105 66.5568 47.3386H62.6927L62.6856 68.46C62.6 70.9017 60.5468 72.8096 58.1014 72.7241C56.7326 72.6743 55.4564 71.998 54.658 70.8804C52.4906 69.7485 51.6494 67.0718 52.783 64.9006C53.5458 63.4412 55.0643 62.5229 56.7112 62.5229C57.1532 62.5229 57.5952 62.5941 58.023 62.7294V58.6005C52.7758 58.7286 48.541 63.0284 48.541 68.3034C48.541 70.7594 49.475 73.1157 51.1503 74.9096C52.783 76.0557 54.7221 76.6679 56.7183 76.6679C62.0724 76.6608 66.4356 72.3041 66.4356 66.9579ZM80.5373 54.5214H97.0345L95.5231 59.234H91.2455V76.6537H85.9128V59.234L80.5516 59.2412L80.5373 54.5214ZM124.047 54.5214H140.923L139.411 59.234H134.763V76.6537H129.416V59.234L124.055 59.2412L124.047 54.5214ZM98.0398 61.5619H103.323V76.6537H98.0683L98.0398 61.5619ZM105.426 54.4645H110.709V64.7725L115.941 59.6469H122.244L115.621 66.0538L123.035 76.6537H117.218L112.27 69.3071L110.701 70.8234V76.6537H105.419L105.426 54.4645ZM161.391 54.4645H166.674V64.7725L171.906 59.6469H178.209L171.586 66.0538L179 76.6537H173.183L168.235 69.3071L166.666 70.8234V76.6537H161.384L161.391 54.4645Z" fill="black"/>
<path d="M103.138 58.1983C103.7 56.8434 103.056 55.2902 101.699 54.729C100.342 54.1678 98.7863 54.8112 98.2243 56.166C97.6623 57.5209 98.3066 59.0741 99.6635 59.6353C101.02 60.1965 102.576 59.5532 103.138 58.1983Z" fill="black"/>
<path d="M140.245 67.62C140.245 62.9073 143.881 58.9849 148.586 58.6147C148.351 58.6005 148.03 58.5862 147.794 58.5862C142.797 58.5862 138.747 62.6368 138.747 67.62C138.747 72.6102 142.797 76.6466 147.794 76.6537C148.03 76.6537 148.351 76.6395 148.586 76.6252C143.881 76.2551 140.252 72.3326 140.245 67.62Z" fill="#25F4EE"/>
<path d="M150.638 58.5862C150.395 58.5862 150.075 58.6005 149.839 58.6147C154.816 59.0063 158.537 63.3558 158.145 68.3247C157.796 72.7526 154.274 76.2693 149.839 76.6181C150.075 76.6395 150.395 76.6466 150.638 76.6466C155.635 76.6466 159.685 72.596 159.685 67.6129C159.685 62.6297 155.635 58.5862 150.638 58.5862Z" fill="#FE2C55"/>
<path d="M149.212 72.0123C146.781 72.0123 144.813 70.0475 144.813 67.62C144.813 65.1925 146.781 63.2277 149.212 63.2277C151.643 63.2277 153.611 65.1925 153.611 67.62C153.611 70.0475 151.643 72.0123 149.212 72.0123ZM149.212 58.5862C144.214 58.5862 140.165 62.6297 140.165 67.62C140.165 72.6102 144.214 76.6537 149.212 76.6537C154.21 76.6537 158.259 72.6102 158.259 67.62C158.259 62.6297 154.203 58.5862 149.212 58.5862Z" fill="black"/>
</svg>
