<svg width="226" height="124" viewBox="0 0 226 124" fill="none" xmlns="http://www.w3.org/2000/svg">
<path d="M116.334 64.7336C116.853 64.7336 117.334 64.9825 117.628 65.4086L122.331 72.5429L127.024 65.4086C127.318 64.9825 127.807 64.7337 128.317 64.7336H129.649C130.834 64.7237 131.795 65.7055 131.795 66.9046V81.82C131.805 83.0288 130.834 84 129.649 84C128.454 83.9998 127.494 83.0187 127.493 81.82V72.028L123.868 77.2013C123.104 78.2713 121.536 78.2715 120.782 77.2013L117.157 72.028V81.82C117.156 83.0288 116.187 84 115.001 84C113.816 83.9999 112.857 83.0188 112.856 81.82V66.9046C112.846 65.7055 113.816 64.7337 115.001 64.7336H116.334Z" fill="#FF6D00"/>
<path d="M149.666 64.7336C150.852 64.724 151.811 65.7057 151.811 66.9046V75.8539C151.821 81.324 148.49 84 143.239 84C137.987 84 134.773 81.2938 134.773 75.9819V66.9046C134.764 65.7057 135.733 64.7339 136.919 64.7336C138.114 64.7237 139.075 65.7055 139.075 66.9046V75.8833C139.065 78.8166 140.662 80.333 143.288 80.333C145.914 80.3427 147.51 78.8753 147.51 76.0114V66.9046C147.51 65.7055 148.481 64.7336 149.666 64.7336Z" fill="#FF6D00"/>
<path d="M89.2258 64.7336C90.421 64.7238 91.3811 65.7056 91.3811 66.9046C91.381 68.1135 90.4112 69.0845 89.2258 69.0846H85.0913V81.7995C85.0913 83.0086 84.1204 83.9795 82.9348 83.9795C81.7496 83.9792 80.7897 82.9984 80.7897 81.7995V69.0846H76.6552C75.46 69.0846 74.5001 68.1037 74.5 66.9046C74.5 65.7055 75.4697 64.7336 76.6552 64.7336H89.2258Z" fill="#FF6D00"/>
<path d="M107.832 64.7336C109.017 64.7237 109.977 65.7055 109.977 66.9046C109.986 68.1136 109.017 69.0846 107.832 69.0846H98.328V72.1766H106.597C107.792 72.1766 108.752 73.1576 108.752 74.3566C108.752 75.5557 107.782 76.5276 106.597 76.5276H98.328V79.6195H107.832C109.017 79.6196 109.977 80.6004 109.977 81.7995C109.986 83.0085 109.017 83.9795 107.832 83.9795H96.1816C94.9865 83.9793 94.0264 82.9985 94.0264 81.7995V66.9046C94.0264 65.7056 94.9963 64.7338 96.1816 64.7336H107.832Z" fill="#FF6D00"/>
<path d="M87.2365 42.0205L87.2757 42.0897C87.5208 42.4964 88.4515 44.2601 86.9528 46.1922L86.8743 46.2716C86.551 46.6481 85.9633 47.4901 86.1981 48.5502L86.2475 48.7487L86.2171 48.6207L90.5288 55.6858C90.8424 56.2011 90.7539 56.8562 90.3326 57.2625L90.1857 57.3906C89.0687 58.1834 86.8248 59.2734 82.945 59.2734C79.0557 59.2733 76.8124 58.1833 75.6954 57.3906C75.1565 57.0041 74.9995 56.2606 75.3522 55.6858L79.6728 48.6207C79.9765 47.4414 79.232 46.5193 78.9283 46.1922C77.4391 44.2598 78.3604 42.4862 78.6053 42.0897L78.6535 42.0205C80.7794 41.9016 82.1905 42.7036 82.945 43.8431C83.5916 42.8522 84.7381 42.1193 86.4134 42.0102L86.8148 42L87.2365 42.0205Z" fill="#FF6D00"/>
<path fill-rule="evenodd" clip-rule="evenodd" d="M96.4463 42.6046C97.4064 41.8316 99.3267 42.3371 100.806 45.3097C100.806 45.3097 102.1 47.2629 102.942 47.7881C103.55 48.1745 104.285 48.2828 105.236 48.0648C106.372 47.8071 107.078 47.4709 107.802 46.6981C108.39 46.0639 109.203 45.7166 109.722 46.7865C109.947 47.2423 110.359 47.9264 109.635 49.0856C109.488 49.3135 109.291 49.5522 109.056 49.7901C108.733 50.1268 108.508 50.3846 108.4 50.6521C108.616 51.296 108.811 51.8309 108.988 52.257L110.086 54.7341C110.291 54.5658 110.488 54.3974 110.683 54.2192C111.006 53.9224 111.496 53.9321 111.809 54.2487C112.103 54.5658 112.093 55.0618 111.77 55.3592C109.271 57.678 105.97 58.9865 102.462 58.9865C98.9648 58.9766 95.6827 57.6681 93.1843 55.3592C93.0373 55.2204 92.9484 55.0216 92.9386 54.8135C92.929 54.5957 93.0071 54.3972 93.1539 54.2487C93.4673 53.9415 93.9576 53.9222 94.2809 54.2192C94.5356 54.457 94.9471 54.7845 95.5054 55.2106C96.5342 53.6448 97.22 51.4147 97.4454 49.9976C96.9749 50.3249 95.8872 51.4346 94.5354 50.5727C92.1353 49.0466 92.0284 48.3923 93.8997 45.7067C94.0182 45.5469 95.7116 43.1992 96.4463 42.6046ZM102.481 54.8238C101.032 54.824 99.6702 55.736 99.2587 56.9845C100.287 57.262 100.856 57.4111 102.462 57.4111C103.53 57.421 104.579 57.2812 105.627 57.0038C105.196 55.5869 104.02 54.8238 102.481 54.8238Z" fill="#FF6D00"/>
<path d="M127.976 42.2869C129.612 42.8815 132.571 44.6367 132.189 46.6584C131.748 48.9869 131.199 49.6708 131.199 52.7526C131.189 55.834 131.307 58.014 131.463 58.738H129.641C129.827 58.0125 130.64 51.0683 128.896 51.0683C127.153 51.0787 125.545 58.738 120.568 58.738C114.847 58.7281 112.908 58.0252 113.054 57.1434C113.23 56.0731 117.775 53.9525 120.156 53.9323C120.999 53.9323 121.519 54.9426 122.146 54.6355C127.848 51.8507 124.841 45.2996 127.976 42.2869Z" fill="#FF6D00"/>
<path fill-rule="evenodd" clip-rule="evenodd" d="M145.847 42.5354C149.149 42.5356 151.883 45.1219 152.118 48.4516L152.49 53.7927C152.657 56.3395 150.677 58.4906 148.159 58.4908H138.42C135.912 58.4809 133.923 56.3297 134.1 53.7927L134.472 48.4516C134.697 45.1218 137.441 42.5354 140.743 42.5354H145.847ZM147.669 46.9645C147.668 46.3905 145.613 46.3905 145.612 46.9645V47.1144C145.611 48.4123 144.563 49.4622 143.289 49.4622C142.016 49.462 140.977 48.4023 140.977 47.1144V46.9645C140.966 46.3905 138.921 46.3905 138.919 46.9645V47.1144C138.92 49.5519 140.879 51.5331 143.289 51.5333C145.709 51.5333 147.669 49.552 147.669 47.1144V46.9645Z" fill="#FF6D00"/>
</svg>
