<svg width="226" height="124" viewBox="0 0 226 124" fill="none" xmlns="http://www.w3.org/2000/svg">
<path d="M124.556 70.4608C118.978 74.7248 110.891 76.9999 103.93 76.9999C94.1678 76.9999 85.3797 73.2558 78.7312 67.0287C78.2088 66.539 78.6768 65.8717 79.3037 66.253C86.4787 70.5821 95.3504 73.1865 104.515 73.1865C110.695 73.1865 117.494 71.8605 123.746 69.1087C124.69 68.6927 125.48 69.7501 124.556 70.4608Z" fill="#FF9900"/>
<path d="M126.875 67.7095C126.165 66.7649 122.162 67.2632 120.365 67.4842C119.817 67.5535 119.734 67.0595 120.227 66.7042C123.415 64.3771 128.647 65.0488 129.257 65.8288C129.868 66.6132 129.099 72.0516 126.102 74.6473C125.643 75.046 125.204 74.8337 125.409 74.305C126.082 72.563 127.59 68.6585 126.875 67.7095Z" fill="#FF9900"/>
<path d="M120.49 50.2762V48.0141C120.49 47.6718 120.741 47.4421 121.042 47.4421H130.808C131.121 47.4421 131.372 47.6761 131.372 48.0141V49.9512C131.368 50.2762 131.104 50.7009 130.636 51.3725L125.576 58.865C127.456 58.8173 129.441 59.1077 131.146 60.1044C131.531 60.3297 131.635 60.659 131.664 60.984V63.3978C131.664 63.7271 131.313 64.1128 130.946 63.9134C127.941 62.2797 123.95 62.1021 120.628 63.9308C120.289 64.1214 119.934 63.7401 119.934 63.4108V61.1184C119.934 60.75 119.938 60.1217 120.294 59.5627L126.157 50.8439H121.054C120.741 50.8439 120.49 50.6142 120.49 50.2762Z" fill="#221F1F"/>
<path d="M84.866 64.3902H81.8948C81.6107 64.3685 81.385 64.1475 81.3641 63.8659V48.0533C81.3641 47.7369 81.619 47.4856 81.9366 47.4856H84.7072C84.9955 47.4986 85.2254 47.7283 85.2463 48.0143V50.0813H85.3006C86.0235 48.0836 87.3817 47.1519 89.212 47.1519C91.0716 47.1519 92.2333 48.0836 93.0691 50.0813C93.7878 48.0836 95.4217 47.1519 97.1727 47.1519C98.418 47.1519 99.7803 47.6849 100.612 48.8809C101.552 50.2113 101.36 52.144 101.36 53.8384L101.356 63.8182C101.356 64.1345 101.101 64.3902 100.783 64.3902H97.8162C97.5195 64.3685 97.2813 64.1215 97.2813 63.8182V55.4374C97.2813 54.7701 97.3398 53.106 97.1978 52.4733C96.9763 51.4117 96.3118 51.1127 95.451 51.1127C94.7322 51.1127 93.98 51.611 93.675 52.4083C93.3699 53.2057 93.3992 54.5404 93.3992 55.4374V63.8182C93.3992 64.1345 93.1443 64.3902 92.8267 64.3902H89.8597C89.5588 64.3685 89.3248 64.1215 89.3248 63.8182L89.3206 55.4374C89.3206 53.6737 89.6006 51.078 87.4903 51.078C85.3549 51.078 85.4385 53.6087 85.4385 55.4374V63.8182C85.4385 64.1345 85.1836 64.3902 84.866 64.3902Z" fill="#221F1F"/>
<path d="M139.78 47.1519C144.189 47.1519 146.575 51.078 146.575 56.0701C146.575 60.8932 143.938 64.7196 139.78 64.7196C135.451 64.7196 133.094 60.7935 133.094 55.9011C133.094 50.9783 135.48 47.1519 139.78 47.1519ZM139.805 50.3803C137.615 50.3803 137.478 53.4744 137.478 55.4027C137.478 57.3354 137.448 61.4608 139.78 61.4608C142.083 61.4608 142.191 58.1328 142.191 56.1047C142.191 54.7701 142.137 53.1754 141.748 51.91C141.414 50.8093 140.75 50.3803 139.805 50.3803Z" fill="#221F1F"/>
<path d="M152.291 64.3902H149.333C149.036 64.3685 148.798 64.1215 148.798 63.8182L148.794 48.0013C148.819 47.7109 149.065 47.4856 149.366 47.4856H152.12C152.379 47.4986 152.592 47.6806 152.651 47.9276V50.3456H152.705C153.537 48.1833 154.702 47.1519 156.754 47.1519C158.087 47.1519 159.387 47.6503 160.223 49.0153C161 50.2806 161 52.4083 161 53.938V63.8919C160.967 64.1692 160.72 64.3902 160.427 64.3902H157.448C157.176 64.3685 156.951 64.1605 156.921 63.8919V55.3031C156.921 53.574 157.114 51.0433 155.062 51.0433C154.339 51.0433 153.674 51.546 153.344 52.3087C152.926 53.275 152.872 54.237 152.872 55.3031V63.8182C152.868 64.1345 152.609 64.3902 152.291 64.3902Z" fill="#221F1F"/>
<path d="M112.705 56.8368V56.1695C110.557 56.1695 108.288 56.6462 108.288 59.2722C108.288 60.6026 108.952 61.5039 110.093 61.5039C110.929 61.5039 111.677 60.9709 112.149 60.1042C112.734 59.0382 112.705 58.0372 112.705 56.8368ZM115.701 64.3466C115.504 64.5286 115.22 64.5416 114.999 64.4203C114.013 63.571 113.837 63.1766 113.294 62.3663C111.664 64.091 110.511 64.6066 108.396 64.6066C105.897 64.6066 103.95 63.0076 103.95 59.8052C103.95 57.3048 105.258 55.6018 107.118 54.7698C108.731 54.0331 110.983 53.9031 112.705 53.6995V53.3008C112.705 52.5684 112.759 51.7017 112.345 51.0691C111.982 50.5014 111.288 50.2674 110.678 50.2674C109.545 50.2674 108.534 50.8697 108.288 52.1178C108.237 52.3951 108.041 52.6681 107.774 52.6811L104.89 52.3604C104.648 52.3041 104.38 52.1004 104.447 51.7148C105.112 48.092 108.267 47 111.092 47C112.537 47 114.426 47.3987 115.567 48.534C117.013 49.9337 116.875 51.8014 116.875 53.8338V58.6352C116.875 60.0782 117.452 60.7109 117.995 61.4909C118.187 61.7683 118.229 62.1019 117.987 62.3099C117.381 62.8343 116.303 63.8093 115.709 64.3553L115.701 64.3466Z" fill="#221F1F"/>
<path d="M73.7547 56.8368V56.1695C71.6067 56.1695 69.3376 56.6462 69.3376 59.2722C69.3376 60.6026 70.0021 61.5039 71.1429 61.5039C71.9787 61.5039 72.7267 60.9709 73.1989 60.1042C73.7839 59.0382 73.7547 58.0372 73.7547 56.8368ZM76.7509 64.3466C76.5545 64.5286 76.2703 64.5416 76.0488 64.4203C75.0626 63.571 74.8871 63.1766 74.3439 62.3663C72.7141 64.091 71.5608 64.6066 69.4463 64.6066C66.9473 64.6066 65 63.0076 65 59.8052C65 57.3048 66.308 55.6018 68.1676 54.7698C69.7806 54.0331 72.033 53.9031 73.7547 53.6995V53.3008C73.7547 52.5684 73.809 51.7017 73.3953 51.0691C73.0317 50.5014 72.338 50.2674 71.7279 50.2674C70.5955 50.2674 69.5842 50.8697 69.3376 52.1178C69.2875 52.3951 69.0911 52.6681 68.8236 52.6811L65.9402 52.3604C65.6979 52.3041 65.4304 52.1004 65.4973 51.7148C66.1617 48.092 69.3167 47 72.1416 47C73.5875 47 75.4763 47.3987 76.6172 48.534C78.063 49.9337 77.9251 51.8014 77.9251 53.8338V58.6352C77.9251 60.0782 78.5018 60.7109 79.0451 61.4909C79.2373 61.7683 79.2791 62.1019 79.0367 62.3099C78.4308 62.8343 77.3526 63.8093 76.7592 64.3553L76.7509 64.3466Z" fill="#221F1F"/>
</svg>
