<svg width="226" height="124" viewBox="0 0 226 124" fill="none" xmlns="http://www.w3.org/2000/svg">
<path d="M86.6828 48.4535V57.5248C86.6828 57.5248 89.858 57.5248 91.5573 57.3949C92.8937 57.1594 93.1397 57.0295 93.3857 55.6842L93.8776 53.7139H95.331L95.085 58.02L95.214 62.4318H93.7486L93.3857 60.7091C93.0227 59.4831 92.5307 59.2339 91.5573 59.1162C90.3394 58.9863 86.6828 58.9863 86.6828 58.9863V66.5945C86.6828 68.0576 87.4207 68.6826 89.1201 68.6826H94.2406C95.8229 68.6826 97.4038 68.5528 98.3892 66.2291L99.7135 63.2804H100.943C100.814 63.8934 100.205 69.2956 100.089 70.5111C100.089 70.5111 95.46 70.3933 93.5146 70.3933H84.7375L79.5 70.5111V69.1779L81.1993 68.8004C82.4292 68.5528 82.7922 68.1874 82.7922 67.2075C82.7922 67.2075 82.9212 63.8934 82.9212 58.3718C82.9212 52.8638 82.7922 49.5482 82.7922 49.5482C82.7922 48.4505 82.4292 48.2029 81.1993 47.9553L79.5 47.5929V46.2476L84.6205 46.3533H94.3696C96.3149 46.3533 99.595 46 99.595 46C99.595 46 99.4781 48.0761 99.3491 52.9831H98.0127L97.5208 51.2604C97.0408 49.0544 96.3134 47.9568 94.9665 47.9568H87.3037C86.6828 47.9583 86.6828 48.0761 86.6828 48.4535ZM106.415 49.4213H107.88V54.576L112.884 54.3284L112.638 56.6641L107.763 56.2867V65.37C107.763 67.9413 108.618 68.9318 110.084 68.9318C111.408 68.9318 112.392 68.1889 112.755 67.5759L113.481 68.4365C112.755 70.1472 110.692 71.0078 108.735 71.0078C106.31 71.0078 104.341 69.5448 104.341 66.7259V56.415H101.434V55.189C103.873 54.9414 105.689 53.4663 106.415 49.4213ZM116.902 65.2386L117.874 67.5744C118.237 68.5528 119.092 69.5448 121.037 69.5448C123.111 69.5448 123.966 68.4365 123.966 67.0912C123.966 62.915 115.799 64.1425 115.799 58.5032C115.799 55.3189 118.354 53.8316 121.646 53.8316C123.111 53.8316 125.303 54.0793 126.403 54.5745C126.157 55.8005 126.028 57.3934 126.028 58.6209L124.821 58.7387L123.966 56.2852C123.72 55.6842 122.736 55.1875 121.529 55.1875C120.064 55.1875 118.6 55.8005 118.6 57.3934C118.6 61.1922 127.012 60.3422 127.012 65.9815C127.012 69.1779 124.212 70.8885 120.791 70.8885C118.237 70.8885 115.67 69.8981 115.67 69.8981C115.916 68.435 115.799 66.8436 115.67 65.2386H116.902ZM126.405 77.011C126.768 75.6657 127.014 73.9566 127.26 72.3516L128.596 72.2338L129.088 74.8051C129.205 75.4181 129.568 75.9134 130.542 75.9134C132.124 75.9134 134.198 74.935 136.154 71.5016C135.287 69.4134 132.733 62.6779 130.413 57.5233C129.804 56.1674 129.687 56.0481 128.842 55.8005L128.221 55.565V54.3269L131.888 54.4567L136.388 54.2091V55.4366L135.287 55.6842C134.432 55.802 134.08 56.2852 134.08 56.7819C134.08 56.9118 134.08 57.0295 134.197 57.2772C134.431 58.02 136.388 63.5295 137.853 67.209C139.061 64.6377 141.381 58.8701 141.744 57.8902C141.873 57.3949 141.99 57.2772 141.99 56.9118C141.99 56.2867 141.627 55.9213 140.783 55.6858L139.916 55.4366V54.2106L143.337 54.3284L146.5 54.2106V55.4366L145.891 55.9198C144.673 56.415 144.544 56.5328 144.063 57.5233L138.708 70.1442C135.533 77.387 132.241 78 129.931 78C128.467 78.0015 127.366 77.624 126.405 77.011Z" fill="#F45800"/>
</svg>
