<svg width="226" height="124" viewBox="0 0 226 124" fill="none" xmlns="http://www.w3.org/2000/svg">
<path d="M92.4166 49.2949H95.9631V67.9305H102.077V71.6091H92.4314L92.4166 49.2949Z" fill="#000083"/>
<path d="M110.292 54.8856C112.171 54.86 113.952 55.7953 115.107 57.4136V55.2178H118.416V71.6415H115.107V69.4458C113.952 71.064 112.171 71.9994 110.292 71.9737C106.167 71.9737 103.035 68.125 103.035 63.4256C103.035 58.7262 106.167 54.8856 110.292 54.8856ZM110.893 58.1752C108.215 58.1752 106.441 60.4763 106.441 63.4256C106.441 66.3749 108.244 68.6841 110.893 68.6841C113.542 68.6841 115.345 66.383 115.345 63.4256C115.345 60.4682 113.571 58.1752 110.893 58.1752Z" fill="#000083"/>
<path d="M120.99 68.7893L128.877 58.4993H121.108V55.2178H133.15V58.1103L125.293 68.3599H133.328V71.6414H120.99V68.7893Z" fill="#000083"/>
<path d="M141.742 54.8856C143.62 54.86 145.402 55.7953 146.557 57.4136V55.2178H149.866V71.6415H146.557V69.4458C145.402 71.064 143.62 71.9994 141.742 71.9737C137.617 71.9737 134.493 68.125 134.493 63.4256C134.493 58.7262 137.617 54.8856 141.742 54.8856ZM142.343 58.1752C139.664 58.1752 137.891 60.4763 137.891 63.4256C137.891 66.3749 139.694 68.6841 142.343 68.6841C144.991 68.6841 146.794 66.383 146.794 63.4256C146.794 60.4682 145.021 58.1752 142.343 58.1752Z" fill="#000083"/>
<path d="M159.319 54.8856C161.196 54.8587 162.976 55.7946 164.127 57.4136V47.9742H167.436V71.6415H164.127V69.4458C162.976 71.0648 161.196 72.0006 159.319 71.9737C155.194 71.9737 152.063 68.125 152.063 63.4256C152.063 58.7262 155.194 54.8856 159.319 54.8856ZM159.92 58.1752C157.241 58.1752 155.468 60.4763 155.468 63.4256C155.468 66.3749 157.279 68.6841 159.92 68.6841C162.562 68.6841 164.372 66.383 164.372 63.4256C164.372 60.4682 162.599 58.1752 159.92 58.1752Z" fill="#000083"/>
<path d="M176.89 54.8855C178.767 54.8585 180.547 55.7944 181.698 57.4134V55.2177H185V71.6413H181.684V69.4456C180.532 71.0646 178.752 72.0004 176.876 71.9735C172.75 71.9735 169.619 68.1248 169.619 63.4254C169.619 58.726 172.765 54.8855 176.89 54.8855ZM177.492 58.175C174.813 58.175 173.039 60.4761 173.039 63.4254C173.039 66.3747 174.85 68.6839 177.492 68.6839C180.133 68.6839 181.943 66.3828 181.943 63.4254C181.943 60.468 180.17 58.175 177.492 58.175Z" fill="#000083"/>
<path d="M61.3095 79.9998C61.0212 80.002 60.7374 79.9214 60.4865 79.7662C58.3388 78.4092 42.4318 67.5176 41.8311 67.185C41.3739 66.9521 41.0618 66.4748 41.0082 65.9269V50.6499C40.9964 50.0796 41.2545 49.543 41.6912 49.23L41.8064 49.1581C43.3453 48.1157 48.4967 44.6829 49.3114 44.1886C49.4983 44.0674 49.7112 44.0023 49.9286 43.9999C50.1323 44.0024 50.3326 44.0578 50.5128 44.1616C50.5128 44.1616 57.7216 49.2929 58.8242 49.7512C59.598 50.1394 60.4416 50.3329 61.293 50.3174C62.2577 50.3394 63.211 50.0854 64.058 49.5805C65.136 48.9604 72.0238 44.1886 72.0978 44.1886C72.2714 44.0741 72.471 44.0149 72.6738 44.0179C72.8914 44.019 73.1046 44.0842 73.291 44.2066C74.2292 44.7727 80.615 49.0413 80.8865 49.23C81.3357 49.5259 81.6079 50.0592 81.6024 50.6319V65.909C81.5521 66.4582 81.2389 66.9369 80.7796 67.1671C80.1788 67.5265 64.3213 78.4182 62.1323 79.7482C61.8831 79.9097 61.5993 79.9965 61.3095 79.9998Z" fill="url(#paint0_linear_32956_4848)"/>
<path d="M61.2283 79.9999L61.3106 79.9999C61.5989 80.002 61.8827 79.9214 62.1335 79.7662C64.2813 78.4092 80.18 67.5176 80.7807 67.1851C81.2401 66.9549 81.5533 66.4762 81.6036 65.927V50.6499C81.6063 50.3913 81.5527 50.1357 81.4473 49.9041L61.2283 62.0268V79.9999Z" fill="url(#paint1_linear_32956_4848)"/>
<path d="M61.1581 79.7844L61.0767 79.7843C60.7915 79.7865 60.5107 79.7067 60.2626 79.5532C58.1377 78.2106 42.4084 67.4351 41.814 67.1061C41.3596 66.8784 41.0498 66.4047 40.9999 65.8614V50.7471C40.9973 50.4912 41.0503 50.2383 41.1546 50.0092L61.1581 62.0028V79.7844Z" fill="url(#paint2_linear_32956_4848)"/>
<defs>
<linearGradient id="paint0_linear_32956_4848" x1="40.9832" y1="44.3288" x2="81.205" y2="44.0436" gradientUnits="userSpaceOnUse">
<stop offset="1e-07" stop-color="#FF9200"/>
<stop offset="0.337553" stop-color="#F36D00"/>
<stop offset="0.56729" stop-color="#F83C72"/>
<stop offset="0.78" stop-color="#FC1CBE"/>
<stop offset="0.93" stop-color="#FE08ED"/>
<stop offset="1" stop-color="#FF00FF"/>
</linearGradient>
<linearGradient id="paint1_linear_32956_4848" x1="52.2837" y1="76.2431" x2="94.9061" y2="54.6324" gradientUnits="userSpaceOnUse">
<stop stop-color="#EE0A3F"/>
<stop offset="1" stop-color="#EE0A3F" stop-opacity="0"/>
</linearGradient>
<linearGradient id="paint2_linear_32956_4848" x1="56.2745" y1="69.7811" x2="35.1142" y2="54.1719" gradientUnits="userSpaceOnUse">
<stop stop-color="#ED6600"/>
<stop offset="1" stop-color="#F98200"/>
</linearGradient>
</defs>
</svg>
