<svg width="226" height="124" viewBox="0 0 226 124" fill="none" xmlns="http://www.w3.org/2000/svg">
<path d="M96.4829 53.1565H89.2336C88.7375 53.1565 88.3157 53.517 88.2383 54.0069L85.3063 72.6027C85.248 72.9696 85.5321 73.3005 85.9042 73.3005H89.365C89.8611 73.3005 90.283 72.9399 90.3604 72.449L91.1511 67.4334C91.2275 66.9424 91.6504 66.5819 92.1454 66.5819H94.4403C99.2155 66.5819 101.972 64.2703 102.691 59.6895C103.016 57.6854 102.705 56.1107 101.767 55.0079C100.737 53.797 98.9092 53.1565 96.4829 53.1565ZM97.3192 59.9482C96.9228 62.5504 94.9353 62.5504 93.0135 62.5504H91.9196L92.6871 57.6907C92.7326 57.3969 92.987 57.1806 93.2838 57.1806H93.7852C95.0943 57.1806 96.3292 57.1806 96.9673 57.9271C97.3478 58.3725 97.4644 59.0342 97.3192 59.9482Z" fill="#253B80"/>
<path d="M118.152 59.8644H114.68C114.384 59.8644 114.129 60.0808 114.083 60.3745L113.93 61.3458L113.687 60.9937C112.935 59.9026 111.26 59.5378 109.587 59.5378C105.751 59.5378 102.474 62.4443 101.836 66.5215C101.505 68.5553 101.976 70.5 103.129 71.8562C104.187 73.1032 105.701 73.6228 107.502 73.6228C110.593 73.6228 112.307 71.6346 112.307 71.6346L112.152 72.5996C112.094 72.9686 112.378 73.2994 112.748 73.2994H115.875C116.372 73.2994 116.792 72.9389 116.87 72.4479L118.746 60.5622C118.806 60.1963 118.523 59.8644 118.152 59.8644ZM113.313 66.6233C112.978 68.6072 111.404 69.9391 109.396 69.9391C108.388 69.9391 107.583 69.6157 107.065 69.0028C106.552 68.3941 106.357 67.5278 106.52 66.5628C106.833 64.5958 108.434 63.2205 110.411 63.2205C111.396 63.2205 112.198 63.5482 112.726 64.1664C113.255 64.7909 113.464 65.6626 113.313 66.6233Z" fill="#253B80"/>
<path d="M136.638 59.8644H133.15C132.817 59.8644 132.505 60.0298 132.316 60.3066L127.505 67.3962L125.465 60.5833C125.337 60.157 124.944 59.8644 124.498 59.8644H121.07C120.654 59.8644 120.364 60.2716 120.497 60.6639L124.339 71.9442L120.727 77.0457C120.443 77.4475 120.729 78 121.22 78H124.704C125.035 78 125.344 77.8388 125.532 77.5674L137.135 60.8134C137.412 60.4126 137.127 59.8644 136.638 59.8644Z" fill="#253B80"/>
<path d="M148.192 53.1565H140.941C140.446 53.1565 140.024 53.517 139.947 54.0069L137.015 72.6027C136.957 72.9696 137.241 73.3005 137.611 73.3005H141.331C141.677 73.3005 141.973 73.0481 142.027 72.7045L142.859 67.4334C142.935 66.9424 143.358 66.5819 143.853 66.5819H146.147C150.923 66.5819 153.678 64.2703 154.399 59.6895C154.724 57.6854 154.412 56.1107 153.474 55.0079C152.444 53.797 150.618 53.1565 148.192 53.1565ZM149.028 59.9482C148.633 62.5504 146.645 62.5504 144.722 62.5504H143.63L144.398 57.6907C144.444 57.3969 144.696 57.1806 144.994 57.1806H145.495C146.803 57.1806 148.039 57.1806 148.677 57.9271C149.058 58.3725 149.173 59.0342 149.028 59.9482Z" fill="#179BD7"/>
<path d="M169.86 59.8644H166.391C166.093 59.8644 165.84 60.0808 165.795 60.3745L165.642 61.3458L165.398 60.9937C164.646 59.9026 162.972 59.5378 161.299 59.5378C157.463 59.5378 154.187 62.4443 153.549 66.5215C153.219 68.5553 153.688 70.5 154.841 71.8562C155.901 73.1032 157.413 73.6228 159.214 73.6228C162.305 73.6228 164.019 71.6346 164.019 71.6346L163.864 72.5996C163.806 72.9686 164.09 73.2994 164.462 73.2994H167.588C168.083 73.2994 168.505 72.9389 168.582 72.4479L170.459 60.5622C170.517 60.1963 170.233 59.8644 169.86 59.8644ZM165.022 66.6233C164.689 68.6072 163.113 69.9391 161.105 69.9391C160.099 69.9391 159.291 69.6157 158.774 69.0028C158.261 68.3941 158.068 67.5278 158.229 66.5628C158.544 64.5958 160.142 63.2205 162.119 63.2205C163.105 63.2205 163.906 63.5482 164.434 64.1664C164.965 64.7909 165.175 65.6626 165.022 66.6233Z" fill="#179BD7"/>
<path d="M173.951 53.6665L170.976 72.6027C170.918 72.9696 171.202 73.3004 171.572 73.3004H174.563C175.06 73.3004 175.482 72.9399 175.558 72.4489L178.492 53.8542C178.551 53.4873 178.267 53.1554 177.897 53.1554H174.547C174.251 53.1565 173.997 53.3728 173.951 53.6665Z" fill="#179BD7"/>
<path d="M55.2018 76.9143L55.7562 73.3918L54.5213 73.3631H48.6246L52.7225 47.3701C52.7352 47.2917 52.7766 47.2185 52.837 47.1665C52.8974 47.1146 52.9748 47.0859 53.0554 47.0859H62.9981C66.2989 47.0859 68.5768 47.7731 69.7661 49.1293C70.3237 49.7655 70.6788 50.4304 70.8505 51.162C71.0307 51.9297 71.0339 52.847 70.8579 53.9657L70.8452 54.0473V54.7641L71.4027 55.0801C71.8723 55.3293 72.2454 55.6145 72.5316 55.9411C73.0086 56.4851 73.3171 57.1765 73.4475 57.9961C73.5821 58.8391 73.5376 59.8423 73.3171 60.9779C73.0627 62.2843 72.6514 63.4221 72.096 64.3531C71.5851 65.2109 70.9342 65.9225 70.1615 66.4739C69.4237 66.9977 68.5471 67.3953 67.556 67.6498C66.5957 67.9001 65.5007 68.0262 64.2997 68.0262H63.526C62.9726 68.0262 62.4352 68.2256 62.0133 68.5829C61.5904 68.9477 61.3106 69.4461 61.2247 69.9911L61.1664 70.3082L60.187 76.5167L60.1425 76.7447C60.1308 76.8168 60.1107 76.8528 60.081 76.8772C60.0545 76.8995 60.0163 76.9143 59.9792 76.9143H55.2018Z" fill="#253B80"/>
<path d="M71.929 54.1299C71.8993 54.3197 71.8654 54.5137 71.8272 54.7131C70.516 61.4475 66.0301 63.774 60.3009 63.774H57.3838C56.6831 63.774 56.0927 64.283 55.9835 64.9744L54.49 74.4499L54.0671 77.1358C53.9961 77.5897 54.3459 77.999 54.8038 77.999H59.9776C60.5903 77.999 61.1107 77.5536 61.2072 76.9492L61.2581 76.6862L62.2322 70.5021L62.2947 70.1628C62.3901 69.5562 62.9116 69.1109 63.5243 69.1109H64.2981C69.3108 69.1109 73.2349 67.075 74.3818 61.1835C74.8609 58.7224 74.6129 56.6674 73.3451 55.2221C72.9614 54.7863 72.4855 54.4247 71.929 54.1299Z" fill="#179BD7"/>
<path d="M70.5573 53.5829C70.357 53.5245 70.1503 53.4715 69.9383 53.4238C69.7252 53.3772 69.5069 53.3358 69.2822 53.2997C68.4956 53.1725 67.6339 53.1121 66.7106 53.1121H58.9176C58.7257 53.1121 58.5434 53.1555 58.3802 53.234C58.0208 53.4068 57.7537 53.7472 57.689 54.164L56.0312 64.668L55.9835 64.9745C56.0927 64.2831 56.6831 63.7741 57.3838 63.7741H60.3009C66.0301 63.7741 70.516 61.4466 71.8272 54.7132C71.8664 54.5139 71.8993 54.3198 71.929 54.13C71.5972 53.954 71.2378 53.8034 70.8509 53.6751C70.7555 53.6433 70.657 53.6126 70.5573 53.5829Z" fill="#222D65"/>
<path d="M57.6907 54.1638C57.7554 53.7471 58.0225 53.4067 58.3819 53.2349C58.5461 53.1565 58.7274 53.113 58.9193 53.113H66.7123C67.6356 53.113 68.4973 53.1734 69.2839 53.3007C69.5086 53.3367 69.7269 53.3781 69.94 53.4248C70.152 53.4725 70.3587 53.5255 70.559 53.5838C70.6587 53.6135 70.7572 53.6443 70.8537 53.675C71.2406 53.8033 71.5999 53.9549 71.9317 54.1299C72.3218 51.6412 71.9285 49.9467 70.5834 48.4124C69.1005 46.7232 66.424 46 62.9992 46H53.0565C52.3569 46 51.7601 46.509 51.652 47.2014L47.5106 73.4616C47.429 73.9812 47.8296 74.4499 48.3533 74.4499H54.4917L56.0329 64.6679L57.6907 54.1638Z" fill="#253B80"/>
</svg>
