<svg width="226" height="124" viewBox="0 0 226 124" fill="none" xmlns="http://www.w3.org/2000/svg">
<path d="M73.0995 49.6059C73.0766 49.3998 72.8936 49.3081 72.7564 49.3081C72.6191 49.3081 69.6229 49.079 69.6229 49.079C69.6229 49.079 67.5416 46.9943 67.29 46.7881C67.0613 46.559 66.6267 46.6277 66.4437 46.6735C66.4208 46.6735 65.9863 46.811 65.2773 47.0401C64.5682 45.0011 63.356 43.1455 61.1832 43.1455H60.9773C60.3827 42.3666 59.605 42 58.9646 42C53.9328 42 51.5084 48.3001 50.7536 51.5074C48.7866 52.126 47.3914 52.5383 47.2313 52.6071C46.1335 52.9507 46.1106 52.9736 45.9734 54.0046C45.859 54.7835 43 76.9369 43 76.9369L65.2544 81.1064L77.3308 78.4948C77.3536 78.4489 73.1223 49.8121 73.0995 49.6059ZM64.0422 47.3608C63.4932 47.5212 62.83 47.7274 62.1667 47.9565V47.5441C62.1667 46.307 62.0066 45.299 61.7092 44.4971C62.8528 44.6346 63.5619 45.8946 64.0422 47.3608ZM60.314 44.7491C60.6114 45.5281 60.8172 46.6277 60.8172 48.1397V48.3688C59.5821 48.7583 58.2784 49.1477 56.929 49.583C57.6838 46.6964 59.1247 45.2761 60.314 44.7491ZM58.8502 43.3287C59.079 43.3287 59.3077 43.4204 59.4907 43.5578C57.8667 44.3139 56.1514 46.2153 55.4423 50.0641C54.3673 50.4078 53.3381 50.7056 52.3546 51.0263C53.178 48.0939 55.2365 43.3287 58.8502 43.3287Z" fill="#95BF47"/>
<path d="M72.7559 49.2625C72.6187 49.2625 69.6224 49.0334 69.6224 49.0334C69.6224 49.0334 67.5411 46.9486 67.2895 46.7424C67.198 46.6508 67.0837 46.605 66.9922 46.605L65.3225 81.1066L77.3989 78.495C77.3989 78.495 73.1676 49.8123 73.1447 49.6061C73.0532 49.3999 72.8931 49.3083 72.7559 49.2625Z" fill="#5E8E3E"/>
<path d="M61.1831 55.9519L59.7193 60.3734C59.7193 60.3734 58.3928 59.6632 56.8146 59.6632C54.4588 59.6632 54.3444 61.1524 54.3444 61.5189C54.3444 63.5349 59.605 64.3139 59.605 69.0561C59.605 72.7904 57.2492 75.1959 54.07 75.1959C50.2275 75.1959 48.3062 72.8133 48.3062 72.8133L49.3355 69.4227C49.3355 69.4227 51.3482 71.1638 53.0407 71.1638C54.1615 71.1638 54.6189 70.2932 54.6189 69.6518C54.6189 67.0172 50.319 66.9026 50.319 62.5498C50.319 58.9072 52.9264 55.3792 58.2098 55.3792C60.1768 55.3563 61.1831 55.9519 61.1831 55.9519Z" fill="white"/>
<path d="M91.4208 64.2681C90.2086 63.6266 89.5911 63.0539 89.5911 62.2979C89.5911 61.3357 90.4602 60.7171 91.8096 60.7171C93.3878 60.7171 94.783 61.3586 94.783 61.3586L95.8808 57.9909C95.8808 57.9909 94.8745 57.212 91.9011 57.212C87.7613 57.212 84.8794 59.5946 84.8794 62.9393C84.8794 64.8408 86.2289 66.2841 88.0129 67.315C89.4767 68.1169 89.9799 68.7125 89.9799 69.5831C89.9799 70.4765 89.248 71.2096 87.8985 71.2096C85.9087 71.2096 84.0103 70.1787 84.0103 70.1787L82.8438 73.5464C82.8438 73.5464 84.5821 74.7148 87.5097 74.7148C91.7639 74.7148 94.8516 72.6071 94.8516 68.8271C94.8059 66.7652 93.2734 65.3448 91.4208 64.2681ZM108.392 57.1661C106.288 57.1661 104.641 58.1742 103.383 59.6862L103.337 59.6633L105.167 50.1329H100.432L95.8122 74.417H100.547L102.125 66.1237C102.742 62.9852 104.366 61.0378 105.876 61.0378C106.951 61.0378 107.363 61.771 107.363 62.8019C107.363 63.4433 107.317 64.2681 107.157 64.9095L105.373 74.417H110.107L111.96 64.6117C112.166 63.5808 112.303 62.3437 112.303 61.496C112.28 58.7698 110.885 57.1661 108.392 57.1661ZM123.007 57.1661C117.289 57.1661 113.515 62.3208 113.515 68.0711C113.515 71.7366 115.779 74.7148 120.034 74.7148C125.637 74.7148 129.411 69.6976 129.411 63.8099C129.434 60.3964 127.467 57.1661 123.007 57.1661ZM120.674 71.0951C119.05 71.0951 118.387 69.7205 118.387 67.9794C118.387 65.2532 119.782 60.8317 122.367 60.8317C124.036 60.8317 124.608 62.2979 124.608 63.6953C124.608 66.6048 123.167 71.0951 120.674 71.0951ZM141.556 57.1661C138.354 57.1661 136.547 60.0069 136.547 60.0069H136.501L136.776 57.464H132.567C132.362 59.1822 131.973 61.8168 131.607 63.7641L128.336 81.1524H133.071L134.397 74.1191H134.512C134.512 74.1191 135.495 74.7377 137.279 74.7377C142.86 74.7377 146.496 69.0103 146.496 63.2372C146.474 60.0298 145.033 57.1661 141.556 57.1661ZM137.027 71.1409C135.792 71.1409 135.06 70.4307 135.06 70.4307L135.838 66.0092C136.387 63.031 137.942 61.0837 139.589 61.0837C141.053 61.0837 141.487 62.4353 141.487 63.6953C141.51 66.7652 139.681 71.1409 137.027 71.1409ZM153.244 50.362C151.734 50.362 150.522 51.5762 150.522 53.1112C150.522 54.5087 151.414 55.4938 152.763 55.4938H152.809C154.296 55.4938 155.554 54.4857 155.577 52.7446C155.599 51.3471 154.662 50.362 153.244 50.362ZM146.611 74.3941H151.345L154.547 57.5327H149.79M166.624 57.5098H163.33L163.49 56.7309C163.765 55.1043 164.725 53.6839 166.326 53.6839C167.173 53.6839 167.836 53.9359 167.836 53.9359L168.751 50.2017C168.751 50.2017 167.95 49.7893 166.166 49.7893C164.497 49.7893 162.804 50.2704 161.523 51.3701C159.899 52.7446 159.145 54.7377 158.779 56.7538L158.641 57.5327H156.423L155.714 61.1295H157.932L155.416 74.417H160.151L162.667 61.1295H165.938L166.624 57.5098ZM178.037 57.5327C178.037 57.5327 175.063 65.0241 173.76 69.1249H173.714C173.623 67.7961 172.548 57.5327 172.548 57.5327H167.561L170.42 72.9737C170.466 73.3173 170.443 73.5235 170.306 73.7526C169.757 74.8293 168.819 75.8603 167.722 76.6163C166.83 77.2577 165.823 77.693 165.023 77.9679L166.349 82C167.31 81.7938 169.323 80.992 170.992 79.4112C173.142 77.3952 175.155 74.2566 177.213 69.9954L183 57.5098H178.037V57.5327Z" fill="black"/>
</svg>
