<svg width="226" height="124" viewBox="0 0 226 124" fill="none" xmlns="http://www.w3.org/2000/svg">
<path fill-rule="evenodd" clip-rule="evenodd" d="M77.1206 69.4084C76.9223 71.0388 75.9309 72.3446 74.3953 72.9985C73.5401 73.3627 72.3918 73.5593 71.4829 73.4976C70.065 73.4436 68.7329 73.1 67.5051 72.4718C67.0664 72.2473 66.4125 71.799 65.9104 71.3791C65.7832 71.273 65.7681 71.205 65.8523 71.0861C65.8977 71.0178 65.9815 70.8946 66.1667 70.6243C66.4352 70.2321 66.4687 70.183 66.4989 70.137C66.5849 70.0056 66.7245 69.9941 66.8622 70.1021C66.8767 70.1133 66.8767 70.1133 66.8876 70.1218C66.9102 70.1393 66.9102 70.1393 66.9635 70.1806C67.0174 70.2225 67.0494 70.2472 67.0624 70.2568C68.3866 71.2903 69.9288 71.8864 71.4858 71.946C73.652 71.9166 75.2097 70.946 75.4888 69.4556C75.7957 67.8154 74.5037 66.3985 71.9757 65.6088C71.1851 65.3618 69.1867 64.5647 68.8182 64.3494C67.0879 63.3376 66.2789 62.0125 66.3939 60.3757C66.57 58.1068 68.6837 56.4146 71.3544 56.4032C72.5488 56.4008 73.7406 56.6482 74.8856 57.1289C75.291 57.2992 76.0148 57.6917 76.2647 57.8777C76.4087 57.983 76.4371 58.1058 76.3546 58.2382C76.3085 58.315 76.2324 58.4368 76.0718 58.6906L76.07 58.6934C75.8587 59.0277 75.8521 59.0381 75.8036 59.1163C75.7198 59.2434 75.6213 59.2553 75.4703 59.1598C74.2451 58.3396 72.8869 57.9269 71.3931 57.8971C69.5334 57.9338 68.1396 59.0367 68.0479 60.5392C68.0236 61.8962 69.0449 62.8869 71.2511 63.6422C75.7294 65.0763 77.4431 66.7576 77.1206 69.4084ZM71.59 45.9823C74.5056 45.9823 76.8821 48.7395 76.9933 52.1909H66.1868C66.298 48.7395 68.6745 45.9823 71.59 45.9823ZM86.679 52.8398C86.679 52.4814 86.3893 52.1909 86.0322 52.1909H79.0277C78.8559 47.6338 75.5917 44 71.59 44C67.5885 44 64.3242 47.6338 64.1524 52.1909L57.1379 52.191C56.7862 52.1974 56.503 52.4855 56.503 52.8398C56.503 52.8567 56.5037 52.8735 56.505 52.8901H56.5L57.4999 74.8548C57.5 74.916 57.5023 74.9776 57.5069 75.0396C57.5079 75.0536 57.509 75.0675 57.5102 75.0814L57.5123 75.1278L57.5148 75.1302C57.6667 76.6586 58.7798 77.8896 60.2934 77.9464L60.2968 77.9498H82.5472C82.5577 77.9499 82.5683 77.95 82.5788 77.95C82.5893 77.95 82.5999 77.9499 82.6104 77.9498H82.6578L82.6588 77.9489C84.1987 77.907 85.4461 76.6587 85.5779 75.1115L85.5787 75.1107L85.5797 75.0899C85.5809 75.0736 85.5821 75.0575 85.5831 75.0412C85.5856 75.0022 85.5872 74.9633 85.5878 74.9248L86.6789 52.8733H86.6781C86.6787 52.8622 86.679 52.851 86.679 52.8398ZM160.856 67.1552C161.284 65.7617 162.581 64.8327 164.093 64.8327C165.537 64.8327 166.912 65.8098 167.387 67.1525L167.419 67.2448H160.828L160.856 67.1552ZM168.886 69.174C168.895 69.1744 168.895 69.1744 168.908 69.1745C168.921 69.1744 168.921 69.1744 168.935 69.174C169.25 69.1596 169.5 68.8915 169.5 68.5652C169.5 68.5494 169.499 68.5358 169.498 68.5139C169.498 68.5099 169.498 68.5019 169.498 68.4762C169.498 65.3988 167.077 62.9048 164.091 62.9048C161.106 62.9048 158.685 65.3988 158.685 68.4762C158.685 68.7057 158.698 68.9345 158.725 69.1619L158.727 69.174L158.735 69.234C158.884 70.3413 159.358 71.3576 160.107 72.18C160.106 72.1796 160.107 72.1804 160.111 72.1847C160.941 73.0952 162.068 73.7157 163.319 73.9478L163.335 73.9509V73.9493L163.416 73.9628C163.458 73.9699 163.502 73.9768 163.561 73.9859C165.207 74.1831 166.666 73.9468 167.902 73.3265C168.207 73.1737 168.48 73.005 168.717 72.8269C168.794 72.7695 168.862 72.7141 168.922 72.6621C168.952 72.6353 168.977 72.6128 168.99 72.5998C169.268 72.3135 169.286 72.212 169.118 71.9506C168.932 71.6568 168.769 71.4065 168.629 71.1993C168.58 71.1268 168.537 71.065 168.501 71.0137C168.482 70.9855 168.482 70.9855 168.469 70.9676C168.464 70.9607 168.464 70.9607 168.461 70.9563L168.459 70.954C168.307 70.765 168.202 70.7477 168.033 70.8965C168.015 70.9124 167.955 70.9588 167.944 70.9703C166.755 72.0225 165.131 72.361 163.51 72.0229C163.208 71.9421 162.925 71.8395 162.665 71.7156C161.649 71.208 160.93 70.3035 160.722 69.2566L160.705 69.174L168.886 69.174ZM147.99 67.1552C148.418 65.7617 149.715 64.8327 151.227 64.8327C152.671 64.8327 154.046 65.8098 154.521 67.1525L154.553 67.2448H147.962L147.99 67.1552ZM156.02 69.174C156.029 69.1744 156.029 69.1744 156.042 69.1745C156.055 69.1744 156.055 69.1744 156.068 69.174C156.384 69.1596 156.634 68.8915 156.634 68.5652C156.634 68.5494 156.633 68.5358 156.632 68.5139C156.632 68.5099 156.632 68.5019 156.632 68.4762C156.632 65.3988 154.211 62.9048 151.225 62.9048C148.239 62.9048 145.818 65.3988 145.818 68.4762C145.818 68.7057 145.832 68.9345 145.859 69.1619L145.86 69.174L145.869 69.234C146.018 70.3413 146.492 71.3576 147.24 72.18C147.24 72.1796 147.241 72.1804 147.245 72.1847C148.075 73.0952 149.202 73.7157 150.452 73.9478L150.469 73.9509V73.9493L150.55 73.9628C150.592 73.9699 150.636 73.9768 150.695 73.9859C152.34 74.1831 153.8 73.9468 155.036 73.3265C155.34 73.1737 155.614 73.005 155.851 72.8269C155.927 72.7695 155.996 72.7141 156.055 72.6621C156.086 72.6353 156.11 72.6128 156.123 72.5998C156.402 72.3135 156.419 72.212 156.251 71.9506C156.066 71.6568 155.903 71.4065 155.763 71.1993C155.714 71.1268 155.671 71.065 155.635 71.0137C155.615 70.9855 155.615 70.9855 155.603 70.9676C155.598 70.9607 155.598 70.9607 155.594 70.9563L155.593 70.954C155.441 70.765 155.336 70.7477 155.167 70.8965C155.149 70.9124 155.089 70.9588 155.078 70.9703C153.889 72.0225 152.265 72.361 150.644 72.0229C150.342 71.9421 150.059 71.8395 149.799 71.7156C148.784 71.208 148.064 70.3035 147.856 69.2566L147.84 69.174L156.02 69.174ZM138.17 72.2425C136.159 72.2425 134.514 70.6537 134.464 68.6626V68.4752C134.514 66.4873 136.159 64.8982 138.17 64.8982C140.217 64.8982 141.877 66.5423 141.877 68.5704C141.877 70.5984 140.217 72.2425 138.17 72.2425ZM138.171 62.9501C136.852 62.9501 135.592 63.3978 134.579 64.2189L134.464 64.3121V63.2845C134.464 63.0105 134.405 62.9501 134.127 62.9501H132.832C132.55 62.9501 132.495 63.006 132.495 63.2845V79.6656C132.495 79.9347 132.558 80 132.832 80H134.127C134.402 80 134.464 79.9361 134.464 79.6656V72.8342L134.579 72.9274C135.592 73.7487 136.852 74.1963 138.171 74.1963C141.306 74.1963 143.848 71.6787 143.848 68.5732C143.848 65.4677 141.306 62.9501 138.171 62.9501ZM124.84 72.117C122.788 72.117 121.125 70.4874 121.125 68.4765C121.125 66.4657 122.789 64.836 124.84 64.836C126.891 64.836 128.554 66.4657 128.554 68.4765C128.554 70.4872 126.891 72.117 124.84 72.117ZM124.841 62.9048C121.7 62.9048 119.154 65.4007 119.154 68.4793C119.154 71.5578 121.7 74.0538 124.841 74.0538C127.982 74.0538 130.528 71.5578 130.528 68.4793C130.528 65.4007 127.982 62.9048 124.841 62.9048ZM112.163 63.0286C111.016 63.0286 109.906 63.396 108.986 64.075L108.874 64.1576V56.5499C108.874 56.2977 108.791 56.2154 108.538 56.2154H107.183C106.909 56.2154 106.847 56.2806 106.847 56.5499V73.9049C106.847 74.1677 106.914 74.2396 107.183 74.2396H108.538C108.789 74.2396 108.874 74.1532 108.874 73.9049V68.2362C108.888 66.4517 110.357 65.0114 112.163 65.0114C113.974 65.0114 115.444 66.4588 115.452 68.2491V73.9049C115.452 74.192 115.499 74.2395 115.788 74.2395H117.139C117.426 74.2395 117.475 74.1906 117.475 73.9049V68.2325C117.465 65.3711 115.07 63.0286 112.163 63.0286ZM93.2823 71.0916L93.2791 71.0964C93.0859 71.3881 93.005 71.5108 92.9598 71.5812C92.8075 71.8071 92.8264 71.9078 93.059 72.1037C93.6018 72.5398 94.2996 72.9978 94.7703 73.2271C96.0801 73.8654 97.4948 74.2027 98.994 74.2332C99.9625 74.2819 101.179 74.0524 102.084 73.6499C103.724 72.921 104.769 71.5003 104.952 69.7505C105.248 66.9152 103.397 65.1427 98.6283 63.7143L98.6271 63.7139C96.4053 62.9999 95.3617 62.0507 95.3613 60.7254C95.4267 59.2606 96.7896 58.1663 98.6283 58.098C100.109 58.1017 101.419 58.4937 102.706 59.3188C102.977 59.4828 103.102 59.4526 103.285 59.2167C103.306 59.1819 103.364 59.0975 103.608 58.7485L103.608 58.7474C103.836 58.4214 103.911 58.3125 103.93 58.2804C104.084 57.9921 104.062 57.881 103.784 57.685C103.511 57.4899 102.741 57.0909 102.301 56.9158C101.077 56.4291 99.8114 56.1927 98.5517 56.2171C95.6852 56.2792 93.4497 58.137 93.3023 60.5741C93.2088 62.3345 94.1054 63.75 95.9787 64.7965C96.5038 65.0728 98.424 65.7961 99.3201 66.0576C101.868 66.8013 103.197 68.1693 102.923 69.7833C102.673 71.2498 101.131 72.225 98.9676 72.2918C97.3986 72.2592 95.8177 71.6862 94.445 70.6583C94.4382 70.6533 94.4034 70.6275 94.3392 70.5799C94.249 70.5129 94.249 70.5129 94.2356 70.5028C93.9557 70.3103 93.7911 70.3263 93.6203 70.58C93.5997 70.6114 93.3871 70.9334 93.2823 71.0916Z" fill="#EE4D2D"/>
</svg>
