<svg width="226" height="124" viewBox="0 0 226 124" fill="none" xmlns="http://www.w3.org/2000/svg">
<path d="M48.0542 66.4653C48.0542 68.075 48.4075 69.3108 48.8694 70.0584C49.475 71.0377 50.3782 71.4526 51.299 71.4526C52.4867 71.4526 53.5731 71.1579 55.667 68.2626C57.3443 65.942 59.3209 62.6846 60.6507 60.6425L62.9029 57.1828C64.4674 54.7801 66.2782 52.1091 68.3544 50.2986C70.0494 48.8209 71.8778 48 73.718 48C76.8074 48 79.7501 49.7899 82.0023 53.147C84.4671 56.8237 85.6635 61.4547 85.6635 66.2337C85.6635 69.0748 85.1034 71.1623 84.1504 72.8115C83.2295 74.4065 81.4349 76 78.4158 76V71.4526C81.0008 71.4526 81.646 69.0777 81.646 66.3598C81.646 62.4867 80.7428 58.1885 78.7531 55.1173C77.3411 52.9388 75.5112 51.6077 73.498 51.6077C71.3207 51.6077 69.5685 53.2496 67.5993 56.1772C66.5524 57.7326 65.4776 59.6281 64.2709 61.7669L62.9425 64.1198C60.2739 68.8505 59.598 69.928 58.2637 71.7062C55.925 74.8199 53.928 76 51.299 76C48.1803 76 46.2082 74.6498 44.9868 72.6151C43.9897 70.9571 43.5 68.7816 43.5 66.3026L48.0542 66.4653Z" fill="#0081FB"/>
<path d="M47.0906 53.4681C49.1786 50.2503 52.1917 48 55.6477 48C57.6491 48 59.6388 48.5923 61.7165 50.2884C63.9892 52.1428 66.4114 55.1964 69.4334 60.2291L70.5169 62.0352C73.1327 66.392 74.621 68.6335 75.4919 69.6905C76.6121 71.048 77.3966 71.4526 78.4156 71.4526C81.0006 71.4526 81.6458 69.0777 81.6458 66.3598L85.6633 66.2337C85.6633 69.0748 85.1032 71.1623 84.1501 72.8115C83.2293 74.4065 81.4346 76 78.4156 76C76.5388 76 74.8761 75.5925 73.0374 73.8582C71.624 72.5271 69.9715 70.1625 68.7002 68.0369L64.9188 61.7215C63.0215 58.552 61.281 56.1889 60.2737 55.1187C59.1901 53.968 57.7972 52.5782 55.5744 52.5782C53.7753 52.5782 52.2474 53.8404 50.9689 55.7711L47.0906 53.4681Z" fill="url(#paint0_linear_32956_4856)"/>
<path d="M55.5746 52.5782C53.7755 52.5782 52.2477 53.8404 50.9691 55.7711C49.1612 58.4993 48.0542 62.5629 48.0542 66.4653C48.0542 68.075 48.4075 69.3108 48.8694 70.0584L44.9868 72.6151C43.9897 70.9571 43.5 68.7816 43.5 66.3026C43.5 61.7948 44.7375 57.0963 47.0908 53.4681C49.1788 50.2503 52.1919 48 55.6479 48L55.5746 52.5782Z" fill="url(#paint1_linear_32956_4856)"/>
<path d="M94.5164 48.8854H99.7847L108.742 65.0873L117.701 48.8854H122.855V75.5074H118.557V55.104L110.701 69.233H106.669L98.814 55.104V75.5074H94.5164V48.8854ZM136.321 58.8114C133.239 58.8114 131.382 61.1306 130.938 64.0024H141.398C141.183 61.0441 139.476 58.8114 136.321 58.8114ZM126.677 65.6385C126.677 59.5957 130.583 55.1978 136.395 55.1978C142.112 55.1978 145.526 59.54 145.526 65.961V67.1411H130.938C131.456 70.2651 133.529 72.3702 136.872 72.3702C139.539 72.3702 141.206 71.5566 142.787 70.0686L145.07 72.8642C142.919 74.8418 140.183 75.9823 136.72 75.9823C130.428 75.9823 126.677 71.3953 126.677 65.6385ZM150.737 59.1926H146.781V55.6743H150.737V49.8558H154.883V55.6743H160.894V59.1926H154.883V68.1101C154.883 71.1549 155.857 72.2368 158.25 72.2368C159.342 72.2368 159.968 72.143 160.894 71.989V75.4693C159.741 75.7947 158.641 75.9442 157.451 75.9442C152.974 75.9442 150.737 73.499 150.737 68.6041V59.1926ZM178.354 62.6142C177.521 60.512 175.663 58.9639 172.933 58.9639C169.385 58.9639 167.113 61.481 167.113 65.5813C167.113 69.579 169.204 72.2177 172.763 72.2177C175.561 72.2177 177.558 70.5905 178.354 68.566V62.6142ZM182.5 75.5074H178.43V72.7308C177.292 74.3654 175.222 75.9823 171.869 75.9823C166.476 75.9823 162.872 71.4686 162.872 65.5813C162.872 59.6383 166.562 55.1978 172.097 55.1978C174.833 55.1978 176.98 56.2914 178.43 58.2221V55.6743H182.5V75.5074Z" fill="#192830"/>
<defs>
<linearGradient id="paint0_linear_32956_4856" x1="52.4439" y1="65.1518" x2="81.4757" y2="66.6184" gradientUnits="userSpaceOnUse">
<stop stop-color="#0064E1"/>
<stop offset="0.4" stop-color="#0064E1"/>
<stop offset="0.83" stop-color="#0073EE"/>
<stop offset="1" stop-color="#0082FB"/>
</linearGradient>
<linearGradient id="paint1_linear_32956_4856" x1="50.0981" y1="68.377" x2="50.0981" y2="57.6754" gradientUnits="userSpaceOnUse">
<stop stop-color="#0082FB"/>
<stop offset="1" stop-color="#0064E0"/>
</linearGradient>
</defs>
</svg>
