<svg width="226" height="124" viewBox="0 0 226 124" fill="none" xmlns="http://www.w3.org/2000/svg">
<path d="M56.576 53.1499C60.9443 52.2391 65.1306 55.5787 65.9497 60.4362C66.7687 65.2938 63.7655 69.9489 59.3972 70.8597C55.848 71.5681 52.2987 69.5441 50.6606 65.901C48.7495 61.4482 50.4786 56.0847 54.4829 53.9595C55.2109 53.5547 55.848 53.3523 56.576 53.1499ZM57.2131 56.3883C55.757 56.6919 54.4829 57.6027 53.7548 59.0195C52.9358 60.5374 52.7537 62.4602 53.2998 64.1806C53.7548 65.4962 54.6649 66.6094 55.848 67.2166C57.031 67.8238 58.4872 67.925 59.6702 67.419C60.8533 66.913 61.7634 66.0022 62.4004 64.889C63.1285 63.4722 63.2195 61.7518 62.7645 60.2338C62.4004 58.9183 61.5814 57.8051 60.5803 57.0967C59.5792 56.3883 58.3961 56.1859 57.2131 56.3883ZM172.7 53.2511C174.156 52.9475 175.703 52.9475 177.16 53.4535C178.434 53.8583 179.526 54.8703 180.163 56.2871C180.527 57.0967 180.618 57.9063 180.618 58.8171H177.524C177.524 58.0075 177.16 57.1979 176.522 56.6919C175.703 56.0847 174.702 55.8823 173.792 56.0847C173.064 56.0847 172.336 56.4895 171.881 57.1979C171.426 58.0075 171.517 59.0195 172.245 59.6267C172.973 60.0315 173.701 60.2338 174.52 60.335C175.612 60.5374 176.704 60.841 177.706 61.2458C178.616 61.6506 179.344 62.359 179.89 63.2698C180.709 65.0914 180.436 67.3178 179.253 68.8358C178.161 70.0501 176.704 70.7585 175.157 70.8597C173.61 71.0621 171.972 70.7585 170.516 70.1513C169.424 69.5441 168.514 68.5322 168.059 67.3178C167.786 66.5082 167.604 65.6986 167.604 64.889H170.698C170.88 66.7106 172.245 68.0262 173.883 67.925C174.793 68.1274 175.794 67.925 176.522 67.3178C177.251 66.7106 177.433 65.4962 176.887 64.6866C176.34 64.1806 175.703 63.877 174.975 63.877C173.974 63.6746 173.064 63.4722 172.063 63.1686C171.244 62.9662 170.425 62.5614 169.788 61.9542C169.242 61.4482 168.878 60.841 168.696 60.1326C168.332 58.8171 168.423 57.5015 168.969 56.2871C169.788 54.5667 171.153 53.5547 172.7 53.2511ZM28 53.2511H31.0942L32.5503 66.8118C32.6413 66.6094 32.6413 66.407 32.7323 66.2046L36.2816 53.1499H38.9208L42.561 66.3058C42.652 66.5082 42.652 66.7106 42.743 66.8118C43.2891 62.2578 43.7441 57.7039 44.2901 53.1499H47.3844C46.5653 58.9183 45.8373 64.6866 45.0182 70.5561C43.6531 70.5561 42.288 70.5561 41.0139 70.5561L37.9197 59.3231C37.8287 59.0195 37.7377 58.7159 37.6467 58.4123C36.6456 62.4602 35.5535 66.5082 34.4615 70.5561H30.3662C29.6381 64.889 28.8191 59.0195 28 53.2511ZM69.7719 53.2511H77.3255C78.7816 53.2511 80.2377 53.9595 81.2388 55.1739C81.8758 56.0847 82.2398 57.1979 82.1488 58.4123C81.9668 60.1326 81.0567 61.6506 79.6006 62.2578C80.0557 62.2578 80.4197 62.4602 80.7837 62.7638C81.1477 63.1686 81.3298 63.6746 81.5118 64.1806C82.1488 66.3058 82.7859 68.431 83.4229 70.6573H80.0557C79.6006 68.937 79.0546 67.2166 78.5996 65.5974C78.5086 65.1926 78.3265 64.7878 78.0535 64.4842C77.7805 64.2818 77.5075 64.0794 77.1435 64.1806H72.8662C72.8662 66.407 72.8662 68.5322 72.8662 70.7585H69.7719V53.2511ZM72.8662 56.3883C72.8662 58.0075 72.8662 59.6267 72.8662 61.2458H75.8694C76.5974 61.347 77.3255 61.1446 77.9625 60.841C78.5086 60.5374 78.8726 59.9302 78.9636 59.3231C79.1456 58.5135 78.9636 57.8051 78.5086 57.0967C77.9625 56.5907 77.2345 56.2871 76.5064 56.2871C75.3233 56.3883 74.0492 56.3883 72.8662 56.3883ZM87.4272 53.3523H90.5214V67.7226H97.5289V70.7585H87.3362L87.4272 53.3523ZM101.351 53.3523H107.722C111.999 53.4535 115.457 57.5015 115.275 62.2578C115.184 64.9902 114.001 67.5202 111.999 69.1394C110.725 70.1513 109.269 70.7585 107.631 70.7585H101.26C101.351 64.889 101.351 59.1207 101.351 53.3523ZM104.445 56.3883C104.445 60.2338 104.445 63.9782 104.445 67.8238C105.537 67.8238 106.539 67.8238 107.631 67.8238C108.814 67.8238 109.906 67.3178 110.816 66.5082C111.726 65.4962 112.272 64.1806 112.363 62.7638C112.545 61.1446 112.181 59.4243 111.271 58.1087C110.361 56.9955 109.087 56.2871 107.722 56.2871L104.445 56.3883ZM119.37 53.2511H131.019C131.019 54.2631 131.019 55.2751 131.019 56.2871H122.465C122.465 57.8051 122.465 59.2219 122.465 60.7398H129.927C129.927 61.7518 129.927 62.7638 129.927 63.6746H122.465C122.465 66.0022 122.465 68.3298 122.465 70.6573H119.279L119.37 53.2511ZM135.206 53.3523H146.763C146.763 54.3643 146.763 55.3763 146.763 56.3883H142.577C142.577 60.2338 142.577 63.9782 142.577 67.8238C143.942 67.8238 145.398 67.8238 146.763 67.8238C146.763 68.8358 146.763 69.8477 146.763 70.8597C142.941 70.8597 139.119 70.8597 135.206 70.8597V67.8238C136.571 67.8238 138.027 67.8238 139.392 67.8238C139.392 63.9782 139.392 60.2338 139.392 56.3883H135.206V53.3523ZM151.314 53.3523H158.958C160.505 53.3523 162.052 54.1619 162.963 55.5787C163.873 57.0967 163.873 59.1207 162.963 60.7398C162.507 61.4482 161.87 62.0554 161.142 62.359C161.688 62.359 162.234 62.7638 162.599 63.2698C162.963 64.0794 163.236 64.9902 163.418 65.901C163.873 67.5202 164.328 69.1393 164.874 70.8597H161.506C161.051 69.1393 160.505 67.419 160.05 65.6986C159.959 65.1926 159.686 64.7878 159.322 64.4842C158.958 64.2818 158.594 64.2818 158.23 64.2818H154.408C154.408 66.5082 154.408 68.6334 154.408 70.8597H151.314V53.3523ZM154.317 56.3883C154.317 58.0075 154.317 59.6267 154.317 61.2458C155.227 61.2458 156.137 61.2458 157.047 61.2458C157.866 61.347 158.685 61.2458 159.413 60.9422C159.959 60.6386 160.323 60.1327 160.414 59.5255C160.596 58.7159 160.505 57.9063 159.959 57.1979C159.413 56.6919 158.685 56.3883 157.957 56.3883C156.774 56.3883 155.591 56.3883 154.317 56.3883ZM183.803 53.3523H198V56.3883H192.449C192.449 61.1446 192.449 66.0022 192.449 70.7585C191.448 70.7585 190.355 70.7585 189.354 70.7585C189.354 66.0022 189.354 61.1446 189.354 56.3883C187.534 56.3883 185.714 56.3883 183.803 56.3883C183.803 55.3763 183.803 54.3643 183.803 53.3523Z" fill="#FA1C45"/>
</svg>
