<svg width="226" height="124" viewBox="0 0 226 124" fill="none" xmlns="http://www.w3.org/2000/svg">
<path d="M123.779 62.9707C120.098 63.0897 117.811 63.7444 117.811 66.1343C117.811 67.6815 119.063 69.3588 122.239 69.3588C126.498 69.3588 128.771 67.0704 128.771 63.3171L128.771 62.9043C127.278 62.9043 125.437 62.9171 123.779 62.9707ZM132.831 67.9296C132.831 69.0941 132.865 70.2435 132.968 71.2786H129.192C129.091 70.4263 129.055 69.5795 129.055 68.758C127.013 71.2317 124.585 71.9429 121.217 71.9429C116.221 71.9429 113.546 69.3398 113.546 66.3289C113.546 61.9681 117.184 60.4306 123.5 60.2879C125.227 60.249 127.167 60.2433 128.771 60.2433L128.771 59.8172C128.771 56.8978 126.872 55.6974 123.582 55.6974C121.139 55.6974 119.338 56.694 119.153 58.4161H114.888C115.339 54.1224 119.915 53.0365 123.939 53.0365C128.759 53.0365 132.831 54.7272 132.831 59.7531L132.831 67.9296Z" fill="#FFBC13"/>
<path d="M88.6705 60.8415C88.513 57.0983 85.7724 55.6976 82.8433 55.6976C79.6848 55.6976 77.163 57.2732 76.7213 60.8415H88.6705ZM76.6338 63.5025C76.8528 67.1344 79.3934 69.2824 82.8868 69.2824C85.3071 69.2824 87.46 68.3102 88.1809 66.1953H92.3673C91.5531 70.4865 86.9279 71.943 82.9468 71.943C75.7081 71.943 72.5 68.0131 72.5 62.7132C72.5 56.879 75.8182 53.0366 83.0128 53.0366C88.7394 53.0366 92.9353 55.991 92.9353 62.4394V63.5025H76.6338Z" fill="#F12C2D"/>
<path d="M103.347 69.2063C107.119 69.2063 109.701 66.5296 109.701 62.4902C109.701 58.4513 107.119 55.7742 103.347 55.7742C99.5958 55.7742 96.993 58.4513 96.993 62.4902C96.993 66.5296 99.5958 69.2063 103.347 69.2063ZM92.9347 46H96.993L96.9926 56.0513C98.9817 53.7149 101.722 53.0365 104.419 53.0365C108.942 53.0365 113.965 56.0451 113.965 62.541C113.965 67.9806 109.97 71.9429 104.344 71.9429C101.399 71.9429 98.6271 70.9015 96.9175 68.8381C96.9175 69.6623 96.8708 70.4929 96.7794 71.2787H92.7965C92.8658 70.0083 92.9347 68.4265 92.9347 67.1467L92.9347 46Z" fill="#0968F6"/>
<path d="M153.5 53.7021L140.949 78H136.405L140.013 71.2531L130.568 53.7021H135.317L142.267 67.4148L149.198 53.7021H153.5Z" fill="#93C822"/>
</svg>
