<svg width="226" height="124" viewBox="0 0 226 124" fill="none" xmlns="http://www.w3.org/2000/svg">
<path d="M132.484 51.9579C132.513 52.3919 132.513 52.8258 132.513 53.2638C132.513 66.609 122.401 82 103.91 82V81.992C98.4473 82 93.0984 80.4281 88.5 77.4643C89.2943 77.5603 90.0925 77.6083 90.8928 77.6103C95.4195 77.6143 99.8169 76.0884 103.378 73.2786C99.0764 73.1966 95.3041 70.3787 93.9862 66.265C95.4932 66.557 97.0459 66.497 98.5249 66.091C93.835 65.1391 90.4608 60.9993 90.4608 56.1916V56.0636C91.8582 56.8456 93.4229 57.2796 95.0234 57.3276C90.6061 54.3617 89.2445 48.4581 91.912 43.8424C97.016 50.152 104.547 53.9878 112.631 54.3937C111.821 50.886 112.927 47.2102 115.539 44.7444C119.588 40.9206 125.956 41.1166 129.762 45.1823C132.014 44.7364 134.172 43.9064 136.146 42.7305C135.396 45.0683 133.825 47.0542 131.727 48.3161C133.72 48.0801 135.667 47.5442 137.5 46.7262C136.15 48.7581 134.45 50.528 132.484 51.9579Z" fill="#1D9BF0"/>
</svg>
