<svg width="226" height="125" viewBox="0 0 226 125" fill="none" xmlns="http://www.w3.org/2000/svg">
<path fill-rule="evenodd" clip-rule="evenodd" d="M50.6398 50.5541H56.1337L55.9494 62.8707C55.9494 69.0736 53.608 72.4651 48.5934 73.5183C46.8236 73.9199 44.9892 74.2144 43.1732 74.3929L42.1224 74.5L42.0763 68.7434L43.0165 68.7077C44.8601 68.6363 46.7037 68.3239 48.4736 67.7795C49.4507 67.4135 50.6306 66.5121 50.5108 62.9064V62.8885L50.6398 55.1505V50.5541ZM116.512 51.5001C117.046 52.1517 117.304 52.9549 117.268 53.7671V73.0542H111.949V61.0053L104.814 71.6619C104.501 72.1349 104.058 72.5633 103.551 72.8489C103.053 73.1434 102.528 73.2862 101.91 73.2773C100.721 73.2773 99.6058 72.6436 99.0067 71.6083L91.7798 60.8804V73.0542H86.4425V53.544C86.3964 52.8032 86.6545 52.0356 87.18 51.4287C87.7515 50.8486 88.5166 50.5452 89.2817 50.5719C90.3049 50.5273 91.3465 51.045 91.9641 51.9464L101.947 66.1819L111.728 51.9821C112.29 51.0807 113.331 50.5095 114.447 50.5719C115.166 50.5452 115.968 50.8754 116.512 51.5001ZM160.435 73.0542H154.25L150.895 67.3421L139.151 67.3957L135.869 73.0809H129.435L142.175 52.3926C142.488 51.75 143.041 51.2235 143.705 50.9022C145.299 50.1971 147.226 50.8575 147.973 52.3926L160.435 73.0542ZM144.922 57.7566L142.267 62.0674H147.632L144.922 57.7566ZM82.9397 66.1997C83.0872 68.1365 82.2207 70.0643 80.626 71.287L80.5154 71.3584C78.6533 72.4116 76.5701 72.9649 74.4407 72.9649C74.1457 72.9649 69.3339 72.9292 69.3339 72.9292C68.7163 72.9292 68.0711 72.9114 67.435 72.8846C66.7621 72.8578 66.0615 72.7775 65.3794 72.6347C64.7034 72.4919 64.0459 72.2807 63.4067 72.001C62.7431 71.6976 62.1623 71.2959 61.6738 70.7783L61.6645 70.7694C61.1483 70.216 60.7335 69.5734 60.4662 68.8683C60.1344 68.0026 59.9869 67.1012 60.0145 66.1819V50.5809H65.2688V65.9944C65.2688 66.405 65.2688 67.6634 68.8915 67.6634H74.1365C77.6762 67.6634 77.6762 66.405 77.6762 65.9944V50.5809H82.9397V66.1997ZM120.964 50.7861H126.476V73.1434H120.964V50.7861Z" fill="#282828"/>
<path fill-rule="evenodd" clip-rule="evenodd" d="M182.282 55.8466H182.301C183.389 57.5691 183.942 59.5684 183.923 61.5854C183.923 63.6114 183.361 65.6017 182.301 67.3421L181.969 67.8062L181.324 68.6452L180.605 69.4306C180.383 69.6626 180.061 69.8768 179.794 70.1356C179.379 70.448 178.918 70.7515 178.457 71.0192L177.968 71.3316C176.291 72.1884 174.429 72.6347 172.53 72.6347C170.631 72.6436 168.76 72.1706 167.1 71.2691C166.778 71.1353 166.474 70.9568 166.188 70.7515L165.321 70.1267C164.759 69.6715 164.234 69.1717 163.773 68.6184C163.524 68.3506 163.312 68.0472 163.127 67.7348L162.805 67.3153L162.27 66.3782C162.03 65.8873 161.837 65.3875 161.671 64.8699C161.33 63.8078 161.146 62.7011 161.127 61.5854C161.136 60.8268 161.228 60.086 161.394 59.3452C161.717 57.7566 162.399 56.2572 163.404 54.963C163.717 54.5287 164.077 54.13 164.482 53.7671L164.86 53.4011L165.727 52.6961L166.639 52.1159L167.119 51.8571C168.778 50.9467 170.649 50.4826 172.548 50.5005C174.456 50.4916 176.328 50.9557 177.987 51.8571L178.466 52.1159L179.333 52.6961L180.19 53.4011L180.568 53.7671C180.973 54.1241 181.333 54.5257 181.646 54.963C181.877 55.2397 182.098 55.5342 182.292 55.8466H182.282ZM175.175 58.0333L172.594 52.9192L169.958 58.0333L164.141 58.8633L168.336 62.8349L167.368 68.4667L172.521 65.8159L177.738 68.4667L176.77 62.8349L180.973 58.8633L175.175 58.0333Z" fill="#F8991D"/>
</svg>
