<svg width="226" height="125" viewBox="0 0 226 125" fill="none" xmlns="http://www.w3.org/2000/svg">
<path d="M70.7559 71.3221V47.4882H86.1032V50.4763H73.9339V57.8043H84.863V60.7925H73.9339V68.2628H86.9558V71.251H70.7559V71.3221Z" fill="#E43225"/>
<path d="M103.079 71.3221L97.8086 64.9901L92.5379 71.3221H88.8173L96.0259 62.8557L88.4297 54.1047H92.6154L97.8086 60.6502L103.079 54.1047H107.188L99.979 62.8557L106.8 71.3221H103.079Z" fill="#E43225"/>
<path d="M111.916 68.761V80.5001H108.738V62.927C108.738 58.4448 112.459 53.678 118.272 53.678C124.163 53.678 128.581 57.093 128.581 62.7135C128.581 68.1918 124.086 71.9625 118.97 71.9625C116.49 71.9625 113.157 70.9665 111.916 68.761ZM125.248 62.7135C125.248 58.8716 122.535 56.595 117.73 56.8084C115.404 56.8796 111.839 58.4448 112.149 63.923C112.226 65.7017 114.242 69.0455 118.66 69.0455C122.458 69.0455 125.248 67.0535 125.248 62.7135Z" fill="#E43225"/>
<path d="M131.293 71.3221V54.1048H134.471V55.9545C136.021 54.3182 138.424 53.749 140.982 53.749V56.8794C140.594 56.8083 136.796 56.3814 134.471 60.9348V71.3933H131.293V71.3221Z" fill="#E43225"/>
<path d="M141.834 62.7134C141.834 57.7332 145.71 53.6779 151.058 53.6779C157.724 53.6779 160.204 57.7332 160.204 62.9269V64.3498H145.322C145.555 67.6225 148.733 69.33 151.678 69.2589C153.848 69.1877 155.321 68.6185 156.871 67.1956L158.964 69.1877C157.026 70.8952 154.546 72.0336 151.523 72.0336C145.865 71.9624 141.834 68.1205 141.834 62.7134ZM150.825 56.5949C147.803 56.5949 145.477 59.0138 145.322 61.6462H156.871C156.871 59.085 154.856 56.5949 150.825 56.5949Z" fill="#E43225"/>
<path d="M161.834 68.9032L164.159 66.9822C164.082 66.9822 165.322 68.1206 165.477 68.1917C166.02 68.6186 166.562 68.9032 167.26 69.0455C169.275 69.5435 172.918 69.4012 173.228 66.8399C173.383 65.417 172.221 64.6344 170.903 64.1364C169.198 63.5672 167.337 63.3538 165.632 62.6423C163.694 61.8597 162.454 60.5079 162.454 58.5158C162.454 53.3222 170.515 52.4684 174.158 54.8874C174.313 55.0297 176.096 56.5237 176.019 56.5237L173.693 58.2312C172.531 56.9506 171.445 56.3103 168.965 56.3103C167.725 56.3103 166.02 56.8083 165.71 58.0178C165.245 59.7253 167.337 60.3656 168.733 60.7214C170.593 61.1482 172.608 61.4328 174.236 62.3577C176.484 63.6384 177.026 66.4131 176.174 68.5474C175.244 70.8953 172.453 71.8202 169.973 71.8913C167.027 72.0336 164.469 71.1798 162.377 69.2589C162.222 69.2589 161.834 68.9032 161.834 68.9032Z" fill="#E43225"/>
<path d="M178.188 68.9032L180.513 66.9822C180.435 66.9822 181.676 68.1206 181.831 68.1917C182.373 68.6186 182.916 68.9032 183.613 69.0455C185.629 69.5435 189.272 69.4012 189.582 66.8399C189.737 65.417 188.574 64.6344 187.256 64.1364C185.551 63.5672 183.691 63.3538 181.986 62.6423C180.048 61.8597 178.808 60.5079 178.808 58.5158C178.808 53.3222 186.869 52.4684 190.512 54.8874C190.667 55.0297 192.45 56.5237 192.372 56.5237L190.047 58.2312C188.884 56.9506 187.799 56.3103 185.319 56.3103C184.078 56.3103 182.373 56.8083 182.063 58.0178C181.598 59.7253 183.691 60.3656 185.086 60.7214C186.946 61.1482 188.962 61.4328 190.589 62.3577C192.837 63.6384 193.38 66.4131 192.527 68.5474C191.597 70.8953 188.807 71.8202 186.326 71.8913C183.381 72.0336 180.823 71.1798 178.73 69.2589C178.575 69.2589 178.188 68.9032 178.188 68.9032Z" fill="#E43225"/>
<path d="M193.303 54.1047V52.2549H192.606V51.8992H194.466V52.2549H193.768V54.1047H193.303Z" fill="#E43225"/>
<path d="M196.791 54.1047V52.3972L196.094 54.1047H195.939L195.241 52.3972V54.1047H194.854V51.8992H195.474L196.094 53.3932L196.714 51.8992H197.334V54.1047H196.791Z" fill="#E43225"/>
<path d="M49.2066 71.3221L46.8813 65.6304H34.3244L31.9991 71.3221H28.6661L38.7426 47.4882H42.3856L52.3846 71.3221H49.2066ZM40.4478 50.9032L35.7196 62.7134H45.5636L40.4478 50.9032Z" fill="#F7971D"/>
<path d="M54.4766 71.3221V47.4882H57.7321V71.3221H54.4766Z" fill="#F7971D"/>
<path d="M62.6154 71.3221V54.4604H65.8708V71.3221H62.6154Z" fill="#F7971D"/>
<path d="M68.9726 48.9822C68.9726 48.9111 68.9726 48.9111 68.9726 48.8399C68.9726 48.7688 68.9726 48.7688 68.9726 48.6976C66.4923 48.6265 64.477 46.7767 64.3995 44.5C64.3219 44.5 64.2444 44.5 64.1669 44.5C64.0894 44.5 64.0119 44.5 63.9344 44.5C63.8569 46.7767 61.8416 48.6265 59.3612 48.6976C59.3612 48.7688 59.3612 48.7688 59.3612 48.8399C59.3612 48.9111 59.3612 48.9111 59.3612 48.9822C61.8416 49.0533 63.8569 50.9032 63.9344 53.1798C64.0119 53.1798 64.0894 53.1798 64.1669 53.1798C64.2444 53.1798 64.3219 53.1798 64.3995 53.1798C64.477 50.9032 66.4923 49.0533 68.9726 48.9822Z" fill="#F7971D"/>
</svg>
