<svg width="227" height="125" viewBox="0 0 227 125" fill="none" xmlns="http://www.w3.org/2000/svg">
<path d="M60.7918 57.7288L49.8016 44.7482C49.0018 43.8087 47.7636 43.3636 46.5252 43.5367L29.2914 46.1821C28.0531 46.3799 27.0211 47.1711 26.5568 48.3084L20.3136 63.9335C19.875 65.0708 20.0814 66.3317 20.8554 67.2712L31.8455 80.2518C32.6453 81.1913 33.8836 81.6364 35.122 81.4633L52.3557 78.8179C53.594 78.6201 54.626 77.8289 55.0903 76.6916L61.3335 61.0665C61.7979 59.9292 61.5915 58.6683 60.7918 57.7288Z" fill="url(#paint0_linear_32967_5325)"/>
<path d="M45.5195 54.9469L41.655 61.6376L37.8418 53.7125L33.0802 54.9223L27.1942 69.7344H32.441L35.9991 60.9953L39.479 69.3151H42.1673L47.3372 60.4027V71.808L52.2252 70.2034V56.1071L45.5195 54.9469Z" fill="white"/>
<path fill-rule="evenodd" clip-rule="evenodd" d="M121.203 58.9418C122.533 57.4033 124.144 56.6649 126.088 56.6649C128.032 56.6649 129.669 57.4033 130.974 58.9418C132.304 60.4496 132.943 62.388 132.943 64.7573C132.943 67.1266 132.278 69.0651 130.974 70.542C129.669 72.019 128.058 72.7574 126.088 72.7574C124.144 72.7574 122.507 72.019 121.203 70.542C119.898 69.0343 119.259 67.0959 119.259 64.7573C119.259 62.388 119.924 60.4495 121.203 58.9418ZM126.114 68.2651C127.546 68.2651 128.723 66.8804 128.723 64.7573C128.723 62.6033 127.572 61.1879 126.114 61.1879C124.681 61.1879 123.505 62.6341 123.505 64.7573C123.505 66.8804 124.656 68.2651 126.114 68.2651ZM113.606 56.6956C116.548 56.6956 117.826 58.6033 117.826 61.9572V72.3882H113.069V63.1573C113.069 62.2034 112.788 61.6496 112.174 61.6496C111.611 61.6496 110.511 61.8957 109.821 62.4804V72.419H105.114V57.0034H109.002L109.258 58.1726C110.025 57.5572 111.841 56.7572 113.274 56.6957L113.606 56.6956ZM82.7331 53.6493L89.5624 55.0955V72.8193L84.5747 74.85V60.5421L79.3312 71.8654H76.5944L73.0392 61.3114L69.4326 72.3885H64.0868L70.072 53.6195L74.9062 52.0502L78.7941 62.1118L82.7331 53.6493ZM92.1713 57.4647C95.5987 56.757 103.374 54.5416 103.4 63.0648V72.4188H99.7935L99.5122 71.6803C99.5122 71.6803 98.2588 72.8188 95.5476 72.8188C92.5806 72.8188 91.0203 70.3572 91.0203 67.9879C91.0203 64.0802 93.8594 63.1571 97.0822 63.1571H99.3331C99.3331 61.557 98.5402 60.9724 96.8521 61.0031C94.4733 61.0031 92.5806 61.6493 92.1713 61.8031L92.1713 57.4647ZM99.3587 66.5726V66.4188L97.2357 66.388C95.5732 66.388 94.7803 66.6957 94.7803 67.7111C94.7803 68.7265 95.4709 69.1265 96.6475 69.1265C98.4123 69.1265 99.3587 68.3572 99.3587 66.5726ZM190.724 58.9417C192.054 57.4032 193.665 56.6647 195.609 56.6647C197.553 56.6647 199.19 57.4032 200.494 58.9417C201.825 60.4494 202.464 62.3879 202.464 64.7571C202.464 67.1264 201.799 69.0649 200.494 70.5419C199.19 72.0188 197.579 72.7573 195.609 72.7573C193.665 72.7573 192.028 72.0188 190.724 70.5419C189.419 69.0342 188.78 67.0957 188.78 64.7571C188.78 62.3879 189.419 60.4494 190.724 58.9417ZM195.609 68.2649C197.042 68.2649 198.218 66.8803 198.218 64.7571C198.218 62.6032 197.067 61.1878 195.609 61.1878C194.177 61.1878 193 62.634 193 64.7571C193.026 66.8802 194.177 68.2649 195.609 68.2649ZM183.127 56.6954C186.068 56.6954 187.322 58.6032 187.322 61.9571V72.3881H182.59V63.1571C182.59 62.2033 182.309 61.6494 181.695 61.6494C181.132 61.6494 180.032 61.8956 179.342 62.4802V72.4188H174.635V57.0032H178.523L178.779 58.1725C179.546 57.5571 181.362 56.7571 182.795 56.6955L183.127 56.6954ZM152.254 53.6491L159.083 55.0953V72.8191L154.096 74.8499V60.5419L148.827 71.8652H146.115L142.56 61.3112L138.954 72.3883H133.608L139.593 53.6193L144.427 52.05L148.315 62.1117L152.254 53.6491ZM161.667 57.4645C165.12 56.7568 172.895 54.5414 172.895 63.0647V72.4186H169.289L169.008 71.6801C169.008 71.6801 167.754 72.8186 165.043 72.8186C162.076 72.8186 160.516 70.3571 160.516 67.9878C160.516 64.0801 163.355 63.1569 166.578 63.1569H168.829C168.829 61.5569 168.036 60.9722 166.348 61.0029C163.969 61.0029 162.076 61.6491 161.667 61.803L161.667 57.4645ZM168.854 66.5724V66.4186L166.731 66.3878C165.069 66.3878 164.276 66.6955 164.276 67.7109C164.276 68.7263 164.966 69.1263 166.143 69.1263C167.908 69.1263 168.854 68.3571 168.854 66.5724Z" fill="#0C193A"/>
<defs>
<linearGradient id="paint0_linear_32967_5325" x1="736.39" y1="3025.44" x2="2852.39" y2="1014.25" gradientUnits="userSpaceOnUse">
<stop offset="0.00044188" stop-color="#0397A7"/>
<stop offset="0.9971" stop-color="#00ECCD"/>
</linearGradient>
</defs>
</svg>
