<svg width="226" height="125" viewBox="0 0 226 125" fill="none" xmlns="http://www.w3.org/2000/svg">
<path d="M91.6999 51.6949V74.5763H87.7331V56.6208H87.6802L80.5929 74.5763H77.9483L70.7023 56.6208H70.6494V74.5763H67V51.6949H72.7122L79.2706 68.6441H79.3764L86.305 51.6949H91.6999ZM94.9791 53.4428C94.9791 52.8072 95.1906 52.2775 95.6667 51.8538C96.1427 51.4301 96.6716 51.2182 97.3063 51.2182C97.9939 51.2182 98.5756 51.4301 98.9988 51.8538C99.4219 52.2775 99.6863 52.8072 99.6863 53.4428C99.6863 54.0784 99.4748 54.6081 98.9988 55.0318C98.5228 55.4555 97.9939 55.6674 97.3063 55.6674C96.6187 55.6674 96.0898 55.4555 95.6667 55.0318C95.2435 54.5551 94.9791 54.0254 94.9791 53.4428ZM99.2632 58.1568V74.5763H95.4022V58.1568H99.2632ZM110.952 71.7691C111.534 71.7691 112.169 71.6631 112.856 71.3453C113.544 71.0805 114.178 70.7097 114.76 70.286V73.8877C114.125 74.2585 113.438 74.5233 112.645 74.6822C111.851 74.8411 111.005 74.947 110.053 74.947C107.62 74.947 105.663 74.2055 104.182 72.6695C102.648 71.1335 101.908 69.1737 101.908 66.8432C101.908 64.1949 102.701 62.0233 104.235 60.3284C105.769 58.6335 107.937 57.786 110.793 57.786C111.534 57.786 112.274 57.8919 112.962 58.0508C113.702 58.2097 114.284 58.4746 114.707 58.6864V62.3941C114.125 61.9703 113.491 61.5996 112.909 61.3877C112.274 61.1758 111.64 61.0169 111.005 61.0169C109.471 61.0169 108.255 61.4936 107.303 62.5C106.351 63.5064 105.927 64.8305 105.927 66.5254C105.927 68.1674 106.403 69.4915 107.303 70.3919C108.202 71.2924 109.418 71.7691 110.952 71.7691ZM125.708 57.8919C126.026 57.8919 126.29 57.8919 126.555 57.9449C126.819 57.9979 127.031 58.0508 127.189 58.1038V62.0233C126.978 61.8644 126.713 61.7055 126.29 61.5996C125.867 61.4936 125.444 61.3877 124.862 61.3877C123.91 61.3877 123.117 61.8114 122.482 62.6059C121.847 63.4004 121.477 64.6186 121.477 66.3136V74.5763H117.616V58.1568H121.477V60.7521H121.53C121.9 59.8517 122.429 59.1631 123.117 58.6335C123.857 58.1568 124.704 57.8919 125.708 57.8919ZM127.401 66.6314C127.401 63.9301 128.194 61.7585 129.675 60.1695C131.209 58.5805 133.325 57.786 136.022 57.786C138.561 57.786 140.571 58.5275 141.999 60.0636C143.427 61.5996 144.167 63.6653 144.167 66.2606C144.167 68.9089 143.374 71.0275 141.893 72.6165C140.359 74.2055 138.296 75 135.652 75C133.113 75 131.103 74.2585 129.622 72.7754C128.141 71.2394 127.401 69.1737 127.401 66.6314ZM131.421 66.4725C131.421 68.1674 131.791 69.4915 132.584 70.3919C133.378 71.2924 134.488 71.7691 135.916 71.7691C137.292 71.7691 138.402 71.3453 139.143 70.3919C139.883 69.4915 140.253 68.1674 140.253 66.3665C140.253 64.6186 139.883 63.2945 139.143 62.3411C138.402 61.4407 137.292 60.964 135.969 60.964C134.541 60.964 133.483 61.4407 132.69 62.3941C131.791 63.4004 131.421 64.7246 131.421 66.4725ZM149.932 62.5C149.932 63.0297 150.091 63.5064 150.461 63.8242C150.831 64.1419 151.572 64.5127 152.788 64.9894C154.322 65.625 155.433 66.3136 156.015 67.0551C156.649 67.8496 156.967 68.75 156.967 69.8623C156.967 71.3983 156.385 72.6165 155.169 73.5699C154.005 74.5233 152.365 74.947 150.355 74.947C149.668 74.947 148.927 74.8411 148.081 74.6822C147.235 74.5233 146.547 74.3114 145.966 74.0466V70.2331C146.653 70.7097 147.446 71.1335 148.24 71.3983C149.033 71.6631 149.774 71.822 150.461 71.822C151.308 71.822 151.995 71.7161 152.365 71.4513C152.788 71.1864 153 70.8157 153 70.2331C153 69.7034 152.788 69.2797 152.365 68.8559C151.942 68.4852 151.096 68.0614 149.932 67.5847C148.504 67.0021 147.499 66.3136 146.918 65.572C146.336 64.8305 146.018 63.8771 146.018 62.7119C146.018 61.2288 146.6 60.0106 147.764 59.0572C148.927 58.1038 150.461 57.6271 152.312 57.6271C152.894 57.6271 153.529 57.6801 154.216 57.839C154.904 57.9979 155.539 58.1568 156.015 58.3157V62.0763C155.486 61.7585 154.904 61.4407 154.216 61.1758C153.529 60.911 152.841 60.8051 152.207 60.8051C151.466 60.8051 150.884 60.964 150.514 61.2288C150.144 61.5996 149.932 61.9703 149.932 62.5ZM158.606 66.6314C158.606 63.9301 159.4 61.7585 160.881 60.1695C162.415 58.5805 164.53 57.786 167.228 57.786C169.766 57.786 171.776 58.5275 173.204 60.0636C174.632 61.5996 175.373 63.6653 175.373 66.2606C175.373 68.9089 174.579 71.0275 173.098 72.6165C171.565 74.2055 169.502 75 166.857 75C164.319 75 162.309 74.2585 160.828 72.7754C159.4 71.2394 158.606 69.1737 158.606 66.6314ZM162.626 66.4725C162.626 68.1674 162.996 69.4915 163.79 70.3919C164.583 71.2924 165.694 71.7691 167.122 71.7691C168.497 71.7691 169.608 71.3453 170.348 70.3919C171.089 69.4915 171.459 68.1674 171.459 66.3665C171.459 64.6186 171.089 63.2945 170.348 62.3411C169.608 61.4407 168.497 60.964 167.175 60.964C165.747 60.964 164.689 61.4407 163.895 62.3941C163.049 63.4004 162.626 64.7246 162.626 66.4725ZM188.225 61.3347H182.46V74.5763H178.546V61.3347H175.796V58.1568H178.546V55.8792C178.546 54.1843 179.128 52.7542 180.239 51.6419C181.349 50.5297 182.777 50 184.523 50C184.999 50 185.422 50.053 185.792 50.053C186.162 50.053 186.48 50.1589 186.744 50.2648V53.6017C186.638 53.5487 186.374 53.4428 186.057 53.3369C185.739 53.2309 185.369 53.178 184.946 53.178C184.153 53.178 183.518 53.4428 183.095 53.9195C182.672 54.3962 182.46 55.1907 182.46 56.1441V58.1038H188.225V54.3962L192.086 53.2309V58.1038H196V61.2818H192.086V68.9619C192.086 69.9682 192.298 70.6568 192.615 71.0805C192.985 71.5042 193.567 71.7161 194.36 71.7161C194.572 71.7161 194.836 71.6631 195.154 71.5572C195.471 71.4513 195.736 71.3453 195.947 71.1864V74.3644C195.683 74.5233 195.312 74.6292 194.731 74.7352C194.149 74.8411 193.62 74.8941 193.038 74.8941C191.399 74.8941 190.182 74.4703 189.389 73.6229C188.595 72.7754 188.172 71.4513 188.172 69.7034L188.225 61.3347Z" fill="#737373"/>
<path d="M41.875 50H30V61.875H41.875V50Z" fill="#F25022"/>
<path d="M55.0001 50H43.1251V61.875H55.0001V50Z" fill="#7FBA00"/>
<path d="M41.875 63.125H30V75H41.875V63.125Z" fill="#00A4EF"/>
<path d="M55.0001 63.125H43.1251V75H55.0001V63.125Z" fill="#FFB900"/>
</svg>
