<svg width="226" height="125" viewBox="0 0 226 125" fill="none" xmlns="http://www.w3.org/2000/svg">
<path d="M145.714 73.3179H80.7415L85.9238 78.5001L145.714 73.3179Z" fill="#BF0000"/>
<path d="M156.142 70.0141V59.6498C156.142 57.7065 157.502 56.087 159.445 56.087C161.389 56.087 162.749 57.7065 162.749 59.6498V70.0141H166.765V59.6498C166.765 55.3745 163.85 51.9413 159.575 51.9413C157.632 51.9413 156.142 53.0425 156.142 53.0425V52.3299H152.126V69.9494H156.142V70.0141Z" fill="#BF0000"/>
<path d="M142.863 51.8766C138.199 51.8766 134.896 55.9576 134.896 61.1397C134.896 66.581 139.041 70.4029 143.252 70.4029C145.39 70.4029 148.046 69.6903 150.313 66.4515L146.75 64.3786C144.029 68.3948 139.43 66.3867 138.912 62.3057H150.442C151.479 56.0871 147.398 51.8766 142.863 51.8766ZM146.361 58.8725H139.171C140.013 54.7916 145.584 54.5325 146.361 58.8725Z" fill="#BF0000"/>
<path d="M133.601 65.8036C133.212 66.0627 132.759 66.257 132.241 66.257C131.593 66.257 130.362 65.7388 130.362 64.1194V56.5404H133.795V52.3299H130.362V47.925H126.346V52.3299H124.208V56.5404H126.346V64.1194C126.346 68.0708 129.326 70.4028 132.305 70.4028C133.407 70.4028 134.961 70.0141 136.192 69.3016L133.601 65.8036Z" fill="#BF0000"/>
<path d="M118.832 52.33V62.6943C118.832 64.6376 117.471 66.2571 115.528 66.2571C113.585 66.2571 112.224 64.6376 112.224 62.6943V52.33H108.208V62.6943C108.208 66.9696 111.123 70.4028 115.398 70.4028C117.342 70.4028 118.832 69.3016 118.832 69.3016V69.9494H122.848V52.33H118.832Z" fill="#BF0000"/>
<path d="M100.693 60.6215L107.56 52.33H101.989L97.1306 58.4838V46.5H93.0496V70.0142H97.1306V62.7591L103.09 70.0142H108.661L100.693 60.6215Z" fill="#BF0000"/>
<path d="M86.7655 52.33V53.1074C85.5347 52.33 84.4982 51.8766 83.0083 51.8766C78.4739 51.8766 74.9759 56.0223 74.9759 61.1397C74.9759 66.2571 78.4091 70.4029 83.0083 70.4029C84.4982 70.4029 85.5995 69.9495 86.7655 69.1721V69.9495H90.7817V52.33H86.7655ZM82.9436 66.1924C80.6763 66.1924 79.0569 63.9899 79.0569 61.2045C79.0569 58.4191 80.6763 56.2167 82.9436 56.2167C85.2108 56.2167 86.7655 58.4191 86.7655 61.2045C86.8302 63.9899 85.2108 66.1924 82.9436 66.1924Z" fill="#BF0000"/>
<path d="M63.4454 70.0141V63.1477H66.3604L71.4778 69.9493H76.7248L70.5061 61.7226C72.4495 60.3623 73.6802 58.0951 73.6802 55.504C73.6802 51.2935 70.247 47.925 66.1012 47.925H59.2348V69.9493H63.4454V70.0141ZM63.4454 52.1356H66.166C68.0446 52.1356 69.5992 53.6902 69.5992 55.5688C69.5992 57.4473 68.0446 59.002 66.166 59.002H63.4454V52.1356Z" fill="#BF0000"/>
</svg>
