<svg width="20" height="20" viewBox="0 0 20 20" fill="none" xmlns="http://www.w3.org/2000/svg">
<g clip-path="url(#clip0_39734_35174)">
<path d="M9.8 0C4.38732 0 0 4.38732 0 9.8C0 12.5059 1.09706 14.9559 2.87013 16.7299L1.00359 18.5964C0.633371 18.9666 0.895611 19.6 1.41919 19.6H9.8C15.2127 19.6 19.6 15.2127 19.6 9.8C19.6 4.38732 15.2127 0 9.8 0Z" fill="#FF4500"/>
<path d="M15.3552 11.9959C16.619 11.9959 17.6436 10.9713 17.6436 9.70745C17.6436 8.44355 16.619 7.41896 15.3552 7.41896C14.0913 7.41896 13.0667 8.44355 13.0667 9.70745C13.0667 10.9713 14.0913 11.9959 15.3552 11.9959Z" fill="url(#paint0_radial_39734_35174)"/>
<path d="M4.24485 11.9959C5.50875 11.9959 6.53333 10.9713 6.53333 9.70745C6.53333 8.44355 5.50875 7.41896 4.24485 7.41896C2.98096 7.41896 1.95637 8.44355 1.95637 9.70745C1.95637 10.9713 2.98096 11.9959 4.24485 11.9959Z" fill="url(#paint1_radial_39734_35174)"/>
<path d="M9.80545 16.5729C13.4137 16.5729 16.3388 14.3791 16.3388 11.6729C16.3388 8.96669 13.4137 6.77289 9.80545 6.77289C6.19718 6.77289 3.27211 8.96669 3.27211 11.6729C3.27211 14.3791 6.19718 16.5729 9.80545 16.5729Z" fill="url(#paint2_radial_39734_35174)"/>
<path d="M7.87448 11.2047C7.83637 12.0286 7.28557 12.328 6.64404 12.328C6.0025 12.328 5.51341 11.8807 5.55152 11.0568C5.58963 10.2328 6.14043 9.69383 6.78196 9.69383C7.4235 9.69383 7.91259 10.3816 7.87448 11.2056V11.2047Z" fill="url(#paint3_radial_39734_35174)"/>
<path d="M11.7373 11.2047C11.7754 12.0286 12.3262 12.328 12.9678 12.328C13.6093 12.328 14.0984 11.8807 14.0603 11.0568C14.0222 10.2328 13.4714 9.69383 12.8298 9.69383C12.1883 9.69383 11.6992 10.3816 11.7373 11.2056V11.2047Z" fill="url(#paint4_radial_39734_35174)"/>
<path d="M7.22569 10.8363C7.36601 10.8363 7.47976 10.7124 7.47976 10.5595C7.47976 10.4067 7.36601 10.2827 7.22569 10.2827C7.08536 10.2827 6.97161 10.4067 6.97161 10.5595C6.97161 10.7124 7.08536 10.8363 7.22569 10.8363Z" fill="#FFC49C"/>
<path d="M13.2672 10.8363C13.4075 10.8363 13.5213 10.7124 13.5213 10.5595C13.5213 10.4067 13.4075 10.2827 13.2672 10.2827C13.1269 10.2827 13.0131 10.4067 13.0131 10.5595C13.0131 10.7124 13.1269 10.8363 13.2672 10.8363Z" fill="#FFC49C"/>
<path d="M9.80545 12.9687C9.01056 12.9687 8.24833 13.0077 7.54419 13.0794C7.4235 13.0912 7.34728 13.2164 7.39446 13.328C7.78919 14.2708 8.72019 14.9332 9.80545 14.9332C10.8907 14.9332 11.8226 14.2708 12.2164 13.328C12.2636 13.2164 12.1865 13.0912 12.0667 13.0794C11.3616 13.0077 10.6003 12.9687 9.80545 12.9687Z" fill="url(#paint5_radial_39734_35174)"/>
<path d="M13.3834 6.10685C14.2789 6.10685 15.0049 5.38087 15.0049 4.48532C15.0049 3.58976 14.2789 2.86378 13.3834 2.86378C12.4878 2.86378 11.7618 3.58976 11.7618 4.48532C11.7618 5.38087 12.4878 6.10685 13.3834 6.10685Z" fill="url(#paint6_radial_39734_35174)"/>
<path d="M9.78185 6.97978C9.58767 6.97978 9.43069 6.89902 9.43069 6.7738C9.43069 5.32104 10.613 4.13869 12.0658 4.13869C12.26 4.13869 12.417 4.29567 12.417 4.48985C12.417 4.68404 12.26 4.84102 12.0658 4.84102C11.0005 4.84102 10.1339 5.70759 10.1339 6.77289C10.1339 6.89811 9.97695 6.97887 9.78276 6.97887L9.78185 6.97978Z" fill="url(#paint7_radial_39734_35174)"/>
<path d="M5.70033 11.1294C5.73572 10.3526 6.25204 9.84446 6.85183 9.84446C7.41987 9.84446 7.85906 10.4243 7.87539 11.1448C7.89082 10.339 7.40989 9.69383 6.78196 9.69383C6.15404 9.69383 5.58963 10.2428 5.55152 11.0731C5.51341 11.9034 6.0025 12.328 6.64404 12.328C6.65946 12.328 6.6758 12.328 6.69122 12.328C6.10685 12.3135 5.66585 11.8934 5.70124 11.1303L5.70033 11.1294Z" fill="#842123"/>
<path d="M13.9106 11.1294C13.8752 10.3526 13.3589 9.84446 12.7591 9.84446C12.191 9.84446 11.7518 10.4243 11.7355 11.1448C11.7201 10.339 12.201 9.69383 12.8289 9.69383C13.4705 9.69383 14.0213 10.2428 14.0594 11.0731C14.0975 11.9034 13.6084 12.328 12.9669 12.328C12.9514 12.328 12.9351 12.328 12.9197 12.328C13.504 12.3135 13.945 11.8934 13.9096 11.1303L13.9106 11.1294Z" fill="#842123"/>
</g>
<defs>
<radialGradient id="paint0_radial_39734_35174" cx="0" cy="0" r="1" gradientUnits="userSpaceOnUse" gradientTransform="translate(10.0059 3.91895) scale(19.8098 17.2346)">
<stop stop-color="#FEFFFF"/>
<stop offset="0.4" stop-color="#FEFFFF"/>
<stop offset="0.51" stop-color="#F9FCFC"/>
<stop offset="0.62" stop-color="#EDF3F5"/>
<stop offset="0.7" stop-color="#DEE9EC"/>
<stop offset="0.72" stop-color="#D8E4E8"/>
<stop offset="0.76" stop-color="#CCD8DF"/>
<stop offset="0.8" stop-color="#C8D5DD"/>
<stop offset="0.83" stop-color="#CCD6DE"/>
<stop offset="0.85" stop-color="#D8DBE2"/>
<stop offset="0.88" stop-color="#EDE3E9"/>
<stop offset="0.9" stop-color="#FFEBEF"/>
</radialGradient>
<radialGradient id="paint1_radial_39734_35174" cx="0" cy="0" r="1" gradientUnits="userSpaceOnUse" gradientTransform="translate(10.0059 -27.0782) scale(19.8098 17.2346)">
<stop stop-color="#FEFFFF"/>
<stop offset="0.4" stop-color="#FEFFFF"/>
<stop offset="0.51" stop-color="#F9FCFC"/>
<stop offset="0.62" stop-color="#EDF3F5"/>
<stop offset="0.7" stop-color="#DEE9EC"/>
<stop offset="0.72" stop-color="#D8E4E8"/>
<stop offset="0.76" stop-color="#CCD8DF"/>
<stop offset="0.8" stop-color="#C8D5DD"/>
<stop offset="0.83" stop-color="#CCD6DE"/>
<stop offset="0.85" stop-color="#D8DBE2"/>
<stop offset="0.88" stop-color="#EDE3E9"/>
<stop offset="0.9" stop-color="#FFEBEF"/>
</radialGradient>
<radialGradient id="paint2_radial_39734_35174" cx="0" cy="0" r="1" gradientUnits="userSpaceOnUse" gradientTransform="translate(10.011 1.96599) scale(20.9312 19.5358)">
<stop stop-color="#FEFFFF"/>
<stop offset="0.4" stop-color="#FEFFFF"/>
<stop offset="0.51" stop-color="#F9FCFC"/>
<stop offset="0.62" stop-color="#EDF3F5"/>
<stop offset="0.7" stop-color="#DEE9EC"/>
<stop offset="0.72" stop-color="#D8E4E8"/>
<stop offset="0.76" stop-color="#CCD8DF"/>
<stop offset="0.8" stop-color="#C8D5DD"/>
<stop offset="0.83" stop-color="#CCD6DE"/>
<stop offset="0.85" stop-color="#D8DBE2"/>
<stop offset="0.88" stop-color="#EDE3E9"/>
<stop offset="0.9" stop-color="#FFEBEF"/>
</radialGradient>
<radialGradient id="paint3_radial_39734_35174" cx="0" cy="0" r="1" gradientUnits="userSpaceOnUse" gradientTransform="translate(10.3115 13.9651) scale(10.5081 13.4476)">
<stop stop-color="#FF6600"/>
<stop offset="0.5" stop-color="#FF4500"/>
<stop offset="0.7" stop-color="#FC4301"/>
<stop offset="0.82" stop-color="#F43F07"/>
<stop offset="0.92" stop-color="#E53812"/>
<stop offset="1" stop-color="#D4301F"/>
</radialGradient>
<radialGradient id="paint4_radial_39734_35174" cx="0" cy="0" r="1" gradientUnits="userSpaceOnUse" gradientTransform="translate(9.35559 13.9651) rotate(180) scale(10.5081 13.4476)">
<stop stop-color="#FF6600"/>
<stop offset="0.5" stop-color="#FF4500"/>
<stop offset="0.7" stop-color="#FC4301"/>
<stop offset="0.82" stop-color="#F43F07"/>
<stop offset="0.92" stop-color="#E53812"/>
<stop offset="1" stop-color="#D4301F"/>
</radialGradient>
<radialGradient id="paint5_radial_39734_35174" cx="0" cy="0" r="1" gradientUnits="userSpaceOnUse" gradientTransform="translate(9.75251 22.3373) scale(16.6112 27.067)">
<stop stop-color="#172E35"/>
<stop offset="0.29" stop-color="#0E1C21"/>
<stop offset="0.73" stop-color="#030708"/>
<stop offset="1"/>
</radialGradient>
<radialGradient id="paint6_radial_39734_35174" cx="0" cy="0" r="1" gradientUnits="userSpaceOnUse" gradientTransform="translate(10.0139 0.691649) scale(21.8101 21.3739)">
<stop stop-color="#FEFFFF"/>
<stop offset="0.4" stop-color="#FEFFFF"/>
<stop offset="0.51" stop-color="#F9FCFC"/>
<stop offset="0.62" stop-color="#EDF3F5"/>
<stop offset="0.7" stop-color="#DEE9EC"/>
<stop offset="0.72" stop-color="#D8E4E8"/>
<stop offset="0.76" stop-color="#CCD8DF"/>
<stop offset="0.8" stop-color="#C8D5DD"/>
<stop offset="0.83" stop-color="#CCD6DE"/>
<stop offset="0.85" stop-color="#D8DBE2"/>
<stop offset="0.88" stop-color="#EDE3E9"/>
<stop offset="0.9" stop-color="#FFEBEF"/>
</radialGradient>
<radialGradient id="paint7_radial_39734_35174" cx="0" cy="0" r="1" gradientUnits="userSpaceOnUse" gradientTransform="translate(16.3065 17.1962) scale(19.4154 20.4075)">
<stop offset="0.48" stop-color="#7A9299"/>
<stop offset="0.67" stop-color="#172E35"/>
<stop offset="0.75"/>
<stop offset="0.82" stop-color="#172E35"/>
</radialGradient>
<clipPath id="clip0_39734_35174">
<rect width="19.6" height="19.6" rx="1.63333" fill="white"/>
</clipPath>
</defs>
</svg>
