<svg width="20" height="20" viewBox="0 0 20 20" fill="none" xmlns="http://www.w3.org/2000/svg">
<rect width="19.6" height="19.6" rx="2.45" fill="url(#paint0_radial_39734_35176)"/>
<path d="M8.44155 8.32672V7.78681C8.25335 7.75905 8.06516 7.74671 7.87388 7.74671C5.55691 7.74362 3.67188 9.62866 3.67188 11.9487C3.67188 13.3216 4.34136 14.605 5.46744 15.3918C4.74243 14.6143 4.33827 13.5931 4.33827 12.5287C4.33827 10.2426 6.17086 8.37917 8.44155 8.32672Z" fill="#25F4EE"/>
<path d="M8.54335 14.4477C9.57379 14.4446 10.4191 13.6301 10.4592 12.5997L10.4623 3.44598H12.1345C12.0975 3.2547 12.082 3.06033 12.082 2.86597H9.79901L9.79284 12.0197C9.75582 13.0779 8.86729 13.9047 7.80908 13.8677C7.52216 13.8584 7.23832 13.7813 6.98534 13.6486C7.34322 14.1484 7.92323 14.4477 8.54335 14.4477Z" fill="#25F4EE"/>
<path d="M15.2598 6.55275V6.0437C14.6458 6.0437 14.0442 5.86476 13.529 5.52847C13.9794 6.04987 14.5872 6.40775 15.2598 6.55275Z" fill="#25F4EE"/>
<path d="M13.529 5.52847C13.0261 4.95155 12.7484 4.2111 12.7484 3.44598H12.1376C12.2949 4.30057 12.7978 5.05336 13.529 5.52847Z" fill="#FE2C55"/>
<path d="M7.87696 10.0267C6.81566 10.0267 5.95799 10.8843 5.95799 11.9456C5.95799 12.6614 6.35289 13.3154 6.98843 13.6456C6.36523 12.791 6.55342 11.597 7.40493 10.9738C7.89547 10.6159 8.53102 10.511 9.11103 10.6961V8.36374C8.92284 8.33598 8.73464 8.32364 8.54336 8.32364C8.50942 8.32364 8.47857 8.32672 8.44463 8.32672V10.1161C8.25952 10.0575 8.06824 10.0267 7.87696 10.0267Z" fill="#FE2C55"/>
<path d="M15.2598 6.55275L15.2598 8.32672C14.1183 8.32672 13.0076 7.97192 12.082 7.30553V11.9487C12.082 14.2688 10.197 16.1538 7.87696 16.1538C7.01311 16.1538 6.17395 15.8885 5.46744 15.3918C6.26033 16.2464 7.37408 16.7338 8.54336 16.7338C10.8603 16.7338 12.7484 14.8488 12.7484 12.5287V7.88554C13.674 8.55193 14.7847 8.90981 15.9262 8.90673V6.6237C15.701 6.6237 15.4788 6.59903 15.2598 6.55275Z" fill="#FE2C55"/>
<path d="M12.082 11.9487V7.30553C13.0076 7.97192 14.1183 8.3298 15.2598 8.32672L15.2598 6.55275C14.5872 6.40775 13.9794 6.04987 13.529 5.52847C12.7978 5.05336 12.2949 4.30057 12.1345 3.44598H10.4623L10.4592 12.5997C10.4222 13.6579 9.53369 14.4847 8.47548 14.4477C7.88313 14.4261 7.33088 14.133 6.98534 13.6486C6.04744 13.1581 5.6834 11.9981 6.17394 11.0571C6.50406 10.4246 7.1612 10.0266 7.87387 10.0266C8.06515 10.0266 8.25643 10.0575 8.44154 10.1161L8.44155 8.32672C6.17086 8.38225 4.33827 10.2457 4.33827 12.5318C4.33827 13.5962 4.74242 14.6174 5.46744 15.3948C6.17394 15.8916 7.01311 16.1569 7.87696 16.1569C10.1939 16.1538 12.082 14.2657 12.082 11.9487Z" fill="white"/>
<defs>
<radialGradient id="paint0_radial_39734_35176" cx="0" cy="0" r="1" gradientUnits="userSpaceOnUse" gradientTransform="translate(9.8 9.8) rotate(90) scale(9.8)">
<stop stop-color="#2A1216"/>
<stop offset="1" stop-color="#1A1720"/>
</radialGradient>
</defs>
</svg>
