<svg width="18" height="18" viewBox="0 0 18 18" fill="currentColor" xmlns="http://www.w3.org/2000/svg">
<path fill-rule="evenodd" clip-rule="evenodd" d="M0 3C0 2.44772 0.447715 2 1 2H17C17.5523 2 18 2.44772 18 3C18 3.55228 17.5523 4 17 4H1C0.447715 4 0 3.55228 0 3ZM8.29289 7.29289C8.68342 6.90237 9.31658 6.90237 9.70711 7.29289L16.7071 14.2929C17.0976 14.6834 17.0976 15.3166 16.7071 15.7071C16.3166 16.0976 15.6834 16.0976 15.2929 15.7071L9 9.41421L2.70711 15.7071C2.31658 16.0976 1.68342 16.0976 1.29289 15.7071C0.902369 15.3166 0.902369 14.6834 1.29289 14.2929L8.29289 7.29289Z" />
</svg>
