<svg width="16" height="16" viewBox="0 0 16 16" fill="none" xmlns="http://www.w3.org/2000/svg">
<g clip-path="url(#clip0_38936_14437)">
<path d="M5.33317 2.66663C5.33317 2.48982 5.26288 2.3203 5.13786 2.19527C5.01283 2.07025 4.84332 1.99996 4.6665 1.99996H2.6665C2.48969 1.99996 2.32017 2.07025 2.19515 2.19527C2.07013 2.3203 1.99984 2.48981 1.99984 2.66663C1.99984 5.67241 3.19409 8.55489 5.3195 10.6803C7.44491 12.8057 10.3274 14 13.3332 14C13.51 14 13.6795 13.9297 13.8045 13.8046C13.9296 13.6796 13.9998 13.5101 13.9998 13.3333V11.3333C13.9998 11.1565 13.9296 10.987 13.8045 10.8619C13.6795 10.7369 13.51 10.6666 13.3332 10.6666H11.3332C11.2297 10.6666 11.1276 10.6907 11.035 10.7369C10.9424 10.7832 10.8621 10.8508 10.8 10.9336L10.7967 10.9381L10.5597 11.2467C10.3762 11.4877 10.1167 11.6596 9.82275 11.733C9.52883 11.8065 9.21853 11.7774 8.9432 11.651C8.93804 11.6486 8.93266 11.6463 8.92757 11.6438C6.94365 10.6702 5.33803 9.06662 4.36182 7.08394L4.36051 7.08134C4.22563 6.80459 4.19065 6.48966 4.26156 6.19006C4.33252 5.8904 4.50509 5.62436 4.74984 5.43746L4.75439 5.4342L5.06624 5.19983C5.14904 5.13773 5.21657 5.05737 5.26286 4.9648C5.30914 4.87223 5.33317 4.77012 5.33317 4.66663V2.66663ZM6.6665 4.66663C6.6665 4.97712 6.59442 5.28345 6.45557 5.56116C6.31671 5.83887 6.11477 6.08059 5.86637 6.26689L5.55843 6.4967C6.40195 8.20903 7.7876 9.59441 9.49919 10.4388L9.73291 10.1334L9.80583 10.0423C9.98064 9.83547 10.1957 9.66569 10.4386 9.54423C10.7164 9.40537 11.0227 9.33329 11.3332 9.33329H13.3332C13.8636 9.33329 14.3722 9.54416 14.7472 9.91923C15.1223 10.2943 15.3332 10.8029 15.3332 11.3333V13.3333C15.3332 13.8637 15.1223 14.3723 14.7472 14.7474C14.3722 15.1224 13.8636 15.3333 13.3332 15.3333C9.97376 15.3333 6.75225 13.9985 4.37679 11.623C2.00133 9.24755 0.666504 6.02603 0.666504 2.66663C0.666504 2.13619 0.877369 1.62764 1.25244 1.25256C1.62751 0.877491 2.13607 0.666626 2.6665 0.666626H4.6665C5.19694 0.666626 5.70549 0.877491 6.08057 1.25256C6.45564 1.62764 6.6665 2.13619 6.6665 2.66663V4.66663Z" fill="white"/>
</g>
<defs>
<clipPath id="clip0_38936_14437">
<rect width="16" height="16" fill="white"/>
</clipPath>
</defs>
</svg>
