<svg width="16" height="16" viewBox="0 0 16 16" fill="none" xmlns="http://www.w3.org/2000/svg">
<g clip-path="url(#clip0_28909_46932)">
<path d="M7.46516 0.666661C6.71843 0.666661 6.25305 0.631931 5.75813 0.884109C5.38187 1.07581 5.07484 1.38285 4.88313 1.75911C4.63095 2.25402 4.66568 2.71941 4.66568 3.46614V4.66666H3.46516C2.71843 4.66666 2.25305 4.63193 1.75813 4.88411C1.38187 5.07581 1.07484 5.38285 0.883132 5.75911C0.630955 6.25402 0.665684 6.71941 0.665684 7.46614V12.5338C0.665684 13.2806 0.630935 13.7459 0.883132 14.2409C1.07483 14.6171 1.38179 14.9242 1.75813 15.1159C2.25305 15.3681 2.71842 15.3333 3.46516 15.3333H8.53287C9.2796 15.3333 9.74497 15.3681 10.2399 15.1159C10.6162 14.9242 10.9232 14.6172 11.1149 14.2409C11.3671 13.7459 11.3323 13.2806 11.3323 12.5338V11.3333H12.5329C13.2796 11.3333 13.745 11.3681 14.2399 11.1159C14.6162 10.9242 14.9232 10.6172 15.1149 10.2409C15.3671 9.74594 15.3323 9.28058 15.3323 8.53385V3.46614C15.3323 2.71941 15.3671 2.25403 15.1149 1.75911C14.9232 1.38277 14.6161 1.07581 14.2399 0.884109C13.745 0.631912 13.2796 0.666661 12.5329 0.666661H7.46516ZM7.46516 1.99999H12.5329C13.2796 1.99999 13.559 2.03445 13.6344 2.07291C13.7599 2.13687 13.8622 2.23914 13.9261 2.36458C13.9646 2.44008 13.999 2.71941 13.999 3.46614V8.53385C13.999 9.28058 13.9646 9.55995 13.9261 9.63541C13.8622 9.76085 13.7599 9.86317 13.6344 9.92708C13.559 9.96553 13.2796 9.99999 12.5329 9.99999H11.3323V7.46614C11.3323 6.71941 11.3671 6.25403 11.1149 5.75911C10.9232 5.38277 10.6161 5.07581 10.2399 4.88411C9.74497 4.63191 9.2796 4.66666 8.53287 4.66666H5.99902V3.46614C5.99902 2.71941 6.03346 2.44009 6.07193 2.36458C6.13588 2.23907 6.23809 2.13686 6.3636 2.07291C6.43911 2.03444 6.71843 1.99999 7.46516 1.99999ZM3.46516 5.99999H5.33235H8.53287C9.2796 5.99999 9.55896 6.03445 9.63443 6.07291C9.75995 6.13687 9.8622 6.23914 9.9261 6.36458C9.96458 6.44008 9.99902 6.71941 9.99902 7.46614V10.6667V12.5338C9.99902 13.2806 9.96456 13.5599 9.9261 13.6354C9.8622 13.7608 9.75987 13.8632 9.63443 13.9271C9.55897 13.9655 9.2796 14 8.53287 14H3.46516C2.71842 14 2.43911 13.9656 2.3636 13.9271C2.23817 13.8632 2.13589 13.7609 2.07193 13.6354C2.03348 13.5599 1.99902 13.2806 1.99902 12.5338V7.46614C1.99902 6.71941 2.03346 6.44009 2.07193 6.36458C2.13588 6.23907 2.23809 6.13686 2.3636 6.07291C2.43911 6.03443 2.71843 5.99999 3.46516 5.99999Z" fill="#575D60"/>
</g>
<defs>
<clipPath id="clip0_28909_46932">
<rect width="16" height="16" fill="white"/>
</clipPath>
</defs>
</svg>
