<svg xmlns="http://www.w3.org/2000/svg" width="24" height="24" fill="currentColor" viewBox="0 0 24 24">
  <path d="M22 12c0 5.51-4.457 9.98-9.964 10l4.185-7.248a5.016 5.016 0 0 0 .818-2.753c0-.953-.265-1.843-.724-2.603h4.842c.169 0 .329-.034.474-.096.24.859.369 1.764.369 2.7Zm-1.354-5.028A9.996 9.996 0 0 0 12 2a9.972 9.972 0 0 0-7.293 3.157c.094.08.175.177.24.289l2.515 4.357a5.04 5.04 0 0 1 4.889-2.831h8.295ZM2 12c0 4.732 3.287 8.696 7.702 9.735.022-.125.065-.249.132-.365l2.508-4.343a5.036 5.036 0 0 1-4.61-2.347 1.12 1.12 0 0 1-.11-.157L3.308 7.052A9.954 9.954 0 0 0 2 12Zm12.434 1.403a.946.946 0 0 1 .059-.091 2.818 2.818 0 1 0-.16.266l.1-.175Z"/>
</svg>
