<svg width="14" height="14" viewBox="0 0 14 14" fill="currentColor" xmlns="http://www.w3.org/2000/svg">
<g id="Group">
<path id="Vector" d="M12.5 7C12.5 10.0375 10.0375 12.5 7 12.5C3.96187 12.5 1.5 10.0375 1.5 7C1.5 3.96187 3.96187 1.5 7 1.5C10.0375 1.5 12.5 3.96187 12.5 7ZM13.5 7C13.5 3.41 10.5894 0.5 7 0.5C3.41 0.5 0.5 3.41 0.5 7C0.5 10.5894 3.41 13.5 7 13.5C10.5894 13.5 13.5 10.5894 13.5 7Z" />
<path id="Vector_2" d="M4.00006 7C4.00006 9.39938 4.83756 11.6337 6.27568 13.1831C6.64193 13.5819 7.26568 13.6081 7.66631 13.2394C7.68631 13.2206 7.70568 13.2006 7.72443 13.1806C9.16068 11.6325 9.99881 9.39875 9.99881 6.99875C9.99881 4.59875 9.16068 2.36438 7.72256 0.815C7.35568 0.415625 6.73193 0.389375 6.33131 0.758125C6.31068 0.77625 6.29131 0.79625 6.27256 0.81625C4.83568 2.36375 3.99756 4.5975 3.99756 6.9975L4.00006 7ZM5.00006 7C5.00006 4.84688 5.74631 2.85688 7.00881 1.49688C7.01006 1.495 7.00943 1.49563 7.00943 1.49563C7.00318 1.50063 6.99443 1.5 6.98881 1.49438C8.25256 2.85625 8.99881 4.84625 8.99881 6.99875C8.99881 9.15125 8.25193 11.1413 6.98943 12.5013C6.98756 12.5025 6.98818 12.5019 6.98818 12.5019C6.99381 12.4963 7.00256 12.4969 7.00818 12.5025C5.74381 11.14 4.99756 9.15 4.99756 6.9975L5.00006 7Z" />
<path id="Vector_3" d="M1 7.5H13C13.2756 7.5 13.5 7.27562 13.5 7C13.5 6.72375 13.2756 6.5 13 6.5H1C0.72375 6.5 0.5 6.72375 0.5 7C0.5 7.27562 0.72375 7.5 1 7.5Z"/>
</g>
</svg>
