<svg width="24" height="24" viewBox="0 0 24 24" fill="none" xmlns="http://www.w3.org/2000/svg">
<path d="M8.38443 14.9358C11.7116 8.60273 15.2487 4.05148 17.8056 1.54654C18.2655 1.09606 18.9681 1.6058 18.7792 2.22118C17.3506 6.87573 16.3643 14.2432 15.9234 17.7828C15.8763 18.1613 15.5058 18.4091 15.1376 18.31L9.16565 16.7021C8.39987 16.496 8.01559 15.6379 8.38443 14.9358Z" fill="#7EC9FF"/>
<path d="M13.8063 18.0716C13.7401 13.7537 14.1662 10.2349 14.6231 7.86502C14.8166 6.86129 16.046 6.62695 16.6051 7.48268C18.3637 10.174 19.5423 12.8826 20.1448 15.3685C20.2677 15.8757 20.0353 16.3965 19.5908 16.67L15.6783 19.0779C14.867 19.5771 13.8209 19.024 13.8063 18.0716Z" fill="#1A93EB"/>
<path d="M4.54269 17.8982C4.07413 17.4769 4.49208 16.711 5.09991 16.8771L20.2967 21.03C20.9227 21.2011 21.0737 22.0199 20.5499 22.403C19.8178 22.9385 18.9313 23.2212 18.0244 23.2086L11.1864 23.113C10.6337 23.1053 10.1026 22.8974 9.69161 22.5278L4.54269 17.8982Z" fill="#1B5BBC"/>
</svg>
