<svg xmlns="http://www.w3.org/2000/svg" width="24" height="24" fill="currentColor" viewBox="0 0 24 24">
  <path d="M12 2a1 1 0 0 0-1 1v9.586L7.707 9.293a1 1 0 0 0-1.414 1.414l5 5a1 1 0 0 0 1.414 0l5-5a1 1 0 0 0-1.414-1.414L13 12.586V3a1 1 0 0 0-1-1ZM3 14a1 1 0 0 0-1 1v1.2c0 1.68-.052 2.66.436 3.616a4 4 0 0 0 1.748 1.748C5.14 22.052 6.12 22 7.8 22h8.398c1.68 0 2.661.052 3.617-.436a4 4 0 0 0 1.748-1.748c.488-.956.436-1.937.436-3.617V15a1 1 0 0 0-2 0v1.2c0 1.68-.052 2.38-.219 2.708a1.994 1.994 0 0 1-.873.873c-.327.167-1.029.219-2.709.219H7.801c-1.68 0-2.382-.052-2.71-.219a1.995 1.995 0 0 1-.872-.873C4.052 18.581 4 17.88 4 16.2V15a1 1 0 0 0-1-1Z"/>
</svg>
