<svg width="16" height="16" viewBox="0 0 16 16" fill="none" xmlns="http://www.w3.org/2000/svg">
<path d="M8.76223 3.42865C8.76223 3.00786 8.42111 2.66675 8.00033 2.66675C7.57954 2.66675 7.23842 3.00786 7.23842 3.42865V7.23818H3.4289C3.00811 7.23818 2.66699 7.57929 2.66699 8.00008C2.66699 8.42087 3.00811 8.76199 3.4289 8.76199H7.23842V12.5715C7.23842 12.9923 7.57954 13.3334 8.00033 13.3334C8.42111 13.3334 8.76223 12.9923 8.76223 12.5715V8.76199H12.5718C12.9925 8.76199 13.3337 8.42087 13.3337 8.00008C13.3337 7.57929 12.9925 7.23818 12.5718 7.23818H8.76223V3.42865Z" fill="currentColor"/>
</svg>
