<svg xmlns="http://www.w3.org/2000/svg" width="24" height="24" fill="currentColor" viewBox="0 0 24 24">
  <path d="M10.382 2.712a1.5 1.5 0 0 1 1.258.521c.279.327.324.72.341.91.02.224.019.506.019.789v14.136c0 .283.001.564-.018.787-.018.191-.062.586-.341.913l-.001-.001a1.5 1.5 0 0 1-1.257.521h-.001c-.429-.034-.738-.28-.885-.403-.172-.144-.37-.344-.57-.544l-3.165-3.165a5.87 5.87 0 0 0-.175-.171l-.004-.003h-.002C5.534 17 5.468 17 5.337 17H3.6c-.264 0-.522.001-.739-.017a2.021 2.021 0 0 1-.77-.2 2 2 0 0 1-.873-.875 2.025 2.025 0 0 1-.201-.77C.999 14.92 1 14.663 1 14.399V9.6c0-.263-.001-.52.017-.738.018-.228.063-.498.2-.77a2 2 0 0 1 .875-.873c.271-.138.54-.183.77-.201C3.077 6.999 3.335 7 3.6 7h1.737c.13 0 .197 0 .244-.003l.006-.002a5.98 5.98 0 0 0 .175-.17l3.165-3.167c.2-.2.398-.399.57-.543.147-.123.456-.37.885-.403ZM21 12c0-2.396-.765-4.61-2.064-6.416a1 1 0 1 1 1.624-1.168A12.946 12.946 0 0 1 23 12c0 2.829-.905 5.45-2.44 7.584a1 1 0 0 1-1.623-1.168A10.945 10.945 0 0 0 21 12Zm-5 0a5.968 5.968 0 0 0-1.075-3.428 1 1 0 0 1 1.64-1.144A7.968 7.968 0 0 1 18 12c0 1.698-.53 3.276-1.435 4.572a1 1 0 0 1-1.64-1.144A5.967 5.967 0 0 0 16 12ZM3 14.4c0 .296.001.459.01.576l.002.011.012.002c.117.01.28.011.576.011h1.737c.197 0 .46-.006.717.056h-.001c.153.036.3.09.44.162l.138.077.16.111c.153.118.28.251.385.356L10 18.585V5.415L7.176 8.237c-.14.14-.32.329-.545.467a2 2 0 0 1-.578.24c-.257.061-.52.055-.716.055H3.6c-.297 0-.459 0-.576.01h-.012l-.001.014C3 9.141 3 9.304 3 9.6v4.8Z"/>
</svg>
