<svg xmlns="http://www.w3.org/2000/svg" width="18" height="18" fill="currentColor" viewBox="0 0 18 18">
  <g clip-path="url(#a)">
    <path d="M.933 14.09c0-.614.377-1.088.796-1.417.429-.336 1.006-.611 1.659-.832a.7.7 0 0 1 .449 1.326c-.575.194-.988.406-1.242.606a.976.976 0 0 0-.23.238c-.032.052-.032.076-.032.08 0 .004 0 .031.037.088.04.063.12.152.26.256.286.213.744.435 1.372.633 1.248.394 3.015.649 4.998.649s3.75-.255 4.999-.649c.628-.198 1.086-.42 1.371-.633.14-.104.22-.193.26-.256.038-.057.038-.084.038-.088 0-.004 0-.028-.032-.08a.974.974 0 0 0-.23-.238c-.19-.15-.47-.306-.84-.458l-.402-.148-.129-.059a.7.7 0 0 1 .44-1.298l.138.03.242.086c.553.205 1.042.453 1.416.747.42.33.797.803.797 1.418 0 .644-.413 1.132-.86 1.466-.46.343-1.082.624-1.787.846-1.418.448-3.335.714-5.421.714-2.085 0-4.002-.266-5.42-.714-.705-.222-1.327-.503-1.787-.846-.448-.335-.86-.822-.86-1.466ZM13.07 6.356a4.072 4.072 0 0 0-8.142 0c0 .577.19 1.259.534 1.985.34.72.81 1.44 1.318 2.086a11.143 11.143 0 0 0 1.494 1.579c.228.191.422.33.574.416.073.042.123.062.151.073a.962.962 0 0 0 .152-.072 4.06 4.06 0 0 0 .574-.415c.453-.38.985-.93 1.493-1.573 1.043-1.323 1.852-2.876 1.852-4.079Zm-2.93 0a1.141 1.141 0 1 0-2.282 0 1.141 1.141 0 0 0 2.283 0Zm1.401 0a2.541 2.541 0 1 1-5.083 0 2.541 2.541 0 0 1 5.083 0Zm2.929 0c0 1.696-1.067 3.568-2.154 4.946a12.425 12.425 0 0 1-1.691 1.778 5.428 5.428 0 0 1-.782.56c-.225.128-.528.266-.844.266-.317 0-.62-.139-.846-.267a5.438 5.438 0 0 1-.782-.563 12.505 12.505 0 0 1-1.69-1.783 12.622 12.622 0 0 1-1.485-2.354c-.391-.827-.669-1.721-.669-2.583a5.472 5.472 0 0 1 10.943 0Z"/>
  </g>
  <defs>
    <clipPath id="a">
      <path d="M0 0h18v18H0z"/>
    </clipPath>
  </defs>
</svg>
