<svg xmlns="http://www.w3.org/2000/svg" width="24" height="24" fill="currentColor" viewBox="0 0 24 24">
  <path d="M12 2C6.489 2 2 6.489 2 12s4.489 10 10 10c4.55 0 8.405-3.048 9.61-7.223a1.001 1.001 0 0 0-1.922-.554A7.998 7.998 0 0 1 12 20c-4.43 0-8-3.57-8-8s3.57-8 8-8a7.96 7.96 0 0 1 5.658 2.346c.953.953 1.486 1.723 2.21 2.654H16a1 1 0 1 0 0 2h6a.977.977 0 0 0 .287-.12 1 1 0 0 0 .305-.073.978.978 0 0 0 .076-.084l.059-.065a1 1 0 0 0 .255-.617A.991.991 0 0 0 23 10V4a1 1 0 0 0-2 0v3.242c-.725-.916-1.031-1.415-1.926-2.31A9.984 9.984 0 0 0 12 2Z"/>
</svg>
