<svg width="16" height="16" viewBox="0 0 16 16" fill="none" xmlns="http://www.w3.org/2000/svg">
<g id="user 2">
<path id="Vector" d="M1.99999 1.33325C1.82319 1.33328 1.65364 1.40353 1.52864 1.52856C1.40364 1.65358 1.33343 1.82313 1.33343 1.99992C1.33343 2.1767 1.40364 2.34625 1.52864 2.47127L3.51431 4.45695C2.33279 5.42889 1.45513 6.52779 1.05077 7.16789C0.959549 7.31229 0.852223 7.48303 0.802075 7.70174C0.748858 7.93383 0.748978 8.06619 0.802075 8.2981C0.852104 8.51635 0.958696 8.68819 1.04947 8.83195C1.84781 10.0961 4.20448 13.3333 7.99999 13.3333C9.30859 13.3333 10.4231 12.8946 11.388 12.3306L13.5286 14.4713C13.6537 14.5963 13.8232 14.6665 14 14.6665C14.1768 14.6665 14.3463 14.5963 14.4713 14.4713C14.5963 14.3463 14.6666 14.1767 14.6666 13.9999C14.6666 13.8231 14.5963 13.6536 14.4713 13.5286L9.88541 8.94263L7.05728 6.1145L2.47135 1.52856C2.34634 1.40353 2.17679 1.33328 1.99999 1.33325ZM7.99999 2.66659C7.67895 2.66659 7.36627 2.69088 7.06379 2.7356C6.88913 2.76165 6.73194 2.85594 6.62672 2.99777C6.52151 3.13961 6.47686 3.31739 6.5026 3.49211C6.52834 3.66701 6.6225 3.82453 6.76437 3.93001C6.90624 4.0355 7.0842 4.08032 7.25911 4.05461C7.49863 4.0192 7.7453 3.99992 7.99999 3.99992C11.0111 3.99992 13.1207 6.76826 13.8229 7.88013C13.9137 8.02397 13.8976 7.99639 13.8984 7.99992C13.8977 8.00305 13.9143 7.97644 13.8229 8.12101C13.6357 8.41724 13.3464 8.8387 12.9661 9.29289C12.8528 9.42846 12.7978 9.6035 12.8135 9.77954C12.8291 9.95558 12.914 10.1182 13.0495 10.2317C13.185 10.3451 13.3601 10.4 13.5361 10.3844C13.7122 10.3687 13.8748 10.2838 13.9883 10.1484C14.4156 9.63802 14.7366 9.16969 14.9492 8.83325C15.0408 8.68836 15.1477 8.51672 15.1979 8.2981C15.1984 8.2981 15.1988 8.2981 15.1992 8.2981C15.2523 8.06641 15.2514 7.93453 15.1979 7.70174H15.1992C15.1492 7.4834 15.0413 7.31165 14.9505 7.16789C14.1522 5.90381 11.7955 2.66659 7.99999 2.66659ZM4.45181 5.39445L5.73567 6.6783C5.5033 7.07483 5.33333 7.51056 5.33333 7.99992C5.33333 9.46481 6.53517 10.6666 7.99999 10.6666C8.48935 10.6666 8.92509 10.4966 9.32161 10.2642L10.4049 11.3476C9.68318 11.7176 8.90247 11.9999 7.99999 11.9999C4.98886 11.9999 2.87928 9.2316 2.17708 8.11971C2.08625 7.97587 2.10235 8.0034 2.10155 7.99992C2.10225 7.99692 2.08586 8.02452 2.17708 7.88013C2.54645 7.29541 3.37404 6.25253 4.45181 5.39445ZM6.78124 7.72388L8.27603 9.21867C8.17559 9.24277 8.10898 9.33325 7.99999 9.33325C7.25575 9.33325 6.66666 8.74423 6.66666 7.99992C6.66666 7.89093 6.75715 7.82433 6.78124 7.72388Z" fill="currentColor"/>
</g>
</svg>
