<svg width="20" height="18" viewBox="0 0 20 18" fill="currentColor"  xmlns="http://www.w3.org/2000/svg">
<g id="Group 772">
<path id="Vector" d="M1 17.25H19C19.55 17.25 20 16.8 20 16.25C20 15.69 19.55 15.25 19 15.25H1C0.44 15.25 0 15.69 0 16.25C0 16.8 0.44 17.25 1 17.25Z" />
<path id="Vector_2" d="M1 2.75H19C19.55 2.75 20 2.3 20 1.75C20 1.19 19.55 0.75 19 0.75H1C0.44 0.75 0 1.19 0 1.75C0 2.3 0.44 2.75 1 2.75Z" />
<path id="Vector_3" d="M19 10H1C0.44 10 0 9.55 0 9C0 8.44 0.44 8 1 8H19C19.55 8 20 8.44 20 9C20 9.55 19.55 10 19 10Z" />
</g>
</svg>
