<svg width="16" height="16" viewBox="0 0 16 16" fill="none" xmlns="http://www.w3.org/2000/svg">
<g id="rx_ic_magnify">
<path id="Vector" fill-rule="evenodd" clip-rule="evenodd" d="M12.02 11.0785C12.8411 10.052 13.332 8.75003 13.332 7.33334C13.332 4.01963 10.6458 1.33334 7.33203 1.33334C4.01832 1.33334 1.33203 4.01963 1.33203 7.33334C1.33203 10.6471 4.01832 13.3333 7.33203 13.3333C8.74871 13.3333 10.0507 12.8424 11.0772 12.0213L13.5273 14.4714C13.7876 14.7318 14.2098 14.7318 14.4701 14.4714C14.7305 14.2111 14.7305 13.789 14.4701 13.5286L12.02 11.0785ZM7.33203 2.66668C4.7547 2.66668 2.66536 4.75601 2.66536 7.33334C2.66536 9.91069 4.7547 12 7.33203 12C8.58932 12 9.73047 11.5028 10.5696 10.6943C10.5871 10.6715 10.6064 10.6495 10.6273 10.6286C10.6482 10.6077 10.6702 10.5885 10.693 10.5709C11.5015 9.73178 11.9987 8.59063 11.9987 7.33334C11.9987 4.75601 9.90937 2.66668 7.33203 2.66668Z" fill="#7D8387"/>
</g>
</svg>
