<svg width="16" height="16" viewBox="0 0 16 16" fill="none" xmlns="http://www.w3.org/2000/svg">
<g id="Group 652">
<path id="Vector" d="M15.3224 8.17947C15.3234 7.68562 15.2802 7.19266 15.1932 6.70652H8.13672V9.49794H12.1776C12.0921 9.94781 11.9153 10.3754 11.6581 10.7542C11.4009 11.1331 11.0688 11.4552 10.6822 11.7007V13.5119H13.093C14.5087 12.2494 15.3224 10.3849 15.3224 8.17947Z" fill="#4285F4"/>
<path id="Vector_2" d="M8.13656 15.2619C10.1543 15.2619 11.8559 14.62 13.0956 13.512L10.6848 11.7007C10.0141 12.1429 9.14816 12.3933 8.13931 12.3933C6.18757 12.3933 4.53272 11.1174 3.93895 9.40208H1.45117V11.2692C2.72118 13.7171 5.30791 15.2619 8.13656 15.2619Z" fill="#34A853"/>
<path id="Vector_3" d="M3.93692 9.40207C3.62355 8.50346 3.62355 7.52524 3.93692 6.62663V4.75947H1.4519C0.929054 5.76476 0.656082 6.88122 0.656082 8.01435C0.656082 9.14748 0.929054 10.2639 1.4519 11.2692L3.93692 9.40207Z" fill="#FBBC04"/>
<path id="Vector_4" d="M8.13656 3.63277C9.19712 3.61377 10.2245 4.0028 11.0064 4.71951L13.1424 2.64991C11.7715 1.41223 9.98333 0.7386 8.13656 0.764103C5.30791 0.764103 2.72118 2.30897 1.45117 4.75946L3.9362 6.62662C4.52722 4.90862 6.18482 3.63277 8.13656 3.63277Z" fill="#EA4335"/>
</g>
</svg>
