<svg width="24" height="24" viewBox="0 0 24 24" fill="none" xmlns="http://www.w3.org/2000/svg">
<path d="M12 4C6.30671 4 2.77172 8.85585 1.57422 10.752V10.754C1.43809 10.9696 1.27817 11.2254 1.20312 11.5528C1.12333 11.9009 1.12333 12.0992 1.20312 12.4473C1.27817 12.7747 1.43809 13.0305 1.57422 13.2461V13.2481C2.77173 15.1442 6.30672 20 12 20C17.6933 20 21.2283 15.1442 22.4258 13.248C22.5619 13.0324 22.7219 12.7747 22.7969 12.4473H22.7989C22.8785 12.0994 22.8785 11.9006 22.7989 11.5527H22.7969C22.7219 11.2253 22.5619 10.9676 22.4258 10.752C21.2283 8.85583 17.6933 4 12 4ZM12 6C16.5167 6 19.6811 10.1525 20.7344 11.8203C20.8706 12.0361 20.8465 11.9948 20.8477 12C20.8465 12.0052 20.8706 11.9639 20.7344 12.1797C19.6811 13.8475 16.5167 18 12 18C7.48329 18 4.31893 13.8475 3.26562 12.1797C3.1294 11.9639 3.15354 12.0052 3.15234 12C3.15354 11.9948 3.1294 12.0361 3.26562 11.8203C4.31894 10.1525 7.4833 6 12 6Z" fill="black"/>
<path fill-rule="evenodd" clip-rule="evenodd" d="M8.0004 12C8.0004 9.79082 9.79121 8 12.0004 8C14.2096 8 16.0004 9.79082 16.0004 12C16.0004 14.2092 14.2096 16 12.0004 16C9.79121 16 8.0004 14.2092 8.0004 12ZM12.0004 10C10.8958 10 10.0004 10.8954 10.0004 12C10.0004 13.1046 10.8958 14 12.0004 14C13.105 14 14.0004 13.1046 14.0004 12C14.0004 10.8954 13.105 10 12.0004 10Z" fill="black"/>
</svg>
