<svg xmlns="http://www.w3.org/2000/svg" width="18" height="18" fill="currentColor" viewBox="0 0 18 18">
  <path d="M14.623 8.31a.37.37 0 0 0-.157-.302L9.809 5.773v8.98h4.814V8.31Zm-7.492 2.532.13.013a.65.65 0 0 1 0 1.274l-.13.013H4.87a.65.65 0 1 1 0-1.3h2.26Zm6.079 0 .13.013a.65.65 0 0 1 0 1.274l-.13.013h-1.74a.65.65 0 1 1 0-1.3h1.74ZM7.13 7.69l.132.013a.65.65 0 0 1 0 1.274l-.131.012H4.87a.65.65 0 1 1 0-1.3h2.26Zm1.38-4.07a.372.372 0 0 0-.549-.327l-.017.01-.017.008-4.282 2.004a.373.373 0 0 0-.188.323v9.114H8.51V3.621Zm1.3.71 5.273 2.531.035.018.033.02c.482.307.773.839.773 1.41v6.443h.936a.65.65 0 0 1 0 1.3H1.142a.65.65 0 1 1 0-1.3h1.014V5.639c0-.613.336-1.178.874-1.47l.018-.009.017-.008 4.309-2.018a1.67 1.67 0 0 1 2.435 1.487v.71Z"/>
</svg>
