<svg width="20" height="20" viewBox="0 0 20 20" fill="none" xmlns="http://www.w3.org/2000/svg">
<path d="M17.5 5.00031C17.5 4.54007 17.1272 4.16632 16.667 4.16632H3.33398C2.87375 4.16632 2.5 4.54007 2.5 5.00031V15.0003C2.50018 15.4604 2.87386 15.8333 3.33398 15.8333H16.667C17.1271 15.8333 17.4998 15.4604 17.5 15.0003V5.00031ZM19.167 15.0003C19.1668 16.3809 18.0476 17.5003 16.667 17.5003H3.33398C1.95338 17.5003 0.834161 16.3809 0.833984 15.0003V5.00031C0.833984 3.61959 1.95327 2.50031 3.33398 2.50031H16.667C18.0477 2.50031 19.167 3.61959 19.167 5.00031V15.0003Z" fill="#2C2E30"/>
<path d="M7.50065 6.66632V3.33331C7.50065 2.87308 7.87342 2.50031 8.33366 2.50031C8.7939 2.50031 9.16667 2.87308 9.16667 3.33331V6.66632C9.16667 7.12656 8.7939 7.50031 8.33366 7.50031C7.87342 7.50031 7.50065 7.12656 7.50065 6.66632Z" fill="#2C2E30"/>
<path d="M18.334 5.83364C18.7941 5.83381 19.167 6.20652 19.167 6.66665C19.167 7.12677 18.7941 7.49948 18.334 7.49965H1.66699C1.20675 7.49965 0.833984 7.12688 0.833984 6.66665C0.833984 6.20641 1.20675 5.83364 1.66699 5.83364H18.334Z" fill="#2C2E30"/>
<path d="M4.16732 6.66632V3.33331C4.16732 2.87308 4.54009 2.50031 5.00033 2.50031C5.46056 2.50031 5.83333 2.87308 5.83333 3.33331V6.66632C5.83333 7.12656 5.46056 7.50031 5.00033 7.50031C4.54009 7.50031 4.16732 7.12656 4.16732 6.66632Z" fill="#2C2E30"/>
</svg>
