<svg width="20" height="20" viewBox="0 0 20 20" fill="none" xmlns="http://www.w3.org/2000/svg">
<g id="rx_ic_stack" clip-path="url(#clip0_19373_61713)">
<path id="Vector" fill-rule="evenodd" clip-rule="evenodd" d="M7.18432 1.061C8.9746 0.165863 11.0819 0.165863 12.8721 1.061L18.4794 3.86463C19.9513 4.60059 19.9513 6.70109 18.4794 7.43704L12.8721 10.2407C11.0819 11.1358 8.9746 11.1358 7.18432 10.2407L1.57707 7.43705C0.105154 6.70109 0.105151 4.60059 1.57707 3.86463L7.18432 1.061ZM12.0613 2.68261C10.7815 2.04268 9.27499 2.04268 7.99512 2.68261L2.38787 5.48624C2.25224 5.55406 2.25223 5.74762 2.38787 5.81544L7.99512 8.61906C9.27499 9.259 10.7815 9.259 12.0613 8.61906L17.6686 5.81544C17.8042 5.74762 17.8042 5.55406 17.6686 5.48624L12.0613 2.68261ZM19.4497 10.2413C19.6736 10.6891 19.4921 11.2336 19.0443 11.4575L12.6984 14.6305C10.9849 15.4872 8.96797 15.4872 7.25445 14.6305L0.922286 11.4644C0.474491 11.2405 0.292987 10.696 0.516884 10.2482C0.740781 9.8004 1.2853 9.61889 1.73309 9.84279L8.06525 13.0089C9.26837 13.6104 10.6845 13.6104 11.8876 13.0089L18.2335 9.83592C18.6813 9.61202 19.2258 9.79352 19.4497 10.2413ZM0.512558 14.5247C0.736455 14.0769 1.28097 13.8954 1.72876 14.1193L8.23898 17.3744C9.36534 17.9376 10.6911 17.9376 11.8175 17.3744L18.2329 14.1667C18.6807 13.9428 19.2252 14.1243 19.4491 14.5721C19.673 15.0199 19.4915 15.5644 19.0437 15.7883L12.6283 18.996C10.9915 19.8144 9.06495 19.8144 7.42818 18.996L0.91796 15.7409C0.470165 15.517 0.28866 14.9725 0.512558 14.5247Z" fill="#2C2E30"/>
</g>
<defs>
<clipPath id="clip0_19373_61713">
<rect width="20" height="20" fill="white"/>
</clipPath>
</defs>
</svg>
