<svg width="20" height="20" viewBox="0 0 20 20" fill="none" xmlns="http://www.w3.org/2000/svg">
<path d="M6.50034 1.66666C5.10021 1.66666 4.28292 1.62358 3.48602 2.02962C2.85891 2.34915 2.34884 2.85921 2.02932 3.48633C1.62327 4.28322 1.66636 5.10052 1.66636 6.50065V13.4993C1.66636 14.8995 1.62332 15.7168 2.02932 16.5137C2.34885 17.1408 2.85892 17.6509 3.48602 17.9704C4.28292 18.3764 5.10021 18.3333 6.50034 18.3333H7.49969C7.72071 18.3333 7.93267 18.2455 8.08895 18.0893C8.24523 17.933 8.33303 17.721 8.33303 17.5C8.33303 17.279 8.24523 17.067 8.08895 16.9107C7.93267 16.7545 7.72071 16.6667 7.49969 16.6667H6.50034C5.10021 16.6667 4.5155 16.6233 4.24286 16.4844C3.92915 16.3245 3.67515 16.0705 3.51532 15.7568C3.37635 15.4841 3.33303 14.8995 3.33303 13.4993V6.50065C3.33303 5.10052 3.37639 4.51581 3.51532 4.24316C3.67516 3.92946 3.92916 3.67546 4.24286 3.51562C4.51551 3.3767 5.10021 3.33333 6.50034 3.33333H7.49969C7.72071 3.33333 7.93267 3.24553 8.08895 3.08925C8.24523 2.93297 8.33303 2.72101 8.33303 2.5C8.33303 2.27898 8.24523 2.06702 8.08895 1.91074C7.93267 1.75446 7.72071 1.66666 7.49969 1.66666H6.50034ZM12.7438 5.24414C12.5876 5.40041 12.4998 5.61235 12.4998 5.83333C12.4998 6.05431 12.5876 6.26625 12.7438 6.42252L15.488 9.16666H7.49969C7.27868 9.16666 7.06672 9.25446 6.91044 9.41074C6.75416 9.56702 6.66636 9.77898 6.66636 10C6.66636 10.221 6.75416 10.433 6.91044 10.5893C7.06672 10.7455 7.27868 10.8333 7.49969 10.8333H15.488L12.7438 13.5775C12.5876 13.7337 12.4998 13.9457 12.4998 14.1667C12.4998 14.3876 12.5876 14.5996 12.7438 14.7559C12.9001 14.9121 13.112 14.9999 13.333 14.9999C13.554 14.9999 13.7659 14.9121 13.9222 14.7559L18.0889 10.5892C18.2197 10.4456 18.2963 10.2608 18.3054 10.0667C18.3155 10.0449 18.3248 10.0226 18.333 10C18.3277 9.95318 18.3185 9.9069 18.3054 9.86165C18.3066 9.83562 18.3066 9.80955 18.3054 9.78353C18.2981 9.76975 18.2906 9.75618 18.2826 9.74284C18.2448 9.61858 18.1784 9.50487 18.0889 9.4108L13.9222 5.24414C13.766 5.0879 13.554 5.00012 13.333 5.00012C13.1121 5.00012 12.9001 5.0879 12.7438 5.24414Z" fill="#F53838"/>
</svg>
