<svg width="40" height="40" viewBox="0 0 40 56" fill="none" xmlns="http://www.w3.org/2000/svg">
<g id="navigation-logo">
<rect id="Rectangle 27" y="8" width="40" height="40" rx="8" fill="white"/>
<g id="logo">
<path id="Vector 4" d="M11.7198 28.0048C17.9583 16.1302 24.5903 7.59661 29.3846 2.89986C30.2468 2.05521 31.5642 3.01096 31.21 4.16481C28.5314 12.8921 26.6821 26.7061 25.8554 33.3428C25.767 34.0524 25.0725 34.5172 24.3819 34.3313L13.1846 31.3166C11.7488 30.93 11.0283 29.3211 11.7198 28.0048Z" fill="#7EC9FF"/>
<path id="Vector 7" d="M21.876 33.8836C21.7519 25.7876 22.5508 19.1898 23.4074 14.7462C23.7702 12.8642 26.0754 12.4248 27.1238 14.0293C30.421 19.0755 32.631 24.1542 33.7606 28.8152C33.9911 29.7662 33.5553 30.7427 32.7219 31.2556L25.3859 35.7703C23.8649 36.7064 21.9034 35.6694 21.876 33.8836Z" fill="#1A93EB"/>
<path id="Rectangle 26" d="M4.51511 33.5599C3.63656 32.77 4.42022 31.334 5.55989 31.6454L34.0539 39.4321C35.2276 39.7529 35.5108 41.2881 34.5286 42.0065C33.1559 43.0105 31.4938 43.5407 29.7932 43.5169L16.972 43.3377C15.9358 43.3233 14.94 42.9334 14.1693 42.2405L4.51511 33.5599Z" fill="#1B5BBC"/>
</g>
</g>
</svg>
