<svg width="16" height="16" viewBox="0 0 16 16" fill="none" xmlns="http://www.w3.org/2000/svg">
<path d="M12.6667 6.66663C12.6667 5.42895 12.1753 4.24167 11.3001 3.3665C10.4796 2.54596 9.38465 2.06298 8.23112 2.00582L8 1.99996C6.76232 1.99996 5.57504 2.49133 4.69987 3.3665C3.8247 4.24167 3.33333 5.42895 3.33333 6.66663C3.33333 8.10617 4.14453 9.65804 5.19857 11.0429C6.21711 12.3811 7.38636 13.4642 8 13.9967C8.61364 13.4642 9.78289 12.3811 10.8014 11.0429C11.8555 9.65804 12.6667 8.10617 12.6667 6.66663ZM14 6.66663C14 8.55574 12.9649 10.4019 11.8626 11.8502C10.745 13.3186 9.47345 14.4872 8.83659 15.0371C8.82524 15.0469 8.81342 15.0567 8.80143 15.0657C8.59932 15.2177 8.35864 15.3084 8.10807 15.3287L8 15.3333C7.71096 15.3333 7.42959 15.2394 7.19857 15.0657C7.18658 15.0567 7.17477 15.0469 7.16341 15.0371C6.52655 14.4872 5.25499 13.3186 4.13737 11.8502C3.03508 10.4019 2 8.55574 2 6.66663C2 5.07533 2.63194 3.54901 3.75716 2.42379C4.88238 1.29857 6.4087 0.666626 8 0.666626C9.5913 0.666626 11.1176 1.29857 12.2428 2.42379C13.3681 3.54901 14 5.07533 14 6.66663Z" fill="white"/>
<path d="M9.33333 6.66663C9.33333 5.93025 8.73638 5.33329 8 5.33329C7.26362 5.33329 6.66667 5.93025 6.66667 6.66663C6.66667 7.40301 7.26362 7.99996 8 7.99996C8.73638 7.99996 9.33333 7.40301 9.33333 6.66663ZM10.6667 6.66663C10.6667 8.13939 9.47276 9.33329 8 9.33329C6.52724 9.33329 5.33333 8.13939 5.33333 6.66663C5.33333 5.19387 6.52724 3.99996 8 3.99996C9.47276 3.99996 10.6667 5.19387 10.6667 6.66663Z" fill="white"/>
</svg>
