<svg xmlns="http://www.w3.org/2000/svg" width="16" height="16" fill="transparent

" viewBox="0 0 16 16">
  <g clip-path="url(#a)">
    <path fill="currentColor" fill-rule="evenodd" d="M.668 8a7.333 7.333 0 1 1 14.667 0A7.333 7.333 0 0 1 .668 8Zm1.37-.667H4.7c.15-1.842.766-3.61 1.784-5.14a6.005 6.005 0 0 0-4.447 5.14ZM8 2.367a9.534 9.534 0 0 0-1.96 4.966h3.923A9.533 9.533 0 0 0 8 2.367Zm1.962 6.3A9.534 9.534 0 0 1 8 13.633a9.534 9.534 0 0 1-1.96-4.966h3.923Zm-5.262 0H2.038a6.005 6.005 0 0 0 4.447 5.14 10.867 10.867 0 0 1-1.784-5.14Zm4.817 5.14a10.867 10.867 0 0 0 1.783-5.14h2.664a6.006 6.006 0 0 1-4.447 5.14Zm4.447-6.474H11.3a10.866 10.866 0 0 0-1.783-5.14 6.005 6.005 0 0 1 4.447 5.14Z" clip-rule="evenodd"/>
  </g>
  <defs>
    <clipPath id="a">
      <path fill="currentColor" d="M0 0h16v16H0z"/>
    </clipPath>
  </defs>
</svg>
