<svg width="24" height="24" viewBox="0 0 24 24" fill="none" xmlns="http://www.w3.org/2000/svg">
<g id="linux-svgrepo-com 1" clip-path="url(#clip0_17908_23255)">
<g id="XMLID_91_">
<path id="XMLID_92_" d="M21.6127 19.27C20.909 18.9818 20.6079 18.5993 20.637 18.0285C20.667 17.3623 20.289 16.8744 20.1096 16.6816C20.218 16.2674 20.5349 14.8345 20.1099 13.5898C19.6532 12.2576 18.2588 10.223 16.82 8.22293C16.231 7.40157 16.2032 6.50876 16.171 5.47495C16.1402 4.48889 16.1054 3.3712 15.5555 2.1287C14.9576 0.775795 13.7579 0 12.2639 0C11.3751 0 10.4627 0.277772 9.76068 0.762025C8.32303 1.75421 8.51307 3.91745 8.63881 5.34889C8.65605 5.5449 8.67226 5.73006 8.6817 5.88814C8.76542 7.29007 8.68925 8.02896 8.58963 8.25354C8.52519 8.40029 8.20791 8.81797 7.87215 9.2602C7.52489 9.71755 7.13121 10.2359 6.80851 10.719C6.42348 11.3003 6.11266 12.1888 5.81207 13.048C5.59213 13.6767 5.38439 14.2706 5.18216 14.6255C4.79887 15.3082 4.89424 15.9448 4.97387 16.239C4.82877 16.3398 4.61914 16.5382 4.44217 16.9123C4.22829 17.3687 3.79432 17.614 2.89192 17.7875C2.47723 17.8723 2.19127 18.0467 2.04176 18.3057C1.82419 18.6827 1.94269 19.1565 2.05081 19.4802C2.21055 19.9561 2.11101 20.2573 1.93002 20.8042C1.88832 20.9304 1.84102 21.0733 1.7931 21.2309C1.71764 21.4797 1.74487 21.7058 1.87384 21.9031C2.21464 22.4241 3.20911 22.6078 4.23286 22.7287C4.84411 22.8013 5.51313 23.0457 6.16019 23.2823C6.79418 23.5139 7.44974 23.7535 8.04566 23.8263C8.13623 23.8377 8.22593 23.8434 8.31241 23.8434C9.21214 23.8434 9.61865 23.2464 9.74754 23.0011C10.0707 22.9352 11.1853 22.724 12.3341 22.6957C13.4811 22.6629 14.5909 22.8894 14.9052 22.9598C15.004 23.149 15.2646 23.5811 15.6799 23.8037C15.9082 23.9285 16.2259 24 16.5512 24H16.5513C16.8988 24 17.5599 23.9178 18.0831 23.3674C18.6049 22.8144 19.9088 22.1084 20.861 21.5929C21.0734 21.4779 21.2722 21.3702 21.4465 21.273C21.9813 20.9765 22.2732 20.5529 22.2471 20.1107C22.2254 19.7435 21.9823 19.4213 21.6127 19.27ZM9.77241 19.1635C9.70584 18.6945 9.10253 18.2294 8.40385 17.6909C7.83257 17.2504 7.18503 16.7513 7.00665 16.3286C6.63799 15.4566 6.92859 13.9232 7.43526 13.1337C7.68565 12.7383 7.89017 12.1388 8.08799 11.559C8.30155 10.933 8.52243 10.2857 8.76944 10.0023C9.1606 9.55993 9.5221 8.69915 9.58615 8.02077C9.95245 8.37047 10.5207 8.8142 11.0456 8.8142C11.1264 8.8142 11.2049 8.80365 11.2799 8.78248C11.639 8.67877 12.1672 8.37354 12.6781 8.07845C13.1185 7.82397 13.6616 7.51016 13.866 7.4816C14.2164 7.98473 16.2524 12.4905 16.4605 13.9376C16.6251 15.0825 16.4512 16.029 16.3638 16.3997C16.2934 16.3901 16.2096 16.3823 16.1214 16.3823C15.5543 16.3823 15.4042 16.6918 15.3651 16.8767C15.2645 17.3569 15.2539 18.8925 15.2528 19.2376C15.0477 19.4981 14.0107 20.725 12.5218 20.9456C11.9153 21.0337 11.349 21.0784 10.8386 21.0784C10.4024 21.0784 10.124 21.0448 10.0084 21.0272L9.26022 20.1711C9.55523 20.0255 9.85015 19.7181 9.77241 19.1635ZM10.7218 5.04782C10.6984 5.0579 10.6754 5.06868 10.6529 5.08016C10.6506 5.02949 10.6453 4.9781 10.6372 4.92656C10.5555 4.4564 10.2438 4.11512 9.89603 4.11512C9.8703 4.11512 9.84441 4.11709 9.816 4.12142C9.60913 4.15588 9.44687 4.31129 9.35795 4.53162C9.43593 4.04816 9.70985 3.6902 10.0348 3.6902C10.4165 3.6902 10.7389 4.20451 10.7389 4.81325C10.7389 4.88997 10.7333 4.9663 10.7218 5.04782ZM13.6873 5.41034C13.7222 5.29908 13.7411 5.17868 13.7411 5.05372C13.7411 4.5018 13.3909 4.0694 12.9439 4.0694C12.507 4.0694 12.1516 4.51093 12.1516 5.05372C12.1516 5.09071 12.1534 5.12777 12.1568 5.16476C12.1337 5.15586 12.1111 5.14721 12.0891 5.13887C12.0388 4.9866 12.0134 4.82773 12.0134 4.66555C12.0134 4.00559 12.4352 3.46861 12.9537 3.46861C13.4722 3.46861 13.8941 4.00559 13.8941 4.66555C13.8941 4.9401 13.8183 5.20213 13.6873 5.41034ZM13.3049 6.69486C13.2974 6.72823 13.2815 6.74302 13.1058 6.83446C13.017 6.88065 12.9065 6.93817 12.7683 7.02237L12.6759 7.07832C12.3046 7.30337 11.4353 7.8305 11.1994 7.86143C11.0391 7.88299 10.9399 7.82082 10.717 7.66935C10.6667 7.63512 10.6132 7.59876 10.5562 7.56217C10.1543 7.29849 9.89579 7.00805 9.8666 6.8945C9.99762 6.79322 10.3224 6.53977 10.4886 6.38971C10.8261 6.0759 11.1658 5.86501 11.3338 5.86501C11.3427 5.86501 11.3508 5.86564 11.3591 5.86721C11.5566 5.90207 12.0438 6.09651 12.3996 6.23847C12.5641 6.30409 12.7061 6.36075 12.806 6.39663C13.1209 6.50475 13.285 6.64309 13.3049 6.69486ZM16.1336 21.3601C16.3112 20.559 16.5157 19.4692 16.4826 18.8267C16.475 18.6807 16.4621 18.5218 16.4496 18.3682C16.4262 18.081 16.3915 17.6541 16.4273 17.5275C16.4344 17.5242 16.4422 17.5214 16.451 17.5189C16.4525 17.8863 16.5323 18.6189 17.1182 18.8744C17.2928 18.9506 17.4924 18.9892 17.7113 18.9892C18.2982 18.9892 18.9494 18.7012 19.2162 18.4345C19.3733 18.2774 19.5054 18.0853 19.5979 17.9331C19.6181 17.9923 19.6306 18.0698 19.624 18.1695C19.5892 18.7113 19.8525 19.4301 20.3536 19.6949L20.4265 19.7332C20.605 19.8269 21.079 20.0758 21.0866 20.1938C21.0866 20.1938 21.0826 20.2077 21.0562 20.2323C20.9374 20.3408 20.5195 20.5542 20.1154 20.7606C19.3984 21.1267 18.5858 21.5416 18.2209 21.9254C17.707 22.4662 17.1258 22.8294 16.7749 22.8294C16.7326 22.8294 16.6941 22.8241 16.6599 22.8132C16.2787 22.6944 15.965 22.1444 16.1336 21.3601ZM3.14112 19.3163C3.10225 19.1344 3.07156 18.9908 3.10453 18.8517C3.12846 18.7486 3.63734 18.6381 3.85468 18.591C4.16023 18.5247 4.47624 18.4561 4.68288 18.3307C4.9623 18.1614 5.11362 17.8493 5.24708 17.5739C5.34371 17.3747 5.44349 17.1688 5.56223 17.1012C5.56892 17.0972 5.57915 17.0927 5.59866 17.0927C5.82112 17.0927 6.2879 17.5603 6.55686 17.9789C6.62508 18.0844 6.75146 18.2958 6.89766 18.5406C7.33494 19.2723 7.93368 20.2744 8.24639 20.6102C8.52818 20.9122 8.98434 21.4927 8.87213 21.9905C8.78998 22.3768 8.35262 22.6909 8.24946 22.7604C8.212 22.7689 8.16566 22.7732 8.11112 22.7732C7.51262 22.7732 6.32787 22.2753 5.69136 22.0077L5.59717 21.9682C5.24173 21.8191 4.66148 21.7253 4.10034 21.6344C3.65386 21.5621 3.04245 21.4632 2.9411 21.3738C2.85895 21.2817 2.95424 20.9821 3.03828 20.7178C3.09879 20.5278 3.16127 20.3314 3.1955 20.1258C3.24405 19.7978 3.18692 19.5309 3.14112 19.3163Z" fill="#AFB7BB"/>
</g>
</g>
<defs>
<clipPath id="clip0_17908_23255">
<rect width="24" height="24" fill="white"/>
</clipPath>
</defs>
</svg>
