<svg width="16" height="17" viewBox="0 0 16 17" fill="none" xmlns="http://www.w3.org/2000/svg">
<g id="rx_ic_info" opacity="0.6">
<path id="Vector" fill-rule="evenodd" clip-rule="evenodd" d="M7.99935 15.8337C12.0494 15.8337 15.3327 12.5504 15.3327 8.50033C15.3327 4.45024 12.0494 1.16699 7.99935 1.16699C3.94926 1.16699 0.666016 4.45024 0.666016 8.50033C0.666016 12.5504 3.94926 15.8337 7.99935 15.8337ZM9.30861 12.2651L9.42571 11.7864C9.36509 11.8148 9.26737 11.8474 9.13337 11.8844C8.99899 11.9214 8.87806 11.9403 8.77177 11.9403C8.54538 11.9403 8.38599 11.9032 8.29345 11.8286C8.20158 11.754 8.15576 11.6137 8.15576 11.4082C8.15576 11.3267 8.16958 11.2054 8.1985 11.0465C8.22652 10.8866 8.25874 10.7445 8.29457 10.6201L8.73174 9.07243C8.77455 8.93039 8.80392 8.77423 8.81969 8.60379C8.83584 8.43374 8.84335 8.31476 8.84335 8.24723C8.84335 7.92086 8.72896 7.65601 8.50008 7.4517C8.27121 7.24754 7.94529 7.14546 7.52293 7.14546C7.2879 7.14546 7.03942 7.18723 6.77645 7.27068C6.51348 7.3539 6.23856 7.45418 5.95095 7.57128L5.83355 8.05036C5.91926 8.01866 6.02134 7.98456 6.14077 7.94925C6.25967 7.9141 6.37632 7.89592 6.48982 7.89592C6.72154 7.89592 6.87763 7.93543 6.95943 8.01325C7.04123 8.09129 7.08231 8.2301 7.08231 8.42855C7.08231 8.5383 7.06932 8.66021 7.04235 8.79271C7.01576 8.92603 6.98256 9.06702 6.94351 9.21582L6.50447 10.7698C6.46541 10.9331 6.43686 11.0792 6.41891 11.2089C6.40111 11.3385 6.39255 11.4656 6.39255 11.5893C6.39255 11.9086 6.51055 12.1719 6.74648 12.3797C6.98241 12.5866 7.31321 12.6908 7.73851 12.6908C8.01545 12.6908 8.25852 12.6546 8.46771 12.5818C8.67668 12.5093 8.9573 12.4037 9.30861 12.2651ZM9.23071 5.9779C9.43495 5.78854 9.53658 5.55824 9.53658 5.28858C9.53658 5.01952 9.4351 4.78877 9.23071 4.59701C9.02701 4.40577 8.78146 4.30985 8.49438 4.30985C8.20639 4.30985 7.95987 4.40554 7.75421 4.59701C7.54854 4.78877 7.44549 5.01945 7.44549 5.28858C7.44549 5.55824 7.54854 5.78846 7.75421 5.9779C7.96024 6.16794 8.20632 6.26303 8.49438 6.26303C8.78154 6.26303 9.02701 6.16794 9.23071 5.9779Z" fill="#A3A9AD"/>
</g>
</svg>
