<svg xmlns="http://www.w3.org/2000/svg" width="24" height="24" fill="currentColor" viewBox="0 0 24 24">
  <path d="M17.081 12.952h1.572l-.456-2.052a8.457 8.457 0 0 1-.132-.648 7.383 7.383 0 0 0-.084-.408c-.024-.136-.048-.26-.072-.372h-.084c-.024.136-.056.296-.096.48a9.784 9.784 0 0 1-.108.516l-.084.432-.456 2.052Z"/>
  <path fill-rule="evenodd" d="M3 4a3 3 0 0 0-3 3v10a3 3 0 0 0 3 3h18a3 3 0 0 0 3-3V7a3 3 0 0 0-3-3H3Zm.019 11.496V16h5.04v-1.488H5.083c.056-.128.132-.256.228-.384.096-.136.212-.276.348-.42.144-.152.296-.3.456-.444.288-.272.548-.532.78-.78.232-.248.428-.5.588-.756.168-.256.296-.528.384-.816.088-.296.132-.624.132-.984s-.052-.684-.156-.972a1.84 1.84 0 0 0-1.176-1.188 3.005 3.005 0 0 0-1.02-.156c-.56 0-1.032.1-1.416.3-.384.2-.676.492-.876.876-.192.376-.288.844-.288 1.404v.24c.008.08.016.144.024.192h1.62v-.456c0-.248.028-.456.084-.624a.869.869 0 0 1 .252-.408c.12-.096.28-.144.48-.144.192 0 .34.044.444.132.104.08.176.196.216.348.048.144.072.304.072.48 0 .312-.068.6-.204.864-.128.256-.3.508-.516.756-.216.24-.46.496-.732.768-.216.216-.432.44-.648.672-.208.224-.4.464-.576.72a3.54 3.54 0 0 0-.408.816 2.773 2.773 0 0 0-.156.948ZM9.502 16V7.756h4.848v1.608h-2.916v1.896h2.472v1.62h-2.472V16H9.502Zm4.927 0 2.208-8.244h2.52L21.377 16h-2.052l-.36-1.5h-2.208L16.41 16h-1.98Z" clip-rule="evenodd"/>
</svg>
