<svg width="16" height="16" viewBox="0 0 16 16" fill="none" xmlns="http://www.w3.org/2000/svg">
<g clip-path="url(#clip0_30996_80104)">
<path d="M7.99953 2.66675C4.20401 2.66675 1.84735 5.90398 1.04901 7.16805V7.16938C0.958258 7.31313 0.851645 7.48368 0.801616 7.70194C0.74842 7.93401 0.74842 8.06622 0.801616 8.29829C0.851645 8.51654 0.958258 8.68709 1.04901 8.83084V8.83218C1.84735 10.0962 4.20401 13.3334 7.99953 13.3334C11.7951 13.3334 14.1517 10.0962 14.9501 8.83211C15.0408 8.68835 15.1474 8.51655 15.1975 8.29826H15.1988C15.2519 8.06632 15.2519 7.93384 15.1988 7.7019H15.1975C15.1474 7.48361 15.0408 7.31181 14.9501 7.16805C14.1517 5.90397 11.7951 2.66675 7.99953 2.66675ZM7.99953 4.00008C11.0107 4.00008 13.1203 6.76843 13.8225 7.88029C13.9133 8.02413 13.8972 7.99664 13.898 8.00008C13.8972 8.00355 13.9133 7.97604 13.8225 8.11987C13.1203 9.23175 11.0107 12.0001 7.99953 12.0001C4.98839 12.0001 2.87882 9.23176 2.17662 8.11987C2.0858 7.97602 2.10189 8.00356 2.1011 8.00008C2.10189 7.9966 2.0858 8.02414 2.17662 7.88029C2.87883 6.76842 4.9884 4.00008 7.99953 4.00008Z" fill="currentColor"/>
<path fill-rule="evenodd" clip-rule="evenodd" d="M5.33313 8.00008C5.33313 6.52729 6.52701 5.33341 7.9998 5.33341C9.4726 5.33341 10.6665 6.52729 10.6665 8.00008C10.6665 9.47288 9.4726 10.6667 7.9998 10.6667C6.52701 10.6667 5.33313 9.47288 5.33313 8.00008ZM7.9998 6.66675C7.2634 6.66675 6.66647 7.26368 6.66647 8.00008C6.66647 8.73648 7.2634 9.33342 7.9998 9.33342C8.7362 9.33342 9.33313 8.73648 9.33313 8.00008C9.33313 7.26368 8.7362 6.66675 7.9998 6.66675Z" fill="currentColor"/>
</g>
<defs>
<clipPath id="clip0_30996_80104">
<rect width="16" height="16" fill="currentColor"/>
</clipPath>
</defs>
</svg>
