<svg xmlns="http://www.w3.org/2000/svg" width="16" height="16" fill="transparent" viewBox="0 0 16 16">
  <g clip-path="url(#a)">
    <path fill="currentColor" d="M13.997 8a2 2 0 0 0-.922-1.685.666.666 0 0 1-.291-.708 2.002 2.002 0 0 0-2.39-2.39.668.668 0 0 1-.708-.291 2 2 0 0 0-3.37 0 .667.667 0 0 1-.708.291 2 2 0 0 0-2.39 2.385.666.666 0 0 1-.294.708 2 2 0 0 0 0 3.38c.237.15.355.433.294.708a2.001 2.001 0 0 0 2.39 2.385l.103-.015c.24-.016.473.1.605.307a2 2 0 0 0 3.375 0 .667.667 0 0 1 .707-.292 2 2 0 0 0 2.386-2.39.667.667 0 0 1 .29-.708A2.002 2.002 0 0 0 13.998 8Zm1.334 0a3.333 3.333 0 0 1-1.18 2.542 3.334 3.334 0 0 1-.96 2.643 3.333 3.333 0 0 1-2.64.965 3.331 3.331 0 0 1-5.094.001 3.332 3.332 0 0 1-3.486-2.385 3.335 3.335 0 0 1-.121-1.215 3.334 3.334 0 0 1 0-5.103 3.333 3.333 0 0 1 3.608-3.6 3.333 3.333 0 0 1 5.085 0 3.332 3.332 0 0 1 3.609 3.61A3.332 3.332 0 0 1 15.33 8Z"/>
    <path fill="currentColor" d="M9.53 5.529a.666.666 0 1 1 .942.942l-4 4a.667.667 0 0 1-.943-.942l4-4Zm-3.523-.196a.667.667 0 1 1 0 1.334h-.006a.667.667 0 0 1 0-1.334h.006Zm4 4a.667.667 0 1 1 0 1.334h-.006a.667.667 0 0 1 0-1.334h.006Z"/>
  </g>
  <defs>
    <clipPath id="a">
      <path fill="currentColor" d="M0 0h16v16H0z"/>
    </clipPath>
  </defs>
</svg>
