<svg width="16" height="16" viewBox="0 0 16 16" fill="none" xmlns="http://www.w3.org/2000/svg">
<g clip-path="url(#clip0_28924_53804)">
<path fill-rule="evenodd" clip-rule="evenodd" d="M0.667969 7.99996C0.667969 3.94987 3.95121 0.666626 8.0013 0.666626C12.0514 0.666626 15.3346 3.94987 15.3346 7.99996C15.3346 12.05 12.0514 15.3333 8.0013 15.3333C3.95121 15.3333 0.667969 12.05 0.667969 7.99996ZM11.4727 6.47136C11.7331 6.21101 11.7331 5.7889 11.4727 5.52855C11.2124 5.26821 10.7902 5.26821 10.5299 5.52855L7.0013 9.05715L5.47271 7.52855C5.21236 7.2682 4.79025 7.2682 4.5299 7.52855C4.26955 7.7889 4.26955 8.21101 4.5299 8.47136L6.5299 10.4714C6.79025 10.7317 7.21236 10.7317 7.47271 10.4714L11.4727 6.47136Z" fill="#575D60"/>
</g>
<defs>
<clipPath id="clip0_28924_53804">
<rect width="16" height="16" fill="white"/>
</clipPath>
</defs>
</svg>
