<svg width="16" height="16" viewBox="0 0 16 16" fill="none" xmlns="http://www.w3.org/2000/svg">
<path d="M12.6654 7.66671C12.6654 4.90528 10.4268 2.66671 7.66536 2.66671C4.90394 2.66671 2.66536 4.90528 2.66536 7.66671C2.66536 10.4281 4.90394 12.6667 7.66536 12.6667C9.01195 12.6667 10.2332 12.1333 11.1322 11.2676C11.151 11.2426 11.1712 11.2181 11.194 11.1954C11.2168 11.1726 11.2412 11.1523 11.2663 11.1335C12.132 10.2345 12.6654 9.01329 12.6654 7.66671ZM13.9987 7.66671C13.9987 9.17543 13.4699 10.5599 12.5892 11.6478L14.4701 13.5287L14.5156 13.5795C14.7292 13.8413 14.7141 14.2273 14.4701 14.4714C14.226 14.7155 13.84 14.7305 13.5781 14.517L13.5273 14.4714L11.6465 12.5905C10.5586 13.4712 9.17409 14 7.66536 14C4.16756 14 1.33203 11.1645 1.33203 7.66671C1.33203 4.1689 4.16756 1.33337 7.66536 1.33337C11.1632 1.33337 13.9987 4.1689 13.9987 7.66671Z" fill="currentColor"/>
</svg>
