<svg width="72" height="72" viewBox="0 0 72 72" fill="none" xmlns="http://www.w3.org/2000/svg">
<path d="M68.7273 36C68.7273 54.0748 54.0748 68.7273 36 68.7273C17.9252 68.7273 3.27271 54.0748 3.27271 36C3.27271 17.9252 17.9252 3.27271 36 3.27271C54.0748 3.27271 68.7273 17.9252 68.7273 36Z" fill="#E23A2E"/>
<path d="M36.2958 68.726C54.2343 68.5672 68.7273 53.9761 68.7273 36C68.7273 29.8515 67.0318 24.0991 64.0828 19.1847H35.8635L51.0212 43.5834L36.2958 68.726Z" fill="#FCC31C"/>
<path d="M3.27271 36C3.27271 54.0748 17.9252 68.7273 36 68.7273C36.0994 68.7273 36.1986 68.7268 36.2978 68.7259L49.7006 45.5115H22.1534L7.43417 20.017C4.78384 24.7438 3.27271 30.1954 3.27271 36Z" fill="#249544"/>
<path d="M52.8195 36.0001C52.8195 45.2892 45.2891 52.8196 36 52.8196C26.7108 52.8196 19.1805 45.2892 19.1805 36.0001C19.1805 26.7109 26.7108 19.1806 36 19.1806C45.2891 19.1806 52.8195 26.7109 52.8195 36.0001Z" fill="white"/>
<path d="M49.1691 36C49.1691 43.2731 43.2731 49.1691 36 49.1691C28.7269 49.1691 22.8309 43.2731 22.8309 36C22.8309 28.7269 28.7269 22.8309 36 22.8309C43.2731 22.8309 49.1691 28.7269 49.1691 36Z" fill="#1A73E8"/>
</svg>
