<svg width="16" height="17" viewBox="0 0 16 17" fill="none" xmlns="http://www.w3.org/2000/svg">
<g id="Frame">
<path id="Vector" d="M11.9999 1.83325L12.4118 2.65697C12.5888 3.01096 12.6773 3.18795 12.7955 3.34133C12.9004 3.47743 13.0224 3.59943 13.1585 3.70435C13.3119 3.82257 13.4889 3.91107 13.8429 4.08806L14.6666 4.49992L13.8429 4.91178C13.4889 5.08877 13.3119 5.17727 13.1585 5.29549C13.0224 5.40041 12.9004 5.52241 12.7955 5.65851C12.6773 5.81189 12.5888 5.98888 12.4118 6.34287L11.9999 7.16659L11.5881 6.34287C11.4111 5.98888 11.3226 5.81189 11.2043 5.65851C11.0995 5.52241 10.9775 5.40041 10.8413 5.29549C10.688 5.17727 10.511 5.08877 10.157 4.91178L9.33325 4.49992L10.157 4.08806C10.511 3.91107 10.688 3.82257 10.8413 3.70435C10.9775 3.59943 11.0995 3.47743 11.2043 3.34133C11.3226 3.18795 11.4111 3.01096 11.5881 2.65697L11.9999 1.83325Z" stroke="#7D8387" stroke-width="1.33333" stroke-linecap="round" stroke-linejoin="round"/>
<path id="Vector_2" d="M13.9999 9.4262C13.1259 10.9593 11.4763 11.993 9.58519 11.993C6.78065 11.993 4.50709 9.71947 4.50709 6.91489C4.50709 5.02369 5.54091 3.37396 7.07425 2.5C3.85311 2.80541 1.33325 5.51795 1.33325 8.819C1.33325 12.3247 4.1752 15.1667 7.68092 15.1667C10.9819 15.1667 13.6943 12.6471 13.9999 9.4262Z" stroke="#7D8387" stroke-width="1.33333" stroke-linecap="round" stroke-linejoin="round"/>
</g>
</svg>
