<svg xmlns="http://www.w3.org/2000/svg" width="24" height="24" fill="currentColor" viewBox="0 0 24 24">
  <path d="M10 2C6.974 2 4.5 4.474 4.5 7.5S6.974 13 10 13s5.5-2.474 5.5-5.5S13.026 2 10 2Zm0 2c1.945 0 3.5 1.555 3.5 3.5S11.945 11 10 11a3.485 3.485 0 0 1-3.5-3.5C6.5 5.555 8.055 4 10 4Zm9 10a1 1 0 0 0-1 1v2h-2a1 1 0 0 0 0 2h2v2a1 1 0 0 0 2 0v-2h2a1 1 0 0 0 0-2h-2v-2a1 1 0 0 0-1-1Zm-11.5.5c-1.396 0-2.166-.023-2.951.215a5.005 5.005 0 0 0-3.334 3.334C.977 18.834 1 19.604 1 21a1 1 0 1 0 2 0c0-1.396.023-2.021.129-2.371a2.997 2.997 0 0 1 2-2c.35-.106.975-.129 2.371-.129H12a1 1 0 0 0 0-2H7.5Z"/>
</svg>
