<svg width="29" height="28" viewBox="0 0 29 28" fill="none" xmlns="http://www.w3.org/2000/svg">
<g clip-path="url(#clip0_20148_108693)">
<path fill-rule="evenodd" clip-rule="evenodd" d="M8.2123 8.9994C5.14169 8.9994 2.74824 11.2885 2.74824 14.0001C2.74824 16.7116 5.14169 19.0007 8.2123 19.0007C8.81046 19.0007 9.45282 18.7489 10.1273 18.2602C10.7986 17.7736 11.4314 17.1022 11.9863 16.3932C12.5374 15.6891 12.9875 14.9794 13.3008 14.4426C13.3984 14.2753 13.4821 14.1259 13.5509 14.0001C13.4821 13.8742 13.3984 13.7248 13.3008 13.5575C12.9875 13.0207 12.5374 12.311 11.9863 11.6069C11.4314 10.8979 10.7986 10.2265 10.1273 9.73993C9.45282 9.25116 8.81046 8.9994 8.2123 8.9994ZM14.7009 14.0001C15.6272 13.5727 15.6269 13.5722 15.6269 13.5722L15.6258 13.5699L15.6234 13.565L15.6153 13.5486C15.6125 13.5429 15.6092 13.5363 15.6055 13.5287C15.6001 13.518 15.5939 13.5055 15.5866 13.4911C15.562 13.4422 15.5263 13.3724 15.4802 13.2848C15.3879 13.1098 15.2535 12.8626 15.0811 12.5673C14.7378 11.979 14.2376 11.1885 13.6145 10.3925C12.9952 9.60128 12.2298 8.77246 11.3486 8.13386C10.4705 7.49749 9.40591 6.99915 8.2123 6.99915C4.11584 6.99915 0.699219 10.0833 0.699219 14.0001C0.699219 17.9168 4.11584 21.001 8.2123 21.001C9.40591 21.001 10.4705 20.5026 11.3486 19.8662C12.2298 19.2276 12.9952 18.3988 13.6145 17.6077C14.2376 16.8116 14.7378 16.0211 15.0811 15.4328C15.2535 15.1375 15.3879 14.8904 15.4802 14.7153C15.5263 14.6277 15.562 14.5579 15.5866 14.509C15.599 14.4845 15.6086 14.4652 15.6153 14.4515L15.6234 14.4351L15.6258 14.4302L15.6269 14.4279C15.6269 14.4279 15.6272 14.4274 14.7009 14.0001ZM14.7009 14.0001L15.6269 14.4279L15.834 14.0001L15.6269 13.5722L14.7009 14.0001Z" fill="#33A9FF"/>
<path fill-rule="evenodd" clip-rule="evenodd" d="M15.8476 14.0001C15.9163 14.1259 16 14.2753 16.0976 14.4426C16.4109 14.9794 16.861 15.6891 17.4121 16.3932C17.9671 17.1022 18.5998 17.7736 19.2712 18.2602C19.9456 18.7489 20.588 19.0007 21.1861 19.0007C24.2568 19.0007 26.6502 16.7116 26.6502 14.0001C26.6502 11.2885 24.2568 8.9994 21.1861 8.9994C20.588 8.9994 19.9456 9.25116 19.2712 9.73993C18.5998 10.2265 17.9671 10.8979 17.4121 11.6069C16.861 12.311 16.4109 13.0207 16.0976 13.5575C16 13.7248 15.9163 13.8742 15.8476 14.0001ZM14.6976 14.0001L13.7713 14.4274L13.5644 14.0001L13.7713 13.5727L14.6976 14.0001ZM18.0498 8.13386C18.9279 7.49749 19.9925 6.99915 21.1861 6.99915C25.2826 6.99915 28.6992 10.0833 28.6992 14.0001C28.6992 17.9168 25.2826 21.001 21.1861 21.001C19.9925 21.001 18.9279 20.5026 18.0498 19.8662C17.1686 19.2276 16.4032 18.3988 15.7839 17.6077C15.1608 16.8116 14.6607 16.0211 14.3173 15.4328C14.145 15.1375 14.0105 14.8904 13.9183 14.7153C13.8721 14.6277 13.8365 14.5579 13.8118 14.509C13.7995 14.4845 13.7899 14.4652 13.7831 14.4515L13.7751 14.4351L13.7726 14.4302L13.7713 14.4274C13.7713 14.4274 13.7713 14.4274 14.6976 14.0001C13.7713 13.5727 13.7713 13.5727 13.7713 13.5727L13.7726 13.5699L13.7751 13.565L13.7831 13.5486C13.7899 13.5349 13.7995 13.5156 13.8118 13.4911C13.8365 13.4422 13.8721 13.3724 13.9183 13.2848C14.0105 13.1098 14.145 12.8626 14.3173 12.5673C14.6607 11.979 15.1608 11.1885 15.7839 10.3925C16.4032 9.60128 17.1686 8.77246 18.0498 8.13386Z" fill="#33A9FF"/>
</g>
<defs>
<clipPath id="clip0_20148_108693">
<rect width="28" height="28" fill="white" transform="translate(0.699219)"/>
</clipPath>
</defs>
</svg>
