<svg xmlns="http://www.w3.org/2000/svg" width="16" height="16" fill="transparent" viewBox="0 0 16 16">
  <g clip-path="url(#a)">
    <path fill="currentColor" d="M.668 10.533V5.467c0-.363 0-.675.02-.93.022-.264.07-.526.198-.779a2 2 0 0 1 .874-.873c.252-.129.514-.177.778-.198.256-.021.568-.02.93-.02h1.168a.667.667 0 0 1 0 1.333H3.468c-.384 0-.633 0-.822.016-.18.015-.248.04-.28.057a.666.666 0 0 0-.292.29c-.017.034-.042.101-.056.282a10.9 10.9 0 0 0-.017.822V6h4.4a.667.667 0 0 1 0 1.333h-4.4v3.2c0 .385.001.633.017.822.014.18.04.248.056.281a.667.667 0 0 0 .291.291c.033.017.1.043.281.057.19.016.438.016.822.016h6.348a.667.667 0 0 1 0 1.333H3.468c-.362 0-.674.001-.93-.02a2.037 2.037 0 0 1-.778-.198 2 2 0 0 1-.874-.873 2.037 2.037 0 0 1-.198-.779c-.02-.255-.02-.567-.02-.93Zm13.333 0v-3.2H9.55A.667.667 0 0 1 9.55 6H14v-.533c0-.385 0-.633-.016-.822-.015-.18-.04-.248-.057-.281a.666.666 0 0 0-.29-.291c-.034-.017-.1-.042-.282-.057A11.298 11.298 0 0 0 12.534 4H7.663a.667.667 0 0 1 0-1.333h4.871c.363 0 .675-.001.93.02.264.021.527.07.779.198a2 2 0 0 1 .873.873c.13.253.177.515.199.778.02.256.02.568.02.93v5.067c0 .363 0 .675-.02.93-.022.264-.07.526-.198.779a1.999 1.999 0 0 1-.874.873 2.036 2.036 0 0 1-.778.198c-.256.021-.31.02-.672.02h-.165a.667.667 0 0 1 0-1.333h.165c.384 0 .374 0 .563-.016.181-.014.248-.04.281-.057a.666.666 0 0 0 .291-.29c.017-.034.042-.101.057-.282.016-.19.016-.437.016-.822Z"/>
    <path fill="currentColor" d="M3.342.75a.666.666 0 0 1 .905.262l7.333 13.334a.666.666 0 1 1-1.168.642L3.08 1.654A.666.666 0 0 1 3.342.75Z"/>
  </g>
  <defs>
    <clipPath id="a">
      <path fill="currentColor" d="M0 0h16v16H0z"/>
    </clipPath>
  </defs>
</svg>
