<svg xmlns="http://www.w3.org/2000/svg" width="24" height="24" fill="currentColor" viewBox="0 0 24 24">
  <path d="M5.15 21.816c1.16.139 2.464.89 3.555 1.023 1.097.139 1.437-.747 1.437-.747s1.234-.276 2.532-.307a10.63 10.63 0 0 1 2.528.27s.239.546.684.784c.445.243 1.403.276 2.017-.37.616-.653 2.257-1.474 3.18-1.987.927-.514.757-1.299.174-1.537-.582-.238-1.059-.614-1.023-1.335.032-.715-.514-1.192-.514-1.192s.478-1.574.033-2.878c-.445-1.297-1.913-3.384-3.042-4.953-1.128-1.574-.17-3.39-1.198-5.712C14.486.549 11.821.687 10.385 1.678c-1.436.991-.996 3.45-.927 4.615.07 1.16.032 1.99-.1 2.29-.134.302-1.06 1.403-1.675 2.325-.615.926-1.06 2.84-1.51 3.628-.44.785-.132 1.5-.132 1.5s-.308.106-.551.62c-.239.509-.715.752-1.574.917-.852.175-.852.725-.647 1.34.207.615 0 .959-.238 1.743-.239.785.954 1.023 2.12 1.16Zm12.061-3.578c.61.267 1.486-.105 1.753-.371.265-.266.453-.66.453-.66s.266.133.24.554c-.029.428.183 1.037.582 1.248.4.21 1.009.504.693.798-.322.294-2.102 1.01-2.634 1.569-.527.555-1.22 1.01-1.642.876-.426-.133-.799-.715-.615-1.568.189-.849.348-1.78.321-2.312-.028-.532-.132-1.249 0-1.354.133-.105.345-.054.345-.054s-.106 1.009.504 1.274ZM13.256 3.866c.587 0 1.06.582 1.06 1.299 0 .508-.238.949-.587 1.16-.088-.036-.18-.078-.28-.12.211-.104.358-.37.358-.679 0-.402-.248-.734-.56-.734-.302 0-.555.332-.555.734 0 .147.037.294.097.41a24.755 24.755 0 0 0-.482-.189 1.583 1.583 0 0 1-.11-.582c0-.717.472-1.3 1.06-1.3Zm-1.454 2.238c.29.05 1.083.395 1.377.5.293.101.618.29.587.477-.037.194-.188.194-.587.437-.395.239-1.257.77-1.533.807-.275.036-.431-.119-.725-.308-.293-.192-.844-.642-.705-.88 0 0 .43-.33.618-.5.188-.175.675-.587.968-.533Zm-1.266-2.031c.463 0 .84.55.84 1.23 0 .122-.014.237-.037.353a.945.945 0 0 0-.34.192c-.054.046-.105.087-.15.133a.892.892 0 0 0 .068-.542c-.064-.366-.312-.637-.555-.6-.244.04-.39.376-.33.747.064.376.307.647.555.606l.04-.014a3.063 3.063 0 0 1-.343.298C9.949 6.32 9.7 5.853 9.7 5.302c0-.683.371-1.23.835-1.23Zm-2.578 8.885c.477-.752.785-2.395 1.262-2.94.481-.546.852-1.707.683-2.22 0 0 1.028 1.23 1.743 1.027.716-.206 2.326-1.403 2.565-1.198.238.207 2.289 4.717 2.495 6.153.207 1.435-.137 2.532-.137 2.532s-.784-.207-.885.27c-.101.482-.101 2.226-.101 2.226s-1.06 1.468-2.703 1.71c-1.642.24-2.464.065-2.464.065l-.922-1.055s.717-.106.616-.826c-.101-.715-2.19-1.707-2.565-2.597-.376-.89-.07-2.394.413-3.147Zm-4.06 5.386c.083-.353 1.147-.353 1.555-.6.41-.248.491-.96.821-1.148.326-.192.927.491 1.175.876.243.376 1.174 2.02 1.555 2.428.385.412.738.958.628 1.449-.105.49-.684.849-.684.849-.517.16-1.962-.464-2.618-.739-.657-.276-2.327-.358-2.542-.601-.22-.248.106-.794.193-1.312.077-.523-.166-.849-.082-1.202Z"/>
</svg>
