<svg xmlns="http://www.w3.org/2000/svg" width="24" height="24" fill="currentColor" viewBox="0 0 24 24">
  <path d="M18.424 22.5c-.902 0-1.689-.142-2.359-.424-.67-.288-1.198-.687-1.586-1.196a3.308 3.308 0 0 1-.664-1.77l-.008-.107h1.835l.008.091c.039.36.18.673.424.939.249.265.581.473.996.622.421.15.9.225 1.437.225.504 0 .952-.08 1.345-.241.393-.16.7-.382.922-.665.227-.282.34-.606.34-.971v-.008c0-.46-.174-.842-.522-1.146-.35-.305-.92-.543-1.711-.715l-1.312-.274c-1.213-.26-2.096-.672-2.65-1.237-.553-.57-.83-1.299-.83-2.184v-.009c.005-.692.19-1.3.556-1.827.371-.526.883-.935 1.537-1.229.653-.293 1.403-.44 2.25-.44s1.587.147 2.218.44c.636.288 1.138.681 1.503 1.18.37.498.579 1.06.623 1.685l.008.108h-1.819l-.016-.108a1.695 1.695 0 0 0-.407-.872 2.149 2.149 0 0 0-.872-.598c-.36-.15-.78-.221-1.263-.216-.465 0-.88.072-1.245.216-.366.139-.656.34-.872.607-.21.265-.316.586-.316.963v.008c0 .443.169.814.507 1.113.343.293.9.523 1.669.69l1.312.29c.836.177 1.514.412 2.035.706.52.293.9.656 1.138 1.088.243.426.365.936.365 1.528v.008c0 .764-.188 1.426-.565 1.985-.37.554-.9.983-1.586 1.287-.686.305-1.495.457-2.425.457Zm-11.826 0c-1.163 0-2.163-.256-2.999-.765-.836-.515-1.478-1.243-1.926-2.184C1.224 18.61 1 17.5 1 16.221v-.017c0-1.29.227-2.403.681-3.338.454-.936 1.099-1.659 1.935-2.168.842-.51 1.835-.764 2.982-.764 1.151 0 2.145.255 2.981.764.836.51 1.478 1.235 1.927 2.176.454.935.68 2.046.68 3.33v.017c0 1.279-.223 2.389-.672 3.33-.448.936-1.093 1.661-1.935 2.176-.836.515-1.83.772-2.982.772Zm0-1.654c.752 0 1.406-.19 1.96-.573.553-.381.98-.919 1.278-1.61.3-.698.449-1.512.449-2.442v-.017c0-.941-.15-1.758-.449-2.45-.299-.692-.725-1.226-1.279-1.603-.553-.376-1.207-.564-1.96-.564-.752 0-1.406.188-1.96.564-.548.377-.974.911-1.278 1.603-.305.692-.457 1.509-.457 2.45v.017c0 .93.147 1.744.44 2.441.299.692.723 1.23 1.27 1.611.554.383 1.216.573 1.986.573ZM18.12 7.684c-.437 0-.814-.094-1.133-.282a1.9 1.9 0 0 1-.73-.814c-.172-.352-.258-.771-.258-1.258v-.01c0-.479.084-.891.253-1.237.172-.346.416-.613.731-.802.319-.188.696-.282 1.134-.282.379 0 .704.066.976.2.274.13.49.31.651.54.164.226.266.485.308.776l.004.02h-.868l-.004-.008a.97.97 0 0 0-.345-.552c-.18-.15-.42-.224-.718-.224-.25 0-.464.063-.644.19-.18.125-.318.305-.415.54a2.255 2.255 0 0 0-.141.84v.008c0 .332.048.617.145.855.097.238.236.422.415.552.18.128.393.191.64.191.282 0 .51-.062.685-.187a.99.99 0 0 0 .374-.552l.008-.02.864-.005-.008.038a1.87 1.87 0 0 1-.32.772 1.65 1.65 0 0 1-.644.523c-.266.125-.585.187-.96.187Zm-5.298-.013c-.285 0-.541-.053-.768-.161a1.306 1.306 0 0 1-.531-.47 1.283 1.283 0 0 1-.196-.71v-.008a1.2 1.2 0 0 1 .196-.694c.132-.19.323-.34.572-.448.252-.11.557-.177.914-.2l1.665-.099v.635l-1.54.1c-.31.02-.539.086-.686.2a.553.553 0 0 0-.22.469v.008c0 .205.08.367.237.486a.981.981 0 0 0 .598.174c.224 0 .424-.044.598-.133.177-.091.316-.213.415-.365.1-.155.15-.33.15-.523v-1.42c0-.25-.078-.44-.233-.57-.152-.132-.38-.199-.68-.199-.253 0-.459.045-.62.133a.652.652 0 0 0-.315.374l-.008.012h-.868l.004-.029c.036-.249.134-.465.295-.647.163-.186.376-.33.64-.432.265-.103.568-.154.909-.154.379 0 .7.06.963.183.266.119.466.292.602.519.138.224.208.494.208.81v3.085h-.897v-.64h-.067a1.376 1.376 0 0 1-.332.39 1.45 1.45 0 0 1-.453.241 1.764 1.764 0 0 1-.552.083Zm-8.666-.074v-4.51h.9v.694h.072c.1-.25.254-.442.465-.578.213-.135.467-.203.764-.203.205 0 .389.033.552.1.163.066.303.16.42.282.118.12.211.26.278.424h.07a1.25 1.25 0 0 1 .316-.424c.135-.122.293-.216.473-.282.183-.067.377-.1.581-.1.305 0 .565.06.781.179.216.116.38.285.494.506.114.222.17.489.17.802v3.11h-.9V4.702c0-.207-.032-.379-.096-.514a.65.65 0 0 0-.29-.312 1 1 0 0 0-.482-.104.914.914 0 0 0-.835.482 1.017 1.017 0 0 0-.116.49v2.853h-.901V4.61a.873.873 0 0 0-.108-.444.69.69 0 0 0-.3-.29.968.968 0 0 0-.46-.105.868.868 0 0 0-.486.142 1.003 1.003 0 0 0-.336.382 1.124 1.124 0 0 0-.125.531v2.77h-.901Z"/>
</svg>
