<svg xmlns="http://www.w3.org/2000/svg" width="24" height="24" fill="currentColor" viewBox="0 0 24 24">
  <path d="M10.167 13.834v5.917a.918.918 0 0 1-1.08.901L1.752 19.32A.917.917 0 0 1 1 18.417v-4.583c0-.507.41-.917.917-.917H9.25c.505 0 .917.41.917.917Zm-.33-10.288a.913.913 0 0 0-.75-.198L1.752 4.682A.916.916 0 0 0 1 5.584v4.583c0 .505.41.917.917.917H9.25a.918.918 0 0 0 .917-.917V4.25a.919.919 0 0 0-.33-.704Zm12.246 9.37h-9.166a.916.916 0 0 0-.917.918v6.582a.916.916 0 0 0 .753.903l9.166 1.666a.918.918 0 0 0 1.08-.902v-8.25a.917.917 0 0 0-.916-.916Zm.588-11.703a.912.912 0 0 0-.752-.198l-9.166 1.667a.916.916 0 0 0-.753.902v6.583c0 .505.41.917.917.917h9.166a.918.918 0 0 0 .917-.917v-8.25a.919.919 0 0 0-.329-.704Z"/>
</svg>
