<svg xmlns="http://www.w3.org/2000/svg" width="24" height="24" fill="currentColor" viewBox="0 0 25 24">
  <path d="M16.78 8.836a1.08 1.08 0 1 1 1.521 1.533l-5.04 5a1.08 1.08 0 0 1-1.521 0l-5.04-5-.075-.081a1.08 1.08 0 0 1 1.514-1.526l.082.074 4.28 4.245 4.279-4.245Z"/>
  <path d="M11.42 14.602v-12a1.08 1.08 0 0 1 2.16 0v12a1.08 1.08 0 0 1-2.16 0Z"/>
  <path d="M1.82 18v-2.4a1.08 1.08 0 0 1 2.16 0V18c0 .729.591 1.32 1.32 1.32h14.4c.73 0 1.32-.591 1.32-1.32v-2.4a1.08 1.08 0 0 1 2.16 0V18a3.48 3.48 0 0 1-3.48 3.48H5.3A3.48 3.48 0 0 1 1.82 18Z"/>
</svg>
