<svg xmlns="http://www.w3.org/2000/svg" width="24" height="24" fill="currentColor" viewBox="0 0 24 24">
  <path d="M6.82 16.524a1.32 1.32 0 0 0-2.64 0v2.04l.006.135a1.32 1.32 0 0 0 2.635-.134v-2.04Zm2.16 2.04a3.48 3.48 0 0 1-6.956.18l-.004-.18v-2.04a3.481 3.481 0 0 1 6.96 0v2.04Z"/>
  <path d="M19.82 17.71v-5.774a7.82 7.82 0 0 0-15.64 0v5.775a1.08 1.08 0 0 1-2.16 0v-5.775c0-5.512 4.469-9.98 9.98-9.98 5.512 0 9.98 4.468 9.98 9.98v5.775a1.08 1.08 0 0 1-2.16 0Z"/>
  <path d="M19.82 16.524a1.32 1.32 0 0 0-2.64 0v2.04l.005.135a1.32 1.32 0 0 0 2.635-.134v-2.04Zm2.16 2.04a3.48 3.48 0 0 1-6.957.18l-.005-.18v-2.04a3.481 3.481 0 0 1 6.962 0v2.04Z"/>
</svg>
