<svg width="16" height="17" viewBox="0 0 16 17" fill="none" xmlns="http://www.w3.org/2000/svg">
<path d="M3.16138 3.74649V3.41068C3.16138 2.5691 3.84361 1.88687 4.68519 1.88687L9.7844 1.88687C10.1918 1.88687 10.5822 2.04997 10.8684 2.33976L13.6242 5.12929C13.906 5.41451 14.064 5.79928 14.064 6.20021L14.064 11.8689C14.064 12.7105 13.3818 13.3928 12.5402 13.3928H12.4624" stroke="#2E3A48" stroke-width="1.33333" stroke-linecap="round"/>
<path d="M12.2046 13.5894V7.50312C12.2046 7.10219 12.0466 6.71742 11.7648 6.4322L9.61334 4.25441C9.32706 3.96461 8.93667 3.80151 8.52931 3.80151H3.45984C2.61827 3.80151 1.93604 4.48375 1.93604 5.32532V5.80165V11.8728V13.5894C1.93604 14.4309 2.61827 15.1132 3.45984 15.1132H10.6808C11.5223 15.1132 12.2046 14.4309 12.2046 13.5894Z" stroke="#2E3A48" stroke-width="1.33333" stroke-linecap="round"/>
<path d="M7.67505 9.77499H4.46147" stroke="#12A3FC" stroke-width="1.33333" stroke-linecap="round"/>
<path d="M9.39722 12.2698H4.46155" stroke="#12A3FC" stroke-width="1.33333" stroke-linecap="round"/>
</svg>
