<svg xmlns="http://www.w3.org/2000/svg" width="24" height="24" fill="none" viewBox="0 0 24 24">
  <path fill="currentColor" d="M3.742 4.87v-.504A3.286 3.286 0 0 1 7.028 1.08h7.649c.878 0 1.72.352 2.338.977l4.132 4.184.112.118c.538.6.837 1.38.837 2.191v8.503l-.004.17a3.286 3.286 0 0 1-3.281 3.116h-.118a1 1 0 0 1 0-2h.117c.666 0 1.214-.506 1.28-1.154l.006-.132V8.55c0-.296-.102-.582-.287-.81l-.085-.093-4.132-4.185a1.286 1.286 0 0 0-.915-.382H7.028c-.71 0-1.286.576-1.286 1.286v.503a1 1 0 1 1-2 0Z"/>
  <path fill="currentColor" d="M1.904 19.634V7.238A3.286 3.286 0 0 1 5.19 3.952h7.604c.878 0 1.72.352 2.338.977l3.226 3.266c.608.615.948 1.445.948 2.31v9.129a3.286 3.286 0 0 1-3.285 3.286H5.191a3.286 3.286 0 0 1-3.287-3.286Zm2 0c0 .71.576 1.286 1.286 1.286h10.831c.71 0 1.285-.576 1.285-1.286v-9.13c0-.337-.133-.663-.37-.903l-3.227-3.267a1.286 1.286 0 0 0-.915-.382H5.19c-.71 0-1.286.576-1.286 1.286v12.396Z"/>
  <path fill="#12A3FC" d="m14.095 16.655.103.005a1 1 0 0 1 0 1.99l-.103.005H6.692a1 1 0 1 1 0-2h7.403Zm-2.583-3.743.103.005a1 1 0 0 1 0 1.99l-.103.005h-4.82a1 1 0 1 1 0-2h4.82Z"/>
</svg>
