<svg width="28" height="28" viewBox="0 0 28 28" fill="none" xmlns="http://www.w3.org/2000/svg">
<path d="M4 0.299805H24C26.0435 0.299805 27.7002 1.95655 27.7002 4V24C27.7002 26.0435 26.0435 27.7002 24 27.7002H4C1.95655 27.7002 0.299805 26.0435 0.299805 24V4C0.299805 1.95655 1.95655 0.299805 4 0.299805Z" fill="white" stroke="#F1F5F8" stroke-width="0.6"/>
<g style="mix-blend-mode:plus-darker" opacity="0.5">
<path d="M6.82446 10.667C6.82446 9.56242 7.71989 8.66699 8.82446 8.66699H15.6308C16.7354 8.66699 17.6308 9.56242 17.6308 10.667V17.3328C17.6308 18.4373 16.7354 19.3328 15.6308 19.3328H8.82447C7.7199 19.3328 6.82446 18.4373 6.82446 17.3328V10.667Z" fill="#D2D2D2"/>
</g>
<g style="mix-blend-mode:plus-darker">
<path d="M14.6282 13.2161L19.5548 9.31547C20.2104 8.79642 21.1755 9.26332 21.1755 10.0995L21.1755 17.9008C21.1755 18.737 20.2104 19.2038 19.5548 18.6848L14.6282 14.7841C14.1225 14.3838 14.1225 13.6165 14.6282 13.2161Z" fill="#B3B3B3"/>
</g>
</svg>
