<svg width="24" height="24" viewBox="0 0 24 24" fill="none" xmlns="http://www.w3.org/2000/svg">
<g id="Ad Strategy">
<path id="Rectangle 3083" d="M16.6095 7.44028L18.9484 7.75113L21.9774 4.72213L19.6385 4.41129L19.3276 2.07233L16.2986 5.10132L16.6095 7.44028ZM16.6095 7.44028L12.2254 11.8244" stroke="#12A3FC" stroke-width="2" stroke-linecap="round" stroke-linejoin="round"/>
<path id="Ellipse 357" d="M21.2885 12.2946C21.2885 17.6147 16.9756 21.9276 11.6555 21.9276C6.33531 21.9276 2.02246 17.6147 2.02246 12.2946C2.02246 6.97441 6.33531 2.66156 11.6555 2.66156" stroke="#2E3A48" stroke-width="2" stroke-linecap="round" stroke-linejoin="round"/>
<path id="Ellipse 358" d="M16.4719 12.2946C16.4719 13.2472 16.1894 14.1784 15.6602 14.9705C15.1309 15.7626 14.3787 16.3799 13.4986 16.7445C12.6185 17.109 11.65 17.2044 10.7157 17.0186C9.78141 16.8327 8.92319 16.374 8.24959 15.7004C7.57599 15.0268 7.11726 14.1686 6.93141 13.2342C6.74557 12.2999 6.84095 11.3315 7.2055 10.4514C7.57005 9.5713 8.1874 8.81906 8.97947 8.28982C9.77154 7.76057 10.7028 7.47809 11.6554 7.47809" stroke="#2E3A48" stroke-width="2" stroke-linecap="round" stroke-linejoin="round"/>
</g>
</svg>
