<svg xmlns="http://www.w3.org/2000/svg" width="24" height="24" fill="none" viewBox="0 0 24 24">
  <path fill="#12A3FC" d="m11.518 11.118 4.035-4.035-.246-1.85c-.04-.308.065-.619.285-.839l3.029-3.029.106-.092a1 1 0 0 1 1.592.667l.21 1.58 1.58.211.14.028a1 1 0 0 1 .436 1.67l-3.03 3.029a1 1 0 0 1-.838.285l-1.849-.247-4.035 4.036a1 1 0 0 1-1.415-1.414Zm7.989-5.715a1 1 0 0 1-.824-.697l-.036-.163-.044-.332-1.247 1.248.144 1.09 1.091.145 1.248-1.248-.332-.043Z"/>
  <path fill="currentColor" d="M1.022 12.294c0-5.872 4.761-10.632 10.633-10.632a1 1 0 1 1 0 2 8.633 8.633 0 1 0 8.633 8.632 1 1 0 0 1 2 0c0 5.873-4.76 10.633-10.633 10.633-5.872 0-10.633-4.76-10.633-10.633Zm10.633-5.816a1 1 0 0 1 0 2c-.66 0-1.308.171-1.88.495l-.24.149a3.82 3.82 0 0 0-1.288 1.456l-.117.256a3.817 3.817 0 0 0-.218 2.206l.066.274a3.818 3.818 0 0 0 2.933 2.724l.279.044a3.817 3.817 0 0 0 1.926-.261l.256-.118a3.817 3.817 0 0 0 2.1-3.409 1 1 0 0 1 2 0 5.817 5.817 0 0 1-3.393 5.288l-.198.086a5.817 5.817 0 0 1-3.149.37L10.521 18a5.817 5.817 0 0 1-4.524-4.36l-.047-.21a5.817 5.817 0 0 1 .331-3.361l.087-.197a5.816 5.816 0 0 1 2.056-2.414l.181-.116a5.816 5.816 0 0 1 3.05-.864Z"/>
</svg>
