<svg xmlns="http://www.w3.org/2000/svg" width="24" height="24" fill="currentColor" viewBox="0 0 24 24">
  <path fill="#12A3FC" d="M21.555 12.06V7.84a1 1 0 1 1 2 0v4.22a1 1 0 1 1-2 0Z"/>
  <path d="M17.86 4.806c0-.569 0-.935-.021-1.195-.005-.064-.015-.111-.02-.146a2.376 2.376 0 0 0-.153.064 19.59 19.59 0 0 0-1.13.59v.001c-1.767.963-4.243 2.08-6.383 2.08H6.512c-.903 0-1.52.002-1.998.04-.467.039-.712.108-.886.197a2.166 2.166 0 0 0-.946.946c-.09.174-.159.42-.197.886-.039.478-.04 1.095-.04 1.998v1.267c0 .505 0 .834.018 1.086.016.244.046.342.067.394.113.272.329.489.6.602.053.021.151.05.394.066.253.017.582.018 1.087.018a1 1 0 0 1 1 1v4.486c0 .268.002.33.006.372.052.527.47.945.997.997.041.004.104.006.372.006s.331-.002.373-.006l.098-.014c.48-.09.85-.489.9-.983.003-.042.004-.104.004-.372V14.7a1 1 0 0 1 1-1h.792c2.14 0 4.616 1.118 6.383 2.08.528.288.874.476 1.13.591a2.3 2.3 0 0 0 .153.063c.005-.035.015-.082.02-.145.02-.26.021-.626.021-1.195V4.806Zm2 10.288c0 .533.001.994-.027 1.354-.026.331-.087.78-.357 1.157a1.997 1.997 0 0 1-1.42.845h-.001c-.467.056-.904-.116-1.212-.255-.342-.154-.766-.387-1.264-.659-1.677-.914-3.658-1.758-5.218-1.83v3.48c0 .22.002.404-.014.568a3.111 3.111 0 0 1-2.791 2.791h-.001c-.165.016-.348.016-.569.016-.11 0-.212 0-.305-.002l-.263-.014a3.11 3.11 0 0 1-2.791-2.79c-.016-.165-.016-.348-.016-.57v-3.497a7.496 7.496 0 0 1-.222-.011c-.346-.024-.687-.075-1.023-.214A3.112 3.112 0 0 1 .682 13.78c-.14-.336-.19-.678-.214-1.024-.023-.336-.023-.745-.023-1.223v-1.266c0-.87 0-1.583.047-2.161.048-.59.151-1.127.407-1.63a4.169 4.169 0 0 1 1.822-1.821c.503-.257 1.04-.36 1.63-.408C4.928 4.2 5.64 4.2 6.51 4.2h3.642c1.59 0 3.674-.881 5.426-1.836.498-.272.922-.504 1.264-.658.308-.139.745-.312 1.212-.255a1.998 1.998 0 0 1 1.421.844c.27.376.33.825.357 1.157.028.36.027.82.027 1.354v10.288Z"/>
</svg>
