<svg width="24" height="24" viewBox="0 0 24 24" fill="none" xmlns="http://www.w3.org/2000/svg">
<g id="Affiliate Marketing">
<path id="Vector" d="M22.5547 7.83914V12.0611" stroke="#12A3FC" stroke-width="2" stroke-linecap="round" stroke-linejoin="round"/>
<path id="Vector_2" d="M10.153 5.20047H6.51161C4.73824 5.20047 3.85155 5.20047 3.17422 5.54559C2.57841 5.84917 2.09401 6.33357 1.79043 6.92938C1.44531 7.60672 1.44531 8.49341 1.44531 10.2668V11.5333C1.44531 12.5169 1.44531 13.0087 1.606 13.3967C1.82025 13.9139 2.2312 14.3249 2.74844 14.5391C3.13638 14.6998 3.62817 14.6998 4.61175 14.6998V19.1856C4.61175 19.4306 4.61175 19.5532 4.62191 19.6563C4.72063 20.6586 5.51356 21.4516 6.5158 21.5503C6.61901 21.5604 6.74153 21.5604 6.98658 21.5604C7.23163 21.5604 7.35416 21.5604 7.45736 21.5503C8.45959 21.4516 9.25253 20.6586 9.35124 19.6563C9.36141 19.5532 9.36141 19.4306 9.36141 19.1856V14.6998H10.153C12.0174 14.6998 14.2981 15.6992 16.0577 16.6584C17.0841 17.2179 17.5974 17.4977 17.9336 17.4566C18.2453 17.4184 18.481 17.2784 18.6637 17.023C18.8607 16.7476 18.8607 16.1964 18.8607 15.0942V4.80603C18.8607 3.70381 18.8607 3.15269 18.6637 2.87725C18.481 2.62183 18.2453 2.48188 17.9336 2.4437C17.5974 2.40253 17.0841 2.68231 16.0577 3.24188C14.2981 4.20105 12.0174 5.20047 10.153 5.20047Z" stroke="#2C2E30" stroke-width="2" stroke-linecap="round" stroke-linejoin="round"/>
</g>
</svg>
