<svg xmlns="http://www.w3.org/2000/svg" width="24" height="24" fill="none" viewBox="0 0 24 24">
  <path fill="#12A3FC" d="M21.555 12.06V7.84a1 1 0 1 1 2 0v4.22a1 1 0 1 1-2 0Z"/>
  <path fill="currentColor" d="M17.86 4.806c0-.569 0-.935-.021-1.195-.005-.064-.015-.111-.02-.146a2.382 2.382 0 0 0-.153.064 19.66 19.66 0 0 0-1.13.59c-1.767.963-4.243 2.081-6.383 2.081H6.512c-.903 0-1.52.002-1.998.04-.35.03-.576.076-.74.134l-.146.063a2.167 2.167 0 0 0-.863.798l-.083.148c-.09.174-.159.42-.197.886-.039.478-.04 1.095-.04 1.998v1.267c0 .505 0 .834.018 1.086.016.244.046.342.067.394l.047.1c.12.225.316.403.554.502l.125.035c.061.012.147.023.268.03.253.018.582.019 1.087.019a1 1 0 0 1 1 1v4.486c0 .268.002.33.006.372l.014.098c.09.48.489.85.983.899.042.004.104.006.372.006s.331-.002.373-.006l.098-.014c.48-.09.85-.489.9-.983l.004-.372V14.7a1 1 0 0 1 1-1h.792c2.14 0 4.616 1.118 6.383 2.08l.667.36c.184.098.335.174.463.231a2.3 2.3 0 0 0 .153.063c.005-.035.015-.082.02-.145.02-.26.021-.626.021-1.195V4.806Zm2 10.288c0 .533.001.995-.027 1.354-.023.29-.072.67-.265 1.013l-.092.144a1.997 1.997 0 0 1-1.42.845c-.467.056-.905-.116-1.213-.255-.17-.077-.362-.174-.573-.285l-.691-.374c-1.677-.914-3.658-1.758-5.218-1.83v3.785l-.014.263a3.111 3.111 0 0 1-2.791 2.791c-.165.016-.349.016-.57.016-.11 0-.212 0-.305-.002l-.263-.014a3.11 3.11 0 0 1-2.752-2.517l-.04-.274c-.015-.164-.015-.347-.015-.568v-3.498a7.862 7.862 0 0 1-.222-.01 3.592 3.592 0 0 1-.77-.126l-.253-.089A3.112 3.112 0 0 1 .745 13.92l-.063-.14a3.189 3.189 0 0 1-.214-1.024c-.023-.336-.023-.745-.023-1.223v-1.266c0-.87 0-1.583.047-2.161.048-.59.151-1.127.407-1.63l.161-.287c.4-.653.975-1.185 1.66-1.534l.19-.09c.448-.192.924-.275 1.44-.318C4.93 4.2 5.641 4.2 6.512 4.2h3.641c1.59 0 3.674-.881 5.426-1.836l.691-.373c.211-.112.402-.208.573-.285.27-.121.638-.27 1.039-.266l.173.011.216.038c.493.11.903.384 1.205.806l.092.145c.192.342.242.722.265 1.012.028.36.027.82.027 1.354v10.288Z"/>
</svg>
