<svg xmlns="http://www.w3.org/2000/svg" width="24" height="24" fill="none" viewBox="0 0 24 24">
  <path fill="currentColor" d="M4.573 6.853v-.53a3.286 3.286 0 0 1 3.286-3.286h6.938c.879 0 1.721.351 2.338.976l2.948 2.984.11.118c.538.6.838 1.38.838 2.191v8.371a3.286 3.286 0 0 1-3.286 3.286H7.859a3.286 3.286 0 0 1-3.286-3.286v-2.276a1 1 0 1 1 2 0v2.276c0 .71.576 1.286 1.286 1.286h9.886c.71 0 1.286-.576 1.286-1.286v-8.37c0-.297-.102-.582-.287-.81l-.084-.094-2.947-2.985a1.287 1.287 0 0 0-.916-.381H7.86c-.71 0-1.286.576-1.286 1.286v.53a1 1 0 0 1-2 0Z"/>
  <path fill="#12A3FC" d="M3.101 8.534A1 1 0 1 1 4.61 9.847l-1.182 1.355L4.61 12.56l.063.08a1 1 0 0 1-1.5 1.307l-.07-.074-1.754-2.013a1 1 0 0 1 0-1.313l1.753-2.012Zm3.533-.098a1 1 0 0 1 1.34.024l.07.074 1.753 2.012.058.073a1 1 0 0 1-.058 1.24l-1.752 2.013-.07.074a1 1 0 0 1-1.438-1.387l1.18-1.357-1.18-1.355-.064-.08a1 1 0 0 1 .161-1.33Z"/>
</svg>
