<svg xmlns="http://www.w3.org/2000/svg" width="24" height="24" fill="currentColor" viewBox="0 0 24 24">
  <path fill="#12A3FC" d="M15 11a1 1 0 1 1 0 2h-5a1 1 0 1 1 0-2h5Zm0-4a1 1 0 1 1 0 2h-5a1 1 0 0 1 0-2h5Z"/>
  <path d="M18 17V5a1 1 0 0 0-1-1H4a1 1 0 0 1 0-2h13a3 3 0 0 1 3 3v12a1 1 0 1 1-2 0Z"/>
  <path d="M11 18v1c0 .344-.063.681-.176 1H20a1 1 0 0 0 1-1v-1H11ZM5 5a1 1 0 0 0-.901-.995L4 4a1 1 0 0 0-1 1v2h2V5Zm2 14 .005.099A1 1 0 0 0 9 19v-1a2 2 0 0 1 2-2h10a2 2 0 0 1 2 2v1a3 3 0 0 1-3 3H8a3 3 0 0 1-3-3V9H3a2 2 0 0 1-2-2V5a3 3 0 0 1 3-3l.297.015A3 3 0 0 1 7 5v14Z"/>
</svg>
