<svg xmlns="http://www.w3.org/2000/svg" width="24" height="24" fill="currentColor" viewBox="0 0 24 24">
  <path d="M8.192 10a1 1 0 1 1 0 2H6.69a1 1 0 1 1 0-2h1.502Zm5.879-4a1 1 0 0 1 0 2H6.69a1 1 0 1 1 0-2h7.38Zm3.619.8c0-.857 0-1.439-.037-1.889-.036-.438-.101-.663-.181-.82a2 2 0 0 0-.874-.873c-.157-.08-.381-.145-.82-.18C15.329 3 14.747 3 13.89 3h-6.4c-.857 0-1.44 0-1.89.037-.438.036-.662.101-.818.18a2 2 0 0 0-.875.875c-.08.156-.144.38-.18.82-.037.45-.037 1.031-.037 1.888v10.4c0 .857 0 1.439.037 1.889.036.438.1.663.18.82a2 2 0 0 0 .875.873c.156.08.38.145.819.18C6.05 21 6.633 21 7.489 21h.703a1 1 0 1 1 0 2h-.703c-.823 0-1.5.001-2.051-.044-.562-.046-1.08-.144-1.565-.392a4.001 4.001 0 0 1-1.748-1.748c-.247-.485-.345-1.002-.391-1.564-.045-.55-.044-1.228-.044-2.052V6.8c0-.824-.001-1.502.044-2.052.046-.562.144-1.08.391-1.564a4.001 4.001 0 0 1 1.748-1.748c.486-.248 1.003-.346 1.565-.392C5.988.999 6.666 1 7.489 1h6.4c.824 0 1.502-.001 2.053.044.562.046 1.079.144 1.564.392a4.001 4.001 0 0 1 1.748 1.748c.247.485.346 1.002.392 1.564.045.55.044 1.228.044 2.052a1 1 0 1 1-2 0Z"/>
  <path fill="#12A3FC" d="M21.185 16a5.1 5.1 0 1 0-10.199 0 5.1 5.1 0 0 0 10.2 0Zm-6 2.4v-2.627l-.863.864a.9.9 0 0 1-1.273-1.274l2.4-2.4.068-.062a.901.901 0 0 1 1.205.063l2.4 2.4a.9.9 0 0 1-1.273 1.273l-.863-.864V18.4a.9.9 0 0 1-1.8 0Zm7.8-2.4a6.9 6.9 0 1 1-13.8 0 6.9 6.9 0 0 1 13.8 0Z"/>
</svg>
