<svg xmlns="http://www.w3.org/2000/svg" width="24" height="24" fill="currentColor" viewBox="0 0 24 24">
  <path d="M13.995 18.73a1 1 0 0 0-.288-.609l-1.56-1.56a.207.207 0 0 0-.293-.001l-1.561 1.561a1 1 0 0 0-.293.707V21h4v-2.172l-.005-.099ZM16 21a2 2 0 0 1-2 2h-4a2 2 0 0 1-2-2v-2.172a3 3 0 0 1 .879-2.121l1.56-1.56a2.208 2.208 0 0 1 3.121 0l1.561 1.56.2.22A3 3 0 0 1 16 18.828V21Zm2.828-11a1 1 0 0 0-.707.293l-1.56 1.56a.207.207 0 0 0-.001.293l1.561 1.561a1 1 0 0 0 .707.293H21v-4h-2.172ZM23 14a2 2 0 0 1-2 2h-2.172a3 3 0 0 1-1.901-.68l-.22-.199-1.56-1.56a2.208 2.208 0 0 1-.48-2.406 2.21 2.21 0 0 1 .48-.716l1.56-1.56.22-.2A3 3 0 0 1 18.828 8H21a2 2 0 0 1 2 2v4ZM1 10a2 2 0 0 1 2-2h2.172a3 3 0 0 1 2.121.879l1.56 1.56a2.207 2.207 0 0 1 0 3.121v.002l-1.56 1.56A3.001 3.001 0 0 1 5.172 16H3a2 2 0 0 1-2-2v-4Zm2 4h2.172l.099-.005a1 1 0 0 0 .608-.288l1.56-1.56a.207.207 0 0 0 .001-.293l-1.561-1.561a1 1 0 0 0-.608-.288L5.17 10H3v4Z"/>
  <path fill="#12A3FC" d="M10 3v2.172l.005.099a1 1 0 0 0 .288.608l1.56 1.56a.208.208 0 0 0 .293 0l1.561-1.56a1 1 0 0 0 .288-.608l.005-.1V3h-4Zm6 2.172a3 3 0 0 1-.68 1.901l-.199.22-1.56 1.56a2.207 2.207 0 0 1-2.406.479 2.21 2.21 0 0 1-.716-.48v.002l-1.56-1.561A3 3 0 0 1 8 5.172V3a2 2 0 0 1 2-2h4a2 2 0 0 1 2 2v2.172Z"/>
</svg>
