<svg xmlns="http://www.w3.org/2000/svg" width="24" height="24" fill="none" viewBox="0 0 24 24">
  <path fill="#12A3FC" d="M11.466 7.214c.918-.008 2.112.065 2.975.565l.19.12c.913.62 1.249 1.582 1.19 2.454-.054.806-.458 1.668-1.185 2.128l-.15.087c-.856.448-1.85.541-2.724.552-.448.005-.9-.011-1.322-.028a76.543 76.543 0 0 0-.62-.024l-.576-.012-.101-.005a1 1 0 0 1 .101-1.995l.642.013c.214.007.428.016.636.024.423.018.828.032 1.216.028.799-.01 1.398-.104 1.819-.325l.064-.054a.866.866 0 0 0 .204-.523.697.697 0 0 0-.28-.638l-.105-.07c-.348-.202-1.041-.305-1.958-.297-.897.007-1.666.103-2.263.135a1 1 0 0 1-.11-1.997c.407-.022 1.42-.131 2.357-.138Z"/>
  <path fill="#12A3FC" d="M8.164 8.377a1 1 0 1 1 2 0v2.811a27.796 27.796 0 0 1 1.602-.066c1.032-.007 2.324.066 3.249.54l.205.114c.988.596 1.404 1.559 1.333 2.494-.065.857-.548 1.71-1.324 2.145l-.159.082c-.924.429-2.028.52-3.02.531-.51.006-1.025-.012-1.51-.029a69.206 69.206 0 0 0-.713-.023l-.663-.011a1 1 0 0 1-1-1V8.377Zm3.616 4.744c-.586.004-1.133.037-1.616.071v1.793l.446.016c.487.017.96.032 1.418.027.942-.01 1.684-.106 2.2-.345l.05-.03c.12-.084.26-.28.28-.535a.592.592 0 0 0-.07-.338.751.751 0 0 0-.237-.25l-.148-.088c-.445-.227-1.284-.328-2.323-.321Z"/>
  <path fill="#12A3FC" d="M9.492 8.213V6.775a1 1 0 1 1 2 0v1.438a1 1 0 1 1-2 0Zm0 9.012V16.03a1 1 0 0 1 2 0v1.196a1 1 0 1 1-2 0Zm2.728-9.012V6.775a1 1 0 1 1 2 0v1.438a1 1 0 1 1-2 0Zm0 9.012V16.03a1 1 0 0 1 2 0v1.196a1 1 0 1 1-2 0Z"/>
  <path fill="currentColor" d="M20.996 12a8.997 8.997 0 1 0-17.993 0 8.997 8.997 0 0 0 17.993 0Zm2 0c0 6.073-4.923 10.996-10.996 10.996S1.003 18.074 1.003 12C1.003 5.927 5.927 1.003 12 1.003c6.073 0 10.996 4.924 10.996 10.997Z"/>
</svg>
