<svg width="24" height="24" viewBox="0 0 24 24" fill="none" xmlns="http://www.w3.org/2000/svg">
<path d="M9.16406 8.3503C10.1677 8.29564 12.7285 7.94328 13.941 8.64467C15.3059 9.43415 14.9021 11.2202 14.0213 11.6821C12.7456 12.3512 10.8322 12.0568 9.24435 12.0568" stroke="#12A3FC" stroke-width="2" stroke-linecap="round" stroke-linejoin="round"/>
<path d="M9.16406 12.2579C10.2975 12.2032 13.1895 11.8509 14.5589 12.5523C16.1002 13.3417 15.6443 15.1278 14.6495 15.5897C13.2088 16.2588 10.9573 15.9644 9.16406 15.9644V8.37692" stroke="#12A3FC" stroke-width="2" stroke-linecap="round" stroke-linejoin="round"/>
<path d="M10.4917 6.77484C10.4917 6.85652 10.4917 7.76797 10.4917 8.21349" stroke="#12A3FC" stroke-width="2" stroke-linecap="round" stroke-linejoin="round"/>
<path d="M10.4917 16.029C10.4917 16.0969 10.4917 16.8547 10.4917 17.2252" stroke="#12A3FC" stroke-width="2" stroke-linecap="round" stroke-linejoin="round"/>
<path d="M13.2207 6.77484C13.2207 6.85652 13.2207 7.76797 13.2207 8.21349" stroke="#12A3FC" stroke-width="2" stroke-linecap="round" stroke-linejoin="round"/>
<path d="M13.2207 16.029C13.2207 16.0969 13.2207 16.8547 13.2207 17.2252" stroke="#12A3FC" stroke-width="2" stroke-linecap="round" stroke-linejoin="round"/>
<circle cx="12.0002" cy="12" r="9.99677" stroke="#2E3A48" stroke-width="2" stroke-linecap="round"/>
</svg>
