<svg xmlns="http://www.w3.org/2000/svg" width="24" height="24" fill="currentColor" viewBox="0 0 24 24">
  <path fill="#12A3FC" d="M11.466 7.214c.918-.008 2.112.065 2.976.565 1.056.61 1.442 1.644 1.38 2.574-.058.86-.515 1.784-1.336 2.215-.855.448-1.85.541-2.724.552-.448.005-.9-.011-1.321-.028-.43-.018-.825-.036-1.197-.036a1 1 0 0 1 0-2c.422 0 .863.02 1.278.038.424.017.828.032 1.216.027.8-.01 1.398-.104 1.819-.324.06-.032.245-.231.268-.578.019-.276-.076-.53-.384-.709-.35-.201-1.042-.304-1.958-.296-.898.007-1.667.103-2.264.135a1 1 0 0 1-.11-1.997c.407-.022 1.42-.131 2.357-.138Z"/>
  <path fill="#12A3FC" d="M8.164 8.377a1 1 0 0 1 2 0v2.811a27.796 27.796 0 0 1 1.602-.066c1.032-.007 2.324.067 3.249.54 1.135.582 1.613 1.61 1.538 2.607-.07.915-.615 1.825-1.483 2.228-.924.429-2.028.521-3.02.531-.51.006-1.025-.012-1.51-.029-.493-.017-.95-.034-1.376-.034a1 1 0 0 1-1-1V8.377Zm3.616 4.744c-.586.004-1.133.037-1.616.071v1.793l.447.016c.486.017.96.032 1.417.027.942-.01 1.684-.106 2.2-.345.127-.06.308-.274.33-.565a.592.592 0 0 0-.07-.338c-.053-.096-.16-.222-.385-.338-.445-.227-1.284-.328-2.323-.32Z"/>
  <path fill="#12A3FC" d="M9.492 8.213V6.775a1 1 0 1 1 2 0v1.438a1 1 0 1 1-2 0Zm0 9.012V16.03a1 1 0 1 1 2 0v1.196a1 1 0 0 1-2 0Zm2.728-9.012V6.775a1 1 0 1 1 2 0v1.438a1 1 0 1 1-2 0Zm0 9.012V16.03a1 1 0 1 1 2 0v1.196a1 1 0 0 1-2 0Z"/>
  <path d="M20.996 12a8.997 8.997 0 1 0-17.993 0 8.997 8.997 0 0 0 17.993 0Zm2 0c0 6.073-4.923 10.996-10.996 10.996S1.003 18.074 1.003 12C1.003 5.927 5.927 1.003 12 1.003c6.073 0 10.996 4.924 10.996 10.997Z"/>
</svg>
