<svg xmlns="http://www.w3.org/2000/svg" width="24" height="24" fill="currentColor" viewBox="0 0 24 24">
  <path fill="#12A3FC" d="M6 15v-4a1 1 0 1 1 2 0v4a1 1 0 0 0 1 1h4a1 1 0 1 1 0 2H9a3 3 0 0 1-3-3Z"/>
  <path d="M10 5a1 1 0 0 0-1-1H5a1 1 0 0 0-1 1v4a1 1 0 0 0 1 1h4a1 1 0 0 0 1-1V5Zm2 4a3 3 0 0 1-3 3H5a3 3 0 0 1-3-3V5a3 3 0 0 1 3-3h4a3 3 0 0 1 3 3v4Zm8 6a1 1 0 0 0-1-1h-4a1 1 0 0 0-1 1v4a1 1 0 0 0 1 1h4a1 1 0 0 0 1-1v-4Zm2 4a3 3 0 0 1-3 3h-4a3 3 0 0 1-3-3v-4a3 3 0 0 1 3-3h4a3 3 0 0 1 3 3v4Z"/>
</svg>
