<svg xmlns="http://www.w3.org/2000/svg" width="24" height="24" fill="none" viewBox="0 0 24 24">
  <path fill="currentColor" d="M17.992 6.182a3.287 3.287 0 0 1 3.232 2.688l1.784 9.637.03.19a3.285 3.285 0 0 1-3.26 3.694H4.223A3.286 3.286 0 0 1 .99 18.507L2.777 8.87a3.286 3.286 0 0 1 3.23-2.688h11.985Zm-11.985 2c-.62 0-1.15.443-1.264 1.052l-1.785 9.638c-.146.79.461 1.52 1.265 1.52h15.555a1.288 1.288 0 0 0 1.283-1.373l-.02-.147-1.784-9.638a1.286 1.286 0 0 0-1.265-1.052H6.007Z"/>
  <path fill="currentColor" d="m14.634 16.166.102.005a1 1 0 0 1 0 1.99l-.102.005H9.366a1 1 0 1 1 0-2h5.268Z"/>
  <path fill="#12A3FC" d="M15.779 8.354V6.76a3.78 3.78 0 0 0-7.559 0v1.594a1 1 0 0 1-2 0V6.76a5.78 5.78 0 0 1 11.559 0v1.594a1 1 0 0 1-2 0Z"/>
</svg>
