<svg width="28" height="28" viewBox="0 0 28 28" fill="none" xmlns="http://www.w3.org/2000/svg">
<rect width="28" height="28" rx="8" fill="#F9F9FB"/>
<path d="M4 0.299805H24C26.0435 0.299805 27.7002 1.95655 27.7002 4V24C27.7002 26.0435 26.0435 27.7002 24 27.7002H4C1.95655 27.7002 0.299805 26.0435 0.299805 24V4C0.299805 1.95655 1.95655 0.299805 4 0.299805Z" fill="white" stroke="#F1F5F8" stroke-width="0.6"/>
<g style="mix-blend-mode:plus-darker">
<circle cx="18.0006" cy="12.6055" r="4.00056" fill="url(#paint0_linear_14699_2228)"/>
</g>
<g style="mix-blend-mode:multiply">
<path d="M12.5336 8.55843H9.64275C9.00765 8.55843 8.53096 8.55843 7.99323 8.83242C7.52022 9.07342 7.13566 9.45799 6.89465 9.93099C6.62067 10.4687 6.62067 11.1727 6.62067 12.5805V13.586C6.62067 14.3669 6.62067 14.7573 6.74823 15.0653C6.91833 15.4759 7.24458 15.8022 7.65521 15.9723C7.92381 16.0835 8.13447 16.3075 8.13447 16.5983V19.6611C8.13447 19.8556 8.13447 19.9529 8.14254 20.0348C8.22091 20.8305 8.85041 21.46 9.64608 21.5384C9.72801 21.5464 9.82528 21.5464 10.0198 21.5464C10.2144 21.5464 10.3116 21.5464 10.3936 21.5384C11.1892 21.46 11.8187 20.8305 11.8971 20.0348C11.9052 19.9529 11.9052 19.8556 11.9052 19.6611V16.7283C11.9052 16.3812 12.1865 16.0998 12.5336 16.0998C14.0138 16.0998 14.8244 16.8933 16.2213 17.6548C17.0362 18.099 17.4437 18.3211 17.7106 18.2884C17.958 18.2581 18.1451 18.147 18.2901 17.9442C18.4466 17.7256 18.4466 17.288 18.4466 16.413V8.24529C18.4466 7.37024 18.4466 6.93271 18.2901 6.71404C18.1451 6.51127 17.958 6.40016 17.7106 6.36985C17.4437 6.33717 17.0362 6.55928 16.2213 7.00352C14.8244 7.765 14.0138 8.55843 12.5336 8.55843Z" fill="#D2D2D2"/>
</g>
<defs>
<linearGradient id="paint0_linear_14699_2228" x1="22.0011" y1="12.6055" x2="14" y2="12.6055" gradientUnits="userSpaceOnUse">
<stop stop-color="#DDDDDD"/>
<stop offset="1" stop-color="#CFCFCF" stop-opacity="0"/>
</linearGradient>
</defs>
</svg>
