<svg width="28" height="28" viewBox="0 0 28 28" fill="none" xmlns="http://www.w3.org/2000/svg">
<rect x="0.3" y="0.3" width="27.4" height="27.4" rx="3.7" fill="white" stroke="#F1F5F8" stroke-width="0.6"/>
<g style="mix-blend-mode:plus-darker" opacity="0.5">
<path d="M17.3593 20.6728H11.0889C10.5367 20.6728 10.0889 20.225 10.0889 19.6728V12.4562C10.0889 12.2788 10.1126 12.1021 10.1592 11.9309L11.2135 8.0577C11.4488 7.19324 12.2333 6.5726 13.1232 6.67645C13.5642 6.72791 13.9857 6.80887 14.2555 6.93255C15.0247 7.28511 15.9084 7.94215 15.9084 9.75301C15.9084 10.5192 16.5295 10.87 17.2958 10.87H19.4621C20.8491 10.87 21.815 12.2473 21.3425 13.5513L19.2397 19.3541C18.9529 20.1456 18.2012 20.6728 17.3593 20.6728Z" fill="#D2D2D2"/>
</g>
<path d="M11.1007 12.6638C10.9207 12.3595 10.5934 12.1729 10.2399 12.1729H8.21415C7.66186 12.1729 7.21415 12.6206 7.21415 13.1729V19.7624C7.21415 20.3147 7.66186 20.7624 8.21415 20.7624H10.2399C10.5934 20.7624 10.9207 20.5758 11.1007 20.2715L13.0492 16.9767C13.2349 16.6627 13.2349 16.2726 13.0492 15.9586L11.1007 12.6638Z" fill="#B3B3B3"/>
</svg>
