<svg xmlns="http://www.w3.org/2000/svg" width="24" height="24" fill="currentColor" viewBox="0 0 24 24">
  <path d="M12 1c1.032 0 2.031.143 2.98.41l-.54 1.924A9.01 9.01 0 0 0 12 3a9.004 9.004 0 0 0-8.72 6.762l4.186-.371a1.601 1.601 0 0 1 1.492.735l.06.104 1.595 2.978 2.899 1.67A1.4 1.4 0 0 1 13.877 17l-2.34 2.737-.023 1.248A9 9 0 0 0 21 12a8.958 8.958 0 0 0-.954-4.037l1.787-.9A10.96 10.96 0 0 1 23 12c0 6.075-4.925 11-11 11S1 18.075 1 12 5.925 1 12 1ZM3 12c0 4.11 2.756 7.574 6.52 8.651l.016-.947a2 2 0 0 1 .48-1.265l1.87-2.189-2.27-1.309a2 2 0 0 1-.765-.789l-1.472-2.747-4.374.389C3.003 11.863 3 11.93 3 12Z"/>
  <path fill="#12A3FC" d="M20.028 5.986a3.04 3.04 0 0 0-6.08 0c0 .411.144.906.437 1.465.29.552.692 1.109 1.13 1.627.523.619 1.072 1.15 1.477 1.518.403-.363.95-.885 1.47-1.498.918-1.08 1.566-2.208 1.566-3.112Zm2 0c0 1.678-1.093 3.291-2.041 4.407a18.31 18.31 0 0 1-2.313 2.255 1.091 1.091 0 0 1-1.38-.005 19.013 19.013 0 0 1-2.306-2.274c-.495-.586-.995-1.266-1.374-1.99-.376-.718-.666-1.54-.666-2.393a5.04 5.04 0 0 1 10.08 0Z"/>
  <path fill="#12A3FC" d="M18.225 5.755a1.237 1.237 0 1 1-2.475 0 1.237 1.237 0 0 1 2.475 0Z"/>
</svg>
