<svg xmlns="http://www.w3.org/2000/svg" width="24" height="24" fill="currentColor" viewBox="0 0 24 24">
  <path d="M10.615 4.083A11.744 11.744 0 0 1 22.67 10.83l.192.44.013.033a2 2 0 0 1 0 1.392l-.013.033c-.402.974-.933 1.89-1.58 2.722a1 1 0 1 1-1.58-1.226A9.743 9.743 0 0 0 21 11.998a9.743 9.743 0 0 0-10.148-5.93 1 1 0 0 1-.236-1.984ZM9.123 9.222a1 1 0 1 1 1.438 1.388A2.001 2.001 0 0 0 11.982 14a2.001 2.001 0 0 0 1.408-.562 1 1 0 0 1 1.39 1.439 4.002 4.002 0 0 1-5.608-.049 4 4 0 0 1-.05-5.606Z"/>
  <path d="M5.998 5.65a1 1 0 1 1 1.021 1.718A9.751 9.751 0 0 0 3 12a9.751 9.751 0 0 0 5.91 5.498 9.75 9.75 0 0 0 8.06-.858 1 1 0 1 1 1.019 1.72 11.751 11.751 0 0 1-16.852-5.63l-.012-.034a2 2 0 0 1 0-1.391l.012-.033a11.75 11.75 0 0 1 4.86-5.621Z"/>
  <path fill="#12A3FC" d="M1.293 1.293a1 1 0 0 1 1.414 0l20 20a1 1 0 1 1-1.414 1.414l-20-20a1 1 0 0 1 0-1.414Z"/>
</svg>
