<svg xmlns="http://www.w3.org/2000/svg" width="20" height="20" fill="currentColor" viewBox="0 0 20 20">
  <g clip-path="url(#a)">
    <path fill="#12A3FC" d="M16.69 4.988a2.534 2.534 0 0 0-5.067 0c0 .343.12.755.364 1.22.241.461.577.925.942 1.357.436.516.893.958 1.23 1.265.336-.302.792-.737 1.226-1.248.764-.9 1.304-1.84 1.304-2.594Zm1.666 0c0 1.399-.91 2.743-1.7 3.673a15.262 15.262 0 0 1-1.928 1.879.91.91 0 0 1-1.15-.004 15.834 15.834 0 0 1-1.922-1.895 9.36 9.36 0 0 1-1.145-1.659c-.313-.598-.555-1.283-.555-1.994a4.2 4.2 0 0 1 8.4 0Z"/>
    <path fill="#12A3FC" d="M15.187 4.796a1.031 1.031 0 1 1-2.062 0 1.031 1.031 0 0 1 2.062 0Z"/>
    <path d="M10 .833c.84 0 1.654.114 2.428.327a4.216 4.216 0 0 0-1.681 1.377 7.503 7.503 0 0 0-8.013 5.598l3.487-.31c.5-.044.978.195 1.244.613l.05.087 1.33 2.482 2.414 1.391c.633.365.78 1.215.305 1.77l-1.95 2.28-.02 1.04a7.5 7.5 0 0 0 7.62-9.544c.423-.59.811-1.276 1.007-2A9.167 9.167 0 1 1 10 .833ZM2.504 9.828a7.502 7.502 0 0 0 5.429 7.381l.013-.789a1.67 1.67 0 0 1 .4-1.055l1.56-1.823-1.894-1.09a1.667 1.667 0 0 1-.637-.658L6.15 9.504l-3.645.324Z"/>
  </g>
  <defs>
    <clipPath id="a">
      <path fill="#fff" d="M0 0h20v20H0z"/>
    </clipPath>
  </defs>
</svg>
