<svg xmlns="http://www.w3.org/2000/svg" width="20" height="20" fill="currentColor" viewBox="0 0 20 20">
  <g clip-path="url(#a)">
    <path d="M10 2.5a7.468 7.468 0 0 0-4.177 1.269 7.512 7.512 0 0 0-3.09 4.366l3.488-.31c.5-.044.978.195 1.244.613l.05.087 1.33 2.482 2.414 1.391c.633.365.78 1.215.305 1.77l-1.95 2.28-.02 1.04A7.5 7.5 0 0 0 17.5 10c0-.219-.012-.436-.031-.65a5.003 5.003 0 0 0 1.49-1.296 11 11 0 0 1 .084.44l.015.093c.01.06.018.121.026.182l.012.086.018.16a9.109 9.109 0 0 1 .053.986A9.167 9.167 0 1 1 10 .833V2.5ZM2.504 9.827c-.002.058-.004.115-.004.173a7.502 7.502 0 0 0 5.433 7.21l.013-.79a1.67 1.67 0 0 1 .4-1.055l1.56-1.823-1.894-1.09a1.667 1.667 0 0 1-.637-.658L6.15 9.504l-3.645.323Z"/>
    <path fill="#12A3FC" d="M10.833 0c.46 0 .834.373.834.833v1.322l.319-.32a4.846 4.846 0 0 1 3.43-1.418A4.583 4.583 0 0 1 20 5a5 5 0 0 1-9 3 .833.833 0 1 1 1.333-1 3.335 3.335 0 0 0 6-2 2.916 2.916 0 0 0-2.916-2.917 3.18 3.18 0 0 0-2.253.931l-.319.32h1.322a.833.833 0 0 1 0 1.666h-3.334l-.085-.004c-.018-.002-.035-.006-.053-.01a.115.115 0 0 1-.026-.003l-.029-.007c-.017-.004-.034-.007-.05-.013a.826.826 0 0 1-.215-.1.837.837 0 0 1-.275-.3l-.017-.036a.826.826 0 0 1-.068-.204c-.003-.011-.004-.023-.005-.034a.833.833 0 0 1-.01-.122V.833c0-.46.373-.833.833-.833Z"/>
  </g>
  <defs>
    <clipPath id="a">
      <path fill="#fff" d="M0 0h20v20H0z"/>
    </clipPath>
  </defs>
</svg>
