<svg xmlns="http://www.w3.org/2000/svg" width="24" height="24" fill="currentColor" viewBox="0 0 24 24">
  <path fill="#12A3FC" d="M17.996 7a3 3 0 0 0-2.247-2.904 1 1 0 1 1 .502-1.936 5 5 0 0 1 0 9.68 1 1 0 1 1-.502-1.936A3.001 3.001 0 0 0 17.996 7ZM21 21v-1.999l-.01-.248a3 3 0 0 0-2.24-2.655 1 1 0 1 1 .5-1.936A5 5 0 0 1 23 19v2a1 1 0 0 1-2 0Z"/>
  <path d="M15 21v-2a3 3 0 0 0-2.703-2.985L12 16H6a3 3 0 0 0-3 3v2a1 1 0 1 1-2 0v-2a5 5 0 0 1 5-5h6a5 5 0 0 1 5 5v2a1 1 0 1 1-2 0ZM12 7a3 3 0 1 0-6 0 3 3 0 0 0 6 0Zm2 0A5 5 0 1 1 4 7a5 5 0 0 1 10 0Z"/>
</svg>
