<svg xmlns="http://www.w3.org/2000/svg" width="24" height="24" fill="currentColor" viewBox="0 0 24 24">
  <path d="M10.293 16.293a1 1 0 0 1 1.414 0l2 2a1.123 1.123 0 0 0 1.83-.364 1.122 1.122 0 0 0-.244-1.222 1 1 0 1 1 1.414-1.414 3.121 3.121 0 1 1-4.414 4.414l-2-2a1 1 0 0 1 0-1.414Z"/>
  <path d="M3.09 2.004a1 1 0 0 1 .906 1.087l-.958 10.533 6.169 6.169a1.121 1.121 0 0 0 1.586-1.586 1 1 0 1 1 1.414-1.414 3.121 3.121 0 0 1-4.414 4.414l-6.5-6.5a1 1 0 0 1-.29-.798l1-11a1 1 0 0 1 1.088-.905Z"/>
  <path d="M11 3a1 1 0 0 1 0 2H3a1 1 0 0 1 0-2h8Z"/>
  <path fill="#12A3FC" d="M13.293 13.293a1 1 0 0 1 1.414 0l2.5 2.5a1.123 1.123 0 0 0 1.586 0 1.12 1.12 0 0 0 0-1.585l-3.88-3.881a2 2 0 0 0-2.826 0h-.001l-.88.88a3.122 3.122 0 0 1-4.413-4.415l2.811-2.81a6.79 6.79 0 0 1 8.277-1.022l.47.28.006.004a1 1 0 0 0 .618.138l.092-.013 1.735-.349a1 1 0 0 1 .395 1.96l-1.74.35-.004.002a3 3 0 0 1-2.125-.374l-.47-.279a4.79 4.79 0 0 0-5.842.719l-2.81 2.81A1.122 1.122 0 0 0 9 10.121c.297 0 .582-.12.793-.33l.88-.88a4.002 4.002 0 0 1 5.51-.136l.144.137 3.88 3.88A3.123 3.123 0 0 1 18 18.122a3.122 3.122 0 0 1-2.207-.915l-2.5-2.5a1.001 1.001 0 0 1 0-1.415Z"/>
  <path d="M13.293 13.293a1 1 0 0 1 1.414 0l2.5 2.5a1.123 1.123 0 0 0 1.586 0c.21-.21.328-.495.328-.792a1 1 0 0 1 2 0 3.122 3.122 0 0 1-5.328 2.207l-2.5-2.5a1.001 1.001 0 0 1 0-1.415Z"/>
  <path fill="#12A3FC" d="M20.91 2.004a1 1 0 0 1 1.086.905l1 11A1.002 1.002 0 0 1 22 15h-2a1 1 0 1 1 0-2h.904l-.9-9.91a1 1 0 0 1 .905-1.086Z"/>
</svg>
