<svg xmlns="http://www.w3.org/2000/svg" width="24" height="24" fill="none" viewBox="0 0 24 24">
  <path fill="currentColor" d="m19.988 5.596-.018-.018c-.129-.118-.359-.276-.706-.46-.686-.364-1.648-.738-2.686-1.08a38.442 38.442 0 0 0-2.96-.837 22.01 22.01 0 0 0-1.108-.24 7.39 7.39 0 0 0-.475-.07L12 2.887l-.035.002a7.377 7.377 0 0 0-.475.071 22.99 22.99 0 0 0-1.108.24c-.868.207-1.931.5-2.96.838-1.037.34-2 .715-2.686 1.079-.348.184-.577.342-.705.46l-.019.018v9.943c0 .53.281 1.15.918 1.844.627.682 1.511 1.335 2.487 1.907.97.568 1.99 1.033 2.857 1.354.914.339 1.525.467 1.726.467.201 0 .812-.128 1.726-.467a18.587 18.587 0 0 0 2.857-1.354c.976-.572 1.86-1.225 2.488-1.907.636-.693.917-1.315.917-1.844V5.596Zm2 9.943c0 1.24-.644 2.326-1.445 3.197-.81.881-1.877 1.65-2.949 2.28a20.587 20.587 0 0 1-3.173 1.504c-.92.341-1.829.591-2.42.591-.593 0-1.502-.25-2.422-.59a20.579 20.579 0 0 1-3.173-1.506c-1.073-.628-2.139-1.398-2.949-2.279-.8-.871-1.445-1.957-1.445-3.197V5.427c0-.622.39-1.07.668-1.325.309-.282.707-.532 1.12-.75.833-.443 1.92-.858 2.997-1.213a40.467 40.467 0 0 1 3.12-.883c.458-.11.873-.199 1.213-.261.314-.058.636-.107.87-.107.234 0 .556.05.87.107.34.062.755.151 1.213.26.916.22 2.033.527 3.12.884 1.077.355 2.164.77 2.997 1.212.413.22.812.469 1.12.751.278.254.668.703.668 1.325V15.54Z"/>
  <path fill="#12A3FC" d="M12 7a2.2 2.2 0 0 1 1 4.158v4.386a1 1 0 0 1-2 0v-4.386A2.199 2.199 0 0 1 12 7Z"/>
</svg>
