<svg xmlns="http://www.w3.org/2000/svg" width="24" height="24" fill="none" viewBox="0 0 24 24">
  <path fill="currentColor" d="M12.42 4.216a11.54 11.54 0 0 1 6.84 2.562l.38.322a11.539 11.539 0 0 1 2.573 14.017l-.885-.466-.885-.465a9.54 9.54 0 0 0-2.127-11.587L18 8.333a9.539 9.539 0 0 0-5.652-2.119l-.413-.006a9.54 9.54 0 0 0-5.714 1.95l-.323.258a9.54 9.54 0 0 0-3.18 5.13l-.086.405a9.539 9.539 0 0 0 .986 6.35 1 1 0 0 1-1.756.955 11.54 11.54 0 0 1-1.194-7.682l.105-.489a11.539 11.539 0 0 1 3.845-6.207l.392-.311a11.54 11.54 0 0 1 6.911-2.359l.5.008Zm9.793 16.9a1 1 0 0 1-1.77-.93l1.77.93ZM11.954 9.049a6.699 6.699 0 0 1 6.607 5.347l.053.285a6.7 6.7 0 0 1-.684 4.185 1 1 0 0 1-1.77-.93A4.7 4.7 0 0 0 16.639 15l-.036-.2a4.7 4.7 0 0 0-7.45-2.79l-.159.126a4.7 4.7 0 0 0-1.566 2.529l-.043.198a4.7 4.7 0 0 0 .393 2.948l.093.18.044.094a1 1 0 0 1-1.748.949l-.053-.087-.133-.258a6.699 6.699 0 0 1-.56-4.202l.06-.284a6.7 6.7 0 0 1 2.234-3.604l.227-.18a6.7 6.7 0 0 1 4.012-1.37Z"/>
  <path fill="#12A3FC" d="m11.474 14.84 6.602-8.853a1 1 0 0 1 1.604 1.196l-6.603 8.852a1 1 0 0 1-1.603-1.195Z"/>
  <path fill="#12A3FC" d="M14.07 15.676a2 2 0 1 1-4 0 2 2 0 0 1 4 0Z"/>
</svg>
