<svg width="16" height="17" viewBox="0 0 16 17" fill="none" xmlns="http://www.w3.org/2000/svg">
<path d="M1.82661 14.3526C1.05055 12.9243 0.793724 11.2712 1.09989 9.67482C1.40605 8.07845 2.25626 6.63763 3.50565 5.59785C4.75504 4.55806 6.32631 3.98366 7.95174 3.9725C9.57716 3.96134 11.1562 4.51413 12.4197 5.53666C13.6833 6.55919 14.5532 7.98821 14.8812 9.58023C15.2093 11.1722 14.9752 12.8288 14.2188 14.2675M4.66155 12.8122C4.24187 12.0398 4.10298 11.1458 4.26855 10.2825C4.43411 9.41924 4.89389 8.64007 5.56953 8.07777C6.24518 7.51548 7.09489 7.20485 7.97389 7.19882C8.85289 7.19279 9.70678 7.49172 10.3901 8.04469C11.0734 8.59766 11.5438 9.37044 11.7212 10.2314C11.8986 11.0923 11.772 11.9881 11.363 12.7662" stroke="#2E3A48" stroke-width="1.33333" stroke-linecap="round"/>
<path d="M12.5852 4.88989L8.18322 10.7919" stroke="#12A3FC" stroke-width="1.33333" stroke-linecap="round" stroke-linejoin="round"/>
<circle cx="8.04622" cy="10.9509" r="1.33333" fill="#12A3FC"/>
</svg>
