<svg width="24" height="24" viewBox="0 0 24 24" fill="none" xmlns="http://www.w3.org/2000/svg">
<path d="M7.80041 2C6.12025 2 5.1395 1.94829 4.18323 2.43554C3.43069 2.81898 2.81861 3.43105 2.43518 4.18359C1.94793 5.13987 1.99963 6.12062 1.99963 7.80078V16.1992C1.99963 17.8794 1.94798 18.8601 2.43518 19.8164C2.81862 20.569 3.4307 21.181 4.18323 21.5645C5.13951 22.0517 6.12025 22 7.80041 22H8.99963C9.26485 22 9.5192 21.8946 9.70674 21.7071C9.89427 21.5196 9.99963 21.2652 9.99963 21C9.99963 20.7348 9.89427 20.4804 9.70674 20.2929C9.5192 20.1054 9.26485 20 8.99963 20H7.80041C6.12025 20 5.4186 19.948 5.09143 19.7812C4.71498 19.5895 4.41018 19.2846 4.21838 18.9082C4.05162 18.5809 3.99963 17.8794 3.99963 16.1992V7.80078C3.99963 6.12062 4.05167 5.41898 4.21838 5.09179C4.41019 4.71535 4.71499 4.41055 5.09143 4.21875C5.41861 4.05204 6.12025 4 7.80041 4H8.99963C9.26485 4 9.5192 3.89464 9.70674 3.7071C9.89427 3.51957 9.99963 3.26521 9.99963 3C9.99963 2.73478 9.89427 2.48043 9.70674 2.29289C9.5192 2.10535 9.26485 2 8.99963 2H7.80041ZM15.2926 6.29297C15.1051 6.4805 14.9998 6.73482 14.9998 7C14.9998 7.26518 15.1051 7.5195 15.2926 7.70703L18.5856 11H8.99963C8.73442 11 8.48006 11.1054 8.29252 11.2929C8.10499 11.4804 7.99963 11.7348 7.99963 12C7.99963 12.2652 8.10499 12.5196 8.29252 12.7071C8.48006 12.8946 8.73442 13 8.99963 13H18.5856L15.2926 16.293C15.1051 16.4805 14.9998 16.7348 14.9998 17C14.9998 17.2652 15.1051 17.5195 15.2926 17.707C15.4801 17.8945 15.7345 17.9998 15.9996 17.9998C16.2648 17.9998 16.5191 17.8945 16.7067 17.707L21.7067 12.707C21.8637 12.5347 21.9556 12.313 21.9664 12.0801C21.9786 12.0539 21.9897 12.0272 21.9996 12C21.9933 11.9438 21.9822 11.8883 21.9664 11.834C21.9679 11.8027 21.9679 11.7715 21.9664 11.7402C21.9578 11.7237 21.9487 11.7074 21.9391 11.6914C21.8937 11.5423 21.8141 11.4059 21.7067 11.293L16.7067 6.29296C16.5191 6.10547 16.2648 6.00015 15.9996 6.00015C15.7345 6.00015 15.4801 6.10548 15.2926 6.29297Z" fill="#F53838"/>
</svg>
