<svg xmlns="http://www.w3.org/2000/svg" width="24" height="24" fill="currentColor" viewBox="0 0 24 24">
  <path fill="#12A3FC" d="m11.519 11.118 4.034-4.035-.245-1.85a1.004 1.004 0 0 1 .284-.84l3.029-3.028.106-.092a1 1 0 0 1 1.592.667l.21 1.58 1.58.211a1 1 0 0 1 .575 1.698l-3.028 3.029c-.22.22-.53.326-.84.285l-1.848-.247-4.035 4.036a1 1 0 0 1-1.414-1.414Zm7.988-5.715a1 1 0 0 1-.86-.86l-.043-.332-1.248 1.248.144 1.09 1.091.145 1.248-1.248-.332-.043Z"/>
  <path d="M1.022 12.294c0-5.872 4.761-10.632 10.633-10.632a1 1 0 1 1 0 2 8.633 8.633 0 1 0 8.633 8.632 1 1 0 0 1 2 0c0 5.873-4.76 10.633-10.633 10.633-5.872 0-10.633-4.76-10.633-10.633Z"/>
  <path d="M11.655 6.478a1 1 0 1 1 0 2 3.816 3.816 0 1 0 3.817 3.816 1 1 0 0 1 2 0 5.817 5.817 0 1 1-5.817-5.816Z"/>
</svg>
