<svg xmlns="http://www.w3.org/2000/svg" width="24" height="24" fill="currentColor" viewBox="0 0 24 24">
  <path d="M20.993 12a8.993 8.993 0 1 0-17.986 0 8.993 8.993 0 0 0 17.986 0Zm2 0c0 6.07-4.922 10.993-10.993 10.993C5.929 22.993 1.007 18.07 1.007 12 1.007 5.928 5.93 1.007 12 1.006c6.07 0 10.993 4.922 10.993 10.992Z"/>
  <path fill="#12A3FC" d="m10.354 13.054-.005.103a1 1 0 0 1-1.99 0l-.005-.103V7.316a1 1 0 1 1 2 0v5.738Zm3.292-2.632a1 1 0 1 1 2 0v6.262a1 1 0 1 1-2 0v-6.262Z"/>
  <path fill="#12A3FC" d="M10.061 6.27a1 1 0 0 0-1.414 0L6.243 8.675a1 1 0 1 0 1.414 1.414l1.697-1.697 1.697 1.697a1 1 0 1 0 1.414-1.414L10.061 6.27Zm3.878 11.46a1 1 0 0 0 1.414 0l2.404-2.405a1 1 0 1 0-1.414-1.414l-1.697 1.697-1.698-1.697a1 1 0 1 0-1.414 1.414l2.405 2.404Z"/>
</svg>
