<svg xmlns="http://www.w3.org/2000/svg" width="24" height="24" fill="currentColor" viewBox="0 0 24 24">
  <g clip-path="url(#a)">
    <path fill="#12A3FC" d="M12.88 16.012c3.074-.803 5.805-1.865 7.74-2.956.96-.541 1.776-1.118 2.337-1.71.518-.548 1.048-1.36.806-2.286-.212-.814-.908-1.258-1.527-1.497-.647-.251-1.462-.383-2.355-.431a1 1 0 0 0-.11 1.997c.794.043 1.374.155 1.744.299.152.058.236.113.282.147-.03.07-.106.199-.293.396-.364.386-.986.847-1.866 1.343-1.745.984-4.306 1.99-7.263 2.762s-5.684 1.145-7.688 1.14c-1.01-.003-1.777-.102-2.284-.26-.26-.081-.39-.157-.45-.202.026-.06.085-.167.224-.324.3-.341.823-.757 1.582-1.214a1 1 0 0 0-.939-1.762l-.09.048-.31.192c-.71.45-1.313.925-1.745 1.415-.434.494-.858 1.198-.723 1.995l.034.16.052.169c.296.813 1.094 1.221 1.769 1.432.778.243 1.772.348 2.875.35 2.22.006 5.124-.401 8.198-1.203Z"/>
    <path d="M18.8 12a6.925 6.925 0 1 0-13.85.002A6.925 6.925 0 0 0 18.8 12Zm2 0a8.925 8.925 0 1 1-17.85-.001 8.925 8.925 0 0 1 17.85 0Z"/>
    <path fill="#12A3FC" d="M12.88 16.012c3.074-.803 5.805-1.865 7.74-2.956.96-.541 1.776-1.118 2.337-1.71.518-.548 1.048-1.36.806-2.286-.261-1.003-1.244-1.451-2.04-1.663a1 1 0 1 0-.514 1.932c.306.082.489.171.585.239l.005.004c-.03.07-.106.2-.295.4-.364.385-.986.846-1.866 1.342-1.745.984-4.306 1.99-7.263 2.762s-5.684 1.145-7.688 1.14c-1.01-.003-1.777-.102-2.284-.26-.26-.081-.39-.157-.45-.202.004-.01.007-.021.013-.033.051-.097.148-.23.31-.397l.182-.177.073-.072a1 1 0 0 0-1.414-1.41c-.373.337-.702.711-.919 1.121-.193.365-.32.805-.252 1.275l.04.204.052.168c.296.813 1.094 1.221 1.769 1.432.778.243 1.772.348 2.875.35 2.22.006 5.124-.401 8.198-1.203Z"/>
  </g>
  <defs>
    <clipPath id="a">
      <path fill="#fff" d="M0 0h24v24H0z"/>
    </clipPath>
  </defs>
</svg>
