<svg width="16" height="17" viewBox="0 0 16 17" fill="none" xmlns="http://www.w3.org/2000/svg">
<circle cx="7.99983" cy="6.13606" r="2.53132" stroke="#2E3A48" stroke-width="1.33333" stroke-linecap="round"/>
<path d="M12.4706 14.0483C12.3308 14.523 10.4689 14.4072 7.99973 14.4072C5.53056 14.4072 3.7023 14.4408 3.52891 14.0483C2.69293 12.1558 5.53056 10.4408 7.99973 10.4408C10.4689 10.4408 13.0654 12.028 12.4706 14.0483Z" stroke="#2E3A48" stroke-width="1.33333" stroke-linecap="round"/>
<path d="M4.48826 2.58032C3.37035 2.58032 2.46411 3.48657 2.46411 4.60447C2.46411 5.25327 2.76936 5.83077 3.24407 6.2012" stroke="#12A3FC" stroke-width="1.33333" stroke-linecap="round"/>
<path d="M11.5117 2.58032C12.6296 2.58032 13.5359 3.48657 13.5359 4.60447C13.5359 5.25327 13.2306 5.83077 12.7559 6.2012" stroke="#12A3FC" stroke-width="1.33333" stroke-linecap="round"/>
<path d="M3.54508 8.34195C1.93984 8.61749 0.428491 9.73573 0.966183 10.953C1.00892 11.0497 1.18719 11.1115 1.4734 11.151" stroke="#12A3FC" stroke-width="1.33333" stroke-linecap="round"/>
<path d="M12.4549 8.34195C14.0602 8.61749 15.5715 9.73573 15.0338 10.953C14.9911 11.0497 14.8128 11.1115 14.5266 11.151" stroke="#12A3FC" stroke-width="1.33333" stroke-linecap="round"/>
</svg>
