<svg xmlns="http://www.w3.org/2000/svg" width="24" height="24" fill="none" viewBox="0 0 24 24">
  <path fill="currentColor" d="M14.796 8.454a2.797 2.797 0 1 0-5.593 0 2.797 2.797 0 0 0 5.594 0Zm2 0a4.797 4.797 0 1 1-9.593 0 4.797 4.797 0 0 1 9.594 0ZM12 13.911c2.041 0 4.154.65 5.668 1.764 1.47 1.08 2.538 2.752 2.05 4.737l-.053.192a1.408 1.408 0 0 1-.633.8c-.23.14-.483.222-.707.276-.45.108-1.018.154-1.623.177-1.212.047-2.895.003-4.703.003-1.831 0-3.48.013-4.695-.05-.604-.03-1.155-.082-1.59-.18a2.79 2.79 0 0 1-.666-.226 1.462 1.462 0 0 1-.601-.546l-.068-.131a3.452 3.452 0 0 1-.004-2.85c.373-.85 1.046-1.566 1.824-2.133 1.55-1.129 3.748-1.833 5.8-1.833Zm0 2c-1.652 0-3.433.582-4.624 1.45-.592.43-.98.89-1.169 1.32a1.443 1.443 0 0 0-.085.99l.025.008c.267.059.682.105 1.26.134 1.147.06 2.72.047 4.592.047 1.897 0 3.463.044 4.626 0 .547-.022.934-.063 1.185-.117.125-.86-.31-1.71-1.326-2.457-1.136-.835-2.823-1.375-4.485-1.375Z"/>
  <path fill="#12A3FC" d="M2.696 6.157A4.036 4.036 0 0 1 6.732 2.12a1 1 0 1 1 0 2A2.036 2.036 0 0 0 5.31 7.614l.172.15.077.066A1 1 0 0 1 4.335 9.4l-.084-.059-.173-.142a4.03 4.03 0 0 1-1.382-3.041Zm18.608 0a4.036 4.036 0 0 0-4.037-4.037 1 1 0 0 0 0 2 2.036 2.036 0 0 1 1.423 3.494l-.172.15-.077.066a1 1 0 0 0 1.224 1.57l.084-.059.173-.142a4.03 4.03 0 0 0 1.382-3.041ZM5.148 10.778a1 1 0 1 1 .338 1.97c-1.057.182-2.037.639-2.634 1.183-.437.398-.584.741-.564 1.044l.059.01.1.02a1 1 0 0 1-.271 1.97l-.103-.008-.184-.028a3.04 3.04 0 0 1-.551-.144c-.164-.062-.502-.21-.719-.553l-.085-.159c-.642-1.454.024-2.768.97-3.63.937-.855 2.294-1.444 3.644-1.675Zm13.704 0a1 1 0 1 0-.338 1.97c1.057.182 2.037.639 2.634 1.183.437.398.584.741.564 1.044l-.059.01-.1.02a1 1 0 0 0 .271 1.97l.103-.008.184-.028c.187-.033.377-.078.551-.144.164-.062.502-.21.719-.553l.085-.159c.642-1.454-.024-2.768-.97-3.63-.937-.855-2.294-1.444-3.644-1.675Z"/>
</svg>
