<svg width="28" height="29" viewBox="0 0 28 29" fill="none" xmlns="http://www.w3.org/2000/svg">
<path d="M4 0.738281H24C26.0435 0.738281 27.7002 2.39502 27.7002 4.43848V24.4385C27.7002 26.4819 26.0435 28.1387 24 28.1387H4C1.95655 28.1387 0.299805 26.4819 0.299805 24.4385V4.43848C0.299805 2.39502 1.95655 0.738281 4 0.738281Z" fill="white" stroke="#F1F5F8" stroke-width="0.6"/>
<g style="mix-blend-mode:plus-darker" opacity="0.5">
<path d="M8.27374 11.3857C8.27374 10.2812 9.16917 9.38574 10.2737 9.38574H17.7263C18.8309 9.38574 19.7263 10.2812 19.7263 11.3857V17.491C19.7263 18.5955 18.8309 19.491 17.7263 19.491H10.2737C9.16917 19.491 8.27374 18.5955 8.27374 17.491V11.3857Z" fill="#D2D2D2"/>
</g>
<g style="mix-blend-mode:plus-darker">
<path d="M9.36613 12.4863L6.8245 9.27623C6.30545 8.62067 6.77235 7.65549 7.60851 7.65548L12.6918 7.65548C13.5279 7.65548 13.9948 8.62067 13.4758 9.27623L10.9342 12.4863C10.5338 12.992 9.7665 12.992 9.36613 12.4863Z" fill="#B3B3B3"/>
</g>
<g style="mix-blend-mode:plus-darker">
<path d="M18.6339 16.3911L21.1755 19.6012C21.6945 20.2568 21.2277 21.222 20.3915 21.222L15.3082 21.222C14.4721 21.222 14.0052 20.2568 14.5242 19.6012L17.0658 16.3911C17.4662 15.8854 18.2335 15.8854 18.6339 16.3911Z" fill="#B3B3B3"/>
</g>
</svg>
