<svg xmlns="http://www.w3.org/2000/svg" width="24" height="24" fill="none" viewBox="0 0 24 24">
  <path fill="currentColor" d="M20.993 12a8.993 8.993 0 1 0-17.986 0 8.993 8.993 0 0 0 17.986 0Zm2 0c0 6.07-4.922 10.993-10.993 10.993C5.929 22.993 1.007 18.07 1.007 12 1.007 5.928 5.93 1.007 12 1.006c6.07 0 10.993 4.922 10.993 10.992Z"/>
  <path fill="#12A3FC" d="M13.646 10.422a1 1 0 0 1 2 0v4.186l.697-.697a1 1 0 0 1 1.414 1.414l-2.404 2.404a1 1 0 0 1-1.414 0l-2.404-2.404-.07-.076a1 1 0 0 1 1.408-1.407l.076.07.697.696v-4.186Zm-5.292 2.633V9.392l-.697.697a1 1 0 1 1-1.414-1.414L8.647 6.27l.076-.068a1 1 0 0 1 1.338.068l2.404 2.405.07.076a1 1 0 0 1-1.408 1.406l-.076-.068-.697-.697v3.663a1 1 0 0 1-1.995.101l-.005-.101Z"/>
</svg>
