<svg xmlns="http://www.w3.org/2000/svg" width="24" height="24" fill="currentColor" viewBox="0 0 24 24">
  <path fill="#12A3FC" d="M21.293 9.293a1 1 0 1 1 1.414 1.414l-4 4a1 1 0 0 1-1.414 0l-2-2a1 1 0 1 1 1.414-1.414L18 12.586l3.293-3.293Z"/>
  <path d="M11 21V7a1 1 0 1 1 2 0v14a1 1 0 1 1-2 0Z"/>
  <path d="M21 6V4h-5a3 3 0 0 0-3 3 1 1 0 1 1-2 0 3 3 0 0 0-3-3H3v13h6a4 4 0 0 1 3 1.355A4 4 0 0 1 15 17h6v-1.3a1 1 0 1 1 2 0V17a2 2 0 0 1-2 2h-6a2 2 0 0 0-2 2 1 1 0 1 1-2 0 2 2 0 0 0-2-2H3a2 2 0 0 1-2-2V4a2 2 0 0 1 2-2h5a5 5 0 0 1 4 2.001A5 5 0 0 1 16 2h5a2 2 0 0 1 2 2v2a1 1 0 1 1-2 0Z"/>
</svg>
