<svg xmlns="http://www.w3.org/2000/svg" width="24" height="24" fill="currentColor" viewBox="0 0 24 24">
  <path d="M17.82 3.048a3 3 0 0 1 3 3v7.822l-2-.77V9.017H2.957v8.908l.005.103a1 1 0 0 0 .995.897h10.548l.768 2H3.958A3 3 0 0 1 .962 18.08l-.004-.155V6.048a3 3 0 0 1 3-3h13.861Zm-13.862 2a1 1 0 0 0-1 1v.97h15.861v-.97a1 1 0 0 0-1-1H3.958Z"/>
  <path fill="#12A3FC" d="M14.143 14.576a1.201 1.201 0 0 1 1.424-1.424l.182.055 6.81 2.622c1.095.422.997 2.002-.142 2.284l-2.69.67-.645 2.6c-.283 1.138-1.864 1.235-2.285.14l-2.6-6.765-.054-.182Zm3.61 3.86.15-.604.05-.156a1.2 1.2 0 0 1 .669-.668l.156-.05.696-.174-2.765-1.063 1.044 2.715Z"/>
</svg>
