<svg xmlns="http://www.w3.org/2000/svg" width="24" height="24" fill="none" viewBox="0 0 24 24">
  <g clip-path="url(#a)">
    <path fill="currentColor" d="M9.39 6.398c0-.71-.574-1.286-1.284-1.286H3.533c-.71 0-1.286.576-1.286 1.286v11.204c0 .71.576 1.286 1.286 1.286h4.573c.71 0 1.285-.576 1.285-1.286V6.398Zm2 11.204a3.285 3.285 0 0 1-3.284 3.286H3.533a3.286 3.286 0 0 1-3.286-3.286V6.398a3.286 3.286 0 0 1 3.286-3.286h4.573a3.286 3.286 0 0 1 3.285 3.286v11.204Zm9.944-11.204c0-.71-.576-1.286-1.286-1.286h-4.572c-.71 0-1.286.576-1.286 1.286v11.204c0 .71.576 1.286 1.286 1.286h4.572c.71 0 1.285-.576 1.286-1.286V6.398Zm2 11.204a3.285 3.285 0 0 1-3.286 3.286h-4.572a3.286 3.286 0 0 1-3.286-3.286V6.398a3.286 3.286 0 0 1 3.286-3.286h4.572a3.286 3.286 0 0 1 3.286 3.286v11.204Z"/>
    <path fill="#12A3FC" fill-rule="evenodd" d="m6.729 11.872.581 1.553.065-.235a.964.964 0 0 1 .672-.672l.234-.065-1.552-.58Zm-2.16-.92a.964.964 0 0 1 1.24-1.24l5.193 1.944c.874.327.818 1.582-.081 1.831l-2.018.559-.559 2.018c-.25.9-1.504.955-1.831.08l-1.944-5.192Z" clip-rule="evenodd"/>
    <path fill="#9A9CA1" fill-rule="evenodd" d="m18.696 11.872.582 1.553.065-.235a.964.964 0 0 1 .671-.672l.235-.065-1.553-.58Zm-2.16-.92a.964.964 0 0 1 1.24-1.24l5.193 1.944c.874.327.819 1.582-.08 1.831l-2.019.559-.559 2.018c-.249.9-1.503.955-1.83.08l-1.945-5.192Z" clip-rule="evenodd"/>
    <path stroke="#fff" stroke-linecap="round" stroke-linejoin="round" stroke-width="1.5" d="M3.867 11.215c-.516-1.377.828-2.72 2.205-2.205l5.193 1.943.14.06c1.361.639 1.273 2.633-.138 3.15l-.146.047-1.609.444-.445 1.61c-.43 1.55-2.537 1.69-3.197.285l-.06-.14-1.943-5.194Zm11.966 0c-.515-1.377.83-2.72 2.206-2.205l5.193 1.943.14.06c1.362.639 1.274 2.633-.138 3.15l-.146.047-1.608.444-.445 1.61c-.43 1.55-2.537 1.69-3.198.285l-.06-.14-1.944-5.194Z"/>
  </g>
  <defs>
    <clipPath id="a">
      <path fill="#fff" d="M0 0h24v24H0z"/>
    </clipPath>
  </defs>
</svg>
