<svg width="140" height="140" viewBox="0 0 140 140" fill="none" xmlns="http://www.w3.org/2000/svg">
<rect width="140" height="140" fill="white"/>
<circle cx="69.2726" cy="70" r="47.4444" fill="url(#paint0_linear_20064_53671)"/>
<path fill-rule="evenodd" clip-rule="evenodd" d="M21.9593 72.8033C21.8706 71.93 21.8252 70.9967 21.8252 70C21.8252 69.6894 21.8282 69.3796 21.8341 69.0704C8.20522 78.6164 0.77412 88.0292 3.23659 94.4157C7.57524 105.668 40.9839 103.264 77.8569 89.0468C114.73 74.8294 141.104 54.182 136.766 42.9297C134.175 36.2103 121.217 34.3606 103.346 36.9884C104.216 37.8861 105.051 38.8182 105.848 39.7823C107.941 39.5101 109.955 39.3045 111.879 39.1661C118.459 38.6927 123.814 39.0177 127.67 40.0311C131.613 41.0672 133.312 42.6205 133.863 44.049C134.414 45.4774 134.197 47.7696 131.971 51.1841C129.793 54.5241 126.042 58.3601 120.848 62.4266C110.491 70.5348 94.9693 79.1142 76.7376 86.144C58.5059 93.1738 41.2427 97.2354 28.1231 98.1793C21.5432 98.6527 16.1881 98.3277 12.3319 97.3142C8.38959 96.2782 6.69017 94.7248 6.13939 93.2964C5.58862 91.868 5.80528 89.5758 8.03154 86.1613C10.2092 82.8213 13.9598 78.9853 19.1543 74.9188C20.0511 74.2167 20.9867 73.5111 21.9593 72.8033Z" fill="#7EC9FF"/>
<defs>
<linearGradient id="paint0_linear_20064_53671" x1="7.05079" y1="-2.83986" x2="121.258" y2="93.062" gradientUnits="userSpaceOnUse">
<stop offset="0.160661" stop-color="#7ECCFC"/>
<stop offset="1" stop-color="#F8FBFD"/>
</linearGradient>
</defs>
</svg>
