<svg width="41" height="40" viewBox="0 0 41 40" fill="none" xmlns="http://www.w3.org/2000/svg">
<rect x="0.666992" width="40" height="40" rx="8" fill="white"/>
<path d="M19.5398 4.57023C19.7772 4.57023 19.8959 4.68893 20.1333 4.80762C18.7089 5.40111 17.2846 6.94419 16.5724 10.2677L13.961 10.9799C14.7919 8.60596 16.4537 4.57023 19.5398 4.57023ZM20.8455 5.75721C21.0829 6.4694 21.3203 7.30028 21.3203 8.60596C21.3203 8.72466 21.3203 8.72466 21.3203 8.84336L17.8781 9.79294C18.5902 7.30028 19.7772 6.232 20.8455 5.75721ZM23.9317 7.89377L22.3886 8.36857C22.3886 8.24987 22.3886 8.13117 22.3886 8.01247C22.3886 6.94419 22.2699 6.1133 22.0325 5.40111C22.8634 5.63851 23.5756 6.70679 23.9317 7.89377ZM31.647 9.79294C31.647 9.67425 31.5283 9.55555 31.4096 9.55555C31.1722 9.55555 28.6796 9.31815 28.6796 9.31815C28.6796 9.31815 26.8991 7.53768 26.6617 7.41898C26.4243 7.18159 26.0682 7.30028 25.9495 7.30028C25.9495 7.30028 25.5934 7.41898 24.9999 7.65638C24.4065 5.9946 23.3382 4.45153 21.5577 4.45153H21.439C20.9642 3.73934 20.252 3.50195 19.6585 3.50195C15.3854 3.38325 13.3675 8.72466 12.6553 11.4547C11.7058 11.6921 10.7562 12.0482 9.68789 12.4043C8.73831 12.6417 8.73831 12.7604 8.61961 13.5913C8.50091 14.1848 6.12695 32.9391 6.12695 32.9391L24.9999 36.5L35.208 34.2447C35.208 34.2447 31.647 10.0303 31.647 9.79294Z" fill="#88C229"/>
<path d="M31.2909 9.55586C31.1722 9.55586 28.6796 9.31815 28.6796 9.31815C28.6796 9.31815 26.8991 7.53768 26.6617 7.41898C26.543 7.30028 26.543 7.3006 26.4243 7.3006L24.9999 36.5L35.208 34.2447C35.208 34.2447 31.647 10.0303 31.647 9.79294C31.647 9.67425 31.4096 9.55586 31.2909 9.55586Z" fill="#4E9030"/>
<path d="M21.5576 15.2532L20.252 19.0515C20.252 19.0515 19.1837 18.458 17.7593 18.458C15.7414 18.458 15.6227 19.645 15.6227 20.0011C15.6227 21.6629 20.1333 22.3751 20.1333 26.4108C20.1333 29.6156 18.1154 31.6335 15.3853 31.6335C12.1805 31.6335 10.5187 29.6156 10.5187 29.6156L11.3496 26.7669C11.3496 26.7669 13.0114 28.1913 14.4358 28.1913C15.3853 28.1913 15.7414 27.4791 15.7414 26.8856C15.7414 24.6303 12.0618 24.5116 12.0618 20.832C12.0618 17.7458 14.3171 14.7784 18.7089 14.7784C20.7268 14.6597 21.5576 15.2532 21.5576 15.2532Z" fill="#FFFFFD"/>
</svg>
