<svg width="41" height="40" viewBox="0 0 41 40" fill="none" xmlns="http://www.w3.org/2000/svg">
<rect x="0.666992" width="40" height="40" rx="8" fill="white"/>
<path fill-rule="evenodd" clip-rule="evenodd" d="M23.5979 13.6347V11.6593C23.5979 10.4599 22.5256 9.12492 20.8208 9.12492C19.1159 9.12492 18.1077 10.0783 17.8052 10.6466C17.6745 10.8922 17.5887 11.1666 17.5121 11.4119C17.4115 11.7341 17.3265 12.0061 17.1758 12.0965C17.1168 12.1319 17.0838 12.1643 17.0556 12.192C16.9571 12.2889 16.9183 12.327 16.038 12.2262C15.6899 12.1863 15.3201 12.1414 14.9584 12.0975C14.1437 11.9985 13.37 11.9046 12.978 11.8842C12.4119 11.8547 12.0581 11.554 12.2467 10.7934C12.4354 10.0328 13.3359 6.97621 16.4046 5.81511C19.4732 4.65401 23.5371 4.59898 25.7948 5.75086C28.0525 6.90275 29.369 8.22269 29.369 12.6187V20.6817C29.369 21.8532 30.094 22.7488 30.5287 23.2858C30.639 23.4221 30.7306 23.5353 30.787 23.624C31.0654 24.0625 31.2394 24.4941 30.8287 24.849C30.4181 25.204 28.0585 27.1947 27.6896 27.4522C27.3207 27.7097 26.8892 27.7515 26.4368 27.313C26.3554 27.2342 26.266 27.1497 26.1721 27.061C25.7435 26.6563 25.2213 26.1631 24.9472 25.7121C24.8946 25.6255 24.8454 25.5427 24.7995 25.4652C24.5536 25.0512 24.3996 24.7918 24.2999 24.9326C24.1816 25.0996 22.1951 27.2353 19.712 27.6348C17.2289 28.0342 14.1582 27.9985 12.375 25.0922C10.7043 22.3692 11.6682 18.6756 12.9206 17.067C14.1729 15.4583 16.905 14.3772 19.4637 14.1073C21.5107 13.8913 23.0727 13.7022 23.5979 13.6347ZM23.5814 16.8541V19.0874C23.5814 20.8751 22.4868 23.7291 20.0471 23.7291C17.6073 23.7291 17.0844 21.0794 17.6167 19.6082C18.149 18.1369 19.1614 17.3569 21.149 17.0129C22.4872 16.7813 23.2037 16.83 23.4793 16.8487C23.5254 16.8518 23.5591 16.8541 23.5814 16.8541Z" fill="#2C2E30"/>
<path d="M3.29235 28.0118C2.63966 27.6625 2.49761 27.6634 2.35212 27.9253C2.20663 28.1873 2.90231 28.6774 4.081 29.6C5.48566 30.6994 10.5129 34.7012 19.6007 35.0637C27.8333 35.392 33.8572 31.7127 34.8516 31.1054L34.8636 31.0981C35.8207 30.5135 35.8134 30.1482 35.7476 29.9583C35.6819 29.7683 35.4067 29.4797 34.4485 29.8969C33.4903 30.314 28.1262 32.8281 19.3181 32.4471C10.5099 32.0661 4.02476 28.4038 3.29235 28.0118Z" fill="#F8A61B"/>
<path d="M33.7197 27.4917C32.047 28.0185 32.1257 28.4512 32.203 28.5746C32.2802 28.6979 32.4982 28.6974 32.6835 28.6692C32.9153 28.6339 35.2116 28.3331 36.2795 28.4187C37.3474 28.5044 37.4029 29.0736 37.2366 29.8997C37.0704 30.7258 36.6825 31.8039 36.3954 32.5847C36.1082 33.3654 35.9521 33.572 36.2291 33.6375C36.5062 33.703 37.5086 32.7257 38.0577 31.688C38.6068 30.6503 39.02 29.0001 38.9989 28.267C38.9778 27.5339 38.8725 27.441 38.1731 27.2388C37.4737 27.0366 35.3924 26.9649 33.7197 27.4917Z" fill="#F8A61B"/>
</svg>
