<svg width="47" height="47" viewBox="0 0 47 47" fill="none" xmlns="http://www.w3.org/2000/svg">
<g filter="url(#filter0_dd_24140_12785)">
<rect x="3.66699" width="40" height="40" rx="8" fill="white"/>
<path fill-rule="evenodd" clip-rule="evenodd" d="M26.5979 13.6347V11.6593C26.5979 10.4599 25.5256 9.12492 23.8208 9.12492C22.1159 9.12492 21.1077 10.0783 20.8052 10.6466C20.6745 10.8922 20.5887 11.1666 20.5121 11.4119C20.4115 11.7341 20.3265 12.0061 20.1758 12.0965C20.1168 12.1319 20.0838 12.1643 20.0556 12.192C19.9571 12.2889 19.9183 12.327 19.038 12.2262C18.6899 12.1863 18.3201 12.1414 17.9584 12.0975C17.1437 11.9985 16.37 11.9046 15.978 11.8842C15.4119 11.8547 15.0581 11.554 15.2467 10.7934C15.4354 10.0328 16.3359 6.97621 19.4046 5.81511C22.4732 4.65401 26.5371 4.59898 28.7948 5.75086C31.0525 6.90275 32.369 8.22269 32.369 12.6187V20.6817C32.369 21.8532 33.094 22.7488 33.5287 23.2858C33.639 23.4221 33.7306 23.5353 33.787 23.624C34.0654 24.0625 34.2394 24.4941 33.8287 24.849C33.4181 25.204 31.0585 27.1947 30.6896 27.4522C30.3207 27.7097 29.8892 27.7515 29.4368 27.313C29.3554 27.2342 29.266 27.1497 29.1721 27.061C28.7435 26.6563 28.2213 26.1631 27.9472 25.7121C27.8946 25.6255 27.8454 25.5427 27.7995 25.4652C27.5536 25.0512 27.3996 24.7918 27.2999 24.9326C27.1816 25.0996 25.1951 27.2353 22.712 27.6348C20.2289 28.0342 17.1582 27.9985 15.375 25.0922C13.7043 22.3692 14.6682 18.6756 15.9206 17.067C17.1729 15.4583 19.905 14.3772 22.4637 14.1073C24.5107 13.8913 26.0727 13.7022 26.5979 13.6347ZM26.5814 16.8541V19.0874C26.5814 20.8751 25.4868 23.7291 23.0471 23.7291C20.6073 23.7291 20.0844 21.0794 20.6167 19.6082C21.149 18.1369 22.1614 17.3569 24.149 17.0129C25.4872 16.7813 26.2037 16.83 26.4793 16.8487C26.5254 16.8518 26.5591 16.8541 26.5814 16.8541Z" fill="#2C2E30"/>
<path d="M6.29235 28.0118C5.63966 27.6625 5.49761 27.6634 5.35212 27.9253C5.20663 28.1873 5.90231 28.6774 7.081 29.6C8.48566 30.6994 13.5129 34.7012 22.6007 35.0637C30.8333 35.392 36.8572 31.7127 37.8516 31.1054L37.8636 31.0981C38.8207 30.5135 38.8134 30.1482 38.7476 29.9583C38.6819 29.7683 38.4067 29.4797 37.4485 29.8969C36.4903 30.314 31.1262 32.8281 22.3181 32.4471C13.5099 32.0661 7.02476 28.4038 6.29235 28.0118Z" fill="#F8A61B"/>
<path d="M36.7197 27.4917C35.047 28.0185 35.1257 28.4512 35.203 28.5746C35.2802 28.6979 35.4982 28.6974 35.6835 28.6692C35.9153 28.6339 38.2116 28.3331 39.2795 28.4187C40.3474 28.5044 40.4029 29.0736 40.2366 29.8997C40.0704 30.7258 39.6825 31.8039 39.3954 32.5847C39.1082 33.3654 38.9521 33.572 39.2291 33.6375C39.5062 33.703 40.5086 32.7257 41.0577 31.688C41.6068 30.6503 42.02 29.0001 41.9989 28.267C41.9778 27.5339 41.8725 27.441 41.1731 27.2388C40.4737 27.0366 38.3924 26.9649 36.7197 27.4917Z" fill="#F8A61B"/>
</g>
<defs>
<filter id="filter0_dd_24140_12785" x="0.666992" y="0" width="46" height="47" filterUnits="userSpaceOnUse" color-interpolation-filters="sRGB">
<feFlood flood-opacity="0" result="BackgroundImageFix"/>
<feColorMatrix in="SourceAlpha" type="matrix" values="0 0 0 0 0 0 0 0 0 0 0 0 0 0 0 0 0 0 127 0" result="hardAlpha"/>
<feOffset dy="1"/>
<feGaussianBlur stdDeviation="0.5"/>
<feComposite in2="hardAlpha" operator="out"/>
<feColorMatrix type="matrix" values="0 0 0 0 0 0 0 0 0 0 0 0 0 0 0 0 0 0 0.06 0"/>
<feBlend mode="normal" in2="BackgroundImageFix" result="effect1_dropShadow_24140_12785"/>
<feColorMatrix in="SourceAlpha" type="matrix" values="0 0 0 0 0 0 0 0 0 0 0 0 0 0 0 0 0 0 127 0" result="hardAlpha"/>
<feMorphology radius="1" operator="erode" in="SourceAlpha" result="effect2_dropShadow_24140_12785"/>
<feOffset dy="4"/>
<feGaussianBlur stdDeviation="2"/>
<feComposite in2="hardAlpha" operator="out"/>
<feColorMatrix type="matrix" values="0 0 0 0 0 0 0 0 0 0 0 0 0 0 0 0 0 0 0.02 0"/>
<feBlend mode="normal" in2="effect1_dropShadow_24140_12785" result="effect2_dropShadow_24140_12785"/>
<feBlend mode="normal" in="SourceGraphic" in2="effect2_dropShadow_24140_12785" result="shape"/>
</filter>
</defs>
</svg>
