<svg width="43" height="40" viewBox="0 0 43 40" fill="none" xmlns="http://www.w3.org/2000/svg">
<rect x="1.66699" width="40" height="40" rx="8" fill="white"/>
<g filter="url(#filter0_dd_24144_12905)">
<g clip-path="url(#clip0_24144_12905)">
<path d="M26.4578 20.4378C24.822 20.4914 23.8056 20.7866 23.8056 21.8641C23.8056 22.5616 24.3617 23.3178 25.7735 23.3178C27.6663 23.3178 28.6766 22.2861 28.6766 20.594L28.6767 20.4078C28.0132 20.4078 27.1948 20.4136 26.4578 20.4378ZM30.4808 22.6735C30.4808 23.1985 30.496 23.7167 30.5418 24.1834H28.8637C28.819 23.7991 28.8026 23.4173 28.8026 23.047C27.8953 24.1622 26.8162 24.4829 25.3192 24.4829C23.0988 24.4829 21.91 23.3093 21.91 21.9518C21.91 19.9858 23.5269 19.2926 26.334 19.2283C27.1017 19.2107 27.9639 19.2081 28.6767 19.2081L28.6766 19.016C28.6766 17.6999 27.8327 17.1587 26.3702 17.1587C25.2845 17.1587 24.4843 17.608 24.4018 18.3844H22.5064C22.707 16.4486 24.7408 15.959 26.529 15.959C28.6713 15.959 30.4808 16.7212 30.4808 18.9871L30.4808 22.6735Z" fill="#FFBC13"/>
<path d="M10.8539 19.4778C10.7839 17.7902 9.56584 17.1587 8.26401 17.1587C6.86022 17.1587 5.73945 17.8691 5.54312 19.4778H10.8539ZM5.50423 20.6775C5.60159 22.3149 6.73074 23.2833 8.28334 23.2833C9.35903 23.2833 10.3159 22.845 10.6363 21.8916H12.4969C12.135 23.8262 10.0794 24.4829 8.31001 24.4829C5.09282 24.4829 3.66699 22.7111 3.66699 20.3217C3.66699 17.6913 5.14176 15.959 8.33936 15.959C10.8845 15.959 12.7494 17.291 12.7494 20.1982V20.6775H5.50423Z" fill="#F12C2D"/>
<path d="M17.3769 23.2491C19.0535 23.2491 20.2008 22.0423 20.2008 20.2212C20.2008 18.4002 19.0535 17.1933 17.3769 17.1933C15.7098 17.1933 14.553 18.4002 14.553 20.2212C14.553 22.0423 15.7098 23.2491 17.3769 23.2491ZM12.7493 12.7866H14.553L14.5528 17.3182C15.4368 16.2648 16.6548 15.959 17.8536 15.959C19.8637 15.959 22.0963 17.3154 22.0963 20.244C22.0963 22.6964 20.3207 24.4829 17.8201 24.4829C16.5113 24.4829 15.2792 24.0133 14.5194 23.0831C14.5194 23.4546 14.4987 23.8291 14.458 24.1834H12.6879C12.7186 23.6106 12.7493 22.8975 12.7493 22.3205L12.7493 12.7866Z" fill="#0968F6"/>
<path d="M39.667 16.2591L34.089 27.2137H32.0692L33.6728 24.1718L29.475 16.2591H31.5856L34.6746 22.4414L37.7548 16.2591H39.667Z" fill="#93C822"/>
</g>
</g>
<defs>
<filter id="filter0_dd_24144_12905" x="0.666992" y="2" width="42" height="43" filterUnits="userSpaceOnUse" color-interpolation-filters="sRGB">
<feFlood flood-opacity="0" result="BackgroundImageFix"/>
<feColorMatrix in="SourceAlpha" type="matrix" values="0 0 0 0 0 0 0 0 0 0 0 0 0 0 0 0 0 0 127 0" result="hardAlpha"/>
<feOffset dy="1"/>
<feGaussianBlur stdDeviation="0.5"/>
<feComposite in2="hardAlpha" operator="out"/>
<feColorMatrix type="matrix" values="0 0 0 0 0 0 0 0 0 0 0 0 0 0 0 0 0 0 0.06 0"/>
<feBlend mode="normal" in2="BackgroundImageFix" result="effect1_dropShadow_24144_12905"/>
<feColorMatrix in="SourceAlpha" type="matrix" values="0 0 0 0 0 0 0 0 0 0 0 0 0 0 0 0 0 0 127 0" result="hardAlpha"/>
<feMorphology radius="1" operator="erode" in="SourceAlpha" result="effect2_dropShadow_24144_12905"/>
<feOffset dy="4"/>
<feGaussianBlur stdDeviation="2"/>
<feComposite in2="hardAlpha" operator="out"/>
<feColorMatrix type="matrix" values="0 0 0 0 0 0 0 0 0 0 0 0 0 0 0 0 0 0 0.02 0"/>
<feBlend mode="normal" in2="effect1_dropShadow_24144_12905" result="effect2_dropShadow_24144_12905"/>
<feBlend mode="normal" in="SourceGraphic" in2="effect2_dropShadow_24144_12905" result="shape"/>
</filter>
<clipPath id="clip0_24144_12905">
<rect x="3.66699" y="2" width="36" height="36" rx="7.2" fill="white"/>
</clipPath>
</defs>
</svg>
