<svg width="41" height="40" viewBox="0 0 41 40" fill="none" xmlns="http://www.w3.org/2000/svg">
<rect x="0.666992" width="40" height="40" rx="7.27273" fill="#F1641E"/>
<path d="M17.3739 10.7533V19.6063C17.3739 19.6063 20.3347 19.6063 21.9057 19.4789C23.1745 19.2241 23.3558 19.0967 23.5975 17.8229L24.0809 15.9122H25.4102L25.1685 20.0521L25.2894 24.3831H23.96L23.5975 22.7271C23.235 21.517 22.812 21.2622 21.9057 21.1985C20.7576 21.0712 17.3739 21.0712 17.3739 21.0712V28.523C17.3739 29.9242 18.0386 30.5611 19.67 30.5611H24.4434C25.8936 30.5611 27.4042 30.4337 28.3105 28.1408L29.519 25.2747H30.667C30.5461 25.848 30.0023 31.1343 29.8815 32.3444C29.8815 32.3444 25.5915 32.217 23.7788 32.217H15.5613H10.667V30.9432L12.238 30.5611C13.386 30.3063 13.7486 29.9879 13.7486 29.0325C13.7486 29.0325 13.8694 25.7843 13.8694 20.4342C13.8694 15.0842 13.7486 11.836 13.7486 11.836C13.7486 10.7533 13.386 10.4985 12.238 10.3074L10.667 9.86159V8.58777L15.4404 8.71515H24.5039C26.3165 8.65146 29.3981 8.33301 29.3981 8.33301C29.3981 8.33301 29.2773 10.3711 29.1564 15.1479H27.8875L27.4042 13.492C26.9812 11.3265 26.3165 10.2437 25.0477 10.2437H17.9177C17.3739 10.2437 17.3739 10.3711 17.3739 10.7533Z" fill="white"/>
</svg>
