<svg width="96" height="96" viewBox="0 0 96 96" fill="none" xmlns="http://www.w3.org/2000/svg">
<path d="M65.5404 67.1548C65.5404 67.3751 65.5404 67.5955 65.5404 67.8158C65.9811 68.6971 67.0828 68.9175 67.9641 68.9175C69.2861 68.9175 70.6081 68.0361 71.2691 67.1548C71.2691 66.9345 71.4894 66.7141 71.7097 66.4938C72.1504 65.8328 72.3707 65.3921 72.5911 65.1718C72.5911 65.1718 72.3707 64.9515 72.3707 64.7311C72.1504 64.2905 71.4894 63.8498 70.6081 63.6295C69.9471 63.4091 68.8454 63.1888 68.4048 63.1888C66.4218 62.9685 65.3201 63.6295 64.6591 64.2905C64.6591 64.2905 64.8794 64.2905 64.8794 64.5108C65.3201 64.9515 65.5404 65.3921 65.5404 66.0531C65.7608 66.4938 65.5404 66.7141 65.5404 67.1548Z" fill="#455A64"/>
<path d="M37.3378 74.2055C35.1344 70.6801 34.9141 70.0191 33.3718 67.8158C32.0498 65.6125 29.1854 61.4261 27.4228 61.4261C26.1008 61.4261 25.4398 62.0871 24.5584 62.9685C23.6771 63.8498 22.7958 65.8328 21.2535 66.9345C19.9315 68.0361 16.1858 67.8158 15.3045 69.1378C14.4231 70.4598 16.1858 72.4428 16.1858 75.7478C16.1858 77.0698 15.0841 77.9511 14.8638 78.8324C14.6435 79.9341 14.4231 80.5951 14.8638 81.4764C15.7451 82.7984 16.8468 83.2391 24.3381 84.7814C28.3041 85.6628 32.0498 87.8661 34.4734 88.0864C36.8971 88.3068 41.0834 88.0864 41.0834 82.1374C41.3038 78.6121 39.3208 77.7308 37.3378 74.2055Z" fill="#FFC107"/>
<path d="M81.6254 73.5445C80.7441 73.1038 79.2018 72.4428 77.8798 70.4598C77.2188 69.3582 77.4391 66.2735 76.3374 64.9515C75.6764 64.0702 74.7951 64.5108 74.5748 64.5108C72.5918 64.9515 67.9641 68.0361 64.8794 64.5108C64.4388 64.0701 63.7784 63.4092 62.6768 63.4092C61.5751 63.4092 61.1344 63.8498 60.6938 64.7312C60.2531 65.6125 60.2531 66.2735 60.2531 68.4768C60.2531 70.2395 60.2531 72.2225 60.0328 73.7648C59.5921 77.5105 58.9311 79.7138 58.9311 81.9171C58.9311 84.3408 59.5921 85.8831 60.4734 86.5441C61.1344 87.2051 62.2361 87.6458 64.6598 87.6458C67.0834 87.6458 68.6258 86.7645 70.1681 85.2221C71.2698 84.1205 72.1511 83.6798 75.2358 81.4765C77.6594 79.9341 81.4051 77.9511 82.0661 77.2901C82.5067 76.8495 83.1677 76.6292 83.1677 75.3072C83.1677 74.2055 82.2864 73.7648 81.6254 73.5445Z" fill="#FFC107"/>
<path d="M70.6084 43.3588C67.0831 38.2912 64.2188 35.2065 62.6764 28.8168C61.1341 22.4272 63.1171 24.1898 61.7951 18.6815C61.1341 15.8172 60.0324 13.8342 58.9308 12.2919C57.6088 10.7495 56.0664 9.86819 55.1851 9.64786C53.2021 8.54619 48.5751 6.78353 42.8465 9.86819C36.8975 12.9529 37.5585 19.5628 38.6601 33.0032C38.6601 33.8845 38.4398 34.9862 37.9991 35.8675C37.1178 37.8505 35.5755 39.6132 34.2535 41.1555C32.7111 43.3588 31.1688 45.5621 30.0671 47.9858C27.4231 53.0535 24.9995 59.4431 25.6605 61.8668C26.7621 61.6465 40.6431 82.7984 40.6431 83.2391C41.5245 83.0188 45.2701 83.0188 48.5751 83.0188C53.2021 82.7984 55.8461 82.5781 59.5918 83.4594C59.5918 82.7984 59.3714 82.1374 59.3714 81.4764C59.3714 80.1544 59.5918 79.0528 59.8121 77.5104C60.0324 76.4088 60.2528 75.3071 60.4731 73.9851C58.2698 75.9681 54.3038 78.1714 50.5581 78.8324C47.2531 79.4934 41.7448 78.3918 39.1008 75.0868C39.3211 75.0868 39.7618 75.0868 39.9821 74.8665C40.6431 74.6461 41.3041 74.4258 41.5245 73.9851C42.1855 72.8834 41.7448 71.7818 41.3041 71.1208C40.8635 70.4598 37.5585 68.0361 36.0161 66.7141C34.4738 65.3921 33.5925 64.7311 32.7111 63.8498C32.7111 63.8498 31.3891 62.5278 30.9485 62.0871C30.5078 61.6465 30.2875 61.2058 30.0671 60.9855C29.6265 59.8838 29.4061 58.5618 29.6265 56.7991C29.8468 54.3755 30.7281 52.3925 31.8298 50.1891C32.2705 49.3078 33.3721 47.5451 33.3721 47.5451C33.3721 47.5451 29.6265 56.7991 31.6095 59.6635C31.6095 59.6635 31.8298 56.7991 32.7111 53.9348C33.3721 51.9518 34.4738 49.0875 35.7958 47.5451C37.1178 46.0028 40.4228 40.2742 40.6431 36.7488C40.6431 35.2065 40.8635 33.6642 40.8635 32.5625C39.9821 31.6812 55.4054 29.4778 56.2868 31.9015C56.5071 32.7828 59.5918 40.7148 61.3544 44.9011C62.2358 46.8841 63.3374 48.6468 63.9984 50.8501C64.6594 53.2738 65.1001 56.5788 65.1001 59.8838C65.1001 60.5448 65.1001 61.6465 64.8798 62.7481C65.3204 62.7481 73.9134 53.4941 63.7781 45.7825C63.7781 45.7825 69.9474 48.6468 70.1678 54.3755C70.3881 59.0025 68.4051 62.7481 67.9644 63.4091C68.1848 63.4091 72.5914 65.3921 72.8118 65.3921C73.6931 65.3921 75.4558 64.7311 75.4558 64.7311C75.6761 64.0701 76.3371 62.3075 76.3371 61.6465C77.8794 56.5788 74.1338 48.4265 70.6084 43.3588Z" fill="#263238"/>
<path d="M39.3219 30.7999L39.5423 35.8676L36.017 42.4775L30.5086 53.2739L29.407 62.3075L33.373 75.0868L42.4066 80.1545H56.0673L68.8466 70.4599L74.5752 55.2569L61.3553 39.1726L57.6096 30.1389L39.3219 30.7999Z" fill="#ECEFF1"/>
<path d="M42.501 9.20203C48.4501 6.00366 53.3072 7.77086 55.4658 8.94714C56.5336 9.24777 58.1442 10.2219 59.5 11.8036L59.5215 11.829L59.541 11.8563C60.6883 13.4625 61.8391 15.5345 62.5264 18.5126H62.5254C62.8622 19.9171 62.9971 20.8905 63.0234 21.6649C63.05 22.4455 62.9643 23.0011 62.8965 23.5165C62.7721 24.4619 62.6534 25.5255 63.4053 28.6405C64.9058 34.8568 67.6527 37.7974 71.2236 42.9305C73.0177 45.5096 74.8691 48.8732 76.0791 52.2499C77.2657 55.5614 77.8831 59.0193 77.0791 61.7762C77.0638 62.0058 77.0155 62.2601 76.959 62.4921C76.8878 62.7844 76.7921 63.1054 76.6934 63.4159C76.627 63.6245 76.5529 63.8388 76.4834 64.0428C76.6333 64.1553 76.7777 64.2964 76.9131 64.4716H76.9141C77.2831 64.9145 77.5121 65.4664 77.6699 66.0038C77.8293 66.5465 77.9312 67.132 78.0146 67.6747C78.1012 68.2375 78.165 68.7321 78.251 69.1786C78.3366 69.6229 78.426 69.9051 78.5156 70.0614C79.6972 71.8244 81.0435 72.4171 81.9248 72.8553C82.2835 72.9794 82.7546 73.181 83.1494 73.5399C83.5928 73.9431 83.918 74.5248 83.918 75.3075C83.9179 76.1106 83.7109 76.669 83.3682 77.0975C83.2097 77.2957 83.0384 77.4447 82.9043 77.5565C82.754 77.6817 82.6749 77.742 82.5967 77.8202C82.3612 78.0557 81.9276 78.3476 81.46 78.6415C80.9664 78.9517 80.3505 79.3154 79.6895 79.701C78.3611 80.4759 76.8434 81.3423 75.6494 82.1014C74.1256 83.1895 73.1029 83.874 72.3896 84.3759C71.6629 84.8873 71.2059 85.2451 70.6982 85.7528C69.8904 86.5606 69.0489 87.2289 68.0625 87.6913C67.0702 88.1564 65.9684 88.3953 64.6602 88.3954C62.2031 88.3954 60.8535 87.9589 59.9785 87.1073C59.1835 86.4866 58.6222 85.4067 58.3564 83.9657C55.2655 83.3814 52.7965 83.5681 48.6104 83.7675L48.5928 83.7684H48.5752C46.9208 83.7684 45.1659 83.7684 43.7148 83.7958C42.9892 83.8095 42.3461 83.8301 41.834 83.8602C41.7887 83.8629 41.7445 83.8663 41.7021 83.869C41.3613 85.9998 40.3739 87.326 39.0596 88.077C37.499 88.9688 35.6465 88.9457 34.4053 88.8329C33.0606 88.7106 31.4019 88.0513 29.707 87.3788C27.9645 86.6873 26.0969 85.9413 24.1865 85.5155C20.4549 84.7472 18.2523 84.2416 16.8721 83.7528C16.1731 83.5053 15.645 83.249 15.2207 82.9393C14.7863 82.6222 14.4946 82.2739 14.2402 81.8925L14.2139 81.8534L14.1934 81.8114C13.6119 80.6482 13.928 79.6848 14.1279 78.6854L14.1357 78.6503C14.2173 78.3241 14.3718 78.0298 14.5176 77.7831C14.6421 77.5723 14.8547 77.2494 14.9678 77.0643C15.2532 76.5973 15.4355 76.1944 15.4355 75.7479C15.4355 74.226 15.0336 73.0096 14.6982 71.9198C14.5363 71.3936 14.3741 70.8475 14.3242 70.3368C14.2722 69.8033 14.3347 69.2405 14.6807 68.7216C15.0356 68.1894 15.6211 67.8852 16.1611 67.6864C16.7168 67.4819 17.3615 67.3418 17.9639 67.2186C18.5883 67.0909 19.1705 66.9812 19.6875 66.8358C20.2143 66.6876 20.569 66.5286 20.7734 66.3583L20.7949 66.3407L20.8174 66.3241C21.4798 65.8509 22.0257 65.1683 22.54 64.4374C22.6672 64.2567 22.79 64.0765 22.9121 63.8973C23.0331 63.7199 23.155 63.5422 23.2744 63.3729C23.5094 63.0397 23.7602 62.7065 24.0283 62.4384C24.2968 62.1699 24.564 61.899 24.8545 61.6532C24.7511 60.9579 24.8091 60.1308 24.959 59.2606C25.1434 58.1906 25.4799 56.967 25.9141 55.6786C26.7828 53.1003 28.0664 50.1991 29.4023 47.6385C30.5363 45.1561 32.1111 42.9077 33.6387 40.7255L33.6602 40.6952L33.6836 40.6678C35.0252 39.1027 36.4855 37.4261 37.3135 35.5634L37.3203 35.5477L37.3281 35.5321C37.708 34.7723 37.9063 33.7964 37.9092 33.0204C37.3632 26.3607 36.9135 21.2674 37.3643 17.4637C37.5922 15.5409 38.055 13.8928 38.8848 12.5087C39.7208 11.1141 40.9034 10.0304 42.501 9.20203Z" stroke="white" stroke-width="1.5"/>
<path d="M39.3212 30.7999L39.5416 35.8676L36.0162 42.4776L30.5079 53.2739L29.4062 62.3075L33.3722 75.0869L42.4059 80.1545H56.0666L68.8459 70.4599L74.5745 55.2569L61.3545 39.1726L57.6089 30.1389L39.3212 30.7999Z" fill="#ECEFF1"/>
<path d="M70.6049 43.3588C67.0795 38.2912 64.2152 35.2065 62.6729 28.8168C61.1305 22.4272 63.1135 24.1898 61.7915 18.6815C61.1305 15.8172 60.0289 13.8342 58.9272 12.2919C57.6052 10.7495 56.0629 9.86819 55.1816 9.64786C53.1986 8.54619 48.5716 6.78353 42.8429 9.86819C36.8939 12.9529 37.5549 19.5628 38.6566 33.0032C38.6566 33.8845 38.4362 34.9862 37.9956 35.8675C37.1142 37.8505 35.5719 39.6132 34.2499 41.1555C32.7076 43.3588 31.1652 45.5621 30.0636 47.9858C27.4196 53.0535 24.9959 59.4431 25.6569 61.8668C26.7586 61.6465 40.6396 82.7984 40.6396 83.2391C41.5209 83.0188 45.2666 83.0188 48.5716 83.0188C53.1986 82.7984 55.8426 82.5781 59.5882 83.4594C59.5882 82.7984 59.3679 82.1374 59.3679 81.4764C59.3679 80.1544 59.5882 79.0528 59.8085 77.5104C60.0289 76.4088 60.2492 75.3071 60.4696 73.9851C58.2662 75.9681 54.3002 78.1714 50.5546 78.8324C47.2496 79.4934 41.7412 78.3918 39.0972 75.0868C39.3176 75.0868 39.7582 75.0868 39.9786 74.8664C40.6396 74.6461 41.3006 74.4258 41.5209 73.9851C42.1819 72.8834 41.7412 71.7818 41.3006 71.1208C40.8599 70.4598 37.5549 68.0361 36.0126 66.7141C34.4702 65.3921 33.5889 64.7311 32.7076 63.8498C32.7076 63.8498 31.3856 62.5278 30.9449 62.0871C30.5042 61.6465 30.2839 61.2058 30.0636 60.9855C29.6229 59.8838 29.4026 58.5618 29.6229 56.7991C29.8433 54.3755 30.7246 52.3925 31.8263 50.1891C32.2669 49.3078 33.3686 47.5451 33.3686 47.5451C33.3686 47.5451 29.6229 56.7991 31.6059 59.6635C31.6059 59.6635 31.8263 56.7991 32.7076 53.9348C33.3686 51.9518 34.4702 49.0875 35.7922 47.5451C37.1142 46.0028 40.4192 40.2741 40.6396 36.7488C40.6396 35.2065 40.8599 33.6642 40.8599 32.5625C39.9786 31.6812 55.4019 29.4778 56.2832 31.9015C56.5036 32.7828 59.5882 40.7148 61.3509 44.9011C62.2322 46.8841 63.3339 48.6468 63.9949 50.8501C64.6559 53.2738 65.0965 56.5788 65.0965 59.8838C65.0965 60.5448 65.0965 61.6465 64.8762 62.7481C65.3169 62.7481 73.9099 53.4941 63.7745 45.7825C63.7745 45.7825 69.9439 48.6468 70.1642 54.3755C70.3845 59.0025 68.4015 62.7481 67.9609 63.4091C68.1812 63.4091 72.5879 65.3921 72.8082 65.3921C73.6895 65.3921 75.4522 64.7311 75.4522 64.7311C75.6725 64.0701 76.3335 62.3075 76.3335 61.6465C77.8759 56.5788 74.1302 48.4265 70.6049 43.3588Z" fill="#263238"/>
<path d="M42.6261 28.8167C44.208 28.8167 45.4904 26.8438 45.4904 24.4101C45.4904 21.9763 44.208 20.0034 42.6261 20.0034C41.0441 20.0034 39.7617 21.9763 39.7617 24.4101C39.7617 26.8438 41.0441 28.8167 42.6261 28.8167Z" fill="#ECEFF1"/>
<path d="M52.5386 29.2575C54.6073 29.2575 56.2843 26.9886 56.2843 24.1898C56.2843 21.391 54.6073 19.1221 52.5386 19.1221C50.47 19.1221 48.793 21.391 48.793 24.1898C48.793 26.9886 50.47 29.2575 52.5386 29.2575Z" fill="#ECEFF1"/>
<path d="M44.2248 24.7119C44.0417 23.2632 43.2082 22.1754 42.3631 22.2822C41.518 22.389 40.9814 23.65 41.1645 25.0987C41.3477 26.5474 42.1812 27.6352 43.0262 27.5284C43.8713 27.4216 44.4079 26.1606 44.2248 24.7119Z" fill="#212121"/>
<path d="M52.3205 27.9356C53.5374 27.9356 54.5238 26.6532 54.5238 25.0713C54.5238 23.4894 53.5374 22.207 52.3205 22.207C51.1037 22.207 50.1172 23.4894 50.1172 25.0713C50.1172 26.6532 51.1037 27.9356 52.3205 27.9356Z" fill="#212121"/>
<path d="M81.624 73.5445C80.7427 73.1038 79.2003 72.4428 77.8783 70.4598C77.2173 69.3582 77.4377 66.2735 76.336 64.9515C75.675 64.0702 74.7937 64.5108 74.5733 64.5108C72.5903 64.9515 67.9633 68.0362 64.8787 64.5108C64.438 64.0702 63.777 63.4092 62.6754 63.4092C61.5737 63.4092 61.133 63.8498 60.6924 64.7312C60.2517 65.6125 60.2517 66.2735 60.2517 68.4768C60.2517 70.2395 60.2517 72.2225 60.0314 73.7648C59.5907 77.5105 58.9297 79.7138 58.9297 81.9172C58.9297 84.3408 59.5907 85.8832 60.472 86.5442C61.133 87.2052 62.2347 87.6458 64.6583 87.6458C67.082 87.6458 68.6243 86.7645 70.1667 85.2222C71.2683 84.1205 72.1497 83.6798 75.2343 81.4765C77.658 79.9342 81.4037 77.9512 82.0647 77.2902C82.5053 76.8495 83.1663 76.6292 83.1663 75.3072C83.1663 74.2055 82.285 73.7648 81.624 73.5445Z" fill="#FFC107"/>
<path d="M37.3378 74.2055C35.1344 70.6801 34.9141 70.0191 33.3718 67.8158C32.0498 65.6125 29.1854 61.4261 27.4228 61.4261C26.1008 61.4261 25.4398 62.0871 24.5584 62.9685C23.6771 63.8498 22.7958 65.8328 21.2535 66.9345C19.9315 68.0361 16.1858 67.8158 15.3045 69.1378C14.4231 70.4598 16.1858 72.4428 16.1858 75.7478C16.1858 77.0698 15.0841 77.9511 14.8638 78.8325C14.6435 79.9341 14.4231 80.5951 14.8638 81.4765C15.7451 82.7985 16.8468 83.2391 24.3381 84.7815C28.3041 85.6628 32.0498 87.8661 34.4734 88.0865C36.8971 88.3068 41.0834 88.0865 41.0834 82.1375C41.3038 78.6121 39.3208 77.7308 37.3378 74.2055Z" fill="#FFC107"/>
<path d="M41.5252 34.3252C40.2032 33.4439 39.1016 32.5626 39.1016 31.2406C39.1016 29.9186 39.9829 29.4779 41.3049 28.3762C41.5252 28.1559 43.9489 25.9526 46.3726 25.9526C48.7962 25.9526 51.6606 27.4949 52.7622 27.9356C54.7452 28.3762 56.7282 28.8169 56.5079 30.3592C56.2875 32.5626 56.0672 33.0032 53.8639 34.1049C52.3216 34.5456 49.4572 36.9692 47.4742 36.9692C46.5929 36.9692 45.2709 36.9692 44.3896 36.7489C43.7286 36.5286 42.6269 35.4269 41.5252 34.3252Z" fill="#FFC107"/>
<path d="M41.079 32.5626C41.5197 33.0032 42.1807 33.4439 42.8417 33.6642C43.2823 33.8846 43.9433 34.1049 43.9433 34.1049C44.8247 34.1049 45.4857 34.1049 45.9263 34.1049C47.028 34.1049 48.5703 33.6642 50.1127 32.7829C51.655 32.1219 51.8753 31.6812 52.977 31.2406C54.0787 30.5796 55.1803 29.9186 54.7397 29.6982C54.299 29.4779 53.8583 29.6982 52.316 30.5796C50.994 31.4609 49.8923 31.9016 48.5703 32.5626C47.9093 32.7829 47.028 33.2236 46.367 33.2236C45.706 33.2236 45.045 33.2236 44.384 33.2236C43.723 33.2236 43.2823 33.0032 42.6213 32.7829C42.1807 32.5626 41.9603 32.3422 41.74 32.3422C41.2993 32.1219 40.418 31.2406 39.9773 31.0202C39.9773 31.0202 39.5367 31.0202 39.757 31.2406C40.418 31.9016 40.6383 32.1219 41.079 32.5626Z" fill="#634703"/>
<path d="M47.6914 27.7152C47.9117 28.1559 48.3524 28.1559 48.5727 28.3762C48.7931 28.5966 49.0134 28.5966 49.0134 28.5966C49.2337 28.3762 49.0134 27.9356 48.7931 27.9356C48.7931 27.4949 47.6914 27.4949 47.6914 27.7152Z" fill="#634703"/>
<path d="M44.168 28.1559C44.168 28.3763 44.6086 28.5966 44.6086 28.3763C44.829 28.1559 45.0493 27.9356 45.2696 27.9356C45.7103 27.7153 45.49 27.4949 44.829 27.4949C44.3883 27.7153 44.3883 27.9356 44.168 28.1559Z" fill="#634703"/>
<path d="M65.5376 67.1548C65.5376 67.3752 65.5376 67.5955 65.5376 67.8158C65.9782 68.6972 67.0799 68.9175 67.9612 68.9175C69.2832 68.9175 70.6052 68.0362 71.2662 67.1548C71.2662 66.9345 71.4866 66.7142 71.7069 66.4938C72.1476 65.8328 72.3679 65.3922 72.5882 65.1718C72.5882 65.1718 72.3679 64.9515 72.3679 64.7312C72.1476 64.2905 71.4866 63.8498 70.6052 63.6295C69.9442 63.4092 68.8426 63.1888 68.4019 63.1888C66.4189 62.9685 65.3172 63.6295 64.6562 64.2905C64.6562 64.2905 64.8766 64.2905 64.8766 64.5108C65.3173 64.9515 65.5376 65.3922 65.5376 66.0532C65.7579 66.4938 65.5376 66.7142 65.5376 67.1548Z" fill="#455A64"/>
</svg>
