<svg width="100" height="100" viewBox="0 0 100 100" fill="none" xmlns="http://www.w3.org/2000/svg">
<circle cx="50" cy="50" r="48" fill="url(#paint0_linear_18477_54465)" stroke="#EDEDED" stroke-width="4"/>
<path d="M63.8066 73.4688C61.7754 73.4688 59.985 73.1562 58.4355 72.5312C56.8991 71.8932 55.6751 70.9883 54.7637 69.8164C53.8652 68.6445 53.3574 67.2578 53.2402 65.6562L53.2207 65.3828H56.7363L56.7754 65.6562C56.9186 66.5938 57.3027 67.4076 57.9277 68.0977C58.5527 68.7747 59.3796 69.3021 60.4082 69.6797C61.4499 70.0443 62.6478 70.2266 64.002 70.2266C65.3561 70.2266 66.528 70.0378 67.5176 69.6602C68.5072 69.2695 69.2689 68.7161 69.8027 68C70.3496 67.2839 70.623 66.444 70.623 65.4805V65.4609C70.623 64.224 70.1934 63.2344 69.334 62.4922C68.4746 61.75 67.0749 61.1641 65.1348 60.7344L62.0098 60.0508C59.2624 59.4388 57.2246 58.5013 55.8965 57.2383C54.5814 55.9622 53.9238 54.2956 53.9238 52.2383V52.2188C53.9368 50.6693 54.3665 49.3086 55.2129 48.1367C56.0592 46.9518 57.2246 46.0273 58.709 45.3633C60.2064 44.6862 61.9186 44.3477 63.8457 44.3477C65.6816 44.3477 67.3223 44.6797 68.7676 45.3438C70.2129 45.9948 71.3652 46.9062 72.2246 48.0781C73.097 49.25 73.5853 50.6042 73.6895 52.1406L73.709 52.4336H70.1934L70.1543 52.1602C70.0111 51.1966 69.6595 50.3763 69.0996 49.6992C68.5397 49.0221 67.804 48.5013 66.8926 48.1367C65.9941 47.7721 64.946 47.5898 63.748 47.5898C62.498 47.5898 61.4043 47.7786 60.4668 48.1562C59.5293 48.5339 58.8001 49.0612 58.2793 49.7383C57.7715 50.4154 57.5176 51.2096 57.5176 52.1211V52.1406C57.5176 53.2865 57.9538 54.2305 58.8262 54.9727C59.6986 55.7148 61.0527 56.2878 62.8887 56.6914L66.0137 57.375C67.9408 57.7917 69.5033 58.3451 70.7012 59.0352C71.9121 59.7253 72.7975 60.5846 73.3574 61.6133C73.9303 62.6289 74.2168 63.8529 74.2168 65.2852V65.3047C74.2168 66.9714 73.7936 68.4167 72.9473 69.6406C72.1139 70.8646 70.916 71.8086 69.3535 72.4727C67.804 73.1367 65.9551 73.4688 63.8066 73.4688Z" fill="black"/>
<path d="M38.0449 73.4688C35.3757 73.4688 33.0645 72.8763 31.1113 71.6914C29.1712 70.5065 27.6738 68.8268 26.6191 66.6523C25.5645 64.4779 25.0371 61.8997 25.0371 58.918V58.8789C25.0371 55.8971 25.5645 53.3255 26.6191 51.1641C27.6868 48.9896 29.1908 47.3099 31.1309 46.125C33.084 44.9401 35.3887 44.3477 38.0449 44.3477C40.7012 44.3477 42.9993 44.9401 44.9395 46.125C46.8796 47.3099 48.377 48.9896 49.4316 51.1641C50.4863 53.3255 51.0137 55.8971 51.0137 58.8789V58.918C51.0137 61.8997 50.4863 64.4779 49.4316 66.6523C48.377 68.8268 46.8796 70.5065 44.9395 71.6914C43.0124 72.8763 40.7142 73.4688 38.0449 73.4688ZM38.0449 70.2266C39.985 70.2266 41.6517 69.7643 43.0449 68.8398C44.4512 67.9023 45.5319 66.5872 46.2871 64.8945C47.0423 63.2018 47.4199 61.2096 47.4199 58.918V58.8789C47.4199 56.5742 47.0358 54.5755 46.2676 52.8828C45.5124 51.1901 44.4316 49.888 43.0254 48.9766C41.6191 48.0521 39.959 47.5898 38.0449 47.5898C36.1309 47.5898 34.4642 48.0521 33.0449 48.9766C31.6387 49.888 30.5514 51.1901 29.7832 52.8828C29.015 54.5625 28.6309 56.5612 28.6309 58.8789V58.918C28.6309 61.2227 29.015 63.2214 29.7832 64.9141C30.5514 66.6068 31.6387 67.9154 33.0449 68.8398C34.4512 69.7643 36.1178 70.2266 38.0449 70.2266Z" fill="black"/>
<path d="M63.2305 39.1758C62.2734 39.1758 61.4401 38.9544 60.7305 38.5117C60.0273 38.069 59.4805 37.444 59.0898 36.6367C58.7057 35.8229 58.5137 34.8659 58.5137 33.7656V33.7461C58.5137 32.6523 58.7057 31.7083 59.0898 30.9141C59.4805 30.1133 60.0273 29.4915 60.7305 29.0488C61.4336 28.6061 62.2637 28.3848 63.2207 28.3848C64.0215 28.3848 64.7214 28.5312 65.3203 28.8242C65.9258 29.1107 66.4141 29.5013 66.7852 29.9961C67.1562 30.4844 67.3939 31.0312 67.498 31.6367V31.6855H66.2188L66.209 31.6465C66.0592 31.041 65.724 30.5397 65.2031 30.1426C64.6888 29.7389 64.028 29.5371 63.2207 29.5371C62.5306 29.5371 61.9316 29.7096 61.4238 30.0547C60.916 30.3997 60.5221 30.888 60.2422 31.5195C59.9688 32.1445 59.832 32.8867 59.832 33.7461V33.7656C59.832 34.6315 59.972 35.3867 60.252 36.0312C60.5319 36.6693 60.9258 37.1641 61.4336 37.5156C61.9479 37.8607 62.5469 38.0332 63.2305 38.0332C64.0052 38.0332 64.6465 37.8542 65.1543 37.4961C65.6686 37.1315 66.0169 36.6302 66.1992 35.9922L66.2188 35.9434L67.498 35.9336L67.4785 36.0117C67.3483 36.6302 67.0977 37.1771 66.7266 37.6523C66.362 38.1276 65.8835 38.502 65.291 38.7754C64.7051 39.0423 64.0182 39.1758 63.2305 39.1758Z" fill="black"/>
<path d="M51.6191 39.1758C50.9486 39.1758 50.3496 39.0521 49.8223 38.8047C49.3014 38.5508 48.8913 38.196 48.5918 37.7402C48.2923 37.278 48.1426 36.7376 48.1426 36.1191V36.1094C48.1426 35.5039 48.2891 34.9863 48.582 34.5566C48.875 34.1204 49.3014 33.7786 49.8613 33.5312C50.4212 33.2839 51.1016 33.1341 51.9023 33.082L55.7988 32.8184V33.8633L52.0684 34.1172C51.196 34.1758 50.5417 34.3711 50.1055 34.7031C49.6758 35.0352 49.4609 35.4941 49.4609 36.0801V36.0996C49.4609 36.6986 49.6855 37.1738 50.1348 37.5254C50.584 37.877 51.1634 38.0527 51.873 38.0527C52.4915 38.0527 53.0482 37.9225 53.543 37.6621C54.0443 37.4017 54.4382 37.0501 54.7246 36.6074C55.0111 36.1582 55.1543 35.6569 55.1543 35.1035V31.9004C55.1543 31.1387 54.9297 30.556 54.4805 30.1523C54.0312 29.7422 53.3867 29.5371 52.5469 29.5371C51.8242 29.5371 51.2253 29.6836 50.75 29.9766C50.2812 30.2695 49.9785 30.6829 49.8418 31.2168L49.832 31.2559H48.5527L48.5625 31.1973C48.6471 30.6309 48.8685 30.1393 49.2266 29.7227C49.5846 29.2995 50.0469 28.9707 50.6133 28.7363C51.1862 28.502 51.8438 28.3848 52.5859 28.3848C53.3932 28.3848 54.0833 28.5247 54.6562 28.8047C55.2357 29.0781 55.6784 29.4753 55.9844 29.9961C56.2904 30.5169 56.4434 31.1419 56.4434 31.8711V39H55.1543V37.1738H55.0566C54.8548 37.584 54.5814 37.9421 54.2363 38.248C53.8978 38.5475 53.5072 38.7786 53.0645 38.9414C52.6217 39.0977 52.14 39.1758 51.6191 39.1758Z" fill="black"/>
<path d="M32.127 39V28.5605H33.416V30.4062H33.5137C33.735 29.7878 34.1029 29.2962 34.6172 28.9316C35.1315 28.5671 35.7467 28.3848 36.4629 28.3848C36.9577 28.3848 37.4004 28.4727 37.791 28.6484C38.1882 28.8242 38.5234 29.0684 38.7969 29.3809C39.0768 29.6934 39.2917 30.0612 39.4414 30.4844H39.5391C39.7148 30.0612 39.959 29.6934 40.2715 29.3809C40.5905 29.0684 40.9648 28.8242 41.3945 28.6484C41.8307 28.4727 42.2995 28.3848 42.8008 28.3848C43.4974 28.3848 44.0931 28.5247 44.5879 28.8047C45.0827 29.0781 45.4603 29.4753 45.7207 29.9961C45.9876 30.5104 46.1211 31.1322 46.1211 31.8613V39H44.832V32.1641C44.832 31.5911 44.7409 31.1126 44.5586 30.7285C44.3763 30.3379 44.1061 30.0417 43.748 29.8398C43.39 29.638 42.9505 29.5371 42.4297 29.5371C41.9023 29.5371 41.4368 29.6608 41.0332 29.9082C40.6296 30.1556 40.3171 30.4974 40.0957 30.9336C39.8743 31.3633 39.7637 31.8516 39.7637 32.3984V39H38.4746V32.0273C38.4746 31.526 38.3737 31.0898 38.1719 30.7188C37.9766 30.3411 37.6999 30.0514 37.3418 29.8496C36.9837 29.6413 36.5638 29.5371 36.082 29.5371C35.5742 29.5371 35.1185 29.6738 34.7148 29.9473C34.3112 30.2142 33.9922 30.5788 33.7578 31.041C33.5299 31.5033 33.416 32.0241 33.416 32.6035V39H32.127Z" fill="black"/>
<defs>
<linearGradient id="paint0_linear_18477_54465" x1="50" y1="0" x2="50" y2="100" gradientUnits="userSpaceOnUse">
<stop stop-color="white"/>
<stop offset="1" stop-color="#E5E5E5"/>
</linearGradient>
</defs>
</svg>
