<svg width="100" height="100" viewBox="0 0 100 100" fill="none" xmlns="http://www.w3.org/2000/svg">
<g clip-path="url(#clip0_18477_54473)">
<path d="M43.75 56.25V76.4218C43.75 77.2506 43.4208 78.0455 42.8347 78.6316C42.2487 79.2176 41.4538 79.5468 40.625 79.5468C40.4377 79.5456 40.2508 79.5286 40.0664 79.4961L15.0664 74.9492C14.3464 74.8184 13.6951 74.439 13.2261 73.8772C12.7571 73.3154 12.5001 72.6068 12.5 71.875V56.25C12.5 55.4212 12.8292 54.6263 13.4153 54.0403C14.0013 53.4542 14.7962 53.125 15.625 53.125H40.625C41.4538 53.125 42.2487 53.4542 42.8347 54.0403C43.4208 54.6263 43.75 55.4212 43.75 56.25ZM42.6289 21.1797C42.2774 20.8861 41.8657 20.6735 41.4228 20.5567C40.98 20.4399 40.517 20.4219 40.0664 20.5039L15.0664 25.0507C14.3464 25.1816 13.6951 25.5609 13.2261 26.1227C12.7571 26.6845 12.5001 27.3931 12.5 28.125V43.75C12.5 44.5788 12.8292 45.3736 13.4153 45.9597C14.0013 46.5457 14.7962 46.875 15.625 46.875H40.625C41.4538 46.875 42.2487 46.5457 42.8347 45.9597C43.4208 45.3736 43.75 44.5788 43.75 43.75V23.5781C43.7501 23.1206 43.6497 22.6687 43.456 22.2543C43.2623 21.8399 42.9799 21.473 42.6289 21.1797ZM84.375 53.125H53.125C52.2962 53.125 51.5013 53.4542 50.9153 54.0403C50.3292 54.6263 50 55.4212 50 56.25V78.6914C49.9992 79.4239 50.2557 80.1334 50.7248 80.696C51.1939 81.2586 51.8457 81.6386 52.5664 81.7695L83.8164 87.4492C84.0006 87.4837 84.1876 87.5007 84.375 87.5C85.2038 87.5 85.9987 87.1707 86.5847 86.5847C87.1708 85.9986 87.5 85.2038 87.5 84.375V56.25C87.5 55.4212 87.1708 54.6263 86.5847 54.0403C85.9987 53.4542 85.2038 53.125 84.375 53.125ZM86.3789 13.2265C86.0274 12.933 85.6157 12.7203 85.1728 12.6036C84.73 12.4868 84.267 12.4687 83.8164 12.5507L52.5664 18.2343C51.8464 18.3652 51.1951 18.7445 50.7261 19.3063C50.2571 19.8681 50.0001 20.5767 50 21.3086V43.75C50 44.5788 50.3292 45.3736 50.9153 45.9597C51.5013 46.5457 52.2962 46.875 53.125 46.875H84.375C85.2038 46.875 85.9987 46.5457 86.5847 45.9597C87.1708 45.3736 87.5 44.5788 87.5 43.75V15.625C87.5001 15.1675 87.3997 14.7156 87.206 14.3012C87.0123 13.8867 86.7299 13.5199 86.3789 13.2265Z" fill="#33A9FF"/>
</g>
<defs>
<clipPath id="clip0_18477_54473">
<rect width="100" height="100" fill="white"/>
</clipPath>
</defs>
</svg>
