<svg width="1512" height="654" viewBox="0 0 1512 654" fill="none" xmlns="http://www.w3.org/2000/svg">
<g opacity="0.5" clip-path="url(#clip0_39213_47431)">
<mask id="mask0_39213_47431" style="mask-type:alpha" maskUnits="userSpaceOnUse" x="-293" y="-456" width="2113" height="1109">
<ellipse cx="763.5" cy="98.5" rx="1056.5" ry="554.5" fill="url(#paint0_radial_39213_47431)"/>
</mask>
<g mask="url(#mask0_39213_47431)">
<g filter="url(#filter0_f_39213_47431)">
<path d="M835.5 427C978.266 427 1013.5 199.49 1013.5 57.0001C1013.5 -85.4894 1353.81 -171.93 1156.5 -263.5C1064.93 -305.997 994.025 -294.647 898 -263.5C669.894 -189.51 577 26.5103 577 169C577 311.489 692.734 427 835.5 427Z" fill="#FF90EA"/>
</g>
<g filter="url(#filter1_f_39213_47431)">
<path d="M867.544 -294.99C946.062 -385.981 1012.48 -532.543 1010.53 -652.711C1004.32 -1035.37 154.226 -686.188 -27.5186 -349.381C-182.187 -62.7515 -336.972 508.336 -12.1599 532.331C193.822 547.547 417.328 480.573 505.861 293.966C558.407 183.211 537.456 0.930968 611.058 -97.1017C668.633 -173.787 804.896 -222.39 867.544 -294.99Z" fill="#FFC8C2"/>
</g>
<g filter="url(#filter2_f_39213_47431)">
<circle cx="1430.5" cy="141.5" r="491.5" fill="url(#paint1_linear_39213_47431)"/>
</g>
<g filter="url(#filter3_f_39213_47431)">
<circle cx="1162" cy="77.0001" r="120" fill="#0094FF"/>
</g>
</g>
</g>
<defs>
<filter id="filter0_f_39213_47431" x="277" y="-591.279" width="1241.03" height="1318.28" filterUnits="userSpaceOnUse" color-interpolation-filters="sRGB">
<feFlood flood-opacity="0" result="BackgroundImageFix"/>
<feBlend mode="normal" in="SourceGraphic" in2="BackgroundImageFix" result="shape"/>
<feGaussianBlur stdDeviation="150" result="effect1_foregroundBlur_39213_47431"/>
</filter>
<filter id="filter1_f_39213_47431" x="-503.279" y="-1119.77" width="1813.85" height="1954.18" filterUnits="userSpaceOnUse" color-interpolation-filters="sRGB">
<feFlood flood-opacity="0" result="BackgroundImageFix"/>
<feBlend mode="normal" in="SourceGraphic" in2="BackgroundImageFix" result="shape"/>
<feGaussianBlur stdDeviation="150" result="effect1_foregroundBlur_39213_47431"/>
</filter>
<filter id="filter2_f_39213_47431" x="639" y="-650" width="1583" height="1583" filterUnits="userSpaceOnUse" color-interpolation-filters="sRGB">
<feFlood flood-opacity="0" result="BackgroundImageFix"/>
<feBlend mode="normal" in="SourceGraphic" in2="BackgroundImageFix" result="shape"/>
<feGaussianBlur stdDeviation="150" result="effect1_foregroundBlur_39213_47431"/>
</filter>
<filter id="filter3_f_39213_47431" x="842" y="-243" width="640" height="640" filterUnits="userSpaceOnUse" color-interpolation-filters="sRGB">
<feFlood flood-opacity="0" result="BackgroundImageFix"/>
<feBlend mode="normal" in="SourceGraphic" in2="BackgroundImageFix" result="shape"/>
<feGaussianBlur stdDeviation="100" result="effect1_foregroundBlur_39213_47431"/>
</filter>
<radialGradient id="paint0_radial_39213_47431" cx="0" cy="0" r="1" gradientUnits="userSpaceOnUse" gradientTransform="translate(763.5 -206) rotate(90) scale(859 988.295)">
<stop/>
<stop offset="1" stop-opacity="0"/>
</radialGradient>
<linearGradient id="paint1_linear_39213_47431" x1="1430.5" y1="-350" x2="1430.5" y2="633" gradientUnits="userSpaceOnUse">
<stop stop-color="#8BB5FF"/>
<stop offset="1" stop-color="#E1FBFF"/>
</linearGradient>
<clipPath id="clip0_39213_47431">
<rect width="1870" height="654" fill="white" transform="translate(-179)"/>
</clipPath>
</defs>
</svg>
