<svg width="48" height="48" viewBox="0 0 48 48" fill="none" xmlns="http://www.w3.org/2000/svg">
<path fill-rule="evenodd" clip-rule="evenodd" d="M2 24C2 11.8497 11.8497 2 24 2C36.1502 2 46 11.8497 46 24C46 36.1502 36.1502 46 24 46C11.8497 46 2 36.1502 2 24ZM34.4142 19.4142C35.1953 18.6332 35.1953 17.3668 34.4142 16.5858C33.6332 15.8047 32.3668 15.8047 31.5858 16.5858L21 27.1716L16.4142 22.5858C15.6332 21.8047 14.3668 21.8047 13.5858 22.5858C12.8047 23.3668 12.8047 24.6332 13.5858 25.4142L19.5858 31.4142C20.3668 32.1953 21.6332 32.1953 22.4142 31.4142L34.4142 19.4142Z" fill="#1DC94D"/>
</svg>
