<svg width="24" height="24" viewBox="0 0 24 24" fill="none" xmlns="http://www.w3.org/2000/svg">
<path d="M22 20C22.5523 20 23 20.4477 23 21C23 21.5523 22.5523 22 22 22H2C1.44772 22 1 21.5523 1 21C1 20.4477 1.44772 20 2 20H22Z" fill="white"/>
<path d="M14.293 7.29297C14.6835 6.90244 15.3165 6.90244 15.707 7.29297C16.0976 7.68349 16.0976 8.31651 15.707 8.70703L11.707 12.707C11.3165 13.0976 10.6835 13.0976 10.293 12.707L8.29297 10.707C7.90244 10.3165 7.90244 9.68349 8.29297 9.29297C8.68349 8.90244 9.31651 8.90244 9.70703 9.29297L11 10.5859L14.293 7.29297Z" fill="white"/>
<path d="M20 5C20 4.44772 19.5523 4 19 4H5C4.44772 4 4 4.44772 4 5V15C4 15.5523 4.44772 16 5 16H19C19.5523 16 20 15.5523 20 15V5ZM22 15C22 16.6569 20.6569 18 19 18H5C3.34315 18 2 16.6569 2 15V5C2 3.34315 3.34315 2 5 2H19C20.6569 2 22 3.34315 22 5V15Z" fill="white"/>
</svg>
