<svg width="24" height="24" viewBox="0 0 24 24" fill="none" xmlns="http://www.w3.org/2000/svg">
<path d="M18.424 22.4992C17.5215 22.4992 16.7353 22.358 16.0654 22.0757C15.3955 21.7878 14.8667 21.3891 14.4792 20.8798C14.0916 20.3704 13.8702 19.7807 13.8148 19.1108L13.8065 19.0029H15.6419L15.6502 19.0942C15.6889 19.4541 15.8301 19.7669 16.0737 20.0327C16.3229 20.2984 16.6551 20.506 17.0703 20.6555C17.4911 20.805 17.97 20.8798 18.5071 20.8798C19.0109 20.8798 19.4593 20.7995 19.8524 20.6389C20.2455 20.4784 20.5528 20.2569 20.7743 19.9745C21.0013 19.6922 21.1148 19.3683 21.1148 19.0029V18.9946C21.1148 18.535 20.9404 18.153 20.5916 17.8485C20.2428 17.544 19.6725 17.3059 18.8808 17.1343L17.5686 16.8602C16.3561 16.6 15.473 16.1875 14.9193 15.6228C14.3657 15.0525 14.0888 14.3244 14.0888 13.4386V13.4303C14.0944 12.7382 14.2799 12.1292 14.6453 11.6032C15.0162 11.0772 15.5284 10.6675 16.1817 10.3741C16.835 10.0806 17.5852 9.93391 18.4323 9.93391C19.2794 9.93391 20.0185 10.0806 20.6497 10.3741C21.2864 10.662 21.7875 11.0551 22.1529 11.5534C22.5239 12.0517 22.7315 12.6136 22.7758 13.2393L22.7841 13.3472H20.9653L20.9487 13.2393C20.8989 12.9126 20.7632 12.6219 20.5418 12.3672C20.3258 12.1126 20.0352 11.9132 19.6697 11.7693C19.3099 11.6198 18.8891 11.5478 18.4074 11.5534C17.9423 11.5534 17.5271 11.6253 17.1617 11.7693C16.7962 11.9077 16.5056 12.1098 16.2896 12.3756C16.0793 12.6413 15.9741 12.9624 15.9741 13.3389V13.3472C15.9741 13.7901 16.1429 14.1611 16.4807 14.4601C16.8239 14.7535 17.3804 14.9833 18.1499 15.1494L19.4621 15.4401C20.2981 15.6172 20.9764 15.8525 21.4968 16.146C22.0173 16.4394 22.3965 16.8021 22.6346 17.2339C22.8782 17.6602 23 18.1696 23 18.762V18.7703C23 19.5344 22.8118 20.196 22.4353 20.7552C22.0643 21.3088 21.5356 21.7379 20.849 22.0424C20.1625 22.347 19.3542 22.4992 18.424 22.4992Z" fill="black"/>
<path d="M6.5975 22.4992C5.43481 22.4992 4.43546 22.2445 3.59943 21.7352C2.76341 21.2203 2.12116 20.4922 1.6727 19.551C1.22423 18.6098 1 17.4997 1 16.2207V16.2041C1 14.9141 1.227 13.8012 1.681 12.8655C2.135 11.9299 2.78002 11.2073 3.61604 10.698C4.45761 10.1886 5.45142 9.93391 6.5975 9.93391C7.74911 9.93391 8.74293 10.1886 9.57896 10.698C10.415 11.2073 11.0572 11.9326 11.5057 12.8738C11.9597 13.8095 12.1867 14.9196 12.1867 16.2041V16.2207C12.1867 17.4997 11.9625 18.6098 11.514 19.551C11.0655 20.4867 10.4205 21.212 9.57896 21.7269C8.74293 22.2418 7.74911 22.4992 6.5975 22.4992ZM6.5975 20.8465C7.35048 20.8465 8.0038 20.6555 8.55746 20.2735C9.11112 19.8915 9.53743 19.3544 9.83641 18.6624C10.1354 17.9647 10.2849 17.1509 10.2849 16.2207V16.2041C10.2849 15.2629 10.1354 14.4462 9.83641 13.7542C9.53743 13.0621 9.11112 12.5278 8.55746 12.1513C8.0038 11.7748 7.35048 11.5866 6.5975 11.5866C5.84452 11.5866 5.1912 11.7748 4.63754 12.1513C4.08942 12.5278 3.6631 13.0621 3.35859 13.7542C3.05408 14.4462 2.90182 15.2629 2.90182 16.2041V16.2207C2.90182 17.1509 3.04854 17.9647 3.34198 18.6624C3.64096 19.3544 4.06451 19.8915 4.61263 20.2735C5.16629 20.6555 5.82791 20.8465 6.5975 20.8465Z" fill="black"/>
<path d="M18.1209 7.68396C17.6835 7.68396 17.3056 7.58984 16.9873 7.40159C16.6717 7.21058 16.4281 6.93929 16.2564 6.58771C16.0848 6.23614 15.999 5.81674 15.999 5.32952V5.32122C15.999 4.8423 16.0834 4.42983 16.2523 4.08379C16.4239 3.73775 16.6675 3.47061 16.9831 3.28237C17.3015 3.09412 17.6793 3 18.1167 3C18.496 3 18.8213 3.06644 19.0926 3.19932C19.3666 3.32943 19.5839 3.50937 19.7445 3.73914C19.9078 3.96614 20.0102 4.22497 20.0518 4.51564L20.0559 4.53641H19.1881L19.1839 4.5281C19.1341 4.30664 19.0192 4.12255 18.8392 3.97583C18.6593 3.82634 18.4199 3.75159 18.1209 3.75159C17.8717 3.75159 17.6572 3.81526 17.4772 3.94261C17.2973 4.06718 17.1589 4.24712 17.062 4.48242C16.9679 4.71773 16.9208 4.99733 16.9208 5.32122V5.32952C16.9208 5.66172 16.9693 5.94685 17.0662 6.18493C17.163 6.423 17.3015 6.60709 17.4814 6.7372C17.6613 6.86455 17.8745 6.92822 18.1209 6.92822C18.4032 6.92822 18.6316 6.86593 18.806 6.74136C18.9832 6.61678 19.1078 6.43269 19.1798 6.18908L19.1881 6.16832L20.0518 6.16417L20.0435 6.20154C19.9909 6.49498 19.8843 6.75243 19.7237 6.97389C19.5632 7.19536 19.3486 7.36976 19.0801 7.4971C18.8143 7.62167 18.4946 7.68396 18.1209 7.68396Z" fill="black"/>
<path d="M12.8222 7.6715C12.5371 7.6715 12.281 7.61752 12.054 7.50956C11.8298 7.39883 11.6526 7.24242 11.5225 7.04033C11.3924 6.83825 11.3273 6.60156 11.3273 6.33026V6.32196C11.3273 6.05066 11.3924 5.81951 11.5225 5.6285C11.6553 5.43749 11.8464 5.288 12.0955 5.18004C12.3474 5.0693 12.6519 5.00286 13.009 4.98072L14.6742 4.88106V5.51638L13.1336 5.61604C12.8236 5.63542 12.5952 5.70186 12.4485 5.81536C12.3017 5.92609 12.2284 6.0825 12.2284 6.28459V6.29289C12.2284 6.49775 12.3073 6.65969 12.4651 6.77873C12.6229 6.895 12.8222 6.95313 13.063 6.95313C13.2873 6.95313 13.4866 6.90884 13.661 6.82025C13.8382 6.7289 13.9766 6.60709 14.0762 6.45484C14.1759 6.29981 14.2257 6.12541 14.2257 5.93163V4.51149C14.2257 4.26234 14.1482 4.07272 13.9932 3.94261C13.8409 3.80973 13.6139 3.74329 13.3122 3.74329C13.0603 3.74329 12.854 3.78758 12.6935 3.87617C12.5357 3.96475 12.4305 4.08933 12.3779 4.24989L12.3696 4.26234H11.5017L11.5059 4.23328C11.5418 3.98413 11.6401 3.7682 11.8007 3.5855C11.964 3.40002 12.1772 3.25607 12.4402 3.15364C12.7059 3.05121 13.009 3 13.3495 3C13.7288 3 14.0499 3.0609 14.3129 3.18271C14.5787 3.30174 14.7794 3.47476 14.915 3.70176C15.0534 3.926 15.1226 4.19591 15.1226 4.51149V7.59676H14.2257V6.95728H14.1593C14.0707 7.10954 13.96 7.23965 13.8271 7.34761C13.6942 7.45281 13.5433 7.53309 13.3745 7.58845C13.2056 7.64382 13.0215 7.6715 12.8222 7.6715Z" fill="black"/>
<path d="M4.15586 7.59676V3.0872H5.05694V3.78066H5.12753C5.22719 3.53151 5.38222 3.33912 5.59261 3.20347C5.80577 3.06782 6.06045 3 6.35666 3C6.56151 3 6.7456 3.03322 6.90893 3.09966C7.07226 3.1661 7.21206 3.26022 7.32833 3.38202C7.44737 3.50106 7.54011 3.64225 7.60654 3.80557H7.67714C7.75188 3.64225 7.85708 3.50106 7.99272 3.38202C8.12837 3.26022 8.28616 3.1661 8.4661 3.09966C8.64881 3.03322 8.84259 3 9.04744 3C9.35196 3 9.61218 3.05952 9.8281 3.17856C10.044 3.29482 10.2087 3.46369 10.3222 3.68515C10.4357 3.90662 10.4925 4.17376 10.4925 4.48658V7.59676H9.59142V4.7025C9.59142 4.49488 9.55958 4.32325 9.49591 4.1876C9.43224 4.04919 9.33535 3.94537 9.20524 3.87617C9.07789 3.80696 8.91733 3.77235 8.72355 3.77235C8.53254 3.77235 8.36506 3.81665 8.22111 3.90523C8.07992 3.99105 7.96919 4.10732 7.88891 4.25404C7.8114 4.39799 7.77264 4.56132 7.77264 4.74403V7.59676H6.87156V4.61115C6.87156 4.43951 6.83557 4.29141 6.7636 4.16684C6.69439 4.0395 6.59473 3.94261 6.46462 3.87617C6.33451 3.80696 6.18087 3.77235 6.0037 3.77235C5.82376 3.77235 5.66181 3.81942 5.51786 3.91354C5.37668 4.00766 5.26456 4.135 5.18151 4.29556C5.09847 4.45336 5.05694 4.63053 5.05694 4.82708V7.59676H4.15586Z" fill="black"/>
</svg>
