<svg width="24" height="24" viewBox="0 0 24 24" fill="none" xmlns="http://www.w3.org/2000/svg">
<path d="M15.1913 4.00878C15.6072 3.52949 15.9242 2.97285 16.1242 2.37066C16.3243 1.76856 16.4035 1.13278 16.3572 0.5C15.0806 0.603078 13.8956 1.2035 13.0574 2.17189C12.6561 2.63602 12.352 3.17602 12.1629 3.75978C11.974 4.34355 11.9041 4.9594 11.9575 5.57067C12.5802 5.57582 13.1958 5.43766 13.7565 5.16687C14.3173 4.89598 14.8082 4.49976 15.1913 4.00878ZM17.9631 12.1922C17.9705 11.3493 18.1924 10.5224 18.6082 9.78912C19.0239 9.05588 19.6195 8.44068 20.3389 8.00153C19.8849 7.34732 19.2847 6.80789 18.5859 6.42607C17.8871 6.04425 17.109 5.83042 16.3132 5.80162C14.5973 5.62567 13.0135 6.80256 12.1004 6.80256C11.1875 6.80256 9.90062 5.82369 8.47071 5.84567C7.5359 5.87645 6.62503 6.14901 5.82697 6.63672C5.0289 7.12442 4.37087 7.81062 3.91702 8.62851C1.98117 11.9943 3.42202 16.9989 5.35787 19.7158C6.23788 21.0466 7.33778 22.5535 8.78967 22.4985C10.2416 22.4435 10.7146 21.5966 12.3974 21.5966C14.0803 21.5966 14.5973 22.4985 16.0272 22.4656C17.4571 22.4326 18.469 21.1016 19.393 19.7707C20.0475 18.8045 20.5589 17.7486 20.9109 16.636C20.0392 16.2642 19.2954 15.6452 18.7715 14.8555C18.2477 14.0658 17.9666 13.1399 17.9631 12.1922Z" fill="#BEBEBE"/>
</svg>
