<svg preserveAspectRatio="none" width="100%" height="100%" overflow="visible" style="display: block;" viewBox="0 0 20 20" fill="none" xmlns="http://www.w3.org/2000/svg">
<g id="Frame" clip-path="url(#clip0_0_64)">
<g id="Vector">
<path d="M16.9115 2.7443C17.2369 2.41887 17.7644 2.41887 18.0898 2.7443C18.4153 3.06974 18.4153 3.59725 18.0898 3.92269L14.7565 7.25602C14.4311 7.58146 13.9036 7.58146 13.5781 7.25602L11.9115 5.58936C11.586 5.26392 11.586 4.73641 11.9115 4.41097C12.2369 4.08553 12.7644 4.08553 13.0898 4.41097L14.1673 5.48844L16.9115 2.7443Z" fill="var(--fill-0, #11A3FD)"/>
<path d="M10.0007 0.833496C10.334 0.833496 10.6351 1.03246 10.7664 1.33887C10.8976 1.64511 10.8341 2.00003 10.6045 2.24137C8.80466 4.13119 7.72354 6.58124 7.53158 9.16683H18.334C18.7942 9.16683 19.1673 9.53993 19.1673 10.0002C19.1673 11.8131 18.6299 13.5855 17.6227 15.0929C16.6155 16.6003 15.1839 17.7756 13.509 18.4694C12.401 18.9283 11.2192 19.1612 10.0316 19.1652C10.0213 19.1656 10.011 19.1668 10.0007 19.1668C9.99194 19.1668 9.98329 19.1655 9.97461 19.1652C9.38583 19.1635 8.79576 19.107 8.21273 18.991C6.43457 18.6374 4.8007 17.7641 3.51872 16.4821C2.23674 15.2001 1.36346 13.5662 1.00977 11.7881C0.893771 11.2048 0.837229 10.6144 0.835612 10.0254C0.835362 10.017 0.833984 10.0086 0.833984 10.0002C0.833984 9.98952 0.835217 9.97897 0.835612 9.96842C0.839732 8.78111 1.0726 7.59954 1.53141 6.49186C2.22523 4.81696 3.40048 3.3853 4.90788 2.37809C6.41531 1.37088 8.18769 0.833497 10.0007 0.833496ZM2.54867 10.8335C2.57222 11.0441 2.60313 11.2544 2.64469 11.4634C2.93409 12.9182 3.64822 14.2548 4.6971 15.3037C5.629 16.2356 6.78843 16.9019 8.05566 17.2422C6.77153 15.3458 6.01034 13.1344 5.86165 10.8335H2.54867ZM14.1396 10.8335C13.991 13.1344 13.2298 15.3458 11.9456 17.2422C12.2592 17.158 12.5687 17.0541 12.8709 16.9289C14.2413 16.3612 15.4128 15.4001 16.2368 14.1668C16.9056 13.1658 17.3206 12.0219 17.4535 10.8335H14.1396ZM7.53158 10.8335C7.70099 13.1154 8.56341 15.2909 10.0007 17.0697C11.4379 15.2909 12.3003 13.1154 12.4697 10.8335H7.53158ZM8.05566 2.75732C7.26935 2.96848 6.51824 3.30682 5.83398 3.764C4.6007 4.58805 3.63961 5.75955 3.07194 7.12988C2.80086 7.78434 2.62572 8.4704 2.54785 9.16683H5.86165C6.01035 6.86572 6.7713 4.65386 8.05566 2.75732Z" fill="var(--fill-0, #11A3FD)"/>
</g>
</g>
<defs>
<clipPath id="clip0_0_64">
<rect width="20" height="20" fill="white"/>
</clipPath>
</defs>
</svg>
