<svg preserveAspectRatio="none" width="100%" height="100%" overflow="visible" style="display: block;" viewBox="0 0 27.2381 27.2381" fill="none" xmlns="http://www.w3.org/2000/svg">
<g id="rx_ic_chrome">
<g id="Vector">
<path d="M24.9683 13.6191C24.9683 19.8733 19.9093 24.9459 13.6604 24.9683L18.4096 16.7423C18.9964 15.8441 19.3375 14.7709 19.3375 13.618C19.3375 12.5369 19.0376 11.5259 18.5164 10.6636H24.0121C24.2029 10.6636 24.3845 10.6247 24.5498 10.5546C24.8225 11.5294 24.9683 12.5572 24.9683 13.6191Z" fill="var(--fill-0, white)"/>
<path d="M23.4312 7.91214C21.4643 4.53768 17.8065 2.26984 13.6191 2.26984C10.3552 2.26984 7.41305 3.64763 5.34264 5.85334C5.44826 5.94383 5.54057 6.05345 5.61406 6.18073L8.46877 11.1252C9.39508 9.21527 11.3528 7.89842 13.618 7.89842C13.7522 7.89842 13.8853 7.90304 14.0172 7.91214H23.4312Z" fill="var(--fill-0, white)"/>
<path d="M2.26984 13.6191C2.26984 18.9895 5.99998 23.4887 11.0107 24.6671C11.0354 24.5251 11.0851 24.385 11.1614 24.2529L14.0067 19.3246C13.8783 19.3331 13.7486 19.3375 13.618 19.3375C11.5776 19.3375 9.78675 18.2692 8.77438 16.6613C8.72863 16.6064 8.68693 16.5469 8.65 16.4829L3.75433 8.00336C2.80961 9.6593 2.26984 11.5761 2.26984 13.6191Z" fill="var(--fill-0, white)"/>
<path d="M16.3813 15.2116C16.4021 15.1756 16.4244 15.141 16.4481 15.1079C16.6828 14.663 16.8157 14.156 16.8157 13.618C16.8157 11.852 15.384 10.4203 13.618 10.4203C11.852 10.4203 10.4203 11.852 10.4203 13.618C10.4203 15.384 11.852 16.8157 13.618 16.8157C14.7202 16.8157 15.6922 16.258 16.2671 15.4095L16.3813 15.2116Z" fill="var(--fill-0, white)"/>
</g>
</g>
</svg>
