<svg preserveAspectRatio="none" width="100%" height="100%" overflow="visible" style="display: block;" viewBox="0 0 27.2381 27.2381" fill="none" xmlns="http://www.w3.org/2000/svg">
<g id="rx_ic_Firefox">
<path id="Vector" d="M7.65946 7.52713C7.66706 7.5276 7.66326 7.5276 7.65946 7.52713ZM24.3562 9.6818C23.8521 8.47024 22.832 7.16365 22.0309 6.74887C22.6828 8.02648 23.0605 9.30883 23.2045 10.2648C23.2047 10.2713 23.2055 10.2778 23.2069 10.2843C21.8965 7.01779 19.6742 5.7008 17.8594 2.83291C17.1471 1.70735 17.3404 1.63418 17.2379 1.66127L17.2322 1.66459C15.0129 2.89768 13.6529 5.38817 13.3087 7.49624C12.5191 7.53772 11.7455 7.73366 11.0314 8.0729C10.9672 8.10207 10.9148 8.15229 10.883 8.21524C10.8511 8.2782 10.8418 8.35013 10.8564 8.41917C10.8656 8.45903 10.8831 8.49651 10.9077 8.5292C10.9322 8.56189 10.9635 8.58907 10.9992 8.60898C11.0349 8.62889 11.0744 8.64105 11.1152 8.64475C11.1559 8.64841 11.197 8.64352 11.2357 8.63036L11.2605 8.62038C11.9969 8.2734 12.7997 8.08991 13.6137 8.08254C16.5988 8.05551 18.2299 10.1742 18.727 11.0421C18.1093 10.6073 16.9999 10.1778 15.9323 10.3636C20.101 12.4475 18.9826 19.6064 13.2056 19.3529C10.3803 19.2289 8.5936 16.9307 8.4292 15.0388C8.4292 15.0388 8.96371 13.0457 12.2596 13.0457C12.616 13.0457 13.6342 12.0517 13.6532 11.7628C13.6489 11.6678 11.6322 10.866 10.8457 10.0914C10.4253 9.67738 10.2255 9.47812 10.0489 9.32831C9.9533 9.24716 9.85319 9.17152 9.74909 9.10168C9.48478 8.17724 9.47343 7.19882 9.71626 6.26852C8.5256 6.81064 7.59959 7.66776 6.92682 8.42415H6.92112C6.46168 7.84213 6.49351 5.92263 6.52059 5.52211C6.51489 5.49692 6.17717 5.69638 6.13337 5.72688C5.72639 6.01444 5.34717 6.33942 5.00067 6.69756C4.22665 7.48627 2.90387 9.08049 2.36375 11.5072C2.14823 12.4757 2.04257 13.6178 2.04257 13.9921C2.04257 20.392 7.23137 25.5799 13.6317 25.5799C19.3636 25.5799 24.2279 21.4355 25.0551 15.9529C25.6049 12.3089 24.3562 9.72561 24.3562 9.6818Z" fill="var(--fill-0, white)"/>
</g>
</svg>
