<svg preserveAspectRatio="none" width="100%" height="100%" overflow="visible" style="display: block;" viewBox="0 0 18 18" fill="none" xmlns="http://www.w3.org/2000/svg">
<g id="rx_ic_lightning">
<g id="Vector">
<path d="M3 10.5C2.85807 10.5005 2.71892 10.4607 2.59872 10.3852C2.47851 10.3098 2.38218 10.2018 2.32091 10.0737C2.25965 9.94572 2.23597 9.80294 2.25262 9.66199C2.26928 9.52105 2.32559 9.38772 2.415 9.2775L9.84 1.6275C9.8957 1.56321 9.97159 1.51977 10.0552 1.5043C10.1389 1.48883 10.2253 1.50226 10.3003 1.54238C10.3753 1.5825 10.4344 1.64692 10.468 1.72508C10.5016 1.80324 10.5076 1.89049 10.485 1.9725L9.045 6.4875C9.00254 6.60114 8.98828 6.72339 9.00344 6.84376C9.01861 6.96412 9.06274 7.07901 9.13207 7.17857C9.20139 7.27813 9.29383 7.35939 9.40146 7.41537C9.50908 7.47136 9.62868 7.5004 9.75 7.5H15C15.1419 7.49952 15.2811 7.53931 15.4013 7.61477C15.5215 7.69022 15.6178 7.79823 15.6791 7.92626C15.7404 8.05428 15.764 8.19706 15.7474 8.33801C15.7307 8.47895 15.6744 8.61228 15.585 8.7225L8.16 16.3725C8.1043 16.4368 8.02841 16.4802 7.94476 16.4957C7.86112 16.5112 7.77471 16.4977 7.6997 16.4576C7.6247 16.4175 7.56556 16.3531 7.532 16.2749C7.49844 16.1968 7.49244 16.1095 7.515 16.0275L8.955 11.5125C8.99746 11.3989 9.01172 11.2766 8.99656 11.1562C8.98139 11.0359 8.93725 10.921 8.86793 10.8214C8.79861 10.7219 8.70617 10.6406 8.59854 10.5846C8.49092 10.5286 8.37132 10.4996 8.25 10.5H3Z" fill="url(#paint0_linear_0_60)"/>
<path d="M9.91883 0.76709C10.1385 0.726469 10.3646 0.751801 10.5685 0.839599L10.6542 0.881348L10.7362 0.929687C10.8957 1.03327 11.0261 1.17574 11.1156 1.34351L11.1574 1.4292L11.191 1.51855C11.2609 1.72897 11.267 1.956 11.2079 2.17114C11.2052 2.18085 11.2029 2.19085 11.1998 2.20044L9.75989 6.71509L9.74744 6.75024H14.9996C15.2827 6.74969 15.5604 6.82897 15.8002 6.97949C16.0405 7.1304 16.2328 7.34677 16.3554 7.60278C16.4778 7.8588 16.5256 8.14418 16.4923 8.42603C16.459 8.70792 16.346 8.97463 16.1671 9.19507C16.1532 9.21226 16.1386 9.22898 16.1232 9.24487L8.69788 16.895L8.69715 16.8943C8.53311 17.0697 8.31808 17.1896 8.08118 17.2334C7.83027 17.2798 7.57085 17.2395 7.34583 17.1191C7.12083 16.9988 6.94334 16.805 6.84266 16.5706C6.74209 16.3362 6.72448 16.0745 6.79212 15.8286L6.80018 15.7993L8.24012 11.2847L8.25257 11.2502H2.99964C2.7168 11.2507 2.43943 11.1707 2.19984 11.0203C1.9596 10.8694 1.76716 10.6536 1.64466 10.3977C1.52213 10.1417 1.47439 9.85562 1.5077 9.57373C1.54104 9.29192 1.65411 9.02506 1.83289 8.80469C1.84681 8.78755 1.86146 8.77073 1.87684 8.75488L9.30213 1.10547C9.46617 0.929937 9.68185 0.810929 9.91883 0.76709ZM3.00184 9.75024H8.24964C8.49156 9.74979 8.73007 9.80778 8.94471 9.91943C9.1599 10.0314 9.34515 10.1935 9.48377 10.3926C9.62242 10.5917 9.71052 10.822 9.74085 11.0627C9.76959 11.2912 9.74277 11.5222 9.66761 11.7395L9.66981 11.7402L8.71985 14.7183L14.9982 8.25024H9.74964C9.508 8.25058 9.26971 8.19256 9.0553 8.08105C8.84005 7.96909 8.65489 7.8063 8.51624 7.60718C8.37769 7.40815 8.28951 7.17834 8.25916 6.93774C8.23034 6.70898 8.2563 6.47709 8.33167 6.25952H8.33021L9.27942 3.28076L3.00184 9.75024Z" fill="url(#paint1_linear_0_60)"/>
</g>
</g>
<defs>
<linearGradient id="paint0_linear_0_60" x1="16.5026" y1="9.00019" x2="1.49737" y2="9.00019" gradientUnits="userSpaceOnUse">
<stop stop-color="#C481FA"/>
<stop offset="1" stop-color="#12A3FC"/>
</linearGradient>
<linearGradient id="paint1_linear_0_60" x1="16.5026" y1="9.00019" x2="1.49737" y2="9.00019" gradientUnits="userSpaceOnUse">
<stop stop-color="#C481FA"/>
<stop offset="1" stop-color="#12A3FC"/>
</linearGradient>
</defs>
</svg>
