<svg width="140" height="34" viewBox="0 0 140 34" fill="none" xmlns="http://www.w3.org/2000/svg">
<path d="M23.5683 3.99365H5.89206C2.63797 3.99365 0 6.63162 0 9.88572V27.5619C0 30.816 2.63797 33.454 5.89206 33.454H23.5683C26.8224 33.454 29.4603 30.816 29.4603 27.5619V9.88572C29.4603 6.63162 26.8224 3.99365 23.5683 3.99365Z" fill="white"/>
<path d="M23.5677 4.17773H5.89153C2.73912 4.17773 0.183594 6.73326 0.183594 9.88567V27.5619C0.183594 30.7143 2.73912 33.2698 5.89153 33.2698H23.5677C26.7201 33.2698 29.2757 30.7143 29.2757 27.5619V9.88567C29.2757 6.73326 26.7201 4.17773 23.5677 4.17773Z" stroke="black" stroke-opacity="0.05" stroke-width="0.368254"/>
<path d="M8.63098 18.7272C13.2257 9.98143 18.1102 3.69637 21.6412 0.237171C22.2762 -0.384921 23.2465 0.318997 22.9857 1.16882C21.0128 7.59653 19.6508 17.7706 19.0419 22.6587C18.9768 23.1813 18.4653 23.5236 17.9567 23.3867L9.70978 21.1663C8.65224 20.8817 8.12159 19.6967 8.63098 18.7272Z" fill="#7EC9FF"/>
<path d="M16.111 23.0575C16.0196 17.0947 16.6079 12.2354 17.2389 8.9626C17.506 7.57654 19.2039 7.25293 19.976 8.43462C22.4044 12.1512 24.0321 15.8918 24.8641 19.3245C25.0338 20.025 24.7128 20.7442 24.0991 21.1219L18.696 24.447C17.5758 25.1365 16.1311 24.3727 16.111 23.0575Z" fill="#1A93EB"/>
<path d="M3.32466 22.818C2.67761 22.2363 3.25477 21.1787 4.09419 21.408L25.0802 27.143C25.9447 27.3792 26.1532 28.51 25.4298 29.0391C24.4189 29.7785 23.1947 30.169 21.9422 30.1515L12.4993 30.0195C11.7361 30.0089 11.0026 29.7217 10.4351 29.2114L3.32466 22.818Z" fill="#1B5BBC"/>
<path d="M40.9873 24.7236V12.0925H47.9104C48.8433 12.0925 49.6167 12.2582 50.2304 12.5897C50.8565 12.9211 51.3229 13.3875 51.6298 13.989C51.9367 14.5782 52.0901 15.2595 52.0901 16.0328C52.0901 16.8553 51.906 17.5856 51.5377 18.2239C51.1695 18.85 50.6355 19.3287 49.9358 19.6601L52.5136 24.7236H49.4755L47.2476 20.1205H43.7307V24.7236H40.9873ZM43.7307 17.9478H47.5422C48.0946 17.9478 48.5242 17.782 48.8311 17.4506C49.1379 17.1069 49.2914 16.6466 49.2914 16.0697C49.2914 15.7014 49.2239 15.3884 49.0888 15.1306C48.9538 14.8606 48.7574 14.658 48.4996 14.523C48.2419 14.388 47.9227 14.3205 47.5422 14.3205H43.7307V17.9478ZM58.4563 24.9446C57.4006 24.9446 56.5046 24.7666 55.7681 24.4106C55.0315 24.0424 54.473 23.4838 54.0925 22.7351C53.712 21.974 53.5217 21.0227 53.5217 19.8811C53.5217 18.715 53.712 17.7636 54.0925 17.0271C54.473 16.2783 55.0315 15.726 55.7681 15.37C56.5046 15.0017 57.4006 14.8176 58.4563 14.8176C59.5365 14.8176 60.4387 15.0017 61.163 15.37C61.8995 15.726 62.458 16.2783 62.8385 17.0271C63.2191 17.7636 63.4093 18.715 63.4093 19.8811C63.4093 21.0227 63.2191 21.974 62.8385 22.7351C62.458 23.4838 61.8995 24.0424 61.163 24.4106C60.4387 24.7666 59.5365 24.9446 58.4563 24.9446ZM58.4563 22.956C59.021 22.956 59.469 22.8517 59.8004 22.643C60.1441 22.4343 60.3958 22.1152 60.5554 21.6855C60.7149 21.2559 60.7947 20.7281 60.7947 20.102V19.6601C60.7947 19.0341 60.7149 18.5063 60.5554 18.0766C60.3958 17.647 60.1441 17.3279 59.8004 17.1192C59.469 16.8982 59.021 16.7878 58.4563 16.7878C57.9039 16.7878 57.4559 16.8982 57.1122 17.1192C56.7808 17.3279 56.5352 17.647 56.3757 18.0766C56.2161 18.5063 56.1363 19.0341 56.1363 19.6601V20.102C56.1363 20.7281 56.2161 21.2559 56.3757 21.6855C56.5352 22.1152 56.7808 22.4343 57.1122 22.643C57.4559 22.8517 57.9039 22.956 58.4563 22.956ZM63.7584 24.7236L67.2753 19.697L64.0162 15.0386H67.0911L68.9324 17.9478H69.0245L70.8842 15.0386H73.775L70.4975 19.6786L73.9591 24.7236H70.9394L68.8404 21.4278H68.7483L66.6492 24.7236H63.7584ZM76.7075 28.1852C76.2533 28.1852 75.8728 28.1484 75.5659 28.0747C75.2713 28.0134 75.081 27.9704 74.9951 27.9459V26.2151H76.1183C76.4251 26.2151 76.7013 26.1414 76.9468 25.9941C77.1923 25.8591 77.4071 25.675 77.5913 25.4417C77.7754 25.2208 77.9104 24.9814 77.9964 24.7236L74.2033 15.0386H76.91L78.5671 19.5128C78.6408 19.7215 78.7206 19.9854 78.8065 20.3046C78.9047 20.6115 79.0029 20.9368 79.1011 21.2805C79.1993 21.6119 79.2791 21.9065 79.3405 22.1643H79.4325C79.4816 21.9924 79.5369 21.7899 79.5983 21.5566C79.6596 21.3234 79.721 21.0841 79.7824 20.8386C79.856 20.593 79.9236 20.3598 79.9849 20.1389C80.0586 19.9056 80.12 19.7031 80.1691 19.5313L81.55 15.0386H84.1278L80.8319 24.2633C80.6478 24.8034 80.433 25.3067 80.1875 25.7732C79.9542 26.2519 79.678 26.6692 79.3589 27.0252C79.0397 27.3935 78.6592 27.6758 78.2173 27.8722C77.7877 28.0809 77.2844 28.1852 76.7075 28.1852ZM84.5122 26.5281C85.5064 24.0976 86.1816 21.7408 86.5375 19.4576H88.8023C88.4463 21.6794 87.8019 24.0362 86.869 26.5281H84.5122ZM85.0277 16.6036V14.6151L88.4709 15.6646V17.6532L85.0277 16.6036ZM85.5064 12.3687V10.3801L88.876 11.4297V13.4182L85.5064 12.3687ZM98.3585 22.3852H96.3699V11.4665H98.3585V22.3852ZM101.452 24.3186C101.452 25.7056 100.771 26.4237 99.408 26.4728C98.6224 26.5097 97.8368 26.4422 97.0512 26.2703L96.5541 24.3738C97.1555 24.4965 97.7447 24.5579 98.3217 24.5579C98.6899 24.5579 98.9416 24.4904 99.0766 24.3554C99.2116 24.2204 99.2791 23.981 99.2791 23.6373V9.99347H101.452V24.3186ZM95.3388 14.1732C95.1547 16.8369 94.6576 19.0402 93.8474 20.7833C94.6821 22.6246 95.3941 24.3308 95.9833 25.902H93.7185C93.3502 24.9323 92.9636 23.9564 92.5585 22.9744C91.5888 24.3001 90.2876 25.5399 88.655 26.6938L88.2868 24.1344C89.7352 23.0051 90.8216 21.8206 91.5458 20.5808C91.0302 19.4146 90.2262 17.5918 89.1337 15.1122H91.288C91.7299 16.0819 92.1718 17.0455 92.6137 18.003C92.9083 16.9351 93.0863 15.6584 93.1477 14.1732H89.3547L89.1706 12.2398H91.5642V9.99347H93.7001V12.2398H95.9096V14.1732H95.3388ZM105.319 18.1503C105.331 17.1928 105.822 16.708 106.792 16.6957H116.882C117.851 16.708 118.342 17.1928 118.355 18.1503V22.1827H116.145V18.8132C116.145 18.629 116.053 18.537 115.869 18.537H107.786C107.614 18.537 107.528 18.629 107.528 18.8132V22.1643H105.319V18.1503ZM118.023 16.3459H115.832L115.261 13.897H117.452L118.023 16.3459ZM110.143 16.1065H108.007V9.99347H110.143V16.1065ZM106.423 15.7935H104.287V10.6563H106.423V15.7935ZM115.28 11.5033H119.92V13.3446H114.47C113.807 14.4984 112.794 15.5909 111.432 16.622L110.64 14.4493C112.137 13.1727 113.058 11.6874 113.402 9.99347H115.666C115.581 10.5213 115.452 11.0246 115.28 11.5033ZM112.684 21.483H113.862V23.3611C113.862 23.6925 113.936 23.938 114.083 24.0976C114.206 24.2326 114.408 24.3247 114.691 24.3738C115.464 24.5088 116.237 24.5088 117.011 24.3738C117.551 24.2879 117.821 23.9503 117.821 23.3611V22.5693L119.957 22.8639V24.0055C119.957 24.5947 119.76 25.0857 119.367 25.4786C119.011 25.8345 118.545 26.0555 117.968 26.1414C116.532 26.3624 115.09 26.3624 113.641 26.1414C113.064 26.0555 112.598 25.8345 112.242 25.4786C111.849 25.0857 111.652 24.5947 111.652 24.0055V23.0665C110.253 24.5395 107.706 25.7056 104.011 26.5649L103.422 24.5211C108.283 23.4777 110.713 21.9986 110.713 20.0836V18.9605H112.923V20.0836C112.923 20.5378 112.843 21.0043 112.684 21.483ZM132.938 22.4957C132.778 22.5202 132.686 22.6123 132.661 22.7719V24.2265C132.661 24.2879 132.692 24.3492 132.753 24.4106C132.815 24.472 132.876 24.5027 132.938 24.5027H135.663C135.749 24.5027 135.816 24.472 135.865 24.4106C135.914 24.3492 135.939 24.2879 135.939 24.2265V22.7719C135.939 22.6982 135.914 22.6369 135.865 22.5878C135.804 22.5264 135.736 22.4957 135.663 22.4957H132.938ZM125.057 22.4957C124.873 22.4957 124.781 22.5878 124.781 22.7719V24.2265C124.781 24.4106 124.873 24.5027 125.057 24.5027H127.506C127.69 24.5027 127.782 24.4106 127.782 24.2265V22.7719C127.782 22.5878 127.69 22.4957 127.506 22.4957H125.057ZM136.289 10.417C137.271 10.417 137.762 10.908 137.762 11.89V13.6944C137.762 14.6764 137.271 15.1674 136.289 15.1674H132.367C131.385 15.1674 130.894 14.6764 130.894 13.6944V11.89C130.894 10.908 131.385 10.417 132.367 10.417H136.289ZM133.085 12.0373C132.901 12.0373 132.809 12.1293 132.809 12.3135V13.3446C132.809 13.5287 132.901 13.6208 133.085 13.6208H135.571C135.755 13.6208 135.847 13.5287 135.847 13.3446V12.3135C135.847 12.1293 135.755 12.0373 135.571 12.0373H133.085ZM128.169 10.417C128.672 10.417 129.04 10.5336 129.273 10.7668C129.519 11.0123 129.642 11.3867 129.642 11.89V13.6944C129.642 14.1977 129.519 14.5721 129.273 14.8176C129.04 15.0508 128.672 15.1674 128.169 15.1674H124.339C123.357 15.1797 122.866 14.6887 122.866 13.6944V11.89C122.866 11.3867 122.989 11.0123 123.234 10.7668C123.467 10.5336 123.836 10.417 124.339 10.417H128.169ZM125.057 12.0373C124.873 12.0373 124.781 12.1293 124.781 12.3135V13.2709C124.781 13.4551 124.873 13.5471 125.057 13.5471H127.451C127.635 13.5471 127.727 13.4551 127.727 13.2709V12.3135C127.727 12.1293 127.635 12.0373 127.451 12.0373H125.057ZM137.504 21.3541C137.749 21.6364 137.872 21.9556 137.872 22.3116V24.6868C137.872 25.0551 137.737 25.3865 137.467 25.6811C137.185 26.0002 136.829 26.1598 136.399 26.1598H132.201C131.771 26.1598 131.415 26.0002 131.133 25.6811C130.863 25.3865 130.728 25.0551 130.728 24.6868V22.3116C130.728 21.9433 130.863 21.6119 131.133 21.3173C131.415 20.9981 131.771 20.8386 132.201 20.8386H134.871C133.766 20.5685 132.845 20.2309 132.109 19.8259C131.409 19.4453 130.746 18.9359 130.12 18.2976C129.188 19.4883 127.696 20.3353 125.646 20.8386H128.242C129.224 20.8386 129.715 21.3296 129.715 22.3116V24.6868C129.715 25.6688 129.224 26.1598 128.242 26.1598H124.32C123.338 26.1598 122.847 25.6688 122.847 24.6868V22.3116C122.847 21.9188 122.933 21.5996 123.105 21.3541C122.811 21.4032 122.516 21.4462 122.221 21.483L121.89 19.3839C124.382 19.1139 126.174 18.6536 127.266 18.003H122.295L122.111 16.1617H128.979C129.138 15.818 129.261 15.4805 129.347 15.149H131.759C131.587 15.6155 131.458 15.953 131.372 16.1617H133.785L133.398 15.37H135.552L135.957 16.1617H138.369V18.003H133.14C134.478 18.8132 136.332 19.2735 138.701 19.3839L138.425 21.483C138.118 21.4462 137.811 21.4032 137.504 21.3541Z" fill="#111213"/>
</svg>
