<svg preserveAspectRatio="none" width="100%" height="100%" overflow="visible" style="display: block;" viewBox="0 0 20 20" fill="none" xmlns="http://www.w3.org/2000/svg">
<g id="Frame">
<g id="Vector">
<path d="M9.99935 8.3335C9.99935 7.87326 9.62625 7.50016 9.16602 7.50016H4.16602C3.70578 7.50016 3.33268 7.87326 3.33268 8.3335V16.6668C3.33268 17.1271 3.70578 17.5002 4.16602 17.5002H9.16602C9.62625 17.5002 9.99935 17.1271 9.99935 16.6668V8.3335ZM11.666 16.6668C11.666 18.0475 10.5467 19.1668 9.16602 19.1668H4.16602C2.7853 19.1668 1.66602 18.0475 1.66602 16.6668V8.3335C1.66602 6.95278 2.7853 5.8335 4.16602 5.8335H9.16602C10.5467 5.8335 11.666 6.95278 11.666 8.3335V16.6668Z" fill="var(--fill-0, #11A3FD)"/>
<path d="M16.666 16.6668V3.3335C16.666 3.11248 16.5782 2.90058 16.4219 2.7443C16.2656 2.58802 16.0537 2.50016 15.8327 2.50016H5.83268C5.61167 2.50016 5.39977 2.58802 5.24349 2.7443C5.08721 2.90058 4.99935 3.11248 4.99935 3.3335C4.99935 3.79373 4.62625 4.16683 4.16602 4.16683C3.70578 4.16683 3.33268 3.79373 3.33268 3.3335C3.33268 2.67046 3.59626 2.03476 4.0651 1.56592C4.53395 1.09708 5.16964 0.833496 5.83268 0.833496H15.8327C16.4957 0.833496 17.1314 1.09708 17.6003 1.56592C18.0691 2.03476 18.3327 2.67045 18.3327 3.3335V16.6668C18.3327 17.3299 18.0691 17.9656 17.6003 18.4344C17.1314 18.9032 16.4957 19.1668 15.8327 19.1668H13.8324C13.3723 19.1667 12.999 18.7936 12.999 18.3335C12.999 17.8734 13.3723 17.5003 13.8324 17.5002H15.8327C16.0537 17.5002 16.2656 17.4123 16.4219 17.256C16.5782 17.0997 16.666 16.8878 16.666 16.6668Z" fill="var(--fill-0, #11A3FD)"/>
<path d="M6.67415 14.1668C7.13439 14.1668 7.50749 14.5399 7.50749 15.0002C7.50749 15.4604 7.13439 15.8335 6.67415 15.8335H6.66602C6.20578 15.8335 5.83268 15.4604 5.83268 15.0002C5.83268 14.5399 6.20578 14.1668 6.66602 14.1668H6.67415Z" fill="var(--fill-0, #11A3FD)"/>
</g>
</g>
</svg>
