<svg preserveAspectRatio="none" width="100%" height="100%" overflow="visible" style="display: block;" viewBox="0 0 18 18" fill="none" xmlns="http://www.w3.org/2000/svg">
<g id="rx_ic_update" clip-path="url(#clip0_0_56)">
<g id="Vector">
<path d="M5.93973 1.33887C6.32431 1.18534 6.76017 1.37255 6.91385 1.75708C7.06746 2.14173 6.88028 2.57829 6.49564 2.73193C5.52956 3.11794 4.66627 3.72154 3.97317 4.49487L3.83694 4.65234C3.16668 5.44833 2.68987 6.38772 2.44314 7.39673L2.397 7.59961C2.16674 8.68534 2.20773 9.8111 2.51639 10.8772L2.57718 11.0764C2.89669 12.0647 3.44018 12.9674 4.16653 13.7124L4.31448 13.8589C5.06209 14.5798 5.96682 15.1197 6.95853 15.4343C8.01643 15.7699 9.14125 15.8391 10.2325 15.6365L10.4368 15.5955C11.4516 15.3744 12.403 14.9217 13.2156 14.272L13.376 14.1394C14.1669 13.466 14.7923 12.6179 15.2027 11.6616C15.366 11.2812 15.8073 11.1052 16.1878 11.2683C16.5684 11.4317 16.7444 11.8728 16.5811 12.2534C16.0795 13.4221 15.3152 14.4582 14.3487 15.2812L14.1524 15.4431C13.1592 16.2373 11.9965 16.7908 10.7561 17.061L10.5064 17.1116C9.17272 17.3592 7.79813 17.2742 6.50516 16.864C5.29291 16.4794 4.1868 15.8197 3.27298 14.9385L3.0928 14.759C2.20504 13.8484 1.54019 12.7458 1.14969 11.5378L1.07498 11.2947C0.69769 9.99163 0.647787 8.61538 0.929229 7.28833L0.985625 7.04004C1.2872 5.80689 1.87007 4.65836 2.68924 3.68555L2.85623 3.49438C3.70351 2.54892 4.75864 1.8107 5.93973 1.33887Z" fill="var(--fill-0, #11A3FD)"/>
<path d="M8.52664 5.41846C8.8212 5.17821 9.25547 5.19519 9.53006 5.46973L12.5301 8.46973L12.5813 8.52686C12.8216 8.82144 12.8046 9.25569 12.5301 9.53027C12.2555 9.80481 11.8212 9.82179 11.5266 9.58154L11.4695 9.53027L9.74979 7.81055V12C9.74979 12.4142 9.414 12.75 8.99979 12.75C8.58562 12.7499 8.24979 12.4142 8.24979 12V7.81055L6.53006 9.53027C6.23716 9.82312 5.76239 9.82315 5.46951 9.53027C5.17669 9.23739 5.17669 8.76261 5.46951 8.46973L8.46951 5.46973L8.52664 5.41846Z" fill="var(--fill-0, #11A3FD)"/>
<path d="M16.4939 8.19141C16.8822 8.18849 17.2041 8.48079 17.2454 8.85864L17.2498 8.93555V9C17.2498 9.41421 16.914 9.75 16.4998 9.75C16.0856 9.74991 15.7498 9.41416 15.7498 9V8.94727L15.7527 8.87036C15.7881 8.49188 16.1057 8.19454 16.4939 8.19141Z" fill="var(--fill-0, #11A3FD)"/>
<path d="M15.6136 5.38477C15.9711 5.23339 16.3806 5.38052 16.5635 5.71362L16.5965 5.7832L16.6221 5.84253L16.6463 5.90259L16.6719 5.9751C16.7784 6.34009 16.5924 6.73384 16.2325 6.87964C15.8726 7.02513 15.4658 6.87149 15.2884 6.5354L15.2561 6.46582L15.2356 6.41675L15.2159 6.36768L15.1895 6.2959C15.0774 5.93271 15.2561 5.53626 15.6136 5.38477Z" fill="var(--fill-0, #11A3FD)"/>
<path d="M14.8789 3.2124C15.1695 3.50755 15.166 3.98236 14.8709 4.27295C14.5758 4.56338 14.1009 4.55982 13.8103 4.26489L14.8789 3.2124Z" fill="var(--fill-0, #11A3FD)"/>
<path d="M14.8335 3.16626L14.8789 3.2124L14.3443 3.73828L13.8103 4.26489L13.773 4.22681C13.7605 4.21433 13.7475 4.20182 13.7349 4.18945L14.2615 3.65552L14.7874 3.12085C14.8027 3.13596 14.8183 3.15103 14.8335 3.16626Z" fill="var(--fill-0, #11A3FD)"/>
<path d="M13.7268 3.12891C14.0174 2.83385 14.4922 2.83038 14.7874 3.12085L13.7349 4.18945C13.44 3.89887 13.4364 3.42399 13.7268 3.12891Z" fill="var(--fill-0, #11A3FD)"/>
<path d="M11.1201 1.76733C11.2659 1.40741 11.6597 1.2215 12.0247 1.32788L12.0972 1.35352L12.1573 1.37769L12.2166 1.40332L12.2862 1.43628C12.6193 1.61917 12.7664 2.02871 12.615 2.38623C12.4635 2.74378 12.0671 2.92247 11.7039 2.8103L11.6321 2.78394L11.583 2.76416L11.534 2.74365L11.4644 2.71143C11.1284 2.53392 10.9746 2.12718 11.1201 1.76733Z" fill="var(--fill-0, #11A3FD)"/>
<path d="M9.14114 0.754395C9.519 0.795703 9.8113 1.11762 9.80838 1.50586C9.80533 1.89421 9.50796 2.21168 9.12942 2.24707L9.05252 2.25H8.99979C8.58565 2.24991 8.24979 1.91416 8.24979 1.5C8.24979 1.08584 8.58565 0.750087 8.99979 0.75H9.06424L9.14114 0.754395Z" fill="var(--fill-0, #11A3FD)"/>
</g>
</g>
<defs>
<clipPath id="clip0_0_56">
<rect width="18" height="18" fill="white"/>
</clipPath>
</defs>
</svg>
