<svg preserveAspectRatio="none" width="100%" height="100%" overflow="visible" style="display: block;" viewBox="0 0 20 20" fill="none" xmlns="http://www.w3.org/2000/svg">
<g id="rx_ic_user" clip-path="url(#clip0_0_52)">
<path id="Vector" d="M5.66732 0.833333C4.26719 0.833333 3.44989 0.790247 2.65299 1.19629C2.02588 1.51582 1.51582 2.02588 1.19629 2.65299C0.790247 3.44989 0.833333 4.26719 0.833333 5.66732V14.3327C0.833333 15.7328 0.790294 16.5501 1.19629 17.347C1.51583 17.9741 2.02589 18.4842 2.65299 18.8037C2.79405 18.8757 2.94203 18.934 3.09245 18.9795C3.15275 18.9978 3.25295 18.9808 3.3138 18.9958C3.3202 19.0024 3.32672 19.0089 3.33333 19.0153C3.34594 19.0102 3.35842 19.0048 3.37077 18.999C4.00442 19.1456 4.63899 19.1667 5.66732 19.1667H14.3327C15.361 19.1667 15.9956 19.1456 16.6292 18.999C16.6416 19.0048 16.6541 19.0102 16.6667 19.0153C16.714 19.0101 16.7609 19.0008 16.8066 18.9876C16.8342 18.98 16.88 18.9878 16.9076 18.9795C16.931 18.9724 16.9526 18.9595 16.9759 18.9518C16.9814 18.9497 16.9868 18.9475 16.9922 18.9453C17.1126 18.9046 17.2331 18.8618 17.347 18.8037C17.9741 18.4842 18.4842 17.9741 18.8037 17.347C19.2097 16.5501 19.1667 15.7328 19.1667 14.3327V5.66732C19.1667 4.26719 19.2098 3.4499 18.8037 2.65299C18.4842 2.02589 17.9741 1.51583 17.347 1.19629C16.5501 0.790294 15.7328 0.833333 14.3327 0.833333H5.66732ZM5.66732 2.5H14.3327C15.7328 2.5 16.3174 2.54332 16.5902 2.68229C16.9039 2.84212 17.1579 3.09612 17.3177 3.40983C17.4566 3.68248 17.5 4.26719 17.5 5.66732V14.3327C17.5 15.6824 17.4516 16.2236 17.3242 16.5088C16.9331 14.9577 15.7277 13.728 14.1471 13.4131C13.6997 13.324 13.2744 13.3333 12.5 13.3333H7.5C6.72558 13.3333 6.30192 13.324 5.85449 13.4131C4.27324 13.7276 3.06703 14.9572 2.67578 16.5088C2.54844 16.2236 2.5 15.6824 2.5 14.3327V5.66732C2.5 4.26719 2.54337 3.68248 2.68229 3.40983C2.84213 3.09613 3.09613 2.84213 3.40983 2.68229C3.68248 2.54337 4.26719 2.5 5.66732 2.5ZM10 3.75C7.70869 3.75 5.83333 5.62535 5.83333 7.91667C5.83333 10.208 7.70868 12.0833 10 12.0833C12.2913 12.0833 14.1667 10.208 14.1667 7.91667C14.1667 5.62534 12.2913 3.75 10 3.75ZM10 5.41667C11.3905 5.41667 12.5 6.52609 12.5 7.91667C12.5 9.3072 11.3905 10.4167 10 10.4167C8.60943 10.4167 7.5 9.30721 7.5 7.91667C7.5 6.52608 8.60942 5.41667 10 5.41667ZM7.5 15H12.5C13.2744 15 13.6251 15.0097 13.8216 15.0488C14.8156 15.2465 15.5868 16.0177 15.7845 17.0117C15.7972 17.0754 15.7936 17.3137 15.8008 17.4186C15.4373 17.4575 15.1413 17.5 14.3327 17.5H5.66732C4.85865 17.5 4.56264 17.4575 4.19922 17.4186C4.2064 17.3136 4.20281 17.0755 4.21549 17.0117C4.41323 16.0177 5.18433 15.2465 6.17839 15.0488C6.37494 15.0097 6.72558 15 7.5 15Z" fill="var(--fill-0, #11A3FD)"/>
</g>
<defs>
<clipPath id="clip0_0_52">
<rect width="20" height="20" fill="white"/>
</clipPath>
</defs>
</svg>
