<svg width="62" height="22" viewBox="0 0 62 22" fill="none" xmlns="http://www.w3.org/2000/svg">
<rect width="62" height="22" rx="6" fill="#FC9D12"/>
<path d="M12.908 9.024C12.948 8.616 12.844 8.3 12.596 8.076C12.356 7.852 11.968 7.74 11.432 7.74C10.664 7.74 9.936 7.8 9.248 7.92L9.416 6.564C10.184 6.468 10.908 6.42 11.588 6.42C12.516 6.42 13.204 6.636 13.652 7.068C14.108 7.5 14.336 8.048 14.336 8.712C14.336 8.84 14.332 8.936 14.324 9C14.26 9.504 14.124 9.924 13.916 10.26C13.708 10.596 13.432 10.884 13.088 11.124C12.744 11.356 12.288 11.6 11.72 11.856C11.312 12.04 10.972 12.22 10.7 12.396C10.436 12.572 10.212 12.8 10.028 13.08C9.844 13.36 9.724 13.704 9.668 14.112H13.64L13.484 15.432H8.108L8.288 14.112C8.416 13.296 8.732 12.624 9.236 12.096C9.748 11.56 10.348 11.144 11.036 10.848C11.5 10.64 11.84 10.476 12.056 10.356C12.28 10.228 12.468 10.06 12.62 9.852C12.772 9.644 12.868 9.368 12.908 9.024ZM15.3911 11.184V11.172L15.9791 6.42H20.7551L20.5991 7.74H17.2391L16.9751 9.9H17.8151C19.6791 9.9 20.6111 10.588 20.6111 11.964C20.6111 12.116 20.6071 12.228 20.5991 12.3L20.5151 13.164C20.4111 13.948 20.0751 14.524 19.5071 14.892C18.9471 15.252 18.1271 15.432 17.0471 15.432C16.3751 15.432 15.6631 15.384 14.9111 15.288L15.0791 13.968C15.4951 14.016 15.8511 14.052 16.1471 14.076C16.4431 14.1 16.7951 14.112 17.2031 14.112C17.8431 14.112 18.3031 14.028 18.5831 13.86C18.8711 13.692 19.0391 13.42 19.0871 13.044L19.1591 12.42C19.1911 11.988 19.0911 11.676 18.8591 11.484C18.6271 11.292 18.2151 11.192 17.6231 11.184H15.3911ZM22.0738 8.328C22.1538 7.704 22.3618 7.224 22.6978 6.888C23.0418 6.544 23.4778 6.372 24.0058 6.372H24.6058C25.0778 6.372 25.4378 6.504 25.6858 6.768C25.9338 7.032 26.0578 7.412 26.0578 7.908C26.0578 8.092 26.0498 8.232 26.0338 8.328L25.9498 8.988C25.8698 9.612 25.6618 10.092 25.3258 10.428C24.9978 10.756 24.5698 10.92 24.0418 10.92H23.4418C22.9698 10.92 22.6058 10.788 22.3498 10.524C22.0938 10.26 21.9658 9.884 21.9658 9.396C21.9658 9.316 21.9738 9.18 21.9898 8.988L22.0738 8.328ZM24.2698 15.432H22.8898L29.0338 6.42H30.4138L24.2698 15.432ZM23.0578 9.084C23.0498 9.14 23.0458 9.212 23.0458 9.3C23.0458 9.732 23.2498 9.948 23.6578 9.948H24.0418C24.5058 9.948 24.7778 9.66 24.8578 9.084L24.9658 8.232C24.9738 8.184 24.9778 8.112 24.9778 8.016C24.9778 7.584 24.7698 7.368 24.3538 7.368H23.9698C23.5138 7.368 23.2458 7.656 23.1658 8.232L23.0578 9.084ZM27.4498 12.888C27.5298 12.264 27.7378 11.784 28.0738 11.448C28.4178 11.104 28.8538 10.932 29.3818 10.932H29.9818C30.4538 10.932 30.8138 11.064 31.0618 11.328C31.3098 11.592 31.4338 11.972 31.4338 12.468C31.4338 12.652 31.4258 12.792 31.4098 12.888L31.3258 13.548C31.2458 14.172 31.0378 14.652 30.7018 14.988C30.3738 15.316 29.9458 15.48 29.4178 15.48H28.8178C28.3458 15.48 27.9818 15.348 27.7258 15.084C27.4698 14.82 27.3418 14.444 27.3418 13.956C27.3418 13.876 27.3498 13.74 27.3658 13.548L27.4498 12.888ZM28.4338 13.644C28.4258 13.7 28.4218 13.772 28.4218 13.86C28.4218 14.292 28.6258 14.508 29.0338 14.508H29.4178C29.8818 14.508 30.1538 14.22 30.2338 13.644L30.3418 12.792C30.3498 12.736 30.3538 12.664 30.3538 12.576C30.3538 12.144 30.1498 11.928 29.7418 11.928H29.3578C28.8938 11.928 28.6218 12.216 28.5418 12.792L28.4338 13.644ZM40.443 6.372C41.499 6.38 42.275 6.612 42.771 7.068C43.267 7.516 43.515 8.224 43.515 9.192C43.515 9.44 43.495 9.744 43.455 10.104L43.275 11.748C43.099 13.052 42.699 14 42.075 14.592C41.451 15.176 40.531 15.472 39.315 15.48H38.427C37.371 15.472 36.595 15.244 36.099 14.796C35.603 14.348 35.355 13.644 35.355 12.684C35.355 12.436 35.375 12.124 35.415 11.748L35.595 10.104C35.763 8.8 36.159 7.856 36.783 7.272C37.415 6.68 38.339 6.38 39.555 6.372H40.443ZM36.819 11.82C36.787 12.14 36.771 12.364 36.771 12.492C36.771 13.076 36.907 13.5 37.179 13.764C37.459 14.02 37.915 14.152 38.547 14.16H39.507C40.235 14.152 40.775 13.968 41.127 13.608C41.487 13.24 41.723 12.644 41.835 11.82L42.051 10.032C42.083 9.712 42.099 9.488 42.099 9.36C42.099 8.776 41.959 8.356 41.679 8.1C41.407 7.836 40.955 7.7 40.323 7.692H39.363C38.635 7.7 38.091 7.888 37.731 8.256C37.379 8.616 37.147 9.208 37.035 10.032L36.819 11.82ZM52.4017 7.416C52.0497 7.416 51.7937 7.504 51.6337 7.68C51.4737 7.848 51.3737 8.112 51.3337 8.472L51.2977 8.748H53.3617L53.2057 10.032H51.1417L50.4817 15.432H49.1017L49.7617 10.032H47.0497L46.3897 15.432H45.0097L45.6697 10.032H44.2777L44.4337 8.748H45.8257L45.8857 8.256C46.0617 6.84 46.8777 6.132 48.3337 6.132C48.6937 6.132 49.1137 6.152 49.5937 6.192L49.4017 7.464L49.0057 7.44C48.6217 7.424 48.3897 7.416 48.3097 7.416C47.9577 7.416 47.7017 7.504 47.5417 7.68C47.3817 7.848 47.2817 8.112 47.2417 8.472L47.2057 8.748H49.9177L49.9777 8.256C50.1537 6.84 50.9697 6.132 52.4257 6.132C52.7857 6.132 53.2057 6.152 53.6857 6.192L53.4937 7.464L53.0977 7.44C52.7137 7.424 52.4817 7.416 52.4017 7.416Z" fill="white"/>
</svg>
