<svg width="65" height="22" viewBox="0 0 65 22" fill="none" xmlns="http://www.w3.org/2000/svg">
<rect width="65" height="22" rx="6" fill="#F53838"/>
<path d="M10.52 6.42H11.9L10.148 11.904H12.644L13.316 6.42H14.732L14.06 11.904H15.104L14.948 13.224H13.904L13.628 15.432H12.212L12.488 13.224H8.432L8.564 12.168L10.52 6.42ZM20.8999 6.372C21.7879 6.38 22.4479 6.604 22.8799 7.044C23.3199 7.484 23.5399 8.16 23.5399 9.072C23.5399 9.304 23.5199 9.592 23.4799 9.936L23.2399 11.916C23.0879 13.132 22.7239 14.028 22.1479 14.604C21.5799 15.18 20.7879 15.472 19.7719 15.48H19.2919C18.3959 15.472 17.7279 15.252 17.2879 14.82C16.8559 14.388 16.6399 13.712 16.6399 12.792C16.6399 12.552 16.6599 12.26 16.6999 11.916L16.9399 9.936C17.2439 7.576 18.4239 6.388 20.4799 6.372H20.8999ZM18.1159 11.916C18.0839 12.148 18.0679 12.388 18.0679 12.636C18.0679 13.164 18.1719 13.548 18.3799 13.788C18.5959 14.028 18.9519 14.152 19.4479 14.16H19.9399C20.5079 14.152 20.9359 13.984 21.2239 13.656C21.5119 13.32 21.7079 12.74 21.8119 11.916L22.0639 9.936C22.0959 9.704 22.1119 9.46 22.1119 9.204C22.1119 8.676 22.0039 8.296 21.7879 8.064C21.5719 7.824 21.2199 7.7 20.7319 7.692H20.2399C19.8559 7.7 19.5399 7.776 19.2919 7.92C19.0439 8.056 18.8439 8.288 18.6919 8.616C18.5479 8.936 18.4399 9.376 18.3679 9.936L18.1159 11.916ZM24.9215 8.328C25.0015 7.704 25.2095 7.224 25.5455 6.888C25.8895 6.544 26.3255 6.372 26.8535 6.372H27.4535C27.9255 6.372 28.2855 6.504 28.5335 6.768C28.7815 7.032 28.9055 7.412 28.9055 7.908C28.9055 8.092 28.8975 8.232 28.8815 8.328L28.7975 8.988C28.7175 9.612 28.5095 10.092 28.1735 10.428C27.8455 10.756 27.4175 10.92 26.8895 10.92H26.2895C25.8175 10.92 25.4535 10.788 25.1975 10.524C24.9415 10.26 24.8135 9.884 24.8135 9.396C24.8135 9.316 24.8215 9.18 24.8375 8.988L24.9215 8.328ZM27.1175 15.432H25.7375L31.8815 6.42H33.2615L27.1175 15.432ZM25.9055 9.084C25.8975 9.14 25.8935 9.212 25.8935 9.3C25.8935 9.732 26.0975 9.948 26.5055 9.948H26.8895C27.3535 9.948 27.6255 9.66 27.7055 9.084L27.8135 8.232C27.8215 8.184 27.8255 8.112 27.8255 8.016C27.8255 7.584 27.6175 7.368 27.2015 7.368H26.8175C26.3615 7.368 26.0935 7.656 26.0135 8.232L25.9055 9.084ZM30.2975 12.888C30.3775 12.264 30.5855 11.784 30.9215 11.448C31.2655 11.104 31.7015 10.932 32.2295 10.932H32.8295C33.3015 10.932 33.6615 11.064 33.9095 11.328C34.1575 11.592 34.2815 11.972 34.2815 12.468C34.2815 12.652 34.2735 12.792 34.2575 12.888L34.1735 13.548C34.0935 14.172 33.8855 14.652 33.5495 14.988C33.2215 15.316 32.7935 15.48 32.2655 15.48H31.6655C31.1935 15.48 30.8295 15.348 30.5735 15.084C30.3175 14.82 30.1895 14.444 30.1895 13.956C30.1895 13.876 30.1975 13.74 30.2135 13.548L30.2975 12.888ZM31.2815 13.644C31.2735 13.7 31.2695 13.772 31.2695 13.86C31.2695 14.292 31.4735 14.508 31.8815 14.508H32.2655C32.7295 14.508 33.0015 14.22 33.0815 13.644L33.1895 12.792C33.1975 12.736 33.2015 12.664 33.2015 12.576C33.2015 12.144 32.9975 11.928 32.5895 11.928H32.2055C31.7415 11.928 31.4695 12.216 31.3895 12.792L31.2815 13.644ZM43.2907 6.372C44.3467 6.38 45.1227 6.612 45.6187 7.068C46.1147 7.516 46.3627 8.224 46.3627 9.192C46.3627 9.44 46.3427 9.744 46.3027 10.104L46.1227 11.748C45.9467 13.052 45.5467 14 44.9227 14.592C44.2987 15.176 43.3787 15.472 42.1627 15.48H41.2747C40.2187 15.472 39.4427 15.244 38.9467 14.796C38.4507 14.348 38.2027 13.644 38.2027 12.684C38.2027 12.436 38.2227 12.124 38.2627 11.748L38.4427 10.104C38.6107 8.8 39.0067 7.856 39.6307 7.272C40.2627 6.68 41.1867 6.38 42.4027 6.372H43.2907ZM39.6667 11.82C39.6347 12.14 39.6187 12.364 39.6187 12.492C39.6187 13.076 39.7547 13.5 40.0267 13.764C40.3067 14.02 40.7627 14.152 41.3947 14.16H42.3547C43.0827 14.152 43.6227 13.968 43.9747 13.608C44.3347 13.24 44.5707 12.644 44.6827 11.82L44.8987 10.032C44.9307 9.712 44.9467 9.488 44.9467 9.36C44.9467 8.776 44.8067 8.356 44.5267 8.1C44.2547 7.836 43.8027 7.7 43.1707 7.692H42.2107C41.4827 7.7 40.9387 7.888 40.5787 8.256C40.2267 8.616 39.9947 9.208 39.8827 10.032L39.6667 11.82ZM55.2493 7.416C54.8973 7.416 54.6413 7.504 54.4813 7.68C54.3213 7.848 54.2213 8.112 54.1813 8.472L54.1453 8.748H56.2093L56.0533 10.032H53.9893L53.3293 15.432H51.9493L52.6093 10.032H49.8973L49.2373 15.432H47.8573L48.5173 10.032H47.1253L47.2813 8.748H48.6733L48.7333 8.256C48.9093 6.84 49.7253 6.132 51.1813 6.132C51.5413 6.132 51.9613 6.152 52.4413 6.192L52.2493 7.464L51.8533 7.44C51.4693 7.424 51.2373 7.416 51.1573 7.416C50.8053 7.416 50.5493 7.504 50.3893 7.68C50.2293 7.848 50.1293 8.112 50.0893 8.472L50.0533 8.748H52.7653L52.8253 8.256C53.0013 6.84 53.8173 6.132 55.2733 6.132C55.6333 6.132 56.0533 6.152 56.5333 6.192L56.3413 7.464L55.9453 7.44C55.5613 7.424 55.3293 7.416 55.2493 7.416Z" fill="white"/>
</svg>
