<svg width="71" height="25" viewBox="0 0 71 25" fill="none" xmlns="http://www.w3.org/2000/svg">
<rect width="71" height="25" rx="6" fill="#F53838"/>
<path d="M61.7158 8.15181C61.3051 8.15181 61.0065 8.25448 60.8198 8.45981C60.6331 8.65581 60.5165 8.96381 60.4698 9.38381L60.4278 9.70581H62.8358L62.6538 11.2038H60.2458L59.4758 17.5038H57.8658L58.6358 11.2038H55.4718L54.7018 17.5038H53.0918L53.8618 11.2038H52.2378L52.4198 9.70581H54.0438L54.1138 9.13181C54.3191 7.47981 55.2711 6.65381 56.9698 6.65381C57.3898 6.65381 57.8798 6.67714 58.4398 6.72381L58.2158 8.20781L57.7538 8.17981C57.3058 8.16114 57.0351 8.15181 56.9418 8.15181C56.5311 8.15181 56.2325 8.25448 56.0458 8.45981C55.8591 8.65581 55.7425 8.96381 55.6958 9.38381L55.6538 9.70581H58.8178L58.8878 9.13181C59.0931 7.47981 60.0451 6.65381 61.7438 6.65381C62.1638 6.65381 62.6538 6.67714 63.2138 6.72381L62.9898 8.20781L62.5278 8.17981C62.0798 8.16114 61.8091 8.15181 61.7158 8.15181Z" fill="white"/>
<path d="M47.7641 6.93408C48.9961 6.94342 49.9015 7.21408 50.4801 7.74608C51.0588 8.26875 51.3481 9.09475 51.3481 10.2241C51.3481 10.5134 51.3248 10.8681 51.2781 11.2881L51.0681 13.2061C50.8628 14.7274 50.3961 15.8334 49.6681 16.5241C48.9401 17.2054 47.8668 17.5508 46.4481 17.5601H45.4121C44.1801 17.5508 43.2748 17.2847 42.6961 16.7621C42.1175 16.2394 41.8281 15.4181 41.8281 14.2981C41.8281 14.0087 41.8515 13.6447 41.8981 13.2061L42.1081 11.2881C42.3041 9.76675 42.7661 8.66542 43.4941 7.98408C44.2315 7.29342 45.3095 6.94342 46.7281 6.93408H47.7641ZM43.5361 13.2901C43.4988 13.6634 43.4801 13.9247 43.4801 14.0741C43.4801 14.7554 43.6388 15.2501 43.9561 15.5581C44.2828 15.8567 44.8148 16.0107 45.5521 16.0201H46.6721C47.5215 16.0107 48.1515 15.7961 48.5621 15.3761C48.9821 14.9468 49.2575 14.2514 49.3881 13.2901L49.6401 11.2041C49.6775 10.8307 49.6961 10.5694 49.6961 10.4201C49.6961 9.73875 49.5328 9.24875 49.2061 8.95008C48.8888 8.64208 48.3615 8.48342 47.6241 8.47408H46.5041C45.6548 8.48342 45.0201 8.70275 44.6001 9.13208C44.1895 9.55208 43.9188 10.2427 43.7881 11.2041L43.5361 13.2901Z" fill="white"/>
<path d="M26.3335 9.21608C26.4269 8.48808 26.6695 7.92808 27.0615 7.53608C27.4629 7.13475 27.9715 6.93408 28.5875 6.93408H29.2875C29.8382 6.93408 30.2582 7.08808 30.5475 7.39608C30.8369 7.70408 30.9815 8.14742 30.9815 8.72608C30.9815 8.94075 30.9722 9.10408 30.9535 9.21608L30.8555 9.98608C30.7622 10.7141 30.5195 11.2741 30.1275 11.6661C29.7449 12.0487 29.2455 12.2401 28.6295 12.2401H27.9295C27.3789 12.2401 26.9542 12.0861 26.6555 11.7781C26.3569 11.4701 26.2075 11.0314 26.2075 10.4621C26.2075 10.3687 26.2169 10.2101 26.2355 9.98608L26.3335 9.21608ZM28.8955 17.5041H27.2855L34.4535 6.99008H36.0635L28.8955 17.5041ZM27.4815 10.0981C27.4722 10.1634 27.4675 10.2474 27.4675 10.3501C27.4675 10.8541 27.7055 11.1061 28.1815 11.1061H28.6295C29.1709 11.1061 29.4882 10.7701 29.5815 10.0981L29.7075 9.10408C29.7169 9.04808 29.7215 8.96408 29.7215 8.85208C29.7215 8.34808 29.4789 8.09608 28.9935 8.09608H28.5455C28.0135 8.09608 27.7009 8.43208 27.6075 9.10408L27.4815 10.0981ZM32.6055 14.5361C32.6989 13.8081 32.9415 13.2481 33.3335 12.8561C33.7349 12.4547 34.2435 12.2541 34.8595 12.2541H35.5595C36.1102 12.2541 36.5302 12.4081 36.8195 12.7161C37.1089 13.0241 37.2535 13.4674 37.2535 14.0461C37.2535 14.2607 37.2442 14.4241 37.2255 14.5361L37.1275 15.3061C37.0342 16.0341 36.7915 16.5941 36.3995 16.9861C36.0169 17.3687 35.5175 17.5601 34.9015 17.5601H34.2015C33.6509 17.5601 33.2262 17.4061 32.9275 17.0981C32.6289 16.7901 32.4795 16.3514 32.4795 15.7821C32.4795 15.6887 32.4889 15.5301 32.5075 15.3061L32.6055 14.5361ZM33.7535 15.4181C33.7442 15.4834 33.7395 15.5674 33.7395 15.6701C33.7395 16.1741 33.9775 16.4261 34.4535 16.4261H34.9015C35.4429 16.4261 35.7602 16.0901 35.8535 15.4181L35.9795 14.4241C35.9889 14.3587 35.9935 14.2747 35.9935 14.1721C35.9935 13.6681 35.7555 13.4161 35.2795 13.4161H34.8315C34.2902 13.4161 33.9729 13.7521 33.8795 14.4241L33.7535 15.4181Z" fill="white"/>
<path d="M21.6419 6.93408C22.6779 6.94342 23.4479 7.20475 23.9519 7.71808C24.4652 8.23142 24.7219 9.02008 24.7219 10.0841C24.7219 10.3547 24.6985 10.6907 24.6519 11.0921L24.3719 13.4021C24.1945 14.8207 23.7699 15.8661 23.0979 16.5381C22.4352 17.2101 21.5112 17.5508 20.3259 17.5601H19.7659C18.7205 17.5508 17.9412 17.2941 17.4279 16.7901C16.9239 16.2861 16.6719 15.4974 16.6719 14.4241C16.6719 14.1441 16.6952 13.8034 16.7419 13.4021L17.0219 11.0921C17.3765 8.33875 18.7532 6.95275 21.1519 6.93408H21.6419ZM18.3939 13.4021C18.3565 13.6727 18.3379 13.9527 18.3379 14.2421C18.3379 14.8581 18.4592 15.3061 18.7019 15.5861C18.9539 15.8661 19.3692 16.0107 19.9479 16.0201H20.5219C21.1845 16.0107 21.6839 15.8147 22.0199 15.4321C22.3559 15.0401 22.5845 14.3634 22.7059 13.4021L22.9999 11.0921C23.0372 10.8214 23.0559 10.5367 23.0559 10.2381C23.0559 9.62208 22.9299 9.17875 22.6779 8.90808C22.4259 8.62808 22.0152 8.48342 21.4459 8.47408H20.8719C20.4239 8.48342 20.0552 8.57208 19.7659 8.74008C19.4765 8.89875 19.2432 9.16942 19.0659 9.55208C18.8979 9.92542 18.7719 10.4387 18.6879 11.0921L18.3939 13.4021Z" fill="white"/>
<path d="M9.16211 8.53023L9.34411 6.99023H16.1341L15.9941 8.25023L11.0381 17.5042H9.19011L13.9921 8.53023H9.16211Z" fill="white"/>
</svg>
