<svg width="60" height="22" viewBox="0 0 60 22" fill="none" xmlns="http://www.w3.org/2000/svg">
<rect width="60" height="22" rx="6" fill="#FC9D12"/>
<path d="M8.888 9.072L9.068 7.644L11.468 6.42H12.668L11.564 15.432H10.148L11.06 8.016L8.888 9.072ZM13.9379 11.184V11.172L14.5259 6.42H19.3019L19.1459 7.74H15.7859L15.5219 9.9H16.3619C18.2259 9.9 19.1579 10.588 19.1579 11.964C19.1579 12.116 19.1539 12.228 19.1459 12.3L19.0619 13.164C18.9579 13.948 18.6219 14.524 18.0539 14.892C17.4939 15.252 16.6739 15.432 15.5939 15.432C14.9219 15.432 14.2099 15.384 13.4579 15.288L13.6259 13.968C14.0419 14.016 14.3979 14.052 14.6939 14.076C14.9899 14.1 15.3419 14.112 15.7499 14.112C16.3899 14.112 16.8499 14.028 17.1299 13.86C17.4179 13.692 17.5859 13.42 17.6339 13.044L17.7059 12.42C17.7379 11.988 17.6379 11.676 17.4059 11.484C17.1739 11.292 16.7619 11.192 16.1699 11.184H13.9379ZM20.6207 8.328C20.7007 7.704 20.9087 7.224 21.2447 6.888C21.5887 6.544 22.0247 6.372 22.5527 6.372H23.1527C23.6247 6.372 23.9847 6.504 24.2327 6.768C24.4807 7.032 24.6047 7.412 24.6047 7.908C24.6047 8.092 24.5967 8.232 24.5807 8.328L24.4967 8.988C24.4167 9.612 24.2087 10.092 23.8727 10.428C23.5447 10.756 23.1167 10.92 22.5887 10.92H21.9887C21.5167 10.92 21.1527 10.788 20.8967 10.524C20.6407 10.26 20.5127 9.884 20.5127 9.396C20.5127 9.316 20.5207 9.18 20.5367 8.988L20.6207 8.328ZM22.8167 15.432H21.4367L27.5807 6.42H28.9607L22.8167 15.432ZM21.6047 9.084C21.5967 9.14 21.5927 9.212 21.5927 9.3C21.5927 9.732 21.7967 9.948 22.2047 9.948H22.5887C23.0527 9.948 23.3247 9.66 23.4047 9.084L23.5127 8.232C23.5207 8.184 23.5247 8.112 23.5247 8.016C23.5247 7.584 23.3167 7.368 22.9007 7.368H22.5167C22.0607 7.368 21.7927 7.656 21.7127 8.232L21.6047 9.084ZM25.9967 12.888C26.0767 12.264 26.2847 11.784 26.6207 11.448C26.9647 11.104 27.4007 10.932 27.9287 10.932H28.5287C29.0007 10.932 29.3607 11.064 29.6087 11.328C29.8567 11.592 29.9807 11.972 29.9807 12.468C29.9807 12.652 29.9727 12.792 29.9567 12.888L29.8727 13.548C29.7927 14.172 29.5847 14.652 29.2487 14.988C28.9207 15.316 28.4927 15.48 27.9647 15.48H27.3647C26.8927 15.48 26.5287 15.348 26.2727 15.084C26.0167 14.82 25.8887 14.444 25.8887 13.956C25.8887 13.876 25.8967 13.74 25.9127 13.548L25.9967 12.888ZM26.9807 13.644C26.9727 13.7 26.9687 13.772 26.9687 13.86C26.9687 14.292 27.1727 14.508 27.5807 14.508H27.9647C28.4287 14.508 28.7007 14.22 28.7807 13.644L28.8887 12.792C28.8967 12.736 28.9007 12.664 28.9007 12.576C28.9007 12.144 28.6967 11.928 28.2887 11.928H27.9047C27.4407 11.928 27.1687 12.216 27.0887 12.792L26.9807 13.644ZM38.9899 6.372C40.0459 6.38 40.8219 6.612 41.3179 7.068C41.8139 7.516 42.0619 8.224 42.0619 9.192C42.0619 9.44 42.0419 9.744 42.0019 10.104L41.8219 11.748C41.6459 13.052 41.2459 14 40.6219 14.592C39.9979 15.176 39.0779 15.472 37.8619 15.48H36.9739C35.9179 15.472 35.1419 15.244 34.6459 14.796C34.1499 14.348 33.9019 13.644 33.9019 12.684C33.9019 12.436 33.9219 12.124 33.9619 11.748L34.1419 10.104C34.3099 8.8 34.7059 7.856 35.3299 7.272C35.9619 6.68 36.8859 6.38 38.1019 6.372H38.9899ZM35.3659 11.82C35.3339 12.14 35.3179 12.364 35.3179 12.492C35.3179 13.076 35.4539 13.5 35.7259 13.764C36.0059 14.02 36.4619 14.152 37.0939 14.16H38.0539C38.7819 14.152 39.3219 13.968 39.6739 13.608C40.0339 13.24 40.2699 12.644 40.3819 11.82L40.5979 10.032C40.6299 9.712 40.6459 9.488 40.6459 9.36C40.6459 8.776 40.5059 8.356 40.2259 8.1C39.9539 7.836 39.5019 7.7 38.8699 7.692H37.9099C37.1819 7.7 36.6379 7.888 36.2779 8.256C35.9259 8.616 35.6939 9.208 35.5819 10.032L35.3659 11.82ZM50.9486 7.416C50.5966 7.416 50.3406 7.504 50.1806 7.68C50.0206 7.848 49.9206 8.112 49.8806 8.472L49.8446 8.748H51.9086L51.7526 10.032H49.6886L49.0286 15.432H47.6486L48.3086 10.032H45.5966L44.9366 15.432H43.5566L44.2166 10.032H42.8246L42.9806 8.748H44.3726L44.4326 8.256C44.6086 6.84 45.4246 6.132 46.8806 6.132C47.2406 6.132 47.6606 6.152 48.1406 6.192L47.9486 7.464L47.5526 7.44C47.1686 7.424 46.9366 7.416 46.8566 7.416C46.5046 7.416 46.2486 7.504 46.0886 7.68C45.9286 7.848 45.8286 8.112 45.7886 8.472L45.7526 8.748H48.4646L48.5246 8.256C48.7006 6.84 49.5166 6.132 50.9726 6.132C51.3326 6.132 51.7526 6.152 52.2326 6.192L52.0406 7.464L51.6446 7.44C51.2606 7.424 51.0286 7.416 50.9486 7.416Z" fill="white"/>
</svg>
