<svg width="14" height="14" viewBox="0 0 14 14" fill="none" xmlns="http://www.w3.org/2000/svg">
<path d="M8.46809 6.66716L12.5742 2.56101C12.769 2.36651 12.8786 2.10251 12.8789 1.82718C12.8792 1.55178 12.77 1.28761 12.5755 1.09278C12.3809 0.897909 12.1169 0.788259 11.8416 0.788034C11.5662 0.787809 11.3021 0.896934 11.1072 1.09148L7.00109 5.19758L2.89499 1.09148C2.70012 0.896609 2.43579 0.787109 2.16024 0.787109C1.88457 0.787109 1.62032 0.896609 1.42542 1.09148C1.23054 1.28633 1.12109 1.55063 1.12109 1.82626C1.12109 2.10186 1.23054 2.36613 1.42542 2.56101L5.53157 6.66716L1.42542 10.7732C1.23054 10.9681 1.12109 11.2324 1.12109 11.508C1.12109 11.7836 1.23054 12.0479 1.42542 12.2428C1.62032 12.4377 1.88457 12.5471 2.16024 12.5471C2.43579 12.5471 2.70012 12.4377 2.89499 12.2428L7.00109 8.13668L11.1072 12.2428C11.3021 12.4377 11.5664 12.5471 11.842 12.5471C12.1176 12.5471 12.3819 12.4377 12.5767 12.2428C12.7716 12.0479 12.8811 11.7836 12.8811 11.508C12.8811 11.2324 12.7716 10.9681 12.5767 10.7732L8.46809 6.66716Z" fill="#FA0000"/>
</svg>
