<svg width="140" height="32" viewBox="0 0 140 32" fill="none" xmlns="http://www.w3.org/2000/svg">
<path d="M132.457 25.4773C132.159 25.4773 131.884 25.4531 131.63 25.4049C131.381 25.3606 131.181 25.3083 131.032 25.2479L131.54 23.5455C131.857 23.638 132.141 23.6823 132.391 23.6783C132.64 23.6743 132.86 23.5958 133.049 23.4429C133.242 23.2939 133.405 23.0444 133.538 22.6943L133.725 22.1932L130.362 12.7273H132.68L134.818 19.7301H134.914L137.057 12.7273H139.381L135.669 23.1229C135.496 23.6139 135.266 24.0345 134.981 24.3846C134.695 24.7388 134.345 25.0084 133.93 25.1936C133.52 25.3827 133.029 25.4773 132.457 25.4773Z" fill="black"/>
<path d="M124.337 22.1873C123.75 22.1873 123.221 22.0827 122.75 21.8734C122.283 21.6601 121.913 21.3462 121.639 20.9316C121.369 20.5171 121.234 20.006 121.234 19.3982C121.234 18.875 121.331 18.4424 121.524 18.1003C121.717 17.7582 121.981 17.4845 122.315 17.2793C122.649 17.074 123.025 16.9191 123.444 16.8144C123.866 16.7058 124.303 16.6273 124.754 16.579C125.297 16.5226 125.738 16.4723 126.076 16.4281C126.414 16.3798 126.66 16.3073 126.812 16.2107C126.969 16.1101 127.048 15.9552 127.048 15.7459V15.7097C127.048 15.2549 126.913 14.9027 126.643 14.6532C126.374 14.4037 125.985 14.2789 125.478 14.2789C124.943 14.2789 124.518 14.3956 124.205 14.6291C123.895 14.8625 123.685 15.1382 123.577 15.4561L121.536 15.1663C121.697 14.6029 121.963 14.132 122.333 13.7537C122.703 13.3714 123.156 13.0856 123.691 12.8965C124.227 12.7033 124.818 12.6067 125.466 12.6067C125.913 12.6067 126.358 12.659 126.8 12.7636C127.243 12.8683 127.648 13.0413 128.014 13.2828C128.38 13.5203 128.674 13.8443 128.895 14.2548C129.121 14.6653 129.233 15.1784 129.233 15.7942V22.0002H127.132V20.7264H127.06C126.927 20.9839 126.74 21.2254 126.499 21.4508C126.261 21.6721 125.961 21.8512 125.599 21.9881C125.241 22.1209 124.82 22.1873 124.337 22.1873ZM124.905 20.5815C125.344 20.5815 125.724 20.4949 126.046 20.3219C126.368 20.1448 126.615 19.9114 126.788 19.6216C126.965 19.3318 127.054 19.0159 127.054 18.6738V17.5811C126.986 17.6375 126.869 17.6898 126.704 17.7381C126.543 17.7864 126.362 17.8286 126.161 17.8649C125.959 17.9011 125.76 17.9333 125.563 17.9614C125.366 17.9896 125.195 18.0138 125.05 18.0339C124.724 18.0782 124.432 18.1506 124.174 18.2512C123.917 18.3518 123.714 18.4927 123.565 18.6738C123.416 18.8509 123.341 19.0803 123.341 19.362C123.341 19.7645 123.488 20.0683 123.782 20.2736C124.076 20.4788 124.45 20.5815 124.905 20.5815Z" fill="black"/>
<path d="M111.044 25.4774V12.7274H113.193V14.2608H113.32C113.433 14.0354 113.592 13.796 113.797 13.5424C114.002 13.2848 114.28 13.0655 114.63 12.8844C114.98 12.6993 115.427 12.6067 115.97 12.6067C116.686 12.6067 117.332 12.7898 117.908 13.156C118.487 13.5183 118.946 14.0556 119.284 14.7679C119.626 15.4762 119.797 16.3456 119.797 17.3759C119.797 18.3941 119.63 19.2594 119.296 19.9717C118.962 20.6841 118.508 21.2274 117.932 21.6017C117.357 21.976 116.705 22.1632 115.976 22.1632C115.445 22.1632 115.004 22.0746 114.654 21.8975C114.304 21.7204 114.022 21.5071 113.809 21.2576C113.6 21.0041 113.437 20.7646 113.32 20.5392H113.229V25.4774H111.044ZM113.187 17.3638C113.187 17.9635 113.272 18.4887 113.441 18.9394C113.614 19.3902 113.861 19.7423 114.183 19.9959C114.509 20.2454 114.904 20.3702 115.366 20.3702C115.849 20.3702 116.254 20.2414 116.58 19.9838C116.906 19.7222 117.151 19.366 117.316 18.9153C117.485 18.4605 117.57 17.9433 117.57 17.3638C117.57 16.7883 117.487 16.2771 117.322 15.8304C117.157 15.3837 116.912 15.0335 116.586 14.78C116.26 14.5264 115.853 14.3997 115.366 14.3997C114.9 14.3997 114.503 14.5224 114.177 14.7679C113.851 15.0134 113.604 15.3575 113.435 15.8002C113.27 16.2429 113.187 16.7641 113.187 17.3638Z" fill="black"/>
<path d="M105 12.7274V14.4178H99.6689V12.7274H105ZM100.985 10.5059H103.17V19.2111C103.17 19.5049 103.215 19.7303 103.303 19.8873C103.396 20.0402 103.516 20.1448 103.665 20.2012C103.814 20.2575 103.979 20.2857 104.16 20.2857C104.297 20.2857 104.422 20.2756 104.535 20.2555C104.651 20.2354 104.74 20.2173 104.8 20.2012L105.169 21.9096C105.052 21.9499 104.885 21.9941 104.668 22.0424C104.454 22.0907 104.193 22.1189 103.883 22.127C103.335 22.1431 102.842 22.0605 102.404 21.8794C101.965 21.6943 101.617 21.4086 101.359 21.0222C101.106 20.6358 100.981 20.1529 100.985 19.5733V10.5059Z" fill="black"/>
<path d="M93.2758 22.1873C92.6882 22.1873 92.159 22.0827 91.6881 21.8734C91.2213 21.6601 90.851 21.3462 90.5773 20.9316C90.3077 20.5171 90.1729 20.006 90.1729 19.3982C90.1729 18.875 90.2694 18.4424 90.4626 18.1003C90.6558 17.7582 90.9194 17.4845 91.2535 17.2793C91.5875 17.074 91.9638 16.9191 92.3824 16.8144C92.805 16.7058 93.2416 16.6273 93.6924 16.579C94.2357 16.5226 94.6764 16.4723 95.0145 16.4281C95.3525 16.3798 95.598 16.3073 95.751 16.2107C95.9079 16.1101 95.9864 15.9552 95.9864 15.7459V15.7097C95.9864 15.2549 95.8516 14.9027 95.5819 14.6532C95.3123 14.4037 94.9239 14.2789 94.4168 14.2789C93.8815 14.2789 93.4569 14.3956 93.143 14.6291C92.8331 14.8625 92.6238 15.1382 92.5152 15.4561L90.4747 15.1663C90.6357 14.6029 90.9013 14.132 91.2716 13.7537C91.6418 13.3714 92.0946 13.0856 92.6299 12.8965C93.1652 12.7033 93.7568 12.6067 94.4047 12.6067C94.8515 12.6067 95.2962 12.659 95.7389 12.7636C96.1816 12.8683 96.5861 13.0413 96.9523 13.2828C97.3186 13.5203 97.6124 13.8443 97.8337 14.2548C98.0591 14.6653 98.1718 15.1784 98.1718 15.7942V22.0002H96.0709V20.7264H95.9985C95.8657 20.9839 95.6785 21.2254 95.4371 21.4508C95.1996 21.6721 94.8998 21.8512 94.5376 21.9881C94.1794 22.1209 93.7588 22.1873 93.2758 22.1873ZM93.8433 20.5815C94.282 20.5815 94.6623 20.4949 94.9843 20.3219C95.3063 20.1448 95.5538 19.9114 95.7268 19.6216C95.9039 19.3318 95.9925 19.0159 95.9925 18.6738V17.5811C95.924 17.6375 95.8073 17.6898 95.6423 17.7381C95.4813 17.7864 95.3002 17.8286 95.099 17.8649C94.8978 17.9011 94.6985 17.9333 94.5013 17.9614C94.3041 17.9896 94.1331 18.0138 93.9882 18.0339C93.6622 18.0782 93.3704 18.1506 93.1128 18.2512C92.8553 18.3518 92.652 18.4927 92.5031 18.6738C92.3542 18.8509 92.2797 19.0803 92.2797 19.362C92.2797 19.7645 92.4266 20.0683 92.7204 20.2736C93.0142 20.4788 93.3885 20.5815 93.8433 20.5815Z" fill="black"/>
<path d="M82.367 16.5669V22.0001H80.1816V9.63647H82.3187V14.303H82.4274C82.6447 13.7798 82.9808 13.3673 83.4356 13.0655C83.8944 12.7596 84.4779 12.6066 85.1863 12.6066C85.8302 12.6066 86.3916 12.7415 86.8706 13.0111C87.3495 13.2808 87.7198 13.6752 87.9814 14.1944C88.247 14.7135 88.3798 15.3474 88.3798 16.096V22.0001H86.1944V16.4341C86.1944 15.8102 86.0334 15.3253 85.7115 14.9792C85.3935 14.629 84.9468 14.4539 84.3713 14.4539C83.9849 14.4539 83.6388 14.5385 83.3329 14.7075C83.0311 14.8725 82.7936 15.112 82.6206 15.4259C82.4515 15.7398 82.367 16.1201 82.367 16.5669Z" fill="black"/>
<path d="M74.4149 22.1813C73.4892 22.1813 72.6943 21.978 72.0303 21.5715C71.3702 21.165 70.8611 20.6036 70.5029 19.8872C70.1488 19.1668 69.9717 18.3377 69.9717 17.4C69.9717 16.4583 70.1528 15.6272 70.515 14.9068C70.8772 14.1823 71.3883 13.6189 72.0484 13.2164C72.7124 12.8099 73.4972 12.6067 74.4028 12.6067C75.1554 12.6067 75.8215 12.7455 76.401 13.0232C76.9846 13.2969 77.4494 13.6853 77.7955 14.1884C78.1417 14.6874 78.3389 15.271 78.3872 15.9391H76.2984C76.2139 15.4923 76.0126 15.1201 75.6947 14.8222C75.3808 14.5204 74.9602 14.3695 74.433 14.3695C73.9862 14.3695 73.5938 14.4902 73.2558 14.7317C72.9177 14.9691 72.6541 15.3112 72.4649 15.758C72.2798 16.2047 72.1872 16.74 72.1872 17.3638C72.1872 17.9957 72.2798 18.539 72.4649 18.9938C72.6501 19.4445 72.9097 19.7926 73.2437 20.0382C73.5818 20.2796 73.9782 20.4004 74.433 20.4004C74.7549 20.4004 75.0427 20.34 75.2963 20.2193C75.5538 20.0945 75.7691 19.9154 75.9422 19.682C76.1153 19.4485 76.234 19.1648 76.2984 18.8308H78.3872C78.3348 19.4868 78.1417 20.0683 77.8076 20.5754C77.4736 21.0785 77.0188 21.4729 76.4433 21.7587C75.8677 22.0404 75.1916 22.1813 74.4149 22.1813Z" fill="black"/>
<path d="M64.3981 22.1813C63.4684 22.1813 62.6655 21.9881 61.9893 21.6017C61.3172 21.2113 60.8001 20.66 60.4379 19.9476C60.0756 19.2312 59.8945 18.3881 59.8945 17.4181C59.8945 16.4643 60.0756 15.6272 60.4379 14.9068C60.8041 14.1823 61.3152 13.6189 61.9712 13.2164C62.6272 12.8099 63.398 12.6067 64.2834 12.6067C64.8549 12.6067 65.3942 12.6993 65.9013 12.8844C66.4124 13.0655 66.8632 13.3472 67.2536 13.7296C67.648 14.1119 67.9579 14.5989 68.1832 15.1905C68.4086 15.7781 68.5213 16.4784 68.5213 17.2913V17.9614H60.9208V16.4884H66.4265C66.4225 16.0699 66.3319 15.6976 66.1548 15.3716C65.9777 15.0416 65.7302 14.782 65.4123 14.5928C65.0984 14.4037 64.7321 14.3091 64.3136 14.3091C63.8668 14.3091 63.4744 14.4178 63.1364 14.6351C62.7983 14.8484 62.5347 15.1301 62.3455 15.4803C62.1604 15.8264 62.0658 16.2067 62.0618 16.6212V17.9071C62.0618 18.4464 62.1604 18.9092 62.3576 19.2956C62.5548 19.6779 62.8305 19.9717 63.1847 20.177C63.5388 20.3782 63.9534 20.4788 64.4283 20.4788C64.7462 20.4788 65.034 20.4346 65.2915 20.346C65.5491 20.2535 65.7725 20.1186 65.9616 19.9416C66.1508 19.7645 66.2937 19.5451 66.3903 19.2835L68.4308 19.5129C68.302 20.0522 68.0565 20.5231 67.6942 20.9256C67.3361 21.324 66.8772 21.6339 66.3178 21.8553C65.7584 22.0726 65.1185 22.1813 64.3981 22.1813Z" fill="black"/>
<path d="M46.8214 22.0001L43.332 9.63647H45.7408L47.9684 18.7221H48.0831L50.4616 9.63647H52.6531L55.0376 18.7281H55.1463L57.3739 9.63647H59.7827L56.2933 22.0001H54.0838L51.6087 13.325H51.5121L49.0309 22.0001H46.8214Z" fill="black"/>
<path d="M12.6239 20.3443C12.4789 20.4192 12.3158 20.4625 12.1424 20.4625C11.7409 20.4625 11.3921 20.2365 11.2088 19.9018L11.1387 19.7447L8.21606 13.1791C8.18451 13.1077 8.16498 13.0269 8.16498 12.9483C8.16498 12.6457 8.40465 12.4006 8.70023 12.4006C8.82012 12.4006 8.93114 12.4413 9.02038 12.5092L12.4693 15.0231C12.7212 15.1917 13.0223 15.2907 13.3459 15.2907C13.5391 15.2907 13.7232 15.2539 13.8949 15.1899L30.1138 7.80002C27.2066 4.29247 22.4187 2 17.0006 2C8.13422 2 0.947266 8.13157 0.947266 15.6958C0.947266 19.8222 3.10957 23.5369 6.49414 26.0478C6.76558 26.2462 6.94339 26.5723 6.94339 26.9402C6.94339 27.062 6.91791 27.173 6.88682 27.289C6.6165 28.3213 6.18386 29.9744 6.16377 30.0519C6.12998 30.1814 6.07733 30.3168 6.07733 30.4523C6.07733 30.7549 6.31677 31 6.6128 31C6.72876 31 6.82373 30.9558 6.92173 30.8981L10.4362 28.8207C10.7005 28.6648 10.9804 28.5678 11.2889 28.5678C11.4529 28.5678 11.6114 28.5939 11.7605 28.6405C13.4 29.1233 15.169 29.3915 17.0007 29.3915C25.8664 29.3915 33.0544 23.2596 33.0544 15.6958C33.0544 13.4047 32.3912 11.247 31.2256 9.34895L12.7415 20.2749L12.6239 20.3443Z" fill="#1AAD19"/>
</svg>
