<svg width="106" height="36" viewBox="0 0 106 36" fill="none" xmlns="http://www.w3.org/2000/svg">
<path d="M92.5215 12.7891V10H105.662V12.7891H100.764V26H97.4199V12.7891H92.5215Z" fill="black"/>
<path d="M83.5273 26H77.8555V10H83.5742C85.1836 10 86.569 10.3203 87.7305 10.9609C88.8919 11.5964 89.7852 12.5104 90.4102 13.7031C91.0404 14.8958 91.3555 16.3229 91.3555 17.9844C91.3555 19.651 91.0404 21.0833 90.4102 22.2812C89.7852 23.4792 88.8867 24.3984 87.7148 25.0391C86.5482 25.6797 85.1523 26 83.5273 26ZM81.2383 23.1016H83.3867C84.3867 23.1016 85.2279 22.9245 85.9102 22.5703C86.5977 22.2109 87.1133 21.6562 87.457 20.9062C87.806 20.151 87.9805 19.1771 87.9805 17.9844C87.9805 16.8021 87.806 15.8359 87.457 15.0859C87.1133 14.3359 86.6003 13.7839 85.918 13.4297C85.2357 13.0755 84.3945 12.8984 83.3945 12.8984H81.2383V23.1016Z" fill="black"/>
<path d="M72.1191 14.6016C72.0566 13.9714 71.7884 13.4818 71.3145 13.1328C70.8405 12.7839 70.1973 12.6094 69.3848 12.6094C68.8327 12.6094 68.3665 12.6875 67.9863 12.8438C67.6061 12.9948 67.3145 13.2057 67.1113 13.4766C66.9134 13.7474 66.8145 14.0547 66.8145 14.3984C66.804 14.6849 66.8639 14.9349 66.9941 15.1484C67.1296 15.362 67.3145 15.5469 67.5488 15.7031C67.7832 15.8542 68.054 15.987 68.3613 16.1016C68.6686 16.2109 68.9967 16.3047 69.3457 16.3828L70.7832 16.7266C71.4811 16.8828 72.1217 17.0911 72.7051 17.3516C73.2884 17.612 73.7936 17.9323 74.2207 18.3125C74.6478 18.6927 74.9785 19.1406 75.2129 19.6562C75.4525 20.1719 75.5749 20.763 75.5801 21.4297C75.5749 22.4089 75.3249 23.2578 74.8301 23.9766C74.3405 24.6901 73.6322 25.2448 72.7051 25.6406C71.7832 26.0312 70.6712 26.2266 69.3691 26.2266C68.0775 26.2266 66.9525 26.0286 65.9941 25.6328C65.041 25.237 64.2962 24.651 63.7598 23.875C63.2285 23.0938 62.9499 22.1276 62.9238 20.9766H66.1973C66.2337 21.513 66.3874 21.9609 66.6582 22.3203C66.9342 22.6745 67.3014 22.9427 67.7598 23.125C68.2233 23.3021 68.7467 23.3906 69.3301 23.3906C69.903 23.3906 70.4004 23.3073 70.8223 23.1406C71.2493 22.974 71.5801 22.7422 71.8145 22.4453C72.0488 22.1484 72.166 21.8073 72.166 21.4219C72.166 21.0625 72.0592 20.7604 71.8457 20.5156C71.6374 20.2708 71.3301 20.0625 70.9238 19.8906C70.5228 19.7188 70.0306 19.5625 69.4473 19.4219L67.7051 18.9844C66.3561 18.6562 65.291 18.1432 64.5098 17.4453C63.7285 16.7474 63.3405 15.8073 63.3457 14.625C63.3405 13.6562 63.5983 12.8099 64.1191 12.0859C64.6452 11.362 65.3665 10.7969 66.2832 10.3906C67.1999 9.98437 68.2415 9.78125 69.4082 9.78125C70.5957 9.78125 71.6322 9.98437 72.5176 10.3906C73.4082 10.7969 74.1009 11.362 74.5957 12.0859C75.0905 12.8099 75.3457 13.6484 75.3613 14.6016H72.1191Z" fill="black"/>
<path d="M57.2734 10H60.6562V20.3906C60.6562 21.5573 60.3776 22.5781 59.8203 23.4531C59.2682 24.3281 58.4948 25.0104 57.5 25.5C56.5052 25.9844 55.3464 26.2266 54.0234 26.2266C52.6953 26.2266 51.5339 25.9844 50.5391 25.5C49.5443 25.0104 48.7708 24.3281 48.2188 23.4531C47.6667 22.5781 47.3906 21.5573 47.3906 20.3906V10H50.7734V20.1016C50.7734 20.7109 50.9062 21.2526 51.1719 21.7266C51.4427 22.2005 51.8229 22.5729 52.3125 22.8438C52.8021 23.1146 53.3724 23.25 54.0234 23.25C54.6797 23.25 55.25 23.1146 55.7344 22.8438C56.224 22.5729 56.6016 22.2005 56.8672 21.7266C57.138 21.2526 57.2734 20.7109 57.2734 20.1016V10Z" fill="black"/>
<path d="M18 36C27.9411 36 36 27.9411 36 18C36 8.05887 27.9411 0 18 0C8.05888 0 0 8.05887 0 18C0 27.9411 8.05888 36 18 36Z" fill="#26A17B"/>
<path d="M19.9186 19.661V19.6581C19.7941 19.6668 19.1517 19.7044 17.7221 19.7044C16.579 19.7044 15.7774 19.6726 15.4938 19.6581V19.661C11.098 19.4671 7.81922 18.7031 7.81922 17.7857C7.81922 16.8713 11.1009 16.1044 15.4938 15.9105V18.8999C15.7803 18.9201 16.6051 18.9693 17.7424 18.9693C19.1083 18.9693 19.7912 18.9115 19.9186 18.8999V15.9134C24.3057 16.1102 27.5758 16.8742 27.5758 17.7886C27.5758 18.7031 24.3028 19.4671 19.9186 19.6639M19.9186 15.6037V12.9298H26.0392V8.85229H9.37613V12.9298H15.4967V15.6037C10.5221 15.8324 6.7832 16.8163 6.7832 17.997C6.7832 19.1777 10.525 20.1616 15.4967 20.3931V28.9648H19.9215V20.3931C24.8874 20.1645 28.6205 19.1806 28.6205 17.9999C28.6205 16.8221 24.8874 15.8353 19.9215 15.6066" fill="white"/>
</svg>
