<svg width="105" height="32" viewBox="0 0 105 32" fill="none" xmlns="http://www.w3.org/2000/svg">
<path d="M26.8763 0H5.12677C2.29435 0 0 2.29599 0 5.12552V26.8745C0 29.704 2.29435 32 5.12677 32H26.8763C29.7087 32 32 29.704 32 26.8745V5.12552C32.003 2.293 29.7087 0 26.8763 0Z" fill="#1677FF"/>
<path d="M26.3782 20.2274C25.1063 19.7943 23.3954 19.1311 21.492 18.4316C22.6346 16.4117 23.5487 14.1132 24.1501 11.6148H17.8747V9.31928H25.5603V8.03829H17.8747V4.21045H14.7386C14.1883 4.21045 14.1883 4.76161 14.1883 4.76161V8.03525H6.41554V9.31625H14.1883V11.6117H7.76864V12.8927H20.2171C19.7631 14.4856 19.1497 15.9847 18.425 17.3444C14.3868 15.9907 10.0749 14.8945 7.36872 15.5698C5.63676 16.0028 4.52122 16.7751 3.86572 17.5867C0.858845 21.3024 3.01477 26.9473 9.36528 26.9473C13.1209 26.9473 16.7381 24.8214 19.5405 21.3176C23.7231 23.3587 32.001 26.8655 32.001 26.8655V21.8687C32.004 21.8687 30.9637 21.784 26.3782 20.2274ZM8.77293 24.7881C3.82061 24.7881 2.35627 20.827 4.80386 18.6587C5.62173 17.9258 7.11314 17.5685 7.90695 17.4898C10.8477 17.196 13.5719 18.3347 16.7862 19.9276C14.5281 22.9196 11.6505 24.7881 8.77293 24.7881Z" fill="white"/>
<path d="M104.979 10.7073L105 10.6848H101.652L99.537 17.7566H99.4248L96.997 10.6848H93.0176L97.8055 22.3554L95.8053 25.9127V25.9985H98.9295L104.979 10.7073Z" fill="black"/>
<path d="M67.8555 10.6848H64.3037V22.3125H67.8555V10.6848Z" fill="black"/>
<path d="M92.3193 19.406V14.5478C92.3193 11.9012 90.7 10.4473 87.8446 10.4473C86.0221 10.4473 84.7648 10.7515 82.4703 11.4234L83.099 14.0924C85.1903 13.1816 86.111 12.7916 87.0784 12.7916C88.2468 12.7916 88.7653 13.5941 88.7653 14.8317V14.9174C84.6949 15.6546 83.4355 16.0671 82.6502 16.8268C82.066 17.3904 81.8184 18.1929 81.8184 19.1262C81.8184 21.3602 83.6176 22.5528 85.3024 22.5528C86.5619 22.5528 87.5736 22.0974 88.9453 21.0989L89.1929 22.3139H92.7447L92.3193 19.406ZM88.7675 19.4938C87.8234 19.992 87.2837 20.1881 86.655 20.1881C85.7999 20.1881 85.2601 19.6449 85.2601 18.779C85.2601 18.4543 85.3278 18.1276 85.5967 17.8683C86.0242 17.4557 86.8561 17.1515 88.7675 16.7186V19.4938Z" fill="black"/>
<path d="M76.6905 10.4473C75.3866 10.4473 74.3748 10.9251 73.2276 11.8359V10.6862H69.6758V25.9999H73.2276V22.2036C73.9028 22.3772 74.5315 22.465 75.2956 22.465C78.4664 22.465 81.3218 20.2085 81.3218 16.1958C81.3218 12.5956 79.2538 10.4473 76.6905 10.4473ZM74.4405 20.3167C74.0362 20.3167 73.653 20.2739 73.2255 20.1432V13.8535C73.9684 13.3552 74.5738 13.1163 75.3379 13.1163C76.6651 13.1163 77.7213 14.1353 77.7213 16.3061C77.7234 19.0813 76.1719 20.3167 74.4405 20.3167Z" fill="black"/>
<path d="M52.0945 7.02197H47.3277L42 22.3153H45.283L46.1826 19.3215H51.8257L52.6808 22.3153H56.8846L52.0945 7.02197ZM46.9234 16.8261L49.0359 9.77676H49.1248L51.1251 16.8261H46.9234Z" fill="black"/>
<path d="M61.8731 6.4751H58.3213V22.3095H61.8731V6.4751Z" fill="black"/>
<path d="M64.0322 7.8869C64.0322 9.01414 64.8874 9.7738 66.0791 9.7738C67.2708 9.7738 68.1259 9.01414 68.1259 7.8869C68.1259 6.78008 67.2708 6 66.0791 6C64.8874 6 64.0322 6.78008 64.0322 7.8869Z" fill="#1677FF"/>
</svg>
