<svg width="55" height="36" viewBox="0 0 55 36" fill="none" xmlns="http://www.w3.org/2000/svg">
<g id="UnionPay">
<path id="Vector" d="M10.6824 0.501953H24.2748C26.1722 0.501953 27.3523 2.0709 26.9097 4.00217L20.5814 31.5656C20.1348 33.4901 18.2351 35.0604 16.3364 35.0604H2.7453C0.850564 35.0604 -0.332195 33.4901 0.110429 31.5656L6.44133 4.00217C6.88396 2.0709 8.78267 0.501953 10.6824 0.501953Z" fill="#E21836"/>
<path id="Vector_2" d="M23.1434 0.5H38.7744C40.6715 0.5 39.816 2.06895 39.3698 4.00021L33.0425 31.5636C32.5985 33.4882 32.737 35.0585 30.836 35.0585H15.205C13.304 35.0585 12.1275 33.4882 12.5741 31.5636L18.9011 4.00021C19.3503 2.06895 21.2451 0.5 23.1434 0.5Z" fill="#00447C"/>
<path id="Vector_3" d="M38.1545 0.5H51.747C53.647 0.5 54.8271 2.06895 54.3808 4.00021L48.0536 31.5636C47.607 33.4882 45.7059 35.0585 43.8062 35.0585H30.2201C28.3191 35.0585 27.1399 33.4882 27.5852 31.5636L33.9135 4.00021C34.3561 2.06895 36.2535 0.5 38.1545 0.5Z" fill="#007B84"/>
<path id="Vector_4" d="M14.2318 9.33334C12.8341 9.34779 12.4213 9.33334 12.2894 9.30174C12.2387 9.54609 11.2955 13.9602 11.2928 13.9639C11.0897 14.8569 10.942 15.4935 10.4401 15.9046C10.1551 16.1435 9.8225 16.2588 9.43686 16.2588C8.81699 16.2588 8.45587 15.9466 8.39524 15.3543L8.38365 15.151C8.38365 15.151 8.57249 13.9548 8.57249 13.9481C8.57249 13.9481 9.56243 9.92556 9.73968 9.39384C9.74895 9.36359 9.7516 9.34779 9.75392 9.33334C7.82705 9.35048 7.48548 9.33334 7.46196 9.30174C7.44904 9.3451 7.40133 9.59449 7.40133 9.59449L6.39052 14.1282L6.30371 14.5127L6.13574 15.7704C6.13574 16.1435 6.20797 16.448 6.35175 16.7055C6.81227 17.5219 8.12589 17.6442 8.86901 17.6442C9.82648 17.6442 10.7246 17.4379 11.3316 17.0611C12.3851 16.4296 12.6608 15.4424 12.9066 14.5652L13.0206 14.1151C13.0206 14.1151 14.0403 9.93732 14.2136 9.39384C14.2202 9.36359 14.2229 9.34779 14.2318 9.33334ZM17.7015 12.7036C17.4557 12.7036 17.0064 12.7641 16.6029 12.9648C16.4565 13.0411 16.318 13.1291 16.1719 13.2168L16.3037 12.7339L16.2315 12.6525C15.3757 12.8283 15.1842 12.8518 14.3937 12.9648L14.3275 13.0095C14.2357 13.7815 14.1542 14.362 13.814 15.8795C13.6844 16.4388 13.5499 17.0034 13.4151 17.5614L13.4515 17.6323C14.2616 17.5889 14.5074 17.5889 15.2114 17.6007L15.2684 17.5378C15.3578 17.073 15.3694 16.9641 15.5676 16.0227C15.6607 15.5763 15.8548 14.5956 15.9506 14.2463C16.1265 14.1637 16.3001 14.0823 16.4657 14.0823C16.8603 14.0823 16.8123 14.4315 16.797 14.5707C16.7801 14.8043 16.6364 15.5672 16.4889 16.2223L16.3905 16.6451C16.3219 16.9574 16.2467 17.2609 16.1782 17.5704L16.208 17.6323C17.0064 17.5889 17.2499 17.5889 17.9318 17.6007L18.0119 17.5378C18.1352 16.8118 18.1713 16.6176 18.3899 15.5605L18.4999 15.0748C18.7136 14.1243 18.821 13.6424 18.6593 13.2498C18.4883 12.8098 18.0782 12.7036 17.7015 12.7036ZM21.5775 13.6988C21.1531 13.7815 20.8824 13.8366 20.6134 13.8722C20.3467 13.9156 20.0866 13.9549 19.6765 14.0127L19.644 14.0426L19.6142 14.0665C19.5714 14.3764 19.5416 14.6443 19.485 14.9592C19.4369 15.2849 19.3631 15.6549 19.2428 16.1866C19.1497 16.5937 19.1017 16.7355 19.0486 16.8787C18.997 17.0219 18.94 17.161 18.8353 17.5613L18.8598 17.5983L18.8803 17.6322C19.2637 17.6138 19.5145 17.6006 19.7722 17.5983C20.0296 17.5889 20.2963 17.5983 20.7092 17.6006L20.7453 17.5707L20.784 17.5378C20.8437 17.1768 20.8526 17.0797 20.889 16.9036C20.9252 16.7147 20.9874 16.4532 21.1402 15.7548C21.2124 15.4267 21.2929 15.0997 21.3678 14.7649C21.4456 14.4315 21.5271 14.1031 21.6047 13.7751L21.5931 13.7354L21.5775 13.6988ZM21.5865 12.357C21.2009 12.1261 20.524 12.1993 20.0685 12.5183C19.6143 12.8309 19.5626 13.2746 19.9469 13.5085C20.3259 13.733 21.0054 13.6661 21.457 13.3445C21.9102 13.0252 21.9669 12.5855 21.5865 12.357ZM23.9188 17.7046C24.699 17.7046 25.4988 17.4865 26.1007 16.8391C26.5639 16.3141 26.7763 15.533 26.8498 15.2114C27.0894 14.1452 26.9028 13.6475 26.6686 13.3443C26.3128 12.8821 25.684 12.7339 25.0316 12.7339C24.6394 12.7339 23.7051 12.7733 22.9752 13.4559C22.4511 13.9483 22.2089 14.6165 22.0628 15.2571C21.9154 15.9098 21.7457 17.0848 22.8109 17.5221C23.1395 17.6653 23.6133 17.7046 23.9188 17.7046ZM23.8578 15.3058C24.0377 14.4985 24.2501 13.8209 24.7921 13.8209C25.2168 13.8209 25.2476 14.3251 25.0588 15.1351C25.025 15.3149 24.8699 15.9834 24.6602 16.2681C24.5138 16.4782 24.3405 16.6055 24.149 16.6055C24.092 16.6055 23.7531 16.6055 23.7478 16.095C23.7452 15.8429 23.7959 15.5855 23.8578 15.3058ZM28.8002 17.6008L28.8612 17.5379C28.9476 17.0731 28.9619 16.9639 29.1534 16.0228C29.2491 15.5764 29.4473 14.5957 29.5403 14.2464C29.7166 14.1634 29.8872 14.0821 30.0582 14.0821C30.4501 14.0821 30.4024 14.4313 30.3868 14.5704C30.3726 14.8044 30.2288 15.567 30.0787 16.2221L29.9856 16.6449C29.9144 16.9575 29.8369 17.2606 29.7683 17.5705L29.7981 17.6324C30.5992 17.589 30.8334 17.589 31.5192 17.6008L31.6021 17.5379C31.7223 16.8116 31.7548 16.6173 31.9801 15.5606L32.0874 15.0746C32.3021 14.1241 32.4108 13.6425 32.2517 13.2499C32.0758 12.8099 31.663 12.7037 31.2916 12.7037C31.0455 12.7037 30.5939 12.7639 30.1927 12.9649C30.0492 13.0412 29.9054 13.1289 29.7643 13.2169L29.8872 12.734L29.8213 12.6523C28.9659 12.8284 28.7704 12.8519 27.9809 12.9649L27.9203 13.0096C27.8245 13.7816 27.7467 14.3617 27.4064 15.8796C27.2769 16.4389 27.1424 17.0035 27.0079 17.5615L27.044 17.6324C27.8553 17.589 28.0975 17.589 28.8002 17.6008ZM34.686 17.6322C34.7364 17.3828 35.0355 15.9046 35.0382 15.9046C35.0382 15.9046 35.293 14.82 35.3085 14.7807C35.3085 14.7807 35.3887 14.6677 35.4689 14.623H35.5868C36.6997 14.623 37.9563 14.623 38.9413 13.888C39.6115 13.3838 40.0697 12.6393 40.2741 11.7345C40.3271 11.5127 40.3662 11.2489 40.3662 10.985C40.3662 10.6385 40.2977 10.2957 40.0995 10.0278C39.5973 9.31492 38.5971 9.30181 37.4425 9.29643C37.4388 9.29643 36.8733 9.30181 36.8733 9.30181C35.3953 9.32029 34.8026 9.31492 34.5591 9.28467C34.5386 9.3939 34.4998 9.58817 34.4998 9.58817C34.4998 9.58817 33.9704 12.0774 33.9704 12.0814C33.9704 12.0814 32.7035 17.3737 32.6438 17.6231C33.9343 17.6073 34.4634 17.6073 34.686 17.6322ZM35.667 13.2104C35.667 13.2104 36.2299 10.7262 36.2272 10.7356L36.2455 10.6083L36.2534 10.5111L36.4784 10.5346C36.4784 10.5346 37.6393 10.6358 37.6664 10.6385C38.1246 10.8183 38.3135 11.2818 38.1816 11.8868C38.0613 12.4397 37.7078 12.9045 37.2536 13.1291C36.8796 13.3193 36.4214 13.3351 35.9493 13.3351H35.6438L35.667 13.2104ZM39.1717 15.3518C39.0229 15.9951 38.852 17.1702 39.9118 17.589C40.2497 17.7348 40.5526 17.7782 40.8603 17.7624C41.1854 17.7446 41.4865 17.5792 41.7655 17.3412C41.7403 17.439 41.7151 17.5369 41.6899 17.635L41.738 17.6979C42.5003 17.6652 42.7369 17.6652 43.5628 17.6716L43.6377 17.6138C43.7583 16.8946 43.8719 16.1961 44.1853 14.8201C44.3381 14.161 44.4904 13.5083 44.6472 12.8519L44.6226 12.7796C43.7699 12.9399 43.5419 12.9742 42.7216 13.0922L42.6593 13.1436C42.651 13.2105 42.6424 13.2747 42.6345 13.3389C42.5069 13.1298 42.3221 12.9514 42.0368 12.8401C41.672 12.6946 40.8153 12.8821 40.0788 13.5624C39.5613 14.0481 39.3128 14.7136 39.1717 15.3518ZM40.9627 15.3912C41.1453 14.5983 41.355 13.9274 41.8983 13.9274C42.2419 13.9274 42.4228 14.2491 42.386 14.7976C42.3568 14.9344 42.3254 15.0786 42.2879 15.2416C42.2336 15.4772 42.1746 15.7108 42.1173 15.9447C42.059 16.1047 41.9911 16.2556 41.9165 16.3561C41.7767 16.5571 41.4441 16.6818 41.2526 16.6818C41.1983 16.6818 40.863 16.6818 40.8514 16.1803C40.8487 15.9306 40.8994 15.6735 40.9627 15.3912ZM50.3156 12.7732L50.2497 12.6969C49.4059 12.8703 49.2531 12.8979 48.4779 13.0041L48.4209 13.0619C48.4182 13.0713 48.4159 13.0858 48.4119 13.0989L48.4093 13.0858C47.8322 14.4366 47.8491 14.1452 47.3793 15.2086C47.3766 15.1602 47.3766 15.13 47.374 15.0785L47.2563 12.7732L47.1825 12.6969C46.2985 12.8703 46.2777 12.8979 45.4613 13.0041L45.3977 13.0619C45.3888 13.0895 45.3888 13.1197 45.3835 13.1526L45.3888 13.1644C45.4908 13.6934 45.4663 13.5755 45.5687 14.4104C45.6164 14.8201 45.68 15.2321 45.7277 15.6368C45.8082 16.3141 45.8533 16.6475 45.9517 17.681C45.4004 18.604 45.2698 18.9532 44.7391 19.7632L44.7427 19.7713L44.369 20.3709C44.3263 20.4341 44.2875 20.4774 44.2332 20.4959C44.1736 20.5258 44.096 20.5312 43.9884 20.5312H43.7813L43.4735 21.5698L44.5294 21.5882C45.1493 21.5856 45.5389 21.2915 45.7486 20.8962L46.4125 19.742H46.4019L46.4718 19.6607C46.9184 18.6853 50.3156 12.7732 50.3156 12.7732ZM39.1716 26.4132H38.7237L40.3816 20.8503H40.9315L41.1061 20.2773L41.123 20.9145C41.1025 21.3084 41.408 21.6577 42.2104 21.5998H43.1384L43.4577 20.5287H43.1085C42.9078 20.5287 42.8147 20.4772 42.8263 20.367L42.8094 19.7187H41.0909V19.722C40.5353 19.7338 38.8761 19.7761 38.5402 19.8669C38.1337 19.9731 37.7053 20.2857 37.7053 20.2857L37.8736 19.7119H36.2661L35.9312 20.8503L34.2511 26.4983H33.9251L33.6054 27.5617H36.8071L36.6998 27.9163H38.2775L38.3821 27.5617H38.8248L39.1716 26.4132ZM37.858 21.9807C37.6006 22.0529 37.1215 22.2721 37.1215 22.2721L37.5476 20.8503H38.8248L38.5167 21.8862C38.5167 21.8862 38.1221 21.9097 37.858 21.9807ZM37.8825 24.0117C37.8825 24.0117 37.4813 24.0628 37.2173 24.1233C36.9572 24.2033 36.4695 24.4554 36.4695 24.4554L36.9095 22.9759H38.1933L37.8825 24.0117ZM37.1669 26.4263H35.8858L36.2572 25.1777H37.5343L37.1669 26.4263ZM40.2522 22.9759H42.0989L41.8335 23.8477H39.9623L39.6814 24.8009H41.3187L40.079 26.5719C39.9922 26.7019 39.9143 26.748 39.8278 26.7846C39.741 26.8293 39.6271 26.8818 39.4952 26.8818H39.041L38.7289 27.9257H39.917C40.5345 27.9257 40.8993 27.6407 41.1686 27.2666L42.0187 26.0862L42.2013 27.2847C42.2401 27.5093 42.3991 27.6407 42.5068 27.6918C42.6257 27.7523 42.7486 27.8561 42.9222 27.8716C43.1084 27.8797 43.2429 27.886 43.3324 27.886H43.9161L44.2667 26.7177H44.0364C43.9042 26.7177 43.6766 26.6952 43.6378 26.6532C43.5991 26.6021 43.5991 26.5235 43.5782 26.4038L43.393 25.2026H42.6346L42.9673 24.8009H44.8348L45.1221 23.8477H43.393L43.6624 22.9759H45.3861L45.7058 21.9007H40.5666L40.2522 22.9759ZM24.655 26.6691L25.086 25.2144H26.8575L27.1812 24.1325H25.408L25.6787 23.2371H27.4114L27.7325 22.1895H23.397L23.0826 23.2371H24.0676L23.8049 24.1325H22.8172L22.4899 25.2329H23.4746L22.9001 27.1575C22.8225 27.4122 22.9365 27.5094 23.0087 27.6277C23.0826 27.743 23.1575 27.8193 23.3258 27.8626C23.4994 27.9019 23.6183 27.9255 23.78 27.9255H25.7771L26.1329 26.7269L25.2477 26.8503C25.0767 26.8503 24.6033 26.8294 24.655 26.6691ZM24.8582 19.7054L24.4093 20.5285C24.3132 20.7083 24.2267 20.8199 24.1489 20.8713C24.0803 20.9147 23.9444 20.9328 23.7476 20.9328H23.5134L23.2003 21.9859H23.9782C24.3523 21.9859 24.6395 21.8467 24.7767 21.7771C24.9241 21.6971 24.9629 21.7429 25.0768 21.6313L25.3396 21.4004H27.7687L28.0911 20.304H26.3129L26.6234 19.7054H24.8582ZM28.4444 26.6902C28.4029 26.6297 28.4328 26.5232 28.496 26.3014L29.16 24.072H31.5219C31.8661 24.0669 32.1146 24.0629 32.2762 24.0511C32.4498 24.0326 32.6387 23.9698 32.8444 23.8569C33.0568 23.7386 33.1655 23.6139 33.2572 23.4707C33.3596 23.3278 33.5239 23.0153 33.6651 22.5333L34.4996 19.712L32.0486 19.7265C32.0486 19.7265 31.2939 19.8394 30.9616 19.9641C30.6263 20.1032 30.1473 20.4918 30.1473 20.4918L30.3686 19.7184H28.8545L26.7348 26.8502C26.6596 27.1272 26.6093 27.3282 26.5977 27.4488C26.5937 27.5789 26.7593 27.7076 26.8667 27.8048C26.9936 27.9019 27.1811 27.8861 27.361 27.9019C27.5502 27.9164 27.8192 27.9254 28.1906 27.9254H29.3541L29.7113 26.702L28.6696 26.8018C28.5583 26.8018 28.4778 26.7413 28.4444 26.6902ZM29.5884 22.5662H32.0692L31.9115 23.0677C31.8893 23.0795 31.8363 23.0428 31.5838 23.0731H29.4356L29.5884 22.5662ZM30.0853 20.8843H32.587L32.4071 21.4883C32.4071 21.4883 31.228 21.4766 31.0391 21.5119C30.2082 21.6577 29.7229 22.1081 29.7229 22.1081L30.0853 20.8843ZM31.967 24.747C31.9465 24.8219 31.914 24.8676 31.8686 24.9019C31.8182 24.9349 31.7367 24.9466 31.6151 24.9466H31.2616L31.2825 24.3359H29.8122L29.7526 27.3216C29.7502 27.537 29.7708 27.6617 29.9262 27.7615C30.0815 27.8862 30.5603 27.902 31.2047 27.902H32.126L32.4586 26.7845L31.6566 26.8292L31.3899 26.845C31.3534 26.8292 31.3186 26.8147 31.2799 26.7754C31.2461 26.7414 31.1891 26.7623 31.1984 26.5468L31.2047 25.7815L32.0458 25.7462C32.5001 25.7462 32.6942 25.5963 32.8599 25.4535C33.0179 25.3167 33.0696 25.1594 33.1292 24.9466L33.2703 24.269H32.1144L31.967 24.747Z" fill="#FEFEFE"/>
</g>
</svg>
