<svg width="56" height="36" viewBox="0 0 56 36" fill="none" xmlns="http://www.w3.org/2000/svg">
<g id="Mastercard">
<path id="Left" fill-rule="evenodd" clip-rule="evenodd" d="M27.7408 30.8924C24.8044 33.463 20.9954 35.0149 16.8333 35.0149C7.54623 35.0149 0.0175781 27.2885 0.0175781 17.7575C0.0175781 8.22643 7.54623 0.5 16.8333 0.5C20.9954 0.5 24.8044 2.05188 27.7408 4.62257C30.6772 2.05188 34.4861 0.5 38.6483 0.5C47.9353 0.5 55.464 8.22643 55.464 17.7575C55.464 27.2885 47.9353 35.0149 38.6483 35.0149C34.4861 35.0149 30.6772 33.463 27.7408 30.8924Z" fill="#ED0006"/>
<path id="Right" fill-rule="evenodd" clip-rule="evenodd" d="M27.7412 30.8924C31.3568 27.727 33.6494 23.017 33.6494 17.7575C33.6494 12.4979 31.3568 7.78791 27.7412 4.62257C30.6776 2.05188 34.4866 0.5 38.6487 0.5C47.9358 0.5 55.4644 8.22643 55.4644 17.7575C55.4644 27.2885 47.9358 35.0149 38.6487 35.0149C34.4866 35.0149 30.6776 33.4631 27.7412 30.8924Z" fill="#F9A000"/>
<path id="Middle" fill-rule="evenodd" clip-rule="evenodd" d="M27.7412 4.62256C31.3567 7.78789 33.6493 12.4979 33.6493 17.7574C33.6493 23.0169 31.3567 27.7269 27.7412 30.8922C24.1256 27.7269 21.833 23.0169 21.833 17.7574C21.833 12.4979 24.1256 7.78789 27.7412 4.62256Z" fill="#FF5E00"/>
</g>
</svg>
