<svg width="87" height="60" viewBox="0 0 87 60" fill="none" xmlns="http://www.w3.org/2000/svg">
<g id="Payment Method/Visa">
<path id="visa-logo" fill-rule="evenodd" clip-rule="evenodd" d="M26.1833 40.6456H20.9582L17.04 25.4809C16.854 24.7834 16.4592 24.1667 15.8783 23.876C14.4287 23.1456 12.8314 22.5643 11.0889 22.2711V21.6872H19.5061C20.6678 21.6872 21.539 22.5643 21.6842 23.5828L23.7172 34.5216L28.9397 21.6872H34.0196L26.1833 40.6456ZM36.9238 40.6456H31.9892L36.0526 21.6872H40.9872L36.9238 40.6456ZM47.3714 26.9393C47.5166 25.9182 48.3879 25.3344 49.4044 25.3344C51.0017 25.1878 52.7417 25.4809 54.1938 26.2089L55.0651 22.127C53.613 21.5432 52.0157 21.25 50.5661 21.25C45.7767 21.25 42.2916 23.876 42.2916 27.5206C42.2916 30.2932 44.7602 31.749 46.5027 32.626C48.3879 33.5005 49.114 34.0844 48.9688 34.9589C48.9688 36.2706 47.5166 36.8545 46.0671 36.8545C44.3245 36.8545 42.582 36.4172 40.9872 35.6868L40.1159 39.7711C41.8585 40.499 43.7437 40.7922 45.4862 40.7922C50.8565 40.9363 54.1938 38.3128 54.1938 34.375C54.1938 29.4162 47.3714 29.1255 47.3714 26.9393ZM71.4639 40.6456L67.5457 21.6872H63.3371C62.4658 21.6872 61.5946 22.2711 61.3041 23.1456L54.0486 40.6456H59.1285L60.1424 37.8755H66.384L66.9648 40.6456H71.4639ZM64.0632 26.7927L65.5127 33.9378H61.4493L64.0632 26.7927Z" fill="#172B85"/>
</g>
</svg>
