<svg width="18" height="18" viewBox="0 0 18 18" fill="none" xmlns="http://www.w3.org/2000/svg">
<path fill-rule="evenodd" clip-rule="evenodd" d="M9 1.5C13.1421 1.5 16.5 4.85786 16.5 9C16.5 13.1421 13.1421 16.5 9 16.5C4.85786 16.5 1.5 13.1421 1.5 9C1.5 4.85786 4.85786 1.5 9 1.5ZM12.512 6.58667C12.2191 6.29387 11.7443 6.29381 11.4514 6.58667L8.21484 9.82251L6.54858 8.15625L6.49146 8.10425C6.19688 7.8642 5.76255 7.88174 5.48804 8.15625C5.21357 8.43089 5.19644 8.86515 5.43677 9.15967L5.48804 9.2168L7.6853 11.4141L7.7417 11.4653C8.03622 11.7056 8.47125 11.6885 8.74585 11.4141L12.512 7.64722C12.8048 7.35437 12.8047 6.87957 12.512 6.58667Z" fill="#1DC94D"/>
</svg>
