<svg width="18" height="18" viewBox="0 0 18 18" fill="none" xmlns="http://www.w3.org/2000/svg">
<path d="M16.3179 6.30623C15.9742 5.47782 15.2747 4.58191 14.7265 4.29964C15.1172 5.05646 15.3872 5.86646 15.5304 6.70509L15.5324 6.71941C14.6345 4.48373 13.1147 3.58373 11.8731 1.62214C11.8097 1.52191 11.7463 1.42168 11.687 1.31941C11.6563 1.26623 11.6276 1.211 11.599 1.15578C11.5479 1.05555 11.507 0.95123 11.4804 0.842821C11.4804 0.832594 11.4722 0.824412 11.462 0.822366C11.4579 0.818275 11.4538 0.818275 11.4476 0.820321C11.4456 0.820321 11.4456 0.822366 11.4436 0.822366C11.4415 0.822366 11.4395 0.824412 11.4374 0.826457L11.4395 0.820321C9.44719 1.98623 8.77219 4.14419 8.71082 5.22418C7.91514 5.27941 7.15628 5.57191 6.52832 6.06487C6.46287 6.00964 6.39537 5.9585 6.32378 5.90941C6.14378 5.27737 6.1356 4.6085 6.30128 3.97237C5.56901 4.32623 4.9206 4.82941 4.39287 5.44714H4.38878C4.07378 5.04828 4.09628 3.73509 4.11469 3.461C4.02264 3.49782 3.93264 3.54487 3.85082 3.60214C3.57264 3.80055 3.31491 4.02146 3.0756 4.26487C2.80355 4.541 2.55605 4.83759 2.33514 5.15464C1.82582 5.87669 1.46378 6.69282 1.27151 7.556L1.26332 7.60918C1.23469 7.77282 1.2081 7.9385 1.1856 8.10418C1.1856 8.11032 1.18355 8.11646 1.18355 8.12055C1.11401 8.48055 1.07105 8.84668 1.05469 9.21282V9.25373C1.05878 13.633 4.61173 17.1778 8.98901 17.1758C12.8447 17.1717 16.1399 14.396 16.7945 10.5955C16.8088 10.4933 16.819 10.393 16.8313 10.2887C16.9949 8.93873 16.817 7.57032 16.3179 6.30623ZM7.18082 12.5121C7.21764 12.5305 7.25242 12.549 7.29128 12.5653L7.29741 12.5694C7.25651 12.551 7.21764 12.5326 7.18082 12.5121Z" fill="url(#paint0_linear_32680_69459)"/>
<path d="M16.3179 6.30604C15.9742 5.47763 15.2747 4.58172 14.7265 4.29945C15.1172 5.05626 15.3872 5.86626 15.5304 6.7049V6.71308L15.5324 6.72126C16.144 8.47013 16.0561 10.3867 15.2849 12.0722C14.3767 14.0215 12.1779 16.0199 8.73537 15.9238C5.01469 15.8174 1.73787 13.0581 1.12628 9.44172C1.01378 8.87104 1.12628 8.58263 1.18151 8.11831C1.10582 8.47831 1.06287 8.84445 1.05469 9.21263V9.25354C1.05878 13.6329 4.61173 17.1776 8.98901 17.1735C12.8447 17.1694 16.1399 14.3938 16.7945 10.5933C16.8088 10.491 16.819 10.3908 16.8313 10.2865C16.9949 8.93854 16.817 7.57013 16.3179 6.30604Z" fill="url(#paint1_radial_32680_69459)"/>
<path d="M16.3179 6.30604C15.9742 5.47763 15.2747 4.58172 14.7265 4.29945C15.1172 5.05626 15.3872 5.86626 15.5304 6.7049V6.71308L15.5324 6.72126C16.144 8.47013 16.0561 10.3867 15.2849 12.0722C14.3767 14.0215 12.1779 16.0199 8.73537 15.9238C5.01469 15.8174 1.73787 13.0581 1.12628 9.44172C1.01378 8.87104 1.12628 8.58263 1.18151 8.11831C1.10582 8.47831 1.06287 8.84445 1.05469 9.21263V9.25354C1.05878 13.6329 4.61173 17.1776 8.98901 17.1735C12.8447 17.1694 16.1399 14.3938 16.7945 10.5933C16.8088 10.491 16.819 10.3908 16.8313 10.2865C16.9949 8.93854 16.817 7.57013 16.3179 6.30604Z" fill="url(#paint2_radial_32680_69459)"/>
<path d="M12.4643 7.23882L12.5134 7.27564C12.315 6.92177 12.0655 6.59859 11.7771 6.31632C9.31435 3.8495 11.1328 0.971546 11.4375 0.824274L11.4396 0.820183C9.4473 1.98609 8.7723 4.14405 8.71094 5.22405C8.80298 5.21791 8.89503 5.20973 8.98912 5.20973C10.4291 5.21177 11.7566 5.987 12.4643 7.23882Z" fill="url(#paint3_radial_32680_69459)"/>
<path d="M8.99528 7.72976C8.98301 7.92613 8.28551 8.60726 8.0421 8.60726C5.78801 8.60726 5.42188 9.97158 5.42188 9.97158C5.5221 11.1191 6.32188 12.0661 7.28938 12.5652C7.33438 12.5877 7.37733 12.6082 7.42233 12.6286C7.50006 12.6634 7.57778 12.6941 7.65551 12.7248C7.98688 12.8414 8.3346 12.9089 8.68642 12.9232C12.6382 13.1093 13.4032 8.19817 10.5519 6.77249C11.2248 6.68454 11.906 6.85022 12.4644 7.23681C11.7546 5.98499 10.4291 5.21181 8.99119 5.20772C8.8971 5.20772 8.80506 5.2159 8.71301 5.22204C7.91733 5.27726 7.15847 5.56976 6.53051 6.06272C6.65119 6.16499 6.78824 6.30204 7.0746 6.58431C7.61256 7.11613 8.99324 7.66635 8.99528 7.72976Z" fill="url(#paint4_radial_32680_69459)"/>
<path d="M8.99528 7.72976C8.98301 7.92613 8.28551 8.60726 8.0421 8.60726C5.78801 8.60726 5.42188 9.97158 5.42188 9.97158C5.5221 11.1191 6.32188 12.0661 7.28938 12.5652C7.33438 12.5877 7.37733 12.6082 7.42233 12.6286C7.50006 12.6634 7.57778 12.6941 7.65551 12.7248C7.98688 12.8414 8.3346 12.9089 8.68642 12.9232C12.6382 13.1093 13.4032 8.19817 10.5519 6.77249C11.2248 6.68454 11.906 6.85022 12.4644 7.23681C11.7546 5.98499 10.4291 5.21181 8.99119 5.20772C8.8971 5.20772 8.80506 5.2159 8.71301 5.22204C7.91733 5.27726 7.15847 5.56976 6.53051 6.06272C6.65119 6.16499 6.78824 6.30204 7.0746 6.58431C7.61256 7.11613 8.99324 7.66635 8.99528 7.72976Z" fill="url(#paint5_radial_32680_69459)"/>
<path d="M6.1618 5.8009C6.22521 5.84181 6.27839 5.87658 6.32544 5.9093C6.14544 5.27726 6.13726 4.6084 6.30294 3.97226C5.57067 4.32612 4.92226 4.8293 4.39453 5.44703C4.43544 5.44499 5.58499 5.42453 6.1618 5.8009Z" fill="url(#paint6_radial_32680_69459)"/>
<path d="M1.12756 9.44185C1.73915 13.0562 5.01597 15.8175 8.7346 15.9218C12.1771 16.02 14.376 14.0216 15.2841 12.0703C16.0532 10.3848 16.1412 8.46821 15.5316 6.71935V6.71117C15.5316 6.70503 15.5296 6.70094 15.5316 6.70298L15.5337 6.7173C15.816 8.55412 14.8812 10.3316 13.4207 11.5343L13.4166 11.5446C10.5714 13.8621 7.84892 12.9416 7.29869 12.5673C7.25983 12.5489 7.22097 12.5305 7.18415 12.51C5.52529 11.7164 4.84006 10.2068 4.98733 8.91003C4.18347 8.9223 3.4471 8.45798 3.1096 7.72776C3.99528 7.18571 5.09778 7.14071 6.02438 7.61117C6.96324 8.03662 8.03097 8.07957 9.00051 7.72776C8.99847 7.66435 7.61778 7.11412 7.07983 6.58435C6.79142 6.30003 6.65642 6.16503 6.53574 6.06276C6.47028 6.00753 6.40279 5.95639 6.33119 5.9073C6.28415 5.87457 6.23097 5.8398 6.16756 5.79889C5.58869 5.42253 4.43915 5.44298 4.40029 5.44503H4.39619C4.08119 5.04617 4.10369 3.73298 4.1221 3.45889C4.03006 3.49571 3.94006 3.54276 3.85824 3.60003C3.58006 3.79844 3.32233 4.01935 3.08301 4.2648C2.81097 4.53889 2.56142 4.83548 2.33847 5.15253V5.15457C1.82915 5.87662 1.4671 6.69276 1.27483 7.55594C1.27074 7.5723 0.990512 8.80367 1.12756 9.44185Z" fill="url(#paint7_radial_32680_69459)"/>
<path d="M11.7756 6.31441C12.064 6.59873 12.3135 6.92191 12.5119 7.27578C12.5549 7.3085 12.5958 7.34123 12.6306 7.37396C14.4285 9.03078 13.4856 11.3728 13.416 11.5405C14.8765 10.3378 15.8092 8.55828 15.529 6.72146C14.6331 4.48373 13.1133 3.58373 11.8717 1.62214C11.8083 1.52191 11.7449 1.42168 11.6856 1.31941C11.6549 1.26623 11.6262 1.211 11.5976 1.15578C11.5465 1.05555 11.5056 0.95123 11.479 0.842821C11.479 0.832594 11.4708 0.824412 11.4606 0.822366C11.4565 0.818275 11.4524 0.818275 11.4462 0.820321C11.4442 0.820321 11.4442 0.822366 11.4422 0.822366C11.4401 0.822366 11.4381 0.824412 11.436 0.826457C11.1312 0.971685 9.31284 3.84964 11.7756 6.31441Z" fill="url(#paint8_radial_32680_69459)"/>
<path d="M12.6318 7.37176C12.5929 7.33699 12.5541 7.30426 12.5132 7.27358L12.4641 7.23676C11.9057 6.85017 11.2245 6.68449 10.5516 6.77245C13.4029 8.19813 12.6379 13.1072 8.68611 12.9231C8.33429 12.9088 7.98656 12.8413 7.6552 12.7247C7.57747 12.6961 7.49974 12.6634 7.42202 12.6286C7.37702 12.6081 7.33202 12.5877 7.28906 12.5652L7.2952 12.5693C7.84543 12.9456 10.5679 13.864 13.4132 11.5465L13.4172 11.5363C13.4888 11.3706 14.4297 9.02858 12.6318 7.37176Z" fill="url(#paint9_radial_32680_69459)"/>
<path d="M5.42297 9.97155C5.42297 9.97155 5.7891 8.60723 8.0432 8.60723C8.2866 8.60723 8.98411 7.92609 8.99638 7.72973C8.02683 8.08155 6.95911 8.03859 6.02024 7.61314C5.09365 7.14268 3.99115 7.18768 3.10547 7.72973C3.44297 8.45996 4.17933 8.92223 4.9832 8.912C4.83592 10.2088 5.52115 11.7184 7.18001 12.512C7.21683 12.5304 7.25161 12.5488 7.29047 12.5652C6.32297 12.0661 5.5232 11.119 5.42297 9.97155Z" fill="url(#paint10_radial_32680_69459)"/>
<path d="M16.3179 6.30623C15.9742 5.47782 15.2747 4.58191 14.7265 4.29964C15.1172 5.05646 15.3872 5.86646 15.5304 6.70509L15.5324 6.71941C14.6345 4.48373 13.1147 3.58373 11.8731 1.62214C11.8097 1.52191 11.7463 1.42168 11.687 1.31941C11.6563 1.26623 11.6276 1.211 11.599 1.15578C11.5479 1.05555 11.507 0.95123 11.4804 0.842821C11.4804 0.832594 11.4722 0.824412 11.462 0.822366C11.4579 0.818275 11.4538 0.818275 11.4476 0.820321C11.4456 0.820321 11.4456 0.822366 11.4436 0.822366C11.4415 0.822366 11.4395 0.824412 11.4374 0.826457L11.4395 0.820321C9.44719 1.98623 8.77219 4.14419 8.71082 5.22418C8.80287 5.21805 8.89492 5.20987 8.98901 5.20987C10.427 5.21191 11.7545 5.98714 12.4622 7.23896C11.9038 6.85237 11.2226 6.68669 10.5497 6.77464C13.4011 8.20032 12.6361 13.1094 8.68423 12.9253C8.33241 12.911 7.98469 12.8435 7.65332 12.7269C7.5756 12.6983 7.49787 12.6655 7.42014 12.6308C7.37514 12.6103 7.33014 12.5899 7.28719 12.5674L7.29332 12.5715C7.25446 12.553 7.2156 12.5346 7.17878 12.5142C7.2156 12.5326 7.25037 12.551 7.28923 12.5674C6.32173 12.0662 5.52196 11.1212 5.42173 9.97373C5.42173 9.97373 5.78787 8.60941 8.04196 8.60941C8.28537 8.60941 8.98287 7.92828 8.99514 7.73191C8.9931 7.6685 7.61241 7.11828 7.07446 6.5885C6.78605 6.30418 6.65105 6.16918 6.53037 6.06691C6.46491 6.01168 6.39741 5.96055 6.32582 5.91146C6.14582 5.27941 6.13764 4.61055 6.30332 3.97441C5.57105 4.32828 4.92264 4.83146 4.39491 5.44918H4.39082C4.07582 5.05032 4.09832 3.73714 4.11673 3.46305C4.02469 3.49987 3.93469 3.54691 3.85287 3.60418C3.57469 3.80259 3.31696 4.0235 3.07764 4.26691C2.8056 4.54305 2.5581 4.83964 2.33719 5.15668V5.15873V5.15464C1.82787 5.87669 1.46582 6.69282 1.27355 7.556L1.26332 7.60918C1.24901 7.67873 1.18151 8.03259 1.17128 8.10828C1.17128 8.10214 1.17128 8.11441 1.17128 8.10828C1.10991 8.47441 1.07105 8.84259 1.05469 9.21282V9.25373C1.05878 13.633 4.61173 17.1778 8.98901 17.1758C12.8447 17.1717 16.1399 14.396 16.7945 10.5955C16.8088 10.4933 16.819 10.393 16.8313 10.2887C16.9949 8.93873 16.817 7.57032 16.3179 6.30623Z" fill="url(#paint11_linear_32680_69459)"/>
<defs>
<linearGradient id="paint0_linear_32680_69459" x1="15.2667" y1="3.35212" x2="2.10644" y2="16.0493" gradientUnits="userSpaceOnUse">
<stop offset="0.048" stop-color="#FFF44F"/>
<stop offset="0.111" stop-color="#FFE847"/>
<stop offset="0.225" stop-color="#FFC830"/>
<stop offset="0.368" stop-color="#FF980E"/>
<stop offset="0.401" stop-color="#FF8B16"/>
<stop offset="0.462" stop-color="#FF672A"/>
<stop offset="0.534" stop-color="#FF3647"/>
<stop offset="0.705" stop-color="#E31587"/>
</linearGradient>
<radialGradient id="paint1_radial_32680_69459" cx="0" cy="0" r="1" gradientUnits="userSpaceOnUse" gradientTransform="translate(14.6596 2.63422) scale(16.5267)">
<stop offset="0.129" stop-color="#FFBD4F"/>
<stop offset="0.186" stop-color="#FFAC31"/>
<stop offset="0.247" stop-color="#FF9D17"/>
<stop offset="0.283" stop-color="#FF980E"/>
<stop offset="0.403" stop-color="#FF563B"/>
<stop offset="0.467" stop-color="#FF3750"/>
<stop offset="0.71" stop-color="#F5156C"/>
<stop offset="0.782" stop-color="#EB0878"/>
<stop offset="0.86" stop-color="#E50080"/>
</radialGradient>
<radialGradient id="paint2_radial_32680_69459" cx="0" cy="0" r="1" gradientUnits="userSpaceOnUse" gradientTransform="translate(8.62064 9.39081) scale(16.5267)">
<stop offset="0.3" stop-color="#960E18"/>
<stop offset="0.351" stop-color="#B11927" stop-opacity="0.74"/>
<stop offset="0.435" stop-color="#DB293D" stop-opacity="0.343"/>
<stop offset="0.497" stop-color="#F5334B" stop-opacity="0.094"/>
<stop offset="0.53" stop-color="#FF3750" stop-opacity="0"/>
</radialGradient>
<radialGradient id="paint3_radial_32680_69459" cx="0" cy="0" r="1" gradientUnits="userSpaceOnUse" gradientTransform="translate(10.6133 -1.11625) scale(11.9724)">
<stop offset="0.132" stop-color="#FFF44F"/>
<stop offset="0.252" stop-color="#FFDC3E"/>
<stop offset="0.506" stop-color="#FF9D12"/>
<stop offset="0.526" stop-color="#FF980E"/>
</radialGradient>
<radialGradient id="paint4_radial_32680_69459" cx="0" cy="0" r="1" gradientUnits="userSpaceOnUse" gradientTransform="translate(6.79276 13.7077) scale(7.86907)">
<stop offset="0.353" stop-color="#3A8EE6"/>
<stop offset="0.472" stop-color="#5C79F0"/>
<stop offset="0.669" stop-color="#9059FF"/>
<stop offset="1" stop-color="#C139E6"/>
</radialGradient>
<radialGradient id="paint5_radial_32680_69459" cx="0" cy="0" r="1" gradientTransform="matrix(4.05529 -0.980447 -1.14733 -4.74787 9.52382 8.03648)" gradientUnits="userSpaceOnUse">
<stop offset="0.206" stop-color="#9059FF" stop-opacity="0"/>
<stop offset="0.278" stop-color="#8C4FF3" stop-opacity="0.064"/>
<stop offset="0.747" stop-color="#7716A8" stop-opacity="0.45"/>
<stop offset="0.975" stop-color="#6E008B" stop-opacity="0.6"/>
</radialGradient>
<radialGradient id="paint6_radial_32680_69459" cx="0" cy="0" r="1" gradientUnits="userSpaceOnUse" gradientTransform="translate(8.41364 1.95814) scale(5.661)">
<stop stop-color="#FFE226"/>
<stop offset="0.121" stop-color="#FFDB27"/>
<stop offset="0.295" stop-color="#FFC82A"/>
<stop offset="0.502" stop-color="#FFA930"/>
<stop offset="0.732" stop-color="#FF7E37"/>
<stop offset="0.792" stop-color="#FF7139"/>
</radialGradient>
<radialGradient id="paint7_radial_32680_69459" cx="0" cy="0" r="1" gradientUnits="userSpaceOnUse" gradientTransform="translate(12.8629 -1.63253) scale(24.1529 24.1529)">
<stop offset="0.113" stop-color="#FFF44F"/>
<stop offset="0.456" stop-color="#FF980E"/>
<stop offset="0.622" stop-color="#FF5634"/>
<stop offset="0.716" stop-color="#FF3647"/>
<stop offset="0.904" stop-color="#E31587"/>
</radialGradient>
<radialGradient id="paint8_radial_32680_69459" cx="0" cy="0" r="1" gradientTransform="matrix(1.85776 17.6045 11.5535 -1.22082 10.8246 -0.289402)" gradientUnits="userSpaceOnUse">
<stop stop-color="#FFF44F"/>
<stop offset="0.06" stop-color="#FFE847"/>
<stop offset="0.168" stop-color="#FFC830"/>
<stop offset="0.304" stop-color="#FF980E"/>
<stop offset="0.356" stop-color="#FF8B16"/>
<stop offset="0.455" stop-color="#FF672A"/>
<stop offset="0.57" stop-color="#FF3647"/>
<stop offset="0.737" stop-color="#E31587"/>
</radialGradient>
<radialGradient id="paint9_radial_32680_69459" cx="0" cy="0" r="1" gradientUnits="userSpaceOnUse" gradientTransform="translate(8.27849 4.0549) scale(15.0791 15.0791)">
<stop offset="0.137" stop-color="#FFF44F"/>
<stop offset="0.48" stop-color="#FF980E"/>
<stop offset="0.592" stop-color="#FF5634"/>
<stop offset="0.655" stop-color="#FF3647"/>
<stop offset="0.904" stop-color="#E31587"/>
</radialGradient>
<radialGradient id="paint10_radial_32680_69459" cx="0" cy="0" r="1" gradientUnits="userSpaceOnUse" gradientTransform="translate(12.2603 4.93742) scale(16.504 16.504)">
<stop offset="0.094" stop-color="#FFF44F"/>
<stop offset="0.231" stop-color="#FFE141"/>
<stop offset="0.509" stop-color="#FFAF1E"/>
<stop offset="0.626" stop-color="#FF980E"/>
</radialGradient>
<linearGradient id="paint11_linear_32680_69459" x1="15.1087" y1="3.28442" x2="3.91069" y2="14.4823" gradientUnits="userSpaceOnUse">
<stop offset="0.167" stop-color="#FFF44F" stop-opacity="0.8"/>
<stop offset="0.266" stop-color="#FFF44F" stop-opacity="0.634"/>
<stop offset="0.489" stop-color="#FFF44F" stop-opacity="0.217"/>
<stop offset="0.6" stop-color="#FFF44F" stop-opacity="0"/>
</linearGradient>
</defs>
</svg>
