<svg width="48" height="48" viewBox="0 0 48 48" fill="none" xmlns="http://www.w3.org/2000/svg">
<g clip-path="url(#clip0_32624_42307)">
<circle cx="24" cy="24" r="24" fill="white"/>
<circle cx="24" cy="24" r="23.4" stroke="black" stroke-opacity="0.1" stroke-width="1.2"/>
<g clip-path="url(#clip1_32624_42307)">
<path fill-rule="evenodd" clip-rule="evenodd" d="M21 13.2C25.5324 13.2 29.5788 16.242 29.9688 20.4744C29.5812 20.4249 29.1908 20.4 28.8 20.4C24.5604 20.4 20.4 23.3676 20.4 27.8508C20.4 28.2756 20.4372 28.6872 20.508 29.0832C20.1358 29.0659 19.7649 29.0283 19.3968 28.9704C18.5928 29.6292 17.6652 30 16.6248 30C16.0032 30 15.5004 29.4792 15.5004 28.836L15.5052 28.5996L15.5256 28.1232C15.5371 27.8853 15.5149 27.6469 15.4596 27.4152C13.404 26.0004 12 23.7528 12 21.1488C12 16.5684 16.23 13.2 21 13.2ZM18 16.8C17.6817 16.8 17.3765 16.9264 17.1515 17.1515C16.9264 17.3765 16.8 17.6818 16.8 18C16.8 18.3183 16.9264 18.6235 17.1515 18.8485C17.3765 19.0736 17.6817 19.2 18 19.2C18.3183 19.2 18.6235 19.0736 18.8485 18.8485C19.0736 18.6235 19.2 18.3183 19.2 18C19.2 17.6818 19.0736 17.3765 18.8485 17.1515C18.6235 16.9264 18.3183 16.8 18 16.8ZM24 16.8C23.6817 16.8 23.3765 16.9264 23.1515 17.1515C22.9264 17.3765 22.8 17.6818 22.8 18C22.8 18.3183 22.9264 18.6235 23.1515 18.8485C23.3765 19.0736 23.6817 19.2 24 19.2C24.3183 19.2 24.6235 19.0736 24.8485 18.8485C25.0736 18.6235 25.2 18.3183 25.2 18C25.2 17.6818 25.0736 17.3765 24.8485 17.1515C24.6235 16.9264 24.3183 16.8 24 16.8Z" fill="#2FCA69"/>
<path fill-rule="evenodd" clip-rule="evenodd" d="M28.8001 21.6C32.5849 21.6 36.0001 24.2232 36.0001 27.8556C36.0001 29.8908 34.8961 31.6392 33.2881 32.7516C33.2353 33.0696 33.2785 33.39 33.2785 33.7104C33.2801 33.9976 33.1676 34.2736 32.9658 34.4779C32.764 34.6822 32.4893 34.7981 32.2021 34.8C31.3861 34.8 30.6301 34.5312 29.9905 34.026C29.6029 34.0824 29.2045 34.1112 28.8001 34.1112C25.0153 34.1112 21.6001 31.488 21.6001 27.8556C21.6001 24.2232 25.0153 21.6 28.8001 21.6ZM26.4001 25.2C26.0818 25.2 25.7766 25.3264 25.5516 25.5514C25.3265 25.7765 25.2001 26.0817 25.2001 26.4C25.2001 26.7182 25.3265 27.0235 25.5516 27.2485C25.7766 27.4735 26.0818 27.6 26.4001 27.6C26.7184 27.6 27.0236 27.4735 27.2486 27.2485C27.4737 27.0235 27.6001 26.7182 27.6001 26.4C27.6001 26.0817 27.4737 25.7765 27.2486 25.5514C27.0236 25.3264 26.7184 25.2 26.4001 25.2ZM31.2001 25.2C30.8818 25.2 30.5766 25.3264 30.3516 25.5514C30.1265 25.7765 30.0001 26.0817 30.0001 26.4C30.0001 26.7182 30.1265 27.0235 30.3516 27.2485C30.5766 27.4735 30.8818 27.6 31.2001 27.6C31.5184 27.6 31.8236 27.4735 32.0486 27.2485C32.2737 27.0235 32.4001 26.7182 32.4001 26.4C32.4001 26.0817 32.2737 25.7765 32.0486 25.5514C31.8236 25.3264 31.5184 25.2 31.2001 25.2Z" fill="#96E5B4"/>
</g>
</g>
<defs>
<clipPath id="clip0_32624_42307">
<rect width="48" height="48" fill="white"/>
</clipPath>
<clipPath id="clip1_32624_42307">
<rect width="24" height="24" fill="white" transform="translate(12 12)"/>
</clipPath>
</defs>
</svg>
