<svg width="18" height="18" viewBox="0 0 18 18" fill="none" xmlns="http://www.w3.org/2000/svg">
<path d="M17.18 9C17.18 13.5187 13.5169 17.1818 8.99822 17.1818C4.47953 17.1818 0.816406 13.5187 0.816406 9C0.816406 4.48131 4.47953 0.818184 8.99822 0.818184C13.5169 0.818184 17.18 4.48131 17.18 9Z" fill="#E23A2E"/>
<path d="M9.07218 17.1815C13.5568 17.1418 17.18 13.494 17.18 9C17.18 7.46289 16.7562 6.02479 16.0189 4.79619H8.9641L12.7535 10.8959L9.07218 17.1815Z" fill="#FCC31C"/>
<path d="M0.816406 9C0.816406 13.5187 4.47953 17.1818 8.99822 17.1818C9.02307 17.1818 9.04789 17.1817 9.07268 17.1815L12.4234 11.3779H5.53658L1.85677 5.00427C1.19419 6.18595 0.816406 7.54886 0.816406 9Z" fill="#249544"/>
<path d="M13.2031 9.00002C13.2031 11.3223 11.3205 13.2049 8.99822 13.2049C6.67594 13.2049 4.79335 11.3223 4.79335 9.00002C4.79335 6.67774 6.67594 4.79515 8.99822 4.79515C11.3205 4.79515 13.2031 6.67774 13.2031 9.00002Z" fill="white"/>
<path d="M12.2905 9C12.2905 10.8183 10.8165 12.2923 8.99822 12.2923C7.17995 12.2923 5.70595 10.8183 5.70595 9C5.70595 7.18173 7.17995 5.70772 8.99822 5.70772C10.8165 5.70772 12.2905 7.18173 12.2905 9Z" fill="#1A73E8"/>
</svg>
