<svg width="28" height="28" viewBox="0 0 28 28" fill="none" xmlns="http://www.w3.org/2000/svg">
<path d="M5.68725 14.721C5.69181 14.7209 5.69639 14.7207 5.70089 14.7208C5.76628 14.7216 5.8251 14.7303 5.86899 14.7838C5.8948 14.8152 5.90207 14.8542 5.89537 14.8937C5.88314 14.9659 5.83436 14.9975 5.77999 15.0391C5.7247 15.0362 5.66382 15.0286 5.62495 14.9837C5.59457 14.9485 5.58589 14.9203 5.58826 14.8741C5.59187 14.8039 5.63827 14.7636 5.68725 14.721Z" fill="#D01E25"/>
<path d="M7.35528 16.307C7.35942 16.3072 7.36365 16.307 7.36771 16.3074C7.43019 16.3125 7.49682 16.3328 7.53385 16.3873C7.55685 16.4213 7.56117 16.4658 7.5511 16.505C7.53335 16.574 7.48651 16.6043 7.43036 16.6406C7.41328 16.6406 7.40297 16.6411 7.38513 16.6386C7.33566 16.6313 7.29381 16.6131 7.2621 16.5724C7.23141 16.5328 7.22236 16.4846 7.23505 16.4357C7.25272 16.3675 7.29897 16.3408 7.35528 16.307Z" fill="#D01E25"/>
<path d="M8.80588 9.58311C8.82158 9.58324 8.83092 9.58273 8.84577 9.58424C8.90357 9.59028 8.96586 9.6211 9.00056 9.6684C9.03061 9.70954 9.03646 9.75395 9.0263 9.80288C9.01233 9.87019 8.95506 9.90579 8.90042 9.93799C8.87783 9.939 8.85459 9.94076 8.83207 9.93787C8.77653 9.9307 8.71887 9.90214 8.69022 9.85258C8.66834 9.81458 8.66667 9.77194 8.6771 9.7303C8.69602 9.65469 8.74307 9.62337 8.80588 9.58311Z" fill="#F6BE43"/>
<path d="M19.9439 8.40709C20.0099 8.40477 20.0755 8.40695 20.1234 8.46155C20.152 8.49418 20.1606 8.53567 20.1549 8.57771C20.1423 8.66848 20.0882 8.7168 20.0173 8.76757C19.9967 8.76826 19.976 8.76908 19.9553 8.76812C19.9054 8.76594 19.8587 8.74464 19.8275 8.70424C19.7977 8.66575 19.7936 8.61675 19.804 8.57075C19.8228 8.48762 19.8752 8.45091 19.9439 8.40709Z" fill="#D01E25"/>
<path d="M19.5806 11.7196C19.6092 11.7189 19.6383 11.717 19.6666 11.723C19.7123 11.7327 19.7573 11.7588 19.78 11.8011C19.7978 11.8344 19.7992 11.8733 19.791 11.9094C19.7727 11.9901 19.7175 12.0363 19.6523 12.0809C19.6349 12.0825 19.6175 12.084 19.6 12.084C19.5522 12.0837 19.4956 12.0652 19.4641 12.0277C19.4361 11.9942 19.4318 11.9533 19.4381 11.9117C19.4521 11.8195 19.5106 11.7738 19.5806 11.7196Z" fill="#D01E25"/>
<path d="M20.32 16.0107C20.3312 16.0104 20.3425 16.0101 20.3537 16.0104C20.4159 16.0115 20.4741 16.0305 20.5148 16.0803C20.5406 16.1121 20.5474 16.1541 20.541 16.1939C20.5274 16.2791 20.4676 16.3241 20.3999 16.3688C20.3731 16.3725 20.3447 16.377 20.3175 16.3758C20.2755 16.3741 20.2319 16.3492 20.2058 16.3166C20.1737 16.2767 20.1718 16.2219 20.1829 16.174C20.2019 16.0908 20.2511 16.0546 20.32 16.0107Z" fill="#D01E25"/>
<path d="M21.953 20.4093C21.9722 20.4105 21.9914 20.4117 22.0104 20.4145C22.0592 20.4216 22.1091 20.4486 22.1356 20.4915C22.162 20.5346 22.1579 20.5846 22.1417 20.6303C22.1118 20.7149 22.0518 20.7473 21.9755 20.7866C21.9475 20.7877 21.9167 20.7901 21.8892 20.7846C21.8523 20.7772 21.8136 20.7479 21.7959 20.7152C21.7742 20.6752 21.7779 20.6304 21.7901 20.5883C21.8164 20.4974 21.8745 20.4551 21.953 20.4093Z" fill="#D01E25"/>
<path d="M22.4853 17.1246C22.5057 17.1242 22.5197 17.1237 22.5407 17.1256C22.6059 17.1316 22.6635 17.1601 22.7019 17.2142C22.7326 17.2575 22.7366 17.3089 22.7276 17.3599C22.7108 17.4561 22.6496 17.5001 22.5735 17.5527C22.5557 17.5526 22.5391 17.5507 22.5215 17.5468C22.4536 17.5314 22.3925 17.5005 22.3563 17.4384C22.3301 17.3934 22.3249 17.3393 22.3379 17.2893C22.3601 17.2038 22.4137 17.169 22.4853 17.1246Z" fill="#F6BE43"/>
<path d="M25.2361 19.7983C25.2667 19.8 25.2982 19.8016 25.3278 19.8102C25.3349 19.8123 25.342 19.8147 25.3489 19.8176C25.3558 19.8205 25.3626 19.8236 25.3692 19.8272C25.3758 19.8308 25.3822 19.8347 25.3883 19.8389C25.3944 19.8432 25.4003 19.8478 25.4061 19.8526C25.4117 19.8575 25.4171 19.8628 25.4221 19.8682C25.4272 19.8737 25.4321 19.8794 25.4365 19.8854C25.4411 19.8914 25.4452 19.8976 25.449 19.904C25.4528 19.9104 25.4563 19.9171 25.4594 19.9239C25.4842 19.9778 25.4815 20.0393 25.4572 20.0928C25.4237 20.1661 25.3667 20.1946 25.2949 20.2232C25.2621 20.2237 25.2254 20.2256 25.1941 20.2145C25.141 20.1957 25.0915 20.1476 25.07 20.0958C25.0473 20.0412 25.0505 19.9774 25.0752 19.9241C25.1087 19.8521 25.1652 19.8252 25.2361 19.7983Z" fill="white"/>
<path d="M22.0921 9.49032C22.1288 9.49017 22.1668 9.48897 22.2032 9.49392C22.261 9.50189 22.3199 9.54591 22.3534 9.59219C22.3899 9.64238 22.4039 9.70323 22.3898 9.76409C22.3692 9.85304 22.3133 9.89677 22.2394 9.9432C22.2017 9.9468 22.1615 9.95146 22.1235 9.948C22.0696 9.94305 22.009 9.89797 21.979 9.85379C21.9446 9.80346 21.934 9.7387 21.9464 9.67949C21.9659 9.58618 22.0143 9.54005 22.0921 9.49032Z" fill="white"/>
<path d="M17.6571 4.60386C17.6953 4.60198 17.7347 4.59917 17.7728 4.60183C17.8313 4.60589 17.8904 4.6403 17.9275 4.68471C17.9661 4.73131 17.9789 4.78682 17.9688 4.84578C17.9527 4.93898 17.8931 4.99042 17.8193 5.04187C17.7757 5.04422 17.7219 5.05032 17.6792 5.04047C17.6221 5.02749 17.5671 4.97948 17.5356 4.93163C17.5036 4.88284 17.4937 4.82529 17.509 4.76868C17.5316 4.68612 17.5872 4.6464 17.6571 4.60386Z" fill="white"/>
<path d="M7.46907 7.2132C7.50453 7.21377 7.54109 7.21461 7.57559 7.22401C7.63588 7.24071 7.69143 7.28253 7.72097 7.33797C7.75089 7.39411 7.75064 7.4574 7.73095 7.51705C7.70236 7.60392 7.63866 7.63872 7.56085 7.67676C7.52681 7.67662 7.49064 7.67774 7.45717 7.671C7.39847 7.65908 7.34235 7.61571 7.31211 7.56476C7.27973 7.51017 7.27574 7.4466 7.29421 7.38653C7.32279 7.29348 7.38605 7.25432 7.46907 7.2132Z" fill="white"/>
<path d="M4.37229 20.6322C4.41618 20.6294 4.46065 20.6262 4.50409 20.6348C4.58531 20.651 4.66215 20.7023 4.70637 20.7726C4.71171 20.7809 4.71647 20.7895 4.72085 20.7984C4.72516 20.8072 4.72902 20.8163 4.73243 20.8255C4.73578 20.8348 4.73867 20.8442 4.74105 20.8537C4.74337 20.8633 4.74524 20.873 4.74652 20.8828C4.74788 20.8925 4.74865 20.9023 4.74897 20.9122C4.74923 20.922 4.74891 20.9319 4.74813 20.9417C4.74736 20.9515 4.74601 20.9613 4.74414 20.9709C4.74234 20.9807 4.73996 20.9902 4.73713 20.9996C4.70373 21.1112 4.62547 21.1623 4.5263 21.2118C4.47494 21.2164 4.42551 21.219 4.37461 21.2087C4.2943 21.1924 4.22083 21.1473 4.17966 21.0753C4.14315 21.0113 4.13812 20.9358 4.15798 20.8657C4.19113 20.7489 4.27019 20.6885 4.37229 20.6322Z" fill="#EC8715"/>
<path d="M10.1959 5.81668C10.2625 5.81966 10.3276 5.83172 10.3871 5.86284C10.4702 5.90633 10.5336 5.98018 10.5587 6.07102C10.5841 6.16334 10.5709 6.25745 10.5211 6.33905C10.4571 6.44388 10.3678 6.48543 10.2531 6.51655C10.1781 6.51774 10.096 6.49809 10.0317 6.45892C10.0219 6.45297 10.0124 6.44641 10.0032 6.43956C9.99398 6.43272 9.98517 6.42527 9.97674 6.41753C9.96825 6.40963 9.96027 6.40145 9.9526 6.39281C9.94501 6.38417 9.93787 6.37509 9.93117 6.36571C9.92455 6.35633 9.91831 6.3468 9.91265 6.33667C9.90691 6.32669 9.90176 6.31642 9.89713 6.30599C9.89243 6.29542 9.88832 6.28455 9.88477 6.27368C9.88124 6.26281 9.87821 6.25164 9.87582 6.24047C9.87332 6.22901 9.87146 6.21739 9.87016 6.20563C9.86888 6.19402 9.86824 6.1824 9.86817 6.17064C9.86811 6.15887 9.86862 6.14711 9.86972 6.13549C9.87088 6.12373 9.87261 6.11227 9.87493 6.10065C9.87731 6.08919 9.8802 6.07787 9.88368 6.0667C9.88723 6.05538 9.89128 6.04451 9.89591 6.03364C9.90054 6.02292 9.90569 6.01235 9.91141 6.00207C9.91709 5.9918 9.92332 5.98197 9.93008 5.97229C9.99772 5.87476 10.0828 5.83783 10.1959 5.81668Z" fill="#EC8715"/>
<path d="M4.16438 17.6642C4.22899 17.6596 4.29067 17.6559 4.35359 17.6745C4.44646 17.7021 4.52819 17.7616 4.57414 17.8479C4.57916 17.8574 4.58367 17.8671 4.58772 17.8771C4.59178 17.887 4.59532 17.897 4.59834 17.9073C4.60136 17.9176 4.60387 17.928 4.60587 17.9385C4.60786 17.9491 4.60934 17.9597 4.61031 17.9704C4.61121 17.981 4.61159 17.9918 4.61147 18.0025C4.61134 18.0132 4.61069 18.0239 4.60953 18.0345C4.60831 18.0452 4.60657 18.0558 4.60432 18.0662C4.60207 18.0768 4.5993 18.0871 4.59602 18.0973C4.55554 18.2231 4.47007 18.2885 4.3552 18.3433C4.27371 18.3569 4.18899 18.356 4.11216 18.3228C4.02548 18.2854 3.95601 18.217 3.92147 18.1287C3.91748 18.1185 3.91399 18.1082 3.91101 18.0976C3.90801 18.0871 3.90555 18.0765 3.90363 18.0657C3.90169 18.0549 3.90032 18.044 3.89947 18.0331C3.89862 18.0222 3.89829 18.0113 3.8985 18.0003C3.89874 17.9894 3.8995 17.9784 3.90079 17.9676C3.90209 17.9568 3.90392 17.9459 3.9063 17.9353C3.90865 17.9246 3.91152 17.9141 3.91494 17.9037C3.91833 17.8932 3.92224 17.883 3.92666 17.873C3.97449 17.7646 4.05836 17.7082 4.16438 17.6642Z" fill="#A4DBCB"/>
<path d="M21.702 12.4004C21.7565 12.4045 21.8166 12.4062 21.8683 12.4249C21.9578 12.4574 22.0367 12.526 22.0764 12.6129C22.0813 12.6233 22.0854 12.634 22.0891 12.645C22.0928 12.656 22.096 12.667 22.0986 12.6783C22.1012 12.6895 22.1032 12.7008 22.1046 12.7123C22.1061 12.7237 22.1069 12.7351 22.1071 12.7467C22.1074 12.7583 22.1071 12.7697 22.1062 12.7813C22.1053 12.7927 22.1038 12.8041 22.1018 12.8154C22.0997 12.8268 22.097 12.8381 22.0939 12.8491C22.0906 12.8602 22.0869 12.8711 22.0826 12.8818C22.0287 13.0145 21.9251 13.077 21.7973 13.1264C21.7269 13.1332 21.6545 13.117 21.5925 13.0836C21.5076 13.0378 21.4466 12.9555 21.4207 12.8632C21.4175 12.8513 21.4148 12.8393 21.4127 12.8271C21.4105 12.8151 21.409 12.8028 21.4081 12.7906C21.4072 12.7783 21.4071 12.766 21.4074 12.7537C21.4077 12.7413 21.4087 12.729 21.4102 12.7169C21.4118 12.7045 21.4139 12.6925 21.4167 12.6805C21.4195 12.6685 21.423 12.6566 21.427 12.6449C21.4308 12.6333 21.4354 12.6219 21.4405 12.6106C21.4455 12.5994 21.4512 12.5885 21.4574 12.5778C21.5129 12.4829 21.5977 12.4281 21.702 12.4004Z" fill="#EBA425"/>
<path d="M6.99333 11.0179C7.05666 11.0131 7.12662 11.0042 7.18801 11.0241C7.28338 11.0552 7.36505 11.1252 7.40586 11.2172C7.41075 11.2281 7.41512 11.2392 7.41892 11.2505C7.42272 11.2618 7.42594 11.2733 7.42851 11.285C7.43115 11.2966 7.43321 11.3084 7.43463 11.3202C7.43604 11.3321 7.43687 11.344 7.43707 11.356C7.43726 11.3679 7.43687 11.3797 7.43591 11.3917C7.43488 11.4036 7.43334 11.4154 7.43109 11.4271C7.4289 11.4389 7.42612 11.4504 7.42272 11.4619C7.41937 11.4734 7.41545 11.4846 7.41088 11.4956C7.36268 11.6137 7.27643 11.6705 7.1642 11.7207C7.11066 11.7241 7.05581 11.7293 7.0033 11.7159C6.90297 11.6902 6.8141 11.6241 6.7648 11.5326C6.75927 11.5223 6.75425 11.5118 6.74981 11.501C6.74536 11.4903 6.74144 11.4793 6.73809 11.468C6.73475 11.4569 6.73198 11.4455 6.72979 11.4341C6.7276 11.4226 6.72599 11.4111 6.72496 11.3994C6.72393 11.3878 6.72349 11.3761 6.72367 11.3645C6.7238 11.3528 6.72458 11.3412 6.72586 11.3295C6.72722 11.318 6.72914 11.3066 6.73166 11.2951C6.73417 11.2837 6.73726 11.2725 6.74092 11.2614C6.7843 11.1314 6.87446 11.0727 6.99333 11.0179Z" fill="#A4DBCB"/>
<path d="M18.3643 5.87936C18.4406 5.87668 18.5243 5.88441 18.5928 5.92035C18.6034 5.92585 18.6138 5.93194 18.6241 5.93862C18.6342 5.94531 18.644 5.95244 18.6534 5.96001C18.6627 5.96774 18.6716 5.9759 18.6802 5.98452C18.6887 5.99299 18.6967 6.00205 18.7043 6.01155C18.7119 6.02091 18.719 6.03086 18.7255 6.04096C18.7321 6.05121 18.738 6.06161 18.7435 6.07246C18.7489 6.0833 18.7538 6.09429 18.7581 6.10573C18.7624 6.11702 18.7661 6.12845 18.7691 6.14019C18.7722 6.15207 18.7746 6.16381 18.7765 6.17569C18.7783 6.18772 18.7796 6.19975 18.7802 6.21193C18.7808 6.22396 18.7809 6.236 18.7804 6.24818C18.7798 6.26021 18.7786 6.27224 18.7768 6.28427C18.775 6.2963 18.7726 6.30819 18.7697 6.31992C18.7667 6.33166 18.7633 6.34324 18.7591 6.35453C18.755 6.36597 18.7504 6.37711 18.745 6.3881C18.7398 6.39894 18.734 6.40964 18.7276 6.41989C18.6639 6.5255 18.5806 6.56843 18.465 6.60006C18.3698 6.60333 18.2887 6.59219 18.2068 6.53976C18.1965 6.53307 18.1865 6.52594 18.177 6.51837C18.1673 6.51079 18.1581 6.50277 18.1495 6.49416C18.1407 6.48569 18.1323 6.47678 18.1244 6.46742C18.1167 6.45791 18.1093 6.44826 18.1024 6.43816C18.0954 6.42791 18.0892 6.41751 18.0834 6.40682C18.0776 6.39597 18.0723 6.38498 18.0675 6.37369C18.0629 6.3624 18.0588 6.35082 18.0552 6.33923C18.0518 6.3275 18.0488 6.31561 18.0464 6.30358C18.0442 6.292 18.0426 6.28041 18.0415 6.26868C18.0405 6.25694 18.04 6.24506 18.04 6.23332C18.04 6.22144 18.0408 6.20985 18.042 6.19812C18.0433 6.18624 18.0452 6.17465 18.0476 6.16306C18.05 6.15163 18.053 6.14019 18.0565 6.1289C18.0601 6.11776 18.0641 6.10662 18.0689 6.09578C18.0735 6.08493 18.0787 6.07439 18.0843 6.06414C18.0899 6.05374 18.0962 6.04379 18.1029 6.03398C18.1688 5.93951 18.255 5.90193 18.3643 5.87936Z" fill="#A4DBCB"/>
<path d="M23.5363 21.2801C23.6099 21.2874 23.673 21.2986 23.7371 21.337C23.8319 21.3937 23.8983 21.4836 23.9208 21.5922C23.9236 21.6054 23.9256 21.6187 23.9269 21.632C23.9284 21.6454 23.929 21.6588 23.929 21.6723C23.929 21.6857 23.9284 21.6991 23.9269 21.7125C23.9255 21.7259 23.9234 21.7392 23.9207 21.7523C23.918 21.7655 23.9145 21.7785 23.9103 21.7913C23.9063 21.8041 23.9015 21.8167 23.8963 21.829C23.8908 21.8413 23.8848 21.8534 23.8782 21.8651C23.8717 21.8768 23.8645 21.8882 23.8567 21.8991C23.7713 22.0198 23.6683 22.0542 23.5301 22.0762C23.4511 22.065 23.3785 22.0567 23.3097 22.0122C23.2985 22.005 23.2877 21.9972 23.2771 21.9889C23.2666 21.9805 23.2567 21.9717 23.2471 21.9623C23.2375 21.953 23.2284 21.9432 23.2198 21.9329C23.2114 21.9226 23.2034 21.9118 23.196 21.9007C23.1887 21.8895 23.1818 21.878 23.1756 21.8662C23.1694 21.8543 23.1636 21.8422 23.1587 21.8297C23.1537 21.8173 23.1494 21.8047 23.1459 21.7918C23.1423 21.7789 23.1392 21.7659 23.137 21.7527C23.1346 21.7393 23.1328 21.7259 23.1319 21.7124C23.1309 21.6989 23.1306 21.6854 23.1311 21.6718C23.1314 21.6583 23.1325 21.6448 23.1343 21.6314C23.1362 21.618 23.1386 21.6046 23.1418 21.5915C23.145 21.5783 23.1488 21.5654 23.1534 21.5526C23.1579 21.5398 23.163 21.5273 23.1689 21.5151C23.1747 21.5028 23.181 21.491 23.1882 21.4794C23.1952 21.4678 23.2029 21.4567 23.211 21.4459C23.2944 21.3381 23.4064 21.3004 23.5363 21.2801Z" fill="#A4DBCB"/>
<path d="M23.5272 14.6078C23.5593 14.6102 23.6173 14.6115 23.6382 14.64C23.7062 14.7332 23.6448 15.0026 23.6249 15.1143C23.6986 15.0174 23.8221 14.81 23.9349 14.7647C23.9559 14.7562 23.9728 14.7607 23.9906 14.7755C24.0234 14.8027 24.0297 14.8226 24.0363 14.8615C23.9656 14.9762 23.8331 15.0743 23.7431 15.1791C23.9084 15.1638 24.0984 15.1301 24.2461 15.2246L24.2509 15.2717C24.2475 15.2748 24.2445 15.2783 24.2407 15.281C24.1147 15.3757 23.841 15.3151 23.6954 15.2974C23.8027 15.3869 24.0194 15.5334 24.0368 15.6773C24.0407 15.7091 24.0363 15.7051 24.0186 15.7282C24.0029 15.7292 23.9945 15.7306 23.9778 15.7265C23.8453 15.6939 23.7151 15.5075 23.6367 15.4032C23.6432 15.5474 23.6477 15.6917 23.6506 15.836C23.6479 15.8399 23.6458 15.8441 23.6427 15.8476C23.6146 15.8799 23.5934 15.8987 23.5521 15.9062C23.548 15.9032 23.5435 15.9007 23.5401 15.8972C23.4564 15.8121 23.505 15.5278 23.5159 15.4112C23.4335 15.4902 23.2995 15.6829 23.2014 15.7217C23.1804 15.73 23.1625 15.716 23.1429 15.7083C23.115 15.6728 23.1103 15.6659 23.1037 15.6216C23.1336 15.5353 23.3636 15.384 23.4432 15.3191C23.2711 15.3223 23.0248 15.3533 22.877 15.2554L22.8818 15.2134C23.0238 15.1317 23.2507 15.1602 23.4107 15.1638C23.3346 15.086 23.1531 14.9793 23.1132 14.8858C23.0999 14.855 23.0935 14.8273 23.1134 14.7974C23.1355 14.7642 23.155 14.7653 23.1904 14.7623C23.3178 14.812 23.4225 14.9928 23.5041 15.0992C23.5081 14.9484 23.4709 14.7492 23.5272 14.6078Z" fill="white"/>
<path d="M4.42602 11.7652C4.46598 11.7728 4.49134 11.775 4.523 11.8024C4.5806 11.939 4.51997 12.187 4.51154 12.3353C4.59501 12.2396 4.67688 12.1381 4.78087 12.0638C4.82709 12.0307 4.8868 11.9908 4.94596 12.0015C4.94653 12.0067 4.94775 12.0119 4.94769 12.017C4.94473 12.1456 4.67386 12.3363 4.58053 12.4123C4.73447 12.4104 4.94724 12.3867 5.09326 12.4323C5.12661 12.4427 5.13748 12.4676 5.15093 12.4969L5.14288 12.5176C5.0345 12.5941 4.68395 12.5312 4.54848 12.5203C4.67051 12.6475 4.84516 12.7607 4.9296 12.9163C4.92002 12.9541 4.90644 12.9675 4.87844 12.9937C4.76562 12.9622 4.57519 12.7052 4.50646 12.6064C4.52847 12.7378 4.59798 13.028 4.53188 13.1424C4.51997 13.163 4.50632 13.1619 4.48548 13.1689C4.33262 13.0752 4.48528 12.7631 4.39132 12.6491L4.36732 12.686C4.32265 12.7991 4.27718 12.9303 4.20877 13.031C4.17965 13.0738 4.15629 13.0941 4.10574 13.1044C4.07061 13.0826 4.0668 13.0818 4.05115 13.0441C4.10894 12.8907 4.21559 12.7441 4.29862 12.6022C4.20192 12.6657 4.10941 12.7381 4.01052 12.7979C3.94623 12.8365 3.90092 12.8649 3.82543 12.8463C3.80218 12.809 3.80357 12.8111 3.81192 12.7677C3.91039 12.6421 4.11318 12.5818 4.25603 12.5171C4.10563 12.4828 3.93806 12.501 3.79268 12.4522C3.75378 12.4392 3.72393 12.4253 3.7041 12.3876C3.70683 12.3692 3.70306 12.3565 3.72019 12.3456C3.82685 12.2777 4.18331 12.3786 4.30889 12.4019C4.22882 12.3123 4.05307 12.1459 4.00273 12.0504C3.99022 12.0266 3.98576 12.0048 4.00027 11.9802C4.02151 11.9439 4.03918 11.9415 4.07651 11.9349C4.18935 11.9802 4.3174 12.2467 4.38521 12.3483C4.38778 12.1577 4.37994 11.9504 4.42602 11.7652Z" fill="white"/>
<path d="M11.5241 8.04499C11.926 8.42149 12.3991 8.78311 12.8746 9.06305C13.0673 9.17219 13.2593 9.28416 13.458 9.3818C13.6258 9.46443 13.835 9.52948 13.9848 9.63835L13.9839 9.69433L14.1285 9.69244C14.1958 9.70069 14.2425 9.71868 14.2981 9.75763C14.2994 9.8366 14.3215 9.99821 14.2806 10.0624L14.2656 10.1169L14.1692 10.1178L13.911 10.0975L13.8988 10.1041C13.6535 10.0979 13.4189 10.217 13.2438 10.3838C13.1242 10.4972 13.0347 10.6314 12.9612 10.7783C12.6533 10.9005 12.3538 11.0044 12.0326 11.0869C11.8282 11.1227 11.6261 11.1498 11.4192 11.1663C11.261 11.179 11.0945 11.1802 10.9385 11.209C10.8134 11.1915 10.6822 11.1925 10.556 11.1826C10.2052 11.1553 9.86903 11.0966 9.54492 10.9566C9.73838 10.6887 9.97438 10.4488 10.1745 10.1844C10.6776 9.51934 11.1429 8.78757 11.5241 8.04499Z" fill="#3EA768"/>
<path d="M11.8391 9.41118C11.8693 9.41474 11.8976 9.41918 11.926 9.43047C11.9789 9.45127 12.0206 9.4911 12.0384 9.54629C12.0542 9.595 12.0464 9.64891 12.0251 9.69471C11.9902 9.77019 11.9375 9.79873 11.8627 9.82715C11.8413 9.82258 11.8204 9.81738 11.8001 9.80926C11.7399 9.78554 11.6818 9.74152 11.6611 9.6772C11.6454 9.62824 11.6486 9.57927 11.6716 9.53335C11.7068 9.46332 11.7696 9.43744 11.8391 9.41118Z" fill="#F9DE18"/>
<path d="M12.8743 9.06318C13.067 9.1723 13.2589 9.28427 13.4577 9.38204C13.6255 9.46447 13.8347 9.52961 13.9845 9.63848L13.9836 9.69446L14.1282 9.69252C14.1955 9.70078 14.2421 9.71884 14.2978 9.75766C14.2991 9.83674 14.3212 9.99836 14.2804 10.0626L14.2653 10.117L14.1688 10.1178L13.9107 10.0976L13.8986 10.1043C13.6533 10.0981 13.4186 10.2171 13.2435 10.3838C13.124 10.4974 13.0344 10.6314 12.961 10.7784C12.6531 10.9007 12.3535 11.0045 12.0322 11.0869C12.1557 10.5649 12.4333 10.0604 12.6559 9.57553C12.7319 9.4099 12.826 9.23912 12.8743 9.06318Z" fill="#4FBA78"/>
<path d="M13.9831 9.69472L14.1278 9.69285C14.1951 9.70111 14.2418 9.71912 14.2974 9.75804C14.2987 9.837 14.3207 9.99866 14.2799 10.0629L14.2649 10.1173L14.1684 10.1182L13.9103 10.0979L13.8974 10.0008C13.9188 10.0083 13.9376 10.0162 13.9578 10.0268C13.9645 10.0303 13.9711 10.0341 13.9777 10.0376L13.9787 10.0161C13.9591 9.99741 13.9381 9.97877 13.9207 9.95812C13.8934 9.92559 13.8905 9.91245 13.8956 9.87116L13.9109 9.86653C13.9241 9.8873 13.9348 9.90019 13.9517 9.91745L13.9631 9.90219C13.9472 9.88417 13.9297 9.86553 13.9165 9.84525C13.8938 9.81009 13.8933 9.79295 13.901 9.75291L13.9259 9.73864L13.9406 9.77093L13.9536 9.75879C13.9581 9.72851 13.9617 9.717 13.9831 9.69472Z" fill="white"/>
<path d="M13.983 9.69437L14.1276 9.69249C14.1949 9.70075 14.2416 9.71877 14.2973 9.75768C14.2986 9.83664 14.3206 9.99831 14.2798 10.0625C14.2366 9.99643 14.2706 9.96014 14.2664 9.89207C14.2576 9.74767 14.1251 9.8499 14.0577 9.7971L14.0682 9.75931L14.0559 9.74404C14.0318 9.77971 14.0128 9.8031 13.9785 9.83026L13.9533 9.82125L13.9404 9.77057L13.9534 9.75843C13.9579 9.72815 13.9616 9.71664 13.983 9.69437Z" fill="#FDF0F8"/>
<path d="M13.9918 0.623978L14.0128 0.568367L14.031 0.562752C14.1576 0.816714 14.2594 1.08698 14.3675 1.34927C14.4841 1.6324 14.6077 1.91317 14.7095 2.20191C15.0318 2.2231 15.3536 2.25045 15.6748 2.28451C15.8217 2.29936 15.9887 2.3336 16.1355 2.32925L16.1798 2.34718C16.1586 2.42979 15.1769 3.19384 15.0254 3.35923C15.1127 3.52207 15.1774 3.86479 15.2317 4.05427C15.3125 4.33558 15.4143 4.61617 15.4742 4.90238L15.5309 5.08008C15.1786 4.8589 14.8861 4.64117 14.5481 4.40895C14.3844 4.26838 14.211 4.13778 14.0414 4.00446C13.8553 4.11368 13.6824 4.25588 13.5105 4.3863C13.1643 4.54281 12.8826 4.83717 12.5542 5.02556L12.5444 5.01632C12.5528 4.98136 12.5597 4.94513 12.5701 4.91053C12.7295 4.39264 12.8762 3.87132 13.0318 3.35234C12.8961 3.24964 12.7676 3.13171 12.6364 3.02284L11.8037 2.33143L12.0385 2.31766C12.1399 2.2894 12.274 2.29103 12.3804 2.28161C12.6951 2.25354 13.0202 2.23941 13.3314 2.18524C13.5342 1.66102 13.7368 1.12556 13.9918 0.623978Z" fill="#F6BE43"/>
<path d="M16.1367 2.32954L16.1809 2.34759C16.1598 2.43019 15.1782 3.19418 15.0266 3.35938C14.7336 3.21257 14.4319 3.10017 14.126 2.98453C14.6176 2.85783 15.0981 2.71613 15.5776 2.54668C15.7639 2.48077 15.9601 2.41895 16.1367 2.32954Z" fill="#EBA425"/>
<path d="M11.8037 2.33165L12.0386 2.31785C12.0595 2.34204 12.0773 2.36027 12.1066 2.37458C12.2848 2.46062 12.5048 2.51037 12.6939 2.57324C13.1169 2.71397 13.5277 2.86952 13.9645 2.96596C13.7003 3.07704 13.2509 3.19647 13.0318 3.35254C12.8961 3.24997 12.7676 3.13173 12.6364 3.02303L11.8037 2.33165Z" fill="#EBA425"/>
<path d="M13.9924 0.623848C14.0288 0.847095 14.0017 1.10758 14.0017 1.33498C14.0016 1.82378 13.9954 2.40729 14.0311 2.88867C13.9572 2.86806 13.4413 2.2831 13.332 2.18513C13.5348 1.66091 13.7374 1.12548 13.9924 0.623848Z" fill="#EBA425"/>
<path d="M12.5716 4.9106C12.6931 4.84486 13.8961 3.26789 14.0778 3.03152C14.3025 3.39023 15.15 4.70343 15.4757 4.90246L15.5323 5.08008C15.1801 4.85897 14.8876 4.64118 14.5496 4.40895C14.3859 4.26852 14.2125 4.13788 14.0429 4.00442C13.8568 4.11365 13.6839 4.25591 13.512 4.38638C13.1658 4.54291 12.8841 4.83723 12.5557 5.02563L12.5459 5.0165C12.5543 4.98131 12.5612 4.94512 12.5716 4.9106Z" fill="#EBA425"/>
<path d="M7.66602 14.4346C8.54725 13.9584 9.68774 12.6763 10.3219 11.9012C10.6417 11.9728 10.9377 12.0415 11.2682 12.0369C11.2692 12.169 11.2808 12.3106 11.2653 12.4415C11.2643 12.4916 11.265 12.5418 11.2671 12.5919C11.2272 12.631 11.1891 12.657 11.1733 12.7117C11.1863 12.7414 11.2071 12.7517 11.2381 12.7604C11.255 12.7652 11.2632 12.7655 11.2796 12.7673C11.3636 12.7664 11.4326 12.7652 11.4986 12.8253C11.5206 12.8452 11.5115 12.8687 11.5114 12.8964L11.5146 12.8491C11.5115 12.8554 11.5085 12.8619 11.5052 12.8683C11.4907 12.8968 11.4969 12.8861 11.476 12.9134C11.4859 12.9151 11.496 12.9167 11.5059 12.9188C11.5145 12.9206 11.523 12.9231 11.5316 12.9251L11.5255 12.9627C11.4989 12.9796 11.5134 12.9771 11.4825 12.9701C11.4839 12.9955 11.4878 13.0061 11.4976 13.03C11.5144 13.0702 11.5012 13.1133 11.4928 13.1543C11.7083 13.1818 11.8689 13.272 12.0337 13.4091C12.2704 13.6696 12.4382 13.9736 12.4175 14.3363C12.4116 14.4404 12.3836 14.5675 12.3349 14.6604L12.3129 14.7287C12.1814 14.9648 12.0529 15.1479 11.8164 15.2862C11.6444 15.3719 11.4637 15.4227 11.2705 15.4187C10.9146 15.4112 10.6332 15.2421 10.3937 14.9908L10.3506 14.9335C10.1143 14.9898 9.88757 15.0044 9.64523 15.0057C8.9357 14.955 8.27548 14.8219 7.66602 14.4346Z" fill="#4FBA78"/>
<path d="M9.49837 13.891C9.52142 13.8948 9.54457 13.8989 9.56723 13.9046C9.6206 13.9181 9.66631 13.9519 9.69135 14.0019C9.71639 14.0521 9.7148 14.1066 9.69086 14.1566C9.65766 14.2256 9.60569 14.2517 9.53712 14.2783C9.50473 14.2743 9.47571 14.2702 9.4444 14.26C9.39283 14.2435 9.33648 14.1919 9.3182 14.1404C9.29872 14.0855 9.30389 14.0399 9.3335 13.9897C9.36838 13.9305 9.43695 13.9094 9.49837 13.891Z" fill="#F9DE18"/>
<path d="M11.0986 13.1174C11.091 13.0534 11.0832 12.9932 11.0909 12.9286L11.1174 12.9093C11.1564 12.916 11.1823 12.9227 11.2208 12.9103L11.2158 12.8923C11.1845 12.8838 11.1615 12.8814 11.1296 12.8851L11.0982 12.8892L11.081 12.8679C11.0786 12.8231 11.0742 12.8173 11.0995 12.7812C11.1324 12.7698 11.1547 12.7666 11.1889 12.7694C11.2138 12.7715 11.2334 12.7727 11.2587 12.7707C11.2657 12.77 11.2727 12.7691 11.2798 12.7682C11.3639 12.7675 11.4329 12.7662 11.4989 12.8262C11.5209 12.8461 11.5117 12.8697 11.5116 12.8973L11.5149 12.85C11.5117 12.8564 11.5086 12.8629 11.5054 12.8692C11.491 12.8979 11.4972 12.887 11.4762 12.9143C11.4862 12.9162 11.4962 12.9176 11.5061 12.9198C11.5147 12.9216 11.5232 12.924 11.5318 12.926L11.5258 12.9637C11.4992 12.9806 11.5135 12.978 11.4827 12.9712C11.4842 12.9965 11.488 13.0071 11.4979 13.0309C11.5147 13.0712 11.5014 13.1143 11.493 13.1553H11.4561C11.339 13.1507 11.2254 13.1443 11.1098 13.1252L11.0986 13.1174Z" fill="#FDF0F8"/>
<path d="M11.0993 13.1165L11.1104 13.1243C11.226 13.1434 11.3397 13.1498 11.4568 13.1543H11.4937C11.7093 13.182 11.8697 13.272 12.0346 13.4092C12.2713 13.6697 12.4391 13.9736 12.4184 14.3364C12.4124 14.4404 12.3845 14.5676 12.3358 14.6604L12.3138 14.7288C12.1823 14.965 12.0537 15.1479 11.8174 15.2862C11.6454 15.3719 11.4647 15.4228 11.2713 15.4187C10.9156 15.4113 10.6341 15.2421 10.3945 14.9909L10.3515 14.9336C10.2751 14.7909 10.2112 14.6545 10.1789 14.4949C10.1749 14.4758 10.1714 14.4566 10.1684 14.4374C10.1653 14.4181 10.1629 14.3987 10.1608 14.3794C10.1588 14.36 10.1571 14.3405 10.1561 14.3211C10.155 14.3016 10.1544 14.2821 10.1543 14.2625C10.1542 14.2431 10.1546 14.2235 10.1555 14.2041C10.1563 14.1846 10.1576 14.1652 10.1594 14.1457C10.1613 14.1262 10.1636 14.1069 10.1664 14.0876C10.1692 14.0682 10.1724 14.0491 10.1762 14.0299C10.18 14.0108 10.1842 13.9918 10.1889 13.9728C10.1936 13.9539 10.1988 13.9351 10.2044 13.9164C10.21 13.8978 10.2162 13.8793 10.2227 13.8608C10.2293 13.8425 10.2363 13.8243 10.2438 13.8063C10.2513 13.7883 10.2592 13.7704 10.2675 13.7528C10.2758 13.7352 10.2847 13.7178 10.2939 13.7006C10.3031 13.6834 10.3128 13.6664 10.3228 13.6497C10.3329 13.633 10.3433 13.6166 10.3542 13.6003C10.5326 13.3321 10.786 13.1777 11.0993 13.1165Z" fill="#EC8715"/>
<path d="M11.0993 13.1165L11.1104 13.1243C11.0823 13.209 10.8834 13.3254 10.8101 13.4014C10.5196 13.7027 10.5106 14.2046 10.6901 14.5649C10.8379 14.8615 11.087 15.0945 11.4027 15.1995C11.5379 15.2445 11.6768 15.2663 11.8174 15.2862C11.6454 15.3719 11.4647 15.4228 11.2713 15.4187C10.9156 15.4113 10.6341 15.2421 10.3945 14.9909L10.3515 14.9336C10.2751 14.7909 10.2112 14.6545 10.1789 14.4949C10.1749 14.4758 10.1714 14.4566 10.1684 14.4374C10.1653 14.4181 10.1629 14.3987 10.1608 14.3794C10.1588 14.36 10.1571 14.3405 10.1561 14.3211C10.155 14.3016 10.1544 14.2821 10.1543 14.2625C10.1542 14.2431 10.1546 14.2235 10.1555 14.2041C10.1563 14.1846 10.1576 14.1652 10.1594 14.1457C10.1613 14.1262 10.1636 14.1069 10.1664 14.0876C10.1692 14.0682 10.1724 14.0491 10.1762 14.0299C10.18 14.0108 10.1842 13.9918 10.1889 13.9728C10.1936 13.9539 10.1988 13.9351 10.2044 13.9164C10.21 13.8978 10.2162 13.8793 10.2227 13.8608C10.2293 13.8425 10.2363 13.8243 10.2438 13.8063C10.2513 13.7883 10.2592 13.7704 10.2675 13.7528C10.2758 13.7352 10.2847 13.7178 10.2939 13.7006C10.3031 13.6834 10.3128 13.6664 10.3228 13.6497C10.3329 13.633 10.3433 13.6166 10.3542 13.6003C10.5326 13.3321 10.786 13.1777 11.0993 13.1165Z" fill="#ED7117"/>
<path d="M11.4939 13.1546C11.7094 13.1822 11.87 13.2723 12.0347 13.4094C12.2715 13.67 12.4393 13.9739 12.4186 14.3366C12.4127 14.4406 12.3846 14.5678 12.336 14.6607C12.2495 14.6966 12.1623 14.7233 12.0688 14.7329C12.0558 14.7341 12.0427 14.7351 12.0296 14.7356C12.0165 14.7361 12.0035 14.7364 11.9904 14.7363C11.9773 14.7361 11.9642 14.7357 11.9511 14.735C11.9381 14.7341 11.925 14.7331 11.912 14.7315C11.899 14.7301 11.886 14.7283 11.8731 14.7262C11.8601 14.7242 11.8473 14.7217 11.8345 14.7189C11.8218 14.7162 11.809 14.713 11.7964 14.7096C11.7837 14.7062 11.7712 14.7024 11.7587 14.6984C11.7463 14.6943 11.734 14.69 11.7217 14.6852C11.7094 14.6805 11.6974 14.6755 11.6854 14.6701C11.6734 14.6649 11.6617 14.6592 11.6499 14.6534C11.6383 14.6474 11.6268 14.6412 11.6154 14.6347C11.6041 14.6282 11.5929 14.6214 11.5819 14.6143C11.5709 14.6073 11.5601 14.5998 11.5494 14.5922C11.5388 14.5846 11.5283 14.5766 11.5181 14.5685C11.5079 14.5603 11.4978 14.5519 11.4881 14.5432C11.2959 14.3741 11.1851 14.1186 11.1739 13.8646C11.1608 13.5694 11.2718 13.3898 11.4642 13.1801L11.457 13.1546H11.4939Z" fill="#F6BE43"/>
<path d="M11.5742 13.3696C11.5935 13.3685 11.6172 13.3661 11.6367 13.3694C11.7444 13.3884 11.9014 13.53 11.9641 13.6121C12.0061 13.667 12.0432 13.74 12.027 13.811C12.0116 13.8783 11.9649 13.9085 11.911 13.9434C11.79 13.9253 11.6104 13.765 11.525 13.6728C11.4874 13.6323 11.4484 13.5721 11.4573 13.5142C11.4678 13.4471 11.5236 13.4072 11.5742 13.3696Z" fill="#FCD1C6"/>
<path d="M7.0221 21.3398C7.91577 21.815 8.80448 22.2073 9.78228 22.4826C9.88034 22.5102 10.0901 22.5881 10.1798 22.5691C10.184 22.5682 10.1879 22.5662 10.1921 22.5647C10.2821 22.6122 10.3524 22.6169 10.4526 22.6114L10.4484 22.6405L10.5116 22.6169L10.527 22.6282L10.5177 22.9357C10.4401 22.9153 10.3757 22.9078 10.2959 22.9074L10.1614 22.9268C9.87964 22.9916 9.65536 23.133 9.50173 23.3825C9.34531 23.6365 9.31622 23.9375 9.38688 24.2241C9.39895 24.2724 9.41164 24.3205 9.42495 24.3685C9.29888 24.293 9.19533 24.2101 9.09487 24.1029C8.90595 24.2689 8.65535 24.3778 8.41922 24.4576C7.07898 24.9099 5.59871 24.5209 4.37793 23.9116C5.0233 23.3471 5.64749 22.7602 6.25056 22.1508C6.51331 21.8855 6.76028 21.6056 7.0221 21.3398Z" fill="#2A8856"/>
<path d="M10.5114 22.6168L10.5267 22.628L10.5174 22.9355C10.4399 22.9151 10.3754 22.9076 10.2956 22.9073C10.2622 22.9037 10.2328 22.8983 10.2006 22.8885C10.1469 22.8158 10.1628 22.7317 10.1651 22.6448C10.2609 22.6489 10.3527 22.6525 10.4482 22.6403L10.5114 22.6168Z" fill="white"/>
<path d="M6.32174 23.6461C6.36164 23.6465 6.39478 23.6497 6.43211 23.6654C6.47813 23.6848 6.52041 23.7252 6.53566 23.7738C6.55117 23.8231 6.54737 23.8735 6.52581 23.9203C6.49241 23.9928 6.43449 24.0186 6.36273 24.043C6.33873 24.0399 6.31492 24.0354 6.29143 24.0296C6.2393 24.0161 6.19483 23.9828 6.16947 23.9348C6.14521 23.8889 6.14514 23.8354 6.16329 23.7874C6.19309 23.7088 6.24844 23.6787 6.32174 23.6461Z" fill="#F9DE18"/>
<path d="M7.37259 22.422C7.4139 22.4219 7.44943 22.4248 7.48843 22.4399C7.53811 22.4591 7.58065 22.4988 7.60086 22.5484C7.62145 22.5989 7.61978 22.6541 7.5988 22.7043C7.56836 22.7772 7.51456 22.8067 7.44454 22.835C7.43514 22.8337 7.42574 22.8322 7.41635 22.8304C7.34523 22.8164 7.28422 22.7902 7.24445 22.7261C7.21639 22.681 7.21099 22.6261 7.22579 22.5755C7.24947 22.4944 7.30167 22.4606 7.37259 22.422Z" fill="#F6BE43"/>
<path d="M12.7061 25.8141L12.9895 24.7127C13.2895 24.8613 13.3685 25.4286 13.9686 25.5243C14.259 25.4767 14.5103 25.1493 14.73 24.9683C14.8138 24.8995 14.906 24.8454 14.9994 24.7913C15.068 25.1334 15.1717 25.4729 15.2329 25.815C16.919 25.8515 18.6225 25.9107 20.297 26.1193C20.753 26.176 21.2206 26.2211 21.6679 26.3274C21.8097 26.3612 22.0765 26.4337 22.1555 26.562C22.1577 26.5916 22.1608 26.606 22.1399 26.6309C22.042 26.7476 21.7408 26.8085 21.5976 26.8413C21.2081 26.9305 20.8115 26.9764 20.4151 27.022C19.718 27.1021 19.0216 27.1523 18.3215 27.1951C16.7402 27.2872 15.1576 27.3264 13.5736 27.3128C11.6191 27.3077 9.64822 27.2518 7.70594 27.0231C7.30249 26.9756 6.29035 26.8745 5.96322 26.6581C5.91843 26.6285 5.87183 26.5914 5.86399 26.5349C5.86006 26.5068 5.87287 26.4822 5.89197 26.4619C6.38115 25.9434 11.748 25.8174 12.7061 25.8141Z" fill="#0A0A0A" fill-opacity="0.1"/>
<path d="M12.707 25.8143L12.9905 24.7129C13.2904 24.8615 13.3693 25.4289 13.9695 25.5245C13.9621 25.5303 13.952 25.5339 13.9472 25.5421C13.9446 25.5464 13.7274 26.5494 13.6836 26.695L12.4844 26.6963C12.5589 26.4029 12.6211 26.1045 12.707 25.8143Z" fill="#864E30"/>
<path d="M15.0005 24.7918C15.0689 25.134 15.1726 25.4734 15.2338 25.8155C15.3023 26.1063 15.3805 26.4004 15.4301 26.6948L13.6836 26.6953C13.7274 26.5497 13.9448 25.5467 13.9473 25.5424C13.9522 25.5343 13.9622 25.5307 13.9696 25.5249C14.26 25.4772 14.5112 25.1499 14.731 24.9688C14.8146 24.9 14.907 24.8459 15.0005 24.7918Z" fill="#965A36"/>
<path d="M14.0421 4.00489C14.2117 4.13819 14.385 4.26893 14.5487 4.40944C14.59 4.57043 14.6638 4.72165 14.7347 4.8716L14.7632 4.92681C15.0611 5.43233 15.3111 5.97195 15.5803 6.49348C16.2572 7.80506 17.1585 9.44742 18.2164 10.4758C18.3719 10.627 18.5445 10.7619 18.7162 10.8942C18.2377 11.156 17.6581 11.2617 17.1149 11.2676C16.136 11.2308 15.8576 11.0731 15.016 10.6383C14.9642 10.5894 14.9209 10.5246 14.8728 10.4711C14.6996 10.2791 14.5166 10.1733 14.2648 10.1178L14.2799 10.0632C14.3207 9.99904 14.2988 9.83741 14.2973 9.75836C14.2418 9.71947 14.1951 9.70139 14.1279 9.69323L13.9832 9.69515L13.9841 9.63914C13.8343 9.53032 13.6251 9.46519 13.4573 9.38261C13.2586 9.285 13.0665 9.17298 12.8739 9.06384C12.3983 8.78395 11.9253 8.42229 11.5234 8.04574C11.5665 7.96253 11.6166 7.88476 11.6671 7.80586C11.8704 7.52293 12.0324 7.19904 12.2002 6.89435C12.4089 6.52004 12.6125 6.14286 12.8109 5.76279C13.0446 5.30447 13.2626 4.83751 13.5112 4.38688C13.683 4.25645 13.856 4.11419 14.0421 4.00489Z" fill="#4FBA78"/>
<path d="M17.094 10.2067C17.1434 10.1548 17.1817 10.1022 17.2587 10.1005C17.3124 10.0994 17.3818 10.1106 17.4195 10.1522C17.4474 10.1831 17.4525 10.2195 17.4465 10.2592C17.4379 10.3171 17.3918 10.3763 17.3433 10.4069C17.3085 10.4288 17.2701 10.4399 17.229 10.4299C17.1756 10.4169 17.1299 10.3649 17.1087 10.3156C17.0985 10.2921 17.0979 10.2868 17.0918 10.2642L17.094 10.2067Z" fill="#E2E4E3"/>
<path d="M15.9202 8.46944C15.9409 8.47024 15.9609 8.47183 15.9811 8.47647C16.0404 8.48987 16.0908 8.52064 16.1213 8.57462C16.1473 8.62078 16.1514 8.67728 16.1364 8.72782C16.1108 8.81456 16.0584 8.85595 15.9819 8.89746C15.9472 8.89667 15.9199 8.8956 15.8865 8.88526C15.8381 8.87027 15.7929 8.8265 15.7699 8.78233C15.7422 8.72875 15.7418 8.66574 15.7633 8.61004C15.793 8.53284 15.8482 8.50194 15.9202 8.46944Z" fill="#F9DE18"/>
<path d="M11.5234 8.04573C11.5665 7.96248 11.6166 7.88469 11.6671 7.80581C12.1221 8.19311 12.6058 8.60692 13.1346 8.89073C13.5436 9.14309 13.977 9.38438 14.4336 9.53668C15.3845 9.91604 16.089 10.0728 17.0939 10.2072L17.0917 10.2646C16.8535 10.2383 16.6071 10.2518 16.3669 10.2284C15.6601 10.1597 14.9688 9.98508 14.2974 9.75828C14.2418 9.71946 14.1952 9.70141 14.1278 9.69307L13.9831 9.69512L13.9841 9.63907C13.8342 9.53025 13.6251 9.46518 13.4573 9.38261C13.2586 9.28486 13.0665 9.1729 12.8739 9.0638C12.3983 8.78382 11.9254 8.42223 11.5234 8.04573Z" fill="#94D897"/>
<path d="M13.9844 9.63833L14.052 9.3884C14.0845 9.48898 14.1076 9.58868 14.128 9.69243L13.9834 9.69434L13.9844 9.63833Z" fill="#1E5443"/>
<path d="M14.0419 4.00528C14.2116 4.13858 14.3849 4.26933 14.5486 4.40983C14.5899 4.57082 14.6636 4.72204 14.7345 4.87199L14.763 4.9272L14.7525 4.9536C14.7899 5.04754 14.8917 5.16452 14.9018 5.25669C14.8973 5.25365 14.8931 5.24997 14.8882 5.24789C14.7925 5.20453 14.6201 5.2767 14.5343 5.31783C14.5014 5.3111 14.4751 5.30134 14.4446 5.2879C14.4103 5.27318 14.3909 5.26742 14.3529 5.27222C14.3388 5.28502 14.3282 5.29126 14.3218 5.30966C14.3897 5.31334 14.4689 5.31494 14.522 5.36359C14.5374 5.37784 14.5455 5.39896 14.5462 5.41992C14.5486 5.50586 14.4558 5.55018 14.513 5.62924C14.5095 5.68125 14.4706 5.72285 14.4391 5.76238C14.6428 5.79839 14.8045 5.8672 14.9274 6.04307C15.0309 6.19142 15.0787 6.37769 15.0459 6.5566C15.0135 6.73439 14.9109 6.87873 14.7659 6.98355C14.6183 7.09269 14.457 7.13494 14.2744 7.10853C14.1813 7.09493 14.1002 7.0642 14.0155 7.02516C14.0285 7.57645 14.1208 8.11575 14.2199 8.65664C14.2744 8.95477 14.3178 9.25498 14.4335 9.53711C13.9768 9.38476 13.5434 9.1436 13.1345 8.89124C12.6056 8.60735 12.122 8.19368 11.667 7.80625C11.8702 7.52332 12.0323 7.19943 12.2001 6.89474C12.4087 6.52043 12.6123 6.14325 12.8107 5.76318C13.0445 5.30486 13.2624 4.8379 13.511 4.38727C13.6828 4.25684 13.8558 4.11458 14.0419 4.00528Z" fill="#3EA768"/>
<path d="M14.3219 5.30883C14.3897 5.31248 14.469 5.31416 14.522 5.3628C14.5375 5.37694 14.5457 5.39822 14.5463 5.4192C14.5486 5.5051 14.4559 5.54949 14.5132 5.62839C14.5095 5.68038 14.4708 5.72219 14.4393 5.76172C14.422 5.72523 14.4124 5.67643 14.4051 5.63691L14.3999 5.60726C14.3975 5.65165 14.3957 5.68799 14.371 5.72645C14.3654 5.73542 14.3592 5.74408 14.3533 5.7529L14.2751 5.61745C14.2756 5.64496 14.2712 5.67263 14.268 5.7L14.2538 5.69908C14.2047 5.58598 14.2467 5.50267 14.2567 5.3885C14.2598 5.35429 14.297 5.3324 14.3219 5.30883Z" fill="white"/>
<path d="M14.0156 7.02421C14.0017 7.01496 13.9882 7.00496 13.9749 6.99467C13.9618 6.98423 13.9489 6.97348 13.9365 6.96215C13.924 6.95081 13.9121 6.93902 13.9006 6.92679C13.8891 6.91456 13.8781 6.90203 13.8675 6.8889C13.8569 6.87592 13.8467 6.86249 13.8372 6.84877C13.8276 6.83489 13.8185 6.82072 13.81 6.8064C13.8015 6.79193 13.7935 6.77716 13.786 6.76209C13.7786 6.74702 13.7717 6.73165 13.7654 6.71614C13.6922 6.53518 13.6998 6.31707 13.7798 6.13969C13.8676 5.94426 14.0126 5.84699 14.2042 5.77165C14.1379 6.08449 14.1897 6.41016 14.3672 6.67974C14.4599 6.82042 14.5734 6.91112 14.7301 6.96901L14.766 6.98259C14.6185 7.09179 14.4572 7.13401 14.2746 7.1076C14.1814 7.09403 14.1004 7.06329 14.0156 7.02421Z" fill="#B2917E"/>
<path d="M14.3528 5.75262C14.3586 5.74376 14.3648 5.73505 14.3705 5.72619C14.395 5.68759 14.3969 5.65124 14.3993 5.60694L14.4046 5.63652C14.4118 5.67618 14.4214 5.72499 14.4387 5.76134C14.6424 5.79723 14.804 5.86617 14.9268 6.0419C15.0305 6.19029 15.0782 6.37653 15.0453 6.55557C15.0129 6.73325 14.9103 6.87759 14.7654 6.98242L14.7295 6.9689C14.5727 6.91093 14.4593 6.82021 14.3666 6.67963C14.1891 6.40988 14.1373 6.08426 14.2035 5.7714C14.2236 5.7702 14.2407 5.76855 14.2597 5.76149C14.2971 5.74752 14.3115 5.74196 14.3528 5.75262Z" fill="#EAAF95"/>
<path d="M14.6016 5.8714C14.664 5.87704 14.707 5.88878 14.753 5.93261C14.8386 6.01418 14.8933 6.13111 14.8903 6.25026C14.8887 6.31281 14.8639 6.34535 14.8206 6.38725C14.7918 6.38889 14.7747 6.38591 14.7471 6.37982C14.6899 6.32515 14.7 6.26601 14.662 6.20198C14.6285 6.14582 14.5418 6.08847 14.5308 6.02354C14.5204 5.96322 14.567 5.91433 14.6016 5.8714Z" fill="#FCD1C6"/>
<path d="M14.0419 4.00369C14.2116 4.13699 14.3849 4.26773 14.5486 4.40824C14.5899 4.56923 14.6636 4.72045 14.7345 4.8704C14.7273 4.87232 14.7201 4.87456 14.7129 4.87648C14.6502 4.89248 14.5639 4.87328 14.4985 4.86816C14.1711 4.84287 13.9942 4.95297 13.8212 5.2215C13.6126 5.54523 13.0343 7.10902 13.0724 7.45692C13.1305 7.44044 13.1851 7.42508 13.2408 7.46044C13.2967 7.49597 13.3069 7.55918 13.3139 7.61935L13.3436 7.61583C13.4012 7.66912 13.3948 7.77538 13.3977 7.84947C13.4147 8.27578 13.2629 8.5083 13.1345 8.88965C12.6056 8.60576 12.122 8.19209 11.667 7.80466C11.8702 7.52173 12.0323 7.19784 12.2001 6.89314C12.4087 6.51884 12.6123 6.14166 12.8107 5.76159C13.0445 5.30327 13.2624 4.83631 13.511 4.38567C13.6828 4.25525 13.8558 4.11299 14.0419 4.00369Z" fill="#2A8856"/>
<path d="M13.0727 7.45799C13.1309 7.4413 13.1854 7.42601 13.2412 7.46146C13.2971 7.49692 13.3072 7.56018 13.3143 7.62025C13.2968 7.67141 13.2669 7.72411 13.2142 7.7458C13.2099 7.7476 13.2055 7.74913 13.2009 7.75038C13.1964 7.75177 13.1918 7.75275 13.1873 7.75358C13.1825 7.75442 13.1779 7.75511 13.1732 7.75539C13.1685 7.75581 13.1639 7.75595 13.1592 7.75581C13.1544 7.75567 13.1497 7.75539 13.1451 7.7547C13.1404 7.75414 13.1358 7.7533 13.1312 7.75219C13.1266 7.75108 13.1222 7.74983 13.1177 7.7483C13.1133 7.74663 13.109 7.74496 13.1047 7.74288C13.0574 7.72091 13.025 7.6728 13.0162 7.62205C13.0046 7.55309 13.0343 7.51054 13.0727 7.45799Z" fill="white"/>
<path d="M20.926 21.367C20.9928 21.4255 21.0588 21.4976 21.1101 21.5705C21.6371 22.1199 22.1834 22.6493 22.7491 23.1588C23.0613 23.4357 23.4036 23.6873 23.707 23.9729C22.1751 24.763 20.6956 24.7773 19.0762 24.2615C18.9224 24.2118 18.7692 24.1604 18.6165 24.1072C18.5179 24.4325 18.249 24.6959 17.955 24.8551C17.4481 25.1294 16.8874 25.0788 16.3535 24.915C15.8286 24.754 15.3684 24.4656 14.9555 24.1082C14.9278 24.1722 14.8908 24.2408 14.8784 24.3095C14.9414 24.457 14.9632 24.6349 15.0001 24.7914C14.9068 24.8454 14.8145 24.8996 14.7308 24.9684C14.511 25.1494 14.2598 25.4768 13.9694 25.5244C13.3691 25.4287 13.2902 24.8614 12.9903 24.7128C13.0204 24.6032 13.049 24.4933 13.0761 24.383C13.0971 24.2298 13.0645 24.0804 13.0389 23.9296C12.8803 24.0909 12.7163 24.2313 12.5263 24.3547C12.0203 24.6835 11.241 24.9905 10.6307 24.9782C10.6089 24.9776 10.5902 24.9744 10.5689 24.9704C10.4202 24.9798 10.2782 24.9924 10.1305 24.9627C9.79282 24.8948 9.60317 24.6386 9.42503 24.3679C9.41177 24.3199 9.39909 24.2718 9.38698 24.2235C9.31632 23.9369 9.34541 23.6359 9.50181 23.3819C9.65549 23.1324 9.87977 22.9909 10.1615 22.9262L10.296 22.9068C10.3758 22.9072 10.4403 22.9147 10.5178 22.9351L10.5271 22.6276C10.6562 22.7611 11.0699 22.7804 11.2515 22.8102C12.2092 22.9674 13.14 23.0797 14.1125 23.0949C14.4124 23.0996 14.7124 23.097 15.0121 23.0871C15.3122 23.0772 15.6116 23.06 15.9107 23.0355C16.2096 23.011 16.508 22.9792 16.8055 22.9401C17.1028 22.901 17.3992 22.8547 17.6944 22.8012C17.8852 22.7678 18.1633 22.7472 18.3298 22.6495L18.3544 22.6357C18.6447 22.7887 18.9479 22.8565 19.2696 22.7642C19.6064 22.6676 19.8441 22.4334 20.0085 22.1324L20.0449 21.9633L20.0777 21.7823C20.35 21.6255 20.6588 21.5385 20.926 21.367Z" fill="#2A8856"/>
<path d="M21.026 23.3009C21.0467 23.3033 21.0676 23.3057 21.0881 23.3099C21.1402 23.3203 21.1872 23.3492 21.2136 23.3967C21.2345 23.4345 21.2346 23.4787 21.2236 23.5194C21.2007 23.6038 21.1384 23.6442 21.0653 23.6826C21.0433 23.6791 21.0203 23.6764 20.9991 23.6688C20.9467 23.65 20.8976 23.6013 20.8798 23.5484C20.8653 23.5057 20.8696 23.4551 20.8878 23.414C20.9162 23.3496 20.965 23.3275 21.026 23.3009Z" fill="#F9DE18"/>
<path d="M18.165 23.9139C18.1818 23.9141 18.1985 23.914 18.2152 23.9153C18.2806 23.9204 18.3497 23.9493 18.3872 24.0056C18.4115 24.042 18.4155 24.0816 18.4081 24.1238C18.396 24.1918 18.3409 24.2353 18.2891 24.2739C18.2585 24.275 18.2265 24.2769 18.196 24.2733C18.1474 24.2675 18.0938 24.2315 18.0657 24.1921C18.037 24.152 18.0286 24.1033 18.0403 24.0554C18.0576 23.9834 18.1055 23.9514 18.165 23.9139Z" fill="white"/>
<path d="M20.1001 22.099C20.0581 22.3398 19.9113 22.5556 19.7134 22.6959C19.4587 22.8765 19.1169 22.9489 18.8102 22.8943C18.6305 22.8623 18.4523 22.7881 18.3291 22.6495L18.3537 22.6357C18.644 22.7887 18.9473 22.8564 19.2689 22.7642C19.6056 22.6676 19.8434 22.4333 20.0078 22.1324L20.1001 22.099Z" fill="#1E5443"/>
<path d="M20.9263 21.3673C20.9932 21.4259 21.0591 21.498 21.1103 21.5709C20.9635 21.6582 20.133 22.0651 20.1012 22.0994L20.0088 22.1328L20.0452 21.9637L20.078 21.7827C20.3504 21.6259 20.659 21.5389 20.9263 21.3673Z" fill="#94D897"/>
<path d="M14.8783 24.3095C14.9412 24.457 14.9632 24.6349 15.0001 24.7914C14.9065 24.8455 14.8143 24.8996 14.7306 24.9684C14.5109 25.1494 14.2596 25.4768 13.9693 25.5244C13.369 25.4287 13.2901 24.8613 12.9902 24.7127C13.0203 24.6032 13.0488 24.4933 13.0759 24.383C13.1118 24.4435 13.1332 24.5173 13.1624 24.5818C13.2511 24.7789 13.3768 24.961 13.5547 25.0878C13.678 25.1758 13.8234 25.2211 13.9739 25.1891C14.3582 25.1072 14.6871 24.6179 14.8783 24.3095Z" fill="#723A2A"/>
<path d="M10.296 22.907C10.3757 22.9073 10.4403 22.9148 10.5178 22.9352C10.8772 23.0487 11.0645 23.0838 11.2518 23.4498C11.3772 23.6948 11.3995 24.0009 11.3154 24.2628C11.2871 24.351 11.2263 24.4868 11.1562 24.5489C11.0004 24.7722 10.8109 24.8655 10.5689 24.9705C10.4202 24.98 10.2782 24.9926 10.1305 24.9629C9.79285 24.8949 9.60311 24.6388 9.42504 24.3681C9.41172 24.3201 9.39906 24.2719 9.38698 24.2237C9.31631 23.9371 9.34544 23.6361 9.50183 23.3821C9.65549 23.1326 9.87973 22.9911 10.1615 22.9264L10.296 22.907Z" fill="#EE2539"/>
<path d="M10.1614 22.9264L10.1741 22.9707C10.1369 23.0324 9.98243 23.0674 9.91637 23.1082C9.62475 23.2878 9.52798 23.6587 9.60899 23.978C9.61305 23.9937 9.61752 24.0093 9.6224 24.0247C9.62727 24.0402 9.63255 24.0555 9.63816 24.0708C9.64377 24.0859 9.64986 24.101 9.65612 24.1159C9.66254 24.1309 9.66928 24.1456 9.67635 24.1601C9.68334 24.1747 9.69081 24.1892 9.69861 24.2034C9.70641 24.2176 9.71454 24.2316 9.72291 24.2455C9.73144 24.2593 9.74021 24.2729 9.74931 24.2863C9.7585 24.2997 9.76792 24.3129 9.77767 24.3259C9.7875 24.3387 9.79758 24.3514 9.80798 24.3639C9.81838 24.3763 9.82902 24.3885 9.84008 24.4004C9.85096 24.4124 9.86226 24.424 9.87388 24.4354C9.88533 24.4468 9.8972 24.4579 9.9093 24.4687C9.92141 24.4794 9.93376 24.4899 9.94635 24.5001C9.95903 24.5104 9.97187 24.5202 9.98495 24.5297C9.99803 24.5393 10.0113 24.5486 10.0249 24.5575C10.0384 24.5664 10.0521 24.575 10.0661 24.5833C10.2618 24.6987 10.5224 24.7809 10.7469 24.7233C10.8946 24.6855 11.0153 24.5913 11.1562 24.5489C11.0004 24.7722 10.8109 24.8655 10.5689 24.9705C10.4201 24.98 10.2782 24.9926 10.1305 24.9629C9.79279 24.8949 9.60314 24.6388 9.42503 24.3681C9.41179 24.3201 9.39911 24.2719 9.387 24.2237C9.31631 23.9371 9.3454 23.6361 9.50182 23.3821C9.65547 23.1326 9.87981 22.9911 10.1614 22.9264Z" fill="#D01E25"/>
<path d="M10.4729 23.0571C10.5884 23.0715 10.7413 23.0926 10.8321 23.1694C10.9282 23.2221 11.0225 23.3279 11.0711 23.4272C11.0881 23.4476 11.1017 23.4693 11.1143 23.4927C11.1878 23.6282 11.2367 23.8035 11.1881 23.9544C11.1587 24.046 11.0922 24.1189 11.0059 24.1606C10.8695 24.2266 10.7041 24.2171 10.5651 24.1642C10.4186 24.1083 10.3063 24.0023 10.243 23.859C10.1693 23.6917 10.1525 23.4533 10.2269 23.2828C10.279 23.1633 10.3557 23.1058 10.4729 23.0571Z" fill="#F15863"/>
<path d="M10.8327 23.1696C10.9288 23.2224 11.023 23.3281 11.0717 23.4275C11.0708 23.4618 11.0691 23.451 11.0742 23.4791C11.0802 23.5113 11.0869 23.5433 11.0899 23.576C11.0975 23.6587 11.0757 23.8008 11.013 23.8622C10.9839 23.8907 10.9519 23.9057 10.9104 23.9003C10.7915 23.8848 10.6342 23.7513 10.5728 23.6526C10.5059 23.5452 10.4247 23.3265 10.4531 23.2026C10.538 23.1177 10.7297 23.2234 10.8487 23.2131L10.8276 23.1895L10.8327 23.1696Z" fill="#F68185"/>
<path d="M13.9102 10.0977L14.1683 10.1179L14.2647 10.1171C14.5165 10.1727 14.6995 10.2785 14.8727 10.4705C14.9208 10.5239 14.964 10.5887 15.0158 10.6377C15.8574 11.0726 16.1359 11.2301 17.1147 11.2669C17.4154 11.729 17.8109 12.2184 18.1807 12.6278C18.317 12.7786 18.4674 12.9179 18.602 13.0696C19.2118 13.656 19.7488 14.1696 20.5308 14.5297C20.4943 14.5534 20.4573 14.5766 20.42 14.5991C20.3828 14.6216 20.3452 14.6435 20.3072 14.6647C20.2692 14.686 20.2309 14.7066 20.1922 14.7266C20.1536 14.7466 20.1146 14.7659 20.0752 14.7846C20.0359 14.8034 19.9962 14.8214 19.9564 14.8388C19.9164 14.8561 19.8762 14.8729 19.8358 14.8888C19.7953 14.9049 19.7546 14.9203 19.7136 14.9351C19.6726 14.9498 19.6314 14.9636 19.5901 14.977C19.5486 14.9904 19.5069 15.0031 19.465 15.015C19.4231 15.0269 19.3811 15.0382 19.3389 15.0487C19.2967 15.0593 19.2542 15.0691 19.2116 15.0783C19.169 15.0874 19.1264 15.0959 19.0836 15.1037C19.0407 15.1113 18.9978 15.1184 18.9548 15.1246C18.9116 15.131 18.8685 15.1365 18.8252 15.1414C18.7819 15.1463 18.7386 15.1504 18.6953 15.1539C18.6519 15.1574 18.6084 15.16 18.5648 15.1621C18.4871 15.1649 18.409 15.1385 18.3732 15.2219L18.3731 15.2048L18.3367 15.1776C18.2644 15.151 18.1437 15.1531 18.0701 15.1712C17.8351 15.1257 17.6416 15.0723 17.4376 14.9453C17.4346 14.9502 17.4315 14.955 17.4285 14.9599L17.4125 14.9838C17.3444 15.0876 17.2528 15.1615 17.1454 15.2217C17.1268 15.2323 17.1082 15.2424 17.0893 15.252C17.0703 15.2616 17.0512 15.2707 17.0318 15.2795C17.0123 15.2881 16.9928 15.2963 16.9731 15.3039C16.9532 15.3115 16.9332 15.3187 16.913 15.3254C16.8929 15.3321 16.8726 15.3382 16.8521 15.3439C16.8317 15.3496 16.811 15.3545 16.7902 15.3593C16.7695 15.3638 16.7487 15.3679 16.7277 15.3715C16.7068 15.3751 16.6858 15.3781 16.6647 15.3805C16.6436 15.383 16.6225 15.3851 16.6013 15.3865C16.5801 15.388 16.5588 15.3888 16.5376 15.3892C16.5165 15.3897 16.4953 15.3895 16.4739 15.3888C16.4527 15.3881 16.4316 15.3869 16.4104 15.3852C16.3893 15.3834 16.3682 15.3811 16.3471 15.3783C16.326 15.3755 16.305 15.3722 16.2841 15.3683C16.2633 15.3644 16.2425 15.3601 16.2218 15.3551C16.2012 15.3502 16.1807 15.3448 16.1603 15.3389C15.6909 15.2016 15.4053 14.8836 15.1778 14.468C15.0034 14.8654 14.9422 15.1164 14.5424 15.3514C14.2223 15.5392 13.8773 15.5732 13.5219 15.4774C13.395 15.4431 13.273 15.3962 13.1556 15.3369C12.9911 15.2542 12.4991 14.9437 12.4082 14.7853L12.4 14.7867C12.37 14.7701 12.3417 14.7483 12.3133 14.7291L12.3352 14.6607C12.3839 14.5679 12.4118 14.4408 12.4178 14.3367C12.4384 13.974 12.2707 13.6701 12.0339 13.4095C11.8691 13.2724 11.7086 13.1823 11.4931 13.1547C11.5015 13.1136 11.5147 13.0706 11.498 13.0303C11.4881 13.0065 11.4843 12.9959 11.4827 12.9705C11.5136 12.9775 11.4992 12.98 11.5259 12.963L11.5318 12.9254C11.5233 12.9234 11.5148 12.921 11.5062 12.9192C11.4963 12.9171 11.4863 12.9156 11.4763 12.9138C11.4972 12.8864 11.491 12.8973 11.5055 12.8687C11.5087 12.8623 11.5118 12.8558 11.5149 12.8494L11.5117 12.8967C11.5118 12.8691 11.5209 12.8455 11.499 12.8257C11.4329 12.7656 11.3639 12.7668 11.2799 12.7677C11.2635 12.7659 11.2553 12.7656 11.2384 12.7607C11.2074 12.752 11.1866 12.7418 11.1736 12.7122C11.1894 12.6573 11.2275 12.6313 11.2674 12.5923C11.2653 12.5422 11.2647 12.4921 11.2656 12.4418C11.2812 12.311 11.2695 12.1694 11.2686 12.0373C10.9381 12.0419 10.6421 11.9731 10.3223 11.9016C10.5176 11.667 10.7097 11.4129 10.9376 11.2092C11.0936 11.1804 11.2601 11.1792 11.4184 11.1664C11.6252 11.1501 11.8275 11.1229 12.0317 11.0871C12.353 11.0046 12.6524 10.9007 12.9605 10.7784C13.0338 10.6316 13.1234 10.4976 13.2429 10.3839C13.418 10.2173 13.6527 10.0982 13.898 10.1043L13.9102 10.0977Z" fill="#3EA768"/>
<path d="M18.4324 13.8406C18.5038 13.8411 18.5573 13.8472 18.6101 13.9009C18.6441 13.9356 18.6582 13.9815 18.6535 14.0296C18.645 14.1146 18.593 14.1581 18.5279 14.2051C18.5158 14.2046 18.5037 14.2039 18.4916 14.2029C18.4314 14.1978 18.3716 14.1764 18.3352 14.1249C18.3066 14.0847 18.2943 14.0414 18.3041 13.9923C18.3196 13.9154 18.3689 13.8794 18.4324 13.8406Z" fill="#F9DE18"/>
<path d="M16.3556 12.9292C16.3845 12.9268 16.4153 12.9236 16.4443 12.9268C16.4901 12.9317 16.5381 12.9623 16.5645 12.9994C16.5916 13.0374 16.6005 13.0829 16.5928 13.1287C16.5799 13.2065 16.5387 13.2459 16.477 13.29C16.408 13.2954 16.3496 13.2929 16.2963 13.243C16.2596 13.2087 16.2439 13.1602 16.2463 13.1109C16.2505 13.026 16.2938 12.9818 16.3556 12.9292Z" fill="#F9DE18"/>
<path d="M12.0342 13.41L12.056 13.4008C12.2834 13.5773 12.462 13.9059 12.4966 14.1918C12.4995 14.2168 12.5017 14.2421 12.5029 14.2674C12.5042 14.2927 12.5046 14.3181 12.5043 14.3434C12.5039 14.3687 12.5027 14.394 12.5006 14.4192C12.4986 14.4444 12.4956 14.4696 12.492 14.4946C12.4882 14.5198 12.4837 14.5447 12.4783 14.5693C12.473 14.5941 12.4669 14.6187 12.4598 14.6431C12.4528 14.6674 12.445 14.6915 12.4365 14.7153C12.4279 14.7391 12.4185 14.7627 12.4085 14.7859L12.4002 14.7871C12.3704 14.7706 12.3419 14.7487 12.3136 14.7296L12.3355 14.6613C12.3841 14.5684 12.4122 14.4413 12.418 14.3372C12.4388 13.9744 12.271 13.6705 12.0342 13.41Z" fill="#21633D"/>
<path d="M13.4173 13.4527C13.489 13.4625 13.5667 13.4795 13.6087 13.5455C13.6366 13.5893 13.6436 13.6347 13.6299 13.6843C13.6077 13.7639 13.5468 13.8047 13.479 13.8438C13.449 13.8413 13.4172 13.8389 13.3888 13.8279C13.339 13.8088 13.2947 13.7663 13.2731 13.7176C13.2706 13.7117 13.2682 13.7056 13.2663 13.6994C13.2644 13.6932 13.2628 13.687 13.2615 13.6806C13.2602 13.6742 13.2593 13.6678 13.2586 13.6614C13.258 13.6549 13.2577 13.6485 13.2578 13.642C13.2578 13.6354 13.2582 13.6289 13.259 13.6225C13.2597 13.616 13.2608 13.6097 13.2622 13.6034C13.2635 13.5971 13.2653 13.5908 13.2673 13.5846C13.2695 13.5785 13.2718 13.5725 13.2745 13.5665C13.3046 13.4998 13.3534 13.4788 13.4173 13.4527Z" fill="#F9DE18"/>
<path d="M14.6792 12.9483C14.7045 12.9462 14.7307 12.9435 14.7563 12.9442C14.8162 12.9462 14.8687 12.9681 14.9102 13.0119C14.9508 13.0552 14.9658 13.1057 14.9599 13.1646C14.9515 13.2475 14.8904 13.3007 14.8271 13.3456C14.7921 13.3507 14.7577 13.3567 14.7225 13.3515C14.6656 13.343 14.6101 13.3099 14.5778 13.2621C14.544 13.2123 14.5362 13.1504 14.5513 13.0927C14.5706 13.0182 14.6169 12.9881 14.6792 12.9483Z" fill="white"/>
<path d="M12.0316 11.0872C12.3529 11.0048 12.6524 10.9009 12.9604 10.7786C12.9262 10.8758 12.9035 10.998 12.8601 11.0888C12.4276 11.5394 11.9231 11.9258 11.2951 12.0344C11.2956 12.1783 11.3155 12.3514 11.2858 12.4912L11.2655 12.442C11.2811 12.3111 11.2695 12.1696 11.2685 12.0375C10.9381 12.042 10.642 11.9733 10.3223 11.9018C10.5176 11.667 10.7097 11.413 10.9376 11.2094C11.0936 11.1806 11.2601 11.1793 11.4183 11.1666C11.6252 11.1501 11.8274 11.123 12.0316 11.0872Z" fill="#2A8856"/>
<path d="M15.0156 10.6371C15.8572 11.0718 16.1357 11.2295 17.1146 11.2662C17.4153 11.7284 17.8107 12.2177 18.1806 12.627C18.3168 12.778 18.4672 12.9172 18.6019 13.0689L18.5758 13.0801C18.4206 13.0702 18.2495 13.0127 18.0979 12.9757C17.2489 12.7687 16.4688 12.4087 15.8363 11.7919C15.6003 11.5618 15.4284 11.2692 15.1898 11.0487L15.1737 11.0339C15.1377 10.9119 15.0887 10.7955 15.0325 10.6816L15.0156 10.6371Z" fill="#2A8856"/>
<path d="M13.9106 10.0973L14.1686 10.1175L14.2651 10.1167C14.5168 10.1724 14.6999 10.2781 14.8731 10.4701C14.9213 10.5235 14.9643 10.5884 15.0162 10.6374L15.0331 10.682C15.0893 10.7959 15.1384 10.9122 15.1742 11.0342C15.2197 11.3677 15.186 11.6691 14.9777 11.9443C14.9175 12.0239 14.846 12.0946 14.7696 12.1586C14.5449 12.3447 14.2467 12.4184 13.9594 12.3995C13.6403 12.3785 13.3657 12.244 13.157 12.0008C12.9333 11.74 12.8346 11.4287 12.8605 11.0882C12.9039 10.9975 12.9266 10.8752 12.9608 10.7781C13.0341 10.6312 13.1238 10.4971 13.2433 10.3836C13.4184 10.2168 13.6531 10.0978 13.8983 10.1039L13.9106 10.0973Z" fill="#EE2539"/>
<path d="M14.2276 10.3412C14.2445 10.341 14.249 10.3405 14.2648 10.3416C14.4441 10.3532 14.6205 10.4621 14.7362 10.5957C14.8177 10.6897 14.8842 10.8095 14.8739 10.9376C14.8669 11.0241 14.8413 11.0656 14.7768 11.1221C14.7483 11.12 14.7448 11.1206 14.717 11.1158C14.6918 11.1114 14.6691 11.102 14.6493 11.085C14.5985 11.0415 14.1827 10.6023 14.1632 10.5702C14.1338 10.5217 14.1225 10.464 14.1438 10.4096C14.1612 10.3655 14.1877 10.3599 14.2276 10.3412Z" fill="#F68185"/>
<path d="M12.9608 10.779C13.0341 10.6322 13.1237 10.4982 13.2431 10.3845C13.4184 10.2178 13.6531 10.0987 13.8983 10.1048C13.6654 10.1972 13.4521 10.3854 13.3501 10.6156C13.2348 10.8759 13.2554 11.1874 13.3596 11.4478C13.4742 11.734 13.7139 12.0013 14.0003 12.1223C14.3389 12.2653 14.45 12.1674 14.7695 12.1596C14.5448 12.3456 14.2467 12.4193 13.9593 12.4005C13.6402 12.3795 13.3656 12.2448 13.157 12.0017C12.9333 11.741 12.8346 11.4296 12.8605 11.0892C12.9039 10.9984 12.9266 10.8763 12.9608 10.779Z" fill="#E01E32"/>
<path d="M17.5865 19.0497C17.9672 19.3044 18.3598 19.474 18.8091 19.5716C18.9256 19.5969 19.4768 19.663 19.533 19.7065C19.6905 19.9264 19.8684 20.1299 20.031 20.346C20.3172 20.6914 20.6059 21.0528 20.9262 21.3665C20.659 21.5381 20.3502 21.625 20.0778 21.7819L20.0451 21.9628L20.0086 22.1319C19.8443 22.4329 19.6065 22.6671 19.2699 22.7637C18.9482 22.856 18.6449 22.7883 18.3547 22.6352L18.33 22.6491C18.1636 22.7467 17.8854 22.7674 17.6947 22.8007C17.3994 22.8542 17.1031 22.9006 16.8056 22.9396C16.5081 22.9787 16.2099 23.0105 15.9109 23.035C15.6118 23.0595 15.3124 23.0767 15.0125 23.0866C14.7126 23.0965 14.4127 23.0991 14.1127 23.0944C13.1403 23.0792 12.2094 22.9669 11.2517 22.8097C11.0701 22.78 10.6565 22.7606 10.5273 22.6271L10.512 22.6159L10.4487 22.6394L10.4529 22.6103C10.3527 22.6159 10.2824 22.6112 10.1924 22.5637C10.1883 22.5651 10.1844 22.5671 10.1801 22.568C10.0904 22.587 9.88073 22.5091 9.78264 22.4815C8.80487 22.2062 7.91611 21.8138 7.02246 21.3388C7.08939 21.288 7.14878 21.208 7.20529 21.1449C7.4866 20.7683 7.81179 20.4141 8.11406 20.0537C8.23494 19.9117 8.34775 19.7615 8.46307 19.6149C8.46855 19.6131 8.47396 19.6112 8.47935 19.6094C8.82039 19.4989 9.08477 19.5105 9.36324 19.2423C9.61776 19.6572 10.0063 19.9257 10.4815 20.0371C10.9684 20.1513 11.4593 20.0625 11.8825 19.7981C12.1731 19.6165 12.3478 19.3895 12.5159 19.0968L12.5322 19.1235C12.5991 19.2353 12.6486 19.3578 12.714 19.4711C12.9132 19.8165 13.2071 20.0943 13.6008 20.1961C13.6771 20.2159 13.7497 20.2269 13.8289 20.2202C14.0096 20.1999 14.192 20.2462 14.3654 20.1842C14.7672 20.0406 14.979 19.6555 15.1496 19.2938C15.2323 19.4187 15.3167 19.5443 15.4143 19.6583C15.6754 19.9627 16.0392 20.1758 16.4451 20.2023C16.7248 20.2205 17.0096 20.1405 17.2204 19.952C17.4902 19.7107 17.5677 19.3978 17.5865 19.0497Z" fill="#2A8856"/>
<path d="M19.0911 20.1738C19.1612 20.1745 19.2003 20.2275 19.2468 20.2738C19.2363 20.3544 19.2292 20.4358 19.2209 20.5166C19.1698 20.5023 19.1154 20.4986 19.0626 20.4922L18.8953 20.4929C18.8851 20.4218 18.8529 20.3099 18.882 20.2446C18.9046 20.2304 18.9215 20.2226 18.9485 20.2201C19.0028 20.2151 19.0322 20.2117 19.0792 20.1818C19.0832 20.1792 19.0872 20.1764 19.0911 20.1738Z" fill="white"/>
<path d="M16.6071 21.2769C16.6359 21.2814 16.6664 21.2857 16.694 21.2954C16.7334 21.3093 16.777 21.3474 16.7941 21.386C16.818 21.44 16.8175 21.4919 16.7921 21.5445C16.7579 21.6155 16.706 21.6391 16.6356 21.667C16.6176 21.6641 16.5998 21.6611 16.5821 21.6567C16.5757 21.6551 16.5693 21.6532 16.563 21.651C16.5567 21.6487 16.5506 21.6462 16.5446 21.6433C16.5385 21.6404 16.5327 21.6373 16.5271 21.6338C16.5214 21.6303 16.5159 21.6265 16.5106 21.6225C16.5054 21.6184 16.5003 21.6141 16.4954 21.6095C16.4905 21.6049 16.486 21.6001 16.4816 21.595C16.4773 21.59 16.4732 21.5847 16.4694 21.5793C16.4656 21.5738 16.4621 21.5681 16.4589 21.5623C16.4344 21.517 16.4343 21.4641 16.4518 21.4165C16.4801 21.3397 16.5364 21.3094 16.6071 21.2769Z" fill="white"/>
<path d="M8.98791 20.498C9.06597 20.5223 9.11533 20.5496 9.17603 20.6036C9.17817 20.6379 9.18018 20.6724 9.17437 20.7063C9.16393 20.7665 9.13732 20.8353 9.08138 20.8667C9.04232 20.8886 8.99759 20.8927 8.95473 20.8821C8.88863 20.8658 8.83035 20.8215 8.80014 20.7601C8.77885 20.717 8.77705 20.6688 8.79807 20.6247C8.83547 20.5465 8.91145 20.5218 8.98791 20.498Z" fill="#F9DE18"/>
<path d="M11.4918 21.4769C11.5146 21.4772 11.5357 21.4796 11.5582 21.4838C11.6132 21.4943 11.6667 21.5335 11.6943 21.5821C11.7204 21.6281 11.724 21.6827 11.7082 21.7329C11.6832 21.8122 11.6278 21.8454 11.5562 21.8789C11.5255 21.8775 11.4937 21.875 11.464 21.8662C11.4151 21.8517 11.3618 21.81 11.3399 21.7631C11.3184 21.7172 11.3166 21.6682 11.3343 21.6208C11.3628 21.5444 11.4222 21.5107 11.4918 21.4769Z" fill="#F9DE18"/>
<path d="M7.2053 21.1449C8.07425 21.5839 8.94043 21.9422 9.88273 22.1875C9.98525 22.2141 10.1561 22.2816 10.2573 22.2749L10.2689 22.2386C10.3641 22.2382 10.4778 22.3661 10.584 22.3856C11.0652 22.4741 11.5416 22.5702 12.0272 22.6352C12.2257 22.661 12.4246 22.6836 12.6239 22.7032C12.8232 22.7227 13.0226 22.7391 13.2224 22.7524C13.4222 22.7656 13.6219 22.7757 13.8221 22.7827C14.0221 22.7897 14.2223 22.7935 14.4225 22.7942C14.6226 22.7949 14.8229 22.7924 15.0229 22.7868C15.2231 22.7813 15.423 22.7725 15.6229 22.7606C15.8227 22.7487 16.0224 22.7337 16.2218 22.7155C16.4211 22.6973 16.6201 22.676 16.8189 22.6516C17.2654 22.5983 17.7061 22.5158 18.15 22.446C18.2156 22.5116 18.2797 22.5804 18.3547 22.6352L18.33 22.6491C18.1636 22.7467 17.8854 22.7673 17.6946 22.8007C17.3994 22.8542 17.1031 22.9006 16.8056 22.9396C16.5082 22.9787 16.2099 23.0105 15.9109 23.035C15.6118 23.0595 15.3124 23.0767 15.0125 23.0866C14.7127 23.0965 14.4127 23.0991 14.1127 23.0944C13.1402 23.0792 12.2094 22.9669 11.2517 22.8098C11.0701 22.78 10.6565 22.7606 10.5273 22.6271L10.512 22.6158L10.4487 22.6394L10.4529 22.6103C10.3527 22.6158 10.2824 22.6112 10.1924 22.5637C10.1883 22.5651 10.1844 22.5671 10.1801 22.568C10.0904 22.587 9.88073 22.5091 9.78266 22.4815C8.80489 22.2062 7.91611 21.8138 7.02246 21.3388C7.08939 21.288 7.14879 21.208 7.2053 21.1449Z" fill="#94D897"/>
<path d="M10.2461 22.483C10.2798 22.4403 10.2909 22.4231 10.3462 22.4157C10.3921 22.4096 10.439 22.4118 10.4849 22.4069L10.5115 22.6161L10.4482 22.6396L10.4524 22.6106C10.4764 22.5908 10.4675 22.6034 10.4777 22.5718C10.4256 22.5337 10.3336 22.5388 10.2684 22.5221L10.2461 22.483Z" fill="#4FBA78"/>
<path d="M20.0301 20.347C20.3163 20.6924 20.605 21.0538 20.9254 21.3675C20.6581 21.5391 20.3493 21.626 20.077 21.7829L20.0442 21.9638L20.0078 22.133C19.8434 22.4339 19.6057 22.6682 19.2691 22.7648C18.9473 22.857 18.644 22.7893 18.3539 22.6362C18.2788 22.5814 18.2148 22.5126 18.1491 22.447C18.1065 22.3995 18.0684 22.3488 18.0345 22.2947C18.0008 22.2406 17.9717 22.1841 17.9477 22.1251C17.8333 21.8448 17.8236 21.5155 17.9419 21.2348C18.0623 20.9493 18.2946 20.7432 18.5778 20.6259C18.6583 20.5887 18.7523 20.5775 18.8366 20.5471C18.8475 20.5115 18.8386 20.5268 18.8619 20.5004L18.8753 20.532C18.9551 20.5713 19.1043 20.5433 19.1975 20.5544C19.2643 20.5622 19.3313 20.5874 19.3949 20.6084C19.5135 20.5331 19.6431 20.4773 19.7699 20.417C19.855 20.3886 19.9447 20.3771 20.0301 20.347Z" fill="#EBA425"/>
<path d="M19.2691 20.7563C19.3788 20.7728 19.4773 20.8025 19.5695 20.8662C19.7977 21.0239 19.8805 21.2754 19.9256 21.5349C19.9071 21.5831 19.8897 21.6354 19.8625 21.6795C19.8311 21.7307 19.7926 21.7428 19.738 21.7549C19.6722 21.7509 19.6094 21.7454 19.5465 21.7248C19.3593 21.6635 19.2037 21.5137 19.1201 21.3373C19.065 21.2209 19.0199 21.0624 19.0687 20.9364C19.108 20.8354 19.1729 20.796 19.2691 20.7563Z" fill="#F6BE43"/>
<path d="M20.0307 20.3464C20.3169 20.6918 20.6057 21.0532 20.926 21.3669C20.6587 21.5384 20.35 21.6254 20.0776 21.7822C20.0862 21.6042 20.0796 21.4433 20.0201 21.2737C19.9109 20.9617 19.6881 20.749 19.3955 20.6078C19.5141 20.5324 19.6437 20.4766 19.7705 20.4164C19.8556 20.3879 19.9453 20.3765 20.0307 20.3464Z" fill="#2A8856"/>
<path d="M18.5778 20.6259C18.574 20.6338 18.5704 20.6418 18.5665 20.6497C18.5274 20.7298 18.4636 20.7977 18.4204 20.8765C18.2986 21.0982 18.2998 21.3773 18.3771 21.6143C18.4554 21.8551 18.6189 22.0569 18.8457 22.173C19.046 22.2755 19.3474 22.3231 19.5644 22.2496C19.7196 22.1971 19.9143 21.9751 20.0443 21.9638L20.0079 22.133C19.8434 22.4339 19.6057 22.6682 19.2691 22.7648C18.9472 22.857 18.644 22.7893 18.3539 22.6362C18.2788 22.5814 18.2147 22.5126 18.1491 22.447C18.1066 22.3995 18.0684 22.3487 18.0345 22.2947C18.0007 22.2406 17.9718 22.1841 17.9476 22.1251C17.8333 21.8448 17.8236 21.5155 17.9419 21.2348C18.0622 20.9492 18.2945 20.7432 18.5778 20.6259Z" fill="#ED7117"/>
<path d="M17.5868 19.0498C17.9674 19.3045 18.36 19.4741 18.8093 19.5717C18.9258 19.597 19.4769 19.6631 19.5331 19.7065C19.6908 19.9265 19.8687 20.13 20.0311 20.346C19.9457 20.3761 19.856 20.3876 19.771 20.416C19.736 20.3379 19.0584 19.9891 18.8965 19.7848C18.7368 19.9535 18.528 20.0838 18.3362 20.2136C17.4968 20.7818 16.5408 21.0401 15.5524 21.2069C15.3323 21.244 15.1069 21.2591 14.8881 21.3002C14.8989 21.3614 14.9104 21.4227 14.9192 21.4844C14.9445 21.5705 14.9556 21.6478 14.9497 21.7377C14.934 21.9839 14.8191 22.2312 14.6313 22.393C14.398 22.594 14.1044 22.6551 13.8035 22.6322C13.5213 22.6107 13.277 22.5034 13.0935 22.2839C12.8662 22.0117 12.8095 21.6943 12.8417 21.3502C11.9197 21.2526 11.1805 21.1944 10.2754 20.9483C10.0511 20.8873 9.82666 20.8082 9.60881 20.7272C9.49857 20.6863 9.38002 20.6289 9.2661 20.6015C9.23599 20.5942 9.20748 20.5992 9.17729 20.6037C9.11654 20.5497 9.06718 20.5224 8.98918 20.4981C8.89021 20.4382 8.76683 20.3982 8.66128 20.3476C8.47439 20.2578 8.29394 20.1572 8.11426 20.0538C8.23511 19.9118 8.34793 19.7615 8.46326 19.6149C8.46873 19.6131 8.47413 19.6112 8.47954 19.6095C8.82057 19.499 9.08495 19.5105 9.36341 19.2423C9.61794 19.6573 10.0065 19.9258 10.4817 20.0372C10.9686 20.1513 11.4594 20.0625 11.8827 19.7981C12.1732 19.6165 12.3479 19.3896 12.5161 19.0969L12.5323 19.1235C12.5993 19.2354 12.6489 19.3578 12.7143 19.4712C12.9133 19.8166 13.2073 20.0943 13.6009 20.1961C13.6772 20.2159 13.7498 20.2269 13.829 20.2202C14.0098 20.1999 14.1921 20.2462 14.3656 20.1842C14.7674 20.0407 14.9792 19.6555 15.1498 19.2938C15.2325 19.4188 15.3169 19.5443 15.4145 19.6583C15.6755 19.9628 16.0394 20.1759 16.4453 20.2023C16.725 20.2205 17.0098 20.1405 17.2205 19.952C17.4904 19.7108 17.5679 19.3978 17.5868 19.0498Z" fill="#21633D"/>
<path d="M13.8464 20.2447C13.9423 20.2534 14.0343 20.2502 14.1303 20.2452L14.1308 20.5381C14.0217 20.5357 13.9023 20.5239 13.7966 20.5566L13.7746 20.531C13.7695 20.4526 13.7557 20.3405 13.7905 20.2695C13.801 20.248 13.825 20.2501 13.8464 20.2447Z" fill="white"/>
<path d="M14.4945 22.3018C14.3332 22.4402 14.1018 22.5165 13.8909 22.5022C13.6394 22.4852 13.3982 22.356 13.2374 22.1632C13.0738 21.9668 13.0043 21.7171 13.0309 21.4636C13.0591 21.196 13.1852 20.9687 13.395 20.8012C13.396 20.8107 13.3972 20.8202 13.3977 20.8298C13.4029 20.9206 13.3261 21.044 13.2979 21.1324C13.1934 21.4602 13.323 21.8171 13.5637 22.0501C13.7271 22.2082 13.9765 22.3364 14.2076 22.3309C14.3032 22.3288 14.4 22.2981 14.4945 22.3018Z" fill="#D01E25"/>
<path d="M14.0027 20.5843C14.2607 20.5979 14.5054 20.7011 14.6774 20.8982C14.7783 21.0138 14.8467 21.154 14.8889 21.3009C14.8997 21.3622 14.9113 21.4235 14.92 21.4851C14.9177 21.7525 14.8268 21.9993 14.6349 22.1894C14.5957 22.2281 14.5438 22.2763 14.4958 22.3027C14.4013 22.2991 14.3045 22.3297 14.2089 22.3319C13.9777 22.3373 13.7284 22.2091 13.5651 22.051C13.3244 21.818 13.1947 21.4611 13.2991 21.1334C13.3274 21.0449 13.4042 20.9216 13.399 20.8307C13.3985 20.8212 13.3973 20.8116 13.3964 20.8021C13.5813 20.6644 13.775 20.6028 14.0027 20.5843Z" fill="#E01E32"/>
<path d="M14.7205 21.2422C14.7655 21.3465 14.7908 21.4542 14.7893 21.5682C14.7882 21.6392 14.777 21.6994 14.7227 21.749C14.639 21.8254 14.5287 21.8617 14.4173 21.8558C14.2372 21.8464 14.097 21.7934 13.9766 21.6531C13.8437 21.4981 13.7967 21.2999 13.817 21.0996C13.8282 20.9883 13.859 20.8627 13.9522 20.7911C14.0192 20.7396 14.0752 20.7353 14.1569 20.7431C14.4172 20.8281 14.5775 20.9604 14.7017 21.2043C14.708 21.2169 14.7144 21.2296 14.7205 21.2422Z" fill="#F15863"/>
<path d="M14.7198 21.2421C14.7058 21.3283 14.6942 21.4167 14.6199 21.4733C14.5722 21.5098 14.5105 21.5219 14.452 21.5105C14.333 21.4874 14.2273 21.3933 14.1637 21.2937C14.09 21.1781 14.0615 21.039 14.0949 20.9055C14.1069 20.8578 14.1149 20.8115 14.1216 20.7628L14.1562 20.743C14.4165 20.8279 14.5768 20.9602 14.701 21.2042C14.7072 21.2168 14.7136 21.2294 14.7198 21.2421Z" fill="#F68185"/>
<path d="M12.4092 14.7855C12.5001 14.9438 12.9922 15.2543 13.1566 15.337C13.2739 15.3963 13.3961 15.4432 13.523 15.4775C13.8783 15.5734 14.2233 15.5394 14.5434 15.3515C14.9432 15.1165 15.0043 14.8656 15.1789 14.4682C15.4063 14.8838 15.6918 15.2018 16.1613 15.339C16.1816 15.345 16.2023 15.3504 16.2229 15.3553C16.2435 15.3602 16.2643 15.3646 16.2852 15.3684C16.3061 15.3723 16.327 15.3756 16.3481 15.3784C16.3692 15.3813 16.3902 15.3835 16.4115 15.3853C16.4327 15.3871 16.4537 15.3883 16.475 15.3889C16.4963 15.3896 16.5175 15.3898 16.5386 15.3894C16.5598 15.389 16.5812 15.3881 16.6023 15.3867C16.6235 15.3852 16.6447 15.3832 16.6658 15.3807C16.6868 15.3782 16.7079 15.3752 16.7288 15.3716C16.7497 15.3681 16.7705 15.3639 16.7913 15.3594C16.8121 15.3547 16.8327 15.3497 16.8531 15.344C16.8736 15.3383 16.8939 15.3322 16.9141 15.3255C16.9341 15.3188 16.9542 15.3117 16.974 15.304C16.9937 15.2964 17.0135 15.2882 17.0327 15.2796C17.0522 15.2709 17.0713 15.2617 17.0903 15.2522C17.1093 15.2426 17.1279 15.2325 17.1465 15.2219C17.2539 15.1616 17.3455 15.0877 17.4135 14.984L17.4295 14.96C17.4326 14.9553 17.4357 14.9503 17.4387 14.9454C17.6427 15.0724 17.836 15.1259 18.0711 15.1714C18.1447 15.1532 18.2655 15.1512 18.3376 15.1777L18.3741 15.2049L18.3743 15.222C18.3988 15.4019 18.6339 15.6071 18.7465 15.7516C19.6451 16.9055 20.7309 18.1298 21.897 19.015C22.0173 19.1063 22.1406 19.1971 22.2685 19.2776C21.6295 19.6128 20.8566 19.7372 20.1391 19.7346C19.9368 19.7338 19.7349 19.7082 19.5336 19.707C19.4774 19.6636 18.9264 19.5975 18.8098 19.5722C18.3605 19.4745 17.9678 19.305 17.5872 19.0502C17.5684 19.3983 17.491 19.7112 17.2212 19.9525C17.0103 20.141 16.7255 20.221 16.4458 20.2028C16.04 20.1764 15.676 19.9633 15.4151 19.6588C15.3174 19.5448 15.2331 19.4193 15.1502 19.2943C14.9797 19.656 14.7678 20.0411 14.366 20.1847C14.1927 20.2467 14.0102 20.2004 13.8294 20.2207C13.7504 20.2274 13.6778 20.2164 13.6014 20.1966C13.2077 20.0948 12.9139 19.8171 12.7147 19.4717C12.6493 19.3583 12.5998 19.2358 12.5328 19.124L12.5167 19.0973C12.3484 19.39 12.1738 19.617 11.8832 19.7986C11.4599 20.063 10.9691 20.1518 10.4822 20.0377C10.007 19.9263 9.61844 19.6578 9.36391 19.2428C9.08544 19.511 8.82106 19.4994 8.48002 19.61C8.47463 19.6117 8.46922 19.6136 8.46375 19.6154C7.53006 19.741 6.70249 19.6571 5.87402 19.1726C6.39809 18.7332 6.89126 18.2716 7.34645 17.7607L7.54293 17.5454C8.03745 16.9971 8.51781 16.4367 8.98387 15.8641C9.20984 15.5837 9.4437 15.3038 9.6465 15.0062C9.88886 15.005 10.1156 14.9902 10.3519 14.934L10.395 14.9914C10.6346 15.2426 10.916 15.4118 11.2718 15.4192C11.4651 15.4233 11.6457 15.3724 11.8178 15.2867C12.0542 15.1484 12.1827 14.9654 12.3143 14.7292C12.3427 14.7483 12.3711 14.7703 12.401 14.7867L12.4092 14.7855Z" fill="#2A8856"/>
<path d="M18.2445 16.1065L18.6006 16.1058C18.5872 16.1996 18.5766 16.292 18.5711 16.3867C18.4957 16.3767 18.3213 16.398 18.2656 16.3604C18.2338 16.2885 18.2454 16.1848 18.2445 16.1065Z" fill="white"/>
<path d="M19.7985 18.3521C19.8198 18.3505 19.8411 18.349 19.8626 18.3489C19.9138 18.3488 19.9685 18.3689 20.0026 18.4088C20.0357 18.4475 20.0508 18.4906 20.0446 18.541C20.0348 18.6188 19.9931 18.6618 19.9352 18.7099C19.9063 18.7123 19.8751 18.7147 19.8463 18.711C19.7968 18.7047 19.7445 18.6711 19.7155 18.6311C19.6856 18.5898 19.6765 18.5408 19.6865 18.491C19.7009 18.4196 19.7416 18.3906 19.7985 18.3521Z" fill="#F9DE18"/>
<path d="M15.5767 18.0207C15.6096 18.0228 15.6434 18.0254 15.6746 18.0369C15.7144 18.0515 15.7493 18.0853 15.7672 18.1234C15.7892 18.1706 15.7857 18.2257 15.7661 18.273C15.7364 18.3449 15.6835 18.3746 15.6144 18.4023C15.542 18.3863 15.4776 18.3632 15.4387 18.2952C15.4142 18.2525 15.4092 18.2038 15.4253 18.1571C15.4516 18.0801 15.5066 18.0529 15.5767 18.0207Z" fill="#F9DE18"/>
<path d="M18.9641 18.15C18.9157 18.2358 18.8442 18.2951 18.7589 18.3432C18.5233 18.4758 18.2115 18.4976 17.9537 18.4244C17.6922 18.3501 17.4551 18.1691 17.324 17.93C17.1963 17.6969 17.1715 17.388 17.2536 17.1359C17.3271 16.9104 17.5398 16.6714 17.755 16.5693C17.8243 16.5364 17.8533 16.5398 17.922 16.5658C17.8558 16.614 17.7913 16.6594 17.7344 16.7189C17.5531 16.9097 17.4349 17.1483 17.4418 17.4166C17.4485 17.6805 17.5751 17.9292 17.7691 18.1054C17.9506 18.2706 18.1841 18.3418 18.4264 18.3279C18.6248 18.3166 18.7922 18.2444 18.9641 18.15Z" fill="#21633D"/>
<path d="M17.7335 16.7194C17.6496 17.0842 17.6209 17.3796 17.8315 17.7128C17.9436 17.89 18.1082 18.0154 18.3137 18.0638C18.5142 18.1111 18.7603 18.0868 18.9359 17.9737C19.037 17.9086 19.1526 17.7615 19.2578 17.7263C19.1872 17.8908 19.0847 18.0208 18.9631 18.1505C18.7912 18.2449 18.6238 18.3171 18.4254 18.3284C18.1831 18.3422 17.9496 18.271 17.768 18.1058C17.574 17.9296 17.4475 17.681 17.4407 17.417C17.4339 17.1489 17.5522 16.91 17.7335 16.7194Z" fill="#D01E25"/>
<mask id="mask0_5504_63869" style="mask-type:luminance" maskUnits="userSpaceOnUse" x="9" y="18" width="2" height="2">
<path d="M9.91983 18.0826C9.9634 18.0751 10.0074 18.0713 10.0516 18.0713C10.0958 18.0712 10.1398 18.0748 10.1834 18.0822C10.1961 18.086 10.2086 18.0901 10.2211 18.0946C10.2335 18.099 10.2459 18.1037 10.258 18.1087C10.2703 18.1138 10.2823 18.1191 10.2943 18.1247C10.3062 18.1304 10.318 18.1364 10.3297 18.1426C10.3413 18.1488 10.3528 18.1553 10.3641 18.1621C10.3754 18.169 10.3865 18.176 10.3976 18.1834C10.4085 18.1907 10.4193 18.1984 10.4299 18.2062C10.4405 18.2141 10.4508 18.2223 10.4611 18.2307C10.4712 18.2391 10.4812 18.2477 10.4909 18.2567C10.5007 18.2656 10.5102 18.2747 10.5195 18.2841C10.5288 18.2935 10.5379 18.3031 10.5467 18.3129C10.5555 18.3228 10.5641 18.3328 10.5724 18.343C10.5807 18.3533 10.5888 18.3638 10.5966 18.3744C10.6044 18.3851 10.6119 18.3959 10.6192 18.407C10.6264 18.418 10.6334 18.4292 10.6401 18.4406C10.6468 18.452 10.6532 18.4635 10.6594 18.4752C10.7453 18.6377 10.765 18.8208 10.7065 18.9959C10.683 19.0661 10.6498 19.1286 10.6093 19.1901C10.5365 19.2888 10.4436 19.3729 10.3323 19.426C10.322 19.4307 10.3117 19.4353 10.3012 19.4395C10.2907 19.4438 10.2802 19.4478 10.2695 19.4516C10.2589 19.4553 10.2481 19.4588 10.2372 19.462C10.2264 19.4652 10.2155 19.4682 10.2045 19.4708C10.1935 19.4735 10.1825 19.4759 10.1714 19.478C10.1603 19.4802 10.1491 19.482 10.1379 19.4836C10.1267 19.4852 10.1155 19.4865 10.1043 19.4875C10.093 19.4885 10.0818 19.4892 10.0704 19.4897C10.0592 19.4901 10.0478 19.4903 10.0366 19.4902C10.0252 19.4901 10.0139 19.4897 10.0027 19.4891C9.9914 19.4884 9.98014 19.4875 9.96887 19.4863C9.95768 19.485 9.94648 19.4835 9.93528 19.4817C9.92414 19.48 9.91301 19.4779 9.90194 19.4756C9.89087 19.4733 9.87987 19.4706 9.86893 19.4678C9.85805 19.4649 9.84717 19.4617 9.83636 19.4583C9.82561 19.4549 9.81493 19.4513 9.80431 19.4473C9.61594 19.3785 9.46811 19.2313 9.38941 19.0477C9.31842 18.8822 9.30941 18.6949 9.37782 18.5268C9.47403 18.2907 9.67669 18.1702 9.90033 18.0778L9.91983 18.0826Z" fill="white"/>
</mask>
<g mask="url(#mask0_5504_63869)">
<path d="M9.91887 18.0827C9.9624 18.0751 10.0064 18.0713 10.0506 18.0712C10.0949 18.0712 10.1388 18.0748 10.1825 18.0822C10.1951 18.086 10.2076 18.0901 10.2201 18.0945C10.2326 18.099 10.2449 18.1037 10.257 18.1087C10.2693 18.1138 10.2813 18.1192 10.2932 18.1248C10.3053 18.1304 10.317 18.1364 10.3287 18.1426C10.3403 18.1488 10.3518 18.1553 10.3631 18.1622C10.3744 18.1689 10.3856 18.176 10.3966 18.1834C10.4075 18.1907 10.4183 18.1984 10.4289 18.2062C10.4395 18.2141 10.4499 18.2223 10.4601 18.2306C10.4703 18.2391 10.4803 18.2477 10.49 18.2567C10.4997 18.2656 10.5092 18.2747 10.5185 18.2841C10.5279 18.2935 10.537 18.3031 10.5458 18.3129C10.5546 18.3227 10.5632 18.3328 10.5714 18.343C10.5798 18.3534 10.5878 18.3637 10.5956 18.3745C10.6034 18.3852 10.6109 18.3959 10.6182 18.407C10.6254 18.418 10.6324 18.4292 10.6391 18.4406C10.6458 18.452 10.6523 18.4635 10.6584 18.4752C10.7444 18.6377 10.764 18.8209 10.7055 18.9959C10.682 19.0661 10.6488 19.1286 10.6083 19.1901C10.5355 19.2888 10.4426 19.3729 10.3313 19.426C10.321 19.4308 10.3107 19.4353 10.3003 19.4396C10.2898 19.4438 10.2792 19.4478 10.2685 19.4516C10.2579 19.4553 10.2471 19.4588 10.2363 19.462C10.2255 19.4652 10.2145 19.4682 10.2036 19.4708C10.1926 19.4735 10.1815 19.4759 10.1704 19.4781C10.1593 19.4802 10.1482 19.482 10.137 19.4837C10.1257 19.4851 10.1146 19.4865 10.1033 19.4875C10.092 19.4885 10.0808 19.4892 10.0695 19.4897C10.0582 19.4901 10.0469 19.4903 10.0356 19.4902C10.0243 19.4901 10.0129 19.4898 10.0017 19.4891C9.99042 19.4884 9.97917 19.4875 9.96791 19.4862C9.95673 19.4851 9.94548 19.4835 9.9343 19.4817C9.9232 19.48 9.91202 19.4779 9.901 19.4756C9.8899 19.4733 9.87888 19.4707 9.86794 19.4678C9.85708 19.4649 9.84621 19.4618 9.83535 19.4584C9.82464 19.4549 9.81394 19.4513 9.80331 19.4474C9.61494 19.3785 9.46711 19.2313 9.3884 19.0477C9.31747 18.8822 9.30842 18.6949 9.37683 18.5269C9.47302 18.2907 9.67571 18.1703 9.89935 18.0779L9.91887 18.0827Z" fill="url(#paint0_linear_5504_63869)"/>
</g>
<path d="M9.92131 18.0829C9.96485 18.0754 10.0088 18.0716 10.053 18.0716C10.0973 18.0715 10.1413 18.0751 10.1849 18.0825C10.1975 18.0863 10.2101 18.0904 10.2225 18.0948C10.235 18.0993 10.2473 18.104 10.2595 18.109C10.2717 18.1141 10.2837 18.1194 10.2957 18.125C10.3077 18.1307 10.3195 18.1366 10.3311 18.1429C10.3428 18.1491 10.3542 18.1556 10.3655 18.1624C10.3769 18.1692 10.388 18.1762 10.399 18.1836C10.4099 18.191 10.4208 18.1986 10.4313 18.2065C10.4419 18.2144 10.4523 18.2226 10.4625 18.231C10.4727 18.2394 10.4827 18.248 10.4924 18.2569C10.5022 18.2658 10.5117 18.275 10.521 18.2844C10.5303 18.2938 10.5393 18.3034 10.5482 18.3132C10.557 18.3231 10.5655 18.3331 10.5739 18.3434C10.5822 18.3536 10.5902 18.364 10.5981 18.3748C10.6058 18.3854 10.6134 18.3962 10.6207 18.4073C10.6278 18.4183 10.6349 18.4295 10.6416 18.4409C10.6483 18.4523 10.6547 18.4638 10.6608 18.4755C10.7468 18.6379 10.7665 18.8211 10.7079 18.9963C10.6845 19.0664 10.6513 19.1288 10.6107 19.1904C10.4582 19.1557 10.3264 19.119 10.2022 19.0168C10.001 18.8514 9.89481 18.6011 9.9236 18.3423C9.93117 18.2747 9.96335 18.1948 9.95452 18.1278C9.95034 18.0964 9.9449 18.1007 9.92131 18.0829Z" fill="#EAAF95"/>
<path d="M10.2871 18.2636C10.2984 18.266 10.313 18.2687 10.3244 18.2726C10.4124 18.303 10.5464 18.3835 10.5826 18.473C10.6008 18.5176 10.5858 18.5516 10.57 18.5938C10.5479 18.6048 10.5342 18.6105 10.509 18.6122C10.4703 18.6146 10.4235 18.584 10.396 18.5577C10.3126 18.4777 10.2869 18.3747 10.2871 18.2636Z" fill="#FDF0F8"/>
<path d="M17.9214 16.5656C17.9892 16.5289 18.0645 16.4804 18.1381 16.4584C18.2979 16.4107 18.5362 16.4115 18.6941 16.4575C18.9224 16.5241 19.1099 16.6967 19.22 16.9044C19.3314 17.1141 19.3745 17.3923 19.3027 17.6214C19.2911 17.6584 19.2767 17.6917 19.2581 17.7256C19.1531 17.7608 19.0373 17.9079 18.9363 17.973C18.7607 18.0861 18.5146 18.1104 18.314 18.0631C18.1086 18.0147 17.9439 17.8893 17.8319 17.7121C17.6213 17.3789 17.65 17.0835 17.7339 16.7187C17.7906 16.6591 17.8552 16.6138 17.9214 16.5656Z" fill="#E01E32"/>
<path d="M18.4564 16.5282C18.637 16.5236 18.7833 16.5737 18.9161 16.7015C18.9948 16.7775 19.0474 16.8606 19.0988 16.9561L19.1128 16.9817C19.1256 17.0059 19.1372 17.0307 19.1474 17.0562C19.1887 17.1622 19.2211 17.2768 19.1702 17.3858C19.1307 17.4702 19.0522 17.5235 18.9662 17.5525C18.8216 17.6013 18.6595 17.5771 18.5262 17.5072C18.5169 17.5024 18.5076 17.4973 18.4986 17.492C18.4894 17.4868 18.4804 17.4812 18.4717 17.4755C18.4628 17.4698 18.4541 17.4639 18.4455 17.4577C18.437 17.4516 18.4287 17.4452 18.4204 17.4386C18.4122 17.432 18.4042 17.4253 18.3962 17.4183C18.3884 17.4113 18.3807 17.4041 18.3732 17.3968C18.3656 17.3894 18.3583 17.3819 18.3511 17.3742C18.3441 17.3664 18.337 17.3586 18.3302 17.3505C18.3235 17.3424 18.3169 17.3342 18.3106 17.3258C18.3042 17.3175 18.2981 17.3089 18.2922 17.3002C18.2863 17.2915 18.2805 17.2827 18.275 17.2738C18.2696 17.2647 18.2642 17.2556 18.2592 17.2464C18.2541 17.2371 18.2493 17.2278 18.2447 17.2183C18.2401 17.2089 18.2358 17.1993 18.2318 17.1896C18.2276 17.1799 18.2238 17.1701 18.2201 17.1602C18.2165 17.1503 18.2131 17.1404 18.2099 17.1304C18.169 16.9955 18.1678 16.8185 18.2373 16.6924C18.2885 16.5993 18.3577 16.5585 18.4564 16.5282Z" fill="#F15863"/>
<path d="M18.4574 16.528C18.6381 16.5234 18.7844 16.5735 18.9171 16.7013C18.9959 16.7772 19.0485 16.8604 19.0998 16.9559L19.1139 16.9814C19.088 17.0698 19.0802 17.2137 18.9955 17.2673C18.9643 17.287 18.9246 17.2867 18.8897 17.2802C18.7241 17.2492 18.524 17.1017 18.4346 16.9637C18.3375 16.814 18.4232 16.6947 18.4548 16.541L18.4574 16.528Z" fill="#F68185"/>
<path d="M12.4095 14.7855C12.5003 14.9438 12.9925 15.2545 13.1568 15.3371C13.2742 15.3963 13.3963 15.4433 13.5233 15.4776C13.8785 15.5735 14.2235 15.5395 14.5437 15.3516C14.9435 15.1166 15.0046 14.8657 15.179 14.4682C15.4064 14.8839 15.6921 15.2019 16.1615 15.3391C16.1819 15.345 16.2024 15.3504 16.2231 15.3553C16.2437 15.3602 16.2645 15.3646 16.2854 15.3685C16.3063 15.3724 16.3273 15.3758 16.3483 15.3785C16.3694 15.3813 16.3905 15.3835 16.4117 15.3854C16.4329 15.3871 16.454 15.3883 16.4753 15.3889C16.4965 15.3897 16.5177 15.3898 16.5389 15.3894C16.5601 15.3891 16.5813 15.3882 16.6025 15.3867C16.6238 15.3853 16.6449 15.3833 16.666 15.3808C16.6871 15.3783 16.7081 15.3753 16.729 15.3716C16.75 15.3681 16.7707 15.364 16.7914 15.3595C16.8123 15.3548 16.8328 15.3497 16.8533 15.344C16.8739 15.3384 16.8942 15.3322 16.9143 15.3256C16.9345 15.3189 16.9544 15.3118 16.9742 15.3041C16.9941 15.2965 17.0136 15.2882 17.0331 15.2797C17.0525 15.2709 17.0716 15.2619 17.0905 15.2522C17.1095 15.2427 17.1282 15.2325 17.1466 15.222C17.2541 15.1616 17.3457 15.0877 17.4138 14.984L17.4297 14.9601C17.4329 14.9552 17.4359 14.9504 17.439 14.9455C17.6429 15.0724 17.8363 15.126 18.0713 15.1714C18.145 15.1532 18.2658 15.1512 18.3379 15.1778C18.3422 15.2179 18.3619 15.2795 18.3329 15.3127C18.2882 15.3641 18.1961 15.4157 18.1394 15.4572C17.832 15.6821 17.5321 15.8867 17.1964 16.0683C16.7276 16.3219 16.2555 16.5736 15.7664 16.7862C14.5495 17.3155 13.2263 17.6552 11.9155 17.8485C11.5208 17.9067 11.1197 17.9546 10.7214 17.9801C10.6053 17.9876 10.274 17.9663 10.1866 18.0092L10.1873 18.0826C10.1436 18.0752 10.0997 18.0716 10.0554 18.0716C10.0112 18.0717 9.96723 18.0755 9.92366 18.083L9.90415 18.0782C9.90275 18.0733 9.90275 18.0676 9.89979 18.0635C9.87442 18.0288 9.82345 18.0335 9.78413 18.0363C8.96481 18.0952 8.12798 18.0171 7.34668 17.7607L7.54316 17.5455C8.03769 16.9972 8.51805 16.4367 8.98412 15.8642C9.21007 15.5838 9.44394 15.3039 9.64674 15.0062C9.8891 15.0051 10.1158 14.9904 10.3521 14.934L10.3952 14.9915C10.6348 15.2427 10.9162 15.4118 11.272 15.4193C11.4653 15.4233 11.646 15.3724 11.818 15.2867C12.0543 15.1484 12.1829 14.9654 12.3145 14.7293C12.343 14.7484 12.3714 14.7703 12.4012 14.7869L12.4095 14.7855Z" fill="#2A8856"/>
<path d="M10.3877 16.15C10.416 16.15 10.4456 16.1494 10.4737 16.1537C10.5199 16.1609 10.5691 16.1981 10.5951 16.2363C10.6239 16.279 10.6318 16.33 10.6183 16.3795C10.5999 16.4473 10.5547 16.4789 10.4975 16.5143C10.4783 16.5152 10.459 16.516 10.4397 16.5155C10.3871 16.5137 10.3399 16.4921 10.305 16.4523C10.2716 16.414 10.2584 16.3659 10.2655 16.316C10.2776 16.2322 10.3211 16.1963 10.3877 16.15Z" fill="#F9DE18"/>
<path d="M12.8101 16.4013C12.8338 16.4019 12.8579 16.4023 12.8815 16.4059C12.9314 16.4133 12.9777 16.4462 13.0043 16.4886C13.0331 16.5344 13.039 16.5888 13.024 16.6405C13.0017 16.7165 12.9533 16.7497 12.8858 16.7842C12.8166 16.7797 12.7435 16.7676 12.6988 16.7077C12.6666 16.6645 12.6566 16.6198 12.6671 16.5675C12.6843 16.482 12.7405 16.4456 12.8101 16.4013Z" fill="#F9DE18"/>
<path d="M15.6681 15.695C15.6882 15.6954 15.7084 15.696 15.7284 15.6984C15.7819 15.7047 15.836 15.7349 15.8681 15.7786C15.9001 15.8217 15.9091 15.8735 15.8976 15.9255C15.8794 16.0083 15.8268 16.0439 15.7578 16.0856C15.7273 16.0876 15.6964 16.0881 15.6662 16.0812C15.6141 16.0693 15.5684 16.0319 15.5422 15.9858C15.5167 15.9411 15.5137 15.8857 15.5283 15.8369C15.5511 15.7598 15.5997 15.7298 15.6681 15.695Z" fill="#F9DE18"/>
<path d="M12.3129 14.7295C12.3413 14.7486 12.3697 14.7705 12.3995 14.787C12.3587 15.0083 12.1776 15.2238 11.9948 15.3479C11.7496 15.5142 11.4461 15.586 11.1544 15.528C10.8902 15.4754 10.5815 15.3353 10.4252 15.1079C10.3977 15.0679 10.3937 15.0391 10.3936 14.9916C10.6332 15.2428 10.9147 15.412 11.2704 15.4194C11.4637 15.4235 11.6444 15.3726 11.8164 15.2868C12.0528 15.1486 12.1813 14.9656 12.3129 14.7295Z" fill="#1E5443"/>
<path d="M9.86803 17.7373C9.87831 17.643 9.88844 17.5666 9.96528 17.503C10.0044 17.493 10.0267 17.4878 10.0643 17.5072C10.1129 17.5325 10.1677 17.5964 10.1806 17.6497C10.182 17.6556 10.1822 17.6619 10.183 17.668L10.1673 17.6863L10.1377 17.6826C10.1143 17.6495 10.0911 17.6209 10.0631 17.5917L10.034 17.5906C10.0294 17.6543 10.1232 17.7035 10.0678 17.746C10.0591 17.7527 10.0412 17.763 10.0311 17.769L10.0123 17.8156C10.0638 17.8076 10.0686 17.8088 10.1159 17.8308C10.1534 17.8768 10.1628 17.9185 10.1766 17.9755L10.1857 18.0092L10.1863 18.0825C10.1427 18.0751 10.0987 18.0716 10.0544 18.0716C10.0102 18.0716 9.96628 18.0754 9.92268 18.083L9.9032 18.0781C9.90181 18.0733 9.90181 18.0676 9.89879 18.0634C9.87344 18.0287 9.82249 18.0335 9.78314 18.0362C8.96383 18.0951 8.12705 18.0171 7.3457 17.7607L7.54222 17.5455C8.26976 17.7815 9.11288 17.7507 9.86803 17.7373Z" fill="#94D897"/>
<path d="M10.0123 17.8157C10.0638 17.8077 10.0685 17.8089 10.1159 17.8309C10.1535 17.8768 10.1627 17.9186 10.1765 17.9756C10.1374 17.9509 10.1056 17.9344 10.0586 17.932C10.0167 17.9298 9.97988 17.9234 9.93904 17.914L9.92676 17.8884C9.9312 17.8813 9.9355 17.8741 9.94002 17.8671C9.96436 17.8301 9.96903 17.8251 10.0123 17.8157Z" fill="#4FBA78"/>
<path d="M18.0698 15.171C18.1434 15.1528 18.2642 15.1508 18.3364 15.1774C18.3406 15.2175 18.3603 15.2791 18.3314 15.3123C18.2867 15.3637 18.1946 15.4153 18.1379 15.4568C17.8304 15.6817 17.5306 15.8863 17.1949 16.0679C16.7261 16.3215 16.254 16.5732 15.7648 16.7858C14.5479 17.3151 13.2248 17.6548 11.9139 17.8481C11.5193 17.9063 11.1182 17.9542 10.7199 17.9797C10.6038 17.9872 10.2725 17.9659 10.1851 18.0088L10.1759 17.9751C10.1622 17.9181 10.1529 17.8763 10.1153 17.8305C10.068 17.8085 10.0633 17.8072 10.0117 17.8152L10.0306 17.7686C10.0406 17.7627 10.0585 17.7523 10.0673 17.7456C10.1227 17.7032 10.0289 17.6539 10.0335 17.5902L10.0625 17.5913C10.0906 17.6206 10.1136 17.6492 10.1371 17.6822L10.14 17.714C10.1532 17.7225 10.1568 17.726 10.1742 17.7297C10.3027 17.7575 11.1405 17.6502 11.3217 17.6283C13.3668 17.381 15.1752 16.8817 16.9747 15.8639C17.3469 15.6534 17.7316 15.4337 18.0698 15.171Z" fill="#94D897"/>
<defs>
<linearGradient id="paint0_linear_5504_63869" x1="13.2096" y1="16.1428" x2="11.9327" y2="16.4475" gradientUnits="userSpaceOnUse">
<stop stop-color="#F1A25C"/>
<stop offset="1" stop-color="#F6AC93"/>
</linearGradient>
</defs>
</svg>
