<svg width="24" height="24" viewBox="0 0 24 24" fill="none" xmlns="http://www.w3.org/2000/svg">
<g clip-path="url(#clip0_5476_29306)">
<path d="M22.3817 17.375C22.5683 17.375 22.756 17.374 22.9427 17.374C22.5136 18.5152 21.6177 19.3046 20.5493 19.8252C20.8101 19.8729 21.0912 20.0787 21.3489 20.1254C20.3588 20.6814 18.6999 21.4372 17.5239 21.4395C16.9741 21.4403 16.0519 21.1979 15.3022 20.7799C14.6245 20.4025 14.0879 19.8809 14.0928 19.2672C14.0967 18.8937 14.4985 18.5295 14.8345 18.6918C14.5423 17.6722 14.8933 16.4975 15.6968 15.8045C15.7577 16.0296 15.8196 16.2561 15.8816 16.4812C15.9402 15.8338 16.2365 15.2111 16.7023 14.7574C16.7763 15.0577 16.8504 15.3581 16.9243 15.6585C17.8518 14.9127 18.3082 13.6253 18.0567 12.4615C18.4139 12.7141 18.7699 12.9678 19.1271 13.2204C19.5349 12.5183 19.5126 11.5891 19.0722 10.9061C19.7946 11.2685 20.4418 11.7787 20.9654 12.3936C21.1277 12.5832 21.2778 12.783 21.4158 12.9922C21.4352 12.6998 21.4544 12.4066 21.4738 12.1136C22.1331 12.9344 22.5126 13.9763 22.5359 15.0283C22.7996 14.8925 23.0635 14.7554 23.3274 14.6195C23.3689 15.6127 23.0249 16.6172 22.3817 17.375Z" fill="#008A00"/>
<path d="M22.3822 17.375C22.5689 17.375 22.7566 17.374 22.9433 17.374C22.5142 18.5152 21.6182 19.3046 20.5499 19.8252C20.8107 19.8729 21.0917 20.0787 21.3494 20.1254C20.3593 20.6814 18.7004 21.4372 17.5245 21.4395C16.9746 21.4403 16.0525 21.1979 15.3027 20.7799C15.6618 20.5241 16.0566 20.3102 16.3153 20.1386C17.2699 19.5076 18.1627 18.8867 18.9521 18.0548C18.9187 18.4149 18.8456 18.774 18.8202 19.1332C19.7729 18.6474 20.5794 17.6501 21.0907 16.7238C20.8218 16.8008 20.554 16.8788 20.2852 16.9571C20.8128 16.3746 21.1557 15.628 21.254 14.8497C21.5078 15.0639 21.6862 15.3651 21.7512 15.6907C21.7593 14.5495 21.4834 13.4101 20.966 12.3936C21.1283 12.5832 21.2784 12.783 21.4163 12.9922C21.4357 12.6998 21.4549 12.4066 21.4743 12.1136C22.1336 12.9344 22.5131 13.9763 22.5365 15.0283C22.8002 14.8925 23.064 14.7554 23.3279 14.6195C23.3694 15.6127 23.0254 16.6172 22.3822 17.375Z" fill="#1A6B00"/>
<path d="M16.6745 6.52226C16.3903 6.76364 15.8506 6.69777 15.7552 6.33746C15.1739 7.22534 14.0558 7.72854 13.0059 7.57327C13.1368 7.37958 13.2675 7.1857 13.3974 6.99098C12.8688 7.36947 12.2043 7.55303 11.5559 7.49728C11.7345 7.24558 11.9142 6.99305 12.0928 6.74031C10.922 6.52639 9.64967 7.0234 8.93338 7.97405C8.89188 7.53878 8.85017 7.10351 8.80763 6.66742C8.01019 6.81857 7.32136 7.44339 7.09299 8.22266C6.91025 7.50327 6.86462 6.75043 6.953 6.0139C6.99058 5.70046 7.05231 5.39011 7.13862 5.08555C6.90427 5.26209 6.66991 5.43967 6.43555 5.61621C6.62634 4.58049 7.16505 3.61249 7.94618 2.90632C7.67032 2.79688 7.39528 2.68621 7.11942 2.57553C7.84377 1.89372 8.8289 1.4981 9.82312 1.48902C9.70047 1.34799 9.57761 1.20593 9.45496 1.0649C10.5993 0.643878 11.7822 0.805347 12.8739 1.27303C12.7399 1.04466 12.7127 0.696737 12.5797 0.471464C13.647 0.856968 15.3038 1.61786 16.0738 2.50657C16.4593 2.95113 16.9119 3.89847 17.06 4.79337C17.1756 5.49046 17.1066 6.15493 16.6745 6.52226Z" fill="#008A00"/>
<path d="M15.3596 2.90403C15.3779 3.26021 15.3971 3.61722 15.4163 3.97444C14.7215 2.97609 13.5051 2.36428 12.2896 2.40289C12.5128 2.66657 12.736 2.93025 12.9592 3.19414C11.9323 2.98414 10.8671 2.96081 9.8322 3.12724C10.4066 3.32814 10.9807 3.52885 11.5551 3.72996C10.8357 3.47826 9.19933 4.51625 8.61891 4.87429C8.0711 5.21313 7.4562 5.5815 6.953 6.01367C6.99058 5.70023 7.05252 5.38968 7.13862 5.08532C6.90427 5.26186 6.66991 5.43944 6.43555 5.61598C6.62634 4.58006 7.16505 3.61227 7.94618 2.90609C7.67032 2.79645 7.39528 2.68577 7.11942 2.5753C7.84377 1.8935 8.8289 1.49787 9.82333 1.48879C9.70047 1.34755 9.57761 1.20549 9.45496 1.06467C10.5993 0.64365 11.7822 0.804914 12.8739 1.2726C12.7399 1.04444 12.7127 0.696303 12.5797 0.47103C13.647 0.856535 15.3038 1.61763 16.0738 2.50634C16.4595 2.95069 16.9119 3.89825 17.06 4.79294C16.6695 4.03019 16.08 3.36862 15.3596 2.90403Z" fill="#1A6B00"/>
<path d="M5.48067 19.4597C5.67435 19.6808 5.8672 19.9009 6.06006 20.1221C5.01401 20.0064 4.00947 19.5359 3.25064 18.8074C3.16041 19.0894 3.06894 19.3723 2.9787 19.6544C2.24837 18.9808 1.78358 18.0261 1.70449 17.0349C1.57255 17.1669 1.43978 17.2996 1.3068 17.4316C0.806495 16.3205 0.88372 15.1285 1.27335 14.0064C1.05613 14.1565 0.710067 14.2084 0.495117 14.3564C0.804636 13.2637 1.4468 11.5584 2.27872 10.7273C2.49181 10.5144 2.83478 10.2749 3.23743 10.0638C4.23578 9.53937 5.59836 9.18731 6.24259 9.84579C6.50338 10.1126 6.47592 10.6554 6.12283 10.776C7.04912 11.2934 7.62954 12.3729 7.54943 13.4312C7.34645 13.3145 7.14348 13.1978 6.94154 13.0812C7.35554 13.5823 7.58474 14.2327 7.57565 14.883C7.31197 14.7217 7.04705 14.5615 6.78337 14.401C6.65143 15.584 7.23681 16.8179 8.23619 17.465C7.80505 17.5381 7.37288 17.61 6.94154 17.6823C7.1028 18.2949 7.54839 18.8216 8.11333 19.1056H8.11437C8.27274 19.1846 8.4402 19.2455 8.61364 19.2831C7.60931 19.6149 6.5166 19.6757 5.48067 19.4597Z" fill="#008A00"/>
<path d="M5.48067 19.4597C5.67435 19.6808 5.8672 19.9009 6.06006 20.1221C5.01401 20.0064 4.00947 19.5359 3.25064 18.8074C3.16041 19.0894 3.06894 19.3723 2.9787 19.6544C2.24837 18.9808 1.78358 18.0261 1.70449 17.0349C1.57255 17.1669 1.43978 17.2996 1.3068 17.4316C0.806495 16.3205 0.88372 15.1285 1.27335 14.0064C1.05613 14.1565 0.710067 14.2084 0.495117 14.3564C0.804636 13.2637 1.4468 11.5584 2.27872 10.7273C2.49181 10.5144 2.83478 10.2749 3.23743 10.0638C3.06295 10.6391 2.69561 11.1687 2.5455 11.7632C2.49388 11.9682 2.38816 13.9406 2.40241 13.9333C2.67146 13.8055 2.94009 13.6777 3.20914 13.5499C2.71812 14.4498 2.57503 15.5324 2.81537 16.5286C3.15112 16.2577 3.4881 15.9858 3.82384 15.7138C3.84821 16.5338 4.31589 17.3271 5.0231 17.743C5.05448 17.4204 5.08587 17.0979 5.11643 16.7741C5.7557 17.8892 6.83912 18.7392 8.0739 19.0944C8.08711 19.0983 8.10033 19.1016 8.11333 19.1056H8.11437C8.27274 19.1846 8.4402 19.2455 8.61364 19.2831C7.60931 19.6149 6.5166 19.6757 5.48067 19.4597Z" fill="#1A6B00"/>
<path d="M15.1505 22.3525C15.4041 22.5057 15.6578 22.6599 15.9124 22.8131C15.0865 23.368 14.0506 23.5984 13.0685 23.4452C13.166 23.6044 13.2645 23.7646 13.3617 23.924C12.1648 24.1524 11.0233 23.8014 10.0219 23.1621C10.1183 23.4086 10.0877 23.7566 10.1831 24C9.19201 23.4462 7.68138 22.4256 7.06544 21.4241C6.81476 21.0163 6.57545 20.2746 6.4943 19.5249C6.39684 18.6302 6.52465 17.7252 7.12841 17.3628C7.44805 17.1712 7.96839 17.3244 8.00494 17.6956C8.72226 16.9145 9.9083 16.6 10.9176 16.9236C10.7576 17.0939 10.5971 17.2645 10.4369 17.4349C11.0202 17.1468 11.706 17.0747 12.3361 17.235C12.1189 17.4541 11.9009 17.6744 11.6837 17.8945C12.8038 18.2963 14.14 18.0132 15.0012 17.1914C14.9719 17.6277 14.9426 18.065 14.9131 18.5013C15.7247 18.4819 16.5059 17.9777 16.8579 17.2463C16.9473 18.3002 16.7534 19.3768 16.3021 20.3335C16.5616 20.1974 16.8214 20.0615 17.0822 19.9246C17.0091 20.1276 16.9219 20.3254 16.8214 20.516C16.4348 21.2587 15.8546 21.899 15.1505 22.3525Z" fill="#3FA61D"/>
<path d="M9.32978 6.17004C9.72643 7.15414 9.50033 8.3596 8.77393 9.13267C8.68865 8.91442 8.6044 8.69616 8.51912 8.47812C8.52821 9.12751 8.29798 9.77876 7.88295 10.278C7.77744 9.98772 7.67295 9.69658 7.56847 9.40544C6.72334 10.2436 6.40391 11.5717 6.77516 12.7028C6.39358 12.4887 6.01221 12.2737 5.63062 12.0596C5.29901 12.8002 5.41774 13.7224 5.92693 14.3555C5.2319 14.0939 4.58664 13.7011 4.03285 13.206C3.79746 12.997 3.57838 12.7688 3.37851 12.5252C3.38945 12.8184 3.40081 13.1116 3.41299 13.4048C2.6713 12.6571 2.18524 11.6619 2.05226 10.6169C1.80386 10.7802 1.55629 10.9435 1.30871 11.1058C1.16252 10.1228 1.40101 9.08786 1.961 8.26709C1.77537 8.2865 1.58871 8.30674 1.40308 8.32594C1.71136 7.14692 2.52015 6.2675 3.52759 5.63938C3.2637 5.61914 2.96244 5.4426 2.70165 5.4234C3.62897 4.76781 5.19949 3.84276 6.36839 3.71784C6.89389 3.66209 7.78466 3.79403 8.55361 4.10438C9.30851 4.40874 9.94551 4.88365 10.0075 5.52168C10.043 5.89212 9.6808 6.29682 9.32978 6.17004Z" fill="#3FA61D"/>
<path d="M23.3957 10.2603C23.2233 10.9512 22.5039 12.1434 21.6678 12.7358C21.2722 13.0148 20.8512 13.161 20.4494 13.0555C20.0892 12.9611 19.8336 12.4813 20.074 12.1961C19.0139 12.2296 17.9608 11.6016 17.4849 10.6528C17.7192 10.6489 17.9526 10.6448 18.1869 10.6398C17.5732 10.4236 17.0426 9.98445 16.7157 9.42137C17.0252 9.42344 17.3348 9.4255 17.6443 9.42736C17.1481 8.34477 16.0108 7.58697 14.8216 7.54629C15.1545 7.26217 15.4871 6.97826 15.82 6.69413C15.2387 6.12692 14.3317 5.92106 13.5625 6.18185C14.2536 5.38028 15.1594 4.76661 16.1588 4.41951C16.0157 4.37284 15.8718 4.32721 15.7287 4.28055C15.5926 4.23698 15.4568 4.19238 15.3209 4.1486C16.2786 3.71044 17.3804 3.59688 18.407 3.83103C18.3391 3.54299 18.2712 3.2537 18.2043 2.96463C19.1772 3.16657 20.0669 3.74699 20.6443 4.55641C20.6899 4.37491 20.7355 4.1932 20.7812 4.01171C21.7816 4.70776 22.3284 5.76991 22.5718 6.93159C22.6814 6.69104 22.9503 6.46886 23.0589 6.23058C23.3552 7.32721 23.6819 9.11991 23.3957 10.2603Z" fill="#3FA61D"/>
<path d="M4.84136 5.00572C5.29088 5.14365 5.74122 5.28158 6.19177 5.42055C5.021 5.50789 3.90888 6.18062 3.28716 7.17587C3.64933 7.23575 4.01151 7.29666 4.37368 7.35633C3.1228 7.98549 2.46928 9.60061 2.92994 10.9225C3.15625 10.7055 3.38152 10.4883 3.6068 10.2713C3.3235 10.5442 3.58223 11.8032 3.65532 12.1422C3.72429 12.4647 3.9252 12.8422 4.03277 13.2064C3.79738 12.9975 3.5783 12.7691 3.37843 12.5257C3.38958 12.8187 3.40073 13.1121 3.41291 13.4053C2.67122 12.6576 2.18536 11.6621 2.05239 10.6171C1.80378 10.7805 1.55621 10.9438 1.30863 11.1063C1.16265 10.1232 1.40093 9.08811 1.96112 8.26755C1.77529 8.28675 1.58883 8.30698 1.403 8.32639C1.71148 7.14737 2.52007 6.26775 3.52751 5.63983C3.26362 5.6196 2.96236 5.44306 2.70178 5.42365C3.62889 4.76827 5.19941 3.84301 6.36831 3.7183C6.89381 3.66255 7.78458 3.79428 8.55373 4.10483C8.63881 4.17174 8.72305 4.2407 8.80523 4.31173C7.45483 4.10483 6.03959 4.35241 4.84136 5.00572Z" fill="#008A00"/>
<path d="M15.1513 22.3525C15.4049 22.5057 15.6587 22.6599 15.9133 22.8131C15.0873 23.368 14.0514 23.5984 13.0694 23.4452C13.1668 23.6044 13.2653 23.7646 13.3626 23.924C12.1656 24.1524 11.0241 23.8014 10.0227 23.1621C10.1191 23.4086 10.0886 23.7566 10.1839 24C9.19283 23.4462 7.68219 22.4256 7.06625 21.4241C6.81558 21.0163 6.57627 20.2746 6.49512 19.5249C6.51845 19.5381 6.54282 19.5523 6.56615 19.5674C7.12716 19.9226 7.61219 20.4045 8.17817 20.7627C8.72308 21.1076 9.36731 21.3217 9.89487 21.6748C9.61984 21.491 9.49615 21.1086 9.61178 20.7972C10.4478 21.4749 11.4716 21.9182 12.5379 22.0652C12.2851 21.7834 12.0326 21.5003 11.7788 21.2172C12.751 21.5947 13.7908 21.7954 14.8327 21.8065C14.4594 21.5825 14.0871 21.3572 13.7146 21.133C14.7778 21.1359 15.8402 20.923 16.8222 20.516C16.4357 21.2587 15.8554 21.899 15.1513 22.3525Z" fill="#008A00"/>
<path d="M23.396 10.2599C23.2236 10.9508 22.5042 12.143 21.6682 12.7354C21.5821 12.7385 21.4958 12.7375 21.4095 12.7344C22.0944 11.7858 22.4363 10.5967 22.3611 9.42901C22.0091 9.68877 21.6581 9.94852 21.306 10.2091C21.9767 9.0687 21.9056 7.53597 21.1326 6.46349C20.9895 6.77095 20.8464 7.07716 20.7033 7.38462C20.5329 6.29397 19.9699 5.26836 19.141 4.53989C19.1431 4.89504 19.1441 5.24895 19.146 5.60411C18.2614 4.70817 16.9841 4.2345 15.7291 4.28013C15.593 4.23656 15.4572 4.19196 15.3213 4.14819C16.279 3.71003 17.3808 3.59647 18.4074 3.83062C18.3395 3.54257 18.2715 3.25329 18.2046 2.96421C19.1776 3.16615 20.0673 3.74658 20.6446 4.55599C20.6903 4.3745 20.7359 4.19279 20.7815 4.01129C21.782 4.70735 22.3287 5.7695 22.5722 6.93118C22.6818 6.69062 22.9507 6.46845 23.0593 6.23017C23.3556 7.3268 23.6822 9.11949 23.396 10.2599Z" fill="#008A00"/>
<path d="M11.8016 3.27677C11.8016 3.27677 6.21296 7.01908 4.95898 9.8031L7.16051 9.04035L7.43245 11.54C7.43245 11.54 11.387 5.19252 12.3321 4.61024L11.8016 3.27677Z" fill="#B50D0D"/>
<path d="M11.6299 4.38474C10.4024 5.068 7.31276 6.31825 6.17896 6.19684C5.36335 6.11012 4.97784 4.77293 4.92932 3.36512C4.88121 1.99469 5.15149 0.557359 5.65428 0.135719C6.18556 -0.310905 7.79552 0.422318 9.21262 1.22513C9.81286 1.56479 10.3784 1.91602 10.8131 2.19663L11.6299 4.38474Z" fill="#D81212"/>
<path d="M9.21262 1.22544C8.6134 1.18704 7.64189 1.14801 6.55971 1.19488C5.30491 1.24857 4.99952 2.57378 4.92932 3.36523C4.88121 1.99501 5.15149 0.557675 5.65428 0.136036C6.18556 -0.310589 7.79552 0.422635 9.21262 1.22544Z" fill="#FA1818"/>
<path d="M8.17134 2.73854C8.87813 2.81287 9.57646 2.96732 10.2488 3.19817C9.05075 3.59648 7.90064 4.1387 6.83105 4.80957C7.3867 4.46103 8.27314 4.33301 8.90415 4.16741C9.64295 3.97372 10.391 3.81391 11.1445 3.6894C11.6301 3.60907 12.3871 3.38731 11.8048 2.78004C11.5197 2.4825 11.0256 2.57893 10.656 2.5748C9.81454 2.56489 9.00099 2.56922 8.17134 2.73854Z" fill="#B50D0D"/>
<path d="M12.1921 3.28189C12.1921 3.28189 17.6813 7.16853 18.8623 9.98435L16.6813 9.16461L16.3445 11.6562C16.3445 11.6562 12.5567 5.20797 11.627 4.60132L12.1921 3.28189Z" fill="#B50D0D"/>
<path d="M12.335 4.39352C13.5441 5.10836 16.6003 6.43874 17.7368 6.34706C18.5545 6.2816 18.9744 4.95495 19.0597 3.54879C19.1436 2.18001 18.9108 0.736278 18.4192 0.30163C17.8997 -0.158623 16.2712 0.532271 14.8338 1.29791C14.2247 1.62189 13.6503 1.95825 13.2084 2.2275L12.335 4.39352Z" fill="#D81212"/>
<path d="M14.835 1.29816C15.4348 1.27565 16.4071 1.26181 17.4877 1.33677C18.7408 1.42308 19.0115 2.75593 19.0611 3.54883C19.1449 2.18025 18.912 0.736314 18.4206 0.301872C17.9008 -0.158587 16.2725 0.532514 14.835 1.29816Z" fill="#FA1818"/>
<path d="M15.8351 2.83923C15.1265 2.89519 14.4244 3.03126 13.7466 3.24436C14.9336 3.67384 16.0693 4.2458 17.1209 4.94434C16.5748 4.58154 15.692 4.4306 15.0652 4.24849C14.3317 4.0356 13.5884 3.85658 12.838 3.71245C12.3549 3.61933 11.6039 3.37774 12.2016 2.78596C12.4946 2.49606 12.9859 2.60529 13.3557 2.61066C14.1969 2.62263 15.0102 2.64824 15.8351 2.83923Z" fill="#B50D0D"/>
<path d="M10.2754 1.75129C10.2754 1.75129 11.7466 0.451475 13.7584 1.79672C13.7584 1.79672 13.379 4.95447 12.161 4.99763C10.9427 5.04078 10.2754 1.75129 10.2754 1.75129Z" fill="#FA1818"/>
<path d="M3.68629 15.502L5.55785 16.4124L7.36892 15.3864L7.0817 17.4479L8.61691 18.8532L6.56756 19.217L5.70549 21.1113L4.72614 19.2747L2.6582 19.0401L4.10235 17.5412L3.68629 15.502Z" fill="#FFBD30"/>
<path d="M2.6582 19.0398L5.42385 17.7419L4.72634 19.2744L2.6582 19.0398Z" fill="#D08B0C"/>
<path d="M5.42383 17.7421L5.70568 21.1113L6.56775 19.217L5.42383 17.7421Z" fill="#D08B0C"/>
<path d="M5.42388 17.7422L3.68652 15.502L5.55809 16.4124L5.42388 17.7422Z" fill="#D08B0C"/>
<path d="M5.42383 17.7422L7.36911 15.3864L7.08189 17.4479L5.42383 17.7422Z" fill="#D08B0C"/>
<path d="M5.42383 17.7415L8.6171 18.8525L7.08189 17.4472L5.42383 17.7415Z" fill="#FFD966"/>
<path d="M4.10259 17.5413L5.42388 17.7422L3.68652 15.502L4.10259 17.5413Z" fill="#FFD966"/>
<path d="M4.72656 19.2747L5.42406 17.7421L5.70591 21.1113L4.72656 19.2747Z" fill="#FFD966"/>
<path d="M20.5723 14.7503L20.5011 16.4527L21.8633 17.4767L20.2221 17.9349L19.6692 19.5469L18.7262 18.1275L17.0225 18.1L18.0807 16.7643L17.5806 15.1356L19.1777 15.7294L20.5723 14.7503Z" fill="#FFBD30"/>
<path d="M17.5801 15.1359L19.4587 16.7871L18.0802 16.7648L17.5801 15.1359Z" fill="#D08B0C"/>
<path d="M19.4592 16.787L17.0225 18.1003L18.7262 18.1279L19.4592 16.787Z" fill="#D08B0C"/>
<path d="M19.458 16.7871L20.5712 14.7506L20.4999 16.453L19.458 16.7871Z" fill="#D08B0C"/>
<path d="M19.458 16.7873L21.8623 17.4772L20.221 17.9355L19.458 16.7873Z" fill="#D08B0C"/>
<path d="M19.458 16.7868L19.6682 19.5469L20.221 17.9351L19.458 16.7868Z" fill="#FFD966"/>
<path d="M19.1777 15.7297L19.4592 16.7871L20.5723 14.7506L19.1777 15.7297Z" fill="#FFD966"/>
<path d="M18.0807 16.765L19.4592 16.7873L17.0225 18.1006L18.0807 16.765Z" fill="#FFD966"/>
<path d="M21.456 6.56486L21.4132 7.58717L22.2311 8.20207L21.2455 8.47732L20.9137 9.44531L20.3473 8.59295L19.3242 8.57643L19.9596 7.77445L19.6593 6.79633L20.6185 7.15272L21.456 6.56486Z" fill="#FFBD30"/>
<path d="M19.6592 6.79557L20.7872 7.78711L19.9596 7.77369L19.6592 6.79557Z" fill="#D08B0C"/>
<path d="M20.7874 7.78769L19.3242 8.57625L20.3473 8.59277L20.7874 7.78769Z" fill="#D08B0C"/>
<path d="M20.7881 7.78711L21.4567 6.56411L21.4139 7.58641L20.7881 7.78711Z" fill="#D08B0C"/>
<path d="M20.7881 7.78711L22.2318 8.20132L21.2463 8.47656L20.7881 7.78711Z" fill="#D08B0C"/>
<path d="M20.7881 7.78787L20.9142 9.44531L21.2463 8.47732L20.7881 7.78787Z" fill="#FFD966"/>
<path d="M20.6182 7.15197L20.7871 7.78711L21.4557 6.56411L20.6182 7.15197Z" fill="#FFD966"/>
<path d="M19.9598 7.77419L20.7876 7.78761L19.3242 8.57617L19.9598 7.77419Z" fill="#FFD966"/>
<path d="M2.67163 7.85191L3.26486 8.68569L4.28799 8.66958L3.67845 9.49139L4.00985 10.4594L3.04 10.1338L2.22171 10.748L2.23162 9.72492L1.39453 9.13665L2.37079 8.83002L2.67163 7.85191Z" fill="#FFBD30"/>
<path d="M1.39453 9.13634L2.8936 9.2276L2.23162 9.72461L1.39453 9.13634Z" fill="#D08B0C"/>
<path d="M2.89358 9.22771L2.22168 10.748L3.03977 10.1336L2.89358 9.22771Z" fill="#D08B0C"/>
<path d="M2.89385 9.22754L2.67188 7.85153L3.2651 8.68531L2.89385 9.22754Z" fill="#D08B0C"/>
<path d="M2.89355 9.22774L4.28794 8.66941L3.6784 9.49121L2.89355 9.22774Z" fill="#D08B0C"/>
<path d="M2.89355 9.22731L4.00981 10.459L3.6784 9.49078L2.89355 9.22731Z" fill="#FFD966"/>
<path d="M2.37109 8.82964L2.89391 9.22754L2.67194 7.85153L2.37109 8.82964Z" fill="#FFD966"/>
<path d="M2.23159 9.72471L2.89358 9.22771L2.22168 10.748L2.23159 9.72471Z" fill="#FFD966"/>
<path d="M4.78284 12.7371C4.78284 13.1639 4.43677 13.5098 4.01017 13.5098C3.58337 13.5098 3.2373 13.1639 3.2373 12.7371C3.2373 12.3103 3.58337 11.9644 4.01017 11.9644C4.43677 11.9644 4.78284 12.3103 4.78284 12.7371Z" fill="#D81212"/>
<path d="M4.00471 12.6519C3.86864 12.8028 3.66938 12.8453 3.55953 12.7464C3.44968 12.6475 3.47095 12.445 3.60702 12.2938C3.74289 12.1429 3.94214 12.1005 4.05199 12.1995C4.16184 12.2984 4.14057 12.5009 4.00471 12.6519Z" fill="#FA1818"/>
<path d="M20.9947 12.4725C20.9947 12.8993 20.6487 13.2451 20.2219 13.2451C19.7953 13.2451 19.4492 12.8993 19.4492 12.4725C19.4492 12.0457 19.7953 11.6996 20.2219 11.6996C20.6487 11.6996 20.9947 12.0457 20.9947 12.4725Z" fill="#D81212"/>
<path d="M20.2164 12.3863C20.0806 12.5373 19.8813 12.5796 19.7715 12.4809C19.6616 12.382 19.6829 12.1792 19.8187 12.0283C19.9546 11.8773 20.1539 11.835 20.2637 11.9339C20.3736 12.0328 20.3525 12.2354 20.2164 12.3863Z" fill="#FA1818"/>
<path d="M13.5922 19.8365C13.5922 20.2633 13.2463 20.6094 12.8195 20.6094C12.3927 20.6094 12.0469 20.2633 12.0469 19.8365C12.0469 19.4097 12.3927 19.0638 12.8195 19.0638C13.2463 19.0638 13.5922 19.4097 13.5922 19.8365Z" fill="#D81212"/>
<path d="M12.8142 19.7506C12.6783 19.9016 12.4788 19.9439 12.3692 19.845C12.2591 19.7463 12.2806 19.5435 12.4165 19.3926C12.5524 19.2414 12.7516 19.1993 12.8615 19.2982C12.9713 19.3971 12.9502 19.5997 12.8142 19.7506Z" fill="#FA1818"/>
</g>
<defs>
<clipPath id="clip0_5476_29306">
<rect width="24" height="24" rx="3.03109" fill="white"/>
</clipPath>
</defs>
</svg>
