<svg width="24" height="24" viewBox="0 0 24 24" fill="none" xmlns="http://www.w3.org/2000/svg">
<g clip-path="url(#clip0_5502_61458)">
<path d="M6.37312 6.51772C7.34213 6.64616 8.31559 6.55399 9.28698 6.57153C10.1614 6.58729 10.1635 6.57391 10.1608 7.44212C10.1585 8.236 10.1519 9.02958 10.1472 9.82345C10.0841 9.85081 10.0071 9.83773 9.98749 9.78659C9.79095 9.26774 9.50373 9.49223 9.24891 9.70839C8.63195 10.2317 8.01737 10.7603 7.50536 11.3928C7.23925 11.721 6.95589 12.0246 6.56133 12.2039C5.12314 12.2283 3.68583 12.2131 2.24882 12.2131C1.85248 12.1364 1.47071 11.939 1.0482 12.0627C0.808251 11.9779 0.760382 11.7909 0.760977 11.5614C0.763355 10.1776 0.75503 8.79379 0.760977 7.41001C0.763355 6.84775 1.05088 6.58283 1.65 6.58135C3.07868 6.57748 4.50766 6.58224 5.93664 6.58135C6.08411 6.58105 6.23902 6.61851 6.37312 6.51772Z" fill="#F5A90D"/>
<path d="M13.7755 8.11261C13.7738 7.60356 13.7715 7.09452 13.7695 6.58514C13.8932 6.43904 14.0654 6.45457 14.2287 6.4516C15.176 6.43705 16.1234 6.46945 17.0707 6.42548C17.2767 6.4159 17.4968 6.40334 17.6661 6.57026C18.5338 6.57853 19.4018 6.58679 20.2698 6.59506C20.6268 6.66348 20.9888 6.59836 21.3461 6.63142C21.7646 6.67042 21.8548 6.78248 21.8535 7.20856C21.8521 7.60092 21.7738 7.98502 21.7318 8.37309C21.7041 8.63059 21.5398 8.81702 21.354 8.96841C20.6486 9.5429 20.123 10.2764 19.5409 10.962C19.1806 11.3857 18.7123 11.6988 18.2455 12.0015C18.0475 12.1301 17.8158 12.1189 17.5897 12.1222C16.7937 12.1331 15.9978 12.0964 15.2015 12.145C14.8726 12.1509 14.5443 12.1579 14.2164 12.1394C13.9302 12.1232 13.7996 12.0029 13.8049 11.6892C13.8214 10.6446 13.8125 9.59976 13.8099 8.55489C13.8092 8.40713 13.8396 8.25574 13.7755 8.11261Z" fill="#F5AF19"/>
<path d="M15.2998 11.9977C16.0807 11.9966 16.8612 11.9888 17.6417 11.999C17.9414 12.0031 18.1747 11.9078 18.4246 11.7349C19.1227 11.2517 19.6737 10.6367 20.1779 9.96701C20.3928 9.68118 20.6058 9.39773 20.9245 9.20209C21.5179 8.83861 21.6725 8.24763 21.7101 7.59697C21.7623 6.69947 21.744 6.67506 20.836 6.66692C20.6471 6.66523 20.444 6.73202 20.2704 6.59538C20.9767 6.59097 21.6833 6.57809 22.3896 6.58521C22.9351 6.59064 23.2349 6.91139 23.2362 7.46609C23.2393 8.78877 23.2359 10.1121 23.2413 11.4348C23.2427 11.8112 23.1515 12.1 22.7002 12.0851C22.5184 12.0787 22.495 12.1373 22.4957 12.317C22.5103 15.7748 22.5133 19.2322 22.5181 22.6899C22.5194 23.5594 22.197 23.9074 21.3429 23.916C20.1111 23.9287 18.8786 23.9219 17.6468 23.9231C17.6108 23.8844 17.6075 23.8433 17.6366 23.7994C18.1452 23.6134 18.4809 23.2148 18.8691 22.8617C19.6364 22.1647 20.3193 21.3913 21.0445 20.6566C21.2605 20.4379 21.3595 20.2185 21.3307 19.9002C21.2785 19.3187 21.3236 18.7321 21.3076 18.1479C21.3036 17.997 21.3731 17.8054 21.1612 17.7193C20.7363 17.4776 20.7207 17.3782 21.0635 17.0483C21.1157 16.9978 21.2005 16.9669 21.1863 16.8788C21.0944 16.318 21.4324 15.788 21.3015 15.2248C21.2564 14.6657 21.4158 14.1181 21.3907 13.5604C21.3717 13.1321 21.3626 13.122 20.9648 13.2406C20.7428 13.3068 20.5227 13.3281 20.303 13.2359C20.1121 13.0328 20.0117 12.7683 19.8144 12.5612C19.6357 12.373 19.7686 12.1455 19.9063 11.959C20.3691 11.783 20.8516 11.9007 21.3246 11.8722C21.5772 11.8569 21.8315 11.8725 22.1987 11.8644C21.7552 11.6623 21.5599 11.3778 21.4839 10.9984C21.4453 10.8045 21.3141 10.6824 21.1408 10.8733C20.6841 11.3775 20.0338 11.621 19.5489 12.0861C18.2507 12.3333 16.9405 12.2157 15.6348 12.2177C15.4954 12.2177 15.3225 12.2052 15.2998 11.9977Z" fill="#F6931D"/>
<path d="M17.6467 23.8213C17.6467 23.8552 17.6467 23.8889 17.6467 23.9225C16.9436 24.0146 16.2376 23.955 15.5333 23.9624C14.3477 23.9748 13.1618 23.9712 11.9766 23.9742C12.4782 23.8567 12.987 23.9384 13.4923 23.9204C13.7115 23.9125 13.7829 23.8782 13.778 23.622C13.7572 22.4552 13.773 21.2876 13.7757 20.1208C14.0024 20.1415 13.9577 20.3288 13.9679 20.4618C13.9926 20.7883 14.063 21.1118 13.9889 21.4956C14.4132 21.2665 14.6676 20.9275 14.9806 20.6629C15.9072 19.8792 16.7659 19.0165 17.6905 18.2331C18.7987 17.2941 19.8342 16.2701 20.9957 15.3936C21.1251 15.2962 21.2459 15.1678 21.4358 15.2419C21.3637 15.6787 21.6254 16.1734 21.2106 16.5516C21.527 16.9406 21.3226 17.0696 20.9625 17.2905C20.7568 17.4169 21.0474 17.5801 21.2577 17.5916C21.3318 17.7924 21.1909 17.8968 21.0668 18.0034C19.9997 18.9204 18.955 19.8631 17.9564 20.8528C17.0832 21.7184 16.1583 22.5264 15.2607 23.3642C15.1854 23.4348 15.0962 23.4965 15.0649 23.6267C15.1824 23.7454 15.3394 23.6922 15.4776 23.694C16.0323 23.7005 16.5872 23.6925 17.1415 23.699C17.3166 23.7011 17.5068 23.6648 17.6467 23.8213Z" fill="#F6931D"/>
<path d="M1.04785 12.0627C1.40861 11.9322 1.76642 11.9463 2.12187 12.0851C2.2497 12.1872 2.40203 12.1763 2.55112 12.1757C3.65584 12.1698 4.76115 12.1976 5.86557 12.1379C5.9999 12.1309 6.20389 12.0464 6.26146 12.223C6.31844 12.398 6.1419 12.5084 6.01466 12.6127C5.8331 12.7612 5.57153 12.7975 5.41654 13.0469C5.67131 13.1771 5.91694 13.0971 6.15872 13.0788C6.61573 13.0443 7.0807 12.9256 7.5132 13.1916C7.59616 13.2769 7.56634 13.3622 7.51261 13.447C5.73597 14.9237 4.04494 16.4998 2.29014 18.0028C2.12748 18.1422 2.01765 18.3214 1.88982 18.4876C1.85204 18.5165 1.81306 18.5171 1.77291 18.4932C1.76583 16.6247 1.75579 14.756 1.75314 12.8872C1.75196 12.1394 1.75933 12.1394 1.04785 12.0627Z" fill="#F68712"/>
<path d="M1.77264 18.493C1.79862 18.4933 1.8243 18.4933 1.85028 18.4933C2.02535 18.6634 1.96778 18.8848 1.97457 19.0885C1.99671 19.7619 1.93501 20.4377 2.01383 21.1096C2.03007 21.248 2.0035 21.45 2.17473 21.4937C2.33976 21.5359 2.42478 21.3579 2.51748 21.246C3.00843 20.6523 3.67091 20.2505 4.21707 19.7147C5.11395 18.8346 6.15638 18.1128 7.01783 17.1905C7.10079 17.102 7.19142 17.0243 7.31984 17.0122C7.74644 17.2732 7.76238 17.4264 7.36206 17.6664C7.1309 17.8055 6.93488 17.9419 6.94403 18.2492C6.95023 18.4523 6.80144 18.5211 6.63995 18.4795C6.34414 18.4033 6.2228 18.5311 6.16878 18.798C6.14487 18.9161 6.06663 19.0147 6.00021 19.1154C5.92788 19.2249 5.87562 19.3173 6.05069 19.3961C6.40614 19.5561 6.33144 19.7587 6.09615 19.978C5.97629 20.0899 5.83341 20.1773 5.73185 20.3119C5.76314 20.4763 5.95769 20.4515 6.02441 20.5702C6.02678 20.8731 5.77702 20.9956 5.59516 21.1639C4.81401 21.8875 4.00658 22.583 3.26764 23.3512C3.1956 23.4265 3.11707 23.4982 3.06187 23.6317C3.75918 23.7796 4.46476 23.6199 5.15263 23.7371C6.2107 23.8318 7.26936 23.7551 8.32773 23.7577C8.37231 23.758 8.42781 23.7545 8.45674 23.7273C8.95951 23.2556 9.53755 22.849 9.83779 22.1972C9.90923 22.0422 9.88886 21.8246 10.1478 21.8364C10.1492 22.5296 10.151 23.2228 10.1525 23.9163C7.97553 24.0332 5.79827 23.9709 3.62072 23.9393C3.33554 23.9351 3.04947 23.9405 2.76488 23.9219C2.18447 23.8835 1.77234 23.487 1.76762 22.9096C1.75552 21.4376 1.76909 19.9653 1.77264 18.493Z" fill="#F79310"/>
<path d="M13.484 3.77675C13.7435 3.9374 13.7847 4.23685 13.9758 4.49161C13.7261 4.56133 13.5014 4.43996 13.3021 4.5439C13.5749 5.05913 13.9716 5.35256 14.5746 5.29299C14.5819 5.41498 14.4682 5.46505 14.4197 5.55251C15.6942 5.44192 16.8108 4.95203 17.8235 4.18108C18.1483 3.93392 18.2941 3.52515 18.6645 3.33313C18.9839 3.80147 18.7491 4.2096 18.4139 4.47545C17.9094 4.87503 17.5688 5.39058 17.1885 5.88269C16.9129 6.23948 16.5503 6.34437 16.1108 6.41915C15.3279 6.55224 14.5328 6.37257 13.7609 6.57379C13.368 6.64255 12.9906 6.50407 12.6037 6.48221C12.3004 6.46542 12.0859 5.91754 12.283 5.67799C12.4313 5.49832 12.4798 5.2312 12.7425 5.14659C12.8255 5.11966 12.9285 5.06642 12.9047 4.96249C12.8715 4.81799 12.7368 4.8782 12.6405 4.87313C12.5311 4.86711 12.4196 5.0021 12.296 4.84746C12.4592 4.69505 12.7098 4.86521 12.8594 4.70107C13.1468 4.44662 13.2077 4.03912 13.484 3.77675Z" fill="#DE2D23"/>
<path d="M10.1504 23.9122C10.4447 23.9529 10.7482 23.8614 11.0375 23.9724C10.7399 23.9763 10.4373 24.0625 10.1504 23.9122Z" fill="#F79310"/>
<path d="M21.4357 15.2423C20.6888 15.7419 20.0274 16.3477 19.3502 16.9325C18.3484 17.7968 17.3295 18.6457 16.3809 19.5659C15.6873 20.2392 14.9157 20.8204 14.2309 21.4999C14.1536 21.5758 14.0888 21.7383 13.9491 21.6633C13.8076 21.587 13.855 21.4265 13.8714 21.2946C13.9214 20.8963 13.881 20.5059 13.7754 20.1211C13.7754 19.4594 13.7747 18.798 13.7744 18.1362C13.8589 17.9402 13.9721 17.7629 14.1474 17.6379C14.7187 17.2308 15.1436 16.6874 15.5491 16.1286C15.7682 15.8277 16.0895 15.6547 16.3688 15.4356C17.1614 14.8137 17.8596 14.0901 18.6112 13.4241C19.07 13.0173 19.6696 12.9041 20.2636 13.1686C20.5826 13.1557 20.8839 13.1949 21.1907 12.9683C21.4591 12.7699 21.5088 13.065 21.5282 13.2866C21.5854 13.9431 21.3946 14.5871 21.4357 15.2423Z" fill="#F5AF19"/>
<path d="M7.35642 17.049C6.65586 17.8042 5.8443 18.4362 5.07289 19.1132C4.4231 19.6836 3.81613 20.3017 3.11439 20.8143C2.86168 20.9985 2.65857 21.2435 2.47878 21.5068C2.38608 21.6426 2.22695 21.7525 2.05572 21.7123C1.87948 21.6713 1.95978 21.4874 1.93616 21.364C1.7543 20.4119 1.89749 19.4497 1.84996 18.4932C1.82398 18.2872 1.94738 18.1567 2.08466 18.0344C2.94405 17.2698 3.78306 16.4798 4.6705 15.7488C5.36338 15.1779 5.99486 14.5411 6.68627 13.9704C6.92658 13.772 7.14091 13.5415 7.44706 13.439C7.6546 13.1952 7.92059 13.1355 8.23471 13.1172C8.69259 13.0904 9.14635 12.9977 9.60867 13.021C9.80174 13.0307 9.99777 13.0234 10.1525 13.1701C10.1513 13.6802 10.1504 14.1907 10.1492 14.7011C9.31581 15.3521 8.5506 16.0821 7.75232 16.7741C7.6301 16.8798 7.5368 17.0272 7.35642 17.049Z" fill="#F5AF19"/>
<path d="M5.10126 23.819C4.56219 23.819 4.02282 23.8146 3.48404 23.8208C3.28417 23.8231 3.02143 23.8282 2.94231 23.6838C2.83662 23.4904 3.08785 23.3567 3.21775 23.2244C3.98208 22.4465 4.78685 21.7117 5.6117 20.9988C5.75724 20.8733 5.87267 20.7136 6.00198 20.5695C6.01881 20.2952 6.27772 20.2214 6.42562 20.0555C7.47868 19.1093 8.54384 18.1762 9.55615 17.1854C9.76989 17.0732 9.87794 16.804 10.1525 16.7815C10.1507 17.893 10.1492 19.0042 10.1475 20.1158C9.07258 21.0864 8.00742 22.0675 6.98418 23.0934C6.74387 23.3346 6.41972 23.4822 6.23078 23.7871C6.15077 23.9167 5.98191 23.8665 5.8523 23.86C5.60196 23.8477 5.34688 23.9135 5.10126 23.819Z" fill="#F5AF19"/>
<path d="M20.264 13.1681C19.2747 12.9233 18.6282 13.5005 18.007 14.1201C17.3174 14.8072 16.6069 15.4653 15.792 16.0072C15.6147 16.125 15.5206 16.3544 15.4017 16.531C14.9659 17.1818 14.3283 17.6135 13.7749 18.1357C13.7694 16.5082 13.764 14.8814 13.7582 13.2545C13.5484 12.8652 13.5465 12.4762 13.7617 12.0876C13.7665 10.7626 13.7713 9.43738 13.7762 8.11212C13.9017 8.25409 13.8516 8.42625 13.8526 8.58621C13.8571 9.57454 13.8719 10.5632 13.8481 11.5509C13.8391 11.9183 13.9663 12.0256 14.3122 12.0002C14.6399 11.9758 14.9707 11.996 15.2999 11.9967C15.4361 12.1374 15.6118 12.0824 15.7705 12.0824C17.0588 12.0831 18.3478 12.1139 19.6335 11.9944C19.7238 11.9238 19.8137 11.9161 19.9027 11.9964C19.8404 12.3095 19.8192 12.5899 20.1924 12.757C20.3308 12.8193 20.2489 13.0261 20.264 13.1681Z" fill="#F57815"/>
<path d="M6.45526 20.1197C6.35902 20.3251 6.15266 20.4193 6.0015 20.5696C5.82024 20.571 5.62451 20.5929 5.54952 20.3691C5.46892 20.13 5.75086 20.215 5.8161 20.0887C5.86865 19.9874 5.97523 19.9092 6.06911 19.8351C6.29968 19.6529 6.23355 19.51 5.98527 19.4988C5.55099 19.479 5.66702 19.3367 5.85537 19.1194C5.95131 19.009 6.06321 18.8688 6.07324 18.7351C6.10365 18.3277 6.24683 18.1851 6.64184 18.3849C6.72539 18.4274 6.87477 18.4325 6.83137 18.2491C6.74576 17.8881 6.95418 17.7071 7.24557 17.6064C7.62434 17.4754 7.61134 17.2929 7.35657 17.0491C7.73327 16.5188 8.26467 16.1466 8.75503 15.7424C9.03313 15.5136 9.27167 15.2541 9.52881 15.0097C9.70683 14.8405 9.8878 14.6941 10.1497 14.7012C10.1502 15.3946 10.1511 16.0881 10.152 16.7816C10.0035 16.9685 9.85296 17.1524 9.61383 17.2303C8.55251 18.1842 7.35125 18.9851 6.45526 20.1197Z" fill="#F79210"/>
<path d="M10.1532 13.17C9.42641 13.1136 8.70754 13.2612 7.98366 13.253C7.76962 13.2506 7.64475 13.4339 7.44783 13.439C7.47795 13.3784 7.50776 13.3182 7.53788 13.258C7.58777 13.1057 7.72534 13.0788 7.85317 13.0386C7.95473 13.0071 8.05599 12.974 8.08787 12.8553C8.25408 12.2383 8.6981 12.1037 9.26315 12.1748C9.3219 12.1822 9.38271 12.1781 9.41401 12.1754C8.71433 12.1539 7.98927 12.259 7.26096 12.2197C7.07202 12.2097 6.86566 12.2516 6.7207 12.0742C7.29934 11.4808 7.79413 10.81 8.43623 10.2733C8.77603 9.9893 9.05443 9.63208 9.45445 9.41834C9.711 9.28107 9.99353 9.06437 9.98644 9.62264C9.98526 9.71799 10.062 9.78117 10.147 9.82309C10.1491 10.9387 10.1512 12.0544 10.1532 13.17Z" fill="#F68F11"/>
<path d="M5.10059 23.8189C5.28067 23.8189 5.46223 23.8056 5.64114 23.8213C5.9272 23.8464 6.10582 23.7678 6.30125 23.5119C6.5637 23.1677 6.95841 22.93 7.2746 22.6171C8.02712 21.8725 8.81742 21.1667 9.58382 20.436C9.74943 20.2783 9.89557 20.1112 10.1468 20.1157C10.1471 20.6893 10.1474 21.2626 10.1474 21.8362C10.1037 21.8758 10.0222 21.9147 10.0216 21.9549C10.0081 22.8651 9.06305 23.0998 8.71173 23.7643C8.6459 23.8889 8.49711 23.9107 8.35392 23.9101C7.35017 23.9075 6.34671 23.9087 5.34296 23.9087C5.25085 23.9087 5.16347 23.8969 5.10059 23.8189Z" fill="#F78F11"/>
<path d="M11.9766 23.9736C12.4534 23.9273 12.9323 23.9606 13.4102 23.9541C13.9189 23.9473 13.9123 23.9517 13.9219 23.4287C13.9417 22.3229 13.8537 21.2174 13.9141 20.1113C13.9226 19.4451 13.9325 18.7785 13.9072 18.1123C13.9612 16.664 13.8707 15.2152 13.8936 13.7666C13.8963 13.6038 13.9081 13.4367 13.8242 13.2842C13.7082 13.1368 13.5401 13.1228 13.376 13.1211C12.5673 13.1129 11.7604 13.0311 10.9521 13.042C10.6363 13.0464 10.4846 12.9777 10.4746 12.6318C10.4644 12.2547 10.6769 12.2265 10.9609 12.2285C11.7104 12.2336 12.4595 12.2361 13.209 12.2275C13.4288 12.2248 13.6666 12.256 13.8301 12.0488C13.919 11.8656 13.8932 11.6683 13.8945 11.4756C13.902 10.3694 13.886 9.26312 13.9014 8.15625C13.9109 7.6678 13.9471 7.17815 13.8662 6.69141C13.8495 6.643 13.8254 6.60039 13.792 6.56152C13.4885 6.39905 13.1461 6.44644 12.8252 6.37988C12.3418 6.27981 12.2156 5.98806 12.4971 5.5752C12.5739 5.46289 12.6594 5.36009 12.7666 5.27441C12.8816 5.18267 13.0456 5.09054 12.9707 4.91699C12.9312 4.82528 12.8659 4.80926 12.7949 4.8125C12.826 4.80008 12.8507 4.7702 12.8594 4.7002C12.4996 4.71316 12.1362 4.69755 11.7822 4.74805C11.5218 4.78525 11.4039 4.68898 11.2861 4.48145C10.9977 3.9736 10.7027 3.46754 10.3818 2.97949C9.57129 1.74555 8.50709 0.780943 7.13086 0.239258C4.85618 -0.655729 3.10307 1.11124 3.2041 3.04492C3.28066 4.50958 4.91972 6.27865 6.37207 6.51758C6.53183 6.76335 6.78972 6.7251 7.02344 6.72852C7.86468 6.74114 8.70627 6.73203 9.54785 6.7334C9.83387 6.73374 10.0041 6.82238 9.99902 7.14453C9.98366 8.04532 10.0275 8.94652 10.0039 9.84766C9.98992 10.9513 10.0019 12.0546 10.0176 13.1582C9.9913 13.6763 9.99092 14.1948 10.0186 14.7129C9.98579 15.4058 9.99636 16.0997 10.0117 16.793C10.0011 17.8985 9.97696 19.0051 10.0176 20.1113C9.98925 20.6887 9.99359 21.2668 10.0127 21.8447C10.0311 22.1578 10.0054 22.4717 10.0078 22.7842C10.0109 23.1627 9.90107 23.5634 10.1494 23.9131C10.4399 24.0111 10.7443 23.9097 11.0371 23.9717C11.3499 23.9723 11.6631 23.9731 11.9766 23.9736ZM10.3145 5.66992C8.85263 5.57019 7.55062 5.12661 6.46289 4.14844C6.2155 3.92614 6.05627 3.63346 5.91504 3.33203C5.80891 3.10595 5.79349 2.89464 5.98047 2.71484C6.16322 2.53853 6.34801 2.66997 6.5166 2.75684C7.37783 3.20019 8.10758 3.82348 8.80957 4.47754C9.06664 4.71724 9.33495 4.94439 9.66699 5.03223C10.016 5.12523 10.1951 5.33439 10.3145 5.66992ZM12.5713 4.8252C12.6048 4.78724 12.6683 4.81191 12.7275 4.81934C12.6714 4.82779 12.616 4.8374 12.5713 4.8252Z" fill="#EC3820"/>
<path d="M13.7615 12.0879C13.7606 12.477 13.7594 12.8658 13.7585 13.2546C12.9278 13.2697 12.0985 13.2499 11.271 13.1719C11.2264 13.1678 11.1768 13.1829 11.1369 13.1684C10.8866 13.0775 10.5834 13.412 10.3883 13.1232C10.2466 12.9136 10.3785 12.6205 10.3283 12.374C10.2734 12.1038 10.3986 12.0814 10.6126 12.0829C11.6621 12.09 12.7119 12.0873 13.7615 12.0879Z" fill="#D72624"/>
<path d="M6.72073 12.0743C7.80715 12.0743 8.89386 12.0743 9.98057 12.0743C9.65937 12.3571 9.29949 12.2426 8.95792 12.2618C8.53339 12.2857 8.28275 12.4932 8.25647 12.9225C8.24555 13.0964 8.18533 13.1713 8.01705 13.1666C7.85054 13.1619 7.68581 13.1666 7.53791 13.2581C7.00592 13.1102 6.47718 13.1749 5.93958 13.244C5.69277 13.2759 5.2833 13.4019 5.19739 13.143C5.08226 12.7949 5.52804 12.7616 5.75359 12.6225C5.92895 12.5139 6.12114 12.4345 6.19937 12.2665C5.48641 12.2665 4.77965 12.2665 4.07319 12.2665C3.5781 12.2665 3.08331 12.2671 2.58852 12.2665C2.40991 12.2662 2.2192 12.2951 2.12207 12.0852C3.65486 12.0814 5.18765 12.0778 6.72073 12.0743Z" fill="#F36318"/>
<path d="M17.6464 23.8208C16.8069 23.8202 15.9674 23.8217 15.1276 23.8164C15.0165 23.8155 14.8624 23.876 14.8099 23.7308C14.7691 23.62 14.8914 23.548 14.965 23.4798C16.0581 22.466 17.1952 21.495 18.2345 20.4294C18.9455 19.7003 19.784 19.1148 20.4484 18.346C20.6931 18.0625 21.1094 17.9714 21.2576 17.5913C21.4455 17.6179 21.4304 17.7608 21.4377 17.8972C21.4787 18.6716 21.3496 19.4513 21.5113 20.2224C21.5313 20.3184 21.4725 20.3939 21.4087 20.46C20.3866 21.5216 19.3858 22.6036 18.2959 23.5982C18.1008 23.7759 17.8971 23.8459 17.6464 23.8208Z" fill="#F5AF19"/>
<path d="M19.9027 11.9961C19.8131 11.9958 19.7235 11.9951 19.6335 11.9944C19.6158 11.8065 19.6867 11.666 19.8706 11.6095C20.3947 11.4496 20.7489 11.067 21.1055 10.685C21.2887 10.4893 21.5814 10.5556 21.5914 10.8372C21.6132 11.4442 22.0145 11.6804 22.4931 11.8784C22.4868 11.9178 22.4798 11.957 22.4734 11.9961C21.6165 11.9961 20.7596 11.9961 19.9027 11.9961Z" fill="#F5AF19"/>
<path d="M17.668 6.56934C17.7282 6.47979 17.8239 6.49906 17.9111 6.48926C19.4484 6.31692 20.6303 5.30217 21.043 3.80078C21.6144 1.71998 19.8391 -0.194196 17.7715 0.277344C17.2258 0.401576 16.7194 0.62766 16.2354 0.90625C15.0392 1.59512 14.2618 2.68575 13.4854 3.77637C13.4984 3.98939 13.6927 4.13554 13.707 4.34082C13.6657 4.38889 13.6195 4.38611 13.5762 4.39355C13.1384 4.46934 13.1387 4.48334 13.376 4.85156C13.6426 5.26541 14.0117 5.41349 14.457 5.38574C14.5037 5.36136 14.5471 5.33458 14.5762 5.29297C15.3672 4.70745 16.1582 4.121 16.9492 3.53516C17.3111 3.26674 17.697 3.04507 18.1328 2.9209C18.5512 2.80181 18.6535 2.88226 18.666 3.33301C18.6416 3.37041 18.6138 3.40512 18.5889 3.44141C18.7323 3.82543 18.5918 4.15001 18.3018 4.39551C17.8603 4.76922 17.5093 5.21153 17.1816 5.67969C16.9163 6.05798 16.5554 6.23776 16.082 6.28418C15.4678 6.34476 14.8549 6.35437 14.2402 6.36621C14.0635 6.36926 13.8351 6.30684 13.7627 6.57324L13.7715 6.58496C15.07 6.57988 16.3691 6.57441 17.668 6.56934Z" fill="#EC3820"/>
<path d="M18.1421 18.7101C18.2287 18.7794 18.3945 18.8097 18.3787 18.9319C18.3642 19.0467 18.2875 19.1995 18.1291 19.1982C17.9933 19.1973 17.9116 19.0955 17.9373 18.9576C17.9571 18.849 17.9816 18.72 18.1421 18.7101Z" fill="#F6931D"/>
<path d="M1.85554 16.0151C1.85554 15.1555 1.85525 14.3206 1.85584 13.4857C1.85584 13.2693 2.00788 13.2649 2.167 13.2592C2.90004 13.2327 3.63484 13.3159 4.36699 13.1801C4.66546 13.1249 4.79063 13.2693 4.62885 13.5787C4.33924 14.134 3.78777 14.426 3.35291 14.8275C2.90742 15.2387 2.51448 15.7279 1.85554 16.0151Z" fill="#F5AF19"/>
<path d="M6.45527 20.1196C6.40803 20.016 6.3794 19.8982 6.52523 19.8711C6.78296 19.8229 6.90459 19.6278 6.99493 19.4312C7.16852 19.0545 7.53519 18.8824 7.78052 18.6205C8.20327 18.1694 8.85719 18.0401 9.16894 17.4913C9.26577 17.3209 9.4308 17.2586 9.61384 17.2303C9.55214 17.465 9.34844 17.5784 9.18665 17.7266C8.3562 18.4891 7.52544 19.2517 6.69085 20.0095C6.62945 20.0653 6.53439 20.0839 6.45527 20.1196Z" fill="#F79310"/>
<path d="M15.4105 13.1703C15.8009 13.1703 16.1917 13.1658 16.5818 13.1736C16.6742 13.1754 16.8184 13.1094 16.8436 13.2567C16.855 13.3235 16.7869 13.4462 16.7225 13.4777C16.0363 13.8159 15.5799 14.4394 14.9724 14.8757C14.6614 15.0991 14.4035 15.3954 14.1195 15.6563C13.9426 15.8185 13.8562 15.7612 13.8556 15.5363C13.8541 14.8454 13.8589 14.1548 13.8535 13.4636C13.8517 13.2528 13.9396 13.167 14.1489 13.1703C14.5693 13.1772 14.9901 13.1724 15.4105 13.1724C15.4105 13.1718 15.4105 13.1709 15.4105 13.1703Z" fill="#F5AF19"/>
</g>
<defs>
<clipPath id="clip0_5502_61458">
<rect width="24" height="24" rx="3.03109" fill="white"/>
</clipPath>
</defs>
</svg>
