<svg width="24" height="24" viewBox="0 0 24 24" fill="none" xmlns="http://www.w3.org/2000/svg">
<g clip-path="url(#clip0_5476_29523)">
<path d="M19.9293 11.3975C19.4267 12.5638 18.1129 13.183 16.8748 12.7932C16.4848 12.6708 16.1471 12.462 15.874 12.1953C15.2997 11.633 15.0153 10.8124 15.1527 9.99085C15.1709 9.87686 15.1983 9.76114 15.2345 9.648L15.5282 8.71339L15.8798 7.5963C15.9398 7.40297 15.9472 7.20563 15.9089 7.02002C15.8264 6.62262 15.538 6.2792 15.125 6.14951C15.0713 6.13197 15.0171 6.11867 14.9625 6.11186C14.4068 6.02163 13.8517 6.3509 13.6781 6.90407L13.6092 7.12209L12.9452 9.2357L12.2108 11.5707L11.0156 15.375L10.3063 17.6326L9.15852 21.2828C9.1407 21.3371 9.12298 21.3917 9.10187 21.4437C8.96798 21.7871 8.76566 22.085 8.51417 22.3285C7.87487 22.9508 6.92267 23.21 6.01197 22.9236C4.69014 22.5087 3.95536 21.1001 4.37155 19.7786L4.45247 19.518L5.48117 16.2494L6.33947 13.5151L7.3672 10.2439L8.33937 7.1519L8.89058 5.39868C9.14122 4.59948 9.54211 3.88691 10.0504 3.28295C11.141 1.98613 12.7324 1.185 14.4293 1.08711C15.1535 1.04538 15.8971 1.13249 16.6281 1.36212C18.1647 1.846 19.3801 2.87647 20.1248 4.17438C20.9559 5.61737 21.2036 7.39051 20.6657 9.10006L20.4624 9.74537L20.0203 11.1519C19.9938 11.2363 19.9641 11.3173 19.9293 11.3975Z" fill="#FDFFFA"/>
<path d="M8.51409 22.3285C7.87486 22.9506 6.92267 23.2098 6.01207 22.9236C4.69013 22.5085 3.95536 21.0999 4.37154 19.7784L4.45246 19.5178L5.48116 16.2492L6.33963 13.515L7.36712 10.2439L8.33936 7.15173L8.8905 5.39867C9.14139 4.59937 9.5421 3.88673 10.0505 3.28284C11.141 1.98595 12.7324 1.18482 14.4294 1.08718C15.1535 1.0452 15.897 1.13249 16.628 1.36211C16.628 1.36211 11.3141 1.16479 10.0149 5.07832C8.71463 8.99177 5.14723 19.7834 5.14311 20.5942C5.13916 21.3031 5.911 22.4516 8.51409 22.3285Z" fill="#EAEDE9"/>
<path d="M15.875 12.1952C15.3005 11.6329 15.0162 10.8122 15.1537 9.99075C15.1716 9.87686 15.1992 9.76121 15.2352 9.64801L15.5292 8.7133L15.8807 7.59637C15.9406 7.40298 15.9482 7.20553 15.9098 7.02009C15.8274 6.62252 15.539 6.27927 15.1258 6.14934C18.072 6.18386 16.6751 10.2984 15.875 12.1952Z" fill="#EAEDE9"/>
<path d="M9.10145 21.4436C7.04941 19.8244 5.43122 19.5077 4.45254 19.5186L5.48065 16.249C7.61242 16.2258 9.28121 16.9885 10.3061 17.6325L9.15828 21.2827C9.14066 21.3375 9.12264 21.3914 9.10145 21.4436Z" fill="#D81212"/>
<path d="M11.0161 15.3759C8.92603 13.7527 7.29292 13.4813 6.34015 13.5155L7.36795 10.2451C9.48966 10.1964 11.1631 10.9299 12.212 11.5719L11.0161 15.3759Z" fill="#D81212"/>
<path d="M12.9455 9.23563C11.3929 7.92028 9.50287 7.37432 8.33953 7.15159L8.89063 5.39912C9.14211 4.59986 9.5424 3.88725 10.051 3.28302C11.6623 3.91458 12.9443 5.89722 13.61 7.12223L12.9455 9.23563Z" fill="#D81212"/>
<path d="M15.9088 7.01958C15.8269 6.62222 15.538 6.27918 15.1249 6.14908C15.0715 6.13185 15.017 6.11882 14.9632 6.11112C15.1198 5.13947 14.7171 2.64908 14.4294 1.08675C15.1536 1.04543 15.8972 1.13213 16.6289 1.36186C18.1649 1.84588 19.3799 2.87663 20.1256 4.17429C18.824 5.44826 16.6668 6.62482 15.9088 7.01958Z" fill="#D81212"/>
<path d="M5.37004 19.5986C5.02116 19.5352 4.71415 19.5144 4.45285 19.5178L5.48172 16.2493C5.7875 16.2457 6.08339 16.2586 6.36821 16.2853C5.9419 17.6427 5.5868 18.8137 5.37004 19.5986Z" fill="#B50D0D"/>
<path d="M7.23193 13.5719C6.8905 13.5189 6.59252 13.5062 6.3405 13.5156L7.36823 10.2444C7.69089 10.2366 8.00275 10.2475 8.30317 10.2731C7.94901 11.3542 7.58312 12.4797 7.23193 13.5719Z" fill="#B50D0D"/>
<path d="M10.7732 3.6656C10.458 4.06315 10.1981 4.5304 10.0157 5.07821C9.81166 5.69295 9.55123 6.47646 9.25881 7.36513C8.92151 7.27267 8.61179 7.20331 8.3402 7.15145L8.89151 5.39847C9.14223 4.5991 9.54311 3.88653 10.0513 3.28274C10.2999 3.38039 10.5418 3.50987 10.7736 3.66456L10.7732 3.6656Z" fill="#B50D0D"/>
<path d="M16.629 1.36282C16.629 1.36282 15.6975 1.3281 14.518 1.57621C14.4885 1.4061 14.4584 1.24224 14.4302 1.08781C15.1544 1.04608 15.8978 1.13312 16.629 1.36282Z" fill="#B50D0D"/>
<path d="M16.8757 12.7935C15.6669 12.4145 14.95 11.2044 15.1526 9.99147C15.1715 9.87717 15.1986 9.76173 15.2348 9.64818L15.5284 8.71333C16.4637 9.17149 18.6589 10.102 20.4628 9.74621L20.021 11.1527C19.9947 11.2365 19.9645 11.3179 19.9298 11.3974C19.4268 12.5641 18.1132 13.1829 16.8757 12.7935Z" fill="#D81212"/>
<path d="M15.8755 12.196C15.8514 12.1722 15.8275 12.1484 15.8053 12.123C15.7847 12.1017 15.7646 12.0795 15.7444 12.0571C15.7123 12.0215 15.6826 11.9856 15.6537 11.9468C15.6369 11.9269 15.6209 11.9052 15.6057 11.8839C15.5855 11.8561 15.5662 11.8291 15.5474 11.8007C15.4609 11.6724 15.3862 11.5361 15.325 11.3931C15.3068 11.35 15.289 11.3058 15.2723 11.2613C15.2226 11.1252 15.1845 10.9841 15.1588 10.8394C15.153 10.8109 15.1485 10.7821 15.1448 10.7535C15.1338 10.6765 15.1268 10.5978 15.1219 10.5188C15.1212 10.4862 15.1204 10.4534 15.1199 10.4197C15.119 10.3846 15.1204 10.3494 15.1211 10.3127C15.1232 10.2734 15.1253 10.2332 15.1294 10.1937C15.1314 10.162 15.1343 10.1309 15.1386 10.0989C15.1435 10.0629 15.1484 10.0271 15.1541 9.99149C15.1721 9.8776 15.1996 9.76195 15.2357 9.64874L15.5296 8.71403C15.8377 8.86511 16.2829 9.06741 16.8057 9.25801C16.6118 10.3231 16.1956 11.4367 15.8755 12.196Z" fill="#B50D0D"/>
<path d="M10.02 11.0355C10.02 11.0355 3.52313 12.4715 1.36544 14.5854L3.66865 14.6751L3.0192 17.076C3.0192 17.076 8.94811 12.6515 10.0286 12.4553L10.02 11.0355Z" fill="#1A6B00"/>
<path d="M9.46166 11.9951C8.08473 12.1827 4.78769 12.2223 3.7866 11.7023C3.06635 11.3288 3.19276 9.95793 3.65495 8.64296C4.10394 7.36303 4.87052 6.13606 5.48545 5.92861C6.13582 5.70848 7.35519 6.96353 8.37178 8.21363C8.80276 8.74257 9.19743 9.26991 9.49693 9.6849L9.46166 11.9951Z" fill="#008A00"/>
<path d="M8.37197 8.21325C7.83364 7.96225 6.9526 7.5764 5.93864 7.22991C4.76318 6.82756 4.00466 7.93865 3.65497 8.64251C4.10413 7.36265 4.8707 6.13568 5.48564 5.92823C6.13601 5.7081 7.35531 6.96332 8.37197 8.21325Z" fill="#3FA61D"/>
<path d="M6.86709 9.23355C7.49155 9.55646 8.07941 9.95015 8.61581 10.4049C7.36858 10.3406 6.11362 10.4262 4.88672 10.6592C5.52394 10.5381 6.38667 10.7392 7.0278 10.814C7.77848 10.9016 8.52505 11.0237 9.26433 11.1801C9.74062 11.2809 10.5179 11.3492 10.2 10.58C10.0445 10.2032 9.55454 10.1142 9.21559 9.97707C8.44367 9.66519 7.69258 9.37611 6.86709 9.23355Z" fill="#1A6B00"/>
<path d="M10.3774 11.1807C10.3774 11.1807 14.0358 16.7383 14.11 19.758L12.3957 18.2172L11.1883 20.3916C11.1883 20.3916 10.0198 13.0866 9.38169 12.1929L10.3774 11.1807Z" fill="#1A6B00"/>
<path d="M10.1081 12.2574C10.9649 13.3516 13.3017 15.6777 14.3819 16.0024C15.1589 16.2366 16.0236 15.1654 16.6086 13.9002C17.1786 12.6694 17.484 11.2553 17.1874 10.6779C16.8745 10.0668 15.1254 10.1171 13.5249 10.305C12.8474 10.3841 12.1969 10.4872 11.6927 10.576L10.1081 12.2574Z" fill="#008A00"/>
<path d="M13.5257 10.3042C14.0867 10.4993 14.9874 10.8366 15.956 11.2948C17.0794 11.8255 16.8492 13.151 16.6093 13.8994C17.1793 12.6686 17.4847 11.2544 17.1881 10.677C16.8751 10.0659 15.1259 10.1163 13.5257 10.3042Z" fill="#3FA61D"/>
<path d="M13.8945 12.0845C13.2217 11.8809 12.5257 11.7535 11.8241 11.7059C12.7633 12.529 13.6037 13.465 14.3214 14.4871C13.9486 13.9562 13.1897 13.4991 12.6778 13.106C12.0786 12.6457 11.458 12.2128 10.8188 11.8098C10.4069 11.5502 9.80192 11.0574 10.566 10.7273C10.9401 10.5655 11.3535 10.8432 11.6921 10.981C12.4631 11.2953 13.2033 11.6115 13.8945 12.0845Z" fill="#1A6B00"/>
<path d="M9.16157 9.08073C9.16157 9.08073 10.9852 8.41262 12.3546 10.3767C12.3546 10.3767 10.8679 13.1496 9.73007 12.7506C8.59215 12.3517 9.16157 9.08073 9.16157 9.08073Z" fill="#3FA61D"/>
</g>
<defs>
<clipPath id="clip0_5476_29523">
<rect width="24" height="24" rx="3.03109" fill="white"/>
</clipPath>
</defs>
</svg>
