<svg width="36" height="36" viewBox="0 0 36 36" fill="none" xmlns="http://www.w3.org/2000/svg">
<path d="M9.75005 9.19224C9.68571 9.06896 9.65217 8.93203 9.65229 8.79307C9.65229 8.31503 10.0411 7.92749 10.5208 7.92749H13.7055C14.1852 7.92749 14.574 8.31503 14.574 8.79307C14.574 8.94268 14.5356 9.08489 14.4671 9.20937C16.1436 9.57623 17.3864 11.0661 17.3864 12.8324V18.3144C17.3864 20.3632 15.7199 22.024 13.6641 22.024H10.5622C8.50639 22.024 6.83984 20.3632 6.83984 18.3144V12.8324C6.83984 11.0838 8.05795 9.60601 9.70903 9.22064L9.75918 9.20929L9.75005 9.19224ZM13.7055 8.42213H10.5208C10.4326 8.42207 10.3473 8.45323 10.28 8.51005C10.2127 8.56686 10.1678 8.64565 10.1534 8.73236C10.1389 8.81908 10.1559 8.90808 10.2011 8.98352C10.2464 9.05896 10.3171 9.11592 10.4006 9.14426L11.5693 9.54078L10.3376 9.62511C8.6527 9.74044 7.33617 11.1401 7.33617 12.8324V18.3144C7.33617 20.09 8.78052 21.5294 10.5622 21.5294H13.6641C15.4458 21.5294 16.8901 20.09 16.8901 18.3144V12.8324C16.8901 11.1401 15.5736 9.74044 13.8887 9.6252L12.6578 9.54095L13.8257 9.14437C13.8992 9.11933 13.963 9.072 14.0082 9.009C14.0534 8.94601 14.0777 8.87051 14.0777 8.79307C14.0777 8.69469 14.0385 8.60034 13.9687 8.53078C13.8989 8.46122 13.8042 8.42213 13.7055 8.42213ZM12.779 25.2799C13.053 27.5549 14.25 29.357 16.3773 30.6939L16.4764 30.7563L16.4196 30.8585C15.6492 32.2436 14.8718 32.585 13.0187 32.1624L12.9207 32.1397L12.8939 32.1065C12.1058 31.1309 11.639 28.8482 11.4775 25.2414C11.3781 25.2014 11.2931 25.1327 11.2332 25.0441C11.1733 24.9556 11.1412 24.8512 11.1412 24.7444C11.1412 24.4485 11.3819 24.2086 11.6789 24.2086H11.7202V23.3842H12.4647V24.2086H12.5061C12.803 24.2086 13.0437 24.4485 13.0437 24.7444C13.0437 24.837 13.0197 24.928 12.9739 25.0086C12.9281 25.0892 12.8622 25.1566 12.7825 25.2042L12.771 25.2108L12.779 25.2799ZM16.0801 30.7974C13.9384 29.3962 12.7468 27.5036 12.5127 25.1275L12.6316 25.1156L12.5986 25.018C12.656 24.9986 12.7059 24.9618 12.7413 24.9128C12.7766 24.8637 12.7956 24.8048 12.7956 24.7444C12.7956 24.6679 12.7651 24.5945 12.7108 24.5404C12.6565 24.4863 12.5828 24.4559 12.5061 24.4559H12.2165V23.6315H11.9684V24.4559H11.6789C11.6409 24.4559 11.6032 24.4634 11.5681 24.4778C11.533 24.4923 11.501 24.5136 11.4742 24.5404C11.4473 24.5672 11.426 24.599 11.4114 24.634C11.3969 24.669 11.3894 24.7065 11.3894 24.7444C11.3894 24.8111 11.4125 24.8757 11.4549 24.9273C11.4973 24.9789 11.5563 25.0143 11.6219 25.0274L11.7174 25.0464L11.7215 25.1434C11.8754 28.7063 12.327 30.9703 13.061 31.9184L13.1248 31.9328C14.0225 32.1319 14.6317 32.1288 15.0876 31.9348C15.4879 31.7645 15.7921 31.4456 16.1297 30.8666L16.1453 30.8397L16.0801 30.7974Z" fill="#CE0000"/>
<path d="M11.8447 23.5078H12.341V24.3322H11.8447V23.5078Z" fill="#FF2A0D"/>
<path d="M11.8447 23.5078H12.0102V24.3322H11.8447V23.5078Z" fill="#D10D0D"/>
<path d="M9.85938 22.0242H14.2848V23.508H9.85938V22.0242Z" fill="#FFE400"/>
<path d="M10.6866 22.0242V23.508H9.85938V22.0242L10.6866 22.0242Z" fill="#FFA700"/>
<path d="M11.5962 25.1155H12.6362C12.8724 27.513 14.0974 29.4074 16.3111 30.7986C15.6267 32.0291 14.9697 32.4914 12.9905 32.0291C12.2163 31.0705 11.7515 28.766 11.5962 25.1155Z" fill="#FFE400"/>
<path d="M11.5962 25.1155H11.9554C12.0865 26.6459 12.3335 27.9934 12.6967 29.158C13.0598 30.3225 13.7407 31.3259 14.7395 32.1682C14.2968 32.2455 13.7394 32.2019 12.9966 32.0291C12.2191 31.0705 11.7522 28.7661 11.5962 25.1155Z" fill="#FFA700"/>
<path d="M11.6792 24.3323H12.5064C12.7821 24.3323 12.92 24.4697 12.92 24.7445C12.92 25.0193 12.7821 25.1567 12.5064 25.1567H11.6792C11.4035 25.1567 11.2656 25.0193 11.2656 24.7445C11.2656 24.4697 11.4035 24.3323 11.6792 24.3323V24.3323Z" fill="#FF2A0D"/>
<path d="M12.0101 24.3323C11.7817 24.3323 11.5965 24.5168 11.5965 24.7445C11.5965 24.9722 11.7817 25.1567 12.0101 25.1567H11.6792C11.4508 25.1567 11.2656 24.9721 11.2656 24.7445C11.2656 24.5168 11.4508 24.3323 11.6792 24.3323L12.0101 24.3323Z" fill="#D10D0D"/>
<path d="M14.4089 23.6315H9.73535V21.9004H14.4089V23.6315ZM9.98356 22.1477V23.3842H14.1608V22.1477H9.98356Z" fill="#CE0000"/>
<path d="M9.85938 22.0242H14.2848V23.508H9.85938V22.0242Z" fill="#FFE400"/>
<path d="M9.85938 22.0242H10.6866V23.508H9.85938V22.0242Z" fill="#FFA700"/>
<path d="M12.1341 5.53687C12.5452 5.53687 12.8786 5.86904 12.8786 6.27878L12.8784 6.29193C12.8723 6.51492 12.7175 7.14771 12.4031 8.25918L12.1341 9.20607L11.8651 8.25918C11.5443 7.12502 11.3896 6.48928 11.3896 6.27878L11.3898 6.26517C11.3971 5.86165 11.7275 5.53687 12.1341 5.53687ZM12.0958 7.22463L12.1341 7.36883L12.1797 7.1969C12.3096 6.70167 12.3781 6.39219 12.3821 6.28785L12.3823 6.27878C12.3823 6.21319 12.3561 6.15028 12.3096 6.10391C12.263 6.05753 12.1999 6.03147 12.1341 6.03147C12.0683 6.03147 12.0052 6.05753 11.9586 6.10391C11.9121 6.15028 11.886 6.21319 11.886 6.27878L11.8861 6.2883C11.8904 6.39506 11.9614 6.7139 12.0958 7.2246V7.22463Z" fill="#CE0000"/>
<path d="M10.5208 8.1748H13.7054C14.119 8.1748 14.3258 8.3809 14.3258 8.79308C14.3258 9.20526 14.119 9.41135 13.7054 9.41135H10.5208C10.1072 9.41135 9.90039 9.20526 9.90039 8.79308C9.90039 8.38091 10.1072 8.1748 10.5208 8.1748Z" fill="#FFE400"/>
<path d="M11.2652 8.1748C10.9226 8.1748 10.6448 8.45164 10.6448 8.79308C10.6448 9.13455 10.9226 9.41135 11.2652 9.41135H10.5208C10.1781 9.41135 9.90039 9.13455 9.90039 8.79308C9.90039 8.45164 10.1781 8.17483 10.5208 8.17483L11.2652 8.1748Z" fill="#FFA700"/>
<path d="M10.5625 9.37012H13.6645C15.9806 9.37012 17.1386 10.5242 17.1386 12.8324V18.3144C17.1386 20.6226 15.9806 21.7767 13.6645 21.7767H10.5625C8.24643 21.7767 7.08838 20.6226 7.08838 18.3144V12.8324C7.08838 10.5242 8.24643 9.37012 10.5625 9.37012Z" fill="#FF2A0D"/>
<path d="M12.2169 9.37012C10.2982 9.37012 8.74274 10.9202 8.74274 12.8324V18.3144C8.74274 20.2266 10.2982 21.7767 12.2169 21.7767H10.5625C8.64381 21.7767 7.08838 20.2266 7.08838 18.3144V12.8324C7.08838 10.9202 8.64381 9.37012 10.5625 9.37012H12.2169Z" fill="#D10D0D"/>
<path d="M12.1047 12.9973L14.681 15.5649L12.1047 18.1325L9.52832 15.5649L12.1047 12.9973ZM13.0614 15.5656H11.8513V16.613H12.056V16.5291H12.8567V16.613H13.0614V15.5656H13.0614ZM11.4691 14.5001L11.2666 14.5568C11.3053 14.6407 11.3395 14.7268 11.3713 14.8152H11.071V15.0215H11.5715C11.4759 15.2505 11.294 15.4862 11.0232 15.7311L11.0892 15.9578C11.17 15.8858 11.2482 15.811 11.3235 15.7333V16.6107H11.5328V15.6993C11.5959 15.7575 11.6551 15.8196 11.7102 15.8852L11.8262 15.7084C11.7363 15.6235 11.6388 15.5469 11.5351 15.4795C11.6511 15.3208 11.7352 15.1598 11.7898 14.9966V14.8152H11.5737C11.5454 14.7081 11.5105 14.6029 11.4691 14.5001ZM12.354 16.1301V16.3432H12.056V16.1301H12.354ZM12.8567 16.1301V16.3432H12.5587V16.1301H12.8567ZM12.354 15.7447V15.951H12.056V15.7447H12.354ZM12.8567 15.7447V15.951H12.5587V15.7447H12.8567ZM12.9591 14.9059H11.9582V15.4341H12.9591V14.9059ZM12.7566 15.0759V15.2641H12.1606V15.0759H12.7566ZM13.0865 14.5953H11.8353V14.7858H13.0865V14.5953Z" fill="#FFE400"/>
<path d="M12.1047 12.9973L12.3263 13.2181L9.97144 15.5649L12.3263 17.9116L12.1047 18.1325L9.52832 15.5649L12.1047 12.9973Z" fill="#FFA700"/>
<path d="M15.4796 8.24039C15.4093 8.14967 15.3578 8.0459 15.3281 7.93513L15.2861 7.77898C15.162 7.31723 15.4369 6.8426 15.9003 6.71887L19.5352 5.7482C19.9985 5.62451 20.4747 5.89855 20.5989 6.3603L20.6409 6.5164C20.6726 6.63397 20.679 6.7569 20.6597 6.87711C22.4921 6.62471 24.2691 7.76593 24.7603 9.59269L26.6051 16.4544C27.1372 18.4333 25.9588 20.4674 23.973 20.9977L19.7078 22.1367C17.7221 22.667 15.681 21.4925 15.1489 19.5136L13.304 12.6519C12.8178 10.8434 13.7601 8.98887 15.4416 8.27807L15.4928 8.25688L15.4796 8.24039ZM19.6636 6.22596L16.0287 7.19663C15.9334 7.2221 15.8521 7.28426 15.8027 7.36946C15.7533 7.45466 15.74 7.55591 15.7655 7.65095L15.8075 7.80707C15.8266 7.87806 15.8663 7.9418 15.9218 7.99023C15.9773 8.03866 16.0459 8.0696 16.119 8.07911L17.3598 8.24068L16.0646 8.58629C14.3436 9.04587 13.3223 10.8088 13.7834 12.5238L15.6283 19.3855C16.0895 21.1006 17.8584 22.1184 19.5794 21.6589L23.8446 20.5199C25.5656 20.0604 26.5869 18.2975 26.1257 16.5824L24.2808 9.72069C23.8197 8.0056 22.0507 6.98782 20.3298 7.44734L19.0347 7.79341L20.0281 7.03527C20.0867 6.9906 20.1306 6.92961 20.1544 6.86003C20.1781 6.79045 20.1806 6.71541 20.1615 6.64443L20.1195 6.48828C20.1069 6.44122 20.085 6.39711 20.0553 6.35846C20.0255 6.31981 19.9884 6.28738 19.9461 6.26302C19.9038 6.23866 19.857 6.22285 19.8086 6.21649C19.7601 6.21013 19.7108 6.21335 19.6636 6.22596ZM23.5212 24.9799C24.4913 27.3847 26.3304 29.0045 29.0479 29.8446L29.1599 29.8793L29.1237 30.0236L29.1079 30.0853C28.8919 30.9103 28.6255 31.4131 28.1717 31.7679C27.6609 32.1674 26.9105 32.3622 25.7497 32.3987L25.707 32.4001L25.6725 32.3749C24.5296 31.5423 23.351 29.1892 22.1171 25.3032C21.8858 25.2953 21.6789 25.1381 21.6165 24.9062L21.5885 24.8021C21.5116 24.5163 21.6819 24.2225 21.9687 24.1459L22.0818 24.1157L21.8397 23.2153L22.6214 23.0065L22.8635 23.907L22.9766 23.8768C23.2634 23.8002 23.5582 23.9698 23.6351 24.2557L23.6631 24.3598C23.6888 24.4556 23.6874 24.5566 23.659 24.6517C23.6305 24.7467 23.5762 24.832 23.502 24.8982L23.4921 24.9068L23.5212 24.9799V24.9799ZM28.8618 30.0455C26.0901 29.1591 24.2137 27.4581 23.2418 24.9477L23.2232 24.8991L23.3383 24.8552L23.2821 24.7519C23.3392 24.7209 23.3841 24.6717 23.4098 24.6122C23.4354 24.5527 23.4402 24.4863 23.4234 24.4237L23.3954 24.3196C23.3855 24.283 23.3686 24.2487 23.3454 24.2187C23.3223 24.1886 23.2934 24.1634 23.2605 24.1444C23.2276 24.1255 23.1912 24.1132 23.1535 24.1082C23.1158 24.1033 23.0775 24.1058 23.0408 24.1156L22.688 24.2098L22.446 23.3095L22.1436 23.3902L22.3857 24.2905L22.0329 24.3848C21.9587 24.4046 21.8955 24.4529 21.8571 24.5192C21.8187 24.5854 21.8083 24.6642 21.8282 24.7381L21.8562 24.8422C21.8749 24.9117 21.919 24.9718 21.9798 25.0106C22.0406 25.0494 22.1138 25.0642 22.185 25.052L22.292 25.0335L22.3611 25.2518C23.5639 29.0343 24.7116 31.3377 25.7851 32.1501L25.854 32.1475C26.9022 32.1039 27.5728 31.9219 28.0185 31.5734C28.4067 31.2698 28.6464 30.8331 28.8453 30.1067L28.8618 30.0455Z" fill="#CE0000"/>
<path d="M21.9912 23.2973L22.5333 23.1526L22.7754 24.0529L22.2333 24.1977L21.9912 23.2973Z" fill="#FF2A0D"/>
<path d="M21.9912 23.2975L22.1719 23.2493L22.4139 24.1496L22.2333 24.1979L21.9912 23.2975Z" fill="#D10D0D"/>
<path d="M19.3872 22.2558L24.2206 20.9651L24.6564 22.5857L19.823 23.8764L19.3872 22.2558Z" fill="#FFE400"/>
<path d="M20.2907 22.0144L20.7264 23.6351L19.8229 23.8763L19.3872 22.2557L20.2907 22.0144V22.0144Z" fill="#FFA700"/>
<path d="M22.1919 25.1253L23.3278 24.822C24.2898 27.3717 26.184 29.0834 29.0104 29.9573C28.6242 31.5008 28.0423 32.1973 25.745 32.2697C24.6178 31.4486 23.4335 29.0671 22.1919 25.1254V25.1253Z" fill="#FFE400"/>
<path d="M22.1919 25.1255L22.5842 25.0208C23.1767 26.654 23.8423 28.0537 24.5809 29.2197C25.3195 30.3856 26.3579 31.283 27.696 31.9116C27.2352 32.1252 26.607 32.2419 25.745 32.2698C24.6142 31.4497 23.4298 29.0682 22.1919 25.1255Z" fill="#FFA700"/>
<path d="M22.0001 24.2599L23.0081 23.9908C23.2744 23.9197 23.4432 24.0168 23.5146 24.2823L23.5426 24.3863C23.6139 24.6518 23.5164 24.82 23.2501 24.8912L22.2422 25.1603C21.9759 25.2314 21.807 25.1343 21.7357 24.8688L21.7077 24.7648C21.6363 24.4993 21.7338 24.3311 22.0001 24.2599Z" fill="#FF2A0D"/>
<path d="M22.3614 24.1633C22.1408 24.2223 22.0098 24.4482 22.0689 24.6681L22.0969 24.7722C22.1561 24.9921 22.3828 25.1225 22.6034 25.0636L22.2421 25.1602C22.0214 25.2191 21.7947 25.0886 21.7356 24.8687L21.7076 24.7646C21.6484 24.5448 21.7794 24.3187 22 24.2598L22.3614 24.1633Z" fill="#D10D0D"/>
<path d="M24.8079 22.6732L19.7348 24.0279L19.2349 22.1684L24.308 20.8137L24.8079 22.6732ZM19.5388 22.3433L19.9103 23.725L24.504 22.4984L24.1325 21.1166L19.5388 22.3432V22.3433Z" fill="#CE0000"/>
<path d="M19.3872 22.2558L24.2206 20.9651L24.6564 22.5857L19.823 23.8764L19.3872 22.2558Z" fill="#FFE400"/>
<path d="M19.3872 22.2557L20.2906 22.0144L20.7264 23.6351L19.8229 23.8763L19.3872 22.2557Z" fill="#FFA700"/>
<path d="M16.9526 3.62778C17.3844 3.51249 17.8282 3.76782 17.9439 4.19816L17.9474 4.21216C18.0046 4.45079 18.0216 5.17447 18.0055 6.45049L17.9909 7.48943L17.4792 6.63425C16.8113 5.51517 16.4559 4.86847 16.3844 4.63016L16.3803 4.61565C16.2646 4.18534 16.5208 3.74305 16.9526 3.62778ZM17.4228 5.55944L17.5146 5.71802L17.5145 5.50979C17.5124 4.85875 17.4957 4.45921 17.4667 4.33515L17.4645 4.32613C17.4425 4.24672 17.39 4.17917 17.3183 4.13823C17.2465 4.09729 17.1615 4.08628 17.0816 4.1076C17.0018 4.12892 16.9337 4.18084 16.8921 4.25203C16.8505 4.32322 16.8389 4.40791 16.8597 4.48761C16.8904 4.60178 17.0817 4.96729 17.4228 5.55944Z" fill="#CE0000"/>
<path d="M15.9648 6.95778L19.5997 5.98719C19.9992 5.8805 20.2525 6.02623 20.3595 6.42438L20.4015 6.58053C20.5086 6.97866 20.3624 7.23106 19.9628 7.33774L16.3279 8.30839C15.9284 8.41508 15.6752 8.26935 15.5681 7.8712L15.5261 7.71505C15.4191 7.31692 15.5653 7.06451 15.9648 6.95784L15.9648 6.95778Z" fill="#FFE400"/>
<path d="M16.7774 6.74048C16.4465 6.82884 16.2501 7.16791 16.3388 7.49769L16.3808 7.65381C16.4694 7.98365 16.8096 8.17939 17.1406 8.09103L16.3275 8.30815C15.9965 8.39654 15.6563 8.2008 15.5676 7.87097L15.5257 7.71482C15.437 7.38501 15.6334 7.04599 15.9644 6.95761L16.7774 6.74048Z" fill="#FFA700"/>
<path d="M16.0001 8.34736L20.2653 7.20842C22.5025 6.611 23.9209 7.42707 24.5203 9.65663L26.3652 16.5183C26.9646 18.7479 26.1458 20.1614 23.9086 20.7588L19.6434 21.8977C17.4062 22.4951 15.9879 21.6791 15.3884 19.4495L13.5435 12.5878C12.9441 10.3583 13.763 8.9448 16.0002 8.34739L16.0001 8.34736Z" fill="#FF2A0D"/>
<path d="M17.8075 7.86475C15.9542 8.35966 14.8543 10.2582 15.3509 12.1052L17.1958 18.9669C17.6924 20.8139 19.5974 21.91 21.4508 21.4151L19.6439 21.8976C17.7905 22.3925 15.8855 21.2964 15.3889 19.4494L13.544 12.5877C13.0474 10.7407 14.1473 8.84215 16.0007 8.34727L17.8075 7.86475Z" fill="#D10D0D"/>
<path d="M19.1888 11.742L22.7567 13.7948L20.6967 17.3505L17.1289 15.2977L19.1888 11.7419V11.742ZM20.9879 14.268L19.6662 14.6209L19.9738 15.7648L20.1974 15.7051L20.1728 15.6135L21.0472 15.38L21.0719 15.4716L21.2955 15.4119L20.9879 14.268ZM18.9359 13.5687L18.7315 13.6896C18.7983 13.77 18.8609 13.8541 18.9216 13.9414L18.5937 14.0289L18.6543 14.2543L19.2009 14.1083C19.1638 14.3862 19.0342 14.6968 18.8104 15.0431L18.9491 15.2715C19.0162 15.1694 19.0796 15.0648 19.1391 14.958L19.3967 15.9163L19.6253 15.8552L19.3577 14.8599C19.4436 14.905 19.5266 14.9555 19.606 15.0112L19.6808 14.7842C19.5577 14.7177 19.4287 14.6624 19.2956 14.6191C19.3757 14.4119 19.4203 14.2116 19.432 14.0174L19.3788 13.8193L19.1427 13.8824C19.0804 13.7736 19.0113 13.6689 18.9359 13.5687ZM20.381 15.0909L20.4436 15.3236L20.1181 15.4105L20.0556 15.1777L20.381 15.0908V15.0909ZM20.9301 14.9442L20.9927 15.1769L20.6672 15.2638L20.6046 15.0311L20.9301 14.9442ZM20.2679 14.6699L20.3284 14.8952L20.003 14.9821L19.9424 14.7568L20.2679 14.6699ZM20.8169 14.5233L20.8775 14.7486L20.552 14.8355L20.4915 14.6102L20.817 14.5233H20.8169ZM20.6824 13.5773L19.5892 13.8693L19.7443 14.4461L20.8375 14.1542L20.6824 13.5773ZM20.5112 13.8221L20.5665 14.0276L19.9155 14.2014L19.8603 13.9959L20.5112 13.8221ZM20.7304 13.2009L19.3639 13.5658L19.4198 13.7738L20.7863 13.4089L20.7304 13.201V13.2009Z" fill="#FFE400"/>
<path d="M19.1888 11.742L19.4957 11.9185L17.6129 15.1684L20.874 17.0448L20.6968 17.3505L17.1289 15.2977L19.1888 11.7419V11.742Z" fill="#FFA700"/>
</svg>
