<svg width="24" height="24" viewBox="0 0 24 24" fill="none" xmlns="http://www.w3.org/2000/svg">
<path d="M3.73633 11.8918C3.7363 11.5434 5.64342 5.03342 13.6938 4.31826C21.7441 3.6031 20.9189 10.3698 21.0839 12.827C21.1892 14.3943 21.2733 16.1232 21.2936 16.499C21.2944 16.4987 21.2952 16.4984 21.2961 16.4982C21.2998 16.6025 21.2988 16.5945 21.2936 16.499C20.651 16.7052 19.3637 16.3998 19.2318 16.8247C18.9567 15.9261 18.4927 14.7489 17.8014 12.607C17.2952 11.6461 16.9137 13.6251 17.3905 14.6887C12.74 13.163 6.36475 12.1424 3.73633 11.8918Z" fill="url(#paint0_radial_5410_18585)"/>
<mask id="mask0_5410_18585" style="mask-type:alpha" maskUnits="userSpaceOnUse" x="3" y="4" width="19" height="13">
<path d="M3.73633 11.8918C3.7363 11.5434 5.64342 5.03342 13.6938 4.31826C21.7441 3.6031 20.9189 10.3698 21.0839 12.827C21.1892 14.3943 21.2733 16.1232 21.2936 16.499C21.2944 16.4987 21.2952 16.4984 21.2961 16.4982C21.2998 16.6025 21.2988 16.5945 21.2936 16.499C20.651 16.7052 19.3637 16.3998 19.2318 16.8247C18.9567 15.9261 18.4927 14.7489 17.8014 12.607C17.2952 11.6461 16.9137 13.6251 17.3905 14.6887C12.74 13.163 6.36475 12.1424 3.73633 11.8918Z" fill="url(#paint1_radial_5410_18585)"/>
</mask>
<g mask="url(#mask0_5410_18585)">
<g filter="url(#filter0_f_5410_18585)">
<path d="M16.0647 7.98921C12.107 7.28937 10.4879 10.487 10.1731 12.1733L9.875 12.5775C11.6455 12.9262 15.6143 13.8091 17.3253 14.5518C17.0315 13.7879 17.2313 12.7891 17.3488 12.4835C17.4663 12.178 17.8189 12.3895 17.9716 13.0476C18.0938 13.5552 18.7355 15.3195 19.041 16.1382L19.6243 15.7418C19.6846 13.7106 19.0572 9.3165 16.0647 7.98921Z" fill="url(#paint2_radial_5410_18585)"/>
</g>
<g filter="url(#filter1_f_5410_18585)">
<circle cx="9.65176" cy="5.80118" r="3.32852" fill="#FF8181"/>
</g>
<g filter="url(#filter2_f_5410_18585)">
<circle cx="9.65225" cy="5.80167" r="1.87393" fill="#FF4B4B"/>
</g>
<g filter="url(#filter3_f_5410_18585)">
<path d="M6.43035 8.04917C8.68573 4.9167 13.5132 4.29891 15.645 4.38157C11.1551 3.41573 8.96242 5.5432 8.21846 5.98696C7.4745 6.43073 4.79886 8.64955 3.37621 10.5421C1.95355 12.4346 3.55889 12.8523 4.26369 12.5521C4.9685 12.2519 13.6611 13.544 16.663 14.1053C15.7755 13.3352 11.1682 11.2208 9.32786 11.1816C7.48754 11.1425 4.87716 10.8292 6.43035 8.04917Z" fill="#E62E2E"/>
</g>
<g filter="url(#filter4_f_5410_18585)">
<path d="M19.2057 15.6293C19.2057 15.4932 18.3837 13.8647 17.9727 13.0674C18.2278 14.304 18.7656 16.8475 18.8762 17.1282C19.0144 17.479 19.3333 17.0963 19.514 16.99C19.6947 16.8837 20.2156 16.5116 20.3751 16.4053C20.5026 16.3202 21.1936 16.0864 21.5232 15.9801C21.4771 15.8348 21.3467 15.4805 21.1936 15.2253C20.8534 14.9702 19.6097 15.3316 19.2057 15.6293Z" fill="#961F1E"/>
</g>
</g>
<path d="M2.77744 11.9722C1.11455 12.7173 0.986176 15.8347 1.39841 16.9126C1.77729 17.928 2.48951 17.2763 7.89967 17.443C14.1888 17.6854 15.2668 19.4123 16.9035 19.2456C18.5401 19.0789 18.1871 15.4496 17.6895 14.8667C16.8907 13.9309 14.3724 13.0675 11.4021 12.5523C8.4318 12.037 4.61708 11.1219 2.77744 11.9722Z" fill="#DAE5EF"/>
<g opacity="0.5" filter="url(#filter5_f_5410_18585)">
<path d="M3.3078 12.481C2.03915 13.0494 1.94121 15.4278 2.25571 16.2501C2.54477 17.0247 3.49373 16.6055 7.62123 16.7327C12.4193 16.9177 13.2417 18.2351 14.4904 18.1079C15.739 17.9808 15.4697 15.212 15.09 14.7672C14.4807 14.0533 12.5594 13.3946 10.2933 13.0015C8.0272 12.6084 4.71129 11.8323 3.3078 12.481Z" fill="url(#paint3_radial_5410_18585)"/>
</g>
<path d="M22.8003 17.5872C22.8003 18.7728 21.8392 19.7339 20.6536 19.7339C19.468 19.7339 18.5068 18.7728 18.5068 17.5872C18.5068 16.4016 19.468 15.4404 20.6536 15.4404C21.8392 15.4404 22.8003 16.4016 22.8003 17.5872Z" fill="url(#paint4_radial_5410_18585)"/>
<mask id="mask1_5410_18585" style="mask-type:alpha" maskUnits="userSpaceOnUse" x="18" y="15" width="5" height="5">
<path d="M22.8003 17.5872C22.8003 18.7728 21.8392 19.7339 20.6536 19.7339C19.468 19.7339 18.5068 18.7728 18.5068 17.5872C18.5068 16.4016 19.468 15.4404 20.6536 15.4404C21.8392 15.4404 22.8003 16.4016 22.8003 17.5872Z" fill="url(#paint5_radial_5410_18585)"/>
</mask>
<g mask="url(#mask1_5410_18585)">
<g filter="url(#filter6_f_5410_18585)">
<path d="M22.7317 15.9178C19.3949 15.6394 18.2475 18.071 19.3753 19.8571C18.9328 19.2995 18.0479 17.9619 18.0479 17.0726C18.0479 15.961 18.9976 14.6228 22.7317 15.9178Z" fill="#BBCFE3"/>
</g>
</g>
<path d="M10.5791 9.73021C14.7464 10.0133 16.7507 12.4024 17.1651 13.5848C17.2687 11.994 17.603 12.3324 17.7642 12.5275C17.6624 12.1373 17.0895 8.59177 14.4599 7.94141C16.461 9.18448 17.1776 12.0544 16.7834 11.7815C16.3893 11.5086 15.5111 9.5329 10.5791 9.73021Z" fill="url(#paint6_linear_5410_18585)"/>
<path d="M18.7401 8.57535C18.1554 6.21228 16.3624 4.7077 15.4082 4.28137C16.1522 4.33349 16.6514 4.43508 17.0574 4.54674C17.6563 5.14563 18.8131 6.77258 18.7401 8.57535Z" fill="url(#paint7_linear_5410_18585)"/>
<path d="M9.46419 6.54539C9.79148 6.27027 10.7221 5.70863 11.8265 5.66309M8.51074 7.51018C8.68227 7.31494 8.6372 7.36 8.85802 7.1482" stroke="url(#paint8_linear_5410_18585)" stroke-width="0.576822" stroke-linecap="round"/>
<mask id="mask2_5410_18585" style="mask-type:alpha" maskUnits="userSpaceOnUse" x="1" y="11" width="18" height="9">
<path d="M2.77744 11.9722C1.11455 12.7173 0.986176 15.8347 1.39841 16.9126C1.77729 17.928 2.48951 17.2763 7.89967 17.443C14.1888 17.6854 15.2668 19.4123 16.9035 19.2456C18.5401 19.0789 18.1871 15.4496 17.6895 14.8667C16.8907 13.9309 14.3724 13.0675 11.4021 12.5523C8.4318 12.037 4.61708 11.1219 2.77744 11.9722Z" fill="#DAE5EF"/>
</mask>
<g mask="url(#mask2_5410_18585)">
<g filter="url(#filter7_f_5410_18585)">
<path d="M11.2337 12.3738C11.4541 12.3738 16.246 11.8046 17.6414 14.4485C19.0368 17.0923 17.4027 19.7913 16.8703 19.9565C16.4546 20.0855 10.2886 19.1567 7.03634 18.6416C6.95596 18.6294 6.87707 18.6169 6.7998 18.6041C6.87677 18.6163 6.95566 18.6288 7.03634 18.6416C10.1709 19.1175 15.5794 19.1079 16.001 17.2919C16.5415 14.9636 14.7946 12.9204 11.2337 12.3738Z" fill="#ACC6DF"/>
</g>
<g filter="url(#filter8_f_5410_18585)">
<ellipse cx="5.80719" cy="14.4995" rx="3.4566" ry="1.95065" fill="url(#paint9_radial_5410_18585)"/>
</g>
<path d="M4.9263 13.5805C6.15298 13.0756 12.4449 13.9886 15.4077 15.7341" stroke="url(#paint10_radial_5410_18585)" stroke-width="1.73047" stroke-linecap="round"/>
</g>
<g filter="url(#filter9_f_5410_18585)">
<circle cx="21.4722" cy="18.2046" r="0.334461" fill="#FFFBFB"/>
</g>
<defs>
<filter id="filter0_f_5410_18585" x="7.56771" y="5.58334" width="14.3675" height="12.8621" filterUnits="userSpaceOnUse" color-interpolation-filters="sRGB">
<feFlood flood-opacity="0" result="BackgroundImageFix"/>
<feBlend mode="normal" in="SourceGraphic" in2="BackgroundImageFix" result="shape"/>
<feGaussianBlur stdDeviation="1.15364" result="effect1_foregroundBlur_5410_18585"/>
</filter>
<filter id="filter1_f_5410_18585" x="1.70867" y="-2.14192" width="15.8864" height="15.8864" filterUnits="userSpaceOnUse" color-interpolation-filters="sRGB">
<feFlood flood-opacity="0" result="BackgroundImageFix"/>
<feBlend mode="normal" in="SourceGraphic" in2="BackgroundImageFix" result="shape"/>
<feGaussianBlur stdDeviation="2.30729" result="effect1_foregroundBlur_5410_18585"/>
</filter>
<filter id="filter2_f_5410_18585" x="-2.60447" y="-6.45506" width="24.5136" height="24.5136" filterUnits="userSpaceOnUse" color-interpolation-filters="sRGB">
<feFlood flood-opacity="0" result="BackgroundImageFix"/>
<feBlend mode="normal" in="SourceGraphic" in2="BackgroundImageFix" result="shape"/>
<feGaussianBlur stdDeviation="5.1914" result="effect1_foregroundBlur_5410_18585"/>
</filter>
<filter id="filter3_f_5410_18585" x="1.653" y="2.97917" width="16.1637" height="12.2799" filterUnits="userSpaceOnUse" color-interpolation-filters="sRGB">
<feFlood flood-opacity="0" result="BackgroundImageFix"/>
<feBlend mode="normal" in="SourceGraphic" in2="BackgroundImageFix" result="shape"/>
<feGaussianBlur stdDeviation="0.576822" result="effect1_foregroundBlur_5410_18585"/>
</filter>
<filter id="filter4_f_5410_18585" x="15.6654" y="10.7601" width="8.16536" height="8.82014" filterUnits="userSpaceOnUse" color-interpolation-filters="sRGB">
<feFlood flood-opacity="0" result="BackgroundImageFix"/>
<feBlend mode="normal" in="SourceGraphic" in2="BackgroundImageFix" result="shape"/>
<feGaussianBlur stdDeviation="1.15364" result="effect1_foregroundBlur_5410_18585"/>
</filter>
<filter id="filter5_f_5410_18585" x="1.52767" y="11.6546" width="14.4564" height="7.0389" filterUnits="userSpaceOnUse" color-interpolation-filters="sRGB">
<feFlood flood-opacity="0" result="BackgroundImageFix"/>
<feBlend mode="normal" in="SourceGraphic" in2="BackgroundImageFix" result="shape"/>
<feGaussianBlur stdDeviation="0.288411" result="effect1_foregroundBlur_5410_18585"/>
</filter>
<filter id="filter6_f_5410_18585" x="16.8942" y="14.2321" width="6.99088" height="6.77848" filterUnits="userSpaceOnUse" color-interpolation-filters="sRGB">
<feFlood flood-opacity="0" result="BackgroundImageFix"/>
<feBlend mode="normal" in="SourceGraphic" in2="BackgroundImageFix" result="shape"/>
<feGaussianBlur stdDeviation="0.576822" result="effect1_foregroundBlur_5410_18585"/>
</filter>
<filter id="filter7_f_5410_18585" x="4.49252" y="10.015" width="16.0062" height="12.2611" filterUnits="userSpaceOnUse" color-interpolation-filters="sRGB">
<feFlood flood-opacity="0" result="BackgroundImageFix"/>
<feBlend mode="normal" in="SourceGraphic" in2="BackgroundImageFix" result="shape"/>
<feGaussianBlur stdDeviation="1.15364" result="effect1_foregroundBlur_5410_18585"/>
</filter>
<filter id="filter8_f_5410_18585" x="1.19694" y="11.3952" width="9.22037" height="6.20865" filterUnits="userSpaceOnUse" color-interpolation-filters="sRGB">
<feFlood flood-opacity="0" result="BackgroundImageFix"/>
<feBlend mode="normal" in="SourceGraphic" in2="BackgroundImageFix" result="shape"/>
<feGaussianBlur stdDeviation="0.576822" result="effect1_foregroundBlur_5410_18585"/>
</filter>
<filter id="filter9_f_5410_18585" x="19.9841" y="16.7165" width="2.97623" height="2.97623" filterUnits="userSpaceOnUse" color-interpolation-filters="sRGB">
<feFlood flood-opacity="0" result="BackgroundImageFix"/>
<feBlend mode="normal" in="SourceGraphic" in2="BackgroundImageFix" result="shape"/>
<feGaussianBlur stdDeviation="0.576822" result="effect1_foregroundBlur_5410_18585"/>
</filter>
<radialGradient id="paint0_radial_5410_18585" cx="0" cy="0" r="1" gradientUnits="userSpaceOnUse" gradientTransform="translate(11.1213 6.00687) rotate(57.2157) scale(10.2302 14.3054)">
<stop stop-color="#FF8484"/>
<stop offset="1" stop-color="#FC4545"/>
</radialGradient>
<radialGradient id="paint1_radial_5410_18585" cx="0" cy="0" r="1" gradientUnits="userSpaceOnUse" gradientTransform="translate(11.1213 6.00687) rotate(57.2157) scale(10.2302 14.3054)">
<stop stop-color="#FF8484"/>
<stop offset="1" stop-color="#FC4545"/>
</radialGradient>
<radialGradient id="paint2_radial_5410_18585" cx="0" cy="0" r="1" gradientUnits="userSpaceOnUse" gradientTransform="translate(14.7516 7.31023) rotate(69.2524) scale(7.16565 8.47374)">
<stop stop-color="#D03F3E" stop-opacity="0"/>
<stop offset="1" stop-color="#D03F3E"/>
</radialGradient>
<radialGradient id="paint3_radial_5410_18585" cx="0" cy="0" r="1" gradientUnits="userSpaceOnUse" gradientTransform="translate(4.08133 13.0802) rotate(23.0448) scale(10.0965 22.3644)">
<stop stop-color="white"/>
<stop offset="0.877376" stop-color="#DAE5EF" stop-opacity="0"/>
</radialGradient>
<radialGradient id="paint4_radial_5410_18585" cx="0" cy="0" r="1" gradientUnits="userSpaceOnUse" gradientTransform="translate(21.7031 18.168) rotate(143.724) scale(2.64662)">
<stop stop-color="white"/>
<stop offset="1" stop-color="#DAE5EF"/>
</radialGradient>
<radialGradient id="paint5_radial_5410_18585" cx="0" cy="0" r="1" gradientUnits="userSpaceOnUse" gradientTransform="translate(21.7031 18.168) rotate(143.724) scale(2.64662)">
<stop stop-color="white"/>
<stop offset="1" stop-color="#DAE5EF"/>
</radialGradient>
<linearGradient id="paint6_linear_5410_18585" x1="17.2941" y1="12.4651" x2="11.4972" y2="10.7631" gradientUnits="userSpaceOnUse">
<stop stop-color="#D03F3E"/>
<stop offset="1" stop-color="#D03F3E" stop-opacity="0"/>
</linearGradient>
<linearGradient id="paint7_linear_5410_18585" x1="15.6292" y1="4.28125" x2="18.3738" y2="9.35857" gradientUnits="userSpaceOnUse">
<stop stop-color="#D03F3E"/>
<stop offset="1" stop-color="#D03F3E" stop-opacity="0"/>
</linearGradient>
<linearGradient id="paint8_linear_5410_18585" x1="12.1247" y1="5.66309" x2="8.09883" y2="8.01677" gradientUnits="userSpaceOnUse">
<stop stop-color="white"/>
<stop offset="1" stop-color="white" stop-opacity="0"/>
</linearGradient>
<radialGradient id="paint9_radial_5410_18585" cx="0" cy="0" r="1" gradientUnits="userSpaceOnUse" gradientTransform="translate(2.35059 13.3606) rotate(39.2793) scale(5.66235 10.0338)">
<stop stop-color="white"/>
<stop offset="1" stop-color="white" stop-opacity="0.22"/>
</radialGradient>
<radialGradient id="paint10_radial_5410_18585" cx="0" cy="0" r="1" gradientUnits="userSpaceOnUse" gradientTransform="translate(5.19937 13.1976) rotate(18.8622) scale(7.82435 52.5128)">
<stop stop-color="white"/>
<stop offset="1" stop-color="white" stop-opacity="0"/>
</radialGradient>
</defs>
</svg>
