<svg width="32" height="32" viewBox="0 0 32 32" fill="none" xmlns="http://www.w3.org/2000/svg">
<g clip-path="url(#clip0_38936_14755)">
<path d="M26.2402 0C30.08 7.81989e-05 31.9999 1.92 32 5.75977V26.2402C31.9999 30.08 30.08 31.9999 26.2402 32H5.75977C1.92 31.9999 7.82001e-05 30.08 0 26.2402V5.75977C7.81989e-05 1.92 1.92 7.82001e-05 5.75977 0H26.2402ZM2.04883 11.541C2.51859 14.7257 3.07499 16.1409 3.44043 22.6455C3.89769 22.7137 8.99367 22.9592 9.81738 20.3135C9.87373 20.2098 9.89215 20.0893 9.86914 19.9736C8.91541 17.4704 4.60583 18.0814 4.58105 18.085C4.57808 18.0429 4.25704 13.4932 4.22168 10.6211L2.04883 11.541ZM16.041 11.541C16.5108 14.7257 17.0672 16.1409 17.4326 22.6455C17.8899 22.7137 22.9859 22.9592 23.8096 20.3135C23.8659 20.2098 23.8843 20.0893 23.8613 19.9736C22.9076 17.4705 18.598 18.0814 18.5732 18.085C18.5703 18.0429 18.2492 13.4932 18.2139 10.6211L16.041 11.541ZM13.9648 16.9688L14.3379 22.042H15.3965V16.9688H13.9648ZM27.957 16.9688L28.3301 22.042H29.3887V16.9688H27.957ZM9.67383 16.7588L10.6035 21.7734L11.5977 21.7158L11.0947 16.7588H9.67383ZM23.666 16.7588L24.5957 21.7734L25.5898 21.7158L25.0869 16.7588H23.666ZM5.52734 19.2803C5.89044 19.3541 6.248 19.4548 6.59668 19.5801C6.94427 19.7145 7.28281 19.8724 7.6084 20.0537C7.62472 20.0617 7.68662 20.1004 7.61133 20.1719C7.33187 20.4389 7.03445 20.687 6.72168 20.9141C6.42743 21.1181 6.11893 21.3015 5.79883 21.4619C5.78684 21.4716 5.77211 21.4774 5.75684 21.4795C5.74139 21.4815 5.72518 21.479 5.71094 21.4727C5.69693 21.4663 5.6845 21.456 5.67578 21.4434C5.66724 21.4307 5.66194 21.4157 5.66113 21.4004C5.59003 21.0959 5.53636 20.7872 5.50098 20.4766C5.45686 20.0959 5.43999 19.6735 5.43359 19.3398C5.43362 19.3284 5.43535 19.262 5.52734 19.2803ZM19.5195 19.2803C19.8826 19.3541 20.2402 19.4548 20.5889 19.5801C20.9365 19.7145 21.275 19.8724 21.6006 20.0537C21.6169 20.0617 21.6788 20.1004 21.6035 20.1719C21.3241 20.4389 21.0266 20.687 20.7139 20.9141C20.4196 21.1181 20.1111 21.3015 19.791 21.4619C19.779 21.4716 19.7643 21.4774 19.749 21.4795C19.7336 21.4815 19.7174 21.479 19.7031 21.4727C19.6891 21.4663 19.6767 21.456 19.668 21.4434C19.6594 21.4307 19.6541 21.4157 19.6533 21.4004C19.5822 21.0959 19.5285 20.7872 19.4932 20.4766C19.449 20.0959 19.4322 19.6735 19.4258 19.3398C19.4258 19.3284 19.4275 19.262 19.5195 19.2803ZM11.3213 11.9697L12.4092 21.4443H13.4922L12.6641 11.9102L11.3213 11.9697ZM25.3135 11.9697L26.4014 21.4443H27.4844L26.6562 11.9102L25.3135 11.9697ZM13.7578 14.3721L13.9326 16.3184H14.4521V14.3721H13.7578ZM14.708 14.3721V16.3184H15.3154V14.3721H14.708ZM27.75 14.3721L27.9248 16.3184H28.4443V14.3721H27.75ZM28.7002 14.3721V16.3184H29.3076V14.3721H28.7002ZM9.26953 14.3115L9.51172 16.2256L10.1025 16.1553L9.93848 14.3115H9.26953ZM23.2617 14.3115L23.5039 16.2256L24.0947 16.1553L23.9307 14.3115H23.2617ZM10.2197 14.3115L10.4229 16.1064L10.9668 16.0557L10.8877 14.3115H10.2197ZM24.2119 14.3115L24.415 16.1064L24.959 16.0557L24.8799 14.3115H24.2119Z" fill="white"/>
</g>
<defs>
<clipPath id="clip0_38936_14755">
<rect width="32" height="32" fill="white"/>
</clipPath>
</defs>
</svg>
