<svg width="20" height="20" viewBox="0 0 20 20" fill="none" xmlns="http://www.w3.org/2000/svg">
  <path d="M16.9308 3.78016C15.6561 3.22016 14.2892 2.80416 12.8599 2.56016C12.8339 2.55616 12.8079 2.56816 12.7945 2.59216C12.6185 2.90416 12.4239 3.30816 12.2879 3.62816C10.7503 3.40016 9.22097 3.40016 7.71593 3.62816C7.57993 3.30016 7.37727 2.90416 7.19994 2.59216C7.18661 2.56016 7.16061 2.54816 7.13461 2.56016C5.70661 2.80416 4.33994 3.22016 3.06461 3.78016C3.05127 3.78616 3.03994 3.79616 3.03261 3.80816C0.444609 7.66016 -0.265391 11.4162 0.0826092 15.1282C0.0846092 15.1522 0.0986092 15.1742 0.118609 15.1882C1.89661 16.4882 3.61861 17.3202 5.31661 17.8802C5.34261 17.8882 5.37061 17.8782 5.38461 17.8562C5.74661 17.3242 6.06861 16.7642 6.34261 16.1762C6.35861 16.1422 6.34261 16.1022 6.30861 16.0882C5.73861 15.8682 5.19861 15.6002 4.68261 15.2922C4.64461 15.2682 4.64261 15.2142 4.67861 15.1882C4.77861 15.1122 4.87861 15.0322 4.97461 14.9502C4.99061 14.9362 5.01261 14.9322 5.03261 14.9402C8.41261 16.4802 12.0159 16.4802 15.3586 14.9402C15.3786 14.9322 15.4006 14.9362 15.4186 14.9502C15.5146 15.0322 15.6146 15.1122 15.7166 15.1882C15.7526 15.2142 15.7526 15.2682 15.7126 15.2922C15.1986 15.6062 14.6566 15.8682 14.0866 16.0862C14.0526 16.1002 14.0386 16.1422 14.0546 16.1762C14.3346 16.7642 14.6546 17.3242 15.0106 17.8562C15.0246 17.8782 15.0526 17.8882 15.0786 17.8802C16.7846 17.3202 18.5066 16.4882 20.2846 15.1882C20.3066 15.1742 20.3186 15.1522 20.3206 15.1282C20.7346 10.7762 19.6446 7.05216 16.9708 3.80816C16.9648 3.79616 16.9535 3.78616 16.9401 3.78016H16.9308ZM6.68393 12.7682C5.69393 12.7682 4.88593 11.8562 4.88593 10.7362C4.88593 9.61616 5.67793 8.70416 6.68393 8.70416C7.69793 8.70416 8.49793 9.62416 8.48193 10.7362C8.48193 11.8562 7.68993 12.7682 6.68393 12.7682ZM13.3299 12.7682C12.3399 12.7682 11.5319 11.8562 11.5319 10.7362C11.5319 9.61616 12.3239 8.70416 13.3299 8.70416C14.3439 8.70416 15.1439 9.62416 15.1279 10.7362C15.1279 11.8562 14.3439 12.7682 13.3299 12.7682Z" fill="#5865F2"/>
</svg>
