<svg width="20" height="20" viewBox="0 0 20 20" fill="none" xmlns="http://www.w3.org/2000/svg">
<path d="M4 0C1.79086 0 0 1.79086 0 4V16C0 18.2091 1.79086 20 4 20H7.56162V13.0543H5.48288V10.0068H7.56162C7.56162 10.3289 7.59687 8.9177 7.59687 8.19752C7.59687 5.04424 9.56822 3.67599 12.0808 3.67599C14.0909 3.67599 14.759 3.87668 14.6689 3.97703V6.65981H13.2187C11.7671 6.65981 11.2353 7.36019 11.2353 8.81205V10.0068H14.5533L13.9593 13.0543H11.2353V20H16C18.2091 20 20 18.2091 20 16V4C20 1.79086 18.2091 0 16 0H4Z" fill="white"/>
</svg>
