<svg width="20" height="20" viewBox="0 0 20 20" fill="none" xmlns="http://www.w3.org/2000/svg">
<path d="M10 7.40895C8.56845 7.40895 7.40792 8.56949 7.40792 10.0011C7.40792 11.4327 8.56845 12.5932 10 12.5932C11.4316 12.5932 12.5922 11.4327 12.5922 10.0011C12.5922 8.56949 11.4316 7.40895 10 7.40895Z" fill="white"/>
<path fill-rule="evenodd" clip-rule="evenodd" d="M6.69244 3.78603C5.08714 3.78603 3.78578 5.08739 3.78578 6.69269V13.3078C3.78578 14.9132 5.08714 16.2145 6.69245 16.2145H13.3076C14.9129 16.2145 16.2143 14.9132 16.2143 13.3078V6.69269C16.2143 5.08739 14.9129 3.78603 13.3076 3.78603H6.69244ZM6.0047 10.0011C6.0047 7.79452 7.79348 6.00574 10 6.00574C12.2066 6.00574 13.9954 7.79452 13.9954 10.0011C13.9954 12.2077 12.2066 13.9964 10 13.9964C7.79348 13.9964 6.0047 12.2077 6.0047 10.0011ZM14.0024 6.84274C14.5164 6.84274 14.9331 6.42606 14.9331 5.91205C14.9331 5.39804 14.5164 4.98136 14.0024 4.98136C13.4884 4.98136 13.0717 5.39804 13.0717 5.91205C13.0717 6.42606 13.4884 6.84274 14.0024 6.84274Z" fill="white"/>
<path fill-rule="evenodd" clip-rule="evenodd" d="M4 0C1.79086 0 0 1.79086 0 4V16C0 18.2091 1.79086 20 4 20H16C18.2091 20 20 18.2091 20 16V4C20 1.79086 18.2091 0 16 0H4ZM2.38257 6.69269C2.38257 4.31241 4.31217 2.38281 6.69244 2.38281H13.3076C15.6879 2.38281 17.6175 4.31241 17.6175 6.69269V13.3078C17.6175 15.6881 15.6879 17.6177 13.3076 17.6177H6.69245C4.31217 17.6177 2.38257 15.6881 2.38257 13.3078V6.69269Z" fill="white"/>
</svg>
