<svg width="188" height="46" viewBox="0 0 188 46" fill="none" xmlns="http://www.w3.org/2000/svg">
<path d="M32 5.42224H8C3.58172 5.42224 0 9.00396 0 13.4222V37.4222C0 41.8405 3.58172 45.4222 8 45.4222H32C36.4183 45.4222 40 41.8405 40 37.4222V13.4222C40 9.00396 36.4183 5.42224 32 5.42224Z" fill="white"/>
<path d="M32 5.67226H8C3.71979 5.67226 0.25 9.14205 0.25 13.4223V37.4223C0.25 41.7025 3.71979 45.1723 8 45.1723H32C36.2802 45.1723 39.75 41.7025 39.75 37.4223V13.4223C39.75 9.14205 36.2802 5.67226 32 5.67226Z" stroke="black" stroke-opacity="0.05" stroke-width="0.5"/>
<path d="M11.7204 25.427C17.9589 13.5524 24.5909 5.01877 29.3852 0.32202C30.2473 -0.52263 31.5648 0.43312 31.2107 1.58697C28.5319 10.3142 26.6827 24.1282 25.8559 30.765C25.7676 31.4746 25.073 31.9394 24.3825 31.7535L13.1852 28.7387C11.7493 28.3522 11.0288 26.7434 11.7204 25.427Z" fill="#7EC9FF"/>
<path d="M21.8756 31.3066C21.7515 23.2105 22.5503 16.6128 23.407 12.1691C23.7697 10.2872 26.075 9.84781 27.1233 11.4523C30.4206 16.4985 32.6306 21.5773 33.7602 26.2381C33.9906 27.1893 33.5548 28.1656 32.7215 28.6785L25.3855 33.1933C23.8645 34.1294 21.903 33.0924 21.8756 31.3066Z" fill="#1A93EB"/>
<path d="M4.51534 30.9812C3.63681 30.1914 4.42045 28.7554 5.56018 29.0667L34.0541 36.8535C35.2279 37.1742 35.5111 38.7095 34.5288 39.4279C33.1562 40.4319 31.4941 40.962 29.7934 40.9382L16.9723 40.7591C15.9361 40.7446 14.9402 40.3547 14.1696 39.6619L4.51534 30.9812Z" fill="#1B5BBC"/>
<path d="M53.9 33.9222V16.7722H63.3C64.5667 16.7722 65.6167 16.9972 66.45 17.4472C67.3 17.8972 67.9333 18.5306 68.35 19.3472C68.7667 20.1472 68.975 21.0722 68.975 22.1222C68.975 23.2389 68.725 24.2306 68.225 25.0972C67.725 25.9472 67 26.5972 66.05 27.0472L69.55 33.9222H65.425L62.4 27.6722H57.625V33.9222H53.9ZM57.625 24.7222H62.8C63.55 24.7222 64.1333 24.4972 64.55 24.0472C64.9667 23.5806 65.175 22.9556 65.175 22.1722C65.175 21.6722 65.0833 21.2472 64.9 20.8972C64.7167 20.5306 64.45 20.2556 64.1 20.0722C63.75 19.8889 63.3167 19.7972 62.8 19.7972H57.625V24.7222ZM77.6188 34.2222C76.1854 34.2222 74.9688 33.9806 73.9688 33.4972C72.9688 32.9972 72.2104 32.2389 71.6938 31.2222C71.1771 30.1889 70.9188 28.8972 70.9188 27.3472C70.9188 25.7639 71.1771 24.4722 71.6938 23.4722C72.2104 22.4556 72.9688 21.7056 73.9688 21.2222C74.9688 20.7222 76.1854 20.4722 77.6188 20.4722C79.0854 20.4722 80.3104 20.7222 81.2938 21.2222C82.2938 21.7056 83.0521 22.4556 83.5688 23.4722C84.0854 24.4722 84.3438 25.7639 84.3438 27.3472C84.3438 28.8972 84.0854 30.1889 83.5688 31.2222C83.0521 32.2389 82.2938 32.9972 81.2938 33.4972C80.3104 33.9806 79.0854 34.2222 77.6188 34.2222ZM77.6188 31.5222C78.3854 31.5222 78.9938 31.3806 79.4438 31.0972C79.9104 30.8139 80.2521 30.3806 80.4688 29.7972C80.6854 29.2139 80.7938 28.4972 80.7938 27.6472V27.0472C80.7938 26.1972 80.6854 25.4806 80.4688 24.8972C80.2521 24.3139 79.9104 23.8806 79.4438 23.5972C78.9938 23.2972 78.3854 23.1472 77.6188 23.1472C76.8688 23.1472 76.2604 23.2972 75.7938 23.5972C75.3438 23.8806 75.0104 24.3139 74.7938 24.8972C74.5771 25.4806 74.4688 26.1972 74.4688 27.0472V27.6472C74.4688 28.4972 74.5771 29.2139 74.7938 29.7972C75.0104 30.3806 75.3438 30.8139 75.7938 31.0972C76.2604 31.3806 76.8688 31.5222 77.6188 31.5222ZM84.8178 33.9222L89.5928 27.0972L85.1678 20.7722H89.3428L91.8428 24.7222H91.9678L94.4928 20.7722H98.4178L93.9678 27.0722L98.6678 33.9222H94.5678L91.7178 29.4472H91.5928L88.7428 33.9222H84.8178ZM102.399 38.6222C101.783 38.6222 101.266 38.5722 100.849 38.4722C100.449 38.3889 100.191 38.3306 100.074 38.2972V35.9472H101.599C102.016 35.9472 102.391 35.8472 102.724 35.6472C103.058 35.4639 103.349 35.2139 103.599 34.8972C103.849 34.5972 104.033 34.2722 104.149 33.9222L98.9994 20.7722H102.674L104.924 26.8472C105.024 27.1306 105.133 27.4889 105.249 27.9222C105.383 28.3389 105.516 28.7806 105.649 29.2472C105.783 29.6972 105.891 30.0972 105.974 30.4472H106.099C106.166 30.2139 106.241 29.9389 106.324 29.6222C106.408 29.3056 106.491 28.9806 106.574 28.6472C106.674 28.3139 106.766 27.9972 106.849 27.6972C106.949 27.3806 107.033 27.1056 107.099 26.8722L108.974 20.7722H112.474L107.999 33.2972C107.749 34.0306 107.458 34.7139 107.124 35.3472C106.808 35.9972 106.433 36.5639 105.999 37.0472C105.566 37.5472 105.049 37.9306 104.449 38.1972C103.866 38.4806 103.183 38.6222 102.399 38.6222ZM112.996 36.3722C114.346 33.0722 115.263 29.8722 115.746 26.7722H118.821C118.338 29.7889 117.463 32.9889 116.196 36.3722H112.996ZM113.696 22.8972V20.1972L118.371 21.6222V24.3222L113.696 22.8972ZM114.346 17.1472V14.4472L118.921 15.8722V18.5722L114.346 17.1472ZM131.796 30.7472H129.096V15.9222H131.796V30.7472ZM135.996 33.3722C135.996 35.2556 135.071 36.2306 133.221 36.2972C132.155 36.3472 131.088 36.2556 130.021 36.0222L129.346 33.4472C130.163 33.6139 130.963 33.6972 131.746 33.6972C132.246 33.6972 132.588 33.6056 132.771 33.4222C132.955 33.2389 133.046 32.9139 133.046 32.4472V13.9222H135.996V33.3722ZM127.696 19.5972C127.446 23.2139 126.771 26.2056 125.671 28.5722C126.805 31.0722 127.771 33.3889 128.571 35.5222H125.496C124.996 34.2056 124.471 32.8806 123.921 31.5472C122.605 33.3472 120.838 35.0306 118.621 36.5972L118.121 33.1222C120.088 31.5889 121.563 29.9806 122.546 28.2972C121.846 26.7139 120.755 24.2389 119.271 20.8722H122.196C122.796 22.1889 123.396 23.4972 123.996 24.7972C124.396 23.3472 124.638 21.6139 124.721 19.5972H119.571L119.321 16.9722H122.571V13.9222H125.471V16.9722H128.471V19.5972H127.696ZM141.246 24.9972C141.263 23.6972 141.93 23.0389 143.246 23.0222H156.946C158.263 23.0389 158.93 23.6972 158.946 24.9972V30.4722H155.946V25.8972C155.946 25.6472 155.821 25.5222 155.571 25.5222H144.596C144.363 25.5222 144.246 25.6472 144.246 25.8972V30.4472H141.246V24.9972ZM158.496 22.5472H155.521L154.746 19.2222H157.721L158.496 22.5472ZM147.796 22.2222H144.896V13.9222H147.796V22.2222ZM142.746 21.7972H139.846V14.8222H142.746V21.7972ZM154.771 15.9722H161.071V18.4722H153.671C152.771 20.0389 151.396 21.5222 149.546 22.9222L148.471 19.9722C150.505 18.2389 151.755 16.2222 152.221 13.9222H155.296C155.18 14.6389 155.005 15.3222 154.771 15.9722ZM151.246 29.5222H152.846V32.0722C152.846 32.5222 152.946 32.8556 153.146 33.0722C153.313 33.2556 153.588 33.3806 153.971 33.4472C155.021 33.6306 156.071 33.6306 157.121 33.4472C157.855 33.3306 158.221 32.8722 158.221 32.0722V30.9972L161.121 31.3972V32.9472C161.121 33.7472 160.855 34.4139 160.321 34.9472C159.838 35.4306 159.205 35.7306 158.421 35.8472C156.471 36.1472 154.513 36.1472 152.546 35.8472C151.763 35.7306 151.13 35.4306 150.646 34.9472C150.113 34.4139 149.846 33.7472 149.846 32.9472V31.6722C147.946 33.6722 144.488 35.2556 139.471 36.4222L138.671 33.6472C145.271 32.2306 148.571 30.2222 148.571 27.6222V26.0972H151.571V27.6222C151.571 28.2389 151.463 28.8722 151.246 29.5222ZM178.746 30.8972C178.53 30.9306 178.405 31.0556 178.371 31.2722V33.2472C178.371 33.3306 178.413 33.4139 178.496 33.4972C178.58 33.5806 178.663 33.6222 178.746 33.6222H182.446C182.563 33.6222 182.655 33.5806 182.721 33.4972C182.788 33.4139 182.821 33.3306 182.821 33.2472V31.2722C182.821 31.1722 182.788 31.0889 182.721 31.0222C182.638 30.9389 182.546 30.8972 182.446 30.8972H178.746ZM168.046 30.8972C167.796 30.8972 167.671 31.0222 167.671 31.2722V33.2472C167.671 33.4972 167.796 33.6222 168.046 33.6222H171.371C171.621 33.6222 171.746 33.4972 171.746 33.2472V31.2722C171.746 31.0222 171.621 30.8972 171.371 30.8972H168.046ZM183.296 14.4972C184.63 14.4972 185.296 15.1639 185.296 16.4972V18.9472C185.296 20.2806 184.63 20.9472 183.296 20.9472H177.971C176.638 20.9472 175.971 20.2806 175.971 18.9472V16.4972C175.971 15.1639 176.638 14.4972 177.971 14.4972H183.296ZM178.946 16.6972C178.696 16.6972 178.571 16.8222 178.571 17.0722V18.4722C178.571 18.7222 178.696 18.8472 178.946 18.8472H182.321C182.571 18.8472 182.696 18.7222 182.696 18.4722V17.0722C182.696 16.8222 182.571 16.6972 182.321 16.6972H178.946ZM172.271 14.4972C172.955 14.4972 173.455 14.6556 173.771 14.9722C174.105 15.3056 174.271 15.8139 174.271 16.4972V18.9472C174.271 19.6306 174.105 20.1389 173.771 20.4722C173.455 20.7889 172.955 20.9472 172.271 20.9472H167.071C165.738 20.9639 165.071 20.2972 165.071 18.9472V16.4972C165.071 15.8139 165.238 15.3056 165.571 14.9722C165.888 14.6556 166.388 14.4972 167.071 14.4972H172.271ZM168.046 16.6972C167.796 16.6972 167.671 16.8222 167.671 17.0722V18.3722C167.671 18.6222 167.796 18.7472 168.046 18.7472H171.296C171.546 18.7472 171.671 18.6222 171.671 18.3722V17.0722C171.671 16.8222 171.546 16.6972 171.296 16.6972H168.046ZM184.946 29.3472C185.28 29.7306 185.446 30.1639 185.446 30.6472V33.8722C185.446 34.3722 185.263 34.8222 184.896 35.2222C184.513 35.6556 184.03 35.8722 183.446 35.8722H177.746C177.163 35.8722 176.68 35.6556 176.296 35.2222C175.93 34.8222 175.746 34.3722 175.746 33.8722V30.6472C175.746 30.1472 175.93 29.6972 176.296 29.2972C176.68 28.8639 177.163 28.6472 177.746 28.6472H181.371C179.871 28.2806 178.621 27.8222 177.621 27.2722C176.671 26.7556 175.771 26.0639 174.921 25.1972C173.655 26.8139 171.63 27.9639 168.846 28.6472H172.371C173.705 28.6472 174.371 29.3139 174.371 30.6472V33.8722C174.371 35.2056 173.705 35.8722 172.371 35.8722H167.046C165.713 35.8722 165.046 35.2056 165.046 33.8722V30.6472C165.046 30.1139 165.163 29.6806 165.396 29.3472C164.996 29.4139 164.596 29.4722 164.196 29.5222L163.746 26.6722C167.13 26.3056 169.563 25.6806 171.046 24.7972H164.296L164.046 22.2972H173.371C173.588 21.8306 173.755 21.3722 173.871 20.9222H177.146C176.913 21.5556 176.738 22.0139 176.621 22.2972H179.896L179.371 21.2222H182.296L182.846 22.2972H186.121V24.7972H179.021C180.838 25.8972 183.355 26.5222 186.571 26.6722L186.196 29.5222C185.78 29.4722 185.363 29.4139 184.946 29.3472Z" fill="white"/>
</svg>
