<svg width="20" height="20" viewBox="0 0 20 20" fill="none" xmlns="http://www.w3.org/2000/svg">
<path fill-rule="evenodd" clip-rule="evenodd" d="M4 0C1.79086 0 0 1.79086 0 4V16C0 18.2091 1.79086 20 4 20H16C18.2091 20 20 18.2091 20 16V4C20 1.79086 18.2091 0 16 0H4ZM11.9724 4.12695C11.9752 5.07692 12.4545 5.96127 13.2533 6.48046C13.7097 6.78 14.2403 6.9369 14.7823 6.9369V8.95664C13.7753 8.95664 12.7911 8.63999 11.9724 8.05232V12.1574C11.9724 14.2114 10.3092 15.8745 8.25527 15.8745C6.20129 15.8745 4.53815 14.2114 4.53815 12.1574C4.53815 10.1092 6.207 8.4403 8.25527 8.4403C8.42358 8.44315 8.59189 8.45456 8.75735 8.47738V10.5399C8.59474 10.4857 8.42643 10.46 8.25527 10.46C7.34239 10.46 6.59212 11.1789 6.55789 12.0918C6.52365 13.0275 7.25396 13.8206 8.18966 13.8548C9.12535 13.889 9.91271 13.1587 9.9498 12.223L9.95265 4.12695H11.9724Z" fill="white"/>
</svg>
