<svg width="20" height="20" viewBox="0 0 20 20" fill="none" xmlns="http://www.w3.org/2000/svg">
<path d="M7.27344 5.64453L13.8887 14.3154H12.7715L6.12891 5.64453H7.27344Z" fill="white"/>
<path fill-rule="evenodd" clip-rule="evenodd" d="M16 0C18.2091 0 20 1.79086 20 4V16C20 18.2091 18.2091 20 16 20H4C1.79086 20 0 18.2091 0 16V4C0 1.79086 1.79086 0 4 0H16ZM3.95117 4.50586L8.63086 10.6211L4.35547 15.4951H5.82031L9.30762 11.5146L12.376 15.4951H16.0488L11.1621 9.07812L15.1592 4.51074H13.7109L10.4893 8.17383L7.70117 4.50586H3.95117Z" fill="white"/>
</svg>
