<svg width="32" height="32" viewBox="0 0 32 32" fill="none" xmlns="http://www.w3.org/2000/svg">
<g clip-path="url(#clip0_38936_14754)">
<path d="M3.62524 0.0416702C1.74524 0.433339 0.192202 1.90057 0.00024318 3.875C-0.19802 5.91428 0.00024318 8.07471 0.00024318 10.125V22.875C0.00024318 25.22 -0.591878 28.3999 0.91691 30.375C2.54676 32.5086 5.51983 32 7.87524 32H21.7502H26.1252C26.8481 32 27.6668 32.1059 28.3752 31.9583C30.2553 31.5667 31.8083 30.0994 32.0002 28.125C32.1985 26.0857 32.0002 23.9253 32.0002 21.875V9.125C32.0002 6.77996 32.5924 3.60014 31.0836 1.625C29.4537 -0.508617 26.4807 4.19095e-06 24.1252 4.19095e-06H10.2502H5.87524C5.1524 4.19095e-06 4.33369 -0.105922 3.62524 0.0416702ZM15.0002 11.375L14.1252 13.75H15.6252L14.3752 16.75L15.5002 16.875C15.3768 17.2102 15.2106 17.8417 14.9586 18.1042C14.7739 18.2965 14.4911 18.25 14.2502 18.25C13.7053 18.25 12.6042 18.4757 12.3127 17.875C12.179 17.5995 12.3709 17.2519 12.4794 17C12.7061 16.4735 13.0072 15.9356 13.1252 15.375C12.8533 15.375 12.5097 15.4287 12.2502 15.3333C11.2779 14.9759 12.3595 13.4128 12.5836 12.875C12.7409 12.4974 12.9281 11.6769 13.2711 11.4375C13.7526 11.1014 14.4856 11.3344 15.0002 11.375ZM5.12524 19.25C5.46908 19.25 5.97992 19.3522 6.18774 19C6.40887 18.6253 6.25024 17.8013 6.25024 17.375V13.25C6.25024 12.8633 6.05502 11.6831 6.39608 11.4375C6.67658 11.2355 7.85436 11.2783 7.97941 11.625C8.18407 12.1925 8.00024 13.1453 8.00024 13.75V17.75C8.00024 18.4355 8.11888 19.2331 7.83358 19.875C7.56143 20.4873 6.29565 21.0341 5.66691 20.5625C5.39026 20.355 5.1934 19.5738 5.12524 19.25ZM24.1252 11.375V12C24.5914 12 25.1766 11.9046 25.6252 12.0417C27.1223 12.4991 27.0002 13.9695 27.0002 15.25C27.2499 15.25 27.5058 15.2306 27.7502 15.2917C29.1869 15.6508 29.0002 17.0872 29.0002 18.25C29.0002 18.8695 29.1166 19.6027 28.7086 20.125C28.2591 20.7003 27.5233 20.625 26.8752 20.625C26.6738 20.625 26.3423 20.6888 26.1669 20.5625C25.839 20.3264 25.6942 19.6244 25.6252 19.25C26.0361 19.25 26.7775 19.3906 27.1044 19.0833C27.4898 18.7211 27.332 17.3043 26.8752 17.0625C26.6332 16.9343 26.2644 17 26.0002 17H24.1252V20.625H22.3752V17H20.6252V15.25H22.3752V13.75H21.2502V12H22.3752V11.375H24.1252ZM20.1252 12V13.75H19.1252V19H20.7502V20.625H15.0002L15.6669 19.0625L17.2502 19V13.75H16.2502V12H20.1252ZM27.2502 13.75C27.2502 13.3947 27.1857 12.9677 27.2919 12.625C27.71 11.2759 29.7439 12.3633 28.7294 13.4792C28.6141 13.6061 28.4114 13.6681 28.2502 13.7083C27.9302 13.7884 27.5777 13.75 27.2502 13.75ZM5.12524 13.75L4.60441 18.375L3.75024 19.875L3.00024 17.875L3.37524 13.75H5.12524ZM10.8752 13.75L11.2502 17.875L10.5002 19.75H10.2502C9.57938 18.6878 9.49358 17.5922 9.37524 16.375C9.29122 15.5107 9.12524 14.62 9.12524 13.75H10.8752ZM24.1252 13.75V15.25H25.2502V13.75H24.1252ZM14.7502 19L14.1252 20.625H11.3752L12.0419 18.9375L13.0002 18.9583L14.7502 19Z" fill="white"/>
</g>
<defs>
<clipPath id="clip0_38936_14754">
<rect width="32" height="32" fill="white"/>
</clipPath>
</defs>
</svg>
