<svg width="20" height="20" viewBox="0 0 20 20" fill="none" xmlns="http://www.w3.org/2000/svg">
<g clip-path="url(#clip0_15572_47010)">
<path fill-rule="evenodd" clip-rule="evenodd" d="M10.9194 2.73396C10.7702 2.73251 10.6352 2.73144 10.5175 2.73066C10.4967 2.72924 10.4757 2.72852 10.4545 2.72852H9.54543C9.52316 2.72852 9.50107 2.72932 9.47925 2.73089C9.36207 2.73174 9.22798 2.73291 9.07971 2.73449C8.52071 2.74044 7.75957 2.75236 6.95258 2.77625C6.14703 2.8001 5.28855 2.83607 4.53717 2.89067C3.81112 2.94342 3.10814 3.01815 2.65888 3.13784L2.6463 3.14129C2.10383 3.29418 1.61107 3.58708 1.21796 3.99079C0.824819 4.39454 0.545292 4.89481 0.408001 5.44125C0.403046 5.46096 0.398755 5.48084 0.395128 5.50084C0.125355 6.99108 -0.00676489 8.50279 0.000427841 10.0171C-0.00886853 11.5428 0.123264 13.0661 0.395137 14.5675C0.400501 14.5972 0.407337 14.6265 0.41561 14.6554C0.566965 15.1849 0.852728 15.6661 1.24491 16.0528C1.63708 16.4394 2.1224 16.7184 2.65383 16.8633L2.65888 16.8646C3.10814 16.9843 3.81112 17.0591 4.53717 17.1118C5.28855 17.1664 6.14703 17.2024 6.95258 17.2263C7.75957 17.2502 8.52071 17.2621 9.07971 17.268C9.22798 17.2696 9.36207 17.2708 9.47925 17.2716C9.50107 17.2732 9.52316 17.274 9.54543 17.274H10.4545C10.4768 17.274 10.4989 17.2732 10.5207 17.2716C10.6379 17.2708 10.772 17.2696 10.9203 17.268C11.4793 17.2621 12.2403 17.2502 13.0473 17.2263C13.8529 17.2024 14.7114 17.1664 15.4628 17.1118C16.1888 17.0591 16.8918 16.9843 17.3411 16.8646L17.3536 16.8612C17.8962 16.7083 18.3889 16.4154 18.782 16.0117C19.1752 15.608 19.4547 15.1077 19.592 14.5613C19.5969 14.5415 19.6013 14.5216 19.6048 14.5016C19.8725 13.0224 20.0047 11.522 19.9995 10.019C20.0089 8.49306 19.8767 6.96955 19.6048 5.46787C19.6012 5.44788 19.5969 5.42802 19.592 5.40832C19.4547 4.86188 19.1752 4.3616 18.782 3.95786C18.3889 3.55414 17.8962 3.26125 17.3536 3.10836C17.3432 3.1054 17.3325 3.10262 17.3219 3.10003C16.8798 2.9925 16.1834 2.92456 15.4571 2.87638C14.7073 2.82663 13.8501 2.79382 13.0451 2.77207C12.2387 2.75027 11.4781 2.7394 10.9194 2.73396ZM8.0452 6.92496C7.95452 7.04607 7.95452 7.26302 7.95452 7.69692V12.3054C7.95452 12.7393 7.95452 12.9563 8.0452 13.0773C8.12422 13.1829 8.24516 13.249 8.37671 13.2583C8.52762 13.2692 8.71007 13.1518 9.07507 12.9172L12.6594 10.6129C12.9762 10.4093 13.1345 10.3075 13.1893 10.1781C13.237 10.065 13.237 9.93734 13.1893 9.82425C13.1345 9.69479 12.9762 9.59298 12.6594 9.38943L9.07507 7.08516C8.71007 6.85052 8.52762 6.7332 8.37671 6.74398C8.24516 6.75337 8.12422 6.81941 8.0452 6.92496Z" fill="white"/>
</g>
<defs>
<clipPath id="clip0_15572_47010">
<rect width="20" height="20" rx="4" fill="white"/>
</clipPath>
</defs>
</svg>
