<svg width="20" height="20" viewBox="0 0 20 20" fill="none" xmlns="http://www.w3.org/2000/svg">
<g clip-path="url(#clip0_37457_36316)">
<rect width="20" height="20" rx="3" fill="white"/>
<path d="M17.0409 16.7899H14.0776V12.2174C14.0776 11.1271 14.0578 9.72348 12.5363 9.72348C10.9929 9.72348 10.7567 10.9115 10.7567 12.1381V16.7896H7.79336V7.38678H10.6382V8.67177H10.678C10.9627 8.19215 11.3741 7.7976 11.8684 7.53013C12.3627 7.26265 12.9214 7.13228 13.4849 7.15289C16.4884 7.15289 17.0422 9.09939 17.0422 11.6317L17.0409 16.7899ZM4.44969 6.10148C4.10957 6.10154 3.77706 6.00223 3.49422 5.8161C3.21139 5.62997 2.99094 5.36538 2.86073 5.0558C2.73051 4.74622 2.69638 4.40555 2.76268 4.07686C2.82897 3.74817 2.99271 3.44624 3.23317 3.20923C3.47363 2.97223 3.78002 2.8108 4.11359 2.74537C4.44716 2.67993 4.79293 2.71342 5.10719 2.84161C5.42144 2.9698 5.69006 3.18692 5.87907 3.46552C6.06808 3.74413 6.16901 4.0717 6.16907 4.40681C6.16911 4.62932 6.12466 4.84965 6.03827 5.05524C5.95189 5.26082 5.82527 5.44763 5.66561 5.605C5.50595 5.76236 5.31638 5.8872 5.10775 5.97239C4.89913 6.05757 4.67552 6.10144 4.44969 6.10148ZM5.93137 16.7899H2.96491V7.38678H5.93137V16.7899ZM18.5183 0.00134252H1.47582C1.08901 -0.00295843 0.716265 0.144226 0.439533 0.410553C0.162802 0.67688 0.00472088 1.04056 0 1.42168V18.5474C0.00455931 18.9287 0.162547 19.2926 0.43927 19.5592C0.715992 19.8258 1.08882 19.9733 1.47582 19.9692H18.5183C18.9061 19.974 19.28 19.827 19.5578 19.5604C19.8356 19.2938 19.9946 18.9294 20 18.5474V1.42046C19.9945 1.03859 19.8353 0.674494 19.5575 0.408173C19.2797 0.141853 18.9059 -0.00491097 18.5183 0.000125472" fill="#0073B2"/>
</g>
<defs>
<clipPath id="clip0_37457_36316">
<rect width="20" height="20" rx="3" fill="white"/>
</clipPath>
</defs>
</svg>
