<svg width="36" height="36" viewBox="0 0 36 36" fill="none" xmlns="http://www.w3.org/2000/svg">
<path d="M34.5 18C34.5 8.8873 27.1127 1.50001 18 1.50001C8.88729 1.50001 1.5 8.8873 1.5 18C1.5 26.2356 7.53381 33.0617 15.4219 34.2996V22.7695H11.2324V18H15.4219V14.3649C15.4219 10.2295 17.8852 7.94532 21.6542 7.94532C23.4594 7.94532 25.3477 8.26759 25.3477 8.26759V12.3281H23.267C21.2173 12.3281 20.5781 13.6 20.5781 14.9049V18H25.1543L24.4228 22.7695H20.5781V34.2996C28.4662 33.0617 34.5 26.2356 34.5 18Z" fill="#1877F2"/>
<path d="M24.4247 22.7695L25.1563 18H20.5801V14.9049C20.5801 13.6 21.2193 12.3281 23.269 12.3281H25.3496V8.26758C25.3496 8.26758 23.4614 7.94531 21.6561 7.94531C17.8872 7.94531 15.4238 10.2295 15.4238 14.3648V18H11.2344V22.7695H15.4238V34.2996C16.2639 34.4314 17.1249 34.5 18.002 34.5C18.879 34.5 19.74 34.4314 20.5801 34.2996V22.7695H24.4247Z" fill="white"/>
</svg>
