<svg width="36" height="36" viewBox="0 0 36 36" fill="none" xmlns="http://www.w3.org/2000/svg">
<path d="M13.5012 10.8135L24.4163 25.1205H22.5729L11.6127 10.8135H13.5012Z" fill="#042144"/>
<path fill-rule="evenodd" clip-rule="evenodd" d="M27.9 1.5C31.5451 1.5 34.5 4.45492 34.5 8.1V27.9C34.5 31.5451 31.5451 34.5 27.9 34.5H8.1C4.45492 34.5 1.5 31.5451 1.5 27.9V8.1C1.5 4.45492 4.45492 1.5 8.1 1.5H27.9ZM8.01943 8.93467L15.7409 19.0248L8.68652 27.0669H11.1035L16.8576 20.4992L21.9204 27.0669H27.9806L19.9175 16.4789L26.5126 8.94272H24.123L18.8073 14.9868L14.2069 8.93467H8.01943Z" fill="#042144"/>
</svg>
