<svg width="36" height="36" viewBox="0 0 36 36" fill="none" xmlns="http://www.w3.org/2000/svg">
<path fill-rule="evenodd" clip-rule="evenodd" d="M8.1 1.5C4.45492 1.5 1.5 4.45492 1.5 8.1V27.9C1.5 31.5451 4.45492 34.5 8.1 34.5H27.9C31.5451 34.5 34.5 31.5451 34.5 27.9V8.1C34.5 4.45492 31.5451 1.5 27.9 1.5H8.1ZM11.8384 13.8457C12.9605 13.8457 13.8701 12.936 13.8701 11.8139C13.8701 10.6919 12.9605 9.78223 11.8384 9.78223C10.7163 9.78223 9.8067 10.6919 9.8067 11.8139C9.8067 12.936 10.7163 13.8457 11.8384 13.8457ZM10.1284 15.2793H13.5511V26.2051H10.1284V15.2793ZM15.6419 26.1609V15.3192H18.8767V16.8623C18.9387 16.793 19.0037 16.716 19.073 16.6338C19.618 15.9881 20.4321 15.0234 22.1773 15.0234C24.1447 15.0234 26.1933 16.2725 26.1933 19.161V26.1609H22.7632V20.1034C22.7632 18.0717 21.5652 17.9305 21.0525 17.9305C20.5398 17.9305 19.043 18.1478 19.043 20.1034V26.1609H15.6419Z" fill="#0066C8"/>
</svg>
