<svg width="40" height="40" viewBox="0 0 40 40" fill="none" xmlns="http://www.w3.org/2000/svg">
<g clip-path="url(#clip0_16699_261654)">
<mask id="mask0_16699_261654" style="mask-type:luminance" maskUnits="userSpaceOnUse" x="0" y="0" width="40" height="40">
<path d="M40 0H0V40H40V0Z" fill="white"/>
</mask>
<g mask="url(#mask0_16699_261654)">
<mask id="mask1_16699_261654" style="mask-type:luminance" maskUnits="userSpaceOnUse" x="0" y="0" width="40" height="40">
<path d="M0 0H40V40H0V0Z" fill="white"/>
</mask>
<g mask="url(#mask1_16699_261654)">
<path d="M0 0H40V40H0V0Z" fill="#006FBB"/>
<path d="M21.3467 28.7999C20.8934 28.7999 20.44 28.8799 20 29.0132C19.56 28.8799 19.1067 28.7999 18.6534 28.7999C15.44 28.7999 14.4267 31.3599 11.2267 29.6932C11.8534 30.6532 13.4134 31.1732 14.3334 31.1732C16.6934 31.1732 17.5467 29.2132 19.0134 29.2132C19.1334 29.2132 19.2534 29.2266 19.3734 29.2399C17.5734 29.9999 16.1067 31.4532 16.12 31.4799C16.1467 31.5199 16.7334 32.0532 16.7334 32.0532C16.7334 32.0532 18.3467 30.0799 19.9867 29.4132C21.6267 30.0799 23.24 32.0532 23.24 32.0532C23.24 32.0532 23.8267 31.5199 23.8534 31.4799C23.8667 31.4532 22.4134 29.9866 20.6 29.2399C20.72 29.2132 20.84 29.2132 20.96 29.2132C22.4267 29.2132 23.28 31.1732 25.64 31.1732C26.56 31.1732 28.12 30.6666 28.7467 29.6932C25.5867 31.3599 24.56 28.7999 21.3467 28.7999ZM10.32 26.0266C9.57337 24.8399 9.56004 23.0666 9.45337 21.9332C9.36004 21.0266 9.28004 20.4399 8.86671 19.5732C9.04004 20.7199 8.61337 21.5199 8.56004 22.4666C8.52004 23.0799 8.64004 23.7599 9.18671 24.6399C8.82671 24.3332 8.40004 23.4799 7.72004 22.7866C6.81337 21.8666 5.89337 21.0799 5.82671 19.8399C5.72004 19.9466 5.62671 22.0666 6.78671 23.3732C7.74671 24.4666 9.40004 25.4132 10.32 26.0266ZM8.16004 22.7466C8.02671 21.1866 8.28004 20.7332 8.53337 19.9332C8.81337 19.0399 9.13337 18.1066 9.08004 16.3332C8.89337 17.6532 7.06671 18.8132 7.66671 21.3332C7.50671 20.9599 7.36004 19.7599 6.89337 18.7466C6.46671 17.8399 6.02671 16.8532 6.17337 15.7332C5.86671 16.2266 5.54671 17.9466 6.09337 19.6399C6.48004 20.8399 7.37337 21.4799 8.16004 22.7466ZM13.12 28.2532C12.4134 27.6399 11.9734 26.9999 11.5467 25.5066C11.1067 23.9732 9.89337 22.5732 9.80004 22.4799C10.6 24.1732 9.86671 25.8666 11.8534 27.4932C11.4 27.2399 10.52 26.4132 9.05337 25.7999C8.10671 25.4132 7.12004 24.6666 6.72004 23.7066C6.77337 24.5599 7.38671 25.8399 9.10671 27.0799C10.6267 28.1866 11.32 27.6399 13.12 28.2532ZM7.80004 15.6532C8.53337 13.9199 11.2 13.4532 11.12 11.0132C10.7867 12.3999 8.98671 12.4399 8.17337 14.3732C8.97337 12.2666 8.64004 11.0666 9.85337 10.2266C8.56004 10.6266 8.04004 11.4532 7.85337 12.3866C7.62671 13.4666 7.92004 14.5599 7.80004 15.6532ZM9.02671 12.7066C9.16004 12.5599 9.49337 12.2799 9.81337 12.0132C10.1734 11.7066 10.5067 11.4532 10.92 10.8399C11.72 9.69325 12.1334 9.26658 12.56 8.83991C12.56 8.82658 12.2934 8.94658 11.9334 9.09325C11.4 9.30658 10.6667 9.63991 10.2134 10.1066C9.52004 10.8132 9.30671 11.6532 9.17337 12.2132C9.13337 12.3999 8.98671 12.6799 9.02671 12.7066ZM16.8267 28.8799C14.2267 28.4132 14.1867 27.0666 11.7734 25.4666C12.7334 26.6266 12.6134 28.2532 14.8667 28.7866C12.3334 28.2799 10.4134 28.8799 8.82671 27.2932C9.66671 28.7332 10.88 29.3732 12.0934 29.5732C13.8134 29.8532 15.1334 29.1066 16.8267 28.8799ZM9.93337 13.6399C9.45337 14.7866 7.64004 15.3066 7.44004 17.3866C7.69337 14.2399 6.82671 13.5599 7.70671 12.0399C6.96004 12.7199 6.40004 14.1199 6.40004 15.1999C6.41337 16.8532 7.10671 17.0666 7.38671 19.1866C7.81337 16.7066 9.66671 16.2932 9.93337 13.6399ZM29.08 10.8399C29.5067 11.4532 29.8267 11.6932 30.1867 12.0132C30.5067 12.2799 30.84 12.5599 30.9734 12.7066C31.0134 12.6799 30.8667 12.3999 30.8267 12.1999C30.6934 11.6399 30.48 10.7999 29.7867 10.0932C29.3334 9.62658 28.6 9.30658 28.0667 9.07991C27.72 8.93325 27.44 8.81325 27.44 8.82658C27.8667 9.26658 28.28 9.69325 29.08 10.8399ZM31.8267 14.3732C31.0134 12.4399 29.2134 12.3999 28.88 11.0132C28.8 13.4532 31.4667 13.9199 32.2 15.6532C32.0667 14.5599 32.36 13.4666 32.1467 12.3866C31.96 11.4532 31.44 10.6266 30.1467 10.2266C31.3734 11.0532 31.0267 12.2532 31.8267 14.3732ZM32.56 17.3732C32.36 15.3066 30.5467 14.7866 30.0667 13.6266C30.3334 16.2799 32.2 16.6932 32.6134 19.1732C32.8934 17.0532 33.5867 16.8399 33.6 15.1866C33.6134 14.1066 33.04 12.6932 32.2934 12.0132C33.1734 13.5466 32.3067 14.2266 32.56 17.3732ZM33.1067 18.7466C32.64 19.7466 32.4934 20.9599 32.3334 21.3332C32.9334 18.8132 31.1067 17.6532 30.92 16.3332C30.8667 18.1066 31.1867 19.0532 31.4667 19.9332C31.72 20.7332 31.96 21.1866 31.84 22.7466C32.6267 21.4799 33.5334 20.8399 33.9067 19.6399C34.4534 17.9466 34.1334 16.2266 33.8267 15.7332C33.9867 16.8532 33.5334 17.8399 33.1067 18.7466ZM30.5467 21.9332C30.44 23.0666 30.4267 24.8399 29.68 26.0266C30.6134 25.4132 32.2534 24.4666 33.2267 23.3732C34.3867 22.0666 34.28 19.9466 34.1867 19.8399C34.12 21.0666 33.2 21.8666 32.2934 22.7866C31.6134 23.4799 31.1867 24.3332 30.8267 24.6399C31.3734 23.7599 31.48 23.0799 31.4534 22.4666C31.4 21.5199 30.96 20.7199 31.1467 19.5732C30.72 20.4399 30.64 21.0266 30.5467 21.9332ZM30.9467 25.8132C29.48 26.4266 28.6 27.2532 28.1467 27.5066C30.1334 25.8799 29.4 24.1866 30.2 22.4932C30.1067 22.5866 28.9067 23.9732 28.4534 25.5199C28.0267 27.0132 27.5867 27.6532 26.88 28.2666C28.68 27.6532 29.3734 28.2132 30.9067 27.0932C32.6134 25.8532 33.24 24.5732 33.2934 23.7199C32.88 24.6799 31.8934 25.4132 30.9467 25.8132ZM28.2267 25.4532C25.8134 27.0666 25.7867 28.3999 23.1734 28.8666C24.8667 29.0932 26.1867 29.8532 27.9067 29.5599C29.1334 29.3599 30.3334 28.7199 31.1734 27.2799C29.5867 28.8666 27.6667 28.2666 25.1334 28.7732C27.3867 28.2399 27.2667 26.6266 28.2267 25.4532ZM11.36 20.9999C11.4534 20.8799 11.0934 20.2266 11.0934 20.2266C10.9734 20.2399 11.2667 21.1199 11.36 20.9999ZM25.68 18.7199V18.5866L25.5867 18.5466L25.52 18.5732C25.52 18.5732 25.4934 18.6266 25.52 18.6399C25.5467 18.6532 25.5867 18.7199 25.64 18.7332C25.68 18.7332 25.68 18.7199 25.68 18.7199ZM24.0267 15.6132L24.0534 15.5332L23.96 15.4932H23.9067C23.8934 15.4932 23.8667 15.5599 23.8667 15.5599H23.92L24.0267 15.6132ZM21.5734 9.62658C21.56 9.61325 21.5334 9.61325 21.5734 9.62658ZM19.4 21.2132C19.4 21.2666 19.44 21.2666 19.44 21.2666H19.5867L19.6267 21.2532C19.6667 21.2399 19.68 21.2132 19.6934 21.1866C19.6934 21.1599 19.7067 21.1332 19.7334 21.1066C19.76 21.0799 19.6134 21.0132 19.6134 21.0132H19.48C19.4134 21.0132 19.48 21.0132 19.3867 21.0799C19.3067 21.1732 19.4 21.1466 19.4 21.2132ZM19.7467 19.6266C19.7467 19.6266 19.7334 19.6799 19.7467 19.7599C19.76 19.8399 19.7467 19.8399 19.7467 19.8399C19.7467 19.8399 19.8 19.8666 19.8267 19.8666C19.84 19.8666 19.8667 19.8132 19.8667 19.8132V19.6532C19.8667 19.6532 19.84 19.6399 19.7867 19.6266C19.72 19.5999 19.7467 19.6266 19.7467 19.6266ZM20 7.94658C14.4267 7.94658 9.89337 12.4799 9.89337 18.0532C9.89337 23.6266 14.4267 28.1599 20 28.1599C25.5734 28.1599 30.1067 23.6266 30.1067 18.0532C30.1067 12.4799 25.5734 7.94658 20 7.94658ZM29.7467 17.8666H28.1334C28.0966 15.8311 27.2861 13.886 25.8667 12.4266L27.0134 11.2799C28.6667 12.9999 29.7067 15.3199 29.7467 17.8666ZM26.4267 22.1866C26.4267 22.1866 26.4134 22.1466 26.3734 22.0799C26.3334 22.0132 26.3734 21.9999 26.3734 21.9999L26.3067 21.8532C26.3067 21.8532 26.24 21.7999 26.2134 21.7866H26.1067C26.0534 21.7866 26.04 21.8532 26.04 21.8532V22.2132C26.04 22.2399 26.0134 22.2799 26.0134 22.2799L25.92 22.4399L25.8667 22.5199C25.8534 22.5466 25.8534 22.5732 25.8667 22.5866V22.7066L25.96 22.7466L26 22.7732C26 22.7732 25.9867 22.8132 25.96 22.8532C25.9334 22.8799 26.0134 22.9332 26.0134 22.9332H26.0534C25.92 23.0932 25.7734 23.2532 25.6267 23.4132L25.3867 23.1732V22.8932L25.3067 22.8666C25.3067 22.8666 25.2667 22.8399 25.2534 22.8266C25.24 22.8266 25.1467 22.8132 25.1467 22.8132H25.0267L24.9067 22.6932C24.9734 22.4799 25.1867 21.8666 25.1867 21.6132C25.8802 20.6176 26.2652 19.4397 26.2934 18.2266H27.7867C27.7467 19.7732 27.2667 21.2132 26.44 22.4132H26.4267V22.3732C26.4267 22.3732 26.4667 22.2799 26.4667 22.2532C26.4667 22.2132 26.4267 22.1866 26.4267 22.1866ZM25.3734 23.6666C25.32 23.7066 25.28 23.7599 25.2267 23.7999C25.12 23.8132 25.08 23.8132 25.08 23.8132C25.08 23.8132 25.0534 23.8266 25.0534 23.7999C25.0534 23.7732 25.0667 23.6666 25.0667 23.6666C25.0667 23.6666 25.0934 23.5466 25.1067 23.5332C25.1296 23.5071 25.1518 23.4805 25.1734 23.4532L25.3734 23.6666ZM24.1467 21.9466L23.88 21.6799H23.9334C23.9334 21.6799 23.9867 21.6666 24.0667 21.6799C24.1467 21.6932 24.2 21.6932 24.2 21.6932C24.2 21.6932 24.2267 21.6666 24.2667 21.6532C24.3067 21.6399 24.44 21.4666 24.4667 21.2932C24.4934 21.1199 24.5467 21.0399 24.5467 21.0399C24.5467 21.0399 24.5734 21.0666 24.6 20.9199L24.6267 20.7732C24.6267 20.7732 24.64 20.7466 24.64 20.7199V20.3599L24.6134 20.2799L24.56 20.2266H24.5334C24.5334 20.2266 24.5334 20.2799 24.4934 20.3199C24.4667 20.3332 24.4534 20.3599 24.4267 20.3866L24.36 20.3999L24.3334 20.4266L24.3067 20.5066C24.3067 20.5066 24.2934 20.5199 24.2934 20.5332C24.2934 20.5466 24.2934 20.5332 24.28 20.5999C24.2667 20.6666 24.28 20.6399 24.2534 20.6932C24.2134 20.7466 24.2534 20.7199 24.2134 20.7466C24.1867 20.7732 24.1734 20.7866 24.1467 20.7866C24.12 20.7999 24.1467 20.8132 24.0667 20.8132H23.92C23.8934 20.8132 23.8667 20.7732 23.8667 20.7732C23.8667 20.7732 23.8134 20.7732 23.8934 20.7466C23.9734 20.7199 24.0134 20.6532 24.0134 20.6532C24.0134 20.6532 24.0934 20.5866 24.1334 20.5732C24.16 20.5599 24.2267 20.5199 24.24 20.5066C24.2534 20.4932 24.2667 20.4666 24.28 20.4532C24.2934 20.4399 24.28 20.3866 24.28 20.3866C24.28 20.3866 24.2934 20.3199 24.3467 20.2932C24.3867 20.2666 24.4267 20.2799 24.4534 20.2266L24.48 20.1732C24.48 20.1732 24.56 20.1066 24.5734 20.0399C24.5734 19.9866 24.6267 19.8666 24.6267 19.8666C24.6267 19.8666 24.6267 19.8132 24.64 19.7599C24.6534 19.7199 24.7067 19.6532 24.7067 19.6532L24.7867 19.5599C24.7867 19.5599 24.8667 19.4666 24.8934 19.4666C24.9067 19.4666 24.9734 19.4266 24.9734 19.4266C24.9734 19.4266 24.9734 19.4532 24.9867 19.3866V19.2399L25.0667 19.2266C25.0667 19.2266 25.1334 19.2399 25.16 19.2266C25.1867 19.2132 25.2667 19.1999 25.2667 19.1999C25.2667 19.1999 25.32 19.1599 25.3467 19.1466C25.383 19.1256 25.4186 19.1034 25.4534 19.0799V19.0666L25.5334 19.0399L25.6 18.9732V18.9466L25.64 18.8532C25.64 18.8532 25.5734 18.8132 25.5734 18.7599V18.6799L25.5334 18.6532C25.5334 18.6532 25.56 18.6532 25.48 18.6399L25.3334 18.6666C25.3334 18.6666 25.2667 18.6399 25.24 18.6132C25.2191 18.5769 25.1968 18.5413 25.1734 18.5066L25.12 18.3332L25.0534 18.2266H25.9334C25.9062 19.2387 25.6167 20.2265 25.0934 21.0932C25.0934 21.0532 25.08 21.0399 25.08 21.0399L25.0267 21.0266L24.9867 21.0532C24.9867 21.0532 24.96 21.1066 24.92 21.1732C24.88 21.2399 24.8534 21.2932 24.8267 21.3732C24.8 21.4532 24.8134 21.4666 24.76 21.5066C24.72 21.5466 24.6534 21.5999 24.6267 21.6666C24.6 21.7199 24.56 21.7732 24.56 21.7732L24.48 21.7999C24.48 21.7999 24.4134 21.7999 24.36 21.8266C24.3067 21.8532 24.2667 21.8799 24.2667 21.8799C24.2667 21.8799 24.2134 21.9332 24.1867 21.9466L24.16 21.9599C24.1734 21.9466 24.1867 21.9332 24.1467 21.9466ZM20.4534 20.7199C20.4534 20.7199 20.4534 20.7066 20.4934 20.7199C20.5467 20.7332 20.6 20.7199 20.6 20.7199C20.6 20.7199 20.6267 20.6799 20.6534 20.6799H20.6667L20.7867 20.8399L20.88 20.9332C20.88 20.9332 20.9334 20.9599 20.9467 20.9332C20.96 20.9066 21.0267 20.8932 21.0267 20.8666V20.7332C21.0267 20.7332 21.0134 20.6132 21.0134 20.5999V20.5199C21.0134 20.5199 20.9867 20.4399 20.96 20.4132C20.9405 20.3925 20.9226 20.3702 20.9067 20.3466C20.9067 20.3466 20.92 20.2932 20.9334 20.2932C20.9467 20.2932 21.0134 20.2532 21.0134 20.2532L21.04 20.2799C21.0934 20.3199 21.0667 20.3199 21.12 20.3332C21.1734 20.3466 21.2 20.3466 21.2 20.3466C21.24 20.3199 21.2667 20.3066 21.2667 20.3066L21.36 20.1999C21.36 20.1999 21.4534 20.1599 21.4534 20.1999C21.4534 20.2266 21.4934 20.2399 21.4534 20.2666C21.4267 20.2932 21.4 20.3066 21.3734 20.3332C21.3467 20.3599 21.3067 20.3332 21.28 20.3866L21.2534 20.4532L21.36 20.5199C21.36 20.5199 21.4267 20.5199 21.36 20.5466C21.2934 20.5732 21.3467 20.5599 21.2934 20.5732L21.2534 20.5866C21.2534 20.5866 21.2267 20.6132 21.24 20.6399C21.24 20.6666 21.24 20.6799 21.2667 20.7066C21.28 20.7332 21.2934 20.7332 21.3067 20.7732C21.3067 20.7999 21.2267 20.8532 21.2267 20.8532L21.1867 20.8666C21.1867 20.8666 21.1467 20.9199 21.12 20.9332C21.1067 20.9466 21.0267 20.9732 21.0267 20.9732C21.0267 20.9732 20.9867 20.9999 20.9334 20.9999H20.76C20.76 20.9999 20.72 20.9466 20.72 20.9066C20.72 20.8666 20.7067 20.8266 20.7067 20.8266C20.7067 20.8266 20.6667 20.7466 20.6534 20.7732C20.64 20.7866 20.5734 20.8266 20.5734 20.8266C20.5734 20.8266 20.56 20.8666 20.56 20.8932C20.56 20.9199 20.5067 20.8799 20.5734 20.9599L20.64 21.0532V21.1066L20.5867 21.1332C20.5867 21.1332 20.5334 21.1332 20.4934 21.1732C20.4667 21.2132 20.4267 21.2532 20.4267 21.2532C20.4267 21.2532 20.3867 21.2799 20.36 21.3066L20.3334 21.3332L20.2534 21.3599C20.2423 21.334 20.2334 21.3072 20.2267 21.2799C20.2267 21.2799 20.2 21.2532 20.1867 21.2266V20.3999C20.2585 20.3976 20.3299 20.3887 20.4 20.3732V20.6532C20.3867 20.6799 20.4534 20.7199 20.4534 20.7199ZM20.2134 22.1866V22.1466L20.2267 22.1332C20.2267 22.1199 20.3067 22.0399 20.4 21.9732C20.4267 21.9599 20.44 21.9466 20.44 21.9332H20.4C20.4 21.9332 20.4534 21.9066 20.44 21.9332C20.4934 21.9332 20.5734 21.9199 20.5867 21.9199H20.64C20.6534 21.9199 20.68 21.9199 20.6934 21.9066C20.7067 21.8932 20.7867 21.8399 20.7867 21.8399H20.84C20.8591 21.846 20.8771 21.855 20.8934 21.8666L20.96 21.9199L21.04 21.9466C21.0667 21.9599 21.1067 21.9599 21.1467 21.9732L21.2267 21.9999H21.24C20.9067 22.1066 20.56 22.1732 20.2134 22.1866ZM20.76 22.6266C20.7334 22.6399 20.72 22.6399 20.6534 22.6532C20.6 22.6666 20.6 22.6532 20.5067 22.6132C20.4667 22.5999 20.4667 22.5599 20.4667 22.5199C20.5467 22.5066 20.6267 22.5066 20.7067 22.4932C20.72 22.5199 20.76 22.5466 20.7867 22.5732C20.8534 22.5999 20.7867 22.6132 20.76 22.6266ZM21.1867 21.8532H21.1734C21.16 21.8532 21.0667 21.7866 21.0667 21.7866L21.0534 21.7199C21.04 21.6532 21.0534 21.6932 21.0534 21.6932H21.1467L21.2134 21.7199H21.2534C21.2934 21.7199 21.32 21.7332 21.3334 21.7332C21.3467 21.7332 21.3734 21.7332 21.4267 21.7466H21.6267L21.7334 21.7999C21.68 21.8266 21.6267 21.8532 21.5734 21.8666H21.36C21.32 21.8666 21.2934 21.8666 21.2667 21.8532C21.2534 21.8666 21.24 21.8666 21.1867 21.8532ZM21.2534 24.2132H21.2934C21.3334 24.1999 21.3734 24.2666 21.3067 24.3599C21.2534 24.4532 21.1867 24.5066 21.2667 24.5466C21.3467 24.5866 21.56 24.5066 21.72 24.6266C21.88 24.7466 21.9734 24.7999 21.96 24.8666C21.9467 24.9466 21.84 25.0132 21.84 25.0132C21.84 25.0132 21.68 25.1732 21.8267 25.3066C21.96 25.4399 22.2534 25.3999 22.28 25.4532C22.28 25.4666 22.3067 25.4666 22.32 25.4799C21.64 25.6932 20.92 25.8132 20.16 25.8266V24.3332C20.5334 24.3199 20.8934 24.2799 21.2534 24.2132ZM22.2534 22.1332C22.1867 22.1599 22.1334 22.1866 22.1334 22.1866C22.1334 22.1866 22.0134 22.1999 21.96 22.2532C21.9342 22.2767 21.9118 22.3036 21.8934 22.3332V22.4932C21.8934 22.4932 21.7867 22.4532 21.68 22.4932C21.5734 22.5332 21.48 22.5332 21.48 22.5332C21.48 22.5332 21.4 22.5466 21.3334 22.5332C21.2667 22.5199 21.1467 22.5332 21.1467 22.5332L21.0267 22.4799C21.0267 22.4799 21.0134 22.5332 21.0267 22.4266V22.3999C21.76 22.2266 22.4134 21.8666 22.96 21.3866L22.9867 21.4532C22.9867 21.4532 22.9734 21.4932 22.9867 21.5332C23 21.5599 22.9867 21.5199 23 21.5599C23.0134 21.6132 23.0667 21.5732 23 21.6666C22.9334 21.7599 22.9867 21.7066 22.9334 21.7599C22.8934 21.7999 22.8267 21.8399 22.8267 21.8399C22.8267 21.8399 22.7334 21.9066 22.6934 21.9466C22.6667 21.9866 22.6267 21.9999 22.6267 21.9999C22.6267 21.9999 22.56 22.0532 22.4934 22.0799C22.4267 22.1066 22.3067 22.1199 22.3067 22.1199C22.3067 22.1199 22.32 22.1066 22.2534 22.1332ZM21.76 18.6266L21.84 18.4666L21.9467 18.5199C21.9334 18.5866 21.9067 18.6532 21.8934 18.7199H21.88L21.76 18.6266ZM22.1867 21.3332C22.1867 21.2932 22.2134 21.2266 22.2134 21.1999C22.2134 21.1866 22.24 21.0932 22.24 21.0932C22.24 21.0932 22.2534 21.0532 22.2934 21.0266C22.3334 20.9999 22.4267 21.1199 22.48 21.0932C22.5334 21.0666 22.5067 20.9332 22.5334 20.9332C22.5467 20.9332 22.6134 20.9599 22.6134 20.9599L22.6934 20.9866L22.7334 21.0132L22.76 21.0399V21.1199C22.6134 21.2532 22.44 21.3866 22.28 21.4932L22.24 21.4532C22.2267 21.4532 22.1867 21.3732 22.1867 21.3332ZM23.0534 20.8532L22.8934 20.6932V20.6666C22.8934 20.6666 23.0134 20.6532 23.0534 20.6666C23.0934 20.6799 23.12 20.6666 23.12 20.6932C23.12 20.7199 23.1334 20.7199 23.12 20.7599C23.1067 20.7999 23.0934 20.7866 23.08 20.8132C23.08 20.8266 23.0667 20.8399 23.0534 20.8532ZM23.12 15.3866C23.12 15.3866 23.0267 15.3999 23.0267 15.4132V15.5066C23.0267 15.5599 23.0134 15.6132 23.0134 15.6132C23.0134 15.6132 22.9467 15.6266 22.9334 15.6132C22.92 15.5999 22.84 15.5599 22.84 15.5599C22.84 15.5599 22.8267 15.5466 22.7867 15.5466H22.7467L23.0667 15.2266C23.12 15.2932 23.1867 15.3599 23.24 15.4266H23.1734C23.16 15.4399 23.12 15.3866 23.12 15.3866ZM23.2267 15.7466C23.2267 15.7199 23.24 15.6532 23.24 15.6532C23.24 15.6532 23.2667 15.5732 23.28 15.5466C23.28 15.5466 23.28 15.5332 23.2934 15.5332C23.3734 15.6399 23.4534 15.7599 23.5334 15.8799L23.4267 15.8266H23.2934L23.3467 15.8932L23.4267 15.9466C23.4267 15.9466 23.48 16.0266 23.4534 16.0532C23.44 16.0666 23.4134 16.0932 23.4 16.0932C23.3867 16.0932 23.32 16.0666 23.32 16.0666C23.32 16.0666 23.3067 16.0666 23.2934 15.9999C23.2944 15.9626 23.2851 15.9257 23.2667 15.8932L23.2 15.8666L23.1867 15.8266C23.2052 15.8028 23.2189 15.7757 23.2267 15.7466ZM23.2134 21.7999L23.2267 21.7199L23.3334 21.6799C23.3334 21.6799 23.3467 21.6932 23.3734 21.7066H23.4134L23.6534 21.9466H23.4667L23.3867 21.9332C23.3334 21.9199 23.2934 21.9199 23.24 21.9066L23.1867 21.8932V21.7999H23.2134ZM23.3067 14.9866L24.32 13.9732C24.5867 14.2532 24.8267 14.5599 25.04 14.8932C25.0267 14.8932 24.9334 14.8266 24.9334 14.8132C24.926 14.7757 24.9125 14.7397 24.8934 14.7066C24.88 14.6932 24.92 14.7199 24.88 14.6932C24.8534 14.6666 24.8 14.6932 24.8 14.6932C24.8 14.6932 24.8134 14.7199 24.8 14.7199H24.7334C24.7334 14.7199 24.68 14.6932 24.6534 14.6932C24.6267 14.6932 24.5734 14.6666 24.5467 14.6666C24.5334 14.6666 24.4667 14.6399 24.4667 14.6399C24.4667 14.6932 24.4934 14.7466 24.5334 14.7732C24.56 14.7866 24.5867 14.7732 24.6 14.8266C24.6134 14.8932 24.68 14.8932 24.68 14.8932L24.7334 14.9599C24.7334 14.9599 24.7467 14.9199 24.76 14.8932C24.76 14.8666 24.7734 14.8532 24.8 14.8532C24.8267 14.8532 24.8534 14.7466 24.8667 14.8266L24.88 14.9199C24.88 14.9199 24.8534 14.9332 24.84 14.9732L24.8267 15.0132L24.8534 15.0932C24.8534 15.0932 24.9067 15.0799 24.92 15.0932C24.9334 15.1066 24.9867 15.0932 25.0134 15.0932C25.0267 15.0932 25.04 15.1466 25.0934 15.0666C25.1067 15.0399 25.12 15.0266 25.12 15.0132C25.16 15.0932 25.2134 15.1599 25.2534 15.2399H25.12C25.04 15.2399 24.9867 15.2266 24.9734 15.1999C24.96 15.1732 24.9734 15.1599 24.92 15.1599C24.9045 15.1599 24.8892 15.1635 24.8753 15.1705C24.8614 15.1774 24.8494 15.1875 24.84 15.1999H24.72V15.2399C24.72 15.2799 24.68 15.2132 24.72 15.2932C24.76 15.3599 24.7734 15.3866 24.7734 15.3999C24.7734 15.4132 24.8134 15.4266 24.8267 15.4532C24.84 15.4799 24.8267 15.4266 24.8667 15.4932C24.9067 15.5599 24.96 15.5599 24.96 15.5599C24.96 15.5599 24.96 15.5732 24.9867 15.6266C25.0134 15.6799 25.0667 15.7199 25.0667 15.7199C25.0667 15.7199 25.1334 15.7732 25.1467 15.7999C25.1467 15.8132 25.16 15.7999 25.1867 15.8399L25.24 15.9199C25.24 15.9199 25.3067 15.9466 25.3467 15.9732L25.3734 15.9866C25.3734 15.9866 25.4134 15.9466 25.4134 15.9199V15.7999C25.4134 15.7999 25.3734 15.7066 25.3734 15.6799L25.3334 15.5599C25.3334 15.5599 25.3334 15.5066 25.3067 15.4666C25.289 15.4284 25.2666 15.3925 25.24 15.3599L25.2267 15.2666L25.2534 15.2532C25.3867 15.4932 25.4934 15.7466 25.5867 15.9999V16.1332C25.5867 16.1999 25.6 16.3332 25.6 16.3866C25.6 16.4399 25.56 16.4799 25.56 16.4799C25.56 16.4799 25.52 16.4666 25.48 16.4799C25.44 16.4799 25.3734 16.4932 25.3734 16.4932V16.7999L25.3334 16.8666L25.2934 16.9066C25.2934 16.9066 25.2667 16.9199 25.2267 16.9066L25.2 16.8932C25.2 16.8932 25.1867 16.7999 25.1867 16.7599V16.4266C25.1867 16.4266 25.1334 16.3732 25.1067 16.3332C25.08 16.3066 24.9734 16.1866 24.9734 16.1866C24.9734 16.1866 24.9334 16.1732 24.92 16.1732C24.9067 16.1732 24.84 16.1999 24.84 16.1999L24.8267 16.2666C24.8267 16.2666 24.8134 16.3732 24.8134 16.3999C24.8134 16.4266 24.7734 16.4666 24.7734 16.4666C24.7734 16.4666 24.76 16.4666 24.7334 16.4532L24.68 16.4132C24.68 16.4132 24.6267 16.3599 24.6267 16.3332C24.6267 16.3199 24.64 16.2799 24.6667 16.2666L24.6934 16.1599C24.6934 16.1599 24.64 16.1332 24.5867 16.1466C24.5467 16.1599 24.48 16.1599 24.48 16.1599L24.4 16.0932L24.3334 15.9732L24.2534 15.8666L24.2 15.8132C24.1867 15.8132 24.0934 15.7599 24.0534 15.7332C24.0134 15.7066 23.9334 15.6799 23.9334 15.6799C23.9334 15.6799 23.92 15.7199 23.88 15.6799C23.8667 15.6666 23.8267 15.6666 23.8 15.6666C23.6586 15.4241 23.4934 15.1963 23.3067 14.9866ZM23.9334 13.7066C23.8934 13.6799 23.8667 13.6799 23.8667 13.6532C23.8667 13.6399 23.7867 13.5332 23.7734 13.4532V13.4399L24.0934 13.7199L24.04 13.7732C24.0134 13.7599 23.9734 13.7332 23.9334 13.7066ZM25.68 17.1599V17.0266C25.68 17.0132 25.6667 16.9466 25.68 16.9199C25.6934 16.9066 25.68 16.8532 25.68 16.8532C25.68 16.8532 25.7067 16.7732 25.7334 16.7466C25.7467 16.7332 25.7734 16.7199 25.7867 16.7066C25.88 17.0932 25.92 17.4799 25.9334 17.8666H24.9334C24.92 17.8399 24.92 17.8266 24.92 17.8132C24.92 17.7866 24.9467 17.7466 24.9467 17.7199C24.9467 17.7066 24.9067 17.6799 24.9467 17.6532C24.9734 17.6399 25 17.6132 25.0267 17.5999L25.1067 17.4666C25.1067 17.4666 25.1734 17.4266 25.1734 17.3999C25.1734 17.3866 25.16 17.2932 25.16 17.2932L25.12 17.2532C25.12 17.2532 25.12 17.1732 25.1334 17.1466C25.1467 17.1199 25.2267 17.0666 25.2267 17.0666L25.2934 17.0532L25.36 17.0399C25.36 17.0399 25.4 16.9732 25.4134 16.9466C25.4267 16.9332 25.4267 16.8266 25.4267 16.8266L25.52 16.7332L25.5734 16.6932V16.7999C25.5734 16.7999 25.6134 16.9066 25.5734 16.9599C25.5334 17.0132 25.52 17.0399 25.52 17.0799V17.2132C25.52 17.2266 25.5334 17.2666 25.5334 17.2666L25.6 17.2932H25.6534C25.6534 17.2932 25.6667 17.2532 25.68 17.2399V17.1599ZM26.2934 17.8666C26.2534 16.2666 25.6 14.8132 24.5734 13.7199L25.0134 13.2799C25.0534 13.3066 25.1067 13.3332 25.1067 13.3332C25.1067 13.3332 25.1734 13.3199 25.2 13.3599C25.2267 13.3999 25.4134 13.4399 25.4534 13.4932C25.4934 13.5466 25.56 13.5866 25.56 13.5866C25.56 13.5866 25.6 13.5732 25.6534 13.6132C25.6934 13.6666 25.92 13.8399 25.92 13.8399L26.0134 13.9466C26.0134 13.9466 26.1334 14.0132 26.16 14.0532C26.1867 14.0932 26.28 14.0932 26.28 14.0932C26.28 14.0932 26.3067 14.1599 26.3467 14.0932C26.3867 14.0266 26.3867 14.0266 26.3867 13.9999V13.8399L26.44 13.7466V13.7066C27.2765 14.9406 27.7394 16.3895 27.7734 17.8799L26.2934 17.8666ZM24.7734 12.0932C24.76 12.0666 24.68 11.9066 24.68 11.8932C24.68 11.8799 24.6667 11.8532 24.6667 11.8266C24.92 12.0132 25.1467 12.2132 25.3734 12.4266L25.2267 12.5732C25.1867 12.5599 25.16 12.5466 25.16 12.5466C25.16 12.5466 25.0267 12.3599 25.0134 12.3332C25.0134 12.3199 24.8667 12.2266 24.8667 12.2266C24.8667 12.2266 24.7867 12.1332 24.7734 12.0932ZM25.5867 12.7066L25.6267 12.6666L25.7467 12.7866L25.5867 12.7066ZM20.1734 8.29325C22.7334 8.33325 25.0534 9.37325 26.7734 11.0266L25.6267 12.1732C24.3954 10.9986 22.8302 10.2347 21.1467 9.98658H21.16C21.2134 9.95991 21.2134 9.97325 21.24 9.93325C21.2667 9.90658 21.28 9.93325 21.36 9.93325C21.4267 9.93325 21.3867 9.91991 21.4267 9.93325C21.4534 9.93325 21.4934 9.90658 21.5467 9.90658H21.6667C21.7867 9.90658 21.6667 9.90658 21.6667 9.87991V9.79991C21.6667 9.79991 21.76 9.82658 21.8134 9.82658C21.8667 9.82658 21.8534 9.77325 21.8534 9.77325L21.8134 9.71991C21.8134 9.71991 21.8534 9.73325 21.8934 9.77325C21.9334 9.81325 21.9734 9.75991 22 9.77325C22.0134 9.78658 22.08 9.74658 22.08 9.74658V9.69325C22.08 9.63991 22.0134 9.65325 22.0134 9.65325L21.88 9.62658H21.6V9.63991C21.5867 9.66658 21.4134 9.61325 21.4 9.63991C21.3867 9.66658 21.3467 9.63991 21.3334 9.63991C21.32 9.63991 21.2134 9.67991 21.16 9.70658C21.1067 9.73325 21 9.70658 21 9.70658C21 9.70658 20.92 9.73325 20.8534 9.74658C20.7867 9.75991 20.8 9.78658 20.7467 9.83991C20.6934 9.89325 20.6667 9.93325 20.6667 9.93325C20.5067 9.91991 20.36 9.90658 20.2 9.90658L20.1734 8.29325ZM20.1734 10.2666H20.2934C20.3091 10.2824 20.3271 10.2959 20.3467 10.3066L20.44 10.3332C20.5334 10.3599 20.5067 10.3732 20.52 10.3866C20.5334 10.3999 20.6667 10.4399 20.68 10.4399H20.7467V10.3999C20.7467 10.3866 20.6934 10.3866 20.6134 10.3199C20.6 10.3066 20.5867 10.3066 20.5867 10.2932C21.5067 10.3599 22.4134 10.5999 23.2534 10.9866H23.24C23.12 10.9866 23.1734 10.9732 23.12 10.9866C23.0667 10.9999 23.1734 10.9732 23.0267 10.9866C22.88 10.9999 22.92 10.9866 22.88 10.9999C22.8534 11.0132 22.8 10.9866 22.76 11.0132C22.7284 11.0347 22.6973 11.057 22.6667 11.0799V11.2132H22.72C22.72 11.2132 22.76 11.2799 22.7734 11.3066C22.7867 11.3332 22.96 11.4666 22.96 11.4666L23.0534 11.5732C23.0534 11.5732 23.12 11.6266 23.1467 11.6932C23.1734 11.7599 23.2134 11.7866 23.2134 11.7866C23.2134 11.7866 23.2267 11.8132 23.2534 11.8799L23.28 11.9466C23.28 11.9466 23.36 12.0666 23.4 12.0799C23.44 12.0932 23.48 12.1332 23.48 12.1332C23.48 12.1332 23.48 12.1866 23.4934 12.2132C23.4934 12.2399 23.52 12.2932 23.52 12.2932C23.52 12.2932 23.5467 12.3066 23.6 12.3066H23.76L23.8534 12.2532L23.8934 12.2399C23.8934 12.2399 23.92 12.2399 23.9734 12.2799C24.04 12.3199 24.1067 12.4799 24.1067 12.4799C24.1067 12.4799 24.1334 12.5332 24.1067 12.5466C24.08 12.5599 24.08 12.5866 24.08 12.5866C24.08 12.5866 24.04 12.6532 24.0934 12.6666C24.1467 12.6799 24.2534 12.7732 24.2534 12.7732C24.2534 12.7732 24.52 13.0399 24.5334 13.0399C24.5467 13.0399 24.5467 13.0132 24.6134 13.0399C24.6267 13.0532 24.64 13.0532 24.6534 13.0532L24.2534 13.4532C23.16 12.4266 21.7067 11.7732 20.1067 11.7332L20.1734 10.2666ZM20.1734 12.1066C21.3577 12.146 22.5038 12.5358 23.4667 13.2266V13.2666C23.4667 13.2932 23.4 13.3732 23.4 13.3732V13.5066C23.4 13.5066 23.48 13.5599 23.5467 13.6132C23.6134 13.6666 23.6534 13.6932 23.6667 13.7199C23.68 13.7332 23.8 13.8132 23.8 13.8132C23.8 13.8132 23.8534 13.8399 23.9467 13.8532H23.96L23.0534 14.7599C22.2685 14.0272 21.2463 13.6013 20.1734 13.5599V12.1066ZM20.1734 13.9066C21.0707 13.9437 21.9316 14.2713 22.6267 14.8399H22.44C22.4267 14.8399 22.3867 14.8799 22.3467 14.9066C22.3229 14.9171 22.3039 14.9361 22.2934 14.9599C22.28 14.9866 22.2934 15.0399 22.2934 15.0399C22.2934 15.0399 22.24 15.0532 22.1734 15.0399C22.1067 15.0266 22.0934 15.0532 22.0534 15.0399C22 15.0266 21.9067 15.0399 21.9067 15.0399L22.0267 15.1599C22.0267 15.1599 22.0667 15.2132 22.0667 15.2399C22.0534 15.2532 22.1467 15.2799 22.1467 15.2799C22.1467 15.2799 22.2134 15.2666 22.28 15.2132L22.3067 15.1999C22.32 15.1866 22.36 15.1332 22.4134 15.0932C22.4667 15.0532 22.4667 15.0666 22.52 15.0666C22.5734 15.0666 22.52 15.0666 22.5334 15.0932C22.5467 15.1199 22.6267 15.0932 22.6267 15.0932L22.6934 15.1332L22.3867 15.4399H22.2134C22.2134 15.4399 22.1734 15.4132 22.12 15.4666C22.0667 15.5199 22.0267 15.5466 22.0267 15.5466C22.0267 15.5466 22 15.5999 21.9467 15.6266C21.9067 15.6532 21.8667 15.6532 21.8667 15.6532L21.88 15.5732L21.9734 15.4799C21.9734 15.4799 22.0534 15.4132 22.0534 15.3999V15.3199H21.88L21.84 15.3732L21.6934 15.4799L21.7067 15.5732L21.7334 15.6266C21.7334 15.6266 21.68 15.6266 21.7334 15.6532L21.7867 15.6932C21.7867 15.6932 21.8534 15.6666 21.84 15.7599C21.8267 15.8666 21.8 15.9066 21.8 15.9066L21.76 15.9466L21.6534 15.9866L21.6134 16.0132L21.4534 16.0266L21.4134 15.9466L21.3067 15.9332H21.2C21.1867 15.9332 21.1334 15.8932 21.1334 15.8932C21.1334 15.8932 21.1334 15.8799 21.08 15.8532C21.0267 15.8399 21 15.8399 20.9734 15.8266L20.9067 15.7599C20.9067 15.7599 20.9334 15.7066 20.9467 15.6932C20.96 15.6799 20.9734 15.6932 21.0267 15.6399L21.08 15.5866C21.08 15.5866 21.16 15.5066 21.16 15.4799V15.2399C21.16 15.2399 21.2 15.2132 21.16 15.2132H21.0534C21.0534 15.2132 21 15.2532 20.9734 15.2799C20.9467 15.3066 20.9334 15.2932 20.8934 15.3332L20.8134 15.3866C20.8134 15.3866 20.7467 15.4132 20.7334 15.4399C20.7334 15.4666 20.7067 15.5466 20.7067 15.5466C20.7067 15.5466 20.7067 15.6399 20.6934 15.6532C20.68 15.6666 20.64 15.6799 20.64 15.6799H20.5334C20.4534 15.6799 20.2 15.6932 20.1867 15.6932H20.1734V13.9066ZM19.8267 8.29325V9.91991C17.72 9.95991 15.8 10.8132 14.3734 12.1732L13.2267 11.0266C15.0037 9.31641 17.3609 8.3402 19.8267 8.29325ZM18.76 16.0532C18.7467 16.0399 18.7334 16.0399 18.72 16.0266L18.5467 15.9866C18.5467 15.9866 18.6534 15.7999 18.4934 15.6532C18.3334 15.4932 18.2267 15.4399 18.2267 15.4399H17.92C17.92 15.4399 17.84 15.2666 17.4267 15.2532L17.1867 15.0132C17.9043 14.3479 18.8356 13.9602 19.8134 13.9199V15.7199C19.4383 15.7322 19.0739 15.8475 18.76 16.0532ZM19.8134 16.0532C19.8134 16.0666 19.8134 16.0666 19.7867 16.0932C19.72 16.1332 19.6534 16.1866 19.6534 16.1866C19.6534 16.1866 19.5867 16.2266 19.5467 16.2666C19.5067 16.3066 19.56 16.2932 19.48 16.3466C19.3867 16.3866 19.4267 16.3732 19.3867 16.3866C19.36 16.3999 19.3734 16.3866 19.28 16.3999C19.2271 16.4082 19.1736 16.4127 19.12 16.4132C19.12 16.4132 19.0667 16.3599 19.0134 16.3466C19 16.3332 18.9867 16.3332 18.96 16.3332C19.2181 16.1732 19.5107 16.0772 19.8134 16.0532ZM18.3067 23.1599C18.2667 23.2266 18.1734 23.3066 18.1734 23.3066V23.4532L18.3067 23.5066C18.3067 23.5066 18.36 23.5599 18.3867 23.6132L18.4134 23.6532C18.4134 23.6532 18.4667 23.6932 18.5334 23.7332C18.6 23.7732 18.6534 23.7866 18.6934 23.7999C18.7067 23.7999 18.7334 23.8132 18.7867 23.8399C17.792 23.6304 16.8685 23.1664 16.1067 22.4932C16.0667 22.4266 16.0134 22.3599 15.9734 22.3066L16.96 21.3199C17.64 21.9599 18.5334 22.3732 19.5067 22.4932C19.4667 22.5066 19.4934 22.4932 19.44 22.5199C19.3867 22.5466 19.2934 22.5599 19.24 22.5866L19.16 22.6666C19.16 22.6666 19.1334 22.6799 19.1067 22.7066L19.08 22.7332C19.08 22.7332 19.04 22.7466 18.92 22.7332C18.8134 22.7199 18.7467 22.7332 18.7467 22.7332C18.7467 22.7332 18.6667 22.7599 18.6267 22.7866C18.5867 22.7999 18.5067 22.8532 18.5067 22.8532L18.3734 22.9066C18.3734 22.9066 18.3067 22.9332 18.2934 22.9599V23.0399C18.3067 23.0532 18.3467 23.1066 18.3067 23.1599ZM15.3467 20.5732C15.28 20.3332 15.1334 20.0399 15.12 19.7999C15.12 19.5599 15.2 19.2666 15.1334 18.9466C15.08 18.6266 15.1067 18.5332 15.1467 18.3999C15.1867 18.2932 15.1867 18.2799 15.16 18.2132H15.4934C15.5348 19.2861 15.9607 20.3084 16.6934 21.0932L15.7334 22.0532C15.6934 21.9999 15.6534 21.9466 15.6134 21.8799C15.5334 21.7199 15.3734 21.3866 15.3334 21.2799C15.2862 21.1551 15.2282 21.0347 15.16 20.9199C15.1334 20.8799 15.4134 20.8132 15.3467 20.5732ZM16.8 16.3199C16.8134 16.3466 16.8134 16.2932 16.8134 16.3466C16.8134 16.4132 16.8267 16.3866 16.8134 16.4399L16.8 16.4932L16.7734 16.5466C16.76 16.5732 16.76 16.5732 16.76 16.5999C16.76 16.6266 16.7334 16.6666 16.7334 16.6666L16.68 16.7332V16.7999C16.68 16.7999 16.6667 16.8666 16.6667 16.9066C16.6667 16.9466 16.64 16.9999 16.64 16.9999C16.64 16.9999 16.6267 16.9732 16.6134 17.0266C16.6 17.0799 16.6 17.0932 16.5867 17.1332C16.5734 17.1732 16.6267 17.1199 16.5734 17.1732C16.52 17.2266 16.4667 17.2266 16.4667 17.2266C16.4667 17.2266 16.36 17.2399 16.3334 17.2532C16.3127 17.2656 16.2902 17.2746 16.2667 17.2799C16.2667 17.2799 16.2 17.2799 16.2 17.3066V17.4132L16.2934 17.4532H16.3734C16.4267 17.4532 16.4667 17.4266 16.4667 17.4266C16.4667 17.4266 16.5067 17.3999 16.56 17.4132C16.6134 17.4266 16.5734 17.3999 16.6134 17.4266C16.64 17.4532 16.6534 17.4399 16.6667 17.4932C16.6667 17.5466 16.6934 17.6266 16.6934 17.6266C16.6934 17.6266 16.76 17.7332 16.88 17.7599C16.9867 17.7866 16.9334 17.7866 16.9867 17.8399L17 17.8532H15.92C15.92 17.8266 15.92 17.8132 15.9334 17.7866C15.96 17.6666 16.0934 17.4799 16.12 17.3999C16.1467 17.3199 16.16 17.2399 16.16 17.2399V17.1066C16.16 17.0666 16.1467 17.0132 16.1467 17.0132H16.0934V17.1332L16.0534 17.2799L16.0267 17.3332H15.9867C15.9867 17.3332 16.0134 17.0132 16.0667 16.9332C16.12 16.8532 16.2267 16.7599 16.2267 16.7332C16.2267 16.7199 16.2934 16.6399 16.2934 16.6399C16.2934 16.6399 16.2534 16.6132 16.2534 16.5199V16.3732C16.2534 16.3732 16.28 16.3332 16.28 16.2932C16.2934 16.2666 16.2934 16.2532 16.3067 16.2266C16.3176 16.2071 16.331 16.1891 16.3467 16.1732V16.1199C16.36 16.0932 16.3867 16.0532 16.4 16.0266C16.4134 16.0266 16.4267 16.0132 16.4534 16.0132L16.4934 15.9866C16.4934 15.9866 16.56 15.9466 16.5867 15.9866C16.6134 16.0266 16.6267 16.0532 16.6267 16.0532L16.72 16.1199C16.72 16.1199 16.6534 16.0932 16.72 16.1332C16.7867 16.1732 16.84 16.2399 16.84 16.2399C16.84 16.2399 16.7867 16.2932 16.8 16.3199ZM17.0534 15.3466L17.16 15.4532C17.1067 15.4799 17.0267 15.4932 17.0267 15.4932C17.0267 15.4932 16.9867 15.5599 16.9067 15.4932C16.88 15.4666 16.84 15.4399 16.8134 15.3999C16.8534 15.3466 16.8934 15.3066 16.9334 15.2532C16.96 15.2799 16.9867 15.3199 16.9867 15.3199L17.0667 15.4132C17.0667 15.3866 17.0534 15.3732 17.0534 15.3466ZM15.92 16.1466C15.9067 16.1732 15.88 16.1866 15.8534 16.1999C15.7734 16.2532 15.7467 16.2932 15.6934 16.3866C15.6534 16.4799 15.56 16.5732 15.5467 16.5866C15.5467 16.5999 15.5467 16.5866 15.48 16.6266L15.32 16.7066C15.32 16.7066 15.1467 16.8399 15.12 16.9332C15.0934 17.0266 15.0134 17.0666 15.0134 17.1066C15.0134 17.1332 15 17.1999 15 17.1999C15 17.1999 15.0534 17.3199 15.0534 17.3466C15.0534 17.3599 15 17.4532 15 17.4532C15 17.4532 14.9467 17.4132 14.9067 17.3999C14.8667 17.3866 14.8134 17.3999 14.8134 17.3999C14.8134 17.3999 14.7867 17.4132 14.76 17.4132H14.7067C14.7067 17.4132 14.68 17.3732 14.68 17.3066C14.68 17.2399 14.6534 17.1866 14.6534 17.1866C14.6534 17.1866 14.64 17.0666 14.6267 17.0399C14.6134 17.0132 14.5734 16.9599 14.5467 16.9466C14.5334 16.9332 14.4934 16.8666 14.4534 16.8399C14.4134 16.8132 14.3067 16.7732 14.28 16.7732C14.2534 16.7732 14.2 16.7866 14.1867 16.7866C14.4267 15.7199 14.9467 14.7466 15.6667 13.9866L16.68 14.9999C16.374 15.3445 16.1182 15.7305 15.92 16.1466ZM13.76 17.2799C13.7467 17.3066 13.48 17.4399 13.4667 17.8532V17.8666H12.2267C12.2667 15.8532 13.08 14.0266 14.3867 12.6666L15.44 13.7199C14.5334 14.6799 13.92 15.9199 13.76 17.2799ZM13.44 18.2266C13.4267 18.3066 13.3867 18.3066 13.2667 18.3066C13.0534 18.2932 12.9867 18.2532 12.9867 18.2532C12.9867 18.2532 12.84 18.2932 12.84 18.2532C12.84 18.2532 12.84 18.2399 12.8267 18.2266H13.44ZM13.0267 21.3999C13.2667 21.5866 13.56 21.8932 13.6934 21.9199C13.8267 21.9466 13.9334 21.8532 14.04 21.9999C14.04 21.9999 14.7734 22.8666 14.96 22.7732C15 22.7466 15.0534 22.7332 15.0934 22.7066L14.3734 23.4266C13.7804 22.8036 13.2939 22.0874 12.9334 21.3066L13.0267 21.3999ZM15.08 17.6266C14.96 17.5466 15.0667 17.5999 15.1467 17.4799C15.2267 17.3599 15.1467 17.2799 15.1467 17.2799C15.1467 17.2799 15.1734 17.1066 15.2667 17.0266C15.36 16.9466 15.4 16.9599 15.4667 16.9999C15.52 17.0266 15.56 17.0399 15.6 17.0532C15.5334 17.3199 15.5067 17.5999 15.4934 17.8799H15.12C15.1334 17.7732 15.1467 17.6666 15.08 17.6266ZM15.8534 18.2266H17.2667C17.2808 18.2706 17.3035 18.3114 17.3334 18.3466C17.3734 18.3732 17.44 18.3866 17.44 18.3866C17.44 18.3866 17.5067 18.3732 17.5334 18.3332L17.5867 18.2532C17.5867 18.2532 17.5734 18.2532 17.5734 18.2266H17.6534C17.6922 18.7275 17.8882 19.2035 18.2134 19.5866L16.9467 20.8532C16.2888 20.1309 15.9023 19.2024 15.8534 18.2266ZM17.6 15.3866C17.64 15.3866 17.7334 15.3866 17.7334 15.3999C17.7458 15.4205 17.7548 15.4431 17.76 15.4666C17.76 15.4666 17.7334 15.4799 17.6934 15.4799C17.6934 15.4932 17.6 15.3866 17.6 15.3866ZM16.9467 14.7466L15.9334 13.7332C16.9897 12.7283 18.3825 12.1531 19.84 12.1199V13.5599C18.72 13.5866 17.7067 14.0399 16.9467 14.7466ZM15.68 13.4799L14.6267 12.4266C15.9867 11.1199 17.8134 10.3066 19.8267 10.2666V11.7599C18.2267 11.7999 16.7734 12.4532 15.68 13.4799ZM12.9867 11.2799L14.1334 12.4266C12.7709 13.8417 11.9699 15.7042 11.88 17.6666L11.84 17.6266C11.808 17.5873 11.7769 17.5473 11.7467 17.5066L11.6534 17.5332C11.6534 17.5332 11.6134 17.5732 11.6267 17.6266C11.6267 17.6666 11.6267 17.6399 11.6534 17.6932C11.68 17.7466 11.72 17.7999 11.72 17.7999C11.72 17.7999 11.72 17.8532 11.7067 17.8532C11.6934 17.8532 11.6534 17.8132 11.6534 17.8132L11.6 17.7466C11.6 17.7466 11.5867 17.7466 11.56 17.7599C11.5467 17.7732 11.5067 17.7599 11.5067 17.7599C11.5067 17.7599 11.5067 17.6266 11.4934 17.5999C11.4934 17.5732 11.44 17.5199 11.44 17.5199C11.44 17.5199 11.4267 17.4132 11.4134 17.4132H11.3467L11.28 17.3066H11.2C11.2 17.3066 11.0934 17.3466 11.08 17.3866C11.0667 17.4266 11.0134 17.4666 11.0134 17.4666C11.0134 17.4666 10.9067 17.4799 10.8934 17.4932C10.88 17.5066 10.7867 17.5599 10.7867 17.5599C10.7867 17.5599 10.76 17.5999 10.72 17.6666C10.6934 17.7066 10.6934 17.7732 10.68 17.8666H10.2534C10.2934 15.3199 11.3334 12.9999 12.9867 11.2799ZM10.2534 18.2266H10.6267C10.5734 18.4666 10.56 18.5332 10.56 18.5999C10.56 18.6799 10.5734 19.4799 10.72 19.5066C10.84 19.5332 10.6534 18.9866 10.8134 18.8266C10.9734 18.6666 11 18.5599 11 18.5599C11 18.5599 11.0667 18.8266 11.1734 18.9999C11.2667 19.1732 11.3067 19.3866 11.3867 19.3732C11.4667 19.3599 11.4267 18.9732 11.4534 18.9732C11.48 18.9732 11.5734 19.3466 11.72 19.5199C11.88 19.6932 11.8667 19.8666 11.88 19.4132C11.8934 18.9599 11.9467 19.8532 12.0134 19.9199C12.0534 19.9466 12.08 19.9466 12.1067 19.9466C12.44 21.3732 13.16 22.6532 14.1467 23.6799L13 24.8266C11.3334 23.0932 10.2934 20.7732 10.2534 18.2266ZM19.8267 27.7999C17.2667 27.7599 14.9467 26.7199 13.2267 25.0666L14.3734 23.9199C15.8 25.2799 17.7067 26.1332 19.8267 26.1732V27.7999ZM19.8267 25.8266C17.8134 25.7866 15.9867 24.9732 14.6267 23.6666L15.56 22.7332C15.5734 22.7466 15.6 22.7599 15.6134 22.7732C15.76 22.8666 15.88 22.9332 16.0267 22.9332C17.097 23.8117 18.4292 24.3089 19.8134 24.3466L19.8267 25.8266ZM19.8267 20.7199C19.8134 20.7199 19.7867 20.7332 19.7734 20.7332C19.7467 20.7466 19.72 20.7732 19.72 20.7866C19.72 20.7999 19.6667 20.8266 19.72 20.8666C19.7734 20.9066 19.7734 20.8932 19.8 20.9466C19.8134 20.9732 19.8134 20.9732 19.8267 20.9866V21.1999C19.8056 21.2242 19.7877 21.2511 19.7734 21.2799C19.7734 21.2799 19.72 21.3866 19.7334 21.3866C19.7467 21.3866 19.7734 21.3999 19.8 21.4132H19.8267V21.5066C19.8 21.5066 19.7467 21.5199 19.7734 21.5599L19.8267 21.6132V21.9066H19.6934C19.6934 21.9066 19.4667 21.9199 19.44 21.9066C19.4267 21.8932 19.4 21.9066 19.4 21.9066C19.4 21.9066 19.3467 21.9332 19.3467 21.9866C19.3467 22.0132 19.3467 22.0799 19.36 22.1332C18.52 22.0132 17.7734 21.6266 17.1734 21.0799L18.44 19.8132C18.8267 20.1466 19.2934 20.3466 19.8 20.3732L19.8267 20.7199ZM18.0134 18.2932L18 18.2132L18.08 18.2666C18.08 18.2666 18.1067 18.2666 18.12 18.2399C18.1467 18.2132 18.1334 18.2132 18.1334 18.2132C18.1334 18.2132 18.1734 18.1999 18.1867 18.1866C18.2 18.1732 18.2 18.1332 18.2 18.1199C18.2134 18.1066 18.2267 18.0132 18.2267 17.9866C18.2267 17.9599 18.2534 17.9466 18.2667 17.9332C18.2934 17.9199 18.2934 17.9066 18.2934 17.8799C18.2934 17.8666 18.32 17.8399 18.32 17.8132C18.32 17.7866 18.32 17.7866 18.3067 17.7732C18.2934 17.7599 18.2667 17.7599 18.2667 17.7599H18.1334L18.0534 17.7866H18.0134C18.0267 17.6799 18.0534 17.5599 18.08 17.4532C18.0906 17.4411 18.0995 17.4276 18.1067 17.4132C18.12 17.4132 18.1734 17.3732 18.1734 17.3732C18.1734 17.3732 18.2134 17.3732 18.24 17.3599H18.3334L18.3734 17.4132C18.4134 17.4666 18.44 17.5332 18.44 17.5332C18.44 17.5332 18.4534 17.5866 18.44 17.5999C18.4267 17.6132 18.4267 17.5866 18.3867 17.6266C18.3467 17.6666 18.3334 17.6132 18.3467 17.6666C18.36 17.7199 18.3867 17.7332 18.3867 17.7332L18.5067 17.7066C18.5067 17.7066 18.5067 17.6932 18.52 17.6799C18.5067 17.6666 18.52 17.6399 18.52 17.6266C18.52 17.6132 18.6 17.6266 18.6 17.6266H18.8267V17.7332L18.7467 17.7599C18.7467 17.7599 18.7067 17.7599 18.6267 17.7199C18.56 17.6799 18.5734 17.7199 18.52 17.7199C18.52 17.7199 18.5334 17.7332 18.5334 17.7466C18.56 17.8132 18.5334 17.7732 18.56 17.8132L18.5867 17.8532C18.5867 17.8532 18.56 17.9066 18.5467 17.9199C18.5155 17.9234 18.4843 17.9278 18.4534 17.9332C18.4534 17.9332 18.4667 17.8532 18.4134 17.8532C18.36 17.8532 18.3334 17.8666 18.3334 17.8666L18.28 17.9732L18.2667 18.0132C18.2667 18.0132 18.2267 18.0399 18.24 18.0666C18.2534 18.0932 18.3067 18.0932 18.3067 18.0932C18.3067 18.0932 18.3467 18.1066 18.3734 18.1199C18.3867 18.1332 18.32 18.1332 18.3867 18.1332H18.4667C18.4667 18.1332 18.52 18.0399 18.6 18.0266C18.68 18.0132 18.72 17.9599 18.7334 17.9466L18.8534 17.8266L18.9334 17.8399V17.9332C18.9334 17.9332 18.8667 17.9599 18.84 18.0132C18.8134 18.0532 18.6934 18.1866 18.6534 18.2132C18.6134 18.2399 18.56 18.2399 18.5334 18.2532C18.52 18.2666 18.3734 18.2799 18.36 18.3066C18.3467 18.3199 18.2134 18.4399 18.2134 18.4799C18.2134 18.5199 18.1067 18.6532 18.16 18.6799C18.2 18.7066 18.2134 18.6799 18.3067 18.6399C18.3867 18.6132 18.52 18.6532 18.56 18.6799C18.6 18.6932 18.68 18.7332 18.7067 18.7199C18.7334 18.7066 18.8134 18.5866 18.8267 18.5466C18.84 18.5199 18.8934 18.4399 18.96 18.3999C19.0267 18.3599 19.0667 18.3332 19.08 18.2532C19.0906 18.1957 19.0995 18.1379 19.1067 18.0799V17.9599L19.1334 17.8266V17.7466H19.0267L18.96 17.7332L19 17.6932C19 17.6932 19.0267 17.6532 19.04 17.6266L19.0667 17.5732C19.087 17.557 19.1095 17.5435 19.1334 17.5332C19.16 17.5199 19.16 17.5199 19.2 17.4932C19.2267 17.4666 19.2 17.4532 19.16 17.4132C19.12 17.3732 19.16 17.4132 19.1467 17.4132C19.1334 17.4132 19.0667 17.4399 19.0667 17.4399L19.0267 17.5066V17.5599L18.9867 17.6266L18.96 17.6532C18.9334 17.6799 18.9067 17.6666 18.9067 17.6666L18.92 17.6266L18.9067 17.5466H18.7734C18.7734 17.5466 18.7334 17.5332 18.7067 17.5199C18.68 17.5066 18.6934 17.4932 18.6934 17.4666C18.6934 17.4399 18.72 17.4266 18.72 17.4266C18.72 17.4266 18.7867 17.4666 18.8134 17.4799C18.8267 17.4799 18.84 17.4932 18.84 17.4932C18.84 17.4932 18.8667 17.4932 18.9067 17.4666C18.9467 17.4399 18.92 17.4132 18.92 17.4132H18.9734C18.9873 17.4109 19.0008 17.4064 19.0134 17.3999L19.08 17.3866L19.0934 17.3466C19.1067 17.3066 19.0934 17.3466 19.0934 17.3332C19.0934 17.3199 19.0934 17.2932 19.0534 17.2532L19 17.2799L18.96 17.3066L18.7334 17.3732C18.7467 17.3466 18.7734 17.3066 18.7734 17.3066C18.7734 17.3066 18.7867 17.3199 18.8267 17.3332C18.84 17.3332 18.8534 17.3199 18.8667 17.3066C18.88 17.2932 18.88 17.2666 18.88 17.2666C18.88 17.2666 18.8534 17.2799 18.9067 17.2266C18.96 17.1732 19.0267 17.1199 19.0534 17.0932C19.0667 17.0799 19.08 17.0799 19.1334 17.0399C19.1734 16.9999 19.2134 17.0399 19.2534 17.0132C19.28 16.9732 19.2934 16.9599 19.3334 16.9599C19.3734 16.9599 19.3867 16.9599 19.4267 16.9332C19.4667 16.9066 19.48 16.8932 19.5067 16.8799C19.52 16.8799 19.5734 16.8132 19.5734 16.8132C19.5734 16.8132 19.6267 16.7732 19.6267 16.7466C19.6267 16.7332 19.6134 16.7066 19.6267 16.6932L19.64 16.6799C19.64 16.6799 19.6534 16.6266 19.68 16.5599L19.6934 16.5066V16.4666L19.72 16.4399C19.72 16.4399 19.7467 16.4266 19.76 16.4132C19.7734 16.3999 19.76 16.3466 19.76 16.3466V16.3199L19.72 16.2266C19.72 16.2266 19.68 16.2532 19.76 16.1866C19.84 16.1199 19.8134 16.1599 19.84 16.1199C19.84 16.1066 19.8534 16.1066 19.84 16.0932H19.96C19.96 16.1466 19.9867 16.2132 19.96 16.2266C19.9334 16.2532 19.9334 16.3199 19.9334 16.3332V16.4666C19.9334 16.4932 19.92 16.5466 19.9334 16.5999C19.9467 16.6532 19.9867 16.6532 19.9867 16.6799C19.9867 16.7066 20.04 16.7732 20.04 16.7732L20.12 16.8132H20.2134L20.24 16.7599L20.36 16.7332L20.4667 16.8132C20.4667 16.8132 20.4534 16.8932 20.4667 16.9199C20.48 16.9332 20.4667 16.9866 20.4667 16.9866H20.5867L20.6667 17.0132C20.6667 17.0132 20.64 17.1999 20.6667 17.2532C20.6868 17.2894 20.714 17.3212 20.7467 17.3466C20.7467 17.3466 20.76 17.3599 20.7867 17.3466C20.8134 17.3332 20.88 17.3066 20.88 17.3066L20.96 17.2666C20.96 17.2666 20.9467 17.2799 20.96 17.3199C20.9734 17.3599 21.0534 17.3599 21.0534 17.3599C21.0534 17.3599 21.12 17.3199 21.0934 17.3599C21.0883 17.3807 21.0785 17.4 21.0646 17.4162C21.0507 17.4324 21.0331 17.4451 21.0134 17.4532C20.96 17.4799 20.92 17.4932 20.92 17.4932C20.92 17.4932 20.88 17.4932 20.8667 17.5332C20.8534 17.5732 20.8667 17.6932 20.8667 17.6932H21.0134V17.8932H20.9467C20.9467 17.8932 20.8667 17.8532 20.8534 17.8932C20.84 17.9332 20.76 17.9466 20.76 17.9466C20.76 17.9466 20.6534 18.0266 20.6267 18.0399C20.6134 18.0532 20.56 18.0932 20.56 18.0932C20.56 18.0932 20.4934 18.1866 20.4667 18.1999C20.4534 18.1999 20.4 18.2399 20.4 18.2399L20.4534 18.2932C20.4534 18.2932 20.56 18.2132 20.5734 18.2132C20.5867 18.2132 20.64 18.1999 20.64 18.1999L20.6934 18.2266C20.6934 18.2266 20.7067 18.2932 20.7467 18.2799C20.7734 18.2799 20.9067 18.2399 20.9067 18.2799C20.9067 18.3199 21 18.3332 21.0134 18.3599C21.0267 18.3866 21.0534 18.3732 21.1067 18.3999C21.16 18.4266 21.2934 18.3999 21.2934 18.3999L21.36 18.4132L21.2667 18.5066C21.24 18.5466 21.1867 18.5999 21.2 18.6266C21.2 18.6532 21.3467 18.6932 21.36 18.7199C21.3734 18.7466 21.3734 18.7466 21.4534 18.7866L21.5334 18.8266C21.5334 18.8266 21.5734 18.8399 21.6 18.8532C21.6134 18.8666 21.6267 18.8666 21.64 18.8666L21.4667 18.9866C21.4667 18.9866 21.4267 19.0132 21.36 19.0532L21.2934 19.0932L21.16 19.0532C21.16 19.0532 21.0934 19.0799 21.1067 19.0932C21.16 19.1199 21.2 19.1599 21.2534 19.1866L21.3867 19.2799C21.3867 19.2799 21.3867 19.3199 21.4 19.3466C21.4 19.3599 21.4667 19.4266 21.4667 19.4266V19.4399L21.3067 19.5999C21.28 19.5866 21.2667 19.5599 21.2267 19.5599C21.1734 19.5466 21.2267 19.5199 21.2534 19.5199C21.2667 19.5199 21.3334 19.4799 21.3334 19.4799V19.3466C21.3334 19.3466 21.2934 19.3199 21.2667 19.3066L21.1867 19.2266L21.04 19.1866C21.04 19.1866 20.9334 19.1866 20.88 19.1732C20.8267 19.1732 20.7734 19.1599 20.7734 19.1599L20.6667 19.1732L20.6267 19.1999L20.5867 19.3332C20.5867 19.3332 20.56 19.4799 20.56 19.5332V19.8132L20.5867 19.8666H20.64C20.64 19.8666 20.7467 19.8799 20.76 19.8666C20.7927 19.8435 20.8286 19.8255 20.8667 19.8132C20.9067 19.7999 20.9334 19.7866 20.9334 19.7866C20.9334 19.7866 20.96 19.7866 20.9867 19.7999C20.9067 19.8532 20.8134 19.8932 20.7334 19.9332C20.72 19.9199 20.6934 19.9199 20.68 19.9199C20.64 19.9199 20.56 19.9866 20.56 19.9866H20.5467V19.9999C20.3647 20.0526 20.1762 20.0795 19.9867 20.0799C18.9734 20.0532 18.1334 19.2932 18.0134 18.2932ZM20.1734 27.7999V26.1732C21.0934 26.1599 21.96 25.9866 22.7867 25.6932L22.8667 25.7332C23.0267 25.8399 23.1067 25.8799 23.2 25.8932C23.2934 25.9066 23.44 25.7466 23.6267 25.6932C23.8267 25.6399 23.9734 25.5866 24.1467 25.4132C24.3334 25.2399 24.6134 25.1332 24.7467 24.8932C24.88 24.6666 24.9467 24.5466 24.9467 24.5066C24.9467 24.5066 24.96 24.4799 24.96 24.4666C25.1871 24.291 25.4052 24.1041 25.6134 23.9066L26.76 25.0532C25.0534 26.7199 22.7334 27.7466 20.1734 27.7999ZM27.0134 24.8132L25.8667 23.6666C27.2267 22.2399 28.08 20.3332 28.12 18.2132H29.7467C29.712 20.6816 28.734 23.0431 27.0134 24.8132Z" fill="white"/>
</g>
</g>
</g>
<defs>
<clipPath id="clip0_16699_261654">
<rect width="40" height="40" rx="20" fill="white"/>
</clipPath>
</defs>
</svg>
