<svg width="40" height="40" viewBox="0 0 40 40" fill="none" xmlns="http://www.w3.org/2000/svg">
<g clip-path="url(#clip0_16699_261807)">
<mask id="mask0_16699_261807" style="mask-type:luminance" maskUnits="userSpaceOnUse" x="0" y="0" width="40" height="40">
<path d="M40 0H0V40H40V0Z" fill="white"/>
</mask>
<g mask="url(#mask0_16699_261807)">
<mask id="mask1_16699_261807" style="mask-type:luminance" maskUnits="userSpaceOnUse" x="0" y="0" width="40" height="40">
<path d="M40 20C40 8.95433 31.0457 0 20 0C8.95433 0 0 8.95433 0 20C0 31.0457 8.95433 40 20 40C31.0457 40 40 31.0457 40 20Z" fill="white"/>
</mask>
<g mask="url(#mask1_16699_261807)">
<path d="M60.0176 0H0V40H60.0176V0Z" fill="#00732F"/>
<path d="M60.0182 13.3333H0V40H60.0182V13.3333Z" fill="white"/>
<path d="M60.018 26.6667H0V40H60.018V26.6667Z" fill="black"/>
<path d="M20 0H0V40H20V0Z" fill="#FF0000"/>
</g>
</g>
</g>
<defs>
<clipPath id="clip0_16699_261807">
<rect width="40" height="40" fill="white"/>
</clipPath>
</defs>
</svg>
