<svg width="40" height="40" viewBox="0 0 40 40" fill="none" xmlns="http://www.w3.org/2000/svg">
<g clip-path="url(#clip0_16699_261833)">
<mask id="mask0_16699_261833" style="mask-type:luminance" maskUnits="userSpaceOnUse" x="0" y="0" width="40" height="40">
<path d="M40 0H0V40H40V0Z" fill="white"/>
</mask>
<g mask="url(#mask0_16699_261833)">
<mask id="mask1_16699_261833" style="mask-type:luminance" maskUnits="userSpaceOnUse" x="0" y="0" width="40" height="40">
<path d="M40 20C40 8.95433 31.0457 0 20 0C8.95433 0 0 8.95433 0 20C0 31.0457 8.95433 40 20 40C31.0457 40 40 31.0457 40 20Z" fill="white"/>
</mask>
<g mask="url(#mask1_16699_261833)">
<path d="M-10 0H50V40H-10V0Z" fill="white"/>
<path d="M30.2313 24.7665C30.973 24.4622 31.7122 24.1534 32.4541 23.8496C32.4149 23.962 32.3636 24.0904 32.2318 24.1471C31.5479 24.4268 30.8653 24.7087 30.1816 24.9882C30.1365 25.0075 30.0918 25.0285 30.0426 25.0386C30.0877 24.9617 30.1302 24.8839 30.1736 24.8065C30.1829 24.7849 30.2089 24.7762 30.2313 24.7665ZM27.9216 23.7083C28.0814 23.812 28.2265 23.9305 28.3283 24.0581C28.5168 24.3042 28.5654 24.6233 28.4485 24.9001C28.4383 24.9229 28.4169 24.9398 28.3986 24.958C28.4348 24.8047 28.4455 24.6425 28.3888 24.4919C28.311 24.2732 28.1349 24.0896 27.8998 23.9822C27.9038 23.8865 27.9158 23.79 27.9216 23.7083ZM21.8025 23.5752C21.9019 23.5039 22.0399 23.497 22.1643 23.4971C22.2892 23.5045 22.4213 23.5092 22.5315 23.5658C22.5836 23.6171 22.5341 23.6779 22.4807 23.7102C22.2641 23.8427 22.0255 23.9577 21.8498 24.1318C21.8021 24.1767 21.8269 24.2467 21.8871 24.2731C21.9782 24.3117 22.0837 24.3136 22.1839 24.3114C22.4217 24.3005 22.6501 24.2242 22.8491 24.1155C22.9045 24.0855 22.9542 24.0483 23.0115 24.0205C22.8888 24.1466 22.751 24.2624 22.5989 24.363C22.4706 24.4446 22.3261 24.5154 22.1657 24.5367C22.0395 24.5458 21.9037 24.5406 21.7947 24.4801C21.6733 24.4192 21.6164 24.2828 21.6613 24.1701C21.6884 24.1068 21.7387 24.0533 21.7915 24.0039C21.9279 23.8814 22.0946 23.7877 22.2609 23.6974C22.1482 23.6928 22.034 23.6876 21.922 23.6992C21.8488 23.7055 21.7997 23.752 21.7478 23.7898C21.7321 23.7163 21.7317 23.6292 21.8025 23.5752ZM17.3393 23.3908C17.4382 23.3497 17.5745 23.3557 17.6525 23.4271C17.7178 23.4926 17.7248 23.5827 17.72 23.6646C17.6677 23.7237 17.6074 23.778 17.5636 23.8424C17.472 23.8568 17.3757 23.8441 17.2861 23.867C17.241 23.8892 17.1821 23.9027 17.1604 23.9475C17.1321 24.0053 17.1453 24.0695 17.1573 24.1294C17.2038 24.3384 17.29 24.5437 17.2855 24.759C17.2805 24.8345 17.2746 24.9128 17.2325 24.9811C17.2227 24.8614 17.173 24.7483 17.137 24.6332C17.069 24.4234 17.015 24.2082 17.007 23.9901C16.9982 23.9061 17.0551 23.8339 17.1126 23.7706C17.1974 23.6701 17.3495 23.6406 17.4845 23.6189C17.4494 23.5914 17.4097 23.5598 17.3578 23.5659C17.2851 23.5748 17.236 23.6264 17.1961 23.6738C17.1889 23.5691 17.2227 23.4453 17.3393 23.3908ZM23.8118 23.3502C23.8182 23.3446 23.8267 23.3424 23.8373 23.3438C23.7988 23.3811 23.7777 23.4281 23.7482 23.4704C23.6641 23.6051 23.5669 23.7481 23.5893 23.9066C23.5917 23.9811 23.641 24.0772 23.7436 24.0766C23.7936 24.0555 23.8066 24.0013 23.8317 23.9623C23.8286 24.0783 23.8084 24.2193 23.6798 24.2857C23.573 24.2712 23.4928 24.1908 23.4886 24.1001C23.4668 23.8258 23.6022 23.5553 23.8118 23.3502ZM4.65374 21.8048C4.71491 21.7124 4.77238 21.6117 4.87938 21.5506C4.74948 21.7729 4.61439 21.9981 4.55766 22.2436C4.5388 22.3374 4.52938 22.4458 4.60089 22.5265C4.65651 22.5771 4.74577 22.5864 4.82191 22.5707C4.9374 22.5491 4.99118 22.4466 5.03885 22.3653C5.07544 22.4259 5.03755 22.4914 5.02074 22.5519C4.97288 22.6799 4.91578 22.8185 4.78366 22.9017C4.68221 22.9675 4.53678 22.9412 4.43921 22.8832C4.31059 22.798 4.30764 22.6434 4.33018 22.5182C4.38099 22.2649 4.51238 22.0298 4.65374 21.8048ZM14.0701 20.8132C14.1078 20.7525 14.1817 20.6804 14.2724 20.7108C14.3815 20.7387 14.5112 20.812 14.4938 20.9219C14.4646 20.9594 14.4271 20.9915 14.394 21.0264C14.3587 20.9697 14.3192 20.8972 14.2364 20.8851C14.1287 20.9151 14.0642 21.0067 14.0302 21.0939C13.9587 21.2846 13.9428 21.4859 13.9228 21.684C13.8968 21.6958 13.8707 21.7074 13.8441 21.718C13.8449 21.5357 13.7981 21.3421 13.6538 21.2008C13.6211 21.1539 13.5485 21.1774 13.4993 21.1549C13.4076 21.127 13.3744 21.0422 13.3522 20.9697C13.3411 20.9207 13.3213 20.8618 13.36 20.8181C13.4411 20.7983 13.5046 20.8586 13.5625 20.8967C13.7114 21.0167 13.8144 21.1712 13.8986 21.3284C13.9341 21.1528 13.9716 20.9727 14.0701 20.8132ZM29.564 20.332C29.6768 20.2991 29.7954 20.3423 29.8876 20.3975C30.0415 20.494 30.1616 20.6251 30.2544 20.7659C30.3039 20.8475 30.3605 20.937 30.3405 21.0319C30.3287 21.0958 30.3228 21.1644 30.2777 21.2189C30.2278 21.2713 30.1341 21.2659 30.0713 21.2348C29.9996 21.2003 29.9312 21.161 29.8562 21.1319C29.7547 21.3656 29.5409 21.5496 29.3092 21.6957C29.1523 21.7975 28.9803 21.8811 28.806 21.9593C28.6985 22.0085 28.5795 22.0348 28.4642 22.0668C28.349 22.0945 28.2319 22.131 28.1103 22.1208C28.187 22.117 28.2476 22.0749 28.3123 22.0448C28.6493 21.8786 28.9795 21.6999 29.2794 21.4879C29.4387 21.3711 29.6015 21.2494 29.7089 21.0936C29.6396 21.081 29.5701 21.07 29.5001 21.062C29.4437 20.923 29.4431 20.7531 29.5647 20.6381C29.5041 20.5986 29.4971 20.527 29.4869 20.4675C29.4783 20.4157 29.4988 20.3499 29.564 20.332ZM29.8663 20.6762C29.8892 20.7791 29.8961 20.884 29.8979 20.9887C29.9929 21.0003 30.0873 21.0322 30.1842 21.023C30.2335 21.0169 30.2317 20.9619 30.2043 20.9357C30.1143 20.8306 29.9894 20.7515 29.8663 20.6762ZM29.5446 20.8441C29.5932 20.9204 29.7034 20.9398 29.7933 20.9643C29.8118 20.9151 29.8357 20.8635 29.8266 20.8114C29.7941 20.7575 29.7499 20.687 29.6682 20.6873C29.5977 20.718 29.5697 20.785 29.5446 20.8441ZM23.3103 20.187C23.3663 20.1256 23.4611 20.0956 23.5505 20.0933C23.6126 20.0928 23.6427 20.1494 23.6569 20.1924C23.6839 20.2941 23.6887 20.4047 23.6303 20.4995C23.6606 20.5181 23.6911 20.5371 23.7222 20.5556C23.714 20.6206 23.7083 20.6861 23.7068 20.7515C23.6451 20.7235 23.5976 20.6789 23.5447 20.6413C23.3803 20.8817 23.1399 21.0902 22.8404 21.208C22.682 21.2757 22.5007 21.3053 22.3244 21.2867C22.6583 21.1855 22.9826 21.0395 23.2249 20.8154C23.3082 20.7387 23.3799 20.6538 23.4405 20.5629C23.3936 20.5205 23.3374 20.4841 23.3008 20.4345C23.2716 20.3551 23.2502 20.2601 23.3103 20.187ZM23.4019 20.2653C23.4261 20.3234 23.4725 20.3714 23.5207 20.4165C23.5411 20.3662 23.5677 20.3115 23.5379 20.2598C23.4923 20.2523 23.4465 20.2565 23.4019 20.2653ZM4.67312 20.8947C5.34318 20.538 6.01599 20.1846 6.68732 19.8298C6.6681 19.9537 6.61803 20.0971 6.47721 20.1591C5.85577 20.4857 5.23283 20.8105 4.61233 21.1382C4.59626 21.1454 4.57943 21.1513 4.56188 21.1559C4.60144 21.0696 4.63155 20.9801 4.67312 20.8947ZM18.701 19.0105C18.7525 18.9472 18.8107 18.8866 18.876 18.8327C18.8279 18.9251 18.8566 19.026 18.8789 19.1205C18.9042 19.2239 18.9384 19.3254 18.9767 19.426C19.0035 19.5018 19.106 19.5284 19.1881 19.5433C19.2372 19.5566 19.2975 19.5256 19.2784 19.478C19.2331 19.3552 19.1753 19.2359 19.1092 19.1203C19.1326 19.0428 19.1592 18.966 19.1818 18.8883C19.2128 18.8883 19.2442 18.8887 19.2758 18.889C19.303 19.0326 19.3837 19.1629 19.458 19.292C19.4582 19.4316 19.4484 19.5771 19.39 19.7095C19.351 19.8033 19.2206 19.8325 19.1153 19.825C18.9754 19.8021 18.8826 19.6998 18.8006 19.6099C18.7597 19.7278 18.6442 19.8193 18.5075 19.8563C18.3918 19.8923 18.2584 19.84 18.1963 19.7535C18.1283 19.6577 18.1154 19.5419 18.1185 19.4322C18.1246 19.2754 18.1605 19.0926 18.3264 18.9985C18.338 18.9985 18.3613 18.9986 18.373 18.9986C18.3656 19.0014 18.3504 19.0069 18.343 19.0097C18.2421 19.1662 18.2359 19.3628 18.3255 19.524C18.3515 19.5749 18.4175 19.6115 18.4842 19.5996C18.5674 19.5826 18.6332 19.5324 18.6899 19.4807C18.6919 19.3239 18.6912 19.167 18.701 19.0105ZM5.48093 18.683C5.63135 18.6554 5.76828 18.7351 5.87526 18.8152C6.01847 18.9338 6.13784 19.0751 6.21342 19.2328C6.23634 19.2804 6.24649 19.3324 6.238 19.3837C6.22709 19.4517 6.22081 19.5262 6.1698 19.5828C6.10993 19.6296 6.0155 19.6194 5.95194 19.5834C5.88874 19.548 5.82277 19.5162 5.75403 19.4893C5.65091 19.7206 5.44026 19.9036 5.21056 20.0496C5.03021 20.1652 4.8336 20.2624 4.63032 20.3459C4.48471 20.3927 4.33577 20.433 4.1846 20.4649C4.12437 20.4788 4.06172 20.4774 4 20.476C4.03622 20.4688 4.07484 20.4665 4.10791 20.4507C4.43869 20.2923 4.7613 20.1204 5.06197 19.9234C5.26505 19.7847 5.46666 19.6379 5.61077 19.4517C5.54074 19.4382 5.47033 19.4255 5.39881 19.4197C5.34246 19.2805 5.34079 19.111 5.45961 18.9941C5.40232 18.9517 5.39401 18.8818 5.38366 18.8219C5.37277 18.764 5.40774 18.6952 5.48093 18.683ZM5.76176 19.0296C5.78837 19.1335 5.79095 19.2402 5.79594 19.3459C5.8961 19.3555 5.99699 19.3957 6.09788 19.3748C6.14463 19.3525 6.11174 19.3016 6.08735 19.2756C5.99515 19.1796 5.87836 19.103 5.76176 19.0296ZM5.51581 19.0743C5.48291 19.1157 5.44466 19.1633 5.44984 19.2154C5.50805 19.2775 5.60635 19.3033 5.69524 19.317C5.70392 19.2872 5.71427 19.258 5.7211 19.2281C5.74549 19.1673 5.69006 19.1128 5.64571 19.0705C5.61264 19.0365 5.54444 19.0354 5.51581 19.0743ZM16.6734 18.5631C16.7715 18.6325 16.8312 18.7323 16.8975 18.8233C17.0674 19.0766 17.2121 19.3414 17.3521 19.6072C17.6594 20.1779 17.8616 20.7871 17.9729 21.4067C18.0043 21.5987 18.0364 21.7919 18.03 21.9864C18.0486 22.3726 18.1028 22.7673 18.2929 23.1228C18.4328 23.3642 18.6707 23.5785 18.8571 23.7351C18.9459 23.7871 18.9834 23.7749 19.0068 23.7536C19.0213 23.7405 19.0156 23.5711 19.0452 23.4915C19.0873 23.3609 19.1838 23.2497 19.2863 23.1483C19.4011 23.0418 19.531 22.944 19.6844 22.8797C19.9915 22.7476 20.3099 22.6353 20.6314 22.5313C20.8735 22.4551 21.1196 22.3876 21.3713 22.3386C20.2911 22.345 19.2108 22.3525 18.1305 22.363C18.1845 22.1406 18.2393 21.9183 18.295 21.6962C18.4095 21.5687 18.5537 21.4638 18.6959 21.3597C19.3154 20.9264 20.0305 20.6057 20.7547 20.3186C20.6699 20.2059 20.552 20.101 20.5333 19.9626C20.4895 19.7684 20.5847 19.5763 20.7044 19.4147C20.7754 19.3229 20.8417 19.2226 20.9509 19.1595C21.0605 19.0951 21.2088 19.0908 21.3286 19.1366C21.7302 19.2894 22.1445 19.5585 22.4507 19.8002C22.4814 19.8265 22.5207 19.8492 22.5399 19.8835C22.4679 20.0814 22.3917 20.2785 22.3219 20.4771C22.0026 20.5376 21.6816 20.5954 21.3704 20.6823C21.402 20.8495 21.4584 21.0318 21.3737 21.1938C21.3442 21.1903 21.3041 21.186 21.2991 21.1553C21.2871 21.0147 21.2072 20.8869 21.1252 20.7672C20.7281 20.8998 20.3319 21.0368 19.9575 21.2112C19.6558 21.3533 19.3498 21.5074 19.1262 21.7347C20.787 21.7352 22.4481 21.7352 24.1091 21.7347C24.0026 21.9331 23.8888 22.1287 23.7803 22.3262C22.6928 22.5509 21.6074 22.791 20.5525 23.1103C20.1097 23.2478 19.6673 23.3991 19.2746 23.6235C19.234 23.6498 19.2105 23.6983 19.2401 23.7378C19.3011 23.8172 19.4123 23.85 19.5056 23.8953C19.7085 23.9905 19.9334 24.0424 20.1544 24.098C20.3128 24.1376 20.4711 24.1771 20.6293 24.2172C20.6162 24.4548 20.614 24.6931 20.5969 24.9304C20.4674 24.9304 20.3353 24.911 20.205 24.9013C19.9498 24.8756 19.6907 24.8584 19.4446 24.792C19.1094 24.702 18.8074 24.5313 18.5709 24.3116C18.3113 24.0748 18.1235 23.7873 17.989 23.4861C17.8053 23.0686 17.7029 22.5572 17.6675 22.1137C17.6512 22.1119 17.6473 22.2001 17.6316 22.1987C17.5856 22.3942 17.5314 22.5678 17.4544 22.7564C17.4398 22.8012 17.401 22.8353 17.3668 22.8701C17.1196 23.1136 16.8559 23.345 16.5802 23.565C16.298 23.7879 16.0038 24.0013 15.686 24.1871C15.3517 24.3815 14.9901 24.5563 14.5902 24.6298C14.3753 24.6676 14.131 24.6748 13.9427 24.5645C13.7324 24.4426 13.6298 24.2308 13.5744 24.0278C13.3828 24.1511 13.1897 24.2726 12.9923 24.3893C12.8142 24.4907 12.6368 24.5978 12.4328 24.6589C11.9227 24.8195 11.392 24.9248 10.8641 25.0334C10.4854 25.106 10.1066 25.1789 9.72542 25.2411C10.0785 25.0711 10.4372 24.9088 10.7889 24.7365C11.7429 24.2738 12.6827 23.7875 13.5799 23.2486C13.7022 22.7518 13.8997 22.2521 14.2824 21.8534C14.2872 21.8523 14.297 21.85 14.3018 21.8489C14.2713 21.9039 14.2567 21.9642 14.2253 22.0189C13.9947 22.3613 13.8308 22.7398 13.7728 23.1319C14.1811 22.8801 14.5797 22.6162 14.9548 22.3292C15.1866 22.1531 15.4042 21.9638 15.6031 21.7608C15.6578 21.7033 15.7321 21.654 15.7528 21.5785C15.7618 21.5294 15.7567 21.4991 15.7238 21.3972C15.4919 20.8538 15.1627 20.1758 14.9441 19.6981C15.019 19.4567 15.0883 19.214 15.1639 18.9728C15.2646 19.029 15.3302 19.1173 15.4019 19.1972C15.5482 19.3794 15.6859 19.5668 15.8095 19.7609C15.8786 19.8675 15.8917 19.9914 15.9171 20.1093C15.8178 20.0336 15.7487 19.931 15.6386 19.8663C15.6434 19.8835 15.65 19.9003 15.6587 19.9167C15.833 20.2083 15.9522 20.5224 16.0294 20.8422C16.0771 21.0323 16.0978 21.2271 16.0845 21.4214C16.0745 21.6319 16.0407 21.8476 15.9267 22.0376C15.8254 22.2064 15.6892 22.3575 15.5469 22.5026C15.0646 22.9824 14.4993 23.396 13.9252 23.7942C13.926 23.8174 13.957 23.8236 13.9755 23.8363C14.181 23.9451 14.4381 23.9341 14.6675 23.9002C14.8405 23.8663 15.0186 23.8404 15.177 23.7687C15.5926 23.5843 15.9549 23.3272 16.3048 23.0653C16.7634 22.7114 17.1954 22.3331 17.6075 21.9406C17.4698 21.5264 17.3268 21.1136 17.1812 20.7014C17.1021 20.4862 17.0286 20.269 16.934 20.0584C16.7771 19.7805 16.6263 19.4993 16.4895 19.214C16.5448 18.9961 16.6144 18.7805 16.6734 18.5631ZM20.8533 19.684C20.803 19.7009 20.7609 19.7479 20.7819 19.795C20.7897 19.8307 20.8357 19.8431 20.8599 19.8696C20.9606 19.9687 21.056 20.072 21.1436 20.1799C21.3622 20.1126 21.5841 20.0541 21.8047 19.9922C21.6405 19.8593 21.4581 19.7327 21.2389 19.6725C21.1142 19.6367 20.9747 19.641 20.8533 19.684ZM25.6893 19.3976C26.3625 19.0442 27.032 18.6859 27.7061 18.3339C27.687 18.4438 27.6499 18.5641 27.5435 18.6364C26.8908 18.9815 26.2344 19.3219 25.5819 19.6677C25.6098 19.5756 25.6538 19.4877 25.6893 19.3976ZM22.2929 18.0654C22.3552 18.0349 22.4465 18.0371 22.4886 18.0928C22.5466 18.1671 22.5621 18.2642 22.5307 18.3494C22.4714 18.5185 22.3404 18.6621 22.1976 18.7871C22.0239 18.9309 21.816 19.0635 21.5702 19.0959C21.6114 19.0527 21.6717 19.0287 21.7247 18.9977C21.8769 18.9107 22.0235 18.8148 22.1514 18.7028C22.2184 18.6371 22.2911 18.5659 22.3031 18.4759C22.3077 18.4003 22.2269 18.3358 22.1445 18.3233C22.0244 18.3413 21.9496 18.4293 21.8612 18.4912C21.8402 18.4365 21.8965 18.3982 21.9298 18.3581C22.0357 18.249 22.1423 18.132 22.2929 18.0654ZM13.5249 17.6995C13.7307 17.5919 13.9325 17.4781 14.141 17.3741C14.1205 17.4852 14.0779 17.6138 13.9506 17.6691C13.4953 17.9053 13.045 18.1486 12.588 18.3824C12.639 18.2939 12.6893 18.2044 12.7454 18.1182C13.003 17.976 13.2655 17.8394 13.5249 17.6995ZM33.3543 17.0076C33.6544 17.1788 33.9018 17.4232 34.0358 17.7094C34.1677 17.9868 34.1666 18.3017 34.0603 18.5851C34.0459 18.6178 34.0151 18.6424 33.9892 18.6687C34.0354 18.4764 34.0513 18.2744 33.987 18.0836C33.8961 17.7813 33.6361 17.5302 33.3199 17.3783C33.3356 17.255 33.3391 17.1309 33.3543 17.0076ZM26.1228 17.1318C26.1744 17.0784 26.2246 17.024 26.2812 16.9744C26.2274 17.0809 26.2684 17.1966 26.2939 17.3046C26.3229 17.4034 26.3508 17.5032 26.3948 17.5981C26.4497 17.6591 26.546 17.6901 26.6347 17.6878C26.6759 17.6876 26.6955 17.6467 26.6812 17.6174C26.6378 17.4984 26.5814 17.3828 26.5173 17.2707C26.5297 17.1885 26.5657 17.1094 26.591 17.0292C26.6217 17.0315 26.6529 17.0337 26.6844 17.0364C26.7049 17.1822 26.7949 17.3115 26.8655 17.4424C26.8625 17.5479 26.8538 17.6539 26.8298 17.7576C26.8117 17.8298 26.7801 17.9135 26.694 17.9461C26.6206 17.9702 26.5347 17.9837 26.4606 17.9545C26.3517 17.9136 26.2745 17.8331 26.2076 17.7526C26.1653 17.8665 26.0577 17.9567 25.9258 17.9967C25.8173 18.039 25.6854 17.9946 25.6166 17.9172C25.5377 17.8259 25.5239 17.7083 25.5226 17.5985C25.527 17.493 25.5368 17.3845 25.5904 17.2877C25.6251 17.2226 25.6789 17.1587 25.7615 17.1345C25.6514 17.2888 25.6392 17.4866 25.7205 17.6523C25.7439 17.6993 25.7922 17.7448 25.8565 17.7463C25.9542 17.7421 26.0302 17.6824 26.0948 17.6259C26.0934 17.4913 26.1004 17.3571 26.1006 17.2225C26.1052 17.1921 26.0943 17.1556 26.1228 17.1318ZM9.81608 16.0396C10.0617 16.1745 10.2572 16.3797 10.3507 16.6158C10.4266 16.8066 10.4212 17.0165 10.3536 17.2084C10.3446 17.2396 10.3168 17.2629 10.2921 17.2858C10.342 17.1047 10.3366 16.9084 10.2472 16.7366C10.1561 16.5591 9.989 16.4128 9.79108 16.3182C9.80183 16.2255 9.80725 16.1324 9.81608 16.0396ZM17.742 15.8382C17.7976 15.7797 17.8473 15.7125 17.9212 15.6699C17.8724 15.7327 17.8929 15.8103 17.9046 15.8795C17.9319 16.0088 17.9726 16.136 18.0206 16.2608C18.0358 16.313 18.0992 16.3352 18.1515 16.3553C18.1988 16.3703 18.2557 16.3843 18.3037 16.3642C18.334 16.3417 18.3198 16.3031 18.3091 16.2752C18.2629 16.1659 18.2156 16.0563 18.1505 15.9538L18.2252 15.7154C18.2577 15.7176 18.2902 15.7194 18.3233 15.7212C18.3383 15.868 18.4334 15.9961 18.502 16.1278C18.4996 16.2402 18.49 16.3534 18.4613 16.4634C18.4451 16.5282 18.4098 16.5967 18.3375 16.6293C18.2546 16.6572 18.1557 16.6702 18.0746 16.6315C17.9805 16.5857 17.9053 16.516 17.8464 16.4399C17.7991 16.5566 17.6854 16.649 17.5474 16.6871C17.4524 16.7173 17.3395 16.6851 17.2746 16.6213C17.192 16.5486 17.1699 16.4433 17.1619 16.3464C17.1554 16.2217 17.1673 16.0931 17.2247 15.977C17.2576 15.9096 17.3164 15.8503 17.3942 15.8175C17.3179 15.946 17.2787 16.0954 17.3214 16.2373C17.3403 16.3118 17.3717 16.4067 17.4694 16.43C17.5749 16.4415 17.6588 16.3735 17.7268 16.3146C17.7396 16.156 17.7316 15.9965 17.742 15.8382ZM25.9132 15.6373C26.2685 15.507 26.6238 15.3754 26.9874 15.2626C26.9763 15.3326 26.9463 15.4125 26.8659 15.4459C26.3499 15.6326 25.8317 15.8162 25.3265 16.0236C25.2262 16.0706 25.123 16.1189 25.0449 16.1912C25.1007 16.2434 25.1842 16.263 25.2596 16.2865C25.2587 16.3371 25.2589 16.3877 25.2589 16.4384C25.152 16.4165 25.0451 16.3834 24.9623 16.3203C24.9671 16.2484 24.9656 16.176 24.9772 16.1046C24.9892 16.0397 25.0674 16.0092 25.124 15.974C25.3744 15.8418 25.6454 15.741 25.9132 15.6373ZM9.92225 15.0067L9.93683 15.0191C9.90467 15.0537 9.92117 15.0994 9.92633 15.1392C9.94392 15.2249 9.969 15.3098 10.0037 15.3917C10.0152 15.4284 10.0601 15.4459 10.0983 15.4582C10.1318 15.4641 10.1859 15.478 10.1998 15.4401C10.1769 15.3513 10.1218 15.2721 10.0878 15.1868C10.1039 15.1376 10.1115 15.0848 10.139 15.0393C10.1575 15.0396 10.1763 15.0402 10.1952 15.0413C10.2136 15.1369 10.2722 15.221 10.3144 15.3092C10.312 15.3999 10.3086 15.494 10.2683 15.5793C10.2432 15.6369 10.1632 15.6523 10.0989 15.6515C10.0048 15.6402 9.94308 15.5728 9.8875 15.5142C9.85167 15.5998 9.76 15.6667 9.65317 15.6784C9.56333 15.6823 9.48725 15.6209 9.46358 15.5509C9.43233 15.4583 9.43583 15.3588 9.46117 15.2656C9.481 15.2005 9.51958 15.13 9.599 15.1049C9.53642 15.1947 9.52092 15.3051 9.556 15.4052C9.56967 15.4466 9.595 15.4984 9.65267 15.5044C9.71658 15.5053 9.76408 15.4639 9.80967 15.4318C9.8215 15.3294 9.80725 15.226 9.82225 15.1237C9.84542 15.0797 9.89158 15.0471 9.92225 15.0067ZM12.867 14.8301C12.9062 14.8391 12.9345 14.8662 12.9668 14.8854C13.1627 15.0222 13.3258 15.2 13.4037 15.4066C13.4765 15.5937 13.472 15.799 13.4072 15.9872C13.3983 16.0198 13.3739 16.0461 13.3525 16.0733C13.3508 16.0699 13.3475 16.0628 13.3456 16.0594C13.3929 15.8855 13.3859 15.6983 13.3033 15.5329C13.2141 15.3516 13.0468 15.2016 12.8451 15.1071C12.8502 15.0147 12.8587 14.9222 12.867 14.8301ZM14.6441 14.6688C14.6938 14.5662 14.8241 14.48 14.9599 14.4998C15.0278 14.5121 15.0752 14.5627 15.0994 14.6152C15.1469 14.7233 15.154 14.8411 15.1373 14.9548C15.2207 15.0394 15.3112 15.1251 15.3461 15.2348C15.4108 15.379 15.3529 15.533 15.2979 15.6723C15.2275 15.8565 15.0937 16.0238 15.0687 16.2197C15.0601 16.2681 15.0821 16.3209 15.1404 16.3376C15.2343 16.3141 15.2489 16.2195 15.2681 16.1506C15.2975 16.1446 15.3435 16.1419 15.3537 16.1734C15.3698 16.2605 15.3247 16.3443 15.2883 16.4238C15.2554 16.4841 15.2097 16.5554 15.1253 16.5688C15.0578 16.5793 15.0063 16.5292 14.9793 16.4833C14.9024 16.3511 14.9266 16.1943 14.9909 16.0622C15.0911 15.8518 15.2234 15.64 15.2112 15.4066C15.2116 15.3075 15.1624 15.2128 15.0839 15.1406C14.9666 15.4093 14.7768 15.6515 14.5582 15.8683C14.4451 15.9873 14.2827 16.06 14.1276 16.1326C13.9889 16.1935 13.848 16.2535 13.7002 16.2975C13.9848 16.1239 14.2577 15.9342 14.4939 15.7138C14.6887 15.5285 14.8679 15.3195 14.9402 15.0752L14.9353 15.0614C14.83 15.0037 14.7034 14.9528 14.6486 14.851C14.6253 14.793 14.6282 14.7278 14.6441 14.6688ZM14.7496 14.6983C14.7225 14.7131 14.7411 14.7417 14.7633 14.7514C14.8297 14.7841 14.8978 14.8145 14.9668 14.8433C14.9651 14.7844 14.9777 14.7113 14.9169 14.6693C14.8642 14.632 14.7921 14.6643 14.7496 14.6983ZM25.9994 14.5671C26.0349 14.5147 26.0897 14.45 26.1711 14.4591C26.2574 14.4755 26.3418 14.5148 26.3948 14.5762C26.4218 14.6146 26.4442 14.6732 26.3963 14.707C26.3712 14.7279 26.3533 14.7631 26.3222 14.7736C26.2788 14.7255 26.2452 14.6397 26.1574 14.6422C26.0474 14.6765 25.9866 14.7709 25.9537 14.8607C25.8856 15.0459 25.8717 15.2411 25.8503 15.4328C25.8285 15.4519 25.7991 15.4626 25.7728 15.4762C25.7728 15.2818 25.7196 15.0736 25.5554 14.93C25.4763 14.9217 25.3822 14.9137 25.3379 14.8487C25.2839 14.7658 25.2451 14.6635 25.2824 14.5702C25.3661 14.5562 25.434 14.6095 25.4909 14.6537C25.6413 14.7707 25.7385 14.9256 25.8263 15.0796C25.8634 14.9048 25.9007 14.7258 25.9994 14.5671ZM4.60183 14.6303C4.64766 14.5617 4.69829 14.491 4.77775 14.447C4.65099 14.6788 4.50352 14.9091 4.4564 15.1649C4.44161 15.2486 4.44106 15.3445 4.50426 15.4148C4.5634 15.4779 4.67094 15.479 4.75465 15.4569C4.84834 15.4252 4.89195 15.3399 4.93574 15.269C4.95533 15.2695 4.9594 15.289 4.96881 15.3008C4.91947 15.4651 4.8718 15.6434 4.72563 15.7679C4.58981 15.8896 4.32187 15.827 4.25517 15.6758C4.20676 15.5671 4.22283 15.4468 4.25129 15.3359C4.32115 15.0862 4.45344 14.8526 4.60183 14.6303ZM17.3466 14.3698C17.5901 14.5109 17.7899 14.7146 17.883 14.9539C17.9292 15.0796 17.9462 15.2135 17.9283 15.3445C17.915 15.4399 17.897 15.5389 17.834 15.621C17.8252 15.5959 17.8311 15.5702 17.8366 15.5453C17.8785 15.3559 17.8429 15.1529 17.727 14.9862C17.6315 14.8472 17.4901 14.7307 17.3238 14.6538C17.327 14.5589 17.3379 14.4644 17.3466 14.3698ZM20.7454 14.2422C20.8415 14.2845 20.9043 14.3618 20.9662 14.4342C21.1172 14.6215 21.2454 14.8319 21.3606 15.0364C21.3718 15.0633 21.3724 15.0969 21.3803 15.1867C21.3109 15.1227 21.2295 15.0608 21.1263 15.042C21.108 15.0763 21.1081 15.1133 21.1237 15.1484C21.2578 15.4972 21.4095 15.8412 21.5395 16.1913C21.6222 16.4196 21.6949 16.6541 21.6976 16.8944C21.7034 17.1174 21.6585 17.3402 21.5809 17.5529C21.5029 17.7528 21.3833 17.951 21.1839 18.0829C21.0198 18.1958 20.8009 18.2426 20.5921 18.226C20.3372 18.2099 20.0959 18.1057 19.9191 17.951C19.8246 17.8747 19.748 17.7846 19.6761 17.6928L19.7036 17.6873C19.696 17.6881 19.6811 17.6897 19.6735 17.6904C19.5138 17.4624 19.3954 17.2134 19.327 16.9545C19.3331 16.9209 19.2577 16.9238 19.2653 16.9571C19.1679 17.3348 19.0125 17.7073 18.7553 18.0291C18.605 18.214 18.4106 18.3789 18.1695 18.4765C17.9067 18.5816 17.5972 18.5885 17.3205 18.5211C17.0426 18.4532 16.8223 18.2671 16.703 18.0478C16.53 17.7335 16.5036 17.3777 16.5226 17.0361C16.5598 16.7601 16.6411 16.4901 16.7205 16.2212C16.7473 16.1385 16.7712 16.0495 16.7366 15.9655C16.7255 15.9607 16.7035 15.951 16.6926 15.9461C16.6555 15.9666 16.6172 15.9868 16.5882 16.0157C16.3846 16.2061 16.2689 16.4496 16.1765 16.691C16.1067 16.8854 16.0522 17.0839 16.0156 17.2849C15.967 17.6026 15.8925 17.924 15.7201 18.2119C15.6266 18.365 15.4861 18.524 15.2746 18.5591C15.0785 18.5813 14.8689 18.5292 14.7254 18.412C14.5494 18.2725 14.4724 18.0698 14.426 17.875C14.3521 17.5252 14.375 17.1666 14.4214 16.8154C14.4524 16.5989 14.4968 16.3839 14.552 16.1711C14.5701 16.1696 14.5884 16.1686 14.6071 16.1676C14.5339 16.5265 14.4835 16.8909 14.4962 17.2557C14.5077 17.4636 14.5365 17.6754 14.6361 17.8678C14.7037 17.9995 14.8185 18.1222 14.9779 18.1789C15.1286 18.2309 15.3144 18.2403 15.4555 18.1627C15.6013 18.0816 15.6696 17.9367 15.7238 17.8025C15.8304 17.5053 15.8775 17.1962 15.9612 16.8943C16.049 16.5879 16.1752 16.2898 16.3301 16.0031C16.4188 15.836 16.5165 15.6716 16.642 15.5219C16.7534 15.3886 16.8558 15.2422 17.0139 15.1443C17.0258 15.1448 17.0491 15.1459 17.0609 15.1464C17.0899 15.2468 17.0557 15.3508 17.0505 15.4525C17.0407 15.6204 16.9687 15.7781 16.9273 15.9409C16.8759 16.127 16.8319 16.3147 16.7879 16.5022C16.7199 16.7707 16.6715 17.0539 16.7571 17.324C16.8218 17.5358 16.9942 17.7227 17.227 17.8192C17.3784 17.8867 17.5482 17.921 17.7186 17.9262C17.958 17.9467 18.2084 17.9222 18.4226 17.8245C18.6807 17.7104 18.8635 17.5037 18.982 17.2828C19.0978 17.062 19.164 16.823 19.1832 16.5822C19.1858 16.1039 19.1466 15.6165 18.9537 15.1629C18.9291 15.1003 18.897 15.0353 18.911 14.9681C18.9415 14.7837 19.0141 14.6062 19.0993 14.4353C19.1047 14.4157 19.1324 14.4143 19.149 14.4043C19.2401 14.635 19.3286 14.8673 19.3839 15.1066C19.4535 15.4175 19.4936 15.7325 19.5349 16.0468C19.5676 16.2711 19.5772 16.4989 19.6435 16.7188C19.6986 16.9013 19.7843 17.0799 19.919 17.2311C20.0828 17.4239 20.3285 17.5671 20.6018 17.6218C20.8358 17.6678 21.0856 17.6086 21.2824 17.4979C21.3859 17.438 21.4933 17.3371 21.4589 17.2229C21.1313 16.4923 20.8618 15.7442 20.5941 14.9968C20.5764 14.935 20.5426 14.876 20.537 14.8125C20.5718 14.6149 20.6534 14.4253 20.7454 14.2422ZM11.5911 14.8563C11.7031 14.642 11.8149 14.4276 11.9292 14.2142C12.1504 14.6456 12.3304 15.0921 12.4653 15.5484C12.4812 15.6407 12.449 15.7334 12.4529 15.8261C12.3757 15.7099 12.287 15.5995 12.206 15.4851C12.2269 15.6944 12.2648 15.9026 12.2877 16.1119C12.4426 17.348 12.5788 18.5859 12.695 19.8252C12.8282 19.7434 12.9299 19.626 12.987 19.4956C13.0614 19.3486 13.1418 19.2025 13.2506 19.0712C13.2915 19.024 13.3454 18.9636 13.4245 18.9781C13.4693 18.9803 13.4905 19.0211 13.4949 19.0541C13.5147 19.1705 13.4109 19.2709 13.4286 19.3864C13.4334 19.4812 13.5208 19.5625 13.6247 19.5911C13.8043 19.6461 13.9994 19.6215 14.1836 19.5994C14.2668 19.5839 14.3706 19.5706 14.4111 19.4974C14.3679 19.3799 14.3198 19.2637 14.2653 19.1497C14.3431 18.9816 14.432 18.8171 14.5131 18.6499C14.534 18.6105 14.548 18.5669 14.5824 18.5337C14.6413 18.7248 14.6561 18.9231 14.68 19.119C14.7045 19.4355 14.6447 19.7642 14.4584 20.0427C14.3581 20.1853 14.2082 20.3148 14.0127 20.356C13.8423 20.3907 13.6551 20.3748 13.5006 20.3028C13.3217 20.2165 13.199 20.0648 13.1353 19.9014C13.0385 20.09 12.9111 20.2683 12.7491 20.4217C12.7679 20.6664 12.789 20.9109 12.8034 21.1558C12.8141 21.4288 12.7315 21.6964 12.636 21.9549C12.5896 22.0659 12.544 22.1776 12.4867 22.2851C11.9774 22.9906 11.3042 23.6157 10.4965 24.0823C9.96783 24.3901 9.383 24.6289 8.76892 24.7857C8.448 24.8646 8.11979 24.929 7.78587 24.9497C7.44123 24.9538 7.09146 24.916 6.76932 24.8089C6.46701 24.7089 6.20295 24.5269 6.03348 24.2916C5.4381 24.3438 4.8392 24.3724 4.24048 24.3737C4.7745 24.2114 5.3032 24.0361 5.82299 23.8431C5.68422 23.2693 5.79896 22.6776 5.97248 22.1187C6.07874 21.7798 6.20432 21.4434 6.35825 21.1182C6.47489 20.858 6.52084 20.7383 6.74361 20.4314C6.51021 20.7806 6.47622 20.9243 6.37189 21.1719C6.23145 21.553 6.13048 21.9465 6.10073 22.3452C6.07135 22.7835 6.10849 23.2437 6.34945 23.6404C6.99009 23.3864 7.61376 23.101 8.21175 22.7808C8.71883 22.5054 9.20867 22.205 9.65383 21.8605C9.86492 21.6951 10.07 21.5225 10.2433 21.3276C10.2945 21.2765 10.2695 21.2037 10.2529 21.1456C10.2143 21.048 10.1705 20.9519 10.126 20.8564C9.82292 20.9604 9.50008 21.0317 9.17133 21.0304C8.99217 21.0348 8.80775 21.0058 8.65317 20.9258C8.52075 20.8565 8.42242 20.7428 8.3825 20.6153C8.32725 20.448 8.35125 20.2714 8.38433 20.1027C8.43683 19.8585 8.54292 19.6143 8.7445 19.4295C8.886 19.3004 9.07342 19.2011 9.28117 19.175C9.516 19.176 9.73717 19.2731 9.90483 19.408C10.1182 19.5795 10.2638 19.802 10.3758 20.0302C10.5848 19.927 10.7857 19.8048 10.9413 19.6461C11.0939 19.5115 11.251 19.3741 11.446 19.2838C11.4946 19.2601 11.5785 19.2339 11.6108 19.2892C11.6461 19.3713 11.6125 19.4615 11.5888 19.5432C11.526 19.6622 11.6019 19.7976 11.6958 19.8886C11.8264 20.0136 12.0412 20.0256 12.2232 19.9976C12.0325 18.3363 11.8386 16.6752 11.6478 15.0138C11.6439 14.9581 11.6155 14.9072 11.5911 14.8563ZM8.994 19.9575C8.9005 19.9917 8.78358 20.0423 8.76967 20.1377C8.79167 20.2102 8.89217 20.2326 8.96775 20.2481C9.21075 20.288 9.46333 20.2873 9.70617 20.2468C9.70175 20.2395 9.6925 20.2249 9.68792 20.2176C9.56133 20.096 9.4 19.9914 9.20817 19.9606C9.13775 19.9517 9.06292 19.9346 8.994 19.9575ZM10.5853 20.6361C10.6104 20.9746 10.5544 21.3169 10.4286 21.6385C10.38 21.7502 10.3395 21.8685 10.2478 21.9615C9.79717 22.4722 9.2165 22.8894 8.60467 23.2556C8.05955 23.5775 7.48396 23.8631 6.8823 24.1017C6.98505 24.1441 7.09296 24.1783 7.20514 24.1985C7.5056 24.2551 7.81588 24.2247 8.11686 24.1879C9.05925 24.0682 9.94667 23.7195 10.7109 23.2429C11.2176 22.927 11.6792 22.559 12.082 22.1493C12.2167 22.0046 12.3825 21.8631 12.4154 21.6727C12.3832 21.3495 12.3407 21.0271 12.3052 20.7041C12.0957 20.7754 11.8363 20.7921 11.6461 20.6731C11.4153 20.5253 11.3275 20.2733 11.2911 20.0405C11.0921 20.2672 10.858 20.4727 10.5853 20.6361ZM22.1223 14.3963C22.1746 14.3227 22.2245 14.2414 22.3138 14.195C22.1841 14.4153 22.0517 14.6393 21.9934 14.8825C21.9706 14.9876 21.9629 15.1155 22.0647 15.1943C22.1238 15.2188 22.192 15.2334 22.2565 15.2141C22.3744 15.1917 22.4295 15.0877 22.4755 15.0034C22.4882 15.0372 22.4967 15.0723 22.483 15.1071C22.4411 15.2534 22.3853 15.4066 22.2591 15.5174C22.117 15.6464 21.8304 15.5722 21.7762 15.4068C21.7288 15.2567 21.7722 15.0994 21.8243 14.9543C21.9001 14.7601 22.005 14.5748 22.1223 14.3963ZM7.14888 14.8088C7.2749 14.6017 7.39595 14.3926 7.51883 14.1842C7.71841 14.6262 7.8764 15.0817 7.98599 15.5457C7.99319 15.6301 7.96604 15.7142 7.95717 15.7982C7.867 15.6948 7.81285 15.5703 7.72102 15.467C7.7711 15.8156 7.78902 16.167 7.82173 16.5169C7.85813 16.9695 7.8925 17.4222 7.92668 17.8749C8.20036 17.8361 8.44625 17.699 8.6115 17.512C8.86008 17.2319 8.97033 16.8794 9.00158 16.5345C8.99958 16.0913 8.97167 15.6405 8.80742 15.2163C8.77842 15.1295 8.725 15.0455 8.72608 14.9535C8.74567 14.7826 8.81308 14.6188 8.88442 14.4591C8.90258 14.4219 8.91433 14.3744 8.96758 14.3633C9.04875 14.5759 9.13258 14.7883 9.18658 15.0073C9.27025 15.3503 9.31075 15.6997 9.35733 16.0474C9.38833 16.258 9.39758 16.472 9.46042 16.6783C9.54192 16.9557 9.70708 17.2261 9.97917 17.4025C10.1837 17.5341 10.445 17.6241 10.7052 17.5892C10.8887 17.5612 11.0744 17.4993 11.2028 17.3805C11.2609 17.3279 11.3008 17.2508 11.276 17.1788C11.0132 16.6053 10.7987 16.017 10.5818 15.4302C10.5077 15.2261 10.4349 15.0215 10.3622 14.8171C10.3415 14.7652 10.3685 14.7118 10.3785 14.6606C10.4241 14.5043 10.4833 14.3493 10.565 14.204C10.6538 14.2402 10.7115 14.3117 10.7695 14.3764C10.9445 14.5901 11.084 14.8229 11.2123 15.0587C11.2062 15.0887 11.2002 15.119 11.1954 15.1494C11.1304 15.0809 11.0469 15.0195 10.9423 15.0021C10.9257 15.0356 10.9264 15.0723 10.9408 15.1063C11.0572 15.4047 11.1814 15.7009 11.2998 15.9987C11.4006 16.2643 11.5216 16.6503 11.5148 16.8152C11.4936 17.0469 11.4552 17.354 11.3726 17.5699C11.2817 17.7618 11.1234 17.991 10.9077 18.0965C10.7227 18.1908 10.4943 18.2053 10.2859 18.1706C10.0115 18.124 9.77608 17.9736 9.6075 17.7885C9.37067 17.5275 9.22525 17.2139 9.13908 16.895C9.12617 16.8953 9.10033 16.8962 9.08733 16.8967C9.00683 17.2175 8.88425 17.5335 8.69508 17.8206C8.52542 18.0774 8.29093 18.32 7.96753 18.4425C8.02407 19.2369 8.08321 20.0311 8.12367 20.8263C8.12959 21.2184 8.11092 21.6103 8.08801 22.0019C8.08762 22.0552 8.0614 22.1046 8.04182 22.1544C7.97843 22.3243 7.91136 22.4934 7.84003 22.6613C7.82876 22.6893 7.81416 22.7167 7.79328 22.7409C7.78404 21.9922 7.7092 21.2455 7.64952 20.4989C7.59537 19.8414 7.54124 19.1839 7.48857 18.5265C7.22968 18.5216 6.96304 18.4574 6.77198 18.3032C6.54931 18.1295 6.43565 17.879 6.38134 17.6318C6.33329 17.4128 6.32312 17.1883 6.34327 16.9667C6.38762 16.6772 6.47503 16.3941 6.55836 16.1112C6.56982 16.0606 6.57814 16.0075 6.56465 15.9566C6.55948 15.9381 6.55448 15.9162 6.52917 15.911C6.49037 15.9068 6.46153 15.9314 6.4353 15.9513C6.29005 16.0703 6.19508 16.2243 6.11211 16.3784C5.95486 16.6969 5.86228 17.0364 5.81183 17.3784C5.77006 17.6038 5.70908 17.8283 5.6093 18.0408C5.53003 18.1987 5.43117 18.3613 5.25931 18.4603C5.11259 18.546 4.91856 18.5355 4.758 18.4863C4.55473 18.4224 4.41004 18.268 4.33318 18.1007C4.19957 17.813 4.19088 17.4982 4.19902 17.1932C4.21806 16.8357 4.27793 16.4801 4.37014 16.1311C4.38751 16.128 4.40506 16.125 4.42243 16.1222C4.34778 16.5226 4.28698 16.9286 4.32228 17.3345C4.33946 17.5104 4.37643 17.6881 4.46513 17.8491C4.54052 17.9867 4.67283 18.1103 4.84801 18.1552C4.99695 18.1941 5.17342 18.1909 5.30017 18.106C5.43802 18.0125 5.50325 17.8663 5.55369 17.7276C5.67233 17.3759 5.71686 17.0095 5.83974 16.6587C5.95893 16.3149 6.12099 15.9814 6.32149 15.6659C6.43773 15.5023 6.56338 15.3424 6.70937 15.1967C6.75261 15.1585 6.79603 15.1041 6.86478 15.1035C6.90247 15.124 6.88899 15.1689 6.8899 15.2011C6.87068 15.3593 6.86884 15.5211 6.81303 15.6741C6.71102 15.9882 6.64228 16.3092 6.56744 16.6285C6.51552 16.8771 6.50166 17.1426 6.61382 17.381C6.69642 17.5629 6.86827 17.7105 7.0756 17.7926C7.18832 17.8377 7.3101 17.8653 7.43336 17.8803C7.36535 16.9933 7.28811 16.1068 7.21771 15.2199C7.20163 15.0819 7.21227 14.9395 7.14888 14.8088ZM34.5992 14.8123C34.7102 14.5889 34.813 14.3628 34.9253 14.1399C35.0976 14.621 35.2657 15.1035 35.4061 15.5919C35.4272 15.676 35.4547 15.7595 35.4651 15.8452C35.4505 15.913 35.4261 15.9796 35.4241 16.0493C35.3627 15.949 35.301 15.8491 35.2387 15.7495C35.3171 16.9991 35.4117 18.2481 35.5174 19.4964C35.5501 19.8979 35.5979 20.2986 35.6153 20.7009C35.6471 21.4461 35.6164 22.2074 35.3494 22.9238C35.2491 23.1828 35.1214 23.4351 34.9591 23.6707C34.7411 23.9753 34.4173 24.2154 34.0612 24.3999C33.427 24.7234 32.7012 24.8917 31.9765 24.9955C31.9354 25.0082 31.9188 24.9678 31.8955 24.9495C32.5421 24.6855 33.1637 24.3753 33.7439 24.0169C34.0341 23.8327 34.3181 23.6386 34.5622 23.4105C34.842 23.1434 35.053 22.8218 35.1489 22.4728C35.254 22.1219 35.2178 21.7568 35.1947 21.3996C35.1341 20.5762 35.0591 19.7536 34.9951 18.9304C34.8967 17.6618 34.7974 16.3931 34.6987 15.1246C34.6779 15.0354 34.6123 14.959 34.582 14.8722C34.5738 14.8509 34.5928 14.8319 34.5992 14.8123ZM32.9614 15.03C33.3393 14.6937 33.7057 14.3481 34.0689 14C34.0849 14.3128 33.8952 14.6004 33.6832 14.8448C33.5698 14.9869 33.4097 15.0933 33.2658 15.2114C33.1969 15.2643 33.13 15.3188 33.0638 15.374C33.0828 15.4576 33.1118 15.54 33.1226 15.6249C33.117 15.7037 33.1021 15.7821 33.091 15.8606C33.0095 15.7522 32.9513 15.6312 32.8581 15.5297C32.8992 15.8845 32.9191 16.2409 32.947 16.5967C33.0198 17.6412 33.0865 18.686 33.1494 19.731C33.1457 19.7579 33.1736 19.775 33.1915 19.7941C33.4604 20.0476 33.7281 20.302 33.9798 20.5679C34.1775 20.791 34.3647 21.0216 34.5234 21.2665C34.7313 21.587 34.896 21.9341 34.9446 22.3C34.971 22.5302 34.9579 22.7676 34.8695 22.988C34.7139 22.3842 34.4274 21.8351 34.0936 21.4543C33.8127 21.1298 33.5055 20.812 33.1954 20.5074C33.217 20.88 33.2386 21.2526 33.2554 21.6253C33.2719 22.1061 33.251 22.587 33.2269 23.0673C33.2271 23.1583 33.1787 23.2415 33.1538 23.3285C33.0815 23.5237 33.0233 23.7235 32.9307 23.9128C32.916 23.4691 32.8982 23.025 32.8666 22.5819C32.8099 21.7881 32.7502 20.9947 32.6966 20.2009C32.6887 20.1384 32.6927 20.0746 32.6787 20.0132C32.4747 19.811 32.2544 19.6208 32.0413 19.4256C31.666 19.0932 31.2868 18.7639 30.8932 18.4472C30.9679 19.2763 31.0451 20.1053 31.115 20.9348C31.1449 21.3114 31.1844 21.688 31.1887 22.0657C31.1941 22.3942 31.1902 22.7228 31.1815 23.0512C31.1826 23.2584 31.1859 23.4726 31.0993 23.6697C30.971 23.9137 30.741 24.1175 30.4636 24.2433C30.247 24.3408 30.0022 24.3926 29.7572 24.3943C29.5918 24.3975 29.4273 24.3602 29.2811 24.2961C29.0252 24.1738 28.8426 23.9651 28.7251 23.7404C28.6446 23.5858 28.5867 23.4224 28.5555 23.2553C28.5374 23.1821 28.5182 23.0976 28.4411 23.0518C28.3797 23.0167 28.3064 23.0448 28.2471 23.0683C28.1027 23.1334 27.9638 23.2121 27.8594 23.3203C27.5194 23.6671 27.3577 24.1098 27.2564 24.5455C27.2069 24.7335 27.1284 24.9204 26.9905 25.0756C26.8905 25.1862 26.7478 25.2921 26.5788 25.2949C26.4464 25.2971 26.3188 25.2493 26.2007 25.1998C25.9394 25.083 25.7582 24.8687 25.6502 24.64C25.6214 24.5788 25.5862 24.528 25.5296 24.3114C25.4686 24.0779 25.4475 23.7232 25.4712 23.3623C25.4826 23.3273 25.4399 23.3147 25.4165 23.2952C25.3234 23.2276 25.2853 23.1201 25.2866 23.0189C25.284 22.6475 25.3475 22.2696 25.532 21.9298C25.6815 21.6496 25.9054 21.4049 26.1235 21.1612C26.144 21.1348 26.1802 21.1138 26.1902 21.0831C26.0544 20.9517 25.911 20.8258 25.7661 20.7015C25.6835 20.6206 25.583 20.5547 25.5016 20.473C25.196 20.1921 24.8956 19.9073 24.5953 19.6223C24.6239 20.0392 24.6457 20.4563 24.6703 20.8735C24.6889 21.2598 24.7205 21.6459 24.7141 22.0327C24.7154 22.3775 24.6971 22.722 24.6804 23.0663C24.6795 23.1521 24.6387 23.232 24.6128 23.3138C24.54 23.5154 24.4742 23.7194 24.3859 23.9168C24.3694 23.7535 24.3794 23.5892 24.3672 23.4258C24.3338 22.6108 24.2586 21.7976 24.2052 20.9835C24.1597 20.3606 24.1196 19.7373 24.0712 19.1148C23.8711 18.9042 23.6599 18.7004 23.462 18.4878C23.2302 18.24 22.9987 17.9905 22.8047 17.7199C22.5262 17.2951 22.2135 16.8826 21.8275 16.5217C21.8055 16.5041 21.8124 16.478 21.8126 16.4556C21.8259 16.222 21.8364 15.9884 21.8501 15.7549C22.1249 15.9065 22.3869 16.0746 22.6388 16.2527C22.8339 16.3954 23.0196 16.5485 23.1776 16.7216C23.2591 16.8034 23.3343 16.9077 23.307 17.0194C23.2142 16.9882 23.1183 16.9633 23.0305 16.9229C22.9952 16.9064 22.9568 16.8959 22.9173 16.8909C22.9115 16.9562 22.964 17.0078 23.0034 17.0592C23.2896 17.4146 23.5882 17.7625 23.8946 18.1056C23.9339 18.1496 23.9774 18.1916 24.0077 18.2411C23.9883 17.8389 23.9521 17.437 23.9264 17.0349C23.8829 16.414 23.8384 15.7932 23.795 15.1722C23.787 15.0794 23.7924 14.9837 23.7484 14.8965C23.7272 14.8617 23.7586 14.8299 23.776 14.7998C23.8811 14.6275 23.9827 14.4534 24.0825 14.2786C24.0873 14.2664 24.1104 14.2349 24.1174 14.2651C24.3065 14.6817 24.4536 15.1119 24.5622 15.5484C24.5957 15.6529 24.5545 15.7594 24.5421 15.8639C24.4715 15.7456 24.3915 15.6318 24.3131 15.5171C24.4135 16.6075 24.4717 17.7007 24.5469 18.7924C24.5977 18.8647 24.6757 18.9221 24.7378 18.9882C25.3374 19.5744 25.96 20.1431 26.5822 20.712C27.0445 20.2768 27.5115 19.8451 27.9801 19.4147C28.0004 19.3987 28.0142 19.3792 28.007 19.3549C27.8661 17.9975 27.7249 16.6399 27.5837 15.2826C27.5658 15.1453 27.5706 15.004 27.5098 14.8737C27.6253 14.6633 27.7519 14.4572 27.8666 14.2463C27.9294 14.357 27.9727 14.4753 28.0222 14.5909C28.1386 14.879 28.2393 15.1718 28.319 15.4686C28.3356 15.5355 28.3629 15.603 28.352 15.6723C28.3437 15.7348 28.3336 15.7971 28.3256 15.8598C28.2484 15.7492 28.1743 15.637 28.0965 15.5267C28.2069 16.62 28.319 17.9966 28.4193 19.011C28.9051 18.5735 29.387 18.1327 29.8751 17.697C29.9287 17.6453 29.9896 17.5991 30.039 17.5443C29.8015 17.2737 29.58 16.9935 29.3589 16.7132C29.2821 16.621 29.2224 16.5198 29.149 16.4256C28.9945 16.2226 28.8367 16.0172 28.6246 15.8535C28.6061 15.5897 28.5961 15.3253 28.5828 15.061C29.081 15.4301 29.5872 15.7919 30.0713 16.1745C30.1177 16.2098 30.1546 16.253 30.1805 16.3012C30.1369 15.8885 30.097 15.4755 30.0558 15.0626C30.0508 15.0247 30.0523 14.9852 30.0336 14.9498C30.0212 14.9135 29.987 14.8746 30.0147 14.8375C30.1293 14.6377 30.2374 14.4353 30.3507 14.235C30.549 14.6329 30.7035 15.0462 30.8258 15.4653C30.8384 15.5242 30.8687 15.582 30.8594 15.6428C30.8504 15.7099 30.845 15.7772 30.836 15.8443C30.7659 15.7456 30.6959 15.6469 30.6266 15.548C30.6146 15.5324 30.6033 15.5167 30.5932 15.5007C30.6564 15.973 30.6981 16.4472 30.7475 16.9206C31.1124 16.5923 31.4872 16.272 31.8647 15.9538C32.0329 15.8189 32.2073 15.6895 32.3684 15.5484C32.3533 15.3651 32.3446 15.1815 32.3276 14.9984C32.3244 14.9402 32.2614 14.8817 32.3056 14.826C32.4248 14.634 32.5377 14.439 32.6489 14.2433C32.7792 14.4971 32.8672 14.7654 32.9614 15.03ZM30.7876 17.3308C30.7933 17.4049 30.8007 17.479 30.8086 17.5529C30.9273 17.6772 31.0477 17.8003 31.173 17.9198C31.6507 18.3769 32.1448 18.8213 32.6295 19.273C32.5545 18.1559 32.4702 17.039 32.3958 15.9217C31.849 16.3826 31.3127 16.8523 30.7876 17.3308ZM29.7559 16.3176C29.9091 16.5206 30.0685 16.7206 30.2385 16.9138C30.2249 16.7347 30.2043 16.5559 30.1859 16.3771C30.1766 16.3929 30.1666 16.4088 30.1589 16.4249C30.0434 16.3535 29.9024 16.2974 29.7559 16.3176ZM28.7739 19.2072C28.6748 19.306 28.5645 19.3972 28.4714 19.5C28.4934 19.8167 28.541 20.1327 28.5704 20.4493C28.5848 20.9726 28.4823 21.5281 28.1027 21.9564C28.1136 21.8883 28.1085 21.8194 28.1094 21.7507C28.1088 21.5159 28.1205 21.2811 28.1192 21.0461C28.1179 20.821 28.1227 20.8364 28.1123 20.3708C28.108 20.1763 28.0797 20.0221 28.0612 19.8853C27.9287 20.0041 27.8025 20.1278 27.6703 20.2469C27.4103 20.4931 27.1339 20.7262 26.8674 20.9673C27.1382 21.2145 27.308 21.5399 27.3518 21.8747C27.3959 22.2307 27.2913 22.6094 27.0156 22.8862C26.7725 23.1288 26.4236 23.282 26.0612 23.3525C25.8912 23.3845 25.7096 23.4064 25.5408 23.3582C25.5619 23.5076 25.5883 23.6566 25.6236 23.8042C25.6842 24.0529 25.7631 24.304 25.9197 24.5232C26.0034 24.6352 26.1181 24.7438 26.2759 24.7767C26.4447 24.8114 26.6163 24.7397 26.735 24.6413C26.8407 24.561 26.8896 24.4444 26.9342 24.3335C27.0681 24.0069 27.1134 23.656 27.2906 23.3419C27.415 23.0927 27.573 22.8508 27.801 22.6587C27.9193 22.5544 28.0553 22.4654 28.1978 22.3861C28.2959 22.3363 28.4147 22.2948 28.5302 22.324C28.6401 22.3514 28.7142 22.4336 28.7651 22.5165C28.8807 22.7031 28.9109 22.9164 29.0045 23.1104C29.0731 23.2706 29.164 23.4334 29.3255 23.5415C29.4887 23.6507 29.7038 23.6842 29.9072 23.6768C30.2624 23.664 30.8465 23.4186 30.8761 23.3493C30.9068 23.2774 30.8257 22.7327 30.794 22.4248C30.6394 20.9206 30.4915 19.4159 30.3404 17.9115C30.3352 17.8702 30.2914 17.8421 30.2698 17.807C29.7622 18.2668 29.2701 18.7386 28.7739 19.2072ZM26.4597 21.3654C26.3534 21.4694 26.2531 21.578 26.1531 21.6864C25.9629 21.9038 25.7726 22.1237 25.6318 22.3675C25.5963 22.4294 25.564 22.5066 25.6048 22.5724C25.6531 22.6398 25.7562 22.6498 25.8408 22.6499C26.2144 22.6372 26.5629 22.4955 26.8664 22.3185C26.9678 22.276 27.0632 22.182 27.0249 22.08C26.9747 21.943 26.8795 21.822 26.7864 21.7035C26.6897 21.5869 26.5879 21.473 26.4794 21.3641C26.4744 21.3645 26.4646 21.3651 26.4597 21.3654Z" fill="black"/>
</g>
</g>
</g>
<defs>
<clipPath id="clip0_16699_261833">
<rect width="40" height="40" fill="white"/>
</clipPath>
</defs>
</svg>
