<svg width="40" height="40" viewBox="0 0 40 40" fill="none" xmlns="http://www.w3.org/2000/svg">
<g clip-path="url(#clip0_16699_261858)">
<mask id="mask0_16699_261858" style="mask-type:luminance" maskUnits="userSpaceOnUse" x="0" y="0" width="40" height="40">
<path d="M40 20C40 8.95431 31.0457 0 20 0C8.95431 0 0 8.95431 0 20C0 31.0457 8.95431 40 20 40C31.0457 40 40 31.0457 40 20Z" fill="white"/>
</mask>
<g mask="url(#mask0_16699_261858)">
<mask id="mask1_16699_261858" style="mask-type:luminance" maskUnits="userSpaceOnUse" x="-14" y="0" width="54" height="40">
<path d="M-13.3334 0H40V40H-13.3334V0Z" fill="white"/>
</mask>
<g mask="url(#mask1_16699_261858)">
<mask id="mask2_16699_261858" style="mask-type:luminance" maskUnits="userSpaceOnUse" x="-16" y="-8" width="65" height="48">
<path d="M-15.25 -7.75H48.4167V40H-15.25V-7.75Z" fill="white"/>
</mask>
<g mask="url(#mask2_16699_261858)">
<path fill-rule="evenodd" clip-rule="evenodd" d="M-15.7087 -1.95784H24.349V21.9238H-15.7086L-15.7087 -1.95784Z" fill="white"/>
<path d="M1.51923 -1.9576V7.31884H-15.709V12.6199H1.51923V21.8963H6.82008V12.6199H24.0483V7.31894H6.82008V-1.9575H1.51923V-1.9576Z" fill="#CC0000"/>
<path d="M8.36621 -1.9576V4.88935L19.704 -1.90457L8.36621 -1.9576Z" fill="#000066"/>
<path d="M8.72412 5.6358L11.9129 5.60496L24.2998 -1.90462L21.0133 -1.84026L8.72412 5.636V5.6358Z" fill="#CC0000"/>
<path d="M24.174 0.0984134L14.7115 5.73093L24.0479 5.77271V14.1658H16.0966L23.9743 19.2899L24.09 21.8963L19.8823 21.8361L8.36633 15.0494V21.8964H-0.0267202V15.0495L-10.8292 21.8781L-15.7082 21.8965V45.751H63.8049V-1.95723L24.2583 -2M-15.7082 0.692304L-15.75 5.64637L-7.37922 5.77231L-15.7082 0.692304ZM-15.7086 14.1655V19.2455L-7.75725 14.2185L-15.7086 14.1655Z" fill="#000066"/>
<path d="M14.9101 14.3752L11.5953 14.3444L24.0896 21.812L24.0074 20.1036L14.9097 14.3752L14.9101 14.3752ZM-12.6038 21.9381L-0.888445 14.5542L-3.96534 14.5787L-15.7089 21.9269" fill="#CC0000"/>
<path d="M30.0834 19L30.25 19.1667L30.0834 19.0002V19Z" fill="#262678"/>
<path d="M30.25 19L30.4167 19.1667L30.25 19.0002V19Z" fill="#808067"/>
<path d="M30.6666 19L30.8333 19.1667L30.6666 19.0002V19Z" fill="#58587B"/>
<path d="M25.6902 19.4206C25.6902 23.0692 25.2693 27.1808 27.9908 30.0382C28.5506 30.6262 29.6157 31.9667 30.5288 31.9152C31.4846 31.8615 32.7137 30.4481 33.2605 29.7559C35.6294 26.6419 35.2528 22.9276 35.3333 19.3133C34.2637 19.7933 33.7308 19.9515 32.7953 19.9487C32.1025 20.0198 31.0337 19.5543 30.3944 19.25C29.9768 19.5287 29.3708 19.8611 28.2819 19.8985C27.0242 19.9537 26.6257 19.7408 25.6902 19.4206Z" fill="#CCCC33"/>
<path d="M25.9468 19.8462C25.8707 21.7574 25.9291 23.9096 26.2294 25.9544C26.5614 27.0228 26.517 27.6097 27.0102 28.25L33.9149 28.1964C34.331 27.5228 34.6396 26.5013 34.6794 26.0953C35.0649 24.0301 35.0741 21.751 35.0833 19.7125C34.389 20.0798 33.4797 20.3402 32.5972 20.2258C31.8897 20.1722 31.2361 20.0116 30.4747 19.5833C29.8144 19.977 29.5842 20.1568 28.4938 20.2027C27.6449 20.2443 26.9571 20.3128 25.9469 19.8462H25.9468Z" fill="white"/>
<path d="M34.4063 19.6667L34.5 19.7084L34.4063 19.6667V19.6667ZM27.0834 19.7917L27.1772 19.8333L27.0835 19.7916L27.0834 19.7917Z" fill="#A4A43D"/>
<path d="M27.25 19.75L27.4167 19.8333L27.2502 19.75H27.25Z" fill="#808067"/>
<path d="M32 19.7501L32.0833 19.8333L32 19.75V19.7501Z" fill="#A4A43D"/>
<path d="M33.3334 19.7501L33.4167 19.8333L33.3334 19.75V19.7501Z" fill="#58587B"/>
<path d="M34.3334 19.8333L34.5 20L34.3335 19.8333H34.3334Z" fill="#D4D456"/>
<path d="M29.25 20.1667L29.5 20.4167V20.1667H29.25Z" fill="#FEF8F1"/>
<path d="M27.25 23.6667L27.4167 23.8333L27.2502 23.6667H27.25Z" fill="#FDAB33"/>
<path d="M35.3334 24.1667L35.4167 24.25L35.3335 24.1667L35.3334 24.1667Z" fill="#58587B"/>
<path d="M25.9167 24.3334L26 24.4167L25.9166 24.3333L25.9167 24.3334Z" fill="#D9D868"/>
<path d="M34.9166 24.3334L35 24.4167L34.9166 24.3333V24.3334Z" fill="#F2F1D2"/>
<path d="M34.1666 24.5L34.5 24.8333L34.1668 24.5H34.1666Z" fill="#FEF8F1"/>
<path d="M34.9166 24.5834L35 24.75L34.9166 24.5833V24.5834Z" fill="#E5E59D"/>
<path d="M35.3334 24.5834L35.4167 24.75L35.3335 24.5833L35.3334 24.5834Z" fill="#32327B"/>
<path d="M34.3334 24.8333L34.5 24.9167L34.3335 24.8333H34.3334Z" fill="#FCB144"/>
<path d="M34.3334 25.25L34.5 25.3333L34.3335 25.25H34.3334Z" fill="#FBC477"/>
<path d="M29.4166 25.3333L29.5 25.5L29.4167 25.3333H29.4166Z" fill="#F9D6AA"/>
<path d="M27.25 25.6667L27.4167 25.8333L27.2502 25.6667H27.25Z" fill="#FEA522"/>
<path d="M35.0834 25.75L35.1667 25.8333L35.0834 25.7501V25.75Z" fill="#A4A43D"/>
<path d="M27.25 25.8333L27.4167 25.9167L27.2502 25.8333H27.25Z" fill="#FACA88"/>
<path d="M27.25 25.9167L27.4167 26.0833L27.2502 25.9167H27.25Z" fill="#FEF8F1"/>
<path d="M25.75 26.0833L25.8333 26.25L25.75 26.0835V26.0833Z" fill="#0E0E6E"/>
<path d="M25.8334 26.0833L26 26.25L25.8334 26.0835V26.0833Z" fill="#A4A43D"/>
<path d="M26.1666 26.0833L26.25 26.25L26.1666 26.0835V26.0833Z" fill="#D9D868"/>
<path d="M27.4166 26.0833L27.5833 26.25L27.4166 26.0835V26.0833Z" fill="#F8DCBB"/>
<path d="M32.3334 26.0833L32.5 26.25L32.3334 26.0835V26.0833Z" fill="#F9D6AA"/>
<path d="M33.3334 26.0833L33.5 26.25L33.3334 26.0835V26.0833Z" fill="#FACA88"/>
<path d="M34.5834 26.0833L34.75 26.25L34.5834 26.0835V26.0833Z" fill="#F2F1D2"/>
<path d="M35 26.0833L35.1667 26.25L35 26.0835V26.0833Z" fill="#58587B"/>
<path d="M30.7501 26.25L30.8333 26.3333L30.75 26.25H30.7501Z" fill="#FCB144"/>
<path d="M34.3334 27.0833L34.5 27.1667L34.3335 27.0833H34.3334Z" fill="#E5E3AF"/>
<path d="M34.3334 27.1667L34.5 27.3333L34.3335 27.1667H34.3334Z" fill="#DDDC7A"/>
<path d="M34.3334 27.9167L34.5 28.0833L34.3335 27.9167H34.3334Z" fill="#A4A43D"/>
<path d="M34.3334 28.0833L34.5 28.1667L34.3335 28.0833" fill="#6E6C70"/>
<path d="M27.0834 28.1667C27.572 29.1977 29.3002 31.63 30.6204 31.5827C31.9024 31.5367 33.3503 29.1634 33.9167 28.1667H27.0834Z" fill="#00CCFF"/>
<path d="M34.3334 28.1667L34.5 28.3333L34.3335 28.1667" fill="#1B1B74"/>
<path d="M27.25 28.5833L27.4167 28.75L27.2502 28.5833H27.25Z" fill="#34BE9E"/>
<path d="M27.25 28.75L27.4167 28.9167L27.2502 28.75H27.25Z" fill="#A2B23D"/>
<path d="M27.1666 29L27.4166 29.3333L27.1667 29H27.1666Z" fill="#A4A43D"/>
<path d="M27.25 29.3333L27.4167 29.5L27.2502 29.3333H27.25Z" fill="#6E6C70"/>
<path d="M27.25 29.5L27.4167 29.5833L27.2502 29.5H27.25Z" fill="#0E0E6E"/>
<path d="M27.5834 29.5834L29.0834 31.1667L27.5834 29.5833V29.5834Z" fill="#A4A43D"/>
<path d="M32.6667 29.75L32.0834 30.4167L32.6665 29.75H32.6667Z" fill="#0DC9C1"/>
<path d="M32.3333 30.5833L32.25 30.9167L32.3332 30.5833H32.3333Z" fill="#8D8D5B"/>
<path d="M30.678 22.6821C30.8964 23.1973 31.5967 23.7663 31.7892 24.0452C31.5442 24.3241 31.4953 24.2937 31.5273 24.8118C31.9533 24.3646 31.961 24.318 32.235 24.3858C32.8354 24.9867 32.3425 26.2772 31.8464 26.5577C31.3504 26.8571 31.4404 26.5474 30.697 26.9226C31.0379 27.2149 31.4328 26.8797 31.7555 26.9693C31.9309 27.1781 31.6722 27.5584 31.8085 27.9167C32.0937 27.8891 32.0595 27.3115 32.1258 27.1021C32.3343 26.3349 33.587 25.7997 33.6506 25.0958C33.9149 24.9715 34.1788 25.0569 34.5 25.2377C34.34 24.5784 33.8109 24.5855 33.669 24.3797C33.3314 23.8621 33.0322 23.2717 32.3112 23.1187C31.7637 23.0023 31.8046 23.1537 31.4539 22.9136C31.2359 22.7429 30.5719 22.4202 30.6781 22.6821H30.678Z" fill="#FF9900"/>
<path fill-rule="evenodd" clip-rule="evenodd" d="M32.25 23.2887C32.2503 23.3054 32.2474 23.322 32.2413 23.3375C32.2351 23.353 32.226 23.3672 32.2143 23.3791C32.2027 23.391 32.1887 23.4004 32.1734 23.4069C32.158 23.4133 32.1415 23.4167 32.1248 23.4167C32.1081 23.4167 32.0916 23.4132 32.0763 23.4068C32.0609 23.4003 32.0471 23.3908 32.0354 23.3788C32.0237 23.3669 32.0146 23.3527 32.0086 23.3372C32.0025 23.3217 31.9996 23.3051 32.0001 23.2884C32.0009 23.2558 32.0145 23.2248 32.0378 23.2021C32.0612 23.1793 32.0926 23.1666 32.1251 23.1667C32.1578 23.1667 32.1891 23.1795 32.2124 23.2023C32.2357 23.2252 32.2492 23.2562 32.25 23.2888V23.2887Z" fill="white"/>
<path d="M28.9326 24.878C29.2831 24.4473 29.4568 23.5679 29.6121 23.2694C29.9707 23.3557 29.9668 23.4128 30.4064 23.1446C29.8159 22.977 29.7714 22.9918 29.7035 22.7195C29.9517 21.9132 31.3132 21.7489 31.7901 22.0553C32.2834 22.3528 31.9698 22.4171 32.6447 22.8971C32.7428 22.4618 32.265 22.2698 32.1935 21.9446C32.2951 21.6937 32.7492 21.745 33 21.4592C32.8433 21.2212 32.3524 21.5188 32.1378 21.5574C31.3676 21.7297 30.3154 20.8759 29.6683 21.1459C29.4363 20.9713 29.3886 20.6995 29.3979 20.3333C28.8938 20.7794 29.146 21.2414 29.0313 21.4616C28.7343 21.9981 28.3553 22.5347 28.5563 23.2397C28.7088 23.7749 28.8225 23.6689 28.775 24.0885C28.7267 24.3593 28.7523 25.0924 28.9326 24.8779V24.878Z" fill="#FF9900"/>
<path fill-rule="evenodd" clip-rule="evenodd" d="M28.711 23.1812C28.7206 23.1735 28.7312 23.1688 28.7421 23.1673C28.7531 23.1657 28.764 23.1673 28.7745 23.1722C28.7849 23.177 28.7946 23.1849 28.8031 23.1953C28.8116 23.2058 28.8185 23.2187 28.8236 23.2332C28.8287 23.2477 28.8319 23.2636 28.833 23.2799C28.834 23.2963 28.8328 23.3128 28.8296 23.3284C28.8264 23.3441 28.8211 23.3587 28.8142 23.3713C28.8072 23.384 28.7986 23.3944 28.789 23.4022C28.7695 23.4177 28.7466 23.4209 28.7255 23.4112C28.7044 23.4014 28.6866 23.3795 28.6763 23.3502C28.666 23.3208 28.6638 23.2866 28.6703 23.2549C28.6768 23.2233 28.6915 23.1968 28.711 23.1812Z" fill="white"/>
<path d="M31.7636 25.1563C31.2173 25.0791 30.3806 25.3864 30.0472 25.4082C29.9364 25.0558 29.987 25.0295 29.5333 24.7915C29.694 25.385 29.7294 25.4155 29.5326 25.6152C28.7199 25.8207 27.8811 24.7379 27.8966 24.1699C27.8964 23.5923 28.1121 23.828 28.1736 23C27.7534 23.1417 27.8354 23.6512 27.5956 23.8814C27.3301 23.9244 27.1406 23.5082 26.7688 23.4413C26.6469 23.6994 27.152 23.966 27.2951 24.1301C27.8368 24.7013 27.6512 26.0469 28.213 26.4619C28.1836 26.7516 27.9771 26.9336 27.661 27.1156C28.2991 27.3167 28.5623 26.8605 28.8083 26.8446C29.4171 26.821 30.0678 26.8676 30.564 26.3293C30.9406 25.9207 30.7922 25.8782 31.1733 25.7012C31.4283 25.6022 32.0386 25.1997 31.7636 25.1564L31.7636 25.1563Z" fill="#FF9900"/>
<path fill-rule="evenodd" clip-rule="evenodd" d="M30.478 26.2338C30.4493 26.2166 30.4286 26.1887 30.4205 26.1563C30.4164 26.1403 30.4156 26.1237 30.4181 26.1073C30.4205 26.0909 30.4262 26.0752 30.4348 26.0611C30.4433 26.0469 30.4545 26.0345 30.4679 26.0247C30.4813 26.0148 30.4964 26.0077 30.5125 26.0037C30.5287 25.9997 30.5454 25.9989 30.5618 26.0014C30.5783 26.0038 30.594 26.0095 30.6083 26.018C30.6361 26.0357 30.6558 26.0634 30.6633 26.0953C30.6708 26.1272 30.6656 26.1608 30.6486 26.189C30.6316 26.2171 30.6043 26.2374 30.5724 26.2458C30.5406 26.2542 30.5068 26.2499 30.478 26.2338Z" fill="white"/>
</g>
</g>
</g>
</g>
<defs>
<clipPath id="clip0_16699_261858">
<rect width="40" height="40" fill="white"/>
</clipPath>
</defs>
</svg>
