<svg width="40" height="40" viewBox="0 0 40 40" fill="none" xmlns="http://www.w3.org/2000/svg">
<g clip-path="url(#clip0_16699_261931)">
<mask id="mask0_16699_261931" style="mask-type:luminance" maskUnits="userSpaceOnUse" x="0" y="0" width="40" height="40">
<path d="M40 0H0V40H40V0Z" fill="white"/>
</mask>
<g mask="url(#mask0_16699_261931)">
<mask id="mask1_16699_261931" style="mask-type:luminance" maskUnits="userSpaceOnUse" x="0" y="0" width="40" height="40">
<path d="M40 20C40 8.95433 31.0457 0 20 0C8.95433 0 0 8.95433 0 20C0 31.0457 8.95433 40 20 40C31.0457 40 40 31.0457 40 20Z" fill="white"/>
</mask>
<g mask="url(#mask1_16699_261931)">
<path d="M49.9804 0H-10V40H49.9804V0Z" fill="#FF0000"/>
<path fill-rule="evenodd" clip-rule="evenodd" d="M21.5404 30.5144C21.1889 30.2097 20.7629 29.5927 20.7689 28.9979C20.8004 28.5546 21.1045 28.2968 21.301 28.8382C21.5789 29.4357 22.1747 30.4238 22.9959 29.8442C23.3546 29.5809 23.349 29.1932 22.8571 29.2377C22.2497 29.1962 21.8765 28.8618 21.6047 28.0013C21.5554 27.5282 21.7521 27.5399 22.0269 27.8443C22.3799 28.2496 23.0827 28.8618 23.858 28.5337C24.2889 28.3532 24.4105 27.9806 23.7595 27.8888C23.1434 27.8978 22.6404 27.4983 22.1395 26.8889C21.865 26.5518 22.2699 26.2114 22.5131 26.4984C22.7299 26.6847 23.0337 27.0279 23.2939 27.0752C23.5949 27.1343 23.968 27.1049 24.3814 26.8862C24.827 26.5132 24.6824 26.2441 24.1414 26.1822C23.7221 26.2029 23.4937 26.3622 22.9529 26.0016C21.9806 25.3443 21.2077 24.4663 21.0869 23.4102C21.0076 22.7157 21.3811 22.5053 21.6916 22.5852C22.5362 22.8026 23.0887 24.3807 23.673 25.2478C23.8644 25.4977 24.0401 25.5017 24.1645 25.4247C24.3989 25.2237 24.5861 25.0586 24.8205 24.8338C24.8205 24.8338 26.5396 25.1427 27.4759 25.4479L26.4334 25.8183C26.0387 25.6004 25.5624 25.8354 25.5624 26.2136C25.1889 26.4718 25.2189 26.7747 25.3801 27.0668C25.4292 26.8633 25.4711 26.5991 25.7662 26.5639C26.1874 26.7382 26.6779 26.4896 26.6779 26.1607L27.9075 25.6773L29.1499 26.3807C29.1499 26.8562 29.6004 27.0067 30.069 26.8783C30.2899 27.0156 30.4319 27.2534 30.5066 27.5079C30.6449 27.1409 30.6161 26.8818 30.3995 26.7018C30.5239 26.2273 29.8589 25.7712 29.3442 26.0749L28.4505 25.5618L29.9802 25.5189C30.1579 25.8332 30.7995 25.8506 30.9867 25.5189C31.1467 25.4752 31.2819 25.4472 31.5939 25.6792C31.4955 25.3039 31.3042 25.1436 31.0174 25.1436C30.7992 24.7572 30.0101 24.7589 29.8961 25.1939L28.3029 25.2382L29.2482 24.5652C29.6011 24.7736 30.0962 24.5419 30.1954 24.1634C30.3361 23.9962 30.5095 23.9177 30.851 24.0312C30.675 23.7194 30.427 23.6263 29.9791 23.8379C29.5706 23.5283 29.0321 23.9038 29.1139 24.2156L27.8561 25.0713C26.9431 24.7989 25.2899 24.3747 25.2899 24.3747C25.4866 24.1677 25.6864 23.9752 25.8829 23.7653C25.9539 23.6423 25.8454 23.4992 25.6947 23.4693C24.2195 23.1648 23.3749 22.5702 22.8631 21.0587C22.649 20.4257 23.1119 20.2365 23.2709 20.6237C23.4909 21.1622 23.7336 21.7507 24.396 22.2065C24.6245 22.3663 25.3045 22.2358 24.9024 21.8543C24.4857 21.5112 24.3064 21.3636 24.1011 20.5292C24.1011 20.1064 24.532 19.9169 24.7724 20.3222C25.0295 21.1532 25.0559 21.5112 25.5214 22.0467C25.8741 22.4519 26.3341 22.7242 26.5625 22.7182C26.9734 22.7123 27.3871 22.2683 26.8375 21.946C26.0304 21.6237 25.7354 21.183 25.6166 20.7627C25.4866 20.0294 25.6286 19.6743 26.071 20.0352C26.6984 20.748 27.8961 22.0762 28.5235 22.6944C29.2267 23.2329 30.0334 23.2504 30.6755 22.7034C31.0431 22.2803 30.9127 21.8251 30.3372 21.9224C29.0386 22.0321 28.0552 21.3872 26.9762 19.6447C26.765 19.2512 26.7071 18.6862 27.1731 19.1066C27.7109 19.8342 28.4949 20.4525 29.2239 20.7187C29.9557 20.9817 30.5599 20.8363 30.7944 20.6062C31.0767 20.3238 31.0025 19.6123 30.5137 19.7839C30.1115 19.9258 29.5447 19.9613 28.9549 19.7334C28.3645 19.5027 27.7514 19.0058 27.1006 18.1629C26.8777 17.6867 26.9504 17.2844 27.4014 17.5297C28.4689 18.4352 29.8457 19.1686 30.5484 18.7278C31.0662 18.4054 31.075 17.5772 30.4185 17.6305C29.0964 17.8107 28.5961 17.518 27.3262 16.397C27.0371 16.181 27.0571 15.6335 27.517 15.9829C28.5845 16.6722 30.0422 16.9412 30.615 16.5806C31.13 16.258 31.0546 15.2727 30.1869 15.6217C29.4926 16.0448 28.7261 16.033 27.1902 14.9357C26.8029 14.6133 27.0919 14.1931 27.4099 14.3736C28.6451 15.0776 30.4444 15.3792 30.9127 13.9477C31.0949 13.4005 30.7654 13.081 30.2822 13.4597C29.2207 14.4417 28.0174 13.9594 27.3437 13.4653C27.1509 13.3517 26.7969 12.7762 27.4186 12.8829C29.027 13.2497 30.6179 12.9302 30.9071 11.7913C31.075 11.4215 30.7449 10.7677 30.1579 11.3152C29.3857 12.0782 28.567 12.1047 27.5374 12.099C27.0137 11.9894 27.0081 11.4127 27.4477 11.327C28.2605 11.3445 29.0617 10.9894 29.7039 10.6287C30.3316 10.2679 30.8522 9.76208 31.0172 9.061C31.1184 8.434 30.5139 7.76844 30.1494 8.434C29.6114 9.40708 28.4195 10.3242 27.0946 10.4897C27.0256 10.3743 26.8519 10.0784 26.6379 10.1615C26.2487 10.3124 25.7852 10.5142 25.3079 10.7409C24.2791 11.2294 23.8504 11.4649 23.9739 12.3089C24.1029 13.1897 23.4239 13.7462 22.8631 13.5925C22.3739 13.4609 22.1041 13.019 22.1919 12.2527C22.262 11.6422 22.875 10.9034 23.5659 10.5162C24.013 10.2658 24.6882 10.1289 25.501 9.94841C25.9956 9.851 26.2475 9.65858 26.2764 9.45716C26.2764 9.45716 25.9382 9.70458 25.397 9.6675C25.1411 9.64916 24.9697 9.53658 24.9051 9.42175C25.0934 9.3835 25.4345 9.42783 25.741 9.42783C26.1487 9.42458 27.0954 9.33333 27.3465 8.75933C27.4246 8.38066 27.1759 8.31261 26.9444 8.55516C26.6956 8.81725 26.5931 9.05283 26.0941 9.14083C25.7904 9.19425 25.4866 9.25625 25.096 9.16166C25.316 8.90041 25.6656 8.633 25.9639 8.68225C26.0619 8.69858 26.1922 8.78916 26.2966 8.95175C26.3604 8.53758 26.2471 8.07004 25.1394 8.2653C25.157 7.95187 24.4974 7.8157 24.1011 7.82181C23.8755 7.82753 23.4155 7.96084 23.0831 8.12021C22.5566 8.28324 22.036 8.4015 21.4225 8.44591C21.7785 8.75041 21.8451 8.76833 22.2006 9.0255C21.6629 9.2265 21.2464 9.64066 21.0582 9.913C21.0582 9.913 21.686 9.89541 21.8451 9.96633C21.1882 10.1583 20.8931 10.2737 20.5461 10.6287C20.6676 10.6495 20.8497 10.6849 20.9279 10.7147C21.0092 10.7442 20.9881 10.7974 20.9224 10.8477C20.7809 10.9557 20.1961 11.6347 20.0255 11.7973C19.8549 11.6347 19.2702 10.9557 19.1287 10.8477C19.0629 10.7974 19.0419 10.7442 19.1231 10.7147C19.2012 10.685 19.3834 10.6495 19.5049 10.6287C19.1579 10.2737 18.8629 10.1583 18.2059 9.96633C18.365 9.89541 18.9927 9.913 18.9927 9.913C18.8046 9.64066 18.3881 9.2265 17.8504 9.0255C18.2059 8.76833 18.2725 8.75041 18.6284 8.44583C18.015 8.4015 17.4944 8.28324 16.9679 8.12016C16.6354 7.96084 16.1754 7.82753 15.9499 7.82181C15.5537 7.8157 14.8939 7.95187 14.9115 8.26524C13.8039 8.07004 13.6906 8.53758 13.7544 8.95175C13.8589 8.78916 13.9891 8.69858 14.0872 8.68233C14.3854 8.633 14.7349 8.90041 14.955 9.16166C14.5644 9.25625 14.2606 9.19425 13.9569 9.14091C13.4579 9.05291 13.3554 8.81725 13.1066 8.55516C12.8751 8.31261 12.6264 8.38066 12.7045 8.75933C12.9556 9.33333 13.9022 9.42458 14.31 9.42783C14.6165 9.42783 14.9577 9.38341 15.1459 9.42175C15.0814 9.53675 14.9099 9.64916 14.654 9.6675C14.1127 9.70458 13.7747 9.45716 13.7747 9.45716C13.8034 9.65858 14.0554 9.85091 14.55 9.94841C15.3627 10.1289 16.0379 10.2659 16.4851 10.5162C17.1759 10.9034 17.789 11.6422 17.8591 12.2527C17.9469 13.019 17.677 13.4609 17.1879 13.5925C16.6271 13.7462 15.9481 13.1897 16.077 12.3089C16.2006 11.4649 15.7719 11.2294 14.743 10.7409C14.2659 10.5142 13.8022 10.3123 13.4132 10.1615C13.1991 10.0784 13.0254 10.3743 12.9564 10.4897C11.6314 10.3242 10.4397 9.40708 9.90161 8.434C9.5372 7.76844 8.93261 8.434 9.03378 9.061C9.19886 9.76216 9.71936 10.2679 10.3471 10.6287C10.9894 10.9894 11.7905 11.3445 12.6034 11.327C13.0429 11.4127 13.0374 11.9894 12.5135 12.099C11.4839 12.1047 10.6654 12.0782 9.8932 11.3152C9.30611 10.7677 8.97603 11.4215 9.14386 11.7913C9.4332 12.9302 11.024 13.2497 12.6324 12.8829C13.2541 12.776 12.9002 13.3517 12.7072 13.4654C12.0337 13.9594 10.8304 14.4417 9.76886 13.4597C9.28578 13.081 8.95603 13.4005 9.13828 13.9477C9.60661 15.3792 11.4059 15.0776 12.6411 14.3736C12.9592 14.1931 13.2482 14.6133 12.8607 14.9357C11.3249 16.033 10.5585 16.0448 9.86411 15.6217C8.99636 15.2727 8.92103 16.258 9.43603 16.5806C10.0087 16.9412 11.4665 16.6722 12.5339 15.9829C12.9939 15.6335 13.0139 16.181 12.7247 16.397C11.4549 17.518 10.9546 17.8107 9.63253 17.6305C8.97595 17.5772 8.98478 18.4053 9.50261 18.7278C10.2054 19.1684 11.582 18.4352 12.6494 17.5298C13.1007 17.2844 13.1732 17.6867 12.9504 18.1629C12.2995 19.0058 11.6864 19.5027 11.0961 19.7334C10.5062 19.9613 9.93945 19.9258 9.53728 19.7839C9.04853 19.6123 8.97428 20.3238 9.2567 20.6062C9.49111 20.8363 10.0954 20.9817 10.8271 20.7187C11.5561 20.4525 12.3402 19.8342 12.8779 19.1066C13.3439 18.6862 13.286 19.2512 13.0747 19.6447C11.9959 21.3872 11.0125 22.0321 9.71378 21.9224C9.13828 21.8251 9.00795 22.2803 9.37536 22.7034C10.0175 23.2504 10.8244 23.2329 11.5274 22.6944C12.1549 22.0762 13.3525 20.748 13.9799 20.0352C14.4224 19.6743 14.5644 20.0294 14.4344 20.7627C14.3155 21.183 14.0207 21.6237 13.2135 21.946C12.6639 22.2685 13.0775 22.7123 13.4885 22.7181C13.7169 22.7242 14.1769 22.4519 14.5297 22.0467C14.9952 21.5112 15.0215 21.1532 15.2786 20.3222C15.519 19.9169 15.9499 20.1064 15.9499 20.5292C15.7446 21.3636 15.5652 21.5112 15.1487 21.8542C14.7464 22.2358 15.4265 22.3662 15.6549 22.2065C16.3174 21.7507 16.5601 21.1622 16.7801 20.6237C16.9391 20.2365 17.4019 20.4257 17.1879 21.0587C16.6761 22.5702 15.8315 23.1648 14.3564 23.4693C14.2056 23.4991 14.0971 23.6423 14.1681 23.7653C14.3646 23.9752 14.5644 24.1676 14.7612 24.3747C14.7612 24.3747 13.1079 24.7989 12.1949 25.0713L10.9371 24.2156C11.0189 23.9038 10.4804 23.5283 10.0719 23.8378C9.62386 23.6263 9.37595 23.7194 9.19995 24.0312C9.54136 23.9177 9.71486 23.9962 9.85561 24.1634C9.9547 24.5419 10.4499 24.7736 10.8027 24.5652L11.748 25.2382L10.1549 25.1939C10.0409 24.7591 9.25178 24.7572 9.03361 25.1436C8.74678 25.1436 8.55536 25.3039 8.45703 25.6792C8.76903 25.4472 8.90428 25.4752 9.06428 25.5189C9.25145 25.8506 9.8932 25.8332 10.0706 25.5189L11.6004 25.5618L10.7067 26.0749C10.192 25.7712 9.5272 26.2273 9.65145 26.7018C9.43486 26.8818 9.40595 27.1409 9.54428 27.5079C9.61903 27.2534 9.76111 27.0156 9.98203 26.8783C10.4506 27.0067 10.9011 26.8562 10.9011 26.3807L12.1434 25.6773L13.3731 26.1607C13.3731 26.4896 13.8637 26.7382 14.2847 26.5639C14.5799 26.5991 14.6217 26.8633 14.6709 27.0667C14.832 26.7747 14.8621 26.4718 14.4886 26.2136C14.4886 25.8354 14.0122 25.6003 13.6175 25.8183L12.5751 25.4479C13.5114 25.1427 15.2305 24.8339 15.2305 24.8339C15.4649 25.0586 15.6521 25.2237 15.8865 25.4247C16.0109 25.5017 16.1866 25.4977 16.3779 25.2478C16.9624 24.3807 17.5147 22.8026 18.3594 22.5852C18.6699 22.5052 19.0434 22.7157 18.9641 23.4102C18.8434 24.4663 18.0704 25.3444 17.0982 26.0016C16.5574 26.3622 16.3289 26.2029 15.9096 26.1822C15.3687 26.2441 15.224 26.5132 15.6696 26.8862C16.083 27.1049 16.4561 27.1343 16.757 27.0752C17.0174 27.0279 17.321 26.6847 17.5379 26.4984C17.781 26.2114 18.186 26.5518 17.9114 26.8889C17.4107 27.4983 16.9077 27.8978 16.2914 27.8888C15.6405 27.9806 15.7621 28.3532 16.193 28.5337C16.9684 28.8618 17.671 28.2496 18.0242 27.8443C18.2989 27.5399 18.4957 27.5282 18.4464 28.0013C18.1744 28.8618 17.8014 29.1962 17.1939 29.2377C16.702 29.1932 16.6964 29.5809 17.0551 29.8442C17.8764 30.4238 18.4722 29.4357 18.75 28.8382C18.9465 28.2969 19.2506 28.5546 19.2821 28.9979C19.2881 29.5927 18.8621 30.2097 18.5107 30.5144C18.1594 30.8192 20.0254 32.7565 20.0254 32.7565C20.0254 32.7565 21.8916 30.8192 21.5404 30.5144ZM24.041 8.575C23.7506 8.575 23.5711 8.67675 23.5711 8.80016C23.5711 8.9255 23.7506 9.02766 24.041 9.02766C24.3299 9.02766 24.5131 8.91625 24.5131 8.79075C24.5131 8.66733 24.3297 8.575 24.041 8.575ZM16.0099 8.575C16.3004 8.575 16.4799 8.67675 16.4799 8.80016C16.4799 8.9255 16.3004 9.02766 16.0099 9.02766C15.7212 9.02766 15.5379 8.91625 15.5379 8.79075C15.5379 8.66733 15.7214 8.575 16.0099 8.575Z" fill="black"/>
</g>
</g>
</g>
<defs>
<clipPath id="clip0_16699_261931">
<rect width="40" height="40" fill="white"/>
</clipPath>
</defs>
</svg>
