<svg width="40" height="40" viewBox="0 0 40 40" fill="none" xmlns="http://www.w3.org/2000/svg">
<g clip-path="url(#clip0_16699_261954)">
<mask id="mask0_16699_261954" style="mask-type:luminance" maskUnits="userSpaceOnUse" x="0" y="0" width="40" height="40">
<path d="M40 0H0V40H40V0Z" fill="white"/>
</mask>
<g mask="url(#mask0_16699_261954)">
<mask id="mask1_16699_261954" style="mask-type:luminance" maskUnits="userSpaceOnUse" x="0" y="0" width="40" height="40">
<path d="M40 20C40 8.95433 31.0457 0 20 0C8.95433 0 0 8.95433 0 20C0 31.0457 8.95433 40 20 40C31.0457 40 40 31.0457 40 20Z" fill="white"/>
</mask>
<g mask="url(#mask1_16699_261954)">
<path d="M-10 0H50V40H-10V0Z" fill="black"/>
<path d="M-10 0H50V20H-10V0Z" fill="#CC092F"/>
<path fill-rule="evenodd" clip-rule="evenodd" d="M16.0566 13.7201H18.4996L19.2404 11.4177L20.001 13.7201H22.4437L20.4815 15.1818L21.2421 17.5242L19.2404 16.1026L17.2583 17.5242L18.019 15.1818L16.0566 13.7201Z" fill="#FFCB00"/>
<path fill-rule="evenodd" clip-rule="evenodd" d="M24.9877 26.3138L23.0659 24.8118C25.0077 23.2302 26.2694 20.8075 26.2694 18.1048C26.2694 13.9803 23.3264 10.5165 19.4419 9.69558L19.7423 8.29392C20.2829 8.41408 20.9172 8.64175 21.4377 8.82167L21.9384 7.98112C22.4784 8.24112 23.0796 8.50133 23.5798 8.82167L23.1996 9.72283C23.7003 10.0433 24.3046 10.5396 24.6407 10.9303L25.3924 10.3431C25.7929 10.7833 26.2737 11.2436 26.6139 11.7245L25.9333 12.4253C26.3729 13.0706 26.5428 13.3676 26.8669 14.1111L27.8219 13.8871C28.0024 14.4476 28.2763 15.1338 28.3767 15.7143L27.4723 16.0698C27.5803 16.5208 27.7201 17.3087 27.7111 17.9713C27.7104 18.0113 27.7074 18.0565 27.7074 18.0966L28.6519 18.2313C28.6119 18.8122 28.5921 19.473 28.4716 20.0536H27.4907C27.3507 20.6538 27.1699 21.3882 26.9499 21.9486L27.7706 22.4293C27.5104 22.9498 27.2504 23.5706 26.9099 24.0712L26.0091 23.691C25.6684 24.1912 25.2884 24.6716 24.8679 25.1123L25.4483 25.873C25.2884 26.013 25.1481 26.1535 24.9877 26.3138ZM20.7636 26.1333L22.2151 27.0081C22.0797 27.1318 21.6743 27.3418 21.5668 27.3843L21.8041 28.2953C21.2437 28.476 20.6428 28.736 20.0224 28.8562L19.6622 27.9553C19.0814 28.0753 18.5011 28.1553 17.9004 28.1553L17.7799 29.0963C17.2194 29.0563 16.5388 29.0963 15.9181 28.9562V28.0155C15.3573 27.9151 14.8168 27.7751 14.2964 27.5947L13.8358 28.4162C13.3553 28.2155 12.7147 27.9752 12.1939 27.6551L12.5344 26.7542C12.1138 26.5337 11.7334 26.2536 11.3731 25.9728L12.2741 24.8316C13.7559 26.0131 15.6177 26.7135 17.6599 26.7135C18.7413 26.7135 19.8021 26.5336 20.7636 26.1333Z" fill="#FFCB00"/>
<path fill-rule="evenodd" clip-rule="evenodd" d="M26.8121 28.4542L17.2301 21.1623L17.1429 21.2867L26.7001 28.5914L26.1329 29.3012L16.816 23.3253C14.2934 21.7436 14.3935 20.5023 14.9141 19.1608L15.3548 18.0798C15.595 19.4813 17.0363 20.5427 18.5379 21.7237L26.9989 28.2234L26.8121 28.4542ZM29.2178 30.6277C29.1983 30.6277 29.1789 30.6237 29.1608 30.6162C29.1426 30.6087 29.1263 30.5978 29.1124 30.5838C29.0986 30.5701 29.0878 30.5536 29.0803 30.5354C29.0729 30.5173 29.069 30.4979 29.0691 30.4784C29.069 30.4588 29.0729 30.4396 29.0804 30.4214C29.0879 30.4034 29.0988 30.3871 29.1126 30.3732C29.1264 30.3593 29.1429 30.3484 29.1609 30.3409C29.1789 30.3334 29.1983 30.3297 29.2178 30.3297C29.3003 30.3297 29.3671 30.3963 29.3671 30.4784C29.3671 30.4981 29.3633 30.5174 29.3558 30.5356C29.3483 30.5537 29.3373 30.5702 29.3234 30.5839C29.3095 30.5978 29.293 30.6088 29.2749 30.6163C29.2569 30.6238 29.2374 30.6277 29.2178 30.6277ZM28.6451 30.2072C28.6055 30.2071 28.5678 30.1913 28.5398 30.1634C28.5119 30.1356 28.496 30.0977 28.4959 30.0582C28.4959 30.0287 28.5046 29.9998 28.521 29.9753C28.5374 29.9508 28.5608 29.9317 28.5879 29.9203C28.6151 29.9091 28.6451 29.9062 28.674 29.9118C28.7029 29.9176 28.7295 29.9318 28.7504 29.9527C28.7713 29.9734 28.7854 30.0001 28.7913 30.0289C28.7969 30.0578 28.794 30.0878 28.7828 30.1151C28.7715 30.1423 28.7524 30.1656 28.7279 30.1819C28.7034 30.1983 28.6745 30.2072 28.6451 30.2072ZM28.0591 29.7401C27.9769 29.7401 27.91 29.6734 27.91 29.5913C27.9111 29.5526 27.9274 29.5158 27.9553 29.4888C27.983 29.4618 28.0203 29.4467 28.059 29.4467C28.0979 29.4467 28.135 29.4618 28.1629 29.4888C28.1906 29.5158 28.2069 29.5526 28.208 29.5913C28.208 29.6734 28.1414 29.7401 28.0591 29.7401ZM30.0294 30.5667L27.1584 28.3424L26.3241 29.4176L28.8181 31.1666C29.0184 31.3066 29.0381 31.9478 29.7785 32.0481C30.0794 32.0878 30.2791 31.8673 30.2791 31.8673C30.6018 31.4746 30.5139 30.9338 30.0294 30.5667Z" fill="#FFCB00"/>
</g>
</g>
</g>
<defs>
<clipPath id="clip0_16699_261954">
<rect width="40" height="40" fill="white"/>
</clipPath>
</defs>
</svg>
