<svg width="40" height="40" viewBox="0 0 40 40" fill="none" xmlns="http://www.w3.org/2000/svg">
<g clip-path="url(#clip0_16699_261968)">
<mask id="mask0_16699_261968" style="mask-type:luminance" maskUnits="userSpaceOnUse" x="0" y="0" width="40" height="40">
<path d="M40 0H0V40H40V0Z" fill="white"/>
</mask>
<g mask="url(#mask0_16699_261968)">
<mask id="mask1_16699_261968" style="mask-type:luminance" maskUnits="userSpaceOnUse" x="0" y="0" width="40" height="40">
<path d="M0 0H40V40H0V0Z" fill="white"/>
</mask>
<g mask="url(#mask1_16699_261968)">
<path d="M0 0H40V40H0V0Z" fill="#006FBB"/>
<path d="M21.3466 28.7999C20.8933 28.7999 20.4399 28.8799 19.9999 29.0132C19.5599 28.8799 19.1066 28.7999 18.6533 28.7999C15.4399 28.7999 14.4266 31.3599 11.2266 29.6932C11.8533 30.6532 13.4133 31.1732 14.3333 31.1732C16.6933 31.1732 17.5466 29.2132 19.0133 29.2132C19.1333 29.2132 19.2533 29.2266 19.3733 29.2399C17.5733 29.9999 16.1066 31.4532 16.1199 31.4799C16.1466 31.5199 16.7333 32.0532 16.7333 32.0532C16.7333 32.0532 18.3466 30.0799 19.9866 29.4132C21.6266 30.0799 23.2399 32.0532 23.2399 32.0532C23.2399 32.0532 23.8266 31.5199 23.8533 31.4799C23.8666 31.4532 22.4133 29.9866 20.5999 29.2399C20.7199 29.2132 20.8399 29.2132 20.9599 29.2132C22.4266 29.2132 23.2799 31.1732 25.6399 31.1732C26.5599 31.1732 28.1199 30.6666 28.7466 29.6932C25.5866 31.3599 24.5599 28.7999 21.3466 28.7999ZM10.3199 26.0266C9.57325 24.8399 9.55992 23.0666 9.45325 21.9332C9.35992 21.0266 9.27992 20.4399 8.86659 19.5732C9.03992 20.7199 8.61325 21.5199 8.55992 22.4666C8.51992 23.0799 8.63992 23.7599 9.18659 24.6399C8.82659 24.3332 8.39992 23.4799 7.71992 22.7866C6.81325 21.8666 5.89325 21.0799 5.82659 19.8399C5.71992 19.9466 5.62659 22.0666 6.78659 23.3732C7.74659 24.4666 9.39992 25.4132 10.3199 26.0266ZM8.15992 22.7466C8.02659 21.1866 8.27992 20.7332 8.53325 19.9332C8.81325 19.0399 9.13325 18.1066 9.07992 16.3332C8.89325 17.6532 7.06659 18.8132 7.66659 21.3332C7.50659 20.9599 7.35992 19.7599 6.89325 18.7466C6.46659 17.8399 6.02659 16.8532 6.17325 15.7332C5.86659 16.2266 5.54659 17.9466 6.09325 19.6399C6.47992 20.8399 7.37325 21.4799 8.15992 22.7466ZM13.1199 28.2532C12.4133 27.6399 11.9733 26.9999 11.5466 25.5066C11.1066 23.9732 9.89325 22.5732 9.79992 22.4799C10.5999 24.1732 9.86659 25.8666 11.8533 27.4932C11.3999 27.2399 10.5199 26.4132 9.05325 25.7999C8.10659 25.4132 7.11992 24.6666 6.71992 23.7066C6.77325 24.5599 7.38659 25.8399 9.10659 27.0799C10.6266 28.1866 11.3199 27.6399 13.1199 28.2532ZM7.79992 15.6532C8.53325 13.9199 11.1999 13.4532 11.1199 11.0132C10.7866 12.3999 8.98659 12.4399 8.17325 14.3732C8.97325 12.2666 8.63992 11.0666 9.85325 10.2266C8.55992 10.6266 8.03992 11.4532 7.85325 12.3866C7.62659 13.4666 7.91992 14.5599 7.79992 15.6532ZM9.02659 12.7066C9.15992 12.5599 9.49325 12.2799 9.81325 12.0132C10.1733 11.7066 10.5066 11.4532 10.9199 10.8399C11.7199 9.69325 12.1333 9.26658 12.5599 8.83991C12.5599 8.82658 12.2933 8.94658 11.9333 9.09325C11.3999 9.30658 10.6666 9.63991 10.2133 10.1066C9.51992 10.8132 9.30659 11.6532 9.17325 12.2132C9.13325 12.3999 8.98659 12.6799 9.02659 12.7066ZM16.8266 28.8799C14.2266 28.4132 14.1866 27.0666 11.7733 25.4666C12.7333 26.6266 12.6133 28.2532 14.8666 28.7866C12.3333 28.2799 10.4133 28.8799 8.82659 27.2932C9.66659 28.7332 10.8799 29.3732 12.0933 29.5732C13.8133 29.8532 15.1333 29.1066 16.8266 28.8799ZM9.93325 13.6399C9.45325 14.7866 7.63992 15.3066 7.43992 17.3866C7.69325 14.2399 6.82659 13.5599 7.70659 12.0399C6.95992 12.7199 6.39992 14.1199 6.39992 15.1999C6.41325 16.8532 7.10659 17.0666 7.38659 19.1866C7.81325 16.7066 9.66659 16.2932 9.93325 13.6399ZM29.0799 10.8399C29.5066 11.4532 29.8266 11.6932 30.1866 12.0132C30.5066 12.2799 30.8399 12.5599 30.9733 12.7066C31.0133 12.6799 30.8666 12.3999 30.8266 12.1999C30.6933 11.6399 30.4799 10.7999 29.7866 10.0932C29.3333 9.62658 28.5999 9.30658 28.0666 9.07991C27.7199 8.93325 27.4399 8.81325 27.4399 8.82658C27.8666 9.26658 28.2799 9.69325 29.0799 10.8399ZM31.8266 14.3732C31.0133 12.4399 29.2132 12.3999 28.8799 11.0132C28.7999 13.4532 31.4666 13.9199 32.1999 15.6532C32.0666 14.5599 32.3599 13.4666 32.1466 12.3866C31.9599 11.4532 31.4399 10.6266 30.1466 10.2266C31.3733 11.0532 31.0266 12.2532 31.8266 14.3732ZM32.5599 17.3732C32.3599 15.3066 30.5466 14.7866 30.0666 13.6266C30.3333 16.2799 32.1999 16.6932 32.6133 19.1732C32.8933 17.0532 33.5866 16.8399 33.5999 15.1866C33.6133 14.1066 33.0399 12.6932 32.2933 12.0132C33.1733 13.5466 32.3066 14.2266 32.5599 17.3732ZM33.1066 18.7466C32.6399 19.7466 32.4933 20.9599 32.3333 21.3332C32.9333 18.8132 31.1066 17.6532 30.9199 16.3332C30.8666 18.1066 31.1866 19.0532 31.4666 19.9332C31.7199 20.7332 31.9599 21.1866 31.8399 22.7466C32.6266 21.4799 33.5333 20.8399 33.9066 19.6399C34.4533 17.9466 34.1333 16.2266 33.8266 15.7332C33.9866 16.8532 33.5333 17.8399 33.1066 18.7466ZM30.5466 21.9332C30.4399 23.0666 30.4266 24.8399 29.6799 26.0266C30.6133 25.4132 32.2533 24.4666 33.2266 23.3732C34.3866 22.0666 34.2799 19.9466 34.1866 19.8399C34.1199 21.0666 33.1999 21.8666 32.2933 22.7866C31.6133 23.4799 31.1866 24.3332 30.8266 24.6399C31.3733 23.7599 31.4799 23.0799 31.4533 22.4666C31.3999 21.5199 30.9599 20.7199 31.1466 19.5732C30.7199 20.4399 30.6399 21.0266 30.5466 21.9332ZM30.9466 25.8132C29.4799 26.4266 28.5999 27.2532 28.1466 27.5066C30.1333 25.8799 29.3999 24.1866 30.1999 22.4932C30.1066 22.5866 28.9066 23.9732 28.4533 25.5199C28.0266 27.0132 27.5866 27.6532 26.8799 28.2666C28.6799 27.6532 29.3733 28.2132 30.9066 27.0932C32.6133 25.8532 33.2399 24.5732 33.2933 23.7199C32.8799 24.6799 31.8933 25.4132 30.9466 25.8132ZM28.2266 25.4532C25.8133 27.0666 25.7866 28.3999 23.1733 28.8666C24.8666 29.0932 26.1866 29.8532 27.9066 29.5599C29.1333 29.3599 30.3333 28.7199 31.1733 27.2799C29.5866 28.8666 27.6666 28.2666 25.1333 28.7732C27.3866 28.2399 27.2666 26.6266 28.2266 25.4532ZM11.3599 20.9999C11.4533 20.8799 11.0933 20.2266 11.0933 20.2266C10.9733 20.2399 11.2666 21.1199 11.3599 20.9999ZM25.6799 18.7199V18.5866L25.5866 18.5466L25.5199 18.5732C25.5199 18.5732 25.4933 18.6266 25.5199 18.6399C25.5466 18.6532 25.5866 18.7199 25.6399 18.7332C25.6799 18.7332 25.6799 18.7199 25.6799 18.7199ZM24.0266 15.6132L24.0533 15.5332L23.9599 15.4932H23.9066C23.8933 15.4932 23.8666 15.5599 23.8666 15.5599H23.9199L24.0266 15.6132ZM21.5733 9.62658C21.5599 9.61325 21.5333 9.61325 21.5733 9.62658ZM19.3999 21.2132C19.3999 21.2666 19.4399 21.2666 19.4399 21.2666H19.5866L19.6266 21.2532C19.6666 21.2399 19.6799 21.2132 19.6933 21.1866C19.6933 21.1599 19.7066 21.1332 19.7333 21.1066C19.7599 21.0799 19.6133 21.0132 19.6133 21.0132H19.4799C19.4133 21.0132 19.4799 21.0132 19.3866 21.0799C19.3066 21.1732 19.3999 21.1466 19.3999 21.2132ZM19.7466 19.6266C19.7466 19.6266 19.7333 19.6799 19.7466 19.7599C19.7599 19.8399 19.7466 19.8399 19.7466 19.8399C19.7466 19.8399 19.7999 19.8666 19.8266 19.8666C19.8399 19.8666 19.8666 19.8132 19.8666 19.8132V19.6532C19.8666 19.6532 19.8399 19.6399 19.7866 19.6266C19.7199 19.5999 19.7466 19.6266 19.7466 19.6266ZM19.9999 7.94658C14.4266 7.94658 9.89325 12.4799 9.89325 18.0532C9.89325 23.6266 14.4266 28.1599 19.9999 28.1599C25.5733 28.1599 30.1066 23.6266 30.1066 18.0532C30.1066 12.4799 25.5733 7.94658 19.9999 7.94658ZM29.7466 17.8666H28.1333C28.0965 15.8311 27.286 13.886 25.8666 12.4266L27.0133 11.2799C28.6666 12.9999 29.7066 15.3199 29.7466 17.8666ZM26.4266 22.1866C26.4266 22.1866 26.4133 22.1466 26.3733 22.0799C26.3333 22.0132 26.3733 21.9999 26.3733 21.9999L26.3066 21.8532C26.3066 21.8532 26.2399 21.7999 26.2133 21.7866H26.1066C26.0533 21.7866 26.0399 21.8532 26.0399 21.8532V22.2132C26.0399 22.2399 26.0133 22.2799 26.0133 22.2799L25.9199 22.4399L25.8666 22.5199C25.8533 22.5466 25.8533 22.5732 25.8666 22.5866V22.7066L25.9599 22.7466L25.9999 22.7732C25.9999 22.7732 25.9866 22.8132 25.9599 22.8532C25.9333 22.8799 26.0133 22.9332 26.0133 22.9332H26.0533C25.9199 23.0932 25.7733 23.2532 25.6266 23.4132L25.3866 23.1732V22.8932L25.3066 22.8666C25.3066 22.8666 25.2666 22.8399 25.2533 22.8266C25.2399 22.8266 25.1466 22.8132 25.1466 22.8132H25.0266L24.9066 22.6932C24.9733 22.4799 25.1866 21.8666 25.1866 21.6132C25.8801 20.6176 26.265 19.4397 26.2933 18.2266H27.7866C27.7466 19.7732 27.2666 21.2132 26.4399 22.4132H26.4266V22.3732C26.4266 22.3732 26.4666 22.2799 26.4666 22.2532C26.4666 22.2132 26.4266 22.1866 26.4266 22.1866ZM25.3733 23.6666C25.3199 23.7066 25.2799 23.7599 25.2266 23.7999C25.1199 23.8132 25.0799 23.8132 25.0799 23.8132C25.0799 23.8132 25.0533 23.8266 25.0533 23.7999C25.0533 23.7732 25.0666 23.6666 25.0666 23.6666C25.0666 23.6666 25.0933 23.5466 25.1066 23.5332C25.1295 23.5071 25.1517 23.4805 25.1733 23.4532L25.3733 23.6666ZM24.1466 21.9466L23.8799 21.6799H23.9333C23.9333 21.6799 23.9866 21.6666 24.0666 21.6799C24.1466 21.6932 24.1999 21.6932 24.1999 21.6932C24.1999 21.6932 24.2266 21.6666 24.2666 21.6532C24.3066 21.6399 24.4399 21.4666 24.4666 21.2932C24.4933 21.1199 24.5466 21.0399 24.5466 21.0399C24.5466 21.0399 24.5733 21.0666 24.5999 20.9199L24.6266 20.7732C24.6266 20.7732 24.6399 20.7466 24.6399 20.7199V20.3599L24.6133 20.2799L24.5599 20.2266H24.5333C24.5333 20.2266 24.5333 20.2799 24.4933 20.3199C24.4666 20.3332 24.4533 20.3599 24.4266 20.3866L24.3599 20.3999L24.3333 20.4266L24.3066 20.5066C24.3066 20.5066 24.2933 20.5199 24.2933 20.5332C24.2933 20.5466 24.2933 20.5332 24.2799 20.5999C24.2666 20.6666 24.2799 20.6399 24.2533 20.6932C24.2133 20.7466 24.2533 20.7199 24.2133 20.7466C24.1866 20.7732 24.1733 20.7866 24.1466 20.7866C24.1199 20.7999 24.1466 20.8132 24.0666 20.8132H23.9199C23.8933 20.8132 23.8666 20.7732 23.8666 20.7732C23.8666 20.7732 23.8133 20.7732 23.8933 20.7466C23.9733 20.7199 24.0133 20.6532 24.0133 20.6532C24.0133 20.6532 24.0933 20.5866 24.1333 20.5732C24.1599 20.5599 24.2266 20.5199 24.2399 20.5066C24.2533 20.4932 24.2666 20.4666 24.2799 20.4532C24.2933 20.4399 24.2799 20.3866 24.2799 20.3866C24.2799 20.3866 24.2933 20.3199 24.3466 20.2932C24.3866 20.2666 24.4266 20.2799 24.4533 20.2266L24.4799 20.1732C24.4799 20.1732 24.5599 20.1066 24.5733 20.0399C24.5733 19.9866 24.6266 19.8666 24.6266 19.8666C24.6266 19.8666 24.6266 19.8132 24.6399 19.7599C24.6533 19.7199 24.7066 19.6532 24.7066 19.6532L24.7866 19.5599C24.7866 19.5599 24.8666 19.4666 24.8933 19.4666C24.9066 19.4666 24.9733 19.4266 24.9733 19.4266C24.9733 19.4266 24.9733 19.4532 24.9866 19.3866V19.2399L25.0666 19.2266C25.0666 19.2266 25.1333 19.2399 25.1599 19.2266C25.1866 19.2132 25.2666 19.1999 25.2666 19.1999C25.2666 19.1999 25.3199 19.1599 25.3466 19.1466C25.3829 19.1256 25.4185 19.1034 25.4533 19.0799V19.0666L25.5333 19.0399L25.5999 18.9732V18.9466L25.6399 18.8532C25.6399 18.8532 25.5733 18.8132 25.5733 18.7599V18.6799L25.5333 18.6532C25.5333 18.6532 25.5599 18.6532 25.4799 18.6399L25.3333 18.6666C25.3333 18.6666 25.2666 18.6399 25.2399 18.6132C25.219 18.5769 25.1967 18.5413 25.1733 18.5066L25.1199 18.3332L25.0533 18.2266H25.9333C25.906 19.2387 25.6166 20.2265 25.0933 21.0932C25.0933 21.0532 25.0799 21.0399 25.0799 21.0399L25.0266 21.0266L24.9866 21.0532C24.9866 21.0532 24.9599 21.1066 24.9199 21.1732C24.8799 21.2399 24.8533 21.2932 24.8266 21.3732C24.7999 21.4532 24.8133 21.4666 24.7599 21.5066C24.7199 21.5466 24.6533 21.5999 24.6266 21.6666C24.5999 21.7199 24.5599 21.7732 24.5599 21.7732L24.4799 21.7999C24.4799 21.7999 24.4133 21.7999 24.3599 21.8266C24.3066 21.8532 24.2666 21.8799 24.2666 21.8799C24.2666 21.8799 24.2133 21.9332 24.1866 21.9466L24.1599 21.9599C24.1733 21.9466 24.1866 21.9332 24.1466 21.9466ZM20.4533 20.7199C20.4533 20.7199 20.4533 20.7066 20.4933 20.7199C20.5466 20.7332 20.5999 20.7199 20.5999 20.7199C20.5999 20.7199 20.6266 20.6799 20.6533 20.6799H20.6666L20.7866 20.8399L20.8799 20.9332C20.8799 20.9332 20.9333 20.9599 20.9466 20.9332C20.9599 20.9066 21.0266 20.8932 21.0266 20.8666V20.7332C21.0266 20.7332 21.0133 20.6132 21.0133 20.5999V20.5199C21.0133 20.5199 20.9866 20.4399 20.9599 20.4132C20.9333 20.3866 20.9066 20.3466 20.9066 20.3466C20.9066 20.3466 20.9199 20.2932 20.9333 20.2932C20.9466 20.2932 21.0133 20.2532 21.0133 20.2532L21.0399 20.2799C21.0933 20.3199 21.0666 20.3199 21.1199 20.3332C21.146 20.3406 21.1728 20.345 21.1999 20.3466C21.2399 20.3199 21.2666 20.3066 21.2666 20.3066L21.3599 20.1999C21.3599 20.1999 21.4533 20.1599 21.4533 20.1999C21.4533 20.2266 21.4933 20.2399 21.4533 20.2666C21.4266 20.2932 21.3999 20.3066 21.3733 20.3332C21.3466 20.3599 21.3066 20.3332 21.2799 20.3866L21.2533 20.4532L21.3599 20.5199C21.3599 20.5199 21.4266 20.5199 21.3599 20.5466C21.2933 20.5732 21.3466 20.5599 21.2933 20.5732L21.2533 20.5866C21.2533 20.5866 21.2266 20.6132 21.2399 20.6399C21.2399 20.6666 21.2399 20.6799 21.2666 20.7066C21.2799 20.7332 21.2933 20.7332 21.3066 20.7732C21.3066 20.7999 21.2266 20.8532 21.2266 20.8532L21.1866 20.8666C21.1866 20.8666 21.1466 20.9199 21.1199 20.9332C21.1066 20.9466 21.0266 20.9732 21.0266 20.9732C21.0266 20.9732 20.9866 20.9999 20.9333 20.9999H20.7599C20.7599 20.9999 20.7199 20.9466 20.7199 20.9066C20.7199 20.8666 20.7066 20.8266 20.7066 20.8266C20.7066 20.8266 20.6666 20.7466 20.6533 20.7732C20.6399 20.7866 20.5733 20.8266 20.5733 20.8266C20.5733 20.8266 20.5599 20.8666 20.5599 20.8932C20.5599 20.9199 20.5066 20.8799 20.5733 20.9599L20.6399 21.0532V21.1066L20.5866 21.1332C20.5866 21.1332 20.5333 21.1332 20.4933 21.1732C20.4666 21.2132 20.4266 21.2532 20.4266 21.2532C20.4266 21.2532 20.3866 21.2799 20.3599 21.3066L20.3333 21.3332L20.2533 21.3599C20.2422 21.334 20.2333 21.3072 20.2266 21.2799C20.2266 21.2799 20.1999 21.2532 20.1866 21.2266V20.3999C20.2584 20.3976 20.3298 20.3887 20.3999 20.3732V20.6532C20.3866 20.6799 20.4533 20.7199 20.4533 20.7199ZM20.2133 22.1866V22.1466L20.2266 22.1332C20.2266 22.1199 20.3066 22.0399 20.3999 21.9732C20.4266 21.9599 20.4399 21.9466 20.4399 21.9332H20.3999C20.3999 21.9332 20.4533 21.9066 20.4399 21.9332C20.4933 21.9332 20.5733 21.9199 20.5866 21.9199H20.6399C20.6533 21.9199 20.6799 21.9199 20.6933 21.9066C20.7066 21.8932 20.7866 21.8399 20.7866 21.8399H20.8399C20.859 21.846 20.877 21.855 20.8933 21.8666L20.9599 21.9199L21.0399 21.9466C21.0666 21.9599 21.1066 21.9599 21.1466 21.9732L21.2266 21.9999H21.2399C20.9066 22.1066 20.5599 22.1732 20.2133 22.1866ZM20.7599 22.6266C20.7333 22.6399 20.7199 22.6399 20.6533 22.6532C20.5999 22.6666 20.5999 22.6532 20.5066 22.6132C20.4666 22.5999 20.4666 22.5599 20.4666 22.5199C20.5466 22.5066 20.6266 22.5066 20.7066 22.4932C20.7199 22.5199 20.7599 22.5466 20.7866 22.5732C20.8533 22.5999 20.7866 22.6132 20.7599 22.6266ZM21.1866 21.8532H21.1733C21.1599 21.8532 21.0666 21.7866 21.0666 21.7866L21.0533 21.7199C21.0399 21.6532 21.0533 21.6932 21.0533 21.6932H21.1466L21.2133 21.7199H21.2533C21.2933 21.7199 21.3199 21.7332 21.3333 21.7332C21.3466 21.7332 21.3733 21.7332 21.4266 21.7466H21.6266L21.7333 21.7999C21.6799 21.8266 21.6266 21.8532 21.5733 21.8666H21.3599C21.3199 21.8666 21.2933 21.8666 21.2666 21.8532C21.2533 21.8666 21.2399 21.8666 21.1866 21.8532ZM21.2533 24.2132H21.2933C21.3333 24.1999 21.3733 24.2666 21.3066 24.3599C21.2533 24.4532 21.1866 24.5066 21.2666 24.5466C21.3466 24.5866 21.5599 24.5066 21.7199 24.6266C21.8799 24.7466 21.9733 24.7999 21.9599 24.8666C21.9466 24.9466 21.8399 25.0132 21.8399 25.0132C21.8399 25.0132 21.6799 25.1732 21.8266 25.3066C21.9599 25.4399 22.2533 25.3999 22.2799 25.4532C22.2799 25.4666 22.3066 25.4666 22.3199 25.4799C21.6399 25.6932 20.9199 25.8132 20.1599 25.8266V24.3332C20.5333 24.3199 20.8933 24.2799 21.2533 24.2132ZM22.2533 22.1332C22.1866 22.1599 22.1333 22.1866 22.1333 22.1866C22.1333 22.1866 22.0133 22.1999 21.9599 22.2532C21.9341 22.2767 21.9117 22.3036 21.8933 22.3332V22.4932C21.8933 22.4932 21.7866 22.4532 21.6799 22.4932C21.5733 22.5332 21.4799 22.5332 21.4799 22.5332C21.4799 22.5332 21.3999 22.5466 21.3333 22.5332C21.2666 22.5199 21.1466 22.5332 21.1466 22.5332L21.0266 22.4799C21.0266 22.4799 21.0133 22.5332 21.0266 22.4266V22.3999C21.7599 22.2266 22.4133 21.8666 22.9599 21.3866L22.9866 21.4532C22.9866 21.4532 22.9733 21.4932 22.9866 21.5332C22.9999 21.5599 22.9866 21.5199 22.9999 21.5599C23.0133 21.6132 23.0666 21.5732 22.9999 21.6666C22.9333 21.7599 22.9866 21.7066 22.9333 21.7599C22.8933 21.7999 22.8266 21.8399 22.8266 21.8399C22.8266 21.8399 22.7333 21.9066 22.6933 21.9466C22.6666 21.9866 22.6266 21.9999 22.6266 21.9999C22.6266 21.9999 22.5599 22.0532 22.4933 22.0799C22.4266 22.1066 22.3066 22.1199 22.3066 22.1199C22.3066 22.1199 22.3199 22.1066 22.2533 22.1332ZM21.7599 18.6266L21.8399 18.4666L21.9466 18.5199C21.9333 18.5866 21.9066 18.6532 21.8933 18.7199H21.8799L21.7599 18.6266ZM22.1866 21.3332C22.1866 21.2932 22.2133 21.2266 22.2133 21.1999C22.2133 21.1866 22.2399 21.0932 22.2399 21.0932C22.2399 21.0932 22.2533 21.0532 22.2933 21.0266C22.3333 20.9999 22.4266 21.1199 22.4799 21.0932C22.5333 21.0666 22.5066 20.9332 22.5333 20.9332C22.5466 20.9332 22.6133 20.9599 22.6133 20.9599L22.6933 20.9866L22.7333 21.0132L22.7599 21.0399V21.1199C22.6133 21.2532 22.4399 21.3866 22.2799 21.4932L22.2399 21.4532C22.2266 21.4532 22.1866 21.3732 22.1866 21.3332ZM23.0533 20.8532L22.8933 20.6932V20.6666C22.8933 20.6666 23.0133 20.6532 23.0533 20.6666C23.0933 20.6799 23.1199 20.6666 23.1199 20.6932C23.1199 20.7199 23.1333 20.7199 23.1199 20.7599C23.1066 20.7999 23.0933 20.7866 23.0799 20.8132C23.0799 20.8266 23.0666 20.8399 23.0533 20.8532ZM23.1199 15.3866C23.1199 15.3866 23.0266 15.3999 23.0266 15.4132V15.5066C23.0266 15.5599 23.0133 15.6132 23.0133 15.6132C23.0133 15.6132 22.9466 15.6266 22.9333 15.6132C22.9199 15.5999 22.8399 15.5599 22.8399 15.5599C22.8399 15.5599 22.8266 15.5466 22.7866 15.5466H22.7466L23.0666 15.2266C23.1199 15.2932 23.1866 15.3599 23.2399 15.4266H23.1733C23.1599 15.4399 23.1199 15.3866 23.1199 15.3866ZM23.2266 15.7466C23.2266 15.7199 23.2399 15.6532 23.2399 15.6532C23.2399 15.6532 23.2666 15.5732 23.2799 15.5466C23.2799 15.5466 23.2799 15.5332 23.2933 15.5332C23.3733 15.6399 23.4533 15.7599 23.5333 15.8799L23.4266 15.8266H23.2933L23.3466 15.8932L23.4266 15.9466C23.4266 15.9466 23.4799 16.0266 23.4533 16.0532C23.4399 16.0666 23.4133 16.0932 23.3999 16.0932C23.3866 16.0932 23.3199 16.0666 23.3199 16.0666C23.3199 16.0666 23.3066 16.0666 23.2933 15.9999C23.2943 15.9626 23.285 15.9257 23.2666 15.8932L23.1999 15.8666L23.1866 15.8266C23.2051 15.8028 23.2188 15.7757 23.2266 15.7466ZM23.2133 21.7999L23.2266 21.7199L23.3333 21.6799C23.3333 21.6799 23.3466 21.6932 23.3733 21.7066H23.4133L23.6533 21.9466H23.4666L23.3866 21.9332C23.3333 21.9199 23.2933 21.9199 23.2399 21.9066L23.1866 21.8932V21.7999H23.2133ZM23.3066 14.9866L24.3199 13.9732C24.5866 14.2532 24.8266 14.5599 25.0399 14.8932C25.0266 14.8932 24.9333 14.8266 24.9333 14.8132C24.9259 14.7757 24.9123 14.7397 24.8933 14.7066C24.8799 14.6932 24.9199 14.7199 24.8799 14.6932C24.8533 14.6666 24.7999 14.6932 24.7999 14.6932C24.7999 14.6932 24.8133 14.7199 24.7999 14.7199H24.7333C24.7333 14.7199 24.6799 14.6932 24.6533 14.6932C24.6266 14.6932 24.5733 14.6666 24.5466 14.6666C24.5333 14.6666 24.4666 14.6399 24.4666 14.6399C24.4666 14.6932 24.4933 14.7466 24.5333 14.7732C24.5599 14.7866 24.5866 14.7732 24.5999 14.8266C24.6133 14.8932 24.6799 14.8932 24.6799 14.8932L24.7333 14.9599C24.7333 14.9599 24.7466 14.9199 24.7599 14.8932C24.7599 14.8666 24.7733 14.8532 24.7999 14.8532C24.8266 14.8532 24.8533 14.7466 24.8666 14.8266L24.8799 14.9199C24.8799 14.9199 24.8533 14.9332 24.8399 14.9732L24.8266 15.0132L24.8533 15.0932C24.8533 15.0932 24.9066 15.0799 24.9199 15.0932C24.9333 15.1066 24.9866 15.0932 25.0133 15.0932C25.0266 15.0932 25.0399 15.1466 25.0933 15.0666C25.1066 15.0399 25.1199 15.0266 25.1199 15.0132C25.1599 15.0932 25.2133 15.1599 25.2533 15.2399H25.1199C25.0399 15.2399 24.9866 15.2266 24.9733 15.1999C24.9599 15.1732 24.9733 15.1599 24.9199 15.1599C24.9044 15.1599 24.8891 15.1635 24.8752 15.1705C24.8613 15.1774 24.8493 15.1875 24.8399 15.1999H24.7199V15.2399C24.7199 15.2799 24.6799 15.2132 24.7199 15.2932C24.7599 15.3599 24.7733 15.3866 24.7733 15.3999C24.7733 15.4132 24.8133 15.4266 24.8266 15.4532C24.8399 15.4799 24.8266 15.4266 24.8666 15.4932C24.9066 15.5599 24.9599 15.5599 24.9599 15.5599C24.9599 15.5599 24.9599 15.5732 24.9866 15.6266C25.0133 15.6799 25.0666 15.7199 25.0666 15.7199C25.0666 15.7199 25.1333 15.7732 25.1466 15.7999C25.1466 15.8132 25.1599 15.7999 25.1866 15.8399L25.2399 15.9199C25.2399 15.9199 25.3066 15.9466 25.3466 15.9732L25.3733 15.9866C25.3733 15.9866 25.4133 15.9466 25.4133 15.9199V15.7999C25.4133 15.7999 25.3733 15.7066 25.3733 15.6799L25.3333 15.5599C25.3333 15.5599 25.3333 15.5066 25.3066 15.4666C25.2889 15.4284 25.2665 15.3925 25.2399 15.3599L25.2266 15.2666L25.2533 15.2532C25.3866 15.4932 25.4933 15.7466 25.5866 15.9999V16.1332C25.5866 16.1999 25.5999 16.3332 25.5999 16.3866C25.5999 16.4399 25.5599 16.4799 25.5599 16.4799C25.5599 16.4799 25.5199 16.4666 25.4799 16.4799C25.4399 16.4799 25.3733 16.4932 25.3733 16.4932V16.7999L25.3333 16.8666L25.2933 16.9066C25.2933 16.9066 25.2666 16.9199 25.2266 16.9066L25.1999 16.8932C25.1999 16.8932 25.1866 16.7999 25.1866 16.7599V16.4266C25.1866 16.4266 25.1333 16.3732 25.1066 16.3332C25.0799 16.3066 24.9733 16.1866 24.9733 16.1866C24.9733 16.1866 24.9333 16.1732 24.9199 16.1732C24.9066 16.1732 24.8399 16.1999 24.8399 16.1999L24.8266 16.2666C24.8266 16.2666 24.8133 16.3732 24.8133 16.3999C24.8133 16.4266 24.7733 16.4666 24.7733 16.4666C24.7733 16.4666 24.7599 16.4666 24.7333 16.4532L24.6799 16.4132C24.6799 16.4132 24.6266 16.3599 24.6266 16.3332C24.6266 16.3199 24.6399 16.2799 24.6666 16.2666L24.6933 16.1599C24.6933 16.1599 24.6399 16.1332 24.5866 16.1466C24.5466 16.1599 24.4799 16.1599 24.4799 16.1599L24.3999 16.0932L24.3333 15.9732L24.2533 15.8666L24.1999 15.8132C24.1866 15.8132 24.0933 15.7599 24.0533 15.7332C24.0133 15.7066 23.9333 15.6799 23.9333 15.6799C23.9333 15.6799 23.9199 15.7199 23.8799 15.6799C23.8666 15.6666 23.8266 15.6666 23.7999 15.6666C23.6585 15.4241 23.4933 15.1963 23.3066 14.9866ZM23.9333 13.7066C23.8933 13.6799 23.8666 13.6799 23.8666 13.6532C23.8666 13.6399 23.7866 13.5332 23.7733 13.4532V13.4399L24.0933 13.7199L24.0399 13.7732C24.0133 13.7599 23.9733 13.7332 23.9333 13.7066ZM25.6799 17.1599V17.0266C25.6799 17.0132 25.6666 16.9466 25.6799 16.9199C25.6933 16.9066 25.6799 16.8532 25.6799 16.8532C25.6799 16.8532 25.7066 16.7732 25.7333 16.7466C25.7466 16.7332 25.7733 16.7199 25.7866 16.7066C25.8799 17.0932 25.9199 17.4799 25.9333 17.8666H24.9333C24.9199 17.8399 24.9199 17.8266 24.9199 17.8132C24.9199 17.7866 24.9466 17.7466 24.9466 17.7199C24.9466 17.7066 24.9066 17.6799 24.9466 17.6532C24.9733 17.6399 24.9999 17.6132 25.0266 17.5999L25.1066 17.4666C25.1066 17.4666 25.1733 17.4266 25.1733 17.3999C25.1733 17.3866 25.1599 17.2932 25.1599 17.2932L25.1199 17.2532C25.1199 17.2532 25.1199 17.1732 25.1333 17.1466C25.1466 17.1199 25.2266 17.0666 25.2266 17.0666L25.2933 17.0532L25.3599 17.0399C25.3599 17.0399 25.3999 16.9732 25.4133 16.9466C25.4266 16.9332 25.4266 16.8266 25.4266 16.8266L25.5199 16.7332L25.5733 16.6932V16.7999C25.5733 16.7999 25.6133 16.9066 25.5733 16.9599C25.5333 17.0132 25.5199 17.0399 25.5199 17.0799V17.2132C25.5199 17.2266 25.5333 17.2666 25.5333 17.2666L25.5999 17.2932H25.6533C25.6533 17.2932 25.6666 17.2532 25.6799 17.2399V17.1599ZM26.2933 17.8666C26.2533 16.2666 25.5999 14.8132 24.5733 13.7199L25.0133 13.2799C25.0533 13.3066 25.1066 13.3332 25.1066 13.3332C25.1066 13.3332 25.1733 13.3199 25.1999 13.3599C25.2266 13.3999 25.4133 13.4399 25.4533 13.4932C25.4933 13.5466 25.5599 13.5866 25.5599 13.5866C25.5599 13.5866 25.5999 13.5732 25.6533 13.6132C25.6933 13.6666 25.9199 13.8399 25.9199 13.8399L26.0133 13.9466C26.0133 13.9466 26.1333 14.0132 26.1599 14.0532C26.1866 14.0932 26.2799 14.0932 26.2799 14.0932C26.2799 14.0932 26.3066 14.1599 26.3466 14.0932C26.3866 14.0266 26.3866 14.0266 26.3866 13.9999V13.8399L26.4399 13.7466V13.7066C27.2763 14.9406 27.7393 16.3895 27.7733 17.8799L26.2933 17.8666ZM24.7733 12.0932C24.7599 12.0666 24.6799 11.9066 24.6799 11.8932C24.6799 11.8799 24.6666 11.8532 24.6666 11.8266C24.9199 12.0132 25.1466 12.2132 25.3733 12.4266L25.2266 12.5732C25.1866 12.5599 25.1599 12.5466 25.1599 12.5466C25.1599 12.5466 25.0266 12.3599 25.0133 12.3332C25.0133 12.3199 24.8666 12.2266 24.8666 12.2266C24.8666 12.2266 24.7866 12.1332 24.7733 12.0932ZM25.5866 12.7066L25.6266 12.6666L25.7466 12.7866L25.5866 12.7066ZM20.1733 8.29325C22.7333 8.33325 25.0533 9.37325 26.7733 11.0266L25.6266 12.1732C24.3953 10.9986 22.8301 10.2347 21.1466 9.98658H21.1599C21.2133 9.95991 21.2133 9.97325 21.2399 9.93325C21.2666 9.90658 21.2799 9.93325 21.3599 9.93325C21.4266 9.93325 21.3866 9.91991 21.4266 9.93325C21.4533 9.93325 21.4933 9.90658 21.5466 9.90658H21.6666C21.7866 9.90658 21.6666 9.90658 21.6666 9.87991V9.79991C21.6666 9.79991 21.7599 9.82658 21.8133 9.82658C21.8666 9.82658 21.8533 9.77325 21.8533 9.77325L21.8133 9.71991C21.8133 9.71991 21.8533 9.73325 21.8933 9.77325C21.9333 9.81325 21.9733 9.75991 21.9999 9.77325C22.0133 9.78658 22.0799 9.74658 22.0799 9.74658V9.69325C22.0799 9.63991 22.0133 9.65325 22.0133 9.65325L21.8799 9.62658H21.5999V9.63991C21.5866 9.66658 21.4133 9.61325 21.3999 9.63991C21.3866 9.66658 21.3466 9.63991 21.3333 9.63991C21.3199 9.63991 21.2133 9.67991 21.1599 9.70658C21.1066 9.73325 20.9999 9.70658 20.9999 9.70658C20.9999 9.70658 20.9199 9.73325 20.8533 9.74658C20.7866 9.75991 20.7999 9.78658 20.7466 9.83991C20.6933 9.89325 20.6666 9.93325 20.6666 9.93325C20.5066 9.91991 20.3599 9.90658 20.1999 9.90658L20.1733 8.29325ZM20.1733 10.2666H20.2933C20.309 10.2824 20.327 10.2959 20.3466 10.3066L20.4399 10.3332C20.5333 10.3599 20.5066 10.3732 20.5199 10.3866C20.5333 10.3999 20.6666 10.4399 20.6799 10.4399H20.7466V10.3999C20.7466 10.3866 20.6933 10.3866 20.6133 10.3199C20.5999 10.3066 20.5866 10.3066 20.5866 10.2932C21.5066 10.3599 22.4133 10.5999 23.2533 10.9866H23.2399C23.1199 10.9866 23.1733 10.9732 23.1199 10.9866C23.0666 10.9999 23.1733 10.9732 23.0266 10.9866C22.8799 10.9999 22.9199 10.9866 22.8799 10.9999C22.8533 11.0132 22.7999 10.9866 22.7599 11.0132C22.7283 11.0347 22.6972 11.057 22.6666 11.0799V11.2132H22.7199C22.7199 11.2132 22.7599 11.2799 22.7733 11.3066C22.7866 11.3332 22.9599 11.4666 22.9599 11.4666L23.0533 11.5732C23.0533 11.5732 23.1199 11.6266 23.1466 11.6932C23.1733 11.7599 23.2133 11.7866 23.2133 11.7866C23.2133 11.7866 23.2266 11.8132 23.2533 11.8799L23.2799 11.9466C23.2799 11.9466 23.3599 12.0666 23.3999 12.0799C23.4399 12.0932 23.4799 12.1332 23.4799 12.1332C23.4799 12.1332 23.4799 12.1866 23.4933 12.2132C23.4933 12.2399 23.5199 12.2932 23.5199 12.2932C23.5199 12.2932 23.5466 12.3066 23.5999 12.3066H23.7599L23.8533 12.2532L23.8933 12.2399C23.8933 12.2399 23.9199 12.2399 23.9733 12.2799C24.0399 12.3199 24.1066 12.4799 24.1066 12.4799C24.1066 12.4799 24.1333 12.5332 24.1066 12.5466C24.0799 12.5599 24.0799 12.5866 24.0799 12.5866C24.0799 12.5866 24.0399 12.6532 24.0933 12.6666C24.1466 12.6799 24.2533 12.7732 24.2533 12.7732C24.2533 12.7732 24.5199 13.0399 24.5333 13.0399C24.5466 13.0399 24.5466 13.0132 24.6133 13.0399C24.6266 13.0532 24.6399 13.0532 24.6533 13.0532L24.2533 13.4532C23.1599 12.4266 21.7066 11.7732 20.1066 11.7332L20.1733 10.2666ZM20.1733 12.1066C21.3576 12.146 22.5037 12.5358 23.4666 13.2266V13.2666C23.4666 13.2932 23.3999 13.3732 23.3999 13.3732V13.5066C23.3999 13.5066 23.4799 13.5599 23.5466 13.6132C23.6133 13.6666 23.6533 13.6932 23.6666 13.7199C23.6799 13.7332 23.7999 13.8132 23.7999 13.8132C23.7999 13.8132 23.8533 13.8399 23.9466 13.8532H23.9599L23.0533 14.7599C22.2684 14.0272 21.2462 13.6013 20.1733 13.5599V12.1066ZM20.1733 13.9066C21.0705 13.9437 21.9315 14.2713 22.6266 14.8399H22.4399C22.4266 14.8399 22.3866 14.8799 22.3466 14.9066C22.3228 14.9171 22.3038 14.9361 22.2933 14.9599C22.2799 14.9866 22.2933 15.0399 22.2933 15.0399C22.2933 15.0399 22.2399 15.0532 22.1733 15.0399C22.1066 15.0266 22.0933 15.0532 22.0533 15.0399C21.9999 15.0266 21.9066 15.0399 21.9066 15.0399L22.0266 15.1599C22.0266 15.1599 22.0666 15.2132 22.0666 15.2399C22.0533 15.2532 22.1466 15.2799 22.1466 15.2799C22.1466 15.2799 22.2133 15.2666 22.2799 15.2132L22.3066 15.1999C22.3199 15.1866 22.3599 15.1332 22.4133 15.0932C22.4666 15.0532 22.4666 15.0666 22.5199 15.0666C22.5733 15.0666 22.5199 15.0666 22.5333 15.0932C22.5466 15.1199 22.6266 15.0932 22.6266 15.0932L22.6933 15.1332L22.3866 15.4399H22.2133C22.2133 15.4399 22.1733 15.4132 22.1199 15.4666C22.0666 15.5199 22.0266 15.5466 22.0266 15.5466C22.0266 15.5466 21.9999 15.5999 21.9466 15.6266C21.9066 15.6532 21.8666 15.6532 21.8666 15.6532L21.8799 15.5732L21.9733 15.4799C21.9733 15.4799 22.0533 15.4132 22.0533 15.3999V15.3199H21.8799L21.8399 15.3732L21.6933 15.4799L21.7066 15.5732L21.7333 15.6266C21.7333 15.6266 21.6799 15.6266 21.7333 15.6532L21.7866 15.6932C21.7866 15.6932 21.8533 15.6666 21.8399 15.7599C21.8266 15.8666 21.7999 15.9066 21.7999 15.9066L21.7599 15.9466L21.6533 15.9866L21.6133 16.0132L21.4533 16.0266L21.4133 15.9466L21.3066 15.9332H21.1999C21.1866 15.9332 21.1333 15.8932 21.1333 15.8932C21.1333 15.8932 21.1333 15.8799 21.0799 15.8532C21.0266 15.8399 20.9999 15.8399 20.9733 15.8266L20.9066 15.7599C20.9066 15.7599 20.9333 15.7066 20.9466 15.6932C20.9599 15.6799 20.9733 15.6932 21.0266 15.6399L21.0799 15.5866C21.0799 15.5866 21.1599 15.5066 21.1599 15.4799V15.2399C21.1599 15.2399 21.1999 15.2132 21.1599 15.2132H21.0533C21.0533 15.2132 20.9999 15.2532 20.9733 15.2799C20.9466 15.3066 20.9333 15.2932 20.8933 15.3332L20.8133 15.3866C20.8133 15.3866 20.7466 15.4132 20.7333 15.4399C20.7333 15.4666 20.7066 15.5466 20.7066 15.5466C20.7066 15.5466 20.7066 15.6399 20.6933 15.6532C20.6799 15.6666 20.6399 15.6799 20.6399 15.6799H20.5333C20.4533 15.6799 20.1999 15.6932 20.1866 15.6932H20.1733V13.9066ZM19.8266 8.29325V9.91991C17.7199 9.95991 15.7999 10.8132 14.3733 12.1732L13.2266 11.0266C15.0036 9.31641 17.3608 8.3402 19.8266 8.29325ZM18.7599 16.0532C18.7466 16.0399 18.7333 16.0399 18.7199 16.0266L18.5466 15.9866C18.5466 15.9866 18.6533 15.7999 18.4933 15.6532C18.3333 15.4932 18.2266 15.4399 18.2266 15.4399H17.9199C17.9199 15.4399 17.8399 15.2666 17.4266 15.2532L17.1866 15.0132C17.9042 14.3479 18.8355 13.9602 19.8133 13.9199V15.7199C19.4382 15.7322 19.0738 15.8475 18.7599 16.0532ZM19.8133 16.0532C19.8133 16.0666 19.8133 16.0666 19.7866 16.0932C19.7199 16.1332 19.6533 16.1866 19.6533 16.1866C19.6533 16.1866 19.5866 16.2266 19.5466 16.2666C19.5066 16.3066 19.5599 16.2932 19.4799 16.3466C19.3866 16.3866 19.4266 16.3732 19.3866 16.3866C19.3599 16.3999 19.3733 16.3866 19.2799 16.3999C19.227 16.4082 19.1735 16.4127 19.1199 16.4132C19.1199 16.4132 19.0666 16.3599 19.0133 16.3466C18.9999 16.3332 18.9866 16.3332 18.9599 16.3332C19.218 16.1732 19.5105 16.0772 19.8133 16.0532ZM18.3066 23.1599C18.2666 23.2266 18.1733 23.3066 18.1733 23.3066V23.4532L18.3066 23.5066C18.3066 23.5066 18.3599 23.5599 18.3866 23.6132L18.4133 23.6532C18.4133 23.6532 18.4666 23.6932 18.5333 23.7332C18.5999 23.7732 18.6533 23.7866 18.6933 23.7999C18.7066 23.7999 18.7333 23.8132 18.7866 23.8399C17.7918 23.6304 16.8684 23.1664 16.1066 22.4932C16.0666 22.4266 16.0133 22.3599 15.9733 22.3066L16.9599 21.3199C17.6399 21.9599 18.5333 22.3732 19.5066 22.4932C19.4666 22.5066 19.4933 22.4932 19.4399 22.5199C19.3866 22.5466 19.2933 22.5599 19.2399 22.5866L19.1599 22.6666C19.1599 22.6666 19.1333 22.6799 19.1066 22.7066L19.0799 22.7332C19.0799 22.7332 19.0399 22.7466 18.9199 22.7332C18.8133 22.7199 18.7466 22.7332 18.7466 22.7332C18.7466 22.7332 18.6666 22.7599 18.6266 22.7866C18.5866 22.7999 18.5066 22.8532 18.5066 22.8532L18.3733 22.9066C18.3733 22.9066 18.3066 22.9332 18.2933 22.9599V23.0399C18.3066 23.0532 18.3466 23.1066 18.3066 23.1599ZM15.3466 20.5732C15.2799 20.3332 15.1333 20.0399 15.1199 19.7999C15.1199 19.5599 15.1999 19.2666 15.1333 18.9466C15.0799 18.6266 15.1066 18.5332 15.1466 18.3999C15.1866 18.2932 15.1866 18.2799 15.1599 18.2132H15.4933C15.5347 19.2861 15.9606 20.3084 16.6933 21.0932L15.7333 22.0532C15.6933 21.9999 15.6533 21.9466 15.6133 21.8799C15.5333 21.7199 15.3733 21.3866 15.3333 21.2799C15.286 21.1551 15.228 21.0347 15.1599 20.9199C15.1333 20.8799 15.4133 20.8132 15.3466 20.5732ZM16.7999 16.3199C16.8133 16.3466 16.8133 16.2932 16.8133 16.3466C16.8133 16.4132 16.8266 16.3866 16.8133 16.4399L16.7999 16.4932L16.7733 16.5466C16.7599 16.5732 16.7599 16.5732 16.7599 16.5999C16.7599 16.6266 16.7333 16.6666 16.7333 16.6666L16.6799 16.7332V16.7999C16.6799 16.7999 16.6666 16.8666 16.6666 16.9066C16.6666 16.9466 16.6399 16.9999 16.6399 16.9999C16.6399 16.9999 16.6266 16.9732 16.6133 17.0266C16.5999 17.0799 16.5999 17.0932 16.5866 17.1332C16.5733 17.1732 16.6266 17.1199 16.5733 17.1732C16.5199 17.2266 16.4666 17.2266 16.4666 17.2266C16.4666 17.2266 16.3599 17.2399 16.3333 17.2532C16.3126 17.2656 16.2901 17.2746 16.2666 17.2799C16.2666 17.2799 16.1999 17.2799 16.1999 17.3066V17.4132L16.2933 17.4532H16.3733C16.4266 17.4532 16.4666 17.4266 16.4666 17.4266C16.4666 17.4266 16.5066 17.3999 16.5599 17.4132C16.6133 17.4266 16.5733 17.3999 16.6133 17.4266C16.6399 17.4532 16.6533 17.4399 16.6666 17.4932C16.6666 17.5466 16.6933 17.6266 16.6933 17.6266C16.6933 17.6266 16.7599 17.7332 16.8799 17.7599C16.9866 17.7866 16.9333 17.7866 16.9866 17.8399L16.9999 17.8532H15.9199C15.9199 17.8266 15.9199 17.8132 15.9333 17.7866C15.9599 17.6666 16.0933 17.4799 16.1199 17.3999C16.1466 17.3199 16.1599 17.2399 16.1599 17.2399V17.1066C16.1599 17.0666 16.1466 17.0132 16.1466 17.0132H16.0933V17.1332L16.0533 17.2799L16.0266 17.3332H15.9866C15.9866 17.3332 16.0133 17.0132 16.0666 16.9332C16.1199 16.8532 16.2266 16.7599 16.2266 16.7332C16.2266 16.7199 16.2933 16.6399 16.2933 16.6399C16.2933 16.6399 16.2533 16.6132 16.2533 16.5199V16.3732C16.2533 16.3732 16.2799 16.3332 16.2799 16.2932C16.2933 16.2666 16.2933 16.2532 16.3066 16.2266C16.3175 16.2071 16.3309 16.1891 16.3466 16.1732V16.1199C16.3599 16.0932 16.3866 16.0532 16.3999 16.0266C16.4133 16.0266 16.4266 16.0132 16.4533 16.0132L16.4933 15.9866C16.4933 15.9866 16.5599 15.9466 16.5866 15.9866C16.6133 16.0266 16.6266 16.0532 16.6266 16.0532L16.7199 16.1199C16.7199 16.1199 16.6533 16.0932 16.7199 16.1332C16.7866 16.1732 16.8399 16.2399 16.8399 16.2399C16.8399 16.2399 16.7866 16.2932 16.7999 16.3199ZM17.0533 15.3466L17.1599 15.4532C17.1066 15.4799 17.0266 15.4932 17.0266 15.4932C17.0266 15.4932 16.9866 15.5599 16.9066 15.4932C16.8799 15.4666 16.8399 15.4399 16.8133 15.3999C16.8533 15.3466 16.8933 15.3066 16.9333 15.2532C16.9599 15.2799 16.9866 15.3199 16.9866 15.3199L17.0666 15.4132C17.0666 15.3866 17.0533 15.3732 17.0533 15.3466ZM15.9199 16.1466C15.9066 16.1732 15.8799 16.1866 15.8533 16.1999C15.7733 16.2532 15.7466 16.2932 15.6933 16.3866C15.6533 16.4799 15.5599 16.5732 15.5466 16.5866C15.5466 16.5999 15.5466 16.5866 15.4799 16.6266L15.3199 16.7066C15.3199 16.7066 15.1466 16.8399 15.1199 16.9332C15.0933 17.0266 15.0133 17.0666 15.0133 17.1066C15.0133 17.1332 14.9999 17.1999 14.9999 17.1999C14.9999 17.1999 15.0533 17.3199 15.0533 17.3466C15.0533 17.3599 14.9999 17.4532 14.9999 17.4532C14.9999 17.4532 14.9466 17.4132 14.9066 17.3999C14.8666 17.3866 14.8133 17.3999 14.8133 17.3999C14.8133 17.3999 14.7866 17.4132 14.7599 17.4132H14.7066C14.7066 17.4132 14.6799 17.3732 14.6799 17.3066C14.6799 17.2399 14.6533 17.1866 14.6533 17.1866C14.6533 17.1866 14.6399 17.0666 14.6266 17.0399C14.6133 17.0132 14.5733 16.9599 14.5466 16.9466C14.5333 16.9332 14.4933 16.8666 14.4533 16.8399C14.4133 16.8132 14.3066 16.7732 14.2799 16.7732C14.2533 16.7732 14.1999 16.7866 14.1866 16.7866C14.4266 15.7199 14.9466 14.7466 15.6666 13.9866L16.6799 14.9999C16.3739 15.3445 16.1181 15.7305 15.9199 16.1466ZM13.7599 17.2799C13.7466 17.3066 13.4799 17.4399 13.4666 17.8532V17.8666H12.2266C12.2666 15.8532 13.0799 14.0266 14.3866 12.6666L15.4399 13.7199C14.5333 14.6799 13.9199 15.9199 13.7599 17.2799ZM13.4399 18.2266C13.4266 18.3066 13.3866 18.3066 13.2666 18.3066C13.0533 18.2932 12.9866 18.2532 12.9866 18.2532C12.9866 18.2532 12.8399 18.2932 12.8399 18.2532C12.8399 18.2532 12.8399 18.2399 12.8266 18.2266H13.4399ZM13.0266 21.3999C13.2666 21.5866 13.5599 21.8932 13.6933 21.9199C13.8266 21.9466 13.9333 21.8532 14.0399 21.9999C14.0399 21.9999 14.7733 22.8666 14.9599 22.7732C14.9999 22.7466 15.0533 22.7332 15.0933 22.7066L14.3733 23.4266C13.7803 22.8036 13.2938 22.0874 12.9333 21.3066L13.0266 21.3999ZM15.0799 17.6266C14.9599 17.5466 15.0666 17.5999 15.1466 17.4799C15.2266 17.3599 15.1466 17.2799 15.1466 17.2799C15.1466 17.2799 15.1733 17.1066 15.2666 17.0266C15.3599 16.9466 15.3999 16.9599 15.4666 16.9999C15.5199 17.0266 15.5599 17.0399 15.5999 17.0532C15.5333 17.3199 15.5066 17.5999 15.4933 17.8799H15.1199C15.1333 17.7732 15.1466 17.6666 15.0799 17.6266ZM15.8533 18.2266H17.2666C17.2807 18.2706 17.3033 18.3114 17.3333 18.3466C17.3733 18.3732 17.4399 18.3866 17.4399 18.3866C17.4399 18.3866 17.5066 18.3732 17.5333 18.3332L17.5866 18.2532C17.5866 18.2532 17.5733 18.2532 17.5733 18.2266H17.6533C17.6921 18.7275 17.888 19.2035 18.2133 19.5866L16.9466 20.8532C16.2887 20.1309 15.9022 19.2024 15.8533 18.2266ZM17.5999 15.3866C17.6399 15.3866 17.7333 15.3866 17.7333 15.3999C17.7457 15.4205 17.7547 15.4431 17.7599 15.4666C17.7599 15.4666 17.7333 15.4799 17.6933 15.4799C17.6933 15.4932 17.5999 15.3866 17.5999 15.3866ZM16.9466 14.7466L15.9333 13.7332C16.9895 12.7283 18.3824 12.1531 19.8399 12.1199V13.5599C18.7199 13.5866 17.7066 14.0399 16.9466 14.7466ZM15.6799 13.4799L14.6266 12.4266C15.9866 11.1199 17.8133 10.3066 19.8266 10.2666V11.7599C18.2266 11.7999 16.7733 12.4532 15.6799 13.4799ZM12.9866 11.2799L14.1333 12.4266C12.7708 13.8417 11.9698 15.7042 11.8799 17.6666L11.8399 17.6266C11.8079 17.5873 11.7768 17.5473 11.7466 17.5066L11.6533 17.5332C11.6533 17.5332 11.6133 17.5732 11.6266 17.6266C11.6266 17.6666 11.6266 17.6399 11.6533 17.6932C11.6799 17.7466 11.7199 17.7999 11.7199 17.7999C11.7199 17.7999 11.7199 17.8532 11.7066 17.8532C11.6933 17.8532 11.6533 17.8132 11.6533 17.8132L11.5999 17.7466C11.5999 17.7466 11.5866 17.7466 11.5599 17.7599C11.5466 17.7732 11.5066 17.7599 11.5066 17.7599C11.5066 17.7599 11.5066 17.6266 11.4933 17.5999C11.4933 17.5732 11.4399 17.5199 11.4399 17.5199C11.4399 17.5199 11.4266 17.4132 11.4133 17.4132H11.3466L11.2799 17.3066H11.1999C11.1999 17.3066 11.0933 17.3466 11.0799 17.3866C11.0666 17.4266 11.0133 17.4666 11.0133 17.4666C11.0133 17.4666 10.9066 17.4799 10.8933 17.4932C10.8799 17.5066 10.7866 17.5599 10.7866 17.5599C10.7866 17.5599 10.7599 17.5999 10.7199 17.6666C10.6933 17.7066 10.6933 17.7732 10.6799 17.8666H10.2533C10.2933 15.3199 11.3333 12.9999 12.9866 11.2799ZM10.2533 18.2266H10.6266C10.5733 18.4666 10.5599 18.5332 10.5599 18.5999C10.5599 18.6799 10.5733 19.4799 10.7199 19.5066C10.8399 19.5332 10.6533 18.9866 10.8133 18.8266C10.9733 18.6666 10.9999 18.5599 10.9999 18.5599C10.9999 18.5599 11.0666 18.8266 11.1733 18.9999C11.2666 19.1732 11.3066 19.3866 11.3866 19.3732C11.4666 19.3599 11.4266 18.9732 11.4533 18.9732C11.4799 18.9732 11.5733 19.3466 11.7199 19.5199C11.8799 19.6932 11.8666 19.8666 11.8799 19.4132C11.8933 18.9599 11.9466 19.8532 12.0133 19.9199C12.0533 19.9466 12.0799 19.9466 12.1066 19.9466C12.4399 21.3732 13.1599 22.6532 14.1466 23.6799L12.9999 24.8266C11.3333 23.0932 10.2933 20.7732 10.2533 18.2266ZM19.8266 27.7999C17.2666 27.7599 14.9466 26.7199 13.2266 25.0666L14.3733 23.9199C15.7999 25.2799 17.7066 26.1332 19.8266 26.1732V27.7999ZM19.8266 25.8266C17.8133 25.7866 15.9866 24.9732 14.6266 23.6666L15.5599 22.7332C15.5733 22.7466 15.5999 22.7599 15.6133 22.7732C15.7599 22.8666 15.8799 22.9332 16.0266 22.9332C17.0969 23.8117 18.4291 24.3089 19.8133 24.3466L19.8266 25.8266ZM19.8266 20.7199C19.8133 20.7199 19.7866 20.7332 19.7733 20.7332C19.7466 20.7466 19.7199 20.7732 19.7199 20.7866C19.7199 20.7999 19.6666 20.8266 19.7199 20.8666C19.7733 20.9066 19.7733 20.8932 19.7999 20.9466C19.8133 20.9732 19.8133 20.9732 19.8266 20.9866V21.1999C19.8055 21.2242 19.7876 21.2511 19.7733 21.2799C19.7733 21.2799 19.7199 21.3866 19.7333 21.3866C19.7568 21.3918 19.7793 21.4008 19.7999 21.4132H19.8266V21.5066C19.7999 21.5066 19.7466 21.5199 19.7733 21.5599L19.8266 21.6132V21.9066H19.6933C19.6933 21.9066 19.4666 21.9199 19.4399 21.9066C19.4266 21.8932 19.3999 21.9066 19.3999 21.9066C19.3999 21.9066 19.3466 21.9332 19.3466 21.9866C19.3466 22.0132 19.3466 22.0799 19.3599 22.1332C18.5199 22.0132 17.7733 21.6266 17.1733 21.0799L18.4399 19.8132C18.8266 20.1466 19.2933 20.3466 19.7999 20.3732L19.8266 20.7199ZM18.0133 18.2932L17.9999 18.2132L18.0799 18.2666C18.0799 18.2666 18.1066 18.2666 18.1199 18.2399C18.1466 18.2132 18.1333 18.2132 18.1333 18.2132C18.1333 18.2132 18.1733 18.1999 18.1866 18.1866C18.1999 18.1732 18.1999 18.1332 18.1999 18.1199C18.2133 18.1066 18.2266 18.0132 18.2266 17.9866C18.2266 17.9599 18.2533 17.9466 18.2666 17.9332C18.2933 17.9199 18.2933 17.9066 18.2933 17.8799C18.2933 17.8666 18.3199 17.8399 18.3199 17.8132C18.3199 17.7866 18.3199 17.7866 18.3066 17.7732C18.2933 17.7599 18.2666 17.7599 18.2666 17.7599H18.1333L18.0533 17.7866H18.0133C18.0266 17.6799 18.0533 17.5599 18.0799 17.4532C18.0905 17.4411 18.0994 17.4276 18.1066 17.4132C18.1199 17.4132 18.1733 17.3732 18.1733 17.3732C18.1733 17.3732 18.2133 17.3732 18.2399 17.3599H18.3333L18.3733 17.4132C18.4133 17.4666 18.4399 17.5332 18.4399 17.5332C18.4399 17.5332 18.4533 17.5866 18.4399 17.5999C18.4266 17.6132 18.4266 17.5866 18.3866 17.6266C18.3466 17.6666 18.3333 17.6132 18.3466 17.6666C18.3599 17.7199 18.3866 17.7332 18.3866 17.7332L18.5066 17.7066C18.5066 17.7066 18.5066 17.6932 18.5199 17.6799C18.5066 17.6666 18.5199 17.6399 18.5199 17.6266C18.5199 17.6132 18.5999 17.6266 18.5999 17.6266H18.8266V17.7332L18.7466 17.7599C18.7466 17.7599 18.7066 17.7599 18.6266 17.7199C18.5599 17.6799 18.5733 17.7199 18.5199 17.7199C18.5199 17.7199 18.5333 17.7332 18.5333 17.7466C18.5599 17.8132 18.5333 17.7732 18.5599 17.8132L18.5866 17.8532C18.5866 17.8532 18.5599 17.9066 18.5466 17.9199C18.5153 17.9234 18.4842 17.9278 18.4533 17.9332C18.4533 17.9332 18.4666 17.8532 18.4133 17.8532C18.3599 17.8532 18.3333 17.8666 18.3333 17.8666L18.2799 17.9732L18.2666 18.0132C18.2666 18.0132 18.2266 18.0399 18.2399 18.0666C18.2533 18.0932 18.3066 18.0932 18.3066 18.0932C18.3066 18.0932 18.3466 18.1066 18.3733 18.1199C18.3866 18.1332 18.3199 18.1332 18.3866 18.1332H18.4666C18.4666 18.1332 18.5199 18.0399 18.5999 18.0266C18.6799 18.0132 18.7199 17.9599 18.7333 17.9466L18.8533 17.8266L18.9333 17.8399V17.9332C18.9333 17.9332 18.8666 17.9599 18.8399 18.0132C18.8133 18.0532 18.6933 18.1866 18.6533 18.2132C18.6133 18.2399 18.5599 18.2399 18.5333 18.2532C18.5199 18.2666 18.3733 18.2799 18.3599 18.3066C18.3466 18.3199 18.2133 18.4399 18.2133 18.4799C18.2133 18.5199 18.1066 18.6532 18.1599 18.6799C18.1999 18.7066 18.2133 18.6799 18.3066 18.6399C18.3866 18.6132 18.5199 18.6532 18.5599 18.6799C18.5999 18.6932 18.6799 18.7332 18.7066 18.7199C18.7333 18.7066 18.8133 18.5866 18.8266 18.5466C18.8399 18.5199 18.8933 18.4399 18.9599 18.3999C19.0266 18.3599 19.0666 18.3332 19.0799 18.2532C19.0905 18.1957 19.0993 18.1379 19.1066 18.0799V17.9599L19.1333 17.8266V17.7466H19.0266L18.9599 17.7332L18.9999 17.6932C18.9999 17.6932 19.0266 17.6532 19.0399 17.6266L19.0666 17.5732C19.0869 17.557 19.1093 17.5435 19.1333 17.5332C19.1599 17.5199 19.1599 17.5199 19.1999 17.4932C19.2266 17.4666 19.1999 17.4532 19.1599 17.4132C19.1199 17.3732 19.1599 17.4132 19.1466 17.4132C19.1333 17.4132 19.0666 17.4399 19.0666 17.4399L19.0266 17.5066V17.5599L18.9866 17.6266L18.9599 17.6532C18.9333 17.6799 18.9066 17.6666 18.9066 17.6666L18.9199 17.6266L18.9066 17.5466H18.7733C18.7733 17.5466 18.7333 17.5332 18.7066 17.5199C18.6799 17.5066 18.6933 17.4932 18.6933 17.4666C18.6933 17.4399 18.7199 17.4266 18.7199 17.4266C18.7199 17.4266 18.7866 17.4666 18.8133 17.4799C18.8266 17.4799 18.8399 17.4932 18.8399 17.4932C18.8399 17.4932 18.8666 17.4932 18.9066 17.4666C18.9466 17.4399 18.9199 17.4132 18.9199 17.4132H18.9733C18.9872 17.4109 19.0007 17.4064 19.0133 17.3999L19.0799 17.3866L19.0933 17.3466C19.1066 17.3066 19.0933 17.3466 19.0933 17.3332C19.0933 17.3199 19.0933 17.2932 19.0533 17.2532L18.9999 17.2799L18.9599 17.3066L18.7333 17.3732C18.7466 17.3466 18.7733 17.3066 18.7733 17.3066C18.7733 17.3066 18.7866 17.3199 18.8266 17.3332C18.8399 17.3332 18.8533 17.3199 18.8666 17.3066C18.8799 17.2932 18.8799 17.2666 18.8799 17.2666C18.8799 17.2666 18.8533 17.2799 18.9066 17.2266C18.9599 17.1732 19.0266 17.1199 19.0533 17.0932C19.0666 17.0799 19.0799 17.0799 19.1333 17.0399C19.1733 16.9999 19.2133 17.0399 19.2533 17.0132C19.2799 16.9732 19.2933 16.9599 19.3333 16.9599C19.3733 16.9599 19.3866 16.9599 19.4266 16.9332C19.4666 16.9066 19.4799 16.8932 19.5066 16.8799C19.5199 16.8799 19.5733 16.8132 19.5733 16.8132C19.5733 16.8132 19.6266 16.7732 19.6266 16.7466C19.6266 16.7332 19.6133 16.7066 19.6266 16.6932L19.6399 16.6799C19.6399 16.6799 19.6533 16.6266 19.6799 16.5599L19.6933 16.5066V16.4666L19.7199 16.4399C19.7199 16.4399 19.7466 16.4266 19.7599 16.4132C19.7733 16.3999 19.7599 16.3466 19.7599 16.3466V16.3199L19.7199 16.2266C19.7199 16.2266 19.6799 16.2532 19.7599 16.1866C19.8399 16.1199 19.8133 16.1599 19.8399 16.1199C19.8399 16.1066 19.8533 16.1066 19.8399 16.0932H19.9599C19.9599 16.1466 19.9866 16.2132 19.9599 16.2266C19.9333 16.2532 19.9333 16.3199 19.9333 16.3332V16.4666C19.9333 16.4932 19.9199 16.5466 19.9333 16.5999C19.9466 16.6532 19.9866 16.6532 19.9866 16.6799C19.9866 16.7066 20.0399 16.7732 20.0399 16.7732L20.1199 16.8132H20.2133L20.2399 16.7599L20.3599 16.7332L20.4666 16.8132C20.4666 16.8132 20.4533 16.8932 20.4666 16.9199C20.4799 16.9332 20.4666 16.9866 20.4666 16.9866H20.5866L20.6666 17.0132C20.6666 17.0132 20.6399 17.1999 20.6666 17.2532C20.6867 17.2894 20.7139 17.3212 20.7466 17.3466C20.7466 17.3466 20.7599 17.3599 20.7866 17.3466C20.8133 17.3332 20.8799 17.3066 20.8799 17.3066L20.9599 17.2666C20.9599 17.2666 20.9466 17.2799 20.9599 17.3199C20.9733 17.3599 21.0533 17.3599 21.0533 17.3599C21.0533 17.3599 21.1199 17.3199 21.0933 17.3599C21.0882 17.3807 21.0784 17.4 21.0645 17.4162C21.0505 17.4324 21.033 17.4451 21.0133 17.4532C20.9599 17.4799 20.9199 17.4932 20.9199 17.4932C20.9199 17.4932 20.8799 17.4932 20.8666 17.5332C20.8533 17.5732 20.8666 17.6932 20.8666 17.6932H21.0133V17.8932H20.9466C20.9466 17.8932 20.8666 17.8532 20.8533 17.8932C20.8399 17.9332 20.7599 17.9466 20.7599 17.9466C20.7599 17.9466 20.6533 18.0266 20.6266 18.0399C20.6133 18.0532 20.5599 18.0932 20.5599 18.0932C20.5599 18.0932 20.4933 18.1866 20.4666 18.1999C20.4533 18.1999 20.3999 18.2399 20.3999 18.2399L20.4533 18.2932C20.4533 18.2932 20.5599 18.2132 20.5733 18.2132C20.5866 18.2132 20.6399 18.1999 20.6399 18.1999L20.6933 18.2266C20.6933 18.2266 20.7066 18.2932 20.7466 18.2799C20.7733 18.2799 20.9066 18.2399 20.9066 18.2799C20.9066 18.3199 20.9999 18.3332 21.0133 18.3599C21.0266 18.3866 21.0533 18.3732 21.1066 18.3999C21.1599 18.4266 21.2933 18.3999 21.2933 18.3999L21.3599 18.4132L21.2666 18.5066C21.2399 18.5466 21.1866 18.5999 21.1999 18.6266C21.1999 18.6532 21.3466 18.6932 21.3599 18.7199C21.3733 18.7466 21.3733 18.7466 21.4533 18.7866L21.5333 18.8266C21.5333 18.8266 21.5733 18.8399 21.5999 18.8532C21.6133 18.8666 21.6266 18.8666 21.6399 18.8666L21.4666 18.9866C21.4666 18.9866 21.4266 19.0132 21.3599 19.0532L21.2933 19.0932L21.1599 19.0532C21.1599 19.0532 21.0933 19.0799 21.1066 19.0932C21.1599 19.1199 21.1999 19.1599 21.2533 19.1866L21.3866 19.2799C21.3866 19.2799 21.3866 19.3199 21.3999 19.3466C21.3999 19.3599 21.4666 19.4266 21.4666 19.4266V19.4399L21.3066 19.5999C21.2799 19.5866 21.2666 19.5599 21.2266 19.5599C21.1733 19.5466 21.2266 19.5199 21.2533 19.5199C21.2666 19.5199 21.3333 19.4799 21.3333 19.4799V19.3466C21.3333 19.3466 21.2933 19.3199 21.2666 19.3066L21.1866 19.2266L21.0399 19.1866C21.0399 19.1866 20.9333 19.1866 20.8799 19.1732C20.8266 19.1732 20.7733 19.1599 20.7733 19.1599L20.6666 19.1732L20.6266 19.1999L20.5866 19.3332C20.5866 19.3332 20.5599 19.4799 20.5599 19.5332V19.8132L20.5866 19.8666H20.6399C20.6399 19.8666 20.7466 19.8799 20.7599 19.8666C20.7925 19.8435 20.8285 19.8255 20.8666 19.8132C20.9066 19.7999 20.9333 19.7866 20.9333 19.7866C20.9333 19.7866 20.9599 19.7866 20.9866 19.7999C20.9066 19.8532 20.8133 19.8932 20.7333 19.9332C20.7199 19.9199 20.6933 19.9199 20.6799 19.9199C20.6399 19.9199 20.5599 19.9866 20.5599 19.9866H20.5466V19.9999C20.3646 20.0526 20.1761 20.0795 19.9866 20.0799C18.9733 20.0532 18.1333 19.2932 18.0133 18.2932ZM20.1733 27.7999V26.1732C21.0933 26.1599 21.9599 25.9866 22.7866 25.6932L22.8666 25.7332C23.0266 25.8399 23.1066 25.8799 23.1999 25.8932C23.2933 25.9066 23.4399 25.7466 23.6266 25.6932C23.8266 25.6399 23.9733 25.5866 24.1466 25.4132C24.3333 25.2399 24.6133 25.1332 24.7466 24.8932C24.8799 24.6666 24.9466 24.5466 24.9466 24.5066C24.9466 24.5066 24.9599 24.4799 24.9599 24.4666C25.187 24.291 25.405 24.1041 25.6133 23.9066L26.7599 25.0532C25.0533 26.7199 22.7333 27.7466 20.1733 27.7999ZM27.0133 24.8132L25.8666 23.6666C27.2266 22.2399 28.0799 20.3332 28.1199 18.2132H29.7466C29.7119 20.6816 28.7339 23.0431 27.0133 24.8132Z" fill="white"/>
</g>
</g>
</g>
<defs>
<clipPath id="clip0_16699_261968">
<rect width="40" height="40" rx="20" fill="white"/>
</clipPath>
</defs>
</svg>
