<svg width="40" height="40" viewBox="0 0 40 40" fill="none" xmlns="http://www.w3.org/2000/svg">
<g clip-path="url(#clip0_16699_261979)">
<mask id="mask0_16699_261979" style="mask-type:luminance" maskUnits="userSpaceOnUse" x="0" y="0" width="40" height="40">
<path d="M40 0H0V40H40V0Z" fill="white"/>
</mask>
<g mask="url(#mask0_16699_261979)">
<mask id="mask1_16699_261979" style="mask-type:luminance" maskUnits="userSpaceOnUse" x="0" y="0" width="40" height="40">
<path d="M40 20C40 8.95433 31.0457 0 20 0C8.95433 0 0 8.95433 0 20C0 31.0457 8.95433 40 20 40C31.0457 40 40 31.0457 40 20Z" fill="white"/>
</mask>
<g mask="url(#mask1_16699_261979)">
<path d="M50.2174 0H-10V40H50.2174V0Z" fill="#74ACDF"/>
<path d="M50.6197 13.3337H-10V26.6672H50.6197V13.3337Z" fill="white"/>
<path d="M19.625 20.1049L21.9013 25.0642C21.9013 25.0642 21.9405 25.159 22.0037 25.1329C22.0669 25.1068 22.0276 25.012 22.0276 25.012L20.1304 19.8955M20.076 21.8251C20.0483 22.5793 20.5122 22.9941 20.4516 23.6677C20.391 24.3413 20.7609 24.7221 20.8467 24.984C20.9326 25.2459 20.7539 25.4026 20.8309 25.4398C20.908 25.4771 21.0765 25.2702 21.0216 24.8978C20.9666 24.5254 20.6839 24.4149 20.7504 23.5922C20.8168 22.7696 20.4139 22.578 20.512 21.8276" fill="#F6B40E"/>
<path d="M19.625 20.1049L21.9013 25.0642C21.9013 25.0642 21.9405 25.159 22.0037 25.1329C22.0669 25.1068 22.0276 25.012 22.0276 25.012L20.1304 19.8955M20.076 21.8251C20.0483 22.5793 20.5122 22.9941 20.4516 23.6677C20.391 24.3413 20.7609 24.7221 20.8467 24.984C20.9326 25.2459 20.7539 25.4026 20.8309 25.4398C20.908 25.4771 21.0765 25.2702 21.0216 24.8978C20.9666 24.5254 20.6839 24.4149 20.7504 23.5922C20.8168 22.7696 20.4139 22.578 20.512 21.8276" stroke="#85340A" stroke-width="0.044464"/>
<path d="M19.6053 20L19.8106 25.4529C19.8106 25.4529 19.8105 25.5555 19.8788 25.5556C19.9473 25.5556 19.9473 25.453 19.9473 25.453L20.1525 20M19.3638 21.7619C19.0496 22.4481 19.3193 23.0088 19.0056 23.6079C18.6918 24.207 18.888 24.7004 18.867 24.9752C18.8461 25.2501 18.6211 25.3264 18.6778 25.3903C18.7348 25.4543 18.9697 25.3276 19.0615 24.9625C19.1533 24.5974 18.9343 24.3871 19.3106 23.6525C19.6867 22.9179 19.3878 22.5867 19.7656 21.931" fill="#F6B40E"/>
<path d="M19.6053 20L19.8106 25.4529C19.8106 25.4529 19.8105 25.5555 19.8788 25.5556C19.9473 25.5556 19.9473 25.453 19.9473 25.453L20.1525 20M19.3638 21.7619C19.0496 22.4481 19.3193 23.0088 19.0056 23.6079C18.6918 24.207 18.888 24.7004 18.867 24.9752C18.8461 25.2501 18.6211 25.3264 18.6778 25.3903C18.7348 25.4543 18.9697 25.3276 19.0615 24.9625C19.1533 24.5974 18.9343 24.3871 19.3106 23.6525C19.6867 22.9179 19.3878 22.5867 19.7656 21.931" stroke="#85340A" stroke-width="0.044464"/>
<path d="M19.6254 19.8955L17.7283 25.0119C17.7283 25.0119 17.6889 25.1066 17.7521 25.1329C17.8153 25.1591 17.8544 25.0643 17.8544 25.0643L20.1309 20.1048M18.7279 21.4308C18.1751 21.9445 18.2098 22.5659 17.6907 22.9993C17.1716 23.4327 17.1639 23.9636 17.0393 24.2095C16.9148 24.4554 16.6777 24.4398 16.7058 24.5206C16.7339 24.6015 16.9994 24.5743 17.2239 24.2721C17.4484 23.97 17.3266 23.6919 17.9553 23.1572C18.5839 22.6224 18.4346 22.2021 19.0346 21.7408" fill="#F6B40E"/>
<path d="M19.6254 19.8955L17.7283 25.0119C17.7283 25.0119 17.6889 25.1066 17.7521 25.1329C17.8153 25.1591 17.8544 25.0643 17.8544 25.0643L20.1309 20.1048M18.7279 21.4308C18.1751 21.9445 18.2098 22.5659 17.6907 22.9993C17.1716 23.4327 17.1639 23.9636 17.0393 24.2095C16.9148 24.4554 16.6777 24.4398 16.7058 24.5206C16.7339 24.6015 16.9994 24.5743 17.2239 24.2721C17.4484 23.97 17.3266 23.6919 17.9553 23.1572C18.5839 22.6224 18.4346 22.2021 19.0346 21.7408" stroke="#85340A" stroke-width="0.044464"/>
<path d="M19.6855 19.8067L15.9747 23.8075C15.9747 23.8075 15.9021 23.88 15.9505 23.9284C15.9988 23.9768 16.0713 23.9042 16.0713 23.9042L20.0723 20.1934M18.2688 20.8817C17.5614 21.1447 17.3557 21.732 16.7102 21.9337C16.0647 22.1355 15.8544 22.6231 15.6453 22.8026C15.4361 22.9821 15.2231 22.8769 15.2181 22.9623C15.2131 23.0478 15.4688 23.1243 15.7918 22.9311C16.1148 22.7377 16.1088 22.4343 16.8943 22.1808C17.6797 21.9274 17.7025 21.4818 18.4333 21.2853" fill="#F6B40E"/>
<path d="M19.6855 19.8067L15.9747 23.8075C15.9747 23.8075 15.9021 23.88 15.9505 23.9284C15.9988 23.9768 16.0713 23.9042 16.0713 23.9042L20.0723 20.1934M18.2688 20.8817C17.5614 21.1447 17.3557 21.732 16.7102 21.9337C16.0647 22.1355 15.8544 22.6231 15.6453 22.8026C15.4361 22.9821 15.2231 22.8769 15.2181 22.9623C15.2131 23.0478 15.4688 23.1243 15.7918 22.9311C16.1148 22.7377 16.1088 22.4343 16.8943 22.1808C17.6797 21.9274 17.7025 21.4818 18.4333 21.2853" stroke="#85340A" stroke-width="0.044464"/>
<path d="M20.2232 21.9529C20.2595 22.6772 20.6702 22.998 20.5895 23.658C20.7666 23.136 20.3397 22.7314 20.3639 21.9604M19.752 20.0599L21.311 23.466L20.0047 19.9551" fill="#85340A"/>
<path d="M19.4502 21.9363C19.2065 22.6193 19.4632 23.0728 19.1361 23.6518C19.4994 23.2373 19.2598 22.7 19.5773 21.997M19.7393 20.007L19.8761 23.7504L20.0128 20.0068" fill="#85340A"/>
<path d="M18.7408 21.6249C18.2543 22.1628 18.3179 22.6799 17.7941 23.0897C18.2884 22.8458 18.2727 22.2578 18.835 21.7298M19.7462 19.9532L18.44 23.464L19.9989 20.0577" fill="#85340A"/>
<path d="M18.2056 21.0661C17.5504 21.3767 17.4112 21.8788 16.7705 22.0569C17.3205 22.0208 17.531 21.4716 18.2525 21.1988M19.7743 19.9062L17.224 22.6501L19.9678 20.0996" fill="#85340A"/>
<path d="M19.7751 19.7471L14.8158 22.0233C14.8158 22.0233 14.721 22.0626 14.7471 22.1258C14.7732 22.189 14.868 22.1497 14.868 22.1497L19.9845 20.2525M18.0549 20.1981C17.3007 20.1703 16.8858 20.6343 16.2123 20.5736C15.5387 20.5131 15.1579 20.883 14.896 20.9688C14.634 21.0547 14.4774 20.876 14.4401 20.953C14.4028 21.03 14.6098 21.1986 14.9822 21.1436C15.3546 21.0887 15.4651 20.806 16.2878 20.8723C17.1104 20.9388 17.302 20.536 18.0524 20.634" fill="#F6B40E"/>
<path d="M19.7751 19.7471L14.8158 22.0233C14.8158 22.0233 14.721 22.0626 14.7471 22.1258C14.7732 22.189 14.868 22.1497 14.868 22.1497L19.9845 20.2525M18.0549 20.1981C17.3007 20.1703 16.8858 20.6343 16.2123 20.5736C15.5387 20.5131 15.1579 20.883 14.896 20.9688C14.634 21.0547 14.4774 20.876 14.4401 20.953C14.4028 21.03 14.6098 21.1986 14.9822 21.1436C15.3546 21.0887 15.4651 20.806 16.2878 20.8723C17.1104 20.9388 17.302 20.536 18.0524 20.634" stroke="#85340A" stroke-width="0.044464"/>
<path d="M19.8806 19.7264L14.4277 19.9316C14.4277 19.9316 14.3251 19.9315 14.325 19.9999C14.325 20.0683 14.4276 20.0682 14.4276 20.0682L19.8806 20.2734M18.1187 19.4848C17.4325 19.1705 16.8717 19.4404 16.2727 19.1266C15.6736 18.8129 15.1802 19.0089 14.9054 18.988C14.6305 18.967 14.5542 18.742 14.4903 18.7989C14.4263 18.8558 14.553 19.0907 14.9181 19.1825C15.2832 19.2742 15.4935 19.0553 16.2281 19.4315C16.9627 19.8077 17.2939 19.5088 17.9496 19.8866" fill="#F6B40E"/>
<path d="M19.8806 19.7264L14.4277 19.9316C14.4277 19.9316 14.3251 19.9315 14.325 19.9999C14.325 20.0683 14.4276 20.0682 14.4276 20.0682L19.8806 20.2734M18.1187 19.4848C17.4325 19.1705 16.8717 19.4404 16.2727 19.1266C15.6736 18.8129 15.1802 19.0089 14.9054 18.988C14.6305 18.967 14.5542 18.742 14.4903 18.7989C14.4263 18.8558 14.553 19.0907 14.9181 19.1825C15.2832 19.2742 15.4935 19.0553 16.2281 19.4315C16.9627 19.8077 17.2939 19.5088 17.9496 19.8866" stroke="#85340A" stroke-width="0.044464"/>
<path d="M19.9849 19.7468L14.8685 17.8497C14.8685 17.8497 14.7737 17.8102 14.7475 17.8735C14.7213 17.9367 14.8161 17.9758 14.8161 17.9758L19.7755 20.2522M18.4496 18.8493C17.9358 18.2965 17.3145 18.3312 16.8811 17.8121C16.4476 17.2928 15.9168 17.2852 15.6709 17.1607C15.425 17.0362 15.4406 16.7991 15.3598 16.8272C15.2789 16.8552 15.3061 17.1207 15.6082 17.3452C15.9104 17.5697 16.1885 17.448 16.7232 18.0767C17.2579 18.7053 17.6783 18.556 18.1396 19.1558" fill="#F6B40E"/>
<path d="M19.9849 19.7468L14.8685 17.8497C14.8685 17.8497 14.7737 17.8102 14.7475 17.8735C14.7213 17.9367 14.8161 17.9758 14.8161 17.9758L19.7755 20.2522M18.4496 18.8493C17.9358 18.2965 17.3145 18.3312 16.8811 17.8121C16.4476 17.2928 15.9168 17.2852 15.6709 17.1607C15.425 17.0362 15.4406 16.7991 15.3598 16.8272C15.2789 16.8552 15.3061 17.1207 15.6082 17.3452C15.9104 17.5697 16.1885 17.448 16.7232 18.0767C17.2579 18.7053 17.6783 18.556 18.1396 19.1558" stroke="#85340A" stroke-width="0.044464"/>
<path d="M20.0741 19.8063L16.0732 16.0957C16.0732 16.0957 16.0007 16.023 15.9523 16.0713C15.9039 16.1197 15.9766 16.1923 15.9766 16.1923L19.6872 20.1932M18.9991 18.3897C18.7361 17.6822 18.1487 17.4765 17.9471 16.831C17.7452 16.1855 17.2577 15.9753 17.0782 15.7662C16.8986 15.557 17.0037 15.3439 16.9184 15.3389C16.8329 15.3339 16.7564 15.5897 16.9497 15.9127C17.1429 16.2357 17.4464 16.2297 17.6998 17.0152C17.9533 17.8005 18.3988 17.8234 18.5954 18.5542" fill="#F6B40E"/>
<path d="M20.0741 19.8063L16.0732 16.0957C16.0732 16.0957 16.0007 16.023 15.9523 16.0713C15.9039 16.1197 15.9766 16.1923 15.9766 16.1923L19.6872 20.1932M18.9991 18.3897C18.7361 17.6822 18.1487 17.4765 17.9471 16.831C17.7452 16.1855 17.2577 15.9753 17.0782 15.7662C16.8986 15.557 17.0037 15.3439 16.9184 15.3389C16.8329 15.3339 16.7564 15.5897 16.9497 15.9127C17.1429 16.2357 17.4464 16.2297 17.6998 17.0152C17.9533 17.8005 18.3988 17.8234 18.5954 18.5542" stroke="#85340A" stroke-width="0.044464"/>
<path d="M17.9278 20.3446C17.2036 20.3808 16.8827 20.7916 16.2227 20.7108C16.7447 20.888 17.1493 20.4611 17.9202 20.4853M19.8208 19.8733L16.4147 21.4323L19.9257 20.1261" fill="#85340A"/>
<path d="M17.9446 19.5712C17.2616 19.3276 16.8081 19.5842 16.2291 19.2572C16.6436 19.6205 17.1808 19.3808 17.8838 19.6983M19.8739 19.8603L16.1304 19.9972L19.874 20.1338" fill="#85340A"/>
<path d="M18.2561 18.8629C17.7183 18.3764 17.2011 18.44 16.7914 17.9163C17.0353 18.4107 17.6233 18.3948 18.1513 18.9572M19.9277 19.8683L16.417 18.5623L19.8233 20.1212" fill="#85340A"/>
<path d="M18.8158 18.3277C18.5051 17.6724 18.0029 17.5333 17.8248 16.8926C17.861 17.4426 18.4103 17.6531 18.6829 18.3746M19.9755 19.8963L17.2317 17.346L19.7822 20.0898" fill="#85340A"/>
<path d="M20.1327 19.8952L17.8564 14.9359C17.8564 14.9359 17.8172 14.8411 17.754 14.8672C17.6908 14.8933 17.7301 14.9881 17.7301 14.9881L19.6273 20.1046M19.6817 18.175C19.7094 17.4208 19.2455 17.006 19.3062 16.3324C19.3667 15.6588 18.9968 15.278 18.911 15.0161C18.8251 14.7542 19.0038 14.5975 18.9268 14.5603C18.8498 14.523 18.6812 14.7299 18.7362 15.1023C18.7911 15.4747 19.0738 15.5852 19.0073 16.4079C18.9409 17.2305 19.3438 17.4221 19.2457 18.1725" fill="#F6B40E"/>
<path d="M20.1327 19.8952L17.8564 14.9359C17.8564 14.9359 17.8172 14.8411 17.754 14.8672C17.6908 14.8933 17.7301 14.9881 17.7301 14.9881L19.6273 20.1046M19.6817 18.175C19.7094 17.4208 19.2455 17.006 19.3062 16.3324C19.3667 15.6588 18.9968 15.278 18.911 15.0161C18.8251 14.7542 19.0038 14.5975 18.9268 14.5603C18.8498 14.523 18.6812 14.7299 18.7362 15.1023C18.7911 15.4747 19.0738 15.5852 19.0073 16.4079C18.9409 17.2305 19.3438 17.4221 19.2457 18.1725" stroke="#85340A" stroke-width="0.044464"/>
<path d="M20.1524 19.9999L19.9472 14.547C19.9472 14.547 19.9473 14.4444 19.8789 14.4443C19.8105 14.4443 19.8105 14.5469 19.8105 14.5469L19.6053 19.9999M20.394 18.238C20.7082 17.5518 20.4384 16.9912 20.7522 16.392C21.0659 15.7929 20.8698 15.2995 20.8908 15.0248C20.9117 14.7498 21.1367 14.6735 21.0799 14.6097C21.023 14.5457 20.7881 14.6723 20.6963 15.0374C20.6046 15.4025 20.8234 15.6128 20.4472 16.3474C20.0711 17.082 20.37 17.4133 19.9922 18.0689" fill="#F6B40E"/>
<path d="M20.1524 19.9999L19.9472 14.547C19.9472 14.547 19.9473 14.4444 19.8789 14.4443C19.8105 14.4443 19.8105 14.5469 19.8105 14.5469L19.6053 19.9999M20.394 18.238C20.7082 17.5518 20.4384 16.9912 20.7522 16.392C21.0659 15.7929 20.8698 15.2995 20.8908 15.0248C20.9117 14.7498 21.1367 14.6735 21.0799 14.6097C21.023 14.5457 20.7881 14.6723 20.6963 15.0374C20.6046 15.4025 20.8234 15.6128 20.4472 16.3474C20.0711 17.082 20.37 17.4133 19.9922 18.0689" stroke="#85340A" stroke-width="0.044464"/>
<path d="M20.1324 20.1049L22.0296 14.9885C22.0296 14.9885 22.069 14.8938 22.0058 14.8675C21.9426 14.8413 21.9034 14.9362 21.9034 14.9362L19.627 19.8955M21.0299 18.5697C21.5828 18.0559 21.5481 17.4345 22.0672 17.0012C22.5864 16.5677 22.594 16.0368 22.7186 15.7909C22.8431 15.545 23.0802 15.5607 23.0521 15.4798C23.024 15.3989 22.7585 15.4262 22.534 15.7283C22.3095 16.0304 22.4313 16.3085 21.8026 16.8432C21.1739 17.378 21.3233 17.7983 20.7234 18.2597" fill="#F6B40E"/>
<path d="M20.1324 20.1049L22.0296 14.9885C22.0296 14.9885 22.069 14.8938 22.0058 14.8675C21.9426 14.8413 21.9034 14.9362 21.9034 14.9362L19.627 19.8955M21.0299 18.5697C21.5828 18.0559 21.5481 17.4345 22.0672 17.0012C22.5864 16.5677 22.594 16.0368 22.7186 15.7909C22.8431 15.545 23.0802 15.5607 23.0521 15.4798C23.024 15.3989 22.7585 15.4262 22.534 15.7283C22.3095 16.0304 22.4313 16.3085 21.8026 16.8432C21.1739 17.378 21.3233 17.7983 20.7234 18.2597" stroke="#85340A" stroke-width="0.044464"/>
<path d="M20.0723 20.1934L23.7831 16.1926C23.7831 16.1926 23.8557 16.1201 23.8074 16.0717C23.759 16.0232 23.6865 16.0958 23.6865 16.0958L19.6855 19.8067M21.489 19.1184C22.1965 18.8554 22.4022 18.2681 23.0476 18.0663C23.6931 17.8646 23.9034 17.3771 24.1125 17.1976C24.3217 17.0181 24.5348 17.1232 24.5397 17.0377C24.5447 16.9522 24.289 16.8757 23.966 17.0691C23.643 17.2623 23.649 17.5657 22.8635 17.8192C22.0781 18.0727 22.0553 18.5182 21.3245 18.7147" fill="#F6B40E"/>
<path d="M20.0723 20.1934L23.7831 16.1926C23.7831 16.1926 23.8557 16.1201 23.8074 16.0717C23.759 16.0232 23.6865 16.0958 23.6865 16.0958L19.6855 19.8067M21.489 19.1184C22.1965 18.8554 22.4022 18.2681 23.0476 18.0663C23.6931 17.8646 23.9034 17.3771 24.1125 17.1976C24.3217 17.0181 24.5348 17.1232 24.5397 17.0377C24.5447 16.9522 24.289 16.8757 23.966 17.0691C23.643 17.2623 23.649 17.5657 22.8635 17.8192C22.0781 18.0727 22.0553 18.5182 21.3245 18.7147" stroke="#85340A" stroke-width="0.044464"/>
<path d="M19.5347 18.0473C19.4984 17.3229 19.0877 17.0021 19.1684 16.3421C18.9913 16.8641 19.4182 17.2688 19.394 18.0398M20.0059 19.9403L18.4469 16.5341L19.7532 20.045" fill="#85340A"/>
<path d="M20.3078 18.0639C20.5515 17.3807 20.2948 16.9272 20.6219 16.3484C20.2585 16.7629 20.4981 17.3001 20.1806 18.0031M20.0186 19.9931L19.8819 16.2497L19.7451 19.9932" fill="#85340A"/>
<path d="M21.0171 18.3752C21.5036 17.8374 21.4399 17.3202 21.9637 16.9105C21.4694 17.1544 21.4852 17.7424 20.9228 18.2704M20.0117 20.047L21.3178 16.5362L19.7589 19.9425" fill="#85340A"/>
<path d="M21.5523 18.9339C22.2075 18.6232 22.3467 18.1212 22.9874 17.943C22.4374 17.9792 22.2269 18.5284 21.5054 18.8012M19.9835 20.0937L22.5339 17.3499L19.79 19.9004" fill="#85340A"/>
<path d="M19.9847 20.2529L24.9441 17.9766C24.9441 17.9766 25.0389 17.9374 25.0127 17.8742C24.9866 17.811 24.8919 17.8502 24.8919 17.8502L19.7754 19.7475M21.705 19.8019C22.4591 19.8296 22.874 19.3657 23.5476 19.4264C24.2211 19.4869 24.602 19.117 24.8639 19.0312C25.1257 18.9452 25.2825 19.124 25.3196 19.047C25.357 18.97 25.1501 18.8014 24.7776 18.8564C24.4052 18.9112 24.2946 19.194 23.4721 19.1276C22.6494 19.0612 22.4577 19.464 21.7074 19.366" fill="#F6B40E"/>
<path d="M19.9847 20.2529L24.9441 17.9766C24.9441 17.9766 25.0389 17.9374 25.0127 17.8742C24.9866 17.811 24.8919 17.8502 24.8919 17.8502L19.7754 19.7475M21.705 19.8019C22.4591 19.8296 22.874 19.3657 23.5476 19.4264C24.2211 19.4869 24.602 19.117 24.8639 19.0312C25.1257 18.9452 25.2825 19.124 25.3196 19.047C25.357 18.97 25.1501 18.8014 24.7776 18.8564C24.4052 18.9112 24.2946 19.194 23.4721 19.1276C22.6494 19.0612 22.4577 19.464 21.7074 19.366" stroke="#85340A" stroke-width="0.044464"/>
<path d="M19.8792 20.2736L25.3321 20.0683C25.3321 20.0683 25.4347 20.0685 25.4348 20.0001C25.4348 19.9317 25.3322 19.9318 25.3322 19.9318L19.8792 19.7266M21.6411 20.5152C22.3272 20.8295 22.8881 20.5596 23.4872 20.8733C24.0862 21.1871 24.5797 20.9911 24.8544 21.012C25.1293 21.033 25.2057 21.258 25.2696 21.2011C25.3334 21.1442 25.2067 20.9093 24.8417 20.8175C24.4767 20.7258 24.2663 20.9447 23.5317 20.5685C22.7972 20.1923 22.4659 20.4912 21.8102 20.1133" fill="#F6B40E"/>
<path d="M19.8792 20.2736L25.3321 20.0683C25.3321 20.0683 25.4347 20.0685 25.4348 20.0001C25.4348 19.9317 25.3322 19.9318 25.3322 19.9318L19.8792 19.7266M21.6411 20.5152C22.3272 20.8295 22.8881 20.5596 23.4872 20.8733C24.0862 21.1871 24.5797 20.9911 24.8544 21.012C25.1293 21.033 25.2057 21.258 25.2696 21.2011C25.3334 21.1442 25.2067 20.9093 24.8417 20.8175C24.4767 20.7258 24.2663 20.9447 23.5317 20.5685C22.7972 20.1923 22.4659 20.4912 21.8102 20.1133" stroke="#85340A" stroke-width="0.044464"/>
<path d="M19.7751 20.2531L24.8916 22.1503C24.8916 22.1503 24.9862 22.1897 25.0126 22.1265C25.0387 22.0633 24.9439 22.0241 24.9439 22.0241L19.9844 19.7477M21.3104 21.1506C21.8241 21.7035 22.4456 21.6688 22.8788 22.1879C23.3123 22.7071 23.8432 22.7147 24.0891 22.8393C24.3351 22.9638 24.3194 23.2009 24.4002 23.1728C24.4811 23.1447 24.4539 22.8792 24.1517 22.6547C23.8496 22.4302 23.5716 22.552 23.0368 21.9233C22.5021 21.2946 22.0817 21.444 21.6204 20.8441" fill="#F6B40E"/>
<path d="M19.7751 20.2531L24.8916 22.1503C24.8916 22.1503 24.9862 22.1897 25.0126 22.1265C25.0387 22.0633 24.9439 22.0241 24.9439 22.0241L19.9844 19.7477M21.3104 21.1506C21.8241 21.7035 22.4456 21.6688 22.8788 22.1879C23.3123 22.7071 23.8432 22.7147 24.0891 22.8393C24.3351 22.9638 24.3194 23.2009 24.4002 23.1728C24.4811 23.1447 24.4539 22.8792 24.1517 22.6547C23.8496 22.4302 23.5716 22.552 23.0368 21.9233C22.5021 21.2946 22.0817 21.444 21.6204 20.8441" stroke="#85340A" stroke-width="0.044464"/>
<path d="M19.6855 20.1934L23.6864 23.9042C23.6864 23.9042 23.7589 23.9767 23.8073 23.9284C23.8557 23.8802 23.7831 23.8075 23.7831 23.8075L20.0723 19.8067M20.7605 21.6102C21.0235 22.3175 21.6109 22.5232 21.8126 23.1687C22.0144 23.8142 22.5019 24.0244 22.6814 24.2337C22.861 24.4427 22.7558 24.6558 22.8412 24.6608C22.9267 24.6658 23.0032 24.4102 22.8099 24.0872C22.6166 23.764 22.3132 23.7702 22.0597 22.9847C21.8063 22.1992 21.3607 22.1763 21.1642 21.4455" fill="#F6B40E"/>
<path d="M19.6855 20.1934L23.6864 23.9042C23.6864 23.9042 23.7589 23.9767 23.8073 23.9284C23.8557 23.8802 23.7831 23.8075 23.7831 23.8075L20.0723 19.8067M20.7605 21.6102C21.0235 22.3175 21.6109 22.5232 21.8126 23.1687C22.0144 23.8142 22.5019 24.0244 22.6814 24.2337C22.861 24.4427 22.7558 24.6558 22.8412 24.6608C22.9267 24.6658 23.0032 24.4102 22.8099 24.0872C22.6166 23.764 22.3132 23.7702 22.0597 22.9847C21.8063 22.1992 21.3607 22.1763 21.1642 21.4455" stroke="#85340A" stroke-width="0.044464"/>
<path d="M21.832 19.6552C22.5563 19.6189 22.877 19.2082 23.5371 19.2889C23.0151 19.1117 22.6105 19.5387 21.8395 19.5145M19.939 20.1264L23.3451 18.5674L19.8342 19.8737" fill="#85340A"/>
<path d="M21.8152 20.4288C22.4982 20.6725 22.9517 20.4158 23.5307 20.7429C23.1162 20.3796 22.5789 20.6192 21.8759 20.3017M19.8859 20.1397L23.6294 20.0029L19.8857 19.8662" fill="#85340A"/>
<path d="M21.5036 21.1371C22.0415 21.6236 22.5586 21.56 22.9683 22.0837C22.7245 21.5894 22.1365 21.6052 21.6085 21.0429M19.8318 20.1317L23.3427 21.4378L19.9365 19.8789" fill="#85340A"/>
<path d="M20.944 21.6722C21.2547 22.3276 21.7568 22.4667 21.9349 23.1073C21.8988 22.5573 21.3495 22.3468 21.0769 21.6253M19.7842 20.1037L22.528 22.6539L19.9775 19.9102" fill="#85340A"/>
<path d="M19.8805 22.2222C21.1079 22.2222 22.1027 21.2272 22.1027 20C22.1027 18.7727 21.1079 17.7777 19.8805 17.7777C18.6531 17.7777 17.6582 18.7727 17.6582 20C17.6582 21.2272 18.6531 22.2222 19.8805 22.2222Z" fill="#F6B40E" stroke="#85340A" stroke-width="0.06"/>
<path d="M20.6364 19.5247C20.4847 19.5247 20.3394 19.5905 20.2539 19.7273C20.4248 19.881 20.8024 19.8977 21.0589 19.7097C20.9478 19.5902 20.7881 19.5247 20.6364 19.5247ZM20.6339 19.5597C20.7816 19.557 20.9196 19.6249 20.9389 19.6923C20.768 19.8803 20.4948 19.8639 20.3239 19.7273C20.3987 19.6075 20.519 19.5618 20.6339 19.5597Z" fill="#843511"/>
<path d="M20.6654 19.4191C20.4433 19.4191 20.3919 19.4703 20.2893 19.5558C20.1866 19.6412 20.1354 19.6242 20.1184 19.6412C20.1014 19.6584 20.1184 19.7097 20.1524 19.6924C20.1866 19.6753 20.2551 19.6412 20.3575 19.5558C20.4603 19.4702 20.5626 19.4703 20.6653 19.4703C20.9729 19.4703 21.1439 19.7267 21.178 19.7096C21.2121 19.6924 21.0071 19.4191 20.6654 19.4191Z" fill="#85340A"/>
<path d="M21.2811 19.5217C20.8879 19.1798 20.3923 19.1285 20.1187 19.385C20.0517 19.4746 20.0088 19.5705 19.9912 19.6705C19.9568 19.8652 20.0177 20.0755 20.1702 20.291C20.153 20.2909 20.1187 20.308 20.1016 20.3251C19.9659 20.0656 19.9179 19.799 19.9624 19.5455C19.9741 19.4793 19.9923 19.4141 20.016 19.3506C20.392 19.043 20.905 19.0088 21.2811 19.5217Z" fill="#85340A"/>
<path d="M20.6324 19.8458C20.7173 19.8458 20.7863 19.7769 20.7863 19.6919C20.7863 19.607 20.7173 19.5381 20.6324 19.5381C20.5474 19.5381 20.4785 19.607 20.4785 19.6919C20.4785 19.7769 20.5474 19.8458 20.6324 19.8458Z" fill="#85340A"/>
<path d="M21.0761 19.7953C20.7855 20.0175 20.4949 20.0003 20.324 19.8978C20.1531 19.7953 20.1531 19.7611 20.1872 19.7611C20.2213 19.7611 20.2555 19.7953 20.3923 19.8636C20.5291 19.9321 20.7342 19.9321 21.0761 19.7953Z" fill="#85340A"/>
<path d="M19.5391 20.307C19.466 20.3203 19.4141 20.3852 19.4141 20.4595C19.4141 20.5443 19.4842 20.612 19.5691 20.612C19.6191 20.612 19.6652 20.5882 19.6941 20.547C19.7531 20.5915 19.8351 20.5962 19.8791 20.597C19.8857 20.5972 19.8945 20.597 19.8991 20.597C19.9428 20.5962 20.0248 20.5915 20.0841 20.547C20.1128 20.5882 20.1588 20.612 20.2091 20.612C20.2938 20.612 20.3641 20.5443 20.3641 20.4595C20.3641 20.3852 20.3121 20.3203 20.2391 20.307C20.2801 20.3215 20.3066 20.3611 20.3066 20.4045C20.3066 20.4611 20.2608 20.507 20.2041 20.507C20.1496 20.507 20.1047 20.4637 20.1016 20.4095C20.0848 20.4427 20.0187 20.5418 19.8891 20.547C19.7592 20.5418 19.6932 20.4427 19.6766 20.4095C19.6733 20.4637 19.6285 20.507 19.5741 20.507C19.5172 20.507 19.4716 20.4611 19.4716 20.4045C19.4716 20.3612 19.498 20.3215 19.5391 20.307Z" fill="#85340A"/>
<path d="M19.7067 20.7623C19.5357 20.7623 19.468 20.9172 19.3142 21.0198C19.3997 20.9857 19.467 20.9183 19.5867 20.8498C19.7064 20.7815 19.8085 20.8648 19.8767 20.8648H19.8792C19.9475 20.8648 20.0495 20.7816 20.1692 20.8498C20.2889 20.9183 20.3587 20.9857 20.4442 21.0198C20.2903 20.9172 20.2202 20.7623 20.0492 20.7623C20.015 20.7623 19.9475 20.7807 19.8792 20.8148H19.8767C19.8084 20.7807 19.7409 20.7623 19.7067 20.7623Z" fill="#85340A"/>
<path d="M19.6483 20.9647C19.5808 20.9677 19.4915 20.9813 19.3633 21.0197C19.6711 20.9514 19.739 21.0547 19.8758 21.0547H19.8783C20.0151 21.0547 20.083 20.9514 20.3908 21.0197C20.0488 20.9172 19.9808 20.9847 19.8783 20.9847H19.8758C19.8117 20.9847 19.7608 20.9597 19.6483 20.9647Z" fill="#85340A"/>
<path d="M19.3795 21.0177C19.3597 21.018 19.338 21.0181 19.3145 21.0202C19.6736 21.0543 19.501 21.2602 19.877 21.2602H19.8795C20.2556 21.2602 20.0855 21.0543 20.4445 21.0202C20.0685 20.9861 20.1874 21.2077 19.8795 21.2077H19.877C19.5884 21.2077 19.6774 21.014 19.3795 21.0177Z" fill="#85340A"/>
<path d="M20.1877 21.5727C20.1877 21.4028 20.0498 21.265 19.88 21.265C19.7101 21.265 19.5723 21.4028 19.5723 21.5727C19.6061 21.4302 19.7336 21.3296 19.88 21.3296C20.0267 21.3296 20.1538 21.4302 20.1877 21.5727Z" fill="#85340A"/>
<path d="M18.498 19.5217C18.8911 19.1798 19.3868 19.1285 19.6604 19.385C19.7273 19.4746 19.7702 19.5705 19.7878 19.6705C19.8223 19.8652 19.7614 20.0755 19.6089 20.291C19.6261 20.2909 19.6604 20.308 19.6775 20.3251C19.8132 20.0656 19.8612 19.799 19.8166 19.5455C19.805 19.4793 19.7868 19.4141 19.7631 19.3506C19.387 19.043 18.8741 19.0088 18.498 19.5217Z" fill="#85340A"/>
<path d="M19.114 19.4191C19.3362 19.4191 19.3876 19.4703 19.4902 19.5558C19.5928 19.6412 19.6439 19.6242 19.661 19.6412C19.678 19.6584 19.661 19.7097 19.6269 19.6924C19.5928 19.6753 19.5243 19.6412 19.4218 19.5558C19.3192 19.4702 19.2168 19.4703 19.1142 19.4703C18.8064 19.4703 18.6355 19.7267 18.6013 19.7096C18.5673 19.6924 18.7723 19.4191 19.114 19.4191Z" fill="#85340A"/>
<path d="M19.1032 19.5247C18.9515 19.5247 18.8062 19.5905 18.7207 19.7273C18.8916 19.881 19.2692 19.8977 19.5257 19.7097C19.4146 19.5902 19.255 19.5247 19.1032 19.5247ZM19.1007 19.5597C19.2485 19.557 19.3865 19.6249 19.4057 19.6923C19.2349 19.8803 18.9616 19.8639 18.7907 19.7273C18.8655 19.6075 18.9859 19.5618 19.1007 19.5597Z" fill="#843511"/>
<path d="M19.1228 19.8458C19.2078 19.8458 19.2767 19.777 19.2767 19.692C19.2767 19.607 19.2078 19.5381 19.1228 19.5381C19.0379 19.5381 18.969 19.607 18.969 19.692C18.969 19.777 19.0379 19.8458 19.1228 19.8458Z" fill="#85340A"/>
<path d="M18.7031 19.7953C18.9937 20.0175 19.2843 20.0003 19.4553 19.8978C19.6262 19.7953 19.6262 19.7611 19.592 19.7611C19.5579 19.7611 19.5238 19.7953 19.387 19.8636C19.2502 19.9321 19.045 19.9321 18.7031 19.7953Z" fill="#85340A"/>
</g>
</g>
</g>
<defs>
<clipPath id="clip0_16699_261979">
<rect width="40" height="40" fill="white"/>
</clipPath>
</defs>
</svg>
