<svg width="40" height="40" viewBox="0 0 40 40" fill="none" xmlns="http://www.w3.org/2000/svg">
<g clip-path="url(#clip0_16699_262054)">
<mask id="mask0_16699_262054" style="mask-type:luminance" maskUnits="userSpaceOnUse" x="0" y="0" width="40" height="40">
<path d="M40 20C40 8.95431 31.0457 0 20 0C8.95431 0 0 8.95431 0 20C0 31.0457 8.95431 40 20 40C31.0457 40 40 31.0457 40 20Z" fill="white"/>
</mask>
<g mask="url(#mask0_16699_262054)">
<mask id="mask1_16699_262054" style="mask-type:luminance" maskUnits="userSpaceOnUse" x="-14" y="0" width="55" height="40">
<path d="M-13.3333 0H40.0001V40H-13.3333V0Z" fill="white"/>
</mask>
<g mask="url(#mask1_16699_262054)">
<mask id="mask2_16699_262054" style="mask-type:luminance" maskUnits="userSpaceOnUse" x="-14" y="0" width="55" height="40">
<path d="M-13.3333 0H40.0001V40H-13.3333V0Z" fill="white"/>
</mask>
<g mask="url(#mask2_16699_262054)">
<path d="M-44.5 -1.33333H40.8333V41.3333H-44.5V-1.33333Z" fill="#000066"/>
<path fill-rule="evenodd" clip-rule="evenodd" d="M-44.5 20L40.8333 41.3333V-1.33333L-44.5 20Z" fill="#BD1021"/>
<path fill-rule="evenodd" clip-rule="evenodd" d="M40.8334 0.952477V39.0475L-35.3574 20L40.8334 0.952477Z" fill="white"/>
<path fill-rule="evenodd" clip-rule="evenodd" d="M26.4999 24.7833C26.4999 24.7833 25.9673 24.3475 26.5968 23.6452C26.2578 23.3547 26.5727 22.7977 26.5727 22.7977C26.5727 22.7977 25.9914 22.5798 26.5968 21.6838C26.161 21.3933 26.3547 20.7394 26.3547 20.7394C26.3547 20.7394 24.926 20.2067 26.2822 19.6983C25.1682 20.1824 24.1269 19.0443 24.1269 19.0443L22.5046 19.0928C22.2294 17.7451 20.0904 18.9155 21.6806 15.0494C21.2689 14.9768 20.8089 14.8558 20.3488 15.1948C19.8886 15.5337 18.5811 16.2601 17.8063 15.5337C17.0314 14.8073 18.3146 13.766 18.3389 13.7418C18.3631 13.7177 20.0581 12.846 20.3003 12.2648C20.2761 11.8289 19.7434 11.4899 20.2276 10.5456C20.7845 9.64951 24.1984 8.80201 25.7493 8.51142C26.4998 8.17242 26.8389 7.51859 26.8389 7.51859L27.0084 8.14817C27.0084 8.14817 30.4469 7.13109 30.6164 6.64684C30.7859 6.16259 30.6891 7.08267 30.6891 7.08267C32.0451 6.96159 33.7643 5.79934 34.0066 6.33201C35.1446 6.11409 37.3241 5.14551 37.3241 5.14551C37.3241 5.14551 38.0746 5.12134 37.5418 5.94467C37.8808 6.47734 37.445 6.93742 37.4208 6.93742C37.3967 6.93742 37.5661 7.47026 37.1303 7.76076C37.2757 8.22092 36.8638 8.58409 36.8638 8.58409C36.8638 8.58409 37.0577 9.14109 36.2828 9.43159C36.3554 9.91592 35.8469 10.0128 35.8469 10.0128C35.8469 10.0128 35.9196 10.5213 35.5806 10.7393C35.5806 11.1268 35.1931 11.3204 35.1931 11.3204C35.1931 11.3204 35.4353 11.4657 35.0962 11.7079C34.7573 11.95 31.2462 14.1051 31.2462 14.0809C31.2462 14.0568 33.8128 14.5409 33.9823 14.6378C34.1518 14.7348 36.089 16.0182 36.089 16.0182L34.1276 18.4395C34.1276 18.4395 31.9484 18.1974 31.8516 18.3185C31.7548 18.4396 32.3116 18.488 32.4327 18.6817C32.5539 18.8753 32.7477 19.3356 33.135 19.2871C33.5225 19.2386 32.4086 19.9893 31.6822 20.0621C31.6822 20.3283 32.6022 20.3525 32.8444 20.1346C33.0867 19.9167 32.2633 20.7642 32.1664 20.8853C32.0695 21.0063 33.2562 20.7158 33.2562 20.7158C33.2562 20.7158 33.0625 21.5149 32.0213 21.7571C32.433 22.4351 32.2634 22.871 32.2392 22.871C32.2149 22.871 31.5612 22.1929 30.9317 22.314C31.1011 22.9678 31.6097 23.573 31.755 23.67C31.9002 23.7668 30.6168 23.7425 30.4473 23.3793C30.2778 23.0162 30.1325 24.251 30.5926 24.6385C30.0599 24.6627 29.5998 24.3479 29.5998 24.3479C29.5998 24.3479 29.2851 25.0743 29.5029 25.4377C29.721 25.801 28.7524 24.7112 28.7524 24.7112L26.9121 25.4862L26.5004 24.7838L26.4999 24.7833Z" fill="#9C3900" stroke="black" stroke-width="0.8805" stroke-linejoin="round"/>
<path fill-rule="evenodd" clip-rule="evenodd" d="M12.277 23.3417C12.3201 23.3417 14.9505 23.2985 16.158 22.6086C16.7616 23.5572 17.581 24.2041 17.581 24.2041L17.9691 22.8241C17.9691 22.8241 18.9179 22.8672 19.0041 23.0829C18.8747 23.3415 18.8316 23.6865 18.8316 23.6865C18.8316 23.6865 19.4783 23.7297 19.5216 23.8158C19.5646 23.9021 19.3491 24.635 19.3491 24.635L22.1088 25.2819C22.1088 25.2819 22.3244 24.2039 22.5401 24.3332C22.7557 24.4627 23.7044 25.7995 25.0411 25.8857C26.3779 25.972 26.4641 24.7645 26.4641 24.7645L26.7658 24.937C26.7658 24.937 27.3265 23.7297 27.4127 23.7297C27.499 23.7297 27.6284 23.9022 28.3614 23.9022C28.577 24.1609 28.6633 24.7645 28.6633 24.7645C28.6633 24.7645 27.8439 25.5839 28.1026 26.2307C28.3614 26.8776 28.4046 26.7049 28.4046 26.7049L34.3552 28.128C34.3552 28.128 34.6572 28.6024 34.1397 28.8612C34.1397 28.9042 28.1458 27.4812 28.1458 27.4812C28.1458 27.4812 27.5851 28.128 27.154 27.9987C26.7228 27.8693 27.0246 28.2574 27.0246 28.2574L33.4928 28.7749C33.4928 28.7749 33.9671 29.3786 33.6221 29.5511C33.191 29.5942 26.6366 29.1199 26.6366 29.1199C26.6366 29.1199 26.2482 29.9391 25.8171 29.2492C25.5155 29.7234 25.1703 29.1199 25.1703 29.1199C25.1703 29.1199 24.6098 29.5511 24.5235 29.0766C24.0491 29.4216 23.7473 28.8612 23.7473 28.8612L20.9875 28.6887L20.815 28.9473C20.815 28.9473 21.2893 29.0765 20.5562 29.3785C19.8232 29.6803 24.9546 29.551 25.084 29.5941C25.2133 29.6374 24.739 30.0254 24.739 30.0254C24.739 30.0254 27.3695 30.1979 27.8437 29.6373C28.3181 29.0765 27.6712 30.3702 27.6712 30.3702C27.6712 30.3702 29.7412 30.2841 29.7412 30.1977C29.7412 30.1114 29.6979 30.8447 28.275 30.7583C29.1375 31.319 30.2154 31.6639 30.2154 31.6639C30.2154 31.6639 29.1374 31.9226 27.8869 31.6207C28.1024 32.1813 29.0512 32.6987 29.0512 32.6987C29.0512 32.6987 28.3612 33.3025 26.8087 31.8362C27.2401 32.6125 26.8951 32.9144 26.8521 32.8281C26.8087 32.7418 26.0758 31.6639 24.351 31.2757C25.429 31.9657 24.9546 32.2676 24.9546 32.2676C24.9546 32.2676 24.3941 31.2757 23.4885 32.2676C23.1435 31.362 21.8068 30.8446 20.1681 30.7582C19.6506 30.1547 19.349 30.3271 18.1415 29.9821C17.4515 29.206 16.4598 28.3435 16.4598 28.3435C16.4598 28.3435 16.5029 27.1793 17.6671 27.3085C17.7965 27.6967 17.7965 27.5673 17.7965 27.5673C17.7965 27.5673 19.0901 27.093 19.4781 27.7398C20.0388 26.748 20.815 27.5915 20.9444 27.9365C21.3159 27.991 23.1866 28.0417 23.1866 28.0417C23.1866 28.0417 22.971 27.6536 23.1004 27.6967C23.2297 27.7398 24.2646 27.3087 24.2216 27.1793C24.1785 27.0499 24.1354 26.6187 24.3078 26.6618C24.4803 26.7049 22.8417 26.4462 21.9361 27.1362C21.6343 26.8343 21.8499 26.015 21.8499 26.015L19.1766 25.4545L19.0471 26.1445C19.0471 26.1445 18.2709 26.2737 18.3141 26.1013C18.3571 25.9288 18.1416 26.7049 18.1416 26.7049C18.1416 26.7049 17.1066 26.4462 17.1066 26.4032C17.1066 26.3602 17.4085 24.8507 17.4085 24.8939C17.4085 24.9371 16.546 24.9802 15.3386 25.8857C14.9936 24.8077 12.277 23.3847 12.277 23.3416V23.3417Z" fill="#FFC221" stroke="black" stroke-width="0.939"/>
<path d="M26.8957 30.5858C26.8526 30.5858 25.5159 30.7583 25.3432 30.7153C25.1709 30.6723 27.4563 31.4053 27.4563 31.707M24.4809 30.8888C24.4809 30.8888 23.1442 30.0265 22.9286 30.1127C22.713 30.1989 24.2652 30.0696 24.3947 29.9402M21.7209 29.8968C21.7209 29.8968 20.3411 29.9399 20.2117 29.8106C20.0824 29.6813 21.5484 30.7593 21.8071 30.6731M19.0473 29.2923C19.0041 29.2923 18.0986 28.9473 17.7106 28.861C18.0555 29.206 18.3142 29.6804 19.1766 29.8528M19.3923 28.7323C19.3491 28.6461 17.6675 28.1286 17.6675 27.8698C18.0555 27.9993 18.6161 28.1717 19.1335 28.0423" fill="black"/>
<path d="M18.8317 23.7303L18.2711 26.2313M19.3491 24.6788L19.1766 25.498M22.109 25.3257L21.8502 26.1018M26.8957 30.5858C26.8526 30.5858 25.5159 30.7583 25.3432 30.7153C25.1709 30.6723 27.4563 31.4053 27.4563 31.707M24.4809 30.8888C24.4809 30.8888 23.1442 30.0265 22.9286 30.1127C22.713 30.1989 24.2652 30.0696 24.3947 29.9402M21.7209 29.8968C21.7209 29.8968 20.3411 29.9399 20.2117 29.8106C20.0824 29.6813 21.5484 30.7593 21.8071 30.6731M19.0473 29.2923C19.0041 29.2923 18.0986 28.9473 17.7106 28.861C18.0555 29.206 18.3142 29.6804 19.1766 29.8528M19.3923 28.7323C19.3491 28.6461 17.6675 28.1286 17.6675 27.8698C18.0555 27.9993 18.6161 28.1717 19.1335 28.0423M28.3186 26.7483L28.1461 27.5245" stroke="black" stroke-width="0.939"/>
<path fill-rule="evenodd" clip-rule="evenodd" d="M15.6408 19.8058C15.6408 19.8058 13.8296 21.3582 15.6408 22.2637C15.7269 21.66 15.8564 21.5738 15.8564 21.5738C15.8564 21.5738 17.3655 22.1343 18.2711 20.7976C17.883 20.2372 17.193 20.4527 17.193 20.4527C17.193 20.4527 15.77 20.4527 15.6407 19.8061L15.6408 19.8058Z" fill="#FFC221" stroke="black" stroke-width="0.939"/>
<path d="M21.0015 27.9833C21.0015 27.9833 21.2898 28.3012 21.031 28.6892L21.0015 27.9833ZM25.5071 25.8246C25.5071 25.8246 25.5312 26.6963 24.8048 26.6721C24.0784 26.6479 24.3205 26.6963 24.3205 26.6963" fill="black"/>
<path d="M17.1502 20.4962L15.8997 21.5742M21.0015 27.9833C21.0015 27.9833 21.2898 28.3012 21.031 28.6892M27.0685 28.3015L26.5942 28.3448M23.1874 28.0421L24.0499 28.1714M25.5071 25.8246C25.5071 25.8246 25.5312 26.6963 24.8048 26.6721C24.0784 26.6479 24.3205 26.6963 24.3205 26.6963" stroke="black" stroke-width="0.939"/>
<path d="M26.0645 25.679C26.0645 25.679 26.3551 25.7758 26.2825 25.9938C26.2098 26.2117 26.355 26.8413 25.5077 27.4467C24.6116 27.6403 24.7085 26.6961 24.7085 26.6961" fill="black"/>
<path d="M26.0645 25.679C26.0645 25.679 26.3551 25.7758 26.2825 25.9938C26.2098 26.2117 26.355 26.8413 25.5077 27.4467C24.6116 27.6403 24.7085 26.6961 24.7085 26.6961" stroke="black" stroke-width="0.939"/>
<path d="M26.379 25.9455C26.379 25.9455 26.9117 25.6307 26.9843 26.1392C27.0568 26.6477 26.5485 27.5922 26.1852 27.7376C25.822 27.8828 25.4104 27.7132 25.4588 27.4712M27.0328 26.1638C27.0328 26.1638 27.5173 25.7763 27.6624 26.2848C27.8078 26.7934 27.2751 27.9315 27.0571 27.9557M27.7102 26.2847C27.7102 26.2847 27.9524 26.1637 28.1218 26.3089L27.7102 26.2847ZM26.9354 28.028C26.8386 28.0522 26.4269 28.0763 26.2817 27.7617L26.9354 28.028ZM24.7567 27.1804C24.7325 27.1804 24.2482 27.2048 24.2482 27.2048L24.7567 27.1804ZM26.6208 29.0939L26.5725 28.2947L26.3788 28.0285L26.0398 28.3675C26.0398 28.3675 25.9912 29.1667 25.8459 29.2392M26.0398 28.3425C26.0155 28.2942 25.7733 27.8342 25.7733 27.8342L25.3617 28.3425C25.3617 28.3425 25.3133 29.0692 25.168 29.1418M25.3612 28.3179C25.3612 28.2938 25.1917 27.8338 25.1917 27.8338C25.1917 27.8338 24.7075 28.1001 24.659 28.2937C24.6107 28.4875 24.5863 29.0202 24.4653 29.0688M24.6592 28.197C24.6592 28.197 24.7077 27.7612 24.5623 27.7612C24.4172 27.7612 23.7632 28.3666 23.739 28.8992" fill="black"/>
<path d="M26.379 25.9455C26.379 25.9455 26.9117 25.6307 26.9843 26.1392C27.0568 26.6477 26.5485 27.5922 26.1852 27.7376C25.822 27.8828 25.4104 27.7132 25.4588 27.4712M27.0328 26.1638C27.0328 26.1638 27.5173 25.7763 27.6624 26.2848C27.8078 26.7934 27.2751 27.9315 27.0571 27.9557M27.7102 26.2847C27.7102 26.2847 27.9524 26.1637 28.1218 26.3089M26.9354 28.028C26.8386 28.0522 26.4269 28.0763 26.2817 27.7617M24.7567 27.1804C24.7325 27.1804 24.2482 27.2048 24.2482 27.2048M26.6208 29.0939L26.5725 28.2947L26.3788 28.0285L26.0398 28.3675C26.0398 28.3675 25.9912 29.1667 25.8459 29.2392M26.0398 28.3425C26.0155 28.2942 25.7733 27.8342 25.7733 27.8342L25.3617 28.3425C25.3617 28.3425 25.3133 29.0692 25.168 29.1418M25.3612 28.3179C25.3612 28.2938 25.1917 27.8338 25.1917 27.8338C25.1917 27.8338 24.7075 28.1001 24.659 28.2937C24.6107 28.4875 24.5863 29.0202 24.4653 29.0688M24.6592 28.197C24.6592 28.197 24.7077 27.7612 24.5623 27.7612C24.4172 27.7612 23.7632 28.3666 23.739 28.8992" stroke="black" stroke-width="0.939"/>
<path fill-rule="evenodd" clip-rule="evenodd" d="M15.7002 19.8187C15.7002 19.8187 15.9423 19.5766 16.0149 19.2861C16.0874 18.9955 15.918 18.6807 16.2086 18.4144C16.4992 18.1479 20.325 16.5256 20.6399 16.2107C20.9547 15.8959 21.5358 15.2179 21.6085 15.0726C21.681 14.9273 21.8991 15.799 21.2452 16.1865C21.9475 15.9927 22.4077 15.7748 22.6981 15.8715C22.4075 16.2832 21.6327 16.9613 21.2694 16.9613C22.1169 16.6465 22.8919 16.3801 23.1098 16.5497C23.3277 16.7192 22.0685 17.5667 21.56 17.6151C22.4075 17.3972 23.5459 17.0582 23.691 17.4213C23.231 17.5667 23.376 17.6876 22.4319 18.2205C22.3108 18.3174 21.7054 18.3415 21.7054 18.3415C22.4319 18.2688 23.4246 17.9782 23.5214 18.511C22.9404 18.7289 22.7224 19.0195 22.2381 19.1406C21.7539 19.2617 20.6399 19.4795 19.9619 19.7459C19.2839 20.0122 18.291 20.7872 18.291 20.7872C18.291 20.7872 16.136 20.8597 16.136 20.8355C16.136 20.8113 15.7244 19.8427 15.7002 19.8184V19.8187Z" fill="white" stroke="black" stroke-width="0.939" stroke-linejoin="round"/>
<path d="M16.717 19.6497C16.717 19.6497 16.7412 19.1656 16.9592 18.996C17.1772 18.8265 18.267 18.4148 18.5092 18.0516C18.7512 17.6883 18.1459 18.6811 18.2427 18.9474M17.153 18.9231C17.153 18.9231 17.6857 19.1169 17.5646 19.5285L17.153 18.9231Z" fill="black"/>
<path d="M16.717 19.6497C16.717 19.6497 16.7412 19.1656 16.9592 18.996C17.1772 18.8265 18.267 18.4148 18.5092 18.0516C18.7512 17.6883 18.1459 18.6811 18.2427 18.9474M17.153 18.9231C17.153 18.9231 17.6857 19.1169 17.5646 19.5285" stroke="black" stroke-width="0.939"/>
<path d="M17.7826 19.2018C17.7826 19.2543 17.7722 19.3062 17.7522 19.3547C17.7116 19.4526 17.6338 19.5303 17.536 19.571C17.4381 19.6115 17.3281 19.6115 17.2302 19.571C17.1322 19.5304 17.0545 19.4527 17.0138 19.3548C16.9782 19.2694 16.9735 19.1742 17.0002 19.0857C17.027 18.9971 17.0837 18.9206 17.1607 18.8692C17.2376 18.8177 17.33 18.7946 17.4221 18.8037C17.5142 18.8129 17.6002 18.8537 17.6656 18.9192C17.7027 18.9563 17.7322 19.0004 17.7522 19.0489C17.7723 19.0974 17.7826 19.1493 17.7826 19.2018Z" fill="black" stroke="black" stroke-width="0.8155"/>
<path fill-rule="evenodd" clip-rule="evenodd" d="M34.1764 18.342L38.3655 19.1412C38.3655 19.1412 38.8255 18.6083 38.5835 18.3178C39.2131 18.1726 39.0436 17.3493 39.0436 17.3493C39.0436 17.3493 39.77 17.0346 39.1646 16.308C39.5765 15.8963 39.0678 15.5816 39.0678 15.5816C39.0678 15.5816 39.2373 14.8552 38.7045 14.7824C38.8499 14.2014 37.7845 14.0077 37.7845 14.0077C37.7845 14.0077 35.5809 14.6131 34.0311 14.6616C34.5396 15.1701 33.8374 15.4849 33.8374 15.4849C33.8374 15.4849 34.249 15.7754 34.128 16.0176C34.0069 16.2597 34.2006 16.5259 33.668 16.6956C34.3701 17.0104 33.5952 17.5431 33.5952 17.5431C33.5952 17.5431 34.3702 18.0758 34.1765 18.3421L34.1764 18.342Z" fill="white" stroke="black" stroke-width="0.939"/>
<path d="M33.7641 17.4463C33.7641 17.4463 37.4691 17.8822 37.6386 17.8822C37.8081 17.8822 38.462 18.1002 38.583 18.318M33.9825 17.1071C33.9825 17.1071 38.8739 16.8165 39.2129 16.3079L33.9825 17.1071ZM34.1269 16.0417C34.1269 16.0417 39.0426 15.5088 39.0911 15.5815L34.1269 16.0417ZM33.9579 15.4362C33.9579 15.4362 38.7282 14.6856 38.7766 14.8066L33.9579 15.4362ZM20.3494 12.361C20.3494 12.361 21.8507 14.0077 21.7054 15.1215L20.3494 12.361Z" fill="black"/>
<path d="M33.7641 17.4463C33.7641 17.4463 37.4691 17.8822 37.6386 17.8822C37.8081 17.8822 38.462 18.1002 38.583 18.318M33.9579 17.2279L39.1156 17.349M33.9825 17.1071C33.9825 17.1071 38.8739 16.8165 39.2129 16.3079M34.1269 16.0417C34.1269 16.0417 39.0426 15.5088 39.0911 15.5815M33.9579 15.4362C33.9579 15.4362 38.7282 14.6856 38.7766 14.8066M20.3494 12.361C20.3494 12.361 21.8507 14.0077 21.7054 15.1215" stroke="black" stroke-width="0.939"/>
<path d="M21.6086 14.2497C21.6086 14.2497 22.0928 14.9519 22.2866 15.0246C22.4805 15.0972 24.1754 15.1941 24.2722 15.9206C24.369 16.3806 23.909 16.2353 23.9817 16.5743C24.1028 17.0102 25.2409 17.5671 26.4759 16.9133M25.338 17.2525C25.338 17.2525 26.3549 18.7539 27.8563 17.1317L25.338 17.2525ZM27.0812 17.7856C27.0812 17.7856 28.3162 18.4393 29.3331 16.7443L27.0812 17.7856ZM28.025 17.93C28.025 17.93 28.6304 18.4385 29.8897 17.7606L28.025 17.93ZM31.6336 17.0825C31.6336 17.0825 33.4982 17.4698 33.6193 17.5908L31.6336 17.0825ZM32.3356 16.6715C32.3598 16.6715 33.6433 16.72 33.6433 16.72L32.3356 16.6715ZM31.5362 15.9448C31.5362 15.9448 33.764 15.7995 34.0545 16.2596L31.5362 15.9448ZM30.5677 15.2425C30.5677 15.2425 33.6915 15.3636 33.8367 15.5331L30.5677 15.2425ZM31.2697 18.4383C31.2697 18.4383 31.8025 18.2931 31.8751 18.3658L31.2697 18.4383ZM30.0595 19.746C30.0595 19.746 30.7616 20.3514 31.6578 20.085L30.0595 19.746ZM30.4467 20.7638C30.4467 20.7638 31.2459 21.127 32.1903 20.909L30.4467 20.7638ZM30.7134 21.3683C30.7134 21.3683 31.5124 21.9011 32.045 21.8042L30.7134 21.3683ZM30.3505 21.6842C30.3505 21.6842 30.9075 22.0958 30.9316 22.3138L30.3505 21.6842ZM29.5759 22.1678C29.5759 22.1678 29.7453 23.0395 30.3507 23.3543L29.5759 22.1678ZM29.1637 22.5552C29.1637 22.5552 28.8974 23.6933 29.5754 24.3955L29.1637 22.5552ZM28.4617 23.4508C28.4617 23.475 28.4134 23.9836 28.4375 24.0321L28.4617 23.4508ZM24.103 19.044L25.4106 18.9713C25.4106 18.9713 25.8948 18.7777 25.5558 18.463M25.7253 18.7542C25.7496 18.7542 26.9603 18.8508 27.2751 19.2142C27.59 19.5773 27.9775 20.3038 28.1953 20.425C28.4133 20.5458 28.4617 20.3764 28.4617 20.3764M27.9288 20.1827C27.9288 20.1827 27.275 21.2967 27.7835 21.6357L27.9288 20.1827ZM27.5649 21.4177C27.5649 21.4177 26.9838 22.1927 27.4438 22.58L27.5649 21.4177ZM27.323 22.4825C27.323 22.4825 26.863 23.2332 27.42 23.7417L27.323 22.4825ZM27.12 20.4914C27.0887 20.5227 26.5575 20.8976 26.37 20.8039L27.12 20.4914ZM26.5575 21.6783C26.5575 21.6783 26.7763 21.897 26.9638 21.8658L26.5575 21.6783ZM21.1611 11.8083C21.1611 11.8083 21.7978 12.1395 22.307 11.8083C22.8163 11.4775 25.2608 10.2297 25.8974 10.026C26.5339 9.82225 26.8905 8.651 27.0178 8.14184M26.5342 9.51667L30.0992 8.47275C30.0992 8.47275 30.6848 7.98892 30.7102 7.09776M30.455 8.06534C30.455 8.06534 34.0199 7.70884 34.0199 6.38476L30.455 8.06534ZM33.4603 7.30134C33.4603 7.30134 37.2034 6.28276 37.56 5.90084L33.4603 7.30134Z" fill="black"/>
<path d="M21.6086 14.2497C21.6086 14.2497 22.0928 14.9519 22.2866 15.0246C22.4805 15.0972 24.1754 15.1941 24.2722 15.9206C24.369 16.3806 23.909 16.2353 23.9817 16.5743C24.1028 17.0102 25.2409 17.5671 26.4759 16.9133M25.338 17.2525C25.338 17.2525 26.3549 18.7539 27.8563 17.1317M27.0812 17.7856C27.0812 17.7856 28.3162 18.4393 29.3331 16.7443M28.025 17.93C28.025 17.93 28.6304 18.4385 29.8897 17.7606M31.6336 17.0825C31.6336 17.0825 33.4982 17.4698 33.6193 17.5908M32.3356 16.6715C32.3598 16.6715 33.6433 16.72 33.6433 16.72M31.5362 15.9448C31.5362 15.9448 33.764 15.7995 34.0545 16.2596M30.5677 15.2425C30.5677 15.2425 33.6915 15.3636 33.8367 15.5331M31.2697 18.4383C31.2697 18.4383 31.8025 18.2931 31.8751 18.3658M30.0595 19.746C30.0595 19.746 30.7616 20.3514 31.6578 20.085M30.4467 20.7638C30.4467 20.7638 31.2459 21.127 32.1903 20.909M30.7134 21.3683C30.7134 21.3683 31.5124 21.9011 32.045 21.8042M30.3505 21.6842C30.3505 21.6842 30.9075 22.0958 30.9316 22.3138M29.5759 22.1678C29.5759 22.1678 29.7453 23.0395 30.3507 23.3543M29.1637 22.5552C29.1637 22.5552 28.8974 23.6933 29.5754 24.3955M28.4617 23.4508C28.4617 23.475 28.4134 23.9836 28.4375 24.0321M24.103 19.044L25.4106 18.9713C25.4106 18.9713 25.8948 18.7777 25.5558 18.463M25.7253 18.7542C25.7496 18.7542 26.9603 18.8508 27.2751 19.2142C27.59 19.5773 27.9775 20.3038 28.1953 20.425C28.4133 20.5458 28.4617 20.3764 28.4617 20.3764M27.9288 20.1827C27.9288 20.1827 27.275 21.2967 27.7835 21.6357M27.5649 21.4177C27.5649 21.4177 26.9838 22.1927 27.4438 22.58M27.323 22.4825C27.323 22.4825 26.863 23.2332 27.42 23.7417M27.12 20.4914C27.0887 20.5227 26.5575 20.8976 26.37 20.8039M26.5575 21.6783C26.5575 21.6783 26.7763 21.897 26.9638 21.8658M26.5834 22.8147L26.9325 23.054M26.6304 23.6845L26.9324 23.8667M21.1611 11.8083C21.1611 11.8083 21.7978 12.1395 22.307 11.8083C22.8163 11.4775 25.2608 10.2297 25.8974 10.026C26.5339 9.82225 26.8905 8.651 27.0178 8.14184M26.5342 9.51667L30.0992 8.47275C30.0992 8.47275 30.6848 7.98892 30.7102 7.09776M30.455 8.06534C30.455 8.06534 34.0199 7.70884 34.0199 6.38476M33.4603 7.30134C33.4603 7.30134 37.2034 6.28276 37.56 5.90084" stroke="black" stroke-width="0.939"/>
<path d="M23.0193 12.6233C23.0193 12.6233 25.2855 11.4519 25.642 11.3247C25.9985 11.1973 26.8133 10.1788 25.5912 10.1788" fill="black"/>
<path d="M23.0193 12.6233C23.0193 12.6233 25.2855 11.4519 25.642 11.3247C25.9985 11.1973 26.8133 10.1788 25.5912 10.1788" stroke="black" stroke-width="0.939"/>
<path d="M24.1145 13.0817C24.14 13.0817 25.9733 11.8847 26.5845 11.732C26.9155 11.2737 26.7373 10.7899 26.177 10.8917" fill="black"/>
<path d="M24.1145 13.0817C24.14 13.0817 25.9733 11.8847 26.5845 11.732C26.9155 11.2737 26.7373 10.7899 26.177 10.8917" stroke="black" stroke-width="0.939"/>
<path d="M26.7372 11.4265C26.7882 11.401 27.7304 11.3755 27.3993 12.114C26.9158 12.4705 24.8276 13.5145 24.8276 13.5145M26.2536 10.6371L30.2261 9.31292C30.2261 9.31292 30.5571 8.62542 30.0734 8.52358M33.384 7.32668C33.384 7.35227 33.8933 7.63235 33.5877 8.09068C33.0276 8.42175 30.3794 9.05833 30.3794 9.05833M36.3117 9.38933C36.2353 9.38933 34.1728 10.026 34.1728 10.026L36.3117 9.38933ZM35.5228 10.7389C35.472 10.7389 34.377 11.2227 34.377 11.2227L35.5228 10.7389ZM33.4345 12.4196C33.4345 12.4196 33.5618 12.4704 33.5363 12.6233L33.4345 12.4196ZM30.8624 13.82C30.8624 13.82 31.2953 13.9728 30.8879 14.3803C30.6842 14.6603 30.0986 14.584 29.7421 15.0933M33.6387 8.11627C33.6387 8.11627 34.1736 8.2436 33.7661 8.93108C32.6966 9.33858 30.5321 10.0005 30.5321 10.0005C30.5321 10.0005 30.4305 10.1788 30.1503 10.3316C29.8703 10.4842 26.7891 11.3499 26.7891 11.3499M33.8171 8.90558C33.8171 8.90558 34.4028 9.16025 33.8171 9.59308C33.1551 9.97508 30.838 10.6881 30.838 10.6881C30.838 10.6881 30.8124 10.8918 30.7106 10.9681C30.6087 11.0445 27.5531 12.0631 27.5531 12.0631" fill="black"/>
<path d="M26.7372 11.4265C26.7882 11.401 27.7304 11.3755 27.3993 12.114C26.9158 12.4705 24.8276 13.5145 24.8276 13.5145M26.2536 10.6371L30.2261 9.31292C30.2261 9.31292 30.5571 8.62542 30.0734 8.52358M33.384 7.32668C33.384 7.35227 33.8933 7.63235 33.5877 8.09068C33.0276 8.42175 30.3794 9.05833 30.3794 9.05833M37.407 6.91943L33.6638 7.96335M37.1264 7.75977L33.8672 8.75283M36.8471 8.57458L33.9696 9.44042M36.3117 9.38933C36.2353 9.38933 34.1728 10.026 34.1728 10.026M35.8539 10.026L34.5297 10.5607M35.5228 10.7389C35.472 10.7389 34.377 11.2227 34.377 11.2227M35.1917 11.3246L34.1734 11.8083M33.4345 12.4196C33.4345 12.4196 33.5618 12.4704 33.5363 12.6233M30.8624 13.82C30.8624 13.82 31.2953 13.9728 30.8879 14.3803C30.6842 14.6603 30.0986 14.584 29.7421 15.0933M33.6387 8.11627C33.6387 8.11627 34.1736 8.2436 33.7661 8.93108C32.6966 9.33858 30.5321 10.0005 30.5321 10.0005C30.5321 10.0005 30.4305 10.1788 30.1503 10.3316C29.8703 10.4842 26.7891 11.3499 26.7891 11.3499M33.8171 8.90558C33.8171 8.90558 34.4028 9.16025 33.8171 9.59308C33.1551 9.97508 30.838 10.6881 30.838 10.6881C30.838 10.6881 30.8124 10.8918 30.7106 10.9681C30.6087 11.0445 27.5531 12.0631 27.5531 12.0631" stroke="black" stroke-width="0.939"/>
<path d="M33.9698 9.593C33.9698 9.593 34.581 9.77134 34.0462 10.2805C33.4096 10.6625 31.3726 11.35 31.3726 11.35C31.3726 11.35 31.1688 11.6047 30.8377 11.7065C30.5067 11.8083 28.3933 12.674 28.3933 12.674M34.1225 10.2806C34.3008 10.357 34.7846 10.4334 34.1989 10.8918C33.5114 11.1973 31.8308 11.8594 31.8308 11.8594L31.678 12.1394L29.0044 13.2853M34.2751 10.9682C34.2751 10.9682 34.5296 11.2738 33.9695 11.6303C33.3583 11.9613 32.0343 12.4705 32.0343 12.4705M33.9698 11.6811C33.9698 11.6811 34.2498 11.8594 33.8936 12.114C33.4861 12.3177 31.8819 13.158 31.8819 13.158L30.8379 13.8455" fill="black"/>
<path d="M33.9698 9.593C33.9698 9.593 34.581 9.77134 34.0462 10.2805C33.4096 10.6625 31.3726 11.35 31.3726 11.35C31.3726 11.35 31.1688 11.6047 30.8377 11.7065C30.5067 11.8083 28.3933 12.674 28.3933 12.674M34.1225 10.2806C34.3008 10.357 34.7846 10.4334 34.1989 10.8918C33.5114 11.1973 31.8308 11.8594 31.8308 11.8594L31.678 12.1394L29.0044 13.2853M34.2751 10.9682C34.2751 10.9682 34.5296 11.2738 33.9695 11.6303C33.3583 11.9613 32.0343 12.4705 32.0343 12.4705M33.9698 11.6811C33.9698 11.6811 34.2498 11.8594 33.8936 12.114C33.4861 12.3177 31.8819 13.158 31.8819 13.158L30.8379 13.8455" stroke="black" stroke-width="0.939"/>
<path d="M30.3025 9.33833C30.3025 9.36392 30.7353 9.72033 30.5825 10.1277C30.9645 10.4079 30.8881 10.7134 30.8881 10.7134C30.8881 10.7134 31.4227 11.0191 31.3464 11.452C31.8812 11.5793 31.8556 11.8848 31.8556 11.8848L31.6774 12.1648C31.6774 12.1648 32.212 12.1395 31.7537 12.827C32.0337 12.9797 31.9066 13.158 31.9066 13.158M31.7533 12.8525C31.6769 12.8525 29.8946 13.5145 29.4362 13.9219L31.7533 12.8525Z" fill="black"/>
<path d="M30.3025 9.33833C30.3025 9.36392 30.7353 9.72033 30.5825 10.1277C30.9645 10.4079 30.8881 10.7134 30.8881 10.7134C30.8881 10.7134 31.4227 11.0191 31.3464 11.452C31.8812 11.5793 31.8556 11.8848 31.8556 11.8848L31.6774 12.1648C31.6774 12.1648 32.212 12.1395 31.7537 12.827C32.0337 12.9797 31.9066 13.158 31.9066 13.158M31.7533 12.8525C31.6769 12.8525 29.8946 13.5145 29.4362 13.9219" stroke="black" stroke-width="0.939"/>
<path d="M27.4508 12.0631C27.4508 12.0631 27.9857 12.0376 27.9093 12.6232C28.5205 12.4195 28.3931 13.0052 28.3931 13.0052C28.3931 13.0052 29.106 12.725 28.9788 13.6162C29.4371 13.5144 29.3607 13.9727 29.3607 13.9727C29.3607 13.9727 29.7682 13.9472 29.7682 14.1764C30.0482 13.9218 30.3538 14.0492 30.3538 14.0492C30.3538 14.0492 30.5575 13.7692 30.8376 13.8455M27.9346 12.5978C27.9346 12.6487 25.541 13.9728 25.541 13.9728L27.9346 12.5978ZM29.004 13.5908C29.004 13.6162 27.4253 14.533 27.4253 14.533L29.004 13.5908ZM29.3608 13.9473C29.3608 13.9473 28.2405 14.864 27.9858 14.8132L29.3608 13.9473ZM29.7425 14.2275C29.7425 14.2275 29.1058 14.7112 28.5711 14.9404L29.7425 14.2275ZM30.4045 14.0237C30.4045 14.0237 30.6082 14.2784 29.3351 14.9404L30.4045 14.0237Z" fill="black"/>
<path d="M27.4508 12.0631C27.4508 12.0631 27.9857 12.0376 27.9093 12.6232C28.5205 12.4195 28.3931 13.0052 28.3931 13.0052C28.3931 13.0052 29.106 12.725 28.9788 13.6162C29.4371 13.5144 29.3607 13.9727 29.3607 13.9727C29.3607 13.9727 29.7682 13.9472 29.7682 14.1764C30.0482 13.9218 30.3538 14.0492 30.3538 14.0492C30.3538 14.0492 30.5575 13.7692 30.8376 13.8455M27.9346 12.5978C27.9346 12.6487 25.541 13.9728 25.541 13.9728M28.3925 13.0306L26.5845 14.151M29.004 13.5908C29.004 13.6162 27.4253 14.533 27.4253 14.533M29.3608 13.9473C29.3608 13.9473 28.2405 14.864 27.9858 14.8132M29.7425 14.2275C29.7425 14.2275 29.1058 14.7112 28.5711 14.9404M30.4045 14.0237C30.4045 14.0237 30.6082 14.2784 29.3351 14.9404" stroke="black" stroke-width="0.939"/>
</g>
</g>
</g>
</g>
<defs>
<clipPath id="clip0_16699_262054">
<rect width="40" height="40" fill="white"/>
</clipPath>
</defs>
</svg>
