<svg width="40" height="40" viewBox="0 0 40 40" fill="none" xmlns="http://www.w3.org/2000/svg">
<g clip-path="url(#clip0_16699_262113)">
<mask id="mask0_16699_262113" style="mask-type:luminance" maskUnits="userSpaceOnUse" x="0" y="0" width="40" height="40">
<path d="M0 20C0 31.0457 8.95431 40 20 40C31.0457 40 40 31.0457 40 20C40 8.95431 31.0457 0 20 0C8.95431 0 0 8.95431 0 20Z" fill="white"/>
</mask>
<g mask="url(#mask0_16699_262113)">
<path d="M40 20C40 8.95433 31.0457 0 20 0C8.95433 0 0 8.95433 0 20C0 31.0457 8.95433 40 20 40C31.0457 40 40 31.0457 40 20Z" fill="#012169"/>
<path d="M40 20.3333C40 12.9695 34.0305 7 26.6667 7H13.3333C5.96954 7 0 12.9695 0 20.3333V20.3333C0 27.6971 5.96954 33.6667 13.3333 33.6667H26.6667C34.0305 33.6667 40 27.6971 40 20.3333V20.3333Z" fill="#012169"/>
<mask id="mask1_16699_262113" style="mask-type:luminance" maskUnits="userSpaceOnUse" x="0" y="7" width="20" height="14">
<path d="M0 13.6667C0 9.98477 2.98477 7 6.66667 7H13.3333C17.0152 7 20 9.98477 20 13.6667V13.6667C20 17.3486 17.0152 20.3333 13.3333 20.3333H6.66667C2.98477 20.3333 0 17.3486 0 13.6667V13.6667Z" fill="white"/>
</mask>
<g mask="url(#mask1_16699_262113)">
<path d="M0 7L20 20.3333M20 7L0 20.3333" stroke="white" stroke-width="1.1547"/>
</g>
<mask id="mask2_16699_262113" style="mask-type:luminance" maskUnits="userSpaceOnUse" x="0" y="7" width="20" height="14">
<path d="M3.61325 9.40884C2.06877 8.37918 0 9.48635 0 11.3426V11.3426C0 12.6261 1.04053 13.6667 2.32408 13.6667H17.6759C18.9595 13.6667 20 14.7072 20 15.9907V15.9907C20 17.847 17.9312 18.9542 16.3868 17.9245L3.61325 9.40884ZM13.6132 11.2578C15.5265 9.98232 14.6235 7 12.3241 7V7C11.0405 7 10 8.04053 10 9.32408V18.0093C10 19.2928 8.95947 20.3333 7.67592 20.3333V20.3333C5.37646 20.3333 4.47348 17.351 6.38675 16.0755L13.6132 11.2578Z" fill="white"/>
</mask>
<g mask="url(#mask2_16699_262113)">
<path d="M0 7L20 20.3333M20 7L0 20.3333" stroke="#E4002B" stroke-width="0.7698"/>
</g>
<path d="M10 7V20.3333M0 13.6667H20" stroke="white" stroke-width="1.9245"/>
<path d="M10 7V20.3333M0 13.6667H20" stroke="#E4002B" stroke-width="1.1547"/>
<path d="M9.4621 24.8922C9.64221 24.3322 10.4346 24.3322 10.6147 24.8922V24.8922C10.7207 25.222 11.0814 25.3957 11.4054 25.273V25.273C11.9555 25.0646 12.4496 25.6841 12.1241 26.1741V26.1741C11.9324 26.4627 12.0214 26.8529 12.3194 27.0297V27.0297C12.8253 27.33 12.649 28.1025 12.0629 28.1535V28.1535C11.7178 28.1835 11.4682 28.4965 11.5157 28.8396V28.8396C11.5964 29.4224 10.8825 29.7662 10.4772 29.3398V29.3398C10.2386 29.0887 9.83825 29.0887 9.59959 29.3398V29.3398C9.1943 29.7662 8.48039 29.4224 8.5611 28.8396V28.8396C8.60863 28.4965 8.35903 28.1835 8.0139 28.1535V28.1535C7.42781 28.1025 7.25148 27.33 7.7574 27.0297V27.0297C8.05532 26.8529 8.1444 26.4627 7.9527 26.1741V26.1741C7.62714 25.6841 8.12123 25.0646 8.67139 25.273V25.273C8.99536 25.3957 9.35604 25.222 9.4621 24.8922V24.8922Z" fill="white"/>
<path d="M30.1998 28.2706C30.2856 28.0039 30.6629 28.0039 30.7486 28.2706V28.2706C30.7992 28.4276 30.9709 28.5103 31.1252 28.4519V28.4519C31.3872 28.3527 31.6224 28.6478 31.4674 28.8811V28.8811C31.3761 29.0185 31.4185 29.2044 31.5604 29.2885V29.2885C31.8013 29.4315 31.7173 29.7993 31.4383 29.8236V29.8236C31.2739 29.8379 31.1551 29.987 31.1777 30.1503V30.1503C31.2161 30.4278 30.8761 30.5916 30.6832 30.3885V30.3885C30.5695 30.2689 30.3789 30.2689 30.2652 30.3885V30.3885C30.0722 30.5916 29.7322 30.4278 29.7707 30.1503V30.1503C29.7933 29.987 29.6745 29.8379 29.5101 29.8236V29.8236C29.2311 29.7993 29.1471 29.4315 29.3881 29.2885V29.2885C29.5299 29.2044 29.5724 29.0185 29.4811 28.8811V28.8811C29.326 28.6477 29.5613 28.3527 29.8233 28.4519V28.4519C29.9775 28.5103 30.1493 28.4276 30.1998 28.2706V28.2706Z" fill="white"/>
<path d="M23.5337 17.7153C23.6195 17.4486 23.9969 17.4486 24.0826 17.7153V17.7153C24.1331 17.8724 24.3049 17.9551 24.4592 17.8966V17.8966C24.7211 17.7974 24.9564 18.0924 24.8013 18.3258V18.3258C24.7101 18.4632 24.7525 18.649 24.8943 18.7332V18.7332C25.1353 18.8761 25.0513 19.244 24.7722 19.2683V19.2683C24.6078 19.2826 24.489 19.4316 24.5116 19.595V19.595C24.55 19.8725 24.2101 20.0362 24.0171 19.8331V19.8331C23.9035 19.7136 23.7128 19.7136 23.5992 19.8331V19.8331C23.4062 20.0362 23.0662 19.8725 23.1046 19.595V19.595C23.1273 19.4316 23.0084 19.2826 22.8441 19.2683V19.2683C22.565 19.244 22.481 18.8762 22.7219 18.7332V18.7332C22.8638 18.649 22.9062 18.4632 22.8149 18.3258V18.3258C22.6599 18.0924 22.8952 17.7974 23.1572 17.8966V17.8966C23.3114 17.9551 23.4832 17.8724 23.5337 17.7153V17.7153Z" fill="white"/>
<path d="M30.1998 10.4926C30.2856 10.2259 30.6629 10.2259 30.7486 10.4926V10.4926C30.7992 10.6496 30.9709 10.7323 31.1252 10.6739V10.6739C31.3872 10.5747 31.6224 10.8697 31.4674 11.103V11.103C31.3761 11.2404 31.4185 11.4263 31.5604 11.5105V11.5105C31.8013 11.6535 31.7173 12.0213 31.4383 12.0456V12.0456C31.2739 12.0599 31.1551 12.2089 31.1777 12.3723V12.3723C31.2161 12.6498 30.8761 12.8136 30.6832 12.6105V12.6105C30.5695 12.491 30.3789 12.491 30.2652 12.6105V12.6105C30.0722 12.8136 29.7322 12.6498 29.7707 12.3723V12.3723C29.7933 12.2089 29.6744 12.0599 29.5101 12.0456V12.0456C29.2311 12.0213 29.1472 11.6535 29.3881 11.5105V11.5105C29.5299 11.4263 29.5724 11.2404 29.4811 11.103V11.103C29.326 10.8697 29.5613 10.5747 29.8233 10.6739V10.6739C29.9775 10.7323 30.1493 10.6496 30.1998 10.4926V10.4926Z" fill="white"/>
<path d="M36.1254 15.9372C36.2112 15.6706 36.5885 15.6706 36.6742 15.9372V15.9372C36.7247 16.0943 36.8965 16.177 37.0508 16.1186V16.1186C37.3128 16.0193 37.548 16.3144 37.393 16.5478V16.5478C37.3017 16.6852 37.3442 16.871 37.486 16.9552V16.9552C37.7269 17.0981 37.6429 17.466 37.3639 17.4903V17.4903C37.1995 17.5046 37.0807 17.6536 37.1033 17.817V17.817C37.1418 18.0945 36.8018 18.2582 36.6088 18.0551V18.0551C36.4952 17.9356 36.3045 17.9356 36.1909 18.0551V18.0551C35.9979 18.2582 35.658 18.0945 35.6964 17.817V17.817C35.719 17.6536 35.6002 17.5046 35.4358 17.4903V17.4903C35.1568 17.466 35.0728 17.0981 35.3137 16.9552V16.9552C35.4555 16.871 35.4979 16.6852 35.4067 16.5478V16.5478C35.2516 16.3144 35.4869 16.0193 35.7489 16.1186V16.1186C35.9031 16.177 36.0749 16.0943 36.1254 15.9372V15.9372Z" fill="white"/>
<path d="M32.9111 21.0009C32.9957 20.7933 33.2897 20.7933 33.3743 21.0009V21.0009C33.4102 21.0889 33.4929 21.149 33.5877 21.1559V21.1559C33.8113 21.1723 33.9022 21.4519 33.7309 21.5965V21.5965C33.6583 21.6579 33.6267 21.755 33.6494 21.8473V21.8473C33.7029 22.065 33.4651 22.2378 33.2746 22.1196V22.1196C33.1939 22.0695 33.0917 22.0695 33.0109 22.1196V22.1196C32.8204 22.2378 32.5825 22.0651 32.636 21.8473V21.8473C32.6587 21.755 32.6271 21.6579 32.5545 21.5965V21.5965C32.3832 21.4519 32.4741 21.1723 32.6977 21.1559V21.1559C32.7925 21.149 32.8752 21.0889 32.9111 21.0009V21.0009Z" fill="white"/>
</g>
</g>
<defs>
<clipPath id="clip0_16699_262113">
<rect width="40" height="40" fill="white"/>
</clipPath>
</defs>
</svg>
