<svg width="40" height="40" viewBox="0 0 40 40" fill="none" xmlns="http://www.w3.org/2000/svg">
<g clip-path="url(#clip0_16699_262138)">
<mask id="mask0_16699_262138" style="mask-type:luminance" maskUnits="userSpaceOnUse" x="0" y="0" width="40" height="40">
<path d="M40 20C40 8.95431 31.0457 0 20 0C8.95431 0 0 8.95431 0 20C0 31.0457 8.95431 40 20 40C31.0457 40 40 31.0457 40 20Z" fill="white"/>
</mask>
<g mask="url(#mask0_16699_262138)">
<mask id="mask1_16699_262138" style="mask-type:luminance" maskUnits="userSpaceOnUse" x="0" y="0" width="54" height="40">
<path d="M0 0H53.4447V40H0V0Z" fill="white"/>
</mask>
<g mask="url(#mask1_16699_262138)">
<mask id="mask2_16699_262138" style="mask-type:luminance" maskUnits="userSpaceOnUse" x="0" y="0" width="54" height="40">
<path d="M0 0H53.4442V39.9996H0V0Z" fill="white"/>
</mask>
<g mask="url(#mask2_16699_262138)">
<path d="M0 0V39.9996H60.1247V0H0Z" fill="#3399CC"/>
<path d="M0 26.6664V28.8886H60.1247V26.6664H0ZM0 31.1108V33.333H60.1247V31.1108H0Z" fill="#FFFF00"/>
</g>
<path d="M11.912 2.33891L12.1586 2.58491L11.9119 2.33883L11.912 2.33891Z" fill="#99CCCC"/>
<path d="M11.912 3.56894L12.1586 3.81494L11.9119 3.56885L11.912 3.56894Z" fill="#CC6666"/>
<path d="M12.4049 3.56894L12.6515 3.81494L12.405 3.56885L12.4049 3.56894ZM11.1724 4.30702L11.419 4.55302L11.1724 4.30702H11.1724Z" fill="#66CCCC"/>
<path d="M11.8714 2.83878L10.1433 9.37625L3.57294 11.1568L10.1244 12.8632L11.8714 19.4007L13.6183 12.8632L20.1696 11.1197L13.6183 9.37617L11.8714 2.83878Z" fill="#CC0000" stroke="white" stroke-width="1.845"/>
<path d="M11.1724 4.55297L11.419 4.79897L11.1724 4.55297" fill="#99CCFF"/>
<path d="M12.4051 4.79899L12.6517 5.04499L12.4052 4.79899H12.4051Z" fill="#FFCCCC"/>
<path d="M10.9259 5.045L11.1725 5.291L10.926 5.045H10.9259Z" fill="#6699CC"/>
<path d="M10.9259 5.29102L11.1725 5.53702L10.926 5.29102" fill="#99CCFF"/>
<path d="M11.1724 5.53703L11.4191 5.78303L11.1725 5.53703M10.9259 6.52103L11.1725 6.76703L10.926 6.52103" fill="#FFCCCC"/>
<path d="M11.008 6.93115L11.0903 7.09507L11.0081 6.93123" fill="#CC3333"/>
<path d="M13.6375 7.50504L13.8843 7.75113L13.6376 7.50513L13.6375 7.50504Z" fill="#99CCCC"/>
<path d="M13.6378 8.73508L13.8844 8.98117L13.6377 8.73517L13.6378 8.73508Z" fill="#FFCCCC"/>
<path d="M16.5959 9.71917L16.8425 9.96517L16.5958 9.71917" fill="#6699CC"/>
<path d="M17.0888 9.96517L17.3355 10.2112L17.0889 9.96517H17.0888Z" fill="#99CCCC"/>
<path d="M16.2674 10.2932L16.4316 10.3752L16.2673 10.2933L16.2674 10.2932Z" fill="#CC3333"/>
<path d="M16.5959 10.2112L16.8425 10.4572L16.5958 10.2112H16.5959Z" fill="#FFCCCC"/>
<path d="M5.91339 10.785L6.07773 10.8671L5.91347 10.7851" fill="#CC3333"/>
<path d="M18.3216 10.7032L18.5683 10.9491L18.3217 10.7032H18.3216ZM18.3216 11.6872L18.5683 11.9333L18.3217 11.6871L18.3216 11.6872Z" fill="#FFCCCC"/>
<path d="M5.74902 12.1792L5.99553 12.4252L5.74902 12.1792V12.1792Z" fill="#6699CC"/>
<path d="M5.99542 12.1792L6.24194 12.4252L5.99542 12.1792V12.1792Z" fill="#99CCFF"/>
<path d="M7.22811 12.1792L7.47463 12.4252L7.22803 12.1792L7.22811 12.1792Z" fill="#FFCCCC"/>
<path d="M16.5959 12.1792L16.8425 12.4252L16.5958 12.1792L16.5959 12.1792Z" fill="#FFCCCC"/>
<path d="M17.8285 12.1792L18.0751 12.4252L17.8284 12.1792L17.8285 12.1792Z" fill="#99CCFF"/>
<path d="M18.0752 12.1792L18.3215 12.4252L18.0752 12.1792" fill="#6699CC"/>
<path d="M17.0888 12.4253L17.3355 12.6713L17.0889 12.4253H17.0888Z" fill="#99CCCC"/>
<path d="M16.5959 12.6712L16.8425 12.9173L16.5958 12.6712H16.5959Z" fill="#6699CC"/>
<path d="M8.21417 12.9173L8.46065 13.1633L8.21417 12.9172V12.9173Z" fill="#99CCCC"/>
<path d="M8.46075 12.9173L8.70734 13.1633L8.46075 12.9172V12.9173Z" fill="#CCCCFF"/>
<path d="M9.44678 12.9173L9.69328 13.1633L9.44678 12.9172V12.9173Z" fill="#FFCCCC"/>
<path d="M9.69336 12.9173L9.93986 13.1633L9.69336 12.9172" fill="#CC3333"/>
<path d="M14.3773 12.9173L14.6238 13.1633L14.3773 12.9172V12.9173Z" fill="#FFCCCC"/>
<path d="M15.3632 12.9173L15.6098 13.1633L15.3632 12.9172V12.9173Z" fill="#CCCCFF"/>
<path d="M15.6099 12.9173L15.8564 13.1633L15.6099 12.9172" fill="#99CCCC"/>
<path d="M13.6378 13.4092L13.8844 13.6553L13.6377 13.4093L13.6378 13.4092Z" fill="#CC3333"/>
<path d="M13.6375 14.6393L13.8843 14.8853L13.6376 14.6393H13.6375Z" fill="#CCCCFF"/>
<path d="M10.9259 15.8693L11.1725 16.1153L10.926 15.8693" fill="#FFCCCC"/>
<path d="M13.1445 16.3613L13.3911 16.6073L13.1445 16.3612V16.3613Z" fill="#99CCCC"/>
<path d="M11.1724 16.8533L11.419 17.0994L11.1724 16.8534M12.6516 16.8534L12.8982 17.0995L12.6516 16.8535V16.8534Z" fill="#FFCCCC"/>
<path d="M10.9259 17.0994L11.1725 17.3454L10.926 17.0994H10.9259Z" fill="#99CCFF"/>
<path d="M10.9259 17.3454L11.1725 17.5914L10.926 17.3454" fill="#6699CC"/>
<path d="M11.4191 17.5914L11.6656 17.8374L11.4191 17.5913M12.4052 17.5913L12.6517 17.8373L12.4052 17.5912L12.4052 17.5913Z" fill="#FFCCCC"/>
<path d="M11.1724 17.8375L11.419 18.0833L11.1724 17.8375H11.1724Z" fill="#99CCFF"/>
<path d="M12.6515 18.0833L12.8981 18.3294L12.6515 18.0834V18.0833Z" fill="#66CCCC"/>
<path d="M12.4051 18.5754L12.6517 18.8214L12.4052 18.5754H12.4051Z" fill="#CCCCFF"/>
<path d="M11.912 18.8214L12.1586 19.0675L11.9119 18.8214H11.912Z" fill="#CC6666"/>
</g>
</g>
</g>
<defs>
<clipPath id="clip0_16699_262138">
<rect width="40" height="40" fill="white"/>
</clipPath>
</defs>
</svg>
