<svg width="40" height="40" viewBox="0 0 40 40" fill="none" xmlns="http://www.w3.org/2000/svg">
<g clip-path="url(#clip0_16699_262217)">
<mask id="mask0_16699_262217" style="mask-type:luminance" maskUnits="userSpaceOnUse" x="0" y="0" width="40" height="40">
<path d="M40 0H0V40H40V0Z" fill="white"/>
</mask>
<g mask="url(#mask0_16699_262217)">
<mask id="mask1_16699_262217" style="mask-type:luminance" maskUnits="userSpaceOnUse" x="0" y="0" width="40" height="40">
<path d="M40 20C40 8.95433 31.0457 0 20 0C8.95433 0 0 8.95433 0 20C0 31.0457 8.95433 40 20 40C31.0457 40 40 31.0457 40 20Z" fill="white"/>
</mask>
<g mask="url(#mask1_16699_262217)">
<path d="M50.2104 0H-10V40H50.2104V0Z" fill="#509E2F"/>
<path d="M50.2104 0H-10V26.6667H50.2104V0Z" fill="#EF3340"/>
<path d="M50.2104 0H-10V13.3333H50.2104V0Z" fill="#00B5E2"/>
<path d="M18.6133 26.0534C21.927 26.0534 24.6133 23.3671 24.6133 20.0534C24.6133 16.7397 21.927 14.0534 18.6133 14.0534C15.2996 14.0534 12.6133 16.7397 12.6133 20.0534C12.6133 23.3671 15.2996 26.0534 18.6133 26.0534Z" fill="white"/>
<path d="M19.9473 25.0534C22.7087 25.0534 24.9473 22.8148 24.9473 20.0534C24.9473 17.292 22.7087 15.0534 19.9473 15.0534C17.1858 15.0534 14.9473 17.292 14.9473 20.0534C14.9473 22.8148 17.1858 25.0534 19.9473 25.0534Z" fill="#EF3340"/>
<path d="M25.2804 16.7201L25.9182 18.5136L27.6374 17.6963L26.8202 19.4156L28.6138 20.0533L26.8202 20.6912L27.6374 22.4103L25.9182 21.5932L25.2804 23.3867L24.6426 21.5932L22.9234 22.4103L23.7406 20.6912L21.9471 20.0533L23.7406 19.4156L22.9234 17.6963L24.6426 18.5136L25.2804 16.7201Z" fill="white"/>
</g>
</g>
</g>
<defs>
<clipPath id="clip0_16699_262217">
<rect width="40" height="40" fill="white"/>
</clipPath>
</defs>
</svg>
