<svg width="40" height="40" viewBox="0 0 40 40" fill="none" xmlns="http://www.w3.org/2000/svg">
<g clip-path="url(#clip0_16699_262232)">
<mask id="mask0_16699_262232" style="mask-type:luminance" maskUnits="userSpaceOnUse" x="0" y="0" width="40" height="40">
<path d="M40 0H0V40H40V0Z" fill="white"/>
</mask>
<g mask="url(#mask0_16699_262232)">
<mask id="mask1_16699_262232" style="mask-type:luminance" maskUnits="userSpaceOnUse" x="0" y="0" width="40" height="40">
<path d="M40 20C40 8.95433 31.0457 0 20 0C8.95433 0 0 8.95433 0 20C0 31.0457 8.95433 40 20 40C31.0457 40 40 31.0457 40 20Z" fill="white"/>
</mask>
<g mask="url(#mask1_16699_262232)">
<path d="M45.3627 0.666668H-8L-7 47.0002L45.3627 36.0002V0.666668Z" fill="#002395"/>
<path d="M2.12891 0.666504L49.5 -10L37.4624 36L2.12891 0.666504Z" fill="#FECB00"/>
<path d="M-1.7886 7.40172L0.184402 1.32943L2.15741 7.40172L-3.008 3.64883H3.3768L-1.7886 7.40172Z" fill="white"/>
<path d="M2.62936 11.8191L4.60237 5.74674L6.57538 11.8191L1.40997 8.06616H7.79477L2.62936 11.8191Z" fill="white"/>
<path d="M7.04538 16.2351L9.0184 10.1628L10.9914 16.2351L5.82599 12.4822H12.2108L7.04538 16.2351Z" fill="white"/>
<path d="M11.4614 20.6517L13.4344 14.5794L15.4074 20.6517L10.242 16.8988H16.6268L11.4614 20.6517Z" fill="white"/>
<path d="M15.8794 25.0691L17.8526 18.9967L19.8256 25.0691L14.6602 21.3162H21.0449L15.8794 25.0691Z" fill="white"/>
<path d="M20.2936 29.4851L22.2666 23.4128L24.2397 29.4851L19.0742 25.7322H25.459L20.2936 29.4851Z" fill="white"/>
<path d="M24.7095 33.9018L26.6827 27.8294L28.6557 33.9018L23.4902 30.1488H29.875L24.7095 33.9018Z" fill="white"/>
<path d="M29.1276 38.3191L31.1006 32.2467L33.0736 38.3191L27.9081 34.5663H34.293L29.1276 38.3191Z" fill="white"/>
</g>
</g>
</g>
<defs>
<clipPath id="clip0_16699_262232">
<rect width="40" height="40" fill="white"/>
</clipPath>
</defs>
</svg>
