<svg width="40" height="40" viewBox="0 0 40 40" fill="none" xmlns="http://www.w3.org/2000/svg">
<g clip-path="url(#clip0_16699_262251)">
<mask id="mask0_16699_262251" style="mask-type:luminance" maskUnits="userSpaceOnUse" x="0" y="0" width="40" height="40">
<path d="M40 0H0V40H40V0Z" fill="white"/>
</mask>
<g mask="url(#mask0_16699_262251)">
<mask id="mask1_16699_262251" style="mask-type:luminance" maskUnits="userSpaceOnUse" x="0" y="0" width="40" height="40">
<path d="M40 20C40 8.95433 31.0457 0 20 0C8.95433 0 0 8.95433 0 20C0 31.0457 8.95433 40 20 40C31.0457 40 40 31.0457 40 20Z" fill="white"/>
</mask>
<g mask="url(#mask1_16699_262251)">
<path d="M40 -4H0V48H40V-4Z" fill="#00267F"/>
<path d="M27 -7H13V50H27V-7Z" fill="#FFC726"/>
<path d="M20.0002 13.8737C19.5667 15.0553 19.1252 16.2853 18.1802 17.227C18.4735 17.1303 18.9867 17.0437 19.3167 17.052V22.022L17.9135 22.2303C17.8635 22.2253 17.8467 22.147 17.8467 22.0403C17.7117 20.497 17.3467 19.2003 16.9267 17.8587C16.8967 17.6753 16.3652 16.9753 16.7752 17.0987C16.8252 17.1053 17.3735 17.3287 17.2867 17.222C16.5402 16.4487 15.4485 15.892 14.3885 15.727C14.2952 15.7037 14.2402 15.7503 14.3235 15.8587C15.7302 18.0237 16.9067 20.5787 16.8967 23.6103C17.4435 23.6103 18.7685 23.287 19.3167 23.287V26.7937H20.0085L20.1667 17.0003L20.0002 13.8737Z" fill="black"/>
<path d="M19.9998 13.8737C20.4331 15.0553 20.8748 16.2853 21.8198 17.227C21.5265 17.1303 21.0131 17.0437 20.6831 17.052V22.022L22.0865 22.2303C22.1365 22.2253 22.1531 22.147 22.1531 22.0403C22.2881 20.497 22.6531 19.2003 23.0731 17.8587C23.1031 17.6753 23.6348 16.9753 23.2248 17.0987C23.1748 17.1053 22.6265 17.3287 22.7131 17.222C23.4598 16.4487 24.5515 15.892 25.6115 15.727C25.7048 15.7037 25.7598 15.7503 25.6765 15.8587C24.2698 18.0237 23.0931 20.5787 23.1031 23.6103C22.5565 23.6103 21.2315 23.287 20.6831 23.287V26.7937H19.9915L19.8331 17.0003L19.9998 13.8737Z" fill="black"/>
</g>
</g>
</g>
<defs>
<clipPath id="clip0_16699_262251">
<rect width="40" height="40" fill="white"/>
</clipPath>
</defs>
</svg>
