<svg width="40" height="40" viewBox="0 0 40 40" fill="none" xmlns="http://www.w3.org/2000/svg">
<g clip-path="url(#clip0_16699_262264)">
<mask id="mask0_16699_262264" style="mask-type:luminance" maskUnits="userSpaceOnUse" x="0" y="0" width="40" height="40">
<path d="M40 0H0V40H40V0Z" fill="white"/>
</mask>
<g mask="url(#mask0_16699_262264)">
<mask id="mask1_16699_262264" style="mask-type:luminance" maskUnits="userSpaceOnUse" x="0" y="0" width="40" height="40">
<path d="M40 20C40 8.95433 31.0457 0 20 0C8.95433 0 0 8.95433 0 20C0 31.0457 8.95433 40 20 40C31.0457 40 40 31.0457 40 20Z" fill="white"/>
</mask>
<g mask="url(#mask1_16699_262264)">
<path d="M-10 0H50V40H-10V0Z" fill="#006A4E"/>
<path d="M16.5 30C21.7467 30 26 25.7467 26 20.5C26 15.2533 21.7467 11 16.5 11C11.2533 11 7 15.2533 7 20.5C7 25.7467 11.2533 30 16.5 30Z" fill="#F42A41"/>
</g>
</g>
</g>
<defs>
<clipPath id="clip0_16699_262264">
<rect width="40" height="40" fill="white"/>
</clipPath>
</defs>
</svg>
