<svg width="40" height="40" viewBox="0 0 40 40" fill="none" xmlns="http://www.w3.org/2000/svg">
<g clip-path="url(#clip0_16699_262287)">
<mask id="mask0_16699_262287" style="mask-type:luminance" maskUnits="userSpaceOnUse" x="0" y="0" width="40" height="40">
<path d="M40 0H0V40H40V0Z" fill="white"/>
</mask>
<g mask="url(#mask0_16699_262287)">
<mask id="mask1_16699_262287" style="mask-type:luminance" maskUnits="userSpaceOnUse" x="0" y="0" width="40" height="40">
<path d="M40 20C40 8.95433 31.0457 0 20 0C8.95433 0 0 8.95433 0 20C0 31.0457 8.95433 40 20 40C31.0457 40 40 31.0457 40 20Z" fill="white"/>
</mask>
<g mask="url(#mask1_16699_262287)">
<path d="M50 0H-10V40H50V0Z" fill="#009E49"/>
<path d="M50 0H-10V20H50V0Z" fill="#EF2B2D"/>
<path d="M19.9825 13.333L17.9224 19.6734L21.0926 20.7034" fill="#FCD116"/>
<path d="M19.9823 13.333L22.0424 19.6734L18.8723 20.7034" fill="#FCD116"/>
<path d="M26.3418 17.9404H19.6752V21.2738" fill="#FCD116"/>
<path d="M26.3418 17.9404L20.9483 21.859L18.9891 19.1623" fill="#FCD116"/>
<path d="M23.918 25.3936L21.8579 19.0533L18.6877 20.0833" fill="#FCD116"/>
<path d="M23.9181 25.3936L18.5246 21.475L20.4839 18.7783" fill="#FCD116"/>
<path d="M16.0818 25.3934L21.4753 21.4749L19.5161 18.7781" fill="#FCD116"/>
<path d="M16.0818 25.3933L18.1421 19.0531L21.3122 20.0831" fill="#FCD116"/>
<path d="M13.6621 17.9385L19.0556 21.857L21.0149 19.1603" fill="#FCD116"/>
<path d="M13.6621 17.9385H20.3289V21.2718" fill="#FCD116"/>
</g>
</g>
</g>
<defs>
<clipPath id="clip0_16699_262287">
<rect width="40" height="40" fill="white"/>
</clipPath>
</defs>
</svg>
