<svg width="40" height="40" viewBox="0 0 40 40" fill="none" xmlns="http://www.w3.org/2000/svg">
<g clip-path="url(#clip0_16699_262308)">
<mask id="mask0_16699_262308" style="mask-type:luminance" maskUnits="userSpaceOnUse" x="0" y="0" width="40" height="40">
<path d="M40 0H0V40H40V0Z" fill="white"/>
</mask>
<g mask="url(#mask0_16699_262308)">
<mask id="mask1_16699_262308" style="mask-type:luminance" maskUnits="userSpaceOnUse" x="0" y="0" width="40" height="40">
<path d="M40 20C40 8.95433 31.0457 0 20 0C8.95433 0 0 8.95433 0 20C0 31.0457 8.95433 40 20 40C31.0457 40 40 31.0457 40 20Z" fill="white"/>
</mask>
<g mask="url(#mask1_16699_262308)">
<path d="M49.9875 0H-10V40H49.9875V0Z" fill="white"/>
<path d="M50.0598 13.3332H-10V39.9998H50.0598V13.3332Z" fill="#00966E"/>
<path d="M50.0839 26.6668H-10V40.0002H50.0839V26.6668Z" fill="#D62612"/>
</g>
</g>
</g>
<defs>
<clipPath id="clip0_16699_262308">
<rect width="40" height="40" fill="white"/>
</clipPath>
</defs>
</svg>
