<svg width="40" height="40" viewBox="0 0 40 40" fill="none" xmlns="http://www.w3.org/2000/svg">
<g clip-path="url(#clip0_16699_262331)">
<mask id="mask0_16699_262331" style="mask-type:luminance" maskUnits="userSpaceOnUse" x="0" y="0" width="40" height="40">
<path d="M40 0H0V40H40V0Z" fill="white"/>
</mask>
<g mask="url(#mask0_16699_262331)">
<mask id="mask1_16699_262331" style="mask-type:luminance" maskUnits="userSpaceOnUse" x="0" y="0" width="40" height="40">
<path d="M40 20C40 8.95433 31.0457 0 20 0C8.95433 0 0 8.95433 0 20C0 31.0457 8.95433 40 20 40C31.0457 40 40 31.0457 40 20Z" fill="white"/>
</mask>
<g mask="url(#mask1_16699_262331)">
<path d="M-10 0H50.0161V40H-10V0Z" fill="#C8102E"/>
<mask id="mask2_16699_262331" style="mask-type:luminance" maskUnits="userSpaceOnUse" x="-10" y="0" width="61" height="40">
<path d="M-10 0H50.0161V40H-10V0Z" fill="white"/>
</mask>
<g mask="url(#mask2_16699_262331)">
<path d="M-13 -2V42L53.0177 -2V42L-13 -2Z" fill="#43B02A" stroke="white" stroke-width="2.53016"/>
</g>
<path d="M19.929 31.3761C26.1884 31.3761 31.2625 26.302 31.2625 20.0428C31.2625 13.7836 26.1884 8.7095 19.929 8.7095C13.6699 8.7095 8.5957 13.7836 8.5957 20.0428C8.5957 26.302 13.6699 31.3761 19.929 31.3761Z" fill="white"/>
<path d="M19.9901 12.0719L20.6907 13.2853H22.0913L21.3913 14.4985L22.0913 15.7119H20.6907L19.9901 16.9253L19.2893 15.7119H17.8887L18.5887 14.4985L17.8887 13.2853H19.2893L19.9901 12.0719Z" fill="#C8102E" stroke="#43B02A" stroke-width="0.12"/>
<path d="M27.1722 24.5118L25.7711 24.5121L25.0708 25.7251L24.37 24.5122L22.9692 24.5117L23.6696 23.2987L22.9691 22.0853L24.3702 22.0851L25.0706 20.8721L25.7713 22.085L27.1721 22.0855L26.4718 23.2985L27.1722 24.5118Z" fill="#C8102E" stroke="#43B02A" stroke-width="0.12"/>
<path d="M12.8069 24.5117L13.5072 23.2983L12.807 22.0853L14.2076 22.0848L14.9085 20.8719L15.6089 22.0849L17.01 22.0851L16.3095 23.2985L17.0099 24.5115L15.6091 24.512L14.9082 25.7249L14.208 24.5119L12.8069 24.5117Z" fill="#C8102E" stroke="#43B02A" stroke-width="0.12"/>
</g>
</g>
</g>
<defs>
<clipPath id="clip0_16699_262331">
<rect width="40" height="40" fill="white"/>
</clipPath>
</defs>
</svg>
