<svg width="40" height="40" viewBox="0 0 40 40" fill="none" xmlns="http://www.w3.org/2000/svg">
<g clip-path="url(#clip0_16699_262362)">
<mask id="mask0_16699_262362" style="mask-type:luminance" maskUnits="userSpaceOnUse" x="0" y="0" width="40" height="40">
<path d="M40 20C40 8.95431 31.0457 0 20 0C8.95431 0 0 8.95431 0 20C0 31.0457 8.95431 40 20 40C31.0457 40 40 31.0457 40 20Z" fill="white"/>
</mask>
<g mask="url(#mask0_16699_262362)">
<mask id="mask1_16699_262362" style="mask-type:luminance" maskUnits="userSpaceOnUse" x="-14" y="0" width="54" height="40">
<path d="M-13.3334 0H40V40H-13.3334V0Z" fill="white"/>
</mask>
<g mask="url(#mask1_16699_262362)">
<path d="M-13.3334 0H40V40H-13.3334V0Z" fill="#000066"/>
<path fill-rule="evenodd" clip-rule="evenodd" d="M20.692 16.0208H38.5498L38.5285 28.8076C38.677 33.9478 35.4933 37.1373 29.6352 38.5754C25.4747 37.5358 20.6778 35.3854 20.6708 28.9534L20.692 16.0207V16.0208Z" fill="white"/>
<path fill-rule="evenodd" clip-rule="evenodd" d="M21.0873 16.4063H38.1527L38.1325 28.6585C38.2744 33.5839 35.2317 36.6402 29.6333 38.0183C25.6581 37.0222 21.0738 34.9622 21.0671 28.7981L21.0874 16.4059L21.0873 16.4063Z" fill="#00A2BD" stroke="black" stroke-width="0.809"/>
<path fill-rule="evenodd" clip-rule="evenodd" d="M38.0207 30.1108C37.3998 34.8123 33.8015 36.8665 29.6332 37.9567C25.9435 36.9608 21.974 35.3707 21.2046 30.1343L38.0211 30.1108H38.0207Z" fill="#A53D08"/>
<path fill-rule="evenodd" clip-rule="evenodd" d="M32.3467 34.1021C32.3562 34.1117 32.413 35.0449 31.9114 35.6164C32.3562 35.7593 32.6591 35.5878 32.801 35.4068C32.943 35.2259 32.9905 34.9973 32.9905 34.9973C32.9905 34.9973 33.1135 34.9212 33.1324 34.7498C33.1419 34.5116 33.0377 34.5116 32.9525 34.464L32.9714 33.9307C32.9714 33.9307 32.4604 33.6163 32.3467 34.1021Z" fill="#FFC6B5" stroke="black" stroke-width="0.7585" stroke-linejoin="round"/>
<path d="M32.3182 35.436L32.1667 35.3121" stroke="black" stroke-width="0.809" stroke-linecap="round"/>
<path fill-rule="evenodd" clip-rule="evenodd" d="M30.9223 21.1412C30.9223 21.1412 30.934 21.7118 30.8985 21.7712C30.8632 21.8307 30.5403 21.9812 30.5403 21.9812L30.8159 22.5716C30.8159 22.5716 31.5915 22.4607 31.5954 22.4607C31.5994 22.4607 31.9303 21.5771 31.9303 21.5771C31.9303 21.5771 31.7569 21.284 31.8003 20.9788C31.5404 20.1507 30.934 21.1452 30.9223 21.1412Z" fill="#FFC6B5" stroke="black" stroke-width="0.809"/>
<path fill-rule="evenodd" clip-rule="evenodd" d="M29.8952 34.7026C29.8952 34.7026 30.3305 35.1407 30.8321 35.0836C31.9679 34.9598 32.2992 33.9407 32.6494 33.9312C32.9995 33.9217 33.2173 34.5502 33.5484 34.4741C33.2645 33.9502 32.9617 32.7883 33.009 31.9692C33.0564 31.1502 33.0564 27.7025 33.0564 27.7025C33.0564 27.7025 32.4884 25.9215 32.2234 25.6262C32.4884 25.3405 32.6683 24.8357 32.6588 24.2833C32.6494 23.731 32.6588 23.1214 32.6588 23.1214C32.6588 23.1214 32.7913 22.9691 32.7819 22.5405C32.7724 22.1119 32.0626 21.4929 31.9679 21.5214C31.8733 21.5499 30.9836 22.3214 30.9079 22.5023C30.8321 22.6833 30.7281 21.8452 30.8984 21.7689C31.0688 21.6928 30.5009 21.6452 30.1412 22.0737C29.7816 22.5024 29.8857 34.7215 29.8952 34.7022V34.7026Z" fill="#005121" stroke="black" stroke-width="0.7585" stroke-linejoin="round"/>
<path fill-rule="evenodd" clip-rule="evenodd" d="M25.6266 18.6768L28.9574 18.6888L28.9336 17.1446L30.1471 17.1566L30.1589 18.6888H33.4779L33.4898 19.8859L30.1589 19.8979L30.1323 34.0154L28.9488 34.0229L28.9336 19.8862L25.6259 19.8981L25.6266 18.6771V18.6768Z" fill="black"/>
<path fill-rule="evenodd" clip-rule="evenodd" d="M28.9458 22.4159C28.9458 22.4159 28.7181 22.3755 28.5442 22.4293C28.3702 22.4833 28.8119 20.4427 28.8119 20.2743C28.9658 20.2003 29.7355 20.0588 29.7154 19.5133C29.6619 19.1833 28.5241 19.5336 28.5442 19.9511C28.4706 20.1598 27.7278 22.2878 27.875 22.9883C28.136 23.197 28.6179 23.1567 28.9458 23.1028V22.4159Z" fill="#FFC6B5" stroke="black" stroke-width="0.809"/>
<path d="M29.1662 19.4998C29.1662 19.4998 29.0993 19.877 29.4406 19.931L29.1662 19.4998Z" fill="black"/>
<path d="M29.1662 19.4998C29.1662 19.4998 29.0993 19.877 29.4406 19.931" stroke="black" stroke-width="0.379" stroke-linecap="round"/>
<path d="M29.6682 19.4931C29.6549 19.4997 29.2266 19.7692 29.2266 19.7692L29.6682 19.4931Z" fill="black"/>
<path d="M29.6682 19.4931C29.6549 19.4997 29.2266 19.7692 29.2266 19.7692M29.6421 19.6614L29.3409 19.8837M29.5281 19.4123L29.1935 19.6144" stroke="black" stroke-width="0.2275"/>
<path fill-rule="evenodd" clip-rule="evenodd" d="M26.2705 30.6929L29.3086 33.8644C30.3592 32.7025 29.6304 28.3595 28.2487 27.5596C28.0831 28.0738 27.8014 28.6904 27.5021 28.8892C26.8434 29.3409 25.2294 29.869 25.7689 30.2072C25.8919 30.0357 26.2138 29.8738 26.3652 30.2548C26.5449 30.8548 25.6932 30.893 25.6932 30.893C25.6932 30.893 25.1538 30.8263 25.0591 30.2738C24.9644 29.7215 25.8627 29.2172 25.9393 29.1787C26.0149 29.15 27.1886 28.8358 27.3874 27.7881C27.6334 26.7594 27.8889 26.9119 27.9364 26.8928C29.4695 27.0452 30.4728 29.8073 30.5296 31.7501C30.5864 33.6929 29.7441 34.9787 29.5926 35.0644C29.4412 35.1501 25.9393 30.8834 25.9393 30.8834L26.2705 30.6929Z" fill="#FF9A08" stroke="black" stroke-width="0.809"/>
<path d="M28.485 27.7402L28.5038 33.4641M28.1442 27.8447L28.1631 33.0448M27.7753 28.5973L27.7941 32.7308M27.4729 28.8925L27.4919 32.3117M27.1504 29.0457V31.9314M26.8006 29.2739V31.5596M26.4976 29.4544V31.2068" stroke="black" stroke-width="0.809"/>
<path d="M29.507 28.7789C29.507 28.7789 30.9268 31.9028 29.6111 34.4743L29.507 28.7789ZM25.8539 30.3978C25.8539 30.3978 25.958 30.1216 26.0905 30.2359L25.8539 30.3978ZM25.6079 29.5974C25.6079 29.5974 25.04 30.1022 25.3524 30.4261L25.6079 29.5974Z" fill="black"/>
<path d="M26.223 31.0551L29.3558 34.6641M29.507 28.7789C29.507 28.7789 30.9268 31.9028 29.6111 34.4743M25.8539 30.3978C25.8539 30.3978 25.958 30.1216 26.0905 30.2359M25.6079 29.5974C25.6079 29.5974 25.04 30.1022 25.3524 30.4261" stroke="#FFDF00" stroke-width="0.7585" stroke-linecap="round"/>
<path d="M30.861 22.5213C30.861 22.5213 30.9083 22.9596 30.8136 23.2927C30.7191 23.626 31.1733 24.5499 31.0029 24.7404" fill="black"/>
<path d="M30.861 22.5213C30.861 22.5213 30.9083 22.9596 30.8136 23.2927C30.7191 23.626 31.1733 24.5499 31.0029 24.7404M31.0505 25.6355L32.2431 25.6259" stroke="black" stroke-width="0.809"/>
<path d="M30.6149 26.1213C30.6243 26.1403 30.7568 26.7499 30.7189 27.1689L30.6149 26.1213ZM31.003 26.3404C30.9651 26.4642 30.4729 27.8738 30.4919 27.9309L31.003 26.3404ZM31.2963 25.7024C31.3057 25.731 31.2584 26.5977 31.1259 26.7215L31.2963 25.7024ZM31.902 25.6355C31.902 25.6355 32.6782 27.445 32.6687 28.1593C32.6593 28.8737 32.9337 30.3212 32.754 30.9594M32.148 28.1408C32.148 28.1408 32.0911 29.4837 31.5328 30.0076C30.9744 30.5314 32.8673 32.0267 32.8673 32.0267" fill="black"/>
<path d="M30.6149 26.1213C30.6243 26.1403 30.7568 26.7499 30.7189 27.1689M31.003 26.3404C30.9651 26.4642 30.4729 27.8738 30.4919 27.9309M31.2963 25.7024C31.3057 25.731 31.2584 26.5977 31.1259 26.7215M31.902 25.6355C31.902 25.6355 32.6782 27.445 32.6687 28.1593C32.6593 28.8737 32.9337 30.3212 32.754 30.9594M32.148 28.1408C32.148 28.1408 32.0911 29.4837 31.5328 30.0076C30.9744 30.5314 32.8673 32.0267 32.8673 32.0267" stroke="black" stroke-width="0.809" stroke-linecap="round"/>
<path d="M32.1288 31.9406C32.1288 31.9406 32.3371 33.7882 32.6873 33.9216L32.1288 31.9406ZM30.4162 28.8448C30.4257 28.8639 30.2269 30.0924 30.3878 30.2925C30.5488 30.4925 31.8833 32.3687 31.8264 34.3117M31.4474 33.7308C31.4474 33.7308 31.4095 34.9023 30.3305 34.9976L31.4474 33.7308ZM31.1258 32.96C31.1258 32.96 31.4477 34.179 30.3498 34.9505L31.1258 32.96Z" fill="black"/>
<path d="M32.1288 31.9406C32.1288 31.9406 32.3371 33.7882 32.6873 33.9216M30.4162 28.8448C30.4257 28.8639 30.2269 30.0924 30.3878 30.2925C30.5488 30.4925 31.8833 32.3687 31.8264 34.3117M31.4474 33.7308C31.4474 33.7308 31.4095 34.9023 30.3305 34.9976M31.1258 32.96C31.1258 32.96 31.4477 34.179 30.3498 34.9505" stroke="black" stroke-width="0.7585" stroke-linecap="round"/>
<path d="M31.5513 30.0163C31.5513 30.0163 32.7911 31.3117 32.8479 31.8832L31.5513 30.0163ZM31.9111 25.6638C31.9111 25.6638 32.1289 26.5876 32.0437 26.7496L31.9111 25.6638Z" fill="black"/>
<path d="M31.5513 30.0163C31.5513 30.0163 32.7911 31.3117 32.8479 31.8832M31.9111 25.6638C31.9111 25.6638 32.1289 26.5876 32.0437 26.7496" stroke="black" stroke-width="0.809" stroke-linecap="round"/>
<path fill-rule="evenodd" clip-rule="evenodd" d="M28.0868 27.5617C28.0868 27.5617 27.9541 27.3279 27.9707 27.069C27.9873 26.8102 27.9292 26.4095 28.7589 26.0838C29.2651 25.5662 29.8293 25.2572 30.1362 25.0987C30.5843 24.8064 30.8748 24.8732 31.1402 24.773C31.3144 24.5727 31.3061 24.1301 31.4886 23.7378C31.6712 23.3453 31.9948 22.5355 32.3432 22.6607C32.6918 22.786 32.4179 23.838 32.2851 24.2053C32.1523 24.5727 32.0363 24.9568 31.8039 25.1822C31.5716 25.4077 30.5179 25.8168 30.3104 25.8919C30.103 25.9671 29.1572 26.184 28.9166 26.5182C28.6759 26.8521 28.6925 27.3446 28.0868 27.5617Z" fill="#FFC6B5" stroke="black" stroke-width="0.809"/>
<path d="M28.0201 26.8608C28.0451 26.8525 28.435 26.7272 28.6175 27.0779L28.0201 26.8608Z" fill="black"/>
<path d="M28.0201 26.8608C28.0451 26.8525 28.435 26.7272 28.6175 27.0779" stroke="black" stroke-width="0.809"/>
<path fill-rule="evenodd" clip-rule="evenodd" d="M30.9495 19.7016C30.9495 19.7016 30.7741 19.9894 30.7255 20.1642C30.6878 20.2951 30.5662 20.1554 30.502 20.4389L30.6062 20.4573C30.5647 20.5407 30.5512 20.6818 30.543 20.7152C30.5346 20.7487 30.4762 20.9012 30.4849 21.0159C30.4896 21.075 30.6011 21.3332 31.5054 20.9407C32.4098 20.5482 31.215 19.4344 30.9495 19.7016Z" fill="#FFC6B5" stroke="black" stroke-width="0.7585" stroke-linejoin="round"/>
<path fill-rule="evenodd" clip-rule="evenodd" d="M30.8479 19.7384C30.9407 19.6883 31.5996 19.6299 31.4898 20.924C31.6165 20.9073 31.6925 20.8905 31.7684 21.0158C31.8444 21.1411 31.8361 21.2914 31.9711 21.2914C32.1063 21.2914 32.1232 21.2663 32.157 21.1661C32.1906 21.0659 32.7144 21.283 32.8494 20.8155C32.826 20.7245 32.5286 20.5817 32.4946 20.4147C32.5707 20.1809 32.4609 19.4212 31.4982 19.3793C30.9999 19.3711 30.8987 19.5797 30.8479 19.7384Z" fill="#C59200" stroke="black" stroke-width="0.765" stroke-linecap="round" stroke-linejoin="round"/>
<path d="M30.7993 19.9973C30.8076 20.0056 31.0981 20.0891 31.1312 20.2311L30.7993 19.9973Z" fill="black"/>
<path d="M30.7993 19.9973C30.8076 20.0056 31.0981 20.0891 31.1312 20.2311" stroke="black" stroke-width="0.809" stroke-linecap="round"/>
<path fill-rule="evenodd" clip-rule="evenodd" d="M30.9776 20.3409C30.9776 20.3847 30.9442 20.4202 30.9029 20.4202C30.8615 20.4202 30.8281 20.3847 30.8281 20.341C30.8281 20.2972 30.8615 20.2617 30.9029 20.2617C30.9442 20.2617 30.9776 20.2972 30.9776 20.3409Z" fill="black"/>
<path d="M32.2065 20.3449C32.2065 20.3449 32.1001 20.86 32.5687 21.0621L32.2065 20.3449ZM31.8597 20.4083C31.8597 20.4083 32.0333 20.4163 32.0333 20.5788C32.0333 20.7411 31.8908 20.7609 31.9026 20.8918C31.9145 21.0225 32.1471 21.066 32.155 21.177M31.0997 19.4573C31.1076 19.4573 31.9306 19.5525 31.8833 19.7585C31.8361 19.9645 31.7061 19.8813 31.7101 20.0596C31.714 20.2379 32.0408 20.131 32.0408 20.131C32.0408 20.131 32.0606 19.9803 32.1983 19.9923C32.3361 20.0041 32.2731 20.1627 32.4621 20.1586" fill="black"/>
<path d="M32.2065 20.3449C32.2065 20.3449 32.1001 20.86 32.5687 21.0621M31.8597 20.4083C31.8597 20.4083 32.0333 20.4163 32.0333 20.5788C32.0333 20.7411 31.8908 20.7609 31.9026 20.8918C31.9145 21.0225 32.1471 21.066 32.155 21.177M31.0997 19.4573C31.1076 19.4573 31.9306 19.5525 31.8833 19.7585C31.8361 19.9645 31.7061 19.8813 31.7101 20.0596C31.714 20.2379 32.0408 20.131 32.0408 20.131C32.0408 20.131 32.0606 19.9803 32.1983 19.9923C32.3361 20.0041 32.2731 20.1627 32.4621 20.1586" stroke="black" stroke-width="0.7585" stroke-linecap="round" stroke-linejoin="round"/>
<path d="M30.5967 20.7421L30.7918 20.7357" stroke="black" stroke-width="0.7585" stroke-linecap="round"/>
<path d="M31.1048 21.5778C31.1048 21.5778 31.1774 21.9186 30.9032 21.8861L31.1048 21.5778Z" fill="black"/>
<path d="M31.1048 21.5778C31.1048 21.5778 31.1774 21.9186 30.9032 21.8861" stroke="black" stroke-width="0.809" stroke-linecap="round"/>
<path d="M-13.3334 0.00524902V2.37525L15.304 21.2027H18.9086V18.8329L-9.72871 0.00533236L-13.3334 0.00524902ZM18.9086 0.00524902V2.37517L-9.72871 21.2027H-13.3334V18.8328L15.304 0.00524902H18.9086Z" fill="white"/>
<path d="M0.100794 0.00524902V21.2027H5.47446V0.00524902H0.100794ZM-13.3334 7.07108V14.1369H18.9086V7.07108H-13.3334Z" fill="white"/>
<path d="M-13.3334 8.48425V12.7237H18.9086V8.48425H-13.3334ZM1.17554 0.00524902V21.2027H4.39971V0.00524902H1.17554ZM-13.3334 21.2027L-2.58604 14.1369H-0.182958L-10.9303 21.2027H-13.3334ZM-13.3334 0.00524902L-2.58604 7.07108H-4.98912L-13.3334 1.58525V0.00524902ZM5.75821 7.07108L16.5055 0.00524902H18.9086L8.16129 7.07108H5.75821ZM18.9086 21.2027L8.16129 14.1369H10.5644L18.9086 19.6228V21.2027Z" fill="#CC0000"/>
</g>
</g>
</g>
<defs>
<clipPath id="clip0_16699_262362">
<rect width="40" height="40" fill="white"/>
</clipPath>
</defs>
</svg>
