<svg width="40" height="40" viewBox="0 0 40 40" fill="none" xmlns="http://www.w3.org/2000/svg">
<g clip-path="url(#clip0_16699_262416)">
<mask id="mask0_16699_262416" style="mask-type:luminance" maskUnits="userSpaceOnUse" x="0" y="0" width="40" height="40">
<path d="M40 20C40 8.95431 31.0457 0 20 0C8.95431 0 0 8.95431 0 20C0 31.0457 8.95431 40 20 40C31.0457 40 40 31.0457 40 20Z" fill="white"/>
</mask>
<g mask="url(#mask0_16699_262416)">
<mask id="mask1_16699_262416" style="mask-type:luminance" maskUnits="userSpaceOnUse" x="-12" y="0" width="55" height="40">
<path d="M-11.25 0H42.0833V40H-11.25V0Z" fill="white"/>
</mask>
<g mask="url(#mask1_16699_262416)">
<path d="M-11.25 0H42.0833V40H-11.25V0Z" fill="#CF142B"/>
<path d="M-11.25 0H15.4167V13.3333H-11.25V0Z" fill="#00247D"/>
<path d="M-11.25 0V1.49067L12.4353 13.3333H15.4167V11.8427L-8.26867 0H-11.25ZM15.4167 0V1.49067L-8.26867 13.3333H-11.25V11.8427L12.4353 0H15.4167Z" fill="white"/>
<path d="M-0.138918 0V13.3333H4.30558V0H-0.138918ZM-11.25 4.44442V8.88892H15.4167V4.44442H-11.25Z" fill="white"/>
<path d="M-11.25 5.33333V8H15.4167V5.33333H-11.25ZM0.749999 0V13.3333H3.41667V0H0.749999ZM-11.25 13.3333L-2.36108 8.88892H-0.373584L-9.2625 13.3333H-11.25ZM-11.25 0L-2.36108 4.44442H-4.34858L-11.25 0.99375V0ZM4.54025 4.44442L13.4292 0H15.4167L6.52775 4.44442H4.54025ZM15.4167 13.3333L6.52775 8.88892H8.51525L15.4167 12.3396V13.3333Z" fill="#CF142B"/>
<path d="M34.9024 12.355V23.6478C34.9024 26.6642 28.8724 27.6442 28.8724 27.6442C28.8724 27.6442 22.8426 26.6642 22.8426 23.6478V12.355H34.9026H34.9024Z" fill="white"/>
<path d="M34.9024 23.6478C34.9024 26.6642 28.8724 27.6442 28.8724 27.6442C28.8724 27.6442 22.8426 26.6642 22.8426 23.6478C22.8426 23.6478 22.8426 23.4048 22.9653 23.2667C22.9653 23.2667 22.8988 23.7683 23.2843 24.1478C23.2843 24.1478 22.9819 23.6126 23.2776 23.0865C23.2776 23.0865 23.1679 23.7633 23.5899 24.152C23.5899 24.152 23.3574 23.5991 23.6199 22.9826C23.6199 22.9826 23.4903 23.9913 23.9488 24.1923C23.9488 24.1923 24.075 23.6127 23.8923 23.2407C23.8923 23.2407 24.2079 23.368 24.1913 24.209C24.1913 24.209 24.2909 24.0851 24.3175 23.4786C24.3175 23.4786 24.3308 24.1722 24.57 24.333C24.57 24.333 24.6432 24.2627 24.5435 23.9477C24.4438 23.6327 24.5867 23.5222 24.6099 23.5289C24.6099 23.5289 24.5576 23.8773 24.8497 24.1388C24.8497 24.1388 24.723 23.5926 24.8992 23.5188C24.8992 23.5188 24.8627 23.9813 25.2282 24.0852C25.2282 24.0852 25.2548 23.951 25.175 23.8003C25.175 23.8003 25.1053 23.6215 25.1583 23.4847C25.1583 23.4847 25.2747 23.9042 25.4342 23.9746C25.4342 23.9746 25.3378 23.7287 25.4275 23.4847C25.4275 23.4847 25.4475 23.8339 25.7598 23.9779C25.7598 23.9779 25.5539 23.7077 25.6353 23.4104L27.6438 23.5088L28.6838 23.5584L31.8039 23.3378L32.3423 22.8753C32.3423 22.8753 32.5548 23.1703 32.2193 23.6362C32.2193 23.6362 32.5518 23.5758 32.658 23.0563C32.658 23.0563 32.7942 23.3445 32.608 23.663C32.608 23.663 32.977 23.2943 33.0301 22.8755C33.0301 22.8755 33.173 23.2808 32.8241 23.7165C32.8241 23.7165 33.1364 23.6126 33.2693 23.1502C33.2693 23.1502 33.3758 23.4288 33.0733 23.8223C33.0733 23.8223 33.6383 23.5223 33.6217 22.9023C33.6217 22.9023 33.8575 23.244 33.5883 23.7132C33.5883 23.7132 33.8775 23.4552 33.9042 23.0698C33.9042 23.0698 34.0636 23.244 33.8908 23.7232C33.8908 23.7232 34.243 23.3915 34.2962 23.0329C34.2962 23.0329 34.3726 23.3646 34.0703 23.7835C34.0703 23.7835 34.2762 23.7333 34.4723 23.3243C34.4723 23.3243 34.5255 23.4853 34.3461 23.7802C34.3461 23.7802 34.5389 23.7467 34.6684 23.3781C34.6684 23.3781 34.6918 23.5993 34.6353 23.797C34.6353 23.797 34.7848 23.6998 34.818 23.2809C34.818 23.2809 34.9015 23.4183 34.903 23.5891C34.9043 23.7601 34.9028 23.6478 34.9028 23.6478L34.9024 23.6478Z" fill="#2F8F22"/>
<path d="M31.7976 17.1197C31.7976 17.1197 31.5879 17.1552 31.3188 17.0732C31.0497 16.9912 30.9409 17.0245 30.8574 17.0732C30.8574 17.0732 30.9666 16.8569 30.7007 16.6862C30.7007 16.6862 30.7872 16.9045 30.6676 17.0064C30.6676 17.0064 30.6144 17.0564 30.5512 16.9811C30.5512 16.9811 30.4582 16.8856 30.3602 16.8119C30.3602 16.8119 30.5861 16.7332 30.5447 16.5036C30.503 16.2741 30.3802 16.2439 30.3138 16.2155C30.3138 16.2155 30.337 16.3193 30.3138 16.3897C30.3138 16.3897 30.0678 16.2523 30.4018 16.058C30.7357 15.8636 30.6742 15.7497 30.6144 15.6508C30.5546 15.5521 30.4267 15.4432 30.3636 15.4046C30.3636 15.4046 30.43 15.5085 30.4183 15.5973C30.4067 15.6861 30.2554 15.7432 30.2853 15.5873C30.3153 15.4315 30.2837 15.4582 30.2803 15.2923C30.2803 15.2923 30.5778 15.3929 30.6941 15.1032C30.6941 15.1032 30.8086 14.8032 30.4331 14.654C30.4331 14.654 30.5245 14.7763 30.4796 14.8685C30.4796 14.8685 30.3999 15.0193 30.3052 14.897C30.2104 14.7747 30.1507 14.7512 30.1607 14.607C30.1607 14.607 30.5012 14.6541 30.4082 14.2837C30.4082 14.2837 30.3533 14.5301 29.9115 14.1983C29.9115 14.1983 30.1987 13.9033 30.0875 13.6655C30.0875 13.6655 30.0525 13.5566 29.7402 13.6202C29.7402 13.6202 30.0111 13.4494 29.8964 13.3036C29.8964 13.3036 29.8381 13.2065 29.5856 13.3338C29.5856 13.3338 29.6837 13.1646 29.4361 12.9819C29.4361 12.9819 29.27 13.0691 29.1819 13.1494C29.1819 13.1494 29.0125 12.935 28.9044 12.8496C28.9044 12.8496 28.7084 12.925 28.6586 13.1496C28.6586 13.1496 28.5673 13.0406 28.3596 12.9904C28.3596 12.9904 28.2599 13.1746 28.3896 13.3354C28.3896 13.3354 28.2931 13.3321 28.1171 13.255C28.1171 13.255 27.916 13.1595 27.9458 13.3321C27.9758 13.5046 27.9907 13.5432 28.0306 13.6236C28.0306 13.6236 27.5795 13.5188 27.5987 13.7627C27.612 13.9319 27.6751 14.0776 27.8147 14.1999C27.8147 14.1999 27.562 14.5299 27.346 14.2819C27.346 14.2819 27.2712 14.3623 27.4324 14.5734C27.4324 14.5734 27.5936 14.7509 27.4607 14.8634C27.4607 14.8634 27.2829 15.0057 27.1966 14.7293C27.1966 14.7293 26.9091 15.0157 27.2481 15.2352C27.2481 15.2352 27.4658 15.3592 27.6884 15.1682C27.6884 15.1682 27.6203 15.7177 27.4076 15.6121C27.4076 15.6121 27.2797 15.5183 27.5089 15.4061C27.5089 15.4061 27.1783 15.3642 27.1252 15.6842C27.1252 15.6842 27.0843 15.9387 27.3727 16.031C27.3727 16.031 27.5953 16.1114 27.3643 16.284C27.3643 16.284 27.2015 16.408 27.3079 16.5923C27.3079 16.5923 27.4358 16.795 27.1118 16.8151C27.1118 16.8151 26.9357 16.8134 26.8727 16.7901C26.8727 16.7901 26.8015 16.9221 26.8512 17.073C26.8512 17.073 26.6898 16.9528 26.3227 17.0858C25.9555 17.2189 25.9838 17.125 25.9538 17.1653C25.9238 17.2055 25.8524 17.3412 25.8524 17.3412C25.8524 17.3412 26.0452 17.5757 26.0484 17.5707C26.0517 17.5657 26.0119 17.8388 26.0119 17.8388L26.1067 17.8841L26.8625 17.5474L27.6302 17.1474L28.2473 17.1852L28.6388 17.2783L29.1528 17.3158L29.5209 17.1195H30.0543L30.6407 17.4117L31.3102 17.8112L31.6592 17.8724L31.9278 17.8581V17.3159L31.7971 17.1197L31.7976 17.1197Z" fill="#D40000" stroke="black" stroke-width="0.266" stroke-linejoin="round"/>
<path d="M25.7086 17.7536C25.7086 17.7536 26.0011 17.9027 26.1231 17.7217C26.1231 17.7217 26.2826 17.4177 25.9324 17.3122C25.9324 17.3122 26.123 17.0835 25.9186 16.8724C25.9186 16.8724 25.8115 16.7593 25.6245 16.8424C25.6245 16.8424 25.5473 16.6814 25.3653 16.6864C25.3653 16.6864 25.2059 16.6839 25.1511 16.8597C25.1511 16.8597 24.9317 16.7694 24.8096 16.9001C24.8096 16.9001 24.6077 17.1263 24.8894 17.3047L25.0921 17.3232L25.2914 17.231L25.5139 17.2947C25.5141 17.2947 25.4568 17.5201 25.7085 17.7537L25.7086 17.7536Z" fill="#D40000" stroke="black" stroke-width="0.266" stroke-linejoin="round"/>
<path d="M32.2358 17.2188C32.5881 17.1857 32.7125 17.483 32.7125 17.483C32.8971 17.9162 32.505 18.1474 32.505 18.1474C32.535 18.2445 32.5383 18.3717 32.5383 18.3717C33.0898 18.4388 32.9933 19.0587 32.9933 19.0587L32.8107 18.9079C32.4917 18.7839 32.1628 19.0554 31.9268 19.5111C31.691 19.9669 31.8039 20.1812 31.8438 20.7207C31.8838 21.2602 32.7608 21.5819 32.7608 21.5819C32.7608 21.5819 32.3455 22.6508 32.0763 23.3378C31.8072 24.0247 31.2457 23.7398 31.0828 23.5953C30.92 23.4504 30.8793 23.5308 30.797 23.5953C30.7148 23.6594 31.1659 24.0112 30.3452 24.343C29.5243 24.6747 29.3816 24.9294 29.2453 25.0132C29.1092 25.0968 28.5409 25.0398 28.4845 24.9695C28.428 24.8992 28.4612 24.8992 28.2487 24.7684C28.0359 24.6378 27.677 24.5238 27.2849 24.3328C26.8928 24.1418 26.9028 23.8972 26.9061 23.847C26.9094 23.7967 27.0423 23.3878 26.5831 23.7128C26.1239 24.0378 25.7331 23.5582 25.7331 23.5582C25.6434 23.4402 25.2613 22.4162 25.2613 22.4162C25.1583 22.0342 24.9556 21.5885 24.9556 21.5885C24.9656 21.5852 24.9356 21.6354 25.2746 21.441C25.6135 21.2468 25.7653 20.9235 25.8826 20.6035C25.9999 20.2835 25.8859 19.7355 25.8428 19.6249C25.7994 19.5144 25.5469 19.0074 25.2343 18.9012C24.9216 18.795 24.7119 19.0587 24.7119 19.0587C24.7119 19.0587 24.6154 18.4387 25.1669 18.3717C25.1669 18.3717 25.1703 18.2445 25.2003 18.1473C25.2003 18.1473 24.8082 17.916 24.9928 17.4827C24.9928 17.4827 25.1172 17.1855 25.4694 17.2186L25.3843 17.3798C25.3843 17.3798 25.2955 18.2645 26.5904 17.6715C27.8853 17.0782 27.8464 16.9677 28.5841 17.3397L29.1224 17.3297C29.1224 17.3297 29.8999 16.9699 30.1491 17.1247C30.3983 17.2794 31.2954 17.782 31.2954 17.782C31.2954 17.782 32.1627 18.1072 32.3321 17.5073L32.2358 17.2187L32.2358 17.2188Z" fill="#64B4D1" stroke="black" stroke-width="0.1995"/>
<path d="M28.3398 21.0542C28.3398 21.0542 28.2948 20.7827 28.2475 20.6068C28.2475 20.6068 28.1514 20.331 28.3154 20.1372L28.5188 19.9032C28.5188 19.9032 28.645 19.7332 28.8015 19.7101C28.8015 19.7101 28.9579 19.7054 28.9728 19.6736C28.9878 19.6417 29.1589 19.3602 29.5659 19.6736C29.5659 19.6736 29.6957 19.4658 29.8951 19.4307C29.8951 19.4307 30.1103 19.3652 30.2145 19.5261C30.2145 19.5261 30.4565 19.3426 30.6643 19.6379C30.6643 19.6379 30.9518 19.4762 31.1609 19.7977C31.1609 19.7977 31.4451 19.6592 31.6195 19.9544C31.794 20.2499 31.7591 20.3705 31.7591 20.3705L31.8886 20.8397L32.3473 21.4059L31.2806 21.808H30.8023L29.8453 22.0643L28.1457 22.195L27.6722 21.6371L28.3399 21.0541L28.3398 21.0542Z" fill="white" stroke="#00247D" stroke-width="0.266" stroke-miterlimit="10"/>
<path d="M26.9033 23.8789C26.9033 23.8789 26.6492 23.8941 26.5195 23.9594C26.3899 24.0248 26.2903 24.0951 26.1408 24.1906C26.1408 24.1906 26.0709 24.2836 25.7768 24.227C25.7768 24.227 25.2685 24.1052 25.2685 24.5023C25.2685 24.5023 24.6603 24.5524 24.9096 25.0853C24.9096 25.0853 25.079 25.5024 25.4279 25.2059C25.4279 25.2059 25.2036 25.5276 25.6373 25.6534C25.6373 25.6534 25.9463 25.7288 26.0359 25.4121C26.0359 25.4121 26.0859 25.2864 25.9662 25.1306C25.9662 25.1306 26.1158 25.1004 26.2203 24.9396C26.2203 24.9396 25.9014 25.3428 26.2503 25.4879C26.2503 25.4879 26.6887 25.5979 26.7137 25.1406C26.7137 25.1406 26.678 24.9295 26.8478 24.8541C26.8478 24.8541 27.1973 24.7737 27.3568 24.3841C27.3568 24.3841 26.8544 24.1166 26.9032 23.8791L26.9033 23.8789ZM25.8767 19.87C25.8767 19.87 25.4847 19.6894 25.2986 19.87C25.2986 19.87 25.0394 19.7095 24.7669 19.87C24.7669 19.87 24.5078 20.0394 24.3283 20.2258C24.3283 20.2258 24.2021 20.3342 24.2486 20.6748C24.2486 20.6748 24.3151 20.9151 24.2753 21.0357C24.2753 21.0357 24.1888 21.0187 24.0161 21.2234C24.0161 21.2234 23.7967 21.4774 23.604 21.2533C23.604 21.2533 23.6638 21.5652 24.0259 21.5149C24.0259 21.5149 23.8499 21.6524 24.0028 22.0076C24.0028 22.0076 24.1158 22.2589 23.9363 22.5738C23.9363 22.5738 24.252 22.4466 24.2387 22.0747C24.2387 22.0747 24.212 21.8233 24.3051 21.6457C24.3051 21.6457 24.2121 21.8072 24.4281 22.1517C24.4281 22.1517 24.5942 22.3996 24.4581 22.6575C24.4581 22.6575 24.7703 22.5437 24.7404 22.165C24.7106 21.7863 24.5211 21.9438 24.6441 21.5953C24.6441 21.5953 24.6741 21.7738 24.767 21.8638C24.86 21.9538 24.9797 22.1047 24.9298 22.356C24.9298 22.356 25.1159 22.1248 25.0727 21.8868C25.0296 21.6489 24.9831 21.577 24.9831 21.577L25.5712 21.2435L25.8637 20.7141L25.877 19.8699L25.8767 19.87Z" fill="#D40000" stroke="black" stroke-width="0.266" stroke-linejoin="round"/>
<path d="M24.9831 21.3642C24.9831 21.3642 24.7406 21.3475 24.7006 21.1597L24.9831 21.3642ZM24.2753 21.0358C24.2753 21.0358 24.3598 21.0325 24.4363 21.1095C24.4363 21.1095 24.4946 21.1966 24.5777 21.1865" fill="black"/>
<path d="M24.9831 21.3642C24.9831 21.3642 24.7406 21.3475 24.7006 21.1597M24.2753 21.0358C24.2753 21.0358 24.3598 21.0325 24.4363 21.1095C24.4363 21.1095 24.4946 21.1966 24.5777 21.1865" stroke="black" stroke-width="0.266" stroke-miterlimit="10"/>
<path d="M25.3417 20.6504C25.3417 20.6504 25.2156 20.6504 25.1459 20.5901C25.1459 20.5901 25.0725 20.5399 25.0294 20.6203C25.0294 20.6203 24.963 20.7342 25.0859 20.7845C25.0859 20.7845 25.2389 20.8616 24.9963 21.0157C24.9963 21.0157 25.2854 20.9118 25.1691 20.7712C25.1691 20.7712 25.0429 20.6807 25.0894 20.6472C25.0894 20.6472 25.1027 20.6203 25.1527 20.6538C25.2024 20.6873 25.3021 20.674 25.3419 20.6505L25.3417 20.6504Z" fill="black"/>
<path d="M29.1564 21.3408L29.3051 21.2906L28.3336 17.9353L28.298 17.9448L29.1564 21.3408Z" fill="#784421" stroke="black" stroke-width="0.1995"/>
<path d="M25.9214 25.055C25.9214 25.055 25.6922 24.9261 25.5027 25.0769C25.5027 25.0769 25.5221 24.9931 25.6669 24.9562C25.6669 24.9562 25.7452 24.7351 25.9646 24.7552C25.9646 24.7552 25.8749 24.8623 25.7552 24.9529C25.7552 24.9529 25.8816 24.9659 25.9214 25.0549V25.055Z" fill="black"/>
<path d="M25.1141 25.5878C25.1141 25.5878 24.7502 25.3592 24.9471 24.9747C24.9471 24.9747 25.0044 24.8641 25.1141 24.8867C25.1141 24.8867 25.3407 24.957 25.1639 25.2713C25.1639 25.2713 25.0742 25.4748 25.1141 25.5879V25.5878ZM25.8517 25.9498C25.8517 25.9498 25.3334 25.7136 25.4928 25.3114C25.4928 25.3114 25.5422 25.1756 25.657 25.1858C25.657 25.1858 25.857 25.1957 25.817 25.4622C25.817 25.4622 25.757 25.7235 25.8517 25.9497V25.9498Z" fill="#64B4D1" stroke="#00247D" stroke-width="0.1995" stroke-miterlimit="2.613"/>
<path d="M25.742 24.4492C25.742 24.4492 25.5862 24.5642 25.5229 24.6412C25.5229 24.6412 25.4595 24.5625 25.3765 24.5147C25.3765 24.5147 25.4722 24.5022 25.5229 24.5452C25.5229 24.5452 25.6024 24.4682 25.7421 24.4492H25.742Z" fill="black"/>
<path d="M26.203 25.8492C26.203 25.8492 26.6092 25.7463 26.5345 25.3265C26.5345 25.3265 26.4945 25.1432 26.3227 25.1682C26.3227 25.1682 26.1154 25.2211 26.2503 25.4878C26.2503 25.4878 26.3301 25.6783 26.203 25.8493V25.8492Z" fill="#64B4D1" stroke="#00247D" stroke-width="0.1995" stroke-miterlimit="2.613"/>
<path d="M28.0384 16.9704C28.0384 16.9704 28.3001 17.0507 28.4421 17.1086C28.4421 17.1086 28.8209 17.2794 29.3019 17.1086C29.3019 17.1086 29.6271 16.9798 29.6706 16.9704L29.4214 17.3498L29.4089 17.5458L29.5647 17.7745C29.5647 17.7745 29.4714 17.8122 29.1922 17.6413C29.1922 17.6413 28.8831 17.4026 28.5143 17.6413C28.5143 17.6413 28.3126 17.778 28.1431 17.7745L28.3823 17.5074L28.2901 17.2668L28.0385 16.9703L28.0384 16.9704Z" fill="#F5CE00" stroke="black" stroke-width="0.266" stroke-miterlimit="2.613"/>
<path d="M26.36 25.3478C26.36 25.3478 26.375 25.3278 26.3575 25.3189C26.3575 25.3189 26.34 25.3114 26.3275 25.3359C26.3275 25.3359 26.2852 25.4032 26.3211 25.4952C26.3211 25.4952 26.355 25.559 26.3386 25.6257C26.3386 25.6257 26.3362 25.6445 26.3512 25.647C26.3512 25.647 26.3656 25.642 26.3684 25.6282C26.3684 25.6282 26.3887 25.5632 26.3538 25.4996C26.3538 25.4996 26.3115 25.4007 26.3601 25.3479L26.36 25.3478Z" fill="white"/>
<path d="M31.9868 17.7536C31.9868 17.7536 31.6943 17.9027 31.5723 17.7217C31.5723 17.7217 31.4128 17.4177 31.7629 17.3122C31.7629 17.3122 31.5723 17.0835 31.7766 16.8724C31.7766 16.8724 31.8838 16.7593 32.0708 16.8424C32.0708 16.8424 32.1479 16.6814 32.3299 16.6864C32.3299 16.6864 32.4893 16.6839 32.5441 16.8597C32.5441 16.8597 32.7635 16.7694 32.8856 16.9001C32.8856 16.9001 33.0874 17.1263 32.8058 17.3047L32.6031 17.3232L32.4037 17.231L32.1812 17.2947C32.181 17.2947 32.2383 17.5201 31.9867 17.7537L31.9868 17.7536Z" fill="#D40000" stroke="black" stroke-width="0.266" stroke-linejoin="round"/>
<path d="M29.6707 17.5175C29.6707 17.5175 29.6632 17.5778 29.6034 17.5844C29.6034 17.5844 29.5412 17.6046 29.5048 17.5269C29.5048 17.5269 29.5006 17.5093 29.4996 17.5007C29.4954 17.4643 29.4829 17.3598 29.5959 17.2745C29.5959 17.2745 29.7804 17.1237 30.1326 17.3063C30.1326 17.3063 30.4118 17.4403 30.6044 17.5543C30.6044 17.5543 31.1028 17.8224 31.1628 17.8426C31.1628 17.8426 31.382 17.9531 31.7177 17.9665C31.7177 17.9665 32.1761 18 32.3704 17.6783C32.3704 17.6783 32.5183 17.4337 32.3704 17.2778C32.3704 17.2778 32.3107 17.2075 32.2123 17.2203C32.1711 17.2259 32.1255 17.2449 32.0816 17.2962C32.0816 17.2962 32.0101 17.4002 32.0931 17.4773C32.0931 17.4773 32.201 17.5434 32.2392 17.4036C32.2392 17.4036 32.2408 17.3936 32.2442 17.4061C32.2463 17.4142 32.2707 17.5208 32.2133 17.6113C32.2133 17.6113 31.9367 18.0299 31.1758 17.5961L30.1723 17.0333C30.1723 17.0333 29.669 16.7752 29.3682 17.1789C29.3682 17.1789 29.1258 17.5139 29.4381 17.7335C29.4381 17.7335 29.6705 17.8725 29.8168 17.6514C29.8168 17.6514 29.9382 17.4336 29.7471 17.3381C29.7471 17.3381 29.5793 17.2594 29.5129 17.4269C29.4464 17.5944 29.6425 17.638 29.6608 17.5191C29.6608 17.5191 29.6657 17.4905 29.6707 17.5174V17.5175Z" fill="#F5CE00" stroke="black" stroke-width="0.266" stroke-miterlimit="2.613"/>
<path d="M25.6928 19.2447V18.6164C25.6928 18.5671 25.6932 18.526 25.7678 18.4656C25.8427 18.4053 25.9224 18.3098 26.037 18.5814C26.037 18.5814 26.2613 18.3451 26.3362 18.3099C26.3362 18.3099 26.4657 18.1993 26.5553 18.3601C26.5553 18.3601 26.675 18.1791 26.7697 18.1338C26.7697 18.1338 26.994 17.988 27.0038 18.4255L27.1784 18.2645C27.1784 18.2645 27.3129 18.154 27.4626 18.3047C27.4626 18.3047 27.7167 18.551 27.7516 18.6214C27.7516 18.6214 27.8077 18.6976 27.812 18.8178C27.812 18.8178 27.8113 18.9531 27.8812 19.0285C27.8812 19.0285 27.9608 19.0988 28.0381 19.1139C28.0381 19.1139 28.22 19.1189 28.2847 19.2898C28.2847 19.2898 28.3147 19.2602 28.4044 20.0792V21.5718L27.3976 22.7731L25.7827 22.3106L25.1397 22.0443L24.9952 21.5719L25.6182 21.1698L25.9572 20.255L25.8476 19.6117L25.6928 19.2447Z" fill="#E4CB5E" stroke="black" stroke-width="0.1995" stroke-miterlimit="2.613"/>
<path d="M30.1426 20.0372L30.219 19.9232L30.4017 19.7824C30.4017 19.7824 30.6809 20.5149 30.6942 20.6748V20.9021C30.6942 20.9021 31.1128 21.0089 31.1859 21.6522L30.8404 22.2889L30.2987 21.9872L30.1427 21.8734V20.0371L30.1426 20.0372Z" fill="#784421" stroke="black" stroke-width="0.1995"/>
<path d="M25.013 25.0664C25.013 25.0664 25.033 25.04 25.0192 25.0287C25.0192 25.0287 25.0106 25.0162 24.987 25.0462C24.987 25.0462 24.877 25.1693 24.9645 25.3586C24.9645 25.3586 24.9745 25.3856 24.992 25.3767C24.992 25.3767 25.007 25.3693 24.9931 25.3468C24.9931 25.3468 24.9148 25.1909 25.0131 25.0665L25.013 25.0664Z" fill="white"/>
<path d="M26.6458 24.9428C26.6458 24.9428 26.6623 24.8859 26.6225 24.8256C26.6225 24.8256 26.596 24.782 26.6058 24.725" fill="black"/>
<path d="M26.6458 24.9428C26.6458 24.9428 26.6623 24.8859 26.6225 24.8256C26.6225 24.8256 26.596 24.782 26.6058 24.725" stroke="black" stroke-width="0.266" stroke-miterlimit="10"/>
<path d="M27.0043 18.4255C27.0043 18.4255 27.0057 18.5826 27.0506 18.6983C27.0954 18.8138 27.2469 19.0137 27.2569 19.1218" fill="black"/>
<path d="M27.0043 18.4255C27.0043 18.4255 27.0057 18.5826 27.0506 18.6983C27.0954 18.8138 27.2469 19.0137 27.2569 19.1218" stroke="black" stroke-width="0.1995" stroke-miterlimit="10"/>
<path d="M30.8021 23.8789C30.8021 23.8789 31.0563 23.8941 31.1858 23.9594C31.3154 24.0247 31.415 24.0951 31.5646 24.1906C31.5646 24.1906 31.6343 24.2836 31.9284 24.227C31.9284 24.227 32.4369 24.1052 32.4369 24.5022C32.4369 24.5022 33.045 24.5524 32.7958 25.0853C32.7958 25.0853 32.6263 25.5024 32.2774 25.2059C32.2774 25.2059 32.5018 25.5276 32.0681 25.6534C32.0681 25.6534 31.7591 25.7287 31.6694 25.4121C31.6694 25.4121 31.6194 25.2864 31.7392 25.1306C31.7392 25.1306 31.5895 25.1004 31.485 24.9396C31.485 24.9396 31.8038 25.3428 31.455 25.4879C31.455 25.4879 31.0165 25.5979 30.9915 25.1406C30.9915 25.1406 31.0273 24.9295 30.8573 24.8541C30.8573 24.8541 30.508 24.7737 30.3485 24.3841C30.3485 24.3841 30.8508 24.1166 30.8021 23.8791V23.8789Z" fill="#D40000" stroke="black" stroke-width="0.266" stroke-linejoin="round"/>
<path d="M26.8036 19.1217L27.2184 22.47M26.8994 19.1143L27.3647 22.2354M26.9867 19.0998L27.5225 22.1952" stroke="black" stroke-width="0.1995" stroke-miterlimit="10"/>
<path d="M27.8342 21.9287L27.9827 21.8785L27.011 18.5231L26.9754 18.5327L27.8342 21.9287Z" fill="#784421" stroke="black" stroke-width="0.1995"/>
<path d="M27.2838 18.9769L28.2651 21.4563M27.2183 19.017L28.1653 21.607" stroke="black" stroke-width="0.1995" stroke-miterlimit="10"/>
<path d="M25.664 25.7118C25.664 25.7118 25.5502 25.6027 25.566 25.4068C25.566 25.4068 25.5727 25.3652 25.5518 25.3593C25.5518 25.3593 25.5295 25.35 25.5263 25.3985C25.5263 25.3985 25.4946 25.603 25.6326 25.7202C25.6326 25.7202 25.6418 25.732 25.6571 25.7285C25.6571 25.7285 25.6734 25.725 25.664 25.7118Z" fill="white"/>
<path d="M27.3281 18.9433L28.3397 21.205M27.0514 19.0838L27.6719 22.1297" stroke="black" stroke-width="0.1995" stroke-miterlimit="10"/>
<path d="M32.1275 21.3408C31.6842 21.0893 31.587 20.5314 31.587 20.5314C31.4798 19.976 31.6967 19.5362 31.6967 19.5362C31.9834 18.9306 32.4744 18.8179 32.4744 18.8179C32.4744 18.8179 31.9934 19.1517 31.8588 19.6016C31.8588 19.6016 31.7542 19.9809 31.814 20.3554C31.8737 20.7298 31.8512 20.6343 31.9435 20.9233L32.1275 21.3408Z" fill="#F5CE00" stroke="black" stroke-width="0.266" stroke-miterlimit="2.613"/>
<path d="M30.2189 19.9233L28.3567 20.5112L28.255 21.3408C27.8132 21.981 26.9152 22.0946 26.9152 22.0946L27.6138 22.8385L28.9563 23.12L29.6607 22.5772L30.2987 21.9874C30.2322 21.6724 30.2687 21.2049 30.2687 21.2049C30.2687 21.1262 30.2987 20.9418 30.2987 20.9418C30.2987 20.9418 30.189 20.1846 30.2189 19.9232V19.9233Z" fill="#784421" stroke="black" stroke-width="0.1215"/>
<path d="M28.2806 21.1325C28.2806 21.1325 29.5071 20.7494 30.2385 20.4419L28.2806 21.1325ZM27.6919 21.8317C27.6919 21.8317 29.2221 21.555 30.2986 20.9419L30.6941 20.6748" fill="black"/>
<path d="M28.2806 21.1325C28.2806 21.1325 29.5071 20.7494 30.2385 20.4419M27.6919 21.8317C27.6919 21.8317 29.2221 21.555 30.2986 20.9419L30.6941 20.6748" stroke="black" stroke-width="0.1995" stroke-miterlimit="10"/>
<path d="M30.6942 20.9022L30.2687 21.205C30.2687 21.205 28.5575 21.9942 27.2546 22.0152M30.2683 21.7658C30.2683 21.7658 28.9529 22.4431 28.1987 22.4532L30.2683 21.7658Z" fill="black"/>
<path d="M30.6942 20.9022L30.2687 21.205C30.2687 21.205 28.5575 21.9942 27.2546 22.0152M30.2683 21.7658C30.2683 21.7658 28.9529 22.4431 28.1987 22.4532" stroke="black" stroke-width="0.1995" stroke-miterlimit="10"/>
<path d="M31.8371 19.87C31.8371 19.87 32.2292 19.6894 32.4152 19.87C32.4152 19.87 32.6744 19.7095 32.9469 19.87C32.9469 19.87 33.2061 20.0394 33.3855 20.2258C33.3855 20.2258 33.5117 20.3342 33.4652 20.6748C33.4652 20.6748 33.3988 20.9151 33.4386 21.0357C33.4386 21.0357 33.5251 21.0187 33.6979 21.2234C33.6979 21.2234 33.9171 21.4774 34.1099 21.2533C34.1099 21.2533 34.0499 21.5652 33.6878 21.5149C33.6878 21.5149 33.8639 21.6524 33.7112 22.0076C33.7112 22.0076 33.5982 22.2589 33.7776 22.5738C33.7776 22.5738 33.4617 22.4466 33.4751 22.0747C33.4751 22.0747 33.5017 21.8233 33.4087 21.6457C33.4087 21.6457 33.5017 21.8072 33.2858 22.1517C33.2858 22.1517 33.1197 22.3996 33.256 22.6575C33.256 22.6575 32.9437 22.5437 32.9735 22.165C33.0035 21.7863 33.1928 21.9438 33.0699 21.5953C33.0699 21.5953 33.0399 21.7737 32.9469 21.8638C32.8538 21.9538 32.7342 22.1047 32.7841 22.356C32.7841 22.356 32.598 22.1248 32.6412 21.8868C32.6843 21.6489 32.7309 21.577 32.7309 21.577L32.1427 21.2435L31.8502 20.7141L31.8369 19.8699L31.8371 19.87Z" fill="#D40000" stroke="black" stroke-width="0.266" stroke-linejoin="round"/>
<path d="M25.1751 21.9892C25.1751 21.9892 25.2298 21.7293 25.4791 21.8317C25.4791 21.8317 25.5638 21.406 26.0174 21.3908C26.4709 21.3758 26.4957 21.8333 26.4957 21.8633C26.4957 21.8633 26.6291 21.6671 26.8516 21.6898C26.8516 21.6898 27.2351 21.6673 27.0922 22.283L27.1647 22.3603C27.1647 22.3603 27.4577 21.6724 28.0608 21.8533C28.0608 21.8533 28.6489 22.0325 28.2652 22.6022C28.2652 22.6022 28.5554 22.9793 28.8015 22.9439C29.0477 22.9089 29.267 22.8335 29.5112 22.4012C29.7553 21.9689 30.3237 21.9037 30.4682 21.9287C30.6127 21.9538 30.7268 22.0477 30.7504 22.1499C30.7504 22.1499 31.0512 21.1458 32.1329 21.3035L32.5664 21.5215L32.7309 21.5968L32.4859 22.2888L31.8884 23.6388L31.4351 23.7783L30.9616 23.5069L30.7971 23.5951L30.7837 23.9994L30.1592 24.449L29.7255 24.6277L29.247 24.9543L29.1357 25.2465C29.1357 25.2465 28.8715 25.1352 28.5732 25.2465L28.4745 25.0048L28.1953 24.7383L27.1112 24.2268L26.9153 23.5952L26.7173 23.5068L26.4957 23.7607L26.1718 23.7984L25.6883 23.4718L25.175 21.9889L25.1751 21.9892Z" fill="white" stroke="#00247D" stroke-width="0.266" stroke-miterlimit="10"/>
<path d="M29.8967 17.0733C29.8967 17.0733 29.4829 17.055 29.4978 17.4839L29.8967 17.0733Z" fill="black"/>
<path d="M29.8967 17.0733C29.8967 17.0733 29.4829 17.055 29.4978 17.4839" stroke="black" stroke-width="0.266" stroke-miterlimit="2.613"/>
<path d="M32.6189 21.6297C31.8986 21.4085 31.7018 20.6345 31.7018 20.6345C31.5548 20.0539 31.7915 19.5463 31.7915 19.5463C32.1205 18.7738 32.6771 18.7738 32.6771 18.7738C32.9563 18.7663 32.9896 19.0052 32.9896 19.0052C33.016 19.1743 32.8973 19.2355 32.8973 19.2355C32.7062 19.3394 32.5858 19.1987 32.5858 19.1987C32.506 19.0948 32.5674 19.0027 32.5674 19.0027C32.6164 18.9339 32.7104 18.9641 32.7104 18.9641C32.7847 18.987 32.7768 19.0799 32.7768 19.0799C32.7772 19.0824 32.7789 19.0824 32.7789 19.0824C32.7822 19.0816 32.7809 19.0804 32.7809 19.0804C32.7809 19.0804 32.7976 18.9665 32.6862 18.9548C32.6862 18.9548 32.4695 18.9078 32.2154 19.2245C32.2154 19.2245 31.8805 19.6518 31.8812 20.2047C31.8812 20.2047 31.8389 21.2426 32.9205 21.5115C32.9205 21.5115 32.8034 21.6798 32.5966 22.2879C32.5966 22.2879 32.3624 23.0696 32.1387 23.4921C32.1387 23.4921 31.8414 24.0948 31.1785 23.8486C31.1785 23.8486 30.7839 23.6753 30.7849 23.3886C30.7849 23.3886 30.7574 23.1273 30.9942 23.1072C30.9942 23.1072 31.226 23.0897 31.2234 23.288C31.2234 23.288 31.2297 23.503 30.9767 23.454C30.9767 23.454 30.8884 23.4352 30.9045 23.3484C30.9045 23.3484 30.9187 23.2705 31.0254 23.3044C31.0254 23.3044 31.0287 23.3048 31.0291 23.3032C31.0291 23.3032 31.0303 23.3013 31.0266 23.3003C31.0266 23.3003 30.9853 23.2817 30.9416 23.2969C30.9416 23.2969 30.9026 23.31 30.8994 23.3711C30.8994 23.3711 30.8969 23.42 30.9494 23.4477C30.9494 23.4477 31.013 23.4703 31.0628 23.4653C31.0628 23.4653 31.1299 23.6006 31.2815 23.6464C31.4927 23.7102 31.6665 23.6487 31.773 23.5638C31.8889 23.4714 31.9637 23.3099 31.9861 23.2704C32.0086 23.2308 32.2029 22.7954 32.3491 22.3271C32.3491 22.3271 32.477 21.9233 32.5791 21.7123L32.6191 21.6294L32.6189 21.6297Z" fill="#F5CE00" stroke="black" stroke-width="0.266" stroke-miterlimit="2.613"/>
<path d="M30.5866 23.5975C30.5866 23.5975 30.7211 23.5792 30.7211 23.6992C30.7211 23.6992 30.7129 23.8745 30.4994 23.8362C30.4994 23.8362 30.2888 23.7901 30.3636 23.5547C30.3636 23.5547 30.4133 23.3888 30.6128 23.4127C30.6128 23.4127 30.8058 23.4215 30.8906 23.6854C30.8906 23.6854 30.9553 23.9079 30.8445 24.0987C30.7207 24.3119 30.4075 24.4519 30.2564 24.5139C30.2564 24.5139 29.6508 24.7518 29.4702 24.8879C29.4702 24.8879 29.1932 25.0936 29.3158 25.285C29.3158 25.285 29.3631 25.3579 29.4341 25.3579C29.4341 25.3579 29.5152 25.3617 29.5288 25.2787C29.5288 25.2787 29.5293 25.2771 29.528 25.275C29.528 25.275 29.5268 25.275 29.5263 25.2771C29.5263 25.2771 29.5205 25.3277 29.4765 25.3466C29.4765 25.3466 29.4175 25.3762 29.3557 25.3239C29.3557 25.3239 29.29 25.2611 29.3448 25.1635C29.3448 25.1635 29.4167 25.0433 29.584 25.1143C29.584 25.1143 29.7315 25.1873 29.6709 25.344C29.6709 25.344 29.6168 25.4882 29.4391 25.4877C29.4391 25.4877 29.3052 25.4832 29.2196 25.3935C29.086 25.2535 29.0788 24.9807 29.1965 24.8396C29.1965 24.8396 29.3078 24.6896 29.5313 24.5983C29.6607 24.5454 29.9051 24.4392 30.1593 24.3395C30.3379 24.2695 30.5016 24.1855 30.6078 24.0597C30.6078 24.0597 30.7026 23.9542 30.73 23.7732C30.73 23.7732 30.7561 23.6375 30.6733 23.6077C30.6733 23.6077 30.6314 23.5889 30.5853 23.5952C30.5853 23.5952 30.5842 23.5953 30.5838 23.5961C30.5838 23.5961 30.5818 23.5981 30.5865 23.5973L30.5866 23.5975Z" fill="#F5CE00" stroke="black" stroke-width="0.266" stroke-miterlimit="2.613"/>
<path d="M30.5978 23.5967C30.5978 23.5967 30.7465 23.5697 30.8395 23.7467C30.8395 23.7467 30.8943 23.8605 30.9032 23.9264M30.9518 23.2944C30.9518 23.2944 30.8028 23.3203 30.8794 23.5309C30.9517 23.7296 31.0859 23.7947 31.1258 23.8223" fill="black"/>
<path d="M30.5978 23.5967C30.5978 23.5967 30.7465 23.5697 30.8395 23.7467C30.8395 23.7467 30.8943 23.8605 30.9032 23.9264M30.9518 23.2944C30.9518 23.2944 30.8028 23.3203 30.8794 23.5309C30.9517 23.7296 31.0859 23.7947 31.1258 23.8223" stroke="black" stroke-width="0.266" stroke-miterlimit="2.613"/>
<path d="M28.0381 17.5173C28.0381 17.5173 28.0455 17.5777 28.1053 17.5844C28.1053 17.5844 28.1679 17.6044 28.2042 17.5269C28.2042 17.5269 28.2083 17.5092 28.2093 17.5006C28.2135 17.4643 28.226 17.3598 28.1129 17.2744C28.1129 17.2744 27.9285 17.1236 27.5762 17.3063C27.5762 17.3063 27.2971 17.4403 27.1044 17.5543C27.1044 17.5543 26.6061 17.8223 26.5462 17.8424C26.5462 17.8424 26.3269 17.953 25.9912 17.9664C25.9912 17.9664 25.5327 17.9999 25.3384 17.6783C25.3384 17.6783 25.1906 17.4336 25.3384 17.2777C25.3384 17.2777 25.3984 17.2074 25.4967 17.2204C25.5379 17.2258 25.5834 17.2448 25.6276 17.2962C25.6276 17.2962 25.699 17.4002 25.6159 17.4771C25.6159 17.4771 25.5079 17.5434 25.4697 17.4035C25.4697 17.4035 25.4681 17.3935 25.4647 17.406C25.4626 17.4141 25.4381 17.5208 25.4956 17.6113C25.4956 17.6113 25.7721 18.0298 26.5331 17.596L27.5365 17.0332C27.5365 17.0332 28.0399 16.7752 28.3406 17.179C28.3406 17.179 28.5831 17.514 28.2708 17.7335C28.2708 17.7335 28.0381 17.8727 27.892 17.6514C27.892 17.6514 27.7706 17.4336 27.9616 17.3381C27.9616 17.3381 28.1296 17.2594 28.1961 17.427C28.2625 17.5945 28.0664 17.6381 28.0482 17.5191C28.0482 17.5191 28.0433 17.4905 28.0383 17.5173L28.0381 17.5173ZM25.5814 21.3408C26.0247 21.0893 26.1217 20.5314 26.1217 20.5314C26.229 19.976 26.0121 19.5362 26.0121 19.5362C25.7255 18.9306 25.2343 18.8179 25.2343 18.8179C25.2343 18.8179 25.7156 19.1517 25.8502 19.6016C25.8502 19.6016 25.9548 19.9809 25.895 20.3554C25.835 20.7298 25.8575 20.6343 25.7653 20.9233L25.5814 21.3408Z" fill="#F5CE00" stroke="black" stroke-width="0.266" stroke-miterlimit="2.613"/>
<path d="M27.8122 17.0733C27.8122 17.0733 28.226 17.055 28.211 17.4839L27.8122 17.0733Z" fill="black"/>
<path d="M27.8122 17.0733C27.8122 17.0733 28.226 17.055 28.211 17.4839" stroke="black" stroke-width="0.266" stroke-miterlimit="2.613"/>
<path d="M25.09 21.6297C25.8103 21.4085 26.0071 20.6345 26.0071 20.6345C26.1541 20.0539 25.9173 19.5463 25.9173 19.5463C25.5884 18.7738 25.0318 18.7738 25.0318 18.7738C24.7527 18.7663 24.7193 19.0052 24.7193 19.0052C24.6929 19.1743 24.8117 19.2355 24.8117 19.2355C25.0027 19.3394 25.1232 19.1987 25.1232 19.1987C25.2029 19.0948 25.1415 19.0027 25.1415 19.0027C25.0923 18.9339 24.9986 18.9641 24.9986 18.9641C24.9243 18.987 24.9322 19.0799 24.9322 19.0799C24.9318 19.0824 24.9301 19.0824 24.9301 19.0824C24.9268 19.0816 24.9281 19.0804 24.9281 19.0804C24.9281 19.0804 24.9114 18.9665 25.0228 18.9548C25.0228 18.9548 25.2396 18.9078 25.4938 19.2245C25.4938 19.2245 25.8285 19.6518 25.8277 20.2047C25.8277 20.2047 25.8702 21.2426 24.7885 21.5115C24.7885 21.5115 24.9057 21.6798 25.1125 22.2879C25.1125 22.2879 25.3467 23.0696 25.5703 23.4921C25.5703 23.4921 25.8677 24.0948 26.5305 23.8486C26.5305 23.8486 26.9253 23.6753 26.9244 23.3886C26.9244 23.3886 26.9517 23.1273 26.715 23.1072C26.715 23.1072 26.4832 23.0897 26.4857 23.288C26.4857 23.288 26.4794 23.503 26.7323 23.454C26.7323 23.454 26.8209 23.4352 26.8047 23.3484C26.8047 23.3484 26.7905 23.2705 26.6838 23.3044C26.6838 23.3044 26.6805 23.3048 26.6801 23.3032C26.6801 23.3032 26.6788 23.3013 26.6826 23.3003C26.6826 23.3003 26.7238 23.2817 26.7674 23.2969C26.7674 23.2969 26.8066 23.31 26.8096 23.3711C26.8096 23.3711 26.8121 23.42 26.7598 23.4477C26.7598 23.4477 26.6962 23.4703 26.6464 23.4653C26.6464 23.4653 26.5793 23.6006 26.4277 23.6464C26.2166 23.7102 26.0427 23.6487 25.9362 23.5638C25.8204 23.4714 25.7455 23.3099 25.7231 23.2704C25.7008 23.2308 25.5064 22.7954 25.3602 22.3271C25.3602 22.3271 25.2322 21.9233 25.1302 21.7123L25.0902 21.6294L25.09 21.6297Z" fill="#F5CE00" stroke="black" stroke-width="0.266" stroke-miterlimit="2.613"/>
<path d="M27.1223 23.5975C27.1223 23.5975 26.9877 23.5792 26.9877 23.6992C26.9877 23.6992 26.9961 23.8745 27.2096 23.8362C27.2096 23.8362 27.4202 23.7901 27.3454 23.5547C27.3454 23.5547 27.2956 23.3888 27.0962 23.4127C27.0962 23.4127 26.9031 23.4215 26.8183 23.6854C26.8183 23.6854 26.7535 23.9079 26.8644 24.0987C26.9882 24.3119 27.3013 24.4519 27.4525 24.5139C27.4525 24.5139 28.0581 24.7518 28.2387 24.8879C28.2387 24.8879 28.5157 25.0936 28.3932 25.285C28.3932 25.285 28.3457 25.3579 28.2747 25.3579C28.2747 25.3579 28.1938 25.3617 28.1801 25.2787C28.1801 25.2787 28.1797 25.2771 28.1809 25.275C28.1809 25.275 28.1822 25.275 28.1826 25.2771C28.1826 25.2771 28.1884 25.3277 28.2324 25.3466C28.2324 25.3466 28.2914 25.3762 28.3533 25.3239C28.3533 25.3239 28.4188 25.2611 28.3641 25.1635C28.3641 25.1635 28.2922 25.0433 28.1248 25.1143C28.1248 25.1143 27.9772 25.1873 28.0381 25.344C28.0381 25.344 28.0919 25.4882 28.2697 25.4877C28.2697 25.4877 28.4036 25.4832 28.4892 25.3935C28.6228 25.2535 28.6301 24.9807 28.5123 24.8396C28.5123 24.8396 28.4009 24.6896 28.1773 24.5983C28.048 24.5454 27.8037 24.4392 27.5494 24.3395C27.3707 24.2695 27.2072 24.1855 27.1008 24.0597C27.1008 24.0597 27.0062 23.9542 26.9787 23.7732C26.9787 23.7732 26.9526 23.6375 27.0353 23.6077C27.0353 23.6077 27.0772 23.5889 27.1233 23.5952C27.1233 23.5952 27.1246 23.5953 27.1249 23.5961C27.1249 23.5961 27.1269 23.5981 27.1223 23.5973L27.1223 23.5975Z" fill="#F5CE00" stroke="black" stroke-width="0.266" stroke-miterlimit="2.613"/>
<path d="M27.111 23.5967C27.111 23.5967 26.9623 23.5697 26.8693 23.7467C26.8693 23.7467 26.8143 23.8605 26.8056 23.9264M26.7572 23.2943C26.7572 23.2943 26.9061 23.3202 26.8294 23.5308C26.7571 23.7294 26.6229 23.7945 26.583 23.8222M28.4943 17.4597C28.4943 17.4597 28.8543 17.2342 29.222 17.4838L28.4943 17.4597Z" fill="black"/>
<path d="M27.111 23.5967C27.111 23.5967 26.9623 23.5697 26.8693 23.7467C26.8693 23.7467 26.8143 23.8605 26.8056 23.9264M26.7572 23.2943C26.7572 23.2943 26.9061 23.3202 26.8294 23.5308C26.7571 23.7294 26.6229 23.7945 26.583 23.8222M28.4943 17.4597C28.4943 17.4597 28.8543 17.2342 29.222 17.4838" stroke="black" stroke-width="0.266" stroke-miterlimit="2.613"/>
<path d="M26.4458 19.6619C26.4458 19.6619 26.4958 19.4609 26.2664 19.109C26.2664 19.109 26.1169 18.7873 26.0371 18.5813M26.5555 18.3602C26.5555 18.3602 26.6853 18.6763 26.7299 18.8179C26.7299 18.8179 26.8909 19.2146 26.9251 19.295" fill="black"/>
<path d="M26.4458 19.6619C26.4458 19.6619 26.4958 19.4609 26.2664 19.109C26.2664 19.109 26.1169 18.7873 26.0371 18.5813M26.5555 18.3602C26.5555 18.3602 26.6853 18.6763 26.7299 18.8179C26.7299 18.8179 26.8909 19.2146 26.9251 19.295" stroke="black" stroke-width="0.1995" stroke-miterlimit="2.613"/>
<path d="M26.6203 19.8831C26.6203 19.8831 26.7557 20.0289 26.7403 20.2751L26.6203 19.8831ZM26.1717 19.7273C26.1717 19.7273 26.3213 19.7993 26.3114 20.1964C26.3114 20.1964 26.2964 20.4863 26.5206 20.632M26.1515 20.7342C26.1515 20.7342 26.6195 20.6831 26.6452 20.9713C26.6452 20.9713 26.6552 21.2477 26.8147 21.2779C26.8147 21.2779 27.0536 21.3004 27.1009 21.5217M26.2988 21.0542C26.2988 21.0542 26.3811 21.1773 26.4608 21.23L26.2988 21.0542ZM26.8994 20.75C26.8994 20.75 27.0183 20.9303 27.0407 21.0358L26.8994 20.75ZM27.4145 18.5813C27.4145 18.5813 27.5242 18.7304 27.6305 18.8008L27.4145 18.5813ZM27.8531 19.4642C27.8531 19.4642 28.0856 19.5782 28.0458 20.1646C28.0458 20.1646 28.0158 20.5084 28.1123 20.6963" fill="black"/>
<path d="M26.6203 19.8831C26.6203 19.8831 26.7557 20.0289 26.7403 20.2751M26.1717 19.7273C26.1717 19.7273 26.3213 19.7993 26.3114 20.1964C26.3114 20.1964 26.2964 20.4863 26.5206 20.632M26.1515 20.7342C26.1515 20.7342 26.6195 20.6831 26.6452 20.9713C26.6452 20.9713 26.6552 21.2477 26.8147 21.2779C26.8147 21.2779 27.0536 21.3004 27.1009 21.5217M26.2988 21.0542C26.2988 21.0542 26.3811 21.1773 26.4608 21.23M26.8994 20.75C26.8994 20.75 27.0183 20.9303 27.0407 21.0358M27.4145 18.5813C27.4145 18.5813 27.5242 18.7304 27.6305 18.8008M27.8531 19.4642C27.8531 19.4642 28.0856 19.5782 28.0458 20.1646C28.0458 20.1646 28.0158 20.5084 28.1123 20.6963" stroke="black" stroke-width="0.1995" stroke-miterlimit="10"/>
<path d="M26.7576 19.0663L26.7724 19.1216C26.7724 19.1216 27.1894 19.1391 27.4146 18.8552L27.3904 18.8007C27.3904 18.8007 27.0266 18.7822 26.7575 19.0662L26.7576 19.0663Z" fill="#784421" stroke="black" stroke-width="0.1995"/>
<path d="M28.2596 21.3036C28.2596 21.3036 29.7018 20.8736 30.2577 20.6229L28.2596 21.3036Z" fill="black"/>
<path d="M28.2596 21.3036C28.2596 21.3036 29.7018 20.8736 30.2577 20.6229" stroke="black" stroke-width="0.1995" stroke-miterlimit="10"/>
<path d="M28.1051 18.6437L28.0883 18.5963L28.8016 18.3249L28.8184 18.3726L28.1051 18.6437Z" fill="#784421" stroke="black" stroke-width="0.1215"/>
<path d="M28.3298 20.7307C28.3298 20.7307 29.4025 20.4173 30.2144 20.0898L28.3298 20.7307ZM28.3153 20.8482C28.3153 20.8482 29.6749 20.4884 30.2143 20.2259L28.3153 20.8482ZM28.7303 21.9539L28.8014 22.1717L28.9961 22.1094L28.9296 21.8936M29.2793 21.7975L29.3506 22.0152L29.5453 21.9529L29.4788 21.7371M28.3566 20.5112L28.3398 20.2166L30.1224 19.6752L30.2188 19.9232" fill="black"/>
<path d="M28.1653 18.6207L28.6388 20.9419M28.2474 18.5895L28.7899 20.9001M28.3398 18.5544L28.9329 20.8482M28.5724 18.4661L29.3809 20.1878M28.6793 18.4255L29.5416 20.1372M28.7585 18.3954L29.6912 20.0899M28.6068 20.9603L28.9728 20.8397M28.3298 20.7307C28.3298 20.7307 29.4025 20.4173 30.2144 20.0898M28.3153 20.8482C28.3153 20.8482 29.6749 20.4884 30.2143 20.2259M28.7303 21.9539L28.8014 22.1717L28.9961 22.1094L28.9296 21.8936M29.2793 21.7975L29.3506 22.0152L29.5453 21.9529L29.4788 21.7371M28.3566 20.5112L28.3398 20.2166L30.1224 19.6752L30.2188 19.9232M29.0958 19.9871L29.1929 20.2472M29.7191 19.7978L29.8324 20.0453M29.8668 19.753L29.9729 19.9872M30.0079 19.71L30.1196 19.9547" stroke="black" stroke-width="0.1995" stroke-miterlimit="10"/>
<path d="M30.1226 19.6753L30.3186 19.5647L30.4017 19.7825" fill="black"/>
<path d="M30.1226 19.6753L30.3186 19.5647L30.4017 19.7825M30.219 19.621L30.3188 19.8464" stroke="black" stroke-width="0.1995" stroke-miterlimit="10"/>
<path d="M25.798 23.0144C25.798 23.0144 25.4491 22.6611 25.798 22.315C25.798 22.315 25.4192 22.1298 25.4791 21.8317M26.4211 23.2943C26.4211 23.2943 26.0597 23.3435 26.1669 22.64C26.1669 22.64 26.0173 22.9189 25.9658 23.0623C25.9271 23.1696 25.9527 23.3428 26.1057 23.4364C26.1667 23.4739 26.4906 23.5582 26.5954 23.3437M26.0173 22.2177C26.0173 22.2177 25.8703 22.3536 25.975 22.6023L26.0173 22.2177ZM26.1692 22.2504C26.1692 22.2504 26.1867 22.4917 26.3064 22.6274L26.1692 22.2504ZM26.2726 22.155C26.2726 22.155 26.2716 22.4389 26.4759 22.6148L26.2726 22.155ZM26.3742 22.0569C26.3742 22.0569 26.3762 22.3761 26.613 22.5722L26.3742 22.0569ZM27.5501 22.5243C27.5501 22.5243 27.6696 22.2629 27.9212 22.2756C27.9212 22.2756 27.7991 22.3308 27.8016 22.4531C27.8016 22.4531 27.7867 22.655 28.0033 22.6751C28.0033 22.6751 28.1779 22.6978 28.265 22.6023" fill="black"/>
<path d="M25.798 23.0144C25.798 23.0144 25.4491 22.6611 25.798 22.315C25.798 22.315 25.4192 22.1298 25.4791 21.8317M26.4211 23.2943C26.4211 23.2943 26.0597 23.3435 26.1669 22.64C26.1669 22.64 26.0173 22.9189 25.9658 23.0623C25.9271 23.1696 25.9527 23.3428 26.1057 23.4364C26.1667 23.4739 26.4906 23.5582 26.5954 23.3437M26.0173 22.2177C26.0173 22.2177 25.8703 22.3536 25.975 22.6023M26.1692 22.2504C26.1692 22.2504 26.1867 22.4917 26.3064 22.6274M26.2726 22.155C26.2726 22.155 26.2716 22.4389 26.4759 22.6148M26.3742 22.0569C26.3742 22.0569 26.3762 22.3761 26.613 22.5722M27.5501 22.5243C27.5501 22.5243 27.6696 22.2629 27.9212 22.2756C27.9212 22.2756 27.7991 22.3308 27.8016 22.4531C27.8016 22.4531 27.7867 22.655 28.0033 22.6751C28.0033 22.6751 28.1779 22.6978 28.265 22.6023" stroke="#00247D" stroke-width="0.266" stroke-miterlimit="10"/>
<path d="M28.1455 23.7181C28.1455 23.7181 27.525 23.4266 27.5897 23.0069C27.5897 23.0069 27.6147 22.7506 27.8653 22.6299M27.7343 22.8963C27.7343 22.8963 27.6795 23.0773 27.8017 23.2029L27.7343 22.8963ZM27.8738 22.7732C27.8738 22.7732 27.7991 22.9717 27.9237 23.12L27.8738 22.7732ZM28.0233 22.6767C28.0233 22.6767 27.9337 22.841 28.0408 22.9892L28.0233 22.6767ZM27.4577 23.7608C27.4577 23.7608 27.7966 24.0548 28.0608 24.0573L27.4577 23.7608ZM27.3505 23.8538C27.3505 23.8538 27.6672 24.1101 27.8653 24.1479L27.3505 23.8538ZM27.2308 23.9263C27.2308 23.9263 27.6225 24.2709 27.8653 24.2961L27.2308 23.9263ZM28.8233 24.6128C28.8233 24.6128 28.4385 24.8202 28.7368 25.0394L28.8233 24.6128ZM28.5792 24.3842C28.5792 24.3842 29.0153 24.1554 29.2046 24.07L28.5792 24.3842ZM28.7362 24.5023C28.7362 24.5023 29.3667 24.1177 29.5535 24.0347L28.7362 24.5023ZM29.06 24.5273C29.06 24.5273 29.5983 24.168 29.8875 24.0122L29.06 24.5273ZM29.4164 24.5148C29.4164 24.5148 29.7878 24.2233 30.1467 24.0123L29.4164 24.5148ZM30.2738 23.6478C30.2738 23.6478 30.0918 23.3813 29.4938 23.6478C29.4938 23.6478 29.7129 23.4487 30.1467 23.2944M30.7504 22.15C30.7504 22.15 30.7994 22.366 30.7471 22.4967L30.7504 22.15Z" fill="black"/>
<path d="M28.1455 23.7181C28.1455 23.7181 27.525 23.4266 27.5897 23.0069C27.5897 23.0069 27.6147 22.7506 27.8653 22.6299M27.7343 22.8963C27.7343 22.8963 27.6795 23.0773 27.8017 23.2029M27.8738 22.7732C27.8738 22.7732 27.7991 22.9717 27.9237 23.12M28.0233 22.6767C28.0233 22.6767 27.9337 22.841 28.0408 22.9892M27.4577 23.7608C27.4577 23.7608 27.7966 24.0548 28.0608 24.0573M27.3505 23.8538C27.3505 23.8538 27.6672 24.1101 27.8653 24.1479M27.2308 23.9263C27.2308 23.9263 27.6225 24.2709 27.8653 24.2961M28.8233 24.6128C28.8233 24.6128 28.4385 24.8202 28.7368 25.0394M28.5792 24.3842C28.5792 24.3842 29.0153 24.1554 29.2046 24.07M28.7362 24.5023C28.7362 24.5023 29.3667 24.1177 29.5535 24.0347M29.06 24.5273C29.06 24.5273 29.5983 24.168 29.8875 24.0122M29.4164 24.5148C29.4164 24.5148 29.7878 24.2233 30.1467 24.0123M30.2738 23.6478C30.2738 23.6478 30.0918 23.3813 29.4938 23.6478C29.4938 23.6478 29.7129 23.4487 30.1467 23.2944M30.7504 22.15C30.7504 22.15 30.7994 22.366 30.7471 22.4967" stroke="#00247D" stroke-width="0.266" stroke-miterlimit="10"/>
<path d="M29.7804 23.1979C29.7804 23.1979 29.905 23.0144 30.2215 22.924C30.2215 22.924 30.3068 23.1376 30.553 23.0898C30.553 23.0898 30.9242 23.0169 30.8122 22.6098C30.8122 22.6098 30.7349 22.3057 30.3108 22.2757M31.5722 21.7658C31.5722 21.7658 32.0033 21.8433 31.9959 22.1952C31.9959 22.1952 32.0307 22.7229 31.4751 22.826M31.9347 21.9825C31.9347 21.9825 32.053 21.7252 32.3172 21.6196L31.9347 21.9825ZM31.9962 21.4689C31.9962 21.4689 32.114 21.6577 32.1946 21.6852L31.9962 21.4689ZM31.9347 21.6197C31.9347 21.6197 32.0457 21.7552 32.083 21.778L31.9347 21.6197ZM31.8987 21.7503C31.8987 21.7503 31.957 21.8367 32.0089 21.8638L31.8987 21.7503ZM29.6807 19.71C29.6807 19.71 29.7646 19.5739 29.9732 19.6317L29.6807 19.71ZM30.8246 20.7307C30.8246 20.7307 30.9567 20.1797 31.4177 20.3832L30.8246 20.7307ZM31.2307 20.3381C31.2307 20.3381 31.2782 20.0839 31.1635 19.9547L31.2307 20.3381ZM30.9167 20.3203C30.9167 20.3203 30.9755 20.4253 30.9252 20.5112L30.9167 20.3203Z" fill="black"/>
<path d="M29.7804 23.1979C29.7804 23.1979 29.905 23.0144 30.2215 22.924C30.2215 22.924 30.3068 23.1376 30.553 23.0898C30.553 23.0898 30.9242 23.0169 30.8122 22.6098C30.8122 22.6098 30.7349 22.3057 30.3108 22.2757M31.5722 21.7658C31.5722 21.7658 32.0033 21.8433 31.9959 22.1952C31.9959 22.1952 32.0307 22.7229 31.4751 22.826M31.9347 21.9825C31.9347 21.9825 32.053 21.7252 32.3172 21.6196M31.9962 21.4689C31.9962 21.4689 32.114 21.6577 32.1946 21.6852M31.9347 21.6197C31.9347 21.6197 32.0457 21.7552 32.083 21.778M31.8987 21.7503C31.8987 21.7503 31.957 21.8367 32.0089 21.8638M29.6807 19.71C29.6807 19.71 29.7646 19.5739 29.9732 19.6317M30.8246 20.7307C30.8246 20.7307 30.9567 20.1797 31.4177 20.3832M31.2307 20.3381C31.2307 20.3381 31.2782 20.0839 31.1635 19.9547M30.9167 20.3203C30.9167 20.3203 30.9755 20.4253 30.9252 20.5112" stroke="#00247D" stroke-width="0.266" stroke-miterlimit="10"/>
<path d="M31.8536 25.9497C31.8536 25.9497 32.372 25.7135 32.2125 25.3114C32.2125 25.3114 32.1633 25.1756 32.0483 25.1857C32.0483 25.1857 31.8485 25.1957 31.8885 25.4621C31.8885 25.4621 31.9485 25.7235 31.8537 25.9496L31.8536 25.9497Z" fill="#64B4D1" stroke="#00247D" stroke-width="0.1995" stroke-miterlimit="2.613"/>
<path d="M32.0416 25.7118C32.0416 25.7118 32.1555 25.6027 32.1396 25.4068C32.1396 25.4068 32.1329 25.3652 32.1538 25.3593C32.1538 25.3593 32.1761 25.3499 32.1794 25.3985C32.1794 25.3985 32.2111 25.6029 32.0731 25.7202C32.0731 25.7202 32.0637 25.7318 32.0484 25.7285C32.0484 25.7285 32.0321 25.725 32.0416 25.7118Z" fill="white"/>
<path d="M32.5914 25.5878C32.5914 25.5878 32.9553 25.3592 32.7584 24.9747C32.7584 24.9747 32.701 24.8641 32.5914 24.8867C32.5914 24.8867 32.3646 24.957 32.5414 25.2713C32.5414 25.2713 32.6313 25.4748 32.5914 25.5879V25.5878Z" fill="#64B4D1" stroke="#00247D" stroke-width="0.1995" stroke-miterlimit="2.613"/>
<path d="M32.6823 25.0663C32.6823 25.0663 32.6623 25.0399 32.6761 25.0286C32.6761 25.0286 32.6848 25.0161 32.7084 25.0461C32.7084 25.0461 32.8186 25.1693 32.7309 25.3585C32.7309 25.3585 32.7209 25.3855 32.7036 25.3768C32.7036 25.3768 32.6886 25.3691 32.7023 25.3465C32.7023 25.3465 32.7808 25.1908 32.6823 25.0663Z" fill="white"/>
<path d="M31.5022 25.8492C31.5022 25.8492 31.0961 25.7463 31.1707 25.3265C31.1707 25.3265 31.2107 25.1432 31.3826 25.1682C31.3826 25.1682 31.5898 25.2211 31.4549 25.4878C31.4549 25.4878 31.3751 25.6783 31.5022 25.8493V25.8492Z" fill="#64B4D1" stroke="#00247D" stroke-width="0.1995" stroke-miterlimit="2.613"/>
<path d="M31.3453 25.3478C31.3453 25.3478 31.3303 25.3278 31.3478 25.3189C31.3478 25.3189 31.3653 25.3114 31.3778 25.3359C31.3778 25.3359 31.4201 25.4032 31.3842 25.4952C31.3842 25.4952 31.3504 25.559 31.3669 25.6257C31.3669 25.6257 31.3691 25.6445 31.3541 25.647C31.3541 25.647 31.3397 25.642 31.3369 25.6282C31.3369 25.6282 31.3166 25.5632 31.3516 25.4996C31.3516 25.4996 31.3938 25.4007 31.3452 25.3479L31.3453 25.3478Z" fill="white"/>
<path d="M31.794 25.055C31.794 25.055 32.0232 24.9261 32.2127 25.0769C32.2127 25.0769 32.1934 24.9931 32.0485 24.9562C32.0485 24.9562 31.9702 24.7351 31.7509 24.7552C31.7509 24.7552 31.8406 24.8623 31.9602 24.9529C31.9602 24.9529 31.8339 24.9659 31.7941 25.0549L31.794 25.055ZM31.9634 24.4492C31.9634 24.4492 32.1193 24.5642 32.1826 24.6412C32.1826 24.6412 32.2459 24.5625 32.329 24.5147C32.329 24.5147 32.2334 24.5022 32.1826 24.5452C32.1826 24.5452 32.103 24.4682 31.9634 24.4492Z" fill="black"/>
<path d="M31.0596 24.9428C31.0596 24.9428 31.0429 24.8859 31.0829 24.8256C31.0829 24.8256 31.1094 24.782 31.0996 24.725M32.7308 21.3642C32.7308 21.3642 32.9735 21.3475 33.0133 21.1597L32.7308 21.3642ZM33.4387 21.0358C33.4387 21.0358 33.3542 21.0325 33.2778 21.1095C33.2778 21.1095 33.2195 21.1966 33.1363 21.1865" fill="black"/>
<path d="M31.0596 24.9428C31.0596 24.9428 31.0429 24.8859 31.0829 24.8256C31.0829 24.8256 31.1094 24.782 31.0996 24.725M32.7308 21.3642C32.7308 21.3642 32.9735 21.3475 33.0133 21.1597M33.4387 21.0358C33.4387 21.0358 33.3542 21.0325 33.2778 21.1095C33.2778 21.1095 33.2195 21.1966 33.1363 21.1865" stroke="black" stroke-width="0.266" stroke-miterlimit="10"/>
<path d="M32.3722 20.6504C32.3722 20.6504 32.4984 20.6504 32.5682 20.5901C32.5682 20.5901 32.6413 20.5399 32.6845 20.6203C32.6845 20.6203 32.751 20.7342 32.6281 20.7845C32.6281 20.7845 32.4752 20.8616 32.7177 21.0157C32.7177 21.0157 32.4286 20.9118 32.545 20.7712C32.545 20.7712 32.6711 20.6807 32.6246 20.6472C32.6246 20.6472 32.6112 20.6203 32.5615 20.6538C32.5115 20.6873 32.4119 20.674 32.3721 20.6505L32.3722 20.6504Z" fill="black"/>
<path d="M32.5438 17.599C32.5438 17.599 32.6008 17.5215 32.5774 17.2886C32.5541 17.0557 32.7563 17.0289 32.8341 17.0958C32.8341 17.0958 32.9144 17.1655 32.8405 17.3132C32.7978 17.3983 32.7296 17.5087 32.5438 17.599Z" fill="#64B4D1" stroke="#00247D" stroke-width="0.1995" stroke-miterlimit="2.613"/>
<path d="M32.6199 17.4252C32.6199 17.4252 32.6957 17.3437 32.6595 17.1668C32.6595 17.1668 32.6592 17.1493 32.6692 17.1482C32.6692 17.1482 32.6876 17.1435 32.6907 17.1609C32.6907 17.1609 32.7316 17.3496 32.6459 17.4521C32.6459 17.4521 32.6303 17.4671 32.6198 17.4521C32.6198 17.4521 32.6084 17.4412 32.6198 17.4252L32.6199 17.4252Z" fill="white"/>
<path d="M32.4791 17.5143C32.4791 17.5143 32.4732 17.4204 32.3109 17.261C32.1487 17.1014 32.2821 16.9543 32.3814 16.9557C32.3814 16.9557 32.4843 16.9573 32.5214 17.114C32.5428 17.2048 32.5608 17.33 32.4791 17.5143Z" fill="#64B4D1" stroke="#00247D" stroke-width="0.1995" stroke-miterlimit="2.613"/>
<path d="M32.4541 17.3102C32.4541 17.3102 32.457 17.1952 32.3101 17.0752C32.3101 17.0752 32.2982 17.0612 32.3051 17.0538C32.3051 17.0538 32.3159 17.0382 32.3301 17.0503C32.3301 17.0503 32.4882 17.177 32.4921 17.3151C32.4921 17.3151 32.4904 17.3376 32.4721 17.3321C32.4721 17.3321 32.456 17.3307 32.4541 17.3104V17.3102Z" fill="white"/>
<path d="M32.2589 17.4437C32.2589 17.4437 32.2164 17.3672 32.0162 17.2962C31.8158 17.2251 31.8699 17.0501 31.9543 17.0126C31.9543 17.0126 32.0418 16.9743 32.1355 17.0915C32.1897 17.1593 32.2547 17.2573 32.259 17.4438L32.2589 17.4437Z" fill="#64B4D1" stroke="#00247D" stroke-width="0.1995" stroke-miterlimit="2.613"/>
<path d="M32.171 17.3032C32.171 17.3032 32.1255 17.1977 31.942 17.1515C31.942 17.1515 31.9253 17.144 31.9284 17.1343C31.9284 17.1343 31.9318 17.1155 31.9497 17.1204C31.9497 17.1204 32.1461 17.1677 32.2075 17.2914C32.2075 17.2914 32.2153 17.3124 32.1967 17.3151C32.1967 17.3153 32.1814 17.3209 32.1711 17.3033L32.171 17.3032Z" fill="white"/>
<path d="M32.3845 17.5203C32.3845 17.5203 32.2912 17.5466 32.0765 17.4431C31.862 17.3396 31.768 17.5198 31.8057 17.6161C31.8057 17.6161 31.8448 17.7158 32.011 17.6983C32.107 17.6882 32.2353 17.6631 32.3845 17.5203Z" fill="#64B4D1" stroke="#00247D" stroke-width="0.1995" stroke-miterlimit="2.613"/>
<path d="M31.8855 17.5887C31.8855 17.5887 31.9828 17.6487 32.1593 17.5804C32.1593 17.5804 32.1773 17.5771 32.1802 17.5867C32.1802 17.5867 32.1882 17.604 32.1707 17.6103C32.1707 17.6103 31.9829 17.6852 31.8622 17.6195C31.8622 17.6195 31.8439 17.6067 31.8577 17.5937C31.8577 17.5937 31.867 17.5802 31.8854 17.5887L31.8855 17.5887Z" fill="white"/>
<path d="M32.0705 16.8422C32.0705 16.8422 32.1777 16.8942 32.1527 17.0197L32.0705 16.8422Z" fill="black"/>
<path d="M32.0705 16.8422C32.0705 16.8422 32.1777 16.8942 32.1527 17.0197" stroke="black" stroke-width="0.266" stroke-miterlimit="2.613"/>
<path d="M32.5441 16.8598C32.5441 16.8598 32.586 16.9925 32.5397 17.064L32.5441 16.8598Z" fill="black"/>
<path d="M32.5441 16.8598C32.5441 16.8598 32.586 16.9925 32.5397 17.064" stroke="black" stroke-width="0.266" stroke-miterlimit="10"/>
<path d="M25.1515 17.599C25.1515 17.599 25.0945 17.5215 25.1178 17.2886C25.1411 17.0557 24.9389 17.0289 24.8611 17.0958C24.8611 17.0958 24.7808 17.1655 24.8547 17.3132C24.8974 17.3983 24.9655 17.5087 25.1515 17.599Z" fill="#64B4D1" stroke="#00247D" stroke-width="0.1995" stroke-miterlimit="2.613"/>
<path d="M25.0753 17.4252C25.0753 17.4252 24.9995 17.3437 25.0357 17.1668C25.0357 17.1668 25.036 17.1493 25.026 17.1482C25.026 17.1482 25.0076 17.1435 25.0045 17.1609C25.0045 17.1609 24.9636 17.3496 25.0493 17.4521C25.0493 17.4521 25.0649 17.4671 25.0754 17.4521C25.0754 17.4521 25.0869 17.4412 25.0754 17.4252L25.0753 17.4252Z" fill="white"/>
<path d="M25.216 17.5143C25.216 17.5143 25.222 17.4204 25.3843 17.261C25.5465 17.1014 25.4131 16.9543 25.3138 16.9557C25.3138 16.9557 25.2108 16.9573 25.1738 17.114C25.1523 17.2048 25.1343 17.33 25.216 17.5143Z" fill="#64B4D1" stroke="#00247D" stroke-width="0.1995" stroke-miterlimit="2.613"/>
<path d="M25.2412 17.3102C25.2412 17.3102 25.2383 17.1952 25.3852 17.0752C25.3852 17.0752 25.3972 17.0612 25.3902 17.0538C25.3902 17.0538 25.3794 17.0382 25.3652 17.0503C25.3652 17.0503 25.2071 17.177 25.2032 17.3151C25.2032 17.3151 25.2049 17.3376 25.2232 17.3321C25.2232 17.3321 25.2392 17.3307 25.2412 17.3104V17.3102Z" fill="white"/>
<path d="M25.4362 17.4437C25.4362 17.4437 25.4787 17.3672 25.679 17.2962C25.8793 17.2251 25.8252 17.0501 25.7408 17.0126C25.7408 17.0126 25.6533 16.9743 25.5597 17.0915C25.5055 17.1593 25.4405 17.2573 25.4362 17.4438L25.4362 17.4437Z" fill="#64B4D1" stroke="#00247D" stroke-width="0.1995" stroke-miterlimit="2.613"/>
<path d="M25.5242 17.3032C25.5242 17.3032 25.5696 17.1977 25.7531 17.1515C25.7531 17.1515 25.7698 17.144 25.7667 17.1343C25.7667 17.1343 25.7634 17.1155 25.7456 17.1204C25.7456 17.1204 25.5491 17.1677 25.4877 17.2914C25.4877 17.2914 25.48 17.3124 25.4987 17.3151C25.4987 17.3153 25.5139 17.3209 25.5242 17.3033L25.5242 17.3032Z" fill="white"/>
<path d="M25.3109 17.5203C25.3109 17.5203 25.4042 17.5466 25.6189 17.4431C25.8334 17.3396 25.9274 17.5198 25.8897 17.6161C25.8897 17.6161 25.8505 17.7158 25.6844 17.6983C25.5885 17.6882 25.46 17.6631 25.3109 17.5203Z" fill="#64B4D1" stroke="#00247D" stroke-width="0.1995" stroke-miterlimit="2.613"/>
<path d="M25.8097 17.5887C25.8097 17.5887 25.7123 17.6487 25.5358 17.5804C25.5358 17.5804 25.5179 17.5771 25.515 17.5867C25.515 17.5867 25.507 17.604 25.5245 17.6103C25.5245 17.6103 25.7123 17.6852 25.8328 17.6195C25.8328 17.6195 25.8512 17.6067 25.8375 17.5937C25.8375 17.5937 25.8283 17.5802 25.8098 17.5887L25.8097 17.5887Z" fill="white"/>
<path d="M25.6248 16.8422C25.6248 16.8422 25.5176 16.8942 25.5425 17.0197L25.6248 16.8422Z" fill="black"/>
<path d="M25.6248 16.8422C25.6248 16.8422 25.5176 16.8942 25.5425 17.0197" stroke="black" stroke-width="0.266" stroke-miterlimit="2.613"/>
<path d="M25.1511 16.8598C25.1511 16.8598 25.1092 16.9925 25.1555 17.064L25.1511 16.8598Z" fill="black"/>
<path d="M25.1511 16.8598C25.1511 16.8598 25.1092 16.9925 25.1555 17.064" stroke="black" stroke-width="0.266" stroke-miterlimit="10"/>
<path d="M29.8027 15.6408C29.8027 15.6408 29.8707 15.8347 29.8413 16.0103C29.8152 16.1674 29.8509 16.208 29.9077 16.2391C29.9568 16.2659 30.0706 16.2188 30.0843 16.0957C30.0843 16.0957 30.2188 16.3582 29.9572 16.5355C29.9572 16.5355 29.769 16.6512 29.6097 16.4966C29.5533 16.4422 29.5286 16.2917 29.556 16.1522C29.556 16.1522 29.5972 15.9631 29.5285 15.7689C29.5285 15.7689 29.6357 15.8833 29.6083 16.1114C29.6083 16.1114 29.5535 16.5204 29.8562 16.5003C29.8562 16.5003 30.0656 16.4978 30.0718 16.244C30.0718 16.244 29.9933 16.3343 29.8962 16.3042C29.8272 16.2829 29.764 16.2162 29.7753 16.1112C29.787 16.0012 29.8177 15.8092 29.8028 15.6407L29.8027 15.6408ZM29.4597 16.3127C29.4597 16.3127 29.443 16.6361 29.1473 16.7148C29.1473 16.7148 29.189 16.6562 29.1223 16.4954C29.1223 16.4954 29.0577 16.4016 29.0627 16.2558C29.0627 16.2558 28.9685 16.3295 29.076 16.5238C29.1407 16.6412 29.0843 16.7819 29.0643 16.7869C29.0443 16.7919 29.5527 16.7198 29.4597 16.3127ZM29.0758 15.9911C29.0758 15.9911 29.0044 15.9107 28.9994 15.7247C28.9944 15.5387 28.9596 15.4935 28.9347 15.4717C28.9347 15.4717 28.9712 15.6325 28.9612 15.7313C28.9512 15.8302 28.9678 15.8872 28.9812 15.9341C28.9812 15.9341 28.82 15.9591 28.7187 15.7245C28.6217 15.5003 28.5242 15.5184 28.4762 15.5201C28.4762 15.5201 28.5322 15.5263 28.6455 15.7312C28.7587 15.9359 28.7901 15.9776 29.0758 15.991V15.9911ZM28.3217 15.5052C28.3217 15.5052 28.4147 15.728 28.418 15.8453C28.418 15.8453 28.202 15.7732 28.1438 15.5856C28.1438 15.5856 27.913 15.6643 27.9977 15.9307C27.9977 15.9307 27.7983 15.8603 27.7085 15.6977C27.7085 15.6977 27.8199 15.7815 27.9229 15.8184C27.9229 15.8184 27.9112 15.6039 28.1804 15.5234C28.1804 15.5234 28.2204 15.7156 28.3548 15.7614C28.3548 15.7614 28.3448 15.6409 28.3217 15.5052ZM28.6772 15.1233C28.6772 15.1233 28.7519 15.2322 28.9047 15.2372C28.9778 15.2397 29.0563 15.223 29.1324 15.1232C29.1324 15.1232 29.1224 15.3124 28.9047 15.3141C28.9047 15.3141 28.6772 15.3225 28.6772 15.1233ZM27.7356 16.4175C27.7356 16.4175 27.8489 16.5205 27.8726 16.5544C27.8726 16.5544 27.9524 16.6323 28.0209 16.5316C28.0209 16.5316 28.1082 16.3704 28.2153 16.3747C28.2153 16.3747 28.1393 16.4275 28.0539 16.5797C28.0539 16.5797 28.0309 16.636 27.9672 16.6422C27.9376 16.6452 27.9001 16.6548 27.8432 16.5955C27.8432 16.5955 27.7941 16.5355 27.7357 16.4174L27.7356 16.4175ZM28.9047 14.3642C28.6772 14.3642 28.8689 14.5402 28.8689 14.5402C28.8739 14.8191 28.6502 14.9049 28.4977 14.8242C28.3452 14.7433 28.4644 14.5402 28.4644 14.5402C28.4644 14.5402 28.2926 14.6532 28.4022 14.8166C28.5118 14.9799 28.7992 14.9069 28.9047 14.7562C29.0102 14.907 29.2977 14.9798 29.4072 14.8165C29.517 14.653 29.345 14.54 29.345 14.54C29.345 14.54 29.4642 14.7431 29.3118 14.824C29.1593 14.9048 28.9355 14.819 28.9405 14.54C28.9405 14.54 29.1323 14.364 28.9047 14.3642H28.9047ZM29.0427 14.0627C29.0427 14.0627 29.1223 14.1985 29.1049 14.4043C29.1049 14.4043 29.1771 14.1983 29.0426 14.0627H29.0427ZM28.345 14.3818C28.345 14.3818 28.3275 14.2335 28.1829 14.221C28.1829 14.221 28.305 14.309 28.3449 14.3818H28.345ZM29.4663 14.3818C29.4663 14.3818 29.4838 14.2335 29.6283 14.221C29.6283 14.221 29.5062 14.309 29.4663 14.3818ZM28.1156 14.608C28.1156 14.608 28.2302 14.6432 28.3 14.5577C28.3 14.5577 28.1679 14.5929 28.1156 14.608ZM27.7443 13.6983C27.7443 13.6983 27.8777 13.6832 28.011 13.8817C28.011 13.8817 27.8788 13.9521 27.8465 13.9948C27.8465 13.9948 27.8465 13.9295 27.9112 13.8717C27.9112 13.8717 27.8862 13.7712 27.7443 13.6983ZM29.9772 13.6983C29.9772 13.6983 29.8438 13.6832 29.7105 13.8817C29.7105 13.8817 29.8427 13.9521 29.875 13.9948C29.875 13.9948 29.875 13.9295 29.8102 13.8717C29.8102 13.8717 29.8351 13.7712 29.9772 13.6983ZM28.948 13.8464C28.948 13.8464 29.0676 13.8792 29.2172 13.7962C29.2172 13.7962 29.4015 13.6982 29.5187 13.7962C29.5187 13.7962 29.4164 13.7508 29.2195 13.8464C29.2195 13.8464 29.0227 13.9543 28.948 13.8464Z" fill="black"/>
<path d="M29.0724 13.9672C29.0724 13.9672 29.1746 13.788 29.4861 13.8236C29.4861 13.8236 29.4014 14.0727 29.0725 13.9672H29.0724Z" fill="white"/>
<path d="M29.2875 13.9897C29.3215 13.9897 29.3491 13.9547 29.3491 13.9116C29.3491 13.8685 29.3215 13.8335 29.2875 13.8335C29.2535 13.8335 29.2259 13.8685 29.2259 13.9116C29.2259 13.9547 29.2535 13.9897 29.2875 13.9897Z" fill="#784421"/>
<path d="M29.2874 13.9595C29.3075 13.9595 29.3239 13.9381 29.3239 13.9116C29.3239 13.8851 29.3075 13.8637 29.2874 13.8637C29.2671 13.8637 29.2508 13.8851 29.2508 13.9116C29.2508 13.9381 29.2671 13.9595 29.2874 13.9595ZM28.4046 13.5852C28.4046 13.5852 28.6014 13.5977 28.7211 13.6732C28.7211 13.6732 28.8482 13.7486 28.9928 13.6404C28.9928 13.6404 29.1499 13.55 29.2508 13.4243C29.2508 13.4243 29.0102 13.5902 28.9204 13.6153C28.9204 13.6153 28.8382 13.5525 28.8059 13.462C28.8059 13.462 28.8184 13.3942 28.9479 13.2687C28.9479 13.2687 28.7735 13.3213 28.7386 13.4695C28.7386 13.4695 28.7711 13.5601 28.8383 13.6305C28.8383 13.6305 28.8058 13.6455 28.7211 13.5928C28.7211 13.5928 28.5367 13.5298 28.4046 13.5852ZM28.9047 14.7675C28.7344 14.9147 28.9047 14.8996 28.9047 14.8996C28.9047 14.8996 29.075 14.9145 28.9047 14.7675ZM28.8062 13.8464C28.8062 13.8464 28.6865 13.8792 28.537 13.7962C28.537 13.7962 28.3525 13.6982 28.2354 13.7962C28.2354 13.7962 28.3376 13.7508 28.5345 13.8464C28.5345 13.8464 28.7314 13.9543 28.8062 13.8464Z" fill="black"/>
<path d="M28.6817 13.9672C28.6817 13.9672 28.5794 13.788 28.2679 13.8236C28.2679 13.8236 28.3527 14.0727 28.6817 13.9672Z" fill="white"/>
<path d="M28.4667 13.9897C28.5007 13.9897 28.5283 13.9547 28.5283 13.9116C28.5283 13.8685 28.5007 13.8335 28.4667 13.8335C28.4327 13.8335 28.4051 13.8685 28.4051 13.9116C28.4051 13.9547 28.4327 13.9897 28.4667 13.9897Z" fill="#784421"/>
<path d="M28.4668 13.9595C28.487 13.9595 28.5033 13.9381 28.5033 13.9116C28.5033 13.8851 28.487 13.8637 28.4668 13.8637C28.4466 13.8637 28.4302 13.8851 28.4302 13.9116C28.4302 13.9381 28.4466 13.9595 28.4668 13.9595Z" fill="black"/>
<path d="M34.922 12.355V23.6478C34.922 26.6642 28.892 27.6442 28.892 27.6442C28.892 27.6442 22.862 26.6642 22.862 23.6478V12.355H34.922Z" fill="black" stroke="black" stroke-width="0.64"/>
</g>
</g>
</g>
<defs>
<clipPath id="clip0_16699_262416">
<rect width="40" height="40" fill="white"/>
</clipPath>
</defs>
</svg>
