<svg width="40" height="40" viewBox="0 0 40 40" fill="none" xmlns="http://www.w3.org/2000/svg">
<g clip-path="url(#clip0_16699_262546)">
<mask id="mask0_16699_262546" style="mask-type:luminance" maskUnits="userSpaceOnUse" x="0" y="0" width="40" height="40">
<path d="M40 0H0V40H40V0Z" fill="white"/>
</mask>
<g mask="url(#mask0_16699_262546)">
<mask id="mask1_16699_262546" style="mask-type:luminance" maskUnits="userSpaceOnUse" x="0" y="0" width="40" height="40">
<path d="M40 20C40 8.95433 31.0457 0 20 0C8.95433 0 0 8.95433 0 20C0 31.0457 8.95433 40 20 40C31.0457 40 40 31.0457 40 20Z" fill="white"/>
</mask>
<g mask="url(#mask1_16699_262546)">
<path d="M50 0H-10V40H50V0Z" fill="#F7E017"/>
<path d="M-10 2.77767V20.5554L50 28.8888V19.4443L-10 2.77767Z" fill="white"/>
<path d="M-10 12.2223V20.5557L50 37.2223V28.8889L-10 12.2223Z" fill="black"/>
<path d="M18.6542 31.6507C17.5785 31.5079 16.5924 31.1657 15.9074 30.6968C15.7747 30.6057 15.6497 30.5312 15.6303 30.5312C15.6103 30.5312 15.5942 30.6323 15.5942 30.7573C15.5942 31.1112 15.4519 31.2895 15.0942 31.3823C14.7519 31.4712 14.2297 31.2918 13.8063 30.9407C13.368 30.5768 12.8619 30.299 12.4335 30.1879C12.0808 30.0957 11.6124 30.1107 11.2742 30.224C11.1169 30.2768 10.938 30.3512 10.8758 30.3895C10.8142 30.4279 10.7447 30.459 10.7224 30.459C10.6624 30.459 10.6708 30.0784 10.7335 29.9568C10.8163 29.7973 11.0202 29.6401 11.258 29.5534C11.378 29.5095 11.4763 29.4534 11.4763 29.4284C11.4763 29.4034 11.4358 29.3118 11.3863 29.2257C11.2253 28.9434 11.2913 28.6701 11.5724 28.4551C11.8603 28.2351 12.3474 28.1973 12.778 28.3612C12.8863 28.4023 12.9874 28.4362 13.0024 28.4362C13.0592 28.4362 13.0247 28.3568 12.8685 28.1295C12.6885 27.8662 12.653 27.7362 12.6752 27.4229C12.7042 27.0262 13.0274 26.7018 13.4235 26.6729C13.7469 26.6495 13.948 26.7584 14.4252 27.2129C15.8502 28.5718 17.3997 29.3207 19.2069 29.5234C19.663 29.5745 20.5807 29.5473 21.1192 29.4662C22.7452 29.2212 24.3835 28.4034 25.663 27.1984C26.0174 26.8645 26.188 26.7762 26.4785 26.7751C26.7313 26.774 26.9085 26.8557 27.0897 27.0557C27.2547 27.239 27.3107 27.4129 27.293 27.6912C27.2813 27.8695 27.2524 27.9573 27.1463 28.1301C26.9897 28.3851 27.0163 28.4084 27.3263 28.2884C27.7452 28.1251 28.2613 28.2007 28.5397 28.4651C28.7847 28.6979 28.808 28.9307 28.6174 29.2462C28.548 29.3618 28.4913 29.4701 28.4913 29.4873C28.4913 29.519 28.5442 29.534 28.7985 29.5751C29.1313 29.6284 29.3219 29.8757 29.3219 30.2534C29.3219 30.3668 29.308 30.459 29.2908 30.459C29.2742 30.459 29.148 30.4129 29.0107 30.3562C28.623 30.1962 28.4024 30.1551 27.9492 30.1579C27.6042 30.1601 27.4852 30.1762 27.2447 30.2545C26.8763 30.3751 26.4824 30.6073 26.1613 30.8934C25.8074 31.209 25.5847 31.3084 25.2402 31.3057C24.9202 31.3023 24.7013 31.2095 24.5858 31.0268C24.5242 30.929 24.5152 30.8695 24.5302 30.6484C24.5402 30.5045 24.538 30.3868 24.5263 30.3868C24.5142 30.3868 24.3897 30.4657 24.2492 30.5629C23.8802 30.8162 23.6452 30.9418 23.223 31.109C21.9352 31.6184 20.0769 31.839 18.6542 31.6507Z" fill="#CF1126"/>
<path d="M19.2428 29.1758C17.0994 28.9702 15.0487 27.8538 13.8017 26.0838C12.4478 24.2374 12.0212 21.7995 12.4344 19.5705C12.6541 18.5557 13.0972 17.5402 13.8535 16.8175C13.2508 18.0954 13.0471 19.5602 13.3686 20.9447C13.8679 23.7087 16.2039 26.0487 18.9986 26.4533C20.1041 26.7734 21.2478 26.4354 22.3039 26.0927C24.6336 25.2715 26.4083 23.0602 26.6248 20.5882C26.8102 19.2505 26.6048 17.8597 26.0022 16.6484C26.3457 16.8302 26.7793 17.5422 27.0349 18.021C27.924 19.7434 27.9646 21.8074 27.4412 23.6455C26.7312 25.9842 24.9431 28.0333 22.5795 28.7778C21.5068 29.1283 20.3659 29.2349 19.2428 29.1758Z" fill="#CF1126"/>
<path d="M8.44633 26.1055C8.30591 26.0835 8.15103 26.2218 8.204 26.3665C8.30527 26.5128 8.47975 26.5843 8.63725 26.6542C9.0145 26.8055 9.42492 26.8644 9.83008 26.8545C9.69042 26.8542 9.878 26.856 9.93017 26.8545C10.2509 26.8555 10.5699 26.7976 10.8715 26.6889C11.0391 26.63 11.2528 26.5765 11.3215 26.391C11.3886 26.2702 11.2671 26.1496 11.1445 26.1737C10.9739 26.211 10.8143 26.2884 10.6451 26.3325C10.28 26.4355 9.89542 26.4753 9.51717 26.4443C9.2405 26.4105 8.9725 26.322 8.71658 26.2141C8.62783 26.1749 8.54467 26.1178 8.44633 26.1055Z" fill="#CF1126"/>
<path d="M8.60319 25.5288C8.46119 25.5078 8.33886 25.6712 8.39811 25.8016C8.50727 25.9597 8.69077 26.0441 8.86236 26.1182C9.16069 26.2375 9.48477 26.2875 9.80536 26.2778C9.68361 26.2776 9.84719 26.2793 9.89236 26.2778C10.1649 26.2782 10.4361 26.2243 10.6882 26.1206C10.8422 26.0607 11.0309 26.0026 11.095 25.833C11.1449 25.7398 11.1069 25.6043 10.9895 25.597C10.8824 25.5917 10.7899 25.6598 10.6907 25.6905C10.3304 25.8395 9.93394 25.9026 9.54552 25.8691C9.30352 25.8378 9.07227 25.7486 8.85277 25.6451C8.77027 25.6053 8.69602 25.5432 8.60319 25.5288Z" fill="#CF1126"/>
<path d="M8.79366 24.976C8.67191 24.9614 8.58824 25.0987 8.60874 25.2083C8.62691 25.3046 8.71333 25.3693 8.78474 25.4283C9.08083 25.6448 9.45608 25.7371 9.81958 25.725C9.67833 25.7245 10.009 25.7273 9.90816 25.7246C10.1383 25.7236 10.3657 25.6673 10.573 25.5676C10.7112 25.5075 10.8736 25.4379 10.9202 25.28C10.9425 25.2065 10.9563 25.1007 10.8735 25.0595C10.7866 25.0109 10.7002 25.0856 10.6212 25.1159C10.3552 25.2513 10.0587 25.3266 9.75974 25.3252C9.50141 25.334 9.25791 25.2253 9.03374 25.1083C8.95241 25.0668 8.88533 24.9947 8.79366 24.976Z" fill="#CF1126"/>
<path d="M6.75207 16.8164C6.5711 16.9975 6.70929 17.3315 6.6995 17.5688C6.79326 18.2998 6.90977 19.0401 7.18267 19.7282C7.51682 20.4006 8.22661 20.7601 8.65675 21.3542C8.8105 21.6406 8.75591 21.9851 8.78825 22.2983C8.81375 23.152 8.80583 24.0063 8.79091 24.8601C9.17641 25.0535 9.595 25.2482 10.0384 25.1738C10.3013 25.111 10.7891 25.072 10.8438 24.8103C10.8225 23.338 10.8088 21.8653 10.7892 20.3933C10.6397 19.9422 10.1808 19.7088 9.83758 19.4203C9.55425 19.141 9.29067 18.8405 9.04933 18.5259C8.90367 18.2805 8.33442 18.192 8.54042 18.619C8.66117 18.9887 8.96933 19.264 9.04641 19.6525C9.06333 19.8653 9.31742 20.2568 9.1005 20.381C8.9625 20.1465 8.76258 19.9468 8.50708 19.8278C8.26082 19.6442 7.85379 19.5678 7.7649 19.2435C7.69965 18.7835 7.46406 18.3668 7.16006 18.0221C7.23841 17.6089 7.16035 17.0923 6.80321 16.8282L6.75207 16.8164Z" fill="#CF1126"/>
<path d="M7.30205 16.8994C7.13745 16.926 7.14305 17.1357 7.21922 17.246C7.30024 17.4842 7.3223 17.743 7.27844 17.991C7.57107 18.3335 7.7977 18.7433 7.86599 19.1932C7.86765 19.3623 8.04559 19.4183 8.16094 19.5018C8.43158 19.6741 8.73583 19.7991 8.97683 20.0147C9.0275 20.0689 9.06583 20.1273 9.03 20.0167C8.99233 19.8752 8.973 19.719 8.86217 19.612C8.71025 19.4487 8.5205 19.3029 8.29921 19.2531C8.28076 19.0245 8.17192 18.8146 8.07134 18.6124C7.95986 18.4191 7.84341 18.2121 7.65241 18.0867C7.66009 17.748 7.65455 17.3926 7.50876 17.08C7.466 16.9997 7.40297 16.9042 7.30205 16.8994Z" fill="#CF1126"/>
<path d="M7.76352 17.0342C7.64884 17.0682 7.67077 17.2097 7.70709 17.2962C7.76202 17.536 7.77062 17.7836 7.76614 18.0287C7.97676 18.1954 8.10851 18.437 8.22846 18.6724C8.30365 18.8296 8.37494 18.9919 8.40377 19.1649C8.57461 19.2215 8.72419 19.3285 8.85769 19.4469C8.80477 19.2867 8.68677 19.1629 8.60752 19.0167C8.52127 18.8646 8.43894 18.7061 8.40244 18.5337C8.23812 18.3584 8.14761 18.1099 8.18352 17.8697C8.19089 17.6045 8.10523 17.3302 7.92764 17.1302C7.88292 17.0862 7.82953 17.0376 7.76352 17.0342Z" fill="#CF1126"/>
<path d="M8.28786 17.1095C8.2255 17.1206 8.18756 17.1799 8.15417 17.2283C8.14127 17.2768 8.20071 17.3289 8.21017 17.3816C8.2831 17.5645 8.31063 17.7651 8.28885 17.9608C8.28405 18.0998 8.33375 18.2356 8.40458 18.3533C8.42508 18.2665 8.5055 18.2041 8.59275 18.1955C8.6245 18.1899 8.67117 18.206 8.65267 18.1576C8.6305 17.8918 8.59 17.6244 8.49708 17.3732C8.461 17.2835 8.42017 17.189 8.34242 17.1276C8.32665 17.1164 8.3078 17.1068 8.28786 17.1095Z" fill="#CF1126"/>
<path d="M31.5556 26.1052C31.696 26.0832 31.8509 26.2215 31.798 26.3662C31.6966 26.5125 31.5221 26.584 31.3646 26.6538C30.9874 26.8052 30.577 26.8641 30.1719 26.8542C30.3115 26.8538 30.124 26.8557 30.0717 26.8542C29.751 26.8552 29.432 26.7973 29.1305 26.6887C28.9627 26.6297 28.7491 26.5762 28.6804 26.3907C28.6134 26.2698 28.7349 26.1492 28.8574 26.1733C29.0281 26.2107 29.1876 26.2881 29.3569 26.3322C29.722 26.4352 30.1065 26.475 30.4847 26.444C30.7614 26.4102 31.0295 26.3217 31.2854 26.2138C31.3741 26.1746 31.4572 26.1175 31.5556 26.1052Z" fill="#CF1126"/>
<path d="M31.3989 25.5286C31.5409 25.5074 31.6632 25.6708 31.604 25.8012C31.4948 25.9594 31.3113 26.0437 31.1397 26.1178C30.8414 26.2372 30.5173 26.2872 30.1967 26.2776C30.3184 26.2772 30.1549 26.2791 30.1097 26.2776C29.8371 26.2778 29.5659 26.2239 29.3139 26.1202C29.1598 26.0603 28.9712 26.0022 28.907 25.8327C28.8572 25.7394 28.8952 25.6039 29.0125 25.5967C29.1197 25.5913 29.2121 25.6596 29.3113 25.6902C29.6716 25.8392 30.0681 25.9022 30.4566 25.8687C30.6986 25.8376 30.9298 25.7483 31.1493 25.6447C31.2318 25.6049 31.3061 25.5428 31.3989 25.5286Z" fill="#CF1126"/>
<path d="M31.2084 24.976C31.3301 24.9614 31.4138 25.0987 31.3933 25.2083C31.3751 25.3046 31.2888 25.3693 31.2173 25.4283C30.9213 25.6449 30.546 25.7371 30.1825 25.725C30.3238 25.7245 29.9931 25.7273 30.0939 25.7246C29.8636 25.7237 29.6363 25.6673 29.4291 25.5677C29.2908 25.5075 29.1285 25.4379 29.0819 25.28C29.0596 25.2065 29.0456 25.1008 29.1286 25.0595C29.2155 25.0109 29.3018 25.0856 29.3808 25.1159C29.6468 25.2513 29.9433 25.3266 30.2423 25.3253C30.5006 25.334 30.7441 25.2253 30.9683 25.1083C31.0496 25.0668 31.1168 24.9947 31.2084 24.976Z" fill="#CF1126"/>
<path d="M33.2499 16.8164C33.4309 16.9976 33.2926 17.3315 33.3025 17.5688C33.2086 18.2998 33.0921 19.0401 32.8193 19.7282C32.4851 20.4006 31.7753 20.7601 31.3451 21.3542C31.1915 21.6406 31.2461 21.9851 31.2136 22.2984C31.1881 23.152 31.1961 24.0063 31.2111 24.8601C30.8256 25.0535 30.4069 25.2482 29.9635 25.1738C29.7006 25.111 29.2128 25.072 29.1581 24.8103C29.1794 23.338 29.1931 21.8653 29.2128 20.3933C29.3621 19.9422 29.8211 19.7088 30.1644 19.4203C30.4476 19.1411 30.7113 18.8405 30.9526 18.5259C31.0983 18.2805 31.6675 18.192 31.4616 18.619C31.3408 18.9887 31.0326 19.264 30.9555 19.6525C30.9386 19.8653 30.6845 20.2568 30.9014 20.381C31.0394 20.1465 31.2393 19.9468 31.4949 19.8278C31.7411 19.6442 32.1481 19.5678 32.2371 19.2435C32.3023 18.7836 32.5379 18.3668 32.8419 18.0221C32.7635 17.6089 32.8416 17.0923 33.1986 16.8282L33.2499 16.8164Z" fill="#CF1126"/>
<path d="M32.7 16.8994C32.8646 16.926 32.859 17.1357 32.7827 17.246C32.7017 17.4843 32.6797 17.743 32.7236 17.991C32.431 18.3336 32.2044 18.7434 32.1361 19.1932C32.1344 19.3623 31.9565 19.4183 31.8411 19.5018C31.5705 19.6741 31.2662 19.7991 31.0252 20.0147C30.9745 20.069 30.9362 20.1273 30.9721 20.0167C31.0097 19.8752 31.029 19.719 31.1399 19.612C31.2917 19.4487 31.4816 19.3029 31.7027 19.2531C31.7212 19.0246 31.8301 18.8146 31.9307 18.6124C32.0422 18.4192 32.1586 18.2121 32.3496 18.0867C32.342 17.748 32.3475 17.3926 32.4932 17.08C32.536 16.9997 32.5991 16.9042 32.7 16.8994Z" fill="#CF1126"/>
<path d="M32.2384 17.0342C32.3531 17.0682 32.3312 17.2097 32.2948 17.2962C32.2399 17.536 32.2313 17.7837 32.2358 18.0287C32.0252 18.1954 31.8934 18.437 31.7735 18.6724C31.6983 18.8296 31.627 18.9919 31.5982 19.1649C31.4273 19.2215 31.2778 19.3285 31.1442 19.447C31.1971 19.2867 31.3151 19.1629 31.3944 19.0167C31.4806 18.8647 31.563 18.7061 31.5995 18.5337C31.7638 18.3584 31.8543 18.1099 31.8184 17.8697C31.811 17.6045 31.8967 17.3302 32.0743 17.1302C32.119 17.0862 32.1724 17.0376 32.2384 17.0342Z" fill="#CF1126"/>
<path d="M31.7141 17.1092C31.7764 17.1203 31.8143 17.1796 31.8477 17.228C31.8607 17.2765 31.8012 17.3286 31.7917 17.3813C31.7188 17.5642 31.6912 17.7648 31.7131 17.9605C31.7178 18.0995 31.6682 18.2353 31.5972 18.353C31.5768 18.2662 31.4963 18.2038 31.4092 18.1952C31.3774 18.1896 31.3307 18.2057 31.3492 18.1573C31.3714 17.8914 31.4119 17.6241 31.5048 17.3729C31.5408 17.2832 31.5817 17.1887 31.6594 17.1273C31.6752 17.1161 31.6942 17.1065 31.7141 17.1092Z" fill="#CF1126"/>
<path d="M19.7606 26.4427C19.0109 26.3713 18.3346 25.825 18.1033 25.1095C18.1158 24.9862 18.2693 25.1783 18.3418 25.1913C18.4779 25.267 18.6252 25.3292 18.7818 25.3387C18.9794 25.4237 19.1017 25.6185 19.2902 25.7201C19.3778 25.7882 19.6877 25.9223 19.6302 25.7053C19.5576 25.5921 19.5077 25.4485 19.5702 25.3187C19.6752 25.0881 19.8369 24.8872 19.9997 24.695C20.1192 24.655 20.1992 24.8908 20.2848 24.9703C20.4032 25.1525 20.5459 25.3747 20.4763 25.601C20.4086 25.6848 20.3641 25.937 20.5452 25.8522C20.7687 25.754 20.9517 25.5887 21.1371 25.4346C21.2992 25.3213 21.5067 25.3133 21.6766 25.2141C21.7553 25.1941 21.9193 25.0366 21.9536 25.1238C21.8604 25.3732 21.7046 25.5965 21.5379 25.8023C21.2679 26.1107 20.9028 26.3426 20.4942 26.408C20.2528 26.4522 20.0051 26.4615 19.7606 26.4427Z" fill="#CF1126"/>
<path d="M20.6407 25.5673C20.6573 25.4169 20.623 25.2632 20.5461 25.1265C20.4282 24.8862 20.2616 24.6728 20.0992 24.462C19.946 24.3723 19.861 24.6653 19.7591 24.7493C19.6004 24.9869 19.4012 25.2303 19.3915 25.5291C19.3022 25.668 19.1357 25.4157 19.0639 25.3326C18.9269 25.1387 18.8231 24.9093 18.8401 24.6668C18.8238 24.2758 18.8988 23.8866 19.0412 23.5233C19.1487 23.2132 19.3232 22.9119 19.3055 22.573C19.3179 22.318 19.2662 22.0365 19.0596 21.865C18.863 21.7108 19.1869 21.6779 19.2897 21.7579C19.4658 21.7698 19.561 22.0605 19.7218 21.9885C19.7859 21.8366 19.7986 21.6554 19.9307 21.5369C20.0603 21.3593 20.1958 21.6122 20.2402 21.7307C20.3317 21.8347 20.235 22.0921 20.3836 22.0989C20.5617 21.974 20.6887 21.7643 20.9165 21.7186C21.0088 21.6659 21.1667 21.7116 21.0449 21.8178C20.8763 21.9758 20.7323 22.1734 20.7016 22.4084C20.6501 22.7033 20.7238 23.0023 20.8523 23.2678C21.0994 23.7895 21.2904 24.3787 21.1654 24.9592C21.1075 25.2172 20.9322 25.4395 20.7193 25.5892C20.6923 25.6055 20.6498 25.6043 20.6407 25.5673Z" fill="#CF1126"/>
<path d="M20.3748 21.6455C20.2938 21.4998 20.1957 21.356 20.0597 21.2569C19.9273 21.2566 19.8457 21.4235 19.7558 21.5109C19.6928 21.6281 19.6163 21.8243 19.4612 21.6709C19.2143 21.5268 19.1706 21.2113 19.1722 20.951C19.1566 20.5293 19.3263 20.1358 19.4773 19.7518C19.5733 19.5113 19.5496 19.2408 19.4911 18.9943C19.4173 18.7114 19.1903 18.5153 19.0155 18.2945C19.0273 18.2093 19.2508 18.2558 19.3348 18.2721C19.5215 18.3194 19.633 18.4846 19.7721 18.6013C19.8711 18.5713 19.8307 18.3713 19.8768 18.2773C19.8802 18.1449 20.0563 17.9704 20.129 18.1599C20.2378 18.2803 20.1255 18.519 20.2662 18.594C20.4001 18.5444 20.4662 18.398 20.5921 18.3318C20.716 18.2473 20.8908 18.2379 21.0242 18.3043C21.0711 18.4271 20.8775 18.5295 20.8213 18.6363C20.5963 18.9144 20.5172 19.2979 20.6137 19.6425C20.6901 19.9128 20.8255 20.165 20.8723 20.4444C20.9285 20.7584 20.9266 21.0883 20.8453 21.3978C20.7968 21.5855 20.6341 21.711 20.4662 21.789C20.4247 21.7505 20.4028 21.6938 20.3748 21.6455Z" fill="#CF1126"/>
<path d="M19.5343 18.1598C19.3476 18.0232 19.2859 17.8927 19.2859 17.6343C19.2859 17.5022 19.3104 17.4305 19.3976 17.3105C19.5259 17.1327 19.5026 17.0766 19.3209 17.1287C19.0286 17.2127 18.8892 17.136 18.8792 16.8872C18.8747 16.7655 18.9004 16.7137 19.0643 16.5172C19.1954 16.3593 19.2431 16.2766 19.217 16.2505C19.1915 16.2248 19.0365 16.3593 18.7181 16.6832C18.4643 16.9416 18.1786 17.2055 18.0836 17.2698C17.537 17.6387 17.0148 17.696 16.7765 17.4122C16.6543 17.2672 16.6609 17.1855 16.802 17.0977C16.867 17.0577 16.9765 16.9655 17.0459 16.8927C17.2098 16.7222 17.6981 16.3698 17.9404 16.2477C18.137 16.1482 18.1836 16.081 18.0559 16.081C17.8904 16.081 17.3592 16.4266 16.9565 16.7966C16.8381 16.906 16.6676 17.0277 16.5781 17.0672C16.377 17.156 15.982 17.1887 15.8065 17.131C15.6826 17.0898 15.4565 16.8766 15.4565 16.8005C15.4565 16.7805 15.5081 16.736 15.5709 16.7022C15.6336 16.6687 15.7465 16.5872 15.8209 16.5222C16.1431 16.2393 16.7536 15.9482 17.2381 15.8466C17.392 15.8143 17.3354 15.7366 17.1636 15.7443C16.8309 15.7587 16.1704 16.0682 15.7759 16.3937C15.3136 16.7748 14.6165 16.7387 14.392 16.3222C14.3531 16.2505 14.3304 16.1832 14.3415 16.1727C14.352 16.1622 14.4893 16.121 14.6465 16.081C14.8165 16.0382 15.1531 15.8987 15.4748 15.7382C15.9809 15.486 16.1309 15.4322 16.4793 15.376C16.6359 15.351 16.6443 15.2743 16.492 15.2566C16.2959 15.2332 15.9954 15.3316 15.4643 15.5927C14.782 15.9282 14.5909 15.986 14.2315 15.9648C13.9036 15.9448 13.7186 15.861 13.4526 15.6093C13.2786 15.4443 13.032 15.0255 13.0804 14.9772C13.092 14.9655 13.172 14.9772 13.2581 15.0022C13.3536 15.0305 13.6276 15.0493 13.9576 15.0498C14.4193 15.051 14.542 15.0387 14.7881 14.9677C15.1998 14.8487 15.747 14.5705 16.1215 14.291C16.8376 13.7555 17.4215 13.5405 18.1659 13.5372C18.8531 13.5343 19.2904 13.6932 19.6776 14.086C19.8086 14.2187 19.9204 14.3048 19.9386 14.2866C19.9559 14.2693 19.9748 14.0372 19.9804 13.7705C19.9804 13.7705 20.1826 13.751 20.2254 13.8077C20.2254 14.2405 20.2304 14.2743 20.2931 14.2743C20.3343 14.2743 20.3781 14.2322 20.4054 14.1666C20.4643 14.0248 20.682 13.831 20.9148 13.7132C21.4176 13.4582 22.2876 13.4505 22.9865 13.6943C23.2809 13.7977 23.6076 13.9822 23.9186 14.2222C24.2309 14.4622 24.8693 14.7832 25.2465 14.8905C25.6281 14.9987 26.3009 15.026 26.6459 14.9477C26.7881 14.9155 26.9215 14.8887 26.9426 14.8887C27.0698 14.8887 26.8531 15.3127 26.5986 15.561C26.1336 16.0155 25.5286 16.0132 24.6776 15.5543C24.147 15.2687 23.5126 15.1127 23.5126 15.2682C23.5126 15.3005 23.5459 15.3222 23.5954 15.3222C23.7798 15.3222 24.1359 15.446 24.6326 15.6816C25.1698 15.9372 25.4715 16.0448 25.6504 16.0448C25.7804 16.0448 25.7843 16.1255 25.6631 16.3032C25.5348 16.4927 25.317 16.5866 25.0093 16.586C24.7154 16.5848 24.552 16.5205 24.2893 16.3022C23.8498 15.9366 22.7548 15.5287 22.797 15.7466C22.8054 15.7898 22.8581 15.8166 22.9709 15.8337C23.352 15.8922 23.7993 16.1055 24.257 16.4482C24.3981 16.5543 24.5448 16.6587 24.582 16.681C24.6448 16.7177 24.6459 16.7287 24.5965 16.8216C24.5143 16.9748 24.307 17.0937 24.0826 17.1172C23.792 17.1472 23.5393 17.0605 23.2776 16.8416C22.7254 16.3793 22.2048 16.0448 22.0381 16.0448C21.902 16.0448 21.9631 16.1198 22.2031 16.2472C22.5186 16.4143 22.8431 16.6405 23.082 16.8598C23.1948 16.9643 23.322 17.0677 23.3643 17.0905C23.4643 17.1437 23.4604 17.2222 23.3504 17.366C23.2381 17.5127 23.0526 17.5772 22.812 17.5516C22.332 17.501 21.9576 17.2693 21.3693 16.6587C21.1393 16.4205 20.9343 16.2255 20.9131 16.2255C20.8348 16.2255 20.8809 16.3316 21.0326 16.5016C21.2204 16.7116 21.2565 16.8298 21.1854 17.0005C21.1226 17.1516 21.0181 17.1866 20.8036 17.1287C20.5843 17.0693 20.5498 17.1232 20.6936 17.3022C20.9081 17.5693 20.8765 17.8966 20.6136 18.1216C20.532 18.191 20.4465 18.2482 20.4231 18.2482C20.4004 18.2482 20.3426 18.1887 20.2943 18.116C20.1254 17.8593 19.977 17.861 19.8126 18.1205C19.7554 18.211 19.7054 18.2837 19.7054 18.2837C19.7031 18.2832 19.6259 18.2277 19.5343 18.1598Z" fill="#CF1126"/>
<path d="M20.3727 12.9457L20.0877 13.1712L19.832 12.9784V14.5195L20.3727 14.5263V12.9457Z" fill="#CF1126"/>
<path d="M18.6063 11.3467C18.5496 12.0749 18.3646 12.5832 18.1074 13.1438L18.7241 12.5722L19.153 13.0817L19.6174 12.5632L20.0913 13.001L20.5469 12.5454L21.0203 13.0993L21.4313 12.6438L22.128 13.1438C21.8753 12.5832 21.533 12.1082 21.5758 11.3193C20.9008 11.821 19.2969 11.9117 18.6063 11.3467Z" fill="#CF1126"/>
<path d="M19.8321 10.9753C19.5844 10.9797 19.3232 10.9831 19.0882 11.0292C18.9254 11.0613 18.7776 11.1142 18.6544 11.2013C18.6744 11.6753 20.9321 11.8731 21.5376 11.2102C21.4104 11.1175 21.2549 11.0625 21.0837 11.0292C20.8576 10.9853 20.6076 10.9808 20.3704 10.977C20.3704 11.107 20.3715 11.2375 20.3715 11.3681L19.8321 11.3663V10.9753Z" fill="#CF1126"/>
<path d="M20.2724 8.55308L19.9218 8.55583V11.2992L20.2796 11.3008L20.2724 8.55308Z" fill="#CF1126"/>
<path d="M20.2728 8.624L20.1389 9.93733L21.4899 10.5973L20.806 9.68292L21.7399 9.38017L20.2728 8.624Z" fill="#CF1126"/>
<path d="M20.1222 8.2819C19.9172 8.2819 19.7655 8.35858 19.7655 8.44967C19.7655 8.54075 19.9172 8.618 20.1222 8.618C20.3272 8.618 20.4777 8.54075 20.4777 8.44967C20.4777 8.35858 20.3272 8.2819 20.1222 8.2819Z" fill="#CF1126"/>
<path d="M19.505 31.3232C19.7266 31.2498 19.8528 31.1153 19.9433 30.8564C19.9883 30.7276 20.0189 30.5937 20.0111 30.5587C19.9922 30.4759 19.8967 30.4803 19.7911 30.5682C19.7189 30.6287 19.71 30.6592 19.7305 30.7826C19.7833 31.0937 19.6728 31.1709 19.0839 31.2343C19.0255 31.2403 18.8567 31.2303 18.7078 31.2121C18.4278 31.1771 18.3278 31.2048 18.4294 31.2893C18.46 31.3148 18.5378 31.3493 18.6022 31.3653C18.7594 31.4059 19.3366 31.3787 19.505 31.3232Z" fill="#F7E017"/>
<path d="M20.7256 31.2715C20.759 31.2408 20.8734 31.1881 20.9801 31.1537C21.1222 31.1081 21.1956 31.0592 21.2556 30.9698C21.4284 30.7126 21.3962 30.4908 21.1422 30.192C21.0045 30.0298 20.9434 30.0342 20.8334 30.2142C20.7384 30.3698 20.7406 30.3798 20.8772 30.4153C20.949 30.4337 21.0179 30.4865 21.0556 30.5515C21.2045 30.8092 21.1606 30.9687 20.9401 30.9703C20.7401 30.972 20.6851 31.0003 20.6312 31.1298C20.6029 31.197 20.5801 31.2687 20.5801 31.2892C20.5801 31.3437 20.6556 31.3342 20.7256 31.2715Z" fill="#F7E017"/>
<path d="M20.3239 30.9801C20.3617 30.8778 20.375 30.694 20.3706 30.319C20.3678 30.0335 20.3567 29.7912 20.3455 29.7801C20.3122 29.7468 20.1478 29.8528 20.1261 29.9212C20.115 29.9568 20.1333 30.039 20.1667 30.1035C20.2178 30.2028 20.2244 30.2957 20.2089 30.6851C20.1889 31.1773 20.2211 31.2601 20.3239 30.9801Z" fill="#F7E017"/>
<path d="M19.3854 30.7462C19.4054 30.6546 19.431 30.4667 19.4427 30.3296C19.4544 30.1922 19.4827 30.0189 19.5049 29.9439C19.5615 29.7518 19.5044 29.7012 19.3527 29.809L19.2399 29.8896L19.2633 30.1657C19.2849 30.4146 19.2454 30.8783 19.1883 31.0583C19.1727 31.1062 19.1949 31.0939 19.2577 31.0207C19.3083 30.9617 19.366 30.8378 19.3854 30.7462Z" fill="#F7E017"/>
<path d="M18.5507 30.8796C18.7536 30.7099 18.7303 30.4202 18.7752 30.1841C18.7706 30.0271 18.8754 29.839 18.8077 29.7017C18.6182 29.7364 18.5014 29.9159 18.5984 30.0947C18.6065 30.3024 18.5991 30.5285 18.4923 30.7121C18.4051 30.8322 18.1289 30.8023 18.1416 30.6321C18.2109 30.3762 17.9043 30.5007 17.7846 30.5678C17.692 30.6322 17.4967 30.637 17.5646 30.4757C17.5198 30.2609 17.2435 30.3953 17.0934 30.3944C16.9516 30.3918 17.0817 30.1071 16.8782 30.1571C16.5001 30.1273 16.0827 30.1604 15.7554 29.932C15.5638 29.8399 15.5922 29.6095 15.692 29.4604C15.8111 29.2568 15.8451 29.0021 16.0341 28.8441C16.2213 28.6646 15.8576 28.7404 15.7757 28.8009C15.5934 28.9007 15.7628 29.1577 15.6135 29.3003C15.5263 29.4481 15.4115 29.6523 15.2097 29.6241C14.9186 29.5691 14.7507 29.2983 14.542 29.1168C14.3633 29.0811 14.4638 29.4069 14.5561 29.4754C14.7387 29.6122 14.9522 29.7118 15.1723 29.7709C15.3914 29.7358 15.3985 30.0227 15.5859 30.0677C15.9296 30.2279 16.3127 30.2759 16.6877 30.2954C16.835 30.3077 16.7522 30.57 16.9458 30.5182C17.054 30.5462 17.2985 30.4779 17.3107 30.6037C17.1467 30.7984 17.4682 30.7941 17.5872 30.7592C17.7395 30.7359 17.9342 30.6777 17.9744 30.8866C18.1016 31.0206 18.3351 31.0008 18.49 30.9241C18.5117 30.9115 18.5322 30.8966 18.5507 30.8796Z" fill="#F7E017"/>
<path d="M15.2312 29.198C15.2928 29.1196 15.3851 28.9613 15.4362 28.8458C15.4867 28.7296 15.5628 28.598 15.6046 28.553C15.7023 28.4474 15.6478 28.3824 15.4901 28.4174C15.4067 28.4358 15.3728 28.4663 15.3589 28.5385C15.3117 28.7741 15.2262 29.0152 15.1501 29.1274C15.0122 29.3308 15.0089 29.3391 15.0657 29.3391C15.0951 29.3391 15.1696 29.2758 15.2312 29.198Z" fill="#F7E017"/>
<path d="M13.1498 27.8939C12.9941 27.8939 12.9875 27.9923 13.1391 28.045C13.2125 28.0706 13.2748 28.1322 13.3248 28.2327C13.4725 28.5267 13.5591 28.5789 13.9514 28.6127L14.203 28.6356L14.2153 28.7884C14.2214 28.8727 14.2413 28.9427 14.2608 28.9427C14.2803 28.9427 14.3775 28.9006 14.4758 28.8506C14.6603 28.7572 14.8353 28.5395 14.8353 28.4045C14.8353 28.3162 14.688 28.2206 14.5541 28.2206C14.4948 28.2206 14.3813 28.2684 14.2919 28.3334C14.0119 28.5362 13.7125 28.495 13.5486 28.2312C13.4141 28.0134 13.2736 27.8939 13.1498 27.8939ZM14.5086 28.4356C14.583 28.4356 14.6013 28.4906 14.5608 28.5956C14.533 28.6677 14.4425 28.67 14.4153 28.5989C14.383 28.515 14.428 28.4356 14.5086 28.4356Z" fill="#F7E017"/>
<path d="M25.0486 28.0937C24.9469 28.0976 24.9169 28.1197 24.8524 28.2154C24.7469 28.372 24.7363 28.7115 24.8336 28.8315C24.8942 28.9059 24.9031 28.9076 25.0313 28.8542C25.2102 28.7792 25.2402 28.782 25.2397 28.8781C25.2386 29.1237 24.8863 29.597 24.5174 29.8487C24.4181 29.9165 24.3292 29.992 24.3197 30.017C24.2931 30.087 24.4297 30.0715 24.5974 29.9859C24.8263 29.8692 25.1269 29.5626 25.2502 29.3209C25.3481 29.1281 25.3619 29.0626 25.3736 28.7253C25.3842 28.4148 25.3758 28.3237 25.3231 28.2203C25.2642 28.1042 25.2452 28.0937 25.0974 28.0937C25.0797 28.0937 25.0636 28.0931 25.0486 28.0937ZM25.0608 28.3102C25.1374 28.3102 25.1508 28.3276 25.1597 28.4376C25.1674 28.5287 25.1513 28.5842 25.1008 28.6298C25.0319 28.692 25.0263 28.6915 24.9652 28.5987C24.8797 28.4676 24.9324 28.3102 25.0608 28.3102Z" fill="#F7E017"/>
<path d="M23.3737 30.6816C23.6987 30.5216 23.8904 30.3416 24.0137 30.0809C24.0721 29.9571 24.1199 29.8404 24.1199 29.8204C24.1199 29.7754 23.9599 29.7009 23.8637 29.7009C23.7681 29.7009 23.7487 29.6348 23.7899 29.4521C23.8299 29.2737 23.7815 29.0504 23.7031 29.0504C23.6749 29.0504 23.6249 29.0921 23.5915 29.1427C23.5404 29.2209 23.5376 29.2543 23.5754 29.3682C23.631 29.5371 23.5871 29.6632 23.436 29.7709C23.3643 29.8221 23.3249 29.8809 23.3249 29.9382C23.3249 29.9866 23.331 30.0259 23.3381 30.0259C23.346 30.0259 23.4249 29.9848 23.5137 29.9354L23.676 29.8448L23.7715 29.9198C23.8237 29.9609 23.8671 30.0282 23.8671 30.0693C23.8671 30.2671 23.3031 30.5993 22.916 30.6304C22.7099 30.6471 22.6749 30.6398 22.6031 30.5688C22.5449 30.5104 22.5281 30.4616 22.5426 30.3927C22.5538 30.3398 22.5737 30.2437 22.5871 30.1793C22.6226 30.0071 22.5487 30.0304 22.421 30.2316C22.316 30.3977 22.2849 30.5748 22.3437 30.6682C22.3921 30.7443 22.7131 30.8171 22.9404 30.8032C23.0831 30.7948 23.2242 30.7548 23.3737 30.6816Z" fill="#F7E017"/>
<path d="M25.5429 29.4714C25.7473 29.2675 25.834 29.0192 25.8352 28.6353L25.8357 28.347L26.0045 28.267C26.224 28.1625 26.4318 27.9548 26.4318 27.8393C26.4318 27.7203 26.379 27.7264 26.2834 27.8559C26.214 27.9498 26.1213 28.0064 25.7818 28.1625C25.6963 28.202 25.6907 28.2232 25.6713 28.582C25.6484 28.9959 25.5923 29.1509 25.3613 29.4337C25.2195 29.6059 25.2145 29.6287 25.3129 29.6287C25.3534 29.6287 25.4568 29.5582 25.5429 29.4714Z" fill="#F7E017"/>
<path d="M23.3164 29.2401C23.3357 29.1806 23.2231 29.1384 23.1742 29.1867C23.1536 29.2073 23.1481 29.2428 23.162 29.2656C23.1942 29.3173 23.2964 29.3001 23.3164 29.2401Z" fill="#F7E017"/>
<path d="M26.3868 28.4454C26.4068 28.386 26.2933 28.3438 26.245 28.3921C26.2239 28.4132 26.2183 28.4488 26.2323 28.4715C26.2645 28.5233 26.3668 28.506 26.3868 28.4454Z" fill="#F7E017"/>
<path d="M22.6903 26.293C22.6109 26.3308 22.5697 26.4166 22.5145 26.4821C22.4748 26.5091 22.5066 26.5343 22.5295 26.5598C22.6696 26.7108 22.7289 26.9146 22.7955 27.1047C22.8609 27.3292 22.9432 27.5702 22.8749 27.8041C22.848 27.8936 22.7775 27.9863 22.6723 27.9566C22.5039 27.9461 22.3383 27.9013 22.1694 27.9032C22.0192 27.911 21.903 28.0478 21.7494 28.0328C21.6512 28.0393 21.6553 27.8318 21.5641 27.8873C21.519 27.9955 21.5412 28.1162 21.5358 28.2306C21.5528 28.247 21.6006 28.2327 21.6292 28.2375H21.9317C21.953 28.342 21.9504 28.4617 22.0254 28.5447C22.1304 28.5821 22.2485 28.5498 22.3483 28.5091C22.4553 28.4593 22.4696 28.3307 22.4998 28.2305C22.5319 28.1227 22.673 28.151 22.7562 28.1087C22.9598 28.0492 23.0932 27.8377 23.0813 27.6293C23.0681 27.3116 22.9469 27.0125 22.8549 26.7116C22.8086 26.5791 22.7765 26.4407 22.7228 26.3113C22.7165 26.3002 22.7036 26.2907 22.6903 26.293ZM22.1865 28.1108C22.2996 28.1033 22.3487 28.2425 22.3248 28.3347C22.2824 28.46 22.1284 28.3796 22.0972 28.2892C22.04 28.2087 22.0754 28.1002 22.1865 28.1108Z" fill="#F7E017"/>
<path d="M17.9977 27.0677C17.9472 27.0667 17.8904 27.0856 17.8343 27.1249C17.5393 27.3317 17.4638 27.5761 17.6643 27.6717C17.8115 27.7422 17.7743 27.8249 17.5427 27.9411C17.211 28.1067 16.9182 28.0861 16.3622 27.8561C16.2254 27.7994 16.1899 27.8211 16.2215 27.9461C16.2522 28.0688 16.3643 28.1361 16.6432 28.1994C16.9432 28.2683 17.306 28.2461 17.5393 28.1456C17.6532 28.0967 17.7882 27.9938 17.9022 27.8699L18.0827 27.6717L18.2927 27.6977C18.5515 27.7294 18.5565 27.7322 18.5565 27.8561C18.5565 27.9544 18.5622 27.9567 18.7999 27.9788C18.9338 27.9917 19.1099 28.0033 19.1922 28.0033C19.2972 28.0038 19.3565 28.0222 19.3915 28.0711C19.4382 28.1361 19.466 28.1394 19.8572 28.1044C20.2227 28.0711 20.2943 28.0738 20.4593 28.1299C20.5765 28.1699 20.7054 28.1861 20.8032 28.1756C21.0832 28.1438 21.4693 27.9149 21.5254 27.7467C21.5322 27.7261 21.6338 27.6899 21.751 27.6667C22.0338 27.6099 22.046 27.5483 21.7822 27.5156C21.6677 27.5011 21.496 27.4594 21.4004 27.4217C21.3043 27.3838 21.1732 27.3522 21.1088 27.3522C20.9665 27.3522 20.8327 27.4411 20.8327 27.5328C20.8327 27.5928 20.8538 27.5988 21.0222 27.5817C21.1804 27.5656 21.2265 27.5744 21.3099 27.6406C21.3649 27.6838 21.4015 27.7349 21.3899 27.7533C21.3527 27.8138 21.0222 27.9644 20.876 27.9877C20.7782 28.0033 20.6993 27.9928 20.6227 27.9533C20.4943 27.8867 20.3054 27.8767 20.2699 27.9338C20.2549 27.9588 20.2143 27.9428 20.1588 27.8906L20.0722 27.8088L19.876 27.8906C19.6765 27.9733 19.6032 27.9699 19.6032 27.8749C19.6032 27.8317 19.5449 27.8267 19.251 27.8456C18.9272 27.8667 18.8932 27.8611 18.8327 27.7933C18.7765 27.7311 18.7754 27.7094 18.8154 27.6456C18.8522 27.5867 18.8522 27.5611 18.8172 27.5261C18.7822 27.4911 18.7365 27.4917 18.6088 27.5261C18.2865 27.6122 18.1954 27.5638 18.1954 27.3122C18.1954 27.1611 18.1088 27.0694 17.9977 27.0677ZM17.9177 27.2988C17.9349 27.2988 17.9493 27.3094 17.9715 27.3317C17.9999 27.3599 18.0149 27.4094 18.0027 27.4411C17.9738 27.5161 17.8372 27.5133 17.8082 27.4377C17.7943 27.4011 17.8122 27.3599 17.8532 27.3299C17.8822 27.3088 17.9004 27.2983 17.9177 27.2988Z" fill="#F7E017"/>
<path d="M17.3409 27.5332C17.537 27.4087 17.5325 27.4182 17.5609 27.0726C17.5804 26.8287 17.577 26.8103 17.5109 26.8103C17.4149 26.8103 17.3649 26.9158 17.3649 27.1169C17.3649 27.2458 17.3449 27.3037 17.2759 27.3719C17.1125 27.5353 16.707 27.4608 16.6559 27.2582C16.6387 27.1887 16.6609 27.1258 16.7459 27.0053C16.9232 26.7537 16.8832 26.6919 16.6659 26.8832C16.5164 27.0137 16.4899 27.0176 16.5182 26.9048C16.5443 26.8008 16.4899 26.7598 16.3682 26.7903C16.3059 26.8058 16.272 26.8448 16.257 26.9203C16.2425 26.9943 16.2087 27.0353 16.1499 27.0497C16.0514 27.0747 15.8837 26.9814 15.8837 26.9019C15.8837 26.8432 16.1349 26.5364 16.457 26.2019C16.5787 26.0753 16.6782 25.9576 16.6782 25.9398C16.6782 25.9219 16.6132 25.9076 16.5337 25.9076C16.4175 25.9076 16.3893 25.9203 16.3893 25.9743C16.3893 26.0108 16.227 26.2237 16.0282 26.4476C15.6137 26.9143 15.5793 27.0114 15.7843 27.1358C15.9493 27.2369 16.1609 27.2293 16.327 27.1164L16.4614 27.0248V27.1908C16.4614 27.4032 16.5037 27.4793 16.6704 27.5676C16.8799 27.6782 17.1332 27.6648 17.3409 27.5332Z" fill="#F7E017"/>
<path d="M26.0383 24.6491C25.8846 24.7409 26.005 24.9338 26.0282 25.0619C25.9655 25.2366 25.7408 25.2837 25.5771 25.3162C25.3453 25.3546 25.1811 25.5485 25.0928 25.7546C25.0451 25.8884 24.9296 26.096 24.804 25.8922C24.6947 25.7815 24.4938 25.6937 24.3646 25.823C24.2665 25.9164 24.2416 26.0539 24.2051 26.1787C24.1471 26.0828 24.1211 25.94 23.9983 25.9096C23.8023 25.9372 23.8731 26.1842 23.9653 26.2862C24.0491 26.405 24.1296 26.5616 24.0475 26.7027C23.9751 26.8722 23.7246 26.9866 23.5776 26.8415C23.4402 26.769 23.5321 26.5102 23.3968 26.4959C23.33 26.5442 23.3245 26.8151 23.2173 26.6683C23.1401 26.5428 23.1811 26.3709 23.0866 26.258C22.9748 26.2719 22.8851 26.4642 22.9222 26.5675C23.0712 26.7685 23.1326 27.0206 23.1906 27.2602C23.2268 27.3561 23.1853 27.5505 23.2751 27.5885C23.3372 27.4341 23.2795 27.259 23.3285 27.1032C23.4738 27.0849 23.6356 27.1513 23.7882 27.116C24.0065 27.0877 24.1751 26.9035 24.2516 26.7074C24.2748 26.5599 24.2472 26.4103 24.2432 26.262C24.4156 26.2887 24.5947 26.2882 24.7606 26.3442C24.8428 26.4703 24.7346 26.6467 24.7117 26.7847C24.6251 27.0654 24.4053 27.2691 24.1915 27.4567C24.102 27.5097 24.09 27.65 24.2221 27.5744C24.5096 27.4515 24.7237 27.1912 24.847 26.9095C24.937 26.6927 24.8646 26.4513 24.9233 26.2296C25.0101 26.0631 25.219 26.0982 25.3736 26.0987C25.5335 26.0926 25.67 25.9063 25.6166 25.7508C25.5656 25.5705 25.7566 25.4836 25.887 25.4191C26.0597 25.3319 26.1923 25.1547 26.179 24.9547C26.1718 24.8525 26.177 24.6585 26.0383 24.6491ZM25.4256 25.6908C25.6107 25.74 25.392 26.0937 25.2936 25.8696C25.2632 25.7841 25.3352 25.6877 25.4256 25.6908ZM24.5661 25.9441C24.8071 25.9301 24.7206 26.282 24.517 26.1222C24.4113 26.0692 24.4462 25.9376 24.5661 25.9441Z" fill="#F7E017"/>
<path d="M15.8405 27.3042C15.8471 27.2692 15.8294 27.2442 15.7977 27.2442C15.7305 27.2442 15.6899 27.303 15.7216 27.3542C15.7544 27.4069 15.8266 27.3769 15.8405 27.3042Z" fill="#F7E017"/>
<path d="M18.6646 26.9887C18.6646 26.9372 18.6451 26.9177 18.6018 26.926C18.5073 26.9438 18.4968 27.0638 18.5896 27.0638C18.6412 27.0638 18.6646 27.0404 18.6646 26.9887Z" fill="#F7E017"/>
<path d="M15.1697 25.2929C15.0569 25.2698 14.986 25.3651 14.9474 25.456C14.8632 25.5977 14.7602 25.7426 14.6089 25.8177C14.5002 25.8479 14.3815 25.8065 14.2877 25.7504C14.1757 25.6948 14.2012 25.5601 14.1532 25.4671C14.0723 25.4035 13.9287 25.4944 13.9319 25.5933C13.923 25.7258 14.047 25.8024 14.1499 25.8536C14.2374 25.9073 14.3642 25.937 14.3992 26.0455C14.3968 26.1376 14.4338 26.2431 14.5462 26.2075C14.6717 26.2054 14.7042 26.3584 14.6534 26.4501C14.6018 26.5535 14.567 26.6748 14.5917 26.7899C14.6517 26.8404 14.7129 26.7049 14.7564 26.6662C14.7859 26.6268 14.8154 26.5874 14.845 26.5481C15.0672 26.5601 15.289 26.5884 15.5117 26.5805C15.67 26.5778 15.8049 26.4799 15.9057 26.3653C16.048 26.2164 16.165 26.0414 16.3277 25.9129C16.4434 25.8847 16.3812 25.6666 16.2603 25.7296C16.1514 25.7705 16.1172 25.8936 16.0417 25.972C15.913 26.1277 15.7818 26.2858 15.6197 26.4078C15.5017 26.4568 15.3658 26.4353 15.2445 26.4078C15.1939 26.3635 15.345 26.3275 15.3662 26.2783C15.4357 26.2088 15.5182 26.1428 15.5585 26.0515C15.52 25.9674 15.402 25.9606 15.3189 25.9589C15.1142 25.9835 14.9578 26.1553 14.751 26.1715C14.594 26.177 14.6757 26.0071 14.7465 25.9491C14.8849 25.7848 15.0345 25.6298 15.179 25.4709C15.22 25.4215 15.3684 25.3746 15.2735 25.3053C15.2403 25.2934 15.2044 25.2934 15.1697 25.2929ZM15.2703 26.1245C15.3737 26.1825 15.2044 26.2776 15.1332 26.2646C15.0397 26.2926 15.038 26.1973 15.1212 26.1783C15.1677 26.154 15.217 26.1287 15.2703 26.1245ZM14.9527 26.3415C15.0114 26.3404 15.1345 26.3968 15.0189 26.433C14.9383 26.4954 14.8474 26.3694 14.9527 26.3415Z" fill="#F7E017"/>
<path d="M17.4537 26.4853C17.4537 26.407 17.3132 26.4181 17.2977 26.4975C17.2877 26.5486 17.3037 26.5608 17.3692 26.5514C17.4159 26.5447 17.4537 26.5153 17.4537 26.4853Z" fill="#F7E017"/>
<path d="M23.6797 25.9345C23.6942 25.8595 23.5897 25.8095 23.5347 25.8645C23.4797 25.9195 23.5303 26.024 23.6047 26.0095C23.6392 26.0028 23.6732 25.969 23.6797 25.9345Z" fill="#F7E017"/>
<path d="M13.9916 25.1714C14.0893 25.0875 14.0905 25.0819 14.0482 24.8975C13.9882 24.6392 13.9921 24.6114 14.0905 24.5869C14.2148 24.5553 14.531 24.7248 14.601 24.8603C14.6555 24.9653 14.6537 24.9725 14.5616 25.058C14.4621 25.1498 14.4626 25.2569 14.5621 25.2569C14.6443 25.2569 14.8716 25.0419 14.8716 24.9648C14.8716 24.8575 14.6193 24.6043 14.4198 24.5114C14.2966 24.4537 14.1732 24.4269 14.0305 24.4264C13.7748 24.4264 13.7405 24.4814 13.8093 24.7787C13.8905 25.1269 13.7805 25.1743 13.4998 24.9114C13.2916 24.7164 13.2093 24.5137 13.2105 24.1943C13.211 23.8514 13.3421 23.6819 13.6376 23.6419C13.8337 23.6158 13.8287 23.5697 13.6271 23.5397C13.3326 23.4953 13.0837 23.6919 12.9893 24.043C12.8843 24.4325 13.1248 24.9069 13.5505 25.1514C13.7732 25.2792 13.8621 25.283 13.9916 25.1714Z" fill="#F7E017"/>
<path d="M25.5931 24.7442C25.6168 24.7203 25.6363 24.6665 25.6363 24.6248C25.6363 24.5831 25.6768 24.4937 25.7263 24.4265C25.7763 24.3592 25.8169 24.2903 25.8169 24.2737C25.8169 24.2053 25.7042 24.2076 25.6153 24.2781C25.5242 24.3492 25.4558 24.3509 25.4558 24.2815C25.4558 24.2642 25.4992 24.2287 25.5524 24.2026C25.6847 24.1381 25.6958 24.0742 25.5842 24.0231C25.4408 23.9581 25.2968 24.077 25.2818 24.2731C25.2724 24.4042 25.2831 24.427 25.3842 24.4865C25.4763 24.5409 25.4936 24.5698 25.4781 24.6476C25.4513 24.7826 25.5074 24.8298 25.5931 24.7442Z" fill="#F7E017"/>
<path d="M26.6847 24.6211C26.7647 24.5494 26.8297 24.4677 26.8297 24.4405C26.8297 24.4133 26.8986 24.3411 26.9831 24.2805C27.2226 24.1083 27.2753 23.9344 27.1681 23.6672C27.1265 23.5622 26.9953 23.4172 26.7103 23.1605C26.4915 22.9627 26.2897 22.8011 26.2636 22.8011C26.186 22.8011 26.1997 23.0872 26.2786 23.1122C26.421 23.1577 26.5071 23.2161 26.731 23.4177C26.991 23.6527 27.111 23.8722 27.0453 23.9944C26.9826 24.1127 26.8992 24.0761 26.6697 23.8299C26.5492 23.7005 26.4297 23.5949 26.4053 23.5949C26.3786 23.5955 26.3597 23.6422 26.3597 23.7077C26.3597 23.7899 26.4036 23.8683 26.5226 24.0005C26.7165 24.2161 26.7353 24.3455 26.5897 24.4599C26.5376 24.5011 26.4836 24.5349 26.4703 24.5349C26.4576 24.5349 26.4147 24.4705 26.376 24.3922C26.2947 24.2277 25.7986 23.7038 25.7242 23.7038C25.6903 23.7038 25.6736 23.7461 25.6736 23.8294C25.6736 23.9299 25.6936 23.9655 25.7736 24.0066C25.8721 24.0577 26.1153 24.3027 26.3597 24.5983C26.4297 24.6827 26.4986 24.7511 26.5136 24.7516C26.5281 24.7516 26.6053 24.6927 26.6847 24.6211Z" fill="#F7E017"/>
<path d="M27.1702 23.228C27.1379 23.1242 26.4724 22.4392 26.4041 22.4392C26.3685 22.4392 26.3574 22.4814 26.3657 22.5903C26.3752 22.7225 26.3896 22.7453 26.4807 22.7692C26.5374 22.7842 26.7129 22.9219 26.8702 23.0747C27.0268 23.2275 27.1646 23.3437 27.1757 23.3319C27.1868 23.3208 27.1846 23.2742 27.1702 23.228Z" fill="#F7E017"/>
<path d="M23.1959 30.938C23.1959 30.9622 23.1854 30.9852 23.1669 31.0022C23.1484 31.0192 23.1232 31.0288 23.0969 31.0288C23.0707 31.0288 23.0456 31.0192 23.0269 31.0022C23.0084 30.9852 22.9981 30.9622 22.9981 30.938C22.9981 30.914 23.0084 30.8909 23.0269 30.8739C23.0456 30.8569 23.0707 30.8473 23.0969 30.8473C23.1232 30.8473 23.1484 30.8569 23.1669 30.8739C23.1854 30.8909 23.1959 30.914 23.1959 30.938Z" fill="#F7E017"/>
<path d="M23.5454 30.8215C23.5454 30.8456 23.5351 30.8686 23.5164 30.8856C23.4979 30.9026 23.4727 30.9122 23.4466 30.9122C23.4202 30.9122 23.3952 30.9026 23.3766 30.8856C23.3581 30.8686 23.3477 30.8456 23.3477 30.8215C23.3477 30.7975 23.3581 30.7744 23.3766 30.7574C23.3952 30.7404 23.4202 30.7308 23.4466 30.7308C23.4727 30.7308 23.4979 30.7404 23.5164 30.7574C23.5351 30.7744 23.5454 30.7975 23.5454 30.8215Z" fill="#F7E017"/>
</g>
</g>
</g>
<defs>
<clipPath id="clip0_16699_262546">
<rect width="40" height="40" fill="white"/>
</clipPath>
</defs>
</svg>
