<svg width="40" height="40" viewBox="0 0 40 40" fill="none" xmlns="http://www.w3.org/2000/svg">
<g clip-path="url(#clip0_16699_264615)">
<mask id="mask0_16699_264615" style="mask-type:luminance" maskUnits="userSpaceOnUse" x="0" y="0" width="40" height="40">
<path d="M40 0H0V40H40V0Z" fill="white"/>
</mask>
<g mask="url(#mask0_16699_264615)">
<mask id="mask1_16699_264615" style="mask-type:luminance" maskUnits="userSpaceOnUse" x="0" y="0" width="40" height="40">
<path d="M40 20C40 8.95433 31.0457 0 20 0C8.95433 0 0 8.95433 0 20C0 31.0457 8.95433 40 20 40C31.0457 40 40 31.0457 40 20Z" fill="white"/>
</mask>
<g mask="url(#mask1_16699_264615)">
<path d="M2 -9.5L43 5V35H-2L2 -9.5Z" fill="#FFD520"/>
<path d="M-2 35L38 47.5L43 5L-2 35Z" fill="#FF4E12"/>
<path d="M22.0882 14.3788C21.8388 14.2903 21.6778 14.419 21.6858 14.741C21.6938 15.063 21.8629 15.2481 22.1123 15.1273L22.0882 14.3788Z" fill="white" stroke="black" stroke-width="0.013025"/>
<path d="M22.3061 13.7761C22.0984 13.6121 21.9046 13.6823 21.8088 13.9898C21.713 14.2973 21.8136 14.527 22.0886 14.4928L22.3061 13.7761Z" fill="white" stroke="black" stroke-width="0.013025"/>
<path d="M22.6529 13.1928C22.4739 12.9977 22.2714 13.0359 22.1275 13.3242C21.9838 13.6123 22.0463 13.855 22.3234 13.8653L22.6529 13.1928ZM22.4259 16.0293C22.1201 16.142 22.0878 16.5607 22.2811 16.8182C22.4743 17.0757 22.8284 17.124 23.0215 16.8182L22.4259 16.0293Z" fill="white" stroke="black" stroke-width="0.013025"/>
<path d="M22.0704 15.1438C21.7806 15.0472 21.5195 15.4365 21.4747 15.7877C21.4185 16.2305 20.7906 16.3752 21.1368 17.0433C21.2091 16.6167 21.491 16.3833 21.7162 16.3672C21.9416 16.3512 22.2797 16.3028 22.4246 16.0292L22.0704 15.1438ZM22.9879 16.8663C22.6497 16.9468 22.6014 17.3976 22.8429 17.7196C23.0495 17.9952 23.696 17.9287 23.68 17.6552L22.9879 16.8663ZM23.9459 19.5788C23.9619 19.2891 23.4953 19.1763 23.2698 19.2327C23.0444 19.2891 22.6138 19.2247 22.5132 18.9832C22.4328 19.1763 22.5494 19.3857 22.8755 19.4902C23.1221 19.5696 23.1169 19.7478 23.0444 19.8283C23.2296 19.8606 23.7769 19.8606 23.9459 19.5788Z" fill="white" stroke="black" stroke-width="0.013025"/>
<path d="M23.6817 17.7275C23.3517 17.5826 23.1561 17.8033 23.0299 18.0172C22.8447 18.3311 22.2732 17.9287 22.0801 18.3472C22.3417 18.2346 22.608 18.4749 22.732 18.5565C23.0861 18.7899 23.7702 18.7175 23.867 18.1702L23.6817 17.7275Z" fill="white" stroke="black" stroke-width="0.013025"/>
<path d="M23.8741 18.1133C23.5441 18.3628 23.4153 18.6606 23.4234 18.8618C23.4316 19.0631 23.7132 19.5057 24.0191 19.5299C24.1961 19.1677 24.2846 18.403 23.8741 18.1133ZM22.5061 19.6668C22.5061 19.546 22.6831 19.4978 22.8037 19.538C22.9246 19.5782 23.1096 19.699 23.0452 19.8278L22.5061 19.6668ZM20.6866 19.0068C20.6544 18.8619 20.8878 18.6124 21.2017 18.7492C21.5156 18.886 21.5559 19.1517 21.4269 19.2563L20.6866 19.0068Z" fill="white" stroke="black" stroke-width="0.013025"/>
<path d="M21.4522 19.273C21.4281 19.1925 21.6541 19.0317 22.0399 19.1281C22.4262 19.2247 22.5209 19.4733 22.5068 19.6673L21.4522 19.273ZM20.6477 19.0075C20.849 18.8546 20.7727 18.5647 20.5912 18.4762C20.2612 18.3152 20.3821 17.8967 20.1727 17.8162C19.9636 17.7357 19.7623 17.5907 19.7542 17.446C19.6496 17.6472 19.714 17.8322 19.859 17.9611C20.0038 18.0898 19.7463 18.6131 19.9313 18.7498L20.6477 19.0075ZM16.3332 18.895C16.1642 18.6293 15.7617 18.6777 15.5927 18.8627C15.4237 19.0478 15.4479 19.3216 15.6088 19.4422L16.3332 18.895ZM17.2992 18.5005C17.2348 18.1462 16.8082 18.1061 16.5748 18.1946C16.3414 18.2831 16.1803 18.6373 16.3332 18.895L17.2992 18.5005Z" fill="white"/>
<path d="M16.3332 18.895C16.1642 18.6293 15.7617 18.6777 15.5927 18.8627C15.4237 19.0478 15.4479 19.3216 15.6088 19.4422L16.3332 18.895ZM16.3332 18.895C16.1803 18.6373 16.3414 18.2831 16.5748 18.1946C16.8082 18.1061 17.2348 18.1462 17.2992 18.5005L16.3332 18.895ZM21.4522 19.273C21.4281 19.1925 21.6541 19.0317 22.0399 19.1281C22.4262 19.2247 22.5209 19.4733 22.5068 19.6673L21.4522 19.273ZM20.6477 19.0075C20.849 18.8546 20.7727 18.5647 20.5912 18.4762C20.2612 18.3152 20.3821 17.8967 20.1727 17.8162C19.9636 17.7357 19.7623 17.5907 19.7542 17.446C19.6496 17.6472 19.714 17.8322 19.859 17.9611C20.0038 18.0898 19.7463 18.6131 19.9313 18.7498L20.6477 19.0075Z" stroke="black" stroke-width="0.013025"/>
<path d="M17.9408 18.4519C18.0938 18.1542 17.7959 17.7114 17.4578 17.6471C17.1757 17.5933 16.8422 17.5948 16.7334 17.3171C16.6651 17.5586 16.8462 17.7114 17.0554 17.8483C17.2648 17.9852 17.0152 18.3393 17.3533 18.5404L17.9408 18.4519Z" fill="white" stroke="black" stroke-width="0.013025"/>
<path d="M17.9086 18.4627C17.8381 18.2493 17.981 17.9655 18.2702 17.9853C18.5593 18.0053 18.7242 18.2153 18.5967 18.4782L17.9086 18.4627Z" fill="white" stroke="black" stroke-width="0.013025"/>
<path d="M18.5523 18.4787C18.5125 18.2577 18.6938 17.9967 18.9773 18.057C19.2609 18.1172 19.3945 18.3485 19.2315 18.5907L18.5523 18.4787Z" fill="white" stroke="black" stroke-width="0.013025"/>
<path d="M19.1926 18.58C19.1638 18.3572 19.3581 18.1056 19.6382 18.18C19.9184 18.2543 20.0403 18.492 19.8653 18.7257L19.1926 18.58ZM14.3356 22.2675C13.7963 22.2675 13.6646 22.3959 13.5871 22.9517C13.4904 23.6439 14.4322 23.7244 14.3356 22.2675Z" fill="white" stroke="black" stroke-width="0.013025"/>
<path d="M14.5774 21.5429C13.7484 21.2291 13.2977 22.5411 12.4767 22.3077C12.7704 22.7744 13.4826 22.3084 13.7484 22.3559C14.1991 22.4364 15.173 22.2674 14.5774 21.5429ZM14.0379 23.3379C13.6274 23.1528 13.1847 23.7807 13.2652 24.0543C13.3674 24.4019 14.3035 24.1188 14.0379 23.3379ZM12.1224 26.0424C12.3478 26.1067 12.6214 26.2356 12.5732 26.6702C12.5249 27.1048 11.7039 27.9902 10.9634 28.0386C10.2229 28.0868 9.95725 28.9802 9.32142 28.7307C9.91708 28.6182 9.91708 27.9418 10.3839 27.7328C10.0458 27.6118 9.86875 28.3767 9.43417 28.3767C8.9995 28.3767 8.79025 29.0688 8.25899 29.0204C7.72773 28.9723 7.67183 29.8632 6.60898 29.8738C5.79598 29.8817 4.78993 30.8314 4.42773 30.4211C5.21653 30.3083 5.53483 29.8713 6.00533 29.3907C6.76193 28.6182 7.61514 28.9642 7.90484 28.2801C7.55874 28.5133 7.15634 28.6261 6.76193 28.6182C6.26683 28.6079 5.72363 29.4069 5.16823 29.0528C5.49018 29.0126 5.69948 28.8757 6.03753 28.5214C6.38368 28.1588 6.89169 28.3932 7.29319 28.0226C7.92099 27.4429 8.46033 27.9258 9.06392 27.2014C8.89492 27.1211 8.53267 27.1773 8.19463 27.3543C7.85653 27.5314 7.42193 27.2336 7.03558 27.4429C7.08383 26.9682 7.98534 27.2398 8.54883 26.9117C9.18467 26.5414 9.71192 26.6501 10.2149 26.6943C9.51467 26.6904 9.24108 26.0263 8.27519 26.2193C7.85394 26.3038 7.51858 25.6399 7.10003 25.9779C7.11203 25.7286 7.55078 25.5273 8.00153 25.7688C8.45225 26.0103 8.63392 25.5574 9.53083 26.1229C9.90108 26.3563 10.5369 25.9779 10.9393 26.2276C10.887 26.0747 10.6576 25.9779 10.388 25.9982C10.557 25.6522 11.6476 25.6962 12.1224 26.0424Z" fill="white" stroke="black" stroke-width="0.013025"/>
<path d="M12.8396 25.5183C12.4853 25.2447 11.9943 25.5748 11.6562 25.4459C11.6562 25.6713 11.7689 26.0094 12.1393 26.1382C12.2519 26.0577 12.7591 25.6149 12.8396 25.5183Z" fill="white" stroke="black" stroke-width="0.013025"/>
<path d="M13.3932 24.7381C12.8378 24.4564 12.7413 25.1566 12.3066 25.0117C12.3227 25.213 12.4837 25.4625 12.8379 25.5189L13.3932 24.7381Z" fill="white" stroke="black" stroke-width="0.013025"/>
<path d="M13.725 24.1023C12.904 23.7803 12.7993 24.5691 12.3164 24.4162C12.4291 24.6898 13.1213 24.8347 13.4755 24.7382L13.725 24.1023ZM14.8515 20.6493C14.6341 20.3434 14.1754 20.5929 14.1029 20.9551C14.0305 21.3173 14.2075 21.8244 14.5134 21.7117L14.8515 20.6493Z" fill="white" stroke="black" stroke-width="0.013025"/>
<path d="M15.4065 19.6835C15.0282 19.595 14.5935 19.6352 14.6418 20.0055C14.4969 20.0698 14.4567 20.5448 14.8511 20.6493L15.4065 19.6835Z" fill="white" stroke="black" stroke-width="0.013025"/>
<path d="M15.6563 19.433C15.2861 18.9983 14.8732 19.0085 14.6422 19.1915C14.2156 19.5296 13.8011 19.3364 13.7891 19.6745C14.0466 19.4773 14.272 19.7148 14.4812 19.6423C14.6905 19.5698 14.8435 19.9723 15.423 19.8033L15.6563 19.433ZM14.7628 25.929C14.8192 26.0336 15.1653 26.0819 15.3343 25.9048C15.5583 25.67 15.3102 25.0193 14.9561 24.9711C14.602 24.9228 14.5697 25.7036 14.7628 25.929Z" fill="white" stroke="black" stroke-width="0.013025"/>
<path d="M14.3611 25.9457C14.8682 26.1307 15.0856 25.7121 14.812 25.4466C14.7395 25.5351 14.4738 25.8571 14.3611 25.9457Z" fill="white" stroke="black" stroke-width="0.013025"/>
<path d="M12.4611 26.6377C12.3645 26.9275 11.8654 26.9759 11.302 27.8773C10.7386 28.7788 10.1993 28.4005 10.0625 29.0203C10.7386 28.4729 11.2696 28.8365 11.6723 28.2958C12.284 27.4748 12.7877 27.5928 13.0245 27.0403C13.3625 26.2514 14.8435 26.2675 14.924 25.028C14.425 24.9314 12.8474 26.2675 12.4611 26.6377ZM25.1626 14.4678C25.8065 14.677 25.8226 15.5141 26.563 15.7878C27.3036 16.0614 27.3762 16.7214 27.9797 16.5604C27.4163 16.4075 27.4565 15.7555 26.869 15.5945C26.1798 15.4058 25.9192 14.355 25.3717 14.194M28.1166 18.8383C28.2293 19.0958 28.2132 19.5546 27.8108 19.6753C28.028 19.8123 28.3499 19.6833 28.527 19.3856C28.2614 19.9731 28.4385 20.5044 28.857 20.609C28.6558 20.1985 29.1066 20.0053 28.9618 19.7398C29.2274 19.8524 29.4608 20.2146 29.4527 20.44C29.7989 20.0536 29.1952 19.5385 29.3079 19.1763L28.1166 18.8383ZM23.9471 22.9753C23.5527 22.6291 23.3844 23.0657 23.1904 22.9148C23.0094 22.774 22.768 22.7538 22.6755 22.8948C23.0136 22.9068 22.8483 23.1684 23.5044 23.2328C22.8483 23.2771 22.9692 24.0095 22.5304 23.9733C22.9973 24.416 23.2388 23.5789 23.6171 23.7158C23.5044 23.7479 23.7942 24.0135 23.5929 24.3677C23.9189 24.3597 24.0517 23.9089 24.0921 23.6755L23.9471 22.9753ZM15.2621 26.7343C15.1172 26.6136 14.6986 26.5571 14.5377 26.6538C14.3767 26.7503 14.4331 26.7744 14.6262 26.7908C14.8194 26.8068 15.0689 27.1192 14.6504 27.1367C14.4572 27.1446 14.5216 27.6115 14.1191 27.6438C14.2841 27.8451 14.755 27.7122 14.924 27.4909C14.8918 27.6719 15.1333 27.8369 15.0367 28.0543C15.3345 28.0866 15.1615 27.4508 15.6324 27.4828C15.4392 27.507 15.5197 27.9416 15.8577 27.8289C15.6565 27.9255 15.7611 28.1589 15.9865 28.1026C15.8416 28.1509 15.7933 28.3359 15.9945 28.4408C16.1877 28.1751 15.9704 27.2253 15.2621 26.7343ZM32.7931 17.8532C33.4091 17.8532 33.9085 17.3537 33.9085 16.7376C33.9085 16.1216 33.4091 15.6221 32.7931 15.6221C32.1768 15.6221 31.6775 16.1216 31.6775 16.7376C31.6775 17.3537 32.1768 17.8532 32.7931 17.8532Z" fill="white"/>
<path d="M25.1626 14.4678C25.8065 14.677 25.8226 15.5141 26.563 15.7878C27.3036 16.0614 27.3761 16.7214 27.9796 16.5604C27.4163 16.4075 27.4565 15.7555 26.869 15.5945C26.1798 15.4058 25.9192 14.355 25.3717 14.194M12.4611 26.6377C12.3645 26.9275 11.8654 26.9759 11.302 27.8773C10.7386 28.7788 10.1994 28.4005 10.0625 29.0203C10.7386 28.4729 11.2696 28.8365 11.6723 28.2958C12.284 27.4748 12.7877 27.5928 13.0245 27.0403C13.3625 26.2514 14.8435 26.2675 14.924 25.028C14.425 24.9314 12.8474 26.2675 12.4611 26.6377ZM28.1166 18.8383C28.2293 19.0958 28.2133 19.5546 27.8108 19.6753C28.0281 19.8123 28.3499 19.6833 28.527 19.3856C28.2614 19.9731 28.4385 20.5044 28.857 20.609C28.6557 20.1985 29.1066 20.0053 28.9618 19.7398C29.2274 19.8524 29.4608 20.2146 29.4527 20.44C29.7989 20.0536 29.1952 19.5385 29.3079 19.1763L28.1166 18.8383ZM23.9471 22.9753C23.5527 22.6291 23.3844 23.0657 23.1904 22.9148C23.0094 22.774 22.768 22.7538 22.6755 22.8948C23.0136 22.9068 22.8483 23.1684 23.5044 23.2328C22.8483 23.2771 22.9692 24.0095 22.5304 23.9733C22.9973 24.416 23.2388 23.5789 23.6171 23.7158C23.5044 23.7479 23.7942 24.0135 23.5929 24.3677C23.9189 24.3597 24.0517 23.9089 24.0921 23.6755L23.9471 22.9753ZM15.2621 26.7343C15.1172 26.6136 14.6986 26.5571 14.5377 26.6538C14.3767 26.7503 14.4331 26.7744 14.6262 26.7908C14.8194 26.8068 15.0688 27.1192 14.6504 27.1367C14.4572 27.1446 14.5216 27.6115 14.1191 27.6438C14.2841 27.8451 14.755 27.7122 14.924 27.4909C14.8918 27.6719 15.1333 27.8369 15.0367 28.0543C15.3345 28.0866 15.1615 27.4508 15.6324 27.4828C15.4392 27.507 15.5197 27.9416 15.8578 27.8289C15.6565 27.9255 15.7611 28.1589 15.9865 28.1026C15.8416 28.1509 15.7933 28.3359 15.9945 28.4408C16.1877 28.1751 15.9704 27.2253 15.2621 26.7343ZM32.7931 17.8532C33.4091 17.8532 33.9085 17.3537 33.9085 16.7376C33.9085 16.1216 33.4091 15.6221 32.7931 15.6221C32.1768 15.6221 31.6774 16.1216 31.6774 16.7376C31.6774 17.3537 32.1768 17.8532 32.7931 17.8532Z" stroke="black" stroke-width="0.013025"/>
<path d="M26.9647 19.2014C27.3028 18.8794 27.8179 18.7184 28.1719 18.9599C28.5261 19.2014 29.7014 19.4911 30.2809 19.0888C30.8603 18.6863 31.1341 18.4769 31.3916 18.5252C31.5849 18.815 31.8182 18.9518 32.1079 18.976C32.1964 19.0726 32.5104 19.1531 32.6876 19.1289C32.9451 19.1933 33.2591 19.1128 33.5084 18.8391C33.8949 18.8955 34.2569 18.6057 34.3939 18.1711C34.8043 18.1228 34.8284 17.664 34.5709 17.3581C34.3294 17.3099 34.5147 16.4969 33.6372 16.6579C34.0076 16.8833 33.7258 17.334 34.0318 17.5433C33.8224 17.5433 33.5529 17.6318 33.4884 17.9458C33.5689 17.7284 33.4764 17.5835 33.4199 17.5353C33.4281 17.3502 33.0176 16.8954 32.6312 17.0604C32.9089 17.1208 32.7519 17.5675 32.9532 17.7365C32.8082 17.7445 32.6553 17.817 32.5668 17.9458C32.4622 17.7606 32.0919 17.5674 31.8666 17.5513C31.8666 17.4869 31.8544 17.3583 31.8264 17.2938C31.7257 17.1006 31.6412 16.8713 31.6814 16.5774C31.4882 16.7868 31.3272 17.0764 31.2307 17.2858C30.9249 17.0765 30.1682 17.3823 29.8141 17.4628C29.4599 17.5433 28.2687 17.3501 27.9949 17.0603C27.7214 16.7706 27.1901 16.5935 26.6912 16.4486C26.0049 16.2495 25.9989 15.4989 25.2422 14.9837C25.2262 15.9174 26.6428 18.8794 26.9647 19.2014ZM19.0767 26.3164C19.6723 26.3164 20.1552 25.8335 20.1552 25.2378C20.1552 24.6423 19.6723 24.1593 19.0767 24.1593C18.4809 24.1593 17.9981 24.6423 17.9981 25.2378C17.9981 25.8335 18.4809 26.3164 19.0767 26.3164Z" fill="white" stroke="black" stroke-width="0.013025"/>
<path d="M16.5008 25.4865C16.7181 25.7682 17.0883 25.7522 17.2413 25.728C17.3701 26.0659 17.7806 26.058 17.9577 26.243C18.1348 26.4282 18.7383 26.4122 18.9153 26.3074C18.7546 26.2914 18.5453 26.1949 18.344 26.0257C18.1011 25.8217 18.2152 25.414 18.022 25.2692C18.1668 25.1082 18.1911 24.8426 18.1588 24.7379C18.3118 24.6494 18.4245 24.5045 18.4406 24.432C18.7063 24.4159 18.9396 24.2791 19.0363 24.1745C19.1731 24.3033 19.5192 24.1342 19.7043 24.3515C19.7446 23.8203 19.2375 23.5386 18.8993 23.7157C18.7625 23.6433 18.4003 23.6916 18.336 23.7882C18.2233 23.7398 17.9093 23.9008 17.7645 24.0055C17.9255 23.917 17.9496 23.6513 17.8852 23.5547C18.0221 23.4984 18.175 23.3132 18.1911 23.1764C18.3843 23.2086 18.674 23.0798 18.8027 23.112C18.5936 22.8384 18.2475 22.7418 17.8933 22.7659C17.527 22.7861 17.3701 23.0436 17.3218 23.3213C17.1045 23.4501 17.0321 23.8847 17.1126 24.0377C16.9878 24.0337 16.8711 24.1544 16.8228 24.2228C16.6538 24.1503 16.4123 24.0981 16.2393 24.0981M16.3158 23.6595C16.2433 23.4502 16.3393 23.2618 16.3883 23.0961C16.513 22.6736 16.4366 22.5648 16.0583 22.6212C16.0261 22.8224 16.2193 23.4824 16.3158 23.6595Z" fill="white"/>
<path d="M16.5008 25.4865C16.7181 25.7682 17.0883 25.7522 17.2413 25.728C17.3701 26.0659 17.7806 26.058 17.9577 26.243C18.1348 26.4282 18.7383 26.4122 18.9153 26.3074C18.7546 26.2914 18.5453 26.1949 18.344 26.0257C18.1011 25.8217 18.2152 25.414 18.022 25.2692C18.1668 25.1082 18.1911 24.8426 18.1588 24.7379C18.3118 24.6494 18.4245 24.5045 18.4406 24.432C18.7063 24.4159 18.9396 24.2791 19.0363 24.1745C19.1731 24.3033 19.5192 24.1342 19.7043 24.3515C19.7446 23.8203 19.2375 23.5386 18.8993 23.7157C18.7625 23.6433 18.4003 23.6916 18.336 23.7882C18.2233 23.7398 17.9093 23.9008 17.7645 24.0055C17.9255 23.917 17.9496 23.6513 17.8852 23.5547C18.0221 23.4984 18.175 23.3132 18.1911 23.1764C18.3843 23.2086 18.674 23.0798 18.8027 23.112C18.5936 22.8384 18.2475 22.7418 17.8933 22.7659C17.527 22.7861 17.3701 23.0436 17.3218 23.3213C17.1045 23.4501 17.0321 23.8847 17.1126 24.0377C16.9878 24.0337 16.8711 24.1544 16.8228 24.2228C16.6538 24.1503 16.4123 24.0981 16.2393 24.0981M16.3158 23.6595C16.2433 23.4502 16.3393 23.2618 16.3883 23.0961C16.513 22.6736 16.4366 22.5648 16.0583 22.6212C16.0261 22.8224 16.2193 23.4824 16.3158 23.6595Z" stroke="black" stroke-width="0.013025"/>
<path d="M16.0391 22.6457C16.1356 22.7423 16.4777 22.7866 16.514 22.4807C16.5556 22.1296 16.4133 21.9937 16.1075 22.1306C16.0833 22.2111 16.0551 22.5411 16.0391 22.6457Z" fill="white" stroke="black" stroke-width="0.013025"/>
<path d="M16.1113 22.1186C16.2402 22.1708 16.5178 22.2756 16.6707 21.9777C16.799 21.728 16.6305 21.5351 16.3649 21.5511C16.3005 21.6236 16.1717 21.8811 16.1113 22.1186Z" fill="white" stroke="black" stroke-width="0.013025"/>
<path d="M16.3475 21.5271C16.3796 21.6237 16.7096 21.9456 16.9511 21.7122C17.1926 21.4788 17.1926 21.1327 16.8304 21.0039C16.7338 21.02 16.444 21.358 16.3475 21.5271Z" fill="white" stroke="black" stroke-width="0.013025"/>
<path d="M16.8301 21.004C16.9025 21.2052 17.1279 21.5512 17.5464 21.3903C17.965 21.2293 17.7879 20.7062 17.5947 20.6016C17.482 20.6096 17.0232 20.8188 16.8301 21.004Z" fill="white" stroke="black" stroke-width="0.013025"/>
<path d="M17.5964 20.6012C17.5643 20.7782 17.5964 21.2612 18.1679 21.2532C18.7393 21.2452 18.5784 20.5771 18.4336 20.4805C18.2001 20.4805 17.8058 20.4885 17.5964 20.6012Z" fill="white" stroke="black" stroke-width="0.013025"/>
<path d="M18.4557 20.5045C18.3913 20.6412 18.2462 21.542 19.3653 21.2932C19.5101 21.2611 19.8884 20.432 18.4557 20.5045Z" fill="white" stroke="black" stroke-width="0.013025"/>
<path d="M19.0684 20.5847C18.9559 20.6974 19.2454 21.6069 20.0021 21.454C20.7588 21.301 20.1229 20.4398 19.0684 20.5847Z" fill="white" stroke="black" stroke-width="0.013025"/>
<path d="M19.7109 20.7213C19.5903 20.9708 19.7715 21.7113 20.7051 21.7113C21.5511 21.7113 20.6607 20.7374 19.7109 20.7213Z" fill="white" stroke="black" stroke-width="0.013025"/>
<path d="M20.4456 20.9392C20.385 21.0775 20.3107 21.8626 21.4113 21.9292C22.2082 21.9775 22.0152 20.8507 20.4456 20.9392Z" fill="white" stroke="black" stroke-width="0.013025"/>
<path d="M21.6282 21.2689C21.4916 21.5104 21.3466 22.1141 22.5539 22.1624C23.3274 22.1934 22.8519 21.285 21.6282 21.2689Z" fill="white" stroke="black" stroke-width="0.013025"/>
<path d="M22.6348 21.454C22.4577 21.6955 22.5882 22.1693 23.0371 22.2589C23.6006 22.3717 23.6811 21.8404 23.2948 21.5828C22.9083 21.3253 22.6348 21.454 22.6348 21.454Z" fill="white" stroke="black" stroke-width="0.013025"/>
<path d="M23.1823 21.5671C23.0537 21.7924 23.1333 22.3398 23.9872 22.3398C24.1643 22.3398 24.8406 21.6476 23.1823 21.5671ZM16.5743 32.0636C17.2658 32.0636 17.8265 31.5028 17.8265 30.8114C17.8265 30.1198 17.2658 29.5592 16.5743 29.5592C15.8828 29.5592 15.3223 30.1198 15.3223 30.8114C15.3223 31.5028 15.8828 32.0636 16.5743 32.0636Z" fill="white" stroke="black" stroke-width="0.013025"/>
<path d="M25.7589 13.8565C25.6623 13.9531 25.4612 14.2428 25.4208 14.3555C25.0023 15.6111 26.1195 16.549 26.7731 17.897C27.2883 18.9595 27.2239 20.6336 26.4189 21.6961C26.1435 22.0595 26.2258 22.1629 25.8716 22.5332C25.7358 22.6752 25.5818 22.8552 25.6302 23.3703C25.8556 23.2898 26.1775 23.4991 26.2418 23.6762C26.4028 23.5957 26.6283 23.6279 26.7087 23.7244C26.9822 23.5957 27.2077 23.66 27.4491 23.9176C27.6585 23.8854 27.8839 23.9176 28.0931 24.143C28.2058 23.9176 28.4312 23.8371 28.592 23.8854C28.576 23.5957 28.8658 23.3864 29.1233 23.4991C29.0428 23.1127 29.397 22.8229 29.7352 22.9356C30.0247 22.7103 30.6043 22.6942 30.8941 23.0322C30.3789 22.8874 30.3951 23.4347 29.9604 23.3864C30.0731 23.7084 29.7833 23.8935 29.4937 23.9981C29.6787 23.9096 29.8799 23.8049 29.9443 23.9176C30.1053 23.7768 30.4272 23.8291 30.5078 23.9015C30.721 23.8331 30.9264 23.8854 31.0228 24.143C31.3127 24.3201 31.5058 24.7708 31.2966 25.1089C31.2322 24.7547 30.9908 24.7708 30.8941 24.6259C30.6687 24.7064 30.4433 24.7064 30.3789 24.5615C30.2502 24.6903 29.8156 24.803 29.6224 24.6098C29.5499 24.8996 29.3004 25.1411 29.0106 25.1411C29.0912 25.3664 28.8658 25.7529 28.6887 25.946C28.9624 26.0908 28.8818 26.4128 28.8174 26.606C29.236 26.6703 28.8818 27.0406 29.6062 27.282C29.2522 27.3947 28.5599 27.282 28.4633 26.8474C28.1091 26.8314 27.8676 26.4772 27.8839 26.1068C27.6101 25.8493 27.5699 25.4791 27.9483 25.2215C27.6262 25.3181 27.4491 24.803 26.9822 25.0123C26.7501 25.1164 26.1372 24.9398 26.1453 24.7225C26.0486 24.8835 25.4612 24.8191 25.3805 24.5455C25.1874 24.6501 24.7365 24.473 24.7447 24.2074C24.4951 24.3201 24.1572 24.1189 24.1732 23.8613C23.9399 23.8291 23.9157 23.6198 23.9318 23.4428C23.7224 23.3461 23.7788 23.1449 23.8593 22.9035C23.7145 22.7425 23.7788 22.5171 23.8915 22.3078C23.7305 22.1468 23.7628 21.9537 23.8109 21.7283C23.0382 21.6639 22.0703 21.4776 19.8509 20.7947C16.5026 19.7644 15.6011 22.1791 16.3416 23.6923C17.1959 25.4383 16.245 25.8173 16.5348 27.1213C16.8406 27.1856 17.0016 27.4431 16.9855 27.7169C17.1665 27.7248 17.2953 27.8938 17.231 28.2159C17.3839 28.1877 17.5811 28.2319 17.7099 28.3606C17.8226 28.1515 18.1929 28.1031 18.386 28.3446C18.8045 28.3123 19.0138 28.6504 18.9978 29.069C19.223 29.4715 19.1426 29.9625 18.9011 30.2763C18.9253 30.1073 18.9011 29.8659 18.8932 29.7211C18.8782 29.4546 18.5067 29.399 18.547 29.1817C18.3538 29.1977 18.1687 29.0932 18.1043 28.9484C17.9916 29.0448 17.8306 29.0771 17.6938 29.0288C17.9111 29.1254 18.0802 29.5117 18.0158 29.7692C18.1285 29.9625 18.1043 30.3167 17.9675 30.4696C17.9031 30.7833 17.6616 30.8961 17.3477 30.7592C17.5248 30.6467 17.5892 30.4454 17.5811 30.2762C17.4685 30.1798 17.4121 29.9946 17.4041 29.8819C17.0902 29.9302 16.6555 29.6646 16.5754 29.5596C15.8838 29.5596 15.3232 30.1202 15.3232 30.8119C15.291 30.5542 14.9652 30.3004 15.0055 30.0831C14.8123 29.4875 15.086 28.9321 15.8748 28.8196C15.7782 28.5942 16.1163 28.3606 15.9875 28.1031C15.823 27.7741 15.5207 27.3465 15.07 26.8475C15.3436 26.3806 15.2631 25.7529 15.1021 25.3665C14.871 24.8117 14.6514 24.948 13.8304 25.8494C12.4924 27.3185 10.7074 26.9119 9.12976 27.8777C8.71059 28.1344 8.29274 28.2319 8.74343 27.7812C9.19418 27.3304 10.3854 26.8798 11.1581 26.4934C12.6051 25.7698 13.8303 24.5616 14.3133 22.2114C15.4481 16.6884 19.6253 18.5089 22.2653 19.5391C24.7438 20.5064 24.2936 18.3156 23.038 16.9956C21.5288 15.4091 21.8307 14.1625 22.539 13.1644C23.8107 12.9873 26.25 13.4299 25.7589 13.8565Z" fill="white" stroke="black" stroke-width="0.013025"/>
<path d="M30.2408 27.4232C31.0016 27.4232 31.6185 26.8066 31.6185 26.0457C31.6185 25.2848 31.0016 24.668 30.2408 24.668C29.4799 24.668 28.8631 25.2848 28.8631 26.0457C28.8631 26.8066 29.48 27.4232 30.2408 27.4232Z" fill="white" stroke="black" stroke-width="0.013025"/>
<path d="M24.9847 13.9199C24.6789 15.2722 24.9364 15.8839 25.3872 16.4795C26.3187 17.7105 27.0614 20.52 25.9989 22.355" stroke="black" stroke-width="0.013025"/>
<path d="M26.5941 20.7703C26.7229 20.7221 26.9643 20.5692 27.0208 20.3036M26.6906 20.1828C26.7308 19.9494 27.0929 19.8488 27.1009 19.5993M26.6986 19.2728C26.6744 19.0313 27.0609 18.8141 27.0044 18.5727M26.4896 18.4038C26.4573 18.2671 26.8114 18.0094 26.7149 17.7922M26.2241 17.5588C26.1516 17.4059 26.3931 17.2288 26.2884 17.0678M25.8376 16.8823C25.8134 16.7777 25.9624 16.5483 25.8819 16.4116M25.4511 16.0858C25.4832 16.0457 25.6121 15.9491 25.5596 15.8283M25.1856 15.5023C25.2379 15.4742 25.3948 15.4258 25.3748 15.3092" stroke="black" stroke-width="0.013025" stroke-linecap="round"/>
<path d="M17.1311 30.6777C16.8091 30.565 16.4067 30.7261 16.3262 30.9997M16.5676 31.2492C16.6078 30.9757 17.0263 30.8547 17.1551 30.9836C16.8895 30.8387 16.7607 31.3537 16.9941 31.3701M19.1596 24.8827C18.9665 24.9793 18.9102 25.3335 19.1596 25.5992M19.4491 24.9632C19.3123 25.0759 19.3203 25.414 19.5216 25.4945C19.3526 25.3737 19.5216 25.1645 19.6423 25.1564C19.763 25.1484 19.8433 25.2932 19.6987 25.4381M30.7581 25.7597C30.3075 25.6391 29.9452 26.1622 30.3556 26.6291C30.3477 26.1783 30.6696 25.8806 31.0638 25.961M30.8826 26.2727C30.7717 26.2727 30.7095 26.3594 30.7095 26.4437C30.7095 26.5322 30.7858 26.6169 30.9107 26.6169C30.9913 26.6169 31.0557 26.5244 31.0557 26.4519M32.4721 16.3907C32.5446 16.6644 32.9228 16.7771 33.2206 16.7127M33.2206 16.5357C32.9872 16.5437 32.7941 16.3265 32.8102 16.1413C32.8102 16.2782 33.1241 16.3426 33.2206 16.254" stroke="black" stroke-width="0.013025" stroke-linecap="round" stroke-linejoin="round"/>
<path d="M17.2414 25.7284C17.177 25.5674 17.4346 25.4064 17.4427 25.2534C17.4507 25.1006 17.7324 24.9798 18.0222 25.2696M17.8854 23.5554C17.8291 23.5796 17.7808 23.6118 17.7325 23.6279M18.4409 24.4323C18.3725 24.4365 18.2317 24.4284 18.1552 24.3761M18.1594 24.7383C18.1031 24.7666 17.9783 24.8148 17.9058 24.831M15.3984 29.5999C15.3904 29.7449 15.5353 29.9541 15.6157 30.0183M16.0264 29.2538C15.9459 29.3746 15.8977 29.5838 15.9459 29.7287M17.2254 29.7368C17.0805 29.6403 17.1771 29.3907 17.161 29.2298C17.1449 29.0688 17.33 28.8113 17.6923 29.0286M15.8734 28.8194C16.0183 28.7953 16.1712 28.8032 16.2678 28.8434M17.7084 28.3604C17.644 28.4489 17.6279 28.5456 17.6199 28.61M18.3844 28.3443C18.2717 28.3443 18.1752 28.4248 18.1269 28.5053M16.8229 24.2233C16.9517 24.2677 17.2857 24.4728 17.2978 24.6863M18.1914 23.1769C17.797 23.1689 17.6441 22.7663 17.9419 22.7663M18.8999 23.7159C18.747 23.7803 18.8195 24.0458 19.0368 24.1747M17.9579 26.2434C17.8814 26.1469 17.9821 25.8653 18.2316 25.9497M18.5454 29.1813C18.5614 28.936 18.8714 28.791 18.9962 29.0687M17.4024 29.8814C17.3823 29.6118 17.5191 29.5233 17.6398 29.5073C17.7606 29.4912 17.9337 29.5916 18.0142 29.7687M15.0039 30.0829C15.02 29.9219 15.1569 29.7528 15.3017 29.7771M29.7334 22.9353C29.6286 23.0118 29.5603 23.3538 29.9586 23.3862M29.1219 23.4988C29.1219 23.5392 29.1742 23.5955 29.2065 23.6197M31.0214 24.1429C30.9168 24.0624 30.6471 24.3883 30.8927 24.6258M28.4619 26.8474C28.4015 26.618 28.6148 26.5576 28.8161 26.6058M27.9469 25.2214C28.0676 25.1409 28.1884 25.0523 28.3413 25.0122M27.8824 26.1063C27.8824 25.9133 27.9789 25.7523 28.0674 25.7041M28.5904 23.8854C28.5744 24.1188 28.6711 24.3442 28.7436 24.4649M30.5064 23.9013C30.3896 23.9377 30.2849 23.9819 30.2408 24.0785M30.3774 24.5613C30.4339 24.5131 30.4983 24.4568 30.5264 24.4166M33.4199 17.5344C33.4199 17.7598 33.1383 17.8805 32.9533 17.7356M34.0319 17.5424C34.1565 17.639 34.5871 17.5465 34.4865 17.2968M33.5084 18.8383C33.4199 18.8223 33.2669 18.7257 33.2026 18.6453M34.3939 18.1704C34.2491 18.2026 34.1524 18.1704 34.0799 18.1382M32.1079 18.9754C32.1883 18.9754 32.3814 18.9432 32.5144 18.8748M31.8664 17.5508C31.7618 17.5388 31.6852 17.559 31.6249 17.5992M33.4884 17.9449C33.4603 18.0456 33.3878 18.2025 33.2993 18.2709" stroke="black" stroke-width="0.013025" stroke-linecap="round"/>
<path d="M31.5938 18.2985C31.7949 18.21 32.0446 18.8941 32.5274 18.6527M32.5677 17.944C32.5033 18.0325 32.4632 18.1694 32.4551 18.2901" stroke="black" stroke-width="0.013025" stroke-linecap="round" stroke-linejoin="round"/>
<path d="M22.9406 16.8988C23.0051 16.8908 23.1178 16.8666 23.142 16.7861M14.6581 24.3923C14.8996 24.5291 15.0686 24.7625 14.9641 25.1086M25.7251 16.1583C25.7976 16.2066 26.0715 16.2066 26.2244 16.1502M26.4176 16.3192C26.4096 16.432 26.4419 16.8585 26.2246 16.9471M26.3051 16.8907C26.5065 16.9552 26.909 16.931 27.0376 16.5608M26.7556 16.8742C26.8603 17.0352 26.8924 17.3492 26.5786 17.5182M26.8361 17.1402C27.0696 17.2207 27.6089 17.2288 27.5525 16.77M27.3676 17.1402C27.5286 17.3656 28.2371 17.6313 28.1244 17.1643M26.7156 17.7918C26.9891 17.8562 27.3756 17.671 27.2146 17.1881M27.9871 17.4297C28.0274 17.6148 28.9289 17.8081 28.8083 17.3895M28.6391 17.6312C28.8084 18.0176 29.7016 17.9853 29.4201 17.4703M29.2751 17.8722C29.4523 18.0896 30.2413 17.9608 29.9273 17.4376M29.9186 17.8643C30.4096 18.2345 30.9811 17.7033 30.3614 17.3168M30.6431 17.7438C31.078 18.0898 31.6093 17.462 31.2309 17.285M27.2061 17.5987C27.3431 17.639 27.6329 17.6228 27.6971 17.3733M27.5886 17.5423C27.5726 17.9085 28.1885 18.0493 28.3454 17.6267M28.1401 17.8562C28.2529 18.0977 28.7921 18.1942 28.8806 17.8482M28.7921 18.0092C28.8806 18.2507 29.3476 18.2266 29.4764 17.9771M29.3071 18.1382C29.452 18.4522 30.0476 18.4522 30.1845 17.9933M30.0801 18.1942C30.3136 18.3392 30.8126 18.2828 30.7723 17.8321M30.6756 18.1542C31.0216 18.436 31.5128 18.1623 31.2714 17.6873M31.2471 18.5243C31.4324 18.4921 31.5289 18.1217 31.3356 18.0252M26.9571 18.5888C27.3435 18.3795 27.416 18.0253 27.1503 17.6793M27.2871 18.2348C27.5286 18.3796 27.9874 18.2267 28.0679 17.8726M27.6171 18.2747C27.7539 18.4517 27.7781 18.6692 27.601 18.8703M27.7296 18.5003C28.1561 18.2347 28.6874 18.7257 28.2931 19.0235M28.2206 18.4762C28.3174 18.4521 28.4864 18.2751 28.5024 18.0737M28.4136 18.6612C28.5908 18.4761 29.7983 18.8545 29.0335 19.2408M28.9771 18.1542C29.2106 18.2427 29.3314 18.5727 28.9771 18.6855M29.2831 18.9593C29.5406 18.6937 30.3456 18.8627 30.0559 19.2007M29.8626 18.8543C30.0075 18.3633 30.8688 18.6691 30.5871 18.8703M29.6856 18.3632C29.7099 18.4598 29.7178 18.7013 29.557 18.8301M30.4101 18.2668C30.4423 18.3473 30.4344 18.5002 30.3619 18.5967M30.9571 18.2747C31.0056 18.3632 31.086 18.5323 30.9089 18.6692M24.0676 14.5723C24.0756 15.031 24.2366 15.3368 24.8565 15.0472M24.2606 15.1197C23.9549 15.5302 24.3009 15.973 24.9046 15.5303M23.3186 15.3207C23.7371 15.7715 24.4858 15.4415 24.0029 14.7573M24.5101 15.7072C24.4296 16.15 24.7919 16.2385 25.0896 16.0373M22.9486 15.3932C23.025 15.8382 23.48 16.1901 23.9226 15.9165M23.4961 16.0053C23.4961 16.6412 24.3735 16.7136 24.5748 16.0536M24.2606 16.4557C24.5424 17.0352 25.1541 16.8018 25.3553 16.4478M23.6406 15.5303C23.7534 15.812 23.9789 16.1258 24.502 15.8925M22.0311 15.3932C22.1036 15.6267 22.5221 15.9083 23.0051 15.5863M22.3286 15.6912C22.071 16.0696 22.5861 16.4237 23.206 15.8602M22.6346 16.1583C22.7393 16.6895 22.9485 17.1161 23.7051 16.4318M23.3266 16.7052C23.6005 17.0432 24.019 17.2526 24.4134 16.6811" stroke="black" stroke-width="0.013025"/>
<path d="M24.7044 16.8021C24.6803 17.2045 24.7607 17.4057 25.0746 17.3896C25.3221 17.377 25.5576 17.1804 25.6944 16.9711M25.0184 17.3901C25.0103 17.8489 25.3724 18.2111 26.0486 17.7442M25.2999 17.9291C25.1712 18.2752 25.5574 18.8386 26.3141 18.5488M23.6984 17.0116C23.6503 17.4543 24.0607 17.7521 24.7207 17.1806M24.0204 17.5026C24.0446 17.8648 24.455 18.2994 25.0588 17.6716M24.3099 17.9616C24.2616 18.5813 24.8331 18.7584 25.316 18.2836M23.4489 17.5026C23.5777 17.5106 23.6823 17.398 23.7466 17.3174M23.7224 17.9531C23.8351 17.9772 24.0284 17.8726 24.0928 17.7438M24.0044 18.6856C24.1332 18.8224 24.5678 18.7258 24.624 18.5407M24.4874 18.6776C24.7289 19.241 25.3726 19.2168 25.6383 18.581M25.5174 18.8066C25.6381 19.1366 25.9441 19.3458 26.4431 19.2332M25.7589 19.1446C25.4773 19.6034 25.8474 20.1426 26.4752 19.6114M25.9119 19.8286C25.8798 20.1183 26.1454 20.4483 26.5076 20.4886M24.7204 18.9836C24.6238 19.6355 25.0906 19.9495 25.6783 19.6033M24.0364 19.2976C24.1893 19.4183 24.4631 19.4344 24.7206 19.3378M25.0344 19.7161C24.8894 20.2634 25.4529 20.6578 25.9359 20.0461M24.2539 19.3861C24.2621 19.6678 24.5358 19.9736 25.0106 19.8851M26.3384 20.4486C26.0163 20.6659 25.9519 21.0522 26.4028 21.3017M25.5494 20.3356C25.5657 20.6656 25.7186 20.8507 26.0807 20.8829M25.0749 20.1666C24.592 20.6093 25.0668 21.1244 25.6383 20.6898M25.4129 20.8266C25.2519 21.3337 25.8556 21.6395 26.1775 21.1244M24.4149 19.7481C24.2378 20.2471 24.4633 20.5771 24.8737 20.5449M23.7789 19.6516C23.8031 19.9494 24.0606 20.054 24.3504 19.9896M23.9639 19.9656C23.7466 20.3841 24.0766 20.6095 24.5114 20.4485M25.8314 21.3821C25.7589 21.6477 25.7991 21.8409 26.1935 21.9294M25.8554 21.7606C25.3804 21.9779 25.3402 22.4367 25.7104 22.7345M25.4729 21.2496C25.2236 21.475 25.2717 21.8652 25.5454 22.0182M23.3604 19.7806C23.0867 20.0502 23.3483 20.7947 23.9519 20.3883M24.9299 20.7221C24.5595 21.0279 24.7287 21.5833 25.3403 21.4304M24.3179 20.4886C24.1248 21.0359 24.31 21.2291 24.7446 21.2371" stroke="black" stroke-width="0.013025"/>
<path d="M22.9593 19.7554C22.6293 20.0049 22.7178 20.359 22.8628 20.52C23.0076 20.681 23.2812 20.6085 23.3697 20.3993M22.2668 19.5384C21.8966 20.0133 22.2668 20.5767 22.7901 20.4077M24.2473 20.9469C23.8689 21.0837 23.5804 21.4272 23.8126 21.7276C23.9494 21.9047 24.5451 21.9289 24.7141 21.2447M23.5628 20.5039C23.3456 20.8178 23.4178 21.1156 23.8203 21.2685M23.5388 21.0919C23.3053 21.2207 23.1523 21.3736 23.2088 21.6553M23.0158 20.6009C22.9273 20.9792 23.0318 21.2126 23.2651 21.3253M23.0078 21.0514C22.6456 21.0272 22.4606 21.1801 22.5811 21.5343M22.6133 21.1399C22.2591 21.0111 22.2026 20.7052 22.3556 20.3833M22.3073 20.8584C21.9208 20.8745 21.7519 21.0676 21.7519 21.3333" stroke="black" stroke-width="0.013025"/>
<path d="M21.7829 19.3535C21.5012 19.4742 21.4127 19.8525 21.5172 20.0617C21.6221 20.271 21.9521 20.2872 22.1533 20.1502M20.9944 19.056C20.7369 19.3457 21.0346 19.9092 21.4936 19.7722M20.3344 18.8305C20.0929 19.1685 20.3586 19.732 20.9783 19.571M21.0104 21.1405C20.9461 20.738 21.3646 20.4723 21.8798 20.9956M21.6304 20.183C21.4776 20.3197 21.4052 20.5371 21.4291 20.7142M19.6744 18.6375C19.4087 19.0882 19.7309 19.4987 20.3023 19.3377M21.1634 19.756C20.7851 20.1342 20.9138 20.5126 21.1956 20.7298M20.9219 20.199C20.3504 20.207 20.3183 20.867 20.7852 21.0762M20.4874 19.539C20.2541 19.7 20.1816 20.1426 20.5841 20.3197M20.4714 20.529C20.2299 20.4162 19.9401 20.5531 19.9643 20.8347M20.1089 20.537C19.8916 20.0217 19.2557 20.1103 19.3122 20.6416M20.2859 19.901C20.1492 19.9251 19.8756 20.0056 19.7709 20.2148M19.8114 19.3215C19.5539 19.6112 19.7549 19.9572 19.9643 20.0297M19.0469 18.5085C18.9986 18.8546 19.1354 19.0236 19.5701 18.9913M19.1994 18.9515C19.0302 19.37 19.2556 19.5551 19.6902 19.531M19.2959 19.4665C19.0384 19.7722 19.2156 20.1023 19.4649 20.2392M19.1754 19.853C18.7166 19.7966 18.6441 20.3278 18.7971 20.5773" stroke="black" stroke-width="0.013025"/>
<path d="M18.8039 18.4681C18.5222 18.5888 18.3612 18.943 18.5141 19.1603C18.6671 19.3776 18.9729 19.3051 19.1419 19.1925M18.6109 19.2566C18.3774 19.6107 18.5866 19.8763 18.8362 19.981" stroke="black" stroke-width="0.013025"/>
<path d="M17.7081 18.4277C17.5229 18.6209 17.6356 19.0153 18.0863 19.0234C18.4492 19.0299 18.6336 18.6853 18.5209 18.4439M18.0221 19.0233C17.8772 19.3453 17.9657 19.6913 18.5131 19.6349M18.7466 20.1423C18.4086 19.9893 17.9577 20.1423 18.1509 20.5448M18.1026 19.5707C17.9657 19.7639 18.0141 20.0377 18.1669 20.2067M18.0786 20.0858C17.8532 20.126 17.6358 20.2467 17.7727 20.6009M17.7401 20.3113C17.4502 20.2228 17.0801 20.432 17.3053 20.7298M17.2576 20.4482C17.0081 20.408 16.7102 20.6737 16.9517 20.9392M16.8551 20.7217C16.6297 20.7782 16.3641 21.0357 16.5974 21.2369M17.9901 19.4582C17.6681 19.6032 17.6358 19.9653 17.7887 20.2309M17.6516 18.7903C17.1686 18.9754 17.1767 19.6193 17.7078 19.8205M17.4826 19.6752C17.1927 19.8442 17.1364 20.1662 17.3297 20.3755M16.9756 18.5488C16.7823 18.6132 16.7984 19.2087 17.3136 19.1927M16.4446 18.7497C16.0582 19.0073 16.5251 19.6593 17.1528 19.1924M16.8066 19.3532C16.7502 19.6189 16.8227 19.9087 17.2492 19.9408M16.8306 19.7077C16.5247 19.8204 16.4683 20.4482 17.0237 20.4965M15.8571 19.1362C15.4627 19.4984 16.1791 19.8123 16.4447 19.2892M15.3096 19.7397C15.1163 19.9732 15.7924 20.5849 16.0902 19.5627M16.1626 19.5468C16.1787 19.7883 16.3236 19.9332 16.6212 19.9493M16.6136 20.1827C16.1387 20.2552 15.9857 20.8508 16.5169 20.9797M15.7361 20.1023C15.7199 20.3277 15.9533 20.5127 16.2189 20.4725M16.4606 20.9633C16.0258 21.0598 15.9696 21.6233 16.3559 21.591M16.1546 22.1143C15.7922 22.0057 15.7842 21.5749 16.1062 21.414" stroke="black" stroke-width="0.013025"/>
<path d="M15.8576 21.7358C15.5516 21.921 15.6725 22.3636 15.8333 22.428C15.9943 22.4924 16.1231 22.4119 16.1392 22.2751M16.1151 22.8948C16.1472 23.1041 15.3705 23.0236 15.769 22.3718M15.7646 22.9313C15.503 23.3418 15.9296 23.6758 16.1991 23.3258M15.8011 23.4263C15.6963 23.7563 16.0947 23.9938 16.3523 23.7363M14.9316 20.3353C14.7866 20.6331 15.5111 20.7458 15.5593 20.1341M14.7306 20.7783C14.5856 21.3578 15.6802 21.2371 15.3986 20.4886M15.4226 20.8748C15.5755 20.9633 16.0342 20.9714 16.147 20.4804M15.8171 20.8908C15.8492 21.0438 15.9861 21.2288 16.1148 21.2853M15.2941 21.0438C15.2457 21.3578 15.5596 21.6153 15.9218 21.5913M15.3501 21.3498C15.173 21.5913 15.1166 22.0581 15.6721 22.0903M14.5051 21.4303C14.4166 21.6798 14.9396 21.9374 15.2456 21.5269M14.3441 22.0658C14.2997 22.255 14.7706 22.5085 15.0362 21.7036M14.8271 22.1143C14.9397 22.3155 15.3181 22.4765 15.5515 22.0821M15.1731 22.3238C15.0765 22.6055 15.3421 22.8711 15.6641 22.7908M14.5696 22.2593C14.5051 22.6618 14.972 22.8953 15.2617 22.6859M14.2636 22.4363C14.1267 22.9515 14.7867 23.1446 15.0362 22.7583M14.8676 22.9113C14.8916 23.2011 15.3425 23.4506 15.6966 23.2091M14.0626 23.1528C14.0303 23.2816 14.5696 23.4104 14.6501 22.9596M14.3766 23.2653C14.5052 23.5953 14.94 23.6758 15.1895 23.2734M15.0446 23.4343C15.1008 23.7403 15.4952 23.9093 15.8413 23.6999M15.9861 23.8208C15.8976 24.2313 16.3241 24.5613 16.5896 24.336M15.3021 23.7483C15.1732 24.1991 15.7366 24.4566 16.0506 24.2071M14.6261 23.5228C14.5938 23.9413 14.9238 24.1909 15.3021 24.0058M13.9096 23.5633C13.7968 23.837 14.3925 24.0623 14.6741 23.829M13.5391 24.3118C13.692 24.4889 14.2231 24.3118 14.2715 23.9174M14.1271 24.2068C14.3201 24.4323 14.779 24.5529 14.9641 24.07M14.8031 24.3198C14.795 24.6659 15.4147 24.9155 15.616 24.2796M16.3441 24.4043C16.2876 24.5733 16.4206 24.843 16.6981 24.8753M15.8331 24.2998C15.7927 24.493 16.0746 24.7626 16.3723 24.654M16.4291 24.7343C16.3486 24.9436 16.417 25.2454 16.6986 25.2414M16.4571 25.1248C16.2477 25.3019 16.3362 25.6158 16.6381 25.6279M16.3486 25.4223C16.0507 25.6234 16.1553 26.0663 16.5497 26.0423M15.4471 24.5693C15.4471 25.004 15.9862 25.0683 16.091 24.6659M15.8816 24.9233C15.8011 25.1809 16.0102 25.4304 16.3402 25.358M15.9461 28.0303C16.0186 28.1351 16.3162 27.958 16.2357 27.781C16.1552 27.6039 15.8398 27.7001 15.8736 27.8855M16.1631 27.7083C16.2032 27.3543 15.7847 27.2979 15.6801 27.6038M15.8331 27.4268C15.9376 27.2498 15.5836 27.0083 15.4386 27.2658M15.5676 27.1608C15.6641 26.9031 15.2616 26.7906 15.2295 27.024M15.1411 26.6858C15.1893 26.5571 15.6401 26.6375 15.4468 26.9031M15.7931 27.2253C15.9701 27.0643 15.6723 26.7343 15.4871 26.8551M16.9841 27.7163C16.8431 27.7323 16.6982 27.8248 16.8028 28.1228C16.8755 28.3295 17.1852 28.3401 17.2295 28.2153" stroke="black" stroke-width="0.013025"/>
<path d="M16.7776 27.8653C16.6409 27.7768 16.3431 27.9257 16.4799 28.2155M16.4799 28.2155C16.5829 28.4337 16.8421 28.3443 16.8824 28.2316M16.4799 28.2155C16.4195 28.3484 16.0771 28.4005 16.0086 28.2798M16.2421 27.8813C16.3146 27.833 16.4474 27.8932 16.4756 27.9536M16.2181 25.8973C15.9848 26.0502 16.1296 26.5171 16.4919 26.3963M16.1456 26.2758C15.9606 26.4206 16.1296 26.8715 16.4756 26.7025M16.2021 26.7023C16.0735 26.8311 16.1981 27.1892 16.5321 27.1208M16.1536 26.8793C16.0811 26.847 15.8921 26.8712 15.8116 26.9918M15.9446 25.2493C15.7676 25.4183 15.8521 25.7645 16.1821 25.7926M15.8801 25.6033C15.6266 25.7281 15.6266 26.231 16.1336 26.2512M15.8601 26.1708C15.7194 26.2835 15.7878 26.7181 16.15 26.6617M15.9766 26.6458C15.9244 26.6981 15.9163 26.831 15.9606 26.8873M15.8156 26.4808C15.687 26.4848 15.5179 26.5775 15.4736 26.7102M15.2401 26.2433C15.2885 26.1146 15.687 26.1227 15.7151 26.501M15.7551 26.0503C15.6989 26.0624 15.5901 26.1147 15.5621 26.2234M15.5821 24.8713C15.4091 25.0283 15.3246 25.5233 15.8518 25.6198M15.2321 25.8933C15.2321 25.7604 15.5904 25.6477 15.7151 25.845M15.0026 25.1728C15.055 25.2735 15.3045 25.4103 15.4575 25.2976M13.7066 24.3843C13.6986 24.6177 13.8919 24.827 14.1575 24.7948C14.4231 24.7626 14.4795 24.5292 14.399 24.3763M14.1976 24.8028C14.0206 25.0201 14.238 25.326 14.4391 25.2375M14.3991 24.6498C14.5039 24.6096 14.85 24.5613 14.9546 24.7223M13.2801 24.7143C13.1996 24.8351 13.6988 24.9558 13.8678 24.7223M13.6986 24.8428C13.6826 25.0038 13.7631 25.2775 14.1736 25.1648" stroke="black" stroke-width="0.013025"/>
<path d="M14.2406 25.414C14.305 25.2771 13.9991 25.0518 13.7657 25.3013C13.5323 25.5508 13.7979 25.8325 13.9428 25.7359M13.1701 24.875C13.0494 25.0842 13.5162 25.4666 13.7819 25.1125" stroke="black" stroke-width="0.013025"/>
<path d="M12.8601 25.2368C12.6911 25.4098 12.9002 25.7277 13.1538 25.6311C13.4073 25.5345 13.3832 25.2689 13.3228 25.2005" stroke="black" stroke-width="0.013025"/>
<path d="M12.5338 25.5595C12.397 25.6842 12.5298 25.978 12.719 25.978C12.9081 25.978 13.0248 25.8292 12.9886 25.64M13.3023 25.5355C13.2782 25.7206 13.5518 25.8493 13.7289 25.6764M13.7373 25.338C13.7615 25.2977 13.7414 25.2292 13.7012 25.1971M12.2403 25.809C12.0834 25.9338 12.4215 26.2798 12.6347 25.9619M13.4513 25.7405C13.3507 25.837 13.5117 26.0905 13.6726 26.014M12.9003 25.9175C12.9245 26.0904 13.2625 26.2191 13.4758 25.9537M13.0853 26.0905C13.033 26.1992 13.1377 26.3724 13.2665 26.3482M16.2888 27.085C16.1641 27.3304 16.5625 27.6162 16.8523 27.3183M16.5783 27.451C16.518 27.5837 16.5904 27.7689 16.6991 27.8372M16.2003 27.7285C16.2285 27.6076 16.4015 27.495 16.5585 27.5514M15.9908 27.4105C16.015 27.302 16.1598 27.1932 16.2685 27.2215M25.6293 23.1285C25.1383 23.3136 24.8969 22.396 25.4683 22.388C25.1222 22.4605 24.857 22.3156 24.8328 22.1305M25.2833 23.0645C25.1706 23.2496 25.3879 23.5434 25.6293 23.3702M25.5653 23.4065C25.3962 23.6882 25.9999 24.1188 26.2414 23.6761M26.0483 23.845C26.0562 24.1106 26.829 24.2796 26.7165 23.7484M26.6438 24.038C26.8288 24.3519 27.5211 24.3841 27.4486 23.9172M27.2958 24.2395C27.4408 24.4487 28.1169 24.5775 28.0927 24.1429M24.5508 21.5915C24.6473 21.841 24.9773 21.9295 25.3396 21.7846M24.3418 21.7685C24.5672 21.9132 24.2372 22.5734 23.8912 22.3077M24.3418 22.179C24.5914 22.2997 24.8972 22.2112 24.9858 21.857M24.2128 22.324C24.5349 22.5976 24.068 23.1611 23.8587 22.9035M24.3338 22.533C24.4867 22.6457 24.8811 22.5813 24.9213 22.2835M24.7443 22.533C24.7766 22.7261 24.9295 22.7986 25.1468 22.8066M24.2453 22.7985C24.4062 23.0239 24.8087 23.0882 24.9857 22.7905M25.2833 23.3056C25.0337 23.3539 24.7923 23.1768 24.8083 22.9595C24.8406 23.2653 24.4623 23.4263 24.2208 23.2895C24.4541 23.4988 24.4224 23.8771 24.1728 23.861M23.9313 23.4425C24.1405 23.5471 24.3659 23.1527 24.1888 22.8791M24.7443 24.207C24.9537 24.1587 24.8891 23.6999 24.382 23.6596M25.3798 24.5455C25.5811 24.4891 25.42 23.982 24.8648 24.0142M26.1448 24.7225C26.2815 24.5132 25.8308 24.1591 25.4607 24.3442M26.5228 25.012C26.7724 25.0844 26.9413 24.4244 26.1526 24.529M26.9818 25.012C27.1993 24.9556 27.3522 24.5612 26.7164 24.69M27.4648 25.0445C27.6579 25.1411 27.7465 24.5776 27.1588 24.7306M24.7118 23.2255C24.7925 23.3702 24.7602 23.6521 24.6072 23.7245M24.7358 23.5635C24.8968 23.6279 25.1142 23.5715 25.2429 23.314M25.0178 23.5635C25.066 23.6762 25.0822 23.9015 24.9774 24.0142M25.0583 23.7565C25.2354 23.8531 25.4446 23.7242 25.5331 23.5391M25.4203 23.7C25.5491 23.7805 25.6618 24.1587 25.4445 24.3117M25.5653 24.135C25.7182 24.143 25.9437 24.143 26.0885 23.9498M25.9838 24.0545C26.1207 24.0947 26.2815 24.3201 26.2253 24.5213M26.2333 24.4485C26.3865 24.4324 26.6518 24.3277 26.7243 24.1426M26.6518 24.2635C26.7808 24.3359 26.8693 24.4888 26.8531 24.6659M26.8528 24.537C27.0057 24.529 27.1426 24.4485 27.1828 24.2794M27.1428 24.3925C27.2555 24.4327 27.3924 24.5615 27.4005 24.7145M27.3843 24.6175C27.497 24.6014 27.5774 24.529 27.65 24.4162M27.9558 24.4005C28.1008 24.5454 27.9077 25.0283 27.6098 24.9398M24.8648 14.645C24.5669 14.822 23.7217 14.7657 24.1402 14.0655M24.9453 14.17C24.3578 14.4034 23.6332 13.9527 24.3899 13.4617M24.1888 13.301C23.6978 13.301 23.3678 14.0897 24.028 14.3634M22.2813 13.631C22.1526 13.8805 22.6113 14.1541 22.9253 13.9046C23.1684 13.7112 23.1505 13.1882 23.0057 12.987M22.0318 14.2265C21.8708 14.7577 23.0541 14.7899 22.8689 13.9447M21.9673 15.0155C22.0075 15.4179 23.1023 15.2891 22.748 14.4762M22.8768 14.2505C22.9653 14.3712 23.2068 14.5805 23.6172 14.5402M23.0698 13.679C23.1061 13.8237 23.3515 13.9365 23.6655 13.8279M12.0873 25.9255C11.8097 26.1227 12.2363 26.4326 12.3932 26.0905M11.8698 26.0785C11.5922 26.2756 12.0188 26.5854 12.1757 26.2433M11.6403 26.2275C11.3626 26.4248 11.7892 26.7346 11.9462 26.3925M11.3988 26.3645C11.1332 26.5052 11.4431 26.8514 11.7127 26.5455M11.1373 26.4975C10.8717 26.6381 11.1816 26.9844 11.4512 26.6785M12.4858 26.0825C12.4818 26.2877 12.8722 26.3723 13.013 26.0662M12.7313 26.272C12.6106 26.4249 12.832 26.6141 12.9527 26.5455M12.2118 26.2435C12.1997 26.4166 12.5378 26.5172 12.7028 26.3281M12.3973 26.425C12.2886 26.5658 12.5019 26.755 12.6388 26.6985M11.9868 26.4005C11.9988 26.5373 12.192 26.6942 12.4013 26.6057M12.1113 26.5855C12.0308 26.658 12.0711 26.8271 12.1838 26.8795M11.6928 26.5735C11.6606 26.6982 11.874 26.9197 12.0913 26.7747M11.7368 26.7185C11.6081 26.8191 11.6241 26.972 11.7891 26.992M11.4273 26.7025C11.4112 26.7869 11.5199 26.9237 11.6568 26.9077M10.7388 26.6945C10.6101 26.7628 10.9401 27.113 11.1453 26.787M10.4208 26.839C10.2598 26.9156 10.6583 27.3019 10.8354 26.9075M11.4633 26.823C11.3385 26.8511 11.2581 27.0324 11.3627 27.1046M11.0568 26.8875C11.0407 26.96 11.1937 27.0806 11.3185 27.0365M10.9523 26.92C10.8316 26.9965 10.896 27.2096 11.0368 27.1775M10.5218 27.0605C10.4091 27.1449 10.4856 27.314 10.6426 27.2738M10.7268 27.0485C10.7309 27.0926 10.8315 27.1612 10.916 27.1331M10.1313 26.976C9.99059 27.0364 9.99859 27.3906 10.4735 27.1975M9.81334 27.117C9.61609 27.2136 9.68051 27.4793 10.1111 27.2257M10.1473 27.246C10.095 27.2862 10.0387 27.4632 10.2358 27.3947M9.78534 27.33C9.70484 27.4025 9.75717 27.5515 9.93434 27.495M9.37084 27.3545C9.22601 27.4391 9.54384 27.5518 9.75717 27.3263M9.46734 27.459C9.40293 27.5234 9.40293 27.7125 9.57193 27.6442M9.05684 27.5355C8.96026 27.608 9.12526 27.7046 9.42709 27.5717M9.17734 27.64C9.06468 27.7325 9.07668 27.8491 9.24176 27.8129M8.84334 27.6925C8.71859 27.8052 8.89968 27.8816 9.11701 27.789M8.84734 27.8175C8.63401 27.914 8.72659 28.091 8.85934 28.0227M15.9708 28.433C15.9213 28.5395 16.0835 28.6261 16.2365 28.602C16.3833 28.5788 16.5239 28.4578 16.4135 28.2882M16.4213 28.4975C16.5662 28.6102 16.8238 28.4815 16.8238 28.3123" stroke="black" stroke-width="0.013025"/>
<path d="M25.2977 11.4421C24.6538 11.1201 23.3177 10.5245 22.9394 11.0074C23.2854 10.8626 24.2996 11.0155 25.1367 11.7882L25.2977 11.4421Z" fill="white" stroke="black" stroke-width="0.013025"/>
<path d="M25.6894 11.4074C24.9448 10.5401 24.5063 10.7342 23.9709 10.4355C23.468 10.1548 22.6669 10.0974 22.5117 10.5438C23.2465 10.186 23.9211 10.7363 24.3355 10.8028C24.9046 10.8942 25.2259 11.3343 25.3924 11.5366L25.6894 11.4074ZM28.4944 11.2964C28.1079 10.411 27.2817 10.6423 26.9167 10.2662C26.3857 9.71883 25.0415 9.21175 24.4861 9.59008C25.7094 9.52567 26.2305 10.4333 26.8846 10.7491C27.3515 10.9745 27.8505 11.4574 28.4944 11.2964Z" fill="white" stroke="black" stroke-width="0.013025"/>
<path d="M27.0461 11.1997C26.3861 10.3787 25.3717 9.65433 24.9051 9.928C25.5167 9.96017 25.7098 10.3868 26.1446 10.6604C26.5792 10.9341 26.3861 11.3285 27.0461 11.1997ZM23.9066 12.6487C23.2144 12.3912 21.8622 12.2624 21.2343 13.0512C22.2807 13.2282 23.8582 13.1317 23.9066 12.6487Z" fill="white" stroke="black" stroke-width="0.013025"/>
<path d="M23.7773 12.9548C23.0851 12.6328 22.5444 13.0824 21.8938 13.0192C20.6543 12.8983 19.7689 12.9708 19.6562 13.5664C20.3647 12.9306 21.5558 13.4538 22.0387 13.3249C22.5217 13.1962 24.3087 13.3088 24.8719 13.5503C24.5822 13.1962 24.1316 13.0997 23.7773 12.9548ZM25.9503 11.1113C25.7896 10.5799 25.7974 10.0166 26.5943 10.0568C26.3931 9.80733 25.6527 9.67858 25.5318 10.6122C24.6544 9.96833 23.6966 9.85567 23.5197 10.4111C23.9703 10.0247 24.6706 10.3063 25.5077 11.2562C25.5802 11.2159 25.7733 11.1354 25.9503 11.1113Z" fill="white" stroke="black" stroke-width="0.013025"/>
<path d="M24.7422 11.8438C24.2432 11.5218 23.5671 10.9986 24.7505 10.7893C24.2434 10.5157 23.5027 10.6363 23.5834 11.5701C22.2311 11.0228 21.26 11.2074 21.0559 11.7472C20.8304 12.3428 21.6677 12.6728 21.8125 12.2944C21.6596 12.3588 21.1365 12.1818 21.41 11.8438C21.6837 11.5058 23.0862 11.7594 24.4204 12.4554C24.7906 12.6487 26.0624 12.6164 24.7422 11.8438Z" fill="white" stroke="black" stroke-width="0.013025"/>
<path d="M24.3882 12.7291C24.0032 11.943 22.7543 12.6566 22.5026 11.8952C22.1586 13.0108 24.2786 12.3935 24.3882 12.7291ZM32.3327 13.5821C32.5946 13.7122 32.8211 13.5076 32.4204 13.3472C32.6824 13.4772 32.9111 13.2776 32.5104 13.117C32.7724 13.2471 33.0011 13.0474 32.6004 12.8869C32.4936 12.9945 32.3406 13.3889 32.3327 13.5821ZM32.4692 12.0691C33.0488 11.4574 32.4211 11.2481 33.1292 10.6203C33.7088 10.1066 33.2398 9.76425 33.7894 9.36458C33.9664 9.23583 34.3528 8.97825 34.3851 8.72067C34.6184 9.30017 33.6604 9.38067 33.7249 10.3144C33.7659 10.9089 33.3639 10.857 33.2099 11.8598C33.1776 12.0691 33.0328 12.5359 32.4692 12.0691Z" fill="white" stroke="black" stroke-width="0.013025"/>
<path d="M32.7266 12.3427C33.0485 11.6506 33.418 11.6639 33.5956 11.3931C33.9338 10.8779 34.6501 11.4816 35.2538 11.0227C35.1492 11.6747 34.3363 11.4412 33.9821 11.8599C33.6281 12.2784 33.3382 12.4716 32.7266 12.3427Z" fill="white" stroke="black" stroke-width="0.013025"/>
<path d="M32.8078 12.5684C33.3713 12.1176 33.7865 12.4184 34.1761 12.182C35.158 11.5864 35.5526 12.3028 36.4299 12.021C36.1964 12.5844 34.9005 12.1015 34.3372 12.5201C33.7736 12.9386 31.7936 13.3411 32.8078 12.5684ZM31.1658 15.7799C31.1576 15.5223 30.9162 15.1923 30.5781 15.1521C30.2402 15.1118 30.0952 14.7578 29.8377 14.7416C29.5802 14.7255 29.411 14.2103 29.0568 14.2184C28.7027 14.2264 28.5578 14.6853 29.3868 15.1038C30.216 15.5223 31.1335 16.0052 31.1658 15.7799ZM30.1193 15.9974C29.7651 16.0135 29.7168 16.5286 29.3789 16.5448C29.8455 16.7943 30.1837 16.432 30.4251 16.1101L30.1193 15.9974Z" fill="white" stroke="black" stroke-width="0.013025"/>
<path d="M30.411 16.0612C30.1053 16.3187 30.0166 16.858 30.4594 17.0109C30.1938 16.6447 30.9263 16.4797 30.7008 16.1416L30.411 16.0612Z" fill="white" stroke="black" stroke-width="0.013025"/>
<path d="M30.7149 16.0776C30.4734 16.5445 31.0932 16.6008 30.9322 16.955C31.2863 16.8745 31.3428 16.2064 31.0207 16.0293L30.7149 16.0776Z" fill="white" stroke="black" stroke-width="0.013025"/>
<path d="M28.3496 15.0788C28.9293 15.0466 29.4593 15.3601 29.8146 15.8676C30.04 16.1895 30.7965 16.3183 31.0543 16.0607C31.3118 15.8032 31.1669 15.2558 30.523 15.4329C30.362 15.1593 29.8951 15.2559 29.6699 15.0305C29.4444 14.8051 28.575 14.1612 28.3496 15.0788Z" fill="white" stroke="black" stroke-width="0.013025"/>
<path d="M30.5231 15.4342C30.3702 15.4663 30.3217 15.732 30.4182 15.8688L30.5231 15.4342ZM30.8531 15.5952C30.9014 15.6757 30.8691 15.7883 30.8449 15.8447L30.8531 15.5952ZM29.2676 15.1042C29.5652 15.1202 29.6217 15.3377 29.9436 15.4181L29.2676 15.1042Z" fill="white"/>
<path d="M30.5231 15.4342C30.3702 15.4663 30.3217 15.732 30.4182 15.8688M30.8531 15.5952C30.9014 15.6757 30.8691 15.7883 30.8449 15.8447M29.2676 15.1042C29.5652 15.1202 29.6217 15.3377 29.9436 15.4181" stroke="black" stroke-width="0.013025" stroke-linecap="round"/>
<path d="M29.0705 14.3711C30.0991 14.6286 30.9151 14.8539 31.4212 15.1438C31.9272 15.4334 32.7108 15.5139 33.3964 15.3208C34.082 15.1277 35.4041 14.9506 35.3389 15.8037C35.6983 15.3772 35.241 14.9183 34.3268 14.8378C34.3433 14.4193 33.8953 14.0409 33.5732 14.2904C33.8711 14.2502 34.1283 14.8057 33.5408 15.0309C33.6549 14.6124 33.2386 14.2342 32.8061 14.4193C33.0836 14.4998 33.3643 14.9652 32.7434 15.1437C32.3515 15.2563 31.7803 15.1116 31.3559 14.8539C30.9315 14.5963 28.5483 13.6627 29.0705 14.3711Z" fill="white" stroke="black" stroke-width="0.013025"/>
<path d="M31.6663 13.9528C31.3443 14.0977 31.5536 14.4358 31.0547 14.6289C30.5554 14.8221 30.2094 15.2648 30.3222 15.6431C30.6603 14.9026 31.2558 14.9348 31.4649 14.645C31.6743 14.3553 31.9803 13.9287 31.6663 13.9528Z" fill="white" stroke="black" stroke-width="0.013025"/>
<path d="M31.7533 14.0002C31.7373 14.5878 31.2748 14.3737 31.4554 15.1994C31.5119 15.457 31.6164 15.8755 31.4394 16.2942C31.9585 15.9158 31.6247 15.1212 31.8579 14.8212C31.9707 14.6763 32.1154 14.4509 32.1719 14.2578C32.051 14.5958 32.0592 15.2237 32.3892 15.3847C32.1235 14.7568 33.1057 14.2417 32.4294 13.5173C32.3329 13.6943 32.0269 14.0083 31.7533 14.0002ZM30.1113 13.4127C30.192 13.5334 30.2723 13.8393 30.1998 14.0083C30.3609 13.9118 30.5945 13.6623 30.6667 13.4932C30.9967 13.5414 31.1255 13.9519 30.8117 14.129C31.0049 14.129 31.3349 14.129 31.5199 13.9118C31.2947 13.6623 30.5944 13.2758 30.1113 13.4127Z" fill="white" stroke="black" stroke-width="0.013025"/>
<path d="M25.1044 12.2587C25.0523 12.2112 24.9644 12.1662 24.8067 12.1337C24.3194 12.0339 24.5709 11.5946 24.9858 11.5985C25.8709 10.6326 26.3681 11.3772 27.4467 11.0712C27.8242 10.9642 28.0833 10.996 28.2889 11.0849C28.7719 10.7629 29.3384 10.8529 29.7489 11.2312C29.7946 11.1587 29.8559 11.1033 29.9419 11.0794C30.3199 10.9744 30.6259 11.2968 30.7304 11.7154C31.0252 11.6607 31.3619 11.8066 31.5833 12.0079C31.8899 11.8504 32.1012 11.8434 32.1789 12.0053C32.4527 11.8765 32.8073 11.7958 32.9844 12.2304C33.1615 12.665 32.5659 12.5363 32.4692 13.4539C32.4096 14.0199 31.7771 14.2426 31.2779 13.9046C30.4796 13.3637 29.7004 13.2767 29.3139 14.0978C28.9277 14.9188 28.6249 15.3957 27.6881 15.128C27.3502 15.0314 26.9154 15.1602 26.6419 15.5305C26.3681 15.9007 25.9496 15.5546 25.4506 15.5947C26.0783 15.4982 25.8379 15.3402 26.3844 15.3051C26.8834 15.2729 26.7546 14.8061 27.0764 14.7417C25.8208 15.0637 25.8692 14.5967 24.8389 14.9187C25.2896 14.3392 25.9979 14.6612 26.3521 14.3231C25.4184 14.307 25.0009 13.697 24.5813 13.9529C23.9213 14.3554 24.2109 15.5011 22.4886 15.4017C21.6514 15.3534 21.1202 15.4661 20.6213 15.9652C21.4907 14.1622 22.6732 15.1527 23.2453 14.5807C23.5834 14.2427 23.8409 13.9851 24.0179 13.6631C24.0802 13.5497 24.1646 13.485 24.2699 13.46C22.8373 13.0092 23.7038 12.3071 25.1044 12.2587Z" fill="white" stroke="black" stroke-width="0.013025"/>
<path d="M32.181 12.0052C32.2029 12.0505 32.2141 12.1092 32.2141 12.1819C32.2141 12.536 31.6829 12.5521 31.6509 13.0753C31.6339 13.349 31.6025 13.5019 31.4174 13.4698C31.2324 13.4375 31.0712 13.1477 31.2484 12.8097" fill="white"/>
<path d="M32.181 12.0052C32.2029 12.0505 32.2141 12.1092 32.2141 12.1819C32.2141 12.536 31.6829 12.5521 31.6509 13.0753C31.6339 13.349 31.6025 13.5019 31.4174 13.4698C31.2324 13.4375 31.0712 13.1477 31.2484 12.8097" stroke="black" stroke-width="0.013025" stroke-linecap="round"/>
<path d="M25.3727 11.731C25.2392 11.6373 25.1059 11.5993 24.9863 11.5982L25.3727 11.731ZM28.2887 11.082C28.7148 11.2665 28.9227 11.7093 29.5419 11.731C30.138 11.7519 30.508 12.6164 31.5059 12.053C31.533 12.0377 31.5594 12.0235 31.585 12.0103M29.7517 11.231C29.6627 11.3725 29.6424 11.5699 29.6668 11.7432L29.7517 11.231ZM27.8037 13.051C27.0472 13.051 26.8538 13.4374 26.8538 13.8077C26.8538 14.1779 27.2079 14.6608 27.8359 14.6608C28.4637 14.6608 28.8017 14.2745 28.8017 13.8559C28.8017 13.4374 28.4152 13.051 27.8037 13.051Z" fill="white"/>
<path d="M25.3727 11.731C25.2392 11.6373 25.1059 11.5993 24.9863 11.5982M28.2887 11.082C28.7148 11.2665 28.9227 11.7093 29.5419 11.731C30.138 11.7519 30.508 12.6164 31.5059 12.053C31.533 12.0377 31.5594 12.0235 31.585 12.0103M29.7517 11.231C29.6627 11.3725 29.6424 11.5699 29.6668 11.7432M27.8037 13.051C27.0472 13.051 26.8538 13.4374 26.8538 13.8077C26.8538 14.1779 27.2079 14.6608 27.8359 14.6608C28.4637 14.6608 28.8017 14.2745 28.8017 13.8559C28.8017 13.4374 28.4152 13.051 27.8037 13.051Z" stroke="black" stroke-width="0.013025"/>
<path d="M27.9374 14.6447C27.9214 14.4354 27.543 14.4675 27.5591 14.3067C27.5751 14.1457 27.7685 14.0813 27.7685 13.8558C27.7685 13.6305 28.1064 13.6143 28.2191 13.7914C28.3318 13.9685 28.6699 14.3147 28.7424 14.1375M28.2191 13.7914C28.042 13.9685 27.9619 14.3309 28.1953 14.6127L28.2191 13.7914ZM28.4609 14.0652C28.4047 14.1859 28.3886 14.371 28.453 14.4837L28.4609 14.0652Z" fill="white"/>
<path d="M27.9374 14.6447C27.9214 14.4354 27.543 14.4675 27.5591 14.3067C27.5751 14.1457 27.7685 14.0813 27.7685 13.8558C27.7685 13.6305 28.1064 13.6143 28.2191 13.7914M28.2191 13.7914C28.3318 13.9685 28.6699 14.3147 28.7424 14.1375M28.2191 13.7914C28.042 13.9685 27.9619 14.3309 28.1953 14.6127M28.4609 14.0652C28.4047 14.1859 28.3886 14.371 28.453 14.4837" stroke="black" stroke-width="0.013025"/>
<path d="M31.4668 13.4743C32.0585 13.5225 32.1591 12.8705 31.7164 12.8303M30.7388 11.7158C30.5336 11.4542 30.0628 11.3657 30.0547 11.9209" stroke="black" stroke-width="0.013025"/>
<path d="M29.9986 12.5519C29.7973 12.0529 29.2821 11.9804 29.0084 12.2299C28.7807 12.4376 28.7751 12.9785 29.2661 13.0912C29.4351 12.89 29.7651 12.6243 29.9986 12.5519ZM29.7771 12.2379C29.4873 11.9803 29.0606 12.4673 29.4471 12.914L29.7771 12.2379ZM24.2646 13.4574C24.4586 13.4114 24.7421 13.5063 25.1769 13.7108C25.4506 13.8396 26.2717 14.1133 26.7867 13.8396C26.2554 14.0328 25.8531 13.2278 25.4506 13.3244C25.0481 13.421 24.3117 13.5699 24.0019 13.2761C24.7583 13.3244 25.1652 12.7251 26.0301 13.2439C26.2717 13.3888 26.5776 13.4854 26.8511 13.4693C26.1429 12.6161 25.2092 13.1634 25.1126 12.4713C25.5392 12.9301 26.5816 12.3666 27.1127 13.2279M25.2656 12.5999C25.1661 12.4759 25.2111 12.3524 25.1041 12.2548L25.2656 12.5999Z" fill="white"/>
<path d="M29.7771 12.2379C29.4873 11.9803 29.0606 12.4673 29.4471 12.914M24.2646 13.4574C24.4586 13.4114 24.7421 13.5063 25.1769 13.7108C25.4506 13.8396 26.2717 14.1133 26.7867 13.8396C26.2554 14.0328 25.8531 13.2278 25.4506 13.3244C25.0481 13.421 24.3117 13.5699 24.0019 13.2761C24.7583 13.3244 25.1652 12.7251 26.0301 13.2439C26.2717 13.3888 26.5776 13.4854 26.8511 13.4693C26.1429 12.6161 25.2092 13.1634 25.1126 12.4713C25.5392 12.9301 26.5816 12.3666 27.1127 13.2279M25.2656 12.5999C25.1661 12.4759 25.2111 12.3524 25.1041 12.2548M29.9986 12.5519C29.7973 12.0529 29.2821 11.9804 29.0084 12.2299C28.7807 12.4376 28.7751 12.9785 29.2661 13.0912C29.4351 12.89 29.7651 12.6243 29.9986 12.5519Z" stroke="black" stroke-width="0.013025"/>
<path d="M30.74 11.7152C30.5629 11.5262 30.1766 11.6751 30.2853 12.0573C30.3698 11.8803 30.5508 11.7313 30.74 11.7152ZM29.6455 12.7462C29.7674 12.6577 29.8933 12.5852 29.9993 12.5522C29.9413 12.409 29.8578 12.3008 29.7613 12.2255C29.6693 12.1618 29.4046 12.5177 29.6455 12.7462Z" fill="black"/>
<path d="M29.1699 12.0938C28.8801 11.9006 28.6145 11.9167 28.5259 12.0777C28.3168 12.0697 28.1436 12.2226 28.1355 12.5284M28.5824 12.6573C28.2364 12.4199 27.7613 12.5084 27.7936 13.0396M27.5844 13.3413C27.7534 13.2044 27.9948 13.1079 28.18 13.3493M30.1684 12.8183C30.104 12.9068 30.0557 13.0436 30.1602 13.2529C30.0315 13.0839 29.7096 13.0839 29.3633 13.5346M30.9329 12.7943C30.5144 12.8426 30.5225 13.1162 30.8604 13.237M27.9549 11.7718C27.6007 11.6993 27.3432 11.9086 27.8342 12.0857M28.6309 11.5303C28.1317 11.4095 27.9305 11.5383 28.1559 11.651M27.1899 13.5348C27.1739 13.7119 27.2703 13.9453 27.5601 13.6797M27.2869 14.0658C27.2869 14.1141 27.2787 14.1704 27.2465 14.2106M26.1274 11.7073C25.8215 11.6188 25.7653 11.337 26.1195 11.3612M26.0229 12.3593C25.6847 12.2466 25.6847 11.9166 25.9664 11.9488M26.6509 12.1903C26.2565 12.0937 26.2405 11.82 26.5384 11.8603M26.6989 11.3533C26.4897 11.3372 26.1676 11.5706 26.707 11.7074M27.2869 11.8203C26.7959 11.7478 26.804 11.9491 27.0935 12.0779M27.6569 11.3533C27.2785 11.2808 27.1498 11.5062 27.4073 11.6028M26.4659 12.7458C26.3732 12.6693 26.2969 12.3031 26.7394 12.4118M27.3834 12.6333C27.0857 12.5528 26.804 12.8425 27.0775 13.0116M27.7774 12.2873C27.4636 12.2309 27.198 12.3195 27.367 12.4321" stroke="black" stroke-width="0.013025" stroke-linecap="round"/>
<path d="M30.7232 11.7155C30.5463 11.7483 30.3878 11.8522 30.2852 12.0575L30.7232 11.7155Z" fill="white"/>
<path d="M30.7232 11.7155C30.5463 11.7483 30.3878 11.8522 30.2852 12.0575" stroke="black" stroke-width="0.013025"/>
</g>
</g>
</g>
<defs>
<clipPath id="clip0_16699_264615">
<rect width="40" height="40" fill="white"/>
</clipPath>
</defs>
</svg>
