<svg width="40" height="40" viewBox="0 0 40 40" fill="none" xmlns="http://www.w3.org/2000/svg">
<g clip-path="url(#clip0_16699_264710)">
<mask id="mask0_16699_264710" style="mask-type:luminance" maskUnits="userSpaceOnUse" x="0" y="0" width="40" height="40">
<path d="M40 20C40 8.95431 31.0457 0 20 0C8.95431 0 0 8.95431 0 20C0 31.0457 8.95431 40 20 40C31.0457 40 40 31.0457 40 20Z" fill="white"/>
</mask>
<g mask="url(#mask0_16699_264710)">
<mask id="mask1_16699_264710" style="mask-type:luminance" maskUnits="userSpaceOnUse" x="0" y="0" width="54" height="40">
<path d="M0 0H53.3333V40H0V0Z" fill="white"/>
</mask>
<g mask="url(#mask1_16699_264710)">
<path fill-rule="evenodd" clip-rule="evenodd" d="M26.6667 0H53.3334V40H26.6667V0Z" fill="#CE0000"/>
<path fill-rule="evenodd" clip-rule="evenodd" d="M0 0H26.6667V40H0V0Z" fill="white"/>
<path fill-rule="evenodd" clip-rule="evenodd" d="M12.9327 11.8339C12.9327 11.9418 12.8104 12.0292 12.6597 12.0292C12.509 12.0292 12.3868 11.9418 12.3868 11.8339C12.3868 11.726 12.509 11.6386 12.6597 11.6386C12.8104 11.6386 12.9327 11.726 12.9327 11.8339Z" fill="#F1EEEE"/>
<path fill-rule="evenodd" clip-rule="evenodd" d="M4.39386 10.8897V15.8465H9.35106C9.35106 16.6724 10.1772 17.4987 11.0035 17.4987V22.4553H15.9601V17.4987C16.7864 17.4987 17.6126 16.6724 17.6126 15.8465H22.5697V10.8897H17.6126C17.6126 10.0637 16.7864 9.2375 15.9601 9.2375V4.28083H11.0035V9.2375C10.1772 9.2375 9.35106 10.0637 9.35106 10.8897H4.39386Z" fill="#CC0000"/>
<path fill-rule="evenodd" clip-rule="evenodd" d="M4.55927 11.0548V15.6811H9.51644C9.51644 16.507 10.3424 17.3335 11.1686 17.3335V22.2901H15.7952V17.3335C16.6214 17.3335 17.4474 16.507 17.4474 15.6811H22.4044V11.0548H17.4474C17.4474 10.2289 16.6214 9.40242 15.7952 9.40242V4.44575H11.1686V9.40242C10.3424 9.40242 9.51644 10.2289 9.51644 11.0548H4.55927Z" fill="#FFE600"/>
<path fill-rule="evenodd" clip-rule="evenodd" d="M4.72443 11.22V15.5161H9.68114C9.68114 16.3421 10.5073 17.1682 11.3336 17.1682V22.1248H15.6295V17.1682C16.4557 17.1682 17.2819 16.3421 17.2819 15.5161H22.2386V11.22H17.2819C17.2819 10.3941 16.4557 9.56783 15.6295 9.56783V4.61125H11.3336V9.56783C10.5073 9.56783 9.68114 10.3941 9.68114 11.22H4.72443Z" fill="#707070"/>
<path fill-rule="evenodd" clip-rule="evenodd" d="M4.88983 11.3852V15.3505H9.84652C9.84652 16.1765 10.6728 17.0029 11.4989 17.0029V21.9596H15.4644V17.0029C16.2907 17.0029 17.1169 16.1765 17.1169 15.3505H22.0736V11.3852H17.1169C17.1169 10.5592 16.2907 9.73308 15.4644 9.73308V4.77642H11.4989V9.73308C10.6728 9.73308 9.84652 10.5592 9.84652 11.3852H4.88983Z" fill="#A0A0A0"/>
<path fill-rule="evenodd" clip-rule="evenodd" d="M11.54 9.32342C11.8302 9.61383 11.5948 10.3198 11.0142 10.9007C10.4335 11.4815 9.72733 11.7167 9.43691 11.4263C9.1465 11.1359 9.38183 10.4299 9.96258 9.84908C10.5432 9.26825 11.2496 9.033 11.54 9.32342Z" fill="#D0D0D0"/>
<path fill-rule="evenodd" clip-rule="evenodd" d="M11.1895 9.67367C11.4799 9.96408 11.4013 10.5133 11.0143 10.9004C10.6271 11.2876 10.0778 11.366 9.78742 11.0756C9.497 10.7852 9.57559 10.2361 9.96275 9.84892C10.3498 9.46183 10.8992 9.38333 11.1895 9.67367Z" fill="#808080"/>
<path fill-rule="evenodd" clip-rule="evenodd" d="M9.72864 10.5498L9.84547 10.433L10.3128 10.6667L10.0791 10.1993L10.196 10.0825L10.6633 11.0172L9.72864 10.5498ZM10.4298 9.84883L10.5466 9.732L11.2477 10.433L11.1309 10.5498L10.4298 9.84883ZM17.5263 11.4263C17.236 11.7167 16.5297 11.4813 15.9491 10.9006C15.3684 10.3198 15.1328 9.61367 15.4232 9.32325C15.7136 9.033 16.4197 9.26842 17.0006 9.84908C17.5814 10.4298 17.8166 11.136 17.5263 11.4263Z" fill="#D0D0D0"/>
<path fill-rule="evenodd" clip-rule="evenodd" d="M17.1761 11.0762C16.8857 11.3664 16.3364 11.288 15.9493 10.9008C15.5622 10.5137 15.4838 9.96433 15.7742 9.674C16.0646 9.38367 16.6137 9.46225 17.0009 9.84933C17.3882 10.2365 17.4665 10.7858 17.1761 11.0762Z" fill="#808080"/>
<path fill-rule="evenodd" clip-rule="evenodd" d="M16.2999 9.61533L16.4167 9.73217L16.1831 10.1994L16.6504 9.96575L16.7672 10.0826L15.8326 10.5499L16.2999 9.61533ZM17.0009 10.3164L17.1177 10.4332L16.4167 11.1342L16.2999 11.0174L17.0009 10.3164ZM15.4232 17.4128C15.133 17.1224 15.3684 16.4164 15.9491 15.8356C16.5297 15.2547 17.2359 15.0196 17.5263 15.3099C17.8167 15.6003 17.5813 16.3063 17.0007 16.8872C16.42 17.468 15.7138 17.7032 15.4234 17.4128H15.4232Z" fill="#D0D0D0"/>
<path fill-rule="evenodd" clip-rule="evenodd" d="M15.7736 17.0627C15.4832 16.7723 15.5617 16.223 15.9488 15.8358C16.336 15.4488 16.8854 15.3703 17.1757 15.6607C17.4661 15.9511 17.3875 16.5002 17.0003 16.8873C16.6132 17.2744 16.064 17.3529 15.7736 17.0627Z" fill="#808080"/>
<path fill-rule="evenodd" clip-rule="evenodd" d="M17.2345 16.1865L17.1177 16.3033L16.6504 16.0697L16.884 16.537L16.7672 16.6538L16.2999 15.7192L17.2345 16.1865ZM16.5334 16.8874L16.4165 17.0042L15.7154 16.3033L15.8323 16.1865L16.5334 16.8874ZM9.43719 15.3093C9.72761 15.019 10.4338 15.2545 11.0144 15.8352C11.5952 16.4158 11.8307 17.1221 11.5403 17.4125C11.2499 17.7028 10.5439 17.4673 9.96302 16.8867C9.38219 16.306 9.14694 15.5998 9.43719 15.3093Z" fill="#D0D0D0"/>
<path fill-rule="evenodd" clip-rule="evenodd" d="M9.7875 15.6598C10.0779 15.3693 10.6272 15.4479 11.0143 15.8349C11.4014 16.2219 11.4799 16.7714 11.1895 17.0617C10.8991 17.3521 10.35 17.2735 9.96267 16.8864C9.57542 16.4992 9.49709 15.95 9.7875 15.6598Z" fill="#808080"/>
<path fill-rule="evenodd" clip-rule="evenodd" d="M10.6637 17.1204L10.5468 17.0037L10.7805 16.5363L10.3132 16.77L10.1963 16.6532L11.131 16.1858L10.6637 17.1204ZM9.96266 16.4193L9.84583 16.3025L10.5468 15.6015L10.6637 15.7183L9.96266 16.4193Z" fill="#D0D0D0"/>
<path d="M16.9518 13.3682C16.9518 15.2844 15.3983 16.8378 13.4819 16.8378C11.5656 16.8378 10.0121 15.2844 10.0121 13.3682C10.0121 11.4518 11.5656 9.89842 13.4819 9.89842C15.3983 9.89842 16.9518 11.4518 16.9518 13.3682Z" fill="black" stroke="#707070" stroke-width="0.3685"/>
<path d="M16.1255 13.3681C16.1255 14.8281 14.9419 16.0117 13.4818 16.0117C12.0217 16.0117 10.8381 14.8281 10.8381 13.3681C10.8381 11.9081 12.0217 10.7245 13.4818 10.7245C14.9419 10.7245 16.1255 11.9081 16.1255 13.3681Z" fill="black" stroke="#707070" stroke-width="0.281"/>
<path fill-rule="evenodd" clip-rule="evenodd" d="M12.3254 16.1766C12.3253 16.2092 12.3156 16.2412 12.2974 16.2683C12.2793 16.2955 12.2535 16.3167 12.2233 16.3292C12.1931 16.3417 12.1599 16.3449 12.1278 16.3386C12.0958 16.3322 12.0663 16.3166 12.0433 16.2935C12.0202 16.2703 12.0045 16.2409 11.9981 16.2089C11.9918 16.1768 11.995 16.1437 12.0075 16.1135C12.02 16.0833 12.0412 16.0575 12.0683 16.0393C12.0955 16.0212 12.1274 16.0115 12.1601 16.0114C12.2039 16.0114 12.2459 16.0288 12.2768 16.0598C12.3078 16.0907 12.3254 16.1328 12.3254 16.1766ZM14.9691 16.1766C14.9691 16.2204 14.9517 16.2624 14.9207 16.2934C14.8897 16.3244 14.8477 16.3418 14.8038 16.3418C14.76 16.3418 14.718 16.3244 14.687 16.2934C14.6561 16.2624 14.6387 16.2204 14.6387 16.1766C14.6387 16.1327 14.6561 16.0907 14.687 16.0597C14.718 16.0287 14.76 16.0114 14.8038 16.0114C14.8477 16.0114 14.8897 16.0287 14.9207 16.0597C14.9517 16.0907 14.9691 16.1327 14.9691 16.1766ZM13.3718 16.177V16.3492H13.1515C12.9311 16.3492 12.9311 16.5215 13.1515 16.5215H13.3718V16.6939C13.3726 16.8724 13.564 16.894 13.5782 16.7077L13.5922 16.5215H13.8125C14.0327 16.5215 14.0327 16.3492 13.8125 16.3492H13.5922V16.177C13.5922 16.0047 13.3718 16.0047 13.3718 16.177Z" fill="#D0D0D0"/>
<path fill-rule="evenodd" clip-rule="evenodd" d="M12.659 13.7365V13.8341C12.659 13.8341 12.6072 13.9088 12.2769 13.9317C11.9466 13.9547 11.8948 13.9317 11.8948 13.9317C11.9035 14.017 11.9678 14.1785 11.9495 14.3714C11.9623 14.5958 11.8862 14.799 11.8862 14.799C11.8948 14.8108 11.8552 14.8167 11.7858 14.8108C11.8404 14.762 11.834 14.6207 11.8404 14.4202C11.8467 14.2195 11.6319 13.9177 11.6765 13.8341C11.7212 13.7506 12.659 13.7365 12.659 13.7365ZM13.9698 13.3821C14.2912 13.3673 14.8303 13.3705 14.8303 13.3705C14.8303 13.3705 14.9574 13.6255 14.9522 13.7663C14.9468 13.9072 14.9032 14.0272 14.8431 13.9672C14.7832 13.9072 14.8709 13.9184 14.8818 13.7663C14.8923 13.6142 14.779 13.4566 14.779 13.4566C14.779 13.4566 14.5485 13.5572 14.2019 13.5369C13.8553 13.5165 14.0088 13.3881 13.9698 13.3821Z" fill="#D0D0D0" stroke="#707070" stroke-width="0.1165"/>
<path fill-rule="evenodd" clip-rule="evenodd" d="M14.079 13.6339C14.4003 13.6191 14.6112 13.6682 14.6112 13.6682C14.6112 13.6682 14.7383 13.9234 14.7331 14.0642C14.7277 14.205 14.6841 14.3249 14.624 14.2649C14.5641 14.205 14.652 14.2163 14.6627 14.0642C14.6732 13.9121 14.5599 13.7543 14.5599 13.7543C14.5599 13.7543 14.3294 13.855 13.9828 13.8347C13.6362 13.8144 13.7351 13.7937 13.6962 13.7877C13.6574 13.7817 13.6479 13.8836 13.1236 13.8978C12.5991 13.9121 12.3317 13.7877 12.3317 13.7877C12.3317 13.7877 12.2797 13.8623 11.9497 13.8853C11.6193 13.9082 11.5676 13.8853 11.5676 13.8853C11.5762 13.9705 11.6405 14.132 11.6222 14.3249C11.635 14.5493 11.5589 14.7525 11.5589 14.7525C11.5676 14.7644 11.5279 14.7702 11.4583 14.7643C11.513 14.7155 11.5067 14.5742 11.513 14.3737C11.5192 14.173 11.3047 13.8712 11.3492 13.7877C11.3939 13.7041 11.6316 13.7823 11.6768 13.7388C11.7217 13.6954 11.465 13.3898 11.513 13.104C11.5609 12.8183 11.8332 12.8988 12.168 12.9087C12.5027 12.9185 13.2442 13.0051 13.4233 12.9087C13.6025 12.8121 13.525 12.4548 13.6962 12.225C13.8054 12.0785 13.9691 12.0297 14.1328 12.0297C14.2421 12.0297 14.4057 12.4203 14.4057 12.5179L14.3512 12.5668H14.2966V12.6156C14.172 12.6281 14.1547 12.509 14.0782 12.4203C14.0454 12.5579 14.1874 13.0064 14.1874 13.2993C14.1874 13.5434 14.0854 13.6511 14.079 13.6339Z" fill="#D0D0D0" stroke="#707070" stroke-width="0.1165"/>
<path fill-rule="evenodd" clip-rule="evenodd" d="M13.028 13.2102C13.0325 13.3075 12.6062 13.5258 12.5715 13.6122C12.5368 13.6987 12.6799 13.7465 12.6356 13.7958C12.5913 13.8451 12.5549 13.8268 12.5459 13.836C12.5368 13.8451 12.3855 13.4975 12.3855 13.4975C12.3855 13.4975 12.7854 13.3171 12.7702 13.2393C12.7551 13.1614 12.475 13.1141 12.424 12.918C12.373 12.7219 12.4013 12.3432 12.3599 12.2639C12.3185 12.1848 11.8277 12.1092 11.8271 11.9895C11.8267 11.8696 12.3316 11.5409 12.3863 11.4922C12.4409 11.4433 12.4955 11.5409 12.4409 11.5898C12.3863 11.6386 11.9911 11.9406 11.9911 11.9895C11.9911 12.0382 12.3185 12.0871 12.4276 12.0871C12.5368 12.0871 12.5914 12.0382 12.5914 11.9895C12.592 11.9472 12.4822 11.9406 12.4822 11.8429C12.4822 11.7453 12.5368 11.6964 12.6459 11.6964C12.7006 11.6964 12.8054 11.759 12.8096 11.8429C12.8139 11.9268 12.7126 11.9341 12.7004 11.9895C12.6884 12.0449 12.8096 12.0871 12.9189 12.0871C13.028 12.0871 13.4006 12.3712 13.4552 12.42C13.5098 12.4687 13.5645 12.4688 13.5098 12.5177C13.4552 12.5664 13.4871 12.6243 13.4326 12.5755C13.4054 12.5488 13.3865 12.5149 13.378 12.4778C13.3733 12.4333 12.9734 12.2337 12.9187 12.2824C12.8641 12.3313 12.9187 12.9173 12.9187 12.9661C12.9187 13.0638 13.0325 13.0633 13.028 13.2102Z" fill="#D0D0D0" stroke="#707070" stroke-width="0.1165"/>
<path fill-rule="evenodd" clip-rule="evenodd" d="M12.3325 12.0779H12.9876V12.7616H12.3325V12.0779Z" fill="#A7A7A7"/>
<path d="M14.4534 14.5428L12.2556 11.2437C12.2374 11.2164 12.2123 11.1999 12.1994 11.2068H12.1992C12.1863 11.2137 12.1905 11.2414 12.2087 11.2687L14.4064 14.5678C14.4246 14.595 14.4498 14.6115 14.4628 14.6046L14.4629 14.6045C14.4758 14.5977 14.4715 14.57 14.4534 14.5428Z" fill="#808080"/>
<path fill-rule="evenodd" clip-rule="evenodd" d="M12.4957 11.5409C12.496 11.5539 12.4932 11.5668 12.4878 11.5787C12.4822 11.5908 12.4742 11.6018 12.4642 11.6107C12.4539 11.6201 12.4418 11.6273 12.4286 11.6322C12.4086 11.6397 12.3869 11.6416 12.3659 11.6378C12.3448 11.634 12.3251 11.6247 12.309 11.6107C12.299 11.6018 12.291 11.5908 12.2854 11.5787C12.2801 11.5668 12.2773 11.5539 12.2775 11.5409C12.2778 11.5152 12.2895 11.4907 12.3099 11.4726C12.3303 11.4545 12.3579 11.4444 12.3866 11.4444C12.4153 11.4444 12.4429 11.4545 12.4633 11.4726C12.4838 11.4907 12.4954 11.5152 12.4957 11.5409Z" fill="#D0D0D0" stroke="#707070" stroke-width="0.1165"/>
<path fill-rule="evenodd" clip-rule="evenodd" d="M14.4056 12.4296C14.4056 12.4701 14.1522 12.5176 13.8598 12.5176C13.5674 12.5176 13.314 12.4701 13.314 12.4296C13.314 12.3892 13.5674 12.4882 13.8598 12.4882C14.1522 12.4882 14.4056 12.3892 14.4056 12.4296Z" fill="#808080"/>
<path fill-rule="evenodd" clip-rule="evenodd" d="M12.3871 12.7613H12.9329V12.9567H12.3871V12.7613Z" fill="#A7A7A7"/>
<path fill-rule="evenodd" clip-rule="evenodd" d="M14.1614 12.28C14.1085 12.3792 14.0583 12.4498 14.0494 12.438C14.0403 12.4262 14.0759 12.3363 14.1287 12.2371C14.1816 12.138 14.2319 12.0672 14.2409 12.0792C14.25 12.091 14.2143 12.1809 14.1614 12.28ZM14.2993 12.5366C14.2391 12.5895 14.1887 12.6237 14.1871 12.6131C14.1854 12.6024 14.2329 12.551 14.2931 12.4981C14.3535 12.4452 14.4037 12.411 14.4053 12.4217C14.4071 12.4322 14.3596 12.4837 14.2993 12.5366Z" fill="#808080"/>
<path fill-rule="evenodd" clip-rule="evenodd" d="M14.2302 12.4128C14.2745 12.4936 14.3039 12.5621 14.2956 12.5655C14.2874 12.5691 14.2446 12.5065 14.2001 12.4257C14.1556 12.3447 14.1264 12.2764 14.1347 12.2728C14.1429 12.2692 14.1857 12.3321 14.2302 12.4128ZM14.1876 12.835C14.1876 12.8483 14.0165 12.8594 13.8055 12.8594C13.5945 12.8594 13.4236 12.8485 13.4236 12.835C13.4236 12.8214 13.5946 12.8105 13.8055 12.8105C14.0165 12.8105 14.1876 12.8214 14.1876 12.835ZM12.9327 12.786C12.9327 12.7996 12.8104 12.8105 12.6597 12.8105C12.509 12.8105 12.3868 12.7996 12.3868 12.786C12.3868 12.7727 12.509 12.7616 12.6597 12.7616C12.8104 12.7616 12.9327 12.7725 12.9327 12.786Z" fill="#808080"/>
<path fill-rule="evenodd" clip-rule="evenodd" d="M11.7322 14.4838C11.7322 14.4838 11.8222 14.7027 12.2059 14.7057C12.5897 14.7087 12.7217 14.6401 12.5666 14.5242C12.4113 14.4083 12.1226 14.4442 12.1598 14.5443C12.1972 14.6443 12.0515 14.6777 12.0173 14.6073C11.9831 14.5371 11.8456 14.3289 12.0928 14.3149C12.3399 14.3009 12.8633 14.2251 12.9942 14.3703C13.125 14.5155 12.8463 14.6472 13.0571 14.6781C13.2678 14.7087 13.2977 14.6428 13.6602 14.6229C14.0229 14.6029 14.1612 14.6902 14.2856 14.6779C14.4097 14.6659 14.3922 14.4522 14.2938 14.3982C14.1957 14.3439 14.0069 14.334 13.9585 14.2746C13.9102 14.2152 13.7786 14.2635 13.7907 14.1963C13.8031 14.1293 13.9774 14.2426 13.9794 14.2083C13.9794 14.2072 14.0082 14.1845 14.0141 14.1788C13.9921 14.1737 13.9796 14.1818 13.9631 14.1906C13.9811 14.1763 13.9798 14.1697 13.9858 14.158C13.9827 14.1536 13.9611 14.1745 13.9575 14.1702C13.9537 14.1658 13.9827 14.136 13.9695 14.1468C13.9651 14.15 13.9306 14.167 13.9302 14.1553C13.9307 14.1505 13.9482 14.1382 13.9422 14.1316C13.9371 14.126 13.9108 14.138 13.9075 14.1393C13.9226 14.1193 13.9215 14.1196 13.907 14.1047C13.8944 14.0899 13.8852 14.0902 13.8647 14.107C13.8732 14.083 13.8755 14.0777 13.8549 14.0687C13.838 14.0594 13.8372 14.0507 13.8162 14.0939C13.8241 14.0477 13.8025 14.0457 13.8115 14.0238C13.8168 14.0038 13.845 13.9953 13.8914 13.9998C13.9814 14.0005 14.0297 14.1086 14.0591 14.1082C14.0884 14.1079 14.1215 13.9938 14.2477 14.0403C14.374 14.0864 14.3896 14.0957 14.4532 14.1233C14.5167 14.1507 14.4085 14.1926 14.4447 14.2468C14.4812 14.3011 14.7291 14.4818 14.6586 14.6705C14.5881 14.859 14.4066 14.8889 14.3902 14.9705C14.374 15.0522 14.965 15.0187 15.1157 15.0462C15.2662 15.0736 15.3612 15.186 15.3672 15.2049C15.3733 15.2238 15.103 15.2227 15.103 15.2227C15.103 15.2227 14.9643 15.151 14.6334 15.1444C14.3027 15.1379 14.1766 15.0046 14.0528 14.9877C13.929 14.971 13.6651 15.0157 13.5176 15.0091C13.37 15.0026 13.2205 14.9792 13.125 14.9663C13.0295 14.9532 12.554 15.1808 12.5557 15.234C12.4565 15.2301 12.2232 15.2174 12.2328 15.2238C12.2424 15.2301 12.2747 15.1206 12.4567 15.1012C12.6385 15.0821 12.8155 14.995 12.8097 14.9377C12.8038 14.8804 12.8448 14.6841 12.86 14.5998C12.8752 14.5157 12.9432 14.4749 12.927 14.4309C12.9107 14.3868 12.703 14.3414 12.5036 14.3426C12.3041 14.3439 12.083 14.3552 12.0507 14.4031C12.0187 14.4512 12.0429 14.5907 12.0843 14.5746C12.1257 14.5586 12.0743 14.4673 12.1179 14.4485C12.1614 14.4299 12.2731 14.4131 12.3777 14.4107C12.4827 14.4083 12.6647 14.4999 12.6628 14.5292C12.661 14.5586 12.7215 14.6561 12.6378 14.6931C12.5539 14.7303 12.3826 14.7468 12.2185 14.7384C12.0543 14.7302 11.8883 14.6738 11.8285 14.6377C11.7688 14.6015 11.7322 14.4914 11.7322 14.4838Z" fill="#D0D0D0" stroke="#808080" stroke-width="0.0625"/>
<path fill-rule="evenodd" clip-rule="evenodd" d="M14.162 14.1601C14.1623 14.166 14.1614 14.172 14.1594 14.1776C14.1573 14.1832 14.1542 14.1883 14.1501 14.1927C14.1461 14.197 14.1411 14.2005 14.1357 14.2028C14.1302 14.2052 14.1242 14.2064 14.1182 14.2063C14.1092 14.2065 14.1004 14.2037 14.0931 14.1986C14.0857 14.1934 14.0801 14.1861 14.0771 14.1776C14.0742 14.1695 14.0737 14.1608 14.0757 14.1525C14.0777 14.1442 14.082 14.1366 14.0881 14.1307C14.0942 14.1249 14.1017 14.121 14.11 14.1194C14.1182 14.1178 14.1267 14.1187 14.1345 14.1217C14.1422 14.1248 14.149 14.1301 14.1538 14.1369C14.1587 14.1437 14.1616 14.1518 14.162 14.1601Z" fill="black"/>
<path d="M16.2211 13.526L16.4336 13.5718L16.7887 13.3288L16.7612 13.4564L16.5762 13.5799C16.5429 13.6019 16.5088 13.6227 16.474 13.6422C16.495 13.6716 16.5185 13.7068 16.5439 13.7478L16.6585 13.933L16.6321 14.0552L16.4109 13.6768L16.1985 13.6308L16.2211 13.526ZM15.8588 11.9633L16.2699 11.7741L16.1583 11.5316L16.2133 11.5062L16.482 12.0897L16.4269 12.115L16.3148 11.8714L15.9037 12.0608L15.8588 11.9633ZM15.222 11.1893L15.6005 10.8428L15.6748 10.924L15.6651 11.5099L15.9622 11.2378L16.0317 11.3137L15.6533 11.6603L15.5789 11.579L15.5889 10.9929L15.2914 11.2652L15.222 11.1893ZM13.5674 10.5212L13.6295 10.0118L13.736 10.0247L13.6813 10.474L14.0774 10.5223L14.0701 10.5824L13.5674 10.5212ZM12.7535 10.5942L12.6616 10.0893L12.7673 10.0701L12.8483 10.5153L13.2408 10.4439L13.2518 10.5036L12.7535 10.5942ZM11.2506 11.3359L11.2128 11.2889L11.4806 11.074L11.5997 11.2227C11.5757 11.2756 11.5457 11.3256 11.5101 11.3716C11.4743 11.4173 11.4333 11.4587 11.3879 11.4951C11.3258 11.5448 11.2625 11.5817 11.1982 11.6057C11.134 11.6293 11.0762 11.6355 11.0248 11.6243C10.9757 11.6146 10.9315 11.5878 10.9003 11.5485C10.8689 11.5087 10.8517 11.4595 10.8514 11.4088C10.8503 11.3542 10.8673 11.2993 10.9024 11.2443C10.9376 11.1891 10.9867 11.1363 11.0498 11.0858C11.0911 11.052 11.1365 11.0235 11.1848 11.001C11.2295 10.9806 11.2691 10.9703 11.3034 10.9703C11.3378 10.9703 11.3713 10.9793 11.4038 10.9976L11.3388 11.0711C11.316 11.0591 11.2908 11.0523 11.2649 11.0513C11.2415 11.051 11.2139 11.0577 11.1822 11.0717C11.1478 11.0872 11.1156 11.1071 11.0864 11.1309C11.0482 11.1615 11.0183 11.1917 10.9963 11.2216C10.9741 11.2512 10.9592 11.2789 10.9516 11.3048C10.9446 11.3279 10.9418 11.3522 10.9436 11.3763C10.9473 11.414 10.9609 11.4473 10.9841 11.4762C11.0126 11.5119 11.0462 11.5342 11.0847 11.5428C11.1236 11.5511 11.1663 11.5463 11.2126 11.5282C11.2604 11.5093 11.305 11.4833 11.3448 11.4509C11.3807 11.4224 11.4128 11.3895 11.4405 11.353C11.4679 11.3163 11.4865 11.2858 11.4965 11.2616L11.4365 11.187L11.2506 11.3359ZM11.2333 15.026L10.8148 15.3231L10.4982 14.8773L10.5476 14.8423L10.802 15.2007L10.9316 15.1087L10.7114 14.7985L10.7607 14.7634L10.9811 15.0736L11.1712 14.9386L11.2333 15.026ZM10.6168 14.3586C10.6764 14.3418 10.7163 14.3034 10.7363 14.2433C10.7562 14.1829 10.7554 14.1147 10.7337 14.0383C10.7118 13.9607 10.6765 13.9018 10.6279 13.8614C10.579 13.8209 10.5229 13.8095 10.4593 13.8275C10.4214 13.8372 10.3878 13.8591 10.3633 13.8896C10.3393 13.9194 10.3248 13.9573 10.3202 14.0034C10.3155 14.0526 10.3204 14.1021 10.3344 14.1494C10.3551 14.2224 10.3888 14.2809 10.4357 14.3248C10.482 14.3683 10.5425 14.3797 10.6168 14.3586ZM10.6458 14.4652C10.5639 14.4883 10.49 14.4718 10.4241 14.4153C10.358 14.3588 10.3093 14.2758 10.2783 14.1658C10.2581 14.0939 10.2505 14.0258 10.2561 13.9619C10.2617 13.8979 10.2795 13.8453 10.31 13.8042C10.3392 13.7635 10.3814 13.7342 10.4297 13.721C10.4786 13.7068 10.5309 13.7103 10.5775 13.7309C10.626 13.7517 10.6689 13.7884 10.7058 13.8412C10.7437 13.8963 10.772 13.9575 10.7896 14.022C10.8104 14.0955 10.8176 14.1642 10.8115 14.2284C10.8053 14.2925 10.7871 14.345 10.7566 14.3857C10.7261 14.4265 10.6892 14.4531 10.646 14.4653L10.6458 14.4652ZM10.6888 13.4234L10.1756 13.4118L10.1838 13.0526C10.1855 12.9803 10.1913 12.9256 10.2016 12.8882C10.2114 12.8508 10.2283 12.8212 10.2523 12.7992C10.2625 12.7889 10.2747 12.7808 10.2881 12.7753C10.3015 12.7698 10.3158 12.7671 10.3303 12.7672C10.3667 12.768 10.3969 12.7873 10.4212 12.8252C10.4451 12.863 10.4598 12.9208 10.4648 12.9986C10.4742 12.9706 10.4831 12.9492 10.4918 12.9347C10.5107 12.9038 10.5341 12.8744 10.5621 12.8471L10.7049 12.7094L10.7018 12.8442L10.5926 12.949C10.5612 12.9797 10.537 13.005 10.5203 13.0248C10.5059 13.041 10.4939 13.0591 10.4847 13.0787C10.4779 13.0942 10.473 13.1103 10.47 13.127C10.4676 13.1468 10.4663 13.1667 10.4662 13.1866L10.4633 13.311L10.6912 13.3163L10.6888 13.4234ZM10.4045 13.3097L10.4098 13.0792C10.4116 13.0407 10.4093 13.0021 10.4029 12.9641C10.397 12.9363 10.3872 12.9151 10.3736 12.9004C10.368 12.8937 10.361 12.8882 10.3531 12.8842C10.3452 12.8803 10.3366 12.8782 10.3278 12.8778C10.3035 12.8773 10.2833 12.8908 10.267 12.9185C10.2508 12.9457 10.2419 12.9892 10.2407 13.0493L10.2348 13.3059L10.4045 13.3097ZM11.8303 11.0522L11.8338 10.452L11.933 10.3926L12.4812 10.6627L12.3763 10.7253L12.2154 10.6405L11.9246 10.8147L11.9281 10.9937L11.8303 11.0522ZM11.9228 10.7513L12.1586 10.6102L12.0129 10.5316C11.9772 10.5129 11.9425 10.4923 11.909 10.4698C11.917 10.5033 11.9213 10.5389 11.9218 10.5764L11.9228 10.7513ZM14.4014 10.5904L14.9552 10.3589L15.0484 10.4268L15.0144 11.037L14.9158 10.965L14.9308 10.7838L14.6569 10.5843L14.4934 10.6576L14.4014 10.5904ZM14.7144 10.5578L14.9365 10.7197L14.9518 10.5548C14.9551 10.5147 14.9605 10.4746 14.9681 10.435C14.9392 10.4562 14.908 10.4741 14.8751 10.4885L14.7144 10.5578ZM16.0866 12.4683L16.5858 12.3487L16.6694 12.6983C16.6862 12.7685 16.6944 12.823 16.694 12.8618C16.694 12.9004 16.6851 12.9334 16.6677 12.9608C16.6603 12.9733 16.6506 12.9842 16.6391 12.9928C16.6275 13.0016 16.6143 13.0079 16.6003 13.0115C16.5649 13.02 16.5308 13.009 16.4977 12.9786C16.4648 12.9482 16.436 12.896 16.4113 12.8219C16.4105 12.8452 16.4073 12.8683 16.4015 12.8908C16.3906 12.9268 16.3753 12.9611 16.3558 12.9933L16.2528 13.1628L16.2214 13.0317L16.3003 12.9025C16.3229 12.865 16.3398 12.8343 16.3512 12.8109C16.3622 12.7873 16.3692 12.7669 16.3717 12.7496C16.3743 12.7327 16.375 12.7159 16.3737 12.6991C16.371 12.6793 16.3672 12.6598 16.3621 12.6405L16.3332 12.5196L16.1115 12.5726L16.0866 12.4683ZM16.3903 12.5058L16.444 12.73C16.4554 12.7777 16.4674 12.8143 16.48 12.8397C16.4928 12.865 16.5077 12.8831 16.5246 12.8938C16.5419 12.9044 16.5584 12.9078 16.5746 12.904C16.5981 12.8983 16.6143 12.88 16.623 12.8492C16.6318 12.8186 16.6292 12.7743 16.6152 12.7158L16.5555 12.4664L16.3903 12.5058Z" fill="#D0D0D0"/>
</g>
</g>
</g>
<defs>
<clipPath id="clip0_16699_264710">
<rect width="40" height="40" fill="white"/>
</clipPath>
</defs>
</svg>
