<svg width="40" height="40" viewBox="0 0 40 40" fill="none" xmlns="http://www.w3.org/2000/svg">
<g clip-path="url(#clip0_16699_264763)">
<mask id="mask0_16699_264763" style="mask-type:luminance" maskUnits="userSpaceOnUse" x="0" y="0" width="40" height="40">
<path d="M40 0H0V40H40V0Z" fill="white"/>
</mask>
<g mask="url(#mask0_16699_264763)">
<mask id="mask1_16699_264763" style="mask-type:luminance" maskUnits="userSpaceOnUse" x="0" y="0" width="40" height="40">
<path d="M40 20C40 8.95433 31.0457 0 20 0C8.95433 0 0 8.95433 0 20C0 31.0457 8.95433 40 20 40C31.0457 40 40 31.0457 40 20Z" fill="white"/>
</mask>
<g mask="url(#mask1_16699_264763)">
<path d="M60 0H0V40H60V0Z" fill="#CE1720"/>
<path d="M0.445312 0H9.33417V40H0.445312V0Z" fill="white"/>
<path d="M5.08345 0V1.44889H4.69234V0H5.08345ZM0.0878906 2.53333H0.790113V1.95556H1.14567V1.25333H1.64345V0.64H2.05234V0H3.28789V0.64H3.68789V1.25333H4.18567V1.95556H4.54122V2.53333H5.08345V3.43111H4.54122V4.00889H4.18567V4.71111H3.68789V5.32445H3.28789V5.98222H3.00345V6.53333H2.33678V5.98222H2.05234V5.32445H1.64345V4.71111H1.14567V4.00889H0.790113V3.43111H0.0878906M0.0878906 0.302222H0.790113V1.10222H0.0878906M2.84345 1.34222H2.479V1.88444H2.13234V2.56889H1.79456V3.41333H2.13234V4.09778H2.479V4.63111H2.84345V4.09778H3.19011V3.41333H3.53678V2.56889H3.19011V1.88444H2.84345V1.34222ZM2.879 2.57778V3.37778H2.44345V2.57778H2.879ZM0.0878906 4.67556H0.790113V5.53778H0.0878906M5.08345 4.75556V5.97333H4.69234V4.75556H5.08345ZM4.12345 6.10667V6.71111H4.55011V7.33333H5.08345V8.15111H4.55011V8.78225H4.12345V9.38667H3.62567V8.78225H3.199V8.15111H2.84345V7.33333H3.199V6.71111H3.62567V6.10667H4.12345ZM0.0878906 7.33333H0.790113V6.71111H1.21678V6.10667H1.70567V6.71111H2.13234V7.33333H2.48789V8.15111H2.13234V8.78225H1.70567V9.38667H1.21678V8.78225H0.790113V8.15111H0.0878906M4.06122 7.35111H3.69678V8.12445H4.06122V7.35111ZM1.65234 7.35111H1.28789V8.12445H1.65234V7.35111ZM1.79456 20.16V19.7422H1.49234V19.1111H1.09234V18.7289H0.790113V18.1156H0.0878906V16.6933H0.790113V17.1022H1.09234V17.6978H1.49234V18.4089H2.06122V17.7689H2.479V17.2978H2.78122V16.7378H3.18122V16.1422H3.47456V15.5378H3.759V14.9156H4.14122V14.08H3.63456V13.3244H3.08345V12.8711H2.159V13.5289H2.69234V14.1244H2.33678V14.8533H1.919V15.4933H1.39456V14.8533H0.959V14.1244H0.692335V13.5289H0.0878906V12.4H0.790113V11.6711H1.05678V11.1111H1.30567V10.4711H1.66122V9.84H2.00789V9.42225H2.42567V8.79108H2.93234V9.42225H3.35011V9.84H3.70567V10.4711H4.05234V11.1111H4.33678V11.6622H4.62122V12.1422H5.08345V15.6711H4.559V16.2667H4.40789V16.8889H4.01678V17.4933H3.77678V17.9378H3.52789V18.4089H3.10122V18.8711H2.48789V20.16M5.08345 9.37775V10.5956H4.69234V9.37775H5.08345ZM0.0878906 9.60892H0.790113V10.4711H0.0878906M0.0878906 14.7911H0.790113V15.6533H0.0878906V14.7911ZM5.06567 16.9778V17.76H4.69234V16.9778H5.06567ZM4.55011 20.16V19.6711H4.319V19.2889H3.98122V18.1422H4.319V18.6044H4.67456V19.28H5.06567V20.1511M3.16345 20.1511V19.5822H3.53678V20.1511" fill="#CE1720"/>
<path d="M4.69189 0V1.44889H5.08302V0H4.69189ZM9.68742 2.53333H8.98525V1.95556H8.62967V1.25333H8.13189V0.64H7.72302V0H6.48746V0.64H6.08746V1.25333H5.58968V1.95556H5.23413V2.53333H4.69189V3.43111H5.23413V4.00889H5.58968V4.71111H6.08746V5.32445H6.48746V5.98222H6.77189V6.53333H7.43857V5.98222H7.72302V5.32445H8.13189V4.71111H8.62967V4.00889H8.98525V3.43111H9.68742M9.68742 0.302222H8.98525V1.10222H9.68742M6.93189 1.34222H7.29634V1.88444H7.64302V2.56889H7.98079V3.41333H7.64302V4.09778H7.29634V4.63111H6.93189V4.09778H6.58524V3.41333H6.23857V2.56889H6.58524V1.88444H6.93189V1.34222ZM6.89634 2.57778V3.37778H7.33189V2.57778H6.89634ZM9.68742 4.67556H8.98525V5.53778H9.68742M4.69189 4.75556V5.97333H5.08302V4.75556H4.69189ZM5.65189 6.10667V6.71111H5.22524V7.33333H4.69189V8.15111H5.22524V8.78225H5.65189V9.38667H6.14968V8.78225H6.57634V8.15111H6.93189V7.33333H6.57634V6.71111H6.14968V6.10667H5.65189ZM9.68742 7.33333H8.98525V6.71111H8.55859V6.10667H8.06968V6.71111H7.64302V7.33333H7.28746V8.15111H7.64302V8.78225H8.06968V9.38667H8.55859V8.78225H8.98525V8.15111H9.68742M5.71413 7.35111H6.07857V8.12445H5.71413V7.35111ZM8.12302 7.35111H8.48742V8.12445H8.12302V7.35111ZM7.98079 20.16V19.7422H8.28302V19.1111H8.683V18.7289H8.98525V18.1156H9.68742V16.6933H8.98525V17.1022H8.683V17.6978H8.28302V18.4089H7.71413V17.7689H7.29634V17.2978H6.99413V16.7378H6.59413V16.1422H6.30079V15.5378H6.01634V14.9156H5.63413V14.08H6.14079V13.3244H6.69189V12.8711H7.61634V13.5289H7.08302V14.1244H7.43857V14.8533H7.85634V15.4933H8.38075V14.8533H8.81634V14.1244H9.083V13.5289H9.68742V12.4H8.98525V11.6711H8.71859V11.1111H8.46967V10.4711H8.11413V9.84H7.76746V9.42225H7.34968V8.79108H6.84302V9.42225H6.42524V9.84H6.06968V10.4711H5.72302V11.1111H5.43857V11.6622H5.15413V12.1422H4.69189V15.6711H5.21634V16.2667H5.36746V16.8889H5.75857V17.4933H5.99857V17.9378H6.24746V18.4089H6.67413V18.8711H7.28746V20.16M4.69189 9.37775V10.5956H5.08302V9.37775H4.69189ZM9.68742 9.60892H8.98525V10.4711H9.68742M9.68742 14.7911H8.98525V15.6533H9.68742V14.7911ZM4.70968 16.9778V17.76H5.08302V16.9778H4.70968ZM5.22524 20.16V19.6711H5.45634V19.2889H5.79413V18.1422H5.45634V18.6044H5.10079V19.28H4.70968V20.1511M6.61189 20.1511V19.5822H6.23857V20.1511" fill="#CE1720"/>
<path d="M5.08345 40.0005V38.5516H4.69234V40.0005H5.08345ZM0.0878906 37.4672H0.790113V38.0449H1.14567V38.7472H1.64345V39.3605H2.05234V40.0005H3.28789V39.3605H3.68789V38.7472H4.18567V38.0449H4.54122V37.4672H5.08345V36.5694H4.54122V35.9916H4.18567V35.2894H3.68789V34.6761H3.28789V34.0183H3.00345V33.4672H2.33678V34.0183H2.05234V34.6761H1.64345V35.2894H1.14567V35.9916H0.790113V36.5694H0.0878906M0.0878906 39.6983H0.790113V38.8983H0.0878906M2.84345 38.6583H2.479V38.1161H2.13234V37.4316H1.79456V36.5872H2.13234V35.9027H2.479V35.3694H2.84345V35.9027H3.19011V36.5872H3.53678V37.4316H3.19011V38.1161H2.84345V38.6583ZM2.879 37.4227V36.6227H2.44345V37.4227H2.879ZM0.0878906 35.3249H0.790113V34.4627H0.0878906M5.08345 35.2449V34.0272H4.69234V35.2449H5.08345ZM4.12345 33.8938V33.2894H4.55011V32.6672H5.08345V31.8494H4.55011V31.2183H4.12345V30.6138H3.62567V31.2183H3.199V31.8494H2.84345V32.6672H3.199V33.2894H3.62567V33.8938H4.12345ZM0.0878906 32.6672H0.790113V33.2894H1.21678V33.8938H1.70567V33.2894H2.13234V32.6672H2.48789V31.8494H2.13234V31.2183H1.70567V30.6138H1.21678V31.2183H0.790113V31.8494H0.0878906M4.06122 32.6494H3.69678V31.8761H4.06122V32.6494ZM1.65234 32.6494H1.28789V31.8761H1.65234V32.6494ZM1.79456 19.8405V20.2583H1.49234V20.8894H1.09234V21.2716H0.790113V21.8849H0.0878906V23.3072H0.790113V22.8983H1.09234V22.3027H1.49234V21.5916H2.06122V22.2316H2.479V22.7027H2.78122V23.2627H3.18122V23.8583H3.47456V24.4627H3.759V25.0849H4.14122V25.9205H3.63456V26.6761H3.08345V27.1294H2.159V26.4716H2.69234V25.8761H2.33678V25.1472H1.919V24.5072H1.39456V25.1472H0.959V25.8761H0.692335V26.4716H0.0878906V27.6005H0.790113V28.3294H1.05678V28.8894H1.30567V29.5294H1.66122V30.1605H2.00789V30.5783H2.42567V31.2094H2.93234V30.5783H3.35011V30.1605H3.70567V29.5294H4.05234V28.8894H4.33678V28.3383H4.62122V27.8583H5.08345V24.3294H4.559V23.7338H4.40789V23.1116H4.01678V22.5072H3.77678V22.0627H3.52789V21.5916H3.10122V21.1294H2.48789V19.8405M5.08345 30.6227V29.4049H4.69234V30.6227H5.08345ZM0.0878906 30.3916H0.790113V29.5294H0.0878906M0.0878906 25.2094H0.790113V24.3472H0.0878906V25.2094ZM5.06567 23.0227V22.2405H4.69234V23.0227H5.06567ZM4.55011 19.8405V20.3294H4.319V20.7116H3.98122V21.8583H4.319V21.3961H4.67456V20.7205H5.06567V19.8494M3.16345 19.8494V20.4183H3.53678V19.8494" fill="#CE1720"/>
<path d="M4.69189 40.0005V38.5516H5.08302V40.0005H4.69189ZM9.68742 37.4672H8.98525V38.0449H8.62967V38.7472H8.13189V39.3605H7.72302V40.0005H6.48746V39.3605H6.08746V38.7472H5.58968V38.0449H5.23413V37.4672H4.69189V36.5694H5.23413V35.9916H5.58968V35.2894H6.08746V34.6761H6.48746V34.0183H6.77189V33.4672H7.43857V34.0183H7.72302V34.6761H8.13189V35.2894H8.62967V35.9916H8.98525V36.5694H9.68742M9.68742 39.6983H8.98525V38.8983H9.68742M6.93189 38.6583H7.29634V38.1161H7.64302V37.4316H7.98079V36.5872H7.64302V35.9027H7.29634V35.3694H6.93189V35.9027H6.58524V36.5872H6.23857V37.4316H6.58524V38.1161H6.93189V38.6583ZM6.89634 37.4227V36.6227H7.33189V37.4227H6.89634ZM9.68742 35.3249H8.98525V34.4627H9.68742M4.69189 35.2449V34.0272H5.08302V35.2449H4.69189ZM5.65189 33.8938V33.2894H5.22524V32.6672H4.69189V31.8494H5.22524V31.2183H5.65189V30.6138H6.14968V31.2183H6.57634V31.8494H6.93189V32.6672H6.57634V33.2894H6.14968V33.8938H5.65189ZM9.68742 32.6672H8.98525V33.2894H8.55859V33.8938H8.06968V33.2894H7.64302V32.6672H7.28746V31.8494H7.64302V31.2183H8.06968V30.6138H8.55859V31.2183H8.98525V31.8494H9.68742M5.71413 32.6494H6.07857V31.8761H5.71413V32.6494ZM8.12302 32.6494H8.48742V31.8761H8.12302V32.6494ZM7.98079 19.8405V20.2583H8.28302V20.8894H8.683V21.2716H8.98525V21.8849H9.68742V23.3072H8.98525V22.8983H8.683V22.3027H8.28302V21.5916H7.71413V22.2316H7.29634V22.7027H6.99413V23.2627H6.59413V23.8583H6.30079V24.4627H6.01634V25.0849H5.63413V25.9205H6.14079V26.6761H6.69189V27.1294H7.61634V26.4716H7.08302V25.8761H7.43857V25.1472H7.85634V24.5072H8.38075V25.1472H8.81634V25.8761H9.083V26.4716H9.68742V27.6005H8.98525V28.3294H8.71859V28.8894H8.46967V29.5294H8.11413V30.1605H7.76746V30.5783H7.34968V31.2094H6.84302V30.5783H6.42524V30.1605H6.06968V29.5294H5.72302V28.8894H5.43857V28.3383H5.15413V27.8583H4.69189V24.3294H5.21634V23.7338H5.36746V23.1116H5.75857V22.5072H5.99857V22.0627H6.24746V21.5916H6.67413V21.1294H7.28746V19.8405M4.69189 30.6227V29.4049H5.08302V30.6227H4.69189ZM9.68742 30.3916H8.98525V29.5294H9.68742M9.68742 25.2094H8.98525V24.3472H9.68742V25.2094ZM4.70968 23.0227V22.2405H5.08302V23.0227H4.70968ZM5.22524 19.8405V20.3294H5.45634V20.7116H5.79413V21.8583H5.45634V21.3961H5.10079V20.7205H4.70968V19.8494M6.61189 19.8494V20.4183H6.23857V19.8494" fill="#CE1720"/>
<path d="M9.33197 26.6667H59.9986V40H9.33197V26.6667Z" fill="#007C30"/>
</g>
</g>
</g>
<defs>
<clipPath id="clip0_16699_264763">
<rect width="40" height="40" fill="white"/>
</clipPath>
</defs>
</svg>
