<svg width="40" height="40" viewBox="0 0 40 40" fill="none" xmlns="http://www.w3.org/2000/svg">
<g clip-path="url(#clip0_16699_264921)">
<mask id="mask0_16699_264921" style="mask-type:luminance" maskUnits="userSpaceOnUse" x="0" y="0" width="40" height="40">
<path d="M40 20C40 8.95431 31.0457 0 20 0C8.95431 0 0 8.95431 0 20C0 31.0457 8.95431 40 20 40C31.0457 40 40 31.0457 40 20Z" fill="white"/>
</mask>
<g mask="url(#mask0_16699_264921)">
<mask id="mask1_16699_264921" style="mask-type:luminance" maskUnits="userSpaceOnUse" x="-8" y="0" width="54" height="40">
<path d="M-7.41663 0H45.9167V40H-7.41663V0Z" fill="white"/>
</mask>
<g mask="url(#mask1_16699_264921)">
<path d="M-7.41663 0H45.9167V40H-7.41663V0Z" fill="#008000"/>
<path d="M20.8334 24.1667C23.1805 24.1667 25.0834 22.2638 25.0834 19.9167C25.0834 17.5695 23.1805 15.6667 20.8334 15.6667C18.4862 15.6667 16.5834 17.5695 16.5834 19.9167C16.5834 22.2638 18.4862 24.1667 20.8334 24.1667Z" fill="#FFE000"/>
<path d="M22.1251 23.4167C24.0351 23.4167 25.5834 21.8497 25.5834 19.9167C25.5834 17.9837 24.0351 16.4167 22.1251 16.4167C20.2151 16.4167 18.6667 17.9837 18.6667 19.9167C18.6667 21.8497 20.2151 23.4167 22.1251 23.4167Z" fill="#008000"/>
<path d="M7.45833 20.0833C9.92058 20.0833 11.9167 18.1059 11.9167 15.6667C11.9167 13.2274 9.92058 11.25 7.45833 11.25C4.99608 11.25 3 13.2274 3 15.6667C3 18.1059 4.99608 20.0833 7.45833 20.0833Z" fill="#FFE000"/>
<path d="M7.16675 19H8.30317C8.30317 19 8.35441 18.8992 8.29171 18.8488C8.22895 18.7984 7.9846 18.7873 8.05061 18.6091C8.18633 18.2427 8.2053 18.3557 8.29053 17.4853C8.37575 16.615 8.41675 15.25 8.41675 15.25H8.25254C8.25254 15.25 8.28421 15.6745 8.18953 16.2273C8.09478 16.7801 8.06637 16.8288 7.96225 17.2533C7.85798 17.6778 7.84235 17.7143 7.7476 17.9617C7.65292 18.2091 7.64334 18.2213 7.49503 18.4503C7.34672 18.6793 7.40036 18.5938 7.31831 18.7312C7.27726 18.7999 7.22676 18.7817 7.19906 18.8317C7.17151 18.8816 7.16675 18.9999 7.16675 18.9999V19Z" fill="#802000" stroke="#7B3100" stroke-width="0.7405"/>
<path d="M7.99692 12.4167C8.00604 12.5888 7.98892 12.8167 7.91825 13.0021C7.84663 13.2087 7.76872 13.4147 7.77256 13.6286C7.65865 13.6678 7.54134 13.3798 7.43171 13.5492C7.51402 13.7833 7.70421 13.9685 7.83467 14.1794C7.8567 14.2449 8.04424 14.4156 7.93568 14.4553C7.66173 14.3605 7.5954 14.0103 7.42548 13.7974C7.22825 13.4395 6.86034 13.1864 6.45065 13.1689C6.29665 13.173 5.79614 13.1303 5.92642 13.3965C6.11817 13.5282 6.35448 13.614 6.54379 13.7618C6.68495 13.7751 6.94064 14.0128 6.92579 14.1028C6.67758 14.0013 6.56141 13.8796 6.29413 13.773C5.93183 13.6316 5.43069 13.7167 5.23025 14.0796C5.19287 14.1741 5.13773 14.4496 5.25523 14.4759C5.39262 14.2593 5.58916 14.0172 5.88035 14.0822C6.10911 14.1003 5.62515 14.5125 5.81024 14.4295C5.86889 14.4033 6.00439 14.3134 6.09835 14.3041C6.19231 14.2948 6.24479 14.3657 6.31609 14.3755C6.4587 14.3953 6.49798 14.4556 6.48476 14.4907C6.46915 14.532 6.42383 14.4967 6.27897 14.5431C6.2064 14.5663 6.16858 14.6306 6.084 14.66C5.99948 14.6895 5.82358 14.6915 5.75787 14.6655C5.52792 14.5647 5.15095 14.5823 5.07927 14.8731C5.07914 15.0011 4.96637 14.859 4.91426 14.9143C4.87524 15.0539 4.86518 15.1973 4.66001 15.1845C4.53553 15.3163 4.40803 15.4528 4.25 15.5467C4.34277 15.7617 4.71029 15.3308 4.69305 15.5124C4.53244 15.7337 4.77574 15.7803 4.88229 15.6099C5.06247 15.4178 5.28557 15.1838 5.55442 15.3775C5.68248 15.4992 5.75688 15.3132 5.84958 15.3231C5.90791 15.4743 5.98142 15.3306 6.04768 15.2878C6.15612 15.2743 6.1256 15.4247 6.25455 15.332C6.51144 15.1603 6.82749 15.3046 7.07847 15.1376C7.34556 15.0147 7.11598 15.2365 7.04222 15.3233C6.92491 15.5531 7.02667 15.8548 6.77211 15.9975C6.66984 16.2713 6.89294 16.6325 6.66537 16.8352C6.63233 16.9623 6.95802 16.9477 7.04946 16.9999C7.20962 17.0063 7.04253 16.6298 7.2015 16.5793C7.41472 16.7125 7.40477 16.341 7.36072 16.2264C7.38137 15.9661 7.39597 15.6813 7.5241 15.4454C7.66035 15.1563 7.78652 15.5632 7.63397 15.6777C7.54732 15.9434 7.42127 16.2762 7.61824 16.5233C7.67501 16.5362 7.72164 16.6753 7.79509 16.7178C7.86872 16.7606 7.9691 16.707 7.98741 16.5806C8.08168 16.1999 8.03417 15.7905 8.16885 15.4203C8.264 15.3056 8.39508 15.4018 8.45408 15.5073C8.64283 15.7283 8.7755 16.0049 9.00392 16.1873C9.21192 16.2856 9.39583 16.4342 9.49167 16.6504C9.49042 16.8173 9.96108 16.8428 9.82042 16.6574C9.6855 16.4768 9.7745 16.2963 9.91117 16.1763C9.98433 16.1945 9.96275 16.0622 9.90533 16.1145C9.8135 16.0926 9.80758 15.9228 9.93533 16.0035C10.1504 16.0737 9.9185 15.8463 9.84083 15.8393C9.65892 15.7255 9.45 15.5946 9.3605 15.3967C9.59725 15.3993 9.84308 15.5281 10.085 15.4482C10.2789 15.3475 10.4757 15.4564 10.5434 15.6291C10.6933 15.605 10.6294 15.4531 10.5434 15.4026C10.6531 15.357 10.7289 15.2622 10.5959 15.1787C10.5257 15.0862 10.6901 14.9283 10.4881 14.9349C10.4946 14.7791 10.4339 14.6365 10.2657 14.5827C10.097 14.4386 9.6025 14.7949 9.61683 14.4703C9.567 14.2934 9.81767 14.4465 9.88783 14.3584C9.96017 14.172 9.54283 14.1902 9.6805 14.0458C9.7705 13.9873 10.1926 13.9033 9.86158 13.8408C9.69633 13.8865 9.55442 13.8525 9.4245 13.77C9.306 13.9702 8.96758 13.6613 9.02792 14.0172C8.98158 14.1511 8.67925 14.4994 8.59733 14.2326C8.667 14.0235 9.02525 13.955 8.91417 13.673C8.89717 13.497 8.75258 13.7038 8.6845 13.6906C8.65 13.581 8.78883 13.4518 8.8855 13.4258C9.0775 13.5749 9.08325 13.2378 9.26583 13.2653C9.39917 13.2354 9.22275 13.1776 9.18558 13.1523C9.22208 13.0538 9.42675 13.0034 9.22608 12.9179C9.04908 12.7853 8.91792 13.0499 8.77183 13.0641C8.63175 12.9043 8.89908 12.8275 8.97292 12.7434C8.97683 12.6806 8.817 12.7243 8.86508 12.6698C8.90683 12.5944 9.18992 12.5888 9.05742 12.4757C8.85792 12.4063 8.60017 12.4237 8.40858 12.5133C8.28798 12.5527 8.25248 12.8283 8.14839 12.8168C8.09949 12.6942 8.16432 12.4521 7.99692 12.4167ZM8.94092 15.1083C9.093 15.0823 8.94408 15.3415 8.87108 15.3378C8.8775 15.2447 8.651 15.2536 8.7915 15.1725C8.83717 15.1423 8.88775 15.1206 8.94092 15.1083Z" fill="#008000"/>
<path d="M30.9903 25.2363L31.27 26.1079L32.1243 25.7837L31.6187 26.5463L32.4044 27.0137L31.4943 27.0929L31.6196 28L30.9903 27.3363L30.361 28L30.4863 27.093L29.5763 27.0137L30.3618 26.5463L29.8564 25.7837L30.7107 26.1079L30.9903 25.2363ZM25.914 17.1793L26.1937 18.051L27.048 17.7268L26.5424 18.4894L27.3281 18.9567L26.418 19.0361L26.5433 19.9431L25.914 19.2793L25.2847 19.9431L25.4101 19.0361L24.5 18.9567L25.2856 18.4894L24.7801 17.7268L25.6343 18.051L25.914 17.1793ZM30.9903 11.6667L31.27 12.5383L32.1243 12.2141L31.6187 12.9768L32.4044 13.4441L31.4943 13.5234L31.6196 14.4304L30.9903 13.7668L30.361 14.4304L30.4863 13.5234L29.5763 13.4441L30.3618 12.9768L29.8564 12.2141L30.7107 12.5383L30.9903 11.6667ZM35.5027 15.8224L35.7823 16.6941L36.6366 16.3698L36.1311 17.1325L36.9167 17.5998L36.0066 17.6791L36.1319 18.5862L35.5027 17.9224L34.8733 18.5862L34.9987 17.6791L34.0886 17.5998L34.8743 17.1325L34.3687 16.3698L35.223 16.6941L35.5027 15.8224ZM33.0209 19.9053L33.2419 20.4485L33.8256 20.4913L33.3785 20.8699L33.5182 21.4395L33.0209 21.1304L32.5236 21.4395L32.6633 20.8699L32.2163 20.4913L32.7999 20.4485L33.0209 19.9053Z" fill="#FFE000"/>
</g>
</g>
</g>
<defs>
<clipPath id="clip0_16699_264921">
<rect width="40" height="40" fill="white"/>
</clipPath>
</defs>
</svg>
