<svg width="40" height="40" viewBox="0 0 40 40" fill="none" xmlns="http://www.w3.org/2000/svg">
<g clip-path="url(#clip0_16699_264937)">
<mask id="mask0_16699_264937" style="mask-type:luminance" maskUnits="userSpaceOnUse" x="0" y="0" width="40" height="40">
<path d="M40 0H0V40H40V0Z" fill="white"/>
</mask>
<g mask="url(#mask0_16699_264937)">
<mask id="mask1_16699_264937" style="mask-type:luminance" maskUnits="userSpaceOnUse" x="0" y="0" width="40" height="40">
<path d="M40 20C40 8.95433 31.0457 0 20 0C8.95433 0 0 8.95433 0 20C0 31.0457 8.95433 40 20 40C31.0457 40 40 31.0457 40 20Z" fill="white"/>
</mask>
<g mask="url(#mask1_16699_264937)">
<path d="M40 0H0V40H40V0Z" fill="#007FFF"/>
<path d="M37.5 1L0 31V41H2.5L40 11V1H37.5Z" fill="#F7D618"/>
<path d="M40 1L0 33V41L40 9V1Z" fill="#CE1021"/>
<path d="M11.2 8.81817H7L10.4 11.1818L9.1 15L12.5 12.6364L15.9 15L14.6 11.1818L18 8.81817H13.8L12.5 5L11.2 8.81817Z" fill="#F7D618"/>
</g>
</g>
</g>
<defs>
<clipPath id="clip0_16699_264937">
<rect width="40" height="40" fill="white"/>
</clipPath>
</defs>
</svg>
