<svg width="40" height="40" viewBox="0 0 40 40" fill="none" xmlns="http://www.w3.org/2000/svg">
<g clip-path="url(#clip0_16699_265000)">
<mask id="mask0_16699_265000" style="mask-type:luminance" maskUnits="userSpaceOnUse" x="0" y="0" width="40" height="40">
<path d="M40 20C40 8.95431 31.0457 0 20 0C8.95431 0 0 8.95431 0 20C0 31.0457 8.95431 40 20 40C31.0457 40 40 31.0457 40 20Z" fill="white"/>
</mask>
<g mask="url(#mask0_16699_265000)">
<mask id="mask1_16699_265000" style="mask-type:luminance" maskUnits="userSpaceOnUse" x="-14" y="0" width="54" height="40">
<path d="M-13.3334 0H40V40H-13.3334V0Z" fill="white"/>
</mask>
<g mask="url(#mask1_16699_265000)">
<path d="M-13.3334 0H40V40H-13.3334V0Z" fill="#000066"/>
<path d="M-13.3334 5.8596e-06V2.06751L13.3125 18.493H16.6666V16.4255L-9.97921 5.8596e-06H-13.3334ZM16.667 5.8596e-06V2.06751L-9.97954 18.4931H-13.3334V16.4253L13.3125 -0.000244141H16.6666L16.667 5.8596e-06Z" fill="white"/>
<path d="M-0.833123 0V18.4933H4.16688V0H-0.833123ZM-13.3334 6.16442V12.3288H16.667V6.16442H-13.3334Z" fill="white"/>
<path d="M-13.3334 7.39717V11.0958H16.6669V7.39717H-13.3334ZM0.16683 0V18.4933H3.16683V0H0.16683ZM-13.3334 18.4933L-3.33309 12.3288H-1.097L-11.0973 18.493H-13.3337L-13.3334 18.4933ZM-13.3334 0L-3.33309 6.16442H-5.56925L-13.3331 1.37833V0H-13.3334ZM4.43091 6.16442L14.4306 0H16.6666L6.66641 6.16442H4.43033H4.43091ZM16.6669 18.4936L6.66658 12.329H8.90265L16.6666 17.115V18.4935L16.6669 18.4936Z" fill="#CC0000"/>
<path fill-rule="evenodd" clip-rule="evenodd" d="M25.9666 17.75L26.3999 16.361L25.2322 15.4738L26.7034 15.4551L27.1937 14.0853L27.6694 15.4626L29.1408 15.5029L27.9634 16.3728L28.3824 17.7681L27.1791 16.9283M29.4333 18.0228L30.3006 16.8617L29.4939 15.6285L30.8861 16.1114L31.8009 14.9878L31.7937 16.4471L33.1665 16.9857L31.7699 17.4045L31.7032 18.8616L30.8472 17.6609M22.6474 18.9089L22.5897 17.4531L21.1942 17.0212L22.5717 16.4965L22.5739 15.0393L23.4827 16.1708L24.8802 15.7016L24.0641 16.9253L24.9254 18.0933L23.5124 17.7181M20.2049 21.1237L19.5939 19.8052L18.1427 19.9572L19.2109 18.9308L18.6546 17.5872L19.9254 18.2713L21.0331 17.2882L20.7503 18.7373L21.9914 19.474L20.5458 19.6853M19.0896 24.3172L17.9804 23.3917L16.7334 24.16L17.2647 22.7683L16.1943 21.7963L17.6315 21.8619L18.2168 20.4919L18.5737 21.9244L20.0062 22.0501L18.7895 22.8698M19.0624 27.9045L17.6818 27.5031L16.8393 28.7113L16.7807 27.22L15.4174 26.7603L16.7615 26.2403L16.7612 24.7473L17.6505 25.9173L19.0142 25.4545L18.2194 26.6976M20.6799 30.9353L19.2571 31.1348L18.9685 32.5856L18.3202 31.2458L16.89 31.3849L17.9121 30.3576L17.3163 28.9924L18.5963 29.6974L19.6586 28.7144L19.4276 30.1774M23.1808 33.3404L21.9134 34.0259L22.1364 35.4884L21.0719 34.4583L19.7771 35.0897L20.3866 33.7678L19.3626 32.6953L20.8039 32.9086L21.4664 31.614L21.7475 33.0679M26.2335 33.8148L25.5419 35.0917L26.5169 36.1925L25.0702 35.9203L24.3265 37.1672L24.1242 35.7223L22.6887 35.3922L24.0104 34.7715L23.8674 33.3201L24.8865 34.3816M29.6643 33.288L29.6212 34.7443L30.9833 35.2747L29.5729 35.6999L29.4699 37.1534L28.6415 35.9601L27.2152 36.3287L28.1138 35.166L27.3353 33.9397L28.7189 34.4145M33.2523 17.4797L34.2476 18.53L35.5743 17.9142L34.8868 19.2338L35.8383 20.3256L34.4183 20.0906L33.6796 21.3819L33.4896 19.9172L32.0813 19.623L33.3839 18.9528M36.2376 20.7114L36.6893 22.0943L38.1482 22.1188L36.967 23.0088L37.3615 24.41L36.1802 23.5772L34.9648 24.4194L35.4158 23.0147L34.2699 22.1333L35.7303 22.0982M37.3564 24.8653L37.1892 26.3123L38.501 26.9603L37.0597 27.2601L36.833 28.6993L36.1097 27.4376L34.6572 27.6796L35.6516 26.6L34.9808 25.31L36.3186 25.9044M36.5629 29.2207L35.9156 30.5213L36.9279 31.5871L35.4728 31.3661L34.7723 32.6384L34.5206 31.2018L33.0745 30.9226L34.3742 30.2554L34.1814 28.81L35.2364 29.8347M34.4169 33.0937L33.1939 33.8578L33.5062 35.3035L32.3805 34.3423L31.1269 35.0542L31.6543 33.6964L30.5665 32.6904L32.0179 32.8125L32.5999 31.4787L32.9696 32.912" fill="white"/>
</g>
</g>
</g>
<defs>
<clipPath id="clip0_16699_265000">
<rect width="40" height="40" fill="white"/>
</clipPath>
</defs>
</svg>
