<svg width="40" height="40" viewBox="0 0 40 40" fill="none" xmlns="http://www.w3.org/2000/svg">
<g clip-path="url(#clip0_16699_265014)">
<mask id="mask0_16699_265014" style="mask-type:luminance" maskUnits="userSpaceOnUse" x="0" y="0" width="40" height="40">
<path d="M40 0H0V40H40V0Z" fill="white"/>
</mask>
<g mask="url(#mask0_16699_265014)">
<mask id="mask1_16699_265014" style="mask-type:luminance" maskUnits="userSpaceOnUse" x="0" y="0" width="40" height="40">
<path d="M40 20C40 8.95433 31.0457 0 20 0C8.95433 0 0 8.95433 0 20C0 31.0457 8.95433 40 20 40C31.0457 40 40 31.0457 40 20Z" fill="white"/>
</mask>
<g mask="url(#mask1_16699_265014)">
<path d="M0 0H60V40H0V0Z" fill="white"/>
<path d="M0 20V0H20V30L0 20Z" fill="#0039A6"/>
<path d="M0 20H60V40H0V20Z" fill="#D72B1F"/>
<path d="M11.8779 6.5L14.5839 14.8277L7.5 9.681H16.2559L9.172 14.8277L11.8779 6.5Z" fill="white"/>
</g>
</g>
</g>
<defs>
<clipPath id="clip0_16699_265014">
<rect width="40" height="40" fill="white"/>
</clipPath>
</defs>
</svg>
