<svg width="40" height="40" viewBox="0 0 40 40" fill="none" xmlns="http://www.w3.org/2000/svg">
<g clip-path="url(#clip0_16699_265027)">
<mask id="mask0_16699_265027" style="mask-type:luminance" maskUnits="userSpaceOnUse" x="0" y="0" width="40" height="40">
<path d="M40 0H0V40H40V0Z" fill="white"/>
</mask>
<g mask="url(#mask0_16699_265027)">
<mask id="mask1_16699_265027" style="mask-type:luminance" maskUnits="userSpaceOnUse" x="0" y="0" width="40" height="40">
<path d="M40 20C40 8.95433 31.0457 0 20 0C8.95433 0 0 8.95433 0 20C0 31.0457 8.95433 40 20 40C31.0457 40 40 31.0457 40 20Z" fill="white"/>
</mask>
<g mask="url(#mask1_16699_265027)">
<path d="M0 -5H40V46H0V-5Z" fill="#CE1126"/>
<path d="M0 -2H13V43H0V-2Z" fill="#007A5E"/>
<path d="M27 -6H40V47H27V-6Z" fill="#FCD116"/>
<path d="M17.9183 23.199L23.3693 19.2387H16.6315L22.0825 23.199L20.0004 16.791L17.9183 23.199Z" fill="#FCD116"/>
</g>
</g>
</g>
<defs>
<clipPath id="clip0_16699_265027">
<rect width="40" height="40" fill="white"/>
</clipPath>
</defs>
</svg>
