<svg width="40" height="40" viewBox="0 0 40 40" fill="none" xmlns="http://www.w3.org/2000/svg">
<g clip-path="url(#clip0_16699_265040)">
<mask id="mask0_16699_265040" style="mask-type:luminance" maskUnits="userSpaceOnUse" x="0" y="0" width="40" height="40">
<path d="M40 0H0V40H40V0Z" fill="white"/>
</mask>
<g mask="url(#mask0_16699_265040)">
<mask id="mask1_16699_265040" style="mask-type:luminance" maskUnits="userSpaceOnUse" x="0" y="0" width="40" height="40">
<path d="M40 20C40 8.95433 31.0457 0 20 0C8.95433 0 0 8.95433 0 20C0 31.0457 8.95433 40 20 40C31.0457 40 40 31.0457 40 20Z" fill="white"/>
</mask>
<g mask="url(#mask1_16699_265040)">
<path d="M40 20C40 8.95433 31.0457 0 20 0C8.95433 0 0 8.95433 0 20C0 31.0457 8.95433 40 20 40C31.0457 40 40 31.0457 40 20Z" fill="#EE1C25"/>
<path d="M63 4H4V44H63V4Z" fill="#EE1C25"/>
<path d="M14.6112 8L18.0792 18.8541L9 12.1459H20.2225L11.1433 18.8541L14.6112 8Z" fill="#FFFF00"/>
<path d="M25.2134 6.15951L24.8851 9.94908L22.9604 6.68694L26.4029 8.17559L22.7575 9.029L25.2134 6.15951Z" fill="#FFFF00"/>
<path d="M29.7907 10.6074L28.0419 13.9704L27.5129 10.2044L30.1177 12.935L26.4322 12.2829L29.7907 10.6074Z" fill="#FFFF00"/>
<path d="M30.2234 17.3142L27.2778 19.6592L28.3055 16.0013L29.5883 19.5749L26.485 17.4506L30.2234 17.3142Z" fill="#FFFF00"/>
<path d="M25.1367 20.1286L24.9632 23.9287L22.9072 20.7506L26.4075 22.0928L22.8 23.0992L25.1367 20.1286Z" fill="#FFFF00"/>
</g>
</g>
</g>
<defs>
<clipPath id="clip0_16699_265040">
<rect width="40" height="40" fill="white"/>
</clipPath>
</defs>
</svg>
