<svg width="40" height="40" viewBox="0 0 40 40" fill="none" xmlns="http://www.w3.org/2000/svg">
<g clip-path="url(#clip0_16699_265366)">
<mask id="mask0_16699_265366" style="mask-type:luminance" maskUnits="userSpaceOnUse" x="0" y="0" width="40" height="40">
<path d="M40 0H0V40H40V0Z" fill="white"/>
</mask>
<g mask="url(#mask0_16699_265366)">
<mask id="mask1_16699_265366" style="mask-type:luminance" maskUnits="userSpaceOnUse" x="0" y="0" width="40" height="40">
<path d="M40 20C40 8.95433 31.0457 0 20 0C8.95433 0 0 8.95433 0 20C0 31.0457 8.95433 40 20 40C31.0457 40 40 31.0457 40 20Z" fill="white"/>
</mask>
<g mask="url(#mask1_16699_265366)">
<path d="M0 0H60.0082V40H0V0Z" fill="#002A8F"/>
<path d="M8.00024 8H60.1193V16H19.5822V24H60.1193V32H8.00024V8Z" fill="white"/>
<path d="M34.64 20L0 40V0L34.64 20Z" fill="#CB1515"/>
<path d="M11.5464 13.3333L7.62908 25.3947L17.8877 17.9387H5.20508L15.4664 25.3947L11.5464 13.3333Z" fill="white"/>
</g>
</g>
</g>
<defs>
<clipPath id="clip0_16699_265366">
<rect width="40" height="40" fill="white"/>
</clipPath>
</defs>
</svg>
