<svg width="40" height="40" viewBox="0 0 40 40" fill="none" xmlns="http://www.w3.org/2000/svg">
<g clip-path="url(#clip0_16699_265379)">
<mask id="mask0_16699_265379" style="mask-type:luminance" maskUnits="userSpaceOnUse" x="0" y="0" width="40" height="40">
<path d="M40 0H0V40H40V0Z" fill="white"/>
</mask>
<g mask="url(#mask0_16699_265379)">
<mask id="mask1_16699_265379" style="mask-type:luminance" maskUnits="userSpaceOnUse" x="0" y="0" width="40" height="40">
<path d="M40 20C40 8.95433 31.0457 0 20 0C8.95433 0 0 8.95433 0 20C0 31.0457 8.95433 40 20 40C31.0457 40 40 31.0457 40 20Z" fill="white"/>
</mask>
<g mask="url(#mask1_16699_265379)">
<path d="M40 20C40 8.95433 31.0457 0 20 0C8.95433 0 0 8.95433 0 20C0 31.0457 8.95433 40 20 40C31.0457 40 40 31.0457 40 20Z" fill="#003893"/>
<path d="M-5 3H46V37H-5V3Z" fill="#003893"/>
<path d="M-5 20H46V28.5H-5V20Z" fill="white"/>
<path d="M-5 22.8333H46.0085V25.6668H-5V22.8333Z" fill="#CF2027"/>
<path d="M16.6794 14.0488L16.1542 15.6657L16.9625 15.9283" fill="#F7D116"/>
<path d="M16.6794 14.0488L17.2048 15.6657L16.3964 15.9283" fill="#F7D116"/>
<path d="M18.2947 15.224H16.5947V16.074" fill="#F7D116"/>
<path d="M18.2946 15.224L16.9193 16.2232L16.4197 15.5355" fill="#F7D116"/>
<path d="M17.678 17.1246L17.1527 15.5078L16.3442 15.7704" fill="#F7D116"/>
<path d="M17.678 17.1251L16.3026 16.1258L16.8022 15.4382" fill="#F7D116"/>
<path d="M15.6799 17.1244L17.0553 16.1252L16.5557 15.4375" fill="#F7D116"/>
<path d="M15.6799 17.1246L16.2053 15.5078L17.0137 15.7705" fill="#F7D116"/>
<path d="M15.0604 15.224L16.4357 16.2232L16.9353 15.5356" fill="#F7D116"/>
<path d="M15.0604 15.224H16.7604V16.0739" fill="#F7D116"/>
<path d="M16.6794 31.0488L16.1542 32.6657L16.9625 32.9283" fill="#F7D116"/>
<path d="M16.6794 31.0488L17.2048 32.6657L16.3964 32.9283" fill="#F7D116"/>
<path d="M18.2947 32.224H16.5947V33.0739" fill="#F7D116"/>
<path d="M18.2946 32.224L16.9193 33.2232L16.4197 32.5355" fill="#F7D116"/>
<path d="M17.678 34.1246L17.1527 32.5078L16.3442 32.7704" fill="#F7D116"/>
<path d="M17.678 34.1251L16.3026 33.1258L16.8022 32.4382" fill="#F7D116"/>
<path d="M15.6799 34.1244L17.0553 33.1252L16.5557 32.4375" fill="#F7D116"/>
<path d="M15.6799 34.1246L16.2053 32.5078L17.0137 32.7705" fill="#F7D116"/>
<path d="M15.0604 32.224L16.4357 33.2232L16.9353 32.5356" fill="#F7D116"/>
<path d="M15.0604 32.224H16.7604V33.074" fill="#F7D116"/>
<path d="M26.3772 21.097H24.6772V21.947" fill="#F7D116"/>
<path d="M26.3772 21.097L25.0019 22.0963L24.5022 21.4086" fill="#F7D116"/>
<path d="M25.7564 22.9983L25.2309 21.3815L24.4226 21.6442" fill="#F7D116"/>
<path d="M25.7564 22.9988L24.381 21.9996L24.8807 21.3118" fill="#F7D116"/>
<path d="M23.7603 22.9974L25.1356 21.9983L24.6359 21.3106" fill="#F7D116"/>
<path d="M23.7603 22.997L24.2856 21.3802L25.0939 21.6429" fill="#F7D116"/>
<path d="M23.1428 21.097L24.5182 22.0963L25.0178 21.4086" fill="#F7D116"/>
<path d="M23.1428 21.097H24.8428V21.947" fill="#F7D116"/>
<path d="M24.7617 19.9218L24.2363 21.5386L25.0447 21.8012" fill="#F7D116"/>
<path d="M24.7617 19.9218L25.2871 21.5386L24.4786 21.8012" fill="#F7D116"/>
<path d="M10.2073 26.3503H8.50732V27.2003" fill="#F7D116"/>
<path d="M10.2073 26.3503L8.83192 27.3495L8.33228 26.6618" fill="#F7D116"/>
<path d="M9.58834 28.2509L9.06301 26.6341L8.25464 26.8968" fill="#F7D116"/>
<path d="M9.5885 28.2507L8.21313 27.2514L8.71275 26.5638" fill="#F7D116"/>
<path d="M7.59229 28.2507L8.96759 27.2515L8.468 26.5638" fill="#F7D116"/>
<path d="M7.59229 28.2509L8.11762 26.6341L8.926 26.8968" fill="#F7D116"/>
<path d="M6.97485 26.3503L8.35016 27.3495L8.84983 26.6618" fill="#F7D116"/>
<path d="M6.97485 26.3503H8.67483V27.2003" fill="#F7D116"/>
<path d="M8.59391 25.1752L8.0686 26.7919L8.877 27.0545" fill="#F7D116"/>
<path d="M8.59383 25.1752L9.11917 26.7919L8.31079 27.0545" fill="#F7D116"/>
<path d="M22.6721 32.5022L22.1467 30.8854L21.3384 31.148" fill="#F7D116"/>
<path d="M22.6723 32.502L21.2969 31.5027L21.7966 30.8151" fill="#F7D116"/>
<path d="M20.6742 32.5013L22.0494 31.5022L21.5499 30.8144" fill="#F7D116"/>
<path d="M20.6742 32.5016L21.1994 30.8848L22.0079 31.1475" fill="#F7D116"/>
<path d="M20.0547 30.6009L21.43 31.6001L21.9296 30.9124" fill="#F7D116"/>
<path d="M20.0547 30.6009H21.7547V31.4509" fill="#F7D116"/>
<path d="M21.6735 29.4264L21.1482 31.0432L21.9566 31.3058" fill="#F7D116"/>
<path d="M21.6735 29.4264L22.199 31.0432L21.3906 31.3058" fill="#F7D116"/>
<path d="M23.2911 30.6016H21.5911V31.4516" fill="#F7D116"/>
<path d="M23.2911 30.6016L21.9157 31.6008L21.4161 30.9131" fill="#F7D116"/>
<path d="M12.6818 18.749L12.1566 17.1322L11.3481 17.3948" fill="#F7D116"/>
<path d="M12.6819 18.7494L11.3066 17.7502L11.8062 17.0625" fill="#F7D116"/>
<path d="M10.682 18.7481L12.0573 17.7489L11.5577 17.0612" fill="#F7D116"/>
<path d="M10.682 18.7483L11.2073 17.1315L12.0158 17.3943" fill="#F7D116"/>
<path d="M10.0645 16.8438L11.4398 17.8429L11.9394 17.1553" fill="#F7D116"/>
<path d="M10.0645 16.8438H11.7645V17.6937" fill="#F7D116"/>
<path d="M11.6833 15.6738L11.158 17.2907L11.9664 17.5533" fill="#F7D116"/>
<path d="M11.6834 15.6738L12.2087 17.2907L11.4003 17.5533" fill="#F7D116"/>
<path d="M13.3027 16.8483H11.6027V17.6983" fill="#F7D116"/>
<path d="M13.3027 16.8483L11.9273 17.8476L11.4277 17.1599" fill="#F7D116"/>
<path d="M10.6855 32.5027L12.0609 31.5034L11.5613 30.8158" fill="#F7D116"/>
<path d="M10.6855 32.5022L11.2109 30.8854L12.0193 31.1481" fill="#F7D116"/>
<path d="M10.0664 30.597L11.4417 31.5962L11.9414 30.9086" fill="#F7D116"/>
<path d="M10.0664 30.597H11.7664V31.447" fill="#F7D116"/>
<path d="M11.6852 29.4271L11.1599 31.0439L11.9683 31.3065" fill="#F7D116"/>
<path d="M11.6853 29.4271L12.2108 31.0439L11.4023 31.3065" fill="#F7D116"/>
<path d="M13.3027 30.6016H11.6027V31.4516" fill="#F7D116"/>
<path d="M13.3027 30.6016L11.9273 31.6008L11.4277 30.9131" fill="#F7D116"/>
<path d="M12.6857 32.5028L12.1604 30.8861L11.3521 31.1487" fill="#F7D116"/>
<path d="M12.6858 32.5027L11.3105 31.5033L11.8101 30.8158" fill="#F7D116"/>
<path d="M20.6799 18.7442L22.0553 17.745L21.5557 17.0573" fill="#F7D116"/>
<path d="M20.6799 18.7444L21.2053 17.1276L22.0137 17.3903" fill="#F7D116"/>
<path d="M20.0605 16.8438L21.4359 17.8429L21.9355 17.1553" fill="#F7D116"/>
<path d="M20.0605 16.8438H21.7605V17.6937" fill="#F7D116"/>
<path d="M21.6774 15.6699L21.1521 17.2868L21.9605 17.5494" fill="#F7D116"/>
<path d="M21.6775 15.6699L22.2029 17.2868L21.3945 17.5494" fill="#F7D116"/>
<path d="M23.2929 16.8483H21.5929V17.6983" fill="#F7D116"/>
<path d="M23.293 16.8483L21.9176 17.8476L21.418 17.1599" fill="#F7D116"/>
<path d="M22.6779 18.7451L22.1527 17.1283L21.3442 17.3909" fill="#F7D116"/>
<path d="M22.678 18.7455L21.3027 17.7463L21.8023 17.0586" fill="#F7D116"/>
<path d="M6.97437 21.1003L8.34967 22.0995L8.84933 21.4118" fill="#F7D116"/>
<path d="M6.97437 21.1003H8.67433V21.9503" fill="#F7D116"/>
<path d="M8.59542 19.9258L8.07007 21.5426L8.8785 21.8053" fill="#F7D116"/>
<path d="M8.59534 19.9258L9.12067 21.5426L8.31226 21.8053" fill="#F7D116"/>
<path d="M10.2068 21.1009H8.50684V21.9509" fill="#F7D116"/>
<path d="M10.207 21.1009L8.83167 22.1001L8.33203 21.4124" fill="#F7D116"/>
<path d="M9.58792 23.0009L9.06258 21.3841L8.25415 21.6468" fill="#F7D116"/>
<path d="M9.58801 23.0007L8.21265 22.0014L8.71225 21.3138" fill="#F7D116"/>
<path d="M7.59399 23.0007L8.96933 22.0015L8.46966 21.3138" fill="#F7D116"/>
<path d="M7.59399 23.0009L8.11932 21.3841L8.92774 21.6468" fill="#F7D116"/>
<path d="M23.1405 26.3542L24.5158 27.3533L25.0155 26.6657" fill="#F7D116"/>
<path d="M23.1405 26.3542H24.8405V27.2042" fill="#F7D116"/>
<path d="M24.7594 25.1797L24.2341 26.7965L25.0425 27.0591" fill="#F7D116"/>
<path d="M24.7594 25.1797L25.2849 26.7965L24.4764 27.0591" fill="#F7D116"/>
<path d="M26.375 26.3542H24.675V27.2042" fill="#F7D116"/>
<path d="M26.3748 26.3542L24.9994 27.3533L24.4998 26.6657" fill="#F7D116"/>
<path d="M25.7561 28.2555L25.2308 26.6387L24.4224 26.9012" fill="#F7D116"/>
<path d="M25.7559 28.2553L24.3806 27.256L24.8803 26.5683" fill="#F7D116"/>
<path d="M23.7599 28.2546L25.1353 27.2554L24.6356 26.5677" fill="#F7D116"/>
<path d="M23.7599 28.2548L24.2853 26.638L25.0937 26.9007" fill="#F7D116"/>
</g>
</g>
</g>
<defs>
<clipPath id="clip0_16699_265379">
<rect width="40" height="40" fill="white"/>
</clipPath>
</defs>
</svg>
