<svg width="40" height="40" viewBox="0 0 40 40" fill="none" xmlns="http://www.w3.org/2000/svg">
<g clip-path="url(#clip0_16699_265492)">
<mask id="mask0_16699_265492" style="mask-type:luminance" maskUnits="userSpaceOnUse" x="0" y="0" width="40" height="40">
<path d="M40 20C40 8.95431 31.0457 0 20 0C8.95431 0 0 8.95431 0 20C0 31.0457 8.95431 40 20 40C31.0457 40 40 31.0457 40 20Z" fill="white"/>
</mask>
<g mask="url(#mask0_16699_265492)">
<mask id="mask1_16699_265492" style="mask-type:luminance" maskUnits="userSpaceOnUse" x="0" y="0" width="54" height="40">
<path d="M0 0H53.3333V40H0V0Z" fill="white"/>
</mask>
<g mask="url(#mask1_16699_265492)">
<mask id="mask2_16699_265492" style="mask-type:luminance" maskUnits="userSpaceOnUse" x="0" y="0" width="54" height="41">
<path d="M0 0H53.4758V40.1067H0V0Z" fill="white"/>
</mask>
<g mask="url(#mask2_16699_265492)">
<path d="M0 0H60.16V40.1067H0V0Z" fill="#002B7F"/>
<path d="M0 25.0667H60.16V30.08H0V25.0667Z" fill="#F9E814"/>
<path d="M6.68494 3.34253L7.43694 5.64878H9.86026L7.9016 7.08619L8.65359 9.39242L6.68494 7.9652L4.71952 9.39233L5.47161 7.07945L3.50952 5.64878H5.93285L6.68494 3.34253ZM13.3714 8.91433L14.3743 11.9898H17.6058L14.9938 13.9063L15.9967 16.9818L13.3714 15.0786L10.7506 16.9818L11.7535 13.8974L9.13709 11.9898H12.3686L13.3714 8.91433Z" fill="white"/>
</g>
</g>
</g>
</g>
<defs>
<clipPath id="clip0_16699_265492">
<rect width="40" height="40" fill="white"/>
</clipPath>
</defs>
</svg>
