<svg width="40" height="40" viewBox="0 0 40 40" fill="none" xmlns="http://www.w3.org/2000/svg">
<g clip-path="url(#clip0_16699_265508)">
<mask id="mask0_16699_265508" style="mask-type:luminance" maskUnits="userSpaceOnUse" x="0" y="0" width="40" height="40">
<path d="M40 0H0V40H40V0Z" fill="white"/>
</mask>
<g mask="url(#mask0_16699_265508)">
<mask id="mask1_16699_265508" style="mask-type:luminance" maskUnits="userSpaceOnUse" x="0" y="0" width="40" height="40">
<path d="M40 20C40 8.95433 31.0457 0 20 0C8.95433 0 0 8.95433 0 20C0 31.0457 8.95433 40 20 40C31.0457 40 40 31.0457 40 20Z" fill="white"/>
</mask>
<g mask="url(#mask1_16699_265508)">
<path d="M40 20C40 8.95433 31.0457 0 20 0C8.95433 0 0 8.95433 0 20C0 31.0457 8.95433 40 20 40C31.0457 40 40 31.0457 40 20Z" fill="#1C8A42"/>
<path d="M45.5397 7H-5.53906V41H45.5397V7Z" fill="#0021AD"/>
<path d="M0 7H40V33.6256L0 7Z" fill="#1C8A42"/>
<path d="M20.0457 25.1719C22.702 25.1719 24.8554 23.0187 24.8554 20.3623C24.8554 17.706 22.702 15.5527 20.0457 15.5527C17.3894 15.5527 15.2361 17.706 15.2361 20.3623C15.2361 23.0187 17.3894 25.1719 20.0457 25.1719Z" fill="#FFC639"/>
<path d="M17.1094 18.2023C17.4384 18.6538 17.937 19.4105 18.338 19.2129C18.6509 19.214 18.8125 19.236 18.8549 19.4443C19.5929 19.5699 20.8333 19.2585 21.6051 18.2533C21.6051 18.2533 21.6701 18.2618 21.6475 17.8798C21.6518 17.7133 21.8751 17.7467 21.8805 17.8008C21.9116 17.8834 21.9062 17.9453 21.9481 17.9473C22.0431 17.9157 22.173 17.7025 22.2819 17.5673C22.3115 17.5078 22.2954 17.4449 22.3023 17.3698C22.3598 17.2287 22.5031 17.2593 22.5331 17.3333C22.5605 17.381 22.561 17.4175 22.5879 17.4653C22.7333 17.5625 22.9958 17.4718 23.0162 17.4718C23.042 17.3532 23.1182 17.3644 23.1182 17.3644C23.2153 17.3429 23.1772 17.3515 23.2411 17.3848C23.1847 18.0242 23.3667 18.0525 23.3517 18.3804C23.3581 18.7465 23.2411 18.8507 23.2411 18.9903C23.2781 19.1608 23.8181 19.1668 23.6281 19.3112C23.4612 19.4003 23.6286 19.5673 23.3774 19.6322C22.6464 20.003 22.5063 20.3213 22.5063 20.3213C22.5063 20.3213 22.3227 20.668 22.3023 20.668C22.1799 20.8993 22.0248 20.7733 21.9384 20.8859C21.8955 21.0277 21.8472 21.3417 21.933 21.5048C21.976 21.7293 21.9277 21.8515 21.874 22.0759C21.8257 22.5439 21.64 22.6148 21.6185 22.779C21.5326 22.9545 21.6368 23.779 21.5552 23.779C21.011 23.7898 20.5939 23.6748 20.3787 23.6319C20.5885 22.7275 20.5069 21.9332 20.5069 21.8515C20.4533 21.2048 19.5381 21.362 19.398 21.2763C19.2821 21.2515 19.2091 21.157 19.1683 21.1163C19.039 21.1023 18.9906 21.0728 18.8613 21.0593C18.7969 21.0915 18.8355 21.1248 18.6917 21.1694C18.3267 21.2134 18.1657 20.8512 18.1657 20.8512C18.1834 20.7293 17.345 20.8758 16.8893 20.77C16.7025 20.8743 16.6209 21.1823 16.468 21.2188C16.4637 21.3143 16.2162 21.1404 16.1663 21.0464C16.1561 20.7733 16.4046 20.6525 16.4046 20.6525C16.6021 20.5135 16.7192 20.4909 16.8142 20.3948C16.8619 20.1572 16.8378 19.981 16.9392 19.8023C17.0251 19.6659 17.1518 19.7298 17.2376 19.6687C17.33 19.6074 17.3691 19.207 17.2838 19.0977C17.2838 19.0977 16.9145 18.7643 16.8941 18.7438C16.7739 18.3993 17.0348 18.177 17.1094 18.2023Z" fill="#1C8A42"/>
<path d="M36.0783 11.1762C35.9173 10.5392 34.4763 9.167 33.3934 8.29387C33.1349 8.11772 32.9664 8.22266 33.0001 8.47375C33.1349 8.69866 33.236 8.94583 33.3708 9.17075C33.4085 9.32066 33.4795 9.42558 33.5171 9.57541C33.5171 9.57541 33.5283 9.834 33.5509 9.8565C33.8879 10.2275 33.9331 10.5422 33.9331 10.5422C34.1278 10.917 34.3003 11.1905 34.6413 11.4978C35.0236 11.7377 34.7424 12.4832 34.7535 12.8805C34.7535 13.1315 34.5739 13.1018 34.4165 13.0717C33.1763 11.9324 31.9469 11.9288 30.864 11.5989C30.4405 11.5542 30.4329 11.7564 30.5718 11.8687C31.3288 12.6783 32.0405 13.2292 32.9775 13.6898C33.1349 13.7874 33.2923 13.8849 33.4498 13.9825C33.6294 14.1324 33.8094 14.2822 33.989 14.4322C34.405 14.7018 34.4391 14.9492 34.4391 14.9714C34.4502 15.4774 34.1803 15.8708 34.1016 16.0282C33.9598 16.5647 33.6746 16.6579 33.6746 16.6579C31.3584 18.2207 30.1443 18.6252 26.3894 18.1417C26.3331 18.1119 25.9735 18.1718 26.3894 18.3217C27.3451 18.6402 29.6925 19.1509 31.9638 18.0755C32.5089 17.6932 32.8738 17.8185 33.2686 17.5897C33.9174 17.1897 34.8438 16.6917 35.0123 16.6357C35.5183 16.3657 36.9346 16.0623 37.2609 15.7922C37.6353 15.7622 38.0239 15.7129 38.05 15.3909C38.173 15.3112 38.353 15.3695 38.4866 15.107C38.7836 15.0555 38.7336 14.9492 38.7336 14.9492C38.6588 14.7394 38.3811 14.653 38.1829 14.4995C37.8903 14.402 37.688 14.3719 37.4743 14.4769C37.4068 14.5072 37.3394 14.5368 37.272 14.5669C37.272 14.5669 36.9573 14.5217 36.9573 14.4995C36.2578 14.4612 36.3258 12.143 36.0783 11.1762Z" fill="#FFC639"/>
<path d="M37.7171 14.9709C37.7074 14.9979 37.6806 15.0184 37.6428 15.0278C37.605 15.0372 37.5591 15.0347 37.5154 15.021C37.4716 15.0072 37.4334 14.9833 37.4093 14.9544C37.3852 14.9256 37.3771 14.8942 37.3868 14.8672C37.3965 14.8401 37.4233 14.8197 37.4611 14.8103C37.4989 14.8009 37.5448 14.8034 37.5885 14.8171C37.6323 14.8309 37.6705 14.8548 37.6946 14.8836C37.7187 14.9125 37.7268 14.9439 37.7171 14.9709Z" fill="#1C8A42"/>
<path d="M8.15237 20.4453L7.62873 19.9551L7.09882 20.4384L7.15561 19.7237L6.44727 19.6106L7.04169 19.2092L6.6883 18.5852L7.37278 18.7995L7.64044 18.1341L7.89957 18.8029L8.58675 18.5973L8.22537 19.2168L8.81458 19.6258L8.10483 19.7297L8.15237 20.4453Z" fill="white"/>
<path d="M10.0081 26.3836L9.44346 26.0071L8.89355 26.404L9.08705 25.7647L8.5293 25.378L9.21371 25.3597L9.41855 24.7233L9.6483 25.3516L10.3328 25.3452L9.7903 25.7519L10.0081 26.3836Z" fill="white"/>
<path d="M8.25589 31.4948L7.73225 31.0046L7.20234 31.488L7.25913 30.7732L6.55078 30.6602L7.14521 30.2588L6.79181 29.6347L7.4763 29.849L7.74396 29.1836L8.00308 29.8524L8.69025 29.6468L8.32888 30.2663L8.91808 30.6753L8.20835 30.7793L8.25589 31.4948Z" fill="white"/>
<path d="M3.54886 25.5058L3.02522 25.0157L2.4953 25.4991L2.5521 24.7842L1.84375 24.6712L2.43818 24.2698L2.08478 23.6457L2.76927 23.8601L3.03693 23.1947L3.29605 23.8635L3.98325 23.6578L3.62185 24.2773L4.21107 24.6863L3.50132 24.7903L3.54886 25.5058Z" fill="white"/>
<path d="M12.6035 23.9375L12.0799 23.4473L11.55 23.9306L11.6069 23.2159L10.8984 23.1028L11.4929 22.7014L11.1395 22.0774L11.824 22.2917L12.0917 21.6263L12.3508 22.2951L13.0379 22.0895L12.6765 22.709L13.2659 23.118L12.556 23.2219L12.6035 23.9375Z" fill="white"/>
</g>
</g>
</g>
<defs>
<clipPath id="clip0_16699_265508">
<rect width="40" height="40" fill="white"/>
</clipPath>
</defs>
</svg>
