<svg width="40" height="40" viewBox="0 0 40 40" fill="none" xmlns="http://www.w3.org/2000/svg">
<g clip-path="url(#clip0_16699_265529)">
<mask id="mask0_16699_265529" style="mask-type:luminance" maskUnits="userSpaceOnUse" x="0" y="0" width="40" height="40">
<path d="M40 0H0V40H40V0Z" fill="white"/>
</mask>
<g mask="url(#mask0_16699_265529)">
<mask id="mask1_16699_265529" style="mask-type:luminance" maskUnits="userSpaceOnUse" x="0" y="0" width="40" height="40">
<path d="M40 20C40 8.95433 31.0457 0 20 0C8.95433 0 0 8.95433 0 20C0 31.0457 8.95433 40 20 40C31.0457 40 40 31.0457 40 20Z" fill="white"/>
</mask>
<g mask="url(#mask1_16699_265529)">
<path d="M40 20C40 8.95433 31.0457 0 20 0C8.95433 0 0 8.95433 0 20C0 31.0457 8.95433 40 20 40C31.0457 40 40 31.0457 40 20Z" fill="white"/>
<path d="M42 5H-2V34.3333H42V5Z" fill="white"/>
<path d="M20.6393 29.7736C20.6329 29.7709 20.6271 29.7668 20.6224 29.7617L20.6163 29.7559C20.5891 29.7306 20.5633 29.7037 20.5389 29.6756C20.4738 29.6017 20.3864 29.4934 20.3096 29.3977C20.1573 29.2079 20.0315 29.0442 20.0077 29.0135L19.969 28.9631L19.5893 28.846L19.312 28.7167L19.4602 28.5502L19.969 28.768L20.3487 28.846L21.0509 29.3624C21.0495 29.3636 20.9483 29.4478 20.8482 29.5389C20.8035 29.5795 20.7473 29.6317 20.7075 29.6749C20.6911 29.6925 20.6759 29.7111 20.6621 29.7307C20.6537 29.7446 20.6461 29.7587 20.6393 29.7736ZM18.0316 28.9905C17.689 28.9874 17.3534 28.8934 17.059 28.7182C17.0948 28.6586 17.1424 28.6066 17.1993 28.5664C17.2942 28.4967 17.4654 28.4135 17.742 28.4124H17.7477C18.0753 28.4124 18.4761 28.5237 18.9393 28.7434C18.6647 28.9066 18.3509 28.992 18.0316 28.9905ZM16.5957 28.6722C16.5372 28.6734 16.4809 28.6497 16.4408 28.6071C16.4061 28.5667 16.3822 28.5182 16.3713 28.4662C16.3557 28.3987 16.3499 28.3292 16.3542 28.2601C16.3783 28.2497 16.4042 28.2437 16.4305 28.2427H16.436C16.5588 28.2427 16.6555 28.3493 16.697 28.4549C16.7196 28.5016 16.7244 28.5547 16.7104 28.6047C16.6895 28.6484 16.6439 28.6754 16.5957 28.6722ZM19.1222 28.3794C18.2736 28.2582 17.9139 27.9514 17.7616 27.7153C17.6651 27.5721 17.6197 27.4006 17.6327 27.2284C17.6755 27.2186 17.7197 27.2131 17.7634 27.2134C17.9892 27.2134 18.5664 27.3273 19.1222 28.3794ZM17.3827 28.2112C17.0202 28.2112 16.7443 28.1486 16.5624 28.0254C16.485 27.9759 16.4228 27.9061 16.3822 27.8238C16.3674 27.7925 16.3576 27.7591 16.3531 27.7249C16.4739 27.6759 16.6025 27.6486 16.7328 27.6442C16.7515 27.6433 16.7704 27.6427 16.7902 27.6427C17.0704 27.6427 17.4965 27.7341 17.9462 28.1697C17.7594 28.1955 17.5714 28.2095 17.3827 28.2112ZM15.6272 28.1437C15.2449 28.1437 14.7197 28.027 14.3922 27.6995C14.6412 27.6407 14.896 27.6065 15.1517 27.5982C15.1756 27.5977 15.1996 27.5974 15.2238 27.5974C15.5823 27.5974 15.8566 27.6669 16.0394 27.8039C16.0904 27.8346 16.1284 27.8831 16.1459 27.94C16.1499 27.982 16.1299 28.0226 16.0942 28.0451C16.0119 28.1072 15.8648 28.1404 15.6569 28.1437L15.6276 28.1447L15.6272 28.1437ZM14.3884 27.5082C14.3415 27.5082 14.297 27.4872 14.2672 27.4511C14.2396 27.4149 14.221 27.3727 14.213 27.3278C14.2006 27.2688 14.1958 27.2084 14.1988 27.1482C14.2175 27.1396 14.2378 27.1341 14.2583 27.1339C14.3063 27.1356 14.3516 27.1559 14.3849 27.1905C14.4219 27.2268 14.4501 27.271 14.4674 27.3197C14.4847 27.3605 14.4878 27.4059 14.4762 27.4486C14.4619 27.4847 14.4272 27.5086 14.3884 27.5082ZM17.2499 27.4436C17.1913 27.4447 17.135 27.4211 17.0949 27.3785C17.0602 27.3382 17.0363 27.2897 17.0254 27.2377C17.0097 27.1702 17.0039 27.1007 17.0082 27.0316C17.0324 27.0211 17.0583 27.0152 17.0846 27.0142H17.09C17.2128 27.0142 17.3096 27.1207 17.351 27.2262C17.3736 27.273 17.3784 27.3263 17.3644 27.3763C17.3436 27.4199 17.2982 27.4467 17.2499 27.4436ZM15.856 27.386C15.0867 27.3589 14.6876 27.1402 14.4879 26.9615C14.4026 26.8867 14.3322 26.7963 14.2806 26.6952C14.2614 26.6572 14.2466 26.6172 14.2363 26.576L14.2373 26.5755C14.2989 26.5569 14.3629 26.5473 14.4272 26.5472H14.4452C14.7047 26.5472 15.2332 26.6564 15.856 27.386ZM16.6916 27.3082C16.0726 27.214 15.7219 26.9482 15.5367 26.7417C15.4224 26.6191 15.3355 26.4735 15.2818 26.3147C15.3444 26.3002 15.4083 26.2926 15.4725 26.2917C15.4808 26.2917 15.4894 26.2914 15.4981 26.2914C15.5069 26.2914 15.516 26.2914 15.5252 26.2917C15.8365 26.2985 16.4021 26.4397 16.6916 27.3082ZM13.5138 27.011C13.3168 27.0116 13.1204 26.9881 12.9291 26.941C12.605 26.8599 12.4659 26.7362 12.4064 26.6466C12.3807 26.6095 12.3636 26.5672 12.356 26.5227C12.3533 26.5054 12.3528 26.4877 12.3545 26.4702L12.356 26.4697C12.5234 26.4282 12.6951 26.4064 12.8676 26.4047C12.8792 26.4047 12.891 26.4045 12.903 26.4045C13.0436 26.4042 13.1838 26.4179 13.3217 26.4451C13.6344 26.5105 13.9131 26.6865 14.1065 26.9407C13.9126 26.9882 13.7134 27.0122 13.5138 27.011ZM14.9506 26.4887C14.8923 26.4904 14.836 26.4672 14.7955 26.4252C14.7608 26.3845 14.7369 26.3356 14.7261 26.2831C14.7104 26.2161 14.7047 26.1472 14.709 26.0785C14.7331 26.0681 14.759 26.0622 14.7853 26.0612H14.7908C14.9133 26.0612 15.0102 26.1677 15.0518 26.2732C15.074 26.3196 15.0782 26.3724 15.0637 26.4216C15.0438 26.4655 14.9986 26.4921 14.9506 26.4887ZM13.8702 26.3407C13.6644 26.2825 13.4677 26.1965 13.2851 26.0853C13.0141 25.9184 12.6825 25.6233 12.6421 25.1647C12.6627 25.1603 12.6842 25.1577 12.7052 25.1572C12.7101 25.1572 12.7159 25.1569 12.7216 25.1569C12.8025 25.1569 12.9683 25.1797 13.1688 25.3321C13.424 25.5267 13.6595 25.8651 13.8702 26.3407ZM14.5756 26.3148C14.4078 26.2385 14.2518 26.1384 14.1127 26.0174C13.7531 25.7079 13.4729 25.3167 13.2955 24.8767C13.3398 24.856 13.3877 24.8441 13.4366 24.8417C13.4415 24.8412 13.4464 24.8412 13.4515 24.8412C13.4589 24.8412 13.4664 24.8412 13.4742 24.8417C13.592 24.845 13.7716 24.894 13.9706 25.1087C14.1992 25.3555 14.4033 25.7609 14.5768 26.3139L14.5773 26.3155L14.5756 26.3148ZM12.7477 26.2615C12.512 26.2615 12.4313 26.1337 12.4076 26.0787C12.3839 26.0214 12.3746 25.9591 12.3805 25.8974C12.4189 25.8878 12.4583 25.8817 12.4978 25.8811H12.5059C12.66 25.8772 12.8067 25.947 12.9011 26.0689C12.9136 26.0874 12.9518 26.1517 12.9202 26.2019C12.8947 26.2415 12.8372 26.2615 12.7477 26.2615ZM12.2256 25.6029C12.043 25.6034 11.8607 25.5877 11.6809 25.5564C11.471 25.5182 11.352 25.3397 11.2891 25.1967C11.2469 25.099 11.2173 24.9962 11.2011 24.891C11.8505 24.9101 12.1577 25.0997 12.3006 25.2556C12.3892 25.3477 12.4444 25.4669 12.4574 25.594C12.4565 25.594 12.3649 25.6029 12.2256 25.6029ZM12.9017 24.9273C12.9008 24.9262 12.8266 24.8344 12.7534 24.7206C12.6765 24.6011 12.6054 24.4761 12.6054 24.3742C12.6054 24.2757 12.5822 24.0679 12.5684 23.9529C12.5509 23.8069 12.5332 23.682 12.5317 23.6714C12.5482 23.6774 12.9385 23.8237 12.9385 24.1892C12.9385 24.5547 12.902 24.9236 12.9017 24.9273ZM12.3967 24.8926C12.3926 24.8926 12.3885 24.8922 12.3844 24.8916C12.2693 24.8722 12.0667 24.7843 11.8431 24.656C11.5946 24.5135 11.3929 24.3609 11.275 24.2262C11.1674 24.1034 11.1039 23.9105 11.0853 23.653C11.0771 23.5362 11.0786 23.4192 11.0896 23.3027C11.1103 23.2961 11.1321 23.2927 11.1539 23.293C11.2401 23.2944 11.3322 23.3332 11.4564 23.4187C11.5697 23.4994 11.6758 23.5896 11.7737 23.6884C11.898 23.8117 12.0155 23.9419 12.1257 24.0781L12.1273 24.08C12.1402 24.1032 12.2513 24.3035 12.3378 24.4984C12.3811 24.5881 12.4143 24.6824 12.4368 24.7793C12.4453 24.8078 12.4453 24.838 12.4368 24.8664C12.4332 24.8756 12.4265 24.8832 12.418 24.8882C12.4112 24.8912 12.404 24.8927 12.3967 24.8926Z" fill="#4E5B31"/>
<path d="M19.3607 29.7736C19.3671 29.7709 19.3728 29.7668 19.3776 29.7617L19.3837 29.7559C19.4108 29.7306 19.4367 29.7037 19.4611 29.6756C19.5262 29.6017 19.6136 29.4934 19.6903 29.3977C19.8427 29.2079 19.9684 29.0442 19.9922 29.0135L20.0309 28.9631L20.4107 28.846L20.6879 28.7167L20.5398 28.5502L20.0309 28.768L19.6513 28.846L18.9491 29.3624C18.9504 29.3636 19.0517 29.4478 19.1518 29.5389C19.1964 29.5795 19.2527 29.6317 19.2924 29.6749C19.3088 29.6925 19.3241 29.7111 19.3378 29.7307C19.3463 29.7446 19.3538 29.7587 19.3607 29.7736ZM21.9683 28.9905C22.3109 28.9874 22.6466 28.8934 22.9409 28.7182C22.9052 28.6586 22.8576 28.6066 22.8007 28.5664C22.7058 28.4967 22.5346 28.4135 22.2579 28.4124H22.2523C21.9247 28.4124 21.5238 28.5237 21.0607 28.7434C21.3353 28.9066 21.6491 28.992 21.9683 28.9905ZM23.4043 28.6722C23.4628 28.6734 23.5191 28.6497 23.5592 28.6071C23.5938 28.5667 23.6178 28.5182 23.6287 28.4662C23.6443 28.3987 23.6501 28.3292 23.6458 28.2601C23.6217 28.2497 23.5958 28.2437 23.5694 28.2427H23.5639C23.4412 28.2427 23.3444 28.3493 23.3029 28.4549C23.2803 28.5016 23.2756 28.5547 23.2896 28.6047C23.3104 28.6484 23.3561 28.6754 23.4043 28.6722ZM20.8777 28.3794C21.7263 28.2582 22.0861 27.9514 22.2383 27.7153C22.3348 27.5721 22.3802 27.4006 22.3672 27.2284C22.3244 27.2186 22.2803 27.2131 22.2366 27.2134C22.0108 27.2134 21.4336 27.3273 20.8777 28.3794ZM22.6172 28.2112C22.9797 28.2112 23.2557 28.1486 23.4376 28.0254C23.5149 27.9759 23.5772 27.9061 23.6178 27.8238C23.6326 27.7925 23.6423 27.7591 23.6468 27.7249C23.5261 27.6759 23.3974 27.6486 23.2672 27.6442C23.2484 27.6433 23.2296 27.6427 23.2098 27.6427C22.9296 27.6427 22.5034 27.7341 22.0538 28.1697C22.2406 28.1955 22.4286 28.2095 22.6172 28.2112ZM24.3728 28.1437C24.7551 28.1437 25.2803 28.027 25.6078 27.6995C25.3588 27.6407 25.1039 27.6065 24.8483 27.5982C24.8243 27.5977 24.8003 27.5974 24.7762 27.5974C24.4177 27.5974 24.1433 27.6669 23.9606 27.8039C23.9096 27.8346 23.8716 27.8831 23.8541 27.94C23.8501 27.982 23.8701 28.0226 23.9058 28.0451C23.9881 28.1072 24.1352 28.1404 24.3431 28.1437L24.3723 28.1447L24.3728 28.1437ZM25.6116 27.5082C25.6584 27.5082 25.7029 27.4872 25.7328 27.4511C25.7603 27.4149 25.7789 27.3727 25.7869 27.3278C25.7993 27.2688 25.8042 27.2084 25.8012 27.1482C25.7824 27.1396 25.7622 27.1341 25.7417 27.1339C25.6937 27.1356 25.6483 27.1559 25.6151 27.1905C25.5781 27.2268 25.5498 27.271 25.5326 27.3197C25.5153 27.3605 25.5122 27.4059 25.5238 27.4486C25.5381 27.4847 25.5728 27.5086 25.6116 27.5082ZM22.7501 27.4436C22.8087 27.4447 22.8649 27.4211 22.9051 27.3785C22.9398 27.3382 22.9637 27.2897 22.9746 27.2377C22.9903 27.1702 22.9961 27.1007 22.9918 27.0316C22.9676 27.0211 22.9417 27.0152 22.9153 27.0142H22.9099C22.7872 27.0142 22.6903 27.1207 22.6489 27.2262C22.6263 27.273 22.6216 27.3263 22.6356 27.3763C22.6563 27.4199 22.7018 27.4467 22.7501 27.4436ZM24.1439 27.386C24.9133 27.3589 25.3123 27.1402 25.5121 26.9615C25.5973 26.8867 25.6678 26.7963 25.7193 26.6952C25.7386 26.6572 25.7533 26.6172 25.7637 26.576L25.7627 26.5755C25.7011 26.5569 25.6371 26.5473 25.5728 26.5472H25.5548C25.2953 26.5472 24.7668 26.6564 24.1439 27.386ZM23.3083 27.3082C23.9273 27.214 24.2781 26.9482 24.4633 26.7417C24.5776 26.6191 24.6644 26.4735 24.7182 26.3147C24.6556 26.3002 24.5917 26.2926 24.5274 26.2917C24.5192 26.2917 24.5106 26.2914 24.5018 26.2914C24.4931 26.2914 24.4839 26.2914 24.4748 26.2917C24.1634 26.2985 23.5978 26.4397 23.3083 27.3082ZM26.4862 27.011C26.6832 27.0116 26.8796 26.9881 27.0708 26.941C27.3949 26.8599 27.5341 26.7362 27.5936 26.6466C27.6193 26.6095 27.6363 26.5672 27.6439 26.5227C27.6467 26.5054 27.6472 26.4877 27.6454 26.4702L27.6439 26.4697C27.4766 26.4282 27.3048 26.4064 27.1323 26.4047C27.1208 26.4047 27.1089 26.4045 27.0969 26.4045C26.9563 26.4042 26.8162 26.4179 26.6783 26.4451C26.3656 26.5105 26.0868 26.6865 25.8934 26.9407C26.0873 26.9882 26.2866 27.0122 26.4862 27.011ZM25.0493 26.4887C25.1077 26.4904 25.1639 26.4672 25.2044 26.4252C25.2392 26.3845 25.2631 26.3356 25.2738 26.2831C25.2896 26.2161 25.2953 26.1472 25.2909 26.0785C25.2668 26.0681 25.2409 26.0622 25.2147 26.0612H25.2092C25.0867 26.0612 24.9898 26.1677 24.9482 26.2732C24.9259 26.3196 24.9218 26.3724 24.9363 26.4216C24.9562 26.4655 25.0013 26.4921 25.0493 26.4887ZM26.1298 26.3407C26.3356 26.2825 26.5323 26.1965 26.7148 26.0853C26.9858 25.9184 27.3174 25.6233 27.3578 25.1647C27.3373 25.1603 27.3158 25.1577 27.2948 25.1572C27.2898 25.1572 27.2841 25.1569 27.2783 25.1569C27.1974 25.1569 27.0317 25.1797 26.8312 25.3321C26.5759 25.5267 26.3404 25.8651 26.1298 26.3407ZM25.4243 26.3148C25.5922 26.2385 25.7482 26.1384 25.8873 26.0174C26.2468 25.7079 26.5271 25.3167 26.7044 24.8767C26.6602 24.856 26.6123 24.8441 26.5633 24.8417C26.5584 24.8412 26.5536 24.8412 26.5484 24.8412C26.5411 24.8412 26.5336 24.8412 26.5258 24.8417C26.4079 24.845 26.2283 24.894 26.0293 25.1087C25.8008 25.3555 25.5967 25.7609 25.4232 26.3139L25.4227 26.3155L25.4243 26.3148ZM27.2523 26.2615C27.4879 26.2615 27.5687 26.1337 27.5923 26.0787C27.6161 26.0214 27.6253 25.9591 27.6194 25.8974C27.5811 25.8878 27.5417 25.8817 27.5022 25.8811H27.4941C27.3399 25.8772 27.1933 25.947 27.0988 26.0689C27.0863 26.0874 27.0482 26.1517 27.0798 26.2019C27.1053 26.2415 27.1628 26.2615 27.2523 26.2615ZM27.7743 25.6029C27.9569 25.6034 28.1393 25.5877 28.3191 25.5564C28.5289 25.5182 28.6479 25.3397 28.7108 25.1967C28.7531 25.099 28.7827 24.9962 28.7988 24.891C28.1494 24.9101 27.8423 25.0997 27.6993 25.2556C27.6108 25.3477 27.5556 25.4669 27.5426 25.594C27.5434 25.594 27.6351 25.6029 27.7743 25.6029ZM27.0983 24.9273C27.0992 24.9262 27.1733 24.8344 27.2466 24.7206C27.3234 24.6011 27.3946 24.4761 27.3946 24.3742C27.3946 24.2757 27.4178 24.0679 27.4316 23.9529C27.4491 23.8069 27.4668 23.682 27.4683 23.6714C27.4518 23.6774 27.0614 23.8237 27.0614 24.1892C27.0614 24.5547 27.0979 24.9236 27.0983 24.9273ZM27.6033 24.8926C27.6073 24.8926 27.6114 24.8922 27.6156 24.8916C27.7307 24.8722 27.9333 24.7843 28.1568 24.656C28.4053 24.5135 28.6071 24.3609 28.7249 24.2262C28.8326 24.1034 28.8961 23.9105 28.9147 23.653C28.9228 23.5362 28.9213 23.4192 28.9103 23.3027C28.8897 23.2961 28.8678 23.2927 28.8461 23.293C28.7598 23.2944 28.6678 23.3332 28.5436 23.4187C28.4303 23.4994 28.3242 23.5896 28.2263 23.6884C28.1019 23.8117 27.9844 23.9419 27.8743 24.0781L27.8727 24.08C27.8598 24.1032 27.7487 24.3035 27.6622 24.4984C27.6188 24.5881 27.5857 24.6824 27.5632 24.7793C27.5547 24.8078 27.5547 24.838 27.5632 24.8664C27.5668 24.8756 27.5734 24.8832 27.5819 24.8882C27.5888 24.8912 27.5959 24.8927 27.6033 24.8926Z" fill="#4E5B31"/>
<path d="M33.5484 10.0829L33.4332 10.1288L33.3881 10.1468L33.2486 10.1391L33.1179 10.2018L32.8862 10.3602L32.876 10.3675L32.7896 10.39L32.7094 10.3554L32.6639 10.3762L32.6481 10.47L32.6047 10.5374L32.5514 10.5749L32.3664 10.5939L32.2104 10.6743L32.0075 10.62L31.9134 10.6569L31.7129 10.8374L31.6104 10.8859L31.5746 10.8838L31.4389 10.8768L31.3815 10.8956L31.2959 10.9784L31.1339 10.991L31.0834 11.0259L31.0042 11.1853L30.9184 11.2737L30.8696 11.2841L30.8164 11.2645L30.7765 11.2716L30.7584 11.3735L30.7196 11.4163L30.6111 11.4536L30.5245 11.5258L30.4484 11.5649L30.3465 11.5624H30.3231L30.2216 11.6184L30.0309 11.6351L29.9515 11.7109L29.934 11.7271L29.897 11.7495L29.8364 11.7856L29.8217 11.7946L29.7484 11.7816L29.6629 11.8155L29.6282 11.7622L29.569 11.7978L29.4907 11.8011L29.393 11.7577L29.3186 11.7245L29.2641 11.7324L29.2452 11.8272L29.2434 11.8373L29.1861 11.9134L29.0794 11.9781L29.0647 11.997L28.9432 12.1539L28.7124 12.3966L28.5171 12.4958L28.3149 12.5573L28.173 12.6737L27.8014 12.8579L27.215 13.1499L27.0951 13.1883L26.923 13.2158L26.6161 13.3288L26.3454 13.4105L26.3302 13.4151L26.2764 13.4313L25.8946 13.5469L25.7169 13.5281L25.6117 13.5663L25.3376 13.5359L25.147 13.5397L25.0264 13.5647L24.7997 13.6735L24.417 13.8574L24.2906 13.9731L24.0937 14.0757L23.8632 14.1487L23.8637 14.0519L23.8624 14.0478L23.7824 14.073L23.7246 14.0913L23.5376 14.1201H23.4336L23.369 14.1013L23.3594 14.1047L22.977 14.2303L22.5509 14.2715L22.3375 14.3399L22.1781 14.3374L22.0785 14.367L21.8829 14.3909L21.8131 14.3723L21.7974 14.368L21.2229 14.3929L20.9604 14.3632L20.8349 14.3917L20.6247 14.3211L20.3182 14.2855L20.2466 14.2641L20.0854 14.2162L20.0124 14.2582L19.9579 14.2641L19.8274 14.2168L19.7805 14.2156L19.6729 14.2547L19.611 14.2388L19.5534 14.193L19.4185 14.1729L19.3362 14.1037L18.8767 14.1647L18.752 14.128L18.3339 14.0062L18.2672 14.0095L18.1841 14.0717L18.0595 14.1171L17.9514 14.1452L17.8042 14.1501L17.633 14.1052L17.4567 14.0198L17.3916 14.0043L17.2462 14.0189L17.2017 14.0229L16.9345 13.8796L16.5902 13.6645L16.3566 13.552L16.2689 13.5378L16.2571 13.5795L16.3006 13.7164L16.3154 13.852L16.3109 13.9773L16.3084 14.0549L16.3302 14.1246L16.4146 14.218L16.4497 14.3119L16.4754 14.5702L16.4752 14.8324L16.4341 15.2504L16.4204 15.314L16.3714 15.5306L16.3267 15.7295L16.1534 16.2591L16.1059 16.3248L15.9889 16.4045L15.7239 16.5848L15.5289 16.6973L15.4671 16.7228L15.3089 16.7348L15.2101 16.7299L15.0872 16.6634L14.9666 16.6323L14.8086 16.5187L14.6326 16.4823L14.44 16.371L14.3899 16.3107L14.2849 16.3009L14.1394 16.2573L14.086 16.241L14.049 16.2303L13.8634 16.2254L13.6902 16.1455L13.5991 16.1235L13.4746 16.1172L13.3442 16.1778L13.2782 16.2085L13.1947 16.1754L13.1344 16.1791L13.0659 16.2825L13.0575 16.2983L13.0104 16.3233L12.9517 16.3224L12.9059 16.3212L12.8561 16.3429L12.7892 16.3719L12.7302 16.3977L12.7014 16.4101L12.6831 16.4132L12.6516 16.4187L12.6124 16.4262L12.5435 16.3859L12.5069 16.3643L12.4454 16.3518L12.4124 16.3757L12.4059 16.4881L12.3756 16.5555L12.2797 16.6402L12.1824 16.726L12.1144 16.8261L11.9346 17.2363L11.8222 17.4018L11.7872 17.4404L11.669 17.5704L11.5646 17.6514L11.324 17.8379L11.0962 17.923L10.9 17.9631L10.8046 17.9635L10.6237 17.9395L10.4614 17.8896L10.2829 17.778L10.0874 17.6208L9.80402 17.3409L9.76394 17.3168L9.7556 17.3112L9.66635 17.2542L9.60019 17.2559L9.57427 17.2986L9.5601 17.3604L9.5481 17.4151L9.51569 17.7264L9.51802 17.7445L9.5351 17.8726L9.75019 18.1733L9.8166 18.333L9.82752 18.3513L9.87194 18.4258L9.90569 18.4827L9.90902 18.4884L9.98244 18.7079L9.93069 18.8317L9.95685 18.9149L9.89152 18.9655L9.87952 19.0372L10.0727 19.2793L10.1149 19.3861L10.0677 19.5342L9.99269 19.6159L9.97169 19.6383L9.98227 19.7008L10.0711 19.7808L10.2221 19.9152L10.3026 20.115L10.3639 20.1688L10.4351 20.1536L10.4747 20.1838L10.5347 20.1828L10.5939 20.2418L10.632 20.2604L10.6924 20.2905L10.7402 20.3527L10.7509 20.5439L10.8399 20.7815L10.8412 20.9103L10.8417 20.9286L10.8971 21.0238L10.9145 21.099L10.8852 21.2979L10.9559 21.3618L11.0325 21.3461L11.0819 21.354L11.1614 21.4202L11.2577 21.5668L11.3519 21.553L11.4116 21.5818L11.7 21.8426L11.7655 21.8757L11.7691 21.8777L11.8162 21.9013L11.8749 21.9604L11.9656 21.9002L11.9757 21.8991L12.0744 21.8904L12.1176 21.9198L12.2009 21.9759L12.31 21.9745L12.5469 22.0471L12.6504 22.0737L12.8587 22.2031L12.9472 22.2579L12.9996 22.3005L13.0694 22.3572L13.2084 22.4171L13.3276 22.4456L13.3924 22.461L13.4412 22.4797L13.7002 22.5787L13.8401 22.6113L13.9696 22.659L14.0639 22.6932L14.1329 22.6944L14.2307 22.6121L14.3254 22.6066L14.4041 22.6262L14.4809 22.6133L14.6024 22.5385L14.626 22.5033L14.7122 22.4623L15.0029 22.4262L15.0877 22.4538L15.3057 22.359L15.4519 22.3996L15.5811 22.3537L15.8637 22.4165L15.9387 22.4694L16.0227 22.5654L16.033 22.5659L16.1264 22.5677L16.0874 22.6328L16.2107 22.7622L16.3221 22.9306L16.3296 22.9528L16.4106 23.1906L16.4709 23.2749L16.513 23.3924L16.515 23.4691L16.4495 23.5191L16.4389 23.5476L16.4351 23.5581L16.4484 23.5901L16.4731 23.5767L16.5202 23.5506L16.5775 23.5417L16.6785 23.5525L16.7452 23.5594L16.8505 23.5072L16.9202 23.4725L17.0324 23.5207L17.1555 23.5194L17.2074 23.5424L17.3539 23.6088L17.4287 23.6158L17.4564 23.5977L17.4739 23.5558L17.4649 23.5069L17.4086 23.4425L17.2849 23.2988L17.2342 23.225L17.1956 23.1181L17.1837 22.9814L17.1752 22.8893L17.1905 22.7682L17.2239 22.725L17.2482 22.6287L17.255 22.6036L17.3237 22.5123L17.5059 22.3953L17.7014 22.2202L17.8559 22.1183L18.0154 22.0493L18.0196 22.0297L18.0374 22.0368L18.4427 21.899L18.4494 21.8982L18.6299 21.8668L19.8482 21.9526L19.8934 21.939L19.9339 21.8248L19.9559 21.8036L19.9705 21.7899L20.1044 21.7309L20.167 21.722L20.3409 21.7649L20.4121 21.7824L20.5261 21.7185L20.6069 21.7199L20.774 21.6287L20.8772 21.6313L20.9164 21.6156L21.1174 21.4711L21.311 21.4156L21.3614 21.3888L21.3791 21.379L21.5776 21.2742L21.7037 21.1774L21.8125 21.1195L21.9317 21.0888L22.2436 21.0668L22.3064 20.9623L22.4405 20.9444L22.5215 20.853L22.6144 20.8153L22.6809 20.7196L22.7365 20.6394L22.8144 20.5943L23.0636 20.5787L23.3592 20.6153L23.3984 20.5916L23.465 20.3533L23.535 20.3085L23.7232 20.0342L23.7239 19.9342V19.8507L23.7549 19.7318L23.7339 19.5171L23.7587 19.2998L23.8759 19.0235L23.9789 18.9121L24.1451 18.7997L24.2296 18.7629L24.3494 18.7427L24.3669 18.7398L24.3975 18.7345L24.8097 18.7289C24.8155 18.7246 24.9597 18.7268 24.9597 18.7268L25.0972 18.725L25.445 18.7868L25.4699 18.7911L25.5871 18.8291L25.7227 18.9346L25.8664 19.0749L25.8934 19.101L25.9862 19.1401L26.0144 19.1524L26.0911 19.1401L26.2005 19.0832L26.283 19.0134L26.3954 18.952L26.3982 18.948L26.4615 18.8528L26.4634 18.8509L26.4887 18.8128L26.7061 18.728L26.9619 18.7134L26.9905 18.6978L27.0065 18.6893L27.0741 18.6099L27.1374 18.6094L27.2906 18.6649L27.3982 18.6435L27.4839 18.6777L27.5502 18.6698L27.6756 18.6552L27.8104 18.7499L27.8889 18.7596L28.1654 18.9215L28.1797 18.9238L28.1872 18.9252L28.203 18.9278L28.2359 18.918L28.2847 18.9039L28.2912 18.902L28.2974 18.9106L28.3289 18.9549L28.3719 18.9611L28.4229 18.8929L28.4026 18.8621L28.395 18.8508L28.2961 18.8307L28.2074 18.6792L28.2919 18.5882L28.1594 18.4256L28.1374 18.3986L28.1299 18.3872L28.0841 18.3176L27.852 17.9639L27.5499 17.7226L27.444 17.638L27.4062 17.6081L27.2449 17.444L27.1296 17.291L27.1145 17.258L27.0907 17.2061L27.0216 17.0556L26.9014 16.9627L26.8032 16.8556L26.7984 16.8493L26.5959 16.5742L26.5626 16.5281L26.5149 16.5005L26.4139 16.4998L26.404 16.4901L26.3984 16.4841L26.4019 16.4805L26.4502 16.4324L26.5044 16.4188L26.5275 16.3655L26.4245 16.0673L26.4239 16.0569L26.4161 15.9616L26.5001 15.5287L26.5109 15.4759L26.654 15.1846L26.7427 15.112L26.8395 14.9217L26.9226 14.8001L27.0021 14.7227L27.0159 14.7145L27.1594 14.6277L27.2799 14.6107L27.3947 14.5945L27.5951 14.6563L27.7859 14.6526L27.823 14.6487L27.9095 14.6389L28.0519 14.5941L28.119 14.5526L28.1539 14.4992L28.2266 14.2553L28.2499 14.1778L28.2949 14.0935L28.5542 13.7949L28.7504 13.6135L29.1912 13.2902L29.407 13.1612L29.5172 13.0953L30.5012 12.658L30.7569 12.3988L30.8901 12.264L31.1259 12.1059L31.4016 11.9929L31.6389 11.805L31.6907 11.7398L31.756 11.5296L31.8104 11.5164L31.8594 11.4102L31.8734 11.3799L32.0669 11.2435L32.0889 11.2326L32.8412 10.8556L32.9505 10.8706L33.0091 10.783L33.228 10.7463L33.2684 10.7394L33.3221 10.7125L33.368 10.6342V10.6188L33.3744 10.4099L33.421 10.3534L33.4465 10.2158L33.4705 10.184L33.4956 10.1509L33.5576 10.1074L33.5469 10.0814L33.5484 10.0829Z" fill="#D57800"/>
</g>
</g>
</g>
<defs>
<clipPath id="clip0_16699_265529">
<rect width="40" height="40" fill="white"/>
</clipPath>
</defs>
</svg>
