<svg width="40" height="40" viewBox="0 0 40 40" fill="none" xmlns="http://www.w3.org/2000/svg">
<g clip-path="url(#clip0_16699_265592)">
<mask id="mask0_16699_265592" style="mask-type:luminance" maskUnits="userSpaceOnUse" x="0" y="0" width="40" height="40">
<path d="M40 0H0V40H40V0Z" fill="white"/>
</mask>
<g mask="url(#mask0_16699_265592)">
<mask id="mask1_16699_265592" style="mask-type:luminance" maskUnits="userSpaceOnUse" x="0" y="0" width="40" height="40">
<path d="M40 20C40 8.95433 31.0457 0 20 0C8.95433 0 0 8.95433 0 20C0 31.0457 8.95433 40 20 40C31.0457 40 40 31.0457 40 20Z" fill="white"/>
</mask>
<g mask="url(#mask1_16699_265592)">
<path d="M-10 0H50.1451V40H-10V0Z" fill="#006B3F"/>
<path d="M-10 15H50.1451V20H-10V15ZM16.3135 0H20.0726V40H16.3135V0Z" fill="#FCD116"/>
<path d="M-10 20H50.167V25H-10V20ZM20.0835 0H23.844V40H20.0835V0Z" fill="white"/>
<path d="M18.4062 40.0118V-0.0131836H21.7397V40.0118H18.4062Z" fill="black"/>
<path d="M21.7402 40.0117V-0.0133514H25.0737V40.0117H21.7402Z" fill="white"/>
<path d="M-10 18.3333H50.1497V21.6666H-10V18.3333ZM18.8217 0H21.3279V40H18.8217V0Z" fill="black"/>
<path d="M15.0742 40.0118V-0.0131836H18.4076V40.0118H15.0742Z" fill="#FFD42A"/>
<path d="M20.0313 29.9741C25.5542 29.9741 30.0313 25.4969 30.0313 19.9741C30.0313 14.4513 25.5542 9.97408 20.0313 9.97408C14.5084 9.97408 10.0312 14.4513 10.0312 19.9741C10.0312 25.4969 14.5084 29.9741 20.0313 29.9741Z" fill="#D41C30"/>
<path d="M20.0172 11.1538L20.33 12.116H21.3411L20.5228 12.7105L20.8356 13.6721L20.0172 13.0777L19.1989 13.6721L19.5117 12.7105L18.6934 12.116H19.7045L20.0172 11.1538Z" fill="#006B3F" stroke="black" stroke-width="0.0333333"/>
<path d="M25.2449 12.8521L24.9323 13.8143L25.7503 14.4087L24.7389 14.4086L24.4267 15.3704L24.114 14.4086L23.1025 14.4084L23.9209 13.8142L23.6082 12.8523L24.4263 13.4467L25.2449 12.8521Z" fill="#006B3F" stroke="black" stroke-width="0.0333333"/>
<path d="M28.4735 17.2983L27.655 17.893L27.9674 18.8547L27.1492 18.26L26.3313 18.8547L26.6438 17.8928L25.8255 17.2982L26.8368 17.2984L27.1492 16.3364L27.4617 17.298L28.4735 17.2983Z" fill="#006B3F" stroke="black" stroke-width="0.0333333"/>
<path d="M28.4737 22.7943L27.4619 22.7946L27.1496 23.7562L26.8371 22.7942L25.8258 22.7944L26.6441 22.1998L26.3316 21.2379L27.1496 21.8326L27.9677 21.2379L27.6552 22.1996L28.4737 22.7943Z" fill="#006B3F" stroke="black" stroke-width="0.0333333"/>
<path d="M25.2433 27.2402L24.4247 26.6457L23.6067 27.2399L23.9193 26.2781L23.1011 25.6838L24.1126 25.6837L24.4252 24.7218L24.7373 25.6837H25.7488L24.9308 26.2779L25.2433 27.2402Z" fill="#006B3F" stroke="black" stroke-width="0.0333333"/>
<path d="M20.014 28.9381L19.7011 27.9758H18.6901L19.5084 27.3813L19.1956 26.4197L20.014 27.0142L20.8323 26.4197L20.5196 27.3813L21.3379 27.9758H20.3268L20.014 28.9381Z" fill="#006B3F" stroke="black" stroke-width="0.0333333"/>
<path d="M14.7864 27.2399L15.0989 26.2776L14.2809 25.6833L15.2924 25.6834L15.6046 24.7215L15.9172 25.6834L16.9287 25.6835L16.1104 26.2777L16.423 27.2396L15.605 26.6453L14.7864 27.2399Z" fill="#006B3F" stroke="black" stroke-width="0.0333333"/>
<path d="M11.5576 22.7937L12.376 22.1988L12.0636 21.2372L12.8819 21.8318L13.6999 21.2372L13.3874 22.1992L14.2055 22.7938L13.1944 22.7934L12.8819 23.7553L12.5695 22.7938L11.5576 22.7937Z" fill="#006B3F" stroke="black" stroke-width="0.0333333"/>
<path d="M11.5574 17.2977L12.5692 17.2975L12.8817 16.3359L13.1941 17.2979L14.2054 17.2977L13.3872 17.8922L13.6996 18.8542L12.8817 18.2595L12.0635 18.8542L12.3759 17.8925L11.5574 17.2977Z" fill="#006B3F" stroke="black" stroke-width="0.0333333"/>
<path d="M14.7877 12.8517L15.6065 13.4463L16.4245 12.852L16.1117 13.8139L16.9301 14.4082L15.9187 14.4082L15.606 15.3702L15.2937 14.4082L14.2824 14.4083L15.1004 13.814L14.7877 12.8517Z" fill="#006B3F" stroke="black" stroke-width="0.0333333"/>
<path d="M20.7897 22.732C20.9031 24.3542 21.263 25.6506 21.5936 25.6274C21.9242 25.6043 22.1002 24.2705 21.9867 22.6483C21.8732 21.0261 21.5133 19.7298 21.1827 19.7529C20.8522 19.776 20.6762 21.1098 20.7897 22.732Z" fill="#006B3F" stroke="black" stroke-width="0.0194445"/>
<path d="M21.3404 22.7268C21.4537 24.3491 21.8286 25.6443 22.1775 25.6199C22.5265 25.5956 22.7174 24.2607 22.6039 22.6384C22.4905 21.0162 22.1156 19.7211 21.7666 19.7454C21.4177 19.7698 21.2269 21.1047 21.3404 22.7268Z" fill="#006B3F" stroke="black" stroke-width="0.0194445"/>
<path d="M21.1951 22.8763C21.3204 24.67 21.6479 26.1082 21.9264 26.0887C22.2051 26.0692 22.3292 24.5993 22.2038 22.8057C22.0783 21.0122 21.7508 19.5739 21.4723 19.5934C21.1938 19.6128 21.0697 21.0827 21.1951 22.8763Z" fill="#006B3F" stroke="black" stroke-width="0.0194445"/>
<path d="M22.4552 24.8682C21.5608 24.9626 17.6497 25.0071 17.483 24.8848C17.3163 24.7626 17.0663 24.246 17.0663 24.2182C17.5775 24.196 17.3552 23.9237 17.6163 23.7793C17.8719 23.6293 18.2386 23.7293 18.3497 23.9071C18.4608 24.0904 18.3719 24.2682 18.5108 24.2737C18.6552 24.2737 21.433 24.1404 22.4552 24.2126C22.6219 24.2237 22.7497 24.3737 22.7497 24.5404C22.7497 24.7071 22.6219 24.8515 22.4552 24.8682Z" fill="#9C4A00" stroke="black" stroke-width="0.0194445"/>
<path d="M19.789 24.5907C19.7834 24.9795 20.3502 24.8684 20.3613 25.1907C20.3445 25.5295 19.4057 25.2129 19.3945 24.5852C19.4334 23.9629 20.3502 23.6573 20.3613 24.0129C20.3724 24.3073 19.8002 24.2073 19.789 24.5907Z" fill="#FCD116" stroke="black" stroke-width="0.0194445"/>
<path d="M20.121 24.5907C20.1155 24.9795 20.6821 24.8684 20.6931 25.1907C20.6766 25.5295 19.7376 25.2129 19.7266 24.5852C19.7655 23.9629 20.6821 23.6573 20.6931 24.0129C20.7042 24.3073 20.1321 24.2073 20.121 24.5907Z" fill="#FCD116" stroke="black" stroke-width="0.0194445"/>
<path d="M20.4822 24.5907C20.4767 24.9795 21.0434 24.8684 21.0546 25.1907C21.0379 25.5295 20.099 25.2129 20.0879 24.5852C20.1267 23.9629 21.0434 23.6573 21.0546 24.0129C21.0656 24.3073 20.4934 24.2073 20.4822 24.5907Z" fill="#FCD116" stroke="black" stroke-width="0.0194445"/>
<path d="M20.8222 24.5907C20.8167 24.9795 21.3833 24.8684 21.3944 25.1907C21.3777 25.5295 20.4388 25.2129 20.4277 24.5852C20.4667 23.9629 21.3833 23.6573 21.3944 24.0129C21.4055 24.3073 20.8333 24.2073 20.8222 24.5907Z" fill="#FCD116" stroke="black" stroke-width="0.0194445"/>
<path d="M20.2717 23.8213C20.3902 24.1008 20.5775 24.154 20.69 23.9401C20.8026 23.7261 20.7978 23.3261 20.6795 23.0466C20.561 22.767 20.3737 22.7139 20.2611 22.9278C20.1486 23.1417 20.1533 23.5417 20.2717 23.8213Z" fill="#006B3F" stroke="black" stroke-width="0.0273371"/>
<path d="M19.7795 23.7861C19.898 24.0656 20.0852 24.1188 20.1978 23.9049C20.3103 23.691 20.3057 23.2909 20.1873 23.0114C20.0688 22.7319 19.8815 22.6787 19.769 22.8926C19.6563 23.1066 19.6611 23.5066 19.7795 23.7861Z" fill="#006B3F" stroke="black" stroke-width="0.0273371"/>
<path d="M19.4298 23.1509C19.5483 23.4304 19.7357 23.4836 19.8482 23.2696C19.9608 23.0557 19.9561 22.6557 19.8377 22.3762C19.7192 22.0966 19.5318 22.0435 19.4193 22.2574C19.3068 22.4712 19.3115 22.8712 19.4298 23.1509Z" fill="#006B3F" stroke="black" stroke-width="0.0273371"/>
<path d="M19.8899 22.9942C19.9757 23.3542 20.1529 23.5307 20.2855 23.3888C20.4182 23.2469 20.4562 22.8402 20.3704 22.4802C20.2845 22.1203 20.1074 21.9438 19.9747 22.0857C19.842 22.2277 19.804 22.6343 19.8899 22.9942Z" fill="#006B3F" stroke="black" stroke-width="0.0263402"/>
<path d="M19.7367 22.4927C19.8329 22.8147 20.0127 22.9395 20.1383 22.7713C20.264 22.603 20.2879 22.2055 20.1917 21.8834C20.0956 21.5613 19.9158 21.4367 19.7901 21.6048C19.6645 21.773 19.6406 22.1705 19.7367 22.4927Z" fill="#006B3F" stroke="black" stroke-width="0.0268464"/>
<path d="M19.2992 22.2983C19.3954 22.6204 19.5752 22.7452 19.7008 22.5769C19.8265 22.4088 19.8504 22.0113 19.7542 21.6892C19.6581 21.367 19.4783 21.2423 19.3526 21.4105C19.227 21.5788 19.2031 21.9763 19.2992 22.2983Z" fill="#006B3F" stroke="black" stroke-width="0.0268464"/>
<path d="M19.0337 16.5348C19.0337 16.5348 18.0559 17.3793 18.167 19.6738C18.2892 21.9848 20.3281 23.0682 20.3281 23.0682H20.6503V16.5348H19.0337Z" fill="#9461C9" stroke="black" stroke-width="0.0194445"/>
<path d="M21.0244 24.0282C21.1392 24.2367 21.3259 24.1746 21.4413 23.8895C21.5567 23.6042 21.5572 23.2042 21.4423 22.9957C21.3274 22.7872 21.1408 22.8493 21.0254 23.1346C20.9099 23.4197 20.9094 23.8198 21.0244 24.0282Z" fill="#006B3F" stroke="black" stroke-width="0.0273045"/>
<path d="M20.5497 23.9072C20.6645 24.1157 20.8512 24.0535 20.9667 23.7684C21.082 23.4832 21.0825 23.0831 20.9677 22.8746C20.8528 22.6662 20.6662 22.7282 20.5507 23.0135C20.4353 23.2986 20.4348 23.6987 20.5497 23.9072Z" fill="#006B3F" stroke="black" stroke-width="0.0273045"/>
<path d="M20.3153 23.229C20.4303 23.4375 20.6168 23.3753 20.7323 23.0902C20.8476 22.805 20.8481 22.4049 20.7333 22.1964C20.6184 21.9879 20.4318 22.0501 20.3163 22.3353C20.2009 22.6204 20.2005 23.0205 20.3153 23.229Z" fill="#006B3F" stroke="black" stroke-width="0.0273045"/>
<path d="M20.8787 23.4275C21.0167 23.5583 21.1917 23.366 21.2693 22.9979C21.3472 22.6299 21.2982 22.2255 21.1602 22.0947C21.0221 21.9639 20.8471 22.1563 20.7693 22.5243C20.6917 22.8923 20.7406 23.2967 20.8787 23.4275Z" fill="#006B3F" stroke="black" stroke-width="0.02605"/>
<path d="M21.5512 23.4947C21.6799 23.6516 21.8572 23.511 21.9468 23.1807C22.0366 22.8503 22.0048 22.4553 21.8759 22.2984C21.7471 22.1415 21.5699 22.2821 21.4803 22.6124C21.3904 22.9428 21.4223 23.3378 21.5512 23.4947Z" fill="#006B3F" stroke="black" stroke-width="0.0266421"/>
<path d="M21.2229 23.1988C21.3518 23.3558 21.5291 23.2153 21.6187 22.8848C21.7084 22.5544 21.6767 22.1594 21.5478 22.0025C21.4189 21.8456 21.2417 21.9863 21.1521 22.3165C21.0623 22.6469 21.0942 23.0419 21.2229 23.1988Z" fill="#006B3F" stroke="black" stroke-width="0.0266421"/>
<path d="M20.8108 22.7897C20.9398 22.9467 21.1169 22.806 21.2067 22.4757C21.2963 22.1453 21.2647 21.7503 21.1358 21.5933C21.0068 21.4364 20.8297 21.577 20.7399 21.9073C20.6503 22.2378 20.682 22.6328 20.8108 22.7897Z" fill="#006B3F" stroke="black" stroke-width="0.0266421"/>
<path d="M20.4104 22.5206C20.5393 22.6775 20.7166 22.5369 20.8062 22.2066C20.8959 21.8762 20.8642 21.4812 20.7353 21.3243C20.6064 21.1674 20.4292 21.3079 20.3396 21.6383C20.2498 21.9687 20.2817 22.3637 20.4104 22.5206Z" fill="#006B3F" stroke="black" stroke-width="0.0266421"/>
<path d="M20.3517 20.8028C20.9096 22.0858 21.6994 22.9793 22.1159 22.7982C22.5323 22.6172 22.4177 21.4302 21.8598 20.147C21.3019 18.864 20.5119 17.9707 20.0956 18.1518C19.6791 18.3328 19.7938 19.5198 20.3517 20.8028Z" fill="#D41C30" stroke="black" stroke-width="0.0111111"/>
<path d="M20.4067 17.6093C20.5946 17.6093 20.747 17.4761 20.747 17.3118C20.747 17.1475 20.5946 17.0143 20.4067 17.0143C20.2188 17.0143 20.0664 17.1475 20.0664 17.3118C20.0664 17.4761 20.2188 17.6093 20.4067 17.6093Z" fill="#006B3F" stroke="black" stroke-width="0.0200428"/>
<path d="M20.3638 17.2361C20.5517 17.2361 20.704 17.1029 20.704 16.9386C20.704 16.7743 20.5517 16.6411 20.3638 16.6411C20.1759 16.6411 20.0234 16.7743 20.0234 16.9386C20.0234 17.1029 20.1759 17.2361 20.3638 17.2361Z" fill="#006B3F" stroke="black" stroke-width="0.0200428"/>
<path d="M19.8918 17.7037C20.0682 17.7037 20.2112 17.5621 20.2112 17.3873C20.2112 17.2127 20.0682 17.071 19.8918 17.071C19.7153 17.071 19.5723 17.2127 19.5723 17.3873C19.5723 17.5621 19.7153 17.7037 19.8918 17.7037Z" fill="#006B3F" stroke="black" stroke-width="0.0200428"/>
<path d="M19.9892 17.2928C20.1656 17.2928 20.3087 17.1533 20.3087 16.981C20.3087 16.8089 20.1656 16.6694 19.9892 16.6694C19.8127 16.6694 19.6697 16.8089 19.6697 16.981C19.6697 17.1533 19.8127 17.2928 19.9892 17.2928Z" fill="#006B3F" stroke="black" stroke-width="0.0200428"/>
<path d="M19.4608 17.3071C19.6603 17.3071 19.8219 17.1654 19.8219 16.9907C19.8219 16.816 19.6603 16.6743 19.4608 16.6743C19.2614 16.6743 19.0996 16.816 19.0996 16.9907C19.0996 17.1654 19.2614 17.3071 19.4608 17.3071Z" fill="#006B3F" stroke="black" stroke-width="0.0200428"/>
<path d="M20.1216 16.7639C20.3096 16.7639 20.4618 16.6307 20.4618 16.4664C20.4618 16.3022 20.3096 16.1689 20.1216 16.1689C19.9337 16.1689 19.7812 16.3022 19.7812 16.4664C19.7812 16.6307 19.9337 16.7639 20.1216 16.7639Z" fill="#006B3F" stroke="black" stroke-width="0.0200428"/>
<path d="M19.6691 16.8348C19.8455 16.8348 19.9885 16.6953 19.9885 16.5232C19.9885 16.351 19.8455 16.2114 19.6691 16.2114C19.4926 16.2114 19.3496 16.351 19.3496 16.5232C19.3496 16.6953 19.4926 16.8348 19.6691 16.8348Z" fill="#006B3F" stroke="black" stroke-width="0.0200428"/>
<path d="M18.9894 17.3262C19.1658 17.3262 19.3088 17.1845 19.3088 17.0097C19.3088 16.835 19.1658 16.6933 18.9894 16.6933C18.8129 16.6933 18.6699 16.835 18.6699 17.0097C18.6699 17.1845 18.8129 17.3262 18.9894 17.3262Z" fill="#006B3F" stroke="black" stroke-width="0.0200428"/>
<path d="M19.1007 17.0848C19.2772 17.0848 19.4202 16.9453 19.4202 16.7732C19.4202 16.601 19.2772 16.4614 19.1007 16.4614C18.9243 16.4614 18.7812 16.601 18.7812 16.7732C18.7812 16.9453 18.9243 17.0848 19.1007 17.0848Z" fill="#006B3F" stroke="black" stroke-width="0.0200428"/>
<path d="M19.2335 16.8208C19.4098 16.8208 19.553 16.6813 19.553 16.509C19.553 16.3369 19.4098 16.1974 19.2335 16.1974C19.0571 16.1974 18.9141 16.3369 18.9141 16.509C18.9141 16.6813 19.0571 16.8208 19.2335 16.8208Z" fill="#006B3F" stroke="black" stroke-width="0.0200428"/>
<path d="M20.3901 20.507C21.0623 22.0313 22.0352 23.0783 22.5631 22.8456C23.0908 22.6128 22.9736 21.1883 22.3012 19.6639C21.629 18.1397 20.6561 17.0926 20.1283 17.3253C19.6006 17.5582 19.7177 18.9826 20.3901 20.507Z" fill="#006B3F" stroke="black" stroke-width="0.0194445"/>
<path d="M22.0263 20.6481C22.1676 20.9682 22.3638 21.1915 22.4649 21.1469C22.5659 21.1023 22.5334 20.8067 22.3923 20.4867C22.2512 20.1667 22.0548 19.9434 21.9538 19.9879C21.8528 20.0325 21.8853 20.3281 22.0263 20.6481Z" fill="#006B3F" stroke="black" stroke-width="0.0194445"/>
<path d="M22.1164 20.5686C22.9664 21.6074 22.8609 22.2686 22.772 22.8241L21.5664 21.5297V20.2297L22.1164 20.5686Z" fill="#006B3F" stroke="black" stroke-width="0.0194445"/>
<path d="M22.1888 21.4074C23.0444 22.4463 22.9388 23.1074 22.8499 23.663L21.2109 21.1241V19.4186C21.3388 19.7519 21.3388 20.3686 22.1888 21.4074Z" fill="#006B3F" stroke="black" stroke-width="0.0194445"/>
<path d="M22.2172 22.0849C23.0893 23.1017 22.995 23.7683 22.9172 24.3294C22.6393 23.6905 22.4838 23.2849 21.6061 22.2628C20.7338 21.2405 21.145 20.5017 21.195 20.1183C21.3338 20.446 21.345 21.0627 22.2172 22.0849Z" fill="#006B3F" stroke="black" stroke-width="0.0194445"/>
<path d="M21.2764 19.7401C21.5384 20.3018 21.8995 20.6878 22.083 20.6022C22.2666 20.5166 22.203 19.9919 21.9411 19.4302C21.6791 18.8684 21.318 18.4825 21.1345 18.568C20.951 18.6536 21.0145 19.1784 21.2764 19.7401Z" fill="#006B3F" stroke="black" stroke-width="0.0194445"/>
<path d="M20.9758 20.2953C21.1853 20.7595 21.4867 21.0764 21.6489 21.0033C21.8111 20.93 21.7727 20.4943 21.5631 20.0301C21.3535 19.5659 21.0521 19.2489 20.8899 19.3223C20.7277 19.3954 20.7662 19.8311 20.9758 20.2953Z" fill="#006B3F" stroke="black" stroke-width="0.0194445"/>
<path d="M20.5681 20.6858C20.7686 21.1539 21.064 21.4767 21.2276 21.4065C21.3911 21.3364 21.3611 20.9002 21.1604 20.4319C20.9597 19.9638 20.6645 19.6412 20.501 19.7112C20.3374 19.7813 20.3674 20.2177 20.5681 20.6858Z" fill="#006B3F" stroke="black" stroke-width="0.0194445"/>
<path d="M20.9737 19.2541C21.1566 19.5981 21.406 19.8232 21.5306 19.7571C21.6552 19.6907 21.6078 19.3582 21.425 19.0141C21.2421 18.6701 20.9927 18.4448 20.8681 18.5111C20.7435 18.5773 20.7908 18.9099 20.9737 19.2541Z" fill="#006B3F" stroke="black" stroke-width="0.0194445"/>
<path d="M20.6231 19.5022C20.7841 19.857 21.0188 20.0974 21.1473 20.0391C21.2759 19.9807 21.2496 19.6459 21.0886 19.291C20.9276 18.9362 20.6929 18.6957 20.5644 18.754C20.4359 18.8124 20.4622 19.1472 20.6231 19.5022Z" fill="#006B3F" stroke="black" stroke-width="0.0194445"/>
<path d="M22.4545 24.2122C22.3675 24.2122 22.2841 24.2468 22.2227 24.3083C22.1612 24.3697 22.1267 24.453 22.1267 24.5399C22.1267 24.6269 22.1612 24.7102 22.2227 24.7717C22.2841 24.8332 22.3675 24.8677 22.4545 24.8677" stroke="black" stroke-width="0.0194445" stroke-linecap="round"/>
<path d="M20.1327 19.2348C20.1928 19.3817 20.2581 19.5238 20.3251 19.6534C20.3919 19.7829 20.4592 19.8973 20.5228 19.99C20.5864 20.0828 20.6452 20.1518 20.6958 20.1935C20.7464 20.2352 20.7879 20.2485 20.8178 20.2328C20.8477 20.2172 20.8654 20.1728 20.8701 20.102C20.8748 20.0314 20.8662 19.9359 20.8449 19.8212C20.8236 19.7063 20.7899 19.5743 20.7459 19.4328C20.7019 19.2912 20.6483 19.1428 20.5883 18.9959" fill="#006B3F"/>
<path d="M20.1327 19.2348C20.1928 19.3817 20.2581 19.5238 20.3251 19.6534C20.3919 19.7829 20.4592 19.8973 20.5228 19.99C20.5864 20.0828 20.6452 20.1518 20.6958 20.1935C20.7464 20.2352 20.7879 20.2485 20.8178 20.2328C20.8477 20.2172 20.8654 20.1728 20.8701 20.102C20.8748 20.0314 20.8662 19.9359 20.8449 19.8212C20.8236 19.7063 20.7899 19.5743 20.7459 19.4328C20.7019 19.2912 20.6483 19.1428 20.5883 18.9959" stroke="black" stroke-width="0.0194445" stroke-linecap="round"/>
<path d="M20.5817 18.7768C20.7427 19.1317 20.9773 19.372 21.1059 19.3137C21.2344 19.2554 21.2081 18.9205 21.0471 18.5657C20.8862 18.2108 20.6515 17.9704 20.5229 18.0287C20.3944 18.087 20.4207 18.4219 20.5817 18.7768Z" fill="#006B3F" stroke="black" stroke-width="0.0194445" stroke-linecap="round"/>
<path d="M20.1556 18.9765C20.3091 19.3347 20.5387 19.5798 20.6683 19.5242C20.7981 19.4687 20.7788 19.1332 20.6253 18.7752C20.4718 18.417 20.2422 18.1717 20.1125 18.2272C19.9828 18.2828 20.0021 18.6183 20.1556 18.9765Z" fill="#006B3F" stroke="black" stroke-width="0.0194445" stroke-linecap="round"/>
<path d="M19.8491 18.3845C19.908 18.4838 19.97 18.5792 20.0318 18.6652C20.0935 18.7512 20.154 18.826 20.2094 18.8857C20.2649 18.9452 20.3144 18.9883 20.355 19.0125C20.3956 19.0367 20.4268 19.0414 20.4465 19.0265C20.4661 19.0115 20.474 18.9772 20.4699 18.9253C20.4655 18.8735 20.4491 18.8053 20.4215 18.7245C20.394 18.6438 20.3556 18.5522 20.309 18.4547C20.2623 18.3572 20.208 18.256 20.1491 18.1567" fill="#006B3F"/>
<path d="M19.8491 18.3845C19.908 18.4838 19.97 18.5792 20.0318 18.6652C20.0935 18.7512 20.154 18.826 20.2094 18.8857C20.2649 18.9452 20.3144 18.9883 20.355 19.0125C20.3956 19.0367 20.4268 19.0414 20.4465 19.0265C20.4661 19.0115 20.474 18.9772 20.4699 18.9253C20.4655 18.8735 20.4491 18.8053 20.4215 18.7245C20.394 18.6438 20.3556 18.5522 20.309 18.4547C20.2623 18.3572 20.208 18.256 20.1491 18.1567" stroke="black" stroke-width="0.0194445" stroke-linecap="round"/>
<path d="M20.0214 18.1067C20.0739 18.1993 20.1305 18.2897 20.1881 18.3723C20.2458 18.455 20.3031 18.5285 20.357 18.5886C20.4109 18.6487 20.4604 18.6942 20.5024 18.7227C20.5444 18.7511 20.5783 18.7617 20.6019 18.7541C20.6256 18.7463 20.6388 18.7206 20.6405 18.678C20.6424 18.6355 20.6329 18.5771 20.6124 18.5061C20.592 18.4352 20.5613 18.3531 20.5218 18.2646C20.4824 18.176 20.4349 18.0827 20.3824 17.9901" fill="#006B3F"/>
<path d="M20.0214 18.1067C20.0739 18.1993 20.1305 18.2897 20.1881 18.3723C20.2458 18.455 20.3031 18.5285 20.357 18.5886C20.4109 18.6487 20.4604 18.6942 20.5024 18.7227C20.5444 18.7511 20.5783 18.7617 20.6019 18.7541C20.6256 18.7463 20.6388 18.7206 20.6405 18.678C20.6424 18.6355 20.6329 18.5771 20.6124 18.5061C20.592 18.4352 20.5613 18.3531 20.5218 18.2646C20.4824 18.176 20.4349 18.0827 20.3824 17.9901" stroke="black" stroke-width="0.0194445" stroke-linecap="round"/>
<path d="M20.6658 18.2513C20.7472 18.3867 20.8332 18.5168 20.9187 18.6342C21.0042 18.7515 21.0878 18.8537 21.1647 18.9351C21.2416 19.0163 21.3102 19.0752 21.3666 19.1082C21.4229 19.1412 21.4661 19.1476 21.4934 19.1272C21.5207 19.1067 21.5318 19.0598 21.5261 18.9891C21.5202 18.9183 21.4976 18.8252 21.4593 18.7151C21.4212 18.6048 21.3683 18.4797 21.3037 18.3467C21.2389 18.2137 21.1638 18.0757 21.0826 17.9402" fill="#006B3F"/>
<path d="M20.6658 18.2513C20.7472 18.3867 20.8332 18.5168 20.9187 18.6342C21.0042 18.7515 21.0878 18.8537 21.1647 18.9351C21.2416 19.0163 21.3102 19.0752 21.3666 19.1082C21.4229 19.1412 21.4661 19.1476 21.4934 19.1272C21.5207 19.1067 21.5318 19.0598 21.5261 18.9891C21.5202 18.9183 21.4976 18.8252 21.4593 18.7151C21.4212 18.6048 21.3683 18.4797 21.3037 18.3467C21.2389 18.2137 21.1638 18.0757 21.0826 17.9402" stroke="black" stroke-width="0.0194445" stroke-linecap="round"/>
<path d="M20.283 17.8902C20.3391 17.998 20.3995 18.1027 20.4602 18.1973C20.521 18.2922 20.581 18.375 20.6365 18.4412C20.692 18.5073 20.7417 18.5553 20.7828 18.5819C20.824 18.6087 20.8555 18.6138 20.8755 18.5967C20.8956 18.5797 20.9037 18.5409 20.8995 18.4829C20.8952 18.4249 20.8786 18.3488 20.8507 18.2592C20.8227 18.1697 20.7841 18.0687 20.7371 17.9622C20.6901 17.8557 20.6358 17.7462 20.5773 17.6402" fill="#006B3F"/>
<path d="M20.283 17.8902C20.3391 17.998 20.3995 18.1027 20.4602 18.1973C20.521 18.2922 20.581 18.375 20.6365 18.4412C20.692 18.5073 20.7417 18.5553 20.7828 18.5819C20.824 18.6087 20.8555 18.6138 20.8755 18.5967C20.8956 18.5797 20.9037 18.5409 20.8995 18.4829C20.8952 18.4249 20.8786 18.3488 20.8507 18.2592C20.8227 18.1697 20.7841 18.0687 20.7371 17.9622C20.6901 17.8557 20.6358 17.7462 20.5773 17.6402" stroke="black" stroke-width="0.0194445" stroke-linecap="round"/>
<path d="M20.5543 16.9738C20.3932 17.1405 20.5598 17.4405 20.7043 17.5627C20.8765 17.7072 21.821 18.7127 22.4876 17.8738C21.9543 17.8627 20.9543 16.6072 20.5543 16.9738Z" fill="#9461C9" stroke="black" stroke-width="0.0194445"/>
<path d="M20.4391 16.4793C20.2779 16.6461 20.4446 16.9461 20.5891 17.0682C20.7613 17.2127 21.7057 18.2182 22.3724 17.3793C21.8391 17.3682 20.8391 16.1127 20.4391 16.4793Z" fill="#9461C9" stroke="black" stroke-width="0.0194445"/>
<path d="M20.2887 16.0072C20.1276 16.1738 20.2942 16.4738 20.4387 16.5961C20.6108 16.7406 21.5552 17.7461 22.222 16.9072C21.6887 16.8961 20.6887 15.6406 20.2887 16.0072Z" fill="#9461C9" stroke="black" stroke-width="0.0194445"/>
<path d="M19.9604 15.4681C19.7993 15.6348 19.9659 15.9348 20.1104 16.057C20.2826 16.2015 21.2271 17.207 21.8937 16.3681C21.3604 16.357 20.3604 15.1015 19.9604 15.4681Z" fill="#9461C9" stroke="black" stroke-width="0.0194445"/>
<path d="M18.7991 14.9514C19.138 14.6959 19.7602 14.6236 20.2435 14.8681C20.6491 15.0681 21.3213 15.8736 21.8269 16.0681C21.4713 16.1292 21.2547 16.0736 21.0269 15.9681C20.5769 16.2903 20.4158 16.3403 19.9602 16.407C19.3213 16.4959 18.7935 16.3292 18.6047 16.0014C18.4158 15.6847 18.4991 15.1847 18.7991 14.9514Z" fill="#9461C9" stroke="black" stroke-width="0.0194445"/>
<path d="M19.5164 15.6244C19.6795 15.6244 19.8119 15.5478 19.8119 15.4533C19.8119 15.3588 19.6795 15.2822 19.5164 15.2822C19.353 15.2822 19.2207 15.3588 19.2207 15.4533C19.2207 15.5478 19.353 15.6244 19.5164 15.6244Z" fill="#D41C30" stroke="black" stroke-width="0.019249"/>
<path d="M19.5015 15.531C19.5572 15.531 19.6026 15.491 19.6026 15.4416C19.6026 15.3922 19.5572 15.3522 19.5015 15.3522C19.4456 15.3522 19.4004 15.3922 19.4004 15.4416C19.4004 15.491 19.4456 15.531 19.5015 15.531Z" fill="black"/>
<path d="M18.2471 16.2765C18.2952 16.4059 18.5044 16.4475 18.7143 16.3695C18.9243 16.2914 19.0554 16.1232 19.0073 15.9938C18.9592 15.8644 18.75 15.8228 18.54 15.9008C18.3301 15.9789 18.1989 16.1472 18.2471 16.2765Z" fill="#FCD116" stroke="black" stroke-width="0.0194445"/>
<path d="M18.8723 15.6796C18.9001 15.8074 18.8056 15.9852 18.5945 16.0463C18.3834 16.1352 18.2223 16.3352 18.1278 16.6629C17.8056 15.9185 18.0113 15.6018 18.3556 15.524C18.6501 15.4296 18.8278 15.4407 18.8723 15.6796Z" fill="#FCD116" stroke="black" stroke-width="0.0194445"/>
<path d="M18.5607 15.9183C18.6006 15.9183 18.6328 15.886 18.6328 15.8462C18.6328 15.8062 18.6006 15.7739 18.5607 15.7739C18.5207 15.7739 18.4884 15.8062 18.4884 15.8462C18.4884 15.886 18.5207 15.9183 18.5607 15.9183Z" fill="black"/>
</g>
</g>
</g>
<defs>
<clipPath id="clip0_16699_265592">
<rect width="40" height="40" fill="white"/>
</clipPath>
</defs>
</svg>
