<svg width="40" height="40" viewBox="0 0 40 40" fill="none" xmlns="http://www.w3.org/2000/svg">
<g clip-path="url(#clip0_16699_267285)">
<mask id="mask0_16699_267285" style="mask-type:luminance" maskUnits="userSpaceOnUse" x="0" y="0" width="40" height="40">
<path d="M40 0H0V40H40V0Z" fill="white"/>
</mask>
<g mask="url(#mask0_16699_267285)">
<mask id="mask1_16699_267285" style="mask-type:luminance" maskUnits="userSpaceOnUse" x="0" y="0" width="40" height="40">
<path d="M40 20C40 8.95433 31.0457 0 20 0C8.95433 0 0 8.95433 0 20C0 31.0457 8.95433 40 20 40C31.0457 40 40 31.0457 40 20Z" fill="white"/>
</mask>
<g mask="url(#mask1_16699_267285)">
<path d="M-10 0H50V40H-10V0Z" fill="black"/>
<path d="M-10 0H50V26.6667H-10V0Z" fill="white"/>
<path d="M-10 0H50V13.3333H-10V0Z" fill="#CE1126"/>
<path d="M20.0542 20.1603L24.62 24.399L24.295 16.701C24.2472 15.5343 23.2334 15.802 22.4969 16.2228C21.7509 16.701 20.8997 16.701 20.0005 16.3852C19.1015 16.701 18.2503 16.701 17.5043 16.2228C16.7679 15.8021 15.7541 15.5342 15.7063 16.701L15.381 24.399L20.0542 20.1603Z" fill="white" stroke="#C09300" stroke-width="0.0423453" stroke-linejoin="round"/>
<path d="M16.2323 16.4329L15.9167 23.9209L15.381 24.3988L15.7063 16.7008C15.8592 16.5957 16.1271 16.4329 16.2323 16.4329ZM16.8736 16.9689L16.6058 23.2327L16.0703 23.7807L16.3955 16.5479C16.5007 16.6532 16.8164 16.9117 16.8736 16.9689ZM17.4569 17.4469L17.2466 22.6711L16.8163 23.0917L17.0841 17.1313C17.1891 17.2366 17.3995 17.3897 17.4569 17.4469ZM18.0883 17.7149L17.8779 22.1674L17.457 22.5087L17.6674 17.5524C17.7727 17.6002 17.9831 17.7149 18.0883 17.7149ZM18.6716 17.7149L18.5185 21.4254L18.0881 21.8462L18.2508 17.7628C18.3558 17.7628 18.6237 17.7628 18.6716 17.7149Z" fill="#C09300"/>
<path d="M23.7703 16.4329L24.0859 23.9209L24.6216 24.3988L24.2963 16.7008C24.1434 16.5957 23.8754 16.4329 23.7703 16.4329ZM23.1291 16.9689L23.3968 23.2327L23.9322 23.7807L23.6071 16.5479C23.5018 16.6532 23.1862 16.9117 23.1291 16.9689ZM22.5457 17.4469L22.7561 22.6711L23.1863 23.0917L22.9186 17.1313C22.8136 17.2366 22.6031 17.3897 22.5457 17.4469ZM21.9143 17.7149L22.1247 22.1674L22.5456 22.5087L22.3352 17.5524C22.2299 17.6002 22.0196 17.7149 21.9143 17.7149ZM21.3311 17.7149L21.4841 21.4254L21.9146 21.8462L21.7518 17.7628C21.6468 17.7628 21.3789 17.7628 21.3311 17.7149Z" fill="#C09300"/>
<path d="M20.2102 21.0039L20.851 23.921L20.6404 24.1313L20.4205 23.9687L20.057 21.3675L20.2102 23.9687L19.9997 24.2364L19.7893 23.9687L19.9424 21.3675L19.5789 23.9687L19.3588 24.1313L19.1484 23.921L19.7893 21.0039H20.2102Z" fill="#C09300" stroke="#C09300" stroke-width="0.0357953"/>
<path d="M18.5673 19.7227L17.2953 24.2362L19.0456 24.5042L19.7915 21.1092L18.5673 19.7227Z" fill="white" stroke="#C09300" stroke-width="0.0396337" stroke-linejoin="round"/>
<path d="M18.1467 21.2627L18.2998 21.6356L19.1268 20.8457" stroke="#C09300" stroke-width="0.0423298" stroke-linejoin="round"/>
<path d="M18.7207 20.3282L18.8938 21.9513L19.4198 21.2626M19.2094 21.5301L19.4967 22.5218M19.6094 22.1574L19.0282 23.0403M19.2095 23.9213L19.0235 23.0414L18.8611 22.1465L18.4717 22.6738L18.301 22.0659L17.756 22.6248L18.0332 23.6416L18.4157 23.0126L18.626 23.6534L19.0187 23.0427" stroke="#C09300" stroke-width="0.0423298" stroke-linejoin="round"/>
<path d="M17.6685 24.1314L18.0218 23.6351L18.252 24.3989L18.5676 23.8634L18.7781 24.5044" stroke="#C09300" stroke-width="0.0423298" stroke-linejoin="round"/>
<path d="M21.4373 19.7231L22.7093 24.2367L20.959 24.5046L20.2131 21.1096L21.4373 19.7231Z" fill="white" stroke="#C09300" stroke-width="0.0396337" stroke-linejoin="round"/>
<path d="M21.8576 21.2633L21.7046 21.6363L20.8776 20.8463" stroke="#C09300" stroke-width="0.0423298" stroke-linejoin="round"/>
<path d="M21.2834 20.3284L21.1104 21.9516L20.5844 21.2629M20.7948 21.5304L20.5074 22.5222M20.3948 22.1577L20.976 23.0406M20.7947 23.9216L20.9807 23.0417L21.1431 22.1468L21.5325 22.6742L21.7032 22.0662L22.2482 22.6252L21.971 23.6419L21.5885 23.0129L21.3781 23.6537L20.9855 23.0429" stroke="#C09300" stroke-width="0.0423298" stroke-linejoin="round"/>
<path d="M22.3359 24.1321L21.9826 23.6357L21.7524 24.3996L21.4368 23.8641L21.2263 24.5049" stroke="#C09300" stroke-width="0.0423298" stroke-linejoin="round"/>
<path d="M20.0031 26.2538C21.3326 26.2538 22.6047 26.1487 23.3506 25.9382C23.6663 25.881 23.6663 25.7184 23.6663 25.5078C23.982 25.4027 23.8193 25.0298 24.0392 25.0298C23.8193 25.0873 23.7715 24.6569 23.5037 24.7144C23.5037 24.3413 23.1307 24.2935 22.815 24.3985C22.1837 24.609 21.0647 24.6569 20.003 24.6569C18.9414 24.609 17.8319 24.609 17.1911 24.3985C16.8755 24.2935 16.5026 24.3413 16.5026 24.7144C16.2348 24.6569 16.187 25.0873 15.967 25.0298C16.187 25.0298 16.0243 25.4027 16.34 25.5078C16.34 25.7184 16.34 25.881 16.6652 25.9382C17.4015 26.1487 18.6737 26.2538 20.0031 26.2538Z" fill="white" stroke="#C09300" stroke-width="0.0792675" stroke-linecap="round" stroke-linejoin="round"/>
<path d="M18.1931 24.2358C18.6234 24.2933 19.1016 24.341 19.4747 24.2933C19.685 24.2933 19.838 24.6566 19.4172 24.7141C19.0444 24.7618 18.4609 24.7141 18.1452 24.6566C17.8774 24.6088 17.294 24.5036 16.921 24.3982C16.548 24.2358 16.8159 23.9203 17.0261 23.9681C17.3514 24.0733 17.7722 24.1783 18.1931 24.2358ZM21.8084 24.2358C21.3779 24.2933 20.8999 24.341 20.5363 24.2933C20.3163 24.2933 20.1633 24.6566 20.5841 24.7141C20.9572 24.7618 21.5406 24.7141 21.856 24.6566C22.1239 24.6088 22.7073 24.5036 23.0803 24.3982C23.4534 24.2358 23.1856 23.9203 22.9751 23.9681C22.6499 24.0733 22.2291 24.1785 21.8084 24.2358Z" fill="white" stroke="#C09300" stroke-width="0.0423298" stroke-linecap="round" stroke-linejoin="round"/>
<path d="M16.8767 24.0262C16.5515 23.9687 16.3985 24.3415 16.5038 24.5518C16.5516 24.4467 16.7716 24.4467 16.8195 24.3415C16.8767 24.179 16.7716 24.179 16.8767 24.0262ZM18.1487 25.0042C18.1487 24.7939 18.359 24.8197 18.359 24.6093C18.359 24.5042 18.3017 24.3415 18.1965 24.3415C18.0913 24.3415 17.986 24.4467 17.986 24.5518C17.9381 24.7623 18.1487 24.7939 18.1487 25.0042ZM19.6627 24.3987C19.978 24.3987 19.9468 24.8197 19.7937 25.03C19.7937 24.877 19.5259 24.8197 19.5259 24.7147C19.5259 24.5518 19.7677 24.5518 19.6627 24.3987ZM23.1313 24.0262C23.4565 23.9687 23.6096 24.3415 23.5043 24.5518C23.4565 24.4467 23.2365 24.4467 23.1887 24.3415C23.1313 24.179 23.2366 24.179 23.1313 24.0262ZM21.8593 25.0042C21.8593 24.7939 21.6491 24.8197 21.6491 24.6093C21.6491 24.5042 21.7064 24.3415 21.8116 24.3415C21.9168 24.3415 22.0221 24.4467 22.0221 24.5518C22.0699 24.7623 21.8593 24.7939 21.8593 25.0042ZM20.3453 24.3987C20.0298 24.3987 20.0611 24.8197 20.2142 25.03C20.2142 24.877 20.4819 24.8197 20.4819 24.7147C20.4819 24.5518 20.2401 24.5518 20.3453 24.3987Z" fill="white" stroke="#C09300" stroke-width="0.0423298" stroke-linecap="round" stroke-linejoin="round"/>
<path d="M16.9832 24.1311C17.0884 24.1311 17.2509 24.179 17.2988 24.2362L16.9832 24.1311ZM17.5084 24.2937C17.5659 24.2937 17.7763 24.3416 17.8815 24.3987L17.5084 24.2937ZM19.4217 24.5037C19.3167 24.5037 19.1062 24.5037 19.0489 24.5515L19.4217 24.5037ZM18.8384 24.5037C18.7812 24.4462 18.5707 24.4462 18.4655 24.5037H18.8384ZM23.0277 24.1311C22.9227 24.1311 22.7694 24.179 22.712 24.2362L23.0277 24.1311ZM22.5017 24.2937C22.4444 24.2937 22.2339 24.3416 22.1287 24.3987L22.5017 24.2937ZM20.5884 24.5037C20.6937 24.5037 20.9042 24.5037 20.9614 24.5515L20.5884 24.5037ZM21.1717 24.5037C21.2292 24.4462 21.4397 24.4462 21.5448 24.5037H21.1717Z" fill="white" stroke="#C09300" stroke-width="0.0296961" stroke-linecap="round" stroke-linejoin="round"/>
<path d="M16.8912 24.9718C16.8557 24.9651 16.837 24.937 16.846 24.9036C16.8569 24.863 16.8894 24.8397 16.9201 24.8507C16.9397 24.8576 16.9755 24.8936 16.9756 24.9066C16.9757 24.9213 16.9569 24.9567 16.9487 24.9567C16.9452 24.9568 16.9398 24.9598 16.9367 24.9636C16.93 24.9715 16.9091 24.9752 16.8912 24.9718ZM20.5533 25.2332C20.5401 25.2283 20.519 25.1987 20.519 25.185C20.5191 25.1592 20.5572 25.1172 20.5809 25.1168C20.5926 25.1168 20.6246 25.1335 20.6365 25.1458C20.6582 25.1683 20.6535 25.2053 20.6262 25.2263C20.6127 25.2367 20.5729 25.2405 20.5533 25.2332ZM20.5772 25.3986C20.5492 25.3891 20.5391 25.3753 20.5368 25.3443C20.5344 25.312 20.5375 25.307 20.5717 25.2882L20.5961 25.275L20.6192 25.2852C20.6512 25.2996 20.6654 25.315 20.6666 25.3365C20.6677 25.3597 20.6506 25.3833 20.6239 25.3953C20.6005 25.4058 20.5991 25.4058 20.5772 25.3986Z" fill="#C09300"/>
<path d="M17.1837 24.6726C17.1606 24.6718 17.129 24.6931 17.1108 24.7037C17.0675 24.7139 17.0172 24.7406 16.9755 24.7122C16.9342 24.6993 16.8795 24.7094 16.8733 24.7601C16.884 24.8034 16.9447 24.8283 16.9816 24.7997C17.009 24.7637 17.0837 24.7427 17.092 24.8037C17.0616 24.8499 17.065 24.9111 17.04 24.9601C17.036 24.9906 17.0232 25.0196 17.0066 25.0454C16.9758 25.0486 16.943 25.0449 16.9171 25.0642C16.8753 25.0664 16.8327 25.0872 16.8087 25.1226C16.7818 25.1611 16.7561 25.2002 16.7483 25.2476C16.7555 25.2958 16.8108 25.3097 16.8525 25.3122C16.897 25.3243 16.9415 25.3403 16.9858 25.3537C17.0581 25.3699 17.126 25.3962 17.1983 25.4122C17.304 25.4439 17.4148 25.4587 17.5212 25.4872C17.5325 25.4908 17.5428 25.4941 17.5545 25.4954C17.5987 25.5047 17.6217 25.4566 17.6255 25.4204C17.6473 25.3432 17.664 25.2646 17.6858 25.1872C17.7008 25.1561 17.719 25.0859 17.6587 25.1017C17.6245 25.1222 17.5953 25.1532 17.5525 25.1558C17.4942 25.1592 17.5275 25.2188 17.5505 25.2433C17.5555 25.2826 17.5431 25.3292 17.517 25.3601C17.4825 25.3821 17.439 25.3563 17.4025 25.3476C17.3642 25.3482 17.2876 25.3287 17.3233 25.2767C17.336 25.2382 17.3371 25.1962 17.3525 25.1579C17.372 25.1169 17.3748 25.0722 17.3837 25.0287C17.3596 24.9769 17.3185 25.0458 17.2858 25.0517C17.2633 25.0673 17.1788 25.0739 17.2233 25.1142C17.2616 25.1433 17.2322 25.1939 17.2255 25.2308C17.223 25.2822 17.1695 25.2944 17.1275 25.2829C17.0856 25.2809 17.0275 25.2497 17.063 25.2037C17.071 25.1654 17.0843 25.1277 17.092 25.0892C17.108 25.0427 17.1212 24.9983 17.138 24.9517C17.1451 24.9103 17.16 24.8712 17.1795 24.8351C17.1807 24.7893 17.2115 24.7501 17.2108 24.7037C17.2077 24.6812 17.1976 24.6729 17.1837 24.6726ZM16.9441 25.1558C16.9496 25.1549 16.9535 25.1557 16.9587 25.1579C16.9755 25.1651 16.976 25.1786 16.9587 25.1933C16.9512 25.1998 16.9427 25.2061 16.94 25.2058C16.9088 25.2032 16.8996 25.1986 16.8983 25.1872C16.8971 25.1771 16.9003 25.1742 16.9212 25.1642C16.9316 25.1592 16.9387 25.1568 16.9441 25.1558ZM16.875 25.4906C16.842 25.4594 16.8473 25.4367 16.8962 25.4003C16.9171 25.3847 16.9298 25.3864 16.9537 25.4083C16.9906 25.4419 16.992 25.4632 16.9595 25.4919C16.9435 25.5062 16.9365 25.5092 16.9177 25.5093C16.8982 25.5096 16.8926 25.5071 16.875 25.4906ZM17.0785 25.5518C17.0708 25.5501 17.0636 25.5467 17.0573 25.5421C17.0511 25.5373 17.0458 25.5313 17.042 25.5246C17.0381 25.5177 17.0356 25.5102 17.0347 25.5024C17.034 25.4947 17.0346 25.4868 17.037 25.4793C17.0455 25.4503 17.0505 25.4476 17.093 25.4472C17.1406 25.4467 17.1498 25.4547 17.1503 25.4966C17.1505 25.5202 17.1487 25.5257 17.137 25.5366C17.1231 25.5494 17.0966 25.5563 17.0785 25.5518ZM23.019 25.5572C23.004 25.5447 23.001 25.5389 23.0007 25.5228C23.0005 25.4956 23.0163 25.4754 23.0505 25.4599C23.096 25.4393 23.1145 25.4422 23.1315 25.4723C23.1543 25.5124 23.1532 25.5287 23.126 25.5557C23.111 25.5707 23.1081 25.5716 23.0736 25.5719C23.0398 25.5722 23.036 25.5712 23.019 25.5572ZM17.3485 25.6338C17.3241 25.6273 17.3116 25.6092 17.3112 25.5801C17.311 25.5578 17.3126 25.5542 17.3281 25.5421C17.3382 25.5342 17.3541 25.5274 17.3667 25.5257C17.3845 25.5232 17.391 25.5248 17.4053 25.5348C17.442 25.5607 17.4498 25.5862 17.4286 25.6109C17.406 25.6373 17.3845 25.6434 17.3485 25.6338ZM18.8097 25.6992C18.8043 25.6924 18.7925 25.6886 18.7912 25.6801C18.7933 25.6431 18.7951 25.6057 18.807 25.5702C18.8133 25.5353 18.8077 25.4988 18.82 25.4649C18.8323 25.4032 18.8323 25.3394 18.8467 25.2781C18.8473 25.2464 18.8503 25.2147 18.8595 25.1843C18.87 25.1362 18.8605 25.0859 18.8746 25.0383C18.873 25.0206 18.8936 24.9728 18.9117 25.0011C18.938 25.0396 18.9725 25.0707 19.0065 25.1021C19.0356 25.1189 19.0088 25.1437 18.9886 25.1521C18.961 25.1629 18.9542 25.1934 18.9562 25.2202C18.9523 25.2478 18.9412 25.2741 18.9401 25.3022C18.9342 25.3437 18.9355 25.3858 18.93 25.4273C18.9178 25.4679 18.9225 25.5113 18.9185 25.5532C18.919 25.5797 18.9063 25.6038 18.9081 25.6306C18.9048 25.6576 18.9036 25.6902 18.881 25.7087C18.859 25.7197 18.8273 25.7178 18.8097 25.6992ZM20.7897 25.0458C20.7576 25.0702 20.7288 25.0988 20.7001 25.1272C20.6606 25.1571 20.7326 25.1744 20.7418 25.2001C20.7523 25.2392 20.7517 25.2807 20.7543 25.3208C20.7662 25.3577 20.7715 25.3967 20.769 25.4354C20.7655 25.4769 20.7113 25.4682 20.6876 25.4917C20.6548 25.5056 20.6418 25.5377 20.6168 25.5604C20.6005 25.5927 20.596 25.6322 20.594 25.6687C20.5962 25.6987 20.5737 25.7321 20.594 25.7583C20.5965 25.7621 20.5996 25.7672 20.6022 25.7708C20.609 25.7806 20.6251 25.7728 20.6355 25.7751C20.6691 25.7732 20.7041 25.7782 20.7355 25.7647C20.8162 25.7507 20.8976 25.7496 20.9793 25.7458C21.0292 25.7474 21.0773 25.7301 21.1272 25.7312C21.1663 25.7399 21.184 25.6976 21.1835 25.6667C21.1613 25.6232 21.1805 25.5714 21.1626 25.5272C21.147 25.4822 21.1531 25.4319 21.146 25.3854C21.145 25.3488 21.0986 25.3353 21.0751 25.3626C21.0525 25.3856 21.0156 25.3902 20.998 25.4187C20.9783 25.4589 21.04 25.4589 21.0501 25.4897C21.062 25.5206 21.058 25.5549 21.0605 25.5876C21.0681 25.6271 21.0253 25.6292 20.998 25.6333C20.9623 25.6467 20.912 25.6557 20.8918 25.6126C20.8791 25.5806 20.8808 25.5463 20.8772 25.5126C20.8763 25.4531 20.862 25.3947 20.8585 25.3354C20.855 25.2623 20.8425 25.1897 20.8376 25.1167C20.837 25.0863 20.833 25.0368 20.7897 25.0458ZM20.748 25.5958L20.769 25.5979L20.771 25.6229L20.773 25.6479L20.746 25.6562C20.7316 25.6606 20.719 25.6626 20.719 25.6626C20.7146 25.6599 20.7105 25.6572 20.7065 25.6542C20.6917 25.6437 20.6955 25.6286 20.7147 25.6083C20.7255 25.5971 20.7306 25.5948 20.748 25.5958ZM18.7505 24.9772C18.725 24.9862 18.693 25.0233 18.6671 25.0231C18.6085 25.0272 18.6166 25.0843 18.6587 25.1042C18.6643 25.1217 18.659 25.1434 18.6608 25.1627C18.669 25.2152 18.6358 25.2577 18.642 25.3106C18.6391 25.3686 18.6216 25.4251 18.6191 25.4834C18.6027 25.5437 18.6025 25.6056 18.592 25.6667C18.5851 25.7217 18.5455 25.7023 18.5108 25.6877C18.5105 25.6638 18.509 25.6406 18.5087 25.6167C18.5231 25.5623 18.4793 25.5464 18.4358 25.5397C18.39 25.5441 18.3676 25.5048 18.3775 25.4647C18.3971 25.4413 18.4465 25.4478 18.4775 25.4438C18.543 25.4574 18.5402 25.3697 18.5066 25.3397C18.4836 25.2973 18.4267 25.2792 18.4108 25.2356C18.4172 25.1777 18.3788 25.1201 18.3316 25.0918C18.2591 25.0867 18.2043 25.1493 18.1775 25.2106C18.1473 25.2192 18.1172 25.2283 18.088 25.2397C18.0406 25.2516 17.9732 25.3336 18.038 25.3647C18.0742 25.3747 18.1846 25.3998 18.1358 25.4502C18.1083 25.4972 18.0557 25.4981 18.0087 25.4856C17.9605 25.4856 17.9068 25.4621 17.9087 25.4063C17.899 25.3563 17.9005 25.3026 17.8775 25.2563C17.8676 25.2004 17.8041 25.2136 17.8005 25.2647C17.7515 25.3003 17.758 25.3578 17.7921 25.4002C17.8133 25.4487 17.7923 25.5052 17.7712 25.5502C17.7585 25.6084 17.6942 25.6104 17.6483 25.6292C17.6258 25.6381 17.5397 25.6241 17.5712 25.6731C17.6215 25.6907 17.6815 25.7067 17.7337 25.6938C17.7886 25.6871 17.8362 25.6496 17.863 25.6022C17.8997 25.5648 17.963 25.5844 18.0108 25.5834C18.0623 25.5833 18.115 25.6197 18.165 25.5959C18.1795 25.5583 18.2465 25.4962 18.267 25.5606C18.2635 25.6181 18.3143 25.6489 18.367 25.6417C18.4246 25.6386 18.4033 25.6826 18.4025 25.7167C18.4063 25.7791 18.4465 25.8117 18.4983 25.8377C18.516 25.8423 18.5346 25.8407 18.5525 25.8377C18.6023 25.8219 18.656 25.7997 18.6712 25.7438C18.6915 25.6984 18.692 25.6472 18.7066 25.6002C18.7185 25.5247 18.7337 25.4494 18.7358 25.3731C18.7542 25.3038 18.749 25.2307 18.763 25.1606C18.7717 25.1084 18.7783 25.0563 18.7837 25.0043C18.7776 24.9764 18.7656 24.9718 18.7505 24.9772ZM18.2983 25.2542C18.3085 25.2556 18.314 25.2678 18.315 25.2897C18.316 25.3139 18.3287 25.3337 18.3441 25.3377C18.3563 25.3407 18.3553 25.3536 18.3421 25.3627C18.3345 25.3678 18.3207 25.3711 18.2962 25.3709C18.2577 25.3707 18.2338 25.3607 18.213 25.3397L18.2005 25.3272L18.2191 25.3147C18.2323 25.3043 18.2448 25.2932 18.2566 25.2813C18.2756 25.2619 18.2882 25.2531 18.2983 25.2542ZM22.7005 24.7292C22.6626 24.7309 22.6246 24.7371 22.59 24.7458C22.5206 24.7416 22.4858 24.8143 22.5525 24.8501C22.5926 24.9523 22.6552 24.8289 22.7191 24.8376C22.815 24.8562 22.8231 24.9597 22.838 25.0376C22.8433 25.1147 22.8655 25.1897 22.888 25.2626C22.952 25.3338 22.8398 25.3786 22.792 25.3229C22.7513 25.2787 22.664 25.2243 22.615 25.2854C22.5547 25.3109 22.5523 25.3914 22.5025 25.4147C22.422 25.4392 22.4117 25.3401 22.3691 25.2979C22.33 25.2429 22.2551 25.2382 22.1941 25.2187C22.1655 25.1608 22.1805 25.0624 22.1212 25.0229C22.0715 25.0432 21.9803 25.1364 22.0566 25.1792C22.1311 25.2432 22.0241 25.2726 21.99 25.3167C21.9412 25.3711 21.9335 25.4457 21.9255 25.5147C21.8415 25.5609 21.8251 25.4621 21.815 25.4001C21.8085 25.3259 21.746 25.3477 21.7025 25.3751C21.639 25.4007 21.6073 25.4611 21.563 25.5083C21.5576 25.5516 21.5655 25.5987 21.565 25.6437C21.5795 25.6978 21.6451 25.6724 21.6858 25.6687C21.751 25.6414 21.7778 25.7107 21.7255 25.7501C21.69 25.7952 21.5775 25.7716 21.588 25.8437C21.6241 25.8481 21.662 25.8467 21.6983 25.8437C21.771 25.8239 21.849 25.7727 21.8566 25.6917C21.8662 25.6212 21.9678 25.6339 22.0233 25.6187C22.0927 25.5987 22.1763 25.5937 22.192 25.6812C22.2393 25.7309 22.342 25.7868 22.3941 25.7187C22.4471 25.6864 22.4725 25.6296 22.4691 25.5687C22.4583 25.5164 22.5537 25.5146 22.5775 25.5437C22.6122 25.6009 22.7208 25.5841 22.7733 25.5522C22.829 25.5109 22.8411 25.4384 22.9212 25.4376C23.04 25.4019 23.1635 25.3814 23.2795 25.3376C23.3735 25.3171 23.2655 25.2577 23.242 25.2229C23.1705 25.1876 23.1082 25.3324 23.0275 25.2604C22.9651 25.2127 22.9693 25.1219 22.9462 25.0522C22.9305 24.9617 22.9345 24.8572 22.8691 24.7854C22.8243 24.7377 22.7635 24.7262 22.7005 24.7292ZM22.2462 25.3604C22.2546 25.3602 22.2641 25.3643 22.2795 25.3729C22.3088 25.3891 22.3296 25.4158 22.3295 25.4376C22.3295 25.4517 22.326 25.4527 22.3046 25.4626C22.2915 25.4686 22.2765 25.4752 22.2712 25.4751C22.2591 25.4749 22.2296 25.4512 22.2296 25.4417C22.2295 25.4377 22.2257 25.4226 22.2212 25.4104C22.2135 25.3891 22.2146 25.3893 22.2255 25.3751C22.2323 25.3658 22.2378 25.3607 22.2462 25.3604ZM22.6816 25.3833C22.7065 25.3817 22.7212 25.3894 22.7316 25.4083C22.7437 25.4302 22.7355 25.4472 22.7045 25.4604C22.691 25.4663 22.6775 25.4711 22.6755 25.4708C22.6733 25.4707 22.6621 25.4641 22.6505 25.4562C22.6325 25.4444 22.6297 25.4387 22.6295 25.4251C22.6293 25.4041 22.6528 25.3852 22.6816 25.3833ZM22.0858 25.3897C22.0931 25.3884 22.0997 25.3922 22.1087 25.4001C22.1207 25.4103 22.1245 25.4187 22.1275 25.4397C22.1295 25.4542 22.1292 25.4731 22.1275 25.4812C22.1242 25.4963 22.124 25.4957 22.09 25.4958C22.0473 25.4962 22.0433 25.4917 22.0441 25.4522C22.0447 25.4269 22.045 25.4202 22.0587 25.4062C22.0695 25.3954 22.0785 25.3907 22.0858 25.3897ZM21.7191 25.4854C21.7325 25.4886 21.745 25.4987 21.7483 25.5147C21.7527 25.5357 21.7488 25.5454 21.7316 25.5542C21.7168 25.5617 21.6827 25.5642 21.6733 25.5583C21.6702 25.5564 21.664 25.5514 21.6608 25.5458C21.6563 25.5377 21.6571 25.5338 21.663 25.5292C21.667 25.5259 21.6712 25.5212 21.6712 25.5187C21.6712 25.5163 21.6757 25.5079 21.6816 25.5001C21.6915 25.4871 21.7058 25.4823 21.7191 25.4854ZM22.3358 25.5647C22.3477 25.5646 22.3577 25.5687 22.365 25.5751C22.3773 25.5858 22.377 25.6017 22.363 25.6126C22.354 25.6194 22.3048 25.6188 22.288 25.6126C22.2805 25.6097 22.2775 25.6059 22.2775 25.5979C22.2773 25.5886 22.28 25.5827 22.2962 25.5751C22.3098 25.5686 22.324 25.5647 22.3358 25.5647ZM21.1911 25.8858C21.1847 25.8817 21.1752 25.8781 21.1847 25.8711C21.1962 25.8509 21.2193 25.8439 21.2397 25.8364C21.2762 25.8207 21.3077 25.7937 21.3313 25.7618C21.3346 25.7397 21.3595 25.7277 21.3595 25.7044C21.3596 25.6727 21.3615 25.6403 21.3538 25.6093C21.3452 25.5809 21.3237 25.5592 21.2987 25.5444C21.2816 25.5309 21.2537 25.5273 21.2475 25.5034C21.244 25.4807 21.2643 25.4632 21.2715 25.4428C21.2863 25.4147 21.299 25.3853 21.315 25.3578C21.3321 25.3387 21.3588 25.3568 21.3677 25.3753C21.3803 25.3938 21.3915 25.4137 21.3978 25.4352C21.418 25.4573 21.4358 25.4832 21.443 25.5127C21.453 25.5333 21.4686 25.5528 21.4677 25.5771C21.4677 25.6048 21.4833 25.6296 21.4823 25.6574C21.4832 25.6948 21.4832 25.7338 21.4696 25.7691C21.4602 25.7887 21.4415 25.8003 21.4291 25.8179C21.408 25.8377 21.3845 25.8566 21.3571 25.8669C21.338 25.8732 21.3267 25.8953 21.3025 25.8899C21.2682 25.8906 21.2335 25.8952 21.1995 25.8897C21.2015 25.8933 21.189 25.8837 21.1911 25.8858ZM20.7345 25.9158C20.7182 25.8992 20.7147 25.8922 20.7145 25.8758C20.7143 25.8593 20.7175 25.8527 20.7333 25.8367C20.7625 25.8072 20.7768 25.8066 20.8273 25.8321C20.8755 25.8564 20.8918 25.8587 20.8961 25.8414C20.9003 25.8247 20.928 25.8094 20.9545 25.8093C20.971 25.8092 20.9805 25.8126 20.9938 25.8229C21.0106 25.8361 21.0115 25.8381 21.0118 25.8682C21.0121 25.8992 21.0117 25.9002 20.9925 25.9173C20.974 25.9336 20.971 25.9346 20.9481 25.9322C20.919 25.9293 20.9015 25.9161 20.8967 25.8931C20.8933 25.8763 20.8875 25.8724 20.883 25.8837C20.8816 25.8873 20.8745 25.8918 20.8671 25.8937C20.8535 25.8972 20.8305 25.9117 20.8142 25.9271C20.808 25.9328 20.7972 25.9357 20.7796 25.9358C20.756 25.9361 20.7526 25.9346 20.7345 25.9158ZM19.4131 25.3226C19.3687 25.3231 19.321 25.3602 19.3151 25.4037C19.3253 25.4539 19.367 25.5031 19.3401 25.5558C19.3586 25.6233 19.2895 25.6491 19.2422 25.6101C19.2137 25.5452 19.1993 25.4743 19.1568 25.4162C19.1032 25.4012 19.0798 25.4867 19.0422 25.5162C19.061 25.5667 19.1153 25.6117 19.1215 25.6747C19.1345 25.7357 19.0973 25.8033 19.0443 25.8351C18.9986 25.8787 18.936 25.8631 18.8797 25.8726C18.8115 25.9124 18.9298 25.9271 18.961 25.9287C19.0308 25.9358 19.1033 25.9267 19.1547 25.8747C19.206 25.8502 19.202 25.7614 19.263 25.7517C19.369 25.7469 19.474 25.7679 19.5797 25.7704C19.6363 25.7839 19.724 25.7637 19.763 25.8058C19.7632 25.8797 19.8258 25.9252 19.886 25.9537C19.9192 25.9631 19.9542 25.9218 19.988 25.9142C20.0525 25.8937 20.0328 25.8141 20.0715 25.7829C20.1815 25.7769 20.2925 25.7782 20.4026 25.7767C20.4236 25.7772 20.4298 25.7473 20.4443 25.7351C20.442 25.6924 20.4403 25.6502 20.434 25.6079C20.4127 25.5542 20.4373 25.4849 20.3985 25.4392C20.3431 25.4242 20.296 25.4747 20.2401 25.4787C20.1785 25.5062 20.1265 25.5633 20.1235 25.6329C20.087 25.6927 20.0283 25.6223 20.0485 25.5726C20.0462 25.5508 20.0532 25.5256 20.0465 25.5058C20.0126 25.4653 19.9535 25.4786 19.9068 25.4726C19.839 25.4752 19.7726 25.4606 19.7047 25.4622C19.6452 25.4577 19.5832 25.4673 19.5255 25.4517C19.4568 25.4497 19.4662 25.3824 19.4547 25.3351C19.4425 25.3259 19.4278 25.3223 19.4131 25.3226ZM19.5465 25.5683C19.5692 25.5688 19.5908 25.5718 19.6131 25.5747C19.6418 25.5793 19.6725 25.5647 19.7005 25.5747C19.7657 25.5857 19.8308 25.5831 19.8965 25.5892C19.9137 25.5889 19.9261 25.6016 19.938 25.6122C19.9382 25.6577 19.9381 25.7041 19.938 25.7497C19.9361 25.7667 19.9431 25.7894 19.9276 25.8017C19.9226 25.8052 19.9171 25.8088 19.911 25.8101C19.893 25.8053 19.8738 25.7934 19.8651 25.7767C19.8625 25.7528 19.8663 25.7297 19.8672 25.7058C19.8667 25.6997 19.87 25.6901 19.8672 25.6851C19.853 25.6749 19.837 25.6684 19.8193 25.6683C19.7627 25.6664 19.7072 25.6622 19.6505 25.6601C19.6035 25.6571 19.555 25.6641 19.509 25.6517C19.491 25.6452 19.4677 25.6474 19.4568 25.6287C19.4412 25.6107 19.4637 25.5889 19.4797 25.5808C19.501 25.5712 19.5235 25.5679 19.5465 25.5683ZM20.2985 25.5851C20.309 25.5848 20.3125 25.5883 20.3172 25.6079C20.3203 25.6204 20.3238 25.6357 20.3255 25.6412C20.328 25.6492 20.3241 25.6517 20.313 25.6558C20.2801 25.6682 20.2473 25.6671 20.236 25.6517C20.2308 25.6447 20.2368 25.6227 20.2465 25.6142C20.2657 25.5969 20.287 25.5851 20.2985 25.5851Z" fill="#C09300"/>
<path d="M20.8232 16.8728C20.8677 16.8755 20.7631 16.635 20.7631 16.635C20.8808 16.7552 21.3251 16.784 21.3251 16.784C21.0584 16.6662 20.7919 15.7776 20.8232 15.0692C20.8521 14.3583 20.7214 14.0786 20.6168 13.974C20.4834 13.8407 20.0548 13.7231 19.7726 13.7073C19.6131 13.6996 19.6392 13.8276 19.6392 13.8276C19.3438 13.7518 19.0486 13.7231 18.9152 13.812C18.7896 13.8956 18.7636 14.3138 18.8551 14.2406C19.0772 14.0628 19.2706 14.225 19.4039 14.4183C19.5216 14.5883 19.5137 15.0692 19.3438 15.6312C19.1661 16.2218 18.6798 16.8126 18.6798 16.8126C18.9438 16.8126 19.3151 16.5773 19.3151 16.5773L19.2262 16.946C19.5058 16.8126 19.7281 16.6062 19.7281 16.6062L19.9946 16.8858C20.0836 16.7682 20.2613 16.6062 20.2613 16.6062C20.2613 16.6062 20.4834 16.8413 20.8232 16.8728Z" fill="white" stroke="#C09300" stroke-width="0.0405999"/>
<path d="M19.7414 15.1718C19.7414 15.1718 19.5924 16.267 19.3127 16.5782M19.9767 15.1432C19.9767 15.1432 19.9192 16.2514 19.7258 16.6069M20.1854 15.1878C20.1854 15.1878 20.1854 16.4007 20.2587 16.6072M20.4494 15.2478C20.4494 15.2478 20.5096 16.2673 20.7606 16.6358" stroke="#C09300" stroke-width="0.0423332"/>
<path d="M19.473 14.6412C19.4599 14.5444 19.4364 14.4685 19.4024 14.4189C19.269 14.2255 19.0758 14.0634 18.8535 14.2412C18.8535 14.2412 18.9293 14.0059 19.0914 13.9982C19.2168 13.9903 19.5018 14.0922 19.7528 14.5208C19.7528 14.5208 19.5671 14.479 19.5228 14.5183C19.439 14.5914 19.473 14.6412 19.473 14.6412Z" fill="#C09300" stroke="#C09300" stroke-width="0.0118"/>
<path d="M18.8336 13.951C18.8519 13.8909 18.8807 13.836 18.9173 13.8125C19.0506 13.7237 19.346 13.7524 19.6413 13.8283C19.6413 13.8283 19.6152 13.7002 19.7746 13.708C20.0569 13.7237 20.4856 13.8413 20.6188 13.9747C20.6502 14.0087 20.6868 14.0583 20.7182 14.134H20.713C20.6476 14.0425 20.462 14.0478 20.4176 14.053C20.347 14.0608 20.3026 14.0583 20.2084 14.0818C20.164 14.0923 20.096 14.1053 20.0594 14.134C20.0308 14.1575 20.0072 14.2438 19.9628 14.2438C19.8922 14.2438 19.8974 14.2255 19.8791 14.2047C19.8556 14.1758 19.8425 14.134 19.819 14.1367C19.7458 14.1498 19.6282 14.0923 19.4792 13.9747C19.3302 13.8569 19.2727 13.8283 19.0793 13.8413C18.8885 13.8569 18.8284 13.9642 18.8284 13.9642L18.8336 13.951Z" fill="#C09300" stroke="#C09300" stroke-width="0.0118"/>
<path d="M19.9264 14.1236C19.9697 14.1236 20.0048 14.0885 20.0048 14.0452C20.0048 14.0019 19.9697 13.9668 19.9264 13.9668C19.8831 13.9668 19.848 14.0019 19.848 14.0452C19.848 14.0885 19.8831 14.1236 19.9264 14.1236Z" fill="white"/>
<path d="M19.997 21.8153C22.1731 20.1417 21.9865 17.6898 21.9865 17.6898C21.9291 17.7013 21.8746 17.7071 21.8171 17.7071C21.3607 17.7071 20.2719 17.4459 20.0179 17.1143C19.7458 17.4144 18.6333 17.7071 18.1797 17.7071C18.1222 17.7071 18.0648 17.7013 18.0103 17.6898C18.0103 17.6898 17.8208 20.1416 19.997 21.8153Z" fill="white" stroke="#C09300" stroke-width="0.0383334"/>
<path d="M21.8159 17.8695C21.7972 17.8708 21.7784 17.8713 21.7594 17.8713C21.3457 17.8713 20.3848 17.659 20.0144 17.3408C19.6264 17.6348 18.6497 17.8713 18.2427 17.8713C18.2236 17.8713 18.2047 17.869 18.186 17.8655C18.1851 17.9583 18.1899 18.0544 18.1956 18.1418C18.2172 18.4685 18.2745 18.7964 18.3615 19.1119C18.6354 20.1049 19.1959 20.9488 19.9996 21.5889C20.804 20.9483 21.3652 20.1036 21.6397 19.1098C21.7268 18.7944 21.7843 18.4665 21.8061 18.1398C21.8111 18.0484 21.8162 17.9364 21.8159 17.8695Z" stroke="#C09300" stroke-width="0.0305334"/>
<mask id="mask2_16699_267285" style="mask-type:luminance" maskUnits="userSpaceOnUse" x="18" y="17" width="4" height="5">
<path d="M21.7987 17.8825C21.7801 17.8837 21.7615 17.8842 21.7427 17.8842C21.3335 17.8842 20.3828 17.6742 20.0163 17.3593C19.6325 17.6502 18.6661 17.8842 18.2634 17.8842C18.2446 17.8842 18.2259 17.882 18.2074 17.8785C18.2064 17.9702 18.2112 18.0652 18.2169 18.1517C18.2382 18.475 18.2949 18.7994 18.381 19.1116C18.652 20.094 19.2065 20.9289 20.0017 21.5622C20.7975 20.9284 21.3528 20.0927 21.6243 19.1096C21.7105 18.7975 21.7674 18.4731 21.7889 18.1499C21.7939 18.0594 21.799 17.9486 21.7987 17.8825Z" fill="white"/>
</mask>
<g mask="url(#mask2_16699_267285)">
<path fill-rule="evenodd" clip-rule="evenodd" d="M18.1776 17.3171H19.3949V21.6042H18.1776V17.3171Z" fill="#C09300"/>
<path fill-rule="evenodd" clip-rule="evenodd" d="M19.3925 17.3171H20.6096V21.6042H19.3925V17.3171Z" fill="white"/>
<path fill-rule="evenodd" clip-rule="evenodd" d="M20.613 17.3171H21.8303V21.6042H20.613V17.3171Z" fill="#C09300"/>
</g>
</g>
</g>
</g>
<defs>
<clipPath id="clip0_16699_267285">
<rect width="40" height="40" fill="white"/>
</clipPath>
</defs>
</svg>
