<svg width="40" height="40" viewBox="0 0 40 40" fill="none" xmlns="http://www.w3.org/2000/svg">
<g clip-path="url(#clip0_16699_267348)">
<mask id="mask0_16699_267348" style="mask-type:luminance" maskUnits="userSpaceOnUse" x="0" y="0" width="40" height="40">
<path d="M40 0H0V40H40V0Z" fill="white"/>
</mask>
<g mask="url(#mask0_16699_267348)">
<mask id="mask1_16699_267348" style="mask-type:luminance" maskUnits="userSpaceOnUse" x="0" y="0" width="40" height="40">
<path d="M40 20C40 8.95433 31.0457 0 20 0C8.95433 0 0 8.95433 0 20C0 31.0457 8.95433 40 20 40C31.0457 40 40 31.0457 40 20Z" fill="white"/>
</mask>
<g mask="url(#mask1_16699_267348)">
<path fill-rule="evenodd" clip-rule="evenodd" d="M0 0V40H60V0H0Z" fill="#3C8BDC"/>
<path d="M0 0H60V20H0V0Z" fill="#0BAC24"/>
<path d="M0 7V34L40 20.5L0 7Z" fill="#EB0433"/>
<path d="M8.55492 14.0001C8.46417 14.0013 8.35017 14.0153 8.21899 14.0454C7.78421 14.1449 7.37474 14.5294 7.10614 14.986C7.02364 15.0821 6.7974 15.1681 6.69229 15.1797C6.68229 15.1196 6.71813 14.9499 6.78633 14.8215C6.84413 14.7126 7.08668 14.4892 7.36185 14.2989L7.6339 14.1108L7.28006 14.1479C6.59201 14.2197 6.00604 14.5895 5.72499 15.133C5.65204 15.2741 5.57534 15.5452 5.54206 15.7757C5.51138 15.9883 5.4776 16.1301 5.44174 16.2064C5.42254 16.2473 5.4104 16.2546 5.4104 16.2546C5.40699 16.2546 5.37369 16.2229 5.33548 16.1135C5.27638 15.9443 5.29864 15.7565 5.43505 15.3884C5.48518 15.2532 5.53558 15.0918 5.44559 15.0918C5.40634 15.0918 5.27508 15.1662 5.14349 15.2493C4.66399 15.5521 4.37343 16.1321 4.33404 16.8459C4.31509 17.1892 4.32698 17.3358 4.39249 17.4837C4.46631 17.6505 4.48053 17.8176 4.4559 17.8614C4.29726 17.7973 4.11368 17.06 4.19618 16.6657L4.27086 16.3085L4.03146 16.5252C3.81369 16.7223 3.60984 17.0486 3.4876 17.3919C3.39661 17.6475 3.38158 17.779 3.40003 18.1514C3.41969 18.5483 3.44509 18.6476 3.61078 18.9731C3.71334 19.1746 3.88529 19.4305 3.99399 19.5419C4.1651 19.7173 4.20211 19.8502 4.1525 19.89C4.04154 19.8496 3.67404 19.4868 3.5631 19.2843C3.50269 19.1741 3.41683 18.961 3.37259 18.811L3.25564 18.4141L3.12349 18.7618C3.06719 18.91 3.02461 19.1962 3.00896 19.5211C2.98779 19.9606 3.0003 20.0981 3.08814 20.3714C3.26883 20.9334 3.73771 21.4957 4.29616 21.8214C4.52009 21.9521 4.60729 22.0413 4.61344 22.1112C4.58898 22.1095 4.54968 22.0996 4.47639 22.0752C4.05876 21.936 3.63891 21.6342 3.28388 21.2153L3.04799 20.9371L3.07998 21.3131C3.18688 22.5686 4.17374 23.677 5.43669 23.9583C5.61169 23.9973 5.80933 24.0302 5.8821 24.0306C5.97565 24.0311 6.14489 24.1537 6.17514 24.2181C6.1676 24.2192 6.1635 24.2205 6.15195 24.2213C5.97068 24.2337 5.46328 24.1771 5.07036 24.0899C4.8484 24.0406 4.50365 23.9289 4.304 23.8418C4.14011 23.7702 4.00255 23.7216 3.95775 23.7242C3.95019 23.7247 3.93149 23.7285 3.92045 23.7409C3.9009 23.7629 3.91028 23.7825 3.9171 23.7936C4.42381 24.6136 5.34245 25.2951 6.38744 25.6281C7.04214 25.8368 7.50409 25.8969 8.58484 25.9159C9.16425 25.926 9.6595 25.9342 9.70084 25.9338C9.67392 25.9585 9.62925 25.9887 9.55825 26.027C9.45492 26.0827 9.23317 26.2262 9.06434 26.3461L8.725 26.5872L8.85509 26.7534C8.91092 26.8248 8.95125 26.9012 9.05767 26.8555C9.138 26.8211 9.26609 26.7129 9.54175 26.4918C9.70009 26.3647 9.83309 26.2789 9.85417 26.2695C9.86225 26.3294 9.82625 26.4877 9.74992 26.6323C9.71334 26.7017 9.683 26.7696 9.68342 26.7959C9.6835 26.8018 9.68392 26.8176 9.70075 26.8301C9.72084 26.8449 9.86042 26.861 10.0144 26.8774L10.3468 26.9128L10.3167 26.6428C10.3035 26.5241 10.3117 26.3695 10.333 26.2999L10.3559 26.2253L10.7571 26.5845L10.7692 26.5955H10.7703C10.9867 26.7887 11.1822 26.9533 11.2431 26.9887C11.2501 26.9928 11.2632 27 11.2777 27C11.3207 27 11.3967 26.9388 11.4575 26.8775L11.5961 26.7381L11.3093 26.4945C11.1675 26.374 10.9057 26.1931 10.7277 26.0923C10.612 26.0269 10.5419 25.9857 10.5055 25.9583C10.5084 25.9576 10.511 25.9567 10.5143 25.956C10.5681 25.9433 11.1208 25.9222 11.7281 25.9136C12.7141 25.8996 12.8966 25.8843 13.3695 25.7766C14.0212 25.6281 14.5592 25.4231 15.0109 25.1499C15.4162 24.9047 15.8635 24.4901 16.0283 24.2043L16.2082 23.8924L15.8495 24.0614C15.5503 24.2024 15.2764 24.2644 14.7925 24.2981C14.5763 24.3132 14.2941 24.3361 14.1652 24.3489C13.9837 24.367 13.9789 24.3549 13.9789 24.3419C13.9789 24.2816 14.1672 24.1881 14.4734 24.1511C14.8243 24.1088 15.3136 23.9376 15.6263 23.748C16.341 23.3147 16.872 22.4026 16.8745 21.6039L16.8756 21.2446L16.714 21.465C16.495 21.7637 15.7405 22.2815 15.5454 22.2815C15.4948 22.2815 15.4933 22.27 15.5187 22.2296C15.543 22.191 15.5919 22.1421 15.6678 22.0888C16.2322 21.6916 16.7016 21.1148 16.9026 20.5693C17.0346 20.2109 17.0316 19.398 16.8987 18.9713L16.7647 18.5411L16.6408 18.9352C16.5252 19.3033 16.1129 19.9573 15.9392 20.0828C15.9211 20.0959 15.9127 20.0985 15.9104 20.0986C15.8638 20.1008 15.8977 19.9194 16.0811 19.6911C16.4727 19.2034 16.6136 18.7695 16.5627 18.2008C16.5262 17.7931 16.3216 17.297 16.0387 16.9278L15.7818 16.5927L15.7442 17.1807C15.7151 17.6342 15.6408 17.966 15.5654 18.0674C15.5496 18.0887 15.5403 18.0907 15.5403 18.0907C15.5403 18.0907 15.5366 18.09 15.5299 18.0836C15.4866 18.0428 15.4837 17.892 15.5544 17.4689C15.6897 16.6592 15.371 15.8816 14.6971 15.3772C14.5983 15.3032 14.5032 15.2419 14.4666 15.2365C14.4589 15.2354 14.439 15.2345 14.4241 15.2494C14.4129 15.2605 14.411 15.278 14.4109 15.2833C14.41 15.3251 14.4443 15.4795 14.4912 15.6519C14.5785 15.9725 14.59 16.2579 14.5424 16.3487C14.5334 16.366 14.5256 16.3672 14.5256 16.3672C14.5256 16.3672 14.53 16.3695 14.524 16.3639C14.4907 16.332 14.4438 16.214 14.3812 15.9801C14.3194 15.7492 14.2145 15.4535 14.1471 15.3222C13.911 14.8623 13.3888 14.4496 12.8679 14.3111C12.657 14.2551 12.5441 14.2249 12.504 14.2288C12.4897 14.2301 12.4606 14.2395 12.4565 14.2689C12.4509 14.3093 12.5128 14.3502 12.5846 14.4044C12.9638 14.6909 13.2678 15.0876 13.2291 15.183C13.2199 15.2056 13.1979 15.2186 13.0931 15.1999C13.031 15.1888 12.9864 15.1743 12.9468 15.1558C12.9418 15.1389 12.9347 15.122 12.9253 15.1053C12.659 14.6311 12.2079 14.2661 11.7618 14.164C11.237 14.0438 10.9863 14.1808 11.4032 14.3599C11.6178 14.4521 11.7555 14.5901 11.7555 14.7129C11.7555 14.7806 11.708 14.7606 11.5681 14.6339C11.1545 14.2595 10.2291 14.15 10.4804 14.5052C10.6165 14.6976 10.8442 14.7969 11.301 14.8629C11.7375 14.926 11.8398 14.9686 11.6163 14.9942C11.2983 15.0306 11.1588 15.0206 11.0206 14.9512C10.7507 14.8155 10.7367 14.8985 10.988 15.1443C11.317 15.4659 11.628 15.5878 12.0451 15.5584C12.392 15.5338 12.6214 15.4831 12.7631 15.4185C12.8428 15.4212 12.9123 15.4462 13.0552 15.508C13.2247 15.5814 13.3052 15.6484 13.3052 15.6669C13.3052 15.6867 13.2892 15.7011 12.8705 15.6845C12.6077 15.674 12.3572 15.6478 12.3166 15.6306C12.282 15.6159 12.2445 15.5989 12.2159 15.6136C12.162 15.6414 12.2033 15.7062 12.2461 15.7844C12.3672 16.0057 12.6799 16.2681 12.9851 16.4102C13.2311 16.5247 13.3277 16.5403 13.7997 16.5422C14.2828 16.5441 14.3196 16.5534 14.4214 16.6437C14.4865 16.7016 14.5324 16.7783 14.5324 16.8101C14.5324 16.8444 14.5441 16.852 14.2968 16.8278C14.0508 16.8037 13.662 16.7154 13.4677 16.64C13.447 16.6319 13.4138 16.626 13.3915 16.6518C13.3762 16.6695 13.3776 16.6951 13.3811 16.7105C13.4072 16.8281 13.6919 17.2109 13.9022 17.3941C14.1825 17.6381 14.7841 17.9405 15.0867 17.9869C15.2129 18.0063 15.2429 18.0292 15.322 18.1982C15.3754 18.3123 15.416 18.4271 15.416 18.4542C15.416 18.481 15.3475 18.4888 15.326 18.4558C15.2993 18.4149 15.1659 18.3816 15.0369 18.3634C14.7796 18.3269 14.5317 18.2178 14.3125 18.0435L14.1571 17.92L14.0905 17.9653L14.1886 18.2002C14.3942 18.6932 14.4472 18.7912 14.6608 19.0741C14.8878 19.3747 15.2873 19.7434 15.5415 19.8853C15.6453 19.9432 15.6614 19.9701 15.6607 20.1164C15.6604 20.2071 15.6501 20.275 15.6331 20.3208C15.6118 20.3779 15.5929 20.3832 15.5643 20.3639C15.5262 20.3382 15.3654 20.2309 15.2067 20.1253C14.8851 19.9114 14.7532 19.7838 14.6447 19.5893L14.567 19.4501L14.4872 19.4686L14.4857 19.77C14.4824 20.3857 14.6875 21.1425 14.9779 21.5821C15.2791 22.0381 15.2782 22.0497 15.1477 22.3284C15.0995 22.4313 15.0583 22.4947 15.0227 22.5274C15.0062 22.5425 14.996 22.5445 14.996 22.5445C14.9941 22.5441 14.9785 22.5319 14.9663 22.4726C14.9539 22.4124 14.8772 22.2807 14.7965 22.17C14.5775 21.8692 14.4629 21.5871 14.4245 21.257L14.3716 20.8032L14.2033 21.1559C13.9888 21.6056 13.9225 22.0484 13.916 23.0384L13.91 23.9496L13.735 24.1397C13.6022 24.284 13.4922 24.3776 13.4138 24.4224C13.3703 24.4474 13.3506 24.4473 13.3488 24.4474C13.3481 24.444 13.3474 24.4392 13.3481 24.4309C13.35 24.4065 13.3605 24.3701 13.3837 24.3182C13.4251 24.2253 13.4698 23.9172 13.49 23.6227C13.5119 23.3026 13.5661 22.9765 13.626 22.7995C13.6763 22.6509 13.7133 22.5144 13.7114 22.4743C13.7111 22.4681 13.7112 22.454 13.6972 22.4407C13.6716 22.4165 13.6374 22.4297 13.6202 22.4383C13.4876 22.5046 13.0115 22.9802 12.742 23.3179C12.5675 23.5366 12.2923 23.9602 12.1303 24.2593C11.81 24.8509 11.6749 25.0233 11.4402 25.1604C11.3163 25.2327 10.5625 25.5377 10.4666 25.5613C10.4568 25.4586 10.4411 25.1857 10.4272 24.8594C10.3988 24.1934 10.3655 23.9073 10.2724 23.5347C10.2595 23.4832 10.2633 23.4724 10.3434 23.4534C10.4263 23.4337 10.6395 23.2693 10.8237 23.0928L11.1395 22.7903L11.3534 22.8531C11.868 23.004 12.5596 22.8485 12.8922 22.5035C13.0246 22.366 13.1903 22.1482 13.2179 22.0804C13.2213 22.0722 13.226 22.054 13.2224 22.0411C13.2112 22.0014 13.1708 22.0066 13.1533 22.0144C13.1282 22.0257 12.9852 22.0909 12.835 22.1596C12.5709 22.2802 12.3841 22.3253 12.3145 22.3154C12.3128 22.3152 12.313 22.3149 12.3117 22.3147C12.3238 22.2862 12.3806 22.2305 12.5158 22.1461C12.7686 21.9882 13.0445 21.6638 13.1322 21.4181C13.162 21.3346 13.208 21.2146 13.13 21.2146C13.1079 21.2146 13.0185 21.249 12.9215 21.2873C12.8292 21.3237 12.6589 21.3538 12.5422 21.3538C12.2482 21.3538 12.0497 21.4229 11.9082 21.5852C11.8488 21.6533 11.7901 21.672 11.7605 21.6667C11.7415 21.6633 11.7187 21.6439 11.7376 21.5774C11.7549 21.5164 11.7686 21.3952 11.769 21.3074C11.7695 21.1999 11.8021 21.1406 11.9387 21.0224L12.1216 20.8642L12.0791 20.797L11.9173 20.8502C11.5803 20.9612 11.2855 21.1936 11.1364 21.4682C11.0094 21.702 10.9952 21.7759 11.0142 22.0917C11.028 22.3222 11.014 22.4669 10.9752 22.5387C10.8943 22.6883 10.5757 22.9577 10.3376 23.0725C10.154 23.161 10.1776 23.1493 10.148 23.097C9.97142 22.7853 9.70517 21.5906 9.71284 21.1392C9.72025 20.705 9.74492 20.6743 9.99142 20.6149C10.1269 20.5823 10.3354 20.4894 10.454 20.4089C10.6792 20.2561 10.9659 20.2299 11.1665 20.3383C11.4957 20.5161 12.1457 20.3586 12.467 20.0355C12.548 19.954 12.6123 19.8927 12.5823 19.8496C12.5495 19.8025 12.4665 19.8464 12.3639 19.8969C12.2091 19.9732 11.9554 19.9817 11.7487 19.9136C11.6608 19.8846 11.6287 19.856 11.6265 19.8482C11.6265 19.8482 11.6684 19.8115 11.819 19.7925C12.1052 19.7564 12.4263 19.5672 12.6411 19.3118C12.7239 19.2134 12.8007 19.1222 12.8007 19.0967C12.8007 19.0471 12.7687 19.0564 12.7585 19.0558C12.7316 19.0542 12.654 19.077 12.5646 19.1061C12.4241 19.1517 12.3613 19.1509 12.1504 19.0942C11.8965 19.0259 11.8595 19.0275 11.6596 19.126C11.5642 19.1729 11.5084 19.1999 11.476 19.2102C11.4762 19.2101 11.4758 19.2102 11.476 19.2102C11.4758 19.2044 11.4751 19.1985 11.4751 19.1904C11.4751 19.1421 11.5252 19.0752 11.7712 18.8355L11.948 18.6635H11.705C11.4734 18.6635 11.1263 18.8434 11.0066 19.0265C10.9496 19.1135 10.8467 19.3285 10.7763 19.5056C10.6068 19.9321 10.4605 20.0988 10.1556 20.2262C10.0104 20.2869 9.87259 20.3333 9.8605 20.3333C9.847 20.3333 9.85642 20.236 10.0936 19.8202C10.3704 19.3352 10.5895 18.8499 10.6868 18.505C10.7616 18.2401 10.8201 18.1676 11.1329 17.9676C11.3523 17.8274 11.3723 17.8226 11.6513 17.8473C12.1268 17.8892 12.3859 17.8373 12.6321 17.6382C12.7171 17.5695 12.7799 17.5076 12.8147 17.4609C12.8889 17.3613 12.8366 17.2934 12.7051 17.3452C12.5527 17.4053 12.2188 17.4518 12.1599 17.4305C12.1134 17.4136 12.113 17.3956 12.1162 17.3878C12.1229 17.3708 12.1555 17.3426 12.2249 17.3282C12.4591 17.2796 12.8988 16.8621 12.8988 16.6727C12.8988 16.6241 12.8702 16.5832 12.809 16.6032C12.7876 16.6101 12.7578 16.6273 12.7231 16.6503C12.6636 16.6897 12.5297 16.7152 12.3567 16.7152C12.0847 16.7152 12.0425 16.7299 11.9051 16.8926C11.8545 16.9525 11.8117 16.9918 11.7808 17.0168C11.7751 16.9916 11.7697 16.9613 11.7697 16.9195C11.7697 16.8105 11.8063 16.7387 11.9468 16.5992L12.2036 16.3442H11.9725C11.7726 16.3442 11.5 16.5324 11.3902 16.7371C11.339 16.8325 11.2771 17.0644 11.2498 17.2548C11.2087 17.5419 11.1801 17.6064 11.0522 17.731C10.9277 17.8524 10.8587 17.8788 10.8521 17.8749C10.8521 17.8749 10.8402 17.8491 10.8574 17.7723C11.0101 17.0869 10.9988 16.7875 10.7983 16.2585C10.6841 15.9569 10.6855 15.9478 10.7539 15.8122C10.7997 15.7215 10.8368 15.5549 10.8365 15.4432C10.8359 15.2264 10.6551 14.8025 10.5103 14.6893C10.4638 14.653 10.3973 14.6276 10.3737 14.7115C10.3609 14.7573 10.3595 14.848 10.3595 15.0101C10.3595 15.33 10.3513 15.3236 10.3037 15.3236C10.2623 15.3236 10.2461 15.3059 10.2461 15.3045C10.2445 15.2538 10.1123 15.0995 9.96434 14.9512L9.64959 14.6356L9.57392 14.8234C9.49942 15.0086 9.55217 15.1819 9.73367 15.3974C9.79475 15.47 9.83367 15.5249 9.85267 15.5635C9.87342 15.6059 9.86842 15.6018 9.84984 15.6018C9.78675 15.6016 9.49175 15.434 9.41342 15.344C9.39034 15.3176 9.36675 15.2899 9.33859 15.2884C9.26525 15.2847 9.28859 15.3667 9.30492 15.438C9.38425 15.7855 9.77775 16.0651 10.22 16.0992C10.6008 16.1287 10.6309 16.1678 10.6254 16.9869C10.6216 17.5432 10.6032 17.6746 10.449 18.243C10.3536 18.5947 10.2612 18.888 10.2578 18.8912C10.2192 18.9277 10.0126 18.834 9.722 18.5772L9.41725 18.3078L9.42159 18.0394C9.42434 17.8703 9.39275 17.6694 9.34509 17.5625C9.276 17.4075 8.87984 16.9653 8.74067 16.876C8.72459 16.8657 8.7005 16.8544 8.68275 16.8544C8.58984 16.8544 8.64867 16.9883 8.69925 17.0859C8.74734 17.1786 8.80075 17.3402 8.81817 17.4455C8.84392 17.6009 8.83392 17.5965 8.81609 17.5965C8.79617 17.5965 8.76192 17.5715 8.74834 17.5312C8.696 17.3753 8.44134 17.2718 8.17318 17.2718C7.99769 17.2718 7.95161 17.2533 7.83085 17.1336L7.57399 16.8788L7.63944 17.1582C7.71178 17.4665 7.88723 17.7231 8.13294 17.8744C8.30179 17.9783 8.34175 18.0361 8.33884 18.0411C8.32819 18.0588 8.22454 18.078 7.99729 18.0689L7.52925 18.0502L7.72058 18.2465C7.95791 18.4899 8.20408 18.5557 8.82542 18.5568L9.36867 18.5578L9.67392 18.811C10.0844 19.1516 10.0977 19.2014 9.96042 19.4069C9.44309 20.1812 9.20109 21.0866 9.343 21.7388C9.39142 21.9613 9.39067 22.0589 9.37917 22.0659C9.37267 22.0698 9.29267 22.0273 9.1285 21.8754C8.77567 21.5487 8.74325 21.4814 8.71392 21.0174C8.677 20.4322 8.47017 20.1212 7.97263 19.9147C7.86985 19.8721 7.7969 19.8446 7.75584 19.8334C7.69024 19.8156 7.62089 19.8454 7.68694 19.9102C7.70059 19.9235 7.72659 19.9427 7.76106 19.9655C7.81145 19.9988 7.87364 20.0867 7.89859 20.1646C7.98849 20.4449 7.98588 20.5857 7.96594 20.596C7.96274 20.5976 7.91244 20.5799 7.8204 20.4715C7.67999 20.3062 7.63328 20.2868 7.39 20.2868C7.07129 20.2868 6.85078 20.2243 6.71661 20.1052L6.53043 19.94V20.1351C6.53043 20.4317 7.00955 20.9495 7.42698 21.1248C7.53928 21.1719 7.61054 21.2343 7.61054 21.2384C7.61054 21.2384 7.61021 21.2381 7.6005 21.2426C7.53098 21.2752 7.31751 21.2648 7.16194 21.1994C6.94986 21.1103 6.71434 21.0398 6.64193 21.0464C6.63159 21.0473 6.61365 21.0512 6.60169 21.0625C6.58329 21.0799 6.58469 21.1029 6.58773 21.1166C6.60779 21.207 6.83755 21.4629 6.97789 21.5563C7.46878 21.8831 7.98511 21.9644 8.4005 21.769L8.58592 21.6818L8.80509 21.8989C8.91059 22.0034 8.99934 22.1011 9.029 22.1431C9.02967 22.144 9.03025 22.145 9.03084 22.1459C9.03142 22.1467 9.03192 22.1474 9.03234 22.1481C9.03275 22.1487 9.03317 22.1494 9.0335 22.1499C9.03375 22.1504 9.03409 22.1509 9.03442 22.1513C9.03459 22.1517 9.03475 22.152 9.03492 22.1523C9.03509 22.1526 9.03484 22.1521 9.03492 22.1523L9.03417 22.1439C9.03417 22.1878 9.15542 22.2852 9.284 22.3778C9.54275 22.5643 9.61934 22.6776 9.62159 22.8428C9.62267 22.923 9.68659 23.1237 9.76142 23.2979C9.89634 23.6119 9.89317 23.5967 9.88084 24.6365C9.87484 25.1375 9.86242 25.547 9.85259 25.6475C9.70475 25.6049 9.15884 25.3302 8.94125 25.1793C8.6795 24.9977 8.39159 24.6557 8.08421 24.1567C7.54388 23.2795 7.17373 22.8512 6.65825 22.5136C6.58255 22.464 6.51734 22.4302 6.47599 22.4172C6.42374 22.4009 6.35724 22.417 6.38098 22.483C6.38808 22.5027 6.40896 22.5306 6.43664 22.5594C6.49693 22.622 6.58734 23.0261 6.63124 23.4944C6.65459 23.7437 6.70745 24.0135 6.75595 24.1021C6.82571 24.2295 6.80979 24.2761 6.7633 24.2761C6.75914 24.2761 6.6274 24.1834 6.48644 24.0574L6.24254 23.8395L6.23544 23.1932C6.22635 22.3666 6.03235 21.35 5.8052 20.9626C5.79034 20.9372 5.77675 20.915 5.76496 20.9017C5.72506 20.8564 5.67761 20.8748 5.65999 20.9272C5.64898 20.96 5.63993 21.0208 5.62661 21.1158C5.58964 21.3798 5.45079 21.7137 5.32926 21.8406C5.27824 21.8938 5.21434 22.0372 5.18111 22.1608C5.14756 22.2856 5.09998 22.3466 5.09599 22.3491C5.09485 22.3484 5.09364 22.3476 5.09223 22.3465C5.05321 22.3173 4.98454 22.2268 4.92359 22.1148L4.79439 21.8775L4.96523 21.625C5.34729 21.0607 5.5371 20.4043 5.53243 19.6676L5.52956 19.2366L5.44819 19.2216L5.36509 19.4125C5.25619 19.6624 5.19295 19.7264 4.93085 19.8519C4.80138 19.9139 4.63486 20.0311 4.56175 20.1132C4.48463 20.1998 4.43234 20.232 4.41116 20.2317C4.38946 20.2314 4.35689 20.1644 4.35689 19.9586C4.35689 19.8187 4.36939 19.796 4.58364 19.6543C4.6735 19.5948 4.74125 19.5313 4.77913 19.4955C5.35584 18.9505 5.4898 18.71 5.70318 18.236C5.78168 18.0568 5.83414 17.9221 5.85778 17.8435C5.87189 17.7965 5.88696 17.7445 5.85059 17.7224C5.79644 17.6895 5.74649 17.7724 5.68685 17.8719C5.56403 18.0769 5.42326 18.1521 5.0692 18.1866C4.92021 18.2011 4.76069 18.2417 4.71823 18.29C4.66315 18.3527 4.55326 18.347 4.55326 18.3061C4.55326 18.2734 4.59579 18.1485 4.65129 18.0266C4.74494 17.8209 4.73724 17.8259 4.9813 17.8021C5.36333 17.7648 5.66915 17.6218 5.99409 17.3318C6.24233 17.1103 6.5641 16.6834 6.56553 16.5503C6.56574 16.5325 6.55419 16.5103 6.53051 16.5032C6.48995 16.4911 6.43448 16.53 6.38465 16.5731C6.24229 16.6962 6.14859 16.7173 5.79206 16.6796C5.52479 16.6514 5.50329 16.6348 5.49569 16.5846C5.49053 16.5505 5.52934 16.4618 5.59176 16.3982L5.69274 16.2954L5.89801 16.3811C6.08761 16.4604 6.20824 16.4769 6.44293 16.4568C6.85469 16.4215 7.34478 16.1907 7.5428 15.9324C7.62239 15.8286 7.69511 15.721 7.69511 15.6858C7.69511 15.6163 7.56204 15.6219 7.45384 15.6357C7.35205 15.6486 7.12414 15.6452 6.94859 15.6274C6.75016 15.6073 6.67039 15.5746 6.66665 15.5608C6.66451 15.5529 6.7149 15.502 6.88679 15.4267C7.04644 15.3568 7.10885 15.3072 7.32439 15.3086C7.46591 15.3533 7.67513 15.4173 7.93549 15.4398C8.35267 15.4692 8.66367 15.3473 8.99259 15.0257C9.24392 14.7799 9.23 14.697 8.96 14.8326C8.82184 14.9021 8.68234 14.912 8.36434 14.8756C8.14086 14.85 8.24314 14.8074 8.67967 14.7443C9.1365 14.6783 9.36409 14.5791 9.50025 14.3866C9.7515 14.0315 8.82617 14.1409 8.4125 14.5153C8.27265 14.642 8.22518 14.662 8.22518 14.5943C8.22518 14.4716 8.363 14.3335 8.57759 14.2413C8.89025 14.107 8.82734 13.9963 8.55492 14.0001Z" fill="#FBC724"/>
</g>
</g>
</g>
<defs>
<clipPath id="clip0_16699_267348">
<rect width="40" height="40" fill="white"/>
</clipPath>
</defs>
</svg>
