<svg width="40" height="40" viewBox="0 0 40 40" fill="none" xmlns="http://www.w3.org/2000/svg">
<g clip-path="url(#clip0_16699_267906)">
<mask id="mask0_16699_267906" style="mask-type:luminance" maskUnits="userSpaceOnUse" x="0" y="0" width="40" height="40">
<path d="M40 0H0V40H40V0Z" fill="white"/>
</mask>
<g mask="url(#mask0_16699_267906)">
<mask id="mask1_16699_267906" style="mask-type:luminance" maskUnits="userSpaceOnUse" x="0" y="0" width="40" height="40">
<path d="M40 20C40 8.95433 31.0457 0 20 0C8.95433 0 0 8.95433 0 20C0 31.0457 8.95433 40 20 40C31.0457 40 40 31.0457 40 20Z" fill="white"/>
</mask>
<g mask="url(#mask1_16699_267906)">
<path d="M-10 0H50V40H-10V0Z" fill="#DA121A"/>
<path d="M-10 0H50V26.6667H-10V0Z" fill="#FCDD09"/>
<path d="M-10 0H50V13.3333H-10V0Z" fill="#078930"/>
<path d="M20.1516 33.2806C27.5153 33.2806 33.4848 27.311 33.4848 19.9473C33.4848 12.5834 27.5153 6.61394 20.1516 6.61394C12.7877 6.61394 6.81818 12.5834 6.81818 19.9473C6.81818 27.311 12.7877 33.2806 20.1516 33.2806Z" fill="#0F47AF"/>
<path d="M20.1503 9.27991L19.683 10.7182L21.6105 16.6504H19.0406L18.7518 17.5393H26.9921L28.2156 16.6504H22.5452L20.1503 9.27991Z" fill="#FCDD09"/>
<path d="M23.0233 15.9913L26.4193 11.3171" stroke="#FCDD09" stroke-width="0.222222"/>
<path d="M30.2972 16.651H28.7849L23.7386 20.3173L22.9445 17.8733H22.0099L24.5563 25.7103L25.7797 26.5992L24.0275 21.2063L30.2972 16.651Z" fill="#FCDD09"/>
<path d="M24.8026 21.4577L30.2976 23.2431" stroke="#FCDD09" stroke-width="0.222222"/>
<path d="M26.4232 28.5763L25.9559 27.138L20.9097 23.4717L22.9887 21.9611L22.6999 21.0723L16.0334 25.9158L15.5661 27.354L20.1535 24.021L26.4232 28.5763Z" fill="#FCDD09"/>
<path d="M20.1542 24.8359V30.6137" stroke="#FCDD09" stroke-width="0.222222"/>
<path d="M13.8802 28.5766L15.1036 27.6877L17.0311 21.7553L19.1102 23.2659L19.8663 22.7166L13.1998 17.8731H11.6875L16.275 21.2061L13.8802 28.5766Z" fill="#FCDD09"/>
<path d="M15.4999 21.4577L10.0049 23.2431" stroke="#FCDD09" stroke-width="0.222223"/>
<path d="M10.0082 16.6507L11.2317 17.5396H17.4692L16.6749 19.9837L17.4312 20.5331L19.9775 12.6961L19.5103 11.2578L17.7579 16.6507H10.0082Z" fill="#FCDD09"/>
<path d="M17.2793 15.992L13.8832 11.3177" stroke="#FCDD09" stroke-width="0.222222"/>
</g>
</g>
</g>
<defs>
<clipPath id="clip0_16699_267906">
<rect width="40" height="40" fill="white"/>
</clipPath>
</defs>
</svg>
