<svg width="40" height="40" viewBox="0 0 40 40" fill="none" xmlns="http://www.w3.org/2000/svg">
<g clip-path="url(#clip0_16699_267941)">
<mask id="mask0_16699_267941" style="mask-type:luminance" maskUnits="userSpaceOnUse" x="0" y="0" width="40" height="40">
<path d="M40 0H0V40H40V0Z" fill="white"/>
</mask>
<g mask="url(#mask0_16699_267941)">
<mask id="mask1_16699_267941" style="mask-type:luminance" maskUnits="userSpaceOnUse" x="0" y="0" width="40" height="40">
<path d="M40 20C40 8.95433 31.0457 0 20 0C8.95433 0 0 8.95433 0 20C0 31.0457 8.95433 40 20 40C31.0457 40 40 31.0457 40 20Z" fill="white"/>
</mask>
<g mask="url(#mask1_16699_267941)">
<path d="M40 20C40 8.95433 31.0457 0 20 0C8.95433 0 0 8.95433 0 20C0 31.0457 8.95433 40 20 40C31.0457 40 40 31.0457 40 20Z" fill="#69B3E7"/>
<path d="M39.8784 6.94662H-0.0976562V33.7234H39.8784V6.94662Z" fill="#012169"/>
<path d="M-0.0976562 6.94662L19.8904 20.335M-0.0976562 20.335L19.8904 6.94662" stroke="white" stroke-width="1.15673"/>
<mask id="mask2_16699_267941" style="mask-type:luminance" maskUnits="userSpaceOnUse" x="-1" y="6" width="25" height="19">
<path d="M-0.103516 6.94792V13.6422H23.2158V20.3363H19.8845L-0.103516 6.94792ZM-0.103516 20.3363V24.7992H9.8905V6.94792H19.8845L-0.103516 20.3363Z" fill="white"/>
</mask>
<g mask="url(#mask2_16699_267941)">
<path d="M-0.103516 6.94792L19.8845 20.3363M-0.103516 20.3363L19.8845 6.94792" stroke="#C8102E" stroke-width="0.77116"/>
</g>
<path d="M9.89633 6.94662V24.7978M-0.0976562 13.6408H23.2217" stroke="white" stroke-width="1.92789"/>
<path d="M9.89633 6.94662V24.7978M-0.0976562 13.6408H23.2217" stroke="#C8102E" stroke-width="1.15673"/>
<path d="M-0.0976562 20.335H19.9496V6.94662H39.9969V33.7234H-0.0976562V20.335Z" fill="#69B3E7"/>
<path d="M24.5919 13.487V22.6021C24.5919 25.5834 29.9785 27.3537 29.9785 27.3537C29.9785 27.3537 35.3651 25.5832 35.3651 22.6021V13.487H24.5919Z" fill="white"/>
<path d="M29.2319 16.6901V20.7943H24.5919V22.2876H29.2319V27.0698L29.9785 27.3541L30.7251 27.0698V22.2876H35.3651V20.7943H30.7251V16.6901H29.2319Z" fill="#C8102E"/>
<path d="M24.5919 13.487H35.3651V17.007H24.5919V13.487Z" fill="#C8102E"/>
<path d="M25.4533 16.1202C25.7876 16.1202 26.0588 15.9022 26.0588 15.633C26.0588 15.3639 25.7876 15.1458 25.4533 15.1458C25.1188 15.1458 24.8478 15.3639 24.8478 15.633C24.8478 15.9022 25.1188 16.1202 25.4533 16.1202Z" fill="white" stroke="black" stroke-width="0.0178444" stroke-miterlimit="3"/>
<path d="M25.4544 15.6523C25.7518 15.6523 25.9928 15.5305 25.9928 15.3802C25.9928 15.2298 25.7518 15.1081 25.4544 15.1081C25.1571 15.1081 24.916 15.2298 24.916 15.3802C24.916 15.5305 25.1571 15.6523 25.4544 15.6523Z" fill="white" stroke="black" stroke-width="0.0178889" stroke-miterlimit="3"/>
<path d="M25.4544 16.196C25.7518 16.196 25.9928 16.0742 25.9928 15.9239C25.9928 15.7736 25.7518 15.6517 25.4544 15.6517C25.1571 15.6517 24.916 15.7736 24.916 15.9239C24.916 16.0742 25.1571 16.196 25.4544 16.196Z" fill="white" stroke="black" stroke-width="0.0178889" stroke-miterlimit="3"/>
<path d="M25.4544 15.9043C25.7518 15.9043 25.9928 15.7825 25.9928 15.6323C25.9928 15.4819 25.7518 15.36 25.4544 15.36C25.1571 15.36 24.916 15.4819 24.916 15.6323C24.916 15.7825 25.1571 15.9043 25.4544 15.9043Z" fill="white" stroke="black" stroke-width="0.0178889" stroke-miterlimit="3"/>
<path d="M35.0983 16.3092L35.0101 16.0658C35.0101 16.0658 34.7686 15.9673 34.7502 15.8391C34.7072 15.4972 34.5852 15.369 34.4022 15.3201C34.2189 15.2713 34.097 15.3507 34.097 15.3507C34.0419 15.4301 33.767 15.4301 33.6144 15.4361C33.4617 15.4423 33.4591 15.3697 33.4591 15.3697C33.3406 15.3707 33.2907 15.2835 33.2907 15.2835C33.2131 15.1285 33.1553 15.0706 33.117 15.0508C33.3151 15.0538 33.4643 14.9625 33.6878 14.7278C33.932 14.4713 34.1063 14.5705 34.1063 14.5705C33.9878 14.81 34.1457 14.7888 34.1457 14.7888C34.4693 14.6242 34.1884 14.2087 34.0907 14.2272C33.9931 14.2453 33.9652 14.1796 33.9652 14.1796C33.9682 14.2542 33.8568 14.2838 33.8568 14.2838C33.9403 13.8095 33.6572 13.6837 33.6572 13.6837C33.6144 13.7263 33.5899 13.8117 33.5899 13.8117C33.5106 14.0988 33.2481 14.0562 32.9548 13.9156C32.6617 13.7752 31.8801 14.0622 31.636 14.1598C31.3915 14.2577 30.9459 14.4103 30.5428 14.1843C30.14 13.9583 30.042 14.0011 29.8833 14.0438C29.7245 14.0866 29.4439 14.1538 29.3401 14.0987C29.2362 14.0438 29.1178 14.0405 29.1178 14.0405C29.1461 14.0247 29.1019 13.9583 29.1019 13.9583C28.9798 13.7936 29.1178 13.6926 29.1178 13.6926C29.1178 13.6926 28.8905 13.7566 28.9809 14.1445L29.0224 14.2027C29.0224 14.2027 29.0529 14.3247 29.1202 14.3615L29.1178 14.3882C29.1178 14.3882 29.1753 14.3613 29.1934 14.4408C29.2119 14.5201 29.2974 14.4468 29.334 14.3798C29.334 14.3798 29.2728 14.734 29.7126 14.8193C29.7126 14.8193 29.6634 14.7643 29.6818 14.7278C29.7001 14.6912 29.627 14.6603 29.6332 14.6056C29.6392 14.5507 29.5234 14.5263 29.6148 14.4833C29.7063 14.4407 29.7493 14.3552 29.9446 14.4712C30.1399 14.5873 30.2927 14.5628 30.2927 14.5628C30.2927 14.5628 30.1736 14.3183 30.2392 14.3186C30.3049 14.3187 30.6002 14.6842 30.7456 14.6662C30.8911 14.6482 31.172 14.4833 31.3125 14.5445C31.3125 14.5445 31.3245 14.4712 31.8618 14.3796C32.3992 14.288 33.0621 14.0202 33.3107 14.2548C33.3107 14.2548 33.3397 14.4407 33.4434 14.4896C33.4434 14.4896 33.4248 14.8742 32.7596 14.6603L32.5183 14.5968C32.5183 14.5968 32.4812 14.4801 31.2159 14.8055C31.2159 14.8055 31.1414 14.8315 31.0926 14.8682C31.0436 14.9047 30.9764 14.8497 30.726 14.9412C30.4759 15.0331 29.5414 15.3385 28.9676 15.2283L28.9669 15.23C28.8405 15.1922 28.7221 15.2117 28.7173 15.1917C28.7111 15.1673 28.7845 15.198 28.7845 15.198C28.7419 15.149 28.7235 15.1451 28.7235 15.1451C28.241 15.0922 28.3263 14.8742 28.3263 14.8742L28.3509 14.9415C28.4303 14.8377 28.3201 14.5935 28.3201 14.5935L28.3155 14.5942C28.3142 14.5867 28.3128 14.5792 28.311 14.572L28.3509 14.5445C28.583 14.349 28.8517 14.3123 28.8517 14.3123C28.6928 14.1171 28.3569 14.2208 28.3569 14.2208C28.3631 13.9827 28.2654 13.7078 28.2654 13.7078C27.9355 13.7446 27.7464 14.0193 27.7464 14.0193C27.7342 13.7751 27.4227 13.6348 27.4227 13.6348C27.5385 13.7751 27.4655 14.1108 27.4655 14.1108L27.4777 14.1171C27.4584 14.1166 27.4471 14.1171 27.4471 14.1171L27.4401 14.1891L27.4287 14.1842C27.4287 14.1842 27.3128 14.2268 27.1785 14.5322C27.1785 14.5322 27.1649 14.6043 27.113 14.6695C27.1126 14.6611 27.1135 14.6533 27.1124 14.6446C27.1124 14.6446 26.9624 14.8412 26.6157 14.6446C26.6157 14.6446 26.1447 14.3652 25.9791 14.3755C25.8136 14.3857 25.7047 14.4635 25.7153 14.51C25.7153 14.51 25.3373 14.4788 25.208 14.6962C25.208 14.6962 24.9235 14.7997 25.1667 15.0327C25.1667 15.0327 25.1993 15.1338 25.2701 15.1881C25.2701 15.1881 25.26 14.9755 25.3116 15.038C25.3116 15.038 25.3249 15.0588 25.3504 15.0736C25.3572 15.1033 25.38 15.1863 25.4305 15.2283L25.467 15.2168C25.4725 15.1638 25.484 15.0968 25.4958 15.0687C25.5013 15.0693 25.5057 15.0701 25.5078 15.0703C25.5062 15.0718 25.5047 15.0727 25.5031 15.0741L25.5704 15.1776L25.6479 15.1362C25.6843 15.1308 25.7308 15.1673 25.7308 15.1673L25.8188 15.0947C25.8182 15.094 25.8177 15.0938 25.8172 15.093C25.9038 15.1075 25.9275 14.9395 25.9275 14.9395C26.0054 14.96 26.0782 14.9371 26.1401 14.8995C26.1779 15.0388 26.4864 15.1882 26.4864 15.1882C26.4864 15.1882 26.4918 15.1877 26.4997 15.1871C26.4736 15.2037 26.4581 15.2163 26.4581 15.2163C26.5984 15.3142 26.8611 15.2897 26.8611 15.2897C26.7512 15.3325 26.7666 15.5357 26.7666 15.5357C26.7024 15.5621 26.6961 15.6255 26.6961 15.6255C26.9099 15.7107 27.0559 15.6402 27.0559 15.6402C27.0677 15.7097 27.0504 15.7171 27.0504 15.7171C26.9649 15.9002 26.9283 16.0773 26.9283 16.0773C26.9302 16.0781 26.9324 16.0786 26.9342 16.0792C26.9316 16.084 26.9283 16.0887 26.9263 16.0936C26.9263 16.0936 26.5537 16.2228 26.3881 16.4041C26.3881 16.4041 26.3725 16.3523 26.3259 16.3523C26.2794 16.3523 26.1344 16.2333 26.0671 16.2126C26 16.192 25.9016 16.2333 25.8757 16.2023C25.8523 16.1741 25.8628 15.9621 25.818 15.928L25.7722 15.7988C25.7412 15.866 25.6118 15.8503 25.6118 15.8503C25.6067 15.8535 25.5868 15.868 25.5587 15.889C25.5328 15.8903 25.5031 15.8815 25.5031 15.8815C25.4899 15.8842 25.4767 15.9215 25.4671 15.9577C25.4619 15.9616 25.4566 15.9656 25.4514 15.9696V15.9333C25.4256 15.9538 25.3739 15.9228 25.3531 15.9228C25.3429 15.9228 25.3304 15.9526 25.3202 15.983C25.2676 15.9928 25.1978 15.9953 25.1978 15.9953C25.1771 16.0057 25.1925 16.1662 25.1925 16.1662C25.0426 16.249 25.1149 16.3731 25.1149 16.3731C25.1978 16.7768 25.886 16.5957 25.9378 16.6475C25.9894 16.6993 26.1086 16.7095 26.1707 16.7095C26.2327 16.7095 26.3102 16.8597 26.3983 16.8752C26.4864 16.8907 26.3984 16.7562 26.8065 16.6587C27.2144 16.5612 27.3504 16.3938 27.3504 16.3938C27.4782 16.3692 27.5138 16.2138 27.5233 16.1512C27.5245 16.1801 27.528 16.2121 27.5326 16.2486C27.551 16.389 27.4539 16.4402 27.4539 16.4402L27.8075 16.3341C27.9478 16.2973 27.9296 16.1752 27.9296 16.1752C28.0639 16.5598 28.3082 16.5842 28.3082 16.5842C28.357 16.4377 28.351 16.395 28.351 16.395L28.4609 16.389C28.4653 16.3062 28.3922 16.2456 28.3499 16.2175L28.5219 16.3217L28.5889 16.3096C28.5889 16.3706 28.6805 16.4255 28.6805 16.4255L28.6929 16.3462C28.7723 16.4501 28.9188 16.4133 28.9188 16.4133C28.9159 16.3948 28.9114 16.3757 28.9059 16.3562C29.2188 16.5495 29.7186 16.3035 29.7186 16.3035C29.8529 16.334 29.8712 16.2546 29.8712 16.2546C30.0239 16.2727 30.0593 16.1685 30.0593 16.1685C30.4185 16.1373 30.6714 15.882 30.6714 15.882C30.8483 15.8697 30.854 15.7433 30.854 15.7433C30.854 15.7433 31.0314 15.7783 31.2025 15.5645C31.5993 14.9967 32.1927 15.2923 32.1927 15.2923L31.8496 15.3141C30.9521 15.308 31.3242 15.9183 31.3242 15.9183L31.3795 15.9125C31.465 15.9307 31.7579 16.1628 31.6499 16.3357C31.6482 16.3387 31.6459 16.3416 31.6439 16.3442C31.4609 16.5947 31.122 16.3558 31.0255 16.1445C30.9276 15.9308 30.7322 15.9798 30.7322 15.9798C30.7322 15.9798 30.2255 16.0653 30.433 16.4683L30.4406 16.4685C30.4444 16.5668 30.5062 16.6788 30.6869 16.7902C30.7884 16.9338 31.1222 16.9488 31.3673 16.8957C31.4814 16.8708 32.0834 16.612 32.0834 16.612C32.1276 16.4808 32.2772 16.5111 32.4115 16.3217C32.5458 16.1326 32.2222 16.0652 32.1489 15.9616C32.0755 15.8577 32.1673 15.8761 32.1673 15.8761C32.4603 16.0348 32.4847 15.528 32.4847 15.528C32.5153 15.821 32.7717 15.9003 32.7717 15.9003C32.9306 15.7417 32.8147 15.4181 32.8147 15.4181C33.1933 16.0958 33.4226 15.988 33.4226 15.988C33.2188 15.8618 33.3214 15.6928 33.3214 15.6928C33.5044 16.4133 34.2557 15.7845 34.2557 15.7845C34.219 15.8882 34.2559 15.9492 34.3229 16.0163C34.39 16.0836 34.4694 16.1141 34.433 16.2363C34.3962 16.3583 34.0484 16.334 34.0484 16.334C34.0484 16.334 33.7062 16.3157 33.737 16.6027C33.7549 16.6697 33.981 16.6942 34.0665 16.676C34.0665 16.676 34.0312 16.6837 34.1576 16.7006C34.2 16.706 34.2511 16.7068 34.3032 16.7052C34.4489 16.7008 34.6041 16.676 34.6041 16.676C34.7992 16.6333 34.7688 16.566 34.7688 16.566C35.0677 16.5108 35.0983 16.3092 35.0983 16.3092Z" fill="#FEDD00" stroke="black" stroke-width="0.0266667" stroke-miterlimit="3"/>
<path d="M25.1787 15.0583C25.1787 15.0583 25.1948 15.0206 25.2249 15.0161C25.2482 15.0127 25.2764 15.0298 25.3062 15.0661L25.3225 15.0538C25.3225 15.0538 25.2419 14.9362 25.2738 14.8541C25.288 14.8173 25.3233 14.7923 25.3785 14.7798L25.374 14.7598C25.3117 14.7741 25.2717 14.8032 25.2547 14.8467C25.2484 14.863 25.2457 14.8801 25.2457 14.8972C25.2457 14.9373 25.2599 14.9781 25.2744 15.0093C25.2563 14.998 25.2387 14.9932 25.2218 14.9958C25.1912 15.0005 25.1762 15.0226 25.1682 15.037L25.1787 15.0583Z" fill="black"/>
<path d="M34.6017 16.6577C34.3977 16.69 34.0982 16.7078 34.0743 16.6462C34.0702 16.6352 34.0694 16.5912 34.2364 16.4825L34.217 16.4525C34.0777 16.5432 34.0215 16.6088 34.041 16.659C34.0837 16.7701 34.5209 16.7067 34.6082 16.6928L34.6017 16.6577Z" fill="black"/>
<path d="M30.6988 16.7757C30.6523 16.7046 30.6732 16.6071 30.7609 16.4858L30.732 16.4648C30.6345 16.5991 30.6133 16.7103 30.6688 16.7953L30.6988 16.7757Z" fill="black"/>
<path d="M30.4258 16.4678C30.4303 16.591 30.5172 16.7052 30.6836 16.8071L30.7023 16.7766C30.5465 16.6813 30.4657 16.577 30.4615 16.4667C30.4554 16.2972 30.6344 16.1666 30.6361 16.1652L30.6153 16.1361C30.6072 16.1417 30.4189 16.2791 30.4258 16.4678Z" fill="black"/>
<path d="M33.9031 16.5133C33.8472 16.596 33.866 16.6961 33.8666 16.7002L33.9017 16.6933C33.9017 16.6933 33.8851 16.6033 33.933 16.5332C33.9616 16.4911 34.008 16.4637 34.0706 16.4517L34.0641 16.4167C33.9916 16.4305 33.9376 16.463 33.9031 16.5133Z" fill="black"/>
<path d="M25.9311 14.9519L25.92 14.9491L25.9185 14.9605C25.9185 14.9605 25.9026 15.07 25.8535 15.0995C25.8397 15.1077 25.8249 15.1086 25.8078 15.1023L25.7243 15.0516C25.7076 15.0369 25.6934 15.0261 25.6693 15.0333C25.6645 15.027 25.6454 15.001 25.6454 14.9593C25.6454 14.9547 25.6457 14.9498 25.6464 14.9448C25.6523 14.8958 25.6864 14.8486 25.7481 14.8046L25.7364 14.7879C25.6695 14.8358 25.6325 14.8876 25.626 14.9426C25.6185 15.0063 25.6554 15.0495 25.657 15.0514L25.6619 15.0571L25.6687 15.054C25.6873 15.0458 25.6927 15.0507 25.7107 15.0667L25.8008 15.1214C25.8237 15.1299 25.8449 15.1283 25.864 15.1169C25.9149 15.0864 25.9327 14.9978 25.9369 14.9731C26.1536 15.0198 26.3281 14.7563 26.3356 14.7449L26.3183 14.7337C26.3168 14.7365 26.1387 15.0063 25.9311 14.9519Z" fill="black"/>
<path d="M25.4113 14.9107C25.4004 14.9546 25.4079 14.9977 25.4329 15.0388C25.4569 15.0778 25.4804 15.0986 25.5049 15.1018C25.5349 15.106 25.5589 15.0838 25.58 15.0643C25.5954 15.0499 25.61 15.0365 25.622 15.0374L25.6407 15.0503L25.6567 15.0375L25.6234 15.017C25.6024 15.0155 25.5849 15.0318 25.5662 15.0493C25.5474 15.0665 25.5282 15.0846 25.5078 15.0817C25.4899 15.0793 25.4708 15.0612 25.4504 15.0281C25.4284 14.9919 25.4217 14.9539 25.431 14.9156C25.4544 14.819 25.5713 14.7472 25.5713 14.7472L25.5608 14.7298C25.5555 14.7328 25.4367 14.8057 25.4113 14.9107Z" fill="black"/>
<path d="M25.1136 16.2915C25.124 16.2541 25.1528 16.2222 25.1989 16.1966C25.1898 16.1974 25.2443 16.2417 25.2909 16.2367C25.2909 16.2367 25.3098 16.2266 25.3213 16.2204C25.3335 16.231 25.4143 16.3046 25.4143 16.3977C25.4143 16.4174 25.4108 16.4375 25.402 16.4579L25.4209 16.4659C25.48 16.3259 25.33 16.2004 25.33 16.2004L25.3245 16.1961L25.3153 16.202L25.2888 16.2164C25.2506 16.2204 25.2005 16.1797 25.2005 16.1797C25.1378 16.207 25.1058 16.2432 25.0939 16.2862L25.1136 16.2915Z" fill="black"/>
<path d="M25.8042 15.9343C25.7596 15.9382 25.6352 15.9618 25.5946 16.0263C25.5801 16.0497 25.5778 16.0756 25.5886 16.1033L25.6048 16.1467C25.6436 16.251 25.6837 16.3586 25.7276 16.383L25.7376 16.3651C25.7002 16.3445 25.6597 16.2357 25.624 16.1397L25.6077 16.0962C25.5993 16.0743 25.6007 16.0551 25.612 16.0372C25.6452 15.9843 25.7571 15.9587 25.806 15.9547C25.8345 15.9525 25.8437 16.0576 25.8493 16.1203L25.8696 16.1186C25.8616 16.026 25.853 15.9302 25.8042 15.9343Z" fill="black"/>
<path d="M25.4626 16.0357C25.4365 16.0591 25.4421 16.0958 25.4421 16.0958C25.4423 16.1054 25.4539 16.3654 25.5774 16.4192L25.5855 16.4006C25.4737 16.3518 25.4625 16.0963 25.4623 16.0937C25.4623 16.0937 25.4586 16.0664 25.4764 16.0508C25.4951 16.0342 25.5323 16.0329 25.584 16.0472L25.5894 16.0276C25.5298 16.0111 25.4872 16.0137 25.4626 16.0357Z" fill="black"/>
<path d="M25.3648 16.0579C25.3103 16.0959 25.3125 16.2044 25.3125 16.209L25.333 16.2086C25.333 16.2086 25.3309 16.1063 25.3765 16.0747C25.3935 16.0629 25.4159 16.0624 25.4433 16.0734L25.4508 16.0545C25.4168 16.0407 25.3878 16.0418 25.3648 16.0579Z" fill="black"/>
<path d="M28.3033 14.6228C28.3042 14.6246 28.3615 14.7537 28.3615 14.8587C28.3615 14.8772 28.3527 14.8905 28.3487 14.9067C28.3463 14.9007 28.3263 14.846 28.3263 14.846L28.309 14.8898C28.3082 14.8923 28.2857 14.9513 28.326 15.018C28.3793 15.1058 28.5122 15.1622 28.7208 15.1851C28.7208 15.1851 28.7233 15.1875 28.7237 15.1878C28.715 15.1891 28.7085 15.1915 28.7065 15.1933L28.6982 15.2005L28.6993 15.2182C28.7047 15.2398 28.7294 15.241 28.7785 15.2428C28.7869 15.2432 28.8004 15.2452 28.8099 15.2457C28.8222 15.2492 28.8347 15.2526 28.8347 15.2526C28.8347 15.2526 28.8312 15.2487 28.8305 15.2477C28.8782 15.2511 28.9317 15.2627 28.9897 15.2845C28.9768 15.2878 28.9454 15.2957 28.9454 15.2957L28.9972 15.3161C29.0009 15.3176 29.3814 15.4705 29.5389 15.5962C29.4942 15.635 29.3034 15.7775 28.9728 15.6961L28.9175 15.6825L28.955 15.7253C28.9573 15.7278 29.1727 15.9748 29.2173 16.1246C29.1423 16.1253 28.8535 16.1227 28.7525 16.037L28.7264 16.0607C28.7278 16.063 28.8649 16.2641 28.8955 16.421C28.8562 16.4262 28.7622 16.43 28.7065 16.3572L28.6809 16.3238C28.6809 16.3238 28.6705 16.3912 28.6669 16.4145C28.6402 16.3942 28.6062 16.3638 28.6062 16.3315V16.3102C28.6062 16.3102 28.5354 16.323 28.5248 16.3248C28.5153 16.3192 28.3982 16.2481 28.3574 16.2235C28.343 16.2142 28.3337 16.2087 28.3305 16.2072C28.3303 16.2071 28.329 16.2062 28.329 16.2062L28.3277 16.2056L28.3104 16.2368C28.3104 16.2368 28.3304 16.2487 28.3362 16.2523C28.3719 16.2757 28.4332 16.3267 28.4394 16.3941C28.413 16.3957 28.3307 16.4001 28.3307 16.4001L28.3327 16.4191V16.4221C28.3327 16.4332 28.3292 16.48 28.2949 16.5856C28.2435 16.5732 28.0563 16.5081 27.9457 16.1912L27.9113 16.1997C27.9114 16.2006 27.9119 16.2047 27.9119 16.2115C27.9119 16.2403 27.9017 16.3127 27.8023 16.3386C27.8017 16.3387 27.6178 16.3941 27.5155 16.4247C27.5347 16.3972 27.5522 16.3597 27.5522 16.3053C27.5522 16.2937 27.5514 16.2813 27.5499 16.2681C27.5437 16.2221 27.54 16.1837 27.54 16.1517C27.54 16.0851 27.5563 16.0452 27.6024 16.0171L27.5864 15.9852C27.582 15.9868 27.1589 16.155 26.9492 16.0852C26.9587 16.0442 26.9942 15.9002 27.0659 15.7467L27.0567 15.7556C27.0703 15.7497 27.0844 15.7282 27.0728 15.6592L27.069 15.6357L27.0475 15.6462C27.0462 15.6467 26.9118 15.7067 26.7178 15.6357C26.7218 15.6197 26.7322 15.5912 26.7727 15.5742L26.7847 15.5695L26.7835 15.5566C26.7835 15.5561 26.783 15.5471 26.783 15.5328C26.783 15.4806 26.7912 15.3578 26.8667 15.3283L26.8587 15.2938C26.8562 15.2942 26.6292 15.3123 26.4917 15.2357C26.5277 15.2108 26.6035 15.1651 26.6918 15.1523L26.7059 15.1502L26.7069 15.1362C26.7072 15.1355 26.7074 15.1312 26.7074 15.1247C26.7074 15.1067 26.7005 15.0705 26.6847 15.034C26.7372 15.0486 26.7998 15.0617 26.8222 15.0451L26.8297 15.0392L26.8232 14.9016L26.7875 14.9032C26.7875 14.9032 26.7918 14.9947 26.7929 15.0172C26.7705 15.0183 26.7134 15.007 26.658 14.9893L26.6032 14.972L26.6385 15.0175C26.6672 15.0542 26.6708 15.1001 26.6713 15.1211C26.5473 15.1441 26.4502 15.2212 26.446 15.2246L26.4277 15.2396L26.447 15.2531C26.5537 15.3273 26.7205 15.3338 26.8062 15.332C26.7557 15.3887 26.7472 15.484 26.7472 15.5316C26.7472 15.5413 26.7475 15.544 26.7477 15.5487C26.687 15.5815 26.6779 15.6428 26.6775 15.6457L26.6762 15.6591L26.6887 15.6642C26.8722 15.7372 26.9972 15.7021 27.0397 15.6862C27.04 15.692 27.0413 15.6997 27.0413 15.7037C27.0413 15.7206 27.0382 15.7257 27.0382 15.7257C26.9482 15.9145 26.9104 16.094 26.9099 16.0957L26.907 16.1105L26.9209 16.1161C27.091 16.1841 27.3967 16.0912 27.5322 16.0435C27.5143 16.0741 27.504 16.1085 27.504 16.1513C27.504 16.1872 27.5083 16.2277 27.5143 16.2727C27.5159 16.2842 27.5165 16.2947 27.5165 16.3048C27.5165 16.4062 27.448 16.4446 27.4448 16.4462L27.4584 16.4792L27.8119 16.3731C27.8937 16.3517 27.9244 16.3035 27.9374 16.2623C28.0769 16.5932 28.2959 16.6231 28.3057 16.6242L28.3199 16.6253L28.3243 16.612C28.3584 16.5102 28.3662 16.4587 28.3677 16.4337C28.3914 16.4327 28.4772 16.4278 28.4772 16.4278L28.4782 16.4118C28.4783 16.4091 28.4783 16.4063 28.4783 16.4037C28.4783 16.3745 28.4692 16.3487 28.4565 16.3253C28.4787 16.3387 28.5177 16.3625 28.5177 16.3625C28.5177 16.3625 28.5582 16.3551 28.5762 16.3517C28.5915 16.4108 28.6617 16.4572 28.6708 16.4628L28.6935 16.4765C28.6935 16.4765 28.7019 16.4227 28.7054 16.3992C28.7927 16.4772 28.9167 16.4541 28.9225 16.4526L28.9382 16.4486L28.9359 16.4327C28.9182 16.3132 28.8379 16.1711 28.7907 16.0951C28.9459 16.1657 29.2285 16.1605 29.2424 16.1601L29.2635 16.1592L29.2593 16.1387C29.2343 16.0132 29.0774 15.8155 29.0118 15.7368C29.3763 15.8053 29.5722 15.6162 29.5805 15.6077L29.5933 15.5941L29.5792 15.5817C29.4567 15.475 29.1742 15.3511 29.0608 15.3037C29.0669 15.3021 29.1005 15.2936 29.1005 15.2936L29.0612 15.2717C28.9664 15.2182 28.8658 15.2117 28.7978 15.2087C28.7547 15.1593 28.7324 15.151 28.7268 15.1497C28.4803 15.1225 28.39 15.0535 28.3572 15.0001C28.3544 14.9957 28.3558 14.9927 28.3538 14.9885C28.3592 14.9813 28.3647 14.9743 28.3647 14.9743C28.3884 14.9433 28.3969 14.902 28.3969 14.8581C28.3969 14.7448 28.3394 14.6156 28.3362 14.6081L28.3033 14.6228Z" fill="black"/>
<path d="M27.1692 14.5499C27.1684 14.5534 27.1422 14.6885 27.0272 14.7518C26.9407 14.7994 26.8262 14.7955 26.6877 14.74L26.672 14.7338L26.6737 14.7505C26.674 14.754 26.6832 14.8333 26.7579 14.8915C26.8202 14.94 26.9094 14.957 27.0212 14.9448C26.9838 14.9892 26.8637 15.1427 26.8637 15.2916C26.8637 15.2994 26.8642 15.3073 26.8649 15.315C26.8802 15.326 27.0684 15.377 27.1557 15.2654C27.1588 15.3133 27.1727 15.4664 27.2323 15.5263C27.2652 15.5589 27.2728 15.6065 27.2728 15.6445C27.2728 15.6788 27.2663 15.7058 27.2663 15.7058L27.2595 15.7331L27.2823 15.7165C27.2895 15.7112 27.4627 15.5845 27.5179 15.4184C27.5179 15.4184 27.5457 15.3768 27.599 15.3596C27.5979 15.3668 27.597 15.3742 27.597 15.3846C27.597 15.4487 27.6252 15.5652 27.8119 15.6366L27.8272 15.6425L27.8258 15.6262C27.8258 15.6262 27.8247 15.613 27.8247 15.5939C27.8247 15.547 27.8312 15.4609 27.8758 15.4163C27.9052 15.3869 27.9139 15.3539 27.9139 15.3252C27.9139 15.3027 27.909 15.2844 27.9039 15.271C27.9417 15.2805 28.0308 15.3093 28.0672 15.3772C28.1198 15.476 28.3043 15.3974 28.3122 15.3941L28.3059 15.3747C28.3059 15.3747 28.2283 15.392 28.1798 15.3588C28.1585 15.3441 28.1457 15.3215 28.1412 15.2916L28.1327 15.189C28.1308 15.1424 28.1243 15.1129 28.101 15.088C28.1254 15.0858 28.1744 15.0867 28.1952 15.1325C28.2277 15.2044 28.3397 15.2114 28.3442 15.2117L28.3825 15.2138L28.3504 15.193C28.3504 15.193 28.2527 15.1282 28.2694 15.0447L28.2833 14.9835C28.3098 14.8733 28.3538 14.6887 28.3179 14.5755L28.2985 14.5817C28.3073 14.61 28.311 14.6435 28.311 14.6793C28.311 14.7797 28.2827 14.899 28.2634 14.9788L28.2493 15.0407C28.2477 15.0488 28.247 15.057 28.247 15.0647C28.247 15.1188 28.2822 15.16 28.3095 15.1849C28.2767 15.1778 28.231 15.1621 28.2138 15.124C28.187 15.0651 28.1148 15.0623 28.0803 15.0693L28.0562 15.0742L28.0768 15.0878C28.1092 15.1095 28.1102 15.1347 28.1125 15.1898L28.1212 15.2946C28.1262 15.3303 28.1422 15.3576 28.1682 15.3756C28.1912 15.3912 28.2178 15.3934 28.2423 15.3951C28.1874 15.4094 28.1123 15.4183 28.0853 15.3676C28.0344 15.2728 27.8947 15.2475 27.8887 15.2464L27.8674 15.2427L27.8782 15.2614C27.8792 15.2635 27.8939 15.2904 27.8939 15.3246C27.8939 15.3489 27.8865 15.3767 27.8614 15.4018C27.8118 15.4518 27.8042 15.5425 27.8042 15.5927C27.8042 15.6025 27.8047 15.6039 27.8048 15.6099C27.645 15.5427 27.6168 15.4432 27.6168 15.3869C27.6168 15.363 27.6214 15.347 27.6222 15.345L27.6267 15.3292L27.6105 15.3319C27.5329 15.3447 27.5007 15.4079 27.4992 15.4106C27.4549 15.5436 27.3344 15.6488 27.2907 15.6839C27.2922 15.6728 27.2937 15.6598 27.2937 15.6441C27.2937 15.6026 27.2847 15.5496 27.247 15.5118C27.1835 15.4483 27.1749 15.2463 27.1749 15.2443L27.1735 15.2078L27.1557 15.2395C27.0854 15.3654 26.8802 15.305 26.8782 15.3044C26.8695 15.1453 27.05 14.9418 27.0519 14.9397L27.0707 14.9187L27.0429 14.9228C26.925 14.9399 26.8335 14.9241 26.7708 14.8757C26.7217 14.8376 26.704 14.7891 26.6977 14.7646C26.8344 14.8156 26.9492 14.8184 27.0374 14.7696C27.1607 14.7015 27.1877 14.5619 27.1888 14.556C27.3183 14.2624 27.4327 14.2157 27.4327 14.2157L27.4255 14.1966C27.4204 14.1983 27.3038 14.2443 27.1692 14.5499Z" fill="black"/>
<path d="M27.4654 14.1153L27.4567 14.1156L27.3517 14.2596L27.3829 14.2627C27.953 14.3182 28.2547 14.6622 28.2575 14.6658L28.2707 14.6811L28.374 14.5687L28.3664 14.5572C28.0773 14.1019 27.4715 14.1151 27.4654 14.1153ZM27.4751 14.1511C27.5456 14.1512 28.065 14.1673 28.328 14.5658C28.3151 14.5797 28.2864 14.6111 28.2711 14.6279C28.2095 14.564 27.9173 14.2909 27.4161 14.232C27.4356 14.2053 27.4679 14.161 27.4751 14.1511Z" fill="black"/>
<path d="M27.3819 14.4163C27.3333 14.4827 27.2879 14.581 27.2879 14.6271C27.2879 14.6359 27.2897 14.6428 27.2934 14.6472L27.296 14.6484C27.2367 14.7017 27.2014 14.7905 27.2014 14.891C27.2014 14.9462 27.211 15.0038 27.2317 15.0586L27.243 15.0895C27.2989 15.2417 27.3472 15.3732 27.5892 15.2958C27.8223 15.2214 27.8314 15.2064 27.89 15.1096L27.9054 15.0846C27.9374 15.0326 27.9724 15.0222 28.0095 15.0111C28.0539 14.9978 28.0999 14.9841 28.1403 14.9044L28.1795 14.8456C28.2219 14.7873 28.2748 14.715 28.281 14.6224L28.2607 14.621C28.2548 14.7076 28.2038 14.7774 28.1629 14.8335L28.122 14.8951C28.0855 14.967 28.0459 14.9788 28.0037 14.9914C27.9644 15.0031 27.924 15.0152 27.8879 15.0738L27.8724 15.099C27.8159 15.1921 27.8088 15.2041 27.5829 15.2764C27.3595 15.3479 27.3188 15.2364 27.2622 15.0825L27.2508 15.0513C27.187 14.8816 27.2369 14.7105 27.3197 14.6491L27.348 14.628C27.348 14.628 27.3129 14.632 27.3087 14.6325C27.3087 14.6325 27.3078 14.6293 27.3078 14.6266C27.3078 14.5989 27.338 14.5106 27.3984 14.4282C27.4499 14.3581 27.5725 14.2879 27.5725 14.2879L27.5624 14.2702C27.5573 14.2732 27.4359 14.3426 27.3819 14.4163Z" fill="black"/>
<path d="M27.2715 15.0292C27.3115 15.0569 27.3678 15.055 27.4356 15.0292C27.436 15.0534 27.4413 15.1047 27.4835 15.142C27.5331 15.1859 27.6153 15.1944 27.728 15.1675L27.7232 15.1477C27.6176 15.1729 27.5415 15.1658 27.4971 15.1268C27.4495 15.0848 27.4563 15.0174 27.4563 15.0174L27.4581 14.9999L27.4419 15.0067C27.3736 15.0362 27.3202 15.0379 27.2831 15.0123C27.2166 14.9661 27.2217 14.844 27.2217 14.844L27.2013 14.8431C27.2012 14.8486 27.1956 14.9765 27.2715 15.0292Z" fill="black"/>
<path d="M27.402 14.8672C27.3728 14.874 27.3652 14.8984 27.3652 14.9173C27.3652 14.9219 27.3657 14.9262 27.3663 14.9298C27.3714 14.9823 27.4284 15.0173 27.4802 15.0323C27.5307 15.0468 27.5925 15.0478 27.617 15.0164C27.6267 15.0038 27.6338 14.9813 27.6125 14.9448C27.5347 14.8125 27.4089 14.8643 27.402 14.8672ZM27.4859 15.0125C27.4407 14.9995 27.3907 14.9702 27.3867 14.9267C27.3857 14.9224 27.3808 14.8931 27.4067 14.887L27.4087 14.8863C27.4133 14.8843 27.5247 14.8358 27.5949 14.9553C27.6074 14.9765 27.6094 14.9928 27.6008 15.0038C27.5857 15.0234 27.5362 15.0273 27.4859 15.0125Z" fill="black"/>
<path d="M27.4718 15.1333C27.4587 15.245 27.4667 15.2478 27.4747 15.2503L27.4818 15.2524L27.4898 15.243L27.5546 15.1577L27.4733 15.1192L27.4718 15.1333ZM27.4905 15.15C27.5021 15.1554 27.5128 15.1605 27.5233 15.1654C27.5145 15.1768 27.4981 15.1985 27.4857 15.2148C27.486 15.198 27.4881 15.1743 27.4905 15.15Z" fill="black"/>
<path d="M27.3051 15.0434L27.3008 15.1491L27.3895 15.0418L27.3056 15.0326L27.3051 15.0434ZM27.325 15.0553C27.3329 15.0563 27.3385 15.0568 27.3496 15.0579C27.3409 15.0683 27.3352 15.0753 27.3236 15.0893C27.3245 15.0729 27.3248 15.0638 27.325 15.0553Z" fill="black"/>
<path d="M27.2461 15.0104C27.2461 15.0104 27.3121 15.1394 27.3236 15.1859C27.3311 15.2154 27.3688 15.2491 27.4137 15.2658C27.4585 15.2826 27.5005 15.2799 27.5319 15.258L27.5908 15.2091C27.6104 15.1902 27.6169 15.1849 27.6328 15.1876L27.6362 15.1675C27.6095 15.163 27.5965 15.1754 27.5767 15.1943L27.5203 15.2413C27.4855 15.2655 27.443 15.2552 27.4208 15.2467C27.3787 15.2311 27.3483 15.201 27.3433 15.1808C27.3311 15.1322 27.2668 15.0067 27.2642 15.0013L27.2461 15.0104Z" fill="black"/>
<path d="M27.3302 14.6271C27.2582 14.6603 27.2277 14.7476 27.2266 14.7513L27.2458 14.758C27.2458 14.758 27.275 14.675 27.3388 14.6456C27.3701 14.6313 27.4051 14.6317 27.4431 14.6467L27.4506 14.6278C27.4073 14.6104 27.3668 14.6102 27.3302 14.6271Z" fill="black"/>
<path d="M27.8146 14.8571C27.8203 14.8613 27.9563 14.9644 27.8781 15.0901L27.8954 15.1009C27.9836 14.9592 27.8268 14.8405 27.8268 14.8405L27.8146 14.8571Z" fill="black"/>
<path d="M27.4045 14.877C27.4045 14.877 27.3833 14.9538 27.4915 14.981C27.4915 14.981 27.3898 14.9801 27.3833 14.9538C27.3765 14.9276 27.3839 14.8694 27.4045 14.877Z" fill="black"/>
<path d="M27.7372 14.9686C27.7372 14.9754 27.7317 14.981 27.7251 14.981C27.7185 14.981 27.7129 14.9754 27.7129 14.9686C27.7129 14.962 27.7185 14.9564 27.7251 14.9564C27.7317 14.9564 27.7372 14.962 27.7372 14.9686Z" fill="black"/>
<path d="M27.7489 15.0173C27.7489 15.0241 27.7434 15.0297 27.7368 15.0297C27.73 15.0297 27.7246 15.0241 27.7246 15.0173C27.7246 15.0107 27.73 15.0052 27.7368 15.0052C27.7434 15.0052 27.7489 15.0108 27.7489 15.0173Z" fill="black"/>
<path d="M27.6664 15.0054C27.6732 15.0054 27.6786 15 27.6786 14.9933C27.6786 14.9866 27.6732 14.9811 27.6664 14.9811C27.6597 14.9811 27.6544 14.9866 27.6544 14.9933C27.6544 15 27.6597 15.0054 27.6664 15.0054Z" fill="black"/>
<path d="M27.7003 15.0658C27.7003 15.0724 27.6948 15.0778 27.6881 15.0778C27.6815 15.0778 27.6761 15.0724 27.6761 15.0658C27.6761 15.059 27.6816 15.0534 27.6881 15.0534C27.6948 15.0534 27.7003 15.0589 27.7003 15.0658Z" fill="black"/>
<path d="M27.3862 14.7402C27.3862 14.7468 27.3808 14.7523 27.3739 14.7523C27.3673 14.7523 27.3617 14.7467 27.3617 14.7402C27.3617 14.7336 27.3673 14.7278 27.3739 14.7278C27.3808 14.7278 27.3862 14.7336 27.3862 14.7402Z" fill="black"/>
<path d="M27.3834 14.801C27.3902 14.801 27.3956 14.7956 27.3956 14.7889C27.3956 14.7822 27.3902 14.7767 27.3834 14.7767C27.3768 14.7767 27.3713 14.7822 27.3713 14.7889C27.3713 14.7956 27.3768 14.801 27.3834 14.801Z" fill="black"/>
<path d="M27.3149 14.7769C27.3217 14.7769 27.327 14.7715 27.327 14.7648C27.327 14.7581 27.3217 14.7526 27.3149 14.7526C27.3082 14.7526 27.3027 14.7581 27.3027 14.7648C27.3027 14.7715 27.3082 14.7769 27.3149 14.7769Z" fill="black"/>
<path d="M27.3468 14.8372C27.3468 14.8438 27.3412 14.8495 27.3344 14.8495C27.3278 14.8495 27.3224 14.8438 27.3224 14.8372C27.3224 14.8305 27.3279 14.8248 27.3344 14.8248C27.3411 14.825 27.3468 14.8305 27.3468 14.8372Z" fill="black"/>
<path d="M27.5586 14.4118C27.5586 14.4118 27.715 14.5081 27.5645 14.6886C27.5645 14.6886 27.6385 14.6337 27.6461 14.5392C27.654 14.4448 27.5924 14.3696 27.5586 14.4118Z" fill="black"/>
<path d="M28.1589 14.6716C28.1087 14.6973 28.0362 14.6495 27.9998 14.6042C27.9637 14.559 27.8888 14.5473 27.8421 14.6301C27.7956 14.7128 27.7283 14.7438 27.7283 14.7438C27.7283 14.7438 27.7939 14.7052 27.8616 14.6327C27.9287 14.5603 27.9676 14.6183 28.0336 14.6533C28.0996 14.6882 28.1098 14.696 28.1563 14.6778L28.1589 14.6716Z" fill="black"/>
<path d="M28.1441 14.6833C28.1236 14.6988 28.0857 14.7117 28.0457 14.6793C28.0057 14.647 27.9721 14.6031 27.9216 14.6289C27.8711 14.6549 27.7754 14.7272 27.7754 14.7272C27.7754 14.7272 27.9306 14.6198 27.9605 14.6431C27.9901 14.6665 28.0601 14.7233 28.1027 14.7066C28.1455 14.6896 28.1441 14.6833 28.1441 14.6833Z" fill="black"/>
<path d="M28.0254 14.7491C27.9763 14.7116 27.9271 14.793 27.8857 14.7828C27.8444 14.7723 27.8106 14.7038 27.8106 14.7038C27.8106 14.7038 27.8496 14.7763 27.9038 14.7594C27.9582 14.7427 27.9958 14.709 28.0293 14.7348C28.0629 14.7608 28.0254 14.7491 28.0254 14.7491Z" fill="black"/>
<path d="M27.9505 14.7592C27.8535 14.7693 27.8439 14.6777 27.8439 14.6777C27.8439 14.6777 27.8745 14.7568 27.9603 14.7425L27.9505 14.7592Z" fill="black"/>
<path d="M27.9485 14.6978C27.955 14.7226 27.9536 14.7339 27.9273 14.7339C27.9008 14.7339 27.8828 14.7251 27.8828 14.6995C27.8828 14.6738 27.9446 14.6818 27.9485 14.6978Z" fill="black"/>
<path d="M27.5991 14.5633C27.5991 14.5803 27.585 14.5941 27.5676 14.5941C27.5502 14.5941 27.5468 14.5823 27.5468 14.5654C27.5468 14.5486 27.5502 14.5326 27.5676 14.5326C27.585 14.5326 27.5991 14.5463 27.5991 14.5633Z" fill="black"/>
<path d="M27.4898 14.4544C27.4898 14.4544 27.6562 14.4562 27.5737 14.6642C27.5737 14.6642 27.6372 14.5607 27.5974 14.4861C27.5575 14.4117 27.4949 14.4305 27.4949 14.4305C27.4949 14.4305 27.4797 14.4446 27.4898 14.4544Z" fill="black"/>
<path d="M27.4863 14.5382C27.4859 14.5798 27.5137 14.6229 27.5688 14.6659L27.5815 14.6499C27.5317 14.6111 27.5064 14.5736 27.5068 14.5386C27.5072 14.5037 27.5343 14.4827 27.5343 14.4827L27.5222 14.4662C27.5222 14.4662 27.4869 14.4929 27.4863 14.5382Z" fill="black"/>
<path d="M27.523 14.5736C27.53 14.5976 27.5486 14.6157 27.5783 14.6275L27.5858 14.6086C27.5624 14.5993 27.5478 14.5856 27.5426 14.568C27.5321 14.5327 27.5608 14.4911 27.5608 14.4911L27.5443 14.4792C27.5427 14.4813 27.5097 14.529 27.523 14.5736Z" fill="black"/>
<path d="M27.7498 14.6888C27.7498 14.6888 27.7808 14.756 27.7357 14.8285C27.6903 14.9009 27.6916 14.8971 27.6916 14.8971C27.6916 14.8971 27.746 14.7975 27.7253 14.756C27.7048 14.7146 27.7498 14.6888 27.7498 14.6888Z" fill="black"/>
<path d="M28.3965 15.3906C28.5672 15.4227 28.9525 15.7247 28.9565 15.7278L28.9786 15.6996C28.9624 15.6871 28.5824 15.3892 28.4031 15.3555L28.3965 15.3906Z" fill="black"/>
<path d="M28.5488 15.8165C28.5602 15.968 28.7252 16.0622 28.7322 16.066L28.7497 16.0349C28.7497 16.0349 28.5945 15.9462 28.5843 15.8138L28.5488 15.8165Z" fill="black"/>
<path d="M28.1389 15.8483C28.1389 16.0183 28.2982 16.2239 28.3049 16.2327L28.333 16.2106C28.3315 16.2087 28.1745 16.006 28.1745 15.8483H28.1389Z" fill="black"/>
<path d="M27.6004 15.8679C27.6284 15.924 27.6254 15.9524 27.6182 15.9663C27.6097 15.982 27.5919 15.9846 27.5919 15.9846L27.596 16.0202C27.6091 16.0186 27.6354 16.0095 27.6494 15.9839C27.6664 15.9527 27.6605 15.9084 27.6324 15.8522L27.6004 15.8679Z" fill="black"/>
<path d="M25.172 15.0285C25.172 15.0285 25.1823 15.1422 25.2703 15.2097C25.2703 15.2097 25.2599 15.0853 25.2858 15.0338C25.2858 15.0338 25.2393 14.982 25.172 15.0285Z" fill="white" stroke="black" stroke-width="0.008" stroke-miterlimit="3"/>
<path d="M25.3477 15.1008C25.3477 15.1008 25.3684 15.2042 25.4306 15.2509L25.4669 15.2406C25.4669 15.2406 25.4824 15.1111 25.5032 15.0957C25.5238 15.0802 25.4152 15.1422 25.3477 15.1008Z" fill="white" stroke="black" stroke-width="0.008" stroke-miterlimit="3"/>
<path d="M25.5039 15.0957L25.5712 15.1992L25.6487 15.1578L25.6333 15.0337C25.6333 15.0337 25.5868 15.0232 25.5039 15.0957Z" fill="white" stroke="black" stroke-width="0.008" stroke-miterlimit="3"/>
<path d="M25.8194 15.1166L25.7314 15.1891C25.7314 15.1891 25.6849 15.1528 25.6486 15.158L25.6641 15.0441C25.6641 15.0441 25.7263 14.9976 25.8194 15.1166Z" fill="white" stroke="black" stroke-width="0.008" stroke-miterlimit="3"/>
<path d="M25.1913 16.1878C25.1913 16.1878 25.1758 16.0273 25.1966 16.017C25.1966 16.017 25.2586 16.0377 25.2845 16.0117C25.2845 16.0117 25.3208 16.1412 25.3104 16.1929C25.3001 16.2446 25.238 16.2241 25.1913 16.1878Z" fill="white" stroke="black" stroke-width="0.008" stroke-miterlimit="3"/>
<path d="M25.5904 16.0221C25.5904 16.0221 25.5852 15.8876 25.6111 15.8719C25.6111 15.8719 25.7404 15.8875 25.7714 15.8203L25.818 15.9496C25.818 15.9496 25.6731 15.9341 25.5904 16.0221Z" fill="white" stroke="black" stroke-width="0.008" stroke-miterlimit="3"/>
<path d="M25.4514 16.0479C25.4514 16.0479 25.4772 15.9083 25.5032 15.9031C25.5032 15.9031 25.5704 15.9237 25.591 15.8978L25.5859 16.0687C25.5859 16.0687 25.591 15.9962 25.4514 16.0479Z" fill="white" stroke="black" stroke-width="0.0077778" stroke-miterlimit="3"/>
<path d="M25.3008 16.0683C25.3008 16.0683 25.3318 15.944 25.3526 15.944C25.3734 15.944 25.4251 15.9751 25.4509 15.9544V16.0476C25.4509 16.0476 25.3369 16.0218 25.3215 16.1769L25.3008 16.0683Z" fill="white" stroke="black" stroke-width="0.0077778" stroke-miterlimit="3"/>
<path d="M27.3183 18.6453C27.3183 18.6453 27.6701 18.9719 27.5781 19.2568C27.5781 19.2568 27.8042 18.7708 27.5614 18.6284C27.3183 18.4861 27.31 18.5952 27.3183 18.6453Z" fill="#00AD50" stroke="black" stroke-width="0.0173333" stroke-miterlimit="4.8"/>
<path d="M26.8755 18.9626C26.8755 18.9626 26.7835 19.0886 26.8839 19.1807C26.8839 19.1807 26.7751 19.3395 26.859 19.4738C26.859 19.4738 26.7919 19.6161 26.8086 19.767C26.8086 19.767 26.7499 20.0013 26.8755 20.1105C26.8755 20.1105 27.0096 20.1775 27.0684 20.1188C27.0684 20.1188 27.1855 19.943 27.1101 19.7585C27.1101 19.7585 27.1939 19.6078 27.1019 19.4151C27.1019 19.4151 27.1269 19.3062 27.0515 19.1807C27.0515 19.1807 27.1019 19.0968 27.0599 19.0298C27.0599 19.0298 26.8924 18.8538 26.8755 18.9626Z" fill="#862633" stroke="black" stroke-width="0.0173333" stroke-miterlimit="4.8"/>
<path d="M26.975 18.553C26.975 18.553 26.5563 17.749 26.263 17.7153C25.9699 17.6818 25.9532 17.3972 25.9532 17.3972C25.9532 17.3972 25.9867 17.5312 26.2213 17.5312C26.4558 17.5312 26.9081 17.8578 26.9584 18.109C27.0085 18.3603 27.0589 18.3269 27.0589 18.3269L26.975 18.553Z" fill="#00AD50" stroke="black" stroke-width="0.0173333" stroke-miterlimit="4.8"/>
<path d="M26.975 18.4941C26.975 18.4941 27.1259 17.4804 27.7879 17.4637C28.4494 17.4467 28.2318 17.5138 28.3908 17.4049C28.3908 17.4049 27.9469 17.6397 27.6704 17.6731C27.3941 17.7066 27.1679 18.2424 27.1763 18.3432C27.1845 18.4437 27.0255 18.6363 26.9501 18.5694C26.8748 18.5023 26.975 18.4941 26.975 18.4941Z" fill="#00AD50" stroke="black" stroke-width="0.0173333" stroke-miterlimit="4.8"/>
<path d="M27.1254 18.8713C27.1254 18.8713 27.2763 18.4692 27.5359 18.6033C27.5359 18.6033 27.3348 18.2178 26.9746 18.5529C26.9746 18.5529 27.1339 18.7707 27.1254 18.8713Z" fill="#00AD50" stroke="black" stroke-width="0.0173333" stroke-miterlimit="4.8"/>
<path d="M26.6213 18.4693C26.6213 18.4693 26.8392 19.3658 26.5041 19.6421C26.5041 19.6421 26.5124 19.1816 26.3114 18.9051C26.1105 18.6285 26.5124 18.3272 26.6213 18.4693Z" fill="#00AD50" stroke="black" stroke-width="0.0173333" stroke-miterlimit="4.8"/>
<path d="M26.6487 18.6288C26.6487 18.6288 27.0424 19.006 27.0677 19.1316C27.0928 19.2572 27.1848 18.7547 27.0007 18.6123C26.8162 18.4698 26.6152 18.4447 26.6152 18.4447L26.6487 18.6288Z" fill="#00AD50" stroke="black" stroke-width="0.0173333" stroke-miterlimit="4.8"/>
<path d="M25.922 19.6168C25.922 19.6168 25.9577 19.7749 26.0548 19.8055C26.0548 19.8055 26.0598 19.9232 26.1467 19.9588C26.1467 19.9588 26.1007 20.0558 26.1774 20.117C26.1774 20.117 26.1619 20.3112 26.2335 20.3522C26.2335 20.3522 26.4073 20.3419 26.4684 20.2907C26.4684 20.2907 26.5042 20.1633 26.4073 20.0353C26.4073 20.0353 26.4225 19.9128 26.3254 19.8465C26.3254 19.8465 26.3562 19.6828 26.2334 19.6217C26.2334 19.6217 26.2132 19.4888 26.1364 19.4225C26.1364 19.4225 25.9884 19.6318 25.922 19.6168Z" fill="#862633" stroke="black" stroke-width="0.0173333" stroke-miterlimit="4.8"/>
<path d="M26.1164 19.4222C26.1164 19.4222 25.6006 19.2333 25.3146 19.504C25.3146 19.504 25.7537 19.5653 25.81 19.6522C25.8661 19.7388 26.1367 19.5092 26.1164 19.4222Z" fill="#00AD50" stroke="black" stroke-width="0.0173333" stroke-miterlimit="4.8"/>
<path d="M25.9592 19.7439C25.9592 19.7439 25.9184 19.7082 25.8674 19.6724C25.8163 19.6367 25.3822 19.5192 25.3208 19.938C25.3208 19.938 25.1624 19.5243 25.3922 19.4681C25.6223 19.4118 25.8061 19.5447 25.9592 19.7439Z" fill="#00AD50" stroke="black" stroke-width="0.0173333" stroke-miterlimit="4.8"/>
<path d="M25.6172 18.888C25.6172 18.888 25.7762 19.2313 25.8349 19.2484C25.8936 19.2649 25.9354 19.2065 25.9354 19.2065C25.9354 19.2065 25.726 18.8965 25.6172 18.888Z" fill="#00AD50" stroke="black" stroke-width="0.0173333" stroke-miterlimit="4.8"/>
<path d="M25.5004 18.3607C25.5004 18.3607 25.3663 17.9168 25.2072 18.0341C25.0481 18.1513 25.0899 18.4695 25.0899 18.4695C25.0899 18.4695 24.7716 18.143 24.9558 17.8832C25.1403 17.6236 25.5004 17.9084 25.5004 18.3607Z" fill="#00AD50" stroke="black" stroke-width="0.0173333" stroke-miterlimit="4.8"/>
<path d="M25.8613 19.2734C25.8613 19.2734 25.8613 19.3571 25.92 19.3822C25.9787 19.4073 26.0875 19.449 26.0875 19.399C26.0875 19.3488 26.0038 19.1561 25.9702 19.1813C25.9367 19.2065 25.8782 19.2062 25.8613 19.2734Z" fill="#862633" stroke="black" stroke-width="0.0173333" stroke-miterlimit="4.8"/>
<path d="M25.76 18.754C25.76 18.754 25.7433 18.3688 25.9944 18.2262C25.9944 18.2262 26.0448 18.2348 26.07 18.1595C26.07 18.1595 25.8687 18.6451 25.9274 18.888L25.9191 18.9216" fill="#00AD50"/>
<path d="M25.76 18.754C25.76 18.754 25.7433 18.3688 25.9944 18.2262C25.9944 18.2262 26.0448 18.2348 26.07 18.1595C26.07 18.1595 25.8687 18.6451 25.9274 18.888L25.9191 18.9216" stroke="black" stroke-width="0.0173333" stroke-miterlimit="4.8"/>
<path d="M25.8107 18.2849C25.8107 18.2849 26.263 17.3466 26.8159 17.6732C26.8159 17.6732 26.238 17.7906 26.0286 18.2011L25.8191 18.5107L25.8107 18.2849Z" fill="#00AD50" stroke="black" stroke-width="0.0173333" stroke-miterlimit="4.8"/>
<path d="M25.5688 18.629C25.5688 18.629 25.4347 18.0007 25.3509 17.9171C25.267 17.8332 25.1247 17.7412 24.957 17.8835C24.957 17.8835 25.2504 17.6237 25.5603 17.8417C25.87 18.0595 25.8032 18.4029 25.8032 18.4029L25.7698 18.8385L25.5603 18.6457" fill="#00AD50"/>
<path d="M25.5688 18.629C25.5688 18.629 25.4347 18.0007 25.3509 17.9171C25.267 17.8332 25.1247 17.7412 24.957 17.8835C24.957 17.8835 25.2504 17.6237 25.5603 17.8417C25.87 18.0595 25.8032 18.4029 25.8032 18.4029L25.7698 18.8385L25.5603 18.6457" stroke="black" stroke-width="0.0173333" stroke-miterlimit="4.8"/>
<path d="M26.0535 19.3735C26.0535 19.3735 25.5006 18.3267 25.1405 19.0721C25.1405 19.0721 25.0733 19.2647 25.1487 19.3399C25.1487 19.3399 24.9476 19.1892 25.0398 18.8207C25.1318 18.4522 25.7433 18.6196 25.9194 18.9212C26.0952 19.2227 26.1456 19.3737 26.1204 19.3902C26.0952 19.4071 26.0535 19.3735 26.0535 19.3735Z" fill="#00AD50" stroke="black" stroke-width="0.0173333" stroke-miterlimit="4.8"/>
<path d="M27.6133 19.6757C27.6133 19.6757 28.0155 18.8463 28.2499 19.2232C28.2499 19.2232 28.3169 19.4074 28.2163 19.483C28.2163 19.483 28.0573 19.2903 27.9149 19.5249C27.7725 19.7593 27.8311 19.7427 27.8311 19.7427C27.8311 19.7427 27.6803 19.7846 27.6133 19.6757Z" fill="#00AD50" stroke="black" stroke-width="0.0173333" stroke-miterlimit="4.8"/>
<path d="M28.2148 19.4831C28.2148 19.4831 28.4327 19.6003 28.3576 19.8348C28.3576 19.8348 28.6504 19.2737 28.2486 19.2233C28.2486 19.2233 28.3241 19.3993 28.2148 19.4831Z" fill="#00AD50" stroke="black" stroke-width="0.0173333" stroke-miterlimit="4.8"/>
<path d="M28.2415 18.9134C28.2415 18.9134 28.7693 19.0641 28.786 19.2905C28.786 19.2905 28.8783 18.8547 28.5766 18.7207C28.5766 18.7207 28.2163 18.7795 28.2415 18.9134Z" fill="#00AD50" stroke="black" stroke-width="0.0173333" stroke-miterlimit="4.8"/>
<path d="M28.4736 18.2181C28.6998 17.7741 28.9846 18.3605 28.9846 18.3605C28.9846 18.3605 29.085 17.8997 28.8004 17.8159C28.5154 17.7322 28.3312 18.7959 28.3312 18.7959L27.9961 18.8712C27.9961 18.8712 28.0883 17.9417 28.5909 17.8577L28.6494 17.8662" fill="#00AD50"/>
<path d="M28.4736 18.2181C28.6998 17.7741 28.9846 18.3605 28.9846 18.3605C28.9846 18.3605 29.085 17.8997 28.8004 17.8159C28.5154 17.7322 28.3312 18.7959 28.3312 18.7959L27.9961 18.8712C27.9961 18.8712 28.0883 17.9417 28.5909 17.8577L28.6494 17.8662" stroke="black" stroke-width="0.0173333" stroke-miterlimit="4.8"/>
<path d="M28.0746 18.4855C28.0746 18.4855 27.7564 17.8322 27.5385 17.7653C27.3207 17.6982 27.656 17.5977 27.79 17.7233C27.9238 17.8488 28.1751 18.0082 28.15 18.3432L28.0746 18.4855Z" fill="#00AD50" stroke="black" stroke-width="0.0173333" stroke-miterlimit="4.8"/>
<path d="M27.7461 19.3819C27.7461 19.3819 27.8382 18.9381 28.0895 18.8039C28.3407 18.6698 28.5753 18.7203 28.5753 18.7203C28.5753 18.7203 28.2737 18.7871 28.2236 18.9381C28.1732 19.0888 28.0895 19.0971 28.0895 19.0971L27.7461 19.3819Z" fill="#00AD50" stroke="black" stroke-width="0.0173333" stroke-miterlimit="4.8"/>
<path d="M27.6111 19.6758C27.6111 19.6758 27.4688 19.9439 27.5021 19.9857C27.5021 19.9857 27.3514 20.2034 27.41 20.3123C27.41 20.3123 27.5608 20.4296 27.6279 20.3793C27.6279 20.3793 27.8035 20.1365 27.7534 20.0024C27.7534 20.0024 27.8706 19.8434 27.8289 19.7429C27.8289 19.7429 27.6531 19.7512 27.6111 19.6758Z" fill="#862633" stroke="black" stroke-width="0.0173333" stroke-miterlimit="4.8"/>
<path d="M26.875 19.1965C26.8844 19.2013 26.969 19.2424 27.0259 19.2234L27.0666 19.1886L27.0346 19.1727C27.0138 19.2141 26.9216 19.18 26.8909 19.1647L26.875 19.1965Z" fill="black"/>
<path d="M26.8604 19.4564L26.8535 19.4914C26.8608 19.4928 27.0308 19.5257 27.1118 19.4537L27.0879 19.4271C27.0203 19.4872 26.8604 19.4564 26.8604 19.4564Z" fill="black"/>
<path d="M26.8159 19.7526L26.7949 19.7815C26.7969 19.783 26.9944 19.9237 27.1208 19.7701L27.0931 19.7474C26.9883 19.8748 26.8229 19.7577 26.8159 19.7526Z" fill="black"/>
<path d="M26.0488 19.795L26.0562 19.8142C26.0633 19.8113 26.2307 19.7441 26.2413 19.6217L26.221 19.6198C26.2114 19.7297 26.0488 19.795 26.0488 19.795Z" fill="black"/>
<path d="M26.1426 19.9479L26.144 19.9683C26.1505 19.9678 26.305 19.9563 26.332 19.8483L26.312 19.8431C26.2887 19.9368 26.1426 19.9479 26.1426 19.9479Z" fill="black"/>
<path d="M26.1769 20.1061L26.1758 20.1267C26.1832 20.127 26.3562 20.1359 26.415 20.0401L26.3975 20.0293C26.3451 20.1149 26.1769 20.1061 26.1769 20.1061Z" fill="black"/>
<path d="M27.4883 19.9979C27.4914 20.0012 27.566 20.0748 27.6531 20.0717C27.6958 20.0701 27.7336 20.0504 27.7656 20.0137L27.7386 19.9902C27.7134 20.0192 27.6842 20.0347 27.652 20.0359C27.5806 20.0386 27.5134 19.9727 27.5134 19.9727L27.4883 19.9979Z" fill="black"/>
<path d="M32.6896 20.61C32.6802 20.6137 32.6708 20.6193 32.6622 20.6283L32.6896 20.61Z" fill="#862633" stroke="black" stroke-width="0.00933335" stroke-miterlimit="4.8"/>
<path d="M33.3053 20.4559C33.2993 20.4407 33.2955 20.447 33.2876 20.4403C33.2763 20.431 33.2698 20.4013 33.26 20.3903C33.2541 20.3835 33.2472 20.3902 33.241 20.3884C33.2266 20.3568 33.2096 20.3233 33.1945 20.2928C33.1967 20.2893 33.1982 20.285 33.1986 20.2785L33.1911 20.2518C33.1867 20.245 33.1798 20.249 33.1757 20.2385C33.1711 20.228 33.1746 20.2073 33.173 20.1949C33.1717 20.1847 33.1676 20.1789 33.1682 20.1643C33.169 20.1518 33.1757 20.137 33.175 20.1259C33.1746 20.1189 33.1665 20.1033 33.164 20.0974C33.1541 20.0735 33.1457 20.0509 33.1446 20.0214C33.1432 19.9948 33.1487 19.9783 33.1507 19.9552C33.1532 19.9273 33.1385 19.9138 33.1385 19.8883C33.1386 19.8685 33.147 19.8464 33.1492 19.8288C33.1526 19.8048 33.1527 19.7698 33.1507 19.7452C33.149 19.7215 33.1422 19.7073 33.146 19.6808C33.147 19.6743 33.1501 19.669 33.1507 19.6598C33.1506 19.6533 33.1506 19.647 33.1506 19.6408V19.6027C33.1506 19.5903 33.1518 19.5763 33.1507 19.5643C33.1496 19.5543 33.1438 19.5438 33.1438 19.5359C33.1438 19.5223 33.1525 19.5159 33.1506 19.4974C33.1495 19.4843 33.1476 19.4812 33.1445 19.4695C33.1386 19.4477 33.1426 19.4254 33.1391 19.402C33.1373 19.3908 33.1337 19.3872 33.1326 19.3743C33.1311 19.3592 33.1358 19.3539 33.1373 19.3433C33.1388 19.3325 33.1405 19.3185 33.1391 19.3073C33.1373 19.2937 33.1308 19.284 33.1326 19.2693L33.1277 19.4373C33.1236 19.2907 33.1176 19.1548 33.1176 19.1548L32.8946 19.0502C32.8946 19.0502 32.8757 19.4597 32.8806 19.5167C32.8851 19.5738 32.9041 19.9644 32.8946 20.012C32.8851 20.0597 32.8616 20.2978 32.8616 20.2978C32.8616 20.2978 32.7526 20.3739 32.7098 20.4595C32.6671 20.5453 32.6766 20.5738 32.6622 20.5738L32.7681 20.5573L32.6892 20.61C32.7056 20.6039 32.7226 20.6053 32.7385 20.6177C32.7402 20.6192 32.7536 20.6293 32.7536 20.6293C32.7576 20.6293 32.7635 20.6187 32.7686 20.6168C32.785 20.6113 32.7988 20.642 32.8143 20.6397C32.8227 20.6384 32.8341 20.6297 32.841 20.6207C32.8466 20.613 32.8488 20.5998 32.8547 20.5948C32.8601 20.5902 32.8735 20.5954 32.8791 20.5954C32.8947 20.5954 32.9106 20.5959 32.9262 20.5954C32.9468 20.5949 32.9636 20.5657 32.9828 20.5492C33.0006 20.5342 33.0137 20.5288 33.0327 20.53C33.0536 20.5315 33.0725 20.551 33.0936 20.5523C33.1097 20.553 33.1208 20.555 33.1338 20.5382C33.1428 20.5264 33.1491 20.5089 33.1576 20.4968L33.2103 20.4887C33.2207 20.4929 33.2315 20.4978 33.2405 20.4974C33.2538 20.4968 33.2677 20.4952 33.2811 20.4973C33.2861 20.4978 33.2961 20.5098 33.3003 20.5068C33.3031 20.5047 33.308 20.4885 33.3108 20.4838C33.3096 20.4773 33.3077 20.4613 33.3053 20.4559Z" fill="#862633" stroke="black" stroke-width="0.00933335" stroke-miterlimit="4.8"/>
<path d="M32.8571 20.6029C32.8706 20.6029 32.8829 20.5998 32.8942 20.6098C32.8961 20.6133 32.8977 20.6168 32.8995 20.6202C32.9032 20.6227 32.907 20.623 32.9106 20.6217C32.9182 20.6268 32.9197 20.6297 32.9281 20.6315C32.9358 20.6333 32.9443 20.6313 32.952 20.6313C32.9618 20.6318 32.9665 20.635 32.9756 20.6388C32.9915 20.6453 33.002 20.6392 33.0158 20.6293C33.0317 20.6174 33.0376 20.6264 33.0529 20.6412C33.0643 20.652 33.062 20.651 33.0723 20.6437C33.0739 20.64 33.0757 20.6367 33.0774 20.6337C33.0826 20.6315 33.0878 20.6302 33.093 20.6293C33.1016 20.6253 33.11 20.6257 33.1181 20.6225C33.1266 20.6193 33.1328 20.6098 33.1417 20.6117C33.1494 20.6132 33.1583 20.6194 33.1657 20.6218C33.1728 20.6243 33.1758 20.6257 33.1818 20.6299C33.1924 20.608 33.2159 20.6015 33.2309 20.5909C33.2465 20.58 33.261 20.5933 33.2782 20.5933C33.2873 20.5933 33.291 20.588 33.2975 20.5859C33.3048 20.5833 33.3131 20.5872 33.3201 20.5843C33.3275 20.5814 33.3289 20.5743 33.337 20.5734C33.3522 20.5715 33.369 20.5963 33.3842 20.6008C33.3926 20.6038 33.432 20.6125 33.4262 20.5837C33.4206 20.556 33.396 20.5752 33.3907 20.5558C33.3878 20.5448 33.3936 20.5293 33.3902 20.5168C33.3873 20.5057 33.3749 20.4927 33.3675 20.4902C33.3582 20.4873 33.3528 20.4969 33.3449 20.4893C33.3384 20.4833 33.336 20.4608 33.3302 20.4518C33.3226 20.4573 33.3179 20.4624 33.3078 20.4604C33.2964 20.4577 33.2975 20.4538 33.289 20.4429C33.2704 20.4198 33.2597 20.4568 33.2426 20.451C33.2296 20.4468 33.2176 20.4142 33.2074 20.4008C33.2019 20.3937 33.1866 20.3707 33.1788 20.3758C33.1655 20.3844 33.1776 20.4094 33.1706 20.4205C33.1657 20.4283 33.1481 20.4203 33.1417 20.4217C33.1317 20.4238 33.1298 20.4264 33.1226 20.4384C33.1079 20.4628 33.0994 20.482 33.0765 20.4793C33.0657 20.478 33.0576 20.467 33.047 20.471C33.0357 20.4753 33.0294 20.4874 33.017 20.4888C33.0081 20.4895 32.9977 20.4898 32.9889 20.4865C32.9803 20.4827 32.9705 20.4664 32.9626 20.4619C32.9593 20.4592 32.9558 20.4585 32.952 20.4599L32.939 20.4525C32.9252 20.4485 32.9264 20.4489 32.9208 20.4672C32.9175 20.4784 32.9163 20.49 32.9121 20.5008C32.9081 20.5097 32.8993 20.5208 32.8942 20.5268C32.8846 20.5372 32.88 20.5343 32.8675 20.5382C32.8574 20.5413 32.8441 20.5569 32.8387 20.5368C32.8307 20.5065 32.861 20.4613 32.8273 20.4693C32.8185 20.4713 32.8132 20.4728 32.8078 20.4858C32.8018 20.5008 32.8066 20.5105 32.804 20.527C32.8004 20.5478 32.761 20.5824 32.7688 20.6013C32.774 20.6143 32.7916 20.5942 32.7964 20.5973C32.8044 20.6029 32.8021 20.616 32.8078 20.6248C32.8198 20.6432 32.8552 20.5967 32.8572 20.6218" fill="#862633"/>
<path d="M32.8571 20.6029C32.8706 20.6029 32.8829 20.5998 32.8942 20.6098C32.8961 20.6133 32.8977 20.6168 32.8995 20.6202C32.9032 20.6227 32.907 20.623 32.9106 20.6217C32.9182 20.6268 32.9197 20.6297 32.9281 20.6315C32.9358 20.6333 32.9443 20.6313 32.952 20.6313C32.9618 20.6318 32.9665 20.635 32.9756 20.6388C32.9915 20.6453 33.002 20.6392 33.0158 20.6293C33.0317 20.6174 33.0376 20.6264 33.0529 20.6412C33.0643 20.652 33.062 20.651 33.0723 20.6437C33.0739 20.64 33.0757 20.6367 33.0774 20.6337C33.0826 20.6315 33.0878 20.6302 33.093 20.6293C33.1016 20.6253 33.11 20.6257 33.1181 20.6225C33.1266 20.6193 33.1328 20.6098 33.1417 20.6117C33.1494 20.6132 33.1583 20.6194 33.1657 20.6218C33.1728 20.6243 33.1758 20.6257 33.1818 20.6299C33.1924 20.608 33.2159 20.6015 33.2309 20.5909C33.2465 20.58 33.261 20.5933 33.2782 20.5933C33.2873 20.5933 33.291 20.588 33.2975 20.5859C33.3048 20.5833 33.3131 20.5872 33.3201 20.5843C33.3275 20.5814 33.3289 20.5743 33.337 20.5734C33.3522 20.5715 33.369 20.5963 33.3842 20.6008C33.3926 20.6038 33.432 20.6125 33.4262 20.5837C33.4206 20.556 33.396 20.5752 33.3907 20.5558C33.3878 20.5448 33.3936 20.5293 33.3902 20.5168C33.3873 20.5057 33.3749 20.4927 33.3675 20.4902C33.3582 20.4873 33.3528 20.4969 33.3449 20.4893C33.3384 20.4833 33.336 20.4608 33.3302 20.4518C33.3226 20.4573 33.3179 20.4624 33.3078 20.4604C33.2964 20.4577 33.2975 20.4538 33.289 20.4429C33.2704 20.4198 33.2597 20.4568 33.2426 20.451C33.2296 20.4468 33.2176 20.4142 33.2074 20.4008C33.2019 20.3937 33.1866 20.3707 33.1788 20.3758C33.1655 20.3844 33.1776 20.4094 33.1706 20.4205C33.1657 20.4283 33.1481 20.4203 33.1417 20.4217C33.1317 20.4238 33.1298 20.4264 33.1226 20.4384C33.1079 20.4628 33.0994 20.482 33.0765 20.4793C33.0657 20.478 33.0576 20.467 33.047 20.471C33.0357 20.4753 33.0294 20.4874 33.017 20.4888C33.0081 20.4895 32.9977 20.4898 32.9889 20.4865C32.9803 20.4827 32.9705 20.4664 32.9626 20.4619C32.9593 20.4592 32.9558 20.4585 32.952 20.4599L32.939 20.4525C32.9252 20.4485 32.9264 20.4489 32.9208 20.4672C32.9175 20.4784 32.9163 20.49 32.9121 20.5008C32.9081 20.5097 32.8993 20.5208 32.8942 20.5268C32.8846 20.5372 32.88 20.5343 32.8675 20.5382C32.8574 20.5413 32.8441 20.5569 32.8387 20.5368C32.8307 20.5065 32.861 20.4613 32.8273 20.4693C32.8185 20.4713 32.8132 20.4728 32.8078 20.4858C32.8018 20.5008 32.8066 20.5105 32.804 20.527C32.8004 20.5478 32.761 20.5824 32.7688 20.6013C32.774 20.6143 32.7916 20.5942 32.7964 20.5973C32.8044 20.6029 32.8021 20.616 32.8078 20.6248C32.8198 20.6432 32.8552 20.5967 32.8572 20.6218" stroke="black" stroke-width="0.00933335" stroke-miterlimit="4.8"/>
<path d="M32.7129 20.4403C32.7128 20.4377 32.7123 20.4352 32.7122 20.4325C32.7027 20.4308 32.692 20.4207 32.6834 20.4206C32.6752 20.4201 32.6593 20.4401 32.6537 20.4496C32.6364 20.4782 32.6412 20.5171 32.6122 20.5165C32.6052 20.5164 32.5884 20.5116 32.5822 20.5159C32.5712 20.5236 32.5782 20.5465 32.5782 20.5621C32.5782 20.5767 32.5848 20.5621 32.577 20.5811C32.5747 20.5863 32.5675 20.5881 32.5656 20.595C32.5598 20.6199 32.5805 20.612 32.5897 20.6117C32.6132 20.6116 32.6364 20.6116 32.6597 20.6117C32.6737 20.612 32.6822 20.6071 32.6953 20.602C32.7039 20.599 32.7223 20.5992 32.7297 20.5915C32.7323 20.5885 32.7408 20.5689 32.742 20.5643C32.7438 20.5547 32.7401 20.5431 32.7424 20.5351C32.7461 20.521 32.7587 20.5264 32.761 20.5074C32.767 20.4609 32.7173 20.4957 32.7252 20.4499" fill="#862633"/>
<path d="M32.7129 20.4403C32.7128 20.4377 32.7123 20.4352 32.7122 20.4325C32.7027 20.4308 32.692 20.4207 32.6834 20.4206C32.6752 20.4201 32.6593 20.4401 32.6537 20.4496C32.6364 20.4782 32.6412 20.5171 32.6122 20.5165C32.6052 20.5164 32.5884 20.5116 32.5822 20.5159C32.5712 20.5236 32.5782 20.5465 32.5782 20.5621C32.5782 20.5767 32.5848 20.5621 32.577 20.5811C32.5747 20.5863 32.5675 20.5881 32.5656 20.595C32.5598 20.6199 32.5805 20.612 32.5897 20.6117C32.6132 20.6116 32.6364 20.6116 32.6597 20.6117C32.6737 20.612 32.6822 20.6071 32.6953 20.602C32.7039 20.599 32.7223 20.5992 32.7297 20.5915C32.7323 20.5885 32.7408 20.5689 32.742 20.5643C32.7438 20.5547 32.7401 20.5431 32.7424 20.5351C32.7461 20.521 32.7587 20.5264 32.761 20.5074C32.767 20.4609 32.7173 20.4957 32.7252 20.4499" stroke="black" stroke-width="0.00933335" stroke-miterlimit="4.8"/>
<path d="M33.2766 19.1474C33.2766 19.2076 33.2354 19.2563 33.1843 19.2563C33.1338 19.2563 33.0921 19.2076 33.0921 19.1474C33.0921 19.0873 33.1338 19.0384 33.1843 19.0384C33.2354 19.0385 33.2766 19.0873 33.2766 19.1474Z" fill="black" stroke="black" stroke-width="0.0173333" stroke-miterlimit="4.8"/>
<path d="M32.9755 19.0126C32.9755 19.0727 32.9343 19.1213 32.8834 19.1213C32.8324 19.1213 32.791 19.0727 32.791 19.0126C32.791 18.9524 32.8324 18.9037 32.8834 18.9037C32.9343 18.9037 32.9755 18.9524 32.9755 19.0126Z" fill="black" stroke="black" stroke-width="0.0173333" stroke-miterlimit="4.8"/>
<path d="M33.1335 19.0548C33.1335 19.1152 33.0922 19.1637 33.0413 19.1637C32.9904 19.1637 32.9492 19.1152 32.9492 19.0548C32.9492 18.9947 32.9904 18.946 33.0413 18.946C33.0922 18.946 33.1335 18.9947 33.1335 19.0548Z" fill="black" stroke="black" stroke-width="0.0173333" stroke-miterlimit="4.8"/>
<path d="M32.9793 19.1538C32.9793 19.214 32.9378 19.2628 32.887 19.2628C32.8361 19.2628 32.7949 19.2139 32.7949 19.1538C32.7949 19.0936 32.8361 19.0449 32.887 19.0449C32.9378 19.0449 32.9793 19.0935 32.9793 19.1538Z" fill="black" stroke="black" stroke-width="0.0173333" stroke-miterlimit="4.8"/>
<path d="M33.1241 19.2371C33.1241 19.2972 33.0825 19.3462 33.0318 19.3462C32.981 19.3462 32.9396 19.2972 32.9396 19.2371C32.9396 19.1769 32.981 19.1283 33.0318 19.1283C33.0825 19.1283 33.1241 19.1769 33.1241 19.2371Z" fill="black" stroke="black" stroke-width="0.0173333" stroke-miterlimit="4.8"/>
<path d="M33.1694 18.0493C33.1694 18.0493 34.0991 16.7511 35.096 18.0997C35.096 18.0997 35.1043 18.2339 35.0123 18.3761L34.987 18.2673L34.9284 18.284L34.9118 18.217L34.8026 18.2087L34.8363 18.0662L34.7189 18.1584L34.7358 18.0578L34.6018 18.192L34.6185 17.9071L34.476 18.15L34.4928 17.9826L34.4425 18.0579L34.4123 17.9603L34.3673 18.0579L34.3001 18.0077V18.0747L34.183 17.9742L34.1411 18.1081L34.0825 17.9659L34.0658 18.0663L34.0069 17.949L33.9988 18.0747L33.8059 17.9909L33.8478 18.1081L33.7558 18.0413L33.7725 18.1081L33.647 18.0831L33.6553 18.1584L33.5213 18.1333L33.5464 18.2002L33.3621 18.1752L33.4288 18.2506L33.4103 18.2813C33.4103 18.2813 34.4174 17.9492 34.4844 19.2055L34.3001 19.2976L34.3504 19.1974L34.3001 19.1637L34.1494 19.0466L34.1913 18.8873L34.1411 18.9041L34.1326 18.812L34.1075 18.8287L34.0488 18.7366L34.0321 18.7702L33.9903 18.6611L33.9483 18.7367L33.9231 18.5523L33.8563 18.6697L33.8478 18.6027L33.8225 18.6446L33.7388 18.544L33.7139 18.611L33.6803 18.5608L33.6553 18.6193L33.563 18.5354V18.6027L33.5045 18.5523L33.4791 18.5858L33.3369 18.5104L33.3283 18.5773L33.253 18.5104L33.2278 18.5773C33.2278 18.5773 34.1411 19.0968 33.8561 19.9429L33.8058 20.0517L33.7893 19.767L33.7055 19.9177L33.7638 19.591L33.7055 19.6496L33.6968 19.5241L33.6218 19.6496L33.5963 19.5073L33.563 19.5492L33.5124 19.3313L33.4706 19.4236L33.4036 19.1806L33.3535 19.2811L33.3199 19.0718L33.2864 19.1974L33.1858 19.0131L33.1693 19.0883L33.1106 18.9376L33.0769 18.988C33.0769 18.988 32.9094 18.9795 32.8593 18.9376C32.809 18.8959 32.6665 19.1891 32.6665 19.1891L32.6833 19.0131L32.6248 19.1302V19.0131L32.5158 19.3648L32.4906 19.1135L32.432 19.3313L32.4068 19.2644L32.3901 19.3566L32.3565 19.323L32.3273 19.4219L32.2728 19.3817V19.5157L32.2225 19.4486L32.1806 19.6497L32.1555 19.5661V19.6581L32.1138 19.608L32.0716 19.8091L32.0131 19.7254L32.0049 19.8676L32.0298 19.9766L31.9628 19.9431L31.9881 20.1188C31.9881 20.1188 31.7283 19.6331 32.0384 19.1639C32.3481 18.6951 32.767 18.5693 32.767 18.5693L32.725 18.5276L32.7166 18.4856L32.4654 18.6112L32.4739 18.5356L32.4068 18.5943L32.3901 18.5106L32.3481 18.586L32.3399 18.5524L32.2811 18.6447L32.2475 18.5106L32.2058 18.6699L32.1663 18.5585L32.0801 18.7953V18.6195L32.0131 18.8039L31.988 18.6028L31.9378 18.8372V18.6278L31.8623 18.8372L31.8121 18.6363L31.7785 18.8288L31.7283 18.6782L31.6779 18.9042L31.6028 18.7032L31.5608 19.0048L31.5106 18.8874L31.5021 19.1052L31.4438 18.9713L31.5021 19.2559L31.4268 19.1471L31.452 19.323L31.3433 19.1303L31.3515 19.3567L31.2928 19.2811L31.2675 19.3649C31.2675 19.3649 31.2426 18.4938 31.8371 18.3261C32.4321 18.1587 32.8174 18.3765 32.8174 18.3765L32.5913 18.1923L32.6163 18.1335H32.5326L32.5661 18.0665L32.3903 18.075L32.4404 18.0079L32.3063 18.0246V17.9828L32.2226 18.0496L32.2561 17.9744L32.1388 18.0496L32.1318 17.9382L32.0718 18.0331L32.0385 17.9325L31.7703 18.2004L31.8458 17.9241L31.7955 17.9828L31.7873 17.9241L31.7118 18.0415L31.6949 17.9576L31.6614 18.0581L31.6363 17.9409L31.5778 18.0581L31.519 17.9494L31.494 18.0918L31.452 18.0163L31.4018 18.1252L31.3348 18.0581L31.3264 18.1252L31.1923 18.0665L31.2259 18.1671L31.1253 18.0833L31.1001 18.2173L31.0416 18.1503L30.9998 18.318L30.9579 18.1587L30.916 18.2844C30.916 18.2844 31.4398 16.9383 32.7651 17.8165C32.7651 17.8165 32.9094 17.9577 32.943 18.0581C32.9765 18.1587 32.9515 18.075 32.9515 18.075L32.9263 17.1452L32.9765 17.5473L33.01 17.4048L33.0018 17.6143L33.1355 17.3211C33.1355 17.3211 32.9765 17.807 33.035 17.9828C33.035 17.9828 33.0938 17.4217 33.295 17.3546L33.1106 17.7566L33.1693 17.7482L33.1273 17.8321H33.1776L33.1168 17.965L33.0854 18.0331L33.1188 18.1001L33.1694 18.0493Z" fill="#00AD50" stroke="black" stroke-width="0.0173333" stroke-miterlimit="4.8"/>
<path d="M33.0312 18.5953L33.0577 18.6192C33.0612 18.6154 33.1442 18.5272 33.2832 18.6447L33.3062 18.6172C33.1399 18.4767 33.0312 18.5953 33.0312 18.5953Z" fill="black"/>
<path d="M32.9891 18.1396L32.9837 18.1718C32.9837 18.1718 33.0315 18.1515 33.0483 18.1443C33.0379 18.1627 33.0039 18.222 33.0039 18.222C33.0039 18.222 33.0742 18.1986 33.1002 18.1899C33.0582 18.245 32.9808 18.3462 32.9808 18.3462L33.0092 18.3682L33.1993 18.1192C33.1993 18.1192 33.1117 18.1485 33.0812 18.1587C33.0935 18.1372 33.1318 18.0695 33.1318 18.0695C33.1318 18.0695 33.0543 18.1029 33.0297 18.1134C33.0365 18.0722 33.0508 17.9857 33.0508 17.9857L33.0155 17.9798L32.9891 18.1396Z" fill="black"/>
<path d="M32.8117 18.1503C32.8117 18.1503 32.8352 18.2023 32.8529 18.2408C32.8452 18.2378 32.7874 18.2146 32.7874 18.2146L32.9806 18.5566C32.9806 18.5566 33.0039 18.5267 33.0054 18.5248C32.9859 18.5748 32.9664 18.6251 32.9664 18.6251L32.9999 18.6382L33.0831 18.4238L33.0524 18.4063C33.0524 18.4063 33.0066 18.4648 32.9852 18.4923C32.9672 18.4601 32.9004 18.3418 32.8685 18.2858C32.8725 18.2873 32.9222 18.3073 32.9222 18.3073C32.9222 18.3073 32.8857 18.2268 32.8687 18.1893C32.8914 18.2034 32.9412 18.2347 32.9412 18.2347V18.1072H32.9055V18.1703C32.8777 18.1528 32.7871 18.0963 32.7871 18.0963L32.8117 18.1503Z" fill="black"/>
<path d="M32.6914 18.5789L32.7056 18.6116C32.758 18.5893 32.8011 18.5855 32.8339 18.6011C32.8722 18.6195 32.8839 18.6594 32.8839 18.6594L32.9183 18.6501C32.9179 18.6478 32.9027 18.5947 32.8498 18.5692C32.8075 18.5488 32.7541 18.552 32.6914 18.5789Z" fill="black"/>
<path d="M32.8106 18.7543L32.8399 18.9416L32.8754 18.936L32.8459 18.7487L32.8106 18.7543Z" fill="black"/>
<path d="M33.0502 18.7679L33.0978 18.9109L33.1318 18.8996L33.0842 18.7565L33.0502 18.7679Z" fill="black"/>
<path d="M33.1576 18.8733L33.1934 19.0162L33.2282 19.0075L33.1923 18.8646L33.1576 18.8733Z" fill="black"/>
<path d="M26.0359 23.3136C26.0359 23.3136 25.8789 23.2423 25.8074 23.2945C25.7359 23.347 25.7457 23.4231 25.6838 23.4183C25.6838 23.4183 25.9217 23.4707 25.9739 23.4087C26.0264 23.347 26.0359 23.3278 26.0359 23.3278" fill="#00AD50"/>
<path d="M26.0359 23.3136C26.0359 23.3136 25.8789 23.2423 25.8074 23.2945C25.7359 23.347 25.7457 23.4231 25.6838 23.4183C25.6838 23.4183 25.9217 23.4707 25.9739 23.4087C26.0264 23.347 26.0359 23.3278 26.0359 23.3278" stroke="black" stroke-width="0.0173333" stroke-miterlimit="4.8"/>
<path d="M26.0655 23.3796C26.0655 23.3796 25.9622 23.5177 25.9979 23.5987C26.0335 23.6797 26.11 23.6866 26.0919 23.7461C26.0919 23.7461 26.1942 23.5249 26.1451 23.4604C26.096 23.3962 26.0796 23.3828 26.0796 23.3828" fill="#00AD50"/>
<path d="M26.0655 23.3796C26.0655 23.3796 25.9622 23.5177 25.9979 23.5987C26.0335 23.6797 26.11 23.6866 26.0919 23.7461C26.0919 23.7461 26.1942 23.5249 26.1451 23.4604C26.096 23.3962 26.0796 23.3828 26.0796 23.3828" stroke="black" stroke-width="0.0173333" stroke-miterlimit="4.8"/>
<path d="M25.8911 22.9967C25.8911 22.9967 25.7262 23.0478 25.7078 23.1342C25.6888 23.2207 25.7468 23.2714 25.6974 23.3091C25.6974 23.3091 25.91 23.1899 25.908 23.1087C25.906 23.0277 25.9007 23.0073 25.9007 23.0073" fill="#00AD50"/>
<path d="M25.8911 22.9967C25.8911 22.9967 25.7262 23.0478 25.7078 23.1342C25.6888 23.2207 25.7468 23.2714 25.6974 23.3091C25.6974 23.3091 25.91 23.1899 25.908 23.1087C25.906 23.0277 25.9007 23.0073 25.9007 23.0073" stroke="black" stroke-width="0.0173333" stroke-miterlimit="4.8"/>
<path d="M25.9875 23.0537C25.9875 23.0537 26.0657 22.8997 26.0165 22.8263C25.9674 22.7523 25.8906 22.7588 25.8982 22.6973C25.8982 22.6973 25.8354 22.9326 25.895 22.9877C25.9546 23.0425 25.9733 23.053 25.9733 23.053" fill="#00AD50"/>
<path d="M25.9875 23.0537C25.9875 23.0537 26.0657 22.8997 26.0165 22.8263C25.9674 22.7523 25.8906 22.7588 25.8982 22.6973C25.8982 22.6973 25.8354 22.9326 25.895 22.9877C25.9546 23.0425 25.9733 23.053 25.9733 23.053" stroke="black" stroke-width="0.0173333" stroke-miterlimit="4.8"/>
<path d="M25.8271 22.9974C25.8271 22.9974 25.8307 22.8252 25.7545 22.7802C25.6782 22.7351 25.6118 22.7738 25.592 22.7148C25.592 22.7148 25.6376 22.9544 25.7151 22.9783C25.7927 23.0018 25.8141 23.0032 25.8141 23.0032" fill="#00AD50"/>
<path d="M25.8271 22.9974C25.8271 22.9974 25.8307 22.8252 25.7545 22.7802C25.6782 22.7351 25.6118 22.7738 25.592 22.7148C25.592 22.7148 25.6376 22.9544 25.7151 22.9783C25.7927 23.0018 25.8141 23.0032 25.8141 23.0032" stroke="black" stroke-width="0.0173333" stroke-miterlimit="4.8"/>
<path d="M26.1101 23.2854C26.1101 23.2854 26.2908 23.2233 26.3052 23.4187C26.3195 23.6137 26.2957 23.5472 26.2957 23.5472C26.2957 23.5472 26.2005 23.3377 26.0958 23.3044L26.1101 23.2854Z" fill="#00AD50" stroke="black" stroke-width="0.0173333" stroke-miterlimit="4.8"/>
<path d="M26.0685 23.3823C26.0685 23.3864 26.0875 23.534 26.0875 23.534L26.1129 23.5307L26.0937 23.3832L26.1556 23.0587L26.1303 23.054L26.0685 23.3823Z" fill="black"/>
<path d="M25.9031 23.3339L25.8947 23.358C25.9811 23.3884 26.1018 23.2934 26.1069 23.2894L26.0909 23.2695C26.0909 23.2695 25.9763 23.3599 25.9031 23.3339Z" fill="black"/>
<path d="M25.7244 22.9393L26.1291 23.1441L26.1452 23.1122L25.7406 22.9076L25.7244 22.9393Z" fill="black"/>
<path d="M25.8109 23.0723L25.8361 23.0975L25.917 23.0167L25.8919 22.9915L25.8109 23.0723Z" fill="black"/>
<path d="M25.8909 22.8724L25.9767 23.0583L26.0091 23.0433L25.9233 22.8574L25.8909 22.8724Z" fill="black"/>
<path d="M26.0958 23.2858L26.0982 23.3216C26.2082 23.3141 26.2352 23.3861 26.2352 23.3861L26.2702 23.3788C26.2662 23.3585 26.2221 23.2773 26.0958 23.2858Z" fill="black"/>
<path d="M27.9497 23.3683C28.0846 23.2927 28.1116 23.0278 28.1116 23.0278C28.0793 23.1253 27.8311 23.2223 27.8311 23.2223C28.0146 23.1088 28.2356 22.5963 28.2356 22.5963C28.1763 22.7799 27.6962 22.9308 27.3886 23.1036C27.0808 23.2762 27.2428 23.7728 27.2428 23.7728C27.1566 23.7133 26.9892 23.4492 26.957 23.2168C26.9243 22.9848 26.8326 22.8933 26.6222 22.8663C26.4116 22.8392 26.2876 23.0766 26.2876 23.0766L25.9747 23.2386L26.293 23.2493C26.293 23.2493 26.5198 23.3249 26.5198 23.5031C26.5198 23.6813 26.3201 24.3934 26.6491 24.7928C26.8781 25.0704 27.7232 25.2298 27.7232 25.2298" fill="white"/>
<path d="M27.9497 23.3683C28.0846 23.2927 28.1116 23.0278 28.1116 23.0278C28.0793 23.1253 27.8311 23.2223 27.8311 23.2223C28.0146 23.1088 28.2356 22.5963 28.2356 22.5963C28.1763 22.7799 27.6962 22.9308 27.3886 23.1036C27.0808 23.2762 27.2428 23.7728 27.2428 23.7728C27.1566 23.7133 26.9892 23.4492 26.957 23.2168C26.9243 22.9848 26.8326 22.8933 26.6222 22.8663C26.4116 22.8392 26.2876 23.0766 26.2876 23.0766L25.9747 23.2386L26.293 23.2493C26.293 23.2493 26.5198 23.3249 26.5198 23.5031C26.5198 23.6813 26.3201 24.3934 26.6491 24.7928C26.8781 25.0704 27.7232 25.2298 27.7232 25.2298" stroke="black" stroke-width="0.0222222" stroke-miterlimit="4.8"/>
<path d="M27.3301 23.9186C27.3301 23.9186 27.3949 23.6001 27.6052 23.611C27.8157 23.6217 27.8752 23.3736 27.9992 23.3358C28.1234 23.2981 28.7656 23.1255 28.8357 22.8177C28.8357 22.8177 28.7764 23.3251 28.1882 23.5787C28.1882 23.5787 28.663 23.4221 28.7171 23.3196C28.7171 23.3196 28.5065 23.7729 27.9939 23.843C27.9939 23.843 28.4741 23.8053 28.5442 23.6759C28.5442 23.6759 28.3284 23.9618 27.9724 23.9997C27.9724 23.9997 28.3015 24.1345 28.3879 24.0212C28.3879 24.0212 28.2097 24.2316 27.9884 24.2477L28.0479 24.2639C28.0479 24.2639 27.8375 24.5123 27.6054 24.3449C27.3734 24.1775 27.3679 24.3882 27.3679 24.3882" fill="white"/>
<path d="M27.3301 23.9186C27.3301 23.9186 27.3949 23.6001 27.6052 23.611C27.8157 23.6217 27.8752 23.3736 27.9992 23.3358C28.1234 23.2981 28.7656 23.1255 28.8357 22.8177C28.8357 22.8177 28.7764 23.3251 28.1882 23.5787C28.1882 23.5787 28.663 23.4221 28.7171 23.3196C28.7171 23.3196 28.5065 23.7729 27.9939 23.843C27.9939 23.843 28.4741 23.8053 28.5442 23.6759C28.5442 23.6759 28.3284 23.9618 27.9724 23.9997C27.9724 23.9997 28.3015 24.1345 28.3879 24.0212C28.3879 24.0212 28.2097 24.2316 27.9884 24.2477L28.0479 24.2639C28.0479 24.2639 27.8375 24.5123 27.6054 24.3449C27.3734 24.1775 27.3679 24.3882 27.3679 24.3882" stroke="black" stroke-width="0.0222222" stroke-miterlimit="4.8"/>
<path d="M27.8092 24.3984C27.8092 24.3984 28.0802 24.8518 28.1073 25.0947C28.1073 25.0947 28.6254 25.6667 28.8196 25.6988C28.8196 25.6988 28.7278 25.7365 28.5605 25.5964C28.5605 25.5964 28.7008 25.7422 28.7278 25.7475C28.7547 25.7532 28.6145 25.7367 28.5928 25.6988C28.5928 25.6988 28.6523 25.7854 28.69 25.7962C28.7278 25.807 28.6523 25.7854 28.6523 25.7854C28.6523 25.7854 28.582 25.7747 28.5497 25.7475C28.5172 25.7207 28.5388 25.8175 28.5388 25.8175C28.5388 25.8175 28.4579 25.7959 28.431 25.769C28.4039 25.7422 28.4418 25.8285 28.4418 25.8285L28.3717 25.8123L28.3231 25.8445C28.3231 25.8445 28.3177 25.877 28.2851 25.85C28.253 25.8233 28.1935 25.85 28.1935 25.85C28.1935 25.85 28.1502 25.8878 28.1287 25.8608C28.1073 25.8339 28.0255 25.9647 28.0255 25.9647L27.6857 25.1444" fill="white"/>
<path d="M27.8092 24.3984C27.8092 24.3984 28.0802 24.8518 28.1073 25.0947C28.1073 25.0947 28.6254 25.6667 28.8196 25.6988C28.8196 25.6988 28.7278 25.7365 28.5605 25.5964C28.5605 25.5964 28.7008 25.7422 28.7278 25.7475C28.7547 25.7532 28.6145 25.7367 28.5928 25.6988C28.5928 25.6988 28.6523 25.7854 28.69 25.7962C28.7278 25.807 28.6523 25.7854 28.6523 25.7854C28.6523 25.7854 28.582 25.7747 28.5497 25.7475C28.5172 25.7207 28.5388 25.8175 28.5388 25.8175C28.5388 25.8175 28.4579 25.7959 28.431 25.769C28.4039 25.7422 28.4418 25.8285 28.4418 25.8285L28.3717 25.8123L28.3231 25.8445C28.3231 25.8445 28.3177 25.877 28.2851 25.85C28.253 25.8233 28.1935 25.85 28.1935 25.85C28.1935 25.85 28.1502 25.8878 28.1287 25.8608C28.1073 25.8339 28.0255 25.9647 28.0255 25.9647L27.6857 25.1444" stroke="black" stroke-width="0.0222222" stroke-miterlimit="4.8"/>
<path d="M27.7032 25.0685L28.1327 25.886L28.1777 25.8623L27.7484 25.0449L27.7032 25.0685Z" fill="black"/>
<path d="M27.7714 25.0081L28.506 25.8307L28.5443 25.7966L27.8094 24.974L27.7714 25.0081Z" fill="black"/>
<path d="M27.8356 24.9774L28.674 25.7587L28.7088 25.7214L27.8704 24.9401L27.8356 24.9774Z" fill="black"/>
<path d="M26.5744 23.1274C26.5744 23.1274 26.5197 23.0294 26.4719 23.0662C26.4244 23.1029 26.397 23.1096 26.3889 23.1071C26.3889 23.1071 26.4367 23.1097 26.4639 23.0839C26.491 23.0579 26.5374 23.0743 26.5744 23.1274Z" fill="black"/>
<path d="M26.2769 23.0832L26.3074 23.1463C26.3044 23.1466 26.2734 23.2467 26.2734 23.2467L26.298 23.2542L26.3314 23.1452C26.3308 23.1358 26.3 23.0723 26.3 23.0723L26.2769 23.0832Z" fill="black"/>
<path d="M26.5609 23.112C26.5609 23.112 26.5202 23.1598 26.4643 23.146C26.4085 23.1324 26.4085 23.1324 26.4085 23.1324C26.4085 23.1324 26.4559 23.1351 26.4874 23.1366C26.5187 23.1379 26.5594 23.1216 26.5609 23.112Z" fill="black"/>
<path d="M26.5474 23.1223C26.5474 23.1223 26.4972 23.0693 26.4631 23.0843C26.4631 23.0843 26.5231 23.065 26.5571 23.1166L26.5474 23.1223Z" fill="black"/>
<path d="M26.54 23.1125C26.54 23.1125 26.4827 23.1518 26.4201 23.1085L26.4161 23.1055L26.4244 23.1028C26.4244 23.1028 26.5034 23.1356 26.54 23.1125Z" fill="black"/>
<path d="M26.492 23.1203C26.5015 23.1203 26.5091 23.1127 26.5091 23.1032C26.5091 23.0937 26.5015 23.0859 26.492 23.0859C26.4825 23.0859 26.4747 23.0937 26.4747 23.1032C26.4747 23.1127 26.4825 23.1203 26.492 23.1203Z" fill="black"/>
<path d="M26.5377 24.61C26.5377 24.61 26.4933 24.6915 26.5164 24.7407C26.5399 24.7897 26.6449 24.815 26.6589 24.8804C26.673 24.946 26.708 24.9458 26.757 24.9367C26.8062 24.9272 26.8154 24.9249 26.8154 24.9249C26.8154 24.9249 26.6099 24.815 26.5562 24.6378L26.5377 24.61Z" fill="black"/>
<path d="M33.1793 22.9492C33.1793 22.9492 33.5535 22.4559 33.8851 22.5855C34.217 22.7151 34.4326 22.7775 34.4326 22.7775C34.4326 22.7775 34.4388 23.1097 34.2625 23.1097C34.0865 23.1097 33.9176 22.7779 33.7572 22.8766C33.5966 22.975 33.4646 23.1099 33.4542 23.1564C33.4438 23.203 33.0292 23.2134 33.1793 22.9492Z" fill="#862633" stroke="black" stroke-width="0.0106666" stroke-miterlimit="4.8"/>
<path d="M31.7583 25.3279C31.7583 25.3279 31.6549 25.4366 31.7015 25.4627C31.7484 25.4885 31.8414 25.4572 31.8414 25.4211C31.8413 25.3846 31.7794 25.3176 31.7583 25.3279Z" fill="#862633" stroke="black" stroke-width="0.0173333" stroke-miterlimit="4.8"/>
<path d="M31.6774 25.431C31.6774 25.431 31.4859 25.3219 31.3354 25.5811C31.1849 25.8402 31.0607 26.2601 30.9726 26.3171C30.8845 26.3741 31.8279 25.9025 31.8382 25.7056C31.8382 25.7056 31.9002 25.4516 31.8019 25.4566C31.7034 25.4621 31.6981 25.4725 31.6774 25.431Z" fill="#862633" stroke="black" stroke-width="0.0173333" stroke-miterlimit="4.8"/>
<path d="M31.7028 25.4622C31.7028 25.4622 31.5059 25.5085 31.4645 25.7883C31.423 26.0684 31.1483 26.2134 31.1328 26.2237" fill="#862633"/>
<path d="M31.7028 25.4622C31.7028 25.4622 31.5059 25.5085 31.4645 25.7883C31.423 26.0684 31.1483 26.2134 31.1328 26.2237" stroke="black" stroke-width="0.0106666" stroke-miterlimit="4.8"/>
<path d="M34.4315 22.7773C34.4315 22.7773 34.132 22.8816 34.1837 23.0889L34.4315 22.7773Z" fill="#862633"/>
<path d="M34.4315 22.7773C34.4315 22.7773 34.132 22.8816 34.1837 23.0889" stroke="black" stroke-width="0.0106666" stroke-miterlimit="4.8"/>
<path d="M32.1349 23.3844C32.1349 23.3844 32.1452 22.6743 32.7253 22.7054C32.8352 22.7156 32.7828 22.8452 32.7828 22.8452C32.7828 22.8452 32.9083 22.7573 32.9656 22.897C32.9656 22.897 33.1486 22.8142 33.1694 22.9956C33.1694 22.9956 33.368 22.9698 33.3418 23.1303C33.3418 23.1303 33.4776 23.0993 33.4726 23.2133C33.4726 23.2133 33.6293 23.1511 33.6135 23.3118C33.6135 23.3118 33.786 23.1978 33.76 23.405C33.76 23.405 33.9377 23.2807 34.0001 23.488C34.0629 23.6952 33.8226 24.1357 33.5874 24.2497" fill="#FEDD00"/>
<path d="M32.1349 23.3844C32.1349 23.3844 32.1452 22.6743 32.7253 22.7054C32.8352 22.7156 32.7828 22.8452 32.7828 22.8452C32.7828 22.8452 32.9083 22.7573 32.9656 22.897C32.9656 22.897 33.1486 22.8142 33.1694 22.9956C33.1694 22.9956 33.368 22.9698 33.3418 23.1303C33.3418 23.1303 33.4776 23.0993 33.4726 23.2133C33.4726 23.2133 33.6293 23.1511 33.6135 23.3118C33.6135 23.3118 33.786 23.1978 33.76 23.405C33.76 23.405 33.9377 23.2807 34.0001 23.488C34.0629 23.6952 33.8226 24.1357 33.5874 24.2497" stroke="black" stroke-width="0.0106666" stroke-miterlimit="4.8"/>
<path d="M33.7474 23.4275C33.7483 23.4331 33.8257 23.983 33.5139 24.1842L33.5249 24.2016C33.8479 23.9931 33.7684 23.4302 33.7678 23.4245L33.7474 23.4275Z" fill="black"/>
<path d="M33.3731 24.0296L33.3874 24.0442C33.5849 23.8521 33.6274 23.3342 33.6289 23.3123L33.6088 23.3106C33.6083 23.3161 33.5654 23.8427 33.3731 24.0296Z" fill="black"/>
<path d="M33.1875 23.9062L33.2079 23.9078C33.2333 23.588 33.4832 23.2223 33.4859 23.2185L33.469 23.207C33.4664 23.2108 33.2134 23.5809 33.1875 23.9062Z" fill="black"/>
<path d="M33.0432 23.8135L33.0634 23.8155C33.099 23.4298 33.3538 23.1401 33.3563 23.1374L33.3412 23.1237C33.3385 23.1266 33.0793 23.4209 33.0432 23.8135Z" fill="black"/>
<path d="M32.8419 23.6841L32.8622 23.6848C32.8824 23.2293 33.1814 23.0057 33.1844 23.0035L33.1721 22.987C33.1694 22.9892 32.8625 23.2182 32.8419 23.6841Z" fill="black"/>
<path d="M32.6548 23.5714L32.6753 23.5708C32.6604 23.1563 32.9791 22.908 32.9824 22.9055L32.9701 22.8893C32.9668 22.8919 32.6396 23.1463 32.6548 23.5714Z" fill="black"/>
<path d="M32.3185 23.4191L32.3387 23.4216C32.3942 22.9729 32.7936 22.8561 32.7976 22.855L32.7921 22.8353C32.7881 22.8364 32.3755 22.9566 32.3185 23.4191Z" fill="black"/>
<path d="M31.7923 24.2447C31.7923 24.2447 31.694 23.5863 32.0878 23.3792C32.0878 23.3792 32.1605 23.3637 32.2018 23.4569C32.2018 23.4569 32.4093 23.3689 32.4144 23.5448C32.4144 23.5448 32.5179 23.462 32.5439 23.5759C32.5439 23.5759 32.7668 23.5294 32.7253 23.6952C32.7253 23.6952 32.9118 23.6434 32.8963 23.8039C32.8963 23.8039 33.0829 23.7367 33.0516 23.8765C33.0516 23.8765 33.2485 23.83 33.202 23.9907C33.202 23.9907 33.4456 23.9648 33.3731 24.1357C33.3731 24.1357 33.5544 24.0892 33.5129 24.2292C33.5129 24.2292 33.7513 24.2707 33.6424 24.4208C33.5336 24.571 33.2589 24.799 32.9898 24.8975" fill="#00AD50"/>
<path d="M31.7923 24.2447C31.7923 24.2447 31.694 23.5863 32.0878 23.3792C32.0878 23.3792 32.1605 23.3637 32.2018 23.4569C32.2018 23.4569 32.4093 23.3689 32.4144 23.5448C32.4144 23.5448 32.5179 23.462 32.5439 23.5759C32.5439 23.5759 32.7668 23.5294 32.7253 23.6952C32.7253 23.6952 32.9118 23.6434 32.8963 23.8039C32.8963 23.8039 33.0829 23.7367 33.0516 23.8765C33.0516 23.8765 33.2485 23.83 33.202 23.9907C33.202 23.9907 33.4456 23.9648 33.3731 24.1357C33.3731 24.1357 33.5544 24.0892 33.5129 24.2292C33.5129 24.2292 33.7513 24.2707 33.6424 24.4208C33.5336 24.571 33.2589 24.799 32.9898 24.8975" stroke="black" stroke-width="0.0106666" stroke-miterlimit="4.8"/>
<path d="M31.5813 24.908C31.5813 24.908 31.4205 24.3589 31.7265 24.2188C31.7265 24.2188 31.7833 24.2032 31.7937 24.2603C31.7937 24.2603 31.8612 24.1722 31.913 24.2499C31.913 24.2499 32.0683 24.1774 32.1048 24.2913C32.1048 24.2913 32.2083 24.2032 32.2603 24.3327C32.2603 24.3327 32.3588 24.2913 32.3588 24.3949C32.3588 24.3949 32.4934 24.3378 32.4934 24.4623C32.4934 24.4623 32.6228 24.4105 32.597 24.5503C32.597 24.5503 32.794 24.5814 32.737 24.6747C32.737 24.6747 32.9134 24.7212 32.8458 24.7939C32.8458 24.7939 33.0374 24.7733 32.9338 24.9028C32.9338 24.9028 33.0789 24.8563 32.9962 25.0169C32.9132 25.1775 32.6542 25.3537 32.4728 25.3743" fill="#00AD50"/>
<path d="M31.5813 24.908C31.5813 24.908 31.4205 24.3589 31.7265 24.2188C31.7265 24.2188 31.7833 24.2032 31.7937 24.2603C31.7937 24.2603 31.8612 24.1722 31.913 24.2499C31.913 24.2499 32.0683 24.1774 32.1048 24.2913C32.1048 24.2913 32.2083 24.2032 32.2603 24.3327C32.2603 24.3327 32.3588 24.2913 32.3588 24.3949C32.3588 24.3949 32.4934 24.3378 32.4934 24.4623C32.4934 24.4623 32.6228 24.4105 32.597 24.5503C32.597 24.5503 32.794 24.5814 32.737 24.6747C32.737 24.6747 32.9134 24.7212 32.8458 24.7939C32.8458 24.7939 33.0374 24.7733 32.9338 24.9028C32.9338 24.9028 33.0789 24.8563 32.9962 25.0169C32.9132 25.1775 32.6542 25.3537 32.4728 25.3743" stroke="black" stroke-width="0.0106666" stroke-miterlimit="4.8"/>
<path d="M31.771 25.3434C31.771 25.3434 31.429 25.0118 31.5899 24.9134C31.5899 24.9134 31.6623 24.9339 31.6883 25.0066C31.6883 25.0066 31.771 24.8874 31.8178 25.0118C31.8178 25.0118 31.9423 24.9703 31.9423 25.0534L32.0406 25.126C32.0406 25.126 32.1548 25.1155 32.1341 25.1881C32.1341 25.1881 32.2584 25.1725 32.2533 25.2399C32.2533 25.2399 32.3621 25.245 32.3518 25.3174C32.3518 25.3174 32.5381 25.3485 32.4553 25.442C32.4553 25.442 32.1288 25.5093 31.9008 25.4161C31.9008 25.4161 31.7814 25.3745 31.771 25.3434Z" fill="#00AD50" stroke="black" stroke-width="0.0106666" stroke-miterlimit="4.8"/>
<path d="M32.9474 24.7947L32.9547 24.8137C33.1573 24.7357 33.5093 24.2552 33.5243 24.2348L33.5077 24.2227C33.504 24.2277 33.1444 24.7188 32.9474 24.7947Z" fill="black"/>
<path d="M32.8303 24.7066L32.8402 24.7244C33.0165 24.626 33.3677 24.161 33.3824 24.1412L33.3662 24.1289C33.3627 24.1339 33.0028 24.6104 32.8303 24.7066Z" fill="black"/>
<path d="M32.7307 24.6664L32.7438 24.682C32.93 24.5274 33.2012 24.0169 33.2127 23.9952L33.1947 23.9857C33.1919 23.9909 32.9137 24.5142 32.7307 24.6664Z" fill="black"/>
<path d="M32.6428 24.5483L32.6629 24.5512C32.6983 24.293 33.0609 23.8868 33.0644 23.8828L33.0493 23.8692C33.0343 23.886 32.6788 24.2842 32.6428 24.5483Z" fill="black"/>
<path d="M31.9142 24.2347L31.9346 24.2329C31.9042 23.8684 32.2094 23.4668 32.2125 23.4628L32.1962 23.4505C32.1931 23.4544 31.8832 23.8621 31.9142 24.2347Z" fill="black"/>
<path d="M32.1071 24.2666L32.1274 24.2631C32.0769 23.9707 32.4221 23.5551 32.4256 23.5511L32.41 23.5378C32.3955 23.5551 32.0552 23.9647 32.1071 24.2666Z" fill="black"/>
<path d="M32.4026 24.3744L32.423 24.3738C32.413 24.0403 32.7331 23.7058 32.7364 23.7023L32.7217 23.6882C32.7185 23.6916 32.3922 24.0323 32.4026 24.3744Z" fill="black"/>
<path d="M31.6974 24.9787L31.7167 24.9715C31.6003 24.6632 31.8022 24.2685 31.8043 24.2646L31.7858 24.2552C31.7838 24.2592 31.5779 24.6618 31.6974 24.9787Z" fill="black"/>
<path d="M31.8298 24.9987L31.8493 24.9923C31.7479 24.6783 31.9197 24.2574 31.9215 24.2533L31.9026 24.2454C31.9009 24.2496 31.7263 24.6775 31.8298 24.9987Z" fill="black"/>
<path d="M32.3889 25.3125L32.3959 25.3317C32.7264 25.2129 32.9427 24.9113 32.9449 24.9084L32.9282 24.8965C32.9262 24.8995 32.7137 25.196 32.3889 25.3125Z" fill="black"/>
<path d="M32.3203 25.2399L32.3286 25.2586C32.5924 25.1396 32.8383 24.8076 32.8406 24.8042L32.8242 24.7923C32.8217 24.7956 32.5791 25.1231 32.3203 25.2399Z" fill="black"/>
<path d="M32.2562 25.2148L32.2681 25.2314C32.4744 25.082 32.7394 24.6989 32.7422 24.695L32.7254 24.6836C32.7227 24.6874 32.4597 25.0675 32.2562 25.2148Z" fill="black"/>
<path d="M31.9227 25.0229L31.9429 25.02C31.8973 24.6905 32.1106 24.2996 32.1129 24.2958L32.095 24.2858C32.0927 24.2899 31.8762 24.6867 31.9227 25.0229Z" fill="black"/>
<path d="M32.0685 25.112L32.0822 25.1272C32.295 24.9351 32.3675 24.4172 32.3704 24.3954L32.3502 24.3926C32.3495 24.3979 32.2758 24.9251 32.0685 25.112Z" fill="black"/>
<path d="M32.2129 25.1739L32.2248 25.1904C32.5251 24.9732 32.6066 24.556 32.6073 24.552L32.5873 24.5482C32.5865 24.5522 32.5066 24.9612 32.2129 25.1739Z" fill="black"/>
<path d="M32.2485 24.2751C32.2485 24.2946 32.2494 24.314 32.2513 24.3337L32.0234 25.0707L32.0429 25.0767L32.2714 24.3356C32.236 23.9773 32.5512 23.5863 32.5543 23.5825L32.5385 23.5697C32.5354 23.5732 32.2485 23.9293 32.2485 24.2751Z" fill="black"/>
<path d="M32.4879 24.4553C32.4849 24.4657 32.4157 24.9717 32.1428 25.1583L32.1543 25.1752C32.4349 24.9832 32.5032 24.4843 32.5058 24.4633C32.6269 24.3192 32.906 23.8138 32.9089 23.8087L32.8909 23.7988C32.8882 23.8039 32.6102 24.3078 32.4879 24.4553Z" fill="black"/>
<path d="M31.6816 25.0082C31.6837 25.0187 31.7293 25.2702 31.7815 25.3588L31.7991 25.3486C31.7486 25.2629 31.7024 25.0072 31.7019 25.0046L31.6816 25.0082Z" fill="black"/>
<path d="M31.8107 25.0106C31.8129 25.1358 31.8136 25.3411 31.8066 25.3593L31.8256 25.3668C31.8361 25.3405 31.8321 25.0653 31.8313 25.0104L31.8107 25.0106Z" fill="black"/>
<path d="M31.8202 25.3693L31.8387 25.3775C31.9264 25.1868 31.9537 25.0542 31.9537 25.0542L31.9336 25.0502C31.9336 25.0502 31.9068 25.1808 31.8202 25.3693Z" fill="black"/>
<path d="M31.8419 25.3756L31.8521 25.3932C32.0147 25.2987 32.0524 25.1344 32.0537 25.1276L32.0339 25.1231C32.0339 25.1231 31.9965 25.2858 31.8419 25.3756Z" fill="black"/>
<path d="M31.8731 25.3896L31.8752 25.4098C32.0344 25.3939 32.1429 25.2004 32.1476 25.1922L32.1296 25.1823C32.1286 25.1844 32.0217 25.3747 31.8731 25.3896Z" fill="black"/>
<path d="M31.8867 25.3998L31.8879 25.4203C32.1437 25.4045 32.2588 25.2517 32.2634 25.2452L32.2469 25.2331C32.2469 25.2331 32.1324 25.3848 31.8867 25.3998Z" fill="black"/>
<path d="M31.9046 25.4053L31.9004 25.4252C31.9141 25.4284 32.24 25.4974 32.3516 25.3276L32.3345 25.3164C32.2306 25.4745 31.9077 25.4059 31.9046 25.4053Z" fill="black"/>
<path d="M24.5919 13.487V22.6021C24.5919 25.5834 29.9785 27.3537 29.9785 27.3537C29.9785 27.3537 35.3651 25.5832 35.3651 22.6021V13.487H24.5919Z" stroke="black" stroke-width="0.0933335" stroke-miterlimit="4.8"/>
</g>
</g>
</g>
<defs>
<clipPath id="clip0_16699_267941">
<rect width="40" height="40" fill="white"/>
</clipPath>
</defs>
</svg>
