<svg width="40" height="40" viewBox="0 0 40 40" fill="none" xmlns="http://www.w3.org/2000/svg">
<g clip-path="url(#clip0_16699_268155)">
<mask id="mask0_16699_268155" style="mask-type:luminance" maskUnits="userSpaceOnUse" x="0" y="0" width="40" height="40">
<path d="M40 20C40 8.95431 31.0457 0 20 0C8.95431 0 0 8.95431 0 20C0 31.0457 8.95431 40 20 40C31.0457 40 40 31.0457 40 20Z" fill="white"/>
</mask>
<g mask="url(#mask0_16699_268155)">
<mask id="mask1_16699_268155" style="mask-type:luminance" maskUnits="userSpaceOnUse" x="-14" y="0" width="54" height="40">
<path d="M-13.3333 0H40V40H-13.3333V0Z" fill="white"/>
</mask>
<g mask="url(#mask1_16699_268155)">
<path d="M-13.3333 0H40V40H-13.3333V0Z" fill="#000066"/>
<path fill-rule="evenodd" clip-rule="evenodd" d="M-13.3333 0H20V16.6667H-13.3333V0Z" fill="#000066"/>
<path d="M-13.3333 0V2.13017L13.0948 19.0525H16.4214V16.9225L-10.0068 0H-13.3333ZM16.4214 0V2.13L-10.0066 19.0525H-13.3333V16.9223L13.0948 0H16.4214H16.4214Z" fill="white"/>
<path d="M-0.935563 0V19.0525H4.0236V0H-0.935563ZM-13.3333 6.35083V12.7017H16.4214V6.35083H-13.3333Z" fill="white"/>
<path d="M-13.3333 7.621V11.4315H16.4214V7.621H-13.3333ZM0.056271 0.000166667V19.0524H3.03177V0H0.0563537L0.056271 0.000166667ZM-13.3333 19.0525L-3.41498 12.7017H-1.19748L-11.1155 19.0525H-13.3333ZM-13.3333 0L-3.41498 6.35083H-5.6329L-13.3333 1.42017V0ZM4.28544 6.35083L14.2038 0H16.4213L6.50319 6.35083H4.28544ZM16.4213 19.0525L6.5031 12.7017H8.72085L16.4214 17.6323V19.0523L16.4213 19.0525Z" fill="#CC0000"/>
<path fill-rule="evenodd" clip-rule="evenodd" d="M19.6504 29.5221C19.584 29.5231 19.5179 29.5293 19.4524 29.5404C19.1219 29.5979 18.6009 30.6743 18.3126 31.3046C17.8622 31.8549 17.6215 32.2825 17.4322 32.5994C17.3586 32.7225 17.245 32.8654 17.2799 33.0291C16.5977 33.1966 16.5638 33.7822 16.5638 34.0099C16.5638 34.2518 16.64 34.3727 16.64 34.3727L17.0483 35.1373L17.0512 35.1465C17.4859 36.0451 18.1294 37.255 18.4893 37.3554C19.0006 37.498 20.3244 37.0093 21.3168 36.1703C22.9441 36.8406 25.0289 37.395 27.3589 37.395C29.6888 37.395 31.7705 36.8403 33.3979 36.1702C34.3904 37.0093 35.7143 37.4979 36.2254 37.3553C36.5866 37.2547 37.2319 36.0367 37.6664 35.1373L38.0749 34.3724C38.0749 34.3724 38.1509 34.2515 38.1509 34.0098C38.1509 33.7818 38.1142 33.1962 37.4319 33.0287C37.466 32.8651 37.3563 32.7223 37.2827 32.5991C37.0919 32.2799 36.8518 31.8483 36.3959 31.292C36.1068 30.6603 35.5877 29.5973 35.2595 29.5399C34.7972 29.4595 33.7999 29.694 33.7999 29.7747C33.7999 29.7766 33.7944 29.8185 33.7939 29.8234L31.7913 31.7149C31.7913 31.7692 31.8975 33.1378 32.2727 34.3474C30.9321 34.8355 29.2867 35.1793 27.3581 35.1793C25.4283 35.1793 23.7784 34.8361 22.4373 34.3474C22.8127 33.1378 22.9219 31.7692 22.9219 31.7149L20.9202 29.8234C20.9197 29.8185 20.914 29.7766 20.914 29.7747C20.914 29.7042 20.1506 29.5138 19.6497 29.5218L19.6504 29.5221ZM20.1622 31.8713C20.4139 31.8682 20.6821 32.0755 20.9026 32.3071C20.895 32.3524 20.8874 32.399 20.8783 32.4411C20.8174 32.7211 20.7129 33.0907 20.5674 33.477C19.9951 33.1426 19.5281 32.7949 19.172 32.4716C19.3893 32.2405 19.7381 31.926 20.1074 31.8745C20.1254 31.8719 20.144 31.8716 20.1623 31.8716L20.1622 31.8713ZM34.5494 31.8713C34.5675 31.8715 34.5861 31.8718 34.6042 31.8742C34.9735 31.9258 35.3254 32.2405 35.5426 32.4715C35.1858 32.7956 34.7181 33.1452 34.1441 33.48C33.998 33.0929 33.8942 32.7217 33.8333 32.4411C33.8241 32.3989 33.8165 32.3526 33.8089 32.307C34.0298 32.0749 34.297 31.8683 34.5494 31.8713ZM18.3644 34.5403C18.6305 34.7441 18.9782 34.9767 19.3973 35.2228C19.2812 35.2964 19.1578 35.3512 19.0287 35.3812C18.8565 35.4212 18.6755 35.4133 18.4924 35.375C18.4351 35.2337 18.3869 35.0558 18.3735 34.8176C18.3685 34.7253 18.3654 34.6328 18.3644 34.5403ZM36.3501 34.5403C36.3488 34.6258 36.3435 34.7183 36.3379 34.8175C36.3246 35.0558 36.2794 35.2336 36.2221 35.3753C36.0389 35.4134 35.8549 35.4211 35.6829 35.3811C35.5537 35.3512 35.4334 35.2964 35.3174 35.2228C35.7366 34.9766 36.0839 34.7443 36.3501 34.5403Z" fill="url(#paint0_linear_16699_268155)" stroke="white" stroke-width="5.85"/>
<path fill-rule="evenodd" clip-rule="evenodd" d="M21.1731 32.6341C21.1731 32.6341 20.4793 31.5112 19.9011 31.5914C19.3231 31.6716 18.7835 32.3935 18.7448 32.4335C18.7064 32.4737 17.8585 31.5112 17.8969 31.471C17.9356 31.431 18.7835 29.3456 19.246 29.2653C19.7085 29.1852 20.7071 29.4188 20.7071 29.4989C20.7071 29.579 21.1731 32.6341 21.1731 32.6341Z" fill="url(#paint1_linear_16699_268155)" stroke="black" stroke-width="0.8755"/>
<path fill-rule="evenodd" clip-rule="evenodd" d="M22.7149 31.4316C22.7149 31.5118 22.4836 34.4795 21.4815 35.5222C20.4795 36.5649 18.8607 37.2066 18.2825 37.0462C17.7045 36.8857 16.394 33.878 16.394 33.878C16.394 33.878 17.7815 35.3217 18.822 35.0812C19.8628 34.8405 20.4795 33.0357 20.672 32.1535C20.8649 31.2712 20.7107 29.5467 20.7107 29.5467L22.7149 31.4316Z" fill="url(#paint2_linear_16699_268155)" stroke="black" stroke-width="0.8755"/>
<path fill-rule="evenodd" clip-rule="evenodd" d="M33.3126 32.6341C33.3126 32.6341 34.0064 31.5112 34.5846 31.5914C35.1626 31.6716 35.7022 32.3935 35.7409 32.4335C35.7793 32.4737 36.6272 31.5112 36.5888 31.471C36.5501 31.431 35.7022 29.3456 35.2397 29.2653C34.7772 29.1852 33.7786 29.4188 33.7786 29.4989C33.7786 29.579 33.3126 32.6341 33.3126 32.6341Z" fill="url(#paint3_linear_16699_268155)" stroke="black" stroke-width="0.8755"/>
<path fill-rule="evenodd" clip-rule="evenodd" d="M31.7709 31.4316C31.7709 31.5118 32.0022 34.4795 33.0043 35.5222C34.0064 36.5649 35.6251 37.2066 36.2034 37.0462C36.7814 36.8857 38.0918 33.878 38.0918 33.878C38.0918 33.878 36.7043 35.3217 35.6638 35.0812C34.623 34.8405 34.0063 33.0357 33.8138 32.1535C33.6209 31.2712 33.7751 29.5467 33.7751 29.5467L31.7709 31.4316Z" fill="url(#paint4_linear_16699_268155)" stroke="black" stroke-width="0.8755"/>
<path fill-rule="evenodd" clip-rule="evenodd" d="M18.3329 31.2771C17.8705 31.8412 17.6236 32.2772 17.431 32.5994C17.2383 32.9217 17.3516 33.3702 17.7966 34.0102C18.2763 34.6997 22.2205 37.3953 27.3576 37.3953C32.495 37.3953 36.439 34.6997 36.9187 34.01C37.3637 33.3702 37.474 32.9217 37.2814 32.5994C37.0886 32.2771 36.8448 31.8412 36.3825 31.2771C36.3825 32.1231 33.115 35.18 27.3576 35.18C21.6003 35.18 18.3329 32.1231 18.3329 31.2771Z" fill="url(#paint5_linear_16699_268155)" stroke="black" stroke-width="0.8775"/>
<path fill-rule="evenodd" clip-rule="evenodd" d="M36.1312 36.5982C36.2082 36.478 37.0175 35.0743 37.0175 35.0743L36.5737 34.7486C36.4373 35.1457 35.9382 35.2747 35.8612 35.756C35.7841 36.2372 36.2081 36.7185 36.131 36.5982H36.1312Z" fill="url(#paint6_linear_16699_268155)" stroke="black" stroke-width="0.8755"/>
<path fill-rule="evenodd" clip-rule="evenodd" d="M36.9349 36.1632C36.9349 36.1632 37.089 35.4816 36.588 35.4013C36.087 35.3212 35.8216 35.7829 35.8943 35.6018C35.975 35.4007 36.2797 35.2007 36.3182 34.5191C36.3568 33.8372 36.2797 33.4763 36.2797 33.4763C36.2797 33.4763 36.4724 32.5939 37.2818 32.7143C38.0911 32.8347 38.1297 33.4763 38.1297 33.717C38.1297 33.9576 38.0526 34.0778 38.0526 34.0778L36.9349 36.1632Z" fill="url(#paint7_linear_16699_268155)" stroke="black" stroke-width="0.8755"/>
<path d="M34.0249 33.8615L34.1893 34.1493L34.3003 34.0801L34.2267 33.8901L34.2404 33.8528L34.4336 33.7323L34.9392 34.6163L34.9267 34.6593L34.8267 34.7326L34.8722 34.8123L35.3536 34.5118L35.308 34.4323L35.1988 34.4895L35.1566 34.4807L34.6509 33.5965L34.8443 33.4759L34.8804 33.4819L35.0071 33.6388L35.1183 33.5694L34.9539 33.2818L34.0249 33.8615ZM32.8372 34.5423L32.8772 34.625L32.9785 34.5823L33.0183 34.5952L33.4525 35.4922L33.4388 35.5333L33.3457 35.593L33.3857 35.6758L33.8596 35.4256L33.8196 35.3428L33.7149 35.3875L33.6749 35.3747L33.4691 34.949L33.9529 34.6936L34.1588 35.1194L34.1468 35.1596L34.0503 35.221L34.0903 35.3038L34.5626 35.0546L34.5226 34.9718L34.4213 35.0147L34.3815 35.0018L33.9473 34.1048L33.9611 34.0637L34.0541 34.0038L34.0141 33.9211L33.542 34.1703L33.582 34.2531L33.6867 34.2085L33.725 34.2223L33.9039 34.5923L33.42 34.8476L33.241 34.4778L33.2548 34.4366L33.3512 34.3749L33.3112 34.2923L32.8372 34.5423ZM32.5591 35.3048L32.5845 35.3937L32.7202 35.3612L32.7562 35.3777L32.8624 35.7474C32.8166 35.7655 32.7831 35.7781 32.7651 35.7837C32.4884 35.8701 32.2648 35.7326 32.1711 35.4062C32.08 35.089 32.1911 34.8489 32.459 34.7652C32.5098 34.7488 32.5633 34.7428 32.6165 34.7477L32.6527 34.7718L32.742 34.9533L32.8732 34.9123L32.7848 34.6042C32.6403 34.6058 32.507 34.6258 32.3883 34.6628C31.9894 34.7875 31.8038 35.1162 31.9105 35.4878C32.0188 35.8648 32.3488 36.0462 32.7262 35.9283C32.8573 35.8872 32.9831 35.8203 33.1074 35.728L32.9863 35.3057L33.0077 35.2713L33.1093 35.2296L33.0838 35.1408L32.559 35.3048L32.5591 35.3048ZM31.4476 36.3475L31.9833 36.1788L31.9566 36.0902L31.8338 36.119L31.7963 36.099L31.5061 35.1343L31.5272 35.0999L31.6444 35.053L31.6178 34.9643L31.0821 35.1331L31.1088 35.2218L31.2298 35.1936L31.266 35.2099L31.5563 36.1748L31.5363 36.2128L31.4209 36.2589L31.4476 36.3475ZM28.5476 36.8219L29.4906 36.7356L29.4618 36.3983L29.3424 36.4092L29.3295 36.6118L29.3093 36.6441L28.9019 36.6813L28.8601 36.1913L29.0884 36.1703L29.1153 36.1944L29.1444 36.3286L29.2479 36.319L29.2107 35.8815L29.1071 35.8911L29.101 36.0286L29.0787 36.0569L28.8503 36.0779L28.8122 35.6293L29.1617 35.5973L29.1867 35.6198L29.227 35.7833L29.3499 35.772L29.3249 35.4762L28.4398 35.557L28.4477 35.6495L28.5556 35.6491L28.5859 35.673L28.6716 36.6777L28.646 36.7103L28.5397 36.7295L28.5476 36.8218V36.8219ZM27.1438 35.5789L27.1455 35.6716L27.2478 35.6793L27.2766 35.709L27.2941 36.7134L27.2664 36.7443L27.1643 36.7553L27.166 36.848L27.6648 36.8393L27.6631 36.7467L27.5573 36.7392L27.5285 36.7093L27.5202 36.2327L28.0295 36.2238L28.0378 36.7004L28.012 36.7313L27.9064 36.7424L27.9081 36.8352L28.4052 36.8265L28.4035 36.7338L28.301 36.7261L28.2724 36.6963L28.2549 35.6918L28.2824 35.661L28.3846 35.6498L28.3829 35.557L27.8858 35.5657L27.8875 35.6584L27.9935 35.6661L28.0204 35.6959L28.0277 36.1101L27.5183 36.1191L27.511 35.7049L27.5387 35.6741L27.6443 35.6628L27.6426 35.5701L27.1438 35.5789ZM26.0733 35.543L26.0701 35.878L26.1918 35.8794L26.2218 35.6773L26.2503 35.6531L26.4619 35.6556L26.4522 36.6848L26.4218 36.7148L26.3072 36.7227L26.3063 36.8153L26.8335 36.8217L26.8343 36.729L26.7198 36.7182L26.6901 36.6876L26.6998 35.6584L26.9114 35.6609L26.9376 35.6859L26.9657 35.8888L27.0872 35.8902L27.0903 35.5553L26.0732 35.5432L26.0733 35.543ZM24.4497 36.6129L25.3713 36.6586L25.3863 36.3204L25.2695 36.3146L25.2315 36.5135L25.2078 36.5427L24.8096 36.5229L24.8311 36.0315L25.0542 36.0425L25.0771 36.0703L25.0883 36.2071L25.1896 36.2121L25.2088 35.7738L25.1076 35.7688L25.0844 35.904L25.0592 35.9292L24.8361 35.9181L24.8558 35.4683L25.1974 35.4853L25.2188 35.5109L25.2371 35.6787L25.3573 35.6845L25.3703 35.3878L24.5053 35.345L24.5011 35.4375L24.6054 35.4522L24.6318 35.48L24.5876 36.4873L24.5588 36.5162L24.4537 36.5203L24.4497 36.6128V36.6129ZM22.3374 36.0663L22.8266 36.2313L22.8536 36.143L22.7468 36.0972L22.7294 36.0597L23.0241 35.0998L23.058 35.0834L23.1705 35.1114L23.1975 35.0233L22.7083 34.8583L22.6813 34.9466L22.7865 34.9919L22.8048 35.0261L22.5103 35.9857L22.4753 36.0057L22.3644 35.9782L22.3374 36.0665V36.0663ZM21.4676 35.7285C21.556 35.8013 21.6568 35.8574 21.7653 35.8943C22.0336 35.9848 22.2463 35.8858 22.3122 35.6715C22.3447 35.5653 22.3222 35.4503 22.2478 35.3517C22.1723 35.2508 22.0938 35.1944 22.0537 35.1432C21.9847 35.0565 21.9553 34.9869 21.9808 34.904C22.0113 34.805 22.107 34.7579 22.2265 34.7982C22.2788 34.8158 22.3138 34.8373 22.3382 34.8635L22.3534 34.8965L22.3238 35.0932L22.4416 35.1329L22.5311 34.8413C22.4403 34.7668 22.3438 34.7104 22.2423 34.6763C22.0084 34.5974 21.8087 34.7009 21.7473 34.9008C21.7202 34.9891 21.7323 35.0904 21.7861 35.186C21.8376 35.2768 21.9053 35.3335 21.9594 35.3915C22.0558 35.4954 22.0948 35.5801 22.065 35.6773C22.0345 35.7763 21.9338 35.8219 21.8013 35.7773C21.752 35.7606 21.7059 35.7356 21.6651 35.7034L21.6522 35.6693L21.6923 35.4444L21.5678 35.4024L21.4678 35.7284L21.4676 35.7285ZM20.3621 35.2657L21.1951 35.6821L21.3344 35.3767L21.229 35.324L21.12 35.4918L21.0873 35.509L20.7275 35.3292L20.93 34.8853L21.1317 34.9861L21.1425 35.0208L21.1017 35.1514L21.1933 35.1973L21.3739 34.8012L21.2823 34.7553L21.2108 34.8707L21.1783 34.8836L20.9766 34.7828L21.1618 34.3767L21.4704 34.5308L21.4804 34.5632L21.4354 34.7251L21.5438 34.7795L21.6661 34.5115L20.8842 34.1207L20.846 34.2042L20.9368 34.26L20.9507 34.2963L20.5359 35.206L20.4986 35.221L20.4001 35.1821L20.3621 35.2657ZM20.2218 33.7498L19.8026 33.4609L19.7538 33.5384L19.8363 33.6068L19.8435 33.6478L19.3158 34.4866L19.2769 34.496L19.1844 34.4435L19.1357 34.521L19.5548 34.8098C19.6984 34.9087 19.821 34.9592 19.9578 34.9448C20.1358 34.9269 20.2875 34.8231 20.4048 34.6368C20.6134 34.3052 20.5548 33.9795 20.2216 33.7499L20.2218 33.7498ZM20.0469 33.7561L20.1303 33.8136C20.3586 33.9708 20.3786 34.1908 20.1919 34.4878C20.0053 34.7848 19.803 34.8536 19.5747 34.6964L19.4913 34.6389L20.0469 33.7561ZM23.3868 35.0636L23.3681 35.1543L23.4653 35.1856L23.4868 35.2175L23.2837 36.2039L23.2508 36.2276L23.1497 36.2149L23.131 36.3056L23.6048 36.4103L23.6234 36.3197L23.5228 36.2878L23.502 36.2523L23.5878 35.8358L23.6164 35.8421C23.786 35.8796 23.8133 35.9688 23.8292 36.1563C23.8378 36.2508 23.8358 36.3376 23.9079 36.4309C23.9411 36.4751 23.9986 36.5109 24.0709 36.5269C24.1273 36.5387 24.1844 36.5463 24.2419 36.5494L24.2603 36.4604L24.2384 36.4556C24.1259 36.4308 24.0813 36.3919 24.0668 36.2823C24.054 36.1827 24.0612 36.0798 24.0259 35.9868C23.9995 35.919 23.9495 35.8713 23.8731 35.833C24.0709 35.8361 24.1923 35.7508 24.2273 35.5805C24.2696 35.3749 24.1581 35.2342 23.8977 35.1766L23.387 35.0637L23.3868 35.0636ZM23.7094 35.2453L23.7868 35.2623C23.9496 35.2983 24.0178 35.4023 23.9865 35.5542C23.9513 35.7246 23.8497 35.7833 23.67 35.7436C23.6514 35.7394 23.6313 35.7351 23.6098 35.7283L23.7093 35.2453H23.7094ZM29.8839 35.3528L29.8983 35.4443L30.0092 35.4351L30.043 35.4562L30.1999 36.4514L30.1749 36.4864L30.0671 36.5143L30.0815 36.6058L30.6036 36.5166L30.5892 36.4251L30.4748 36.4351L30.4403 36.4103L30.3741 35.9902L30.4056 35.9848C30.5926 35.9529 30.6533 36.025 30.7387 36.1926C30.7824 36.277 30.8125 36.3583 30.9203 36.4165C30.9705 36.4443 31.0425 36.455 31.1222 36.4415C31.1841 36.4302 31.2451 36.4146 31.3048 36.3948L31.2907 36.3053L31.2665 36.3094C31.1426 36.3305 31.0827 36.3119 31.0275 36.2159C30.9777 36.1287 30.947 36.0303 30.8767 35.9579C30.8247 35.9054 30.756 35.8808 30.664 35.8754C30.867 35.8004 30.9592 35.6735 30.9321 35.5018C30.8993 35.2944 30.7336 35.2076 30.4465 35.2568L29.8836 35.3528L29.8839 35.3528ZM30.2803 35.3944L30.3655 35.3798C30.5451 35.3492 30.653 35.419 30.6772 35.572C30.7043 35.7439 30.6222 35.8384 30.4242 35.8723C30.4038 35.8758 30.3817 35.8795 30.3573 35.8818L30.2804 35.3945L30.2803 35.3944Z" fill="black"/>
<path fill-rule="evenodd" clip-rule="evenodd" d="M18.358 36.5982C18.2809 36.478 17.4716 35.0743 17.4716 35.0743L17.9154 34.7486C18.0517 35.1457 18.5509 35.2747 18.628 35.756C18.705 36.2372 18.281 36.7185 18.3581 36.5982H18.358Z" fill="url(#paint8_linear_16699_268155)" stroke="black" stroke-width="0.8755"/>
<path fill-rule="evenodd" clip-rule="evenodd" d="M17.5507 36.1632C17.5507 36.1632 17.3966 35.4816 17.8976 35.4013C18.3986 35.3212 18.6639 35.7829 18.5913 35.6018C18.5106 35.4007 18.2059 35.2007 18.1674 34.5191C18.1288 33.8372 18.2059 33.4763 18.2059 33.4763C18.2059 33.4763 18.0132 32.5939 17.2038 32.7143C16.3945 32.8347 16.3559 33.4763 16.3559 33.717C16.3559 33.9576 16.433 34.0778 16.433 34.0778L17.5507 36.1632Z" fill="url(#paint9_linear_16699_268155)" stroke="black" stroke-width="0.8755"/>
<path fill-rule="evenodd" clip-rule="evenodd" d="M27.3339 34.3034C27.3339 34.3034 18.0309 31.5751 18.0851 21.1955L18.1566 7.47534H36.5111L36.5831 21.1172C36.6374 31.4971 27.3341 34.3047 27.3341 34.3047L27.3339 34.3034Z" fill="#0072C4" fill-opacity="0.996" stroke="white" stroke-width="2.919"/>
<path fill-rule="evenodd" clip-rule="evenodd" d="M19.3588 10.7469C19.3741 10.7469 19.4866 10.6401 19.5896 10.5459C19.7335 10.4739 19.8666 10.3726 20.013 10.3046C20.1219 10.2415 20.3371 10.1926 20.436 10.1437C20.5656 10.0758 20.6714 9.99775 20.7824 9.86208C20.7955 9.68208 20.8207 9.55291 20.8207 9.33916C20.9738 9.26541 21.1096 9.194 21.2439 9.13791C21.4364 9.08375 21.4782 9.00675 21.6672 8.97708C21.7889 8.93458 21.9897 8.93666 22.1672 8.93666C22.3586 8.93666 22.4794 9.07275 22.6514 9.105C22.8553 9.18716 22.9505 9.24416 23.113 9.38666C23.2049 9.50283 23.262 9.59733 23.4186 9.68483C23.5426 9.74841 23.6586 9.84483 23.8034 9.88591C23.9621 9.978 24.1031 10.0313 24.2264 10.1676C24.3394 10.248 24.386 10.3673 24.4956 10.4492C24.6228 10.5546 24.7433 10.6495 24.8805 10.7309C25.0453 10.8412 25.2088 10.9251 25.4757 10.9012C25.6171 10.8928 25.7693 10.8765 25.9374 10.9078C26.1257 10.9078 26.3094 10.9045 26.476 10.9482C26.6723 10.9482 26.831 10.9747 27.0146 10.9884C27.1866 11.0206 27.362 11.0287 27.5532 11.0287C27.72 11.0722 27.9036 11.0688 28.0919 11.0688H29.169C29.365 11.0688 29.5635 11.0768 29.7076 11.1092C29.9018 11.1092 30.0687 11.0908 30.2462 11.0687C30.4551 11.0687 30.6145 11.0304 30.8234 11.0286H31.4775C31.6454 11.0746 31.86 11.1061 31.9775 11.1894C32.1315 11.2334 32.2082 11.3064 32.3622 11.3504C32.4802 11.4109 32.6593 11.5067 32.7469 11.6319C32.8555 11.7455 32.967 11.9081 33.0547 12.0744C33.1618 12.229 33.2025 12.4056 33.2855 12.5974C33.3295 12.7812 33.3601 12.9559 33.3625 13.1605C33.4043 13.3349 33.4011 13.5268 33.4011 13.7237C33.3571 13.907 33.3475 14.1112 33.2856 14.2868C33.279 14.4832 33.2398 14.6607 33.2087 14.8098C33.1745 14.9744 33.1342 15.0803 33.1317 15.2925V15.8557C33.1184 16.0404 33.0779 16.1761 33.0549 16.3786C32.9618 16.5542 32.8727 16.7597 32.7857 16.9819C32.6576 17.0712 32.5465 17.1982 32.4779 17.3038C32.3958 17.3547 32.3482 17.4315 32.3624 17.4647C32.5161 17.5182 32.4779 17.6252 32.4779 17.8267C32.4979 17.9817 32.5129 18.1742 32.5548 18.3497C32.5689 18.5417 32.61 18.6591 32.6702 18.7921C32.7309 18.8712 32.7427 18.8323 32.5932 18.8323C32.482 18.9196 32.3695 18.874 32.324 18.7117C32.2342 18.6033 32.2047 18.4725 32.1701 18.2692C32.1489 18.083 32.1191 17.9015 32.0547 17.7867C32.035 17.5598 31.9747 17.5622 31.7469 17.5452C31.6386 17.4492 31.4955 17.4243 31.2853 17.4243C31.0759 17.4243 31.0583 17.4031 31.0545 17.6257V18.1888C31.0183 18.3522 30.9389 18.4844 30.9005 18.6313C30.7858 18.7153 30.7261 18.8563 30.5928 18.953C30.5293 19.1357 30.437 19.1675 30.2465 19.1944C30.1798 19.1112 30.0713 19.0027 30.0156 18.9129C30.1234 18.7321 30.2174 18.7049 30.285 18.5107C30.3667 18.3505 30.4147 18.2465 30.4772 18.1083C30.3951 17.982 30.3214 17.925 30.2464 17.7462C30.183 17.6489 30.0955 17.4396 30.0541 17.3037C29.9277 17.2598 29.7288 17.2527 29.6308 17.1831C29.4441 17.1396 29.392 17.3439 29.1691 17.3439H28.6306C28.3925 17.3439 28.333 17.4769 28.1305 17.4647C28.071 17.4839 27.9267 17.4562 27.7071 17.4647C27.5465 17.5206 27.3528 17.5047 27.1686 17.5047C26.9734 17.5022 26.8138 17.4574 26.6686 17.4243C26.4918 17.376 26.316 17.3268 26.13 17.3037C25.9041 17.3037 25.8199 17.3217 25.6683 17.4243C25.5483 17.4956 25.3743 17.6582 25.245 17.7462C25.1904 17.8797 25.162 18.1056 25.0911 18.2692C25.0503 18.4261 24.9838 18.5256 24.9373 18.6715C24.8852 18.8076 24.836 18.9477 24.8219 19.1542C24.8089 19.4253 24.7496 19.3922 24.591 19.3151C24.5249 19.2029 24.4196 19.0795 24.3602 18.9531C24.3952 18.7483 24.4346 18.6464 24.4372 18.4301C24.3997 18.2739 24.3124 18.279 24.2064 18.3898C24.2064 18.6005 24.2161 18.7629 24.1294 18.8726C24.086 19.0388 24.0164 19.1107 23.8985 19.1944C23.841 19.3437 23.713 19.4121 23.5908 19.4761C23.5712 19.4692 23.5908 19.4222 23.5908 19.3152C23.4986 19.1312 23.5841 18.9786 23.5841 18.7519C23.5866 18.5488 23.575 18.4142 23.6339 18.229C23.6339 18.034 23.5434 17.8485 23.5139 17.7061C23.4424 17.5567 23.4011 17.4827 23.2061 17.4244C23.069 17.37 22.8716 17.2963 22.7828 17.1831C22.6711 17.0381 22.5999 16.9786 22.4367 16.9014C22.2597 16.8372 22.1738 16.7787 22.052 16.7002C21.9331 16.5691 21.8365 16.5122 21.7827 16.3383C21.7024 16.2146 21.6885 15.9848 21.6288 15.8152C21.6157 15.6386 21.5651 15.4746 21.5134 15.3326C21.4906 15.1559 21.4628 15.0267 21.398 14.8498C21.3766 14.6845 21.3289 14.5115 21.2827 14.3271C21.2827 14.1302 21.286 13.9382 21.2442 13.7637V13.2007C21.2165 13.0382 21.2063 12.8001 21.1673 12.6777C21.1673 12.4588 21.144 12.3352 21.0904 12.1949C21.0024 12.0529 20.9952 11.9891 20.8595 11.9537C20.7615 12.0787 20.6 12.1297 20.3979 12.1549C20.2566 12.1227 20.0574 12.1017 19.8977 12.0341C19.7435 11.9962 19.638 11.9352 19.513 11.8732C19.4446 11.7681 19.363 11.6491 19.2821 11.5514C19.2583 11.3414 19.2125 11.2331 19.2052 11.0285C19.2052 10.8749 19.2089 10.9564 19.359 10.7468L19.3588 10.7469Z" fill="#BCBCBC"/>
<path fill-rule="evenodd" clip-rule="evenodd" d="M21.6374 12.1964L21.6647 12.1681C21.6029 12.2326 21.6256 12.2014 21.7736 12.1395C21.8563 12.0874 22.0136 11.9956 22.0727 11.9403C22.1439 11.9078 22.2569 11.8653 22.3176 11.7982C22.3934 11.7174 22.4692 11.6502 22.5624 11.5706C22.6701 11.4792 22.7706 11.4492 22.8889 11.3714C23.0428 11.36 23.0986 11.2941 23.2425 11.3431C23.3776 11.3737 23.4336 11.3745 23.5418 11.2577C23.651 11.1877 23.7712 11.1198 23.8139 11.0016V10.8311C23.8118 11.0169 23.7783 11.0772 23.6506 11.1438C23.5616 11.2458 23.4507 11.3612 23.4058 11.4568C23.3194 11.5818 23.3011 11.6518 23.2154 11.7128C23.1451 11.8024 23.0244 11.8498 22.9979 11.9972C23.0366 12.0649 23.0012 12.102 23.0793 12.111C23.1581 12.1787 23.2401 12.1498 23.3514 12.111C23.4621 11.9829 23.5118 11.9002 23.5691 11.7697C23.6603 11.645 23.7114 11.5856 23.7594 11.4852C23.854 11.4167 23.9141 11.3632 23.9499 11.2577C24.0593 11.1936 24.1493 11.1262 24.2218 11.0586C24.3031 11.0062 24.3463 10.9637 24.4666 10.9447C24.465 11.0975 24.4425 11.1697 24.3851 11.2577C24.3581 11.416 24.3635 11.4912 24.4123 11.599C24.4905 11.6473 24.4766 11.6893 24.5211 11.7982C24.5655 11.704 24.588 11.5136 24.6028 11.3998V11.3713C24.6028 11.4957 24.6141 11.6607 24.5756 11.7412C24.5774 11.907 24.6142 11.981 24.6572 12.1109C24.7031 12.1736 24.7354 12.2142 24.7932 12.2532C24.7986 12.089 24.8396 11.9809 24.8476 11.8265C24.8855 11.9457 24.8728 12.1032 24.902 12.2247C24.9118 12.3586 24.9603 12.4623 25.0108 12.5661C25.0728 12.6044 25.0939 12.7172 25.1196 12.623C25.184 12.4228 25.1856 12.2038 25.2284 11.9972C25.2362 11.8922 25.2446 11.7361 25.2829 11.6558L25.2285 11.9971C25.2363 11.8921 25.2447 11.7361 25.283 11.6558V11.6275C25.3084 11.7772 25.3324 11.9219 25.3374 12.0825C25.3374 12.2105 25.3291 12.3408 25.3646 12.4522C25.4551 12.4103 25.5076 12.3122 25.5551 12.1962C25.6276 12.0587 25.6771 11.9977 25.7726 11.8833L25.5551 12.1962C25.6276 12.0587 25.6771 11.9977 25.7726 11.8833V11.855C25.7576 11.9861 25.7455 12.1097 25.7455 12.2531C25.7455 12.3842 25.744 12.5329 25.7726 12.6229C25.8047 12.7737 25.8485 12.8017 25.8543 12.9642C25.8543 13.0433 25.844 13.1242 25.8816 13.1633C25.9987 13.1939 25.9991 13.1257 26.0176 12.9642C26.019 12.7807 26.0659 12.6556 26.0717 12.4807C26.0717 12.2648 26.1023 12.507 26.1262 12.5945C26.1812 12.7212 26.1982 12.8338 26.2079 12.9642C26.2079 13.0434 26.1976 13.1242 26.2351 13.1634C26.3401 13.1198 26.3817 12.9971 26.4527 12.9357C26.5069 12.8011 26.5629 12.7416 26.6161 12.6516C26.7569 12.622 26.75 12.5641 26.7519 12.3955C26.7519 12.2594 26.7413 12.1162 26.7792 11.9972C26.8228 11.8736 26.8639 11.736 26.888 11.6275C26.9388 11.5972 26.9938 11.6723 27.0238 11.7413C27.0835 11.833 27.0783 11.9667 27.0783 12.1111C27.1045 12.2369 27.1568 12.3352 27.2143 12.4524C27.2825 12.5838 27.3379 12.6635 27.4047 12.7368C27.4334 12.8268 27.432 12.9755 27.432 13.1066C27.538 12.9862 27.5582 12.8067 27.568 12.6231C27.5538 12.4981 27.5511 12.3424 27.5136 12.2247C27.5092 12.0995 27.4869 11.9702 27.4591 11.8835C27.3673 11.8393 27.3528 11.8002 27.432 11.6843C27.5195 11.6087 27.6141 11.6379 27.7585 11.656C27.8315 11.7322 27.8615 11.7731 27.8672 11.9402C27.8672 12.0918 27.8736 12.2083 27.9216 12.3102C27.975 12.392 28.0276 12.4482 28.0575 12.5946C28.0993 12.6302 28.1316 12.6879 28.1936 12.6231C28.2278 12.5397 28.2478 12.3679 28.2753 12.2817C28.3018 12.1737 28.3497 12.1208 28.4113 12.0825C28.4113 12.2408 28.4095 12.338 28.4657 12.4525C28.5189 12.5795 28.5559 12.6272 28.6016 12.7654C28.6596 12.8058 28.6671 12.8929 28.7376 12.9359C28.7543 12.8024 28.7649 12.6495 28.7649 12.4809V12.0826C28.7749 11.9472 28.8077 11.8709 28.8466 11.7699C28.9341 11.8791 28.9282 11.9242 28.9282 12.0827C29.0176 12.0493 29.0326 11.9852 29.0641 11.8837C29.128 11.8275 29.1454 11.8012 29.1729 11.9404C29.1921 12.0893 29.2283 12.2233 29.2546 12.3672C29.3104 12.4329 29.3751 12.5919 29.445 12.6517C29.4929 12.733 29.5466 12.8117 29.6083 12.8792C29.6506 12.9728 29.6615 13.0217 29.7715 13.0498C29.7715 12.8573 29.7779 12.6642 29.7443 12.481C29.7443 12.3177 29.7086 12.2593 29.6899 12.1112C29.6445 12.0132 29.6178 11.8686 29.6354 11.8269C29.7629 11.9533 29.8204 12.0267 29.8802 12.1682C29.9441 12.3049 29.9977 12.3968 30.0434 12.538C30.1063 12.592 30.2177 12.7538 30.2611 12.8225C30.3581 12.9092 30.4055 12.9997 30.5059 13.0783C30.5578 13.1273 30.6676 13.1547 30.6963 13.1353C30.6913 12.9687 30.666 12.8253 30.6146 12.6803C30.613 12.5212 30.5765 12.4347 30.5331 12.339C30.4261 12.2467 30.3448 12.1837 30.2881 12.0545C30.2461 12.0185 30.2378 11.9916 30.2337 11.9124C30.3901 12.0417 30.4993 12.1571 30.6146 12.3105C30.6926 12.4116 30.7322 12.4574 30.8323 12.5097C30.8865 12.5705 31.0444 12.6462 31.1586 12.6803C31.2272 12.7712 31.3188 12.8235 31.4307 12.8512L31.1586 12.6803C31.2272 12.7712 31.3189 12.8235 31.4308 12.8512V12.8795C31.4172 12.7016 31.3519 12.5716 31.2676 12.4243C31.1968 12.2687 31.1318 12.211 31.0228 12.1114C30.9516 11.9987 30.872 11.9322 30.7508 11.8556C30.6758 11.7672 30.5633 11.6206 30.506 11.571C30.622 11.4982 30.7582 11.6203 30.8868 11.6848C30.993 11.7998 31.0922 11.9498 31.1588 12.0261C31.2313 12.1722 31.2869 12.2626 31.4038 12.3958C31.5209 12.4653 31.6021 12.5342 31.703 12.6233C31.8588 12.6665 31.7966 12.6095 31.7574 12.4812C31.7035 12.3207 31.7514 12.3182 31.8661 12.4243C31.9418 12.4782 32.0261 12.5681 32.1381 12.6235C32.1864 12.6862 32.2595 12.721 32.3286 12.6803C32.3573 12.6402 32.3557 12.6447 32.3557 12.595C32.2985 12.4185 32.2453 12.2811 32.1109 12.2252C32.0492 12.1467 31.9491 12.0532 31.8661 11.9692C31.812 11.8858 31.7488 11.8378 31.7028 11.7417L31.8661 11.9692C31.812 11.8858 31.7488 11.8378 31.7028 11.7417H31.6756C31.8398 11.7477 31.8983 11.7894 32.0291 11.8555C32.1225 11.8895 32.2231 11.9784 32.2741 12.0545C32.3271 12.1249 32.4121 12.2006 32.4645 12.282C32.5481 12.3464 32.6403 12.4197 32.7366 12.4812C32.8271 12.5999 32.8434 12.6772 32.8455 12.8512C32.8976 12.9315 32.907 13.096 32.927 13.1923C32.907 13.3487 32.8535 13.2259 32.8455 13.1354C32.8224 13.0098 32.7746 13.0164 32.6821 13.0502C32.6821 13.222 32.7011 13.269 32.7638 13.3915C32.7468 13.509 32.7078 13.5948 32.655 13.676C32.5916 13.7138 32.5779 13.5923 32.5191 13.5337C32.5128 13.3579 32.4633 13.3385 32.3558 13.2492V13.3631C32.4165 13.4845 32.4806 13.5952 32.4918 13.7614C32.5338 13.8881 32.5462 13.9682 32.5462 14.1311C32.5462 14.2702 32.5485 14.4061 32.5191 14.5294C32.5191 14.6836 32.4935 14.7498 32.4917 14.8992V15.6957C32.4709 15.7962 32.4646 15.9273 32.4646 16.0653L32.4917 15.6955C32.4709 15.7962 32.4646 15.9274 32.4646 16.0653V16.0936C32.4129 15.9507 32.3566 15.8213 32.3286 15.6669C32.2404 15.5797 32.1844 15.4897 32.1381 15.3825C32.1172 15.2605 32.1042 15.1114 32.0836 15.0127C32.0453 14.9124 32.0047 14.8055 31.9203 14.8705C31.887 15.0825 31.9291 15.2088 32.002 15.4108C32.0447 15.5448 32.0401 15.6502 32.0836 15.7807C32.1467 15.9311 32.1974 15.9527 32.0836 16.1219C32.0276 16.2122 31.9975 16.2408 31.9748 16.3496C31.8741 16.4022 31.849 16.4257 31.8388 16.5487C31.805 16.4381 31.7227 16.3084 31.6755 16.1789C31.6268 16.0427 31.5666 15.9028 31.5396 15.7807C31.4736 15.6855 31.3961 15.5314 31.3219 15.4678C31.2536 15.376 31.1555 15.2228 31.1042 15.1266C31.0001 15.0052 30.9771 14.9349 30.8867 14.8707C30.8634 14.8138 30.8357 14.7429 30.7779 14.7853C30.7779 14.9213 30.7671 15.0645 30.8051 15.1834C30.8326 15.3512 30.8809 15.4442 30.8867 15.6101V15.9231C30.8213 15.7628 30.7516 15.6197 30.6962 15.4679C30.6368 15.3831 30.5787 15.2177 30.5058 15.1551C30.4596 15.0447 30.4235 14.9532 30.3698 14.8707C30.3559 14.7881 30.3193 14.7891 30.2881 14.7285C30.29 14.8897 30.339 14.9462 30.3698 15.0697C30.4228 15.1781 30.4398 15.3597 30.4242 15.4111C30.3556 15.2117 30.2936 14.9937 30.2066 14.8138C30.1241 14.697 30.0436 14.5468 29.9891 14.4441C29.9081 14.3464 29.8249 14.3432 29.7442 14.2734C29.6707 14.237 29.6004 14.1962 29.5538 14.1312C29.5752 14.2812 29.6311 14.3748 29.6626 14.501C29.6805 14.644 29.7434 14.7585 29.7714 14.8708C29.7411 15.0654 29.6972 14.8168 29.6626 14.7286C29.6339 14.5684 29.5809 14.4794 29.5266 14.3872C29.4536 14.3353 29.3874 14.2432 29.3089 14.188C29.2326 14.1574 29.2545 14.1936 29.2545 14.3018C29.2545 14.4778 29.2609 14.5941 29.3089 14.7002C29.3632 14.7835 29.3633 14.8923 29.3633 15.0413C29.3586 15.1813 29.3362 15.2938 29.3362 15.4397V15.6667C29.2737 15.5458 29.2146 15.4771 29.1729 15.3253C29.0786 15.1962 29.0506 15.1013 28.9825 14.9557C28.9221 14.9302 28.824 14.9093 28.765 14.9557C28.7756 15.0996 28.8391 15.1629 28.8466 15.3253C28.7381 15.4364 28.7577 15.4681 28.6833 15.297C28.6213 15.1672 28.5491 15.1733 28.4658 15.0978C28.3291 15.08 28.3725 14.9926 28.3296 14.8703C28.3296 14.7607 28.3405 14.6502 28.3025 14.5573C28.1533 14.5573 28.0678 14.552 27.9761 14.6427C27.9329 14.7327 27.9481 14.8955 27.9761 15.0124V15.4106C27.9451 15.5102 27.8836 15.5156 27.8672 15.6381C27.8147 15.7596 27.7972 15.8936 27.7585 15.9796C27.6616 16.0671 27.7036 16.0781 27.6496 15.9227V15.0122C27.6496 14.8577 27.6719 14.7824 27.6768 14.6427C27.6204 14.5247 27.6051 14.5027 27.432 14.5004C27.3898 14.5739 27.4059 14.7104 27.432 14.7849C27.432 14.9227 27.4382 15.0541 27.4591 15.1546C27.4591 15.3057 27.477 15.3972 27.4864 15.5244C27.4812 15.6752 27.4531 15.7952 27.3776 15.8657C27.2795 15.8914 27.3669 15.9538 27.2688 15.9796C27.1705 15.9302 27.0548 15.8632 26.9696 15.7804C26.8638 15.7467 26.7641 15.7236 26.616 15.7236C26.4356 15.7212 26.4326 15.6994 26.3711 15.5527C26.316 15.3961 26.2901 15.2599 26.2623 15.0977C26.2025 14.9646 26.1885 14.8738 26.1535 14.728C26.1078 14.6411 26.0591 14.5755 25.9904 14.5288C25.951 14.6727 25.914 14.793 25.9087 14.9555C25.8769 15.0222 25.8702 15.1917 25.8544 15.2683C25.7998 15.1842 25.7784 15.0187 25.7456 14.8987C25.694 14.7262 25.65 14.6142 25.4736 14.6712C25.2905 14.6735 25.2852 14.6787 25.2831 14.8704C25.3619 14.9937 25.4461 15.1136 25.5007 15.2116V15.6097C25.5007 15.7742 25.5103 15.8217 25.3919 15.8657C25.3469 15.6951 25.2512 15.5322 25.1471 15.3822C25.1329 15.2662 25.0971 15.2968 24.984 15.2968C24.9081 15.2968 24.8309 15.2862 24.7935 15.3252C24.7935 15.4243 24.8016 15.562 24.7935 15.5813C24.7278 15.5934 24.7013 15.5807 24.6574 15.5244C24.6099 15.6072 24.6457 15.7238 24.6574 15.8373C24.6228 15.9638 24.5816 16.0794 24.5213 16.1501C24.5093 16.1122 24.4821 16.1216 24.5213 16.1216C24.3346 16.0499 24.1886 16.0057 24.0317 15.9512C23.9372 15.9633 23.8686 16.0503 23.814 16.1217C23.6756 16.1683 23.6146 16.2052 23.4603 16.2071C23.3123 16.2071 23.2403 16.2304 23.1066 16.2356C23.0104 16.2574 22.8848 16.2639 22.753 16.2639C22.6798 16.2422 22.5521 16.2416 22.508 16.2071C22.5642 16.1233 22.6268 16.081 22.6713 15.9512C22.7458 15.8982 22.8156 15.8302 22.889 15.7521C22.9606 15.701 23.0448 15.5952 23.1065 15.5246C23.149 15.3875 23.2073 15.3637 23.297 15.2969C23.4586 15.3032 23.4903 15.3546 23.6506 15.3822C23.8073 15.4416 23.894 15.4591 23.9771 15.3539C24.1071 15.2989 24.2173 15.2131 24.358 15.1831C24.4669 15.1287 24.5366 15.0757 24.63 15.0124C24.7458 14.9427 24.8008 14.8711 24.9021 14.7849C24.931 14.6689 25.0129 14.5793 24.9837 14.4435C24.8365 14.405 24.7429 14.4204 24.6572 14.5004C24.5381 14.5985 24.5156 14.6392 24.3851 14.7279C24.2725 14.76 24.2243 14.8096 24.086 14.8417C23.9722 14.8814 23.8351 14.8702 23.7051 14.8702C23.5861 14.8702 23.4283 14.8584 23.3514 14.8986C23.4724 14.8172 23.6178 14.7325 23.7322 14.6994C23.8421 14.6257 23.8836 14.5884 24.0316 14.5857C24.1001 14.4959 24.171 14.4937 24.1946 14.3582C24.2406 14.1899 24.0942 14.2432 23.9771 14.3012C23.8665 14.3216 23.7446 14.3998 23.6506 14.4435C23.5597 14.4752 23.4272 14.4987 23.2969 14.5004C23.2626 14.4492 23.3237 14.4082 23.3513 14.3296C23.4784 14.2846 23.4988 14.2681 23.5146 14.1306C23.3705 14.1506 23.3155 14.1979 23.188 14.2159C23.0492 14.2522 22.9051 14.2684 22.753 14.2728H22.372C22.2383 14.2677 22.1661 14.2443 22.0184 14.2443C21.9101 14.1877 21.9096 14.1608 21.9096 13.9883C21.9949 13.8903 22.0779 13.9032 22.236 13.9032C22.3576 13.8433 22.4524 13.8115 22.5351 13.7609C22.6337 13.7397 22.701 13.6976 22.6712 13.6472H22.2904C22.1437 13.5852 22.2837 13.5567 22.3721 13.505C22.5043 13.505 22.6408 13.5127 22.7256 13.5618C22.8892 13.5555 22.9462 13.5037 23.0791 13.391C23.1833 13.3052 23.2345 13.2504 23.3512 13.192C23.4351 13.0995 23.5142 13.0484 23.5689 12.9645C23.6807 12.8578 23.7547 12.7988 23.8136 12.7085C23.8856 12.6688 23.9296 12.6177 23.8953 12.5662C23.7248 12.5871 23.6558 12.649 23.5416 12.7369C23.4752 12.803 23.4107 12.8622 23.3239 12.9076C23.2014 12.9804 23.1251 13.0099 22.9704 13.0213C22.8307 13.0213 22.7234 12.998 22.5896 12.993C22.4417 12.9775 22.5777 12.943 22.6166 12.8792C22.6738 12.8392 22.7183 12.7507 22.6711 12.6801C22.5573 12.6405 22.4204 12.6517 22.2902 12.6517H21.9094C21.7656 12.6462 21.7048 12.6132 21.6102 12.5663C21.5808 12.4865 21.6154 12.5094 21.719 12.5094C21.8501 12.5042 21.9431 12.4864 22.0727 12.4525C22.2006 12.416 22.2166 12.3733 22.2359 12.2248C22.1104 12.2248 21.9684 12.2265 21.8823 12.1965H21.6373L21.6374 12.1964ZM19.2812 11.5515C19.2573 11.3415 19.2116 11.2332 19.2042 11.0286C19.2042 10.875 19.208 10.9565 19.3581 10.7469C19.3733 10.7469 19.4858 10.6401 19.589 10.5459C19.7328 10.4739 19.8659 10.3726 20.0121 10.3046C20.1211 10.2415 20.3363 10.1926 20.4352 10.1437C20.5649 10.0758 20.6706 9.99775 20.7816 9.86208C20.7949 9.68208 20.8202 9.55291 20.8202 9.33916C20.9732 9.26541 21.109 9.194 21.2433 9.13791C21.436 9.08375 21.4776 9.00675 21.6666 8.97708C21.7883 8.93458 21.9893 8.93666 22.1666 8.93666C22.3581 8.93666 22.4789 9.07275 22.6508 9.105C22.8547 9.18716 22.95 9.24416 23.1125 9.38666C23.2044 9.50283 23.2615 9.59733 23.4181 9.68483C23.5421 9.74841 23.6581 9.84483 23.8028 9.88591C23.8041 10.0312 23.835 10.0061 23.7313 10.0061C23.7203 10.1549 23.6846 10.1457 23.5408 10.1483C23.4412 10.0945 23.3569 10.0162 23.296 9.92066C23.3504 9.77291 23.3143 10.0402 23.296 10.0913C23.226 10.1488 23.1845 10.2102 23.1056 10.1482C23.0614 10.0094 23.0241 9.9135 23.0241 9.74991C23.0032 9.57225 22.9536 9.70125 22.9151 9.7785C22.8783 9.92183 22.8951 9.97375 22.9423 10.0912C22.8035 10.0912 22.6971 10.0782 22.5886 10.0629C22.4877 10.0377 22.3742 10.0686 22.2621 10.1197C22.1196 10.2092 22.164 10.2097 22.2349 10.3189C22.3607 10.3559 22.451 10.4256 22.5616 10.4896C22.687 10.4646 22.8182 10.4367 22.9424 10.4042C23.072 10.3592 23.1907 10.3878 23.3232 10.4042C23.3889 10.4387 23.4753 10.4456 23.5136 10.4897C23.5136 10.5776 23.5206 10.6695 23.4864 10.7172C23.4297 10.7548 23.3761 10.8588 23.2959 10.8877C23.1759 10.9565 23.0501 10.9997 22.9151 11.03C22.7484 11.0363 22.6876 11.0729 22.5615 11.1438C22.5406 11.2876 22.4987 11.3282 22.3709 11.3713C22.2437 11.4269 22.1426 11.4567 21.9901 11.4567C21.9144 11.4567 21.8371 11.4676 21.7996 11.4284C21.9208 11.2901 21.9571 11.2251 22.0173 11.087C22.0408 11.0295 22.0901 10.9925 22.0446 10.9447C21.8834 10.9511 21.8412 10.95 21.8269 11.1154C21.8086 11.2652 21.7511 11.2904 21.6365 11.3429C21.6673 11.2042 21.6725 11.0977 21.7181 10.9732C21.6218 10.9951 21.4963 11.0016 21.3644 11.0016C21.2819 11.0539 21.2477 11.0742 21.2827 11.1724C21.1734 11.2104 21.0402 11.187 20.9019 11.1724C20.7864 11.1661 20.8502 11.1137 20.7661 11.0586C20.7108 10.9502 20.6474 10.9239 20.5211 10.9163C20.4584 10.9947 20.3423 11.0272 20.2762 11.087C20.1571 11.1287 20.0812 11.0941 19.9771 11.0301C19.8412 11.0342 19.8594 11.0781 19.8954 11.1723C19.9472 11.2085 19.8922 11.2479 19.9771 11.2577C20.0552 11.3287 20.1221 11.3431 20.2762 11.3431C20.3941 11.3122 20.5241 11.3147 20.6571 11.3147C20.7914 11.3189 20.766 11.3506 20.766 11.4853C20.6781 11.5475 20.5501 11.5422 20.4122 11.5422C20.2809 11.5259 20.1802 11.4919 20.0858 11.4569C19.9583 11.4475 19.8565 11.4232 19.7593 11.4569C19.7155 11.5055 19.5835 11.5267 19.7321 11.5423C19.7905 11.5973 20.1053 11.5708 20.1277 11.6645C20.2019 11.747 20.1854 11.8553 20.0586 11.8553C19.9815 11.8151 19.9219 11.825 19.8681 11.8553C19.7776 11.8791 19.67 11.8618 19.5119 11.8737C19.7183 11.8907 19.3619 11.6495 19.2811 11.5518L19.2812 11.5515Z" fill="#FEFEFE"/>
<path fill-rule="evenodd" clip-rule="evenodd" d="M20.1406 10.6042C20.1316 10.6042 20.0504 10.6606 19.9773 10.7178C19.8579 10.7818 19.7302 10.8908 19.651 10.9453C19.5886 10.9953 19.589 11.0172 19.5151 11.0308C19.6447 11.0125 19.7025 10.9794 19.8143 10.917C19.9556 10.9 20.0925 10.87 20.168 10.8033C20.2388 10.7784 20.1626 10.6649 20.1407 10.6041L20.1406 10.6042ZM21.3927 9.26667C21.4083 9.26667 21.4402 9.35559 21.5014 9.40884C21.5406 9.51801 21.5766 9.59509 21.5831 9.72176C21.6164 9.58284 21.6734 9.47109 21.6918 9.32359C21.6496 9.24859 21.6468 9.21359 21.5286 9.20984C21.5286 9.28667 21.5376 9.23651 21.3927 9.26667Z" fill="#BCBCBC"/>
<path fill-rule="evenodd" clip-rule="evenodd" d="M20.6276 10.2687C20.5667 10.2687 20.7349 10.2055 20.7911 10.1836C20.836 10.0852 20.8717 10.0155 20.9547 9.95683C21.0912 9.96775 21.1582 10.0087 21.2272 10.0985C21.3419 10.1311 21.3833 10.1879 21.5269 10.2119C21.5804 10.2589 21.6527 10.2643 21.5269 10.297C21.4416 10.3442 21.3342 10.3539 21.2001 10.3539C21.0595 10.3644 20.9589 10.3967 20.8729 10.439C20.6904 10.439 20.7196 10.4454 20.6274 10.2688L20.6276 10.2687Z" fill="#C4C4C2" stroke="black" stroke-width="0.6605"/>
<path fill-rule="evenodd" clip-rule="evenodd" d="M21.8813 9.295V9.32333C21.8813 9.24667 21.8796 9.28583 21.9086 9.43717C21.9536 9.53258 21.963 9.63492 21.963 9.77858C22.0344 9.72525 22.094 9.61892 22.1263 9.5225C22.1263 9.29792 22.0958 9.31117 21.8813 9.295ZM22.8883 12.5658H22.9156C22.8356 12.5658 22.8806 12.5708 23.0244 12.4805C23.1175 12.4157 23.1936 12.3197 23.3237 12.2813C23.4496 12.178 23.5465 12.1297 23.6772 12.0823C23.7411 12.0517 23.7972 11.9986 23.8677 12.054C23.8475 12.1942 23.8242 12.2473 23.7044 12.3098C23.6426 12.3909 23.5451 12.4382 23.4597 12.4805C23.3712 12.5212 23.2739 12.5232 23.2421 12.6227C23.0941 12.6908 23.0759 12.6794 22.8884 12.5658H22.8883ZM23.4054 13.391C23.454 13.3527 23.6243 13.175 23.7046 13.1067C23.7954 12.9814 23.8873 12.8856 23.9766 12.8222C24.056 12.7001 24.1575 12.6183 24.2216 12.5092C24.2971 12.4137 24.3527 12.3326 24.4391 12.2249C24.4391 12.3492 24.4278 12.5141 24.4662 12.5947C24.4662 12.7665 24.4473 12.8135 24.3847 12.936C24.3231 13.0368 24.2769 13.1035 24.1399 13.1637C24.0162 13.2322 23.9421 13.2562 23.8406 13.3342C23.7631 13.384 23.6825 13.4336 23.5956 13.4764C23.5179 13.5114 23.5536 13.4961 23.4053 13.3911L23.4054 13.391ZM22.5621 14.045H22.5893C22.5093 14.045 22.5543 14.0498 22.6981 13.9596C22.8142 13.8382 22.9067 13.796 23.0519 13.7321C23.1623 13.7231 23.2959 13.6944 23.3783 13.6467C23.4441 13.6345 23.49 13.5927 23.5415 13.6467C23.6269 13.7675 23.6504 13.8015 23.5142 13.8742C23.4492 13.932 23.3344 13.9902 23.2424 14.0165C23.1745 14.075 23.0399 14.0787 22.9159 14.1018C22.8047 14.1018 22.743 14.1149 22.6982 14.0449L22.9159 14.1017C22.8047 14.1017 22.743 14.1148 22.5622 14.0448L22.5621 14.045ZM23.7316 14.045V14.0165C23.7316 14.0959 23.7283 14.0538 23.7861 13.9027C23.8881 13.7435 23.9264 13.6557 24.0581 13.6182C24.1198 13.5402 24.2267 13.52 24.3573 13.4759C24.4065 13.5615 24.3687 13.6612 24.3573 13.7605C24.3219 13.8667 24.2248 13.9417 24.167 14.0166C24.0821 14.0768 24.0476 14.1347 23.9221 14.1587C23.8183 14.1587 23.8734 14.1561 23.7316 14.045Z" fill="#BCBCBC"/>
<path fill-rule="evenodd" clip-rule="evenodd" d="M21.0655 10.3467C21.0655 10.4252 21.0047 10.4888 20.9295 10.4888C20.8545 10.4888 20.7935 10.4252 20.7935 10.3466C20.7935 10.2679 20.8544 10.2043 20.9295 10.2043C21.0047 10.2043 21.0655 10.2679 21.0655 10.3465V10.3467Z" fill="black"/>
<path fill-rule="evenodd" clip-rule="evenodd" d="M21.4707 18.0962H21.5798C21.2381 18.0962 21.4422 18.0724 22.0157 18.5498C22.2559 18.3415 22.2531 18.3134 22.4517 18.6633C22.5664 18.8622 22.6001 18.6428 22.7786 18.4363C22.8649 18.8483 22.9199 19.2806 23.2148 18.89C23.5515 18.89 23.9042 18.8609 24.0867 19.0035C24.3076 19.4303 24.2354 18.9313 24.414 19.1171C24.894 19.177 24.8849 18.6887 25.4076 18.5624C25.7326 18.985 25.8751 18.6599 26.2799 18.4491C26.5806 18.5366 26.864 19.0112 26.9212 18.5498C27.1674 18.132 27.1888 18.1674 27.3573 18.5498C27.5966 18.7742 27.6977 18.4377 27.9025 18.3231C28.2673 18.5451 28.6743 18.5758 29.2106 18.4365C29.3013 18.8143 29.5302 18.6504 29.7556 18.5498C30.2379 18.7607 30.406 18.8253 30.9547 18.5498C31.2266 18.2157 31.0726 18.5592 31.2816 18.7768C31.6881 18.6454 31.576 18.6176 32.045 18.6633C32.5161 18.6633 32.5543 18.6513 32.6989 18.3229C32.9357 18.5693 33.0213 18.7469 33.3529 18.4363C33.8611 18.4518 33.7039 18.5031 34.0071 18.3229C34.2313 18.8396 34.284 18.4663 34.5522 18.663C34.3755 19.1291 34.1041 19.3477 33.7891 19.5706C33.5794 19.932 33.4481 20.3223 33.0258 20.4782C32.7177 20.8052 32.3895 20.9947 32.0447 21.2722C31.5721 21.395 31.0519 21.3855 30.5185 21.3855H25.9403C25.6147 21.5548 25.082 21.6355 24.6321 21.7256C24.1295 21.7256 23.5597 21.732 23.2149 21.6123C22.9812 21.3692 22.5711 21.0976 22.343 20.8183C22.1117 20.6244 22.1049 20.2458 21.9067 20.0243C21.7242 19.6996 21.668 19.1918 21.4707 18.8898V18.0962Z" fill="#005120" fill-opacity="0.996" stroke="#002B0D" stroke-opacity="0.996" stroke-width="1.0065"/>
<path fill-rule="evenodd" clip-rule="evenodd" d="M32.044 19.1177V19.2312C32.044 18.9142 32.0575 19.0825 31.8259 19.6848C31.7791 19.8311 31.6764 19.8653 31.4988 19.9116M31.0635 19.5708H31.1725C30.7689 19.9673 30.4971 20.1502 30.4093 20.5916L31.1725 19.5708C30.7689 19.9673 30.4971 20.1502 30.4093 20.5916M29.5366 19.0048C29.5366 19.015 29.5213 19.4094 29.4276 19.572L29.5366 19.0048ZM28.2293 19.1177C28.302 19.1177 28.2655 19.1177 28.2293 19.1177ZM22.1243 19.1177C22.1764 19.1177 22.3907 19.4778 22.6694 19.6849C22.6 20.0167 22.4934 20.4007 22.6694 20.7057M22.9963 19.7978C23.0483 19.7978 23.2627 20.1581 23.5414 20.3651L22.9963 19.7978C23.0483 19.7978 23.2627 20.1581 23.5414 20.3651V20.4785C23.5414 20.1282 23.5133 19.7612 23.6503 19.571C23.7715 19.7844 23.9246 20.1276 23.9774 19.7978C24.5914 19.775 24.8876 19.5956 25.2856 19.4578C25.2856 19.6246 25.2597 19.5443 25.3946 19.6844M32.8074 19.2307H32.9164C32.7108 19.409 32.5531 19.7724 32.3713 20.0247" fill="#005120" fill-opacity="0.996"/>
<path d="M32.044 19.1177V19.2312C32.044 18.9142 32.0575 19.0825 31.8259 19.6848C31.7791 19.8311 31.6764 19.8653 31.4988 19.9116M31.1725 19.5707C30.7689 19.9672 30.4971 20.1502 30.4093 20.5916L31.1725 19.5707ZM29.5366 19.0047C29.5366 19.015 29.5213 19.4094 29.4276 19.572L29.5366 19.0047ZM28.2293 19.1177C28.302 19.1177 28.2655 19.1177 28.2293 19.1177ZM22.1243 19.1177C22.1764 19.1177 22.3907 19.4778 22.6694 19.6849C22.6 20.0167 22.4934 20.4007 22.6694 20.7057M23.5414 20.3651C23.2627 20.1581 23.0483 19.7978 22.9963 19.7978L23.5414 20.3651ZM23.5414 20.3651V20.4785C23.5414 20.1282 23.5133 19.7612 23.6503 19.571C23.7715 19.7844 23.9246 20.1276 23.9774 19.7978C24.5914 19.775 24.8876 19.5956 25.2856 19.4577C25.2856 19.6246 25.2597 19.5442 25.3946 19.6844M32.8074 19.2307H32.9164C32.7108 19.409 32.5531 19.7724 32.3713 20.0247" fill="black"/>
<path d="M32.044 19.1177V19.2312C32.044 18.9142 32.0575 19.0825 31.8259 19.6848C31.7791 19.8311 31.6764 19.8653 31.4988 19.9116M31.0635 19.5707H31.1725M31.1725 19.5707C30.7689 19.9672 30.4971 20.1502 30.4093 20.5916L31.1725 19.5707ZM29.5366 19.0047C29.5366 19.015 29.5213 19.4094 29.4276 19.572M29.1013 19.7978V19.9113M28.2293 19.1177H28.3383M28.2293 19.1177C28.2655 19.1177 28.302 19.1177 28.2293 19.1177ZM22.1243 19.1177C22.1764 19.1177 22.3907 19.4778 22.6694 19.6849C22.6 20.0167 22.4934 20.4007 22.6694 20.7057M23.5414 20.3651C23.2627 20.1581 23.0483 19.7978 22.9963 19.7978L23.5414 20.3651ZM23.5414 20.3651V20.4785C23.5414 20.1282 23.5133 19.7612 23.6503 19.571C23.7715 19.7844 23.9246 20.1276 23.9774 19.7978C24.5914 19.775 24.8876 19.5956 25.2856 19.4577C25.2856 19.6246 25.2597 19.5442 25.3946 19.6844M32.8074 19.2307H32.9164C32.7108 19.409 32.5531 19.7724 32.3713 20.0247M28.3378 18.8906H29.2098" stroke="#002B0D" stroke-opacity="0.996" stroke-width="1.0065"/>
<path fill-rule="evenodd" clip-rule="evenodd" d="M21.1341 19.9452C19.8256 19.9452 19.3919 21.3127 18.0832 21.3127C18.0581 21.3127 18.0342 21.3107 18.0096 21.3097V21.3925C18.0046 22.3404 18.0792 23.2233 18.2151 24.0478C19.4222 23.9597 19.8706 22.6803 21.1341 22.6803C22.4428 22.6803 22.8796 24.0508 24.1883 24.0508C25.4971 24.0508 25.9336 22.6802 27.2421 22.6802C28.5507 22.6802 28.9875 24.0508 30.2961 24.0508C31.6048 24.0508 32.0415 22.6802 33.3501 22.6802C34.6103 22.6802 35.0601 23.9506 36.2601 24.0447C36.4037 23.1982 36.4796 22.2888 36.4746 21.3127V21.3096C36.4501 21.3106 36.4262 21.3127 36.401 21.3127C35.0925 21.3127 34.6588 19.9452 33.3501 19.9452C32.0415 19.9452 31.6048 21.3127 30.2962 21.3127C28.9876 21.3127 28.5509 19.9452 27.2422 19.9452C25.9336 19.9452 25.4969 21.3127 24.1883 21.3127C22.8797 21.3127 22.443 19.9452 21.1344 19.9452H21.1341ZM21.1341 25.2838C20.1162 25.2838 19.6266 26.109 18.8436 26.4766C19.1044 27.1944 19.4297 27.8872 19.8156 28.5462C20.1873 28.2651 20.5825 28.0219 21.1341 28.0219C22.4421 28.0209 22.8786 29.3886 24.1875 29.3886C25.4962 29.3886 25.9329 28.0211 27.2416 28.0211C28.5501 28.0211 28.9869 29.3886 30.2955 29.3886C31.6041 29.3886 32.0408 28.0211 33.3495 28.0211C33.8888 28.0211 34.2786 28.2539 34.6434 28.5269C35.0293 27.8706 35.3556 27.1811 35.6184 26.4665C34.8481 26.094 34.3581 25.2829 33.3495 25.2829C32.0409 25.2829 31.6041 26.6504 30.2956 26.6504C28.987 26.6504 28.5501 25.2829 27.2414 25.2829C25.9329 25.2829 25.4961 26.6504 24.1876 26.6504C22.879 26.6504 22.4422 25.2829 21.1336 25.2829L21.1341 25.2838ZM27.2411 30.6215C25.9325 30.6215 25.4957 31.9922 24.1871 31.9922C22.9496 31.9922 22.4916 30.7669 21.3386 30.6338C22.8795 32.3502 24.6268 33.3895 25.8184 33.9605C26.2214 33.6478 26.6387 34.3408 27.2411 34.3408C27.8392 34.3408 28.2544 33.6442 28.6546 33.9545C29.833 33.3807 31.5591 32.3399 33.0915 30.6399C31.9761 30.8029 31.5138 31.992 30.295 31.992C28.9864 31.992 28.5496 30.6214 27.241 30.6214L27.2411 30.6215Z" fill="white"/>
<path d="M19.134 25.4009C19.3484 25.3267 20.3845 24.9922 20.4202 25.0292C20.4559 25.0663 22.421 27.0359 22.421 27.0359L20.7776 27.3703L19.134 25.4009Z" fill="black" stroke="#512007" stroke-opacity="0.996" stroke-width="0.3575"/>
<path d="M23.0905 28.6878C23.1207 28.2168 23.9994 25.5375 23.9994 25.5375L23.0905 28.6878ZM23.3927 28.7192C23.3927 28.6898 24.0896 25.5665 24.0896 25.5665L23.3927 28.7192ZM23.6315 28.7242C23.6616 28.5476 24.2108 25.5667 24.2108 25.5667L23.6315 28.7242ZM23.1207 28.3049C23.2721 28.2166 23.7266 28.0988 23.7266 28.0988L23.1207 28.3049ZM23.3323 27.8339C23.4837 27.8339 23.7867 27.7161 23.7867 27.7161L23.3323 27.8339ZM23.423 27.4804C23.423 27.4511 23.8774 27.3627 23.8774 27.3627L23.423 27.4804ZM23.696 26.656C23.696 26.6853 24.0293 26.6853 24.0293 26.6853L23.696 26.656ZM23.7867 26.3025C23.8472 26.3025 24.12 26.3613 24.12 26.3613L23.7867 26.3025Z" fill="black"/>
<path d="M23.0905 28.6878C23.1207 28.2168 23.9994 25.5375 23.9994 25.5375M23.3927 28.7192C23.3927 28.6898 24.0896 25.5665 24.0896 25.5665M23.6315 28.7242C23.6616 28.5476 24.2108 25.5667 24.2108 25.5667M23.1207 28.3049C23.2721 28.2166 23.7266 28.0988 23.7266 28.0988M23.3323 27.8339C23.4837 27.8339 23.7867 27.7161 23.7867 27.7161M23.423 27.4804C23.423 27.4511 23.8774 27.3627 23.8774 27.3627M23.4834 27.0388L23.9681 26.9505M23.696 26.656C23.696 26.6853 24.0293 26.6853 24.0293 26.6853M23.7867 26.3025C23.8472 26.3025 24.12 26.3613 24.12 26.3613" stroke="#512007" stroke-opacity="0.996" stroke-width="0.366"/>
<path d="M28.8027 30.6286C28.767 29.8238 27.7309 25.2457 27.7309 25.2457L28.8027 30.6286ZM28.4463 30.4762C28.4463 30.4261 27.6245 25.2947 27.6245 25.2947L28.4463 30.4762ZM28.0885 30.0748C28.053 29.7729 27.4814 25.2957 27.4814 25.2957L28.0885 30.0748ZM28.767 29.9743C28.5885 29.8234 28.0526 29.6222 28.0526 29.6222L28.767 29.9743ZM28.5176 29.1696C28.339 29.1696 27.9816 28.9683 27.9816 28.9683L28.5176 29.1696ZM28.4106 28.5656C28.4106 28.5154 27.8747 28.3643 27.8747 28.3643L28.4106 28.5656ZM28.0885 27.1568C28.0885 27.207 27.6956 27.207 27.6956 27.207L28.0885 27.1568ZM27.9816 26.5528C27.9104 26.5528 27.5887 26.6532 27.5887 26.6532L27.9816 26.5528Z" fill="black"/>
<path d="M28.8027 30.6286C28.767 29.8238 27.7309 25.2457 27.7309 25.2457M28.4463 30.4762C28.4463 30.4261 27.6245 25.2947 27.6245 25.2947M28.0885 30.0748C28.053 29.7729 27.4814 25.2957 27.4814 25.2957M28.767 29.9743C28.5885 29.8234 28.0526 29.6222 28.0526 29.6222M28.5176 29.1696C28.339 29.1696 27.9816 28.9683 27.9816 28.9683M28.4106 28.5656C28.4106 28.5154 27.8747 28.3643 27.8747 28.3643M28.3393 27.811L27.7678 27.6601M28.0885 27.1568C28.0885 27.207 27.6956 27.207 27.6956 27.207M27.9816 26.5528C27.9104 26.5528 27.5887 26.6532 27.5887 26.6532" stroke="#512007" stroke-opacity="0.996" stroke-width="0.359"/>
<path d="M31.8411 29.0037C31.8054 28.4092 30.7693 25.0277 30.7693 25.0277L31.8411 29.0037ZM31.4846 28.8912C31.4846 28.8541 30.6629 25.0638 30.6629 25.0638L31.4846 28.8912ZM31.1269 28.5946C31.0913 28.3717 30.5198 25.0646 30.5198 25.0646L31.1269 28.5946ZM31.8054 28.5204C31.6269 28.409 31.0909 28.2603 31.0909 28.2603L31.8054 28.5204ZM31.5559 27.926C31.3774 27.926 31.02 27.7773 31.02 27.7773L31.5559 27.926ZM31.449 27.4798C31.449 27.4428 30.9131 27.3312 30.9131 27.3312L31.449 27.4798ZM31.1269 26.4393C31.1269 26.4764 30.734 26.4764 30.734 26.4764L31.1269 26.4393ZM31.02 25.9932C30.9487 25.9932 30.627 26.0673 30.627 26.0673L31.02 25.9932Z" fill="black"/>
<path d="M31.8411 29.0037C31.8054 28.4092 30.7693 25.0277 30.7693 25.0277M31.4846 28.8912C31.4846 28.8541 30.6629 25.0638 30.6629 25.0638M31.1269 28.5946C31.0913 28.3717 30.5198 25.0646 30.5198 25.0646M31.8054 28.5204C31.6269 28.409 31.0909 28.2603 31.0909 28.2603M31.5559 27.926C31.3774 27.926 31.02 27.7773 31.02 27.7773M31.449 27.4798C31.449 27.4428 30.9131 27.3312 30.9131 27.3312M31.3777 26.9225L30.8061 26.8111M31.1269 26.4393C31.1269 26.4764 30.734 26.4764 30.734 26.4764M31.02 25.9932C30.9487 25.9932 30.627 26.0673 30.627 26.0673" stroke="#512007" stroke-opacity="0.996" stroke-width="0.3575"/>
<path fill-rule="evenodd" clip-rule="evenodd" d="M26.8508 29.3394C26.8508 29.3024 26.958 20.0128 26.958 20.0128C26.958 20.0128 27.2795 19.9757 27.2795 20.0128C27.2795 20.0498 27.2439 29.3024 27.2082 29.3394C27.1726 29.3765 26.8149 29.4136 26.8508 29.3394ZM30.3527 20.4218C30.3527 20.4962 30.2811 28.2622 30.2811 28.2622L30.031 28.5596L30.1025 20.4217H30.3527V20.4218Z" fill="#DD8B59" stroke="#512007" stroke-opacity="0.996" stroke-width="0.3575"/>
<path fill-rule="evenodd" clip-rule="evenodd" d="M22.8856 27.8157C22.8856 27.8157 23.2429 31.643 27.3518 31.5315C31.4606 31.4201 32.604 27.6672 32.604 27.6672C32.604 27.6672 30.8531 27.5927 30.8174 27.5927C30.7818 27.5927 29.3882 29.3764 27.6019 29.3392C25.8155 29.302 25.2437 28.856 24.8506 28.4847C24.4577 28.113 24.1004 27.5557 24.1004 27.5557L22.028 26.701L22.1353 27.5185L22.8856 27.8157ZM33.9775 27.4181C33.942 27.3067 33.8538 26.9239 33.8538 26.9239V26.478L34.0517 26.0265C34.0517 26.0265 30.9431 26.4897 30.9431 26.5268C30.9431 26.4841 30.924 27.407 30.924 27.407L33.9775 27.4181Z" fill="#DD8B59" stroke="#512007" stroke-opacity="0.996" stroke-width="0.3575"/>
<path d="M22.7416 27.7786C22.8488 27.7786 23.6706 27.9643 23.6706 27.9643L24.5281 29.1534M33.3899 26.4785L33.3186 27.2588H33.8186L33.783 26.4785H33.3899ZM32.854 26.5156L32.8183 27.333L33.1397 27.2959L33.1754 26.5156H32.854ZM32.3181 27.3325V26.701L32.6396 26.5893L32.6752 27.2208L32.3181 27.3325ZM31.7096 27.2967L31.7811 26.7393L32.1384 26.7764L32.174 27.3708L31.7096 27.2967ZM31.0311 27.2967L31.0668 26.8135L31.4242 26.7764V27.3338L31.0311 27.2967Z" fill="black"/>
<path d="M22.7416 27.7786C22.8488 27.7786 23.6706 27.9643 23.6706 27.9643L24.5281 29.1534M33.3899 26.4785L33.3186 27.2588H33.8186L33.783 26.4785H33.3899ZM32.854 26.5156L32.8183 27.333L33.1397 27.2959L33.1754 26.5156H32.854ZM32.3181 27.3325V26.701L32.6396 26.5893L32.6752 27.2208L32.3181 27.3325ZM31.7096 27.2967L31.7811 26.7393L32.1384 26.7764L32.174 27.3708L31.7096 27.2967ZM31.0311 27.2967L31.0668 26.8135L31.4242 26.7764V27.3338L31.0311 27.2967Z" stroke="#512007" stroke-opacity="0.996" stroke-width="0.3575"/>
<path d="M23.35 27.9282C23.3857 27.9652 24.1004 30.4549 27.5305 30.4549C30.9605 30.4549 31.7821 27.6311 31.7821 27.6311" fill="black"/>
<path d="M23.35 27.9282C23.3857 27.9652 24.1004 30.4549 27.5305 30.4549C30.9605 30.4549 31.7821 27.6311 31.7821 27.6311" stroke="#512007" stroke-opacity="0.996" stroke-width="0.3575"/>
<path d="M32.3181 27.7045C32.3181 27.7045 30.6747 31.4203 27.5306 31.1602C24.3863 30.9002 23.8861 29.6738 23.6359 29.0422C23.3858 28.4105 23.243 27.8905 23.243 27.8905" fill="black"/>
<path d="M32.3181 27.7045C32.3181 27.7045 30.6747 31.4203 27.5306 31.1602C24.3863 30.9002 23.8861 29.6738 23.6359 29.0422C23.3858 28.4105 23.243 27.8905 23.243 27.8905" stroke="#512007" stroke-opacity="0.996" stroke-width="0.3575"/>
<path fill-rule="evenodd" clip-rule="evenodd" d="M24.1356 27.5562C24.1713 27.3331 24.1712 20.6075 24.1712 20.6075L23.9569 20.5704L23.9212 27.4447L24.1356 27.5562ZM19.0259 25.3638L21.7412 26.7387L21.6699 26.9244C21.6699 26.9244 19.0616 25.661 19.0616 25.6238C19.0616 25.5868 19.0973 25.4381 19.0259 25.3638Z" fill="#DD8B59" stroke="#512007" stroke-opacity="0.996" stroke-width="0.3575"/>
<path fill-rule="evenodd" clip-rule="evenodd" d="M20.2771 24.9547C20.2771 25.0662 20.6702 27.3328 20.6702 27.3328C20.6702 27.3328 20.9203 27.3699 20.9203 27.3328C20.9203 27.2957 20.4913 24.992 20.4913 24.992L20.2771 24.9549V24.9547ZM22.7773 25.0289C22.9202 25.0289 25.3498 24.6202 25.3498 24.6202L25.314 25.0289L22.9202 25.2891L22.7773 25.0289Z" fill="#DD8B59" stroke="#512007" stroke-opacity="0.996" stroke-width="0.3575"/>
<path fill-rule="evenodd" clip-rule="evenodd" d="M23.1351 21.9456C23.2063 21.9456 23.9925 22.3544 24.3141 22.2429C24.6357 22.1314 24.4212 21.8713 24.4927 21.8713C24.5642 21.8713 24.8142 22.0569 24.9573 21.9083C25.1002 21.7597 25.2073 21.3139 25.1359 21.351C25.0643 21.3881 23.1707 22.0941 23.1351 21.9454V21.9456Z" fill="#FECF3E" stroke="#512007" stroke-opacity="0.996" stroke-width="0.3575"/>
<path fill-rule="evenodd" clip-rule="evenodd" d="M22.8142 22.8737C22.9571 22.9107 25.744 22.0933 25.744 22.0933C25.744 22.0933 25.744 22.3535 25.7084 22.3535C25.6728 22.3535 22.8142 23.1339 22.8142 23.1339V22.8737Z" fill="#DD8B59" stroke="#512007" stroke-opacity="0.996" stroke-width="0.3575"/>
<path fill-rule="evenodd" clip-rule="evenodd" d="M29.2809 21.7218C29.2809 21.7218 29.4596 22.1677 29.6382 22.0935C29.8168 22.0192 29.9955 21.8705 29.9955 21.8705C29.9955 21.8705 30.1385 22.2422 30.3885 22.1677C30.6387 22.0936 30.7818 21.6846 30.7818 21.6846C30.7818 21.6846 31.0317 21.7591 31.1389 21.7218C31.2462 21.6848 31.389 21.0903 31.389 21.0903L29.281 21.7218H29.2809ZM29.0657 25.3267C29.0302 25.4009 29.2445 25.5869 29.4231 25.5869C29.6017 25.5869 29.6732 25.3267 29.7089 25.401C29.7445 25.4756 29.7445 25.8101 30.2092 25.6985C30.6737 25.5869 30.6737 25.2527 30.6737 25.2527C30.6737 25.2527 30.5307 25.3638 30.8522 25.4009C31.1738 25.4382 31.4953 24.918 31.4597 24.918C31.4241 24.918 29.1373 25.3641 29.0657 25.3267Z" fill="#FECF3E" stroke="#512007" stroke-opacity="0.996" stroke-width="0.3575"/>
<path fill-rule="evenodd" clip-rule="evenodd" d="M22.921 21.796C22.8854 21.9447 22.9567 22.1305 22.9567 22.1305L25.2791 21.3131C25.2791 21.3131 25.3863 21.1272 25.2791 21.1272C25.1719 21.1272 22.8853 21.8704 22.921 21.796ZM25.9939 21.2758C26.0653 21.2758 28.3878 20.4954 28.3878 20.4954C28.3878 20.4954 28.4234 20.8298 28.3878 20.8298C28.3521 20.8298 26.2084 21.4987 26.2084 21.4987L25.9939 21.2758Z" fill="#DD8B59" stroke="#512007" stroke-opacity="0.996" stroke-width="0.3575"/>
<path fill-rule="evenodd" clip-rule="evenodd" d="M29.0657 22.912C29.0657 22.912 28.7084 23.3207 28.8155 23.878C28.9227 24.4354 29.0657 24.9186 29.1014 24.9186C29.1372 24.9186 29.5304 24.1753 29.959 24.1382C30.3876 24.101 31.1738 24.547 31.1738 24.547C31.1738 24.547 31.0666 23.6551 31.1025 23.2464C31.1382 22.8376 31.7454 22.1317 31.7454 22.1317L29.0657 22.912Z" fill="#FECF3E" stroke="#512007" stroke-opacity="0.996" stroke-width="0.3575"/>
<path fill-rule="evenodd" clip-rule="evenodd" d="M25.8146 22.2422C25.8146 22.2422 25.7433 22.5766 25.779 22.5766C25.8146 22.5766 28.8159 21.7591 28.8159 21.7591V21.5363L25.8146 22.2422Z" fill="#DD8B59" stroke="#512007" stroke-opacity="0.996" stroke-width="0.3575"/>
<path fill-rule="evenodd" clip-rule="evenodd" d="M21.9563 26.7393C21.9563 26.7393 21.2418 26.6278 21.2775 26.8135C21.3131 26.9993 21.6348 27.1852 21.6706 27.2967C21.7062 27.4082 21.5634 27.817 21.7777 27.7799C21.9921 27.7426 22.2065 27.5939 22.2065 27.4824C22.2065 27.3709 22.1708 26.8509 22.1708 26.8509L21.9563 26.7393Z" fill="#B6B6B4" fill-opacity="0.996" stroke="#512007" stroke-opacity="0.996" stroke-width="0.3575"/>
<path fill-rule="evenodd" clip-rule="evenodd" d="M25.9216 24.8806V25.1407L28.4942 24.7692L28.4227 24.5833L25.9216 24.8806Z" fill="#DD8B59" stroke="#512007" stroke-opacity="0.996" stroke-width="0.3575"/>
<path fill-rule="evenodd" clip-rule="evenodd" d="M22.8855 25.3268C22.921 25.3268 22.8855 25.6612 23.1712 25.5869C23.4571 25.5125 23.5285 25.3268 23.5285 25.3268C23.5285 25.3268 23.5998 25.7354 23.9931 25.6983C24.386 25.6613 24.6004 25.2152 24.6004 25.2152C24.6004 25.2152 24.636 25.5497 24.8863 25.4383C25.1365 25.3268 25.2078 25.0666 25.2078 25.0666L22.9569 25.401L22.8855 25.3269L22.8855 25.3268ZM22.8855 23.1344C22.8855 23.1344 22.5639 23.2459 22.671 23.9147C22.7782 24.5835 23.0284 24.9553 23.064 24.9553C23.0997 24.9553 23.3855 24.3235 23.8143 24.2121C24.2433 24.1004 24.9935 24.5465 24.9935 24.5465C24.9935 24.5465 24.9219 23.952 25.0291 23.3947C25.1364 22.8371 25.4937 22.4283 25.4937 22.4283C25.4937 22.4283 22.9926 23.1344 22.8855 23.1344Z" fill="#FECF3E" stroke="#512007" stroke-opacity="0.996" stroke-width="0.3575"/>
<path fill-rule="evenodd" clip-rule="evenodd" d="M28.8875 25.066L28.9232 25.2889C28.9232 25.2889 31.4958 24.9545 31.4958 24.9173C31.4958 24.8802 31.4958 24.6573 31.4602 24.6573C31.4243 24.6573 28.9232 25.1032 28.8875 25.066ZM28.8519 22.6883L28.8875 22.9483L31.9245 22.0938C31.9245 22.0938 31.9961 21.8707 31.9602 21.8707C31.9243 21.8707 28.9233 22.7998 28.8519 22.6883Z" fill="#DD8B59" stroke="#512007" stroke-opacity="0.996" stroke-width="0.3575"/>
<path d="M31.4246 24.6952C31.4603 24.5838 31.5676 22.3544 31.5676 22.3544L31.4246 24.6952ZM29.1741 21.4994C29.1741 21.4994 29.1384 21.7223 29.1741 21.7223C29.2096 21.7223 31.425 21.165 31.425 21.1279C31.425 21.0909 31.6394 20.8677 31.4606 20.9049C31.2821 20.9419 29.2456 21.6109 29.1741 21.4994Z" fill="black"/>
<path d="M33.926 25.81L31.7098 22.168M31.4246 24.6952C31.4603 24.5838 31.5676 22.3544 31.5676 22.3544M29.1741 21.4994C29.1741 21.4994 29.1384 21.7223 29.1741 21.7223C29.2096 21.7223 31.425 21.165 31.425 21.1279C31.425 21.0909 31.6394 20.8677 31.4606 20.9049C31.2821 20.9419 29.2456 21.6109 29.1741 21.4994Z" stroke="#512007" stroke-opacity="0.996" stroke-width="0.3575"/>
<path fill-rule="evenodd" clip-rule="evenodd" d="M26.0654 21.3882C26.2083 21.4252 26.4585 21.7969 26.6013 21.7226C26.7442 21.6485 26.9586 21.4254 26.9586 21.4254C26.9586 21.4254 26.923 21.8716 27.2087 21.797C27.4945 21.7229 27.5303 21.4255 27.5303 21.4255C27.5303 21.4255 27.7446 21.5372 27.9232 21.4255C28.102 21.3143 28.2805 20.7567 28.2091 20.7567C28.1377 20.7567 26.137 21.4257 26.0655 21.3885L26.0654 21.3882ZM25.994 22.4658C25.994 22.54 25.6367 23.1347 25.744 23.692C25.8511 24.2494 26.0655 24.7697 26.1012 24.7697C26.137 24.7697 26.6728 24.1752 27.1375 24.0637C27.6018 23.952 28.2805 24.4351 28.2449 24.4351C28.2093 24.4351 28.0663 23.8777 28.0663 23.4689C28.0663 23.0602 28.6022 21.7969 28.6022 21.7969L25.994 22.4657L25.994 22.4658ZM25.994 25.1414C25.994 25.1785 26.1012 25.4387 26.3514 25.4387C26.6014 25.4387 26.6372 25.1786 26.6372 25.1786C26.6372 25.1786 26.6015 25.6247 26.9945 25.5877C27.3873 25.5503 27.5304 25.1415 27.5304 25.1415C27.5304 25.1415 27.566 25.3646 27.8876 25.2531C28.2091 25.1415 28.6379 24.7699 28.6021 24.7699C28.5665 24.7699 26.0295 25.2531 25.9938 25.1415L25.994 25.1414Z" fill="#FECF3E" stroke="#512007" stroke-opacity="0.996" stroke-width="0.3575"/>
<path fill-rule="evenodd" clip-rule="evenodd" d="M26.2999 23.7208C26.3251 23.7219 26.3498 23.7282 26.3724 23.7391C26.3951 23.75 26.4154 23.7654 26.4319 23.7843C26.4659 23.8231 26.484 23.8744 26.4821 23.9272C26.4804 23.9794 26.4586 24.029 26.4213 24.0656C26.4034 24.0833 26.3821 24.097 26.3587 24.1061C26.3353 24.1153 26.3103 24.1195 26.2851 24.1186C26.26 24.1175 26.2354 24.1113 26.2127 24.1003C26.19 24.0894 26.1698 24.0741 26.1532 24.0551C26.1189 24.0157 26.1009 23.9645 26.1029 23.9123C26.1049 23.8596 26.1268 23.8098 26.1638 23.7738C26.1817 23.7563 26.203 23.7424 26.2264 23.7333C26.2499 23.7242 26.2749 23.7199 26.2999 23.7208ZM27.5901 23.3748C27.6153 23.3758 27.6399 23.382 27.6626 23.3929C27.6853 23.4038 27.7054 23.4193 27.7219 23.4383C27.7561 23.4769 27.7742 23.5283 27.7722 23.581C27.7705 23.6333 27.7488 23.6828 27.7114 23.7195C27.6935 23.7371 27.6722 23.7509 27.6488 23.76C27.6254 23.7691 27.6004 23.7733 27.5752 23.7724C27.5501 23.7713 27.5254 23.7652 27.5028 23.7543C27.4801 23.7433 27.4599 23.7279 27.4434 23.7089C27.4089 23.6695 27.3909 23.6184 27.3931 23.5662C27.3949 23.5139 27.4166 23.4643 27.4539 23.4278C27.4718 23.4101 27.4931 23.3963 27.5165 23.3872C27.5399 23.3781 27.565 23.3738 27.5901 23.3748ZM26.945 24.0896C26.9702 24.0907 26.9949 24.0969 27.0175 24.1078C27.0401 24.1188 27.0604 24.1342 27.0769 24.1531C27.111 24.1918 27.1291 24.2432 27.1272 24.2959C27.1254 24.3482 27.1037 24.3977 27.0664 24.4343C27.0484 24.452 27.0272 24.4658 27.0037 24.4749C26.9803 24.484 26.9553 24.4883 26.9301 24.4873C26.905 24.4863 26.8804 24.48 26.8577 24.4691C26.835 24.4582 26.8149 24.4428 26.7983 24.4238C26.7639 24.3844 26.7459 24.3333 26.748 24.281C26.75 24.2283 26.7719 24.1785 26.8088 24.1426C26.8268 24.125 26.848 24.1112 26.8715 24.1021C26.8949 24.093 26.9199 24.0888 26.945 24.0896ZM26.945 23.005C26.9702 23.0061 26.9949 23.0123 27.0175 23.0232C27.0402 23.0341 27.0604 23.0495 27.0769 23.0685C27.111 23.1072 27.1291 23.1585 27.1272 23.2113C27.1254 23.2635 27.1037 23.3131 27.0664 23.3498C27.0484 23.3673 27.0271 23.3812 27.0037 23.3903C26.9803 23.3993 26.9553 23.4036 26.9301 23.4027C26.905 23.4016 26.8804 23.3954 26.8577 23.3845C26.835 23.3736 26.8149 23.3582 26.7983 23.3392C26.7639 23.2998 26.7459 23.2487 26.748 23.1964C26.7498 23.1442 26.7715 23.0947 26.8088 23.058C26.8267 23.0403 26.848 23.0266 26.8714 23.0175C26.8949 23.0083 26.9199 23.0041 26.945 23.005Z" fill="#BE0F17" fill-opacity="0.996" stroke="#512007" stroke-opacity="0.996" stroke-width="0.3585"/>
<path d="M27.2084 20.1239C27.2084 20.0868 28.3159 20.6072 28.3159 20.6442C28.3159 20.6813 32.2461 26.1065 32.2819 26.1065M30.3169 20.6442L31.3175 21.0903L31.6389 21.9076M24.0999 20.5701C24.0642 20.5701 25.2073 21.4618 25.2073 21.4618L25.3504 22.2051M20.2059 25.9953C20.7061 25.7724 24.1717 22.6138 24.1717 22.6138L20.2059 25.9953ZM19.2766 25.4009C19.7055 25.0292 23.171 21.9824 23.171 21.9824L19.2766 25.4009ZM29.0251 25.1299C29.0251 25.1299 29.4592 26.6268 29.8879 26.8499C30.3167 27.073 30.8169 27.4443 30.8169 27.4443" fill="black"/>
<path d="M27.2084 20.1239C27.2084 20.0868 28.3159 20.6072 28.3159 20.6442C28.3159 20.6813 32.2461 26.1065 32.2819 26.1065M30.3169 20.6442L31.3175 21.0903L31.6389 21.9076M24.0999 20.5701C24.0642 20.5701 25.2073 21.4618 25.2073 21.4618L25.3504 22.2051M20.2059 25.9953C20.7061 25.7724 24.1717 22.6138 24.1717 22.6138M19.2766 25.4009C19.7055 25.0292 23.171 21.9824 23.171 21.9824M25.7789 22.5029L29.459 28.857M29.0251 25.1299C29.0251 25.1299 29.4592 26.6268 29.8879 26.8499C30.3167 27.073 30.8169 27.4443 30.8169 27.4443" stroke="#512007" stroke-opacity="0.996" stroke-width="0.3575"/>
<path d="M28.976 25.1618C28.976 25.1618 29.2809 26.9251 29.7099 27.2596C30.1388 27.5942 30.5673 27.9655 30.5673 27.9655M26.011 25.1545C26.011 25.1545 26.4398 27.6069 27.2974 28.1643C27.8242 28.5069 28.3482 28.8538 28.8695 29.2049" fill="black"/>
<path d="M28.976 25.1618C28.976 25.1618 29.2809 26.9251 29.7099 27.2596C30.1388 27.5942 30.5673 27.9655 30.5673 27.9655M26.011 25.1545C26.011 25.1545 26.4398 27.6069 27.2974 28.1643C27.8242 28.5069 28.3482 28.8538 28.8695 29.2049" stroke="#512007" stroke-opacity="0.996" stroke-width="0.3575"/>
<path d="M25.9753 25.1174C25.9753 25.1174 26.9042 27.0497 27.6902 27.6443C28.4763 28.2387 29.5481 28.7961 29.5481 28.7961M22.9749 25.2657C23.2249 25.7116 23.1893 26.5663 23.4752 26.8636C23.7609 27.1608 24.1897 27.8297 24.1897 27.8297" fill="black"/>
<path d="M25.9753 25.1174C25.9753 25.1174 26.9042 27.0497 27.6902 27.6443C28.4763 28.2387 29.5481 28.7961 29.5481 28.7961M22.9749 25.2657C23.2249 25.7116 23.1893 26.5663 23.4752 26.8636C23.7609 27.1608 24.1897 27.8297 24.1897 27.8297" stroke="#512007" stroke-opacity="0.996" stroke-width="0.3575"/>
<path d="M23.0464 25.3027C23.1893 25.5257 23.588 26.6358 23.8325 26.9748C24.0111 27.2722 25.8333 29.1672 25.8333 29.1672" fill="black"/>
<path d="M23.0464 25.3027C23.1893 25.5257 23.588 26.6358 23.8325 26.9748C24.0111 27.2722 25.8333 29.1672 25.8333 29.1672" stroke="#512007" stroke-opacity="0.996" stroke-width="0.3575"/>
<path fill-rule="evenodd" clip-rule="evenodd" d="M25.2256 29.2605C25.2256 29.3344 25.1974 29.4052 25.1471 29.4575C25.1227 29.4832 25.0933 29.5037 25.0608 29.5177C25.0282 29.5317 24.9931 29.5391 24.9576 29.5392C24.9222 29.5391 24.8871 29.5317 24.8545 29.5177C24.8219 29.5037 24.7926 29.4832 24.7681 29.4575C24.7175 29.4044 24.6894 29.3338 24.6897 29.2605C24.6897 29.1866 24.7179 29.1157 24.7681 29.0634C24.7926 29.0377 24.8219 29.0173 24.8545 29.0032C24.8871 28.9892 24.9222 28.982 24.9576 28.9818C25.0287 28.9818 25.0969 29.0112 25.1471 29.0634C25.1974 29.1157 25.2256 29.1866 25.2256 29.2605ZM26.5469 29.8549C26.5469 29.919 26.5224 29.9804 26.4789 30.0257C26.4577 30.0481 26.4322 30.0658 26.404 30.078C26.3758 30.0901 26.3454 30.0964 26.3146 30.0965C26.2839 30.0964 26.2535 30.0901 26.2253 30.0779C26.197 30.0657 26.1716 30.0481 26.1504 30.0257C26.1065 29.9797 26.0821 29.9186 26.0823 29.8549C26.0823 29.7908 26.1068 29.7294 26.1504 29.6841C26.1716 29.6618 26.197 29.6441 26.2253 29.6319C26.2535 29.6197 26.2839 29.6135 26.3146 29.6133C26.3762 29.6133 26.4354 29.6387 26.4789 29.6841C26.5224 29.7294 26.5469 29.7908 26.5469 29.8549ZM28.2259 30.0032C28.2259 30.0672 28.2015 30.1287 28.1579 30.174C28.1368 30.1963 28.1113 30.2141 28.0831 30.2262C28.0549 30.2384 28.0244 30.2447 27.9937 30.2448C27.932 30.2448 27.8729 30.2193 27.8294 30.174C27.7855 30.128 27.7612 30.0667 27.7614 30.0032C27.7614 29.9391 27.7859 29.8777 27.8294 29.8323C27.8506 29.8101 27.8761 29.7923 27.9044 29.7802C27.9326 29.7681 27.9629 29.7617 27.9937 29.7616C28.0553 29.7616 28.1144 29.7871 28.1579 29.8323C28.2015 29.8777 28.2259 29.9391 28.2259 30.0032ZM29.6911 29.4279C29.6911 29.5511 29.6031 29.6509 29.4944 29.6509C29.386 29.6509 29.2982 29.5512 29.2982 29.4279C29.2982 29.3048 29.386 29.205 29.4946 29.205C29.6033 29.205 29.6913 29.3047 29.6913 29.4279H29.6911ZM30.8699 28.7032C30.8699 28.816 30.7659 28.9077 30.6376 28.9077C30.5093 28.9077 30.4053 28.816 30.4053 28.7032C30.4053 28.5902 30.5094 28.4986 30.6376 28.4986C30.7658 28.4986 30.8699 28.5902 30.8699 28.7032Z" fill="black" stroke="#512007" stroke-opacity="0.996" stroke-width="0.3575"/>
<path fill-rule="evenodd" clip-rule="evenodd" d="M23.9387 20.7327C23.8316 20.8072 22.0451 21.253 22.2953 21.2159C22.5452 21.1788 23.9744 21.5874 23.9387 21.4759C23.9031 21.3645 23.9387 20.8072 23.9387 20.7327ZM26.976 20.1753C26.9045 20.1753 25.8683 20.5842 25.9041 20.5842C25.9401 20.5842 27.0832 20.9186 27.0473 20.8442C27.0116 20.7701 27.0116 20.2868 26.976 20.1753ZM30.0846 20.5473C30.0131 20.5844 28.7982 20.8817 29.0127 20.919C29.2272 20.9562 30.0489 21.2534 30.0489 21.1791C30.0489 21.1047 30.0489 20.5847 30.0846 20.5473Z" fill="#FF0000" fill-opacity="0.996" stroke="#512007" stroke-opacity="0.996" stroke-width="0.3575"/>
<path d="M28.7988 29.2426C28.8344 28.6482 29.8706 25.2666 29.8706 25.2666L28.7988 29.2426ZM29.1552 29.1301C29.1552 29.093 29.977 25.3028 29.977 25.3028L29.1552 29.1301ZM29.5129 28.8335C29.5485 28.6106 30.1201 25.3036 30.1201 25.3036L29.5129 28.8335ZM28.8344 28.7594C29.013 28.6479 29.5489 28.4993 29.5489 28.4993L28.8344 28.7594ZM29.0839 28.165C29.2625 28.165 29.6199 28.0163 29.6199 28.0163L29.0839 28.165ZM29.1908 27.7188C29.1908 27.6818 29.7268 27.5702 29.7268 27.5702L29.1908 27.7188ZM29.5129 26.6783C29.5129 26.7153 29.9059 26.7153 29.9059 26.7153L29.5129 26.6783ZM29.6199 26.2321C29.6911 26.2321 30.0128 26.3063 30.0128 26.3063L29.6199 26.2321Z" fill="black"/>
<path d="M28.7988 29.2426C28.8344 28.6482 29.8706 25.2666 29.8706 25.2666M29.1552 29.1301C29.1552 29.093 29.977 25.3028 29.977 25.3028M29.5129 28.8335C29.5485 28.6106 30.1201 25.3036 30.1201 25.3036M28.8344 28.7594C29.013 28.6479 29.5489 28.4993 29.5489 28.4993M29.0839 28.165C29.2625 28.165 29.6199 28.0163 29.6199 28.0163M29.1908 27.7188C29.1908 27.6818 29.7268 27.5702 29.7268 27.5702M29.2622 27.1615L29.8337 27.05M29.5129 26.6783C29.5129 26.7153 29.9059 26.7153 29.9059 26.7153M29.6199 26.2321C29.6911 26.2321 30.0128 26.3063 30.0128 26.3063" stroke="#512007" stroke-opacity="0.996" stroke-width="0.3575"/>
<path d="M25.7553 29.6743C25.791 29.0525 26.8271 25.5148 26.8271 25.5148L25.7553 29.6743ZM26.1117 29.7158C26.1117 29.677 26.9336 25.5531 26.9336 25.5531L26.1117 29.7158ZM26.3932 29.7225C26.4289 29.4892 27.0764 25.5533 27.0764 25.5533L26.3932 29.7225ZM25.791 29.1688C25.9696 29.0522 26.5055 28.8967 26.5055 28.8967L25.791 29.1688ZM26.0405 28.547C26.2191 28.547 26.5764 28.3914 26.5764 28.3914L26.0405 28.547ZM26.1474 28.0802C26.1474 28.0414 26.6833 27.9247 26.6833 27.9247L26.1474 28.0802ZM26.4695 26.9917C26.4695 27.0304 26.8624 27.0304 26.8624 27.0304L26.4695 26.9917ZM26.5764 26.5249C26.6476 26.5249 26.9693 26.6025 26.9693 26.6025L26.5764 26.5249Z" fill="black"/>
<path d="M25.7553 29.6743C25.791 29.0525 26.8271 25.5148 26.8271 25.5148M26.1117 29.7158C26.1117 29.677 26.9336 25.5531 26.9336 25.5531M26.3932 29.7225C26.4289 29.4892 27.0764 25.5533 27.0764 25.5533M25.791 29.1688C25.9696 29.0522 26.5055 28.8967 26.5055 28.8967M26.0405 28.547C26.2191 28.547 26.5764 28.3914 26.5764 28.3914M26.1474 28.0802C26.1474 28.0414 26.6833 27.9247 26.6833 27.9247M26.2187 27.4972L26.7902 27.3806M26.4695 26.9917C26.4695 27.0304 26.8624 27.0304 26.8624 27.0304M26.5764 26.5249C26.6476 26.5249 26.9693 26.6025 26.9693 26.6025" stroke="#512007" stroke-opacity="0.996" stroke-width="0.3655"/>
<path d="M25.7347 29.4029C25.6991 28.7993 24.6629 25.3658 24.6629 25.3658L25.7347 29.4029ZM25.3782 29.2887C25.3782 29.251 24.5565 25.4024 24.5565 25.4024L25.3782 29.2887ZM25.0206 28.9875C24.9849 28.7612 24.4134 25.4033 24.4134 25.4033L25.0206 28.9875ZM25.6991 28.9123C25.5205 28.7991 24.9846 28.6481 24.9846 28.6481L25.6991 28.9123ZM25.4496 28.3087C25.271 28.3087 24.9136 28.1578 24.9136 28.1578L25.4496 28.3087ZM25.3426 27.8557C25.3426 27.818 24.8067 27.7048 24.8067 27.7048L25.3426 27.8557ZM25.0206 26.7991C25.0206 26.8368 24.6276 26.8368 24.6276 26.8368L25.0206 26.7991ZM24.9136 26.3461C24.8423 26.3461 24.5206 26.4214 24.5206 26.4214L24.9136 26.3461Z" fill="black"/>
<path d="M25.7347 29.4029C25.6991 28.7993 24.6629 25.3658 24.6629 25.3658M25.3782 29.2887C25.3782 29.251 24.5565 25.4024 24.5565 25.4024M25.0206 28.9875C24.9849 28.7612 24.4134 25.4033 24.4134 25.4033M25.6991 28.9123C25.5205 28.7991 24.9846 28.6481 24.9846 28.6481M25.4496 28.3087C25.271 28.3087 24.9136 28.1578 24.9136 28.1578M25.3426 27.8557C25.3426 27.818 24.8067 27.7048 24.8067 27.7048M25.2713 27.2898L24.6997 27.1766M25.0206 26.7991C25.0206 26.8368 24.6276 26.8368 24.6276 26.8368M24.9136 26.3461C24.8423 26.3461 24.5206 26.4214 24.5206 26.4214" stroke="#512007" stroke-opacity="0.996" stroke-width="0.359"/>
<path fill-rule="evenodd" clip-rule="evenodd" d="M30.6736 27.5932L34.0678 27.6677L34.1035 27.4075L30.6021 27.3704L30.6736 27.5932ZM30.8174 26.6639C31.2105 26.6639 34.176 26.0695 34.176 26.0695C34.176 26.0695 34.2831 25.6978 34.176 25.6978C34.0688 25.6978 30.8174 26.4039 30.8174 26.4039V26.6639Z" fill="#DD8B59" stroke="#512007" stroke-opacity="0.996" stroke-width="0.3575"/>
<path fill-rule="evenodd" clip-rule="evenodd" d="M26.945 23.5478C26.9701 23.5488 26.9948 23.555 27.0175 23.5659C27.0401 23.5768 27.0603 23.5923 27.0769 23.6113C27.111 23.65 27.1291 23.7013 27.1272 23.7541C27.1254 23.8063 27.1036 23.8558 27.0664 23.8925C27.0485 23.9101 27.0271 23.9239 27.0037 23.933C26.9803 23.9422 26.9552 23.9463 26.9301 23.9455C26.905 23.9443 26.8803 23.9382 26.8577 23.9273C26.835 23.9163 26.8148 23.9009 26.7983 23.882C26.7639 23.8426 26.7459 23.7915 26.748 23.7393C26.7498 23.687 26.7715 23.6374 26.8088 23.6008C26.8267 23.5831 26.848 23.5693 26.8715 23.5603C26.8949 23.5512 26.9199 23.5468 26.945 23.5478Z" fill="#BE0F17" fill-opacity="0.996" stroke="#512007" stroke-opacity="0.996" stroke-width="0.3585"/>
</g>
</g>
</g>
<defs>
<linearGradient id="paint0_linear_16699_268155" x1="-2.44025" y1="55.9095" x2="0.143498" y2="54.4412" gradientUnits="userSpaceOnUse">
<stop stop-color="#A43907" stop-opacity="0.996"/>
<stop offset="1" stop-color="white"/>
</linearGradient>
<linearGradient id="paint1_linear_16699_268155" x1="21.3247" y1="32.2132" x2="17.9943" y2="30.3942" gradientUnits="userSpaceOnUse">
<stop stop-color="#A43907" stop-opacity="0.996"/>
<stop offset="1" stop-color="white"/>
</linearGradient>
<linearGradient id="paint2_linear_16699_268155" x1="23.009" y1="33.4562" x2="15.7359" y2="32.5022" gradientUnits="userSpaceOnUse">
<stop stop-color="#A43907" stop-opacity="0.996"/>
<stop offset="1" stop-color="white"/>
</linearGradient>
<linearGradient id="paint3_linear_16699_268155" x1="36.6118" y1="30.4781" x2="33.2687" y2="30.6583" gradientUnits="userSpaceOnUse">
<stop stop-color="#A43907" stop-opacity="0.996"/>
<stop offset="1" stop-color="white"/>
</linearGradient>
<linearGradient id="paint4_linear_16699_268155" x1="38.4016" y1="32.2519" x2="31.2579" y2="32.6812" gradientUnits="userSpaceOnUse">
<stop stop-color="#A43907" stop-opacity="0.996"/>
<stop offset="1" stop-color="white"/>
</linearGradient>
<linearGradient id="paint5_linear_16699_268155" x1="37.3785" y1="34.3367" x2="17.3335" y2="34.3367" gradientUnits="userSpaceOnUse">
<stop stop-color="#A43907" stop-opacity="0.996"/>
<stop offset="1" stop-color="white"/>
</linearGradient>
<linearGradient id="paint6_linear_16699_268155" x1="17.7267" y1="35.7437" x2="46.9415" y2="35.8429" gradientUnits="userSpaceOnUse">
<stop stop-color="#A43907" stop-opacity="0.996"/>
<stop offset="1" stop-color="white"/>
</linearGradient>
<linearGradient id="paint7_linear_16699_268155" x1="38.423" y1="33.9749" x2="36.034" y2="34.0391" gradientUnits="userSpaceOnUse">
<stop stop-color="#A43907" stop-opacity="0.996"/>
<stop offset="1" stop-color="white"/>
</linearGradient>
<linearGradient id="paint8_linear_16699_268155" x1="17.2538" y1="36.492" x2="19.5484" y2="36.6445" gradientUnits="userSpaceOnUse">
<stop stop-color="#A43907" stop-opacity="0.996"/>
<stop offset="1" stop-color="white"/>
</linearGradient>
<linearGradient id="paint9_linear_16699_268155" x1="18.9469" y1="35.9677" x2="14.7576" y2="34.9246" gradientUnits="userSpaceOnUse">
<stop stop-color="#A43907" stop-opacity="0.996"/>
<stop offset="1" stop-color="white"/>
</linearGradient>
<clipPath id="clip0_16699_268155">
<rect width="40" height="40" fill="white"/>
</clipPath>
</defs>
</svg>
