<svg width="40" height="40" viewBox="0 0 40 40" fill="none" xmlns="http://www.w3.org/2000/svg">
<g clip-path="url(#clip0_16699_268241)">
<mask id="mask0_16699_268241" style="mask-type:luminance" maskUnits="userSpaceOnUse" x="0" y="0" width="40" height="40">
<path d="M40 0H0V40H40V0Z" fill="white"/>
</mask>
<g mask="url(#mask0_16699_268241)">
<mask id="mask1_16699_268241" style="mask-type:luminance" maskUnits="userSpaceOnUse" x="0" y="0" width="40" height="40">
<path d="M40 20C40 8.95433 31.0457 0 20 0C8.95433 0 0 8.95433 0 20C0 31.0457 8.95433 40 20 40C31.0457 40 40 31.0457 40 20Z" fill="white"/>
</mask>
<g mask="url(#mask1_16699_268241)">
<path d="M50 0H-10V40H50V0Z" fill="#75B2DD"/>
<path d="M19.3474 4.10091L18.1113 7.90513L20.0134 8.52316" fill="white"/>
<path d="M19.3476 4.10091L20.5836 7.90513L18.6815 8.52316" fill="white"/>
<path d="M23.1525 6.86458H19.1525V8.86458" fill="white"/>
<path d="M23.1524 6.86458L19.9163 9.21574L18.7407 7.59769" fill="white"/>
<path d="M21.6974 11.3368L20.4613 7.53255L18.5593 8.15058" fill="white"/>
<path d="M21.6973 11.3371L18.4612 8.98584L19.6368 7.36784" fill="white"/>
<path d="M16.9984 11.337L20.2345 8.98584L19.0589 7.36784" fill="white"/>
<path d="M16.9984 11.3367L18.2345 7.53255L20.1366 8.15058" fill="white"/>
<path d="M15.5428 6.86458L18.7789 9.21574L19.9545 7.59769" fill="white"/>
<path d="M15.5428 6.86458H19.5428V8.86458" fill="white"/>
<path d="M35.3477 20.1006L31.5434 18.8646L30.9254 20.7667" fill="white"/>
<path d="M35.3477 20.1009L31.5434 21.337L30.9254 19.4349" fill="white"/>
<path d="M32.5859 23.9049V19.9049H30.5859" fill="white"/>
<path d="M32.586 23.9045L30.2349 20.6684L31.8529 19.4928" fill="white"/>
<path d="M28.1133 22.4513L31.9175 21.2153L31.2995 19.3132" fill="white"/>
<path d="M28.1133 22.4509L30.4644 19.2148L32.0825 20.3904" fill="white"/>
<path d="M28.1113 17.7493L30.4625 20.9854L32.0805 19.8098" fill="white"/>
<path d="M28.1113 17.7493L31.9157 18.9854L31.2975 20.8876" fill="white"/>
<path d="M32.5839 16.2962L30.2327 19.5323L31.8508 20.7078" fill="white"/>
<path d="M32.584 16.2962V20.2962H30.584" fill="white"/>
<path d="M19.3478 36.1007L20.5839 32.2965L18.6818 31.6784" fill="white"/>
<path d="M19.3478 36.1007L18.1118 32.2965L20.0139 31.6784" fill="white"/>
<path d="M15.5449 33.3366H19.5449V31.3366" fill="white"/>
<path d="M15.5449 33.3362L18.7809 30.985L19.9565 32.603" fill="white"/>
<path d="M16.9979 28.8646L18.234 32.6688L20.1361 32.0508" fill="white"/>
<path d="M16.9979 28.8646L20.234 31.2157L19.0584 32.8338" fill="white"/>
<path d="M21.7006 28.8646L18.4645 31.2158L19.6401 32.8338" fill="white"/>
<path d="M21.7007 28.8646L20.4646 32.6689L18.5625 32.0508" fill="white"/>
<path d="M23.1524 33.3369L19.9163 30.9857L18.7407 32.6037" fill="white"/>
<path d="M23.1525 33.3366H19.1525V31.3366" fill="white"/>
<path d="M3.34784 20.1016L7.15206 21.3377L7.77011 19.4356" fill="white"/>
<path d="M3.34784 20.1012L7.15206 18.8652L7.77011 20.7673" fill="white"/>
<path d="M6.11133 16.2975V20.2975H8.11133" fill="white"/>
<path d="M6.11133 16.2975L8.4625 19.5335L6.84444 20.7092" fill="white"/>
<path d="M10.582 17.7507L6.77783 18.9868L7.39587 20.8888" fill="white"/>
<path d="M10.5819 17.7507L8.23083 20.9868L6.61279 19.8112" fill="white"/>
<path d="M10.5839 22.4528L8.23277 19.2168L6.61475 20.3923" fill="white"/>
<path d="M10.584 22.4526L6.77979 21.2166L7.39782 19.3144" fill="white"/>
<path d="M6.11523 23.9058L8.46642 20.6698L6.84834 19.4942" fill="white"/>
<path d="M6.11523 23.9056V19.9056H8.11523" fill="white"/>
</g>
</g>
</g>
<defs>
<clipPath id="clip0_16699_268241">
<rect width="40" height="40" fill="white"/>
</clipPath>
</defs>
</svg>
