<svg width="40" height="40" viewBox="0 0 40 40" fill="none" xmlns="http://www.w3.org/2000/svg">
<g clip-path="url(#clip0_16699_268360)">
<mask id="mask0_16699_268360" style="mask-type:luminance" maskUnits="userSpaceOnUse" x="0" y="0" width="40" height="40">
<path d="M0 20C0 31.0457 8.95431 40 20 40C31.0457 40 40 31.0457 40 20C40 8.95431 31.0457 0 20 0C8.95431 0 0 8.95431 0 20Z" fill="white"/>
</mask>
<g mask="url(#mask0_16699_268360)">
<path d="M40 20C40 8.95433 31.0457 0 20 0C8.95433 0 0 8.95433 0 20C0 31.0457 8.95433 40 20 40C31.0457 40 40 31.0457 40 20Z" fill="#CE1126"/>
<path d="M2 7.99983H37.9107V31.9998H2V7.99983Z" fill="#CE1126"/>
<path d="M5.01562 11.3593H34.8933V28.6393H5.01562V11.3593Z" fill="#007A5E"/>
<path d="M5.01562 11.3593H34.8933L5.01562 28.6393H34.8933L5.01562 11.3593Z" fill="#FCD116"/>
<path d="M20.0478 22.8288C21.6384 22.8288 22.9278 21.5394 22.9278 19.9488C22.9278 18.3583 21.6384 17.0688 20.0478 17.0688C18.4572 17.0688 17.1678 18.3583 17.1678 19.9488C17.1678 21.5394 18.4572 22.8288 20.0478 22.8288Z" fill="#CE1126"/>
<path d="M7.41992 20.0326C7.78024 20.7038 8.48108 21.4342 9.09316 21.691C9.103 21.0094 8.86116 20.1358 8.5305 19.4398L7.41992 20.0326Z" fill="#CE1126"/>
<path d="M6.80774 17.73C7.33006 18.8187 5.4531 21.4164 8.58025 22.0252C8.19446 21.4987 7.94574 20.63 8.03982 19.9324C8.69591 20.182 9.38625 20.9124 9.66516 21.4707C10.4836 18.4987 7.56598 18.6796 6.80774 17.73Z" fill="#FCD116"/>
<path d="M12.0344 28.7599L11.1175 31.582L13.5181 29.8379H10.5508L12.9514 31.582L12.0344 28.7599Z" fill="#FCD116"/>
<path d="M20.0344 28.7601L19.1175 31.5822L21.5181 29.8381H18.5508L20.9514 31.5822L20.0344 28.7601Z" fill="#FCD116"/>
<path d="M28.0364 28.7601L27.1194 31.5822L29.52 29.8381H26.5527L28.9533 31.5822L28.0364 28.7601Z" fill="#FCD116"/>
<path d="M28.0364 8.11996L27.1194 10.9419L29.52 9.19784H26.5527L28.9533 10.9419L28.0364 8.11996Z" fill="#FCD116"/>
<path d="M20.0344 8.11996L19.1175 10.9419L21.5181 9.19784H18.5508L20.9514 10.9419L20.0344 8.11996Z" fill="#FCD116"/>
<path d="M12.0344 8.11996L11.1175 10.9419L13.5181 9.19784H10.5508L12.9514 10.9419L12.0344 8.11996Z" fill="#FCD116"/>
<path d="M20.0361 17.3602L18.4844 22.136L22.5469 19.1844H17.5254L21.5879 22.136L20.0361 17.3602Z" fill="#FCD116"/>
</g>
</g>
<defs>
<clipPath id="clip0_16699_268360">
<rect width="40" height="40" fill="white"/>
</clipPath>
</defs>
</svg>
