<svg width="40" height="40" viewBox="0 0 40 40" fill="none" xmlns="http://www.w3.org/2000/svg">
<g clip-path="url(#clip0_16699_268379)">
<mask id="mask0_16699_268379" style="mask-type:luminance" maskUnits="userSpaceOnUse" x="0" y="0" width="40" height="40">
<path d="M40 0H0V40H40V0Z" fill="white"/>
</mask>
<g mask="url(#mask0_16699_268379)">
<mask id="mask1_16699_268379" style="mask-type:luminance" maskUnits="userSpaceOnUse" x="0" y="0" width="40" height="40">
<path d="M40 20C40 8.95433 31.0457 0 20 0C8.95433 0 0 8.95433 0 20C0 31.0457 8.95433 40 20 40C31.0457 40 40 31.0457 40 20Z" fill="white"/>
</mask>
<g mask="url(#mask1_16699_268379)">
<path d="M40 20C40 8.95433 31.0457 0 20 0C8.95433 0 0 8.95433 0 20C0 31.0457 8.95433 40 20 40C31.0457 40 40 31.0457 40 20Z" fill="white"/>
<path d="M0 6.66699H40V33.3337H0V6.66699Z" fill="white"/>
<path d="M17.3333 -8.33301H22.6667V48.3337H17.3333V-8.33301ZM0 17.3337H40V22.6669H0V17.3337Z" fill="#FF0000"/>
<path d="M9.79102 8.27182C10.4134 8.3536 11.0438 8.3536 11.6662 8.27182C11.3049 10.0725 11.3049 11.9271 11.6662 13.7278C11.0438 13.6461 10.4134 13.6461 9.79102 13.7278C10.1523 11.9271 10.1523 10.0725 9.79102 8.27182Z" fill="#FF0000"/>
<path d="M13.4551 10.0618C13.3732 10.6842 13.3732 11.3147 13.4551 11.9371C11.6543 11.5757 9.79975 11.5757 7.99902 11.9371C8.08077 11.3147 8.08077 10.6842 7.99902 10.0618C9.79975 10.4232 11.6543 10.4232 13.4551 10.0618Z" fill="#FF0000"/>
<path d="M28.2461 8.27148C28.8685 8.35325 29.4989 8.35325 30.1213 8.27148C29.76 10.0722 29.76 11.9268 30.1213 13.7275C29.4989 13.6457 28.8685 13.6457 28.2461 13.7275C28.6074 11.9268 28.6074 10.0722 28.2461 8.27148Z" fill="#FF0000"/>
<path d="M31.9102 10.0615C31.8285 10.6839 31.8285 11.3143 31.9102 11.9367C30.1095 11.5754 28.255 11.5754 26.4542 11.9367C26.536 11.3143 26.536 10.6839 26.4542 10.0615C28.255 10.4228 30.1095 10.4228 31.9102 10.0615Z" fill="#FF0000"/>
<path d="M9.79102 26.2718C10.4134 26.3535 11.0438 26.3535 11.6662 26.2718C11.3049 28.0725 11.3049 29.9271 11.6662 31.7278C11.0438 31.646 10.4134 31.646 9.79102 31.7278C10.1523 29.9271 10.1523 28.0725 9.79102 26.2718Z" fill="#FF0000"/>
<path d="M13.4551 28.0615C13.3732 28.6839 13.3732 29.3143 13.4551 29.9367C11.6543 29.5754 9.79975 29.5754 7.99902 29.9367C8.08077 29.3143 8.08077 28.6839 7.99902 28.0615C9.79975 28.4228 11.6543 28.4228 13.4551 28.0615Z" fill="#FF0000"/>
<path d="M28.248 26.2718C28.8704 26.3535 29.5009 26.3535 30.1232 26.2718C29.7619 28.0725 29.7619 29.9271 30.1232 31.7278C29.5009 31.646 28.8704 31.646 28.248 31.7278C28.6094 29.9271 28.6094 28.0725 28.248 26.2718Z" fill="#FF0000"/>
<path d="M31.9121 28.0615C31.8303 28.6839 31.8303 29.3143 31.9121 29.9367C30.1113 29.5754 28.2567 29.5754 26.4561 29.9367C26.5378 29.3143 26.5378 28.6839 26.4561 28.0615C28.2567 28.4228 30.1113 28.4228 31.9121 28.0615Z" fill="#FF0000"/>
</g>
</g>
</g>
<defs>
<clipPath id="clip0_16699_268379">
<rect width="40" height="40" fill="white"/>
</clipPath>
</defs>
</svg>
