<svg width="40" height="40" viewBox="0 0 40 40" fill="none" xmlns="http://www.w3.org/2000/svg">
<g clip-path="url(#clip0_16699_268399)">
<mask id="mask0_16699_268399" style="mask-type:luminance" maskUnits="userSpaceOnUse" x="0" y="0" width="40" height="40">
<path d="M40 20C40 8.95431 31.0457 0 20 0C8.95431 0 0 8.95431 0 20C0 31.0457 8.95431 40 20 40C31.0457 40 40 31.0457 40 20Z" fill="white"/>
</mask>
<g mask="url(#mask0_16699_268399)">
<mask id="mask1_16699_268399" style="mask-type:luminance" maskUnits="userSpaceOnUse" x="-7" y="0" width="54" height="40">
<path d="M-6.66663 0H46.6667V40H-6.66663V0Z" fill="white"/>
</mask>
<g mask="url(#mask1_16699_268399)">
<path d="M-6.66663 0H46.6667V40L-6.66663 0Z" fill="#078930"/>
<path d="M-6.66663 0L46.6667 40H-6.66663V0Z" fill="#FCDD09"/>
<path d="M14.3641 18.1687H25.6358L16.5169 24.7942L20 14.0742L23.4831 24.7942L14.3641 18.1687Z" fill="#DA121A"/>
</g>
</g>
</g>
<defs>
<clipPath id="clip0_16699_268399">
<rect width="40" height="40" fill="white"/>
</clipPath>
</defs>
</svg>
