<svg width="40" height="40" viewBox="0 0 40 40" fill="none" xmlns="http://www.w3.org/2000/svg">
<g clip-path="url(#clip0_55809_21488)">
<g clip-path="url(#clip1_55809_21488)">
<path d="M60 0H-20V40H60V0Z" fill="#DA000C"/>
<path d="M60 0H-20V26.7969H60V0Z" fill="white"/>
<path d="M20.7142 18.1724H10.7142V25.0462H20.7142V18.1724Z" fill="black"/>
<path d="M15.9092 24.0414H9.80468L8.45154 24.932V25.8757H15.9092" fill="#DA000C"/>
<path d="M15.9092 24.0414H9.80468L8.45154 24.932V25.8757H15.9092" stroke="black" stroke-width="0.15625" stroke-linecap="square"/>
<path d="M13.3545 20.0928C14.2334 20.0928 14.9512 20.8255 14.9512 21.7285V24.0381H16.0986V15.2881H9.80469V24.0381H11.7578V21.7285C11.7578 20.8607 12.4633 20.0928 13.3545 20.0928Z" fill="#DA000C" stroke="black" stroke-width="0.15625" stroke-linecap="square"/>
<path d="M14.8518 9.36902H11.9575V14.6752H14.8518V9.36902Z" fill="black"/>
<path d="M14.8438 13.8525H12.3111V12.9541H10.4541V13.8525H9.19434V12.9541H8.44238V14.585H14.8438M9.19434 14.5791H14.6585V15.2881H9.19434V14.5791Z" fill="#DA000C"/>
<path d="M14.8438 13.8525H12.3111V12.9541H10.4541V13.8525H9.19434V12.9541H8.44238V14.585H14.8438M9.19434 14.5791H14.6585V15.2881H9.19434V14.5791Z" stroke="black" stroke-width="0.15625" stroke-linecap="square"/>
<path d="M11.3623 7.44141V12.9541H12.3111V11.4404C12.3111 10.8734 12.7114 10.4093 13.2715 10.3809C13.2896 10.3799 13.3069 10.3809 13.3252 10.3809C13.9106 10.3809 14.3848 10.8551 14.3848 11.4404V12.9541H15.2881V7.44141H11.3623Z" fill="#DA000C" stroke="black" stroke-width="0.15625" stroke-linecap="square"/>
<path d="M11.0205 6.69434V7.44141H15.5908V6.69434H11.0205Z" fill="#DA000C" stroke="black" stroke-width="0.15625" stroke-linecap="square"/>
<path d="M10.4346 5.26367V6.69434H15.918V5.26367H15.0732V5.99121H14.0527V5.26367H12.4951V5.99121H11.4746V5.26367H10.4346Z" fill="#DA000C" stroke="black" stroke-width="0.15625" stroke-linecap="square"/>
<path d="M8.45154 24.9319H15.9375Z" fill="#DA000C"/>
<path d="M8.45154 24.9319H15.9375" stroke="black" stroke-width="0.15625" stroke-linecap="square"/>
<path d="M20.7812 24.502H15.7129L14.1846 25.2393V26.3379H20.7812" fill="#DA000C"/>
<path d="M20.7812 24.502H15.7129L14.1846 25.2393V26.3379H20.7812" stroke="black" stroke-width="0.15625" stroke-linecap="square"/>
<path d="M14.183 25.2374H20.9375Z" fill="#DA000C"/>
<path d="M14.183 25.2374H20.9375" stroke="black" stroke-width="0.15625"/>
<path d="M19.2858 18.1724H29.2858V25.0462H19.2858V18.1724Z" fill="black"/>
<path d="M24.0908 24.0414H30.1953L31.5485 24.932V25.8757H24.0908" fill="#DA000C"/>
<path d="M24.0908 24.0414H30.1953L31.5485 24.932V25.8757H24.0908" stroke="black" stroke-width="0.15625" stroke-linecap="square"/>
<path d="M26.6455 20.0928C25.7666 20.0928 25.0488 20.8255 25.0488 21.7285V24.0381H23.9014V15.2881H30.1953V24.0381H28.2422V21.7285C28.2422 20.8607 27.5367 20.0928 26.6455 20.0928Z" fill="#DA000C" stroke="black" stroke-width="0.15625" stroke-linecap="square"/>
<path d="M25.1482 9.36902H28.0425V14.6752H25.1482V9.36902Z" fill="black"/>
<path d="M25.1562 13.8525H27.6889V12.9541H29.5459V13.8525H30.8057V12.9541H31.5576V14.585H25.1562M30.8057 14.5791H25.3415V15.2881H30.8057V14.5791Z" fill="#DA000C"/>
<path d="M25.1562 13.8525H27.6889V12.9541H29.5459V13.8525H30.8057V12.9541H31.5576V14.585H25.1562M30.8057 14.5791H25.3415V15.2881H30.8057V14.5791Z" stroke="black" stroke-width="0.15625" stroke-linecap="square"/>
<path d="M28.6377 7.44141V12.9541H27.6889V11.4404C27.6889 10.8734 27.2886 10.4093 26.7285 10.3809C26.7104 10.3799 26.6931 10.3809 26.6748 10.3809C26.0894 10.3809 25.6152 10.8551 25.6152 11.4404V12.9541H24.7119V7.44141H28.6377Z" fill="#DA000C" stroke="black" stroke-width="0.15625" stroke-linecap="square"/>
<path d="M28.9795 6.69434V7.44141H24.4092V6.69434H28.9795Z" fill="#DA000C" stroke="black" stroke-width="0.15625" stroke-linecap="square"/>
<path d="M29.5654 5.26367V6.69434H24.082V5.26367H24.9268V5.99121H25.9473V5.26367H27.5049V5.99121H28.5254V5.26367H29.5654Z" fill="#DA000C" stroke="black" stroke-width="0.15625" stroke-linecap="square"/>
<path d="M31.5485 24.9319H24.0625Z" fill="#DA000C"/>
<path d="M31.5485 24.9319H24.0625" stroke="black" stroke-width="0.15625" stroke-linecap="square"/>
<path d="M19.2188 24.502H24.2871L25.8154 25.2393V26.3379H19.2188" fill="#DA000C"/>
<path d="M19.2188 24.502H24.2871L25.8154 25.2393V26.3379H19.2188" stroke="black" stroke-width="0.15625" stroke-linecap="square"/>
<path d="M25.817 25.2374H19.0625Z" fill="#DA000C"/>
<path d="M25.817 25.2374H19.0625" stroke="black" stroke-width="0.15625"/>
<path d="M22.7027 23.4424C22.2879 23.5804 21.9131 23.8125 21.5357 24.0288C21.0512 24.315 20.5815 24.6268 20.1443 24.9817C19.9905 25.0831 19.8429 25.1943 19.7242 25.3369C19.5639 25.474 19.4015 25.658 19.4322 25.8858C19.4402 25.9863 19.5687 25.7678 19.6531 25.7572C19.8003 25.6727 19.9787 25.6454 20.1441 25.6836C20.3427 25.4744 20.5987 25.3343 20.8198 25.1514C21.2893 24.801 21.7943 24.5002 22.3081 24.22C22.4875 24.1281 22.6676 24.0347 22.8589 23.9697C22.8068 23.7939 22.7548 23.6182 22.7027 23.4424Z" fill="#F8D80E" stroke="black" stroke-width="0.12" stroke-linecap="round"/>
<path d="M20.6876 24.5924V25.2036Z" fill="#F8D80E"/>
<path d="M20.6876 24.5924V25.2036" stroke="black" stroke-width="0.15625" stroke-linecap="round"/>
<path d="M21.0651 24.3258V24.9325Z" fill="#F8D80E"/>
<path d="M21.0651 24.3258V24.9325" stroke="black" stroke-width="0.15625" stroke-linecap="round"/>
<path d="M21.4427 24.0906V24.6934Z" fill="#F8D80E"/>
<path d="M21.4427 24.0906V24.6934" stroke="black" stroke-width="0.15625" stroke-linecap="round"/>
<path d="M21.8203 23.8584V24.4805Z" fill="#F8D80E"/>
<path d="M21.8203 23.8584V24.4805" stroke="black" stroke-width="0.15625" stroke-linecap="round"/>
<path d="M17.3267 23.4619C17.2649 23.6344 17.203 23.807 17.1412 23.9795C18.0063 24.3077 18.8301 24.7418 19.6096 25.2389C19.8737 25.4187 20.1513 25.593 20.3589 25.8398C20.4047 25.9666 20.2786 26.0725 20.1536 26.0342C20.0392 25.9954 19.9265 25.9511 19.8058 26.0336C19.6329 26.1122 19.4767 26.3682 19.7392 26.4541C20.101 26.697 20.6895 26.5915 20.8634 26.1658C20.9542 25.9468 20.9601 25.6665 20.7841 25.4869C20.4618 25.1176 20.0345 24.8607 19.6245 24.6007C18.8918 24.16 18.1287 23.761 17.3267 23.4619Z" fill="#F8D80E" stroke="black" stroke-width="0.12" stroke-linecap="round"/>
<path d="M19.6953 24.693L19.6465 25.2148Z" fill="#F8D80E"/>
<path d="M19.6953 24.693L19.6465 25.2148" stroke="black" stroke-width="0.15625" stroke-linecap="round"/>
<path d="M20.13 24.9592L19.9953 25.4701Z" fill="#F8D80E"/>
<path d="M20.13 24.9592L19.9953 25.4701" stroke="black" stroke-width="0.15625" stroke-linecap="round"/>
<path d="M20.5945 25.3143L20.3118 25.7108Z" fill="#F8D80E"/>
<path d="M20.5945 25.3143L20.3118 25.7108" stroke="black" stroke-width="0.15625" stroke-linecap="round"/>
<path d="M20.7368 26.2783L20.3289 26.0594Z" fill="#F8D80E"/>
<path d="M20.7368 26.2783L20.3289 26.0594" stroke="black" stroke-width="0.15625" stroke-linecap="round"/>
<path d="M20.8637 25.8483L20.3957 25.8921Z" fill="#F8D80E"/>
<path d="M20.8637 25.8483L20.3957 25.8921" stroke="black" stroke-width="0.15625" stroke-linecap="round"/>
<path d="M20.2601 26.5257L20.2281 26.1144Z" fill="#F8D80E"/>
<path d="M20.2601 26.5257L20.2281 26.1144" stroke="black" stroke-width="0.15625" stroke-linecap="round"/>
<path d="M20.0887 26.0555L19.7023 26.3403Z" fill="#F8D80E"/>
<path d="M20.0887 26.0555L19.7023 26.3403" stroke="black" stroke-width="0.15625" stroke-linecap="round"/>
<path d="M18.2307 23.8964V24.3831Z" fill="#F8D80E"/>
<path d="M18.2307 23.8964V24.3831" stroke="black" stroke-width="0.15625" stroke-linecap="round"/>
<path d="M19.213 24.4131V24.9653Z" fill="#F8D80E"/>
<path d="M19.213 24.4131V24.9653" stroke="black" stroke-width="0.15625" stroke-linecap="round"/>
<path d="M18.7219 24.1552V24.6737Z" fill="#F8D80E"/>
<path d="M18.7219 24.1552V24.6737" stroke="black" stroke-width="0.15625" stroke-linecap="round"/>
<path d="M16.8408 35.5566V36.8115H17.627V36.1816H18.6963V36.8115H19.541V35.5566H16.8408ZM16.8408 37.2852V38.5449H19.541V37.2852H18.6963V37.915H17.627V37.2852H16.8408Z" fill="#F8D80E" stroke="black" stroke-width="0.15625"/>
<path d="M20.3191 30.2581H19.5394V39.3385H20.3191V30.2581Z" fill="#F8D80E" stroke="black" stroke-width="0.15625"/>
<path d="M20.3191 31.0436H19.5394V38.8655H20.3191V31.0436Z" fill="#F8D80E" stroke="black" stroke-width="0.15625"/>
<path d="M19.9292 28.0322L21.5894 28.999L19.9292 29.9609L18.269 28.999L19.9292 28.0322ZM17.7075 28.6523H17.2729V29.3457H17.7075L19.9292 30.6348L22.1509 29.3457H22.5854V28.6523H22.1509L19.9292 27.3633L17.7075 28.6523Z" fill="#F8D80E" stroke="black" stroke-width="0.16"/>
<path d="M19.8975 25.6689C19.5196 25.7219 19.2372 26.0955 19.2578 26.4711C19.2592 27.0551 19.2549 27.6393 19.26 28.2232C19.2801 28.5995 19.6088 28.9367 19.9904 28.9401C20.3006 28.9695 20.6121 28.7882 20.7422 28.5058C20.6527 28.4521 20.5632 28.3984 20.4737 28.3447C20.4043 28.5297 20.2044 28.6443 20.0098 28.623C19.7543 28.6302 19.5474 28.3818 19.5703 28.1333C19.5719 27.5531 19.5673 26.9727 19.5726 26.3926C19.5867 26.1558 19.8125 25.9621 20.0489 25.9863C20.1468 25.9582 20.2813 26.0921 20.3418 25.9766C20.433 25.847 20.277 25.7457 20.1904 25.6738C20.0946 25.6607 19.9944 25.6726 19.8975 25.6689ZM20.8008 26.2793C20.7389 26.3958 20.6108 26.4651 20.5078 26.5262V27.7002C20.612 27.7604 20.7162 27.8206 20.8203 27.8808C20.8191 27.3802 20.8227 26.8796 20.8185 26.379C20.8136 26.3482 20.8173 26.3012 20.8008 26.2793Z" fill="#F8D80E" stroke="black" stroke-width="0.16"/>
<path d="M22.2081 5.99231H17.6255V14.3133H22.2081V5.99231Z" fill="black"/>
<path d="M17.3047 5.99609V12.959H18.7598V10.8936C18.7598 10.4172 19.0648 9.75586 20 9.75586C20.9352 9.75586 21.2402 10.4172 21.2402 10.8936V12.959H22.6953V5.99609H17.3047ZM19.7754 6.77734H20.2246V9.16016H19.7754V6.77734ZM18.4863 7.24609H18.9404V8.98926H18.4863V7.24609ZM21.0596 7.24609H21.5137V8.98926H21.0596V7.24609Z" fill="#DA000C" stroke="black" stroke-width="0.15625"/>
<path d="M16.8115 4.99512V5.98633H23.1885V4.99512H16.8115Z" fill="#DA000C" stroke="black" stroke-width="0.15625"/>
<path d="M16.2109 3.84277V4.99512H23.7891V3.84277H22.8369V4.47754H21.7627V3.84277H20.5371V4.47754H19.4629V3.84277H18.2373V4.47754H17.1631V3.84277H16.2109Z" fill="#DA000C" stroke="black" stroke-width="0.15625"/>
<path d="M14.8047 15.2881V16.0059H25.1953V15.2881H14.8047Z" fill="#DA000C" stroke="black" stroke-width="0.15625"/>
<path d="M14.3799 12.9541V15.2881H25.6201V12.9541H24.5557V13.8525H23.1396V12.9541H21.2402V13.8525H18.7598V12.9541H16.8604V13.8525H15.4443V12.9541H14.3799Z" fill="#DA000C" stroke="black" stroke-width="0.15625"/>
<path d="M15.7324 16.0059V24.4971H17.7393V21.3184C17.7393 19.8211 18.7387 19.1162 20 19.1162C21.2123 19.1162 22.2607 19.8211 22.2607 21.3184V24.4971H24.2676V16.0059H15.7324Z" fill="#DA000C" stroke="black" stroke-width="0.15625" stroke-linejoin="round"/>
</g>
</g>
<defs>
<clipPath id="clip0_55809_21488">
<rect width="40" height="40" rx="20" fill="white"/>
</clipPath>
<clipPath id="clip1_55809_21488">
<rect width="80" height="40" fill="white" transform="translate(-20)"/>
</clipPath>
</defs>
</svg>
