<svg width="40" height="40" viewBox="0 0 40 40" fill="none" xmlns="http://www.w3.org/2000/svg">
<g clip-path="url(#clip0_16699_268486)">
<mask id="mask0_16699_268486" style="mask-type:luminance" maskUnits="userSpaceOnUse" x="0" y="0" width="40" height="40">
<path d="M40 0H0V40H40V0Z" fill="white"/>
</mask>
<g mask="url(#mask0_16699_268486)">
<mask id="mask1_16699_268486" style="mask-type:luminance" maskUnits="userSpaceOnUse" x="0" y="0" width="40" height="40">
<path d="M40 20C40 8.95433 31.0457 0 20 0C8.95433 0 0 8.95433 0 20C0 31.0457 8.95433 40 20 40C31.0457 40 40 31.0457 40 20Z" fill="white"/>
</mask>
<g mask="url(#mask1_16699_268486)">
<path d="M56.3617 0H-3V40H56.3617V0Z" fill="white"/>
<path d="M-3 20.0001H56.3617V39.9999H-3V20.0001ZM6.89362 20.0001C6.89362 23.5362 8.28343 26.9277 10.7573 29.4281C13.2312 31.9286 16.5865 33.3333 20.0851 33.3333C23.5837 33.3333 26.939 31.9286 29.4129 29.4281C31.8868 26.9277 33.2766 23.5362 33.2766 20.0001C33.2766 16.4637 31.8868 13.0723 29.4129 10.5719C26.939 8.07141 23.5837 6.66666 20.0851 6.66666C16.5865 6.66666 13.2312 8.07141 10.7573 10.5719C8.28343 13.0723 6.89362 16.4637 6.89362 20.0001Z" fill="#C8102E"/>
</g>
</g>
</g>
<defs>
<clipPath id="clip0_16699_268486">
<rect width="40" height="40" fill="white"/>
</clipPath>
</defs>
</svg>
