<svg width="40" height="40" viewBox="0 0 40 40" fill="none" xmlns="http://www.w3.org/2000/svg">
<g clip-path="url(#clip0_16699_268497)">
<mask id="mask0_16699_268497" style="mask-type:luminance" maskUnits="userSpaceOnUse" x="0" y="0" width="40" height="40">
<path d="M40 0H0V40H40V0Z" fill="white"/>
</mask>
<g mask="url(#mask0_16699_268497)">
<mask id="mask1_16699_268497" style="mask-type:luminance" maskUnits="userSpaceOnUse" x="0" y="0" width="40" height="40">
<path d="M40 20C40 8.95433 31.0457 0 20 0C8.95433 0 0 8.95433 0 20C0 31.0457 8.95433 40 20 40C31.0457 40 40 31.0457 40 20Z" fill="white"/>
</mask>
<g mask="url(#mask1_16699_268497)">
<path d="M-10 0H50V40H-10V0Z" fill="white"/>
<path d="M-10 0H50V13.3333H-10V0Z" fill="#CE1126"/>
<path d="M-10 15.5557H50V24.4446H-10V15.5557Z" fill="#0C1C8C"/>
<path d="M-10 26.6667H50V40.0001H-10V26.6667Z" fill="#3A7728"/>
</g>
</g>
</g>
<defs>
<clipPath id="clip0_16699_268497">
<rect width="40" height="40" fill="white"/>
</clipPath>
</defs>
</svg>
