<svg width="40" height="40" viewBox="0 0 40 40" fill="none" xmlns="http://www.w3.org/2000/svg">
<g clip-path="url(#clip0_16699_268522)">
<mask id="mask0_16699_268522" style="mask-type:luminance" maskUnits="userSpaceOnUse" x="0" y="0" width="40" height="40">
<path d="M40 20C40 8.95431 31.0457 0 20 0C8.95431 0 0 8.95431 0 20C0 31.0457 8.95431 40 20 40C31.0457 40 40 31.0457 40 20Z" fill="white"/>
</mask>
<g mask="url(#mask0_16699_268522)">
<mask id="mask1_16699_268522" style="mask-type:luminance" maskUnits="userSpaceOnUse" x="0" y="0" width="54" height="40">
<path d="M0 0H53.3333V40H0V0Z" fill="white"/>
</mask>
<g mask="url(#mask1_16699_268522)">
<path fill-rule="evenodd" clip-rule="evenodd" d="M0 30H53.3333V40H0V30Z" fill="#00A04D"/>
<path fill-rule="evenodd" clip-rule="evenodd" d="M0 10H53.3333V20H0V10Z" fill="#151F6D"/>
<path fill-rule="evenodd" clip-rule="evenodd" d="M0 0H53.3333V10H0V0Z" fill="#EE2737"/>
<path fill-rule="evenodd" clip-rule="evenodd" d="M0 20H53.3333V30H0V20Z" fill="#FFCD00"/>
</g>
</g>
</g>
<defs>
<clipPath id="clip0_16699_268522">
<rect width="40" height="40" fill="white"/>
</clipPath>
</defs>
</svg>
