<svg width="40" height="40" viewBox="0 0 40 40" fill="none" xmlns="http://www.w3.org/2000/svg">
<g clip-path="url(#clip0_16699_268535)">
<mask id="mask0_16699_268535" style="mask-type:luminance" maskUnits="userSpaceOnUse" x="0" y="0" width="40" height="40">
<path d="M40 0H0V40H40V0Z" fill="white"/>
</mask>
<g mask="url(#mask0_16699_268535)">
<mask id="mask1_16699_268535" style="mask-type:luminance" maskUnits="userSpaceOnUse" x="0" y="0" width="40" height="40">
<path d="M40 20C40 8.95433 31.0457 0 20 0C8.95433 0 0 8.95433 0 20C0 31.0457 8.95433 40 20 40C31.0457 40 40 31.0457 40 20Z" fill="white"/>
</mask>
<g mask="url(#mask1_16699_268535)">
<path d="M-10 0H50V40H-10V0Z" fill="#E32118"/>
<path d="M-10 0H50V26.6667H-10V0Z" fill="white"/>
<path d="M-10 0H50V13.3333H-10V0Z" fill="#3E9A00"/>
<path d="M-5 0V40L10 20L-5 0Z" fill="#0073CE"/>
<path d="M16.8009 15.9798H23.1843V22.6664C23.1843 24.9164 20.4059 23.1598 19.9927 24.3831C19.6137 23.1614 16.8177 24.9331 16.8177 22.5331C16.8177 20.1998 16.8009 15.9798 16.8009 15.9798Z" fill="white" stroke="black" stroke-width="0.04"/>
<path d="M20.4508 23.3163C20.4508 23.3163 20.3675 23.3997 20.2175 23.333C20.0675 23.2664 20.0508 19.0497 20.0508 19.0497C20.3842 18.683 20.6508 18.5664 20.6508 18.5664L20.8508 18.733C20.1008 19.1164 20.1675 19.6664 20.2342 20.6164C20.2508 20.9664 20.2508 21.4164 20.3342 21.8497C20.4508 22.3997 20.6842 22.8664 20.7008 23.2164C20.7175 23.433 20.4508 23.3163 20.4508 23.3163Z" fill="#73452B" stroke="black" stroke-width="0.00833335"/>
<path d="M19.9337 18.4668H20.2336C19.9836 20.8835 20.2003 22.3168 20.2003 23.0168C20.2003 23.2501 20.3337 23.3335 20.317 23.3335C20.017 23.6668 19.867 23.3168 19.867 23.3168L19.9337 18.4668Z" fill="#73452B" stroke="black" stroke-width="0.00833335"/>
<path d="M19.4743 23.3132C19.1908 23.4464 19.1504 23.1833 19.1671 23.15C19.7838 21.9 20.0504 19.15 19.4838 18.85L19.5172 18.5833C19.7338 18.65 19.9338 18.9333 19.9338 18.9333C20.0171 22.0167 19.9324 23.2784 19.8824 23.3284C19.5824 23.6452 19.4693 23.2872 19.4526 23.2538" fill="#A36629"/>
<path d="M19.4743 23.3132C19.1908 23.4464 19.1504 23.1833 19.1671 23.15C19.7838 21.9 20.0504 19.15 19.4838 18.85L19.5172 18.5833C19.7338 18.65 19.9338 18.9333 19.9338 18.9333C20.0171 22.0167 19.9324 23.2784 19.8824 23.3284C19.5824 23.6452 19.4693 23.2872 19.4526 23.2538" stroke="black" stroke-width="0.00833335"/>
<path d="M19.4548 23.259C19.4048 22.9923 19.8847 22.317 19.8513 21.6003" stroke="black" stroke-width="0.00833335"/>
<path d="M20.2676 22.1829C20.4176 22.5997 20.4842 22.9663 20.4509 23.3163" stroke="black" stroke-width="0.00833335"/>
<path d="M20.9164 17.3335C21.0164 17.2169 21.0164 17.2169 21.1998 17.2169C21.2332 16.9669 21.6498 16.9669 21.6831 17.2835C22.0164 17.2169 22.0832 17.4169 21.9498 17.6169C22.2664 17.5335 22.5498 17.6169 22.4664 17.9835C23.0331 18.1335 22.8164 18.5335 22.5664 18.6169C22.5332 18.8669 22.2998 18.9503 21.9832 18.8503C21.5832 19.1335 21.3498 19.0335 21.1664 18.7503C20.7164 18.8169 20.6832 18.7169 20.4832 18.4669C20.1332 18.6169 20.0664 18.6169 19.7664 18.4335C19.7498 18.6669 19.6664 18.6003 19.5164 18.5835C19.5331 18.8835 19.4164 19.0169 19.1498 18.9169C19.3498 19.3335 18.8331 19.5169 18.5831 19.1669C18.3498 19.1835 18.3332 19.1169 18.2164 19.0335C18.1164 19.3669 17.7498 19.3169 17.6831 19.1335C17.2164 19.0669 17.2664 18.8169 17.6498 18.8003C17.6831 18.5335 17.9164 18.5835 18.0664 18.6169C18.0832 18.4503 18.1831 18.4835 18.2664 18.5169C18.2164 18.4003 18.2498 18.3335 18.3998 18.3003C18.1831 18.0169 18.3164 17.9169 18.5332 17.8169C18.4164 17.5503 18.6164 17.5669 18.7664 17.5503C18.7498 17.2669 18.8332 17.2169 19.1332 17.1835C19.0998 17.0835 19.1498 17.0003 19.3164 17.0003C19.2164 16.7169 19.3498 16.6519 19.6498 16.7003C19.6998 16.2885 20.5831 16.4835 20.5164 17.0503C20.7664 17.0835 20.8498 17.1335 20.9164 17.3335Z" fill="#009A3B" stroke="black" stroke-width="0.00833335"/>
<path d="M19.1349 17.1829C19.2016 17.2163 19.2849 17.1829 19.3016 17.3663C19.4349 17.1329 19.6016 17.2663 19.6016 17.5329" stroke="black" stroke-width="0.00833335"/>
<path d="M20.5182 17.0495C20.4514 17.1495 20.2014 17.1495 20.2347 17.4162C20.1514 17.2995 19.9847 17.2662 19.9182 17.3828" stroke="black" stroke-width="0.00833335"/>
<path d="M20.9194 17.3327C20.9194 17.3994 20.9027 17.5994 20.8359 17.6994" stroke="black" stroke-width="0.00833335"/>
<path d="M21.9516 17.6165C21.9681 17.6333 21.7181 17.6165 21.6016 17.6998" stroke="black" stroke-width="0.00833335"/>
<path d="M22.5694 18.6167C22.5027 18.5835 22.3694 18.5002 22.2694 18.6335C22.2694 18.5667 22.2694 18.3835 22.0859 18.3835" stroke="black" stroke-width="0.00833335"/>
<path d="M21.9846 18.8494C21.9846 18.6827 21.9512 18.6327 21.918 18.5827" stroke="black" stroke-width="0.00833335"/>
<path d="M21.4347 18.6165C21.3014 18.5165 21.1682 18.6665 21.1682 18.7498" stroke="black" stroke-width="0.00833335"/>
<path d="M20.4677 18.4662C20.4677 18.3994 20.4177 18.2662 20.5343 18.2162" stroke="black" stroke-width="0.00833335"/>
<path d="M18.5681 19.1665C18.6016 18.9998 18.7181 18.9998 18.7016 18.9165C18.6848 18.7833 18.5348 18.6665 18.3516 18.8498" stroke="black" stroke-width="0.00833335"/>
<path d="M18.7012 18.9165C18.8012 18.8831 18.9012 18.8997 18.9345 18.9497" stroke="black" stroke-width="0.00833335"/>
<path d="M18.418 18.2998C18.4846 18.2332 18.6513 18.2498 18.7513 18.2998" stroke="black" stroke-width="0.00833335"/>
<path d="M18.7518 17.8998C18.8351 17.8998 18.9851 17.8664 19.0351 18.0164C19.2184 17.7332 19.3518 17.7664 19.3851 17.8332" stroke="black" stroke-width="0.00833335"/>
<path d="M19.7188 17.8002C19.8521 17.7502 20.0853 17.8835 20.2187 18.1168C20.2853 17.9335 20.3853 17.9668 20.4853 17.9502" stroke="black" stroke-width="0.00833335"/>
<path d="M21.1172 18.1159C21.3339 18.0159 21.4672 18.2159 21.5339 18.2993C21.6339 18.1659 21.7172 18.1659 21.8172 18.1659" stroke="black" stroke-width="0.00833335"/>
<path d="M19.1016 18.5164C19.1516 18.4332 19.2681 18.4164 19.3516 18.4664C19.3348 18.3164 19.4348 18.2498 19.5016 18.2832" stroke="black" stroke-width="0.00833335"/>
<path d="M19.7595 15.0432L19.3928 15.0598L19.2095 15.3882L19.0095 15.0748L18.6428 15.0898L18.8095 14.7598L18.6095 14.4466L18.9928 14.4298L19.1595 14.1016L19.3595 14.4148L19.7262 14.3998L19.5595 14.7298L19.7595 15.0432Z" fill="#FFD700" stroke="black" stroke-width="0.0291667"/>
<path d="M18.1922 15.165L17.8257 15.255L17.7257 15.61L17.459 15.3433L17.109 15.43L17.209 15.075L16.959 14.805L17.309 14.7167L17.409 14.36L17.6757 14.6267L18.0422 14.54L17.9257 14.8967L18.1922 15.165Z" fill="#FFD700" stroke="black" stroke-width="0.0291667"/>
<path d="M16.676 15.4767L16.3428 15.6417L16.326 16.0116L16.0094 15.8083L15.676 15.9717L15.7094 15.6017L15.3928 15.3967L15.726 15.23L15.7594 14.86L16.0594 15.0633L16.3928 14.9L16.376 15.27L16.676 15.4767Z" fill="#FFD700" stroke="black" stroke-width="0.0291667"/>
<path d="M20.2422 15.0432L20.6089 15.0598L20.7755 15.3882L20.9755 15.0748L21.3422 15.0898L21.1755 14.7598L21.3755 14.4466L21.0089 14.4298L20.8255 14.1016L20.6255 14.4148L20.2589 14.3998L20.4255 14.7298L20.2422 15.0432Z" fill="#FFD700" stroke="black" stroke-width="0.0291667"/>
<path d="M21.8086 15.165L22.1586 15.255L22.2586 15.61L22.5253 15.3433L22.8753 15.43L22.7753 15.075L23.0419 14.805L22.6753 14.7167L22.5753 14.36L22.3086 14.6267L21.9586 14.54L22.0586 14.8967L21.8086 15.165Z" fill="#FFD700" stroke="black" stroke-width="0.0291667"/>
<path d="M23.3086 15.4767L23.6419 15.6417L23.6586 16.0116L23.9753 15.8083L24.3086 15.9717L24.2919 15.6017L24.5919 15.3967L24.2586 15.23L24.2419 14.86L23.9253 15.0633L23.5919 14.9L23.6253 15.27L23.3086 15.4767Z" fill="#FFD700" stroke="black" stroke-width="0.0291667"/>
<path d="M21.1248 24.2832L21.1581 24.8832C21.1581 24.8832 21.3248 24.8832 21.4748 24.8332C21.6081 24.7832 21.7248 24.6832 21.7248 24.6832L21.7081 24.3666L21.1248 24.2832Z" fill="white" stroke="black" stroke-width="0.0291667"/>
<path d="M18.8926 24.2832L18.8592 24.8665C18.8592 24.8665 18.7092 24.8665 18.5592 24.8332C18.4259 24.7999 18.3092 24.7165 18.3092 24.7165L18.1426 24.3165L18.8926 24.2832Z" fill="white" stroke="black" stroke-width="0.0291667"/>
<path d="M16.1964 22.5327L15.7753 23.1327L15.3086 22.3661L15.6586 21.9993L16.1964 22.5327Z" fill="white" stroke="black" stroke-width="0.029175" stroke-linejoin="round"/>
<path d="M18.291 25.4829C18.291 26.0497 21.7243 26.0497 21.7243 25.4829V24.6829C21.7243 25.0997 18.291 25.0163 18.291 24.6829V25.4829Z" fill="white" stroke="black" stroke-width="0.0291667"/>
<path d="M15.2246 23.6327C15.5246 25.166 18.2914 25.1994 18.2914 25.1994V24.6827C18.2246 24.4827 18.3414 24.416 18.7914 24.3494C18.9746 24.3327 18.8914 24.066 18.8914 24.066C18.8914 24.066 17.6914 24.2827 16.8414 23.9494C15.6914 23.4827 15.5246 22.5827 15.5246 22.5827C15.5246 22.5827 15.4414 23.2827 15.2246 23.6327Z" fill="white" stroke="black" stroke-width="0.0291667"/>
<path d="M24.7749 23.6327C24.4915 25.166 21.7249 25.1994 21.7249 25.1994V24.6827C21.7749 24.4827 21.6581 24.416 21.2081 24.3494C21.0249 24.3327 21.1249 24.066 21.1249 24.066C21.1249 24.066 22.3249 24.2827 23.1749 23.9494C24.3081 23.4827 24.4415 22.5827 24.4415 22.5827C24.4415 22.5827 24.5581 23.2827 24.7749 23.6327Z" fill="white" stroke="black" stroke-width="0.0291667"/>
<path d="M15.4334 23.0494C14.6668 22.6328 15.2718 22.1994 15.3384 20.9662C15.7242 21.7506 16.1057 21.7762 16.2146 22.2732C16.228 22.3343 16.2383 22.4453 16.2049 22.5162C15.8549 22.5328 15.6884 21.9994 15.5218 22.5828L15.4334 23.0494Z" fill="white" stroke="black" stroke-width="0.0291667"/>
<path d="M23.7891 22.5327L24.2101 23.1327L24.6768 22.3661L24.3268 21.9993L23.7891 22.5327Z" fill="white" stroke="black" stroke-width="0.029175" stroke-linejoin="round"/>
<path d="M24.5517 23.0494C25.3184 22.6328 24.7134 22.1994 24.6467 20.9662C24.2609 21.7506 23.8794 21.7762 23.7705 22.2732C23.7571 22.3343 23.7468 22.4453 23.7803 22.5162C24.1303 22.5328 24.2967 21.9994 24.4634 22.5828L24.5517 23.0494Z" fill="white" stroke="black" stroke-width="0.0291667"/>
<path d="M15.9072 23.6165L15.9906 23.6833L15.8072 23.8832C15.7339 23.9633 15.7161 24.0162 15.7671 24.065C15.8303 24.1254 15.8748 24.1044 15.9406 24.0332L16.1406 23.8165L16.2072 23.8832L16.0074 24.1163C15.8989 24.2429 15.7983 24.214 15.7138 24.1352C15.6402 24.0663 15.5981 23.9668 15.7062 23.8443L15.9079 23.6175L15.9072 23.6165Z" fill="black"/>
<path d="M16.2407 23.8997L16.3239 23.9498L16.3073 24.3497L16.4907 24.0664L16.5739 24.1164L16.3073 24.5497L16.2073 24.4998L16.2239 24.0997L16.0407 24.3832L15.9573 24.3332L16.2407 23.8997Z" fill="black"/>
<path d="M16.3907 24.5994L16.6239 24.1328L16.7074 24.1828L16.4907 24.6328L16.3907 24.5994Z" fill="black"/>
<path d="M16.7582 24.1998L16.5742 24.6828L16.7582 24.7498C16.9297 24.8123 17.0102 24.7368 17.0647 24.5918C17.1197 24.4443 17.0957 24.3358 16.9242 24.2668L16.7582 24.1998ZM16.8242 24.3168C16.9967 24.3768 17.0072 24.4423 16.9602 24.5608C16.9147 24.6733 16.8722 24.7173 16.7082 24.6328L16.8242 24.3168Z" fill="black"/>
<path d="M17.308 24.3828L17.008 24.8328L17.124 24.8668L17.191 24.7498L17.391 24.7998L17.408 24.9168L17.524 24.9328L17.408 24.3998L17.308 24.3828ZM17.341 24.4998L17.374 24.6998L17.241 24.6828L17.341 24.4998Z" fill="black"/>
<path d="M17.5922 24.4264L17.5742 24.9429L17.7704 24.9468C17.9527 24.9503 18.0046 24.8532 18.009 24.6983C18.0135 24.5408 17.9555 24.4458 17.7707 24.4363L17.5922 24.4264ZM17.6923 24.516C17.875 24.5168 17.9063 24.5752 17.8998 24.7027C17.8937 24.8238 17.8673 24.8792 17.6851 24.8522L17.6923 24.516Z" fill="black"/>
<path d="M19.3403 25.1497V25.6827H19.4573V25.4827C19.4573 25.4827 19.5573 25.4888 19.6403 25.4668C19.7058 25.4498 19.7513 25.4078 19.7528 25.3043C19.7543 25.2028 19.6953 25.1497 19.5933 25.1497H19.3403ZM19.4573 25.2327L19.5748 25.2343C19.6728 25.2343 19.6543 25.3827 19.5778 25.3827H19.4573V25.2327Z" fill="black"/>
<path d="M19.9417 25.1494L19.7247 25.6824H19.8417L19.8917 25.5494H20.1087L20.1587 25.6824H20.2747L20.0581 25.1491L19.9417 25.1494ZM19.9917 25.2664L20.0747 25.4664H19.9247L19.9917 25.2664Z" fill="black"/>
<path d="M20.2734 25.5824L20.5568 25.2324H20.3068V25.1491H20.7068V25.2324L20.4068 25.5824H20.7068V25.6824H20.2734V25.5824Z" fill="black"/>
<path d="M21.9577 24.5499L22.0577 24.5332L22.1077 24.8332C22.1256 24.9399 22.0769 25.0126 22.0009 25.0407C21.9145 25.0726 21.8041 25.0434 21.7911 24.8999L21.8745 24.8832C21.8939 24.9691 21.9285 24.9766 21.9685 24.9631C22.0001 24.9524 22.0166 24.9024 22.0077 24.8499L21.9577 24.5499Z" fill="black"/>
<path d="M22.1231 24.5195L22.2218 24.5008L22.2674 24.7505C22.2869 24.8573 22.3204 24.9028 22.3899 24.8906C22.4762 24.8755 22.4856 24.8273 22.4673 24.7321L22.4059 24.4658L22.5069 24.4505L22.5739 24.7276C22.6131 24.8896 22.5284 24.9539 22.4148 24.9751C22.3158 24.9936 22.2106 24.9684 22.1761 24.8086L22.1231 24.5195Z" fill="black"/>
<path d="M22.6417 24.7492L22.7251 24.7158C22.7661 24.7893 22.8297 24.7855 22.8794 24.7636C22.9482 24.7332 22.9561 24.6728 22.9221 24.6526C22.8736 24.6235 22.7576 24.6648 22.6951 24.642C22.6205 24.6147 22.5884 24.5727 22.5922 24.5081C22.5969 24.4303 22.6652 24.3876 22.7396 24.3645C22.823 24.3387 22.9051 24.3478 22.9585 24.4492L22.8585 24.4826C22.826 24.4278 22.7841 24.4303 22.7469 24.4478C22.7157 24.4626 22.6671 24.4902 22.6931 24.5347C22.7145 24.571 22.837 24.5473 22.9015 24.5501C22.9681 24.5528 23.0221 24.5973 23.0311 24.6615C23.0437 24.751 23.0106 24.7995 22.9071 24.8398C22.7794 24.8896 22.6641 24.8338 22.6417 24.7492Z" fill="black"/>
<path d="M23.0909 24.3328L22.9576 24.3994L22.9242 24.316L23.2909 24.166L23.3242 24.2327L23.1909 24.2994L23.3409 24.666L23.2576 24.716L23.0909 24.3328Z" fill="black"/>
<path d="M23.3066 24.1496L23.3899 24.0996L23.6233 24.533L23.5399 24.583L23.3066 24.1496Z" fill="black"/>
<path d="M23.8729 24.1829L23.9729 24.1495C24.0199 24.2484 23.9493 24.4281 23.7766 24.4244C23.5239 24.419 23.4966 24.1406 23.5363 24.0488C23.603 23.8946 23.79 23.8976 23.8729 23.9829L23.7896 24.0495C23.7368 23.9818 23.6194 24.0245 23.6114 24.0868C23.5985 24.1886 23.6433 24.2833 23.7343 24.3283C23.8114 24.3663 23.9303 24.2705 23.8729 24.1829Z" fill="black"/>
<path d="M23.8244 23.8329L23.9077 23.7663L24.2077 24.1662L24.1244 24.2329L23.8244 23.8329Z" fill="black"/>
<path d="M24.1396 23.5827L24.0566 23.6497L24.2396 24.1497L24.3226 24.0667L24.2726 23.9667L24.4226 23.8327L24.5226 23.8827L24.6066 23.8167L24.1396 23.5827ZM24.1726 23.6997L24.3396 23.7827L24.2396 23.8827L24.1726 23.6997Z" fill="black"/>
</g>
</g>
</g>
<defs>
<clipPath id="clip0_16699_268535">
<rect width="40" height="40" fill="white"/>
</clipPath>
</defs>
</svg>
