<svg width="40" height="40" viewBox="0 0 40 40" fill="none" xmlns="http://www.w3.org/2000/svg">
<g clip-path="url(#clip0_16699_268615)">
<mask id="mask0_16699_268615" style="mask-type:luminance" maskUnits="userSpaceOnUse" x="0" y="0" width="40" height="40">
<path d="M40 20C40 8.95431 31.0457 0 20 0C8.95431 0 0 8.95431 0 20C0 31.0457 8.95431 40 20 40C31.0457 40 40 31.0457 40 20Z" fill="white"/>
</mask>
<g mask="url(#mask0_16699_268615)">
<mask id="mask1_16699_268615" style="mask-type:luminance" maskUnits="userSpaceOnUse" x="-7" y="0" width="54" height="40">
<path d="M-6.66669 0H46.6666V40H-6.66669V0Z" fill="white"/>
</mask>
<g mask="url(#mask1_16699_268615)">
<path fill-rule="evenodd" clip-rule="evenodd" d="M-6.66669 0H46.6665V40H-6.66669V0Z" fill="#F41408"/>
<path fill-rule="evenodd" clip-rule="evenodd" d="M-6.66663 26.6664H46.6665V40H-6.66663V26.6664Z" fill="#21873B"/>
<path fill-rule="evenodd" clip-rule="evenodd" d="M-6.66669 0H46.6665V13.3336H-6.66669V0Z" fill="black"/>
<path fill-rule="evenodd" clip-rule="evenodd" d="M11.7067 11.755C13.5657 7.64983 18.7486 5.68617 23.2759 7.37192C25.5559 8.22092 27.1709 9.68475 28.1081 11.7519L11.7073 11.755H11.7067ZM9.54256 12.2854C7.58837 12.154 5.5112 11.7474 5.17228 11.6356C4.83345 11.5237 4.82037 11.3368 4.86212 11.1937C4.90387 11.0506 5.12012 10.8881 5.3727 10.9487C5.8462 11.0622 7.7717 11.5241 9.54222 12.2857L9.54256 12.2854ZM19.9284 5.12617C19.5777 3.37783 19.4892 1.453 19.5234 1.12742C19.5576 0.801919 19.7538 0.743419 19.9171 0.744085C20.0804 0.744752 20.3081 0.89375 20.3071 1.13058C20.3048 1.57475 20.2961 3.38075 19.9284 5.12617ZM20.8901 5.16675C20.7059 3.39758 20.7996 1.47292 20.8644 1.15125C20.9292 0.829585 21.1302 0.786585 21.2928 0.799919C21.4555 0.813252 21.6684 0.979334 21.6448 1.21525C21.6006 1.65758 21.4213 3.45633 20.8901 5.16675ZM21.7617 5.27383C21.7387 3.497 22.0067 1.58583 22.1006 1.27C22.1944 0.95425 22.3986 0.926417 22.5594 0.951834C22.7202 0.97725 22.9173 1.15875 22.8725 1.39208C22.7883 1.82958 22.4464 3.60883 21.7617 5.27383ZM22.6792 5.45992C22.8286 3.68808 23.2811 1.80575 23.4051 1.49858C23.5293 1.19158 23.7354 1.18017 23.8931 1.21825C24.0509 1.25642 24.2296 1.45292 24.1622 1.68175C24.0361 2.11092 23.5228 3.85592 22.6792 5.45992ZM23.5834 5.72108C23.9056 3.96825 24.5406 2.12967 24.6942 1.83383C24.8479 1.538 25.0543 1.54317 25.2076 1.59383C25.3611 1.64458 25.5199 1.85467 25.4305 2.07717C25.263 2.49442 24.5805 4.19133 23.5838 5.721L23.5834 5.72108ZM24.4259 6.04033C24.9122 4.31892 25.7181 2.53633 25.8991 2.25342C26.0801 1.97058 26.2853 1.99175 26.4333 2.05425C26.5814 2.11658 26.7198 2.33817 26.6097 2.553C26.4032 2.95575 25.5637 4.5935 24.4259 6.04033ZM25.2551 6.43392C25.9057 4.75783 26.8806 3.046 27.0883 2.77867C27.2959 2.51117 27.4983 2.54867 27.6397 2.62258C27.7811 2.6965 27.8976 2.92825 27.7672 3.13342C27.5226 3.51825 26.5282 5.083 25.2551 6.43392ZM26.0392 6.88958C26.8486 5.27125 27.9843 3.64308 28.2168 3.39308C28.4493 3.14308 28.6473 3.19642 28.7811 3.28117C28.9149 3.366 29.0087 3.60608 28.8591 3.80017C28.5785 4.16417 27.4374 5.64442 26.0392 6.88958ZM26.7776 7.40625C27.7396 5.85817 29.0276 4.326 29.2834 4.09542C29.5391 3.86475 29.7312 3.9335 29.8563 4.02858C29.9815 4.12358 30.0517 4.37025 29.884 4.55175C29.5694 4.89217 28.2901 6.2765 26.7776 7.40625ZM27.4651 7.98042C28.5727 6.51458 30.0037 5.09042 30.2806 4.88108C30.5576 4.67158 30.7423 4.75525 30.8578 4.85992C30.9733 4.96458 31.0195 5.21575 30.8349 5.38333C30.4887 5.6975 29.0808 6.975 27.465 7.9805L27.4651 7.98042ZM28.0967 8.60917C29.342 7.237 30.9051 5.93225 31.2013 5.74567C31.4975 5.559 31.6734 5.65717 31.7783 5.77058C31.8832 5.88392 31.905 6.13792 31.7049 6.29017C31.3296 6.5755 29.8036 7.73617 28.0967 8.60917ZM28.6401 9.25375C30.0076 7.98092 31.6858 6.7995 31.9981 6.636C32.3105 6.47258 32.4767 6.58358 32.5708 6.70458C32.6649 6.82558 32.6631 7.08025 32.4496 7.21675C32.0494 7.47267 30.4215 8.51342 28.6401 9.25375ZM29.1317 9.95275C30.6143 8.79075 32.3978 7.74375 32.7245 7.60508C33.0511 7.46642 33.2063 7.59008 33.2886 7.71783C33.3709 7.84567 33.3451 8.09933 33.1195 8.21867C32.6966 8.44267 30.9766 9.35333 29.1317 9.95275ZM29.5876 10.7492C31.1824 9.71667 33.0651 8.82392 33.4046 8.71333C33.744 8.60267 33.8858 8.73867 33.9547 8.87292C34.0236 9.00708 33.9721 9.2575 33.7353 9.35742C33.2912 9.54492 31.4856 10.3072 29.5876 10.7492ZM29.9359 11.5184C31.6226 10.6137 33.5828 9.87083 33.9314 9.78692C34.28 9.70308 34.4085 9.84967 34.4644 9.98875C34.5204 10.1279 34.4453 10.3732 34.2 10.4544C33.7398 10.6067 31.8688 11.2257 29.9358 11.5184H29.9359ZM30.2159 12.3338C31.9839 11.5674 34.0087 10.984 34.3641 10.9283C34.7196 10.8727 34.8333 11.0289 34.8755 11.1719C34.9177 11.3149 34.8191 11.5534 34.5668 11.6147C34.0936 11.7295 32.1697 12.1967 30.216 12.3338H30.2159ZM18.9876 5.15933C18.4601 3.44783 18.1756 1.53867 18.1765 1.21158C18.1773 0.884583 18.3667 0.809919 18.5293 0.796919C18.692 0.783835 18.934 0.913084 18.957 1.149C19.0001 1.59142 19.1756 3.39058 18.9876 5.15933ZM18.0626 5.26775C17.3723 3.60458 16.9051 1.72517 16.8746 1.39933C16.844 1.0735 17.0254 0.984167 17.1861 0.95825C17.347 0.932417 17.6005 1.042 17.6461 1.27517C17.7316 1.7125 18.0797 3.49083 18.0626 5.26775ZM17.1434 5.45108C16.2942 3.84958 15.6459 2.01483 15.5834 1.69258C15.5212 1.3705 15.6934 1.267 15.8509 1.22842C16.0086 1.18975 16.2717 1.27858 16.3399 1.50725C16.4676 1.93608 16.9871 3.67975 17.1426 5.451L17.1434 5.45108ZM16.2767 5.69658C15.2809 4.16617 14.4634 2.388 14.3717 2.07175C14.2796 1.75558 14.4414 1.63925 14.5948 1.58867C14.7482 1.538 15.0188 1.60633 15.1081 1.82892C15.2756 2.24625 15.9564 3.94358 16.2773 5.69658H16.2767ZM15.4301 6.01092C14.2926 4.5635 13.3101 2.85533 13.1884 2.54742C13.0667 2.2395 13.217 2.111 13.3651 2.04867C13.5131 1.98633 13.7892 2.03333 13.8991 2.24825C14.1054 2.65108 14.9441 4.28925 15.4293 6.01092H15.4301ZM14.5742 6.41117C13.2981 5.06258 12.1501 3.4415 11.9984 3.14483C11.8467 2.84817 11.9835 2.70792 12.1247 2.63375C12.2661 2.55958 12.5456 2.58383 12.6766 2.78875C12.9219 3.17317 13.9199 4.73617 14.5743 6.41125L14.5742 6.41117ZM13.7951 6.85883C12.3951 5.61517 11.0976 4.09 10.9176 3.80633C10.7381 3.52267 10.8611 3.37217 10.9948 3.28725C11.1286 3.20225 11.4094 3.20458 11.5593 3.39858C11.8403 3.76225 12.9834 5.24133 13.7948 6.85892L13.7951 6.85883ZM13.0651 7.35683C11.5535 6.226 10.1166 4.80683 9.91114 4.53808C9.70572 4.26925 9.81406 4.10983 9.93922 4.01492C10.0645 3.91992 10.3446 3.90042 10.5121 4.08208C10.8264 4.42275 12.1045 5.80792 13.0651 7.35683ZM12.3559 7.93583C10.7392 6.93142 9.16839 5.63408 8.93756 5.383C8.70656 5.13183 8.79881 4.96433 8.91414 4.85967C9.02956 4.75483 9.30656 4.71283 9.49131 4.88025C9.83781 5.19408 11.247 6.4705 12.3561 7.9355L12.3559 7.93583ZM11.7434 8.52983C10.0395 7.65208 8.35439 6.47867 8.10095 6.246C7.84753 6.01333 7.92395 5.83933 8.02928 5.72625C8.13453 5.61308 8.40672 5.55025 8.60631 5.70292C8.98064 5.98942 10.5028 7.15433 11.7434 8.52983ZM11.1567 9.20833C9.37356 8.4715 7.58003 7.43858 7.30478 7.22733C7.02953 7.016 7.08862 6.8365 7.18237 6.71542C7.2762 6.59425 7.54112 6.50958 7.75487 6.64567C8.15578 6.90083 9.78622 7.93817 11.1567 9.20833ZM10.6309 9.94367C8.78164 9.35567 6.8927 8.47383 6.59753 8.28592C6.30237 8.098 6.34337 7.9145 6.4247 7.78617C6.50603 7.65783 6.76145 7.55183 6.98795 7.66983C7.41262 7.89108 9.13956 8.79092 10.631 9.94375L10.6309 9.94367ZM10.1942 10.691C8.29545 10.2514 6.32895 9.52225 6.01687 9.35833C5.70478 9.19442 5.72795 9.00833 5.79662 8.87408C5.86537 8.73975 6.10962 8.61408 6.34662 8.71367C6.79087 8.90058 8.59789 9.6605 10.1942 10.691ZM9.84422 11.4398C7.91153 11.1462 5.88453 10.569 5.55837 10.4293C5.2322 10.2897 5.23812 10.1025 5.2942 9.9635C5.3502 9.82442 5.58203 9.68058 5.82737 9.76192C6.28737 9.91442 8.15812 10.5342 9.84422 11.4398Z" fill="#F31509"/>
<path fill-rule="evenodd" clip-rule="evenodd" d="M9.54256 12.2854C7.58837 12.154 5.5112 11.7474 5.17228 11.6356C4.83345 11.5237 4.82037 11.3368 4.86212 11.1937C4.90387 11.0506 5.12012 10.8881 5.3727 10.9487C5.8462 11.0622 7.7717 11.5241 9.54222 12.2857L9.54256 12.2854Z" fill="#F31509"/>
<path fill-rule="evenodd" clip-rule="evenodd" d="M4.1156 11.7935H35.8848V12.8403H4.1156V11.7935Z" fill="black"/>
</g>
</g>
</g>
<defs>
<clipPath id="clip0_16699_268615">
<rect width="40" height="40" fill="white"/>
</clipPath>
</defs>
</svg>
