<svg width="40" height="40" viewBox="0 0 40 40" fill="none" xmlns="http://www.w3.org/2000/svg">
<g clip-path="url(#clip0_16699_268986)">
<mask id="mask0_16699_268986" style="mask-type:luminance" maskUnits="userSpaceOnUse" x="0" y="0" width="40" height="40">
<path d="M40 20C40 8.95431 31.0457 0 20 0C8.95431 0 0 8.95431 0 20C0 31.0457 8.95431 40 20 40C31.0457 40 40 31.0457 40 20Z" fill="white"/>
</mask>
<g mask="url(#mask0_16699_268986)">
<mask id="mask1_16699_268986" style="mask-type:luminance" maskUnits="userSpaceOnUse" x="-7" y="0" width="54" height="40">
<path d="M-6.66669 0H46.6666V40H-6.66669V0Z" fill="white"/>
</mask>
<g mask="url(#mask1_16699_268986)">
<path fill-rule="evenodd" clip-rule="evenodd" d="M-6.66669 0H46.6666V40H-6.66669V0Z" fill="#BE0027"/>
<path fill-rule="evenodd" clip-rule="evenodd" d="M2.25006 20C2.25006 10.1969 10.197 2.25 20.0001 2.25C29.8031 2.25 37.7501 10.1969 37.7501 20C37.7501 29.8031 29.8031 37.75 20.0001 37.75C10.197 37.75 2.25006 29.8031 2.25006 20Z" fill="#3B5AA3"/>
<path fill-rule="evenodd" clip-rule="evenodd" d="M19.5287 34.4363C19.7307 34.5471 20.0502 34.5413 20.2299 34.445C31.7122 28.3367 31.7189 11.5846 20.2466 5.56234C20.0335 5.45001 19.7237 5.45609 19.5119 5.57101C8.32271 11.6927 8.29271 28.2548 19.5286 34.4371L19.5287 34.4363Z" fill="#CBE0E5"/>
<path fill-rule="evenodd" clip-rule="evenodd" d="M19.5288 34.7383C19.7073 34.884 20.0673 34.87 20.2299 34.7472C28.6916 28.4122 28.7411 24.463 28.3661 24.4633L11.619 24.4718C11.3629 24.4721 11.7665 28.4808 19.5285 34.7383H19.5288Z" fill="#ADD2D9"/>
<path fill-rule="evenodd" clip-rule="evenodd" d="M12.9454 27.6019C13.6715 27.413 14.5485 27.3631 15.2631 27.7448C15.898 28.0765 16.2658 28.0733 16.9498 28.0823C17.6656 28.0921 18.2285 28.6182 19.0025 28.6387C20.4279 28.676 21.0284 29.3828 19.9204 29.3842C19.3965 29.385 18.2737 29.035 17.7319 29.1102C16.5996 29.2271 15.881 29.4777 14.8157 30.6629L16.0471 31.5067C17.1123 31.0725 17.2908 30.5842 17.8806 30.5647C18.547 30.5433 18.7734 30.1306 19.5439 30.1296C20.4194 30.2887 21.6051 30.0209 22.2998 29.8654C23.5317 29.5787 22.9456 28.7179 22.1989 28.4057C21.5951 28.1487 20.4648 28.3962 19.763 28.1412C19.2317 27.935 19.6688 27.6034 19.954 27.5326C20.2424 27.4794 20.5515 27.5737 20.9102 27.6314C21.5502 27.6867 22.3544 27.6252 22.9163 27.5372C24.0783 27.3572 24.0293 27.0164 24.5904 27.0072C24.9996 26.9877 25.311 26.8653 25.5896 26.6651C25.9173 26.4457 26.2579 25.9962 26.655 26.0132L27.7179 26.0582L26.2208 29.4252L21.9911 33.7304L19.8006 34.5612L14.9856 31.4268L12.5576 27.7027L12.9455 27.6018L12.9454 27.6019Z" fill="#FDF9A1"/>
<path fill-rule="evenodd" clip-rule="evenodd" d="M18.479 24.3281L28.147 24.2831L28.317 23.4264C28.317 23.4264 27.972 23.375 27.6936 23.3587C27.3466 23.3374 26.7516 23.7217 26.353 23.7195C26.0711 23.7174 25.748 23.2128 25.4658 23.2233C24.973 23.2187 24.9291 23.6622 24.4648 23.6744C24.09 23.6616 23.9304 23.3754 23.4451 23.4038C22.9362 23.4326 22.9741 23.7127 22.3312 23.6967C21.482 23.6756 21.1412 22.9387 20.4618 22.9305C19.3279 22.917 19.291 24.0126 18.4789 24.328L18.479 24.3281Z" fill="#179A3B"/>
<path fill-rule="evenodd" clip-rule="evenodd" d="M18.479 24.5347L28.4302 24.484V24.2137L18.2527 24.2643L18.479 24.5347Z" fill="#FDF9A1"/>
<path fill-rule="evenodd" clip-rule="evenodd" d="M22.5682 27.5252C22.7215 28.113 22.8832 28.3127 23.5012 28.4627C24.1117 28.6127 25.043 28.0176 24.4642 27.443C23.9132 26.9084 23.3341 26.7727 22.8403 26.2913C21.8012 25.2647 20.2357 22.7494 20.2342 20.9755C20.233 19.4523 20.0861 16.3258 20.0851 13.3647C20.0859 13.1727 19.5064 13.9026 19.5073 14.0976C19.534 16.7101 19.5298 18.6845 19.636 21.3188C19.8006 23.2445 20.7196 24.5412 21.5264 25.7115C21.8879 26.2723 22.4104 26.8771 22.5682 27.5254L22.5682 27.5252Z" fill="#A79270"/>
<path d="M15.877 19.0403C15.8615 18.9917 15.8392 18.9456 15.811 18.9032C15.785 18.8631 15.7525 18.8277 15.7147 18.7985C15.677 18.7693 15.6343 18.747 15.5889 18.7326C15.5388 18.717 15.4866 18.7093 15.4343 18.7098C15.3455 18.7089 15.2584 18.7337 15.1834 18.7811C15.108 18.8286 15.0482 18.8986 15.0037 18.9911C14.9593 19.0835 14.937 19.197 14.937 19.3314C14.937 19.4658 14.9595 19.5792 15.0045 19.6717C15.0495 19.7642 15.1104 19.8342 15.1871 19.8817C15.264 19.9292 15.3504 19.9529 15.4464 19.9529C15.5353 19.9529 15.6136 19.934 15.6814 19.8961C15.7489 19.8584 15.8041 19.8022 15.8405 19.7339C15.879 19.6637 15.8981 19.581 15.8981 19.486L15.9558 19.4982H15.4889V19.3314H16.08V19.4982C16.08 19.626 16.0528 19.7372 15.9982 19.8317C15.9456 19.9247 15.8679 20.0009 15.7739 20.0515C15.6789 20.103 15.5697 20.1288 15.4464 20.1288C15.309 20.1288 15.1882 20.0965 15.084 20.0317C14.9805 19.9671 14.8996 19.8752 14.8415 19.7559C14.7839 19.6366 14.7551 19.4952 14.7551 19.3314C14.7551 19.2086 14.7715 19.0982 14.8044 19.0002C14.8377 18.9016 14.8847 18.8177 14.9454 18.7485C15.0045 18.6803 15.078 18.626 15.1606 18.5893C15.2435 18.5524 15.3347 18.534 15.4343 18.534C15.5161 18.534 15.5925 18.5464 15.6632 18.5712C15.7322 18.5942 15.7967 18.6294 15.8535 18.675C15.9095 18.7194 15.957 18.7736 15.9936 18.8349C16.0316 18.8982 16.0578 18.9677 16.071 19.0403H15.877Z" fill="#BD0728"/>
<path d="M15.877 19.0403L15.7906 19.0685L15.8111 19.1311H15.877V19.0403ZM15.811 18.9032L15.7351 18.9528L15.7354 18.9534L15.7357 18.9539L15.811 18.9032ZM15.7147 18.7985L15.6589 18.8701L15.6593 18.8704L15.7147 18.7985ZM15.6814 19.8961L15.7257 19.9753L15.7259 19.9752L15.6814 19.8961ZM15.8406 19.7339L15.7609 19.6903L15.7608 19.6906L15.8406 19.7339ZM15.8981 19.486L15.9169 19.3972L15.8074 19.3742V19.486H15.8981ZM15.9558 19.4982V19.5889L15.9745 19.4093L15.9558 19.4982ZM15.4889 19.4982H15.3981V19.5889H15.4889V19.4982ZM15.4889 19.3314V19.2407H15.3981V19.3314H15.4889ZM16.0801 19.3314H16.1709V19.2407H16.0801V19.3314ZM15.9982 19.8317L15.9196 19.7862L15.9195 19.7866L15.9982 19.8317ZM15.7739 20.0515L15.8171 20.1312L15.8173 20.1312L15.7739 20.0515ZM15.0841 20.0317L15.036 20.1087L15.0361 20.1089L15.0841 20.0317ZM14.8416 19.7559L14.7598 19.7953L14.7599 19.7957L14.8416 19.7559ZM14.8044 19.0002L14.7184 18.9711L14.7183 18.9713L14.8044 19.0002ZM15.6632 18.5712L15.6332 18.6568L15.634 18.6571L15.6632 18.5712ZM15.8535 18.675L15.7963 18.7456L15.7971 18.7461L15.8535 18.675ZM15.9936 18.8349L15.9159 18.8817L15.9161 18.882L15.9936 18.8349ZM16.071 19.0403V19.1311H16.1804L16.1602 19.0236L16.071 19.0403ZM15.9632 19.0122C15.9451 18.9555 15.9192 18.9017 15.8862 18.8523L15.7357 18.9539C15.7579 18.9867 15.7763 19.0247 15.7906 19.0685L15.9632 19.0122ZM15.887 18.8534C15.8554 18.8048 15.8159 18.762 15.7701 18.7266L15.6593 18.8704C15.6884 18.8928 15.7136 18.9201 15.7351 18.9528L15.887 18.8534ZM15.7706 18.727C15.7245 18.6912 15.6724 18.6637 15.6168 18.6462L15.5611 18.819C15.5985 18.8311 15.6308 18.8482 15.6589 18.8701L15.7706 18.727ZM15.6168 18.6462C15.5577 18.6277 15.4961 18.6185 15.4343 18.6191V18.8006C15.4821 18.8006 15.5241 18.8071 15.5611 18.819L15.6168 18.6462ZM15.4343 18.6191C15.3284 18.6181 15.2245 18.6477 15.135 18.7043L15.2318 18.8578C15.2923 18.8196 15.3626 18.7997 15.4343 18.8006V18.6191ZM15.135 18.7043C15.0431 18.7622 14.9726 18.8463 14.922 18.9518L15.0856 19.0304C15.1238 18.9509 15.1731 18.8949 15.2318 18.8578L15.135 18.7043ZM14.922 18.9518C14.8701 19.0597 14.8462 19.1874 14.8462 19.3314H15.0278C15.0278 19.2066 15.0485 19.1074 15.0856 19.0304L14.922 18.9518ZM14.8462 19.3314C14.8462 19.4755 14.8703 19.6034 14.9229 19.7114L15.0861 19.632C15.0487 19.5552 15.0278 19.4561 15.0278 19.3314H14.8462ZM14.9229 19.7114C14.9743 19.8172 15.0461 19.9012 15.1394 19.9589L15.2349 19.8045C15.1746 19.7673 15.1246 19.7113 15.0861 19.632L14.9229 19.7114ZM15.1394 19.9589C15.2315 20.0158 15.3346 20.0437 15.4464 20.0437V19.8622C15.3661 19.8622 15.2965 19.8426 15.2349 19.8045L15.1394 19.9589ZM15.4464 20.0437C15.5486 20.0437 15.6426 20.0218 15.7257 19.9753L15.6371 19.8169C15.5847 19.8462 15.5221 19.8622 15.4464 19.8622V20.0437ZM15.7259 19.9752C15.8083 19.9291 15.8757 19.8604 15.9203 19.7772L15.7608 19.6906C15.7326 19.7438 15.6895 19.7877 15.6369 19.817L15.7259 19.9752ZM15.9202 19.7774C15.9671 19.6916 15.989 19.5934 15.989 19.486H15.8074C15.8074 19.5687 15.7908 19.6357 15.7609 19.6903L15.9202 19.7774ZM15.8795 19.5748L15.9371 19.587L15.9745 19.4093L15.9169 19.3972L15.8795 19.5748ZM15.9558 19.4074H15.4889V19.5889H15.9558V19.4074ZM15.5796 19.4982V19.3314H15.3981V19.4982H15.5796ZM15.4889 19.4222H16.0801V19.2407H15.4889V19.4222ZM15.9893 19.3314V19.4982H16.1709V19.3314H15.9893ZM15.9893 19.4982C15.9893 19.6128 15.965 19.7077 15.9196 19.7862L16.0768 19.8771C16.1406 19.7666 16.1709 19.6392 16.1709 19.4982H15.9893ZM15.9195 19.7866C15.8752 19.865 15.8096 19.9292 15.7304 19.9717L15.8173 20.1312C15.9261 20.0725 16.0161 19.9842 16.077 19.8767L15.9195 19.7866ZM15.7306 19.9717C15.6506 20.0151 15.5567 20.038 15.4464 20.038V20.2196C15.5826 20.2196 15.7071 20.191 15.8171 20.1312L15.7306 19.9717ZM15.4464 20.038C15.3238 20.038 15.22 20.0094 15.132 19.9547L15.0361 20.1089C15.1564 20.1836 15.2941 20.2196 15.4464 20.2196V20.038ZM15.1321 19.9548C15.0442 19.8999 14.9745 19.8214 14.9231 19.7161L14.7599 19.7957C14.8248 19.9288 14.9167 20.0343 15.036 20.1087L15.1321 19.9548ZM14.9232 19.7164C14.8728 19.612 14.8459 19.4846 14.8459 19.3314H14.6643C14.6643 19.5057 14.695 19.6613 14.7598 19.7953L14.9232 19.7164ZM14.8459 19.3314C14.8459 19.2166 14.8612 19.1162 14.8905 19.029L14.7183 18.9713C14.6818 19.0803 14.6643 19.2006 14.6643 19.3314H14.8459ZM14.8904 19.0292C14.9204 18.9406 14.9618 18.8675 15.0136 18.8083L14.8771 18.6887C14.8076 18.768 14.7551 18.8627 14.7184 18.9711L14.8904 19.0292ZM15.0136 18.8083C15.0642 18.75 15.127 18.7036 15.1976 18.6723L15.1237 18.5064C15.0291 18.5484 14.945 18.6106 14.8771 18.6887L15.0136 18.8083ZM15.1976 18.6723C15.2677 18.641 15.3462 18.6247 15.4343 18.6247V18.4433C15.3232 18.4433 15.2193 18.4638 15.1237 18.5064L15.1976 18.6723ZM15.4343 18.6247C15.5069 18.6247 15.573 18.6358 15.6332 18.6568L15.6931 18.4855C15.6099 18.4568 15.5223 18.4425 15.4343 18.4433V18.6247ZM15.634 18.6571C15.6956 18.6781 15.7495 18.7077 15.7964 18.7456L15.9106 18.6044C15.8455 18.5521 15.7716 18.5117 15.6925 18.4852L15.634 18.6571ZM15.7971 18.7461C15.8446 18.7838 15.8848 18.8297 15.9159 18.8817L16.0715 18.7881C16.0291 18.7174 15.9744 18.6549 15.9098 18.6038L15.7971 18.7461ZM15.9161 18.882C15.9475 18.9337 15.9695 18.9918 15.9818 19.0571L16.1602 19.0236C16.145 18.9403 16.1149 18.8604 16.0713 18.7878L15.9161 18.882ZM16.071 18.9496H15.877V19.1311H16.071V18.9496Z" fill="white"/>
<path d="M18.3781 18.5685H18.5661V19.5963C18.5661 19.7025 18.5411 19.7972 18.491 19.8806C18.4415 19.9635 18.3715 20.0289 18.2811 20.0769C18.1906 20.1244 18.0845 20.1482 17.9628 20.1482C17.841 20.1482 17.7349 20.1244 17.6444 20.0769C17.554 20.0289 17.4837 19.9635 17.4337 19.8806C17.3841 19.7972 17.3594 19.7025 17.3594 19.5963V18.5685H17.5474V19.5812C17.5474 19.657 17.564 19.7245 17.5974 19.7836C17.631 19.8423 17.6804 19.8904 17.7399 19.9223C17.802 19.9557 17.8764 19.9723 17.9628 19.9723C18.0491 19.9723 18.1235 19.9557 18.1856 19.9223C18.2455 19.8907 18.295 19.8426 18.3282 19.7836C18.3615 19.7245 18.3781 19.657 18.3781 19.5812V18.5685Z" fill="#BD0728"/>
<path d="M18.3781 18.5685V18.4778H18.2873V18.5685H18.3781ZM18.5661 18.5685H18.6568V18.4778H18.5661V18.5685ZM18.491 19.8806L18.4131 19.8339L18.4131 19.8341L18.491 19.8806ZM18.2811 20.0769L18.3232 20.1573L18.3236 20.1571L18.2811 20.0769ZM17.6443 20.0769L17.6018 20.1571L17.6021 20.1573L17.6443 20.0769ZM17.4336 19.8806L17.3556 19.927L17.3559 19.9275L17.4336 19.8806ZM17.3593 18.5685V18.4778H17.2686V18.5685H17.3593ZM17.5473 18.5685H17.6381V18.4778H17.5473V18.5685ZM17.5973 19.7836L17.5183 19.8282L17.5185 19.8285L17.5973 19.7836ZM17.7398 19.9223L17.6961 20.0018L17.6969 20.0023L17.7398 19.9223ZM18.1856 19.9223L18.2285 20.0023L18.229 20.002L18.1856 19.9223ZM18.3281 19.7836L18.249 19.739L18.2489 19.7393L18.3281 19.7836ZM18.3781 18.6593H18.5661V18.4778H18.3781V18.6593ZM18.4753 18.5685V19.5963H18.6568V18.5685H18.4753ZM18.4753 19.5963C18.4753 19.6876 18.454 19.7659 18.4131 19.8339L18.5688 19.9273C18.6281 19.8286 18.6568 19.7174 18.6568 19.5963H18.4753ZM18.4131 19.8341C18.3726 19.9018 18.3152 19.956 18.2385 19.9968L18.3236 20.1571C18.4277 20.1018 18.5104 20.0252 18.5689 19.9272L18.4131 19.8341ZM18.2388 19.9966C18.1637 20.036 18.0726 20.0574 17.9627 20.0574V20.2389C18.0964 20.2389 18.2175 20.2128 18.3232 20.1573L18.2388 19.9966ZM17.9627 20.0574C17.8528 20.0574 17.7617 20.036 17.6866 19.9966L17.6021 20.1573C17.7079 20.2128 17.829 20.2389 17.9627 20.2389V20.0574ZM17.6869 19.9968C17.6101 19.956 17.5524 19.9017 17.5113 19.8337L17.3559 19.9275C17.4149 20.0253 17.4977 20.1018 17.6018 20.1571L17.6869 19.9968ZM17.5116 19.8343C17.4712 19.7662 17.4501 19.6878 17.4501 19.5963H17.2686C17.2686 19.7172 17.297 19.8283 17.3556 19.927L17.5116 19.8343ZM17.4501 19.5963V18.5685H17.2686V19.5963H17.4501ZM17.3593 18.6593H17.5473V18.4778H17.3593V18.6593ZM17.4566 18.5685V19.5812H17.6381V18.5685H17.4566ZM17.4566 19.5812C17.4566 19.6708 17.4764 19.7539 17.5183 19.8282L17.6764 19.739C17.6516 19.695 17.6381 19.6433 17.6381 19.5812H17.4566ZM17.5185 19.8285C17.5602 19.9018 17.6218 19.9619 17.6961 20.0018L17.7836 19.8428C17.7386 19.819 17.7014 19.7828 17.6762 19.7387L17.5185 19.8285ZM17.6969 20.0023C17.7749 20.0442 17.8646 20.0631 17.9627 20.0631V19.8816C17.8879 19.8816 17.8291 19.8672 17.7827 19.8423L17.6969 20.0023ZM17.9627 20.0631C18.0607 20.0631 18.1505 20.0442 18.2285 20.0023L18.1426 19.8423C18.0963 19.8672 18.0375 19.8816 17.9627 19.8816V20.0631ZM18.229 20.002C18.3038 19.9623 18.3656 19.9018 18.4072 19.8279L18.2489 19.7393C18.224 19.7833 18.1869 19.8192 18.1421 19.8426L18.229 20.002ZM18.4071 19.8282C18.449 19.7539 18.4688 19.6708 18.4688 19.5812H18.2873C18.2873 19.6433 18.2738 19.695 18.249 19.739L18.4071 19.8282ZM18.4688 19.5812V18.5685H18.2873V19.5812H18.4688Z" fill="white"/>
<path d="M20.5252 20.119H20.3281L20.8981 18.5667H21.0922L21.6622 20.119H21.4651L21.0013 18.8122H20.9891L20.5252 20.119ZM20.598 19.5126H21.3924V19.6793H20.598V19.5126Z" fill="#BD0728"/>
<path d="M20.5251 20.119V20.2097H20.5892L20.6107 20.1493L20.5251 20.119ZM20.328 20.119L20.2428 20.0877L20.198 20.2097H20.328V20.119ZM20.898 18.5667V18.4758H20.8347L20.8128 18.5353L20.898 18.5667ZM21.0921 18.5667L21.1773 18.5353L21.1554 18.4758H21.0921V18.5667ZM21.6621 20.119V20.2097H21.7921L21.7473 20.0877L21.6621 20.119ZM21.465 20.119L21.3795 20.1493L21.4009 20.2097H21.465V20.119ZM21.0012 18.8122L21.0867 18.7818L21.0652 18.7214H21.0012V18.8122ZM20.989 18.8122V18.7214H20.9249L20.9034 18.7818L20.989 18.8122ZM20.5979 19.5126V19.4218H20.5071V19.5126H20.5979ZM21.3922 19.5126H21.483V19.4218H21.3922V19.5126ZM21.3922 19.6793V19.7702H21.483V19.6793H21.3922ZM20.5979 19.6793H20.5071V19.7702H20.5979V19.6793ZM20.5251 20.0282H20.328V20.2097H20.5251V20.0282ZM20.4132 20.1502L20.9832 18.5979L20.8128 18.5353L20.2428 20.0877L20.4132 20.1502ZM20.898 18.6574H21.0921V18.4758H20.898V18.6574ZM21.0069 18.5979L21.5769 20.1502L21.7473 20.0877L21.1773 18.5353L21.0069 18.5979ZM21.6621 20.0282H21.465V20.2097H21.6621V20.0282ZM21.5506 20.0887L21.0867 18.7818L20.9156 18.8426L21.3795 20.1493L21.5506 20.0887ZM21.0012 18.7214H20.989V18.903H21.0012V18.7214ZM20.9034 18.7818L20.4396 20.0887L20.6107 20.1493L21.0746 18.8426L20.9034 18.7818ZM20.5979 19.6034H21.3922V19.4218H20.5979V19.6034ZM21.3015 19.5126V19.6793H21.483V19.5126H21.3015ZM21.3922 19.5886H20.5979V19.7702H21.3922V19.5886ZM20.6887 19.6793V19.5126H20.5071V19.6793H20.6887Z" fill="white"/>
<path d="M23.0637 18.5613H23.2881L23.8156 19.8499H23.8339L24.3614 18.5613H24.5858V20.1137H24.41V18.9343H24.3948L23.9096 20.1137H23.7399L23.2548 18.9343H23.2396V20.1137H23.0637V18.5613Z" fill="#BD0728"/>
<path d="M23.0636 18.5613V18.4706H22.9729V18.5613H23.0636ZM23.2881 18.5613L23.3721 18.5269L23.349 18.4706H23.2881V18.5613ZM23.8156 19.8499L23.7316 19.8843L23.7546 19.9407H23.8156V19.8499ZM23.8338 19.8499V19.9407H23.8947L23.9178 19.8843L23.8338 19.8499ZM24.3613 18.5613V18.4706H24.3004L24.2773 18.5269L24.3613 18.5613ZM24.5857 18.5613H24.6765V18.4706H24.5857V18.5613ZM24.5857 20.1137V20.2045H24.6765V20.1137H24.5857ZM24.4099 20.1137H24.3191V20.2045H24.4099V20.1137ZM24.4099 18.9342H24.5006V18.8435H24.4099V18.9342ZM24.3947 18.9342V18.8435H24.3339L24.3107 18.8997L24.3947 18.9342ZM23.9096 20.1137V20.2045H23.9704L23.9936 20.1482L23.9096 20.1137ZM23.7398 20.1137L23.6558 20.1482L23.679 20.2045H23.7398V20.1137ZM23.2547 18.9342L23.3386 18.8997L23.3155 18.8435H23.2547V18.9342ZM23.2396 18.9342V18.8435H23.1487V18.9342H23.2396ZM23.2396 20.1137V20.2045H23.3303V20.1137H23.2396ZM23.0636 20.1137H22.9729V20.2045H23.0636V20.1137ZM23.0636 18.6521H23.2881V18.4706H23.0636V18.6521ZM23.2041 18.5957L23.7316 19.8843L23.8997 19.8155L23.3721 18.5269L23.2041 18.5957ZM23.8156 19.9407H23.8338V19.7592H23.8156V19.9407ZM23.9178 19.8843L24.4454 18.5957L24.2773 18.5269L23.7498 19.8155L23.9178 19.8843ZM24.3613 18.6521H24.5857V18.4706H24.3613V18.6521ZM24.495 18.5613V20.1137H24.6765V18.5613H24.495ZM24.5857 20.0229H24.4099V20.2045H24.5857V20.0229ZM24.5006 20.1137V18.9342H24.3191V20.1137H24.5006ZM24.4099 18.8435H24.3947V19.025H24.4099V18.8435ZM24.3107 18.8997L23.8257 20.0792L23.9936 20.1482L24.4787 18.9687L24.3107 18.8997ZM23.9096 20.0229H23.7398V20.2045H23.9096V20.0229ZM23.8237 20.0792L23.3386 18.8997L23.1707 18.9687L23.6558 20.1482L23.8237 20.0792ZM23.2547 18.8435H23.2396V19.025H23.2547V18.8435ZM23.1487 18.9342V20.1137H23.3303V18.9342H23.1487ZM23.2396 20.0229H23.0636V20.2045H23.2396V20.0229ZM23.1545 20.1137V18.5613H22.9729V20.1137H23.1545Z" fill="white"/>
<path fill-rule="evenodd" clip-rule="evenodd" d="M14.9686 13.4077C14.8402 13.6554 15.2691 13.3354 15.3662 13.3009C15.9221 13.1032 16.1398 12.4011 17.0973 12.8238C17.8511 13.1494 18.8629 12.9602 18.334 13.2899C17.6805 13.6811 16.3788 14.1146 16.3532 16.0547C16.462 16.2444 16.4698 16.2145 16.5607 16.0111C16.7585 15.5589 17.7019 14.3309 18.1687 14.4331C18.3567 14.4817 18.9085 13.8781 18.9214 14.0504C18.9714 14.5349 18.172 15.515 18.1806 16.8269C18.1825 17.1307 18.5562 17.2292 18.7364 17.0154C18.9154 16.8269 19.0162 16.6321 19.3297 16.3844C19.8842 15.9294 19.7312 14.0002 19.7996 14.0909C20.1921 14.599 20.2523 16.032 20.8368 16.6197C21.3227 17.1081 21.7153 16.8743 21.6093 16.1959C21.3983 14.8359 20.7555 15.2247 20.4496 13.8182C20.3874 13.5442 20.3721 13.2967 20.7348 13.4112C21.1782 13.5398 21.4385 13.7457 21.7693 14.246C22.1 14.7232 22.7202 15.1804 23.0785 15.4612C23.7038 15.9417 23.9233 15.5222 23.625 14.9055C23.2947 14.2137 22.5502 13.64 21.8731 13.3891C21.3601 13.2118 21.1772 13.1949 20.7252 13.1082C20.5996 13.0816 20.4698 12.8241 20.6932 12.682C21.1718 12.3895 21.7446 12.0589 22.3253 12.0422C22.8844 12.0281 23.3272 12.4762 23.7194 12.5884C24.5012 12.7934 24.4972 12.2971 24.1526 11.929C23.8696 11.6182 23.2707 11.097 22.7117 11.1662C21.5836 11.3045 21.6547 11.2728 20.9628 11.732C20.7089 11.8816 20.427 12.0467 20.5322 11.8653C20.7854 11.4098 20.5495 11.4881 20.9406 11.0247C21.2447 10.6851 21.4681 10.4407 21.7696 10.3559C22.056 10.2869 22.4342 9.98274 22.5512 9.82841C22.8322 9.43974 22.59 9.21791 22.1558 9.34808C21.779 9.45174 21.5763 9.70258 21.3173 9.77191C20.7098 9.96333 20.2195 11.3534 20.1447 11.5502C20.0478 11.7855 19.9407 11.6689 19.9605 11.4697C20.0482 10.4882 20.1312 8.84491 19.7847 8.16844C19.2628 7.17094 19.3112 7.63611 19.1108 8.10944C18.8092 8.86141 18.914 9.56233 19.1039 10.2994C19.1869 10.6672 19.4951 11.0858 19.5503 11.3746C19.5901 11.6012 19.4187 11.3039 19.3189 11.1679C18.9914 10.6666 18.7518 10.3275 18.2183 10.0546C17.8539 9.82374 16.8721 9.79274 16.5302 9.89791C16.3822 9.94349 16.6944 10.1546 16.8266 10.2596C17.1842 10.544 17.8621 10.6326 18.3182 10.9129C18.7099 11.1537 19.0081 11.3087 19.1379 11.6415C19.1921 11.8887 19.2722 12.2555 19.1094 12.2465C18.6821 12.2221 18.0181 11.8523 16.6547 12.0043C15.9584 12.0965 15.3538 12.6921 14.9686 13.4079V13.4077Z" fill="#239E46"/>
<path fill-rule="evenodd" clip-rule="evenodd" d="M17.9399 25.8798H18.3355V26.5392H17.9399V25.8798Z" fill="black"/>
<path fill-rule="evenodd" clip-rule="evenodd" d="M15.9761 21.4875C17.5449 23.6597 20.0595 24.9261 20.1097 25.9125C18.521 25.9063 16.7989 25.9133 15.2102 25.9072C16.3359 24.5538 17.022 23.6401 15.9763 21.4874L15.9761 21.4875Z" fill="#FDF9FF"/>
<path fill-rule="evenodd" clip-rule="evenodd" d="M14.5496 25.9618C16.681 26.437 19.2255 26.6989 20.8506 25.8953C20.864 26.3703 20.3223 27.0542 19.8781 27.0542H15.7884C16.2634 26.9862 16.5342 26.8413 17.3072 26.8012L15.136 26.8278C14.8961 26.8367 14.4697 26.1927 14.5496 25.9618Z" fill="#A68861"/>
<path fill-rule="evenodd" clip-rule="evenodd" d="M19.3831 35.4214C19.5998 35.5402 19.9423 35.5339 20.135 35.4309C32.4486 28.8767 32.4553 10.9036 20.153 4.44092C19.9244 4.32034 19.5922 4.32692 19.3651 4.45009C7.36641 11.0184 7.33433 28.7881 19.3832 35.4215L19.3831 35.4214ZM19.4443 33.9418C19.6336 34.0466 19.9325 34.0412 20.1008 33.95C30.408 27.8839 30.5341 11.8587 20.1165 6.11417C19.917 5.96776 19.627 6.01359 19.4288 6.12251C9.55713 11.9602 9.00663 27.3248 19.4444 33.9417L19.4443 33.9418Z" fill="#BE0027"/>
<path d="M15.877 19.0403C15.8615 18.9917 15.8392 18.9456 15.811 18.9032C15.785 18.8631 15.7525 18.8277 15.7147 18.7985C15.677 18.7693 15.6343 18.747 15.5889 18.7326C15.5388 18.717 15.4866 18.7093 15.4343 18.7098C15.3455 18.7089 15.2584 18.7337 15.1834 18.7811C15.108 18.8286 15.0482 18.8986 15.0037 18.9911C14.9593 19.0835 14.937 19.197 14.937 19.3314C14.937 19.4658 14.9595 19.5792 15.0045 19.6717C15.0495 19.7642 15.1104 19.8342 15.1871 19.8817C15.264 19.9292 15.3504 19.9529 15.4464 19.9529C15.5353 19.9529 15.6136 19.934 15.6814 19.8961C15.7489 19.8584 15.8041 19.8022 15.8405 19.7339C15.879 19.6637 15.8981 19.581 15.8981 19.486L15.9558 19.4982H15.4889V19.3314H16.08V19.4982C16.08 19.626 16.0528 19.7372 15.9982 19.8317C15.9456 19.9247 15.8679 20.0009 15.7739 20.0515C15.6789 20.103 15.5697 20.1288 15.4464 20.1288C15.309 20.1288 15.1882 20.0965 15.084 20.0317C14.9805 19.9671 14.8996 19.8752 14.8415 19.7559C14.7839 19.6366 14.7551 19.4952 14.7551 19.3314C14.7551 19.2086 14.7715 19.0982 14.8044 19.0002C14.8377 18.9016 14.8847 18.8177 14.9454 18.7485C15.0045 18.6803 15.078 18.626 15.1606 18.5893C15.2435 18.5524 15.3347 18.534 15.4343 18.534C15.5161 18.534 15.5925 18.5464 15.6632 18.5712C15.7322 18.5942 15.7967 18.6294 15.8535 18.675C15.9095 18.7194 15.957 18.7736 15.9936 18.8349C16.0316 18.8982 16.0578 18.9677 16.071 19.0403H15.877ZM18.3782 18.5685H18.5662V19.5963C18.5662 19.7025 18.5412 19.7972 18.4911 19.8806C18.4416 19.9635 18.3716 20.0289 18.2812 20.0769C18.1907 20.1244 18.0846 20.1482 17.9629 20.1482C17.841 20.1482 17.735 20.1244 17.6445 20.0769C17.554 20.0289 17.4838 19.9635 17.4338 19.8806C17.3842 19.7972 17.3595 19.7025 17.3595 19.5963V18.5685H17.5475V19.5812C17.5475 19.657 17.5641 19.7245 17.5975 19.7836C17.631 19.8423 17.6804 19.8904 17.74 19.9223C17.8021 19.9557 17.8765 19.9723 17.9629 19.9723C18.0492 19.9723 18.1235 19.9557 18.1857 19.9223C18.2455 19.8907 18.295 19.8426 18.3282 19.7836C18.3615 19.7245 18.3782 19.657 18.3782 19.5812V18.5685ZM20.5251 20.119H20.328L20.898 18.5667H21.0921L21.6621 20.119H21.465L21.0012 18.8122H20.989L20.5251 20.119ZM20.598 19.5126H21.3923V19.6793H20.598V19.5126ZM23.0637 18.5613H23.2881L23.8156 19.8499H23.8339L24.3614 18.5613H24.5858V20.1137H24.41V18.9342H24.3948L23.9096 20.1137H23.7399L23.2548 18.9342H23.2396V20.1137H23.0637V18.5613Z" fill="#BD0728"/>
</g>
</g>
</g>
<defs>
<clipPath id="clip0_16699_268986">
<rect width="40" height="40" fill="white"/>
</clipPath>
</defs>
</svg>
