<svg width="40" height="40" viewBox="0 0 40 40" fill="none" xmlns="http://www.w3.org/2000/svg">
<g clip-path="url(#clip0_16699_269458)">
<mask id="mask0_16699_269458" style="mask-type:luminance" maskUnits="userSpaceOnUse" x="0" y="0" width="40" height="40">
<path d="M40 0H0V40H40V0Z" fill="white"/>
</mask>
<g mask="url(#mask0_16699_269458)">
<mask id="mask1_16699_269458" style="mask-type:luminance" maskUnits="userSpaceOnUse" x="0" y="0" width="40" height="40">
<path d="M40 20C40 8.95433 31.0457 0 20 0C8.95433 0 0 8.95433 0 20C0 31.0457 8.95433 40 20 40C31.0457 40 40 31.0457 40 20Z" fill="white"/>
</mask>
<g mask="url(#mask1_16699_269458)">
<path d="M-10 0H50V40H-10V0Z" fill="white"/>
<path d="M-10 0H50V13.3333H-10V0ZM-10 26.6667H50V40H-10V26.6667Z" fill="#00BCE4"/>
<path d="M8.73067 14.4971L10.0369 18.5171L6.61719 16.0326H10.8441L7.42441 18.5171L8.73067 14.4971Z" fill="#00BCE4"/>
<path d="M8.73067 21.1638L10.0369 25.1838L6.61719 22.6994H10.8441L7.42441 25.1838L8.73067 21.1638Z" fill="#00BCE4"/>
<path d="M19.8421 17.8307L21.1484 21.8508L17.7286 19.3664H21.9556L18.536 21.8508L19.8421 17.8307Z" fill="#00BCE4"/>
<path d="M30.9531 14.4973L32.2592 18.5173L28.8397 16.0329H33.0665L29.6469 18.5173L30.9531 14.4973Z" fill="#00BCE4"/>
<path d="M30.9529 21.1638L32.2591 25.1838L28.8395 22.6994H33.0664L29.6467 25.1838L30.9529 21.1638Z" fill="#00BCE4"/>
</g>
</g>
</g>
<defs>
<clipPath id="clip0_16699_269458">
<rect width="40" height="40" fill="white"/>
</clipPath>
</defs>
</svg>
