<svg width="40" height="40" viewBox="0 0 40 40" fill="none" xmlns="http://www.w3.org/2000/svg">
<g clip-path="url(#clip0_16699_270109)">
<mask id="mask0_16699_270109" style="mask-type:luminance" maskUnits="userSpaceOnUse" x="0" y="0" width="40" height="40">
<path d="M40 20C40 8.95431 31.0457 0 20 0C8.95431 0 0 8.95431 0 20C0 31.0457 8.95431 40 20 40C31.0457 40 40 31.0457 40 20Z" fill="white"/>
</mask>
<g mask="url(#mask0_16699_270109)">
<mask id="mask1_16699_270109" style="mask-type:luminance" maskUnits="userSpaceOnUse" x="-7" y="0" width="54" height="40">
<path d="M-6.66663 0H46.6667V40H-6.66663V0Z" fill="white"/>
</mask>
<g mask="url(#mask1_16699_270109)">
<path fill-rule="evenodd" clip-rule="evenodd" d="M20 0H46.6667V40H20V0Z" fill="#CE0000"/>
<path fill-rule="evenodd" clip-rule="evenodd" d="M-6.66663 0H20V40H-6.66663V0Z" fill="white"/>
<path fill-rule="evenodd" clip-rule="evenodd" d="M6.26601 11.8339C6.26601 11.9417 6.14368 12.0292 5.99301 12.0292C5.84234 12.0292 5.72009 11.9417 5.72009 11.8339C5.72009 11.726 5.84234 11.6386 5.99301 11.6386C6.14368 11.6386 6.26601 11.726 6.26601 11.8339Z" fill="#F1EEEE"/>
<path fill-rule="evenodd" clip-rule="evenodd" d="M-2.27277 10.8897V15.8465H2.6844C2.6844 16.6724 3.51057 17.4987 4.33682 17.4987V22.4552H9.29352V17.4987C10.1198 17.4987 10.9459 16.6724 10.9459 15.8465H15.9031V10.8897H10.9459C10.9459 10.0637 10.1198 9.2375 9.29352 9.2375V4.28084H4.33682V9.2375C3.51057 9.2375 2.6844 10.0637 2.6844 10.8897H-2.27277Z" fill="#CC0000"/>
<path fill-rule="evenodd" clip-rule="evenodd" d="M-2.10742 11.0548V15.6811H2.84974C2.84974 16.507 3.67566 17.3335 4.50191 17.3335V22.2901H9.1285V17.3335C9.95475 17.3335 10.7807 16.507 10.7807 15.6811H15.7378V11.0548H10.7807C10.7807 10.2289 9.95475 9.40241 9.1285 9.40241V4.44571H4.50191V9.40241C3.67566 9.40241 2.84974 10.2289 2.84974 11.0548H-2.10742Z" fill="#FFE600"/>
<path fill-rule="evenodd" clip-rule="evenodd" d="M-1.9422 11.22V15.5161H3.01455C3.01455 16.3421 3.84072 17.1683 4.66697 17.1683V22.1248H8.96285V17.1683C9.7891 17.1683 10.6153 16.3421 10.6153 15.5161H15.572V11.22H10.6153C10.6153 10.3941 9.7891 9.56784 8.96285 9.56784V4.61125H4.66697V9.56784C3.84072 9.56784 3.01455 10.3941 3.01455 11.22H-1.9422Z" fill="#707070"/>
<path fill-rule="evenodd" clip-rule="evenodd" d="M-1.77686 11.3852V15.3505H3.17981C3.17981 16.1765 4.00606 17.0029 4.83223 17.0029V21.9596H8.79775V17.0029C9.624 17.0029 10.4502 16.1765 10.4502 15.3505H15.4069V11.3852H10.4502C10.4502 10.5593 9.624 9.73309 8.79775 9.73309V4.77646H4.83223V9.73309C4.00606 9.73309 3.17981 10.5593 3.17981 11.3852H-1.77686Z" fill="#A0A0A0"/>
<path fill-rule="evenodd" clip-rule="evenodd" d="M4.87337 9.32342C5.16362 9.61384 4.9282 10.3198 4.34754 10.9007C3.76687 11.4815 3.06071 11.7167 2.77029 11.4263C2.47987 11.1359 2.71521 10.4299 3.29596 9.84909C3.87662 9.26825 4.58296 9.033 4.87337 9.32342Z" fill="#D0D0D0"/>
<path fill-rule="evenodd" clip-rule="evenodd" d="M4.52288 9.67367C4.81329 9.96408 4.73471 10.5133 4.34763 10.9004C3.96046 11.2876 3.41113 11.366 3.12079 11.0756C2.83038 10.7852 2.90896 10.2361 3.29613 9.84892C3.68321 9.46183 4.23254 9.38333 4.52288 9.67367Z" fill="#808080"/>
<path fill-rule="evenodd" clip-rule="evenodd" d="M3.06201 10.5498L3.17885 10.433L3.64618 10.6667L3.41251 10.1993L3.52935 10.0825L3.99668 11.0172L3.06201 10.5498ZM3.76318 9.84883L3.88001 9.732L4.58109 10.433L4.46426 10.5498L3.76318 9.84883ZM10.8597 11.4263C10.5693 11.7168 9.86309 11.4813 9.28242 10.9006C8.70175 10.3198 8.46617 9.61367 8.75659 9.32325C9.047 9.033 9.75309 9.26842 10.3339 9.84909C10.9148 10.4298 11.15 11.136 10.8597 11.4263Z" fill="#D0D0D0"/>
<path fill-rule="evenodd" clip-rule="evenodd" d="M10.5094 11.0762C10.219 11.3664 9.66974 11.288 9.28265 10.9008C8.89549 10.5137 8.81707 9.96434 9.10749 9.674C9.3979 9.38367 9.94699 9.46225 10.3342 9.84934C10.7215 10.2365 10.7998 10.7858 10.5094 11.0762Z" fill="#808080"/>
<path fill-rule="evenodd" clip-rule="evenodd" d="M9.63328 9.61533L9.75012 9.73216L9.51645 10.1994L9.98378 9.96574L10.1006 10.0826L9.16595 10.5499L9.63328 9.61533ZM10.3343 10.3164L10.4511 10.4332L9.75012 11.1342L9.63328 11.0174L10.3343 10.3164ZM8.75662 17.4128C8.46637 17.1224 8.70178 16.4164 9.28245 15.8356C9.86312 15.2547 10.5693 15.0196 10.8597 15.3099C11.1501 15.6003 10.9147 16.3063 10.334 16.8872C9.75337 17.468 9.0472 17.7032 8.75678 17.4128H8.75662Z" fill="#D0D0D0"/>
<path fill-rule="evenodd" clip-rule="evenodd" d="M9.10694 17.0627C8.81653 16.7723 8.89511 16.223 9.2822 15.8359C9.66936 15.4488 10.2188 15.3703 10.509 15.6607C10.7994 15.9511 10.7209 16.5002 10.3337 16.8874C9.94661 17.2744 9.39736 17.3529 9.10694 17.0627Z" fill="#808080"/>
<path fill-rule="evenodd" clip-rule="evenodd" d="M10.5679 16.1865L10.451 16.3033L9.98369 16.0697L10.2174 16.537L10.1005 16.6538L9.63319 15.7192L10.5679 16.1865ZM9.86669 16.8874L9.74985 17.0042L9.04877 16.3033L9.1656 16.1865L9.86669 16.8874ZM2.7705 15.3093C3.06092 15.019 3.76708 15.2545 4.34775 15.8352C4.9285 16.4158 5.164 17.1221 4.87358 17.4125C4.58317 17.7027 3.87717 17.4673 3.29634 16.8867C2.7155 16.306 2.48025 15.5997 2.7705 15.3093Z" fill="#D0D0D0"/>
<path fill-rule="evenodd" clip-rule="evenodd" d="M3.12088 15.6597C3.4113 15.3693 3.96055 15.4479 4.34771 15.8349C4.7348 16.2219 4.8133 16.7714 4.52288 17.0617C4.23246 17.3521 3.68338 17.2735 3.29605 16.8864C2.9088 16.4992 2.83046 15.95 3.12088 15.6597Z" fill="#808080"/>
<path fill-rule="evenodd" clip-rule="evenodd" d="M3.99703 17.1204L3.8802 17.0037L4.11387 16.5363L3.64653 16.77L3.5297 16.6532L4.46437 16.1858L3.99703 17.1204ZM3.29603 16.4193L3.1792 16.3025L3.8802 15.6015L3.99703 15.7183L3.29603 16.4193Z" fill="#D0D0D0"/>
<path d="M10.2852 13.3682C10.2852 15.2844 8.73169 16.8378 6.81523 16.8378C4.8989 16.8378 3.3454 15.2844 3.3454 13.3682C3.3454 11.4518 4.8989 9.89841 6.81523 9.89841C8.73169 9.89841 10.2852 11.4518 10.2852 13.3682Z" fill="black" stroke="#707070" stroke-width="0.3685"/>
<path d="M9.45884 13.3681C9.45884 14.8281 8.27522 16.0117 6.81514 16.0117C5.35505 16.0117 4.17139 14.8281 4.17139 13.3681C4.17139 11.9081 5.35505 10.7245 6.81514 10.7245C8.27522 10.7245 9.45884 11.9081 9.45884 13.3681Z" fill="black" stroke="#707070" stroke-width="0.281"/>
<path fill-rule="evenodd" clip-rule="evenodd" d="M5.65875 16.1766C5.65869 16.2092 5.64896 16.2412 5.6308 16.2683C5.61263 16.2955 5.58683 16.3167 5.55665 16.3292C5.52647 16.3417 5.49326 16.3449 5.46121 16.3386C5.42917 16.3322 5.39972 16.3166 5.37658 16.2935C5.35351 16.2704 5.33781 16.2409 5.33146 16.2089C5.32511 16.1769 5.3284 16.1437 5.3409 16.1135C5.35339 16.0833 5.37455 16.0575 5.40169 16.0393C5.42883 16.0212 5.46075 16.0115 5.49341 16.0114C5.53725 16.0114 5.57925 16.0288 5.61016 16.0598C5.64116 16.0907 5.65875 16.1328 5.65875 16.1766ZM8.30241 16.1766C8.30241 16.2204 8.285 16.2624 8.25402 16.2934C8.22304 16.3244 8.18101 16.3418 8.1372 16.3418C8.09339 16.3418 8.05136 16.3244 8.02038 16.2934C7.9894 16.2624 7.972 16.2204 7.972 16.1766C7.972 16.1327 7.9894 16.0907 8.02038 16.0597C8.05136 16.0288 8.09339 16.0114 8.1372 16.0114C8.18101 16.0114 8.22304 16.0288 8.25402 16.0597C8.285 16.0907 8.30241 16.1327 8.30241 16.1766ZM6.70516 16.177V16.3492H6.48483C6.26441 16.3492 6.26441 16.5215 6.48483 16.5215H6.70516V16.6939C6.70591 16.8724 6.89733 16.894 6.9115 16.7077L6.9255 16.5215H7.14583C7.366 16.5215 7.366 16.3492 7.14583 16.3492H6.9255V16.177C6.9255 16.0047 6.70516 16.0047 6.70516 16.177Z" fill="#D0D0D0"/>
<path fill-rule="evenodd" clip-rule="evenodd" d="M5.99238 13.7365V13.8341C5.99238 13.8341 5.94055 13.9088 5.6103 13.9317C5.27996 13.9547 5.22821 13.9317 5.22821 13.9317C5.23688 14.017 5.30113 14.1785 5.28288 14.3714C5.29563 14.5958 5.21955 14.799 5.21955 14.799C5.22821 14.8108 5.18855 14.8167 5.11913 14.8108C5.1738 14.762 5.16738 14.6207 5.1738 14.4202C5.18005 14.2195 4.9653 13.9177 5.00988 13.8341C5.05455 13.7506 5.99238 13.7365 5.99238 13.7365ZM7.30321 13.3821C7.62455 13.3673 8.16363 13.3705 8.16363 13.3705C8.16363 13.3705 8.2908 13.6255 8.28555 13.7663C8.28021 13.9072 8.23655 14.0272 8.17647 13.9672C8.11655 13.9072 8.2043 13.9184 8.21513 13.7663C8.22571 13.6142 8.11238 13.4566 8.11238 13.4566C8.11238 13.4566 7.88188 13.5572 7.5353 13.5369C7.18863 13.5165 7.34213 13.3881 7.30321 13.3821Z" fill="#D0D0D0" stroke="#707070" stroke-width="0.1165"/>
<path fill-rule="evenodd" clip-rule="evenodd" d="M7.41237 13.6339C7.73371 13.619 7.94462 13.6682 7.94462 13.6682C7.94462 13.6682 8.07171 13.9234 8.06646 14.0641C8.06112 14.2049 8.01745 14.3249 7.95737 14.2649C7.89745 14.2049 7.98537 14.2163 7.99604 14.0641C8.00662 13.912 7.89329 13.7543 7.89329 13.7543C7.89329 13.7543 7.66278 13.8549 7.3162 13.8346C6.96953 13.8144 7.06845 13.7936 7.02953 13.7876C6.99078 13.7816 6.98128 13.8835 6.45695 13.8978C5.93245 13.912 5.66512 13.7876 5.66512 13.7876C5.66512 13.7876 5.61312 13.8623 5.28304 13.8852C4.95271 13.9081 4.90095 13.8852 4.90095 13.8852C4.90953 13.9704 4.97387 14.1319 4.95562 14.3249C4.96837 14.5493 4.89228 14.7524 4.89228 14.7524C4.90095 14.7644 4.86129 14.7702 4.79171 14.7643C4.84637 14.7154 4.84012 14.5741 4.84637 14.3736C4.85262 14.1729 4.63803 13.8711 4.68253 13.7876C4.72728 13.704 4.96496 13.7823 5.01021 13.7388C5.05512 13.6954 4.79837 13.3897 4.84637 13.1039C4.89428 12.8182 5.16662 12.8988 5.50137 12.9086C5.83603 12.9184 6.57753 13.005 6.7567 12.9086C6.93587 12.812 6.85837 12.4548 7.02962 12.2249C7.13879 12.0784 7.30246 12.0296 7.46621 12.0296C7.57546 12.0296 7.73912 12.4203 7.73912 12.5179L7.68453 12.5668H7.62995V12.6155C7.50537 12.628 7.48804 12.5089 7.41162 12.4203C7.37879 12.5579 7.52078 13.0064 7.52078 13.2992C7.52078 13.5434 7.41879 13.651 7.41237 13.6339Z" fill="#D0D0D0" stroke="#707070" stroke-width="0.1165"/>
<path fill-rule="evenodd" clip-rule="evenodd" d="M6.36136 13.2103C6.36586 13.3075 5.93961 13.5258 5.90486 13.6122C5.87019 13.6987 6.01327 13.7465 5.96894 13.7958C5.92469 13.8451 5.88827 13.8268 5.87927 13.836C5.87019 13.8451 5.71886 13.4975 5.71886 13.4975C5.71886 13.4975 6.11877 13.3171 6.10361 13.2393C6.08844 13.1614 5.80836 13.1141 5.75736 12.918C5.70636 12.7219 5.73469 12.3432 5.69327 12.2639C5.65186 12.1848 5.16111 12.1093 5.16052 11.9895C5.16011 11.8696 5.66502 11.5409 5.71969 11.4922C5.77427 11.4433 5.82886 11.5409 5.77427 11.5898C5.71969 11.6386 5.32444 11.9406 5.32444 11.9895C5.32444 12.0383 5.65186 12.0871 5.76094 12.0871C5.87019 12.0871 5.92477 12.0383 5.92477 11.9895C5.92536 11.9473 5.81561 11.9406 5.81561 11.8429C5.81561 11.7453 5.87019 11.6964 5.97927 11.6964C6.03394 11.6964 6.13877 11.759 6.14302 11.8429C6.14727 11.9268 6.04594 11.9341 6.03377 11.9895C6.02177 12.0449 6.14302 12.0871 6.25227 12.0871C6.36136 12.0871 6.73394 12.3712 6.78861 12.42C6.84319 12.4688 6.89786 12.4688 6.84319 12.5177C6.78861 12.5664 6.82052 12.6243 6.76594 12.5755C6.73881 12.5488 6.71988 12.5149 6.71136 12.4778C6.70669 12.4333 6.30677 12.2337 6.25211 12.2824C6.19752 12.3313 6.25211 12.9173 6.25211 12.9661C6.25211 13.0638 6.36586 13.0633 6.36136 13.2103Z" fill="#D0D0D0" stroke="#707070" stroke-width="0.1165"/>
<path fill-rule="evenodd" clip-rule="evenodd" d="M5.66589 12.078H6.32098V12.7617H5.66589V12.078Z" fill="#A7A7A7"/>
<path d="M7.78673 14.5428L5.58897 11.2437C5.57081 11.2164 5.54564 11.1999 5.53272 11.2068H5.53256C5.51964 11.2138 5.52389 11.2414 5.54206 11.2687L7.73981 14.5678C7.75797 14.595 7.78322 14.6115 7.79614 14.6046L7.79622 14.6045C7.80914 14.5977 7.8049 14.57 7.78673 14.5428Z" fill="#808080"/>
<path fill-rule="evenodd" clip-rule="evenodd" d="M5.8291 11.5409C5.8293 11.5539 5.82659 11.5668 5.82118 11.5786C5.8156 11.5908 5.80757 11.6017 5.7976 11.6106C5.78721 11.6201 5.77514 11.6273 5.76201 11.6321C5.74197 11.6396 5.72029 11.6416 5.69923 11.6378C5.67818 11.634 5.65853 11.6246 5.64235 11.6106C5.63237 11.6017 5.62434 11.5908 5.61876 11.5786C5.61339 11.5668 5.61068 11.5539 5.61085 11.5409C5.61118 11.5151 5.62285 11.4906 5.64326 11.4726C5.66368 11.4545 5.69126 11.4444 5.72001 11.4444C5.74868 11.4444 5.77626 11.4545 5.79668 11.4726C5.81718 11.4906 5.82876 11.5151 5.8291 11.5409Z" fill="#D0D0D0" stroke="#707070" stroke-width="0.1165"/>
<path fill-rule="evenodd" clip-rule="evenodd" d="M7.73892 12.4296C7.73892 12.4701 7.48551 12.5176 7.19309 12.5176C6.90067 12.5176 6.64734 12.4701 6.64734 12.4296C6.64734 12.3892 6.90067 12.4882 7.19309 12.4882C7.48551 12.4882 7.73892 12.3892 7.73892 12.4296Z" fill="#808080"/>
<path fill-rule="evenodd" clip-rule="evenodd" d="M5.72058 12.7614H6.26633V12.9567H5.72058V12.7614Z" fill="#A7A7A7"/>
<path fill-rule="evenodd" clip-rule="evenodd" d="M7.49476 12.28C7.44185 12.3792 7.39168 12.4498 7.38276 12.438C7.37368 12.4262 7.40926 12.3362 7.4621 12.2371C7.51501 12.138 7.56526 12.0672 7.57426 12.0792C7.58335 12.091 7.54768 12.1809 7.49476 12.28ZM7.63268 12.5366C7.57243 12.5895 7.5221 12.6237 7.52051 12.6131C7.51876 12.6024 7.56626 12.551 7.62651 12.4981C7.68685 12.4452 7.7371 12.411 7.73868 12.4217C7.74043 12.4322 7.69301 12.4837 7.63268 12.5366Z" fill="#808080"/>
<path fill-rule="evenodd" clip-rule="evenodd" d="M7.56351 12.4129C7.60784 12.4936 7.63718 12.5621 7.62893 12.5655C7.62068 12.5691 7.57793 12.5065 7.53343 12.4257C7.48893 12.3448 7.45976 12.2764 7.46801 12.2729C7.47626 12.2693 7.51901 12.3321 7.56351 12.4129ZM7.52093 12.835C7.52093 12.8484 7.34984 12.8594 7.13884 12.8594C6.92784 12.8594 6.75693 12.8485 6.75693 12.835C6.75693 12.8214 6.92793 12.8105 7.13884 12.8105C7.34984 12.8105 7.52093 12.8214 7.52093 12.835ZM6.26601 12.786C6.26601 12.7996 6.14368 12.8105 5.99301 12.8105C5.84234 12.8105 5.72009 12.7996 5.72009 12.786C5.72009 12.7727 5.84234 12.7616 5.99301 12.7616C6.14368 12.7616 6.26601 12.7725 6.26601 12.786Z" fill="#808080"/>
<path fill-rule="evenodd" clip-rule="evenodd" d="M5.06561 14.4838C5.06561 14.4838 5.15561 14.7027 5.53928 14.7057C5.92311 14.7087 6.05511 14.6401 5.89995 14.5242C5.7447 14.4083 5.45595 14.4442 5.4932 14.5443C5.53053 14.6443 5.38486 14.6777 5.3507 14.6073C5.31645 14.5371 5.17895 14.3289 5.4262 14.3149C5.67328 14.3009 6.1967 14.2251 6.32753 14.3703C6.45836 14.5155 6.1797 14.6472 6.39045 14.6781C6.6012 14.7087 6.63111 14.6428 6.99361 14.6229C7.35628 14.6029 7.49461 14.6902 7.61895 14.6779C7.74311 14.6659 7.72553 14.4522 7.6272 14.3982C7.52903 14.3439 7.34028 14.334 7.29186 14.2746C7.24353 14.2152 7.11195 14.2635 7.12403 14.1963C7.13645 14.1293 7.31078 14.2426 7.31278 14.2083C7.31278 14.2072 7.34161 14.1845 7.34745 14.1788C7.32545 14.1737 7.31295 14.1818 7.29645 14.1906C7.31445 14.1763 7.3132 14.1697 7.3192 14.158C7.31611 14.1536 7.29445 14.1745 7.29086 14.1702C7.28711 14.1658 7.31611 14.136 7.30286 14.1468C7.29845 14.15 7.26395 14.167 7.26353 14.1553C7.26403 14.1505 7.28161 14.1382 7.27553 14.1316C7.27045 14.126 7.2442 14.138 7.24086 14.1393C7.25595 14.1193 7.25486 14.1196 7.24036 14.1047C7.22778 14.0899 7.21861 14.0902 7.19811 14.107C7.20661 14.083 7.20886 14.0777 7.18828 14.0687C7.17136 14.0594 7.17053 14.0507 7.14953 14.0939C7.15745 14.0477 7.13586 14.0457 7.14486 14.0238C7.1502 14.0038 7.17836 13.9953 7.22478 13.9998C7.31478 14.0005 7.36303 14.1086 7.39245 14.1082C7.42178 14.1079 7.45486 13.9938 7.58111 14.0403C7.70736 14.0864 7.72295 14.0957 7.78653 14.1233C7.85011 14.1507 7.74186 14.1926 7.77811 14.2468C7.81453 14.3011 8.06245 14.4818 7.99195 14.6705C7.92145 14.859 7.73995 14.8889 7.72361 14.9705C7.70736 15.0522 8.29836 15.0187 8.44902 15.0462C8.59952 15.0736 8.69452 15.186 8.70052 15.2049C8.70669 15.2238 8.43635 15.2227 8.43635 15.2227C8.43635 15.2227 8.2977 15.151 7.96678 15.1444C7.63603 15.1379 7.50995 15.0046 7.3862 14.9877C7.26236 14.971 6.99845 15.0157 6.85095 15.0091C6.70336 15.0026 6.55386 14.9792 6.45836 14.9663C6.36286 14.9532 5.88736 15.1808 5.88903 15.234C5.78986 15.2301 5.55661 15.2174 5.5662 15.2238C5.57578 15.2301 5.60803 15.1206 5.79003 15.1012C5.97186 15.0821 6.14886 14.995 6.14303 14.9377C6.1372 14.8804 6.1782 14.6841 6.19336 14.5998C6.20861 14.5157 6.27661 14.4749 6.26036 14.4309C6.24411 14.3868 6.03636 14.3414 5.83695 14.3426C5.63745 14.3439 5.41636 14.3552 5.38411 14.4031C5.35211 14.4512 5.37628 14.5907 5.4177 14.5746C5.45911 14.5586 5.4077 14.4673 5.45128 14.4485C5.49478 14.4299 5.60645 14.4131 5.71111 14.4107C5.81603 14.4083 5.99811 14.4999 5.9962 14.5292C5.99436 14.5586 6.05486 14.6561 5.9712 14.6931C5.88728 14.7303 5.71595 14.7468 5.55186 14.7384C5.3877 14.7302 5.2217 14.6738 5.16186 14.6377C5.1022 14.6015 5.06561 14.4914 5.06561 14.4838Z" fill="#D0D0D0" stroke="#808080" stroke-width="0.0625"/>
<path fill-rule="evenodd" clip-rule="evenodd" d="M7.49539 14.1601C7.49569 14.166 7.49479 14.172 7.49274 14.1776C7.49069 14.1832 7.48754 14.1883 7.48347 14.1927C7.47941 14.197 7.47448 14.2005 7.469 14.2028C7.46351 14.2052 7.4576 14.2064 7.45164 14.2063C7.44263 14.2065 7.4338 14.2037 7.42641 14.1986C7.41902 14.1934 7.41345 14.1861 7.41047 14.1776C7.40761 14.1695 7.40712 14.1608 7.40907 14.1525C7.41102 14.1442 7.41533 14.1366 7.42147 14.1307C7.42755 14.1249 7.43514 14.121 7.44335 14.1194C7.45156 14.1178 7.46006 14.1187 7.46783 14.1217C7.4756 14.1248 7.48233 14.1301 7.48721 14.1369C7.4921 14.1437 7.49493 14.1517 7.49539 14.1601Z" fill="black"/>
<path d="M9.55444 13.526L9.76694 13.5718L10.122 13.3288L10.0945 13.4564L9.90952 13.5799C9.87627 13.6019 9.84219 13.6227 9.80736 13.6422C9.82836 13.6716 9.85186 13.7067 9.87727 13.7478L9.99186 13.933L9.96544 14.0552L9.74427 13.6768L9.53186 13.6308L9.55444 13.526ZM9.19211 11.9633L9.60327 11.7741L9.49161 11.5316L9.54661 11.5062L9.81536 12.0897L9.76027 12.115L9.64811 11.8714L9.23702 12.0607L9.19211 11.9633ZM8.55536 11.1893L8.93386 10.8427L9.00819 10.924L8.99844 11.5099L9.29552 11.2378L9.36502 11.3137L8.98661 11.6603L8.91227 11.579L8.92227 10.9929L8.62477 11.2652L8.55536 11.1893ZM6.90081 10.5212L6.96289 10.0117L7.06939 10.0247L7.01464 10.474L7.41081 10.5222L7.40347 10.5824L6.90081 10.5212ZM6.08689 10.5942L5.99497 10.0892L6.10064 10.0701L6.18164 10.5153L6.57422 10.4439L6.58514 10.5036L6.08689 10.5942ZM4.58397 11.3359L4.54622 11.2889L4.81397 11.074L4.93306 11.2227C4.90905 11.2756 4.87898 11.3255 4.84347 11.3716C4.80764 11.4172 4.76665 11.4587 4.72131 11.4951C4.65922 11.5448 4.59589 11.5817 4.53156 11.6057C4.46739 11.6292 4.40956 11.6355 4.35814 11.6243C4.30899 11.6146 4.26489 11.5877 4.23372 11.5485C4.20224 11.5087 4.18501 11.4595 4.18481 11.4087C4.18364 11.3542 4.20064 11.2992 4.23581 11.2442C4.27097 11.1891 4.32006 11.1363 4.38314 11.0858C4.42445 11.052 4.46983 11.0235 4.51822 11.001C4.56289 10.9806 4.60247 10.9703 4.63681 10.9702C4.67122 10.9702 4.70472 10.9793 4.73722 10.9976L4.67222 11.0711C4.64936 11.0591 4.62411 11.0523 4.59831 11.0513C4.57489 11.051 4.54731 11.0577 4.51556 11.0717C4.48116 11.0871 4.44897 11.107 4.41981 11.1309C4.38156 11.1615 4.35164 11.1917 4.32964 11.2216C4.30747 11.2512 4.29256 11.2789 4.28497 11.3048C4.27791 11.3279 4.2752 11.3521 4.27697 11.3762C4.28072 11.414 4.29431 11.4472 4.31747 11.4762C4.34597 11.5119 4.37956 11.5342 4.41806 11.5428C4.45697 11.5511 4.49964 11.5462 4.54597 11.5282C4.59377 11.5093 4.63838 11.4832 4.67822 11.4509C4.71406 11.4223 4.7462 11.3894 4.77389 11.353C4.80131 11.3163 4.81989 11.2858 4.82989 11.2616L4.76989 11.187L4.58397 11.3359ZM4.56664 15.026L4.14814 15.3231L3.83156 14.8773L3.88097 14.8423L4.13539 15.2007L4.26497 15.1087L4.04481 14.7985L4.09406 14.7634L4.31447 15.0736L4.50456 14.9386L4.56664 15.026ZM3.95022 14.3586C4.00981 14.3418 4.04964 14.3034 4.06972 14.2432C4.08956 14.1829 4.08881 14.1147 4.06706 14.0383C4.04522 13.9607 4.00989 13.9018 3.96131 13.8614C3.91239 13.8209 3.85631 13.8095 3.79264 13.8275C3.7548 13.8372 3.72114 13.859 3.69672 13.8896C3.67272 13.9194 3.65822 13.9573 3.65356 14.0034C3.6489 14.0525 3.65373 14.1021 3.66781 14.1494C3.68847 14.2224 3.72214 14.2809 3.76906 14.3247C3.81539 14.3683 3.87589 14.3797 3.95022 14.3586ZM3.97922 14.4652C3.89731 14.4883 3.82339 14.4718 3.75747 14.4152C3.69139 14.3588 3.64272 14.2757 3.61172 14.1658C3.59147 14.0939 3.58389 14.0258 3.58947 13.9619C3.59506 13.8979 3.61289 13.8453 3.64339 13.8042C3.67256 13.7635 3.71481 13.7342 3.76306 13.721C3.81197 13.7068 3.86431 13.7103 3.91089 13.7309C3.95939 13.7517 4.00231 13.7884 4.03922 13.8412C4.07701 13.8963 4.10532 13.9574 4.12297 14.022C4.14381 14.0955 4.15097 14.1642 4.14489 14.2284C4.13872 14.2925 4.12047 14.345 4.08997 14.3857C4.05947 14.4265 4.02256 14.4531 3.97939 14.4653L3.97922 14.4652ZM4.02214 13.4234L3.50897 13.4118L3.51714 13.0526C3.51889 12.9803 3.52472 12.9256 3.53497 12.8882C3.54481 12.8508 3.56164 12.8212 3.58564 12.7992C3.59587 12.7889 3.60804 12.7808 3.62143 12.7753C3.63481 12.7698 3.64916 12.767 3.66364 12.7672C3.70006 12.768 3.73031 12.7873 3.75456 12.8252C3.77847 12.863 3.79314 12.9207 3.79822 12.9986C3.80756 12.9706 3.81647 12.9492 3.82522 12.9347C3.84406 12.9037 3.86747 12.8744 3.89547 12.8471L4.03831 12.7094L4.03522 12.8442L3.92597 12.949C3.89456 12.9797 3.87039 13.005 3.85364 13.0248C3.83929 13.041 3.82731 13.0591 3.81806 13.0787C3.81126 13.0941 3.80634 13.1103 3.80339 13.127C3.80091 13.1467 3.79964 13.1667 3.79956 13.1866L3.79672 13.311L4.02456 13.3163L4.02214 13.4234ZM3.73789 13.3097L3.74322 13.0792C3.74496 13.0407 3.74265 13.0021 3.73631 12.9641C3.73039 12.9362 3.72056 12.9151 3.70697 12.9004C3.70133 12.8937 3.69434 12.8881 3.68645 12.8842C3.67856 12.8803 3.66994 12.8781 3.66114 12.8777C3.63689 12.8772 3.61664 12.8908 3.60039 12.9185C3.58414 12.9457 3.57531 12.9892 3.57406 13.0493L3.56814 13.3059L3.73789 13.3097ZM5.16372 11.0522L5.16714 10.452L5.26639 10.3926L5.81456 10.6627L5.70972 10.7252L5.54881 10.6405L5.25797 10.8147L5.26147 10.9937L5.16372 11.0522ZM5.25614 10.7512L5.49197 10.6102L5.34631 10.5316C5.31056 10.5129 5.27586 10.4922 5.24239 10.4698C5.25039 10.5033 5.25464 10.5389 5.25522 10.5764L5.25614 10.7512ZM7.73481 10.5904L8.28856 10.3589L8.38177 10.4268L8.34777 11.037L8.24914 10.965L8.26414 10.7838L7.99031 10.5843L7.82681 10.6576L7.73481 10.5904ZM8.04781 10.5578L8.26989 10.7197L8.28522 10.5548C8.28847 10.5147 8.29389 10.4746 8.30147 10.435C8.27251 10.4562 8.24133 10.4741 8.20847 10.4885L8.04781 10.5578ZM9.41994 12.4682L9.91911 12.3487L10.0028 12.6983C10.0195 12.7685 10.0278 12.823 10.0274 12.8617C10.0274 12.9004 10.0184 12.9334 10.001 12.9607C9.99369 12.9732 9.98394 12.9841 9.97244 12.9928C9.96086 13.0015 9.94769 13.0078 9.93361 13.0115C9.89827 13.02 9.86411 13.009 9.83102 12.9786C9.79811 12.9482 9.76936 12.896 9.74469 12.8219C9.74386 12.8452 9.74061 12.8682 9.73486 12.8908C9.72394 12.9267 9.70861 12.9611 9.68919 12.9932L9.58619 13.1628L9.55477 13.0317L9.63361 12.9025C9.65627 12.865 9.67319 12.8343 9.68452 12.8109C9.69552 12.7873 9.70252 12.7669 9.70502 12.7496C9.70769 12.7327 9.70836 12.7159 9.70702 12.6991C9.70436 12.6793 9.70052 12.6597 9.69544 12.6405L9.66652 12.5196L9.44486 12.5726L9.41994 12.4682ZM9.72369 12.5058L9.77736 12.73C9.78877 12.7777 9.80077 12.8142 9.81336 12.8397C9.82611 12.865 9.84102 12.8831 9.85794 12.8937C9.87527 12.9044 9.89177 12.9078 9.90794 12.904C9.93144 12.8982 9.94761 12.88 9.95636 12.8492C9.96519 12.8186 9.96252 12.7742 9.94852 12.7157L9.88886 12.4664L9.72369 12.5058Z" fill="#D0D0D0"/>
</g>
</g>
</g>
<defs>
<clipPath id="clip0_16699_270109">
<rect width="40" height="40" fill="white"/>
</clipPath>
</defs>
</svg>
