<svg width="40" height="40" viewBox="0 0 40 40" fill="none" xmlns="http://www.w3.org/2000/svg">
<g clip-path="url(#clip0_16699_270173)">
<mask id="mask0_16699_270173" style="mask-type:luminance" maskUnits="userSpaceOnUse" x="0" y="0" width="40" height="40">
<path d="M40 0H0V40H40V0Z" fill="white"/>
</mask>
<g mask="url(#mask0_16699_270173)">
<mask id="mask1_16699_270173" style="mask-type:luminance" maskUnits="userSpaceOnUse" x="0" y="0" width="40" height="40">
<path d="M40 20C40 8.95433 31.0457 0 20 0C8.95433 0 0 8.95433 0 20C0 31.0457 8.95433 40 20 40C31.0457 40 40 31.0457 40 20Z" fill="white"/>
</mask>
<g mask="url(#mask1_16699_270173)">
<path d="M-10 0H50.0482V40H-10V0Z" fill="white"/>
<path d="M-10 3.75H50.0193V10H-10V3.75Z" fill="#0038B8"/>
<path d="M-10 30H50.0206V36.25H-10V30Z" fill="#0038B8"/>
<path d="M13.7128 23.7107H26.3312L20.0219 12.7829L13.7128 23.7107ZM20.0219 27.3534L26.3312 16.4256H13.7128L20.0219 27.3534Z" stroke="#0038B8" stroke-width="0.6875"/>
</g>
</g>
</g>
<defs>
<clipPath id="clip0_16699_270173">
<rect width="40" height="40" fill="white"/>
</clipPath>
</defs>
</svg>
