<svg width="40" height="40" viewBox="0 0 40 40" fill="none" xmlns="http://www.w3.org/2000/svg">
<g clip-path="url(#clip0_16699_270186)">
<mask id="mask0_16699_270186" style="mask-type:luminance" maskUnits="userSpaceOnUse" x="0" y="0" width="40" height="40">
<path d="M40 20C40 8.95431 31.0457 0 20 0C8.95431 0 0 8.95431 0 20C0 31.0457 8.95431 40 20 40C31.0457 40 40 31.0457 40 20Z" fill="white"/>
</mask>
<g mask="url(#mask0_16699_270186)">
<mask id="mask1_16699_270186" style="mask-type:luminance" maskUnits="userSpaceOnUse" x="-7" y="0" width="54" height="40">
<path d="M-6.66663 0H46.6667V40H-6.66663V0Z" fill="white"/>
</mask>
<g mask="url(#mask1_16699_270186)">
<mask id="mask2_16699_270186" style="mask-type:luminance" maskUnits="userSpaceOnUse" x="-7" y="0" width="54" height="41">
<path d="M-6.68274 0H46.7931V40.1067H-6.68274V0Z" fill="white"/>
</mask>
<g mask="url(#mask2_16699_270186)">
<path fill-rule="evenodd" clip-rule="evenodd" d="M48.7028 40.1067H-8.59253V0H48.7028V40.1067Z" fill="#BA0000"/>
<path fill-rule="evenodd" clip-rule="evenodd" d="M21.4108 29.4541C21.4264 29.4068 21.458 28.918 21.4423 28.918C21.4265 28.918 20.7013 28.0668 20.7171 28.0668C20.7329 28.0668 21.6472 28.2717 21.6472 28.2401C21.6472 28.2086 22.0099 27.3416 22.0099 27.3259C22.0099 27.3102 22.4512 28.3821 22.4512 28.3821L23.3497 28.7763L22.7191 29.2964C22.7191 29.2964 22.8611 30.3054 22.8611 30.3213C22.8611 30.3369 22.2305 29.722 22.2305 29.722L21.5368 29.801C21.5368 29.801 21.4423 29.4856 21.4108 29.4541Z" fill="#FFEF00" fill-opacity="0.988" stroke="black" stroke-width="1.036"/>
<path fill-rule="evenodd" clip-rule="evenodd" d="M16.5257 16.2064C15.9267 16.5148 13.6277 19.1428 13.3125 19.5527C13.0483 20.1477 12.5315 20.9003 11.9994 21.3848C11.4313 21.8148 11.1156 22.4018 11.1938 22.9578C11.1875 23.6495 11.5753 24.1204 11.8843 24.6072C12.0671 24.8295 12.3131 24.9733 12.5748 24.9907C13.1114 25.0616 13.159 25.2268 13.4275 25.3291C14.4855 26.7697 16.0637 27.8318 17.2004 28.6732C17.925 29.0551 18.4286 29.4369 18.6014 29.6454C18.9341 30.2808 18.8729 30.9005 18.8273 31.2048L17.9834 34.3888C17.8414 35.2559 18.5949 35.0609 18.6354 34.8875C18.9754 34.4461 19.483 34.756 20.2081 32.2022L21.2055 30.8596C21.2055 30.8596 21.5892 30.7062 21.5892 30.6679C22.1726 29.9674 21.7285 29.5665 21.3973 29.4404L20.6686 29.1718C20.6686 29.1718 19.8247 28.3279 19.7864 28.3279C19.3853 27.1613 17.417 24.6708 16.9597 24.324C16.6432 23.9942 16.4926 23.8536 16.1922 23.6702C15.7303 23.4493 15.5812 23.3773 15.2984 23.2643C15.0628 23.1699 15.2305 22.9113 15.3803 22.7931C16.9394 21.9444 18.1752 21.0013 19.6712 20.0423L19.9014 19.8887L19.3643 16.82L16.871 15.9376C16.7401 16.0272 16.6409 16.1168 16.5257 16.2064Z" fill="white" stroke="black" stroke-width="1.239"/>
<path fill-rule="evenodd" clip-rule="evenodd" d="M18.6118 32.3634C18.6196 32.3319 20.1725 32.0482 20.1725 32.0482C20.1725 32.0482 19.9911 32.6236 19.9832 32.6236L18.4385 33.0887L18.6118 32.3635V32.3634Z" fill="#FFEC00"/>
<path d="M14.5659 26.5166C14.8655 25.7205 15.6969 25.0902 16.2554 24.9163L14.5659 26.5166Z" fill="black"/>
<path d="M14.5659 26.5166C14.8655 25.7205 15.6969 25.0902 16.2554 24.9163" stroke="black" stroke-width="1.036"/>
<path d="M18.5561 32.3767C18.6564 32.3485 19.1013 32.2186 19.231 32.1984C19.3687 32.1668 19.5052 32.1296 19.6399 32.0869C19.7935 32.0556 19.8895 32.0267 20.0488 31.9976C20.1737 31.9501 20.2972 31.9174 20.4307 31.8862M18.2749 33.3367C18.288 33.3196 18.3937 33.2259 18.4697 33.1807C18.5592 33.1526 18.8653 33.0226 18.981 33.0025C19.1043 32.9708 19.2262 32.9336 19.3462 32.8909C19.4832 32.8596 19.5691 32.8307 19.7114 32.8016C19.8228 32.7541 19.9332 32.7215 20.0522 32.6902" fill="black"/>
<path d="M18.5561 32.3767C18.6564 32.3485 19.1013 32.2186 19.231 32.1984C19.3687 32.1668 19.5052 32.1296 19.6399 32.0869C19.7935 32.0556 19.8895 32.0267 20.0488 31.9976C20.1737 31.9501 20.2972 31.9174 20.4307 31.8862M18.2749 33.3367C18.288 33.3196 18.3937 33.2259 18.4697 33.1807C18.5592 33.1526 18.8653 33.0226 18.981 33.0025C19.1043 32.9708 19.2262 32.9336 19.3462 32.8909C19.4832 32.8596 19.5691 32.8307 19.7114 32.8016C19.8228 32.7541 19.9332 32.7215 20.0522 32.6902" stroke="black" stroke-width="1.1455"/>
<path d="M18.9056 26.7414H18.8834C18.953 26.7414 18.9103 26.7357 18.8164 26.8529C18.7831 26.943 18.4968 27.1427 18.2814 27.1427C18.1774 27.1538 18.0176 27.165 17.9135 27.165C17.8837 27.165 17.843 27.1427 17.8132 27.1427M18.8837 31.3349H18.995C19.1107 31.3349 19.2267 31.3555 19.3295 31.3572C19.441 31.3572 19.5524 31.3887 19.664 31.3887C19.7765 31.4047 19.9121 31.3995 20.0285 31.4161C20.159 31.4205 20.2638 31.4462 20.3996 31.4462M20.3996 31.4462C20.5092 31.4504 20.5682 31.4687 20.6894 31.4687L20.3996 31.4462ZM18.1254 34.0547C18.1373 34.0372 18.2343 33.9437 18.3037 33.8986C18.3857 33.8704 18.6659 33.7405 18.7719 33.7203C18.885 33.6885 18.9966 33.6512 19.1063 33.6087C19.2319 33.5774 19.3104 33.5486 19.4408 33.5194C19.5429 33.4719 19.6438 33.4392 19.7529 33.4081M20.2129 30.1795C20.1499 30.3626 20.2316 30.4085 20.2654 30.4876C20.3242 30.5641 20.4743 30.6807 20.7114 30.7551C20.8029 30.7797 20.8731 30.8038 20.9789 30.8443C21.0489 30.8508 21.0834 30.8682 21.1349 30.8888M11.3926 23.4647H11.4149C11.345 23.4647 11.3869 23.4692 11.5042 23.3754C11.5765 23.2946 11.6369 23.2579 11.7047 23.1749M12.8355 25.0526C12.8504 25.0526 14.1325 24.4063 14.2694 24.2684C14.3664 24.1979 14.4399 24.1238 14.5577 24.0439C14.6334 24.0045 14.6877 23.9538 14.7585 23.9102C14.8173 23.8248 14.8943 23.7733 14.9368 23.6952C15.0154 23.6271 14.9817 23.553 15.0456 23.4708C15.0757 23.3867 15.1322 23.2448 15.1506 23.1677M16.7835 24.1267C16.7906 24.1729 16.7632 24.3148 16.765 24.4229C16.7606 24.5482 16.5994 24.9354 16.4045 25.0512" fill="black"/>
<path d="M18.9056 26.7414H18.8834C18.953 26.7414 18.9103 26.7357 18.8164 26.8529C18.7831 26.943 18.4968 27.1427 18.2814 27.1427C18.1774 27.1538 18.0176 27.165 17.9135 27.165C17.8837 27.165 17.843 27.1427 17.8132 27.1427M18.8837 31.3349H18.995C19.1107 31.3349 19.2267 31.3555 19.3295 31.3572C19.441 31.3572 19.5524 31.3887 19.664 31.3887C19.7765 31.4047 19.9121 31.3995 20.0285 31.4161C20.159 31.4205 20.2638 31.4462 20.3996 31.4462M20.3996 31.4462C20.5092 31.4504 20.5682 31.4687 20.6894 31.4687L20.3996 31.4462ZM18.1254 34.0547C18.1373 34.0372 18.2343 33.9437 18.3037 33.8986C18.3857 33.8704 18.6659 33.7405 18.7719 33.7203C18.885 33.6885 18.9966 33.6512 19.1063 33.6087C19.2319 33.5774 19.3104 33.5486 19.4408 33.5194C19.5429 33.4719 19.6438 33.4392 19.7529 33.4081M20.2129 30.1795C20.1499 30.3626 20.2316 30.4085 20.2654 30.4876C20.3242 30.5641 20.4743 30.6807 20.7114 30.7551C20.8029 30.7797 20.8731 30.8038 20.9789 30.8443C21.0489 30.8508 21.0834 30.8682 21.1349 30.8888M11.3926 23.4647H11.4149C11.345 23.4647 11.3869 23.4692 11.5042 23.3754C11.5765 23.2946 11.6369 23.2579 11.7047 23.1749M12.8355 25.0526C12.8504 25.0526 14.1325 24.4063 14.2694 24.2684C14.3664 24.1979 14.4399 24.1238 14.5577 24.0439C14.6334 24.0045 14.6877 23.9538 14.7585 23.9102C14.8173 23.8248 14.8943 23.7733 14.9368 23.6952C15.0154 23.6271 14.9817 23.553 15.0456 23.4708C15.0757 23.3867 15.1322 23.2448 15.1506 23.1677M16.7835 24.1267C16.7906 24.1729 16.7632 24.3148 16.765 24.4229C16.7606 24.5482 16.5994 24.9354 16.4045 25.0512" stroke="black" stroke-width="1.036"/>
<path d="M14.4804 24.1126C14.4879 24.1126 14.6831 24.176 15.0092 24.2763C15.4018 24.4175 16.2185 24.9321 16.2995 25.003C16.3823 25.068 16.5303 25.1262 16.587 25.2035C16.6758 25.2802 16.7407 25.3687 16.81 25.4487C16.8914 25.5482 16.9608 25.6322 17.0105 25.7163C17.2584 25.9174 17.9254 27.3099 17.9468 27.3885C17.9872 27.4687 18.0244 27.5505 18.0584 27.6337C18.1078 27.6907 18.1414 27.7712 18.1921 27.8567C18.2388 27.9675 18.291 28.018 18.3483 28.1018C18.4221 28.1532 18.5216 28.2507 18.6158 28.3025C18.7163 28.3884 18.8106 28.4234 18.8833 28.4809C18.9885 28.5256 20.1634 29.2683 20.218 29.3055C20.3253 29.3917 20.6531 29.7314 20.4229 29.9784C20.3253 30.062 20.2373 30.1727 20.154 30.2198C20.0691 30.3049 19.9508 30.3429 19.8533 30.387C19.3238 30.5434 19.0543 30.4874 18.9501 30.4874H18.8386M11.8853 21.4861C12.0357 21.5449 11.975 21.5015 12.1104 21.5631C12.2015 21.6031 12.2614 21.604 12.3509 21.6367C12.4458 21.6671 12.711 21.7148 12.8384 21.8428C12.9319 21.9273 13.0033 21.9987 13.106 22.0602C13.2274 22.1441 13.3152 22.1812 13.4657 22.2441C13.5928 22.2916 13.7348 22.3443 13.8633 22.3489C13.9968 22.3568 14.0288 22.35 14.157 22.35H14.4691H14.1569" fill="black"/>
<path d="M14.4804 24.1126C14.4879 24.1126 14.6831 24.176 15.0092 24.2763C15.4018 24.4175 16.2185 24.9321 16.2995 25.003C16.3823 25.068 16.5303 25.1262 16.587 25.2035C16.6758 25.2802 16.7407 25.3687 16.81 25.4487C16.8914 25.5482 16.9608 25.6322 17.0105 25.7163C17.2584 25.9174 17.9254 27.3099 17.9468 27.3885C17.9872 27.4687 18.0244 27.5505 18.0584 27.6337C18.1078 27.6907 18.1414 27.7712 18.1921 27.8567C18.2388 27.9675 18.291 28.018 18.3483 28.1018C18.4221 28.1532 18.5216 28.2507 18.6158 28.3025C18.7163 28.3884 18.8106 28.4234 18.8833 28.4809C18.9885 28.5256 20.1634 29.2683 20.218 29.3055C20.3253 29.3917 20.6531 29.7314 20.4229 29.9784C20.3253 30.062 20.2373 30.1727 20.154 30.2198C20.0691 30.3049 19.9508 30.3429 19.8533 30.387C19.3238 30.5434 19.0543 30.4874 18.9501 30.4874H18.8386M11.8853 21.4861C12.0357 21.5449 11.975 21.5015 12.1104 21.5631C12.2015 21.6031 12.2614 21.604 12.3509 21.6367C12.4458 21.6671 12.711 21.7148 12.8384 21.8428C12.9319 21.9273 13.0033 21.9987 13.106 22.0602C13.2274 22.1441 13.3152 22.1812 13.4657 22.2441C13.5928 22.2916 13.7348 22.3443 13.8633 22.3489C13.9968 22.3568 14.0288 22.35 14.157 22.35H14.4691H14.1569" stroke="black" stroke-width="1.036"/>
<path fill-rule="evenodd" clip-rule="evenodd" d="M11.8492 22.9736C12.1835 22.9513 12.7409 23.0517 12.752 23.0517L13.4878 23.0406C13.8743 23.0033 13.9597 22.8547 14.0228 22.7506C14.1677 22.5277 14.2682 22.4498 14.3796 22.2825C14.5579 22.1487 14.8034 22.4608 14.8144 22.4608C15.4387 23.0517 14.9369 23.7762 14.9035 23.7984C14.5915 24.0846 14.5246 24.1032 14.3351 23.9211C14.1455 23.6981 14.0899 23.5978 13.9339 23.5197C13.633 23.3748 13.0087 23.4864 12.9974 23.4864C12.9863 23.4864 12.6742 23.609 12.6742 23.609C12.5218 23.6647 12.4251 23.7985 12.1614 23.843C11.8939 23.8617 11.8047 23.8357 11.6709 23.6202C11.4926 23.3415 11.5816 23.0071 11.8494 22.9737L11.8492 22.9736Z" fill="#FFE606" stroke="black" stroke-width="1.036"/>
<path fill-rule="evenodd" clip-rule="evenodd" d="M29.305 9.45167C29.2561 9.46125 28.8147 9.67325 28.8223 9.687C28.83 9.70083 28.4434 10.75 28.4357 10.7363C28.4278 10.7224 28.1584 9.825 28.131 9.8405C28.1036 9.85592 27.1701 9.96475 27.1563 9.97258C27.1425 9.98025 27.8605 9.07017 27.8605 9.07017L27.7638 8.09367L28.5263 8.38842C28.5263 8.38842 29.3363 7.77017 29.3499 7.76258C29.3637 7.75467 29.1367 8.60575 29.1367 8.60575L29.5454 9.17183C29.5454 9.17183 29.317 9.40867 29.305 9.4515V9.45167Z" fill="#FFEF00" fill-opacity="0.988" stroke="black" stroke-width="1.036"/>
<path fill-rule="evenodd" clip-rule="evenodd" d="M20.1503 20.2022C20.7127 20.5732 24.1301 21.2892 24.6419 21.3632C25.2901 21.3019 26.1994 21.3833 26.8826 21.6098C27.5357 21.8943 28.2021 21.8818 28.6484 21.5412C29.2545 21.2077 29.475 20.6388 29.7478 20.131C29.852 19.8627 29.8567 19.5777 29.7437 19.3412C29.5425 18.8387 29.6632 18.7161 29.6208 18.432C30.3579 16.8039 30.5103 14.9076 30.6867 13.5044C30.6645 12.6858 30.7505 12.0594 30.8476 11.8068C31.2384 11.2052 31.8086 10.955 32.0962 10.8457C33.1592 10.5706 34.2222 10.2957 35.2852 10.0208C36.1106 9.7195 35.5713 9.15833 35.4004 9.20792C34.8489 9.12792 34.8704 8.5335 32.289 9.15308L30.6299 8.94158C30.6299 8.94158 30.3079 8.68233 30.2746 8.70108C29.3781 8.536 29.2463 9.11967 29.2986 9.47L29.4216 10.2369C29.4216 10.2369 29.0997 11.3861 29.1185 11.4195C28.2981 12.3407 27.077 15.2992 26.9988 15.8677C26.9617 16.4019 26.7601 16.3054 26.8141 16.8247C26.8162 17.2304 26.7691 16.9771 26.9045 17.8131C26.9376 18.0647 26.6299 18.0453 26.4535 17.9727C24.9496 17.0295 23.5217 16.4146 21.9526 15.5805C21.8703 15.5387 21.7882 15.4967 21.7061 15.455L19.2943 17.4271L19.7471 20.0329C19.8892 20.103 20.016 20.1457 20.1505 20.2021L20.1503 20.2022Z" fill="white" stroke="black" stroke-width="1.239"/>
<path fill-rule="evenodd" clip-rule="evenodd" d="M33.2117 10.4653C33.1804 10.4739 32.1719 9.2595 32.1719 9.2595C32.1719 9.2595 32.7625 9.1355 32.7663 9.14233L33.9288 10.2611L33.2117 10.4653Z" fill="#FFEC00"/>
<path d="M30.0986 16.8581C29.2578 16.9872 28.3008 16.5714 27.8755 16.1698L30.0986 16.8581Z" fill="black"/>
<path d="M30.0986 16.8581C29.2578 16.9872 28.3008 16.5714 27.8755 16.1698" stroke="black" stroke-width="1.036"/>
<path d="M33.2514 10.5077C33.1778 10.434 32.8464 10.1097 32.7652 10.0067C32.6701 9.902 32.5708 9.80134 32.4675 9.70484C32.3651 9.58659 32.2928 9.51684 32.1894 9.39217C32.0868 9.30675 31.9978 9.21517 31.9051 9.11409M34.2261 10.282C34.2046 10.2793 34.0712 10.233 33.9946 10.1888C33.9261 10.1246 33.6629 9.92167 33.5886 9.83059C33.5006 9.73859 33.4084 9.65059 33.3124 9.56692C33.2178 9.46275 33.1507 9.40225 33.0555 9.29225C32.9594 9.2185 32.8769 9.13842 32.7913 9.04984" fill="black"/>
<path d="M33.2514 10.5077C33.1778 10.434 32.8464 10.1097 32.7652 10.0067C32.6701 9.902 32.5708 9.80134 32.4675 9.70484C32.3651 9.58659 32.2928 9.51684 32.1894 9.39217C32.0868 9.30675 31.9978 9.21517 31.9051 9.11409M34.2261 10.282C34.2046 10.2793 34.0712 10.233 33.9946 10.1888C33.9261 10.1246 33.6629 9.92167 33.5886 9.83059C33.5006 9.73859 33.4084 9.65059 33.3124 9.56692C33.2178 9.46275 33.1507 9.40225 33.0555 9.29225C32.9594 9.2185 32.8769 9.13842 32.7913 9.04984" stroke="black" stroke-width="1.1455"/>
<path d="M28.1677 12.9649L28.1787 12.9843C28.1444 12.9235 28.1603 12.9638 28.3087 12.9881C28.4035 12.973 28.7178 13.1246 28.8233 13.3123C28.8841 13.3978 28.9722 13.5314 29.0231 13.6223C29.0377 13.6481 29.0382 13.6947 29.0528 13.7207M32.1822 10.7333L32.1713 10.7138C32.1859 10.7398 32.1423 10.6621 32.1277 10.6363C32.071 10.5353 32.0321 10.4242 31.9832 10.3337C31.9286 10.2365 31.9014 10.1238 31.8468 10.0266C31.8056 9.92067 31.7346 9.80509 31.692 9.6955C31.6319 9.5795 31.6031 9.47559 31.5365 9.35709M31.5365 9.35709C31.4863 9.25959 31.4733 9.19925 31.4139 9.09342L31.5365 9.35709ZM31.5365 9.35709C31.4863 9.25959 31.4733 9.19925 31.4139 9.09342L31.5365 9.35709ZM34.9247 10.0612C34.9037 10.0593 34.7747 10.0207 34.7013 9.98217C34.6365 9.9245 34.386 9.744 34.3164 9.66142C34.2332 9.57833 34.1461 9.49934 34.0553 9.42459C33.9665 9.33042 33.9028 9.27625 33.8137 9.17675C33.722 9.11109 33.6442 9.03909 33.5635 8.95934M30.5232 10.1403C30.7137 10.1055 30.7137 10.0118 30.766 9.94367C30.8039 9.85484 30.832 9.66684 30.7807 9.42375C30.7573 9.33192 30.7438 9.25884 30.7274 9.14675C30.6987 9.0825 30.697 9.044 30.6897 8.98892M28.9933 21.1203L28.9823 21.1008C29.0167 21.1618 29.0001 21.123 28.8609 21.0668C28.7548 21.0433 28.6933 21.0086 28.5877 20.9902M29.6701 19.0836C29.6628 19.0706 28.4712 18.2697 28.2838 18.218C28.175 18.168 28.0744 18.1404 27.947 18.0767C27.8754 18.0302 27.8047 18.0078 27.7319 17.9673C27.6287 17.9577 27.5461 17.9158 27.4572 17.9171C27.3592 17.8818 27.3112 17.9477 27.2082 17.9323C27.1202 17.9472 26.9688 17.9676 26.8926 17.9893M26.9284 16.0959C26.9652 16.0673 27.1025 16.0215 27.1958 15.9668C27.3072 15.9093 27.7237 15.8601 27.92 15.9733" fill="black"/>
<path d="M28.1677 12.9649L28.1787 12.9843C28.1444 12.9235 28.1603 12.9638 28.3087 12.9881C28.4035 12.973 28.7178 13.1246 28.8233 13.3123C28.8841 13.3978 28.9722 13.5314 29.0231 13.6223C29.0377 13.6481 29.0382 13.6947 29.0528 13.7207M32.1822 10.7333L32.1713 10.7138C32.1859 10.7398 32.1423 10.6621 32.1277 10.6363C32.071 10.5353 32.0321 10.4242 31.9832 10.3337C31.9286 10.2365 31.9014 10.1238 31.8468 10.0266C31.8056 9.92067 31.7346 9.80509 31.692 9.6955C31.6319 9.5795 31.6031 9.47559 31.5365 9.35709M31.5365 9.35709C31.4863 9.25959 31.4733 9.19925 31.4139 9.09342L31.5365 9.35709ZM34.9247 10.0612C34.9037 10.0593 34.7747 10.0207 34.7013 9.98217C34.6365 9.9245 34.386 9.744 34.3164 9.66142C34.2332 9.57833 34.1461 9.49934 34.0553 9.42459C33.9665 9.33042 33.9028 9.27625 33.8137 9.17675C33.722 9.11109 33.6442 9.03909 33.5635 8.95934M30.5232 10.1403C30.7137 10.1055 30.7137 10.0118 30.766 9.94367C30.8039 9.85484 30.832 9.66684 30.7807 9.42375C30.7573 9.33192 30.7438 9.25884 30.7274 9.14675C30.6987 9.0825 30.697 9.044 30.6897 8.98892M28.9933 21.1203L28.9823 21.1008C29.0167 21.1618 29.0001 21.123 28.8609 21.0668C28.7548 21.0433 28.6933 21.0086 28.5877 20.9902M29.6701 19.0836C29.6628 19.0706 28.4712 18.2697 28.2838 18.218C28.175 18.168 28.0744 18.1404 27.947 18.0767C27.8754 18.0302 27.8047 18.0078 27.7319 17.9673C27.6287 17.9577 27.5461 17.9158 27.4572 17.9171C27.3592 17.8818 27.3112 17.9477 27.2082 17.9323C27.1202 17.9472 26.9688 17.9676 26.8926 17.9893M26.9284 16.0959C26.9652 16.0673 27.1025 16.0215 27.1958 15.9668C27.3072 15.9093 27.7237 15.8601 27.92 15.9733" stroke="black" stroke-width="1.036"/>
<path d="M28.0447 18.1107C28.041 18.1041 28.0007 17.9029 27.9283 17.5694C27.8589 17.158 27.9073 16.194 27.9293 16.0886C27.9455 15.9845 27.9237 15.8269 27.9633 15.7397C27.9866 15.6248 28.0318 15.5248 28.0678 15.4252C28.1144 15.3055 28.1537 15.2038 28.2027 15.1192C28.2564 14.8045 29.1433 13.5408 29.2014 13.4836C29.2515 13.4091 29.3046 13.3366 29.3605 13.2663C29.3859 13.1952 29.4396 13.1265 29.4893 13.0403C29.5629 12.9455 29.5815 12.8752 29.6266 12.7842C29.6352 12.6946 29.6712 12.5601 29.6703 12.4526C29.696 12.3228 29.6803 12.2235 29.6947 12.1318C29.6822 12.0183 29.7537 10.6301 29.7594 10.5644C29.782 10.4285 29.9174 9.97634 30.2456 10.0559C30.3662 10.1002 30.5056 10.1226 30.5878 10.1721C30.7037 10.2045 30.7947 10.2888 30.8809 10.3523C31.2767 10.7372 31.3599 10.9997 31.4109 11.0904L31.4656 11.1876M27.0209 21.6153L27.0099 21.5958C27.0394 21.6483 27.0233 21.6222 26.9857 21.5072C26.9758 21.4083 26.9453 21.2746 26.9298 21.1806C26.9099 21.0828 26.8641 20.9717 26.8766 20.9036C26.8416 20.8044 26.8636 20.7226 26.873 20.6243C26.9008 20.5014 26.9133 20.4125 26.9167 20.2928C26.9302 20.1458 26.9193 20.0417 26.9277 19.9028C26.889 19.7885 26.8812 19.6928 26.8221 19.5786C26.7696 19.4693 26.7295 19.3683 26.6667 19.2566L26.5137 18.9846L26.6667 19.2567" fill="black"/>
<path d="M28.0447 18.1107C28.041 18.1041 28.0007 17.9029 27.9283 17.5694C27.8589 17.158 27.9073 16.194 27.9293 16.0886C27.9455 15.9845 27.9237 15.8269 27.9633 15.7397C27.9866 15.6248 28.0318 15.5248 28.0678 15.4252C28.1144 15.3055 28.1537 15.2038 28.2027 15.1192C28.2564 14.8045 29.1433 13.5408 29.2014 13.4836C29.2515 13.4091 29.3046 13.3366 29.3605 13.2663C29.3859 13.1952 29.4396 13.1265 29.4893 13.0403C29.5629 12.9455 29.5815 12.8752 29.6266 12.7842C29.6352 12.6946 29.6712 12.5601 29.6703 12.4526C29.696 12.3228 29.6803 12.2235 29.6947 12.1318C29.6822 12.0183 29.7537 10.6301 29.7594 10.5644C29.782 10.4285 29.9174 9.97634 30.2456 10.0559C30.3662 10.1002 30.5056 10.1226 30.5878 10.1721C30.7037 10.2045 30.7947 10.2888 30.8809 10.3523C31.2767 10.7372 31.3599 10.9997 31.4109 11.0904L31.4656 11.1876M27.0209 21.6153L27.0099 21.5958C27.0394 21.6483 27.0233 21.6222 26.9857 21.5072C26.9758 21.4083 26.9453 21.2746 26.9298 21.1806C26.9099 21.0828 26.8641 20.9717 26.8766 20.9036C26.8416 20.8044 26.8636 20.7226 26.873 20.6243C26.9008 20.5014 26.9133 20.4125 26.9167 20.2928C26.9302 20.1458 26.9193 20.0417 26.9277 19.9028C26.889 19.7885 26.8812 19.6928 26.8221 19.5786C26.7696 19.4693 26.7295 19.3683 26.6667 19.2566L26.5137 18.9846L26.6667 19.2567" stroke="black" stroke-width="1.036"/>
<path fill-rule="evenodd" clip-rule="evenodd" d="M28.3416 20.962C28.1583 20.6816 27.9726 20.1466 27.9672 20.1368L27.5969 19.5008C27.3749 19.1822 27.2036 19.1806 27.0819 19.1766C26.8166 19.1595 26.6994 19.1103 26.4989 19.0951C26.2949 19.0052 26.4468 18.6384 26.4413 18.6286C26.6504 17.795 27.5278 17.8772 27.5637 17.8954C27.966 18.0272 28.015 18.0763 27.949 18.3308C27.8477 18.6053 27.7877 18.7028 27.796 18.8773C27.8172 19.2106 28.2204 19.7001 28.2259 19.7099C28.2314 19.7197 28.4911 19.9316 28.4911 19.9316C28.6144 20.0371 28.7784 20.0558 28.9464 20.2639C29.0939 20.4879 29.1149 20.5785 28.9926 20.8007C28.837 21.0927 28.5019 21.179 28.3415 20.962H28.3416Z" fill="#FFE606" stroke="black" stroke-width="1.036"/>
<path fill-rule="evenodd" clip-rule="evenodd" d="M7.64141 13.2125C7.67616 13.2482 8.09533 13.5015 8.10258 13.4874C8.10991 13.4733 9.19954 13.2222 9.1922 13.2362C9.18479 13.2502 8.58171 13.9672 8.60979 13.9817C8.63771 13.9963 9.24012 14.7176 9.25412 14.7248C9.26829 14.7321 8.11341 14.6299 8.11341 14.6299L7.34966 15.2457L7.1785 14.4464C7.1785 14.4464 6.21766 14.1073 6.20366 14.1002C6.18975 14.0929 7.02591 13.8166 7.02591 13.8166L7.27566 13.1646C7.27566 13.1646 7.59891 13.226 7.64141 13.2125Z" fill="#FFEF00" fill-opacity="0.988" stroke="black" stroke-width="1.036"/>
<path fill-rule="evenodd" clip-rule="evenodd" d="M21.6486 14.9817C21.6509 14.308 20.378 11.0567 20.1594 10.5879C19.7531 10.0794 19.3232 9.27392 19.1384 8.57834C19.0188 7.87622 18.6432 7.32547 18.1138 7.13872C17.5028 6.81439 16.906 6.94156 16.3317 6.99147C16.0501 7.05131 15.8092 7.20339 15.6732 7.42747C15.3629 7.87106 15.1945 7.83714 14.9799 8.02839C13.2139 8.30364 11.544 9.21492 10.2734 9.83592C9.60077 10.3029 9.02968 10.5742 8.7651 10.6313C8.04787 10.6339 7.5262 10.294 7.27703 10.1133L4.8402 7.89722C4.13595 7.37164 3.96195 8.13022 4.09712 8.24614C4.33212 8.75142 3.82328 9.05884 5.75562 10.8792L6.48753 12.3829C6.48753 12.3829 6.44694 12.7942 6.48094 12.8118C6.83378 13.6523 7.39437 13.4428 7.65878 13.2071L8.23295 12.6841C8.23295 12.6841 9.37077 12.324 9.38835 12.2901C10.6085 12.4717 13.7525 11.8728 14.2709 11.6266C14.7382 11.365 14.7679 11.5867 15.1727 11.2569C15.5111 11.033 15.3249 11.2113 15.9501 10.6401C16.1427 10.4746 16.2948 10.7426 16.3309 10.9299C16.3655 12.7048 16.6332 14.2362 16.7949 16.0058C16.8051 16.0974 16.8151 16.1891 16.8251 16.2808L19.796 17.2182L21.728 15.4118C21.7088 15.2546 21.6751 15.1251 21.6487 14.9818L21.6486 14.9817Z" fill="white" stroke="black" stroke-width="1.2395"/>
<path fill-rule="evenodd" clip-rule="evenodd" d="M6.34847 9.38825C6.37272 9.40975 5.90913 10.9187 5.90913 10.9187C5.90913 10.9187 5.48189 10.4925 5.48556 10.4855L5.78481 8.90025L6.34847 9.38825Z" fill="#FFEC00"/>
<path d="M13.4019 8.49091C13.9704 9.12366 14.1469 10.152 14.0438 10.7278L13.4019 8.49091Z" fill="black"/>
<path d="M13.4019 8.49091C13.9704 9.12366 14.1469 10.152 14.0438 10.7278" stroke="black" stroke-width="1.036"/>
<path d="M6.36252 9.33283C6.34135 9.43483 6.2516 9.88966 6.20977 10.0141C6.17435 10.1509 6.14453 10.2891 6.12035 10.4282C6.07744 10.5789 6.05885 10.6774 6.0111 10.8323C5.99594 10.965 5.96802 11.0896 5.93419 11.2224M5.6401 8.64091C5.64952 8.6605 5.68377 8.7975 5.68885 8.88575C5.67269 8.97816 5.64694 9.3095 5.61152 9.42158C5.58279 9.54566 5.55965 9.671 5.54219 9.79708C5.50694 9.93316 5.49294 10.0227 5.45302 10.1623C5.44394 10.2832 5.4221 10.3961 5.39502 10.5162" fill="black"/>
<path d="M6.36252 9.33283C6.34135 9.43483 6.2516 9.88966 6.20977 10.0141C6.17435 10.1509 6.14453 10.2891 6.12035 10.4282C6.07744 10.5789 6.05885 10.6774 6.0111 10.8323C5.99594 10.965 5.96802 11.0896 5.93419 11.2224M5.6401 8.64091C5.64952 8.6605 5.68377 8.7975 5.68885 8.88575C5.67269 8.97816 5.64694 9.3095 5.61152 9.42158C5.58279 9.54566 5.55965 9.671 5.54219 9.79708C5.50694 9.93316 5.49294 10.0227 5.45302 10.1623C5.44394 10.2832 5.4221 10.3961 5.39502 10.5162" stroke="black" stroke-width="1.1455"/>
<path d="M11.2017 12.2393L11.2119 12.2196C11.1798 12.2815 11.2049 12.2463 11.1439 12.1088C11.0793 12.0377 11.034 11.6917 11.1333 11.5004C11.1714 11.403 11.2351 11.256 11.283 11.1636C11.2967 11.1373 11.3353 11.1113 11.349 11.0848M7.13669 10.104L7.12653 10.1238L7.08536 10.2028C7.03211 10.3054 6.96036 10.3988 6.91152 10.4893C6.86019 10.5883 6.78069 10.6726 6.72936 10.7716C6.66344 10.8642 6.60562 10.987 6.53712 11.0826C6.47312 11.1964 6.40195 11.2775 6.33937 11.398C6.28528 11.4933 6.24186 11.5375 6.18594 11.645M6.18594 11.645L6.33953 11.398C6.28528 11.4933 6.24186 11.5375 6.18594 11.645ZM5.07186 8.17694C5.08177 8.19544 5.12011 8.32461 5.12819 8.407C5.11544 8.49284 5.10162 8.80134 5.0707 8.90475C5.04669 9.01984 5.02831 9.13609 5.01561 9.25292C4.98552 9.37875 4.97486 9.46175 4.94061 9.59084C4.93594 9.70342 4.91827 9.808 4.89569 9.91917M7.54902 11.8166C7.41561 11.6761 7.33712 11.7275 7.25137 11.721C7.15662 11.738 6.98377 11.8173 6.80852 11.9936C6.74469 12.0633 6.69086 12.1148 6.60611 12.1899C6.56811 12.2492 6.53677 12.2716 6.49477 12.3079M17.5724 7.08178L17.5622 7.10153C17.5944 7.03944 17.571 7.07461 17.6002 7.22178C17.6386 7.32336 17.6433 7.39394 17.6858 7.49228M15.4988 7.63044C15.4919 7.64378 15.4745 9.07925 15.534 9.26434C15.5517 9.38284 15.5838 9.48209 15.6003 9.62367C15.6004 9.709 15.6204 9.78042 15.6265 9.86334C15.6751 9.955 15.6854 10.047 15.7352 10.1208C15.7594 10.2221 15.8407 10.2262 15.8843 10.3208C15.945 10.3863 16.0449 10.5017 16.1048 10.5536M14.5011 11.5611C14.457 11.546 14.3437 11.4561 14.2468 11.4081C14.1375 11.3464 13.8682 11.025 13.8554 10.7987" fill="black"/>
<path d="M11.2017 12.2393L11.2119 12.2196C11.1798 12.2815 11.2049 12.2463 11.1439 12.1088C11.0793 12.0377 11.034 11.6917 11.1333 11.5004C11.1714 11.403 11.2351 11.256 11.283 11.1636C11.2967 11.1373 11.3353 11.1113 11.349 11.0848M7.13669 10.104L7.12653 10.1238L7.08536 10.2028C7.03211 10.3054 6.96036 10.3988 6.91152 10.4893C6.86019 10.5883 6.78069 10.6726 6.72936 10.7716C6.66344 10.8642 6.60562 10.987 6.53712 11.0826C6.47312 11.1964 6.40195 11.2775 6.33937 11.398C6.28528 11.4933 6.24186 11.5375 6.18594 11.645M6.18594 11.645L6.33953 11.398C6.28528 11.4933 6.24186 11.5375 6.18594 11.645ZM5.07186 8.17694C5.08177 8.19544 5.12011 8.32461 5.12819 8.407C5.11544 8.49284 5.10162 8.80134 5.0707 8.90475C5.04669 9.01984 5.02831 9.13609 5.01561 9.25292C4.98552 9.37875 4.97486 9.46175 4.94061 9.59084C4.93594 9.70342 4.91827 9.808 4.89569 9.91917M7.54902 11.8166C7.41561 11.6761 7.33712 11.7275 7.25137 11.721C7.15662 11.738 6.98377 11.8173 6.80852 11.9936C6.74469 12.0633 6.69086 12.1148 6.60611 12.1899C6.56811 12.2492 6.53677 12.2716 6.49477 12.3079M17.5724 7.08178L17.5622 7.10153C17.5944 7.03944 17.571 7.07461 17.6002 7.22178C17.6386 7.32336 17.6433 7.39394 17.6858 7.49228M15.4988 7.63044C15.4919 7.64378 15.4745 9.07925 15.534 9.26434C15.5517 9.38284 15.5838 9.48209 15.6003 9.62367C15.6004 9.709 15.6204 9.78042 15.6265 9.86334C15.6751 9.955 15.6854 10.047 15.7352 10.1208C15.7594 10.2221 15.8407 10.2262 15.8843 10.3208C15.945 10.3863 16.0449 10.5017 16.1048 10.5536M14.5011 11.5611C14.457 11.546 14.3437 11.4561 14.2468 11.4081C14.1375 11.3464 13.8682 11.025 13.8554 10.7987" stroke="black" stroke-width="1.036"/>
<path d="M15.5754 9.52318C15.572 9.52984 15.4258 9.67376 15.1863 9.91701C14.88 10.2004 14.0472 10.688 13.947 10.7273C13.851 10.7708 13.7312 10.8753 13.6365 10.89C13.5276 10.9334 13.4191 10.9504 13.3161 10.975C13.1904 11.0016 13.0839 11.0243 12.9862 11.0298C12.6935 11.1571 11.1504 11.1075 11.0708 11.0902C10.981 11.0891 10.8913 11.0844 10.8018 11.0762C10.7285 11.0938 10.6415 11.0863 10.5422 11.0922C10.4224 11.0825 10.3535 11.1055 10.2526 11.1178C10.1731 11.1597 10.0409 11.2032 9.95129 11.2627C9.82862 11.3123 9.75421 11.3799 9.66962 11.418C9.58146 11.4908 8.38087 12.1913 8.32281 12.2225C8.1969 12.2782 7.7444 12.4125 7.63115 12.0943C7.60207 11.9693 7.54448 11.8403 7.5409 11.7444C7.50448 11.6298 7.52523 11.5074 7.53115 11.4006C7.63623 10.8585 7.81023 10.6452 7.85815 10.5528L7.90956 10.4538M19.0671 8.46034L19.057 8.48018C19.0845 8.42668 19.0716 8.45468 18.996 8.54909C18.9186 8.61143 18.8234 8.71018 18.7531 8.77468C18.6825 8.84484 18.6145 8.94401 18.5508 8.97093C18.487 9.05459 18.4065 9.08093 18.3191 9.12693C18.2011 9.17101 18.1199 9.20918 18.0178 9.27184C17.8875 9.34118 17.8063 9.40734 17.6857 9.47634C17.6113 9.57134 17.5355 9.63043 17.4722 9.74226C17.4095 9.84593 17.3471 9.93493 17.2881 10.0485L17.1443 10.3256M18.0647 16.0535L18.0853 16.0138C18.0473 16.0871 18.0606 16.0679 18.0962 15.9443C18.0966 15.7961 18.1318 15.6168 18.1333 15.486C18.1556 15.3477 18.1783 15.1982 18.1797 15.058C18.1713 14.894 18.1715 14.747 18.147 14.5888C18.1451 14.4433 18.1282 14.2924 18.1238 14.1498C18.121 14.0085 18.1105 13.8873 18.08 13.7503C18.077 13.6477 18.0707 13.5067 18.0457 13.3808C18.059 13.2816 18.0309 13.1903 18.0099 13.111C17.9715 12.9583 17.9565 12.8689 17.9162 12.7107C17.892 12.6258 17.868 12.5173 17.8315 12.3903C17.8181 12.2699 17.7538 12.1136 17.7276 12.0098C17.6918 11.9335 17.6557 11.8301 17.6418 11.7393C17.6044 11.6554 17.551 11.5533 17.5365 11.4584C17.497 11.3861 17.455 11.2736 17.4113 11.1672C17.3737 11.0798 17.346 10.9722 17.306 10.8864C17.2655 10.7783 17.2161 10.6859 17.191 10.5755C17.1523 10.5382 17.1435 10.4972 17.1228 10.4648" fill="black"/>
<path d="M15.5754 9.52318C15.572 9.52984 15.4258 9.67376 15.1863 9.91701C14.88 10.2004 14.0472 10.688 13.947 10.7273C13.851 10.7708 13.7312 10.8753 13.6365 10.89C13.5276 10.9334 13.4191 10.9504 13.3161 10.975C13.1904 11.0016 13.0839 11.0243 12.9862 11.0298C12.6935 11.1571 11.1504 11.1075 11.0708 11.0902C10.981 11.0891 10.8913 11.0844 10.8018 11.0762C10.7285 11.0938 10.6415 11.0863 10.5422 11.0922C10.4224 11.0825 10.3535 11.1055 10.2526 11.1178C10.1731 11.1597 10.0409 11.2032 9.95129 11.2627C9.82862 11.3123 9.75421 11.3799 9.66962 11.418C9.58146 11.4908 8.38087 12.1913 8.32281 12.2225C8.1969 12.2782 7.7444 12.4125 7.63115 12.0943C7.60207 11.9693 7.54448 11.8403 7.5409 11.7444C7.50448 11.6298 7.52523 11.5074 7.53115 11.4006C7.63623 10.8585 7.81023 10.6452 7.85815 10.5528L7.90956 10.4538M19.0671 8.46034L19.057 8.48018C19.0845 8.42668 19.0716 8.45468 18.996 8.54909C18.9186 8.61143 18.8234 8.71018 18.7531 8.77468C18.6825 8.84484 18.6145 8.94401 18.5508 8.97093C18.487 9.05459 18.4065 9.08093 18.3191 9.12693C18.2011 9.17101 18.1199 9.20918 18.0178 9.27184C17.8875 9.34118 17.8063 9.40734 17.6857 9.47634C17.6113 9.57134 17.5355 9.63043 17.4722 9.74226C17.4095 9.84593 17.3471 9.93493 17.2881 10.0485L17.1443 10.3256M18.0647 16.0535L18.0853 16.0138C18.0473 16.0871 18.0606 16.0679 18.0962 15.9443C18.0966 15.7961 18.1318 15.6168 18.1333 15.486C18.1556 15.3477 18.1783 15.1982 18.1797 15.058C18.1713 14.894 18.1715 14.747 18.147 14.5888C18.1451 14.4433 18.1282 14.2924 18.1238 14.1498C18.121 14.0085 18.1105 13.8873 18.08 13.7503C18.077 13.6477 18.0707 13.5067 18.0457 13.3808C18.059 13.2816 18.0309 13.1903 18.0099 13.111C17.9715 12.9583 17.9565 12.8689 17.9162 12.7107C17.892 12.6258 17.868 12.5173 17.8315 12.3903C17.8181 12.2699 17.7538 12.1136 17.7276 12.0098C17.6918 11.9335 17.6557 11.8301 17.6418 11.7393C17.6044 11.6554 17.551 11.5533 17.5365 11.4584C17.497 11.3861 17.455 11.2736 17.4113 11.1672C17.3737 11.0798 17.346 10.9722 17.306 10.8864C17.2655 10.7783 17.2161 10.6859 17.191 10.5755C17.1523 10.5382 17.1435 10.4972 17.1228 10.4648" stroke="black" stroke-width="1.036"/>
<path fill-rule="evenodd" clip-rule="evenodd" d="M17.7974 7.71346C17.6631 8.02054 17.3172 8.46892 17.3121 8.47883L16.983 9.13692C16.838 9.49717 16.9305 9.64142 16.9937 9.74533C17.1248 9.97658 17.1478 10.1017 17.2448 10.2777C17.2814 10.4975 16.8913 10.5714 16.8861 10.5813C16.0741 10.863 15.6624 10.0839 15.6579 10.044C15.5478 9.63525 15.5622 9.56733 15.8111 9.48308C16.0962 9.41758 16.211 9.41433 16.3521 9.31183C16.6195 9.1115 16.808 8.50608 16.8133 8.49608C16.8184 8.48625 16.8534 8.15271 16.8534 8.15271C16.8743 7.99171 16.7999 7.8443 16.882 7.58972C16.9888 7.34372 17.053 7.27646 17.3058 7.25704C17.6354 7.22729 17.8911 7.46054 17.7974 7.71346Z" fill="#FFE606" stroke="black" stroke-width="1.036"/>
<path fill-rule="evenodd" clip-rule="evenodd" d="M16.7318 15.6393C16.6092 15.5278 19.0393 16.5198 19.3737 16.5311C19.8308 16.3639 21.7148 14.7698 21.7148 14.7698C21.7333 14.9259 21.8001 15.3309 21.9822 15.4165C21.254 16.0073 20.5925 16.5758 19.8643 17.1664C19.9162 18.1029 19.7452 19.095 20.2208 20.1429C20.2208 20.1429 19.6525 20.1539 19.6525 20.1429C19.1508 19.6413 18.9723 17.2224 18.9723 17.2224C18.1735 16.8656 17.3745 16.52 16.5757 16.1633C16.6909 16.0889 16.7838 15.8586 16.7318 15.6393Z" fill="#FFEF00" fill-opacity="0.987" stroke="black" stroke-width="1.036"/>
<path d="M19.0442 18.1185C19.083 18.0903 18.6059 18.3402 18.4834 18.4028C16.2754 19.5807 15.1393 21.2938 15.0684 21.3585C15.0303 21.4315 14.96 21.5288 14.8958 21.6243C14.8441 21.7041 14.7697 21.7868 14.7209 21.8677C14.6531 21.9613 14.5109 22.1464 14.4334 22.2285C14.4236 22.2814 14.4702 22.2105 14.4549 22.2458M20.5529 16.7187C20.51 16.697 20.9506 17.0071 21.0624 17.0874C23.1195 18.512 25.1627 18.7388 25.2527 18.7721C25.3349 18.7727 25.4537 18.7906 25.5678 18.8043C25.6626 18.8136 25.7701 18.8418 25.8644 18.8483C25.9787 18.8656 26.2084 18.9074 26.3168 18.9389C26.3682 18.9233 26.2839 18.9145 26.322 18.9118" fill="black"/>
<path d="M19.0442 18.1185C19.083 18.0903 18.6059 18.3402 18.4834 18.4028C16.2754 19.5807 15.1393 21.2938 15.0684 21.3585C15.0303 21.4315 14.96 21.5288 14.8958 21.6243C14.8441 21.7041 14.7697 21.7868 14.7209 21.8677C14.6531 21.9613 14.5109 22.1464 14.4334 22.2285C14.4236 22.2814 14.4702 22.2105 14.4549 22.2458M20.5529 16.7187C20.51 16.697 20.9506 17.0071 21.0624 17.0874C23.1195 18.512 25.1627 18.7388 25.2527 18.7721C25.3349 18.7727 25.4537 18.7906 25.5678 18.8043C25.6626 18.8136 25.7701 18.8418 25.8644 18.8483C25.9787 18.8656 26.2084 18.9074 26.3168 18.9389C26.3682 18.9233 26.2839 18.9145 26.322 18.9118" stroke="black" stroke-width="1.036"/>
</g>
</g>
</g>
</g>
<defs>
<clipPath id="clip0_16699_270186">
<rect width="40" height="40" fill="white"/>
</clipPath>
</defs>
</svg>
