<svg width="40" height="40" viewBox="0 0 40 40" fill="none" xmlns="http://www.w3.org/2000/svg">
<g clip-path="url(#clip0_16699_270239)">
<mask id="mask0_16699_270239" style="mask-type:luminance" maskUnits="userSpaceOnUse" x="0" y="0" width="40" height="40">
<path d="M40 0H0V40H40V0Z" fill="white"/>
</mask>
<g mask="url(#mask0_16699_270239)">
<mask id="mask1_16699_270239" style="mask-type:luminance" maskUnits="userSpaceOnUse" x="0" y="0" width="40" height="40">
<path d="M40 20C40 8.95433 31.0457 0 20 0C8.95433 0 0 8.95433 0 20C0 31.0457 8.95433 40 20 40C31.0457 40 40 31.0457 40 20Z" fill="white"/>
</mask>
<g mask="url(#mask1_16699_270239)">
<path d="M-10 0H50V40H-10V0Z" fill="#FF9933"/>
<path d="M-10 13.3333H50V40H-10V13.3333Z" fill="white"/>
<path d="M-10 26.6667H50V40H-10V26.6667Z" fill="#128807"/>
<path d="M20.0012 25.3337C22.9467 25.3337 25.3346 22.9457 25.3346 20.0002C25.3346 17.0548 22.9467 14.667 20.0012 14.667C17.0557 14.667 14.668 17.0548 14.668 20.0002C14.668 22.9457 17.0557 25.3337 20.0012 25.3337Z" fill="#000088"/>
<path d="M20.0007 24.667C22.578 24.667 24.6672 22.5777 24.6672 20.0003C24.6672 17.423 22.578 15.3337 20.0007 15.3337C17.4232 15.3337 15.334 17.423 15.334 20.0003C15.334 22.5777 17.4232 24.667 20.0007 24.667Z" fill="white"/>
<path d="M19.9997 20.9337C20.5152 20.9337 20.9331 20.5158 20.9331 20.0003C20.9331 19.4849 20.5152 19.0671 19.9997 19.0671C19.4843 19.0671 19.0664 19.4849 19.0664 20.0003C19.0664 20.5158 19.4843 20.9337 19.9997 20.9337Z" fill="#000088"/>
<path d="M24.5883 20.8413C24.7161 20.8582 24.8333 20.7683 24.8501 20.6404C24.8669 20.5127 24.777 20.3954 24.6492 20.3787C24.5214 20.3618 24.4042 20.4518 24.3874 20.5796C24.3706 20.7073 24.4605 20.8246 24.5883 20.8413Z" fill="#000088"/>
<path d="M19.9901 24.6676L20.1501 21.8676L19.9901 20.5342L19.8301 21.8676L19.9901 24.6676Z" fill="#000088"/>
<path d="M24.1912 22.0024C24.3102 22.0517 24.4467 21.9951 24.496 21.8761C24.5453 21.757 24.4888 21.6205 24.3697 21.5712C24.2507 21.5219 24.1142 21.5784 24.0649 21.6975C24.0157 21.8166 24.0722 21.9531 24.1912 22.0024Z" fill="#000088"/>
<path d="M18.7605 24.5084L19.6397 21.8453L19.8303 20.5159L19.3307 21.7624L18.7605 24.5084Z" fill="#000088"/>
<path d="M23.5611 23.0275C23.6634 23.106 23.8099 23.0868 23.8883 22.9844C23.9668 22.8823 23.9475 22.7358 23.8453 22.6573C23.743 22.5788 23.5966 22.5981 23.5181 22.7004C23.4396 22.8026 23.4589 22.9491 23.5611 23.0275Z" fill="#000088"/>
<path d="M17.6655 24.0428L19.2042 21.6979L19.7323 20.4633L18.927 21.5379L17.6655 24.0428Z" fill="#000088"/>
<path d="M22.6547 23.8451C22.7332 23.9473 22.8795 23.9666 22.9818 23.8883C23.084 23.8098 23.1033 23.6632 23.0249 23.561C22.9464 23.4588 22.7999 23.4395 22.6977 23.5179C22.5955 23.5964 22.5762 23.7428 22.6547 23.8451Z" fill="#000088"/>
<path d="M16.6982 23.3007L18.7913 21.4338L19.6209 20.3779L18.5651 21.2077L16.6982 23.3007Z" fill="#000088"/>
<path d="M21.5781 24.4005C21.6274 24.5196 21.7639 24.5761 21.8829 24.5268C22.002 24.4775 22.0585 24.341 22.0092 24.2219C21.9599 24.1029 21.8234 24.0463 21.7043 24.0956C21.5853 24.145 21.5288 24.2814 21.5781 24.4005Z" fill="#000088"/>
<path d="M15.9653 22.3327L18.4702 21.0712L19.5448 20.2659L18.3102 20.7941L15.9653 22.3327Z" fill="#000088"/>
<path d="M20.3841 24.6564C20.4009 24.7842 20.5181 24.8741 20.6459 24.8573C20.7736 24.8405 20.8636 24.7233 20.8468 24.5955C20.8299 24.4677 20.7127 24.3778 20.585 24.3946C20.4572 24.4114 20.3673 24.5286 20.3841 24.6564Z" fill="#000088"/>
<path d="M15.498 21.2071L18.244 20.637L19.4905 20.1373L18.1612 20.3278L15.498 21.2071Z" fill="#000088"/>
<path d="M19.1358 24.5965C19.119 24.7242 19.2089 24.8413 19.3367 24.8582C19.4644 24.8751 19.5816 24.7851 19.5985 24.6573C19.6153 24.5296 19.5253 24.4123 19.3976 24.3956C19.2698 24.3787 19.1526 24.4687 19.1358 24.5965Z" fill="#000088"/>
<path d="M15.3098 20.0005L18.1098 20.1605L19.4432 20.0005L18.1098 19.8405L15.3098 20.0005Z" fill="#000088"/>
<path d="M17.9719 24.2226C17.9224 24.3416 17.979 24.4781 18.098 24.5273C18.2171 24.5767 18.3536 24.5202 18.4029 24.4011C18.4522 24.2821 18.3957 24.1456 18.2766 24.0963C18.1576 24.047 18.0211 24.1035 17.9719 24.2226Z" fill="#000088"/>
<path d="M15.4662 18.793L18.1294 19.6722L19.4587 19.8627L18.2122 19.3631L15.4662 18.793Z" fill="#000088"/>
<path d="M16.9487 23.5662C16.8702 23.6684 16.8894 23.8149 16.9917 23.8934C17.0939 23.9718 17.2403 23.9525 17.3188 23.8503C17.3973 23.748 17.3781 23.6016 17.2758 23.5231C17.1736 23.4447 17.0271 23.464 16.9487 23.5662Z" fill="#000088"/>
<path d="M15.9321 17.6725L18.277 19.2112L19.5117 19.7392L18.437 18.9339L15.9321 17.6725Z" fill="#000088"/>
<path d="M16.1342 22.6605C16.0321 22.739 16.0127 22.8854 16.0912 22.9878C16.1697 23.0899 16.3162 23.1093 16.4183 23.0308C16.5206 22.9524 16.5398 22.8059 16.4614 22.7036C16.3829 22.6014 16.2364 22.5821 16.1342 22.6605Z" fill="#000088"/>
<path d="M16.677 16.7051L18.5438 18.7981L19.5998 19.6277L18.7701 18.5719L16.677 16.7051Z" fill="#000088"/>
<path d="M15.6077 21.5757C15.4887 21.6251 15.4322 21.7616 15.4814 21.8806C15.5307 21.9997 15.6672 22.0562 15.7863 22.0068C15.9054 21.9576 15.9619 21.8211 15.9127 21.702C15.8633 21.583 15.7268 21.5265 15.6077 21.5757Z" fill="#000088"/>
<path d="M17.6716 15.9635L18.9331 18.4684L19.7383 19.5432L19.2102 18.3084L17.6716 15.9635Z" fill="#000088"/>
<path d="M15.3249 20.3838C15.1973 20.4007 15.1073 20.5178 15.1241 20.6457C15.1409 20.7734 15.2581 20.8633 15.3859 20.8466C15.5136 20.8298 15.6036 20.7124 15.5868 20.5848C15.5699 20.4569 15.4528 20.3671 15.3249 20.3838Z" fill="#000088"/>
<path d="M18.7758 15.4981L19.3458 18.2441L19.8455 19.4906L19.6549 18.1612L18.7758 15.4981Z" fill="#000088"/>
<path d="M15.4174 19.1654C15.2896 19.1486 15.1724 19.2386 15.1556 19.3662C15.1388 19.4941 15.2287 19.6112 15.3565 19.6281C15.4842 19.6449 15.6014 19.5549 15.6182 19.4272C15.6351 19.2994 15.5451 19.1822 15.4174 19.1654Z" fill="#000088"/>
<path d="M20.0158 15.3392L19.8558 18.1392L20.0158 19.4725L20.1758 18.1392L20.0158 15.3392Z" fill="#000088"/>
<path d="M15.8146 18.0045C15.6956 17.9552 15.5591 18.0117 15.5098 18.1307C15.4604 18.2498 15.517 18.3863 15.636 18.4356C15.7551 18.4848 15.8916 18.4283 15.9409 18.3093C15.9902 18.1903 15.9337 18.0538 15.8146 18.0045Z" fill="#000088"/>
<path d="M21.2452 15.4984L20.3659 18.1616L20.1754 19.4909L20.6751 18.2444L21.2452 15.4984Z" fill="#000088"/>
<path d="M16.4448 16.9788C16.3424 16.9004 16.196 16.9197 16.1175 17.0219C16.0391 17.1242 16.0584 17.2707 16.1606 17.3492C16.2629 17.4276 16.4094 17.4082 16.4878 17.3061C16.5663 17.2038 16.5469 17.0573 16.4448 16.9788Z" fill="#000088"/>
<path d="M22.3402 15.9635L20.8015 18.3083L20.2734 19.543L21.0788 18.4683L22.3402 15.9635Z" fill="#000088"/>
<path d="M17.3512 16.1613C17.2729 16.0591 17.1264 16.0398 17.0242 16.1183C16.9219 16.1967 16.9027 16.3432 16.9811 16.4454C17.0596 16.5477 17.206 16.5669 17.3082 16.4884C17.4105 16.4101 17.4297 16.2636 17.3512 16.1613Z" fill="#000088"/>
<path d="M23.3076 16.7061L21.2146 18.5728L20.3849 19.6288L21.4409 18.7991L23.3076 16.7061Z" fill="#000088"/>
<path d="M18.4122 15.5995C18.3628 15.4805 18.2263 15.4239 18.1073 15.4732C17.9882 15.5226 17.9317 15.6591 17.9809 15.7781C18.0303 15.8972 18.1668 15.9537 18.2858 15.9044C18.4048 15.8551 18.4614 15.7186 18.4122 15.5995Z" fill="#000088"/>
<path d="M24.0251 17.6673L21.5202 18.9287L20.4456 19.7339L21.6802 19.2058L24.0251 17.6673Z" fill="#000088"/>
<path d="M19.606 15.3436C19.5892 15.2158 19.472 15.1258 19.3443 15.1426C19.2165 15.1596 19.1266 15.2767 19.1434 15.4044C19.1602 15.5322 19.2774 15.6221 19.4052 15.6053C19.5329 15.5886 19.6229 15.4713 19.606 15.3436Z" fill="#000088"/>
<path d="M24.4923 18.7927L21.7463 19.3627L20.4998 19.8624L21.8291 19.6718L24.4923 18.7927Z" fill="#000088"/>
<path d="M20.8546 15.4035C20.8714 15.2757 20.7814 15.1585 20.6538 15.1417C20.5259 15.1247 20.4088 15.2147 20.3919 15.3425C20.3751 15.4702 20.465 15.5875 20.5928 15.6042C20.7205 15.6212 20.8378 15.5312 20.8546 15.4035Z" fill="#000088"/>
<path d="M24.6803 19.9998L21.8803 19.8398L20.547 19.9998L21.8803 20.1598L24.6803 19.9998Z" fill="#000088"/>
<path d="M22.0186 15.7784C22.0679 15.6593 22.0114 15.5228 21.8922 15.4736C21.7732 15.4243 21.6367 15.4808 21.5874 15.5998C21.5381 15.7188 21.5947 15.8553 21.7137 15.9047C21.8327 15.9539 21.9692 15.8974 22.0186 15.7784Z" fill="#000088"/>
<path d="M24.524 21.2082L21.8609 20.3289L20.5315 20.1383L21.778 20.6381L24.524 21.2082Z" fill="#000088"/>
<path d="M23.0435 16.4388C23.122 16.3367 23.1027 16.1902 23.0005 16.1117C22.8982 16.0332 22.7517 16.0526 22.6733 16.1547C22.5948 16.2571 22.6141 16.4034 22.7163 16.4819C22.8186 16.5603 22.9651 16.5412 23.0435 16.4388Z" fill="#000088"/>
<path d="M24.0601 22.3324L21.7151 20.7938L20.4805 20.2657L21.5551 21.0709L24.0601 22.3324Z" fill="#000088"/>
<path d="M23.858 17.3443C23.9602 17.2658 23.9795 17.1193 23.901 17.0171C23.8226 16.9148 23.6761 16.8956 23.5738 16.9741C23.4717 17.0524 23.4523 17.1989 23.5307 17.3012C23.6092 17.4034 23.7557 17.4227 23.858 17.3443Z" fill="#000088"/>
<path d="M23.315 23.2997L21.4483 21.2067L20.3923 20.3769L21.222 21.4328L23.315 23.2997Z" fill="#000088"/>
<path d="M24.3845 18.4294C24.5035 18.3801 24.5601 18.2436 24.5108 18.1246C24.4614 18.0055 24.3249 17.949 24.2059 17.9983C24.0868 18.0476 24.0303 18.1841 24.0796 18.3032C24.1289 18.4222 24.2654 18.4788 24.3845 18.4294Z" fill="#000088"/>
<path d="M22.3207 24.0412L21.0593 21.5362L20.2542 20.4616L20.7822 21.6962L22.3207 24.0412Z" fill="#000088"/>
<path d="M24.6672 19.6213C24.795 19.6045 24.885 19.4873 24.8681 19.3595C24.8513 19.2318 24.7341 19.1418 24.6063 19.1586C24.4786 19.1755 24.3886 19.2927 24.4055 19.4204C24.4223 19.5482 24.5395 19.6381 24.6672 19.6213Z" fill="#000088"/>
<path d="M21.2165 24.5068L20.6464 21.7608L20.1467 20.5143L20.3373 21.8436L21.2165 24.5068Z" fill="#000088"/>
</g>
</g>
</g>
<defs>
<clipPath id="clip0_16699_270239">
<rect width="40" height="40" fill="white"/>
</clipPath>
</defs>
</svg>
