<svg width="40" height="40" viewBox="0 0 40 40" fill="none" xmlns="http://www.w3.org/2000/svg">
<g clip-path="url(#clip0_16699_270302)">
<mask id="mask0_16699_270302" style="mask-type:luminance" maskUnits="userSpaceOnUse" x="0" y="0" width="40" height="40">
<path d="M40 20C40 8.95431 31.0457 0 20 0C8.95431 0 0 8.95431 0 20C0 31.0457 8.95431 40 20 40C31.0457 40 40 31.0457 40 20Z" fill="white"/>
</mask>
<g mask="url(#mask0_16699_270302)">
<mask id="mask1_16699_270302" style="mask-type:luminance" maskUnits="userSpaceOnUse" x="-7" y="0" width="54" height="40">
<path d="M-6.66675 0H46.6666V40H-6.66675V0Z" fill="white"/>
</mask>
<g mask="url(#mask1_16699_270302)">
<mask id="mask2_16699_270302" style="mask-type:luminance" maskUnits="userSpaceOnUse" x="-7" y="0" width="54" height="40">
<path d="M-6.66675 0H46.6668V40H-6.66675V0Z" fill="white"/>
</mask>
<g mask="url(#mask2_16699_270302)">
<path fill-rule="evenodd" clip-rule="evenodd" d="M-6.66675 0H73.3333V40H-6.66675V0Z" fill="white"/>
<path fill-rule="evenodd" clip-rule="evenodd" d="M73.3333 34.7844C72.4368 35.3237 71.6667 36.584 69.2853 36.584C64.5238 36.584 63.3331 33.9305 59.7618 33.9305C57.3811 33.9305 56.1906 36.584 53.8098 36.584C49.0478 36.584 47.8573 33.9305 44.2863 33.9305C41.9052 33.9305 40.7148 36.584 38.3339 36.584C33.572 36.584 32.3814 33.9305 28.8104 33.9305C26.4294 33.9305 25.2389 36.584 22.858 36.584C18.0962 36.584 16.9056 33.9305 13.3346 33.9305C10.9535 33.9305 9.76308 36.584 7.38217 36.584C2.62026 36.584 1.42967 33.9305 -2.14199 33.9305C-4.52299 33.9305 -5.23724 35.8213 -6.66591 35.8213V39.2375C-5.23733 39.2375 -4.52308 37.3469 -2.14208 37.3469C1.42942 37.3469 2.62009 40 7.38142 40C9.76233 40 10.9527 37.3465 13.3338 37.3465C16.9052 37.3465 18.0957 40 22.8572 40C25.2382 40 26.4287 37.3465 28.8097 37.3465C32.3811 37.3465 33.5715 40 38.3331 40C40.714 40 41.9045 37.3465 44.2855 37.3465C47.8569 37.3465 49.0474 40 53.8089 40C56.1899 40 57.3803 37.3465 59.7611 37.3465C63.3326 37.3465 64.5233 40 69.2845 40C71.6659 40 72.4361 39.2481 73.3325 38.7088V34.7842L73.3333 34.7844ZM73.3333 28.15C72.4368 28.6893 71.6667 29.9496 69.2853 29.9496C64.5238 29.9496 63.3331 27.2961 59.7618 27.2961C57.3811 27.2961 56.1906 29.9496 53.8098 29.9496C49.0478 29.9496 47.8573 27.2961 44.2863 27.2961C41.9052 27.2961 40.7148 29.9496 38.3339 29.9496C33.572 29.9496 32.3814 27.2961 28.8104 27.2961C26.4294 27.2961 25.2389 29.9496 22.858 29.9496C18.0962 29.9496 16.9056 27.2961 13.3346 27.2961C10.9535 27.2961 9.76308 29.9496 7.38217 29.9496C2.62026 29.9496 1.42967 27.2961 -2.14199 27.2961C-4.52299 27.2961 -5.23724 29.1869 -6.66591 29.1869V32.6032C-5.23733 32.6039 -4.52308 30.7125 -2.14208 30.7125C1.42934 30.7125 2.61992 33.366 7.38217 33.366C9.76308 33.366 10.9535 30.7125 13.3346 30.7125C16.9059 30.7125 18.0964 33.366 22.858 33.366C25.2389 33.366 26.4294 30.7125 28.8104 30.7125C32.3818 30.7125 33.5723 33.366 38.3339 33.366C40.7148 33.366 41.9052 30.7125 44.2863 30.7125C47.8577 30.7125 49.0482 33.366 53.8098 33.366C56.1907 33.366 57.3812 30.7125 59.7618 30.7125C63.3333 30.7125 64.524 33.366 69.2853 33.366C71.6667 33.366 72.4368 32.6141 73.3333 32.0748V28.15ZM73.3333 21.5164C72.4368 22.0557 71.6667 23.316 69.2853 23.316C64.5238 23.316 63.3331 20.6625 59.7618 20.6625C57.3811 20.6625 56.1906 23.316 53.8098 23.316C49.0478 23.316 47.8573 20.6625 44.2863 20.6625C41.9052 20.6625 40.7148 23.316 38.3339 23.316C33.572 23.316 32.3814 20.6625 28.8104 20.6625C26.4294 20.6625 25.2389 23.316 22.858 23.316C18.0962 23.316 16.9056 20.6625 13.3346 20.6625C10.9535 20.6625 9.76308 23.316 7.38217 23.316C2.62026 23.316 1.42967 20.6625 -2.14199 20.6625C-4.52299 20.6625 -5.23724 22.5533 -6.66591 22.5533V25.9695C-5.23733 25.9695 -4.52308 24.0789 -2.14208 24.0789C1.42934 24.0789 2.61992 26.7324 7.38217 26.7324C9.76308 26.7324 10.9535 24.0789 13.3346 24.0789C16.9059 24.0789 18.0964 26.7324 22.858 26.7324C25.2389 26.7324 26.4294 24.0789 28.8104 24.0789C32.3818 24.0789 33.5723 26.7324 38.3339 26.7324C40.7148 26.7324 41.9052 24.0789 44.2863 24.0789C47.8577 24.0789 49.0482 26.7324 53.8098 26.7324C56.1907 26.7324 57.3812 24.0789 59.7618 24.0789C63.3333 24.0789 64.524 26.7324 69.2853 26.7324C71.6667 26.7324 72.4368 25.9805 73.3333 25.4412V21.5164ZM73.3333 14.8828C72.4368 15.4221 71.6667 16.6824 69.2853 16.6824C64.5238 16.6824 63.3331 14.0289 59.7618 14.0289C57.3811 14.0289 56.1906 16.6824 53.8098 16.6824C49.0478 16.6824 47.8573 14.0289 44.2863 14.0289C41.9052 14.0289 40.7148 16.6824 38.3339 16.6824C33.572 16.6824 32.3814 14.0289 28.8104 14.0289C26.4294 14.0289 25.2389 16.6824 22.858 16.6824C18.0962 16.6824 16.9056 14.0289 13.3346 14.0289C10.9535 14.0289 9.76308 16.6824 7.38217 16.6824C2.62026 16.6824 1.42967 14.0289 -2.14199 14.0289C-4.52299 14.0289 -5.23724 15.9198 -6.66591 15.9198V19.3359C-5.23733 19.3359 -4.52308 17.4453 -2.14208 17.4453C1.42934 17.4453 2.61992 20.0988 7.38217 20.0988C9.76308 20.0988 10.9535 17.4453 13.3346 17.4453C16.9059 17.4453 18.0964 20.0988 22.858 20.0988C25.2389 20.0988 26.4294 17.4453 28.8104 17.4453C32.3818 17.4453 33.5723 20.0988 38.3339 20.0988C40.7148 20.0988 41.9052 17.4453 44.2863 17.4453C47.8577 17.4453 49.0482 20.0988 53.8098 20.0988C56.1907 20.0988 57.3812 17.4453 59.7618 17.4453C63.3333 17.4453 64.524 20.0988 69.2853 20.0988C71.6667 20.0988 72.4368 19.3469 73.3333 18.8076V14.8828ZM73.3333 8.24924C72.4368 8.78851 71.6667 10.0488 69.2853 10.0488C64.5238 10.0488 63.3331 7.39532 59.7618 7.39532C57.3811 7.39532 56.1906 10.0488 53.8098 10.0488C49.0478 10.0488 47.8573 7.39532 44.2863 7.39532C41.9052 7.39532 40.7148 10.0488 38.3339 10.0488C33.572 10.0488 32.3814 7.39532 28.8104 7.39532C26.4294 7.39532 25.2389 10.0488 22.858 10.0488C18.0962 10.0488 16.9056 7.39532 13.3346 7.39532C10.9535 7.39532 9.76308 10.0488 7.38217 10.0488C2.62026 10.0488 1.42967 7.39532 -2.14199 7.39532C-4.52416 7.39515 -5.23849 9.28593 -6.66699 9.28593V12.7021C-5.23849 12.7021 -4.52424 10.8113 -2.14324 10.8113C1.42817 10.8113 2.61876 13.4648 7.38101 13.4648C9.76192 13.4648 10.9523 10.8113 13.3334 10.8113C16.9048 10.8113 18.0953 13.4648 22.8568 13.4648C25.2378 13.4648 26.4283 10.8113 28.8093 10.8113C32.3807 10.8113 33.5712 13.4648 38.3327 13.4648C40.7137 13.4648 41.9041 10.8113 44.2852 10.8113C47.8565 10.8113 49.047 13.4648 53.8086 13.4648C56.1895 13.4648 57.38 10.8113 59.7607 10.8113C63.3322 10.8113 64.5228 13.4648 69.2841 13.4648C71.6655 13.4648 72.4357 12.7128 73.3321 12.1735V8.2489L73.3333 8.24924ZM73.3333 1.61524C72.4368 2.15449 71.6667 3.41482 69.2853 3.41482C64.5238 3.41482 63.3331 0.761322 59.7618 0.761322C57.3811 0.761322 56.1906 3.41482 53.8098 3.41482C49.0478 3.41482 47.8573 0.761322 44.2863 0.761322C41.9052 0.761322 40.7148 3.41482 38.3339 3.41482C33.572 3.41482 32.3814 0.761322 28.8104 0.761322C26.4294 0.761322 25.2389 3.41482 22.858 3.41482C18.0962 3.41482 16.9056 0.761322 13.3346 0.761322C10.9535 0.761322 9.76308 3.41482 7.38217 3.41482C2.62026 3.41482 1.42967 0.761322 -2.14199 0.761322C-4.52416 0.761322 -5.23849 2.65215 -6.66699 2.65215V6.06832C-5.23849 6.06832 -4.52424 4.17749 -2.14324 4.17749C1.42817 4.17749 2.61876 6.83099 7.38101 6.83099C9.76192 6.83099 10.9523 4.17749 13.3334 4.17749C16.9048 4.17749 18.0953 6.83099 22.8568 6.83099C25.2378 6.83099 26.4283 4.17749 28.8093 4.17749C32.3807 4.17749 33.5712 6.83099 38.3327 6.83099C40.7137 6.83099 41.9041 4.17749 44.2852 4.17749C47.8565 4.17749 49.047 6.83099 53.8086 6.83099C56.1895 6.83099 57.38 4.17749 59.7607 4.17749C63.3322 4.17749 64.5228 6.83099 69.2841 6.83099C71.6655 6.83099 72.4357 6.07907 73.3321 5.53974V1.61515L73.3333 1.61524Z" fill="#000063"/>
<path fill-rule="evenodd" clip-rule="evenodd" d="M-6.66675 0.00497437H13.7481V12.3417H-6.66675V0.00497437Z" fill="#000063"/>
<path d="M-6.66675 0.00497437V1.38414L11.4658 12.3414H13.7483V10.9622L-4.38425 0.00497437H-6.66675ZM13.7483 0.00497437V1.38414L-4.38425 12.3413H-6.66675V10.962L11.4658 0.00497437H13.7483Z" fill="white"/>
<path d="M1.8395 0.00496614V12.3413H5.242V0.00488281L1.8395 0.00496614ZM-6.66675 4.11688V8.22913H13.7483V4.11697L-6.66675 4.11688Z" fill="white"/>
<path d="M-6.66675 4.93937V7.40671H13.7483V4.93946L-6.66675 4.93937ZM2.52 0.00495793V12.3413H4.5615V0.00487459L2.52 0.00495793ZM-6.66675 12.3412L0.138252 8.22912H1.65983L-5.14516 12.3412H-6.66675ZM-6.66675 0.00487459L0.138252 4.11696H-1.38333L-6.66675 0.924457V0.00479126V0.00487459ZM5.42167 4.11696L12.2267 0.00495793H13.7483L6.94325 4.11704L5.42167 4.11696ZM13.7483 12.3412L6.94325 8.22912H8.46484L13.7483 11.4218V12.3412Z" fill="#CC0000"/>
<path fill-rule="evenodd" clip-rule="evenodd" d="M23.0084 9.35916L22.7227 36.4987C22.7227 37.927 24.0142 37.927 24.1511 36.4987L23.8653 9.35916H23.0083H23.0084Z" fill="#A24300" stroke="white" stroke-width="1.034"/>
<path fill-rule="evenodd" clip-rule="evenodd" d="M25.966 19.4451L25.0671 18.4587L24.8453 19.4552L24.4548 18.0122L24.0897 18.7387L24.025 17.2025L23.66 17.929L23.5953 16.3927L23.2301 17.1192L23.0223 15.3131L22.6571 16.0396L22.4492 14.2334L22.0841 14.9599L21.8762 13.1537L21.7722 12.2507L21.9548 11.8873L22.4239 12.064L23.1795 12.7804L24.6906 14.2132L23.7526 13.8601L25.2637 15.2929L24.3256 14.9397L25.8367 16.3726L24.8986 16.0194L26.2665 17.1823L25.3283 16.8292L26.6962 17.9921L25.7581 17.6389L26.8002 18.8952L25.7188 18.2721L25.966 19.4451Z" fill="#006D00" stroke="white" stroke-width="0.899"/>
<path d="M24.6906 14.2132L22.5278 12.9671L22.0841 14.9599" fill="black"/>
<path d="M25.966 19.4451L21.9548 11.8873M24.6906 14.2132L22.5278 12.9671L22.0841 14.9599" stroke="black" stroke-width="0.1455"/>
<path d="M25.2636 15.293L23.1009 14.0468L22.6571 16.0396" fill="black"/>
<path d="M25.2636 15.293L23.1009 14.0468L22.6571 16.0396" stroke="black" stroke-width="0.1455"/>
<path d="M25.8365 16.3726L23.6736 15.1264L23.23 17.1192" fill="black"/>
<path d="M25.8365 16.3726L23.6736 15.1264L23.23 17.1192" stroke="black" stroke-width="0.1455"/>
<path d="M26.2664 17.1823L24.2469 16.2061L23.6599 17.929" fill="black"/>
<path d="M26.2664 17.1823L24.2469 16.2061L23.6599 17.929" stroke="black" stroke-width="0.1455"/>
<path d="M26.6961 17.9921L24.6765 17.0158L24.0895 18.7387" fill="black"/>
<path d="M26.6961 17.9921L24.6765 17.0158L24.0895 18.7387" stroke="black" stroke-width="0.1455"/>
<path d="M26.8001 18.8951L24.9631 17.5556L24.8452 19.4551" fill="black"/>
<path d="M26.8001 18.8951L24.9631 17.5556L24.8452 19.4551" stroke="black" stroke-width="0.1455"/>
<path fill-rule="evenodd" clip-rule="evenodd" d="M15.4349 6.56286L16.9022 7.12236L16.4755 6.01277L17.7584 7.27669L17.6373 6.36969L18.675 7.88452L18.554 6.97752L19.5918 8.49225L19.4707 7.58536L20.814 9.30275L20.693 8.39575L22.0364 10.1132L21.9153 9.20616L23.2586 10.9236L23.9304 11.7822L23.991 12.2358L23.4403 12.2841L22.2785 11.9271L19.955 11.2132L21.0562 11.1167L18.7328 10.4028L19.834 10.3062L17.5105 9.59233L18.6116 9.49583L16.5938 8.98458L17.695 8.888L15.677 8.37675L16.7783 8.28019L15.0054 7.51811L16.4121 7.62411L15.4349 6.56286Z" fill="#006D00" stroke="white" stroke-width="1.002"/>
<path d="M19.9552 11.2131L22.7687 11.4253L21.9154 9.20609" fill="black"/>
<path d="M15.4349 6.56274L23.991 12.2358M19.9552 11.2131L22.7687 11.4253L21.9154 9.20609" stroke="black" stroke-width="0.162"/>
<path d="M18.7329 10.4027L21.5465 10.6148L20.6932 8.39558" fill="black"/>
<path d="M18.7329 10.4027L21.5465 10.6148L20.6932 8.39558" stroke="black" stroke-width="0.162"/>
<path d="M17.5107 9.59233L20.3243 9.80441L19.471 7.58528" fill="black"/>
<path d="M17.5107 9.59233L20.3243 9.80441L19.471 7.58528" stroke="black" stroke-width="0.162"/>
<path d="M16.594 8.9845L19.1019 8.994L18.5542 6.97737" fill="black"/>
<path d="M16.594 8.9845L19.1019 8.994L18.5542 6.97737" stroke="black" stroke-width="0.162"/>
<path d="M15.6772 8.37667L18.1852 8.38617L17.6375 6.36955" fill="black"/>
<path d="M15.6772 8.37667L18.1852 8.38617L17.6375 6.36955" stroke="black" stroke-width="0.162"/>
<path d="M15.0055 7.51811L17.574 7.98111L16.4757 6.01277" fill="black"/>
<path d="M15.0055 7.51811L17.574 7.98111L16.4757 6.01277" stroke="black" stroke-width="0.162"/>
<path fill-rule="evenodd" clip-rule="evenodd" d="M32.4905 8.45825L31.2682 9.35241L32.617 9.50241L30.7355 9.94866L31.7394 10.2476L29.7009 10.3954L30.7048 10.6944L28.6662 10.8422L29.6702 11.1412L27.2867 11.438L28.2907 11.7369L25.9072 12.0337L26.9111 12.3327L24.5277 12.6294L23.3359 12.7778L22.8339 12.6283L23.0217 12.181L23.8993 11.4357L25.6544 9.94533L25.2788 10.84L27.0339 9.34966L26.6584 10.2443L28.4134 8.75391L28.0379 9.64858L29.448 8.30708L29.0725 9.20183L30.4827 7.86033L30.1071 8.755L31.6744 7.71191L30.9539 8.75558L32.4905 8.45825Z" fill="#006D00" stroke="white" stroke-width="0.9945"/>
<path d="M25.6544 9.94542L24.2134 12.0326L26.9111 12.3327" fill="black"/>
<path d="M32.4905 8.45825L22.8339 12.6283M25.6544 9.94542L24.2134 12.0326L26.9111 12.3327" stroke="black" stroke-width="0.1605"/>
<path d="M27.0337 9.34967L25.5929 11.4369L28.2906 11.737" fill="black"/>
<path d="M27.0337 9.34967L25.5929 11.4369L28.2906 11.737" stroke="black" stroke-width="0.1605"/>
<path d="M28.4133 8.754L26.9724 10.8412L29.6701 11.1413" fill="black"/>
<path d="M28.4133 8.754L26.9724 10.8412L29.6701 11.1413" stroke="black" stroke-width="0.1605"/>
<path d="M29.4479 8.30721L28.3519 10.2456L30.7047 10.6946" fill="black"/>
<path d="M29.4479 8.30721L28.3519 10.2456L30.7047 10.6946" stroke="black" stroke-width="0.1605"/>
<path d="M30.4826 7.86044L29.3866 9.79876L31.7393 10.2478" fill="black"/>
<path d="M30.4826 7.86044L29.3866 9.79876L31.7393 10.2478" stroke="black" stroke-width="0.1605"/>
<path d="M31.6744 7.71191L30.0764 9.50075L32.617 9.50241" fill="black"/>
<path d="M31.6744 7.71191L30.0764 9.50075L32.617 9.50241" stroke="black" stroke-width="0.1605"/>
<path fill-rule="evenodd" clip-rule="evenodd" d="M32.2936 17.4874L30.7725 17.0465L31.3165 18.1176L29.9034 16.9607L30.1213 17.8542L28.9253 16.4281L29.1433 17.3216L27.9472 15.8954L28.1652 16.7889L26.6431 15.1853L26.861 16.0788L25.339 14.4751L25.557 15.3686L24.0349 13.7649L23.2738 12.9631L23.1648 12.5163L23.708 12.4247L24.9031 12.6881L27.2934 13.2149L26.2072 13.3983L28.5975 13.925L27.5114 14.1084L29.9016 14.6352L28.8155 14.8186L30.8797 15.1679L29.7935 15.3512L31.8578 15.7004L30.7716 15.8838L32.6188 16.5023L31.2066 16.5081L32.2936 17.4874Z" fill="#006D00" stroke="white" stroke-width="1.001"/>
<path d="M27.2933 13.215L24.469 13.2265L25.5569 15.3687" fill="black"/>
<path d="M32.2936 17.4875L23.1648 12.5163M27.2933 13.215L24.469 13.2265L25.5569 15.3687" stroke="black" stroke-width="0.162"/>
<path d="M28.5974 13.9252L25.7729 13.9368L26.8609 16.0789" fill="black"/>
<path d="M28.5974 13.9252L25.7729 13.9368L26.8609 16.0789" stroke="black" stroke-width="0.162"/>
<path d="M29.9014 14.6353L27.077 14.6468L28.165 16.789" fill="black"/>
<path d="M29.9014 14.6353L27.077 14.6468L28.165 16.789" stroke="black" stroke-width="0.162"/>
<path d="M30.8793 15.1678L28.381 15.357L29.1429 17.3216" fill="black"/>
<path d="M30.8793 15.1678L28.381 15.357L29.1429 17.3216" stroke="black" stroke-width="0.162"/>
<path d="M31.8576 15.7005L29.3593 15.8897L30.1212 17.8543" fill="black"/>
<path d="M31.8576 15.7005L29.3593 15.8897L30.1212 17.8543" stroke="black" stroke-width="0.162"/>
<path d="M32.6186 16.5022L30.0112 16.2447L31.3162 18.1176" fill="black"/>
<path d="M32.6186 16.5022L30.0112 16.2447L31.3162 18.1176" stroke="black" stroke-width="0.162"/>
<path fill-rule="evenodd" clip-rule="evenodd" d="M16.4431 18.0161L17.2067 16.9488L16.0422 17.1168L17.4808 16.3001L16.5611 16.2588L18.2148 15.6722L17.2951 15.6309L18.9489 15.0442L18.0292 15.003L19.9277 14.207L19.0079 14.1656L20.9064 13.3697L19.9867 13.3284L21.8851 12.5324L22.8343 12.1344L23.2943 12.1551L23.2647 12.5944L22.7458 13.4523L21.7082 15.1682L21.7672 14.2896L20.7294 16.0055L20.7884 15.1269L19.7507 16.8428L19.8097 15.9642L19.0166 17.4707L19.0756 16.5921L18.2826 18.0987L18.3416 17.2201L17.3333 18.4966L17.637 17.4087L16.4431 18.0161Z" fill="#006D00" stroke="white" stroke-width="0.89"/>
<path d="M21.7079 15.1682L22.3153 12.9924L19.9864 13.3283" fill="black"/>
<path d="M16.4429 18.0161L23.2941 12.1551M21.7079 15.1682L22.3153 12.9924L19.9864 13.3283" stroke="black" stroke-width="0.144"/>
<path d="M20.7292 16.0055L21.3365 13.8297L19.0077 14.1657" fill="black"/>
<path d="M20.7292 16.0055L21.3365 13.8297L19.0077 14.1657" stroke="black" stroke-width="0.144"/>
<path d="M19.7506 16.8427L20.3579 14.6668L18.0291 15.0028" fill="black"/>
<path d="M19.7506 16.8427L20.3579 14.6668L18.0291 15.0028" stroke="black" stroke-width="0.144"/>
<path d="M19.0164 17.4706L19.3791 15.5042L17.2949 15.6308" fill="black"/>
<path d="M19.0164 17.4706L19.3791 15.5042L17.2949 15.6308" stroke="black" stroke-width="0.144"/>
<path d="M18.2823 18.0986L18.645 16.1321L16.5608 16.2587" fill="black"/>
<path d="M18.2823 18.0986L18.645 16.1321L16.5608 16.2587" stroke="black" stroke-width="0.144"/>
<path d="M17.3334 18.4967L18.1559 16.5508L16.0422 17.1168" fill="black"/>
<path d="M17.3334 18.4967L18.1559 16.5508L16.0422 17.1168" stroke="black" stroke-width="0.144"/>
<path fill-rule="evenodd" clip-rule="evenodd" d="M30.2869 3.94716L28.8108 4.93524L28.5687 3.87582L27.6976 5.34082L27.5414 4.63574L26.8298 6.13824L26.7298 5.44649L26.1777 6.98674L25.8621 6.24407L25.3083 8.11799L24.9926 7.37532L24.4388 9.24934L24.1231 8.50659L23.5694 10.3806L23.2925 11.3176L23.4503 11.689L24.0429 11.4947L25.0702 10.7348L27.1248 9.21492L25.9396 9.60351L27.9942 8.08366L26.8091 8.47217L28.8636 6.95241L27.6786 7.34091L29.7315 6.15482L28.3306 6.49249L30.5431 5.34407L29.1984 5.69491L30.82 4.40707L29.4175 5.07841L30.2869 3.94716Z" fill="#006D00" stroke="white" stroke-width="1.036"/>
<path d="M29.7125 4.47998L27.5799 6.31556L23.45 11.6892" fill="black"/>
<path d="M29.7125 4.47998L27.5799 6.31556L23.45 11.6892" stroke="black" stroke-width="0.1675"/>
<path d="M26.6737 9.44267L24.3197 10.5577L24.1213 8.84042" fill="black"/>
<path d="M26.6737 9.44267L24.3197 10.5577L24.1213 8.84042" stroke="black" stroke-width="0.1675"/>
<path d="M27.5792 8.31983L25.1893 9.42643L24.991 7.70908" fill="black"/>
<path d="M27.5792 8.31983L25.1893 9.42643L24.991 7.70908" stroke="black" stroke-width="0.1675"/>
<path d="M28.4304 7.18443L26.0585 8.29527L25.8782 6.58218" fill="black"/>
<path d="M28.4304 7.18443L26.0585 8.29527L25.8782 6.58218" stroke="black" stroke-width="0.1675"/>
<path d="M29.1366 6.34851L26.9281 7.16376L26.6719 5.76692" fill="black"/>
<path d="M29.1366 6.34851L26.9281 7.16376L26.6719 5.76692" stroke="black" stroke-width="0.1675"/>
<path d="M29.9501 5.53837L27.58 6.31553L27.4878 4.95737" fill="black"/>
<path d="M29.9501 5.53837L27.58 6.31553L27.4878 4.95737" stroke="black" stroke-width="0.1675"/>
<path d="M30.2657 4.77254L28.0741 5.89387L28.4973 4.19321" fill="black"/>
<path d="M30.2657 4.77254L28.0741 5.89387L28.4973 4.19321" stroke="black" stroke-width="0.1675"/>
<path fill-rule="evenodd" clip-rule="evenodd" d="M22.2878 2.09505L22.9469 3.59971L23.7969 2.80438L23.6504 4.44471L24.2118 3.91321L23.9064 5.51405L24.4119 4.96871L23.9474 6.53013L24.6678 6.03813L24.0022 7.88496L24.7225 7.39296L24.0569 9.23983L24.7773 8.74783L24.1117 10.5947L23.7789 11.5182L23.4188 11.7642L23.0312 11.3328L22.6163 10.224L21.7864 8.00646L22.5615 8.86916L21.7317 6.65163L22.5068 7.51438L21.6769 5.2968L22.452 6.15955L21.4209 4.22738L22.4109 5.14338L21.2209 3.17188L22.1549 4.07405L21.5537 2.24838L22.3425 3.44988L22.2878 2.09505Z" fill="#006D00" stroke="white" stroke-width="1.0095"/>
<path d="M22.4541 2.80705L23.1588 5.32897L23.4189 11.7645" fill="black"/>
<path d="M22.4541 2.80705L23.1588 5.32897L23.4189 11.7645" stroke="black" stroke-width="0.163"/>
<path d="M22.033 8.40292L23.364 10.4094L24.5761 9.03334" fill="black"/>
<path d="M22.033 8.40292L23.364 10.4094L24.5761 9.03334" stroke="black" stroke-width="0.163"/>
<path d="M21.9426 7.03914L23.3095 9.0545L24.5215 7.67839" fill="black"/>
<path d="M21.9426 7.03914L23.3095 9.0545L24.5215 7.67839" stroke="black" stroke-width="0.163"/>
<path d="M21.9055 5.68887L23.2544 7.69971L24.4487 6.31921" fill="black"/>
<path d="M21.9055 5.68887L23.2544 7.69971L24.4487 6.31921" stroke="black" stroke-width="0.163"/>
<path d="M21.811 4.65933L23.2 6.34483L24.2669 5.268" fill="black"/>
<path d="M21.811 4.65933L23.2 6.34483L24.2669 5.268" stroke="black" stroke-width="0.163"/>
<path d="M21.6088 3.60342L23.159 5.32892L24.0624 4.21159" fill="black"/>
<path d="M21.6088 3.60342L23.159 5.32892L24.0624 4.21159" stroke="black" stroke-width="0.163"/>
<path d="M21.8047 2.80869L22.9934 4.74777L23.6652 3.10719" fill="black"/>
<path d="M21.8047 2.80869L22.9934 4.74777L23.6652 3.10719" stroke="black" stroke-width="0.163"/>
<path fill-rule="evenodd" clip-rule="evenodd" d="M13.4423 13.1698L15.3699 11.8349L14.4045 11.3372L16.0933 11.6257L15.5133 10.861L17.1543 11.474L16.5743 10.7093L18.2153 11.3224L17.6354 10.5577L19.6141 11.2284L19.0343 10.4637L20.9652 11.4592L20.3853 10.6945L22.3639 11.3652L23.3294 11.8628L23.6194 12.2452L23.2338 12.5122L22.1728 12.6638L20.4605 13.3699L20.774 12.7577L18.6519 13.061L19.423 12.5271L17.2531 13.155L18.0242 12.621L16.192 13.3066L17.0109 12.448L15.131 13.4582L15.9499 12.5996L14.4078 13.6675L15.2744 12.4842L13.4423 13.1698Z" fill="#006D00" stroke="white" stroke-width="0.937"/>
<path d="M14.0522 12.8113L16.0453 11.9503L17.1064 11.7988L17.9921 11.7835L19.5184 11.8778L20.8946 11.9378L23.6194 12.2453" fill="black"/>
<path d="M14.0522 12.8113L16.0453 11.9503L17.1064 11.7988L17.9921 11.7835L19.5184 11.8778L20.8946 11.9378L23.6194 12.2453" stroke="black" stroke-width="0.1515"/>
<path d="M20.7259 13.0823L22.2486 12.1464L20.6968 10.928" fill="black"/>
<path d="M20.7259 13.0823L22.2486 12.1464L20.6968 10.928" stroke="black" stroke-width="0.1515"/>
<path d="M19.0154 12.9428L20.8945 11.9378L19.3426 10.7194" fill="black"/>
<path d="M19.0154 12.9428L20.8945 11.9378L19.3426 10.7194" stroke="black" stroke-width="0.1515"/>
<path d="M17.7974 12.9151L19.5183 11.8776L17.9534 10.7473M15.5164 13.1911L17.1064 11.7986L15.825 11.0945" fill="black"/>
<path d="M17.7974 12.9151L19.5183 11.8776L17.9534 10.7473M15.5164 13.1911L17.1064 11.7986L15.825 11.0945" stroke="black" stroke-width="0.1515"/>
<path d="M14.8101 13.2853L16.0453 11.9503L15.0604 11.5845M16.5773 13.0397L18.1471 11.7844L16.8876 10.9315" fill="black"/>
<path d="M14.8101 13.2853L16.0453 11.9503L15.0604 11.5845M16.5773 13.0397L18.1471 11.7844L16.8876 10.9315" stroke="black" stroke-width="0.1515"/>
<path fill-rule="evenodd" clip-rule="evenodd" d="M19.9207 27.7897L19.9026 25.5391L19.2506 24.4887C19.0876 23.9718 19.1678 23.7217 19.4317 23.705C19.6956 23.6883 19.957 23.8384 20.3373 23.8551C20.7177 23.8717 20.6453 23.2716 21.2067 23.2882C21.7682 23.3049 22.7464 23.605 23.5796 23.655C24.4128 23.705 24.8474 23.3882 25.8074 23.3549C26.7675 23.3216 27.0211 23.7717 27.0753 23.7717C27.1297 23.7717 27.4013 23.5883 27.6731 23.555C27.9447 23.5217 28.0353 23.655 28.0353 23.655C28.0353 23.655 28.0172 24.2219 27.8904 24.5553C27.7637 24.8888 27.3107 25.439 27.2927 25.439C27.2746 25.439 27.1297 27.8899 27.1297 27.9065C27.1297 27.9232 19.9208 27.8398 19.9208 27.7898L19.9207 27.7897Z" fill="#CC0000" stroke="black" stroke-width="0.082"/>
<path fill-rule="evenodd" clip-rule="evenodd" d="M27.3768 25.4881C27.3768 25.4881 28.1023 24.9764 28.1218 23.7479C28.1331 23.0414 27.755 22.5296 26.8097 22.5296C25.4863 22.5296 23.5958 23.0517 23.5958 23.0517V23.2258C23.5958 23.2258 25.1082 22.7037 26.8097 22.7037C27.5659 22.7037 27.9441 23.2153 27.9441 23.7374C27.9441 24.6075 27.1878 25.4881 27.1878 25.4881V26.8803H27.3769V25.4881H27.3768Z" fill="#FFF100" stroke="black" stroke-width="0.082"/>
<path fill-rule="evenodd" clip-rule="evenodd" d="M27.773 25.1232C27.773 25.2194 27.8577 25.2973 27.9621 25.2973C28.0665 25.2973 28.1512 25.2194 28.1512 25.1232C28.1512 25.0272 28.0665 24.9492 27.9621 24.9492C27.8577 24.9492 27.773 25.0272 27.773 25.1232ZM27.9621 24.7252C27.9621 24.8213 28.0468 24.8992 28.1512 24.8992C28.2556 24.8992 28.3402 24.8213 28.3402 24.7252C28.3402 24.6291 28.2556 24.5512 28.1512 24.5512C28.0468 24.5512 27.9621 24.6291 27.9621 24.7252ZM28.0606 24.3199C28.0606 24.4161 28.1453 24.494 28.2497 24.494C28.3541 24.494 28.4388 24.4161 28.4388 24.3199C28.4388 24.2238 28.3541 24.1459 28.2497 24.1459C28.1453 24.1459 28.0606 24.2238 28.0606 24.3199ZM28.133 23.8864C28.133 23.9826 28.2177 24.0605 28.3221 24.0605C28.4265 24.0605 28.5112 23.9826 28.5112 23.8864C28.5112 23.7903 28.4265 23.7124 28.3221 23.7124C28.2177 23.7124 28.133 23.7903 28.133 23.8864ZM28.115 23.4164C28.115 23.5125 28.1996 23.5904 28.304 23.5904C28.4084 23.5904 28.4931 23.5125 28.4931 23.4164C28.4931 23.3203 28.4084 23.2424 28.304 23.2424C28.1996 23.2424 28.115 23.3203 28.115 23.4164ZM27.5013 25.4734C27.5013 25.5695 27.5859 25.6474 27.6903 25.6474C27.7948 25.6474 27.8794 25.5695 27.8794 25.4734C27.8794 25.3773 27.7948 25.2994 27.6903 25.2994C27.5859 25.2994 27.5013 25.3773 27.5013 25.4734ZM27.9542 22.9725C27.9542 23.0686 28.0388 23.1465 28.1433 23.1465C28.2477 23.1465 28.3323 23.0686 28.3323 22.9725C28.3323 22.8764 28.2477 22.7985 28.1433 22.7985C28.0388 22.7985 27.9542 22.8764 27.9542 22.9725ZM27.6101 22.6224C27.6101 22.7186 27.6947 22.7965 27.7991 22.7965C27.9035 22.7965 27.9882 22.7186 27.9882 22.6224C27.9882 22.5263 27.9035 22.4484 27.7991 22.4484C27.6947 22.4484 27.6101 22.5263 27.6101 22.6224ZM27.1391 22.3891C27.1391 22.4852 27.2238 22.5631 27.3282 22.5631C27.4326 22.5631 27.5173 22.4852 27.5173 22.3891C27.5173 22.293 27.4326 22.2151 27.3282 22.2151C27.2238 22.2151 27.1391 22.293 27.1391 22.3891ZM26.6682 22.3557C26.6682 22.4517 26.7528 22.5297 26.8573 22.5297C26.9617 22.5297 27.0463 22.4517 27.0463 22.3557C27.0463 22.2595 26.9617 22.1816 26.8573 22.1816C26.7528 22.1816 26.6682 22.2595 26.6682 22.3557ZM26.1611 22.3723C26.1611 22.4685 26.2458 22.5464 26.3502 22.5464C26.4546 22.5464 26.5392 22.4685 26.5392 22.3723C26.5392 22.2762 26.4546 22.1983 26.3502 22.1983C26.2458 22.1983 26.1611 22.2762 26.1611 22.3723ZM25.6539 22.4391C25.6539 22.5352 25.7385 22.6131 25.8429 22.6131C25.9473 22.6131 26.032 22.5352 26.032 22.4391C26.032 22.343 25.9473 22.2651 25.8429 22.2651C25.7385 22.2651 25.6539 22.343 25.6539 22.4391ZM25.1466 22.5057C25.1466 22.6019 25.2313 22.6798 25.3357 22.6798C25.4401 22.6798 25.5248 22.6019 25.5248 22.5057C25.5248 22.4097 25.4401 22.3317 25.3357 22.3317C25.2313 22.3317 25.1466 22.4097 25.1466 22.5057ZM24.6033 22.5891C24.6033 22.6852 24.688 22.7631 24.7924 22.7631C24.8968 22.7631 24.9814 22.6852 24.9814 22.5891C24.9814 22.4929 24.8968 22.415 24.7924 22.415C24.688 22.415 24.6033 22.4929 24.6033 22.5891ZM24.1324 22.7058C24.1324 22.802 24.217 22.8799 24.3214 22.8799C24.4258 22.8799 24.5105 22.802 24.5105 22.7058C24.5105 22.6097 24.4258 22.5318 24.3214 22.5318C24.217 22.5318 24.1324 22.6097 24.1324 22.7058ZM19.418 25.1232C19.418 25.2194 19.3333 25.2973 19.2289 25.2973C19.1245 25.2973 19.0399 25.2194 19.0399 25.1232C19.0399 25.0272 19.1245 24.9492 19.2289 24.9492C19.3333 24.9492 19.418 25.0272 19.418 25.1232ZM19.2289 24.7253C19.2289 24.8214 19.1443 24.8993 19.0399 24.8993C18.9355 24.8993 18.8508 24.8214 18.8508 24.7253C18.8508 24.6292 18.9355 24.5512 19.0399 24.5512C19.1443 24.5512 19.2289 24.6292 19.2289 24.7253ZM19.1304 24.3199C19.1304 24.416 19.0458 24.4939 18.9413 24.4939C18.8369 24.4939 18.7523 24.416 18.7523 24.3199C18.7523 24.2237 18.8369 24.1458 18.9413 24.1458C19.0458 24.1458 19.1304 24.2237 19.1304 24.3199ZM19.058 23.8864C19.058 23.9825 18.9733 24.0604 18.8689 24.0604C18.7645 24.0604 18.6799 23.9825 18.6799 23.8864C18.6799 23.7902 18.7645 23.7123 18.8689 23.7123C18.9733 23.7123 19.058 23.7902 19.058 23.8864ZM19.0761 23.4164C19.0761 23.5125 18.9915 23.5904 18.8871 23.5904C18.7827 23.5904 18.698 23.5125 18.698 23.4164C18.698 23.3203 18.7827 23.2424 18.8871 23.2424C18.9915 23.2424 19.0761 23.3203 19.0761 23.4164ZM19.2369 22.9725C19.2369 23.0686 19.1523 23.1465 19.0478 23.1465C18.9434 23.1465 18.8588 23.0686 18.8588 22.9725C18.8588 22.8764 18.9434 22.7985 19.0478 22.7985C19.1523 22.7985 19.2369 22.8764 19.2369 22.9725ZM19.5811 22.6224C19.5811 22.7186 19.4964 22.7965 19.392 22.7965C19.2876 22.7965 19.2029 22.7186 19.2029 22.6224C19.2029 22.5263 19.2876 22.4484 19.392 22.4484C19.4964 22.4484 19.5811 22.5263 19.5811 22.6224ZM20.0519 22.389C20.0519 22.4851 19.9673 22.563 19.8628 22.563C19.7584 22.563 19.6738 22.4851 19.6738 22.389C19.6738 22.2929 19.7584 22.215 19.8628 22.215C19.9673 22.215 20.0519 22.2929 20.0519 22.389ZM20.5228 22.3557C20.5228 22.4517 20.4382 22.5297 20.3338 22.5297C20.2293 22.5297 20.1448 22.4517 20.1448 22.3557C20.1448 22.2595 20.2293 22.1816 20.3338 22.1816C20.4382 22.1816 20.5228 22.2595 20.5228 22.3557ZM21.0299 22.3723C21.0299 22.4685 20.9453 22.5464 20.8409 22.5464C20.7365 22.5464 20.6518 22.4685 20.6518 22.3723C20.6518 22.2762 20.7365 22.1983 20.8409 22.1983C20.9453 22.1983 21.0299 22.2762 21.0299 22.3723ZM21.5373 22.4391C21.5373 22.5352 21.4526 22.6131 21.3482 22.6131C21.2438 22.6131 21.1591 22.5352 21.1591 22.4391C21.1591 22.3429 21.2438 22.265 21.3482 22.265C21.4526 22.265 21.5373 22.3429 21.5373 22.4391ZM22.0444 22.5057C22.0444 22.6018 21.9598 22.6797 21.8553 22.6797C21.7509 22.6797 21.6663 22.6018 21.6663 22.5057C21.6663 22.4096 21.7509 22.3317 21.8553 22.3317C21.9598 22.3317 22.0444 22.4096 22.0444 22.5057ZM22.5877 22.5891C22.5877 22.6852 22.5031 22.7631 22.3987 22.7631C22.2943 22.7631 22.2096 22.6852 22.2096 22.5891C22.2096 22.4929 22.2943 22.415 22.3987 22.415C22.5031 22.415 22.5877 22.4929 22.5877 22.5891ZM23.0587 22.7058C23.0587 22.802 22.9741 22.8799 22.8697 22.8799C22.7653 22.8799 22.6806 22.802 22.6806 22.7058C22.6806 22.6097 22.7653 22.5318 22.8697 22.5318C22.9741 22.5318 23.0587 22.6097 23.0587 22.7058ZM19.6898 25.4734C19.6898 25.5695 19.6051 25.6474 19.5007 25.6474C19.3963 25.6474 19.3116 25.5695 19.3116 25.4734C19.3116 25.3773 19.3963 25.2994 19.5007 25.2994C19.6051 25.2994 19.6898 25.3773 19.6898 25.4734Z" fill="white" stroke="black" stroke-width="0.082"/>
<path fill-rule="evenodd" clip-rule="evenodd" d="M19.8143 25.4881C19.8143 25.4881 19.0888 24.9764 19.0693 23.7479C19.0581 23.0414 19.4362 22.5296 20.3814 22.5296C21.7049 22.5296 23.5953 23.0517 23.5953 23.0517V23.2258C23.5953 23.2258 22.0829 22.7037 20.3814 22.7037C19.6253 22.7037 19.2471 23.2153 19.2471 23.7374C19.2471 24.6075 20.0033 25.4881 20.0033 25.4881V26.8803H19.8143L19.8143 25.4881Z" fill="#FFF100" stroke="black" stroke-width="0.082"/>
<path fill-rule="evenodd" clip-rule="evenodd" d="M21.1378 26.1346C21.1378 26.1346 21.1924 26.002 21.3898 26.002C21.5242 26.002 21.6419 26.1346 21.6419 26.2672V26.5323H21.768V26.2672C21.768 26.1344 21.894 26.002 22.0201 26.002C22.2091 26.002 22.2721 26.1346 22.2721 26.1346C22.2721 26.1346 22.2721 25.7367 22.0201 25.7367C21.831 25.7367 21.768 25.8694 21.768 25.8694C21.768 25.8694 21.831 25.6705 21.831 25.4716C21.831 25.2727 21.705 25.1401 21.705 25.1401C21.705 25.1655 21.5789 25.2727 21.5789 25.4716C21.5789 25.6705 21.6419 25.8694 21.6419 25.8694C21.6419 25.8694 21.5789 25.7367 21.3898 25.7367C21.1378 25.7367 21.1378 26.1346 21.1378 26.1346ZM24.9188 26.1346C24.9188 26.1346 24.9734 26.002 25.1708 26.002C25.3052 26.002 25.4229 26.1346 25.4229 26.2672V26.5323H25.549V26.2672C25.549 26.1344 25.6751 26.002 25.8011 26.002C25.9902 26.002 26.0532 26.1346 26.0532 26.1346C26.0532 26.1346 26.0532 25.7367 25.8011 25.7367C25.612 25.7367 25.549 25.8694 25.549 25.8694C25.549 25.8694 25.612 25.6705 25.612 25.4716C25.612 25.2727 25.486 25.1401 25.486 25.1401C25.486 25.1655 25.3599 25.2727 25.3599 25.4716C25.3599 25.6705 25.4229 25.8694 25.4229 25.8694C25.4229 25.8694 25.3599 25.7367 25.1708 25.7367C24.9188 25.7367 24.9188 26.1346 24.9188 26.1346Z" fill="#FFF100" stroke="black" stroke-width="0.0655"/>
<path fill-rule="evenodd" clip-rule="evenodd" d="M19.8142 27.9244V26.3582C19.8142 26.3582 20.1923 26.8802 20.7595 26.8802C21.2235 26.8802 21.7047 26.1842 21.7047 26.1842C21.7047 26.1842 22.1477 26.7062 22.65 26.7062C23.0984 26.7062 23.5945 26.0327 23.5945 26.0327C23.5945 26.0327 24.0556 26.7062 24.5405 26.7062C25.0255 26.7062 25.4858 26.1842 25.4858 26.1842C25.4858 26.1842 25.9798 26.8802 26.6201 26.8802C27.1873 26.8802 27.3764 26.3582 27.3764 26.3582V27.9244H19.8142Z" fill="#FFF100" stroke="black" stroke-width="0.082"/>
<path fill-rule="evenodd" clip-rule="evenodd" d="M19.8142 27.9244V26.7062C19.8142 26.7062 20.9485 27.0542 20.9485 27.9244H19.8142ZM27.3764 27.9244V26.7062C27.3764 26.7062 26.242 27.0542 26.242 27.9244H27.3764Z" fill="#FFF100" stroke="black" stroke-width="0.082"/>
<path fill-rule="evenodd" clip-rule="evenodd" d="M20.5706 27.9244C20.5706 27.0543 21.7056 26.5041 21.7056 26.5041C21.7056 26.5041 22.8392 27.0543 22.8392 27.9244H20.5706ZM24.3516 27.9244C24.3516 27.0543 25.4867 26.5041 25.4867 26.5041C25.4867 26.5041 26.6203 27.0543 26.6203 27.9244H24.3516Z" fill="#FFF100" stroke="black" stroke-width="0.082"/>
<path fill-rule="evenodd" clip-rule="evenodd" d="M22.272 27.9244C22.272 27.0543 23.5961 26.3582 23.5961 26.3582C23.5961 26.3582 24.9187 27.0542 24.9187 27.9244H22.272Z" fill="#FFF100" stroke="black" stroke-width="0.082"/>
<path fill-rule="evenodd" clip-rule="evenodd" d="M27.5651 27.9244C27.1914 27.7503 25.8135 27.5763 23.5951 27.5763C21.3767 27.5763 19.9013 27.7503 19.5274 27.9244C19.1536 28.0984 19.1536 28.4464 19.5274 28.6205C19.9013 28.7945 21.3768 28.9685 23.5952 28.9685C25.8136 28.9685 27.1913 28.7945 27.5652 28.6205C27.939 28.4464 27.9389 28.0984 27.5651 27.9244Z" fill="white" stroke="black" stroke-width="0.0815"/>
<path fill-rule="evenodd" clip-rule="evenodd" d="M27.3767 28.6205C27.3767 28.9685 24.2317 28.9685 23.5955 28.9685C22.9083 28.9685 19.8145 29.0628 19.8145 28.6205C19.8145 28.2724 22.9339 28.2724 23.5955 28.2724C24.2573 28.2724 27.3767 28.3432 27.3767 28.6205Z" fill="#808080"/>
<path fill-rule="evenodd" clip-rule="evenodd" d="M20.1924 27.3704C20.1924 27.4842 20.1076 27.5764 20.0033 27.5764C19.8989 27.5764 19.8142 27.4842 19.8142 27.3704C19.8142 27.2567 19.8989 27.1644 20.0033 27.1644C20.1076 27.1644 20.1924 27.2566 20.1924 27.3704ZM27.3764 27.3704C27.3764 27.4842 27.2918 27.5764 27.1874 27.5764C27.083 27.5764 26.9983 27.4842 26.9983 27.3704C26.9983 27.2567 27.083 27.1644 27.1874 27.1644C27.2918 27.1644 27.3764 27.2566 27.3764 27.3704Z" fill="#CC0000"/>
<path fill-rule="evenodd" clip-rule="evenodd" d="M23.9735 27.2603C23.9735 27.3741 23.8042 27.4662 23.5954 27.4662C23.3865 27.4662 23.2173 27.3741 23.2173 27.2603C23.2173 27.1466 23.3865 27.0543 23.5954 27.0543C23.8042 27.0543 23.9735 27.1466 23.9735 27.2603Z" fill="black"/>
<path fill-rule="evenodd" clip-rule="evenodd" d="M25.7872 27.2603C25.7872 27.3741 25.6602 27.4662 25.5036 27.4662C25.347 27.4662 25.22 27.3741 25.22 27.2603C25.22 27.1466 25.347 27.0543 25.5036 27.0543C25.6602 27.0543 25.7872 27.1466 25.7872 27.2603ZM21.8938 27.2603C21.8938 27.3741 21.7668 27.4662 21.6102 27.4662C21.4537 27.4662 21.3267 27.3741 21.3267 27.2603C21.3267 27.1466 21.4537 27.0543 21.6102 27.0543C21.7668 27.0543 21.8938 27.1466 21.8938 27.2603Z" fill="#006300"/>
<path fill-rule="evenodd" clip-rule="evenodd" d="M22.8394 26.06C22.8394 26.06 23.0555 25.7617 23.2716 25.7617H23.4876V25.9605C23.4876 26.2589 23.1635 26.3583 23.1635 26.3583H24.0279C24.0279 26.3583 23.7038 26.2589 23.7038 25.9605V25.7617H23.9198C24.1359 25.7617 24.3519 26.06 24.3519 26.06V25.2644C24.3519 25.2644 24.1359 25.5627 23.9198 25.5627H23.7038V25.3638C23.7038 25.0655 24.0279 24.9661 24.0279 24.9661H23.1635C23.1635 24.9661 23.4876 25.0655 23.4876 25.3638V25.5627H23.2716C23.0555 25.5627 22.8394 25.2644 22.8394 25.2644V26.06ZM19.8149 26.7064H20.031C20.031 26.7064 19.869 26.6194 19.869 26.3583V26.1843H19.977C20.085 26.1843 20.1931 26.4454 20.1931 26.4454V25.7492C20.1931 25.7492 20.085 26.0103 19.977 26.0103H19.869V25.8362C19.869 25.5752 20.031 25.4881 20.031 25.4881H19.8149V26.7064ZM27.3762 26.7064H27.1601C27.1601 26.7064 27.3222 26.6194 27.3222 26.3583V26.1843H27.2141C27.1061 26.1843 26.998 26.4454 26.998 26.4454V25.7492C26.998 25.7492 27.1061 26.0103 27.2141 26.0103H27.3222V25.8362C27.3222 25.5752 27.1601 25.4881 27.1601 25.4881H27.3762V26.7064Z" fill="#FFF100" stroke="black" stroke-width="0.077"/>
<path fill-rule="evenodd" clip-rule="evenodd" d="M23.7844 25.6621C23.7844 25.7582 23.6998 25.8361 23.5953 25.8361C23.4909 25.8361 23.4062 25.7582 23.4062 25.6621C23.4062 25.5659 23.4909 25.488 23.5953 25.488C23.6998 25.488 23.7844 25.5659 23.7844 25.6621Z" fill="white" stroke="black" stroke-width="0.082"/>
<path fill-rule="evenodd" clip-rule="evenodd" d="M22.8394 22.4056C22.8394 22.4056 23.0554 22.1072 23.2715 22.1072H23.4875V22.3061C23.4875 22.6045 23.1634 22.7039 23.1634 22.7039H24.0278C24.0278 22.7039 23.7037 22.6045 23.7037 22.3061V22.1072H23.9197C24.1358 22.1072 24.3519 22.4056 24.3519 22.4056V21.61C24.3519 21.61 24.1358 21.9084 23.9197 21.9084H23.7037V21.7095C23.7037 21.4111 24.0278 21.3116 24.0278 21.3116H23.1634C23.1634 21.3116 23.4875 21.4111 23.4875 21.7095V21.9084H23.2715C23.0554 21.9084 22.8394 21.61 22.8394 21.61V22.4056Z" fill="#FFF100" stroke="black" stroke-width="0.077"/>
<path fill-rule="evenodd" clip-rule="evenodd" d="M23.8026 22.0367C23.8026 22.1328 23.718 22.2107 23.6136 22.2107C23.5091 22.2107 23.4246 22.1328 23.4246 22.0367C23.4246 21.9406 23.5091 21.8627 23.6136 21.8627C23.718 21.8627 23.8026 21.9406 23.8026 22.0367Z" fill="white" stroke="black" stroke-width="0.082"/>
<path fill-rule="evenodd" clip-rule="evenodd" d="M23.2173 22.7037H23.9735V23.2258H23.2173V22.7037Z" fill="#FFF100" stroke="black" stroke-width="0.082"/>
<path fill-rule="evenodd" clip-rule="evenodd" d="M23.2173 22.9767H23.9735V24.966H23.2173V22.9767Z" fill="#FFF100" stroke="black" stroke-width="0.082"/>
<path fill-rule="evenodd" clip-rule="evenodd" d="M23.7847 24.6179C23.7847 24.714 23.7 24.7919 23.5956 24.7919C23.4912 24.7919 23.4065 24.714 23.4065 24.6179C23.4065 24.5217 23.4912 24.4438 23.5956 24.4438C23.7 24.4438 23.7847 24.5217 23.7847 24.6179ZM23.7847 24.1677C23.7847 24.2638 23.7 24.3417 23.5956 24.3417C23.4912 24.3417 23.4065 24.2638 23.4065 24.1677C23.4065 24.0716 23.4912 23.9937 23.5956 23.9937C23.7 23.9937 23.7847 24.0716 23.7847 24.1677ZM23.7847 23.7478C23.7847 23.8439 23.7 23.9218 23.5956 23.9218C23.4912 23.9218 23.4065 23.8439 23.4065 23.7478C23.4065 23.6517 23.4912 23.5737 23.5956 23.5737C23.7 23.5737 23.7847 23.6517 23.7847 23.7478ZM23.7847 23.3143C23.7847 23.4105 23.7 23.4884 23.5956 23.4884C23.4912 23.4884 23.4065 23.4105 23.4065 23.3143C23.4065 23.2182 23.4912 23.1403 23.5956 23.1403C23.7 23.1403 23.7847 23.2182 23.7847 23.3143Z" fill="white" stroke="black" stroke-width="0.082"/>
<path fill-rule="evenodd" clip-rule="evenodd" d="M23.997 27.9282C23.997 28.0064 23.825 28.0697 23.6128 28.0697C23.4006 28.0697 23.2286 28.0064 23.2286 27.9282C23.2286 27.8502 23.4006 27.7867 23.6128 27.7867C23.8251 27.7867 23.997 27.8501 23.997 27.9282V27.9282ZM27.479 28.2737C27.4577 28.3272 27.2706 28.3317 27.0611 28.2836C26.8515 28.2355 26.6988 28.1531 26.72 28.0996C26.7414 28.046 26.9285 28.0416 27.138 28.0896C27.3477 28.1377 27.5002 28.2201 27.479 28.2737ZM26.0238 28.039C26.0153 28.1079 25.8332 28.1515 25.617 28.1364C25.4008 28.1212 25.2323 28.0532 25.2407 27.9842C25.2491 27.9154 25.4313 27.8717 25.6475 27.8868C25.8637 27.9019 26.0322 27.9701 26.0238 28.039ZM19.6277 28.2737C19.649 28.3272 19.8361 28.3317 20.0456 28.2836C20.2553 28.2355 20.408 28.1531 20.3867 28.0996C20.3654 28.046 20.1783 28.0416 19.9688 28.0896C19.759 28.1377 19.6065 28.2201 19.6277 28.2737ZM21.1559 28.0056C21.1643 28.0745 21.3465 28.1181 21.5626 28.103C21.7789 28.0879 21.9474 28.0198 21.939 27.9509C21.9305 27.882 21.7484 27.8384 21.5321 27.8535C21.316 27.8686 21.1475 27.9367 21.1559 28.0056Z" fill="black"/>
</g>
</g>
</g>
</g>
<defs>
<clipPath id="clip0_16699_270302">
<rect width="40" height="40" fill="white"/>
</clipPath>
</defs>
</svg>
