<svg width="40" height="40" viewBox="0 0 40 40" fill="none" xmlns="http://www.w3.org/2000/svg">
<g clip-path="url(#clip0_16699_270450)">
<mask id="mask0_16699_270450" style="mask-type:luminance" maskUnits="userSpaceOnUse" x="0" y="0" width="40" height="40">
<path d="M40 0H0V40H40V0Z" fill="white"/>
</mask>
<g mask="url(#mask0_16699_270450)">
<mask id="mask1_16699_270450" style="mask-type:luminance" maskUnits="userSpaceOnUse" x="0" y="0" width="40" height="40">
<path d="M40 20C40 8.95433 31.0457 0 20 0C8.95433 0 0 8.95433 0 20C0 31.0457 8.95433 40 20 40C31.0457 40 40 31.0457 40 20Z" fill="white"/>
</mask>
<g mask="url(#mask1_16699_270450)">
<path d="M-10 0H50V40H-10V0Z" fill="white"/>
<path d="M-10 0H50V13.3333H-10V0Z" fill="#CD1125"/>
<path d="M-10 26.6667H50V40.0001H-10V26.6667Z" fill="black"/>
<path d="M19.6158 22.8031H9.84317C9.82284 22.9857 9.75617 23.1623 9.64792 23.3203C9.53959 23.4783 9.39234 23.6138 9.21651 23.7174C9.04067 23.821 8.84051 23.8901 8.63026 23.9197C8.42001 23.9493 8.20478 23.9388 7.99976 23.889C9.36842 23.2172 9.28259 22.5354 8.41892 21.0203C8.89876 20.8485 8.97451 20.8031 9.45934 20.4748C9.11592 21.5152 10.3483 21.389 11.2573 21.389C11.2573 21.0253 11.2927 20.6112 11.02 20.5556C11.3735 20.4294 11.4038 20.389 11.9643 19.9142V21.3132H18.7068V20.3536C18.7068 20.3 18.6856 20.2486 18.6477 20.2108C18.6098 20.1729 18.5583 20.1516 18.5048 20.1516C18.4513 20.1516 18.3998 20.1729 18.362 20.2108C18.3241 20.2486 18.3028 20.3 18.3028 20.3536V20.9092C18.3028 20.9493 18.2868 20.9879 18.2583 21.0163C18.23 21.0447 18.1915 21.0607 18.1513 21.0607H12.9998V20.1516L16.8685 16.4142C16.8432 16.6061 17.2422 17.1213 17.4088 17.2071C17.2826 17.2273 17.1412 17.2021 17.0503 17.293L13.8836 20.3536H17.3937C17.3937 19.5405 18.1513 19.5405 18.5048 19.2526C18.8583 19.5405 19.6158 19.5405 19.6158 20.3536V22.8031ZM20.3483 22.8031V16.4142C20.7068 16.6112 20.9846 16.8384 21.4291 16.9496C21.4088 17.2021 21.1816 17.2829 21.1816 17.4597V21.389C21.6765 21.5001 21.7877 21.2122 22.025 21.0657C22.0856 21.692 22.4846 22.3081 22.4695 22.8031H20.3483ZM27.025 18.5354L27.8078 17.8789V21.3132H28.3633V17.4092C28.6361 17.1819 28.9897 16.9344 29.1462 16.6465V22.8031H24.222C24.1513 21.5304 24.1513 20.2223 25.6361 20.5051V19.9849C25.6361 19.8637 25.4543 19.9597 25.4543 19.8485L26.4695 19.0001V21.3132H27.025V18.5354ZM26.7675 16.7778C26.6715 16.7829 26.525 16.2576 26.5603 16.1566C26.5957 16.0405 26.7271 16.0405 26.7826 16.096C26.8735 16.1819 26.8633 16.7728 26.7675 16.7778ZM25.8533 17.49C25.5755 17.3283 25.621 17.2627 25.8633 17.3334C26.2826 17.4597 26.4947 17.3536 26.7978 17.0455L27.025 17.1617C27.323 17.3132 27.5048 17.2475 27.6108 16.8839C27.6412 16.7728 27.7321 16.8031 27.7573 16.9294C27.8533 17.4344 27.4695 17.591 27.0806 17.4496C26.8685 17.3789 26.8331 17.3789 26.7271 17.4597C26.4947 17.6415 26.1613 17.6718 25.8533 17.49ZM29.8786 22.8031V16.4142C30.2372 16.6112 30.5148 16.8384 30.9593 16.9496C30.9392 17.2021 30.7118 17.2829 30.7118 17.4597V21.389C31.2068 21.5001 31.318 21.2122 31.5553 21.0657C31.6158 21.692 32.0148 22.3081 31.9998 22.8031H29.8786ZM10.7321 23.5102C10.7321 23.4311 10.7635 23.3553 10.8193 23.2995C10.8753 23.2436 10.9511 23.2122 11.0301 23.2122C11.1091 23.2122 11.1848 23.2436 11.2408 23.2995C11.2967 23.3553 11.3281 23.4311 11.3281 23.5102C11.3281 23.5892 11.2967 23.665 11.2408 23.7209C11.1848 23.7768 11.1091 23.8081 11.0301 23.8081C10.9511 23.8081 10.8753 23.7768 10.8193 23.7209C10.7635 23.665 10.7321 23.5892 10.7321 23.5102ZM25.1816 21.1869C25.1816 21.2325 25.2055 21.2762 25.2482 21.3084C25.2908 21.3406 25.3486 21.3587 25.4088 21.3587C25.4691 21.3587 25.527 21.3406 25.5696 21.3084C25.6122 21.2762 25.6361 21.2325 25.6361 21.1869C25.6361 21.1414 25.6122 21.0977 25.5696 21.0655C25.527 21.0333 25.4691 21.0152 25.4088 21.0152C25.3486 21.0152 25.2908 21.0333 25.2482 21.0655C25.2055 21.0977 25.1816 21.1414 25.1816 21.1869Z" fill="#017B3D"/>
</g>
</g>
</g>
<defs>
<clipPath id="clip0_16699_270450">
<rect width="40" height="40" fill="white"/>
</clipPath>
</defs>
</svg>
