<svg width="40" height="40" viewBox="0 0 40 40" fill="none" xmlns="http://www.w3.org/2000/svg">
<g clip-path="url(#clip0_16699_270463)">
<mask id="mask0_16699_270463" style="mask-type:luminance" maskUnits="userSpaceOnUse" x="0" y="0" width="40" height="40">
<path d="M40 0H0V40H40V0Z" fill="white"/>
</mask>
<g mask="url(#mask0_16699_270463)">
<mask id="mask1_16699_270463" style="mask-type:luminance" maskUnits="userSpaceOnUse" x="0" y="0" width="40" height="40">
<path d="M40 20C40 8.95433 31.0457 0 20 0C8.95433 0 0 8.95433 0 20C0 31.0457 8.95433 40 20 40C31.0457 40 40 31.0457 40 20Z" fill="white"/>
</mask>
<g mask="url(#mask1_16699_270463)">
<path d="M50 0H-10V40H50V0Z" fill="#DA0000"/>
<path d="M50 0H-10V26.6667H50V0Z" fill="white"/>
<path d="M50 0H-10V13.3333H50V0Z" fill="#239F40"/>
<path d="M-3.75586 11.3104H-0.300731M-3.62297 12.7104V11.9327H-2.55985V12.5549H-1.49674V11.9327H-2.16118M-3.2243 12.5549H-2.95852M-0.300731 12.5549H-0.965176V11.9327H0.0979374M0.0979374 11.1549V12.5549H1.16105V11.1549M0.629495 11.1549V12.5549" stroke="white" stroke-width="0.143777"/>
<path d="M-3.75586 13.3323H-1.36385M-1.09807 13.3323H1.29394" stroke="white" stroke-width="0.287553"/>
<path d="M-3.75586 26.666H-1.36385M-1.09807 26.666H1.29394" stroke="white" stroke-width="0.287553"/>
<path d="M-3.75586 27.4437H-0.300731M-3.62297 28.8437V28.0659H-2.55985V28.6881H-1.49674V28.0659H-2.16118M-3.2243 28.6881H-2.95852M-0.300731 28.6881H-0.965176V28.0659H0.0979374M0.0979374 27.2881V28.6881H1.16105V27.2881M0.629495 27.2881V28.6881" stroke="white" stroke-width="0.143777"/>
<path d="M1.56079 11.3104H5.01592M1.69368 12.7104V11.9327H2.75679V12.5549H3.81992V11.9327H3.15547M2.09235 12.5549H2.35813M5.01592 12.5549H4.35147V11.9327H5.41459M5.41459 11.1549V12.5549H6.4777V11.1549M5.94614 11.1549V12.5549" stroke="white" stroke-width="0.143777"/>
<path d="M1.56079 13.3323H3.9528M4.21858 13.3323H6.61059" stroke="white" stroke-width="0.287553"/>
<path d="M1.56079 26.666H3.9528M4.21858 26.666H6.61059" stroke="white" stroke-width="0.287553"/>
<path d="M1.56079 27.4437H5.01592M1.69368 28.8437V28.0659H2.75679V28.6881H3.81992V28.0659H3.15547M2.09235 28.6881H2.35813M5.01592 28.6881H4.35147V28.0659H5.41459M5.41459 27.2881V28.6881H6.4777V27.2881M5.94614 27.2881V28.6881" stroke="white" stroke-width="0.143777"/>
<path d="M6.875 11.3104H10.3301M7.00789 12.7104V11.9327H8.07101V12.5549H9.13408V11.9327H8.46967M7.40656 12.5549H7.67234M10.3301 12.5549H9.66567V11.9327H10.7288M10.7288 11.1549V12.5549H11.7919V11.1549M11.2604 11.1549V12.5549" stroke="white" stroke-width="0.143777"/>
<path d="M6.87524 13.3323H9.26724M9.53299 13.3323H11.925" stroke="white" stroke-width="0.287553"/>
<path d="M6.87524 26.6656H9.26724M9.53299 26.6656H11.925" stroke="white" stroke-width="0.287553"/>
<path d="M6.87524 27.4436H10.3304M7.00813 28.8436V28.0658H8.07125V28.6881H9.13433V28.0658H8.46991M7.4068 28.6881H7.67258M10.3304 28.6881H9.66591V28.0658H10.729M10.729 27.2881V28.6881H11.7922V27.2881M11.2607 27.2881V28.6881" stroke="white" stroke-width="0.143777"/>
<path d="M12.1973 11.3104H15.6523M12.3302 12.7104V11.9327H13.3933V12.5549H14.4563V11.9327H13.7918M12.7288 12.5549H12.9946M15.6523 12.5549H14.9878V11.9327H16.0511M16.0511 11.1549V12.5549H17.1142V11.1549M16.5826 11.1549V12.5549" stroke="white" stroke-width="0.143777"/>
<path d="M12.1973 13.3323H14.5893M14.8551 13.3323H17.2471" stroke="white" stroke-width="0.287553"/>
<path d="M12.1973 26.666H14.5893M14.8551 26.666H17.2471" stroke="white" stroke-width="0.287553"/>
<path d="M12.1973 27.4437H15.6523M12.3302 28.8437V28.0659H13.3933V28.6881H14.4563V28.0659H13.7918M12.7288 28.6881H12.9946M15.6523 28.6881H14.9878V28.0659H16.0511M16.0511 27.2881V28.6881H17.1142V27.2881M16.5826 27.2881V28.6881" stroke="white" stroke-width="0.143777"/>
<path d="M17.5117 11.3104H20.9668M17.6446 12.7104V11.9327H18.7077V12.5549H19.7708V11.9327H19.1064M18.0433 12.5549H18.3091M20.9668 12.5549H20.3024V11.9327H21.3655M21.3655 11.1549V12.5549H22.4286V11.1549M21.8971 11.1549V12.5549" stroke="white" stroke-width="0.143777"/>
<path d="M17.5121 13.3323H19.9041M20.1698 13.3323H22.5618" stroke="white" stroke-width="0.287553"/>
<path d="M17.5121 26.6656H19.9041M20.1698 26.6656H22.5618" stroke="white" stroke-width="0.287553"/>
<path d="M17.5121 27.4436H20.9672M17.6449 28.8436V28.0658H18.7081V28.6881H19.7712V28.0658H19.1067M18.0436 28.6881H18.3093M20.9672 28.6881H20.3027V28.0658H21.3658M21.3658 27.2881V28.6881H22.4289V27.2881M21.8973 27.2881V28.6881" stroke="white" stroke-width="0.143777"/>
<path d="M22.8281 11.3104H26.2833M22.961 12.7104V11.9327H24.024V12.5549H25.0872V11.9327H24.4228M23.3597 12.5549H23.6255M26.2833 12.5549H25.6188V11.9327H26.6819M26.6819 11.1549V12.5549H27.745V11.1549M27.2135 11.1549V12.5549" stroke="white" stroke-width="0.143777"/>
<path d="M22.8281 13.3323H25.2201M25.4859 13.3323H27.8779" stroke="white" stroke-width="0.287553"/>
<path d="M22.8281 26.666H25.2201M25.4859 26.666H27.8779" stroke="white" stroke-width="0.287553"/>
<path d="M22.8281 27.4437H26.2833M22.961 28.8437V28.0659H24.024V28.6881H25.0872V28.0659H24.4228M23.3597 28.6881H23.6255M26.2833 28.6881H25.6188V28.0659H26.6819M26.6819 27.2881V28.6881H27.745V27.2881M27.2135 27.2881V28.6881" stroke="white" stroke-width="0.143777"/>
<path d="M28.1389 11.3106H31.594M28.2718 12.7106V11.9327H29.3349V12.5549H30.398V11.9327H29.7336M28.6705 12.5549H28.9363M31.594 12.5549H30.9296V11.9327H31.9927M31.9927 11.1549V12.5549H33.0558V11.1549M32.5243 11.1549V12.5549" stroke="white" stroke-width="0.143777"/>
<path d="M28.1389 13.3327H30.5309M30.7968 13.3327H33.1888" stroke="white" stroke-width="0.287553"/>
<path d="M28.1389 26.6663H30.5309M30.7968 26.6663H33.1888" stroke="white" stroke-width="0.287553"/>
<path d="M28.1389 27.4439H31.594M28.2718 28.8439V28.0661H29.3349V28.6884H30.398V28.0661H29.7336M28.6705 28.6884H28.9363M31.594 28.6884H30.9296V28.0661H31.9927M31.9927 27.2884V28.6884H33.0558V27.2884M32.5243 27.2884V28.6884" stroke="white" stroke-width="0.143777"/>
<path d="M33.4531 11.3104H36.9083M33.586 12.7104V11.9327H34.6492V12.5549H35.7123V11.9327H35.0478M33.9847 12.5549H34.2505M36.9083 12.5549H36.2438V11.9327H37.3069M37.3069 11.1549V12.5549H38.37V11.1549M37.8385 11.1549V12.5549" stroke="white" stroke-width="0.143777"/>
<path d="M33.4531 13.3323H35.8452M36.1109 13.3323H38.503" stroke="white" stroke-width="0.287553"/>
<path d="M33.4531 26.666H35.8452M36.1109 26.666H38.503" stroke="white" stroke-width="0.287553"/>
<path d="M33.4531 27.4437H36.9083M33.586 28.8437V28.0659H34.6492V28.6881H35.7123V28.0659H35.0478M33.9847 28.6881H34.2505M36.9083 28.6881H36.2438V28.0659H37.3069M37.3069 27.2881V28.6881H38.37V27.2881M37.8385 27.2881V28.6881" stroke="white" stroke-width="0.143777"/>
<path d="M38.7698 11.3104H42.2249M38.9027 12.7104V11.9327H39.9658V12.5549H41.0289V11.9327H40.3644M39.3013 12.5549H39.5671M42.2249 12.5549H41.5605V11.9327H42.6236M42.6236 11.1549V12.5549H43.6867V11.1549M43.1551 11.1549V12.5549" stroke="white" stroke-width="0.143777"/>
<path d="M38.7698 13.3323H41.1618M41.4276 13.3323H43.8196" stroke="white" stroke-width="0.287553"/>
<path d="M38.7698 26.666H41.1618M41.4276 26.666H43.8196" stroke="white" stroke-width="0.287553"/>
<path d="M38.7698 27.4437H42.2249M38.9027 28.8437V28.0659H39.9658V28.6881H41.0289V28.0659H40.3644M39.3013 28.6881H39.5671M42.2249 28.6881H41.5605V28.0659H42.6236M42.6236 27.2881V28.6881H43.6867V27.2881M43.1551 27.2881V28.6881" stroke="white" stroke-width="0.143777"/>
<path fill-rule="evenodd" clip-rule="evenodd" d="M21.9003 15.335C22.5731 16.1456 24.6158 20.6443 20.6683 23.5948C18.812 24.9891 19.963 25.0538 20.0198 25.2971C23.0028 23.7083 23.9754 21.5683 23.9511 19.6392C23.9268 17.7182 22.9136 16.024 21.9084 15.335H21.9003Z" fill="#DA0000"/>
<path fill-rule="evenodd" clip-rule="evenodd" d="M22.3052 15.124C23.0315 15.5688 23.6499 16.1693 24.116 16.8821C24.5822 17.5948 24.8843 18.4022 25.0006 19.2458C25.1169 20.0895 25.0445 20.9484 24.7887 21.7608C24.5328 22.5731 24.0999 23.3185 23.5211 23.9432C25.661 23.4731 28.3846 17.1586 22.289 15.124H22.3052ZM17.774 15.124C17.0478 15.5688 16.4293 16.1693 15.9632 16.8821C15.4971 17.5948 15.195 18.4022 15.0787 19.2458C14.9624 20.0895 15.0347 20.9484 15.2906 21.7608C15.5464 22.5731 15.9794 23.3185 16.5582 23.9432C14.4101 23.4731 11.6866 17.1586 17.774 15.124Z" fill="#DA0000"/>
<path fill-rule="evenodd" clip-rule="evenodd" d="M18.1704 15.335C17.5057 16.1456 15.4549 20.6443 19.4024 23.5948C21.2587 24.9891 20.1077 25.0538 20.0509 25.2971C17.0761 23.7083 16.0952 21.5683 16.1196 19.6392C16.1439 17.7182 17.1652 16.024 18.1704 15.335Z" fill="#DA0000"/>
<path fill-rule="evenodd" clip-rule="evenodd" d="M23.8207 24.8836C22.538 24.9332 21.2614 24.6833 20.092 24.1541C20.2703 24.5026 20.4162 24.7214 20.6026 25.0781C21.6402 25.1673 23.0749 25.2888 23.8207 24.8836ZM16.3633 24.8836C17.5305 24.8998 19.0058 24.7214 20.092 24.1541C19.9136 24.5026 19.7677 24.7214 19.5813 25.0781C18.5438 25.1673 17.109 25.2888 16.3633 24.8836ZM18.5032 13.9893C18.7464 14.6134 19.3624 14.7108 20.0271 14.3378C20.5135 14.6297 21.2592 14.6458 21.5186 14.0137C21.7131 15.5699 20.0758 15.2052 20.019 14.9053C19.4111 15.4888 18.2763 15.1484 18.5032 13.9893Z" fill="#DA0000"/>
<path fill-rule="evenodd" clip-rule="evenodd" d="M20.0686 25.8643L20.6846 25.1591L20.7657 15.7239L20.0362 15.0755L19.3066 15.6915L19.4525 25.1916L20.0686 25.8643Z" fill="#DA0000"/>
</g>
</g>
</g>
<defs>
<clipPath id="clip0_16699_270463">
<rect width="40" height="40" fill="white"/>
</clipPath>
</defs>
</svg>
