<svg width="40" height="40" viewBox="0 0 40 40" fill="none" xmlns="http://www.w3.org/2000/svg">
<g clip-path="url(#clip0_16699_270540)">
<mask id="mask0_16699_270540" style="mask-type:luminance" maskUnits="userSpaceOnUse" x="0" y="0" width="40" height="40">
<path d="M40 20C40 8.95431 31.0457 0 20 0C8.95431 0 0 8.95431 0 20C0 31.0457 8.95431 40 20 40C31.0457 40 40 31.0457 40 20Z" fill="white"/>
</mask>
<g mask="url(#mask0_16699_270540)">
<mask id="mask1_16699_270540" style="mask-type:luminance" maskUnits="userSpaceOnUse" x="-7" y="0" width="54" height="40">
<path d="M-6.66669 0H46.6666V40H-6.66669V0Z" fill="white"/>
</mask>
<g mask="url(#mask1_16699_270540)">
<mask id="mask2_16699_270540" style="mask-type:luminance" maskUnits="userSpaceOnUse" x="-7" y="0" width="54" height="40">
<path d="M-6.66752 0H46.6657V40H-6.6676V0H-6.66752Z" fill="white"/>
</mask>
<g mask="url(#mask2_16699_270540)">
<path d="M-13.3341 0H53.3324V40H-13.3342L-13.3341 0Z" fill="white"/>
<path fill-rule="evenodd" clip-rule="evenodd" d="M-13.3341 0V2.56933L15.6937 20L-13.3342 37.4307V40H-8.95956L20.0004 22.5693L48.9564 40H53.3311V37.4307L24.3058 20L53.3324 2.56933V0H48.9591L19.9978 17.4307L-8.95956 0H-13.3341Z" fill="#DF112D"/>
<path d="M23.4871 5.98514C24.3439 9.45409 23.874 13.7386 20.0043 16.1157C16.1343 13.7386 15.6644 9.45409 16.5215 5.98514C17.4336 5.15573 21.5797 4.64456 23.4871 5.98514Z" fill="#E8112D" stroke="black" stroke-width="0.2035"/>
<path d="M19.9983 5.28847C21.4171 5.28847 22.7384 5.66397 23.5173 6.15072C23.6702 4.95489 24.2126 3.75872 24.8524 2.85439C24.1848 2.84081 23.8857 3.19539 23.8789 3.56381C23.7119 3.09089 23.0583 3.11856 22.8565 3.37622C23.5868 3.86972 23.0235 4.74606 22.3629 4.56531C22.0527 4.48031 21.8887 4.26397 21.8306 3.94981C21.9188 3.94422 22.0019 3.90627 22.0639 3.84319C22.1259 3.78012 22.1624 3.69639 22.1664 3.60807C22.1705 3.51973 22.1418 3.43302 22.0858 3.36457C22.0298 3.29611 21.9506 3.25073 21.8632 3.23712C21.7758 3.22352 21.6865 3.24266 21.6123 3.29086C21.5383 3.33907 21.4845 3.41294 21.4615 3.49832C21.4385 3.58369 21.4478 3.67456 21.4877 3.75348C21.5276 3.83241 21.5952 3.89383 21.6775 3.92597C21.4687 4.26689 21.0943 4.36897 20.8261 4.29406C20.4783 4.19656 20.3323 3.88356 20.3323 3.60564C20.3323 2.88231 21.0276 2.77106 21.2363 2.89622C21.2225 2.40947 20.4574 2.02014 20.221 2.42331C20.4851 1.95039 20.4713 1.28306 19.9983 0.837891C19.5258 1.28306 19.5116 1.95039 19.776 2.42331C19.5396 2.02014 18.7745 2.40947 18.7607 2.89622C18.9692 2.77106 19.6648 2.88239 19.6648 3.60564C19.6648 3.88356 19.5187 4.19664 19.1709 4.29406C18.9027 4.36906 18.5283 4.26689 18.3193 3.92597C18.3779 3.90379 18.4296 3.8665 18.4691 3.81789C18.507 3.77127 18.5326 3.71589 18.5435 3.65682C18.5543 3.59776 18.5503 3.53689 18.5315 3.47982C18.5128 3.42275 18.4801 3.3713 18.4363 3.33017C18.3925 3.28906 18.3391 3.25959 18.2809 3.24447C18.2325 3.23165 18.1819 3.22912 18.1325 3.23702C18.083 3.24492 18.0358 3.26309 17.9937 3.29036C17.9517 3.31763 17.9158 3.35339 17.8884 3.39536C17.8611 3.43732 17.8428 3.48454 17.8348 3.534C17.8267 3.58345 17.8291 3.63404 17.8418 3.6825C17.8545 3.73097 17.8772 3.77624 17.9084 3.81541C17.9397 3.85457 17.9788 3.88677 18.0233 3.90991C18.0677 3.93306 18.1164 3.94665 18.1664 3.94981C18.1083 4.26397 17.9441 4.48031 17.634 4.56531C16.9735 4.74614 16.4103 3.86972 17.1403 3.37614C16.9388 3.11881 16.2851 3.09114 16.1181 3.56381C16.111 3.19547 15.8122 2.84056 15.1446 2.85439C15.7842 3.75847 16.3266 4.95456 16.4798 6.15072C17.2586 5.66397 18.5799 5.28847 19.9983 5.28847Z" fill="#F9DD16" stroke="black" stroke-width="0.2035"/>
<path d="M22.9414 8.69099C22.8559 8.71132 22.8559 8.82157 22.8111 8.82157C23.0335 8.81532 23.1415 8.75424 23.2088 8.64207C23.16 8.68691 23.2025 8.77241 23.1863 8.79307C23.3495 8.73607 23.4271 8.59707 23.37 8.50341C23.4067 8.55632 23.5129 8.58482 23.5455 8.58891C23.4311 8.49932 23.5129 8.29518 23.3291 8.18901C23.3905 8.18493 23.5088 8.25418 23.5414 8.33591C23.5129 8.15235 23.4841 8.03401 23.3331 7.93193C23.3495 7.95043 23.4352 7.96668 23.4719 7.93193C23.3741 7.87085 23.3454 7.76901 23.3538 7.7036C23.3652 7.61218 23.3046 7.59343 23.1904 7.62218C23.0875 7.64768 22.8518 7.66293 22.7131 7.66293C22.4275 7.66293 22.1785 7.66293 21.9418 7.49943C22.297 7.64635 22.7498 7.33635 22.7498 7.07926C22.7498 6.7936 22.3987 6.56093 21.6888 6.71593C20.9789 6.87126 20.114 6.80585 20.114 6.56943C20.114 6.33268 20.734 6.29976 21.0525 6.34893C21.3706 6.39785 21.599 6.43043 22.1949 6.21835C22.048 6.27535 21.5745 6.29168 21.1993 6.18585C20.8239 6.0796 19.9016 6.0796 19.8935 6.57726C19.8854 7.07518 20.8755 7.02976 21.7298 6.90385C22.2275 6.83051 22.4886 6.87943 22.4886 7.04226C22.4886 7.1976 22.0317 7.26276 21.6806 7.22201C21.3299 7.18126 20.9707 7.18951 20.5545 7.3116C20.207 7.41393 19.967 7.3116 19.5835 7.37701C19.3975 7.40885 18.9469 7.37701 18.7245 7.01001C18.5877 7.10776 18.1755 7.31293 18.1064 7.51276C18.0084 7.69626 18.0738 7.87901 18.2041 8.05843C18.3686 8.2846 18.1226 8.25035 17.9473 8.25851C17.7067 8.26968 17.3848 8.23301 17.2167 8.04218C17.068 7.87335 16.8698 7.73785 16.7115 7.86301C16.63 7.9276 16.7082 8.01226 16.7725 7.98868C16.8364 7.9651 16.9119 8.01226 16.98 8.04218C16.8711 7.99551 16.7514 8.03185 16.7047 8.07335C16.6404 8.13118 16.7185 8.24143 16.7965 8.20235C16.8575 8.17193 16.983 8.15151 17.0644 8.22626C16.9762 8.2091 16.8845 8.21268 16.8405 8.26018C16.7965 8.30768 16.8304 8.37632 16.9255 8.37199C17.078 8.36524 17.1171 8.47241 17.27 8.45016C17.176 8.46241 17.1228 8.51149 17.0984 8.54791C17.2411 8.48274 17.3989 8.65891 17.584 8.61741C17.5118 8.64724 17.3954 8.71816 17.3965 8.77266C17.5064 8.64616 18.245 8.87041 18.2614 8.59299C18.2817 8.64999 18.2776 8.73574 18.2206 8.80932C18.3151 8.75232 18.6205 8.73174 18.7142 8.51149C18.7224 8.57666 18.7101 8.66249 18.6531 8.68257C18.7511 8.71491 18.88 8.64182 19.012 8.44641C19.0644 8.36849 19.0769 8.31693 19.068 8.25851C19.1988 8.26343 19.2935 8.2306 19.3956 8.14426C19.5018 8.05468 19.616 8.2176 19.7955 8.10351C19.9752 7.98926 20.1302 8.08726 20.228 8.03018C20.326 7.97293 20.4606 8.05035 20.5668 7.98518C20.673 7.92001 20.8375 8.01718 21.0131 7.87851C21.2895 7.97943 21.612 8.16701 22.403 8.02185C22.8565 7.93851 22.9987 8.09135 22.9987 8.29926C22.9987 8.44199 22.9151 8.45449 22.8518 8.45832C22.5996 8.47382 22.4913 8.36416 22.3917 8.39916C22.3249 8.42299 22.2841 8.53166 22.3808 8.56882C22.301 8.60957 22.3113 8.68607 22.352 8.71407C22.3928 8.74199 22.4978 8.71674 22.5692 8.68341C22.4775 8.72491 22.3825 8.79957 22.4367 8.87774C22.4695 8.92499 22.5526 8.96516 22.6303 8.86416C22.7082 8.76241 22.8507 8.67741 22.9414 8.69099ZM17.9163 6.53651C17.6877 6.4426 17.6106 6.44018 17.6633 6.6261C17.6859 6.70593 17.7407 6.8181 17.7958 6.8691C17.798 6.79176 17.8265 6.57718 17.9163 6.53651Z" fill="#F9DD16" stroke="black" stroke-width="0.2035"/>
<path d="M18.6302 6.53652C18.8588 6.44261 18.9359 6.44019 18.8832 6.62611C18.8607 6.70594 18.8056 6.81802 18.7504 6.86911C18.7485 6.79177 18.72 6.57719 18.6302 6.53652Z" fill="#F9DD16" stroke="black" stroke-width="0.2035"/>
<path d="M18.2744 6.41104C18.7069 6.41104 18.7609 6.61412 18.7588 6.86712C18.7569 7.14046 18.61 7.04629 18.5264 7.39729C18.4939 7.53471 18.3844 7.54229 18.2744 7.54229C18.1643 7.54229 18.0551 7.53471 18.0223 7.39729C17.9389 7.04654 17.7918 7.14054 17.7899 6.86712C17.7877 6.61412 17.8417 6.41104 18.2744 6.41104Z" fill="#F9DD16" stroke="black" stroke-width="0.2035"/>
<path d="M17.1616 7.41366C17.0513 7.3485 16.9802 7.39366 16.9354 7.40583C17.0783 7.4425 17.0839 7.62566 17.4105 7.7115C17.3369 7.69116 17.2963 7.73183 17.2268 7.69525C17.3613 7.80108 17.5123 7.92408 17.8308 7.92783C18.0083 7.92975 17.8856 8.02183 17.7694 7.96858C17.8899 8.09316 18.1286 7.99108 18.2795 8.2175C18.308 8.04216 17.998 7.76475 18.1408 7.56458C17.7004 7.54591 17.6643 7.30183 17.4105 7.10775C17.2039 6.94975 17.1854 6.78925 17.0943 6.48875C17.0527 6.35275 16.8933 6.26775 16.8051 6.30008C16.728 6.32833 16.6998 6.39508 16.766 6.44533C16.8323 6.49533 16.9169 6.502 16.9352 6.62883C16.8491 6.52566 16.7202 6.4885 16.6583 6.55283C16.6205 6.59216 16.6357 6.68366 16.7168 6.69208C16.8491 6.70566 16.7541 6.83458 16.9045 6.96083C16.7712 6.811 16.6558 6.7975 16.5844 6.87883C16.5418 6.92775 16.5844 7.01466 16.6762 7.00508C16.8089 6.9915 16.9628 7.32816 17.1616 7.41366ZM20.7098 8.67441C20.6403 8.68666 20.6609 8.80091 20.567 8.80908C20.7915 8.80908 20.9055 8.75616 21.0117 8.67033C20.9628 8.69883 20.9425 8.77241 20.9384 8.81316C21.0568 8.71108 21.3383 8.70291 21.4852 8.73175C21.632 8.7605 21.6564 8.691 21.7094 8.59708C21.7626 8.50316 21.689 8.44991 21.6158 8.37658C21.5422 8.30325 21.5258 8.20125 21.5422 8.02966C21.1504 7.50758 20.4487 7.76033 20.4405 7.98891C20.6935 8.28266 20.7261 8.25008 20.9384 8.29083C21.1504 8.33158 21.2804 8.33158 21.1382 8.44991C21.0893 8.49066 20.8852 8.47166 20.7261 8.47866C20.3702 8.49416 20.2073 8.23275 20.1023 8.3685C20.0157 8.48008 20.1049 8.5295 20.2814 8.52325C20.1593 8.52433 19.9972 8.51783 20.0248 8.63158C20.0716 8.82316 20.2548 8.596 20.3262 8.675C20.2651 8.66033 20.1701 8.69775 20.1666 8.75533C20.1633 8.81316 20.3023 8.88783 20.4552 8.76616C20.5285 8.70991 20.6175 8.67783 20.7098 8.67441Z" fill="#F9DD16" stroke="black" stroke-width="0.2035"/>
<path d="M21.0137 7.87817C20.8864 7.8315 20.7697 7.803 20.6203 7.834L21.0137 7.87817ZM19.0944 7.81767C18.9896 8.043 19.0531 8.154 19.0686 8.2585L19.0944 7.81767ZM17.9786 6.7505C18.0505 6.78658 18.091 6.68475 18.1966 6.79283C18.1676 6.76133 18.1314 6.87642 18.0505 6.79992M18.565 6.7505C18.4931 6.78658 18.4526 6.68475 18.347 6.79283C18.3761 6.76133 18.4122 6.87642 18.4931 6.79992" fill="black"/>
<path d="M21.0137 7.87817C20.8864 7.8315 20.7697 7.803 20.6203 7.834M19.0944 7.81767C18.9896 8.043 19.0531 8.154 19.0686 8.2585M17.9786 6.7505C18.0505 6.78658 18.091 6.68475 18.1966 6.79283C18.1676 6.76133 18.1314 6.87642 18.0505 6.79992M18.565 6.7505C18.4931 6.78658 18.4526 6.68475 18.347 6.79283C18.3761 6.76133 18.4122 6.87642 18.4931 6.79992" stroke="black" stroke-width="0.2035"/>
<path d="M18.348 6.79248C18.3232 6.8129 18.3208 6.77623 18.3395 6.87265C18.3743 7.04931 18.4153 7.13215 18.2722 7.13215C18.1261 7.13215 18.1704 7.0494 18.2049 6.87265C18.2239 6.77623 18.2214 6.8129 18.1967 6.79256" fill="black"/>
<path d="M18.348 6.79248C18.3232 6.8129 18.3208 6.77623 18.3395 6.87265C18.3743 7.04931 18.4153 7.13215 18.2722 7.13215C18.1261 7.13215 18.1704 7.0494 18.2049 6.87265C18.2239 6.77623 18.2214 6.8129 18.1967 6.79256" stroke="black" stroke-width="0.2035"/>
<path d="M18.2746 7.47092C18.3908 7.47092 18.4582 7.46909 18.4399 7.30559C18.4323 7.24017 18.5195 7.21417 18.4888 7.10776C18.5214 7.23826 18.2746 7.22584 18.2746 7.16659C18.2746 7.22576 18.0278 7.23826 18.0604 7.10776C18.0297 7.21409 18.1166 7.24026 18.1092 7.30592C18.0911 7.46876 18.1584 7.47092 18.2746 7.47092Z" fill="#FF0016" stroke="black" stroke-width="0.1025"/>
<path d="M18.1687 7.1406L17.8896 7.06268M18.1687 7.15518L17.857 7.15252M18.1714 7.17127L17.9056 7.24243M18.3777 7.1406L18.6568 7.06268M18.3777 7.15518L18.6893 7.15252M18.375 7.17127L18.6407 7.24243" stroke="black" stroke-width="0.1025"/>
<path d="M16.8276 6.30587C16.7464 6.20479 16.5431 6.29004 16.539 6.41546C16.6078 6.33404 16.7198 6.45129 16.7809 6.42662C16.8233 6.40954 16.8605 6.34687 16.8276 6.30587ZM16.7245 6.54504C16.6433 6.44396 16.4403 6.52921 16.4362 6.65471C16.5046 6.57321 16.6167 6.69054 16.678 6.66579C16.7204 6.64896 16.7576 6.58629 16.7245 6.54504ZM16.6702 6.86637C16.5782 6.77521 16.3859 6.88271 16.396 7.00762C16.4552 6.91929 16.5795 7.02304 16.6376 6.99179C16.6778 6.97012 16.7077 6.90354 16.6702 6.86637ZM16.7679 7.86246C16.6658 7.78246 16.4875 7.91137 16.5116 8.03462C16.5603 7.93987 16.6957 8.02862 16.7498 7.99087C16.7872 7.96454 16.8094 7.89496 16.7679 7.86246ZM16.7625 8.08046C16.6408 8.03571 16.5105 8.21346 16.5716 8.32296C16.5884 8.21787 16.7448 8.26046 16.7848 8.20804C16.8124 8.17171 16.8119 8.09854 16.7625 8.08046ZM16.9173 8.24337C16.7956 8.19854 16.6653 8.37633 16.7261 8.48575C16.7432 8.38067 16.8996 8.42333 16.9395 8.37091C16.9672 8.33458 16.9666 8.26154 16.9173 8.24337ZM20.1044 8.55908C19.9828 8.51425 19.8524 8.69208 19.9135 8.8015C19.9307 8.69641 20.0868 8.73908 20.1267 8.68666C20.1543 8.65025 20.1538 8.57725 20.1044 8.55908ZM20.27 8.70675C20.144 8.67608 20.0349 8.86742 20.1079 8.9695C20.1128 8.86308 20.273 8.88783 20.3067 8.83108C20.33 8.79175 20.3213 8.71925 20.27 8.70675ZM20.1533 8.3495C20.0408 8.28462 19.8823 8.43766 19.9238 8.55583C19.9586 8.45533 20.1052 8.524 20.1535 8.479C20.1869 8.44775 20.1988 8.37583 20.1533 8.3495ZM22.4201 8.60492C22.2942 8.57425 22.185 8.76567 22.258 8.86775C22.2632 8.76133 22.4233 8.786 22.4568 8.72925C22.4801 8.68991 22.4714 8.61742 22.4201 8.60492ZM22.4255 8.40483C22.3113 8.34375 22.1582 8.50233 22.2035 8.61933C22.2347 8.5175 22.3838 8.58108 22.4304 8.53433C22.4628 8.50175 22.4723 8.42983 22.4255 8.40483ZM22.5124 8.78383C22.3853 8.75858 22.2847 8.95483 22.362 9.05342C22.3626 8.947 22.5236 8.96466 22.5545 8.90625C22.5763 8.86583 22.5643 8.79416 22.5124 8.78383ZM18.2828 7.37304C18.3626 7.37304 18.3949 7.39637 18.3949 7.54054C18.3949 7.84587 18.3913 7.97729 18.2931 7.97729C18.1945 7.97729 18.2013 7.85246 18.2013 7.62812C18.2013 7.51146 18.2013 7.45279 18.1777 7.46262C18.1777 7.38596 18.2117 7.37304 18.2828 7.37304Z" fill="#0051BA" stroke="black" stroke-width="0.021"/>
<path d="M22.5437 11.5361C22.4668 11.5544 22.4668 11.6536 22.4264 11.6536C22.6265 11.648 22.7238 11.5931 22.7844 11.4921C22.7404 11.5324 22.7788 11.6094 22.7641 11.628C22.9109 11.5766 22.9809 11.4516 22.9295 11.3672C22.9625 11.4149 23.058 11.4406 23.0874 11.4442C22.9845 11.3636 23.058 11.1799 22.8926 11.0843C22.9479 11.0806 23.0544 11.143 23.0837 11.2165C23.058 11.0513 23.0321 10.9448 22.8963 10.853C22.9109 10.8696 22.9882 10.8842 23.0211 10.853C22.9332 10.798 22.9073 10.7063 22.9149 10.6475C22.9251 10.5651 22.8706 10.5482 22.7678 10.5741C22.6752 10.5971 22.4631 10.6108 22.3383 10.6108C22.0812 10.6108 21.8571 10.6108 21.6441 10.4637C21.9637 10.5959 22.3712 10.3169 22.3712 10.0855C22.3712 9.82848 22.0553 9.61906 21.4164 9.75856C20.7774 9.89831 19.999 9.83948 19.999 9.62665C19.999 9.41356 20.557 9.38398 20.8437 9.42823C21.13 9.47223 21.3355 9.50156 21.8718 9.31073C21.7396 9.36206 21.3135 9.37673 20.9759 9.2814C20.6379 9.1859 19.8079 9.1859 19.8006 9.63373C19.7933 10.0818 20.6844 10.0411 21.4533 9.92765C21.9011 9.86173 22.1362 9.90565 22.1362 10.0522C22.1362 10.1921 21.7249 10.2506 21.409 10.214C21.0934 10.1774 20.7701 10.1847 20.3955 10.2946C20.0828 10.3867 19.8668 10.2946 19.5216 10.3536C19.3542 10.3821 18.9486 10.3536 18.7485 10.0232C18.6254 10.1111 18.2544 10.2959 18.1922 10.4757C18.1039 10.6409 18.1629 10.8053 18.2801 10.9668C18.4282 11.1703 18.2069 11.1396 18.049 11.1469C17.8325 11.1569 17.5427 11.1239 17.3915 10.9521C17.2576 10.8001 17.0792 10.6782 16.9368 10.7909C16.8635 10.8491 16.9339 10.9252 16.9918 10.904C17.0492 10.8827 17.1171 10.9252 17.1784 10.9521C17.0804 10.9101 16.9727 10.9429 16.9307 10.9802C16.8728 11.0323 16.9431 11.1315 17.0133 11.0963C17.0683 11.0689 17.1811 11.0506 17.2544 11.1178C17.175 11.1024 17.0924 11.1056 17.0529 11.1483C17.0133 11.1911 17.0438 11.2529 17.1294 11.249C17.2666 11.2429 17.3019 11.3394 17.4394 11.3194C17.3549 11.3304 17.3069 11.3746 17.2849 11.4073C17.4134 11.3487 17.5554 11.5072 17.7221 11.4699C17.6571 11.4967 17.5523 11.5606 17.5533 11.6096C17.6522 11.4958 18.317 11.6976 18.3317 11.4479C18.35 11.4992 18.3464 11.5764 18.295 11.6426C18.38 11.5913 18.6549 11.5727 18.7392 11.3746C18.7465 11.4332 18.7355 11.5105 18.6843 11.5285C18.7724 11.5576 18.8885 11.4919 19.0073 11.316C19.0544 11.2458 19.0657 11.1994 19.0576 11.1469C19.1754 11.1513 19.2606 11.1217 19.3525 11.044C19.448 10.9634 19.5509 11.11 19.7124 11.0074C19.8741 10.9045 20.0137 10.9927 20.1016 10.9414C20.1899 10.8898 20.311 10.9595 20.4065 10.9008C20.5021 10.8422 20.6501 10.9296 20.8082 10.8048C21.0569 10.8957 21.3472 11.0646 22.0592 10.9338C22.4673 10.8588 22.5953 10.9964 22.5953 11.1836C22.5953 11.3121 22.52 11.3233 22.4631 11.3267C22.2361 11.3406 22.1386 11.2419 22.0489 11.2735C21.9889 11.295 21.9522 11.3926 22.0392 11.4261C21.9674 11.4628 21.9766 11.5317 22.0133 11.5569C22.0499 11.5821 22.1444 11.5593 22.2088 11.5292C22.1262 11.5666 22.0406 11.6338 22.0895 11.7042C22.1191 11.7467 22.1939 11.7829 22.2637 11.692C22.3339 11.6004 22.4621 11.5239 22.5437 11.5361ZM18.0211 9.59707C17.8154 9.51257 17.746 9.51032 17.7934 9.67773C17.8137 9.74957 17.863 9.85048 17.9126 9.8964C17.9146 9.82673 17.9403 9.63373 18.0211 9.59707Z" fill="#F9DD16" stroke="black" stroke-width="0.183"/>
<path d="M18.6637 9.59709C18.8694 9.51259 18.9389 9.51034 18.8914 9.67775C18.8712 9.74959 18.8215 9.8505 18.7719 9.89642C18.7703 9.82675 18.7446 9.63375 18.6637 9.59709Z" fill="#F9DD16" stroke="black" stroke-width="0.183"/>
<path d="M18.3434 9.48425C18.7327 9.48425 18.7813 9.667 18.7793 9.89467C18.7777 10.1408 18.6454 10.0559 18.5702 10.3718C18.5408 10.4955 18.4424 10.5023 18.3434 10.5023C18.2443 10.5023 18.146 10.4955 18.1165 10.3718C18.0414 10.0562 17.909 10.1408 17.9073 9.89467C17.9053 9.667 17.954 9.48425 18.3434 9.48425Z" fill="#F9DD16" stroke="black" stroke-width="0.183"/>
<path d="M17.3418 10.3865C17.2426 10.3279 17.1786 10.3684 17.1383 10.3794C17.2668 10.4124 17.2719 10.5773 17.5658 10.6546C17.4996 10.6363 17.4629 10.6728 17.4004 10.6399C17.5216 10.7352 17.6574 10.8458 17.944 10.8493C18.1038 10.851 17.9934 10.9338 17.8888 10.8859C17.9973 10.9981 18.2121 10.9063 18.3479 11.11C18.3736 10.9522 18.0946 10.7024 18.2231 10.5223C17.8268 10.5055 17.7943 10.2858 17.5658 10.1112C17.3799 9.96892 17.3633 9.82459 17.2812 9.55409C17.2438 9.43167 17.1003 9.35517 17.0209 9.38426C16.9516 9.40967 16.9262 9.46976 16.9858 9.51501C17.0454 9.55992 17.1216 9.56609 17.138 9.68017C17.0605 9.58734 16.9445 9.55384 16.8888 9.61176C16.8548 9.64717 16.8685 9.72951 16.9416 9.73709C17.0605 9.74934 16.975 9.86534 17.1104 9.97901C16.9904 9.84409 16.8866 9.83192 16.8223 9.90517C16.7839 9.94917 16.8223 10.0273 16.9049 10.0188C17.0243 10.0066 17.1629 10.3096 17.3418 10.3865ZM20.5352 11.5212C20.4727 11.5322 20.4912 11.6351 20.4067 11.6424C20.6088 11.6424 20.7113 11.5948 20.8069 11.5175C20.7629 11.5432 20.7446 11.6094 20.7409 11.6461C20.8474 11.5542 21.1008 11.5468 21.233 11.5728C21.3652 11.5987 21.3872 11.5361 21.4348 11.4516C21.4827 11.367 21.4165 11.3192 21.3505 11.2532C21.2843 11.1872 21.2697 11.0953 21.2843 10.9409C20.9318 10.4711 20.3002 10.6985 20.2928 10.9043C20.5205 11.1686 20.5498 11.1393 20.7409 11.1759C20.9318 11.2126 21.0488 11.2126 20.9208 11.3192C20.8768 11.3558 20.693 11.3387 20.5498 11.345C20.2295 11.3589 20.0829 11.1237 19.9883 11.2458C19.9104 11.3463 19.9908 11.3908 20.1496 11.3851C20.0397 11.3861 19.8938 11.3803 19.9188 11.4826C19.9608 11.6551 20.1257 11.4506 20.1899 11.5217C20.135 11.5085 20.0494 11.5422 20.0463 11.594C20.0433 11.6461 20.1684 11.7133 20.306 11.6038C20.372 11.5532 20.4521 11.5243 20.5352 11.5212Z" fill="#F9DD16" stroke="black" stroke-width="0.183"/>
<path d="M20.8089 10.8046C20.6944 10.7626 20.5893 10.7369 20.4549 10.7647L20.8089 10.8046ZM19.0815 10.7501C18.9872 10.9529 19.0444 11.0528 19.0583 11.1469L19.0815 10.7501ZM18.0773 9.78966C18.142 9.82216 18.1784 9.73049 18.2735 9.82774C18.2474 9.79941 18.2149 9.90299 18.142 9.83408M18.605 9.78966C18.5403 9.82216 18.5039 9.73049 18.4089 9.82774C18.435 9.79941 18.4675 9.90299 18.5403 9.83408" fill="black"/>
<path d="M20.8089 10.8046C20.6944 10.7626 20.5893 10.7369 20.4549 10.7647M19.0815 10.7501C18.9872 10.9529 19.0444 11.0528 19.0583 11.1469M18.0773 9.78966C18.142 9.82216 18.1784 9.73049 18.2735 9.82774C18.2474 9.79941 18.2149 9.90299 18.142 9.83408M18.605 9.78966C18.5403 9.82216 18.5039 9.73049 18.4089 9.82774C18.435 9.79941 18.4675 9.90299 18.5403 9.83408" stroke="black" stroke-width="0.183"/>
<path d="M18.4096 9.82751C18.3874 9.84585 18.3852 9.81285 18.402 9.8996C18.4333 10.0587 18.4702 10.1332 18.3415 10.1332C18.21 10.1332 18.2498 10.0587 18.2809 9.8996C18.298 9.81285 18.2958 9.84585 18.2735 9.82751" fill="black"/>
<path d="M18.4096 9.82751C18.3874 9.84585 18.3852 9.81285 18.402 9.8996C18.4333 10.0587 18.4702 10.1332 18.3415 10.1332C18.21 10.1332 18.2498 10.0587 18.2809 9.8996C18.298 9.81285 18.2958 9.84585 18.2735 9.82751" stroke="black" stroke-width="0.183"/>
<path d="M18.3434 10.4381C18.448 10.4381 18.5086 10.4363 18.4923 10.2893C18.4854 10.2304 18.5639 10.2069 18.5363 10.1112C18.5655 10.2287 18.3434 10.2174 18.3434 10.1642C18.3434 10.2174 18.1214 10.2287 18.1507 10.1112C18.1231 10.2069 18.2013 10.2304 18.1947 10.2895C18.1783 10.4362 18.2389 10.4381 18.3434 10.4381Z" fill="#FF0016" stroke="black" stroke-width="0.0925"/>
<path d="M18.2483 10.1408L17.9972 10.0706M18.2483 10.1539L17.9678 10.1515M18.2508 10.1683L18.0116 10.2323M18.4364 10.1408L18.6876 10.0706M18.4364 10.1539L18.7169 10.1515M18.434 10.1683L18.6732 10.2323" stroke="black" stroke-width="0.0925"/>
<path d="M17.0412 9.38941C16.9682 9.29849 16.7852 9.37524 16.7815 9.48808C16.8433 9.41483 16.9442 9.52033 16.9992 9.49816C17.0373 9.48274 17.0707 9.42633 17.0412 9.38941ZM16.9483 9.60466C16.8753 9.51374 16.6926 9.59049 16.6889 9.70333C16.7505 9.63008 16.8513 9.73566 16.9066 9.71341C16.9447 9.69824 16.9782 9.64183 16.9483 9.60466ZM16.8995 9.89391C16.8167 9.81183 16.6437 9.90858 16.6527 10.021C16.706 9.94158 16.8179 10.0349 16.8702 10.0068C16.9063 9.98724 16.9332 9.92741 16.8995 9.89391ZM16.9875 10.7904C16.8956 10.7183 16.7351 10.8344 16.7568 10.9453C16.8006 10.8601 16.9225 10.9399 16.9711 10.906C17.0048 10.8822 17.0248 10.8197 16.9875 10.7904ZM16.9826 10.9866C16.8731 10.9462 16.7558 11.1063 16.8108 11.2048C16.8259 11.1102 16.9667 11.1486 17.0026 11.1014C17.0275 11.0687 17.0271 11.003 16.9826 10.9866ZM17.1218 11.1332C17.0124 11.0929 16.8951 11.2529 16.9498 11.3514C16.9652 11.2568 17.106 11.2952 17.1419 11.248C17.1668 11.2153 17.1663 11.1496 17.1218 11.1332ZM19.9903 11.4173C19.8808 11.3771 19.7636 11.5371 19.8185 11.6356C19.8339 11.541 19.9744 11.5793 20.0103 11.5322C20.0352 11.4994 20.0347 11.4337 19.9903 11.4173ZM20.1393 11.5502C20.026 11.5227 19.9277 11.6949 19.9935 11.7868C19.9978 11.691 20.142 11.7132 20.1723 11.6622C20.1933 11.6267 20.1855 11.5615 20.1393 11.5502ZM20.0342 11.2287C19.9332 11.1703 19.7904 11.3082 19.8278 11.4144C19.8591 11.324 19.991 11.3858 20.0345 11.3452C20.0646 11.3172 20.0753 11.2524 20.0342 11.2287ZM22.0744 11.4587C21.9611 11.4311 21.8628 11.6033 21.9286 11.6952C21.9332 11.5994 22.0774 11.6216 22.1074 11.5706C22.1284 11.5352 22.1207 11.4699 22.0744 11.4587ZM22.0793 11.2786C21.9765 11.2236 21.8387 11.3663 21.8795 11.4716C21.9076 11.38 22.0417 11.4372 22.0837 11.3952C22.1128 11.3658 22.1213 11.3011 22.0793 11.2786ZM22.1575 11.6197C22.0432 11.5969 21.9525 11.7736 22.0222 11.8623C22.0227 11.7665 22.1676 11.7824 22.1954 11.7298C22.2149 11.6935 22.2042 11.6289 22.1575 11.6197ZM18.3508 10.3499C18.4227 10.3499 18.4517 10.3709 18.4517 10.5007C18.4517 10.7755 18.4486 10.8937 18.3601 10.8937C18.2714 10.8937 18.2775 10.7813 18.2775 10.5796C18.2775 10.4745 18.2775 10.4217 18.2562 10.4305C18.2562 10.3616 18.2868 10.3499 18.3508 10.3499Z" fill="#0051BA" stroke="black" stroke-width="0.019"/>
<path d="M21.8787 13.9712C21.8214 13.9866 21.8214 14.0692 21.7914 14.0692C21.9404 14.0645 22.0128 14.0187 22.0579 13.9347C22.0251 13.9682 22.0537 14.0323 22.0428 14.0478C22.1521 14.0051 22.2041 13.9008 22.1659 13.8306C22.1905 13.8702 22.2616 13.8917 22.2834 13.8947C22.2069 13.8275 22.2616 13.6744 22.1385 13.5948C22.1795 13.5917 22.2589 13.6437 22.2807 13.7049C22.2616 13.5673 22.2423 13.4786 22.1412 13.402C22.1521 13.4158 22.2095 13.4281 22.2341 13.402C22.2072 13.3827 22.1858 13.3568 22.1719 13.3268C22.158 13.2968 22.1521 13.2637 22.155 13.2307C22.1626 13.1622 22.122 13.1481 22.0455 13.1697C21.9765 13.1888 21.8187 13.2002 21.7257 13.2002C21.5344 13.2002 21.3676 13.2002 21.209 13.0777C21.4469 13.1877 21.7503 12.9552 21.7503 12.7624C21.7503 12.5482 21.5151 12.3737 21.0395 12.49C20.5638 12.6065 19.9843 12.5574 19.9843 12.3801C19.9843 12.2025 20.3997 12.1779 20.6131 12.2147C20.8263 12.2514 20.9793 12.2758 21.3785 12.1168C21.2801 12.1596 20.9629 12.1717 20.7115 12.0923C20.46 12.0127 19.842 12.0127 19.8366 12.386C19.8311 12.7594 20.4945 12.7254 21.067 12.6309C21.4003 12.5759 21.5753 12.6126 21.5753 12.7347C21.5753 12.8512 21.2692 12.9001 21.034 12.8696C20.799 12.839 20.5584 12.8451 20.2795 12.9367C20.0467 13.0135 19.8859 12.9367 19.6289 12.9858C19.5043 13.0097 19.2024 12.9858 19.0534 12.7105C18.9617 12.7838 18.6856 12.9377 18.6392 13.0876C18.5735 13.2252 18.6174 13.3622 18.7047 13.4968C18.815 13.6665 18.6501 13.6408 18.5326 13.6469C18.3715 13.6552 18.1557 13.6277 18.0431 13.4847C17.9435 13.358 17.8107 13.2564 17.7046 13.3502C17.6501 13.3987 17.7025 13.4622 17.7455 13.4445C17.7883 13.4268 17.8389 13.4622 17.8845 13.4847C17.8116 13.4497 17.7314 13.4769 17.7001 13.5081C17.657 13.5514 17.7094 13.6341 17.7616 13.6047C17.8025 13.582 17.8865 13.5667 17.9411 13.6227C17.882 13.6098 17.8205 13.6125 17.791 13.6482C17.7616 13.6837 17.7843 13.7353 17.848 13.732C17.9502 13.7269 17.9764 13.8073 18.0788 13.7907C18.0159 13.7998 17.9802 13.8367 17.9639 13.864C18.0595 13.8151 18.1652 13.9472 18.2893 13.9161C18.2409 13.9385 18.1629 13.9917 18.1635 14.0326C18.2372 13.9377 18.7321 14.1058 18.743 13.8977C18.7567 13.9405 18.754 14.0049 18.7158 14.0601C18.7791 14.0173 18.9837 14.0018 19.0465 13.8367C19.052 13.8856 19.0437 13.9499 19.0055 13.965C19.0712 13.9892 19.1576 13.9344 19.246 13.7878C19.2811 13.7294 19.2895 13.6907 19.2835 13.6469C19.3711 13.6506 19.4346 13.6259 19.503 13.5612C19.5741 13.494 19.6507 13.6162 19.771 13.5307C19.8914 13.4449 19.9952 13.5184 20.0607 13.4757C20.1264 13.4327 20.2165 13.4907 20.2877 13.4419C20.3588 13.393 20.469 13.4659 20.5867 13.3618C20.7719 13.4376 20.988 13.5783 21.518 13.4694C21.8218 13.4068 21.917 13.5215 21.917 13.6775C21.917 13.7846 21.861 13.7939 21.8187 13.7967C21.6497 13.8084 21.5771 13.7262 21.5104 13.7524C21.4656 13.7703 21.4384 13.8517 21.5031 13.8797C21.4496 13.9102 21.4565 13.9676 21.4838 13.9886C21.5111 14.0096 21.5815 13.9906 21.6293 13.9656C21.5679 13.9967 21.5042 14.0527 21.5405 14.1113C21.5625 14.1467 21.6182 14.1769 21.6703 14.1012C21.7225 14.0248 21.818 13.9611 21.8787 13.9712ZM18.5119 12.3554C18.3587 12.285 18.307 12.2832 18.3424 12.4226C18.3575 12.4825 18.3942 12.5666 18.4311 12.6048C18.4326 12.5468 18.4517 12.386 18.5119 12.3554Z" fill="#F9DD16" stroke="black" stroke-width="0.1445"/>
<path d="M18.9902 12.3554C19.1433 12.285 19.195 12.2832 19.1597 12.4226C19.1446 12.4825 19.1077 12.5666 19.0708 12.6048C19.0694 12.5468 19.0503 12.386 18.9902 12.3554Z" fill="#F9DD16" stroke="black" stroke-width="0.1445"/>
<path d="M18.7518 12.2614C19.0416 12.2614 19.0777 12.4137 19.0763 12.6034C19.0751 12.8084 18.9767 12.7379 18.9207 13.0011C18.8988 13.1041 18.8255 13.1099 18.7518 13.1099C18.678 13.1099 18.6048 13.1041 18.5828 13.0011C18.527 12.738 18.4284 12.8084 18.4272 12.6034C18.4257 12.4137 18.4619 12.2614 18.7518 12.2614Z" fill="#F9DD16" stroke="black" stroke-width="0.1445"/>
<path d="M18.0061 13.0133C17.9322 12.9644 17.8846 12.9983 17.8546 13.0074C17.9502 13.0348 17.9541 13.1723 18.1729 13.2367C18.1236 13.2213 18.0963 13.2519 18.0497 13.2244C18.14 13.3038 18.2411 13.3961 18.4545 13.3989C18.5734 13.4003 18.4912 13.4693 18.4133 13.4295C18.4941 13.5229 18.654 13.4463 18.7552 13.6162C18.7742 13.4847 18.5665 13.2766 18.6622 13.1265C18.3672 13.1124 18.343 12.9294 18.1729 12.7838C18.0345 12.6653 18.0221 12.545 17.961 12.3196C17.9332 12.2176 17.8264 12.1538 17.7672 12.1781C17.7156 12.1993 17.6967 12.2493 17.7411 12.287C17.7855 12.3245 17.8422 12.3296 17.8544 12.4247C17.7967 12.3473 17.7103 12.3194 17.6688 12.3677C17.6436 12.3972 17.6537 12.4658 17.7082 12.4721C17.7967 12.4823 17.7331 12.579 17.8338 12.6737C17.7445 12.5613 17.6672 12.5511 17.6194 12.6122C17.5908 12.6488 17.6194 12.714 17.6809 12.7068C17.7698 12.6967 17.8729 12.9492 18.0061 13.0133ZM20.3834 13.9588C20.3368 13.968 20.3507 14.0538 20.2877 14.0598C20.4382 14.0598 20.5146 14.0202 20.5857 13.9558C20.5529 13.9772 20.5393 14.0323 20.5366 14.0629C20.6159 13.9863 20.8045 13.9803 20.9029 14.0018C21.0013 14.0234 21.0177 13.9713 21.0532 13.9008C21.0888 13.8303 21.0395 13.7905 20.9904 13.7355C20.9411 13.6805 20.9302 13.6039 20.9411 13.4753C20.6787 13.0838 20.2084 13.2733 20.203 13.4448C20.3725 13.665 20.3943 13.6406 20.5366 13.6712C20.6787 13.7017 20.7657 13.7017 20.6704 13.7905C20.6377 13.821 20.5009 13.8068 20.3943 13.8121C20.1558 13.8237 20.0467 13.6276 19.9763 13.7294C19.9183 13.8131 19.9782 13.8501 20.0964 13.8454C20.0146 13.8463 19.9059 13.8413 19.9245 13.9267C19.9558 14.0704 20.0786 13.9 20.1264 13.9593C20.0855 13.9483 20.0218 13.9763 20.0194 14.0195C20.0172 14.0629 20.1104 14.1189 20.2128 14.0277C20.2603 13.9862 20.3204 13.9619 20.3834 13.9588Z" fill="#F9DD16" stroke="black" stroke-width="0.1445"/>
<path d="M20.5873 13.3617C20.502 13.3267 20.4237 13.3052 20.3237 13.3285L20.5873 13.3617ZM19.3013 13.3162C19.231 13.4852 19.2736 13.5685 19.284 13.6469L19.3013 13.3162ZM18.5537 12.5158C18.6019 12.5429 18.629 12.4666 18.6998 12.5477C18.6803 12.524 18.6561 12.6103 18.6019 12.5529M18.9466 12.5158C18.8984 12.5429 18.8713 12.4666 18.8005 12.5477C18.82 12.524 18.8442 12.6103 18.8984 12.5529" fill="black"/>
<path d="M20.5873 13.3617C20.502 13.3267 20.4237 13.3052 20.3237 13.3285M19.3013 13.3162C19.231 13.4852 19.2736 13.5685 19.284 13.6469M18.5537 12.5158C18.6019 12.5429 18.629 12.4666 18.6998 12.5477C18.6803 12.524 18.6561 12.6103 18.6019 12.5529M18.9466 12.5158C18.8984 12.5429 18.8713 12.4666 18.8005 12.5477C18.82 12.524 18.8442 12.6103 18.8984 12.5529" stroke="black" stroke-width="0.1445"/>
<path d="M18.8009 12.5474C18.7843 12.5628 18.7827 12.5353 18.7952 12.6075C18.8185 12.7401 18.846 12.8022 18.7502 12.8022C18.6522 12.8022 18.6819 12.7401 18.705 12.6075C18.7177 12.5353 18.7162 12.5628 18.6996 12.5474" fill="black"/>
<path d="M18.8009 12.5474C18.7843 12.5628 18.7827 12.5353 18.7952 12.6075C18.8185 12.7401 18.846 12.8022 18.7502 12.8022C18.6522 12.8022 18.6819 12.7401 18.705 12.6075C18.7177 12.5353 18.7162 12.5628 18.6996 12.5474" stroke="black" stroke-width="0.1445"/>
<path d="M18.7519 13.0563C18.8297 13.0563 18.8749 13.0548 18.8626 12.9323C18.8575 12.8832 18.9159 12.8637 18.8954 12.7838C18.9172 12.8818 18.7519 12.8724 18.7519 12.828C18.7519 12.8724 18.5865 12.8818 18.6084 12.7838C18.5878 12.8637 18.646 12.8832 18.6411 12.9324C18.6289 13.0546 18.674 13.0563 18.7519 13.0563Z" fill="#FF0016" stroke="black" stroke-width="0.0725"/>
<path d="M18.681 12.8085L18.494 12.75M18.681 12.8195L18.4723 12.8174M18.6829 12.8315L18.5048 12.8848M18.8211 12.8085L19.0081 12.75M18.8211 12.8195L19.03 12.8174M18.8193 12.8315L18.9974 12.8848" stroke="black" stroke-width="0.0725"/>
<path d="M17.7824 12.1823C17.728 12.1066 17.5918 12.1706 17.589 12.2646C17.6351 12.2035 17.7102 12.2915 17.7511 12.273C17.7795 12.2602 17.8044 12.2131 17.7824 12.1823ZM17.7133 12.3617C17.6589 12.286 17.5228 12.3499 17.5201 12.444C17.5659 12.3829 17.6411 12.4709 17.6822 12.4523C17.7105 12.4397 17.7354 12.3927 17.7133 12.3617ZM17.6769 12.6028C17.6153 12.5344 17.4864 12.615 17.4932 12.7087C17.5328 12.6425 17.6162 12.7203 17.6551 12.6969C17.682 12.6806 17.702 12.6307 17.6769 12.6028ZM17.7423 13.3498C17.674 13.2898 17.5545 13.3865 17.5707 13.4789C17.6033 13.4079 17.694 13.4745 17.7302 13.4462C17.7553 13.4264 17.7702 13.3743 17.7423 13.3498ZM17.7388 13.5133C17.6573 13.4797 17.5699 13.6132 17.6108 13.6952C17.6222 13.6164 17.7269 13.6483 17.7537 13.6091C17.7722 13.5817 17.7718 13.527 17.7388 13.5133ZM17.8424 13.6355C17.7609 13.6019 17.6736 13.7353 17.7143 13.8173C17.7258 13.7386 17.8306 13.7705 17.8573 13.7312C17.8758 13.7039 17.8755 13.6492 17.8424 13.6355ZM19.9778 13.8723C19.8963 13.8387 19.809 13.9721 19.8499 14.0542C19.8614 13.9753 19.966 14.0073 19.9928 13.968C20.0113 13.9407 20.0109 13.886 19.9778 13.8723ZM20.0888 13.9831C20.0043 13.9601 19.9313 14.1037 19.9802 14.1802C19.9834 14.1003 20.0908 14.1189 20.1133 14.0763C20.129 14.0468 20.1232 13.9924 20.0888 13.9831ZM20.0106 13.7152C19.9353 13.6665 19.829 13.7813 19.8568 13.8699C19.8802 13.7946 19.9783 13.8461 20.0108 13.8122C20.0331 13.7888 20.0411 13.7349 20.0106 13.7152ZM21.5293 13.9067C21.4449 13.8837 21.3718 14.0272 21.4208 14.1038C21.4243 14.024 21.5315 14.0426 21.5539 14C21.5696 13.9705 21.5638 13.9161 21.5293 13.9067ZM21.533 13.7567C21.4564 13.7108 21.3538 13.8297 21.3842 13.9175C21.4051 13.8412 21.505 13.8888 21.5363 13.8538C21.5579 13.8293 21.5643 13.7754 21.533 13.7567ZM21.5912 14.0409C21.5061 14.022 21.4386 14.1692 21.4904 14.2431C21.4908 14.1632 21.5987 14.1765 21.6194 14.1327C21.6339 14.1024 21.6259 14.0487 21.5912 14.0409ZM18.7573 12.9827C18.8108 12.9827 18.8324 13.0002 18.8324 13.1084C18.8324 13.3374 18.8301 13.436 18.7643 13.436C18.6982 13.436 18.7028 13.3423 18.7028 13.1742C18.7028 13.0866 18.7028 13.0426 18.6869 13.0499C18.6869 12.9925 18.7097 12.9827 18.7573 12.9827Z" fill="#0051BA" stroke="black" stroke-width="0.015"/>
</g>
</g>
</g>
</g>
<defs>
<clipPath id="clip0_16699_270540">
<rect width="40" height="40" fill="white"/>
</clipPath>
</defs>
</svg>
