<svg width="40" height="40" viewBox="0 0 40 40" fill="none" xmlns="http://www.w3.org/2000/svg">
<g clip-path="url(#clip0_16699_270608)">
<mask id="mask0_16699_270608" style="mask-type:luminance" maskUnits="userSpaceOnUse" x="0" y="0" width="40" height="40">
<path d="M40 0H0V40H40V0Z" fill="white"/>
</mask>
<g mask="url(#mask0_16699_270608)">
<mask id="mask1_16699_270608" style="mask-type:luminance" maskUnits="userSpaceOnUse" x="0" y="0" width="40" height="40">
<path d="M40 20C40 8.95433 31.0457 0 20 0C8.95433 0 0 8.95433 0 20C0 31.0457 8.95433 40 20 40C31.0457 40 40 31.0457 40 20Z" fill="white"/>
</mask>
<g mask="url(#mask1_16699_270608)">
<path d="M0 0H60V40H0V0Z" fill="white"/>
<path d="M0 0H60V13.3333H0V0Z" fill="black"/>
<path d="M0 26.6667H60V40.0001H0V26.6667Z" fill="#007A3D"/>
<path d="M40 20L0 40V0M12.3571 17.1429L11.7381 18.7143L10.127 18.2222L10.9683 19.6825L9.57142 20.6349L11.246 20.8889L11.119 22.5714L12.3571 21.4286L13.6032 22.5714L13.4762 20.8889L15.1429 20.6349L13.754 19.6825L14.5952 18.2222L12.9841 18.7143L12.3571 17.1429Z" fill="#CE1126"/>
</g>
</g>
</g>
<defs>
<clipPath id="clip0_16699_270608">
<rect width="40" height="40" fill="white"/>
</clipPath>
</defs>
</svg>
