<svg width="40" height="40" viewBox="0 0 40 40" fill="none" xmlns="http://www.w3.org/2000/svg">
<g clip-path="url(#clip0_16699_270632)">
<mask id="mask0_16699_270632" style="mask-type:luminance" maskUnits="userSpaceOnUse" x="0" y="0" width="40" height="40">
<path d="M40 0H0V40H40V0Z" fill="white"/>
</mask>
<g mask="url(#mask0_16699_270632)">
<mask id="mask1_16699_270632" style="mask-type:luminance" maskUnits="userSpaceOnUse" x="0" y="0" width="40" height="40">
<path d="M40 20C40 8.95433 31.0457 0 20 0C8.95433 0 0 8.95433 0 20C0 31.0457 8.95433 40 20 40C31.0457 40 40 31.0457 40 20Z" fill="white"/>
</mask>
<g mask="url(#mask1_16699_270632)">
<path d="M50 0H-10V40H50V0Z" fill="white"/>
<path d="M50 0H-10V12H50V0Z" fill="black"/>
<path d="M50 14H-10V26H50V14Z" fill="#BB0000"/>
<path d="M50 28H-10V40H50V28Z" fill="#006600"/>
<path d="M12.8555 31.875L13.2885 32.125L24.9666 11.8978C25.6496 11.7147 26.0246 11.0652 26.3996 10.4157C26.6496 9.98267 27.6496 8.25064 28.0831 6C26.3506 7.50064 25.3506 9.23267 25.1006 9.66575C24.7256 10.3152 24.3506 10.9647 24.5336 11.6478L12.8555 31.875Z" fill="black"/>
<path d="M12.8555 31.875L13.2885 32.125L24.9666 11.8978C25.6496 11.7147 26.0246 11.0652 26.3996 10.4157C26.6496 9.98267 27.6496 8.25064 28.0831 6C26.3506 7.50064 25.3506 9.23267 25.1006 9.66575C24.7256 10.3152 24.3506 10.9647 24.5336 11.6478L12.8555 31.875Z" fill="white"/>
<path d="M27.1444 31.875L26.7114 32.125L15.0332 11.8978C14.3502 11.7147 13.9752 11.0652 13.6002 10.4157C13.3502 9.98267 12.3502 8.25064 11.9168 6C13.6492 7.50064 14.6492 9.23267 14.8992 9.66575C15.2742 10.3152 15.6492 10.9647 15.4662 11.6478L27.1444 31.875Z" fill="black"/>
<path d="M27.1444 31.875L26.7114 32.125L15.0332 11.8978C14.3502 11.7147 13.9752 11.0652 13.6002 10.4157C13.3502 9.98267 12.3502 8.25064 11.9168 6C13.6492 7.50064 14.6492 9.23267 14.8992 9.66575C15.2742 10.3152 15.6492 10.9647 15.4662 11.6478L27.1444 31.875Z" fill="white"/>
<path d="M15.25 26C16 28 18.5 32 20 32C21.5 32 24 28 24.75 26V14C24 12 21.5 8 20 8C18.5 8 16 12 15.25 14V26Z" fill="#BB0000"/>
<path d="M24.75 26C25.5 24 26 22 26 20C26 18 25.5 16 24.75 14C24 16 23.5 18 23.5 20C23.5 22 24 24 24.75 26Z" fill="black"/>
<path d="M15.25 26C14.5 24 14 22 14 20C14 18 14.5 16 15.25 14C16 16 16.5 18 16.5 20C16.5 22 16 24 15.25 26Z" fill="black"/>
<path d="M20.0002 21.5C20.5525 21.5 21.0002 20.8284 21.0002 20C21.0002 19.1716 20.5525 18.5 20.0002 18.5C19.4478 18.5 19.0002 19.1716 19.0002 20C19.0002 20.8284 19.4478 21.5 20.0002 21.5Z" fill="white"/>
<path d="M20.2502 21.4625C20.2502 21.4625 21.2502 23.4625 21.2502 26.7125C21.2502 29.9625 20.2502 31.9625 20.2502 31.9625V21.4625Z" fill="white"/>
<path d="M19.7498 18.5375C19.7498 18.5375 18.7498 16.5375 18.7498 13.2875C18.7498 10.0375 19.7498 8.03748 19.7498 8.03748V18.5375Z" fill="white"/>
<path d="M19.7498 21.4625C19.7498 21.4625 18.7498 23.4625 18.7498 26.7125C18.7498 29.9625 19.7498 31.9625 19.7498 31.9625V21.4625Z" fill="white"/>
<path d="M20.2502 18.5375C20.2502 18.5375 21.2502 16.5375 21.2502 13.2875C21.2502 10.0375 20.2502 8.03748 20.2502 8.03748V18.5375Z" fill="white"/>
</g>
</g>
</g>
<defs>
<clipPath id="clip0_16699_270632">
<rect width="40" height="40" fill="white"/>
</clipPath>
</defs>
</svg>
