<svg width="40" height="40" viewBox="0 0 40 40" fill="none" xmlns="http://www.w3.org/2000/svg">
<g clip-path="url(#clip0_16699_270668)">
<mask id="mask0_16699_270668" style="mask-type:luminance" maskUnits="userSpaceOnUse" x="0" y="0" width="40" height="40">
<path d="M40 0H0V40H40V0Z" fill="white"/>
</mask>
<g mask="url(#mask0_16699_270668)">
<mask id="mask1_16699_270668" style="mask-type:luminance" maskUnits="userSpaceOnUse" x="0" y="0" width="40" height="40">
<path d="M40 20C40 8.95433 31.0457 0 20 0C8.95433 0 0 8.95433 0 20C0 31.0457 8.95433 40 20 40C31.0457 40 40 31.0457 40 20Z" fill="white"/>
</mask>
<g mask="url(#mask1_16699_270668)">
<path d="M-10 0H50V40H-10V0Z" fill="#032EA1"/>
<path d="M-10 9.99982H49.9783V29.9998H-10V9.99982Z" fill="#E00025"/>
<path d="M14.3885 18.8178H25.7685V23.1967H14.3885V18.8178Z" fill="white" stroke="black" stroke-width="0.048" stroke-linejoin="bevel"/>
<path d="M25.1815 21.2359H25.5401V22.8854H25.1815V21.2359ZM14.3885 20.4209H25.7685V20.9299H14.3885V20.4209ZM14.3885 19.7309H25.7685V20.1799H14.3885V19.7309Z" fill="white" stroke="black" stroke-width="0.048" stroke-linejoin="bevel"/>
<path d="M14.3885 19.0422H25.7685V19.4776H14.3885V19.0422Z" fill="white" stroke="black" stroke-width="0.04725" stroke-linejoin="bevel"/>
<path d="M17.3845 21.2358H17.7431V22.8853H17.3845V21.2358ZM22.2835 21.2358H22.6421V22.8853H22.2835V21.2358ZM14.4785 21.2358H14.8371V22.8853H14.4785V21.2358ZM15.1815 21.2358H15.5401V22.8853H15.1815V21.2358ZM15.9315 21.2358H16.2901V22.8853H15.9315V21.2358ZM16.6815 21.2358H17.0401V22.8853H16.6815V21.2358ZM22.9635 21.2358H23.3221V22.8853H22.9635V21.2358ZM23.7135 21.2358H24.0721V22.8853H23.7135V21.2358ZM24.4635 21.2358H24.8221V22.8853H24.4635V21.2358Z" fill="white" stroke="black" stroke-width="0.048" stroke-linejoin="bevel"/>
<path d="M9.9375 23.4268C10.1135 23.3372 10.3142 23.1284 10.3799 22.8948H29.6869C29.7526 23.1284 29.9534 23.3372 30.1294 23.4268H9.9375Z" fill="white" stroke="black" stroke-width="0.048"/>
<path d="M19.7854 12.152C19.7854 12.152 19.7711 11.7408 20.0104 11.7363C20.2501 11.7407 20.2354 12.152 20.2354 12.152H19.7854ZM18.5364 17.606V17.0524C18.5284 16.7757 18.2604 16.7557 18.2527 16.5538C18.2527 16.5538 18.2181 16.2512 18.2978 16.113C18.4062 16.5177 18.6033 16.4434 18.6033 16.277C18.6033 16.1317 18.4917 15.9967 18.2627 15.644C18.1894 15.5312 18.2347 15.178 18.3373 15.0517C18.3771 15.3587 18.4226 15.5057 18.5543 15.5057C18.6348 15.5057 18.7006 15.4533 18.7006 15.2995C18.7006 15.1038 18.5681 15.005 18.5028 14.827C18.4268 14.6192 18.4792 14.4074 18.6054 14.289C18.6597 14.592 18.6434 14.7127 18.7782 14.7127C19.0494 14.6269 18.7782 14.2342 18.7202 14.135C18.6536 14.0195 18.8098 13.789 18.8098 13.789C18.8962 14.058 18.9238 14.08 19.0168 14.055C19.1342 14.0235 19.1192 13.8494 18.9758 13.7087C18.8854 13.6197 18.8951 13.4875 18.9922 13.3813C19.0897 13.5718 19.2144 13.5603 19.2264 13.4472L19.1481 13.0079H20.8736L20.7879 13.4329C20.7633 13.5544 20.9274 13.5809 21.0294 13.3814C21.1267 13.4877 21.1363 13.6199 21.0458 13.7088C20.9027 13.8495 20.8874 14.0237 21.0048 14.0552C21.0978 14.0802 21.1257 14.0582 21.2118 13.7892C21.2118 13.7892 21.3521 13.9462 21.3014 14.1352C21.2434 14.2342 20.9722 14.6272 21.2434 14.7128C21.3781 14.7128 21.3621 14.592 21.4162 14.2892C21.5424 14.4075 21.5947 14.6193 21.5187 14.8272C21.4537 15.0052 21.3211 15.1039 21.3211 15.2997C21.3211 15.4534 21.3868 15.5058 21.4672 15.5058C21.5992 15.5058 21.6447 15.3588 21.6844 15.0518C21.7869 15.1782 21.8322 15.5313 21.7589 15.644C21.5299 15.9967 21.4183 16.1317 21.4183 16.277C21.4183 16.4434 21.6153 16.5177 21.7238 16.113C21.8036 16.251 21.7688 16.5538 21.7688 16.5538C21.7611 16.7557 21.4931 16.7757 21.4851 17.0524V17.606H18.5364ZM19.2584 13.004L19.2187 12.6915H20.8026L20.7628 13.004H19.2584ZM19.3643 12.685L19.3304 12.428H20.6907L20.6567 12.685H19.3643ZM19.5804 12.419L19.5577 12.162H20.4636L20.4408 12.419H19.5804ZM22.8824 23.427C22.6797 23.349 22.3847 23.135 22.3847 22.92V20.4903L22.6486 20.1545H17.3711L17.6241 20.4905V22.9202C17.6241 23.1352 17.4213 23.3492 17.2188 23.4272L22.8824 23.427Z" fill="white" stroke="black" stroke-width="0.048"/>
<path d="M18.3104 21.236H18.669V22.8855H18.3104V21.236ZM21.3424 21.236H21.701V22.8855H21.3424V21.236Z" fill="white" stroke="black" stroke-width="0.048" stroke-linejoin="bevel"/>
<path d="M17.2773 17.3892V20.1548H22.6797V19.5592L22.6874 17.3892C22.4667 17.476 22.4278 17.6762 22.4278 17.6762V18.854H17.5528V17.6762C17.5528 17.6762 17.4983 17.4761 17.2773 17.3892Z" fill="white" stroke="black" stroke-width="0.048"/>
<path d="M21.9466 23.4272C21.77 23.3492 21.3854 23.1352 21.3854 22.9202V20.2012C21.4232 20.0494 21.629 19.9598 21.7614 19.8654H18.1792C18.3497 19.9556 18.5398 20.0306 18.6077 20.2014V22.9204C18.6077 23.1354 18.3037 23.3494 18.1271 23.4274L21.9466 23.4272Z" fill="white" stroke="black" stroke-width="0.048"/>
<path d="M22.4285 19.894V17.9353H21.9375V17.7443H18.0535V17.9353H17.5625V19.894H22.4285ZM21.1735 23.427C21.0005 23.349 20.7485 23.135 20.7485 22.92V20.5986L20.8907 20.3876H19.1217L19.2637 20.5986V22.9201C19.2637 23.1353 19.0117 23.3491 18.8387 23.4271L21.1735 23.427Z" fill="white" stroke="black" stroke-width="0.048"/>
<path d="M19.5586 20.3882H20.4552V23.4259H19.5586V20.3882Z" fill="white" stroke="black" stroke-width="0.04905"/>
<path d="M20.9249 19.7198C20.9269 19.5198 21.5086 19.5108 21.8081 19.3403H18.2129C18.5122 19.5107 19.0804 19.5247 19.0804 19.7198L19.2021 20.108L20.6904 20.1678L20.9249 19.7198Z" fill="white" stroke="black" stroke-width="0.048" stroke-linejoin="bevel"/>
<path d="M21.628 17.6062C21.628 17.1162 21.6485 16.9277 21.799 16.9277V18.4857C21.43 18.6197 21.1665 19.0907 21.1665 19.0907H18.8455C18.8455 19.0907 18.582 18.6197 18.2129 18.4857V16.9277C18.3984 16.9277 18.3996 17.1248 18.3996 17.6062H21.628ZM21.799 17.4052C21.799 16.8435 22.284 16.7802 22.284 16.7802V17.2802C22.0995 17.2722 22.0104 17.4381 22.0104 17.6847C22.0104 17.9312 22.1591 17.9352 22.1591 17.9352V19.3542H21.7991L21.799 17.4052Z" fill="white" stroke="black" stroke-width="0.048"/>
<path d="M18.2155 17.4052C18.2155 16.8435 17.7305 16.7802 17.7305 16.7802V17.2802C17.915 17.2722 18.0041 17.4381 18.0041 17.6847C18.0041 17.9312 17.8553 17.9352 17.8553 17.9352V19.3542H18.2153L18.2155 17.4052Z" fill="white" stroke="black" stroke-width="0.048"/>
<path d="M19.1705 13.5342H20.8832M18.9674 14.0692H21.0595M18.7645 14.7182H21.2548M18.5525 15.5112H21.506M18.4844 16.4152H21.527" stroke="black" stroke-width="0.04"/>
<path d="M17.5625 19.3641H22.4285M19.1065 19.3651H20.9101V20.0281H19.1065V19.3651Z" stroke="black" stroke-width="0.048"/>
<path d="M18.8809 17.8962C19.1799 18.2552 19.1522 18.8642 19.1489 19.2232H20.8831C20.8796 18.8642 20.8519 18.2552 21.1509 17.8962H18.8809ZM19.8559 13.7832L19.6183 13.6608V13.3109C19.7153 13.3399 19.8245 13.3521 19.8351 13.5068C19.8689 13.2858 19.9299 13.2966 20.0258 13.2104C20.1215 13.2964 20.1825 13.2858 20.2163 13.5068C20.227 13.3521 20.336 13.3402 20.4333 13.3108V13.6607L20.1955 13.7831L19.8559 13.7832Z" fill="white" stroke="black" stroke-width="0.048"/>
<path d="M19.838 14.3572L19.4434 14.0859V13.7636C19.5817 13.7956 19.737 13.8086 19.7522 13.9786C19.8004 13.7362 19.8872 13.611 20.0237 13.5166C20.1602 13.611 20.247 13.7362 20.2952 13.9786C20.3104 13.8086 20.4657 13.7956 20.6042 13.7636V14.0859L20.2094 14.3572H19.838Z" fill="white" stroke="black" stroke-width="0.048"/>
<path d="M19.812 15.2519L19.3582 14.8534V14.3797C19.5172 14.4267 19.6959 14.4459 19.7134 14.6954C19.7687 14.3394 19.8686 14.1554 20.0254 14.0166C20.1824 14.1554 20.2824 14.3392 20.3377 14.6952C20.3552 14.4459 20.5337 14.4266 20.6927 14.3795V14.853L20.2391 15.2515L19.812 15.2519ZM20.649 15.7809L20.2386 16.3484H19.774L19.3636 15.7809H20.649ZM19.127 16.7339C19.3323 16.846 19.408 17.0695 19.43 17.4891H20.585C20.607 17.0695 20.6827 16.8461 20.888 16.7339H19.127Z" fill="white" stroke="black" stroke-width="0.048"/>
<path d="M20.9037 15.7811V15.2109C20.7087 15.2646 20.5823 15.3799 20.5261 15.5367C20.5261 15.3474 20.2771 14.911 20.0053 14.6937C19.733 14.9369 19.4797 15.3317 19.4847 15.5367C19.4385 15.3875 19.3022 15.2647 19.1072 15.2109V15.7811H20.9037Z" fill="white" stroke="black" stroke-width="0.048" stroke-linejoin="bevel"/>
<path d="M20.9909 16.7339V16.1637C20.7771 16.2174 20.6387 16.3327 20.5769 16.4895C20.5769 16.3002 20.3039 15.8637 20.0062 15.6465C19.7076 15.8897 19.4299 16.2845 19.4355 16.4895C19.3847 16.3403 19.2352 16.2175 19.0215 16.1637V16.7339H20.9909Z" fill="white" stroke="black" stroke-width="0.048" stroke-linejoin="bevel"/>
<path d="M21.2313 17.904V17.2463C20.9653 17.315 20.8001 17.5116 20.7163 17.6262C20.7163 17.2702 20.3143 16.7272 20.0063 16.5495C19.6903 16.732 19.2962 17.293 19.2962 17.6262C19.2102 17.5122 19.0473 17.315 18.7812 17.2463V17.904H21.2313Z" fill="white" stroke="black" stroke-width="0.048" stroke-linejoin="bevel"/>
<path d="M21.0859 19.3638V18.6876C20.8513 18.7796 20.7811 19.0056 20.7073 19.1593C20.7363 18.4733 20.3211 17.7363 20.0049 17.5493C19.6886 17.7363 19.2656 18.4893 19.3025 19.1593C19.2267 19.0066 19.1586 18.7796 18.924 18.6876V19.3638H21.0859Z" fill="white" stroke="black" stroke-width="0.048" stroke-linejoin="bevel"/>
<path d="M20.9228 20.3878V19.7117C20.6769 19.7702 20.6618 19.8607 20.5836 20.0122C20.6126 19.6025 20.3226 19.1352 20.0063 18.9482C19.6899 19.1352 19.3998 19.6027 19.4288 20.0122C19.3508 19.8607 19.3412 19.7702 19.0898 19.7117V20.3878H20.9228Z" fill="white" stroke="black" stroke-width="0.048"/>
<path d="M10.3799 22.895V20.851C10.3129 20.5907 10.0919 20.3605 9.92578 20.3143V18.515L10.2999 18.7173L10.727 20.5983V22.895H10.3799Z" fill="white" stroke="black" stroke-width="0.048"/>
<path d="M10.3799 22.9028V20.8508C10.3129 20.5906 10.0919 20.3603 9.92578 20.3143V18.39C10.1769 18.39 10.2999 18.7173 10.2999 18.7173L10.727 20.5983V22.887L10.3799 22.9028Z" fill="white" stroke="black" stroke-width="0.048"/>
<path d="M10.1133 23.4267C10.2863 23.3487 10.5383 23.1347 10.5383 22.9197V20.3649L10.4196 20.1542H14.7719L14.6021 20.3649V22.9197C14.6021 23.1347 14.7751 23.3487 14.9481 23.4267H10.1133Z" fill="white" stroke="black" stroke-width="0.048"/>
<path d="M14.0692 23.427C13.8962 23.349 13.6442 23.135 13.6442 22.92V20.4903L14.0062 20.1543L11.0475 20.1545L11.4095 20.4903V22.92C11.4095 23.135 11.1574 23.349 10.9844 23.427H14.0692Z" fill="white" stroke="black" stroke-width="0.048"/>
<path d="M13.656 23.4268C13.483 23.3488 13.231 23.1348 13.231 22.9198V20.7233L13.468 20.3873H11.5883L11.8253 20.7233V22.9198C11.8253 23.1348 11.5733 23.3488 11.4003 23.4268H13.656Z" fill="white" stroke="black" stroke-width="0.048"/>
<path d="M12.0781 20.3877H12.9763V23.427H12.0781V20.3877Z" fill="white" stroke="black" stroke-width="0.048"/>
<path d="M10.8568 21.2357H11.2154V22.8852H10.8568V21.2357ZM13.9318 21.2357H14.2904V22.8852H13.9318V21.2357ZM10.5508 18.4537H10.9828V20.1447H10.5508V18.4537ZM10.5508 18.1357H10.9803V18.4497H10.5508V18.1357Z" fill="white" stroke="black" stroke-width="0.048" stroke-linejoin="bevel"/>
<path d="M14.1016 18.8174H14.7176V20.1227H14.1016V18.8174Z" fill="white" stroke="black" stroke-width="0.0517" stroke-linejoin="bevel"/>
<path d="M10.9753 20.1317V17.2377C11.0985 17.2377 11.1175 17.6617 11.4003 17.6617C11.5473 17.6617 11.5317 17.4862 11.4491 17.3431C11.3759 17.2162 11.2854 17.0412 11.4084 16.7151C11.4928 16.9647 11.7197 17.0439 11.6778 16.8874C11.6058 16.6186 11.3983 16.5744 11.5538 16.1572C11.608 16.5052 11.8312 16.4899 11.777 16.2876C11.716 16.0596 11.5897 15.9662 11.7454 15.6447C11.8327 16.0097 11.9506 15.9882 11.9506 15.7617C11.9506 15.4272 11.9378 15.0662 12.3709 14.9322C12.3709 14.9322 12.3959 14.6255 12.5521 14.6255C12.7083 14.6255 12.7334 14.9322 12.7334 14.9322C13.1664 15.0662 13.1536 15.4272 13.1536 15.7619C13.1536 15.9884 13.2716 16.0099 13.3588 15.6449C13.5146 15.9662 13.3883 16.0597 13.3273 16.2877C13.2729 16.49 13.4963 16.5054 13.5503 16.1572C13.7059 16.5745 13.4985 16.6187 13.4263 16.8875C13.3845 17.044 13.6113 16.9647 13.6957 16.7152C13.8187 17.0412 13.7282 17.2162 13.655 17.3432C13.5724 17.4862 13.5567 17.662 13.704 17.662C13.9866 17.662 14.0056 17.238 14.1288 17.238V20.132L10.9753 20.1317ZM10.2987 17.9457V20.1537H10.5497V17.9402C10.4593 17.8945 10.3743 17.8875 10.2987 17.9457Z" fill="white" stroke="black" stroke-width="0.048"/>
<path d="M10.3066 19.3748C10.6178 19.5338 10.9261 19.7181 11.0041 20.1541H10.3066V19.3748ZM14.6233 18.7138V20.1545H14.8268V18.7102C14.7633 18.6804 14.6765 18.6757 14.6233 18.7138Z" fill="white" stroke="black" stroke-width="0.048"/>
<path d="M14.8264 19.3643C14.5152 19.5233 14.2069 19.7076 14.1289 20.1436H14.8264V19.3643Z" fill="white" stroke="black" stroke-width="0.048"/>
<path d="M12.7691 15.9987L12.9505 15.8462V15.6508C12.8841 15.6573 12.8478 15.6802 12.7988 15.7445C12.7572 15.615 12.6655 15.514 12.5427 15.4512C12.4197 15.514 12.3281 15.6105 12.2863 15.7398C12.2373 15.6756 12.2012 15.6573 12.1348 15.6508V15.8462L12.3163 15.9987H12.7691Z" fill="white" stroke="black" stroke-width="0.048"/>
<path d="M12.8662 16.488L12.9505 16.3055V16.0515C12.8841 16.0583 12.8478 16.0813 12.7988 16.1465C12.7572 16.0153 12.6655 15.9128 12.5427 15.8491C12.4197 15.9128 12.3281 16.0108 12.2863 16.1419C12.2373 16.0769 12.2012 16.0583 12.1348 16.0518V16.3058L12.2192 16.4881L12.8662 16.488Z" fill="white" stroke="black" stroke-width="0.048"/>
<path d="M12.8794 17.1508L13.1489 16.8221V16.4978C13.0503 16.5088 12.9965 16.5481 12.9237 16.6584C12.8617 16.4362 12.7257 16.3876 12.5431 16.2798C12.3606 16.3876 12.2244 16.4283 12.1625 16.6505C12.0897 16.5402 12.0359 16.5089 11.9375 16.4978V16.8221L12.2068 17.1508H12.8794Z" fill="white" stroke="black" stroke-width="0.048"/>
<path d="M12.958 17.8015C12.958 17.8015 13.272 17.5275 13.2908 17.3771V17.0304C13.169 17.0446 13.0539 17.0762 12.964 17.2186C12.8875 16.9316 12.768 16.8516 12.5428 16.7124C12.3175 16.8516 12.1981 16.9316 12.1216 17.2186C12.0316 17.0761 11.9166 17.0446 11.7949 17.0303V17.3769C11.8345 17.5273 12.1275 17.8013 12.1275 17.8013L12.958 17.8015Z" fill="white" stroke="black" stroke-width="0.048"/>
<path d="M13.0909 19.0038C13.0909 19.0038 13.5209 18.5278 13.5309 18.3422V17.8016C13.3699 17.8238 13.2177 17.9346 13.0989 18.1566C12.9977 17.7092 12.8399 17.3972 12.5419 17.1802C12.2439 17.3972 12.0859 17.7092 11.9849 18.1567C11.8659 17.9345 11.7137 17.8237 11.5527 17.8015V18.3421C11.5835 18.5276 11.9927 19.0037 11.9927 19.0037L13.0909 19.0038Z" fill="white" stroke="black" stroke-width="0.048"/>
<path d="M13.0909 19.7146C13.0909 19.7146 13.4585 19.3404 13.5309 19.178V18.6374C13.3699 18.6597 13.2177 18.7704 13.0989 18.9924C12.9977 18.545 12.8399 18.2887 12.5419 18.0717C12.2439 18.2887 12.0859 18.545 11.9849 18.9925C11.8659 18.7702 11.7137 18.6595 11.5527 18.6372V19.1779C11.646 19.3402 11.9927 19.7145 11.9927 19.7145L13.0909 19.7146Z" fill="white" stroke="black" stroke-width="0.048"/>
<path d="M13.2392 20.1274C13.1319 19.6606 13.0396 19.3144 12.5229 18.9634C12.0062 19.3144 11.9139 19.6606 11.8066 20.1274H13.2392Z" fill="white" stroke="black" stroke-width="0.048"/>
<path d="M13.5054 20.3879V19.7117C13.2708 19.8037 13.0587 19.9397 12.9804 20.0912C12.8932 19.7158 12.7248 19.5504 12.5152 19.3232C12.3055 19.5504 12.1652 19.7158 12.0777 20.0912C11.9995 19.9397 11.7875 19.8037 11.5527 19.7117V20.3879H13.5054Z" fill="white" stroke="black" stroke-width="0.048"/>
<path d="M29.667 22.8945V20.8505C29.734 20.5902 29.955 20.36 30.121 20.3139V18.5145L29.747 18.7169L29.3198 20.5979V22.8945H29.667Z" fill="white" stroke="black" stroke-width="0.048"/>
<path d="M29.667 22.9028V20.8508C29.734 20.5906 29.955 20.3603 30.121 20.3143V18.39C29.87 18.39 29.747 18.7173 29.747 18.7173L29.3198 20.5983V22.887L29.667 22.9028Z" fill="white" stroke="black" stroke-width="0.048"/>
<path d="M29.9336 23.4267C29.7606 23.3487 29.5086 23.1347 29.5086 22.9197V20.3649L29.6274 20.1542H25.275L25.4449 20.3649V22.9197C25.4449 23.1347 25.2719 23.3487 25.0989 23.4267H29.9336Z" fill="white" stroke="black" stroke-width="0.048"/>
<path d="M25.9777 23.427C26.1507 23.349 26.4027 23.135 26.4027 22.92V20.4903L26.0407 20.1543L28.9995 20.1545L28.6375 20.4903V22.92C28.6375 23.135 28.8895 23.349 29.0625 23.427H25.9777Z" fill="white" stroke="black" stroke-width="0.048"/>
<path d="M26.3907 23.4268C26.5637 23.3488 26.8157 23.1348 26.8157 22.9198V20.7233L26.5787 20.3873H28.4586L28.2216 20.7233V22.9198C28.2216 23.1348 28.4736 23.3488 28.6466 23.4268H26.3907Z" fill="white" stroke="black" stroke-width="0.048"/>
<path d="M27.9687 20.3877H27.0705V23.427H27.9687V20.3877Z" fill="white" stroke="black" stroke-width="0.048"/>
<path d="M29.1901 21.2357H28.8315V22.8852H29.1901V21.2357ZM26.1151 21.2357H25.7565V22.8852H26.1151V21.2357ZM29.4961 18.4537H29.0641V20.1447H29.4961V18.4537ZM29.4961 18.1357H29.0666V18.4497H29.4961V18.1357Z" fill="white" stroke="black" stroke-width="0.048" stroke-linejoin="bevel"/>
<path d="M25.9452 18.8174H25.3292V20.1227H25.9452V18.8174Z" fill="white" stroke="black" stroke-width="0.0517" stroke-linejoin="bevel"/>
<path d="M29.0716 20.1317V17.2377C28.9484 17.2377 28.9294 17.6617 28.6467 17.6617C28.4997 17.6617 28.5152 17.4862 28.5978 17.3431C28.671 17.2162 28.7615 17.0412 28.6385 16.7151C28.5542 16.9647 28.3272 17.0439 28.3692 16.8874C28.4412 16.6186 28.6487 16.5744 28.4932 16.1572C28.4389 16.5052 28.2157 16.4899 28.2699 16.2876C28.3309 16.0596 28.4572 15.9662 28.3015 15.6447C28.2142 16.0097 28.0963 15.9882 28.0963 15.7617C28.0963 15.4272 28.1092 15.0662 27.676 14.9322C27.676 14.9322 27.651 14.6255 27.4948 14.6255C27.3387 14.6255 27.3135 14.9322 27.3135 14.9322C26.8805 15.0662 26.8933 15.4272 26.8933 15.7619C26.8933 15.9884 26.7753 16.0099 26.6882 15.6449C26.5323 15.9662 26.6587 16.0597 26.7197 16.2877C26.774 16.49 26.5507 16.5054 26.4967 16.1572C26.341 16.5745 26.5484 16.6187 26.6207 16.8875C26.6624 17.044 26.4357 16.9647 26.3512 16.7152C26.2282 17.0412 26.3187 17.2162 26.3919 17.3432C26.4745 17.4862 26.4902 17.662 26.3429 17.662C26.0603 17.662 26.0413 17.238 25.9182 17.238V20.132L29.0716 20.1317ZM29.7482 17.9457V20.1537H29.4972V17.9402C29.5877 17.8945 29.6727 17.8875 29.7482 17.9457Z" fill="white" stroke="black" stroke-width="0.048"/>
<path d="M29.7403 19.3748C29.4291 19.5338 29.1208 19.7181 29.0428 20.1541H29.7403V19.3748ZM25.4236 18.7138V20.1545H25.2201V18.7102C25.2836 18.6804 25.3703 18.6757 25.4236 18.7138Z" fill="white" stroke="black" stroke-width="0.048"/>
<path d="M25.2205 19.3643C25.5317 19.5233 25.84 19.7076 25.918 20.1436H25.2205V19.3643Z" fill="white" stroke="black" stroke-width="0.048"/>
<path d="M27.2777 15.9987L27.0963 15.8462V15.6508C27.1627 15.6573 27.1989 15.6802 27.2479 15.7445C27.2896 15.615 27.3813 15.514 27.5041 15.4512C27.6271 15.514 27.7187 15.6105 27.7604 15.7398C27.8094 15.6756 27.8456 15.6573 27.9121 15.6508V15.8462L27.7306 15.9987H27.2777Z" fill="white" stroke="black" stroke-width="0.048"/>
<path d="M27.1806 16.488L27.0963 16.3055V16.0515C27.1627 16.0583 27.1989 16.0813 27.2479 16.1465C27.2896 16.0153 27.3813 15.9128 27.5041 15.8491C27.6271 15.9128 27.7187 16.0108 27.7604 16.1419C27.8094 16.0769 27.8456 16.0583 27.9121 16.0518V16.3058L27.8276 16.4881L27.1806 16.488Z" fill="white" stroke="black" stroke-width="0.048"/>
<path d="M27.1674 17.1508L26.8979 16.8221V16.4978C26.9966 16.5088 27.0504 16.5481 27.1232 16.6584C27.1852 16.4362 27.3212 16.3876 27.5038 16.2798C27.6863 16.3876 27.8224 16.4283 27.8844 16.6505C27.9572 16.5402 28.011 16.5089 28.1094 16.4978V16.8221L27.8401 17.1508H27.1674Z" fill="white" stroke="black" stroke-width="0.048"/>
<path d="M27.0889 17.8015C27.0889 17.8015 26.7749 17.5275 26.7562 17.3771V17.0304C26.8779 17.0446 26.993 17.0762 27.0829 17.2186C27.1594 16.9316 27.2789 16.8516 27.5041 16.7124C27.7294 16.8516 27.8487 16.9316 27.9252 17.2186C28.0152 17.0761 28.1302 17.0446 28.252 17.0303V17.3769C28.2124 17.5273 27.9194 17.8013 27.9194 17.8013L27.0889 17.8015Z" fill="white" stroke="black" stroke-width="0.048"/>
<path d="M26.9559 19.0038C26.9559 19.0038 26.5259 18.5278 26.5159 18.3422V17.8016C26.6769 17.8238 26.8292 17.9346 26.9479 18.1566C27.0492 17.7092 27.2069 17.3972 27.5049 17.1802C27.8029 17.3972 27.9609 17.7092 28.0619 18.1567C28.1809 17.9345 28.3333 17.8237 28.4942 17.8015V18.3421C28.4633 18.5276 28.0542 19.0037 28.0542 19.0037L26.9559 19.0038Z" fill="white" stroke="black" stroke-width="0.048"/>
<path d="M26.9559 19.7146C26.9559 19.7146 26.5883 19.3404 26.5159 19.178V18.6374C26.6769 18.6597 26.8292 18.7704 26.9479 18.9924C27.0492 18.545 27.2069 18.2887 27.5049 18.0717C27.8029 18.2887 27.9609 18.545 28.0619 18.9925C28.1809 18.7702 28.3333 18.6595 28.4942 18.6372V19.1779C28.4008 19.3402 28.0542 19.7145 28.0542 19.7145L26.9559 19.7146Z" fill="white" stroke="black" stroke-width="0.048"/>
<path d="M26.8076 20.1274C26.915 19.6606 27.0073 19.3144 27.5239 18.9634C28.0406 19.3144 28.1329 19.6606 28.2403 20.1274H26.8076Z" fill="white" stroke="black" stroke-width="0.048"/>
<path d="M26.5413 20.3879V19.7117C26.7759 19.8037 26.988 19.9397 27.0663 20.0912C27.1535 19.7158 27.3219 19.5504 27.5315 19.3232C27.7412 19.5504 27.8815 19.7158 27.969 20.0912C28.0472 19.9397 28.2592 19.8037 28.494 19.7117V20.3879H26.5413Z" fill="white" stroke="black" stroke-width="0.048"/>
<path d="M9.42775 23.3998V24.0172H30.6168V23.3997L9.42775 23.3998ZM9.04417 24.0228V24.8278H31.0002V24.0228H9.04417ZM31.0002 24.8278L9.04417 24.8338L8.40233 24.8278V25.89H31.6422V24.828L31.0002 24.8278ZM7.75588 25.8968L7.75607 27.1478H32.2891L32.2889 25.8968H7.75588ZM32.2891 27.1478V27.1498H7.75607V27.1478H7.10938V28.3988H32.9354V27.1478H32.2891Z" fill="white"/>
<path d="M31.0002 24.8278H9.04417V24.0228H31.0002V24.8278ZM31.0002 24.8278L9.04417 24.8338L8.40233 24.8278V25.89H31.6422V24.828L31.0002 24.8278ZM7.75607 27.1478L7.75588 25.8968H32.2889L32.2891 27.1478M7.75607 27.1478H32.2891M7.75607 27.1478V27.1498H32.2891V27.1478M7.75607 27.1478H7.10938V28.3988H32.9354V27.1478H32.2891M9.42775 23.3998V24.0172H30.6168V23.3997L9.42775 23.3998Z" stroke="black" stroke-width="0.048"/>
<path d="M11.7266 23.4026H13.3271V28.3961H11.7266V23.4026Z" fill="white" stroke="black" stroke-width="0.05225"/>
<path d="M12.082 23.4026H12.9738V28.3962H12.082V23.4026Z" fill="white" stroke="black" stroke-width="0.05215"/>
<path d="M19.1953 23.4026H20.7959V28.3961H19.1953V23.4026Z" fill="white" stroke="black" stroke-width="0.05225"/>
<path d="M19.5586 23.4026H20.4503V28.3962H19.5586V23.4026Z" fill="white" stroke="black" stroke-width="0.05215"/>
<path d="M26.7053 23.4026H28.3058V28.3961H26.7053V23.4026Z" fill="white" stroke="black" stroke-width="0.05225"/>
<path d="M27.0586 23.4026H27.9503V28.3962H27.0586V23.4026Z" fill="white" stroke="black" stroke-width="0.05215"/>
<path d="M10.3791 22.8953H29.6861M12.0646 27.7693H12.989M12.0646 27.1443H12.989M12.0646 26.5193H12.989M12.0646 25.8943H12.989M12.0646 25.2693H12.989M12.0646 24.6443H12.989M12.0646 24.0193H12.989M19.5626 27.7703H20.4233M19.5626 27.1451H20.4233M19.5626 26.5197H20.4233M19.5626 25.8943H20.4233M19.5626 25.2691H20.4233M19.5626 24.6437H20.4233M19.5626 24.0184H20.4233M27.0426 27.7693H27.967M27.0426 27.1443H27.967M27.0426 26.5193H27.967M27.0426 25.8943H27.967M27.0426 25.2693H27.967M27.0426 24.6443H27.967M27.0426 24.0193H27.967" stroke="black" stroke-width="0.048"/>
</g>
</g>
</g>
<defs>
<clipPath id="clip0_16699_270668">
<rect width="40" height="40" fill="white"/>
</clipPath>
</defs>
</svg>
