<svg width="40" height="40" viewBox="0 0 40 40" fill="none" xmlns="http://www.w3.org/2000/svg">
<g clip-path="url(#clip0_16699_270750)">
<mask id="mask0_16699_270750" style="mask-type:luminance" maskUnits="userSpaceOnUse" x="0" y="0" width="40" height="40">
<path d="M40 0H0V40H40V0Z" fill="white"/>
</mask>
<g mask="url(#mask0_16699_270750)">
<mask id="mask1_16699_270750" style="mask-type:luminance" maskUnits="userSpaceOnUse" x="0" y="0" width="40" height="40">
<path d="M40 20C40 8.95433 31.0457 0 20 0C8.95433 0 0 8.95433 0 20C0 31.0457 8.95433 40 20 40C31.0457 40 40 31.0457 40 20Z" fill="white"/>
</mask>
<g mask="url(#mask1_16699_270750)">
<path d="M50.5564 0H-10.5547V22H50.5564V0Z" fill="#C81010"/>
<path d="M20.1538 4.7034C18.2078 3.89867 17.0165 3.75078 15.6855 3.73753C13.7579 3.75078 12.8379 4.57896 11 4.65546C11.7282 5.43978 14.3678 5.63153 15.4805 4.6014C17.1349 4.77377 17.5102 5.2205 17.9539 5.77636C17.2634 5.66723 16.4678 5.46834 15.8079 6.19861C15.2511 6.3108 14.993 6.19861 14.0404 6.19861C13.5957 6.19861 13.4417 6.41687 13.4478 6.81056C13.7354 6.41279 15.7233 6.64738 16.2108 6.81056C16.5851 6.93601 16.9829 7.45516 17.4572 7.53981C18.7004 7.76114 20.4843 7.11144 22.1294 6.66879L25.6869 6.19861H23.2463L26.2989 5.58665C24.8781 5.58665 23.9418 5.58665 22.9801 5.58665C22.9097 5.50608 22.7414 5.40205 22.6068 5.31331C23.4604 4.76357 24.2152 3.76404 24.408 3.28162C25.947 3.26632 26.9404 3.12353 28.1348 2.84407C20.263 1.97305 22.055 2.9124 20.1538 4.7034Z" fill="#F8D000" stroke="black" stroke-width="0.0234583" stroke-miterlimit="22.9256"/>
<path d="M16.5141 5.98355C16.5988 5.98355 16.6671 6.05189 16.6671 6.13654C16.6671 6.22119 16.5988 6.28953 16.5141 6.28953C16.4306 6.28953 16.3611 6.22119 16.3611 6.13654C16.3611 6.05189 16.4306 5.98355 16.5141 5.98355Z" fill="black"/>
<path d="M16.5141 5.98355C16.5988 5.98355 16.6671 6.05189 16.6671 6.13654C16.6671 6.22119 16.5988 6.28953 16.5141 6.28953C16.4306 6.28953 16.3611 6.22119 16.3611 6.13654C16.3611 6.05189 16.4306 5.98355 16.5141 5.98355Z" stroke="black" stroke-width="0.00764945" stroke-miterlimit="22.9256"/>
<path d="M18.5618 5.82013C18.5618 5.82013 17.9223 6.19851 17.498 6.19851" stroke="black" stroke-width="0.0234583" stroke-miterlimit="22.9256"/>
<path d="M22.1289 6.66873C22.1289 6.66873 22.7133 6.19855 23.2457 6.19855" stroke="black" stroke-width="0.0234583" stroke-miterlimit="22.9256"/>
<path d="M12.8164 4.42386C12.8164 4.42386 13.2917 4.175 13.5161 4.1087" stroke="black" stroke-width="0.0234583" stroke-miterlimit="22.9256"/>
<path d="M14.7871 4.06923C14.7871 4.06923 15.5409 3.74388 16.3803 3.76021" stroke="black" stroke-width="0.0234583" stroke-miterlimit="22.9256"/>
<path d="M16.8242 4.14839C16.8242 4.14839 17.8125 3.98214 18.7254 4.18512" stroke="black" stroke-width="0.0234583" stroke-miterlimit="22.9256"/>
<path d="M17.9609 4.38718C17.9609 4.38718 18.781 4.24949 19.5674 4.47183" stroke="black" stroke-width="0.0234583" stroke-miterlimit="22.9256"/>
<path d="M18.8047 4.63751C18.8047 4.63751 19.64 4.64873 20.0551 4.80988" stroke="black" stroke-width="0.0234583" stroke-miterlimit="22.9256"/>
<path d="M11 4.65545C11 4.65545 12.1719 4.97571 13.1245 4.51776" stroke="black" stroke-width="0.0234583" stroke-miterlimit="22.9256"/>
<path d="M11.1484 4.79424C11.1484 4.79424 12.6703 5.16957 13.3659 4.47296" stroke="black" stroke-width="0.0234583" stroke-miterlimit="22.9256"/>
<path d="M11.6581 5.05784C11.6581 5.05784 12.8046 5.42707 13.7061 4.47446" stroke="black" stroke-width="0.0234583" stroke-miterlimit="22.9256"/>
<path d="M12.7247 5.28838C12.7247 5.28838 13.6508 5.0232 14.0016 4.47754" stroke="black" stroke-width="0.0234583" stroke-miterlimit="22.9256"/>
<path d="M13.4473 5.30398C13.4473 5.30398 14.0683 4.87357 14.2918 4.49008" stroke="black" stroke-width="0.0234583" stroke-miterlimit="22.9256"/>
<path d="M21.4492 4.81866C21.4492 4.81866 21.692 5.12362 22.6058 5.31334" stroke="black" stroke-width="0.0234583" stroke-miterlimit="22.9256"/>
<path d="M21.6113 4.67462C21.6113 4.67462 22.004 5.06729 22.822 5.16317" stroke="black" stroke-width="0.0234583" stroke-miterlimit="22.9256"/>
<path d="M21.8086 4.48993C21.8086 4.48993 22.2074 4.83263 23.0753 4.96012" stroke="black" stroke-width="0.0234583" stroke-miterlimit="22.9256"/>
<path d="M22.0039 4.29327C22.0039 4.29327 22.6138 4.70022 23.3084 4.74715" stroke="black" stroke-width="0.0234583" stroke-miterlimit="22.9256"/>
<path d="M22.2461 4.03644C22.2461 4.03644 22.6734 4.43523 23.521 4.53415" stroke="black" stroke-width="0.0234583" stroke-miterlimit="22.9256"/>
<path d="M22.4258 3.83139C22.4258 3.83139 22.9266 4.2618 23.7139 4.32095" stroke="black" stroke-width="0.0234583" stroke-miterlimit="22.9256"/>
<path d="M22.6016 3.617C22.6016 3.617 22.9086 3.97195 23.9212 4.06475" stroke="black" stroke-width="0.0234583" stroke-miterlimit="22.9256"/>
<path d="M22.7814 3.38559C22.7814 3.38559 23.123 3.76091 24.0848 3.84251" stroke="black" stroke-width="0.0234583" stroke-miterlimit="22.9256"/>
<path d="M22.9218 3.19464C22.9218 3.19464 23.5236 3.64852 24.2201 3.63933" stroke="black" stroke-width="0.0234583" stroke-miterlimit="22.9256"/>
<path d="M23.041 3.02133C23.041 3.02133 23.8366 3.49866 24.3108 3.48336" stroke="black" stroke-width="0.0234583" stroke-miterlimit="22.9256"/>
<path d="M23.1855 2.80109C23.1855 2.80109 23.8179 3.19478 24.4074 3.28147" stroke="black" stroke-width="0.0234583" stroke-miterlimit="22.9256"/>
<path d="M20.4689 5.01337C20.4689 5.01337 20.7239 5.20613 20.9625 5.19797" stroke="black" stroke-width="0.0234583" stroke-miterlimit="22.9256"/>
<path d="M20.6152 4.87042C20.6152 4.87042 20.8367 5.05911 21.1405 5.0581" stroke="black" stroke-width="0.0234583" stroke-miterlimit="22.9256"/>
<path d="M20.7949 4.69513C20.7949 4.69513 21.0458 4.9297 21.3468 4.88688" stroke="black" stroke-width="0.0234583" stroke-miterlimit="22.9256"/>
<path d="M20.9629 4.52621C20.9629 4.52621 21.2626 4.7302 21.531 4.72408" stroke="black" stroke-width="0.0234583" stroke-miterlimit="22.9256"/>
<path d="M21.1504 4.33331C21.1504 4.33331 21.3726 4.52608 21.7246 4.54445" stroke="black" stroke-width="0.0234583" stroke-miterlimit="22.9256"/>
<path d="M21.3184 4.12091C21.3184 4.12091 21.5795 4.35243 21.912 4.36059" stroke="black" stroke-width="0.0234583" stroke-miterlimit="22.9256"/>
<path d="M21.4961 3.96808C21.4961 3.96808 21.749 4.13025 22.107 4.16084" stroke="black" stroke-width="0.0234583" stroke-miterlimit="22.9256"/>
<path d="M21.6562 3.78937C21.6562 3.78937 21.9979 3.90972 22.3111 3.9393" stroke="black" stroke-width="0.0234583" stroke-miterlimit="22.9256"/>
<path d="M21.8379 3.57111C21.8379 3.57111 22.0735 3.73633 22.4916 3.72613" stroke="black" stroke-width="0.0234583" stroke-miterlimit="22.9256"/>
<path d="M22.0039 3.35333C22.0039 3.35333 22.2834 3.53897 22.6424 3.54305" stroke="black" stroke-width="0.0234583" stroke-miterlimit="22.9256"/>
<path d="M22.1289 3.14618C22.1289 3.14618 22.5042 3.35628 22.8275 3.30937" stroke="black" stroke-width="0.0234583" stroke-miterlimit="22.9256"/>
<path d="M22.2656 2.89777C22.2656 2.89777 22.5033 3.15784 22.9459 3.14867" stroke="black" stroke-width="0.0234583" stroke-miterlimit="22.9256"/>
<path d="M22.3613 2.78595C22.3613 2.78595 22.7877 3.02563 23.0763 2.96444" stroke="black" stroke-width="0.0234583" stroke-miterlimit="22.9256"/>
<path d="M22.543 2.65021C22.543 2.65021 22.8662 2.84705 23.1621 2.83889" stroke="black" stroke-width="0.0234583" stroke-miterlimit="22.9256"/>
<path d="M22.8709 2.55152C22.8709 2.55152 23.4472 2.84525 24.2264 2.52704" stroke="black" stroke-width="0.0234583" stroke-miterlimit="22.9256"/>
<path d="M23.3613 2.76027C23.3613 2.76027 24.5262 3.0275 25.0309 2.56036" stroke="black" stroke-width="0.0234583" stroke-miterlimit="22.9256"/>
<path d="M24.2754 2.82948C24.2754 2.82948 25.076 2.91312 25.9715 2.62958" stroke="black" stroke-width="0.0234583" stroke-miterlimit="22.9256"/>
<path d="M24.8065 2.83447C24.8065 2.83447 26.0223 3.07926 28.1345 2.84365" stroke="black" stroke-width="0.0234583" stroke-miterlimit="22.9256"/>
<path d="M13.7772 5.27658C13.7772 5.27658 14.3209 4.91858 14.5462 4.50653" stroke="black" stroke-width="0.0234583" stroke-miterlimit="22.9256"/>
<path d="M14.1857 5.2102C14.1857 5.2102 14.6233 4.78591 14.7507 4.52277" stroke="black" stroke-width="0.0234583" stroke-miterlimit="22.9256"/>
<path d="M14.5898 5.10132C14.5898 5.10132 14.9499 4.77801 15.0294 4.55157" stroke="black" stroke-width="0.0234583" stroke-miterlimit="22.9256"/>
<path d="M12.8301 4.53214C12.8301 4.53214 13.6112 4.36181 15.4797 4.60149" stroke="black" stroke-width="0.0234583" stroke-miterlimit="22.9256"/>
<path d="M13.5527 4.21957C13.5527 4.21957 14.2075 3.90237 14.7909 3.80548" stroke="black" stroke-width="0.0234583" stroke-miterlimit="22.9256"/>
<path d="M14.2031 4.08842C14.2031 4.08842 14.6815 3.86302 15.3873 3.75082" stroke="black" stroke-width="0.0234583" stroke-miterlimit="22.9256"/>
<path d="M15.2911 4.04554C15.2911 4.04554 15.9531 3.76302 16.763 3.78954" stroke="black" stroke-width="0.0234583" stroke-miterlimit="22.9256"/>
<path d="M16.1271 4.05067C16.1271 4.05067 17.0348 3.84771 17.8711 3.96194" stroke="black" stroke-width="0.0234583" stroke-miterlimit="22.9256"/>
<path d="M18.5586 4.49435C18.5586 4.49435 19.2511 4.46273 20.0477 4.6606" stroke="black" stroke-width="0.0234583" stroke-miterlimit="22.9256"/>
<path d="M17.375 4.21603C17.375 4.21603 18.3674 4.16299 19.0477 4.28844" stroke="black" stroke-width="0.0234583" stroke-miterlimit="22.9256"/>
<path d="M23.5117 2.78925C23.5117 2.78925 23.8544 3.08604 24.8091 3.27473" stroke="black" stroke-width="0.0234583" stroke-miterlimit="22.9256"/>
<path d="M24.0488 2.83722C24.0488 2.83722 24.5853 3.14219 25.4318 3.24825" stroke="black" stroke-width="0.0234583" stroke-miterlimit="22.9256"/>
<path d="M24.6133 2.84116C24.6133 2.84116 25.366 3.16854 26.1615 3.18894" stroke="black" stroke-width="0.0234583" stroke-miterlimit="22.9256"/>
<path d="M25.4473 2.9126C25.4473 2.9126 26.2143 3.0972 27.1648 3.04722" stroke="black" stroke-width="0.0234583" stroke-miterlimit="22.9256"/>
<path d="M15.7324 4.03409C15.7324 4.03409 16.2526 3.81991 17.1746 3.83724" stroke="black" stroke-width="0.0234583" stroke-miterlimit="22.9256"/>
<path d="M19.1641 4.81357C19.1641 4.81357 19.4761 4.77583 19.8636 4.96044" stroke="black" stroke-width="0.0234583" stroke-miterlimit="22.9256"/>
<path d="M17.9531 5.77639C18.1683 5.81005 18.3733 5.83555 18.56 5.82025C19.2902 5.42146 19.789 5.04715 20.153 4.70343" stroke="black" stroke-width="0.0234583" stroke-miterlimit="22.9256"/>
<path d="M13.8874 19.6663C13.0481 19.5521 12.2424 19.2615 11.5234 18.8138C10.8043 18.3659 10.1883 17.7708 9.71582 17.0677C10.452 17.4867 11.2686 17.745 12.1119 17.8259C12.9551 17.9065 13.8059 17.8079 14.6082 17.5361" fill="#F8D000"/>
<path d="M13.8874 19.6663C13.0481 19.5521 12.2424 19.2615 11.5234 18.8138C10.8043 18.3659 10.1883 17.7708 9.71582 17.0677C10.452 17.4867 11.2686 17.745 12.1119 17.8259C12.9551 17.9065 13.8059 17.8079 14.6082 17.5361" stroke="black" stroke-width="0.0276" stroke-miterlimit="22.9256"/>
<path d="M13.853 21.0937L8.83435 19.4995L14.0605 18.8545" fill="#F8D000"/>
<path d="M13.853 21.0937L8.83435 19.4995L14.0605 18.8545" stroke="black" stroke-width="0.0276" stroke-miterlimit="22.9256"/>
<path d="M14.6091 17.5357C13.8676 17.126 13.2214 16.564 12.7128 15.8866C12.2041 15.2092 11.8448 14.4317 11.6581 13.6055C12.1933 14.2621 12.8614 14.7981 13.6185 15.178C14.3756 15.558 15.2046 15.7732 16.0509 15.8097" fill="#F8D000"/>
<path d="M14.6091 17.5357C13.8676 17.126 13.2214 16.564 12.7128 15.8866C12.2041 15.2092 11.8448 14.4317 11.6581 13.6055C12.1933 14.2621 12.8614 14.7981 13.6185 15.178C14.3756 15.558 15.2046 15.7732 16.0509 15.8097" stroke="black" stroke-width="0.0276" stroke-miterlimit="22.9256"/>
<path d="M14.0601 18.8544L9.95642 15.5545L15.0626 16.8414" fill="#F8D000"/>
<path d="M14.0601 18.8544L9.95642 15.5545L15.0626 16.8414" stroke="black" stroke-width="0.0276" stroke-miterlimit="22.9256"/>
<path d="M16.0485 15.81C15.5051 15.1602 15.1054 14.4027 14.8757 13.5873C14.6461 12.772 14.5917 11.9172 14.7161 11.0793C14.9779 11.885 15.4073 12.626 15.9761 13.2537C16.545 13.8813 17.2402 14.3816 18.0162 14.7213" fill="#F8D000"/>
<path d="M16.0485 15.81C15.5051 15.1602 15.1054 14.4027 14.8757 13.5873C14.6461 12.772 14.5917 11.9172 14.7161 11.0793C14.9779 11.885 15.4073 12.626 15.9761 13.2537C16.545 13.8813 17.2402 14.3816 18.0162 14.7213" stroke="black" stroke-width="0.0276" stroke-miterlimit="22.9256"/>
<path d="M15.0617 16.8412L12.4266 12.2821L16.7235 15.3262" fill="#F8D000"/>
<path d="M15.0617 16.8412L12.4266 12.2821L16.7235 15.3262" stroke="black" stroke-width="0.0276" stroke-miterlimit="22.9256"/>
<path d="M18.0174 14.7206C17.7454 13.9184 17.6464 13.0678 17.7268 12.2244C17.8073 11.3811 18.0654 10.5644 18.4841 9.82819C18.4371 10.6739 18.5699 11.52 18.8735 12.3109C19.1771 13.1018 19.6446 13.8194 20.2455 14.4164" fill="#F8D000"/>
<path d="M18.0174 14.7206C17.7454 13.9184 17.6464 13.0678 17.7268 12.2244C17.8073 11.3811 18.0654 10.5644 18.4841 9.82819C18.4371 10.6739 18.5699 11.52 18.8735 12.3109C19.1771 13.1018 19.6446 13.8194 20.2455 14.4164" stroke="black" stroke-width="0.0276" stroke-miterlimit="22.9256"/>
<path d="M16.7236 15.3258L15.9137 10.1226L18.8204 14.5135" fill="#F8D000"/>
<path d="M16.7236 15.3258L15.9137 10.1226L18.8204 14.5135" stroke="black" stroke-width="0.0276" stroke-miterlimit="22.9256"/>
<path d="M20.2452 14.4169C20.2815 13.5705 20.4965 12.7415 20.8762 11.9843C21.2559 11.227 21.7916 10.5588 22.4481 10.0234C22.0987 10.7952 21.9167 11.632 21.9142 12.4792C21.9115 13.3263 22.0882 14.1644 22.4327 14.9382" fill="#F8D000"/>
<path d="M20.2452 14.4169C20.2815 13.5705 20.4965 12.7415 20.8762 11.9843C21.2559 11.227 21.7916 10.5588 22.4481 10.0234C22.0987 10.7952 21.9167 11.632 21.9142 12.4792C21.9115 13.3263 22.0882 14.1644 22.4327 14.9382" stroke="black" stroke-width="0.0276" stroke-miterlimit="22.9256"/>
<path d="M18.8199 14.5134L19.9446 9.36917L21.0687 14.5136" fill="#F8D000"/>
<path d="M18.8199 14.5134L19.9446 9.36917L21.0687 14.5136" stroke="black" stroke-width="0.0276" stroke-miterlimit="22.9256"/>
<path d="M22.4336 14.937C22.773 14.1609 23.2729 13.4654 23.9004 12.8964C24.528 12.3274 25.2689 11.8977 26.0744 11.6356C25.4699 12.2291 24.998 12.9438 24.6896 13.7328C24.3812 14.5217 24.2434 15.3671 24.2852 16.2131" fill="#F8D000"/>
<path d="M22.4336 14.937C22.773 14.1609 23.2729 13.4654 23.9004 12.8964C24.528 12.3274 25.2689 11.8977 26.0744 11.6356C25.4699 12.2291 24.998 12.9438 24.6896 13.7328C24.3812 14.5217 24.2434 15.3671 24.2852 16.2131" stroke="black" stroke-width="0.0276" stroke-miterlimit="22.9256"/>
<path d="M21.0696 14.513L23.9762 10.1221L23.1666 15.3252" fill="#F8D000"/>
<path d="M21.0696 14.513L23.9762 10.1221L23.1666 15.3252" stroke="black" stroke-width="0.0276" stroke-miterlimit="22.9256"/>
<path d="M24.2882 16.2137C24.8851 15.6127 25.6025 15.1448 26.3933 14.8411C27.184 14.5372 28.0301 14.4042 28.8759 14.4508C28.0978 14.7857 27.3995 15.2817 26.8269 15.9059C26.2543 16.5302 25.8204 17.2687 25.5537 18.0727" fill="#F8D000"/>
<path d="M24.2882 16.2137C24.8851 15.6127 25.6025 15.1448 26.3933 14.8411C27.184 14.5372 28.0301 14.4042 28.8759 14.4508C28.0978 14.7857 27.3995 15.2817 26.8269 15.9059C26.2543 16.5302 25.8204 17.2687 25.5537 18.0727" stroke="black" stroke-width="0.0276" stroke-miterlimit="22.9256"/>
<path d="M23.1689 15.3253L27.4658 12.2812L24.8309 16.8404" fill="#F8D000"/>
<path d="M23.1689 15.3253L27.4658 12.2812L24.8309 16.8404" stroke="black" stroke-width="0.0276" stroke-miterlimit="22.9256"/>
<path d="M25.5518 18.0733C26.3254 17.7285 27.1634 17.5515 28.0106 17.5539C28.8577 17.5562 29.6947 17.7379 30.4664 18.087C29.6199 18.1182 28.7897 18.3284 28.0302 18.7036C27.2707 19.0788 26.5993 19.6106 26.0602 20.2639" fill="#F8D000"/>
<path d="M25.5518 18.0733C26.3254 17.7285 27.1634 17.5515 28.0106 17.5539C28.8577 17.5562 29.6947 17.7379 30.4664 18.087C29.6199 18.1182 28.7897 18.3284 28.0302 18.7036C27.2707 19.0788 26.5993 19.6106 26.0602 20.2639" stroke="black" stroke-width="0.0276" stroke-miterlimit="22.9256"/>
<path d="M24.8304 16.8414L29.9369 15.5553L25.8326 18.8545" fill="#F8D000"/>
<path d="M24.8304 16.8414L29.9369 15.5553L25.8326 18.8545" stroke="black" stroke-width="0.0276" stroke-miterlimit="22.9256"/>
<path d="M26.0626 20.2639C26.9087 20.2219 27.754 20.3594 28.5431 20.6675C29.3322 20.9756 30.0471 21.4474 30.6407 22.0516C29.8401 21.775 28.9899 21.6711 28.1462 21.7468C27.3025 21.8224 26.4844 22.0758 25.7456 22.4904" fill="#F8D000"/>
<path d="M26.0626 20.2639C26.9087 20.2219 27.754 20.3594 28.5431 20.6675C29.3322 20.9756 30.0471 21.4474 30.6407 22.0516C29.8401 21.775 28.9899 21.6711 28.1462 21.7468C27.3025 21.8224 26.4844 22.0758 25.7456 22.4904" stroke="black" stroke-width="0.0276" stroke-miterlimit="22.9256"/>
<path d="M25.8347 18.8542L31.0608 19.499L26.0422 21.0934" fill="#F8D000"/>
<path d="M25.8347 18.8542L31.0608 19.499L26.0422 21.0934" stroke="black" stroke-width="0.0276" stroke-miterlimit="22.9256"/>
<path d="M19.9462 26.6492C23.3262 26.6492 26.0662 23.9092 26.0662 20.5292C26.0662 17.1492 23.3262 14.4092 19.9462 14.4092C16.5662 14.4092 13.8262 17.1492 13.8262 20.5292C13.8262 23.9092 16.5662 26.6492 19.9462 26.6492Z" fill="#F8D000" stroke="black" stroke-width="0.0276" stroke-miterlimit="22.9256"/>
<path d="M50.98 22H-10.9766V41H50.98V22Z" fill="#183070"/>
<path d="M-7.50586 22.0603C-5.86384 21.0847 -4.22181 21.0847 -2.57979 22.0603C-0.937768 23.036 0.704254 23.036 2.34628 22.0603C3.9883 21.0847 5.63031 21.0847 7.27235 22.0603C8.91433 23.036 10.5564 23.036 12.1984 22.0603C13.8404 21.0847 15.5646 21.0847 17.3708 22.0603C19.177 23.036 20.9832 23.036 22.7895 22.0603C24.5957 21.0847 26.3198 21.0847 27.9618 22.0603C29.6039 23.036 31.2459 23.036 32.8879 22.0603C34.5299 21.0847 36.172 21.0847 37.814 22.0603C39.456 23.036 41.098 23.036 42.74 22.0603C44.3821 21.0847 46.0241 21.0847 47.6661 22.0603" stroke="white" stroke-width="3"/>
<path d="M-7.56433 27.8207C-5.91962 26.8453 -4.27491 26.8453 -2.6302 27.8207C-0.98549 28.7962 0.65922 28.7962 2.30393 27.8207C3.94863 26.8453 5.59335 26.8453 7.23807 27.8207C8.88279 28.7962 10.5275 28.7962 12.1722 27.8207C13.817 26.8453 15.5438 26.8453 17.353 27.8207C19.1622 28.7962 20.9715 28.7962 22.7806 27.8207C24.5897 26.8453 26.3167 26.8453 27.9615 27.8207C29.6061 28.7962 31.2508 28.7962 32.8955 27.8207C34.5403 26.8453 36.185 26.8453 37.8297 27.8207C39.4745 28.7962 41.1191 28.7962 42.7638 27.8207C44.4085 26.8453 46.0532 26.8453 47.698 27.8207" stroke="white" stroke-width="3"/>
<path d="M-7.56641 33.5804C-5.92371 32.6047 -4.28101 32.6047 -2.63831 33.5804C-0.995598 34.5561 0.647099 34.5561 2.28979 33.5804C3.93249 32.6047 5.57519 32.6047 7.21789 33.5804C8.86058 34.5561 10.5033 34.5561 12.146 33.5804C13.7887 32.6047 15.5135 32.6047 17.3205 33.5804C19.1275 34.5561 20.9344 34.5561 22.7414 33.5804C24.5484 32.6047 26.2732 32.6047 27.9159 33.5804C29.5586 34.5561 31.2013 34.5561 32.844 33.5804C34.4867 32.6047 36.1294 32.6047 37.7721 33.5804C39.4148 34.5561 41.0575 34.5561 42.7002 33.5804C44.3429 32.6047 45.9856 32.6047 47.6283 33.5804" stroke="white" stroke-width="3"/>
</g>
</g>
</g>
<defs>
<clipPath id="clip0_16699_270750">
<rect width="40" height="40" fill="white"/>
</clipPath>
</defs>
</svg>
