<svg width="40" height="40" viewBox="0 0 40 40" fill="none" xmlns="http://www.w3.org/2000/svg">
<g clip-path="url(#clip0_16699_270899)">
<mask id="mask0_16699_270899" style="mask-type:luminance" maskUnits="userSpaceOnUse" x="0" y="0" width="40" height="40">
<path d="M40 0H0V40H40V0Z" fill="white"/>
</mask>
<g mask="url(#mask0_16699_270899)">
<mask id="mask1_16699_270899" style="mask-type:luminance" maskUnits="userSpaceOnUse" x="0" y="0" width="40" height="40">
<path d="M40 20C40 8.95433 31.0457 0 20 0C8.95433 0 0 8.95433 0 20C0 31.0457 8.95433 40 20 40C31.0457 40 40 31.0457 40 20Z" fill="white"/>
</mask>
<g mask="url(#mask1_16699_270899)">
<path d="M63 0H0V41.9963H63V0Z" fill="#024FA2"/>
<path d="M63 6.99936H0V34.9969H63V6.99936Z" fill="white"/>
<path d="M63 8.16602H0V33.8304H63V8.16602Z" fill="#ED1C27"/>
<path d="M19.9282 30.275C25.0825 30.275 29.2607 26.0967 29.2607 20.9425C29.2607 15.7883 25.0825 11.61 19.9282 11.61C14.774 11.61 10.5957 15.7883 10.5957 20.9425C10.5957 26.0967 14.774 30.275 19.9282 30.275Z" fill="white"/>
<path d="M19.926 11.902L17.1322 20.5003L21.4314 21.8973L19.926 11.902Z" fill="#ED1C27"/>
<path d="M19.9261 11.902L22.7198 20.5003L18.4207 21.8973L19.9261 11.902Z" fill="#ED1C27"/>
<path d="M28.5254 18.1497H19.4845V22.6702L28.5254 18.1497Z" fill="#ED1C27"/>
<path d="M28.5253 18.1497L21.2111 23.4638L18.554 19.8068L28.5253 18.1497Z" fill="#ED1C27"/>
<path d="M11.3281 18.1472L18.6423 23.4612L21.2994 19.8042L11.3281 18.1472Z" fill="#ED1C27"/>
<path d="M11.3281 18.1472H20.369V22.6675L11.3281 18.1472Z" fill="#ED1C27"/>
<path d="M25.2423 28.2559L22.4485 19.6576L18.1493 21.0544L25.2423 28.2559Z" fill="#ED1C27"/>
<path d="M25.2423 28.256L17.9281 22.9419L20.5851 19.2849L25.2423 28.256Z" fill="#ED1C27"/>
<path d="M14.6133 28.2577L21.9275 22.9436L19.2704 19.2865L14.6133 28.2577Z" fill="#ED1C27"/>
<path d="M14.6133 28.2579L17.4071 19.6595L21.7062 21.0564L14.6133 28.2579Z" fill="#ED1C27"/>
</g>
</g>
</g>
<defs>
<clipPath id="clip0_16699_270899">
<rect width="40" height="40" fill="white"/>
</clipPath>
</defs>
</svg>
