<svg width="40" height="40" viewBox="0 0 40 40" fill="none" xmlns="http://www.w3.org/2000/svg">
<g clip-path="url(#clip0_16699_270922)">
<mask id="mask0_16699_270922" style="mask-type:luminance" maskUnits="userSpaceOnUse" x="0" y="0" width="40" height="40">
<path d="M40 0H0V40H40V0Z" fill="white"/>
</mask>
<g mask="url(#mask0_16699_270922)">
<mask id="mask1_16699_270922" style="mask-type:luminance" maskUnits="userSpaceOnUse" x="0" y="0" width="40" height="40">
<path d="M40 20C40 8.95433 31.0457 0 20 0C8.95433 0 0 8.95433 0 20C0 31.0457 8.95433 40 20 40C31.0457 40 40 31.0457 40 20Z" fill="white"/>
</mask>
<g mask="url(#mask1_16699_270922)">
<path d="M40 20C40 8.95433 31.0457 0 20 0C8.95433 0 0 8.95433 0 20C0 31.0457 8.95433 40 20 40C31.0457 40 40 31.0457 40 20Z" fill="white"/>
<path d="M-2 5H42V34.3333H-2V5Z" fill="white"/>
<path d="M4.74426 13.9034L8.81205 7.80176L9.82905 8.47975L5.76121 14.5814L4.74426 13.9034ZM6.2697 14.9204L10.3375 8.81867L11.3544 9.49667L7.28665 15.5983L6.2697 14.9204ZM7.79511 15.9373L11.8629 9.83567L12.8799 10.5137L8.81205 16.6153L7.79511 15.9373Z" fill="black"/>
<path d="M27.1172 28.8188L31.185 22.7171L32.2019 23.3951L28.1341 29.4969L27.1172 28.8188ZM28.6426 29.8359L32.7104 23.7341L33.7274 24.4121L29.6596 30.5138L28.6426 29.8359ZM30.168 30.8528L34.2358 24.751L35.2528 25.429L31.185 31.5308L30.168 30.8528Z" fill="black"/>
<path d="M28.6445 25.429L33.7294 28.8188" stroke="white" stroke-width="0.305555"/>
<path d="M13.8965 15.5985C14.9752 13.9804 16.6527 12.8569 18.56 12.4754C20.4672 12.094 22.4477 12.4859 24.066 13.5647C25.6842 14.6435 26.8077 16.321 27.1891 18.2282C27.5705 20.1354 27.1787 22.1159 26.0999 23.7342L13.8965 15.5985Z" fill="#CD2E3A"/>
<path d="M13.8978 15.5987C12.8189 17.2169 12.4271 19.1974 12.8086 21.1047C13.19 23.0117 14.3134 24.6892 15.9317 25.7682C17.55 26.8469 19.5305 27.2387 21.4377 26.8573C23.3448 26.4759 25.0223 25.3525 26.1012 23.7342C26.6406 22.9252 26.8365 21.9348 26.6458 20.9812C26.4551 20.0277 25.8934 19.1889 25.0842 18.6494C24.2751 18.11 23.2848 17.9142 22.3312 18.1048C21.3777 18.2955 20.5389 18.8573 19.9995 19.6664L13.8978 15.5987Z" fill="#0047A0"/>
<path d="M19.9989 19.6665C21.1222 17.9815 20.6669 15.705 18.9819 14.5817C17.297 13.4584 15.0205 13.9137 13.8972 15.5987C12.7739 17.2836 13.2292 19.5601 14.9141 20.6834C16.5991 21.8067 18.8756 21.3514 19.9989 19.6665Z" fill="#CD2E3A"/>
<path d="M8.81242 31.5304L4.74463 25.4287L5.76158 24.7507L9.82942 30.8524L8.81242 31.5304ZM10.3378 30.5134L6.27005 24.4117L7.287 23.7337L11.3548 29.8354L10.3378 30.5134ZM11.8633 29.4965L7.79549 23.3948L8.81242 22.7168L12.8803 28.8185L11.8633 29.4965Z" fill="black"/>
<path d="M31.1855 16.6153L27.1177 10.5136L28.1347 9.83567L32.2025 15.9374L31.1855 16.6153ZM32.711 15.5984L28.6431 9.49667L29.6601 8.81867L33.7278 14.9204L32.711 15.5984ZM34.2364 14.5814L30.1686 8.47975L31.1855 7.80176L35.2533 13.9035L34.2364 14.5814Z" fill="black"/>
<path d="M8.04871 27.6321L9.57412 26.6152M28.642 13.9033L30.4216 12.7168M31.947 11.6998L33.4725 10.6829" stroke="white" stroke-width="0.305555"/>
</g>
</g>
</g>
<defs>
<clipPath id="clip0_16699_270922">
<rect width="40" height="40" fill="white"/>
</clipPath>
</defs>
</svg>
