<svg width="40" height="40" viewBox="0 0 40 40" fill="none" xmlns="http://www.w3.org/2000/svg">
<g clip-path="url(#clip0_16699_270955)">
<mask id="mask0_16699_270955" style="mask-type:luminance" maskUnits="userSpaceOnUse" x="0" y="0" width="40" height="40">
<path d="M40 20C40 8.95431 31.0457 0 20 0C8.95431 0 0 8.95431 0 20C0 31.0457 8.95431 40 20 40C31.0457 40 40 31.0457 40 20Z" fill="white"/>
</mask>
<g mask="url(#mask0_16699_270955)">
<mask id="mask1_16699_270955" style="mask-type:luminance" maskUnits="userSpaceOnUse" x="-14" y="0" width="54" height="40">
<path d="M-13.3334 0H40V40H-13.3334V0Z" fill="white"/>
</mask>
<g mask="url(#mask1_16699_270955)">
<path d="M-13.3334 0H40V40H-13.3334V0Z" fill="#000066"/>
<path fill-rule="evenodd" clip-rule="evenodd" d="M-13.3334 0H20V16.6667H-13.3334V0Z" fill="#000066"/>
<path d="M-13.3334 0V2.2575L14.5342 20.1915H18.042V17.934L-9.82562 0.000166667H-13.3334V0ZM18.042 0V2.25742L-9.82562 20.1914H-13.3334V17.934L14.5342 0H18.042Z" fill="white"/>
<path d="M-0.26029 0V20.1914H4.96888V0H-0.26029ZM-13.3334 6.7305V13.4609H18.042V6.7305H-13.3334Z" fill="white"/>
<path d="M-13.3334 8.07658V12.1149H18.042V8.07658H-13.3334ZM0.785543 0V20.1914H3.92304V0H0.785543ZM-13.3334 20.1914L-2.87487 13.4609H-0.536374L-10.9949 20.1914H-13.3334ZM-13.3334 0L-2.87487 6.7305H-5.21346L-13.3334 1.505V0ZM5.24504 6.7305L15.7035 0H18.042L7.58354 6.7305H5.24504ZM18.042 20.1913L7.58354 13.4609H9.92204L18.042 18.6865V20.1913Z" fill="#CC0000"/>
<path fill-rule="evenodd" clip-rule="evenodd" d="M24.0275 14.9284C23.9434 14.9793 23.7752 15.1318 23.6068 15.0809C23.4386 15.0301 23.06 14.3691 22.6393 14.4708C22.2185 14.5724 21.9662 14.725 21.7979 14.725C21.6296 14.725 21.1668 14.8776 21.1668 15.2843C21.1668 15.6912 21.2089 15.9963 21.2931 15.9963C21.3772 15.9963 21.5034 15.7421 21.5034 15.7421C21.5034 15.7421 21.5455 16.2504 21.84 16.2504C22.1345 16.2504 22.7655 16.3013 22.8075 16.4539C22.8496 16.6064 22.5131 16.9624 22.5972 17.2675C22.6814 17.5726 23.06 18.0811 23.06 18.0811C23.06 18.0811 22.5131 18.4878 22.5131 18.7422C22.5131 18.9965 22.5972 19.2507 22.5972 19.2507L20.1572 19.3523C20.1572 19.3523 19.9889 26.5729 20.0731 27.1323C20.1572 27.6915 20.3675 29.0645 20.3675 29.0645C20.3675 29.0645 19.8206 28.8867 19.3578 29.3443C18.8951 29.8021 17.2755 30.59 17.2334 30.9459C17.1913 31.3018 17.0441 31.6071 17.2124 31.8613C17.3806 32.1154 17.9727 32.8063 17.8013 32.7767C17.2366 32.6792 17.0263 31.8768 16.6445 31.5817C16.2691 31.292 15.5296 31.3529 15.4456 31.6578C15.3614 31.963 15.4035 32.4714 15.4456 32.5732C15.4876 32.6748 15.9503 34.3021 16.0766 34.658C16.2028 35.0139 17.5279 35.5478 18.1169 35.497C19.2316 35.5223 19.7365 35.014 19.7786 35.065C19.8206 35.1157 22.1769 37.5457 27.0144 37.5565C30.7801 37.5648 33.6192 35.1157 33.6192 35.1667C33.6192 35.2174 35.1758 35.6751 35.7226 35.5227C36.2696 35.3698 37.0689 35.0139 37.2371 34.658C37.4055 34.3022 37.8682 32.4714 37.9103 32.1666C37.9524 31.8613 37.9103 31.5054 37.5316 31.4037C37.153 31.3019 36.9427 31.3273 36.7324 31.429C36.5221 31.5307 36.4589 31.8107 36.1434 32.319C35.9751 32.4718 35.5334 32.8784 35.6596 32.7767C35.7859 32.6749 36.0592 31.9123 36.1013 31.6578C36.1434 31.4037 36.2696 30.946 35.9751 30.6918C35.6806 30.4376 35.2296 30.3337 34.7131 29.9546C34.2226 29.6184 33.8297 29.0646 33.5351 29.0646C33.2406 29.0646 32.9041 28.9122 32.9461 28.9122C32.9882 28.9122 33.3255 28.1734 33.2413 27.4108C33.1571 26.6479 33.2826 19.3525 33.2406 19.3525C33.1986 19.3525 31.1371 19.505 31.1371 19.4033C31.1371 19.3017 31.3055 18.5898 31.1371 18.1321C30.9689 17.6745 30.2537 17.3693 30.4641 17.2677C30.6744 17.166 31.5999 16.9118 31.5578 16.5049C31.5157 16.0981 30.9268 16.149 30.6744 15.9964C30.422 15.8439 29.6647 15.132 29.5806 15.132C29.4964 15.132 31.7681 13.7591 31.5999 13.7591C31.4316 13.7591 30.5482 13.5049 30.2537 13.6574C30.2537 13.4032 31.4737 12.6404 31.2634 12.5387C31.0531 12.437 30.0854 12.3353 30.3378 12.2845C30.5903 12.2337 30.6744 11.6234 30.6323 11.6234C30.5902 11.6234 29.5386 11.7759 29.5386 11.7759C29.5386 11.7759 29.2861 11.4201 29.202 11.4201C29.1178 11.4201 28.7392 11.6234 28.7392 11.6234L28.5289 11.0641L28.0661 11.3692L27.8558 11.1149C27.8558 11.1149 27.4772 11.2166 27.4772 11.1149C27.4931 11.1113 27.4336 10.8596 27.3741 10.8596C27.3146 10.8596 26.8981 11.1832 26.8833 11.1652C26.8684 11.1473 26.4073 10.5 26.4073 10.518C26.4073 10.536 26.0801 11.7405 26.0652 11.7405C26.0504 11.7405 25.738 11.7764 25.7231 11.7944C25.7082 11.8124 24.0573 10.8416 24.0722 10.8596C24.0871 10.8776 24.5035 11.7944 24.5035 11.7944C24.5035 11.7944 24.1466 11.9922 24.1466 12.0103C24.1466 12.0282 24.2061 12.4236 24.2061 12.4236L23.1052 12.0461C23.1052 12.0461 23.5217 12.891 23.4919 12.891C23.4622 12.891 22.6739 12.927 22.6888 12.927C22.7036 12.927 23.0606 13.6281 23.0606 13.6281L22.9268 14.0416C22.9268 14.0416 24.1116 14.8777 24.0274 14.9286L24.0275 14.9284ZM31.0531 32.624C31.1582 32.7765 31.7261 33.4883 31.642 33.4883C31.5578 33.4883 30.1487 34.4291 29.5806 34.6072C29.0127 34.785 27.1616 35.1155 27.2668 35.0902C27.372 35.0648 28.929 34.2123 29.5601 33.8057C30.1911 33.399 31.053 32.6748 31.053 32.624H31.0531ZM22.2603 32.5983C22.1761 32.7 21.7765 33.4883 21.7765 33.4883C21.7765 33.4883 22.9334 34.3019 23.7958 34.6071C24.6582 34.912 26.1307 35.0138 26.0465 34.9883C25.9623 34.963 24.1955 34.1748 23.6906 33.7681C23.1858 33.3612 22.2813 32.5983 22.2602 32.5983L22.2603 32.5983Z" fill="white"/>
<path fill-rule="evenodd" clip-rule="evenodd" d="M23.1842 13.7691C23.1842 13.7691 23.9205 14.3029 24.0887 14.4301C24.257 14.5572 24.8039 15.1165 24.846 15.0911C24.888 15.0657 25.1825 14.786 25.1825 14.786C25.1825 14.786 24.5725 14.2013 24.1939 14.0742C23.8153 13.947 23.1842 13.8199 23.1842 13.7691Z" fill="#FEC500" stroke="#6D6666" stroke-width="0.237"/>
<path fill-rule="evenodd" clip-rule="evenodd" d="M23.0791 13.1843C23.1422 13.1843 24.2991 13.8962 24.6567 14.2521C25.0142 14.608 25.1614 15.0657 25.2035 15.0657C25.2456 15.0657 25.7925 14.964 25.7714 14.964C25.7504 14.964 25.519 14.0487 24.9932 13.769C24.4674 13.4893 23.1001 13.1843 23.0791 13.1843ZM28.5268 11.345C28.5058 11.345 28.2954 12.1078 28.2324 12.3365C28.1692 12.5653 28.064 13.0484 28.064 13.0484C28.064 13.0484 27.1385 13.1501 27.1806 13.023C27.2227 12.8958 28.5899 11.345 28.5268 11.345Z" fill="#FEC500" stroke="#6D6666" stroke-width="0.237"/>
<path fill-rule="evenodd" clip-rule="evenodd" d="M23.2894 12.2689C23.2894 12.2689 24.3833 13.1588 24.7618 13.6673C25.1404 14.1758 25.5191 15.0657 25.5401 15.0657C25.5612 15.0657 26.5708 14.8114 26.5708 14.8368C26.5708 14.8623 25.3928 13.413 24.8249 12.9808C24.257 12.5486 23.3104 12.3198 23.2894 12.2689Z" fill="#FEC500" stroke="#6D6666" stroke-width="0.237"/>
<path fill-rule="evenodd" clip-rule="evenodd" d="M24.4253 12.0315C24.4253 12.0315 24.9721 13.0485 25.0773 13.4044C25.1825 13.7603 25.498 14.6757 25.498 14.6757H26.3604C26.3604 14.6757 25.9397 13.5316 25.477 12.9722C25.0142 12.4128 24.4463 12.0823 24.4253 12.0315Z" fill="#FEC500" stroke="#6D6666" stroke-width="0.237"/>
<path fill-rule="evenodd" clip-rule="evenodd" d="M24.7196 11.4721C24.7406 11.5483 25.5189 12.4382 25.7082 13.023C25.8975 13.6077 26.0448 14.3451 26.0448 14.3451L26.8019 14.1162C26.8019 14.1162 26.1289 12.6162 25.7082 12.2094C25.2875 11.8027 24.7617 11.5229 24.7196 11.4721ZM31.009 13.8707C31.009 13.8707 29.4314 14.0742 28.8635 14.2522C28.2956 14.4301 27.9801 15.0912 27.9801 15.0912C27.9801 15.0912 28.7163 15.4217 28.7584 15.3708C28.8004 15.32 29.2421 14.7861 29.7259 14.5827C30.2097 14.3792 31.051 13.8962 31.009 13.8707Z" fill="#FEC500" stroke="#6D6666" stroke-width="0.237"/>
<path fill-rule="evenodd" clip-rule="evenodd" d="M30.9457 12.6249C30.9036 12.6503 29.6416 13.8962 29.242 14.3029C28.8423 14.7097 28.4637 15.1419 28.4216 15.1673C28.3795 15.1927 27.6013 15.0402 27.6434 14.9893C27.6855 14.9385 28.8002 13.8452 29.5365 13.3622C30.2726 12.8792 30.8826 12.6757 30.9457 12.6249Z" fill="#FEC500" stroke="#6D6666" stroke-width="0.237"/>
<path fill-rule="evenodd" clip-rule="evenodd" d="M30.6303 11.7349C30.504 11.9128 29.263 13.1333 28.9265 13.5655C28.5899 13.9977 28.0431 14.7604 28.0431 14.7604C28.0431 14.7604 27.391 14.4045 27.4331 14.2519C27.4751 14.0994 28.3585 13.2096 28.9896 12.701C29.6206 12.1925 30.6934 11.7858 30.6303 11.7349Z" fill="#FEC500" stroke="#6D6666" stroke-width="0.237"/>
<path fill-rule="evenodd" clip-rule="evenodd" d="M29.3683 11.6332C29.3473 11.6586 28.6111 12.5993 28.4638 12.8535C28.3166 13.1078 27.8748 14.2265 27.8748 14.2265C27.8748 14.2265 27.2228 13.54 27.2228 13.5146C27.2228 13.4892 28.0432 12.4468 28.5269 12.0399C29.0108 11.6332 29.3893 11.7094 29.3683 11.6332Z" fill="#FEC500" stroke="#6D6666" stroke-width="0.237"/>
<path fill-rule="evenodd" clip-rule="evenodd" d="M27.5447 13.0223C27.5447 13.201 27.4248 13.3458 27.2769 13.3458C27.129 13.3458 27.0092 13.201 27.0092 13.0223C27.0092 12.8435 27.129 12.6987 27.2769 12.6987C27.4248 12.6987 27.5447 12.8435 27.5447 13.0223ZM28.0801 13.4539C28.0801 13.6128 27.9603 13.7416 27.8123 13.7416C27.6645 13.7416 27.5447 13.6128 27.5447 13.4539C27.5447 13.2951 27.6645 13.1663 27.8123 13.1663C27.9603 13.1663 28.0801 13.2951 28.0801 13.4539ZM26.8903 13.1302C26.8903 13.289 26.7438 13.4178 26.563 13.4178C26.3823 13.4178 26.2358 13.289 26.2358 13.1302C26.2358 12.9713 26.3823 12.8425 26.563 12.8425C26.7438 12.8425 26.8903 12.9713 26.8903 13.1302Z" fill="#FEC500" stroke="#6D6666" stroke-width="0.2525"/>
<path fill-rule="evenodd" clip-rule="evenodd" d="M27.753 13.7236C27.753 14.0314 27.5865 14.2809 27.3812 14.2809C27.1758 14.2809 27.0094 14.0314 27.0094 13.7236C27.0094 13.4157 27.1758 13.1663 27.3812 13.1663C27.5865 13.1663 27.753 13.4158 27.753 13.7236ZM26.7417 13.7415C26.7417 13.9798 26.5752 14.173 26.3699 14.173C26.1645 14.173 25.998 13.9798 25.998 13.7415C25.998 13.5032 26.1645 13.3101 26.3699 13.3101C26.5752 13.3101 26.7417 13.5032 26.7417 13.7415Z" fill="#FEC500" stroke="#6D6666" stroke-width="0.2525"/>
<path fill-rule="evenodd" clip-rule="evenodd" d="M26.236 14.0833C26.236 14.2918 26.1094 14.4609 25.9534 14.4609C25.7974 14.4609 25.6708 14.2918 25.6708 14.0833C25.6708 13.8748 25.7973 13.7058 25.9534 13.7058C26.1094 13.7058 26.236 13.8748 26.236 14.0833ZM28.3182 14.0471C28.3182 14.2954 28.1251 14.4965 27.8869 14.4965C27.6487 14.4965 27.4555 14.2954 27.4555 14.0471C27.4555 13.7989 27.6487 13.5977 27.8869 13.5977C28.1251 13.5977 28.3182 13.7989 28.3182 14.0471ZM27.2772 13.3999C27.2772 13.5488 27.124 13.6695 26.9351 13.6695C26.7462 13.6695 26.593 13.5488 26.593 13.3999C26.593 13.2509 26.7462 13.1302 26.9351 13.1302C27.124 13.1302 27.2772 13.2509 27.2772 13.3999Z" fill="#FEC500" stroke="#6D6666" stroke-width="0.2525"/>
<path fill-rule="evenodd" clip-rule="evenodd" d="M27.3365 13.9932C27.3365 14.2117 27.1233 14.3887 26.8605 14.3887C26.5976 14.3887 26.3846 14.2117 26.3846 13.9932C26.3846 13.7748 26.5976 13.5977 26.8605 13.5977C27.1233 13.5977 27.3365 13.7748 27.3365 13.9932ZM28.556 14.6942C28.556 14.9624 28.3562 15.1797 28.1098 15.1797C27.8634 15.1797 27.6636 14.9623 27.6636 14.6942C27.6636 14.4262 27.8634 14.2089 28.1098 14.2089C28.3562 14.2089 28.556 14.4262 28.556 14.6942ZM26.1169 14.5684C26.1169 14.7472 26.0036 14.892 25.8641 14.892C25.7244 14.892 25.6111 14.7472 25.6111 14.5684C25.6111 14.3897 25.7244 14.2448 25.8641 14.2448C26.0037 14.2448 26.1169 14.3897 26.1169 14.5684Z" fill="#FEC500" stroke="#6D6666" stroke-width="0.2525"/>
<path fill-rule="evenodd" clip-rule="evenodd" d="M27.9016 14.5146C27.9016 14.743 27.7284 14.9282 27.5148 14.9282C27.3013 14.9282 27.1282 14.743 27.1282 14.5146C27.1282 14.2862 27.3013 14.1011 27.5148 14.1011C27.7284 14.1011 27.9016 14.2862 27.9016 14.5146ZM26.682 14.4967C26.682 14.6952 26.5288 14.8562 26.34 14.8562C26.151 14.8562 25.9979 14.6952 25.9979 14.4967C25.9979 14.2981 26.1511 14.1372 26.34 14.1372C26.5289 14.1372 26.682 14.2982 26.682 14.4967Z" fill="#FEC500" stroke="#6D6666" stroke-width="0.2525"/>
<path fill-rule="evenodd" clip-rule="evenodd" d="M27.2772 14.6043C27.2772 14.8228 27.1174 14.9998 26.9202 14.9998C26.7231 14.9998 26.5632 14.8228 26.5632 14.6043C26.5632 14.3858 26.7231 14.2088 26.9202 14.2088C27.1174 14.2088 27.2772 14.3858 27.2772 14.6043ZM25.7302 12.2313C25.8194 12.2313 26.4441 12.4829 26.4441 12.4829C26.4441 12.4829 25.6707 12.8425 25.7897 12.8066C25.9087 12.7706 26.6523 12.6628 26.5928 12.6628C26.5333 12.6628 25.9384 13.3459 26.1169 13.3099C26.2953 13.274 26.6523 12.8425 26.6821 12.8425C26.7118 12.8425 27.0687 13.5257 27.0985 13.4897C27.1282 13.4538 27.0985 12.8066 27.1282 12.8066C27.158 12.8066 27.8719 13.238 27.8124 13.2021C27.753 13.1661 27.3365 12.6628 27.3662 12.6628C27.396 12.6628 28.3479 12.7706 28.2884 12.7346C28.2289 12.6987 27.6637 12.3751 27.6637 12.3751C27.6637 12.3751 28.0802 11.9077 27.9909 11.9077C27.9017 11.9077 27.2175 12.3751 27.277 12.3391C27.3365 12.3032 28.0207 11.3683 28.0207 11.3683L27.3365 11.7638C27.3365 11.7638 27.4555 11.1886 27.396 11.2245C27.3365 11.2604 26.8606 11.9796 26.8308 11.9796C26.8011 11.9796 26.6821 11.2604 26.6821 11.2604C26.6821 11.2604 26.7118 12.0515 26.5333 12.0874C26.3548 12.1234 25.7302 12.2673 25.7302 12.2313Z" fill="#FEC500" stroke="#6D6666" stroke-width="0.2525"/>
<path fill-rule="evenodd" clip-rule="evenodd" d="M23.7925 18.0447C23.8073 18.1166 24.2833 19.411 25.0121 19.375C25.741 19.339 26.0384 19.1233 26.0086 19.1053C25.9789 19.0873 25.6666 18.8717 25.4881 18.4042C25.3096 17.9368 25.2798 17.739 25.2798 17.739L23.7925 18.0447ZM26.3954 17.5413C26.3954 17.5413 26.9308 18.8177 27.1687 18.9974C27.4068 19.1773 27.9571 19.3211 28.1951 19.3031C28.4331 19.2851 28.7156 19.3031 28.7156 19.3031C28.7156 19.3031 28.4777 19.1773 28.2843 18.4761C28.0909 17.7749 28.0315 17.5413 28.0315 17.5413H26.3954ZM29.6676 18.0087C29.6676 18.0087 29.5634 18.9435 29.6676 19.1773C29.7717 19.411 30.2922 19.8424 30.2922 19.8424C30.2922 19.8424 30.9169 19.7525 30.9318 19.1773C30.9466 18.6019 30.7236 18.0626 30.7236 18.0626L29.6676 18.0087Z" fill="#00389B"/>
<path fill-rule="evenodd" clip-rule="evenodd" d="M23.2866 16.3728C23.2866 16.3728 23.3163 16.5166 23.2866 16.6245C23.2567 16.7324 23.0039 17.02 23.0039 17.2537C23.0039 17.4874 23.3014 18.2065 24.2087 18.2245C25.1159 18.2424 26.2612 17.6313 26.2463 17.6133C26.2315 17.5953 24.0748 15.8514 24.0452 15.8693C24.0155 15.8873 23.2866 16.4086 23.2866 16.3728ZM29.2805 17.6133C29.2805 17.6133 29.4738 18.2424 29.5482 18.3143C29.6225 18.3863 29.6522 18.5301 29.6672 18.5301C29.682 18.5301 30.9165 18.8537 30.9165 18.8537C30.9165 18.8537 31.0355 18.4403 30.857 18.1166C30.6785 17.793 30.0092 16.948 30.0092 16.948L29.2805 17.6133ZM30.1283 16.8402C30.158 16.8402 30.4555 17.1458 30.6935 16.984C30.9314 16.8222 31.3182 16.3908 31.3182 16.3908C31.3182 16.3908 30.9909 16.5166 30.753 16.4986C30.515 16.4806 30.1432 16.8582 30.1283 16.8402Z" fill="#005120" stroke="black" stroke-width="0.2525"/>
<path fill-rule="evenodd" clip-rule="evenodd" d="M23.2419 16.4447C23.2419 16.4447 23.1526 16.139 22.9147 16.1211C22.6767 16.1031 22.2454 16.157 22.0966 16.0132C21.9479 15.8693 21.9033 15.5277 21.829 15.5457C21.7546 15.5637 21.5612 15.5457 21.5463 15.5457C21.5315 15.5457 21.4571 15.2581 21.6653 15.1142C21.8736 14.9704 22.0521 15.0962 22.171 14.9884C22.29 14.8806 22.4685 14.8087 22.7065 14.7907C22.9445 14.7727 23.3311 15.1502 23.5096 15.2401C23.6881 15.33 24.0748 15.4378 24.2236 15.348C24.3723 15.2581 25.2052 14.8626 25.5026 14.8446C25.8001 14.8266 26.4248 14.8087 26.6628 14.8266C26.9007 14.8446 27.8378 14.9884 28.1204 15.1502C28.403 15.312 29.9051 15.9412 30.1134 16.0851C30.3216 16.2289 30.7827 16.4446 30.7827 16.4446C30.7827 16.4446 29.9646 17.4154 29.5631 17.5772C29.1615 17.739 27.8824 17.9907 27.1238 17.9367C26.3653 17.8828 25.7704 17.7929 25.1903 17.4334C24.6101 17.0739 23.9853 16.7323 23.9556 16.5525C23.926 16.3727 23.9408 16.139 23.9408 16.139L23.2418 16.4447H23.2419Z" fill="#005120" stroke="black" stroke-width="0.2525"/>
<path fill-rule="evenodd" clip-rule="evenodd" d="M22.3197 15.2761C22.2899 15.2941 22.1412 15.366 22.1709 15.4019C22.2007 15.4379 22.2602 15.5458 22.4387 15.5278C22.6171 15.5098 22.8104 15.3839 22.8104 15.3839C22.8104 15.3839 22.5873 15.2581 22.3197 15.2761Z" fill="#005120" stroke="black" stroke-width="0.2525"/>
<path fill-rule="evenodd" clip-rule="evenodd" d="M22.3048 15.3121V15.5098C22.3048 15.5098 22.513 15.5817 22.513 15.5277C22.513 15.4738 22.5279 15.348 22.4832 15.348C22.4386 15.348 22.3196 15.33 22.3048 15.3121Z" fill="black" stroke="black" stroke-width="0.2525"/>
<path fill-rule="evenodd" clip-rule="evenodd" d="M24.3868 15.4615C24.4394 15.3471 24.3868 15.1946 24.6918 15.0166C24.9967 14.8386 25.5279 14.8895 25.5279 14.8895C25.5279 14.8895 25.3754 15.0293 25.3701 15.1755C25.3649 15.3217 25.3806 15.3852 25.3806 15.3852C25.3806 15.3852 25.0914 15.2708 24.8706 15.3407C24.6497 15.4107 24.3921 15.4806 24.3868 15.4615ZM25.7542 14.8386C25.7226 14.8577 25.4913 15.1692 25.5176 15.2645C25.5439 15.3598 25.8541 15.5887 25.9541 15.5696C26.054 15.5505 26.5114 15.2836 26.5377 15.1501C26.5641 15.0166 26.5851 14.8386 26.5482 14.8005C26.5114 14.7623 25.7595 14.8513 25.7542 14.8386ZM26.7586 14.7877C26.7007 14.8577 26.7218 15.1946 26.7428 15.2327C26.7639 15.2708 27.1267 15.7094 27.2056 15.7348C27.2845 15.7602 27.8681 15.6903 27.9155 15.6141C27.9628 15.5378 28.1048 15.2137 28.0627 15.1373C28.0206 15.0611 27.8944 14.9594 27.5053 14.8577C27.1162 14.756 26.8848 14.7687 26.7586 14.7877ZM28.2466 15.2137C28.3412 15.2708 28.8933 15.595 29.2194 15.8556C29.5454 16.1162 29.6768 16.4149 29.7715 16.4403C29.8661 16.4657 30.2501 16.1861 30.2658 16.1098C30.2816 16.0336 29.7978 15.6268 29.4718 15.4425C29.1457 15.2582 28.2466 15.2327 28.2466 15.2137ZM28.1309 15.487C28.0836 15.5378 28.7199 16.8789 28.8408 16.9234C28.9617 16.9679 29.6874 16.6628 29.6769 16.5612C29.6664 16.4595 29.4771 16.2561 29.0301 15.9573C28.5832 15.6586 28.2205 15.4615 28.1309 15.487ZM27.3421 15.9763C27.2422 16.0462 27.0845 17.2476 27.1844 17.3048C27.2843 17.362 28.5148 17.1586 28.5621 17.0252C28.6095 16.8917 28.0573 15.8302 27.8943 15.8302C27.7313 15.8302 27.4368 15.881 27.3421 15.9763ZM26.0696 15.7222C25.9381 15.8683 25.9645 16.987 26.0223 17.0569C26.0801 17.1268 26.8111 17.3557 26.89 17.273C26.9689 17.1903 27.0741 15.9318 27.0004 15.8365C26.9268 15.7412 26.7217 15.5123 26.564 15.4933C26.4061 15.4742 26.1432 15.6776 26.0696 15.7222ZM24.4185 15.7031C24.2976 15.8175 24.2923 16.1162 24.4237 16.1671C24.5552 16.2179 24.8812 16.3895 25.1862 16.5484C25.4912 16.7073 25.6648 16.898 25.7541 16.8917C25.8436 16.8852 25.9277 15.7667 25.8331 15.7031C25.7384 15.6395 25.4596 15.5887 25.1967 15.6013C24.9338 15.6141 24.55 15.6458 24.4185 15.7031Z" fill="#001707" stroke="#000007" stroke-width="0.2525"/>
<path fill-rule="evenodd" clip-rule="evenodd" d="M18.998 29.9334C19.2138 29.7234 19.5493 29.2099 20.0048 29.1866C20.4603 29.1632 20.9398 29.5833 20.9398 29.5833C20.9398 29.5833 21.4191 31.544 21.3952 31.544C21.3712 31.544 20.6041 32.1042 20.5802 32.1042C20.5562 32.1042 20.2445 31.3339 19.9568 31.4038C19.6693 31.4739 19.6932 32.5242 19.6453 32.4542C19.5973 32.3842 18.3748 30.9371 18.4228 30.8904C18.4708 30.8437 19.0221 30.0036 18.9981 29.9335L18.998 29.9334ZM31.6555 29.6767C31.7993 29.6533 32.4466 29.1631 32.902 29.1865C33.3575 29.2098 33.6212 29.4198 33.8608 29.6299C34.1005 29.84 34.3883 30.3767 34.3883 30.3767C34.3883 30.3767 33.8129 31.9639 33.765 31.9639C33.7171 31.9639 33.4773 32.104 33.4293 31.9872C33.3813 31.8705 33.2377 31.4971 32.9499 31.4504C32.6623 31.4037 32.5903 31.9638 32.5903 31.9638L31.6556 29.6766L31.6555 29.6767Z" fill="#D40F0F" fill-opacity="0.996"/>
<path fill-rule="evenodd" clip-rule="evenodd" d="M31.9669 30.1672C31.9669 30.3074 32.8538 32.5014 34.2921 32.9214C35.7303 33.3415 36.1858 32.5247 36.3536 32.2446C36.5213 31.9645 37.1206 31.9879 37.1206 31.9879C37.1206 31.9879 36.9769 34.0418 36.7371 34.2985C36.4974 34.5552 36.3056 35.1154 34.9632 35.1387C33.621 35.1621 32.3984 33.8784 31.991 33.5049C31.5833 33.1314 31.056 32.1512 30.8401 31.7077C30.6246 31.2643 31.991 30.214 31.9669 30.1672ZM16.3372 34.5312C16.3612 34.5312 16.9845 35.2081 17.8953 35.138C18.8062 35.0681 20.3644 34.5312 21.0835 33.5976C21.8026 32.6641 22.1621 31.6603 22.1621 31.6603C22.1621 31.6603 21.1075 29.7932 21.0835 29.7932C21.0595 29.7932 20.9636 30.4 20.7718 30.7967C20.5801 31.1936 20.0526 32.3138 19.1658 32.6641C18.2788 33.0141 18.2788 33.1541 17.9193 33.1074C17.5597 33.0607 16.6249 32.5007 16.6249 32.4772C16.6249 32.4539 16.1695 33.5743 16.1695 33.5743C16.1695 33.5743 16.0736 34.2978 16.3372 34.5312V34.5312Z" fill="#FDDC59" fill-opacity="0.996"/>
<path fill-rule="evenodd" clip-rule="evenodd" d="M18.9818 29.8686C18.914 29.8686 17.219 30.7928 17.2868 31.1889C17.3546 31.585 20.2023 37.1963 26.304 37.2623C32.4059 37.3284 36.1352 32.1791 35.8639 31.3209C35.5927 30.4628 33.6944 29.4725 33.6944 29.4725C33.6944 29.4725 34.1689 29.8686 34.1012 30.3967C34.0333 30.9248 31.9315 35.48 26.6431 35.348C21.3547 35.2159 18.846 31.189 18.846 30.7269C18.846 30.2648 19.1172 30.0007 18.9817 29.8687L18.9818 29.8686Z" fill="#FDDC59" fill-opacity="0.996"/>
<path fill-rule="evenodd" clip-rule="evenodd" d="M35.5142 33.9483C35.6581 33.8317 36.545 31.4042 37.0483 31.4743C37.5518 31.5443 37.3841 32.2678 37.3361 32.4546C37.2882 32.6412 36.7847 34.3218 36.7847 34.3218C36.7847 34.3218 36.8087 33.925 36.4731 33.8317C36.1376 33.7383 35.5862 33.9951 35.5142 33.9484L35.5142 33.9483ZM16.3372 34.5559C16.3372 34.424 15.9304 33.9618 16.405 33.8297C16.8797 33.6978 17.4899 33.9618 17.4899 33.9618C17.4899 33.9618 17.1508 32.9716 16.7441 32.1793C16.3372 31.3872 16.2016 31.5193 15.8627 31.6512C15.5237 31.7833 15.5318 32.1327 15.7353 32.6608C15.9387 33.189 16.3372 34.688 16.3372 34.5559Z" fill="#D40F0F" fill-opacity="0.996"/>
<path fill-rule="evenodd" clip-rule="evenodd" d="M21.9313 30.0289L22.5199 28.0353L20.8853 26.7822L22.9326 26.7349L23.6003 24.7676L24.2772 26.7316L26.3244 26.7695L24.6953 28.0303L25.2928 30.0209L23.6094 28.8362L21.9313 30.0289Z" fill="#FDC400"/>
<path fill-rule="evenodd" clip-rule="evenodd" d="M32.9697 19.6528V27.3228C32.9847 31.0714 29.1622 34.3539 26.6241 34.9928C24.0857 34.3539 20.2634 31.0714 20.2785 27.3231V19.6531H32.9697V19.6528Z" fill="white"/>
<path fill-rule="evenodd" clip-rule="evenodd" d="M20.2783 19.6529L20.2892 24.4519C20.2892 24.4519 20.3502 24.3537 21.1848 24.4135C22.0196 24.4734 22.0913 25.4715 22.9978 25.4715C23.9043 25.4715 23.9043 24.4135 24.8108 24.4135C25.7173 24.4135 25.7173 25.4715 26.6238 25.4715C27.5303 25.4715 27.5303 24.4135 28.4368 24.4135C29.3433 24.4135 29.3433 25.4715 30.3011 25.532C31.1563 25.4715 31.1563 24.4135 32.0679 24.3537L32.9693 24.4135V19.6528H20.2784L20.2783 19.6529Z" fill="#D40F0F" fill-opacity="0.996" stroke="black" stroke-width="0.248"/>
<path fill-rule="evenodd" clip-rule="evenodd" d="M20.2783 26.0005V27.5874H21.1849C22.0196 27.6473 22.0914 28.6453 22.9979 28.6453C23.9044 28.6453 23.9044 27.5874 24.8109 27.5874C25.7174 27.5874 25.7174 28.6453 26.624 28.6453C27.5306 28.6453 27.5305 27.5874 28.437 27.5874C29.3435 27.5874 29.2922 28.5848 30.25 28.6453C31.1052 28.5848 31.1514 27.6473 32.0631 27.5874H32.9696V26.0005H32.0631C31.1565 26.0005 31.1565 27.0584 30.25 27.0584C29.3435 27.0584 29.3435 26.0005 28.437 26.0005C27.5305 26.0005 27.5305 27.0583 26.624 27.0583C25.7174 27.0583 25.7174 26.0004 24.8109 26.0004C23.9044 26.0004 23.9044 27.0583 22.9979 27.0583C22.0914 27.0583 22.0914 26.0004 21.1849 26.0004H20.2783V26.0005ZM20.5519 29.174L21.1849 30.7609C22.0197 30.8208 22.0914 31.8188 22.998 31.8188C23.9045 31.8188 23.9045 30.7609 24.811 30.7609C25.7175 30.7609 25.7175 31.8188 26.624 31.8188C27.5305 31.8188 27.5306 30.7609 28.4371 30.7609C29.3436 30.7609 29.2923 31.7584 30.2501 31.8188C31.1053 31.7583 31.1304 30.8208 32.0421 30.7609L32.6962 29.1495L32.0631 29.174C31.1566 29.174 31.1566 30.2319 30.2501 30.232C29.3436 30.232 29.3436 29.174 28.4371 29.174C27.5306 29.174 27.5306 30.2319 26.624 30.2319C25.7175 30.2319 25.7175 29.174 24.811 29.174C23.9045 29.174 23.9045 30.2319 22.998 30.2319C22.0915 30.2319 22.0915 29.174 21.1849 29.174H20.5519ZM26.6242 34.9926C27.5307 34.9926 29.6077 33.4057 29.5865 33.4057C29.6076 33.4057 29.3437 32.3478 28.4372 32.3478C27.5307 32.3478 27.5307 33.4057 26.6241 33.4057C25.7176 33.4057 25.7176 32.3478 24.8111 32.3478C23.9046 32.3478 23.6732 33.4057 23.6711 33.4057C23.6291 33.4057 25.7176 34.9926 26.624 34.9926H26.6242Z" fill="#0062BB" fill-opacity="0.996"/>
<path fill-rule="evenodd" clip-rule="evenodd" d="M21.9377 23.3148C22.0405 23.3148 22.9658 23.4489 23.6339 23.4043C24.3021 23.3595 24.5592 23.1358 24.5592 23.0912V22.957H25.433C25.433 22.957 25.5871 23.5831 25.4844 23.6277C25.3816 23.6725 25.1246 23.8514 25.0731 23.8514C25.0217 23.8514 25.0732 23.5383 24.9703 23.6277C24.8676 23.7172 24.8162 23.8514 24.8162 23.8514C24.8162 23.8514 24.7134 23.7172 24.662 23.7172C24.6106 23.7172 24.5078 23.8514 24.5078 23.8514C24.5078 23.8514 24.5078 23.7172 24.4563 23.7172C24.4049 23.7172 24.148 23.9408 24.148 23.9408L23.891 23.7619C23.891 23.7619 23.7367 23.9856 23.6853 23.9856C23.6339 23.9856 23.3256 23.8067 23.3256 23.8067L22.8115 24.075C22.8115 24.075 22.8115 23.6725 22.7087 23.7172C22.606 23.7619 22.0405 23.7619 22.0405 23.7619C22.0405 23.7619 21.8862 24.0303 21.8348 24.0303C21.7834 24.0303 21.5778 23.8067 21.6292 23.8067C21.6806 23.8067 21.7834 23.6725 21.7321 23.6277C21.6807 23.5831 21.4237 23.6278 21.4237 23.5831C21.4237 23.5383 21.3209 23.27 21.3723 23.27C21.4236 23.27 21.6292 23.3148 21.6292 23.3148V23.0464H21.8862L21.9377 23.3148Z" fill="#FDC400" fill-opacity="0.996" stroke="black" stroke-width="0.4905"/>
<path fill-rule="evenodd" clip-rule="evenodd" d="M22.8629 20.7656C22.8115 20.7656 22.4516 21.1234 22.5031 21.5257C22.5544 21.9282 23.4283 22.5096 23.4283 22.5096C23.4283 22.5096 23.891 22.3307 24.0451 22.5096C24.1993 22.6884 24.1993 23.2251 24.148 23.2251C24.0966 23.2251 23.4797 23.3593 23.4797 23.2697C23.4797 23.1803 23.4797 23.0909 23.4283 23.0909C23.377 23.0909 22.8115 23.1356 22.8115 23.1356L22.8629 22.9568L22.349 22.8674L22.5546 22.6884C22.5546 22.6884 21.7321 22.3755 21.7834 22.3755C21.8348 22.3755 22.1433 22.1967 22.1433 22.1967L21.5265 21.8387H21.8863C21.8863 21.8387 21.3723 21.4809 21.4236 21.4809C21.475 21.4809 21.7321 21.5256 21.7321 21.5256L21.5778 21.168H21.7321L21.5778 20.8996L21.8348 20.8102L21.9891 21.0337L21.9377 20.4971L22.2975 20.5419V20.989C22.2975 20.989 22.4516 20.7207 22.4516 20.6761C22.4516 20.6313 22.9143 20.855 22.8629 20.7656Z" fill="#FDC400" fill-opacity="0.996" stroke="black" stroke-width="0.4905"/>
<path fill-rule="evenodd" clip-rule="evenodd" d="M30.8304 23.5377C30.7662 23.5937 30.5733 23.7166 30.5733 23.7166C30.5733 23.7166 31.0103 23.6831 30.9975 23.6831C30.9847 23.6831 30.8433 23.5712 30.8304 23.5377ZM31.203 23.7498C31.1774 23.7834 31.1002 24.13 31.1517 24.1076C31.203 24.0852 31.4086 23.8281 31.4086 23.8281L31.203 23.7498ZM31.7932 23.7945C31.8574 23.8503 32.153 24.1074 32.1144 24.0515C32.0759 23.9957 32.0373 23.7608 32.0117 23.7498C31.9858 23.7386 31.8188 23.8167 31.7932 23.7945ZM26.6153 23.4257C26.5768 23.4369 26.2556 23.6493 26.2556 23.6493C26.2556 23.6493 26.7953 23.5598 26.7695 23.5598C26.7439 23.5598 26.6025 23.4593 26.6153 23.4257ZM26.9492 23.6944C26.8978 23.7391 26.7308 24.0521 26.795 24.041C26.8593 24.0297 27.142 23.8285 27.142 23.8285L26.9492 23.6943L26.9492 23.6944ZM26.7429 23.2582C26.7044 23.247 26.4344 23.1352 26.4473 23.1352C26.4602 23.1352 26.8072 23.0569 26.8072 23.0569L26.7429 23.2582ZM21.6548 23.1135L21.2693 22.8452L21.7577 22.9793L21.6548 23.1135ZM21.3207 23.2919C21.2693 23.2919 20.781 23.5602 20.7938 23.5602C20.8067 23.5602 21.4749 23.5713 21.4621 23.5602C21.4492 23.5491 21.3464 23.3144 21.3207 23.2919ZM21.6291 23.6835C21.5777 23.706 21.1922 23.963 21.2178 23.963C21.2436 23.963 21.7962 23.9742 21.7962 23.963C21.7962 23.9518 21.6419 23.6947 21.6291 23.6835ZM21.5777 20.8993C21.5777 20.8993 21.4363 20.5863 21.4492 20.5863C21.462 20.5863 21.809 20.8322 21.809 20.8322L21.5777 20.8993ZM21.9632 20.508C21.9632 20.4968 22.0017 20.3068 22.0017 20.3068C22.0017 20.3068 22.3487 20.5416 22.3358 20.5416C22.323 20.5416 21.9888 20.5416 21.9632 20.508ZM22.5029 20.6533C22.5029 20.6422 22.5415 20.3627 22.5415 20.3627C22.5415 20.3627 22.8627 20.7428 22.8371 20.754C22.8113 20.7652 22.5287 20.6982 22.5029 20.6533Z" fill="black" fill-opacity="0.996"/>
<path fill-rule="evenodd" clip-rule="evenodd" d="M27.6558 22.6095C27.6558 22.6318 28.1955 23.0119 28.2084 23.1014C28.2212 23.1908 27.2317 23.2132 27.2317 23.2132C27.2317 23.2132 26.949 23.0232 26.8591 23.0342C26.769 23.0455 26.7305 23.2355 26.7305 23.2355L26.9618 23.3473L26.5249 23.3697L26.6535 23.5821L26.9876 23.5597L26.9104 23.7609C26.9104 23.7609 27.116 23.8952 27.1547 23.8727C27.1932 23.8505 27.3217 23.6492 27.4245 23.6156C27.5272 23.5821 27.7457 23.5821 27.7457 23.5821C27.7457 23.5821 27.5787 23.8281 27.6558 23.8281C27.7328 23.8281 28.0798 23.5709 28.0798 23.5709C28.0798 23.5709 28.157 23.8057 28.1697 23.8057C28.1826 23.8057 28.4268 23.5374 28.4268 23.5374C28.4268 23.5374 28.4268 23.7498 28.4653 23.7498C28.5038 23.7498 28.8637 23.4815 28.8637 23.4815C28.8637 23.4815 29.1464 23.7946 29.1849 23.7722C29.2236 23.7498 29.2621 23.4367 29.3006 23.4367C29.3392 23.4367 29.5833 23.4032 29.5833 23.3921C29.5833 23.3808 29.4292 23.269 29.4034 23.1126C29.3777 22.9561 29.4292 22.5872 29.4162 22.5872C29.4034 22.5872 27.6814 22.643 27.6558 22.6095Z" fill="#FDC400" fill-opacity="0.996" stroke="black" stroke-width="0.4905"/>
<path fill-rule="evenodd" clip-rule="evenodd" d="M24.9187 21.9285H29.9561C30.4701 21.9285 30.9327 21.7497 30.9327 21.4813C30.9327 21.213 30.1103 21.1683 29.8019 21.2578C29.4934 21.3472 28.157 21.8838 27.5915 21.8391C27.0261 21.7943 26.5122 21.4813 26.4608 21.1683C26.4093 20.8553 26.7178 20.587 27.2832 20.587C27.8486 20.587 28.5683 20.7658 28.7224 20.7211C28.8766 20.6764 29.2364 20.3186 29.3907 20.274C29.5448 20.2292 30.0075 20.1845 30.0075 20.1845L29.8019 20.3186L30.4701 20.1845C30.4701 20.1845 29.9561 20.6764 29.442 20.8105C28.928 20.9448 27.8486 20.8999 27.4373 20.8999C27.0261 20.8999 26.8205 20.8553 26.8719 21.1236C26.9233 21.3918 27.2318 21.5708 27.4888 21.526C27.7458 21.4813 28.5168 21.2578 28.5168 21.2578L28.3112 21.1236L29.2364 21.0789C29.2364 21.0789 29.1851 20.9448 29.2364 20.9448C29.2878 20.9448 29.7505 20.9894 29.7505 20.9894C29.7505 20.9894 29.442 20.8553 29.4934 20.8553C29.5448 20.8553 29.7505 20.8553 30.1617 20.9001C30.5729 20.9447 31.4467 21.0789 31.3953 21.4366C31.3439 21.7943 31.0356 22.1073 30.6757 22.1073C30.3158 22.1073 30.0075 22.0179 30.0075 22.1522C30.0075 22.2863 30.4188 22.3758 30.6757 22.3758C30.9327 22.3758 31.2411 22.1968 31.2925 22.1968C31.3439 22.1968 31.4467 22.4652 31.4981 22.4652C31.5495 22.4652 31.8579 22.3758 31.8579 22.3758L31.6524 22.8677L32.0122 22.9571C32.0122 22.9571 31.8066 23.1359 31.8579 23.1359C31.9093 23.1359 32.2177 23.1359 32.2177 23.1806C32.2177 23.2253 31.8066 23.4937 31.8066 23.5384C31.8066 23.5831 32.1149 23.7173 32.1149 23.7173C32.1149 23.7173 31.9093 23.9856 31.8579 23.9409C31.8066 23.8962 31.6008 23.6725 31.6008 23.6725C31.6008 23.6725 31.5495 23.8515 31.4467 23.8515C31.3439 23.8515 31.1383 23.8068 31.1383 23.8068C31.1383 23.8068 31.2925 23.5384 31.2411 23.5384C31.1898 23.5384 30.9327 23.7173 30.9327 23.6725L30.7786 23.5381C30.7786 23.5381 31.1898 23.3928 31.1898 23.1803C31.1898 22.9679 31.0227 22.7555 30.2774 22.722C29.5321 22.6883 29.5192 22.8784 28.9666 22.8561C28.4141 22.8337 28.4141 22.6437 28.0028 22.6437C27.5917 22.6437 26.3193 23.0908 25.7283 23.0797C25.1373 23.0686 24.3918 23.0349 24.4175 23.0127C24.4433 22.9903 24.9059 21.9617 24.9187 21.9285Z" fill="#FDC400" fill-opacity="0.996" stroke="black" stroke-width="0.4905"/>
<path fill-rule="evenodd" clip-rule="evenodd" d="M23.9424 21.6711C23.8909 21.6935 23.4412 21.7494 23.4154 22.163C23.3898 22.5767 23.454 22.5767 23.5054 22.5543C23.5568 22.532 23.6596 22.1742 23.6596 22.1742C23.6596 22.1742 23.5054 22.6662 23.6724 22.778C23.7793 22.8477 23.8963 22.9005 24.0194 22.9344L24.0836 22.5431C24.0836 22.5431 23.9552 22.9233 24.2635 23.0574C24.572 23.1916 24.6877 23.0909 24.6619 22.9903C24.6363 22.8897 24.5463 22.6327 24.5463 22.6327C24.5463 22.6327 24.7904 22.8674 24.8034 22.8897C24.8161 22.9121 24.9318 23.0909 25.2403 23.0127C25.5486 22.9344 25.3302 22.7556 25.3302 22.7556L24.9575 22.488C24.9575 22.488 25.343 22.8344 25.5101 22.7115C25.6771 22.5886 25.3815 22.3202 25.3944 22.3314C25.4073 22.3427 25.6386 22.7115 25.7285 22.4767C25.8184 22.242 25.5873 22.1749 25.5101 21.9513C25.4329 21.7277 25.3687 21.7054 25.4458 21.5712C25.5229 21.437 25.5358 21.1799 25.5358 21.1799C25.5358 21.1799 25.8571 21.247 25.8314 21.0122C25.8057 20.7775 25.4843 20.7216 25.4202 20.7103C25.3559 20.6992 25.3687 20.4645 25.343 20.4756C25.3173 20.4867 25.1117 20.6209 25.1117 20.6209C25.1117 20.6209 24.9318 20.2519 24.8933 20.2743C24.8548 20.2967 24.649 20.4867 24.4948 20.4979C24.3407 20.5091 24.2507 20.6992 24.2507 20.6992C24.2507 20.6992 23.711 20.4756 23.7238 20.8445C23.7368 21.2135 24.0451 21.1241 24.0451 21.1352C24.0451 21.1462 23.9937 21.6495 23.9424 21.6717V21.6711Z" fill="#FDC400" fill-opacity="0.996" stroke="black" stroke-width="0.4905"/>
<path fill-rule="evenodd" clip-rule="evenodd" d="M24.2394 21.1048C24.3012 21.0858 24.3921 21.0069 24.4975 21.0164C24.603 21.0259 24.7718 21.1068 24.6882 21.151C24.6045 21.1952 24.5428 21.2142 24.4482 21.1919C24.3538 21.1697 24.2811 21.1222 24.2394 21.1048ZM25.2875 21.0936C25.2257 21.0747 25.1348 20.9957 25.0294 21.0053C24.924 21.0148 24.7552 21.0957 24.8388 21.1398C24.9225 21.184 24.9842 21.2029 25.0788 21.1807C25.1731 21.1585 25.2458 21.111 25.2875 21.0936Z" fill="black" fill-opacity="0.996"/>
<path fill-rule="evenodd" clip-rule="evenodd" d="M24.4736 21.7537C24.4865 21.8096 24.525 22.2792 24.5506 22.2456C24.5764 22.2121 24.7692 21.7648 24.7563 21.7648C24.7435 21.7648 24.4865 21.7761 24.4736 21.7537Z" fill="#000039" fill-opacity="0.996" stroke="black" stroke-width="0.2945"/>
<path d="M24.3449 21.7695C24.3509 21.6373 24.4476 21.6466 24.6534 21.6689C24.8589 21.6913 24.9617 21.7808 24.9488 21.8031C24.936 21.8254 24.7689 21.8813 24.6275 21.8702C24.4605 21.8254 24.3402 21.8798 24.3449 21.7695Z" fill="black" stroke="black" stroke-width="0.589"/>
<path d="M25.5153 20.8637C25.5153 20.8637 25.6823 20.9309 25.6567 20.9979C25.6308 21.065 25.5153 21.0985 25.5153 21.0985M24.1148 20.8078C24.0763 20.8191 24.0248 20.8413 23.9991 20.9307C23.9734 21.0203 24.1148 21.0762 24.1148 21.0762M24.5168 21.2758C24.5168 21.2758 24.335 21.434 24.644 21.434C24.9529 21.434 24.7348 21.2917 24.7348 21.2917" fill="black"/>
<path d="M24.6537 21.4333L24.6279 21.6458M25.5153 20.8637C25.5153 20.8637 25.6823 20.9309 25.6567 20.9979C25.6308 21.065 25.5153 21.0985 25.5153 21.0985M24.1148 20.8078C24.0763 20.8191 24.0248 20.8413 23.9991 20.9307C23.9734 21.0203 24.1148 21.0762 24.1148 21.0762M24.5168 21.2758C24.5168 21.2758 24.335 21.434 24.644 21.434C24.9529 21.434 24.7348 21.2917 24.7348 21.2917" stroke="black" stroke-width="1.0475"/>
<path fill-rule="evenodd" clip-rule="evenodd" d="M25.1956 33.6466L25.7297 31.8915L24.2464 30.7881L26.1041 30.7466L26.7101 29.0146L27.3242 30.7438L29.1821 30.7771L27.7037 31.8871L28.2459 33.6396L26.7184 32.5966L25.1956 33.6466Z" fill="#FDC400"/>
<path fill-rule="evenodd" clip-rule="evenodd" d="M25.4486 33.1763L25.8936 31.7821L24.6576 30.9056L26.2057 30.8726L26.7107 29.4968L27.2224 30.8703L28.7706 30.8968L27.5387 31.7786L27.9904 33.1707L26.7175 32.3422L25.4486 33.1763Z" fill="#003017" fill-opacity="0.996"/>
<path fill-rule="evenodd" clip-rule="evenodd" d="M22.1385 30.0921L22.6668 28.4323L21.1996 27.389L23.0373 27.3496L23.6367 25.7117L24.2443 27.3469L26.082 27.3784L24.6197 28.4281L25.1559 30.0854L23.6449 29.0991L22.1385 30.0921Z" fill="#FDC400"/>
<path fill-rule="evenodd" clip-rule="evenodd" d="M22.3894 29.647L22.8297 28.3285L21.6069 27.4997L23.1384 27.4685L23.6379 26.1673L24.1442 27.4663L25.6756 27.4913L24.457 28.3252L24.9039 29.6417L23.6448 28.8582L22.3894 29.647Z" fill="#003017" fill-opacity="0.996"/>
<path fill-rule="evenodd" clip-rule="evenodd" d="M28.2975 30.0921L28.8327 28.4323L27.3465 27.389L29.2079 27.3496L29.815 25.7117L30.4304 27.3469L32.2918 27.3784L30.8107 28.4281L31.3538 30.0854L29.8233 29.0991L28.2975 30.0921Z" fill="#FDC400"/>
<path fill-rule="evenodd" clip-rule="evenodd" d="M28.5514 29.647L28.9974 28.3285L27.7589 27.4997L29.3101 27.4685L29.8159 26.1673L30.3287 27.4663L31.8799 27.4913L30.6457 28.3252L31.0982 29.6417L29.8229 28.8582L28.5514 29.647Z" fill="#003017" fill-opacity="0.996"/>
<path d="M17.7607 31.4916L18.6779 30.9734L18.7642 31.162L18.4045 31.3653L18.5236 31.6253L18.8832 31.4221L18.9696 31.6107L18.0524 32.1288L17.9661 31.9403L18.3817 31.7054L18.2627 31.4453L17.8471 31.6802L17.7607 31.4916ZM18.1447 32.2941L19.001 31.6602L19.294 32.1489L19.1517 32.2543L18.9642 31.9416L18.7662 32.0882L18.9407 32.3792L18.8051 32.4796L18.6306 32.1886L18.3948 32.3631L18.5867 32.6831L18.4422 32.7902L18.1447 32.2941ZM18.7413 33.2145L19.4967 32.4383L19.6261 32.5935L19.3298 32.898L19.5081 33.1122L19.8043 32.8078L19.9337 32.9631L19.1782 33.7393L19.049 33.584L19.3913 33.2322L19.213 33.018L18.8707 33.3698L18.7414 33.2145M19.7278 33.6742L19.8503 33.7937L20.0732 33.3728L19.7278 33.6742ZM19.2487 33.8175L20.1013 33.1278L20.2947 33.3162L19.7922 34.3472L19.6369 34.1959L19.7692 33.9427L19.6034 33.7812L19.3958 33.9609L19.2486 33.8176M19.9927 34.5088L20.5008 33.7389L20.323 33.594L20.4234 33.4419L20.9336 33.8578L20.8332 34.0098L20.6554 33.8648L20.1473 34.6348L19.9927 34.5088ZM20.41 34.8423L20.946 33.8665L21.1085 33.9767L20.8983 34.3594L21.1225 34.5114L21.3327 34.1287L21.4952 34.2389L20.9592 35.2148L20.7967 35.1046L21.0396 34.6623L20.8154 34.5103L20.5725 34.9526L20.41 34.8423ZM21.4175 35.48L21.85 34.4427L22.3381 34.6938L22.2673 34.8636L21.9533 34.7019L21.8511 34.9472L22.1475 35.0997L22.0784 35.2655L21.782 35.1128L21.5916 35.5695L21.4175 35.48ZM22.372 35.3225C22.3119 35.4983 22.2832 35.613 22.2859 35.6665C22.2892 35.7198 22.3157 35.7569 22.3657 35.778C22.4149 35.7988 22.456 35.7907 22.4891 35.7538C22.5227 35.7167 22.5699 35.6093 22.6306 35.4315C22.6912 35.2538 22.7202 35.1385 22.7173 35.0854C22.7145 35.0323 22.6883 34.9954 22.6387 34.9744C22.5892 34.9536 22.5475 34.9619 22.5137 34.9995C22.4799 35.0372 22.4327 35.1448 22.372 35.3225ZM22.1889 35.2453C22.2277 35.1319 22.2633 35.0435 22.296 34.98C22.3288 34.916 22.3612 34.8712 22.3934 34.8456C22.4378 34.8088 22.4831 34.7881 22.5289 34.7836C22.5747 34.7791 22.6292 34.7903 22.6926 34.8169C22.7559 34.8436 22.8034 34.8755 22.835 34.9127C22.8667 34.9498 22.8883 34.9987 22.9 35.0592C22.9083 35.103 22.9056 35.1606 22.8917 35.232C22.8782 35.3036 22.8522 35.3958 22.8136 35.5087C22.7752 35.6212 22.7396 35.7093 22.7067 35.7733C22.6741 35.8368 22.6417 35.882 22.6097 35.9088C22.5648 35.9454 22.5195 35.9659 22.4737 35.9704C22.4278 35.9749 22.3732 35.9638 22.3099 35.9371C22.2466 35.9104 22.1992 35.8785 22.1676 35.8413C22.1359 35.8042 22.1145 35.7555 22.1032 35.6951C22.0944 35.6523 22.0968 35.5951 22.1103 35.5234C22.124 35.4513 22.1502 35.3587 22.1889 35.2453ZM23.0739 35.0024L23.2577 35.0633L23.0597 35.8018C23.0372 35.8863 23.031 35.9467 23.0412 35.9831C23.052 36.0192 23.081 36.0451 23.1284 36.0608C23.1754 36.0763 23.2119 36.0718 23.238 36.0474C23.2644 36.0232 23.2892 35.9681 23.3122 35.8822L23.5093 35.1465L23.6906 35.2065L23.4879 35.9628C23.4682 36.0363 23.4499 36.0889 23.4331 36.1205C23.4182 36.15 23.3975 36.1761 23.3721 36.1972C23.3354 36.2268 23.2907 36.2449 23.2438 36.2493C23.1952 36.2538 23.141 36.2462 23.0812 36.2264C22.9685 36.1891 22.8962 36.1358 22.8642 36.0663C22.8327 35.9965 22.835 35.894 22.8712 35.7588L23.0739 35.0024ZM23.5661 36.3506L23.7907 35.2349L23.9831 35.2828L24.0874 36.128L24.2393 35.3464L24.416 35.3904L24.1913 36.506L24.0003 36.4585L23.8943 35.6113L23.7421 36.3943L23.5661 36.3506ZM24.5719 36.4074L24.6557 36.422C24.6984 36.4295 24.7288 36.4312 24.7469 36.4273C24.765 36.4235 24.7812 36.4136 24.7928 36.3993C24.8145 36.373 24.8328 36.3351 24.8474 36.2855C24.8622 36.2355 24.8774 36.1543 24.8932 36.0418C24.9087 35.9323 24.9155 35.8518 24.9137 35.8004C24.912 35.749 24.9023 35.7088 24.8848 35.6796C24.8753 35.6648 24.8617 35.653 24.8457 35.6458C24.8292 35.6374 24.8025 35.6299 24.7656 35.6236L24.6843 35.6094L24.5718 36.4074M24.3629 36.5416L24.5221 35.4121L24.8264 35.4651C24.8885 35.4759 24.9369 35.4903 24.9718 35.5084C25.0072 35.5266 25.0348 35.5509 25.0548 35.5815C25.0851 35.6263 25.1032 35.6796 25.1094 35.7413C25.1161 35.8025 25.1107 35.8953 25.0932 36.0194C25.0707 36.1798 25.0496 36.2924 25.0301 36.3572C25.0107 36.4213 24.9855 36.4747 24.9547 36.5168C24.9249 36.5593 24.8877 36.5861 24.8433 36.5974C24.7994 36.6083 24.7262 36.6048 24.6237 36.587L24.3629 36.5416ZM25.1587 36.6724L25.2577 35.5345L25.7837 35.5909L25.7673 35.7801L25.4308 35.744L25.4079 36.0071L25.7212 36.0407L25.7055 36.221L25.3922 36.1873L25.3651 36.5007L25.7095 36.5377L25.6928 36.7298L25.1588 36.6725M26.028 36.5803L26.1128 36.5837C26.156 36.5855 26.1863 36.5833 26.2039 36.577C26.2215 36.5708 26.2365 36.5588 26.2465 36.543C26.2652 36.5141 26.2792 36.474 26.2885 36.4229C26.2977 36.3713 26.3042 36.2886 26.3079 36.1748C26.3115 36.064 26.3097 35.9832 26.3024 35.9324C26.2952 35.8816 26.2812 35.8429 26.2607 35.8163C26.2497 35.8028 26.2348 35.7929 26.2182 35.7879C26.201 35.7818 26.1737 35.7779 26.1363 35.7764L26.0542 35.7731L26.028 36.5803ZM25.8349 36.7413L25.8719 35.5988L26.1797 35.6111C26.2425 35.6136 26.2922 35.6215 26.3287 35.6348C26.3657 35.6482 26.3958 35.6688 26.419 35.6964C26.4538 35.7369 26.4776 35.7874 26.4903 35.8478C26.5036 35.9078 26.5081 36.0006 26.5041 36.1262C26.4987 36.2884 26.4899 36.403 26.4775 36.4698C26.4652 36.5362 26.4459 36.5923 26.4199 36.6384C26.3948 36.6844 26.3607 36.716 26.3179 36.7331C26.2754 36.7498 26.2024 36.756 26.0987 36.7518L25.8349 36.7413ZM26.9811 36.7563L26.9402 35.6138L27.1319 35.6054L27.1727 36.7478L26.9811 36.7563ZM27.4928 36.7262L27.4225 35.7746L27.2027 35.7947L27.1889 35.6068L27.8195 35.5493L27.8334 35.7372L27.6137 35.7572L27.684 36.7087L27.4928 36.7262ZM28.1678 35.5003L28.3568 35.4638L28.4756 36.223C28.4892 36.3098 28.5078 36.367 28.5316 36.3946C28.5557 36.4216 28.5921 36.4304 28.6407 36.4209C28.6891 36.4116 28.72 36.3896 28.7336 36.3548C28.7476 36.3199 28.7477 36.2584 28.7338 36.1702L28.6155 35.4138L28.8018 35.3779L28.9235 36.1554C28.9352 36.2309 28.94 36.2871 28.9376 36.3238C28.9355 36.3598 28.9276 36.3927 28.9137 36.4225C28.8928 36.467 28.8603 36.5051 28.8197 36.5326C28.778 36.5608 28.7263 36.5808 28.665 36.5926C28.5492 36.615 28.4629 36.603 28.4064 36.5567C28.3502 36.5098 28.3112 36.4168 28.2895 36.2778L28.1678 35.5003ZM29.1916 35.7903L29.2695 35.7692C29.3275 35.7534 29.3654 35.73 29.3833 35.6986C29.4011 35.6668 29.4033 35.6203 29.39 35.5593C29.3764 35.4978 29.3562 35.4581 29.3295 35.4404C29.303 35.4221 29.2597 35.4211 29.1995 35.4373L29.1191 35.4592L29.1916 35.7903ZM29.1487 36.4636L28.9052 35.3528L29.2286 35.2653C29.3272 35.2386 29.4036 35.2438 29.4576 35.2812C29.5116 35.3185 29.5508 35.393 29.5752 35.5045C29.5993 35.6142 29.5941 35.7022 29.5596 35.7686C29.5254 35.8344 29.4609 35.8801 29.3662 35.9058L29.2305 35.9424L29.3337 36.4134L29.1487 36.4636ZM29.8835 35.6586C29.9347 35.8378 29.9762 35.9476 30.0083 35.9878C30.0406 36.0272 30.0822 36.0379 30.1332 36.02C30.1832 36.0023 30.211 35.9677 30.2163 35.9159C30.2219 35.8636 30.1988 35.7468 30.1472 35.5657C30.0955 35.3845 30.0537 35.2741 30.0218 35.2345C29.9899 35.1948 29.9487 35.1839 29.8982 35.2017C29.8477 35.2195 29.8197 35.2548 29.8142 35.3077C29.8087 35.3605 29.8318 35.4774 29.8835 35.6586ZM29.6969 35.7244C29.6639 35.6088 29.6425 35.5148 29.6326 35.4425C29.6226 35.3698 29.623 35.3123 29.6338 35.27C29.6481 35.2104 29.672 35.1631 29.7054 35.1279C29.7388 35.0928 29.7878 35.0638 29.8523 35.0411C29.9169 35.0183 29.9719 35.0106 30.0175 35.0179C30.063 35.0253 30.1073 35.0486 30.1503 35.0879C30.1813 35.1165 30.2114 35.1635 30.2403 35.2291C30.2698 35.2945 30.3009 35.3848 30.3338 35.4999C30.3665 35.6146 30.3879 35.7083 30.398 35.7811C30.4078 35.8534 30.4077 35.9111 30.3976 35.9541C30.3828 36.0138 30.3587 36.0613 30.3253 36.0963C30.292 36.1315 30.2429 36.1605 30.1784 36.1832C30.1138 36.2059 30.0588 36.2137 30.0132 36.2063C29.9677 36.199 29.9237 36.1756 29.8811 36.1361C29.8502 36.1086 29.8202 36.062 29.7907 35.9966C29.7612 35.9308 29.7299 35.8399 29.6969 35.7243M30.6374 35.9857L30.2546 34.9244L30.4376 34.843L30.954 35.4743L30.6812 34.7343L30.8493 34.6596L31.2322 35.7208L31.0505 35.8018L30.5317 35.1698L30.8049 35.9111L30.6374 35.9857ZM31.8291 35.4003L31.4277 34.5562L31.2327 34.6707L31.1535 34.504L31.7129 34.1755L31.7922 34.3422L31.5972 34.4567L31.9987 35.3008L31.8291 35.4003ZM32.2821 35.1303L31.7327 34.1637L31.8937 34.0507L32.1092 34.4298L32.3312 34.274L32.1157 33.8948L32.2767 33.7819L32.8261 34.7486L32.6651 34.8615L32.4161 34.4234L32.1941 34.5793L32.4431 35.0173L32.2821 35.1303M32.9684 34.6359L32.3483 33.7237L32.77 33.3698L32.8732 33.5214L32.6033 33.7478L32.7467 33.9587L32.9978 33.7479L33.0962 33.8925L32.845 34.1033L33.0157 34.3544L33.2919 34.1227L33.3966 34.2767L32.9684 34.6359ZM33.4977 33.6549L33.6345 33.5056L33.6809 33.5581C33.7252 33.6081 33.7611 33.6363 33.7884 33.6426C33.8157 33.6481 33.8432 33.6358 33.8709 33.6056C33.8998 33.5739 33.9146 33.5419 33.9151 33.5094C33.916 33.4765 33.9024 33.4442 33.8742 33.4124C33.8527 33.388 33.8291 33.3729 33.8033 33.3671C33.7772 33.3609 33.7346 33.3631 33.6752 33.3738L33.5565 33.3952C33.4548 33.4144 33.3824 33.4179 33.339 33.4056C33.296 33.3929 33.2542 33.3637 33.2136 33.3178C33.1531 33.2493 33.1238 33.1757 33.1261 33.0969C33.1282 33.0183 33.1614 32.9438 33.2256 32.8738C33.2936 32.7996 33.3639 32.7633 33.4367 32.7651C33.5096 32.7668 33.5801 32.8063 33.6484 32.8837C33.6552 32.8914 33.6604 32.8976 33.6638 32.9022C33.6676 32.9064 33.6707 32.9103 33.6732 32.9138L33.5436 33.0553L33.5244 33.0337C33.4853 32.9895 33.4509 32.9651 33.4211 32.9602C33.3911 32.9553 33.3612 32.9693 33.3314 33.0018C33.3095 33.0258 33.2986 33.0519 33.2987 33.0803C33.2987 33.1079 33.31 33.1344 33.3325 33.1599C33.3627 33.1941 33.4244 33.2013 33.5175 33.1816C33.5182 33.1813 33.5191 33.1812 33.5199 33.1812L33.6453 33.1556C33.7339 33.1365 33.8034 33.1342 33.8537 33.1487C33.9037 33.1628 33.9527 33.197 34.0007 33.2514C34.0663 33.3256 34.0978 33.4036 34.0953 33.4854C34.0928 33.5673 34.0561 33.6469 33.9852 33.7243C33.9115 33.8048 33.8378 33.8436 33.7642 33.8408C33.6908 33.8376 33.6157 33.7926 33.5389 33.7058C33.5307 33.6966 33.518 33.6808 33.5006 33.6582L33.4977 33.6549ZM34.2939 33.3338L33.5053 32.5996L33.8447 32.1495L33.9758 32.2716L33.7587 32.5595L33.941 32.7293L34.1432 32.4612L34.2682 32.5776L34.066 32.8456L34.2831 33.0478L34.5054 32.753L34.6386 32.8769L34.2939 33.3338ZM34.4942 32.3103L34.5853 32.1601L34.1814 31.9678L34.4942 32.3103ZM34.6829 32.8203L33.959 31.9679L34.1027 31.7309L35.0868 32.1541L34.9715 32.3444L34.7287 32.2307L34.6054 32.4338L34.7922 32.6399L34.6829 32.8203ZM34.805 31.8907L34.8926 31.7011L34.9515 31.7347C35.0077 31.7668 35.0497 31.781 35.0774 31.7773C35.1049 31.773 35.1276 31.7518 35.1453 31.7134C35.1638 31.6734 35.1687 31.6378 35.1601 31.6068C35.1516 31.5751 35.1296 31.5493 35.0939 31.5288C35.0666 31.5133 35.0397 31.5072 35.0137 31.5107C34.9872 31.5139 34.9472 31.5309 34.894 31.5617L34.7873 31.6235C34.6963 31.6773 34.6285 31.706 34.5838 31.7093C34.5394 31.7124 34.4914 31.6993 34.4399 31.6698C34.3631 31.626 34.3145 31.5663 34.2943 31.4908C34.2742 31.4153 34.2846 31.3331 34.3257 31.2442C34.3692 31.15 34.4257 31.0909 34.4953 31.0672C34.5649 31.0435 34.6431 31.0563 34.7298 31.1058C34.7386 31.1108 34.7452 31.1149 34.7497 31.1181C34.7545 31.1208 34.7585 31.1233 34.7619 31.1258L34.6789 31.3054L34.6545 31.2916C34.605 31.2633 34.5653 31.2521 34.5356 31.2579C34.5059 31.2638 34.4814 31.2874 34.4622 31.3288C34.4482 31.3592 34.4453 31.3878 34.4534 31.4147C34.4613 31.4409 34.4796 31.4622 34.5081 31.4784C34.5465 31.5003 34.6072 31.4857 34.6899 31.4344C34.6905 31.4338 34.6912 31.4333 34.692 31.4331L34.8038 31.3651C34.8826 31.3159 34.9479 31.2895 34.9997 31.2857C35.0512 31.2817 35.1074 31.2971 35.1684 31.3318C35.2517 31.3793 35.3036 31.4424 35.3243 31.521C35.3452 31.5996 35.3328 31.688 35.2874 31.7862C35.2402 31.8883 35.1812 31.9509 35.1105 31.974C35.04 31.9966 34.956 31.9801 34.8585 31.9245C34.8415 31.9144 34.8248 31.9038 34.8086 31.8927L34.805 31.8907Z" fill="black"/>
</g>
</g>
</g>
<defs>
<clipPath id="clip0_16699_270955">
<rect width="40" height="40" fill="white"/>
</clipPath>
</defs>
</svg>
