<svg width="40" height="40" viewBox="0 0 40 40" fill="none" xmlns="http://www.w3.org/2000/svg">
<g clip-path="url(#clip0_16699_271016)">
<mask id="mask0_16699_271016" style="mask-type:luminance" maskUnits="userSpaceOnUse" x="0" y="0" width="40" height="40">
<path d="M40 0H0V40H40V0Z" fill="white"/>
</mask>
<g mask="url(#mask0_16699_271016)">
<mask id="mask1_16699_271016" style="mask-type:luminance" maskUnits="userSpaceOnUse" x="0" y="0" width="40" height="40">
<path d="M40 20C40 8.95433 31.0457 0 20 0C8.95433 0 0 8.95433 0 20C0 31.0457 8.95433 40 20 40C31.0457 40 40 31.0457 40 20Z" fill="white"/>
</mask>
<g mask="url(#mask1_16699_271016)">
<path d="M0 0H60V40H0V0Z" fill="#00AFCA"/>
<path d="M22.6008 22.2353C25.5731 22.2353 27.9828 19.8257 27.9828 16.8533C27.9828 13.8809 25.5731 11.4713 22.6008 11.4713C19.6283 11.4713 17.2188 13.8809 17.2188 16.8533C17.2188 19.8257 19.6283 22.2353 22.6008 22.2353Z" fill="#FEC50C"/>
<path d="M22.6197 10.7372C22.9397 10.7332 23.0597 10.5332 23.0597 10.2932C23.0597 9.97325 22.6197 8.44925 22.6197 8.44925C22.6197 8.44925 22.1797 9.97325 22.1797 10.2932C22.1797 10.5332 22.2997 10.7372 22.6197 10.7372Z" fill="#FEC50C"/>
<path d="M28.7354 16.8531C28.7394 17.1731 28.9394 17.2931 29.1794 17.2931C29.4994 17.2931 31.0234 16.8531 31.0234 16.8531C31.0234 16.8531 29.4994 16.4131 29.1794 16.4131C28.9394 16.4131 28.7354 16.5331 28.7354 16.8531Z" fill="#FEC50C"/>
<path d="M22.6186 22.9691C22.2986 22.9731 22.1786 23.1731 22.1786 23.4131C22.1786 23.7331 22.6186 25.2571 22.6186 25.2571C22.6186 25.2571 23.0586 23.7331 23.0586 23.4131C23.0586 23.1731 22.9386 22.9691 22.6186 22.9691Z" fill="#FEC50C"/>
<path d="M16.5028 16.8531C16.4988 16.5331 16.2988 16.4131 16.0588 16.4131C15.7388 16.4131 14.2148 16.8531 14.2148 16.8531C14.2148 16.8531 15.7388 17.2931 16.0588 17.2931C16.2988 17.2931 16.5028 17.1731 16.5028 16.8531Z" fill="#FEC50C"/>
<path d="M24.941 11.203C25.2382 11.3218 25.4256 11.1829 25.5174 10.9613C25.6399 10.6656 25.8166 9.08917 25.8166 9.08917C25.8166 9.08917 24.8268 10.3288 24.7044 10.6244C24.6125 10.8463 24.6453 11.0806 24.941 11.203Z" fill="#FEC50C"/>
<path d="M28.249 19.1941C28.1303 19.4913 28.2692 19.6787 28.4909 19.7704C28.7865 19.8929 30.3629 20.0697 30.3629 20.0697C30.3629 20.0697 29.1233 19.0799 28.8277 18.9574C28.6059 18.8657 28.3715 18.8984 28.249 19.1941Z" fill="#FEC50C"/>
<path d="M20.2582 22.5038C19.9611 22.385 19.7737 22.5239 19.6818 22.7456C19.5594 23.0412 19.3827 24.6176 19.3827 24.6176C19.3827 24.6176 20.3724 23.378 20.4948 23.0824C20.5867 22.8606 20.5539 22.6262 20.2582 22.5038Z" fill="#FEC50C"/>
<path d="M16.9502 14.513C17.0688 14.2157 16.9301 14.0283 16.7083 13.9366C16.4127 13.8141 14.8362 13.6373 14.8362 13.6373C14.8362 13.6373 16.076 14.6272 16.3716 14.7496C16.5932 14.8415 16.8277 14.8087 16.9502 14.513Z" fill="#FEC50C"/>
<path d="M26.9472 12.5287C27.1762 12.7521 27.4025 12.6956 27.5722 12.5259C27.7985 12.2996 28.565 10.9108 28.565 10.9108C28.565 10.9108 27.1762 11.6773 26.95 11.9036C26.7802 12.0733 26.7208 12.3024 26.9472 12.5287Z" fill="#FEC50C"/>
<path d="M26.946 21.1776C26.7226 21.4066 26.7791 21.6329 26.9488 21.8026C27.1751 22.0289 28.5639 22.7954 28.5639 22.7954C28.5639 22.7954 27.7974 21.4066 27.5711 21.1804C27.4014 21.0107 27.1723 20.9513 26.946 21.1776Z" fill="#FEC50C"/>
<path d="M18.2951 21.1781C18.0659 20.9547 17.8397 21.0112 17.6699 21.1809C17.4437 21.4072 16.6772 22.7959 16.6772 22.7959C16.6772 22.7959 18.0659 22.0294 18.2922 21.8032C18.4619 21.6334 18.5213 21.4043 18.2951 21.1781Z" fill="#FEC50C"/>
<path d="M18.2961 12.5282C18.5195 12.2992 18.463 12.0729 18.2932 11.9032C18.067 11.677 16.6782 10.9105 16.6782 10.9105C16.6782 10.9105 17.4447 12.2992 17.671 12.5255C17.8407 12.6952 18.0698 12.7546 18.2961 12.5282Z" fill="#FEC50C"/>
<path d="M28.2496 14.5127C28.3758 14.8068 28.6065 14.8411 28.8282 14.7493C29.1239 14.6268 30.3635 13.6371 30.3635 13.6371C30.3635 13.6371 28.7871 13.8138 28.4915 13.9362C28.2697 14.0281 28.1272 14.2169 28.2496 14.5127Z" fill="#FEC50C"/>
<path d="M24.9405 22.5034C24.6463 22.6295 24.6121 22.8602 24.704 23.082C24.8263 23.3776 25.8161 24.6172 25.8161 24.6172C25.8161 24.6172 25.6393 23.0408 25.517 22.7452C25.4251 22.5235 25.2362 22.3809 24.9405 22.5034Z" fill="#FEC50C"/>
<path d="M16.9492 19.1934C16.8231 18.8993 16.5924 18.865 16.3707 18.9568C16.0751 19.0793 14.8354 20.069 14.8354 20.069C14.8354 20.069 16.4118 19.8923 16.7074 19.7698C16.9291 19.678 17.0717 19.489 16.9492 19.1934Z" fill="#FEC50C"/>
<path d="M20.2586 11.2028C20.5527 11.0765 20.5871 10.8458 20.4952 10.6242C20.3727 10.3285 19.383 9.08884 19.383 9.08884C19.383 9.08884 19.5597 10.6653 19.6822 10.9609C19.7741 11.1827 19.963 11.3252 20.2586 11.2028Z" fill="#FEC50C"/>
<path d="M23.79 10.8544C24.1046 10.9129 24.2613 10.7402 24.3081 10.5048C24.3706 10.1909 24.2363 8.61035 24.2363 8.61035C24.2363 8.61035 23.5075 10.0193 23.445 10.3332C23.3982 10.5684 23.4761 10.7919 23.79 10.8544Z" fill="#FEC50C"/>
<path d="M28.592 18.0456C28.5335 18.3602 28.7062 18.5169 28.9416 18.5638C29.2555 18.6262 30.836 18.492 30.836 18.492C30.836 18.492 29.4272 17.7631 29.1133 17.7007C28.8779 17.6538 28.6544 17.7317 28.592 18.0456Z" fill="#FEC50C"/>
<path d="M21.4016 22.8513C21.0869 22.7928 20.9302 22.9656 20.8834 23.201C20.8209 23.5148 20.9552 25.0954 20.9552 25.0954C20.9552 25.0954 21.6841 23.6865 21.7466 23.3727C21.7933 23.1373 21.7154 22.9138 21.4016 22.8513Z" fill="#FEC50C"/>
<path d="M16.5956 15.6598C16.6541 15.3452 16.4813 15.1884 16.246 15.1416C15.9321 15.0792 14.3516 15.2133 14.3516 15.2133C14.3516 15.2133 15.7603 15.9423 16.0742 16.0047C16.3096 16.0516 16.5331 15.9737 16.5956 15.6598Z" fill="#FEC50C"/>
<path d="M25.9736 11.7673C26.2419 11.9418 26.4528 11.8422 26.5861 11.6426C26.7639 11.3766 27.2448 9.86493 27.2448 9.86493C27.2448 9.86493 26.0321 10.8877 25.8544 11.1537C25.7211 11.3533 25.7075 11.5896 25.9736 11.7673Z" fill="#FEC50C"/>
<path d="M27.6617 20.2512C27.4873 20.5193 27.5869 20.7303 27.7865 20.8637C28.0525 21.0414 29.5641 21.5223 29.5641 21.5223C29.5641 21.5223 28.5414 20.3098 28.2754 20.1319C28.0758 19.9986 27.8395 19.9851 27.6617 20.2512Z" fill="#FEC50C"/>
<path d="M19.1787 21.9383C18.9103 21.7638 18.6996 21.8634 18.5662 22.0629C18.3883 22.3291 17.9076 23.8407 17.9076 23.8407C17.9076 23.8407 19.1201 22.8179 19.2978 22.5518C19.4312 22.3523 19.4448 22.1161 19.1787 21.9383Z" fill="#FEC50C"/>
<path d="M17.4906 13.455C17.6651 13.1867 17.5654 12.9758 17.3659 12.8425C17.0998 12.6647 15.5883 12.1839 15.5883 12.1839C15.5883 12.1839 16.6109 13.3964 16.877 13.5742C17.0765 13.7075 17.3128 13.7211 17.4906 13.455Z" fill="#FEC50C"/>
<path d="M27.6819 13.4554C27.8631 13.7193 28.0961 13.7079 28.2956 13.5746C28.5617 13.3968 29.5843 12.1843 29.5843 12.1843C29.5843 12.1843 28.0728 12.6651 27.8067 12.8428C27.6072 12.9763 27.5042 13.1893 27.6819 13.4554Z" fill="#FEC50C"/>
<path d="M25.9918 21.9381C25.7279 22.1192 25.7393 22.3522 25.8726 22.5517C26.0504 22.8177 27.2629 23.8405 27.2629 23.8405C27.2629 23.8405 26.7821 22.3289 26.6043 22.0629C26.471 21.8632 26.2578 21.7604 25.9918 21.9381Z" fill="#FEC50C"/>
<path d="M17.5095 20.2507C17.3284 19.9869 17.0954 19.9982 16.8959 20.1315C16.6298 20.3093 15.6071 21.5218 15.6071 21.5218C15.6071 21.5218 17.1186 21.041 17.3848 20.8632C17.5843 20.7299 17.6873 20.5168 17.5095 20.2507Z" fill="#FEC50C"/>
<path d="M19.1953 11.7677C19.4592 11.5866 19.4479 11.3536 19.3144 11.1541C19.1367 10.8879 17.9242 9.86523 17.9242 9.86523C17.9242 9.86523 18.4049 11.3768 18.5828 11.6429C18.7162 11.8424 18.9293 11.9454 19.1953 11.7677Z" fill="#FEC50C"/>
<path d="M28.5998 15.6597C28.6661 15.9727 28.8858 16.0515 29.121 16.0046C29.4349 15.9422 30.8438 15.2134 30.8438 15.2134C30.8438 15.2134 29.2633 15.0791 28.9494 15.1416C28.714 15.1884 28.5373 15.3459 28.5998 15.6597Z" fill="#FEC50C"/>
<path d="M23.7941 22.8508C23.481 22.9172 23.4022 23.1368 23.4491 23.3722C23.5116 23.6861 24.2405 25.095 24.2405 25.095C24.2405 25.095 24.3746 23.5143 24.3122 23.2006C24.2654 22.9652 24.1079 22.7885 23.7941 22.8508Z" fill="#FEC50C"/>
<path d="M16.6035 18.0459C16.5372 17.7327 16.3177 17.6541 16.0822 17.701C15.7684 17.7634 14.3595 18.4922 14.3595 18.4922C14.3595 18.4922 15.9402 18.6265 16.2539 18.5641C16.4893 18.5172 16.666 18.3597 16.6035 18.0459Z" fill="#FEC50C"/>
<path d="M21.4053 10.8544C21.7183 10.788 21.7971 10.5684 21.7502 10.333C21.6878 10.0193 20.9589 8.61035 20.9589 8.61035C20.9589 8.61035 20.8247 10.1909 20.8872 10.5048C20.9339 10.7402 21.0914 10.9169 21.4053 10.8544Z" fill="#FEC50C"/>
<path d="M21.6417 28.5117C21.4977 28.5197 21.3577 28.5384 21.2204 28.5824C21.0324 28.6078 20.8524 28.673 20.6657 28.7038L20.5911 28.7157L20.4657 28.7278C20.4737 28.7624 20.4791 28.797 20.4791 28.8317C20.4791 28.8677 20.4751 28.9024 20.4657 28.9317C20.4577 28.9597 20.4324 28.9944 20.4124 29.0157C20.3857 29.045 20.3577 29.0704 20.3244 29.0864C20.2924 29.1024 20.2564 29.109 20.2204 29.1118C20.1844 29.113 20.1471 29.1117 20.1124 29.0984C20.0764 29.0864 20.0431 29.0638 20.0124 29.037C19.9751 29.0464 19.9364 29.053 19.9004 29.057C19.8631 29.061 19.8284 29.061 19.7951 29.057C19.7577 29.0464 19.7191 29.0344 19.6831 29.0197C19.6468 29.0047 19.612 28.9864 19.5791 28.965C19.4431 29.045 19.2911 29.121 19.2084 29.261C19.1617 29.325 19.1524 29.3984 19.1417 29.4744C19.1351 29.5677 19.1591 29.6664 19.1991 29.753C19.2137 29.7784 19.2257 29.661 19.2711 29.645C19.3471 29.5824 19.4417 29.537 19.5377 29.5117C19.6191 29.4704 19.6084 29.5144 19.5751 29.5784C19.5671 29.6118 19.5217 29.7384 19.5831 29.6744C19.8537 29.5544 20.1537 29.5304 20.4457 29.5077C20.8697 29.4637 21.2951 29.4544 21.7204 29.449C22.1204 29.4544 22.5204 29.4597 22.9204 29.4744C23.1111 29.4797 23.3031 29.5224 23.4911 29.4904C23.5364 29.4784 23.6071 29.4758 23.6337 29.449C23.5484 29.3998 23.4484 29.3984 23.3537 29.3864H22.5911C22.3791 29.365 22.1577 29.3624 21.9577 29.2824C21.9044 29.261 21.8551 29.2104 21.8044 29.265C21.7284 29.2917 21.6471 29.3104 21.5671 29.3158C21.4271 29.3264 21.2871 29.297 21.1577 29.245C21.2511 29.1158 21.3631 29.0024 21.4657 28.8824C21.3831 28.869 21.3031 28.8517 21.2204 28.8317C21.3657 28.7317 21.5004 28.6184 21.6417 28.5117Z" fill="#FEC50C"/>
<path d="M27.8703 29.8935C27.5806 30.0675 27.3593 29.759 27.1171 29.6665C26.9441 29.7604 26.9279 30.0748 26.7663 30.2238C26.5728 30.4438 26.3358 30.1623 26.3536 29.9452C26.1223 30.14 26.0053 30.5819 25.6313 30.5229C25.4541 30.3783 25.3224 30.0749 25.1871 30.4203C25.0767 30.5893 24.7827 30.8295 24.6303 30.5745C24.5833 30.3493 24.4703 30.0845 24.3478 30.4423C24.2638 30.6953 23.9938 30.8813 23.7327 30.7705C23.5898 30.6538 23.8473 30.2215 23.6653 30.2523C23.3933 30.432 23.2353 30.8785 22.8557 30.8428C22.7083 30.6773 22.9451 30.397 22.7834 30.2134C22.5927 30.4583 22.3808 30.8169 22.0508 30.8428C21.8913 30.7135 22.0571 30.3428 21.9553 30.2879C21.6166 30.491 21.2592 30.853 20.8333 30.7397C20.9993 30.1048 21.6928 29.8819 22.2762 29.8324C23.2797 29.7092 24.3354 29.9359 25.3011 29.5737C25.4571 29.4788 25.8351 29.3442 25.7004 29.1239C25.5813 28.95 26.0107 29.018 26.0518 28.8149C26.0263 28.5578 26.2489 28.5932 26.4664 28.5707C27.4414 28.5285 28.4047 28.7339 29.3768 28.7688C29.4503 29.2425 28.9248 29.5752 28.5018 29.4288C28.2997 29.4615 27.9967 28.9643 28.0561 29.326C28.0153 29.5159 28.0438 29.7668 27.8703 29.8935ZM19.5743 28.9237C19.8001 29.1303 19.9583 28.8848 20.1693 28.795C20.8771 28.5517 21.4944 28.1263 22.1032 27.7013C22.4719 27.396 22.7918 27.0003 23.2871 26.9013C24.2533 26.6092 25.2803 26.6445 26.2503 26.3749C26.9888 25.3638 28.2433 25.003 29.2942 24.4218C29.5301 24.3484 29.6213 24.1543 29.6967 23.9398C30.0978 23.3067 30.6442 22.7455 31.2904 22.3623C31.5962 22.1953 31.9609 22.099 32.3072 22.1754C32.2823 22.5878 32.0458 22.9532 31.7603 23.2383C31.9939 23.2332 32.1948 23.0854 32.4309 23.0938C32.5118 23.5169 32.0549 23.7383 31.8118 24.0018C31.9473 24.0333 32.4659 24.0725 32.1833 24.2082C31.8231 24.4582 31.4117 24.6298 31.0792 24.9202C31.3859 24.9753 31.4209 25.0404 31.1089 25.1513C30.9401 25.2658 30.6153 25.3058 30.5839 25.5288C30.8157 25.6713 30.4772 25.8128 30.3467 25.859C30.0969 25.9173 29.8347 26.0257 30.1663 26.2153C30.0408 26.4048 29.7718 26.4453 29.5521 26.4265C29.6188 26.6413 29.7153 26.8818 29.4364 26.9764C28.8114 27.4488 28.0781 27.7925 27.2924 27.8712C28.2738 27.9465 29.2847 27.7644 30.1233 27.2308C30.2341 27.0998 30.8146 26.9592 30.4898 26.849C30.3369 26.7854 30.0093 26.7148 29.9871 26.5982C30.4413 26.3179 31.0137 26.4177 31.5023 26.2512C31.5148 26.0929 31.1306 26.1369 30.9873 26.1009C30.6456 26.0729 30.6657 25.9858 30.9951 25.9534C31.4119 25.843 31.8842 25.8213 32.2348 25.5495C31.9493 25.4173 31.5902 25.5337 31.2856 25.4257C31.8019 25.1997 32.4113 25.1769 32.8746 24.8375C33.0857 24.6028 32.6042 24.676 32.4638 24.6818C32.1778 24.7315 32.0457 24.5947 32.3707 24.4758C32.9254 24.0668 33.6279 23.801 34.0177 23.2079C34.1099 23.0752 34.2349 22.6752 33.9406 22.819C33.5533 22.9478 33.2127 23.3832 32.7714 23.2484C33.6408 22.5748 34.4679 21.8077 35.0621 20.8753C35.0928 20.6063 34.6707 20.5773 34.5608 20.7883C34.0023 21.3265 33.4968 21.9618 32.7818 22.2992C33.4666 21.6382 34.0328 20.8555 34.5268 20.0443C34.6327 19.803 34.9173 19.5128 34.7628 19.2449C34.5138 19.0388 34.2023 19.2275 34.0729 19.4742C33.6388 20.0409 33.3091 20.7025 32.7508 21.1642C33.2396 20.2313 33.7457 19.2383 33.7579 18.1623C33.7564 17.9408 33.7119 17.6145 33.4112 17.6559C33.1727 17.6988 33.2293 18.0557 33.1311 18.2362C32.9146 18.9713 32.8129 19.7673 32.3691 20.4109C32.4688 19.8137 32.6437 19.1909 32.5094 18.5878C32.4468 18.3182 32.0114 18.4342 32.0676 18.7009C31.5474 21.3353 29.7798 23.6393 27.4679 24.9722C26.4094 25.571 25.2271 25.9572 24.0242 26.1323C23.7006 26.203 23.3506 26.1615 23.0413 26.2718C22.2918 26.8465 21.8381 27.8082 20.8892 28.1093C20.4638 28.3205 19.9093 28.3634 19.6053 28.7585C19.5789 28.809 19.5733 28.8677 19.5743 28.9237Z" fill="#FEC50C"/>
<path d="M22.4147 26.2508C22.2747 26.505 22.1923 26.7972 22.0123 27.0247C21.4707 26.5319 20.6855 26.5482 19.9984 26.5154C19.4314 26.4851 18.8147 26.4328 18.3759 26.0283C17.9144 25.6502 17.5377 25.1594 17.0218 24.8526C16.5512 24.7246 16.0765 24.5644 15.698 24.2418C14.8892 23.5825 14.426 22.6043 13.6357 21.9244C13.485 21.7761 13.3074 21.6612 13.1387 21.5354C12.9782 21.5744 13.0508 21.9207 12.8545 21.7442C12.7477 21.6682 12.4807 21.6608 12.4565 21.7669C12.6982 22.0853 12.94 22.4489 12.9735 22.8561C12.8087 22.873 12.5157 22.8213 12.434 22.8827C12.6528 23.2107 12.9334 23.5016 13.2522 23.7332C13.0992 23.7578 12.798 23.7444 12.7394 23.806C13.0557 24.0638 13.395 24.3274 13.8092 24.3936C13.894 24.5054 13.6852 24.7212 13.8608 24.8166C13.9627 24.8582 14.2987 24.9278 14.0672 25.0436C13.9084 25.1506 13.9673 25.4 14.1704 25.3944C14.2988 25.46 14.5872 25.4762 14.6097 25.5897C14.4958 25.7054 14.1417 25.8428 14.4432 25.9512C14.7247 26.1074 15.0458 26.2088 15.3673 26.2199C15.206 26.3557 15.0072 26.4327 14.8412 26.5604C15.5832 26.9955 16.4057 27.2817 17.2184 27.5572C17.542 27.6653 17.8694 27.7662 18.2048 27.8297C17.2302 27.7733 16.288 27.4848 15.4002 27.0898C14.9402 26.888 14.4768 26.693 14.0053 26.5192C14.212 26.4117 14.4512 26.3853 14.6657 26.2922C14.2205 26.203 13.7342 26.1738 13.343 25.9291C13.403 25.8221 13.6303 25.817 13.756 25.7626C13.9924 25.7059 14.1392 25.6372 13.8057 25.6166C13.4695 25.5254 13.0839 25.5664 12.7877 25.3635C12.8067 25.2419 13.1168 25.2843 13.2432 25.2318C13.4022 25.2045 13.5789 25.1816 13.706 25.0746C13.1862 24.8591 12.5064 25.0118 12.0993 24.5528C12.0054 24.3779 12.3908 24.5188 12.5007 24.4896C12.7795 24.4896 13.0793 24.5783 13.3449 24.4658C12.5875 24.1333 11.7763 23.822 11.1987 23.207C11.1347 23.1081 10.9424 22.838 11.0974 22.8047C11.547 22.8642 11.8724 23.3547 12.3533 23.2784C12.4172 23.1922 12.0739 23.0512 11.9882 22.928C11.2872 22.3264 10.6067 21.6735 10.1152 20.8854C10.0814 20.6222 10.4952 20.5828 10.604 20.786C11.1402 21.3025 11.6247 21.9051 12.2924 22.2577C12.5294 22.3726 12.1564 22.1217 12.1067 22.0307C11.4897 21.3141 10.9022 20.5573 10.4709 19.7134C10.3937 19.5613 10.2658 19.286 10.4967 19.205C10.7277 19.0893 10.9568 19.2469 11.0738 19.4453C11.5275 20.0175 11.8614 20.6977 12.4265 21.1743C11.945 20.2399 11.431 19.2564 11.4185 18.1812C11.4298 17.9728 11.4432 17.6575 11.7259 17.666C11.9632 17.63 11.9257 17.9339 12.0035 18.0788C12.2373 18.8686 12.3393 19.7237 12.8084 20.421C12.7048 19.835 12.5522 19.2316 12.6537 18.6359C12.6769 18.4403 12.8972 18.3812 13.0408 18.4994C13.157 18.7838 13.1812 19.135 13.2872 19.439C13.8895 21.4998 15.2422 23.3123 17.0048 24.5286C18.4564 25.5242 20.1792 26.1186 21.9377 26.2222C22.0964 26.2361 22.2557 26.2411 22.4147 26.2508Z" fill="#FEC50C"/>
<path d="M20.1846 28.9832C20.2368 28.9832 20.2793 28.9408 20.2793 28.8886C20.2793 28.8363 20.2368 28.7939 20.1846 28.7939C20.1323 28.7939 20.0898 28.8363 20.0898 28.8886C20.0898 28.9408 20.1323 28.9832 20.1846 28.9832Z" fill="#FEC50C"/>
<path d="M20.1754 28.9118C20.1966 28.9118 20.2139 28.8945 20.2139 28.8732C20.2139 28.8518 20.1966 28.8347 20.1754 28.8347C20.154 28.8347 20.1368 28.8518 20.1368 28.8732C20.1368 28.8945 20.154 28.9118 20.1754 28.9118Z" fill="#FEC50C" stroke="#00AFCA" stroke-width="0.09525"/>
<path d="M4.79893 2.91712C4.79893 2.91712 4.41453 2.59408 4.28397 2.75612C4.07397 3.01672 4.92957 4.31484 4.92957 4.77196C4.92957 5.52232 4.4289 5.72636 3.81066 5.83352C3.39581 5.90544 2.7203 5.80344 2.7203 5.80344C2.8475 5.63252 2.93021 5.58216 3.14453 5.56852C2.90593 5.44464 2.66297 5.17571 2.66297 4.75716C2.66297 4.11164 2.9287 3.84556 2.9287 3.11784C2.9287 2.71412 2.59766 2.2002 2.59766 2.2002C3.18281 2.25876 3.47281 2.80056 3.30781 3.23356C3.40093 3.24696 3.4855 3.22596 3.55813 3.15716C3.60093 3.27716 3.53333 3.41648 3.44281 3.53652C3.51573 3.57548 3.5693 3.55212 3.68546 3.52812C3.67441 3.6518 3.60033 3.78316 3.41906 3.90684C3.9451 3.77024 4.26877 4.13688 4.26877 4.52072C4.26877 4.81064 4.06561 5.01844 3.86701 5.01844C3.80286 5.01844 3.70857 4.992 3.65541 4.95228C3.6179 5.03208 3.63721 5.13888 3.67581 5.21868C3.5303 5.1802 3.4379 5.09376 3.50366 4.91384C3.39186 4.90356 3.30293 4.8658 3.24246 4.79384C3.30373 4.71532 3.39673 4.67011 3.50366 4.6738C3.42226 4.5058 3.51297 4.4118 3.64517 4.33556C3.64517 4.33556 3.5611 4.6738 3.77577 4.6738C3.8723 4.6738 3.96026 4.64236 3.96026 4.50008C3.96026 4.3762 3.85197 4.2046 3.60161 4.21552C3.3513 4.22644 3.14833 4.38812 3.14833 4.78776C3.14833 5.1564 3.4457 5.33976 3.83753 5.3516C4.19086 5.36251 4.45753 5.17112 4.45753 4.8066C4.45753 4.32148 3.75721 3.21568 3.75721 2.7834C3.75721 2.459 4.0489 2.27796 4.3343 2.27796C4.70437 2.27796 5.01661 2.6444 5.01661 2.6444L4.79893 2.91712Z" fill="#FEC50C"/>
<path d="M4.87932 11.6859C4.87932 12.4968 4.1514 12.9134 3.5794 12.9134C2.80876 12.9134 2.39844 12.4528 2.39844 11.8495C2.39844 11.5077 2.46108 11.2932 2.61872 10.9659C2.61872 10.9659 3.88992 8.32226 4.38485 7.29977C4.44656 7.17226 4.46648 7.02706 4.46648 6.81426C4.46648 6.48557 4.14768 6.21694 3.8134 6.2087C3.50868 6.2011 3.17668 6.49277 3.17668 6.82517C3.17668 7.2289 3.38612 7.4089 3.60116 7.4089C3.8658 7.4089 3.97125 7.3001 3.97125 7.1143C3.97125 6.98481 3.90872 6.92881 3.81885 6.92881C3.59188 6.92881 3.6556 7.23434 3.6556 7.23434C3.54288 7.20965 3.45025 7.09445 3.5032 6.95061C3.4176 6.9317 3.34035 6.88581 3.2828 6.8197C3.34365 6.7607 3.41345 6.71517 3.5032 6.6997C3.45005 6.52417 3.52108 6.43846 3.67465 6.40237C3.64365 6.46986 3.6426 6.53197 3.65288 6.59057C3.8946 6.52181 4.26512 6.63121 4.26512 7.04881C4.26512 7.46341 3.97736 7.81254 3.43788 7.7253C3.5662 7.78666 3.63148 7.91221 3.64468 8.05261C3.54668 8.01446 3.43788 8.00901 3.43788 8.00901C3.50096 8.12021 3.58856 8.2161 3.5848 8.43452C3.4848 8.38902 3.39188 8.30481 3.26372 8.3581C3.46492 8.75402 3.21772 9.29861 2.58888 9.42744C2.81905 9.15761 2.93172 8.86636 2.93172 8.57636C2.93172 7.6365 2.67052 7.47854 2.67052 6.82514C2.67052 6.55174 2.81105 6.25654 3.08956 6.0559V6.06681C2.90548 6.0175 2.78756 5.92685 2.71976 5.8037C3.14036 5.68441 3.75176 5.68661 4.08 5.81577C4.45736 5.8595 4.7208 6.14897 4.7984 6.29594C4.876 6.44274 5.02676 6.97406 4.7984 7.45241C4.5484 7.97594 3.36992 10.4749 3.00248 11.2604C2.92456 11.4269 2.87728 11.6037 2.87728 11.7949C2.87728 12.2762 3.31808 12.4442 3.56848 12.4442C3.8678 12.4442 4.17256 12.2162 4.17256 11.9314C4.17256 11.7509 4.07456 11.6423 3.93308 11.6423C3.59476 11.6423 3.61532 11.93 3.68276 12.1114C3.4722 12.0168 3.3498 11.8478 3.38345 11.6695C3.26425 11.6532 3.15076 11.5967 3.04605 11.4785C3.12845 11.3745 3.22892 11.2959 3.38345 11.293C3.31596 11.0167 3.50105 10.8997 3.68276 10.8349C3.62528 11.0378 3.58756 11.2713 3.93308 11.2713C4.18508 11.2713 4.3834 11.3149 4.49908 11.4787C4.50588 11.2604 4.52628 10.3984 4.52628 10.3984C4.54085 10.0744 4.09276 10.0838 3.80796 10.1802C3.91545 9.80711 4.13588 9.60536 4.64605 9.65644C4.5222 9.60469 4.39025 9.48811 4.39025 9.26369C4.39032 8.95994 4.63672 8.62344 4.79848 8.52394L4.87932 11.6859Z" fill="#FEC50C"/>
<path d="M4.87932 14.1178C4.87932 13.307 4.1514 12.8903 3.5794 12.8903C2.80876 12.8903 2.39844 13.3511 2.39844 13.9542C2.39844 14.2961 2.46108 14.5107 2.61872 14.8379C2.61872 14.8379 3.88992 17.4815 4.38485 18.504C4.44656 18.6315 4.46648 18.7767 4.46648 18.9895C4.46648 19.3182 4.14768 19.5869 3.8134 19.5951C3.50868 19.6027 3.17668 19.311 3.17668 18.9786C3.17668 18.5749 3.38612 18.3949 3.60116 18.3949C3.8658 18.3949 3.97125 18.5037 3.97125 18.6895C3.97125 18.819 3.90872 18.875 3.81885 18.875C3.59188 18.875 3.6556 18.5695 3.6556 18.5695C3.54288 18.5941 3.45025 18.7093 3.5032 18.8532C3.4176 18.8721 3.34035 18.918 3.2828 18.9841C3.34365 19.0431 3.41345 19.0886 3.5032 19.1041C3.45005 19.2796 3.52108 19.3653 3.67465 19.4014C3.64365 19.3339 3.6426 19.2718 3.65288 19.2132C3.8946 19.282 4.26512 19.1726 4.26512 18.755C4.26512 18.3404 3.97736 17.9913 3.43788 18.0785C3.5662 18.0171 3.63148 17.8916 3.64468 17.7512C3.54668 17.7893 3.43788 17.7948 3.43788 17.7948C3.50096 17.6836 3.58856 17.5877 3.5848 17.3693C3.4848 17.4148 3.39188 17.499 3.26372 17.4457C3.46492 17.0498 3.21772 16.5052 2.58888 16.3764C2.81905 16.6462 2.93172 16.9375 2.93172 17.2275C2.93172 18.1673 2.67052 18.3253 2.67052 18.9787C2.67052 19.2521 2.81105 19.5473 3.08956 19.7479V19.737C2.90548 19.7863 2.78756 19.8769 2.71976 20.0001C3.14036 20.1194 3.75176 20.1172 4.08 19.988C4.45736 19.9443 4.7208 19.6548 4.7984 19.5079C4.876 19.3611 5.02676 18.8297 4.7984 18.3514C4.5484 17.8279 3.36992 15.329 3.00248 14.5435C2.92456 14.3769 2.87728 14.2001 2.87728 14.0088C2.87728 13.5276 3.31808 13.3596 3.56848 13.3596C3.8678 13.3596 4.17256 13.5876 4.17256 13.8724C4.17256 14.0529 4.07456 14.1615 3.93308 14.1615C3.59476 14.1615 3.61532 13.8737 3.68276 13.6924C3.4722 13.7871 3.3498 13.9561 3.38345 14.1343C3.26425 14.1506 3.15076 14.2071 3.04605 14.3252C3.12845 14.4292 3.22892 14.5079 3.38345 14.5107C3.31596 14.7872 3.50105 14.9041 3.68276 14.9689C3.62528 14.766 3.58756 14.5325 3.93308 14.5325C4.18508 14.5325 4.3834 14.4889 4.49908 14.3252C4.50588 14.5434 4.52628 15.4054 4.52628 15.4054C4.54085 15.7293 4.09276 15.7201 3.80796 15.6236C3.91545 15.9967 4.13588 16.1984 4.64605 16.1473C4.5222 16.1991 4.39025 16.3157 4.39025 16.5401C4.39032 16.8439 4.63672 17.1803 4.79848 17.2798L4.87932 14.1178Z" fill="#FEC50C"/>
<path d="M4.79873 2.91712C4.79873 2.91712 5.18313 2.59408 5.31369 2.75612C5.52369 3.01672 4.66809 4.31484 4.66809 4.77196C4.66809 5.52232 5.16877 5.72636 5.78701 5.83352C6.20185 5.90544 6.87737 5.80344 6.87737 5.80344C6.75017 5.63252 6.66745 5.58216 6.45313 5.56852C6.69173 5.44464 6.93469 5.17571 6.93469 4.75716C6.93469 4.11164 6.66897 3.84556 6.66897 3.11784C6.66897 2.71412 7.00001 2.2002 7.00001 2.2002C6.41485 2.25876 6.12486 2.80056 6.28986 3.23356C6.19673 3.24696 6.11217 3.22596 6.03953 3.15716C5.99673 3.27716 6.06433 3.41648 6.15485 3.53652C6.08193 3.57548 6.02837 3.55212 5.91221 3.52812C5.92326 3.6518 5.99733 3.78316 6.17861 3.90684C5.65257 3.77024 5.32889 4.13688 5.32889 4.52072C5.32889 4.81064 5.53205 5.01844 5.73065 5.01844C5.79481 5.01844 5.88909 4.992 5.94225 4.95228C5.97977 5.03208 5.96046 5.13888 5.92186 5.21868C6.06737 5.1802 6.15977 5.09376 6.09401 4.91384C6.20581 4.90356 6.29473 4.8658 6.35521 4.79384C6.29393 4.71532 6.20093 4.67011 6.09401 4.6738C6.17541 4.5058 6.08469 4.4118 5.95249 4.33556C5.95249 4.33556 6.03657 4.6738 5.82189 4.6738C5.72537 4.6738 5.63741 4.64236 5.63741 4.50008C5.63741 4.3762 5.74569 4.2046 5.99605 4.21552C6.24637 4.22644 6.44933 4.38812 6.44933 4.78776C6.44933 5.1564 6.15197 5.33976 5.76013 5.3516C5.40681 5.36251 5.14013 5.17112 5.14013 4.8066C5.14013 4.32148 5.84046 3.21568 5.84046 2.7834C5.84046 2.459 5.54877 2.27796 5.26337 2.27796C4.89329 2.27796 4.58105 2.6444 4.58105 2.6444L4.79873 2.91712Z" fill="#FEC50C"/>
<path d="M4.71832 11.6859C4.71832 12.4968 5.44625 12.9134 6.01825 12.9134C6.78889 12.9134 7.19921 12.4528 7.19921 11.8495C7.19921 11.5077 7.13656 11.2932 6.97892 10.9659C6.97892 10.9659 5.70772 8.32226 5.21281 7.29977C5.15109 7.17226 5.13116 7.02706 5.13116 6.81426C5.13116 6.48557 5.44996 6.21694 5.78425 6.2087C6.08896 6.2011 6.42096 6.49277 6.42096 6.82517C6.42096 7.2289 6.21152 7.4089 5.99649 7.4089C5.73185 7.4089 5.62641 7.3001 5.62641 7.1143C5.62641 6.98481 5.68892 6.92881 5.77881 6.92881C6.00576 6.92881 5.94205 7.23434 5.94205 7.23434C6.05476 7.20965 6.14741 7.09445 6.09445 6.95061C6.18004 6.9317 6.2573 6.88581 6.31485 6.8197C6.25401 6.7607 6.18421 6.71517 6.09445 6.6997C6.14761 6.52417 6.07656 6.43846 5.92301 6.40237C5.95401 6.46986 5.95505 6.53197 5.94476 6.59057C5.70305 6.52181 5.33252 6.63121 5.33252 7.04881C5.33252 7.46341 5.62029 7.81254 6.15976 7.7253C6.03145 7.78666 5.96616 7.91221 5.95296 8.05261C6.05096 8.01446 6.15976 8.00901 6.15976 8.00901C6.09669 8.12021 6.00909 8.2161 6.01285 8.43452C6.11285 8.38902 6.20576 8.30481 6.33392 8.3581C6.13272 8.75402 6.37992 9.29861 7.00876 9.42744C6.77861 9.15761 6.66592 8.86636 6.66592 8.57636C6.66592 7.6365 6.92712 7.47854 6.92712 6.82514C6.92712 6.55174 6.78661 6.25654 6.50809 6.0559V6.06681C6.69216 6.0175 6.81009 5.92685 6.87789 5.8037C6.45729 5.68441 5.84589 5.68661 5.51765 5.81577C5.14029 5.8595 4.87685 6.14897 4.79925 6.29594C4.72165 6.44274 4.57089 6.97406 4.79925 7.45241C5.04925 7.97594 6.22772 10.4749 6.59516 11.2604C6.67309 11.4269 6.72036 11.6037 6.72036 11.7949C6.72036 12.2762 6.27956 12.4442 6.02916 12.4442C5.72985 12.4442 5.42509 12.2162 5.42509 11.9314C5.42509 11.7509 5.52309 11.6423 5.66456 11.6423C6.00289 11.6423 5.98232 11.93 5.91489 12.1114C6.12545 12.0168 6.24785 11.8478 6.21421 11.6695C6.33341 11.6532 6.44689 11.5967 6.55161 11.4785C6.46921 11.3745 6.36872 11.2959 6.21421 11.293C6.28169 11.0167 6.09661 10.8997 5.91489 10.8349C5.97236 11.0378 6.01009 11.2713 5.66456 11.2713C5.41256 11.2713 5.21425 11.3149 5.09856 11.4787C5.09176 11.2604 5.07136 10.3984 5.07136 10.3984C5.05681 10.0744 5.50489 10.0838 5.78969 10.1802C5.68221 9.80711 5.46176 9.60536 4.95161 9.65644C5.07545 9.60469 5.20741 9.48811 5.20741 9.26369C5.20732 8.95994 4.96092 8.62344 4.79916 8.52394L4.71832 11.6859Z" fill="#FEC50C"/>
<path d="M4.71832 14.1178C4.71832 13.307 5.44625 12.8903 6.01825 12.8903C6.78889 12.8903 7.19921 13.3511 7.19921 13.9542C7.19921 14.2961 7.13656 14.5107 6.97892 14.8379C6.97892 14.8379 5.70772 17.4815 5.21281 18.504C5.15109 18.6315 5.13116 18.7767 5.13116 18.9895C5.13116 19.3182 5.44996 19.5869 5.78425 19.5951C6.08896 19.6027 6.42096 19.311 6.42096 18.9786C6.42096 18.5749 6.21152 18.3949 5.99649 18.3949C5.73185 18.3949 5.62641 18.5037 5.62641 18.6895C5.62641 18.819 5.68892 18.875 5.77881 18.875C6.00576 18.875 5.94205 18.5695 5.94205 18.5695C6.05476 18.5941 6.14741 18.7093 6.09445 18.8532C6.18004 18.8721 6.2573 18.918 6.31485 18.9841C6.25401 19.0431 6.18421 19.0886 6.09445 19.1041C6.14761 19.2796 6.07656 19.3653 5.92301 19.4014C5.95401 19.3339 5.95505 19.2718 5.94476 19.2132C5.70305 19.282 5.33252 19.1726 5.33252 18.755C5.33252 18.3404 5.62029 17.9913 6.15976 18.0785C6.03145 18.0171 5.96616 17.8916 5.95296 17.7512C6.05096 17.7893 6.15976 17.7948 6.15976 17.7948C6.09669 17.6836 6.00909 17.5877 6.01285 17.3693C6.11285 17.4148 6.20576 17.499 6.33392 17.4457C6.13272 17.0498 6.37992 16.5052 7.00876 16.3764C6.77861 16.6462 6.66592 16.9375 6.66592 17.2275C6.66592 18.1673 6.92712 18.3253 6.92712 18.9787C6.92712 19.2521 6.78661 19.5473 6.50809 19.7479V19.737C6.69216 19.7863 6.81009 19.8769 6.87789 20.0001C6.45729 20.1194 5.84589 20.1172 5.51765 19.988C5.14029 19.9443 4.87685 19.6548 4.79925 19.5079C4.72165 19.3611 4.57089 18.8297 4.79925 18.3514C5.04925 17.8279 6.22772 15.329 6.59516 14.5435C6.67309 14.3769 6.72036 14.2001 6.72036 14.0088C6.72036 13.5276 6.27956 13.3596 6.02916 13.3596C5.72985 13.3596 5.42509 13.5876 5.42509 13.8724C5.42509 14.0529 5.52309 14.1615 5.66456 14.1615C6.00289 14.1615 5.98232 13.8737 5.91489 13.6924C6.12545 13.7871 6.24785 13.9561 6.21421 14.1343C6.33341 14.1506 6.44689 14.2071 6.55161 14.3252C6.46921 14.4292 6.36872 14.5079 6.21421 14.5107C6.28169 14.7872 6.09661 14.9041 5.91489 14.9689C5.97236 14.766 6.01009 14.5325 5.66456 14.5325C5.41256 14.5325 5.21425 14.4889 5.09856 14.3252C5.09176 14.5434 5.07136 15.4054 5.07136 15.4054C5.05681 15.7293 5.50489 15.7201 5.78969 15.6236C5.68221 15.9967 5.46176 16.1984 4.95161 16.1473C5.07545 16.1991 5.20741 16.3157 5.20741 16.5401C5.20732 16.8439 4.96092 17.1803 4.79916 17.2798L4.71832 14.1178Z" fill="#FEC50C"/>
<path d="M4.79893 37.0833C4.79893 37.0833 4.41453 37.4064 4.28397 37.2443C4.07397 36.9837 4.92957 35.6857 4.92957 35.2285C4.92957 34.4782 4.4289 34.2742 3.81066 34.1669C3.39581 34.095 2.7203 34.197 2.7203 34.197C2.8475 34.3679 2.93021 34.4183 3.14453 34.4319C2.90593 34.5558 2.66297 34.8247 2.66297 35.2433C2.66297 35.8888 2.9287 36.1549 2.9287 36.8827C2.9287 37.2863 2.59766 37.8003 2.59766 37.8003C3.18281 37.7417 3.47281 37.1999 3.30781 36.7669C3.40093 36.7535 3.4855 36.7745 3.55813 36.8433C3.60093 36.7233 3.53333 36.584 3.44281 36.4639C3.51573 36.425 3.5693 36.4483 3.68546 36.4723C3.67441 36.3487 3.60033 36.2173 3.41906 36.0937C3.9451 36.2302 4.26877 35.8637 4.26877 35.4797C4.26877 35.1898 4.06561 34.982 3.86701 34.982C3.80286 34.982 3.70857 35.0085 3.65541 35.0482C3.6179 34.9684 3.63721 34.8617 3.67581 34.7818C3.5303 34.8203 3.4379 34.9067 3.50366 35.0867C3.39186 35.0969 3.30293 35.1347 3.24246 35.2067C3.30373 35.2852 3.39673 35.3303 3.50366 35.3267C3.42226 35.4947 3.51297 35.5887 3.64517 35.6649C3.64517 35.6649 3.5611 35.3267 3.77577 35.3267C3.8723 35.3267 3.96026 35.3582 3.96026 35.5004C3.96026 35.6243 3.85197 35.7959 3.60161 35.7849C3.3513 35.774 3.14833 35.6123 3.14833 35.2127C3.14833 34.8442 3.4457 34.6607 3.83753 34.6489C4.19086 34.6379 4.45753 34.8293 4.45753 35.1939C4.45753 35.679 3.75721 36.7848 3.75721 37.2172C3.75721 37.5415 4.0489 37.7225 4.3343 37.7225C4.70437 37.7225 5.01661 37.3562 5.01661 37.3562L4.79893 37.0833Z" fill="#FEC50C"/>
<path d="M4.87932 28.3148C4.87932 27.5039 4.1514 27.0872 3.5794 27.0872C2.80876 27.0872 2.39844 27.548 2.39844 28.1512C2.39844 28.4932 2.46108 28.7077 2.61872 29.0348C2.61872 29.0348 3.88992 31.6786 4.38485 32.7009C4.44656 32.8286 4.46648 32.9738 4.46648 33.1866C4.46648 33.5152 4.14768 33.7838 3.8134 33.7921C3.50868 33.7997 3.17668 33.5079 3.17668 33.1755C3.17668 32.7718 3.38612 32.5918 3.60116 32.5918C3.8658 32.5918 3.97125 32.7007 3.97125 32.8864C3.97125 33.0159 3.90872 33.0719 3.81885 33.0719C3.59188 33.0719 3.6556 32.7664 3.6556 32.7664C3.54288 32.7912 3.45025 32.9063 3.5032 33.0502C3.4176 33.069 3.34035 33.1149 3.2828 33.181C3.34365 33.24 3.41345 33.2855 3.5032 33.301C3.45005 33.4765 3.52108 33.5623 3.67465 33.5983C3.64365 33.5309 3.6426 33.4687 3.65288 33.4102C3.8946 33.4789 4.26512 33.3696 4.26512 32.9519C4.26512 32.5373 3.97736 32.1882 3.43788 32.2754C3.5662 32.2142 3.63148 32.0885 3.64468 31.9482C3.54668 31.9863 3.43788 31.9918 3.43788 31.9918C3.50096 31.8805 3.58856 31.7847 3.5848 31.5663C3.4848 31.6118 3.39188 31.6959 3.26372 31.6427C3.46492 31.2468 3.21772 30.7022 2.58888 30.5733C2.81905 30.8432 2.93172 31.1344 2.93172 31.4244C2.93172 32.3642 2.67052 32.5223 2.67052 33.1757C2.67052 33.449 2.81105 33.7443 3.08956 33.9448V33.9339C2.90548 33.9833 2.78756 34.0739 2.71976 34.197C3.14036 34.3163 3.75176 34.3142 4.08 34.1849C4.45736 34.1412 4.7208 33.8518 4.7984 33.7048C4.876 33.558 5.02676 33.0267 4.7984 32.5483C4.5484 32.0248 3.36992 29.5259 3.00248 28.7404C2.92456 28.5738 2.87728 28.3972 2.87728 28.2057C2.87728 27.7245 3.31808 27.5565 3.56848 27.5565C3.8678 27.5565 4.17256 27.7845 4.17256 28.0693C4.17256 28.2498 4.07456 28.3585 3.93308 28.3585C3.59476 28.3585 3.61532 28.0707 3.68276 27.8893C3.4722 27.984 3.3498 28.153 3.38345 28.3313C3.26425 28.3475 3.15076 28.4042 3.04605 28.5222C3.12845 28.6262 3.22892 28.7048 3.38345 28.7077C3.31596 28.9842 3.50105 29.101 3.68276 29.1659C3.62528 28.9629 3.58756 28.7294 3.93308 28.7294C4.18508 28.7294 4.3834 28.6858 4.49908 28.5222C4.50588 28.7403 4.52628 29.6023 4.52628 29.6023C4.54085 29.9262 4.09276 29.917 3.80796 29.8205C3.91545 30.1937 4.13588 30.3953 4.64605 30.3443C4.5222 30.3962 4.39025 30.5127 4.39025 30.7372C4.39032 31.0408 4.63672 31.3773 4.79848 31.4768L4.87932 28.3148Z" fill="#FEC50C"/>
<path d="M4.87932 25.8825C4.87932 26.6933 4.1514 27.11 3.5794 27.11C2.80876 27.11 2.39844 26.6493 2.39844 26.0462C2.39844 25.7042 2.46108 25.4897 2.61872 25.1624C2.61872 25.1624 3.88992 22.5188 4.38485 21.4963C4.44656 21.3688 4.46648 21.2237 4.46648 21.0108C4.46648 20.6822 4.14768 20.4135 3.8134 20.4052C3.50868 20.3977 3.17668 20.6893 3.17668 21.0217C3.17668 21.4254 3.38612 21.6054 3.60116 21.6054C3.8658 21.6054 3.97125 21.4967 3.97125 21.3108C3.97125 21.1814 3.90872 21.1254 3.81885 21.1254C3.59188 21.1254 3.6556 21.4309 3.6556 21.4309C3.54288 21.4062 3.45025 21.291 3.5032 21.1472C3.4176 21.1283 3.34035 21.0824 3.2828 21.0162C3.34365 20.9572 3.41345 20.9117 3.5032 20.8962C3.45005 20.7207 3.52108 20.635 3.67465 20.5989C3.64365 20.6664 3.6426 20.7285 3.65288 20.7872C3.8946 20.7184 4.26512 20.8278 4.26512 21.2454C4.26512 21.66 3.97736 22.0092 3.43788 21.9218C3.5662 21.9832 3.63148 22.1088 3.64468 22.2492C3.54668 22.211 3.43788 22.2057 3.43788 22.2057C3.50096 22.3168 3.58856 22.4127 3.5848 22.631C3.4848 22.5857 3.39188 22.5014 3.26372 22.5547C3.46492 22.9507 3.21772 23.4952 2.58888 23.624C2.81905 23.3542 2.93172 23.0629 2.93172 22.7729C2.93172 21.833 2.67052 21.6752 2.67052 21.0217C2.67052 20.7483 2.81105 20.4532 3.08956 20.2524V20.2634C2.90548 20.214 2.78756 20.1234 2.71976 20.0002C3.14036 19.881 3.75176 19.8832 4.08 20.0123C4.45736 20.056 4.7208 20.3455 4.7984 20.4925C4.876 20.6393 5.02676 21.1707 4.7984 21.649C4.5484 22.1725 3.36992 24.6714 3.00248 25.4569C2.92456 25.6235 2.87728 25.8002 2.87728 25.9915C2.87728 26.4727 3.31808 26.6407 3.56848 26.6407C3.8678 26.6407 4.17256 26.4127 4.17256 26.1279C4.17256 25.9475 4.07456 25.8388 3.93308 25.8388C3.59476 25.8388 3.61532 26.1267 3.68276 26.308C3.4722 26.2133 3.3498 26.0443 3.38345 25.8662C3.26425 25.8497 3.15076 25.7932 3.04605 25.6752C3.12845 25.5712 3.22892 25.4924 3.38345 25.4897C3.31596 25.2132 3.50105 25.0962 3.68276 25.0314C3.62528 25.2343 3.58756 25.4678 3.93308 25.4678C4.18508 25.4678 4.3834 25.5115 4.49908 25.6752C4.50588 25.4569 4.52628 24.595 4.52628 24.595C4.54085 24.271 4.09276 24.2803 3.80796 24.3767C3.91545 24.0037 4.13588 23.8019 4.64605 23.853C4.5222 23.8012 4.39025 23.6847 4.39025 23.4602C4.39032 23.1565 4.63672 22.82 4.79848 22.7205L4.87932 25.8825Z" fill="#FEC50C"/>
<path d="M4.79873 37.0833C4.79873 37.0833 5.18313 37.4064 5.31369 37.2443C5.52369 36.9837 4.66809 35.6857 4.66809 35.2285C4.66809 34.4782 5.16877 34.2742 5.78701 34.1669C6.20185 34.095 6.87737 34.197 6.87737 34.197C6.75017 34.3679 6.66745 34.4183 6.45313 34.4319C6.69173 34.5558 6.93469 34.8247 6.93469 35.2433C6.93469 35.8888 6.66897 36.1549 6.66897 36.8827C6.66897 37.2863 7.00001 37.8003 7.00001 37.8003C6.41485 37.7417 6.12486 37.1999 6.28986 36.7669C6.19673 36.7535 6.11217 36.7745 6.03953 36.8433C5.99673 36.7233 6.06433 36.584 6.15485 36.4639C6.08193 36.425 6.02837 36.4483 5.91221 36.4723C5.92326 36.3487 5.99733 36.2173 6.17861 36.0937C5.65257 36.2302 5.32889 35.8637 5.32889 35.4797C5.32889 35.1898 5.53205 34.982 5.73065 34.982C5.79481 34.982 5.88909 35.0085 5.94225 35.0482C5.97977 34.9684 5.96046 34.8617 5.92186 34.7818C6.06737 34.8203 6.15977 34.9067 6.09401 35.0867C6.20581 35.0969 6.29473 35.1347 6.35521 35.2067C6.29393 35.2852 6.20093 35.3303 6.09401 35.3267C6.17541 35.4947 6.08469 35.5887 5.95249 35.6649C5.95249 35.6649 6.03657 35.3267 5.82189 35.3267C5.72537 35.3267 5.63741 35.3582 5.63741 35.5004C5.63741 35.6243 5.74569 35.7959 5.99605 35.7849C6.24637 35.774 6.44933 35.6123 6.44933 35.2127C6.44933 34.8442 6.15197 34.6607 5.76013 34.6489C5.40681 34.6379 5.14013 34.8293 5.14013 35.1939C5.14013 35.679 5.84046 36.7848 5.84046 37.2172C5.84046 37.5415 5.54877 37.7225 5.26337 37.7225C4.89329 37.7225 4.58105 37.3562 4.58105 37.3562L4.79873 37.0833Z" fill="#FEC50C"/>
<path d="M4.71832 28.3148C4.71832 27.5039 5.44625 27.0872 6.01825 27.0872C6.78889 27.0872 7.19921 27.548 7.19921 28.1512C7.19921 28.4932 7.13656 28.7077 6.97892 29.0348C6.97892 29.0348 5.70772 31.6786 5.21281 32.7009C5.15109 32.8286 5.13116 32.9738 5.13116 33.1866C5.13116 33.5152 5.44996 33.7838 5.78425 33.7921C6.08896 33.7997 6.42096 33.5079 6.42096 33.1755C6.42096 32.7718 6.21152 32.5918 5.99649 32.5918C5.73185 32.5918 5.62641 32.7007 5.62641 32.8864C5.62641 33.0159 5.68892 33.0719 5.77881 33.0719C6.00576 33.0719 5.94205 32.7664 5.94205 32.7664C6.05476 32.7912 6.14741 32.9063 6.09445 33.0502C6.18004 33.069 6.2573 33.1149 6.31485 33.181C6.25401 33.24 6.18421 33.2855 6.09445 33.301C6.14761 33.4765 6.07656 33.5623 5.92301 33.5983C5.95401 33.5309 5.95505 33.4687 5.94476 33.4102C5.70305 33.4789 5.33252 33.3696 5.33252 32.9519C5.33252 32.5373 5.62029 32.1882 6.15976 32.2754C6.03145 32.2142 5.96616 32.0885 5.95296 31.9482C6.05096 31.9863 6.15976 31.9918 6.15976 31.9918C6.09669 31.8805 6.00909 31.7847 6.01285 31.5663C6.11285 31.6118 6.20576 31.6959 6.33392 31.6427C6.13272 31.2468 6.37992 30.7022 7.00876 30.5733C6.77861 30.8432 6.66592 31.1344 6.66592 31.4244C6.66592 32.3642 6.92712 32.5223 6.92712 33.1757C6.92712 33.449 6.78661 33.7443 6.50809 33.9448V33.9339C6.69216 33.9833 6.81009 34.0739 6.87789 34.197C6.45729 34.3163 5.84589 34.3142 5.51765 34.1849C5.14029 34.1412 4.87685 33.8518 4.79925 33.7048C4.72165 33.558 4.57089 33.0267 4.79925 32.5483C5.04925 32.0248 6.22772 29.5259 6.59516 28.7404C6.67309 28.5738 6.72036 28.3972 6.72036 28.2057C6.72036 27.7245 6.27956 27.5565 6.02916 27.5565C5.72985 27.5565 5.42509 27.7845 5.42509 28.0693C5.42509 28.2498 5.52309 28.3585 5.66456 28.3585C6.00289 28.3585 5.98232 28.0707 5.91489 27.8893C6.12545 27.984 6.24785 28.153 6.21421 28.3313C6.33341 28.3475 6.44689 28.4042 6.55161 28.5222C6.46921 28.6262 6.36872 28.7048 6.21421 28.7077C6.28169 28.9842 6.09661 29.101 5.91489 29.1659C5.97236 28.9629 6.01009 28.7294 5.66456 28.7294C5.41256 28.7294 5.21425 28.6858 5.09856 28.5222C5.09176 28.7403 5.07136 29.6023 5.07136 29.6023C5.05681 29.9262 5.50489 29.917 5.78969 29.8205C5.68221 30.1937 5.46176 30.3953 4.95161 30.3443C5.07545 30.3962 5.20741 30.5127 5.20741 30.7372C5.20732 31.0408 4.96092 31.3773 4.79916 31.4768L4.71832 28.3148Z" fill="#FEC50C"/>
<path d="M4.71832 25.8825C4.71832 26.6933 5.44625 27.11 6.01825 27.11C6.78889 27.11 7.19921 26.6493 7.19921 26.0462C7.19921 25.7042 7.13656 25.4897 6.97892 25.1624C6.97892 25.1624 5.70772 22.5188 5.21281 21.4963C5.15109 21.3688 5.13116 21.2237 5.13116 21.0108C5.13116 20.6822 5.44996 20.4135 5.78425 20.4052C6.08896 20.3977 6.42096 20.6893 6.42096 21.0217C6.42096 21.4254 6.21152 21.6054 5.99649 21.6054C5.73185 21.6054 5.62641 21.4967 5.62641 21.3108C5.62641 21.1814 5.68892 21.1254 5.77881 21.1254C6.00576 21.1254 5.94205 21.4309 5.94205 21.4309C6.05476 21.4062 6.14741 21.291 6.09445 21.1472C6.18004 21.1283 6.2573 21.0824 6.31485 21.0162C6.25401 20.9572 6.18421 20.9117 6.09445 20.8962C6.14761 20.7207 6.07656 20.635 5.92301 20.5989C5.95401 20.6664 5.95505 20.7285 5.94476 20.7872C5.70305 20.7184 5.33252 20.8278 5.33252 21.2454C5.33252 21.66 5.62029 22.0092 6.15976 21.9218C6.03145 21.9832 5.96616 22.1088 5.95296 22.2492C6.05096 22.211 6.15976 22.2057 6.15976 22.2057C6.09669 22.3168 6.00909 22.4127 6.01285 22.631C6.11285 22.5857 6.20576 22.5014 6.33392 22.5547C6.13272 22.9507 6.37992 23.4952 7.00876 23.624C6.77861 23.3542 6.66592 23.0629 6.66592 22.7729C6.66592 21.833 6.92712 21.6752 6.92712 21.0217C6.92712 20.7483 6.78661 20.4532 6.50809 20.2524V20.2634C6.69216 20.214 6.81009 20.1234 6.87789 20.0002C6.45729 19.881 5.84589 19.8832 5.51765 20.0123C5.14029 20.056 4.87685 20.3455 4.79925 20.4925C4.72165 20.6393 4.57089 21.1707 4.79925 21.649C5.04925 22.1725 6.22772 24.6714 6.59516 25.4569C6.67309 25.6235 6.72036 25.8002 6.72036 25.9915C6.72036 26.4727 6.27956 26.6407 6.02916 26.6407C5.72985 26.6407 5.42509 26.4127 5.42509 26.1279C5.42509 25.9475 5.52309 25.8388 5.66456 25.8388C6.00289 25.8388 5.98232 26.1267 5.91489 26.308C6.12545 26.2133 6.24785 26.0443 6.21421 25.8662C6.33341 25.8497 6.44689 25.7932 6.55161 25.6752C6.46921 25.5712 6.36872 25.4924 6.21421 25.4897C6.28169 25.2132 6.09661 25.0962 5.91489 25.0314C5.97236 25.2343 6.01009 25.4678 5.66456 25.4678C5.41256 25.4678 5.21425 25.5115 5.09856 25.6752C5.09176 25.4569 5.07136 24.595 5.07136 24.595C5.05681 24.271 5.50489 24.2803 5.78969 24.3767C5.68221 24.0037 5.46176 23.8019 4.95161 23.853C5.07545 23.8012 5.20741 23.6847 5.20741 23.4602C5.20732 23.1565 4.96092 22.82 4.79916 22.7205L4.71832 25.8825Z" fill="#FEC50C"/>
</g>
</g>
</g>
<defs>
<clipPath id="clip0_16699_271016">
<rect width="40" height="40" fill="white"/>
</clipPath>
</defs>
</svg>
