<svg width="40" height="40" viewBox="0 0 40 40" fill="none" xmlns="http://www.w3.org/2000/svg">
<g clip-path="url(#clip0_16699_271076)">
<mask id="mask0_16699_271076" style="mask-type:luminance" maskUnits="userSpaceOnUse" x="0" y="0" width="40" height="40">
<path d="M40 0H0V40H40V0Z" fill="white"/>
</mask>
<g mask="url(#mask0_16699_271076)">
<mask id="mask1_16699_271076" style="mask-type:luminance" maskUnits="userSpaceOnUse" x="0" y="0" width="40" height="40">
<path d="M40 20C40 8.95433 31.0457 0 20 0C8.95433 0 0 8.95433 0 20C0 31.0457 8.95433 40 20 40C31.0457 40 40 31.0457 40 20Z" fill="white"/>
</mask>
<g mask="url(#mask1_16699_271076)">
<path d="M-10 0H50V40H-10V0Z" fill="#CE1126"/>
<path d="M-10 10H50V30H-10V10Z" fill="#002868"/>
<path d="M20 28C24.4183 28 28 24.4183 28 20C28 15.5817 24.4183 12 20 12C15.5817 12 12 15.5817 12 20C12 24.4183 15.5817 28 20 28Z" fill="white"/>
</g>
</g>
</g>
<defs>
<clipPath id="clip0_16699_271076">
<rect width="40" height="40" fill="white"/>
</clipPath>
</defs>
</svg>
