<svg width="40" height="40" viewBox="0 0 40 40" fill="none" xmlns="http://www.w3.org/2000/svg">
<g clip-path="url(#clip0_16699_271114)">
<mask id="mask0_16699_271114" style="mask-type:luminance" maskUnits="userSpaceOnUse" x="0" y="0" width="40" height="40">
<path d="M40 0H0V40H40V0Z" fill="white"/>
</mask>
<g mask="url(#mask0_16699_271114)">
<mask id="mask1_16699_271114" style="mask-type:luminance" maskUnits="userSpaceOnUse" x="0" y="0" width="40" height="40">
<path d="M40 20C40 8.95433 31.0457 0 20 0C8.95433 0 0 8.95433 0 20C0 31.0457 8.95433 40 20 40C31.0457 40 40 31.0457 40 20Z" fill="white"/>
</mask>
<g mask="url(#mask1_16699_271114)">
<path d="M60 0H0V40H60V0Z" fill="#002B7F"/>
<path d="M60 20H0V40H60V20Z" fill="#CE1126"/>
<path d="M19.4311 8.15248L19.3086 12.3192H15.0806C14.5604 11.3079 14.1309 10.4491 14.1309 9.28602C14.1309 8.31275 14.8964 7.53973 15.9997 7.53973C17.1677 7.53973 18.451 7.9333 19.4311 8.15248Z" fill="#FFD83D"/>
<path d="M14.6348 8.34308V10.7482" stroke="black" stroke-width="0.05" stroke-linecap="round" stroke-linejoin="round"/>
<path d="M14.9746 8.09833V11.3006" stroke="black" stroke-width="0.05" stroke-linecap="round" stroke-linejoin="round"/>
<path d="M15.3144 7.92969V11.7447" stroke="black" stroke-width="0.05" stroke-linecap="round" stroke-linejoin="round"/>
<path d="M15.6544 7.85089V10.843" stroke="black" stroke-width="0.05" stroke-linecap="round" stroke-linejoin="round"/>
<path d="M15.9922 7.83594V10.8577" stroke="black" stroke-width="0.05" stroke-linecap="round" stroke-linejoin="round"/>
<path d="M16.332 7.73047V10.8561" stroke="black" stroke-width="0.05" stroke-linecap="round" stroke-linejoin="round"/>
<path d="M16.6718 7.73047V10.8561" stroke="black" stroke-width="0.05" stroke-linecap="round" stroke-linejoin="round"/>
<path d="M17.0118 7.76105V10.8867" stroke="black" stroke-width="0.05" stroke-linecap="round" stroke-linejoin="round"/>
<path d="M17.3514 7.79169V10.9174" stroke="black" stroke-width="0.05" stroke-linecap="round" stroke-linejoin="round"/>
<path d="M17.6914 7.99091V11.1166" stroke="black" stroke-width="0.05" stroke-linecap="round" stroke-linejoin="round"/>
<path d="M18.0312 8.02148V11.5454" stroke="black" stroke-width="0.05" stroke-linecap="round" stroke-linejoin="round"/>
<path d="M18.3711 8.02148V11.1472" stroke="black" stroke-width="0.05" stroke-linecap="round" stroke-linejoin="round"/>
<path d="M18.709 8.02148V11.1472" stroke="black" stroke-width="0.05" stroke-linecap="round" stroke-linejoin="round"/>
<path d="M16.7644 7.86133C17.482 7.97969 19.0581 8.71717 18.8784 9.71492C18.6236 11.1288 17.7979 10.5614 16.7031 10.3583L15.8759 10.634C15.5799 10.9361 15.1441 11.2129 14.8496 10.8485H14.3593V12.7633H19.7821V8.13706L16.7644 7.86133Z" fill="black" stroke="black" stroke-width="0.05" stroke-linecap="round" stroke-linejoin="round"/>
<path d="M19.1928 7.86115C19.3747 7.86115 19.5222 7.71369 19.5222 7.5318C19.5222 7.3499 19.3747 7.20245 19.1928 7.20245C19.0109 7.20245 18.8634 7.3499 18.8634 7.5318C18.8634 7.71369 19.0109 7.86115 19.1928 7.86115Z" fill="#FFD83D" stroke="black" stroke-width="0.0666665" stroke-linecap="round" stroke-linejoin="round"/>
<path d="M18.4524 7.68281C18.6344 7.68281 18.7818 7.53536 18.7818 7.35346C18.7818 7.17157 18.6344 7.02411 18.4524 7.02411C18.2706 7.02411 18.1231 7.17157 18.1231 7.35346C18.1231 7.53536 18.2706 7.68281 18.4524 7.68281Z" fill="#FFD83D" stroke="black" stroke-width="0.0666665" stroke-linecap="round" stroke-linejoin="round"/>
<path d="M17.7024 7.49464C17.8844 7.49464 18.0318 7.34718 18.0318 7.16529C18.0318 6.9834 17.8844 6.83594 17.7024 6.83594C17.5206 6.83594 17.3731 6.9834 17.3731 7.16529C17.3731 7.34718 17.5206 7.49464 17.7024 7.49464Z" fill="#FFD83D" stroke="black" stroke-width="0.0666665" stroke-linecap="round" stroke-linejoin="round"/>
<path d="M16.9485 7.36836C17.1304 7.36836 17.2778 7.22091 17.2778 7.03901C17.2778 6.85711 17.1304 6.70966 16.9485 6.70966C16.7666 6.70966 16.6191 6.85711 16.6191 7.03901C16.6191 7.22091 16.7666 7.36836 16.9485 7.36836Z" fill="#FFD83D" stroke="black" stroke-width="0.0666665" stroke-linecap="round" stroke-linejoin="round"/>
<path d="M16.1947 7.29414C16.3765 7.29414 16.5239 7.14669 16.5239 6.96479C16.5239 6.7829 16.3765 6.63544 16.1947 6.63544C16.0127 6.63544 15.8652 6.7829 15.8652 6.96479C15.8652 7.14669 16.0127 7.29414 16.1947 7.29414Z" fill="#FFD83D" stroke="black" stroke-width="0.0666665" stroke-linecap="round" stroke-linejoin="round"/>
<path d="M15.4544 7.33644C15.6362 7.33644 15.7837 7.18898 15.7837 7.00709C15.7837 6.82519 15.6362 6.67773 15.4544 6.67773C15.2725 6.67773 15.125 6.82519 15.125 7.00709C15.125 7.18898 15.2725 7.33644 15.4544 7.33644Z" fill="#FFD83D" stroke="black" stroke-width="0.0666665" stroke-linecap="round" stroke-linejoin="round"/>
<path d="M14.7511 7.57795C14.9331 7.57795 15.0806 7.43049 15.0806 7.2486C15.0806 7.06671 14.9331 6.91925 14.7511 6.91925C14.5692 6.91925 14.4218 7.06671 14.4218 7.2486C14.4218 7.43049 14.5692 7.57795 14.7511 7.57795Z" fill="#FFD83D" stroke="black" stroke-width="0.0666665" stroke-linecap="round" stroke-linejoin="round"/>
<path d="M14.1575 8.01481C14.3394 8.01481 14.4869 7.86735 14.4869 7.68546C14.4869 7.50356 14.3394 7.35611 14.1575 7.35611C13.9757 7.35611 13.8282 7.50356 13.8282 7.68546C13.8282 7.86735 13.9757 8.01481 14.1575 8.01481Z" fill="#FFD83D" stroke="black" stroke-width="0.0666665" stroke-linecap="round" stroke-linejoin="round"/>
<path d="M13.7357 8.62359C13.9176 8.62359 14.0651 8.47608 14.0651 8.29419C14.0651 8.11231 13.9176 7.96484 13.7357 7.96484C13.5538 7.96484 13.4062 8.11231 13.4062 8.29419C13.4062 8.47608 13.5538 8.62359 13.7357 8.62359Z" fill="#FFD83D" stroke="black" stroke-width="0.0666665" stroke-linecap="round" stroke-linejoin="round"/>
<path d="M13.5325 9.33967C13.7144 9.33967 13.8619 9.19225 13.8619 9.01033C13.8619 8.82842 13.7144 8.681 13.5325 8.681C13.3507 8.681 13.2032 8.82842 13.2032 9.01033C13.2032 9.19225 13.3507 9.33967 13.5325 9.33967Z" fill="#FFD83D" stroke="black" stroke-width="0.0666665" stroke-linecap="round" stroke-linejoin="round"/>
<path d="M13.5404 10.0825C13.7223 10.0825 13.8697 9.93508 13.8697 9.75316C13.8697 9.57125 13.7223 9.42383 13.5404 9.42383C13.3584 9.42383 13.2109 9.57125 13.2109 9.75316C13.2109 9.93508 13.3584 10.0825 13.5404 10.0825Z" fill="#FFD83D" stroke="black" stroke-width="0.0666665" stroke-linecap="round" stroke-linejoin="round"/>
<path d="M13.6808 10.8104C13.8627 10.8104 14.0102 10.6629 14.0102 10.481C14.0102 10.2991 13.8627 10.1517 13.6808 10.1517C13.499 10.1517 13.3516 10.2991 13.3516 10.481C13.3516 10.6629 13.499 10.8104 13.6808 10.8104Z" fill="#FFD83D" stroke="black" stroke-width="0.0666665" stroke-linecap="round" stroke-linejoin="round"/>
<path d="M19.3388 7.96885L19.3083 8.39774C18.4888 8.27223 17.3273 7.81568 16.2444 7.81568C15.244 7.81568 14.4675 8.21585 14.4675 9.22499C14.4675 10.2196 14.8888 11.124 15.4479 12.0437L14.8658 12.3193C14.3456 11.3082 13.916 10.4492 13.916 9.28624C13.916 8.31295 14.6816 7.35611 15.9993 7.35611C17.1673 7.35611 18.3588 7.74968 19.3388 7.96885Z" fill="#FFD83D" stroke="black" stroke-width="0.0666665" stroke-linecap="round" stroke-linejoin="round"/>
<path d="M20.1745 8.15248L20.297 12.3192H24.525C25.0451 11.3079 25.4747 10.4491 25.4747 9.28602C25.4747 8.31275 24.7092 7.53973 23.6058 7.53973C22.4379 7.53973 21.1546 7.9333 20.1745 8.15248Z" fill="#FFD83D"/>
<path d="M24.9705 8.34308V10.7482" stroke="black" stroke-width="0.05" stroke-linecap="round" stroke-linejoin="round"/>
<path d="M24.6309 8.09833V11.3006" stroke="black" stroke-width="0.05" stroke-linecap="round" stroke-linejoin="round"/>
<path d="M24.291 7.92969V11.7448" stroke="black" stroke-width="0.05" stroke-linecap="round" stroke-linejoin="round"/>
<path d="M23.9512 7.85089V10.8429" stroke="black" stroke-width="0.05" stroke-linecap="round" stroke-linejoin="round"/>
<path d="M23.6133 7.83594V10.8578" stroke="black" stroke-width="0.05" stroke-linecap="round" stroke-linejoin="round"/>
<path d="M23.2734 7.73047V10.8561" stroke="black" stroke-width="0.05" stroke-linecap="round" stroke-linejoin="round"/>
<path d="M22.9334 7.73047V10.8561" stroke="black" stroke-width="0.05" stroke-linecap="round" stroke-linejoin="round"/>
<path d="M22.5936 7.76105V10.8867" stroke="black" stroke-width="0.05" stroke-linecap="round" stroke-linejoin="round"/>
<path d="M22.2541 7.79169V10.9174" stroke="black" stroke-width="0.05" stroke-linecap="round" stroke-linejoin="round"/>
<path d="M21.9141 7.99091V11.1166" stroke="black" stroke-width="0.05" stroke-linecap="round" stroke-linejoin="round"/>
<path d="M21.5742 8.02148V11.5454" stroke="black" stroke-width="0.05" stroke-linecap="round" stroke-linejoin="round"/>
<path d="M21.2343 8.02148V11.1471" stroke="black" stroke-width="0.05" stroke-linecap="round" stroke-linejoin="round"/>
<path d="M20.8964 8.02148V11.1471" stroke="black" stroke-width="0.05" stroke-linecap="round" stroke-linejoin="round"/>
<path d="M22.841 7.86133C22.1234 7.9797 20.5473 8.71717 20.727 9.71492C20.9818 11.1288 21.8077 10.5614 22.9023 10.3583L23.7296 10.634C24.0256 10.9361 24.4613 11.2129 24.7558 10.8484H25.2461V12.7633H19.8232V8.13707L22.841 7.86133Z" fill="black" stroke="black" stroke-width="0.05" stroke-linecap="round" stroke-linejoin="round"/>
<path d="M20.4126 7.86115C20.2307 7.86115 20.0833 7.71369 20.0833 7.5318C20.0833 7.3499 20.2307 7.20245 20.4126 7.20245C20.5945 7.20245 20.742 7.3499 20.742 7.5318C20.742 7.71369 20.5945 7.86115 20.4126 7.86115Z" fill="#FFD83D" stroke="black" stroke-width="0.0666665" stroke-linecap="round" stroke-linejoin="round"/>
<path d="M21.153 7.68281C20.9711 7.68281 20.8237 7.53536 20.8237 7.35346C20.8237 7.17157 20.9711 7.02411 21.153 7.02411C21.3349 7.02411 21.4824 7.17157 21.4824 7.35346C21.4824 7.53536 21.3349 7.68281 21.153 7.68281Z" fill="#FFD83D" stroke="black" stroke-width="0.0666665" stroke-linecap="round" stroke-linejoin="round"/>
<path d="M21.9031 7.49464C21.7212 7.49464 21.5737 7.34718 21.5737 7.16529C21.5737 6.9834 21.7212 6.83594 21.9031 6.83594C22.085 6.83594 22.2324 6.9834 22.2324 7.16529C22.2324 7.34718 22.085 7.49464 21.9031 7.49464Z" fill="#FFD83D" stroke="black" stroke-width="0.0666665" stroke-linecap="round" stroke-linejoin="round"/>
<path d="M22.657 7.36836C22.4751 7.36836 22.3276 7.22091 22.3276 7.03901C22.3276 6.85711 22.4751 6.70966 22.657 6.70966C22.8389 6.70966 22.9863 6.85711 22.9863 7.03901C22.9863 7.22091 22.8389 7.36836 22.657 7.36836Z" fill="#FFD83D" stroke="black" stroke-width="0.0666665" stroke-linecap="round" stroke-linejoin="round"/>
<path d="M23.4109 7.29414C23.2291 7.29414 23.0816 7.14669 23.0816 6.96479C23.0816 6.7829 23.2291 6.63544 23.4109 6.63544C23.5929 6.63544 23.7403 6.7829 23.7403 6.96479C23.7403 7.14669 23.5929 7.29414 23.4109 7.29414Z" fill="#FFD83D" stroke="black" stroke-width="0.0666665" stroke-linecap="round" stroke-linejoin="round"/>
<path d="M24.1511 7.33644C23.9692 7.33644 23.8218 7.18898 23.8218 7.00709C23.8218 6.82519 23.9692 6.67773 24.1511 6.67773C24.333 6.67773 24.4805 6.82519 24.4805 7.00709C24.4805 7.18898 24.333 7.33644 24.1511 7.33644Z" fill="#FFD83D" stroke="black" stroke-width="0.0666665" stroke-linecap="round" stroke-linejoin="round"/>
<path d="M24.8542 7.57795C24.6723 7.57795 24.5249 7.43049 24.5249 7.2486C24.5249 7.06671 24.6723 6.91925 24.8542 6.91925C25.0361 6.91925 25.1836 7.06671 25.1836 7.2486C25.1836 7.43049 25.0361 7.57795 24.8542 7.57795Z" fill="#FFD83D" stroke="black" stroke-width="0.0666665" stroke-linecap="round" stroke-linejoin="round"/>
<path d="M25.4481 8.01481C25.2662 8.01481 25.1187 7.86735 25.1187 7.68546C25.1187 7.50356 25.2662 7.35611 25.4481 7.35611C25.6299 7.35611 25.7773 7.50356 25.7773 7.68546C25.7773 7.86735 25.6299 8.01481 25.4481 8.01481Z" fill="#FFD83D" stroke="black" stroke-width="0.0666665" stroke-linecap="round" stroke-linejoin="round"/>
<path d="M25.8699 8.62359C25.688 8.62359 25.5405 8.47608 25.5405 8.29419C25.5405 8.11231 25.688 7.96484 25.8699 7.96484C26.0519 7.96484 26.1993 8.11231 26.1993 8.29419C26.1993 8.47608 26.0519 8.62359 25.8699 8.62359Z" fill="#FFD83D" stroke="black" stroke-width="0.0666665" stroke-linecap="round" stroke-linejoin="round"/>
<path d="M26.0731 9.33967C25.8912 9.33967 25.7437 9.19225 25.7437 9.01033C25.7437 8.82842 25.8912 8.681 26.0731 8.681C26.2549 8.681 26.4023 8.82842 26.4023 9.01033C26.4023 9.19225 26.2549 9.33967 26.0731 9.33967Z" fill="#FFD83D" stroke="black" stroke-width="0.0666665" stroke-linecap="round" stroke-linejoin="round"/>
<path d="M26.0653 10.0825C25.8833 10.0825 25.7358 9.93508 25.7358 9.75316C25.7358 9.57125 25.8833 9.42383 26.0653 9.42383C26.2472 9.42383 26.3945 9.57125 26.3945 9.75316C26.3945 9.93508 26.2472 10.0825 26.0653 10.0825Z" fill="#FFD83D" stroke="black" stroke-width="0.0666665" stroke-linecap="round" stroke-linejoin="round"/>
<path d="M25.9246 10.8104C25.7428 10.8104 25.5953 10.6629 25.5953 10.481C25.5953 10.2991 25.7428 10.1517 25.9246 10.1517C26.1065 10.1517 26.2539 10.2991 26.2539 10.481C26.2539 10.6629 26.1065 10.8104 25.9246 10.8104Z" fill="#FFD83D" stroke="black" stroke-width="0.0666665" stroke-linecap="round" stroke-linejoin="round"/>
<path d="M20.2667 7.96885L20.2973 8.39774C21.1167 8.27223 22.2783 7.81568 23.3611 7.81568C24.3615 7.81568 25.1381 8.21585 25.1381 9.22499C25.1381 10.2196 24.7168 11.124 24.1576 12.0437L24.7397 12.3193C25.26 11.3082 25.6896 10.4492 25.6896 9.28624C25.6896 8.31295 24.924 7.35611 23.6061 7.35611C22.4381 7.35611 21.2468 7.74968 20.2667 7.96885Z" fill="#FFD83D" stroke="black" stroke-width="0.0666665" stroke-linecap="round" stroke-linejoin="round"/>
<path d="M19.8008 3.54169L19.457 4.18544L19.8008 4.8271L20.1445 4.18544L19.8008 3.54169ZM19.8008 5.16669L19.457 5.80835L19.8008 6.4521L20.1445 5.80835L19.8008 5.16669Z" fill="#FFD83D" stroke="black" stroke-width="0.0666665" stroke-linecap="round" stroke-linejoin="round"/>
<path d="M18.5762 4.99673L19.1183 5.34048L19.6586 4.99673L19.1183 4.65298L18.5762 4.99673ZM19.9446 4.99673L20.4848 5.34048L21.027 4.99673L20.4848 4.65298L19.9446 4.99673Z" fill="#FFD83D" stroke="black" stroke-width="0.0666665" stroke-linecap="round" stroke-linejoin="round"/>
<path d="M19.8014 5.26497C19.9453 5.26497 20.0618 5.14838 20.0618 5.00456C20.0618 4.86073 19.9453 4.74414 19.8014 4.74414C19.6576 4.74414 19.541 4.86073 19.541 5.00456C19.541 5.14838 19.6576 5.26497 19.8014 5.26497Z" fill="#FFD83D" stroke="black" stroke-width="0.0666665" stroke-linecap="round" stroke-linejoin="round"/>
<path d="M19.8005 7.36402C20.1855 7.36402 20.4975 7.05197 20.4975 6.66702C20.4975 6.28208 20.1855 5.97003 19.8005 5.97003C19.4156 5.97003 19.1035 6.28208 19.1035 6.66702C19.1035 7.05197 19.4156 7.36402 19.8005 7.36402Z" fill="#FFD83D" stroke="black" stroke-width="0.0666665" stroke-linecap="round" stroke-linejoin="round"/>
<path d="M19.625 5.99152C19.625 6.19915 19.6235 6.3198 19.6229 6.43319C19.4549 6.44064 19.2892 6.4583 19.1271 6.48527M20.4729 6.48527C20.3108 6.4583 20.1451 6.44064 19.9771 6.43319C19.9771 6.31996 19.9771 6.19966 19.9771 5.99152M19.125 6.83735C19.3446 6.80066 19.5699 6.7811 19.8 6.7811C20.0301 6.7811 20.2554 6.80066 20.475 6.83735" stroke="black" stroke-width="0.05" stroke-linecap="round" stroke-linejoin="round"/>
<path d="M19.1202 7.8457C19.0541 8.9845 18.9196 10.1443 18.4766 10.9874L19.1973 10.6957C19.4491 9.74042 19.5021 8.50617 19.5786 7.92279L19.1202 7.8457ZM20.4827 7.8457L20.0245 7.92279C20.1011 8.50617 20.154 9.74042 20.4056 10.6957L21.1266 10.9874C20.6833 10.1443 20.5488 8.9845 20.4827 7.8457Z" fill="#FFD83D" stroke="black" stroke-width="0.0666665" stroke-linecap="round" stroke-linejoin="round"/>
<path d="M19.8 10.3125C18.9391 10.3125 18.3067 10.7183 18.2687 11.7521C18.0583 11.3818 17.1681 10.217 16.3375 10.3729C15.8435 10.4656 15.407 11.1506 15.4812 11.9354C15.0723 10.7601 13.8741 10.5675 13 11.2625C13.7761 11.9007 14.1214 13.7848 14.775 14.6021H19.8H24.825C25.4786 13.7848 25.8259 11.9007 26.6021 11.2625C25.728 10.5675 24.5298 10.7601 24.1208 11.9354C24.1951 11.1506 23.7565 10.4656 23.2625 10.3729C22.4319 10.217 21.5438 11.3818 21.3333 11.7521C21.2954 10.7183 20.6609 10.3125 19.8 10.3125Z" fill="#FFD83D" stroke="black" stroke-width="0.0666665" stroke-linecap="round" stroke-linejoin="round"/>
<path d="M24.8094 14.6013C24.8094 14.9733 22.5653 15.3825 19.8003 15.3825C17.0351 15.3825 14.791 14.9733 14.791 14.6013C14.791 14.2292 17.0351 14.0345 19.8003 14.0345C22.5653 14.0345 24.8094 14.2292 24.8094 14.6013Z" fill="black" stroke="black" stroke-width="0.05" stroke-linecap="round" stroke-linejoin="round"/>
<path d="M19.802 7.86302C19.931 7.86302 20.0356 7.75843 20.0356 7.62942C20.0356 7.5004 19.931 7.39581 19.802 7.39581C19.6729 7.39581 19.5684 7.5004 19.5684 7.62942C19.5684 7.75843 19.6729 7.86302 19.802 7.86302Z" fill="#FFD83D" stroke="black" stroke-width="0.05" stroke-linecap="round" stroke-linejoin="round"/>
<path d="M19.8017 8.3839C19.9392 8.3839 20.0507 8.27246 20.0507 8.13498C20.0507 7.9975 19.9392 7.88605 19.8017 7.88605C19.6642 7.88605 19.5527 7.9975 19.5527 8.13498C19.5527 8.27246 19.6642 8.3839 19.8017 8.3839Z" fill="#FFD83D" stroke="black" stroke-width="0.05" stroke-linecap="round" stroke-linejoin="round"/>
<path d="M19.8012 8.95134C19.9514 8.95134 20.0731 8.82959 20.0731 8.67943C20.0731 8.52926 19.9514 8.40759 19.8012 8.40759C19.651 8.40759 19.5294 8.52926 19.5294 8.67943C19.5294 8.82959 19.651 8.95134 19.8012 8.95134Z" fill="#FFD83D" stroke="black" stroke-width="0.05" stroke-linecap="round" stroke-linejoin="round"/>
<path d="M19.8004 9.59374C19.9718 9.59374 20.1107 9.45483 20.1107 9.28349C20.1107 9.11216 19.9718 8.97333 19.8004 8.97333C19.6292 8.97333 19.4902 9.11216 19.4902 9.28349C19.4902 9.45483 19.6292 9.59374 19.8004 9.59374Z" fill="#FFD83D" stroke="black" stroke-width="0.05" stroke-linecap="round" stroke-linejoin="round"/>
<path d="M19.8019 10.2989C19.99 10.2989 20.1427 10.1464 20.1427 9.95802C20.1427 9.76977 19.99 9.61719 19.8019 9.61719C19.6135 9.61719 19.4609 9.76977 19.4609 9.95802C19.4609 10.1464 19.6135 10.2989 19.8019 10.2989Z" fill="#FFD83D" stroke="black" stroke-width="0.05" stroke-linecap="round" stroke-linejoin="round"/>
<path d="M19.6656 10.6133C19.6286 10.6129 19.5938 10.6439 19.6031 10.7029C19.6139 10.7725 19.6275 10.9026 19.6406 10.9904C19.6553 11.09 19.7133 11.0658 19.7281 10.9883C19.7428 10.9109 19.7369 10.8613 19.7406 10.7175C19.7424 10.6456 19.7024 10.6138 19.6656 10.6133ZM19.9364 10.6133C19.8995 10.6138 19.8596 10.6456 19.8614 10.7175C19.8651 10.8613 19.8591 10.9109 19.8739 10.9883C19.8886 11.0658 19.9466 11.09 19.9614 10.9904C19.9744 10.9026 19.988 10.7725 19.9989 10.7029C20.0081 10.6439 19.9733 10.6129 19.9364 10.6133ZM19.4239 10.6508C19.3901 10.6555 19.3551 10.6895 19.3571 10.7258C19.3609 10.7922 19.3793 10.8718 19.3864 10.9717C19.3938 11.0749 19.4665 11.0348 19.4739 10.9758C19.4813 10.9168 19.4896 10.8297 19.4821 10.7154C19.4795 10.6725 19.4608 10.6537 19.4385 10.6508C19.4338 10.6502 19.4286 10.6502 19.4239 10.6508ZM20.1635 10.6508C20.1411 10.6537 20.1225 10.6725 20.1196 10.7154C20.1124 10.8297 20.1206 10.9168 20.1281 10.9758C20.1355 11.0348 20.2081 11.0749 20.2156 10.9717C20.2226 10.8718 20.2411 10.7922 20.2446 10.7258C20.2468 10.6895 20.2118 10.6555 20.1781 10.6508C20.1731 10.6502 20.1681 10.6502 20.1635 10.6508ZM19.1343 10.7675C19.1034 10.7755 19.0751 10.8126 19.0842 10.855C19.1026 10.9398 19.1196 11.0335 19.1196 11.1196C19.1196 11.1933 19.1826 11.167 19.1864 11.1154C19.1901 11.0638 19.1968 10.9545 19.1968 10.855C19.1968 10.7807 19.1651 10.7595 19.1343 10.7675ZM20.4468 10.7675C20.4249 10.7736 20.4051 10.7993 20.4051 10.855C20.4051 10.9545 20.4119 11.0638 20.4156 11.1154C20.4193 11.167 20.4821 11.1933 20.4821 11.1196C20.4821 11.0335 20.4991 10.9398 20.5176 10.855C20.5269 10.8126 20.4985 10.7755 20.4676 10.7675C20.4599 10.7655 20.4541 10.7655 20.4468 10.7675ZM16.5071 10.7789C16.4703 10.7777 16.4444 10.8278 16.4696 10.8831C16.5103 10.9715 16.5533 11.0274 16.5946 11.1226C16.6316 11.2074 16.6881 11.1546 16.6696 11.0956C16.6513 11.0366 16.6313 10.9709 16.576 10.8456C16.5551 10.7985 16.5294 10.7796 16.5071 10.7789ZM23.0946 10.7789C23.0726 10.7796 23.0466 10.7985 23.026 10.8456C22.9706 10.9709 22.9506 11.0366 22.9321 11.0956C22.9138 11.1546 22.9704 11.2074 23.0071 11.1226C23.0486 11.0274 23.0916 10.9715 23.1321 10.8831C23.1576 10.8278 23.1316 10.7777 23.0946 10.7789ZM16.7739 10.7831C16.7466 10.7914 16.7301 10.8258 16.7468 10.8664C16.78 10.9475 16.8279 11.0306 16.8614 11.1185C16.8909 11.1959 16.9565 11.1739 16.9343 11.1039C16.9121 11.0339 16.9056 10.9929 16.8614 10.8601C16.8393 10.7938 16.8011 10.7748 16.7739 10.7831ZM22.8071 10.7831C22.784 10.788 22.7571 10.8104 22.7406 10.8601C22.6963 10.9929 22.6898 11.0339 22.6676 11.1039C22.6455 11.1739 22.7111 11.1959 22.7406 11.1185C22.774 11.0306 22.8219 10.9475 22.8551 10.8664C22.8716 10.8258 22.8553 10.7914 22.8281 10.7831C22.8213 10.781 22.815 10.7814 22.8071 10.7831ZM17.1071 10.8476C17.073 10.8542 17.0464 10.9065 17.0696 10.9706C17.0991 11.0517 17.1411 11.1284 17.1781 11.2206C17.2149 11.3127 17.2761 11.2941 17.2614 11.2351C17.2466 11.1762 17.2286 11.0784 17.1843 10.931C17.165 10.8665 17.1339 10.8426 17.1071 10.8476ZM22.4946 10.8476C22.4681 10.8426 22.437 10.8665 22.4176 10.931C22.3734 11.0784 22.3552 11.1762 22.3406 11.2351C22.3257 11.2941 22.387 11.3127 22.4239 11.2206C22.4608 11.1284 22.5026 11.0517 22.5321 10.9706C22.5556 10.9065 22.529 10.8542 22.4946 10.8476ZM16.2821 10.8935C16.2451 10.8973 16.2113 10.9578 16.2343 11.0039C16.2711 11.0776 16.2946 11.1027 16.3301 11.181C16.367 11.2621 16.4074 11.1993 16.3926 11.1476C16.3779 11.096 16.359 11.0359 16.3406 10.9622C16.3271 10.9082 16.3045 10.8912 16.2821 10.8935ZM23.3196 10.8935C23.2975 10.8912 23.2749 10.9082 23.2614 10.9622C23.243 11.0359 23.2241 11.096 23.2092 11.1476C23.1946 11.1993 23.2349 11.2621 23.2717 11.181C23.3074 11.1027 23.3308 11.0776 23.3676 11.0039C23.3906 10.9578 23.3569 10.8973 23.3196 10.8935ZM18.851 11.08C18.8121 11.08 18.7705 11.1316 18.7843 11.18C18.8064 11.2574 18.8406 11.3261 18.8656 11.4258C18.8876 11.5143 18.9505 11.4702 18.9468 11.4112C18.9431 11.3523 18.933 11.272 18.9071 11.1467C18.8976 11.0997 18.8743 11.08 18.851 11.08ZM20.751 11.08C20.7276 11.08 20.7044 11.0997 20.6946 11.1467C20.669 11.272 20.6587 11.3523 20.6551 11.4112C20.6515 11.4702 20.7143 11.5143 20.7364 11.4258C20.7614 11.3261 20.7955 11.2574 20.8176 11.18C20.8315 11.1316 20.7899 11.08 20.751 11.08ZM19.801 11.1592C19.753 11.1592 19.7464 11.2235 19.7446 11.2758C19.7391 11.4472 19.6681 11.6137 19.6071 11.6967C19.5464 11.7796 19.4569 11.7576 19.3739 11.7133C19.2909 11.6691 19.2415 11.6359 19.1531 11.5696C19.0646 11.5032 18.9975 11.542 19.1031 11.6925C19.4109 12.1312 19.7446 12.5061 19.7446 13.2217C19.7446 13.3142 19.7609 13.3425 19.801 13.3425C19.8411 13.3425 19.8593 13.3142 19.8593 13.2217C19.8593 12.5061 20.1911 12.1312 20.4989 11.6925C20.6045 11.542 20.5374 11.5032 20.4489 11.5696C20.3604 11.6359 20.311 11.6691 20.2281 11.7133C20.1451 11.7576 20.0556 11.7796 19.9946 11.6967C19.9339 11.6137 19.8626 11.4472 19.8571 11.2758C19.8556 11.2235 19.8489 11.1592 19.801 11.1592ZM17.4489 11.0518C17.4446 11.0517 17.4401 11.0527 17.4364 11.0539C17.4185 11.0595 17.4066 11.0811 17.4135 11.1185C17.4258 11.1853 17.4721 11.3162 17.4906 11.3789C17.509 11.4416 17.5861 11.4282 17.5676 11.3435C17.5491 11.2587 17.5501 11.2331 17.5281 11.1372C17.516 11.0848 17.4783 11.0526 17.4489 11.0518ZM22.1531 11.0518C22.1236 11.0526 22.086 11.0848 22.0739 11.1372C22.0518 11.2331 22.0528 11.2587 22.0343 11.3435C22.0159 11.4282 22.093 11.4416 22.1114 11.3789C22.1298 11.3162 22.1761 11.1853 22.1885 11.1185C22.1954 11.0811 22.1835 11.0595 22.1656 11.0539C22.1618 11.0527 22.1572 11.0517 22.1531 11.0518ZM16.051 11.0789C16.0124 11.0819 15.9846 11.1304 16.0239 11.2018C16.0661 11.2789 16.1386 11.3757 16.1718 11.431C16.205 11.4863 16.2624 11.449 16.2218 11.3789C16.1813 11.3089 16.1676 11.2284 16.1196 11.1289C16.1018 11.0916 16.0741 11.0771 16.051 11.0789ZM23.551 11.0789C23.5278 11.0771 23.5001 11.0916 23.4821 11.1289C23.4343 11.2284 23.4206 11.3089 23.3801 11.3789C23.3396 11.449 23.397 11.4863 23.4301 11.431C23.4633 11.3757 23.5358 11.2789 23.5781 11.2018C23.6171 11.1304 23.5896 11.0819 23.551 11.0789ZM13.9385 11.3008C13.894 11.2985 13.88 11.3788 13.9218 11.4321C13.9826 11.5095 14.025 11.5505 14.0946 11.6133C14.15 11.6631 14.1661 11.5985 14.1385 11.5487C14.1108 11.499 14.0709 11.4484 14.0156 11.3654C13.9853 11.3199 13.9586 11.3019 13.9385 11.3008ZM25.6635 11.3008C25.6431 11.3019 25.6166 11.3199 25.5864 11.3654C25.5311 11.4484 25.4911 11.499 25.4635 11.5487C25.4357 11.5985 25.4519 11.6631 25.5071 11.6133C25.577 11.5505 25.6193 11.5095 25.6801 11.4321C25.722 11.3788 25.708 11.2985 25.6635 11.3008ZM14.2739 11.3675C14.2384 11.368 14.215 11.3942 14.2426 11.455C14.2821 11.5421 14.3345 11.6407 14.3676 11.7071C14.4008 11.7734 14.5019 11.7957 14.4614 11.6925C14.4208 11.5893 14.4129 11.5363 14.376 11.4404C14.3576 11.3925 14.3094 11.367 14.2739 11.3675ZM25.3281 11.3675C25.2926 11.367 25.2444 11.3925 25.226 11.4404C25.1891 11.5363 25.1811 11.5893 25.1406 11.6925C25.1 11.7957 25.2011 11.7734 25.2343 11.7071C25.2675 11.6407 25.3196 11.5421 25.3593 11.455C25.387 11.3942 25.3636 11.368 25.3281 11.3675ZM13.6239 11.3904C13.5723 11.3909 13.5679 11.4427 13.6135 11.4758C13.6743 11.5201 13.7468 11.5691 13.8176 11.6258C13.9006 11.6922 13.9326 11.6311 13.8885 11.5758C13.8443 11.5205 13.8011 11.4645 13.6906 11.4092C13.6629 11.3953 13.6411 11.3902 13.6239 11.3904ZM25.9781 11.3904C25.9609 11.3902 25.9391 11.3953 25.9114 11.4092C25.8008 11.4645 25.7576 11.5205 25.7135 11.5758C25.6692 11.6311 25.7014 11.6922 25.7843 11.6258C25.8551 11.5691 25.9276 11.5201 25.9885 11.4758C26.0341 11.4427 26.0296 11.3909 25.9781 11.3904ZM18.6676 11.4383C18.6388 11.4424 18.6139 11.4751 18.626 11.5175C18.6481 11.5949 18.6731 11.6769 18.6885 11.7571C18.7031 11.8345 18.7927 11.8354 18.7781 11.7654C18.7632 11.6954 18.7559 11.6077 18.7301 11.5008C18.7205 11.4607 18.7003 11.4415 18.6801 11.4383C18.676 11.4377 18.6718 11.4377 18.6676 11.4383ZM20.9218 11.4383C20.9016 11.4415 20.8815 11.4607 20.8718 11.5008C20.846 11.6077 20.8386 11.6954 20.8239 11.7654C20.8091 11.8354 20.8986 11.8345 20.9135 11.7571C20.9288 11.6769 20.9539 11.5949 20.976 11.5175C20.9881 11.4751 20.9631 11.4424 20.9343 11.4383C20.9301 11.4377 20.926 11.4377 20.9218 11.4383ZM16.6614 11.306C16.6386 11.3122 16.6256 11.3556 16.6426 11.4164C16.7366 11.7537 16.7655 11.9313 16.7489 12.0143C16.7323 12.0972 16.6868 12.1086 16.626 12.081C16.5651 12.0533 16.4938 12.0134 16.4385 11.9747C16.3831 11.936 16.3256 11.9823 16.4051 12.0476C16.8087 12.3794 17.0886 12.7586 17.1968 13.2185C17.2189 13.3125 17.278 13.3235 17.2614 13.2185C17.1699 12.6392 17.1523 12.1629 17.2906 11.8643C17.3425 11.7521 17.2901 11.6443 17.2071 11.8268C17.1519 11.9485 17.0625 11.9965 16.9906 11.8914C16.9186 11.7863 16.7701 11.5061 16.726 11.3789C16.7094 11.3312 16.6889 11.3091 16.6718 11.306C16.6683 11.3053 16.6646 11.3051 16.6614 11.306ZM22.9301 11.306C22.913 11.3091 22.8926 11.3312 22.876 11.3789C22.8318 11.5061 22.6833 11.7863 22.6114 11.8914C22.5395 11.9965 22.45 11.9485 22.3946 11.8268C22.3117 11.6443 22.2594 11.7521 22.3114 11.8643C22.4496 12.1629 22.4321 12.6392 22.3406 13.2185C22.324 13.3235 22.383 13.3125 22.4051 13.2185C22.5134 12.7586 22.7931 12.3794 23.1968 12.0476C23.2763 11.9823 23.2188 11.936 23.1635 11.9747C23.1081 12.0134 23.0368 12.0533 22.976 12.081C22.9151 12.1086 22.8696 12.0972 22.8531 12.0143C22.8365 11.9313 22.8652 11.7537 22.9592 11.4164C22.9762 11.3556 22.9631 11.3122 22.9406 11.306C22.9373 11.3051 22.9336 11.3053 22.9301 11.306ZM14.6321 11.4675C14.5958 11.468 14.5656 11.4935 14.5821 11.5487C14.6088 11.6373 14.6638 11.733 14.6821 11.7883C14.7006 11.8436 14.76 11.8178 14.7489 11.7404C14.7378 11.663 14.7324 11.6169 14.7176 11.5321C14.7103 11.4897 14.6686 11.467 14.6321 11.4675ZM24.9696 11.4675C24.9333 11.467 24.8916 11.4897 24.8843 11.5321C24.8696 11.6169 24.8641 11.663 24.8531 11.7404C24.842 11.8178 24.9013 11.8436 24.9196 11.7883C24.9381 11.733 24.9931 11.6373 25.0196 11.5487C25.0362 11.4935 25.0061 11.468 24.9696 11.4675ZM15.8843 11.3518C15.842 11.3442 15.8359 11.4534 15.8718 11.4976C15.9196 11.5567 15.9863 11.628 16.0531 11.7081C16.1084 11.7744 16.1425 11.7154 16.1093 11.6601C16.0761 11.6048 16.0269 11.5461 15.9385 11.406C15.9164 11.371 15.8984 11.3543 15.8843 11.3518ZM23.7176 11.3518C23.7035 11.3543 23.6856 11.371 23.6635 11.406C23.575 11.5461 23.5258 11.6048 23.4926 11.6601C23.4595 11.7154 23.4936 11.7744 23.5489 11.7081C23.6156 11.628 23.6821 11.5567 23.7301 11.4976C23.7661 11.4534 23.76 11.3442 23.7176 11.3518ZM14.9176 11.6154C14.8914 11.6136 14.8691 11.6349 14.8801 11.6883C14.8956 11.7628 14.918 11.8245 14.9364 11.8946C14.9548 11.9646 15.0031 11.9526 15.0031 11.8862C15.0031 11.8199 14.9911 11.7459 14.9801 11.6758C14.9746 11.6408 14.9439 11.6173 14.9176 11.6154ZM24.6843 11.6154C24.658 11.6173 24.6273 11.6408 24.6218 11.6758C24.6108 11.7459 24.5989 11.8199 24.5989 11.8862C24.5989 11.9526 24.6471 11.9646 24.6656 11.8946C24.684 11.8245 24.7064 11.7628 24.7218 11.6883C24.7329 11.6349 24.7106 11.6136 24.6843 11.6154ZM15.7906 11.7101C15.7493 11.7164 15.713 11.7563 15.7614 11.8185C15.8388 11.918 15.9236 11.9879 15.9531 12.0247C15.9825 12.0616 16.0571 12.048 16.0093 11.9706C15.9603 11.8915 15.8861 11.7962 15.8531 11.7372C15.8406 11.7151 15.8153 11.7064 15.7906 11.7101ZM23.7946 11.7101C23.7766 11.712 23.7581 11.7206 23.7489 11.7372C23.7156 11.7962 23.6416 11.8915 23.5926 11.9706C23.5446 12.048 23.6194 12.0616 23.6489 12.0247C23.6784 11.9879 23.7631 11.918 23.8406 11.8185C23.889 11.7563 23.8526 11.7164 23.8114 11.7101C23.8051 11.7092 23.8008 11.7095 23.7946 11.7101ZM14.4135 11.9883C14.3809 11.9854 14.3696 12.0116 14.4135 12.0717C14.513 12.208 14.6228 12.4144 14.6301 12.5029C14.6375 12.5914 14.5938 12.5904 14.5531 12.5904C14.4314 12.5904 14.372 12.5016 14.2614 12.4758C14.1508 12.45 14.1346 12.5082 14.2135 12.5654C14.619 12.8603 15.0254 13.1894 15.1885 13.4883C15.2548 13.61 15.3445 13.6545 15.2946 13.5383C15.1423 13.1825 15.1053 12.8812 15.1385 12.6987C15.1716 12.5163 15.2169 12.3934 15.2114 12.2883C15.2059 12.1833 15.1463 12.1904 15.1218 12.2883C15.1051 12.3547 15.0731 12.4426 15.051 12.4758C15.0289 12.509 14.9399 12.5276 14.8551 12.4133C14.7704 12.2991 14.5564 12.079 14.4864 12.0237C14.4601 12.003 14.433 11.9901 14.4135 11.9883ZM25.1885 11.9883C25.169 11.9901 25.1418 12.003 25.1156 12.0237C25.0455 12.079 24.8316 12.2991 24.7468 12.4133C24.662 12.5276 24.5731 12.509 24.551 12.4758C24.5289 12.4426 24.4966 12.3547 24.4801 12.2883C24.4556 12.1904 24.3961 12.1833 24.3906 12.2883C24.385 12.3934 24.4302 12.5163 24.4635 12.6987C24.4966 12.8812 24.4596 13.1825 24.3071 13.5383C24.2574 13.6545 24.3471 13.61 24.4135 13.4883C24.5766 13.1894 24.983 12.8603 25.3885 12.5654C25.4671 12.5082 25.4511 12.45 25.3406 12.4758C25.23 12.5016 25.1706 12.5904 25.0489 12.5904C25.0081 12.5904 24.9644 12.5914 24.9718 12.5029C24.9791 12.4144 25.089 12.208 25.1885 12.0717C25.2323 12.0116 25.221 11.9854 25.1885 11.9883Z" fill="black"/>
<path d="M15.0116 14.1769L15.1416 14.5885M15.2789 14.0989L15.3941 14.5149M15.5678 14.0514L15.6468 14.4757M15.8358 13.9978L15.9204 14.421M16.1794 13.9638L16.2483 14.39M16.5451 13.9643L16.6193 14.3895M16.9021 13.8437L16.9556 14.2719M17.2378 13.8653L17.2913 14.2937M17.5628 13.8219L17.6163 14.2503M17.8889 13.7883L17.9183 14.2189M18.2376 13.7882L18.2631 14.219M18.5536 13.7664L18.5753 14.1975M18.9019 13.7447L18.9201 14.1759M19.3028 13.7338L19.3208 14.1652M24.5904 14.1769L24.4604 14.5885M24.3231 14.0989L24.2079 14.5149M24.0343 14.0514L23.9552 14.4757M23.7663 13.9978L23.6816 14.421M23.4226 13.9638L23.3537 14.39M23.0569 13.9643L22.9828 14.3895M22.6999 13.8437L22.6464 14.2719M22.3643 13.8653L22.3107 14.2937M22.0393 13.8219L21.9857 14.2503M21.7131 13.7883L21.6837 14.2189M21.3646 13.7882L21.3389 14.219M21.0484 13.7664L21.0268 14.1975M20.7001 13.7447L20.6819 14.1759M20.2993 13.7338L20.2812 14.1652M19.8011 13.7057V14.1807" stroke="black" stroke-width="0.05" stroke-linecap="round" stroke-linejoin="round"/>
</g>
</g>
</g>
<defs>
<clipPath id="clip0_16699_271114">
<rect width="40" height="40" fill="white"/>
</clipPath>
</defs>
</svg>
