<svg width="40" height="40" viewBox="0 0 40 40" fill="none" xmlns="http://www.w3.org/2000/svg">
<g clip-path="url(#clip0_16699_271196)">
<mask id="mask0_16699_271196" style="mask-type:luminance" maskUnits="userSpaceOnUse" x="0" y="0" width="40" height="40">
<path d="M40 0H0V40H40V0Z" fill="white"/>
</mask>
<g mask="url(#mask0_16699_271196)">
<path d="M40 20C40 8.95433 31.0457 0 20 0C8.95433 0 0 8.95433 0 20C0 31.0457 8.95433 40 20 40C31.0457 40 40 31.0457 40 20Z" fill="#F7B718"/>
<path d="M5.98828 8H9.78491V31.1937H5.98828V8Z" fill="#005F56"/>
<path d="M15.291 9.75717H34.9918V30.8095H15.291V9.75717Z" fill="#941E32"/>
<path d="M31.4004 26.6426C31.4004 26.6426 31.6721 27.1962 31.9725 27.4219C32.4175 27.7562 33.3299 27.7321 33.7171 28.122C34.1811 28.5819 33.6905 29.1895 33.6852 29.2422C33.6746 29.3491 33.7022 29.4561 33.7106 29.563C33.7106 29.563 33.3979 29.5667 33.2661 29.5874C33.068 29.6182 32.9908 29.7795 32.622 29.7555C31.6946 29.6952 31.7321 28.8596 31.6796 28.1454C31.6331 27.8732 31.5252 27.5187 31.4641 27.2469C31.4116 27.0137 31.4004 26.6426 31.4004 26.6426Z" fill="#F7B718" stroke="black" stroke-width="0.0425243" stroke-linejoin="round"/>
<path d="M31.4004 13.3562C31.4004 13.3562 31.6721 12.8026 31.9725 12.577C32.4175 12.2426 33.3299 12.2668 33.7171 11.8769C34.1811 11.417 33.6905 10.8093 33.6852 10.7567C33.6746 10.6497 33.7022 10.5428 33.7106 10.4359C33.7106 10.4359 33.3979 10.4321 33.2661 10.4115C33.068 10.3806 32.9908 10.2194 32.622 10.2433C31.6946 10.3035 31.7321 11.1393 31.6796 11.8535C31.6331 12.1255 31.5252 12.4801 31.4641 12.752C31.4116 12.9851 31.4004 13.3562 31.4004 13.3562Z" fill="#F7B718" stroke="black" stroke-width="0.0425243" stroke-linejoin="round"/>
<path d="M18.3359 26.5983C18.3359 26.5983 18.0641 27.152 17.7638 27.3776C17.3188 27.7119 16.4065 27.6878 16.0192 28.0777C15.5552 28.5376 16.0458 29.1452 16.051 29.1979C16.0616 29.3049 16.0341 29.4118 16.0256 29.5187C16.0256 29.5187 16.3385 29.5225 16.4702 29.5431C16.6683 29.574 16.7455 29.7352 17.1143 29.7113C18.0416 29.6511 18.0042 28.8153 18.0567 28.1011C18.1032 27.8291 18.211 27.4745 18.2722 27.2026C18.3247 26.9695 18.3359 26.5983 18.3359 26.5983Z" fill="#F7B718" stroke="black" stroke-width="0.0425243" stroke-linejoin="round"/>
<path d="M18.3359 13.3112C18.3359 13.3112 18.0641 12.7576 17.7638 12.5321C17.3188 12.1977 16.4065 12.2218 16.0192 11.8318C15.5552 11.3721 16.0458 10.7643 16.051 10.7117C16.0616 10.6047 16.0341 10.4978 16.0256 10.391C16.0256 10.391 16.3385 10.3872 16.4702 10.3666C16.6683 10.3357 16.7455 10.1745 17.1143 10.1983C18.0416 10.2586 18.0042 11.0943 18.0567 11.8086C18.1032 12.0806 18.211 12.4352 18.2722 12.7071C18.3247 12.9402 18.3359 13.3112 18.3359 13.3112Z" fill="#F7B718" stroke="black" stroke-width="0.0425243" stroke-linejoin="round"/>
<path d="M4 8H5.98714V32H4V8Z" fill="#F7B718"/>
<path d="M9.78314 8H13.5798V31.1937H9.78314V8Z" fill="#DF7500"/>
<path d="M4 30.0032H35.741V31.9997H4V30.0032Z" fill="#F7B718"/>
<path d="M4 8H35.3366V9.99642H4V8Z" fill="#F7B718"/>
<path d="M13.582 8H15.5692V31.9785H13.582V8Z" fill="#F7B718"/>
<path d="M34.0996 8.01367H36.0867V31.9921H34.0996V8.01367Z" fill="#F7B718"/>
<path d="M21.9874 24.5875L22.0953 24.5218L22.1422 24.5875C22.2032 24.672 22.3768 24.6672 22.4894 24.5875L22.5787 24.5172L22.6537 24.5827C22.7475 24.672 22.9257 24.672 23.043 24.5827C23.1228 24.5265 23.1369 24.5218 23.1838 24.5687C23.2167 24.5968 23.3105 24.6251 23.3902 24.6391C23.5404 24.6578 23.5404 24.6578 23.6248 24.5265C23.6999 24.4186 23.7093 24.3763 23.6952 24.2685C23.6822 24.1861 23.6727 24.1031 23.667 24.0197C23.6577 23.8978 23.6623 23.8978 23.8359 23.8322C23.9222 23.8057 24.0067 23.7743 24.0893 23.7382C24.1597 23.6961 24.3567 23.4662 24.3567 23.4192C24.3567 23.4098 24.2817 23.3911 24.1878 23.3817C23.8125 23.3347 23.7515 23.1377 23.9955 22.7717C24.3849 22.1618 24.6242 21.5753 24.6242 21.2047C24.6242 21.0358 24.6382 20.9796 24.657 21.0171C24.7462 21.1626 24.5867 21.7866 24.352 22.237L24.2582 22.4152L24.3473 22.3965C24.3943 22.3823 24.6945 22.2557 25.0042 22.115C25.8582 21.7302 26.149 21.6552 26.7027 21.6787C27.1672 21.6973 27.3594 21.7866 27.6879 22.1291C27.8614 22.3167 28.0303 22.4433 28.3353 22.6357C28.9828 23.0392 29.0109 23.0767 29.0438 23.5553C29.0767 24.0386 29.0578 24.0667 28.6919 24.1465C28.3775 24.2168 28.1805 24.3622 28.1289 24.5687C28.1007 24.672 28.1617 24.6767 28.3165 24.5735L28.4338 24.4983L28.4854 24.5735C28.5558 24.672 28.6967 24.672 28.8139 24.5735L28.9077 24.5031L29.0015 24.5735C29.1423 24.6907 29.33 24.6626 29.3863 24.5172C29.3957 24.4937 29.4238 24.4983 29.4802 24.55C29.588 24.6437 29.8554 24.6813 29.8837 24.6062C29.893 24.5782 29.8742 24.5125 29.8367 24.4562C29.6818 24.2216 29.6302 24.1137 29.6302 23.987C29.6302 23.8087 29.6772 23.7196 29.8837 23.5787C30.1277 23.4005 30.2027 23.1752 30.015 23.1752C29.9023 23.1752 29.7852 23.0721 29.71 22.9078C29.5599 22.5701 29.5927 22.1947 29.8179 21.5661C29.9907 21.1962 30.0772 20.7918 30.0713 20.3837C30.0713 20.0366 30.0619 19.9802 29.9868 19.7878C29.9282 19.6542 29.8558 19.5267 29.771 19.4078L29.6397 19.2342L29.8038 19.0935C30.3105 18.676 30.2073 17.991 29.5974 17.7282C29.4097 17.6437 29.3628 17.6391 29.0344 17.6391C28.8467 17.6391 28.5417 17.6672 28.3775 17.7001C28.1572 17.735 27.9345 17.7537 27.7113 17.7563C27.3923 17.7563 27.336 17.747 27.214 17.6812C27.0873 17.6156 27.0639 17.5827 27.0404 17.4232C27.0382 17.4082 27.0323 17.394 27.0233 17.3817C27.0143 17.3693 27.0024 17.3596 26.9888 17.3528C26.9419 17.3387 26.7448 17.5123 26.7167 17.5875C26.6979 17.6297 26.6885 17.625 26.6463 17.5733C26.6065 17.5222 26.5748 17.4652 26.5525 17.4045C26.5055 17.2497 26.5665 17.1371 26.7495 17.0478L26.8903 16.9822L26.8058 16.9306C26.6369 16.8227 26.346 16.8977 26.2428 17.0713C26.21 17.1182 26.1772 17.1652 26.1677 17.1652C26.1583 17.1652 26.102 17.1182 26.0457 17.0572C25.8252 16.8415 25.9003 16.5223 26.1959 16.4286C26.3507 16.377 26.4915 16.4145 26.5197 16.5223C26.5665 16.6772 26.6979 16.4707 26.6744 16.2785C26.6604 16.1517 26.6604 16.1471 26.7495 16.1471C26.8715 16.1471 27.1248 16.3066 27.2093 16.4286C27.3032 16.5741 27.2937 16.804 27.1905 16.9728L27.1108 17.1042L27.2187 17.0855C27.3688 17.0526 27.519 16.9587 27.594 16.8415C27.6337 16.7667 27.6558 16.6841 27.6592 16.5997C27.6623 16.5152 27.6465 16.4311 27.6128 16.3535C27.5424 16.2268 27.5518 16.2081 27.655 16.2502C27.8239 16.3207 27.9177 16.4005 27.9834 16.5365C28.0492 16.6585 28.0538 16.6867 28.021 16.818C27.9985 16.898 27.9637 16.974 27.9177 17.0432C27.8614 17.1182 27.8568 17.1323 27.9037 17.1323C27.9882 17.1323 28.157 17.0526 28.218 16.9916C28.2509 16.9541 28.2978 16.8742 28.3212 16.804L28.3682 16.6867L28.4152 16.7805C28.4854 16.9072 28.6262 17.0245 28.7952 17.0995C28.9782 17.1746 29.0532 17.1792 28.9593 17.1088C28.8937 17.062 28.7717 16.7101 28.8139 16.6772C29.0164 16.7907 29.2013 16.9328 29.3628 17.0995C29.6302 17.3387 29.7992 17.4186 30.0432 17.4186C30.3574 17.4186 30.5404 17.1463 30.3997 16.8883C30.3199 16.7382 30.1369 16.7147 30.0243 16.8415C29.9774 16.9025 29.9633 16.9493 29.9774 17.0151C29.9962 17.0901 29.9915 17.0995 29.9212 17.0995C29.8273 17.0995 29.649 16.9822 29.33 16.7147C28.8859 16.3326 28.3754 16.0352 27.8239 15.8375C27.4503 15.7511 27.0645 15.7305 26.6838 15.7765C26.3837 15.8327 26.027 16.0063 25.8299 16.1892C25.4874 16.5177 25.4827 16.9541 25.8159 17.3528L25.9097 17.4655L25.8487 17.5687C25.8028 17.6426 25.7802 17.7286 25.7834 17.8155C25.7868 17.9025 25.816 17.9865 25.8675 18.0566C25.9144 18.1222 25.9613 18.1738 25.9754 18.1738C25.9848 18.1738 25.9942 18.1317 25.9988 18.0801C26.0082 17.9533 26.0645 17.869 26.1583 17.8361C26.2428 17.8032 26.2992 17.8221 26.6838 17.9768C27.092 18.1363 27.7629 18.1457 28.4762 18.005C28.7852 17.9337 29.1068 17.9368 29.4144 18.0143C29.7522 18.1552 29.8273 18.5163 29.5833 18.7886C29.4754 18.9105 29.3769 18.9575 29.0344 19.0512C28.7362 19.1298 28.4262 19.1537 28.1195 19.1217C27.6128 19.117 27.4298 19.1263 27.2282 19.1686C26.9982 19.2155 26.8622 19.2202 26.2053 19.2061L25.4405 19.1873L25.525 19.253C25.5702 19.2932 25.6189 19.3292 25.6704 19.3608C25.7314 19.3937 25.7267 19.3985 25.6423 19.4312C25.5953 19.4501 25.4827 19.4642 25.3937 19.4642H25.2388L25.22 19.5955C25.2074 19.6575 25.2074 19.7212 25.22 19.7832C25.2388 19.8301 25.2294 19.8395 25.1825 19.8207C25.1497 19.8067 25.0605 19.7832 24.9807 19.7691C24.9002 19.7518 24.8217 19.7267 24.7462 19.6941C24.657 19.6471 24.6477 19.6471 24.6148 19.7081C24.5867 19.7551 24.3239 19.9521 24.2863 19.9521C24.2694 19.8303 24.2347 19.7117 24.1832 19.6002C24.1362 19.5017 24.094 19.3891 24.0799 19.3562C24.0658 19.3046 24.0565 19.3 24.033 19.3422C24.0189 19.3656 24.0002 19.436 23.9862 19.4922C23.9697 19.5682 23.9412 19.6412 23.9017 19.7081L23.8312 19.8113L23.7843 19.7222C23.7374 19.6283 23.6623 19.5252 23.6342 19.5252C23.6248 19.5252 23.6107 19.5532 23.6014 19.5955C23.5779 19.6706 23.3949 19.8911 23.348 19.8911C23.3339 19.8911 23.3198 19.8301 23.3198 19.7503C23.3198 19.68 23.3058 19.6142 23.287 19.6142C23.2682 19.6142 23.2542 19.6377 23.2542 19.6612C23.2542 19.7175 23.0993 19.8957 23.043 19.8957C23.0243 19.8957 22.9867 19.9146 22.9633 19.9427C22.907 20.0037 22.8602 19.9942 22.8835 19.924C22.8902 19.8638 22.8837 19.8031 22.8648 19.7457L22.8178 19.5955C22.8084 19.5721 22.7522 19.5815 22.6302 19.619C22.4425 19.68 22.3768 19.6658 22.4753 19.5907C22.5129 19.5627 22.5692 19.4642 22.5973 19.375C22.6302 19.2812 22.6772 19.2013 22.7005 19.192C22.7334 19.1827 22.7334 19.192 22.6912 19.2482C22.664 19.284 22.6462 19.326 22.6395 19.3702C22.6395 19.3937 22.6162 19.4547 22.5927 19.5063C22.5645 19.5532 22.5457 19.6002 22.5504 19.6048C22.5552 19.6096 22.6302 19.5815 22.7147 19.5438L22.8648 19.4688V19.5345C22.8648 19.5721 22.8835 19.6658 22.907 19.7457L22.9492 19.8863L23.0524 19.8395C23.1557 19.7926 23.2542 19.6237 23.2542 19.4876C23.2542 19.4218 23.2917 19.4312 23.3105 19.5017C23.3105 19.5205 23.3387 19.6002 23.3574 19.6752L23.4043 19.8067L23.4747 19.7222C23.5169 19.6752 23.5638 19.5815 23.5827 19.5205C23.6202 19.4078 23.6764 19.3562 23.6764 19.4407C23.6764 19.497 23.8359 19.7127 23.8642 19.6941C23.8829 19.6847 23.911 19.6048 23.9345 19.5157C23.9814 19.3281 24.0518 19.2061 24.0987 19.2342C24.1174 19.2437 24.1222 19.2623 24.1128 19.2812C24.1034 19.2906 24.1409 19.4126 24.1972 19.5438C24.238 19.6423 24.2787 19.7408 24.3192 19.8395C24.338 19.8863 24.3567 19.8863 24.474 19.7785C24.5444 19.7127 24.6148 19.6425 24.6195 19.619C24.6335 19.5815 24.6477 19.5862 24.7133 19.6283C24.8517 19.7015 25.0032 19.7461 25.159 19.7597C25.1684 19.7503 25.1778 19.6658 25.1778 19.5721L25.1825 19.3985L25.2763 19.4172C25.3232 19.4312 25.4312 19.4312 25.5109 19.4172L25.6517 19.3985L25.525 19.3046C25.4547 19.2577 25.3842 19.1967 25.3654 19.1686C25.3514 19.1403 25.2857 19.1122 25.2153 19.1076C25.0229 19.0887 24.6805 18.9012 24.6805 18.8072C24.6805 18.7886 24.7274 18.8213 24.7837 18.873C24.915 18.9902 25.0933 19.0607 25.2528 19.0607H25.3654L25.2952 18.9667C25.2449 18.8941 25.2128 18.8105 25.2012 18.7228C25.1918 18.5821 25.1778 18.5633 25.0323 18.4647C24.948 18.4051 24.8695 18.3375 24.7977 18.2631L24.718 18.1738L24.6758 18.2817C24.6523 18.3427 24.6288 18.3897 24.6148 18.3897C24.6054 18.3897 24.5585 18.3522 24.5209 18.31C24.4945 18.2793 24.4627 18.254 24.4272 18.2348C24.413 18.2348 24.3802 18.2912 24.3427 18.3616L24.277 18.4882L24.23 18.4178C24.1883 18.3603 24.1412 18.307 24.0893 18.2583C24.033 18.2115 24.0095 18.1738 24.0283 18.1738C24.0472 18.1738 24.1082 18.2208 24.1692 18.2817L24.2723 18.3897L24.3192 18.31C24.3463 18.2547 24.3545 18.1921 24.3427 18.1317C24.3239 18.0472 24.3287 18.0426 24.3567 18.0988C24.3972 18.1517 24.4445 18.1992 24.4975 18.2396L24.6007 18.3241L24.6712 18.1973C24.7414 18.066 24.7414 18.066 24.7697 18.1457C24.8165 18.2442 25.1215 18.4977 25.3795 18.6431C25.4264 18.6666 25.4077 18.5915 25.3327 18.4085C25.3102 18.3483 25.2974 18.285 25.2952 18.2208C25.2952 18.1363 25.2717 18.0988 25.1637 18.0143C25.0967 17.9715 25.0405 17.9136 24.9997 17.8451C24.959 17.7767 24.9348 17.6997 24.9292 17.6202C24.915 17.5406 24.8869 17.4561 24.8634 17.428C24.8353 17.381 24.8259 17.4092 24.8353 17.5498C24.8447 17.6485 24.8307 17.7703 24.8072 17.8221L24.7697 17.9158L24.7414 17.8361C24.7227 17.7938 24.6477 17.7187 24.5772 17.6718C24.5069 17.625 24.4552 17.5781 24.4647 17.5687C24.474 17.5592 24.5492 17.6015 24.6288 17.6625C24.7555 17.7611 24.779 17.7703 24.7977 17.7282C24.8165 17.6812 24.7977 17.4655 24.7602 17.3153C24.7414 17.2402 24.7414 17.2402 24.8353 17.3341C24.901 17.3997 24.9385 17.4842 24.9713 17.625C25.0089 17.8032 25.0277 17.8361 25.1918 17.9816C25.2904 18.0707 25.3795 18.1363 25.3842 18.1317C25.3937 18.1222 25.403 17.8971 25.4124 17.625C25.4312 17.1042 25.4124 16.9775 25.2857 16.818L25.22 16.7336L25.3232 16.6257C25.4388 16.5151 25.5162 16.3703 25.5437 16.2127L25.5625 16.0861L25.4499 16.194C25.3562 16.2832 25.3092 16.3018 25.2012 16.3018C25.0933 16.3018 25.0512 16.2832 24.9807 16.2081C24.8712 16.1026 24.7375 16.0252 24.5913 15.9828C24.535 15.9641 24.5162 15.9735 24.5162 16.011C24.5162 16.0392 24.4882 16.1142 24.4507 16.1846L24.3849 16.3066L24.2442 16.1658C24.155 16.0861 24.0565 16.0157 23.9767 15.997C23.7843 15.9501 23.7749 15.9501 23.7749 16.0955C23.7749 16.316 23.6812 16.3582 23.5122 16.2127C23.3808 16.1002 23.2777 16.072 23.029 16.1048L22.8413 16.1237L22.8742 16.2081C22.9023 16.2785 22.8977 16.3112 22.8367 16.3911C22.7382 16.5223 22.6114 16.5787 22.4143 16.5787C22.3205 16.5787 22.2079 16.5975 22.161 16.621C22.1142 16.6443 21.9922 16.6678 21.8937 16.6772C21.7997 16.6867 21.6918 16.7053 21.659 16.7147C21.6122 16.7336 21.6122 16.7147 21.6262 16.6116C21.6497 16.4521 21.5323 16.3301 21.3587 16.3301C21.1288 16.3301 21.0257 16.5365 21.1147 16.8086C21.133 16.8673 21.1487 16.9267 21.1617 16.9868C21.2233 17.1042 21.306 17.2092 21.4057 17.2966C21.5277 17.4186 21.6402 17.5452 21.659 17.5781C21.6967 17.627 21.7448 17.6671 21.7997 17.6953L21.9029 17.7517L21.8889 17.6391C21.8748 17.5171 21.8983 17.4982 21.9639 17.5875C21.9874 17.6156 22.0484 17.6672 22.0953 17.6953C22.1752 17.7422 22.1892 17.7422 22.1892 17.7047C22.1892 17.6766 22.2032 17.6156 22.222 17.5687L22.2548 17.4842L22.3158 17.6015C22.3487 17.6672 22.4567 17.8127 22.5552 17.93C22.7475 18.1505 22.8694 18.3991 22.8084 18.4553C22.7803 18.4788 22.7147 18.4788 22.5739 18.4507C22.4707 18.432 22.3393 18.4178 22.283 18.4272C22.1752 18.4413 22.1657 18.4272 22.2362 18.3427C22.3064 18.249 22.2924 18.2348 22.1517 18.2348C21.9874 18.2348 21.5792 18.1552 21.4197 18.0942C21.2697 18.0332 21.232 18.0472 21.1852 18.1927L21.1054 18.4553L21.0584 18.5962L21.2273 18.5821C21.3144 18.573 21.4007 18.5572 21.4854 18.5352C21.5187 18.5241 21.5537 18.5193 21.5887 18.5211C21.598 18.5257 21.5745 18.5821 21.5417 18.6477L21.476 18.7603L21.5792 18.7416C21.6355 18.7276 21.72 18.6993 21.7669 18.676C21.8513 18.6383 21.8607 18.6383 21.9264 18.7462C22.0062 18.873 22.0672 18.8682 22.0812 18.7322C22.0953 18.5915 22.1422 18.6102 22.2314 18.7978C22.3158 18.9762 22.4003 19.0418 22.419 18.9387C22.4237 18.9012 22.466 18.8448 22.5177 18.8072C22.6208 18.7368 22.6958 18.7603 22.7382 18.8682C22.785 18.9856 22.6818 19.1028 22.3909 19.2812C22.1215 19.4298 21.8897 19.6382 21.7132 19.8903C21.5368 20.1425 21.4203 20.4316 21.3728 20.7356C21.2837 21.2892 21.5604 21.8616 22.1047 22.2792C22.3674 22.4762 22.785 22.6827 22.7568 22.6076C22.6442 22.2651 22.6489 21.6223 22.7615 21.5145C22.7803 21.4957 22.7757 21.5613 22.7475 21.6598C22.6537 22.0305 22.7005 22.3213 22.9352 23.0063C23.1417 23.6257 23.1134 23.8932 22.8132 24.0667C22.7193 24.1231 22.6583 24.1323 22.4003 24.1277C22.1188 24.1277 22.0859 24.1277 21.9968 24.2027C21.889 24.3128 21.8184 24.454 21.795 24.6062C21.795 24.6672 21.8607 24.6578 21.9827 24.5875H21.9874Z" fill="#FFB700" stroke="black" stroke-width="0.131369"/>
<path d="M26.5395 24.5741L26.6569 24.4991L26.7365 24.5741C26.8399 24.6727 26.9664 24.668 27.065 24.5695C27.1119 24.5225 27.1494 24.4944 27.1541 24.4991L27.1964 24.5741C27.2199 24.6164 27.2714 24.6351 27.3652 24.6445C27.4731 24.6492 27.506 24.6445 27.5529 24.5788L27.5999 24.4991L27.7171 24.5741C28.0362 24.7806 28.2051 24.5648 28.0596 24.1378C27.9892 23.922 28.0315 23.8 28.2614 23.5279C28.3599 23.4106 28.4396 23.2839 28.4396 23.2464C28.4396 23.1948 28.4209 23.1854 28.2895 23.1901C28.1675 23.1901 28.13 23.176 28.0644 23.1056C27.9564 22.9883 27.9659 22.8523 28.0831 22.7021L28.1769 22.5849L28.008 22.4723C27.8732 22.3727 27.7476 22.2612 27.6327 22.1391C27.5304 22.0183 27.405 21.9188 27.2642 21.8463C27.1234 21.7739 26.9695 21.7299 26.8116 21.7169L26.5911 21.6934V21.8623C26.5911 22.0735 26.6944 22.2799 26.9664 22.6271C27.2761 23.0212 27.2949 23.0822 27.3089 23.5983L27.323 24.0346L27.2292 24.1191C27.1494 24.1941 27.1166 24.2082 26.8539 24.2223C26.6052 24.2363 26.5489 24.2504 26.4785 24.3161C26.3961 24.3762 26.3392 24.4649 26.319 24.5648C26.3049 24.6351 26.3096 24.6492 26.3612 24.6492C26.394 24.6492 26.4739 24.6164 26.5395 24.5741ZM19.8679 23.4481C19.8962 23.4065 19.9125 23.3577 19.9149 23.3074C19.9149 23.2605 19.9429 23.2417 20.0649 23.2229L20.2104 23.2042L20.1165 23.1244C19.9992 23.0306 19.9851 22.9602 20.0884 22.9602C20.1916 22.9602 20.3605 22.857 20.3886 22.7772C20.4027 22.7397 20.3886 22.6928 20.3699 22.6693C20.3136 22.6036 20.2056 22.613 20.1869 22.6881C20.1634 22.7631 20.1306 22.7631 20.0461 22.6881C19.9289 22.5708 19.9241 22.3315 20.0461 22.1907C20.0977 22.1251 20.0977 22.1251 20.0274 22.0547C19.9524 21.9796 19.896 21.8389 19.9335 21.8013C19.9429 21.792 20.0039 21.8013 20.0649 21.8248C20.1587 21.8529 20.1916 21.8529 20.2291 21.8248C20.337 21.7356 20.2197 21.623 20.0414 21.6512C19.9664 21.6606 19.9382 21.6512 19.9289 21.6137C19.9195 21.5855 19.8585 21.548 19.7881 21.5292C19.6614 21.4964 19.6614 21.4964 19.6614 21.5855C19.6614 21.6793 19.6051 21.6981 19.5019 21.6371C19.4174 21.5902 19.3377 21.6277 19.3377 21.7169C19.3377 21.8013 19.4174 21.8389 19.5724 21.8295C19.6849 21.8248 19.6896 21.9092 19.5816 22.0312L19.5019 22.1251L19.5629 22.2142C19.6567 22.3456 19.6474 22.5661 19.5489 22.6787L19.469 22.7631L19.4174 22.6928C19.3424 22.5989 19.2439 22.6036 19.2157 22.7068C19.2016 22.7725 19.2157 22.8007 19.3001 22.8757C19.3564 22.9227 19.4409 22.9602 19.4831 22.9602C19.591 22.9602 19.5864 23.0493 19.4737 23.1338L19.3799 23.2042L19.5207 23.2229C19.5957 23.237 19.6614 23.2558 19.6614 23.2698C19.6614 23.3308 19.7552 23.5138 19.7834 23.5138C19.8022 23.5138 19.8397 23.481 19.8679 23.4434V23.4481Z" fill="#FFB700" stroke="black" stroke-width="0.131369"/>
<path d="M21.6597 22.6691C21.7864 22.6222 22.0585 22.3876 22.0585 22.336C22.0585 22.3173 21.9834 22.2328 21.8896 22.1484C21.7019 21.9795 21.4908 21.6839 21.4345 21.515C21.4064 21.4211 21.2703 21.271 20.8856 20.8957L20.3742 20.403L20.2287 20.4406C20.1443 20.4593 20.0457 20.4781 20.0082 20.4781C19.9378 20.4781 19.9378 20.4781 20.0317 20.5532L20.1255 20.6282L20.2663 20.5532C20.3929 20.4781 20.3976 20.4781 20.4117 20.5391C20.4211 20.5719 20.4023 20.6329 20.3648 20.6752C20.3319 20.7174 20.3132 20.769 20.3179 20.7831C20.3319 20.7971 20.2991 20.83 20.2475 20.8581C20.1537 20.905 20.0833 21.0599 20.1584 21.0599C20.2287 21.0599 20.3789 20.8722 20.3601 20.8112C20.3507 20.7784 20.3601 20.7455 20.3695 20.7361C20.4305 20.7033 20.4258 20.8487 20.3695 20.9238C20.3319 20.9613 20.3132 21.0083 20.3226 21.027C20.3319 21.0411 20.2991 21.0739 20.2475 21.1021C20.1537 21.149 20.0833 21.3038 20.1584 21.3038C20.2334 21.3038 20.3789 21.1256 20.3648 21.0599C20.3554 21.027 20.3554 20.9895 20.3695 20.9801C20.4117 20.9613 20.4305 21.0739 20.3976 21.1303C20.389 21.1461 20.3845 21.1638 20.3845 21.1819C20.3845 21.1999 20.389 21.2176 20.3976 21.2335C20.4305 21.2945 20.3976 21.4071 20.3366 21.4446C20.3132 21.4587 20.3273 21.4915 20.3929 21.5384C20.4868 21.6041 20.4868 21.6135 20.4868 21.9138C20.4868 22.1671 20.4962 22.2328 20.5431 22.275C20.59 22.322 20.5994 22.322 20.5994 22.275C20.5994 22.2281 20.6932 22.1624 20.7636 22.1624C20.787 22.1624 20.9231 22.2797 21.0685 22.4205C21.214 22.5612 21.3688 22.6879 21.411 22.6926L21.5143 22.7114C21.5283 22.7114 21.594 22.6973 21.6597 22.6644V22.6691ZM20.0974 21.4446C20.0974 21.3648 19.9285 21.2757 19.7267 21.2569C19.5625 21.2335 19.5625 21.2382 19.5625 21.3179C19.5625 21.3836 19.586 21.4118 19.7033 21.4587C19.8815 21.5384 20.0974 21.529 20.0974 21.4446Z" fill="#FFB700" stroke="black" stroke-width="0.131369"/>
<path d="M20.2799 21.435C20.3643 21.3599 20.4019 21.2754 20.3503 21.2754C20.294 21.2754 20.1438 21.4068 20.1438 21.4631C20.1438 21.5382 20.172 21.5335 20.2846 21.435H20.2799ZM20.1063 21.1957C20.111 21.1488 20.0828 21.1206 19.9984 21.0784C19.8108 20.9986 19.5949 20.9564 19.5433 20.9986C19.4448 21.0784 19.5104 21.1816 19.6653 21.2004C19.7309 21.2051 19.8154 21.2238 19.8576 21.2426C19.9796 21.2895 20.0923 21.2661 20.1063 21.1957ZM20.1063 20.947C20.1158 20.886 20.0734 20.8626 19.7309 20.7406C19.4729 20.6468 19.3603 20.6937 19.4448 20.8485C19.4729 20.9001 19.5198 20.9236 19.6278 20.9423C19.7075 20.9517 19.8154 20.9752 19.867 20.9939C20.0078 21.0409 20.0923 21.0221 20.1017 20.947H20.1063ZM20.2753 20.7171C20.3268 20.6655 20.369 20.6045 20.369 20.5764C20.369 20.506 20.1673 20.6374 20.1391 20.7312C20.111 20.8391 20.1626 20.8344 20.2799 20.7171H20.2753ZM20.1063 20.7031C20.1158 20.628 19.9938 20.5623 19.7498 20.5107C19.5668 20.4685 19.487 20.4919 19.5011 20.5764C19.5104 20.6233 19.5714 20.6561 19.7356 20.7077C20.0125 20.7922 20.0923 20.7922 20.1063 20.7031ZM20.3409 20.3559C20.6599 20.2151 20.6834 19.8632 20.3878 19.7694C20.2658 19.7319 20.1908 19.7553 20.1438 19.8351C20.1063 19.9008 20.1298 20.0134 20.1768 20.0134C20.1954 20.0134 20.2095 20.0368 20.2095 20.0603C20.2095 20.187 19.7309 20.2386 19.5339 20.14C19.4635 20.1072 19.4401 20.0134 19.4918 20.0134C19.5386 20.0134 19.5668 19.9195 19.5433 19.8585C19.5152 19.7647 19.4213 19.7366 19.2946 19.7741C18.999 19.8492 19.0084 20.1963 19.3088 20.3371C19.6409 20.459 20.0045 20.4656 20.3409 20.3559Z" fill="#FFB700" stroke="black" stroke-width="0.131369"/>
<path d="M20.1503 20.0834C20.1691 20.0647 20.1597 20.0365 20.1314 20.0178C20.0658 19.9661 20.0704 19.8864 20.1409 19.7972C20.1972 19.7316 20.2019 19.6283 20.2207 18.6196C20.2534 16.879 20.3849 15.57 20.5538 15.251C20.6242 15.129 20.6148 15.129 20.4364 15.251C20.2026 15.4139 20.0138 15.6334 19.8876 15.889C19.5967 16.4286 19.4981 17.1558 19.4981 18.7135C19.4981 19.5955 19.5028 19.7128 19.5544 19.7926C19.6014 19.877 19.6014 19.9052 19.5732 19.9896C19.5498 20.0412 19.5404 20.0975 19.5498 20.1069C19.6154 20.1679 20.0846 20.1538 20.1503 20.0834ZM22.7824 18.4226C22.7964 18.4085 22.7729 18.3287 22.7354 18.2537C22.6791 18.1317 22.6557 18.1129 22.5759 18.1129C22.2008 18.0803 21.8349 17.9785 21.4968 17.8126C21.2574 17.7047 21.1684 17.6813 21.1449 17.7094C21.0699 17.7798 21.1919 17.944 21.3794 18.0332C21.6557 18.1327 21.9449 18.1912 22.2381 18.2067C22.3648 18.2067 22.3694 18.2067 22.2944 18.3147L22.2474 18.3897H22.3883L22.6228 18.4179C22.7636 18.4507 22.7636 18.4507 22.7824 18.4226Z" fill="#FFB700" stroke="black" stroke-width="0.131369"/>
<path d="M24.2632 19.2067C24.2632 19.1598 24.1271 19.0425 23.9958 18.9627C23.8879 18.9017 23.8691 18.897 23.8691 18.9486C23.8691 19.0237 23.8034 19.2161 23.7753 19.2161C23.7612 19.2161 23.7377 19.1785 23.7283 19.1363C23.7143 19.0893 23.6627 18.9956 23.611 18.9346L23.5172 18.8173L23.4515 18.9252C23.3858 19.0283 23.2686 19.1268 23.2169 19.1268C23.2076 19.1268 23.2029 19.0706 23.2169 19.0096C23.2216 18.9346 23.2169 18.8783 23.1935 18.8688C23.1747 18.8548 23.1559 18.8595 23.1559 18.8783C23.1559 18.9158 22.9964 19.0941 22.9683 19.0941C22.9495 19.0941 22.9307 19.0472 22.9214 18.9815L22.8838 18.7563C22.8744 18.7 22.8979 18.7375 22.9307 18.8501L23.0058 19.0425L23.0809 18.9252C23.1149 18.8767 23.1403 18.8227 23.1559 18.7657C23.1559 18.7422 23.17 18.7328 23.1888 18.7422C23.2076 18.7516 23.231 18.8313 23.2404 18.9158L23.2639 19.0753L23.3483 18.9815C23.3925 18.9343 23.4333 18.8842 23.4703 18.8313C23.5031 18.775 23.5078 18.775 23.5782 18.8313C23.6157 18.8688 23.6767 18.9486 23.7143 19.0143C23.7518 19.08 23.7846 19.1268 23.7893 19.1222L23.8175 18.9721L23.8362 18.8313C23.8409 18.8078 24.0896 18.9721 24.1834 19.0518C24.2397 19.1035 24.296 19.141 24.3054 19.1316C24.3148 19.1222 24.3242 19.0472 24.3242 18.958C24.3242 18.8267 24.3101 18.7891 24.2304 18.7187C24.1365 18.6343 24.1365 18.6343 24.099 18.6953C24.0521 18.775 24.0005 18.775 24.0005 18.6953C24.0005 18.639 23.8222 18.4185 23.7799 18.4185C23.7659 18.4185 23.7283 18.4653 23.6955 18.5263C23.6627 18.5873 23.6251 18.6343 23.6157 18.6343C23.5688 18.6343 23.3202 18.3528 23.3202 18.3058C23.3202 18.2683 23.3389 18.2777 23.3812 18.3433C23.4231 18.405 23.4719 18.4617 23.5266 18.5123C23.6204 18.5968 23.658 18.578 23.6955 18.4138C23.7096 18.3668 23.7283 18.3293 23.7424 18.3293C23.7799 18.3293 23.9958 18.5592 24.0239 18.6343L24.0568 18.7093L24.0802 18.6248C24.1084 18.5217 24.1412 18.5217 24.1881 18.6155C24.2069 18.6531 24.3007 18.7375 24.3946 18.7938L24.5682 18.9063L24.601 18.7938C24.6198 18.7328 24.6479 18.7 24.6573 18.7187C24.6761 18.7422 24.6292 18.9298 24.5963 18.9673C24.5963 18.9721 24.5353 18.9393 24.4743 18.897L24.357 18.8126V18.9627C24.357 19.0425 24.3476 19.141 24.3383 19.1785C24.3148 19.2536 24.2585 19.2723 24.2585 19.2067H24.2632ZM23.3952 18.015C23.1888 17.8461 23.1606 17.8085 23.1606 17.7241L23.1653 17.6396L23.1794 17.7193C23.1888 17.7663 23.2451 17.8413 23.3108 17.8977L23.4328 17.9915L23.5031 17.9071C23.5454 17.8602 23.5782 17.8038 23.5782 17.7851C23.5782 17.7288 23.5876 17.7335 23.7283 17.8555C23.8503 17.9633 23.855 17.9633 23.8691 17.893C23.8832 17.8555 23.8785 17.7803 23.8691 17.7288C23.8222 17.588 23.8316 17.5693 23.8926 17.6537L24.0052 17.7851C24.0521 17.8367 24.0568 17.8367 24.0755 17.771C24.0896 17.7288 24.099 17.6583 24.099 17.6115V17.5223L24.2069 17.649C24.3148 17.771 24.3242 17.7757 24.3523 17.7147C24.3758 17.6818 24.3899 17.6021 24.3899 17.5411C24.3899 17.4567 24.3993 17.4378 24.418 17.4661C24.4556 17.5223 24.4321 17.6631 24.3664 17.7851L24.3195 17.8788L24.2585 17.7803C24.1787 17.6583 24.1506 17.6583 24.1037 17.7898C24.0568 17.9165 24.0239 17.9258 23.977 17.8273C23.9489 17.7663 23.9395 17.7757 23.9207 17.9071L23.8972 18.0478L23.7565 17.9398L23.6157 17.832L23.5454 17.9023C23.5125 17.9446 23.4844 17.9962 23.4844 18.015C23.4844 18.0618 23.4468 18.0618 23.3952 18.015ZM25.225 17.3768C25.1546 17.3112 25.103 17.2455 25.1124 17.2362C25.1265 17.2221 25.1359 17.2173 25.1406 17.2268C25.186 17.2752 25.2329 17.3221 25.2813 17.3675C25.4408 17.5363 25.408 17.5411 25.2297 17.3768H25.225ZM22.7853 17.1236C22.7196 17.0297 22.7243 16.9733 22.8088 16.8702C22.8651 16.7998 22.8932 16.7903 22.9964 16.8045C23.0668 16.8092 23.2122 16.8702 23.3202 16.9358C23.4761 17.0291 23.6546 17.0777 23.8362 17.0766L23.7565 16.9453C23.6533 16.7903 23.6533 16.7717 23.7753 16.8655C23.8972 16.964 24.0427 16.9922 24.3711 16.9828L24.5306 16.9781L24.4368 16.8843C24.3101 16.7576 24.3476 16.7435 24.4931 16.8702C24.6245 16.9875 24.6198 16.9968 24.3336 17.025C24.2142 17.0371 24.0937 17.0292 23.977 17.0016C23.8175 16.9547 23.8081 16.9593 23.8409 17.011C23.8597 17.0438 23.8879 17.0673 23.9019 17.0673C23.9207 17.0673 23.9348 17.086 23.9348 17.1048C23.9348 17.1658 23.5876 17.1095 23.4187 17.0297C23.0433 16.8373 22.9964 16.8186 22.9026 16.8467C22.8776 16.8563 22.8548 16.8708 22.8354 16.8893C22.8161 16.9078 22.8007 16.9301 22.79 16.9547C22.729 17.1095 22.9495 17.2315 23.0387 17.0953C23.0668 17.0532 23.0621 17.0297 23.0152 16.9781C22.9495 16.9123 22.9589 16.903 23.0433 16.9312C23.1043 16.9547 23.109 17.1001 23.0527 17.1563C22.9917 17.2173 22.8416 17.2033 22.7853 17.1236Z" fill="black" stroke="black" stroke-width="0.131369"/>
<path d="M24.2816 16.743C24.2347 16.6961 24.2722 16.6867 24.4833 16.682C24.7461 16.6773 24.9056 16.6351 25.0933 16.5131C25.2434 16.4193 25.2856 16.438 25.1402 16.5366C25.0135 16.6304 24.8118 16.6961 24.61 16.7147L24.3707 16.7477C24.3332 16.7571 24.291 16.7524 24.2769 16.743H24.2816Z" fill="black" stroke="black" stroke-width="0.131369"/>
<path d="M21.9874 24.5875L22.0953 24.5218L22.1422 24.5875C22.2032 24.672 22.3768 24.6672 22.4894 24.5875L22.5787 24.5172L22.6537 24.5827C22.7475 24.672 22.9257 24.672 23.043 24.5827C23.1228 24.5265 23.1369 24.5218 23.1838 24.5687C23.2167 24.5968 23.3105 24.6251 23.3902 24.6391C23.5404 24.6578 23.5404 24.6578 23.6248 24.5265C23.6999 24.4186 23.7093 24.3763 23.6952 24.2685C23.6822 24.1861 23.6727 24.1031 23.667 24.0197C23.6577 23.8978 23.6623 23.8978 23.8359 23.8322C23.9222 23.8057 24.0067 23.7743 24.0893 23.7382C24.1597 23.6961 24.3567 23.4662 24.3567 23.4192C24.3567 23.4098 24.2817 23.3911 24.1878 23.3817C23.8125 23.3347 23.7515 23.1377 23.9955 22.7717C24.3849 22.1618 24.6242 21.5753 24.6242 21.2047C24.6242 21.0358 24.6382 20.9796 24.657 21.0171C24.7462 21.1626 24.5867 21.7866 24.352 22.237L24.2582 22.4152L24.3473 22.3965C24.3943 22.3823 24.6945 22.2557 25.0042 22.115C25.8582 21.7302 26.149 21.6552 26.7027 21.6787C27.1672 21.6973 27.3594 21.7866 27.6879 22.1291C27.8614 22.3167 28.0303 22.4433 28.3353 22.6357C28.9828 23.0392 29.0109 23.0767 29.0438 23.5553C29.0767 24.0386 29.0578 24.0667 28.6919 24.1465C28.3775 24.2168 28.1805 24.3622 28.1289 24.5687C28.1007 24.672 28.1617 24.6767 28.3165 24.5735L28.4338 24.4983L28.4854 24.5735C28.5558 24.672 28.6967 24.672 28.8139 24.5735L28.9077 24.5031L29.0015 24.5735C29.1423 24.6907 29.33 24.6626 29.3863 24.5172C29.3957 24.4937 29.4238 24.4983 29.4802 24.55C29.588 24.6437 29.8554 24.6813 29.8837 24.6062C29.893 24.5782 29.8742 24.5125 29.8367 24.4562C29.6818 24.2216 29.6302 24.1137 29.6302 23.987C29.6302 23.8087 29.6772 23.7196 29.8837 23.5787C30.1277 23.4005 30.2027 23.1752 30.015 23.1752C29.9023 23.1752 29.7852 23.0721 29.71 22.9078C29.5599 22.5701 29.5927 22.1947 29.8179 21.5661C29.9907 21.1962 30.0772 20.7918 30.0713 20.3837C30.0713 20.0366 30.0619 19.9802 29.9868 19.7878C29.9282 19.6542 29.8558 19.5267 29.771 19.4078L29.6397 19.2342L29.8038 19.0935C30.3105 18.676 30.2073 17.991 29.5974 17.7282C29.4097 17.6437 29.3628 17.6391 29.0344 17.6391C28.8467 17.6391 28.5417 17.6672 28.3775 17.7001C28.1572 17.735 27.9345 17.7537 27.7113 17.7563C27.3923 17.7563 27.336 17.747 27.214 17.6812C27.0873 17.6156 27.0639 17.5827 27.0404 17.4232C27.0382 17.4082 27.0323 17.394 27.0233 17.3817C27.0143 17.3693 27.0024 17.3596 26.9888 17.3528C26.9419 17.3387 26.7448 17.5123 26.7167 17.5875C26.6979 17.6297 26.6885 17.625 26.6463 17.5733C26.6065 17.5222 26.5748 17.4652 26.5525 17.4045C26.5055 17.2497 26.5665 17.1371 26.7495 17.0478L26.8903 16.9822L26.8058 16.9306C26.6369 16.8227 26.346 16.8977 26.2428 17.0713C26.21 17.1182 26.1772 17.1652 26.1677 17.1652C26.1583 17.1652 26.102 17.1182 26.0457 17.0572C25.8252 16.8415 25.9003 16.5223 26.1959 16.4286C26.3507 16.377 26.4915 16.4145 26.5197 16.5223C26.5665 16.6772 26.6979 16.4707 26.6744 16.2785C26.6604 16.1517 26.6604 16.1471 26.7495 16.1471C26.8715 16.1471 27.1248 16.3066 27.2093 16.4286C27.3032 16.5741 27.2937 16.804 27.1905 16.9728L27.1108 17.1042L27.2187 17.0855C27.3688 17.0526 27.519 16.9587 27.594 16.8415C27.6337 16.7667 27.6558 16.6841 27.6592 16.5997C27.6623 16.5152 27.6465 16.4311 27.6128 16.3535C27.5424 16.2268 27.5518 16.2081 27.655 16.2502C27.8239 16.3207 27.9177 16.4005 27.9834 16.5365C28.0492 16.6585 28.0538 16.6867 28.021 16.818C27.9985 16.898 27.9637 16.974 27.9177 17.0432C27.8614 17.1182 27.8568 17.1323 27.9037 17.1323C27.9882 17.1323 28.157 17.0526 28.218 16.9916C28.2509 16.9541 28.2978 16.8742 28.3212 16.804L28.3682 16.6867L28.4152 16.7805C28.4854 16.9072 28.6262 17.0245 28.7952 17.0995C28.9782 17.1746 29.0532 17.1792 28.9593 17.1088C28.8937 17.062 28.7717 16.7101 28.8139 16.6772C29.0164 16.7907 29.2013 16.9328 29.3628 17.0995C29.6302 17.3387 29.7992 17.4186 30.0432 17.4186C30.3574 17.4186 30.5404 17.1463 30.3997 16.8883C30.3199 16.7382 30.1369 16.7147 30.0243 16.8415C29.9774 16.9025 29.9633 16.9493 29.9774 17.0151C29.9962 17.0901 29.9915 17.0995 29.9212 17.0995C29.8273 17.0995 29.649 16.9822 29.33 16.7147C28.8859 16.3326 28.3754 16.0352 27.8239 15.8375C27.4503 15.7511 27.0645 15.7305 26.6838 15.7765C26.3837 15.8327 26.027 16.0063 25.8299 16.1892C25.4874 16.5177 25.4827 16.9541 25.8159 17.3528L25.9097 17.4655L25.8487 17.5687C25.8028 17.6426 25.7802 17.7286 25.7834 17.8155C25.7868 17.9025 25.816 17.9865 25.8675 18.0566C25.9144 18.1222 25.9613 18.1738 25.9754 18.1738C25.9848 18.1738 25.9942 18.1317 25.9988 18.0801C26.0082 17.9533 26.0645 17.869 26.1583 17.8361C26.2428 17.8032 26.2992 17.8221 26.6838 17.9768C27.092 18.1363 27.7629 18.1457 28.4762 18.005C28.7852 17.9337 29.1068 17.9368 29.4144 18.0143C29.7522 18.1552 29.8273 18.5163 29.5833 18.7886C29.4754 18.9105 29.3769 18.9575 29.0344 19.0512C28.7362 19.1298 28.4262 19.1537 28.1195 19.1217C27.6128 19.117 27.4298 19.1263 27.2282 19.1686C26.9982 19.2155 26.8622 19.2202 26.2053 19.2061L25.4405 19.1873L25.525 19.253C25.5702 19.2932 25.6189 19.3292 25.6704 19.3608C25.7314 19.3937 25.7267 19.3985 25.6423 19.4312C25.5953 19.4501 25.4827 19.4642 25.3937 19.4642H25.2388L25.22 19.5955C25.2074 19.6575 25.2074 19.7212 25.22 19.7832C25.2388 19.8301 25.2294 19.8395 25.1825 19.8207C25.1497 19.8067 25.0605 19.7832 24.9807 19.7691C24.9002 19.7518 24.8217 19.7267 24.7462 19.6941C24.657 19.6471 24.6477 19.6471 24.6148 19.7081C24.5867 19.7551 24.3239 19.9521 24.2863 19.9521C24.2694 19.8303 24.2347 19.7117 24.1832 19.6002C24.1362 19.5017 24.094 19.3891 24.0799 19.3562C24.0658 19.3046 24.0565 19.3 24.033 19.3422C24.0189 19.3656 24.0002 19.436 23.9862 19.4922C23.9697 19.5682 23.9412 19.6412 23.9017 19.7081L23.8312 19.8113L23.7843 19.7222C23.7374 19.6283 23.6623 19.5252 23.6342 19.5252C23.6248 19.5252 23.6107 19.5532 23.6014 19.5955C23.5779 19.6706 23.3949 19.8911 23.348 19.8911C23.3339 19.8911 23.3198 19.8301 23.3198 19.7503C23.3198 19.68 23.3058 19.6142 23.287 19.6142C23.2682 19.6142 23.2542 19.6377 23.2542 19.6612C23.2542 19.7175 23.0993 19.8957 23.043 19.8957C23.0243 19.8957 22.9867 19.9146 22.9633 19.9427C22.907 20.0037 22.8602 19.9942 22.8835 19.924C22.8902 19.8638 22.8837 19.8031 22.8648 19.7457L22.8178 19.5955C22.8084 19.5721 22.7522 19.5815 22.6302 19.619C22.4425 19.68 22.3768 19.6658 22.4753 19.5907C22.5129 19.5627 22.5692 19.4642 22.5973 19.375C22.6302 19.2812 22.6772 19.2013 22.7005 19.192C22.7334 19.1827 22.7334 19.192 22.6912 19.2482C22.664 19.284 22.6462 19.326 22.6395 19.3702C22.6395 19.3937 22.6162 19.4547 22.5927 19.5063C22.5645 19.5532 22.5457 19.6002 22.5504 19.6048C22.5552 19.6096 22.6302 19.5815 22.7147 19.5438L22.8648 19.4688V19.5345C22.8648 19.5721 22.8835 19.6658 22.907 19.7457L22.9492 19.8863L23.0524 19.8395C23.1557 19.7926 23.2542 19.6237 23.2542 19.4876C23.2542 19.4218 23.2917 19.4312 23.3105 19.5017C23.3105 19.5205 23.3387 19.6002 23.3574 19.6752L23.4043 19.8067L23.4747 19.7222C23.5169 19.6752 23.5638 19.5815 23.5827 19.5205C23.6202 19.4078 23.6764 19.3562 23.6764 19.4407C23.6764 19.497 23.8359 19.7127 23.8642 19.6941C23.8829 19.6847 23.911 19.6048 23.9345 19.5157C23.9814 19.3281 24.0518 19.2061 24.0987 19.2342C24.1174 19.2437 24.1222 19.2623 24.1128 19.2812C24.1034 19.2906 24.1409 19.4126 24.1972 19.5438C24.238 19.6423 24.2787 19.7408 24.3192 19.8395C24.338 19.8863 24.3567 19.8863 24.474 19.7785C24.5444 19.7127 24.6148 19.6425 24.6195 19.619C24.6335 19.5815 24.6477 19.5862 24.7133 19.6283C24.8517 19.7015 25.0032 19.7461 25.159 19.7597C25.1684 19.7503 25.1778 19.6658 25.1778 19.5721L25.1825 19.3985L25.2763 19.4172C25.3232 19.4312 25.4312 19.4312 25.5109 19.4172L25.6517 19.3985L25.525 19.3046C25.4547 19.2577 25.3842 19.1967 25.3654 19.1686C25.3514 19.1403 25.2857 19.1122 25.2153 19.1076C25.0229 19.0887 24.6805 18.9012 24.6805 18.8072C24.6805 18.7886 24.7274 18.8213 24.7837 18.873C24.915 18.9902 25.0933 19.0607 25.2528 19.0607H25.3654L25.2952 18.9667C25.2449 18.8941 25.2128 18.8105 25.2012 18.7228C25.1918 18.5821 25.1778 18.5633 25.0323 18.4647C24.948 18.4051 24.8695 18.3375 24.7977 18.2631L24.718 18.1738L24.6758 18.2817C24.6523 18.3427 24.6288 18.3897 24.6148 18.3897C24.6054 18.3897 24.5585 18.3522 24.5209 18.31C24.4945 18.2793 24.4627 18.254 24.4272 18.2348C24.413 18.2348 24.3802 18.2912 24.3427 18.3616L24.277 18.4882L24.23 18.4178C24.1883 18.3603 24.1412 18.307 24.0893 18.2583C24.033 18.2115 24.0095 18.1738 24.0283 18.1738C24.0472 18.1738 24.1082 18.2208 24.1692 18.2817L24.2723 18.3897L24.3192 18.31C24.3463 18.2547 24.3545 18.1921 24.3427 18.1317C24.3239 18.0472 24.3287 18.0426 24.3567 18.0988C24.3972 18.1517 24.4445 18.1992 24.4975 18.2396L24.6007 18.3241L24.6712 18.1973C24.7414 18.066 24.7414 18.066 24.7697 18.1457C24.8165 18.2442 25.1215 18.4977 25.3795 18.6431C25.4264 18.6666 25.4077 18.5915 25.3327 18.4085C25.3102 18.3483 25.2974 18.285 25.2952 18.2208C25.2952 18.1363 25.2717 18.0988 25.1637 18.0143C25.0967 17.9715 25.0405 17.9136 24.9997 17.8451C24.959 17.7767 24.9348 17.6997 24.9292 17.6202C24.915 17.5406 24.8869 17.4561 24.8634 17.428C24.8353 17.381 24.8259 17.4092 24.8353 17.5498C24.8447 17.6485 24.8307 17.7703 24.8072 17.8221L24.7697 17.9158L24.7414 17.8361C24.7227 17.7938 24.6477 17.7187 24.5772 17.6718C24.5069 17.625 24.4552 17.5781 24.4647 17.5687C24.474 17.5592 24.5492 17.6015 24.6288 17.6625C24.7555 17.7611 24.779 17.7703 24.7977 17.7282C24.8165 17.6812 24.7977 17.4655 24.7602 17.3153C24.7414 17.2402 24.7414 17.2402 24.8353 17.3341C24.901 17.3997 24.9385 17.4842 24.9713 17.625C25.0089 17.8032 25.0277 17.8361 25.1918 17.9816C25.2904 18.0707 25.3795 18.1363 25.3842 18.1317C25.3937 18.1222 25.403 17.8971 25.4124 17.625C25.4312 17.1042 25.4124 16.9775 25.2857 16.818L25.22 16.7336L25.3232 16.6257C25.4388 16.5151 25.5162 16.3703 25.5437 16.2127L25.5625 16.0861L25.4499 16.194C25.3562 16.2832 25.3092 16.3018 25.2012 16.3018C25.0933 16.3018 25.0512 16.2832 24.9807 16.2081C24.8712 16.1026 24.7375 16.0252 24.5913 15.9828C24.535 15.9641 24.5162 15.9735 24.5162 16.011C24.5162 16.0392 24.4882 16.1142 24.4507 16.1846L24.3849 16.3066L24.2442 16.1658C24.155 16.0861 24.0565 16.0157 23.9767 15.997C23.7843 15.9501 23.7749 15.9501 23.7749 16.0955C23.7749 16.316 23.6812 16.3582 23.5122 16.2127C23.3808 16.1002 23.2777 16.072 23.029 16.1048L22.8413 16.1237L22.8742 16.2081C22.9023 16.2785 22.8977 16.3112 22.8367 16.3911C22.7382 16.5223 22.6114 16.5787 22.4143 16.5787C22.3205 16.5787 22.2079 16.5975 22.161 16.621C22.1142 16.6443 21.9922 16.6678 21.8937 16.6772C21.7997 16.6867 21.6918 16.7053 21.659 16.7147C21.6122 16.7336 21.6122 16.7147 21.6262 16.6116C21.6497 16.4521 21.5323 16.3301 21.3587 16.3301C21.1288 16.3301 21.0257 16.5365 21.1147 16.8086C21.133 16.8673 21.1487 16.9267 21.1617 16.9868C21.2233 17.1042 21.306 17.2092 21.4057 17.2966C21.5277 17.4186 21.6402 17.5452 21.659 17.5781C21.6967 17.627 21.7448 17.6671 21.7997 17.6953L21.9029 17.7517L21.8889 17.6391C21.8748 17.5171 21.8983 17.4982 21.9639 17.5875C21.9874 17.6156 22.0484 17.6672 22.0953 17.6953C22.1752 17.7422 22.1892 17.7422 22.1892 17.7047C22.1892 17.6766 22.2032 17.6156 22.222 17.5687L22.2548 17.4842L22.3158 17.6015C22.3487 17.6672 22.4567 17.8127 22.5552 17.93C22.7475 18.1505 22.8694 18.3991 22.8084 18.4553C22.7803 18.4788 22.7147 18.4788 22.5739 18.4507C22.4707 18.432 22.3393 18.4178 22.283 18.4272C22.1752 18.4413 22.1657 18.4272 22.2362 18.3427C22.3064 18.249 22.2924 18.2348 22.1517 18.2348C21.9874 18.2348 21.5792 18.1552 21.4197 18.0942C21.2697 18.0332 21.232 18.0472 21.1852 18.1927L21.1054 18.4553L21.0584 18.5962L21.2273 18.5821C21.3144 18.573 21.4007 18.5572 21.4854 18.5352C21.5187 18.5241 21.5537 18.5193 21.5887 18.5211C21.598 18.5257 21.5745 18.5821 21.5417 18.6477L21.476 18.7603L21.5792 18.7416C21.6355 18.7276 21.72 18.6993 21.7669 18.676C21.8513 18.6383 21.8607 18.6383 21.9264 18.7462C22.0062 18.873 22.0672 18.8682 22.0812 18.7322C22.0953 18.5915 22.1422 18.6102 22.2314 18.7978C22.3158 18.9762 22.4003 19.0418 22.419 18.9387C22.4237 18.9012 22.466 18.8448 22.5177 18.8072C22.6208 18.7368 22.6958 18.7603 22.7382 18.8682C22.785 18.9856 22.6818 19.1028 22.3909 19.2812C22.1215 19.4298 21.8897 19.6382 21.7132 19.8903C21.5368 20.1425 21.4203 20.4316 21.3728 20.7356C21.2837 21.2892 21.5604 21.8616 22.1047 22.2792C22.3674 22.4762 22.785 22.6827 22.7568 22.6076C22.6442 22.2651 22.6489 21.6223 22.7615 21.5145C22.7803 21.4957 22.7757 21.5613 22.7475 21.6598C22.6537 22.0305 22.7005 22.3213 22.9352 23.0063C23.1417 23.6257 23.1134 23.8932 22.8132 24.0667C22.7193 24.1231 22.6583 24.1323 22.4003 24.1277C22.1188 24.1277 22.0859 24.1277 21.9968 24.2027C21.889 24.3128 21.8184 24.454 21.795 24.6062C21.795 24.6672 21.8607 24.6578 21.9827 24.5875H21.9874Z" fill="#FFB700"/>
<path d="M26.5395 24.5741L26.6569 24.4991L26.7365 24.5741C26.8399 24.6727 26.9664 24.668 27.065 24.5695C27.1119 24.5225 27.1494 24.4944 27.1541 24.4991L27.1964 24.5741C27.2199 24.6164 27.2714 24.6351 27.3652 24.6445C27.4731 24.6492 27.506 24.6445 27.5529 24.5788L27.5999 24.4991L27.7171 24.5741C28.0362 24.7806 28.2051 24.5648 28.0596 24.1378C27.9892 23.922 28.0315 23.8 28.2614 23.5279C28.3599 23.4106 28.4396 23.2839 28.4396 23.2464C28.4396 23.1948 28.4209 23.1854 28.2895 23.1901C28.1675 23.1901 28.13 23.176 28.0644 23.1056C27.9564 22.9883 27.9659 22.8523 28.0831 22.7021L28.1769 22.5849L28.008 22.4723C27.8732 22.3727 27.7476 22.2612 27.6327 22.1391C27.5304 22.0183 27.405 21.9188 27.2642 21.8463C27.1234 21.7739 26.9695 21.7299 26.8116 21.7169L26.5911 21.6934V21.8623C26.5911 22.0735 26.6944 22.2799 26.9664 22.6271C27.2761 23.0212 27.2949 23.0822 27.3089 23.5983L27.323 24.0346L27.2292 24.1191C27.1494 24.1941 27.1166 24.2082 26.8539 24.2223C26.6052 24.2363 26.5489 24.2504 26.4785 24.3161C26.3961 24.3762 26.3392 24.4649 26.319 24.5648C26.3049 24.6351 26.3096 24.6492 26.3612 24.6492C26.394 24.6492 26.4739 24.6164 26.5395 24.5741ZM19.8679 23.4481C19.8962 23.4065 19.9125 23.3577 19.9149 23.3074C19.9149 23.2605 19.9429 23.2417 20.0649 23.2229L20.2104 23.2042L20.1165 23.1244C19.9992 23.0306 19.9851 22.9602 20.0884 22.9602C20.1916 22.9602 20.3605 22.857 20.3886 22.7772C20.4027 22.7397 20.3886 22.6928 20.3699 22.6693C20.3136 22.6036 20.2056 22.613 20.1869 22.6881C20.1634 22.7631 20.1306 22.7631 20.0461 22.6881C19.9289 22.5708 19.9241 22.3315 20.0461 22.1907C20.0977 22.1251 20.0977 22.1251 20.0274 22.0547C19.9524 21.9796 19.896 21.8389 19.9335 21.8013C19.9429 21.792 20.0039 21.8013 20.0649 21.8248C20.1587 21.8529 20.1916 21.8529 20.2291 21.8248C20.337 21.7356 20.2197 21.623 20.0414 21.6512C19.9664 21.6606 19.9382 21.6512 19.9289 21.6137C19.9195 21.5855 19.8585 21.548 19.7881 21.5292C19.6614 21.4964 19.6614 21.4964 19.6614 21.5855C19.6614 21.6793 19.6051 21.6981 19.5019 21.6371C19.4174 21.5902 19.3377 21.6277 19.3377 21.7169C19.3377 21.8013 19.4174 21.8389 19.5724 21.8295C19.6849 21.8248 19.6896 21.9092 19.5816 22.0312L19.5019 22.1251L19.5629 22.2142C19.6567 22.3456 19.6474 22.5661 19.5489 22.6787L19.469 22.7631L19.4174 22.6928C19.3424 22.5989 19.2439 22.6036 19.2157 22.7068C19.2016 22.7725 19.2157 22.8007 19.3001 22.8757C19.3564 22.9227 19.4409 22.9602 19.4831 22.9602C19.591 22.9602 19.5864 23.0493 19.4737 23.1338L19.3799 23.2042L19.5207 23.2229C19.5957 23.237 19.6614 23.2558 19.6614 23.2698C19.6614 23.3308 19.7552 23.5138 19.7834 23.5138C19.8022 23.5138 19.8397 23.481 19.8679 23.4434V23.4481Z" fill="#FFB700"/>
<path d="M21.6597 22.6691C21.7864 22.6222 22.0585 22.3876 22.0585 22.336C22.0585 22.3173 21.9834 22.2328 21.8896 22.1484C21.7019 21.9795 21.4908 21.6839 21.4345 21.515C21.4064 21.4211 21.2703 21.271 20.8856 20.8957L20.3742 20.403L20.2287 20.4406C20.1443 20.4593 20.0457 20.4781 20.0082 20.4781C19.9378 20.4781 19.9378 20.4781 20.0317 20.5532L20.1255 20.6282L20.2663 20.5532C20.3929 20.4781 20.3976 20.4781 20.4117 20.5391C20.4211 20.5719 20.4023 20.6329 20.3648 20.6752C20.3319 20.7174 20.3132 20.769 20.3179 20.7831C20.3319 20.7971 20.2991 20.83 20.2475 20.8581C20.1537 20.905 20.0833 21.0599 20.1584 21.0599C20.2287 21.0599 20.3789 20.8722 20.3601 20.8112C20.3507 20.7784 20.3601 20.7455 20.3695 20.7361C20.4305 20.7033 20.4258 20.8487 20.3695 20.9238C20.3319 20.9613 20.3132 21.0083 20.3226 21.027C20.3319 21.0411 20.2991 21.0739 20.2475 21.1021C20.1537 21.149 20.0833 21.3038 20.1584 21.3038C20.2334 21.3038 20.3789 21.1256 20.3648 21.0599C20.3554 21.027 20.3554 20.9895 20.3695 20.9801C20.4117 20.9613 20.4305 21.0739 20.3976 21.1303C20.389 21.1461 20.3845 21.1638 20.3845 21.1819C20.3845 21.1999 20.389 21.2176 20.3976 21.2335C20.4305 21.2945 20.3976 21.4071 20.3366 21.4446C20.3132 21.4587 20.3273 21.4915 20.3929 21.5384C20.4868 21.6041 20.4868 21.6135 20.4868 21.9138C20.4868 22.1671 20.4962 22.2328 20.5431 22.275C20.59 22.322 20.5994 22.322 20.5994 22.275C20.5994 22.2281 20.6932 22.1624 20.7636 22.1624C20.787 22.1624 20.9231 22.2797 21.0685 22.4205C21.214 22.5612 21.3688 22.6879 21.411 22.6926L21.5143 22.7114C21.5283 22.7114 21.594 22.6973 21.6597 22.6644V22.6691ZM20.0974 21.4446C20.0974 21.3648 19.9285 21.2757 19.7267 21.2569C19.5625 21.2335 19.5625 21.2382 19.5625 21.3179C19.5625 21.3836 19.586 21.4118 19.7033 21.4587C19.8815 21.5384 20.0974 21.529 20.0974 21.4446Z" fill="#FFB700"/>
<path d="M20.2799 21.435C20.3643 21.3599 20.4019 21.2754 20.3503 21.2754C20.294 21.2754 20.1438 21.4068 20.1438 21.4631C20.1438 21.5382 20.172 21.5335 20.2846 21.435H20.2799ZM20.1063 21.1957C20.111 21.1488 20.0828 21.1206 19.9984 21.0784C19.8108 20.9986 19.5949 20.9564 19.5433 20.9986C19.4448 21.0784 19.5104 21.1816 19.6653 21.2004C19.7309 21.2051 19.8154 21.2238 19.8576 21.2426C19.9796 21.2895 20.0923 21.2661 20.1063 21.1957ZM20.1063 20.947C20.1158 20.886 20.0734 20.8626 19.7309 20.7406C19.4729 20.6468 19.3603 20.6937 19.4448 20.8485C19.4729 20.9001 19.5198 20.9236 19.6278 20.9423C19.7075 20.9517 19.8154 20.9752 19.867 20.9939C20.0078 21.0409 20.0923 21.0221 20.1017 20.947H20.1063ZM20.2753 20.7171C20.3268 20.6655 20.369 20.6045 20.369 20.5764C20.369 20.506 20.1673 20.6374 20.1391 20.7312C20.111 20.8391 20.1626 20.8344 20.2799 20.7171H20.2753ZM20.1063 20.7031C20.1158 20.628 19.9938 20.5623 19.7498 20.5107C19.5668 20.4685 19.487 20.4919 19.5011 20.5764C19.5104 20.6233 19.5714 20.6561 19.7356 20.7077C20.0125 20.7922 20.0923 20.7922 20.1063 20.7031ZM20.3409 20.3559C20.6599 20.2151 20.6834 19.8632 20.3878 19.7694C20.2658 19.7319 20.1908 19.7553 20.1438 19.8351C20.1063 19.9008 20.1298 20.0134 20.1768 20.0134C20.1954 20.0134 20.2095 20.0368 20.2095 20.0603C20.2095 20.187 19.7309 20.2386 19.5339 20.14C19.4635 20.1072 19.4401 20.0134 19.4918 20.0134C19.5386 20.0134 19.5668 19.9195 19.5433 19.8585C19.5152 19.7647 19.4213 19.7366 19.2946 19.7741C18.999 19.8492 19.0084 20.1963 19.3088 20.3371C19.6409 20.459 20.0045 20.4656 20.3409 20.3559Z" fill="#FFB700"/>
<path d="M20.1503 20.0834C20.1691 20.0647 20.1597 20.0365 20.1314 20.0178C20.0658 19.9661 20.0704 19.8864 20.1409 19.7972C20.1972 19.7316 20.2019 19.6283 20.2207 18.6196C20.2534 16.879 20.3849 15.57 20.5538 15.251C20.6242 15.129 20.6148 15.129 20.4364 15.251C20.2026 15.4139 20.0138 15.6334 19.8876 15.889C19.5967 16.4286 19.4981 17.1558 19.4981 18.7135C19.4981 19.5955 19.5028 19.7128 19.5544 19.7926C19.6014 19.877 19.6014 19.9052 19.5732 19.9896C19.5498 20.0412 19.5404 20.0975 19.5498 20.1069C19.6154 20.1679 20.0846 20.1538 20.1503 20.0834ZM22.7824 18.4226C22.7964 18.4085 22.7729 18.3287 22.7354 18.2537C22.6791 18.1317 22.6557 18.1129 22.5759 18.1129C22.2008 18.0803 21.8349 17.9785 21.4968 17.8126C21.2574 17.7047 21.1684 17.6813 21.1449 17.7094C21.0699 17.7798 21.1919 17.944 21.3794 18.0332C21.6557 18.1327 21.9449 18.1912 22.2381 18.2067C22.3648 18.2067 22.3694 18.2067 22.2944 18.3147L22.2474 18.3897H22.3883L22.6228 18.4179C22.7636 18.4507 22.7636 18.4507 22.7824 18.4226Z" fill="#FFB700"/>
<path d="M24.2632 19.2067C24.2632 19.1598 24.1271 19.0425 23.9958 18.9627C23.8879 18.9017 23.8691 18.897 23.8691 18.9486C23.8691 19.0237 23.8034 19.2161 23.7753 19.2161C23.7612 19.2161 23.7377 19.1785 23.7283 19.1363C23.7143 19.0893 23.6627 18.9956 23.611 18.9346L23.5172 18.8173L23.4515 18.9252C23.3858 19.0283 23.2686 19.1268 23.2169 19.1268C23.2076 19.1268 23.2029 19.0706 23.2169 19.0096C23.2216 18.9346 23.2169 18.8783 23.1935 18.8688C23.1747 18.8548 23.1559 18.8595 23.1559 18.8783C23.1559 18.9158 22.9964 19.0941 22.9683 19.0941C22.9495 19.0941 22.9307 19.0472 22.9214 18.9815L22.8838 18.7563C22.8744 18.7 22.8979 18.7375 22.9307 18.8501L23.0058 19.0425L23.0809 18.9252C23.1149 18.8767 23.1403 18.8227 23.1559 18.7657C23.1559 18.7422 23.17 18.7328 23.1888 18.7422C23.2076 18.7516 23.231 18.8313 23.2404 18.9158L23.2639 19.0753L23.3483 18.9815C23.3925 18.9343 23.4333 18.8842 23.4703 18.8313C23.5031 18.775 23.5078 18.775 23.5782 18.8313C23.6157 18.8688 23.6767 18.9486 23.7143 19.0143C23.7518 19.08 23.7846 19.1268 23.7893 19.1222L23.8175 18.9721L23.8362 18.8313C23.8409 18.8078 24.0896 18.9721 24.1834 19.0518C24.2397 19.1035 24.296 19.141 24.3054 19.1316C24.3148 19.1222 24.3242 19.0472 24.3242 18.958C24.3242 18.8267 24.3101 18.7891 24.2304 18.7187C24.1365 18.6343 24.1365 18.6343 24.099 18.6953C24.0521 18.775 24.0005 18.775 24.0005 18.6953C24.0005 18.639 23.8222 18.4185 23.7799 18.4185C23.7659 18.4185 23.7283 18.4653 23.6955 18.5263C23.6627 18.5873 23.6251 18.6343 23.6157 18.6343C23.5688 18.6343 23.3202 18.3528 23.3202 18.3058C23.3202 18.2683 23.3389 18.2777 23.3812 18.3433C23.4231 18.405 23.4719 18.4617 23.5266 18.5123C23.6204 18.5968 23.658 18.578 23.6955 18.4138C23.7096 18.3668 23.7283 18.3293 23.7424 18.3293C23.7799 18.3293 23.9958 18.5592 24.0239 18.6343L24.0568 18.7093L24.0802 18.6248C24.1084 18.5217 24.1412 18.5217 24.1881 18.6155C24.2069 18.6531 24.3007 18.7375 24.3946 18.7938L24.5682 18.9063L24.601 18.7938C24.6198 18.7328 24.6479 18.7 24.6573 18.7187C24.6761 18.7422 24.6292 18.9298 24.5963 18.9673C24.5963 18.9721 24.5353 18.9393 24.4743 18.897L24.357 18.8126V18.9627C24.357 19.0425 24.3476 19.141 24.3383 19.1785C24.3148 19.2536 24.2585 19.2723 24.2585 19.2067H24.2632ZM23.3952 18.015C23.1888 17.8461 23.1606 17.8085 23.1606 17.7241L23.1653 17.6396L23.1794 17.7193C23.1888 17.7663 23.2451 17.8413 23.3108 17.8977L23.4328 17.9915L23.5031 17.9071C23.5454 17.8602 23.5782 17.8038 23.5782 17.7851C23.5782 17.7288 23.5876 17.7335 23.7283 17.8555C23.8503 17.9633 23.855 17.9633 23.8691 17.893C23.8832 17.8555 23.8785 17.7803 23.8691 17.7288C23.8222 17.588 23.8316 17.5693 23.8926 17.6537L24.0052 17.7851C24.0521 17.8367 24.0568 17.8367 24.0755 17.771C24.0896 17.7288 24.099 17.6583 24.099 17.6115V17.5223L24.2069 17.649C24.3148 17.771 24.3242 17.7757 24.3523 17.7147C24.3758 17.6818 24.3899 17.6021 24.3899 17.5411C24.3899 17.4567 24.3993 17.4378 24.418 17.4661C24.4556 17.5223 24.4321 17.6631 24.3664 17.7851L24.3195 17.8788L24.2585 17.7803C24.1787 17.6583 24.1506 17.6583 24.1037 17.7898C24.0568 17.9165 24.0239 17.9258 23.977 17.8273C23.9489 17.7663 23.9395 17.7757 23.9207 17.9071L23.8972 18.0478L23.7565 17.9398L23.6157 17.832L23.5454 17.9023C23.5125 17.9446 23.4844 17.9962 23.4844 18.015C23.4844 18.0618 23.4468 18.0618 23.3952 18.015ZM25.225 17.3768C25.1546 17.3112 25.103 17.2455 25.1124 17.2362C25.1265 17.2221 25.1359 17.2173 25.1406 17.2268C25.186 17.2752 25.2329 17.3221 25.2813 17.3675C25.4408 17.5363 25.408 17.5411 25.2297 17.3768H25.225ZM22.7853 17.1236C22.7196 17.0297 22.7243 16.9733 22.8088 16.8702C22.8651 16.7998 22.8932 16.7903 22.9964 16.8045C23.0668 16.8092 23.2122 16.8702 23.3202 16.9358C23.4761 17.0291 23.6546 17.0777 23.8362 17.0766L23.7565 16.9453C23.6533 16.7903 23.6533 16.7717 23.7753 16.8655C23.8972 16.964 24.0427 16.9922 24.3711 16.9828L24.5306 16.9781L24.4368 16.8843C24.3101 16.7576 24.3476 16.7435 24.4931 16.8702C24.6245 16.9875 24.6198 16.9968 24.3336 17.025C24.2142 17.0371 24.0937 17.0292 23.977 17.0016C23.8175 16.9547 23.8081 16.9593 23.8409 17.011C23.8597 17.0438 23.8879 17.0673 23.9019 17.0673C23.9207 17.0673 23.9348 17.086 23.9348 17.1048C23.9348 17.1658 23.5876 17.1095 23.4187 17.0297C23.0433 16.8373 22.9964 16.8186 22.9026 16.8467C22.8776 16.8563 22.8548 16.8708 22.8354 16.8893C22.8161 16.9078 22.8007 16.9301 22.79 16.9547C22.729 17.1095 22.9495 17.2315 23.0387 17.0953C23.0668 17.0532 23.0621 17.0297 23.0152 16.9781C22.9495 16.9123 22.9589 16.903 23.0433 16.9312C23.1043 16.9547 23.109 17.1001 23.0527 17.1563C22.9917 17.2173 22.8416 17.2033 22.7853 17.1236Z" fill="black"/>
<path d="M24.2816 16.743C24.2347 16.6961 24.2722 16.6867 24.4833 16.682C24.7461 16.6773 24.9056 16.6351 25.0933 16.5131C25.2434 16.4193 25.2856 16.438 25.1402 16.5366C25.0135 16.6304 24.8118 16.6961 24.61 16.7147L24.3707 16.7477C24.3332 16.7571 24.291 16.7524 24.2769 16.743H24.2816Z" fill="black"/>
</g>
</g>
<defs>
<clipPath id="clip0_16699_271196">
<rect width="40" height="40" fill="white"/>
</clipPath>
</defs>
</svg>
