<svg width="40" height="40" viewBox="0 0 40 40" fill="none" xmlns="http://www.w3.org/2000/svg">
<g clip-path="url(#clip0_16699_271228)">
<mask id="mask0_16699_271228" style="mask-type:luminance" maskUnits="userSpaceOnUse" x="0" y="0" width="40" height="40">
<path d="M40 0H0V40H40V0Z" fill="white"/>
</mask>
<g mask="url(#mask0_16699_271228)">
<mask id="mask1_16699_271228" style="mask-type:luminance" maskUnits="userSpaceOnUse" x="0" y="0" width="40" height="40">
<path d="M40 20C40 8.95433 31.0457 0 20 0C8.95433 0 0 8.95433 0 20C0 31.0457 8.95433 40 20 40C31.0457 40 40 31.0457 40 20Z" fill="white"/>
</mask>
<g mask="url(#mask1_16699_271228)">
<path d="M0 0H60.4624V40H0V0Z" fill="#BF0A30"/>
<path d="M0 5.45441H60.5435M60.5435 12.7271H0" stroke="white" stroke-width="3"/>
<path d="M0 0H18.1818V20H0V0Z" fill="#002868"/>
<path d="M0 19.9999H60.4972M60.4972 27.2726H0M0 34.5453H60.4972" stroke="white" stroke-width="3"/>
<path d="M11.1973 10.9044L10.2891 4.87402L8.60352 10.0616L11.1973 10.9044Z" fill="white"/>
<path d="M9.38086 10.9044L10.2891 4.87402L11.9746 10.0616L9.38086 10.9044Z" fill="white"/>
<path d="M10.022 11.3684L15.4766 8.64108H10.022V11.3684Z" fill="white"/>
<path d="M9.46057 9.64083L15.4765 8.64108L11.0636 11.8472L9.46057 9.64083Z" fill="white"/>
<path d="M9.91133 9.32767L7.10156 14.7402L11.5144 11.5341L9.91133 9.32767Z" fill="white"/>
<path d="M11.3809 10.3954L7.10156 14.7402L8.78708 9.55258L11.3809 10.3954Z" fill="white"/>
<path d="M9.23224 10.3963L13.5116 14.7411L11.8261 9.55359L9.23224 10.3963Z" fill="white"/>
<path d="M10.7019 9.32867L13.5116 14.7411L9.09882 11.535L10.7019 9.32867Z" fill="white"/>
<path d="M11.1309 9.64316L5.11505 8.64349L9.52789 11.8496L11.1309 9.64316Z" fill="white"/>
<path d="M10.5696 11.3708L5.11505 8.64349H10.5696V11.3708Z" fill="white"/>
</g>
</g>
</g>
<defs>
<clipPath id="clip0_16699_271228">
<rect width="40" height="40" fill="white"/>
</clipPath>
</defs>
</svg>
