<svg width="40" height="40" viewBox="0 0 40 40" fill="none" xmlns="http://www.w3.org/2000/svg">
<g clip-path="url(#clip0_16699_271276)">
<mask id="mask0_16699_271276" style="mask-type:luminance" maskUnits="userSpaceOnUse" x="0" y="0" width="40" height="40">
<path d="M40 0H0V40H40V0Z" fill="white"/>
</mask>
<g mask="url(#mask0_16699_271276)">
<mask id="mask1_16699_271276" style="mask-type:luminance" maskUnits="userSpaceOnUse" x="0" y="0" width="40" height="40">
<path d="M40 20C40 8.95433 31.0457 0 20 0C8.95433 0 0 8.95433 0 20C0 31.0457 8.95433 40 20 40C31.0457 40 40 31.0457 40 20Z" fill="white"/>
</mask>
<g mask="url(#mask1_16699_271276)">
<path d="M50.0181 20.0002H-10V40.0002H50.0181V20.0002Z" fill="#00A1DE"/>
<path d="M50.0341 0H-10V20H50.0341V0Z" fill="#ED2939"/>
<path d="M50.0587 13.3333H-10V26.6666H50.0587V13.3333Z" fill="white"/>
</g>
</g>
</g>
<defs>
<clipPath id="clip0_16699_271276">
<rect width="40" height="40" fill="white"/>
</clipPath>
</defs>
</svg>
