<svg width="40" height="40" viewBox="0 0 40 40" fill="none" xmlns="http://www.w3.org/2000/svg">
<g clip-path="url(#clip0_16699_271336)">
<mask id="mask0_16699_271336" style="mask-type:luminance" maskUnits="userSpaceOnUse" x="0" y="0" width="40" height="40">
<path d="M40 0H0V40H40V0Z" fill="white"/>
</mask>
<g mask="url(#mask0_16699_271336)">
<mask id="mask1_16699_271336" style="mask-type:luminance" maskUnits="userSpaceOnUse" x="0" y="0" width="40" height="40">
<path d="M40 20C40 8.95433 31.0457 0 20 0C8.95433 0 0 8.95433 0 20C0 31.0457 8.95433 40 20 40C31.0457 40 40 31.0457 40 20Z" fill="white"/>
</mask>
<g mask="url(#mask1_16699_271336)">
<path d="M40 -4H0V45H40V-4Z" fill="#CC092F"/>
<path d="M27 -4H0V45H27V-4Z" fill="#FFD200"/>
<path d="M13 -1H0V42H13V-1Z" fill="#0046AE"/>
<path d="M18.4917 12.7133C18.4112 12.7097 18.3316 12.7315 18.2641 12.7756C18.3439 12.7991 18.3984 12.8728 18.3977 12.9561V13.1761H18.1777C18.0949 13.1769 18.0214 13.1232 17.9972 13.0441C17.9142 13.1845 17.9142 13.3589 17.9972 13.4992C18.0207 13.4194 18.0944 13.3649 18.1777 13.3657H18.3977V14.4232C18.3983 14.5028 18.3484 14.5741 18.2733 14.6006C18.3782 14.6149 18.4684 14.7558 18.4933 14.8328C18.5181 14.7559 18.6084 14.6149 18.7133 14.6006C18.6374 14.5748 18.5867 14.5033 18.5873 14.4231V13.3656H18.8073C18.8901 13.3648 18.9636 13.4185 18.9879 13.4977C19.0708 13.3573 19.0708 13.1829 18.9879 13.0425C18.9643 13.1224 18.8906 13.1769 18.8073 13.176H18.5873V12.956C18.5864 12.8732 18.6402 12.7997 18.7193 12.7755C18.6519 12.7314 18.5722 12.7097 18.4917 12.7133Z" fill="black"/>
<path d="M18.4931 12.7592C18.4488 12.7593 18.4048 12.7665 18.3627 12.7804C18.4143 12.8243 18.4442 12.8886 18.4446 12.9564V13.1764C18.4443 13.1795 18.4438 13.1825 18.4431 13.1855V13.2204H18.4082C18.4052 13.2212 18.4021 13.2217 18.3991 13.2219H18.179C18.112 13.2215 18.0485 13.1922 18.0046 13.1415C17.9898 13.1835 17.9822 13.2276 17.9818 13.272C17.982 13.3163 17.9892 13.3604 18.0031 13.4025C18.047 13.3508 18.1112 13.3209 18.179 13.3206H18.4445C18.4442 13.3252 18.443 13.3296 18.443 13.3342V13.357C18.4437 13.3599 18.4442 13.363 18.4445 13.3661V14.4235C18.4423 14.4879 18.4125 14.5481 18.3626 14.5889C18.3953 14.6093 18.4246 14.6349 18.4491 14.6648C18.4668 14.6894 18.4822 14.7158 18.4946 14.7436C18.507 14.7159 18.5223 14.6894 18.5401 14.6648C18.5643 14.6356 18.593 14.6105 18.6251 14.5904C18.5748 14.5492 18.545 14.4884 18.5431 14.4235V13.322H18.5796C18.5825 13.3212 18.5856 13.3207 18.5887 13.3205H18.8087C18.8757 13.321 18.9392 13.3503 18.9831 13.4009C18.9977 13.359 19.0055 13.3149 19.0058 13.2704C19.0057 13.2261 18.9985 13.1821 18.9846 13.14C18.9407 13.1916 18.8763 13.2215 18.8087 13.2219H18.5887C18.5856 13.2217 18.5825 13.2212 18.5796 13.2203H18.5447V13.1854C18.5437 13.1825 18.5432 13.1794 18.5431 13.1763V12.9564C18.5436 12.8893 18.5728 12.8258 18.6235 12.7819C18.5816 12.7673 18.5375 12.7597 18.4931 12.7592Z" fill="#FFD200"/>
<path d="M21.2463 16.5882C21.1178 16.501 21.008 16.389 20.9232 16.2589C20.7343 15.9559 20.6547 15.584 20.6547 15.206C20.6547 15.0462 20.8337 14.8664 20.8337 14.7372C20.8348 14.6327 20.8288 14.5283 20.8156 14.4247C20.8791 14.4333 20.99 14.546 20.99 14.546C20.99 14.546 20.9862 14.2219 20.8837 14.1652C20.8837 14.1652 20.9252 14.1226 21.075 14.1182C21.0328 14.0116 20.8247 13.8815 20.8247 13.8815C20.8381 13.8607 20.8568 13.8439 20.8792 13.833C20.9367 13.8048 20.9981 13.7848 21.0612 13.7738C20.992 13.7588 20.9237 13.7401 20.8565 13.7177C20.6627 13.6529 20.4731 13.5759 20.2891 13.4871C20.0537 13.369 19.7937 13.3082 19.5305 13.3096C19.4246 13.3096 19.2685 13.3125 19.177 13.3733C19.0932 13.4289 19.1001 13.5012 19.0707 13.5266C19.0017 13.5863 18.8835 13.5842 18.8265 13.5842C18.4578 13.5842 18.4442 13.9787 18.4442 13.9787C18.4442 13.9787 18.5385 13.836 18.7051 13.836C18.9822 13.836 19.1921 13.987 19.1921 14.0439C19.1921 14.0669 19.1617 14.0712 19.1617 14.0712C18.9807 14.0712 18.7076 13.967 18.5625 13.9619V14.0332C18.8863 14.146 19.2148 14.3055 19.2148 15.0088C19.2148 15.4516 19.1618 15.9035 18.9402 16.2589C18.8548 16.389 18.7445 16.501 18.6156 16.5882L19.931 16.8253L21.2463 16.5882Z" fill="black"/>
<path d="M19.9308 16.2917L18.6154 16.5881C18.5556 16.57 18.2742 16.4826 18.0768 16.3727C17.7293 16.1791 17.5491 15.9865 17.1362 15.9676V15.6535C17.1362 15.4857 17.1969 15.3345 17.1969 15.1741C17.0228 15.1274 16.5396 14.5366 16.0939 14.2744C15.4381 14.6992 14.9302 15.3965 14.9302 15.7172C14.9302 15.7172 14.9501 22.6079 14.9302 25.0085C14.9302 25.1468 14.8468 25.3423 14.8468 25.3423C15.0863 25.241 15.5251 24.6405 15.6176 24.4122V24.5215C15.9791 24.3566 16.2439 23.9233 16.3626 23.6992C16.3646 23.7316 16.3701 23.8129 16.3701 23.8129C16.6931 23.5297 17.1044 21.8558 17.1044 21.8558L17.7897 22.5293C17.7897 22.5293 17.5418 23.0324 17.4453 23.1225C17.4911 23.1278 17.5372 23.1303 17.5833 23.1301C17.5382 23.1949 17.1937 23.6909 17.0857 23.878C16.9846 24.0531 16.9133 23.9751 16.7581 23.9751C16.6291 23.9751 16.3371 24.1804 16.2892 24.2634C16.2373 24.3483 16.2071 24.4447 16.2012 24.5441C16.2012 24.6401 16.3029 24.7717 16.3029 24.7717C16.3066 24.7484 16.3172 24.7267 16.3332 24.7095C16.3332 24.7095 16.6003 25.0422 16.6397 25.0857C16.6703 25.1196 16.8071 25.1416 16.8551 25.0979C16.9756 24.9883 17.0923 24.9117 17.1996 24.7535C17.2547 24.6719 17.2589 24.5785 17.3224 24.491C17.5346 24.1982 17.9571 23.6375 18.0537 23.5094C18.0601 23.545 18.0657 23.5747 18.0718 23.611C18.1813 23.39 18.7076 22.9677 18.7076 22.9677L19.2581 23.2211C19.2581 23.2211 18.2301 25.5842 17.3177 25.9475C17.3177 25.9475 17.7146 26.1162 18.2021 26.3693C18.2733 26.4062 18.3466 26.4459 18.4206 26.4862C18.4821 26.4122 18.5466 26.3301 18.6103 26.2449C18.9018 25.8549 19.1868 25.4029 19.1868 25.4029C19.2067 25.5203 19.0528 25.8828 18.7924 26.3299C18.7412 26.4178 18.6878 26.5096 18.6285 26.6029C18.6946 26.6407 18.7601 26.6788 18.8257 26.7183C19.3087 27.0089 19.7622 27.3429 19.9302 27.6498L20.0487 27.3532L19.9302 27.0566V16.6852L19.9896 16.537L19.9308 16.2917Z" fill="black"/>
<path d="M19.929 27.0566C19.7586 26.8718 19.4024 26.646 19.0021 26.4376C19.4861 25.5688 19.726 24.1955 19.6134 23.9221C19.6134 23.9221 19.4147 24.6344 19.1719 25.0403C18.9471 25.4161 18.6703 25.839 18.4028 26.1524C18.2017 26.0655 17.996 25.9895 17.7868 25.9248C18.5887 25.3071 19.4086 23.2651 19.4086 23.2651L18.5607 22.8721C18.5607 22.8721 18.2435 23.242 18.1404 23.3106C18.1404 23.3106 18.0964 23.1268 18.0707 23.0619C18.0707 23.0619 17.9491 23.1538 17.8826 23.156C17.8826 23.156 17.8627 23.0311 17.8477 22.9496C17.7639 23.0054 17.6247 22.9936 17.6247 22.9936C17.747 22.9356 17.8917 22.5809 17.8917 22.5809L17.082 21.5039C17.082 21.5039 16.7975 22.8706 16.4736 23.1515V17.2664L16.73 17.5045L17.1184 17.1419V16.8658L16.774 17.1874V16.3545C16.8259 16.276 16.8603 16.2174 16.8862 16.1709C16.942 16.2681 17.1221 16.566 17.3338 16.749C17.3686 16.6074 17.5978 16.4728 17.5978 16.4728C17.5978 16.4728 17.6799 16.6953 17.8056 16.7505C17.8498 16.6726 18.1136 16.5001 18.1136 16.5001C18.1136 16.5001 17.8879 16.5345 17.7965 16.62C17.718 16.6025 17.6979 16.2923 17.6979 16.2923C17.6979 16.2923 17.3658 16.4541 17.308 16.57C17.2447 16.5528 17.1461 16.3036 17.1077 16.2013C17.1898 16.1921 17.2724 16.1876 17.355 16.1876C17.4497 16.1876 17.5709 16.2325 17.6979 16.2923C17.8374 16.358 17.9833 16.4411 18.1136 16.5001C18.2805 16.5758 18.533 16.5911 18.6067 16.5943C18.5183 16.6556 18.4255 16.7104 18.329 16.7581C18.329 16.7581 18.7265 16.7544 19.0057 16.6155C19.1072 16.5541 19.2045 16.4863 19.297 16.4121C19.2545 16.5361 19.1897 16.6513 19.1058 16.752C19.5158 16.7173 19.72 16.4831 19.7779 16.4046C19.8148 16.5049 19.8659 16.5994 19.9296 16.6851H20.0778V26.7615L19.929 27.0566Z" fill="#B07E5B"/>
<path d="M16.9079 15.2042L16.9155 15.3923V15.9462C16.7667 15.8951 16.5797 15.6507 16.4892 15.5215V15.4456C16.4912 15.3871 16.5176 15.332 16.562 15.2938L16.4725 15.262C16.4285 15.3085 16.4031 15.3695 16.4012 15.4335V15.4775L16.1342 15.7642L15.8717 15.3667V15.2696C15.8717 15.2042 15.9221 15.1312 15.9642 15.0815L15.8762 15.0496C15.8317 15.1072 15.7852 15.1847 15.7852 15.2575V15.3362C15.7235 15.4002 15.4832 15.6473 15.4832 15.6473C15.4832 15.6473 15.3627 15.3885 15.3301 15.3182C15.514 15.0635 15.8122 14.7782 16.0932 14.5736C16.0932 14.5736 16.7026 15.1331 16.9079 15.2042Z" fill="#B07E5B"/>
<path d="M15.3627 15.7412V16.1981L15.1504 16.3952V15.7171C15.1564 15.6361 15.1814 15.5576 15.2231 15.4879L15.3627 15.7412Z" fill="#B07E5B"/>
<path d="M16.025 15.9173V16.1995L15.7808 16.4286V15.5456L16.025 15.9173Z" fill="#B07E5B"/>
<path d="M15.6942 16.4273L15.4498 16.1998V15.869L15.6942 15.6127V16.4273Z" fill="#B07E5B"/>
<path d="M16.8092 16.0842C16.7524 16.1643 16.6039 16.3604 16.4435 16.4468V15.6716C16.4803 15.7327 16.649 16.0057 16.8092 16.0842Z" fill="#B07E5B"/>
<path d="M16.357 15.7109V16.427L16.1128 16.1994V15.9462L16.357 15.7109Z" fill="#B07E5B"/>
<path d="M15.3627 16.474V17.1886L15.1504 16.9897V16.6727L15.3627 16.474Z" fill="#B07E5B"/>
<path d="M15.6929 16.7032V16.9596L15.4486 17.1871V16.4756L15.6929 16.7032Z" fill="#B07E5B"/>
<path d="M16.0238 16.4756V17.1872L15.7795 16.958V16.7047L16.0238 16.4756Z" fill="#B07E5B"/>
<path d="M16.3558 16.7047V16.9581L16.1115 17.1872V16.4756L16.3558 16.7047Z" fill="#B07E5B"/>
<path d="M16.6866 17.1887L16.4424 16.9595V16.7214C16.5266 16.67 16.6114 16.5755 16.6866 16.4756V17.1887Z" fill="#B07E5B"/>
<path d="M16.0686 17.5043L16.3265 17.2646V23.1512C16.3265 23.1512 16.3445 23.4433 16.3569 23.6336C16.2423 23.7496 15.8108 24.1859 15.8108 24.1859V17.263L16.0686 17.5043Z" fill="#B07E5B"/>
<path d="M15.6631 23.9659C15.6631 24.1551 15.3176 24.5963 15.1504 24.6972V17.2662L15.4051 17.5043L15.6631 17.2646V23.9659Z" fill="#B07E5B"/>
<path d="M17.8067 23.3273L17.9948 23.1983C17.9948 23.1983 18.0073 23.2606 18.0236 23.3455C17.9431 23.4557 17.4803 24.0872 17.2513 24.3954C17.1945 24.472 17.1467 24.667 17.1467 24.667C17.1467 24.667 17.0633 24.6275 17.0633 24.5562C17.0633 24.4862 17.0723 24.403 17.0723 24.403C17.0276 24.4486 16.9663 24.4743 16.9023 24.4743C16.9023 24.3883 17.0688 24.2949 17.0753 24.1724C16.9485 24.2665 16.8383 24.2182 16.6916 24.2635C16.5317 24.3127 16.4872 24.3798 16.4382 24.3773C16.4093 24.3757 16.3832 24.3259 16.3942 24.2953C16.4133 24.2424 16.611 24.0958 16.7492 24.0693C16.7823 24.0629 17.0427 24.126 17.0951 24.045C17.3112 23.7115 17.6621 23.1702 17.6958 23.1181C17.7166 23.1142 17.7366 23.107 17.755 23.0967C17.755 23.0967 17.753 23.2672 17.8067 23.3273Z" fill="#CC092F"/>
<path d="M16.5966 24.3666C16.607 24.378 16.6062 24.3956 16.595 24.4061L16.5101 24.4804C16.4978 24.4899 16.4802 24.4879 16.4707 24.4758C16.4602 24.4645 16.4608 24.4469 16.4722 24.4364L16.5571 24.362C16.5626 24.3573 16.5697 24.3551 16.5768 24.356C16.5845 24.357 16.5915 24.3608 16.5966 24.3666Z" fill="#CC092F"/>
<path d="M16.7254 24.4562C16.7506 24.4827 16.7494 24.5246 16.7229 24.5497L16.5161 24.7307C16.4847 24.7541 16.4404 24.7476 16.4172 24.7162C16.3966 24.6882 16.3991 24.6494 16.4236 24.6247L16.6298 24.4456C16.6401 24.4368 16.6528 24.4316 16.6662 24.4304C16.6889 24.4292 16.7108 24.4387 16.7254 24.4562Z" fill="#CC092F"/>
<path d="M16.8437 24.5956C16.8688 24.6221 16.8678 24.6639 16.8413 24.6891L16.6328 24.8702C16.604 24.8932 16.5619 24.8887 16.5389 24.8599C16.5135 24.8326 16.5147 24.7897 16.5418 24.7641L16.748 24.585C16.7578 24.5764 16.77 24.5711 16.7829 24.5697C16.8062 24.5685 16.8285 24.5781 16.8437 24.5956Z" fill="#CC092F"/>
<path d="M16.9149 24.7067C16.9374 24.7048 16.9594 24.7138 16.9741 24.7309C16.9995 24.7583 16.9981 24.8008 16.9711 24.8264L16.7647 25.0055C16.7333 25.0283 16.6894 25.0213 16.6667 24.9899C16.647 24.9628 16.6493 24.9253 16.6722 24.9008L16.8801 24.7203C16.8899 24.712 16.9021 24.7073 16.9149 24.7067Z" fill="#CC092F"/>
<path d="M19.9281 16.2918L21.2435 16.5882C21.3033 16.5701 21.5847 16.4827 21.7821 16.3727C22.1296 16.1792 22.3098 15.9865 22.7227 15.9676V15.6536C22.7227 15.4858 22.662 15.3346 22.662 15.1741C22.8361 15.1275 23.3193 14.5367 23.765 14.2744C24.4208 14.6992 24.9287 15.3966 24.9287 15.7173C24.9287 15.7173 24.9089 22.608 24.9287 25.0085C24.9287 25.1469 25.0121 25.3423 25.0121 25.3423C24.7726 25.241 24.3338 24.6405 24.2414 24.4123V24.5216C23.8798 24.3567 23.615 23.9234 23.4964 23.6992C23.4943 23.7316 23.4888 23.813 23.4888 23.813C23.1658 23.5298 22.7545 21.8559 22.7545 21.8559L22.0692 22.5294C22.0692 22.5294 22.3171 23.0325 22.4136 23.1226C22.3678 23.1278 22.3217 23.1304 22.2756 23.1301C22.3207 23.195 22.6652 23.691 22.7732 23.8781C22.8743 24.0531 22.9456 23.9752 23.1009 23.9752C23.2298 23.9752 23.5218 24.1804 23.5697 24.2635C23.6216 24.3484 23.6518 24.4448 23.6577 24.5442C23.6577 24.6402 23.556 24.7717 23.556 24.7717C23.5523 24.7485 23.5417 24.7268 23.5257 24.7095C23.5257 24.7095 23.2586 25.0423 23.2192 25.0858C23.1886 25.1196 23.0519 25.1417 23.0038 25.098C22.8833 24.9884 22.7666 24.9118 22.6594 24.7535C22.6042 24.672 22.6 24.5786 22.5365 24.491C22.3243 24.1982 21.9018 23.6375 21.8052 23.5095C21.7988 23.5451 21.7932 23.5748 21.7871 23.6111C21.6776 23.3901 21.1514 22.9678 21.1514 22.9678L20.6008 23.2212C20.6008 23.2212 21.6288 25.5843 22.5412 25.9476C22.5412 25.9476 22.1443 26.1163 21.6568 26.3694C21.5856 26.4063 21.5124 26.446 21.4383 26.4862C21.3769 26.4123 21.3123 26.3302 21.2486 26.245C20.9571 25.8549 20.6721 25.4029 20.6721 25.4029C20.6522 25.5203 20.8061 25.8829 21.0665 26.33C21.1177 26.4178 21.1711 26.5097 21.2304 26.603C21.1643 26.6408 21.0988 26.6789 21.0332 26.7184C20.5502 27.009 20.0967 27.343 19.9287 27.6499L19.8102 27.3533L19.9287 27.0566V16.6853L19.8694 16.5371L19.9281 16.2918Z" fill="black"/>
<path d="M19.9289 27.0563C20.0993 26.8715 20.4555 26.6457 20.8559 26.4373C20.3718 25.5685 20.1319 24.1952 20.2445 23.9218C20.2445 23.9218 20.4433 24.6341 20.686 25.04C20.9108 25.4158 21.1876 25.8387 21.4553 26.1521C21.6563 26.0652 21.8619 25.9892 22.0711 25.9245C21.2693 25.3068 20.4493 23.2648 20.4493 23.2648L21.2973 22.8718C21.2973 22.8718 21.6144 23.2417 21.7175 23.3103C21.7175 23.3103 21.7615 23.1265 21.7873 23.0616C21.7873 23.0616 21.9088 23.1535 21.9753 23.1557C21.9753 23.1557 21.9953 23.0308 22.0103 22.9493C22.094 23.0051 22.2333 22.9933 22.2333 22.9933C22.1109 22.9353 21.9663 22.5806 21.9663 22.5806L22.776 21.5036C22.776 21.5036 23.0604 22.8703 23.3843 23.1512V17.2661L23.1279 17.5042L22.7395 17.1416V16.8655L23.0839 17.1871V16.3542C23.032 16.2757 22.9976 16.2171 22.9718 16.1706C22.9159 16.2678 22.7358 16.5657 22.5241 16.7487C22.4893 16.6071 22.2601 16.4725 22.2601 16.4725C22.2601 16.4725 22.178 16.6951 22.0523 16.7502C22.0081 16.6723 21.7443 16.4998 21.7443 16.4998C21.7443 16.4998 21.97 16.5342 22.0614 16.6197C22.1399 16.6022 22.16 16.292 22.16 16.292C22.16 16.292 22.4923 16.4538 22.5499 16.5697C22.6133 16.5525 22.7118 16.3033 22.7503 16.201C22.6681 16.1918 22.5855 16.1873 22.5029 16.1873C22.4083 16.1873 22.2869 16.2322 22.16 16.292C22.0205 16.3577 21.8746 16.4408 21.7443 16.4998C21.5774 16.5755 21.3249 16.5908 21.2513 16.594C21.3396 16.6553 21.4324 16.7101 21.5289 16.7578C21.5289 16.7578 21.1314 16.7541 20.8523 16.6152C20.7508 16.5538 20.6534 16.486 20.5609 16.4118C20.6034 16.5358 20.6683 16.651 20.7521 16.7517C20.3421 16.717 20.1379 16.4828 20.08 16.4043C20.0431 16.5046 19.992 16.5991 19.9283 16.6848H19.7801V26.7612L19.9289 27.0563Z" fill="#B07E5B"/>
<path d="M22.9499 15.2042L22.9424 15.3923V15.9462C23.091 15.8951 23.278 15.6507 23.3686 15.5213V15.4456C23.3666 15.387 23.3401 15.332 23.2957 15.2938L23.3852 15.262C23.4292 15.3085 23.4546 15.3695 23.4566 15.4335V15.4775L23.7236 15.7642L23.9861 15.3667V15.2696C23.9861 15.2042 23.9357 15.1312 23.8935 15.0815L23.9815 15.0496C24.026 15.1072 24.0726 15.1847 24.0726 15.2575V15.3362C24.1342 15.4002 24.3745 15.6473 24.3745 15.6473C24.3745 15.6473 24.495 15.3885 24.5276 15.3182C24.3437 15.0633 24.0456 14.7782 23.7645 14.5736C23.7645 14.5736 23.1551 15.1331 22.9499 15.2042Z" fill="#B07E5B"/>
<path d="M24.4949 15.741V16.1978L24.7072 16.3949V15.7168C24.7011 15.6358 24.6762 15.5573 24.6345 15.4877L24.4949 15.741Z" fill="#B07E5B"/>
<path d="M23.8331 15.9168V16.1991L24.0773 16.4282V15.5453L23.8331 15.9168Z" fill="#B07E5B"/>
<path d="M24.1641 16.427L24.4083 16.1995V15.8688L24.1641 15.6123V16.427Z" fill="#B07E5B"/>
<path d="M23.0493 16.0842C23.106 16.1644 23.2546 16.3604 23.4149 16.4468V15.6716C23.3782 15.7327 23.2094 16.0057 23.0493 16.0842Z" fill="#B07E5B"/>
<path d="M23.5012 15.7109V16.427L23.7454 16.1994V15.946L23.5012 15.7109Z" fill="#B07E5B"/>
<path d="M24.4949 16.474V17.1886L24.7072 16.9897V16.6727L24.4949 16.474Z" fill="#B07E5B"/>
<path d="M24.1641 16.7032V16.9596L24.4083 17.1871V16.4756L24.1641 16.7032Z" fill="#B07E5B"/>
<path d="M23.8331 16.4756V17.1872L24.0773 16.958V16.7047L23.8331 16.4756Z" fill="#B07E5B"/>
<path d="M23.5012 16.7047V16.958L23.7454 17.1871V16.4756L23.5012 16.7047Z" fill="#B07E5B"/>
<path d="M23.1703 17.1886L23.4146 16.9595V16.7214C23.3304 16.67 23.2456 16.5754 23.1703 16.4756V17.1886Z" fill="#B07E5B"/>
<path d="M23.7894 17.5043L23.5314 17.2645V23.1512C23.5314 23.1512 23.5134 23.4433 23.5012 23.6336C23.6158 23.7496 24.0473 24.1859 24.0473 24.1859V17.263L23.7894 17.5043Z" fill="#B07E5B"/>
<path d="M24.1953 23.9659C24.1953 24.1551 24.5408 24.5963 24.708 24.6972V17.2662L24.4532 17.5043L24.1953 17.2646V23.9659Z" fill="#B07E5B"/>
<path d="M22.0538 23.3268L21.8657 23.1979C21.8657 23.1979 21.8531 23.2601 21.8368 23.3451C21.9174 23.4552 22.3801 24.0867 22.6091 24.3949C22.666 24.4716 22.7138 24.6666 22.7138 24.6666C22.7138 24.6666 22.7972 24.6271 22.7972 24.5558C22.7972 24.4858 22.7881 24.4026 22.7881 24.4026C22.8329 24.4481 22.8941 24.4738 22.958 24.4738C22.958 24.3878 22.7917 24.2946 22.7851 24.1719C22.912 24.2661 23.0221 24.2177 23.1689 24.2631C23.3287 24.3122 23.3732 24.3794 23.4223 24.3768C23.4511 24.3752 23.4773 24.3254 23.4662 24.2948C23.4472 24.2419 23.2495 24.0953 23.1113 24.0688C23.0782 24.0626 22.8178 24.1256 22.7653 24.0446C22.5492 23.7111 22.1984 23.1697 22.1646 23.1176C22.1438 23.1137 22.1239 23.1066 22.1054 23.0963C22.1054 23.0963 22.1074 23.2667 22.0538 23.3268Z" fill="#CC092F"/>
<path d="M23.2637 24.3659C23.2533 24.3773 23.254 24.3949 23.2653 24.4054L23.3502 24.4797C23.3624 24.4892 23.3799 24.4873 23.3896 24.4752C23.4 24.4638 23.3994 24.4463 23.3881 24.4358L23.3031 24.3613C23.2977 24.3567 23.2905 24.3544 23.2834 24.3553C23.2758 24.3563 23.2687 24.3602 23.2637 24.3659Z" fill="#CC092F"/>
<path d="M23.1338 24.4555C23.1088 24.4821 23.1098 24.5239 23.1363 24.5491L23.3433 24.7302C23.3746 24.7534 23.4188 24.7469 23.4421 24.7156C23.4628 24.6877 23.4602 24.6488 23.4358 24.624L23.2294 24.445C23.2193 24.4363 23.2064 24.431 23.1931 24.4298C23.1703 24.4285 23.1484 24.4381 23.1338 24.4555Z" fill="#CC092F"/>
<path d="M23.0167 24.5952C22.9916 24.6217 22.9927 24.6636 23.0191 24.6887L23.2276 24.8697C23.2563 24.8928 23.2983 24.8882 23.3215 24.8594C23.3468 24.8322 23.3457 24.7892 23.3187 24.7637L23.1123 24.5847C23.1027 24.5759 23.0903 24.5707 23.0775 24.5694C23.0543 24.5682 23.0317 24.5777 23.0167 24.5952Z" fill="#CC092F"/>
<path d="M22.9442 24.706C22.9217 24.7041 22.8997 24.7132 22.8851 24.7303C22.8597 24.7576 22.8611 24.8002 22.8881 24.8259L23.0944 25.0049C23.1258 25.0277 23.1697 25.0207 23.1924 24.9893C23.2122 24.9621 23.2098 24.9248 23.1869 24.9002L22.9792 24.7197C22.9693 24.7114 22.9571 24.7066 22.9442 24.706Z" fill="#CC092F"/>
<path d="M19.6257 13.4066C19.9653 13.4066 20.2042 13.5614 20.5255 13.7039C20.6097 13.7413 20.6871 13.7715 20.7561 13.7949C20.7186 13.8236 20.6888 13.8612 20.6696 13.9042C20.6696 13.9042 20.8136 13.9309 20.8788 14.0514C20.8788 14.0514 20.742 14.0669 20.7197 14.147C20.7963 14.1527 20.8725 14.2494 20.8728 14.3427L20.6787 14.282C20.7086 14.4319 20.7242 14.5843 20.7257 14.7371C20.7257 14.8582 20.5512 15.0007 20.5512 15.2059C20.5512 15.8501 20.7135 16.0976 20.829 16.2968C20.8741 16.3747 20.9107 16.4643 20.9867 16.5319C20.6542 16.3549 20.4072 16.1336 20.4072 15.9281V15.1498H20.3207V15.9281C20.3207 16.0772 20.3571 16.1466 20.3571 16.1466C20.4092 16.3115 20.5147 16.566 20.5801 16.6685C20.2742 16.5032 20.1188 16.2962 20.1188 16.2194V15.1498H20.0323V16.2346L20.0491 16.3089C20.012 16.3646 19.9637 16.4306 19.9307 16.453C19.8977 16.4306 19.851 16.3645 19.8138 16.3089L19.8306 16.2346V15.1498H19.7441V16.2194C19.7441 16.2961 19.5887 16.5032 19.2828 16.6685C19.3482 16.566 19.4537 16.3115 19.5058 16.1466C19.5058 16.1466 19.5422 16.0772 19.5422 15.9281V15.1498H19.4557V15.9281C19.4557 16.1334 19.2096 16.355 18.8777 16.5319C18.9528 16.4643 18.9891 16.3742 19.034 16.2968C19.1602 16.079 19.3162 15.8023 19.3162 15.0148C19.3162 14.7192 19.2725 14.5182 19.1962 14.3776C19.1732 14.3311 19.142 14.2076 19.3192 14.2076C19.411 14.2076 19.6212 14.37 19.6212 14.37C19.6127 14.2891 19.571 14.2154 19.5057 14.1667C19.479 14.1455 19.462 14.1142 19.4587 14.0802C19.471 14.0345 19.5003 13.9954 19.5407 13.9709C19.5653 13.9597 19.1797 13.8925 19.1797 13.7176C19.1797 13.6811 19.2026 13.6569 19.2827 13.6569C19.3877 13.6569 19.5587 13.7828 19.7107 13.7828C19.8228 13.7828 19.8672 13.7555 19.9822 13.7555C20.1227 13.7555 20.4158 14.0216 20.5162 14.0118C20.4041 13.9415 20.223 13.675 19.9487 13.675C19.8537 13.675 19.7676 13.6963 19.6787 13.6963C19.5648 13.6963 19.4527 13.5916 19.3297 13.5916C19.2473 13.5916 19.1552 13.5962 19.1416 13.5749C19.1177 13.5377 19.1392 13.5161 19.1613 13.4854C19.2031 13.4274 19.3203 13.4105 19.436 13.4065C19.4707 13.4053 19.5052 13.4047 19.5377 13.405C19.5701 13.4053 19.6 13.4066 19.6257 13.4066Z" fill="#B07E5B"/>
<path d="M18.5235 13.823C18.5775 13.7358 18.6739 13.6841 18.7764 13.6872C18.8522 13.6872 19.1022 13.682 19.1022 13.682C19.1355 13.7686 19.2873 13.9132 19.2873 14.0636C19.2873 14.0636 19.1332 13.7857 18.7028 13.7857C18.641 13.7848 18.5798 13.7975 18.5235 13.823Z" fill="#CC092F"/>
<path d="M19.2227 14.117C19.2227 14.117 19.131 14.2136 19.1112 14.2651C19.0203 14.2308 18.8622 14.0677 18.8622 14.0677C18.8622 14.0677 18.9963 14.146 19.2227 14.117Z" fill="#CC092F"/>
<path d="M19.0773 13.8608C19.0773 13.8608 18.9715 13.8269 18.9715 13.7914C18.9715 13.7462 19.0229 13.7462 19.0536 13.7814C19.0682 13.8054 19.0764 13.8328 19.0773 13.8608Z" fill="black"/>
<path d="M19.5702 14.0849C19.6909 14.0849 19.7887 14.0107 19.7887 13.9191C19.7887 13.8274 19.6909 13.7532 19.5702 13.7532C19.4495 13.7532 19.3517 13.8274 19.3517 13.9191C19.3517 14.0107 19.4495 14.0849 19.5702 14.0849Z" fill="black"/>
<path d="M19.5699 14.0707C19.6537 14.0707 19.7217 14.0028 19.7217 13.9191C19.7217 13.8352 19.6537 13.7672 19.5699 13.7672C19.4862 13.7672 19.4182 13.8352 19.4182 13.9191C19.4182 14.0028 19.4862 14.0707 19.5699 14.0707Z" fill="#FFD200"/>
<path d="M19.5712 13.9884C19.6095 13.9884 19.6408 13.9572 19.6408 13.9189C19.6408 13.8805 19.6095 13.8492 19.5712 13.8492C19.5328 13.8492 19.5017 13.8805 19.5017 13.9189C19.5017 13.9572 19.5328 13.9884 19.5712 13.9884Z" fill="black"/>
<path d="M17.1175 24.8258L17.5977 25.0878L17.4812 25.6222L17.0012 25.3602L17.1175 24.8258Z" fill="black"/>
<path d="M14.8818 19.6924L14.7089 19.7712L16.6629 24.0514H16.8708L14.8818 19.6924ZM17.1864 24.7401L17.0453 24.8857L17.1333 25.0799L17.3046 25.001L17.1864 24.7401Z" fill="black"/>
<path d="M15.4877 23.0667C15.4877 23.0667 15.6523 23.4067 15.7773 23.4533C15.7127 23.4357 15.5027 23.5127 15.5027 23.5127C15.5027 23.5127 15.873 23.8437 16.1873 23.8653C16.4537 23.8837 16.583 23.7507 16.583 23.7507L16.5297 23.4684C16.414 23.3392 16.2685 23.2405 16.1058 23.1808C15.8422 23.0889 15.4877 23.0667 15.4877 23.0667Z" fill="black"/>
<path d="M16.7296 22.458C16.7296 22.458 16.5023 22.6525 16.4401 22.8779C16.3779 23.1033 16.4806 23.3594 16.4806 23.3594L16.6716 23.7156C16.6716 23.7156 16.9363 23.5748 17.0489 23.3641C17.1615 23.1535 17.1202 22.8693 17.1202 22.8693C17.1202 22.8693 16.9105 22.9473 16.8838 22.9819C16.9281 22.7483 16.7296 22.458 16.7296 22.458Z" fill="black"/>
<path d="M15.9988 22.367C15.9988 22.367 15.7403 22.4544 15.4893 22.4393C15.2502 22.4249 15.0514 22.2242 15.0514 22.2242C15.0514 22.2242 15.2496 22.0899 15.3474 22.1078C15.2398 22.0685 15.0838 21.7989 15.0838 21.7989C15.0838 21.7989 15.3055 21.7319 15.5021 21.806C15.6987 21.8802 15.8702 22.0957 15.8702 22.0957L15.9988 22.367Z" fill="black"/>
<path d="M16.0877 21.1045C16.0877 21.1045 16.2169 21.3722 16.1862 21.4652C16.2263 21.4032 16.3782 21.3067 16.3782 21.3067C16.3782 21.3067 16.4699 21.7402 16.3822 22.0079C16.2944 22.2755 16.0273 22.3774 16.0273 22.3774L15.7327 21.8044C15.7327 21.8044 15.6887 21.592 15.7807 21.4239C15.8726 21.2557 16.0877 21.1045 16.0877 21.1045Z" fill="black"/>
<path d="M14.4056 20.3957C14.4056 20.3957 14.6849 20.3663 14.9405 20.4722C15.1542 20.5609 15.2197 20.7222 15.2197 20.7222L15.3249 21.0043C15.3249 21.0043 15.0208 21.1183 14.7806 21.0312C14.5403 20.9438 14.3638 20.6553 14.3638 20.6553C14.3638 20.6553 14.5317 20.5917 14.5956 20.6156C14.5025 20.5743 14.4056 20.3957 14.4056 20.3957Z" fill="black"/>
<path d="M15.2846 19.8722C15.2846 19.8722 15.4072 20.0297 15.4109 20.2107C15.4436 20.1145 15.5967 20.0081 15.5967 20.0081C15.5967 20.0081 15.7541 20.389 15.7196 20.6595C15.685 20.93 15.4585 21.09 15.4585 21.09L15.176 20.5538C15.176 20.5538 15.084 20.3341 15.1111 20.1636C15.1382 19.9932 15.2846 19.8722 15.2846 19.8722Z" fill="black"/>
<path d="M14.3171 18.8467C14.3171 18.8467 14.2665 19.1387 14.3527 19.3069C14.4297 19.457 14.4787 19.4899 14.4787 19.4899C14.3319 19.3931 14.1099 19.3847 14.1099 19.3847C14.1099 19.3847 14.1889 19.7024 14.3777 19.8474C14.5665 19.9923 14.8577 19.9585 14.8577 19.9585C14.8577 19.9585 15.0491 19.7036 15.0358 19.429C15.0225 19.1544 14.8044 18.8601 14.8044 18.8601C14.8044 18.8601 14.7184 19.0385 14.7108 19.1717C14.6551 19.0344 14.3171 18.8467 14.3171 18.8467Z" fill="black"/>
<path d="M16.5988 23.7386L16.6065 23.8435C16.7807 23.8451 16.8067 23.8277 16.8513 23.8826C16.8943 23.931 16.9638 23.9456 17.0228 23.9186C17.094 23.8856 17.1255 23.8013 17.0933 23.7297C17.0608 23.6586 16.9948 23.6431 16.931 23.6557C16.8919 23.6633 16.8663 23.6946 16.833 23.7117C16.7699 23.7443 16.5988 23.7386 16.5988 23.7386Z" fill="black"/>
<path d="M16.5842 23.6588L16.6689 23.7209C16.5781 23.8696 16.5497 23.8823 16.5726 23.9493C16.5908 24.0114 16.5664 24.0782 16.5123 24.1138C16.4464 24.1568 16.3584 24.1389 16.3147 24.0736C16.2716 24.0084 16.2934 23.9442 16.3379 23.8968C16.3651 23.8677 16.4051 23.8624 16.4372 23.8434C16.4983 23.8071 16.5842 23.6588 16.5842 23.6588Z" fill="black"/>
<path d="M15.9944 22.414L16.0021 22.5188C16.1763 22.5204 16.2023 22.5032 16.2469 22.558C16.29 22.6063 16.3595 22.6209 16.4184 22.594C16.4896 22.561 16.5211 22.4767 16.4889 22.405C16.4564 22.3339 16.3904 22.3185 16.3266 22.3312C16.2875 22.3388 16.2618 22.37 16.2286 22.3872C16.1656 22.4197 15.9944 22.414 15.9944 22.414Z" fill="black"/>
<path d="M16.0296 22.4512L16.1037 22.5258C15.9908 22.6583 15.9607 22.6666 15.9731 22.7363C15.9813 22.8005 15.9467 22.8627 15.8878 22.8895C15.8161 22.9218 15.7318 22.8903 15.6988 22.819C15.6664 22.7478 15.6981 22.6878 15.7492 22.648C15.7807 22.6235 15.8211 22.6245 15.8557 22.6107C15.9217 22.5843 16.0296 22.4512 16.0296 22.4512Z" fill="black"/>
<path d="M15.4083 21.1739L15.4161 21.2787C15.5903 21.2803 15.6162 21.263 15.6608 21.3179C15.7039 21.3662 15.7735 21.3808 15.8324 21.3538C15.9037 21.3208 15.9351 21.2365 15.9029 21.1648C15.8704 21.0937 15.8043 21.0783 15.7406 21.0909C15.7015 21.0986 15.6758 21.1298 15.6426 21.1469C15.5795 21.1796 15.4083 21.1739 15.4083 21.1739Z" fill="black"/>
<path d="M15.4565 21.152L15.5306 21.2266C15.4178 21.3593 15.3878 21.3675 15.3999 21.4373C15.4083 21.5014 15.3738 21.5635 15.3148 21.5904C15.2431 21.6226 15.1589 21.5913 15.1259 21.5199C15.0934 21.4488 15.125 21.3888 15.1763 21.3488C15.2076 21.3243 15.248 21.3253 15.2828 21.3115C15.3488 21.2853 15.4565 21.152 15.4565 21.152Z" fill="black"/>
<path d="M14.7832 19.8646L14.791 19.9694C14.965 19.9711 14.991 19.9537 15.0357 20.0086C15.0787 20.0569 15.1483 20.0716 15.2072 20.0447C15.2785 20.0116 15.31 19.9273 15.2777 19.8557C15.2453 19.7844 15.1792 19.7691 15.1155 19.7817C15.0764 19.7894 15.0507 19.8206 15.0175 19.8377C14.9544 19.8704 14.7832 19.8646 14.7832 19.8646Z" fill="black"/>
<path d="M14.8313 19.8424L14.9053 19.9171C14.7925 20.0497 14.7625 20.0579 14.7746 20.1277C14.783 20.1918 14.7485 20.2539 14.6895 20.2808C14.6178 20.3131 14.5336 20.2817 14.5006 20.2103C14.4681 20.1392 14.4997 20.0792 14.551 20.0392C14.5825 20.0148 14.6228 20.0157 14.6575 20.0019C14.7235 19.9757 14.8313 19.8424 14.8313 19.8424Z" fill="black"/>
<path d="M17.1879 24.9769L17.4857 25.1394L17.4135 25.4708L17.1157 25.3083L17.1879 24.9769Z" fill="#FFD200"/>
<path d="M15.8849 22.1033C15.8225 22.1292 15.7299 21.8574 15.662 21.7086C15.5922 21.5558 15.4506 21.3203 15.4908 21.3019C15.535 21.2818 15.5931 21.4054 15.6645 21.5618C15.7357 21.7181 15.9434 22.0789 15.8849 22.1033Z" fill="#FFD200"/>
<path d="M15.2437 20.6721C15.1812 20.6981 15.1129 20.5201 15.0449 20.3712C14.9752 20.2185 14.9073 20.1106 14.9476 20.0922C14.9917 20.0721 15.0569 20.2059 15.1139 20.3309C15.1692 20.4521 15.3022 20.6477 15.2437 20.6721Z" fill="#FFD200"/>
<path d="M16.7262 23.9169C16.6772 23.93 16.4633 23.4824 16.2904 23.1037C16.1176 22.7249 15.9888 22.4185 16.0291 22.4002C16.0732 22.38 16.2132 22.7378 16.3862 23.1166C16.5591 23.4954 16.7628 23.9071 16.7262 23.9169Z" fill="#FFD200"/>
<path d="M16.9652 23.8664C17.0077 23.8664 17.0423 23.8318 17.0423 23.7891C17.0423 23.7465 17.0077 23.7119 16.9652 23.7119C16.9224 23.7119 16.8878 23.7465 16.8878 23.7891C16.8878 23.8318 16.9224 23.8664 16.9652 23.8664Z" fill="#FFD200"/>
<path d="M16.435 24.0723C16.4777 24.0723 16.5122 24.0377 16.5122 23.9952C16.5122 23.9525 16.4777 23.918 16.435 23.918C16.3924 23.918 16.3578 23.9525 16.3578 23.9952C16.3578 24.0377 16.3924 24.0723 16.435 24.0723Z" fill="#FFD200"/>
<path d="M16.3607 22.5408C16.4032 22.5408 16.4378 22.5063 16.4378 22.4636C16.4378 22.421 16.4032 22.3864 16.3607 22.3864C16.318 22.3864 16.2833 22.421 16.2833 22.4636C16.2833 22.5063 16.318 22.5408 16.3607 22.5408Z" fill="#FFD200"/>
<path d="M15.8293 22.8368C15.8719 22.8368 15.9065 22.8021 15.9065 22.7596C15.9065 22.7169 15.8719 22.6823 15.8293 22.6823C15.7866 22.6823 15.7521 22.7169 15.7521 22.7596C15.7521 22.8021 15.7866 22.8368 15.8293 22.8368Z" fill="#FFD200"/>
<path d="M15.7746 21.301C15.8173 21.301 15.8518 21.2664 15.8518 21.2237C15.8518 21.1811 15.8173 21.1465 15.7746 21.1465C15.7319 21.1465 15.6974 21.1811 15.6974 21.2237C15.6974 21.2664 15.7319 21.301 15.7746 21.301Z" fill="#FFD200"/>
<path d="M15.255 21.5377C15.2977 21.5377 15.3322 21.503 15.3322 21.4603C15.3322 21.4178 15.2977 21.3832 15.255 21.3832C15.2123 21.3832 15.1777 21.4178 15.1777 21.4603C15.1777 21.503 15.2123 21.5377 15.255 21.5377Z" fill="#FFD200"/>
<path d="M15.1496 19.9918C15.1923 19.9918 15.2269 19.9572 15.2269 19.9144C15.2269 19.8718 15.1923 19.8372 15.1496 19.8372C15.107 19.8372 15.0724 19.8718 15.0724 19.9144C15.0724 19.9572 15.107 19.9918 15.1496 19.9918Z" fill="#FFD200"/>
<path d="M14.6311 20.2284C14.6737 20.2284 14.7083 20.1938 14.7083 20.1512C14.7083 20.1085 14.6737 20.0739 14.6311 20.0739C14.5885 20.0739 14.5538 20.1085 14.5538 20.1512C14.5538 20.1938 14.5885 20.2284 14.6311 20.2284Z" fill="#FFD200"/>
<path d="M14.4031 19.0241C14.4031 19.0241 14.3956 19.2375 14.4661 19.3586C14.5367 19.4797 14.6945 19.528 14.6945 19.528C14.6945 19.528 14.702 19.3146 14.6313 19.1936C14.5607 19.0725 14.4031 19.0241 14.4031 19.0241Z" fill="#007A50"/>
<path d="M14.2559 19.5068C14.2559 19.5068 14.4412 19.5178 14.5483 19.5998C14.6553 19.6818 14.6967 19.8528 14.6967 19.8528C14.6144 19.8572 14.5331 19.8324 14.4669 19.7833C14.3599 19.7012 14.2559 19.5068 14.2559 19.5068Z" fill="#007A50"/>
<path d="M14.8378 19.0758C14.8 19.1691 14.7814 19.2691 14.7833 19.3697C14.7904 19.5221 14.8793 19.6938 14.8793 19.6938C14.8793 19.6938 14.9598 19.5108 14.9527 19.3583C14.9457 19.2059 14.8594 19.1191 14.8378 19.0758Z" fill="#007A50"/>
<path d="M14.5253 20.4497C14.5872 20.5312 14.6659 20.5982 14.7564 20.6461C14.8965 20.7154 15.1053 20.7179 15.1053 20.7179C15.0382 20.6343 14.9552 20.5648 14.8609 20.5134C14.7209 20.4442 14.5253 20.4497 14.5253 20.4497Z" fill="#007A50"/>
<path d="M14.571 20.7448C14.571 20.7448 14.6379 20.8758 14.7602 20.932C14.8826 20.9881 15.1328 20.9836 15.1328 20.9836C15.073 20.9096 14.9987 20.8489 14.9145 20.8049C14.7922 20.7486 14.571 20.7448 14.571 20.7448Z" fill="#007A50"/>
<path d="M15.2746 20.0463C15.23 20.1244 15.207 20.213 15.2078 20.303C15.2151 20.4378 15.3035 20.5849 15.3035 20.5849C15.3035 20.5849 15.3656 20.4163 15.3583 20.2815C15.3522 20.1969 15.3232 20.1156 15.2746 20.0463Z" fill="#007A50"/>
<path d="M15.5475 20.2191C15.5475 20.2191 15.4209 20.3888 15.4028 20.5635C15.3846 20.738 15.4747 20.9173 15.4747 20.9173C15.4747 20.9173 15.6276 20.7638 15.6457 20.5893C15.6639 20.4148 15.5475 20.2191 15.5475 20.2191Z" fill="#007A50"/>
<path d="M15.1986 21.8313C15.2126 21.8786 15.2357 21.9226 15.2667 21.9607C15.3099 22.0111 15.3579 22.0571 15.41 22.0981C15.4741 22.0808 15.5413 22.0793 15.6061 22.0935C15.7147 22.1171 15.8592 22.2137 15.8592 22.2137C15.8592 22.2137 15.7037 21.9817 15.5422 21.8915C15.4364 21.8371 15.3165 21.8161 15.1986 21.8313Z" fill="#007A50"/>
<path d="M15.1829 22.2299C15.1829 22.2299 15.3843 22.1439 15.5501 22.1661C15.7158 22.1883 15.8653 22.3193 15.8653 22.3193C15.8653 22.3193 15.6413 22.3969 15.4756 22.3746C15.3663 22.355 15.2648 22.3048 15.1829 22.2299Z" fill="#007A50"/>
<path d="M16.0332 21.2943C16.0332 21.2943 15.8552 21.4828 15.8402 21.6465C15.8252 21.8102 15.9846 21.9627 15.9846 21.9627C15.9804 21.904 15.987 21.845 16.0042 21.7886C16.0269 21.7377 16.0557 21.6897 16.0899 21.6457C16.104 21.5963 16.1092 21.545 16.1052 21.4938C16.0915 21.4241 16.0672 21.3567 16.0332 21.2943Z" fill="#007A50"/>
<path d="M16.2889 21.5127C16.2889 21.5127 16.1212 21.6825 16.0768 21.8643C16.0324 22.0461 16.1114 22.24 16.1114 22.24C16.1114 22.24 16.2641 22.1196 16.3084 21.9378C16.3528 21.756 16.2889 21.5127 16.2889 21.5127Z" fill="#007A50"/>
<path d="M16.7087 22.6088C16.7525 22.7015 16.7845 22.7994 16.804 22.9001C16.8233 23.0328 16.8054 23.0788 16.8054 23.0788C16.8054 23.0788 16.7268 23.156 16.6915 23.2014C16.6463 23.2598 16.6396 23.3668 16.6396 23.3668C16.6396 23.3668 16.4818 23.1321 16.5061 22.9606C16.5304 22.7891 16.7087 22.6088 16.7087 22.6088Z" fill="#007A50"/>
<path d="M17.0409 22.9759C17.0409 22.9759 16.8389 23.1093 16.7588 23.2463C16.7111 23.3303 16.6973 23.4294 16.7201 23.5233C16.8137 23.51 16.8962 23.455 16.9444 23.3738C17.0246 23.2369 17.0409 22.9759 17.0409 22.9759Z" fill="#007A50"/>
<path d="M15.7144 23.5393C15.7144 23.5393 16.0056 23.5313 16.1836 23.5751C16.3616 23.6188 16.4264 23.7142 16.4264 23.7142C16.4264 23.7142 16.2262 23.8079 16.0482 23.7642C15.8702 23.7205 15.7144 23.5393 15.7144 23.5393Z" fill="#007A50"/>
<path d="M15.6649 23.1941C15.6649 23.1941 15.7963 23.3978 15.9661 23.4717C16.2002 23.5734 16.4712 23.5241 16.4712 23.5241C16.4712 23.5241 16.324 23.3437 16.1214 23.2639C15.9187 23.1844 15.6649 23.1941 15.6649 23.1941Z" fill="#007A50"/>
<path d="M25.6349 19.1947L25.6729 19.2751C25.6353 19.2892 25.6035 19.316 25.5834 19.3509C25.5555 19.4056 25.6015 19.4829 25.6015 19.4829C25.6015 19.4829 25.2814 19.455 25.2314 19.4875C25.1862 19.5168 25.2505 19.7386 25.2208 19.926C25.1793 20.1871 25.0763 20.1651 25.072 20.2157C25.068 20.2649 25.1115 20.3416 25.1115 20.3416C25.1115 20.3416 25.0514 20.3606 25.0387 20.3857C25.018 20.426 25.053 20.5005 25.028 20.5495C24.8888 20.8228 24.6832 21.2263 24.5472 21.4932C24.5282 21.5304 24.4772 21.5447 24.4515 21.5948C24.438 21.6313 24.4364 21.6712 24.447 21.7086C24.447 21.7086 24.3569 21.714 24.3257 21.7754C24.3059 21.824 24.3012 21.8773 24.3119 21.9286C24.2755 21.9351 24.2442 21.958 24.2269 21.9908C24.197 22.0495 24.2477 22.0803 24.2347 22.1061C24.0519 22.4648 23.8365 22.8876 23.7052 23.1454C23.6568 23.2402 23.4877 23.2592 23.3894 23.4519C23.3334 23.5579 23.3498 23.6878 23.4304 23.7765C23.4304 23.7765 23.289 23.7893 23.2514 23.863C23.2132 23.9382 23.2434 24.0522 23.3455 24.1042C23.4475 24.1562 23.5592 24.1141 23.5974 24.039C23.6349 23.9653 23.5594 23.8433 23.5594 23.8433C23.6789 23.8554 23.7934 23.7918 23.8462 23.684C23.9444 23.4913 23.8617 23.3449 23.9099 23.2501C24.0414 22.9922 24.2567 22.5695 24.4394 22.2108C24.4527 22.185 24.5067 22.2073 24.5365 22.1486C24.5529 22.1157 24.5529 22.0769 24.5365 22.0439C24.5847 22.0224 24.6254 21.987 24.6534 21.9423C24.6847 21.8809 24.6367 21.8042 24.6367 21.8042C24.6733 21.7911 24.7045 21.7667 24.7262 21.7345C24.7518 21.6843 24.7329 21.6352 24.7519 21.5979C24.8879 21.331 25.0937 20.9275 25.2329 20.6542C25.2579 20.6052 25.3383 20.5884 25.3589 20.548C25.3717 20.5229 25.3513 20.463 25.3513 20.463C25.3513 20.463 25.4399 20.4543 25.4772 20.422C25.5157 20.3889 25.4375 20.3178 25.6244 20.1308C25.7584 19.9966 25.9745 19.9176 25.9718 19.8637C25.9687 19.8042 25.7579 19.5618 25.7579 19.5618C25.7579 19.5618 25.8468 19.5543 25.8747 19.4996C25.891 19.4624 25.8943 19.4206 25.8839 19.3813L25.9718 19.3661V18.9489L25.6349 19.1947ZM22.7265 25.0056C22.712 25.0347 22.712 25.0689 22.7265 25.0981C22.7265 25.0981 22.6204 25.0649 22.5839 25.0829C22.5497 25.0999 22.5839 25.6003 22.5839 25.6003C22.5839 25.6003 23.0077 25.333 23.0012 25.2953C22.9944 25.2553 22.9055 25.1876 22.9055 25.1876C22.9374 25.1827 22.9649 25.163 22.9799 25.1345C22.9939 25.1071 22.9958 25.0288 22.8995 24.9797C22.8709 24.9638 22.8382 24.9564 22.8054 24.9585C22.7732 24.9606 22.7438 24.9781 22.7265 25.0056Z" fill="black"/>
<path d="M25.7126 19.2113L25.9128 19.3129L25.9098 19.0716L25.7126 19.2113Z" fill="#FFD200"/>
<path d="M25.6355 19.3571C25.6002 19.4104 25.6147 19.4823 25.6681 19.5176C25.7213 19.5528 25.7932 19.5383 25.8285 19.4849C25.8637 19.4317 25.8492 19.3598 25.7958 19.3244C25.7922 19.3219 25.7882 19.3198 25.7842 19.3177C25.7641 19.3073 25.7415 19.3026 25.7188 19.3039C25.6837 19.3056 25.6518 19.3259 25.6355 19.3571Z" fill="#FFD200"/>
<path d="M25.2905 19.5404C25.2694 19.5542 25.2982 19.7344 25.292 19.8878C25.2864 20.0325 25.24 20.0733 25.2147 20.123C25.1913 20.1689 25.1069 20.2232 25.1069 20.2232L25.1768 20.2929C25.1768 20.2929 25.2222 20.2222 25.2935 20.082C25.3779 19.9167 25.375 19.617 25.3999 19.6012C25.4644 19.5783 25.5304 19.5592 25.597 19.5434C25.597 19.5434 25.4358 19.5347 25.3468 19.5358C25.3279 19.5347 25.3089 19.5362 25.2905 19.5404Z" fill="#FFD200"/>
<path d="M25.3088 20.3736C25.3397 20.2969 25.3747 20.2221 25.4136 20.1491C25.5117 19.9564 25.7212 19.8167 25.7261 19.7819C25.7312 19.7459 25.6533 19.5771 25.6533 19.5771C25.6533 19.5771 25.4685 19.6126 25.4423 19.6378C25.4171 19.6622 25.4282 19.9124 25.3301 20.1051C25.2936 20.1801 25.2531 20.2529 25.2087 20.3236L25.3088 20.3736Z" fill="#FFD200"/>
<path d="M25.7809 19.7954C25.7824 19.8248 25.539 19.9988 25.4548 20.164C25.3834 20.3043 25.353 20.3825 25.353 20.3825L25.4503 20.3978C25.4503 20.3978 25.4435 20.2979 25.4669 20.252C25.4923 20.2023 25.4989 20.1415 25.6125 20.0518C25.7332 19.9568 25.896 19.8737 25.8948 19.8484C25.8935 19.8253 25.7127 19.6013 25.7127 19.6013C25.7389 19.6648 25.7617 19.7295 25.7809 19.7954Z" fill="#FFD200"/>
<path d="M25.0679 20.8771C25.2142 20.5901 25.2588 20.5704 25.2772 20.5342C25.2971 20.4953 25.2923 20.4431 25.2272 20.4098C25.2078 20.3991 25.1856 20.3943 25.1635 20.3962C25.1351 20.3996 25.1104 20.4173 25.0982 20.4432C25.0798 20.4794 25.0898 20.5278 24.9435 20.8149L24.6112 21.4658C24.5921 21.4988 24.6034 21.5411 24.6364 21.5602L24.6415 21.5629C24.6735 21.5808 24.7139 21.5693 24.7318 21.5374C24.7332 21.5348 24.7345 21.5322 24.7356 21.5296L25.0679 20.8771Z" fill="#FFD200"/>
<path d="M24.4806 21.6237C24.4624 21.6592 24.4935 21.7116 24.5503 21.7406C24.6073 21.7694 24.6688 21.7639 24.6869 21.7283C24.705 21.6928 24.6725 21.6406 24.6156 21.6116C24.5905 21.5981 24.5621 21.5917 24.5336 21.5933C24.5119 21.5936 24.4918 21.6051 24.4806 21.6237Z" fill="#FFD200"/>
<path d="M24.3573 21.8085C24.3339 21.8546 24.3705 21.9206 24.4393 21.9558C24.5081 21.9908 24.5827 21.982 24.6062 21.936C24.6296 21.8899 24.593 21.8239 24.5242 21.7888C24.5007 21.7764 24.4749 21.7692 24.4484 21.7676C24.4126 21.7623 24.3771 21.7783 24.3573 21.8085Z" fill="#FFD200"/>
<path d="M24.2801 22.015C24.262 22.0506 24.293 22.1028 24.3498 22.1318C24.4066 22.1608 24.4682 22.1553 24.4863 22.1198C24.5045 22.0841 24.4735 22.0319 24.4166 22.0029C24.391 21.9893 24.3621 21.983 24.3331 21.9846C24.3113 21.9848 24.2912 21.9963 24.2801 22.015Z" fill="#FFD200"/>
<path d="M24.2296 22.2124C24.2296 22.2124 23.8607 22.9386 23.7305 23.1941C23.6888 23.2757 23.5138 23.3266 23.4453 23.4611C23.3762 23.5964 23.4248 23.7232 23.515 23.7691C23.6051 23.8149 23.7373 23.7817 23.8063 23.6463C23.8748 23.5117 23.8133 23.3393 23.8548 23.2578C23.9851 23.0023 24.354 22.2762 24.354 22.2762C24.3737 22.2441 24.3636 22.2022 24.3315 22.1826C24.3293 22.1813 24.3273 22.1802 24.3252 22.1791C24.3122 22.1722 24.2973 22.1696 24.2827 22.1716C24.2596 22.1763 24.24 22.1913 24.2296 22.2124Z" fill="#FFD200"/>
<path d="M23.2963 23.8981C23.2685 23.9523 23.3003 24.0246 23.3675 24.0588C23.4349 24.0932 23.5129 24.0767 23.5405 24.0224C23.5681 23.9682 23.535 23.8959 23.4676 23.8616C23.4444 23.8493 23.4183 23.8431 23.3919 23.8434C23.3524 23.8427 23.3157 23.8637 23.2963 23.8981Z" fill="#FFD200"/>
<path d="M22.8054 25.007C22.7875 25.0054 22.7701 25.0137 22.7599 25.0283C22.7458 25.056 22.775 25.0998 22.8251 25.1254C22.8753 25.1509 22.9278 25.1487 22.942 25.1208C22.9561 25.093 22.9269 25.0493 22.8768 25.0237C22.8548 25.0123 22.8301 25.0065 22.8054 25.007Z" fill="#FFD200"/>
<path d="M22.6325 25.1434V25.5015L22.9238 25.2921C22.8605 25.1939 22.7493 25.137 22.6325 25.1434Z" fill="#FFD200"/>
<path d="M22.8158 17.169C22.8158 16.9726 23.0737 16.779 23.0737 16.779H16.7835C16.7835 16.779 17.0414 16.9726 17.0414 17.169V21.8511C17.0392 21.9538 17.0743 22.0541 17.14 22.1332C17.2005 22.2177 17.3294 22.3346 17.4632 22.4215C17.8763 22.6897 18.567 22.9727 19.0897 23.2103C19.525 23.4085 19.7023 23.4883 19.9285 23.7687C20.1549 23.4883 20.3337 23.4086 20.769 23.2103C21.2917 22.9727 21.9823 22.6897 22.3955 22.4215C22.5293 22.3346 22.6582 22.2177 22.7187 22.1332C22.784 22.054 22.8185 21.9537 22.8158 21.8511V17.169Z" fill="#FFD200"/>
<path d="M17.1889 19.8184V17.1693C17.1904 17.0828 17.1638 16.9982 17.1131 16.9281H22.7418C22.6911 16.9982 22.6645 17.0828 22.6659 17.1693L22.6675 19.8184L19.9283 20.6482L17.1889 19.8184Z" fill="#CC092F"/>
<path d="M22.6684 19.8183L20.9722 19.7865H18.886L17.1898 19.8183V21.8514C17.1898 21.9537 17.2959 22.1929 17.9075 22.4977C18.9184 23.0014 19.6954 23.2367 19.9283 23.5233C20.1612 23.2367 20.9382 23.0014 21.9492 22.4977C22.5608 22.1929 22.6668 21.9537 22.6668 21.8514L22.6684 19.8183Z" fill="#0046AE"/>
<path d="M20.9319 19.7123C20.9319 19.7123 21.9105 19.4655 21.9105 18.4196C21.9105 17.6026 20.9294 17.1975 20.9015 17.0026C20.8057 17.3399 21.2292 17.8056 21.2292 18.3574C21.2292 19.0711 20.7028 19.1054 20.7028 19.1054C20.5796 19.1054 20.5297 19.1934 20.4813 19.1934C20.3776 19.1825 20.3288 19.0506 20.2264 19.0506C20.1301 19.0506 20.0562 19.1994 19.929 19.1994C19.8018 19.1994 19.7294 19.0506 19.6332 19.0506C19.5307 19.0506 19.4819 19.1825 19.3783 19.1934C19.3299 19.1934 19.2799 19.1054 19.1567 19.1054C19.1567 19.1054 18.6303 19.0711 18.6303 18.3574C18.6303 17.8056 19.054 17.3398 18.958 17.0026C18.9302 17.1975 17.9492 17.6026 17.9492 18.4196C17.9492 19.4655 18.9277 19.7123 18.9277 19.7123L18.6486 20.2205C18.6486 20.2205 19.0529 20.2406 19.2676 20.4238C19.5264 20.6445 19.5012 21.1121 19.5012 21.4525C19.5012 21.7205 19.4673 22.0034 19.3298 22.12C19.1451 22.2766 19.0202 22.2881 19.0202 22.472C19.0202 22.6253 19.1381 22.6561 19.3298 22.7571C19.5754 22.8868 19.5639 23.0606 19.929 23.0606C20.2942 23.0606 20.2842 22.8869 20.5298 22.7571C20.7215 22.6561 20.8394 22.6253 20.8394 22.472C20.8394 22.2881 20.7145 22.2766 20.5298 22.12C20.3923 22.0033 20.3584 21.7205 20.3584 21.4525C20.3584 21.1121 20.3333 20.6445 20.592 20.4238C20.8067 20.2408 21.2111 20.2205 21.2111 20.2205L20.9319 19.7123Z" fill="black"/>
<path d="M19.9279 17.0752L19.7579 17.5577L19.2952 17.3377L19.5152 17.8004L19.0327 17.9719L19.5152 18.1433L19.2952 18.6045L19.7579 18.3845L19.9279 18.867L20.0994 18.3845L20.562 18.6045L20.342 18.1433L20.8245 17.9719L20.342 17.8004L20.562 17.3377L20.0994 17.5577L19.9279 17.0752Z" fill="black"/>
<path d="M18.8862 19.7865C18.8862 19.7865 18.2819 19.6388 18.0563 19.3405C17.8051 19.56 17.5097 19.723 17.1899 19.8184C17.1899 19.8184 17.6822 20.0406 18.0563 20.3236C18.2287 20.0766 18.8862 19.7865 18.8862 19.7865Z" fill="black"/>
<path d="M20.972 19.7865C20.972 19.7865 21.6295 20.0765 21.8019 20.3236C22.176 20.0406 22.6682 19.8184 22.6682 19.8184C22.3485 19.7229 22.0531 19.56 21.8019 19.3405C21.5762 19.6388 20.972 19.7865 20.972 19.7865Z" fill="black"/>
<path d="M19.1338 20.4297L18.8986 20.6649L19.1338 20.9L19.3689 20.6649L19.1338 20.4297Z" fill="black"/>
<path d="M20.7252 20.4297L20.4901 20.6648L20.7252 20.9L20.9603 20.6648L20.7252 20.4297Z" fill="black"/>
<path d="M19.0747 21.8024C19.0774 21.9542 19.0678 22.1059 19.0459 22.2562C19.0459 22.2562 19.3774 22.1585 19.4434 21.8223C19.4744 21.6645 19.5088 21.0838 19.3493 20.9848L18.9169 20.8997C19.0215 21.1892 19.0749 21.4947 19.0747 21.8024Z" fill="black"/>
<path d="M20.5101 20.9848C20.3506 21.0838 20.3851 21.6645 20.416 21.8223C20.482 22.1585 20.8136 22.2562 20.8136 22.2562C20.7916 22.1059 20.782 21.9543 20.7848 21.8025C20.7845 21.4948 20.8379 21.1892 20.9425 20.8997L20.5101 20.9848Z" fill="black"/>
<path d="M18.0551 21.0015C17.9073 21.0371 17.8163 21.1858 17.8518 21.3336C17.8576 21.3581 17.8668 21.3816 17.8791 21.4036C17.857 21.3961 17.8341 21.3916 17.8108 21.3899C17.8013 21.3894 17.7916 21.3894 17.782 21.3899C17.6285 21.3964 17.5093 21.526 17.5158 21.6795C17.5223 21.833 17.6518 21.9523 17.8053 21.9458C17.8168 21.9453 17.8283 21.9441 17.8398 21.9423C17.8261 21.9604 17.8149 21.9803 17.8063 22.0013C17.7482 22.1439 17.8166 22.3066 17.9593 22.3648C18.1018 22.4229 18.2645 22.3544 18.3226 22.2119L18.3236 22.2093C18.3319 22.1883 18.3375 22.1663 18.3404 22.144C18.3539 22.1626 18.3698 22.1794 18.3874 22.194C18.5038 22.2944 18.6796 22.2813 18.78 22.1649C18.8803 22.0484 18.8673 21.8726 18.7508 21.7723C18.7317 21.7558 18.7105 21.7421 18.6878 21.7313C18.7096 21.7243 18.7305 21.7148 18.7499 21.7025C18.8803 21.6201 18.9196 21.4479 18.8379 21.3171C18.7838 21.2308 18.6863 21.1811 18.5846 21.1883C18.5383 21.1913 18.4934 21.2059 18.4541 21.2308C18.4348 21.2426 18.4169 21.2569 18.401 21.2733C18.4003 21.1183 18.2741 20.9931 18.1191 20.9938C18.0975 20.9939 18.0761 20.9965 18.0551 21.0015Z" fill="black"/>
<path d="M21.0131 21.8117C21.0432 22.0958 21.2741 22.3338 21.5592 22.4018C21.5097 22.3222 21.4786 22.2325 21.4682 22.1394C21.4324 21.8024 21.6931 21.5294 22.0492 21.5294C22.1044 21.5295 22.1594 21.5361 22.2131 21.5492C22.0803 21.3343 21.8466 21.2026 21.5941 21.2002C21.2379 21.2003 20.9772 21.4748 21.0131 21.8117Z" fill="black"/>
<path d="M18.4863 18.3572C18.4863 18.8945 18.7728 19.2114 19.1554 19.2114C19.2283 19.2114 19.3081 19.31 19.3769 19.31C19.4891 19.31 19.5636 19.1856 19.6318 19.1856C19.7186 19.1856 19.7771 19.3221 19.9276 19.3221C20.0783 19.3221 20.1382 19.1856 20.2251 19.1856C20.2932 19.1856 20.3678 19.31 20.4798 19.31C20.5486 19.31 20.6284 19.2114 20.7014 19.2114C21.0841 19.2114 21.3706 18.8945 21.3706 18.3572C21.3706 17.9191 21.0026 17.3849 21.0428 17.2982C21.0428 17.2982 21.7604 17.813 21.7604 18.4194C21.7604 19.3962 20.7697 19.6377 20.7697 19.6377L20.9927 20.1399C20.9927 20.1399 20.6856 20.1859 20.4981 20.3371C20.2481 20.5387 20.2447 21.0837 20.2447 21.4522C20.2447 21.8864 20.2608 22.0702 20.4177 22.1881C20.5831 22.3122 20.7074 22.3391 20.7074 22.4657C20.7074 22.5761 20.5787 22.6212 20.4116 22.6947C20.2216 22.7786 20.2026 22.9239 19.9276 22.9239C19.6526 22.9239 19.6352 22.7786 19.4451 22.6947C19.2781 22.6212 19.1493 22.5761 19.1493 22.4657C19.1493 22.3391 19.2737 22.3122 19.4391 22.1881C19.5959 22.0702 19.6121 21.8864 19.6121 21.4522C19.6121 21.0837 19.6087 20.5387 19.3586 20.3371C19.1711 20.1859 18.8641 20.1399 18.8641 20.1399L19.0871 19.6377C19.0871 19.6377 18.0963 19.3962 18.0963 18.4194C18.0963 17.813 18.8141 17.2982 18.8141 17.2982C18.8542 17.3849 18.4863 17.9191 18.4863 18.3572ZM19.5528 22.3915C19.3582 22.3915 19.2342 22.4326 19.2342 22.4916C19.2342 22.5507 19.3582 22.5902 19.5528 22.5902C19.6047 22.5902 19.6636 22.5601 19.6636 22.4916C19.6623 22.4349 19.6152 22.3899 19.5584 22.3912L19.5528 22.3915ZM20.3038 22.3915C20.2472 22.3871 20.1977 22.4295 20.1933 22.4861L20.1931 22.4916C20.1931 22.5601 20.2521 22.5902 20.3038 22.5902C20.4986 22.5902 20.6224 22.5507 20.6224 22.4916C20.6224 22.4325 20.4984 22.3915 20.3038 22.3915Z" fill="#FFD200"/>
<path d="M19.9303 17.3997L20.0394 17.7077L20.3338 17.5667L20.1943 17.8625L20.5008 17.9717L20.1943 18.081L20.3338 18.3753L20.0394 18.2357L19.9288 18.5423L19.8194 18.2357L19.5252 18.3753L19.6648 18.081L19.3583 17.9717L19.6648 17.8625L19.5252 17.5667L19.8194 17.7077L19.9303 17.3997Z" fill="#FFD200"/>
<path d="M17.4777 19.8269C17.4777 19.8269 17.8514 20.013 18.0391 20.1789L18.0497 20.188L18.0557 20.1804C18.2331 19.9768 18.5624 19.8042 18.5624 19.8042C18.5624 19.8042 18.2461 19.7169 18.0466 19.4886C17.8359 19.7034 17.4777 19.8269 17.4777 19.8269Z" fill="#FFD200"/>
<path d="M22.3796 19.8276C22.3796 19.8276 22.0059 20.0137 21.8183 20.1796L21.8076 20.1887L21.8016 20.1811C21.6243 19.9774 21.2949 19.8048 21.2949 19.8048C21.2949 19.8048 21.6113 19.7176 21.8108 19.4893C22.0214 19.7041 22.3796 19.8276 22.3796 19.8276Z" fill="#FFD200"/>
<path d="M19.1324 20.5417L19.2552 20.6645L19.1324 20.789L19.008 20.6645L19.1324 20.5417Z" fill="#FFD200"/>
<path d="M20.7249 20.5417L20.8493 20.6645L20.7249 20.789L20.6021 20.6645L20.7249 20.5417Z" fill="#FFD200"/>
<path d="M19.3 21.0788C19.3859 21.1972 19.3713 21.3888 19.3713 21.6553C19.3765 21.8067 19.2993 21.949 19.1696 22.0271C19.1696 21.3812 19.103 21.2258 19.0679 21.0302L19.3 21.0788Z" fill="#FFD200"/>
<path d="M20.7891 21.0299C20.7541 21.2256 20.6876 21.3808 20.6876 22.0267C20.5578 21.9487 20.4806 21.8063 20.4858 21.6551C20.4858 21.3886 20.4711 21.1971 20.5571 21.0784L20.7891 21.0299Z" fill="#FFD200"/>
<path d="M18.3458 21.2744C18.3513 21.2978 18.3529 21.3219 18.3503 21.3458C18.3483 21.3645 18.3437 21.3829 18.3367 21.4004C18.2151 21.3573 18.0796 21.3921 17.9938 21.4884C17.9786 21.4751 17.9653 21.4598 17.9544 21.4429C17.9413 21.4234 17.9316 21.4018 17.9255 21.3792C17.8967 21.2631 17.9675 21.1456 18.0835 21.1168C18.1995 21.088 18.3168 21.1586 18.3458 21.2744Z" fill="#FFD200"/>
<path d="M18.6693 21.6795C18.6488 21.692 18.6263 21.701 18.6028 21.7059C18.5844 21.7097 18.5654 21.7111 18.5467 21.7097C18.55 21.5809 18.475 21.4627 18.3569 21.4109C18.3649 21.3922 18.3754 21.375 18.388 21.3592C18.4027 21.3409 18.42 21.325 18.4398 21.3122C18.5413 21.2489 18.6749 21.2797 18.7382 21.3812C18.8015 21.4826 18.7707 21.6162 18.6693 21.6795Z" fill="#FFD200"/>
<path d="M18.3843 22.1121C18.366 22.0964 18.3506 22.0778 18.3387 22.057C18.3293 22.0407 18.3222 22.0231 18.3176 22.0048C18.4413 21.9683 18.5305 21.8604 18.5433 21.7321C18.5634 21.7339 18.5831 21.7385 18.6019 21.7457C18.624 21.7538 18.6445 21.7655 18.6627 21.7803C18.7541 21.8575 18.7657 21.9941 18.6886 22.0855C18.6117 22.1766 18.4757 22.1884 18.3843 22.1121Z" fill="#FFD200"/>
<path d="M17.8843 21.9748C17.8935 21.9527 17.9065 21.9322 17.9226 21.9144C17.9352 21.9004 17.9497 21.8882 17.9657 21.8782C18.0387 21.9847 18.1688 22.0362 18.2948 22.0087C18.2993 22.0282 18.3011 22.0484 18.3 22.0687C18.2991 22.0921 18.2943 22.1152 18.2858 22.1372C18.2409 22.2479 18.1147 22.3014 18.0038 22.2566C17.8931 22.2117 17.8396 22.0857 17.8843 21.9748Z" fill="#FFD200"/>
<path d="M17.8616 21.4573C17.8855 21.4592 17.9089 21.4652 17.9307 21.4749C17.948 21.4827 17.9641 21.4928 17.9785 21.5048C17.9 21.6072 17.8911 21.7468 17.9562 21.8582C17.939 21.8684 17.9202 21.8763 17.9007 21.8815C17.8781 21.8879 17.8547 21.8905 17.8312 21.8893C17.712 21.8808 17.6221 21.7773 17.6306 21.6579C17.6391 21.5388 17.7424 21.449 17.8616 21.4573Z" fill="#FFD200"/>
<path d="M18.2289 21.909C18.3445 21.909 18.4384 21.8152 18.4384 21.6997C18.4384 21.584 18.3445 21.4902 18.2289 21.4902C18.1133 21.4902 18.0195 21.584 18.0195 21.6997C18.0195 21.8152 18.1133 21.909 18.2289 21.909Z" fill="#FFD200"/>
<path d="M21.905 21.4172C21.5574 21.4843 21.3073 21.7915 21.3437 22.15C21.2329 22.0583 21.1519 21.9347 21.1374 21.798C21.1092 21.5318 21.3024 21.3262 21.594 21.3262C21.7042 21.3272 21.8118 21.3587 21.905 21.4172Z" fill="#FFD200"/>
<path d="M22.9502 16.8258H16.906C16.9861 16.9066 17.088 17.0352 17.088 17.1687V21.2348L17.0877 21.8508C17.0869 21.8991 17.0949 21.9472 17.1109 21.9926C17.1265 22.033 17.1481 22.0707 17.1751 22.1043L17.1762 22.1058C17.2351 22.181 17.3036 22.2481 17.3799 22.3055C17.397 22.319 17.4147 22.3323 17.4325 22.345C17.4497 22.3573 17.4677 22.3697 17.4864 22.3817C17.808 22.5906 18.304 22.8105 18.7541 23.0098C18.8797 23.0655 19.0021 23.1197 19.1067 23.1672L19.117 23.172C19.529 23.3595 19.713 23.4431 19.9281 23.6951C20.1439 23.4422 20.327 23.3588 20.743 23.1697L20.7476 23.1675C20.8525 23.1198 20.9746 23.0657 21.1002 23.0101C21.5505 22.8107 22.046 22.5911 22.3677 22.3822C22.458 22.3235 22.5419 22.2548 22.6172 22.1781C22.6295 22.1652 22.641 22.1526 22.6515 22.1403C22.6612 22.1287 22.6704 22.1172 22.6784 22.1058L22.6791 22.1052C22.7064 22.0712 22.7289 22.0327 22.7449 21.9923C22.7612 21.947 22.7692 21.8991 22.7684 21.8508L22.7685 21.2348L22.7684 17.1687C22.7684 17.0353 22.8701 16.9066 22.9502 16.8258ZM22.8625 17.1687V21.2348L22.8622 21.8508C22.8631 21.9103 22.8532 21.9695 22.8327 22.0253C22.8136 22.0741 22.7874 22.1197 22.7547 22.1606C22.7459 22.173 22.7354 22.1867 22.7231 22.2008C22.7117 22.2143 22.6989 22.2286 22.6849 22.2431C22.6045 22.3252 22.5155 22.3981 22.4191 22.4607C22.0904 22.6741 21.5914 22.8953 21.1381 23.0961C21.0195 23.1486 20.904 23.1997 20.7866 23.2532L20.7819 23.2552C20.357 23.4486 20.1831 23.5276 19.9647 23.7981L19.9281 23.8432L19.8915 23.7981C19.6741 23.5287 19.4994 23.4493 19.0781 23.2577L19.0682 23.2532C18.9506 23.1997 18.8349 23.1485 18.7162 23.0958C18.263 22.8952 17.7642 22.6742 17.4355 22.4607L17.4345 22.46C17.416 22.448 17.3966 22.4348 17.3776 22.4211C17.3587 22.4075 17.3401 22.3936 17.3221 22.3793C17.2387 22.3163 17.164 22.2427 17.0997 22.1603C17.0672 22.1193 17.0412 22.0737 17.0226 22.025C17.0026 21.9692 16.993 21.9102 16.9939 21.8508L16.994 21.2348L16.9939 17.1687C16.9939 16.9957 16.7555 16.8168 16.7549 16.8163V16.7318H23.1015V16.8163C23.1007 16.8168 22.8625 16.9957 22.8625 17.1687ZM22.72 16.8807L22.7426 16.8805H22.84L22.7791 16.9568C22.735 17.0185 22.712 17.0928 22.7137 17.1687V21.2348L22.7135 21.8508C22.7135 21.9342 22.6555 22.0951 22.3809 22.2956C22.3296 22.3331 22.2704 22.3723 22.2021 22.4131C22.1335 22.4541 22.0566 22.4962 21.971 22.5388L21.97 22.5393C21.6031 22.7221 21.2645 22.8707 20.972 22.999C20.4695 23.2193 20.1057 23.3788 19.9646 23.5523L19.964 23.5532L19.9271 23.5961L19.8917 23.5525C19.7509 23.379 19.3869 23.2192 18.8842 22.9988C18.592 22.8707 18.2535 22.7223 17.887 22.5397C17.6269 22.4102 17.4551 22.291 17.344 22.1888C17.322 22.1687 17.3024 22.1491 17.2849 22.1302C17.172 22.009 17.1427 21.911 17.1427 21.8511V21.2348L17.1425 17.1687C17.1444 17.0928 17.1214 17.0185 17.0771 16.9568L17.0162 16.8807H17.2185L22.638 16.8805L22.72 16.8807ZM22.638 16.9743L17.2185 16.9746L17.195 16.9743C17.2225 17.0355 17.2367 17.1017 17.2366 17.1687V21.2348L17.2365 21.8508C17.2365 21.8932 17.2605 21.9663 17.3536 22.0663C17.3696 22.0835 17.3875 22.1013 17.4076 22.1198C17.5127 22.2163 17.6765 22.3297 17.9281 22.4551C18.2969 22.6387 18.6325 22.7861 18.9217 22.9128C19.4 23.1226 19.7555 23.2785 19.9281 23.4528C20.1007 23.2786 20.4564 23.1226 20.9345 22.913C21.2239 22.786 21.5591 22.639 21.9281 22.4551L21.929 22.4546C22.0145 22.4121 22.089 22.3712 22.154 22.3326C22.2194 22.2936 22.2762 22.2558 22.3255 22.2198C22.568 22.0428 22.6196 21.9146 22.6196 21.8508L22.6199 21.2348L22.6196 17.1687C22.6195 17.1017 22.6337 17.0355 22.6614 16.9743H22.638Z" fill="black"/>
</g>
</g>
</g>
<defs>
<clipPath id="clip0_16699_271336">
<rect width="40" height="40" fill="white"/>
</clipPath>
</defs>
</svg>
