<svg width="40" height="40" viewBox="0 0 40 40" fill="none" xmlns="http://www.w3.org/2000/svg">
<g clip-path="url(#clip0_16699_271783)">
<mask id="mask0_16699_271783" style="mask-type:luminance" maskUnits="userSpaceOnUse" x="0" y="0" width="40" height="40">
<path d="M40 20C40 8.95431 31.0457 0 20 0C8.95431 0 0 8.95431 0 20C0 31.0457 8.95431 40 20 40C31.0457 40 40 31.0457 40 20Z" fill="white"/>
</mask>
<g mask="url(#mask0_16699_271783)">
<mask id="mask1_16699_271783" style="mask-type:luminance" maskUnits="userSpaceOnUse" x="0" y="0" width="54" height="40">
<path d="M0 0H53.3333V40H0V0Z" fill="white"/>
</mask>
<g mask="url(#mask1_16699_271783)">
<path fill-rule="evenodd" clip-rule="evenodd" d="M0 0H53.322V40H0V0Z" fill="#3B5AA3"/>
<path fill-rule="evenodd" clip-rule="evenodd" d="M0 38.9233L53.3253 0L53.3231 7.24292L0 39.9996V38.9229V38.9233Z" fill="#E2AE57"/>
<path fill-rule="evenodd" clip-rule="evenodd" d="M1.8663 39.9984L53.3315 14.935L53.3205 6.97844L-0.000366211 40.0001L1.86597 39.9984L1.8663 39.9984ZM14.6099 1.26361L14.0837 9.82944L11.8329 4.36678L12.6963 10.1814L9.21046 5.48319L11.4955 10.8447L6.91755 7.29336L10.4813 11.7555L5.30613 9.46219L9.83879 12.8947L4.2013 12.1489L9.52879 14.2605L1.1663 15.0255L9.54879 15.5858L4.23697 17.7697L9.81796 17.0145L5.30172 20.3494L10.5426 18.0498L6.96797 22.5489L11.5157 19.1058L9.26271 24.3465L12.903 19.789L11.9177 25.4701L14.2075 20.1618L14.7252 28.5476L15.5327 20.1826L17.507 25.5233L16.7544 19.7685L20.3767 24.33L17.9966 19.0025L22.5425 22.6689L18.9283 18.0914L24.3311 20.3409L19.5495 16.8491L25.3727 17.8308L19.798 15.6896L28.4689 15.1513L19.798 14.3437L25.5052 12.4414L19.5909 13.1842L24.4774 9.76785L18.9698 11.9834L22.7735 7.37219L18.1416 10.9895L20.3705 5.45519L16.775 10.1614L17.5472 4.29219L15.4085 9.8301L14.6095 1.26428L14.6099 1.26361Z" fill="white"/>
</g>
</g>
</g>
<defs>
<clipPath id="clip0_16699_271783">
<rect width="40" height="40" fill="white"/>
</clipPath>
</defs>
</svg>
