<svg width="40" height="40" viewBox="0 0 40 40" fill="none" xmlns="http://www.w3.org/2000/svg">
<g clip-path="url(#clip0_16699_271795)">
<mask id="mask0_16699_271795" style="mask-type:luminance" maskUnits="userSpaceOnUse" x="0" y="0" width="40" height="40">
<path d="M40 0H0V40H40V0Z" fill="white"/>
</mask>
<g mask="url(#mask0_16699_271795)">
<mask id="mask1_16699_271795" style="mask-type:luminance" maskUnits="userSpaceOnUse" x="0" y="0" width="40" height="40">
<path d="M40 20C40 8.95433 31.0457 0 20 0C8.95433 0 0 8.95433 0 20C0 31.0457 8.95433 40 20 40C31.0457 40 40 31.0457 40 20Z" fill="white"/>
</mask>
<g mask="url(#mask1_16699_271795)">
<path d="M-10 0H50V40H-10V0Z" fill="#D82126"/>
<path d="M-10 24V16L50 24V16L-10 24ZM17 0H23L20 15.7143L17 0ZM23 40H17L20 24.2857L23 40ZM-10 0H-1L22.7557 22.2057L-10 0ZM-10 40H-1L22.7557 17.7943L-10 40ZM50 0H41L17.2443 22.2057L50 0ZM50 40H41L17.2443 17.7943L50 40Z" fill="#F8E92E"/>
<path d="M20.0003 27.0761C23.9453 27.0761 27.1431 23.8782 27.1431 19.9333C27.1431 15.9883 23.9453 12.7903 20.0003 12.7903C16.0554 12.7903 12.8574 15.9883 12.8574 19.9333C12.8574 23.8782 16.0554 27.0761 20.0003 27.0761Z" fill="#D82126"/>
<path d="M19.9993 25.648C23.1553 25.648 25.7137 23.0896 25.7137 19.9337C25.7137 16.7778 23.1553 14.2194 19.9993 14.2194C16.8434 14.2194 14.2852 16.7778 14.2852 19.9337C14.2852 23.0896 16.8434 25.648 19.9993 25.648Z" fill="#F8E92E"/>
</g>
</g>
</g>
<defs>
<clipPath id="clip0_16699_271795">
<rect width="40" height="40" fill="white"/>
</clipPath>
</defs>
</svg>
