<svg width="40" height="40" viewBox="0 0 40 40" fill="none" xmlns="http://www.w3.org/2000/svg">
<g clip-path="url(#clip0_16699_271820)">
<mask id="mask0_16699_271820" style="mask-type:luminance" maskUnits="userSpaceOnUse" x="0" y="0" width="40" height="40">
<path d="M40 0H0V40H40V0Z" fill="white"/>
</mask>
<g mask="url(#mask0_16699_271820)">
<mask id="mask1_16699_271820" style="mask-type:luminance" maskUnits="userSpaceOnUse" x="0" y="0" width="40" height="40">
<path d="M40 20C40 8.95433 31.0457 0 20 0C8.95433 0 0 8.95433 0 20C0 31.0457 8.95433 40 20 40C31.0457 40 40 31.0457 40 20Z" fill="white"/>
</mask>
<g mask="url(#mask1_16699_271820)">
<path d="M50 0H-10V40H50V0Z" fill="#FECB00"/>
<path d="M50 13.3333H-10V39.9999H50V13.3333Z" fill="#34B233"/>
<path d="M50 26.6667H-10V40H50V26.6667Z" fill="#EA2839"/>
<path d="M15.2108 21.4067L20.0001 6.66669L24.7893 21.4067H15.2108Z" fill="white"/>
<path d="M23.8746 24.2219L11.3361 33.3318L16.1254 18.5918L23.8746 24.2219Z" fill="white"/>
<path d="M18.5203 25.9613L5.98163 16.8516H21.4802L18.5203 25.9613Z" fill="white"/>
<path d="M18.5203 16.8516H34.0189L21.4803 25.9613L18.5203 16.8516Z" fill="white"/>
<path d="M23.8749 18.5918L28.6643 33.3318L16.1257 24.222L23.8749 18.5918Z" fill="white"/>
</g>
</g>
</g>
<defs>
<clipPath id="clip0_16699_271820">
<rect width="40" height="40" fill="white"/>
</clipPath>
</defs>
</svg>
