<svg width="40" height="40" viewBox="0 0 40 40" fill="none" xmlns="http://www.w3.org/2000/svg">
<g clip-path="url(#clip0_16699_271837)">
<mask id="mask0_16699_271837" style="mask-type:luminance" maskUnits="userSpaceOnUse" x="0" y="0" width="40" height="40">
<path d="M40 0H0V40H40V0Z" fill="white"/>
</mask>
<g mask="url(#mask0_16699_271837)">
<mask id="mask1_16699_271837" style="mask-type:luminance" maskUnits="userSpaceOnUse" x="0" y="0" width="40" height="40">
<path d="M40 20C40 8.95433 31.0457 0 20 0C8.95433 0 0 8.95433 0 20C0 31.0457 8.95433 40 20 40C31.0457 40 40 31.0457 40 20Z" fill="white"/>
</mask>
<g mask="url(#mask1_16699_271837)">
<path d="M-10 -0.332703H50V39.6655H-10V-0.332703Z" fill="#DA2032"/>
<path d="M14 -1H26V40H14V-1Z" fill="#0066B3"/>
<path d="M7.63565 19.6081C8.63916 19.6081 9.45266 18.7945 9.45266 17.791C9.45266 16.7875 8.63916 15.974 7.63565 15.974C6.63212 15.974 5.8186 16.7875 5.8186 17.791C5.8186 18.7945 6.63212 19.6081 7.63565 19.6081Z" fill="#FFD900"/>
<path d="M7.63459 18.9476C8.72934 18.9476 9.61684 18.0601 9.61684 16.9653C9.61684 15.8706 8.72934 14.9831 7.63459 14.9831C6.53983 14.9831 5.65234 15.8706 5.65234 16.9653C5.65234 18.0601 6.53983 18.9476 7.63459 18.9476Z" fill="#DA2032"/>
<path d="M7.63594 18.6163C8.36575 18.6163 8.95742 18.0247 8.95742 17.2948C8.95742 16.565 8.36575 15.9733 7.63594 15.9733C6.9061 15.9733 6.31445 16.565 6.31445 17.2948C6.31445 18.0247 6.9061 18.6163 7.63594 18.6163Z" fill="#FFD900"/>
<path d="M7.77297 13.0004C7.60878 13.0749 7.54743 13.2092 7.53421 13.343C7.52595 13.4557 7.57567 13.5826 7.58063 13.6928C7.58063 13.8824 7.38445 13.9448 7.38445 14.2154C7.38445 14.3084 7.47035 14.4109 7.47035 14.6523C7.45548 14.779 7.38478 14.8076 7.30516 14.8175C7.26135 14.8175 7.21934 14.8001 7.18836 14.7691C7.15738 14.7381 7.13998 14.6961 7.13998 14.6523C7.1401 14.6099 7.15648 14.5692 7.18573 14.5386C7.19095 14.5327 7.19658 14.5272 7.20258 14.5221C7.24025 14.4841 7.29195 14.4694 7.29162 14.3691C7.29162 14.3176 7.25825 14.2707 7.22637 14.1794C7.19631 14.0909 7.21811 13.9429 7.28964 13.8555C7.17401 13.9001 7.10274 14.011 7.0664 14.1104C7.02808 14.2326 7.06145 14.303 7.00892 14.4046C6.97687 14.4704 6.93871 14.4976 6.90254 14.5525C6.85976 14.6123 6.80954 14.7521 6.80954 14.817C6.80954 15.0361 6.89656 15.2462 7.05145 15.4011C7.20634 15.5559 7.41642 15.643 7.63547 15.643C7.85452 15.643 8.0646 15.5559 8.21949 15.4011C8.37442 15.2462 8.46142 15.0361 8.46142 14.817C8.46142 14.7521 8.41183 14.6123 8.36908 14.5525C8.33289 14.4976 8.29407 14.4704 8.26202 14.4046C8.21015 14.303 8.24352 14.2326 8.2052 14.1104C8.16886 14.011 8.0975 13.9002 7.98193 13.8555C8.05346 13.9429 8.07526 14.0909 8.0452 14.1794C8.01315 14.2706 7.97945 14.3175 7.97945 14.3691C7.97945 14.4694 8.03083 14.4841 8.06849 14.5221C8.07449 14.5272 8.08012 14.5327 8.08534 14.5386C8.1146 14.5692 8.13098 14.6099 8.1311 14.6523C8.1311 14.6961 8.11369 14.7381 8.08271 14.7691C8.05174 14.8001 8.00972 14.8175 7.96591 14.8175C7.87456 14.8059 7.80898 14.7633 7.80072 14.6523C7.80072 14.3343 7.93684 14.314 7.93684 14.0787C7.93684 13.7426 7.6355 13.5836 7.6355 13.3379C7.6355 13.2546 7.65503 13.1131 7.77297 13.0004ZM4 19.9382H5.65186V27.8672H4V19.9382ZM9.61633 19.9382H11.2682V27.8672H9.61633V19.9382ZM5.98224 19.9382H9.286L7.6341 20.9294L5.98224 19.9382ZM5.98224 21.2597H9.286V21.9205H5.98224V21.2597ZM5.98224 25.885H9.286V26.5457H5.98224V25.885ZM5.98224 26.8761H9.286L7.6341 27.8672L5.98224 26.8761Z" fill="#FFD900"/>
<path d="M7.63429 25.555C8.54658 25.555 9.28616 24.8154 9.28616 23.9031C9.28616 22.9908 8.54658 22.2513 7.63429 22.2513C6.72199 22.2513 5.98242 22.9908 5.98242 23.9031C5.98242 24.8154 6.72199 25.555 7.63429 25.555Z" fill="#FFD900"/>
<path d="M7.63506 23.3573C7.81752 23.3573 7.96543 23.2094 7.96543 23.027C7.96543 22.8445 7.81752 22.6966 7.63506 22.6966C7.4526 22.6966 7.30469 22.8445 7.30469 23.027C7.30469 23.2094 7.4526 23.3573 7.63506 23.3573Z" fill="#DA2032"/>
<path d="M7.63506 25.108C7.81752 25.108 7.96543 24.9601 7.96543 24.7776C7.96543 24.5952 7.81752 24.4473 7.63506 24.4473C7.4526 24.4473 7.30469 24.5952 7.30469 24.7776C7.30469 24.9601 7.4526 25.108 7.63506 25.108Z" fill="#DA2032"/>
<path d="M7.63476 22.0521C7.89323 22.0521 8.14112 22.1547 8.3239 22.3376C8.50667 22.5204 8.60933 22.7682 8.60933 23.0266C8.60933 23.2851 8.50667 23.5331 8.3239 23.7159C8.14112 23.8986 7.89323 24.0012 7.63476 24.0012C7.42885 24.0012 7.23136 24.0831 7.08577 24.2286C6.94017 24.3742 6.85837 24.5717 6.85837 24.7776C6.85837 24.9836 6.94017 25.1811 7.08577 25.3266C7.23136 25.4722 7.42885 25.5541 7.63476 25.5541V25.7522C7.37627 25.7522 7.12837 25.6496 6.94561 25.4669C6.76283 25.2841 6.66016 25.0361 6.66016 24.7776C6.66016 24.5191 6.76283 24.2712 6.94561 24.0886C7.12837 23.9057 7.37627 23.8031 7.63476 23.8031C7.84066 23.8031 8.03813 23.7212 8.18373 23.5756C8.32933 23.4301 8.41116 23.2326 8.41116 23.0266C8.41116 22.8207 8.32933 22.6234 8.18373 22.4777C8.03813 22.3321 7.84066 22.2504 7.63476 22.2504V22.0521Z" fill="#DA2032"/>
</g>
</g>
</g>
<defs>
<clipPath id="clip0_16699_271837">
<rect width="40" height="40" fill="white"/>
</clipPath>
</defs>
</svg>
