<svg width="40" height="40" viewBox="0 0 40 40" fill="none" xmlns="http://www.w3.org/2000/svg">
<g clip-path="url(#clip0_16739_279618)">
<mask id="mask0_16739_279618" style="mask-type:luminance" maskUnits="userSpaceOnUse" x="-7" y="0" width="54" height="40">
<path d="M-6.66663 0H46.6667V40H-6.66663V0Z" fill="white"/>
</mask>
<g mask="url(#mask0_16739_279618)">
<mask id="mask1_16739_279618" style="mask-type:luminance" maskUnits="userSpaceOnUse" x="-7" y="0" width="54" height="40">
<path d="M-6.66663 0H46.6667V40H-6.66663V0Z" fill="white"/>
</mask>
<g mask="url(#mask1_16739_279618)">
<path fill-rule="evenodd" clip-rule="evenodd" d="M-20 0H60V40H-20V0Z" fill="#0071BC"/>
<path fill-rule="evenodd" clip-rule="evenodd" d="M24.1606 30.4717C24.1606 30.4717 25.4291 29.1301 26.6489 29.3862C27.0149 27.9712 28.3932 27.8614 28.3932 27.8614C28.3932 27.8614 28.2591 26.3001 30.0278 25.9586C30.0766 24.8973 31.1501 24.0191 31.1501 24.0191C31.1501 24.0191 30.9305 22.3724 32.0527 21.9942C31.3696 20.6891 32.2844 19.7376 32.2722 19.7132C32.2601 19.6888 31.1135 17.6517 32.1381 17.0662C31.0525 16.1514 31.4062 15.1146 31.4062 15.1146C31.4062 15.1146 30.2229 14.8096 30.6499 13.3946C29.6741 13.2238 29.4789 11.6503 29.4789 11.6503C29.4789 11.6503 27.9786 11.9552 27.7956 10.65C26.8076 10.8086 26.6977 9.83282 26.6856 9.83282C26.6734 9.83282 24.7216 10.3573 24.3314 8.88132C23.5751 9.27166 23.2457 8.57632 23.2457 8.57632C23.2457 8.57632 22.1601 9.11307 21.5136 8.07632C20.2206 8.88132 19.501 8.03966 19.501 8.03966C19.501 8.03966 17.8055 9.16191 17.2443 8.29582C16.2441 9.30832 15.3536 8.86916 15.3536 8.86916C15.3536 8.86916 14.5974 10.2108 13.3776 9.86932C13.0971 11.1135 11.6942 11.1379 11.6942 11.1379C11.6942 11.1379 11.8406 12.2357 10.1573 12.5285C9.9378 13.8215 9.05955 14.041 9.05955 14.041C9.05955 14.041 9.14489 15.2975 8.35205 15.6999C8.63255 16.4074 7.90072 17.2735 7.90072 17.2735C7.90072 17.2735 8.68139 18.2493 7.62014 19.3472C8.6448 19.6155 7.90072 21.3842 7.90072 21.3842C7.90072 21.3842 9.31572 22.0185 8.42522 23.1895C9.43772 23.5189 9.12047 24.3239 9.13272 24.7997C9.77922 25.0924 10.3525 24.9461 10.072 26.2512C12.0603 26.4708 11.121 27.5687 11.121 27.5687C11.121 27.5687 12.048 27.6052 11.6821 28.3372C13.3776 28.3005 13.6216 29.6057 13.6216 29.6057C13.6216 29.6057 15.1951 29.191 15.4026 29.8009C15.6099 30.4108 14.7195 34.5215 14.7195 34.5215C14.7195 34.5215 13.3899 34.5215 12.4018 33.4603C10.0843 33.3993 10.5966 31.8746 10.5599 31.8746C10.5233 31.8746 9.79139 32.1552 9.41322 30.8866C7.86405 31.2037 7.91289 29.8986 7.90072 29.8864C7.88855 29.8742 7.20547 29.5692 7.46155 28.9227C5.86372 29.0691 5.98572 27.5077 5.98572 27.5077C5.63597 27.3655 5.50589 27.0402 5.55872 26.7149C5.35139 26.6417 3.93639 26.6174 4.6683 24.7511C3.3143 23.9338 4.15597 22.9946 4.15597 22.9946C4.15597 22.9946 2.28964 22.031 3.72905 20.921C2.65555 19.3352 3.81439 18.5424 3.81439 18.5424C3.81439 18.5424 2.32622 17.0298 3.8388 15.9564C3.59489 13.6632 4.96105 13.1142 4.96105 13.1142C4.96105 13.1142 4.24139 11.248 6.19305 10.4672C6.31497 8.57657 7.68122 8.52782 7.68122 8.52782C7.68122 8.52782 7.71781 7.02741 9.86464 7.17382C10.2794 5.83216 11.7431 6.10049 11.7431 6.10049C11.7431 6.10049 12.1945 4.47807 14.1827 5.25882C15.1952 3.28266 16.6956 4.29507 16.6956 4.29507C16.6956 4.29507 17.647 3.67299 18.1227 3.86816C18.7268 2.83007 20.0127 3.82791 20.8444 4.02882C21.1456 3.91166 22.2212 3.09966 23.0507 4.12432C24.1486 3.40466 25.0878 4.69766 25.0878 4.69766C25.0878 4.69766 26.6003 3.92932 27.3078 5.68566C30.516 5.39291 30.0524 7.49099 30.0524 7.49099C30.0524 7.49099 32.5774 6.91766 32.0285 9.43041C34.3217 9.58899 34.09 11.1016 34.09 11.1016C34.09 11.1016 35.5415 12.1994 34.9071 13.1874C36.2001 13.2484 35.7244 14.4926 35.7244 14.4926C35.7244 14.4926 36.7124 14.8707 35.8952 16.4077C37.7858 17.9202 36.2611 19.4207 36.2489 19.4085C36.2367 19.3962 37.2614 20.6282 36.3343 22.0432C36.6149 24.2877 35.4805 24.861 35.4805 24.861C35.4805 24.861 35.7732 26.3126 34.5046 26.7273C34.4802 28.435 32.8701 28.6424 32.8701 28.6424C32.8701 28.6424 33.2971 29.3842 31.6991 30.1649C31.6361 31.3076 29.967 31.3992 29.967 31.3992C29.967 31.3992 29.8084 33.4972 27.6859 32.9362C27.1708 34.6195 24.6852 34.1193 24.6365 34.0949C24.5876 34.0705 24.1607 30.4843 24.1607 30.4721L24.1606 30.4717Z" fill="white" stroke="black" stroke-width="0.15475"/>
<path fill-rule="evenodd" clip-rule="evenodd" d="M8.74501 10.3403C8.75118 10.3403 9.28293 10.8014 9.18368 11.4965C9.08434 12.1915 8.68293 13.1578 8.76368 13.8776C8.81293 14.1662 8.79426 14.6833 8.79426 14.6833C8.79426 14.6833 8.31226 13.9983 8.30601 13.266C8.29976 12.5337 8.82801 11.8384 8.82801 11.2985C8.82801 10.7586 8.73259 10.3279 8.74501 10.3403ZM8.48101 10.5477C8.48101 10.5477 7.78326 11.2138 7.69343 11.8611C7.62701 12.1948 7.60126 13.7496 7.59343 14.4397C7.57776 14.6513 7.49009 15.4872 7.47143 15.7912C7.45276 16.0953 7.98468 15.2721 8.01509 14.6018C7.99843 13.9081 7.99843 12.4468 8.06893 12.2272C8.13168 11.9449 8.11809 11.633 8.21509 11.3498C8.34343 10.9569 8.48726 10.5538 8.48101 10.5477Z" fill="#217900" stroke="black" stroke-width="0.15475" stroke-linejoin="round"/>
<path fill-rule="evenodd" clip-rule="evenodd" d="M23.8304 8.3711C23.8304 8.3711 24.7351 7.95376 24.9937 7.17651C25.2524 6.39926 24.2107 6.39184 24.0732 6.63893C23.9356 6.88593 24.1905 7.50101 24.1248 7.66359C24.0592 7.82626 23.6912 8.21876 23.8304 8.3711Z" fill="#FFD200" stroke="#EF8A10" stroke-width="0.154833"/>
<path fill-rule="evenodd" clip-rule="evenodd" d="M15.8121 8.65458C15.8121 8.65458 16.3994 7.84983 16.2471 7.04491C16.0948 6.24016 15.1812 6.74041 15.1812 7.02324C15.1812 7.30599 15.7033 7.71924 15.7251 7.89324C15.7467 8.06724 15.6163 8.58933 15.8121 8.65458ZM14.2242 9.13324C14.2242 9.13324 14.8116 8.32841 14.6592 7.52358C14.507 6.71874 13.5934 7.21899 13.5934 7.50183C13.5934 7.78458 14.1155 8.19783 14.1372 8.37183C14.159 8.54591 14.0285 9.06799 14.2242 9.13324ZM12.4625 9.67699C12.4625 9.67699 13.0497 8.87216 12.8975 8.06733C12.7452 7.26249 11.8317 7.76274 11.8317 8.04558C11.8317 8.32833 12.3537 8.74158 12.3754 8.91558C12.3972 9.08966 12.2667 9.61166 12.4624 9.67691L12.4625 9.67699ZM11.2227 10.9167C11.2227 10.9167 11.8099 10.112 11.6577 9.30708C11.5054 8.50233 10.5918 9.00258 10.5918 9.28541C10.5918 9.56808 11.1138 9.98141 11.1357 10.1554C11.1573 10.3294 11.0268 10.8515 11.2227 10.9167ZM9.91749 12.1132C9.91749 12.1132 10.5048 11.3083 10.3525 10.5035C10.2003 9.69866 9.28674 10.1989 9.28674 10.4817C9.28674 10.7645 9.80874 11.1777 9.83049 11.3517C9.85224 11.5258 9.72174 12.0478 9.91758 12.1131L9.91749 12.1132Z" fill="#FFD200" stroke="#EF8A10" stroke-width="0.206417"/>
<path fill-rule="evenodd" clip-rule="evenodd" d="M12.9181 5.14391C12.9181 5.14391 12.1361 5.76108 12.0663 6.57724C11.9966 7.39333 13.011 7.15716 13.087 6.88474C13.1631 6.61241 12.7714 6.07391 12.7972 5.90058C12.8231 5.72708 13.0892 5.25933 12.9181 5.14391ZM15.5283 4.33899C15.5283 4.33899 14.7462 4.95624 14.6765 5.77233C14.6067 6.58841 15.6211 6.35224 15.6972 6.07983C15.7732 5.80749 15.3816 5.26899 15.4074 5.09566C15.4332 4.92216 15.6994 4.45449 15.5283 4.33899ZM5.80139 11.3852C5.80139 11.3852 5.96655 12.3677 6.64864 12.8213C7.33072 13.2748 7.6113 12.2717 7.40905 12.0742C7.2068 11.8766 6.54639 11.9611 6.40672 11.855C6.26705 11.749 5.98489 11.2908 5.80139 11.3852ZM4.4978 14.7213C4.4978 14.7213 4.50589 15.7177 5.1078 16.2732C5.7098 16.8286 6.14522 15.8824 5.97664 15.6553C5.80805 15.4282 5.14255 15.4076 5.02139 15.2808C4.90022 15.154 4.69389 14.6571 4.4978 14.7213ZM7.5053 18.4484C7.5053 18.4484 7.14972 17.5177 6.39164 17.2075C5.63355 16.8972 5.55614 17.9359 5.7933 18.0898C6.03064 18.2437 6.66139 18.0307 6.81922 18.1071C6.97705 18.1836 7.34405 18.5771 7.5053 18.4484ZM6.88055 16.8377C6.88055 16.8377 7.48339 16.0445 7.3468 15.2369C7.21022 14.4292 6.28714 14.9117 6.28164 15.1944C6.27614 15.4771 6.78997 15.9004 6.8083 16.0748C6.82664 16.2492 6.68605 16.7687 6.88055 16.8377ZM25.6791 9.17583C25.6791 9.17583 26.5838 8.75849 26.8424 7.98133C27.101 7.20416 26.0595 7.19658 25.9218 7.44366C25.7843 7.69066 26.0392 8.30574 25.9735 8.46841C25.9078 8.63091 25.5398 9.02349 25.6791 9.17583H25.6791ZM28.4146 10.5403C28.4146 10.5403 28.9467 9.69808 28.741 8.90516C28.5351 8.11233 27.6571 8.67266 27.6761 8.95474C27.695 9.23691 28.2435 9.61433 28.2769 9.78649C28.3102 9.95866 28.2149 10.4882 28.4146 10.5403ZM35.8817 18.2925C35.8817 18.2925 35.5249 17.3623 34.7664 17.0531C34.0079 16.7439 33.9319 17.7827 34.1693 17.9362C34.4068 18.0898 35.0373 17.8759 35.1952 17.9521C35.3531 18.0284 35.7206 18.4215 35.8817 18.2925ZM32.2303 18.8702C32.2303 18.8702 32.251 17.8742 32.8599 17.3262C33.4688 16.7784 33.8922 17.73 33.7208 17.955C33.5494 18.1798 32.8837 18.1922 32.7609 18.3174C32.6381 18.4426 32.4256 18.937 32.2303 18.8702ZM31.6428 8.30699C31.6428 8.30699 30.7115 7.95324 29.9755 8.31274C29.2395 8.67224 29.9634 9.42108 30.2361 9.34641C30.5088 9.27166 30.7695 8.65908 30.9316 8.59208C31.0937 8.52516 31.6316 8.51308 31.6429 8.30708L31.6428 8.30699ZM29.5116 6.52333C29.5116 6.52333 28.5801 6.16949 27.8442 6.52899C27.1082 6.88858 27.8321 7.63741 28.1048 7.56274C28.3776 7.48799 28.6381 6.87533 28.8003 6.80841C28.9624 6.74141 29.5003 6.72941 29.5116 6.52333ZM26.3333 4.82249C26.3333 4.82249 25.5438 5.42999 25.464 6.24516C25.3842 7.06041 26.4015 6.83666 26.4808 6.56524C26.5602 6.29383 26.1752 5.75066 26.2031 5.57749C26.2311 5.40441 26.503 4.93999 26.3334 4.82241L26.3333 4.82249ZM24.2633 4.32449C24.2633 4.32449 23.9033 5.25349 24.2578 5.99183C24.6123 6.73016 25.3661 6.01149 25.2932 5.73824C25.2203 5.46491 24.6095 5.20016 24.5436 5.03766C24.4777 4.87516 24.4694 4.33708 24.2633 4.32449ZM18.3929 7.90424C18.3929 7.90424 19.0369 7.14416 18.9433 6.33041C18.8497 5.51666 17.9024 5.94941 17.8819 6.23149C17.8614 6.51349 18.3521 6.96349 18.3612 7.13866C18.3704 7.31374 18.2023 7.82499 18.3929 7.90424Z" fill="#FFD200" stroke="#EF8A10" stroke-width="0.154833"/>
<path fill-rule="evenodd" clip-rule="evenodd" d="M21.898 9.53599C21.898 9.53599 23.4418 9.63316 23.5174 10.5184C23.593 11.4037 23.1503 11.9434 23.1503 11.9434C23.1503 11.9434 23.3446 13.8544 21.8332 14.4157C20.2138 14.6101 17.6768 14.459 17.6768 14.459C17.6768 14.459 16.9318 14.6425 16.6296 13.0987C16.3273 11.5549 16.241 10.4645 16.241 10.4645C16.241 10.4645 16.3921 9.60074 17.4825 9.54683C18.5729 9.49283 21.8872 9.55766 21.8981 9.53599H21.898Z" fill="#8C8A8C" stroke="black" stroke-width="0.15475"/>
<path d="M23.1395 11.9327C23.1395 11.9327 22.3081 12.9692 22.3945 13.3902Z" fill="black"/>
<path d="M23.1395 11.9327C23.1395 11.9327 22.3081 12.9692 22.3945 13.3902" stroke="black" stroke-width="0.15475" stroke-linecap="round"/>
<path fill-rule="evenodd" clip-rule="evenodd" d="M22.0277 14.3614C22.2329 14.5342 22.4271 14.7285 22.4704 15.3655L22.5567 16.6394L23.6363 26.3557L24.5863 33.3839L24.6511 34.4743C24.6511 34.4743 24.4244 35.2732 23.7874 35.3379C23.3233 36.3096 20.8078 36.5903 20.5594 36.5795C20.3328 36.5687 19.5338 36.234 19.0479 36.2772C18.5621 36.3203 17.72 36.6443 17.3422 36.5903C16.9644 36.5363 16.1115 36.2448 15.9604 35.6294C14.9024 35.2948 14.7296 34.4851 14.7296 34.4851L15.874 26.3556L16.9859 16.0781C16.9859 16.0781 17.1155 14.707 17.6661 14.5018C18.2383 14.4478 21.1964 14.5558 22.0276 14.3615L22.0277 14.3614Z" fill="#8C8A8C" stroke="black" stroke-width="0.15475"/>
<path d="M16.1979 28.4289L15.9712 35.619ZM23.183 29.3789L23.82 35.3059Z" fill="black"/>
<path d="M16.1979 28.4289L15.9712 35.619M23.183 29.3789L23.82 35.3059" stroke="black" stroke-width="0.15475"/>
<path d="M4.71434 24.6927L4.69067 24.7756ZM34.581 24.4323L34.6047 24.5153Z" fill="black"/>
<path d="M4.71434 24.6927L4.69067 24.7756M34.581 24.4323L34.6047 24.5153" stroke="black" stroke-width="0.0806667"/>
<path d="M3.91381 14.9858C3.91381 14.9858 4.38672 15.6408 4.47164 16.0167C4.55656 16.3927 4.71414 17.1325 4.92039 17.4357C5.12656 17.7388 6.30298 19.4247 6.36364 20.128C6.37573 20.5888 5.87847 21.3772 5.13864 21.3893C4.67781 21.3772 3.48931 21.074 3.44073 20.0552C3.39223 19.0364 3.80456 19.0122 3.85314 18.3937C3.90164 17.7752 3.91372 14.9979 3.91372 14.9857L3.91381 14.9858Z" fill="black" stroke="#6B18B5" stroke-width="0.15475" stroke-linejoin="round"/>
<path d="M12.0389 6.06783C12.0389 6.06783 11.5492 6.10283 11.1722 6.30716C10.8801 6.48716 10.3853 6.74633 10.0396 7.22583C9.16006 7.91141 7.83706 8.23133 7.41973 8.80083C7.16998 9.18833 7.18531 10.1203 7.81115 10.515C8.21123 10.7441 9.38431 11.1025 9.95498 10.2572C10.5257 9.41183 10.186 9.17691 10.4658 8.62316C10.9276 7.354 12.0326 6.07817 12.0389 6.06783ZM23.9177 4.83066C23.9177 4.83066 23.5519 4.50316 23.1429 4.3745C22.8103 4.28991 22.2564 4.32675 21.6832 4.2705C20.579 4.1155 19.4405 3.317 18.7411 3.41341C18.289 3.50341 17.6301 4.16283 17.7819 4.887C17.8956 5.33367 18.3953 6.23725 19.3996 6.05933C20.4038 5.88133 20.3951 5.66225 20.9876 5.47816C22.4326 4.66783 23.9059 4.83333 23.9177 4.83066ZM35.6978 16.2803C35.7803 16.0919 35.6285 15.7377 35.5206 15.3227C35.4159 14.9958 35.2596 14.4886 34.8772 14.0377C34.4229 13.0193 34.5008 11.6229 34.0481 11.081C33.732 10.7455 32.8236 10.5366 32.2902 11.0493C31.9717 11.3827 31.3421 12.4353 32.0256 13.1923C32.7091 13.9493 33.007 13.6642 33.4773 14.0688C34.5985 14.822 35.1476 16.1422 35.6978 16.2803ZM35.2961 25.1763C35.4492 24.9643 35.7233 24.5558 35.6907 24.2155C35.6649 23.9461 35.8142 23.1291 35.8306 22.7726C35.9319 21.6621 36.627 20.7607 36.438 19.7959C36.3261 19.3487 35.6711 18.7107 34.9551 18.8973C34.5144 19.0326 33.5331 19.5726 33.7593 20.567C33.9857 21.5615 34.3071 21.545 34.5196 22.1278C35.1296 23.3328 34.7392 24.7642 35.2961 25.1762V25.1763Z" fill="black" stroke="#6B18B5" stroke-width="0.0806667" stroke-linejoin="round"/>
<path d="M27.1238 32.2362C27.1238 32.2362 26.9355 32.5982 27.6885 32.9168ZM28.63 31.3819C28.63 31.3819 29.4699 31.1792 30.0346 31.3819ZM31.1349 29.2673C31.1349 29.2818 31.019 29.6438 31.6851 30.165ZM31.6128 28.3267C31.6128 28.3267 32.1051 28.6887 32.9305 28.6742ZM26.6459 29.3833C26.6459 29.3833 26.6749 30.3389 26.1825 30.7878ZM28.2965 27.906C28.2965 27.906 29.1073 28.1088 29.7735 27.7757ZM33.4954 26.502C33.4954 26.502 33.6691 26.7482 34.567 26.7048ZM29.9912 25.9371C30.0202 25.9516 31.0483 26.2846 31.7 25.9806ZM32.0472 21.9985C32.0472 21.9985 32.0905 21.9406 32.4092 23.0556ZM32.8434 18.8563C32.8434 18.8563 32.8 19.4499 32.3221 19.7106ZM35.8987 16.4232C35.8987 16.4232 35.2037 16.9879 35.3339 17.2196ZM32.438 16.0178C32.438 16.0178 32.8 16.626 32.2064 17.0459ZM30.6859 13.4114C30.6859 13.4114 31.3086 13.3825 31.5838 13.9183ZM29.5134 11.6448H29.9912ZM31.9892 9.47293C31.9892 9.48735 32.1195 9.60318 31.8734 9.84935ZM27.5437 9.53085C27.5437 9.53085 27.8767 10.0522 27.8188 10.6893ZM29.4698 7.76418C29.6146 7.74968 30.1069 7.53251 30.1069 7.53251ZM27.3269 5.69343C27.3124 5.69343 27.1385 6.34509 27.4572 6.57676ZM26.5299 8.66201C26.5299 9.35701 27.0801 9.18326 26.7036 9.84935ZM25.1831 8.08268C25.1687 8.08268 24.3144 8.74876 24.3144 8.86459ZM22.9531 7.72076C22.9531 7.72076 23.3151 8.08276 23.2283 8.57509ZM21.8965 7.43109C21.8965 7.43109 21.7083 7.98134 21.4621 8.12609ZM19.9704 7.28626C19.956 7.31526 19.6663 7.93793 19.4636 8.05376ZM17.335 7.30084C17.3495 7.30084 17.6246 7.88001 17.2626 8.30001ZM16.7266 4.30334C16.741 4.31776 16.7845 4.75218 16.5094 5.12868ZM14.1202 5.28801C14.1202 5.30243 14.236 5.78034 13.4685 5.93968ZM12.6437 9.70418C12.6582 9.73318 13.3822 9.84901 13.3822 9.84901ZM10.8336 11.3845C10.8481 11.37 11.717 11.1094 11.717 11.1094ZM9.42887 12.4702C9.45787 12.4702 10.037 12.5715 10.1819 12.4991ZM9.02353 13.0061C9.02353 13.0061 9.21178 13.1074 9.05245 14.0776ZM6.19962 10.4577L6.54712 10.979ZM5.01245 13.1367C5.01245 13.1221 5.35995 13.6578 5.82328 13.7592ZM7.74937 15.859C7.76378 15.859 8.31403 15.7432 8.40103 15.6853ZM7.50278 17.8279C7.51728 17.8279 7.48828 17.4659 7.9372 17.2198ZM6.90887 18.7258C6.90887 18.7402 7.32878 19.2615 7.61837 19.3339ZM6.66295 19.725C6.70645 19.7106 7.15528 19.3196 7.67662 19.3485ZM6.51795 21.0717C6.51795 21.0717 6.53245 21.5207 7.86462 21.4048ZM6.64845 22.6498C6.64845 22.6353 7.03945 21.752 7.83587 21.4189ZM7.72037 23.7797C7.72037 23.7797 7.8362 23.4032 8.5022 23.1425ZM8.45862 25.2707C8.45862 25.2707 8.93645 24.8797 9.1102 24.8218ZM9.05253 26.4295C9.05253 26.4295 9.34212 26.7337 10.0661 26.2123ZM5.56212 26.6753C5.64903 26.6608 6.70603 26.4148 7.06812 26.965ZM5.98278 27.5442C5.98278 27.5442 7.09778 27.3993 7.24253 27.5152ZM9.96478 27.7762C9.96478 27.7762 9.82003 28.0803 11.1956 27.5735ZM11.6734 28.3267C11.4272 28.7466 11.7313 29.0796 11.4127 29.2678ZM7.48828 28.9053C7.5317 28.8764 7.99512 28.7171 7.9227 28.051ZM7.90812 29.9047C7.96612 29.8902 8.73353 29.5572 8.89287 29.7309ZM9.41437 30.875C9.41437 30.875 9.51578 30.1944 9.73295 30.122ZM10.5725 31.9026C10.5725 31.9026 11.2097 31.8881 11.4849 31.6854ZM11.8032 29.6008C11.8177 29.6153 12.3969 29.9193 13.6277 29.6153ZM12.2666 32.366C12.2666 32.366 12.4404 33.2493 12.4259 33.4521Z" fill="black"/>
<path d="M27.1238 32.2362C27.1238 32.2362 26.9355 32.5982 27.6885 32.9168M28.63 31.3819C28.63 31.3819 29.4699 31.1792 30.0346 31.3819M31.1349 29.2673C31.1349 29.2818 31.019 29.6438 31.6851 30.165M31.6128 28.3267C31.6128 28.3267 32.1051 28.6887 32.9305 28.6742M26.6459 29.3833C26.6459 29.3833 26.6749 30.3389 26.1825 30.7878M28.2965 27.906C28.2965 27.906 29.1073 28.1088 29.7735 27.7757M33.4954 26.502C33.4954 26.502 33.6691 26.7482 34.567 26.7048M29.9912 25.9371C30.0202 25.9516 31.0483 26.2846 31.7 25.9806M32.0472 21.9985C32.0472 21.9985 32.0905 21.9406 32.4092 23.0556M32.8434 18.8563C32.8434 18.8563 32.8 19.4499 32.3221 19.7106M35.8987 16.4232C35.8987 16.4232 35.2037 16.9879 35.3339 17.2196M32.438 16.0178C32.438 16.0178 32.8 16.626 32.2064 17.0459M30.6859 13.4114C30.6859 13.4114 31.3086 13.3825 31.5838 13.9183M29.5134 11.6448H29.9912M31.9892 9.47293C31.9892 9.48735 32.1195 9.60318 31.8734 9.84935M27.5437 9.53085C27.5437 9.53085 27.8767 10.0522 27.8188 10.6893M29.4698 7.76418C29.6146 7.74968 30.1069 7.53251 30.1069 7.53251M27.3269 5.69343C27.3124 5.69343 27.1385 6.34509 27.4572 6.57676M26.5299 8.66201C26.5299 9.35701 27.0801 9.18326 26.7036 9.84935M25.1831 8.08268C25.1687 8.08268 24.3144 8.74876 24.3144 8.86459M22.9531 7.72076C22.9531 7.72076 23.3151 8.08276 23.2283 8.57509M21.8965 7.43109C21.8965 7.43109 21.7083 7.98134 21.4621 8.12609M19.9704 7.28626C19.956 7.31526 19.6663 7.93793 19.4636 8.05376M17.335 7.30084C17.3495 7.30084 17.6246 7.88001 17.2626 8.30001M16.7266 4.30334C16.741 4.31776 16.7845 4.75218 16.5094 5.12868M14.1202 5.28801C14.1202 5.30243 14.236 5.78034 13.4685 5.93968M12.6437 9.70418C12.6582 9.73318 13.3822 9.84901 13.3822 9.84901M10.8336 11.3845C10.8481 11.37 11.717 11.1094 11.717 11.1094M9.42887 12.4702C9.45787 12.4702 10.037 12.5715 10.1819 12.4991M9.02353 13.0061C9.02353 13.0061 9.21178 13.1074 9.05245 14.0776M6.19962 10.4577L6.54712 10.979M5.01245 13.1367C5.01245 13.1221 5.35995 13.6578 5.82328 13.7592M7.74937 15.859C7.76378 15.859 8.31403 15.7432 8.40103 15.6853M7.50278 17.8279C7.51728 17.8279 7.48828 17.4659 7.9372 17.2198M6.90887 18.7258C6.90887 18.7402 7.32878 19.2615 7.61837 19.3339M6.66295 19.725C6.70645 19.7106 7.15528 19.3196 7.67662 19.3485M6.51795 21.0717C6.51795 21.0717 6.53245 21.5207 7.86462 21.4048M6.64845 22.6498C6.64845 22.6353 7.03945 21.752 7.83587 21.4189M7.72037 23.7797C7.72037 23.7797 7.8362 23.4032 8.5022 23.1425M8.45862 25.2707C8.45862 25.2707 8.93645 24.8797 9.1102 24.8218M9.05253 26.4295C9.05253 26.4295 9.34212 26.7337 10.0661 26.2123M5.56212 26.6753C5.64903 26.6608 6.70603 26.4148 7.06812 26.965M5.98278 27.5442C5.98278 27.5442 7.09778 27.3993 7.24253 27.5152M9.96478 27.7762C9.96478 27.7762 9.82003 28.0803 11.1956 27.5735M11.6734 28.3267C11.4272 28.7466 11.7313 29.0796 11.4127 29.2678M7.48828 28.9053C7.5317 28.8764 7.99512 28.7171 7.9227 28.051M7.90812 29.9047C7.96612 29.8902 8.73353 29.5572 8.89287 29.7309M9.41437 30.875C9.41437 30.875 9.51578 30.1944 9.73295 30.122M10.5725 31.9026C10.5725 31.9026 11.2097 31.8881 11.4849 31.6854M11.8032 29.6008C11.8177 29.6153 12.3969 29.9193 13.6277 29.6153M12.2666 32.366C12.2666 32.366 12.4404 33.2493 12.4259 33.4521" stroke="black" stroke-width="0.15475"/>
<path fill-rule="evenodd" clip-rule="evenodd" d="M34.5052 18.7841C34.4691 18.4927 34.3287 18.2368 34.1371 18.1127C33.9454 17.9886 33.7317 18.0153 33.5767 18.1827C33.4217 18.3501 33.3483 18.6328 33.3851 18.9241C33.4212 19.2155 33.5616 19.4713 33.7532 19.5956C33.9447 19.7197 34.1584 19.6929 34.3136 19.5255C34.4687 19.3581 34.5419 19.0754 34.5052 18.7841Z" fill="#DE2010" stroke="black" stroke-width="0.203417"/>
<path fill-rule="evenodd" clip-rule="evenodd" d="M34.3854 17.3131C34.3493 17.0218 34.2089 16.7658 34.0173 16.6417C33.8257 16.5176 33.6119 16.5443 33.4569 16.7118C33.3019 16.8791 33.2286 17.1618 33.2653 17.4532C33.3014 17.7445 33.4418 18.0004 33.6334 18.1246C33.825 18.2487 34.0387 18.2219 34.1938 18.0545C34.3489 17.8872 34.4222 17.6044 34.3854 17.3131Z" fill="#DE2010" stroke="black" stroke-width="0.203417"/>
<path fill-rule="evenodd" clip-rule="evenodd" d="M34.0866 15.742C34.025 15.4549 33.8627 15.2123 33.661 15.1055C33.459 14.9987 33.2485 15.0442 33.1089 15.2245C32.9691 15.4048 32.921 15.6929 32.9831 15.9799C33.0447 16.2669 33.207 16.5095 33.4088 16.6164C33.6105 16.7232 33.821 16.6777 33.9609 16.4973C34.1007 16.317 34.1488 16.0289 34.0866 15.742Z" fill="#DE2010" stroke="black" stroke-width="0.203417"/>
<path fill-rule="evenodd" clip-rule="evenodd" d="M33.5419 14.0998C33.4092 13.8379 33.1904 13.6448 32.9681 13.5928C32.7457 13.5412 32.5537 13.6387 32.4645 13.8487C32.3754 14.0588 32.4022 14.3496 32.5355 14.6112C32.6682 14.8731 32.887 15.0663 33.1094 15.1182C33.3317 15.1699 33.5237 15.0724 33.6129 14.8623C33.7021 14.6523 33.6752 14.3614 33.5419 14.0998Z" fill="#DE2010" stroke="black" stroke-width="0.203417"/>
<path fill-rule="evenodd" clip-rule="evenodd" d="M32.9604 12.7827C32.8276 12.5208 32.6089 12.3277 32.3865 12.2757C32.1641 12.224 31.9721 12.3216 31.883 12.5316C31.7939 12.7416 31.8207 13.0325 31.954 13.2941C32.0867 13.5559 32.3055 13.7491 32.5279 13.8011C32.7501 13.8528 32.9421 13.7552 33.0314 13.5452C33.1205 13.3352 33.0936 13.0443 32.9604 12.7827Z" fill="#DE2010" stroke="black" stroke-width="0.203417"/>
<path fill-rule="evenodd" clip-rule="evenodd" d="M32.1328 11.4582C31.9784 11.2085 31.744 11.0346 31.5181 11.0017C31.2921 10.9689 31.1091 11.0824 31.0381 11.2992C30.9671 11.516 31.0184 11.8035 31.1733 12.0529C31.3278 12.3026 31.5622 12.4766 31.7881 12.5095C32.0139 12.5422 32.197 12.4287 32.2682 12.2119C32.3393 11.995 32.2878 11.7076 32.1328 11.4582Z" fill="#DE2010" stroke="black" stroke-width="0.203417"/>
<path fill-rule="evenodd" clip-rule="evenodd" d="M31.2125 10.1814C31.0347 9.94784 30.7846 9.79742 30.5565 9.7865C30.3284 9.77575 30.1572 9.90642 30.1075 10.1291C30.0578 10.3517 30.1368 10.6329 30.315 10.8662C30.493 11.0998 30.743 11.2503 30.971 11.2612C31.199 11.2719 31.3703 11.1413 31.4201 10.9186C31.4699 10.6958 31.3909 10.4147 31.2125 10.1814Z" fill="#DE2010" stroke="black" stroke-width="0.203417"/>
<path fill-rule="evenodd" clip-rule="evenodd" d="M30.115 8.99143C29.9052 8.78609 29.636 8.67343 29.4087 8.69568C29.1815 8.71818 29.031 8.87226 29.014 9.09976C28.9971 9.32726 29.116 9.59409 29.3262 9.79901C29.5361 10.0043 29.8054 10.117 30.0325 10.0947C30.2597 10.0723 30.4102 9.91826 30.4272 9.69068C30.4442 9.46309 30.3252 9.19634 30.115 8.99143Z" fill="#DE2010" stroke="black" stroke-width="0.203417"/>
<path fill-rule="evenodd" clip-rule="evenodd" d="M28.8784 7.89676C28.6506 7.71168 28.3721 7.62426 28.1479 7.66734C27.9237 7.71059 27.788 7.87784 27.7921 8.10593C27.7962 8.33401 27.9391 8.58876 28.1673 8.77351C28.3952 8.95868 28.6736 9.04609 28.8978 9.00301C29.1219 8.95984 29.2577 8.79259 29.2536 8.56434C29.2496 8.33618 29.1066 8.08143 28.8784 7.89676Z" fill="#DE2010" stroke="black" stroke-width="0.203417"/>
<path fill-rule="evenodd" clip-rule="evenodd" d="M27.5693 7.02299C27.3139 6.87815 27.0248 6.83824 26.8108 6.91799C26.5969 6.99782 26.4909 7.18532 26.5328 7.40957C26.5747 7.63374 26.7579 7.86124 27.0136 8.00557C27.269 8.15032 27.5582 8.19032 27.7721 8.11057C27.9859 8.03082 28.092 7.84332 28.0502 7.61899C28.0083 7.39465 27.825 7.16732 27.5693 7.02299Z" fill="#DE2010" stroke="black" stroke-width="0.203417"/>
<path fill-rule="evenodd" clip-rule="evenodd" d="M26.1039 6.24592C25.8363 6.12509 25.5448 6.11159 25.3389 6.21042C25.1332 6.30942 25.0447 6.50576 25.1068 6.72526C25.1689 6.94476 25.3721 7.15467 25.6399 7.27509C25.9074 7.39592 26.1989 7.40942 26.4048 7.31059C26.6104 7.21167 26.6989 7.01534 26.6369 6.79576C26.5748 6.57609 26.3716 6.36634 26.1039 6.24592Z" fill="#DE2010" stroke="black" stroke-width="0.203417"/>
<path fill-rule="evenodd" clip-rule="evenodd" d="M24.6662 5.66707C24.3911 5.56432 24.0993 5.5704 23.9006 5.6829C23.7019 5.7954 23.6268 5.99732 23.7035 6.21215C23.7802 6.42698 23.997 6.62273 24.2722 6.72498C24.5473 6.82765 24.839 6.82157 25.0378 6.70915C25.2363 6.59665 25.3115 6.39482 25.2348 6.1799C25.1582 5.9649 24.9414 5.76923 24.6662 5.66707Z" fill="#DE2010" stroke="black" stroke-width="0.203417"/>
<path fill-rule="evenodd" clip-rule="evenodd" d="M23.2054 5.20966C22.9233 5.12825 22.6328 5.15666 22.4433 5.28383C22.2538 5.41133 22.1942 5.61833 22.2871 5.82666C22.3801 6.035 22.6111 6.21366 22.8933 6.29458C23.1754 6.376 23.4659 6.34766 23.6555 6.22041C23.8449 6.09308 23.9045 5.88608 23.8116 5.67758C23.7187 5.46908 23.4876 5.29058 23.2054 5.20966Z" fill="#DE2010" stroke="black" stroke-width="0.203417"/>
<path fill-rule="evenodd" clip-rule="evenodd" d="M21.5976 4.93551C21.3064 4.89851 21.0238 4.97134 20.856 5.12626C20.6885 5.28126 20.6615 5.49501 20.7854 5.68659C20.9093 5.87818 21.1651 6.01909 21.4564 6.05551C21.7476 6.09259 22.0303 6.01984 22.198 5.86484C22.3656 5.70984 22.3925 5.49626 22.2687 5.30451C22.1449 5.11284 21.889 4.97201 21.5976 4.93551Z" fill="#DE2010" stroke="black" stroke-width="0.203417"/>
<path fill-rule="evenodd" clip-rule="evenodd" d="M20.0105 4.84608C19.7172 4.83399 19.4418 4.93058 19.2878 5.09924C19.1341 5.26808 19.1254 5.48324 19.2652 5.66358C19.4049 5.84391 19.6718 5.96258 19.9653 5.97408C20.2586 5.98608 20.534 5.88949 20.6878 5.72091C20.8417 5.55216 20.8503 5.33699 20.7105 5.15658C20.5708 4.97608 20.3039 4.85758 20.0105 4.84608Z" fill="#DE2010" stroke="black" stroke-width="0.203417"/>
<path fill-rule="evenodd" clip-rule="evenodd" d="M18.5567 4.89758C18.2633 4.88558 17.9879 4.98208 17.834 5.15074C17.6802 5.31958 17.6716 5.53483 17.8113 5.71508C17.9511 5.89541 18.218 6.01408 18.5113 6.02558C18.8047 6.03766 19.0802 5.94108 19.234 5.77241C19.3878 5.60374 19.3964 5.38849 19.2567 5.20808C19.117 5.02758 18.85 4.90908 18.5567 4.89758Z" fill="#DE2010" stroke="black" stroke-width="0.203417"/>
<path fill-rule="evenodd" clip-rule="evenodd" d="M16.8515 5.09965C16.5652 5.16482 16.3246 5.33015 16.2203 5.53315C16.1161 5.73632 16.1641 5.94632 16.3461 6.08373C16.5282 6.22123 16.8169 6.26582 17.1031 6.20015C17.3893 6.13498 17.6298 5.96965 17.7342 5.76657C17.8385 5.56357 17.7905 5.35357 17.6084 5.21598C17.4262 5.07848 17.1376 5.03398 16.8515 5.09965Z" fill="#DE2010" stroke="black" stroke-width="0.203417"/>
<path fill-rule="evenodd" clip-rule="evenodd" d="M15.3015 5.48708C15.0215 5.57567 14.7955 5.76025 14.7081 5.97125C14.621 6.18233 14.6862 6.38758 14.879 6.50958C15.0718 6.6315 15.3631 6.65217 15.6429 6.56308C15.9228 6.47458 16.1489 6.29 16.2362 6.07892C16.3233 5.86808 16.2581 5.66275 16.0653 5.54058C15.8725 5.41858 15.5812 5.39808 15.3015 5.48708Z" fill="#DE2010" stroke="black" stroke-width="0.203417"/>
<path fill-rule="evenodd" clip-rule="evenodd" d="M13.8873 6.09376C13.6198 6.21509 13.4173 6.42526 13.3558 6.64509C13.2945 6.86509 13.3837 7.06117 13.5896 7.15926C13.7955 7.25742 14.0873 7.24317 14.3544 7.12142C14.6218 7.00017 14.8243 6.79001 14.8858 6.57009C14.9473 6.35026 14.8581 6.15426 14.6521 6.05592C14.4461 5.95767 14.1544 5.97201 13.8873 6.09376Z" fill="#DE2010" stroke="black" stroke-width="0.203417"/>
<path fill-rule="evenodd" clip-rule="evenodd" d="M12.4759 6.81709C12.2198 6.96075 12.036 7.18742 11.9935 7.41175C11.9511 7.63609 12.0566 7.82384 12.2702 7.90409C12.4838 7.98425 12.7732 7.94525 13.029 7.80117C13.2851 7.6575 13.4689 7.43084 13.5115 7.2065C13.5539 6.98225 13.4483 6.7945 13.2347 6.71417C13.021 6.63384 12.7316 6.673 12.4759 6.81709Z" fill="#DE2010" stroke="black" stroke-width="0.203417"/>
<path fill-rule="evenodd" clip-rule="evenodd" d="M11.1412 7.72192C10.9022 7.8925 10.7441 8.13792 10.7263 8.3655C10.7085 8.59317 10.8339 8.76834 11.0549 8.82484C11.2759 8.88134 11.5594 8.81109 11.798 8.64009C12.0369 8.46942 12.195 8.22409 12.2129 7.9965C12.2307 7.769 12.1054 7.59384 11.8844 7.53717C11.6632 7.4805 11.3798 7.55092 11.1412 7.72192Z" fill="#DE2010" stroke="black" stroke-width="0.203417"/>
<path fill-rule="evenodd" clip-rule="evenodd" d="M9.90617 8.65807C9.68258 8.84832 9.54584 9.10616 9.54725 9.33441C9.54884 9.56274 9.6885 9.72666 9.9135 9.76432C10.1385 9.80191 10.4151 9.70791 10.6383 9.51732C10.862 9.32707 10.9988 9.06924 10.9973 8.84099C10.9958 8.61274 10.8562 8.44882 10.6311 8.41107C10.4059 8.37332 10.1295 8.46749 9.90617 8.65807Z" fill="#DE2010" stroke="black" stroke-width="0.203417"/>
<path fill-rule="evenodd" clip-rule="evenodd" d="M8.81561 9.79732C8.60619 10.0031 8.48828 10.27 8.50603 10.4977C8.52403 10.7253 8.67511 10.8787 8.90219 10.9002C9.12936 10.9216 9.39844 10.808 9.60753 10.6018C9.81694 10.3961 9.93486 10.1291 9.91711 9.90149C9.89919 9.6739 9.74811 9.52049 9.52086 9.49899C9.29369 9.47749 9.02469 9.59115 8.81561 9.79732Z" fill="#DE2010" stroke="black" stroke-width="0.203417"/>
<path fill-rule="evenodd" clip-rule="evenodd" d="M7.87708 11.0634C7.68558 11.286 7.59041 11.5619 7.62716 11.7872C7.66416 12.0126 7.82758 12.1529 8.05566 12.1552C8.28383 12.1575 8.54241 12.0218 8.7335 11.7989C8.925 11.5763 9.02016 11.3004 8.98333 11.0751C8.9465 10.8498 8.78308 10.7095 8.55491 10.7072C8.32666 10.7047 8.06808 10.8405 7.87708 11.0634Z" fill="#DE2010" stroke="black" stroke-width="0.203417"/>
<path fill-rule="evenodd" clip-rule="evenodd" d="M7.01884 12.3593C6.85218 12.6011 6.78693 12.8856 6.84759 13.1057C6.90834 13.3258 7.08576 13.4479 7.31284 13.4258C7.53993 13.4038 7.78259 13.2413 7.94884 12.9993C8.11543 12.7576 8.18068 12.4731 8.12001 12.2529C8.05934 12.0329 7.88193 11.9108 7.65476 11.9328C7.42759 11.9548 7.18501 12.1173 7.01884 12.3593Z" fill="#DE2010" stroke="black" stroke-width="0.203417"/>
<path fill-rule="evenodd" clip-rule="evenodd" d="M6.30421 13.8298C6.18154 14.0966 6.16621 14.388 6.26371 14.5945C6.36138 14.8008 6.55713 14.8907 6.77705 14.8299C6.99696 14.7693 7.20813 14.5674 7.3303 14.3005C7.45296 14.0338 7.4683 13.7423 7.3708 13.5358C7.27321 13.3295 7.07746 13.2397 6.85746 13.3003C6.63738 13.361 6.42638 13.5628 6.30421 13.8298Z" fill="#DE2010" stroke="black" stroke-width="0.203417"/>
<path fill-rule="evenodd" clip-rule="evenodd" d="M5.73772 15.3648C5.6398 15.6416 5.65097 15.9333 5.76672 16.13C5.88272 16.3268 6.0858 16.3984 6.2993 16.318C6.5128 16.2376 6.7048 16.0175 6.8023 15.7405C6.90022 15.4638 6.88914 15.1721 6.7733 14.9753C6.65747 14.7788 6.4543 14.7071 6.24072 14.7874C6.02714 14.8678 5.83522 15.0879 5.73772 15.3648Z" fill="#DE2010" stroke="black" stroke-width="0.203417"/>
<path fill-rule="evenodd" clip-rule="evenodd" d="M5.24569 18.274C5.21828 18.5083 5.30028 18.7329 5.46069 18.8632C5.62119 18.9933 5.83569 19.0092 6.02303 18.905C6.21044 18.8007 6.34286 18.592 6.36969 18.3576C6.39711 18.1232 6.31503 17.8987 6.15469 17.7684C5.99428 17.6382 5.77986 17.6223 5.59236 17.7267C5.40478 17.8309 5.27253 18.0397 5.24569 18.274Z" fill="#DE2010" stroke="black" stroke-width="0.182167"/>
<path fill-rule="evenodd" clip-rule="evenodd" d="M5.37737 16.9162C5.31187 17.2024 5.35637 17.4908 5.49403 17.673C5.63187 17.855 5.84187 17.9029 6.0447 17.7985C6.24753 17.6941 6.41303 17.4534 6.47803 17.1671C6.54353 16.8809 6.49895 16.5924 6.36128 16.4103C6.22362 16.2282 6.01362 16.1804 5.81062 16.2847C5.60762 16.3892 5.44237 16.6299 5.37737 16.9162Z" fill="#DE2010" stroke="black" stroke-width="0.203417"/>
<path fill-rule="evenodd" clip-rule="evenodd" d="M33.3343 16.2208C33.5132 16.0294 33.6796 15.9753 33.8901 16.0451C33.8158 15.5401 33.656 15.3687 33.4613 15.4296C33.2667 15.4904 33.1786 15.75 33.3343 16.2209V16.2208ZM33.6078 17.7445C33.8005 17.5671 33.9705 17.5257 34.1752 17.6112C34.1392 17.102 33.9927 16.9191 33.794 16.965C33.5953 17.011 33.4879 17.2632 33.6078 17.7445ZM32.9608 14.8292C33.0853 14.5987 33.2324 14.504 33.4538 14.5181C33.2538 14.0485 33.0556 13.9233 32.8828 14.0316C32.7099 14.1399 32.6907 14.4132 32.9609 14.8292L32.9608 14.8292ZM32.2828 13.4427C32.4072 13.2121 32.5543 13.1174 32.7757 13.1315C32.5757 12.6619 32.3776 12.5367 32.2047 12.645C32.0318 12.7533 32.0126 13.0267 32.2828 13.4427ZM30.6562 10.9015C30.7418 10.654 30.872 10.5369 31.0927 10.5152C30.8198 10.0839 30.6041 9.99216 30.4509 10.1268C30.2978 10.2615 30.3226 10.5345 30.6562 10.9015ZM29.5931 9.79416C29.6693 9.5435 29.7948 9.42166 30.0146 9.39166C29.7256 8.97083 29.5067 8.8875 29.3587 9.02775C29.2106 9.16808 29.2458 9.44 29.5931 9.79416ZM27.3573 7.90791C27.3526 7.646 27.4345 7.49133 27.6343 7.39508C27.2298 7.08383 26.9958 7.07191 26.8982 7.25091C26.8007 7.43008 26.9178 7.67791 27.3573 7.90791ZM28.5205 8.78C28.5613 8.52125 28.6688 8.38316 28.8822 8.323C28.5376 7.94633 28.3093 7.89408 28.1822 8.0535C28.055 8.213 28.1275 8.47741 28.5205 8.78ZM26.0302 7.1755C25.9985 6.9155 26.064 6.75325 26.2528 6.63691C25.8183 6.369 25.5843 6.38125 25.5058 6.56941C25.4272 6.75775 25.5693 6.99208 26.0302 7.1755ZM24.674 6.5835C24.6055 6.33058 24.6471 6.16066 24.8173 6.0185C24.349 5.81558 24.1192 5.86116 24.0683 6.05866C24.0174 6.25616 24.1917 6.46783 24.674 6.5835ZM23.2128 6.13075C23.1231 5.88458 23.1502 5.71175 23.3078 5.55575C22.8238 5.39325 22.5987 5.458 22.5648 5.65908C22.5308 5.86025 22.7223 6.05633 23.2128 6.13075ZM21.7775 5.85283C21.6703 5.61383 21.6848 5.4395 21.8307 5.27241C21.3363 5.14525 21.1165 5.22625 21.0972 5.42933C21.0778 5.63233 21.2831 5.81408 21.7776 5.85283H21.7775ZM20.2575 5.73633C20.1261 5.50975 20.1225 5.33483 20.2503 5.15358C19.7453 5.07841 19.5351 5.18175 19.5369 5.38566C19.5388 5.58958 19.7618 5.74916 20.2576 5.73633H20.2575ZM17.2813 5.9605C17.0992 5.77233 17.0534 5.60341 17.1337 5.39666C16.6256 5.44541 16.4464 5.59641 16.4974 5.79391C16.5483 5.99141 16.8033 6.09225 17.2813 5.9605ZM18.7463 5.76766C18.5913 5.5565 18.5688 5.383 18.6763 5.18908C18.1663 5.16858 17.9683 5.29408 17.9921 5.49658C18.0158 5.69908 18.2547 5.83366 18.7463 5.76766ZM15.844 6.27108C15.6367 6.11091 15.5673 5.95025 15.6171 5.73416C15.1213 5.85533 14.9655 6.03041 15.0443 6.21858C15.123 6.40666 15.3898 6.47025 15.844 6.27108ZM13.0918 7.53641C12.8578 7.41866 12.7592 7.27416 12.7669 7.05258C12.3032 7.26591 12.1837 7.46733 12.2968 7.637C12.4098 7.80675 12.6837 7.81833 13.0918 7.53641ZM14.419 6.8585C14.201 6.71316 14.1206 6.55783 14.1553 6.33875C13.669 6.49408 13.5259 6.67958 13.6176 6.86183C13.7093 7.044 13.9797 7.08875 14.419 6.8585ZM10.6233 9.25508C10.3699 9.18866 10.2433 9.06791 10.2047 8.84958C9.7955 9.15475 9.72067 9.37675 9.86659 9.51916C10.0126 9.66166 10.283 9.61583 10.6233 9.25508ZM11.801 8.29125C11.5535 8.20516 11.4368 8.07491 11.4154 7.85416C10.9836 8.12641 10.8916 8.34183 11.026 8.49525C11.1603 8.64866 11.4335 8.62425 11.801 8.29125ZM9.57684 10.2858C9.31842 10.2427 9.18134 10.134 9.12309 9.92C8.74334 10.2612 8.68892 10.4891 8.84725 10.6176C9.00559 10.7462 9.27059 10.676 9.57684 10.2858ZM8.63917 11.5027C8.37792 11.4832 8.2315 11.3874 8.154 11.1796C7.80684 11.5537 7.77342 11.7857 7.94275 11.8993C8.11209 12.013 8.36967 11.9191 8.63909 11.5027L8.63917 11.5027ZM7.85442 12.7472C7.59334 12.7679 7.434 12.6957 7.32559 12.5022C7.03975 12.9251 7.04225 13.1593 7.227 13.2457C7.41175 13.3322 7.65184 13.1999 7.85442 12.7472ZM7.1655 14.0764C6.90925 14.1309 6.74192 14.0799 6.60934 13.9022C6.38084 14.3586 6.41367 14.5905 6.60809 14.6522C6.8025 14.7139 7.02342 14.5516 7.16559 14.0764H7.1655ZM6.61434 15.4406C6.37 15.5349 6.19667 15.5111 6.03767 15.3566C5.88434 15.8434 5.9535 16.0672 6.15517 16.0974C6.35684 16.1276 6.54934 15.9322 6.61434 15.4406ZM6.24525 16.9598C6.00775 17.0703 5.83317 17.0582 5.66417 16.9147C5.54384 17.4107 5.62775 17.6294 5.83109 17.6459C6.03442 17.6625 6.21325 17.4547 6.24525 16.9598ZM6.09509 18.2253C5.8715 18.3437 5.69725 18.3577 5.5145 18.2682C5.448 18.6724 5.5545 18.8322 5.75767 18.8178C5.96084 18.8034 6.11592 18.6168 6.09509 18.2253ZM31.6773 12.2069C31.7667 11.9607 31.8985 11.8456 32.1195 11.8272C31.8532 11.3918 31.639 11.2969 31.4838 11.4292C31.3285 11.5614 31.3493 11.8348 31.6773 12.2068V12.2069ZM33.7746 19.2892C33.9673 19.1117 34.1373 19.0703 34.3419 19.1558C34.306 18.6467 34.1595 18.4637 33.9608 18.5097C33.7622 18.5557 33.6548 18.8079 33.7746 19.2892Z" fill="#FFE300"/>
<path fill-rule="evenodd" clip-rule="evenodd" d="M31.7766 11.0008C31.7704 11.0008 31.1994 11.5718 31.2987 12.2668C31.398 12.9619 31.8387 13.8183 31.7579 14.5382C31.6773 15.2582 31.5469 15.736 31.5469 15.736C31.5469 15.736 32.2172 14.9727 32.2234 14.2403C32.2296 13.508 31.7642 12.5462 31.7642 12.0062C31.7642 11.4662 31.789 10.9885 31.7766 11.0009V11.0008ZM32.8375 13.3338C32.8375 13.3338 32.3907 13.6627 32.4342 14.4199C32.4775 15.177 33.2595 16.5672 33.2595 16.5672C33.2595 16.5672 33.8304 17.7401 33.8119 18.0442C33.7932 18.3482 33.9174 17.7525 33.8615 17.0822C33.8057 16.412 32.943 14.935 32.943 14.935C32.943 14.935 32.7569 14.6309 32.7755 14.1282C32.7941 13.6256 32.8437 13.3401 32.8375 13.3338Z" fill="#217900" stroke="black" stroke-width="0.15475" stroke-linejoin="round"/>
<path fill-rule="evenodd" clip-rule="evenodd" d="M19.4105 3.95251C19.4105 3.79585 19.2344 3.66876 19.0169 3.66876C18.7994 3.66876 18.6232 3.79585 18.6233 3.95251C18.6232 4.10918 18.7995 4.23626 19.0169 4.23626C19.2343 4.23626 19.4106 4.10926 19.4105 3.95251ZM19.5788 4.61251C19.5788 4.46218 19.3974 4.34035 19.1735 4.34035C18.9498 4.34035 18.7684 4.46218 18.7684 4.61243C18.7684 4.76268 18.9498 4.88451 19.1735 4.88451C19.3974 4.88451 19.5788 4.76285 19.5788 4.61251ZM20.0821 3.83101C20.0821 3.83101 19.619 4.17835 19.81 4.31726C20.001 4.45618 20.5279 4.01626 20.5279 4.01626L20.0821 3.83101ZM33.6934 11.7833C33.6935 11.6847 33.6472 11.5933 33.572 11.5439C33.536 11.5198 33.4937 11.5068 33.4504 11.5068C33.4071 11.5068 33.3647 11.5198 33.3288 11.5439C33.2536 11.5933 33.2073 11.6847 33.2075 11.7833C33.2073 11.8821 33.2536 11.9733 33.3288 12.0228C33.3647 12.047 33.4071 12.0599 33.4504 12.0599C33.4937 12.0599 33.536 12.047 33.572 12.0228C33.6472 11.9734 33.6935 11.8821 33.6934 11.7833ZM33.5165 11.1213C33.5165 10.9566 33.4027 10.8231 33.2625 10.8231C33.1222 10.8231 33.0085 10.9566 33.0085 11.1213C33.0085 11.2859 33.1221 11.4194 33.2625 11.4194C33.4028 11.4194 33.5165 11.2859 33.5165 11.1213ZM33.6383 12.468C33.6383 12.3826 33.5938 12.3133 33.5389 12.3133C33.484 12.3133 33.4395 12.3825 33.4395 12.468C33.4395 12.5535 33.484 12.6226 33.5389 12.6226C33.5938 12.6226 33.6383 12.5534 33.6383 12.468ZM34.0465 11.2642C34.0465 11.1665 34.002 11.0875 33.9471 11.0875C33.8923 11.0875 33.8478 11.1665 33.8478 11.2642C33.8478 11.3618 33.8923 11.4408 33.9471 11.4408C34.002 11.4408 34.0465 11.3617 34.0465 11.2642ZM32.9312 11.386C32.9312 11.3067 32.8867 11.2424 32.8318 11.2424C32.7769 11.2424 32.7324 11.3067 32.7324 11.386C32.7324 11.4653 32.7769 11.5295 32.8318 11.5295C32.8867 11.5295 32.9312 11.4653 32.9312 11.386ZM33.1081 12.336C33.1081 12.2078 33.0142 12.104 32.8983 12.104C32.7824 12.104 32.6885 12.2078 32.6885 12.336C32.6885 12.4641 32.7824 12.568 32.8983 12.568C33.0142 12.568 33.1082 12.4641 33.1081 12.336ZM32.5555 11.9161C32.5555 11.8063 32.4764 11.7173 32.3789 11.7173C32.2812 11.7173 32.2022 11.8063 32.2022 11.9161C32.2022 12.0258 32.2812 12.1148 32.3789 12.1148C32.4764 12.1148 32.5555 12.0258 32.5555 11.9161ZM32.4678 11.3526C32.4678 11.2934 32.4384 11.2386 32.3905 11.2089C32.3673 11.1944 32.3405 11.1867 32.3132 11.1867C32.2858 11.1867 32.259 11.1944 32.2358 11.2089C32.188 11.2386 32.1585 11.2933 32.1585 11.3526C32.1585 11.4118 32.188 11.4666 32.2358 11.4963C32.259 11.5108 32.2858 11.5185 32.3132 11.5185C32.3405 11.5185 32.3673 11.5108 32.3905 11.4963C32.4384 11.4666 32.4679 11.4118 32.4678 11.3526ZM34.985 14.2164C34.7569 13.9153 34.3916 13.7885 34.1692 13.9331C33.9469 14.0777 33.9515 14.4389 34.1796 14.7399C34.4077 15.041 34.773 15.1678 34.9954 15.0233C35.2177 14.8787 35.213 14.5174 34.985 14.2164ZM35.6333 19.7708C35.6775 19.4013 35.4973 19.076 35.2308 19.0441C34.9644 19.0122 34.7125 19.2858 34.6683 19.6553C34.6241 20.0247 34.8043 20.35 35.0708 20.3819C35.3372 20.4138 35.5891 20.1402 35.6333 19.7708ZM35.7704 23.0037C35.8462 22.6395 35.6949 22.2998 35.4321 22.245C35.1695 22.1903 34.8949 22.4411 34.819 22.8053C34.743 23.1695 34.8945 23.5093 35.1571 23.564C35.4199 23.6188 35.6944 23.3679 35.7704 23.0037ZM36.3933 19.9774C36.3933 19.831 36.2944 19.7124 36.1725 19.7124C36.0505 19.7124 35.9515 19.831 35.9515 19.9774C35.9515 20.1238 36.0505 20.2424 36.1724 20.2424C36.2943 20.2424 36.3933 20.1238 36.3933 19.9774ZM35.8523 20.5851L35.3995 21.0987C35.3995 21.0987 34.9744 21.1097 34.9965 21.2478C35.0185 21.3858 35.5817 21.7999 35.5762 21.9656C35.5707 22.1313 35.9517 21.9269 35.9517 21.9269C35.9517 21.9269 36.2554 21.0048 36.2554 20.9993C36.2554 20.9938 36.2388 20.3587 36.0732 20.3698C35.9075 20.3808 35.8626 20.5734 35.8524 20.5852L35.8523 20.5851ZM6.06979 20.3821C6.0698 20.3538 6.06423 20.3258 6.05341 20.2996C6.04258 20.2735 6.02671 20.2497 6.0067 20.2297C5.9663 20.1893 5.91149 20.1666 5.85434 20.1666C5.82604 20.1665 5.79801 20.1721 5.77186 20.1829C5.74572 20.1938 5.72196 20.2096 5.70194 20.2296C5.66152 20.27 5.6388 20.3249 5.63879 20.382C5.63878 20.4392 5.66148 20.494 5.70188 20.5344C5.74229 20.5748 5.7971 20.5975 5.85425 20.5976C5.91141 20.5976 5.96622 20.5749 6.00665 20.5345C6.04707 20.4941 6.06978 20.4392 6.06979 20.3821ZM6.27288 19.7236C6.27288 19.5979 6.17638 19.4961 6.05738 19.4961C5.93838 19.4961 5.84188 19.5979 5.84188 19.7236C5.84188 19.8493 5.93829 19.9511 6.05738 19.9511C6.17638 19.9511 6.27288 19.8493 6.27288 19.7236ZM4.50338 16.5922C4.42254 16.411 4.25421 16.31 4.12738 16.3666C4.00063 16.4233 3.96338 16.6159 4.04413 16.7971C4.12496 16.9782 4.29329 17.0792 4.42013 17.0226C4.54688 16.966 4.58413 16.7733 4.50338 16.5922ZM5.03779 18.543C4.92679 18.3082 4.69563 18.1773 4.52138 18.2506C4.34713 18.3239 4.29596 18.5738 4.40704 18.8085C4.51813 19.0433 4.74929 19.1742 4.92346 19.1008C5.09763 19.0275 5.14888 18.7778 5.03779 18.543ZM5.61004 19.9738C5.64596 19.6805 5.52446 19.4112 5.33863 19.3721C5.15279 19.3331 4.97288 19.5391 4.93696 19.8323C4.90096 20.1257 5.02246 20.395 5.20829 20.434C5.39413 20.4732 5.57404 20.267 5.60996 19.9738H5.61004ZM4.69188 20.1827C4.80688 19.9105 4.76379 19.6181 4.59579 19.5296C4.42779 19.4411 4.19829 19.59 4.08329 19.8622C3.96829 20.1343 4.01146 20.4268 4.17946 20.5152C4.34746 20.6036 4.57688 20.4548 4.69188 20.1827Z" fill="#6B18B5"/>
<path fill-rule="evenodd" clip-rule="evenodd" d="M4.27342 19.5677C4.27342 19.4288 4.16625 19.3162 4.034 19.3162C3.90175 19.3162 3.7945 19.4287 3.7945 19.5677C3.7945 19.7066 3.90175 19.8191 4.034 19.8191C4.16625 19.8191 4.27342 19.7066 4.27342 19.5677ZM4.082 18.9454C4.082 18.8198 3.9855 18.7179 3.8665 18.7179C3.74742 18.7179 3.651 18.8198 3.651 18.9454C3.651 19.0711 3.74742 19.1729 3.8665 19.1729C3.98558 19.1729 4.082 19.0711 4.082 18.9454ZM4.28575 17.7482C4.28575 17.5365 4.19192 17.365 4.07625 17.365C3.9605 17.365 3.86675 17.5366 3.86675 17.7482C3.86675 17.9597 3.9605 18.1312 4.07625 18.1312C4.192 18.1312 4.28575 17.9597 4.28575 17.7482ZM4.93042 17.656C4.95833 17.4463 4.888 17.2639 4.77333 17.2487C4.65858 17.2333 4.543 17.391 4.51508 17.6007C4.48717 17.8105 4.55758 17.9929 4.67225 18.0082C4.78692 18.0234 4.9025 17.8657 4.93042 17.656ZM9.52383 8.49117C9.60925 8.19417 9.52117 7.89558 9.32717 7.8245C9.13317 7.75317 8.90658 7.93625 8.82125 8.23325C8.73583 8.53033 8.82392 8.82883 9.01792 8.90008C9.212 8.97125 9.4385 8.78817 9.52383 8.49117ZM8.65142 9.813C8.90733 9.59525 9.01667 9.29408 8.89558 9.14042C8.77458 8.98667 8.469 9.03867 8.21309 9.25642C7.95717 9.47417 7.84792 9.77533 7.96892 9.92908C8.09 10.0827 8.39558 10.0307 8.65142 9.813ZM8.14233 9.07933C8.39542 8.89233 8.5035 8.63383 8.38383 8.50183C8.26417 8.36983 7.96192 8.41458 7.70883 8.6015C7.45583 8.7885 7.34775 9.047 7.46742 9.179C7.58708 9.311 7.88933 9.26625 8.14242 9.07933H8.14233ZM10.1048 7.78892C10.2754 7.65842 10.3483 7.47808 10.2676 7.386C10.1868 7.29392 9.98308 7.32517 9.81242 7.4555C9.64175 7.58592 9.56892 7.76633 9.64958 7.85842C9.73033 7.9505 9.93409 7.91933 10.1048 7.78892Z" fill="#6B18B5"/>
<path fill-rule="evenodd" clip-rule="evenodd" d="M9.0815 9.03918C9.19817 8.85893 9.206 8.66451 9.099 8.60501C8.992 8.54559 8.81067 8.64351 8.694 8.82384C8.57734 9.00418 8.56942 9.19859 8.67642 9.25801C8.78342 9.31751 8.96475 9.21959 9.08142 9.03926L9.0815 9.03918ZM10.558 8.26651C10.7415 8.11184 10.813 7.90701 10.7177 7.80901C10.6224 7.71084 10.3963 7.75676 10.2128 7.91143C10.0293 8.06609 9.95783 8.27093 10.0532 8.36893C10.1484 8.46709 10.3745 8.42118 10.558 8.26651ZM7.89 10.069C8.06158 10.0604 8.191 9.97501 8.17917 9.87818C8.16742 9.78126 8.01875 9.70968 7.84725 9.71826C7.67567 9.72685 7.54617 9.81226 7.558 9.90909C7.56983 10.006 7.71842 10.0776 7.89 10.069ZM11.12 7.30859C11.2367 7.12826 11.2446 6.93384 11.1375 6.87443C11.0305 6.81493 10.8492 6.91293 10.7325 7.09326C10.6158 7.27359 10.6079 7.46801 10.715 7.52743C10.822 7.58693 11.0033 7.48893 11.12 7.30859Z" fill="#6B18B5"/>
<path fill-rule="evenodd" clip-rule="evenodd" d="M30.5692 12.7813C30.5692 12.7813 31.1014 11.9389 30.8956 11.1462C30.6898 10.3533 29.8118 10.9136 29.8306 11.1958C29.8496 11.4778 30.3981 11.8553 30.4315 12.0275C30.4648 12.1997 30.3695 12.7293 30.5692 12.7813Z" fill="#FFD200" stroke="#EF8A10" stroke-width="0.0806667"/>
<path fill-rule="evenodd" clip-rule="evenodd" d="M20.407 5.77524C20.407 5.77524 22.3246 5.84974 22.337 7.09091C22.3308 7.28324 22.337 7.51291 22.2688 8.06516C22.6473 7.86041 22.9018 7.28941 22.8522 6.92333C22.8583 5.66349 21.1393 4.80091 20.407 5.77524Z" fill="#217900" stroke="black" stroke-width="0.1935" stroke-linejoin="round"/>
<path fill-rule="evenodd" clip-rule="evenodd" d="M19.1909 5.71942C19.1909 5.71942 20.736 5.39667 20.7485 6.63784C20.761 7.879 20.2582 8.07759 20.2582 8.07759C20.2582 8.07759 21.4435 7.82317 21.4497 6.56342C21.456 5.30359 19.923 4.74509 19.1908 5.71942H19.1909Z" fill="#217900" stroke="black" stroke-width="0.1935" stroke-linejoin="round"/>
<path fill-rule="evenodd" clip-rule="evenodd" d="M24.4402 32.496C24.4402 32.496 31.6732 30.4528 33.8573 21.5759C32.5891 30.6877 24.675 33.5763 24.675 33.5763L24.4402 32.496Z" fill="#F7DF73" stroke="black" stroke-width="0.206417" stroke-linejoin="round"/>
<path fill-rule="evenodd" clip-rule="evenodd" d="M25.1822 33.0487C25.4057 33.0487 25.9588 32.4367 26.2765 32.3662C26.5942 32.2956 26.6295 31.9778 26.2647 31.9662C25.8999 31.9543 25.5822 32.378 25.5822 32.378C25.5822 32.378 25.2645 32.6486 24.935 32.6839C24.6056 32.7192 24.8174 33.1311 25.1822 33.0487Z" fill="#8C1800"/>
<path fill-rule="evenodd" clip-rule="evenodd" d="M29.3472 29.9415C29.3472 29.9415 28.5941 30.3769 28.7 30.4828C28.8059 30.5887 29.4767 30.071 29.4884 30.0592C29.5002 30.0475 29.7709 29.718 29.3472 29.9415Z" fill="#8C1800" stroke="#8C1800" stroke-width="0.206417"/>
<path fill-rule="evenodd" clip-rule="evenodd" d="M26.7232 31.9197C26.7232 31.9197 26.4996 31.8373 27.0762 31.6138C27.6529 31.3902 27.6175 31.1313 27.8058 31.0254C27.9941 30.9196 28.3941 30.6371 28.4764 30.8018C28.5588 30.9666 28.0529 31.296 27.9352 31.3314C27.8175 31.3667 27.2409 31.8962 27.0762 31.9433C26.9114 31.9903 26.7938 31.9668 26.7232 31.9197Z" fill="#8C1800"/>
<path d="M30.4651 28.8362C29.9709 29.3892 29.9709 29.3775 29.9709 29.3775Z" fill="black"/>
<path d="M30.4651 28.8362C29.9709 29.3892 29.9709 29.3775 29.9709 29.3775" stroke="#8C1800" stroke-width="0.251583" stroke-linecap="round"/>
<path d="M31.2071 27.93L30.7365 28.5066Z" fill="black"/>
<path d="M31.2071 27.93L30.7365 28.5066" stroke="#8C1800" stroke-width="0.232167" stroke-linecap="round"/>
<path d="M31.9478 26.7537L31.4182 27.6008Z" fill="black"/>
<path d="M31.9478 26.7537L31.4182 27.6008" stroke="#8C1800" stroke-width="0.212833" stroke-linecap="round"/>
<path d="M32.5713 25.5537L32.136 26.4244ZM32.854 24.9175L32.7127 25.2233Z" fill="black"/>
<path d="M32.5713 25.5537L32.136 26.4244M32.854 24.9175L32.7127 25.2233" stroke="#8C1800" stroke-width="0.1935" stroke-linecap="round"/>
<path d="M33.1714 24.0822L33.0537 24.447Z" fill="black"/>
<path d="M33.1714 24.0822L33.0537 24.447" stroke="#8C1800" stroke-width="0.116083" stroke-linecap="round"/>
<path fill-rule="evenodd" clip-rule="evenodd" d="M14.96 32.3054C14.96 32.3054 7.79295 30.2254 5.62878 21.1885C6.88545 30.4645 14.7273 33.4052 14.7273 33.4052L14.96 32.3054Z" fill="#F7DF73" stroke="black" stroke-width="0.207333" stroke-linejoin="round"/>
<path fill-rule="evenodd" clip-rule="evenodd" d="M14.2247 32.868C14.0032 32.868 13.4552 32.2451 13.1404 32.1733C12.8256 32.1014 12.7907 31.7779 13.1521 31.7659C13.5135 31.754 13.8283 32.1853 13.8283 32.1853C13.8283 32.1853 14.1432 32.4608 14.4696 32.4967C14.7961 32.5327 14.5862 32.9518 14.2247 32.868Z" fill="#8C1800"/>
<path fill-rule="evenodd" clip-rule="evenodd" d="M10.0975 29.7049C10.0975 29.7049 10.8438 30.148 10.7389 30.2559C10.634 30.3638 9.96929 29.8367 9.95771 29.8247C9.94596 29.8128 9.67779 29.4773 10.0975 29.7049Z" fill="#8C1800" stroke="#8C1800" stroke-width="0.207333"/>
<path fill-rule="evenodd" clip-rule="evenodd" d="M12.6977 31.7187C12.6977 31.7187 12.9193 31.6348 12.348 31.4072C11.7766 31.1797 11.8116 30.9161 11.625 30.8082C11.4385 30.7005 11.042 30.413 10.9605 30.5807C10.8789 30.7485 11.3802 31.0838 11.4968 31.1197C11.6135 31.1557 12.1847 31.6947 12.348 31.7427C12.5112 31.7906 12.6278 31.7666 12.6977 31.7187Z" fill="#8C1800"/>
<path d="M8.98987 28.5797C9.47962 29.1427 9.47962 29.1307 9.47962 29.1307Z" fill="black"/>
<path d="M8.98987 28.5797C9.47962 29.1427 9.47962 29.1307 9.47962 29.1307" stroke="#8C1800" stroke-width="0.252667" stroke-linecap="round"/>
<path d="M8.25476 27.6571L8.72109 28.2441Z" fill="black"/>
<path d="M8.25476 27.6571L8.72109 28.2441" stroke="#8C1800" stroke-width="0.23325" stroke-linecap="round"/>
<path d="M7.52087 26.4595L8.04554 27.322Z" fill="black"/>
<path d="M7.52087 26.4595L8.04554 27.322" stroke="#8C1800" stroke-width="0.21375" stroke-linecap="round"/>
<path d="M6.90292 25.2379L7.33426 26.1243ZM6.62292 24.5902L6.76276 24.9017Z" fill="black"/>
<path d="M6.90292 25.2379L7.33426 26.1243M6.62292 24.5902L6.76276 24.9017" stroke="#8C1800" stroke-width="0.194333" stroke-linecap="round"/>
<path d="M6.30835 23.7399L6.42485 24.1113Z" fill="black"/>
<path d="M6.30835 23.7399L6.42485 24.1113" stroke="#8C1800" stroke-width="0.116583" stroke-linecap="round"/>
<path fill-rule="evenodd" clip-rule="evenodd" d="M34.2017 19.9418C34.2373 20.4987 34.7823 21.0318 34.569 22.0033C34.2965 23.1051 33.3368 25.7234 33.5028 26.1855C33.2184 25.7945 33.2658 25.4272 33.2421 24.8822C33.2183 24.3373 34.0358 22.3113 34.1069 21.6242C34.1069 21.0082 34.1662 20.167 34.2017 19.9418Z" fill="#217900" stroke="black" stroke-width="0.1935" stroke-linejoin="round"/>
<path fill-rule="evenodd" clip-rule="evenodd" d="M34.2017 19.9535C34.2017 19.9535 35.0903 21.079 35.0429 21.9676C34.9955 22.8562 34.4979 23.8987 34.6637 24.3607C34.3794 23.9697 34.3084 23.7209 34.2846 23.176C34.2609 22.631 34.7229 22.0267 34.6282 21.4343C34.5334 20.842 34.1899 19.9535 34.2017 19.9535ZM5.0936 20.2022C5.0581 20.7591 4.64344 21.2566 4.85669 22.2281C5.12919 23.3299 6.10069 24.728 5.94669 26.3274C6.23102 25.9364 6.31394 25.4981 6.3376 24.9531C6.36135 24.4081 5.25944 22.5717 5.18844 21.8846C5.18844 21.2686 5.12919 20.4274 5.0936 20.2022Z" fill="#217900" stroke="black" stroke-width="0.1935" stroke-linejoin="round"/>
<path fill-rule="evenodd" clip-rule="evenodd" d="M5.09354 20.2146C5.09354 20.2146 4.22871 21.3046 4.27604 22.1931C4.28788 22.7855 5.37788 25.2616 5.21204 25.7237C5.49638 25.3328 5.57929 25.3801 5.56738 24.7878C5.24754 23.2713 4.67879 22.2998 4.77363 21.7074C4.86838 21.115 5.10529 20.2146 5.09354 20.2146Z" fill="#217900" stroke="black" stroke-width="0.1935" stroke-linejoin="round"/>
<path d="M19.8698 10.2465L22.0226 16.8726L28.9886 16.8728L23.3531 20.9682L25.5055 27.5945L19.8699 23.5012L14.2341 27.5954L16.3865 20.9695L10.751 16.8743H17.717L19.8698 10.2465Z" fill="white" stroke="black" stroke-width="0.16125" stroke-linecap="square" stroke-linejoin="round"/>
</g>
</g>
</g>
<defs>
<clipPath id="clip0_16739_279618">
<rect width="40" height="40" rx="20" fill="white"/>
</clipPath>
</defs>
</svg>
