<svg width="40" height="40" viewBox="0 0 40 40" fill="none" xmlns="http://www.w3.org/2000/svg">
<g clip-path="url(#clip0_16699_272064)">
<mask id="mask0_16699_272064" style="mask-type:luminance" maskUnits="userSpaceOnUse" x="0" y="0" width="40" height="40">
<path d="M40 0H0V40H40V0Z" fill="white"/>
</mask>
<g mask="url(#mask0_16699_272064)">
<mask id="mask1_16699_272064" style="mask-type:luminance" maskUnits="userSpaceOnUse" x="0" y="0" width="40" height="40">
<path d="M40 20C40 8.95433 31.0457 0 20 0C8.95433 0 0 8.95433 0 20C0 31.0457 8.95433 40 20 40C31.0457 40 40 31.0457 40 20Z" fill="white"/>
</mask>
<g mask="url(#mask1_16699_272064)">
<mask id="mask2_16699_272064" style="mask-type:luminance" maskUnits="userSpaceOnUse" x="-7" y="0" width="54" height="40">
<path d="M-6.66675 0H46.6666V40H-6.66675V0Z" fill="white"/>
</mask>
<g mask="url(#mask2_16699_272064)">
<path d="M-6.66675 0H46.6666V40H-6.66675V0Z" fill="#0DB02B"/>
<path d="M-6.66675 0H46.6666V26.6667H-6.66675V0Z" fill="white"/>
<path d="M-6.66675 0H46.6666V13.3333H-6.66675V0ZM19.9999 25.6667C23.1295 25.6667 25.6666 23.1296 25.6666 20C25.6666 16.8704 23.1295 14.3333 19.9999 14.3333C16.8703 14.3333 14.3333 16.8704 14.3333 20C14.3333 23.1296 16.8703 25.6667 19.9999 25.6667Z" fill="#E05206"/>
</g>
</g>
</g>
</g>
<defs>
<clipPath id="clip0_16699_272064">
<rect width="40" height="40" fill="white"/>
</clipPath>
</defs>
</svg>
