<svg width="40" height="40" viewBox="0 0 40 40" fill="none" xmlns="http://www.w3.org/2000/svg">
<g clip-path="url(#clip0_16699_272093)">
<mask id="mask0_16699_272093" style="mask-type:luminance" maskUnits="userSpaceOnUse" x="0" y="0" width="40" height="40">
<path d="M40 20C40 8.95431 31.0457 0 20 0C8.95431 0 0 8.95431 0 20C0 31.0457 8.95431 40 20 40C31.0457 40 40 31.0457 40 20Z" fill="white"/>
</mask>
<g mask="url(#mask0_16699_272093)">
<mask id="mask1_16699_272093" style="mask-type:luminance" maskUnits="userSpaceOnUse" x="-14" y="0" width="54" height="40">
<path d="M-13.3333 0H40V40H-13.3333V0Z" fill="white"/>
</mask>
<g mask="url(#mask1_16699_272093)">
<path d="M-13.3333 0H40V40H-13.3333V0Z" fill="#000066"/>
<path fill-rule="evenodd" clip-rule="evenodd" d="M20.692 16.0208H38.5497L38.5285 28.8076C38.677 33.9477 35.4932 37.1373 29.6351 38.5754C25.4746 37.5357 20.6777 35.3854 20.6707 28.9534L20.692 16.0207V16.0208Z" fill="white"/>
<path fill-rule="evenodd" clip-rule="evenodd" d="M21.0872 16.4063H38.1526L38.1324 28.6585C38.2743 33.5839 35.2316 36.6403 29.6332 38.0183C25.6579 37.0223 21.0737 34.9622 21.067 28.7981L21.0873 16.406L21.0872 16.4063Z" fill="#00A2BD" stroke="black" stroke-width="0.809"/>
<path fill-rule="evenodd" clip-rule="evenodd" d="M38.0206 30.1107C37.3998 34.8122 33.8014 36.8665 29.6331 37.9567C25.9434 36.9608 21.9739 35.3707 21.2045 30.1343L38.021 30.1107H38.0206Z" fill="#A53D08"/>
<path fill-rule="evenodd" clip-rule="evenodd" d="M32.3466 34.1021C32.3561 34.1117 32.413 35.0449 31.9113 35.6164C32.3561 35.7593 32.6591 35.5878 32.801 35.4068C32.943 35.2259 32.9904 34.9973 32.9904 34.9973C32.9904 34.9973 33.1134 34.9212 33.1323 34.7497C33.1418 34.5116 33.0376 34.5116 32.9525 34.464L32.9713 33.9307C32.9713 33.9307 32.4603 33.6163 32.3466 34.1021Z" fill="#FFC6B5" stroke="black" stroke-width="0.7585" stroke-linejoin="round"/>
<path d="M32.3183 35.4359L32.1668 35.3121" stroke="black" stroke-width="0.809" stroke-linecap="round"/>
<path fill-rule="evenodd" clip-rule="evenodd" d="M30.9223 21.1413C30.9223 21.1413 30.934 21.7118 30.8985 21.7713C30.8632 21.8308 30.5403 21.9813 30.5403 21.9813L30.8159 22.5716C30.8159 22.5716 31.5915 22.4608 31.5954 22.4608C31.5994 22.4608 31.9303 21.5772 31.9303 21.5772C31.9303 21.5772 31.7569 21.284 31.8003 20.9789C31.5404 20.1507 30.934 21.1453 30.9223 21.1413Z" fill="#FFC6B5" stroke="black" stroke-width="0.809"/>
<path fill-rule="evenodd" clip-rule="evenodd" d="M29.8951 34.7026C29.8951 34.7026 30.3305 35.1406 30.8321 35.0836C31.9679 34.9598 32.2991 33.9407 32.6493 33.9311C32.9995 33.9216 33.2172 34.5502 33.5484 34.4741C33.2645 33.9502 32.9616 32.7883 33.009 31.9692C33.0563 31.1501 33.0563 27.7025 33.0563 27.7025C33.0563 27.7025 32.4884 25.9215 32.2234 25.6262C32.4884 25.3405 32.6682 24.8357 32.6587 24.2833C32.6493 23.7309 32.6587 23.1214 32.6587 23.1214C32.6587 23.1214 32.7912 22.9691 32.7818 22.5405C32.7724 22.1118 32.0626 21.4929 31.9679 21.5214C31.8732 21.5499 30.9836 22.3214 30.9079 22.5022C30.8321 22.6833 30.7281 21.8451 30.8984 21.7689C31.0687 21.6928 30.5008 21.6451 30.1411 22.0737C29.7816 22.5024 29.8856 34.7214 29.8951 34.7021V34.7026Z" fill="#005121" stroke="black" stroke-width="0.7585" stroke-linejoin="round"/>
<path fill-rule="evenodd" clip-rule="evenodd" d="M25.6265 18.6768L28.9574 18.6888L28.9335 17.1446L30.147 17.1566L30.1589 18.6888H33.4779L33.4897 19.8859L30.1589 19.8979L30.1322 34.0154L28.9487 34.0229L28.9335 19.8862L25.6258 19.8981L25.6265 18.6771V18.6768Z" fill="black"/>
<path fill-rule="evenodd" clip-rule="evenodd" d="M28.9457 22.4159C28.9457 22.4159 28.7181 22.3755 28.5441 22.4293C28.3701 22.4833 28.8118 20.4427 28.8118 20.2743C28.9657 20.2003 29.7354 20.0588 29.7153 19.5133C29.6618 19.1833 28.5241 19.5336 28.5441 19.9511C28.4706 20.1598 27.7277 22.2878 27.8749 22.9883C28.1359 23.197 28.6178 23.1567 28.9457 23.1028V22.4159Z" fill="#FFC6B5" stroke="black" stroke-width="0.809"/>
<path d="M29.1662 19.4999C29.1662 19.4999 29.0993 19.877 29.4406 19.931L29.1662 19.4999Z" fill="black"/>
<path d="M29.1662 19.4999C29.1662 19.4999 29.0993 19.877 29.4406 19.931" stroke="black" stroke-width="0.379" stroke-linecap="round"/>
<path d="M29.6682 19.4931C29.6549 19.4998 29.2266 19.7692 29.2266 19.7692L29.6682 19.4931Z" fill="black"/>
<path d="M29.6682 19.4931C29.6549 19.4998 29.2266 19.7692 29.2266 19.7692M29.6421 19.6614L29.3409 19.8837M29.5281 19.4124L29.1935 19.6144" stroke="black" stroke-width="0.2275"/>
<path fill-rule="evenodd" clip-rule="evenodd" d="M26.2705 30.6929L29.3085 33.8644C30.3591 32.7025 29.6304 28.3594 28.2486 27.5596C28.083 28.0738 27.8014 28.6904 27.502 28.8892C26.8434 29.3409 25.2294 29.869 25.7689 30.2072C25.8918 30.0357 26.2137 29.8738 26.3651 30.2548C26.5449 30.8548 25.6931 30.8929 25.6931 30.8929C25.6931 30.8929 25.1537 30.8262 25.059 30.2738C24.9644 29.7215 25.8626 29.2172 25.9392 29.1786C26.0149 29.15 27.1885 28.8357 27.3873 27.7881C27.6334 26.7594 27.8889 26.9119 27.9363 26.8928C29.4695 27.0452 30.4727 29.8072 30.5295 31.7501C30.5863 33.6929 29.744 34.9787 29.5925 35.0644C29.4411 35.1501 25.9392 30.8834 25.9392 30.8834L26.2705 30.6929Z" fill="#FF9A08" stroke="black" stroke-width="0.809"/>
<path d="M28.485 27.7402L28.5038 33.4641M28.1442 27.8447L28.1631 33.0448M27.7753 28.5973L27.7941 32.7308M27.4729 28.8925L27.4919 32.3117M27.1504 29.0457V31.9314M26.8006 29.2738V31.5596M26.4976 29.4544V31.2068" stroke="black" stroke-width="0.809"/>
<path d="M29.507 28.7789C29.507 28.7789 30.9268 31.9028 29.6111 34.4743L29.507 28.7789ZM25.8539 30.3978C25.8539 30.3978 25.958 30.1216 26.0905 30.2359L25.8539 30.3978ZM25.6079 29.5974C25.6079 29.5974 25.04 30.1022 25.3524 30.4261L25.6079 29.5974Z" fill="black"/>
<path d="M26.223 31.0551L29.3558 34.6641M29.507 28.7789C29.507 28.7789 30.9268 31.9028 29.6111 34.4743M25.8539 30.3978C25.8539 30.3978 25.958 30.1216 26.0905 30.2359M25.6079 29.5974C25.6079 29.5974 25.04 30.1022 25.3524 30.4261" stroke="#FFDF00" stroke-width="0.7585" stroke-linecap="round"/>
<path d="M30.8609 22.5213C30.8609 22.5213 30.9082 22.9596 30.8135 23.2927C30.7189 23.626 31.1732 24.5499 31.0028 24.7404" fill="black"/>
<path d="M30.8609 22.5213C30.8609 22.5213 30.9082 22.9596 30.8135 23.2927C30.7189 23.626 31.1732 24.5499 31.0028 24.7404M31.0504 25.6355L32.2429 25.6259" stroke="black" stroke-width="0.809"/>
<path d="M30.6149 26.1214C30.6243 26.1403 30.7568 26.7499 30.7189 27.1689L30.6149 26.1214ZM31.003 26.3404C30.9651 26.4643 30.4729 27.8738 30.4919 27.9309L31.003 26.3404ZM31.2963 25.7024C31.3057 25.731 31.2584 26.5977 31.1259 26.7215L31.2963 25.7024ZM31.902 25.6354C31.902 25.6354 32.6782 27.445 32.6687 28.1594C32.6593 28.8736 32.9337 30.3213 32.754 30.9594M32.148 28.1409C32.148 28.1409 32.0911 29.4838 31.5328 30.0075C30.9744 30.5314 32.8673 32.0267 32.8673 32.0267" fill="black"/>
<path d="M30.6149 26.1214C30.6243 26.1403 30.7568 26.7499 30.7189 27.1689M31.003 26.3404C30.9651 26.4643 30.4729 27.8738 30.4919 27.9309M31.2963 25.7024C31.3057 25.731 31.2584 26.5977 31.1259 26.7215M31.902 25.6354C31.902 25.6354 32.6782 27.445 32.6687 28.1594C32.6593 28.8736 32.9337 30.3213 32.754 30.9594M32.148 28.1409C32.148 28.1409 32.0911 29.4838 31.5328 30.0075C30.9744 30.5314 32.8673 32.0267 32.8673 32.0267" stroke="black" stroke-width="0.809" stroke-linecap="round"/>
<path d="M32.1288 31.9406C32.1288 31.9406 32.337 33.7882 32.6872 33.9216L32.1288 31.9406ZM30.4161 28.8448C30.4256 28.8639 30.2269 30.0924 30.3877 30.2925C30.5487 30.4925 31.8832 32.3687 31.8264 34.3117M31.4474 33.7308C31.4474 33.7308 31.4094 34.9023 30.3304 34.9976L31.4474 33.7308ZM31.1258 32.96C31.1258 32.96 31.4476 34.179 30.3497 34.9505L31.1258 32.96Z" fill="black"/>
<path d="M32.1288 31.9406C32.1288 31.9406 32.337 33.7882 32.6872 33.9216M30.4161 28.8448C30.4256 28.8639 30.2269 30.0924 30.3877 30.2925C30.5487 30.4925 31.8832 32.3687 31.8264 34.3117M31.4474 33.7308C31.4474 33.7308 31.4094 34.9023 30.3304 34.9976M31.1258 32.96C31.1258 32.96 31.4476 34.179 30.3497 34.9505" stroke="black" stroke-width="0.7585" stroke-linecap="round"/>
<path d="M31.5512 30.0163C31.5512 30.0163 32.791 31.3117 32.8479 31.8832L31.5512 30.0163ZM31.911 25.6638C31.911 25.6638 32.1288 26.5876 32.0436 26.7496L31.911 25.6638Z" fill="black"/>
<path d="M31.5512 30.0163C31.5512 30.0163 32.791 31.3117 32.8479 31.8832M31.911 25.6638C31.911 25.6638 32.1288 26.5876 32.0436 26.7496" stroke="black" stroke-width="0.809" stroke-linecap="round"/>
<path fill-rule="evenodd" clip-rule="evenodd" d="M28.0868 27.5617C28.0868 27.5617 27.954 27.3279 27.9706 27.069C27.9873 26.8102 27.9291 26.4095 28.7589 26.0838C29.265 25.5662 29.8292 25.2573 30.1361 25.0987C30.5842 24.8064 30.8747 24.8732 31.1401 24.773C31.3144 24.5727 31.306 24.1301 31.4885 23.7378C31.6711 23.3453 31.9947 22.5355 32.3431 22.6608C32.6917 22.786 32.4179 23.838 32.285 24.2053C32.1523 24.5728 32.0362 24.9568 31.8039 25.1822C31.5715 25.4077 30.5179 25.8168 30.3104 25.8919C30.1029 25.9671 29.1571 26.184 28.9165 26.5182C28.6759 26.8521 28.6924 27.3446 28.0868 27.5617Z" fill="#FFC6B5" stroke="black" stroke-width="0.809"/>
<path d="M28.0201 26.8608C28.0451 26.8525 28.435 26.7272 28.6175 27.0779L28.0201 26.8608Z" fill="black"/>
<path d="M28.0201 26.8608C28.0451 26.8525 28.435 26.7272 28.6175 27.0779" stroke="black" stroke-width="0.809"/>
<path fill-rule="evenodd" clip-rule="evenodd" d="M30.9495 19.7016C30.9495 19.7016 30.7741 19.9893 30.7255 20.1643C30.6878 20.2951 30.5662 20.1554 30.502 20.4389L30.6062 20.4573C30.5647 20.5408 30.5512 20.6818 30.543 20.7153C30.5346 20.7487 30.4762 20.9013 30.4849 21.0158C30.4896 21.075 30.6011 21.3332 31.5054 20.9408C32.4098 20.5483 31.215 19.4344 30.9495 19.7016Z" fill="#FFC6B5" stroke="black" stroke-width="0.7585" stroke-linejoin="round"/>
<path fill-rule="evenodd" clip-rule="evenodd" d="M30.8478 19.7384C30.9406 19.6883 31.5994 19.6299 31.4897 20.924C31.6164 20.9072 31.6924 20.8905 31.7683 21.0157C31.8443 21.1411 31.8359 21.2913 31.9709 21.2913C32.1062 21.2913 32.1231 21.2663 32.1569 21.1661C32.1905 21.0659 32.7143 21.2829 32.8493 20.8154C32.8259 20.7244 32.5284 20.5817 32.4945 20.4147C32.5706 20.1809 32.4608 19.4212 31.4981 19.3793C30.9998 19.371 30.8985 19.5797 30.8478 19.7384Z" fill="#C59200" stroke="black" stroke-width="0.765" stroke-linecap="round" stroke-linejoin="round"/>
<path d="M30.7993 19.9973C30.8076 20.0056 31.0981 20.0891 31.1312 20.2311L30.7993 19.9973Z" fill="black"/>
<path d="M30.7993 19.9973C30.8076 20.0056 31.0981 20.0891 31.1312 20.2311" stroke="black" stroke-width="0.809" stroke-linecap="round"/>
<path fill-rule="evenodd" clip-rule="evenodd" d="M30.9776 20.3409C30.9776 20.3847 30.9442 20.4202 30.9029 20.4202C30.8615 20.4202 30.8281 20.3847 30.8281 20.341C30.8281 20.2972 30.8615 20.2617 30.9029 20.2617C30.9442 20.2617 30.9776 20.2972 30.9776 20.3409Z" fill="black"/>
<path d="M32.2065 20.3449C32.2065 20.3449 32.1001 20.86 32.5687 21.062L32.2065 20.3449ZM31.8597 20.4083C31.8597 20.4083 32.0333 20.4162 32.0333 20.5787C32.0333 20.7411 31.8908 20.7609 31.9026 20.8918C31.9145 21.0225 32.1471 21.066 32.155 21.1769M31.0997 19.4573C31.1076 19.4573 31.9306 19.5525 31.8833 19.7585C31.8361 19.9645 31.7061 19.8813 31.7101 20.0596C31.714 20.2379 32.0408 20.131 32.0408 20.131C32.0408 20.131 32.0606 19.9803 32.1983 19.9923C32.3361 20.0041 32.2731 20.1626 32.4621 20.1586" fill="black"/>
<path d="M32.2065 20.3449C32.2065 20.3449 32.1001 20.86 32.5687 21.062M31.8597 20.4083C31.8597 20.4083 32.0333 20.4162 32.0333 20.5787C32.0333 20.7411 31.8908 20.7609 31.9026 20.8918C31.9145 21.0225 32.1471 21.066 32.155 21.1769M31.0997 19.4573C31.1076 19.4573 31.9306 19.5525 31.8833 19.7585C31.8361 19.9645 31.7061 19.8813 31.7101 20.0596C31.714 20.2379 32.0408 20.131 32.0408 20.131C32.0408 20.131 32.0606 19.9803 32.1983 19.9923C32.3361 20.0041 32.2731 20.1626 32.4621 20.1586" stroke="black" stroke-width="0.7585" stroke-linecap="round" stroke-linejoin="round"/>
<path d="M30.5966 20.7422L30.7917 20.7357" stroke="black" stroke-width="0.7585" stroke-linecap="round"/>
<path d="M31.1047 21.5778C31.1047 21.5778 31.1773 21.9185 30.9031 21.8861L31.1047 21.5778Z" fill="black"/>
<path d="M31.1047 21.5778C31.1047 21.5778 31.1773 21.9185 30.9031 21.8861" stroke="black" stroke-width="0.809" stroke-linecap="round"/>
<path d="M-13.3334 0.00531006V2.37531L15.304 21.2028H18.9086V18.8329L-9.72871 0.00539339H-13.3334V0.00531006ZM18.9086 0.00531006V2.37523L-9.72871 21.2028H-13.3334V18.8329L15.304 0.00531006H18.9086Z" fill="white"/>
<path d="M0.100794 0.00531006V21.2028H5.47446V0.00531006H0.100794ZM-13.3334 7.07115V14.1369H18.9086V7.07115H-13.3334Z" fill="white"/>
<path d="M-13.3334 8.48427V12.7238H18.9086V8.48427H-13.3334ZM1.17554 0.00531006V21.2028H4.39971V0.00531006H1.17554ZM-13.3334 21.2028L-2.58604 14.1369H-0.182958L-10.9303 21.2028H-13.3334ZM-13.3334 0.00531006L-2.58604 7.07115H-4.98912L-13.3334 1.58531V0.00531006ZM5.75821 7.07115L16.5055 0.00531006H18.9086L8.16129 7.07115H5.75821ZM18.9086 21.2028L8.16129 14.1369H10.5644L18.9086 19.6229V21.2028Z" fill="#CC0000"/>
</g>
</g>
</g>
<defs>
<clipPath id="clip0_16699_272093">
<rect width="40" height="40" fill="white"/>
</clipPath>
</defs>
</svg>
