<svg width="40" height="40" viewBox="0 0 40 40" fill="none" xmlns="http://www.w3.org/2000/svg">
<g clip-path="url(#clip0_16699_272473)">
<mask id="mask0_16699_272473" style="mask-type:luminance" maskUnits="userSpaceOnUse" x="0" y="0" width="40" height="40">
<path d="M40 0H0V40H40V0Z" fill="white"/>
</mask>
<g mask="url(#mask0_16699_272473)">
<mask id="mask1_16699_272473" style="mask-type:luminance" maskUnits="userSpaceOnUse" x="0" y="0" width="40" height="40">
<path d="M40 20C40 8.95433 31.0457 0 20 0C8.95433 0 0 8.95433 0 20C0 31.0457 8.95433 40 20 40C31.0457 40 40 31.0457 40 20Z" fill="white"/>
</mask>
<g mask="url(#mask1_16699_272473)">
<path d="M40 20C40 8.95433 31.0457 0 20 0C8.95433 0 0 8.95433 0 20C0 31.0457 8.95433 40 20 40C31.0457 40 40 31.0457 40 20Z" fill="#D21034"/>
<path d="M42 5H-2V34.3333H42V5Z" fill="#D21034"/>
<path d="M6 20C6 27.732 12.268 34 20 34C27.732 34 34 27.732 34 20C34 12.268 27.732 6 20 6C12.268 6 6 12.268 6 20Z" fill="#007E3A"/>
<path d="M21.8342 24.5555C24.5343 24.5555 26.7231 22.3666 26.7231 19.6666C26.7231 16.9666 24.5343 14.7776 21.8342 14.7776C19.1341 14.7776 16.9453 16.9666 16.9453 19.6666C16.9453 22.3666 19.1341 24.5555 21.8342 24.5555Z" fill="white"/>
<path d="M23.6663 24.5555C26.3663 24.5555 28.5552 22.3666 28.5552 19.6666C28.5552 16.9666 26.3663 14.7776 23.6663 14.7776C20.9663 14.7776 18.7773 16.9666 18.7773 19.6666C18.7773 22.3666 20.9663 24.5555 23.6663 24.5555Z" fill="#007E3A"/>
</g>
</g>
</g>
<defs>
<clipPath id="clip0_16699_272473">
<rect width="40" height="40" fill="white"/>
</clipPath>
</defs>
</svg>
