<svg width="40" height="40" viewBox="0 0 40 40" fill="none" xmlns="http://www.w3.org/2000/svg">
<g clip-path="url(#clip0_16699_272487)">
<mask id="mask0_16699_272487" style="mask-type:luminance" maskUnits="userSpaceOnUse" x="0" y="0" width="40" height="40">
<path d="M40 0H0V40H40V0Z" fill="white"/>
</mask>
<g mask="url(#mask0_16699_272487)">
<mask id="mask1_16699_272487" style="mask-type:luminance" maskUnits="userSpaceOnUse" x="0" y="0" width="40" height="40">
<path d="M40 20C40 8.95433 31.0457 0 20 0C8.95433 0 0 8.95433 0 20C0 31.0457 8.95433 40 20 40C31.0457 40 40 31.0457 40 20Z" fill="white"/>
</mask>
<g mask="url(#mask1_16699_272487)">
<path d="M-10 0H50V40H-10V0Z" fill="black"/>
<path d="M19.8918 21.9181C23.7337 21.9181 26.8481 18.8037 26.8481 14.9619C26.8481 11.12 23.7337 8.00555 19.8918 8.00555C16.05 8.00555 12.9355 11.12 12.9355 14.9619C12.9355 18.8037 16.05 21.9181 19.8918 21.9181Z" fill="#CE1126"/>
<path d="M19.888 3.96259C19.6543 3.96259 19.5645 4.31309 19.5645 4.6636C19.5645 5.50843 19.6679 5.95009 19.888 7.19806C20.1081 5.95009 20.2115 5.50843 20.2115 4.6636C20.2115 4.31309 20.1217 3.96259 19.888 3.96259Z" fill="#CE1126"/>
<path d="M20.8478 4.00447C20.615 3.98411 20.4948 4.32544 20.4643 4.67463C20.3908 5.51623 20.4553 5.96523 20.5658 7.22764C20.8938 6.00359 21.0353 5.57263 21.109 4.73103C21.1396 4.38184 21.0806 4.02484 20.8478 4.00447Z" fill="#CE1126"/>
<path d="M21.7992 4.12907C21.569 4.08849 21.4197 4.41807 21.3587 4.76326C21.212 5.59524 21.2373 6.04816 21.2373 7.31539C21.6707 6.12459 21.8493 5.70761 21.996 4.87562C22.0569 4.53044 22.0292 4.16964 21.7992 4.12907Z" fill="#CE1126"/>
<path d="M22.7364 4.3366C22.5107 4.27611 22.3332 4.59142 22.2424 4.92998C22.0238 5.74602 22.0094 6.19942 21.8989 7.46182C22.4345 6.31332 22.6488 5.91351 22.8674 5.09746C22.9583 4.75891 22.9622 4.39707 22.7364 4.3366Z" fill="#CE1126"/>
<path d="M23.6516 4.62473C23.432 4.54481 23.2277 4.84344 23.1079 5.17281C22.8189 5.96669 22.765 6.41711 22.545 7.66509C23.1786 6.56763 23.427 6.188 23.716 5.39413C23.8357 5.06476 23.8712 4.70465 23.6516 4.62473Z" fill="#CE1126"/>
<path d="M24.5373 4.99215C24.3255 4.89339 24.0959 5.17308 23.9478 5.49075C23.5908 6.25641 23.4979 6.70044 23.1699 7.92449C23.8968 6.88643 24.1773 6.52989 24.5343 5.76421C24.6824 5.44655 24.7491 5.0909 24.5373 4.99215Z" fill="#CE1126"/>
<path d="M25.3896 5.43521C25.1873 5.31839 24.9341 5.577 24.7589 5.88055C24.3365 6.61218 24.2054 7.04641 23.7719 8.23722C24.5864 7.26646 24.8969 6.93573 25.3194 6.2041C25.4945 5.90055 25.5919 5.55206 25.3896 5.43521Z" fill="#CE1126"/>
<path d="M26.1986 5.95072C26.0072 5.81669 25.7325 6.05227 25.5315 6.33938C25.0469 7.03142 24.8784 7.45257 24.3428 8.60108C25.2389 7.705 25.577 7.40257 26.0616 6.71054C26.2626 6.42342 26.39 6.08475 26.1986 5.95072Z" fill="#CE1126"/>
<path d="M26.9607 6.53476C26.7817 6.38456 26.4876 6.59529 26.2623 6.86379C25.7192 7.51097 25.5146 7.91582 24.881 9.01326C25.8518 8.19872 26.2149 7.92692 26.758 7.27974C26.9833 7.01123 27.1397 6.68497 26.9607 6.53476Z" fill="#CE1126"/>
<path d="M27.6683 7.18316C27.5032 7.01793 27.1917 7.20223 26.9438 7.45008C26.3465 8.04745 26.1073 8.43292 25.3805 9.471C26.4185 8.74417 26.804 8.505 27.4014 7.90764C27.6493 7.65979 27.8337 7.34839 27.6683 7.18316Z" fill="#CE1126"/>
<path d="M28.3154 7.89088C28.1652 7.71188 27.8389 7.86833 27.5704 8.09363C26.9232 8.63666 26.6514 8.99983 25.8369 9.97058C26.9343 9.33699 27.3392 9.13241 27.9864 8.58933C28.2549 8.36399 28.4656 8.06988 28.3154 7.89088Z" fill="#CE1126"/>
<path d="M28.9005 8.65226C28.7665 8.46084 28.4278 8.58826 28.1407 8.78934C27.4487 9.27393 27.1462 9.61201 26.2502 10.5081C27.3987 9.97251 27.8198 9.80401 28.5118 9.31943C28.799 9.11834 29.0346 8.84368 28.9005 8.65226Z" fill="#CE1126"/>
<path d="M29.4137 9.4615C29.2969 9.25908 28.9484 9.3565 28.6449 9.53175C27.9132 9.95416 27.5824 10.2647 26.6117 11.0792C27.8024 10.6457 28.2368 10.5146 28.9684 10.0922C29.2719 9.91692 29.5306 9.66383 29.4137 9.4615Z" fill="#CE1126"/>
<path d="M29.8556 10.3127C29.7567 10.1009 29.4012 10.1677 29.0835 10.3158C28.3177 10.6728 27.9612 10.9532 26.9232 11.6802C28.1472 11.3522 28.5912 11.2593 29.357 10.9022C29.6747 10.7542 29.9542 10.5246 29.8556 10.3127Z" fill="#CE1126"/>
<path d="M30.2259 11.1991C30.146 10.9794 29.7859 11.0149 29.4565 11.1347C28.6626 11.4237 28.283 11.6721 27.1855 12.3057C28.4335 12.0857 28.8839 12.0318 29.6778 11.7428C30.0072 11.6229 30.3058 11.4187 30.2259 11.1991Z" fill="#CE1126"/>
<path d="M30.5154 12.1142C30.4549 11.8886 30.0931 11.8924 29.7545 11.9832C28.9385 12.2018 28.5386 12.4162 27.3901 12.9517C28.6526 12.8412 29.106 12.8269 29.922 12.6082C30.2606 12.5176 30.5759 12.3401 30.5154 12.1142Z" fill="#CE1126"/>
<path d="M9.05613 13.0509C9.01555 13.2811 9.34513 13.4304 9.6903 13.4913C10.5223 13.6379 10.9752 13.6128 12.2424 13.6128C11.0516 13.1793 10.6346 13.0008 9.80263 12.8541C9.45747 12.7932 9.09672 12.8208 9.05613 13.0509Z" fill="#CE1126"/>
<path d="M9.26336 12.1139C9.20286 12.3397 9.51819 12.5172 9.85678 12.6079C10.6729 12.8266 11.1263 12.8409 12.3886 12.9513C11.2401 12.4158 10.8403 12.2016 10.0243 11.9828C9.68569 11.8922 9.32386 11.8883 9.26336 12.1139Z" fill="#CE1126"/>
<path d="M9.55393 11.1991C9.47401 11.4187 9.77268 11.6229 10.102 11.7428C10.8959 12.0318 11.3463 12.0857 12.5943 12.3057C11.4969 11.6721 11.1172 11.4237 10.3234 11.1347C9.99401 11.0149 9.63384 10.9794 9.55393 11.1991Z" fill="#CE1126"/>
<path d="M9.92183 10.3117C9.82308 10.5235 10.1028 10.7531 10.4204 10.9012C11.1861 11.2582 11.6301 11.3512 12.8542 11.6791C11.8161 10.9522 11.4596 10.6717 10.6939 10.3147C10.3762 10.1667 10.0206 10.1 9.92183 10.3117Z" fill="#CE1126"/>
<path d="M10.3629 9.46049C10.2462 9.66282 10.5048 9.9159 10.8083 10.0912C11.5399 10.5136 11.9742 10.6448 13.1651 11.0782C12.1943 10.2637 11.8636 9.95315 11.1318 9.53082C10.8283 9.35557 10.4798 9.25815 10.3629 9.46049Z" fill="#CE1126"/>
<path d="M10.8789 8.65098C10.7449 8.8424 10.9805 9.11707 11.2677 9.31807C11.9597 9.80265 12.3808 9.97123 13.5293 10.5067C12.6333 9.61065 12.3308 9.27257 11.6388 8.78798C11.3517 8.58698 11.013 8.45956 10.8789 8.65098Z" fill="#CE1126"/>
<path d="M11.4637 7.88993C11.3136 8.06893 11.5242 8.3631 11.7927 8.58835C12.44 9.13143 12.8447 9.33602 13.9422 9.96968C13.1277 8.99893 12.8559 8.63568 12.2087 8.09268C11.9402 7.86738 11.614 7.71093 11.4637 7.88993Z" fill="#CE1126"/>
<path d="M12.1115 7.18249C11.9463 7.34772 12.1306 7.65912 12.3784 7.90697C12.9758 8.50432 13.3613 8.74348 14.3994 9.47032C13.6725 8.43223 13.4334 8.04678 12.836 7.44941C12.5882 7.20156 12.2768 7.01726 12.1115 7.18249Z" fill="#CE1126"/>
<path d="M12.818 6.53408C12.639 6.68428 12.7955 7.01057 13.0207 7.27908C13.5637 7.92625 13.927 8.19805 14.8977 9.01258C14.2641 7.91516 14.0595 7.5103 13.5165 6.86313C13.2911 6.59463 12.997 6.38388 12.818 6.53408Z" fill="#CE1126"/>
<path d="M13.5793 5.94975C13.3879 6.08377 13.5153 6.42245 13.7164 6.70956C14.2009 7.4016 14.5391 7.70402 15.4352 8.60008C14.8996 7.4516 14.7311 7.03043 14.2464 6.33841C14.0454 6.05128 13.7707 5.81571 13.5793 5.94975Z" fill="#CE1126"/>
<path d="M14.3896 5.43424C14.1872 5.55108 14.2846 5.89957 14.4598 6.20312C14.8822 6.93475 15.1927 7.2655 16.0072 8.23625C15.5738 7.04545 15.4427 6.61121 15.0202 5.87957C14.8449 5.57602 14.5918 5.31741 14.3896 5.43424Z" fill="#CE1126"/>
<path d="M15.2422 4.99056C15.0305 5.08931 15.0971 5.44496 15.2453 5.76264C15.6023 6.5283 15.8827 6.88485 16.6096 7.9229C16.2816 6.69885 16.1888 6.25483 15.8317 5.48916C15.6836 5.17149 15.454 4.89181 15.2422 4.99056Z" fill="#CE1126"/>
<path d="M16.1242 4.62442C15.9046 4.70434 15.9401 5.06446 16.06 5.39382C16.3488 6.18769 16.5972 6.56732 17.2307 7.66477C17.0107 6.41681 16.957 5.96637 16.668 5.17251C16.5481 4.84313 16.3437 4.54451 16.1242 4.62442Z" fill="#CE1126"/>
<path d="M17.0389 4.33596C16.8132 4.39643 16.817 4.75827 16.9078 5.09682C17.1264 5.91286 17.3407 6.31268 17.8763 7.46118C17.7658 6.19877 17.7515 5.74537 17.5328 4.92934C17.442 4.59077 17.2645 4.27547 17.0389 4.33596Z" fill="#CE1126"/>
<path d="M17.9788 4.12806C17.7487 4.16864 17.721 4.52943 17.7819 4.87463C17.9285 5.7066 18.1072 6.12358 18.5405 7.31439C18.5405 6.04716 18.5659 5.59423 18.4192 4.76225C18.3583 4.41706 18.2089 4.08749 17.9788 4.12806Z" fill="#CE1126"/>
<path d="M18.9297 4.00282C18.6971 4.02318 18.6381 4.38019 18.6686 4.72937C18.7422 5.57097 18.8837 6.00193 19.2117 7.22598C19.3222 5.96358 19.3868 5.51457 19.3132 4.67297C19.2826 4.32379 19.1626 3.98245 18.9297 4.00282Z" fill="#CE1126"/>
<path d="M-10 12.3333H50V39.9999H-10V12.3333Z" fill="black"/>
<path d="M-10 13.3333H50V40H-10V13.3333Z" fill="#CE1126"/>
<path d="M-10 26.6667H50V40.0001H-10V26.6667Z" fill="#339E35"/>
</g>
</g>
</g>
<defs>
<clipPath id="clip0_16699_272487">
<rect width="40" height="40" fill="white"/>
</clipPath>
</defs>
</svg>
