<svg width="40" height="40" viewBox="0 0 40 40" fill="none" xmlns="http://www.w3.org/2000/svg">
<g clip-path="url(#clip0_16699_272932)">
<mask id="mask0_16699_272932" style="mask-type:luminance" maskUnits="userSpaceOnUse" x="0" y="0" width="40" height="40">
<path d="M40 0H0V40H40V0Z" fill="white"/>
</mask>
<g mask="url(#mask0_16699_272932)">
<mask id="mask1_16699_272932" style="mask-type:luminance" maskUnits="userSpaceOnUse" x="0" y="0" width="40" height="40">
<path d="M40 20C40 8.95433 31.0457 0 20 0C8.95433 0 0 8.95433 0 20C0 31.0457 8.95433 40 20 40C31.0457 40 40 31.0457 40 20Z" fill="white"/>
</mask>
<g mask="url(#mask1_16699_272932)">
<path d="M63 0H3V40H63V0Z" fill="black"/>
<path d="M63 0H3V13.75H63V0Z" fill="white"/>
<path d="M63 0H3V12.5H63V0Z" fill="#009639"/>
<path d="M63 26.2331H3V39.9997H63V26.2331Z" fill="white"/>
<path d="M63 27.5H3V40H63V27.5Z" fill="#FFD100"/>
<path d="M0 -2.28583V42.2856L29.25 19.9999L0 -2.28583Z" fill="#E4002B"/>
<path d="M16.6241 27.4987L11.7472 23.928L6.87681 27.4997L8.76567 21.758L3.86377 18.2297L9.90809 18.2518L11.7488 12.4997L13.5957 18.255L19.6352 18.2281L14.7323 21.763L16.6241 27.4987Z" fill="#FFD100"/>
<path fill-rule="evenodd" clip-rule="evenodd" d="M7.51379 23.4952H11.027C11.3097 23.8123 11.9405 23.9416 12.5411 23.4915C13.6424 22.8885 15.7726 23.4952 15.7726 23.4952L16.1921 23.0496L15.1696 19.6936L14.8025 19.3002C14.8025 19.3002 14.016 18.8285 12.5215 18.9857C11.027 19.1431 10.5026 18.9332 10.5026 18.9332C10.5026 18.9332 9.19179 19.0906 8.82471 19.2741C8.78438 19.3067 8.40521 19.6936 8.40521 19.6936L7.51379 23.4952Z" fill="white" stroke="black" stroke-width="0.0524885" stroke-linecap="round" stroke-linejoin="round"/>
<path d="M8.22278 22.6298C8.22278 22.6298 11.5787 22.2103 12.5489 23.495C12.001 23.8698 11.5185 23.9008 11.002 23.5212C11.0842 23.3842 12.208 22.2103 15.0657 22.6037" stroke="black" stroke-width="0.0524885" stroke-linecap="round" stroke-linejoin="round"/>
<path d="M11.8135 19.2741L11.7872 22.9709M14.8024 19.3265L15.4316 22.263M8.85914 19.2804L8.50989 20.7947" stroke="black" stroke-width="0.0524885" stroke-linecap="round" stroke-linejoin="round"/>
<path fill-rule="evenodd" clip-rule="evenodd" d="M5.23254 23.8977L6.05878 24.8663C6.15579 24.9243 6.24198 24.9205 6.32817 24.8663L7.55265 23.397L8.06694 22.7603C8.14657 22.6659 8.17199 22.5608 8.16489 22.4664L9.14813 21.5928C9.22854 21.5983 9.27646 21.6073 9.35688 21.6128C9.26179 21.5883 9.19213 21.5419 9.26696 21.4378L9.48729 21.2664L9.65871 21.4868C9.65871 21.4868 9.41388 21.8052 9.38938 21.8052H9.11996L8.60571 22.2705L8.83054 22.4693L9.16896 23.397L9.58529 23.103L9.31588 22.148L9.90371 21.5113L9.68321 21.1684L9.83021 20.9724C9.83021 20.9724 11.8645 22.2533 12.6481 21.9103C12.6692 21.918 12.6955 20.997 12.6955 20.997C12.6955 20.997 10.5895 20.7767 10.5404 20.3603C10.4915 19.9439 11.0057 19.895 11.0057 19.895L10.7852 19.5767L10.8342 19.4052L11.2016 19.8704L12.0344 19.1603L16.9321 24.7439C17.1995 24.6355 17.2566 24.57 17.275 24.3032C17.2681 24.2963 12.4751 18.7929 12.4751 18.7929L12.8425 18.4012C12.9149 18.3195 12.9402 18.2848 12.9404 18.1562L13.5036 17.6664C13.673 17.7247 13.781 17.8262 13.871 17.9603L15.4195 16.6478C15.4604 16.6887 15.5842 16.7295 15.6685 16.6837L18.2285 14.2263L15.4384 16.197L15.3404 16.1235C15.3404 16.0419 15.4415 16.0218 15.3404 15.8787C15.232 15.7485 15.071 16.0012 15.0465 16.0012C15.022 16.0012 14.6426 15.867 14.5595 15.6973L14.5322 16.148L13.822 16.8093L13.2832 16.7848L12.4995 17.5439L12.4016 17.8378L12.524 18.0828C12.524 18.0828 12.1077 18.4502 12.1077 18.4255C12.1077 18.4012 12.0235 18.3173 12.02 18.3065L12.3771 17.9848L12.426 17.7643L12.307 17.5783C12.2707 17.6045 11.8139 18.0828 11.7894 18.0338C11.7485 17.988 10.467 16.5398 10.467 16.5398L10.5404 16.2705L9.70779 15.3643C9.40421 15.2595 8.92404 15.2419 8.82613 15.9032C8.74979 16.0584 8.11591 15.9277 8.11591 15.9277L7.77305 16.0012L5.83837 18.7439L6.91592 20.0418L9.11996 17.25L9.18546 16.4592L9.64788 16.9763C9.80204 16.996 9.94896 16.9978 10.0887 16.9273L11.3945 18.3848L11.1771 18.5969C11.2505 18.6787 11.3011 18.7308 11.3746 18.8124C11.4481 18.7634 11.5182 18.7047 11.5917 18.6557C11.6162 18.6883 11.657 18.7504 11.6815 18.783C11.5721 18.8427 11.4954 18.9219 11.386 18.9814C11.2109 18.8673 11.0419 18.7253 11.0546 18.499L10.32 19.1113L10.2955 19.2338L8.11591 21.0459L7.91999 21.0704L7.87102 21.6338L9.29138 20.4583V20.2868L9.43838 20.4093L10.5404 19.5277C10.5404 19.5277 10.6139 19.6255 10.5895 19.6255C10.5649 19.6255 9.60979 20.5073 9.60979 20.5073L9.58529 20.6052L9.41388 20.7522L9.31588 20.6787L7.99345 21.8542H7.79754L7.06285 22.5888C6.87335 22.6053 6.70915 22.6254 6.54857 22.7358L5.23254 23.8977Z" fill="black" stroke="black" stroke-width="0.0524885" stroke-linecap="round" stroke-linejoin="round"/>
</g>
</g>
</g>
<defs>
<clipPath id="clip0_16699_272932">
<rect width="40" height="40" fill="white"/>
</clipPath>
</defs>
</svg>
