<svg width="40" height="40" viewBox="0 0 40 40" fill="none" xmlns="http://www.w3.org/2000/svg">
<g clip-path="url(#clip0_16699_272952)">
<mask id="mask0_16699_272952" style="mask-type:luminance" maskUnits="userSpaceOnUse" x="0" y="0" width="40" height="40">
<path d="M40 0H0V40H40V0Z" fill="white"/>
</mask>
<g mask="url(#mask0_16699_272952)">
<mask id="mask1_16699_272952" style="mask-type:luminance" maskUnits="userSpaceOnUse" x="0" y="0" width="40" height="40">
<path d="M40 20C40 8.95433 31.0457 0 20 0C8.95433 0 0 8.95433 0 20C0 31.0457 8.95433 40 20 40C31.0457 40 40 31.0457 40 20Z" fill="white"/>
</mask>
<g mask="url(#mask1_16699_272952)">
<path d="M0 40V0H60L0 40Z" fill="#003580"/>
<path d="M60 0V40H0L60 0Z" fill="#009543"/>
<mask id="mask2_16699_272952" style="mask-type:luminance" maskUnits="userSpaceOnUse" x="0" y="0" width="60" height="40">
<path d="M0 0H60V40H0V0Z" fill="white"/>
</mask>
<g mask="url(#mask2_16699_272952)">
<path d="M0 40L60 0" stroke="white" stroke-width="6.66665"/>
<path d="M0 40L60 0" stroke="#D21034" stroke-width="5"/>
</g>
<path d="M13.0007 5.22784L14.036 8.03117L16.334 6.12117L15.8293 9.06648L18.774 8.56114L16.8647 10.8598L19.6673 11.8945L16.8647 12.9298L18.774 15.2278L15.8293 14.7232L16.334 17.6685L14.036 15.7585L13.0007 18.5612L11.9653 15.7585L9.66733 17.6685L10.172 14.7232L7.22733 15.2278L9.13667 12.9298L6.33398 11.8945L9.13667 10.8598L7.22733 8.56114L10.172 9.06648L9.66733 6.12117L11.9653 8.03117L13.0007 5.22784Z" fill="#FFCE00"/>
<path d="M12.9987 15.5612C15.0237 15.5612 16.6654 13.9196 16.6654 11.8945C16.6654 9.86948 15.0237 8.22784 12.9987 8.22784C10.9737 8.22784 9.33203 9.86948 9.33203 11.8945C9.33203 13.9196 10.9737 15.5612 12.9987 15.5612Z" stroke="#003580" stroke-width="0.333333"/>
</g>
</g>
</g>
<defs>
<clipPath id="clip0_16699_272952">
<rect width="40" height="40" fill="white"/>
</clipPath>
</defs>
</svg>
