<svg width="40" height="40" viewBox="0 0 40 40" fill="none" xmlns="http://www.w3.org/2000/svg">
<g clip-path="url(#clip0_16699_272988)">
<mask id="mask0_16699_272988" style="mask-type:luminance" maskUnits="userSpaceOnUse" x="0" y="0" width="40" height="40">
<path d="M40 0H0V40H40V0Z" fill="white"/>
</mask>
<g mask="url(#mask0_16699_272988)">
<mask id="mask1_16699_272988" style="mask-type:luminance" maskUnits="userSpaceOnUse" x="0" y="0" width="40" height="40">
<path d="M40 20C40 8.95433 31.0457 0 20 0C8.95433 0 0 8.95433 0 20C0 31.0457 8.95433 40 20 40C31.0457 40 40 31.0457 40 20Z" fill="white"/>
</mask>
<g mask="url(#mask1_16699_272988)">
<path d="M49.9739 0H-10V40H49.9739V0Z" fill="#0DB02B"/>
<path d="M49.9738 0H-10V26.6667H49.9738V0Z" fill="white"/>
<path d="M49.9738 0H-10V13.3333H49.9738V0Z" fill="#E05206"/>
<path d="M20.0806 25.6666C23.2102 25.6666 25.7473 23.1296 25.7473 20C25.7473 16.8703 23.2102 14.3333 20.0806 14.3333C16.9511 14.3333 14.4141 16.8703 14.4141 20C14.4141 23.1296 16.9511 25.6666 20.0806 25.6666Z" fill="#E05206"/>
</g>
</g>
</g>
<defs>
<clipPath id="clip0_16699_272988">
<rect width="40" height="40" fill="white"/>
</clipPath>
</defs>
</svg>
