<svg width="40" height="40" viewBox="0 0 40 40" fill="none" xmlns="http://www.w3.org/2000/svg">
<g clip-path="url(#clip0_16699_273026)">
<mask id="mask0_16699_273026" style="mask-type:luminance" maskUnits="userSpaceOnUse" x="0" y="0" width="40" height="40">
<path d="M40 0H0V40H40V0Z" fill="white"/>
</mask>
<g mask="url(#mask0_16699_273026)">
<mask id="mask1_16699_273026" style="mask-type:luminance" maskUnits="userSpaceOnUse" x="0" y="0" width="40" height="40">
<path d="M40 20C40 8.95433 31.0457 0 20 0C8.95433 0 0 8.95433 0 20C0 31.0457 8.95433 40 20 40C31.0457 40 40 31.0457 40 20Z" fill="white"/>
</mask>
<g mask="url(#mask1_16699_273026)">
<path d="M-10 0H50V40H-10V0Z" fill="#0067C6"/>
<path d="M-10 13.3333H50.0402V26.6666H-10V13.3333Z" fill="white"/>
<path d="M13.959 19.9553L14.6242 19.9997C14.6265 19.9673 14.6285 19.9349 14.6307 19.9025L14.3691 19.8851C14.3757 19.7782 14.3847 19.6714 14.3894 19.5644C14.4819 19.4975 14.5746 19.4307 14.6667 19.3633L14.6751 19.2401L14.3825 19.4525C14.3727 19.3833 14.3344 19.312 14.2649 19.2879C14.204 19.2659 14.1294 19.2621 14.0767 19.3056C14.0097 19.3548 13.9977 19.4428 13.9891 19.5194C13.9774 19.6645 13.9692 19.8101 13.959 19.9553ZM14.0602 19.8645C14.0682 19.7553 14.0732 19.6458 14.0837 19.5369C14.0919 19.483 14.1017 19.4207 14.149 19.3864C14.1917 19.3581 14.2546 19.3792 14.2721 19.4273C14.3069 19.5105 14.2914 19.6021 14.2869 19.6893L14.2742 19.8787C14.2029 19.8741 14.1316 19.8693 14.0602 19.8645ZM14.0456 18.9337L14.6947 19.0853L14.8422 18.4535L14.7501 18.4319L14.6246 18.9694L14.427 18.9233L14.5401 18.4389L14.4482 18.4175L14.3352 18.9019L14.1602 18.861L14.2811 18.3437L14.1885 18.322L14.0456 18.9337ZM14.2795 18.0619L14.9091 18.2809L14.9411 18.1889L14.6935 18.1028C14.7257 18.0075 14.7612 17.9133 14.7909 17.8172C14.8122 17.7387 14.8287 17.6471 14.7825 17.5741C14.7451 17.5201 14.6784 17.4856 14.6125 17.4877C14.54 17.4907 14.4809 17.5441 14.4487 17.606C14.4011 17.6955 14.3745 17.7939 14.3397 17.8887L14.2795 18.0619ZM14.4011 18.0011C14.4349 17.9067 14.4652 17.811 14.5017 17.7175C14.5245 17.6676 14.5521 17.6084 14.6096 17.5925C14.6567 17.5817 14.7062 17.618 14.7105 17.6664C14.722 17.7555 14.6831 17.8395 14.6557 17.9222L14.6037 18.0716L14.4011 18.0011ZM14.6272 17.2555C14.7459 17.3244 14.8637 17.3951 14.9831 17.4627C15.0505 17.4989 15.1357 17.5196 15.2062 17.4791C15.3022 17.4259 15.3625 17.3277 15.4096 17.2319C15.4469 17.1512 15.4737 17.051 15.4264 16.9685C15.3754 16.8862 15.2827 16.8483 15.2035 16.7992L14.9731 16.6644L14.9241 16.748C15.0371 16.8145 15.1507 16.8797 15.2632 16.9471C15.317 16.9798 15.3615 17.0391 15.3522 17.105C15.3416 17.1835 15.2967 17.2524 15.2521 17.3159C15.2151 17.3673 15.1532 17.4088 15.0874 17.3949C15.0187 17.3818 14.9631 17.3369 14.9027 17.3045L14.6761 17.1719L14.6272 17.2555ZM15.1075 16.4708L15.6369 16.8759C15.7191 16.7686 15.8009 16.6611 15.8837 16.5543C15.9311 16.4862 15.9749 16.3977 15.9427 16.3141C15.9135 16.2475 15.845 16.1961 15.7715 16.1927C15.7384 16.1881 15.6952 16.2132 15.6772 16.2243C15.6961 16.1532 15.6379 16.0864 15.5725 16.0676C15.4937 16.0396 15.4137 16.0901 15.3616 16.1461C15.3002 16.2129 15.2491 16.2881 15.1929 16.3591L15.1075 16.4708ZM15.2417 16.4509C15.3037 16.3716 15.3624 16.2895 15.4272 16.2125C15.4575 16.1789 15.5059 16.1409 15.5527 16.1655C15.5954 16.184 15.6059 16.2379 15.5855 16.2766C15.5532 16.3459 15.4997 16.4021 15.4552 16.4636L15.3826 16.5587L15.2417 16.4509ZM15.4575 16.616C15.5217 16.5338 15.5822 16.4485 15.6501 16.3691C15.6847 16.3329 15.7282 16.2872 15.7832 16.2977C15.8302 16.3085 15.8644 16.3594 15.8482 16.4067C15.8217 16.494 15.7565 16.5608 15.7039 16.6331L15.6212 16.7413L15.4575 16.616ZM15.7077 15.7637L16.1655 16.2483L16.5577 15.8777L16.4927 15.8089L16.179 16.1053L16.171 16.1129L16.1651 16.1067L15.7781 15.6971L15.7077 15.7637ZM16.2947 15.2501L16.701 15.7787L16.7802 15.7177L16.3739 15.1892L16.2947 15.2501ZM16.8917 14.8447C16.8259 14.8857 16.7727 14.9337 16.7319 14.9897C16.6911 15.0455 16.6691 15.1037 16.6659 15.1645C16.6627 15.2253 16.679 15.2841 16.7147 15.3417C16.747 15.3937 16.7924 15.4361 16.8465 15.4646C16.9012 15.4939 16.9602 15.5047 17.0249 15.4975C17.0892 15.4903 17.1619 15.4618 17.2429 15.4113C17.3206 15.3629 17.3756 15.3072 17.4096 15.2431C17.4421 15.1815 17.4512 15.1161 17.4372 15.0465L17.3451 15.0827C17.3692 15.2159 17.2832 15.2799 17.1871 15.341C17.0365 15.4326 16.8897 15.426 16.7999 15.2883C16.7067 15.1332 16.8086 15.005 16.9367 14.9217C17.0276 14.865 17.1172 14.8262 17.2025 14.8805L17.2747 14.8162C17.225 14.7819 17.1685 14.7661 17.1042 14.7695C17.0369 14.7733 16.9664 14.7981 16.8917 14.8447ZM17.6795 14.4515L17.6097 15.1986L17.7135 15.1567L17.7345 14.9251L18.0721 14.7889L18.2479 14.9412L18.3517 14.8994L17.7832 14.4097L17.6795 14.4515ZM17.7707 14.5281L17.9924 14.7199L17.7442 14.8201L17.7707 14.5281ZM19.1407 14.0394L19.1822 14.7047C19.3027 14.6967 19.4231 14.691 19.5432 14.6811C19.6377 14.6702 19.7392 14.6457 19.8037 14.5704C19.8872 14.4779 19.8991 14.3397 19.8625 14.2245C19.8319 14.1232 19.7407 14.0465 19.6375 14.027C19.5359 14.0075 19.4322 14.0229 19.3299 14.0275L19.1407 14.0394ZM19.2434 14.1279C19.3391 14.1229 19.4347 14.1135 19.5307 14.1129C19.5852 14.1111 19.639 14.1275 19.6832 14.1597C19.7499 14.2053 19.7891 14.2874 19.7802 14.368C19.7755 14.4607 19.7074 14.5459 19.6172 14.5693C19.5659 14.5827 19.5122 14.5865 19.4595 14.5923L19.2731 14.6039L19.2434 14.1279ZM20.0699 14L20.0319 14.6656L20.6797 14.7026L20.6851 14.6081C20.5014 14.5975 20.3177 14.587 20.134 14.5766C20.1379 14.5091 20.1417 14.4415 20.1456 14.3739L20.6422 14.4023L20.6475 14.3083C20.4821 14.2988 20.3165 14.2893 20.1509 14.2799L20.1612 14.1006C20.338 14.1106 20.5147 14.1208 20.6916 14.1309L20.6971 14.0359L20.0699 14ZM21.8106 14.2777L21.5695 14.8993L21.6552 14.9326L21.8464 14.4397L21.8562 14.4141L21.867 14.4426L22.0969 15.1038L22.2091 15.1473L22.4502 14.5258L22.3642 14.4925L22.1732 14.9851L22.1635 15.0102L22.1529 14.9821L21.9227 14.3212L21.8106 14.2777ZM22.7062 14.6625L22.4031 15.2563L22.3141 15.2108L22.6171 14.617L22.7062 14.6625ZM23.2091 14.9571C23.1442 14.9144 23.0785 14.8861 23.0105 14.8723C22.9429 14.8585 22.8807 14.8629 22.8242 14.8853C22.7676 14.9078 22.7207 14.9471 22.6835 15.0037C22.6497 15.0546 22.6301 15.1136 22.6267 15.1747C22.6231 15.2365 22.6377 15.2947 22.6714 15.3505C22.7047 15.4059 22.761 15.4601 22.8405 15.5126C22.917 15.5631 22.9906 15.5898 23.063 15.5939C23.1326 15.5978 23.1957 15.5789 23.2532 15.5371L23.1819 15.4685C23.0709 15.546 22.9769 15.4946 22.8812 15.4326C22.7352 15.3339 22.6799 15.1979 22.7675 15.0587C22.8697 14.9093 23.0287 14.9484 23.1577 15.0301C23.2472 15.0891 23.3199 15.1543 23.3062 15.2545L23.3947 15.2932C23.4051 15.2337 23.3961 15.1759 23.366 15.1189C23.3344 15.0592 23.2825 15.0055 23.2091 14.9571ZM23.8437 15.4359L23.1469 15.7139L23.2315 15.7872L23.4472 15.7005L23.7221 15.9391L23.6666 16.1649L23.7511 16.2383L23.9282 15.5093L23.8437 15.4359ZM23.8171 15.5519L23.7472 15.8366L23.5451 15.6612L23.8171 15.5519ZM24.3472 15.8991L23.8329 16.3233L23.8949 16.3984L24.0972 16.2315C24.1657 16.3138 24.2325 16.3977 24.3025 16.4787C24.2811 16.5909 24.2596 16.7031 24.2387 16.8153L24.3172 16.9107L24.3842 16.5553C24.4419 16.6025 24.5261 16.6263 24.595 16.5889C24.6542 16.5609 24.7062 16.507 24.7094 16.4384C24.7166 16.3465 24.6511 16.272 24.5986 16.2038C24.5149 16.1022 24.431 16.0007 24.3472 15.8991ZM24.336 16.0347C24.408 16.1236 24.4836 16.2097 24.5524 16.3012C24.5841 16.3484 24.6236 16.4147 24.5872 16.4697C24.5572 16.5169 24.4916 16.5127 24.4512 16.4822C24.3696 16.4273 24.3157 16.3431 24.252 16.2699L24.1705 16.1711L24.336 16.0347ZM25.1272 16.9601L24.3777 16.9944L24.4335 17.0915L24.6657 17.0801L24.8472 17.3957L24.7209 17.5909L24.7767 17.6879L25.183 17.0571L25.1272 16.9601ZM25.064 17.061L24.9047 17.3071L24.7712 17.0751L25.064 17.061ZM25.5549 17.8425C25.5132 17.7294 25.4475 17.6136 25.3362 17.5571C25.2125 17.4949 25.0477 17.5251 24.96 17.6341C24.8835 17.7247 24.8796 17.8528 24.9 17.9642C24.9241 18.0921 24.9827 18.2138 25.0709 18.3099L25.0211 18.3278L25.053 18.4165L25.3652 18.3043L25.2437 17.9671L25.1717 17.9931L25.261 18.2416L25.1552 18.2796C25.0619 18.1994 25.0099 18.0809 24.9827 17.9631C24.9627 17.8746 24.9619 17.7686 25.029 17.6991C25.106 17.6189 25.2425 17.5941 25.3347 17.6624C25.4259 17.7291 25.4774 17.8371 25.5034 17.9446C25.5211 18.0153 25.5182 18.0993 25.4647 18.1544C25.4497 18.1656 25.4734 18.1813 25.4775 18.1947L25.5029 18.2369C25.5311 18.2147 25.5537 18.1863 25.5692 18.154C25.5847 18.1217 25.5927 18.0863 25.5925 18.0504C25.5944 17.9795 25.5787 17.9091 25.5549 17.8425ZM25.7464 18.3631L25.3735 18.4357C25.3044 18.4491 25.2525 18.471 25.2179 18.5002C25.1834 18.5293 25.1612 18.5703 25.1507 18.6249C25.1401 18.6789 25.1416 18.7451 25.1571 18.8256C25.1572 18.8262 25.1574 18.8269 25.1575 18.8275C25.1732 18.908 25.1967 18.9699 25.2267 19.016C25.2571 19.0627 25.2929 19.0924 25.3357 19.1064C25.3787 19.1205 25.4351 19.1214 25.5042 19.1079L25.8771 19.0354L25.8587 18.9403L25.4947 19.0111C25.3315 19.0428 25.2765 18.9569 25.2484 18.8098L25.2481 18.8079C25.2189 18.6611 25.2377 18.5608 25.4011 18.529L25.7649 18.4583L25.7464 18.3631ZM25.9509 19.4978L25.2611 19.2028L25.2691 19.3145L25.4832 19.4053L25.5095 19.7684L25.3107 19.8891L25.3189 20.0008L25.959 19.6095L25.9509 19.4978ZM25.8501 19.5612L25.5997 19.7135L25.5802 19.4466L25.8501 19.5612ZM14.4757 21.2223L14.3791 21.2478L14.486 21.6539L14.5827 21.6285L14.4757 21.2223ZM25.4445 21.2223L25.5412 21.2478L25.4342 21.6539L25.3377 21.6285L25.4445 21.2223ZM15.5067 22.9326L14.7615 23.0183L14.8237 23.1113L15.0547 23.0841L15.2576 23.3865L15.1447 23.5898L15.2072 23.6828L15.5692 23.0256L15.5067 22.9326ZM15.4507 23.0377L15.3087 23.2941L15.1595 23.0719L15.4507 23.0377ZM15.7921 23.3399L15.317 23.7842L15.3805 23.8521L15.7809 23.4776L15.5707 24.0556L15.6435 24.1334L16.2177 23.9591L15.8245 24.3269L15.8879 24.3947L16.363 23.9504L16.2667 23.8473L15.6832 24.0216L15.9017 23.457L15.7921 23.3399ZM16.4842 24.0459L16.0831 24.5785L16.6015 24.9688L16.6585 24.8931L16.2175 24.5611L16.3396 24.399L16.7369 24.6982L16.7937 24.6229L16.3962 24.3237L16.5042 24.1803L16.9287 24.4999L16.9861 24.4239L16.4842 24.0459ZM17.1365 24.5233L16.8225 25.1115C16.8511 25.1269 16.8797 25.1421 16.9082 25.1574L17.0319 24.9261C17.1265 24.976 17.2202 25.0281 17.3159 25.0763C17.3387 25.1882 17.3617 25.3001 17.3851 25.4119L17.4941 25.4701L17.4207 25.1161C17.492 25.1377 17.5789 25.1275 17.6282 25.0667C17.6702 25.0197 17.6987 24.9539 17.6787 24.8907C17.6552 24.8039 17.5697 24.7584 17.4975 24.7163C17.3772 24.6517 17.2567 24.5877 17.1365 24.5233ZM17.1776 24.653C17.2781 24.7078 17.3807 24.7587 17.4792 24.817C17.5249 24.8479 17.5827 24.89 17.5771 24.9521C17.572 25.0067 17.5132 25.0357 17.4635 25.0241C17.3662 25.0081 17.2842 24.9501 17.1975 24.9068L17.0766 24.8422L17.1776 24.653ZM17.8895 24.9171L17.6375 25.5343L17.7302 25.5721L17.9821 24.9549L17.8895 24.9171ZM18.4907 25.1247C18.417 25.1003 18.3462 25.0901 18.2769 25.0944C18.208 25.0987 18.1491 25.119 18.1002 25.1554C18.0515 25.1918 18.0166 25.2419 17.9952 25.3061C17.9757 25.3641 17.9722 25.4262 17.9849 25.4861C17.9972 25.5467 18.0267 25.5991 18.0735 25.6443C18.1202 25.6891 18.1885 25.7269 18.279 25.7569C18.3659 25.7857 18.444 25.7925 18.515 25.7776C18.5831 25.7633 18.6392 25.7287 18.6839 25.6735L18.5972 25.6256C18.5101 25.7293 18.406 25.7041 18.2975 25.6691C18.1309 25.6117 18.0422 25.4947 18.0907 25.3375C18.1505 25.1667 18.3142 25.1632 18.4601 25.2085C18.5619 25.2423 18.6489 25.2864 18.6617 25.3867L18.7572 25.4011C18.7519 25.341 18.728 25.2875 18.6842 25.2403C18.6382 25.1908 18.5742 25.1525 18.4907 25.1247ZM19.1609 25.2748L18.7249 25.8855L18.8357 25.9015L18.9702 25.7118L19.3307 25.7639L19.406 25.9839L19.5167 25.9999L19.2717 25.2908L19.1609 25.2748ZM19.2012 25.3868L19.2962 25.6641L19.0315 25.6258L19.2012 25.3868ZM20.7237 25.2795C20.6475 25.2942 20.5807 25.32 20.5225 25.3577C20.4645 25.3952 20.423 25.4417 20.3982 25.4973C20.3736 25.5529 20.3676 25.6137 20.3805 25.6802C20.3919 25.7403 20.4191 25.7962 20.4594 25.8422C20.5 25.8891 20.5512 25.9203 20.6142 25.9367C20.6769 25.9531 20.7549 25.9525 20.8485 25.9344C20.9384 25.9171 21.0097 25.8847 21.0644 25.837C21.1169 25.7911 21.1489 25.7334 21.1607 25.6635L21.0617 25.6641C21.0365 25.7973 20.9334 25.8262 20.8217 25.8488C20.6482 25.8803 20.5137 25.8216 20.479 25.6609C20.4475 25.4826 20.5886 25.3994 20.7381 25.3675C20.8432 25.3472 20.9407 25.3431 21.001 25.4243L21.0914 25.3901C21.0572 25.3403 21.0102 25.3053 20.9491 25.2856C20.8847 25.2649 20.8101 25.2629 20.7237 25.2795ZM21.1689 25.2007L21.3585 25.8398L21.9805 25.6552L21.9536 25.5644L21.4245 25.7214L21.3667 25.5269L21.8436 25.3854L21.8167 25.2951L21.3399 25.4365L21.2889 25.2644L21.7982 25.1133L21.7711 25.0219L21.1689 25.2007ZM21.8901 24.974L22.1699 25.5791L22.2534 25.5404L22.02 25.0358C22.2357 25.1337 22.4502 25.2345 22.6656 25.3334C22.6799 25.3459 22.6942 25.3375 22.7087 25.3299L22.7926 25.2911L22.5127 24.686L22.4291 24.7247L22.6622 25.2287C22.4406 25.1282 22.2202 25.0251 21.9991 24.9235L21.8901 24.974ZM22.6221 24.6301L22.6742 24.7095L22.9125 24.5528L22.9215 24.5468L22.926 24.5537L23.2357 25.0243L23.3167 24.9711L23.0069 24.5004L23.0024 24.4935L23.0117 24.4875L23.251 24.33L23.1987 24.2507L22.6221 24.6301ZM23.2929 24.1708L23.7447 24.6611L23.8164 24.5951L23.6387 24.4023C23.7171 24.3293 23.7971 24.2581 23.8741 24.1837C23.9872 24.1989 24.1005 24.2142 24.2137 24.2289L24.3046 24.1453L23.9462 24.0978C23.9902 24.0377 24.0092 23.9523 23.9681 23.8856C23.9369 23.8281 23.8802 23.7789 23.8115 23.7796C23.7194 23.7775 23.6486 23.8471 23.5834 23.9032C23.4866 23.9923 23.3897 24.0817 23.2929 24.1708ZM23.4289 24.1747C23.5137 24.0979 23.5956 24.0177 23.6832 23.944C23.7285 23.9097 23.7925 23.8667 23.8496 23.8999C23.8982 23.9272 23.8977 23.9931 23.8695 24.0349C23.8191 24.1196 23.7377 24.1781 23.6682 24.2458L23.5742 24.3325L23.4289 24.1747ZM24.0685 23.3945L24.3667 24.083L24.4377 23.9963L24.3446 23.7832L24.5751 23.5015L24.8024 23.5504L24.8732 23.4637L24.1392 23.3079L24.0685 23.3945ZM24.1852 23.4178L24.472 23.4793L24.3025 23.6865L24.1852 23.4178ZM24.3589 23.0169L24.9182 23.3795L25.2117 22.9269L25.1322 22.8754L24.8975 23.2375L24.8915 23.2468L24.8844 23.2421L24.4116 22.9356L24.3589 23.0169Z" fill="#C8A400"/>
<mask id="mask2_16699_273026" style="mask-type:luminance" maskUnits="userSpaceOnUse" x="15" y="15" width="10" height="8">
<path d="M19.9617 15.0918L15.7148 22.4473H24.2083L19.9617 15.0918Z" fill="white"/>
</mask>
<g mask="url(#mask2_16699_273026)">
<path d="M19.9607 15.0944L17.8621 18.7301L16.8341 20.5102H23.0873L22.1064 18.8113L19.9607 15.0944Z" fill="white"/>
<path opacity="0.62" d="M19.96 15.0938L19.8029 15.3658L19.96 19.0309L20.1171 15.3658L19.96 15.0938Z" fill="#17C0EB" stroke="#17C0EB" stroke-width="0.0043"/>
<path d="M19.9601 18.498L19.9512 18.4982L19.9601 18.7056L19.9691 18.4982L19.9601 18.498Z" fill="white"/>
<path opacity="0.62" d="M23.7048 17.8147L23.3974 17.7493L19.9601 19.0314L23.4945 18.0482L23.7048 17.8147Z" fill="#17C0EB" stroke="#17C0EB" stroke-width="0.0043"/>
<path d="M20.4677 18.8671L20.4648 18.8588L20.2703 18.9313L20.4703 18.8758L20.4677 18.8671Z" fill="white"/>
<path opacity="0.62" d="M22.2734 22.2166L22.2405 21.9041L19.9591 19.0312L21.9863 22.0888L22.2734 22.2166Z" fill="#17C0EB" stroke="#17C0EB" stroke-width="0.0043"/>
<path d="M20.2722 19.4622L20.2793 19.4568L20.1501 19.2943L20.2648 19.4673L20.2722 19.4622Z" fill="white"/>
<path opacity="0.62" d="M17.6464 22.2166L17.9335 22.0888L19.9607 19.0312L17.6792 21.9041L17.6464 22.2166Z" fill="#17C0EB" stroke="#17C0EB" stroke-width="0.0043"/>
<path d="M19.6472 19.4622L19.6544 19.4672L19.7692 19.2943L19.6401 19.4568L19.6472 19.4622Z" fill="white"/>
<path opacity="0.62" d="M16.2146 17.8147L16.4248 18.0482L19.9591 19.0313L16.5219 17.7493L16.2146 17.8147Z" fill="#17C0EB" stroke="#17C0EB" stroke-width="0.0043"/>
<path d="M19.4521 18.8665L19.4495 18.8751L19.6495 18.9307L19.455 18.8581L19.4521 18.8665Z" fill="white"/>
<path opacity="0.62" d="M20.5054 15.1322L20.3119 15.3798L19.9574 19.0311L20.6231 15.4236L20.5054 15.1322Z" fill="#17C0EB" stroke="#17C0EB" stroke-width="0.0043"/>
<path d="M20.0326 18.5036L20.0237 18.5026L20.0037 18.7091L20.0413 18.5051L20.0326 18.5036Z" fill="white"/>
<path opacity="0.62" d="M23.8341 18.3477L23.5389 18.2402L19.9567 19.0314L23.5935 18.5497L23.8341 18.3477Z" fill="#17C0EB" stroke="#17C0EB" stroke-width="0.0043"/>
<path d="M20.4823 18.9391L20.4805 18.9303L20.2779 18.9751L20.4837 18.9479L20.4823 18.9391Z" fill="white"/>
<path opacity="0.62" d="M21.8048 22.507L21.8158 22.193L19.9565 19.0306L21.5383 22.3405L21.8048 22.507Z" fill="#17C0EB" stroke="#17C0EB" stroke-width="0.0043"/>
<path d="M20.2072 19.501L20.215 19.4967L20.1097 19.3177L20.1992 19.5051L20.2072 19.501Z" fill="white"/>
<path opacity="0.62" d="M17.2211 21.8636L17.5232 21.7769L19.9562 19.0312L17.2971 21.5587L17.2211 21.8636Z" fill="#17C0EB" stroke="#17C0EB" stroke-width="0.0043"/>
<path d="M19.5856 19.4143L19.5922 19.4204L19.7298 19.265L19.5793 19.408L19.5856 19.4143Z" fill="white"/>
<path opacity="0.62" d="M16.4167 17.3051L16.5924 17.5657L19.9556 19.0311L16.7302 17.2832L16.4167 17.3051Z" fill="#17C0EB" stroke="#17C0EB" stroke-width="0.0043"/>
<path d="M19.4768 18.7976L19.4731 18.8057L19.6633 18.8886L19.481 18.7897L19.4768 18.7976Z" fill="white"/>
<path opacity="0.62" d="M21.0457 15.2468L20.8196 15.4651L19.9603 19.0316L21.1217 15.5517L21.0457 15.2468Z" fill="#17C0EB" stroke="#17C0EB" stroke-width="0.0043"/>
<path d="M20.1062 18.5192L20.0977 18.5169L20.0491 18.7187L20.1148 18.5218L20.1062 18.5192Z" fill="white"/>
<path opacity="0.62" d="M23.8963 18.8943L23.6189 18.7468L19.9614 19.0318L23.6298 19.0608L23.8963 18.8943Z" fill="#17C0EB" stroke="#17C0EB" stroke-width="0.0043"/>
<path d="M20.4945 19.0134L20.4939 19.0046L20.287 19.0207L20.4947 19.0224L20.4945 19.0134Z" fill="white"/>
<path opacity="0.62" d="M21.3074 22.7318L21.3621 22.4223L19.9608 19.0319L21.0667 22.5298L21.3074 22.7318Z" fill="#17C0EB" stroke="#17C0EB" stroke-width="0.0043"/>
<path d="M20.144 19.5329L20.1524 19.5296L20.073 19.3379L20.1356 19.5357L20.144 19.5329Z" fill="white"/>
<path opacity="0.62" d="M16.8583 21.456L17.1695 21.4122L19.9609 19.0319L16.976 21.1646L16.8583 21.456Z" fill="#17C0EB" stroke="#17C0EB" stroke-width="0.0043"/>
<path d="M19.5414 19.3603L19.5471 19.3671L19.7051 19.2324L19.5361 19.3531L19.5414 19.3603Z" fill="white"/>
<path opacity="0.62" d="M16.6973 16.8301L16.8351 17.1125L19.9614 19.0317L17.0108 16.852L16.6973 16.8301Z" fill="#17C0EB" stroke="#17C0EB" stroke-width="0.0043"/>
<path d="M19.5207 18.7333L19.5158 18.7408L19.6928 18.8494L19.5258 18.726L19.5207 18.7333Z" fill="white"/>
<path opacity="0.62" d="M21.5638 15.4356L21.3095 15.6202L19.9623 19.0323L21.5966 15.7481L21.5638 15.4356Z" fill="#17C0EB" stroke="#17C0EB" stroke-width="0.0043"/>
<path d="M20.1783 18.5458L20.17 18.5424L20.0938 18.7354L20.1863 18.5495L20.1783 18.5458Z" fill="white"/>
<path opacity="0.62" d="M23.8783 19.4434L23.6241 19.2587L19.9626 19.0319L23.5912 19.5713L23.8783 19.4434Z" fill="#17C0EB" stroke="#17C0EB" stroke-width="0.0043"/>
<path d="M20.4935 19.0881L20.4942 19.0792L20.287 19.0664L20.4924 19.0969L20.4935 19.0881Z" fill="white"/>
<path opacity="0.62" d="M20.7821 22.8831L20.8792 22.5843L19.9635 19.0319L20.5718 22.6496L20.7821 22.8831Z" fill="#17C0EB" stroke="#17C0EB" stroke-width="0.0043"/>
<path d="M20.0736 19.5528L20.0822 19.5508L20.0303 19.3496L20.0648 19.5544L20.0736 19.5528Z" fill="white"/>
<path opacity="0.62" d="M16.5527 21.0012H16.8668L19.9623 19.0326L16.7098 20.7291L16.5527 21.0012Z" fill="#17C0EB" stroke="#17C0EB" stroke-width="0.0043"/>
<path d="M19.5016 19.2985L19.5062 19.3061L19.6814 19.1947L19.4973 19.2906L19.5016 19.2985Z" fill="white"/>
<path opacity="0.62" d="M17.0351 16.3978L17.1322 16.6966L19.9611 19.0323L17.3425 16.4631L17.0351 16.3978Z" fill="#17C0EB" stroke="#17C0EB" stroke-width="0.0043"/>
<path d="M19.5649 18.6757L19.559 18.6825L19.7191 18.8147L19.571 18.6693L19.5649 18.6757Z" fill="white"/>
<path opacity="0.62" d="M22.0456 15.6927L21.7682 15.8403L19.9592 19.0317L22.0347 16.0069L22.0456 15.6927Z" fill="#17C0EB" stroke="#17C0EB" stroke-width="0.0043"/>
<path d="M20.2423 18.5801L20.2346 18.5755L20.1323 18.7561L20.2498 18.585L20.2423 18.5801Z" fill="white"/>
<path opacity="0.62" d="M23.7805 19.9844L23.5545 19.7661L19.9601 19.0319L23.4785 20.071L23.7805 19.9844Z" fill="#17C0EB" stroke="#17C0EB" stroke-width="0.0043"/>
<path d="M20.4766 19.1609L20.4786 19.1522L20.2751 19.1107L20.4742 19.1695L20.4766 19.1609Z" fill="white"/>
<path opacity="0.62" d="M20.2343 22.9596L20.3719 22.6771L19.9596 19.0319L20.0584 22.6991L20.2343 22.9596Z" fill="#17C0EB" stroke="#17C0EB" stroke-width="0.0043"/>
<path d="M19.9972 19.5632L20.0061 19.5624L19.9827 19.3561L19.9882 19.5636L19.9972 19.5632Z" fill="white"/>
<path opacity="0.62" d="M16.3085 20.5062L16.6198 20.5499L19.9591 19.0312L16.502 20.2586L16.3085 20.5062Z" fill="#17C0EB" stroke="#17C0EB" stroke-width="0.0043"/>
<path d="M19.4657 19.2314L19.4692 19.2396L19.6582 19.1537L19.4625 19.2231L19.4657 19.2314Z" fill="white"/>
<path opacity="0.62" d="M17.4313 16.0157L17.4859 16.325L19.962 19.0318L17.7265 16.123L17.4313 16.0157Z" fill="#17C0EB" stroke="#17C0EB" stroke-width="0.0043"/>
<path d="M19.6204 18.6234L19.6136 18.6293L19.7537 18.7825L19.6274 18.6178L19.6204 18.6234Z" fill="white"/>
<path opacity="0.62" d="M22.4936 16.0157L22.1983 16.123L19.9628 19.0318L22.4391 16.325L22.4936 16.0157Z" fill="#17C0EB" stroke="#17C0EB" stroke-width="0.0043"/>
<path d="M20.3059 18.6234L20.2989 18.6178L20.1724 18.7824L20.3127 18.6293L20.3059 18.6234Z" fill="white"/>
<path opacity="0.62" d="M23.6132 20.5062L23.4198 20.2586L19.9626 19.0312L23.3021 20.5499L23.6132 20.5062Z" fill="#17C0EB" stroke="#17C0EB" stroke-width="0.0043"/>
<path d="M20.4558 19.2314L20.459 19.2231L20.2634 19.1537L20.4523 19.2396L20.4558 19.2314Z" fill="white"/>
<path opacity="0.62" d="M19.6872 22.9589L19.8629 22.6983L19.9619 19.0312L19.5494 22.6764L19.6872 22.9589Z" fill="#17C0EB" stroke="#17C0EB" stroke-width="0.0043"/>
<path d="M19.9248 19.5626L19.9337 19.563L19.9393 19.3555L19.9159 19.5616L19.9248 19.5626Z" fill="white"/>
<path opacity="0.62" d="M16.1399 19.9845L16.442 20.0711L19.9601 19.0319L16.366 19.7662L16.1399 19.9845Z" fill="#17C0EB" stroke="#17C0EB" stroke-width="0.0043"/>
<path d="M19.4433 19.1602L19.4457 19.1688L19.6448 19.11L19.4413 19.1515L19.4433 19.1602Z" fill="white"/>
<path opacity="0.62" d="M17.8736 15.6927L17.8845 16.0069L19.96 19.0318L18.1511 15.8403L17.8736 15.6927Z" fill="#17C0EB" stroke="#17C0EB" stroke-width="0.0043"/>
<path d="M19.6777 18.5793L19.6702 18.5842L19.7877 18.7555L19.6853 18.5748L19.6777 18.5793Z" fill="white"/>
<path opacity="0.62" d="M22.8886 16.3972L22.5812 16.4624L19.9626 19.0317L22.7914 16.696L22.8886 16.3972Z" fill="#17C0EB" stroke="#17C0EB" stroke-width="0.0043"/>
<path d="M20.3578 18.6751L20.3517 18.6686L20.2035 18.814L20.3637 18.6818L20.3578 18.6751Z" fill="white"/>
<path opacity="0.62" d="M23.3709 20.9998L23.2138 20.7278L19.9612 19.0312L23.0567 20.9998H23.3709Z" fill="#17C0EB" stroke="#17C0EB" stroke-width="0.0043"/>
<path d="M20.4234 19.2978L20.4278 19.29L20.2438 19.194L20.4189 19.3055L20.4234 19.2978Z" fill="white"/>
<path opacity="0.62" d="M19.1435 22.8831L19.3537 22.6496L19.9621 19.0319L19.0463 22.5843L19.1435 22.8831Z" fill="#17C0EB" stroke="#17C0EB" stroke-width="0.0043"/>
<path d="M19.8509 19.5533L19.8597 19.5551L19.8941 19.3502L19.8422 19.5512L19.8509 19.5533Z" fill="white"/>
<path opacity="0.62" d="M16.0463 19.4435L16.3333 19.5713L19.962 19.0319L16.3005 19.2588L16.0463 19.4435Z" fill="#17C0EB" stroke="#17C0EB" stroke-width="0.0043"/>
<path d="M19.4329 19.0874L19.4341 19.0962L19.6394 19.0657L19.4323 19.0786L19.4329 19.0874Z" fill="white"/>
<path opacity="0.62" d="M18.3605 15.4343L18.3278 15.7468L19.962 19.0312L18.6148 15.6189L18.3605 15.4343Z" fill="#17C0EB" stroke="#17C0EB" stroke-width="0.0043"/>
<path d="M19.7448 18.5445L19.7368 18.5483L19.8293 18.7341L19.753 18.541L19.7448 18.5445Z" fill="white"/>
<path opacity="0.62" d="M23.2249 16.8301L22.9114 16.852L19.9607 19.0317L23.0871 17.1125L23.2249 16.8301Z" fill="#17C0EB" stroke="#17C0EB" stroke-width="0.0043"/>
<path d="M20.4018 18.7337L20.3967 18.7266L20.2297 18.8498L20.4067 18.7413L20.4018 18.7337Z" fill="white"/>
<path opacity="0.62" d="M23.0617 21.4553L22.944 21.1639L19.9591 19.0312L22.7506 21.4116L23.0617 21.4553Z" fill="#17C0EB" stroke="#17C0EB" stroke-width="0.0043"/>
<path d="M20.3794 19.3597L20.3849 19.3525L20.2159 19.2318L20.3739 19.3666L20.3794 19.3597Z" fill="white"/>
<path opacity="0.62" d="M18.6123 22.7317L18.853 22.5297L19.9589 19.0319L18.5577 22.4222L18.6123 22.7317Z" fill="#17C0EB" stroke="#17C0EB" stroke-width="0.0043"/>
<path d="M19.7769 19.5324L19.7854 19.5352L19.8479 19.3373L19.7687 19.529L19.7769 19.5324Z" fill="white"/>
<path opacity="0.62" d="M16.0271 18.8943L16.2936 19.0608L19.962 19.0317L16.3046 18.7468L16.0271 18.8943Z" fill="#17C0EB" stroke="#17C0EB" stroke-width="0.0043"/>
<path d="M19.4303 19.0128L19.4302 19.0218L19.6378 19.0201L19.4308 19.0039L19.4303 19.0128Z" fill="white"/>
<path opacity="0.62" d="M18.874 15.2468L18.7979 15.5517L19.9592 19.0314L19.1 15.4651L18.874 15.2468Z" fill="#17C0EB" stroke="#17C0EB" stroke-width="0.0043"/>
<path d="M19.8117 18.5199L19.8032 18.5225L19.8688 18.7194L19.8202 18.5176L19.8117 18.5199Z" fill="white"/>
<path opacity="0.62" d="M23.4986 17.3051L23.1852 17.2832L19.9599 19.0311L23.323 17.5656L23.4986 17.3051Z" fill="#17C0EB" stroke="#17C0EB" stroke-width="0.0043"/>
<path d="M20.4396 18.7977L20.4355 18.7897L20.253 18.8887L20.4433 18.8058L20.4396 18.7977Z" fill="white"/>
<path opacity="0.62" d="M22.6936 21.8634L22.6176 21.5586L19.9586 19.0312L22.3916 21.7768L22.6936 21.8634Z" fill="#17C0EB" stroke="#17C0EB" stroke-width="0.0043"/>
<path d="M20.3295 19.4143L20.3359 19.408L20.1854 19.265L20.3229 19.4203L20.3295 19.4143Z" fill="white"/>
<path opacity="0.62" d="M18.1134 22.5077L18.3799 22.3412L19.9617 19.0312L18.1024 22.1936L18.1134 22.5077Z" fill="#17C0EB" stroke="#17C0EB" stroke-width="0.0043"/>
<path d="M19.711 19.5017L19.7189 19.5057L19.8084 19.3184L19.7032 19.4973L19.711 19.5017Z" fill="white"/>
<path opacity="0.62" d="M16.0839 18.3477L16.3246 18.5497L19.9614 19.0314L16.3792 18.2402L16.0839 18.3477Z" fill="#17C0EB" stroke="#17C0EB" stroke-width="0.0043"/>
<path d="M19.4372 18.9391L19.4359 18.9479L19.6416 18.9751L19.4389 18.9303L19.4372 18.9391Z" fill="white"/>
<path opacity="0.62" d="M19.4135 15.1322L19.2958 15.4236L19.9615 19.0312L19.607 15.3798L19.4135 15.1322Z" fill="#17C0EB" stroke="#17C0EB" stroke-width="0.0043"/>
<path d="M19.8878 18.5036L19.879 18.5051L19.9167 18.7091L19.8967 18.5026L19.8878 18.5036Z" fill="white"/>
<path d="M19.9603 17.7233C19.2513 17.7223 18.5657 17.9767 18.0291 18.44L17.0521 20.1337C17.0183 20.3151 17.0017 20.4993 17.0021 20.6837H17.3374C17.3374 19.2353 18.5119 18.0608 19.9603 18.0608C21.4088 18.0608 22.5832 19.2353 22.5832 20.6837H22.9187C22.9187 20.4962 22.9021 20.3116 22.8687 20.1337L21.8917 18.44C21.3548 17.9768 20.6693 17.7224 19.9603 17.7233Z" fill="#FF0000"/>
<path d="M19.961 17.7773C19.1767 17.7773 18.465 18.0891 17.9422 18.5941L17.1402 19.9837C17.0833 20.2127 17.0547 20.4478 17.0547 20.6837H17.3381C17.3381 19.2353 18.5126 18.0608 19.961 18.0608C21.4095 18.0608 22.5838 19.2353 22.5838 20.6837H22.8672C22.8672 20.4419 22.8375 20.2061 22.7818 19.9816L21.9797 18.5941C21.4571 18.0892 20.7452 17.7773 19.961 17.7773Z" fill="#FF6600"/>
<path d="M19.9596 17.8315C19.1128 17.8315 18.3529 18.1996 17.8304 18.7856L17.2492 19.7919C17.1549 20.0796 17.1071 20.3806 17.1075 20.6836H17.3367C17.3367 19.2351 18.5112 18.0606 19.9596 18.0606C21.408 18.0606 22.5825 19.2351 22.5825 20.6836H22.8117C22.8117 20.372 22.7623 20.0726 22.67 19.7919L22.0887 18.7856C21.5663 18.1996 20.8064 17.8315 19.9596 17.8315Z" fill="#FFFF00"/>
<path d="M19.9603 17.8835C18.9903 17.8835 18.1354 18.3777 17.6333 19.1272L17.4457 19.4521C17.2575 19.8353 17.1599 20.2567 17.1603 20.6836H17.3374C17.3374 19.2351 18.5119 18.0606 19.9603 18.0606C21.4087 18.0606 22.5832 19.2351 22.5832 20.6835H22.7603C22.7604 20.2573 22.6628 19.8368 22.4749 19.4543L22.2853 19.1252C21.7829 18.3767 20.9294 17.8835 19.9603 17.8835Z" fill="#00FF00"/>
<path d="M19.9608 17.9375C18.4443 17.9375 17.2149 19.1668 17.2149 20.6834H17.3379C17.3379 19.2349 18.5124 18.0604 19.9608 18.0604C21.4092 18.0604 22.5837 19.2349 22.5837 20.6834H22.7067C22.7067 19.1668 21.4773 17.9375 19.9608 17.9375Z" fill="#00CCFF"/>
<path d="M19.9613 17.9896C18.4743 17.9896 17.2696 19.1962 17.2696 20.6834H17.3593C17.3593 19.246 18.524 18.0812 19.9613 18.0812C21.3986 18.0812 22.5634 19.2461 22.5634 20.6834H22.655C22.655 19.1962 21.4484 17.9896 19.9613 17.9896Z" fill="#0000FF"/>
<path d="M19.9597 18.0436C18.5021 18.0436 17.3204 19.2253 17.3204 20.6829C17.3204 20.6992 17.3206 20.7156 17.3209 20.7318H17.3744C17.374 20.7155 17.3739 20.6992 17.3739 20.6829C17.3739 19.2548 18.5315 18.097 19.9597 18.097C21.3879 18.097 22.5455 19.2548 22.5455 20.6829C22.5455 20.6992 22.5454 20.7156 22.5451 20.7318H22.5982C22.5985 20.7156 22.5987 20.6992 22.5987 20.6829C22.5987 19.2253 21.4174 18.0436 19.9597 18.0436Z" fill="#800080"/>
<path d="M19.986 19.2092C19.9431 19.201 19.9043 19.177 19.8677 19.1686C19.8173 19.2169 19.812 19.2657 19.819 19.3072C19.8364 19.3166 19.8396 19.3308 19.8775 19.3646C19.9154 19.3984 19.9106 19.4161 19.9083 19.4956C19.9073 19.5291 19.913 19.601 19.9469 19.6077C19.9834 19.615 20.009 19.5846 20.0196 19.5304C20.0297 19.4777 20.0474 19.4493 20.0661 19.4169C20.0865 19.2934 20.0532 19.2497 19.986 19.2092Z" fill="#510000"/>
<path d="M19.7718 18.9019C19.7322 18.9029 19.6699 18.9694 19.6423 18.9337C19.6263 18.9132 19.6237 18.8735 19.6398 18.8403C19.6772 18.7635 19.7147 18.7259 19.7843 18.6849C19.9428 18.5915 20.0437 18.6217 20.1226 18.7558C20.1957 18.8739 20.2661 19.0045 20.2723 19.1139C20.2743 19.1473 20.2912 19.2078 20.2619 19.2379C20.1721 19.3305 19.9556 19.1423 19.8287 19.172C19.7862 19.182 19.7369 19.2132 19.6967 19.1865C19.6654 19.1659 19.6916 19.1202 19.7149 19.1003C19.7557 19.0657 19.8149 18.9427 19.8069 18.8893C19.8024 18.8595 19.8016 18.9013 19.7718 18.9019Z" fill="#FF0000"/>
<path d="M19.7563 18.8363C19.6842 18.8661 19.692 18.9081 19.6557 18.9423C19.666 18.9463 19.7067 18.9631 19.7466 18.9223C19.7637 18.9081 19.7832 18.9028 19.7917 18.8982C19.7713 18.9128 19.7568 18.9351 19.7462 18.9438C19.7192 18.9657 19.6772 19.0159 19.6567 19.0668C19.6363 19.1178 19.6282 19.1783 19.6317 19.1857C19.6355 19.1929 19.6602 19.2377 19.7362 19.2678C19.8715 19.3216 19.8972 19.4303 20.0346 19.4303C20.1422 19.4303 20.125 19.3599 20.211 19.3748C20.2857 19.3878 20.3252 19.3284 20.2533 19.2928C20.162 19.2616 19.9806 19.2799 19.8952 19.2949C19.8677 19.0228 19.8916 19.1183 19.8852 19.0013C19.8787 18.8843 19.8436 18.8773 19.89 18.7826C19.8513 18.8407 19.8047 18.8314 19.7563 18.8363Z" fill="url(#paint0_linear_16699_273026)"/>
<path d="M20.0238 18.653C20.0211 18.6679 20.0186 18.6874 20.02 18.693C20.0258 18.7156 20.0318 18.7392 20.0386 18.7593C20.0463 18.7817 20.0494 18.798 20.0546 18.8212C20.06 18.8452 20.0813 18.8545 20.1008 18.8693C20.1255 18.888 20.1064 18.9384 20.1218 18.9406C20.1341 18.9422 20.1544 18.8691 20.1545 18.8574C20.1549 18.843 20.1541 18.8286 20.152 18.8143C20.1433 18.7946 20.1338 18.7752 20.1236 18.7562C20.1238 18.7565 20.1235 18.7559 20.1236 18.7562C20.1198 18.7487 20.1148 18.7407 20.1101 18.7337C20.0954 18.7122 20.0778 18.6928 20.0578 18.6762L20.054 18.673C20.0484 18.6688 20.0426 18.6644 20.0368 18.6606C20.0326 18.6579 20.0281 18.6555 20.0238 18.653Z" fill="#FF2A2A"/>
<path d="M20.0442 19.1598C19.9963 19.1473 19.9491 19.1235 19.9083 19.1114C19.8283 19.0874 19.7431 19.0358 19.684 19.0571C19.6628 19.0664 19.6647 19.0875 19.658 19.1178C19.6552 19.1533 19.6183 19.2058 19.6488 19.1886C19.6946 19.163 19.8148 19.2374 19.8553 19.2623C19.8743 19.2741 19.9147 19.2973 19.9273 19.3304C19.9401 19.3636 19.9335 19.4475 19.9301 19.4835C19.9266 19.5213 19.9381 19.6058 19.9758 19.616C20.0166 19.6268 20.0477 19.5944 20.0636 19.534C20.0788 19.4753 20.0906 19.4415 20.1141 19.4063C20.1375 19.3711 20.1645 19.3559 20.2021 19.3488C20.2397 19.3418 20.2942 19.3796 20.2942 19.3353C20.2942 19.3061 20.2686 19.2783 20.2795 19.2383C20.2881 19.2068 20.2527 19.2131 20.2233 19.2003C20.1543 19.1789 20.0921 19.1723 20.0442 19.1598Z" fill="url(#paint1_linear_16699_273026)"/>
<path d="M19.8513 19.2603C19.8294 19.2484 19.6968 19.1618 19.6483 19.1889C19.6331 19.1974 19.6273 19.1878 19.6271 19.1718C19.6268 19.1557 19.6343 19.1322 19.6393 19.114C19.6443 19.0958 19.6523 19.0612 19.6737 19.0432C19.7194 19.0046 19.8249 19.0816 19.8808 19.1023C19.8761 19.1314 19.8513 19.2603 19.8513 19.2603Z" fill="#910000"/>
<path d="M20.0783 19.4238C20.1393 19.317 20.1788 19.3306 20.2525 19.3322C20.2771 19.3327 20.2843 19.3102 20.2786 19.2877C20.2601 19.3293 20.1679 19.2831 20.1176 19.3052C20.0128 19.3515 20.0323 19.5566 19.9825 19.5766C20.0343 19.6201 20.0575 19.4602 20.0783 19.4238Z" fill="#FF3A3A"/>
<path d="M16.8336 20.5098L16.17 21.659H23.7506L23.0868 20.5098H16.8336Z" fill="url(#paint2_linear_16699_273026)"/>
<path d="M16.6062 21.4248C16.4957 21.4248 16.3931 21.436 16.2922 21.4484L16.2598 21.5048C16.4221 21.4904 16.5729 21.4615 16.7358 21.4575C16.9553 21.4628 17.1547 21.5128 17.3882 21.5128C17.4894 21.5138 17.5901 21.5108 17.6899 21.5128C17.9232 21.5128 18.1226 21.4628 18.3422 21.4575C18.5618 21.4628 18.7624 21.5128 18.9957 21.5128C19.0968 21.5131 19.2076 21.5113 19.2977 21.5128C19.5311 21.5128 19.7292 21.4628 19.9487 21.4575C20.1682 21.4628 20.3667 21.5128 20.5999 21.5128C20.7019 21.5138 20.8022 21.5108 20.9028 21.5128C21.1362 21.5128 21.3354 21.4628 21.5552 21.4575C21.7751 21.4628 21.9739 21.5128 22.2074 21.5128C22.3084 21.5138 22.4094 21.5108 22.5094 21.5128C22.7427 21.5128 22.9411 21.4628 23.1604 21.4575C23.3304 21.4616 23.4884 21.492 23.6594 21.5058L23.6252 21.4463C23.5317 21.435 23.4362 21.4248 23.3339 21.4248C23.2321 21.4235 23.1316 21.4268 23.0308 21.4248C22.7974 21.4248 22.5992 21.4748 22.3798 21.4801C22.1601 21.4748 21.9609 21.4248 21.7274 21.4248C21.6266 21.4235 21.5254 21.4269 21.4257 21.4248C21.1923 21.4248 20.9928 21.4748 20.7732 21.4801C20.5537 21.4748 20.3543 21.4248 20.1211 21.4248C20.0197 21.4235 19.9182 21.4268 19.8179 21.4248C19.5847 21.4248 19.3862 21.4748 19.1669 21.4801C18.9473 21.4748 18.7489 21.4248 18.5157 21.4248C18.4142 21.4234 18.3139 21.4269 18.2139 21.4248C17.9804 21.4248 17.7812 21.4748 17.5616 21.4801C17.3419 21.4748 17.1427 21.4248 16.9093 21.4248C16.8081 21.4235 16.7064 21.4269 16.6062 21.4248Z" fill="url(#paint3_linear_16699_273026)"/>
<path d="M16.6062 21.3506C16.4957 21.3506 16.3931 21.3618 16.2922 21.3742L16.2598 21.4306C16.4221 21.4162 16.5729 21.3873 16.7358 21.3833C16.9553 21.3886 17.1547 21.4386 17.3882 21.4386C17.4894 21.4396 17.5901 21.4366 17.6899 21.4386C17.9232 21.4386 18.1226 21.3886 18.3422 21.3833C18.5618 21.3886 18.7624 21.4386 18.9957 21.4386C19.0968 21.4389 19.2076 21.437 19.2977 21.4386C19.5311 21.4386 19.7292 21.3886 19.9487 21.3833C20.1682 21.3886 20.3667 21.4386 20.5999 21.4386C20.7019 21.4396 20.8022 21.4366 20.9028 21.4386C21.1362 21.4386 21.3354 21.3886 21.5552 21.3833C21.7751 21.3886 21.9739 21.4386 22.2074 21.4386C22.3084 21.4396 22.4094 21.4366 22.5094 21.4386C22.7427 21.4386 22.9411 21.3886 23.1604 21.3833C23.3304 21.3874 23.4884 21.4178 23.6594 21.4316L23.6252 21.372C23.5317 21.3608 23.4362 21.3506 23.3339 21.3506C23.2321 21.3493 23.1316 21.3526 23.0308 21.3506C22.7974 21.3506 22.5992 21.4005 22.3798 21.4059C22.1601 21.4006 21.9609 21.3506 21.7274 21.3506C21.6266 21.3493 21.5254 21.3527 21.4257 21.3506C21.1923 21.3506 20.9928 21.4006 20.7732 21.4059C20.5537 21.4006 20.3543 21.3506 20.1211 21.3506C20.0197 21.3493 19.9182 21.3526 19.8179 21.3506C19.5847 21.3506 19.3862 21.4006 19.1669 21.4059C18.9473 21.4006 18.7489 21.3506 18.5157 21.3506C18.4142 21.3492 18.3139 21.3527 18.2139 21.3506C17.9804 21.3506 17.7812 21.4006 17.5616 21.4059C17.3419 21.4006 17.1427 21.3506 16.9093 21.3506C16.8081 21.3493 16.7064 21.3527 16.6062 21.3506Z" fill="url(#paint4_linear_16699_273026)"/>
<path d="M16.6062 21.2764C16.4957 21.2764 16.3931 21.2876 16.2922 21.3L16.2598 21.3564C16.4221 21.342 16.5729 21.3131 16.7358 21.3091C16.9553 21.3144 17.1547 21.3644 17.3882 21.3644C17.4894 21.3654 17.5901 21.3624 17.6899 21.3644C17.9232 21.3644 18.1226 21.3144 18.3422 21.3091C18.5618 21.3144 18.7624 21.3644 18.9957 21.3644C19.0968 21.3647 19.2076 21.3627 19.2977 21.3644C19.5311 21.3644 19.7292 21.3144 19.9487 21.3091C20.1682 21.3144 20.3667 21.3644 20.5999 21.3644C20.7019 21.3654 20.8022 21.3624 20.9028 21.3644C21.1362 21.3644 21.3354 21.3144 21.5552 21.3091C21.7751 21.3144 21.9739 21.3644 22.2074 21.3644C22.3084 21.3654 22.4094 21.3624 22.5094 21.3644C22.7427 21.3644 22.9411 21.3144 23.1604 21.3091C23.3304 21.3132 23.4884 21.3436 23.6594 21.3574L23.6252 21.2977C23.5317 21.2866 23.4362 21.2764 23.3339 21.2764C23.2321 21.2751 23.1316 21.2784 23.0308 21.2764C22.7974 21.2764 22.5992 21.3262 22.3798 21.3317C22.1601 21.3264 21.9609 21.2764 21.7274 21.2764C21.6266 21.2751 21.5254 21.2785 21.4257 21.2764C21.1923 21.2764 20.9928 21.3264 20.7732 21.3317C20.5537 21.3264 20.3543 21.2764 20.1211 21.2764C20.0197 21.2751 19.9182 21.2784 19.8179 21.2764C19.5847 21.2764 19.3862 21.3264 19.1669 21.3317C18.9473 21.3264 18.7489 21.2764 18.5157 21.2764C18.4142 21.275 18.3139 21.2785 18.2139 21.2764C17.9804 21.2764 17.7812 21.3264 17.5616 21.3317C17.3419 21.3264 17.1427 21.2764 16.9093 21.2764C16.8081 21.2751 16.7064 21.2785 16.6062 21.2764Z" fill="url(#paint5_linear_16699_273026)"/>
<path d="M16.6062 21.2008C16.4957 21.2008 16.3931 21.212 16.2922 21.2243L16.2598 21.2807C16.4221 21.2663 16.5729 21.2376 16.7358 21.2336C16.9553 21.2388 17.1547 21.2888 17.3882 21.2888C17.4894 21.2897 17.5901 21.2868 17.6899 21.2888C17.9232 21.2888 18.1226 21.2388 18.3422 21.2336C18.5618 21.2388 18.7624 21.2888 18.9957 21.2888C19.0968 21.2891 19.2076 21.2872 19.2977 21.2888C19.5311 21.2888 19.7292 21.2388 19.9487 21.2336C20.1682 21.2388 20.3667 21.2888 20.5999 21.2888C20.7019 21.2897 20.8022 21.2868 20.9028 21.2888C21.1362 21.2888 21.3354 21.2388 21.5552 21.2336C21.7751 21.2388 21.9739 21.2888 22.2074 21.2888C22.3084 21.2897 22.4094 21.2868 22.5094 21.2888C22.7427 21.2888 22.9411 21.2388 23.1604 21.2336C23.3304 21.2376 23.4884 21.2681 23.6594 21.2817L23.6252 21.2222C23.5317 21.2111 23.4362 21.2008 23.3339 21.2008C23.2321 21.1996 23.1316 21.2028 23.0308 21.2008C22.7974 21.2008 22.5992 21.2507 22.3798 21.2561C22.1601 21.2507 21.9609 21.2008 21.7274 21.2008C21.6266 21.1996 21.5254 21.203 21.4257 21.2008C21.1923 21.2008 20.9928 21.2507 20.7732 21.2561C20.5537 21.2507 20.3543 21.2008 20.1211 21.2008C20.0197 21.1996 19.9182 21.2028 19.8179 21.2008C19.5847 21.2008 19.3862 21.2507 19.1669 21.2561C18.9473 21.2507 18.7489 21.2008 18.5157 21.2008C18.4142 21.1995 18.3139 21.203 18.2139 21.2008C17.9804 21.2008 17.7812 21.2507 17.5616 21.2561C17.3419 21.2507 17.1427 21.2008 16.9093 21.2008C16.8081 21.1996 16.7064 21.203 16.6062 21.2008Z" fill="url(#paint6_linear_16699_273026)"/>
<path d="M16.6062 21.1273C16.4957 21.1273 16.3931 21.1384 16.2922 21.1508L16.2598 21.2071C16.4221 21.1928 16.5729 21.164 16.7358 21.16C16.9553 21.1653 17.1547 21.2153 17.3882 21.2153C17.4894 21.2161 17.5901 21.2133 17.6899 21.2153C17.9232 21.2153 18.1226 21.1653 18.3422 21.16C18.5618 21.1653 18.7624 21.2153 18.9957 21.2153C19.0968 21.2156 19.2076 21.2136 19.2977 21.2153C19.5311 21.2153 19.7292 21.1653 19.9487 21.16C20.1682 21.1653 20.3667 21.2153 20.5999 21.2153C20.7019 21.2161 20.8022 21.2133 20.9028 21.2153C21.1362 21.2153 21.3354 21.1653 21.5552 21.16C21.7751 21.1653 21.9739 21.2153 22.2074 21.2153C22.3084 21.2161 22.4094 21.2133 22.5094 21.2153C22.7427 21.2153 22.9411 21.1653 23.1604 21.16C23.3304 21.1641 23.4884 21.1945 23.6594 21.2081L23.6252 21.1486C23.5317 21.1375 23.4362 21.1273 23.3339 21.1273C23.2321 21.126 23.1316 21.1293 23.0308 21.1273C22.7974 21.1273 22.5992 21.1771 22.3798 21.1826C22.1601 21.1771 21.9609 21.1273 21.7274 21.1273C21.6266 21.126 21.5254 21.1294 21.4257 21.1273C21.1923 21.1273 20.9928 21.1771 20.7732 21.1826C20.5537 21.1771 20.3543 21.1273 20.1211 21.1273C20.0197 21.126 19.9182 21.1293 19.8179 21.1273C19.5847 21.1273 19.3862 21.1771 19.1669 21.1826C18.9473 21.1771 18.7489 21.1273 18.5157 21.1273C18.4142 21.1259 18.3139 21.1294 18.2139 21.1273C17.9804 21.1273 17.7812 21.1771 17.5616 21.1826C17.3419 21.1771 17.1427 21.1273 16.9093 21.1273C16.8081 21.126 16.7064 21.1294 16.6062 21.1273Z" fill="url(#paint7_linear_16699_273026)"/>
<path d="M16.6062 21.0524C16.4957 21.0524 16.3931 21.0635 16.2922 21.0759L16.2598 21.1323C16.4221 21.1179 16.5729 21.0891 16.7358 21.0851C16.9553 21.0904 17.1547 21.1404 17.3882 21.1404C17.4894 21.1413 17.5901 21.1384 17.6899 21.1404C17.9232 21.1404 18.1226 21.0904 18.3422 21.0851C18.5618 21.0904 18.7624 21.1404 18.9957 21.1404C19.0968 21.1407 19.2076 21.1388 19.2977 21.1404C19.5311 21.1404 19.7292 21.0904 19.9487 21.0851C20.1682 21.0904 20.3667 21.1404 20.5999 21.1404C20.7019 21.1413 20.8022 21.1384 20.9028 21.1404C21.1362 21.1404 21.3354 21.0904 21.5552 21.0851C21.7751 21.0904 21.9739 21.1404 22.2074 21.1404C22.3084 21.1413 22.4094 21.1384 22.5094 21.1404C22.7427 21.1404 22.9411 21.0904 23.1604 21.0851C23.3304 21.0892 23.4884 21.1196 23.6594 21.1333L23.6252 21.0738C23.5317 21.0626 23.4362 21.0524 23.3339 21.0524C23.2321 21.0511 23.1316 21.0544 23.0308 21.0524C22.7974 21.0524 22.5992 21.1023 22.3798 21.1077C22.1601 21.1023 21.9609 21.0524 21.7274 21.0524C21.6266 21.0511 21.5254 21.0545 21.4257 21.0524C21.1923 21.0524 20.9928 21.1023 20.7732 21.1077C20.5537 21.1023 20.3543 21.0524 20.1211 21.0524C20.0197 21.0511 19.9182 21.0544 19.8179 21.0524C19.5847 21.0524 19.3862 21.1023 19.1669 21.1077C18.9473 21.1023 18.7489 21.0524 18.5157 21.0524C18.4142 21.051 18.3139 21.0545 18.2139 21.0524C17.9804 21.0524 17.7812 21.1023 17.5616 21.1077C17.3419 21.1023 17.1427 21.0524 16.9093 21.0524C16.8081 21.0511 16.7064 21.0545 16.6062 21.0524Z" fill="url(#paint8_linear_16699_273026)"/>
<path d="M16.6062 20.9788C16.4957 20.9788 16.3931 20.99 16.2922 21.0023L16.2598 21.0588C16.4221 21.0443 16.5729 21.0155 16.7358 21.0115C16.9553 21.0168 17.1547 21.0668 17.3882 21.0668C17.4894 21.0678 17.5901 21.0648 17.6899 21.0668C17.9232 21.0668 18.1226 21.0168 18.3422 21.0115C18.5618 21.0168 18.7624 21.0668 18.9957 21.0668C19.0968 21.0671 19.2076 21.0653 19.2977 21.0668C19.5311 21.0668 19.7292 21.0168 19.9487 21.0115C20.1682 21.0168 20.3667 21.0668 20.5999 21.0668C20.7019 21.0678 20.8022 21.0648 20.9028 21.0668C21.1362 21.0668 21.3354 21.0168 21.5552 21.0115C21.7751 21.0168 21.9739 21.0668 22.2074 21.0668C22.3084 21.0678 22.4094 21.0648 22.5094 21.0668C22.7427 21.0668 22.9411 21.0168 23.1604 21.0115C23.3304 21.0157 23.4884 21.0461 23.6594 21.0598L23.6252 21.0003C23.5317 20.9891 23.4362 20.9788 23.3339 20.9788C23.2321 20.9775 23.1316 20.9808 23.0308 20.9788C22.7974 20.9788 22.5992 21.0287 22.3798 21.0341C22.1601 21.0288 21.9609 20.9788 21.7274 20.9788C21.6266 20.9775 21.5254 20.9808 21.4257 20.9788C21.1923 20.9788 20.9928 21.0288 20.7732 21.0341C20.5537 21.0288 20.3543 20.9788 20.1211 20.9788C20.0197 20.9775 19.9182 20.9808 19.8179 20.9788C19.5847 20.9788 19.3862 21.0288 19.1669 21.0341C18.9473 21.0288 18.7489 20.9788 18.5157 20.9788C18.4142 20.9775 18.3139 20.9808 18.2139 20.9788C17.9804 20.9788 17.7812 21.0288 17.5616 21.0341C17.3419 21.0288 17.1427 20.9788 16.9093 20.9788C16.8081 20.9775 16.7064 20.9808 16.6062 20.9788Z" fill="url(#paint9_linear_16699_273026)"/>
<path d="M16.6062 20.9047C16.4957 20.9047 16.3931 20.9157 16.2922 20.9282L16.2598 20.9846C16.4221 20.9702 16.5729 20.9412 16.7358 20.9372C16.9553 20.9427 17.1547 20.9927 17.3882 20.9927C17.4894 20.9936 17.5901 20.9907 17.6899 20.9927C17.9232 20.9927 18.1226 20.9427 18.3422 20.9372C18.5618 20.9427 18.7624 20.9927 18.9957 20.9927C19.0968 20.9928 19.2076 20.9911 19.2977 20.9927C19.5311 20.9927 19.7292 20.9427 19.9487 20.9372C20.1682 20.9427 20.3667 20.9927 20.5999 20.9927C20.7019 20.9936 20.8022 20.9907 20.9028 20.9927C21.1362 20.9927 21.3354 20.9427 21.5552 20.9372C21.7751 20.9427 21.9739 20.9927 22.2074 20.9927C22.3084 20.9936 22.4094 20.9907 22.5094 20.9927C22.7427 20.9927 22.9411 20.9427 23.1604 20.9372C23.3304 20.9414 23.4884 20.9718 23.6594 20.9856L23.6252 20.9261C23.5317 20.9148 23.4362 20.9047 23.3339 20.9047C23.2321 20.9032 23.1316 20.9067 23.0308 20.9047C22.7974 20.9047 22.5992 20.9544 22.3798 20.9598C22.1601 20.9546 21.9609 20.9047 21.7274 20.9047C21.6266 20.9032 21.5254 20.9067 21.4257 20.9047C21.1923 20.9047 20.9928 20.9546 20.7732 20.9598C20.5537 20.9546 20.3543 20.9047 20.1211 20.9047C20.0197 20.9032 19.9182 20.9067 19.8179 20.9047C19.5847 20.9047 19.3862 20.9546 19.1669 20.9598C18.9473 20.9546 18.7489 20.9047 18.5157 20.9047C18.4142 20.9032 18.3139 20.9067 18.2139 20.9047C17.9804 20.9047 17.7812 20.9546 17.5616 20.9598C17.3419 20.9546 17.1427 20.9047 16.9093 20.9047C16.8081 20.9032 16.7064 20.9067 16.6062 20.9047Z" fill="url(#paint10_linear_16699_273026)"/>
<path d="M16.6062 20.8298C16.4957 20.8298 16.3931 20.841 16.2922 20.8533L16.2598 20.9098C16.4221 20.8953 16.5729 20.8665 16.7358 20.8625C16.9553 20.8678 17.1547 20.9178 17.3882 20.9178C17.4894 20.9188 17.5901 20.9158 17.6899 20.9178C17.9232 20.9178 18.1226 20.8678 18.3422 20.8625C18.5618 20.8678 18.7624 20.9178 18.9957 20.9178C19.0968 20.9181 19.2076 20.9162 19.2977 20.9178C19.5311 20.9178 19.7292 20.8678 19.9487 20.8625C20.1682 20.8678 20.3667 20.9178 20.5999 20.9178C20.7019 20.9188 20.8022 20.9158 20.9028 20.9178C21.1362 20.9178 21.3354 20.8678 21.5552 20.8625C21.7751 20.8678 21.9739 20.9178 22.2074 20.9178C22.3084 20.9188 22.4094 20.9158 22.5094 20.9178C22.7427 20.9178 22.9411 20.8678 23.1604 20.8625C23.3304 20.8666 23.4884 20.897 23.6594 20.9108L23.6252 20.8512C23.5317 20.84 23.4362 20.8298 23.3339 20.8298C23.2321 20.8285 23.1316 20.8318 23.0308 20.8298C22.7974 20.8298 22.5992 20.8797 22.3798 20.8851C22.1601 20.8798 21.9609 20.8298 21.7274 20.8298C21.6266 20.8285 21.5254 20.8318 21.4257 20.8298C21.1923 20.8298 20.9928 20.8798 20.7732 20.8851C20.5537 20.8798 20.3543 20.8298 20.1211 20.8298C20.0197 20.8285 19.9182 20.8318 19.8179 20.8298C19.5847 20.8298 19.3862 20.8798 19.1669 20.8851C18.9473 20.8798 18.7489 20.8298 18.5157 20.8298C18.4142 20.8283 18.3139 20.8318 18.2139 20.8298C17.9804 20.8298 17.7812 20.8798 17.5616 20.8851C17.3419 20.8798 17.1427 20.8298 16.9093 20.8298C16.8081 20.8285 16.7064 20.8318 16.6062 20.8298Z" fill="url(#paint11_linear_16699_273026)"/>
<path d="M16.8419 20.4974L16.8338 20.5117H23.0864L23.0782 20.4974H16.8419ZM16.8274 20.5225L16.8189 20.5372H23.1012L23.0928 20.5225H16.8274ZM16.8139 20.5456L16.8004 20.5694H23.1198L23.1062 20.5456H16.8139ZM16.7928 20.5822L16.7762 20.6112H23.1439L23.1274 20.5824L16.7928 20.5822ZM16.7662 20.6284L16.7496 20.6574H23.1706L23.1539 20.6284H16.7662ZM16.7396 20.6744L16.7232 20.7031H23.1969L23.1804 20.6744H16.7396ZM16.7131 20.7206L16.6964 20.7492H23.2238L23.2071 20.7206H16.7131ZM16.6844 20.7702L16.6642 20.8055H23.2559L23.2358 20.7702H16.6844ZM17.1171 20.8194C17.3471 20.8634 17.3692 20.8194 17.3692 20.8194H17.1171ZM22.5506 20.8194C22.5506 20.8194 22.5727 20.8634 22.8028 20.8194H22.5506Z" fill="url(#paint12_linear_16699_273026)"/>
<path d="M22.0027 19.8027C21.8889 19.8027 21.854 19.8602 21.854 19.8602C21.6716 20.5653 21.0669 21.2824 20.3474 21.2824H19.8087V22.0003H19.8097H23.9096L23.4972 21.27C22.85 21.1734 22.3212 20.5118 22.1527 19.8602C22.1527 19.8602 22.1167 19.8027 22.0027 19.8027Z" fill="url(#paint13_linear_16699_273026)"/>
<path d="M22.002 19.8307C21.9498 19.8307 21.918 19.8427 21.8995 19.8543C21.8819 19.8653 21.8781 19.8735 21.8781 19.8735L21.8769 19.8747C21.7836 20.2295 21.5868 20.5859 21.3213 20.8552C21.0538 21.1264 20.7166 21.3104 20.3476 21.3104H19.836V21.9719H23.893L23.5144 21.3013C23.2019 21.2605 22.9162 21.0905 22.6838 20.8552C22.4181 20.5859 22.2217 20.2295 22.1282 19.8747L22.1271 19.8735C22.1271 19.8735 22.1224 19.8665 22.1046 19.8555C22.0857 19.8438 22.0543 19.8307 22.002 19.8307Z" fill="#97C924"/>
<path d="M22.0021 19.8307C22.0119 19.8307 22.0208 19.8322 22.0291 19.8329C22.0308 20.0342 22.0291 20.3737 22.0291 20.553C22.0271 20.709 21.9738 20.8345 21.895 20.9824C21.8586 21.086 21.8293 21.0467 21.7384 21.1729C21.6164 21.2165 21.526 21.2335 21.3958 21.2539C21.228 21.2805 20.8544 21.3039 20.67 21.263C20.9128 21.1918 21.1341 21.045 21.3214 20.855C21.3715 20.8042 21.4189 20.7508 21.4634 20.695C21.5381 20.601 21.6053 20.5012 21.6641 20.3963C21.6876 20.3547 21.7098 20.3132 21.7306 20.2702C21.7616 20.2058 21.7894 20.1402 21.8139 20.0742C21.8221 20.0522 21.8301 20.0297 21.8376 20.0077C21.8524 19.9633 21.8654 19.9189 21.8771 19.8747L21.8781 19.8735C21.8781 19.8735 21.882 19.8653 21.8996 19.8543C21.9086 19.8487 21.9216 19.843 21.9379 19.8385H21.939C21.9558 19.8342 21.976 19.8307 22.0021 19.8307Z" fill="#EDE71F"/>
<path d="M21.9562 19.9264C21.9287 20.3286 21.8044 20.8058 21.5132 21.1137C21.4061 21.2028 21.2692 21.2837 21.1368 21.264C21.5882 20.8967 21.8625 20.3342 21.9562 19.9264Z" fill="#C6CB24"/>
<path d="M21.5928 20.6185C21.526 20.7999 21.2736 21.0682 21.0034 21.2881C20.9268 21.2905 20.8861 21.2949 20.8165 21.2907C20.981 21.2757 21.3646 20.9518 21.5928 20.6185Z" fill="#9ECB34"/>
<path d="M20.9774 19.8027C20.8635 19.8027 20.8286 19.8602 20.8286 19.8602C20.6462 20.5653 20.0415 21.2824 19.322 21.2824H18.7833V22.0003H18.7844H22.8842L22.4718 21.27C21.8246 21.1734 21.2958 20.5118 21.1274 19.8602C21.1274 19.8602 21.0914 19.8027 20.9774 19.8027Z" fill="url(#paint14_linear_16699_273026)"/>
<path d="M20.9767 19.8307C20.9244 19.8307 20.8927 19.8427 20.8742 19.8543C20.8565 19.8653 20.8528 19.8735 20.8528 19.8735L20.8515 19.8747C20.7583 20.2295 20.5614 20.5859 20.2959 20.8552C20.0284 21.1264 19.6913 21.3104 19.3223 21.3104H18.8107V21.9719H22.8677L22.489 21.3013C22.1765 21.2605 21.8908 21.0905 21.6584 20.8552C21.3928 20.5859 21.1963 20.2295 21.1028 19.8747L21.1018 19.8735C21.1018 19.8735 21.097 19.8665 21.0793 19.8555C21.0603 19.8438 21.0289 19.8307 20.9767 19.8307Z" fill="#97C924"/>
<path d="M20.9768 19.8307C20.9865 19.8307 20.9954 19.8322 21.0038 19.8329C21.0054 20.0342 21.0038 20.3737 21.0038 20.553C21.0018 20.709 20.9484 20.8345 20.8696 20.9824C20.8333 21.086 20.8039 21.0467 20.713 21.1729C20.591 21.2165 20.5006 21.2335 20.3704 21.2539C20.2026 21.2805 19.829 21.3039 19.6446 21.263C19.8874 21.1918 20.1088 21.045 20.296 20.855C20.3461 20.8042 20.3935 20.7508 20.438 20.695C20.5128 20.601 20.5799 20.5012 20.6388 20.3963C20.6623 20.3547 20.6844 20.3132 20.7053 20.2702C20.7363 20.2058 20.764 20.1402 20.7885 20.0742C20.7968 20.0522 20.8048 20.0297 20.8123 20.0077C20.827 19.9633 20.84 19.9189 20.8518 19.8747L20.8528 19.8735C20.8528 19.8735 20.8566 19.8653 20.8743 19.8543C20.8833 19.8487 20.8963 19.843 20.9125 19.8385H20.9136C20.9304 19.8342 20.9506 19.8307 20.9768 19.8307Z" fill="#EDE71F"/>
<path d="M20.9308 19.9264C20.9033 20.3286 20.779 20.8058 20.4878 21.1137C20.3807 21.2028 20.2438 21.2837 20.1114 21.264C20.5628 20.8967 20.8371 20.3342 20.9308 19.9264Z" fill="#C6CB24"/>
<path d="M20.5674 20.6185C20.5006 20.7999 20.2482 21.0682 19.9781 21.2881C19.9014 21.2905 19.8607 21.2949 19.7911 21.2907C19.9556 21.2757 20.3392 20.9518 20.5674 20.6185Z" fill="#9ECB34"/>
<path d="M20.1095 19.8612C20.2919 20.5662 20.8955 21.2834 21.6151 21.2834H22.1543V22.0012C22.1543 22.0014 22.1533 22.0012 22.1532 22.0012H17.7669C17.7665 22.0012 17.7657 22.0014 17.7657 22.0012V21.2834H18.3039C19.0233 21.2834 19.6281 20.5662 19.8105 19.8612C19.8105 19.8612 19.8461 19.8034 19.9601 19.8034C20.074 19.8034 20.1095 19.8612 20.1095 19.8612Z" fill="url(#paint15_linear_16699_273026)"/>
<path d="M19.9591 19.8307C20.0113 19.8307 20.0427 19.8438 20.0616 19.8555C20.0794 19.8665 20.0842 19.8735 20.0842 19.8735L20.0853 19.8747C20.1787 20.2295 20.3752 20.5859 20.6408 20.8552C20.9087 21.1264 21.2467 21.3104 21.6157 21.3104H22.1251V21.9719H17.7931V21.3103H18.3047C18.6737 21.3103 19.0108 21.1263 19.2783 20.855C19.5438 20.5859 19.7407 20.2295 19.8339 19.8747L19.8351 19.8735C19.8351 19.8735 19.8388 19.8653 19.8564 19.8543C19.8751 19.8427 19.9068 19.8307 19.9591 19.8307Z" fill="#97C924"/>
<path d="M19.912 19.8353C19.9065 19.8364 19.9013 19.8376 19.8958 19.839H19.8947C19.8813 19.8424 19.8684 19.8477 19.8565 19.8548C19.8389 19.8658 19.8353 19.8738 19.8353 19.8738L19.834 19.8749C19.8223 19.9193 19.8093 19.9638 19.7944 20.0081C19.7872 20.0302 19.7789 20.0523 19.7708 20.0744C19.7462 20.1404 19.7187 20.2062 19.6874 20.2706C19.6667 20.3133 19.6444 20.3554 19.6209 20.3968C19.5622 20.5015 19.495 20.6013 19.4203 20.6953C19.3758 20.7511 19.3283 20.8046 19.2783 20.8555C19.0909 21.0455 18.8698 21.1921 18.627 21.2633C18.8113 21.3043 18.8958 21.2595 19.0637 21.233C19.1938 21.2125 19.3443 21.1955 19.4664 21.1519C19.5574 21.0256 19.5264 21.0652 19.5628 20.9616C19.6417 20.8138 19.7567 20.6802 19.7852 20.5162C19.893 20.3148 19.912 19.9419 19.912 19.8353Z" fill="#EDE71F"/>
<path d="M19.9131 19.9271C19.8856 20.3292 19.7613 20.8065 19.4702 21.1144C19.3631 21.2035 19.2262 21.2844 19.0938 21.2646C19.5451 20.8974 19.8194 20.3349 19.9131 19.9271Z" fill="#C6CB24"/>
<path d="M19.5498 20.6191C19.483 20.8005 19.2306 21.0689 18.9605 21.2888C18.8838 21.2911 18.8431 21.2955 18.7735 21.2913C18.938 21.2763 19.3217 20.9525 19.5498 20.6191Z" fill="#9ECB34"/>
<path d="M20.0242 19.8392H20.0255C20.0416 19.8436 20.0545 19.8492 20.0636 19.8549C20.0812 19.8659 20.085 19.874 20.085 19.874L20.0862 19.8752C20.0977 19.9195 20.1107 19.964 20.1256 20.0082C20.133 20.0304 20.1412 20.0526 20.1494 20.0746C20.174 20.1406 20.2016 20.2063 20.2327 20.2707C20.2534 20.3137 20.2757 20.3552 20.2992 20.397C20.358 20.5017 20.4251 20.6015 20.4999 20.6955C20.5444 20.7513 20.5917 20.8048 20.6419 20.8556C20.8292 21.0456 21.0504 21.2186 21.2931 21.2898C20.8101 21.2916 20.6005 21.2478 20.425 21.022C20.2494 20.7962 20.1846 20.6975 20.149 20.5596C20.1132 20.4217 20.0139 20.1216 20.0242 19.8392Z" fill="#EDE71F"/>
<path d="M20.0607 19.9271C20.0882 20.3294 20.2087 20.7275 20.4998 21.0355C20.6069 21.1246 20.7438 21.2055 20.8763 21.1857C20.3873 20.8522 20.1543 20.335 20.0607 19.9271Z" fill="#C6CB24"/>
<path d="M18.9414 19.8027C18.8274 19.8027 18.7916 19.8602 18.7916 19.8602C18.6234 20.51 18.0033 21.3482 17.3584 21.4477L17.0392 22.0003H20.3068V21.2437C19.7184 21.0857 19.2474 20.4684 19.0903 19.8602C19.0903 19.8602 19.0554 19.8027 18.9414 19.8027Z" fill="url(#paint16_linear_16699_273026)"/>
<path d="M18.9412 19.8307C18.889 19.8307 18.8576 19.8438 18.8387 19.8555C18.8207 19.8665 18.8162 19.8735 18.8162 19.8735L18.8151 19.8747C18.7216 20.2295 18.5032 20.5883 18.2763 20.8739C18.0496 21.1595 17.6283 21.4484 17.3402 21.479L17.0547 21.9719H20.2587V21.259C20.0218 21.1863 19.8055 21.0412 19.622 20.855C19.3565 20.5859 19.1597 20.2295 19.0663 19.8747L19.0652 19.8735C19.0652 19.8735 19.0613 19.8653 19.0438 19.8543C19.0252 19.8427 18.9935 19.8307 18.9412 19.8307Z" fill="#97C924"/>
<path d="M18.8547 19.9264C18.8137 20.5292 18.478 21.29 18.0987 21.421C17.9752 21.4637 17.7589 21.4786 17.6837 21.4882C18.3469 21.1728 18.7389 20.4314 18.8547 19.9264Z" fill="#93BC30"/>
<path d="M18.9419 19.8308C18.9321 19.8308 18.9233 19.8322 18.9149 19.8329C18.9134 20.0342 18.9149 20.3737 18.9149 20.553C18.9169 20.709 18.9703 20.8345 19.049 20.9824C19.0536 20.9953 19.058 21.006 19.0625 21.0152C19.0899 21.0875 19.11 21.1127 19.2146 21.192C19.5471 21.4445 19.9594 21.4823 20.2019 21.4614C20.1259 21.4015 20.0446 21.347 19.9731 21.2969C20.0873 21.2932 20.1964 21.2803 20.274 21.263C20.0314 21.1919 19.81 21.045 19.6226 20.855C19.5904 20.8215 19.5591 20.787 19.5291 20.7514C19.5153 20.7319 19.4958 20.7049 19.4896 20.6973C19.4151 20.6039 19.3389 20.5008 19.28 20.3964C19.2565 20.355 19.2344 20.3129 19.2135 20.2702C19.1724 20.1849 19.1366 20.0973 19.1064 20.0077C19.0919 19.9638 19.0788 19.9193 19.067 19.8747L19.0659 19.8735C19.0659 19.8735 19.062 19.8653 19.0444 19.8543C19.0325 19.8473 19.0196 19.842 19.0061 19.8385H19.005C18.9844 19.8332 18.9633 19.8305 18.9419 19.8308Z" fill="#EDE71F"/>
<path d="M18.9883 19.9264C19.0158 20.3286 19.1402 20.8058 19.4313 21.1137C19.5383 21.2028 19.6753 21.2837 19.8077 21.264C19.3563 20.8967 19.082 20.3342 18.9883 19.9264Z" fill="#CCD11E"/>
<path d="M19.2657 20.4831C19.4237 20.8722 19.8237 21.2358 20.2353 21.48C20.3119 21.4823 20.3347 21.4802 20.4044 21.476C20.1098 21.318 19.6351 21.0923 19.2657 20.4831Z" fill="#9ECB34"/>
<path d="M17.9142 19.8027C17.8002 19.8027 17.7643 19.8602 17.7643 19.8602C17.5961 20.51 16.976 21.3482 16.3312 21.4477L16.0118 22.0003H19.2795V21.2437C18.6912 21.0857 18.2202 20.4684 18.063 19.8602C18.063 19.8602 18.0281 19.8027 17.9142 19.8027Z" fill="url(#paint17_linear_16699_273026)"/>
<path d="M17.9139 19.8307C17.8617 19.8307 17.8302 19.8438 17.8114 19.8555C17.7934 19.8667 17.7888 19.8735 17.7888 19.8735L17.7877 19.8747C17.6942 20.2295 17.4758 20.5883 17.249 20.874C17.0222 21.1595 16.601 21.4485 16.3129 21.4792L16.0274 21.9719H19.2314V21.2592C18.9945 21.1863 18.7782 21.0413 18.5947 20.8552C18.3292 20.5859 18.1324 20.2295 18.039 19.8747L18.0379 19.8737C18.0379 19.8737 18.034 19.8654 18.0165 19.8544C17.9978 19.8428 17.9662 19.8307 17.9139 19.8307Z" fill="#97C924"/>
<path d="M17.8274 19.9264C17.7863 20.5292 17.4505 21.29 17.0714 21.421C16.9477 21.4637 16.7315 21.4786 16.6563 21.4882C17.3195 21.1728 17.7115 20.4314 17.8274 19.9264Z" fill="#93BC30"/>
<path d="M17.9146 19.8308C17.9048 19.8308 17.8958 19.8322 17.8875 19.8329C17.886 20.0342 17.8875 20.3737 17.8875 20.553C17.8895 20.709 17.9428 20.8345 18.0216 20.9824C18.0262 20.9953 18.0307 21.006 18.0352 21.0152C18.0625 21.0875 18.0827 21.1127 18.1873 21.192C18.5198 21.4445 18.932 21.4823 19.1745 21.4614C19.0985 21.4015 19.0173 21.3471 18.9458 21.2969C19.0598 21.2932 19.1691 21.2803 19.2466 21.263C19.004 21.1919 18.7826 21.045 18.5953 20.855C18.5628 20.8215 18.5318 20.787 18.5018 20.7514C18.4878 20.7319 18.4683 20.7049 18.4623 20.6973C18.3878 20.6039 18.3113 20.5008 18.2526 20.3964C18.2292 20.355 18.207 20.3129 18.1862 20.2702C18.145 20.1849 18.1093 20.0973 18.0791 20.0077C18.0645 19.9638 18.0513 19.9193 18.0396 19.8747L18.0385 19.8735C18.0385 19.8735 18.0347 19.8653 18.0171 19.8543C18.0051 19.8473 17.9922 19.842 17.9788 19.8385H17.9776C17.9571 19.8332 17.9358 19.8305 17.9146 19.8308Z" fill="#EDE71F"/>
<path d="M17.961 19.9264C17.9885 20.3286 18.1128 20.8058 18.404 21.1137C18.511 21.2028 18.648 21.2837 18.7804 21.264C18.329 20.8967 18.0546 20.3342 17.961 19.9264Z" fill="#C6CB24"/>
<path d="M18.2383 20.4831C18.3963 20.8722 18.7963 21.2358 19.2078 21.48C19.2846 21.4823 19.3073 21.4802 19.3771 21.476C19.0825 21.318 18.6078 21.0923 18.2383 20.4831Z" fill="#9ECB34"/>
<path d="M23.7284 21.6465C23.6901 21.66 23.4336 21.6337 23.2995 21.6435L23.2142 21.6659C23.1393 21.6654 23.065 21.6675 22.9922 21.6659C22.752 21.6659 22.5489 21.729 22.3205 21.729C22.0916 21.729 21.8892 21.6659 21.6488 21.6659C21.5742 21.6654 21.4999 21.6675 21.4268 21.6659C21.1867 21.6659 20.9837 21.729 20.7551 21.729C20.5264 21.729 20.3236 21.6659 20.0834 21.6659C20.008 21.6655 19.934 21.6675 19.8602 21.6659C19.6201 21.6659 19.4181 21.729 19.1897 21.729C18.9611 21.729 18.7593 21.6659 18.5192 21.6659C18.5014 21.6659 18.4848 21.6665 18.4674 21.667C18.4556 21.6667 18.4423 21.6659 18.4303 21.6659C18.4223 21.6659 18.4155 21.6656 18.4076 21.6659C18.3999 21.6656 18.3919 21.6659 18.384 21.6659C18.3719 21.6659 18.361 21.6667 18.3491 21.667C18.3318 21.6665 18.315 21.6659 18.2971 21.6659C18.0568 21.6659 17.8543 21.7291 17.6254 21.729C17.3968 21.729 17.1939 21.6659 16.9538 21.6659C16.9363 21.6659 16.919 21.6665 16.902 21.667C16.89 21.6667 16.8794 21.6659 16.8672 21.6659C16.859 21.6659 16.8504 21.6656 16.8423 21.6659C16.8345 21.6656 16.8265 21.6659 16.8186 21.6659C16.8065 21.6659 16.7944 21.6667 16.7826 21.667C16.7652 21.6665 16.7486 21.6659 16.7308 21.6659C16.5388 21.6659 16.3163 21.7064 16.1351 21.7225L15.7169 22.4465L19.915 22.446L24.2067 22.4465L23.7284 21.6465Z" fill="white"/>
<path d="M23.1609 21.541C23.1475 21.541 23.1343 21.541 23.1211 21.5415C22.9051 21.5478 22.7502 21.6158 22.3745 21.6158C21.9986 21.6158 21.9599 21.5479 21.5355 21.5573C21.1391 21.5659 20.9727 21.6414 20.7575 21.6384C20.5423 21.6354 20.1927 21.5919 19.9235 21.62C19.6544 21.6483 19.335 21.7056 19.1253 21.7061C18.8647 21.7049 18.604 21.6574 18.3316 21.6845C18.0591 21.7115 17.9318 21.7845 17.5941 21.7835C17.3037 21.7826 16.9885 21.737 16.7443 21.7373C16.5153 21.7374 16.2599 21.8009 16.0719 21.8333L16.0157 21.9309C16.1655 21.9136 16.5858 21.8498 16.7359 21.8458C16.8921 21.8418 17.4503 21.878 17.7582 21.8675C18.0661 21.8569 18.1021 21.7893 18.4661 21.7893C18.7195 21.7893 18.9105 21.8159 19.1705 21.8159C19.3327 21.8159 19.48 21.7333 19.7267 21.7333C19.7891 21.7314 19.851 21.7293 19.9129 21.7271C20.1209 21.6928 20.4719 21.7301 20.7161 21.7425C20.9371 21.7541 21.0799 21.7015 21.3104 21.6939C21.4101 21.6893 21.5103 21.6895 21.6087 21.684C21.8393 21.6764 22.0368 21.7268 22.254 21.7256C22.4707 21.7123 22.6809 21.6641 22.9113 21.6565C23.0121 21.6518 23.1112 21.6518 23.2107 21.6466C23.3631 21.6415 23.5998 21.6518 23.7622 21.68L23.7062 21.5833C23.5476 21.5783 23.3521 21.541 23.1609 21.541Z" fill="url(#paint18_linear_16699_273026)"/>
<path d="M16.6482 22.3167C16.4178 22.3167 16.2214 22.3736 16.0048 22.3797C15.9241 22.3775 15.847 22.3675 15.7691 22.3567L15.7364 22.4134C15.7688 22.4155 15.8014 22.4176 15.8356 22.4176C15.9358 22.4188 16.035 22.4152 16.1339 22.4176C16.3644 22.4176 16.5594 22.3608 16.7762 22.3546C16.9931 22.3607 17.1899 22.4176 17.4206 22.4176C17.5206 22.4189 17.6201 22.4152 17.7188 22.4176C17.9493 22.4176 18.1463 22.3607 18.3632 22.3546C18.5803 22.3607 18.7786 22.4176 19.009 22.4176C19.1087 22.4188 19.2086 22.4152 19.307 22.4176C19.5375 22.4176 19.7338 22.3607 19.9505 22.3546C20.1674 22.3607 20.3632 22.4176 20.5938 22.4176C20.6946 22.4189 20.7937 22.4152 20.8931 22.4176C21.1236 22.4176 21.3204 22.3607 21.5376 22.3546C21.7547 22.3607 21.9516 22.4176 22.1822 22.4176C22.2819 22.4188 22.3816 22.4152 22.4802 22.4176C22.7106 22.4176 22.9069 22.3607 23.1236 22.3546C23.3405 22.3607 23.5376 22.4176 23.768 22.4176C23.868 22.4188 23.9678 22.4152 24.0663 22.4176C24.1066 22.4176 24.146 22.4153 24.1848 22.4125L24.154 22.3593C24.083 22.3689 24.0118 22.3777 23.9383 22.3797C23.7214 22.3736 23.5253 22.3167 23.2948 22.3167C23.1942 22.3154 23.095 22.3187 22.9955 22.3167C22.765 22.3167 22.569 22.3736 22.3522 22.3797C22.1351 22.3737 21.9385 22.3167 21.7078 22.3167C21.6081 22.3154 21.5083 22.3187 21.4096 22.3167C21.1791 22.3167 20.9821 22.3736 20.7652 22.3797C20.5482 22.3736 20.3512 22.3167 20.1208 22.3167C20.0206 22.3154 19.9206 22.3187 19.8214 22.3167C19.5909 22.3167 19.3948 22.3736 19.1781 22.3797C18.9612 22.3736 18.7652 22.3167 18.5347 22.3167C18.4343 22.3154 18.3354 22.3187 18.2364 22.3167C18.0058 22.3167 17.8092 22.3737 17.592 22.3797C17.3751 22.3736 17.1782 22.3167 16.9476 22.3167C16.8475 22.3154 16.7472 22.3187 16.6482 22.3167Z" fill="url(#paint19_linear_16699_273026)"/>
<path d="M16.6482 22.2308C16.4178 22.2308 16.2214 22.2877 16.0048 22.2938C15.9241 22.2916 15.847 22.2816 15.7691 22.2708L15.7364 22.3275C15.7688 22.3296 15.8014 22.3317 15.8356 22.3317C15.9358 22.3329 16.035 22.3293 16.1339 22.3317C16.3644 22.3317 16.5594 22.2749 16.7762 22.2687C16.9931 22.2748 17.1899 22.3317 17.4206 22.3317C17.5206 22.3329 17.6201 22.3293 17.7188 22.3317C17.9493 22.3317 18.1463 22.2748 18.3632 22.2687C18.5803 22.2748 18.7786 22.3317 19.009 22.3317C19.1087 22.3329 19.2086 22.3293 19.307 22.3317C19.5375 22.3317 19.7338 22.2748 19.9505 22.2687C20.1674 22.2748 20.3632 22.3317 20.5938 22.3317C20.6946 22.3329 20.7937 22.3293 20.8931 22.3317C21.1236 22.3317 21.3204 22.2748 21.5376 22.2687C21.7547 22.2748 21.9516 22.3317 22.1822 22.3317C22.2819 22.3329 22.3816 22.3293 22.4802 22.3317C22.7106 22.3317 22.9069 22.2748 23.1236 22.2687C23.3405 22.2748 23.5376 22.3317 23.768 22.3317C23.868 22.3329 23.9678 22.3293 24.0663 22.3317C24.1066 22.3317 24.146 22.3294 24.1848 22.3265L24.154 22.2734C24.083 22.283 24.0118 22.2918 23.9383 22.2938C23.7214 22.2877 23.5253 22.2308 23.2948 22.2308C23.1942 22.2295 23.095 22.2328 22.9955 22.2308C22.765 22.2308 22.569 22.2877 22.3522 22.2938C22.1351 22.2877 21.9385 22.2308 21.7078 22.2308C21.6081 22.2295 21.5083 22.2328 21.4096 22.2308C21.1791 22.2308 20.9821 22.2877 20.7652 22.2938C20.5482 22.2877 20.3512 22.2308 20.1208 22.2308C20.0206 22.2295 19.9206 22.2328 19.8214 22.2308C19.5909 22.2308 19.3948 22.2877 19.1781 22.2938C18.9612 22.2877 18.7652 22.2308 18.5347 22.2308C18.4343 22.2295 18.3354 22.2328 18.2364 22.2308C18.0058 22.2308 17.8092 22.2877 17.592 22.2938C17.3751 22.2877 17.1782 22.2308 16.9476 22.2308C16.8475 22.2295 16.7472 22.2328 16.6482 22.2308Z" fill="url(#paint20_linear_16699_273026)"/>
<path d="M16.6482 22.1448C16.4178 22.1448 16.2214 22.2017 16.0048 22.2078C15.9241 22.2057 15.847 22.1957 15.7691 22.1848L15.7364 22.2416C15.7688 22.2437 15.8014 22.2457 15.8356 22.2457C15.9358 22.2469 16.035 22.2433 16.1339 22.2457C16.3644 22.2457 16.5594 22.1889 16.7762 22.1827C16.9931 22.1888 17.1899 22.2457 17.4206 22.2457C17.5206 22.2471 17.6201 22.2433 17.7188 22.2457C17.9493 22.2457 18.1463 22.1888 18.3632 22.1827C18.5803 22.1888 18.7786 22.2457 19.009 22.2457C19.1087 22.2469 19.2086 22.2433 19.307 22.2457C19.5375 22.2457 19.7338 22.1888 19.9505 22.1827C20.1674 22.1888 20.3632 22.2457 20.5938 22.2457C20.6946 22.2471 20.7937 22.2433 20.8931 22.2457C21.1236 22.2457 21.3204 22.1888 21.5376 22.1827C21.7547 22.1888 21.9516 22.2457 22.1822 22.2457C22.2819 22.2469 22.3816 22.2433 22.4802 22.2457C22.7106 22.2457 22.9069 22.1888 23.1236 22.1827C23.3405 22.1888 23.5376 22.2457 23.768 22.2457C23.868 22.2469 23.9678 22.2433 24.0663 22.2457C24.1066 22.2457 24.146 22.2434 24.1848 22.2407L24.154 22.1874C24.083 22.1971 24.0118 22.2058 23.9383 22.2078C23.7214 22.2017 23.5253 22.1448 23.2948 22.1448C23.1942 22.1436 23.095 22.1468 22.9955 22.1448C22.765 22.1448 22.569 22.2017 22.3522 22.2078C22.1351 22.2018 21.9385 22.1448 21.7078 22.1448C21.6081 22.1436 21.5083 22.1468 21.4096 22.1448C21.1791 22.1448 20.9821 22.2017 20.7652 22.2078C20.5482 22.2017 20.3512 22.1448 20.1208 22.1448C20.0206 22.1436 19.9206 22.1468 19.8214 22.1448C19.5909 22.1448 19.3948 22.2017 19.1781 22.2078C18.9612 22.2017 18.7652 22.1448 18.5347 22.1448C18.4343 22.1436 18.3354 22.1468 18.2364 22.1448C18.0058 22.1448 17.8092 22.2018 17.592 22.2078C17.3751 22.2017 17.1782 22.1448 16.9476 22.1448C16.8475 22.1436 16.7472 22.1468 16.6482 22.1448Z" fill="url(#paint21_linear_16699_273026)"/>
<path d="M16.6482 22.0589C16.4178 22.0589 16.2214 22.1158 16.0048 22.1219C15.9241 22.1197 15.847 22.1097 15.7691 22.0989L15.7364 22.1556C15.7688 22.1577 15.8014 22.1598 15.8356 22.1598C15.9358 22.161 16.035 22.1574 16.1339 22.1598C16.3644 22.1598 16.5594 22.103 16.7762 22.0968C16.9931 22.1029 17.1899 22.1598 17.4206 22.1598C17.5206 22.1611 17.6201 22.1574 17.7188 22.1598C17.9493 22.1598 18.1463 22.1029 18.3632 22.0968C18.5803 22.1029 18.7786 22.1598 19.009 22.1598C19.1087 22.161 19.2086 22.1574 19.307 22.1598C19.5375 22.1598 19.7338 22.1029 19.9505 22.0968C20.1674 22.1029 20.3632 22.1598 20.5938 22.1598C20.6946 22.1611 20.7937 22.1574 20.8931 22.1598C21.1236 22.1598 21.3204 22.1029 21.5376 22.0968C21.7547 22.1029 21.9516 22.1598 22.1822 22.1598C22.2819 22.161 22.3816 22.1574 22.4802 22.1598C22.7106 22.1598 22.9069 22.1029 23.1236 22.0968C23.3405 22.1029 23.5376 22.1598 23.768 22.1598C23.868 22.161 23.9678 22.1574 24.0663 22.1598C24.1066 22.1598 24.146 22.1575 24.1848 22.1547L24.154 22.1015C24.083 22.1111 24.0118 22.1199 23.9383 22.1219C23.7214 22.1158 23.5253 22.0589 23.2948 22.0589C23.1942 22.0576 23.095 22.0609 22.9955 22.0589C22.765 22.0589 22.569 22.1158 22.3522 22.1219C22.1351 22.1159 21.9385 22.0589 21.7078 22.0589C21.6081 22.0576 21.5083 22.0609 21.4096 22.0589C21.1791 22.0589 20.9821 22.1158 20.7652 22.1219C20.5482 22.1158 20.3512 22.0589 20.1208 22.0589C20.0206 22.0576 19.9206 22.0609 19.8214 22.0589C19.5909 22.0589 19.3948 22.1158 19.1781 22.1219C18.9612 22.1158 18.7652 22.0589 18.5347 22.0589C18.4343 22.0576 18.3354 22.0609 18.2364 22.0589C18.0058 22.0589 17.8092 22.1159 17.592 22.1219C17.3751 22.1158 17.1782 22.0589 16.9476 22.0589C16.8475 22.0576 16.7472 22.0609 16.6482 22.0589Z" fill="url(#paint22_linear_16699_273026)"/>
<path d="M16.6482 21.973C16.4178 21.973 16.2214 22.0298 16.0048 22.036C15.9241 22.0338 15.847 22.0238 15.7691 22.013L15.7364 22.0696C15.7688 22.0718 15.8014 22.0738 15.8356 22.0738C15.9358 22.075 16.035 22.0714 16.1339 22.0738C16.3644 22.0738 16.5594 22.017 16.7762 22.0108C16.9931 22.017 17.1899 22.0738 17.4206 22.0738C17.5206 22.0751 17.6201 22.0714 17.7188 22.0738C17.9493 22.0738 18.1463 22.017 18.3632 22.0108C18.5803 22.017 18.7786 22.0738 19.009 22.0738C19.1087 22.075 19.2086 22.0714 19.307 22.0738C19.5375 22.0738 19.7338 22.017 19.9505 22.0108C20.1674 22.017 20.3632 22.0738 20.5938 22.0738C20.6946 22.0751 20.7937 22.0714 20.8931 22.0738C21.1236 22.0738 21.3204 22.017 21.5376 22.0108C21.7547 22.017 21.9516 22.0738 22.1822 22.0738C22.2819 22.075 22.3816 22.0714 22.4802 22.0738C22.7106 22.0738 22.9069 22.017 23.1236 22.0108C23.3405 22.017 23.5376 22.0738 23.768 22.0738C23.868 22.075 23.9678 22.0714 24.0663 22.0738C24.1066 22.0738 24.146 22.0716 24.1848 22.0687L24.154 22.0156C24.083 22.0252 24.0118 22.034 23.9383 22.036C23.7214 22.0298 23.5253 21.973 23.2948 21.973C23.1942 21.9716 23.095 21.975 22.9955 21.973C22.765 21.973 22.569 22.0298 22.3522 22.036C22.1351 22.0299 21.9385 21.973 21.7078 21.973C21.6081 21.9716 21.5083 21.975 21.4096 21.973C21.1791 21.973 20.9821 22.0298 20.7652 22.036C20.5482 22.0298 20.3512 21.973 20.1208 21.973C20.0206 21.9716 19.9206 21.975 19.8214 21.973C19.5909 21.973 19.3948 22.0298 19.1781 22.036C18.9612 22.0298 18.7652 21.973 18.5347 21.973C18.4343 21.9716 18.3354 21.975 18.2364 21.973C18.0058 21.973 17.8092 22.0299 17.592 22.036C17.3751 22.0298 17.1782 21.973 16.9476 21.973C16.8475 21.9716 16.7472 21.975 16.6482 21.973Z" fill="url(#paint23_linear_16699_273026)"/>
<path d="M16.6482 21.887C16.4178 21.887 16.2214 21.9439 16.0048 21.95C15.9241 21.9478 15.847 21.9378 15.7691 21.927L15.7364 21.9838C15.7688 21.9858 15.8014 21.9879 15.8356 21.9879C15.9358 21.9892 16.035 21.9855 16.1339 21.9879C16.3644 21.9879 16.5594 21.9312 16.7762 21.9249C16.9931 21.931 17.1899 21.9879 17.4206 21.9879C17.5206 21.9893 17.6201 21.9855 17.7188 21.9879C17.9493 21.9879 18.1463 21.931 18.3632 21.9249C18.5803 21.931 18.7786 21.9879 19.009 21.9879C19.1087 21.9892 19.2086 21.9855 19.307 21.9879C19.5375 21.9879 19.7338 21.931 19.9505 21.9249C20.1674 21.931 20.3632 21.9879 20.5938 21.9879C20.6946 21.9893 20.7937 21.9855 20.8931 21.9879C21.1236 21.9879 21.3204 21.931 21.5376 21.9249C21.7547 21.931 21.9516 21.9879 22.1822 21.9879C22.2819 21.9892 22.3816 21.9855 22.4802 21.9879C22.7106 21.9879 22.9069 21.931 23.1236 21.9249C23.3405 21.931 23.5376 21.9879 23.768 21.9879C23.868 21.9892 23.9678 21.9855 24.0663 21.9879C24.1066 21.9879 24.146 21.9857 24.1848 21.9828L24.154 21.9297C24.083 21.9393 24.0118 21.948 23.9383 21.95C23.7214 21.9439 23.5253 21.887 23.2948 21.887C23.1942 21.8858 23.095 21.889 22.9955 21.887C22.765 21.887 22.569 21.9439 22.3522 21.95C22.1351 21.944 21.9385 21.887 21.7078 21.887C21.6081 21.8858 21.5083 21.889 21.4096 21.887C21.1791 21.887 20.9821 21.9439 20.7652 21.95C20.5482 21.9439 20.3512 21.887 20.1208 21.887C20.0206 21.8858 19.9206 21.889 19.8214 21.887C19.5909 21.887 19.3948 21.9439 19.1781 21.95C18.9612 21.9439 18.7652 21.887 18.5347 21.887C18.4343 21.8858 18.3354 21.889 18.2364 21.887C18.0058 21.887 17.8092 21.944 17.592 21.95C17.3751 21.9439 17.1782 21.887 16.9476 21.887C16.8475 21.8858 16.7472 21.889 16.6482 21.887Z" fill="url(#paint24_linear_16699_273026)"/>
<path d="M16.6482 21.8017C16.4178 21.8017 16.2214 21.8586 16.0048 21.8647C15.9241 21.8626 15.847 21.8526 15.7691 21.8417L15.7364 21.8984C15.7688 21.9006 15.8014 21.9026 15.8356 21.9026C15.9358 21.9038 16.035 21.9002 16.1339 21.9026C16.3644 21.9026 16.5594 21.8458 16.7762 21.8396C16.9931 21.8457 17.1899 21.9026 17.4206 21.9026C17.5206 21.9038 17.6201 21.9002 17.7188 21.9026C17.9493 21.9026 18.1463 21.8457 18.3632 21.8396C18.5803 21.8457 18.7786 21.9026 19.009 21.9026C19.1087 21.9038 19.2086 21.9002 19.307 21.9026C19.5375 21.9026 19.7338 21.8457 19.9505 21.8396C20.1674 21.8457 20.3632 21.9026 20.5938 21.9026C20.6946 21.9038 20.7937 21.9002 20.8931 21.9026C21.1236 21.9026 21.3204 21.8457 21.5376 21.8396C21.7547 21.8457 21.9516 21.9026 22.1822 21.9026C22.2819 21.9038 22.3816 21.9002 22.4802 21.9026C22.7106 21.9026 22.9069 21.8457 23.1236 21.8396C23.3405 21.8457 23.5376 21.9026 23.768 21.9026C23.868 21.9038 23.9678 21.9002 24.0663 21.9026C24.1066 21.9026 24.146 21.9003 24.1848 21.8975L24.154 21.8443C24.083 21.8539 24.0118 21.8627 23.9383 21.8647C23.7214 21.8586 23.5253 21.8017 23.2948 21.8017C23.1942 21.8004 23.095 21.8037 22.9955 21.8017C22.765 21.8017 22.569 21.8586 22.3522 21.8647C22.1351 21.8587 21.9385 21.8017 21.7078 21.8017C21.6081 21.8004 21.5083 21.8037 21.4096 21.8017C21.1791 21.8017 20.9821 21.8586 20.7652 21.8647C20.5482 21.8586 20.3512 21.8017 20.1208 21.8017C20.0206 21.8004 19.9206 21.8037 19.8214 21.8017C19.5909 21.8017 19.3948 21.8586 19.1781 21.8647C18.9612 21.8586 18.7652 21.8017 18.5347 21.8017C18.4343 21.8004 18.3354 21.8037 18.2364 21.8017C18.0058 21.8017 17.8092 21.8587 17.592 21.8647C17.3751 21.8586 17.1782 21.8017 16.9476 21.8017C16.8475 21.8004 16.7472 21.8037 16.6482 21.8017Z" fill="url(#paint25_linear_16699_273026)"/>
<path d="M16.6482 21.7158C16.4178 21.7158 16.2214 21.7726 16.0048 21.7788C15.9241 21.7766 15.847 21.7666 15.7691 21.7558L15.7364 21.8124C15.7688 21.8146 15.8014 21.8166 15.8356 21.8166C15.9358 21.8178 16.035 21.8142 16.1339 21.8166C16.3644 21.8166 16.5594 21.7598 16.7762 21.7536C16.9931 21.7598 17.1899 21.8166 17.4206 21.8166C17.5206 21.8179 17.6201 21.8142 17.7188 21.8166C17.9493 21.8166 18.1463 21.7598 18.3632 21.7536C18.5803 21.7598 18.7786 21.8166 19.009 21.8166C19.1087 21.8178 19.2086 21.8142 19.307 21.8166C19.5375 21.8166 19.7338 21.7598 19.9505 21.7536C20.1674 21.7598 20.3632 21.8166 20.5938 21.8166C20.6946 21.8179 20.7937 21.8142 20.8931 21.8166C21.1236 21.8166 21.3204 21.7598 21.5376 21.7536C21.7547 21.7598 21.9516 21.8166 22.1822 21.8166C22.2819 21.8178 22.3816 21.8142 22.4802 21.8166C22.7106 21.8166 22.9069 21.7598 23.1236 21.7536C23.3405 21.7598 23.5376 21.8166 23.768 21.8166C23.868 21.8178 23.9678 21.8142 24.0663 21.8166C24.1066 21.8166 24.146 21.8144 24.1848 21.8116L24.154 21.7584C24.083 21.7681 24.0118 21.7768 23.9383 21.7788C23.7214 21.7726 23.5253 21.7158 23.2948 21.7158C23.1942 21.7144 23.095 21.7178 22.9955 21.7158C22.765 21.7158 22.569 21.7726 22.3522 21.7788C22.1351 21.7727 21.9385 21.7158 21.7078 21.7158C21.6081 21.7144 21.5083 21.7178 21.4096 21.7158C21.1791 21.7158 20.9821 21.7726 20.7652 21.7788C20.5482 21.7726 20.3512 21.7158 20.1208 21.7158C20.0206 21.7144 19.9206 21.7178 19.8214 21.7158C19.5909 21.7158 19.3948 21.7726 19.1781 21.7788C18.9612 21.7726 18.7652 21.7158 18.5347 21.7158C18.4343 21.7144 18.3354 21.7178 18.2364 21.7158C18.0058 21.7158 17.8092 21.7727 17.592 21.7788C17.3751 21.7726 17.1782 21.7158 16.9476 21.7158C16.8475 21.7144 16.7472 21.7178 16.6482 21.7158Z" fill="url(#paint26_linear_16699_273026)"/>
<path d="M16.6482 21.6298C16.4178 21.6298 16.2214 21.6867 16.0048 21.6928C15.9241 21.6906 15.847 21.6806 15.7691 21.6698L15.7364 21.7266C15.7688 21.7286 15.8014 21.7307 15.8356 21.7307C15.9358 21.732 16.035 21.7283 16.1339 21.7307C16.3644 21.7307 16.5594 21.674 16.7762 21.6677C16.9931 21.6738 17.1899 21.7307 17.4206 21.7307C17.5206 21.7321 17.6201 21.7283 17.7188 21.7307C17.9493 21.7307 18.1463 21.6738 18.3632 21.6677C18.5803 21.6738 18.7786 21.7307 19.009 21.7307C19.1087 21.732 19.2086 21.7283 19.307 21.7307C19.5375 21.7307 19.7338 21.6738 19.9505 21.6677C20.1674 21.6738 20.3632 21.7307 20.5938 21.7307C20.6946 21.7321 20.7937 21.7283 20.8931 21.7307C21.1236 21.7307 21.3204 21.6738 21.5376 21.6677C21.7547 21.6738 21.9516 21.7307 22.1822 21.7307C22.2819 21.732 22.3816 21.7283 22.4802 21.7307C22.7106 21.7307 22.9069 21.6738 23.1236 21.6677C23.3405 21.6738 23.5376 21.7307 23.768 21.7307C23.868 21.732 23.9678 21.7283 24.0663 21.7307C24.1066 21.7307 24.146 21.7285 24.1848 21.7256L24.154 21.6725C24.083 21.6821 24.0118 21.6908 23.9383 21.6928C23.7214 21.6867 23.5253 21.6298 23.2948 21.6298C23.1942 21.6286 23.095 21.6318 22.9955 21.6298C22.765 21.6298 22.569 21.6867 22.3522 21.6928C22.1351 21.6868 21.9385 21.6298 21.7078 21.6298C21.6081 21.6286 21.5083 21.6318 21.4096 21.6298C21.1791 21.6298 20.9821 21.6867 20.7652 21.6928C20.5482 21.6867 20.3512 21.6298 20.1208 21.6298C20.0206 21.6286 19.9206 21.6318 19.8214 21.6298C19.5909 21.6298 19.3948 21.6867 19.1781 21.6928C18.9612 21.6867 18.7652 21.6298 18.5347 21.6298C18.4343 21.6286 18.3354 21.6318 18.2364 21.6298C18.0058 21.6298 17.8092 21.6868 17.592 21.6928C17.3751 21.6867 17.1782 21.6298 16.9476 21.6298C16.8475 21.6286 16.7472 21.6318 16.6482 21.6298Z" fill="url(#paint27_linear_16699_273026)"/>
<path d="M16.2166 21.6471L16.0547 21.9266C16.2441 21.8952 16.5282 21.8131 16.7637 21.8129C17.0078 21.8126 17.3025 21.8731 17.5928 21.8738C17.9307 21.8748 18.058 21.802 18.3305 21.7749C18.6028 21.7477 18.8637 21.8101 19.1242 21.8112C19.3338 21.8107 19.6532 21.7386 19.9223 21.7105C20.1915 21.6822 20.4382 21.73 20.7626 21.7351C21.087 21.7401 21.1378 21.6563 21.5342 21.6476C21.9587 21.6382 21.9975 21.7061 22.3732 21.7061C22.6561 21.7215 22.8987 21.6492 23.151 21.6315C23.4032 21.6136 23.5202 21.6342 23.7047 21.6386L23.5821 21.4218C23.5801 21.4218 23.5781 21.4221 23.576 21.4221L16.8262 21.5705L16.2166 21.6471Z" fill="#97C924"/>
<path d="M23.2989 21.6435C23.2989 21.6435 23.4796 21.6534 23.5554 21.6619C23.621 21.6685 23.6866 21.6741 23.7524 21.6787L23.7277 21.6465C23.6895 21.66 23.4331 21.6337 23.2989 21.6435Z" fill="white"/>
</g>
<path d="M19.9602 14.9915L17.8174 18.7039L15.6269 22.4973L19.9134 22.4968L24.2936 22.4973L22.1501 18.785L19.9602 14.9915ZM19.9602 15.1917L22.0636 18.8352L24.1202 22.397L19.9134 22.3968L15.8001 22.397L17.9041 18.754L19.9602 15.1917Z" fill="#C8A400"/>
</g>
</g>
</g>
<defs>
<linearGradient id="paint0_linear_16699_273026" x1="19.8771" y1="19.2702" x2="20.003" y2="18.8944" gradientUnits="userSpaceOnUse">
<stop stop-color="#510000"/>
<stop offset="0.3" stop-color="#8A0000"/>
<stop offset="1" stop-color="#AA0000"/>
</linearGradient>
<linearGradient id="paint1_linear_16699_273026" x1="20.0572" y1="19.4248" x2="20.1561" y2="19.1631" gradientUnits="userSpaceOnUse">
<stop stop-color="#FF2A2A"/>
<stop offset="1" stop-color="#FF0000"/>
</linearGradient>
<linearGradient id="paint2_linear_16699_273026" x1="16.2608" y1="21.1658" x2="28.9209" y2="21.1658" gradientUnits="userSpaceOnUse">
<stop stop-color="#002255"/>
<stop offset="0.5" stop-color="#0044AA"/>
<stop offset="1" stop-color="#002255"/>
</linearGradient>
<linearGradient id="paint3_linear_16699_273026" x1="16.2598" y1="21.1663" x2="28.9199" y2="21.1663" gradientUnits="userSpaceOnUse">
<stop stop-color="#002255"/>
<stop offset="0.5" stop-color="#0044AA"/>
<stop offset="1" stop-color="#002255"/>
</linearGradient>
<linearGradient id="paint4_linear_16699_273026" x1="16.2598" y1="21.0921" x2="28.9199" y2="21.0921" gradientUnits="userSpaceOnUse">
<stop stop-color="#002255"/>
<stop offset="0.5" stop-color="#0044AA"/>
<stop offset="1" stop-color="#002255"/>
</linearGradient>
<linearGradient id="paint5_linear_16699_273026" x1="16.2598" y1="21.0179" x2="28.9199" y2="21.0179" gradientUnits="userSpaceOnUse">
<stop stop-color="#002255"/>
<stop offset="0.5" stop-color="#0044AA"/>
<stop offset="1" stop-color="#002255"/>
</linearGradient>
<linearGradient id="paint6_linear_16699_273026" x1="16.2598" y1="20.9423" x2="28.9199" y2="20.9423" gradientUnits="userSpaceOnUse">
<stop stop-color="#002255"/>
<stop offset="0.5" stop-color="#0044AA"/>
<stop offset="1" stop-color="#002255"/>
</linearGradient>
<linearGradient id="paint7_linear_16699_273026" x1="16.2598" y1="20.8688" x2="28.9199" y2="20.8688" gradientUnits="userSpaceOnUse">
<stop stop-color="#002255"/>
<stop offset="0.5" stop-color="#0044AA"/>
<stop offset="1" stop-color="#002255"/>
</linearGradient>
<linearGradient id="paint8_linear_16699_273026" x1="16.2598" y1="20.7939" x2="28.9199" y2="20.7939" gradientUnits="userSpaceOnUse">
<stop stop-color="#002255"/>
<stop offset="0.5" stop-color="#0044AA"/>
<stop offset="1" stop-color="#002255"/>
</linearGradient>
<linearGradient id="paint9_linear_16699_273026" x1="16.2598" y1="20.7203" x2="28.9199" y2="20.7203" gradientUnits="userSpaceOnUse">
<stop stop-color="#002255"/>
<stop offset="0.5" stop-color="#0044AA"/>
<stop offset="1" stop-color="#002255"/>
</linearGradient>
<linearGradient id="paint10_linear_16699_273026" x1="16.2598" y1="20.6461" x2="28.9199" y2="20.6461" gradientUnits="userSpaceOnUse">
<stop stop-color="#002255"/>
<stop offset="0.5" stop-color="#0044AA"/>
<stop offset="1" stop-color="#002255"/>
</linearGradient>
<linearGradient id="paint11_linear_16699_273026" x1="16.2598" y1="20.5713" x2="28.9199" y2="20.5713" gradientUnits="userSpaceOnUse">
<stop stop-color="#002255"/>
<stop offset="0.5" stop-color="#0044AA"/>
<stop offset="1" stop-color="#002255"/>
</linearGradient>
<linearGradient id="paint12_linear_16699_273026" x1="16.2606" y1="21.1659" x2="28.9207" y2="21.1659" gradientUnits="userSpaceOnUse">
<stop stop-color="#002255"/>
<stop offset="0.5" stop-color="#0044AA"/>
<stop offset="1" stop-color="#002255"/>
</linearGradient>
<linearGradient id="paint13_linear_16699_273026" x1="18.945" y1="20.7805" x2="18.945" y2="21.1763" gradientUnits="userSpaceOnUse">
<stop stop-color="#F5F549"/>
<stop offset="1" stop-color="#97C924"/>
</linearGradient>
<linearGradient id="paint14_linear_16699_273026" x1="17.9196" y1="20.7805" x2="17.9196" y2="21.1763" gradientUnits="userSpaceOnUse">
<stop stop-color="#F5F549"/>
<stop offset="1" stop-color="#97C924"/>
</linearGradient>
<linearGradient id="paint15_linear_16699_273026" x1="18.9459" y1="20.781" x2="18.9459" y2="21.1769" gradientUnits="userSpaceOnUse">
<stop stop-color="#F5F549"/>
<stop offset="1" stop-color="#97C924"/>
</linearGradient>
<linearGradient id="paint16_linear_16699_273026" x1="18.9424" y1="20.7805" x2="18.9424" y2="21.1763" gradientUnits="userSpaceOnUse">
<stop stop-color="#F5F549"/>
<stop offset="1" stop-color="#97C924"/>
</linearGradient>
<linearGradient id="paint17_linear_16699_273026" x1="17.9152" y1="20.7805" x2="17.9152" y2="21.1763" gradientUnits="userSpaceOnUse">
<stop stop-color="#F5F549"/>
<stop offset="1" stop-color="#97C924"/>
</linearGradient>
<linearGradient id="paint18_linear_16699_273026" x1="16.0157" y1="21.541" x2="23.7622" y2="21.541" gradientUnits="userSpaceOnUse">
<stop stop-color="#002255"/>
<stop offset="0.5" stop-color="#0044AA"/>
<stop offset="1" stop-color="#002255"/>
</linearGradient>
<linearGradient id="paint19_linear_16699_273026" x1="15.7364" y1="22.3164" x2="24.1848" y2="22.3164" gradientUnits="userSpaceOnUse">
<stop stop-color="#002255"/>
<stop offset="0.5" stop-color="#0044AA"/>
<stop offset="1" stop-color="#002255"/>
</linearGradient>
<linearGradient id="paint20_linear_16699_273026" x1="15.7364" y1="22.2305" x2="24.1848" y2="22.2305" gradientUnits="userSpaceOnUse">
<stop stop-color="#002255"/>
<stop offset="0.5" stop-color="#0044AA"/>
<stop offset="1" stop-color="#002255"/>
</linearGradient>
<linearGradient id="paint21_linear_16699_273026" x1="15.7364" y1="22.1446" x2="24.1848" y2="22.1446" gradientUnits="userSpaceOnUse">
<stop stop-color="#002255"/>
<stop offset="0.5" stop-color="#0044AA"/>
<stop offset="1" stop-color="#002255"/>
</linearGradient>
<linearGradient id="paint22_linear_16699_273026" x1="15.7364" y1="22.0586" x2="24.1848" y2="22.0586" gradientUnits="userSpaceOnUse">
<stop stop-color="#002255"/>
<stop offset="0.5" stop-color="#0044AA"/>
<stop offset="1" stop-color="#002255"/>
</linearGradient>
<linearGradient id="paint23_linear_16699_273026" x1="15.7364" y1="21.9727" x2="24.1848" y2="21.9727" gradientUnits="userSpaceOnUse">
<stop stop-color="#002255"/>
<stop offset="0.5" stop-color="#0044AA"/>
<stop offset="1" stop-color="#002255"/>
</linearGradient>
<linearGradient id="paint24_linear_16699_273026" x1="15.7364" y1="21.8868" x2="24.1848" y2="21.8868" gradientUnits="userSpaceOnUse">
<stop stop-color="#002255"/>
<stop offset="0.5" stop-color="#0044AA"/>
<stop offset="1" stop-color="#002255"/>
</linearGradient>
<linearGradient id="paint25_linear_16699_273026" x1="15.7364" y1="21.8014" x2="24.1848" y2="21.8014" gradientUnits="userSpaceOnUse">
<stop stop-color="#002255"/>
<stop offset="0.5" stop-color="#0044AA"/>
<stop offset="1" stop-color="#002255"/>
</linearGradient>
<linearGradient id="paint26_linear_16699_273026" x1="15.7364" y1="21.7156" x2="24.1848" y2="21.7156" gradientUnits="userSpaceOnUse">
<stop stop-color="#002255"/>
<stop offset="0.5" stop-color="#0044AA"/>
<stop offset="1" stop-color="#002255"/>
</linearGradient>
<linearGradient id="paint27_linear_16699_273026" x1="15.7364" y1="21.6296" x2="24.1848" y2="21.6296" gradientUnits="userSpaceOnUse">
<stop stop-color="#002255"/>
<stop offset="0.5" stop-color="#0044AA"/>
<stop offset="1" stop-color="#002255"/>
</linearGradient>
<clipPath id="clip0_16699_273026">
<rect width="40" height="40" fill="white"/>
</clipPath>
</defs>
</svg>
