<svg width="40" height="40" viewBox="0 0 40 40" fill="none" xmlns="http://www.w3.org/2000/svg">
<g clip-path="url(#clip0_16699_273243)">
<mask id="mask0_16699_273243" style="mask-type:luminance" maskUnits="userSpaceOnUse" x="0" y="0" width="40" height="40">
<path d="M40 20C40 8.95431 31.0457 0 20 0C8.95431 0 0 8.95431 0 20C0 31.0457 8.95431 40 20 40C31.0457 40 40 31.0457 40 20Z" fill="white"/>
</mask>
<g mask="url(#mask0_16699_273243)">
<mask id="mask1_16699_273243" style="mask-type:luminance" maskUnits="userSpaceOnUse" x="-7" y="0" width="54" height="40">
<path d="M-6.66669 0H46.6666V40H-6.66669V0Z" fill="white"/>
</mask>
<g mask="url(#mask1_16699_273243)">
<mask id="mask2_16699_273243" style="mask-type:luminance" maskUnits="userSpaceOnUse" x="-7" y="0" width="54" height="41">
<path d="M-6.66669 0H46.6681V40.0016H-6.66669V0Z" fill="white"/>
</mask>
<g mask="url(#mask2_16699_273243)">
<path fill-rule="evenodd" clip-rule="evenodd" d="M-6.66528 0H47.0447V26.6749H-6.66528V0Z" fill="white"/>
<path d="M-6.66525 0L-6.66742 2.00208L6.14966 8.58775L10.9728 8.72758L-6.66525 0Z" fill="#CC0000"/>
<path d="M-1.17749 0L14.3619 8.1165V8.33333e-05H-1.17641L-1.17749 0Z" fill="#000066"/>
<path d="M16.4343 0V10.3616H-6.66449V16.2825H16.4343V26.6442H23.5418V16.2825H46.6407V10.3616H23.5418V0H16.4343Z" fill="#CC0000"/>
<path d="M25.6141 0V7.64792L40.816 0.0593333L25.6141 0Z" fill="#000066"/>
<path d="M26.0948 8.48169L30.3696 8.44727L46.9788 0.0592651L42.5717 0.131099L26.0948 8.48169Z" fill="#CC0000"/>
<path d="M-6.66528 18.0091V23.6832L3.99605 18.0687L-6.66528 18.0085V18.0091Z" fill="#000066"/>
<path d="M34.3885 18.2434L29.9442 18.2089L46.6975 26.5501L46.5873 24.6418L34.3885 18.2434ZM-2.50257 26.691L13.2067 18.4434L9.08021 18.4713L-6.66565 26.6792" fill="#CC0000"/>
<path d="M46.866 2.34333L34.179 8.63467L46.6971 8.6815V18.0563H36.0359L46.5985 23.7795L46.7535 26.691L41.1117 26.6236L25.6702 19.0432V26.691H14.4165V19.0432L-0.0682466 26.6703L-6.60999 26.691V53.3347H100.003V0.04625L46.9785 0M-6.60891 3.00733L-6.66516 8.54092L4.5585 8.6815L-6.60816 3.00733H-6.60891Z" fill="#000066"/>
<path fill-rule="evenodd" clip-rule="evenodd" d="M-6.66663 26.6674H49.6173V53.3348H-6.66663V26.6674Z" fill="#FFD900"/>
<path fill-rule="evenodd" clip-rule="evenodd" d="M24.6099 13.4708C24.6099 16.0102 22.5511 18.0689 20.0116 18.0689C17.4722 18.0689 15.4135 16.0103 15.4135 13.4708C15.4135 10.9313 17.472 8.87259 20.0116 8.87259C22.5511 8.87259 24.6098 10.9313 24.6098 13.4708H24.6099Z" fill="#000067"/>
<path fill-rule="evenodd" clip-rule="evenodd" d="M19.1577 12.2913L20.0421 9.64726L20.9263 12.2912L23.7955 12.2893L21.4728 13.9208L22.3616 16.5636L20.0417 14.9282L17.7217 16.5632L18.6109 13.9208L16.2886 12.2885L19.1577 12.2913ZM35.1292 12.7242L35.5674 11.4864L36.0057 12.7242L37.4277 12.7233L36.2765 13.4871L36.717 14.7244L35.5672 13.9587L34.4175 14.7242L34.8581 13.4871L33.7072 12.723L35.1292 12.7242ZM19.5737 21.9212L20.0119 20.6834L20.4501 21.9212L21.8722 21.9203L20.7209 22.6841L21.1614 23.9213L20.0117 23.1557L18.862 23.9212L19.3026 22.6841L18.1517 21.9199L19.5737 21.9212ZM19.5737 3.9605L20.0119 2.72275L20.4501 3.9605L21.8722 3.95966L20.7209 4.72341L21.1614 5.96066L20.0117 5.195L18.862 5.9605L19.3026 4.72341L18.1517 3.95925L19.5737 3.9605ZM3.9701 12.7242L4.40835 11.4864L4.8466 12.7242L6.26843 12.7233L5.11743 13.4871L5.55776 14.7244L4.4081 13.9587L3.25835 14.7242L3.69901 13.4871L2.5481 12.723L3.9701 12.7242Z" fill="#FFF40D"/>
</g>
</g>
</g>
</g>
<defs>
<clipPath id="clip0_16699_273243">
<rect width="40" height="40" fill="white"/>
</clipPath>
</defs>
</svg>
