<svg width="40" height="40" viewBox="0 0 40 40" fill="none" xmlns="http://www.w3.org/2000/svg">
<g clip-path="url(#clip0_16699_273268)">
<mask id="mask0_16699_273268" style="mask-type:luminance" maskUnits="userSpaceOnUse" x="0" y="0" width="40" height="40">
<path d="M0 20C0 31.0457 8.95431 40 20 40C31.0457 40 40 31.0457 40 20C40 8.95431 31.0457 0 20 0C8.95431 0 0 8.95431 0 20Z" fill="white"/>
</mask>
<g mask="url(#mask0_16699_273268)">
<path d="M40 20C40 8.95433 31.0457 0 20 0C8.95433 0 0 8.95433 0 20C0 31.0457 8.95433 40 20 40C31.0457 40 40 31.0457 40 20Z" fill="#012169"/>
<path d="M40 6.66681H0V33.3335H40V6.66681Z" fill="#012169"/>
<mask id="mask1_16699_273268" style="mask-type:luminance" maskUnits="userSpaceOnUse" x="0" y="6" width="20" height="14">
<path d="M0 6.66681H20V20.0001H0V6.66681Z" fill="white"/>
</mask>
<g mask="url(#mask1_16699_273268)">
<path d="M0 6.66681L20 20.0001M0 20.0001L20 6.66681" stroke="white" stroke-width="1.1547"/>
</g>
<mask id="mask2_16699_273268" style="mask-type:luminance" maskUnits="userSpaceOnUse" x="0" y="6" width="20" height="14">
<path d="M0 6.66681L10 13.3335H0V6.66681ZM10 6.66681H20L10 13.3335V6.66681ZM10 13.3335H20V20.0001L10 13.3335ZM10 13.3335V20.0001H0L10 13.3335Z" fill="white"/>
</mask>
<g mask="url(#mask2_16699_273268)">
<path d="M0 6.66681L20 20.0001M0 20.0001L20 6.66681" stroke="#C8102E" stroke-width="0.7698"/>
</g>
<mask id="mask3_16699_273268" style="mask-type:luminance" maskUnits="userSpaceOnUse" x="0" y="6" width="20" height="14">
<path d="M0 6.66681H20V20.0001H0V6.66681Z" fill="white"/>
</mask>
<g mask="url(#mask3_16699_273268)">
<path d="M10 6.66681V20.0001M0 13.3335H20" stroke="white" stroke-width="1.9245"/>
</g>
<mask id="mask4_16699_273268" style="mask-type:luminance" maskUnits="userSpaceOnUse" x="0" y="6" width="20" height="14">
<path d="M0 6.66681H20V20.0001H0V6.66681Z" fill="white"/>
</mask>
<g mask="url(#mask4_16699_273268)">
<path d="M10 6.66681V20.0001M0 13.3335H20" stroke="#C8102E" stroke-width="1.1547"/>
</g>
<path d="M30.6133 11.5931V12.602L32.6311 11.5931H30.6133Z" fill="white"/>
<path d="M30.9993 12.7789L30.4062 11.9627L32.6317 11.5929L30.9993 12.7789Z" fill="white"/>
<path d="M30.6134 11.5931V12.602L28.5955 11.5931H30.6134Z" fill="white"/>
<path d="M30.2272 12.7789L30.8202 11.9627L28.5949 11.5929L30.2272 12.7789Z" fill="white"/>
<path d="M31.2207 12.0511L30.2612 12.3629L31.8442 13.9701L31.2207 12.0511Z" fill="white"/>
<path d="M30.2135 12.7838L30.8066 11.9676L31.8459 13.9698L30.2135 12.7838Z" fill="white"/>
<path d="M29.9902 12.0507L30.9497 12.3625L30.6137 10.1317L29.9902 12.0507Z" fill="white"/>
<path d="M31.2349 12.0504L30.2754 12.3622L30.6112 10.1313L31.2349 12.0504Z" fill="white"/>
<path d="M29.9922 12.0506L30.9517 12.3624L29.3687 13.9696L29.9922 12.0506Z" fill="white"/>
<path d="M31.0013 12.7834L30.4083 11.9671L29.3688 13.9694L31.0013 12.7834Z" fill="white"/>
<path d="M30.6133 11.8143V12.4809L31.9466 11.8143H30.6133Z" fill="#C8102E"/>
<path d="M30.8683 12.5982L30.4766 12.0588L31.9471 11.8144L30.8683 12.5982Z" fill="#C8102E"/>
<path d="M30.6133 11.8143V12.4809L29.2799 11.8143H30.6133Z" fill="#C8102E"/>
<path d="M30.3581 12.5982L30.75 12.0588L29.2795 11.8144L30.3581 12.5982Z" fill="#C8102E"/>
<path d="M31.0254 12.1146L30.3914 12.3206L31.4374 13.3826L31.0254 12.1146Z" fill="#C8102E"/>
<path d="M30.36 12.5987L30.7519 12.0594L31.4387 13.3824L30.36 12.5987Z" fill="#C8102E"/>
<path d="M30.2051 12.1146L30.8391 12.3206L30.6171 10.8465L30.2051 12.1146Z" fill="#C8102E"/>
<path d="M31.0287 12.1146L30.3945 12.3206L30.6165 10.8465L31.0287 12.1146Z" fill="#C8102E"/>
<path d="M30.2069 12.1146L30.841 12.3206L29.7949 13.3826L30.2069 12.1146Z" fill="#C8102E"/>
<path d="M30.8723 12.5987L30.4805 12.0594L29.7936 13.3824L30.8723 12.5987Z" fill="#C8102E"/>
<path d="M35.8887 16.2567V17.1545L37.6842 16.2567H35.8887Z" fill="white"/>
<path d="M36.2327 17.3124L35.7051 16.5861L37.6854 16.257L36.2327 17.3124Z" fill="white"/>
<path d="M35.8906 16.2567V17.1545L34.0951 16.2567H35.8906Z" fill="white"/>
<path d="M35.5465 17.3123L36.0743 16.5858L34.0939 16.2568L35.5465 17.3123Z" fill="white"/>
<path d="M36.4452 16.6593L35.5915 16.9368L37.0002 18.367L36.4452 16.6593Z" fill="white"/>
<path d="M35.5468 17.3119L36.0744 16.5856L36.9993 18.3674L35.5468 17.3119Z" fill="white"/>
<path d="M35.3359 16.6598L36.1899 16.9372L35.8909 14.9521L35.3359 16.6598Z" fill="white"/>
<path d="M36.4455 16.6598L35.5917 16.9372L35.8907 14.9521L36.4455 16.6598Z" fill="white"/>
<path d="M35.3379 16.6595L36.1918 16.9369L34.783 18.3672L35.3379 16.6595Z" fill="white"/>
<path d="M36.2347 17.3121L35.707 16.5858L34.7821 18.3675L36.2347 17.3121Z" fill="white"/>
<path d="M35.8907 16.4788V17.0343L37.0018 16.4788H35.8907Z" fill="#C8102E"/>
<path d="M36.1039 17.1316L35.7773 16.6821L37.0028 16.4785L36.1039 17.1316Z" fill="#C8102E"/>
<path d="M35.8926 16.4783V17.0339L34.7816 16.4783H35.8926Z" fill="#C8102E"/>
<path d="M35.6793 17.1312L36.0059 16.6817L34.7804 16.478L35.6793 17.1312Z" fill="#C8102E"/>
<path d="M36.2344 16.7281L35.7061 16.8999L36.5778 17.7849L36.2344 16.7281Z" fill="#C8102E"/>
<path d="M35.6793 17.1315L36.006 16.682L36.5782 17.7846L35.6793 17.1315Z" fill="#C8102E"/>
<path d="M35.5468 16.7282L36.0752 16.8999L35.8902 15.6716L35.5468 16.7282Z" fill="#C8102E"/>
<path d="M36.2334 16.7286L35.7051 16.9002L35.8901 15.6718L36.2334 16.7286Z" fill="#C8102E"/>
<path d="M35.5468 16.7278L36.0752 16.8996L35.2034 17.7847L35.5468 16.7278Z" fill="#C8102E"/>
<path d="M36.1018 17.1316L35.7753 16.6821L35.203 17.7847L36.1018 17.1316Z" fill="#C8102E"/>
<path d="M24.457 17.7913V18.8002L26.4748 17.7913H24.457Z" fill="white"/>
<path d="M24.843 18.9771L24.25 18.161L26.4755 17.7911L24.843 18.9771Z" fill="white"/>
<path d="M24.4571 17.7913V18.8002L22.4393 17.7913H24.4571Z" fill="white"/>
<path d="M24.071 18.9771L24.664 18.161L22.4387 17.7911L24.071 18.9771Z" fill="white"/>
<path d="M25.0645 18.2479L24.105 18.5597L25.688 20.1669L25.0645 18.2479Z" fill="white"/>
<path d="M24.0555 18.9811L24.6485 18.1649L25.6879 20.1671L24.0555 18.9811Z" fill="white"/>
<path d="M23.834 18.2484L24.7935 18.5602L24.4575 16.3294L23.834 18.2484Z" fill="white"/>
<path d="M25.0827 18.2487L24.1231 18.5604L24.4591 16.3296L25.0827 18.2487Z" fill="white"/>
<path d="M23.832 18.2484L24.7915 18.5602L23.2085 20.1674L23.832 18.2484Z" fill="white"/>
<path d="M24.8412 18.9811L24.2481 18.1649L23.2087 20.1671L24.8412 18.9811Z" fill="white"/>
<path d="M24.4512 18.0135V18.6802L25.7845 18.0135H24.4512Z" fill="#C8102E"/>
<path d="M24.7062 18.7975L24.3144 18.2581L25.7849 18.0137L24.7062 18.7975Z" fill="#C8102E"/>
<path d="M24.4513 18.0135V18.6802L23.1179 18.0135H24.4513Z" fill="#C8102E"/>
<path d="M24.1961 18.7975L24.5879 18.2581L23.1173 18.0137L24.1961 18.7975Z" fill="#C8102E"/>
<path d="M24.8614 18.3134L24.2274 18.5194L25.2735 19.5814L24.8614 18.3134Z" fill="#C8102E"/>
<path d="M24.196 18.7975L24.5878 18.2582L25.2747 19.5813L24.196 18.7975Z" fill="#C8102E"/>
<path d="M24.043 18.3123L24.677 18.5183L24.455 17.0443L24.043 18.3123Z" fill="#C8102E"/>
<path d="M24.8665 18.3127L24.2324 18.5188L24.4544 17.0447L24.8665 18.3127Z" fill="#C8102E"/>
<path d="M24.045 18.3129L24.6791 18.5189L23.633 19.5809L24.045 18.3129Z" fill="#C8102E"/>
<path d="M24.7102 18.7971L24.3184 18.2577L23.6315 19.5808L24.7102 18.7971Z" fill="#C8102E"/>
<path d="M30.6133 27.5208V28.6408L32.8533 27.5208H30.6133Z" fill="white"/>
<path d="M31.0411 28.8372L30.3828 27.9311L32.8533 27.5206L31.0411 28.8372Z" fill="white"/>
<path d="M30.6133 27.5208V28.6408L28.3734 27.5208H30.6133Z" fill="white"/>
<path d="M30.1854 28.8372L30.8438 27.9311L28.3732 27.5206L30.1854 28.8372Z" fill="white"/>
<path d="M31.3067 28.0237L30.2415 28.3698L31.9988 30.1542L31.3067 28.0237Z" fill="white"/>
<path d="M30.1873 28.8376L30.8457 27.9315L31.9995 30.1542L30.1873 28.8376Z" fill="white"/>
<path d="M29.9218 28.0234L30.9871 28.3694L30.6141 25.8929L29.9218 28.0234Z" fill="white"/>
<path d="M31.3074 28.0233L30.2422 28.3695L30.6152 25.8931L31.3074 28.0233Z" fill="white"/>
<path d="M29.9215 28.0233L30.9867 28.3693L29.2293 30.1537L29.9215 28.0233Z" fill="white"/>
<path d="M31.0409 28.8371L30.3826 27.931L29.2286 30.1538L31.0409 28.8371Z" fill="white"/>
<path d="M30.6133 27.7445V28.5223L32.1688 27.7445H30.6133Z" fill="#C8102E"/>
<path d="M30.9104 28.6586L30.4532 28.0294L32.1689 27.7443L30.9104 28.6586Z" fill="#C8102E"/>
<path d="M30.6132 27.7445V28.5223L29.0576 27.7445H30.6132Z" fill="#C8102E"/>
<path d="M30.3162 28.6586L30.7734 28.0294L29.0577 27.7443L30.3162 28.6586Z" fill="#C8102E"/>
<path d="M31.0918 28.0965L30.3521 28.3368L31.5724 29.5759L31.0918 28.0965Z" fill="#C8102E"/>
<path d="M30.3143 28.6618L30.7715 28.0326L31.5728 29.5762L30.3143 28.6618Z" fill="#C8102E"/>
<path d="M30.1172 28.0971L30.8569 28.3374L30.5979 26.6177L30.1172 28.0971Z" fill="#C8102E"/>
<path d="M31.0776 28.0969L30.3379 28.3372L30.5969 26.6175L31.0776 28.0969Z" fill="#C8102E"/>
<path d="M30.1173 28.0965L30.8569 28.3368L29.6366 29.5759L30.1173 28.0965Z" fill="#C8102E"/>
<path d="M30.8946 28.6618L30.4375 28.0326L29.6362 29.5762L30.8946 28.6618Z" fill="#C8102E"/>
</g>
</g>
<defs>
<clipPath id="clip0_16699_273268">
<rect width="40" height="40" fill="white"/>
</clipPath>
</defs>
</svg>
