<svg width="40" height="40" viewBox="0 0 40 40" fill="none" xmlns="http://www.w3.org/2000/svg">
<g clip-path="url(#clip0_16699_273375)">
<mask id="mask0_16699_273375" style="mask-type:luminance" maskUnits="userSpaceOnUse" x="0" y="0" width="40" height="40">
<path d="M40 0H0V40H40V0Z" fill="white"/>
</mask>
<g mask="url(#mask0_16699_273375)">
<mask id="mask1_16699_273375" style="mask-type:luminance" maskUnits="userSpaceOnUse" x="0" y="0" width="40" height="40">
<path d="M40 20C40 8.95433 31.0457 0 20 0C8.95433 0 0 8.95433 0 20C0 31.0457 8.95433 40 20 40C31.0457 40 40 31.0457 40 20Z" fill="white"/>
</mask>
<g mask="url(#mask1_16699_273375)">
<path d="M0 0H60V40H0V0Z" fill="#DB161B"/>
<path d="M20 0H60V13.3333H20V0Z" fill="white"/>
<path d="M20 26.6667H60V40.0001H20V26.6667Z" fill="#008000"/>
<path d="M9.74041 8.2666H8.26971C8.18871 8.2666 8.12305 8.32818 8.12305 8.40417V9.09692C8.12305 9.17292 8.18871 9.2345 8.26971 9.2345H9.74041C9.82141 9.2345 9.88708 9.17292 9.88708 9.09692V8.40417C9.88708 8.32818 9.82141 8.2666 9.74041 8.2666Z" fill="white" stroke="#DB161B" stroke-width="0.00862185"/>
<path d="M9.70242 8.30664H8.3071C8.23026 8.30664 8.16797 8.36308 8.16797 8.43275V9.06775C8.16797 9.13742 8.23026 9.19383 8.3071 9.19383H9.70242C9.77925 9.19383 9.8415 9.13742 9.8415 9.06775V8.43275C9.8415 8.36308 9.77925 8.30664 9.70242 8.30664Z" fill="white" stroke="#DB161B" stroke-width="0.0080288"/>
<path fill-rule="evenodd" clip-rule="evenodd" d="M8.94658 8.54883L9.03116 8.55158L9.03499 8.58991L9.10416 8.62499L9.158 8.58124L9.22325 8.61633L9.16183 8.65466L9.17716 8.70758L9.25399 8.70483V8.77558L9.19258 8.77233L9.16183 8.81658L9.23091 8.86674L9.17716 8.90783L9.11949 8.86358L9.03499 8.88141L9.03883 8.94616L8.94658 8.95208L8.93508 8.89008L8.85825 8.85766L8.81599 8.90191L8.75066 8.86949L8.78908 8.81933L8.74299 8.78691H8.67766L8.67383 8.69574L8.73916 8.70166L8.78524 8.64875L8.73141 8.60766L8.80058 8.56024L8.85058 8.59858L8.93508 8.58716L8.94658 8.54883Z" fill="white" stroke="#DB161B" stroke-width="0.0050636"/>
<path d="M8.97174 8.81956C9.02299 8.81956 9.06457 8.78398 9.06457 8.74006C9.06457 8.69623 9.02299 8.66064 8.97174 8.66064C8.92049 8.66064 8.87891 8.69623 8.87891 8.74006C8.87891 8.78398 8.92049 8.81956 8.97174 8.81956Z" fill="white" stroke="#DB161B" stroke-width="0.0054617"/>
<path d="M8.32562 8.40793L8.37089 8.36768L8.41606 8.40793L8.46131 8.36768L8.50656 8.40793L8.55181 8.36768L8.59697 8.40793L8.64222 8.36768L8.68747 8.40793L8.73272 8.36768L8.77797 8.40793L8.82314 8.36768L8.86839 8.40793L8.91364 8.36768L8.95889 8.40793L9.00414 8.36768L9.04931 8.40793L9.09456 8.36768L9.13981 8.40793L9.18506 8.36768L9.23022 8.40793L9.27547 8.36768L9.32072 8.40793L9.36597 8.36768L9.41114 8.40793L9.45639 8.36768L9.50164 8.40793L9.54689 8.36768L9.59206 8.40793L9.63731 8.36768L9.68256 8.40793L9.63731 8.44826L9.59206 8.40793L9.54689 8.44826L9.50164 8.40793L9.45639 8.44826L9.41114 8.40793L9.36597 8.44826L9.32072 8.40793L9.27547 8.44826L9.23022 8.40793L9.18506 8.44826L9.13981 8.40793L9.09456 8.44826L9.04931 8.40793L9.00414 8.44826L8.95889 8.40793L8.91364 8.44826L8.86839 8.40793L8.82314 8.44826L8.77797 8.40793L8.73272 8.44826L8.68747 8.40793L8.64222 8.44826L8.59697 8.40793L8.55181 8.44826L8.50656 8.40793L8.46131 8.44826L8.41606 8.40793L8.37089 8.44826L8.32562 8.40793Z" fill="white"/>
<path d="M8.32562 9.09333L8.37089 9.05292L8.41606 9.09333L8.46131 9.05292L8.50656 9.09333L8.55181 9.05292L8.59697 9.09333L8.64222 9.05292L8.68747 9.09333L8.73272 9.05292L8.77797 9.09333L8.82314 9.05292L8.86839 9.09333L8.91364 9.05292L8.95889 9.09333L9.00414 9.05292L9.04931 9.09333L9.09456 9.05292L9.13981 9.09333L9.18506 9.05292L9.23022 9.09333L9.27547 9.05292L9.32072 9.09333L9.36597 9.05292L9.41114 9.09333L9.45639 9.05292L9.50164 9.09333L9.54689 9.05292L9.59206 9.09333L9.63731 9.05292L9.68256 9.09333L9.63731 9.13383L9.59206 9.09333L9.54689 9.13375L9.50164 9.09333L9.45639 9.13375L9.41114 9.09333L9.36597 9.13375L9.32072 9.09333L9.27547 9.13383L9.23022 9.09333L9.18506 9.13383L9.13981 9.09333L9.09456 9.13383L9.04931 9.09333L9.00414 9.13383L8.95889 9.09333L8.91364 9.13383L8.86839 9.09333L8.82314 9.13383L8.77797 9.09333L8.73272 9.13383L8.68747 9.09333L8.64222 9.13383L8.59697 9.09333L8.55181 9.13383L8.50656 9.09333L8.46131 9.13383L8.41606 9.09333L8.37089 9.13383L8.32562 9.09333Z" fill="white"/>
<path d="M8.3935 8.3475L8.25781 8.46842M8.48391 8.3475L8.34825 8.46842M8.57441 8.3475L8.43875 8.46842M8.66483 8.3475L8.52916 8.46842M8.75533 8.3475L8.61966 8.46842M8.84583 8.3475L8.71008 8.46842M8.93633 8.3475L8.80058 8.46842M9.02675 8.3475L8.89108 8.46842M9.11725 8.3475L8.9815 8.46842M9.20766 8.3475L9.072 8.46842M9.29816 8.3475L9.16241 8.46842M9.38858 8.3475L9.25291 8.46842M9.47908 8.3475L9.34333 8.46842M9.5695 8.3475L9.43383 8.46842M9.66 8.3475L9.52425 8.46842M9.7505 8.3475L9.61475 8.46842M9.61475 8.3475L9.7505 8.46842M9.52425 8.3475L9.66 8.46842M9.43383 8.3475L9.5695 8.46842M9.34333 8.3475L9.47908 8.46842M9.25291 8.3475L9.38858 8.46842M9.16241 8.3475L9.29816 8.46842M9.072 8.3475L9.20766 8.46842M8.9815 8.3475L9.11725 8.46842M8.89108 8.3475L9.02675 8.46842M8.80058 8.3475L8.93633 8.46842M8.71008 8.3475L8.84583 8.46842M8.61966 8.3475L8.75533 8.46842M8.52916 8.3475L8.66483 8.46842M8.43875 8.3475L8.57441 8.46842M8.34825 8.3475L8.48391 8.46842M8.25781 8.3475L8.3935 8.46842M8.3935 9.03267L8.25781 9.154M8.48391 9.03267L8.34825 9.154M8.57441 9.03267L8.43875 9.154M8.66483 9.03267L8.52916 9.154M8.75533 9.03267L8.61966 9.154M8.84583 9.03267L8.71008 9.154M8.93633 9.03267L8.80058 9.154M9.02675 9.03267L8.89108 9.154M9.11725 9.03267L8.9815 9.154M9.20766 9.03267L9.072 9.154M9.29816 9.03267L9.16241 9.154M9.38858 9.03267L9.25291 9.154M9.47908 9.03267L9.34333 9.154M9.5695 9.03267L9.43383 9.154M9.66 9.03267L9.52425 9.154M9.7505 9.03267L9.61475 9.154M9.61475 9.03267L9.7505 9.154M9.52425 9.03267L9.66 9.154M9.43383 9.03267L9.5695 9.154M9.34333 9.03267L9.47908 9.154M9.25291 9.03267L9.38858 9.154M9.16241 9.03267L9.29816 9.154M9.072 9.03267L9.20766 9.154M8.9815 9.03267L9.11725 9.154M8.89108 9.03267L9.02675 9.154M8.80058 9.03267L8.93633 9.154M8.71008 9.03267L8.84583 9.154M8.61966 9.03267L8.75533 9.154M8.52916 9.03267L8.66483 9.154M8.43875 9.03267L8.57441 9.154M8.34825 9.03267L8.48391 9.154M8.25781 9.03267L8.3935 9.154" stroke="#DB161B" stroke-width="0.0080288"/>
<path d="M14.1834 8.2666H15.6541C15.7351 8.2666 15.8007 8.32818 15.8007 8.40417V9.09692C15.8007 9.17292 15.7351 9.2345 15.6541 9.2345H14.1834C14.1024 9.2345 14.0367 9.17292 14.0367 9.09692V8.40417C14.0367 8.32818 14.1024 8.2666 14.1834 8.2666Z" fill="white" stroke="#DB161B" stroke-width="0.00862185"/>
<path d="M14.2214 8.30664H15.6168C15.6937 8.30664 15.7559 8.36308 15.7559 8.43275V9.06775C15.7559 9.13742 15.6937 9.19383 15.6168 9.19383H14.2214C14.1447 9.19383 14.0823 9.13742 14.0823 9.06775V8.43275C14.0823 8.36308 14.1447 8.30664 14.2214 8.30664Z" fill="white" stroke="#DB161B" stroke-width="0.0080288"/>
<path fill-rule="evenodd" clip-rule="evenodd" d="M14.9773 8.54901L14.8928 8.55176L14.8889 8.59009L14.8198 8.62518L14.7659 8.58143L14.7008 8.61651L14.7621 8.65484L14.7468 8.70776L14.6699 8.70501V8.77576L14.7314 8.77251L14.7621 8.81676L14.6929 8.86693L14.7468 8.90801L14.8044 8.86376L14.8889 8.88159L14.8851 8.94634L14.9773 8.95226L14.9888 8.89026L15.0656 8.85784L15.1079 8.90209L15.1733 8.86968L15.1348 8.81951L15.1809 8.78709H15.2463L15.2501 8.69593L15.1848 8.70184L15.1388 8.64893L15.1925 8.60784L15.1233 8.56043L15.0734 8.59876L14.9888 8.58734L14.9773 8.54901Z" fill="white" stroke="#DB161B" stroke-width="0.0050636"/>
<path d="M14.9521 8.81956C14.9009 8.81956 14.8593 8.78398 14.8593 8.74006C14.8593 8.69623 14.9009 8.66064 14.9521 8.66064C15.0035 8.66064 15.045 8.69623 15.045 8.74006C15.045 8.78398 15.0035 8.81956 14.9521 8.81956Z" fill="white" stroke="#DB161B" stroke-width="0.0054617"/>
<path d="M15.5528 8.36768L15.598 8.40793L15.5528 8.44826L15.5075 8.40793L15.4623 8.44818L15.4172 8.40793L15.3719 8.44826L15.3267 8.40793L15.2814 8.44826L15.2362 8.40793L15.191 8.44826L15.1458 8.40793L15.1005 8.44826L15.0553 8.40793L15.01 8.44826L14.9648 8.40793L14.9195 8.44818L14.8743 8.40793L14.8291 8.44826L14.7838 8.40793L14.7386 8.44826L14.6934 8.40793L14.6482 8.44826L14.6029 8.40793L14.5577 8.44826L14.5124 8.40793L14.4673 8.44818L14.422 8.40793L14.3768 8.44826L14.3315 8.40793L14.2863 8.44826L14.2411 8.40793L14.2863 8.36768L14.3315 8.40793L14.3768 8.36768L14.422 8.40793L14.4673 8.36768L14.5124 8.40793L14.5577 8.36768L14.6029 8.40793L14.6482 8.36768L14.6934 8.40793L14.7386 8.36768L14.7838 8.40793L14.8291 8.36768L14.8743 8.40793L14.9195 8.36768L14.9648 8.40793L15.01 8.36768L15.0553 8.40793L15.1005 8.36768L15.1458 8.40793L15.191 8.36768L15.2362 8.40793L15.2814 8.36768L15.3267 8.40793L15.3719 8.36768L15.4172 8.40793L15.4623 8.36768L15.5075 8.40793L15.5528 8.36768Z" fill="white"/>
<path d="M15.5528 9.05292L15.598 9.09333L15.5528 9.13383L15.5075 9.09333L15.4623 9.13375L15.4172 9.09333L15.3719 9.13383L15.3267 9.09333L15.2814 9.13383L15.2362 9.09333L15.191 9.13383L15.1458 9.09333L15.1005 9.13383L15.0553 9.09333L15.01 9.13383L14.9648 9.09333L14.9195 9.13375L14.8743 9.09333L14.8291 9.13383L14.7838 9.09333L14.7386 9.13375L14.6934 9.09333L14.6482 9.13375L14.6029 9.09333L14.5577 9.13383L14.5124 9.09333L14.4673 9.13375L14.422 9.09333L14.3768 9.13383L14.3315 9.09333L14.2863 9.13375L14.2411 9.09333L14.2863 9.05292L14.3315 9.09333L14.3768 9.05292L14.422 9.09333L14.4673 9.05292L14.5124 9.09333L14.5577 9.05292L14.6029 9.09333L14.6482 9.05292L14.6934 9.09333L14.7386 9.05292L14.7838 9.09333L14.8291 9.05292L14.8743 9.09333L14.9195 9.05292L14.9648 9.09333L15.01 9.05292L15.0553 9.09333L15.1005 9.05292L15.1458 9.09333L15.191 9.05292L15.2362 9.09333L15.2814 9.05292L15.3267 9.09333L15.3719 9.05292L15.4172 9.09333L15.4623 9.05292L15.5075 9.09333L15.5528 9.05292Z" fill="white"/>
<path d="M15.5302 8.3475L15.6659 8.46842M15.4397 8.3475L15.5754 8.46842M15.3492 8.3475L15.485 8.46842M15.2587 8.3475L15.3945 8.46842M15.1684 8.3475L15.304 8.46842M15.0779 8.3475L15.2136 8.46842M14.9874 8.3475L15.1231 8.46842M14.8969 8.3475L15.0326 8.46842M14.8065 8.3475L14.9422 8.46842M14.716 8.3475L14.8517 8.46842M14.6255 8.3475L14.7612 8.46842M14.5351 8.3475L14.6707 8.46842M14.4446 8.3475L14.5802 8.46842M14.3542 8.3475L14.4899 8.46842M14.2637 8.3475L14.3994 8.46842M14.1732 8.3475L14.309 8.46842M14.309 8.3475L14.1732 8.46842M14.3994 8.3475L14.2637 8.46842M14.4899 8.3475L14.3542 8.46842M14.5802 8.3475L14.4446 8.46842M14.6707 8.3475L14.5351 8.46842M14.7612 8.3475L14.6255 8.46842M14.8517 8.3475L14.716 8.46842M14.9422 8.3475L14.8065 8.46842M15.0326 8.3475L14.8969 8.46842M15.1231 8.3475L14.9874 8.46842M15.2136 8.3475L15.0779 8.46842M15.304 8.3475L15.1684 8.46842M15.3945 8.3475L15.2587 8.46842M15.485 8.3475L15.3492 8.46842M15.5754 8.3475L15.4397 8.46842M15.6659 8.3475L15.5302 8.46842M15.5302 9.03267L15.6659 9.154M15.4397 9.03267L15.5754 9.154M15.3492 9.03267L15.485 9.154M15.2587 9.03267L15.3945 9.154M15.1684 9.03267L15.304 9.154M15.0779 9.03267L15.2136 9.154M14.9874 9.03267L15.1231 9.154M14.8969 9.03267L15.0326 9.154M14.8065 9.03267L14.9422 9.154M14.716 9.03267L14.8517 9.154M14.6255 9.03267L14.7612 9.154M14.5351 9.03267L14.6707 9.154M14.4446 9.03267L14.5802 9.154M14.3542 9.03267L14.4899 9.154M14.2637 9.03267L14.3994 9.154M14.1732 9.03267L14.309 9.154M14.309 9.03267L14.1732 9.154M14.3994 9.03267L14.2637 9.154M14.4899 9.03267L14.3542 9.154M14.5802 9.03267L14.4446 9.154M14.6707 9.03267L14.5351 9.154M14.7612 9.03267L14.6255 9.154M14.8517 9.03267L14.716 9.154M14.9422 9.03267L14.8065 9.154M15.0326 9.03267L14.8969 9.154M15.1231 9.03267L14.9874 9.154M15.2136 9.03267L15.0779 9.154M15.304 9.03267L15.1684 9.154M15.3945 9.03267L15.2587 9.154M15.485 9.03267L15.3492 9.154M15.5754 9.03267L15.4397 9.154M15.6659 9.03267L15.5302 9.154" stroke="#DB161B" stroke-width="0.0080288"/>
<path fill-rule="evenodd" clip-rule="evenodd" d="M10.8893 10.296C8.69441 12.4423 7.75814 12.7137 8.19754 12.8866C8.63691 13.0595 10.0504 11.9519 11.5211 10.4803C12.9918 9.00908 13.8923 7.69956 13.453 7.52662C13.0137 7.35364 13.2236 8.013 10.8893 10.296Z" fill="white" stroke="#DB161B" stroke-width="0.0128872"/>
<path fill-rule="evenodd" clip-rule="evenodd" d="M9.042 11.8552L9.81075 12.0567C9.08725 12.7423 8.27308 13.0247 8.04695 12.9038C7.82078 12.7829 8.454 12.5007 9.042 11.8552Z" fill="white" stroke="#DB161B" stroke-width="0.007527"/>
<path fill-rule="evenodd" clip-rule="evenodd" d="M9.04083 11.936L9.67408 12.0975C8.96917 12.7568 8.27192 12.9443 8.0915 12.8639C7.91008 12.7833 8.46808 12.5564 9.04083 11.936Z" fill="white" stroke="#DB161B" stroke-width="0.007527"/>
<path d="M11.4039 10.2017C11.402 10.2122 11.397 10.2582 11.3925 10.2765C11.3925 10.302 11.3897 10.3212 11.387 10.3412C11.3797 10.3586 11.3811 10.3746 11.3587 10.3808C11.3437 10.4018 11.3341 10.4073 11.314 10.4161C11.3003 10.4266 11.2793 10.4371 11.2574 10.4457C11.2351 10.4543 11.2146 10.4552 11.1904 10.4507C11.1703 10.4383 11.1562 10.4261 11.1397 10.4161C11.1356 10.4001 11.1324 10.3767 11.1283 10.3612C11.1343 10.3772 11.1388 10.4027 11.1397 10.4256C11.1375 10.4507 11.1283 10.4617 11.1174 10.4803M11.1958 10.5351C11.194 10.5337 11.1922 10.5318 11.1904 10.5301C11.2036 10.542 11.1981 10.5365 11.1676 10.5205C11.1461 10.5105 11.1229 10.505 11.0946 10.5005H11.0161C10.9855 10.5005 10.965 10.5046 10.9431 10.5105C10.9272 10.5246 10.9034 10.5323 10.887 10.5452C10.8697 10.5557 10.8624 10.568 10.8533 10.5848C10.8377 10.5985 10.8277 10.6195 10.8136 10.63C10.8076 10.6527 10.7944 10.6518 10.7857 10.6697C10.8122 10.6715 10.8336 10.6747 10.8473 10.6892C10.871 10.7002 10.8277 10.6787 10.8195 10.6697C10.8008 10.6647 10.7962 10.6597 10.7689 10.6597C10.7433 10.6523 10.7278 10.6656 10.7013 10.6697C10.6863 10.6775 10.6817 10.6797 10.6621 10.6797M10.8925 10.7842C10.8811 10.7847 10.8286 10.7932 10.8081 10.7842C10.7853 10.7787 10.7716 10.7677 10.7575 10.7491C10.7506 10.7357 10.7575 10.7732 10.7575 10.7892C10.7552 10.8183 10.7451 10.8188 10.7296 10.8388C10.7132 10.8481 10.6959 10.8612 10.679 10.8686C10.6649 10.8795 10.6475 10.8867 10.6284 10.8937C10.6115 10.9005 10.5914 10.9077 10.5777 10.9182C10.559 10.9302 10.5608 10.9447 10.5499 10.963C10.5517 10.9877 10.5563 11.0012 10.5722 11.0132C10.5786 11.0296 10.5937 11.0465 10.606 11.0578C10.6197 11.0807 10.6352 11.0912 10.6001 11.0976C10.5809 11.1048 10.5704 11.099 10.5499 11.0976M10.5385 11.1322C10.5248 11.1295 10.4755 11.1148 10.4541 11.1076H10.3756C10.3451 11.1095 10.3391 11.1177 10.3136 11.1272C10.2972 11.1422 10.2858 11.1527 10.263 11.1623C10.2511 11.1761 10.2274 11.1992 10.2183 11.2171C10.2114 11.234 10.2068 11.2567 10.2068 11.2818C10.2073 11.3106 10.216 11.3157 10.2183 11.3417C10.2246 11.3626 10.2347 11.3822 10.252 11.401C10.2543 11.4072 10.2561 11.4092 10.263 11.411M10.2707 11.4762C10.2684 11.4762 10.263 11.489 10.2547 11.5C10.237 11.5182 10.2347 11.5196 10.2068 11.5196C10.1822 11.5187 10.1845 11.51 10.1672 11.5036C10.1589 11.4912 10.1485 11.4812 10.1393 11.4643C10.1329 11.4542 10.127 11.4383 10.1193 11.4292C10.112 11.4173 10.1028 11.4087 10.0951 11.3977C10.0878 11.3946 10.085 11.3913 10.0755 11.39C10.0983 11.3937 10.1001 11.4013 10.1152 11.4132C10.122 11.4247 10.1293 11.4361 10.1352 11.4488C10.1375 11.4657 10.143 11.479 10.143 11.5C10.143 11.5213 10.143 11.5368 10.1352 11.5547C10.1256 11.5647 10.1188 11.5747 10.1074 11.5825C10.0978 11.5912 10.0864 11.6031 10.0791 11.6135C10.0668 11.6212 10.0577 11.6277 10.0435 11.6372C10.0312 11.6441 10.0184 11.6513 9.99975 11.6532C9.976 11.6513 9.96916 11.645 9.95183 11.6372C9.93675 11.6262 9.92491 11.6195 9.91166 11.6098C9.90116 11.6026 9.89075 11.5885 9.88383 11.5783C9.86241 11.5728 9.84875 11.5752 9.836 11.5862C9.825 11.5935 9.81541 11.6031 9.80816 11.6135C9.80133 11.6167 9.79083 11.6262 9.784 11.6295M9.83141 11.6386C9.83783 11.6413 9.86058 11.6572 9.87108 11.6632C9.8775 11.6837 9.8875 11.6952 9.89075 11.7171C9.89616 11.7385 9.89575 11.7617 9.89575 11.786C9.89025 11.8111 9.87975 11.8292 9.87108 11.8493C9.85516 11.8602 9.84741 11.8676 9.82641 11.879C9.80675 11.8817 9.78716 11.8841 9.76208 11.8841C9.74658 11.8891 9.71733 11.8913 9.70233 11.8841C9.68041 11.8808 9.66383 11.8722 9.64783 11.8643C9.6295 11.854 9.61825 11.8443 9.59825 11.8347C9.5885 11.8206 9.57341 11.8078 9.55858 11.7905C9.54616 11.7741 9.53716 11.765 9.52875 11.7467C9.53608 11.7677 9.54725 11.786 9.55358 11.8056C9.56483 11.8261 9.57141 11.8338 9.57341 11.8593C9.58033 11.88 9.57841 11.9046 9.57841 11.9278C9.57625 11.9437 9.57508 11.9738 9.5685 11.9867V12.0017M9.098 12.0797V12.0871C9.098 12.0678 9.0975 12.0775 9.10592 12.1152C9.121 12.1322 9.15633 12.1367 9.18575 12.1295C9.21158 12.1107 9.21075 12.0962 9.2575 12.0871C9.30275 12.0897 9.32 12.1017 9.34533 12.1152C9.37533 12.1286 9.38916 12.1353 9.40908 12.1651C9.419 12.1892 9.4245 12.2057 9.39316 12.2147C9.36816 12.2307 9.33858 12.2393 9.30541 12.2435C9.2685 12.2435 9.242 12.2393 9.22558 12.2577C9.20025 12.2808 9.20166 12.2951 9.20166 12.3357C9.19316 12.3485 9.1915 12.3858 9.18575 12.4C9.16358 12.4091 9.15058 12.4141 9.11391 12.4141C9.10533 12.3922 9.09575 12.3526 9.09 12.3287C9.08375 12.3032 9.08183 12.2677 9.066 12.2503C9.05058 12.2305 9.03166 12.2137 9.01016 12.2006C9.00041 12.1882 8.98183 12.1782 8.96233 12.1723C8.99366 12.1865 8.99808 12.202 9.00225 12.2362C8.97466 12.2485 8.96733 12.2572 8.92241 12.2577C8.87825 12.2545 8.86758 12.2443 8.85058 12.2221C8.84758 12.2577 8.83475 12.2695 8.82675 12.3006C8.81025 12.322 8.80333 12.3438 8.78683 12.3712C8.79383 12.4058 8.809 12.4072 8.81075 12.4497C8.82108 12.4776 8.82 12.504 8.84266 12.5208C8.85275 12.5317 8.86033 12.5341 8.88258 12.535C8.83633 12.535 8.80941 12.5305 8.77883 12.5136C8.75516 12.5007 8.73725 12.4843 8.715 12.4712C8.68675 12.4528 8.65183 12.436 8.61925 12.4282C8.58241 12.4282 8.55583 12.4246 8.5395 12.4423C8.51691 12.457 8.50166 12.4817 8.49158 12.5136C8.48425 12.5505 8.48141 12.5752 8.49958 12.5988C8.51308 12.6267 8.51616 12.6372 8.49958 12.6701C8.481 12.6932 8.45341 12.6961 8.41183 12.7056C8.38475 12.7045 8.35791 12.6997 8.33203 12.6915" stroke="#DB161B" stroke-width="0.007527"/>
<path fill-rule="evenodd" clip-rule="evenodd" d="M13.3951 8.35867C14.3691 6.6773 15.0154 5.24654 14.8376 5.16479C14.6601 5.08309 13.7258 6.3812 12.7519 8.06236L13.3951 8.35867Z" fill="white" stroke="#DB161B" stroke-width="0.0101957"/>
<path fill-rule="evenodd" clip-rule="evenodd" d="M13.3289 8.3287C14.2682 6.70665 14.9156 5.33732 14.7737 5.27196C14.6318 5.20659 13.7541 6.4698 12.8144 8.09162" fill="white"/>
<path d="M13.3289 8.32869C14.2682 6.70665 14.9156 5.33732 14.7737 5.27196C14.6318 5.20659 13.7541 6.4698 12.8144 8.09162" stroke="#DB161B" stroke-width="0.00896395"/>
<path fill-rule="evenodd" clip-rule="evenodd" d="M13.1674 7.48291C13.0529 7.67254 12.9321 7.88928 12.8144 8.092L13.3289 8.32909C13.4462 8.12617 13.5744 7.91259 13.6816 7.71981L13.1674 7.48291Z" fill="white" stroke="#DB161B" stroke-width="0.0101729"/>
<path fill-rule="evenodd" clip-rule="evenodd" d="M13.2115 7.54834C13.0975 7.73796 13.0176 7.88309 12.9004 8.08581L13.2859 8.2634C13.4036 8.06076 13.4901 7.91881 13.5974 7.72601L13.2115 7.54834Z" fill="white" stroke="#DB161B" stroke-width="0.0101729"/>
<path d="M13.4922 7.76804L13.235 7.6496L13.0067 8.04374L13.2638 8.16218L13.4922 7.76804Z" fill="white" stroke="#DB161B" stroke-width="0.0101957"/>
<path d="M13.4912 7.76805L13.0059 8.04372M13.2627 8.1621L13.234 7.64957M14.6536 5.76153L14.3963 5.64307" stroke="#DB161B" stroke-width="0.0101729"/>
<path d="M14.6555 5.57572C14.6154 5.58583 14.5756 5.56552 14.5666 5.53035C14.5575 5.49519 14.5827 5.4585 14.6227 5.44839C14.6628 5.43829 14.7026 5.4586 14.7117 5.49377C14.7207 5.52892 14.6956 5.56562 14.6555 5.57572Z" fill="#DB161B" stroke="#DB161B" stroke-width="0.0131943"/>
<path fill-rule="evenodd" clip-rule="evenodd" d="M13.0344 10.2955C15.2294 12.4418 16.1657 12.7132 15.7263 12.8861C15.2869 13.059 13.8734 11.9514 12.4027 10.4798C10.9319 9.00859 10.0314 7.69907 10.4708 7.52613C10.91 7.35315 10.7003 8.01252 13.0344 10.2955Z" fill="white" stroke="#DB161B" stroke-width="0.0128872"/>
<path fill-rule="evenodd" clip-rule="evenodd" d="M14.8817 11.8552L14.1129 12.0567C14.8366 12.7424 15.6507 13.0248 15.8768 12.9039C16.1029 12.7831 15.4697 12.5007 14.8817 11.8552Z" fill="white" stroke="#DB161B" stroke-width="0.007527"/>
<path fill-rule="evenodd" clip-rule="evenodd" d="M14.883 11.936L14.2497 12.0975C14.9547 12.7568 15.6519 12.9443 15.8323 12.8639C16.0138 12.7833 15.4557 12.5564 14.883 11.936Z" fill="white" stroke="#DB161B" stroke-width="0.007527"/>
<path d="M12.52 10.2017C12.5219 10.2122 12.5269 10.2582 12.5314 10.2765C12.5314 10.302 12.5341 10.3212 12.5369 10.3412C12.5441 10.3586 12.5429 10.3746 12.5651 10.3808C12.5803 10.4018 12.5899 10.4073 12.6099 10.4161C12.6235 10.4266 12.6445 10.4371 12.6664 10.4457C12.6888 10.4543 12.7094 10.4552 12.7335 10.4507C12.7535 10.4383 12.7678 10.4261 12.7841 10.4161C12.7883 10.4001 12.7914 10.3767 12.7955 10.3612C12.7896 10.3772 12.785 10.4027 12.7841 10.4256C12.7864 10.4507 12.7955 10.4617 12.8064 10.4803M12.728 10.5351C12.7299 10.5337 12.7316 10.5318 12.7335 10.5301C12.7203 10.542 12.7258 10.5365 12.7564 10.5205C12.7778 10.5105 12.801 10.505 12.8294 10.5005H12.9078C12.9384 10.5005 12.9589 10.5046 12.9808 10.5105C12.9968 10.5246 13.0204 10.5323 13.0369 10.5452C13.0541 10.5557 13.0614 10.568 13.0706 10.5848C13.0861 10.5985 13.0961 10.6195 13.1104 10.63C13.1163 10.6527 13.1294 10.6518 13.1381 10.6697C13.1116 10.6715 13.0903 10.6747 13.0765 10.6892C13.0529 10.7002 13.0961 10.6787 13.1044 10.6697C13.123 10.6647 13.1276 10.6597 13.155 10.6597C13.1805 10.6523 13.196 10.6656 13.2225 10.6697C13.2375 10.6775 13.2421 10.6797 13.2618 10.6797M13.0314 10.7842C13.0428 10.7847 13.0953 10.7932 13.1158 10.7842C13.1385 10.7787 13.1523 10.7677 13.1664 10.7491C13.1733 10.7357 13.1664 10.7732 13.1664 10.7892C13.1688 10.8183 13.1788 10.8188 13.1943 10.8388C13.2106 10.8481 13.228 10.8612 13.2449 10.8686C13.259 10.8795 13.2764 10.8867 13.2955 10.8937C13.3124 10.9005 13.3324 10.9077 13.3461 10.9182C13.3649 10.9302 13.363 10.9447 13.3739 10.963C13.3721 10.9877 13.3675 11.0012 13.3516 11.0132C13.3453 11.0296 13.3301 11.0465 13.3179 11.0578C13.3041 11.0807 13.2886 11.0912 13.3239 11.0976C13.3429 11.1048 13.3534 11.099 13.3739 11.0976M13.3854 11.1322C13.399 11.1295 13.4484 11.1148 13.4698 11.1076H13.5483C13.5789 11.1095 13.5848 11.1177 13.6103 11.1272C13.6268 11.1422 13.6381 11.1527 13.6609 11.1623C13.6728 11.1761 13.6965 11.1992 13.7056 11.2171C13.7124 11.234 13.717 11.2567 13.717 11.2818C13.7165 11.3106 13.7079 11.3157 13.7056 11.3417C13.6993 11.3626 13.6893 11.3822 13.6719 11.401C13.6695 11.4072 13.6678 11.4092 13.6609 11.411M13.6531 11.4762C13.6554 11.4762 13.6609 11.489 13.6691 11.5C13.6869 11.5182 13.6893 11.5196 13.717 11.5196C13.7416 11.5187 13.7394 11.51 13.7568 11.5036C13.7649 11.4912 13.7754 11.4812 13.7845 11.4643C13.7909 11.4542 13.7969 11.4383 13.8046 11.4292C13.8119 11.4173 13.821 11.4087 13.8288 11.3977C13.836 11.3946 13.8389 11.3913 13.8484 11.39C13.8256 11.3937 13.8238 11.4013 13.8088 11.4132C13.8019 11.4247 13.7945 11.4361 13.7886 11.4488C13.7864 11.4657 13.7809 11.479 13.7809 11.5C13.7809 11.5213 13.7809 11.5368 13.7886 11.5547C13.7983 11.5647 13.805 11.5747 13.8164 11.5825C13.826 11.5912 13.8374 11.6031 13.8448 11.6135C13.857 11.6212 13.8663 11.6277 13.8804 11.6372C13.8926 11.6441 13.9054 11.6513 13.9241 11.6532C13.9479 11.6513 13.9548 11.645 13.972 11.6372C13.987 11.6262 13.9989 11.6195 14.0121 11.6098C14.0226 11.6026 14.0331 11.5885 14.04 11.5783C14.0614 11.5728 14.0751 11.5752 14.0879 11.5862C14.0989 11.5935 14.1084 11.6031 14.1158 11.6135C14.1225 11.6167 14.133 11.6262 14.1399 11.6295M14.0924 11.6386C14.086 11.6413 14.0633 11.6572 14.0528 11.6632C14.0464 11.6837 14.0364 11.6952 14.0331 11.7171C14.0276 11.7385 14.0281 11.7617 14.0281 11.786C14.0336 11.8111 14.0441 11.8292 14.0528 11.8493C14.0688 11.8602 14.0765 11.8676 14.0974 11.879C14.1171 11.8817 14.1368 11.8841 14.1619 11.8841C14.1774 11.8891 14.2065 11.8913 14.2215 11.8841C14.2434 11.8808 14.26 11.8722 14.276 11.8643C14.2944 11.854 14.3056 11.8443 14.3256 11.8347C14.3354 11.8206 14.3504 11.8078 14.3654 11.7905C14.3776 11.7741 14.3868 11.765 14.3951 11.7467C14.3878 11.7677 14.3766 11.786 14.3703 11.8056C14.359 11.8261 14.3524 11.8338 14.3504 11.8593C14.3435 11.88 14.3454 11.9046 14.3454 11.9278C14.3476 11.9437 14.3488 11.9738 14.3554 11.9867V12.0017M14.8259 12.0797V12.0871C14.8259 12.0678 14.8264 12.0775 14.8179 12.1152C14.8029 12.1322 14.7675 12.1367 14.7381 12.1295C14.7124 12.1107 14.7131 12.0962 14.6664 12.0871C14.6211 12.0897 14.6039 12.1017 14.5785 12.1152C14.5485 12.1286 14.5346 12.1353 14.5148 12.1651C14.5049 12.1892 14.4994 12.2057 14.5308 12.2147C14.5556 12.2307 14.5854 12.2393 14.6184 12.2435C14.6554 12.2435 14.6819 12.2393 14.6983 12.2577C14.7235 12.2808 14.7221 12.2951 14.7221 12.3357C14.7308 12.3485 14.7324 12.3858 14.7381 12.4C14.7604 12.4091 14.7734 12.4141 14.8099 12.4141C14.8185 12.3922 14.8281 12.3526 14.8339 12.3287C14.8401 12.3032 14.842 12.2677 14.8579 12.2503C14.8733 12.2305 14.8921 12.2137 14.9136 12.2006C14.9234 12.1882 14.942 12.1782 14.9615 12.1723C14.9303 12.1865 14.9258 12.202 14.9216 12.2362C14.9491 12.2485 14.9565 12.2572 15.0014 12.2577C15.0456 12.2545 15.0563 12.2443 15.0733 12.2221C15.0764 12.2577 15.0891 12.2695 15.0971 12.3006C15.1135 12.322 15.1205 12.3438 15.137 12.3712C15.13 12.4058 15.1149 12.4072 15.1131 12.4497C15.1028 12.4776 15.1039 12.504 15.0813 12.5208C15.0711 12.5317 15.0635 12.5341 15.0414 12.535C15.0875 12.535 15.1144 12.5305 15.145 12.5136C15.1688 12.5007 15.1866 12.4843 15.2089 12.4712C15.2371 12.4528 15.272 12.436 15.3046 12.4282C15.3414 12.4282 15.368 12.4246 15.3844 12.4423C15.407 12.457 15.4221 12.4817 15.4323 12.5136C15.4396 12.5505 15.4424 12.5752 15.4243 12.5988C15.4108 12.6267 15.4078 12.6372 15.4243 12.6701C15.4429 12.6932 15.4704 12.6961 15.512 12.7056C15.5391 12.7045 15.5659 12.6997 15.5919 12.6915" stroke="#DB161B" stroke-width="0.007527"/>
<path fill-rule="evenodd" clip-rule="evenodd" d="M10.5287 8.35867C9.55472 6.6773 8.9083 5.24654 9.08622 5.16479C9.26372 5.08309 10.1979 6.3812 11.1719 8.06236L10.5287 8.35867Z" fill="white" stroke="#DB161B" stroke-width="0.0101957"/>
<path fill-rule="evenodd" clip-rule="evenodd" d="M10.5947 8.3287C9.65549 6.70665 9.00816 5.33732 9.14999 5.27196C9.29191 5.20659 10.1696 6.4698 11.1093 8.09162" fill="white"/>
<path d="M10.5947 8.32869C9.65549 6.70665 9.00816 5.33732 9.14999 5.27196C9.29191 5.20659 10.1696 6.4698 11.1093 8.09162" stroke="#DB161B" stroke-width="0.00896395"/>
<path fill-rule="evenodd" clip-rule="evenodd" d="M10.7563 7.48291C10.8708 7.67254 10.9917 7.88928 11.1094 8.092L10.5948 8.32909C10.4776 8.12617 10.3494 7.91259 10.2422 7.71981L10.7563 7.48291Z" fill="white" stroke="#DB161B" stroke-width="0.0101729"/>
<path fill-rule="evenodd" clip-rule="evenodd" d="M10.7123 7.54834C10.8264 7.73796 10.9062 7.88309 11.0234 8.08581L10.6379 8.2634C10.5203 8.06076 10.4335 7.91881 10.3264 7.72601L10.7123 7.54834Z" fill="white" stroke="#DB161B" stroke-width="0.0101729"/>
<path d="M10.4316 7.76804L10.6888 7.6496L10.9172 8.04374L10.66 8.16218L10.4316 7.76804Z" fill="white" stroke="#DB161B" stroke-width="0.0101957"/>
<path d="M10.4326 7.76805L10.9179 8.04372M10.6611 8.1621L10.6898 7.64957M9.27014 5.76153L9.52748 5.64307" stroke="#DB161B" stroke-width="0.0101729"/>
<path d="M9.26835 5.57572C9.30843 5.58583 9.34827 5.56552 9.35727 5.53035C9.36635 5.49519 9.34118 5.4585 9.3011 5.44839C9.26102 5.43829 9.22118 5.4586 9.21218 5.49377C9.2031 5.52892 9.22827 5.56562 9.26835 5.57572Z" fill="#DB161B" stroke="#DB161B" stroke-width="0.0131943"/>
<path fill-rule="evenodd" clip-rule="evenodd" d="M11.2896 7.45996C11.2896 8.8715 11.2979 9.40342 11.1939 9.47642C11.0954 9.55442 8.34961 9.47642 8.34961 9.87967C8.34961 10.2829 10.6114 10.6862 11.2896 10.6862C12.1942 10.6862 12.6467 10.2829 12.6467 9.47642V7.45996H11.2896Z" fill="white" stroke="#DB161B" stroke-width="0.0092833"/>
<path fill-rule="evenodd" clip-rule="evenodd" d="M11.291 7.86324V8.06486C11.7409 8.1321 12.1983 8.1321 12.6483 8.06486V7.86324C12.1983 7.93048 11.7409 7.93048 11.291 7.86324ZM11.291 7.45996V7.66159C11.7409 7.72879 12.1983 7.72879 12.6483 7.66159V7.45996C12.1983 7.52716 11.7409 7.52716 11.291 7.45996Z" fill="white" stroke="#DB161B" stroke-width="0.0080288"/>
<path fill-rule="evenodd" clip-rule="evenodd" d="M11.291 7.66162V7.86325C11.7409 7.93049 12.1983 7.93049 12.6483 7.86325V7.66162C12.1983 7.72882 11.7409 7.72882 11.291 7.66162ZM11.291 8.06489V8.2666C11.7435 8.33366 12.1956 8.33366 12.6483 8.2666V8.06489C12.1983 8.13213 11.7409 8.13213 11.291 8.06489Z" fill="white" stroke="#DB161B" stroke-width="0.0080288"/>
<path d="M11.3528 7.81991C11.3868 7.81991 11.4144 7.80044 11.4144 7.77641C11.4144 7.75239 11.3868 7.73291 11.3528 7.73291C11.3186 7.73291 11.291 7.75239 11.291 7.77641C11.291 7.80044 11.3186 7.81991 11.3528 7.81991Z" fill="white" stroke="#DB161B" stroke-width="0.00753325"/>
<path d="M11.5989 7.8414C11.6329 7.8414 11.6605 7.82192 11.6605 7.79789C11.6605 7.77387 11.6329 7.75439 11.5989 7.75439C11.5648 7.75439 11.5371 7.77387 11.5371 7.79789C11.5371 7.82192 11.5648 7.8414 11.5989 7.8414Z" fill="white" stroke="#DB161B" stroke-width="0.00753325"/>
<path d="M11.8449 7.86336C11.8789 7.86336 11.9066 7.84388 11.9066 7.81986C11.9066 7.79583 11.8789 7.77637 11.8449 7.77637C11.8108 7.77637 11.7831 7.79583 11.7831 7.81986C11.7831 7.84388 11.8108 7.86336 11.8449 7.86336Z" fill="white" stroke="#DB161B" stroke-width="0.00753325"/>
<path d="M12.0929 7.86336C12.1271 7.86336 12.1547 7.84388 12.1547 7.81986C12.1547 7.79583 12.1271 7.77637 12.0929 7.77637C12.0589 7.77637 12.0312 7.79583 12.0312 7.81986C12.0312 7.84388 12.0589 7.86336 12.0929 7.86336Z" fill="white" stroke="#DB161B" stroke-width="0.00753325"/>
<path d="M12.3391 7.8414C12.3732 7.8414 12.4008 7.82193 12.4008 7.79789C12.4008 7.77388 12.3732 7.75439 12.3391 7.75439C12.3051 7.75439 12.2773 7.77388 12.2773 7.79789C12.2773 7.82193 12.3051 7.8414 12.3391 7.8414Z" fill="white" stroke="#DB161B" stroke-width="0.00753325"/>
<path d="M12.5852 7.81991C12.6193 7.81991 12.6469 7.80044 12.6469 7.77641C12.6469 7.75239 12.6193 7.73291 12.5852 7.73291C12.5512 7.73291 12.5234 7.75239 12.5234 7.77641C12.5234 7.80044 12.5512 7.81991 12.5852 7.81991Z" fill="white" stroke="#DB161B" stroke-width="0.00753325"/>
<path d="M11.3611 8.52593L11.4228 8.57543L11.4949 8.52393L11.5564 8.57259L11.6274 8.52509L11.6889 8.57284L11.7632 8.52468L11.8291 8.57468L11.8999 8.52509L11.9684 8.57543L12.0367 8.52526L12.1074 8.57484L12.1736 8.52468L12.2479 8.57284L12.3092 8.52526L12.3806 8.57301L12.4419 8.52401L12.5147 8.57593L12.5758 8.52643L12.6469 8.58968L12.5939 8.63259L12.5378 8.67809L12.6194 8.73276L12.564 8.77768L12.6469 8.83143L12.5666 8.89651L12.6469 8.95276L12.5687 9.01618L12.6469 9.07368L12.5699 9.13609L12.6469 9.19451L12.5707 9.25634L12.6469 9.31543L12.5715 9.37659L12.6469 9.43634L12.5717 9.49734L12.6469 9.55768L12.5717 9.61818L12.6469 9.67851L12.5734 9.73701L12.4977 9.79734L12.5764 9.86026L12.5037 9.91918L12.4284 9.98018L12.5054 10.0414L12.4318 10.0998L12.3583 10.158L12.4402 10.223L12.3697 10.2788L12.296 10.3373L12.2254 10.3933L12.1515 10.4518L12.0589 10.5252L11.9776 10.46L11.9068 10.4031L11.8219 10.3351L11.7515 10.2786L11.6794 10.2208L11.6044 10.1605L11.5294 10.1003L11.4544 10.0402L11.3795 9.98009L11.3045 9.91993L11.2293 9.85959L11.1544 9.79943L11.2305 9.73768L11.1544 9.67851L11.2304 9.61693L11.3029 9.55809L11.2249 9.49684L11.2982 9.43818L11.3739 9.37776L11.2926 9.31326L11.3669 9.25568L11.2899 9.19451L11.3676 9.13559L11.2899 9.07368L11.3688 9.01568L11.2899 8.95276L11.3707 8.89609L11.2899 8.83143L11.3734 8.77734L11.3174 8.73268L11.3995 8.67768L11.3431 8.63234L11.2899 8.58968L11.3611 8.52593Z" fill="white"/>
<path d="M11.2899 8.46875L12.6469 9.55767L11.2446 10.6867M11.4254 8.46875L12.6469 9.43633L11.1544 10.6466M11.6064 8.50892L12.6469 9.31542L11.1544 10.5252M11.7424 8.50892L12.6469 9.1945L11.1544 10.4043M11.8779 8.50892L12.6469 9.07367L11.1544 10.2834M12.0134 8.50892L12.6469 8.95275L11.1544 10.1626M12.1492 8.50892L12.6469 8.83142L11.1544 10.0417M12.2847 8.50892L12.6469 8.75117M12.4207 8.50892L12.6469 8.67042M12.5561 8.50892L12.6469 8.58967L11.1544 9.79942L12.0589 10.5252L12.4659 10.2027M12.6469 8.46875L11.1544 9.6785L12.1944 10.4851M12.511 8.46875L11.1995 9.51708M12.3304 8.50892L11.2899 9.31542M12.1944 8.50892L11.2899 9.1945L12.511 10.1626M12.0589 8.50892L11.2899 9.07367L12.5561 10.0818M11.923 8.50892L11.2899 8.95275L12.5561 9.96092M11.7875 8.50892L11.2899 8.83142L12.6014 9.88017M11.6515 8.50892L11.2899 8.75117M11.516 8.50892L11.2899 8.67042M11.3801 8.50892L11.2899 8.58967L12.6469 9.6785L11.3801 10.6867M12.6469 8.7105L11.1544 9.92033M12.6014 9.84L11.6064 10.6466M12.5561 10.0011L11.7424 10.6466M11.2899 8.7105L12.6014 9.75925M11.2446 9.27525L12.4659 10.2433M11.2446 9.39617L12.3755 10.2834M11.1995 9.47692L12.3304 10.3642M11.1544 9.55767L12.2396 10.4043" stroke="#DB161B" stroke-width="0.0080288"/>
<path fill-rule="evenodd" clip-rule="evenodd" d="M11.2899 8.2666V8.46825C11.7424 8.53533 12.1944 8.53533 12.6469 8.46825V8.2666C12.1944 8.33367 11.7424 8.33367 11.2899 8.2666Z" fill="white"/>
<path d="M11.1544 9.91983L11.9681 10.5653M11.1544 10.0411L11.8779 10.6054M11.1544 10.162L11.7875 10.646M11.1544 10.2829L11.6064 10.646M11.1544 10.4038L11.516 10.6862M11.1544 10.5247L11.3801 10.6862M11.2899 8.2666V8.46825C11.7424 8.53533 12.1944 8.53533 12.6469 8.46825V8.2666C12.1944 8.33367 11.7424 8.33367 11.2899 8.2666Z" stroke="#DB161B" stroke-width="0.0080288"/>
<path d="M11.3528 8.42492C11.3868 8.42492 11.4144 8.40542 11.4144 8.38142C11.4144 8.35734 11.3868 8.33792 11.3528 8.33792C11.3186 8.33792 11.291 8.35734 11.291 8.38142C11.291 8.40542 11.3186 8.42492 11.3528 8.42492Z" fill="white" stroke="#DB161B" stroke-width="0.00753325"/>
<path d="M11.5989 8.44635C11.6329 8.44635 11.6605 8.42694 11.6605 8.40285C11.6605 8.37885 11.6329 8.35944 11.5989 8.35944C11.5648 8.35944 11.5371 8.37885 11.5371 8.40285C11.5371 8.42694 11.5648 8.44635 11.5989 8.44635Z" fill="white" stroke="#DB161B" stroke-width="0.00753325"/>
<path d="M11.8449 8.46835C11.8789 8.46835 11.9066 8.44885 11.9066 8.42485C11.9066 8.40085 11.8789 8.38135 11.8449 8.38135C11.8108 8.38135 11.7831 8.40085 11.7831 8.42485C11.7831 8.44885 11.8108 8.46835 11.8449 8.46835Z" fill="white" stroke="#DB161B" stroke-width="0.00753325"/>
<path d="M12.0929 8.46835C12.1271 8.46835 12.1547 8.44885 12.1547 8.42485C12.1547 8.40085 12.1271 8.38135 12.0929 8.38135C12.0589 8.38135 12.0312 8.40085 12.0312 8.42485C12.0312 8.44885 12.0589 8.46835 12.0929 8.46835Z" fill="white" stroke="#DB161B" stroke-width="0.00753325"/>
<path d="M12.3391 8.44631C12.3732 8.44631 12.4008 8.4269 12.4008 8.40281C12.4008 8.37881 12.3732 8.35931 12.3391 8.35931C12.3051 8.35931 12.2773 8.37881 12.2773 8.40281C12.2773 8.4269 12.3051 8.44631 12.3391 8.44631Z" fill="white" stroke="#DB161B" stroke-width="0.00753325"/>
<path d="M12.5852 8.42492C12.6193 8.42492 12.6469 8.40542 12.6469 8.38142C12.6469 8.35734 12.6193 8.33792 12.5852 8.33792C12.5512 8.33792 12.5234 8.35734 12.5234 8.38142C12.5234 8.40542 12.5512 8.42492 12.5852 8.42492Z" fill="white" stroke="#DB161B" stroke-width="0.00753325"/>
<path d="M9.34561 10.3632L10.9739 9.51608M9.2552 10.3226L10.7929 9.51608M9.20995 10.2424L10.6122 9.51608M9.1647 10.1616L10.3859 9.51608M9.07428 10.0809L10.2049 9.51608M9.11953 9.96L9.88828 9.55675M9.07428 9.87925L9.66228 9.55675M9.07428 9.75833L9.48136 9.55675M9.48136 10.4034L11.0191 9.59683M9.61703 10.444L11.0644 9.67758M9.75278 10.4841L11.1094 9.75833M9.88828 10.5243L11.0191 9.91942M10.0694 10.5243L11.0644 10.0001M10.2049 10.5649L11.0644 10.121M10.3409 10.605L11.0191 10.2424M10.5214 10.605L11.0644 10.3226M10.7025 10.6456L11.0644 10.444M10.8836 10.6456L11.1094 10.5243" stroke="#DB161B" stroke-width="0.0080288"/>
<path fill-rule="evenodd" clip-rule="evenodd" d="M11.2 9.47656H10.9737C10.8985 9.87631 10.8985 10.2866 10.9737 10.6864H11.2C11.1243 10.2866 11.1243 9.87623 11.2 9.47656Z" fill="white"/>
<path d="M8.53125 10.0413L9.074 9.63806M8.53125 9.7589L9.074 10.2429M11.2 9.47656H10.9737C10.8985 9.87631 10.8985 10.2866 10.9737 10.6864H11.2C11.1243 10.2866 11.1243 9.87623 11.2 9.47656Z" stroke="#DB161B" stroke-width="0.0080288"/>
<path fill-rule="evenodd" clip-rule="evenodd" d="M9.3459 9.55716L9.07448 9.59724C9.01423 9.85274 9.01423 10.0676 9.07448 10.3231L9.3459 10.4038C9.28557 10.1483 9.28557 9.81258 9.3459 9.55716Z" fill="white" stroke="#DB161B" stroke-width="0.0057251"/>
<path fill-rule="evenodd" clip-rule="evenodd" d="M12.6463 7.54055V7.33722C12.4433 7.33891 12.3074 7.21794 12.3074 7.09521L11.63 7.09691C11.63 7.21794 11.4945 7.33891 11.291 7.33891V7.54055H12.6463Z" fill="white" stroke="#DB161B" stroke-width="0.0098307"/>
<path d="M11.6777 6.85502H12.2587V7.09698H11.6777V6.85502ZM11.7262 6.61305H12.2102V6.85502H11.7262V6.61305ZM11.7262 6.37109H12.2102V6.61305H11.7262V6.37109Z" fill="white"/>
<path d="M11.7262 6.61305H12.2102M11.7262 6.61305V6.85502H12.2102V6.61305M11.7262 6.61305V6.37109H12.2102V6.61305M11.6777 6.85502H12.2587V7.09698H11.6777V6.85502Z" stroke="#DB161B" stroke-width="0.0083025"/>
<path d="M11.7734 6.04834H12.1608V6.37095H11.7734V6.04834Z" fill="white" stroke="#DB161B" stroke-width="0.0083025"/>
<path d="M11.7578 5.76611H12.1785V6.04841H11.7578V5.76611Z" fill="white" stroke="#DB161B" stroke-width="0.00866745"/>
<path d="M11.9906 5.88733C12.3003 5.88733 12.5514 5.71581 12.5514 5.50421C12.5514 5.29262 12.3003 5.12109 11.9906 5.12109C11.6808 5.12109 11.4297 5.29262 11.4297 5.50421C11.4297 5.71581 11.6808 5.88733 11.9906 5.88733Z" fill="white" stroke="#DB161B" stroke-width="0.0081666"/>
<path fill-rule="evenodd" clip-rule="evenodd" d="M12.2715 5.48403C12.2715 5.58982 12.4115 5.76636 12.4115 5.76636C12.3098 5.8357 12.1456 5.88734 11.9909 5.88734C11.8363 5.88734 11.6433 5.85856 11.5703 5.76636C11.5703 5.76636 11.7104 5.58982 11.7104 5.48403C11.7104 5.37829 11.5703 5.24207 11.5703 5.24207C11.6716 5.17273 11.8363 5.12109 11.9909 5.12109C12.1456 5.12109 12.3098 5.17273 12.4115 5.24207C12.4115 5.24207 12.2715 5.37829 12.2715 5.48403Z" fill="white" stroke="#DB161B" stroke-width="0.00816565"/>
<path fill-rule="evenodd" clip-rule="evenodd" d="M12.1781 5.48404C12.1781 5.58983 12.3181 5.80669 12.3181 5.80669C12.217 5.87604 12.1457 5.88734 11.9911 5.88734C11.8365 5.88734 11.7371 5.89889 11.6641 5.80669C11.6641 5.80669 11.8041 5.58983 11.8041 5.48404C11.8041 5.37829 11.6641 5.20175 11.6641 5.20175C11.7652 5.13242 11.8365 5.12109 11.9911 5.12109C12.1457 5.12109 12.217 5.13242 12.3181 5.20175C12.3181 5.20175 12.1781 5.37829 12.1781 5.48404Z" fill="white" stroke="#DB161B" stroke-width="0.00816565"/>
<path d="M11.4313 5.6453C11.5088 5.6453 11.5715 5.59114 11.5715 5.52431C11.5715 5.4575 11.5088 5.40332 11.4313 5.40332C11.3538 5.40332 11.291 5.4575 11.291 5.52431C11.291 5.59114 11.3538 5.6453 11.4313 5.6453Z" fill="white" stroke="#DB161B" stroke-width="0.0081666"/>
<path d="M12.5524 5.6453C12.6299 5.6453 12.6925 5.59114 12.6925 5.52431C12.6925 5.4575 12.6299 5.40332 12.5524 5.40332C12.4749 5.40332 12.4121 5.4575 12.4121 5.52431C12.4121 5.59114 12.4749 5.6453 12.5524 5.6453Z" fill="white" stroke="#DB161B" stroke-width="0.0081666"/>
<path d="M11.9917 5.6453C12.0691 5.6453 12.132 5.59114 12.132 5.52431C12.132 5.4575 12.0691 5.40332 11.9917 5.40332C11.9142 5.40332 11.8516 5.4575 11.8516 5.52431C11.8516 5.59114 11.9142 5.6453 11.9917 5.6453Z" fill="white" stroke="#DB161B" stroke-width="0.0081666"/>
<path d="M11.9917 5.24198C12.0691 5.24198 12.132 5.18781 12.132 5.12099C12.132 5.05417 12.0691 5 11.9917 5C11.9142 5 11.8516 5.05417 11.8516 5.12099C11.8516 5.18781 11.9142 5.24198 11.9917 5.24198Z" fill="white" stroke="#DB161B" stroke-width="0.0081666"/>
<path d="M11.5809 7.5408C11.6611 7.5408 11.7261 7.48665 11.7261 7.41982C11.7261 7.353 11.6611 7.29883 11.5809 7.29883C11.5007 7.29883 11.4356 7.353 11.4356 7.41982C11.4356 7.48665 11.5007 7.5408 11.5809 7.5408Z" fill="white" stroke="#DB161B" stroke-width="0.0083111"/>
<path d="M12.3542 7.5408C12.4344 7.5408 12.4994 7.48665 12.4994 7.41982C12.4994 7.353 12.4344 7.29883 12.3542 7.29883C12.274 7.29883 12.209 7.353 12.209 7.41982C12.209 7.48665 12.274 7.5408 12.3542 7.5408Z" fill="white" stroke="#DB161B" stroke-width="0.0083111"/>
<path fill-rule="evenodd" clip-rule="evenodd" d="M11.6289 7.09668H12.3063L11.9678 7.45965L11.6289 7.09668Z" fill="white" stroke="#DB161B" stroke-width="0.0083025"/>
<path d="M11.9672 7.5404C12.074 7.5404 12.1608 7.46818 12.1608 7.37909C12.1608 7.29 12.074 7.21777 11.9672 7.21777C11.8602 7.21777 11.7734 7.29 11.7734 7.37909C11.7734 7.46818 11.8602 7.5404 11.9672 7.5404Z" fill="white" stroke="#DB161B" stroke-width="0.0110814"/>
<path d="M12.2064 8.58984H11.2791C11.2478 8.58984 11.2227 8.60901 11.2227 8.63268V8.78901C11.2227 8.81268 11.2478 8.83184 11.2791 8.83184H12.2064C12.2377 8.83184 12.2629 8.81268 12.2629 8.78901V8.63268C12.2629 8.60901 12.2377 8.58984 12.2064 8.58984Z" fill="white" stroke="#DB161B" stroke-width="0.007527"/>
<path fill-rule="evenodd" clip-rule="evenodd" d="M12.5781 8.38782C12.4526 8.38782 12.3517 8.48174 12.3517 8.59857V8.78191C12.3517 8.89874 12.4526 8.99266 12.5781 8.99266C12.7035 8.99266 12.8042 8.89874 12.8042 8.78191V8.59857C12.8042 8.48174 12.7035 8.38782 12.5781 8.38782ZM12.5781 8.46849C12.5027 8.46849 12.4421 8.54382 12.4421 8.63732V8.74357C12.4421 8.83716 12.5027 8.91191 12.5781 8.91191C12.6534 8.91191 12.7136 8.83716 12.7136 8.74357V8.63732C12.7136 8.54382 12.6534 8.46849 12.5781 8.46849ZM11.402 8.42841C11.3267 8.42841 11.2666 8.50324 11.2666 8.59674V8.78374C11.2666 8.87724 11.3267 8.95257 11.402 8.95257C11.4772 8.95257 11.5375 8.87724 11.5375 8.78374V8.59674C11.5375 8.50324 11.4772 8.42841 11.402 8.42841ZM11.402 8.34766C11.2766 8.34766 11.1757 8.44166 11.1757 8.55841V8.82249C11.1757 8.93932 11.2766 9.03332 11.402 9.03332C11.5275 9.03332 11.6282 8.93932 11.6282 8.82249V8.55841C11.6282 8.44166 11.5275 8.34766 11.402 8.34766Z" fill="white" stroke="#DB161B" stroke-width="0.007527"/>
<path fill-rule="evenodd" clip-rule="evenodd" d="M11.0406 8.50902C10.9653 8.50902 10.9047 8.58427 10.9047 8.67777V8.72161C10.9047 8.81511 10.9653 8.89036 11.0406 8.89036C11.1159 8.89036 11.1761 8.81511 11.1761 8.72161V8.67777C11.1761 8.58427 11.1159 8.50902 11.0406 8.50902ZM11.0406 8.42877C10.9152 8.42877 10.8144 8.52269 10.8144 8.63952V8.76036C10.8144 8.87719 10.9152 8.97111 11.0406 8.97111C11.1656 8.97111 11.2669 8.87719 11.2669 8.76036V8.63952C11.2669 8.52269 11.1656 8.42877 11.0406 8.42877Z" fill="white" stroke="#DB161B" stroke-width="0.007527"/>
<path fill-rule="evenodd" clip-rule="evenodd" d="M10.4987 8.39742C10.3632 8.39742 10.2547 8.48142 10.2547 8.58584V8.79475C10.2547 8.89925 10.3632 8.98317 10.4987 8.98317C10.6342 8.98317 10.7429 8.89925 10.7429 8.79475V8.58584C10.7429 8.48142 10.6342 8.39742 10.4987 8.39742ZM10.4987 8.30713C10.2734 8.30713 10.0919 8.4125 10.0919 8.543V8.83809C10.0919 8.96859 10.2734 9.0735 10.4987 9.0735C10.7241 9.0735 10.9056 8.96859 10.9056 8.83809V8.543C10.9056 8.4125 10.7241 8.30713 10.4987 8.30713ZM13.4389 8.43759C13.3034 8.43759 13.1944 8.522 13.1944 8.6265V8.83542C13.1944 8.93984 13.3034 9.02375 13.4389 9.02375C13.5739 9.02375 13.6829 8.93984 13.6829 8.83542V8.6265C13.6829 8.522 13.5739 8.43759 13.4389 8.43759ZM13.4389 8.34775C13.213 8.34775 13.0314 8.45267 13.0314 8.58309V8.87825C13.0314 9.00875 13.213 9.11367 13.4389 9.11367C13.6642 9.11367 13.8457 9.00875 13.8457 8.87825V8.58309C13.8457 8.45267 13.6642 8.34775 13.4389 8.34775Z" fill="white" stroke="#DB161B" stroke-width="0.007527"/>
<path d="M13.1833 8.58984H12.6994C12.6831 8.58984 12.6699 8.60901 12.6699 8.63268V8.78901C12.6699 8.81268 12.6831 8.83184 12.6994 8.83184H13.1833C13.1995 8.83184 13.2128 8.81268 13.2128 8.78901V8.63268C13.2128 8.60901 13.1995 8.58984 13.1833 8.58984Z" fill="white" stroke="#DB161B" stroke-width="0.007527"/>
<path d="M12.4712 8.54932H12.1891C12.1796 8.54932 12.1718 8.57482 12.1718 8.6064V8.81482C12.1718 8.8464 12.1796 8.8719 12.1891 8.8719H12.4712C12.4807 8.8719 12.4885 8.8464 12.4885 8.81482V8.6064C12.4885 8.57482 12.4807 8.54932 12.4712 8.54932Z" fill="white" stroke="#DB161B" stroke-width="0.007527"/>
<path d="M10.9791 8.54932H10.6969C10.6874 8.54932 10.6797 8.57482 10.6797 8.6064V8.81482C10.6797 8.8464 10.6874 8.8719 10.6969 8.8719H10.9791C10.9886 8.8719 10.9963 8.8464 10.9963 8.81482V8.6064C10.9963 8.57482 10.9886 8.54932 10.9791 8.54932Z" fill="white" stroke="#DB161B" stroke-width="0.007527"/>
<path d="M10.2844 8.50873H9.71994C9.70094 8.50873 9.68561 8.54073 9.68561 8.58006V8.84073C9.68561 8.88014 9.70094 8.91206 9.71994 8.91206H10.2844C10.3034 8.91206 10.3189 8.88014 10.3189 8.84073V8.58006C10.3189 8.54073 10.3034 8.50873 10.2844 8.50873Z" fill="white" stroke="#DB161B" stroke-width="0.007527"/>
<path d="M14.1752 8.54932H13.6511C13.6334 8.54932 13.6191 8.58123 13.6191 8.62057V8.88123C13.6191 8.92065 13.6334 8.95257 13.6511 8.95257H14.1752C14.1929 8.95257 14.2072 8.92065 14.2072 8.88123V8.62057C14.2072 8.58123 14.1929 8.54932 14.1752 8.54932Z" fill="white" stroke="#DB161B" stroke-width="0.007527"/>
</g>
</g>
</g>
<defs>
<clipPath id="clip0_16699_273375">
<rect width="40" height="40" fill="white"/>
</clipPath>
</defs>
</svg>
