<svg width="40" height="40" viewBox="0 0 40 40" fill="none" xmlns="http://www.w3.org/2000/svg">
<g clip-path="url(#clip0_16699_274914)">
<mask id="mask0_16699_274914" style="mask-type:luminance" maskUnits="userSpaceOnUse" x="0" y="0" width="40" height="40">
<path d="M40 20C40 8.95431 31.0457 0 20 0C8.95431 0 0 8.95431 0 20C0 31.0457 8.95431 40 20 40C31.0457 40 40 31.0457 40 20Z" fill="white"/>
</mask>
<g mask="url(#mask0_16699_274914)">
<mask id="mask1_16699_274914" style="mask-type:luminance" maskUnits="userSpaceOnUse" x="-7" y="0" width="54" height="40">
<path d="M-6.66669 0H46.6666V40H-6.66669V0Z" fill="white"/>
</mask>
<g mask="url(#mask1_16699_274914)">
<mask id="mask2_16699_274914" style="mask-type:luminance" maskUnits="userSpaceOnUse" x="-7" y="0" width="54" height="40">
<path d="M-6.66669 0H46.6666V40H-6.66669V0Z" fill="white"/>
</mask>
<g mask="url(#mask2_16699_274914)">
<path d="M-6.66663 0H46.6667V40H-6.66663V0Z" fill="white"/>
<path d="M6.10352e-05 0H40.0001V40H6.10352e-05V0Z" fill="white"/>
<path fill-rule="evenodd" clip-rule="evenodd" d="M16.4401 28.3958C16.4401 28.3958 17.3433 27.6635 18.2222 27.6635C19.1012 27.6635 19.3453 28.2738 19.9557 28.3226C20.566 28.3714 21.0786 27.7123 21.8355 27.6878C22.5923 27.6635 23.5445 28.2249 23.5445 28.2249L20.2242 29.226L16.4401 28.3958ZM14.5359 27.3217L25.8151 27.3705C25.8151 27.3705 24.8386 26.3208 23.6911 26.2963C22.5437 26.2718 22.8611 26.7847 21.9822 26.8578C21.1033 26.9311 20.8834 26.3208 20.0778 26.3451C19.2723 26.3694 18.8083 26.8578 18.1981 26.8823C17.5878 26.9066 16.8065 26.2718 16.3426 26.2964C15.8787 26.3208 14.2186 27.0287 14.2186 27.0287L14.536 27.3217H14.5359ZM13.0959 25.9792L27.0117 26.0281C27.2314 25.7108 26.3281 24.9539 25.4982 24.8806C24.8144 24.905 24.3263 25.5886 23.7647 25.6131C23.2032 25.6374 22.5685 24.905 21.9337 24.9296C21.299 24.9539 20.6398 25.6131 20.005 25.6131C19.3703 25.6131 18.9064 24.905 18.1008 24.905C17.2952 24.905 16.929 25.6863 16.3187 25.6375C15.7082 25.5886 15.1712 24.8563 14.5852 24.8563C13.9994 24.8563 13.0227 25.7351 12.8275 25.6863C12.6322 25.6374 13.0715 26.0525 13.0961 25.9792H13.0959Z" fill="#083D9C" stroke="#083D9C" stroke-width="1.3335"/>
<path fill-rule="evenodd" clip-rule="evenodd" d="M18.4418 18.24L21.6401 19.0946V14.5291C20.1752 14.6024 18.9546 11.746 21.5425 11.5507C19.0035 11.1844 18.7104 11.8436 18.4175 12.5516L18.4418 18.24Z" fill="#FF0000" stroke="black" stroke-width="1.25" stroke-linejoin="round"/>
<path d="M16.4159 21.56L23.6424 21.5843" stroke="#083D9C" stroke-width="2.5" stroke-linecap="round"/>
<path d="M17.2228 20.451L17.2076 20.4306L17.2242 20.4105L17.2228 20.451Z" fill="black"/>
<path d="M18.59 20.451L18.5748 20.4306L18.5914 20.4105L18.59 20.451Z" fill="black"/>
<path d="M19.9816 20.4511L19.9663 20.4305L19.983 20.4104L19.9816 20.4511Z" fill="black"/>
<path d="M21.422 20.451L21.4068 20.4306L21.4234 20.4105L21.422 20.451Z" fill="black"/>
<path d="M22.8136 20.451L22.7984 20.4306L22.815 20.4105L22.8136 20.451Z" fill="black"/>
<path d="M16.7578 19.8266L17.6123 20.9741M16.7578 20.975L17.6856 19.852M17.2468 19.7531L17.2225 20.4611M18.125 19.8266L18.9795 20.9741M18.125 20.975L19.0528 19.852M18.614 19.7531L18.5896 20.4611M19.5165 19.8266L20.3711 20.9741M19.5165 20.975L20.4443 19.852M20.0056 19.7531L19.9812 20.4611M20.957 19.8266L21.8115 20.9741M20.957 20.975L21.8848 19.852M21.446 19.7531L21.4216 20.4611M22.3486 19.8266L23.2031 20.9741M22.3486 20.975L23.2764 19.852M22.8376 19.7531L22.8132 20.4611" stroke="black" stroke-width="1.9995" stroke-linecap="round"/>
<path fill-rule="evenodd" clip-rule="evenodd" d="M11.5575 21.6333L14.6336 21.6577V19.7292L11.118 19.5583L11.5575 21.6335V21.6333ZM11.4109 18.9725L14.6824 19.2899L14.658 17.9227L11.4597 16.6532L11.4108 18.9726L11.4109 18.9725ZM12.07 16.2383L14.5847 17.459L14.9438 17.0842C14.9438 17.0842 14.7125 16.9248 14.724 16.7782C14.7283 16.6298 14.9566 16.6073 14.961 16.4465C14.9651 16.2982 14.7024 16.2803 14.6995 16.132C14.6824 15.9712 14.902 15.7988 14.902 15.7988L12.6316 13.8213L12.07 16.2383ZM28.5734 21.6575H25.3264L25.302 19.7777L28.8664 19.5091L28.5734 21.6574V21.6575ZM25.3509 19.3383L29.2084 18.8746L28.3782 16.6529L25.3265 17.9467L25.3509 19.3383ZM28.1584 16.0425L25.3752 17.5073C25.3345 17.3486 25.3 17.1959 25.1068 17.0678C25.1068 17.0678 25.2776 16.9702 25.2776 16.7992C25.2776 16.6284 25.0578 16.6039 25.0578 16.5062C25.0578 16.4086 25.2592 16.3233 25.2715 16.1035C25.247 15.9509 25.0578 15.7374 25.0945 15.6946L27.2551 14.0404L28.1584 16.0425ZM22.1284 19.3017L23.5199 19.2407L23.5442 18.679L22.1284 19.3017ZM17.8809 19.2592L16.416 19.2165V18.6305L17.8809 19.2592ZM17.8742 19.0883L16.4155 18.3375V17.361C16.4155 17.361 16.2445 17.3854 16.269 17.1902C16.277 16.7832 17.341 17.9327 17.8864 18.307L17.8742 19.0883ZM22.1284 18.9967L22.1224 18.362C22.1224 18.362 23.4405 17.1719 23.7213 16.952C23.7213 17.1962 23.5688 17.3853 23.5688 17.3853V18.3131L22.1284 18.9966V18.9967ZM13.5834 13.65C13.6077 13.6744 15.0625 15.2913 15.0625 15.2913C15.1034 15.1381 15.4388 15.1148 15.7805 15.1392C16.1224 15.1636 16.3949 15.1163 16.3949 15.3605C16.3949 15.6047 16.2215 15.5699 16.2215 15.7409C16.2215 15.9119 16.4813 15.8975 16.4813 16.117C16.4813 16.3367 16.2929 16.2918 16.2919 16.462C16.2913 16.6027 16.4885 16.6102 16.4885 16.6102L17.874 17.953L17.88 16.5186L15.0237 12.0387L13.5834 13.65ZM15.8692 11.9542C15.8909 12.0193 17.8039 15.9106 17.8039 15.9106C17.8039 15.9106 17.8255 12.2585 18.1516 12.0628L17.6083 11.0628L15.8692 11.9542ZM24.2817 12.1058L22.1215 15.9596L22.1243 14.3353C22.1243 14.3353 22.3035 14.0622 22.0208 14.084C21.7383 14.1057 21.3905 14.0622 21.3905 14.0622L22.26 11.0188L24.2816 12.1058H24.2817ZM26.4992 13.7583C26.4775 13.8018 25.0419 15.2617 25.0419 15.2617C24.9767 15.0878 24.5427 15.1712 24.1296 15.1712C23.7165 15.1712 23.659 15.3037 23.6809 15.4123C23.7244 15.695 23.8639 15.4867 23.8639 15.7477C23.8639 16.0085 23.6629 15.9132 23.645 16.1042C23.665 16.3236 23.9605 16.2693 23.7873 16.4356L22.125 18.0313L22.1298 16.5192L25.2166 11.7148L26.4993 13.7582L26.4992 13.7583Z" fill="#EF7D08"/>
<path fill-rule="evenodd" clip-rule="evenodd" d="M19.1518 22.3667C18.4561 23.5188 16.5964 23.1772 16.1616 22.3728C16.0313 22.3358 16.1083 17.4103 16.1083 17.4103C16.1083 17.4103 15.9006 17.3156 15.891 17.1641C15.8814 17.0112 16.1735 16.9973 16.1735 16.8015C16.1735 16.6058 15.8753 16.6826 15.8693 16.4857C15.8706 16.2974 16.1877 16.3234 16.1735 16.1494C16.1568 15.9533 15.8183 15.9823 15.804 15.8014C15.793 15.6579 16.046 15.5327 16.1163 15.4681C16.0708 15.4704 15.8813 15.4653 15.8801 15.4646L15.3474 15.4754C14.969 15.4759 15.3539 15.5579 15.3484 15.7763C15.3449 15.9189 15.1565 16.0138 15.1396 16.1379C15.1337 16.2652 15.4093 16.3546 15.4128 16.5074C15.4158 16.6438 15.1419 16.6531 15.1518 16.7798C15.1688 16.9942 15.3944 17.0413 15.391 17.1711C15.3876 17.3008 15.0874 17.3503 15.0867 17.4537C15.0971 17.6538 15.1301 22.5188 15.1301 22.5188C15.6084 24.997 18.3691 25.6274 19.1518 22.3667ZM20.9718 22.3667C21.6674 23.5188 23.527 23.1772 23.9618 22.3728C24.0922 22.3358 24.0152 17.4103 24.0152 17.4103C24.0152 17.4103 24.2229 17.3156 24.2324 17.1641C24.2419 17.0112 23.9683 16.9973 23.9683 16.8015C23.9683 16.6058 24.2483 16.6826 24.2541 16.4857C24.2529 16.2974 23.9602 16.3112 23.9743 16.1371C23.991 15.941 24.2209 15.9639 24.234 15.7832C24.2449 15.6274 24.0897 15.5326 24.0193 15.468C24.0648 15.4703 24.2421 15.4652 24.2434 15.4646L24.776 15.4754C25.1545 15.4759 24.7695 15.5579 24.7752 15.7763C24.7785 15.9189 24.9669 16.0138 24.9839 16.1379C24.9898 16.2652 24.7142 16.3546 24.7107 16.5074C24.7077 16.6438 24.9815 16.653 24.9716 16.7798C24.9546 16.9941 24.729 17.0413 24.7324 17.1711C24.7358 17.3008 25.0361 17.3503 25.0368 17.4536C25.0263 17.6538 24.9934 22.5188 24.9934 22.5188C24.5151 24.997 21.7544 25.6274 20.9718 22.3667Z" fill="#FF0000" stroke="black" stroke-width="1.25" stroke-linejoin="round"/>
<path fill-rule="evenodd" clip-rule="evenodd" d="M18.4759 24.6325L21.5823 24.6307C21.6064 24.6062 20.8868 23.5578 20.0296 23.6317C19.0746 23.6567 18.4259 24.6325 18.4759 24.6325ZM28.3809 24.5567H24.1302C24.1302 24.5567 24.6804 24.2316 24.8304 23.9315C25.1054 24.0815 25.0304 24.2315 25.5805 24.2565C26.1305 24.2815 26.6555 23.6315 27.1808 23.6565C27.7058 23.6815 28.3808 24.5817 28.3808 24.5567H28.3809ZM11.6309 24.5567H15.8815C15.8815 24.5567 15.3314 24.2316 15.1814 23.9315C14.9064 24.0815 14.9814 24.2315 14.4312 24.2565C13.8813 24.2815 13.3562 23.6315 12.8309 23.6565C12.3059 23.6815 11.6309 24.5817 11.6309 24.5567ZM11.9484 23.22L14.9756 23.2443C14.9756 23.2443 14.7803 22.8293 14.7559 22.3168C13.9745 22.0483 13.3399 22.9027 12.7783 22.9271C12.2169 22.9514 11.631 22.3167 11.631 22.3167L11.9484 23.22ZM28.11 23.22L25.0827 23.2443C25.0827 23.2443 25.278 22.8293 25.3024 22.3168C26.0838 22.0483 26.7184 22.9027 27.2799 22.9271C27.8414 22.9514 28.4274 22.3167 28.4274 22.3167L28.11 23.22ZM19.2475 23.245L20.7854 23.1963C20.7854 23.1963 20.8099 22.7324 20.0043 22.7324C19.1986 22.7324 19.2719 23.2695 19.2475 23.245ZM18.32 22.5858C18.5886 22.4392 18.8327 22.2929 19.0037 21.951L17.9539 21.9753C17.9539 21.9753 17.4657 22.2684 17.2215 22.5858H18.3201H18.32ZM21.7134 22.5858C21.4448 22.4392 21.2008 22.2929 21.0298 21.951L22.0795 21.9753C22.0795 21.9753 22.5677 22.2684 22.8119 22.5858H21.7134Z" fill="#083D9C" stroke="#083D9C" stroke-width="1.3335"/>
<path fill-rule="evenodd" clip-rule="evenodd" d="M-9.99994 30H50.0001V40H-9.99994V30ZM-9.99994 0H50.0001V10H-9.99994V0Z" fill="#DE2010"/>
</g>
</g>
</g>
</g>
<defs>
<clipPath id="clip0_16699_274914">
<rect width="40" height="40" fill="white"/>
</clipPath>
</defs>
</svg>
