<svg width="40" height="40" viewBox="0 0 40 40" fill="none" xmlns="http://www.w3.org/2000/svg">
<g clip-path="url(#clip0_16699_274939)">
<mask id="mask0_16699_274939" style="mask-type:luminance" maskUnits="userSpaceOnUse" x="0" y="0" width="40" height="40">
<path d="M40 0H0V40H40V0Z" fill="white"/>
</mask>
<g mask="url(#mask0_16699_274939)">
<mask id="mask1_16699_274939" style="mask-type:luminance" maskUnits="userSpaceOnUse" x="0" y="0" width="40" height="40">
<path d="M40 20C40 8.95433 31.0457 0 20 0C8.95433 0 0 8.95433 0 20C0 31.0457 8.95433 40 20 40C31.0457 40 40 31.0457 40 20Z" fill="white"/>
</mask>
<g mask="url(#mask1_16699_274939)">
<path d="M1.3411e-07 7H40V33.6738L-4.5 55L1.3411e-07 7Z" fill="black"/>
<path d="M0 7L43 -20.5L40 33.6738L0 7Z" fill="#CE1126"/>
<path d="M23.6256 14.3C23.363 14.6393 22.7414 13.9588 21.9967 13.9432C21.2521 13.9277 20.7246 14.6568 20.5074 14.905C20.2903 15.1533 19.5922 16.4563 19.6077 16.5959C19.6232 16.7357 20.0421 16.2082 20.1972 16.115C20.2127 16.3013 20.0265 16.5184 20.0731 16.5804C20.1196 16.6425 20.616 16.2082 20.7867 16.1927C20.8332 16.3168 20.6936 16.4408 20.7401 16.627C20.8022 16.689 21.0815 16.3168 21.2676 16.2393C21.2986 16.3788 21.097 16.6425 21.2055 16.8132C21.2831 16.8287 21.7485 16.2858 21.9036 16.2237C22.0588 16.1615 21.8261 16.7357 21.9036 16.7822C22.0433 16.689 22.4777 16.1927 22.6173 16.1305C22.7569 16.0685 22.6018 16.7667 22.6638 16.7667C22.8345 16.6425 23.2689 16.053 23.3154 15.9599C23.3619 15.8668 23.2689 16.8598 23.7498 17.3873C24.2307 17.9148 24.9598 18.5197 25.0374 18.5197C25.1305 18.349 25.0064 17.9923 25.0839 18.0078C25.3011 18.2404 25.7044 18.5818 25.7975 18.5818C25.8906 18.5818 25.7354 18.2094 25.8596 18.2094C26.1078 18.4422 26.8214 19.3574 28.2176 19.7763C28.1245 19.5125 27.9228 19.2798 27.9073 19.1558C28.0004 19.1713 28.3262 19.3264 28.3883 19.3108C28.4503 19.2953 27.7057 18.38 27.7522 18.2559C27.9229 18.2404 28.0005 18.349 28.0625 18.2714C27.9849 18.1473 27.3334 17.4183 27.3334 17.2475C27.3334 17.0768 27.5351 17.2785 27.5971 17.2475C27.6591 17.2165 27.3489 16.5649 27.4109 16.4874C27.473 16.4098 28.1555 16.9063 28.3262 16.9063C28.4969 16.9063 28.3727 16.3013 28.4503 16.2703C28.5279 16.2392 29.1019 16.5959 29.226 16.5959C29.3501 16.5959 29.3346 16.3323 29.3811 16.3633C29.4277 16.3943 30.7773 17.7439 30.3119 19.3263C29.8465 20.4588 28.9158 21.0638 27.5506 20.5674C27.6281 20.6915 28.3572 21.2967 29.1484 21.0793C29.9396 20.8622 30.9014 20.2417 30.7928 18.6903C30.6842 17.139 30.1723 16.9218 30.0947 16.6892C30.0172 16.4564 30.2189 16.7512 30.3895 16.8133C30.5601 16.8753 30.3585 16.4874 30.3119 16.3168C30.2654 16.146 30.8239 16.6735 30.9635 16.7202C31.1031 16.7667 30.6377 15.448 30.4981 15.3549C30.3585 15.2618 30.6377 15.3859 30.7308 15.4169C30.8239 15.448 29.8775 13.9743 29.6759 13.9743C29.4742 13.9743 29.8465 13.8967 29.9551 13.8967C30.0637 13.8967 28.8692 12.9348 28.6675 12.9348C28.4658 12.9348 29.1018 12.6865 29.1639 12.671C29.2725 12.6865 27.7833 11.8798 26.4491 12.6865C26.3715 12.6245 27.0774 12.1358 27.1007 11.9264C27.1084 11.8722 26.868 11.7558 26.8525 11.6938C26.8369 11.6318 27.2248 11.4455 27.2403 11.3059C27.1472 11.1818 26.9765 11.2283 26.8834 11.1973C26.8602 11.081 27.2093 10.794 27.1782 10.6699C27.155 10.6002 26.8989 10.5768 26.8369 10.6233C26.7749 10.6699 26.9998 10.2977 26.961 10.189C26.93 10.1424 26.8059 10.1735 26.6818 10.2045C26.6042 10.189 27.0852 9.52192 26.9921 9.42884C26.899 9.33576 25.5958 10.1113 25.1149 10.9802C24.634 11.8489 25.0064 12.547 24.9443 12.8418C24.8822 13.1365 24.8046 13.4313 24.603 13.4313C24.4013 13.4313 23.936 13.121 23.7808 12.9658C23.6256 12.8108 23.5946 12.7022 23.3774 12.6402C23.1602 12.578 22.6638 12.7643 22.4777 12.7798C22.2915 12.7953 21.5624 12.6402 21.5158 12.6867C21.4693 12.7332 22.2294 13.0124 22.4001 13.1055C22.5708 13.1985 22.5863 13.3228 22.7104 13.4003C22.8345 13.4778 23.998 13.8192 23.6256 14.3ZM28.1711 16.4874C28.5434 16.8598 31.0566 18.5352 31.0566 20.5829C31.0566 22.6308 29.226 22.5688 28.6985 22.5067C29.288 23.003 31.522 22.9099 31.522 20.5829C31.522 18.5352 28.6365 16.4874 28.2642 16.3013C27.8918 16.115 27.7988 16.115 28.1711 16.4874Z" fill="#FCD116"/>
<path d="M8.89054 15.1803L9.30862 16.3832L10.5818 16.4092L9.56704 17.1784L9.93579 18.3972L8.89054 17.6699L7.84533 18.3972L8.21407 17.1784L7.19934 16.4092L8.47246 16.3832L8.89054 15.1803Z" fill="white"/>
<path d="M4.97881 20.515L5.39691 21.7178L6.67003 21.7437L5.65531 22.513L6.02405 23.7318L4.97881 23.0045L3.93358 23.7318L4.30232 22.513L3.2876 21.7437L4.56071 21.7178L4.97881 20.515Z" fill="white"/>
<path d="M8.89054 27.6279L9.30862 28.8308L10.5818 28.8567L9.56704 29.6259L9.93579 30.8448L8.89054 30.1174L7.84533 30.8448L8.21407 29.6259L7.19934 28.8567L8.47246 28.8308L8.89054 27.6279Z" fill="white"/>
<path d="M12.4472 20.1599L12.8653 21.3627L14.1384 21.3887L13.1237 22.1579L13.4925 23.3768L12.4472 22.6494L11.402 23.3768L11.7707 22.1579L10.756 21.3887L12.0291 21.3627L12.4472 20.1599Z" fill="white"/>
<path d="M10.6681 24.6052L10.8772 25.2066L11.5137 25.2196L11.0064 25.6042L11.1907 26.2137L10.6681 25.8499L10.1455 26.2137L10.3299 25.6042L9.82251 25.2196L10.4591 25.2066L10.6681 24.6052Z" fill="white"/>
</g>
</g>
</g>
<defs>
<clipPath id="clip0_16699_274939">
<rect width="40" height="40" fill="white"/>
</clipPath>
</defs>
</svg>
