<svg width="40" height="40" viewBox="0 0 40 40" fill="none" xmlns="http://www.w3.org/2000/svg">
<g clip-path="url(#clip0_16699_274956)">
<mask id="mask0_16699_274956" style="mask-type:luminance" maskUnits="userSpaceOnUse" x="0" y="0" width="40" height="40">
<path d="M40 0H0V40H40V0Z" fill="white"/>
</mask>
<g mask="url(#mask0_16699_274956)">
<mask id="mask1_16699_274956" style="mask-type:luminance" maskUnits="userSpaceOnUse" x="0" y="0" width="40" height="40">
<path d="M40 20C40 8.95433 31.0457 0 20 0C8.95433 0 0 8.95433 0 20C0 31.0457 8.95433 40 20 40C31.0457 40 40 31.0457 40 20Z" fill="white"/>
</mask>
<g mask="url(#mask1_16699_274956)">
<path d="M3 7L6 -27L46 -4.5L43 20.3333L9.22225 33.3704L3 7Z" fill="#0038A8"/>
<path d="M9.22225 20.3333H43V64.9998L-8.5 47.4998L3 33.6666L9.22225 20.3333Z" fill="#CE1126"/>
<path d="M26.0939 20.3333L3 33.6667L5.06639e-07 64L-17 3.5L3 -19.5V7L26.0939 20.3333Z" fill="white"/>
<path d="M11.2956 23C12.7683 23 13.9622 21.8061 13.9622 20.3334C13.9622 18.8606 12.7683 17.6667 11.2956 17.6667C9.82282 17.6667 8.62891 18.8606 8.62891 20.3334C8.62891 21.8061 9.82282 23 11.2956 23Z" fill="#FCD116"/>
<path d="M11.2988 20.3337L10.3613 15.62L10.6413 15.3397L11.2988 20.3337ZM11.2988 20.3337L10.9524 15.0505L11.2988 14.7041L11.6452 15.0505L11.2988 20.3337ZM11.2988 20.3337L11.9563 15.3397L12.2363 15.62L11.2988 20.3337Z" fill="#FCD116"/>
<path d="M11.2987 20.334L12.2362 25.0477L11.9562 25.328L11.2987 20.334ZM11.2987 20.334L11.6452 25.6172L11.2987 25.9636L10.9524 25.6172L11.2987 20.334ZM11.2987 20.334L10.6413 25.328L10.3613 25.0477L11.2987 20.334Z" fill="#FCD116"/>
<path d="M11.2981 20.334L16.0119 19.3965L16.2922 19.6765L11.2981 20.334ZM11.2981 20.334L16.5814 19.9876L16.9277 20.334L16.5814 20.6802L11.2981 20.334ZM11.2981 20.334L16.2922 20.9914L16.0119 21.2714L11.2981 20.334Z" fill="#FCD116"/>
<path d="M11.2976 20.334L6.58382 21.2715L6.30352 20.9915L11.2976 20.334ZM11.2976 20.334L6.01434 20.6804L5.66797 20.334L6.01434 19.9876L11.2976 20.334ZM11.2976 20.334L6.30352 19.6765L6.58382 19.3965L11.2976 20.334Z" fill="#FCD116"/>
<path d="M11.2954 20.3334L13.9657 16.3374L14.3619 16.3373L11.2954 20.3334ZM11.2954 20.3334L14.7863 16.3528H15.2762V16.8425L11.2954 20.3334ZM11.2954 20.3334L15.2917 17.267L15.2915 17.6633L11.2954 20.3334Z" fill="#FCD116"/>
<path d="M11.2965 20.3333L8.6262 24.3294L8.22999 24.3296L11.2965 20.3333ZM11.2965 20.3333L7.80552 24.3141H7.31568V23.8242L11.2965 20.3333ZM11.2965 20.3333L7.30017 23.3998L7.30038 23.0036L11.2965 20.3333Z" fill="#FCD116"/>
<path d="M11.2939 20.3337L15.2899 23.004L15.2902 23.4002L11.2939 20.3337ZM11.2939 20.3337L15.2747 23.8246V24.3145H14.7849L11.2939 20.3337ZM11.2939 20.3337L14.3604 24.33L13.9642 24.3298L11.2939 20.3337Z" fill="#FCD116"/>
<path d="M11.2941 20.3338L7.29806 17.6636L7.29785 17.2673L11.2941 20.3338ZM11.2941 20.3338L7.31335 16.843V16.3531H7.80319L11.2941 20.3338ZM11.2941 20.3338L8.22768 16.3376L8.62383 16.3378L11.2941 20.3338Z" fill="#FCD116"/>
<path d="M23.428 20.3331L22.426 20.6816L22.4043 21.7419L21.7635 20.8967L20.748 21.2039L21.354 20.3331L20.748 19.4623L21.7635 19.7696L22.4043 18.9242L22.426 19.9847L23.428 20.3331Z" fill="#FCD116"/>
<path d="M4.33243 31.3573L4.53171 30.3153L3.62415 29.7663L4.67668 29.634L4.91829 28.601L5.36947 29.561L6.42658 29.4718L5.65278 30.1975L6.06442 31.1751L5.13523 30.6636L4.33243 31.3573Z" fill="#FCD116"/>
<path d="M4.33328 9.30957L5.13608 10.0032L6.06526 9.49165L5.65363 10.4694L6.42743 11.1951L5.37032 11.1058L4.91913 12.0659L4.67752 11.0329L3.625 10.9006L4.53255 10.3516L4.33328 9.30957Z" fill="#FCD116"/>
</g>
</g>
</g>
<defs>
<clipPath id="clip0_16699_274956">
<rect width="40" height="40" fill="white"/>
</clipPath>
</defs>
</svg>
