<svg width="40" height="40" viewBox="0 0 40 40" fill="none" xmlns="http://www.w3.org/2000/svg">
<g clip-path="url(#clip0_16699_274980)">
<mask id="mask0_16699_274980" style="mask-type:luminance" maskUnits="userSpaceOnUse" x="0" y="0" width="40" height="40">
<path d="M40 0H0V40H40V0Z" fill="white"/>
</mask>
<g mask="url(#mask0_16699_274980)">
<mask id="mask1_16699_274980" style="mask-type:luminance" maskUnits="userSpaceOnUse" x="0" y="0" width="40" height="40">
<path d="M40 20C40 8.95433 31.0457 0 20 0C8.95433 0 0 8.95433 0 20C0 31.0457 8.95433 40 20 40C31.0457 40 40 31.0457 40 20Z" fill="white"/>
</mask>
<g mask="url(#mask1_16699_274980)">
<path d="M40 0H0V40H40V0Z" fill="white"/>
<path d="M40 -1H10V42H40V-1Z" fill="#01411C"/>
<path d="M25 28.0229C29.4183 28.0229 33 24.3965 33 19.9229C33 15.4494 29.4183 11.8229 25 11.8229C20.5817 11.8229 17 15.4494 17 19.9229C17 24.3965 20.5817 28.0229 25 28.0229Z" fill="white"/>
<path d="M31.9202 25.0318C34.9473 22.3076 35.2201 17.6143 32.5292 14.5495C29.8386 11.4846 25.2033 11.2085 22.1762 13.9328C19.1491 16.6573 18.8766 21.3503 21.5672 24.4153C24.2579 27.4802 28.8931 27.7563 31.9202 25.0318Z" fill="#01411C"/>
<path d="M27.9171 13.8617L31.2869 17.7002L26.3323 16.6002L30.9792 14.5414L28.415 18.9726L27.9171 13.8617Z" fill="white"/>
</g>
</g>
</g>
<defs>
<clipPath id="clip0_16699_274980">
<rect width="40" height="40" fill="white"/>
</clipPath>
</defs>
</svg>
