<svg width="40" height="40" viewBox="0 0 40 40" fill="none" xmlns="http://www.w3.org/2000/svg">
<g clip-path="url(#clip0_16699_275005)">
<mask id="mask0_16699_275005" style="mask-type:luminance" maskUnits="userSpaceOnUse" x="0" y="0" width="40" height="40">
<path d="M40 20C40 8.95431 31.0457 0 20 0C8.95431 0 0 8.95431 0 20C0 31.0457 8.95431 40 20 40C31.0457 40 40 31.0457 40 20Z" fill="white"/>
</mask>
<g mask="url(#mask0_16699_275005)">
<mask id="mask1_16699_275005" style="mask-type:luminance" maskUnits="userSpaceOnUse" x="-7" y="0" width="54" height="40">
<path d="M-6.66663 0H46.6667V40H-6.66663V0Z" fill="white"/>
</mask>
<g mask="url(#mask1_16699_275005)">
<mask id="mask2_16699_275005" style="mask-type:luminance" maskUnits="userSpaceOnUse" x="-7" y="0" width="54" height="40">
<path d="M-6.66663 0H46.667V40H-6.66663V0Z" fill="white"/>
</mask>
<g mask="url(#mask2_16699_275005)">
<path fill-rule="evenodd" clip-rule="evenodd" d="M-6.66663 0H70.8435V40H-6.66663V0Z" fill="#FF0000"/>
<path fill-rule="evenodd" clip-rule="evenodd" d="M-6.66663 40L70.8427 26.6664V40H-6.66663Z" fill="#009900"/>
<path fill-rule="evenodd" clip-rule="evenodd" d="M-6.66663 40L70.8427 13.3336V26.6672L-6.66663 40Z" fill="white"/>
<path fill-rule="evenodd" clip-rule="evenodd" d="M-6.66663 40V0H19.1701L-6.66663 40Z" fill="#000099"/>
<path fill-rule="evenodd" clip-rule="evenodd" d="M-6.66663 40L19.1701 0H45.0068L-6.66663 40Z" fill="#FFFF00"/>
</g>
</g>
</g>
</g>
<defs>
<clipPath id="clip0_16699_275005">
<rect width="40" height="40" fill="white"/>
</clipPath>
</defs>
</svg>
