<svg width="40" height="40" viewBox="0 0 40 40" fill="none" xmlns="http://www.w3.org/2000/svg">
<g clip-path="url(#clip0_16699_275023)">
<mask id="mask0_16699_275023" style="mask-type:luminance" maskUnits="userSpaceOnUse" x="0" y="0" width="40" height="40">
<path d="M40 20C40 8.95431 31.0457 0 20 0C8.95431 0 0 8.95431 0 20C0 31.0457 8.95431 40 20 40C31.0457 40 40 31.0457 40 20Z" fill="white"/>
</mask>
<g mask="url(#mask0_16699_275023)">
<mask id="mask1_16699_275023" style="mask-type:luminance" maskUnits="userSpaceOnUse" x="-14" y="0" width="54" height="40">
<path d="M-13.3334 0H40V40H-13.3334V0Z" fill="white"/>
</mask>
<g mask="url(#mask1_16699_275023)">
<path d="M-13.3334 0H40V40H-13.3334V0Z" fill="#00247D"/>
<mask id="mask2_16699_275023" style="mask-type:luminance" maskUnits="userSpaceOnUse" x="-14" y="0" width="54" height="27">
<path d="M-13.3334 0H40V26.6667H-13.3334V0Z" fill="white"/>
</mask>
<g mask="url(#mask2_16699_275023)">
<path d="M13.3333 48.8889C32.9701 48.8889 48.8889 32.9702 48.8889 13.3334C48.8889 -6.3034 32.9701 -22.2222 13.3333 -22.2222C-6.30346 -22.2222 -22.2223 -6.3034 -22.2223 13.3334C-22.2223 32.9702 -6.30346 48.8889 13.3333 48.8889Z" fill="#00247D"/>
<path d="M-22.2223 -4.4444L48.8889 31.1112M-22.2223 31.1112L48.8889 -4.4444" stroke="white" stroke-width="32"/>
<path d="M-22.2223 -4.4444L48.8889 31.1112M-22.2223 31.1112L48.8889 -4.4444" stroke="#CF142B" stroke-width="21.3335"/>
<path d="M13.3333 13.3334L48.8888 31.1112H43.5555L7.99992 13.3334M13.3333 13.3334L48.8888 -4.4444H54.2222L18.6666 13.3334M13.3333 13.3334L-22.2223 31.1112H-27.5557L7.99992 13.3334M13.3333 13.3334L-22.2223 -4.4444H-16.889L18.6666 13.3334" fill="white"/>
<path d="M-22.2223 13.3334H48.8889M13.3333 -4.4444V31.1112" stroke="white" stroke-width="53.3335"/>
<path d="M-22.2223 13.3334H48.8889M13.3333 -4.4444V31.1112" stroke="#CF142B" stroke-width="32"/>
</g>
<path d="M20.8283 25.8649C20.0639 26.512 19.335 27.4578 19.1572 28.3111C18.6542 30.7147 17.9857 31.2498 16.9528 30.7324C16.9528 32.0231 18.0852 32.1227 18.5812 31.3689C18.5812 32.5778 19.0204 33.6284 20.0106 34.5244C20.4283 34.9014 20.5083 34.6436 20.3092 34.2276C20.1101 33.8098 20.1101 32.4604 19.7137 31.6854C20.3483 32.1423 21.2817 31.8845 21.2017 30.6329C20.3875 31.1094 19.5786 31.0916 19.495 29.9574C19.3955 28.6276 19.9146 26.6987 20.8283 25.8649V25.8649ZM19.863 16.3023C19.9163 15.8258 19.815 15.3351 19.4666 15.0294C18.7928 14.4356 18.1332 14.6329 17.6426 15.1094C16.9084 14.7129 16.5172 16.1209 15.6834 15.8827C15.8222 16.3396 16.0408 16.5369 16.4586 16.3787C16.0212 16.7751 16.4586 17.2516 15.943 17.7298C16.8746 18.0267 17.3723 17.5111 17.3315 16.6169C17.6888 16.9351 18.2452 16.9156 18.5422 16.5583C18.0462 16.3983 18.0443 15.9663 18.2452 15.5644C18.5422 14.9689 19.9412 14.992 19.863 16.3023Z" fill="#F7E017" stroke="black" stroke-width="0.315"/>
<path d="M22.0178 23.2089C20.9654 23.7636 19.0383 23.5253 18.8605 22.1564C18.6827 20.7876 20.0125 20.1707 20.3698 19.9929C20.9263 19.7138 21.3618 20.2098 21.1841 20.7858C21.3142 20.7408 21.4322 20.6665 21.5291 20.5688C21.626 20.471 21.6992 20.3523 21.7431 20.2218C21.7869 20.0914 21.8004 19.9527 21.7824 19.8163C21.7644 19.6798 21.7154 19.5493 21.6392 19.4347C22.4534 19.4951 23.209 18.88 23.5254 18.0072C23.241 18.2791 22.4623 18.096 21.8205 18.0533C22.0197 17.8347 22.0161 17.4116 21.9574 17.1929C21.2818 17.8863 20.3094 17.5698 19.0187 19.5752C19.2179 18.8818 19.5947 17.4898 19.8134 16.5778C19.8357 16.4871 19.8522 16.3951 19.8632 16.3023C19.9414 14.992 18.5441 14.9689 18.2454 15.5645C18.5725 15.9325 18.4018 16.3627 18.2846 17.0133C18.1458 17.7885 17.8472 19.5752 17.5912 20.1707C17.5112 19.2373 16.8943 19.1787 16.7752 18.7218C16.5974 18.8409 16.4978 19.1592 16.537 19.376C16.3183 19.1378 15.5645 19.4364 15.2872 19.0792C14.9885 19.6747 15.465 20.2703 15.9627 20.528C15.673 20.5476 15.6036 20.896 15.2872 20.896C15.7138 21.392 16.1494 21.5893 16.6561 21.6303C17.1627 21.6712 17.5397 21.8578 17.8472 22.4747C18.345 23.4667 20.2347 24.1103 22.0178 23.2089Z" fill="#337321" stroke="black" stroke-width="0.315"/>
<path d="M24.6382 21.9964C24.0426 23.6444 22.4142 24.8177 21.6782 24.9956C20.4284 25.2977 17.8791 26.5369 17.1946 27.1733" fill="#F7E017"/>
<path d="M24.6382 21.9964C24.0426 23.6444 22.4142 24.8177 21.6782 24.9956C20.4284 25.2977 17.8791 26.5369 17.1946 27.1733" fill="black"/>
<path d="M24.6382 21.9964C24.0426 23.6444 22.4142 24.8177 21.6782 24.9956C20.4284 25.2977 17.8791 26.5369 17.1946 27.1733" stroke="black" stroke-width="0.315"/>
<path d="M20.8284 25.865C19.8863 26.665 19.3956 28.6276 19.4951 29.9591C19.5218 30.329 19.6267 30.5796 19.7831 30.7325C19.8543 29.9787 20.3787 28.0303 21.7191 27.1591C22.8498 26.425 24.6169 24.777 25.2729 22.8907C25.1538 22.553 24.9547 22.3147 24.5778 22.0765C23.9289 23.8578 22.1867 24.7111 20.8267 25.8632L20.8284 25.865Z" fill="#337321" stroke="black" stroke-width="0.315"/>
<path d="M24.0337 21.2338C23.6959 21.7387 22.9315 22.4338 22.1973 22.7129C22.3555 22.5333 22.4053 22.304 22.4142 22.1156C21.4809 22.4747 19.6159 22.4356 18.8604 22.1564C19.7155 22.3788 20.6152 22.3631 21.4622 22.1113C22.3091 21.8593 23.0711 21.3807 23.6657 20.7272C23.8257 20.9049 23.9626 21.0649 24.0337 21.2338V21.2338Z" fill="#316D3A" stroke="black" stroke-width="0.315"/>
<path d="M16.8941 25.392C15.3777 26.8142 16.3786 28.0533 16.9741 28.3306C16.8141 29.3226 17.7493 29.2036 17.728 30.0373C18.1066 29.8186 18.2062 29.2444 18.1457 28.7875C18.6222 29.303 19.8346 28.7271 20.0906 29.68C20.2506 28.6275 19.4365 27.5751 18.4231 27.6746C18.8409 27.2977 18.6009 26.6826 18.2062 26.5244C18.1262 27.2977 17.2533 27.2977 16.9156 27.0596C16.5777 26.8213 16.2986 26.0462 16.8941 25.392Z" fill="#337321" stroke="black" stroke-width="0.315"/>
<path d="M20.1814 34.425C20.0161 34.5191 20.0285 34.7325 20.1317 34.8711C20.3397 35.1485 19.9858 35.7778 20.6578 35.913C20.857 35.9538 21.0098 35.8312 21.0845 35.6054C21.2943 34.9795 20.6277 34.912 20.569 34.6134C20.5085 34.3147 20.3201 34.345 20.1814 34.425Z" fill="#F7E017" stroke="black" stroke-width="0.315"/>
<path d="M20.7467 35.5964C20.5244 35.6996 20.3289 35.8453 20.4196 36.5582C20.4551 36.8551 20.4373 37.5716 20.1813 37.5822C20.3396 37.6605 20.6773 37.7457 20.816 37.5609C20.9493 37.7849 21.2533 37.7209 21.3724 37.4417C21.5307 37.5716 21.7493 37.3529 21.7493 37.1644C21.888 37.2533 22.1653 37.1253 22.096 36.6987C22.2649 36.7573 22.4835 36.6382 22.5635 36.5297C22.3147 36.48 21.6889 36.1422 21.5396 35.8737C21.392 35.6071 21.0044 35.4773 20.7467 35.5964Z" fill="#F7E017" stroke="black" stroke-width="0.315"/>
<path d="M17.3066 15.5182C17.408 15.3689 17.52 15.2302 17.6444 15.1093L17.3066 15.5182ZM21.0844 18.1457C21.2622 18.0462 21.5271 18.0337 21.8222 18.0533L21.0844 18.1457ZM20.8177 37.5608C20.7466 37.4631 20.7236 37.0453 20.7716 36.7929L20.8177 37.5608Z" fill="black"/>
<path d="M17.3066 15.5182C17.408 15.3689 17.52 15.2302 17.6444 15.1093M21.0844 18.1457C21.2622 18.0462 21.5271 18.0337 21.8222 18.0533M20.8177 37.5608C20.7466 37.4631 20.7236 37.0453 20.7716 36.7929" stroke="black" stroke-width="0.32"/>
<path d="M31.2497 25.4116C33.6923 27.456 33.8506 29.0844 33.4737 30.0373C33.2746 29.1448 32.263 27.7547 31.2106 27.3973L31.2497 25.4115L31.2497 25.4116Z" fill="#F7E017" stroke="black" stroke-width="0.315"/>
<path d="M26.8818 24.2614H31.4098V29.6214C31.4098 34.1867 28.8676 36.8872 26.2863 38.3164C23.7049 36.8889 21.1644 34.1867 21.1644 29.6214V24.2614H24.3413C24.3467 24.5387 24.3716 24.9547 24.6969 25.3724C25.4471 25.2978 26.2969 24.7378 26.8836 24.2614H26.8818Z" fill="#337321" stroke="black" stroke-width="0.315"/>
<path d="M31.408 24.2614V29.6214C31.408 30.9991 31.1769 32.208 30.7822 33.2622L26.288 25.0134L21.792 33.2623" fill="#006EC7"/>
<path d="M31.408 24.2614V29.6214C31.408 30.9991 31.1769 32.208 30.7822 33.2622L26.288 25.0134L21.792 33.2623" fill="black"/>
<path d="M31.408 24.2614V29.6214C31.408 30.9991 31.1769 32.208 30.7822 33.2622L26.288 25.0134L21.792 33.2623" stroke="black" stroke-width="0.315"/>
<path d="M28.3307 35.8044C28.4499 35.8649 28.6684 35.9751 28.768 36.0142C29.0063 35.5377 29.0472 34.864 28.9672 34.2667C28.7094 34.9244 27.8347 34.9031 27.5983 35.2996C27.744 35.3724 27.8791 35.4684 27.9964 35.5537C27.6996 35.8507 27.0009 36.3537 26.6044 36.4711V32.2133C26.6044 31.9147 26.5049 31.6675 26.5049 31.4187V30.5387C26.5049 30.3395 26.4658 30.0516 26.2863 30.0516C26.1067 30.0516 26.0694 30.3396 26.0694 30.5387V31.4187C26.0694 31.6676 25.9698 31.9537 25.9698 32.2133V36.4711C25.7511 35.8364 24.896 36.0533 24.4996 35.4187C24.6552 35.3782 24.8176 35.3716 24.976 35.3991C24.6791 34.3857 23.8649 34.3076 23.7067 34.0089C23.7067 34.4267 23.5289 35.3991 23.8044 35.8169C23.8823 35.7296 23.9735 35.6552 24.0747 35.5964C24.4124 36.3307 25.9289 36.3324 26.2863 37.5431C26.5743 37.0987 27.6071 36.5831 28.3307 35.8044Z" fill="#F7E017" stroke="black" stroke-width="0.32"/>
<path d="M26.2863 32.2613C26.624 32.2613 27.696 32.1511 28.0818 32.1511C28.1831 32.1511 28.2667 32.0017 28.2667 31.8151C28.2667 31.6284 28.1831 31.4773 28.0836 31.4773C27.696 31.4773 26.624 31.3689 26.288 31.3689C25.952 31.3689 24.8764 31.4773 24.4889 31.4773C24.3894 31.4773 24.3076 31.6284 24.3076 31.8151C24.3076 32.0017 24.3894 32.1529 24.489 32.1529C24.8765 32.1529 25.9484 32.2613 26.2863 32.2613Z" fill="#F7E017" stroke="black" stroke-width="0.32"/>
<path d="M24.4907 32.151C24.5921 32.151 24.6738 32.0017 24.6738 31.815C24.6738 31.6284 24.5921 31.4773 24.4907 31.4773" fill="#F7E017"/>
<path d="M24.4907 32.151C24.5921 32.151 24.6738 32.0017 24.6738 31.815C24.6738 31.6284 24.5921 31.4773 24.4907 31.4773" fill="black"/>
<path d="M24.4907 32.151C24.5921 32.151 24.6738 32.0017 24.6738 31.815C24.6738 31.6284 24.5921 31.4773 24.4907 31.4773" stroke="black" stroke-width="0.32"/>
<path d="M24.6401 32.1511C24.7414 32.1511 24.8232 32.0017 24.8232 31.8151C24.8232 31.6284 24.7414 31.4773 24.6401 31.4773M25.6197 32.2204C25.7423 32.2204 25.8401 32.0391 25.8401 31.8151C25.8401 31.5911 25.7423 31.408 25.6197 31.408M25.849 32.24C25.9752 32.24 26.0801 32.0497 26.0801 31.8133C26.0801 31.5804 25.9752 31.3902 25.849 31.3902M26.6117 32.2436C26.7397 32.2436 26.8428 32.0516 26.8428 31.8151C26.8428 31.5769 26.7397 31.3849 26.6117 31.3849M26.8517 32.2311C26.9778 32.2311 27.0828 32.0444 27.0828 31.8151C27.0828 31.584 26.9778 31.3991 26.8517 31.3991M27.9165 32.16C28.0178 32.16 28.1014 32.0053 28.1014 31.8151C28.1014 31.6249 28.0178 31.472 27.9165 31.472M24.0712 35.5964C24.2034 35.5156 24.3473 35.4556 24.4978 35.4186L24.0712 35.5964ZM28.3307 35.8045C28.6081 35.5076 28.841 35.1697 28.9672 34.784L28.3307 35.8045Z" fill="#F7E017"/>
<path d="M24.6401 32.1511C24.7414 32.1511 24.8232 32.0017 24.8232 31.8151C24.8232 31.6284 24.7414 31.4773 24.6401 31.4773M25.6197 32.2204C25.7423 32.2204 25.8401 32.0391 25.8401 31.8151C25.8401 31.5911 25.7423 31.408 25.6197 31.408M25.849 32.24C25.9752 32.24 26.0801 32.0497 26.0801 31.8133C26.0801 31.5804 25.9752 31.3902 25.849 31.3902M26.6117 32.2436C26.7397 32.2436 26.8428 32.0516 26.8428 31.8151C26.8428 31.5769 26.7397 31.3849 26.6117 31.3849M26.8517 32.2311C26.9778 32.2311 27.0828 32.0444 27.0828 31.8151C27.0828 31.584 26.9778 31.3991 26.8517 31.3991M27.9165 32.16C28.0178 32.16 28.1014 32.0053 28.1014 31.8151C28.1014 31.6249 28.0178 31.472 27.9165 31.472M24.0712 35.5964C24.2034 35.5156 24.3473 35.4556 24.4978 35.4186L24.0712 35.5964ZM28.3307 35.8045C28.6081 35.5076 28.841 35.1697 28.9672 34.784L28.3307 35.8045Z" fill="black"/>
<path d="M24.6401 32.1511C24.7414 32.1511 24.8232 32.0017 24.8232 31.8151C24.8232 31.6284 24.7414 31.4773 24.6401 31.4773M25.6197 32.2204C25.7423 32.2204 25.8401 32.0391 25.8401 31.8151C25.8401 31.5911 25.7423 31.408 25.6197 31.408M25.849 32.24C25.9752 32.24 26.0801 32.0497 26.0801 31.8133C26.0801 31.5804 25.9752 31.3902 25.849 31.3902M26.6117 32.2436C26.7397 32.2436 26.8428 32.0516 26.8428 31.8151C26.8428 31.5769 26.7397 31.3849 26.6117 31.3849M26.8517 32.2311C26.9778 32.2311 27.0828 32.0444 27.0828 31.8151C27.0828 31.584 26.9778 31.3991 26.8517 31.3991M27.9165 32.16C28.0178 32.16 28.1014 32.0053 28.1014 31.8151C28.1014 31.6249 28.0178 31.472 27.9165 31.472M24.0712 35.5964C24.2034 35.5156 24.3473 35.4556 24.4978 35.4186M28.1138 35.6356L27.9965 35.552M28.3307 35.8045C28.6081 35.5076 28.841 35.1697 28.9672 34.784" stroke="black" stroke-width="0.32"/>
<path d="M25.3777 28.0498C25.3777 27.9538 25.456 27.9111 25.5502 27.8418C25.6604 27.7583 25.7067 27.7173 25.808 27.7173H27.1111C27.2071 27.7173 27.2302 27.7423 27.2302 27.8311V29.6036C27.2302 29.6924 27.2071 29.7173 27.1111 29.7173H25.3777V28.0356" fill="white"/>
<path d="M25.3777 28.0498C25.3777 27.9538 25.456 27.9111 25.5502 27.8418C25.6604 27.7583 25.7067 27.7173 25.808 27.7173H27.1111C27.2071 27.7173 27.2302 27.7423 27.2302 27.8311V29.6036C27.2302 29.6924 27.2071 29.7173 27.1111 29.7173H25.3777V28.0356" fill="black"/>
<path d="M25.3777 28.0498C25.3777 27.9538 25.456 27.9111 25.5502 27.8418C25.6604 27.7583 25.7067 27.7173 25.808 27.7173H27.1111C27.2071 27.7173 27.2302 27.7423 27.2302 27.8311V29.6036C27.2302 29.6924 27.2071 29.7173 27.1111 29.7173H25.3777V28.0356" stroke="black" stroke-width="0.32"/>
<path d="M26.7893 29.872C26.96 29.872 26.9298 29.8684 27.0489 29.7476C27.1734 29.6231 27.1627 29.6337 27.1627 29.5182V27.8987C27.1627 27.8151 27.1431 27.792 27.0524 27.792H25.8489C25.7547 27.792 25.7138 27.8276 25.6107 27.9076C25.5236 27.9733 25.4507 28.0124 25.4507 28.1031V29.872H26.7911H26.7893Z" fill="#E5E5E5" stroke="black" stroke-width="0.32"/>
<path d="M26.9156 29.8347C26.9156 29.9236 26.8942 29.9484 26.7964 29.9484H25.4933C25.3973 29.9484 25.376 29.9236 25.376 29.8347V28.0622C25.376 27.9733 25.3973 27.9484 25.4933 27.9484H26.7964C26.8942 27.9484 26.9156 27.9733 26.9156 28.0623V29.8347Z" fill="white" stroke="black" stroke-width="0.32"/>
<path d="M29.4436 23.2231C29.6977 23.5057 29.7813 23.8862 29.6426 24.2596H29.2657C29.424 23.7831 29.3244 23.328 28.6489 23.2676C27.6409 23.1787 26.4657 25.1342 24.6986 25.3724C24.1831 24.7573 24.2097 23.584 24.8657 23.0293C24.528 22.0516 23.8116 20.9777 23.3156 20.5137" fill="#96877D"/>
<path d="M29.4436 23.2231C29.6977 23.5057 29.7813 23.8862 29.6426 24.2596H29.2657C29.424 23.7831 29.3244 23.328 28.6489 23.2676C27.6409 23.1787 26.4657 25.1342 24.6986 25.3724C24.1831 24.7573 24.2097 23.584 24.8657 23.0293C24.528 22.0516 23.8116 20.9777 23.3156 20.5137" fill="black"/>
<path d="M29.4436 23.2231C29.6977 23.5057 29.7813 23.8862 29.6426 24.2596H29.2657C29.424 23.7831 29.3244 23.328 28.6489 23.2676C27.6409 23.1787 26.4657 25.1342 24.6986 25.3724C24.1831 24.7573 24.2097 23.584 24.8657 23.0293C24.528 22.0516 23.8116 20.9777 23.3156 20.5137" stroke="black" stroke-width="0.315"/>
<path d="M25.0381 23.744C24.951 22.4178 24.4159 21.3298 23.6656 20.5867C24.0212 20.6844 24.7572 20.6844 25.2532 20.3271C25.9092 19.8916 27.6159 19.1271 28.2399 19.4543C28.2997 19.6193 28.3138 19.7973 28.2807 19.9698C28.1315 19.5733 26.4852 20.1884 26.0176 20.3787C25.5715 20.5867 25.3723 20.864 25.5306 21.4898C25.2728 21.2711 25.3617 21.0631 25.095 20.9031C25.2035 21.1609 25.2923 21.6284 25.3226 22.0053C25.223 21.7423 25.0452 21.1627 24.6576 20.8267C24.9955 21.4808 25.2888 23.0542 25.1501 23.888C25.4168 23.888 26.0088 23.6249 26.2452 23.4364C26.0372 23.7351 25.4363 23.9431 25.0506 24.0231C24.8764 24.2311 24.7572 24.7663 24.7661 25.0649C24.7376 24.6969 24.8532 23.8027 25.0381 23.744ZM29.4435 23.2232C29.1146 22.8569 28.5012 22.6578 27.7155 22.8711C27.8346 22.8107 28.0941 22.7111 28.3216 22.672C28.2915 22.464 28.103 21.5698 28.0728 21.3528L28.2915 21.264C28.4016 21.7973 28.5403 22.4143 28.6292 22.6632C28.7003 22.6808 28.8586 22.7128 28.9972 22.7823C28.9368 22.5724 28.599 21.0756 28.6097 20.9156L28.9083 20.7556C29.0275 21.5698 29.2159 22.752 29.4416 23.2231L29.4435 23.2232Z" fill="black"/>
<path d="M29.2658 24.2596C29.424 23.7831 29.3244 23.328 28.6507 23.2676C28.1263 23.2213 27.5591 23.7297 26.8871 24.2596H29.2658Z" fill="#96877D" stroke="black" stroke-width="0.32"/>
<path d="M24.8659 23.0294C24.9761 23.3458 25.0472 23.6516 25.0579 23.9235L24.8659 23.0294ZM23.9645 19.0702C23.7868 19.3316 23.6285 19.6143 23.577 19.8524C23.9148 19.9627 24.5797 20.0214 24.8784 19.9823" fill="black"/>
<path d="M24.8659 23.0294C24.9761 23.3458 25.0472 23.6516 25.0579 23.9235M23.9645 19.0702C23.7868 19.3316 23.6285 19.6143 23.577 19.8524C23.9148 19.9627 24.5797 20.0214 24.8784 19.9823" stroke="black" stroke-width="0.315"/>
<path d="M23.3156 20.5138C23.4436 20.5351 23.5644 20.56 23.6657 20.5867C24.0231 20.6863 24.7573 20.6863 25.2551 20.329C25.7529 19.9716 27.1004 18.8623 28.6293 18.7415" fill="black"/>
<path d="M23.3156 20.5138C23.4436 20.5351 23.5644 20.56 23.6657 20.5867C24.0231 20.6863 24.7573 20.6863 25.2551 20.329C25.7529 19.9716 27.1004 18.8623 28.6293 18.7415" stroke="black" stroke-width="0.315"/>
<path d="M22.9209 20.1707C23.3974 20.2702 24.3805 20.32 24.8765 19.9822C26.0285 19.1982 27.1396 18.7413 28.2507 18.6809" fill="black"/>
<path d="M22.9209 20.1707C23.3974 20.2702 24.3805 20.32 24.8765 19.9822C26.0285 19.1982 27.1396 18.7413 28.2507 18.6809" stroke="black" stroke-width="0.315"/>
<path d="M31.2496 25.4116C32.9172 26.5636 34.1475 27.6747 34.5066 29.4631C34.8621 31.2498 35.5376 31.7263 36.3732 31.2498C36.1741 32.2809 35.1412 32.4 34.2683 31.6053C34.3483 32.7964 33.8701 34.2276 32.6399 34.7431C32.5599 34.0284 33.0328 33.4631 32.8976 32.8764C32.839 32.6187 32.8195 32.0231 33.1555 31.7458C32.5012 31.9644 31.4683 31.5467 31.3688 30.5743C32.1243 30.9316 33.0968 30.992 33.4736 30.0391C33.8506 29.0863 33.6923 27.4578 31.2515 25.4116H31.2496ZM33.3546 16.1209C33.8701 14.7698 35.2212 14.9103 35.6763 15.4863C37.0079 14.7307 37.1875 16.4391 38.3181 16.1013C38.2968 16.4178 37.9199 16.7164 37.5039 16.6969C37.9395 17.0933 37.3261 17.6889 38.2576 18.048C37.463 18.4444 36.3519 18.0267 36.0532 16.9351C35.7955 17.4507 34.8621 17.4507 34.4852 17.0347C35.2994 16.816 35.2408 16.0605 34.7839 15.7636C34.3235 15.4631 33.5128 15.5858 33.3546 16.1191V16.1209ZM29.3279 19.0933C29.6976 20.288 30.4656 21.3992 31.2906 22.1564C32.2435 23.0293 33.6816 22.8107 34.487 21.9787C34.5048 23.6409 32.7839 23.7689 31.8256 23.248C31.4043 23.0169 31.0612 23.1396 31.4701 23.5058C32.0835 24.0623 33.431 24.4747 35.0221 24.816C37.8026 25.4116 36.8088 27.616 35.9946 27.5964C36.2292 27.5914 36.4212 27.3476 36.0835 27.0453C33.6728 24.8764 28.7679 25.7298 28.8479 20.8853C28.3323 22.1564 26.2079 21.6604 27.1999 20.1512C27.5181 20.4089 28.0746 20.4284 28.231 20.032C28.3555 19.7227 28.2755 19.1858 27.719 18.7236C27.8096 18.7161 28.007 18.7236 27.9856 18.496C28.0123 18.6293 28.1332 18.8285 28.4461 18.7627C28.535 18.9031 28.6292 18.9956 28.7555 18.9458C28.7803 18.9351 28.855 18.8978 28.8266 18.7556C28.8496 19.0187 29.1643 19.1129 29.3279 19.0933Z" fill="#337321" stroke="black" stroke-width="0.315"/>
<path d="M31.8257 23.248C32.9776 24.0017 34.279 24.0017 35.479 22.6133C35.8559 22.176 36.4515 21.7992 36.8692 21.76C37.2852 21.7191 37.2656 21.3227 37.5839 21.2444C37.3847 21.184 37.3065 20.9457 37.0079 20.9742C37.7528 20.7164 37.5341 20.1209 37.902 19.8329C37.6035 19.9431 37.1376 19.4951 36.711 20.0622C36.8195 19.8027 36.6701 19.4951 36.5616 19.376C36.6008 19.6747 35.975 19.7333 35.8559 20.4889C35.79 20.912 35.559 20.8853 35.5181 20.2311C35.4896 19.7511 35.2603 18.4231 34.9848 17.7493C34.7056 17.0737 34.6416 16.1476 35.0203 16.0071M32.2239 35.5307C32.4692 35.6551 32.679 35.8257 32.5475 36.6204C32.4941 36.9493 32.4816 37.7493 32.7696 37.7724C32.5883 37.8542 32.2079 37.9324 32.0621 37.7227C31.9021 37.9662 31.5661 37.8809 31.4452 37.5645C31.2621 37.7013 31.0292 37.4489 31.0363 37.2373C30.8781 37.3316 30.5741 37.1751 30.6701 36.7022C30.4781 36.7609 30.2399 36.6187 30.1545 36.4942C30.4354 36.4498 31.1483 36.0996 31.3261 35.8062C31.5039 35.5147 31.9412 35.3867 32.2239 35.5307Z" fill="#F7E017"/>
<path d="M31.8257 23.248C32.9776 24.0017 34.279 24.0017 35.479 22.6133C35.8559 22.176 36.4515 21.7992 36.8692 21.76C37.2852 21.7191 37.2656 21.3227 37.5839 21.2444C37.3847 21.184 37.3065 20.9457 37.0079 20.9742C37.7528 20.7164 37.5341 20.1209 37.902 19.8329C37.6035 19.9431 37.1376 19.4951 36.711 20.0622C36.8195 19.8027 36.6701 19.4951 36.5616 19.376C36.6008 19.6747 35.975 19.7333 35.8559 20.4889C35.79 20.912 35.559 20.8853 35.5181 20.2311C35.4896 19.7511 35.2603 18.4231 34.9848 17.7493C34.7056 17.0737 34.6416 16.1476 35.0203 16.0071M32.2239 35.5307C32.4692 35.6551 32.679 35.8257 32.5475 36.6204C32.4941 36.9493 32.4816 37.7493 32.7696 37.7724C32.5883 37.8542 32.2079 37.9324 32.0621 37.7227C31.9021 37.9662 31.5661 37.8809 31.4452 37.5645C31.2621 37.7013 31.0292 37.4489 31.0363 37.2373C30.8781 37.3316 30.5741 37.1751 30.6701 36.7022C30.4781 36.7609 30.2399 36.6187 30.1545 36.4942C30.4354 36.4498 31.1483 36.0996 31.3261 35.8062C31.5039 35.5147 31.9412 35.3867 32.2239 35.5307Z" fill="black"/>
<path d="M31.8257 23.248C32.9776 24.0017 34.279 24.0017 35.479 22.6133C35.8559 22.176 36.4515 21.7992 36.8692 21.76C37.2852 21.7191 37.2656 21.3227 37.5839 21.2444C37.3847 21.184 37.3065 20.9457 37.0079 20.9742C37.7528 20.7164 37.5341 20.1209 37.902 19.8329C37.6035 19.9431 37.1376 19.4951 36.711 20.0622C36.8195 19.8027 36.6701 19.4951 36.5616 19.376C36.6008 19.6747 35.975 19.7333 35.8559 20.4889C35.79 20.912 35.559 20.8853 35.5181 20.2311C35.4896 19.7511 35.2603 18.4231 34.9848 17.7493C34.7056 17.0737 34.6416 16.1476 35.0203 16.0071M32.2239 35.5307C32.4692 35.6551 32.679 35.8257 32.5475 36.6204C32.4941 36.9493 32.4816 37.7493 32.7696 37.7724C32.5883 37.8542 32.2079 37.9324 32.0621 37.7227C31.9021 37.9662 31.5661 37.8809 31.4452 37.5645C31.2621 37.7013 31.0292 37.4489 31.0363 37.2373C30.8781 37.3316 30.5741 37.1751 30.6701 36.7022C30.4781 36.7609 30.2399 36.6187 30.1545 36.4942C30.4354 36.4498 31.1483 36.0996 31.3261 35.8062C31.5039 35.5147 31.9412 35.3867 32.2239 35.5307Z" stroke="black" stroke-width="0.315"/>
<path d="M32.0604 37.7227C32.1422 37.616 32.1885 37.1502 32.1441 36.8658L32.0604 37.7227ZM31.4453 37.568C31.6536 37.39 31.8009 37.1513 31.8667 36.8853L31.4453 37.568ZM31.0365 37.2391C31.193 37.1733 31.5893 36.7004 31.6853 36.3876L31.0365 37.2391ZM30.6684 36.7023C30.8533 36.672 31.4276 36.3289 31.6746 35.9484L30.6684 36.7023Z" fill="black"/>
<path d="M32.0604 37.7227C32.1422 37.616 32.1885 37.1502 32.1441 36.8658M31.4453 37.568C31.6536 37.39 31.8009 37.1513 31.8667 36.8853M31.0365 37.2391C31.193 37.1733 31.5893 36.7004 31.6853 36.3876M30.6684 36.7023C30.8533 36.672 31.4276 36.3289 31.6746 35.9484" stroke="black" stroke-width="0.32"/>
<path d="M28.848 20.8853C28.8142 22.9209 29.6605 23.9503 30.832 24.6204C30.3964 24.3591 30.5849 23.4649 29.9982 23.1787C30.1386 23.168 30.3556 23.3671 30.704 23.2871C30.5351 22.9103 30.2577 22.3343 29.6124 22.256C29.7813 22.2364 30.1476 22.2951 30.3857 22.2063C30.048 21.6907 29.1556 21.9378 28.848 20.8853ZM28.6364 18.9512C28.5653 18.9262 28.5031 18.8551 28.4444 18.7609C28.1316 18.8284 28.0106 18.6293 27.9857 18.4943C28.0036 18.7253 27.808 18.7147 27.7156 18.7218C28.2756 19.184 28.3556 19.7227 28.2311 20.032C28.0711 20.4284 27.5164 20.4089 27.2 20.1512C27.1591 20.9938 28.2506 21.2712 28.6471 20.2098C28.6471 20.3876 28.8764 20.3698 28.9351 20.608C29.2196 20.1511 29.0062 19.4951 28.6364 18.9511V18.9512Z" fill="#F7E017" stroke="black" stroke-width="0.315"/>
<path d="M27.2498 12.5564C27.2427 12.3787 27.5521 12.1457 27.9698 12.1493C28.4711 12.1547 28.8587 12.6116 29.2587 12.5671C29.6587 12.5227 29.4631 12.7449 29.3779 12.8053C29.2943 12.864 29.2446 12.9547 29.2747 13.0631C29.305 13.1716 29.2534 13.2444 29.0916 13.1431C28.7343 12.9191 28.3751 13.232 27.9041 13.0577C27.4951 12.9084 27.2586 12.8267 27.2498 12.5564Z" fill="#CF142B" stroke="black" stroke-width="0.32"/>
<path d="M25.2053 17.2427C25.0061 16.6168 24.2524 15.9324 23.8845 15.7724L23.8649 15.4347C24.064 15.3564 24.5404 14.9796 24.759 14.7697C26.247 15.4844 28.272 14.4729 29.2053 13.4204L29.5626 13.6391L29.3849 13.8773L29.1964 13.7777C28.967 14.0551 28.1155 14.8587 27.856 15.0257C28.2044 15.1147 28.6773 15.1751 28.8089 15.168C29.6426 14.5724 30.2969 14.0355 30.615 13.9947L30.8817 14.3538L30.6453 14.5227L30.4569 14.4124C29.5626 15.1484 28.551 16.7556 28.1529 17.8276C27.5982 17.7084 25.6106 17.7884 25.2053 17.2409V17.2427Z" fill="#96877D" stroke="black" stroke-width="0.32"/>
<path d="M25.2835 17.024C25.1502 16.2844 25.3635 15.4648 25.7404 15.2177C26.5653 15.7636 27.975 15.7636 28.8089 15.168" fill="black"/>
<path d="M25.2835 17.024C25.1502 16.2844 25.3635 15.4648 25.7404 15.2177C26.5653 15.7636 27.975 15.7636 28.8089 15.168" stroke="black" stroke-width="0.32"/>
<path d="M25.2834 16.6364C25.9199 16.6187 27.2994 16.7254 27.6372 16.7751C27.9749 16.8249 28.5403 16.9636 28.4603 17.1324M25.5768 16.5316L25.7599 16.3484L25.5768 16.1671L25.3954 16.3484L25.5768 16.5316Z" fill="black"/>
<path d="M25.2834 16.6364C25.9199 16.6187 27.2994 16.7254 27.6372 16.7751C27.9749 16.8249 28.5403 16.9636 28.4603 17.1324M25.5768 16.5316L25.7599 16.3484L25.5768 16.1671L25.3954 16.3484L25.5768 16.5316Z" stroke="black" stroke-width="0.32"/>
<path d="M26.0089 12.8356C25.7813 12.5156 25.152 12.416 25.0169 12.8444C24.9564 13.0329 24.8676 13.232 24.7183 13.3209C24.5707 13.4098 24.6044 13.6818 24.6703 13.7974C24.8284 14.0854 24.688 14.3627 24.9973 14.5529C24.9973 14.3236 25.3351 14.0854 25.6232 14.0267C25.9111 13.9663 26.3467 13.7084 26.4053 13.4223C26.4658 13.1324 26.5653 12.8943 26.0089 12.8356Z" fill="#337321" stroke="black" stroke-width="0.32"/>
<path d="M24.5778 15.6942H24.6578V16.2364C24.6757 16.2417 24.6934 16.2507 24.7058 16.2613L25.1734 15.9911L25.2142 16.0622L24.745 16.3324C24.7483 16.3501 24.7483 16.3682 24.745 16.3857L25.2143 16.6577L25.1734 16.7253L24.7041 16.4551" fill="#96877D"/>
<path d="M24.5778 15.6942H24.6578V16.2364C24.6757 16.2417 24.6934 16.2507 24.7058 16.2613L25.1734 15.9911L25.2142 16.0622L24.745 16.3324C24.7483 16.3501 24.7483 16.3682 24.745 16.3857L25.2143 16.6577L25.1734 16.7253L24.7041 16.4551" fill="black"/>
<path d="M24.5778 15.6942H24.6578V16.2364C24.6757 16.2417 24.6934 16.2507 24.7058 16.2613L25.1734 15.9911L25.2142 16.0622L24.745 16.3324C24.7483 16.3501 24.7483 16.3682 24.745 16.3857L25.2143 16.6577L25.1734 16.7253L24.7041 16.4551" stroke="black" stroke-width="0.32"/>
<path d="M24.2222 17.9182C24.1635 17.8471 24.0532 17.6587 24.0622 17.52C24.1867 17.5211 24.3067 17.5672 24.3999 17.6497C24.391 17.5502 24.3519 17.3316 24.3715 17.232C24.4799 17.2728 24.7092 17.4009 24.7875 17.5502" fill="#337321"/>
<path d="M24.2222 17.9182C24.1635 17.8471 24.0532 17.6587 24.0622 17.52C24.1867 17.5211 24.3067 17.5672 24.3999 17.6497C24.391 17.5502 24.3519 17.3316 24.3715 17.232C24.4799 17.2728 24.7092 17.4009 24.7875 17.5502" fill="black"/>
<path d="M24.2222 17.9182C24.1635 17.8471 24.0532 17.6587 24.0622 17.52C24.1867 17.5211 24.3067 17.5672 24.3999 17.6497C24.391 17.5502 24.3519 17.3316 24.3715 17.232C24.4799 17.2728 24.7092 17.4009 24.7875 17.5502" stroke="black" stroke-width="0.32"/>
<path d="M27.545 12.6578C27.5414 12.5867 27.705 12.4196 27.9965 12.4213C28.3467 12.4231 28.6721 12.6809 28.953 12.6631C29.2338 12.6453 29.0951 12.7343 29.0365 12.7591C28.9778 12.784 28.9423 12.8213 28.9636 12.8658C28.985 12.9103 28.9476 12.9387 28.8356 12.8978C28.585 12.8071 28.3343 12.9333 28.0036 12.8623C27.7191 12.8018 27.5521 12.768 27.545 12.6578Z" fill="#F7E017"/>
<path d="M24.5298 18.5138C24.2329 18.8694 23.9343 18.8107 23.8756 18.5831C23.8151 18.3538 24.0356 18.2454 23.9538 18.0463C23.8756 17.8471 24.0836 17.7583 24.1831 17.8471C24.2827 17.936 24.5991 17.6498 24.7396 17.9467C24.8783 18.2454 24.9884 18.4534 24.9067 18.5725C24.8284 18.6916 24.5903 18.6329 24.5298 18.5138ZM25.8098 17.9769C25.7529 17.8471 26.0623 17.5947 26.2204 17.7743C26.3804 17.952 26.6293 17.5787 26.768 17.8631C26.9067 18.1458 26.9511 18.2951 27.0205 18.4534C27.0916 18.6134 26.6436 18.6969 26.5049 18.5583C26.5227 18.6524 26.1191 18.7254 26.0071 18.4587L25.8098 17.9769ZM27.8756 18.1404C27.8009 18.0018 28.1636 17.8027 28.352 18.0569C28.4018 17.952 28.7609 17.9324 28.784 18.2347C28.8089 18.5369 28.8196 18.7164 28.8284 18.8355C28.8373 18.9547 28.6116 19.0631 28.4463 18.7609C28.1547 18.8214 28.0196 18.6578 27.984 18.4836C27.9484 18.3094 27.9165 18.2258 27.8773 18.1404H27.8756Z" fill="#F7E017" stroke="black" stroke-width="0.32"/>
<path d="M24.7217 17.9431C24.6773 17.8436 24.976 17.6444 25.1786 17.7937C25.3831 17.9431 25.664 17.664 25.7831 17.9324C26.0266 18.4729 26.0426 18.5137 25.968 18.6169C25.8933 18.7217 25.5769 18.6809 25.4969 18.5387C25.4809 18.6364 25.2071 18.6204 25.0649 18.5422C24.9013 18.4533 24.7857 18.1209 24.7217 17.9431ZM26.8124 17.9662C26.7413 17.8133 27.2089 17.68 27.4116 17.9484C27.5164 17.8524 27.744 17.8471 27.8737 18.1404C28.0036 18.4337 28.0231 18.5973 27.9271 18.672C27.8613 18.7253 27.6213 18.7662 27.5413 18.6328C27.4311 18.7022 27.0951 18.6417 27.0205 18.4551C26.9457 18.2649 26.8817 18.0996 26.8124 17.9662ZM28.7876 18.2596C28.7786 18.1209 29.0311 18.0569 29.1253 18.2596C29.2195 18.4622 29.5217 18.2809 29.5484 18.6169C29.552 18.6809 29.5129 18.9297 29.4186 19.0489C29.3245 19.168 28.8622 19.0489 28.832 18.7964" fill="#337321"/>
<path d="M28.7876 18.2596C28.7787 18.1209 29.0311 18.0569 29.1254 18.2596C29.2195 18.4622 29.5218 18.2809 29.5485 18.6169C29.552 18.6809 29.513 18.9297 29.4187 19.0489C29.3245 19.168 28.8623 19.0489 28.832 18.7964M24.7218 17.9431C24.6774 17.8436 24.976 17.6444 25.1787 17.7937C25.3831 17.9431 25.664 17.664 25.7831 17.9324C26.0267 18.4729 26.0427 18.5137 25.968 18.6169C25.8934 18.7217 25.577 18.6809 25.497 18.5387C25.481 18.6364 25.2071 18.6204 25.065 18.5422C24.9014 18.4533 24.7858 18.1209 24.7218 17.9431ZM26.8125 17.9662C26.7414 17.8133 27.209 17.68 27.4116 17.9484C27.5165 17.8524 27.744 17.8471 27.8738 18.1404C28.0036 18.4337 28.0231 18.5973 27.9271 18.672C27.8614 18.7253 27.6214 18.7662 27.5414 18.6328C27.4311 18.7022 27.0951 18.6417 27.0205 18.4551C26.9458 18.2649 26.8818 18.0996 26.8125 17.9662ZM24.5298 18.5137C24.4214 18.3644 24.272 18.1262 24.0836 18.384L24.5298 18.5137Z" fill="black"/>
<path d="M28.7876 18.2596C28.7787 18.1209 29.0311 18.0569 29.1254 18.2596C29.2195 18.4622 29.5218 18.2809 29.5485 18.6169C29.552 18.6809 29.513 18.9297 29.4187 19.0489C29.3245 19.168 28.8623 19.0489 28.832 18.7964M24.5298 18.5137C24.4214 18.3644 24.272 18.1262 24.0836 18.384M24.7218 17.9431C24.6774 17.8436 24.976 17.6444 25.1787 17.7937C25.3831 17.9431 25.664 17.664 25.7831 17.9324C26.0267 18.4729 26.0427 18.5137 25.968 18.6169C25.8934 18.7217 25.577 18.6809 25.497 18.5387C25.481 18.6364 25.2071 18.6204 25.065 18.5422C24.9014 18.4533 24.7858 18.1209 24.7218 17.9431ZM26.8125 17.9662C26.7414 17.8133 27.209 17.68 27.4116 17.9484C27.5165 17.8524 27.744 17.8471 27.8738 18.1404C28.0036 18.4337 28.0231 18.5973 27.9271 18.672C27.8614 18.7253 27.6214 18.7662 27.5414 18.6328C27.4311 18.7022 27.0951 18.6417 27.0205 18.4551C26.9458 18.2649 26.8818 18.0996 26.8125 17.9662Z" stroke="black" stroke-width="0.32"/>
</g>
</g>
</g>
<defs>
<clipPath id="clip0_16699_275023">
<rect width="40" height="40" fill="white"/>
</clipPath>
</defs>
</svg>
