<svg width="40" height="40" viewBox="0 0 40 40" fill="none" xmlns="http://www.w3.org/2000/svg">
<g clip-path="url(#clip0_16699_275130)">
<mask id="mask0_16699_275130" style="mask-type:luminance" maskUnits="userSpaceOnUse" x="0" y="0" width="40" height="40">
<path d="M40 0H0V40H40V0Z" fill="white"/>
</mask>
<g mask="url(#mask0_16699_275130)">
<mask id="mask1_16699_275130" style="mask-type:luminance" maskUnits="userSpaceOnUse" x="0" y="0" width="40" height="40">
<path d="M40 20C40 8.95433 31.0457 0 20 0C8.95433 0 0 8.95433 0 20C0 31.0457 8.95433 40 20 40C31.0457 40 40 31.0457 40 20Z" fill="white"/>
</mask>
<g mask="url(#mask1_16699_275130)">
<path d="M0.0579381 39.6862C0.0787667 39.4459 0.821655 38.6792 6.61897 32.8963L13.1522 26.3743H36.5914H60.0306V33.1642V39.9541H30.0304H0.0371094L0.0579381 39.6862Z" fill="#009639"/>
<path d="M6.75126 7.03866C1.49172 1.80079 0.145611 0.415108 0.145611 0.258065L0.138672 0.0455933H30.0792H60.0197V6.83544V13.6253H36.6918H13.3569L6.75126 7.03866Z" fill="black"/>
<path d="M17.5977 26.503C17.5977 26.346 18.2591 25.5791 20.4952 23.1311C22.0826 21.3851 23.3866 19.9348 23.3866 19.9071C23.3866 19.8793 22.1141 18.466 20.5582 16.7662C17.9567 13.921 17.7298 13.6531 17.7236 13.3945C17.7236 13.1911 17.7424 13.1542 17.7992 13.2373C17.8558 13.3206 22.6432 13.3482 38.9642 13.3482H60.0537V19.9995V26.6507L38.8257 26.6692L17.5977 26.697V26.503Z" fill="white"/>
<path d="M0.046875 19.9994C0.046875 0.396633 0.046875 0.0455933 0.222395 0.0455933C0.324011 0.0455933 0.41639 0.0825448 0.434866 0.119496C0.453341 0.156448 6.35634 4.6091 13.5526 10.004C20.7582 15.3989 26.652 19.8516 26.652 19.907C26.652 19.9625 20.7582 24.4151 13.5619 29.8008C6.35634 35.1957 0.397914 39.6853 0.305535 39.7777C0.222395 39.8793 0.130016 39.9532 0.102302 39.9532C0.0745886 39.9532 0.046875 30.974 0.046875 19.9994Z" fill="#ED2E38" stroke="#FF0000" stroke-width="0.0461894"/>
</g>
</g>
</g>
<defs>
<clipPath id="clip0_16699_275130">
<rect width="40" height="40" fill="white"/>
</clipPath>
</defs>
</svg>
