<svg width="40" height="40" viewBox="0 0 40 40" fill="none" xmlns="http://www.w3.org/2000/svg">
<g clip-path="url(#clip0_16699_275143)">
<mask id="mask0_16699_275143" style="mask-type:luminance" maskUnits="userSpaceOnUse" x="0" y="0" width="40" height="40">
<path d="M40 0H0V40H40V0Z" fill="white"/>
</mask>
<g mask="url(#mask0_16699_275143)">
<mask id="mask1_16699_275143" style="mask-type:luminance" maskUnits="userSpaceOnUse" x="0" y="0" width="40" height="40">
<path d="M40 20C40 8.95433 31.0457 0 20 0C8.95433 0 0 8.95433 0 20C0 31.0457 8.95433 40 20 40C31.0457 40 40 31.0457 40 20Z" fill="white"/>
</mask>
<g mask="url(#mask1_16699_275143)">
<path d="M51 0H-9V40H51V0Z" fill="#FF0000"/>
<path d="M15 0H-9V40H15V0Z" fill="#006600"/>
<path fill-rule="evenodd" clip-rule="evenodd" d="M22.8241 26.2038C19.8031 26.1128 5.9501 17.4658 5.8551 16.0888L6.62006 14.8132C7.99416 16.8098 22.156 25.2192 23.547 24.9212L22.8241 26.2038Z" fill="#FFFF00"/>
<path d="M22.8241 26.2038C19.8031 26.1128 5.9501 17.4658 5.8551 16.0888L6.62006 14.8132C7.99416 16.8098 22.156 25.2192 23.547 24.9212L22.8241 26.2038Z" stroke="black" stroke-width="0.02865" stroke-linecap="round" stroke-linejoin="round"/>
<path fill-rule="evenodd" clip-rule="evenodd" d="M6.45936 14.6398C6.18835 15.3692 10.0743 17.7717 14.7496 20.6153C19.4249 23.4587 23.4561 25.2158 23.755 24.9638C23.7733 24.9313 23.902 24.7098 23.8901 24.7114C23.8341 24.7958 23.6979 24.8226 23.485 24.7613C22.222 24.3968 18.9275 22.8848 14.8476 20.4107C10.7679 17.9363 7.2183 15.6563 6.6666 14.6874C6.62824 14.6203 6.6009 14.4978 6.60646 14.4026L6.59305 14.4023L6.47557 14.6077L6.45936 14.6398ZM22.8954 26.2438C22.8441 26.3368 22.7486 26.3398 22.5671 26.3199C21.4371 26.1948 18.0083 24.5274 13.951 22.0987C9.22996 19.2727 5.33101 16.6977 5.75401 16.0247L5.8691 15.8212L5.89176 15.8283C5.51138 16.9688 13.5865 21.5861 14.062 21.8804C18.7344 24.7752 22.6735 26.4656 23.022 26.0263L22.8954 26.2438Z" fill="#FFFF00" stroke="black" stroke-width="0.02865" stroke-linecap="round" stroke-linejoin="round"/>
<path fill-rule="evenodd" clip-rule="evenodd" d="M15.0179 16.9233C18.0415 16.8994 21.7729 16.5101 23.9201 15.6543L23.4575 14.9026C22.1884 15.6051 18.4365 16.067 14.9924 16.1361C10.9188 16.0986 8.04332 15.7193 6.60262 14.7526L6.16589 15.5531C8.81429 16.6738 11.5281 16.9116 15.0179 16.9233Z" fill="#FFFF00" stroke="black" stroke-width="0.02865" stroke-linecap="round" stroke-linejoin="round"/>
<path fill-rule="evenodd" clip-rule="evenodd" d="M24.0435 15.671C23.9695 15.7891 22.5691 16.2721 20.5061 16.6285C19.1074 16.8418 17.2828 17.024 15.0058 17.0264C12.8425 17.0284 11.0753 16.8744 9.73738 16.693C7.57179 16.3535 6.45409 15.881 6.04089 15.714C6.08041 15.6355 6.10581 15.5804 6.14391 15.507C7.33341 15.9805 8.45629 16.2661 9.77179 16.4685C11.1009 16.6485 12.8468 16.8048 14.9994 16.8028C17.2658 16.8005 19.0703 16.6043 20.461 16.3974C22.5765 16.0561 23.732 15.617 23.8944 15.4131L24.0435 15.671ZM23.6375 14.9088C23.4081 15.093 22.2656 15.498 20.2555 15.819C18.914 16.0114 17.2084 16.1835 15.029 16.1855C12.9586 16.1875 11.2671 16.048 9.98054 15.8606C7.93917 15.594 6.85267 15.113 6.46097 14.9729C6.49994 14.9055 6.53964 14.8386 6.58038 14.7715C6.88517 14.925 7.93368 15.3506 10.003 15.6438C11.275 15.8241 12.969 15.9585 15.0291 15.9565C17.1981 15.9543 18.8845 15.7788 20.2175 15.5875C22.238 15.3095 23.3251 14.7929 23.4903 14.6635L23.6375 14.9088Z" fill="#FFFF00" stroke="black" stroke-width="0.02865" stroke-linecap="round" stroke-linejoin="round"/>
<path fill-rule="evenodd" clip-rule="evenodd" d="M5.08764 20.5658C6.94744 21.5662 11.0781 22.0703 14.987 22.105C18.5461 22.1106 23.1828 21.5548 24.9167 20.636L24.869 19.6348C24.3266 20.4825 19.3577 21.2957 14.9484 21.2623C10.5391 21.2291 6.44461 20.5481 5.07971 19.6665L5.08764 20.5658Z" fill="#FFFF00"/>
<path d="M5.08764 20.5658C6.94744 21.5662 11.0781 22.0703 14.987 22.105C18.5461 22.1106 23.1828 21.5548 24.9167 20.636L24.869 19.6348C24.3266 20.4825 19.3577 21.2957 14.9484 21.2623C10.5391 21.2291 6.44461 20.5481 5.07971 19.6665L5.08764 20.5658Z" stroke="black" stroke-width="0.02865" stroke-linecap="round" stroke-linejoin="round"/>
<path fill-rule="evenodd" clip-rule="evenodd" d="M25.0133 20.4223L25.0134 20.6609C24.7528 20.9725 23.1188 21.4435 21.0696 21.7751C19.5101 22.0143 17.477 22.1946 14.9435 22.1946C12.5365 22.1946 10.6171 22.0229 9.12863 21.7944C6.77573 21.4518 5.27073 20.8518 4.96863 20.6728L4.96995 20.3943C5.87743 20.9975 8.33604 21.4389 9.16163 21.574C10.6405 21.801 12.5485 21.9713 14.9434 21.9713C17.465 21.9713 19.4868 21.7923 21.0365 21.5548C22.5065 21.3423 24.601 20.7899 25.0133 20.4223ZM25.0143 19.573L25.0144 19.8118C24.7538 20.1231 23.1198 20.5941 21.0706 20.9258C19.5111 21.1648 17.478 21.3451 14.9445 21.3451C12.5375 21.3451 10.6181 21.1738 9.12963 20.945C6.77673 20.6025 5.27173 20.0026 4.96963 19.8234L4.97095 19.5449C5.87843 20.1481 8.33704 20.5896 9.16263 20.7245C10.6415 20.9518 12.5495 21.1221 14.9444 21.1221C17.466 21.1221 19.4878 20.9429 21.0375 20.7053C22.5075 20.4928 24.602 19.9408 25.0143 19.573Z" fill="#FFFF00" stroke="black" stroke-width="0.02865" stroke-linecap="round" stroke-linejoin="round"/>
<path fill-rule="evenodd" clip-rule="evenodd" d="M14.9792 26.032C10.7019 26.0065 7.03708 24.8661 6.26318 24.6776L6.82752 25.5609C8.19452 26.1361 11.7699 26.993 15.0202 26.8981C18.2707 26.8033 21.1113 26.5515 23.1131 25.577L23.6917 24.6615C22.3274 25.3039 17.6848 26.0253 14.9792 26.032Z" fill="#FFFF00" stroke="black" stroke-width="0.02865" stroke-linecap="round" stroke-linejoin="round"/>
<path fill-rule="evenodd" clip-rule="evenodd" d="M23.3301 25.3713C23.2451 25.5012 23.1585 25.6295 23.0705 25.7543C22.1264 26.0872 20.6386 26.4367 20.0109 26.5387C18.7285 26.8029 16.7444 26.9981 14.9835 26.9989C11.1945 26.9435 8.09295 26.2017 6.63385 25.569L6.51612 25.3666L6.53534 25.3362L6.735 25.4136C9.32979 26.342 12.244 26.7123 15.0048 26.7788C16.7585 26.785 18.5143 26.5778 19.934 26.3239C22.111 25.8877 22.9914 25.5589 23.2615 25.4099L23.3301 25.3713ZM23.8319 24.5438C23.834 24.5463 23.8364 24.5488 23.8385 24.5515C23.7749 24.6589 23.7094 24.7681 23.6421 24.8778C23.1386 25.0578 21.772 25.4577 19.7763 25.7367C18.4614 25.9158 17.644 26.0893 15.0284 26.1401C10.1269 26.0154 6.95341 25.057 6.19951 24.8206L6.08777 24.6063C8.92838 25.3478 11.83 25.8655 15.0285 25.9184C17.4216 25.8674 18.4398 25.6912 19.7438 25.5134C22.0709 25.1515 23.2434 24.7684 23.5953 24.6578C23.5909 24.6515 23.5856 24.6448 23.5799 24.6379L23.8319 24.5438Z" fill="#FFFF00" stroke="black" stroke-width="0.0275" stroke-linecap="round" stroke-linejoin="round"/>
<path fill-rule="evenodd" clip-rule="evenodd" d="M23.8831 19.7755C23.897 22.5892 22.4571 25.1141 21.2974 26.228C19.6565 27.8039 17.481 28.8176 14.9405 28.8642C12.1035 28.9164 9.42846 27.0669 8.71096 26.2544C7.30814 24.6659 6.16604 22.6487 6.12944 19.9301C6.30321 16.8592 7.50874 14.7201 9.25621 13.2532C11.0038 11.7862 13.3305 11.0719 15.2684 11.123C17.5041 11.182 20.1159 12.2787 21.9205 14.4562C23.1028 15.8827 23.6148 17.431 23.8831 19.7755ZM14.9645 10.1412C20.413 10.1412 24.8941 14.5751 24.8941 20.0116C24.8941 25.448 20.413 29.882 14.9645 29.882C9.51604 29.882 5.07214 25.4481 5.07214 20.0116C5.07214 14.5751 9.51604 10.1412 14.9645 10.1412Z" fill="#FFFF00" stroke="black" stroke-width="0.02865" stroke-linecap="round" stroke-linejoin="round"/>
<path fill-rule="evenodd" clip-rule="evenodd" d="M14.9909 10.1081C20.4443 10.1081 24.892 14.5563 24.892 20.0103C24.892 25.4641 20.4441 29.9123 14.9909 29.9123C9.53745 29.9123 5.08972 25.4642 5.08972 20.0103C5.08972 14.5563 9.53754 10.1081 14.9909 10.1081ZM5.30762 20.0103C5.30762 25.3363 9.6812 29.6945 14.9909 29.6945C20.3005 29.6945 24.6741 25.3363 24.6741 20.0103C24.6741 14.6841 20.3005 10.3258 14.9909 10.3258C9.6812 10.3258 5.30762 14.6843 5.30762 20.0103Z" fill="#FFFF00" stroke="black" stroke-width="0.02865" stroke-linecap="round" stroke-linejoin="round"/>
<path fill-rule="evenodd" clip-rule="evenodd" d="M14.9989 10.9303C19.972 10.9303 24.0681 15.0124 24.0681 20.0007C24.0681 24.9891 19.9719 29.071 14.9989 29.071C10.0259 29.071 5.92957 24.9891 5.92957 20.0007C5.92957 15.0124 10.026 10.9303 14.9989 10.9303ZM6.14737 20.0007C6.14737 24.8692 10.1453 28.8531 14.9989 28.8531C19.8525 28.8531 23.8504 24.8692 23.8504 20.0007C23.8504 15.1321 19.8525 11.1482 14.9989 11.1482C10.1453 11.1482 6.14737 15.1321 6.14737 20.0007Z" fill="#FFFF00" stroke="black" stroke-width="0.02865" stroke-linecap="round" stroke-linejoin="round"/>
<path fill-rule="evenodd" clip-rule="evenodd" d="M15.3973 10.0677H14.5487L14.5497 29.9637H15.4012L15.3973 10.0677Z" fill="#FFFF00" stroke="black" stroke-width="0.02865" stroke-linecap="round" stroke-linejoin="round"/>
<path fill-rule="evenodd" clip-rule="evenodd" d="M15.3127 9.95441H15.5286L15.5305 30.0795H15.3143L15.3127 9.95441ZM14.4705 9.95457H14.6882L14.6885 30.0796H14.4707L14.4705 9.95457Z" fill="#FFFF00" stroke="black" stroke-width="0.02865" stroke-linecap="round" stroke-linejoin="round"/>
<path fill-rule="evenodd" clip-rule="evenodd" d="M24.8995 20.3933V19.6578L24.3006 19.0998L20.9006 18.1998L16.0006 17.6998L10.1006 17.9998L5.90061 18.9998L5.05261 19.6278V20.3636L7.20061 19.3998L12.3006 18.5998H17.2006L20.8006 18.9998L23.3006 19.5998L24.8995 20.3933Z" fill="#FFFF00" stroke="black" stroke-width="0.02865" stroke-linecap="round" stroke-linejoin="round"/>
<path fill-rule="evenodd" clip-rule="evenodd" d="M14.9953 18.4769C17.3335 18.4726 19.6023 18.6984 21.4018 19.0488C23.2586 19.42 24.5655 19.8844 25.0123 20.4059L25.0118 20.6642C24.473 20.0151 22.7145 19.5394 21.36 19.2674C19.5741 18.92 17.3206 18.6957 14.9953 18.7C12.5415 18.7046 10.2565 18.937 8.49687 19.2803C7.08487 19.5605 5.20177 20.1171 4.96667 20.6661V20.3972C5.09578 20.0172 6.49797 19.4493 8.46504 19.0555C10.238 18.7098 12.527 18.4814 14.9953 18.4769ZM14.9963 17.6277C17.3345 17.6234 19.6033 17.8494 21.4028 18.1996C23.2596 18.571 24.5665 19.0352 25.0133 19.5567L25.0128 19.8149C24.474 19.1661 22.7155 18.6902 21.361 18.4183C19.5752 18.0708 17.3216 17.8465 14.9963 17.851C12.5425 17.8554 10.2686 18.088 8.50879 18.4311C7.14617 18.6894 5.18617 19.2681 4.96757 19.8171V19.548C5.09668 19.1722 6.52727 18.5839 8.46604 18.2063C10.239 17.8606 12.528 17.6323 14.9963 17.6277Z" fill="#FFFF00" stroke="black" stroke-width="0.02865" stroke-linecap="round" stroke-linejoin="round"/>
<path fill-rule="evenodd" clip-rule="evenodd" d="M14.9489 13.2954C18.6338 13.277 21.8479 13.8106 23.3184 14.5639L23.8546 15.4917C22.5765 14.803 19.109 14.0867 14.9541 14.1939C11.5688 14.2146 7.9515 14.5666 6.1366 15.5349L6.77695 14.464C8.26645 13.6916 11.779 13.2995 14.9489 13.2954Z" fill="#FFFF00"/>
<path d="M14.9489 13.2954C18.6338 13.277 21.8479 13.8106 23.3184 14.5639L23.8546 15.4917C22.5765 14.803 19.109 14.0867 14.9541 14.1939C11.5688 14.2147 7.9515 14.5666 6.1366 15.5349L6.77695 14.464C8.26645 13.6916 11.779 13.2995 14.9489 13.2954Z" stroke="black" stroke-width="0.02865" stroke-linecap="round" stroke-linejoin="round"/>
<path fill-rule="evenodd" clip-rule="evenodd" d="M14.9964 14.0621C17.098 14.0566 19.1289 14.1751 20.744 14.4665C22.248 14.7464 23.6825 15.1666 23.8875 15.3926L24.0465 15.6735C23.5478 15.3478 22.3065 14.9852 20.7126 14.683C19.112 14.3821 17.0826 14.2825 14.9926 14.2879C12.6205 14.2798 10.7775 14.4051 9.19579 14.6808C7.52295 14.9938 6.36235 15.441 6.07605 15.6535L6.23188 15.3564C6.78819 15.0726 7.67088 14.7305 9.15421 14.4634C10.7899 14.1646 12.6524 14.0749 14.9964 14.0621ZM14.9955 13.2137C17.0068 13.2084 18.9926 13.3205 20.5406 13.5988C21.7615 13.8365 22.969 14.2075 23.411 14.5377L23.6435 14.9072C23.2483 14.4678 21.76 14.0513 20.4461 13.818C18.91 13.5531 17.0066 13.4482 14.9954 13.4315C12.8845 13.4374 10.9339 13.5667 9.42021 13.8423C7.9761 14.1171 7.0442 14.4424 6.6499 14.6965L6.85441 14.3879C7.39855 14.1014 8.27761 13.8383 9.38471 13.6232C10.9095 13.3456 12.8723 13.2196 14.9955 13.2137Z" fill="#FFFF00" stroke="black" stroke-width="0.02865" stroke-linecap="round" stroke-linejoin="round"/>
<path fill-rule="evenodd" clip-rule="evenodd" d="M19.9147 24.126C18.093 23.7858 16.2679 23.7365 14.993 23.7515C8.85238 23.8235 6.86864 25.0123 6.62654 25.3723L6.1676 24.6242C7.731 23.4911 11.075 22.8556 15.0264 22.9206C17.0781 22.9541 18.8487 23.0903 20.3382 23.3788L19.9147 24.126Z" fill="#FFFF00"/>
<path d="M19.9147 24.126C18.093 23.7858 16.2679 23.7365 14.993 23.7515C8.85238 23.8235 6.86864 25.0123 6.62654 25.3723L6.1676 24.6242C7.731 23.4911 11.075 22.8556 15.0264 22.9206C17.0781 22.9541 18.8487 23.0903 20.3382 23.3788L19.9147 24.126Z" stroke="black" stroke-width="0.02865" stroke-linecap="round" stroke-linejoin="round"/>
<path fill-rule="evenodd" clip-rule="evenodd" d="M14.9588 23.6454C16.667 23.6709 18.3436 23.7415 19.962 24.0433L19.8449 24.2502C18.3418 23.9727 16.7394 23.8665 14.9645 23.8752C12.6983 23.8574 10.406 24.0691 8.41046 24.6419C7.78076 24.8171 6.73834 25.2219 6.63204 25.5564L6.51545 25.3642C6.54905 25.1664 7.17908 24.7561 8.35688 24.4252C10.6426 23.7706 12.7808 23.6604 14.9588 23.6454ZM15.0363 22.7858C16.806 22.8189 18.6338 22.9007 20.4103 23.2526L20.2881 23.468C18.684 23.1495 17.1513 23.0433 15.0466 23.011C12.7731 23.0151 10.3615 23.1772 8.1689 23.8147C7.46099 24.0209 6.2392 24.4667 6.1985 24.8197L6.08191 24.6131C6.10845 24.2925 7.16611 23.8743 8.11771 23.5975C10.3273 22.9551 12.7451 22.7899 15.0363 22.7858Z" fill="#FFFF00" stroke="black" stroke-width="0.0275" stroke-linecap="round" stroke-linejoin="round"/>
<path fill-rule="evenodd" clip-rule="evenodd" d="M23.7574 24.7378L23.0195 25.8827L20.8994 23.9998L15.3994 20.2998L9.19937 16.8998L5.98035 15.7988L6.66635 14.5268L6.89935 14.3998L8.89937 14.8998L15.4994 18.2998L19.2994 20.6998L22.4994 22.9998L23.7994 24.4998L23.7574 24.7378Z" fill="#FFFF00" stroke="black" stroke-width="0.02865" stroke-linecap="round" stroke-linejoin="round"/>
<path fill-rule="evenodd" clip-rule="evenodd" d="M5.8648 15.8286C6.4294 15.4456 10.5786 17.2941 14.9203 19.912C19.2504 22.5375 23.388 25.5041 23.0145 26.0594L22.8916 26.2525L22.8353 26.297C22.8474 26.2883 22.9096 26.2122 22.8293 26.0063C22.6448 25.3993 19.7098 23.0572 14.8399 20.1168C10.0924 17.286 6.13571 15.5797 5.74011 16.0675L5.8648 15.8286ZM23.9088 24.7213C24.2658 24.0161 20.4171 21.117 15.6455 18.2941C10.7643 15.5275 7.2462 13.899 6.6036 14.3846L6.46083 14.6445C6.45959 14.6589 6.46602 14.6267 6.49619 14.6035C6.61304 14.5015 6.80671 14.5085 6.89411 14.5069C8.00061 14.5235 11.1608 15.9777 15.5946 18.5196C17.5375 19.6511 23.8018 23.6687 23.7779 24.7985C23.7795 24.8956 23.786 24.9156 23.7495 24.9637L23.9088 24.7213Z" fill="#FFFF00"/>
<path d="M23.9088 24.7213C24.2658 24.0161 20.4171 21.117 15.6455 18.2941C10.7643 15.5275 7.2462 13.899 6.6036 14.3846L6.46083 14.6445C6.45959 14.6589 6.46602 14.6267 6.49619 14.6035C6.61304 14.5015 6.80671 14.5085 6.89411 14.5069C8.00061 14.5235 11.1608 15.9777 15.5946 18.5196C17.5375 19.6511 23.8018 23.6687 23.7779 24.7985C23.7795 24.8956 23.786 24.9156 23.7495 24.9637L23.9088 24.7213ZM5.8648 15.8286C6.4294 15.4456 10.5786 17.2941 14.9203 19.912C19.2504 22.5375 23.388 25.5041 23.0145 26.0594L22.8916 26.2525L22.8353 26.297C22.8474 26.2883 22.9096 26.2122 22.8293 26.0063C22.6448 25.3993 19.7098 23.0572 14.8399 20.1168C10.0924 17.286 6.13571 15.5797 5.74011 16.0675L5.8648 15.8286Z" stroke="black" stroke-width="0.02865" stroke-linecap="round" stroke-linejoin="round"/>
<path d="M9.06001 21.101C9.06001 22.7281 9.72626 24.1997 10.8057 25.2752C11.8872 26.353 13.3568 27.0331 14.9866 27.0331C16.6247 27.0331 18.1113 26.3679 19.1882 25.2942C20.2651 24.2207 20.9325 22.739 20.9328 21.1062L20.9326 13.1872L9.05859 13.1732L9.06001 21.101Z" fill="white" stroke="black" stroke-width="0.0335185"/>
<path d="M9.28333 21.1117V21.1162C9.28333 22.6718 9.92749 24.0886 10.9608 25.1171C11.9962 26.1476 13.4222 26.7882 14.9822 26.7882C16.5503 26.7882 17.9735 26.1522 19.0045 25.1257C20.0352 24.0992 20.6742 22.6823 20.6743 21.1212L20.6742 13.4387L9.29016 13.4368L9.28333 21.1117ZM18.3853 15.7369L18.3857 20.6261L18.3817 21.1432C18.3817 21.2792 18.3736 21.4344 18.3577 21.5666C18.2652 22.3394 17.9097 23.0132 17.3832 23.5373C16.7667 24.1508 15.9161 24.5314 14.9785 24.5314C14.0457 24.5314 13.2146 24.1377 12.5956 23.5214C11.9606 22.8894 11.5926 22.0228 11.5926 21.1267L11.5912 15.7244L18.3853 15.7369Z" fill="#FF0000"/>
<path d="M9.28333 21.1117V21.1162C9.28333 22.6718 9.92749 24.0886 10.9608 25.1171C11.9962 26.1476 13.4222 26.7882 14.9822 26.7882C16.5503 26.7882 17.9735 26.1522 19.0045 25.1257C20.0352 24.0992 20.6742 22.6823 20.6743 21.1212L20.6742 13.4387L9.29016 13.4368L9.28333 21.1117ZM18.3853 15.7369L18.3857 20.6261L18.3817 21.1432C18.3817 21.2792 18.3736 21.4344 18.3577 21.5666C18.2652 22.3394 17.9097 23.0132 17.3832 23.5373C16.7667 24.1508 15.9161 24.5314 14.9785 24.5314C14.0457 24.5314 13.2146 24.1377 12.5956 23.5214C11.9606 22.8894 11.5926 22.0228 11.5926 21.1267L11.5912 15.7244L18.3853 15.7369Z" stroke="black" stroke-width="0.025367"/>
<path d="M10.0214 15.4425C10.0349 14.8904 10.4266 14.7597 10.4294 14.7578C10.4323 14.7559 10.8525 14.8985 10.8511 15.4477L10.0214 15.4425Z" fill="#FFFF00"/>
<path d="M9.6834 14.7688L9.61523 15.4033L10.0292 15.4043C10.0332 14.8793 10.4267 14.7921 10.4362 14.794C10.4452 14.7935 10.8351 14.9101 10.8455 15.4043H11.2606L11.1857 14.765L9.6834 14.7688Z" fill="#FFFF00" stroke="black" stroke-width="0.025"/>
<path d="M9.5864 15.4056H11.281C11.3167 15.4056 11.3458 15.4409 11.3458 15.484C11.3458 15.527 11.3167 15.5621 11.281 15.5621H9.5864C9.55065 15.5621 9.52148 15.527 9.52148 15.484C9.52148 15.4409 9.55065 15.4056 9.5864 15.4056Z" fill="#FFFF00" stroke="black" stroke-width="0.025"/>
<path d="M10.2031 15.4033C10.2049 15.072 10.4304 14.9785 10.4304 14.9785C10.4304 14.9785 10.6647 15.0751 10.6665 15.4033H10.2031Z" fill="#FFFF00" stroke="black" stroke-width="0.025"/>
<path d="M9.6228 14.5052H11.2472C11.2815 14.5052 11.3095 14.5371 11.3095 14.5757C11.3095 14.6144 11.2815 14.6462 11.2472 14.6462H9.6228C9.58855 14.6462 9.56055 14.6146 9.56055 14.5757C9.56055 14.5371 9.58855 14.5052 9.6228 14.5052Z" fill="#FFFF00" stroke="black" stroke-width="0.025"/>
<path d="M9.65716 14.6472H11.2109C11.2437 14.6472 11.2706 14.6788 11.2706 14.7175C11.2706 14.7563 11.2437 14.788 11.2109 14.788H9.65716C9.62449 14.788 9.59766 14.7563 9.59766 14.7175C9.59766 14.6788 9.62449 14.6472 9.65716 14.6472Z" fill="#FFFF00" stroke="black" stroke-width="0.025"/>
<path d="M10.1582 13.5877L10.2809 13.5879V13.675H10.3704V13.5859L10.496 13.5864V13.675H10.5859V13.5859H10.7115L10.7114 13.7872C10.7114 13.8188 10.686 13.8392 10.6565 13.8392H10.2154C10.1858 13.8392 10.1585 13.8154 10.1584 13.7865L10.1582 13.5877Z" fill="#FFFF00" stroke="black" stroke-width="0.025"/>
<path d="M10.6193 13.8571L10.6469 14.5022L10.2167 14.5007L10.2452 13.8555L10.6193 13.8571Z" fill="#FFFF00" stroke="black" stroke-width="0.025"/>
<path d="M10.0967 14.1562L10.1098 14.5041L9.69727 14.5042L9.70893 14.1562H10.0967Z" fill="#FFFF00" stroke="black" stroke-width="0.025"/>
<path d="M11.1553 14.1562L11.1685 14.5041L10.7559 14.5042L10.7675 14.1562H11.1553Z" fill="#FFFF00" stroke="black" stroke-width="0.025"/>
<path d="M9.63116 13.9041L9.75108 13.9043V13.9916H9.83883V13.9023L9.96183 13.9028V13.9917H10.0497V13.9023L10.1727 13.9026L10.1726 14.1038C10.1726 14.1352 10.1477 14.1557 10.1189 14.1557H9.68725C9.65833 14.1557 9.63141 14.1321 9.63133 14.1031L9.63116 13.9041Z" fill="#FFFF00" stroke="black" stroke-width="0.025"/>
<path d="M10.6914 13.9041L10.8113 13.9043V13.9917H10.8992V13.9023L11.0221 13.9028V13.9917H11.1099V13.9023L11.2331 13.9026L11.2328 14.1038C11.2328 14.1352 11.2079 14.1557 11.1792 14.1557H10.7476C10.7186 14.1557 10.6917 14.1321 10.6916 14.1031L10.6914 13.9041Z" fill="#FFFF00" stroke="black" stroke-width="0.025"/>
<path d="M10.3907 14.061C10.3881 13.9982 10.4784 13.9976 10.4773 14.061V14.2147H10.3907V14.061Z" fill="black"/>
<path d="M9.85938 14.2842C9.85904 14.2237 9.94304 14.2223 9.94196 14.2842V14.4029H9.85938V14.2842Z" fill="black"/>
<path d="M10.9219 14.2842C10.9215 14.2236 11.0055 14.2224 11.0045 14.2842V14.4029H10.9219V14.2842Z" fill="black"/>
<path d="M10.0214 20.0747C10.0349 19.5226 10.4266 19.392 10.4294 19.39C10.4323 19.3881 10.8525 19.5307 10.8511 20.0799L10.0214 20.0747Z" fill="#FFFF00"/>
<path d="M9.6834 19.4004L9.61523 20.0349L10.0292 20.0357C10.0332 19.5109 10.4267 19.4236 10.4362 19.4255C10.4452 19.425 10.8351 19.5416 10.8455 20.0357H11.2606L11.1857 19.3965L9.6834 19.4004Z" fill="#FFFF00" stroke="black" stroke-width="0.025"/>
<path d="M9.5864 20.0377H11.281C11.3167 20.0377 11.3458 20.0731 11.3458 20.1161C11.3458 20.1591 11.3167 20.1942 11.281 20.1942H9.5864C9.55065 20.1942 9.52148 20.1591 9.52148 20.1161C9.52148 20.0731 9.55065 20.0377 9.5864 20.0377Z" fill="#FFFF00" stroke="black" stroke-width="0.025"/>
<path d="M10.2031 20.0348C10.2049 19.7035 10.4304 19.61 10.4304 19.61C10.4304 19.61 10.6647 19.7067 10.6665 20.0348H10.2031Z" fill="#FFFF00" stroke="black" stroke-width="0.025"/>
<path d="M9.6228 19.1367H11.2472C11.2815 19.1367 11.3095 19.1686 11.3095 19.2072C11.3095 19.2459 11.2815 19.2777 11.2472 19.2777H9.6228C9.58855 19.2777 9.56055 19.2461 9.56055 19.2072C9.56055 19.1686 9.58855 19.1367 9.6228 19.1367Z" fill="#FFFF00" stroke="black" stroke-width="0.025"/>
<path d="M9.65716 19.2793H11.2109C11.2437 19.2793 11.2706 19.311 11.2706 19.3496C11.2706 19.3885 11.2437 19.4201 11.2109 19.4201H9.65716C9.62449 19.4201 9.59766 19.3885 9.59766 19.3496C9.59766 19.311 9.62449 19.2793 9.65716 19.2793Z" fill="#FFFF00" stroke="black" stroke-width="0.025"/>
<path d="M10.1582 18.2198L10.2809 18.22V18.3072H10.3704V18.2181L10.496 18.2185V18.3072H10.5859V18.2181H10.7115L10.7114 18.4193C10.7114 18.4509 10.686 18.4713 10.6565 18.4713H10.2154C10.1858 18.4713 10.1585 18.4476 10.1584 18.4187L10.1582 18.2198Z" fill="#FFFF00" stroke="black" stroke-width="0.025"/>
<path d="M10.6193 18.4887L10.6469 19.1337L10.2167 19.1323L10.2452 18.487L10.6193 18.4887Z" fill="#FFFF00" stroke="black" stroke-width="0.025"/>
<path d="M10.0967 18.7877L10.1098 19.1356L9.69727 19.1357L9.70893 18.7877H10.0967Z" fill="#FFFF00" stroke="black" stroke-width="0.025"/>
<path d="M11.1553 18.7877L11.1685 19.1356L10.7559 19.1357L10.7675 18.7877H11.1553Z" fill="#FFFF00" stroke="black" stroke-width="0.025"/>
<path d="M9.63116 18.5356L9.75108 18.5358V18.6231H9.83883V18.5338L9.96183 18.5342V18.6231H10.0497V18.5338L10.1727 18.5341L10.1726 18.7352C10.1726 18.7666 10.1477 18.7871 10.1189 18.7871H9.68725C9.65833 18.7871 9.63141 18.7636 9.63133 18.7346L9.63116 18.5356Z" fill="#FFFF00" stroke="black" stroke-width="0.025"/>
<path d="M10.6914 18.5356L10.8113 18.5358V18.6231H10.8992V18.5338L11.0221 18.5342V18.6231H11.1099V18.5339L11.2331 18.5341L11.2328 18.7352C11.2328 18.7666 11.2079 18.7871 11.1792 18.7871H10.7476C10.7186 18.7871 10.6917 18.7636 10.6916 18.7346L10.6914 18.5356Z" fill="#FFFF00" stroke="black" stroke-width="0.025"/>
<path d="M10.3907 18.6925C10.3881 18.6298 10.4784 18.6291 10.4773 18.6925V18.8462H10.3907V18.6925Z" fill="black"/>
<path d="M9.85938 18.9157C9.85904 18.8552 9.94304 18.8539 9.94196 18.9157V19.0344H9.85938V18.9157Z" fill="black"/>
<path d="M10.9219 18.9157C10.9215 18.8551 11.0055 18.8539 11.0045 18.9157V19.0344H10.9219V18.9157Z" fill="black"/>
<path d="M11.8274 24.8962C11.4452 24.4977 11.6284 24.1276 11.629 24.1243C11.6297 24.121 12.0271 23.9231 12.4157 24.311L11.8274 24.8962Z" fill="#FFFF00"/>
<path d="M11.1112 24.6612L11.5135 25.1567L11.8058 24.8634C11.4361 24.4907 11.6513 24.1501 11.6595 24.1447C11.6653 24.1381 12.0228 23.9434 12.381 24.2842L12.6735 23.9897L12.167 23.5924L11.1112 24.6612Z" fill="#FFFF00" stroke="black" stroke-width="0.025"/>
<path d="M11.4947 25.1781L12.6887 23.9756C12.7139 23.9503 12.7595 23.9544 12.7901 23.9848C12.8206 24.0151 12.825 24.0606 12.7998 24.0859L11.6058 25.2884C11.5806 25.3137 11.5351 25.3097 11.5046 25.2794C11.474 25.249 11.4695 25.2034 11.4947 25.1781Z" fill="#FFFF00" stroke="black" stroke-width="0.025"/>
<path d="M11.9263 24.7393C11.6925 24.5047 11.785 24.2787 11.785 24.2787C11.785 24.2787 12.0186 24.1806 12.2528 24.4104L11.9263 24.7393Z" fill="#FFFF00" stroke="black" stroke-width="0.025"/>
<path d="M10.8796 24.5178L12.0244 23.365C12.0485 23.3408 12.0907 23.3433 12.1181 23.3705C12.1456 23.3978 12.1485 23.44 12.1244 23.4643L10.9796 24.617C10.9556 24.6413 10.9135 24.639 10.8859 24.6116C10.8584 24.5843 10.8556 24.542 10.8796 24.5178Z" fill="#FFFF00" stroke="black" stroke-width="0.025"/>
<path d="M11.0066 24.5933L12.1013 23.4908C12.1244 23.4675 12.1657 23.4708 12.1932 23.4981C12.2207 23.5254 12.2243 23.5668 12.2013 23.59L11.1064 24.6925C11.0834 24.7158 11.0421 24.7125 11.0146 24.6851C10.9871 24.6579 10.9836 24.6165 11.0066 24.5933Z" fill="#FFFF00" stroke="black" stroke-width="0.025"/>
<path d="M10.6083 23.4916L10.6949 23.4047L10.7567 23.4661L10.8198 23.4024L10.7565 23.3397L10.8454 23.2508L10.9084 23.3133L10.9717 23.2497L10.9084 23.1868L10.997 23.0977L11.1397 23.2396C11.162 23.2617 11.1587 23.2942 11.1379 23.3152L10.827 23.6282C10.8062 23.6492 10.77 23.6518 10.7495 23.6316L10.6083 23.4916Z" fill="#FFFF00" stroke="black" stroke-width="0.025"/>
<path d="M11.1245 23.3535L11.6018 23.7884L11.2975 24.0926L10.8597 23.6178L11.1245 23.3535Z" fill="#FFFF00" stroke="black" stroke-width="0.025"/>
<path d="M10.9667 23.9362L11.2227 24.1719L10.9322 24.4648L10.6935 24.2114L10.9667 23.9362Z" fill="#FFFF00" stroke="black" stroke-width="0.025"/>
<path d="M11.7148 23.1836L11.9708 23.4193L11.6803 23.7122L11.4416 23.4588L11.7148 23.1836Z" fill="#FFFF00" stroke="black" stroke-width="0.025"/>
<path d="M10.4621 24.0878L10.5468 24.0028L10.6087 24.0643L10.6705 24.0021L10.6072 23.9392L10.6941 23.8523L10.7572 23.9148L10.8191 23.8525L10.7558 23.7896L10.8426 23.7025L10.9852 23.8443C11.0075 23.8665 11.0045 23.8986 10.9843 23.919L10.6801 24.2253C10.6597 24.2458 10.624 24.2483 10.6034 24.2278L10.4621 24.0878Z" fill="#FFFF00" stroke="black" stroke-width="0.025"/>
<path d="M11.2083 23.3352L11.293 23.2502L11.3548 23.3117L11.4167 23.2495L11.3533 23.1866L11.4403 23.0996L11.5033 23.1622L11.5653 23.0998L11.502 23.037L11.5888 22.9498L11.7313 23.0917C11.7537 23.1138 11.7507 23.1458 11.7305 23.1662L11.4263 23.4727C11.4058 23.4932 11.3702 23.4957 11.3496 23.4752L11.2083 23.3352Z" fill="#FFFF00" stroke="black" stroke-width="0.025"/>
<path d="M11.1075 23.659C11.0612 23.6168 11.1243 23.5522 11.1687 23.5975L11.2777 23.7058L11.2167 23.7673L11.1075 23.659Z" fill="black"/>
<path d="M10.8898 24.1947C10.8466 24.1522 10.905 24.0917 10.9481 24.136L11.0323 24.2197L10.9741 24.2783L10.8898 24.1947Z" fill="black"/>
<path d="M11.64 23.4393C11.5968 23.3968 11.6552 23.3364 11.6982 23.3808L11.7825 23.4643L11.7243 23.5229L11.64 23.4393Z" fill="black"/>
<path d="M14.5898 15.4425C14.6033 14.8904 14.9951 14.7597 14.9978 14.7578C15.0008 14.7559 15.4211 14.8985 15.4197 15.4477L14.5898 15.4425Z" fill="#FFFF00"/>
<path d="M14.2517 14.7688L14.1834 15.4033L14.5975 15.4043C14.6015 14.8793 14.9949 14.7921 15.0044 14.794C15.0133 14.7935 15.4033 14.9101 15.4137 15.4043H15.8288L15.7538 14.765L14.2517 14.7688Z" fill="#FFFF00" stroke="black" stroke-width="0.025"/>
<path d="M14.1548 15.4056H15.8493C15.8851 15.4056 15.9143 15.4409 15.9143 15.484C15.9143 15.527 15.8851 15.5621 15.8493 15.5621H14.1548C14.1191 15.5621 14.0898 15.527 14.0898 15.484C14.0898 15.4409 14.1191 15.4056 14.1548 15.4056Z" fill="#FFFF00" stroke="black" stroke-width="0.025"/>
<path d="M14.7714 15.4033C14.7733 15.072 14.9988 14.9785 14.9988 14.9785C14.9988 14.9785 15.2329 15.0751 15.2349 15.4033H14.7714Z" fill="#FFFF00" stroke="black" stroke-width="0.025"/>
<path d="M14.1911 14.5052H15.8156C15.8498 14.5052 15.8779 14.5371 15.8779 14.5757C15.8779 14.6144 15.8498 14.6462 15.8156 14.6462H14.1911C14.1569 14.6462 14.1288 14.6146 14.1288 14.5757C14.1288 14.5371 14.1569 14.5052 14.1911 14.5052Z" fill="#FFFF00" stroke="black" stroke-width="0.025"/>
<path d="M14.2255 14.6472H15.7793C15.812 14.6472 15.8388 14.6788 15.8388 14.7175C15.8388 14.7563 15.812 14.788 15.7793 14.788H14.2255C14.1928 14.788 14.166 14.7563 14.166 14.7175C14.166 14.6788 14.1928 14.6472 14.2255 14.6472Z" fill="#FFFF00" stroke="black" stroke-width="0.025"/>
<path d="M14.7266 13.5877L14.8493 13.5879V13.675H14.9388V13.5859L15.0644 13.5864V13.675H15.1541V13.5859H15.28L15.2798 13.7872C15.2798 13.8188 15.2544 13.8392 15.2249 13.8392H14.7838C14.7541 13.8392 14.7268 13.8154 14.7266 13.7865L14.7266 13.5877Z" fill="#FFFF00" stroke="black" stroke-width="0.025"/>
<path d="M15.1877 13.8571L15.2154 14.5022L14.7852 14.5007L14.8137 13.8555L15.1877 13.8571Z" fill="#FFFF00" stroke="black" stroke-width="0.025"/>
<path d="M14.665 14.1562L14.678 14.5041L14.2656 14.5042L14.2772 14.1562H14.665Z" fill="#FFFF00" stroke="black" stroke-width="0.025"/>
<path d="M15.7236 14.1562L15.7367 14.5041L15.3242 14.5042L15.3358 14.1562H15.7236Z" fill="#FFFF00" stroke="black" stroke-width="0.025"/>
<path d="M14.1995 13.9041L14.3195 13.9043V13.9916H14.4071V13.9023L14.5301 13.9028V13.9917H14.618V13.9023L14.741 13.9026L14.7409 14.1038C14.7409 14.1352 14.716 14.1557 14.6872 14.1557H14.2555C14.2266 14.1557 14.1997 14.1321 14.1996 14.1031L14.1995 13.9041Z" fill="#FFFF00" stroke="black" stroke-width="0.025"/>
<path d="M15.26 13.9041L15.3798 13.9043V13.9917H15.4676V13.9023L15.5906 13.9028V13.9917H15.6785V13.9023L15.8015 13.9026L15.8013 14.1038C15.8013 14.1352 15.7765 14.1557 15.7477 14.1557H15.316C15.2871 14.1557 15.2602 14.1321 15.2601 14.1031L15.26 13.9041Z" fill="#FFFF00" stroke="black" stroke-width="0.025"/>
<path d="M14.959 14.061C14.9563 13.9982 15.0466 13.9976 15.0456 14.061V14.2147H14.959V14.061Z" fill="black"/>
<path d="M14.4277 14.2842C14.4274 14.2237 14.5114 14.2223 14.5103 14.2842V14.4029H14.4277V14.2842Z" fill="black"/>
<path d="M15.4902 14.2842C15.4899 14.2236 15.5739 14.2224 15.5728 14.2842V14.4029H15.4902V14.2842Z" fill="black"/>
<path d="M19.9588 15.4425C19.9453 14.8904 19.5537 14.7597 19.5508 14.7578C19.548 14.7559 19.1277 14.8985 19.1291 15.4477L19.9588 15.4425Z" fill="#FFFF00"/>
<path d="M20.2969 14.7688L20.3651 15.4033L19.951 15.4043C19.947 14.8793 19.5536 14.7921 19.5441 14.794C19.5352 14.7935 19.1452 14.9101 19.1348 15.4043H18.7197L18.7947 14.765L20.2969 14.7688Z" fill="#FFFF00" stroke="black" stroke-width="0.025"/>
<path d="M20.3939 15.4056H18.6993C18.6636 15.4056 18.6344 15.4409 18.6344 15.484C18.6344 15.527 18.6636 15.5621 18.6993 15.5621H20.3939C20.4296 15.5621 20.4588 15.527 20.4588 15.484C20.4588 15.4409 20.4296 15.4056 20.3939 15.4056Z" fill="#FFFF00" stroke="black" stroke-width="0.025"/>
<path d="M19.7773 15.4033C19.7754 15.072 19.5499 14.9785 19.5499 14.9785C19.5499 14.9785 19.3157 15.0751 19.3138 15.4033H19.7773Z" fill="#FFFF00" stroke="black" stroke-width="0.025"/>
<path d="M20.3575 14.5052H18.733C18.6989 14.5052 18.6708 14.5371 18.6708 14.5757C18.6708 14.6144 18.6989 14.6462 18.733 14.6462H20.3575C20.3918 14.6462 20.4199 14.6146 20.4199 14.5757C20.4199 14.5371 20.3918 14.5052 20.3575 14.5052Z" fill="#FFFF00" stroke="black" stroke-width="0.025"/>
<path d="M20.3232 14.6472H18.7695C18.7367 14.6472 18.71 14.6788 18.71 14.7175C18.71 14.7563 18.7367 14.788 18.7695 14.788H20.3232C20.356 14.788 20.3828 14.7563 20.3828 14.7175C20.3828 14.6788 20.356 14.6472 20.3232 14.6472Z" fill="#FFFF00" stroke="black" stroke-width="0.025"/>
<path d="M19.8221 13.5877L19.6994 13.5879V13.675H19.6099V13.5859L19.4843 13.5864V13.675H19.3945V13.5859H19.2687L19.2689 13.7872C19.2689 13.8188 19.2943 13.8392 19.3238 13.8392H19.7649C19.7945 13.8392 19.8219 13.8154 19.822 13.7865L19.8221 13.5877Z" fill="#FFFF00" stroke="black" stroke-width="0.025"/>
<path d="M19.361 13.8571L19.3334 14.5022L19.7637 14.5007L19.7352 13.8555L19.361 13.8571Z" fill="#FFFF00" stroke="black" stroke-width="0.025"/>
<path d="M19.8837 14.1562L19.8706 14.5041L20.2831 14.5042L20.2715 14.1562H19.8837Z" fill="#FFFF00" stroke="black" stroke-width="0.025"/>
<path d="M18.8251 14.1562L18.812 14.5041L19.2245 14.5042L19.2129 14.1562H18.8251Z" fill="#FFFF00" stroke="black" stroke-width="0.025"/>
<path d="M20.3493 13.9041L20.2293 13.9043V13.9916H20.1415V13.9023L20.0185 13.9028V13.9917H19.9306V13.9023L19.8076 13.9026L19.8079 14.1038C19.8079 14.1352 19.8326 14.1557 19.8615 14.1557H20.2931C20.322 14.1557 20.349 14.1321 20.349 14.1031L20.3493 13.9041Z" fill="#FFFF00" stroke="black" stroke-width="0.025"/>
<path d="M19.2888 13.9041L19.1688 13.9043V13.9917H19.0812V13.9023L18.9582 13.9028V13.9917H18.8703V13.9023L18.7473 13.9026L18.7474 14.1038C18.7474 14.1352 18.7723 14.1557 18.801 14.1557H19.2328C19.2617 14.1557 19.2885 14.1321 19.2887 14.1031L19.2888 13.9041Z" fill="#FFFF00" stroke="black" stroke-width="0.025"/>
<path d="M19.5896 14.061C19.5924 13.9982 19.5021 13.9976 19.5031 14.061V14.2147H19.5896V14.061Z" fill="black"/>
<path d="M20.121 14.2842C20.1213 14.2237 20.0373 14.2223 20.0384 14.2842V14.4029H20.121V14.2842Z" fill="black"/>
<path d="M19.0585 14.2842C19.0588 14.2236 18.9748 14.2224 18.9759 14.2842V14.4029H19.0585V14.2842Z" fill="black"/>
<path d="M19.9588 20.0747C19.9453 19.5226 19.5537 19.392 19.5508 19.39C19.548 19.3881 19.1277 19.5307 19.1291 20.0799L19.9588 20.0747Z" fill="#FFFF00"/>
<path d="M20.2969 19.4004L20.3651 20.0349L19.951 20.0357C19.947 19.5109 19.5536 19.4236 19.5441 19.4255C19.5352 19.425 19.1452 19.5416 19.1348 20.0357H18.7197L18.7947 19.3965L20.2969 19.4004Z" fill="#FFFF00" stroke="black" stroke-width="0.025"/>
<path d="M20.3939 20.0377H18.6993C18.6636 20.0377 18.6344 20.0731 18.6344 20.1161C18.6344 20.1591 18.6636 20.1942 18.6993 20.1942H20.3939C20.4296 20.1942 20.4588 20.1591 20.4588 20.1161C20.4588 20.0731 20.4296 20.0377 20.3939 20.0377Z" fill="#FFFF00" stroke="black" stroke-width="0.025"/>
<path d="M19.7773 20.0348C19.7754 19.7035 19.5499 19.61 19.5499 19.61C19.5499 19.61 19.3157 19.7067 19.3138 20.0348H19.7773Z" fill="#FFFF00" stroke="black" stroke-width="0.025"/>
<path d="M20.3575 19.1367H18.733C18.6989 19.1367 18.6708 19.1686 18.6708 19.2072C18.6708 19.2459 18.6989 19.2777 18.733 19.2777H20.3575C20.3918 19.2777 20.4199 19.2461 20.4199 19.2072C20.4199 19.1686 20.3918 19.1367 20.3575 19.1367Z" fill="#FFFF00" stroke="black" stroke-width="0.025"/>
<path d="M20.3232 19.2793H18.7695C18.7367 19.2793 18.71 19.311 18.71 19.3496C18.71 19.3885 18.7367 19.4201 18.7695 19.4201H20.3232C20.356 19.4201 20.3828 19.3885 20.3828 19.3496C20.3828 19.311 20.356 19.2793 20.3232 19.2793Z" fill="#FFFF00" stroke="black" stroke-width="0.025"/>
<path d="M19.8221 18.2198L19.6994 18.22V18.3072H19.6099V18.2181L19.4843 18.2185V18.3072H19.3945V18.2181H19.2687L19.2689 18.4193C19.2689 18.4509 19.2943 18.4713 19.3238 18.4713H19.7649C19.7945 18.4713 19.8219 18.4476 19.822 18.4187L19.8221 18.2198Z" fill="#FFFF00" stroke="black" stroke-width="0.025"/>
<path d="M19.361 18.4887L19.3334 19.1337L19.7637 19.1323L19.7352 18.487L19.361 18.4887Z" fill="#FFFF00" stroke="black" stroke-width="0.025"/>
<path d="M19.8837 18.7877L19.8706 19.1356L20.2831 19.1357L20.2715 18.7877H19.8837Z" fill="#FFFF00" stroke="black" stroke-width="0.025"/>
<path d="M18.8251 18.7877L18.812 19.1356L19.2245 19.1357L19.2129 18.7877H18.8251Z" fill="#FFFF00" stroke="black" stroke-width="0.025"/>
<path d="M20.3493 18.5356L20.2293 18.5358V18.6231H20.1415V18.5338L20.0185 18.5342V18.6231H19.9306V18.5338L19.8076 18.5341L19.8079 18.7352C19.8079 18.7666 19.8326 18.7871 19.8615 18.7871H20.2931C20.322 18.7871 20.349 18.7636 20.349 18.7346L20.3493 18.5356Z" fill="#FFFF00" stroke="black" stroke-width="0.025"/>
<path d="M19.2888 18.5356L19.1688 18.5358V18.6231H19.0812V18.5338L18.9582 18.5342V18.6231H18.8703V18.5339L18.7473 18.5341L18.7474 18.7352C18.7474 18.7666 18.7723 18.7871 18.801 18.7871H19.2328C19.2617 18.7871 19.2885 18.7636 19.2887 18.7346L19.2888 18.5356Z" fill="#FFFF00" stroke="black" stroke-width="0.025"/>
<path d="M19.5896 18.6925C19.5924 18.6298 19.5021 18.6291 19.5031 18.6925V18.8462H19.5896V18.6925Z" fill="black"/>
<path d="M20.121 18.9157C20.1213 18.8552 20.0373 18.8539 20.0384 18.9157V19.0344H20.121V18.9157Z" fill="black"/>
<path d="M19.0585 18.9157C19.0588 18.8551 18.9748 18.8539 18.9759 18.9157V19.0344H19.0585V18.9157Z" fill="black"/>
<path d="M18.1528 24.8962C18.5351 24.4976 18.3518 24.1276 18.3512 24.1243C18.3505 24.121 17.9531 23.9231 17.5645 24.311L18.1528 24.8962Z" fill="#FFFF00"/>
<path d="M18.8691 24.6619L18.4668 25.1573L18.1746 24.8641C18.5442 24.4915 18.329 24.1508 18.3208 24.1454C18.315 24.1387 17.9575 23.9441 17.5993 24.285L17.307 23.9904L17.8133 23.5931L18.8691 24.6619Z" fill="#FFFF00" stroke="black" stroke-width="0.025"/>
<path d="M18.4854 25.1787L17.2913 23.9762C17.2662 23.9509 17.2206 23.955 17.19 23.9854C17.1594 24.0157 17.1551 24.0612 17.1802 24.0865L18.3743 25.289C18.3994 25.3144 18.4449 25.3103 18.4755 25.28C18.5061 25.2495 18.5105 25.204 18.4854 25.1787Z" fill="#FFFF00" stroke="black" stroke-width="0.025"/>
<path d="M18.0539 24.7393C18.2877 24.5046 18.1952 24.2787 18.1952 24.2787C18.1952 24.2787 17.9616 24.1806 17.7274 24.4104L18.0539 24.7393Z" fill="#FFFF00" stroke="black" stroke-width="0.025"/>
<path d="M19.0986 24.5184L17.954 23.3657C17.9298 23.3414 17.8875 23.3439 17.8601 23.3711C17.8326 23.3984 17.8298 23.4407 17.854 23.465L18.9986 24.6177C19.0226 24.642 19.0648 24.6396 19.0925 24.6122C19.1198 24.585 19.1227 24.5427 19.0986 24.5184Z" fill="#FFFF00" stroke="black" stroke-width="0.025"/>
<path d="M18.9756 24.594L17.8808 23.4914C17.8576 23.4682 17.8163 23.4715 17.7889 23.4987C17.7613 23.5261 17.7578 23.5674 17.7808 23.5906L18.8756 24.6932C18.8986 24.7164 18.94 24.7131 18.9676 24.6858C18.995 24.6585 18.9986 24.6172 18.9756 24.594Z" fill="#FFFF00" stroke="black" stroke-width="0.025"/>
<path d="M19.3715 23.4916L19.285 23.4047L19.2231 23.4661L19.1601 23.4026L19.2233 23.3397L19.1344 23.2508L19.0715 23.3133L19.0082 23.2497L19.0714 23.1869L18.9828 23.0977L18.8402 23.2396C18.8178 23.2618 18.8212 23.2942 18.8419 23.3152L19.1528 23.6282C19.1736 23.6492 19.2097 23.6518 19.2303 23.6316L19.3715 23.4916Z" fill="#FFFF00" stroke="black" stroke-width="0.025"/>
<path d="M18.8558 23.3528L18.3784 23.7878L18.6828 24.092L19.1205 23.6172L18.8558 23.3528Z" fill="#FFFF00" stroke="black" stroke-width="0.025"/>
<path d="M19.0133 23.9368L18.7573 24.1726L19.0479 24.4654L19.2865 24.2119L19.0133 23.9368Z" fill="#FFFF00" stroke="black" stroke-width="0.025"/>
<path d="M18.2672 23.1836L18.0112 23.4193L18.3018 23.7122L18.5405 23.4588L18.2672 23.1836Z" fill="#FFFF00" stroke="black" stroke-width="0.025"/>
<path d="M19.5201 24.0885L19.4354 24.0037L19.3735 24.065L19.3116 24.0029L19.375 23.9399L19.2881 23.8529L19.225 23.9156L19.163 23.8533L19.2264 23.7904L19.1395 23.7032L18.9969 23.845C18.9747 23.8673 18.9777 23.8993 18.9979 23.9196L19.3021 24.2259C19.3225 24.2465 19.3581 24.249 19.3788 24.2286L19.5201 24.0885Z" fill="#FFFF00" stroke="black" stroke-width="0.025"/>
<path d="M18.772 23.3352L18.6874 23.2503L18.6254 23.3117L18.5636 23.2496L18.6269 23.1867L18.54 23.0997L18.4769 23.1622L18.415 23.1L18.4784 23.0371L18.3915 22.9498L18.2489 23.0917C18.2266 23.1138 18.2296 23.146 18.2499 23.1663L18.554 23.4727C18.5744 23.4932 18.6101 23.4957 18.6307 23.4753L18.772 23.3352Z" fill="#FFFF00" stroke="black" stroke-width="0.025"/>
<path d="M18.8726 23.6597C18.919 23.6174 18.8558 23.5528 18.8116 23.5983L18.7025 23.7064L18.7636 23.7679L18.8726 23.6597Z" fill="black"/>
<path d="M19.0885 24.1952C19.1316 24.1527 19.0733 24.0923 19.0302 24.1366L18.946 24.2202L19.0042 24.2788L19.0885 24.1952Z" fill="black"/>
<path d="M18.3404 23.44C18.3835 23.3976 18.3253 23.3371 18.2822 23.3814L18.1979 23.465L18.2562 23.5237L18.3404 23.44Z" fill="black"/>
<path d="M14.2637 20.2401C14.2637 20.4613 14.3486 20.6634 14.4848 20.8095C14.6213 20.9563 14.8093 21.0474 15.0151 21.0474C15.2218 21.0474 15.4095 20.9569 15.5453 20.8108C15.6812 20.665 15.7656 20.4635 15.7656 20.2415V19.1646L14.2663 19.1635L14.2637 20.2401Z" fill="#003399"/>
<path d="M14.6076 19.7217C14.6897 19.7217 14.7562 19.6552 14.7562 19.5731C14.7562 19.4911 14.6897 19.4245 14.6076 19.4245C14.5255 19.4245 14.459 19.4911 14.459 19.5731C14.459 19.6552 14.5255 19.7217 14.6076 19.7217Z" fill="white"/>
<path d="M15.4396 19.7223C15.5218 19.7223 15.5883 19.6558 15.5883 19.5738C15.5883 19.4917 15.5218 19.4252 15.4396 19.4252C15.3575 19.4252 15.291 19.4917 15.291 19.5738C15.291 19.6558 15.3575 19.7223 15.4396 19.7223Z" fill="white"/>
<path d="M15.0216 20.1214C15.1037 20.1214 15.1702 20.0549 15.1702 19.9728C15.1702 19.8908 15.1037 19.8242 15.0216 19.8242C14.9396 19.8242 14.873 19.8908 14.873 19.9728C14.873 20.0549 14.9396 20.1214 15.0216 20.1214Z" fill="white"/>
<path d="M14.6076 20.54C14.6897 20.54 14.7562 20.4735 14.7562 20.3914C14.7562 20.3093 14.6897 20.2428 14.6076 20.2428C14.5255 20.2428 14.459 20.3093 14.459 20.3914C14.459 20.4735 14.5255 20.54 14.6076 20.54Z" fill="white"/>
<path d="M15.4376 20.5388C15.5196 20.5388 15.5862 20.4723 15.5862 20.3902C15.5862 20.3082 15.5196 20.2415 15.4376 20.2415C15.3556 20.2415 15.2891 20.3082 15.2891 20.3902C15.2891 20.4723 15.3556 20.5388 15.4376 20.5388Z" fill="white"/>
<path d="M14.2637 17.6391C14.2637 17.8603 14.3486 18.0623 14.4848 18.2086C14.6213 18.3552 14.8093 18.4463 15.0151 18.4463C15.2218 18.4463 15.4095 18.3558 15.5453 18.2098C15.6812 18.0639 15.7656 17.8626 15.7656 17.6405V16.5637L14.2663 16.5625L14.2637 17.6391Z" fill="#003399"/>
<path d="M14.6076 17.1201C14.6897 17.1201 14.7562 17.0536 14.7562 16.9715C14.7562 16.8894 14.6897 16.8229 14.6076 16.8229C14.5255 16.8229 14.459 16.8894 14.459 16.9715C14.459 17.0536 14.5255 17.1201 14.6076 17.1201Z" fill="white"/>
<path d="M15.4396 17.1214C15.5218 17.1214 15.5883 17.0549 15.5883 16.9728C15.5883 16.8908 15.5218 16.8242 15.4396 16.8242C15.3575 16.8242 15.291 16.8908 15.291 16.9728C15.291 17.0549 15.3575 17.1214 15.4396 17.1214Z" fill="white"/>
<path d="M15.0216 17.5198C15.1037 17.5198 15.1702 17.4533 15.1702 17.3712C15.1702 17.2892 15.1037 17.2227 15.0216 17.2227C14.9396 17.2227 14.873 17.2892 14.873 17.3712C14.873 17.4533 14.9396 17.5198 15.0216 17.5198Z" fill="white"/>
<path d="M14.6076 17.9385C14.6897 17.9385 14.7562 17.8719 14.7562 17.7899C14.7562 17.7077 14.6897 17.6412 14.6076 17.6412C14.5255 17.6412 14.459 17.7077 14.459 17.7899C14.459 17.8719 14.5255 17.9385 14.6076 17.9385Z" fill="white"/>
<path d="M15.4376 17.9379C15.5196 17.9379 15.5862 17.8713 15.5862 17.7893C15.5862 17.7071 15.5196 17.6407 15.4376 17.6407C15.3556 17.6407 15.2891 17.7071 15.2891 17.7893C15.2891 17.8713 15.3556 17.9379 15.4376 17.9379Z" fill="white"/>
<path d="M12.1834 20.2401C12.1834 20.4613 12.2683 20.6634 12.4047 20.8095C12.5412 20.9563 12.7292 21.0474 12.9348 21.0474C13.1415 21.0474 13.3292 20.9569 13.4652 20.8108C13.6009 20.665 13.6853 20.4635 13.6853 20.2415V19.1646L12.1862 19.1635L12.1834 20.2401Z" fill="#003399"/>
<path d="M12.5274 19.7217C12.6095 19.7217 12.676 19.6552 12.676 19.5731C12.676 19.4911 12.6095 19.4245 12.5274 19.4245C12.4453 19.4245 12.3788 19.4911 12.3788 19.5731C12.3788 19.6552 12.4453 19.7217 12.5274 19.7217Z" fill="white"/>
<path d="M13.3593 19.7223C13.4415 19.7223 13.508 19.6558 13.508 19.5738C13.508 19.4917 13.4415 19.4252 13.3593 19.4252C13.2773 19.4252 13.2108 19.4917 13.2108 19.5738C13.2108 19.6558 13.2773 19.7223 13.3593 19.7223Z" fill="white"/>
<path d="M12.9414 20.1214C13.0235 20.1214 13.09 20.0549 13.09 19.9728C13.09 19.8908 13.0235 19.8242 12.9414 19.8242C12.8594 19.8242 12.7928 19.8908 12.7928 19.9728C12.7928 20.0549 12.8594 20.1214 12.9414 20.1214Z" fill="white"/>
<path d="M12.5274 20.54C12.6095 20.54 12.676 20.4735 12.676 20.3914C12.676 20.3093 12.6095 20.2428 12.5274 20.2428C12.4453 20.2428 12.3788 20.3093 12.3788 20.3914C12.3788 20.4735 12.4453 20.54 12.5274 20.54Z" fill="white"/>
<path d="M13.3574 20.5388C13.4394 20.5388 13.506 20.4723 13.506 20.3902C13.506 20.3082 13.4394 20.2415 13.3574 20.2415C13.2754 20.2415 13.2089 20.3082 13.2089 20.3902C13.2089 20.4723 13.2754 20.5388 13.3574 20.5388Z" fill="white"/>
<path d="M16.3379 20.2407C16.3379 20.462 16.4227 20.664 16.5591 20.8101C16.6956 20.9568 16.8836 21.048 17.0892 21.048C17.296 21.048 17.4836 20.9575 17.6195 20.8113C17.7554 20.6656 17.8397 20.4641 17.8397 20.2421V19.1652L16.3406 19.1641L16.3379 20.2407Z" fill="#003399"/>
<path d="M16.6816 19.7217C16.7637 19.7217 16.8302 19.6551 16.8302 19.5731C16.8302 19.491 16.7637 19.4245 16.6816 19.4245C16.5996 19.4245 16.533 19.491 16.533 19.5731C16.533 19.6551 16.5996 19.7217 16.6816 19.7217Z" fill="white"/>
<path d="M17.5137 19.723C17.5958 19.723 17.6623 19.6565 17.6623 19.5744C17.6623 19.4923 17.5958 19.4258 17.5137 19.4258C17.4316 19.4258 17.3651 19.4923 17.3651 19.5744C17.3651 19.6565 17.4316 19.723 17.5137 19.723Z" fill="white"/>
<path d="M17.0958 20.1214C17.178 20.1214 17.2445 20.0548 17.2445 19.9728C17.2445 19.8907 17.178 19.8242 17.0958 19.8242C17.0138 19.8242 16.9473 19.8907 16.9473 19.9728C16.9473 20.0548 17.0138 20.1214 17.0958 20.1214Z" fill="white"/>
<path d="M16.6816 20.54C16.7637 20.54 16.8302 20.4735 16.8302 20.3914C16.8302 20.3094 16.7637 20.2428 16.6816 20.2428C16.5996 20.2428 16.533 20.3094 16.533 20.3914C16.533 20.4735 16.5996 20.54 16.6816 20.54Z" fill="white"/>
<path d="M17.5119 20.5394C17.594 20.5394 17.6605 20.4729 17.6605 20.3908C17.6605 20.3088 17.594 20.2422 17.5119 20.2422C17.4298 20.2422 17.3633 20.3088 17.3633 20.3908C17.3633 20.4729 17.4298 20.5394 17.5119 20.5394Z" fill="white"/>
<path d="M14.2637 22.8189C14.2637 23.0401 14.3486 23.2421 14.4848 23.3883C14.6213 23.535 14.8093 23.6261 15.0151 23.6261C15.2218 23.6261 15.4095 23.5356 15.5453 23.3895C15.6812 23.2437 15.7656 23.0423 15.7656 22.8202V21.7434L14.2663 21.7422L14.2637 22.8189Z" fill="#003399"/>
<path d="M14.6076 22.3004C14.6897 22.3004 14.7562 22.2339 14.7562 22.1518C14.7562 22.0698 14.6897 22.0032 14.6076 22.0032C14.5255 22.0032 14.459 22.0698 14.459 22.1518C14.459 22.2339 14.5255 22.3004 14.6076 22.3004Z" fill="white"/>
<path d="M15.4396 22.3011C15.5218 22.3011 15.5883 22.2345 15.5883 22.1525C15.5883 22.0704 15.5218 22.0039 15.4396 22.0039C15.3575 22.0039 15.291 22.0704 15.291 22.1525C15.291 22.2345 15.3575 22.3011 15.4396 22.3011Z" fill="white"/>
<path d="M15.0216 22.7002C15.1037 22.7002 15.1702 22.6337 15.1702 22.5516C15.1702 22.4696 15.1037 22.403 15.0216 22.403C14.9396 22.403 14.873 22.4696 14.873 22.5516C14.873 22.6337 14.9396 22.7002 15.0216 22.7002Z" fill="white"/>
<path d="M14.6076 23.1188C14.6897 23.1188 14.7562 23.0523 14.7562 22.9703C14.7562 22.8881 14.6897 22.8216 14.6076 22.8216C14.5255 22.8216 14.459 22.8881 14.459 22.9703C14.459 23.0523 14.5255 23.1188 14.6076 23.1188Z" fill="white"/>
<path d="M15.4376 23.1175C15.5196 23.1175 15.5862 23.051 15.5862 22.9689C15.5862 22.8869 15.5196 22.8203 15.4376 22.8203C15.3556 22.8203 15.2891 22.8869 15.2891 22.9689C15.2891 23.051 15.3556 23.1175 15.4376 23.1175Z" fill="white"/>
</g>
</g>
</g>
<defs>
<clipPath id="clip0_16699_275143">
<rect width="40" height="40" fill="white"/>
</clipPath>
</defs>
</svg>
