<svg width="40" height="40" viewBox="0 0 40 40" fill="none" xmlns="http://www.w3.org/2000/svg">
<g clip-path="url(#clip0_16699_275329)">
<mask id="mask0_16699_275329" style="mask-type:luminance" maskUnits="userSpaceOnUse" x="0" y="0" width="40" height="40">
<path d="M40 0H0V40H40V0Z" fill="white"/>
</mask>
<g mask="url(#mask0_16699_275329)">
<mask id="mask1_16699_275329" style="mask-type:luminance" maskUnits="userSpaceOnUse" x="0" y="0" width="40" height="40">
<path d="M40 20C40 8.95433 31.0457 0 20 0C8.95433 0 0 8.95433 0 20C0 31.0457 8.95433 40 20 40C31.0457 40 40 31.0457 40 20Z" fill="white"/>
</mask>
<g mask="url(#mask1_16699_275329)">
<path d="M-10 0H50.0032V40H-10V0Z" fill="#0038A8"/>
<path d="M-10 0H50.0032V26.6667H-10V0Z" fill="white"/>
<path d="M-10 0H50.0032V13.3333H-10V0Z" fill="#D52B1E"/>
<path d="M25.0248 19.902C25.0248 22.7031 22.7557 24.9734 19.9547 24.9734C17.1551 24.9734 14.8848 22.7031 14.8848 19.902C14.8848 17.1021 17.1552 14.8333 19.9547 14.8333C22.7557 14.8333 25.0248 17.1021 25.0248 19.902Z" fill="white" stroke="black" stroke-width="0.111727" stroke-miterlimit="10"/>
<path d="M22.4052 19.1167C22.2821 19.1119 22.2812 19.2475 22.2812 19.2475C22.2812 19.2475 22.2856 19.2074 22.2821 19.253C22.2797 19.298 22.3022 19.4078 22.3932 19.4168C22.4891 19.4252 22.5209 19.3131 22.5217 19.2587C22.5217 19.2371 22.5147 19.1194 22.4052 19.1167Z" fill="#009B3A"/>
<path d="M22.4052 19.1167C22.2821 19.1119 22.2812 19.2475 22.2812 19.2475C22.2812 19.2475 22.2856 19.2074 22.2821 19.253C22.2797 19.298 22.3022 19.4078 22.3932 19.4168C22.4891 19.4252 22.5209 19.3131 22.5217 19.2587C22.5217 19.2371 22.5147 19.1194 22.4052 19.1167Z" stroke="black" stroke-width="0.0298485"/>
<path d="M16.7732 21.9317L16.7298 21.8597C16.7254 21.8517 16.7142 21.8386 16.6959 21.8188C16.6874 21.8092 16.6753 21.8032 16.6624 21.8023C16.6487 21.8003 16.6347 21.8032 16.6229 21.8102C16.606 21.8206 16.595 21.8343 16.5932 21.8512C16.5899 21.8683 16.5979 21.892 16.617 21.9237L16.6609 21.9986L16.7732 21.9317ZM17.2023 21.907L16.6508 22.235L16.4824 21.9521C16.4512 21.8989 16.4323 21.8567 16.4249 21.8235C16.4162 21.7896 16.4203 21.7577 16.4343 21.7262C16.4482 21.6943 16.4737 21.6677 16.5089 21.6467C16.536 21.6302 16.5668 21.6206 16.5987 21.6189C16.6295 21.6189 16.6577 21.6266 16.685 21.6411C16.7018 21.6507 16.7215 21.6658 16.7429 21.6877C16.7378 21.6641 16.7349 21.6455 16.736 21.6311C16.7378 21.6225 16.7417 21.6083 16.7494 21.5867C16.7569 21.5662 16.7639 21.5517 16.7684 21.5426L16.8798 21.3652L16.9935 21.5578L16.8798 21.7492C16.8657 21.7733 16.8569 21.792 16.8558 21.805C16.8552 21.8228 16.859 21.8386 16.8677 21.8538L16.877 21.8694L17.1005 21.7366L17.2023 21.907ZM16.2314 21.4578L16.063 20.9547L16.1929 20.9111L16.2983 21.2265L16.3957 21.1937L16.2965 20.9011L16.4212 20.8603L16.5192 21.1517L16.6387 21.1131L16.5308 20.7885L16.6687 20.7416L16.8397 21.2542L16.2314 21.4578ZM16.2493 20.4337L16.2427 20.3866C16.2382 20.3472 16.2287 20.322 16.2142 20.3087C16.2068 20.3022 16.1982 20.2972 16.1888 20.2942C16.1794 20.2913 16.1695 20.2905 16.1598 20.2917C16.1402 20.2948 16.1242 20.3032 16.1119 20.3168C16.0992 20.3322 16.0949 20.3577 16.1003 20.3944L16.1057 20.4511L16.2493 20.4337ZM15.9999 20.6633L15.9617 20.3365C15.9539 20.2662 15.9642 20.2102 15.9934 20.1707C16.0237 20.1316 16.0702 20.108 16.1324 20.1008C16.1967 20.0928 16.2497 20.1067 16.2902 20.1407C16.3299 20.1752 16.3555 20.2327 16.365 20.3117L16.3772 20.4192L16.6132 20.3917L16.6364 20.5897L15.9999 20.6633ZM15.9777 19.4125L15.9982 19.2155L16.3789 19.2565C16.4148 19.2605 16.4498 19.2703 16.4825 19.2857C16.515 19.3002 16.5433 19.3224 16.565 19.3507C16.587 19.3791 16.6025 19.4062 16.6097 19.4353C16.6193 19.474 16.6222 19.5212 16.6158 19.5753C16.6123 19.6092 16.6063 19.6427 16.598 19.6757C16.59 19.7117 16.5777 19.7417 16.5622 19.7647C16.5457 19.7892 16.5247 19.8103 16.5003 19.8271C16.4769 19.8437 16.4503 19.855 16.4222 19.8605C16.38 19.8691 16.3438 19.8707 16.3124 19.8672L15.9334 19.8272L15.9538 19.6299L16.3427 19.6721C16.3777 19.6757 16.4057 19.6692 16.4272 19.6513C16.449 19.6339 16.4612 19.6087 16.4653 19.5753C16.4689 19.5402 16.4617 19.5132 16.4447 19.4922C16.4279 19.4707 16.4017 19.4587 16.3664 19.4546L15.9777 19.4125ZM16.6154 18.8734L16.6497 18.7786C16.6599 18.7464 16.6629 18.7217 16.6558 18.7037C16.6524 18.6952 16.6472 18.6877 16.6404 18.6817C16.6337 18.6756 16.6257 18.6712 16.6169 18.6687C16.5978 18.6621 16.5822 18.6633 16.5667 18.6727C16.5507 18.6825 16.537 18.7031 16.526 18.7352L16.4922 18.8307L16.6154 18.8734ZM16.3777 18.7901L16.4064 18.7096C16.4162 18.6801 16.4188 18.6577 16.4117 18.6427C16.4064 18.6282 16.3938 18.6167 16.3747 18.6112C16.3672 18.6081 16.359 18.6066 16.3509 18.607C16.3428 18.6072 16.3348 18.6094 16.3277 18.6132C16.3137 18.6214 16.3022 18.6391 16.2927 18.6674L16.2627 18.7502L16.3777 18.7901ZM16.0749 18.8964L16.1967 18.5455C16.2178 18.4871 16.2478 18.4481 16.2882 18.4261C16.3069 18.4159 16.3277 18.4098 16.349 18.4083C16.3703 18.4067 16.3917 18.4097 16.4118 18.4168C16.4467 18.4307 16.4734 18.452 16.4919 18.4832C16.5028 18.5037 16.5097 18.531 16.5097 18.5625C16.5349 18.5225 16.564 18.4971 16.5964 18.4861C16.6293 18.4743 16.6653 18.475 16.7042 18.4886C16.7347 18.4991 16.7603 18.5164 16.7807 18.5394C16.7998 18.5637 16.8127 18.5902 16.8189 18.6202C16.8218 18.6397 16.8203 18.6657 16.8135 18.6977C16.8034 18.7428 16.7975 18.7714 16.7924 18.7847L16.6795 19.1077L16.0749 18.8964ZM16.4017 18.0749L16.5053 17.9057L16.9182 18.156L17.0788 17.892L17.2133 17.9742L16.9514 18.4072L16.4017 18.0749ZM16.825 17.4442L16.9525 17.2924L17.4417 17.7059L17.3139 17.8577L16.825 17.4442ZM17.7133 17.0997L17.88 17.0284C17.9014 17.0732 17.9137 17.116 17.9153 17.1577C17.9169 17.198 17.9088 17.2378 17.8917 17.2742C17.8727 17.3111 17.8414 17.3467 17.7987 17.3842C17.7443 17.4284 17.6944 17.4572 17.6472 17.4699C17.6005 17.4821 17.5483 17.4791 17.4902 17.4607C17.4339 17.4422 17.3805 17.4018 17.3289 17.3413C17.2617 17.2592 17.2308 17.1787 17.2377 17.0997C17.2442 17.0192 17.2875 16.9471 17.3665 16.8804C17.4292 16.8286 17.4874 16.8015 17.5447 16.7971C17.6007 16.7917 17.6599 16.8086 17.7197 16.846L17.6102 16.9879C17.5934 16.9771 17.5795 16.9697 17.5677 16.9673C17.5503 16.9622 17.5319 16.9619 17.5144 16.9667C17.4965 16.9707 17.4797 16.9791 17.4657 16.9909C17.4309 17.0201 17.4158 17.0561 17.4209 17.0991C17.4238 17.1312 17.4443 17.1687 17.4799 17.2132C17.526 17.2677 17.5658 17.2982 17.5985 17.3046C17.6329 17.3117 17.6647 17.3019 17.6944 17.2772C17.7232 17.2524 17.7389 17.2265 17.7395 17.1982C17.7404 17.1681 17.7324 17.1353 17.7133 17.0997ZM18.3618 16.7146L18.1944 16.5412L18.2367 16.7791L18.3618 16.7146ZM18.4617 16.8197L18.2609 16.9217L18.2814 17.0306L18.1012 17.1222L18.0247 16.4416L18.2175 16.3431L18.7233 16.8051L18.5389 16.8993L18.4617 16.8197ZM19.2412 16.1516L19.2905 16.4977L19.3387 16.4906C19.3799 16.4855 19.4087 16.4763 19.425 16.4648C19.4408 16.4522 19.4515 16.436 19.458 16.4106C19.4652 16.3871 19.4652 16.3502 19.4578 16.2988C19.4483 16.232 19.4304 16.1872 19.4055 16.166C19.38 16.1447 19.3417 16.1371 19.2907 16.1447L19.2412 16.1516ZM19.0257 16.0357L19.3167 15.9937C19.374 15.9862 19.4207 15.9867 19.458 15.9973C19.4967 16.0082 19.5284 16.026 19.5563 16.052C19.5834 16.0777 19.605 16.1093 19.6205 16.1462C19.6372 16.1848 19.6483 16.2256 19.6537 16.2673C19.6642 16.3346 19.6642 16.3887 19.6532 16.4273C19.644 16.4652 19.6267 16.5007 19.6027 16.5313C19.5783 16.5601 19.5512 16.5816 19.5212 16.5937C19.4847 16.6105 19.446 16.6222 19.4063 16.6287L19.1147 16.6697L19.0257 16.0357ZM19.8978 15.9115L20.4267 15.9507L20.4169 16.0871L20.0858 16.0623L20.0782 16.1641L20.3852 16.1867L20.3742 16.3167L20.0687 16.2948L20.0597 16.42L20.4003 16.4452L20.3897 16.5897L19.8507 16.5498L19.8978 15.9115ZM20.7127 15.9862L20.9032 16.0393L20.7715 16.5051L21.0689 16.5891L21.0255 16.7399L20.5375 16.6017L20.7127 15.9862ZM21.7939 16.6972L21.8349 16.7237C21.8664 16.7447 21.8932 16.7536 21.9125 16.7514C21.9222 16.7507 21.9315 16.7477 21.9398 16.7426C21.948 16.7374 21.9549 16.7303 21.9598 16.722C21.9704 16.7057 21.9743 16.6876 21.9719 16.6677C21.968 16.6489 21.9505 16.6297 21.9197 16.6094L21.8723 16.5776L21.7939 16.6972ZM21.7782 16.3597L22.0537 16.5413C22.1132 16.5806 22.1483 16.6247 22.159 16.6725C22.1707 16.7208 22.159 16.7716 22.1237 16.8241C22.0892 16.8773 22.0447 16.9087 21.9918 16.9177C21.9383 16.9262 21.8798 16.9097 21.813 16.8658L21.7224 16.8057L21.5923 17.0041L21.4263 16.8942L21.7782 16.3597ZM22.4735 17.3368L22.5852 17.1232L22.3732 17.2378L22.4735 17.3368ZM22.4058 17.4642L22.245 17.3062L22.1483 17.3593L22.0043 17.2177L22.3003 17.0811L22.6264 16.9303L22.7797 17.0819L22.5012 17.7082L22.3538 17.5621L22.4058 17.4642ZM23.001 17.7422L23.0462 17.8134C23.0515 17.8207 23.0613 17.8345 23.0815 17.8532C23.0907 17.8623 23.103 17.8677 23.116 17.8683C23.1294 17.87 23.1429 17.8666 23.1539 17.8588C23.1709 17.848 23.1804 17.8345 23.1834 17.8171C23.1857 17.8006 23.1769 17.7757 23.1569 17.7457L23.1112 17.6727L23.001 17.7422ZM22.5725 17.7802L23.1127 17.4353L23.29 17.7132C23.3229 17.7646 23.3438 17.8067 23.3538 17.8395C23.3615 17.872 23.3587 17.9061 23.3455 17.9367C23.3324 17.9692 23.3084 17.996 23.2747 18.0182C23.2439 18.0376 23.2147 18.0485 23.1842 18.0485C23.1555 18.0502 23.1262 18.0428 23.0972 18.0307C23.0762 18.0177 23.0565 18.0024 23.0387 17.9851C23.0444 18.0087 23.0479 18.0277 23.0473 18.0411C23.0445 18.0561 23.0407 18.0708 23.036 18.0853C23.0312 18.1011 23.0247 18.1162 23.0167 18.1307L22.9122 18.3117L22.791 18.1227L22.8998 17.9287C22.9143 17.9028 22.9214 17.8842 22.9214 17.8713C22.922 17.8538 22.9193 17.8373 22.9078 17.8226L22.8992 17.808L22.6794 17.948L22.5725 17.7802ZM23.3298 18.6432L23.5219 18.4982L23.2818 18.5114L23.3298 18.6432ZM23.2132 18.7291L23.1362 18.5171L23.0269 18.5247L22.9572 18.3346L23.6419 18.3426L23.7159 18.5447L23.1959 18.9904L23.1247 18.7947L23.2132 18.7291ZM23.5199 19.4106L23.6518 19.3932L23.6899 19.6987L23.4189 19.7313C23.3732 19.6782 23.3382 19.6307 23.3194 19.5874C23.2987 19.5444 23.2852 19.4922 23.2777 19.4312C23.2678 19.3557 23.2727 19.2927 23.2938 19.242C23.3129 19.1913 23.3467 19.1492 23.3942 19.1157C23.4422 19.0842 23.4985 19.0633 23.5642 19.0555C23.6333 19.0463 23.6959 19.0533 23.7507 19.0761C23.8053 19.0978 23.8492 19.1347 23.8834 19.1866C23.9098 19.2277 23.9273 19.2839 23.9357 19.3571C23.9454 19.4268 23.9454 19.4802 23.9362 19.5165C23.9293 19.552 23.9125 19.5847 23.8878 19.6111C23.8619 19.6394 23.8297 19.6615 23.7937 19.6753L23.7362 19.4904C23.759 19.4791 23.7758 19.4643 23.7859 19.4433C23.7964 19.4233 23.799 19.398 23.7964 19.3702C23.7892 19.3266 23.7714 19.2942 23.7388 19.2724C23.7052 19.2506 23.6558 19.2437 23.5912 19.2517C23.5222 19.2602 23.4757 19.2801 23.4487 19.3087C23.4232 19.3387 23.4137 19.3772 23.4183 19.4233C23.4207 19.4452 23.4272 19.4655 23.4355 19.4843C23.4447 19.5043 23.4582 19.5247 23.4765 19.5501L23.5369 19.5417L23.5199 19.4106ZM23.9257 20.3716L23.903 20.5677L23.5242 20.5251C23.4878 20.5212 23.4524 20.5111 23.4195 20.4952C23.3877 20.4802 23.3597 20.4578 23.3377 20.4302C23.3159 20.4026 23.301 20.3744 23.2939 20.3462C23.2847 20.3052 23.2823 20.2592 23.2885 20.2052C23.2927 20.1746 23.2987 20.1407 23.3062 20.1045C23.3147 20.0682 23.3275 20.0387 23.3435 20.0157C23.3602 19.9917 23.3809 19.9709 23.4047 19.9541C23.4327 19.9367 23.4582 19.9257 23.4837 19.9213C23.5253 19.9135 23.5624 19.9108 23.5937 19.9156L23.9732 19.9588L23.9507 20.1546L23.5624 20.11C23.527 20.1062 23.4992 20.1124 23.4772 20.1297C23.4558 20.1474 23.4429 20.1722 23.4395 20.2062C23.4357 20.2408 23.4422 20.2683 23.4593 20.2892C23.476 20.3104 23.5022 20.3232 23.5369 20.3284L23.9257 20.3716ZM23.3358 21.1008L23.5772 21.1094L23.3823 20.9673L23.3358 21.1008ZM23.1927 21.0937L23.2657 20.8811L23.1762 20.8171L23.2427 20.6257L23.7697 21.0636L23.6972 21.2683L23.0144 21.2852L23.0815 21.0888L23.1927 21.0937ZM23.5463 21.6836L23.4349 21.8731L23.1825 21.874L23.3033 22.0957L23.1927 22.2828L22.9978 21.8792L22.7667 21.7431L22.8682 21.5717L23.099 21.7088L23.5463 21.6836Z" fill="black"/>
<path d="M24.1971 19.9039C24.1971 22.2487 22.297 24.149 19.9534 24.149C17.6089 24.149 15.7089 22.2486 15.7089 19.9039C15.7089 17.5608 17.6089 15.6608 19.9533 15.6608C22.297 15.6608 24.1971 17.5609 24.1971 19.9039Z" stroke="black" stroke-width="0.0446969" stroke-miterlimit="10"/>
<path d="M23.1116 19.8888C23.1116 21.6341 21.6981 23.0478 19.9536 23.0478C18.209 23.0478 16.7949 21.6341 16.7949 19.8888C16.7949 18.1451 18.209 16.7311 19.9535 16.7311C21.6981 16.7311 23.1116 18.1451 23.1116 19.8888Z" stroke="black" stroke-width="0.0446969" stroke-miterlimit="10"/>
<path d="M19.9532 18.7526L20.2186 19.512L21.0212 19.5299L20.3816 20.0163L20.6141 20.7859L19.9532 20.3284L19.2922 20.7859L19.5236 20.0163L18.883 19.5299L19.6872 19.512L19.9532 18.7526Z" fill="#FEDF00" stroke="black" stroke-width="0.0182424"/>
<path d="M21.4117 22.0688C21.385 22.0912 21.2772 22.1033 21.2487 22.1079C21.2198 22.1118 21.1067 22.1129 21.0588 22.1147C21.0325 22.1164 20.9817 22.1239 20.9552 22.1239C20.7232 22.0974 21.3321 22.1012 21.4117 22.0688ZM20.8038 21.8893C20.819 21.8622 20.8951 21.6929 20.9223 21.6449C20.9502 21.5977 21.0132 21.4718 21.0508 21.4194C21.0702 21.3911 21.146 21.3089 21.1641 21.3457C21.0321 21.4596 20.9282 21.6586 20.8728 21.7923C20.8657 21.8068 20.8223 21.8813 20.8063 21.9008C20.7908 21.9199 20.7972 21.9559 20.773 21.9589C20.7472 21.9622 20.7652 21.9668 20.7652 21.9668C20.7652 21.9668 20.7871 21.9179 20.8038 21.8893ZM21.6785 22.0187C21.6785 22.0187 21.5736 22.0029 21.5086 21.9799C21.4438 21.9582 21.3351 21.9414 21.2425 21.9438C21.1506 21.9449 21.0666 21.9727 20.9918 22.0013C20.9172 22.0289 20.8207 22.0313 20.8207 22.0313C20.8207 22.0313 20.7661 22.0399 20.7916 22.0273C20.816 22.0151 20.9006 21.9491 20.9006 21.9491L20.9552 21.8742C20.9711 21.8699 21.2483 21.5059 21.2181 21.4082C21.2606 21.3363 21.3105 21.2079 21.2917 21.1857C21.2828 21.1766 21.0758 21.2514 21.0305 21.2926C20.9778 21.3379 20.9407 21.4327 20.925 21.4873C20.9096 21.5414 20.83 21.5862 20.83 21.5862C20.7652 21.6328 20.7183 21.7802 20.6963 21.9008C20.6741 22.0198 20.3806 22.0858 20.3806 22.0858C20.3806 22.0858 20.2992 22.1162 20.3716 22.1391C20.384 22.1426 20.4161 22.1971 20.4421 22.1979C20.478 22.2022 20.6601 22.1242 20.6883 22.1303C20.7501 22.1444 20.8115 22.1611 20.8718 22.1804C20.9413 22.2041 20.9986 22.2162 21.0472 22.1982C21.0966 22.1804 21.1671 22.1873 21.2198 22.1976C21.2718 22.2088 21.3301 22.2041 21.3636 22.1937C21.3996 22.1828 21.4941 22.1303 21.4941 22.1303C21.4941 22.1303 21.5961 22.0861 21.6552 22.0584C21.7143 22.0308 21.6785 22.0187 21.6785 22.0187Z" fill="#009B3A"/>
<path d="M21.4117 22.0688C21.385 22.0912 21.2772 22.1033 21.2487 22.1079C21.2198 22.1118 21.1067 22.1129 21.0588 22.1147C21.0325 22.1164 20.9817 22.1239 20.9552 22.1239C20.7232 22.0974 21.3321 22.1012 21.4117 22.0688ZM21.6785 22.0187C21.6785 22.0187 21.5736 22.0029 21.5086 21.9799C21.4438 21.9582 21.3351 21.9414 21.2425 21.9438C21.1506 21.9449 21.0666 21.9727 20.9918 22.0013C20.9172 22.0289 20.8207 22.0313 20.8207 22.0313C20.8207 22.0313 20.7661 22.0399 20.7916 22.0273C20.816 22.0151 20.9006 21.9491 20.9006 21.9491L20.9552 21.8742C20.9711 21.8699 21.2483 21.5059 21.2181 21.4082C21.2606 21.3363 21.3105 21.2079 21.2917 21.1857C21.2828 21.1766 21.0758 21.2514 21.0305 21.2926C20.9778 21.3379 20.9407 21.4327 20.925 21.4873C20.9096 21.5414 20.83 21.5862 20.83 21.5862C20.7652 21.6328 20.7183 21.7802 20.6963 21.9008C20.6741 22.0198 20.3806 22.0858 20.3806 22.0858C20.3806 22.0858 20.2992 22.1162 20.3716 22.1391C20.384 22.1426 20.4161 22.1971 20.4421 22.1979C20.478 22.2022 20.6601 22.1242 20.6883 22.1303C20.7501 22.1444 20.8115 22.1611 20.8718 22.1804C20.9413 22.2041 20.9986 22.2162 21.0472 22.1982C21.0966 22.1804 21.1671 22.1873 21.2198 22.1976C21.2718 22.2088 21.3301 22.2041 21.3636 22.1937C21.3996 22.1828 21.4941 22.1303 21.4941 22.1303C21.4941 22.1303 21.5961 22.0861 21.6552 22.0584C21.7143 22.0308 21.6785 22.0187 21.6785 22.0187ZM20.8038 21.8893C20.819 21.8622 20.8951 21.6929 20.9223 21.6449C20.9502 21.5977 21.0132 21.4718 21.0508 21.4194C21.0702 21.3911 21.146 21.3089 21.1641 21.3457C21.0321 21.4596 20.9282 21.6586 20.8728 21.7923C20.8657 21.8068 20.8223 21.8813 20.8063 21.9008C20.7908 21.9199 20.7972 21.9559 20.773 21.9589C20.7472 21.9622 20.7652 21.9668 20.7652 21.9668C20.7652 21.9668 20.7871 21.9179 20.8038 21.8893Z" stroke="black" stroke-width="0.0228485"/>
<path d="M20.8816 22.3729C20.8816 22.3729 20.4778 22.1615 20.456 22.1565C20.4433 22.1547 20.2728 22.0608 20.1948 22.0365C20.1383 22.0183 20.0605 22.0135 20.0325 22.0153C19.966 22.02 19.8574 22.0493 19.8574 22.0493L19.9578 22.0903C19.9578 22.0903 20.052 22.1367 20.098 22.1614C20.1639 22.1962 20.1669 22.2385 20.1669 22.2385L20.5326 22.3994L20.6068 22.4527C20.6068 22.4527 20.6743 22.3597 20.8816 22.3729Z" fill="#009B3A" stroke="black" stroke-width="0.0182424"/>
<path d="M21.2877 21.5341C21.4147 21.4207 21.4768 21.2596 21.5814 21.1704C21.5983 21.1826 21.5983 21.2027 21.5776 21.2385C21.5579 21.2736 21.5316 21.2857 21.52 21.3041C21.4987 21.3327 21.4351 21.3855 21.4179 21.4172C21.4026 21.4472 21.3828 21.4894 21.3274 21.5214C21.2722 21.5544 21.2896 21.6067 21.2849 21.6287C21.2805 21.653 21.1956 21.7139 21.1545 21.7891C21.1467 21.8675 21.1432 21.8346 21.0956 21.8625C21.1822 21.732 21.2277 21.648 21.2877 21.5341ZM21.0022 21.8926C20.994 21.9097 20.7434 22.052 20.8218 22.0309C20.8997 22.0104 21.1312 21.9269 21.197 21.8976C21.2774 21.8625 21.3256 21.7887 21.386 21.7289C21.4477 21.6677 21.6383 21.4855 21.6713 21.4152C21.7036 21.3429 21.7329 21.2422 21.6036 21.0162C21.6036 21.0162 21.5836 21.0595 21.5354 21.1017C21.4877 21.145 21.4167 21.1927 21.4167 21.1927L21.3338 21.2712C21.3338 21.2712 21.041 21.8089 21.0022 21.8926Z" fill="#009B3A"/>
<path d="M21.2877 21.5341C21.4147 21.4207 21.4768 21.2596 21.5814 21.1704C21.5983 21.1826 21.5983 21.2027 21.5776 21.2385C21.5579 21.2736 21.5316 21.2857 21.52 21.3041C21.4987 21.3327 21.4351 21.3855 21.4179 21.4172C21.4026 21.4472 21.3828 21.4894 21.3274 21.5214C21.2722 21.5544 21.2896 21.6067 21.2849 21.6287C21.2805 21.653 21.1956 21.7139 21.1545 21.7891C21.1467 21.8675 21.1432 21.8346 21.0956 21.8625C21.1822 21.732 21.2277 21.648 21.2877 21.5341ZM21.0022 21.8926C20.994 21.9097 20.7434 22.052 20.8218 22.0309C20.8997 22.0104 21.1312 21.9269 21.197 21.8976C21.2774 21.8625 21.3256 21.7887 21.386 21.7289C21.4477 21.6677 21.6383 21.4855 21.6713 21.4152C21.7036 21.3429 21.7329 21.2422 21.6036 21.0162C21.6036 21.0162 21.5836 21.0595 21.5354 21.1017C21.4877 21.145 21.4167 21.1927 21.4167 21.1927L21.3338 21.2712C21.3338 21.2712 21.041 21.8089 21.0022 21.8926Z" stroke="black" stroke-width="0.0240606"/>
<path d="M22.0193 21.7037C22.0193 21.7037 21.8589 21.6894 21.845 21.6894C21.8298 21.6894 21.7419 21.6772 21.6142 21.6772C21.4876 21.6772 21.4401 21.7211 21.4069 21.7564C21.371 21.796 21.2711 21.8874 21.2711 21.8874L21.325 21.8826C21.4532 21.7827 21.553 21.8194 21.5928 21.8164C21.6344 21.815 21.6844 21.8191 21.8128 21.7737C21.9431 21.728 21.9355 21.7707 21.9212 21.7751C21.859 21.7975 21.7938 21.8107 21.7277 21.8141C21.631 21.8195 21.5461 21.8382 21.5081 21.8382C21.4698 21.8382 21.1875 21.9155 21.1875 21.9155C21.1875 21.9155 21.493 21.9334 21.5259 21.9443C21.5587 21.9576 21.61 21.9514 21.6525 21.931C21.7695 21.8771 21.8224 21.8667 21.8705 21.8558C21.9189 21.8464 21.9765 21.8137 21.9765 21.8137C21.9765 21.8137 22.0074 21.7942 22.0359 21.7424C22.0653 21.6894 22.0193 21.7037 22.0193 21.7037ZM22.1691 20.8667C22.1884 20.8189 22.2366 20.7066 22.2877 20.6624C22.3188 20.6353 22.3725 20.6226 22.4011 20.6106C22.4132 20.6064 22.501 20.6022 22.3914 20.6323C22.3459 20.6444 22.2845 20.6713 22.2572 20.7171C22.2189 20.8234 22.1854 20.916 22.1143 20.984C22.062 21.0388 22.029 21.1102 22.029 21.1102L21.973 21.1296C22.0756 21.0667 22.1202 20.9501 22.1691 20.8667ZM22.6657 20.8069C22.6072 20.8264 22.5867 20.8425 22.5867 20.8425C22.4557 20.8818 22.4022 20.964 22.3448 21.0309C22.3157 21.0659 22.2748 21.0921 22.1367 21.1513C22.0105 21.2055 21.9128 21.2894 21.9105 21.2894C21.9105 21.2894 21.8705 21.2975 21.8781 21.317C21.8811 21.3262 21.9152 21.3188 21.9152 21.3188C21.9152 21.3188 22.1752 21.2817 22.2836 21.2158C22.3528 21.1724 22.3919 21.1408 22.4575 21.0394C22.4869 20.9946 22.5199 20.9103 22.5214 20.9646C22.5265 21.1084 22.303 21.2478 22.2057 21.2909C22.1536 21.313 22.0842 21.3221 21.9934 21.3371C21.9036 21.3537 21.849 21.3487 21.8556 21.3289C21.8647 21.3003 21.8752 21.2944 21.8989 21.2661C21.9417 21.2152 22.045 21.1971 22.121 21.1614C22.211 21.1211 22.2963 21.0618 22.339 21.0111C22.3827 20.9599 22.3978 20.941 22.4097 20.8977C22.443 20.7844 22.4447 20.7217 22.4759 20.6813C22.5857 20.546 22.6018 20.5024 22.6072 20.442C22.6083 20.4281 22.5502 20.4741 22.5199 20.4909C22.4608 20.5259 22.4388 20.5259 22.3177 20.5575C22.1947 20.5882 22.1974 20.6675 22.1783 20.7049C22.1727 20.7199 22.1228 20.7821 22.099 20.7937C22.0753 20.8057 22.0168 20.8903 21.9951 20.9398C21.9791 20.976 21.9505 21.002 21.9277 20.9991C21.9037 20.9946 21.9737 20.7326 21.9891 20.6893C22.0058 20.6463 22.0091 20.5622 22.0091 20.5339C22.0091 20.5068 22.01 20.4355 21.9625 20.4275C21.9153 20.4195 21.9131 20.3542 21.9131 20.3542C21.7994 20.4527 21.8629 20.6262 21.8751 20.7291C21.8873 20.831 21.8517 21.0197 21.8517 21.0197C21.9615 21.0666 21.8751 21.2 21.841 21.2432C21.8051 21.287 21.737 21.295 21.7065 21.3337C21.6741 21.3734 21.444 21.6938 21.444 21.6938L21.7302 21.6127C21.7302 21.6127 21.7569 21.6175 21.7142 21.5851C21.6708 21.5541 21.7281 21.4338 21.765 21.4044C21.8353 21.3492 21.9304 21.3894 21.9304 21.3894C21.9304 21.3894 22.0631 21.4097 22.2259 21.3451C22.3619 21.2915 22.4203 21.2045 22.4848 21.1391C22.5199 21.1035 22.584 20.9852 22.6244 20.9151C22.6488 20.8746 22.6925 20.7977 22.6657 20.8069Z" fill="#009B3A"/>
<path d="M22.6657 20.8069C22.6072 20.8264 22.5867 20.8425 22.5867 20.8425C22.4557 20.8818 22.4022 20.964 22.3448 21.0309C22.3157 21.0659 22.2748 21.0921 22.1367 21.1513C22.0105 21.2055 21.9128 21.2894 21.9105 21.2894C21.9105 21.2894 21.8705 21.2975 21.8781 21.317C21.8811 21.3262 21.9152 21.3188 21.9152 21.3188C21.9152 21.3188 22.1752 21.2817 22.2836 21.2158C22.3528 21.1724 22.3919 21.1408 22.4575 21.0394C22.4869 20.9946 22.5199 20.9103 22.5214 20.9646C22.5265 21.1084 22.303 21.2478 22.2057 21.2909C22.1536 21.313 22.0842 21.3221 21.9934 21.3371C21.9036 21.3537 21.849 21.3487 21.8556 21.3289C21.8647 21.3003 21.8752 21.2944 21.8989 21.2661C21.9417 21.2152 22.045 21.1971 22.121 21.1614C22.211 21.1211 22.2963 21.0618 22.339 21.0111C22.3827 20.9599 22.3978 20.941 22.4097 20.8977C22.443 20.7844 22.4447 20.7217 22.4759 20.6813C22.5857 20.546 22.6018 20.5024 22.6072 20.442C22.6083 20.4281 22.5502 20.4741 22.5199 20.4909C22.4608 20.5259 22.4388 20.5259 22.3177 20.5575C22.1947 20.5882 22.1974 20.6675 22.1783 20.7049C22.1727 20.7199 22.1228 20.7821 22.099 20.7937C22.0753 20.8057 22.0168 20.8903 21.9951 20.9398C21.9791 20.976 21.9505 21.002 21.9277 20.9991C21.9037 20.9946 21.9737 20.7326 21.9891 20.6893C22.0058 20.6463 22.0091 20.5622 22.0091 20.5339C22.0091 20.5068 22.01 20.4355 21.9625 20.4275C21.9153 20.4195 21.9131 20.3542 21.9131 20.3542C21.7994 20.4527 21.8629 20.6262 21.8751 20.7291C21.8873 20.831 21.8517 21.0197 21.8517 21.0197C21.9615 21.0666 21.8751 21.2 21.841 21.2432C21.8051 21.287 21.737 21.295 21.7065 21.3337C21.6741 21.3734 21.444 21.6938 21.444 21.6938L21.7302 21.6127C21.7302 21.6127 21.7569 21.6175 21.7142 21.5851C21.6708 21.5541 21.7281 21.4338 21.765 21.4044C21.8353 21.3492 21.9304 21.3894 21.9304 21.3894C21.9304 21.3894 22.0631 21.4097 22.2259 21.3451C22.3619 21.2915 22.4203 21.2045 22.4848 21.1391C22.5199 21.1035 22.584 20.9852 22.6244 20.9151C22.6488 20.8746 22.6925 20.7977 22.6657 20.8069ZM22.0193 21.7037C22.0193 21.7037 21.8589 21.6894 21.845 21.6894C21.8298 21.6894 21.7419 21.6772 21.6142 21.6772C21.4876 21.6772 21.4401 21.7211 21.4069 21.7564C21.371 21.796 21.2711 21.8874 21.2711 21.8874L21.325 21.8826C21.4532 21.7827 21.553 21.8194 21.5928 21.8164C21.6344 21.815 21.6844 21.8191 21.8128 21.7737C21.9431 21.728 21.9355 21.7707 21.9212 21.7751C21.859 21.7975 21.7938 21.8107 21.7277 21.8141C21.631 21.8195 21.5461 21.8382 21.5081 21.8382C21.4698 21.8382 21.1875 21.9155 21.1875 21.9155C21.1875 21.9155 21.493 21.9334 21.5259 21.9443C21.5587 21.9576 21.61 21.9514 21.6525 21.931C21.7695 21.8771 21.8224 21.8667 21.8705 21.8558C21.9189 21.8464 21.9765 21.8137 21.9765 21.8137C21.9765 21.8137 22.0074 21.7942 22.0359 21.7424C22.0653 21.6894 22.0193 21.7037 22.0193 21.7037ZM22.1691 20.8667C22.1884 20.8189 22.2366 20.7066 22.2877 20.6624C22.3188 20.6353 22.3725 20.6226 22.4011 20.6106C22.4132 20.6064 22.501 20.6022 22.3914 20.6323C22.3459 20.6444 22.2845 20.6713 22.2572 20.7171C22.2189 20.8234 22.1854 20.916 22.1143 20.984C22.062 21.0388 22.029 21.1102 22.029 21.1102L21.973 21.1296C22.0756 21.0667 22.1202 20.9501 22.1691 20.8667Z" stroke="black" stroke-width="0.0228485"/>
<path d="M21.8549 21.5758C21.8767 21.567 21.88 21.563 21.9201 21.5193C21.9594 21.4757 21.9247 21.402 21.8637 21.405C21.8339 21.407 21.8022 21.4002 21.7436 21.4789C21.687 21.5578 21.7707 21.5867 21.8025 21.5899C21.8161 21.5907 21.8341 21.5847 21.8549 21.5758Z" fill="#009B3A" stroke="black" stroke-width="0.0254545"/>
<path d="M21.7068 21.0771C21.6688 21.1405 21.6486 21.2134 21.6783 21.2359C21.6851 21.2396 21.7115 21.2629 21.7338 21.2629C21.7558 21.2629 21.8181 21.2329 21.8535 21.1781C21.8891 21.125 21.9182 21.0668 21.8455 21.0305C21.7795 20.9979 21.7342 21.0285 21.7068 21.0771Z" fill="#009B3A"/>
<path d="M21.7068 21.0771C21.6688 21.1405 21.6486 21.2134 21.6783 21.2359C21.6851 21.2396 21.7115 21.2629 21.7338 21.2629C21.7558 21.2629 21.8181 21.2329 21.8535 21.1781C21.8891 21.125 21.9182 21.0668 21.8455 21.0305C21.7795 20.9979 21.7342 21.0285 21.7068 21.0771Z" stroke="black" stroke-width="0.026"/>
<path d="M21.9236 20.3025C21.9236 20.3025 21.9296 20.2926 21.9047 20.2668C21.8651 20.2264 21.8157 20.1543 21.8157 20.1543C21.737 20.1973 21.7108 20.2843 21.7108 20.3188C21.7108 20.3546 21.7242 20.4328 21.7121 20.5125C21.7078 20.5395 21.7035 20.5705 21.6645 20.669C21.6247 20.7661 21.6702 20.8555 21.6791 20.887C21.6859 20.9184 21.7184 21.0155 21.7184 21.0155C21.7184 21.0155 21.7491 20.9958 21.7596 20.9935C21.7717 20.9901 21.8136 20.992 21.8136 20.992C21.8136 20.992 21.861 20.9064 21.8627 20.8586C21.8636 20.8235 21.8581 20.764 21.8414 20.6726C21.8182 20.5396 21.8197 20.5018 21.8355 20.4274C21.8512 20.3519 21.9236 20.3025 21.9236 20.3025Z" fill="#009B3A"/>
<path d="M21.9236 20.3025C21.9236 20.3025 21.9296 20.2926 21.9047 20.2668C21.8651 20.2264 21.8157 20.1543 21.8157 20.1543C21.737 20.1973 21.7108 20.2843 21.7108 20.3188C21.7108 20.3546 21.7242 20.4328 21.7121 20.5125C21.7078 20.5395 21.7035 20.5705 21.6645 20.669C21.6247 20.7661 21.6702 20.8555 21.6791 20.887C21.6859 20.9184 21.7184 21.0155 21.7184 21.0155C21.7184 21.0155 21.7491 20.9958 21.7596 20.9935C21.7717 20.9901 21.8136 20.992 21.8136 20.992C21.8136 20.992 21.861 20.9064 21.8627 20.8586C21.8636 20.8235 21.8581 20.764 21.8414 20.6726C21.8182 20.5396 21.8197 20.5018 21.8355 20.4274C21.8512 20.3519 21.9236 20.3025 21.9236 20.3025Z" stroke="black" stroke-width="0.0228485"/>
<path d="M22.0398 20.4352C22.0398 20.4352 22.0845 20.4245 22.107 20.384C22.1354 20.3352 22.1279 20.2834 22.1279 20.2834C22.0587 20.1492 21.9657 20.2574 21.9657 20.2574C21.8824 20.4278 22.0398 20.4352 22.0398 20.4352Z" fill="#009B3A"/>
<path d="M22.0398 20.4352C22.0398 20.4352 22.0845 20.4245 22.107 20.384C22.1354 20.3352 22.1279 20.2834 22.1279 20.2834C22.0587 20.1492 21.9657 20.2574 21.9657 20.2574C21.8824 20.4278 22.0398 20.4352 22.0398 20.4352Z" stroke="black" stroke-width="0.0250909"/>
<path d="M22.276 20.1896C22.1727 20.1949 22.1218 20.3805 22.1218 20.3805C22.1218 20.3805 22.1052 20.4264 22.0502 20.4618C21.9916 20.498 22.0262 20.55 22.0262 20.6424C22.0262 20.7348 21.9617 20.8982 21.9617 20.8982L21.9377 20.9536C21.9377 20.9536 21.94 20.9952 21.9776 20.9197C22.0416 20.7926 22.1118 20.8235 22.1382 20.6868C22.1548 20.5851 22.3233 20.5527 22.3233 20.5527L22.276 20.5438C22.101 20.4618 22.2861 20.2574 22.316 20.2211C22.3477 20.185 22.378 20.185 22.276 20.1896Z" fill="#009B3A" stroke="black" stroke-width="0.0298182"/>
<path d="M22.2465 20.4093C22.1992 20.5108 22.3337 20.5157 22.3647 20.4979C22.3773 20.4908 22.4057 20.4569 22.4057 20.4569C22.4602 20.3785 22.4103 20.3254 22.382 20.3178C22.3546 20.3088 22.2961 20.3018 22.2465 20.4093Z" fill="#009B3A" stroke="black" stroke-width="0.0253939"/>
<path d="M21.9916 20.0156C22.0269 20.0815 22.1255 20.2644 22.1487 20.253C22.1632 20.2459 22.1517 20.2085 22.1517 20.2085C22.1517 20.2085 22.1488 20.159 22.1327 20.0991C22.1169 20.0386 22.1208 19.9615 22.0893 19.9119C22.0588 19.8625 21.9854 19.8037 21.9566 19.7256C21.9281 19.6472 21.9505 19.499 21.9528 19.4806C21.9557 19.4636 21.9644 19.4747 21.9492 19.4571C21.9338 19.4379 21.8092 19.3716 21.8092 19.3716C21.8092 19.3716 21.8165 19.42 21.8134 19.5076C21.8122 19.5287 21.8063 19.5535 21.803 19.5904C21.8001 19.6255 21.8212 19.6696 21.8723 19.7705C21.9316 19.8871 21.9601 19.9587 21.9916 20.0156ZM22.7392 19.1451C22.7392 19.1451 22.7033 19.2051 22.6905 19.2182C22.6772 19.2316 22.4741 19.4061 22.4625 19.4134C22.4527 19.4211 22.3466 19.455 22.2501 19.7159C22.1534 19.9759 22.1952 20.219 22.1952 20.219L22.2421 20.2131L22.2501 20.1877C22.2501 20.1877 22.2659 20.1015 22.278 20.036C22.2915 19.9715 22.3638 19.8811 22.4119 19.8146C22.4577 19.7495 22.4946 19.6557 22.4946 19.6557C22.5491 19.5461 22.5752 19.4481 22.6292 19.3716C22.6313 19.4626 22.2851 20.0226 22.248 20.2131L22.3506 20.1975C22.4325 20.1226 22.5397 19.9655 22.6122 19.8641C22.6852 19.7625 22.7162 19.6036 22.7295 19.5331C22.7422 19.4636 22.7392 19.1451 22.7392 19.1451Z" fill="#009B3A"/>
<path d="M22.7392 19.1451C22.7392 19.1451 22.7033 19.2051 22.6905 19.2182C22.6772 19.2316 22.4741 19.4061 22.4625 19.4134C22.4527 19.4211 22.3466 19.455 22.2501 19.7159C22.1534 19.9759 22.1952 20.219 22.1952 20.219L22.2421 20.2131L22.2501 20.1877C22.2501 20.1877 22.2659 20.1015 22.278 20.036C22.2915 19.9715 22.3638 19.8811 22.4119 19.8146C22.4577 19.7495 22.4946 19.6557 22.4946 19.6557C22.5491 19.5461 22.5752 19.4481 22.6292 19.3716C22.6313 19.4626 22.2851 20.0226 22.248 20.2131L22.3506 20.1975C22.4325 20.1226 22.5397 19.9655 22.6122 19.8641C22.6852 19.7625 22.7162 19.6036 22.7295 19.5331C22.7422 19.4636 22.7392 19.1451 22.7392 19.1451ZM21.9916 20.0156C22.0269 20.0815 22.1255 20.2644 22.1487 20.253C22.1632 20.2459 22.1517 20.2085 22.1517 20.2085C22.1517 20.2085 22.1488 20.159 22.1327 20.0991C22.1169 20.0386 22.1208 19.9615 22.0893 19.9119C22.0588 19.8625 21.9854 19.8037 21.9566 19.7256C21.9281 19.6472 21.9505 19.499 21.9528 19.4806C21.9557 19.4636 21.9644 19.4747 21.9492 19.4571C21.9338 19.4379 21.8092 19.3716 21.8092 19.3716C21.8092 19.3716 21.8165 19.42 21.8134 19.5076C21.8122 19.5287 21.8063 19.5535 21.803 19.5904C21.8001 19.6255 21.8212 19.6696 21.8723 19.7705C21.9316 19.8871 21.9601 19.9587 21.9916 20.0156Z" stroke="black" stroke-width="0.0228485"/>
<path d="M22.048 19.2034C21.9957 19.1549 21.9551 19.1405 21.9551 19.1405C21.9551 19.1405 21.9676 19.2354 21.9676 19.2933C21.9676 19.3513 21.9727 19.4485 21.9696 19.5005C21.9676 19.5523 21.9417 19.638 21.9785 19.722C22.0162 19.8049 22.0587 19.8471 22.0887 19.8993C22.116 19.9503 22.1661 20.2154 22.1661 20.2154C22.1661 20.2154 22.1477 19.8569 22.1636 19.7554C22.1781 19.6558 22.1829 19.5004 22.1607 19.4226C22.1374 19.3444 22.0991 19.2529 22.048 19.2034ZM22.287 18.8533C22.3027 18.8226 22.3396 18.7593 22.355 18.6629C22.3607 18.6219 22.3645 18.5555 22.363 18.5095C22.3619 18.4789 22.3497 18.4255 22.363 18.422C22.3749 18.4191 22.365 18.4386 22.3717 18.484C22.375 18.5003 22.3639 18.5451 22.3617 18.6026C22.3591 18.6485 22.3572 18.6869 22.3367 18.7491C22.319 18.8039 22.3351 18.8649 22.3241 18.8819C22.3122 18.8993 22.2807 18.9649 22.2807 18.9649C22.2807 18.9649 22.2615 19.018 22.2647 19.0664C22.2665 19.1159 22.2695 19.1693 22.2695 19.1693C22.2695 19.1693 22.2924 19.1269 22.3434 19.1198C22.3434 19.1198 22.355 19.0369 22.355 19.0109C22.355 18.9849 22.3882 18.8153 22.4052 18.7634C22.4284 18.6874 22.4447 18.5549 22.4079 18.4014C22.3977 18.3599 22.3904 18.2299 22.3904 18.2299C22.3904 18.2299 22.3414 18.269 22.3122 18.4173C22.3032 18.4624 22.3224 18.5833 22.3149 18.712C22.312 18.7831 22.2437 19.071 22.2346 19.089" fill="#009B3A"/>
<path d="M22.287 18.8533C22.3027 18.8226 22.3396 18.7593 22.355 18.6629C22.3607 18.6219 22.3645 18.5555 22.363 18.5095C22.3619 18.4789 22.3497 18.4255 22.363 18.422C22.3749 18.4191 22.365 18.4386 22.3717 18.484C22.375 18.5003 22.3639 18.5451 22.3617 18.6026C22.3591 18.6485 22.3572 18.6869 22.3367 18.7491C22.319 18.8039 22.3351 18.8649 22.3241 18.8819C22.3122 18.8993 22.2807 18.9649 22.2807 18.9649C22.2807 18.9649 22.2615 19.018 22.2647 19.0664C22.2665 19.1159 22.2695 19.1693 22.2695 19.1693C22.2695 19.1693 22.2924 19.1269 22.3434 19.1198C22.3434 19.1198 22.355 19.0369 22.355 19.0109C22.355 18.9849 22.3882 18.8153 22.4052 18.7634C22.4284 18.6874 22.4447 18.5549 22.4079 18.4014C22.3977 18.3599 22.3904 18.2299 22.3904 18.2299C22.3904 18.2299 22.3414 18.269 22.3122 18.4173C22.3032 18.4624 22.3224 18.5833 22.3149 18.712C22.312 18.7831 22.2437 19.071 22.2346 19.089M22.048 19.2034C21.9957 19.1549 21.9551 19.1405 21.9551 19.1405C21.9551 19.1405 21.9676 19.2354 21.9676 19.2933C21.9676 19.3513 21.9727 19.4485 21.9696 19.5005C21.9676 19.5523 21.9417 19.638 21.9785 19.722C22.0162 19.8049 22.0587 19.8471 22.0887 19.8993C22.116 19.9503 22.1661 20.2154 22.1661 20.2154C22.1661 20.2154 22.1477 19.8569 22.1636 19.7554C22.1781 19.6558 22.1829 19.5004 22.1607 19.4226C22.1374 19.3444 22.0991 19.2529 22.048 19.2034Z" stroke="black" stroke-width="0.0228485"/>
<path d="M22.2886 18.8528C22.2861 18.8576 22.2852 18.8595 22.2852 18.8595C22.2852 18.8595 22.2873 18.8576 22.2886 18.8528Z" fill="#009B3A" stroke="black" stroke-width="0.0228485"/>
<path d="M22.0942 18.1055C22.1205 18.1055 22.1205 18.1339 22.1151 18.1562C22.111 18.1792 22.1116 18.222 22.1116 18.2307C22.1116 18.2409 22.1225 18.3019 22.1311 18.3336C22.1406 18.3664 22.157 18.3766 22.1498 18.4424C22.145 18.4837 22.1026 18.5322 22.1175 18.6025C22.1255 18.6394 22.1518 18.678 22.165 18.7097C22.1758 18.7319 22.17 18.7859 22.173 18.83C22.1741 18.8731 22.1978 18.9022 22.1978 18.9022C22.1978 18.9022 22.1685 18.9571 22.1586 18.8885C22.1481 18.8096 22.1445 18.7746 22.1293 18.739C22.1046 18.6805 22.0821 18.5755 22.1203 18.4945C22.127 18.479 22.1321 18.4499 22.1321 18.4152C22.1321 18.3802 22.1105 18.3202 22.1062 18.2831C22.1026 18.2536 22.1051 18.1915 22.1051 18.169M21.9677 18.4986C21.974 18.5431 21.9882 18.5685 22.0385 18.6652C22.0538 18.6971 22.089 18.7785 22.0942 18.8044C22.1005 18.8304 22.1058 18.8615 22.1058 18.8695C22.1058 18.878 22.1116 18.9391 22.1116 18.9391V18.9645C22.1116 18.9645 21.9725 18.8835 21.9116 18.84C21.8511 18.7965 21.7821 18.7365 21.7381 18.7004C21.6883 18.6594 21.5695 18.5185 21.5681 18.4055L21.5135 18.356C21.5135 18.356 21.4717 18.607 21.6683 18.7692C21.7251 18.8159 21.787 18.8671 21.9191 18.927C22.0516 18.988 22.0341 19.0426 22.0893 19.16C22.1437 19.2779 22.1777 19.3457 22.1846 19.379C22.1893 19.4146 22.1696 19.9159 22.1696 19.9159L22.1742 19.9612C22.1742 19.9612 22.2953 19.497 22.3536 19.4452C22.3536 19.4452 22.2381 19.4275 22.2472 19.246L22.227 19.1262C22.227 19.1262 22.2038 18.9824 22.2472 18.8931C22.2472 18.8931 22.2986 18.7295 22.2811 18.588C22.2701 18.5035 22.2661 18.478 22.2558 18.397C22.2401 18.2709 22.1896 18.0905 22.184 18.0686C22.1666 18.0052 22.1607 17.9955 22.1406 17.9455C22.1346 17.9277 22.1233 17.8694 22.1046 17.8685C22.094 17.8679 22.0776 17.9436 22.0776 17.9436C22.0776 17.9436 22.0533 18.0262 22.0482 18.0485C22.0325 18.1152 21.9956 18.1711 21.9787 18.321C21.9757 18.348 21.9727 18.4211 21.9696 18.431C21.9677 18.4391 21.9642 18.4822 21.9677 18.4986Z" fill="#009B3A"/>
<path d="M22.0942 18.1055C22.1205 18.1055 22.1205 18.1339 22.1151 18.1562C22.111 18.1792 22.1116 18.222 22.1116 18.2307C22.1116 18.2409 22.1225 18.3019 22.1311 18.3336C22.1406 18.3664 22.157 18.3766 22.1498 18.4424C22.145 18.4837 22.1026 18.5322 22.1175 18.6025C22.1255 18.6394 22.1518 18.678 22.165 18.7097C22.1758 18.7319 22.17 18.7859 22.173 18.83C22.1741 18.8731 22.1978 18.9022 22.1978 18.9022C22.1978 18.9022 22.1685 18.9571 22.1586 18.8885C22.1481 18.8096 22.1445 18.7746 22.1293 18.739C22.1046 18.6805 22.0821 18.5755 22.1203 18.4945C22.127 18.479 22.1321 18.4499 22.1321 18.4152C22.1321 18.3802 22.1105 18.3202 22.1062 18.2831C22.1026 18.2536 22.1051 18.1915 22.1051 18.169M21.9677 18.4986C21.974 18.5431 21.9882 18.5685 22.0385 18.6652C22.0538 18.6971 22.089 18.7785 22.0942 18.8044C22.1005 18.8304 22.1058 18.8615 22.1058 18.8695C22.1058 18.878 22.1116 18.9391 22.1116 18.9391V18.9645C22.1116 18.9645 21.9725 18.8835 21.9116 18.84C21.8511 18.7965 21.7821 18.7365 21.7381 18.7004C21.6883 18.6594 21.5695 18.5185 21.5681 18.4055L21.5135 18.356C21.5135 18.356 21.4717 18.607 21.6683 18.7692C21.7251 18.8159 21.787 18.8671 21.9191 18.927C22.0516 18.988 22.0341 19.0426 22.0893 19.16C22.1437 19.2779 22.1777 19.3457 22.1846 19.379C22.1893 19.4146 22.1696 19.9159 22.1696 19.9159L22.1742 19.9612C22.1742 19.9612 22.2953 19.497 22.3536 19.4452C22.3536 19.4452 22.2381 19.4275 22.2472 19.246L22.227 19.1262C22.227 19.1262 22.2038 18.9824 22.2472 18.8931C22.2472 18.8931 22.2986 18.7295 22.2811 18.588C22.2701 18.5035 22.2661 18.478 22.2558 18.397C22.2401 18.2709 22.1896 18.0905 22.184 18.0686C22.1666 18.0052 22.1607 17.9955 22.1406 17.9455C22.1346 17.9277 22.1233 17.8694 22.1046 17.8685C22.094 17.8679 22.0776 17.9436 22.0776 17.9436C22.0776 17.9436 22.0533 18.0262 22.0482 18.0485C22.0325 18.1152 21.9956 18.1711 21.9787 18.321C21.9757 18.348 21.9727 18.4211 21.9696 18.431C21.9677 18.4391 21.9642 18.4822 21.9677 18.4986Z" stroke="black" stroke-width="0.0228485"/>
<path d="M22.0713 19.1324C22.0713 19.1324 22.0512 19.0875 22.0307 19.0646C21.9895 19.016 21.934 18.9748 21.776 18.8975C21.6186 18.8191 21.5768 18.6903 21.4967 18.6373C21.46 18.6118 21.3887 18.5998 21.3887 18.5998C21.3887 18.5998 21.4587 18.6961 21.4753 18.7294C21.4967 18.7718 21.5018 18.8008 21.5885 18.8815C21.6746 18.9626 21.7798 18.9909 21.8475 19.011C21.9431 19.0408 22.0713 19.1324 22.0713 19.1324ZM21.5753 18.3875C21.5796 18.4003 21.6202 18.5388 21.7053 18.6464C21.8357 18.8111 22.0867 18.9288 22.0867 18.9288C22.0632 18.8263 22.0223 18.7078 21.99 18.6553C21.8758 18.471 21.5745 18.3808 21.5745 18.3808C21.5745 18.3808 21.5692 18.3738 21.5753 18.3875ZM21.9351 18.4653C22.0026 18.3173 21.801 18.1761 21.7442 18.0731C21.7652 18.0563 21.7902 18.1003 21.8133 18.1294C21.8463 18.1733 21.9393 18.3003 21.9393 18.3003L21.9681 18.1651L21.728 17.9466C21.7251 17.9784 21.6508 18.0045 21.6508 18.0045C21.615 18.2068 21.9351 18.4653 21.9351 18.4653Z" fill="#009B3A"/>
<path d="M22.0713 19.1324C22.0713 19.1324 22.0512 19.0875 22.0307 19.0646C21.9895 19.016 21.934 18.9748 21.776 18.8975C21.6186 18.8191 21.5768 18.6903 21.4967 18.6373C21.46 18.6118 21.3887 18.5998 21.3887 18.5998C21.3887 18.5998 21.4587 18.6961 21.4753 18.7294C21.4967 18.7718 21.5018 18.8008 21.5885 18.8815C21.6746 18.9626 21.7798 18.9909 21.8475 19.011C21.9431 19.0408 22.0713 19.1324 22.0713 19.1324ZM21.9351 18.4653C22.0026 18.3173 21.801 18.1761 21.7442 18.0731C21.7652 18.0563 21.7902 18.1003 21.8133 18.1294C21.8463 18.1733 21.9393 18.3003 21.9393 18.3003L21.9681 18.1651L21.728 17.9466C21.7251 17.9784 21.6508 18.0045 21.6508 18.0045C21.615 18.2068 21.9351 18.4653 21.9351 18.4653ZM21.5753 18.3875C21.5796 18.4003 21.6202 18.5388 21.7053 18.6464C21.8357 18.8111 22.0867 18.9288 22.0867 18.9288C22.0632 18.8263 22.0223 18.7078 21.99 18.6553C21.8758 18.471 21.5745 18.3808 21.5745 18.3808C21.5745 18.3808 21.5692 18.3738 21.5753 18.3875Z" stroke="black" stroke-width="0.0228485"/>
<path d="M21.5159 18.1223C21.458 18.1483 21.4375 18.1483 21.4375 18.1483L21.4698 18.2341L21.4886 18.2573C21.4886 18.2573 21.564 18.3663 21.6079 18.38C21.6263 18.3868 21.695 18.3988 21.7639 18.4283C21.8505 18.4652 21.992 18.5888 21.992 18.5888C21.992 18.5888 21.7567 18.3235 21.6664 18.1243L21.636 18.0098L21.5507 18.0153C21.5507 18.0153 21.5741 18.0958 21.5159 18.1223Z" fill="#009B3A" stroke="black" stroke-width="0.0228485"/>
<path d="M20.6356 17.9529C20.6751 17.9885 20.718 18.0203 20.7636 18.0478C20.8155 18.0791 20.9652 18.1671 21.0772 18.1884C21.1033 18.1925 21.244 18.2102 21.244 18.2102C21.2496 18.1486 21.3165 18.1432 21.3165 18.1432L21.1172 18.1214C20.9566 18.1095 20.8343 18.0424 20.7392 17.9349C20.8667 18.0123 21.0503 18.1341 21.1991 18.1276C21.8097 18.0676 21.0151 18.0524 20.9462 18.0083C20.8731 17.9632 20.8108 17.8883 20.8108 17.8883L20.6317 17.8803C20.6317 17.8803 20.5437 17.8748 20.6356 17.9529Z" fill="#009B3A" stroke="black" stroke-width="0.0228485"/>
<path d="M21.3552 18.3006C21.3947 18.2976 21.4224 18.2903 21.4312 18.247C21.4392 18.1986 21.421 18.1635 21.3627 18.1508C21.3304 18.1428 21.2736 18.1411 21.2505 18.1986C21.2252 18.2575 21.317 18.2953 21.317 18.2953C21.317 18.2953 21.3345 18.303 21.3552 18.3006ZM21.4237 17.9505C21.3721 17.9505 21.3545 17.9928 21.3656 18.0749C21.3792 18.1578 21.506 18.1215 21.506 18.1215L21.5295 18.1094C21.5295 18.1094 21.5467 18.0961 21.5371 18.0301C21.5282 17.9626 21.4757 17.9505 21.4237 17.9505Z" fill="#009B3A"/>
<path d="M21.6312 18.0087H21.6292M21.3552 18.3006C21.3947 18.2976 21.4224 18.2903 21.4312 18.247C21.4392 18.1986 21.421 18.1635 21.3627 18.1508C21.3304 18.1428 21.2736 18.1411 21.2505 18.1986C21.2252 18.2575 21.317 18.2953 21.317 18.2953C21.317 18.2953 21.3345 18.303 21.3552 18.3006ZM21.4237 17.9505C21.3721 17.9505 21.3545 17.9928 21.3656 18.0749C21.3792 18.1578 21.506 18.1215 21.506 18.1215L21.5295 18.1094C21.5295 18.1094 21.5467 18.0961 21.5371 18.0301C21.5282 17.9626 21.4757 17.9505 21.4237 17.9505Z" stroke="black" stroke-width="0.0228485"/>
<path d="M21.6282 18.0084C21.6297 18.0077 21.6334 18.006 21.6467 18.0021C21.6731 17.9921 21.6999 17.9287 21.6999 17.9287C21.7131 17.8431 21.6519 17.8219 21.6519 17.8219C21.5484 17.8012 21.5456 17.892 21.5456 17.892C21.5172 18.0101 21.6131 18.0091 21.6282 18.0084ZM21.168 17.6025C21.1736 17.6416 21.2295 17.6986 21.2381 17.7082C21.2481 17.7171 21.3196 17.7915 21.3436 17.8246C21.3676 17.8581 21.4476 18.0091 21.4476 18.0091C21.4476 18.0091 21.4616 18.0067 21.4675 17.9952C21.4814 17.9717 21.4139 17.7887 21.4071 17.7761C21.3824 17.7206 21.342 17.6791 21.3014 17.6357C21.2919 17.6296 21.2586 17.5869 21.2221 17.541C21.2944 17.6334 21.4796 17.8964 21.5342 18.0132C21.5342 18.0132 21.5276 17.8886 21.5207 17.8217C21.4976 17.6266 21.4469 17.5661 21.4306 17.538C21.4017 17.4852 21.3287 17.434 21.2764 17.4159C21.2241 17.397 21.1624 17.3711 21.0961 17.3499C21.0279 17.329 21.0805 17.3906 21.1056 17.4436C21.1371 17.5065 21.1622 17.5627 21.168 17.6025Z" fill="#009B3A"/>
<path d="M21.6282 18.0084C21.6297 18.0077 21.6334 18.006 21.6467 18.0021C21.6731 17.9921 21.6999 17.9287 21.6999 17.9287C21.7131 17.8431 21.6519 17.8219 21.6519 17.8219C21.5484 17.8012 21.5456 17.892 21.5456 17.892C21.5172 18.0101 21.6131 18.0091 21.6282 18.0084ZM21.168 17.6025C21.1736 17.6416 21.2295 17.6986 21.2381 17.7082C21.2481 17.7171 21.3196 17.7915 21.3436 17.8246C21.3676 17.8581 21.4476 18.0091 21.4476 18.0091C21.4476 18.0091 21.4616 18.0067 21.4675 17.9952C21.4814 17.9717 21.4139 17.7887 21.4071 17.7761C21.3824 17.7206 21.342 17.6791 21.3014 17.6357C21.2919 17.6296 21.2586 17.5869 21.2221 17.541C21.2944 17.6334 21.4796 17.8964 21.5342 18.0132C21.5342 18.0132 21.5276 17.8886 21.5207 17.8217C21.4976 17.6266 21.4469 17.5661 21.4306 17.538C21.4017 17.4852 21.3287 17.434 21.2764 17.4159C21.2241 17.397 21.1624 17.3711 21.0961 17.3499C21.0279 17.329 21.0805 17.3906 21.1056 17.4436C21.1371 17.5065 21.1622 17.5627 21.168 17.6025Z" stroke="black" stroke-width="0.0228485"/>
<path d="M20.9129 17.9236C20.9803 17.9807 21.0106 18.0205 21.1505 18.0411C21.2915 18.0632 21.3034 18.0539 21.3034 18.0539C21.3034 18.0539 21.3765 18.0185 21.3394 17.9876C21.1321 17.8964 20.9358 17.7879 20.8361 17.6659C20.8361 17.6659 20.8535 17.6491 20.9253 17.7211C20.9669 17.7632 20.9949 17.7844 21.0204 17.8042C21.0958 17.8569 21.1285 17.872 21.2036 17.9129C21.2436 17.9348 21.3438 17.9583 21.3438 17.9583C21.3438 17.9583 21.358 17.928 21.3708 17.9244C21.383 17.9215 21.3631 17.8739 21.276 17.8035C21.2276 17.7635 21.1849 17.717 21.1489 17.6655C21.1489 17.6655 21.0459 17.6429 20.9343 17.6243C20.8511 17.6111 20.6946 17.4897 20.6973 17.5226C20.7001 17.5566 20.7208 17.6618 20.7629 17.7287C20.8054 17.7959 20.8458 17.8646 20.9129 17.9236Z" fill="#009B3A"/>
<path d="M20.9129 17.9236C20.9803 17.9807 21.0106 18.0205 21.1505 18.0411C21.2915 18.0632 21.3034 18.0539 21.3034 18.0539C21.3034 18.0539 21.3765 18.0185 21.3394 17.9876C21.1321 17.8964 20.9358 17.7879 20.8361 17.6659C20.8361 17.6659 20.8535 17.6491 20.9253 17.7211C20.9669 17.7632 20.9949 17.7844 21.0204 17.8042C21.0958 17.8569 21.1285 17.872 21.2036 17.9129C21.2436 17.9348 21.3438 17.9583 21.3438 17.9583C21.3438 17.9583 21.358 17.928 21.3708 17.9244C21.383 17.9215 21.3631 17.8739 21.276 17.8035C21.2276 17.7635 21.1849 17.717 21.1489 17.6655C21.1489 17.6655 21.0459 17.6429 20.9343 17.6243C20.8511 17.6111 20.6946 17.4897 20.6973 17.5226C20.7001 17.5566 20.7208 17.6618 20.7629 17.7287C20.8054 17.7959 20.8458 17.8646 20.9129 17.9236Z" stroke="black" stroke-width="0.0228485"/>
<path d="M19.7491 22.1405C19.688 22.1585 19.2296 22.3305 19.2296 22.3305L19.1016 22.3818C19.2782 22.342 19.4136 22.431 19.4136 22.431L19.9242 22.1948C19.9242 22.1948 19.9227 22.187 19.9101 22.1778C19.8966 22.1688 19.8108 22.1218 19.7491 22.1405Z" fill="#009B3A" stroke="black" stroke-width="0.0182424"/>
<path d="M19.0816 22.398C19.0782 22.4009 19.0747 22.413 19.0837 22.4169C19.1091 22.431 19.1022 22.4365 19.218 22.4505C19.3346 22.4631 19.4107 22.441 19.4306 22.419C19.454 22.3933 19.1417 22.3455 19.0816 22.398Z" fill="#009B3A"/>
<path d="M19.0816 22.398C19.0782 22.4009 19.0747 22.413 19.0837 22.4169C19.1091 22.431 19.1022 22.4365 19.218 22.4505C19.3346 22.4631 19.4107 22.441 19.4306 22.419C19.454 22.3933 19.1417 22.3455 19.0816 22.398Z" stroke="black" stroke-width="0.0195151"/>
<path d="M18.3477 20.7486L18.3264 20.6053C18.3264 20.6053 18.2998 20.2179 18.2558 20.1402C18.2473 20.123 18.2512 20.0828 18.2232 20.0821C18.1698 20.0781 18.1698 20.2041 18.1633 20.3183C18.0764 20.8941 18.5356 21.3337 18.5356 21.3337L18.3477 20.7486Z" fill="#009B3A" stroke="black" stroke-width="0.0253334"/>
<path d="M20.6216 22.4542C20.6216 22.4542 20.5734 22.4435 20.6039 22.4059C20.6331 22.3701 20.7199 22.351 20.7373 22.351C20.7544 22.3502 20.8031 22.3545 20.8394 22.3646C20.876 22.3736 20.9265 22.4059 20.9117 22.4293C20.8963 22.4515 20.8468 22.4793 20.7792 22.4793C20.7212 22.4793 20.6915 22.4778 20.6659 22.4705C20.6412 22.4611 20.6216 22.4542 20.6216 22.4542Z" fill="#009B3A"/>
<path d="M20.6216 22.4542C20.6216 22.4542 20.5734 22.4435 20.6039 22.4059C20.6331 22.3701 20.7199 22.351 20.7373 22.351C20.7544 22.3502 20.8031 22.3545 20.8394 22.3646C20.876 22.3736 20.9265 22.4059 20.9117 22.4293C20.8963 22.4515 20.8468 22.4793 20.7792 22.4793C20.7212 22.4793 20.6915 22.4778 20.6659 22.4705C20.6412 22.4611 20.6216 22.4542 20.6216 22.4542Z" stroke="black" stroke-width="0.0233334"/>
<path d="M20.1227 22.1808C20.1227 22.1808 19.9651 22.1083 19.8157 22.0352C19.6187 21.939 19.3821 21.8055 19.2173 21.5605C19.0109 21.2573 18.8315 21.0948 18.7881 21.0622C18.7435 21.0293 18.7371 21.0173 18.7207 21.0403C18.7059 21.0603 18.7162 21.0778 18.7287 21.099C18.7712 21.168 18.8755 21.2976 18.9129 21.3673C18.9773 21.4916 19.1107 21.6273 19.1095 21.708C19.1095 21.7192 19.0706 21.7 19.0706 21.7C19.0706 21.7 18.7584 21.5931 18.632 21.2148C18.5399 20.9407 18.579 20.8602 18.5576 20.7232C18.5212 20.4797 18.5137 20.4598 18.3932 20.187C18.3899 20.1802 18.3195 20.0661 18.31 20.0913C18.2969 20.1242 18.3219 20.2462 18.3219 20.2462L18.3347 20.3868C18.3347 20.3868 18.3245 20.699 18.3245 20.7178C18.3245 20.7368 18.2459 20.9316 18.5799 21.2591C18.5799 21.2591 18.585 21.3147 18.5401 21.2658C18.5084 21.2307 18.2693 21.0471 18.1966 20.745C18.1216 20.4428 18.1107 20.1403 18.1675 20.0148C18.2188 19.9013 18.3219 19.6238 18.2779 19.3816C18.2729 19.3563 18.2657 19.282 18.2497 19.3015C18.2429 19.311 18.2129 19.4336 18.1947 19.4761C18.1695 19.5341 18.1303 19.5912 18.1182 19.6313C18.0947 19.6993 17.9795 19.8047 18.002 19.9983C18.0275 20.2208 18.0421 20.2556 18.0689 20.335C18.078 20.3638 18.1004 20.4375 18.0858 20.4448C18.0724 20.452 18.0252 20.3568 18.0252 20.3568C18.0252 20.3568 17.8137 19.9411 17.9441 19.6038C18.076 19.2682 18.4068 18.9498 18.4068 18.9498C18.4068 18.9498 18.6755 18.727 18.7302 18.6751C18.7516 18.6551 18.7466 18.6401 18.7394 18.6423C18.6726 18.6592 18.1555 18.7662 17.9738 19.3822C17.9738 19.3822 17.9644 19.4082 17.951 19.4018C17.9343 19.3943 17.951 19.3653 17.951 19.3653C17.951 19.3653 18.0647 18.9287 18.3839 18.7305C18.7322 18.5133 18.6913 18.5451 18.8066 18.4767C18.879 18.4316 18.9446 18.3713 19.0257 18.2371C19.034 18.2221 19.0669 18.144 19.0626 18.1307C19.0589 18.1173 19.0433 18.1357 19.0359 18.1578C19.0359 18.1578 18.9372 18.3102 18.7896 18.3615C18.6415 18.4128 18.5211 18.3396 18.3724 18.5041C18.2233 18.6695 18.1048 18.8985 18.1048 18.8985C18.1048 18.8985 18.0659 18.9578 18.0573 18.956C18.0409 18.951 18.0653 18.893 18.0653 18.893C18.0653 18.893 18.2642 18.4708 18.4241 18.3851C18.5841 18.2987 18.7266 18.2158 18.8175 18.1457C18.9281 18.059 19.1184 17.8468 19.187 17.7738C19.2015 17.7581 19.3037 17.6546 19.3262 17.621C19.3399 17.6027 19.3723 17.5762 19.367 17.5716C19.3524 17.5607 19.2555 17.6072 19.2555 17.6072C19.2555 17.6072 18.7286 17.7523 18.4007 18.2476C18.3856 18.2706 18.3495 18.3173 18.3302 18.3371C18.2952 18.3733 18.2776 18.4338 18.2776 18.4338C18.2562 18.4162 18.463 18.1578 18.463 18.1578L18.4992 17.9907C18.4992 17.9907 18.5604 17.7396 18.689 17.5623C18.7017 17.5462 18.7777 17.4695 18.7906 17.4536C18.816 17.4258 18.7421 17.4778 18.7552 17.4662C18.7552 17.4662 18.2636 17.8191 18.2636 18.2636C18.2636 18.3433 18.2141 18.4163 18.1455 18.5156C18.0653 18.6308 18.0386 18.7017 18.0038 18.8732C17.9893 18.9453 17.9743 19.0173 17.9587 19.0892C17.9587 19.0892 17.9634 19.1527 17.9429 19.1478C17.9215 19.1432 17.929 19.0907 17.929 19.0907C17.929 19.0907 17.9792 18.7593 18.0148 18.6573C18.0495 18.5583 18.0724 18.4908 18.0724 18.4908C18.0724 18.4908 18.0519 18.2418 18.1072 18.1053C18.1541 17.9862 18.2729 17.8293 18.2913 17.7902C18.2993 17.7731 18.3542 17.6615 18.3696 17.5341C18.3718 17.517 18.3584 17.5312 18.3361 17.5808C18.2821 17.7027 18.2369 17.7345 18.1481 17.8491C18.1481 17.8491 17.9204 18.0142 17.8378 18.5053C17.8378 18.5053 17.8351 18.6883 17.8073 18.9752C17.787 19.1853 17.8042 19.3822 17.828 19.5008C17.8432 19.5733 17.872 19.5738 17.8542 19.5827C17.8431 19.5883 17.8612 19.5836 17.8354 19.5288C17.8039 19.4631 17.7798 19.3618 17.7798 19.2222C17.7798 18.966 17.802 18.7603 17.802 18.7603C17.802 18.7603 17.8187 18.3463 17.6471 18.1598C17.6388 18.1501 17.6772 18.2436 17.6944 18.3367C17.7155 18.4523 17.6772 18.6127 17.6659 18.6751C17.6549 18.7378 17.5405 19.0115 17.5809 19.2682C17.5809 19.2682 17.6776 19.7036 17.8024 19.9146C17.8024 19.9146 17.88 20.0055 17.8114 19.9203C17.7434 19.8351 17.6038 19.4963 17.5916 19.4673C17.5809 19.4398 17.4809 19.2288 17.3867 19.1432C17.3379 19.0978 17.2041 19.0173 17.2041 19.0173C17.2041 19.0173 17.1313 18.9618 17.1865 19.0356C17.2301 19.0938 17.2887 19.198 17.3166 19.2433C17.3746 19.3373 17.4262 19.4348 17.471 19.5358C17.5159 19.6343 17.6201 19.9241 17.6201 19.9241L17.6868 20.1078C17.6868 20.1078 17.7986 20.1698 17.8595 20.2376C17.9093 20.2925 18.0127 20.4183 18.0986 20.6423C18.1372 20.7413 18.2142 20.8322 18.2142 20.8322C18.2142 20.8322 18.1978 20.8636 18.1292 20.7448C18.0616 20.6245 17.9953 20.3988 17.8322 20.2233C17.7084 20.0885 17.3751 19.9527 17.3751 19.9527C17.3751 19.9527 17.5892 20.3258 17.6424 20.3923C17.7324 20.4991 17.8624 20.6488 17.896 20.6883C17.9307 20.7288 18.1321 20.9775 18.1618 21.0173C18.2087 21.0796 18.2396 21.107 18.2642 21.1323C18.3173 21.1888 18.4747 21.2921 18.487 21.3083C18.4893 21.3248 18.4924 21.3112 18.4791 21.3013C18.4093 21.2598 18.3259 21.1941 18.2398 21.1381C18.154 21.0812 17.8226 20.9398 17.5993 20.6321C17.5464 20.541 17.5212 20.5048 17.5034 20.5142C17.4761 20.5287 17.6537 21.1163 18.019 21.3033C18.019 21.3033 18.4219 21.4825 18.5113 21.5363C18.5604 21.5658 18.6592 21.6095 18.705 21.6463C18.7311 21.6678 18.6812 21.6667 18.6779 21.6661C18.4638 21.6493 18.1565 21.621 17.9678 21.5116C17.9678 21.5116 17.8868 21.4547 17.9533 21.5347C18.0062 21.5965 18.1066 21.7488 18.3002 21.8347C18.4941 21.9198 18.7759 21.9693 18.879 21.9747C18.9803 21.9803 19.3413 21.9821 19.4106 22.0045C19.4782 22.0273 19.5935 22.1013 19.6595 22.1225C19.7194 22.1418 19.9002 22.2113 19.9002 22.2113C19.9002 22.2113 19.9547 22.2411 19.9838 22.2516C20.0164 22.2647 20.1519 22.2635 20.1615 22.2381C20.1706 22.2153 20.1227 22.1808 20.1227 22.1808Z" fill="#009B3A" stroke="black" stroke-width="0.0182424"/>
<path d="M22.4655 19.1207C22.5064 19.1356 22.5245 19.2571 22.5245 19.2571C22.5245 19.2571 22.5209 19.1876 22.5209 19.1534C22.5209 19.1189 22.5041 18.9896 22.5041 18.9896L22.4677 19.0155C22.4245 19.05 22.4004 19.111 22.4004 19.111C22.4004 19.111 22.4252 19.107 22.4655 19.1207Z" fill="#009B3A"/>
<path d="M22.4655 19.1207C22.5064 19.1356 22.5245 19.2571 22.5245 19.2571C22.5245 19.2571 22.5209 19.1876 22.5209 19.1534C22.5209 19.1189 22.5041 18.9896 22.5041 18.9896L22.4677 19.0155C22.4245 19.05 22.4004 19.111 22.4004 19.111C22.4004 19.111 22.4252 19.107 22.4655 19.1207Z" stroke="black" stroke-width="0.0228485"/>
</g>
</g>
</g>
<defs>
<clipPath id="clip0_16699_275329">
<rect width="40" height="40" fill="white"/>
</clipPath>
</defs>
</svg>
