<svg width="40" height="40" viewBox="0 0 40 40" fill="none" xmlns="http://www.w3.org/2000/svg">
<g clip-path="url(#clip0_16699_275400)">
<mask id="mask0_16699_275400" style="mask-type:luminance" maskUnits="userSpaceOnUse" x="0" y="0" width="40" height="40">
<path d="M40 20C40 8.95431 31.0457 0 20 0C8.95431 0 0 8.95431 0 20C0 31.0457 8.95431 40 20 40C31.0457 40 40 31.0457 40 20Z" fill="white"/>
</mask>
<g mask="url(#mask0_16699_275400)">
<mask id="mask1_16699_275400" style="mask-type:luminance" maskUnits="userSpaceOnUse" x="-7" y="0" width="54" height="40">
<path d="M-6.66669 0H46.6666V40H-6.66669V0Z" fill="white"/>
</mask>
<g mask="url(#mask1_16699_275400)">
<path d="M-6.66669 0H46.6666V40H-6.66669V0Z" fill="#0067C6"/>
<path d="M-6.66663 13.3333H46.6667V26.6666H-6.66663V13.3333Z" fill="white"/>
<path d="M14.0001 19.9552L14.6653 19.9997C14.6676 19.9672 14.6695 19.9349 14.672 19.9025L14.4103 19.885C14.4168 19.7782 14.4257 19.6714 14.4305 19.5644C14.523 19.4975 14.6156 19.4307 14.708 19.3632L14.7161 19.2399L14.4236 19.4524C14.4136 19.3833 14.3755 19.3119 14.3059 19.2879C14.2451 19.2658 14.1705 19.2621 14.1177 19.3054C14.0508 19.3546 14.0388 19.4427 14.0302 19.5193C14.0186 19.6645 14.0102 19.8101 14.0001 19.9552ZM14.1014 19.8644C14.1094 19.7553 14.1143 19.6458 14.1247 19.5369C14.1331 19.483 14.1429 19.4207 14.1901 19.3864C14.2326 19.3581 14.2956 19.3792 14.3131 19.4273C14.3479 19.5106 14.3325 19.6023 14.328 19.6893L14.3155 19.8788L14.1013 19.8644H14.1014ZM14.0867 18.9338C14.3031 18.9843 14.5195 19.0347 14.7359 19.0854L14.8834 18.4534C14.8526 18.4463 14.8219 18.4393 14.7911 18.432L14.6656 18.9695L14.4681 18.9233C14.5056 18.7618 14.5434 18.6003 14.5811 18.4389L14.4895 18.4174L14.3761 18.9018L14.2014 18.8609L14.3222 18.3436L14.2295 18.3219C14.182 18.5258 14.1343 18.7298 14.0866 18.9336L14.0867 18.9338ZM14.3206 18.0619L14.9502 18.2809L14.9821 18.189C14.8996 18.1603 14.8171 18.1315 14.7345 18.1029C14.7668 18.0077 14.8022 17.9134 14.832 17.8173C14.8533 17.7388 14.8697 17.6471 14.8236 17.5742C14.7861 17.5202 14.7195 17.4856 14.6536 17.4877C14.5811 17.4908 14.522 17.5442 14.4897 17.606C14.4422 17.6955 14.4156 17.7939 14.3808 17.8887L14.3205 18.062L14.3206 18.0619ZM14.4422 18.0011C14.4759 17.9067 14.5064 17.8111 14.5428 17.7175C14.5656 17.6675 14.5932 17.6083 14.6506 17.5925C14.6979 17.5817 14.7473 17.618 14.7515 17.6664C14.7631 17.7554 14.7241 17.8395 14.6968 17.9223L14.6449 18.0716L14.4424 18.0011H14.4422ZM14.6684 17.2555C14.7871 17.3244 14.9047 17.395 15.0242 17.4627C15.0915 17.4989 15.1769 17.5196 15.2473 17.479C15.3434 17.4258 15.4036 17.3277 15.4506 17.2319C15.4879 17.1513 15.5148 17.0511 15.4675 16.9686C15.4164 16.8861 15.3236 16.8483 15.2445 16.7992L15.014 16.6643C14.9977 16.6923 14.9815 16.7202 14.9651 16.748C15.0781 16.8145 15.1919 16.8797 15.3042 16.9472C15.3581 16.9798 15.4026 17.0391 15.3934 17.105C15.3827 17.1835 15.3378 17.2525 15.2931 17.3158C15.2562 17.3673 15.1942 17.4088 15.1285 17.395C15.06 17.3817 15.0043 17.3369 14.944 17.3044L14.7173 17.1719C14.7011 17.1998 14.6848 17.2277 14.6684 17.2555ZM15.1486 16.4708L15.678 16.8758C15.7601 16.7687 15.842 16.6611 15.9246 16.5543C15.9721 16.4862 16.0159 16.3977 15.9838 16.3141C15.9546 16.2474 15.8861 16.196 15.8126 16.1926C15.7796 16.1881 15.7363 16.2132 15.7185 16.2242C15.7372 16.1532 15.6791 16.0863 15.6135 16.0676C15.5348 16.0395 15.4549 16.0901 15.4028 16.1461C15.3414 16.2128 15.2901 16.288 15.2341 16.359L15.1486 16.4707L15.1486 16.4708ZM15.2827 16.4508C15.3448 16.3717 15.4034 16.2895 15.4683 16.2125C15.4985 16.1789 15.5469 16.1408 15.5937 16.1655C15.6364 16.184 15.6469 16.2378 15.6266 16.2766C15.5941 16.3458 15.5407 16.402 15.4961 16.4635C15.472 16.4952 15.4478 16.5268 15.4235 16.5585C15.3765 16.5227 15.3296 16.4868 15.2827 16.4508ZM15.4986 16.616C15.5627 16.5337 15.6234 16.4485 15.6912 16.3692C15.7258 16.3329 15.7694 16.2873 15.8243 16.2977C15.8714 16.3085 15.9056 16.3593 15.8893 16.4068C15.8629 16.494 15.7976 16.5608 15.7451 16.6331L15.6623 16.7413L15.4986 16.616H15.4986ZM15.7488 15.7637L16.2066 16.2483L16.5987 15.8777L16.5337 15.8088L16.22 16.1052L16.2119 16.1127L16.2061 16.1067L15.8191 15.6971L15.7488 15.7637ZM16.3357 15.2502L16.7421 15.7787L16.8214 15.7177L16.415 15.1892L16.3357 15.2502ZM16.9328 14.8447C16.867 14.8857 16.8138 14.9337 16.773 14.9897C16.7321 15.0455 16.7102 15.1038 16.707 15.1645C16.7038 15.2253 16.7201 15.2842 16.7559 15.3417C16.7881 15.3937 16.8335 15.4361 16.8876 15.4646C16.9421 15.4937 17.0045 15.5052 17.0659 15.4974C17.1304 15.4902 17.2031 15.4616 17.284 15.4112C17.3616 15.3629 17.4167 15.3071 17.4506 15.2429C17.4831 15.1814 17.4923 15.1161 17.4784 15.0465L17.3862 15.0825C17.4104 15.2158 17.3244 15.2797 17.2282 15.3408C17.0776 15.4325 16.9309 15.4258 16.841 15.2882C16.7478 15.133 16.8497 15.0048 16.9778 14.9215C17.0686 14.8648 17.1584 14.826 17.2436 14.8803L17.3158 14.816C17.266 14.7815 17.2059 14.7651 17.1455 14.7693C17.078 14.7732 17.0076 14.7979 16.933 14.8445L16.9328 14.8447ZM17.7206 14.4515L17.6508 15.1986L17.7546 15.1567L17.7756 14.9251H17.7759L18.1132 14.789L18.2891 14.9413L18.3928 14.8994L17.8245 14.4098L17.7206 14.4516V14.4515ZM17.8118 14.5282L18.0335 14.72L17.7853 14.82L17.812 14.5281L17.8118 14.5282ZM19.1817 14.0394L19.2234 14.7048C19.3437 14.6967 19.4642 14.691 19.5842 14.681C19.6788 14.6702 19.7802 14.6457 19.8449 14.5704C19.9282 14.4779 19.9401 14.3396 19.9036 14.2246C19.873 14.1232 19.7818 14.0465 19.6786 14.0271C19.577 14.0075 19.4733 14.0229 19.371 14.0276L19.1818 14.0395L19.1817 14.0394ZM19.2844 14.1279C19.3802 14.1229 19.4758 14.1135 19.5717 14.1129C19.6263 14.111 19.6801 14.1274 19.7242 14.1596C19.7909 14.2052 19.8301 14.2874 19.8214 14.3679C19.8166 14.4607 19.7485 14.5459 19.6584 14.5693C19.6069 14.5827 19.5534 14.5864 19.5006 14.5922L19.3141 14.6039L19.2844 14.1279ZM20.1109 14C20.0984 14.2218 20.0856 14.4437 20.073 14.6656L20.7207 14.7026L20.7261 14.6082C20.5425 14.5977 20.3588 14.5871 20.1751 14.5767L20.1867 14.374C20.3521 14.3833 20.5177 14.3929 20.6832 14.4023L20.6886 14.3082C20.5231 14.2988 20.3576 14.2893 20.192 14.2798C20.1953 14.2201 20.1989 14.1603 20.2022 14.1007C20.3791 14.1107 20.5559 14.1208 20.7326 14.1309L20.7382 14.0359L20.1111 14.0001L20.1109 14ZM21.8517 14.2777L21.6106 14.8993L21.6964 14.9326L21.8875 14.4398L21.8973 14.4142L21.908 14.4426L22.1378 15.1039L22.2501 15.1474L22.4912 14.5259L22.4052 14.4926L22.2142 14.9851L22.2045 15.0103L22.194 14.9822L21.9637 14.3213L21.8517 14.2777ZM22.7472 14.6625L22.4442 15.2562L22.3551 15.2108L22.6582 14.617L22.7472 14.6625ZM23.2501 14.9571C23.1854 14.9143 23.1196 14.8861 23.0517 14.8723C22.9839 14.8586 22.9217 14.8628 22.8652 14.8853C22.8086 14.9078 22.7619 14.947 22.7246 15.0037C22.6909 15.0546 22.6713 15.1137 22.668 15.1747C22.6641 15.2366 22.6788 15.2947 22.7125 15.3505C22.7458 15.406 22.802 15.4601 22.8816 15.5127C22.958 15.5631 23.0316 15.5898 23.1041 15.5939C23.1722 15.5982 23.2396 15.5781 23.2941 15.5373L23.2229 15.4684C23.1119 15.5461 23.0179 15.4947 22.9222 15.4326C22.7761 15.3341 22.721 15.1979 22.8085 15.0588C22.9106 14.9093 23.0696 14.9484 23.1988 15.0302C23.2883 15.0892 23.3609 15.1543 23.3471 15.2546L23.4357 15.2934C23.4461 15.2338 23.4369 15.1759 23.4069 15.119C23.3754 15.0592 23.3234 15.0057 23.25 14.9572L23.2501 14.9571ZM23.8849 15.4358L23.188 15.7138L23.2725 15.7872L23.4883 15.7005L23.4886 15.7008L23.7631 15.9392L23.7076 16.165L23.7921 16.2383L23.9694 15.5092L23.8848 15.4358H23.8849ZM23.8582 15.5519L23.7882 15.8367L23.5862 15.6612L23.8582 15.5519ZM24.3884 15.8992L23.874 16.3233L23.9359 16.3983L24.1382 16.2317C24.2068 16.3138 24.2736 16.3977 24.3436 16.4787C24.3221 16.5909 24.3006 16.7031 24.2798 16.8153L24.3583 16.9107C24.3806 16.7922 24.403 16.6738 24.4253 16.5553C24.4828 16.6026 24.5671 16.6262 24.636 16.5888C24.6951 16.5608 24.7473 16.507 24.7504 16.4384C24.7576 16.3466 24.6921 16.2721 24.6396 16.2039C24.5559 16.1023 24.4721 16.0007 24.3883 15.8992H24.3884ZM24.3771 16.0347C24.4491 16.1236 24.5246 16.2097 24.5935 16.3013C24.6251 16.3484 24.6647 16.4147 24.6285 16.4697C24.5985 16.5169 24.5326 16.5127 24.4925 16.4822C24.4108 16.4272 24.3569 16.343 24.2931 16.2699L24.2116 16.171L24.3771 16.0346L24.3771 16.0347ZM25.1682 16.96L24.4187 16.9944L24.4746 17.0914L24.7069 17.0802L24.7071 17.0806L24.8885 17.3956L24.7621 17.5908L24.8179 17.6879L25.2241 17.0571L25.1683 16.9601L25.1682 16.96ZM25.1051 17.061L24.9457 17.3071L24.8122 17.0752L25.1051 17.061ZM25.5959 17.8425C25.5542 17.7294 25.4886 17.6136 25.3773 17.557C25.2536 17.4948 25.0888 17.5251 25.0011 17.6341C24.9246 17.7246 24.9206 17.8528 24.9411 17.9641C24.9652 18.092 25.0238 18.2137 25.1119 18.3099C25.0952 18.3157 25.0787 18.3218 25.0621 18.3278L25.0941 18.4165C25.1982 18.379 25.3022 18.3415 25.4063 18.3042C25.3658 18.1917 25.3255 18.0793 25.2849 17.9669C25.2607 17.9756 25.2368 17.9842 25.2127 17.9927L25.3021 18.2414C25.2668 18.2539 25.2316 18.2667 25.1962 18.2793C25.1029 18.1992 25.0509 18.0807 25.0237 17.9628C25.0037 17.8743 25.0029 17.7683 25.0701 17.6987C25.1471 17.6187 25.2834 17.5938 25.3759 17.662C25.467 17.7288 25.5184 17.837 25.5444 17.9443C25.5622 18.015 25.5594 18.099 25.5057 18.1542C25.4907 18.1654 25.5145 18.1811 25.5186 18.1945L25.5441 18.2366C25.5722 18.2144 25.595 18.1861 25.6105 18.1538C25.6261 18.1215 25.6339 18.086 25.6336 18.0502C25.6355 17.9792 25.6198 17.9087 25.5961 17.8422L25.5959 17.8425ZM25.7876 18.3632L25.4146 18.4357C25.3455 18.449 25.2936 18.4711 25.259 18.5002C25.2245 18.5293 25.2023 18.5703 25.1917 18.6249C25.1812 18.6788 25.1827 18.7451 25.1981 18.8256L25.1985 18.8274C25.2143 18.9079 25.2378 18.9699 25.2679 19.0159C25.2982 19.0626 25.3341 19.0923 25.3771 19.1063C25.42 19.1205 25.4762 19.1213 25.5454 19.1078L25.9183 19.0353L25.8998 18.9402L25.536 19.011C25.3726 19.0427 25.3176 18.9568 25.2896 18.8097L25.2892 18.8079C25.2601 18.661 25.2788 18.5608 25.4421 18.5289L25.806 18.4581L25.7876 18.3631L25.7876 18.3632ZM25.992 19.4978L25.3021 19.2028L25.3102 19.3145L25.5244 19.4053V19.4058L25.5506 19.7682L25.3518 19.8891L25.36 20.0008L26.0001 19.6093L25.9921 19.4977L25.992 19.4978ZM25.8911 19.5612L25.6407 19.7135L25.6214 19.4466L25.8911 19.5612ZM14.5167 21.2223L14.4201 21.2478L14.5271 21.654L14.6237 21.6285L14.5167 21.2223ZM25.4856 21.2223L25.5822 21.2478L25.4754 21.6539L25.3787 21.6285L25.4856 21.2223ZM15.5479 22.9325L14.8025 23.0183L14.8647 23.1113L15.0957 23.0841L15.0959 23.0844L15.2984 23.3863L15.1857 23.5897L15.2481 23.6827L15.6101 23.0255L15.5477 22.9325H15.5479ZM15.4917 23.0377L15.3497 23.2941L15.2006 23.0717L15.4917 23.0376V23.0377ZM15.8332 23.3398L15.3581 23.7842L15.4214 23.852L15.8219 23.4776L15.6119 24.0557L15.6846 24.1335L16.2588 23.9593L15.8655 24.327L15.929 24.3948L16.404 23.9505L16.3077 23.8475L15.7244 24.0217L15.9427 23.4572L15.8332 23.3398ZM16.5252 24.0458L16.1242 24.5785L16.6426 24.9688L16.6996 24.8932L16.2587 24.5611L16.3807 24.399L16.7781 24.6982L16.8347 24.6229L16.4374 24.3238L16.5454 24.1802C16.6869 24.2869 16.8283 24.3933 16.9698 24.4998L17.0271 24.4238L16.5252 24.0459V24.0458ZM17.1776 24.5233L16.8636 25.1115L16.9494 25.1573L17.0729 24.9261C17.1676 24.9761 17.2612 25.0281 17.3569 25.0763C17.3799 25.1882 17.4027 25.3001 17.4262 25.4119L17.5351 25.4701L17.4618 25.1162C17.5331 25.1378 17.62 25.1277 17.6693 25.0668C17.7114 25.0199 17.7399 24.954 17.7198 24.891C17.6965 24.8041 17.6109 24.7585 17.5386 24.7165C17.4185 24.6518 17.2978 24.5879 17.1776 24.5235L17.1776 24.5233ZM17.2186 24.653C17.3191 24.7078 17.422 24.7587 17.5203 24.8172C17.566 24.8478 17.6239 24.89 17.6181 24.9522C17.6131 25.0067 17.5543 25.0358 17.5046 25.0242C17.4073 25.0081 17.3252 24.95 17.2386 24.9067L17.1177 24.8422L17.2186 24.6531L17.2186 24.653ZM17.9306 24.9171L17.6786 25.5343L17.7711 25.5721L18.0231 24.9548L17.9306 24.9171ZM18.5317 25.1248C18.4581 25.1003 18.3872 25.0901 18.3181 25.0944C18.2491 25.0987 18.1902 25.119 18.1414 25.1554C18.0926 25.1917 18.0577 25.2418 18.0364 25.3062C18.0169 25.3642 18.0133 25.4263 18.0259 25.4861C18.0384 25.5469 18.0677 25.5991 18.1146 25.6442C18.1613 25.6892 18.2296 25.727 18.3201 25.757C18.407 25.7858 18.4851 25.7926 18.5561 25.7777C18.623 25.7642 18.6828 25.7272 18.725 25.6735L18.6381 25.6258C18.5511 25.7295 18.447 25.7043 18.3385 25.6693C18.1718 25.6118 18.0832 25.4947 18.1316 25.3376C18.1915 25.1667 18.3552 25.1633 18.5011 25.2087C18.6027 25.2423 18.6899 25.2865 18.7027 25.3867L18.7982 25.4013C18.7929 25.3409 18.7671 25.2842 18.7251 25.2404C18.6793 25.1909 18.6151 25.1526 18.5316 25.1248L18.5317 25.1248ZM19.202 25.2748L18.766 25.8854L18.8768 25.9014L19.0115 25.7118H19.012L19.3718 25.7639L19.4471 25.9839L19.558 26L19.313 25.2908L19.2021 25.2748H19.202ZM19.2423 25.3868L19.3373 25.6642L19.0726 25.6258L19.2423 25.3868ZM20.7647 25.2795C20.6886 25.2943 20.6218 25.32 20.5636 25.3577C20.5055 25.3952 20.4641 25.4417 20.4394 25.4973C20.4146 25.5529 20.4086 25.6137 20.4215 25.6802C20.4333 25.7412 20.4598 25.7952 20.5005 25.8422C20.5411 25.8891 20.5923 25.9203 20.6552 25.9368C20.7179 25.9531 20.7961 25.9526 20.8896 25.9345C20.9796 25.9172 21.0508 25.8848 21.1054 25.837C21.1571 25.7925 21.1913 25.7311 21.2018 25.6637L21.1028 25.6643C21.0776 25.7973 20.9745 25.8263 20.8628 25.8488C20.6895 25.8805 20.5548 25.8217 20.5201 25.661C20.4887 25.4827 20.6297 25.3996 20.7793 25.3677C20.8843 25.3473 20.982 25.3432 21.0421 25.4245L21.1326 25.3903C21.0984 25.3402 21.0481 25.3033 20.9901 25.2857C20.9259 25.2651 20.8511 25.263 20.7647 25.2797V25.2795ZM21.2099 25.2007C21.2732 25.4137 21.3363 25.6268 21.3996 25.8398C21.6069 25.7782 21.8142 25.7168 22.0216 25.6553C22.0125 25.625 22.0036 25.5947 21.9946 25.5644L21.4654 25.7214C21.4462 25.6566 21.4271 25.5917 21.4077 25.5268C21.5666 25.4797 21.7256 25.4327 21.8846 25.3854L21.8577 25.295L21.3809 25.4365L21.3299 25.2644L21.8392 25.1133L21.8121 25.0219L21.2099 25.2007ZM21.9311 24.974C22.0245 25.1757 22.1178 25.3773 22.211 25.579L22.2946 25.5405L22.0612 25.0358C22.2769 25.1337 22.4915 25.2344 22.7067 25.3333C22.7211 25.3458 22.7354 25.3375 22.7497 25.3298L22.8336 25.2911C22.7403 25.0894 22.647 24.8878 22.5538 24.6861L22.4701 24.7247L22.7032 25.2287C22.4816 25.1282 22.2613 25.0251 22.0402 24.9237C22.0038 24.9403 21.9675 24.9572 21.9311 24.974H21.9311ZM22.6632 24.6302L22.7154 24.7095L22.9536 24.5528L22.9626 24.5468L22.9671 24.5537L23.2768 25.0243L23.3579 24.971L23.0481 24.5004L23.0436 24.4936L23.0529 24.4875L23.2921 24.33L23.24 24.2507L22.6632 24.6302ZM23.334 24.1708L23.7858 24.6611C23.8096 24.6392 23.8335 24.6171 23.8575 24.5953L23.6796 24.4023C23.758 24.3293 23.838 24.2582 23.9151 24.1837C24.0283 24.1989 24.1416 24.2143 24.2548 24.2289L24.3456 24.1453L23.9873 24.0978C24.0311 24.0378 24.0501 23.9523 24.009 23.8856C23.9778 23.8281 23.9212 23.7789 23.8526 23.7797C23.7605 23.7775 23.6896 23.8471 23.6245 23.9031L23.334 24.1708ZM23.47 24.1747C23.5547 24.098 23.6366 24.0177 23.7241 23.944C23.7696 23.9098 23.8336 23.8665 23.8906 23.8998C23.9392 23.9273 23.9387 23.9932 23.9106 24.0348C23.8601 24.1196 23.7789 24.1782 23.7092 24.2458L23.6153 24.3325C23.567 24.2798 23.5184 24.2273 23.47 24.1747ZM24.1096 23.3945L24.4079 24.083L24.4787 23.9963L24.3856 23.7832L24.3859 23.7828L24.6161 23.5013L24.8435 23.5503L24.9145 23.4637L24.1806 23.3078L24.1097 23.3945H24.1096ZM24.2264 23.4178L24.5131 23.4793L24.3436 23.6865L24.2264 23.4178V23.4178ZM24.3999 23.0168L24.9593 23.3796L25.2529 22.9269L25.1734 22.8752L24.9386 23.2375L24.9326 23.2467L24.9255 23.2422L24.4526 22.9355L24.3999 23.0168Z" fill="#C8A400"/>
<mask id="mask2_16699_275400" style="mask-type:luminance" maskUnits="userSpaceOnUse" x="15" y="15" width="10" height="8">
<path d="M19.9999 15.0917L15.7531 22.4472H24.2464L19.9999 15.0917Z" fill="white"/>
</mask>
<g mask="url(#mask2_16699_275400)">
<path d="M19.9999 15.0939L17.9014 18.7295L16.8734 20.5097H23.1265L22.1455 18.8108L19.9999 15.094V15.0939Z" fill="white"/>
<path opacity="0.62" d="M19.9999 15.0939L19.8428 15.366L19.9999 19.0312L20.157 15.366L19.9999 15.0939Z" fill="#17C0EB" stroke="#17C0EB" stroke-width="0.0515"/>
<path d="M19.9999 18.4983L19.9911 18.4985L20 18.7058L20.009 18.4985L20.0001 18.4983H19.9999Z" fill="white"/>
<path opacity="0.62" d="M23.7445 17.8145L23.4371 17.7492L19.9999 19.0312L23.5342 18.0481L23.7445 17.8145Z" fill="#17C0EB" stroke="#17C0EB" stroke-width="0.0515"/>
<path d="M20.5066 18.8665L20.5037 18.8582L20.3093 18.9307L20.5092 18.8752L20.5066 18.8667V18.8665Z" fill="white"/>
<path opacity="0.62" d="M22.3141 22.2165L22.2813 21.904L19.9999 19.0312L22.027 22.0887L22.3141 22.2165Z" fill="#17C0EB" stroke="#17C0EB" stroke-width="0.0515"/>
<path d="M20.3131 19.4622L20.3202 19.4569L20.1911 19.2944L20.3057 19.4674L20.313 19.4623L20.3131 19.4622Z" fill="white"/>
<path opacity="0.62" d="M17.6856 22.2165L17.9726 22.0886L19.9999 19.0311L17.7184 21.904L17.6856 22.2165Z" fill="#17C0EB" stroke="#17C0EB" stroke-width="0.0515"/>
<path d="M19.6868 19.4622L19.6941 19.4672L19.8087 19.2943L19.6795 19.4567C19.682 19.4585 19.6843 19.4604 19.6867 19.4621L19.6868 19.4622Z" fill="white"/>
<path opacity="0.62" d="M16.2554 17.8144L16.4657 18.0479L20 19.0312L16.5628 17.749L16.2554 17.8144Z" fill="#17C0EB" stroke="#17C0EB" stroke-width="0.0515"/>
<path d="M19.4931 18.8666L19.4906 18.8751L19.6905 18.9306L19.4961 18.858L19.4932 18.8664L19.4931 18.8666Z" fill="white"/>
<path opacity="0.62" d="M20.5479 15.1322L20.3545 15.3799L19.9999 19.0311L20.6656 15.4235L20.5479 15.1322Z" fill="#17C0EB" stroke="#17C0EB" stroke-width="0.0515"/>
<path d="M20.0741 18.5036L20.0653 18.5026L20.0453 18.7091L20.083 18.5051L20.0743 18.5036H20.0741Z" fill="white"/>
<path opacity="0.62" d="M23.8773 18.3475L23.582 18.2401L19.9999 19.0312L23.6366 18.5496L23.8773 18.3475Z" fill="#17C0EB" stroke="#17C0EB" stroke-width="0.0515"/>
<path d="M20.5246 18.9386L20.5229 18.9299L20.3202 18.9748L20.5259 18.9476L20.5246 18.9388V18.9386Z" fill="white"/>
<path opacity="0.62" d="M21.8483 22.5075L21.8592 22.1935L19.9999 19.0312L21.5818 22.3411L21.8483 22.5075Z" fill="#17C0EB" stroke="#17C0EB" stroke-width="0.0515"/>
<path d="M20.25 19.5016L20.2578 19.4973L20.1525 19.3184L20.2419 19.5057L20.2499 19.5016H20.25Z" fill="white"/>
<path opacity="0.62" d="M17.2648 21.8634L17.5668 21.7767L19.9998 19.0311L17.3407 21.5585L17.2648 21.8634Z" fill="#17C0EB" stroke="#17C0EB" stroke-width="0.0515"/>
<path d="M19.6298 19.4143L19.6363 19.4204L19.7739 19.265L19.6234 19.4079C19.6255 19.41 19.6275 19.4123 19.6297 19.4143L19.6298 19.4143Z" fill="white"/>
<path opacity="0.62" d="M16.4611 17.3052L16.6369 17.5657L19.9999 19.0312L16.7746 17.2832L16.4611 17.3052Z" fill="#17C0EB" stroke="#17C0EB" stroke-width="0.0515"/>
<path d="M19.521 18.7976L19.5173 18.8057L19.7075 18.8886L19.5252 18.7896C19.5239 18.7923 19.5224 18.7949 19.521 18.7975V18.7976Z" fill="white"/>
<path opacity="0.62" d="M21.0851 15.2465L20.8591 15.4648L19.9999 19.0312L21.1612 15.5514L21.0851 15.2465Z" fill="#17C0EB" stroke="#17C0EB" stroke-width="0.0515"/>
<path d="M20.1467 18.519L20.1382 18.5168L20.0897 18.7185L20.1554 18.5217C20.1526 18.5209 20.1497 18.5199 20.1469 18.5191L20.1467 18.519Z" fill="white"/>
<path opacity="0.62" d="M23.9348 18.8938L23.6573 18.7463L19.9999 19.0312L23.6683 19.0604L23.9348 18.8938Z" fill="#17C0EB" stroke="#17C0EB" stroke-width="0.0515"/>
<path d="M20.5324 19.0126L20.5319 19.0038L20.325 19.0199L20.5325 19.0217L20.5324 19.0126Z" fill="white"/>
<path opacity="0.62" d="M21.3465 22.731L21.401 22.4215L19.9999 19.0312L21.1057 22.529L21.3465 22.731Z" fill="#17C0EB" stroke="#17C0EB" stroke-width="0.0515"/>
<path d="M20.1821 19.5319L20.1904 19.5286L20.111 19.3369L20.1735 19.5348C20.1764 19.5337 20.1792 19.5329 20.1819 19.5319H20.1821Z" fill="white"/>
<path opacity="0.62" d="M16.8973 21.4552L17.2085 21.4114L19.9999 19.0312L17.015 21.1638L16.8973 21.4552Z" fill="#17C0EB" stroke="#17C0EB" stroke-width="0.0515"/>
<path d="M19.58 19.3592L19.5856 19.3661L19.7435 19.2314L19.5746 19.352L19.5799 19.3591L19.58 19.3592Z" fill="white"/>
<path opacity="0.62" d="M16.7357 16.8295L16.8736 17.1119L19.9999 19.0312L17.0492 16.8514L16.7357 16.8295Z" fill="#17C0EB" stroke="#17C0EB" stroke-width="0.0515"/>
<path d="M19.5582 18.7333L19.5535 18.7407L19.7303 18.8492L19.5635 18.7259C19.5618 18.7284 19.56 18.7307 19.5583 18.7331L19.5582 18.7333Z" fill="white"/>
<path opacity="0.62" d="M21.6013 15.4343L21.3471 15.6191L19.9999 19.0312L21.6342 15.7469L21.6013 15.4343Z" fill="#17C0EB" stroke="#17C0EB" stroke-width="0.0515"/>
<path d="M20.2166 18.5444L20.2084 18.541L20.1322 18.734L20.2248 18.5483C20.222 18.5471 20.2194 18.5457 20.2167 18.5445L20.2166 18.5444Z" fill="white"/>
<path opacity="0.62" d="M23.9156 19.4427L23.6614 19.2581L19.9999 19.0312L23.6285 19.5706L23.9156 19.4427Z" fill="#17C0EB" stroke="#17C0EB" stroke-width="0.0515"/>
<path d="M20.5298 19.0869L20.5305 19.0781L20.3234 19.0653L20.5287 19.0959L20.5298 19.0871V19.0869Z" fill="white"/>
<path opacity="0.62" d="M20.8185 22.8824L20.9155 22.5836L19.9999 19.0312L20.6081 22.6489L20.8185 22.8824Z" fill="#17C0EB" stroke="#17C0EB" stroke-width="0.0515"/>
<path d="M20.1107 19.5524L20.1193 19.5503L20.0674 19.3494L20.1018 19.554C20.1047 19.5534 20.1077 19.5529 20.1105 19.5524H20.1107Z" fill="white"/>
<path opacity="0.62" d="M16.5902 20.9998H16.9044L20 19.0312L16.7473 20.7276L16.5902 20.9998Z" fill="#17C0EB" stroke="#17C0EB" stroke-width="0.0515"/>
<path d="M19.5385 19.2975L19.5431 19.3051L19.7182 19.1938L19.5342 19.2896C19.5357 19.2922 19.537 19.295 19.5384 19.2975L19.5385 19.2975Z" fill="white"/>
<path opacity="0.62" d="M17.0739 16.3966L17.171 16.6954L19.9998 19.0312L17.3813 16.4619L17.0739 16.3966Z" fill="#17C0EB" stroke="#17C0EB" stroke-width="0.0515"/>
<path d="M19.604 18.6746L19.5982 18.6814L19.7583 18.8134L19.6102 18.668L19.6041 18.6745L19.604 18.6746Z" fill="white"/>
<path opacity="0.62" d="M22.0863 15.6922L21.8089 15.8398L19.9999 19.0312L22.0755 16.0063L22.0863 15.6922Z" fill="#17C0EB" stroke="#17C0EB" stroke-width="0.0515"/>
<path d="M20.2823 18.5794L20.2747 18.5749L20.1724 18.7554L20.2899 18.5844C20.2874 18.5827 20.2849 18.581 20.2824 18.5795L20.2823 18.5794Z" fill="white"/>
<path opacity="0.62" d="M23.8202 19.9837L23.5941 19.7654L19.9999 19.0312L23.5181 20.0704L23.8202 19.9837Z" fill="#17C0EB" stroke="#17C0EB" stroke-width="0.0515"/>
<path d="M20.5168 19.1602L20.5188 19.1515L20.3154 19.11L20.5144 19.1689C20.5152 19.166 20.5161 19.1631 20.5168 19.1602L20.5168 19.1602Z" fill="white"/>
<path opacity="0.62" d="M20.2745 22.9589L20.4122 22.6764L19.9999 19.0312L20.0987 22.6984L20.2745 22.9589Z" fill="#17C0EB" stroke="#17C0EB" stroke-width="0.0515"/>
<path d="M20.037 19.5627L20.0459 19.5619L20.0225 19.3557L20.0279 19.5631C20.0309 19.563 20.0339 19.563 20.0369 19.5627H20.037Z" fill="white"/>
<path opacity="0.62" d="M16.3492 20.5061L16.6604 20.5498L19.9998 19.0312L16.5427 20.2584L16.3492 20.5061Z" fill="#17C0EB" stroke="#17C0EB" stroke-width="0.0515"/>
<path d="M19.5059 19.2308L19.5094 19.2389L19.6983 19.153L19.5027 19.2223C19.5038 19.225 19.5047 19.2279 19.5059 19.2306V19.2308Z" fill="white"/>
<path opacity="0.62" d="M17.4691 16.0151L17.5237 16.3246L19.9999 19.0312L17.7645 16.1226L17.4691 16.0151Z" fill="#17C0EB" stroke="#17C0EB" stroke-width="0.0515"/>
<path d="M19.6574 18.623L19.6508 18.6289L19.7909 18.782L19.6645 18.6174L19.6576 18.623L19.6574 18.623Z" fill="white"/>
<path opacity="0.62" d="M22.5307 16.015L22.2355 16.1225L19.9999 19.0312L22.4762 16.3245L22.5307 16.015Z" fill="#17C0EB" stroke="#17C0EB" stroke-width="0.0515"/>
<path d="M20.3425 18.6231L20.3355 18.6176L20.209 18.7821L20.3492 18.6291L20.3425 18.6231L20.3425 18.6231Z" fill="white"/>
<path opacity="0.62" d="M23.6505 20.5061L23.457 20.2585L19.9999 19.0312L23.3392 20.5499L23.6505 20.5061Z" fill="#17C0EB" stroke="#17C0EB" stroke-width="0.0515"/>
<path d="M20.4939 19.2308L20.497 19.2225L20.3015 19.1531L20.4903 19.2392L20.4939 19.2309V19.2308Z" fill="white"/>
<path opacity="0.62" d="M19.7253 22.9589L19.901 22.6984L20 19.0312L19.5875 22.6764L19.7253 22.9589Z" fill="#17C0EB" stroke="#17C0EB" stroke-width="0.0515"/>
<path d="M19.9628 19.5627L19.9716 19.5631L19.9772 19.3556L19.9538 19.5618C19.9568 19.562 19.9597 19.5624 19.9626 19.5627H19.9628Z" fill="white"/>
<path opacity="0.62" d="M16.1795 19.9837L16.4816 20.0703L19.9998 19.0312L16.4056 19.7654L16.1795 19.9837Z" fill="#17C0EB" stroke="#17C0EB" stroke-width="0.0515"/>
<path d="M19.4828 19.1601L19.4852 19.1686L19.6843 19.1098L19.4808 19.1513C19.4816 19.1541 19.4821 19.1571 19.4828 19.16V19.1601Z" fill="white"/>
<path opacity="0.62" d="M17.9135 15.6922L17.9245 16.0062L19.9999 19.0312L18.191 15.8397L17.9135 15.6922Z" fill="#17C0EB" stroke="#17C0EB" stroke-width="0.0515"/>
<path d="M19.7175 18.5794L19.7101 18.5842L19.8275 18.7553L19.7253 18.5747L19.7176 18.5793L19.7175 18.5794Z" fill="white"/>
<path opacity="0.62" d="M22.9259 16.3966L22.6185 16.462L19.9999 19.0312L22.8288 16.6955L22.9259 16.3966Z" fill="#17C0EB" stroke="#17C0EB" stroke-width="0.0515"/>
<path d="M20.3959 18.6747L20.3898 18.6682L20.2417 18.8136L20.4018 18.6815C20.3998 18.6793 20.398 18.677 20.396 18.6748L20.3959 18.6747Z" fill="white"/>
<path opacity="0.62" d="M23.4096 20.9998L23.2525 20.7277L19.9999 19.0311L23.0954 20.9999L23.4096 20.9998Z" fill="#17C0EB" stroke="#17C0EB" stroke-width="0.0515"/>
<path d="M20.4614 19.2975L20.4656 19.2898L20.2816 19.1938L20.4566 19.3053L20.4613 19.2977L20.4614 19.2975Z" fill="white"/>
<path opacity="0.62" d="M19.1813 22.8824L19.3915 22.6489L19.9999 19.0311L19.084 22.5835L19.1813 22.8824Z" fill="#17C0EB" stroke="#17C0EB" stroke-width="0.0515"/>
<path d="M19.8892 19.5523L19.8979 19.554L19.9323 19.3493L19.8804 19.5502C19.8833 19.5509 19.8862 19.5517 19.889 19.5523H19.8892Z" fill="white"/>
<path opacity="0.62" d="M16.0842 19.4427L16.3712 19.5705L19.9998 19.0311L16.3383 19.258L16.0842 19.4427Z" fill="#17C0EB" stroke="#17C0EB" stroke-width="0.0515"/>
<path d="M19.47 19.0869L19.4712 19.0956L19.6765 19.0651L19.4693 19.0778L19.47 19.0867V19.0869Z" fill="white"/>
<path opacity="0.62" d="M18.3984 15.4343L18.3656 15.7468L19.9999 19.0312L18.6527 15.619L18.3984 15.4343Z" fill="#17C0EB" stroke="#17C0EB" stroke-width="0.0515"/>
<path d="M19.7831 18.5444L19.7751 18.5482L19.8676 18.734L19.7915 18.5409C19.7888 18.5421 19.7859 18.5431 19.7833 18.5444H19.7831Z" fill="white"/>
<path opacity="0.62" d="M23.264 16.8295L22.9505 16.8515L19.9999 19.0311L23.1263 17.112L23.264 16.8295Z" fill="#17C0EB" stroke="#17C0EB" stroke-width="0.0515"/>
<path d="M20.4415 18.7332L20.4364 18.726L20.2695 18.8493L20.4464 18.7409C20.4448 18.7384 20.4433 18.7358 20.4416 18.7334L20.4415 18.7332Z" fill="white"/>
<path opacity="0.62" d="M23.1025 21.4552L22.9847 21.1639L19.9999 19.0312L22.7912 21.4115L23.1025 21.4552Z" fill="#17C0EB" stroke="#17C0EB" stroke-width="0.0515"/>
<path d="M20.4197 19.3592L20.4251 19.3521L20.2562 19.2314L20.414 19.3662L20.4197 19.3593L20.4197 19.3592Z" fill="white"/>
<path opacity="0.62" d="M18.6533 22.7309L18.8939 22.5289L19.9999 19.0312L18.5987 22.4215L18.6533 22.7309Z" fill="#17C0EB" stroke="#17C0EB" stroke-width="0.0515"/>
<path d="M19.8177 19.5319L19.8261 19.5347L19.8886 19.3368L19.8093 19.5285C19.8121 19.5295 19.8148 19.5308 19.8176 19.5318L19.8177 19.5319Z" fill="white"/>
<path opacity="0.62" d="M16.0651 18.8938L16.3315 19.0602L20 19.0312L16.3425 18.7461L16.0651 18.8938Z" fill="#17C0EB" stroke="#17C0EB" stroke-width="0.0515"/>
<path d="M19.4674 19.0126L19.4673 19.0215L19.6748 19.0198L19.468 19.0035L19.4674 19.0125V19.0126Z" fill="white"/>
<path opacity="0.62" d="M18.9147 15.2465L18.8387 15.5513L19.9999 19.0311L19.1408 15.4647L18.9147 15.2465Z" fill="#17C0EB" stroke="#17C0EB" stroke-width="0.0515"/>
<path d="M19.8531 18.5191L19.8446 18.5216L19.9104 18.7185L19.8619 18.5167C19.8589 18.5176 19.856 18.5181 19.8532 18.519L19.8531 18.5191Z" fill="white"/>
<path opacity="0.62" d="M23.5387 17.3052L23.2252 17.2833L19.9999 19.0312L23.363 17.5658L23.5387 17.3052Z" fill="#17C0EB" stroke="#17C0EB" stroke-width="0.0515"/>
<path d="M20.4789 18.7976L20.4748 18.7897L20.2924 18.8886L20.4826 18.8058C20.4813 18.8031 20.4802 18.8003 20.4789 18.7977V18.7976Z" fill="white"/>
<path opacity="0.62" d="M22.735 21.8634L22.6589 21.5585L19.9999 19.0312L22.4328 21.7769L22.735 21.8634Z" fill="#17C0EB" stroke="#17C0EB" stroke-width="0.0515"/>
<path d="M20.37 19.4144L20.3762 19.4081L20.2258 19.2652L20.3634 19.4206L20.3699 19.4145L20.37 19.4144Z" fill="white"/>
<path opacity="0.62" d="M18.1515 22.5076L18.4179 22.341L19.9999 19.0312L18.1404 22.1935L18.1515 22.5076Z" fill="#17C0EB" stroke="#17C0EB" stroke-width="0.0515"/>
<path d="M19.7498 19.5016L19.7577 19.5056L19.8471 19.3184L19.7419 19.4972L19.7496 19.5016H19.7498Z" fill="white"/>
<path opacity="0.62" d="M16.1224 18.3475L16.3632 18.5494L19.9999 19.0312L16.4177 18.24L16.1224 18.3475Z" fill="#17C0EB" stroke="#17C0EB" stroke-width="0.0515"/>
<path d="M19.4752 18.9386L19.4739 18.9475L19.6795 18.9746L19.477 18.9298L19.4752 18.9386V18.9386Z" fill="white"/>
<path opacity="0.62" d="M19.452 15.1322L19.3344 15.4235L19.9999 19.0312L19.6455 15.3799L19.452 15.1322Z" fill="#17C0EB" stroke="#17C0EB" stroke-width="0.0515"/>
<path d="M19.9257 18.5036L19.917 18.505L19.9547 18.7091L19.9347 18.5026C19.9318 18.503 19.9288 18.5031 19.9259 18.5036H19.9257Z" fill="white"/>
<path d="M19.9999 17.723C19.2909 17.722 18.6054 17.9764 18.0686 18.4396L17.0917 20.1334C17.0584 20.3114 17.0417 20.4956 17.0417 20.6834H17.377C17.377 19.235 18.5517 18.0605 20 18.0605C21.4484 18.0605 22.6229 19.235 22.6229 20.6834H22.9583C22.9583 20.4959 22.9418 20.3113 22.9083 20.1334L21.9313 18.4396C21.3945 17.9765 20.7089 17.722 19.9999 17.723Z" fill="#FF0000"/>
<path d="M19.9999 17.7771C19.2157 17.7771 18.5039 18.0888 17.9812 18.5938L17.1791 19.9834C17.1223 20.2124 17.0938 20.4474 17.0938 20.6833H17.3771C17.3771 19.2349 18.5515 18.0604 19.9999 18.0604C21.4484 18.0604 22.6228 19.2349 22.6228 20.6833H22.9062C22.9062 20.4468 22.8776 20.211 22.8208 19.9814L22.0188 18.5938C21.4961 18.0888 20.7842 17.7771 19.9999 17.7771Z" fill="#FF6600"/>
<path d="M19.9999 17.8314C19.153 17.8314 18.3933 18.1994 17.8708 18.7854L17.2894 19.7917C17.1951 20.0795 17.1474 20.3805 17.1478 20.6834H17.3769C17.3769 19.235 18.5514 18.0605 19.9998 18.0605C21.4482 18.0605 22.6227 19.235 22.6227 20.6834H22.8519C22.8519 20.3719 22.8025 20.0724 22.7103 19.7917L22.129 18.7854C21.6067 18.1995 20.8465 17.8313 19.9998 17.8313L19.9999 17.8314Z" fill="#FFFF00"/>
<path d="M19.9999 17.8834C19.0299 17.8834 18.1751 18.3776 17.6728 19.1271L17.4853 19.4521C17.2973 19.8353 17.1996 20.2565 17.2 20.6834H17.3771C17.3771 19.235 18.5515 18.0605 19.9999 18.0605C21.4483 18.0605 22.6228 19.235 22.6228 20.6834H22.7999C22.7999 20.2573 22.7023 19.8368 22.5145 19.4543L22.3248 19.1252C21.8225 18.3767 20.9691 17.8834 19.9999 17.8834Z" fill="#00FF00"/>
<path d="M19.9999 17.9375C18.4834 17.9375 17.2541 19.1668 17.2541 20.6833H17.377C17.377 19.2348 18.5515 18.0604 19.9999 18.0604C21.4483 18.0604 22.6228 19.2348 22.6228 20.6833H22.7458C22.7458 19.1668 21.5164 17.9375 19.9999 17.9375Z" fill="#00CCFF"/>
<path d="M20 17.9896C18.5129 17.9896 17.3083 19.1963 17.3083 20.6834H17.3979C17.3979 19.246 18.5625 18.0814 19.9999 18.0814C21.4372 18.0814 22.6019 19.246 22.6019 20.6834H22.6936C22.6936 19.1963 21.487 17.9896 20 17.9896Z" fill="#0000FF"/>
<path d="M19.9999 18.0439C18.5424 18.0439 17.3607 19.2256 17.3607 20.6832C17.3607 20.6995 17.3609 20.7159 17.3611 20.732H17.4145C17.4141 20.7157 17.4141 20.6994 17.4141 20.6831C17.4141 19.255 18.5717 18.0972 19.9999 18.0972C21.4281 18.0972 22.5859 19.255 22.5859 20.6831C22.5859 20.6994 22.5857 20.7157 22.5854 20.732H22.6385C22.6387 20.7156 22.6389 20.6993 22.6389 20.683C22.6389 19.2254 21.4576 18.0436 19.9999 18.0436V18.0439Z" fill="#800080"/>
<path d="M20.0262 19.2089C19.9833 19.2007 19.9445 19.1767 19.9079 19.1683C19.8575 19.2166 19.8522 19.2654 19.8592 19.3069C19.8766 19.3163 19.8799 19.3304 19.9177 19.3643C19.9555 19.3981 19.9507 19.4158 19.9485 19.4953C19.9474 19.5288 19.9532 19.6006 19.9871 19.6073C20.0236 19.6146 20.0492 19.5843 20.0597 19.5299C20.0698 19.4773 20.0875 19.4489 20.1062 19.4166C20.1267 19.2931 20.0934 19.2493 20.0262 19.2089V19.2089Z" fill="#510000"/>
<path d="M19.8111 18.9016C19.7714 18.9026 19.7092 18.9691 19.6815 18.9333C19.6655 18.9126 19.6629 18.8731 19.6791 18.8399C19.7164 18.7632 19.754 18.7255 19.8235 18.6846C19.9821 18.5912 20.0829 18.6212 20.1618 18.7554C20.2349 18.8736 20.3051 19.0041 20.3114 19.1134C20.3134 19.1469 20.3304 19.2074 20.3011 19.2374C20.2111 19.3301 19.9946 19.1419 19.8679 19.1716C19.8252 19.1816 19.7761 19.2128 19.7359 19.1862C19.7045 19.1655 19.7307 19.1197 19.754 19.0999C19.7948 19.0652 19.854 18.9422 19.846 18.8889C19.8415 18.8591 19.8407 18.9009 19.8109 18.9015L19.8111 18.9016Z" fill="#FF0000"/>
<path d="M19.795 18.8366C19.7228 18.8663 19.7306 18.9083 19.6944 18.9425C19.7046 18.9465 19.7454 18.9633 19.7853 18.9226C19.8026 18.9083 19.8219 18.903 19.8304 18.8984C19.8101 18.913 19.7956 18.9353 19.7849 18.944C19.7579 18.9659 19.7159 19.0161 19.6955 19.067C19.675 19.1179 19.6669 19.1785 19.6704 19.1858C19.6742 19.1931 19.6989 19.2378 19.7749 19.268C19.9102 19.3216 19.936 19.4305 20.0734 19.4305C20.181 19.4305 20.1637 19.36 20.2498 19.375C20.3244 19.3879 20.364 19.3285 20.2922 19.2929C20.2009 19.2616 20.0194 19.28 19.934 19.295C19.9065 19.0229 19.9304 19.1184 19.924 19.0014C19.9175 18.8844 19.8824 18.8774 19.9287 18.7827C19.8903 18.8407 19.8437 18.8315 19.7952 18.8365L19.795 18.8366Z" fill="url(#paint0_linear_16699_275400)"/>
<path d="M20.0624 18.6531C20.0597 18.668 20.0573 18.6875 20.0587 18.6931C20.0645 18.7157 20.0704 18.7393 20.0772 18.7593C20.0849 18.7817 20.088 18.7979 20.0932 18.8212C20.0987 18.8452 20.1199 18.8545 20.1395 18.8693C20.1641 18.888 20.145 18.9383 20.1605 18.9404C20.1727 18.9421 20.193 18.8691 20.1931 18.8573C20.1931 18.8417 20.193 18.829 20.1906 18.8143C20.1818 18.7947 20.1723 18.7752 20.1622 18.7562L20.1615 18.7555C20.1576 18.748 20.1534 18.7407 20.1487 18.7337C20.134 18.7122 20.1164 18.6928 20.0963 18.6762C20.095 18.6752 20.0938 18.674 20.0925 18.673C20.087 18.6687 20.0813 18.6645 20.0754 18.6606C20.0712 18.6579 20.0667 18.6556 20.0624 18.6531Z" fill="#FF2A2A"/>
<path d="M20.0833 19.1599C20.0353 19.1474 19.9882 19.1237 19.9475 19.1116C19.8675 19.0876 19.7821 19.036 19.723 19.0573C19.7019 19.0666 19.7037 19.0876 19.697 19.118C19.6942 19.1535 19.6573 19.2059 19.688 19.1886C19.7336 19.1632 19.854 19.2376 19.8943 19.2625C19.9135 19.2742 19.9538 19.2974 19.9665 19.3306C19.9791 19.3637 19.9725 19.4476 19.9691 19.4836C19.9656 19.5213 19.9771 19.6059 20.0149 19.6161C20.0555 19.6269 20.0868 19.5946 20.1026 19.5341C20.118 19.4754 20.1296 19.4416 20.1531 19.4064C20.1765 19.3712 20.2035 19.356 20.2411 19.3489C20.2787 19.3418 20.3332 19.3796 20.3332 19.3353C20.3332 19.3062 20.3075 19.2784 20.3185 19.2385C20.327 19.207 20.2917 19.2132 20.2624 19.2003C20.1933 19.179 20.131 19.1723 20.0831 19.1599H20.0833Z" fill="url(#paint1_linear_16699_275400)"/>
<path d="M19.8907 19.2602C19.8689 19.2483 19.7363 19.1616 19.6878 19.1889C19.6725 19.1973 19.6667 19.1877 19.6665 19.1716C19.6663 19.1556 19.6738 19.132 19.6788 19.1139C19.6837 19.0957 19.6918 19.0611 19.7132 19.0431C19.759 19.0044 19.8645 19.0814 19.9203 19.1022C19.9156 19.1313 19.889 19.2593 19.8907 19.2602Z" fill="#910000"/>
<path d="M20.1174 19.424C20.1785 19.3172 20.218 19.3309 20.2917 19.3325C20.3163 19.333 20.3234 19.3105 20.3178 19.288C20.2992 19.3296 20.207 19.2834 20.1568 19.3055C20.0519 19.3517 20.0714 19.5569 20.0217 19.5769C20.0734 19.6202 20.0966 19.4605 20.1174 19.4241V19.424Z" fill="#FF3A3A"/>
<path d="M16.8735 20.5097L16.2098 21.6588H23.7903L23.1266 20.5097H16.8735Z" fill="white"/>
<path d="M16.6468 21.4243C16.5363 21.4243 16.4337 21.4354 16.3328 21.4479L16.3004 21.5043C16.4626 21.4899 16.6135 21.4609 16.7764 21.4569C16.9959 21.4623 17.1952 21.5123 17.4287 21.5123C17.53 21.5133 17.6306 21.5103 17.7305 21.5123C17.9638 21.5123 18.1632 21.4623 18.3827 21.4569C18.6024 21.4623 18.8031 21.5123 19.0363 21.5123C19.1375 21.5126 19.2482 21.5107 19.3383 21.5123C19.5717 21.5123 19.7699 21.4623 19.9893 21.4569C20.2088 21.4623 20.4073 21.5123 20.6407 21.5123C20.7427 21.5133 20.8427 21.5103 20.9434 21.5123C21.1767 21.5123 21.3761 21.4623 21.5959 21.4569C21.8157 21.4623 22.0147 21.5123 22.2481 21.5123C22.3492 21.5133 22.4501 21.5103 22.5501 21.5123C22.7834 21.5123 22.9817 21.4623 23.2011 21.4569C23.3711 21.4611 23.5291 21.4916 23.7002 21.5053L23.6658 21.4457C23.5722 21.4345 23.4767 21.4244 23.3745 21.4244C23.2727 21.4229 23.1722 21.4264 23.0714 21.4244C22.8381 21.4244 22.6398 21.4742 22.4204 21.4796C22.2007 21.4743 22.0015 21.4243 21.768 21.4243C21.6671 21.4229 21.566 21.4264 21.4662 21.4243C21.2329 21.4243 21.0334 21.4743 20.8138 21.4796C20.5943 21.4743 20.395 21.4243 20.1617 21.4243C20.0602 21.4229 19.9589 21.4264 19.8586 21.4243C19.6254 21.4243 19.4269 21.4743 19.2077 21.4796C18.9881 21.4743 18.7897 21.4243 18.5563 21.4243C18.455 21.4229 18.3547 21.4264 18.2547 21.4243C18.0213 21.4243 17.822 21.4743 17.6023 21.4796C17.3827 21.4743 17.1834 21.4243 16.9501 21.4243C16.8487 21.4229 16.7472 21.4264 16.647 21.4243H16.6468Z" fill="url(#paint2_linear_16699_275400)"/>
<path d="M16.6468 21.3501C16.5363 21.3501 16.4337 21.3612 16.3328 21.3736L16.3004 21.43C16.4626 21.4156 16.6135 21.3867 16.7764 21.3827C16.9959 21.388 17.1952 21.438 17.4287 21.438C17.53 21.439 17.6306 21.436 17.7305 21.438C17.9638 21.438 18.1632 21.388 18.3827 21.3827C18.6024 21.388 18.8031 21.438 19.0363 21.438C19.1375 21.4384 19.2482 21.4365 19.3383 21.438C19.5717 21.438 19.7699 21.388 19.9893 21.3827C20.2088 21.388 20.4073 21.438 20.6407 21.438C20.7427 21.439 20.8427 21.436 20.9434 21.438C21.1767 21.438 21.3761 21.388 21.5959 21.3827C21.8157 21.388 22.0147 21.438 22.2481 21.438C22.3492 21.439 22.4501 21.436 22.5501 21.438C22.7834 21.438 22.9817 21.388 23.2011 21.3827C23.3711 21.3869 23.5291 21.4174 23.7002 21.431L23.6658 21.3715C23.5722 21.3603 23.4767 21.3502 23.3745 21.3502C23.2727 21.3487 23.1722 21.3522 23.0714 21.3502C22.8381 21.3502 22.6398 21.4 22.4204 21.4054C22.2007 21.4 22.0015 21.35 21.768 21.35C21.6671 21.3487 21.566 21.3522 21.4662 21.35C21.2329 21.35 21.0334 21.4 20.8138 21.4054C20.5943 21.4 20.395 21.35 20.1617 21.35C20.0602 21.3487 19.9589 21.3522 19.8586 21.35C19.6254 21.35 19.4269 21.4 19.2077 21.4054C18.9881 21.4 18.7897 21.35 18.5563 21.35C18.455 21.3487 18.3547 21.3522 18.2547 21.35C18.0213 21.35 17.822 21.4 17.6023 21.4054C17.3827 21.4 17.1834 21.35 16.9501 21.35C16.8487 21.3487 16.7472 21.3522 16.647 21.35L16.6468 21.3501Z" fill="url(#paint3_linear_16699_275400)"/>
<path d="M16.6468 21.2756C16.5363 21.2756 16.4337 21.2868 16.3328 21.2992L16.3004 21.3555C16.4626 21.3412 16.6135 21.3123 16.7764 21.3083C16.9959 21.3136 17.1952 21.3636 17.4287 21.3636C17.53 21.3646 17.6306 21.3616 17.7305 21.3636C17.9638 21.3636 18.1632 21.3136 18.3827 21.3083C18.6024 21.3136 18.8031 21.3636 19.0363 21.3636C19.1375 21.3639 19.2482 21.362 19.3383 21.3636C19.5717 21.3636 19.7699 21.3136 19.9893 21.3083C20.2088 21.3136 20.4073 21.3636 20.6407 21.3636C20.7427 21.3646 20.8427 21.3616 20.9434 21.3636C21.1767 21.3636 21.3761 21.3136 21.5959 21.3083C21.8157 21.3136 22.0147 21.3636 22.2481 21.3636C22.3492 21.3646 22.4501 21.3616 22.5501 21.3636C22.7834 21.3636 22.9817 21.3136 23.2011 21.3083C23.3711 21.3124 23.5291 21.3429 23.7002 21.3566L23.6658 21.297C23.5722 21.2858 23.4767 21.2757 23.3745 21.2757C23.2727 21.2743 23.1722 21.2777 23.0714 21.2757C22.8381 21.2757 22.6398 21.3255 22.4204 21.3309C22.2007 21.3256 22.0015 21.2756 21.768 21.2756C21.6671 21.2743 21.566 21.2777 21.4662 21.2756C21.2329 21.2756 21.0334 21.3256 20.8138 21.3309C20.5943 21.3256 20.395 21.2756 20.1617 21.2756C20.0602 21.2743 19.9589 21.2777 19.8586 21.2756C19.6254 21.2756 19.4269 21.3256 19.2077 21.3309C18.9881 21.3256 18.7897 21.2756 18.5563 21.2756C18.455 21.2743 18.3547 21.2777 18.2547 21.2756C18.0213 21.2756 17.822 21.3256 17.6023 21.3309C17.3827 21.3256 17.1834 21.2756 16.9501 21.2756C16.8487 21.2743 16.7472 21.2777 16.647 21.2756H16.6468Z" fill="url(#paint4_linear_16699_275400)"/>
<path d="M16.6468 21.2014C16.5363 21.2014 16.4337 21.2126 16.3328 21.225L16.3004 21.2813C16.4626 21.267 16.6135 21.238 16.7764 21.234C16.9959 21.2393 17.1952 21.2893 17.4287 21.2893C17.53 21.2903 17.6306 21.2873 17.7305 21.2893C17.9638 21.2893 18.1632 21.2393 18.3827 21.234C18.6024 21.2393 18.8031 21.2893 19.0363 21.2893C19.1375 21.2896 19.2482 21.2878 19.3383 21.2893C19.5717 21.2893 19.7699 21.2393 19.9893 21.234C20.2088 21.2393 20.4073 21.2893 20.6407 21.2893C20.7427 21.2903 20.8427 21.2873 20.9434 21.2893C21.1767 21.2893 21.3761 21.2393 21.5959 21.234C21.8157 21.2393 22.0147 21.2893 22.2481 21.2893C22.3492 21.2903 22.4501 21.2873 22.5501 21.2893C22.7834 21.2893 22.9817 21.2393 23.2011 21.234C23.3711 21.2382 23.5291 21.2686 23.7002 21.2823L23.6658 21.2228C23.5722 21.2116 23.4767 21.2015 23.3745 21.2015C23.2727 21.2 23.1722 21.2035 23.0714 21.2015C22.8381 21.2015 22.6398 21.2513 22.4204 21.2566C22.2007 21.2513 22.0015 21.2013 21.768 21.2013C21.6671 21.2 21.566 21.2035 21.4662 21.2013C21.2329 21.2013 21.0334 21.2513 20.8138 21.2566C20.5943 21.2513 20.395 21.2013 20.1617 21.2013C20.0602 21.2 19.9589 21.2035 19.8586 21.2013C19.6254 21.2013 19.4269 21.2513 19.2077 21.2566C18.9881 21.2513 18.7897 21.2013 18.5563 21.2013C18.455 21.2 18.3547 21.2035 18.2547 21.2013C18.0213 21.2013 17.822 21.2513 17.6023 21.2566C17.3827 21.2513 17.1834 21.2013 16.9501 21.2013C16.8487 21.2 16.7472 21.2035 16.647 21.2013L16.6468 21.2014Z" fill="url(#paint5_linear_16699_275400)"/>
<path d="M16.6468 21.1272C16.5363 21.1272 16.4337 21.1383 16.3328 21.1507L16.3004 21.2072C16.4626 21.1927 16.6135 21.1638 16.7764 21.1598C16.9959 21.1652 17.1952 21.2151 17.4287 21.2151C17.53 21.2161 17.6306 21.2131 17.7305 21.2151C17.9638 21.2151 18.1632 21.1652 18.3827 21.1598C18.6024 21.1652 18.8031 21.2151 19.0363 21.2151C19.1375 21.2155 19.2482 21.2136 19.3383 21.2151C19.5717 21.2151 19.7699 21.1652 19.9893 21.1598C20.2088 21.1652 20.4073 21.2151 20.6407 21.2151C20.7427 21.2161 20.8427 21.2131 20.9434 21.2151C21.1767 21.2151 21.3761 21.1652 21.5959 21.1598C21.8157 21.1652 22.0147 21.2151 22.2481 21.2151C22.3492 21.2161 22.4501 21.2131 22.5501 21.2151C22.7834 21.2151 22.9817 21.1652 23.2011 21.1598C23.3711 21.164 23.5291 21.1945 23.7002 21.2081L23.6658 21.1486C23.5722 21.1374 23.4767 21.1272 23.3745 21.1272C23.2727 21.1258 23.1722 21.1292 23.0714 21.1272C22.8381 21.1272 22.6398 21.1771 22.4204 21.1825C22.2007 21.1771 22.0015 21.1271 21.768 21.1271C21.6671 21.1258 21.566 21.1292 21.4662 21.1271C21.2329 21.1271 21.0334 21.1771 20.8138 21.1825C20.5943 21.1771 20.395 21.1271 20.1617 21.1271C20.0602 21.1258 19.9589 21.1292 19.8586 21.1271C19.6254 21.1271 19.4269 21.1771 19.2077 21.1825C18.9881 21.1771 18.7897 21.1271 18.5563 21.1271C18.455 21.1258 18.3547 21.1292 18.2547 21.1271C18.0213 21.1271 17.822 21.1771 17.6023 21.1825C17.3827 21.1771 17.1834 21.1271 16.9501 21.1271C16.8487 21.1258 16.7472 21.1292 16.647 21.1271L16.6468 21.1272Z" fill="url(#paint6_linear_16699_275400)"/>
<path d="M16.6468 21.0527C16.5363 21.0527 16.4337 21.0639 16.3328 21.0762L16.3004 21.1326C16.4626 21.1182 16.6135 21.0893 16.7764 21.0853C16.9959 21.0906 17.1952 21.1406 17.4287 21.1406C17.53 21.1416 17.6306 21.1386 17.7305 21.1406C17.9638 21.1406 18.1632 21.0906 18.3827 21.0853C18.6024 21.0906 18.8031 21.1406 19.0363 21.1406C19.1375 21.141 19.2482 21.1391 19.3383 21.1406C19.5717 21.1406 19.7699 21.0906 19.9893 21.0853C20.2088 21.0906 20.4073 21.1406 20.6407 21.1406C20.7427 21.1416 20.8427 21.1386 20.9434 21.1406C21.1767 21.1406 21.3761 21.0906 21.5959 21.0853C21.8157 21.0906 22.0147 21.1406 22.2481 21.1406C22.3492 21.1416 22.4501 21.1386 22.5501 21.1406C22.7834 21.1406 22.9817 21.0906 23.2011 21.0853C23.3711 21.0895 23.5291 21.12 23.7002 21.1336L23.6658 21.0741C23.5722 21.0629 23.4767 21.0528 23.3745 21.0528C23.2727 21.0513 23.1722 21.0548 23.0714 21.0528C22.8381 21.0528 22.6398 21.1025 22.4204 21.108C22.2007 21.1026 22.0015 21.0526 21.768 21.0526C21.6671 21.0513 21.566 21.0548 21.4662 21.0526C21.2329 21.0526 21.0334 21.1026 20.8138 21.108C20.5943 21.1026 20.395 21.0526 20.1617 21.0526C20.0602 21.0513 19.9589 21.0548 19.8586 21.0526C19.6254 21.0526 19.4269 21.1026 19.2077 21.108C18.9881 21.1026 18.7897 21.0526 18.5563 21.0526C18.455 21.0513 18.3547 21.0548 18.2547 21.0526C18.0213 21.0526 17.822 21.1026 17.6023 21.108C17.3827 21.1026 17.1834 21.0526 16.9501 21.0526C16.8487 21.0513 16.7472 21.0548 16.647 21.0526L16.6468 21.0527Z" fill="url(#paint7_linear_16699_275400)"/>
<path d="M16.6468 20.9782C16.5363 20.9782 16.4337 20.9894 16.3328 21.0018L16.3004 21.0582C16.4626 21.0438 16.6135 21.0149 16.7764 21.0109C16.9959 21.0162 17.1952 21.0662 17.4287 21.0662C17.53 21.0672 17.6306 21.0642 17.7305 21.0662C17.9638 21.0662 18.1632 21.0162 18.3827 21.0109C18.6024 21.0162 18.8031 21.0662 19.0363 21.0662C19.1375 21.0666 19.2482 21.0646 19.3383 21.0662C19.5717 21.0662 19.7699 21.0162 19.9893 21.0109C20.2088 21.0162 20.4073 21.0662 20.6407 21.0662C20.7427 21.0672 20.8427 21.0642 20.9434 21.0662C21.1767 21.0662 21.3761 21.0162 21.5959 21.0109C21.8157 21.0162 22.0147 21.0662 22.2481 21.0662C22.3492 21.0672 22.4501 21.0642 22.5501 21.0662C22.7834 21.0662 22.9817 21.0162 23.2011 21.0109C23.3711 21.0151 23.5291 21.0456 23.7002 21.0592L23.6658 20.9996C23.5722 20.9885 23.4767 20.9783 23.3745 20.9783C23.2727 20.9769 23.1722 20.9803 23.0714 20.9783C22.8381 20.9783 22.6398 21.0281 22.4204 21.0336C22.2007 21.0282 22.0015 20.9782 21.768 20.9782C21.6671 20.9769 21.566 20.9803 21.4662 20.9782C21.2329 20.9782 21.0334 21.0282 20.8138 21.0336C20.5943 21.0282 20.395 20.9782 20.1617 20.9782C20.0602 20.9769 19.9589 20.9803 19.8586 20.9782C19.6254 20.9782 19.4269 21.0282 19.2077 21.0336C18.9881 21.0282 18.7897 20.9782 18.5563 20.9782C18.455 20.9769 18.3547 20.9803 18.2547 20.9782C18.0213 20.9782 17.822 21.0282 17.6023 21.0336C17.3827 21.0282 17.1834 20.9782 16.9501 20.9782C16.8487 20.9769 16.7472 20.9803 16.647 20.9782H16.6468Z" fill="url(#paint8_linear_16699_275400)"/>
<path d="M16.6468 20.904C16.5363 20.904 16.4337 20.9151 16.3328 20.9275L16.3004 20.9839C16.4626 20.9695 16.6135 20.9406 16.7764 20.9366C16.9959 20.9419 17.1952 20.9919 17.4287 20.9919C17.53 20.9929 17.6306 20.9899 17.7305 20.9919C17.9638 20.9919 18.1632 20.9419 18.3827 20.9366C18.6024 20.9419 18.8031 20.9919 19.0363 20.9919C19.1375 20.9923 19.2482 20.9904 19.3383 20.9919C19.5717 20.9919 19.7699 20.9419 19.9893 20.9366C20.2088 20.9419 20.4073 20.9919 20.6407 20.9919C20.7427 20.9929 20.8427 20.9899 20.9434 20.9919C21.1767 20.9919 21.3761 20.9419 21.5959 20.9366C21.8157 20.9419 22.0147 20.9919 22.2481 20.9919C22.3492 20.9929 22.4501 20.9899 22.5501 20.9919C22.7834 20.9919 22.9817 20.9419 23.2011 20.9366C23.3711 20.9408 23.5291 20.9713 23.7002 20.9849L23.6658 20.9254C23.5722 20.9142 23.4767 20.9041 23.3745 20.9041C23.2727 20.9026 23.1722 20.9061 23.0714 20.9041C22.8381 20.9041 22.6398 20.9539 22.4204 20.9593C22.2007 20.9539 22.0015 20.9039 21.768 20.9039C21.6671 20.9026 21.566 20.9061 21.4662 20.9039C21.2329 20.9039 21.0334 20.9539 20.8138 20.9593C20.5943 20.9539 20.395 20.9039 20.1617 20.9039C20.0602 20.9026 19.9589 20.9061 19.8586 20.9039C19.6254 20.9039 19.4269 20.9539 19.2077 20.9593C18.9881 20.9539 18.7897 20.9039 18.5563 20.9039C18.455 20.9026 18.3547 20.9061 18.2547 20.9039C18.0213 20.9039 17.822 20.9539 17.6023 20.9593C17.3827 20.9539 17.1834 20.9039 16.9501 20.9039C16.8487 20.9026 16.7472 20.9061 16.647 20.9039L16.6468 20.904Z" fill="url(#paint9_linear_16699_275400)"/>
<path d="M16.6468 20.8296C16.5363 20.8296 16.4337 20.8407 16.3328 20.8531L16.3004 20.9095C16.4626 20.8951 16.6135 20.8661 16.7764 20.8621C16.9959 20.8675 17.1952 20.9175 17.4287 20.9175C17.53 20.9185 17.6306 20.9155 17.7305 20.9175C17.9638 20.9175 18.1632 20.8675 18.3827 20.8621C18.6024 20.8675 18.8031 20.9175 19.0363 20.9175C19.1375 20.9178 19.2482 20.916 19.3383 20.9175C19.5717 20.9175 19.7699 20.8675 19.9893 20.8621C20.2088 20.8675 20.4073 20.9175 20.6407 20.9175C20.7427 20.9185 20.8427 20.9155 20.9434 20.9175C21.1767 20.9175 21.3761 20.8675 21.5959 20.8621C21.8157 20.8675 22.0147 20.9175 22.2481 20.9175C22.3492 20.9185 22.4501 20.9155 22.5501 20.9175C22.7834 20.9175 22.9817 20.8675 23.2011 20.8621C23.3711 20.8664 23.5291 20.8968 23.7002 20.9105L23.6658 20.851C23.5722 20.8398 23.4767 20.8296 23.3745 20.8296C23.2727 20.8281 23.1722 20.8316 23.0714 20.8296C22.8381 20.8296 22.6398 20.8795 22.4204 20.8848C22.2007 20.8795 22.0015 20.8295 21.768 20.8295C21.6671 20.8281 21.566 20.8316 21.4662 20.8295C21.2329 20.8295 21.0334 20.8795 20.8138 20.8848C20.5943 20.8795 20.395 20.8295 20.1617 20.8295C20.0602 20.8281 19.9589 20.8316 19.8586 20.8295C19.6254 20.8295 19.4269 20.8795 19.2077 20.8848C18.9881 20.8795 18.7897 20.8295 18.5563 20.8295C18.455 20.8281 18.3547 20.8316 18.2547 20.8295C18.0213 20.8295 17.822 20.8795 17.6023 20.8848C17.3827 20.8795 17.1834 20.8295 16.9501 20.8295C16.8487 20.8281 16.7472 20.8316 16.647 20.8295L16.6468 20.8296Z" fill="url(#paint10_linear_16699_275400)"/>
<path d="M16.8819 20.4972L16.8738 20.5115H23.1264L23.1181 20.4972H16.8819ZM16.8673 20.5224L16.8589 20.537H23.1412L23.1327 20.5224H16.8673ZM16.8539 20.5454L16.8404 20.5692H23.1598L23.1461 20.5455H16.8539V20.5454ZM16.8328 20.5822L16.8161 20.6111H23.184L23.1674 20.5822H16.8328ZM16.8061 20.6282L16.7894 20.6572H23.2106L23.1939 20.6283H16.8062L16.8061 20.6282ZM16.7796 20.6744L16.7631 20.703H23.2369L23.2204 20.6744H16.7796ZM16.7531 20.7205L16.7364 20.7492H23.2638L23.2471 20.7205H16.7531ZM16.7244 20.7701L16.7041 20.8054H23.2959L23.2758 20.7701H16.7244Z" fill="url(#paint11_linear_16699_275400)"/>
<path d="M17.1571 20.8192C17.3871 20.8633 17.4092 20.8192 17.4092 20.8192H17.1571ZM22.5906 20.8192C22.5906 20.8192 22.6126 20.8633 22.8428 20.8192H22.5906Z" fill="url(#paint12_linear_16699_275400)"/>
<path d="M22.0419 19.8029C21.9281 19.8029 21.8932 19.8604 21.8932 19.8604C21.7107 20.5654 21.1061 21.2825 20.3866 21.2825H19.8477V22.0004C19.8477 22.0006 19.8486 22.0004 19.8489 22.0004H23.9487L23.5363 21.2701C22.8891 21.1734 22.3603 20.5119 22.1919 19.8604C22.1919 19.8604 22.1559 19.8029 22.0419 19.8029Z" fill="url(#paint13_linear_16699_275400)"/>
<path d="M22.042 19.8311C21.9898 19.8311 21.958 19.8431 21.9395 19.8547C21.9219 19.8657 21.9185 19.8731 21.9181 19.8739C21.9181 19.8744 21.917 19.8746 21.9168 19.875C21.8235 20.2298 21.6268 20.5863 21.3613 20.8554C21.0938 21.1267 20.7566 21.3107 20.3876 21.3107H19.876V21.9723H23.9331L23.5545 21.3017C23.242 21.261 22.9562 21.0909 22.7239 20.8555C22.4581 20.5864 22.2618 20.23 22.1683 19.8751L22.1671 19.8741C22.1667 19.8732 22.1625 19.8671 22.1446 19.8561C22.1257 19.8442 22.0943 19.8311 22.042 19.8311V19.8311Z" fill="#97C924"/>
<path d="M22.0419 19.831C22.0517 19.831 22.0606 19.8324 22.069 19.8333C22.0706 20.0344 22.069 20.3738 22.069 20.5533C22.067 20.7093 22.0137 20.8348 21.9348 20.9826C21.8983 21.0863 21.8691 21.0469 21.7782 21.1731C21.6562 21.2168 21.5658 21.2338 21.4357 21.2542C21.2678 21.2808 20.8943 21.3042 20.7098 21.2633C20.9525 21.1921 21.1738 21.0453 21.3612 20.8553C21.4113 20.8045 21.4587 20.751 21.5032 20.6953C21.5779 20.6012 21.645 20.5014 21.7038 20.3966C21.7273 20.3549 21.7496 20.3135 21.7703 20.2705C21.8114 20.1852 21.8472 20.0975 21.8773 20.0079C21.8922 19.9635 21.9052 19.9192 21.9168 19.8748C21.917 19.8745 21.9178 19.8741 21.9179 19.8737C21.9183 19.8729 21.9219 19.8655 21.9393 19.8545C21.9484 19.8489 21.9615 19.8432 21.9777 19.8388H21.9788C21.9957 19.8343 22.0158 19.8309 22.0419 19.8309V19.831Z" fill="#EDE71F"/>
<path d="M21.9958 19.9269C21.9684 20.3291 21.844 20.8063 21.5529 21.1142C21.4458 21.2033 21.3089 21.2842 21.1765 21.2645C21.6278 20.8972 21.9021 20.3347 21.9958 19.9269Z" fill="#C6CB24"/>
<path d="M21.6329 20.6187C21.566 20.8001 21.3137 21.0685 21.0435 21.2885C20.9669 21.2908 20.9262 21.2951 20.8566 21.291C21.0211 21.276 21.4046 20.9521 21.6329 20.6188V20.6187Z" fill="#9ECB34"/>
<path d="M21.0191 19.8029C20.9053 19.8029 20.8704 19.8604 20.8704 19.8604C20.688 20.5654 20.0833 21.2825 19.3638 21.2825H18.825V22.0004C18.825 22.0006 18.8258 22.0004 18.8261 22.0004H22.926L22.5135 21.2701C21.8663 21.1734 21.3375 20.5119 21.1691 19.8604C21.1691 19.8604 21.1331 19.8029 21.0191 19.8029Z" fill="url(#paint14_linear_16699_275400)"/>
<path d="M21.0191 19.8311C20.967 19.8311 20.9351 19.8431 20.9167 19.8547C20.899 19.8657 20.8957 19.8731 20.8954 19.8739C20.8954 19.8744 20.8943 19.8746 20.894 19.875C20.8007 20.2298 20.604 20.5863 20.3385 20.8554C20.071 21.1267 19.7338 21.3107 19.3648 21.3107H18.8532V21.9723H22.9103L22.5316 21.3017C22.2191 21.261 21.9334 21.0909 21.701 20.8555C21.4354 20.5864 21.239 20.23 21.1455 19.8751L21.1444 19.8741C21.1439 19.8732 21.1397 19.8671 21.1218 19.8561C21.1029 19.8442 21.0715 19.8311 21.0191 19.8311V19.8311Z" fill="#97C924"/>
<path d="M21.0191 19.831C21.0289 19.831 21.0378 19.8324 21.0462 19.8333C21.0478 20.0344 21.0462 20.3738 21.0462 20.5533C21.0442 20.7093 20.9908 20.8348 20.912 20.9826C20.8756 21.0863 20.8463 21.0469 20.7553 21.1731C20.6333 21.2168 20.543 21.2338 20.4128 21.2542C20.245 21.2808 19.8715 21.3042 19.687 21.2633C19.9297 21.1921 20.151 21.0453 20.3383 20.8553C20.3885 20.8045 20.4358 20.751 20.4803 20.6953C20.5552 20.6013 20.6223 20.5014 20.681 20.3966C20.7045 20.3549 20.7268 20.3135 20.7475 20.2705C20.7783 20.2065 20.8062 20.141 20.8308 20.0745C20.8391 20.0525 20.8472 20.03 20.8546 20.0079C20.8693 19.9635 20.8823 19.9192 20.894 19.8748C20.8942 19.8745 20.895 19.8741 20.8951 19.8737C20.8956 19.8729 20.8991 19.8655 20.9166 19.8545C20.9257 19.8489 20.9387 19.8432 20.9549 19.8388H20.956C20.9728 19.8343 20.993 19.8309 21.0191 19.8309V19.831Z" fill="#EDE71F"/>
<path d="M20.973 19.9269C20.9455 20.3291 20.8212 20.8063 20.5301 21.1142C20.4229 21.2033 20.2861 21.2842 20.1537 21.2645C20.605 20.8972 20.8794 20.3347 20.973 19.9269Z" fill="#C6CB24"/>
<path d="M20.6102 20.6187C20.5434 20.8001 20.2909 21.0685 20.0209 21.2885C19.9442 21.2908 19.9035 21.2951 19.8339 21.291C19.9984 21.276 20.3819 20.9521 20.6102 20.6188V20.6187Z" fill="#9ECB34"/>
<path d="M20.1477 19.8607C20.33 20.5658 20.9337 21.2829 21.6533 21.2829H22.1926V22.0009C22.1926 22.001 22.1916 22.0009 22.1914 22.0009H17.8051C17.8047 22.0009 17.804 22.001 17.804 22.0009V21.2829H18.3422C19.0617 21.2829 19.6664 20.5658 19.8489 19.8608C19.8489 19.8608 19.8844 19.8031 19.9983 19.8031C20.1123 19.8031 20.1479 19.8609 20.1479 19.8609L20.1477 19.8607Z" fill="url(#paint15_linear_16699_275400)"/>
<path d="M19.9983 19.8311C20.0505 19.8311 20.082 19.8441 20.1008 19.8558C20.1188 19.8669 20.123 19.8731 20.1235 19.8738L20.1245 19.875C20.2179 20.2298 20.4144 20.5863 20.68 20.8554C20.9478 21.1267 21.2858 21.3107 21.6549 21.3107H22.1642V21.9723H17.8322V21.3107H18.3439C18.7129 21.3107 19.0501 21.1267 19.3175 20.8554C19.583 20.5863 19.7798 20.2299 19.8731 19.8751C19.8733 19.8746 19.8741 19.8744 19.8742 19.874C19.8746 19.8731 19.878 19.8657 19.8955 19.8547C19.9142 19.8431 19.9459 19.8311 19.9982 19.8311H19.9983Z" fill="#97C924"/>
<path d="M19.9507 19.8354C19.9453 19.8365 19.94 19.8376 19.9347 19.8391H19.9335C19.9173 19.8435 19.9044 19.8491 19.8954 19.8548C19.8778 19.8659 19.8745 19.8731 19.8741 19.8739C19.8739 19.8743 19.873 19.8746 19.8729 19.8751C19.8555 19.9427 19.8344 20.0093 19.8097 20.0746C19.7849 20.1412 19.7572 20.2066 19.7263 20.2707C19.7055 20.3136 19.6833 20.3556 19.6598 20.397C19.6011 20.5017 19.534 20.6016 19.4592 20.6955C19.4147 20.7513 19.3672 20.8047 19.3172 20.8556C19.1298 21.0456 18.9087 21.1922 18.6658 21.2634C18.8502 21.3043 18.9347 21.2596 19.1025 21.2331C19.2327 21.2126 19.3832 21.1956 19.5054 21.1519C19.5963 21.0256 19.5654 21.0652 19.6017 20.9616C19.6804 20.8138 19.7955 20.6802 19.8241 20.5163C19.9321 20.3148 19.9509 19.942 19.9509 19.8354H19.9507Z" fill="#EDE71F"/>
<path d="M19.9516 19.9269C19.9241 20.3291 19.7998 20.8063 19.5087 21.1142C19.4017 21.2033 19.2647 21.2842 19.1324 21.2645C19.5837 20.8972 19.858 20.3347 19.9516 19.9269Z" fill="#C6CB24"/>
<path d="M19.5887 20.6187C19.5219 20.8001 19.2695 21.0685 18.9994 21.2885C18.9227 21.2908 18.882 21.2951 18.8124 21.291C18.9769 21.276 19.3605 20.9521 19.5887 20.6188V20.6187Z" fill="#9ECB34"/>
<path d="M20.0632 19.839H20.0645C20.0805 19.8435 20.0934 19.849 20.1025 19.8547C20.1201 19.8657 20.1235 19.873 20.1238 19.8738C20.1241 19.8742 20.125 19.8745 20.1252 19.875C20.1367 19.9193 20.1498 19.9639 20.1645 20.008C20.172 20.0302 20.1802 20.0524 20.1884 20.0744C20.213 20.141 20.2408 20.2065 20.2717 20.2705C20.2924 20.3135 20.3147 20.355 20.3382 20.3969C20.397 20.5015 20.4641 20.6014 20.5388 20.6953C20.5833 20.751 20.6307 20.8045 20.6808 20.8553C20.8682 21.0453 21.0894 21.2184 21.3321 21.2895C20.8491 21.2914 20.6394 21.2475 20.4639 21.0218C20.2884 20.796 20.2236 20.6972 20.1879 20.5593C20.1523 20.4215 20.0529 20.1213 20.0632 19.8389L20.0632 19.839Z" fill="#EDE71F"/>
<path d="M20.0983 19.9269C20.1258 20.3291 20.2463 20.7272 20.5375 21.0352C20.6445 21.1243 20.7815 21.2052 20.9138 21.1855C20.4248 20.852 20.1918 20.3347 20.0982 19.9269H20.0983Z" fill="#C6CB24"/>
<path d="M18.9832 19.8029C18.8692 19.8029 18.8332 19.8604 18.8332 19.8604C18.665 20.5101 18.0449 21.3482 17.4001 21.4477L17.0807 22.0004H20.3484V21.244C19.76 21.086 19.2891 20.4687 19.1317 19.8604C19.1317 19.8604 19.097 19.803 18.9831 19.803L18.9832 19.8029Z" fill="url(#paint16_linear_16699_275400)"/>
<path d="M18.9832 19.8311C18.9308 19.8311 18.8994 19.8441 18.8805 19.8558C18.8627 19.8669 18.8585 19.8731 18.858 19.8738L18.8569 19.875C18.7634 20.2298 18.545 20.5886 18.3183 20.8743C18.0914 21.1598 17.6703 21.4487 17.3821 21.4794L17.0967 21.9722H20.3007V21.2594C20.0637 21.1867 19.8473 21.0416 19.6638 20.8554C19.3983 20.5862 19.2016 20.2298 19.1083 19.875C19.1081 19.8745 19.1073 19.8743 19.1071 19.8739C19.1067 19.8731 19.1031 19.8657 19.0857 19.8547C19.067 19.8431 19.0353 19.8311 18.983 19.8311H18.9832Z" fill="#97C924"/>
<path d="M18.8963 19.9269C18.8551 20.5297 18.5194 21.2905 18.1403 21.4215C18.0166 21.4642 17.8003 21.4791 17.7251 21.4887C18.3883 21.1734 18.7803 20.4319 18.8963 19.9269Z" fill="#93BC30"/>
<path d="M18.983 19.831C18.9732 19.831 18.9643 19.8324 18.9559 19.8333C18.9544 20.0344 18.9559 20.3739 18.9559 20.5533C18.9579 20.7093 19.0113 20.8349 19.0901 20.9826C19.0948 20.9956 19.0991 21.0063 19.1036 21.0153C19.1309 21.0878 19.1511 21.1129 19.2558 21.1923C19.5882 21.4448 20.0004 21.4825 20.2429 21.4616C20.1669 21.4018 20.0858 21.3473 20.0143 21.2972C20.1283 21.2934 20.2376 21.2805 20.3151 21.2633C20.0724 21.1922 19.8511 21.0453 19.6638 20.8553C19.6313 20.8219 19.6002 20.7873 19.5702 20.7517C19.5562 20.7322 19.5368 20.7052 19.5308 20.6976C19.4562 20.6043 19.3798 20.5011 19.3211 20.3967C19.2976 20.3554 19.2754 20.3133 19.2546 20.2705C19.2135 20.1853 19.1777 20.0976 19.1475 20.0079C19.1329 19.964 19.1198 19.9196 19.1081 19.8749C19.1079 19.8745 19.1071 19.8742 19.1069 19.8738C19.1065 19.8729 19.1031 19.8656 19.0856 19.8546C19.0736 19.8476 19.0607 19.8423 19.0472 19.8389H19.046C19.0254 19.8334 19.0042 19.8308 18.9829 19.8309L18.983 19.831Z" fill="#EDE71F"/>
<path d="M19.0296 19.9269C19.0571 20.3291 19.1814 20.8063 19.4725 21.1142C19.5796 21.2033 19.7165 21.2842 19.8489 21.2645C19.3976 20.8972 19.1232 20.3347 19.0296 19.9269Z" fill="#CCD11E"/>
<path d="M19.3074 20.4832C19.4654 20.8723 19.8654 21.2358 20.277 21.4802C20.3537 21.4825 20.3764 21.4804 20.4461 21.4762C20.1514 21.3182 19.6768 21.0925 19.3074 20.4832Z" fill="#9ECB34"/>
<path d="M17.9545 19.8029C17.8405 19.8029 17.8045 19.8604 17.8045 19.8604C17.6364 20.5101 17.0163 21.3482 16.3715 21.4477L16.0521 22.0004H19.3198V21.244C18.7314 21.086 18.2605 20.4687 18.1031 19.8604C18.1031 19.8604 18.0684 19.803 17.9545 19.803L17.9545 19.8029Z" fill="url(#paint17_linear_16699_275400)"/>
<path d="M17.9545 19.8311C17.9022 19.8311 17.8707 19.8441 17.8518 19.8558C17.834 19.8669 17.8298 19.8731 17.8293 19.8738L17.8282 19.875C17.7347 20.2298 17.5163 20.5886 17.2896 20.8743C17.0627 21.1598 16.6416 21.4487 16.3534 21.4794L16.068 21.9722H19.272V21.2594C19.035 21.1867 18.8187 21.0416 18.6352 20.8554C18.3697 20.5862 18.1729 20.2298 18.0796 19.875C18.0794 19.8745 18.0786 19.8743 18.0784 19.8739C18.078 19.8731 18.0744 19.8657 18.057 19.8547C18.0383 19.8431 18.0067 19.8311 17.9543 19.8311H17.9545Z" fill="#97C924"/>
<path d="M17.8676 19.9269C17.8264 20.5297 17.4907 21.2905 17.1116 21.4215C16.9879 21.4642 16.7716 21.4791 16.6964 21.4887C17.3597 21.1734 17.7517 20.4319 17.8676 19.9269Z" fill="#93BC30"/>
<path d="M17.9543 19.831C17.9445 19.831 17.9357 19.8324 17.9272 19.8333C17.9257 20.0344 17.9272 20.3739 17.9272 20.5533C17.9292 20.7093 17.9826 20.8349 18.0614 20.9826C18.0661 20.9956 18.0704 21.0063 18.0749 21.0153C18.1022 21.0878 18.1224 21.1129 18.2271 21.1923C18.5595 21.4448 18.9717 21.4825 19.2142 21.4616C19.1382 21.4018 19.0571 21.3473 18.9856 21.2972C19.0996 21.2934 19.2089 21.2805 19.2864 21.2633C19.0437 21.1922 18.8224 21.0453 18.6351 20.8553C18.6027 20.8219 18.5715 20.7873 18.5415 20.7517C18.5275 20.7322 18.5082 20.7052 18.5021 20.6976C18.4275 20.6043 18.3512 20.5011 18.2924 20.3967C18.2689 20.3554 18.2467 20.3133 18.2259 20.2705C18.1848 20.1853 18.1491 20.0976 18.1188 20.0079C18.1042 19.964 18.0911 19.9196 18.0794 19.8749C18.0792 19.8745 18.0784 19.8742 18.0782 19.8738C18.0778 19.8729 18.0744 19.8656 18.0569 19.8546C18.0449 19.8476 18.032 19.8423 18.0185 19.8389H18.0173C17.9967 19.8334 17.9756 19.8308 17.9542 19.8309L17.9543 19.831Z" fill="#EDE71F"/>
<path d="M18.001 19.9269C18.0285 20.3291 18.1528 20.8063 18.444 21.1142C18.551 21.2033 18.688 21.2842 18.8204 21.2645C18.369 20.8972 18.0946 20.3347 18.001 19.9269Z" fill="#C6CB24"/>
<path d="M18.2787 20.4832C18.4367 20.8723 18.8367 21.2358 19.2483 21.4802C19.3249 21.4825 19.3477 21.4804 19.4174 21.4762C19.1227 21.3182 18.648 21.0925 18.2787 20.4832Z" fill="#9ECB34"/>
<path d="M23.7666 21.6462C23.7284 21.6597 23.4719 21.6335 23.3377 21.6433L23.2524 21.6656C23.1775 21.6651 23.1032 21.6673 23.0304 21.6656C22.7903 21.6656 22.5871 21.7289 22.3588 21.7289C22.1299 21.7289 21.9274 21.6656 21.6871 21.6656C21.6124 21.6651 21.5381 21.6673 21.4651 21.6656C21.2249 21.6656 21.0219 21.7289 20.7934 21.7289C20.5648 21.7289 20.3619 21.6656 20.1218 21.6656C20.0464 21.6652 19.9722 21.6672 19.8984 21.6656C19.6584 21.6656 19.4564 21.7289 19.228 21.7289C18.9994 21.7289 18.7976 21.6656 18.5574 21.6656C18.5397 21.6656 18.5231 21.6663 18.5058 21.6668C18.4939 21.6666 18.4805 21.6657 18.4685 21.6657C18.4605 21.6657 18.4537 21.6655 18.4459 21.6657C18.438 21.6655 18.43 21.6657 18.4221 21.6657C18.4101 21.6657 18.3991 21.6666 18.3873 21.6669C18.37 21.6664 18.3534 21.6658 18.3354 21.6658C18.0951 21.6658 17.8926 21.7291 17.6638 21.729C17.4351 21.729 17.2322 21.6658 16.9921 21.6658C16.9748 21.6658 16.9574 21.6665 16.9404 21.667C16.9284 21.6667 16.9178 21.6659 16.9056 21.6659C16.8974 21.6659 16.8888 21.6656 16.8807 21.6659C16.8728 21.6656 16.8647 21.6659 16.8568 21.6659C16.8448 21.6659 16.8328 21.6667 16.8209 21.667C16.8035 21.6665 16.7869 21.666 16.7691 21.666C16.5771 21.666 16.3546 21.7064 16.1734 21.7226L15.7552 22.4465L19.9534 22.446L24.245 22.4465L23.7666 21.6462Z" fill="white"/>
<path d="M23.1995 21.5407C23.1861 21.5407 23.173 21.5407 23.1598 21.5413C22.9438 21.5476 22.7888 21.6156 22.4131 21.6156C22.0372 21.6156 21.9985 21.5476 21.5741 21.557C21.1777 21.5657 21.0113 21.6411 20.7961 21.6381C20.581 21.6353 20.2313 21.5917 19.9621 21.6199C19.693 21.648 19.3736 21.7055 19.164 21.7059C18.9033 21.7048 18.6426 21.6572 18.3702 21.6843C18.0978 21.7114 17.9705 21.7843 17.6327 21.7833C17.3424 21.7825 17.0272 21.7368 16.783 21.737C16.554 21.7372 16.2985 21.8008 16.1106 21.8332L16.0544 21.9308C16.2041 21.9135 16.6244 21.8496 16.7745 21.8456C16.9308 21.8416 17.489 21.8779 17.7968 21.8673C18.1047 21.8566 18.1407 21.7892 18.5047 21.7892C18.7581 21.7892 18.9491 21.8159 19.2091 21.8159C19.3715 21.8159 19.5187 21.733 19.7654 21.733C19.8278 21.7312 19.8897 21.729 19.9516 21.727C20.1596 21.6926 20.5106 21.73 20.7548 21.7423C20.9758 21.754 21.1186 21.7014 21.3491 21.6936C21.4488 21.6892 21.549 21.6893 21.6474 21.6839C21.8781 21.6762 22.0755 21.7265 22.2927 21.7255C22.5094 21.7121 22.7195 21.664 22.95 21.6563C23.0507 21.6516 23.1499 21.6515 23.2494 21.6465C23.4018 21.6414 23.6385 21.6517 23.8009 21.6798L23.7449 21.5831C23.5862 21.5781 23.3909 21.5409 23.1996 21.5409L23.1995 21.5407Z" fill="url(#paint18_linear_16699_275400)"/>
<path d="M16.6875 22.3167C16.457 22.3167 16.2606 22.3735 16.044 22.3796C15.9633 22.3774 15.8861 22.3674 15.8083 22.3566L15.7756 22.4133C15.8081 22.4154 15.8406 22.4175 15.8748 22.4175C15.975 22.4188 16.0741 22.4151 16.1731 22.4175C16.4036 22.4175 16.5986 22.3608 16.8154 22.3546C17.0324 22.3607 17.2292 22.4176 17.4599 22.4176C17.5599 22.4189 17.6594 22.4152 17.7581 22.4176C17.9886 22.4176 18.1856 22.3607 18.4026 22.3546C18.6196 22.3607 18.8179 22.4176 19.0484 22.4176C19.1481 22.419 19.2479 22.4153 19.3464 22.4176C19.5769 22.4176 19.7731 22.3608 19.9898 22.3547C20.2067 22.3608 20.4025 22.4177 20.6331 22.4177C20.7338 22.4191 20.8331 22.4154 20.9325 22.4177C21.163 22.4177 21.3598 22.3609 21.5769 22.3547C21.7941 22.3609 21.9909 22.4177 22.2215 22.4177C22.3212 22.4191 22.4209 22.4154 22.5196 22.4177C22.75 22.4177 22.9462 22.361 23.1629 22.3548C23.3798 22.361 23.5769 22.4178 23.8074 22.4178C23.9074 22.4191 24.007 22.4155 24.1055 22.4178C24.1459 22.4178 24.1853 22.4156 24.2241 22.4127L24.1933 22.3596C24.1224 22.3692 24.0511 22.3781 23.9776 22.3801C23.7607 22.3739 23.5646 22.3171 23.3341 22.3171C23.2335 22.3157 23.1345 22.3191 23.0349 22.3171C22.8044 22.3171 22.6085 22.3739 22.3916 22.3801C22.1745 22.3741 21.9779 22.3171 21.7472 22.3171C21.6475 22.3157 21.5477 22.3191 21.4491 22.3171C21.2186 22.3171 21.0215 22.3739 20.8046 22.3801C20.5876 22.3739 20.3906 22.3171 20.1602 22.3171C20.06 22.3157 19.96 22.3191 19.8608 22.3171C19.6303 22.3171 19.4341 22.3739 19.2175 22.3801C19.0006 22.3739 18.8046 22.3171 18.5742 22.3171C18.4737 22.3157 18.3748 22.3191 18.2758 22.3171C18.0451 22.3171 17.8485 22.374 17.6315 22.3801C17.4145 22.3739 17.2175 22.3171 16.987 22.3171C16.8868 22.3157 16.7866 22.3191 16.6876 22.3171L16.6875 22.3167Z" fill="url(#paint19_linear_16699_275400)"/>
<path d="M16.6875 22.2307C16.457 22.2307 16.2606 22.2875 16.044 22.2937C15.9633 22.2915 15.8861 22.2815 15.8083 22.2707L15.7756 22.3274C15.8081 22.3295 15.8406 22.3315 15.8748 22.3315C15.975 22.3329 16.0741 22.3292 16.1731 22.3315C16.4036 22.3315 16.5986 22.2749 16.8154 22.2686C17.0324 22.2747 17.2292 22.3316 17.4599 22.3316C17.5599 22.333 17.6594 22.3293 17.7581 22.3316C17.9886 22.3316 18.1856 22.2748 18.4026 22.2687C18.6196 22.2748 18.8179 22.3317 19.0484 22.3317C19.1481 22.333 19.2479 22.3294 19.3464 22.3317C19.5769 22.3317 19.7731 22.2749 19.9898 22.2687C20.2067 22.2749 20.4025 22.3317 20.6331 22.3317C20.7338 22.333 20.8331 22.3294 20.9325 22.3317C21.163 22.3317 21.3598 22.275 21.5769 22.2688C21.7941 22.275 21.9909 22.3318 22.2215 22.3318C22.3212 22.3331 22.4209 22.3295 22.5196 22.3318C22.75 22.3318 22.9462 22.275 23.1629 22.2689C23.3798 22.275 23.5769 22.3319 23.8074 22.3319C23.9074 22.3332 24.007 22.3295 24.1055 22.3319C24.1459 22.3319 24.1853 22.3297 24.2241 22.3268L24.1933 22.2737C24.1224 22.2833 24.0511 22.292 23.9776 22.294C23.7607 22.288 23.5646 22.231 23.3341 22.231C23.2335 22.2297 23.1345 22.233 23.0349 22.231C22.8044 22.231 22.6085 22.288 22.3916 22.294C22.1745 22.288 21.9779 22.231 21.7472 22.231C21.6475 22.2297 21.5477 22.233 21.4491 22.231C21.2186 22.231 21.0215 22.288 20.8046 22.294C20.5876 22.288 20.3906 22.231 20.1602 22.231C20.06 22.2297 19.96 22.233 19.8608 22.231C19.6303 22.231 19.4341 22.288 19.2175 22.294C19.0006 22.288 18.8046 22.231 18.5742 22.231C18.4737 22.2297 18.3748 22.233 18.2758 22.231C18.0451 22.231 17.8485 22.288 17.6315 22.294C17.4145 22.288 17.2175 22.231 16.987 22.231C16.8868 22.2297 16.7866 22.233 16.6876 22.231L16.6875 22.2307Z" fill="url(#paint20_linear_16699_275400)"/>
<path d="M16.6875 22.145C16.457 22.145 16.2606 22.2018 16.044 22.208C15.9633 22.2057 15.8861 22.1957 15.8083 22.185L15.7756 22.2416C15.8081 22.2437 15.8406 22.2458 15.8748 22.2458C15.975 22.2471 16.0741 22.2435 16.1731 22.2458C16.4036 22.2458 16.5986 22.1891 16.8154 22.1829C17.0324 22.189 17.2292 22.2459 17.4599 22.2459C17.5599 22.2472 17.6594 22.2435 17.7581 22.2459C17.9886 22.2459 18.1856 22.189 18.4026 22.183C18.6196 22.189 18.8179 22.246 19.0484 22.246C19.1481 22.2473 19.2479 22.2436 19.3464 22.246C19.5769 22.246 19.7731 22.1891 19.9898 22.183C20.2067 22.1891 20.4025 22.246 20.6331 22.246C20.7338 22.2474 20.8331 22.2437 20.9325 22.246C21.163 22.246 21.3598 22.1892 21.5769 22.183C21.7941 22.1892 21.9909 22.246 22.2215 22.246C22.3212 22.2474 22.4209 22.2437 22.5196 22.246C22.75 22.246 22.9462 22.1893 23.1629 22.1831C23.3798 22.1893 23.5769 22.2461 23.8074 22.2461C23.9074 22.2475 24.007 22.2438 24.1055 22.2461C24.1459 22.2461 24.1853 22.244 24.2241 22.241L24.1933 22.188C24.1224 22.1975 24.0511 22.2064 23.9776 22.2084C23.7607 22.2022 23.5646 22.1454 23.3341 22.1454C23.2335 22.144 23.1345 22.1474 23.0349 22.1454C22.8044 22.1454 22.6085 22.2022 22.3916 22.2084C22.1745 22.2024 21.9779 22.1454 21.7472 22.1454C21.6475 22.144 21.5477 22.1474 21.4491 22.1454C21.2186 22.1454 21.0215 22.2022 20.8046 22.2084C20.5876 22.2022 20.3906 22.1454 20.1602 22.1454C20.06 22.144 19.96 22.1474 19.8608 22.1454C19.6303 22.1454 19.4341 22.2022 19.2175 22.2084C19.0006 22.2022 18.8046 22.1454 18.5742 22.1454C18.4737 22.144 18.3748 22.1474 18.2758 22.1454C18.0451 22.1454 17.8485 22.2023 17.6315 22.2084C17.4145 22.2022 17.2175 22.1454 16.987 22.1454C16.8868 22.144 16.7866 22.1474 16.6876 22.1454L16.6875 22.145Z" fill="url(#paint21_linear_16699_275400)"/>
<path d="M16.6875 22.0588C16.457 22.0588 16.2606 22.1156 16.044 22.1218C15.9633 22.1196 15.8861 22.1096 15.8083 22.0988L15.7756 22.1554C15.8081 22.1576 15.8406 22.1596 15.8748 22.1596C15.975 22.1609 16.0741 22.1573 16.1731 22.1596C16.4036 22.1596 16.5986 22.1029 16.8154 22.0967C17.0324 22.1029 17.2292 22.1597 17.4599 22.1597C17.5599 22.161 17.6594 22.1574 17.7581 22.1597C17.9886 22.1597 18.1856 22.1029 18.4026 22.0968C18.6196 22.1029 18.8179 22.1598 19.0484 22.1598C19.1481 22.1611 19.2479 22.1574 19.3464 22.1598C19.5769 22.1598 19.7731 22.1029 19.9898 22.0969C20.2067 22.1029 20.4025 22.1599 20.6331 22.1599C20.7338 22.1612 20.8331 22.1575 20.9325 22.1599C21.163 22.1599 21.3598 22.103 21.5769 22.0969C21.7941 22.103 21.9909 22.1599 22.2215 22.1599C22.3212 22.1613 22.4209 22.1576 22.5196 22.1599C22.75 22.1599 22.9462 22.1031 23.1629 22.097C23.3798 22.1031 23.5769 22.1599 23.8074 22.1599C23.9074 22.1613 24.007 22.1576 24.1055 22.1599C24.1459 22.1599 24.1853 22.1578 24.2241 22.1549L24.1933 22.1018C24.1224 22.1114 24.0511 22.1202 23.9776 22.1222C23.7607 22.116 23.5646 22.0592 23.3341 22.0592C23.2335 22.0579 23.1345 22.0612 23.0349 22.0592C22.8044 22.0592 22.6085 22.116 22.3916 22.1222C22.1745 22.1162 21.9779 22.0592 21.7472 22.0592C21.6475 22.0579 21.5477 22.0612 21.4491 22.0592C21.2186 22.0592 21.0215 22.116 20.8046 22.1222C20.5876 22.116 20.3906 22.0592 20.1602 22.0592C20.06 22.0579 19.96 22.0612 19.8608 22.0592C19.6303 22.0592 19.4341 22.116 19.2175 22.1222C19.0006 22.116 18.8046 22.0592 18.5742 22.0592C18.4737 22.0579 18.3748 22.0612 18.2758 22.0592C18.0451 22.0592 17.8485 22.1161 17.6315 22.1222C17.4145 22.116 17.2175 22.0592 16.987 22.0592C16.8868 22.0579 16.7866 22.0612 16.6876 22.0592L16.6875 22.0588Z" fill="url(#paint22_linear_16699_275400)"/>
<path d="M16.6875 21.9729C16.457 21.9729 16.2606 22.0297 16.044 22.0359C15.9633 22.0336 15.8861 22.0236 15.8083 22.0129L15.7756 22.0696C15.8081 22.0717 15.8406 22.0737 15.8748 22.0737C15.975 22.0751 16.0741 22.0714 16.1731 22.0737C16.4036 22.0737 16.5986 22.0171 16.8154 22.0108C17.0324 22.017 17.2292 22.0738 17.4599 22.0738C17.5599 22.0752 17.6594 22.0715 17.7581 22.0738C17.9886 22.0738 18.1856 22.017 18.4026 22.0109C18.6196 22.017 18.8179 22.0739 19.0484 22.0739C19.1481 22.0752 19.2479 22.0716 19.3464 22.0739C19.5769 22.0739 19.7731 22.0171 19.9898 22.011C20.2067 22.0171 20.4025 22.074 20.6331 22.074C20.7338 22.0753 20.8331 22.0716 20.9325 22.074C21.163 22.074 21.3598 22.0172 21.5769 22.011C21.7941 22.0172 21.9909 22.074 22.2215 22.074C22.3212 22.0753 22.4209 22.0716 22.5196 22.074C22.75 22.074 22.9462 22.0172 23.1629 22.0111C23.3798 22.0172 23.5769 22.0741 23.8074 22.0741C23.9074 22.0754 24.007 22.0717 24.1055 22.0741C24.1459 22.0741 24.1853 22.0719 24.2241 22.069L24.1933 22.0159C24.1224 22.0255 24.0511 22.0343 23.9776 22.0363C23.7607 22.0301 23.5646 21.9733 23.3341 21.9733C23.2335 21.972 23.1345 21.9753 23.0349 21.9733C22.8044 21.9733 22.6085 22.0301 22.3916 22.0363C22.1745 22.0303 21.9779 21.9733 21.7472 21.9733C21.6475 21.972 21.5477 21.9753 21.4491 21.9733C21.2186 21.9733 21.0215 22.0301 20.8046 22.0363C20.5876 22.0301 20.3906 21.9733 20.1602 21.9733C20.06 21.972 19.96 21.9753 19.8608 21.9733C19.6303 21.9733 19.4341 22.0301 19.2175 22.0363C19.0006 22.0301 18.8046 21.9733 18.5742 21.9733C18.4737 21.972 18.3748 21.9753 18.2758 21.9733C18.0451 21.9733 17.8485 22.0302 17.6315 22.0363C17.4145 22.0301 17.2175 21.9733 16.987 21.9733C16.8868 21.972 16.7866 21.9753 16.6876 21.9733L16.6875 21.9729Z" fill="url(#paint23_linear_16699_275400)"/>
<path d="M16.6875 21.8871C16.457 21.8871 16.2606 21.9439 16.044 21.9501C15.9633 21.9479 15.8861 21.9379 15.8083 21.9271L15.7756 21.9838C15.8081 21.9859 15.8406 21.9879 15.8748 21.9879C15.975 21.9893 16.0741 21.9856 16.1731 21.9879C16.4036 21.9879 16.5986 21.9313 16.8154 21.925C17.0324 21.9312 17.2292 21.988 17.4599 21.988C17.5599 21.9893 17.6594 21.9857 17.7581 21.988C17.9886 21.988 18.1856 21.9313 18.4026 21.9251C18.6196 21.9313 18.8179 21.9881 19.0484 21.9881C19.1481 21.9894 19.2479 21.9858 19.3464 21.9881C19.5769 21.9881 19.7731 21.9313 19.9898 21.9252C20.2067 21.9313 20.4025 21.9882 20.6331 21.9882C20.7338 21.9895 20.8331 21.9858 20.9325 21.9882C21.163 21.9882 21.3598 21.9313 21.5769 21.9253C21.7941 21.9313 21.9909 21.9883 22.2215 21.9883C22.3212 21.9896 22.4209 21.9859 22.5196 21.9883C22.75 21.9883 22.9462 21.9314 23.1629 21.9253C23.3798 21.9314 23.5769 21.9883 23.8074 21.9883C23.9074 21.9896 24.007 21.9859 24.1055 21.9883C24.1459 21.9883 24.1853 21.9861 24.2241 21.9833L24.1933 21.9301C24.1224 21.9397 24.0511 21.9485 23.9776 21.9505C23.7607 21.9443 23.5646 21.8875 23.3341 21.8875C23.2335 21.8862 23.1345 21.8895 23.0349 21.8875C22.8044 21.8875 22.6085 21.9443 22.3916 21.9505C22.1745 21.9445 21.9779 21.8875 21.7472 21.8875C21.6475 21.8862 21.5477 21.8895 21.4491 21.8875C21.2186 21.8875 21.0215 21.9443 20.8046 21.9505C20.5876 21.9443 20.3906 21.8875 20.1602 21.8875C20.06 21.8862 19.96 21.8895 19.8608 21.8875C19.6303 21.8875 19.4341 21.9443 19.2175 21.9505C19.0006 21.9443 18.8046 21.8875 18.5742 21.8875C18.4737 21.8862 18.3748 21.8895 18.2758 21.8875C18.0451 21.8875 17.8485 21.9444 17.6315 21.9505C17.4145 21.9443 17.2175 21.8875 16.987 21.8875C16.8868 21.8862 16.7866 21.8895 16.6876 21.8875L16.6875 21.8871Z" fill="url(#paint24_linear_16699_275400)"/>
<path d="M16.6875 21.8014C16.457 21.8014 16.2606 21.8582 16.044 21.8644C15.9633 21.8621 15.8861 21.8521 15.8083 21.8414L15.7756 21.8981C15.8081 21.9001 15.8406 21.9022 15.8748 21.9022C15.975 21.9036 16.0741 21.8999 16.1731 21.9022C16.4036 21.9022 16.5986 21.8456 16.8154 21.8393C17.0324 21.8455 17.2292 21.9023 17.4599 21.9023C17.5599 21.9036 17.6594 21.9 17.7581 21.9023C17.9886 21.9023 18.1856 21.8455 18.4026 21.8394C18.6196 21.8455 18.8179 21.9024 19.0484 21.9024C19.1481 21.9037 19.2479 21.9001 19.3464 21.9024C19.5769 21.9024 19.7731 21.8456 19.9898 21.8395C20.2067 21.8456 20.4025 21.9025 20.6331 21.9025C20.7338 21.9038 20.8331 21.9001 20.9325 21.9025C21.163 21.9025 21.3598 21.8456 21.5769 21.8395C21.7941 21.8456 21.9909 21.9025 22.2215 21.9025C22.3212 21.9038 22.4209 21.9001 22.5196 21.9025C22.75 21.9025 22.9462 21.8457 23.1629 21.8396C23.3798 21.8457 23.5769 21.9026 23.8074 21.9026C23.9074 21.9039 24.007 21.9002 24.1055 21.9026C24.1459 21.9026 24.1853 21.9004 24.2241 21.8975L24.1933 21.8444C24.1224 21.854 24.0511 21.8628 23.9776 21.8648C23.7607 21.8586 23.5646 21.8018 23.3341 21.8018C23.2335 21.8005 23.1345 21.8038 23.0349 21.8018C22.8044 21.8018 22.6085 21.8586 22.3916 21.8648C22.1745 21.8588 21.9779 21.8018 21.7472 21.8018C21.6475 21.8005 21.5477 21.8038 21.4491 21.8018C21.2186 21.8018 21.0215 21.8586 20.8046 21.8648C20.5876 21.8586 20.3906 21.8018 20.1602 21.8018C20.06 21.8005 19.96 21.8038 19.8608 21.8018C19.6303 21.8018 19.4341 21.8586 19.2175 21.8648C19.0006 21.8586 18.8046 21.8018 18.5742 21.8018C18.4737 21.8005 18.3748 21.8038 18.2758 21.8018C18.0451 21.8018 17.8485 21.8587 17.6315 21.8648C17.4145 21.8586 17.2175 21.8018 16.987 21.8018C16.8868 21.8005 16.7866 21.8038 16.6876 21.8018L16.6875 21.8014Z" fill="url(#paint25_linear_16699_275400)"/>
<path d="M16.6875 21.7154C16.457 21.7154 16.2606 21.7723 16.044 21.7784C15.9633 21.7762 15.8861 21.7662 15.8083 21.7554L15.7756 21.8121C15.8081 21.8142 15.8406 21.8163 15.8748 21.8163C15.975 21.8176 16.0741 21.814 16.1731 21.8163C16.4036 21.8163 16.5986 21.7596 16.8154 21.7534C17.0324 21.7595 17.2292 21.8164 17.4599 21.8164C17.5599 21.8177 17.6594 21.8141 17.7581 21.8164C17.9886 21.8164 18.1856 21.7596 18.4026 21.7534C18.6196 21.7596 18.8179 21.8164 19.0484 21.8164C19.1481 21.8177 19.2479 21.8141 19.3464 21.8164C19.5769 21.8164 19.7731 21.7596 19.9898 21.7535C20.2067 21.7596 20.4025 21.8165 20.6331 21.8165C20.7338 21.8178 20.8331 21.8141 20.9325 21.8165C21.163 21.8165 21.3598 21.7597 21.5769 21.7536C21.7941 21.7597 21.9909 21.8166 22.2215 21.8166C22.3212 21.8179 22.4209 21.8142 22.5196 21.8166C22.75 21.8166 22.9462 21.7597 23.1629 21.7536C23.3798 21.7597 23.5769 21.8166 23.8074 21.8166C23.9074 21.818 24.007 21.8143 24.1055 21.8166C24.1459 21.8166 24.1853 21.8144 24.2241 21.8116L24.1933 21.7584C24.1224 21.7681 24.0511 21.7768 23.9776 21.7788C23.7607 21.7727 23.5646 21.7158 23.3341 21.7158C23.2335 21.7145 23.1345 21.7178 23.0349 21.7158C22.8044 21.7158 22.6085 21.7727 22.3916 21.7788C22.1745 21.7728 21.9779 21.7158 21.7472 21.7158C21.6475 21.7145 21.5477 21.7178 21.4491 21.7158C21.2186 21.7158 21.0215 21.7727 20.8046 21.7788C20.5876 21.7727 20.3906 21.7158 20.1602 21.7158C20.06 21.7145 19.96 21.7178 19.8608 21.7158C19.6303 21.7158 19.4341 21.7727 19.2175 21.7788C19.0006 21.7727 18.8046 21.7158 18.5742 21.7158C18.4737 21.7145 18.3748 21.7178 18.2758 21.7158C18.0451 21.7158 17.8485 21.7727 17.6315 21.7788C17.4145 21.7727 17.2175 21.7158 16.987 21.7158C16.8868 21.7145 16.7866 21.7178 16.6876 21.7158L16.6875 21.7154Z" fill="url(#paint26_linear_16699_275400)"/>
<path d="M16.6875 21.6297C16.457 21.6297 16.2606 21.6865 16.044 21.6927C15.9633 21.6905 15.8861 21.6805 15.8083 21.6697L15.7756 21.7264C15.8081 21.7285 15.8406 21.7305 15.8748 21.7305C15.975 21.7319 16.0741 21.7282 16.1731 21.7305C16.4036 21.7305 16.5986 21.6739 16.8154 21.6676C17.0324 21.6737 17.2292 21.7306 17.4599 21.7306C17.5599 21.7319 17.6594 21.7283 17.7581 21.7306C17.9886 21.7306 18.1856 21.6738 18.4026 21.6677C18.6196 21.6738 18.8179 21.7307 19.0484 21.7307C19.1481 21.732 19.2479 21.7284 19.3464 21.7307C19.5769 21.7307 19.7731 21.6739 19.9898 21.6677C20.2067 21.6739 20.4025 21.7307 20.6331 21.7307C20.7338 21.732 20.8331 21.7284 20.9325 21.7307C21.163 21.7307 21.3598 21.6739 21.5769 21.6678C21.7941 21.6739 21.9909 21.7308 22.2215 21.7308C22.3212 21.7321 22.4209 21.7285 22.5196 21.7308C22.75 21.7308 22.9462 21.674 23.1629 21.6679C23.3798 21.674 23.5769 21.7309 23.8074 21.7309C23.9074 21.7322 24.007 21.7285 24.1055 21.7309C24.1459 21.7309 24.1853 21.7287 24.2241 21.7258L24.1933 21.6727C24.1224 21.6823 24.0511 21.691 23.9776 21.693C23.7607 21.687 23.5646 21.63 23.3341 21.63C23.2335 21.6287 23.1345 21.632 23.0349 21.63C22.8044 21.63 22.6085 21.687 22.3916 21.693C22.1745 21.687 21.9779 21.63 21.7472 21.63C21.6475 21.6287 21.5477 21.632 21.4491 21.63C21.2186 21.63 21.0215 21.687 20.8046 21.693C20.5876 21.687 20.3906 21.63 20.1602 21.63C20.06 21.6287 19.96 21.632 19.8608 21.63C19.6303 21.63 19.4341 21.687 19.2175 21.693C19.0006 21.687 18.8046 21.63 18.5742 21.63C18.4737 21.6287 18.3748 21.632 18.2758 21.63C18.0451 21.63 17.8485 21.687 17.6315 21.693C17.4145 21.687 17.2175 21.63 16.987 21.63C16.8868 21.6287 16.7866 21.632 16.6876 21.63L16.6875 21.6297Z" fill="url(#paint27_linear_16699_275400)"/>
<path d="M16.2563 21.647L16.0944 21.9263C16.2837 21.895 16.5678 21.8129 16.8033 21.8127C17.0475 21.8125 17.3421 21.8729 17.6325 21.8738C17.9703 21.8747 18.0977 21.8018 18.3701 21.7748C18.6425 21.7477 18.9033 21.8099 19.1638 21.8112C19.3735 21.8107 19.6929 21.7385 19.962 21.7103C20.2312 21.6823 20.4778 21.7299 20.8023 21.735C21.1267 21.7399 21.1776 21.6563 21.574 21.6476C21.9983 21.6383 22.0371 21.7061 22.4129 21.7061C22.6957 21.7214 22.9384 21.6492 23.1907 21.6314C23.4429 21.6134 23.56 21.6343 23.7443 21.6386L23.6218 21.4218C23.6197 21.4218 23.6177 21.4219 23.6156 21.422L16.8658 21.5703L16.2563 21.647Z" fill="#97C924"/>
<path d="M23.3377 21.6433C23.3377 21.6433 23.5184 21.6531 23.5941 21.6616C23.6597 21.6684 23.7254 21.674 23.7911 21.6785L23.7665 21.6462C23.7282 21.6597 23.4719 21.6335 23.3377 21.6433Z" fill="white"/>
</g>
<path d="M20 14.9917L17.8573 18.704L15.6667 22.4974L19.9532 22.4968L24.3334 22.4974L22.1898 18.7852L20 14.9917ZM20 15.1917L22.1034 18.8353L24.16 22.3971L19.9532 22.3969L15.8399 22.3971L17.9438 18.7541L20 15.1917Z" fill="#C8A400"/>
</g>
</g>
</g>
<defs>
<linearGradient id="paint0_linear_16699_275400" x1="19.9157" y1="19.2704" x2="20.0416" y2="18.8947" gradientUnits="userSpaceOnUse">
<stop stop-color="#510000"/>
<stop offset="0.3" stop-color="#8A0000"/>
<stop offset="1" stop-color="#AA0000"/>
</linearGradient>
<linearGradient id="paint1_linear_16699_275400" x1="20.0962" y1="19.4249" x2="20.1951" y2="19.1633" gradientUnits="userSpaceOnUse">
<stop stop-color="#FF2A2A"/>
<stop offset="1" stop-color="#FF0000"/>
</linearGradient>
<linearGradient id="paint2_linear_16699_275400" x1="16.3004" y1="21.1658" x2="28.9606" y2="21.1658" gradientUnits="userSpaceOnUse">
<stop stop-color="#002255"/>
<stop offset="0.5" stop-color="#0044AA"/>
<stop offset="1" stop-color="#002255"/>
</linearGradient>
<linearGradient id="paint3_linear_16699_275400" x1="16.3004" y1="21.0915" x2="28.9606" y2="21.0915" gradientUnits="userSpaceOnUse">
<stop stop-color="#002255"/>
<stop offset="0.5" stop-color="#0044AA"/>
<stop offset="1" stop-color="#002255"/>
</linearGradient>
<linearGradient id="paint4_linear_16699_275400" x1="16.3004" y1="21.0171" x2="28.9606" y2="21.0171" gradientUnits="userSpaceOnUse">
<stop stop-color="#002255"/>
<stop offset="0.5" stop-color="#0044AA"/>
<stop offset="1" stop-color="#002255"/>
</linearGradient>
<linearGradient id="paint5_linear_16699_275400" x1="16.3004" y1="20.9429" x2="28.9606" y2="20.9429" gradientUnits="userSpaceOnUse">
<stop stop-color="#002255"/>
<stop offset="0.5" stop-color="#0044AA"/>
<stop offset="1" stop-color="#002255"/>
</linearGradient>
<linearGradient id="paint6_linear_16699_275400" x1="16.3004" y1="20.8686" x2="28.9606" y2="20.8686" gradientUnits="userSpaceOnUse">
<stop stop-color="#002255"/>
<stop offset="0.5" stop-color="#0044AA"/>
<stop offset="1" stop-color="#002255"/>
</linearGradient>
<linearGradient id="paint7_linear_16699_275400" x1="16.3004" y1="20.7942" x2="28.9606" y2="20.7942" gradientUnits="userSpaceOnUse">
<stop stop-color="#002255"/>
<stop offset="0.5" stop-color="#0044AA"/>
<stop offset="1" stop-color="#002255"/>
</linearGradient>
<linearGradient id="paint8_linear_16699_275400" x1="16.3004" y1="20.7197" x2="28.9606" y2="20.7197" gradientUnits="userSpaceOnUse">
<stop stop-color="#002255"/>
<stop offset="0.5" stop-color="#0044AA"/>
<stop offset="1" stop-color="#002255"/>
</linearGradient>
<linearGradient id="paint9_linear_16699_275400" x1="16.3004" y1="20.6454" x2="28.9606" y2="20.6454" gradientUnits="userSpaceOnUse">
<stop stop-color="#002255"/>
<stop offset="0.5" stop-color="#0044AA"/>
<stop offset="1" stop-color="#002255"/>
</linearGradient>
<linearGradient id="paint10_linear_16699_275400" x1="16.3004" y1="20.5711" x2="28.9606" y2="20.5711" gradientUnits="userSpaceOnUse">
<stop stop-color="#002255"/>
<stop offset="0.5" stop-color="#0044AA"/>
<stop offset="1" stop-color="#002255"/>
</linearGradient>
<linearGradient id="paint11_linear_16699_275400" x1="16.3005" y1="21.1658" x2="28.9607" y2="21.1658" gradientUnits="userSpaceOnUse">
<stop stop-color="#002255"/>
<stop offset="0.5" stop-color="#0044AA"/>
<stop offset="1" stop-color="#002255"/>
</linearGradient>
<linearGradient id="paint12_linear_16699_275400" x1="16.3005" y1="21.1658" x2="28.9607" y2="21.1658" gradientUnits="userSpaceOnUse">
<stop stop-color="#002255"/>
<stop offset="0.5" stop-color="#0044AA"/>
<stop offset="1" stop-color="#002255"/>
</linearGradient>
<linearGradient id="paint13_linear_16699_275400" x1="18.9841" y1="20.7806" x2="18.9841" y2="21.1764" gradientUnits="userSpaceOnUse">
<stop stop-color="#F5F549"/>
<stop offset="1" stop-color="#97C924"/>
</linearGradient>
<linearGradient id="paint14_linear_16699_275400" x1="17.9613" y1="20.7806" x2="17.9613" y2="21.1764" gradientUnits="userSpaceOnUse">
<stop stop-color="#F5F549"/>
<stop offset="1" stop-color="#97C924"/>
</linearGradient>
<linearGradient id="paint15_linear_16699_275400" x1="18.9841" y1="20.7806" x2="18.9841" y2="21.1765" gradientUnits="userSpaceOnUse">
<stop stop-color="#F5F549"/>
<stop offset="1" stop-color="#97C924"/>
</linearGradient>
<linearGradient id="paint16_linear_16699_275400" x1="18.9841" y1="20.7806" x2="18.9841" y2="21.1764" gradientUnits="userSpaceOnUse">
<stop stop-color="#F5F549"/>
<stop offset="1" stop-color="#97C924"/>
</linearGradient>
<linearGradient id="paint17_linear_16699_275400" x1="17.9555" y1="20.7806" x2="17.9555" y2="21.1764" gradientUnits="userSpaceOnUse">
<stop stop-color="#F5F549"/>
<stop offset="1" stop-color="#97C924"/>
</linearGradient>
<linearGradient id="paint18_linear_16699_275400" x1="16.0544" y1="21.541" x2="23.801" y2="21.541" gradientUnits="userSpaceOnUse">
<stop stop-color="#002255"/>
<stop offset="0.5" stop-color="#0044AA"/>
<stop offset="1" stop-color="#002255"/>
</linearGradient>
<linearGradient id="paint19_linear_16699_275400" x1="15.7754" y1="22.3162" x2="24.2243" y2="22.3162" gradientUnits="userSpaceOnUse">
<stop stop-color="#002255"/>
<stop offset="0.5" stop-color="#0044AA"/>
<stop offset="1" stop-color="#002255"/>
</linearGradient>
<linearGradient id="paint20_linear_16699_275400" x1="15.7754" y1="22.2303" x2="24.2243" y2="22.2303" gradientUnits="userSpaceOnUse">
<stop stop-color="#002255"/>
<stop offset="0.5" stop-color="#0044AA"/>
<stop offset="1" stop-color="#002255"/>
</linearGradient>
<linearGradient id="paint21_linear_16699_275400" x1="15.7754" y1="22.1445" x2="24.2243" y2="22.1445" gradientUnits="userSpaceOnUse">
<stop stop-color="#002255"/>
<stop offset="0.5" stop-color="#0044AA"/>
<stop offset="1" stop-color="#002255"/>
</linearGradient>
<linearGradient id="paint22_linear_16699_275400" x1="15.7754" y1="22.0584" x2="24.2243" y2="22.0584" gradientUnits="userSpaceOnUse">
<stop stop-color="#002255"/>
<stop offset="0.5" stop-color="#0044AA"/>
<stop offset="1" stop-color="#002255"/>
</linearGradient>
<linearGradient id="paint23_linear_16699_275400" x1="15.7754" y1="21.9725" x2="24.2243" y2="21.9725" gradientUnits="userSpaceOnUse">
<stop stop-color="#002255"/>
<stop offset="0.5" stop-color="#0044AA"/>
<stop offset="1" stop-color="#002255"/>
</linearGradient>
<linearGradient id="paint24_linear_16699_275400" x1="15.7754" y1="21.8867" x2="24.2243" y2="21.8867" gradientUnits="userSpaceOnUse">
<stop stop-color="#002255"/>
<stop offset="0.5" stop-color="#0044AA"/>
<stop offset="1" stop-color="#002255"/>
</linearGradient>
<linearGradient id="paint25_linear_16699_275400" x1="15.7754" y1="21.801" x2="24.2243" y2="21.801" gradientUnits="userSpaceOnUse">
<stop stop-color="#002255"/>
<stop offset="0.5" stop-color="#0044AA"/>
<stop offset="1" stop-color="#002255"/>
</linearGradient>
<linearGradient id="paint26_linear_16699_275400" x1="15.7754" y1="21.7151" x2="24.2243" y2="21.7151" gradientUnits="userSpaceOnUse">
<stop stop-color="#002255"/>
<stop offset="0.5" stop-color="#0044AA"/>
<stop offset="1" stop-color="#002255"/>
</linearGradient>
<linearGradient id="paint27_linear_16699_275400" x1="15.7754" y1="21.6293" x2="24.2243" y2="21.6293" gradientUnits="userSpaceOnUse">
<stop stop-color="#002255"/>
<stop offset="0.5" stop-color="#0044AA"/>
<stop offset="1" stop-color="#002255"/>
</linearGradient>
<clipPath id="clip0_16699_275400">
<rect width="40" height="40" fill="white"/>
</clipPath>
</defs>
</svg>
