<svg width="40" height="40" viewBox="0 0 40 40" fill="none" xmlns="http://www.w3.org/2000/svg">
<g clip-path="url(#clip0_16699_275916)">
<mask id="mask0_16699_275916" style="mask-type:luminance" maskUnits="userSpaceOnUse" x="0" y="0" width="40" height="40">
<path d="M40 0H0V40H40V0Z" fill="white"/>
</mask>
<g mask="url(#mask0_16699_275916)">
<mask id="mask1_16699_275916" style="mask-type:luminance" maskUnits="userSpaceOnUse" x="0" y="0" width="40" height="40">
<path d="M40 20C40 8.95433 31.0457 0 20 0C8.95433 0 0 8.95433 0 20C0 31.0457 8.95433 40 20 40C31.0457 40 40 31.0457 40 20Z" fill="white"/>
</mask>
<g mask="url(#mask1_16699_275916)">
<path d="M50 0H-10V20H50V0Z" fill="white"/>
<path d="M50 20H-10V40H50V20Z" fill="#D52B1E"/>
<path d="M50 13.3333H-10V26.6666H50V13.3333Z" fill="#0039A6"/>
</g>
<path d="M1.66675 0.041687C2.56421 0.041687 3.29175 0.769225 3.29175 1.66669C3.29175 2.56415 2.56421 3.29169 1.66675 3.29169C0.769286 3.29169 0.041748 2.56415 0.041748 1.66669C0.041748 0.769225 0.769286 0.041687 1.66675 0.041687Z" stroke="black" stroke-opacity="0.2" stroke-width="0.5"/>
</g>
</g>
<defs>
<clipPath id="clip0_16699_275916">
<rect width="40" height="40" fill="white"/>
</clipPath>
</defs>
</svg>
