<svg width="40" height="40" viewBox="0 0 40 40" fill="none" xmlns="http://www.w3.org/2000/svg">
<g clip-path="url(#clip0_16699_275929)">
<mask id="mask0_16699_275929" style="mask-type:luminance" maskUnits="userSpaceOnUse" x="0" y="0" width="40" height="40">
<path d="M40 0H0V40H40V0Z" fill="white"/>
</mask>
<g mask="url(#mask0_16699_275929)">
<mask id="mask1_16699_275929" style="mask-type:luminance" maskUnits="userSpaceOnUse" x="0" y="0" width="40" height="40">
<path d="M40 20C40 8.95433 31.0457 0 20 0C8.95433 0 0 8.95433 0 20C0 31.0457 8.95433 40 20 40C31.0457 40 40 31.0457 40 20Z" fill="white"/>
</mask>
<g mask="url(#mask1_16699_275929)">
<path d="M40 0H-20V40H40V0Z" fill="#20603D"/>
<path d="M40 0H-20V30H40V0Z" fill="#FAD201"/>
<path d="M40 0H-20V20H40V0Z" fill="#00A1DE"/>
<path d="M35.7028 10.45L31.2357 10.711L35.483 12.1193L31.1006 11.2153L34.8387 13.675L30.8395 11.6675L33.8137 15.0108L30.4703 12.0367L32.4778 16.0358L30.0182 12.2977L30.9222 16.6802L29.5138 12.4328L29.2528 16.9L29.1973 10.3943L35.7028 10.45Z" fill="#E5BE01"/>
<path d="M35.7028 10.45L31.2357 10.1889L35.483 8.78058L31.1006 9.68467L34.8387 7.225L30.8395 9.2325L33.8137 5.88916L30.4703 8.86325L32.4778 4.86414L30.0182 8.60225L30.9222 4.21978L29.5138 8.46708L29.2528 4L29.1973 10.5055L35.7028 10.45Z" fill="#E5BE01"/>
<path d="M22.8013 10.4498L27.2684 10.711L23.021 12.1193L27.4035 11.2153L23.6654 13.6748L27.6646 11.6675L24.6904 15.0108L28.0337 12.0366L26.0263 16.0358L28.4859 12.2977L27.5819 16.6802L28.9902 12.4328L29.2513 16.8998L29.3068 10.3943L22.8013 10.4498Z" fill="#E5BE01"/>
<path d="M22.8013 10.4498L27.2684 10.1888L23.021 8.7804L27.4035 9.68448L23.6654 7.22482L27.6646 9.23232L24.6904 5.88898L28.0337 8.86315L26.0263 4.86395L28.4859 8.60207L27.5819 4.21959L28.9902 8.4669L29.2513 3.99982L29.3068 10.5054L22.8013 10.4498Z" fill="#E5BE01"/>
<path d="M29.2514 12.3555C30.3037 12.3555 31.1569 11.5024 31.1569 10.45C31.1569 9.3976 30.3037 8.54443 29.2514 8.54443C28.1989 8.54443 27.3457 9.3976 27.3457 10.45C27.3457 11.5024 28.1989 12.3555 29.2514 12.3555Z" fill="#E5BE01" stroke="#00A1DE" stroke-width="0.0944445"/>
</g>
</g>
</g>
<defs>
<clipPath id="clip0_16699_275929">
<rect width="40" height="40" fill="white"/>
</clipPath>
</defs>
</svg>
