<svg width="40" height="40" viewBox="0 0 40 40" fill="none" xmlns="http://www.w3.org/2000/svg">
<g clip-path="url(#clip0_16699_275946)">
<mask id="mask0_16699_275946" style="mask-type:luminance" maskUnits="userSpaceOnUse" x="0" y="0" width="40" height="40">
<path d="M40 0H0V40H40V0Z" fill="white"/>
</mask>
<g mask="url(#mask0_16699_275946)">
<mask id="mask1_16699_275946" style="mask-type:luminance" maskUnits="userSpaceOnUse" x="0" y="0" width="40" height="40">
<path d="M40 20C40 8.95433 31.0457 0 20 0C8.95433 0 0 8.95433 0 20C0 31.0457 8.95433 40 20 40C31.0457 40 40 31.0457 40 20Z" fill="white"/>
</mask>
<g mask="url(#mask1_16699_275946)">
<path d="M-10 0H50V40H-10V0Z" fill="#006C35"/>
<path d="M27.6215 27.5C27.5231 27.5 27.2569 27.7719 27.2569 27.8703C27.2569 27.9455 27.39 28.096 27.5 28.1828V28.4086H8.75C9.4155 29.0741 10.4051 29.0914 12.3958 29.0914H27.5V29.3172C27.3843 29.4098 27.2569 29.5545 27.2569 29.6297C27.2569 29.7281 27.5231 30 27.6215 30C27.7025 30 27.8473 29.8554 27.9398 29.7339H28.7732C28.7993 29.7763 28.8438 29.8126 28.901 29.8382C28.9582 29.8637 29.0255 29.8773 29.0943 29.8773C29.1632 29.8773 29.2305 29.8637 29.2876 29.8382C29.3448 29.8126 29.3893 29.7763 29.4155 29.7339H30.4051C30.5266 29.8727 30.6886 29.8785 30.787 29.8785C31.0705 29.8785 31.25 29.7569 31.25 29.0914C31.25 28.4664 30.9722 28.4086 30.2893 28.4086H27.7431V28.1828C27.8531 28.096 27.9861 27.9455 27.9861 27.8703C27.9861 27.7719 27.7199 27.5 27.6215 27.5ZM27.7431 29.0914H30.2893C30.243 29.265 30.243 29.3982 30.2893 29.5255H29.4155C29.3893 29.4831 29.3448 29.4468 29.2876 29.4212C29.2305 29.3957 29.1632 29.382 29.0943 29.382C29.0255 29.382 28.9582 29.3957 28.901 29.4212C28.8438 29.4468 28.7993 29.4831 28.7732 29.5255H27.9398C27.8935 29.4619 27.8068 29.3635 27.7431 29.3172V29.0914Z" fill="white"/>
<path d="M32.4733 10.9119C32.8317 10.6141 33.1793 10.3082 33.5238 10C33.539 10.277 33.359 10.5316 33.158 10.748C33.0503 10.8738 32.8985 10.9679 32.762 11.0725C32.6966 11.1194 32.6332 11.1676 32.5704 11.2165C32.5885 11.2905 32.616 11.3635 32.6261 11.4387C32.6209 11.5084 32.6067 11.5778 32.5962 11.6473C32.5189 11.5513 32.4637 11.4442 32.3753 11.3543C32.4142 11.6685 32.4331 11.984 32.4596 12.299C32.5287 13.2238 32.592 14.1487 32.6516 15.0739C32.6481 15.0978 32.6745 15.1129 32.6915 15.1298C32.9466 15.3542 33.2006 15.5795 33.4393 15.815C33.6269 16.0125 33.8044 16.2166 33.955 16.4334C34.1522 16.7172 34.3084 17.0245 34.3545 17.3485C34.3795 17.5522 34.3671 17.7625 34.2833 17.9576C34.199 17.4673 33.9334 17.0027 33.5574 16.6097C33.5494 16.6087 33.5329 16.6068 33.5248 16.6059C33.529 16.6029 33.5378 16.5968 33.542 16.5937C33.2756 16.3065 32.9893 16.031 32.6952 15.7614C32.7157 16.0912 32.7362 16.4212 32.7522 16.7511C32.7678 17.1768 32.748 17.6026 32.7252 18.0278C32.7253 18.1084 32.6794 18.182 32.6558 18.259C32.5872 18.4318 32.532 18.6088 32.4442 18.7763C32.4302 18.3835 32.4133 17.9903 32.3834 17.598C32.3295 16.8952 32.2729 16.1927 32.2221 15.49C32.2146 15.4347 32.2184 15.3782 32.2051 15.3238C32.0116 15.1448 31.8026 14.9764 31.6005 14.8036C31.2445 14.5093 30.8848 14.2178 30.5114 13.9373C30.5823 14.6714 30.6555 15.4054 30.7218 16.1398C30.7502 16.4732 30.7877 16.8066 30.7917 17.141C30.7968 17.4318 30.7931 17.7228 30.7849 18.0135C30.7859 18.197 30.7891 18.3866 30.7069 18.5611C30.5852 18.7772 30.367 18.9576 30.1039 19.069C29.8985 19.1552 29.6662 19.2011 29.4338 19.2027C29.2769 19.2054 29.1209 19.1724 28.9822 19.1157C28.7394 19.0074 28.5663 18.8226 28.4548 18.6238C28.3784 18.4869 28.3235 18.3422 28.2939 18.1942C28.2767 18.1295 28.2585 18.0546 28.1854 18.0141C28.1272 17.983 28.0576 18.0078 28.0013 18.0286C27.8644 18.0863 27.7326 18.1559 27.6335 18.2518C27.311 18.5589 27.1576 18.9508 27.0616 19.3365C27.0146 19.5029 26.9401 19.6684 26.8093 19.8058C26.7145 19.9037 26.5786 19.9885 26.4188 20C26.2935 19.9929 26.1722 19.9596 26.0602 19.9158C25.8123 19.8124 25.6379 19.6237 25.538 19.4201C25.5082 19.3671 25.4943 19.3094 25.464 19.2569C25.4589 19.2562 25.4489 19.2551 25.4438 19.2544C25.4487 19.2519 25.4585 19.2468 25.4633 19.2441C25.3607 18.9332 25.3457 18.6085 25.3681 18.2889C25.379 18.258 25.3385 18.2468 25.3162 18.2296C25.2279 18.1697 25.1918 18.0745 25.193 17.9849C25.1905 17.6561 25.2508 17.3216 25.4258 17.0207C25.5676 16.7726 25.78 16.556 25.9869 16.3402C26.0063 16.3169 26.0407 16.2983 26.0502 16.2711C25.9213 16.1547 25.7853 16.0432 25.6479 15.9332C25.5695 15.8615 25.4742 15.8033 25.397 15.7309C25.1071 15.4822 24.8221 15.2301 24.5372 14.9778C24.5644 15.3469 24.5851 15.7162 24.6084 16.0855C24.6261 16.4275 24.6561 16.7694 24.6499 17.1119C24.6512 17.4171 24.6338 17.7221 24.618 18.0269C24.6172 18.1029 24.5784 18.1737 24.5539 18.2461C24.4848 18.4246 24.4224 18.6052 24.3386 18.7799C24.323 18.6354 24.3325 18.4899 24.3209 18.3452C24.2892 17.6236 24.2179 16.9037 24.1672 16.1829C24.1241 15.6315 24.086 15.0796 24.0401 14.5284C23.8503 14.342 23.6499 14.1616 23.4622 13.9734C23.2424 13.754 23.0227 13.533 22.8387 13.2935C22.5745 12.9174 22.2779 12.5522 21.9118 12.2326C21.8909 12.2171 21.8974 12.194 21.8976 12.1741C21.9102 11.9673 21.9202 11.7605 21.9331 11.5538C22.1938 11.688 22.4424 11.8368 22.6813 11.9945C22.8664 12.1209 23.0426 12.2564 23.1924 12.4096C23.2697 12.482 23.3411 12.5744 23.3151 12.6733C23.2271 12.6457 23.1362 12.6236 23.0529 12.5878C23.0194 12.5733 22.983 12.564 22.9455 12.5595C22.94 12.6174 22.9898 12.663 23.0271 12.7085C23.2987 13.0232 23.5819 13.3312 23.8726 13.635C23.9099 13.6739 23.9511 13.7111 23.9798 13.7549C23.9614 13.3988 23.9271 13.043 23.9027 12.687C23.8615 12.1372 23.8193 11.5876 23.7781 11.0378C23.7705 10.9557 23.7756 10.871 23.7339 10.7937C23.7137 10.7629 23.7435 10.7348 23.76 10.7082C23.8598 10.5556 23.9562 10.4015 24.0508 10.2467C24.0554 10.2359 24.0773 10.208 24.0839 10.2348C24.2633 10.6036 24.4028 10.9844 24.5059 11.371C24.5376 11.4635 24.4985 11.5578 24.4868 11.6503C24.4198 11.5456 24.3439 11.4447 24.2696 11.3432C24.3648 12.3087 24.42 13.2765 24.4913 14.243C24.5395 14.3071 24.6135 14.3578 24.6724 14.4164C25.2412 14.9354 25.8318 15.439 26.422 15.9426C26.8605 15.5573 27.3035 15.175 27.748 14.794C27.7673 14.7799 27.7805 14.7626 27.7736 14.7411C27.6399 13.5393 27.506 12.3374 27.372 11.1356C27.355 11.0141 27.3596 10.889 27.3019 10.7736C27.4115 10.5874 27.5315 10.4048 27.6404 10.2182C27.7 10.3162 27.741 10.4209 27.788 10.5233C27.8984 10.7783 27.994 11.0376 28.0695 11.3004C28.0853 11.3596 28.1112 11.4194 28.1009 11.4807C28.093 11.536 28.0833 11.5912 28.0758 11.6467C28.0025 11.5488 27.9323 11.4495 27.8585 11.3518C27.8478 11.355 27.8376 11.3583 27.8278 11.3617C27.8383 11.3638 27.8492 11.3657 27.8604 11.3675C27.9717 12.3897 28.0555 13.414 28.1647 14.4366C28.6255 14.0493 29.0827 13.659 29.5456 13.2733C29.5964 13.2275 29.6543 13.1866 29.7011 13.1381C29.4758 12.8985 29.2657 12.6504 29.056 12.4023C28.9831 12.3206 28.9265 12.231 28.8569 12.1476C28.7103 11.9679 28.5607 11.7861 28.3594 11.6411C28.3419 11.4076 28.3324 11.1735 28.3198 10.9395C28.7924 11.2663 29.2725 11.5866 29.7318 11.9253C29.7758 11.9565 29.8108 11.9948 29.8353 12.0375C29.794 11.6721 29.7561 11.3065 29.717 10.9409C29.7123 10.9073 29.7137 10.8724 29.696 10.841C29.6842 10.8088 29.6518 10.7744 29.6781 10.7416C29.7868 10.5647 29.8893 10.3856 29.9968 10.2082C30.1849 10.5604 30.3314 10.9263 30.4475 11.2975C30.4594 11.3496 30.4881 11.4008 30.4794 11.4546C30.4708 11.514 30.4657 11.5736 30.4571 11.633C30.3907 11.5456 30.3242 11.4582 30.2585 11.3707C30.2471 11.3568 30.2364 11.3429 30.2268 11.3288C30.2867 11.747 30.3263 12.1668 30.3731 12.5859C30.7193 12.2952 31.0748 12.0116 31.4329 11.7299C31.5924 11.6105 31.7579 11.4959 31.9108 11.371C31.8964 11.2087 31.8881 11.0461 31.872 10.884C31.869 10.8326 31.8093 10.7807 31.8512 10.7315C31.9642 10.5614 32.0713 10.3887 32.1768 10.2155C32.3004 10.4402 32.3839 10.6777 32.4733 10.9119ZM30.4112 12.949C30.4166 13.0146 30.4236 13.0802 30.4312 13.1457C30.5437 13.2557 30.658 13.3647 30.7768 13.4705C31.2299 13.8752 31.6987 14.2687 32.1585 14.6685C32.0873 13.6795 32.0074 12.6906 31.9367 11.7015C31.418 12.1095 30.9094 12.5253 30.4112 12.949ZM29.4326 12.052C29.5779 12.2317 29.7291 12.4088 29.8904 12.5798C29.8774 12.4213 29.858 12.2629 29.8404 12.1047C29.8317 12.1187 29.8222 12.1327 29.8149 12.147C29.7053 12.0837 29.5715 12.0341 29.4326 12.052ZM28.5011 14.6103C28.4071 14.6978 28.3025 14.7785 28.2141 14.8695C28.235 15.1499 28.2802 15.4297 28.3081 15.71C28.3217 16.1733 28.2245 16.6651 27.8644 17.0443C27.8748 16.984 27.8698 16.923 27.8707 16.8622C27.8702 16.6543 27.8705 16.4464 27.8705 16.2384C27.8681 16.0391 27.8807 15.8398 27.8735 15.6405C27.8634 15.5387 27.8502 15.4369 27.8402 15.3351C27.8357 15.3187 27.8416 15.2897 27.8124 15.2889C27.8355 15.266 27.8304 15.2376 27.825 15.2107C27.6993 15.3158 27.5796 15.4254 27.4542 15.5308C27.2076 15.7488 26.9454 15.9552 26.6926 16.1686C26.9494 16.3875 27.1105 16.6755 27.152 16.9719C27.1939 17.2872 27.0947 17.6224 26.8332 17.8675C26.6025 18.0823 26.2716 18.2179 25.9278 18.2804C25.7666 18.3086 25.5943 18.3281 25.4342 18.2854C25.4542 18.4177 25.4793 18.5496 25.5127 18.6802C25.5702 18.9004 25.6451 19.1228 25.7936 19.3168C25.873 19.416 25.9818 19.5121 26.1315 19.5412C26.2916 19.572 26.4544 19.5085 26.5669 19.4214C26.6672 19.3502 26.7137 19.247 26.7559 19.1488C26.883 18.8597 26.9259 18.549 27.094 18.2709C27.212 18.0503 27.3619 17.8361 27.5782 17.6661C27.6904 17.5737 27.8194 17.4949 27.9545 17.4248C28.0476 17.3806 28.1603 17.3439 28.2699 17.3697C28.3742 17.394 28.4445 17.4668 28.4927 17.5401C28.6024 17.7053 28.631 17.8942 28.7198 18.0659C28.7849 18.2078 28.8711 18.3519 29.0243 18.4476C29.1791 18.5443 29.3831 18.5738 29.5761 18.5674C29.913 18.5559 30.2296 18.4362 30.4952 18.2774C30.4715 18.0045 30.4466 17.7317 30.4173 17.459C30.2699 16.1273 30.1304 14.795 29.987 13.4632C29.9821 13.4265 29.9405 13.4017 29.92 13.3706C29.4385 13.7777 28.9717 14.1954 28.5011 14.6103ZM26.3057 16.521C26.2049 16.6131 26.1098 16.7092 26.0149 16.8052C25.8346 16.9977 25.654 17.1925 25.5205 17.4083C25.4868 17.463 25.4561 17.5314 25.4949 17.5897C25.5406 17.6493 25.6384 17.6582 25.7187 17.6583C26.0731 17.6471 26.4037 17.5216 26.6916 17.3648C26.7878 17.3273 26.8782 17.244 26.842 17.1538C26.7943 17.0324 26.704 16.9253 26.6157 16.8203C26.524 16.7171 26.4274 16.6163 26.3245 16.5199C26.3198 16.5202 26.3105 16.5208 26.3057 16.521Z" fill="white"/>
<path d="M34.0257 10.7194C34.1309 10.5215 34.2284 10.3214 34.335 10.124C34.4984 10.5499 34.6579 10.9771 34.7912 11.4096C34.8112 11.484 34.8373 11.558 34.847 11.6339C34.8332 11.6939 34.81 11.7529 34.8082 11.8145C34.7499 11.7259 34.6914 11.6374 34.6324 11.5491C34.7067 12.6554 34.7964 13.7613 34.8967 14.8665C34.9277 15.2219 34.973 15.5768 34.9895 15.9329C35.0198 16.5926 34.9907 17.2668 34.7374 17.9009C34.6422 18.1303 34.521 18.3536 34.3672 18.5623C34.1603 18.8319 33.8532 19.0444 33.5154 19.2079C32.9138 19.4943 32.2253 19.6433 31.5378 19.7351C31.4989 19.7464 31.483 19.7106 31.4609 19.6944C32.0744 19.4606 32.6639 19.186 33.2144 18.8688C33.4897 18.7056 33.759 18.5339 33.9905 18.3319C34.2559 18.0954 34.4562 17.8106 34.5472 17.5016C34.6469 17.1909 34.6125 16.8678 34.5907 16.5514C34.5332 15.8225 34.4619 15.0943 34.4013 14.3654C34.3079 13.2423 34.2138 12.119 34.1202 10.9959C34.1004 10.9169 34.038 10.8493 34.0094 10.7724C34.0017 10.7536 34.0195 10.7366 34.0257 10.7194Z" fill="white"/>
<path d="M7.98786 10.716C8.1074 10.5327 8.22222 10.3475 8.33875 10.1631C8.52808 10.5543 8.678 10.9577 8.78192 11.3685C8.78875 11.4432 8.763 11.5177 8.75458 11.592C8.669 11.5005 8.61767 11.3902 8.53058 11.2988C8.57808 11.6074 8.59508 11.9185 8.62608 12.2284C8.66067 12.629 8.69325 13.0299 8.72567 13.4307C8.98525 13.3963 9.21858 13.2749 9.37525 13.1093C9.611 12.8613 9.71567 12.5493 9.74533 12.2439C9.74333 11.8515 9.71692 11.4524 9.56108 11.0768C9.53358 11 9.48292 10.9256 9.48392 10.8442C9.5025 10.6929 9.5665 10.5478 9.63417 10.4065C9.65133 10.3735 9.66258 10.3315 9.713 10.3216C9.79 10.5098 9.86958 10.6979 9.92075 10.8918C10.0002 11.1955 10.0386 11.5048 10.0827 11.8127C10.1122 11.9991 10.1209 12.1885 10.1805 12.3712C10.2578 12.6168 10.4146 12.8562 10.6726 13.0124C10.8666 13.1289 11.1145 13.2086 11.3613 13.1777C11.5353 13.1529 11.7115 13.0981 11.8333 12.993C11.8884 12.9464 11.9262 12.8781 11.9028 12.8143C11.6535 12.3066 11.45 11.7858 11.2442 11.2662C11.1739 11.0855 11.1048 10.9044 11.0359 10.7234C11.0163 10.6775 11.0419 10.6302 11.0514 10.5848C11.0947 10.4464 11.1508 10.3093 11.2282 10.1806C11.3126 10.2126 11.3673 10.276 11.4223 10.3333C11.5883 10.5224 11.7206 10.7285 11.8423 10.9373C11.8365 10.9639 11.8309 10.9907 11.8263 11.0176C11.7646 10.957 11.6854 10.9026 11.5862 10.8872C11.5704 10.9169 11.5711 10.9493 11.5848 10.9794C11.6952 11.2436 11.813 11.5059 11.9254 11.7696C12.0209 12.0047 12.1168 12.2439 12.1292 12.4924C12.1387 12.6948 12.0989 12.8976 12.0263 13.0913C12.0169 13.1081 12.0149 13.1411 11.9828 13.1369C12.0105 13.1529 11.985 13.1787 11.9783 13.1987C11.8921 13.3686 11.758 13.5335 11.5534 13.6268C11.3779 13.7103 11.1613 13.7232 10.9635 13.6924C10.7032 13.6512 10.4799 13.5181 10.3201 13.3541C10.0953 13.1231 9.95742 12.8454 9.87567 12.563C9.86342 12.5633 9.83892 12.5641 9.82658 12.5646C9.75017 12.8486 9.634 13.1283 9.4545 13.3826C9.29358 13.6099 9.07117 13.8247 8.76433 13.9332C8.818 14.6365 8.87408 15.3396 8.9125 16.0437C8.91808 16.3908 8.90042 16.7378 8.87867 17.0845C8.87825 17.1317 8.85342 17.1754 8.83483 17.2195C8.77467 17.37 8.71108 17.5196 8.64342 17.6683C8.63275 17.6931 8.61892 17.7174 8.59908 17.7388C8.59033 17.0759 8.51933 16.4148 8.46267 15.7538C8.41133 15.1717 8.36 14.5896 8.31003 14.0075C8.06445 14.0032 7.81151 13.9463 7.63026 13.8099C7.41904 13.6561 7.31123 13.4343 7.2597 13.2154C7.21413 13.0215 7.20448 12.8228 7.2236 12.6265C7.26567 12.3702 7.34858 12.1196 7.42763 11.8691C7.43849 11.8244 7.44639 11.7773 7.4336 11.7323C7.42869 11.7159 7.42395 11.6965 7.39994 11.6919C7.36313 11.6881 7.33578 11.7099 7.31089 11.7275C7.17311 11.8329 7.08302 11.9693 7.00431 12.1057C6.85515 12.3877 6.76733 12.6883 6.71947 12.991C6.67985 13.1906 6.622 13.3893 6.52735 13.5776C6.45215 13.7174 6.35838 13.8613 6.19536 13.949C6.05617 14.0248 5.87212 14.0155 5.7198 13.972C5.52698 13.9154 5.38973 13.7787 5.31681 13.6305C5.19008 13.3759 5.18184 13.0971 5.18956 12.8271C5.20762 12.5106 5.26441 12.1957 5.35188 11.8867C5.36835 11.884 5.38501 11.8813 5.40148 11.8788C5.33067 12.2333 5.273 12.5928 5.30648 12.9522C5.32278 13.1079 5.35784 13.2652 5.44198 13.4078C5.5135 13.5295 5.63901 13.639 5.80518 13.6788C5.94646 13.7132 6.11387 13.7104 6.23411 13.6352C6.36488 13.5524 6.42676 13.423 6.4746 13.3002C6.58714 12.9888 6.62938 12.6644 6.74595 12.3539C6.85901 12.0494 7.01274 11.7542 7.20292 11.4748C7.31319 11.33 7.43238 11.1884 7.57086 11.0594C7.61187 11.0256 7.65306 10.9775 7.71828 10.9769C7.75403 10.9951 7.74125 11.0349 7.74212 11.0633C7.72388 11.2034 7.72213 11.3467 7.66919 11.4822C7.57243 11.7603 7.50722 12.0444 7.43623 12.3271C7.38698 12.5472 7.37383 12.7823 7.48022 12.9934C7.55858 13.1544 7.7216 13.285 7.91827 13.3577C8.02519 13.3977 8.14072 13.4221 8.25763 13.4354C8.19312 12.6501 8.11986 11.8652 8.05307 11.08C8.03781 10.9578 8.04799 10.8317 7.98786 10.716Z" fill="white"/>
<path d="M22.1914 10.3511C22.241 10.2859 22.2884 10.2139 22.373 10.1729C22.25 10.3679 22.1245 10.5662 22.0691 10.7814C22.0475 10.8744 22.0402 10.9878 22.1367 11.0576C22.1928 11.0792 22.2575 11.0921 22.3187 11.0749C22.4305 11.0552 22.4828 10.9631 22.5264 10.8884C22.5385 10.9184 22.5466 10.9494 22.5336 10.9803C22.4938 11.1099 22.4409 11.2454 22.3211 11.3436C22.1863 11.4578 21.9145 11.3921 21.8631 11.2456C21.8181 11.1128 21.8593 10.9734 21.9087 10.8451C21.9806 10.6731 22.0801 10.5089 22.1914 10.3511Z" fill="white"/>
<path d="M12.201 10.758C12.3072 10.5683 12.4132 10.3784 12.5217 10.1895C12.7316 10.5714 12.9023 10.9667 13.0302 11.3707C13.0453 11.4524 13.0148 11.5345 13.0186 11.6166C12.9452 11.5137 12.8611 11.4159 12.7843 11.3147C12.8041 11.5 12.8401 11.6843 12.8618 11.8696C13.0087 12.964 13.1378 14.06 13.2481 15.1572C13.3746 15.0848 13.471 14.9809 13.5251 14.8653C13.5957 14.7353 13.6721 14.6059 13.7752 14.4896C13.814 14.4479 13.8651 14.3944 13.9402 14.4072C13.9826 14.4092 14.0027 14.4453 14.007 14.4745C14.0257 14.5776 13.9272 14.6665 13.9441 14.7687C13.9486 14.8526 14.0316 14.9246 14.1301 14.95C14.3005 14.9986 14.4856 14.9769 14.6602 14.9573C14.7391 14.9436 14.8376 14.9318 14.8761 14.867C14.8351 14.763 14.7895 14.6601 14.7377 14.5591C14.8116 14.4103 14.8958 14.2647 14.9728 14.1167C14.9926 14.0817 15.006 14.0432 15.0386 14.0138C15.0945 14.183 15.1085 14.3586 15.1311 14.5319C15.1545 14.8122 15.0976 15.1032 14.921 15.3498C14.8257 15.476 14.6836 15.5907 14.4981 15.6272C14.3366 15.6578 14.159 15.6438 14.0123 15.58C13.8427 15.5036 13.7263 15.3694 13.6658 15.2247C13.5741 15.3917 13.4532 15.5495 13.2996 15.6853C13.3173 15.9019 13.3373 16.1184 13.3511 16.3352C13.3611 16.5769 13.2828 16.8138 13.1922 17.0427C13.1482 17.141 13.105 17.2399 13.0506 17.335C12.5676 17.9597 11.929 18.5131 11.1627 18.9263C10.6612 19.1988 10.1065 19.4102 9.52398 19.549C9.21948 19.6189 8.90815 19.6759 8.5914 19.6942C8.26452 19.6978 7.9327 19.6644 7.62717 19.5695C7.3404 19.481 7.08991 19.3199 6.92917 19.1116C6.36437 19.1577 5.79627 19.1831 5.22833 19.1842C5.73492 19.0405 6.23642 18.8853 6.72951 18.7145C6.59787 18.2064 6.70672 17.6826 6.87132 17.1877C6.97212 16.8878 7.10217 16.5944 7.2482 16.3065C7.34426 16.0954 7.43961 15.879 7.60281 15.6939C7.5071 15.852 7.40736 16.0094 7.32847 16.1732L7.33287 16.1821C7.33496 16.1844 7.33935 16.1893 7.34162 16.1917C7.33637 16.1905 7.32567 16.1882 7.32042 16.1871C7.28693 16.2387 7.25837 16.2923 7.23926 16.3484C7.10603 16.6858 7.02118 17.0353 6.99297 17.3883C6.96511 17.7764 7.00033 18.1838 7.22891 18.535C7.83662 18.3102 8.42823 18.0575 8.99548 17.774C9.47648 17.5302 9.94115 17.2642 10.3635 16.9592C10.5636 16.8127 10.7581 16.6599 10.9226 16.4874C10.9711 16.4421 10.9475 16.3777 10.9317 16.3262C10.8951 16.2398 10.8536 16.1548 10.8112 16.0702C10.5238 16.1623 10.2176 16.2254 9.90573 16.2243C9.73573 16.2281 9.56082 16.2025 9.41423 16.1316C9.28857 16.0703 9.19532 15.9696 9.15748 15.8567C9.10507 15.7086 9.12782 15.5523 9.15923 15.4029C9.20898 15.1867 9.30957 14.9705 9.50082 14.8068C9.63515 14.6925 9.81282 14.6046 10.0098 14.5816C10.2326 14.5824 10.4425 14.6684 10.6015 14.7878C10.804 14.9397 10.9421 15.1366 11.0482 15.3387C11.2466 15.2473 11.4371 15.1391 11.5846 14.9986C11.7295 14.8795 11.8785 14.7579 12.0633 14.6778C12.1095 14.6569 12.1891 14.6337 12.2197 14.6827C12.2532 14.7554 12.2213 14.8352 12.1988 14.9075C12.1392 15.0129 12.2113 15.1327 12.3003 15.2133C12.4242 15.324 12.628 15.3347 12.8006 15.3098C12.6197 13.839 12.4358 12.3683 12.2547 10.8975C12.2511 10.8481 12.2241 10.8031 12.201 10.758ZM9.73748 15.2745C9.64882 15.3047 9.53782 15.3495 9.52465 15.434C9.54557 15.4982 9.6409 15.5181 9.71257 15.5318C9.94307 15.5671 10.1827 15.5665 10.4131 15.5307C10.4088 15.5242 10.4001 15.5113 10.3956 15.5047C10.2756 15.3971 10.1226 15.3045 9.94065 15.2773C9.87382 15.2694 9.80282 15.2543 9.73748 15.2745ZM11.2468 15.8753C11.2707 16.175 11.2176 16.4781 11.0982 16.7628C11.0521 16.8617 11.0137 16.9664 10.9268 17.0488C10.4992 17.5009 9.94857 17.8703 9.36815 18.1945C8.85107 18.4796 8.30502 18.7324 7.73428 18.9436C7.83176 18.9812 7.93412 19.0114 8.04052 19.0293C8.32554 19.0794 8.61982 19.0525 8.9054 19.0199C9.7994 18.9139 10.6411 18.6052 11.3661 18.1833C11.8467 17.9036 12.2846 17.5778 12.6667 17.2151C12.7946 17.0869 12.9517 16.9617 12.983 16.793C12.9525 16.5069 12.9121 16.2215 12.8785 15.9355C12.6797 15.9986 12.4336 16.0135 12.2532 15.908C12.0342 15.7773 11.9511 15.5541 11.9166 15.348C11.7277 15.5487 11.5056 15.7307 11.2468 15.8753Z" fill="white"/>
<path d="M20.8854 10.2145C20.9766 10.2519 21.0362 10.3203 21.0949 10.3844C21.2381 10.5502 21.3557 10.729 21.4649 10.91C21.4835 10.9366 21.49 10.9702 21.5233 10.9889C21.5126 10.9904 21.5021 10.9917 21.4921 10.9928C21.4909 11.0072 21.4888 11.0362 21.4877 11.0506C21.4218 10.9939 21.3447 10.9391 21.2467 10.9225C21.2294 10.9529 21.2295 10.9856 21.2443 11.0167C21.3715 11.3255 21.5154 11.6301 21.6387 11.9401C21.7172 12.1422 21.7861 12.3498 21.7887 12.5625C21.7941 12.76 21.7516 12.9572 21.6779 13.1456C21.604 13.3225 21.4906 13.498 21.3014 13.6148C21.1458 13.7148 20.938 13.7562 20.74 13.7415C20.4982 13.7273 20.2693 13.635 20.1016 13.498C20.012 13.4305 19.9392 13.3507 19.8711 13.2694L19.8972 13.2646C19.89 13.2653 19.8758 13.2667 19.8686 13.2674C19.7172 13.0654 19.6048 12.845 19.5399 12.6158C19.5457 12.5861 19.4742 12.5886 19.4814 12.6181C19.389 12.9525 19.2416 13.2823 18.9976 13.5672C18.8551 13.7308 18.6707 13.8769 18.4419 13.9633C18.1927 14.0564 17.8991 14.0625 17.6367 14.0028C17.373 13.9426 17.1641 13.7779 17.0508 13.5837C16.8868 13.3055 16.8617 12.9905 16.8798 12.688C16.915 12.4436 16.9921 12.2047 17.0675 11.9665C17.0929 11.8933 17.1155 11.8145 17.0827 11.7402C17.0722 11.7359 17.0514 11.7273 17.041 11.723C17.0058 11.7412 16.9695 11.7591 16.942 11.7846C16.7488 11.9532 16.6391 12.1688 16.5514 12.3825C16.4852 12.5546 16.4335 12.7303 16.3988 12.9083C16.3527 13.1895 16.282 13.4741 16.1185 13.729C16.0298 13.8646 15.8966 14.0053 15.6959 14.0364C15.5099 14.0561 15.3111 14.0099 15.1749 13.9062C15.008 13.7827 14.9349 13.6033 14.8909 13.4307C14.8208 13.121 14.8426 12.8036 14.8865 12.4926C14.916 12.3009 14.9581 12.1106 15.0105 11.9222C15.0277 11.9209 15.045 11.9199 15.0627 11.9191C14.9933 12.2369 14.9454 12.5595 14.9575 12.8825C14.9684 13.0665 14.9957 13.254 15.0902 13.4243C15.1544 13.541 15.2632 13.6496 15.4145 13.6998C15.5574 13.7458 15.7337 13.7541 15.8674 13.6855C16.0057 13.6137 16.0706 13.4854 16.122 13.3665C16.2231 13.1034 16.2678 12.8298 16.3472 12.5625C16.4305 12.2912 16.5502 12.0273 16.6971 11.7735C16.7812 11.6255 16.874 11.48 16.993 11.3474C17.0987 11.2294 17.1958 11.0999 17.3458 11.0132C17.357 11.0136 17.3791 11.0146 17.3903 11.015C17.4179 11.1039 17.3854 11.196 17.3805 11.286C17.3712 11.4347 17.3029 11.5743 17.2636 11.7184C17.2149 11.8832 17.1732 12.0493 17.1314 12.2154C17.0669 12.4531 17.021 12.7038 17.1022 12.9429C17.1635 13.1305 17.3271 13.2959 17.5479 13.3813C17.6915 13.4411 17.8526 13.4715 18.0142 13.4761C18.2414 13.4942 18.4789 13.4726 18.682 13.3861C18.9269 13.2851 19.1003 13.102 19.2126 12.9065C19.3225 12.711 19.3853 12.4994 19.4035 12.2862C19.406 11.8628 19.3688 11.4312 19.1858 11.0297C19.1625 10.9742 19.132 10.9166 19.1453 10.8571C19.1742 10.6939 19.2431 10.5368 19.3239 10.3854C19.329 10.3681 19.3553 10.3669 19.3711 10.358C19.4575 10.5623 19.5415 10.768 19.5939 10.9797C19.66 11.255 19.698 11.534 19.7371 11.8122C19.7681 12.0108 19.7772 12.2124 19.8402 12.4072C19.8924 12.5687 19.9737 12.7269 20.1015 12.8607C20.2568 13.0314 20.49 13.1582 20.7492 13.2066C20.9711 13.2474 21.2081 13.1949 21.3948 13.0969C21.493 13.0439 21.5948 12.9546 21.5622 12.8535C21.2514 12.2066 20.9959 11.5442 20.7419 10.8825C20.725 10.8279 20.693 10.7756 20.6877 10.7194C20.7207 10.5444 20.7981 10.3766 20.8854 10.2145Z" fill="white"/>
<path d="M17.6602 10.3271C17.8913 10.4521 18.0808 10.6324 18.1691 10.8443C18.2128 10.9556 18.2291 11.0741 18.212 11.1901C18.1993 11.2746 18.1823 11.3622 18.1226 11.4349C18.1142 11.4127 18.1198 11.3899 18.1251 11.3679C18.1648 11.2002 18.131 11.0206 18.0211 10.8729C17.9305 10.7499 17.7963 10.6467 17.6387 10.5786C17.6417 10.4946 17.652 10.4109 17.6602 10.3271Z" fill="white"/>
<path d="M5.5711 10.5578C5.61457 10.497 5.6626 10.4345 5.73797 10.3955C5.61773 10.6008 5.47784 10.8047 5.43314 11.0311C5.41912 11.1052 5.41859 11.1901 5.47854 11.2523C5.53464 11.3082 5.63665 11.3092 5.71606 11.2897C5.80493 11.2615 5.8463 11.1861 5.88784 11.1232C5.90643 11.1236 5.91029 11.141 5.91922 11.1514C5.87241 11.2969 5.82719 11.4547 5.68853 11.565C5.5597 11.6727 5.30553 11.6172 5.24225 11.4834C5.19632 11.3872 5.21157 11.2806 5.23857 11.1824C5.30484 10.9614 5.43034 10.7546 5.5711 10.5578Z" fill="white"/>
<path d="M25.8699 10.5018C25.9036 10.4554 25.9556 10.398 26.0328 10.406C26.1146 10.4207 26.1947 10.4554 26.245 10.5099C26.2706 10.5439 26.2918 10.5957 26.2464 10.6257C26.2226 10.644 26.2056 10.6753 26.1761 10.6845C26.135 10.642 26.103 10.566 26.0198 10.5683C25.9155 10.5985 25.8578 10.6823 25.8266 10.7617C25.7619 10.9257 25.7488 11.0984 25.7285 11.2682C25.7078 11.2852 25.6799 11.2945 25.655 11.3067C25.655 11.1344 25.6045 10.9502 25.4487 10.8229C25.3737 10.8157 25.2845 10.8085 25.2424 10.751C25.1912 10.6777 25.1544 10.587 25.1898 10.5044C25.2692 10.492 25.3336 10.5393 25.3875 10.5784C25.5302 10.6819 25.6224 10.8192 25.7057 10.9554C25.7409 10.8007 25.7763 10.6423 25.8699 10.5018Z" fill="white"/>
<path d="M15.0985 10.5922C15.1458 10.5014 15.2694 10.4251 15.3981 10.4426C15.4624 10.4535 15.5075 10.4983 15.5304 10.5448C15.5755 10.6405 15.5821 10.7448 15.5664 10.8455C15.6454 10.9203 15.7314 10.9962 15.7644 11.0933C15.8259 11.221 15.7709 11.3574 15.7188 11.4807C15.6519 11.6438 15.525 11.7919 15.5014 11.9653C15.4931 12.0081 15.5139 12.0549 15.5694 12.0697C15.6584 12.0489 15.6723 11.9651 15.6905 11.9041C15.7184 11.8988 15.762 11.8965 15.7716 11.9243C15.7869 12.0015 15.7442 12.0757 15.7097 12.146C15.6784 12.1994 15.6352 12.2625 15.555 12.2744C15.491 12.2837 15.4421 12.2393 15.4165 12.1987C15.3435 12.0816 15.3665 11.9428 15.4275 11.8259C15.5225 11.6396 15.648 11.4521 15.6365 11.2454C15.6369 11.1577 15.5903 11.0739 15.5158 11.0099C15.4044 11.2478 15.2244 11.4622 15.017 11.6542C14.9098 11.7596 14.7556 11.8239 14.6086 11.8881C14.4769 11.9421 14.3434 11.9952 14.2032 12.0342C14.4732 11.8805 14.732 11.7126 14.956 11.5174C15.1409 11.3534 15.3109 11.1683 15.3794 10.952L15.3749 10.9398C15.2749 10.8887 15.1549 10.8437 15.1028 10.7535C15.0807 10.7022 15.0834 10.6445 15.0985 10.5922ZM15.1986 10.6183C15.1729 10.6315 15.1905 10.6567 15.2117 10.6653C15.2745 10.6943 15.3393 10.7212 15.4046 10.7467C15.403 10.6946 15.4149 10.6298 15.3573 10.5926C15.3074 10.5596 15.2389 10.5882 15.1986 10.6183Z" fill="white"/>
<path d="M13.4115 10.735C13.4486 10.7429 13.4755 10.7669 13.5061 10.7839C13.6919 10.905 13.8468 11.0624 13.9205 11.2453C13.9896 11.4109 13.9854 11.5928 13.9239 11.7593C13.9154 11.7882 13.8924 11.8115 13.872 11.8357C13.8704 11.8327 13.8673 11.8263 13.8655 11.8233C13.9104 11.6693 13.9038 11.5037 13.8254 11.3572C13.7408 11.1967 13.582 11.0638 13.3907 10.9802C13.3955 10.8983 13.4036 10.8165 13.4115 10.735Z" fill="white"/>
<path d="M10.6185 10.8909L10.6324 10.9019C10.6019 10.9326 10.6174 10.9731 10.6224 11.0083C10.639 11.0842 10.6629 11.1593 10.6959 11.2318C10.7066 11.2643 10.7492 11.2798 10.7855 11.2907C10.8172 11.2959 10.8686 11.3083 10.8817 11.2748C10.86 11.1961 10.8079 11.1259 10.7755 11.0504C10.7907 11.0069 10.7979 10.9602 10.8241 10.9198C10.8416 10.9201 10.8595 10.9207 10.8774 10.9217C10.8949 11.0063 10.9504 11.0807 10.9904 11.1588C10.9881 11.2391 10.985 11.3224 10.9467 11.3978C10.9229 11.4489 10.847 11.4626 10.786 11.4618C10.6969 11.4518 10.6382 11.3923 10.5855 11.3403C10.5515 11.4161 10.4645 11.4753 10.3632 11.4857C10.278 11.4892 10.2059 11.4348 10.1834 11.3728C10.1537 11.2908 10.1571 11.2028 10.1811 11.1203C10.1999 11.0626 10.2365 11.0002 10.3119 10.9779C10.2524 11.0573 10.2377 11.1552 10.271 11.2438C10.284 11.2804 10.308 11.3263 10.3627 11.3316C10.4234 11.3324 10.4684 11.2958 10.5117 11.2673C10.5229 11.1767 10.5094 11.0852 10.5236 10.9946C10.5455 10.9556 10.5894 10.9268 10.6185 10.8909Z" fill="white"/>
<path d="M25.7868 11.4495C26.1238 11.3341 26.461 11.2176 26.8058 11.1178C26.7952 11.1798 26.7668 11.2505 26.6906 11.28C26.201 11.4454 25.7095 11.6079 25.2303 11.7915C25.1351 11.8331 25.0373 11.8759 24.9631 11.9399C25.0161 11.9861 25.0953 12.0035 25.1668 12.0243C25.1658 12.0691 25.1661 12.1139 25.1661 12.1588C25.0648 12.1394 24.9633 12.1101 24.8848 12.0542C24.8893 11.9906 24.8878 11.9265 24.899 11.8632C24.9103 11.8058 24.9845 11.7788 25.0381 11.7476C25.2757 11.6305 25.5328 11.5413 25.7868 11.4495Z" fill="white"/>
<path d="M18.0359 11.6274C18.0887 11.5758 18.1359 11.5163 18.2059 11.4785C18.1597 11.5341 18.1792 11.6028 18.1902 11.664C18.2162 11.7785 18.2548 11.8911 18.3003 12.0016C18.3147 12.0478 18.3748 12.0675 18.4244 12.0853C18.4693 12.0986 18.5233 12.1109 18.5689 12.0933C18.5976 12.0733 18.5841 12.0391 18.5739 12.0144C18.5301 11.9176 18.4853 11.8205 18.4236 11.7298C18.4378 11.6869 18.4474 11.6428 18.4711 11.6023C18.4758 11.6015 18.4854 11.6001 18.4903 11.5994C18.4844 11.5905 18.4791 11.5818 18.4739 11.5729C18.4807 11.5549 18.4874 11.5368 18.4944 11.5188C18.5252 11.5206 18.5561 11.5223 18.5874 11.5238C18.6017 11.6538 18.6919 11.7673 18.7569 11.8839C18.7547 11.9833 18.7456 12.0836 18.7184 12.1809C18.7029 12.2384 18.6694 12.299 18.6009 12.3278C18.5222 12.3525 18.4284 12.364 18.3514 12.3298C18.2623 12.2893 18.1909 12.2275 18.1349 12.1601C18.0902 12.2635 17.9824 12.3453 17.8514 12.379C17.7613 12.4058 17.6542 12.3773 17.5927 12.3208C17.5143 12.2564 17.4933 12.1633 17.4858 12.0774C17.4796 11.9669 17.4908 11.8531 17.5454 11.7503C17.5766 11.6908 17.6323 11.6381 17.7061 11.6091C17.6337 11.7229 17.5966 11.8553 17.6371 11.9808C17.6549 12.0468 17.6847 12.1308 17.7774 12.1514C17.8774 12.1615 17.9571 12.1013 18.0216 12.0493C18.0337 11.9088 18.0262 11.7676 18.0359 11.6274Z" fill="white"/>
<path d="M10.5178 11.8057C10.7508 11.9251 10.9362 12.1067 11.0249 12.3157C11.097 12.4847 11.0919 12.6706 11.0277 12.8403C11.0191 12.868 10.9928 12.8887 10.9693 12.909C11.0167 12.7486 11.0116 12.5747 10.9268 12.4227C10.8403 12.2656 10.6819 12.136 10.4941 12.0522C10.5043 11.9702 10.5094 11.8877 10.5178 11.8057Z" fill="white"/>
<path d="M25.9856 12.7725C26.0345 12.7253 26.0821 12.6772 26.1357 12.6332C26.0847 12.7275 26.1236 12.8299 26.1479 12.9255C26.1754 13.013 26.2019 13.1014 26.2436 13.1854C26.2956 13.2394 26.387 13.2668 26.4711 13.2648C26.5101 13.2647 26.5287 13.2284 26.5152 13.2025C26.4741 13.0972 26.4206 12.9948 26.3597 12.8955C26.3716 12.8228 26.4057 12.7528 26.4297 12.6818C26.4589 12.6838 26.4885 12.6858 26.5182 12.6882C26.5376 12.8173 26.6231 12.9317 26.6901 13.0477C26.6872 13.1409 26.679 13.2348 26.6561 13.3267C26.6391 13.3905 26.6091 13.4647 26.5274 13.4934C26.4577 13.5148 26.3762 13.5268 26.306 13.5009C26.2027 13.4648 26.1295 13.3935 26.066 13.3223C26.0259 13.423 25.9239 13.5029 25.7986 13.5383C25.6957 13.5758 25.5706 13.5364 25.5055 13.4679C25.4306 13.3872 25.4175 13.2829 25.4161 13.1858C25.4204 13.0924 25.4296 12.9963 25.4806 12.9105C25.5135 12.853 25.5645 12.7964 25.6429 12.7749C25.5384 12.9115 25.5267 13.0868 25.604 13.2334C25.6261 13.275 25.672 13.3153 25.733 13.3167C25.8256 13.3129 25.8976 13.26 25.9591 13.21C25.9576 13.0908 25.9644 12.972 25.9645 12.8528C25.969 12.8259 25.9586 12.7937 25.9856 12.7725Z" fill="white"/>
<path d="M32.8451 12.6627C33.1298 12.8143 33.3645 13.0307 33.4916 13.2841C33.6167 13.5297 33.6157 13.8085 33.5149 14.0593C33.5012 14.0883 33.4719 14.1101 33.4474 14.1335C33.4912 13.9631 33.5063 13.7843 33.4453 13.6155C33.3591 13.3477 33.1124 13.1255 32.8125 12.9908C32.8274 12.8817 32.8307 12.7718 32.8451 12.6627Z" fill="white"/>
<path d="M14.0352 13.2754C14.2305 13.1801 14.4219 13.0794 14.6196 12.9873C14.6002 13.0856 14.5597 13.1995 14.4391 13.2485C14.0071 13.4576 13.58 13.673 13.1465 13.8799C13.1949 13.8016 13.2425 13.7224 13.2957 13.6461C13.5402 13.5201 13.7891 13.3991 14.0352 13.2754Z" fill="white"/>
<path d="M22.3535 13.5994C22.4126 13.5724 22.4991 13.5742 22.5391 13.6237C22.5941 13.6894 22.6088 13.7754 22.5791 13.8509C22.5227 14.0005 22.3986 14.1277 22.2631 14.2384C22.0982 14.3657 21.9011 14.483 21.668 14.5117C21.7071 14.4735 21.7641 14.4522 21.8145 14.4247C21.9588 14.3477 22.098 14.2629 22.2192 14.1637C22.2828 14.1055 22.3517 14.0425 22.3631 13.9627C22.3676 13.8959 22.2908 13.8387 22.2127 13.8277C22.0987 13.8436 22.0277 13.9216 21.9441 13.9764C21.9241 13.928 21.9775 13.894 22.0091 13.8585C22.1095 13.762 22.2106 13.6584 22.3535 13.5994Z" fill="white"/>
<path d="M25.5744 14.7786C26.2131 14.4658 26.8482 14.1486 27.4876 13.8369C27.4694 13.9341 27.4342 14.0407 27.3332 14.1047C26.7142 14.4103 26.0916 14.7116 25.4727 15.0177C25.4991 14.9362 25.5407 14.8584 25.5744 14.7786Z" fill="white"/>
<path d="M17.0223 14.0397C17.1154 14.1011 17.172 14.1894 17.2349 14.27C17.396 14.4943 17.5333 14.7287 17.6662 14.964C17.9577 15.4693 18.1494 16.0087 18.2549 16.5572C18.2847 16.7272 18.3153 16.8982 18.3091 17.0705C18.3268 17.4124 18.3782 17.7619 18.5585 18.0766C18.5933 18.1391 18.6413 18.1963 18.6862 18.2545C18.684 18.2624 18.68 18.2781 18.6779 18.286C18.6872 18.2796 18.6967 18.2732 18.706 18.2669C18.8232 18.3918 18.9536 18.5094 19.0937 18.6187C19.1293 18.6489 19.2013 18.6749 19.2364 18.6283C19.243 18.6293 19.2566 18.6313 19.2632 18.6324C19.2586 18.6291 19.2496 18.6226 19.2451 18.6193C19.2742 18.5488 19.2441 18.4735 19.2721 18.4031C19.3121 18.2874 19.4036 18.1889 19.5009 18.0992C19.6097 18.0049 19.733 17.9183 19.8785 17.8613C20.1698 17.7444 20.4718 17.645 20.7768 17.5529C21.0064 17.4855 21.2399 17.4257 21.4787 17.3823C20.4539 17.388 19.4292 17.3946 18.4045 17.4039C18.4556 17.207 18.5077 17.0102 18.5605 16.8135C18.6691 16.7006 18.8059 16.6078 18.9408 16.5156C19.5284 16.132 20.2068 15.8481 20.8937 15.5938C20.8133 15.4941 20.7014 15.4012 20.6837 15.2787C20.6422 15.1067 20.7325 14.9367 20.8461 14.7936C20.9134 14.7123 20.9763 14.6235 21.0799 14.5676C21.1838 14.5106 21.3244 14.507 21.4382 14.5474C21.5108 14.5735 21.5849 14.5969 21.6548 14.6277C21.6562 14.6338 21.6589 14.6461 21.6603 14.6522C21.6641 14.6486 21.6717 14.6413 21.6756 14.6377C21.9789 14.7718 22.2508 14.9463 22.5025 15.1349C22.5316 15.1582 22.569 15.1783 22.5872 15.2087C22.5188 15.3838 22.4466 15.5583 22.3804 15.7342C22.0775 15.7877 21.773 15.8389 21.4778 15.9159C21.5078 16.0639 21.5612 16.2253 21.4811 16.3687C21.4529 16.3656 21.4149 16.3618 21.4101 16.3346C21.3987 16.2102 21.323 16.097 21.2452 15.991C20.8685 16.1084 20.4927 16.2297 20.1376 16.3841C19.8513 16.5099 19.561 16.6464 19.3489 16.8476C20.9244 16.848 22.5001 16.848 24.0758 16.8476C23.9748 17.0232 23.8668 17.1964 23.7639 17.3713C22.7324 17.5702 21.7027 17.7828 20.702 18.0655C20.282 18.1872 19.8623 18.3212 19.4899 18.5198C19.4513 18.5431 19.429 18.5861 19.4571 18.6211C19.5149 18.6914 19.6205 18.7204 19.709 18.7604C19.9015 18.8448 20.1148 18.8907 20.3244 18.9399C20.4746 18.975 20.6249 19.01 20.7749 19.0455C20.7625 19.2559 20.7604 19.4668 20.7442 19.6769C20.6213 19.6769 20.496 19.6597 20.3724 19.6511C20.1304 19.6284 19.8846 19.6131 19.6511 19.5543C19.3332 19.4747 19.0467 19.3235 18.8224 19.1291C18.5761 18.9194 18.398 18.6649 18.2704 18.3982C18.0961 18.0286 18.0085 17.6359 17.9748 17.2433C17.9594 17.2416 17.9443 17.2403 17.9294 17.239C17.8858 17.4121 17.8364 17.5852 17.7633 17.7522C17.7494 17.7918 17.7126 17.8221 17.6802 17.8529C17.4457 18.0684 17.1955 18.2732 16.934 18.4681C16.6663 18.6655 16.3873 18.8544 16.0858 19.0188C15.7687 19.191 15.4256 19.3457 15.0463 19.4108C14.8424 19.4442 14.6107 19.4506 14.4321 19.353C14.2326 19.2451 14.1353 19.0575 14.0827 18.8778C13.901 18.9869 13.7178 19.0946 13.5306 19.1979C13.3616 19.2876 13.1933 19.3825 12.9998 19.4366C12.516 19.5788 12.0126 19.672 11.5118 19.7681C11.1526 19.8324 10.7933 19.8969 10.4316 19.952C10.7666 19.8015 11.1069 19.6578 11.4404 19.5052C12.3454 19.0955 13.237 18.665 14.088 18.1879C14.204 17.7481 14.3914 17.3057 14.7544 16.9527C14.759 16.9518 14.7683 16.9497 14.7728 16.9487C14.7439 16.9974 14.7301 17.0508 14.7003 17.0992C14.4815 17.4024 14.326 17.7375 14.271 18.0846C14.6584 17.8617 15.0365 17.628 15.3923 17.3739C15.6121 17.218 15.8186 17.0505 16.0072 16.8708C16.0591 16.8199 16.1296 16.7762 16.1492 16.7093C16.1765 16.6333 16.1355 16.5577 16.0922 16.4913C16.0966 16.4826 16.101 16.474 16.1056 16.4655C16.0872 16.4615 16.0752 16.4529 16.0696 16.4399C15.8412 15.9745 15.6102 15.5099 15.3822 15.0445C15.4531 14.8307 15.5189 14.6159 15.5906 14.4023C15.6861 14.4521 15.7483 14.5303 15.8163 14.6011C15.9552 14.7624 16.0858 14.9283 16.203 15.1001C16.2686 15.1945 16.281 15.3042 16.3051 15.4086C16.2109 15.3416 16.1454 15.2507 16.0409 15.1934C16.0454 15.2087 16.0518 15.2235 16.06 15.2381C16.2253 15.4962 16.3383 15.7743 16.4116 16.0575C16.4568 16.2257 16.4765 16.3983 16.4639 16.5702C16.4544 16.7566 16.4223 16.9476 16.3142 17.1159C16.2181 17.2652 16.0889 17.3991 15.9539 17.5275C15.4964 17.9523 14.9602 18.3185 14.4156 18.671C14.4163 18.6915 14.4458 18.6971 14.4633 18.7083C14.6582 18.8046 14.9021 18.7949 15.1198 18.7649C15.2838 18.7348 15.4528 18.7119 15.603 18.6484C15.9973 18.4852 16.341 18.2576 16.6728 18.0257C17.1079 17.7124 17.5177 17.3774 17.9086 17.0299C17.778 16.6632 17.6423 16.2977 17.5042 15.9328C17.4292 15.7423 17.3594 15.55 17.2697 15.3635C17.1209 15.1174 16.9778 14.8685 16.8481 14.6159C16.9006 14.423 16.9664 14.2322 17.0223 14.0397ZM20.9875 15.032C20.9398 15.047 20.8999 15.0886 20.9198 15.1303C20.9272 15.1619 20.9709 15.1729 20.9938 15.1963C21.0893 15.2841 21.1798 15.3755 21.2629 15.4711C21.4703 15.4115 21.6808 15.3597 21.8901 15.3049C21.7343 15.1872 21.5612 15.0751 21.3533 15.0219C21.235 14.9901 21.1027 14.994 20.9875 15.032Z" fill="white"/>
<path d="M6.40477 14.1458C6.54746 14.1215 6.67735 14.1921 6.77884 14.263C6.91468 14.368 7.02792 14.4931 7.09961 14.6327C7.12135 14.6748 7.13098 14.7208 7.12292 14.7662C7.11257 14.8265 7.10662 14.8925 7.05823 14.9426C7.00144 14.984 6.91187 14.975 6.85157 14.9431C6.79162 14.9117 6.72904 14.8836 6.66384 14.8597C6.56602 15.0646 6.36619 15.2266 6.14832 15.3558C5.97724 15.4582 5.79073 15.5442 5.59791 15.6182C5.45979 15.6596 5.3185 15.6952 5.17511 15.7236C5.11797 15.7358 5.05855 15.7347 5 15.7333C5.03436 15.727 5.07099 15.725 5.10236 15.7108C5.41613 15.5707 5.72218 15.4186 6.00738 15.2441C6.20002 15.1213 6.39126 14.9913 6.52798 14.8265C6.46155 14.8146 6.39477 14.8032 6.32693 14.7982C6.27346 14.6748 6.27188 14.5248 6.38459 14.4213C6.33025 14.3837 6.32237 14.3218 6.31255 14.269C6.30222 14.2176 6.33535 14.1567 6.40477 14.1458ZM6.67121 14.4527C6.69645 14.5447 6.6989 14.6392 6.70364 14.7328C6.79864 14.7412 6.89435 14.777 6.99005 14.7583C7.0344 14.7387 7.0032 14.6936 6.98006 14.6706C6.8926 14.5856 6.78181 14.5177 6.67121 14.4527ZM6.4379 14.4923C6.40669 14.529 6.37041 14.5711 6.37532 14.6172C6.43054 14.6722 6.52379 14.6951 6.60811 14.7072C6.61634 14.6808 6.62616 14.6551 6.63264 14.6286C6.65578 14.5747 6.60319 14.5265 6.56112 14.489C6.52975 14.4588 6.46507 14.458 6.4379 14.4923Z" fill="white"/>
<path d="M18.9453 14.4361C18.9942 14.3801 19.0494 14.3264 19.1113 14.2787C19.0657 14.3604 19.0929 14.4498 19.1141 14.5334C19.1381 14.6249 19.1705 14.7149 19.2068 14.8039C19.2322 14.8709 19.3295 14.8946 19.4073 14.9078C19.454 14.9196 19.5111 14.8921 19.4931 14.8499C19.4501 14.7412 19.3952 14.6357 19.3325 14.5333C19.3547 14.4647 19.38 14.3967 19.4014 14.3279C19.4308 14.3279 19.4606 14.3282 19.4906 14.3284C19.5164 14.4556 19.593 14.5709 19.6634 14.6853C19.6636 14.8089 19.6543 14.9377 19.5989 15.0549C19.5619 15.1379 19.4382 15.1638 19.3383 15.1572C19.2056 15.1369 19.1176 15.0463 19.0397 14.9667C19.001 15.0712 18.8915 15.1522 18.7617 15.1849C18.652 15.2168 18.5255 15.1704 18.4666 15.0939C18.402 15.0089 18.3898 14.9064 18.3928 14.8094C18.3986 14.6706 18.4326 14.5088 18.59 14.4254C18.601 14.4254 18.6231 14.4256 18.6341 14.4256C18.6271 14.4279 18.6128 14.4329 18.6058 14.4354C18.51 14.5739 18.5041 14.7479 18.5891 14.8907C18.6138 14.9358 18.6764 14.9683 18.7397 14.9577C18.8186 14.9426 18.881 14.8982 18.9348 14.8524C18.9367 14.7136 18.936 14.5746 18.9453 14.4361Z" fill="white"/>
<path d="M5.6389 16.1042C6.2745 15.7884 6.91274 15.4757 7.54955 15.1615C7.53133 15.2712 7.48383 15.3981 7.35025 15.4531C6.76075 15.7422 6.16987 16.0297 5.58124 16.3198C5.56599 16.3262 5.55004 16.3315 5.53339 16.3355C5.5709 16.2591 5.59948 16.1798 5.6389 16.1042Z" fill="white"/>
<path d="M23.318 15.4775C23.3711 15.4232 23.461 15.3967 23.5459 15.3945C23.6048 15.3942 23.6333 15.4443 23.6468 15.4824C23.6724 15.5724 23.677 15.6704 23.6216 15.7543C23.6503 15.7708 23.6793 15.7874 23.7087 15.8039C23.701 15.8614 23.6956 15.9194 23.6942 15.9774C23.6356 15.9525 23.5906 15.913 23.5404 15.8798C23.3844 16.0927 23.1564 16.2773 22.8722 16.3815C22.722 16.4415 22.55 16.4677 22.3828 16.4512C22.6996 16.3615 23.0072 16.2323 23.237 16.0339C23.316 15.9659 23.3841 15.8909 23.4416 15.8104C23.397 15.7728 23.3437 15.7407 23.309 15.6967C23.2814 15.6264 23.261 15.5423 23.318 15.4775ZM23.4049 15.5469C23.4279 15.5984 23.4719 15.6408 23.5176 15.6808C23.5369 15.6362 23.5622 15.5878 23.5339 15.542C23.4907 15.5354 23.4472 15.5392 23.4049 15.5469Z" fill="white"/>
<path d="M29.2501 15.6062C29.357 15.577 29.4696 15.6153 29.557 15.6642C29.703 15.7495 29.817 15.8657 29.905 15.9904C29.952 16.0625 30.0056 16.1418 29.9867 16.2259C29.9754 16.2825 29.9698 16.3432 29.9271 16.3915C29.8797 16.4378 29.7909 16.433 29.7313 16.4055C29.6632 16.375 29.5984 16.3402 29.5272 16.3144C29.431 16.5213 29.2282 16.6843 29.0084 16.8135C28.8595 16.9037 28.6964 16.9777 28.5311 17.0469C28.429 17.0905 28.3161 17.1138 28.2068 17.142C28.0976 17.1665 27.9864 17.1989 27.8711 17.1899C27.9438 17.1865 28.0013 17.1493 28.0627 17.1227C28.3824 16.9755 28.6956 16.8173 28.9801 16.6295C29.1312 16.526 29.2857 16.4184 29.3875 16.2805C29.3218 16.2693 29.2559 16.2595 29.1894 16.2525C29.136 16.1295 29.1354 15.979 29.2508 15.8772C29.1933 15.8423 29.1866 15.7789 29.177 15.7262C29.1688 15.6803 29.1882 15.622 29.2501 15.6062ZM29.5369 15.9109C29.5586 16.002 29.5651 16.0949 29.5669 16.1875C29.6569 16.1979 29.7465 16.226 29.8384 16.218C29.8852 16.2125 29.8834 16.1639 29.8575 16.1407C29.7721 16.0477 29.6536 15.9775 29.5369 15.9109ZM29.2317 16.0595C29.2778 16.127 29.3823 16.1443 29.4676 16.166C29.4852 16.1224 29.5078 16.0768 29.4992 16.0305C29.4683 15.9829 29.4264 15.9205 29.349 15.9208C29.282 15.9479 29.2555 16.0073 29.2317 16.0595Z" fill="white"/>
<path d="M14.5527 16.0319C14.5884 15.9782 14.6585 15.9143 14.7446 15.9412C14.848 15.9659 14.9711 16.0308 14.9546 16.1282C14.9269 16.1613 14.8912 16.1897 14.86 16.2207C14.8265 16.1706 14.789 16.1063 14.7104 16.0957C14.6082 16.1222 14.5471 16.2032 14.5147 16.2806C14.447 16.4492 14.4319 16.6276 14.413 16.8029C14.3882 16.8133 14.3635 16.8237 14.3382 16.8331C14.339 16.6717 14.2946 16.5002 14.1577 16.3752C14.1267 16.3337 14.0577 16.3544 14.0112 16.3344C13.9242 16.3097 13.8927 16.2347 13.8717 16.1706C13.8612 16.1272 13.8424 16.0749 13.879 16.0362C13.956 16.0188 14.0162 16.0722 14.0711 16.1059C14.2124 16.2122 14.3101 16.3488 14.39 16.4882C14.4236 16.3327 14.4592 16.1732 14.5527 16.0319Z" fill="white"/>
<path d="M5.61985 16.91C5.67786 16.8281 5.73239 16.7389 5.83387 16.6849C5.71066 16.8817 5.58251 17.0811 5.5287 17.2984C5.51081 17.3815 5.50187 17.4775 5.56971 17.5489C5.62247 17.5937 5.70715 17.6019 5.77936 17.588C5.88892 17.5689 5.93994 17.4782 5.98516 17.4062C6.01986 17.4599 5.98392 17.5179 5.96797 17.5714C5.92257 17.6847 5.86841 17.8074 5.74309 17.8811C5.64685 17.9394 5.5089 17.916 5.41634 17.8647C5.29434 17.7894 5.29154 17.6524 5.31293 17.5416C5.36113 17.3174 5.48575 17.1091 5.61985 16.91Z" fill="white"/>
<path d="M23.7931 18.2779C23.7992 18.2729 23.8072 18.271 23.8172 18.2722C23.7808 18.3053 23.7608 18.3469 23.7327 18.3843C23.6531 18.5036 23.5608 18.6302 23.5821 18.7706C23.5842 18.8364 23.6311 18.9216 23.7283 18.9209C23.7758 18.9023 23.7881 18.8543 23.8121 18.8198C23.8091 18.9226 23.7899 19.0474 23.6679 19.1062C23.5667 19.0933 23.4906 19.0222 23.4866 18.9418C23.4658 18.6989 23.5943 18.4594 23.7931 18.2779Z" fill="white"/>
<path d="M17.6538 18.314C17.7476 18.2776 17.877 18.2828 17.9509 18.3461C18.0128 18.4041 18.0195 18.4838 18.0149 18.5563C17.9653 18.6086 17.9082 18.6567 17.8666 18.7137C17.7797 18.7266 17.6884 18.7152 17.6033 18.7356C17.5606 18.7552 17.5046 18.7671 17.4841 18.8068C17.4573 18.8581 17.4698 18.9148 17.4812 18.9678C17.5253 19.1528 17.607 19.3346 17.6028 19.5252C17.5981 19.5921 17.5925 19.6615 17.5525 19.722C17.5432 19.616 17.4961 19.5158 17.4619 19.4138C17.3974 19.2281 17.3462 19.0376 17.3386 18.8446C17.3302 18.7701 17.3842 18.7062 17.4387 18.6502C17.5192 18.5611 17.6634 18.5351 17.7916 18.5158C17.7583 18.4916 17.7206 18.4636 17.6713 18.469C17.6024 18.4768 17.5558 18.5225 17.518 18.5646C17.5111 18.4717 17.5432 18.3621 17.6538 18.314Z" fill="white"/>
<path d="M21.8867 18.4774C21.981 18.4142 22.1119 18.4081 22.2299 18.4082C22.3484 18.4147 22.4737 18.419 22.5782 18.469C22.6276 18.5145 22.5807 18.5684 22.53 18.5969C22.3246 18.7142 22.0983 18.816 21.9316 18.9701C21.8864 19.01 21.9098 19.0719 21.967 19.0951C22.0534 19.1295 22.1535 19.1311 22.2485 19.1291C22.4741 19.1195 22.6908 19.052 22.8795 18.9556C22.9321 18.9291 22.9793 18.8961 23.0336 18.8716C22.9172 18.9832 22.7865 19.0857 22.6422 19.1749C22.5205 19.247 22.3835 19.3097 22.2313 19.3286C22.1116 19.3366 21.9828 19.332 21.8793 19.2785C21.7642 19.2245 21.7102 19.1037 21.7528 19.004C21.7785 18.948 21.8262 18.9006 21.8763 18.857C22.0057 18.7485 22.1638 18.6655 22.3216 18.5855C22.2147 18.5815 22.1063 18.577 22.0001 18.5871C21.9307 18.5927 21.8841 18.634 21.8348 18.6674C21.8199 18.6022 21.8196 18.5251 21.8867 18.4774Z" fill="white"/>
<path d="M27.6932 18.5951C27.8398 18.6738 27.9692 18.7738 28.0659 18.8916C28.0742 18.8918 28.0903 18.8924 28.0986 18.8928C28.0937 18.8958 28.0838 18.9018 28.0789 18.9048C28.2577 19.1227 28.3038 19.4052 28.1928 19.6503C28.1832 19.6703 28.1628 19.6853 28.1456 19.7014C28.1798 19.5658 28.1901 19.4221 28.1363 19.2888C28.0624 19.0952 27.8793 18.9341 27.6562 18.8388L27.6724 18.8374C27.6762 18.7563 27.6872 18.6758 27.6932 18.5951Z" fill="white"/>
<path d="M29.8821 19.5318C30.5858 19.2623 31.2869 18.9889 31.9907 18.7201C31.9535 18.8196 31.9049 18.9333 31.7799 18.9834C31.131 19.2311 30.4835 19.4807 29.8349 19.7281C29.7923 19.7452 29.7499 19.7638 29.7032 19.7728C29.7459 19.7047 29.7863 19.6358 29.8274 19.5672C29.8363 19.5481 29.8609 19.5404 29.8821 19.5318Z" fill="white"/>
</g>
</g>
</g>
<defs>
<clipPath id="clip0_16699_275946">
<rect width="40" height="40" fill="white"/>
</clipPath>
</defs>
</svg>
