<svg width="40" height="40" viewBox="0 0 40 40" fill="none" xmlns="http://www.w3.org/2000/svg">
<g clip-path="url(#clip0_16699_275990)">
<mask id="mask0_16699_275990" style="mask-type:luminance" maskUnits="userSpaceOnUse" x="0" y="0" width="40" height="40">
<path d="M40 0H0V40H40V0Z" fill="white"/>
</mask>
<g mask="url(#mask0_16699_275990)">
<mask id="mask1_16699_275990" style="mask-type:luminance" maskUnits="userSpaceOnUse" x="0" y="0" width="40" height="40">
<path d="M40 20C40 8.95433 31.0457 0 20 0C8.95433 0 0 8.95433 0 20C0 31.0457 8.95433 40 20 40C31.0457 40 40 31.0457 40 20Z" fill="white"/>
</mask>
<g mask="url(#mask1_16699_275990)">
<path d="M40 20C40 8.95433 31.0457 0 20 0C8.95433 0 0 8.95433 0 20C0 31.0457 8.95433 40 20 40C31.0457 40 40 31.0457 40 20Z" fill="#0051BA"/>
<path d="M40 7L-2 13.5L5.96046e-08 33.6667L40 52.5V7Z" fill="#215B33"/>
<path d="M0 33.6667V7H40" fill="#0051BA"/>
<mask id="mask2_16699_275990" style="mask-type:luminance" maskUnits="userSpaceOnUse" x="0" y="7" width="40" height="27">
<path d="M40 7H0V33.6667H40V7Z" fill="white"/>
</mask>
<g mask="url(#mask2_16699_275990)">
<path d="M40 7L0 33.6667" stroke="#FCD116" stroke-width="1.03923"/>
</g>
<path d="M13.2264 10.4248L12.6008 12.3501L13.5634 12.6629L13.2264 10.4248Z" fill="white"/>
<path d="M13.2262 10.4248L13.8518 12.3501L12.8892 12.6629L13.2262 10.4248Z" fill="white"/>
<path d="M15.1484 11.8226H13.124V12.8347L15.1484 11.8226Z" fill="white"/>
<path d="M15.1484 11.8226L13.5106 13.0125L12.9156 12.1936L15.1484 11.8226Z" fill="white"/>
<path d="M11.2988 11.8239L12.9367 13.0138L13.5317 12.1949L11.2988 11.8239Z" fill="white"/>
<path d="M11.2988 11.8239H13.3232V12.8361L11.2988 11.8239Z" fill="white"/>
<path d="M14.4105 14.0892L13.7848 12.1638L12.8223 12.4765L14.4105 14.0892Z" fill="white"/>
<path d="M14.4104 14.0892L12.7726 12.8992L13.3676 12.0804L14.4104 14.0892Z" fill="white"/>
<path d="M12.0314 14.0854L13.6693 12.8955L13.0743 12.0765L12.0314 14.0854Z" fill="white"/>
<path d="M12.0314 14.0854L12.657 12.1602L13.6198 12.4728L12.0314 14.0854Z" fill="white"/>
<path d="M17.2205 7L16.5949 8.92533L17.5575 9.23808L17.2205 7Z" fill="white"/>
<path d="M17.2206 7L17.8461 8.92533L16.8835 9.23808L17.2206 7Z" fill="white"/>
<path d="M19.1387 8.39777H17.1143V9.41002L19.1387 8.39777Z" fill="white"/>
<path d="M19.1388 8.39777L17.5009 9.58768L16.9059 8.76885L19.1388 8.39777Z" fill="white"/>
<path d="M15.2871 8.39844L16.9249 9.58835L17.5199 8.76944L15.2871 8.39844Z" fill="white"/>
<path d="M15.2871 8.39844H17.3115V9.41069L15.2871 8.39844Z" fill="white"/>
<path d="M18.4044 10.6646L17.7788 8.73926L16.8162 9.05201L18.4044 10.6646Z" fill="white"/>
<path d="M18.4044 10.6647L16.7666 9.4748L17.3616 8.65588L18.4044 10.6647Z" fill="white"/>
<path d="M16.0256 10.6595L17.6632 9.46959L17.0683 8.65076L16.0256 10.6595Z" fill="white"/>
<path d="M16.0256 10.6594L16.6511 8.73407L17.6137 9.04682L16.0256 10.6594Z" fill="white"/>
<path d="M17.2205 13.8502L16.5949 15.7756L17.5575 16.0883L17.2205 13.8502Z" fill="white"/>
<path d="M17.2206 13.8502L17.8461 15.7756L16.8835 16.0883L17.2206 13.8502Z" fill="white"/>
<path d="M19.1366 15.248H17.1123V16.2602L19.1366 15.248Z" fill="white"/>
<path d="M19.1367 15.248L17.4988 16.4379L16.904 15.619L19.1367 15.248Z" fill="white"/>
<path d="M15.2871 15.2487L16.9249 16.4386L17.5199 15.6197L15.2871 15.2487Z" fill="white"/>
<path d="M15.2871 15.2487H17.3115V16.2609L15.2871 15.2487Z" fill="white"/>
<path d="M18.4044 17.5142L17.7788 15.5889L16.8162 15.9017L18.4044 17.5142Z" fill="white"/>
<path d="M18.4044 17.5143L16.7666 16.3244L17.3616 15.5055L18.4044 17.5143Z" fill="white"/>
<path d="M16.0256 17.5094L17.6632 16.3196L17.0683 15.5007L16.0256 17.5094Z" fill="white"/>
<path d="M16.0256 17.5096L16.6511 15.5844L17.6137 15.8971L16.0256 17.5096Z" fill="white"/>
<path d="M9.2244 13.8502L8.59882 15.7756L9.5614 16.0883L9.2244 13.8502Z" fill="white"/>
<path d="M9.22431 13.8502L9.84981 15.7756L8.88715 16.0883L9.22431 13.8502Z" fill="white"/>
<path d="M11.1504 15.2484H9.12598V16.2606L11.1504 15.2484Z" fill="white"/>
<path d="M11.1504 15.2484L9.51258 16.4383L8.91766 15.6194L11.1504 15.2484Z" fill="white"/>
<path d="M7.29688 15.2493L8.93467 16.4392L9.52958 15.6203L7.29688 15.2493Z" fill="white"/>
<path d="M7.29688 15.2493H9.32125V16.2616L7.29688 15.2493Z" fill="white"/>
<path d="M10.4084 17.5142L9.78286 15.5889L8.82019 15.9017L10.4084 17.5142Z" fill="white"/>
<path d="M10.4084 17.5143L8.77069 16.3244L9.36561 15.5055L10.4084 17.5143Z" fill="white"/>
<path d="M8.03534 17.5101L9.67311 16.3202L9.07819 15.5013L8.03534 17.5101Z" fill="white"/>
<path d="M8.03534 17.5103L8.66094 15.585L9.62361 15.8977L8.03534 17.5103Z" fill="white"/>
<path d="M9.2244 7L8.59882 8.92533L9.5614 9.23808L9.2244 7Z" fill="white"/>
<path d="M9.22431 7L9.84981 8.92533L8.88715 9.23808L9.22431 7Z" fill="white"/>
<path d="M11.1504 8.39777H9.12598V9.41002L11.1504 8.39777Z" fill="white"/>
<path d="M11.1504 8.39777L9.51258 9.58768L8.91766 8.76885L11.1504 8.39777Z" fill="white"/>
<path d="M7.29688 8.39978L8.93467 9.5897L9.52958 8.77078L7.29688 8.39978Z" fill="white"/>
<path d="M7.29688 8.39978H9.32125V9.41195L7.29688 8.39978Z" fill="white"/>
<path d="M10.4084 10.6641L9.78286 8.73889L8.82019 9.05173L10.4084 10.6641Z" fill="white"/>
<path d="M10.4084 10.6643L8.77069 9.4745L9.36561 8.65558L10.4084 10.6643Z" fill="white"/>
<path d="M8.03534 10.6598L9.67311 9.46992L9.07819 8.651L8.03534 10.6598Z" fill="white"/>
<path d="M8.03534 10.66L8.66094 8.73468L9.62361 9.04751L8.03534 10.66Z" fill="white"/>
</g>
</g>
</g>
<defs>
<clipPath id="clip0_16699_275990">
<rect width="40" height="40" fill="white"/>
</clipPath>
</defs>
</svg>
