<svg width="40" height="40" viewBox="0 0 40 40" fill="none" xmlns="http://www.w3.org/2000/svg">
<g clip-path="url(#clip0_16699_276057)">
<mask id="mask0_16699_276057" style="mask-type:luminance" maskUnits="userSpaceOnUse" x="0" y="0" width="40" height="40">
<path d="M40 0H0V40H40V0Z" fill="white"/>
</mask>
<g mask="url(#mask0_16699_276057)">
<mask id="mask1_16699_276057" style="mask-type:luminance" maskUnits="userSpaceOnUse" x="0" y="0" width="40" height="40">
<path d="M40 20C40 8.95433 31.0457 0 20 0C8.95433 0 0 8.95433 0 20C0 31.0457 8.95433 40 20 40C31.0457 40 40 31.0457 40 20Z" fill="white"/>
</mask>
<g mask="url(#mask1_16699_276057)">
<path d="M0 0H59.9868V40H0V0Z" fill="white"/>
<path d="M0 40V0H60.0927V13.3333L0 40Z" fill="#D92223"/>
<path d="M0 40V0H53.3333L0 40Z" fill="#FCD955"/>
<path d="M0 40V0H26.6667L0 40Z" fill="#003D88"/>
<path d="M0 40.0001L60.0927 26.6667V40.0001H0Z" fill="#007A39"/>
</g>
</g>
</g>
<defs>
<clipPath id="clip0_16699_276057">
<rect width="40" height="40" fill="white"/>
</clipPath>
</defs>
</svg>
