<svg width="40" height="40" viewBox="0 0 40 40" fill="none" xmlns="http://www.w3.org/2000/svg">
<g clip-path="url(#clip0_16699_276096)">
<mask id="mask0_16699_276096" style="mask-type:luminance" maskUnits="userSpaceOnUse" x="0" y="0" width="40" height="40">
<path d="M40 0H0V40H40V0Z" fill="white"/>
</mask>
<g mask="url(#mask0_16699_276096)">
<mask id="mask1_16699_276096" style="mask-type:luminance" maskUnits="userSpaceOnUse" x="0" y="0" width="40" height="40">
<path d="M40 20C40 8.95433 31.0457 0 20 0C8.95433 0 0 8.95433 0 20C0 31.0457 8.95433 40 20 40C31.0457 40 40 31.0457 40 20Z" fill="white"/>
</mask>
<g mask="url(#mask1_16699_276096)">
<path d="M-10 0H50V40H-10V0Z" fill="white"/>
<path d="M-10 0H50V20H-10V0Z" fill="#ED2939"/>
<path d="M18.4999 16.5344C22.0897 16.5344 24.9999 13.6243 24.9999 10.0345C24.9999 6.44465 22.0897 3.53455 18.4999 3.53455C14.9101 3.53455 12 6.44465 12 10.0345C12 13.6243 14.9101 16.5344 18.4999 16.5344Z" fill="white"/>
<path d="M21.4438 16.5344C25.0337 16.5344 27.9438 13.6243 27.9438 10.0345C27.9438 6.44465 25.0337 3.53455 21.4438 3.53455C17.8541 3.53455 14.9438 6.44465 14.9438 10.0345C14.9438 13.6243 17.8541 16.5344 21.4438 16.5344Z" fill="#ED2939"/>
<path d="M22.0568 4.61365L21.0621 7.67529L23.6665 5.78309H20.4473L23.0517 7.67529L22.0568 4.61365Z" fill="white"/>
<path d="M27.2137 8.35955H23.9945L26.5988 10.2517L25.6041 7.19006L24.6093 10.2517L27.2137 8.35955Z" fill="white"/>
<path d="M18.8708 14.4198L21.4752 12.5276H18.256L20.8604 14.4198L19.8656 11.3581L18.8708 14.4198Z" fill="white"/>
<path d="M25.2432 14.4198L24.2484 11.3581L23.2536 14.4198L25.858 12.5276H22.6388L25.2432 14.4198Z" fill="white"/>
<path d="M16.902 8.35929L19.5064 10.2515L18.5116 7.18982L17.5168 10.2515L20.1212 8.35929H16.902Z" fill="white"/>
</g>
</g>
</g>
<defs>
<clipPath id="clip0_16699_276096">
<rect width="40" height="40" fill="white"/>
</clipPath>
</defs>
</svg>
