<svg width="40" height="40" viewBox="0 0 40 40" fill="none" xmlns="http://www.w3.org/2000/svg">
<g clip-path="url(#clip0_16699_276114)">
<mask id="mask0_16699_276114" style="mask-type:luminance" maskUnits="userSpaceOnUse" x="0" y="0" width="40" height="40">
<path d="M40 20C40 8.95431 31.0457 0 20 0C8.95431 0 0 8.95431 0 20C0 31.0457 8.95431 40 20 40C31.0457 40 40 31.0457 40 20Z" fill="white"/>
</mask>
<g mask="url(#mask0_16699_276114)">
<mask id="mask1_16699_276114" style="mask-type:luminance" maskUnits="userSpaceOnUse" x="-14" y="0" width="54" height="40">
<path d="M-13.3334 0H40V40H-13.3334V0Z" fill="white"/>
</mask>
<g mask="url(#mask1_16699_276114)">
<path d="M40.001 40.0017V0.00256348H-13.3331V40.0017H40.001Z" fill="#000066"/>
<path d="M-13.3339 6.11173H-6.99769L-13.3339 2.23082V0.00256348H-9.70861L-0.845022 5.3959V0.00256348H4.14598V5.3959L13.0091 0.00256348H16.6658V2.23073L10.2983 6.11173H16.6658V12.2259H10.2983L16.6658 16.107V18.3358H13.0091L4.14581 12.9416V18.3358H-0.845189V12.9417L-9.70861 18.3359H-13.3339V16.107L-6.99769 12.2259H-13.3339V6.11173Z" fill="white"/>
<path d="M14.307 0.00223243L4.29372 6.11582H6.69072L16.6652 0.00223243H14.307ZM16.6664 18.3358L6.6813 12.2256H9.08878L16.6664 16.8792V18.3358ZM-3.3017 6.11432L-13.3342 0.000732422V1.46073L-5.71978 6.11432H-3.3017ZM-3.32261 12.2238L-13.3345 18.3341H-10.9388L-0.925446 12.2238H-3.32261Z" fill="#CE1126"/>
<path d="M-13.3339 7.37995H0.217899V0.00219727H3.15081V7.37995H16.6658V10.9601H3.15081V18.3355H0.217899V10.9601H-13.3338L-13.3339 7.37995Z" fill="#CE1126"/>
<path d="M36.8416 22.1619C36.8244 28.2683 35.861 34.8469 27.9574 37.9805C20.0535 34.8469 19.09 28.2683 19.0729 22.1619H36.8416Z" fill="#8FC5FF" stroke="white" stroke-width="2.4945"/>
<path d="M27.9552 37.9812C31.5381 36.5608 33.6948 34.4319 34.9835 31.9601C34.7906 31.9676 34.3865 31.956 34.2119 31.944C34.0175 31.9313 26.6336 31.1895 25.7592 30.8687C24.9983 30.5897 22.0957 31.1057 20.7409 31.5899C22.0049 34.2192 24.1942 36.4902 27.9552 37.9812Z" fill="#366CC9" stroke="black" stroke-width="2.472"/>
<path d="M22.4334 34.1937C22.5543 34.1545 22.7849 34.1638 22.8758 34.1802C22.9827 34.1997 23.0021 34.2094 23.041 34.0927C23.0799 33.9762 23.1674 34.0053 23.2354 34.0636C23.3034 34.1219 23.478 34.0927 23.546 33.9956C23.6141 33.8987 23.6335 33.9084 23.7016 33.9762C23.7696 34.0442 23.7988 34.0247 23.8668 34.0052C23.9349 33.9862 24.0515 33.9084 24.1099 33.8015C24.1681 33.6946 24.2553 33.6557 24.3039 33.714C24.3524 33.7723 24.401 33.8015 24.4691 33.7918C24.5371 33.7821 24.5566 33.8501 24.5469 33.9372C24.5371 34.0247 24.576 34.0442 24.7413 33.9085C24.887 34.0539 24.9353 33.9956 24.9353 33.8404C24.9353 33.6848 24.8968 33.1117 24.8384 33.0339C24.7801 32.9562 24.7219 32.7326 24.7121 32.5576C24.6938 32.2274 24.6927 32.208 24.2941 32.0038C24.2941 31.8872 24.2649 31.8386 23.9834 31.858C23.9932 31.8192 23.9446 31.7025 23.8863 31.6539C23.8279 31.6052 23.8182 31.5858 23.8474 31.4501C23.964 31.4598 24.0904 31.4404 24.1584 31.3432C24.2261 31.246 24.4496 31.2654 24.5857 31.3237C24.7218 31.3821 24.8968 31.3917 25.1589 31.3529C25.256 31.2752 25.4213 31.1877 25.5963 31.0904C25.7709 30.9932 25.8194 30.9543 25.8292 30.8182C25.8542 30.4694 25.7319 30.0701 25.6348 29.8857C25.5379 29.7011 25.5088 29.4677 25.3727 29.1761C25.2246 28.8587 25.2269 28.7779 25.0616 28.5835C25.0164 28.53 24.9644 28.4862 24.9547 28.3797C24.945 28.2728 24.9061 28.127 24.7899 28.02C24.496 27.7504 24.3816 26.883 24.2649 26.2418C24.198 25.8742 24.2455 25.008 24.0904 24.8718C23.8279 24.658 23.7016 24.6969 23.5266 24.6288C23.4003 24.4538 23.3423 24.1042 23.2257 23.7932C23.0409 23.8223 22.9146 24.0167 22.7883 24.0848C22.6619 24.1529 22.6424 24.1528 22.6424 24.3278C22.6424 24.5025 22.5453 24.7455 22.3707 25.0177C22.1957 25.2895 21.9041 25.2121 21.6614 25.62C21.1269 24.9691 21.1172 24.7843 21.0783 24.5997C21.0394 24.4153 20.9519 24.3765 20.6509 24.114C20.6509 24.0362 20.6121 23.7255 20.6413 23.5505C20.4177 23.3658 20.2524 23.395 20.1459 23.5311C20.0389 23.6672 19.9612 23.871 19.7959 23.9487C19.6969 24.0747 19.3982 24.3925 19.1537 24.7709C19.3761 28.1524 20.1392 31.5092 22.4334 34.1937Z" fill="#5D3100" stroke="black" stroke-width="0.3095"/>
<path d="M36.8416 22.1619C36.8483 19.8617 36.7204 17.6284 36.7788 15.6715C33.8254 14.3498 29.9392 14.078 27.9574 14.078C25.9753 14.078 22.0891 14.3498 19.1357 15.6715C19.1939 17.6284 19.0665 19.8617 19.0729 22.1619H36.8416Z" fill="#FFFF00" stroke="white" stroke-width="2.4225"/>
<path d="M19.551 24.824C19.6482 24.9795 19.8232 25.2469 19.8426 25.3923C19.9107 25.2513 19.9641 25.1885 19.9787 25.101C19.9932 25.0135 20.0953 24.8434 20.0564 24.751C20.0175 24.6587 19.9884 24.5858 20.0953 24.6539C20.2018 24.7219 20.1813 24.8397 20.1581 25.0135C20.0953 25.4895 19.8961 25.5867 19.8669 25.9075C20.1536 26.5827 19.9397 26.8258 20.2504 27.4865C20.2991 27.5156 20.4287 27.4636 20.4677 27.4734C20.6325 27.3567 20.7559 27.399 20.9888 27.4475C21.2222 27.4962 21.3484 27.661 21.3484 27.8069C21.3484 27.9527 21.3484 27.9915 21.3971 28.079C21.4457 28.1665 21.5429 28.3026 21.5234 28.3999C21.504 28.4967 21.5428 28.555 21.572 28.6036C21.6012 28.6522 21.5623 28.7592 21.5332 28.8272C21.504 28.8952 21.5137 28.9828 21.6303 29.1285C21.747 29.274 22.0187 29.8865 22.0187 30.2458C22.0187 30.6055 22.0382 30.7707 22.184 30.8384C22.3298 30.9065 22.3784 30.9648 22.359 31.1203C22.3396 31.2758 22.427 32.0823 22.4465 32.2086C22.466 32.335 22.5145 32.3059 22.5728 32.374C22.6307 32.4416 22.6697 32.5194 22.8641 32.5194C23.0585 32.5194 23.2461 32.4935 23.3724 32.513C23.5474 32.756 23.6543 33.0862 23.6932 33.2904C23.7322 33.4945 23.7287 33.773 23.7968 33.773C23.8649 33.773 23.9329 33.7828 23.9135 33.53C23.8941 33.2773 23.8746 33.2384 23.7871 33.1124C23.6996 32.986 23.651 32.9277 23.6996 32.8499C23.7482 32.772 23.7579 32.6457 23.7385 32.5485C23.7191 32.4514 23.6899 32.3059 23.8552 32.5C24.0203 32.6944 24.069 32.743 24.1176 32.811C24.1662 32.8791 24.1852 33.0055 24.1759 33.1221C24.1662 33.2384 24.1852 33.287 24.2532 33.2287C24.3213 33.1707 24.4087 33.2675 24.3699 33.394C24.3311 33.5204 24.3797 33.5981 24.4962 33.637C24.6128 33.6758 24.6615 33.705 24.6907 33.7925C24.7198 33.88 24.817 33.9185 24.817 33.7439C24.817 33.5689 24.749 33.1995 24.7003 33.0832C24.6518 32.9665 24.6129 32.7138 24.6032 32.568C24.5934 32.4223 24.5643 32.3837 24.4962 32.3545C24.4282 32.3254 24.3699 32.2767 24.3602 32.2087C24.3504 32.1407 24.2922 32.1164 24.2484 32.1164C24.2047 32.1164 24.1662 32.0823 24.1418 32.0337C24.1175 31.9851 24.0932 31.9803 24.0447 31.9754C23.9961 31.9705 23.9183 31.9997 23.894 31.922C23.8697 31.8442 23.8357 31.7324 23.7871 31.6692C23.7385 31.606 23.6947 31.5865 23.6899 31.3682C23.685 31.1495 23.6802 31.1203 23.6121 31.0425C23.544 30.9648 23.4274 30.761 23.3788 30.6735C23.3306 30.586 23.282 30.4985 23.282 30.6832C23.282 30.8675 23.282 30.9648 23.3982 31.0328C23.5149 31.1009 23.5441 31.1009 23.4955 31.198C23.4469 31.2952 23.4955 31.3633 23.5149 31.4314C23.5343 31.4995 23.5732 31.5675 23.5149 31.6351C23.4566 31.7032 23.3982 31.6838 23.408 31.5772C23.4177 31.4703 23.3788 31.3439 23.3306 31.2564C23.282 31.1689 23.2431 31.1105 23.1847 31.1592C23.1264 31.2079 23.0779 31.1495 23.1167 31.1105C23.1556 31.0716 23.1459 31.0425 23.1167 31.0134C23.0876 30.9842 23.0779 30.955 23.1265 30.8967C23.1751 30.8384 23.1751 30.8092 23.1459 30.6735C23.1167 30.5374 22.9029 29.8573 22.8057 29.7018C22.7086 29.5463 22.7182 29.4295 22.8446 29.5851C22.9709 29.7407 23.0779 29.8768 23.0876 30.0027C23.0973 30.1291 23.1265 30.2069 23.1653 30.2555C23.2042 30.304 23.2334 30.2846 23.2528 30.1777C23.2722 30.0708 23.3501 30.1097 23.214 29.9059C23.0779 29.7017 22.8252 29.3615 22.728 28.7495C22.6308 28.1374 22.5919 27.7291 22.4947 27.5642C22.3978 27.399 22.3687 27.36 22.359 27.2045C22.3493 27.049 22.359 26.8935 22.2909 26.7772C22.2229 26.6605 22.1742 26.641 22.1646 26.816C22.1548 26.9906 22.1742 27.3795 22.2229 27.4475C22.2716 27.5155 22.2423 27.6902 22.2326 27.7875C22.2228 27.8847 22.07 27.9808 22.3882 28.1763C22.5145 28.254 22.4947 28.361 22.4757 28.429C22.4562 28.4967 22.4367 28.487 22.3687 28.3805C22.3007 28.2735 22.2326 28.186 22.1645 28.1277C22.0964 28.0695 22.0868 28.0305 22.0965 27.8944C22.1062 27.7583 22.1354 27.661 22.0965 27.6128C22.0577 27.5642 22.0382 27.6031 22.0187 27.6805C21.9993 27.7583 21.9799 27.9721 21.941 28.0305C21.9021 28.0888 21.8827 28.0499 21.8535 27.9235C21.8243 27.7972 21.8632 27.6031 21.9312 27.3795C21.9992 27.156 22.0382 26.9226 21.9799 26.6314C21.9216 26.3397 21.9507 26.2522 21.7272 26.0095C21.504 25.7665 21.2512 25.5332 21.1443 25.2323C21.0374 24.9309 21.018 24.6685 20.9013 24.5323C20.7851 24.3966 20.6198 24.2216 20.5129 24.173V23.7262C20.5129 23.6193 20.4643 23.5512 20.3379 23.5707C20.2115 23.5902 20.1337 23.697 20.0564 23.8425C19.9787 23.9883 19.9203 23.9203 19.8134 24.173C19.7065 24.4258 19.5509 24.5518 19.5509 24.824H19.551Z" fill="#CF6200"/>
<path d="M20.2539 27.6731C20.3317 27.7217 20.4061 27.7542 20.5227 27.6959C20.6393 27.6375 20.7788 27.4693 20.9343 27.6346C21.0895 27.7994 21.1769 28.0717 21.1769 28.2854C21.1769 28.499 21.1769 28.8976 21.4199 29.1212C21.6629 29.3444 21.7889 29.5777 21.7987 29.8694C21.8083 30.1606 21.9153 30.6077 21.9445 30.7244C21.9737 30.8407 22.0417 30.9769 22.1194 31.0545C22.1972 31.1322 22.2555 31.3559 22.2653 31.5889C22.2749 31.8222 22.2361 31.9874 22.2653 32.1041C22.2944 32.2208 22.2653 32.3179 22.1778 32.2596C22.0903 32.2013 22.0708 32.1721 22.0223 32.0749C21.9737 31.9778 21.9153 31.9971 21.9639 32.1429C22.0125 32.2888 22.1583 32.4245 22.2847 32.4245C22.411 32.4245 22.4499 32.4439 22.5277 32.5217C22.6051 32.5994 22.6148 32.6384 22.7508 32.6384C22.8869 32.6384 22.9063 32.6384 23.0328 32.6773C23.1592 32.7162 23.1591 32.6967 23.2272 32.6773C23.2953 32.6579 23.3628 32.7161 23.4114 32.8425C23.46 32.9689 23.5767 33.3184 23.5767 33.4157C23.5767 33.5129 23.5767 33.6101 23.6448 33.7074C23.7128 33.8046 23.6933 33.9018 23.6156 33.8434C23.5378 33.7851 23.5378 33.8045 23.4795 33.8143C23.4212 33.824 23.3823 33.7948 23.3049 33.7462C23.2272 33.6976 23.2758 33.7074 23.198 33.5907C23.1203 33.474 23.0716 33.4351 23.0716 33.5226C23.0716 33.6101 23.0619 33.717 23.0036 33.6684C22.9453 33.6199 22.9161 33.6199 22.8675 33.6684C22.8189 33.717 22.7994 33.7559 22.7412 33.6587C22.6829 33.5614 22.6148 33.5615 22.5564 33.542C22.4981 33.5225 22.4981 33.5226 22.4693 33.4351C22.4402 33.3476 22.3527 33.3282 22.2749 33.3282C22.1972 33.3282 22.1583 33.2893 22.1486 33.231C22.1388 33.173 22.0903 33.1341 22.0514 33.1049C22.0126 33.0758 22.0319 33.0078 22.0223 32.9397C22.0126 32.8716 21.9542 32.9009 21.9153 32.8814C21.8765 32.8619 21.8473 32.8717 21.8473 32.7744C21.8473 32.6772 21.8083 32.6481 21.7793 32.58C21.7504 32.512 21.7793 32.4439 21.7987 32.3665C21.8181 32.2888 21.8083 32.2402 21.7504 32.1721C21.6921 32.1041 21.7407 32.036 21.5852 31.8999C21.4297 31.7639 21.3518 31.8805 21.3033 31.56C21.2547 31.2392 21.1575 30.5786 21.07 30.4717C20.9825 30.3648 20.9246 30.2869 20.8371 30.2578C20.7496 30.2286 20.6913 30.2481 20.6816 30.0634C20.6718 29.879 20.6136 29.6458 20.4969 29.5291C20.3803 29.4124 20.3317 29.3735 20.2733 29.3249C20.215 29.2764 20.1956 29.1889 20.2733 29.0239C20.3511 28.8587 20.3219 28.6351 20.3123 28.5281C20.3025 28.4216 20.2733 28.2855 20.2928 28.1689C20.3122 28.0524 20.3025 27.9064 20.2733 27.8286C20.2442 27.7508 20.2053 27.7314 20.2539 27.6731ZM22.5942 24.91C22.4626 25.0794 22.3224 25.2211 22.1411 25.3504C21.9598 25.4802 21.7265 25.5838 21.8558 25.804C21.9856 26.0242 22.0892 26.0504 22.115 26.2186C22.1411 26.3869 22.18 26.5297 22.3093 26.5686C22.4391 26.6071 22.4907 26.5814 22.4907 26.8535C22.4907 27.1257 22.4907 27.2293 22.6073 27.3329C22.724 27.4364 22.7108 27.5399 22.7628 27.7864C22.8144 28.0324 22.8144 28.5637 22.9699 28.9264C23.1254 29.289 23.4753 29.9759 23.4365 30.1184C23.3977 30.2609 23.3457 30.3644 23.5012 30.5326C23.6567 30.7013 23.7603 30.9473 23.7733 31.0897C23.786 31.2325 23.8123 31.2841 23.9673 31.2325C24.1229 31.1805 24.2007 31.1286 24.2526 31.0639C24.3043 30.9992 24.4078 31.0123 24.5506 31.0898C24.693 31.1674 24.9132 31.2453 25.0426 31.1674C25.1722 31.0897 25.2369 30.9734 25.3536 30.9734C25.5349 30.8437 25.5996 30.5715 25.6385 30.4941C25.6773 30.4164 25.6516 30.4164 25.5738 30.3385C25.4959 30.2607 25.5349 30.131 25.5218 30.0017C25.5091 29.8719 25.4572 29.6779 25.3017 29.3926C25.1465 29.1077 25.0557 28.7578 24.9521 28.6673C24.8485 28.5764 24.7966 28.3562 24.7835 28.2526C24.7708 28.149 24.6541 28.0582 24.5763 27.9805C24.4986 27.903 24.4208 27.7864 24.3303 27.3329C24.2395 26.8793 24.1748 26.5555 24.1748 26.4778C24.1748 26.4 24.1618 26.3869 24.084 26.3611C24.0063 26.3353 23.9673 26.2055 23.9935 26.1409C24.0193 26.0762 23.9673 26.0115 23.9416 25.9338C23.9158 25.856 23.9416 25.7135 23.9935 25.6358C24.0452 25.5579 24.0324 25.3378 23.9804 25.1565C23.9284 24.9751 23.8769 24.8195 23.6694 24.7934C23.4623 24.7675 23.4234 24.7159 23.3457 24.5474C23.2679 24.379 23.1901 24.0811 23.1643 24.016C23.1385 23.9514 23.0997 23.9383 22.9442 24.068C22.7886 24.1974 22.737 24.2404 22.737 24.4827C22.737 24.6382 22.7628 24.6898 22.8144 24.7807C22.8663 24.8711 22.8794 24.8974 22.9183 25.1434C22.9573 25.3894 23.1774 25.7782 22.8922 25.9984C22.6073 26.2186 22.6462 26.2706 22.6593 26.4259C22.672 26.5814 22.5815 26.6849 22.5295 26.4647C22.4779 26.2444 22.5295 26.1151 22.6851 26.0115C22.8406 25.9076 22.983 25.7782 22.8794 25.6357C22.7755 25.4933 22.737 25.1564 22.7239 25.0009C22.7108 24.8453 22.6851 24.7934 22.5942 24.91Z" fill="#CF6200"/>
<path d="M20.2838 28.2115C20.2767 28.3169 20.3002 28.4328 20.3085 28.5259C20.3181 28.6328 20.3473 28.8564 20.2696 29.0217C20.1918 29.1866 20.2112 29.2741 20.2696 29.3227C20.2729 29.3252 20.276 29.3279 20.2789 29.3305C20.4375 29.2774 20.4581 29.1005 20.4154 29.0149C20.3701 28.9245 20.3832 28.8142 20.4348 28.7237C20.4868 28.6328 20.4868 28.5812 20.4415 28.5162C20.396 28.4515 20.396 28.4515 20.4479 28.2702C20.4936 28.1105 20.3784 28.1117 20.2837 28.2115H20.2838ZM21.9436 30.724C21.9145 30.6073 21.8076 30.1602 21.7978 29.869C21.7881 29.5773 21.6621 29.344 21.4191 29.1207C21.2296 28.9462 21.1881 28.6657 21.1791 28.4492C21.0367 28.3622 20.9766 28.4017 20.9885 28.5637C21.0012 28.7382 21.1761 28.8228 21.1504 29.0752C21.1245 29.3279 21.1245 29.2632 21.2475 29.3862C21.3705 29.5092 21.4158 29.6259 21.3511 29.6779C21.2865 29.7295 21.2797 29.8203 21.3705 29.8525C21.461 29.885 21.4678 29.9822 21.4547 30.0727C21.4416 30.1635 21.5261 30.183 21.5776 30.2477C21.6296 30.3123 21.636 30.4679 21.5844 30.5587C21.5325 30.6492 21.526 30.7917 21.6165 30.7143C21.7074 30.6365 21.7463 30.7076 21.8174 30.8306C21.879 30.9367 21.9306 30.9035 21.9975 30.8713C21.9748 30.8241 21.9568 30.7747 21.9436 30.724ZM23.2073 32.9861C23.149 33.1027 23.081 33.0638 23.0226 33.0055C22.9643 32.9472 22.8962 32.9472 22.9254 32.8402C22.9546 32.7333 22.9449 32.7138 22.8671 32.6555C22.8581 32.6488 22.8491 32.6428 22.8401 32.6368C22.8159 32.6361 22.7875 32.6361 22.7505 32.6361C22.6144 32.6361 22.6046 32.5972 22.5272 32.5194C22.512 32.5042 22.496 32.4897 22.4794 32.4761C22.4779 32.4947 22.4786 32.5194 22.4786 32.5486C22.4786 32.6555 22.4786 32.6361 22.3717 32.6652C22.2648 32.6944 22.2842 32.5583 22.2648 32.4708C22.2606 32.4529 22.2551 32.4354 22.248 32.4185C22.131 32.396 22.0076 32.2727 21.9635 32.1407C21.9149 31.9948 21.9732 31.9754 22.0218 32.0727C22.0704 32.1699 22.0899 32.199 22.1773 32.2573C22.2647 32.3157 22.294 32.2185 22.2648 32.1018C22.2555 32.0644 22.2532 32.021 22.2544 31.9728C22.2334 31.9351 22.205 31.9044 22.1676 31.8879C22.012 31.8199 22.0607 31.8004 22.0704 31.6741C22.0801 31.5481 22.051 31.5481 21.9537 31.6157C21.8566 31.6838 21.8469 31.606 21.8469 31.412C21.8469 31.2176 21.7205 31.2176 21.6917 31.3537C21.6625 31.4897 21.614 31.4022 21.5556 31.2078C21.4973 31.0134 21.4196 30.9648 21.4098 31.1495C21.4016 31.3057 21.3582 31.3432 21.2565 31.2564C21.2745 31.3693 21.2902 31.4747 21.3029 31.5578C21.3515 31.8782 21.4292 31.7616 21.5848 31.8977C21.7404 32.0337 21.6917 32.1018 21.7501 32.1698C21.808 32.2379 21.8177 32.2865 21.7982 32.3642C21.7788 32.4417 21.7501 32.5097 21.7788 32.5777C21.808 32.6458 21.8469 32.675 21.8469 32.7722C21.8469 32.8693 21.8761 32.8597 21.9149 32.8792C21.9392 32.8911 21.9705 32.8843 21.9934 32.8941C22.0184 32.8612 22.0412 32.8207 22.0704 32.7916C22.1871 32.6749 22.3621 32.8013 22.4204 32.9472C22.4787 33.093 22.5463 33.1319 22.6338 33.0152C22.7213 32.8986 22.6921 32.918 22.7893 33.0249C22.8865 33.1318 22.9254 33.1124 22.9254 33.1124C22.9254 33.1124 23.0226 33.0736 23.0906 33.1319C23.1586 33.1902 23.1975 33.1805 23.3235 32.9957C23.4499 32.8111 23.2656 32.8694 23.2073 32.9861ZM23.5512 27.6543C23.5897 27.3695 23.564 27.0846 23.6805 26.9806C23.7972 26.8771 23.9397 26.6699 23.9265 27.1103C23.9139 27.5508 23.9007 27.525 23.8103 27.6286C23.7195 27.7322 23.6417 27.7579 23.7325 27.9266C23.823 28.0948 23.8361 28.1079 23.8231 28.367C23.8103 28.6262 23.8103 28.7297 23.9139 28.8594C24.0174 28.9887 24.0432 29.0019 24.0694 29.1443C24.0952 29.2868 24.1856 29.4812 24.3023 29.5847C24.419 29.6883 24.5486 29.9863 24.5614 30.1938C24.5745 30.401 24.7558 30.453 24.924 30.5954C25.0926 30.7379 24.8855 30.8414 24.7558 30.7767C24.6264 30.7121 24.6781 30.7767 24.6002 30.8672C24.5225 30.9581 24.4967 30.9712 24.432 30.8156C24.3674 30.66 24.1468 30.5565 24.0432 30.5177C23.9396 30.4788 23.8492 30.3102 23.7583 30.1418C23.6806 29.9972 23.5266 29.8913 23.386 29.8805C23.4249 29.9897 23.4458 30.0753 23.4345 30.1161C23.3957 30.2586 23.3437 30.3621 23.4993 30.5303C23.6548 30.699 23.7583 30.945 23.7715 31.0874C23.7841 31.2302 23.8103 31.2818 23.9655 31.2302C24.121 31.1783 24.1988 31.1263 24.2507 31.0617C24.3023 30.9969 24.4059 31.01 24.5486 31.0875C24.6911 31.1652 24.9113 31.243 25.0406 31.1652C25.1704 31.0874 25.2351 30.9712 25.3517 30.9712C25.533 30.8414 25.5977 30.5692 25.6366 30.4918C25.6755 30.4141 25.6496 30.4141 25.5719 30.3362C25.4941 30.2584 25.533 30.1287 25.5199 29.9994C25.5072 29.8697 25.4552 29.6756 25.2997 29.3903C25.1445 29.1054 25.0537 28.7555 24.9502 28.665C24.8466 28.5742 24.7946 28.3539 24.7815 28.2503C24.7689 28.1467 24.6522 28.0559 24.5745 27.9782C24.4967 27.9007 24.419 27.7841 24.3285 27.3306C24.2575 26.9762 24.2025 26.7013 24.1819 26.5607C24.0888 26.7092 24.0252 26.7454 23.9916 26.6437C23.9527 26.5274 23.9008 26.4624 23.8491 26.5402C23.7972 26.6179 23.7841 26.4755 23.7841 26.4108C23.7841 26.3457 23.7715 26.333 23.7064 26.333C23.6417 26.333 23.6936 26.2295 23.6675 26.035C23.6416 25.8406 23.6028 25.8148 23.577 26.0482C23.5512 26.2811 23.4215 26.4235 23.4735 26.4755C23.5251 26.5274 23.4993 26.631 23.4473 26.7866C23.3956 26.9417 23.4215 27.0326 23.4604 27.1362C23.4993 27.2397 23.4346 27.4342 23.4084 27.6028C23.3826 27.771 23.5124 27.9392 23.5512 27.6543ZM21.1847 25.3287C21.0887 25.3358 21.0229 25.42 21.0778 25.7142C21.1122 25.8963 20.9743 25.8567 20.9227 25.7659C20.8707 25.6753 20.8319 25.4809 20.7283 25.3123C20.6244 25.144 20.6763 25.429 20.6636 25.5845C20.6506 25.74 20.7541 25.74 20.845 25.8694C20.9354 25.9992 20.8576 26.0511 20.7541 26.0511C20.6506 26.0511 20.7025 26.2582 20.7283 26.4007C20.7541 26.5431 20.7025 26.5693 20.6244 26.4527C20.547 26.336 20.5985 26.1547 20.6116 25.9345C20.6244 25.7142 20.6375 25.7658 20.495 25.7142C20.3526 25.6622 20.3783 25.6365 20.4303 25.5067C20.482 25.3773 20.5339 25.3123 20.4692 25.2476C20.4042 25.1829 20.4172 25.1441 20.5208 25.1309C20.6244 25.1182 20.5858 25.0405 20.6763 25.0142C20.7671 24.9885 20.8061 25.0274 20.8188 24.8592C20.8296 24.7186 20.8767 24.6322 20.9821 24.6748C21.0457 24.8913 21.1283 25.2282 21.1847 25.3287ZM22.4895 26.8542C22.4895 27.1264 22.4895 27.23 22.6061 27.3336C22.7228 27.4372 22.7097 27.5407 22.7616 27.7871C22.8133 28.0331 22.8133 28.5644 22.9688 28.9271C23.0151 29.0352 23.0791 29.1723 23.1445 29.3152C23.2305 29.2475 23.3053 29.1312 23.3318 29.0696C23.3703 28.9787 23.2541 28.7973 23.1631 28.6422C23.0727 28.4867 23.1762 28.4347 23.2667 28.2402C23.3575 28.0462 23.254 28.0331 23.1115 27.9811C22.9688 27.9296 22.9688 27.7998 22.891 27.5927C22.8133 27.3857 22.8263 27.2947 22.8783 27.178C22.93 27.0613 22.8911 26.9709 22.7875 26.9447C22.6839 26.9189 22.7097 26.8412 22.7486 26.7117C22.7875 26.5821 22.8132 26.5562 22.6581 26.5951C22.5403 26.6242 22.512 26.6463 22.4768 26.689C22.4854 26.7263 22.4895 26.7783 22.4895 26.8542V26.8542Z" fill="#00B800"/>
<path d="M23.9811 27.3964C23.9669 27.5519 23.968 27.6297 23.9292 27.6812C23.8907 27.7332 23.9164 27.811 23.9553 27.8887C23.9942 27.9665 24.02 28.0702 23.9812 28.2126C23.9423 28.355 24.0069 28.4717 24.0847 28.5106C24.1624 28.5494 24.2013 28.5106 24.1755 28.6919C24.1493 28.8732 24.2532 29.0677 24.3437 29.1454C24.4346 29.2232 24.4992 29.3526 24.4862 29.4304C24.4735 29.5081 24.5512 29.5859 24.6417 29.6247C24.7325 29.6637 24.7195 29.6767 24.7195 29.7283C24.7195 29.7803 24.7583 29.7803 24.8619 29.8061C24.9655 29.8318 25.0432 29.8969 25.1598 30.0394C25.2764 30.1819 25.4447 30.2597 25.419 30.1041C25.3932 29.9485 25.419 29.845 25.2634 29.7672C25.1082 29.6894 24.9916 29.3137 24.9266 29.0546C24.8619 28.7954 24.6547 28.4459 24.5382 28.3812C24.5251 28.1995 24.5512 28.109 24.4346 28.0182C24.3179 27.9277 24.2791 27.811 24.2791 27.7202C24.2791 27.6297 24.2144 27.513 24.1624 27.4872C24.1108 27.4611 24.0847 27.3964 24.0847 27.3186C24.0847 27.2407 23.9942 27.2539 23.9811 27.3964Z" fill="#5D3100"/>
<path d="M23.2933 34.347C23.5263 34.3276 24.158 34.1428 24.2257 34.0845C24.3813 34.1915 24.6533 34.3373 24.77 34.3373C24.5464 34.3859 24.4007 34.3567 24.3423 34.3178C24.3715 34.3859 24.4493 34.4928 24.4978 34.5026C24.284 34.4928 24.0414 34.4442 23.9637 34.3665C23.7789 34.4442 23.4678 34.4636 23.2933 34.347ZM23.712 34.6386C23.7947 34.663 24.2073 34.731 24.2608 34.731C24.1248 34.8473 24.2414 34.9591 24.4698 34.9396C24.358 34.9542 24.2362 34.9965 24.3192 35.0126C24.5183 35.0514 25.0575 34.9056 25.1644 34.8473C24.9798 35.0855 24.0814 35.3041 23.712 34.6386ZM24.0822 35.2294C24.1935 35.1711 24.4705 35.1905 24.6018 35.2537C24.4559 35.3071 24.1696 35.3071 24.0822 35.2294Z" fill="#00D860"/>
<path d="M24.4971 35.2219C24.6963 35.1879 25.2597 35.324 25.459 35.2025C25.391 35.3823 25.0362 35.4067 24.9147 35.3678C24.7936 35.3288 24.6769 35.2803 24.5943 35.2851C24.6381 35.2608 24.5652 35.2559 24.4971 35.2219Z" fill="black"/>
<path d="M24.7026 35.4986C24.8533 35.5225 25.3924 35.4548 25.5576 35.3917C25.7322 35.45 26.0772 35.542 26.1551 35.5322C25.9898 35.6343 25.6739 35.576 25.5722 35.5322C25.2806 35.6295 25.0425 35.6587 24.7026 35.4986Z" fill="#00D860"/>
<path d="M24.9607 35.5883C25.1764 35.6369 25.3603 35.6021 25.5727 35.5311C25.6388 35.5595 25.7947 35.5943 25.9412 35.5872C26.0388 35.6429 26.1701 35.7206 26.2964 35.7304C26.1652 35.7839 25.6841 35.7304 25.5872 35.677C25.3442 35.6818 24.9262 35.7353 24.8246 35.8179C24.8197 35.7498 24.8638 35.6552 24.9607 35.5883Z" fill="#00D860"/>
<path d="M24.7028 34.4928C24.871 34.5489 25.4799 34.522 25.7906 34.3761C25.9133 34.3186 25.9892 34.4151 25.849 34.4636C25.344 34.6386 24.9454 34.7067 24.6541 34.5512C24.539 34.4898 24.5278 34.4345 24.7028 34.4928Z" fill="black"/>
<path d="M27.686 33.6666C26.9379 34.0162 26.4422 34.1231 25.4028 33.8027C25.306 33.7727 25.2376 33.8027 25.3445 33.8707C25.4514 33.9384 26.0245 34.094 26.1607 34.1036C26.2968 34.1133 26.2482 34.1765 26.1655 34.2009C26.0828 34.2252 26.0586 34.2835 26.1703 34.2398C26.2821 34.196 26.9065 34.1795 27.1614 34.3127C27.2728 34.371 27.302 34.3613 27.2922 34.3175C27.2825 34.2738 27.3409 34.2446 27.4235 34.2349C27.5061 34.2251 27.5547 34.196 27.4916 34.1717C27.4284 34.1474 27.4187 34.1328 27.4672 34.1085C27.5158 34.0843 27.5207 34.06 27.4478 34.0454C27.3749 34.0308 27.3263 34.0113 27.3943 33.9773C27.4624 33.9436 27.5645 33.919 27.6422 33.9096C27.6617 33.8561 27.6277 33.7152 27.686 33.6666Z" fill="#00D860"/>
<path d="M26.4411 33.7563C26.8689 33.7866 27.6558 33.591 28.0738 33.1831C28.2192 33.2703 28.4233 33.3674 28.5302 33.3869C28.6371 33.4063 28.7344 33.5035 28.5691 33.5035C28.4039 33.5035 28.1706 33.4355 28.0641 33.3869C27.5099 33.7271 26.8617 33.8389 26.4509 33.8049C26.3346 33.7952 26.3054 33.7466 26.4411 33.7563Z" fill="black"/>
<path d="M25.1774 31.4232C25.3233 31.5252 25.5808 31.695 25.9158 31.6707C26.081 31.8019 26.3386 31.9137 26.4553 31.9381C26.2317 32.0304 25.9887 32.1082 25.9255 32.1811C25.8234 32.0838 25.6926 32.0984 25.6586 32.0498C25.5614 32.1276 25.5759 32.1762 25.6392 32.2151C25.7024 32.2539 26.1929 32.3366 26.3144 32.3026C26.4359 32.2686 26.4684 32.3692 26.3678 32.4042C26.1053 32.4967 25.5954 32.4092 25.4204 32.1276C25.2454 31.8457 25.0949 31.7387 24.6189 31.9963C24.5654 31.8602 24.5654 31.8262 24.4731 31.8262C24.3808 31.8262 24.2106 31.7047 24.3419 31.7096C24.4731 31.7144 24.8619 31.6562 25.1774 31.4232Z" fill="#00D860"/>
<path d="M25.2933 32.0476C25.2123 32.0678 24.9823 32.1934 24.9001 32.2032C24.8175 32.2128 24.6718 32.3295 24.8223 32.3343C24.9727 32.3393 25.1671 32.174 25.274 32.1593C25.3809 32.1447 25.3907 32.0233 25.2934 32.0477L25.2933 32.0476ZM25.7644 32.5412C25.7069 32.5512 25.4586 32.6092 25.3906 32.6043C25.3226 32.5995 25.2545 32.6189 25.2594 32.6675C25.2643 32.7161 25.2837 32.7453 25.1816 32.7356C25.0795 32.7259 24.9921 32.7648 24.9678 32.7939C24.9434 32.8231 24.924 32.8522 25.0261 32.8619C25.1282 32.8716 25.1816 32.8813 25.2983 32.8279C25.4149 32.7745 25.5267 32.6918 25.6531 32.6869C25.779 32.6821 25.9054 32.5169 25.7644 32.5412Z" fill="#00D860"/>
<path d="M25.4166 32.8402C25.5228 32.9089 26.0481 33.0881 26.2376 33.0735C26.4272 33.0589 26.3916 33.1494 26.2474 33.1804C25.9509 33.2433 25.5891 33.1143 25.3437 32.9179C25.2222 32.8208 25.3341 32.7867 25.4166 32.8402Z" fill="black"/>
<path d="M27.9027 33.0982C27.5008 33.2264 27.0914 33.1807 26.9262 33.137C26.7611 33.0932 26.6103 33.0836 26.7221 33.1905C26.8338 33.2971 27.1935 33.37 27.3972 33.3165C26.6735 33.4817 26.4839 33.4672 26.3045 33.438C26.1247 33.4088 25.7871 33.4152 25.6439 33.4282C25.537 33.438 25.3912 33.4234 25.3281 33.3846C25.265 33.3457 25.2454 33.2727 25.4349 33.2922C25.6241 33.3117 25.6487 33.2727 25.4835 33.2484C25.3182 33.2241 25.0898 33.2922 25.3135 33.4332C25.5372 33.5742 26.0275 33.4234 26.3385 33.5109C26.6492 33.5984 27.3097 33.6616 27.9367 33.1561C27.9689 33.1302 28.0242 33.0592 27.9027 33.0982ZM25.9287 32.5074C25.9433 32.556 25.9433 32.6095 25.9287 32.6435C25.9142 32.6775 25.9142 32.7212 25.9774 32.6727C26.0407 32.6241 26.0794 32.5657 26.1426 32.5997C26.2057 32.6337 26.3662 32.6289 26.4387 32.6192C26.512 32.6095 26.5359 32.5949 26.4293 32.5512C26.3224 32.5074 26.2155 32.4928 26.1572 32.4977C26.0988 32.5025 26.026 32.4879 25.9774 32.4685C25.9288 32.4491 25.9142 32.4587 25.9287 32.5074Z" fill="#00D860"/>
<path d="M26.9645 32.6944C26.8819 32.6992 26.7361 32.6458 26.6583 32.6118C26.5805 32.5778 26.4691 32.5729 26.5517 32.6847C26.634 32.7965 26.9936 32.8597 27.12 32.8062C27.2465 32.7528 27.1929 32.6944 27.3189 32.7722C27.4452 32.85 27.5765 32.9034 27.6689 32.9034C27.7613 32.9034 27.7951 32.9034 27.693 32.8451C27.591 32.7867 27.5425 32.7722 27.5327 32.7236C27.523 32.675 27.5085 32.6458 27.6008 32.675C27.6931 32.7042 27.8 32.7576 27.873 32.7187C27.946 32.6799 28.0815 32.5923 28.203 32.5923L28.2321 32.5194C28.0572 32.5048 27.9458 32.5583 27.8972 32.5777C27.8486 32.5972 27.7611 32.6069 27.6689 32.5923C27.5766 32.5777 27.455 32.5681 27.4258 32.5437C27.3966 32.5194 27.3966 32.5 27.4744 32.4854C27.5521 32.4708 27.5765 32.4173 27.4695 32.4368C27.3626 32.4563 27.0762 32.4465 26.9256 32.3979C26.775 32.3497 26.7117 32.3448 26.6485 32.3687C26.5854 32.3931 26.5951 32.4611 26.6875 32.466C26.7798 32.4709 26.9888 32.4902 27.0616 32.5583C27.1345 32.6264 27.1249 32.6312 27.0422 32.5972C26.9595 32.5632 26.8089 32.5827 26.9645 32.6944Z" fill="#00D860"/>
<path d="M28.2318 32.5187L28.2026 32.5916C28.3825 32.5868 28.8199 32.6305 28.9605 32.718C29.0966 32.6111 29.0722 32.577 29.1695 32.5965C29.2667 32.616 29.3881 32.6499 29.4416 32.6208C29.4951 32.5916 29.534 32.5965 29.5923 32.6062C29.6502 32.6159 29.7766 32.5916 29.8495 32.5478C29.9224 32.5041 30.0731 32.4458 30.1606 32.4458C30.2481 32.4458 30.3546 32.4263 30.1946 32.402C30.0341 32.3778 29.7912 32.4263 29.7086 32.4555C29.6263 32.4847 29.3785 32.5041 29.2326 32.5041C29.0868 32.5041 28.888 32.577 28.7226 32.5333C28.5573 32.4895 28.3291 32.5187 28.2318 32.5187Z" fill="#00D860"/>
<path d="M30.4825 32.4327C30.1912 32.6466 29.8412 32.6952 29.4236 32.7243C29.3021 32.7329 29.3396 32.7673 29.4431 32.7778C29.8801 32.8216 30.3856 32.6612 30.5505 32.4862C30.5983 32.4357 30.5931 32.352 30.4825 32.4327Z" fill="black"/>
<path d="M28.4973 32.93C28.6236 32.9348 29.0606 33.0467 29.2016 33.0953C29.3085 33.0855 29.3377 33.0613 29.3183 33.0223C29.2988 32.9834 29.2842 32.9397 29.4786 32.9494C29.6726 32.9592 30.1198 32.9543 30.2023 32.9543C30.2704 32.9251 30.4207 32.8084 30.4888 32.8036C30.3142 32.8133 29.5854 32.8522 29.4932 32.8425C29.4009 32.8328 29.3523 32.8425 29.2939 32.8765C29.2356 32.9105 29.2016 32.9251 29.1287 32.8959C29.0558 32.8668 28.9245 32.8279 28.852 32.8717C28.7791 32.9154 28.6284 32.8765 28.4973 32.93Z" fill="#00D860"/>
<path d="M30.2021 32.9524C30.2701 32.9232 30.4204 32.8066 30.4884 32.8017C30.6148 32.792 30.7606 32.8455 30.8287 32.8552C30.8968 32.8648 30.9695 32.8503 30.921 32.7968C30.8725 32.7433 30.9161 32.651 31.1153 32.6753C31.3143 32.6997 31.4163 32.7337 31.6108 32.7142C31.8052 32.6948 31.8926 32.8406 32.2616 32.6948C32.2324 32.8407 32.3005 32.8503 32.3685 32.8212C32.4365 32.792 32.5143 32.8017 32.631 32.8892C32.7477 32.9767 33.4568 32.9864 33.622 32.9572C33.7869 32.9281 33.8744 33.0156 33.748 33.0545C33.622 33.0933 33.5925 33.1517 33.622 33.1906C33.6508 33.2291 33.68 33.2777 33.5248 33.2582C33.3693 33.2388 33.3402 33.2874 33.2623 33.3457C33.1845 33.4041 33.1652 33.4235 32.9513 33.3847C32.7379 33.3457 32.699 33.3749 32.5823 33.3943C32.4657 33.4137 32.4365 33.4138 32.3199 33.3749C32.2033 33.336 31.9509 33.2972 31.7954 33.3457C31.6399 33.3943 31.5233 33.4429 31.3871 33.4041C31.2509 33.3652 31.2413 33.3847 31.3288 33.2972C31.4163 33.2097 31.4358 33.2193 31.601 33.1999C31.7663 33.1808 31.8927 33.1322 31.776 33.0642C31.6593 32.9961 31.6204 33.0058 31.4649 33.0837C31.3094 33.1615 31.2316 33.2097 31.0571 33.1128C30.8821 33.0156 30.7946 33.035 30.6779 33.0642C30.5613 33.0933 30.3673 33.0253 30.2021 32.9524ZM30.7853 33.2441C30.5628 33.2757 30.503 33.1327 30.2705 33.1617C30.1927 33.1715 30.0615 33.2684 30.2413 33.2537C30.4208 33.2392 30.6152 33.3364 30.7901 33.3218C30.965 33.3072 30.8873 33.2295 30.7853 33.2441ZM30.5273 33.4123C30.6443 33.3697 30.8869 33.4512 30.989 33.4317C31.0911 33.4123 31.1883 33.4755 31.0813 33.5095C30.9744 33.5435 30.7168 33.4463 30.6002 33.4803C30.4835 33.5143 30.3673 33.4706 30.5273 33.4123ZM28.2057 34.0404C28.3661 34.0457 28.944 34.021 29.1725 33.5353C29.19 33.4979 29.2065 33.4818 29.2794 33.5304C29.3523 33.579 29.6196 33.7394 30.1198 33.7832C30.26 33.7955 30.4114 33.8658 30.1295 33.8464C29.8476 33.827 29.4009 33.7492 29.2503 33.6568C28.9975 34.055 28.5436 34.1022 28.2057 34.0939C28.0019 34.089 28.0506 34.0356 28.2057 34.0404Z" fill="#00D860"/>
<path d="M29.4542 33.3787C29.3765 33.4856 29.1092 33.6703 28.9876 33.68C28.8666 33.6897 28.5021 33.6557 28.4097 33.6217C28.3174 33.5877 28.2056 33.5973 28.3368 33.6897C28.4681 33.7822 28.7936 33.8452 28.9245 33.8161C29.0557 33.7869 29.2064 33.7432 29.3085 33.8064C29.4106 33.8697 29.6001 33.9907 29.7115 33.9664C29.8232 33.9425 30.0516 33.9425 30.1246 33.9762C30.1975 34.0102 30.3238 34.1122 30.1343 34.0539C29.9448 33.9956 29.7892 34.0442 29.7018 34.0052C29.799 34.1414 30.0195 34.3601 30.2071 34.3601C30.2509 34.3601 30.2801 34.4379 30.1877 34.4817C30.2801 34.5253 30.4936 34.5594 30.6053 34.4573C30.5762 34.4962 30.5907 34.5205 30.6393 34.5448C30.6879 34.5692 30.7463 34.6032 30.6588 34.6128C30.5713 34.6225 30.3724 34.6469 30.3141 34.6226C30.5033 34.7437 30.9942 34.9382 31.4943 34.8409C31.5897 34.8226 31.6402 34.783 31.4847 34.7875C31.1638 34.7972 31.1448 34.7923 31.0865 34.7587C31.0281 34.7242 31.0379 34.6955 31.1302 34.6663C31.2221 34.6372 31.4555 34.6032 31.5527 34.6032C31.65 34.6032 31.7471 34.5642 31.5478 34.5642C31.3486 34.5642 31.1059 34.5642 31.0087 34.5302C30.9114 34.4962 30.8386 34.4525 30.9406 34.3844C31.0426 34.3163 31.1496 34.3358 31.1982 34.2726C30.8775 34.2677 30.4838 34.0976 30.7026 33.9425C30.7534 33.9062 30.7366 33.9036 30.6539 33.8938C30.5712 33.8841 30.3286 33.8161 30.2266 33.7577C30.1246 33.6994 30.1926 33.6508 30.2752 33.6362C30.0857 33.6702 29.7066 33.5682 29.4542 33.3787ZM32.303 33.3712C32.128 33.5024 31.798 33.5558 31.657 33.5558C31.516 33.5558 31.4966 33.6045 31.6084 33.6191C31.7202 33.6337 31.8417 33.6482 31.8902 33.6337C31.9387 33.6191 31.968 33.6142 32.0406 33.6482C32.1135 33.6822 32.2689 33.7017 32.4051 33.6579C32.5412 33.6142 32.7643 33.5947 32.8567 33.5996C32.9492 33.6044 33.0511 33.6093 32.8664 33.5558C32.6821 33.5024 32.3807 33.5412 32.3078 33.5607C32.2349 33.5802 32.0357 33.5656 32.1427 33.5316C32.2497 33.4976 32.3418 33.4441 32.3953 33.4003C32.3565 33.3906 32.3321 33.3809 32.303 33.3712ZM32.2132 33.7488C32.0626 33.8606 31.8443 33.9672 31.6207 33.9768C31.8249 34.0497 31.9949 34.2587 32.1257 34.2491C32.0626 34.2879 31.9852 34.3462 31.9026 34.356C32.029 34.39 32.2424 34.3512 32.4174 34.2539C32.7091 34.3366 33.0877 34.2831 33.2141 34.1762C33.0245 34.1762 32.7965 34.1081 32.6944 34.0206C32.7867 34.0206 32.8739 33.9622 32.9176 33.9092C32.6992 33.9477 32.3251 33.8412 32.2132 33.7488Z" fill="#00D860"/>
<path d="M31.9031 34.3583C31.9857 34.3485 32.0631 34.2902 32.1263 34.2514C31.9663 34.3048 31.2664 34.193 31.0578 34.0083C30.8488 33.824 30.8488 33.9645 30.9946 34.0958C31.1403 34.227 31.3977 34.4263 31.9031 34.3583ZM32.4153 34.8032C32.3278 34.8518 31.9103 34.881 31.7741 34.8518C31.6379 34.8226 31.5797 34.8372 31.6138 34.8907C31.6478 34.9442 31.6623 34.9928 31.5505 34.9782C31.4387 34.9636 31.2395 34.988 31.1572 35.017C31.0747 35.0462 30.9726 35.1191 31.1475 35.09C31.3221 35.0608 31.4825 35.0268 31.6138 35.0608C31.745 35.0948 32.2111 35.1045 32.3035 35.0657C32.3959 35.0269 32.3327 35.0268 32.2889 35.0268C32.2452 35.0268 32.2257 34.9976 32.2889 34.9685C32.3522 34.9393 32.4007 34.8567 32.4153 34.8032ZM28.3739 34.2386C28.1989 34.3164 27.6162 34.472 27.4606 34.4817C27.2663 34.5692 27.1111 34.6178 27.0139 34.6178C27.0819 34.6761 27.3439 34.734 27.4509 34.7053C27.3926 34.7632 27.2568 34.8313 27.2083 34.8605C27.3634 34.841 27.5481 34.8799 27.6258 34.8896C27.4217 35.0063 27.1403 35.0451 26.9944 35.0257C27.043 35.0937 27.1111 35.1618 27.1986 35.1618C27.0138 35.2104 26.7903 35.2104 26.6736 35.1715C26.7223 35.2687 26.7708 35.327 26.8389 35.3368C26.6834 35.3562 26.4889 35.3854 26.3241 35.2881C26.4501 35.4534 26.732 35.5114 27.1499 35.4631C27.5675 35.4145 27.9174 35.2298 28.0147 35.152C27.8397 35.1715 27.6064 35.1812 27.4898 35.1618C27.7231 35.1035 28.2281 34.8896 28.3156 34.8021C28.2184 34.8021 28.1216 34.773 28.0532 34.7243C28.1893 34.7438 28.6655 34.6858 28.8113 34.6275C28.6363 34.5886 28.5294 34.4816 28.4808 34.4136C29.0928 34.608 29.774 34.5445 30.1033 34.4622C30.1811 34.4428 30.1905 34.344 30.0353 34.3553C29.7632 34.3747 29.2387 34.297 29.1026 34.229C29.2289 34.3261 29.3844 34.3845 29.4913 34.404C29.2387 34.472 28.8891 34.5206 28.3739 34.2386Z" fill="#00D860"/>
<path d="M27.2074 34.863C27.256 34.8338 27.3917 34.7658 27.4501 34.7078C27.3432 34.7366 27.0811 34.6787 27.013 34.6203C27.1102 34.6203 27.2654 34.5718 27.4597 34.4843C27.1102 34.4745 26.8672 34.4745 26.7408 34.4065C26.6144 34.3385 26.3817 34.3578 26.2942 34.3773C26.2067 34.3968 26.2358 34.5426 26.6047 34.5037C26.4492 34.6106 26.0317 34.6495 25.8762 34.6106C25.915 34.7366 25.9442 34.863 25.9053 34.9311C26.1095 35.0478 26.6437 35.1936 26.9062 35.1741C26.6728 35.0866 26.5465 34.9893 26.7408 34.9699C26.9352 34.9505 27.0421 34.9116 27.2074 34.863Z" fill="#00D860"/>
<path d="M26.6055 35.4948C27.0706 35.456 27.6934 35.4477 28.1892 35.0282C28.3155 34.9213 28.4004 34.9572 28.2767 35.0671C28.0146 35.3005 27.3634 35.6208 26.7417 35.6306C26.4885 35.6347 26.3726 35.5139 26.6055 35.4948Z" fill="black"/>
<path d="M30.0899 34.7246C29.9732 34.7684 29.6476 34.8218 29.5507 34.8072C29.4535 34.7926 29.3126 34.7878 29.2349 34.8364C29.1571 34.8849 29.1522 34.9142 29.2591 34.9239C29.366 34.9335 29.5021 34.9434 29.5702 34.9384C29.4827 34.9871 29.4244 35.0551 29.4049 35.0843C29.5604 35.0454 29.8469 35.1134 29.9294 35.162C29.8663 35.1815 29.7934 35.1572 29.7399 35.128C30.0024 35.4051 30.7796 35.4051 30.9059 35.3564C30.8476 35.4002 30.7942 35.4439 30.7359 35.4585C30.9545 35.4974 31.2069 35.4926 31.4548 35.3468C31.3721 35.3614 31.1247 35.337 31.0614 35.3322C31.1147 35.2804 31.1795 35.242 31.2506 35.2204C31.1539 35.2009 30.8476 35.2107 30.7748 35.2495C30.8039 35.1912 30.8574 35.1183 30.9156 35.094C30.5317 35.094 30.0656 35.0891 29.8954 34.9968C30.1676 35.0259 30.4689 34.8655 30.5949 34.8655C30.3814 34.8607 30.1482 34.8121 30.0899 34.7246ZM29.1141 34.9377C28.9245 34.9766 28.6382 35.0544 28.5604 35.0981C28.4827 35.1419 28.4 35.1662 28.5701 35.1662C28.7402 35.1662 29.2016 35.1856 29.3036 35.2002C29.0461 35.1613 28.6965 35.1516 28.6284 35.1516C28.5604 35.1516 28.4826 35.1467 28.609 35.1079C28.7354 35.069 28.9008 34.9814 29.1141 34.9377ZM28.729 35.3901C28.7967 35.3901 29.0932 35.3901 29.2099 35.288C29.3313 35.3804 29.5646 35.5113 29.7149 35.5113C29.8655 35.5113 29.8509 35.5502 29.7197 35.5647C29.5889 35.5793 29.3314 35.5019 29.2001 35.4047C29.0251 35.4679 28.8797 35.4144 28.729 35.3901ZM26.4784 36.6988C26.7794 36.8154 27.1779 36.9029 27.4692 36.8057C27.6344 36.9515 27.9746 36.9612 28.1589 36.9224C28.3436 36.8834 28.5089 36.864 28.7129 36.932C28.9167 37.0001 29.3346 37.0049 29.4513 37.1018C29.3444 37.107 29.1159 37.1018 29.0625 37.1168C29.009 37.1309 29.0382 37.165 29.1354 37.2184C28.8053 37.199 28.2367 37.3399 28.0621 37.4906C28.1249 37.3399 28.3193 37.1359 28.6254 37.1359C28.4504 37.073 27.8919 37.0682 27.7121 37.1796C27.6587 37.1213 27.5954 37.0244 27.5907 36.9855C27.2945 37.1553 26.7114 36.9126 26.4784 36.6988ZM25.7083 36.1529C26.0669 36.1016 26.3109 35.9876 26.4179 35.8807C26.481 35.939 26.7431 35.9974 27.0299 35.9099C26.9715 35.9536 26.9667 36.0362 26.991 36.0799C26.8014 36.0848 26.4419 36.1772 26.3207 36.2404C26.1992 36.3032 25.8444 36.3469 25.7282 36.2837C25.6115 36.2209 25.6066 36.1674 25.7084 36.1529H25.7083Z" fill="#00D860"/>
<path d="M26.9906 36.0819C26.8011 36.0868 26.4415 36.1791 26.3203 36.2423C26.3446 36.2909 26.3592 36.3683 26.3641 36.4218C26.7136 36.2954 27.5151 36.218 27.8214 36.2666C27.6756 36.2763 27.3986 36.4266 27.2434 36.4461C27.6221 36.4169 27.9915 36.4947 28.0883 36.519C28.1855 36.5433 28.205 36.6162 28.1321 36.6843C28.0591 36.7523 28.0255 36.762 28.1806 36.7668C28.3361 36.7718 28.6569 36.7523 28.8027 36.6113C28.7444 36.5482 28.5937 36.5724 28.55 36.5287C28.6521 36.4947 28.7687 36.4218 28.8125 36.3683C28.55 36.3634 28.4528 36.3586 28.3653 36.3391C28.2778 36.3201 28.2146 36.2954 28.3216 36.2374C28.4285 36.1791 28.4771 36.1305 28.5111 36.0916C28.3216 36.1451 28.0255 36.1888 27.7776 35.9944C27.87 36.0187 28.0883 36.0041 28.166 35.9701C28.0835 35.9263 28.0157 35.8923 27.9476 35.8923C28.1466 35.7951 28.5402 35.7076 29.026 35.902C29.2689 35.8826 29.5313 35.8923 29.7156 35.9409C29.7934 35.8632 29.9586 35.6784 30.0461 35.6298C29.4731 35.6784 28.4431 35.5715 28.4625 35.2705C28.2778 35.5132 27.8505 35.6493 27.6658 35.6104C27.6464 35.6979 27.7241 35.8048 27.7922 35.8632C27.5978 35.902 27.2673 35.9312 27.1122 35.902C27.1996 35.9895 27.3645 36.0673 27.4617 36.0576C27.258 36.0576 27.1511 36.0965 26.9906 36.0819Z" fill="#00D860"/>
<path d="M28.1793 36.7661C28.3349 36.771 28.6557 36.7515 28.8014 36.6106C28.7431 36.5474 28.5925 36.5717 28.5487 36.5279C28.6507 36.4939 28.7674 36.421 28.8112 36.3675C29.219 36.3339 29.5835 36.3533 29.7582 36.2998C29.9332 36.2464 30.3802 36.2756 30.4677 36.2512C30.0789 36.3141 30.0012 36.3481 29.9817 36.4112C29.9622 36.4744 30.1081 36.5279 30.2004 36.5279C30.0254 36.5182 29.8067 36.7029 29.7872 36.7758C29.5544 36.6397 29.4426 36.8002 29.4183 36.8536C29.3211 36.8147 29.0003 36.8244 28.8351 36.9654C28.6216 36.9022 28.4807 36.8682 28.2668 36.9022C28.3981 36.873 28.3737 36.7855 28.1793 36.7661ZM30.0448 35.6295C30.1761 35.6246 30.4625 35.6392 30.5645 35.6246C30.4965 35.6587 30.4093 35.7218 30.3899 35.751C30.7201 35.7121 31.1716 35.6878 31.3029 35.7072C31.1429 35.6829 30.9777 35.785 30.895 35.8385C30.8123 35.892 30.861 35.926 30.9727 35.9406C31.0845 35.9552 31.2352 36.0426 31.0311 36.0135C30.8269 35.9844 30.4239 35.9843 30.3267 35.9989C30.2296 36.0135 30.1761 35.9648 30.317 35.9454C30.4579 35.926 30.5548 35.8773 30.6228 35.8385C30.5062 35.8677 30.283 35.8677 30.215 35.8482C30.147 35.8287 30.1032 35.7898 30.1809 35.7704C30.2587 35.751 30.2052 35.7218 30.1226 35.7316C30.0399 35.7413 29.831 35.8287 29.7144 35.9406C29.8407 35.8093 29.9525 35.6927 30.0448 35.6295Z" fill="#00D860"/>
<path d="M28.5644 35.85C28.7249 36.0299 28.914 36.132 29.2153 36.1416C29.2785 36.1435 29.3963 36.2284 29.2444 36.234C28.8363 36.2486 28.6325 36.1514 28.4527 35.8889C28.4157 35.835 28.4841 35.7599 28.5644 35.85ZM30.9982 32.4514C31.2128 32.5527 31.6442 32.6409 31.9796 32.6264C32.0379 32.6237 32.1553 32.6861 32.0084 32.6992C31.6296 32.7333 31.2894 32.6802 30.9739 32.5048C30.8864 32.4562 30.9156 32.4125 30.9982 32.4514Z" fill="black"/>
<path d="M31.2152 32.4477C31.5453 32.4379 31.7932 32.4428 31.8952 32.54C32.0843 32.4817 32.4246 32.4477 32.5023 32.4623C32.5801 32.4768 32.6676 32.4428 32.4877 32.3991C32.3079 32.3558 31.8903 32.3411 31.7592 32.3654C31.6279 32.3893 31.2197 32.4039 31.084 32.3893C31.1423 32.3991 31.1808 32.4088 31.2152 32.4477ZM32.4975 32.5785C32.653 32.4959 33.0997 32.5737 33.2358 32.5153C33.1387 32.632 33.5469 32.6417 33.9013 32.5493C33.7652 32.6368 33.474 32.6514 33.3477 32.7049C33.2213 32.7584 33.1532 32.7195 33.056 32.6758C32.9587 32.632 32.7113 32.5445 32.4975 32.5785Z" fill="#00D860"/>
<path d="M33.9031 32.5486C33.5487 32.6409 33.1404 32.6312 33.2377 32.5146C33.1016 32.5729 32.6548 32.4951 32.4993 32.5777C32.6597 32.4806 32.7812 32.5583 32.8974 32.3591C32.9703 32.374 33.1404 32.3837 33.1987 32.3059C33.3008 32.3302 33.4807 32.374 33.5341 32.4271C33.5876 32.4806 33.6698 32.4125 33.6017 32.3302C33.7622 32.2719 33.6604 32.3994 34.0342 32.3059C34.1121 32.2865 34.3016 32.2525 34.3647 32.2476C34.2384 32.3496 34.0877 32.4611 33.9031 32.5486Z" fill="#00D860"/>
<path d="M27.0057 30.9184C26.9992 30.1833 26.9282 24.0305 26.9282 22.6083C26.9282 22.268 26.7532 22.3361 26.7532 22.6083V30.8795C26.8337 30.8941 26.9421 30.9087 27.0057 30.9184ZM29.7086 22.1619L30.0122 30.9337L29.9591 31.004L29.783 31.0066L29.5912 22.1619H29.7086ZM32.2657 29.5686C32.241 28.6754 32.1288 24.5405 32.0855 22.5021C32.0799 22.2303 31.918 22.2778 31.9207 22.5118C31.9382 24.1535 32.0357 28.7454 32.0537 29.5735C32.1172 29.5735 32.2268 29.5671 32.2657 29.5686Z" fill="#FFFF00" stroke="black" stroke-width="0.3095"/>
<path d="M28.2168 23.6201L25.6324 23.5812C25.487 24.1057 26.1378 24.096 26.3808 23.9599C26.6623 24.1738 26.8762 24.1543 27.0317 23.9794C27.2552 24.1641 27.5368 24.1155 27.6534 23.9988C27.9645 24.2322 28.2849 23.9988 28.2168 23.6201ZM28.4112 24.9212L25.7685 24.9115C25.312 25.3486 25.9046 25.5624 26.41 25.2611C26.4781 25.4069 26.7887 25.4944 27.0317 25.3777C27.2552 25.5527 27.5368 25.4263 27.6826 25.2805C27.9547 25.4069 28.2752 25.4458 28.4112 24.9212ZM28.3365 26.5738L25.7909 26.5544C25.7423 27.0109 26.2575 26.9526 26.4612 26.8362C26.6557 27.1372 27.0833 27.0692 27.2486 26.8942C27.4912 27.0595 27.7147 27.0206 27.8411 26.8651C28.123 27.1081 28.3559 26.7974 28.3365 26.5738ZM28.4636 28.2264L25.6171 28.1778C25.4616 28.6635 25.8986 28.751 26.1027 28.6343C26.1707 28.9162 26.5495 28.819 26.6467 28.6149C26.7925 28.7607 26.9772 28.6829 27.0647 28.5857C27.1035 28.8482 27.4336 28.8579 27.6863 28.6343C28.2012 28.994 28.6872 28.576 28.4636 28.2264ZM30.9871 27.5459L28.6165 27.5265C28.7234 28.0122 28.9563 28.1386 29.3354 27.8567C29.6172 28.1482 30.0835 28.0413 30.2001 27.8955C30.7149 28.3135 30.9967 27.8275 30.9871 27.5459ZM30.7441 25.9232L28.4512 25.8552C28.4901 26.4381 29.0438 26.4187 29.3257 26.1659C29.5395 26.4381 29.9182 26.3603 30.0543 26.1659C30.3459 26.4576 30.8218 26.2826 30.7441 25.9232ZM31.0469 24.0949H28.5791C28.6082 24.5028 29.1522 24.7362 29.5702 24.3477C29.6864 24.8139 30.1336 24.6681 30.328 24.4834C30.6095 24.8431 31.2603 24.4352 31.0469 24.0949ZM30.9011 22.8536L28.6957 22.8827C28.6568 23.2421 29.1813 23.3976 29.3757 23.106C29.4827 23.2907 29.8517 23.2712 29.9586 23.0962C30.1336 23.3684 30.3474 23.1837 30.4151 23.0962C30.6678 23.2809 30.94 23.1935 30.9011 22.8536ZM33.4844 23.6575L30.7833 23.6283C30.7736 23.9098 31.0652 24.0265 31.2397 23.9098C31.2397 24.182 31.6188 24.2695 31.8619 24.0557C32.0271 24.289 32.5127 24.357 32.7072 24.0362C33.1053 24.3667 33.533 24.1334 33.4844 23.6575ZM33.447 25.8747L30.8042 25.8649C30.8237 26.2339 31.251 26.3603 31.494 26.1659C31.5523 26.477 31.8828 26.4964 32.0768 26.3409C32.3101 26.6033 32.6989 26.6228 32.9124 26.3312C33.2332 26.4478 33.4762 26.1757 33.447 25.8747ZM33.3087 27.8675L31.2196 27.8383C31.2196 28.2077 31.657 28.2563 31.8514 28.0619C32.0552 28.3049 32.3662 28.3049 32.5412 28.1105C32.8227 28.3536 33.2503 28.2855 33.3087 27.8675Z" fill="white" stroke="black" stroke-width="0.3095"/>
<path d="M29.9591 31.0044C28.8322 31.0239 27.6856 31.0239 26.9084 30.9073C26.1311 30.7906 25.8863 30.6814 25.354 30.3633C24.5572 29.8873 24.3629 29.7706 23.2361 29.1099C23.0634 29.0086 22.8761 29.1343 23.1195 29.2943C24.256 30.0424 24.6866 30.3199 25.2276 30.6743C25.791 31.0434 26.1544 31.3713 26.5001 31.7624C26.9473 32.2679 27.2774 32.2775 27.4816 32.1998C27.6856 32.122 28.0064 32.0151 28.3268 32.0929C28.6476 32.1706 29.0749 32.1803 29.2985 32.1414C29.5026 32.3262 29.9687 32.2873 30.2312 32.2289C30.4932 32.1706 30.6876 32.1414 30.8723 32.1804C31.0571 32.2193 31.3386 32.1901 31.5232 32.1609C31.7079 32.1318 32.1936 32.0831 32.5337 32.1318C32.8736 32.1804 33.2235 32.1512 33.4471 32.0831C33.6702 32.0151 34.0785 32.0345 34.2146 32.0734C34.4086 31.9276 34.5058 31.7429 34.5544 31.5489C34.7828 31.5197 34.8587 31.4913 34.9091 31.3593C35.0016 31.1163 35.0886 30.8781 35.1181 30.7715H35.2101L35.2393 30.5528L35.0501 30.3341L35.1181 29.9164L35.3219 29.8679C35.3316 29.7414 35.2733 29.547 35.2344 29.4693C34.0105 29.5179 32.8104 29.5568 31.9509 29.5762C31.8537 29.6539 31.7468 29.8581 31.7273 29.9845C31.2028 30.0716 30.8918 30.1104 30.7557 30.1396C30.6196 30.1688 30.5437 30.1797 30.4353 30.3244C30.2604 30.5577 30.0951 30.8294 29.9591 31.0044Z" fill="black" stroke="black" stroke-width="0.3095"/>
<path d="M33.8919 29.5201C33.9514 29.3141 34.1102 28.7593 34.3981 27.7104C34.4463 27.5355 34.2766 27.4664 34.2138 27.691C34.0429 28.3034 33.8712 28.9157 33.6986 29.5276C33.7644 29.5264 33.8586 29.5194 33.8919 29.5201Z" fill="black" stroke="black" stroke-width="0.3095"/>
<path d="M35.7874 27.4673C35.3742 27.6808 35.175 27.7635 34.9858 27.6906C34.8116 27.6237 34.5555 27.5859 34.4056 27.6595C34.4052 27.6767 34.4026 27.6936 34.3977 27.71C34.269 28.1802 34.1384 28.6498 34.006 29.1188C34.3117 29.2269 34.8386 29.2415 34.9616 29.1095C35.0875 28.9734 35.4326 29.0026 35.6076 29.0123C35.7193 28.8664 35.7631 28.6866 35.7339 28.5992C35.7047 28.5117 35.7145 28.3565 35.7582 28.2349C35.802 28.1134 35.8602 27.7198 35.7874 27.4673Z" fill="white" stroke="black" stroke-width="0.3095"/>
<path d="M26.3813 23.9603C25.9245 25.2816 24.3408 28.2455 23.3853 29.2L26.3813 23.9603ZM24.1195 29.6322C25.2041 28.7932 27.9463 26.0698 28.4124 24.9234L24.1195 29.6322ZM25.7906 26.555C25.6647 27.556 25.3757 29.3413 25.2202 30.2839L25.7906 26.555ZM26.2131 28.7835C25.8441 29.1431 25.3207 29.7709 24.9319 30.1111L26.2131 28.7835ZM29.6899 26.7869C29.3793 27.0879 29.0244 27.439 28.7138 27.5265L29.6899 26.7869ZM29.8693 26.8355C30.1426 27.1268 30.5311 27.4558 30.8518 27.5433L29.8693 26.8355ZM29.6563 25.224C29.3748 25.4667 28.9568 25.7523 28.5781 25.8593L29.6563 25.224ZM29.817 25.2801C30.06 25.4842 30.3187 25.7819 30.6293 25.918L29.817 25.2801ZM28.6357 24.0949C28.9366 24.0074 29.3848 23.774 29.6181 23.5314L28.6357 24.0949ZM29.7534 23.4854C30.017 23.7864 30.5221 24.0295 30.7748 24.0975L29.7534 23.4854ZM28.6954 22.8835C29.0061 22.8154 29.3912 22.6501 29.5953 22.3585L28.6954 22.8835ZM29.7123 22.2777C29.9744 22.5014 30.435 22.8244 30.7359 22.8535L29.7123 22.2777ZM31.9293 23.1489C31.7607 23.3239 31.3475 23.6383 31.0855 23.6335L31.9293 23.1489ZM32.1013 23.134C32.2228 23.3284 32.5289 23.626 32.7038 23.6503L32.1013 23.134ZM30.9087 25.8634C31.2485 25.7467 31.7248 25.4685 31.9629 25.1818L30.9087 25.8634ZM32.1498 25.2053C32.2493 25.3848 32.6283 25.7905 32.8422 25.873L32.1498 25.2053ZM31.3124 27.8375C31.4679 27.8039 31.8908 27.5937 32.007 27.3459L31.3124 27.8375ZM32.2022 27.2094C32.3625 27.4086 32.7558 27.7728 32.9988 27.8603L32.2022 27.2094ZM25.9663 28.1815C26.4423 28.0308 27.4042 27.4468 27.8804 26.8927L25.9663 28.1815ZM26.9683 27.5945C27.3664 27.876 27.8293 28.158 28.1837 28.2211L26.9683 27.5945ZM25.8766 26.555C26.1391 26.4433 26.4838 26.2526 26.7511 25.9759L25.8766 26.555ZM26.9533 25.9381C27.0603 26.0885 27.8461 26.5685 28.181 26.5734L26.9533 25.9381ZM26.7514 24.3865C26.5473 24.5514 26.0568 24.8479 25.8187 24.911L26.7514 24.3865ZM26.9383 24.3977C27.2105 24.5869 27.7485 24.9211 28.1175 24.9211L26.9383 24.3977ZM26.7514 22.8685C26.5328 23.116 26.1638 23.4985 25.8576 23.586L26.7514 22.8685ZM26.9272 22.9245C27.0973 23.1968 27.5526 23.5647 27.8491 23.6133L26.9272 22.9245ZM30.86 24.5585C31.5412 25.8144 32.8044 27.3496 34.0818 28.156L30.86 24.5585ZM28.8151 23.1676C29.8495 24.6542 31.8803 27.9142 33.8123 29.1177L28.8151 23.1676ZM34.1686 27.845C33.6804 28.5231 33.073 29.1068 32.376 29.5675L34.1686 27.845ZM34.0528 28.2563C33.4018 27.2169 33.0653 25.9026 32.5786 24.1719L34.0528 28.2563Z" fill="black"/>
<path d="M26.3813 23.9603C25.9245 25.2816 24.3408 28.2455 23.3853 29.2M24.1195 29.6322C25.2041 28.7932 27.9463 26.0698 28.4124 24.9234M25.7906 26.555C25.6647 27.556 25.3757 29.3413 25.2202 30.2839M26.2131 28.7835C25.8441 29.1431 25.3207 29.7709 24.9319 30.1111M29.6899 26.7869C29.3793 27.0879 29.0244 27.439 28.7138 27.5265M29.8693 26.8355C30.1426 27.1268 30.5311 27.4558 30.8518 27.5433M29.6563 25.224C29.3748 25.4667 28.9568 25.7523 28.5781 25.8593M29.817 25.2801C30.06 25.4842 30.3187 25.7819 30.6293 25.918M28.6357 24.0949C28.9366 24.0074 29.3848 23.774 29.6181 23.5314M29.7534 23.4854C30.017 23.7864 30.5221 24.0295 30.7748 24.0975M28.6954 22.8835C29.0061 22.8154 29.3912 22.6501 29.5953 22.3585M29.7123 22.2777C29.9744 22.5014 30.435 22.8244 30.7359 22.8535M31.9293 23.1489C31.7607 23.3239 31.3475 23.6383 31.0855 23.6335M32.1013 23.134C32.2228 23.3284 32.5289 23.626 32.7038 23.6503M30.9087 25.8634C31.2485 25.7467 31.7248 25.4685 31.9629 25.1818M32.1498 25.2053C32.2493 25.3848 32.6283 25.7905 32.8422 25.873M31.3124 27.8375C31.4679 27.8039 31.8908 27.5937 32.007 27.3459M32.2022 27.2094C32.3625 27.4086 32.7558 27.7728 32.9988 27.8603M25.9663 28.1815C26.4423 28.0308 27.4042 27.4468 27.8804 26.8927M26.9683 27.5945C27.3664 27.876 27.8293 28.158 28.1837 28.2211M25.8766 26.555C26.1391 26.4433 26.4838 26.2526 26.7511 25.9759M26.9533 25.9381C27.0603 26.0885 27.8461 26.5685 28.181 26.5734M26.7514 24.3865C26.5473 24.5514 26.0568 24.8479 25.8187 24.911M26.9383 24.3977C27.2105 24.5869 27.7485 24.9211 28.1175 24.9211M26.7514 22.8685C26.5328 23.116 26.1638 23.4985 25.8576 23.586M26.9272 22.9245C27.0973 23.1968 27.5526 23.5647 27.8491 23.6133M30.86 24.5585C31.5412 25.8144 32.8044 27.3496 34.0818 28.156M28.8151 23.1676C29.8495 24.6542 31.8803 27.9142 33.8123 29.1177M34.1686 27.845C33.6804 28.5231 33.073 29.1068 32.376 29.5675M34.0528 28.2563C33.4018 27.2169 33.0653 25.9026 32.5786 24.1719M27.301 28.7947L28.1025 31.0003M27.1514 28.7423L27.8603 30.992M26.9982 28.6376L27.6562 30.979M26.9308 28.675L27.4389 30.9662M27.4206 30.8847H28.0558M27.9739 30.6455H27.375M27.9066 30.4585H27.3287M27.8393 30.2715H27.2879M27.7646 30.0696H27.2397M27.2038 29.8902H27.7018M27.1664 29.7256H27.6389M27.1253 29.5462H27.5747M27.0916 29.3855H27.5156M27.0543 29.221H27.4573M27.0206 29.0676H27.4019M26.9832 28.9255H27.3537M26.9608 28.8059H27.3058M26.3364 28.8096L25.8848 30.6536M26.4673 28.776L26.0796 30.724M26.572 28.705L26.2583 30.7796M26.7066 28.6638L26.4789 30.8335M26.7514 30.709H26.0325M26.7514 30.5108H25.9196M26.7514 30.3052H25.9682M26.7514 30.1108H26.0168M26.7514 29.9126H26.0643M26.7514 29.692H26.1188M26.7514 29.5014H26.1648M26.7514 29.3069H26.2146M26.7514 29.12H26.2594M26.7514 28.9555H26.2983M26.7514 28.8246H26.3323M26.7514 30.881V28.6825M29.1703 27.9571L27.664 30.9782M29.2637 27.9085L27.9814 30.9946M29.3572 27.8749L28.3399 31.0092M29.4208 27.931L28.6297 31.0111M28.6655 30.8698H27.7182M28.7403 30.5931H27.8584M28.7814 30.3687H27.9702M28.8599 30.1257H28.0924M28.8973 29.9313H28.1882M28.9646 29.707H28.2965M29.0319 29.4452H28.427M29.0843 29.247H28.528M29.1403 29.019H28.6363M29.1814 28.8657H28.7153M29.2188 28.7199H28.7915M29.2563 28.5703H28.8626M29.2898 28.4395H28.928M29.3235 28.3086H28.9919M29.3609 28.174H29.0618M29.3908 28.0506H29.1213M30.3703 28.0058L31.0294 30.092M30.4974 28.0506L31.2971 30.0528M30.6096 28.0544L31.5461 30.0125M31.7723 29.8453L30.7393 28.0177M31.7723 29.8415H30.9528M31.6302 29.5948H30.8753M31.4918 29.348H30.7998M31.3498 29.0975H30.7188M31.2114 28.8507H30.6398M31.0694 28.604H30.5609M30.9311 28.3572H30.4847M30.789 28.1067H30.4032M31.6339 28.1665L30.989 30.1007M31.8283 28.0805L31.2302 30.0633M31.5068 30.0173L31.9457 28.1509M32.0601 28.2151L31.6908 29.9911M31.0657 29.879H31.7128M31.1479 29.636H31.7648M31.2264 29.3966H31.8141M31.3049 29.1574H31.8623M31.3872 28.9143H31.9143M31.4694 28.675H31.9663M31.5479 28.4357H32.0145M31.6264 28.1927H32.0103M32.3554 28.2339L32.6717 29.56M32.4713 28.1703L32.9083 29.5525M32.6208 28.1665L33.0975 29.5507M32.8153 28.2413L33.2927 29.5414M33.2489 29.4265H32.6366M33.1779 29.2321H32.5962M33.1068 29.0377H32.5495M33.0358 28.8433H32.5013M32.9611 28.6489H32.4534M32.89 28.4545H32.41M32.819 28.26H32.3637" stroke="black" stroke-width="0.3095"/>
<path d="M26.6354 31.6924C26.9367 31.4983 27.4515 31.5372 27.714 31.7312C28.025 31.5566 28.5884 31.6049 28.8509 31.8382C29.249 31.5664 29.5892 31.5275 29.9775 31.7896C30.279 31.5761 30.7451 31.5566 31.1048 31.8091C31.4543 31.6437 31.8431 31.5081 32.183 31.8674C31.9792 31.7216 31.5418 31.5951 31.1048 31.9354C30.7645 31.5951 30.172 31.7216 29.9776 31.9548C29.7249 31.6535 29.1906 31.6048 28.8699 31.9743C28.5204 31.6826 27.9959 31.6729 27.714 31.8965C27.4904 31.7215 27.1603 31.5761 26.6354 31.6924Z" fill="#00B800"/>
<path d="M31.9441 31.2774C30.3994 31.5443 27.0329 31.3552 26.2945 31.1704C26.0407 31.1069 26.1099 31.0149 26.3237 31.0635C27.1745 31.2568 28.9905 31.2579 29.9913 31.2093C30.1856 30.9517 30.4914 30.5147 30.5837 30.3931C30.676 30.2715 30.7169 30.2604 30.9095 30.2278C31.2541 30.1695 31.451 30.1382 31.7498 30.0869C31.7546 30.1257 31.7547 30.1744 31.7547 30.2036C31.7304 30.223 31.706 30.257 31.6865 30.2667C31.6865 30.466 31.7255 30.9517 31.7643 31.1267C31.8032 31.1218 31.8518 31.1072 31.8761 31.1024C31.9441 31.0829 32.0118 31.2579 31.9441 31.2774Z" fill="#CF6200"/>
<path d="M34.475 31.3522C34.5307 31.3507 34.647 31.348 34.6792 31.3473C34.7424 31.3458 34.8309 31.3024 34.8698 31.2053C34.9087 31.1081 35.029 30.7487 35.0728 30.598L34.9173 30.3636C34.9513 30.1703 34.995 29.9082 35 29.8548C35.0777 29.8256 35.16 29.7964 35.1988 29.7818C35.2085 29.7381 35.1895 29.6192 35.1502 29.5803C34.4848 29.6057 32.4933 29.6749 32.1288 29.6798C32.0413 29.6798 32.0021 29.676 31.9688 29.8013C31.7841 30.4911 32.0394 31.4591 32.7363 32.0166C32.7849 32.0554 32.8462 32.0229 32.765 31.9485C32.6488 31.8416 32.469 31.6228 32.3475 31.4068C32.4836 31.4045 32.7595 31.4001 32.8421 31.3967C32.8817 31.56 33.0058 31.9048 33.0301 31.9631C33.0545 32.0214 33.1143 32.0297 33.0858 31.9425C33.0189 31.7383 32.9837 31.5058 32.9546 31.394C33.081 31.391 33.3191 31.3933 33.4649 31.3851C33.472 31.5698 33.4915 31.8173 33.4963 31.8853C33.5011 31.9534 33.5595 31.9583 33.5606 31.8805C33.5621 31.8027 33.5636 31.4741 33.5625 31.3772C33.727 31.3728 33.9371 31.3656 34.0148 31.3656C34.004 31.4707 33.9838 31.8106 33.9763 31.8644C33.9651 31.9436 34.0066 31.9811 34.026 31.8693C34.0455 31.7574 34.0844 31.4961 34.0952 31.3638C34.1611 31.3618 34.3341 31.3548 34.407 31.3529C34.3999 31.4565 34.3027 31.7713 34.2735 31.8539C34.2444 31.9366 34.2915 31.9392 34.3244 31.861C34.3588 31.781 34.4653 31.4651 34.475 31.3522Z" fill="#CF6200"/>
<path d="M32.2693 31.2736C32.2159 31.1666 32.0506 30.7863 32.0359 30.5097C32.1769 30.5071 32.5295 30.5003 32.6996 30.4966C32.7246 30.7052 32.7889 31.1547 32.8229 31.2612C32.6241 31.2661 32.3811 31.2724 32.2693 31.2736ZM32.8151 30.4921C32.8335 30.6514 32.9168 31.1984 32.9303 31.2616C33.0746 31.253 33.4088 31.2518 33.4668 31.247C33.4608 31.1012 33.4372 30.5542 33.4346 30.4764C33.2835 30.4806 32.891 30.4902 32.8151 30.4921ZM32.0637 29.8154C32.0368 29.9552 32.0319 30.2539 32.0394 30.3814C32.2095 30.3847 32.6282 30.3747 32.6861 30.3698C32.6719 30.2248 32.6491 29.9623 32.6345 29.7986C32.4959 29.8045 32.156 29.8127 32.0637 29.8154ZM32.759 29.7967C32.7639 29.9327 32.7942 30.2655 32.804 30.3672C32.9509 30.3631 33.3105 30.3556 33.432 30.3515C33.4256 30.227 33.4058 29.8258 33.4036 29.7772C33.2084 29.7825 32.8828 29.7947 32.759 29.7967ZM33.5292 29.7742C33.5352 29.9006 33.5513 30.2573 33.5464 30.3497C33.7022 30.3455 34.0002 30.3426 34.0926 30.3351C34.0997 30.2083 34.1203 29.846 34.1105 29.7537C33.9355 29.7604 33.6567 29.7697 33.5292 29.7742ZM34.217 29.7481C34.217 29.855 34.2036 30.2307 34.1987 30.3328C34.3531 30.3268 34.7038 30.3145 34.795 30.3122C34.8194 30.187 34.8679 29.8617 34.8825 29.7245C34.7367 29.7294 34.3236 29.7451 34.217 29.7481ZM34.819 30.4397C34.6197 30.4462 34.2993 30.4547 34.1909 30.4589C34.1741 30.7048 34.1434 31.13 34.1289 31.2272C34.3042 31.2234 34.6586 31.2122 34.7364 31.21C34.7947 31.0933 34.921 30.7292 34.9502 30.6173C34.9065 30.5493 34.8724 30.5104 34.8189 30.4398L34.819 30.4397ZM33.5516 30.4734C33.5516 30.5609 33.5669 31.1872 33.5707 31.2407C33.6847 31.2369 33.9808 31.2328 34.0245 31.2279C34.0466 30.9842 34.0799 30.5172 34.0859 30.4588C33.8839 30.4644 33.6859 30.4705 33.5516 30.4734ZM30.972 30.3238L30.719 30.3687C30.6023 30.5572 30.1701 31.1401 30.1167 31.2081C30.4176 31.1995 30.8884 31.1906 31.0016 31.1797C30.9933 31.0234 30.9724 30.4012 30.972 30.3239V30.3238ZM31.0842 30.3014C31.0902 30.5007 31.1092 31.0317 31.1141 31.1726C31.2633 31.164 31.538 31.1461 31.6499 31.1363C31.624 30.8858 31.5769 30.2876 31.5672 30.2147C31.4419 30.2375 31.196 30.2808 31.0842 30.3014Z" fill="black"/>
<path d="M28.4747 28.204C28.5088 28.2043 28.5133 28.2335 28.4744 28.2332L25.604 28.1976C25.5651 28.1972 25.5703 28.1681 25.6043 28.1684L28.4747 28.204ZM30.7328 25.9046C30.7668 25.9057 30.771 25.9348 30.7321 25.9337L28.458 25.8712C28.4191 25.8702 28.4248 25.841 28.4588 25.8421L30.7328 25.9046ZM28.3328 26.5626C28.3668 26.5629 28.3713 26.5921 28.3324 26.5917L25.7872 26.5731C25.7483 26.5731 25.7535 26.5439 25.7872 26.5439L28.3328 26.5626ZM28.4075 24.91C28.4415 24.91 28.4463 24.9392 28.4075 24.9392L25.7453 24.9253C25.7064 24.9253 25.7117 24.8962 25.7457 24.8965L28.4075 24.91ZM28.2243 23.6051C28.2583 23.6055 28.2624 23.635 28.2239 23.6342L25.6372 23.5954C25.5984 23.5947 25.6037 23.5655 25.6378 23.5662L28.2243 23.6051Z" fill="black" stroke="black" stroke-width="0.3095"/>
<path d="M30.9011 22.8423C30.9351 22.8419 30.9403 22.871 30.9014 22.8715L28.6815 22.8927C28.6427 22.8931 28.6472 22.864 28.6812 22.8635L30.9011 22.8423Z" fill="white" stroke="black" stroke-width="0.3095"/>
<path d="M31.0395 24.0836C31.0735 24.0836 31.0783 24.1128 31.0395 24.1128H28.5862C28.5474 24.1128 28.5522 24.0836 28.5862 24.0836H31.0395ZM33.4471 25.8522C33.4811 25.8522 33.4859 25.8814 33.4471 25.8814H30.8032C30.7643 25.8814 30.7692 25.8522 30.8032 25.8522H33.4471ZM33.4844 23.6425C33.5185 23.6429 33.523 23.6721 33.4841 23.6716L30.783 23.6451C30.7442 23.6447 30.7493 23.6156 30.7834 23.616L33.4844 23.6425ZM30.9872 27.5272C31.0212 27.5276 31.0257 27.5567 30.9867 27.5564L28.6106 27.5407C28.5717 27.5403 28.5769 27.5111 28.6109 27.5116L30.9872 27.5272ZM33.3087 27.8488C33.3427 27.8491 33.3472 27.8783 33.3083 27.8779L31.2197 27.8503C31.1807 27.8499 31.1864 27.8207 31.2204 27.8211L33.3087 27.8488Z" fill="black" stroke="black" stroke-width="0.3095"/>
<path d="M35.1929 28.2489C35.2516 28.1184 35.2598 27.8185 35.2262 27.7049C35.1459 27.7241 35.0616 27.7189 34.9843 27.6899C34.9426 27.6741 34.9001 27.6609 34.8568 27.6503C34.8486 27.8005 34.7941 28.1834 34.7267 28.3315C34.6093 28.3648 34.3727 28.3259 34.2381 28.2836L34.1401 28.6359C34.3193 28.6733 34.5043 28.6721 34.683 28.6324C34.6699 28.8572 34.6404 29.0617 34.5189 29.203C34.7174 29.2075 34.895 29.1784 34.96 29.1088C34.9661 29.1023 34.9727 29.0963 34.9798 29.0909C35.0714 28.9376 35.0741 28.7379 35.0961 28.6033C35.1637 28.6082 35.2512 28.5887 35.2901 28.5499C35.329 28.5109 35.3922 28.4915 35.4554 28.4964C35.513 28.5009 35.6026 28.4889 35.7167 28.4429C35.7196 28.3718 35.7331 28.3014 35.7567 28.2343C35.7694 28.1988 35.7832 28.1397 35.7948 28.0683C35.6501 28.1374 35.3275 28.2529 35.1929 28.2489Z" fill="#EF072D" stroke="black" stroke-width="0.3095"/>
<path d="M25.9215 15.5926C25.6257 15.6013 24.982 15.6072 24.8467 15.6831C24.7117 15.7594 24.6522 15.793 24.8889 15.8353C25.1256 15.8775 25.5259 15.9901 25.7454 16.1254C25.9648 16.2604 26.1487 16.4997 26.0882 16.841C25.9069 17.8666 26.443 18.8529 27.2198 19.2249C27.295 19.2609 27.3129 19.2882 27.2961 19.4276C27.2793 19.5671 27.2284 19.7997 27.1862 19.8587C27.144 19.9182 27.123 20.0154 27.258 19.9687C27.1652 20.1421 26.9582 20.4888 26.895 20.5774C26.274 20.5014 25.7674 20.5859 25.7207 21.2365C25.7162 21.3001 25.7379 21.4014 25.8347 21.241C25.9319 21.0803 26.0418 20.928 26.3077 20.8858C26.1514 21.1266 26.1009 21.3424 26.1263 21.4818C26.1514 21.6213 26.1895 21.7058 26.2572 21.5282C26.3248 21.3509 26.4493 21.1849 26.5824 21.0844C26.6329 21.0466 26.6669 21.038 26.6288 21.1479C26.5907 21.2579 26.6457 21.4945 26.7219 21.5749C26.7977 21.6549 26.8359 21.6213 26.8146 21.4904C26.7937 21.3592 26.8266 21.0851 26.9877 20.9999C27.2198 20.8776 27.4184 20.9408 27.5115 21.1015C27.6042 21.2619 27.6846 21.1098 27.5832 20.928C27.4819 20.7464 27.3761 20.6196 27.2072 20.6069C27.3552 20.3448 27.5282 20.0278 27.5664 19.9645C27.6042 19.901 27.6636 19.8714 27.7141 19.9096C27.7649 19.9477 27.7986 19.9433 27.8494 19.8378C27.8999 19.732 27.9885 19.4194 28.1152 19.2927C28.1787 19.2754 28.2801 19.2504 28.3178 19.2164C28.4827 19.4572 28.6304 19.7238 28.6685 19.7829C28.7062 19.8419 28.7489 19.8674 28.7107 19.9899C28.6727 20.1126 28.5417 20.5014 28.5208 20.5859C28.0602 20.6028 27.8494 20.611 27.7014 20.869C27.6367 20.9815 27.7395 21.0253 27.8494 20.9662C27.959 20.9071 28.1152 20.8563 28.1956 20.869C28.2756 20.8817 28.3133 20.9229 28.2333 20.9621C27.9507 21.1015 27.7739 21.2788 27.7858 21.524C27.79 21.6127 27.8266 21.6568 27.8957 21.5368C27.993 21.3678 28.1702 21.1988 28.3855 21.152C28.3728 21.3592 28.4196 21.6635 28.5459 21.7271C28.6727 21.7903 28.6816 21.7259 28.6345 21.6044C28.5586 21.41 28.6375 21.2144 28.7317 21.1098C28.9302 20.8899 29.3822 21.1943 29.4667 21.2705C29.5512 21.3464 29.6282 21.3783 29.5807 21.1816C29.5172 20.9199 29.1456 20.7677 28.8289 20.7254C28.9175 20.2984 29.1542 19.4363 29.2809 19.1405C29.4667 19.2419 29.6117 18.9744 29.9228 19.0896C30.4462 19.284 31.2317 19.7742 31.367 19.8842C31.5019 19.9941 31.5527 19.9686 31.6204 19.9096C31.6877 19.8505 31.8062 19.9096 31.899 19.9264C31.9921 19.9433 32.0766 19.9687 31.958 19.732C31.8399 19.4953 31.5527 19.081 31.0712 18.7599C31.3583 18.7853 31.7472 18.7853 31.7472 18.7094C31.7472 18.6331 31.2993 18.4895 31.1135 18.4727C31.2911 18.4304 31.5614 18.3288 31.6877 18.1852C31.7629 18.1003 31.6727 18.0805 31.4092 18.0753C30.5983 18.0584 30.1931 18.0648 29.7707 17.8218C29.0951 17.4329 28.7085 17.0235 28.3769 16.8497C28.1997 16.7565 28.0917 16.5419 28.0232 16.3565C27.8038 15.7646 27.8147 15.4984 27.2995 15.3039C26.7843 15.1095 26.1917 15.3478 25.9215 15.5926Z" fill="black" stroke="black" stroke-width="0.3095"/>
<path d="M25.955 15.7272C25.8239 15.7223 25.5663 15.6913 25.3528 15.7126C25.3042 15.7174 25.2459 15.7418 25.3626 15.7564C25.4791 15.7709 25.7947 15.8483 25.9065 15.8872C26.0183 15.9261 25.9696 15.9844 25.8725 15.9601C25.7753 15.9358 25.7394 15.9717 25.819 16.0282C26.2321 16.3198 26.2759 16.4316 26.169 17.4321C26.2467 17.4856 26.3099 17.5244 26.3779 17.5585C26.446 17.5925 26.4265 17.6411 26.3536 17.6217C26.2807 17.6023 26.2126 17.646 26.3293 17.6703C26.446 17.6946 26.4991 17.7481 26.3876 17.7432C26.2759 17.7384 26.1446 17.8355 26.3633 17.8113C26.5816 17.7869 26.6691 17.889 26.412 17.8939C26.1544 17.8987 26.2516 17.9814 26.3876 17.9814C26.6302 17.9814 26.5574 18.0494 26.4945 18.0494C26.4314 18.0494 26.4022 18.132 26.5626 18.1174C26.7226 18.1029 26.7858 18.098 26.8441 18.1078C26.9024 18.1174 26.9267 18.1657 26.8392 18.1709C26.7518 18.1754 26.7566 18.2386 26.8879 18.2386C27.019 18.2386 27.0736 18.2782 26.9559 18.3018C26.9073 18.3115 26.84 18.3358 26.9802 18.3553C27.2232 18.3893 27.2329 18.4476 27.1551 18.4574C27.0774 18.467 27.0676 18.5108 27.1795 18.5205C27.2909 18.5303 27.3881 18.5643 27.2961 18.5886C27.2037 18.6129 27.1551 18.6664 27.2714 18.676C27.388 18.6858 27.4852 18.7295 27.3978 18.7587C27.3103 18.7879 27.2909 18.8413 27.4026 18.8364C27.5144 18.8316 27.5581 18.8948 27.4804 18.9382C27.4026 18.9819 27.3491 19.011 27.3005 18.9337C27.2523 18.8559 27.2232 18.8316 27.2086 18.8899C27.194 18.9479 27.16 18.9094 27.1211 18.8219C27.0822 18.7344 27.0142 18.7101 27.0336 18.7781C27.053 18.8462 26.9656 18.8559 26.883 18.8219C27.1891 19.1326 27.6408 19.4145 28.3597 19.1229C28.421 19.0982 28.4325 19.1229 28.4812 19.2249C28.5298 19.327 28.6659 19.5506 28.7145 19.6332C28.7631 19.7159 28.8016 19.6414 28.8259 19.5603C28.9231 19.2395 28.996 19.0014 29.0251 18.9142C29.0543 18.8267 29.1904 18.7393 29.1466 19.0451C29.2536 18.9722 29.7272 18.9034 30.094 19.0403C30.497 19.1909 30.9022 19.4246 31.1094 19.5798C31.1345 19.6013 31.164 19.6171 31.1957 19.6264C31.2275 19.6355 31.2609 19.6379 31.2936 19.6332C31.3909 19.6235 31.4151 19.6089 31.2305 19.4388C31.0462 19.2687 31.124 19.186 31.2402 19.2687C31.3569 19.3513 31.42 19.3027 31.3325 19.2006C31.245 19.0985 31.0365 18.8996 30.9684 18.851C30.9004 18.8024 30.8906 18.7829 30.7351 18.7733C30.5796 18.7635 30.2495 18.7635 30.1523 18.7635C30.0551 18.7635 30.026 18.7733 30.2398 18.851C30.4532 18.9284 30.8906 19.2104 30.9879 19.2784C31.0851 19.3464 31.153 19.5019 30.9392 19.3659C30.7254 19.2298 30.0551 18.8122 29.6084 18.6566C28.5881 18.7247 27.7817 18.8608 27.1795 18.2001C26.8908 17.8838 26.8781 17.1603 27.3637 16.8589C27.2665 16.7763 27.2811 16.7277 27.32 16.7083C27.3589 16.6889 27.3735 16.6694 27.3346 16.6208C27.2961 16.5722 27.3006 16.5288 27.3346 16.5094C27.2281 16.451 27.1795 16.383 27.1843 16.3101C27.0531 16.2809 26.9948 16.1254 26.8198 16.1739C26.6448 16.2226 26.5574 16.1837 26.5043 16.1399C26.4505 16.0962 26.407 16.0768 26.3099 16.0864C26.2126 16.0962 26.1349 16.0573 26.1301 16.0087C26.1252 15.9601 26.2123 15.9365 26.3439 15.9941C26.6206 16.1156 26.8441 16.1739 27.0142 15.9455C27.1843 15.7174 26.9656 15.5036 26.64 15.4404C26.3147 15.3772 26.0765 15.6154 25.955 15.7272Z" fill="white" stroke="black" stroke-width="0.3095"/>
<path d="M27.5888 15.6413C27.4909 15.5351 27.3166 15.4371 27.2295 15.4079C27.142 15.3788 27.1323 15.4663 27.181 15.51C27.142 15.5683 27.1275 15.7093 27.1955 15.7482C27.2635 15.7871 27.2643 15.8424 27.2004 15.8742C27.1032 15.9228 27.136 16.1808 27.2826 16.1075C27.3312 16.0832 27.3701 16.0929 27.3604 16.1318C27.3506 16.1707 27.3701 16.2193 27.4139 16.229C27.4575 16.2388 27.4527 16.3019 27.443 16.3262C27.4333 16.3505 27.4479 16.3603 27.4965 16.3651C27.545 16.3699 27.55 16.4866 27.4625 16.5255C27.5694 16.5255 27.5985 16.5061 27.6277 16.5936C27.6569 16.6807 27.7735 16.7001 27.7735 16.807C27.7735 16.914 27.754 16.9334 27.6277 16.914C27.5013 16.8945 27.4527 16.9334 27.4139 16.982C27.375 17.0307 27.3652 17.0793 27.4625 17.0841C27.5596 17.089 27.579 17.1327 27.4819 17.1764C27.3847 17.2202 27.2247 17.191 27.2004 17.2833C27.176 17.3753 27.2004 17.4191 27.2729 17.3851C27.3458 17.3514 27.4965 17.2883 27.5548 17.2542C27.6131 17.2202 27.6665 17.2153 27.7151 17.2931C27.7638 17.3708 27.7249 17.458 27.6423 17.3903C27.5596 17.3223 27.5208 17.3851 27.4721 17.424C27.4235 17.4628 27.3506 17.4872 27.2729 17.4872C27.1955 17.4872 27.142 17.4973 27.1518 17.6718C27.181 18.1968 27.5888 18.5853 28.3369 18.5755C29.085 18.5658 29.4543 18.5561 29.5661 18.5707C29.3182 18.4346 29.1627 18.3617 29.0752 18.3714C28.9877 18.3812 28.9149 18.3957 28.9537 18.3277C28.9926 18.2596 28.9489 18.2596 28.91 18.2304C28.8711 18.2013 28.8229 18.1624 28.7451 18.245C28.6674 18.3277 28.4827 18.42 28.3903 18.4394C28.298 18.4589 28.1862 18.454 28.2737 18.3666C28.3612 18.2791 28.5555 18.2499 28.6139 18.211C28.6722 18.1721 28.6722 18.1482 28.6722 18.119C28.6722 18.0898 28.6576 18.0073 28.7695 18.0704C28.9926 18.1968 29.3425 18.386 29.4349 18.3812C29.5272 18.3763 29.5904 18.3374 29.5078 18.2839C29.4251 18.2304 29.4009 18.153 29.4251 18.1238C29.4495 18.0947 29.464 18.0656 29.6098 18.1482C29.7553 18.2304 29.9934 18.3374 30.0809 18.3763C30.1684 18.4152 30.285 18.4006 30.1052 18.2693C29.9254 18.1385 29.3669 17.7691 29.2113 17.6524C29.0558 17.5358 29.1238 17.6767 29.1384 17.7204C29.153 17.7642 29.0315 17.8177 28.9683 17.7642C28.9051 17.7108 28.8614 17.6524 28.9489 17.6038C29.0364 17.5552 29.0558 17.5503 28.9245 17.4337C28.7937 17.3174 28.7549 17.3272 28.784 17.424C28.8131 17.5212 28.8229 17.6281 28.6868 17.5747C28.5507 17.5212 28.4827 17.458 28.5701 17.4045C28.6576 17.3514 28.7694 17.3223 28.6236 17.2008C28.4778 17.0793 28.5215 17.2008 28.4875 17.2688C28.4535 17.3368 28.3417 17.3368 28.2785 17.2833C28.2154 17.2299 28.1862 17.1764 28.23 17.1327C28.2737 17.0889 28.2688 17.0647 28.332 17.0987C28.3952 17.1327 28.4924 17.1133 28.3758 17.0112C28.2591 16.9091 28.2154 16.9528 28.2397 17.0112C28.264 17.0695 28.1716 17.1716 28.0262 17.0355C27.957 16.9712 27.9581 16.8848 28.031 16.8703C28.1036 16.8557 28.1107 16.8178 28.0599 16.7438C27.7638 16.3117 27.8853 15.9617 27.5888 15.6413Z" fill="white" stroke="black" stroke-width="0.3095"/>
<path d="M27.6375 15.7011C27.612 15.7392 27.6026 15.7378 27.5556 15.7691C27.4976 15.8076 27.4845 15.9179 27.5817 15.9048C27.649 15.8958 27.6882 15.8558 27.7148 15.8233C27.6926 15.7804 27.6667 15.7395 27.6374 15.7011H27.6375ZM27.3346 15.458C27.2598 15.5305 27.2467 15.5631 27.2849 15.5631C27.3301 15.5631 27.3107 15.5694 27.2782 15.6214C27.246 15.6734 27.3432 15.6992 27.3821 15.6603C27.4209 15.6215 27.4273 15.6083 27.4467 15.6603C27.4625 15.7026 27.5264 15.6625 27.5667 15.6218C27.5006 15.5578 27.4116 15.4988 27.3346 15.458ZM27.2 15.8768C27.1028 15.9254 27.1357 16.1834 27.2822 16.1101C27.3309 16.0858 27.3697 16.0955 27.3601 16.1344C27.3548 16.1549 27.3581 16.1786 27.369 16.1972C27.4307 16.1709 27.4857 16.1312 27.5301 16.0809C27.621 15.9773 27.5365 15.9838 27.4008 15.9838C27.2647 15.9838 27.2258 15.9579 27.3551 15.8802C27.4711 15.8106 27.3956 15.7623 27.2351 15.7848C27.2583 15.8177 27.2468 15.8536 27.2 15.8768ZM27.7571 16.4488C27.6856 16.3711 27.7309 16.3322 27.8086 16.2933C27.8255 16.2855 27.8398 16.2733 27.8501 16.2578C27.8281 16.1722 27.8105 16.0899 27.7873 16.0099C27.7466 16.0215 27.6991 16.1123 27.6856 16.1572C27.6662 16.2219 27.6467 16.2608 27.5821 16.2413C27.5246 16.2241 27.467 16.2888 27.455 16.358C27.464 16.3618 27.4778 16.3643 27.4961 16.3662C27.5231 16.3688 27.5365 16.4055 27.5282 16.4443C27.7036 16.4388 27.7335 16.5599 27.7634 16.6429C27.7959 16.7338 27.8348 16.7207 27.8606 16.6691C27.8865 16.6171 27.8281 16.5266 27.7571 16.4488Z" fill="#CF6200"/>
<path d="M27.8057 17.4658C27.7739 17.5375 27.7732 17.5305 27.6696 17.5368C27.566 17.5435 27.4356 17.5611 27.3783 17.6213C27.3473 17.6535 27.1683 17.6621 27.1679 17.741C27.1671 17.8202 27.1679 17.8868 27.2457 17.8916C27.323 17.8965 27.3327 17.9062 27.304 17.9645C27.2744 18.0229 27.2553 18.1201 27.3911 18.1298C27.5272 18.1395 27.6244 18.0958 27.6584 18.1731C27.6924 18.251 27.6557 18.375 27.6827 18.421C27.7096 18.467 27.8016 18.4966 27.944 18.5407C28.039 18.5703 28.3975 18.587 28.5077 18.5744C28.6177 18.5613 28.5766 18.4955 28.4662 18.4858C28.3563 18.476 28.2752 18.46 28.2494 18.3791C28.2236 18.298 28.2008 18.2558 28.2625 18.1881C28.3238 18.1201 28.3855 18.0681 28.35 17.9548C28.3142 17.8415 28.2558 17.7085 28.1264 17.6729C27.9967 17.6374 28.0378 17.4602 27.9092 17.443C27.8607 17.4366 27.8187 17.4366 27.8057 17.4658Z" fill="#FFFF00"/>
<path d="M27.1776 18.5202C27.289 18.5299 27.3862 18.5639 27.2942 18.5883C27.2019 18.6126 27.1533 18.666 27.2696 18.6758C27.3862 18.6854 27.4834 18.7292 27.3959 18.7583C27.3084 18.7875 27.289 18.841 27.4008 18.8362C27.5127 18.8313 27.5563 18.8945 27.4786 18.9378C27.4008 18.9816 27.3473 19.0108 27.2987 18.9333C27.2505 18.8556 27.2213 18.8313 27.2067 18.8896C27.1922 18.9476 27.1582 18.909 27.1192 18.8216C27.0803 18.7342 27.0123 18.7098 27.0317 18.7778C27.0512 18.8459 26.9637 18.8556 26.8812 18.8216C26.9627 18.9042 27.0542 18.9846 27.1585 19.0526C27.2778 19.0118 27.4093 19.0451 27.4543 19.0496C27.5028 19.0545 27.6535 19.0885 27.7362 19.1323C27.8188 19.176 27.8722 19.0983 27.8382 19.0108C27.8042 18.9236 27.7993 18.9528 27.7556 19.001C27.7118 19.0496 27.7021 18.9816 27.707 18.8799C27.7112 18.7939 27.6535 18.8167 27.6341 18.8702C27.6147 18.9237 27.5709 18.8362 27.5952 18.7827C27.6194 18.7292 27.5903 18.7098 27.5466 18.7243C27.5028 18.7389 27.498 18.7243 27.4932 18.6271C27.4883 18.5298 27.4445 18.5445 27.4299 18.5834C27.4153 18.6223 27.3765 18.5688 27.3182 18.491C27.2673 18.423 27.2087 18.463 27.1069 18.5033C27.1197 18.5108 27.1428 18.5172 27.1776 18.5202Z" fill="#CF6200"/>
<path d="M28.359 19.1221C27.8281 19.3374 27.4452 19.2418 27.1571 19.0507C27.2762 19.0099 27.4105 19.0447 27.4554 19.0492C27.504 19.054 27.6546 19.0881 27.7372 19.1319C27.8199 19.1756 27.8733 19.0978 27.8393 19.0103C27.9122 19.1027 27.9656 19.1659 28.0527 19.161C28.1402 19.1561 28.2861 19.1415 28.359 19.1221ZM27.2261 16.6769C27.1936 16.5669 27.1615 16.5408 27.1032 16.5474C27.0449 16.5539 27.0191 16.5408 26.9541 16.5149C26.8893 16.4891 26.8052 16.5213 26.7921 16.6379C26.7791 16.7546 26.708 16.8129 26.6108 16.884C26.5136 16.9554 26.4553 17.0137 26.4553 17.1304C26.4553 17.247 26.4295 17.2792 26.3648 17.3637C26.3361 17.4011 26.2953 17.4437 26.2571 17.4885C26.2991 17.5148 26.3383 17.5375 26.3794 17.5577C26.4475 17.5918 26.428 17.6404 26.3551 17.6209C26.2823 17.6015 26.2141 17.6452 26.3308 17.6695C26.4475 17.6939 26.5006 17.7473 26.3891 17.7424C26.2774 17.7376 26.1461 17.8348 26.3648 17.8105C26.5831 17.7862 26.6706 17.8883 26.4134 17.8931C26.1559 17.8979 26.2531 17.9806 26.3891 17.9806C26.6317 17.9806 26.5589 18.0487 26.4961 18.0487C26.4329 18.0487 26.4037 18.1313 26.5641 18.1167C26.5663 18.1164 26.5682 18.1159 26.5708 18.1159C26.594 18.092 26.6112 18.0621 26.6239 18.0243C26.6497 17.9466 26.6756 17.7196 26.7664 17.6549C26.8568 17.5903 26.9024 17.4994 26.9024 17.4347C26.9024 17.3699 27.0381 17.0851 27.1291 17.0137C27.22 16.9423 27.2587 16.7871 27.2261 16.6769Z" fill="#FFFF00"/>
<path d="M27.0356 16.6806C26.9436 16.6193 26.8543 16.6548 26.8543 16.7714C26.8543 16.8881 26.7959 16.9203 26.7182 16.9591C26.6408 16.998 26.5693 17.0952 26.5563 17.1861C26.5436 17.2766 26.5693 17.3348 26.5047 17.4063C26.4397 17.4773 26.4333 17.5357 26.4788 17.5746C26.5241 17.6134 26.5241 17.6202 26.5436 17.6781C26.563 17.7364 26.6729 17.6718 26.6729 17.6071C26.6729 17.5424 26.6991 17.5424 26.7701 17.5035C26.8415 17.4646 26.9582 17.2766 26.932 17.2249C26.9062 17.173 26.8415 17.1278 26.9257 17.0563C27.0098 16.9853 27.1007 16.9786 27.1007 16.9075C27.1007 16.8361 27.1264 16.8103 27.1522 16.7845C27.1783 16.7583 27.0938 16.7195 27.0355 16.6806H27.0356Z" fill="#CF6200"/>
<path d="M27.0356 16.5871C26.975 16.5636 26.9388 16.6907 27.0228 16.7101C27.1069 16.7296 27.12 16.6193 27.0356 16.5871ZM27.0206 16.7516C26.9563 16.7595 26.8845 16.844 26.9914 16.8294C27.0984 16.8148 27.1421 16.7371 27.0206 16.7516ZM26.8935 16.9087C26.8273 16.942 26.84 17.0302 26.9373 16.967C27.0345 16.9039 27.0588 16.826 26.8935 16.9087ZM26.7889 17.0433C26.7223 17.0762 26.7353 17.1645 26.8326 17.1016C26.9298 17.0385 26.9541 16.9606 26.7889 17.0433Z" fill="black"/>
<path d="M26.6541 17.1069C26.588 17.1401 26.6299 17.2284 26.727 17.1652C26.8242 17.102 26.8195 17.0242 26.6542 17.1069H26.6541ZM26.7365 17.1891C26.6703 17.2224 26.7121 17.3106 26.8093 17.2475C26.9065 17.1843 26.9016 17.1065 26.7365 17.1891Z" fill="black"/>
<path d="M26.6205 17.2228C26.5543 17.2561 26.5962 17.3443 26.6934 17.2811C26.7907 17.2178 26.7857 17.1402 26.6205 17.2228ZM26.6952 17.3163C26.6287 17.3496 26.6709 17.4378 26.7677 17.3746C26.865 17.3114 26.8602 17.2337 26.6952 17.3163Z" fill="black"/>
<path d="M26.583 17.3723C26.5168 17.4052 26.5587 17.4935 26.6559 17.4303C26.7531 17.3671 26.7482 17.2897 26.583 17.3723Z" fill="black"/>
<path d="M26.5906 17.4583C26.5244 17.4917 26.5663 17.5798 26.6635 17.5167C26.7608 17.4535 26.7558 17.3758 26.5906 17.4583Z" fill="black"/>
<path d="M26.5382 18.2771C26.4713 18.2857 26.4282 18.3811 26.5124 18.4005C26.5965 18.4199 26.616 18.4263 26.616 18.491C26.616 18.5556 26.6421 18.6466 26.7326 18.6529C26.8235 18.6596 26.9012 18.5557 26.8235 18.5236C26.7457 18.4911 26.6743 18.4652 26.668 18.3938C26.6615 18.3227 26.5901 18.2708 26.5382 18.2771Z" fill="#CF6200"/>
<path d="M28.9234 17.72C28.9353 17.735 28.9503 17.7515 28.9676 17.7661C29.0307 17.8195 29.1522 17.7661 29.1376 17.7223C29.123 17.6786 29.055 17.5376 29.2105 17.6543C29.366 17.7709 29.9246 18.1403 30.1044 18.2712C30.2842 18.4024 30.1676 18.417 30.0801 18.3781C29.9926 18.3392 29.7545 18.2323 29.6091 18.15C29.4632 18.0674 29.4487 18.0966 29.4243 18.1258C29.4038 18.15 29.4202 18.2088 29.4737 18.2585C29.387 18.2712 29.246 18.2521 29.2057 18.1598C29.1571 18.048 29.0404 17.9118 28.9578 17.8049C28.9272 17.7653 28.9182 17.7407 28.9234 17.7201V17.72Z" fill="#FFFF00"/>
<path d="M33.7425 33.6366C33.6213 33.7192 33.461 33.865 33.5675 34.0687C33.5802 34.0621 33.5922 34.0542 33.6045 34.0471C34.0797 33.4721 34.4864 32.8674 34.8349 32.2393C34.839 32.2177 34.8427 32.1971 34.8453 32.1791C34.7092 32.2957 34.4954 32.4121 34.4079 32.4412C34.4662 32.5967 34.1945 32.8009 34.0487 32.8592C34.107 32.9564 34.0875 33.1022 33.9612 33.1314C33.9904 33.2185 33.8931 33.2185 33.7765 33.2672C33.6598 33.3158 33.6015 33.3547 33.563 33.413C33.6258 33.3789 33.7133 33.3497 33.7619 33.3643C33.8105 33.3789 33.8202 33.4518 33.7327 33.4712C33.6452 33.4907 33.5873 33.5393 33.5577 33.5782C33.6841 33.5296 33.864 33.5539 33.7425 33.6366Z" fill="#00D860"/>
<path d="M27.9814 17.5405C27.8378 17.4152 27.8016 17.4919 27.8599 17.5696C27.9182 17.6474 27.8745 17.6863 27.7481 17.7057C27.6217 17.7252 27.4322 17.7495 27.3544 17.7495C27.2767 17.7495 27.1847 17.8564 27.369 17.8467C27.5537 17.837 27.8647 17.7738 27.9473 17.7398C28.03 17.7057 28.0977 17.6425 27.9814 17.5405ZM28.2617 17.761C28.1432 17.6545 28.1014 17.6833 28.1306 17.761C28.1597 17.8389 28.1062 17.8535 28.0288 17.8777C27.9511 17.902 27.6449 18.0041 27.5137 18.0187C27.3825 18.0333 27.3533 18.1256 27.5477 18.1207C27.7421 18.1159 28.116 17.9604 28.1597 17.9312C28.2034 17.902 28.218 17.8437 28.2667 17.8729C28.3152 17.902 28.359 17.8485 28.2617 17.761ZM28.3515 18.0714C28.2655 18.1226 28.0506 18.2169 27.9631 18.2411C27.8756 18.2655 27.8027 18.3626 27.9873 18.348C28.1717 18.3335 28.3904 18.1634 28.4487 18.1297C28.507 18.0957 28.5362 18.0714 28.5847 18.0763C28.6334 18.0811 28.7208 18.013 28.5605 17.9256C28.4001 17.8381 28.3029 17.8819 28.3807 17.9499C28.4584 18.018 28.4001 18.0422 28.3515 18.0714Z" fill="black" stroke="black" stroke-width="0.3095"/>
<path d="M26.8374 15.6263C26.6 15.4704 26.329 15.7971 26.5914 15.9763C26.8214 16.1333 27.0644 15.7754 26.8374 15.6263Z" fill="black"/>
<path d="M26.542 15.7683L26.6122 15.7732C26.5976 15.8457 26.6706 15.9553 26.7823 15.9283C26.6926 15.9964 26.5176 15.9186 26.542 15.7683ZM27.4616 19.3091C27.5334 19.33 27.7827 19.3555 27.8672 19.3596C27.825 19.4486 27.7869 19.5076 27.7614 19.5712C27.7361 19.6344 27.7237 19.6389 27.7192 19.5416C27.7151 19.4441 27.6601 19.3808 27.6096 19.4822C27.5588 19.5839 27.5334 19.6216 27.5084 19.6639C27.483 19.7061 27.4448 19.7234 27.4576 19.6176C27.4703 19.5117 27.4661 19.4017 27.4616 19.3091L27.4616 19.3091Z" fill="white"/>
<path d="M36.8416 22.1619C36.8244 28.2683 35.8609 34.8469 27.9574 37.9805C20.0534 34.8469 19.09 28.2683 19.0729 22.1619M36.8416 22.1619C36.8483 19.8617 36.7204 17.6284 36.7788 15.6715C33.8254 14.3498 29.9392 14.078 27.9574 14.078C25.9753 14.078 22.0891 14.3498 19.1357 15.6715C19.1939 17.6284 19.0665 19.8617 19.0729 22.1619" fill="black"/>
<path d="M36.8416 22.1619C36.8244 28.2683 35.8609 34.8469 27.9574 37.9805C20.0534 34.8469 19.09 28.2683 19.0729 22.1619M36.8416 22.1619H19.0729M36.8416 22.1619C36.8483 19.8617 36.7204 17.6284 36.7788 15.6715C33.8254 14.3498 29.9392 14.078 27.9574 14.078C25.9753 14.078 22.0891 14.3498 19.1357 15.6715C19.1939 17.6284 19.0665 19.8617 19.0729 22.1619" stroke="black" stroke-width="0.617"/>
</g>
</g>
</g>
<defs>
<clipPath id="clip0_16699_276114">
<rect width="40" height="40" fill="white"/>
</clipPath>
</defs>
</svg>
