<svg width="40" height="40" viewBox="0 0 40 40" fill="none" xmlns="http://www.w3.org/2000/svg">
<g clip-path="url(#clip0_16699_276197)">
<mask id="mask0_16699_276197" style="mask-type:luminance" maskUnits="userSpaceOnUse" x="0" y="0" width="40" height="40">
<path d="M40 0H0V40H40V0Z" fill="white"/>
</mask>
<g mask="url(#mask0_16699_276197)">
<mask id="mask1_16699_276197" style="mask-type:luminance" maskUnits="userSpaceOnUse" x="0" y="0" width="40" height="40">
<path d="M40 20C40 8.95433 31.0457 0 20 0C8.95433 0 0 8.95433 0 20C0 31.0457 8.95433 40 20 40C31.0457 40 40 31.0457 40 20Z" fill="white"/>
</mask>
<g mask="url(#mask1_16699_276197)">
<path d="M-10 0H49.9868V40H-10V0Z" fill="#FF0000"/>
<path d="M-10 0H49.9868V26.6667H-10V0Z" fill="#0000FF"/>
<path d="M-10 0H49.9868V13.3333H-10V0Z" fill="white"/>
<path fill-rule="evenodd" clip-rule="evenodd" d="M20.1514 7.05139C20.0619 7.05152 19.9726 7.05336 19.8836 7.05595C18.1518 7.10084 16.526 7.54805 15.3684 8.09345L15.3685 8.09501C15.2419 8.14792 15.1179 8.20096 15 8.25399L15.3979 14.4867C15.6736 17.7437 17.7962 19.6401 20.1546 20.3847C22.5129 19.6401 24.6354 17.7437 24.9111 14.4867L25.3068 8.27379C25.1886 8.21263 25.0647 8.15335 24.9383 8.09501L24.9384 8.09345C23.7217 7.52021 21.9879 7.05461 20.1574 7.05152L20.1534 7.05139H20.1514Z" fill="#0000FF"/>
<path fill-rule="evenodd" clip-rule="evenodd" d="M20.1543 11.3639L18.9903 13.637L18.2378 12.6594L16.2714 15.258C16.3069 15.4194 16.3485 15.5751 16.3941 15.7271C16.6138 16.0977 17.0359 16.5209 17.577 16.5209C18.0066 16.5209 18.4361 16.1772 18.8656 16.1772C19.2953 16.1772 19.7248 16.5209 20.1543 16.5209C20.5839 16.5209 21.0134 16.1772 21.4429 16.1772C21.8724 16.1772 22.3019 16.5209 22.7314 16.5209C23.2679 16.5209 23.687 16.1056 23.9084 15.7374C23.9556 15.5813 23.998 15.4205 24.0346 15.2546L22.0709 12.6594L21.3184 13.637L20.1543 11.3639ZM18.8656 16.5209C18.4361 16.5209 18.0066 16.8645 17.577 16.8645C17.2371 16.8645 16.9451 16.7441 16.7189 16.5733C16.7988 16.7428 16.8833 16.9077 16.9758 17.0638C17.1529 17.174 17.3544 17.2485 17.577 17.2485C18.0066 17.2485 18.4361 16.9049 18.8656 16.9049C19.2953 16.9049 19.7248 17.2485 20.1543 17.2485C20.5839 17.2485 21.0134 16.9049 21.4429 16.9049C21.8724 16.9049 22.3019 17.2485 22.7314 17.2485C22.951 17.2485 23.1496 17.1756 23.325 17.0681C23.4174 16.9125 23.5019 16.7482 23.5819 16.5793C23.3568 16.7469 23.0674 16.8645 22.7314 16.8645C22.3019 16.8645 21.8724 16.5209 21.4429 16.5209C21.0134 16.5209 20.5839 16.8645 20.1543 16.8645C19.7248 16.8645 19.2953 16.5209 18.8656 16.5209ZM18.8656 17.2485C18.4361 17.2485 18.0066 17.5921 17.577 17.5921C17.4838 17.5921 17.395 17.5812 17.309 17.5646C18.0521 18.5574 19.066 19.2219 20.1534 19.604C21.2385 19.2225 22.2509 18.5575 22.9934 17.5664C22.9094 17.5821 22.8225 17.5921 22.7314 17.5921C22.3019 17.5921 21.8724 17.2485 21.4429 17.2485C21.0134 17.2485 20.5839 17.5921 20.1543 17.5921C19.7248 17.5921 19.2953 17.2485 18.8656 17.2485Z" fill="white"/>
<path fill-rule="evenodd" clip-rule="evenodd" d="M18.217 7.88477H19.1915L18.7043 8.72858" fill="#FFFF00"/>
<path fill-rule="evenodd" clip-rule="evenodd" d="M18.217 8.44733H19.1915L18.7043 7.60352" fill="#FFFF00"/>
<path fill-rule="evenodd" clip-rule="evenodd" d="M21.1191 7.88477H22.0937L21.6064 8.72858" fill="#FFFF00"/>
<path fill-rule="evenodd" clip-rule="evenodd" d="M21.1191 8.44733H22.0937L21.6064 7.60352" fill="#FFFF00"/>
<path fill-rule="evenodd" clip-rule="evenodd" d="M19.6699 9.82751H20.6444L20.1573 10.6713" fill="#FFFF00"/>
<path fill-rule="evenodd" clip-rule="evenodd" d="M19.6699 10.3901H20.6444L20.1573 9.54626" fill="#FFFF00"/>
<path fill-rule="evenodd" clip-rule="evenodd" d="M15.3685 8.09509C15.2419 8.14803 15.1179 8.20103 15 8.25408L15.3979 14.4869C15.6736 17.7439 17.7961 19.6402 20.1544 20.3848C22.5128 19.6402 24.6352 17.7439 24.9109 14.4869L25.3066 8.27388C25.1885 8.21273 25.0646 8.15343 24.9381 8.09509L24.5689 14.2805C24.3129 17.4471 22.3427 19.2908 20.1534 20.0148C17.9641 19.2908 15.9937 17.4471 15.7378 14.2805L15.3685 8.09509Z" fill="#FF0000"/>
</g>
</g>
</g>
<defs>
<clipPath id="clip0_16699_276197">
<rect width="40" height="40" fill="white"/>
</clipPath>
</defs>
</svg>
