<svg width="40" height="40" viewBox="0 0 40 40" fill="none" xmlns="http://www.w3.org/2000/svg">
<g clip-path="url(#clip0_16699_276218)">
<mask id="mask0_16699_276218" style="mask-type:luminance" maskUnits="userSpaceOnUse" x="0" y="0" width="40" height="40">
<path d="M40 20C40 8.95431 31.0457 0 20 0C8.95431 0 0 8.95431 0 20C0 31.0457 8.95431 40 20 40C31.0457 40 40 31.0457 40 20Z" fill="white"/>
</mask>
<g mask="url(#mask0_16699_276218)">
<mask id="mask1_16699_276218" style="mask-type:luminance" maskUnits="userSpaceOnUse" x="-7" y="0" width="54" height="40">
<path d="M-6.66663 0H46.6667V40H-6.66663V0Z" fill="white"/>
</mask>
<g mask="url(#mask1_16699_276218)">
<path d="M-6.66663 0H46.6667V40H-6.66663V0Z" fill="#EF2B2D"/>
<path d="M8.33337 0H18.3334V40H8.33337V0Z" fill="white"/>
<path d="M-6.66663 15H46.6667V25H-6.66663V15Z" fill="white"/>
<path d="M10.8334 0H15.8334V40H10.8334V0Z" fill="#002868"/>
<path d="M-6.66663 17.5H46.6667V22.5H-6.66663V17.5Z" fill="#002868"/>
</g>
</g>
</g>
<defs>
<clipPath id="clip0_16699_276218">
<rect width="40" height="40" fill="white"/>
</clipPath>
</defs>
</svg>
