<svg width="40" height="40" viewBox="0 0 40 40" fill="none" xmlns="http://www.w3.org/2000/svg">
<g clip-path="url(#clip0_16699_276232)">
<mask id="mask0_16699_276232" style="mask-type:luminance" maskUnits="userSpaceOnUse" x="0" y="0" width="40" height="40">
<path d="M40 0H0V40H40V0Z" fill="white"/>
</mask>
<g mask="url(#mask0_16699_276232)">
<mask id="mask1_16699_276232" style="mask-type:luminance" maskUnits="userSpaceOnUse" x="0" y="0" width="40" height="40">
<path d="M40 20C40 8.95433 31.0457 0 20 0C8.95433 0 0 8.95433 0 20C0 31.0457 8.95433 40 20 40C31.0457 40 40 31.0457 40 20Z" fill="white"/>
</mask>
<g mask="url(#mask1_16699_276232)">
<path d="M50 0H-10V40H50V0Z" fill="#EE1C25"/>
<path d="M50 0H-10V26.6667H50V0Z" fill="#0B4EA2"/>
<path d="M50 0H-10V13.3333H50V0Z" fill="white"/>
<path d="M28.2322 9.39978H27.6921H19.9949H12.2977H11.7576L11.7011 9.93703C11.6889 10.0539 11.4004 12.8684 11.4004 19.0497C11.4004 21.9539 12.3821 24.516 14.3184 26.665C15.675 28.1707 17.4466 29.4383 19.7345 30.5403L19.9949 30.6657L20.2552 30.5403C22.5432 29.4383 24.315 28.1707 25.6716 26.665C27.6079 24.516 28.5896 21.9539 28.5896 19.0497C28.5896 12.8684 28.3011 10.0539 28.2889 9.93703L28.2322 9.39978Z" fill="white"/>
<path d="M19.9945 30C16.7051 28.4156 12 25.2708 12 19.0499C12 12.8291 12.2974 10 12.2974 10H19.9945H27.6917C27.6917 10 27.9893 12.8291 27.9893 19.0499C27.9893 25.2708 23.2841 28.4156 19.9945 30Z" fill="#EE1C25"/>
<path d="M20.6996 17.419C21.5903 17.4334 23.3279 17.4683 24.8753 16.9506C24.8753 16.9506 24.8344 17.5043 24.8344 18.1492C24.8344 18.7944 24.8753 19.348 24.8753 19.348C23.456 18.873 21.7033 18.8632 20.6996 18.8759V22.3118H19.2926V18.8759C18.289 18.8632 16.5363 18.873 15.117 19.348C15.117 19.348 15.1578 18.7944 15.1578 18.1492C15.1578 17.5042 15.117 16.9506 15.117 16.9506C16.6643 17.4683 18.402 17.4334 19.2926 17.419V15.2612C18.4808 15.254 17.3111 15.2927 15.9884 15.7354C15.9884 15.7354 16.0293 15.1817 16.0293 14.5366C16.0293 13.8915 15.9884 13.3378 15.9884 13.3378C17.3091 13.7797 18.4775 13.8191 19.289 13.8121C19.2473 12.4456 18.8493 10.7233 18.8493 10.7233C18.8493 10.7233 19.6685 10.7872 19.996 10.7872C20.3239 10.7872 21.1429 10.7233 21.1429 10.7233C21.1429 10.7233 20.745 12.4456 20.7033 13.812C21.5148 13.819 22.6832 13.7796 24.0038 13.3377C24.0038 13.3377 23.9629 13.8914 23.9629 14.5364C23.9629 15.1816 24.0038 15.7352 24.0038 15.7352C22.6813 15.2926 21.5114 15.2538 20.6996 15.261V17.419Z" fill="white"/>
<path d="M19.9931 21.9395C18.3364 21.9395 17.449 24.2374 17.449 24.2374C17.449 24.2374 16.9566 23.1478 15.605 23.1478C14.6904 23.1478 14.0164 23.9612 13.5879 24.7145C15.2517 27.3615 17.9066 28.9949 19.9931 29.9999C22.0801 28.9949 24.7366 27.3618 26.4006 24.7145C25.9721 23.9612 25.2981 23.1478 24.3836 23.1478C23.0317 23.1478 22.5374 24.2374 22.5374 24.2374C22.5374 24.2374 21.6501 21.9395 19.9931 21.9395Z" fill="#0B4EA2"/>
</g>
</g>
</g>
<defs>
<clipPath id="clip0_16699_276232">
<rect width="40" height="40" fill="white"/>
</clipPath>
</defs>
</svg>
