<svg width="40" height="40" viewBox="0 0 40 40" fill="none" xmlns="http://www.w3.org/2000/svg">
<g clip-path="url(#clip0_16699_276596)">
<mask id="mask0_16699_276596" style="mask-type:luminance" maskUnits="userSpaceOnUse" x="0" y="0" width="40" height="40">
<path d="M40 0H0V40H40V0Z" fill="white"/>
</mask>
<g mask="url(#mask0_16699_276596)">
<mask id="mask1_16699_276596" style="mask-type:luminance" maskUnits="userSpaceOnUse" x="0" y="0" width="40" height="40">
<path d="M40 20C40 8.95433 31.0457 0 20 0C8.95433 0 0 8.95433 0 20C0 31.0457 8.95433 40 20 40C31.0457 40 40 31.0457 40 20Z" fill="white"/>
</mask>
<g mask="url(#mask1_16699_276596)">
<path d="M40 -5H0V46H40V-5Z" fill="#00853F"/>
<path d="M40 -5H13V46H40V-5Z" fill="#FDEF42"/>
<path d="M40 -4H27V45H40V-4Z" fill="#E31B23"/>
<path d="M19.9895 15.8893L18.6162 20.1163L20.7295 20.803L19.9895 15.8893Z" fill="#00853F"/>
<path d="M19.9896 15.8893L21.363 20.1163L19.2495 20.803L19.9896 15.8893Z" fill="#00853F"/>
<path d="M24.2278 18.9609H19.7833V21.1833L24.2278 18.9609Z" fill="#00853F"/>
<path d="M24.228 18.9609L20.6323 21.5734L19.3262 19.7755L24.228 18.9609Z" fill="#00853F"/>
<path d="M22.6133 23.9293L21.24 19.7025L19.1265 20.3892L22.6133 23.9293Z" fill="#00853F"/>
<path d="M22.6134 23.9291L19.0178 21.3167L20.324 19.5189L22.6134 23.9291Z" fill="#00853F"/>
<path d="M17.3879 23.9291L20.9837 21.3167L19.6774 19.5189L17.3879 23.9291Z" fill="#00853F"/>
<path d="M17.3879 23.9293L18.7614 19.7025L20.8749 20.3892L17.3879 23.9293Z" fill="#00853F"/>
<path d="M15.7734 18.959L19.3692 21.5714L20.6754 19.7735L15.7734 18.959Z" fill="#00853F"/>
<path d="M15.7734 18.959H20.2179V21.1812L15.7734 18.959Z" fill="#00853F"/>
</g>
</g>
</g>
<defs>
<clipPath id="clip0_16699_276596">
<rect width="40" height="40" fill="white"/>
</clipPath>
</defs>
</svg>
