<svg width="40" height="40" viewBox="0 0 40 40" fill="none" xmlns="http://www.w3.org/2000/svg">
<g clip-path="url(#clip0_16699_276618)">
<mask id="mask0_16699_276618" style="mask-type:luminance" maskUnits="userSpaceOnUse" x="0" y="0" width="40" height="40">
<path d="M40 0H0V40H40V0Z" fill="white"/>
</mask>
<g mask="url(#mask0_16699_276618)">
<mask id="mask1_16699_276618" style="mask-type:luminance" maskUnits="userSpaceOnUse" x="0" y="0" width="40" height="40">
<path d="M40 20C40 8.95433 31.0457 0 20 0C8.95433 0 0 8.95433 0 20C0 31.0457 8.95433 40 20 40C31.0457 40 40 31.0457 40 20Z" fill="white"/>
</mask>
<g mask="url(#mask1_16699_276618)">
<path d="M-10 0H50V40H-10V0Z" fill="#4189DD"/>
<mask id="mask2_16699_276618" style="mask-type:luminance" maskUnits="userSpaceOnUse" x="13" y="10" width="10" height="13">
<path d="M20.0022 10.3705L22.9779 19.5287L13.8196 22.5045" fill="white"/>
</mask>
<g mask="url(#mask2_16699_276618)">
<path d="M20.002 10.3701L17.0261 19.5285L26.1845 22.5042" fill="white"/>
</g>
<mask id="mask3_16699_276618" style="mask-type:luminance" maskUnits="userSpaceOnUse" x="15" y="14" width="15" height="9">
<path d="M29.1622 17.0239L21.3716 22.6841L15.7114 14.8936" fill="white"/>
</mask>
<g mask="url(#mask3_16699_276618)">
<path d="M29.1622 17.0239H19.5326V26.6536" fill="white"/>
</g>
<mask id="mask4_16699_276618" style="mask-type:luminance" maskUnits="userSpaceOnUse" x="17" y="14" width="9" height="14">
<path d="M25.6445 27.79L17.854 22.1299L23.5142 14.3394" fill="white"/>
</mask>
<g mask="url(#mask4_16699_276618)">
<path d="M25.6465 27.7905L22.6707 18.6322L13.5123 21.6079" fill="white"/>
</g>
<mask id="mask5_16699_276618" style="mask-type:luminance" maskUnits="userSpaceOnUse" x="14" y="18" width="13" height="10">
<path d="M14.3593 27.7905L17.3349 18.6322L26.4933 21.6079" fill="white"/>
</mask>
<g mask="url(#mask5_16699_276618)">
<path d="M14.3572 27.7905L22.1478 22.1305L16.4876 14.34" fill="white"/>
</g>
<mask id="mask6_16699_276618" style="mask-type:luminance" maskUnits="userSpaceOnUse" x="10" y="17" width="11" height="10">
<path d="M10.8613 17.0291H20.491V26.6586" fill="white"/>
</mask>
<g mask="url(#mask6_16699_276618)">
<path d="M10.8594 17.0289L18.65 22.689L24.3101 14.8984" fill="white"/>
</g>
</g>
</g>
</g>
<defs>
<clipPath id="clip0_16699_276618">
<rect width="40" height="40" fill="white"/>
</clipPath>
</defs>
</svg>
