<svg width="40" height="40" viewBox="0 0 40 40" fill="none" xmlns="http://www.w3.org/2000/svg">
<g clip-path="url(#clip0_16699_276694)">
<mask id="mask0_16699_276694" style="mask-type:luminance" maskUnits="userSpaceOnUse" x="0" y="0" width="40" height="40">
<path d="M40 0H0V40H40V0Z" fill="white"/>
</mask>
<g mask="url(#mask0_16699_276694)">
<mask id="mask1_16699_276694" style="mask-type:luminance" maskUnits="userSpaceOnUse" x="0" y="0" width="40" height="40">
<path d="M40 20C40 8.95433 31.0457 0 20 0C8.95433 0 0 8.95433 0 20C0 31.0457 8.95433 40 20 40C31.0457 40 40 31.0457 40 20Z" fill="white"/>
</mask>
<g mask="url(#mask1_16699_276694)">
<path d="M0 0H60V40H0V0Z" fill="#CC0000"/>
<path d="M13.3347 2.5L12.7734 4.22746H10.957L12.4265 5.29508L11.8652 7.02253L13.3347 5.9549L14.8041 7.02253L14.2428 5.29508L15.7123 4.22746H13.896L13.3347 2.5ZM13.3347 3.4L13.6939 4.50556H14.8564L13.9159 5.18886L14.2751 6.29443L13.3347 5.61115L12.3942 6.29443L12.7534 5.18886L11.813 4.50556H12.9754L13.3347 3.4Z" fill="#FFD700"/>
<path d="M9.31818 11.5458L10.5623 12.7951L11.7356 11.633C13.5202 13.5421 15.3919 15.3823 17.1628 17.2988C17.4288 17.566 17.8618 17.5674 18.1297 17.3021C18.3976 17.0368 18.3991 16.6049 18.1329 16.3376C16.2323 14.549 14.3258 12.7458 12.4243 10.9506L14.0051 9.385L11.8061 9.08142L9.31818 11.5458Z" fill="#FFD700"/>
<path d="M13.3321 7.5C14.3555 8.0749 15.1325 8.89992 15.5909 9.76242C16.0555 10.6366 16.2597 11.5492 16.2639 12.2789C16.2725 13.775 15.0478 14.9879 13.5477 14.9879C12.7473 14.9879 12.0277 14.6427 11.5306 14.0932L11.2557 14.3242C11.2089 14.3062 11.1591 14.297 11.109 14.297C10.9883 14.297 10.8738 14.35 10.7958 14.4418C10.5997 14.4674 10.4355 14.6027 10.3733 14.79C10.1666 15.2036 9.80384 15.528 9.36484 15.6765C9.36059 15.678 9.35692 15.6798 9.35325 15.6817C9.15025 15.7559 8.94675 15.8898 8.7735 16.0634C8.43117 16.4079 8.2638 16.8486 8.358 17.1579C8.34875 17.1848 8.34392 17.213 8.34384 17.2414C8.34384 17.3842 8.45992 17.5 8.60309 17.5C8.63892 17.4999 8.67434 17.4923 8.70709 17.4779C9.01667 17.5475 9.43717 17.3762 9.766 17.0464C9.95242 16.8589 10.092 16.637 10.1606 16.4194C10.3134 15.9838 10.6419 15.6288 11.0591 15.4292C11.069 15.4244 11.0771 15.4195 11.0843 15.4145C11.2242 15.3478 11.3265 15.2218 11.3629 15.0715C12.0029 15.8244 12.9625 16.3051 14.0353 16.3303C16.003 16.3765 17.4738 14.9319 17.5418 12.8546C17.576 11.8092 17.1704 10.4611 16.2463 9.35558C15.5401 8.51067 14.5045 7.80917 13.3321 7.5Z" fill="#FFD700"/>
</g>
</g>
</g>
<defs>
<clipPath id="clip0_16699_276694">
<rect width="40" height="40" fill="white"/>
</clipPath>
</defs>
</svg>
