<svg width="40" height="40" viewBox="0 0 40 40" fill="none" xmlns="http://www.w3.org/2000/svg">
<g clip-path="url(#clip0_16699_277684)">
<mask id="mask0_16699_277684" style="mask-type:luminance" maskUnits="userSpaceOnUse" x="0" y="0" width="40" height="40">
<path d="M40 20C40 8.95431 31.0457 0 20 0C8.95431 0 0 8.95431 0 20C0 31.0457 8.95431 40 20 40C31.0457 40 40 31.0457 40 20Z" fill="white"/>
</mask>
<g mask="url(#mask0_16699_277684)">
<mask id="mask1_16699_277684" style="mask-type:luminance" maskUnits="userSpaceOnUse" x="-7" y="0" width="54" height="40">
<path d="M-6.66669 0H46.6666V40H-6.66669V0Z" fill="white"/>
</mask>
<g mask="url(#mask1_16699_277684)">
<mask id="mask2_16699_277684" style="mask-type:luminance" maskUnits="userSpaceOnUse" x="-7" y="0" width="54" height="40">
<path d="M-6.66669 0H46.6669V40H-6.66669V0Z" fill="white"/>
</mask>
<g mask="url(#mask2_16699_277684)">
<path fill-rule="evenodd" clip-rule="evenodd" d="M-6.66669 0H53.3333V20H19.9997L-6.66669 0Z" fill="#ED2939"/>
<path fill-rule="evenodd" clip-rule="evenodd" d="M-6.66663 40H53.3334V20H19.9998L-6.66663 40Z" fill="#002395"/>
<path fill-rule="evenodd" clip-rule="evenodd" d="M-6.66669 0L19.9997 20L-6.66669 40V0Z" fill="white"/>
<path d="M6.79578 15.0913L6.80395 14.7817C6.80395 14.7817 6.6377 14.5168 6.83062 14.2322C6.83062 14.2322 6.42062 14.0154 6.51612 13.6757C6.51612 13.6757 6.14537 13.5809 6.17262 13.1732C6.17262 13.1732 5.77245 13.1455 5.73103 12.8048C5.73103 12.8048 5.33078 12.8707 5.1547 12.5388C5.1547 12.5388 4.76437 12.6151 4.6542 12.3414C4.6542 12.3414 4.27478 12.4729 4.04953 12.1512C4.04953 12.1512 3.64895 12.3131 3.48095 12.0095C3.31528 12.312 2.91453 12.1512 2.91453 12.1512C2.69203 12.4718 2.30987 12.3387 2.30987 12.3387C2.20362 12.6134 1.81428 12.5355 1.81428 12.5355C1.63878 12.8675 1.23912 12.8015 1.23912 12.8015C1.19987 13.1411 0.800279 13.1689 0.800279 13.1689C0.831779 13.5776 0.461614 13.6704 0.461614 13.6704C0.55928 14.0099 0.14978 14.2263 0.14978 14.2263C0.347697 14.5124 0.183114 14.7752 0.183114 14.7752L0.17378 15.0607L6.79678 15.0914" fill="#FFFF00"/>
<path d="M6.79578 15.0913L6.80395 14.7817C6.80395 14.7817 6.6377 14.5169 6.8307 14.2323C6.8307 14.2323 6.4207 14.0154 6.51603 13.6758C6.51603 13.6758 6.14528 13.5809 6.17261 13.1732C6.17261 13.1732 5.77245 13.1454 5.73103 12.8049C5.73103 12.8049 5.33078 12.8708 5.1547 12.5388C5.1547 12.5388 4.76436 12.6151 4.65428 12.3414C4.65428 12.3414 4.27478 12.4729 4.04961 12.1512C4.04961 12.1512 3.64887 12.3131 3.48087 12.0095C3.3152 12.3121 2.91445 12.1512 2.91445 12.1512C2.69203 12.4718 2.30995 12.3387 2.30995 12.3387C2.20353 12.6134 1.81428 12.5355 1.81428 12.5355C1.63878 12.8675 1.23912 12.8014 1.23912 12.8014C1.19978 13.1411 0.800279 13.1688 0.800279 13.1688C0.831779 13.5776 0.461697 13.6703 0.461697 13.6703C0.559197 14.0099 0.14978 14.2263 0.14978 14.2263C0.347697 14.5124 0.183114 14.7751 0.183114 14.7751L0.17378 15.0608L6.79686 15.0913H6.79578Z" fill="black" stroke="black" stroke-width="0.1555"/>
<path d="M6.6417 14.7044C5.60145 14.6004 4.40361 14.3534 3.47903 14.874C2.85903 14.5088 1.99603 14.5312 1.2612 14.6026C0.862115 14.674 0.392697 14.674 -0.0244693 14.7421L-0.0898027 14.7513C-0.846552 14.8016 -1.53297 14.5781 -2.19055 14.2842C-1.98172 15.4692 -1.74997 16.6836 -1.63605 17.9242C-1.38797 19.7616 -2.50564 21.3042 -2.04722 23.1192C-1.77347 23.9901 -0.815553 24.4965 0.061114 24.5968C0.910031 24.6469 1.78836 24.7859 2.57403 24.9565C2.72336 24.9876 2.90053 25.0569 3.0037 25.1015C3.22011 25.1919 3.3787 25.325 3.51778 25.4672C3.99203 24.9733 4.6872 24.836 5.37303 24.7635C6.60903 24.6191 8.13278 24.6977 8.88946 23.5782V23.5148C9.30062 22.8957 9.24612 21.9512 9.06779 21.2496C9.05579 21.0048 8.99037 20.7891 8.95496 20.5558C8.19986 18.5619 8.84646 16.3196 9.17137 14.3099C8.77446 14.5269 8.33178 14.6293 7.8902 14.7378C7.53795 14.7847 7.14545 14.7634 6.78895 14.7443L6.64128 14.7045" fill="#FF0000"/>
<path d="M8.19469 20.4268C8.18986 20.5582 8.26069 20.6613 8.28636 20.7828C8.43089 21.6543 8.57039 22.8088 7.67294 23.3495C6.68019 23.9806 5.37819 23.7103 4.22944 24.0443C3.99994 24.1082 3.68378 24.3191 3.52236 24.4684C3.41878 24.4003 3.31461 24.2957 3.18103 24.2341C2.23569 23.7316 1.00686 23.8999 -0.0601398 23.6285C-0.596056 23.459 -1.15481 23.0416 -1.29064 22.4931C-1.63956 21.0543 -0.803724 19.8278 -0.902389 18.4003C-0.966223 17.3103 -1.14947 16.2638 -1.40131 15.2418C-0.56714 15.6303 0.39836 15.6953 1.33619 15.509C2.03069 15.4118 2.83928 15.4098 3.49028 15.7035C3.84903 15.5492 4.26878 15.48 4.65536 15.4375C5.39028 15.5089 6.18028 15.6418 6.93703 15.6365C7.44253 15.6103 7.90153 15.4641 8.34098 15.2696C8.08028 16.9587 7.57986 18.728 8.19428 20.4269" fill="#80CFE1"/>
<path d="M6.69443 20.7636L6.68635 19.1753H6.88202L4.45368 17.607L4.44927 16.7922H4.68368L3.46952 15.9229L2.26135 16.7917H2.49527L2.4996 17.606L0.0843506 19.172L0.277351 19.173L0.285517 20.7603L6.69385 20.7647" fill="white"/>
<path d="M6.69454 20.7636L6.68645 19.1752H6.88212L4.45379 17.6072L4.44945 16.7923H4.68387L3.4697 15.9229L2.26145 16.7918H2.49537L2.49979 17.6061L0.0845337 19.1721L0.277534 19.1731L0.285617 20.7603L6.69395 20.7648L6.69454 20.7636Z" fill="black" stroke="black" stroke-width="0.6675"/>
<path d="M7.44154 22.8498L7.44204 23.3468L-0.380966 23.3381L-0.384216 22.8431L7.44212 22.8498" fill="white"/>
<path d="M7.44154 22.8498L7.44204 23.3468L-0.380966 23.3381L-0.384216 22.8431L7.44212 22.8498H7.44154Z" fill="black" stroke="black" stroke-width="0.6675"/>
<path d="M0.138519 22.8203L0.131935 21.1382L0.448602 21.1376L0.431269 22.8393L0.450268 21.1512L-0.00598145 21.1381V20.7772L6.9856 20.7851L6.98893 21.1426H6.55768L6.56576 22.8458L6.55052 21.1426H6.8716L6.87877 22.8267" fill="white"/>
<path d="M0.138519 22.8203L0.131935 21.1382L0.448602 21.1376L0.431269 22.8393L0.450352 21.1513L-0.00598145 21.1382V20.7773L6.9856 20.7849L6.98885 21.1426H6.5576L6.56577 22.8458L6.55052 21.1426H6.8716L6.87877 22.8268" fill="black"/>
<path d="M0.138519 22.8203L0.131935 21.1382L0.448602 21.1376L0.431269 22.8393L0.450352 21.1513L-0.00598145 21.1382V20.7773L6.9856 20.7849L6.98885 21.1426H6.5576L6.56577 22.8458L6.55052 21.1426H6.8716L6.87877 22.8268" stroke="black" stroke-width="0.6675"/>
<path d="M1.6413 22.4057L1.6363 21.2328H0.697632L0.703133 22.4046L1.6413 22.4057Z" fill="black" stroke="black" stroke-width="0.6675"/>
<path d="M0.953491 21.4772L0.956158 22.1586H1.38582L1.38366 21.4772H0.953491ZM6.23049 22.4093L6.22516 21.2375L5.28949 21.2365L5.29382 22.4093H6.23049Z" fill="black" stroke="black" stroke-width="0.6675"/>
<path d="M5.54263 21.4817L5.54755 22.1608H5.97654L5.97279 21.4817H5.54263ZM6.22329 20.4995L6.21797 19.3264H5.28113L5.28447 20.4995H6.2238H6.22329Z" fill="black" stroke="black" stroke-width="0.6675"/>
<path d="M5.53555 19.5727L5.53822 20.2529H5.9673L5.9668 19.5727H5.53555ZM1.6333 20.495L1.6268 19.3242L0.689636 19.323L0.69397 20.4943H1.63339L1.6333 20.495Z" fill="black" stroke="black" stroke-width="0.6675"/>
<path d="M0.945496 19.5682L0.947662 20.2474L1.37783 20.2485L1.37458 19.5682H0.945496ZM3.33233 20.4967L3.328 19.3259L2.39025 19.3248L2.39408 20.4967L3.33233 20.4967Z" fill="black" stroke="black" stroke-width="0.6675"/>
<path d="M4.64172 20.4994L4.63522 19.3263L3.69797 19.3253L3.70239 20.4971L4.64172 20.4994ZM2.64539 19.57L2.64755 20.2492L3.07714 20.2513L3.07447 19.57H2.64539Z" fill="black" stroke="black" stroke-width="0.6675"/>
<path d="M3.9538 19.5709L3.95705 20.2523H4.38663L4.38455 19.5709H3.9538Z" fill="black" stroke="black" stroke-width="0.6675"/>
<path d="M4.87447 20.1395L4.88489 22.8436L2.16814 22.8392L2.15839 20.1373L4.87397 20.1395" fill="white"/>
<path d="M5.86607 18.988L4.33624 17.8711L2.61724 17.869L1.09949 18.9837L5.86615 18.9879M4.87457 20.1395L4.88499 22.8435L2.16832 22.8391L2.1584 20.1373L4.87407 20.1395H4.87457ZM2.74932 16.9438L2.75199 17.6253L4.1979 17.6263L4.19515 16.9449L2.74932 16.9438Z" fill="black"/>
<path d="M2.14207 20.9113L4.87732 20.9135M2.48332 22.8427L2.47407 20.9318M4.55399 22.8436L4.54474 20.9338M5.86607 18.988L4.33624 17.8711L2.61724 17.869L1.09949 18.9837L5.86615 18.9879M4.87457 20.1395L4.88499 22.8435L2.16832 22.8391L2.1584 20.1373L4.87407 20.1395H4.87457ZM2.74932 16.9438L2.75199 17.6253L4.1979 17.6263L4.19515 16.9449L2.74932 16.9438Z" stroke="black" stroke-width="0.6675"/>
<path d="M3.14155 17.1131L3.14372 17.4526H3.80781L3.80556 17.1131H3.14155ZM3.47022 16.1685L4.27447 16.7369L2.67206 16.7349L3.47022 16.1685Z" fill="black" stroke="black" stroke-width="0.6675"/>
<path d="M6.72145 15.7835C6.94987 15.778 7.00879 16.7242 7.00929 17.193C7.20554 17.248 7.64054 17.5217 7.83304 17.7691L5.62604 17.7658C5.81587 17.5217 6.24762 17.2469 6.44229 17.1919C6.44229 16.7226 6.49029 15.777 6.72145 15.7824" fill="white"/>
<path d="M6.72142 15.7835C6.94976 15.778 7.00876 16.7242 7.00926 17.193C7.20551 17.248 7.64067 17.5217 7.83309 17.769L5.62609 17.7659C5.81576 17.5217 6.24759 17.247 6.44226 17.1919C6.44226 16.7226 6.49026 15.7769 6.72142 15.7824M2.28534 20.2147H2.48334L2.42542 20.321C2.42542 20.321 2.52092 20.4436 2.42717 20.5842L2.47892 20.6818H2.28817L2.33992 20.5891C2.33992 20.5891 2.24226 20.4261 2.34426 20.321L2.28534 20.2147ZM2.68842 20.2147H2.88634L2.82901 20.321C2.82901 20.321 2.92451 20.4404 2.82967 20.5842L2.88084 20.6818H2.69059L2.74176 20.5891C2.74176 20.5891 2.64642 20.4261 2.74667 20.321L2.68842 20.2147ZM3.12909 20.2147H3.32642L3.26751 20.321C3.26751 20.321 3.36409 20.4436 3.26909 20.5842L3.32101 20.684L3.13176 20.6819L3.18251 20.5891C3.18251 20.5891 3.08601 20.4273 3.18626 20.321L3.12851 20.2147H3.12909ZM3.62526 20.2165H3.82426L3.76592 20.324C3.76592 20.324 3.86134 20.4444 3.76651 20.5855L3.81984 20.6847H3.62792L3.67926 20.592C3.67926 20.592 3.58376 20.428 3.68576 20.3239L3.62576 20.2165H3.62526ZM4.06676 20.2165H4.26417L4.20576 20.324C4.20576 20.324 4.30176 20.4444 4.20684 20.585L4.25926 20.6847H4.06892L4.11851 20.592C4.11851 20.592 4.02259 20.4291 4.12617 20.3239L4.06676 20.2165ZM4.50559 20.2175L4.70301 20.2164L4.64459 20.3237C4.64459 20.3237 4.74226 20.4442 4.64734 20.5854L4.69701 20.6845H4.50617L4.55742 20.5919C4.55742 20.5919 4.46201 20.4289 4.56392 20.3237L4.50559 20.2175Z" fill="black"/>
<path d="M6.72142 15.7835C6.94976 15.778 7.00876 16.7242 7.00926 17.193C7.20551 17.248 7.64067 17.5217 7.83309 17.769L5.62609 17.7659C5.81576 17.5217 6.24759 17.247 6.44226 17.1919C6.44226 16.7226 6.49026 15.7769 6.72142 15.7824M2.28534 20.2147H2.48334L2.42542 20.321C2.42542 20.321 2.52092 20.4436 2.42717 20.5842L2.47892 20.6818H2.28817L2.33992 20.5891C2.33992 20.5891 2.24226 20.4261 2.34426 20.321L2.28534 20.2147ZM2.68842 20.2147H2.88634L2.82901 20.321C2.82901 20.321 2.92451 20.4404 2.82967 20.5842L2.88084 20.6818H2.69059L2.74176 20.5891C2.74176 20.5891 2.64642 20.4261 2.74667 20.321L2.68842 20.2147ZM3.12909 20.2147H3.32642L3.26751 20.321C3.26751 20.321 3.36409 20.4436 3.26909 20.5842L3.32101 20.684L3.13176 20.6819L3.18251 20.5891C3.18251 20.5891 3.08601 20.4273 3.18626 20.321L3.12851 20.2147H3.12909ZM3.62526 20.2165H3.82426L3.76592 20.324C3.76592 20.324 3.86134 20.4444 3.76651 20.5855L3.81984 20.6847H3.62792L3.67926 20.592C3.67926 20.592 3.58376 20.428 3.68576 20.3239L3.62576 20.2165H3.62526ZM4.06676 20.2165H4.26417L4.20576 20.324C4.20576 20.324 4.30176 20.4444 4.20684 20.585L4.25926 20.6847H4.06892L4.11851 20.592C4.11851 20.592 4.02259 20.4291 4.12617 20.3239L4.06676 20.2165ZM4.50559 20.2175L4.70301 20.2164L4.64459 20.3237C4.64459 20.3237 4.74226 20.4442 4.64734 20.5854L4.69701 20.6845H4.50617L4.55742 20.5919C4.55742 20.5919 4.46201 20.4289 4.56392 20.3237L4.50559 20.2175Z" stroke="black" stroke-width="0.6675"/>
<path d="M3.52929 26.3096C4.54662 26.3128 5.79787 26.1052 6.38404 25.8022L7.6712 25.6882L7.69679 27.2586C6.60637 27.8597 4.0887 27.9888 3.5347 27.9845C2.98029 27.9888 0.431454 27.8576 -0.663879 27.2542L-0.649712 25.6827L0.640287 25.7989C1.22637 26.1003 2.5157 26.3096 3.53195 26.3096H3.52929Z" fill="#FFFF00"/>
<path d="M3.52937 26.3097C4.5467 26.3129 5.79787 26.1053 6.38395 25.8023L7.67112 25.6883L7.69679 27.2586C6.60637 27.8598 4.08862 27.9889 3.53479 27.9846C2.9802 27.9889 0.431454 27.8576 -0.663879 27.2543L-0.649712 25.6829L0.640287 25.7989C1.22629 26.1004 2.5157 26.3097 3.53195 26.3097H3.52937Z" fill="black" stroke="black" stroke-width="0.1555"/>
<path d="M-4.65573 20.9337L-3.56257 21.0127C-3.53807 21.9387 -3.42582 25.4729 0.795185 25.6647L0.663768 26.9506C-4.47415 27.0039 -4.86457 22.6157 -4.65573 20.9337Z" fill="#FFFF00"/>
<path d="M-4.65573 20.9337L-3.56257 21.0127C-3.53807 21.9387 -3.42573 25.4728 0.795185 25.6647L0.663768 26.9505C-4.47415 27.0039 -4.86457 22.6157 -4.65573 20.9337Z" fill="black"/>
<path d="M-0.643231 27.2139L0.644935 26.9327M-4.65573 20.9337L-3.56257 21.0127C-3.53807 21.9387 -3.42573 25.4728 0.795185 25.6647L0.663768 26.9505C-4.47415 27.0039 -4.86457 22.6157 -4.65573 20.9337Z" stroke="black" stroke-width="0.1555"/>
<path d="M10.947 19.6247L9.81732 19.9823L10.1756 21.8153L11.2512 21.988C11.2512 21.988 11.4241 21.0233 10.947 19.6236" fill="#FFFF00"/>
<path d="M10.9469 19.6246L9.81732 19.9822L10.1756 21.8152L11.2512 21.988C11.2512 21.988 11.4241 21.0233 10.9469 19.6235V19.6246Z" fill="black" stroke="black" stroke-width="0.1555"/>
<path d="M10.1749 21.7959L11.2505 21.9889L10.5625 21.0231L10.1749 21.7959Z" fill="#7E7E7E"/>
<path d="M10.1749 21.796L11.2505 21.989L10.5625 21.0232L10.1749 21.796Z" fill="black" stroke="black" stroke-width="0.1555"/>
<path d="M11.6374 20.9481L10.5428 21.0227C10.5269 21.9477 10.4462 25.4834 6.22528 25.6709L6.3687 26.9556C11.5054 27.015 11.8589 22.6289 11.6374 20.9474" fill="#FFFF00"/>
<path d="M11.6374 20.9481L10.5427 21.0228C10.5269 21.9478 10.4463 25.4835 6.22528 25.671L6.36861 26.9557C11.5055 27.0149 11.8589 22.629 11.6374 20.9475V20.9481Z" fill="black"/>
<path d="M7.6797 27.2203L6.3882 26.9383M11.6374 20.9481L10.5427 21.0228C10.5269 21.9478 10.4463 25.4835 6.22528 25.671L6.36861 26.9557C11.5055 27.0149 11.8589 22.629 11.6374 20.9475V20.9481Z" stroke="black" stroke-width="0.1555"/>
<path d="M2.846 27.0832C2.81708 27.1017 2.77783 27.1067 2.73266 27.1045L2.52875 27.0941L2.54616 26.8396L2.7485 26.8505C2.78825 26.8531 2.81983 26.8609 2.8395 26.8729C2.88033 26.8941 2.89833 26.9334 2.8945 26.9879C2.89183 27.0347 2.87541 27.0653 2.84541 27.0831M2.50308 27.484L2.52325 27.1737L2.761 27.1901C2.83783 27.196 2.89508 27.1759 2.93383 27.1366C2.97408 27.0985 2.99491 27.0483 2.99758 26.9917C3.0025 26.9256 2.98558 26.8717 2.94633 26.8319C2.90875 26.7938 2.85533 26.7736 2.78825 26.767L2.44858 26.7459L2.40166 27.4762L2.50258 27.4828M3.24283 26.8728L3.49141 26.8755C3.52733 26.8788 3.55575 26.8831 3.5765 26.893C3.61458 26.9109 3.63266 26.9469 3.63266 26.9992C3.63266 27.0484 3.61841 27.081 3.59058 27.1007C3.56391 27.1186 3.52525 27.1267 3.47891 27.1267L3.24008 27.124L3.24225 26.8728M3.23841 27.5198L3.24058 27.208L3.474 27.2113C3.51533 27.2113 3.54583 27.2145 3.56716 27.2249C3.60158 27.2406 3.61841 27.274 3.62008 27.3197L3.62608 27.4424C3.62766 27.4717 3.62825 27.4898 3.62991 27.5017C3.63308 27.5105 3.63475 27.5197 3.63908 27.5264H3.7645L3.76233 27.5105C3.74816 27.5029 3.73666 27.4881 3.73183 27.4658C3.7275 27.4516 3.72533 27.4304 3.72416 27.4036L3.722 27.3061C3.72041 27.2619 3.71275 27.2315 3.69583 27.2145C3.67934 27.1923 3.65627 27.1759 3.62991 27.1676C3.66475 27.1492 3.69091 27.128 3.71008 27.1017C3.728 27.0728 3.73733 27.0363 3.73733 26.9917C3.73733 26.9077 3.70291 26.8505 3.63316 26.8194C3.5955 26.8025 3.54758 26.7938 3.49083 26.7927L3.14033 26.7894L3.13758 27.5219H3.23841M4.01658 27.367C3.97191 27.3126 3.94783 27.2444 3.94241 27.1638C3.93758 27.0624 3.95725 26.985 4.0035 26.9326C4.05033 26.876 4.11091 26.8488 4.19 26.8443C4.26958 26.84 4.335 26.8656 4.3835 26.9157C4.43316 26.9649 4.4615 27.033 4.46641 27.118C4.46908 27.1997 4.455 27.2722 4.41733 27.336C4.38033 27.4008 4.31866 27.4374 4.22766 27.4395C4.13275 27.4445 4.06183 27.4221 4.01658 27.367ZM3.89666 26.9059C3.84983 26.9784 3.83066 27.0624 3.83558 27.1638C3.84266 27.2733 3.8765 27.3638 3.94033 27.432C4.01116 27.5001 4.105 27.5343 4.2205 27.5279C4.34425 27.5224 4.4375 27.4755 4.50075 27.3894C4.552 27.3115 4.57658 27.221 4.57108 27.1092C4.56408 27.0095 4.53516 26.9282 4.48116 26.8678C4.41291 26.7865 4.31316 26.7505 4.178 26.756C4.05041 26.7642 3.95658 26.811 3.89616 26.9059M7.33933 25.852C7.40966 25.84 7.47075 25.8434 7.52641 25.8624C7.60816 25.888 7.66325 25.9485 7.69758 26.0412L7.59675 26.0553C7.57491 26.0053 7.54383 25.9709 7.50183 25.9518C7.461 25.9338 7.40967 25.9294 7.35083 25.9382C7.3183 25.9426 7.28703 25.9538 7.25906 25.971C7.23107 25.9881 7.20698 26.011 7.18833 26.038C7.15025 26.0967 7.13875 26.1753 7.15566 26.2755C7.16983 26.3584 7.20033 26.4287 7.2505 26.4755C7.29683 26.5235 7.365 26.5405 7.45391 26.528C7.52033 26.517 7.57383 26.4905 7.6115 26.4445C7.65066 26.401 7.66216 26.335 7.64908 26.25L7.41408 26.2859L7.40208 26.2053L7.72916 26.1551L7.79291 26.5426L7.72808 26.5525L7.68783 26.463C7.66041 26.5035 7.63325 26.5345 7.60925 26.5525C7.56891 26.5841 7.51433 26.6042 7.44625 26.6141C7.35791 26.6277 7.27725 26.6118 7.20416 26.565C7.12408 26.5055 7.07216 26.4173 7.05266 26.2946C7.03133 26.1742 7.05041 26.0712 7.10608 25.99C7.15891 25.9115 7.23575 25.8657 7.33933 25.8509M8.07916 25.7956L8.31358 25.7105C8.34571 25.6986 8.37354 25.6948 8.39754 25.6976C8.44054 25.7007 8.47221 25.7265 8.49021 25.7776C8.50712 25.8213 8.50712 25.8594 8.48804 25.8862C8.46779 25.914 8.43629 25.9341 8.39037 25.951L8.17025 26.03L8.07916 25.7956ZM8.31358 26.4012L8.19908 26.1075L8.41712 26.029C8.45804 26.0158 8.48646 26.0087 8.50771 26.011C8.54637 26.0158 8.57579 26.0393 8.59537 26.084L8.64504 26.1957C8.65596 26.2235 8.66471 26.2404 8.67171 26.248C8.67504 26.2579 8.68212 26.2639 8.68762 26.2704L8.80587 26.2268L8.79929 26.211C8.78187 26.211 8.76496 26.2012 8.75246 26.182C8.74321 26.1685 8.73446 26.1489 8.72196 26.126L8.68321 26.0343C8.66579 25.9945 8.64779 25.9701 8.62704 25.9554C8.60296 25.9426 8.57629 25.9354 8.54904 25.9341C8.57304 25.9063 8.59046 25.8785 8.59704 25.8458C8.60412 25.8125 8.60096 25.7755 8.58512 25.7341C8.55512 25.6561 8.50004 25.6136 8.42262 25.6081C8.38171 25.6049 8.33487 25.6136 8.28091 25.6326L7.95158 25.7499L8.21766 26.4388L8.31408 26.4033M9.17087 26.0382L8.75279 25.4283L9.21179 25.1355L9.26254 25.2092L8.88629 25.4495L9.01496 25.636L9.36229 25.4125L9.40971 25.484L9.06237 25.7074L9.20412 25.9129L9.58687 25.6681L9.63762 25.7401L9.17037 26.0383M9.53721 24.9593L9.65712 24.8275C9.71279 24.7685 9.77162 24.7418 9.83604 24.7495C9.90029 24.755 9.96571 24.7887 10.0355 24.8498C10.0546 24.8645 10.0715 24.8835 10.089 24.9048C10.1195 24.9446 10.1375 24.9795 10.149 25.0144C10.1587 25.058 10.1565 25.0979 10.1413 25.136C10.132 25.155 10.1156 25.1774 10.0911 25.2041L9.97062 25.335L9.53721 24.9583M10.1708 25.2455C10.2558 25.1517 10.2743 25.051 10.2247 24.937C10.1929 24.8702 10.1471 24.8109 10.0905 24.7631C10.0137 24.695 9.93354 24.6601 9.84904 24.6536C9.75529 24.6465 9.67562 24.6804 9.60646 24.756L9.40196 24.9751L9.96571 25.4668L10.1702 25.2466M10.6075 24.6773L9.95871 24.2963L10.0115 24.2124L10.6615 24.5913L10.608 24.6784M10.8618 24.235L10.1613 23.9547L10.3679 23.462L10.4529 23.4947L10.2845 23.9008L10.4954 23.9836L10.653 23.6097L10.7337 23.643L10.5778 24.0165L10.8139 24.1123L10.9866 23.7014L11.0717 23.7334L10.8613 24.235M11.1834 23.3745L10.4463 23.2115L10.4708 23.0976L11.1517 22.8676L10.5537 22.7356L10.5755 22.6463L11.3126 22.8049L11.2891 22.9155L10.6071 23.1505L11.2052 23.2796L11.184 23.3745M11.1252 22.4388L11.1344 22.3461C11.177 22.3473 11.2129 22.3406 11.2402 22.326C11.2936 22.2971 11.3247 22.2421 11.3328 22.1608C11.3361 22.1228 11.3345 22.0894 11.3258 22.0579C11.31 21.9968 11.2756 21.963 11.2205 21.9575C11.1797 21.9531 11.1503 21.963 11.129 21.9854C11.1099 22.011 11.0897 22.048 11.0745 22.1004L11.0406 22.1968C11.0188 22.26 10.9987 22.3036 10.9768 22.3281C10.942 22.374 10.8929 22.3899 10.8302 22.3855C10.7631 22.3784 10.7086 22.3517 10.67 22.3005C10.6301 22.2535 10.6137 22.1865 10.6235 22.1035C10.6301 22.028 10.6552 21.9641 10.6999 21.913C10.7413 21.866 10.8056 21.8436 10.888 21.8523L10.8803 21.945C10.84 21.945 10.8078 21.952 10.7844 21.9684C10.7419 21.9918 10.7185 22.0415 10.7114 22.114C10.7053 22.174 10.7135 22.2142 10.7364 22.2448C10.7593 22.2705 10.7882 22.2867 10.822 22.2895C10.858 22.2927 10.8864 22.2813 10.906 22.2535C10.9202 22.2344 10.937 22.193 10.96 22.126L10.9932 22.0245C11.0096 21.9777 11.0291 21.9417 11.052 21.9161C11.093 21.8736 11.1465 21.8555 11.2135 21.8605C11.2953 21.8692 11.3536 21.903 11.3835 21.9653C11.413 22.028 11.4245 22.0971 11.4174 22.1755C11.408 22.2644 11.3792 22.3342 11.3258 22.381C11.2724 22.429 11.2058 22.4453 11.1252 22.4388ZM-4.15509 22.394L-4.13817 22.4855C-4.17909 22.4937 -4.21175 22.5101 -4.23584 22.5314C-4.27875 22.5717 -4.29359 22.6322 -4.27875 22.7145C-4.27259 22.7485 -4.26075 22.781 -4.24392 22.811C-4.21117 22.8666 -4.16867 22.889 -4.11475 22.8802C-4.07484 22.8731 -4.04875 22.858 -4.03617 22.8295C-4.02425 22.8017 -4.0155 22.7592 -4.01275 22.7047L-4.00784 22.6016C-4.00467 22.538 -3.9975 22.4879 -3.98334 22.46C-3.96092 22.4098 -3.919 22.3787 -3.85625 22.3685C-3.78925 22.3564 -3.73034 22.3716 -3.67967 22.4099C-3.62842 22.4453 -3.59459 22.5068 -3.58209 22.5885C-3.56625 22.6633 -3.57334 22.7304 -3.60275 22.7908C-3.63109 22.8497 -3.68567 22.8856 -3.76909 22.9009L-3.7855 22.8083C-3.74675 22.7941 -3.71784 22.7805 -3.69884 22.7615C-3.66592 22.7249 -3.65617 22.672 -3.66884 22.5995C-3.6785 22.5405 -3.69884 22.5025 -3.72925 22.4835C-3.75925 22.461 -3.78925 22.4523 -3.822 22.4579C-3.8585 22.4633 -3.88242 22.4835 -3.89384 22.5161C-3.901 22.538 -3.90642 22.5831 -3.91134 22.6524L-3.91634 22.7592C-3.919 22.8093 -3.92659 22.8508 -3.9435 22.8792C-3.97025 22.9315 -4.0155 22.9635 -4.08142 22.974C-4.16484 22.988 -4.22925 22.969 -4.275 22.9155C-4.32192 22.8632 -4.35084 22.8005 -4.3655 22.7226C-4.38192 22.63 -4.36984 22.558 -4.33275 22.5004C-4.29525 22.441 -4.23575 22.4066 -4.155 22.3951M-4.20167 23.3601L-3.48084 23.1432L-3.31292 23.6506L-3.40075 23.6784L-3.53817 23.2615L-3.75734 23.3275L-3.63025 23.7128L-3.71425 23.7395L-3.84017 23.353L-4.08434 23.426L-3.94484 23.8523L-4.031 23.8769L-4.20167 23.3601ZM-3.88192 24.2404L-3.21892 23.8888L-3.14809 24.0125L-3.60392 24.4943L-2.93825 24.3805L-2.8695 24.503L-3.53084 24.8525L-3.57767 24.7712L-3.18734 24.5657C-3.17317 24.5575 -3.15134 24.5455 -3.11967 24.5287C-3.08867 24.5145 -3.05384 24.4955 -3.01892 24.4775L-3.68184 24.5903L-3.73034 24.5042L-3.27784 24.024L-3.29967 24.0349C-3.31384 24.043 -3.33842 24.055 -3.37159 24.0741C-3.39492 24.089 -3.41934 24.1021 -3.44467 24.1133L-3.83392 24.322L-3.88192 24.2392M-2.64684 25.2164C-2.68017 25.2087 -2.71284 25.1896 -2.74492 25.1564L-2.88509 25.0119L-2.69642 24.8391L-2.55525 24.983C-2.52792 25.0098 -2.51059 25.0359 -2.50125 25.0583C-2.48817 25.1013 -2.50125 25.1405 -2.54109 25.1776C-2.57709 25.2109 -2.613 25.2245 -2.64684 25.2164ZM-3.1795 25.2833L-2.94834 25.0713L-2.78417 25.2375C-2.73134 25.2915 -2.67734 25.316 -2.62067 25.315C-2.5639 25.3124 -2.51011 25.2889 -2.46959 25.249C-2.42059 25.2055 -2.39709 25.1542 -2.39709 25.0992C-2.39767 25.0457 -2.42225 24.9955 -2.46742 24.9487L-2.703 24.7083L-3.25142 25.2119L-3.18059 25.2833M-2.51784 25.8717L-2.12034 25.2487L-1.6505 25.5343L-1.69959 25.6085L-2.08542 25.3775L-2.20492 25.566L-1.85 25.7812L-1.89584 25.8526L-2.25125 25.6385L-2.38642 25.8493L-1.99559 26.0843L-2.04242 26.1579L-2.51784 25.8717ZM-1.34192 25.7517L-1.10317 25.8275C-1.06934 25.8379 -1.04484 25.851 -1.02842 25.8657C-0.997919 25.8946 -0.989669 25.936 -1.00767 25.9861C-1.02242 26.0297 -1.04475 26.058 -1.07967 26.0701C-1.11854 26.0765 -1.15837 26.0735 -1.19584 26.0614L-1.421 25.9895L-1.34192 25.7517ZM-1.548 26.3639L-1.44884 26.0668L-1.22634 26.1393C-1.1865 26.1497 -1.15759 26.1639 -1.14342 26.1785C-1.11617 26.203 -1.108 26.2395 -1.12159 26.2848L-1.15492 26.403C-1.1625 26.432 -1.16634 26.451 -1.16967 26.4598C-1.16967 26.4691 -1.16967 26.479 -1.168 26.4855L-1.05084 26.5235L-1.04367 26.5067C-1.05617 26.4968 -1.06334 26.479 -1.06275 26.4566C-1.06 26.4429 -1.05617 26.4211 -1.04859 26.396L-1.02025 26.3011C-1.00875 26.2597 -1.00442 26.2287 -1.01475 26.2064C-1.02454 26.1808 -1.04114 26.1584 -1.06275 26.1415C-1.02575 26.135 -0.993586 26.1235 -0.966252 26.1032C-0.940669 26.081 -0.918836 26.0499 -0.905752 26.0064C-0.879002 25.9272 -0.893752 25.8613 -0.952586 25.8111C-0.982086 25.785 -1.02409 25.7627 -1.07917 25.7419L-1.41275 25.639L-1.64609 26.3339L-1.54859 26.3639" fill="#009FC5"/>
<path d="M-0.53491 13.7169C-0.448827 13.5091 0.349423 12.9428 2.9685 13.1908C2.9685 13.1908 3.41117 13.4612 3.67125 13.4263C3.8195 13.4072 3.584 13.4356 3.39042 13.2748C3.19309 13.114 3.15109 12.7843 3.602 12.793C4.05067 12.8044 5.73042 12.8993 5.76209 13.0502C5.7915 13.2028 4.87392 13.2666 4.53267 13.2579C4.18967 13.2487 4.2295 13.422 4.57075 13.4089C5.63717 13.3708 6.80125 12.9952 8.03059 13.8645C8.17725 13.9703 7.65984 13.9872 7.25967 13.8171C7.25967 13.8171 6.17525 13.8733 5.70642 13.7964C5.70642 13.7964 5.346 14.0896 4.87659 14.0608C4.93767 14.2128 4.70317 14.7803 3.22742 14.3534C2.98367 14.4282 2.09559 14.5769 2.19267 14.3132C1.95875 14.3132 1.54875 14.3883 1.48767 14.2553C1.42884 14.1245 2.2095 13.9267 2.34642 13.785C2.34642 13.785 0.694923 13.8008 0.382007 13.6868C0.382007 13.6868 -0.59216 13.9054 -0.534993 13.7158" fill="#BC715F"/>
<path d="M-0.00575565 16.0287C0.0297444 15.9808 0.0439111 15.8947 0.119078 15.8968C0.282661 15.9404 0.393828 16.2397 0.595078 16.0456C0.666494 16.0298 0.693744 16.1268 0.752578 16.1383C0.790244 16.3046 0.923828 16.1045 1.02358 16.1159C1.23691 16.0211 1.50066 15.9987 1.75308 16.0456C1.76066 16.2086 1.63308 16.3885 1.47283 16.4812C1.47616 16.6452 1.62499 16.7504 1.62224 16.9155C1.59658 16.9772 1.61783 17.0742 1.52458 17.0942C1.40624 17.073 1.28958 17.0605 1.19149 16.9946C1.17949 16.9826 1.16966 16.9592 1.14466 16.9667C1.13258 17.0217 1.21883 17.0764 1.25258 17.1324C1.19316 17.2338 1.09449 17.1412 1.01158 17.1422C0.987078 17.2006 1.01049 17.2742 0.950494 17.3117C0.845828 17.3085 0.824578 17.1946 0.760244 17.1379C0.694244 17.2092 0.806578 17.2518 0.822411 17.3085C0.782078 17.5232 0.787578 17.7331 0.572744 17.8737L0.428828 17.9452C0.389494 17.8372 0.413994 17.6737 0.387828 17.5608C0.302828 17.6993 0.236328 17.8204 0.111494 17.9375C-0.0346725 17.8895 -0.119756 17.7173 -0.151839 17.5745C-0.212922 17.4082 -0.178006 17.2092 -0.0465888 17.0889C-0.091339 17.0017 -0.244589 17.0218 -0.266339 16.8977C-0.495922 16.7482 -0.622922 17.1592 -0.771172 16.9455C-0.819172 16.7461 -0.761922 16.498 -0.617422 16.3492C-0.649672 16.2675 -0.756589 16.2888 -0.819756 16.2419C-0.964172 16.1192 -1.17242 15.9896 -1.16217 15.7682C-0.766839 15.619 -0.294172 15.7284 -0.00683903 16.0287" fill="#008737"/>
<path d="M0.199367 16.0064C0.190201 16.1873 0.321534 16.0553 0.419117 16.1649C0.342784 16.1349 0.287117 16.2968 0.212451 16.2041L0.165617 16.2489C0.192867 16.311 0.245784 16.3192 0.190618 16.3873C0.108951 16.4183 0.0926174 16.3159 0.0543675 16.2756C0.0477842 16.2577 0.0668675 16.2238 0.0369509 16.2118C-0.00938245 16.251 -0.0578824 16.2653 -0.121716 16.2587C-0.139133 16.2238 -0.172966 16.178 -0.138549 16.1513C-0.075966 16.0668 0.0211173 16.1818 0.0686173 16.1224C0.0761173 16.0701 0.0303677 16.0064 0.0898674 15.9703C0.130701 15.9774 0.183034 15.9552 0.200034 16.0064M0.688367 16.155C0.693367 16.1899 0.670451 16.2389 0.716284 16.2636C0.775617 16.2313 0.838949 16.2558 0.873282 16.3148C0.872699 16.3463 0.882449 16.3878 0.841116 16.403L0.748368 16.3856C0.754951 16.3676 0.725451 16.3562 0.713951 16.3388C0.673117 16.3263 0.649118 16.3593 0.618701 16.3795C0.641534 16.4144 0.694534 16.4335 0.681867 16.4783C0.627367 16.5328 0.600617 16.4314 0.540701 16.4569C0.499784 16.4412 0.555368 16.3562 0.491118 16.3305C0.414784 16.3305 0.465451 16.4558 0.367784 16.4068C0.332951 16.3676 0.298618 16.3147 0.336284 16.2706C0.377118 16.2433 0.446451 16.2503 0.481284 16.2858C0.540618 16.2199 0.546617 15.9653 0.688951 16.155M0.079451 16.4173C0.119201 16.4746 0.0706176 16.5525 0.121367 16.6163C0.201034 16.4676 0.277784 16.6484 0.372701 16.6343C0.401617 16.6697 0.382534 16.7188 0.387951 16.7591C0.270784 16.7902 0.129617 16.8273 0.0259505 16.7335L-0.00296611 16.7667C0.0587005 16.824 0.117034 16.8888 0.067951 16.9847C-0.019799 17.0038 -0.155633 17.006 -0.199716 16.9155C-0.222633 16.8409 -0.146383 16.7869 -0.227049 16.7269C-0.285299 16.7994 -0.282633 16.8965 -0.404216 16.8304C-0.479466 16.7891 -0.501716 16.7036 -0.464133 16.6316C-0.385716 16.5078 -0.248299 16.6354 -0.163216 16.5748C-0.151216 16.4686 -0.190549 16.3759 -0.0928825 16.3171C-0.00946562 16.3023 0.0292008 16.365 0.0799508 16.4173" fill="#FFFF00"/>
<path d="M0.411758 16.4828C0.372508 16.6637 0.236174 16.4734 0.172424 16.4658C0.257424 16.3149 0.310924 16.515 0.411758 16.4828ZM0.836261 16.6797C0.741424 16.7064 0.756091 16.588 0.709174 16.5417L0.745841 16.5085C0.780174 16.5499 0.806258 16.6247 0.836261 16.6797Z" fill="white"/>
<path d="M0.708038 16.643C0.735288 16.7058 0.646371 16.7559 0.722205 16.8016C0.746205 16.7815 0.775621 16.7537 0.788205 16.7423C0.853037 16.7614 0.928287 16.7728 0.973537 16.8371C1.02212 16.9701 0.887454 16.9668 0.811038 17.0039L0.735204 17.0006C0.753287 16.9636 0.702621 16.9477 0.690121 16.9222C0.655121 16.9134 0.626288 16.9243 0.606621 16.9537C0.623538 17.0383 0.726621 17.1042 0.620205 17.1794C0.530288 17.1734 0.390705 17.2083 0.398871 17.084C0.365121 17.0137 0.490538 16.9052 0.356371 16.9009C0.312205 16.9958 0.263704 17.0873 0.148621 16.9974L0.162788 16.8623C0.272955 16.8654 0.403287 16.8845 0.452871 16.7614C0.484537 16.672 0.397871 16.5897 0.475205 16.5188C0.587621 16.4932 0.650788 16.5684 0.708038 16.643Z" fill="#FFFF00"/>
<path d="M0.627603 16.8462C0.655937 16.9134 0.579603 16.9177 0.543603 16.9509C0.495187 16.9547 0.461353 16.9357 0.431937 16.903C0.41002 16.8217 0.47052 16.8135 0.516937 16.7814C0.570853 16.7591 0.593187 16.8217 0.627603 16.8462Z" fill="black"/>
<path d="M0.56127 16.8901C0.549187 16.9059 0.532353 16.9011 0.514353 16.9054L0.497437 16.8242C0.533353 16.8274 0.58027 16.8389 0.56127 16.8901Z" fill="white"/>
</g>
</g>
</g>
</g>
<defs>
<clipPath id="clip0_16699_277684">
<rect width="40" height="40" fill="white"/>
</clipPath>
</defs>
</svg>
