<svg width="40" height="40" viewBox="0 0 40 40" fill="none" xmlns="http://www.w3.org/2000/svg">
<g clip-path="url(#clip0_16699_277758)">
<mask id="mask0_16699_277758" style="mask-type:luminance" maskUnits="userSpaceOnUse" x="0" y="0" width="40" height="40">
<path d="M40 0H0V40H40V0Z" fill="white"/>
</mask>
<g mask="url(#mask0_16699_277758)">
<mask id="mask1_16699_277758" style="mask-type:luminance" maskUnits="userSpaceOnUse" x="0" y="0" width="40" height="40">
<path d="M40 20C40 8.95433 31.0457 0 20 0C8.95433 0 0 8.95433 0 20C0 31.0457 8.95433 40 20 40C31.0457 40 40 31.0457 40 20Z" fill="white"/>
</mask>
<g mask="url(#mask1_16699_277758)">
<path d="M40 20C40 8.95433 31.0457 0 20 0C8.95433 0 0 8.95433 0 20C0 31.0457 8.95433 40 20 40C31.0457 40 40 31.0457 40 20Z" fill="#3E5EB9"/>
<path d="M-1 6H41V34H-1V6Z" fill="#3E5EB9"/>
<path d="M-1 11.25H41V28.75H-1V11.25Z" fill="#FFD900"/>
<path d="M-1 13H41V27H-1V13Z" fill="#B10C0C"/>
<path d="M33.4988 16.7998L31.7988 17.3998L33.4988 17.9996L35.1987 17.3998L33.4988 16.7998Z" fill="white" stroke="black" stroke-width="0.03528"/>
<path d="M32.3813 17.2002H7.81703C7.69695 17.2002 7.59961 17.2899 7.59961 17.4002C7.59961 17.5107 7.69695 17.6002 7.81703 17.6002H32.3813C32.5014 17.6002 32.5987 17.5107 32.5987 17.4002C32.5987 17.2899 32.5014 17.2002 32.3813 17.2002Z" fill="#FFD900" stroke="black" stroke-width="0.03528"/>
<path d="M32.002 17.6002C32.1018 17.6002 32.2021 17.5001 32.2021 17.4002C32.2021 17.3002 32.1018 17.2002 32.002 17.2002M31.8017 17.6002C31.9016 17.6002 32.0018 17.5001 32.0018 17.4002C32.0018 17.3002 31.9016 17.2002 31.8017 17.2002M31.6016 17.6002C31.7015 17.6002 31.8016 17.5001 31.8016 17.4002C31.8016 17.3002 31.7015 17.2002 31.6016 17.2002" fill="#FFD900"/>
<path d="M32.002 17.6002C32.1018 17.6002 32.2021 17.5001 32.2021 17.4002C32.2021 17.3002 32.1018 17.2002 32.002 17.2002M31.8017 17.6002C31.9016 17.6002 32.0018 17.5001 32.0018 17.4002C32.0018 17.3002 31.9016 17.2002 31.8017 17.2002M31.6016 17.6002C31.7015 17.6002 31.8016 17.5001 31.8016 17.4002C31.8016 17.3002 31.7015 17.2002 31.6016 17.2002" stroke="black" stroke-width="0.03528"/>
<path d="M31.8699 18.0007L30.1699 18.6007L31.8699 19.2006L33.5698 18.6007L31.8699 18.0007Z" fill="white" stroke="black" stroke-width="0.03528"/>
<path d="M30.7524 18.401H6.18813C6.06805 18.401 5.9707 18.4907 5.9707 18.6011C5.9707 18.7116 6.06805 18.8011 6.18813 18.8011H30.7524C30.8725 18.8011 30.9698 18.7116 30.9698 18.6011C30.9698 18.4907 30.8725 18.401 30.7524 18.401Z" fill="#FFD900" stroke="black" stroke-width="0.03528"/>
<path d="M30.3731 18.801C30.4728 18.801 30.5732 18.7009 30.5732 18.6011C30.5732 18.5011 30.4729 18.401 30.3731 18.401M30.1728 18.801C30.2727 18.801 30.3729 18.7009 30.3729 18.6011C30.3729 18.5011 30.2727 18.401 30.1728 18.401M29.9727 18.801C30.0724 18.801 30.1727 18.7009 30.1727 18.6011C30.1727 18.5011 30.0726 18.401 29.9727 18.401" fill="#FFD900"/>
<path d="M30.3731 18.801C30.4728 18.801 30.5732 18.7009 30.5732 18.6011C30.5732 18.5011 30.4729 18.401 30.3731 18.401M30.1728 18.801C30.2727 18.801 30.3729 18.7009 30.3729 18.6011C30.3729 18.5011 30.2727 18.401 30.1728 18.401M29.9727 18.801C30.0724 18.801 30.1727 18.7009 30.1727 18.6011C30.1727 18.5011 30.0726 18.401 29.9727 18.401" stroke="black" stroke-width="0.03528"/>
<path d="M36.8908 19.7005H3.48318C3.31988 19.7005 3.1875 19.8348 3.1875 20.0005C3.1875 20.1662 3.31988 20.3005 3.48318 20.3005H36.8908C37.0541 20.3005 37.1865 20.1662 37.1865 20.0005C37.1865 19.8348 37.0541 19.7005 36.8908 19.7005Z" fill="#FFD900" stroke="black" stroke-width="0.0378"/>
<path d="M30.0004 20.0001C28.0005 21.9999 25.3336 25.9999 20.0002 25.9999C15.3334 25.9999 12.0006 22 10 20.0001C12 17.9999 15.3332 14 20.0002 14C25.3334 14 27.9998 17.9999 30.0004 20.0001Z" fill="white" stroke="black" stroke-width="0.03528"/>
<path d="M19.3016 16.0868C19.8336 16.6852 19.3893 16.9266 19.9526 16.9658C20.5465 17.0094 20.2098 17.5982 20.7094 17.6187C21.0587 17.6339 20.6745 19.0292 21.0107 19.4897C21.3533 19.9697 21.6401 19.6303 21.6461 19.9771C21.6521 20.3357 20.7139 20.2996 20.6975 21.4043C20.67 22.0412 19.9058 22.0818 19.8693 22.4916C19.8239 22.8769 21.3748 23.0932 21.3541 23.4382C21.3328 23.7821 19.6796 23.7282 19.6076 24.1204C19.5707 24.4728 21.8788 24.7616 22.0645 25.7804C21.7201 25.8931 20.7401 25.9991 19.9995 25.9997C15.3335 26.0029 11.9999 21.9993 10 19.9994C12 17.9993 15.3332 13.9993 20.0002 13.9993C20.0002 13.9993 18.6143 15.2656 19.3016 16.0868Z" fill="black"/>
<path d="M13.9706 19.4668V17.8668M14.9401 17.8668V19.4668M15.9104 17.8668V19.4668" stroke="white" stroke-width="0.242445"/>
<path d="M13.9706 22.1337V20.5338M14.9401 20.5338V22.1337M15.9104 20.5338V22.1337" stroke="white" stroke-width="0.242445"/>
<path d="M16.8809 19.4667V17.8668M17.8504 17.8668V19.4667M18.8206 17.8668V19.4667" stroke="white" stroke-width="0.242445"/>
<path d="M16.8809 22.1341V20.5342M17.8504 20.5342V22.1341M18.8206 20.5342V22.1341" stroke="white" stroke-width="0.242445"/>
<path d="M21.3086 19.4662V17.8662M22.2781 17.8662V19.4662M23.2483 17.8662V19.4662" stroke="black" stroke-width="0.242445"/>
<path d="M21.3086 22.1332V20.5332M22.2781 20.5332V22.1332M23.2483 20.5332V22.1332" stroke="black" stroke-width="0.242445"/>
<path d="M24.2169 19.4662V17.8662M25.1864 17.8662V19.4662M26.1565 17.8662V19.4662" stroke="black" stroke-width="0.242445"/>
<path d="M24.2169 22.1332V20.5332M25.1864 20.5332V22.1332M26.1565 20.5332V22.1332" stroke="black" stroke-width="0.242445"/>
<path d="M34.7961 19.7621C34.4931 20.2868 35.0286 19.5876 36.3351 20.4659C36.5772 20.6292 36.7887 21.0603 36.7887 21.3592C36.7272 21.3181 36.6816 21.2266 36.614 21.1671C36.5192 21.2621 36.7045 21.6976 36.7316 21.9033C36.5273 21.7889 36.547 21.7348 36.4791 21.5943C36.4926 21.7642 36.4441 22.2318 36.5253 22.4119C36.3643 22.3659 36.3751 22.2364 36.2911 22.2103C36.3481 22.4143 36.2411 22.6361 36.2696 22.8653C36.1756 22.7722 36.0752 22.6993 36.0316 22.6616C36.0242 22.7708 35.8506 23.0576 35.8466 23.1607C35.7668 23.1124 35.7451 23.0373 35.7318 22.9867C35.6326 23.1113 35.2801 23.5718 35.2576 23.7122C34.9858 23.4722 34.2898 22.8878 34.1993 22.5778C34.1192 22.7538 34.0033 22.8133 33.7741 22.9418C33.6836 22.4502 33.3451 21.8978 33.5261 21.4763C33.3978 21.5524 33.2922 21.6286 33.1641 21.7222C33.2856 21.0102 33.9048 20.1754 34.7961 19.7621Z" fill="#3D5DA7" stroke="black" stroke-width="0.029925"/>
<path d="M33.666 22.3605C33.7918 22.1091 33.9078 22.0294 33.9889 21.8675C34.1325 21.5829 34.153 21.3565 34.2781 21.3896C34.4033 21.4229 34.403 21.5394 34.241 21.8191C34.0789 22.099 34.0019 22.1588 33.666 22.3605ZM34.5165 22.9596C34.5003 22.7683 34.5559 22.6883 34.5458 22.5651C34.5285 22.3481 34.4398 22.1993 34.5553 22.1886C34.6705 22.1781 34.7244 22.2521 34.7248 22.4706C34.7251 22.6893 34.6913 22.7466 34.5165 22.9596ZM35.1619 23.3349C35.1115 23.0676 35.1493 22.9491 35.117 22.7769C35.0608 22.474 34.9498 22.2746 35.0566 22.2469C35.1635 22.2191 35.2281 22.3171 35.2685 22.6244C35.309 22.9316 35.2876 23.016 35.1619 23.3349ZM35.8333 21.4624C35.6756 21.3428 35.5836 21.3348 35.482 21.2579C35.3029 21.123 35.2123 20.9786 35.1548 21.0503C35.0971 21.122 35.138 21.2004 35.3256 21.3248C35.5133 21.4493 35.5768 21.4591 35.8333 21.4624ZM35.7219 22.3493C35.6388 22.1768 35.5514 22.133 35.4976 22.022C35.4028 21.8269 35.4025 21.6581 35.2995 21.7014C35.1964 21.7446 35.1883 21.833 35.2984 22.0219C35.4085 22.2106 35.4663 22.2449 35.7219 22.3493Z" fill="#B3B3B3"/>
<path d="M4.65589 20.267C4.63895 20.1144 4.67166 20.096 4.57763 19.9807C4.7145 20.038 4.71968 20.1902 4.88609 20.0822C4.94718 20.0506 4.97383 20.0495 4.89958 19.8799C5.07309 19.888 5.6413 20.0827 5.7323 20.0872C5.97124 20.0982 6.40738 19.8362 6.71011 20.1585C7.0007 20.4521 6.90368 20.757 6.90368 21.1637C6.78692 21.1077 6.8432 21.0802 6.7193 20.9347C6.81217 21.2904 6.71435 21.9314 6.71435 22.3085C6.66666 22.2175 6.67366 22.257 6.62704 22.1629C6.50314 22.507 6.35465 22.5779 6.35465 22.9846C6.30994 22.8251 6.35311 22.8589 6.30336 22.775C6.18296 23.0362 5.37516 23.2595 5.68643 23.523C5.4055 23.3582 5.28229 23.3755 5.1549 23.2274C5.09997 23.2627 5.05638 23.3299 5.00533 23.4217C4.51136 23.1945 4.68799 22.7042 4.30099 22.3767C4.23402 22.514 4.26454 22.4941 4.19216 22.7176C4.11381 22.4072 4.09239 22.21 4.00428 21.9819C3.92826 22.1082 3.93503 22.0597 3.79699 22.251C3.73987 21.8729 3.64691 21.7836 3.68368 21.5335C3.53696 21.637 3.633 21.5951 3.48633 21.7225C3.6253 20.7536 4.22525 20.0377 4.65589 20.267Z" fill="#3D5DA7" stroke="black" stroke-width="0.037345"/>
<path d="M4.04883 21.8488C4.17613 21.537 4.29084 21.439 4.37311 21.2382C4.51834 20.8852 4.542 20.6031 4.66399 20.6462C4.78602 20.6892 4.78406 20.8346 4.62082 21.1812C4.45758 21.5282 4.38119 21.6017 4.04883 21.8488ZM4.53071 22.6293C4.58176 22.3497 4.66226 22.2478 4.69535 22.0677C4.7541 21.7511 4.72134 21.5152 4.83474 21.5277C4.94814 21.5402 4.97376 21.6597 4.8983 21.9747C4.82284 22.2897 4.77081 22.3642 4.53071 22.6293ZM5.10709 23.1718C5.12146 22.9007 5.18502 22.795 5.19454 22.6202C5.21176 22.3131 5.15263 22.0932 5.26076 22.092C5.36889 22.0907 5.40743 22.2012 5.3743 22.5087C5.34117 22.8162 5.30117 22.893 5.10709 23.1718ZM6.34478 21.3987C6.10813 21.163 5.96505 21.119 5.81236 20.9673C5.54342 20.7011 5.4135 20.4511 5.31774 20.5397C5.22198 20.6282 5.27961 20.7612 5.56274 21.0146C5.84591 21.268 5.94438 21.3048 6.34478 21.3987ZM6.20058 22.3102C6.04644 22.0735 5.93332 22.0121 5.83378 21.8597C5.65831 21.5921 5.59793 21.3621 5.49848 21.4191C5.39894 21.4761 5.4212 21.5962 5.61141 21.8557C5.80158 22.1152 5.87807 22.1627 6.20058 22.3102Z" fill="#B3B3B3"/>
<path d="M16.7681 15.0648C16.491 15.6007 17.2531 14.8866 18.4479 15.7837C18.6694 15.9503 18.9866 16.6088 18.9866 16.914C18.7324 16.8598 18.2819 16.6088 18.2819 16.6088C18.2819 16.6088 18.8105 17.1382 18.8105 17.7486C18.6237 17.6319 18.5302 17.6494 18.4681 17.506C18.4681 17.7036 18.6344 17.8296 18.6344 18.1348C18.5206 18.0435 18.3991 17.9624 18.2712 17.8926C18.4475 18.1978 17.9501 18.7898 18.1991 18.9875C17.7637 18.9245 17.3185 18.6464 17.1422 18.3412C17.0489 18.4041 17.0387 18.503 17.0351 18.6083C17.0489 18.6197 16.3726 18.1063 16.4346 17.9091C16.344 18.0364 16.3312 18.1063 16.3106 18.2498C16.0621 18.0048 15.8344 17.7598 15.7515 17.443C15.6411 17.5864 15.6341 17.5864 15.5237 17.7299C15.441 17.2279 15.441 17.2458 15.6066 16.8156C15.4892 16.8933 15.3926 16.971 15.2754 17.0667C15.3865 16.3397 15.953 15.487 16.7681 15.0648Z" fill="#3D5DA7" stroke="black" stroke-width="0.02891"/>
<path d="M16.084 17.6831C16.1282 17.3138 16.2247 17.1748 16.2537 16.9369C16.3051 16.5188 16.2441 16.2131 16.3922 16.2208C16.5405 16.2286 16.5831 16.3828 16.5099 16.8002C16.4366 17.2174 16.3749 17.3188 16.084 17.6831ZM16.8575 18.3593C16.8275 18.0478 16.885 17.9152 16.8659 17.7144C16.833 17.3613 16.7239 17.1222 16.8531 17.1003C16.9822 17.0783 17.0476 17.1967 17.0615 17.5532C17.0754 17.9097 17.041 18.0047 16.8575 18.3593ZM18.065 18.9108C17.9337 18.6413 17.8207 18.5609 17.7361 18.3874C17.5862 18.0824 17.555 17.8334 17.4396 17.8786C17.3241 17.9238 17.3304 18.0526 17.4972 18.3511C17.664 18.6494 17.7394 18.7103 18.065 18.9108ZM18.4829 16.4966C18.1484 16.3206 17.9766 16.3183 17.7611 16.2052C17.3816 16.0068 17.1607 15.7828 17.0822 15.9061C17.0037 16.0293 17.1085 16.1521 17.4997 16.3323C17.8911 16.5127 18.0112 16.5213 18.4829 16.4966ZM18.6054 17.5053C18.3619 17.3027 18.2179 17.2728 18.0607 17.1426C17.7841 16.9138 17.6464 16.6893 17.5539 16.7803C17.4615 16.8713 17.5232 16.9917 17.8137 17.2071C18.1041 17.4226 18.2034 17.4493 18.6054 17.5053Z" fill="#B3B3B3"/>
</g>
</g>
</g>
<defs>
<clipPath id="clip0_16699_277758">
<rect width="40" height="40" fill="white"/>
</clipPath>
</defs>
</svg>
