<svg width="40" height="40" viewBox="0 0 40 40" fill="none" xmlns="http://www.w3.org/2000/svg">
<g clip-path="url(#clip0_16699_277796)">
<mask id="mask0_16699_277796" style="mask-type:luminance" maskUnits="userSpaceOnUse" x="0" y="0" width="40" height="40">
<path d="M40 20C40 8.95431 31.0457 0 20 0C8.95431 0 0 8.95431 0 20C0 31.0457 8.95431 40 20 40C31.0457 40 40 31.0457 40 20Z" fill="white"/>
</mask>
<g mask="url(#mask0_16699_277796)">
<mask id="mask1_16699_277796" style="mask-type:luminance" maskUnits="userSpaceOnUse" x="-14" y="0" width="54" height="40">
<path d="M-13.3333 0H40V40H-13.3333V0Z" fill="white"/>
</mask>
<g mask="url(#mask1_16699_277796)">
<path d="M40 40V0H-13.3333V40H40Z" fill="#000066"/>
<path fill-rule="evenodd" clip-rule="evenodd" d="M-13.3333 0H17.8067V19.3473H-13.3333V0Z" fill="#000066"/>
<path d="M-13.3333 0V2.16308L14.3251 19.3472H17.8066V17.1842L-9.8519 8.33333e-05H-13.3333V0ZM17.8066 0V2.163L-9.8519 19.3472H-13.3333V17.1842L14.3251 0H17.8066Z" fill="white"/>
<path d="M-0.358314 0V19.3472H4.83169V0H-0.358314ZM-13.3333 6.44908V12.8982H17.8066V6.449L-13.3333 6.44908Z" fill="white"/>
<path d="M-13.3333 7.73892V11.6083H17.8066V7.73892H-13.3333ZM0.679604 0V19.3472H3.7936V0H0.679604ZM-13.3333 19.3472L-2.95331 12.8981H-0.632396L-11.0124 19.3472H-13.3333ZM-13.3333 0L-2.95331 6.44908H-5.27431L-13.3333 1.44208V0ZM5.1056 6.44908L15.4856 0H17.8066L7.4266 6.44908H5.1056ZM17.8067 19.3472L7.42669 12.8981H9.74769L17.8067 17.9052V19.3472Z" fill="#CC0000"/>
<path d="M37.7117 17.7035V24.3627C37.7117 29.8299 35.5642 34.8346 29.1936 37.8767C22.8256 34.8346 20.6779 29.8301 20.6779 24.3627V17.7035H37.7149H37.7117Z" fill="white" fill-opacity="0.996"/>
<path d="M37.141 18.3821V24.5933C37.141 29.6927 35.138 34.3607 29.196 37.198C23.2537 34.3607 21.251 29.6927 21.251 24.5933V18.3821H37.1418H37.141Z" fill="#FDC300" fill-opacity="0.996"/>
<path d="M25.4972 21.1044C25.3794 21.0125 25.2346 20.962 25.0851 20.9607C25.1232 20.5388 24.8167 20.3567 24.5961 20.2798C24.376 20.2033 24.2991 20.117 24.261 19.9443C24.2226 19.7719 24.1076 19.6667 23.9062 19.609C23.7049 19.5517 23.5323 19.3504 23.4557 19.2545C23.3791 19.1585 23.3501 19.1777 23.2928 19.3405C23.2352 19.5035 23.0052 19.8104 23.216 19.8201C23.0629 19.9445 22.9766 20.0882 23.0723 20.2801C22.9668 20.3665 22.8902 20.491 23.0339 20.5388C23.1779 20.5867 23.216 20.6251 23.2257 20.6635C23.0964 20.6635 23.0629 20.9223 23.3694 20.9796C23.3023 20.9894 23.2736 21.2001 23.3984 21.2001C23.2257 21.2001 23.0817 21.4591 22.8616 21.4591C22.6411 21.4591 22.5261 21.507 22.5166 21.6028C22.5068 21.6986 22.3918 21.8136 22.3345 21.8615C22.4974 21.881 22.6026 21.8615 22.6889 21.7944C22.7752 21.7273 22.9189 21.7084 23.015 21.785C23.1107 21.8615 23.3121 21.9 23.4078 21.8807C23.1971 22.0247 23.0436 22.2163 23.0244 22.3984C23.0052 22.5808 22.8808 22.7913 22.7368 22.849C22.5931 22.9063 22.4016 23.0597 22.3345 23.2418C22.5166 23.6924 22.7749 23.8038 23.0339 23.9227C23.4941 24.1332 23.7815 24.2866 23.9733 24.4974C24.1649 24.7085 24.2417 24.555 24.5291 24.9193C24.8167 25.2835 25.0851 25.9735 25.3724 26.0889C25.6601 26.2039 26.0242 26.127 26.2351 25.763C26.4461 25.3985 26.5803 21.7178 25.4972 21.1044Z" fill="#FF9E3D" stroke="black" stroke-width="0.178"/>
<path d="M25.9857 19.5707C25.7173 19.8583 25.3721 20.1457 25.4296 20.6633C25.4873 21.181 25.5446 22.0244 25.0655 22.3118C24.5863 22.5998 24.3563 23.3283 24.9313 23.7498C25.5062 24.1717 25.5255 24.6893 25.6212 25.1686C25.7173 25.6475 25.9665 26.0313 26.3499 25.7052C26.733 25.7628 26.9441 25.6093 26.9441 25.3028C26.9441 24.9963 26.9633 24.8236 27.2506 24.7275C27.5382 24.6317 27.6148 24.5359 27.7491 24.2769C27.8832 24.0183 27.9598 23.9033 27.8832 23.7498C27.8066 23.5967 27.7777 23.2803 27.8353 23.05C27.893 22.82 27.7588 22.6956 27.6819 22.5516C27.6054 22.4083 27.5767 22.2834 27.6148 22.0916C27.6532 21.9 27.5575 21.7755 27.4233 21.6794C27.2891 21.5837 27.2314 21.4878 27.2604 21.3341C27.2891 21.181 27.1643 21.0852 27.0206 20.9702C26.877 20.8552 26.7715 20.7018 26.7715 20.4718C26.7715 20.2418 26.3307 19.7048 25.9857 19.5707Z" fill="#FF927F" stroke="black" stroke-width="0.178"/>
<path d="M26.0933 25.8299C26.7353 25.667 26.678 24.6124 26.5823 24.1717C26.4861 23.7309 26.2398 23.0992 26.4288 22.5998C26.6972 21.8905 26.1027 21.2194 26.2562 20.9514C26.4096 20.6825 26.3903 20.5389 26.3712 20.4529C26.3523 20.3662 26.2083 20.2991 26.1988 20.4812C26.189 20.6637 26.1412 20.7304 26.0262 20.8454C25.9112 20.9604 25.9398 21.2097 26.0262 21.4879C26.1125 21.7658 26.2946 22.1877 26.0069 22.7434C25.7196 23.2993 25.8378 23.5472 25.9496 23.8074C26.1219 24.2101 26.5343 25.6094 26.0933 25.8299Z" fill="#FF9EE1" stroke="black" stroke-width="0.178"/>
<path d="M23.2169 19.8199C23.2888 19.8199 23.428 19.7913 23.428 19.887L23.2169 19.8199ZM23.0735 20.2799C23.1599 20.2177 23.3133 20.2897 23.4664 20.1984L23.0735 20.2799ZM23.2266 20.6633C23.3416 20.6633 23.495 20.6584 23.6387 20.5434L23.2266 20.6633ZM23.37 20.9797C23.4755 20.9797 23.6719 20.9126 23.7198 20.7738L23.37 20.9797ZM23.3993 21.2003C23.6051 21.1904 23.8785 21.2673 23.9165 21.1953L23.3993 21.2003ZM23.409 21.8808C23.5527 21.7466 23.8931 21.6557 23.9696 21.5166L23.409 21.8808ZM23.7739 19.7433C24.0133 19.8199 23.9143 19.9681 24.0325 20.0597C24.2436 20.2226 24.0517 20.405 24.2244 20.4526C24.3967 20.5004 24.3938 20.5298 24.3488 20.721C24.296 20.9464 24.5117 20.9556 24.4351 21.1044M25.0866 20.9608C24.9909 20.9608 24.7081 20.9706 24.5882 21.2247L25.0866 20.9608ZM23.041 23.726C23.1514 23.7453 23.2064 23.6823 23.2374 23.6205C23.2709 23.5533 23.2852 23.5055 23.3859 23.5009C23.4865 23.496 23.64 23.4673 23.6735 23.3905C23.7071 23.3139 23.827 23.3856 23.9276 23.1846C24.0283 22.9833 24.0954 22.7435 24.3635 22.6572" fill="black"/>
<path d="M23.2169 19.8199C23.2888 19.8199 23.428 19.7913 23.428 19.887M23.0735 20.2799C23.1599 20.2177 23.3133 20.2897 23.4664 20.1984M23.2266 20.6633C23.3416 20.6633 23.495 20.6584 23.6387 20.5434M23.37 20.9797C23.4755 20.9797 23.6719 20.9126 23.7198 20.7738M23.3993 21.2003C23.6051 21.1904 23.8785 21.2673 23.9165 21.1953M23.409 21.8808C23.5527 21.7466 23.8931 21.6557 23.9696 21.5166M23.7739 19.7433C24.0133 19.8199 23.9143 19.9681 24.0325 20.0597C24.2436 20.2226 24.0517 20.405 24.2244 20.4526C24.3967 20.5004 24.3938 20.5298 24.3488 20.721C24.296 20.9464 24.5117 20.9556 24.4351 21.1044M25.0866 20.9608C24.9909 20.9608 24.7081 20.9706 24.5882 21.2247M23.041 23.726C23.1514 23.7453 23.2064 23.6823 23.2374 23.6205C23.2709 23.5533 23.2852 23.5055 23.3859 23.5009C23.4865 23.496 23.64 23.4673 23.6735 23.3905C23.7071 23.3139 23.827 23.3856 23.9276 23.1846C24.0283 22.9833 24.0954 22.7435 24.3635 22.6572" stroke="black" stroke-width="0.178"/>
<path d="M30.644 27.9143C30.7524 28.0719 30.64 28.2423 30.824 28.3104C31.0397 28.3902 30.8515 28.674 31.1059 28.7737C31.3313 28.8626 31.1075 29.1337 31.3511 29.2555C31.569 29.3643 31.3146 29.6188 31.6055 29.7643C31.8961 29.9097 31.5508 30.2368 31.769 30.3638C31.987 30.4912 31.6965 30.8183 31.9509 30.9457C32.2053 31.0727 31.8417 31.3272 32.0779 31.5089C32.314 31.6908 32.0235 31.9631 32.2596 32.1266C32.4958 32.2902 32.1147 32.5088 32.3505 32.7446C32.5323 32.9264 32.285 33.1043 32.4232 33.3809C32.514 33.5623 32.3323 34.2895 31.8235 34.2168C31.6417 34.5257 30.9332 34.7983 30.6788 34.7075C30.4244 34.8893 29.6068 35.1437 29.1885 34.7437C28.7709 35.1437 27.9529 34.8893 27.6985 34.7075C27.4441 34.7983 26.7356 34.5257 26.5538 34.2168C26.045 34.2895 25.8632 33.5623 25.9541 33.3809C26.0922 33.1043 25.845 32.9264 26.0268 32.7446C26.2626 32.5088 25.8815 32.2905 26.1176 32.1266C26.3538 31.9628 26.0632 31.6908 26.2994 31.5089C26.5355 31.3272 26.172 31.0727 26.4265 30.9453C26.6809 30.8183 26.3903 30.4912 26.6082 30.3638C26.8265 30.2368 26.4812 29.9097 26.7717 29.7643C27.0626 29.6188 26.8082 29.3643 27.0261 29.2555C27.2698 29.1337 27.046 28.8626 27.2715 28.7737C27.5259 28.674 27.3375 28.3902 27.5532 28.3104C27.7402 28.2413 27.621 28.0663 27.7389 27.9064C28.28 28.1195 29.955 28.2723 30.644 27.9143Z" fill="#00A728" stroke="black" stroke-width="0.178"/>
<path d="M27.9565 28.8649C27.9568 28.9463 27.9549 29.0277 27.8793 29.1284C27.7158 29.3467 27.952 29.4555 27.7702 29.6921C27.5887 29.9279 27.8067 30.0732 27.6067 30.2732C27.407 30.4732 27.6432 30.6551 27.4432 30.873C27.2435 31.0912 27.4797 31.2366 27.2797 31.4366C27.0799 31.6363 27.3161 31.8546 27.1161 32.0543C26.9164 32.2543 27.1526 32.5087 26.9343 32.745C26.7164 32.9812 26.9708 33.1629 26.7891 33.3444C26.6072 33.5265 26.7708 33.708 26.6437 33.8353C26.8617 33.6718 26.8617 33.4174 27.0252 33.29C27.1887 33.1629 26.9708 32.9812 27.0617 32.8902C27.1526 32.7993 27.0799 32.4178 27.2435 32.2361C27.407 32.0543 27.2617 31.6907 27.407 31.5637C27.5522 31.4366 27.4432 31.0548 27.6249 30.9277C27.8067 30.8007 27.6249 30.4912 27.7702 30.328C27.9158 30.1644 27.7702 29.91 27.9158 29.71C28.0611 29.5099 27.9223 29.3288 28.0246 29.1649C28.0702 29.0919 28.0702 28.5652 27.9565 28.8649ZM28.481 29.0919C28.3539 29.3282 28.5718 29.3826 28.4083 29.6191C28.2448 29.8556 28.4992 30.0371 28.3175 30.2732C28.1357 30.5094 28.4083 30.6365 28.2448 30.8727C28.0813 31.1092 28.3175 31.2362 28.1722 31.4181C28.0266 31.5998 28.281 31.7816 28.0995 31.9996C27.9177 32.2178 28.1722 32.3814 28.0266 32.5811C27.8812 32.7811 28.0813 32.9991 27.9539 33.1626C27.8269 33.3262 28.0448 33.5627 27.8631 33.7807C27.6812 33.9986 27.8995 34.1442 27.7904 34.2895C28.0087 34.2168 27.9269 33.9168 28.0087 33.8532C28.0904 33.7897 27.9812 33.3717 28.1083 33.2627C28.2357 33.1538 28.0266 32.8172 28.1448 32.672C28.3448 32.4267 28.1722 32.2632 28.2901 32.0726C28.4083 31.8817 28.2452 31.6367 28.3357 31.5089C28.4901 31.2907 28.2673 31.0942 28.381 30.9365C28.5445 30.7095 28.3494 30.5222 28.4627 30.3729C28.6354 30.1458 28.4445 29.9187 28.5175 29.8005C28.5901 29.6826 28.708 29.1737 28.481 29.0919ZM29.1878 29.2903C29.0608 29.607 29.2787 29.7334 29.2061 29.9869C29.1335 30.2403 29.297 30.4302 29.1878 30.7046C29.0791 30.9792 29.3335 31.19 29.1878 31.549C29.0426 31.908 29.2817 31.9972 29.1878 32.3514C29.0791 32.7629 29.3697 32.9812 29.1878 33.2717C29.0064 33.5627 29.396 33.6587 29.2061 33.9624C29.1152 34.1077 29.2152 34.4804 29.3605 34.0351C29.5062 33.5901 29.2517 33.5353 29.3787 33.3535C29.5062 33.1717 29.3335 32.6902 29.3879 32.4358C29.4426 32.1817 29.2608 31.8363 29.3787 31.5637C29.497 31.291 29.197 31.0001 29.3152 30.7638C29.4335 30.5277 29.2608 30.2367 29.3697 30.0462C29.4787 29.8552 29.2878 29.6008 29.3335 29.4917C29.3787 29.3829 29.2878 28.9802 29.1878 29.2903Z" fill="#FDC300" fill-opacity="0.996" stroke="black" stroke-width="0.178"/>
<path d="M30.5494 28.1286C30.5494 26.0752 30.2589 25.3663 29.1865 25.3663C28.1144 25.3663 27.8239 26.0748 27.8239 28.1286H30.5494Z" fill="#EF072D" stroke="black" stroke-width="0.178"/>
<path d="M28.2236 27.9651C28.0236 28.1651 28.2601 28.3104 28.0601 28.5466C27.86 28.7828 28.0419 28.9102 27.8783 29.1282C27.7148 29.3461 27.9509 29.4553 27.7692 29.6918C27.5877 29.9279 27.8057 30.0729 27.6056 30.2729C27.4059 30.473 27.6421 30.6548 27.4421 30.8727C27.2424 31.091 27.4786 31.2363 27.2786 31.4363C27.0789 31.636 27.3151 31.8543 27.1151 32.054C26.9154 32.254 27.1515 32.5085 26.9333 32.7447C26.7154 32.9808 26.9698 33.1627 26.788 33.3441C26.6063 33.5263 26.7698 33.708 26.6428 33.8351C26.5154 33.9621 26.4974 34.1397 26.5519 34.2168M28.6047 28.0378C28.4233 28.2739 28.6956 28.3831 28.5321 28.5828C28.3685 28.7828 28.6047 28.8554 28.4777 29.092C28.3506 29.3285 28.5685 29.3826 28.405 29.6188C28.2415 29.8549 28.4959 30.0368 28.3142 30.2729C28.1324 30.5092 28.405 30.6365 28.2415 30.8727C28.078 31.1089 28.3142 31.2363 28.1689 31.4181C28.0233 31.5998 28.2777 31.7813 28.0962 31.9996C27.9144 32.2178 28.1689 32.3811 28.0233 32.5811C27.8779 32.7812 28.078 32.9991 27.9506 33.1627C27.8236 33.3262 28.0415 33.5623 27.8597 33.7807C27.6779 33.9989 27.8962 34.1439 27.7871 34.2895C27.6779 34.4348 27.5919 34.6482 27.6962 34.7075M29.1878 28.256C29.0973 28.6359 29.3152 28.9738 29.1878 29.2903C29.0608 29.607 29.2787 29.7334 29.206 29.9869C29.1334 30.2403 29.2969 30.4303 29.1878 30.7046C29.079 30.9793 29.3334 31.19 29.1878 31.549C29.0425 31.9081 29.2816 31.9973 29.1878 32.3514C29.079 32.7629 29.3696 32.9812 29.1878 33.2718C29.0064 33.5627 29.3517 33.6353 29.206 33.9624C29.0608 34.2895 29.2969 34.4169 29.1878 34.744M30.152 27.9651C30.352 28.1651 30.1155 28.3104 30.3155 28.5466C30.5156 28.7828 30.3338 28.9102 30.4974 29.1282C30.6609 29.3461 30.4247 29.4553 30.6064 29.6918C30.7879 29.9279 30.5699 30.0729 30.77 30.2729C30.9697 30.473 30.7335 30.6548 30.9335 30.8727C31.1332 31.091 30.897 31.2363 31.097 31.4363C31.2967 31.636 31.0605 31.8543 31.2605 32.054C31.4603 32.254 31.2241 32.5085 31.4424 32.7447C31.6603 32.9808 31.4059 33.1627 31.5876 33.3441C31.7694 33.5263 31.6059 33.708 31.7329 33.8351C31.8603 33.9621 31.8785 34.1397 31.8238 34.2168M29.7709 28.0378C29.9524 28.2739 29.68 28.3831 29.8435 28.5828C30.0071 28.7828 29.7709 28.8554 29.8979 29.092C30.0254 29.3282 29.807 29.3826 29.9706 29.6188C30.1341 29.8549 29.8797 30.0368 30.0614 30.2729C30.2433 30.5092 29.9706 30.6365 30.1341 30.8727C30.2976 31.1089 30.0614 31.2363 30.2068 31.4181C30.3524 31.5998 30.0979 31.7813 30.2797 31.9996C30.4612 32.2178 30.2068 32.3811 30.3524 32.5811C30.4977 32.7812 30.2976 32.9991 30.425 33.1627C30.552 33.3262 30.3341 33.5623 30.5159 33.7807C30.6977 33.9989 30.4794 34.1439 30.5885 34.2895C30.6977 34.4348 30.784 34.6482 30.6794 34.7075" fill="black"/>
<path d="M28.2236 27.9651C28.0236 28.1651 28.2601 28.3104 28.0601 28.5466C27.86 28.7828 28.0419 28.9102 27.8783 29.1282C27.7148 29.3461 27.9509 29.4553 27.7692 29.6918C27.5877 29.9279 27.8057 30.0729 27.6056 30.2729C27.4059 30.473 27.6421 30.6548 27.4421 30.8727C27.2424 31.091 27.4786 31.2363 27.2786 31.4363C27.0789 31.636 27.3151 31.8543 27.1151 32.054C26.9154 32.254 27.1515 32.5085 26.9333 32.7447C26.7154 32.9808 26.9698 33.1627 26.788 33.3441C26.6063 33.5263 26.7698 33.708 26.6428 33.8351C26.5154 33.9621 26.4974 34.1397 26.5519 34.2168M28.6047 28.0378C28.4233 28.2739 28.6956 28.3831 28.5321 28.5828C28.3685 28.7828 28.6047 28.8554 28.4777 29.092C28.3506 29.3285 28.5685 29.3826 28.405 29.6188C28.2415 29.8549 28.4959 30.0368 28.3142 30.2729C28.1324 30.5092 28.405 30.6365 28.2415 30.8727C28.078 31.1089 28.3142 31.2363 28.1689 31.4181C28.0233 31.5998 28.2777 31.7813 28.0962 31.9996C27.9144 32.2178 28.1689 32.3811 28.0233 32.5811C27.8779 32.7812 28.078 32.9991 27.9506 33.1627C27.8236 33.3262 28.0415 33.5623 27.8597 33.7807C27.6779 33.9989 27.8962 34.1439 27.7871 34.2895C27.6779 34.4348 27.5919 34.6482 27.6962 34.7075M29.1878 28.256C29.0973 28.6359 29.3152 28.9738 29.1878 29.2903C29.0608 29.607 29.2787 29.7334 29.206 29.9869C29.1334 30.2403 29.2969 30.4303 29.1878 30.7046C29.079 30.9793 29.3334 31.19 29.1878 31.549C29.0425 31.9081 29.2816 31.9973 29.1878 32.3514C29.079 32.7629 29.3696 32.9812 29.1878 33.2718C29.0064 33.5627 29.3517 33.6353 29.206 33.9624C29.0608 34.2895 29.2969 34.4169 29.1878 34.744M30.152 27.9651C30.352 28.1651 30.1155 28.3104 30.3155 28.5466C30.5156 28.7828 30.3338 28.9102 30.4974 29.1282C30.6609 29.3461 30.4247 29.4553 30.6064 29.6918C30.7879 29.9279 30.5699 30.0729 30.77 30.2729C30.9697 30.473 30.7335 30.6548 30.9335 30.8727C31.1332 31.091 30.897 31.2363 31.097 31.4363C31.2967 31.636 31.0605 31.8543 31.2605 32.054C31.4603 32.254 31.2241 32.5085 31.4424 32.7447C31.6603 32.9808 31.4059 33.1627 31.5876 33.3441C31.7694 33.5263 31.6059 33.708 31.7329 33.8351C31.8603 33.9621 31.8785 34.1397 31.8238 34.2168M29.7709 28.0378C29.9524 28.2739 29.68 28.3831 29.8435 28.5828C30.0071 28.7828 29.7709 28.8554 29.8979 29.092C30.0254 29.3282 29.807 29.3826 29.9706 29.6188C30.1341 29.8549 29.8797 30.0368 30.0614 30.2729C30.2433 30.5092 29.9706 30.6365 30.1341 30.8727C30.2976 31.1089 30.0614 31.2363 30.2068 31.4181C30.3524 31.5998 30.0979 31.7813 30.2797 31.9996C30.4612 32.2178 30.2068 32.3811 30.3524 32.5811C30.4977 32.7812 30.2976 32.9991 30.425 33.1627C30.552 33.3262 30.3341 33.5623 30.5159 33.7807C30.6977 33.9989 30.4794 34.1439 30.5885 34.2895C30.6977 34.4348 30.784 34.6482 30.6794 34.7075" stroke="black" stroke-width="0.178"/>
<path d="M27.8261 28.1286C27.8261 26.0752 28.1167 25.3663 29.1887 25.3663C28.6981 25.3663 28.3984 25.7478 28.3167 26.0023C28.2349 26.2567 28.2802 26.2384 28.3893 26.1388C28.4984 26.039 28.4437 26.2567 28.3532 26.3749C28.2623 26.4928 28.1714 26.8291 28.2984 26.7203C28.4258 26.6111 28.5254 26.7385 28.3893 26.9291C28.2532 27.1197 28.1349 27.5653 28.271 27.4109C28.4075 27.2562 28.4346 27.5106 28.3532 27.638C28.271 27.765 28.2802 27.8742 28.3532 27.8198C28.4258 27.765 28.4167 28.0286 28.344 28.1286H27.8261ZM30.3409 28.0107C30.3409 26.4022 30.1412 25.9208 29.7415 25.7573C29.5151 25.6644 29.5086 25.6847 29.6168 25.83C29.7249 25.9752 29.7083 26.1843 29.6083 26.0387C29.5086 25.8934 29.4754 25.8661 29.4337 25.9299C29.3919 25.9934 29.5499 26.2932 29.6666 26.5658C29.7604 26.7851 29.6998 26.8929 29.5584 26.675C29.417 26.457 29.417 26.6544 29.5412 26.8385C29.7004 27.0748 29.6956 27.7928 29.6956 28.0924L30.3409 28.0107Z" fill="black" stroke="black" stroke-width="0.178"/>
<path d="M29.188 28.4285C29.615 28.4285 30.0825 28.3524 30.3965 28.2305C30.7691 28.0859 30.789 27.9588 30.66 27.7965C30.5692 27.6822 30.3692 27.751 30.1786 27.8347C29.9877 27.9184 29.4606 27.9715 29.188 27.9715C28.9157 27.9715 28.3886 27.9184 28.1977 27.8347C28.0071 27.7506 27.8071 27.6822 27.7162 27.7965C27.5872 27.9588 27.6071 28.0859 27.9797 28.2305C28.2934 28.3524 28.7612 28.4285 29.188 28.4285Z" fill="#EF072D" stroke="black" stroke-width="0.178"/>
<path fill-rule="evenodd" clip-rule="evenodd" d="M33.3295 25.71C33.3295 25.71 33.6092 26.193 33.8144 26.545C34.0194 26.8969 34.1857 26.9771 34.3342 26.8727C34.4827 26.7683 34.3566 26.4814 34.2376 26.3453C34.1186 26.2091 33.4643 25.5703 33.4643 25.5703L33.3295 25.71Z" fill="#B95A1E" stroke="black" stroke-width="0.2035"/>
<path fill-rule="evenodd" clip-rule="evenodd" d="M33.2623 25.7473C33.2623 25.7473 33.373 26.301 33.4549 26.7051C33.5368 27.109 33.6681 27.2432 33.8412 27.197C34.0143 27.1508 33.9863 26.8361 33.9172 26.6658C33.8481 26.4956 33.4335 25.6631 33.4335 25.6631L33.2623 25.7473Z" fill="#B95A1E" stroke="black" stroke-width="0.2035"/>
<path fill-rule="evenodd" clip-rule="evenodd" d="M33.1454 25.7645C33.1454 25.7645 33.1448 26.3304 33.1454 26.7436C33.146 27.1567 33.2481 27.3167 33.4265 27.3094C33.6049 27.3022 33.6394 26.9881 33.6053 26.8064C33.5713 26.6248 33.3296 25.7196 33.3296 25.7196L33.1454 25.7645Z" fill="#B95A1E" stroke="black" stroke-width="0.2035"/>
<path fill-rule="evenodd" clip-rule="evenodd" d="M33.1458 25.7535C33.6587 25.746 33.7152 25.56 33.7152 25.56C33.7152 25.56 33.8291 25.173 33.7722 25.0761C33.7152 24.9794 33.1458 24.9794 33.1458 24.9794V25.7535Z" fill="#B95A1E" stroke="black" stroke-width="0.2035"/>
<path fill-rule="evenodd" clip-rule="evenodd" d="M33.1461 25.3663C33.6968 25.3663 33.7885 25.1727 33.7885 25.1727C33.7885 25.1727 33.9721 24.7856 33.8804 24.6889C33.7885 24.592 33.1462 24.592 33.1462 24.592V25.3663H33.1461Z" fill="#B95A1E" stroke="black" stroke-width="0.2035"/>
<path fill-rule="evenodd" clip-rule="evenodd" d="M33.1461 24.979C33.605 24.979 33.8803 24.7855 33.8803 24.7855C33.8803 24.7855 34.0639 24.3984 33.9721 24.3016C33.8803 24.2048 33.1461 24.2049 33.1461 24.2049V24.979ZM33.4555 21.41C33.4555 21.41 33.911 20.926 34.7082 20.4421C35.5054 19.9583 36.0821 19.586 36.1887 19.668C36.1887 19.7647 35.5054 20.2486 34.936 20.6357C34.3665 21.0228 33.6831 21.6035 33.6831 21.6035L33.4554 21.41H33.4555ZM33.5086 21.7972C33.5086 21.7972 33.9589 21.513 34.8225 21.1198C35.6725 20.7706 36.8724 20.8295 36.8724 20.9262C36.7585 21.023 35.7335 21.023 35.0502 21.3133C34.3979 21.5905 33.7363 21.9907 33.7363 21.9907L33.5085 21.7971L33.5086 21.7972ZM33.5136 22.464C33.5136 22.464 33.91 22.2724 34.8275 21.98C35.7385 21.6897 36.948 21.8833 36.948 21.98C36.8342 22.0768 35.8525 22.018 35.1692 22.1735C34.4622 22.3252 33.7415 22.6575 33.7415 22.6575L33.5138 22.4639L33.5136 22.464ZM33.557 23.1405C33.557 23.1405 34.0139 22.7527 34.987 22.6565C35.9661 22.5598 36.7632 23.1405 36.7632 23.2371C36.6495 23.334 35.7379 22.8112 35.0552 22.886C34.3309 22.9605 33.7844 23.334 33.7844 23.334L33.5566 23.1404L33.557 23.1405Z" fill="#B95A1E" stroke="black" stroke-width="0.2035"/>
<path fill-rule="evenodd" clip-rule="evenodd" d="M33.1461 24.4958C33.9727 24.4882 33.9721 24.2472 33.9721 24.2472C33.9721 24.2472 34.1556 23.8601 34.0639 23.7633C33.9721 23.6665 33.1462 23.7216 33.1462 23.7216V24.4958H33.1461Z" fill="#B95A1E" stroke="black" stroke-width="0.2035"/>
<path fill-rule="evenodd" clip-rule="evenodd" d="M33.1461 24.1085C33.9727 24.1009 34.0639 23.915 34.0639 23.915C34.0639 23.915 34.2474 23.5279 34.1556 23.4311C34.0639 23.3344 33.1461 23.3344 33.1461 23.3344V24.1085Z" fill="#B95A1E" stroke="black" stroke-width="0.2035"/>
<path fill-rule="evenodd" clip-rule="evenodd" d="M33.1461 23.6247C33.9727 23.617 34.1556 23.4311 34.1556 23.4311C34.1556 23.4311 34.3391 23.044 34.2474 22.9472C34.1556 22.8505 33.1461 22.8505 33.1461 22.8505V23.6247Z" fill="#B95A1E" stroke="black" stroke-width="0.2035"/>
<path fill-rule="evenodd" clip-rule="evenodd" d="M33.1461 23.1408C33.9727 23.1332 34.2475 22.9472 34.2475 22.9472C34.2475 22.9472 34.3392 22.5601 34.2475 22.4634C34.1556 22.3666 33.1461 22.3666 33.1461 22.3666V23.1408ZM33.3301 21.0116C33.3301 21.0116 34.0643 20.5276 34.0643 20.1406C34.0643 19.7534 33.7406 19.3663 33.6489 19.1727C33.8324 19.1727 34.2479 19.7534 34.2479 20.1406C34.2479 20.5636 33.558 21.2051 33.558 21.2051L33.3302 21.0115L33.3301 21.0116Z" fill="#B95A1E" stroke="black" stroke-width="0.2035"/>
<path fill-rule="evenodd" clip-rule="evenodd" d="M33.3301 21.0115C33.3301 21.0115 33.2384 20.7212 33.2384 20.1405C33.2384 19.4631 33.6434 19.0323 33.789 18.8824C33.8269 19.0322 33.4219 19.5599 33.4219 20.1405C33.4219 20.5636 33.5579 21.2051 33.5579 21.2051L33.3301 21.0115ZM33.1461 22.6569C33.9727 22.6493 34.2475 22.4634 34.2475 22.4634C34.2475 22.4634 34.2475 22.0762 34.1556 21.9794C34.0639 21.8827 33.1462 21.8827 33.1462 21.8827V22.6569H33.1461Z" fill="#B95A1E" stroke="black" stroke-width="0.2035"/>
<path fill-rule="evenodd" clip-rule="evenodd" d="M33.1461 22.173C33.9727 22.1653 34.1556 21.9794 34.1556 21.9794C34.1556 21.9794 34.1556 21.5923 34.0639 21.4955C33.9721 21.3987 33.1462 21.3987 33.1462 21.3987V22.173H33.1461Z" fill="#B95A1E" stroke="black" stroke-width="0.2035"/>
<path fill-rule="evenodd" clip-rule="evenodd" d="M35.5317 27.9795C35.2465 27.3113 35.1646 26.1408 35.1646 25.9472C35.1646 25.4021 35.3353 22.751 35.3482 21.689C35.361 20.627 34.7058 20.0438 34.0634 20.0438C33.5127 20.0438 33.1456 20.4309 33.1456 21.0116H33.421C33.421 20.6245 33.6963 20.3341 34.0634 20.3341C34.614 20.3341 35.0372 20.7915 35.0729 21.689C35.1123 22.7263 34.9625 25.4195 34.981 26.1407C34.9997 26.8618 35.2465 27.5048 35.5317 27.9794V27.9795Z" fill="#B95A1E" stroke="#FDC301" stroke-width="0.513"/>
<path fill-rule="evenodd" clip-rule="evenodd" d="M32.9624 25.71C32.9624 25.71 32.6827 26.193 32.4775 26.545C32.2725 26.8969 32.1062 26.9772 31.9577 26.8727C31.8092 26.7683 31.9353 26.4814 32.0542 26.3453C32.1733 26.2092 32.8276 25.5703 32.8276 25.5703L32.9624 25.71ZM33.1461 20.959C33.7891 20.9598 34.067 21.5183 34.0654 21.507L33.8803 21.6891C33.782 21.7859 33.1461 21.7859 33.154 21.7854L33.1461 20.959Z" fill="#B95A1E" stroke="black" stroke-width="0.2035"/>
<path fill-rule="evenodd" clip-rule="evenodd" d="M33.0287 25.7473C33.0287 25.7473 32.918 26.301 32.8361 26.7051C32.7541 27.109 32.6229 27.2432 32.4498 27.197C32.2767 27.1508 32.3048 26.8361 32.3739 26.6658C32.443 26.4956 32.8575 25.6631 32.8575 25.6631L33.0287 25.7473Z" fill="#B95A1E" stroke="black" stroke-width="0.2035"/>
<path fill-rule="evenodd" clip-rule="evenodd" d="M33.1456 25.7645C33.1456 25.7645 33.1462 26.3304 33.1456 26.7436C33.1449 27.1567 33.0429 27.3167 32.8645 27.3094C32.6861 27.3022 32.6516 26.9881 32.6857 26.8064C32.7197 26.6248 32.9614 25.7196 32.9614 25.7196L33.1456 25.7645Z" fill="#B95A1E" stroke="black" stroke-width="0.2035"/>
<path fill-rule="evenodd" clip-rule="evenodd" d="M33.1453 25.7535C32.6324 25.746 32.5758 25.56 32.5758 25.56C32.5758 25.56 32.462 25.173 32.5189 25.0761C32.5758 24.9794 33.1453 24.9794 33.1453 24.9794L33.1453 25.7535Z" fill="#B95A1E" stroke="black" stroke-width="0.2035"/>
<path fill-rule="evenodd" clip-rule="evenodd" d="M33.1449 25.3663C32.5943 25.3663 32.5025 25.1727 32.5025 25.1727C32.5025 25.1727 32.3189 24.7856 32.4107 24.6889C32.5024 24.592 33.1449 24.592 33.1449 24.592V25.3663Z" fill="#B95A1E" stroke="black" stroke-width="0.2035"/>
<path fill-rule="evenodd" clip-rule="evenodd" d="M33.1451 24.979C32.6862 24.979 32.4109 24.7855 32.4109 24.7855C32.4109 24.7855 32.2274 24.3984 32.3191 24.3016C32.411 24.2048 33.1451 24.2049 33.1451 24.2049V24.979ZM32.8358 21.41C32.8358 21.41 32.3802 20.926 31.5831 20.4421C30.7859 19.9583 30.2091 19.586 30.1026 19.668C30.1026 19.7647 30.7859 20.2486 31.3553 20.6357C31.9248 21.0228 32.6081 21.6035 32.6081 21.6035L32.8359 21.41H32.8358ZM32.7833 21.7972C32.7833 21.7972 32.333 21.513 31.4695 21.1198C30.6195 20.7706 29.4196 20.8295 29.4196 20.9262C29.5334 21.023 30.5584 21.023 31.2417 21.3133C31.8941 21.5905 32.5556 21.9907 32.5556 21.9907L32.7834 21.7971L32.7833 21.7972ZM32.7784 22.464C32.7784 22.464 32.3819 22.2724 31.4646 21.98C30.5536 21.6897 29.3441 21.8833 29.3441 21.98C29.4578 22.0768 30.4395 22.018 31.1228 22.1735C31.8298 22.3252 32.5505 22.6575 32.5505 22.6575L32.7782 22.4639L32.7784 22.464ZM32.735 23.1405C32.735 23.1405 32.2781 22.7527 31.3049 22.6565C30.3258 22.5598 29.5287 23.1405 29.5287 23.2371C29.6425 23.334 30.5541 22.8112 31.2367 22.886C31.961 22.9605 32.5076 23.334 32.5076 23.334L32.7353 23.1404L32.735 23.1405Z" fill="#B95A1E" stroke="black" stroke-width="0.2035"/>
<path fill-rule="evenodd" clip-rule="evenodd" d="M33.145 24.4958C32.3185 24.4882 32.3191 24.2472 32.3191 24.2472C32.3191 24.2472 32.1355 23.8601 32.2274 23.7633C32.3191 23.6665 33.145 23.7216 33.145 23.7216V24.4958Z" fill="#B95A1E" stroke="black" stroke-width="0.2035"/>
<path fill-rule="evenodd" clip-rule="evenodd" d="M33.145 24.1085C32.3184 24.1009 32.2273 23.915 32.2273 23.915C32.2273 23.915 32.0438 23.5279 32.1356 23.4311C32.2273 23.3344 33.145 23.3344 33.145 23.3344V24.1085Z" fill="#B95A1E" stroke="black" stroke-width="0.2035"/>
<path fill-rule="evenodd" clip-rule="evenodd" d="M33.1449 23.6247C32.3184 23.617 32.1354 23.4311 32.1354 23.4311C32.1354 23.4311 31.9519 23.044 32.0437 22.9472C32.1355 22.8505 33.1449 22.8505 33.1449 22.8505V23.6247Z" fill="#B95A1E" stroke="black" stroke-width="0.2035"/>
<path fill-rule="evenodd" clip-rule="evenodd" d="M33.1449 23.1408C32.3183 23.1332 32.0436 22.9472 32.0436 22.9472C32.0436 22.9472 31.9519 22.5601 32.0436 22.4634C32.1354 22.3666 33.1449 22.3666 33.1449 22.3666V23.1408ZM32.9617 21.0116C32.9617 21.0116 32.2276 20.5276 32.2276 20.1406C32.2276 19.7534 32.5512 19.3663 32.643 19.1727C32.4595 19.1727 32.044 19.7534 32.044 20.1406C32.044 20.5636 32.7339 21.2051 32.7339 21.2051L32.9616 21.0115L32.9617 21.0116Z" fill="#B95A1E" stroke="black" stroke-width="0.2035"/>
<path fill-rule="evenodd" clip-rule="evenodd" d="M32.9618 21.0115C32.9618 21.0115 33.0535 20.7212 33.0535 20.1405C33.0535 19.4631 32.6485 19.0323 32.503 18.8824C32.465 19.0322 32.87 19.5599 32.87 20.1405C32.87 20.5636 32.734 21.2051 32.734 21.2051L32.9618 21.0115ZM33.145 22.6569C32.3184 22.6493 32.0437 22.4634 32.0437 22.4634C32.0437 22.4634 32.0437 22.0762 32.1355 21.9794C32.2273 21.8827 33.145 21.8827 33.145 21.8827V22.6569Z" fill="#B95A1E" stroke="black" stroke-width="0.2035"/>
<path fill-rule="evenodd" clip-rule="evenodd" d="M33.1449 22.173C32.3183 22.1653 32.1354 21.9794 32.1354 21.9794C32.1354 21.9794 32.1354 21.5923 32.2272 21.4955C32.319 21.3987 33.1449 21.3987 33.1449 21.3987V22.173Z" fill="#B95A1E" stroke="black" stroke-width="0.2035"/>
<path fill-rule="evenodd" clip-rule="evenodd" d="M30.7594 27.9795C31.0446 27.3113 31.1265 26.1408 31.1265 25.9472C31.1265 25.4021 30.9558 22.751 30.9429 21.689C30.9301 20.627 31.5853 20.0438 32.2277 20.0438C32.7783 20.0438 33.1455 20.4309 33.1455 21.0116H32.8701C32.8701 20.6245 32.5948 20.3341 32.2277 20.3341C31.6771 20.3341 31.2539 20.7915 31.2182 21.689C31.1788 22.7263 31.3286 25.4195 31.31 26.1407C31.2914 26.8618 31.0446 27.5048 30.7594 27.9794V27.9795Z" fill="#B95A1E" stroke="#FDC301" stroke-width="0.513"/>
<path fill-rule="evenodd" clip-rule="evenodd" d="M33.145 20.959C32.502 20.9598 32.2241 21.5183 32.2257 21.507L32.4109 21.6891C32.5092 21.7859 33.145 21.7859 33.1371 21.7854L33.145 20.959Z" fill="#B95A1E" stroke="black" stroke-width="0.2035"/>
</g>
</g>
</g>
<defs>
<clipPath id="clip0_16699_277796">
<rect width="40" height="40" fill="white"/>
</clipPath>
</defs>
</svg>
