<svg width="40" height="40" viewBox="0 0 40 40" fill="none" xmlns="http://www.w3.org/2000/svg">
<g clip-path="url(#clip0_16699_277914)">
<mask id="mask0_16699_277914" style="mask-type:luminance" maskUnits="userSpaceOnUse" x="0" y="0" width="40" height="40">
<path d="M40 0H0V40H40V0Z" fill="white"/>
</mask>
<g mask="url(#mask0_16699_277914)">
<mask id="mask1_16699_277914" style="mask-type:luminance" maskUnits="userSpaceOnUse" x="0" y="0" width="40" height="40">
<path d="M40 20C40 8.95433 31.0457 0 20 0C8.95433 0 0 8.95433 0 20C0 31.0457 8.95433 40 20 40C31.0457 40 40 31.0457 40 20Z" fill="white"/>
</mask>
<g mask="url(#mask1_16699_277914)">
<path d="M-10 0H50V40H-10V0Z" fill="#006600"/>
<path d="M-10 0H50V28.5714H-10V0Z" fill="white"/>
<path d="M-10 0H50V11.4286H-10V0Z" fill="#CC0000"/>
<path d="M18.4002 19.4495C18.4782 19.3153 18.5977 19.2103 18.7408 19.1501C18.8838 19.09 19.0426 19.0781 19.193 19.1161C19.3434 19.1542 19.4773 19.2403 19.5745 19.3613C19.6717 19.4822 19.7268 19.6316 19.7316 19.7867V22.6438H20.2687V19.7867C20.2735 19.6316 20.3286 19.4822 20.4258 19.3613C20.523 19.2403 20.6569 19.1542 20.8074 19.1161C20.9578 19.0781 21.1165 19.09 21.2596 19.1501C21.4026 19.2103 21.5222 19.3153 21.6002 19.4495C21.6842 19.1962 21.7069 18.9265 21.6663 18.6627C21.6258 18.399 21.5232 18.1486 21.367 17.9322C21.2107 17.7158 21.0054 17.5395 20.7678 17.418C20.5301 17.2965 20.2671 17.2331 20.0002 17.2331C19.7333 17.2331 19.4702 17.2965 19.2326 17.418C18.995 17.5395 18.7896 17.7158 18.6334 17.9322C18.4772 18.1486 18.3746 18.399 18.334 18.6627C18.2935 18.9265 18.3161 19.1962 18.4002 19.4495Z" fill="#F8C300"/>
<path d="M18.7832 18.704C19.0177 18.656 19.2614 18.6829 19.4796 18.7807C19.698 18.8787 19.8801 19.0427 20.0004 19.2497C20.1205 19.0427 20.3027 18.8787 20.521 18.7807C20.7395 18.6829 20.983 18.656 21.2175 18.704C21.1771 18.4097 21.0316 18.1402 20.8079 17.9452C20.5841 17.7501 20.2972 17.6426 20.0004 17.6426C19.7035 17.6426 19.4166 17.7501 19.193 17.9452C18.9691 18.1402 18.8236 18.4097 18.7832 18.704Z" fill="white"/>
<path d="M19.7316 21.5026C19.6953 21.908 19.5456 22.295 19.2998 22.6195C19.0541 22.9439 18.7221 23.1928 18.3418 23.3376C17.9613 23.4825 17.5479 23.5175 17.1486 23.4388C16.7493 23.36 16.3801 23.1706 16.0833 22.8921C15.9564 23.2105 15.7588 23.4959 15.5053 23.7265C15.2516 23.9571 14.9489 24.127 14.6199 24.2231C14.2909 24.3194 13.9444 24.3394 13.6065 24.2816C13.2686 24.224 12.9483 24.0901 12.6699 23.8901C12.8785 25.9716 15.9986 25.5468 16.2311 23.5229C17.2113 25.2436 19.3668 24.7509 19.9973 22.6429L19.7316 21.5026Z" fill="#F8C300"/>
<path d="M20.2684 21.5026C20.3048 21.908 20.4544 22.295 20.7002 22.6195C20.9459 22.9439 21.2779 23.1928 21.6583 23.3376C22.0387 23.4825 22.4521 23.5175 22.8514 23.4388C23.2507 23.36 23.6199 23.1706 23.9167 22.8921C24.0436 23.2105 24.2413 23.4959 24.4948 23.7265C24.7484 23.9571 25.0511 24.127 25.3801 24.2231C25.7091 24.3194 26.0556 24.3394 26.3935 24.2816C26.7314 24.224 27.0517 24.0901 27.3301 23.8901C27.1215 25.9716 24.0014 25.5468 23.7689 23.5229C22.7887 25.2436 20.6333 24.7509 20.0027 22.6429L20.2684 21.5026Z" fill="#F8C300"/>
<path d="M17.6466 25.199C17.2112 26.1387 16.3412 26.3002 15.5801 25.5416C15.5801 25.5416 15.886 25.3253 16.2136 25.2658C16.1521 25.0043 16.2781 24.6428 16.4556 24.4473C16.6417 24.5745 16.9015 24.8295 16.9676 25.1258C17.4264 25.0663 17.6466 25.199 17.6466 25.199Z" fill="#F8C300"/>
<path d="M21.0534 25.0925C20.4709 25.9488 19.5862 25.9664 18.9587 25.094C18.9587 25.094 19.2957 24.9306 19.6287 24.9251C19.6107 24.6572 19.7937 24.3209 20.0007 24.1569C20.1637 24.3127 20.3784 24.6066 20.3953 24.9097C20.8577 24.9258 21.0534 25.0925 21.0534 25.0925Z" fill="#F8C300"/>
<path d="M24.4304 25.5417C23.7162 26.2918 22.8404 26.1652 22.3634 25.2022C22.3634 25.2022 22.7226 25.0958 23.0519 25.1446C23.0777 24.8773 23.3132 24.5753 23.5441 24.4473C23.6794 24.6275 23.8436 24.9525 23.8109 25.2543C24.2644 25.3453 24.4304 25.5417 24.4304 25.5417Z" fill="#F8C300"/>
<path d="M14.457 27.2951C18.0739 26.2185 21.9259 26.2185 25.5428 27.2951" stroke="#F8C300" stroke-width="0.457143"/>
<path d="M18.6426 13.2534H21.3599L19.1615 14.8506L20.0012 12.2662L20.8409 14.8506L18.6426 13.2534Z" fill="#F8C300"/>
<path d="M14.6428 14.3257H17.3601L15.1618 15.9228L16.0015 13.3385L16.8411 15.9228L14.6428 14.3257Z" fill="#F8C300"/>
<path d="M11.7148 17.254H14.4322L12.2338 18.8512L13.0736 16.2669L13.9133 18.8512L11.7148 17.254Z" fill="#F8C300"/>
<path d="M10.6426 21.254H13.3599L11.1615 22.8512L12.0012 20.2669L12.8409 22.8512L10.6426 21.254Z" fill="#F8C300"/>
<path d="M25.3573 14.3257H22.64L24.8383 15.9228L23.9986 13.3385L23.159 15.9228L25.3573 14.3257Z" fill="#F8C300"/>
<path d="M28.2852 17.2534H25.5679L27.7662 18.8506L26.9265 16.2662L26.0868 18.8506L28.2852 17.2534Z" fill="#F8C300"/>
<path d="M29.3574 21.2534H26.6401L28.8385 22.8506L27.9988 20.2662L27.1591 22.8506L29.3574 21.2534Z" fill="#F8C300"/>
</g>
</g>
</g>
<defs>
<clipPath id="clip0_16699_277914">
<rect width="40" height="40" fill="white"/>
</clipPath>
</defs>
</svg>
