<svg width="40" height="40" viewBox="0 0 40 40" fill="none" xmlns="http://www.w3.org/2000/svg">
<g clip-path="url(#clip0_16699_277941)">
<mask id="mask0_16699_277941" style="mask-type:luminance" maskUnits="userSpaceOnUse" x="0" y="0" width="40" height="40">
<path d="M40 20C40 8.95431 31.0457 0 20 0C8.95431 0 0 8.95431 0 20C0 31.0457 8.95431 40 20 40C31.0457 40 40 31.0457 40 20Z" fill="white"/>
</mask>
<g mask="url(#mask0_16699_277941)">
<mask id="mask1_16699_277941" style="mask-type:luminance" maskUnits="userSpaceOnUse" x="0" y="0" width="54" height="40">
<path d="M0 0H53.3333V40H0V0Z" fill="white"/>
</mask>
<g mask="url(#mask1_16699_277941)">
<path d="M0 0H53.3333V40H0V0Z" fill="#00247D"/>
<path d="M10.108 26.4731C9.72171 26.4673 13.7284 24.3366 17.0779 21.5995C21.4708 18.0136 30.9311 12.2797 33.7156 11.3442C34.0039 11.246 33.1219 11.8408 33.0065 12.0313C30.0375 15.5538 32.407 22.1943 36.1196 25.5376C37.238 26.3923 37.1804 26.4384 39.25 26.5193V26.7156L10.108 26.4731ZM9.86587 26.8599C9.86587 26.8599 9.58337 27.0621 9.58337 27.2122C9.58337 27.3797 9.90046 27.5991 9.90046 27.5991L38.639 27.9167L39.1693 27.5644L38.4314 27.1083L9.86587 26.8599Z" fill="#FED100"/>
<path d="M10.0315 12.3034L9.80233 13.0074L10.3983 12.5745L10.9885 13.0074L10.7651 12.3034L11.3553 11.8706H10.6218L10.3983 11.1666L10.1691 11.8706H9.4355L10.0315 12.3034ZM14.5072 15.6155L15 15.252H14.3868L14.1977 14.6692L14.0086 15.252H13.4012L13.894 15.6155L13.7048 16.1984L14.1977 15.8348L14.6962 16.1984L14.5072 15.6155ZM6.18625 16.3657L5.957 15.6617L5.7335 16.3657H5L5.59025 16.7985L5.36675 17.5025L5.957 17.0696L6.553 17.5025L6.32375 16.7985L6.91975 16.3657H6.18625ZM10.6619 23.4228L10.3983 22.6034L10.1347 23.4228H9.27508L9.9685 23.9248L9.70483 24.75L10.3983 24.2422L11.0917 24.75L10.8223 23.9248L11.5157 23.4228H10.6619Z" fill="white"/>
</g>
</g>
</g>
<defs>
<clipPath id="clip0_16699_277941">
<rect width="40" height="40" fill="white"/>
</clipPath>
</defs>
</svg>
