<svg width="40" height="40" viewBox="0 0 40 40" fill="none" xmlns="http://www.w3.org/2000/svg">
<g clip-path="url(#clip0_16699_277966)">
<mask id="mask0_16699_277966" style="mask-type:luminance" maskUnits="userSpaceOnUse" x="0" y="0" width="40" height="40">
<path d="M40 0H0V40H40V0Z" fill="white"/>
</mask>
<g mask="url(#mask0_16699_277966)">
<mask id="mask1_16699_277966" style="mask-type:luminance" maskUnits="userSpaceOnUse" x="0" y="0" width="40" height="40">
<path d="M40 20C40 8.95433 31.0457 0 20 0C8.95433 0 0 8.95433 0 20C0 31.0457 8.95433 40 20 40C31.0457 40 40 31.0457 40 20Z" fill="white"/>
</mask>
<g mask="url(#mask1_16699_277966)">
<path d="M58 0H-2V40H58V0Z" fill="#00843D"/>
<path d="M27.788 4.43622C29.5612 5.19758 30.8036 6.95962 30.8036 9.01144C30.8036 11.7597 28.575 13.9884 25.8266 13.9884C24.5963 13.9884 23.4703 13.5414 22.6016 12.8014C23.1391 13.0319 23.7262 13.1711 24.345 13.1981C27.0906 13.318 29.4143 11.1886 29.5342 8.44302C29.6038 6.84893 28.9151 5.39716 27.788 4.43622Z" fill="white"/>
<path d="M23.0413 8.09489L23.6052 6.35938L22.1289 7.43198H23.9537L22.4774 6.35938L23.0413 8.09489Z" fill="white"/>
<path d="M23.0413 5.53502L23.6052 3.7995L22.1289 4.87209H23.9537L22.4774 3.7995L23.0413 5.53502Z" fill="white"/>
<path d="M25.5706 6.84685L26.1345 5.11133L24.6582 6.18393H26.483L25.0067 5.11133L25.5706 6.84685Z" fill="white"/>
<path d="M20.512 9.34291L21.0759 7.60742L19.5996 8.68H21.4244L19.9481 7.60742L20.512 9.34291Z" fill="white"/>
<path d="M23.0413 10.6548L23.6052 8.91925L22.1289 9.99183H23.9537L22.4774 8.91925L23.0413 10.6548Z" fill="white"/>
<path d="M15.9992 0H5.19922V40H15.9992V0Z" fill="#D22630"/>
<path d="M5.19922 -2.64124V-2.24929L5.80656 -1.68079L5.60175 -1.49011L6.03608 -1.08757L5.8454 -0.914544V-1.16524H5.47463V-0.86511L6.3115 -0.0812075H6.73523L6.78114 -0.356631H6.53749L6.80231 -0.603806L7.46615 6.59549e-06L6.80231 0.60735L6.53749 0.360176H6.78114L6.73523 0.0812213H6.3115L5.47463 0.865131V1.16527H5.8454V0.914565L6.03608 1.08758L5.60175 1.49012L5.80656 1.68433L5.19922 2.24931V2.64126L6.22675 1.68433L6.02195 1.49012L6.45274 1.08758L6.08197 0.74154L6.32916 0.515551L6.80231 0.953406L7.84046 1.85164e-05L6.80231 -0.953369L6.32916 -0.511984L6.08197 -0.741505L6.45274 -1.08754L6.02195 -1.49009L6.22675 -1.68077L5.19922 -2.64124ZM5.19922 -0.737985V0.738001L5.43933 0.494357V0.208345H5.69357L5.89836 1.18407e-05L5.69357 -0.20479H5.43933V-0.494339L5.19922 -0.737985ZM6.95063 -0.215386L6.91531 -0.0141149L6.95063 0.190688L7.16955 -0.0141149L6.95063 -0.215386Z" fill="#383739"/>
<path d="M5.19932 -2.59894V-2.2882L5.84903 -1.68085L5.64422 -1.49018L6.07855 -1.08764L5.81725 -0.843996V-1.13708H5.50298V-0.875771L6.32572 -0.109534H6.70708L6.74592 -0.328461H6.46343L6.80241 -0.646257L7.50863 -7.01766e-05L6.80241 0.646116L6.46343 0.331851H6.74592L6.70698 0.109394H6.32563L5.50288 0.875637V1.13693H5.81715V0.843854L6.07845 1.0875L5.64412 1.49005L5.84894 1.68425L5.19922 2.28806V2.5988L6.18438 1.68425L5.97958 1.49005L6.41037 1.0875L6.0396 0.741453L6.32916 0.473092L6.80231 0.914479L7.79455 -7.09713e-05L6.80231 -0.914621L6.32916 -0.473234L6.0396 -0.741595L6.41037 -1.08764L5.97958 -1.49019L6.18438 -1.68085L5.19932 -2.59894ZM5.19932 -0.695685V0.695556L5.41118 0.483691V0.176492H5.68307L5.85962 -6.17524e-05L5.68307 -0.176616H5.41118V-0.483819L5.19932 -0.695685ZM6.9719 -0.15896L6.94719 -0.0141869L6.9719 0.130587L7.12727 -0.0141869L6.9719 -0.15896Z" fill="#FFC72C"/>
<path d="M5.19922 4.63934V5.03129L5.80656 5.59979L5.60175 5.79047L6.03608 6.19301L5.8454 6.36604V6.11533H5.47463V6.41547L6.3115 7.19937H6.73523L6.78114 6.92395H6.53749L6.80231 6.67677L7.46615 7.28058L6.80231 7.88793L6.53749 7.64075H6.78114L6.73523 7.3618H6.3115L5.47463 8.14571V8.44585H5.8454V8.19514L6.03608 8.36818L5.60175 8.77069L5.80656 8.96494L5.19922 9.52985V9.92185L6.22675 8.96494L6.02195 8.77069L6.45274 8.36818L6.08197 8.02212L6.32916 7.79613L6.80231 8.23399L7.84046 7.2806L6.80231 6.32721L6.32916 6.76859L6.08197 6.53907L6.45274 6.19303L6.02195 5.79049L6.22675 5.59981L5.19922 4.63934ZM5.19922 6.54259V8.01858L5.43933 7.77494V7.48892H5.69357L5.89836 7.28059L5.69357 7.07579H5.43933V6.78624L5.19922 6.54259ZM6.95063 7.06519L6.91531 7.26646L6.95063 7.47127L7.16955 7.26646L6.95063 7.06519Z" fill="#383739"/>
<path d="M5.19932 4.68164V4.99238L5.84903 5.59972L5.64422 5.7904L6.07855 6.19294L5.81725 6.43659V6.14351H5.50298V6.40481L6.32572 7.17105H6.70708L6.74592 6.95212H6.46343L6.80241 6.63432L7.50863 7.28051L6.80241 7.9267L6.46343 7.61243H6.74592L6.70698 7.38997H6.32563L5.50288 8.15621V8.4175H5.81715V8.12443L6.07845 8.36808L5.64412 8.77058L5.84894 8.96483L5.19922 9.56867V9.87942L6.18438 8.96483L5.97958 8.77058L6.41037 8.36808L6.0396 8.02203L6.32916 7.75367L6.80231 8.19506L7.79455 7.28051L6.80231 6.36596L6.32916 6.80735L6.0396 6.53898L6.41037 6.19294L5.97958 5.7904L6.18438 5.59972L5.19932 4.68164ZM5.19932 6.5849V7.97614L5.41118 7.76427V7.45707H5.68307L5.85962 7.28052L5.68307 7.10396H5.41118V6.79676L5.19932 6.5849ZM6.9719 7.12162L6.94719 7.26639L6.9719 7.41117L7.12727 7.26639L6.9719 7.12162Z" fill="#FFC72C"/>
<path d="M5.19922 12.1595V12.5515L5.80656 13.12L5.60175 13.3106L6.03608 13.7132L5.8454 13.8862V13.6355H5.47463V13.9356L6.3115 14.7195H6.73523L6.78114 14.4441H6.53749L6.80231 14.197L7.46615 14.8007L6.80231 15.4081L6.53749 15.161H6.78114L6.73523 14.882H6.3115L5.47463 15.6659V15.966H5.8454V15.7154L6.03608 15.8884L5.60175 16.2909L5.80656 16.485L5.19922 17.05V17.442L6.22675 16.485L6.02195 16.2909L6.45274 15.8884L6.08197 15.5424L6.32916 15.3164L6.80231 15.7541L7.84046 14.8007L6.80231 13.8474L6.32916 14.2887L6.08197 14.0592L6.45274 13.7132L6.02195 13.3106L6.22675 13.12L5.19922 12.1595ZM5.19922 14.0627V15.5387L5.43933 15.2951V15.0091H5.69357L5.89836 14.8007L5.69357 14.596H5.43933V14.3065L5.19922 14.0627ZM6.95063 14.5854L6.91531 14.7866L6.95063 14.9915L7.16955 14.7866L6.95063 14.5854Z" fill="#383739"/>
<path d="M5.19932 12.2018V12.5126L5.84903 13.1199L5.64422 13.3106L6.07855 13.7131L5.81725 13.9568V13.6638H5.50298V13.925L6.32572 14.6913H6.70708L6.74592 14.4723H6.46343L6.80241 14.1545L7.50863 14.8008L6.80241 15.4469L6.46343 15.1326H6.74592L6.70698 14.9103H6.32563L5.50288 15.6764V15.9378H5.81715V15.6446L6.07845 15.8883L5.64412 16.2908L5.84894 16.485L5.19922 17.0888V17.3996L6.18438 16.485L5.97958 16.2908L6.41037 15.8883L6.0396 15.5423L6.32916 15.2739L6.80231 15.7153L7.79455 14.8008L6.80231 13.8863L6.32916 14.3275L6.0396 14.0593L6.41037 13.7131L5.97958 13.3106L6.18438 13.1199L5.19932 12.2018ZM5.19932 14.1051V15.4963L5.41118 15.2845V14.9773H5.68307L5.85962 14.8008L5.68307 14.6243H5.41118V14.317L5.19932 14.1051ZM6.9719 14.6418L6.94719 14.7866L6.9719 14.9314L7.12727 14.7866L6.9719 14.6418Z" fill="#FFC72C"/>
<path d="M5.19922 19.679V20.071L5.80656 20.6395L5.60175 20.8302L6.03608 21.2328L5.8454 21.4058V21.155H5.47463V21.4552L6.3115 22.239H6.73523L6.78114 21.9637H6.53749L6.80231 21.7164L7.46615 22.3203L6.80231 22.9277L6.53749 22.6804H6.78114L6.73523 22.4015H6.3115L5.47463 23.1854V23.4855H5.8454V23.2348L6.03608 23.4079L5.60175 23.8104L5.80656 24.0047L5.19922 24.5697V24.9615L6.22675 24.0047L6.02195 23.8104L6.45274 23.4079L6.08197 23.0619L6.32916 22.8358L6.80231 23.2738L7.84046 22.3203L6.80231 21.3669L6.32916 21.8084L6.08197 21.5788L6.45274 21.2328L6.02195 20.8303L6.22675 20.6395L5.19922 19.679ZM5.19922 21.5824V23.0584L5.43933 22.8147V22.5287H5.69357L5.89836 22.3203L5.69357 22.1155H5.43933V21.8259L5.19922 21.5824ZM6.95063 22.1049L6.91531 22.3062L6.95063 22.5109L7.16955 22.3062L6.95063 22.1049Z" fill="#383739"/>
<path d="M5.19932 19.7213V20.0321L5.84903 20.6394L5.64422 20.8301L6.07855 21.2326L5.81725 21.4762V21.1831H5.50298V21.4444L6.32572 22.2107H6.70708L6.74592 21.9917H6.46343L6.80241 21.6741L7.50863 22.3201L6.80241 22.9663L6.46343 22.6521H6.74592L6.70698 22.4296H6.32563L5.50288 23.1958V23.4571H5.81715V23.1641L6.07845 23.4077L5.64412 23.8103L5.84894 24.0046L5.19922 24.6083V24.9191L6.18438 24.0046L5.97958 23.8103L6.41037 23.4077L6.0396 23.0617L6.32916 22.7933L6.80231 23.2347L7.79455 22.3201L6.80231 21.4056L6.32916 21.8471L6.0396 21.5786L6.41037 21.2326L5.97958 20.8301L6.18438 20.6393L5.19932 19.7213ZM5.19932 21.6246V23.0158L5.41118 22.8039V22.4967H5.68307L5.85962 22.3201L5.68307 22.1436H5.41118V21.8364L5.19932 21.6246ZM6.9719 22.1612L6.94719 22.3061L6.9719 22.4508L7.12727 22.3061L6.9719 22.1612Z" fill="#FFC72C"/>
<path d="M5.19922 27.1986V27.5906L5.80656 28.1591L5.60175 28.3498L6.03608 28.7523L5.8454 28.9253V28.6746H5.47463V28.9748L6.3115 29.7587H6.73523L6.78114 29.4832H6.53749L6.80231 29.2361L7.46615 29.8399L6.80231 30.4472L6.53749 30.2001H6.78114L6.73523 29.9211H6.3115L5.47463 30.705V31.0051H5.8454V30.7544L6.03608 30.9275L5.60175 31.33L5.80656 31.5242L5.19922 32.0892V32.4811L6.22675 31.5242L6.02195 31.33L6.45274 30.9275L6.08197 30.5814L6.32916 30.3554L6.80231 30.7933L7.84046 29.8399L6.80231 28.8865L6.32916 29.3279L6.08197 29.0984L6.45274 28.7523L6.02195 28.3498L6.22675 28.1591L5.19922 27.1986ZM5.19922 29.1019V30.5779L5.43933 30.3342V30.0482H5.69357L5.89836 29.8399L5.69357 29.6351H5.43933V29.3455L5.19922 29.1019ZM6.95063 29.6245L6.91531 29.8258L6.95063 30.0306L7.16955 29.8258L6.95063 29.6245Z" fill="#383739"/>
<path d="M5.19932 27.241V27.5516L5.84903 28.1591L5.64422 28.3497L6.07855 28.7522L5.81725 28.9958V28.7028H5.50298V28.9641L6.32572 29.7303H6.70708L6.74592 29.5115H6.46343L6.80241 29.1936L7.50863 29.8398L6.80241 30.4861L6.46343 30.1717H6.74592L6.70698 29.9492H6.32563L5.50288 30.7156V30.9768H5.81715V30.6837L6.07845 30.9273L5.64412 31.33L5.84894 31.5241L5.19922 32.128V32.4386L6.18438 31.5241L5.97958 31.33L6.41037 30.9273L6.0396 30.5813L6.32916 30.313L6.80231 30.7543L7.79455 29.8398L6.80231 28.9252L6.32916 29.3666L6.0396 29.0982L6.41037 28.7522L5.97958 28.3497L6.18438 28.1591L5.19932 27.241ZM5.19932 29.1442V30.5355L5.41118 30.3235V30.0163H5.68307L5.85962 29.8398L5.68307 29.6632H5.41118V29.3561L5.19932 29.1442ZM6.9719 29.681L6.94719 29.8257L6.9719 29.9705L7.12727 29.8257L6.9719 29.681Z" fill="#FFC72C"/>
<path d="M16.002 -2.64124V-2.24929L15.3946 -1.68079L15.5994 -1.49011L15.1651 -1.08757L15.3557 -0.914544V-1.16524H15.7265V-0.86511L14.8897 -0.0812075H14.4659L14.42 -0.356631H14.6637L14.3989 -0.603806L13.735 6.59549e-06L14.3989 0.60735L14.6637 0.360176H14.42L14.4659 0.0812213H14.8897L15.7265 0.865131V1.16527H15.3557V0.914565L15.1651 1.08758L15.5994 1.49012L15.3946 1.68433L16.002 2.24931V2.64126L14.9744 1.68433L15.1792 1.49012L14.7484 1.08758L15.1192 0.74154L14.872 0.515551L14.3989 0.953406L13.3607 1.85164e-05L14.3989 -0.953369L14.872 -0.511984L15.1192 -0.741505L14.7484 -1.08754L15.1792 -1.49009L14.9744 -1.68077L16.002 -2.64124ZM16.002 -0.737985V0.738001L15.7617 0.494357V0.208345H15.5076L15.3027 1.18407e-05L15.5076 -0.20479H15.7617V-0.494339L16.002 -0.737985ZM14.2505 -0.215386L14.2859 -0.0141149L14.2505 0.190688L14.0316 -0.0141149L14.2505 -0.215386Z" fill="#383739"/>
<path d="M16.0019 -2.59894V-2.2882L15.3521 -1.68085L15.557 -1.49018L15.1226 -1.08764L15.3839 -0.843996V-1.13708H15.6982V-0.875771L14.8755 -0.109534H14.4941L14.4553 -0.328461H14.7377L14.3988 -0.646257L13.6925 -7.01766e-05L14.3988 0.646116L14.7377 0.331851H14.4553L14.4942 0.109394H14.8755L15.6983 0.875637V1.13693H15.384V0.843854L15.1227 1.0875L15.557 1.49005L15.3522 1.68425L16.002 2.28806V2.5988L15.0168 1.68425L15.2216 1.49005L14.7908 1.0875L15.1616 0.741453L14.872 0.473092L14.3989 0.914479L13.4066 -7.09713e-05L14.3989 -0.914621L14.872 -0.473234L15.1616 -0.741595L14.7908 -1.08764L15.2216 -1.49019L15.0168 -1.68085L16.0019 -2.59894ZM16.0019 -0.695685V0.695556L15.79 0.483691V0.176492H15.5181L15.3416 -6.17524e-05L15.5181 -0.176616H15.79V-0.483819L16.0019 -0.695685ZM14.2293 -0.15896L14.254 -0.0141869L14.2293 0.130587L14.0739 -0.0141869L14.2293 -0.15896Z" fill="#FFC72C"/>
<path d="M16.002 4.63934V5.03129L15.3946 5.59979L15.5994 5.79047L15.1651 6.19301L15.3557 6.36603V6.11533H15.7265V6.41547L14.8897 7.19937H14.4659L14.42 6.92394H14.6637L14.3989 6.67677L13.735 7.28058L14.3989 7.88793L14.6637 7.64075H14.42L14.4659 7.3618H14.8897L15.7265 8.1457V8.44585H15.3557V8.19514L15.1651 8.36818L15.5994 8.77069L15.3946 8.96494L16.002 9.52985V9.92185L14.9744 8.96494L15.1792 8.77069L14.7484 8.36818L15.1192 8.02212L14.872 7.79613L14.3989 8.23399L13.3607 7.28059L14.3989 6.32721L14.872 6.76859L15.1192 6.53907L14.7484 6.19303L15.1792 5.79049L14.9744 5.59981L16.002 4.63934ZM16.002 6.54259V8.01858L15.7617 7.77494V7.48892H15.5076L15.3027 7.28059L15.5076 7.07579H15.7617V6.78624L16.002 6.54259ZM14.2505 7.06519L14.2859 7.26646L14.2505 7.47126L14.0316 7.26646L14.2505 7.06519Z" fill="#383739"/>
<path d="M16.0019 4.68164V4.99237L15.3521 5.59972L15.557 5.7904L15.1226 6.19294L15.3839 6.43658V6.1435H15.6982V6.4048L14.8755 7.17104H14.4941L14.4553 6.95212H14.7377L14.3988 6.63432L13.6925 7.28051L14.3988 7.92669L14.7377 7.61243H14.4553L14.4942 7.38997H14.8755L15.6983 8.15621V8.4175H15.384V8.12443L15.1227 8.36808L15.557 8.77058L15.3522 8.96483L16.002 9.56867V9.87942L15.0168 8.96483L15.2216 8.77058L14.7908 8.36808L15.1616 8.02203L14.872 7.75367L14.3989 8.19505L13.4066 7.28051L14.3989 6.36596L14.872 6.80734L15.1616 6.53898L14.7908 6.19294L15.2216 5.79039L15.0168 5.59972L16.0019 4.68164ZM16.0019 6.58489V7.97613L15.79 7.76427V7.45707H15.5181L15.3416 7.28052L15.5181 7.10396H15.79V6.79676L16.0019 6.58489ZM14.2293 7.12162L14.254 7.26639L14.2293 7.41116L14.0739 7.26639L14.2293 7.12162Z" fill="#FFC72C"/>
<path d="M16.002 12.1588V12.5508L15.3946 13.1193L15.5994 13.3101L15.1651 13.7126L15.3557 13.8856V13.6348H15.7265V13.9351L14.8897 14.7189H14.4659L14.42 14.4434H14.6637L14.3989 14.1963L13.735 14.8001L14.3989 15.4074L14.6637 15.1602H14.42L14.4659 14.8813H14.8897L15.7265 15.6652V15.9653H15.3557V15.7146L15.1651 15.8877L15.5994 16.2902L15.3946 16.4844L16.002 17.0494V17.4413L14.9744 16.4844L15.1792 16.2902L14.7484 15.8877L15.1192 15.5416L14.872 15.3156L14.3989 15.7536L13.3607 14.8001L14.3989 13.8467L14.872 14.2881L15.1192 14.0586L14.7484 13.7126L15.1792 13.3101L14.9744 13.1193L16.002 12.1588ZM16.002 14.0621V15.5381L15.7617 15.2944V15.0084H15.5076L15.3027 14.8001L15.5076 14.5953H15.7617V14.3057L16.002 14.0621ZM14.2505 14.5847L14.2859 14.7861L14.2505 14.9908L14.0316 14.7861L14.2505 14.5847Z" fill="#383739"/>
<path d="M16.0019 12.2012V12.5118L15.3521 13.1193L15.557 13.3098L15.1226 13.7125L15.3839 13.9561V13.6631H15.6982V13.9243L14.8755 14.6906H14.4941L14.4553 14.4717H14.7377L14.3988 14.1538L13.6925 14.8001L14.3988 15.4462L14.7377 15.132H14.4553L14.4942 14.9095H14.8755L15.6983 15.6758V15.9371H15.384V15.644L15.1227 15.8876L15.557 16.2902L15.3522 16.4843L16.002 17.0882V17.3988L15.0168 16.4843L15.2216 16.2902L14.7908 15.8876L15.1616 15.5416L14.872 15.2732L14.3989 15.7146L13.4066 14.8001L14.3989 13.8855L14.872 14.3268L15.1616 14.0585L14.7908 13.7125L15.2216 13.3098L15.0168 13.1193L16.0019 12.2012ZM16.0019 14.1043V15.4957L15.79 15.2838V14.9766H15.5181L15.3416 14.8001L15.5181 14.6235H15.79V14.3163L16.0019 14.1043ZM14.2293 14.6412L14.254 14.7858L14.2293 14.9307L14.0739 14.7858L14.2293 14.6412Z" fill="#FFC72C"/>
<path d="M16.002 19.679V20.0709L15.3946 20.6394L15.5994 20.8302L15.1651 21.2327L15.3557 21.4058V21.1549H15.7265V21.4552L14.8897 22.239H14.4659L14.42 21.9637H14.6637L14.3989 21.7164L13.735 22.3203L14.3989 22.9275L14.6637 22.6804H14.42L14.4659 22.4014H14.8897L15.7265 23.1853V23.4855H15.3557V23.2348L15.1651 23.4079L15.5994 23.8103L15.3946 24.0045L16.002 24.5695V24.9615L14.9744 24.0045L15.1792 23.8103L14.7484 23.4079L15.1192 23.0618L14.872 22.8358L14.3989 23.2737L13.3607 22.3203L14.3989 21.3669L14.872 21.8083L15.1192 21.5788L14.7484 21.2327L15.1792 20.8302L14.9744 20.6394L16.002 19.679ZM16.002 21.5823V23.0583L15.7617 22.8147V22.5285H15.5076L15.3027 22.3203L15.5076 22.1154H15.7617V21.8259L16.002 21.5823ZM14.2505 22.1048L14.2859 22.3062L14.2505 22.5109L14.0316 22.3062L14.2505 22.1048Z" fill="#383739"/>
<path d="M16.0019 19.7213V20.0321L15.3521 20.6394L15.557 20.8301L15.1226 21.2326L15.3839 21.4763V21.1832H15.6982V21.4446L14.8755 22.2107H14.4941L14.4553 21.9918H14.7377L14.3988 21.6741L13.6925 22.3202L14.3988 22.9664L14.7377 22.6521H14.4553L14.4942 22.4296H14.8755L15.6983 23.1959V23.4572H15.384V23.1641L15.1227 23.4078L15.557 23.8103L15.3522 24.0046L16.002 24.6083V24.9191L15.0168 24.0046L15.2216 23.8103L14.7908 23.4078L15.1616 23.0617L14.872 22.7933L14.3989 23.2347L13.4066 22.3202L14.3989 21.4056L14.872 21.8471L15.1616 21.5787L14.7908 21.2326L15.2216 20.8301L15.0168 20.6394L16.0019 19.7213ZM16.0019 21.6246V23.0158L15.79 22.8039V22.4967H15.5181L15.3416 22.3202L15.5181 22.1436H15.79V21.8364L16.0019 21.6246ZM14.2293 22.1613L14.254 22.3061L14.2293 22.4508L14.0739 22.3061L14.2293 22.1613Z" fill="#FFC72C"/>
<path d="M16.002 27.1986V27.5906L15.3946 28.1591L15.5994 28.3497L15.1651 28.7523L15.3557 28.9253V28.6746H15.7265V28.9747L14.8897 29.7586H14.4659L14.42 29.4832H14.6637L14.3989 29.236L13.735 29.8398L14.3989 30.4472L14.6637 30.2H14.42L14.4659 29.9211H14.8897L15.7265 30.705V31.0051H15.3557V30.7544L15.1651 30.9274L15.5994 31.33L15.3946 31.5242L16.002 32.0891V32.4811L14.9744 31.5242L15.1792 31.33L14.7484 30.9274L15.1192 30.5814L14.872 30.3554L14.3989 30.7932L13.3607 29.8399L14.3989 28.8865L14.872 29.3279L15.1192 29.0983L14.7484 28.7523L15.1792 28.3497L14.9744 28.1591L16.002 27.1986ZM16.002 29.1019V30.5778L15.7617 30.3342V30.0482H15.5076L15.3027 29.8399L15.5076 29.6351H15.7617V29.3455L16.002 29.1019ZM14.2505 29.6245L14.2859 29.8257L14.2505 30.0305L14.0316 29.8257L14.2505 29.6245Z" fill="#383739"/>
<path d="M16.0019 27.241V27.5516L15.3521 28.159L15.557 28.3496L15.1226 28.7522L15.3839 28.9958V28.7027H15.6982V28.9641L14.8755 29.7303H14.4941L14.4553 29.5113H14.7377L14.3988 29.1936L13.6925 29.8397L14.3988 30.486L14.7377 30.1717H14.4553L14.4942 29.9492H14.8755L15.6983 30.7155V30.9767H15.384V30.6837L15.1227 30.9273L15.557 31.3298L15.3522 31.5241L16.002 32.128V32.4386L15.0168 31.5241L15.2216 31.3298L14.7908 30.9273L15.1616 30.5813L14.872 30.313L14.3989 30.7543L13.4066 29.8397L14.3989 28.9252L14.872 29.3666L15.1616 29.0982L14.7908 28.7522L15.2216 28.3496L15.0168 28.159L16.0019 27.241ZM16.0019 29.1441V30.5355L15.79 30.3235V30.0163H15.5181L15.3416 29.8397L15.5181 29.6632H15.79V29.3561L16.0019 29.1441ZM14.2293 29.6808L14.254 29.8256L14.2293 29.9705L14.0739 29.8256L14.2293 29.6808Z" fill="#FFC72C"/>
<path d="M6.07717 35.3889C6.13045 35.6161 6.31105 35.7876 6.35409 36.0232C6.44025 35.7774 6.51969 35.5716 6.46037 35.3028C6.41793 35.1107 6.25625 34.9736 6.23753 34.776C6.06125 34.9346 6.02329 35.1593 6.07717 35.3889ZM6.03249 36.3407C6.18201 36.5457 6.38985 36.7029 6.61937 36.8077C6.57417 36.6282 6.65897 36.4931 6.75309 36.3504C6.86649 36.1788 6.92177 36.0103 6.82933 35.8127C6.78625 35.9154 6.72837 36.0008 6.66045 36.0885C6.56001 36.2257 6.49397 36.3474 6.47849 36.5232C6.36233 36.4372 6.31129 36.3086 6.24917 36.1842C6.15449 36.0059 6.00169 35.8571 5.82617 35.7597C5.87281 35.9594 5.90873 36.1708 6.03249 36.3407ZM6.87105 36.9517C6.83909 37.0656 6.81153 37.1784 6.81769 37.2974C6.71889 37.1909 6.58769 37.1108 6.47065 37.0252C6.31125 36.8963 6.12545 36.8053 5.99513 36.6412C6.01457 36.8828 6.11797 37.0797 6.31429 37.2267C6.52181 37.3819 6.77209 37.4656 6.97649 37.6286C6.94589 37.4088 7.02661 37.2328 7.09545 37.0308C7.15281 36.8378 7.09729 36.6419 6.96641 36.4948C6.96837 36.6578 6.91693 36.7978 6.87105 36.9517ZM7.33677 37.6939C7.37977 37.8606 7.49921 37.9962 7.58077 38.1448C7.36085 38.0767 7.1668 37.9574 6.968 37.8452C6.7312 37.7162 6.47409 37.6342 6.25973 37.4639C6.36641 37.8588 6.63081 38.0878 7.01761 38.2047C7.28209 38.2844 7.50497 38.2447 7.82589 38.3743C7.78909 38.1571 7.72425 37.9226 7.62153 37.7268C7.5418 37.5851 7.45341 37.4453 7.40417 37.2893C7.33285 37.4174 7.29909 37.5478 7.33677 37.6939ZM8.14601 38.2983C8.22173 38.4279 8.32169 38.5372 8.44566 38.6233C8.13345 38.6432 7.8822 38.4453 7.57785 38.4367C7.38985 38.4314 7.21137 38.4897 7.01965 38.4722C7.24717 38.6257 7.48537 38.7598 7.76237 38.7957C8.12245 38.8423 8.4545 38.7517 8.85175 38.7871C8.66616 38.6561 8.57325 38.4808 8.4575 38.2922C8.30685 38.0567 8.16465 37.8888 7.87157 37.8509C7.98921 37.9832 8.05769 38.1469 8.14601 38.2983ZM9.25475 38.8164C8.70475 38.9099 8.17773 39.0309 7.616 39.0366C8.24477 39.2557 8.83725 39.2953 9.46083 39.0691C9.79783 38.9468 10.0562 38.8813 10.3107 38.8994C10.6827 38.9262 11.1347 39.0729 11.635 39.6006L11.8316 39.4433C11.1146 38.8043 10.1765 38.6597 9.25475 38.8164Z" fill="#FFC72C"/>
<path d="M6.55095 4.68947L5.68555 4.15879V2.88312L6.55095 2.35243V1.67743L7.36875 1.18495H8.0221L9.26525 0.485718H11.9342L13.1773 1.18495H13.8307L14.6485 1.67743V2.35243L15.5139 2.88312L15.5138 4.15879L14.6485 4.68947V5.36447L13.8307 5.85695H13.1773L11.9342 6.55619H9.26525L8.0221 5.85695H7.36875L6.55095 5.36447V4.68947Z" fill="#383739"/>
<path d="M9.27067 0.515625L8.02771 1.21478H7.37798L6.57997 1.695V2.36944L5.71484 2.8991V4.14203L6.57997 4.67169V5.34966L7.37445 5.82989H8.02771L9.27067 6.52904H11.926L13.1689 5.82989H13.8222L14.6202 5.34966V4.67169L15.4853 4.14203V2.8991L14.6202 2.36944V1.695L13.8222 1.21478H13.1689L11.926 0.515625H9.27067ZM9.34484 0.773394H11.8554L13.0983 1.47255H13.748L14.3518 1.83625V2.51068L15.2205 3.04034V4.0008L14.3518 4.53046V5.20489L13.748 5.56859H13.0983L11.8554 6.26775H9.34484L8.10185 5.56859H7.45214L6.84479 5.20489V4.53046L5.97969 4.0008V3.04034L6.84479 2.51068V1.83625L7.45214 1.47255H8.10185L9.34484 0.773394Z" fill="#00843D"/>
<path d="M10.5846 3.53535V0.801453H9.35083L8.1076 1.5007H7.45949L6.87317 1.85377V2.52713L6.00781 3.05777V3.50681L10.6132 3.50676V6.24073H11.8469L13.0901 5.5415H13.7383L14.3246 5.18841V4.5151L15.19 3.98441V3.53537L10.5846 3.53535Z" fill="#FFC72C"/>
<path d="M6.00785 3.53537L6.00781 3.98441L6.8732 4.5151V5.18841L7.45949 5.5415H8.10765L9.35083 6.24073H10.5846V3.50676L15.19 3.50681V3.05777L14.3246 2.52713V1.85377L13.7383 1.5007H13.0902L11.847 0.801453H10.6132V3.53535L6.00785 3.53537Z" fill="white"/>
<path d="M7.895 1.75325L7.68196 1.55469L7.47088 1.68485L7.68428 1.88381L7.41028 2.05357H8.0082L8.52346 2.53961L8.6883 2.36553L8.18732 1.89293V1.57213L7.895 1.75325Z" fill="#383739"/>
<path d="M8.90282 1.66603L8.68982 1.46747L8.47874 1.59763L8.69215 1.79658L8.41815 1.96634H9.01607L9.53132 2.45238L9.69615 2.27831L9.19515 1.80571V1.48491L8.90282 1.66603Z" fill="#383739"/>
<path d="M7.82074 2.32295L7.6077 2.12439L7.39666 2.25455L7.61002 2.45351L7.33606 2.62326H7.93398L8.44921 3.10931L8.61404 2.93523L8.11306 2.46263V2.14183L7.82074 2.32295Z" fill="#383739"/>
<path d="M10.5974 0.773438H10.0578L9.77556 1.04552H9.22515L8.81848 1.2566L8.91331 1.48768L9.27607 1.2972H9.4349L9.99098 1.94032L10.5974 1.571V0.773438Z" fill="#383739"/>
<path d="M7.67801 1.58984L7.86945 1.76829L7.70905 1.86764L7.51733 1.68893L7.67801 1.58984ZM8.15837 1.62284V1.90464L8.64754 2.36609L8.52196 2.49873L8.01917 2.02444H7.51013L8.15837 1.62284Z" fill="#D22630"/>
<path d="M8.68559 1.50262L8.87709 1.68107L8.71668 1.78042L8.52501 1.60171L8.68559 1.50262ZM9.16601 1.53562V1.81743L9.65518 2.27887L9.52951 2.41151L9.02676 1.93727H8.51776L9.16601 1.53562Z" fill="#D22630"/>
<path d="M7.60359 2.16016L7.79499 2.3386L7.63459 2.43796L7.44291 2.25923L7.60359 2.16016ZM8.08391 2.19316V2.47496L8.57304 2.93638L8.44754 3.06902L7.94475 2.5948H7.43567L8.08391 2.19316Z" fill="#D22630"/>
<path d="M10.5839 0.802124H10.0702L9.7879 1.07421H9.23299L8.85565 1.27005L8.92865 1.44797L9.26974 1.26885H9.44874L9.99757 1.90357L10.5839 1.54649V0.802124Z" fill="#D22630"/>
<path d="M7.895 5.28965L7.68196 5.48821L7.47088 5.35805L7.68428 5.1591L7.41028 4.98933H8.0082L8.52346 4.5033L8.6883 4.67737L8.18732 5.14997V5.47077L7.895 5.28965Z" fill="#383739"/>
<path d="M8.90282 5.37689L8.68982 5.57545L8.47874 5.44529L8.69215 5.24633L8.41815 5.07657H9.01607L9.53132 4.59052L9.69615 4.7646L9.19515 5.23721V5.55801L8.90282 5.37689Z" fill="#383739"/>
<path d="M7.82074 4.71934L7.6077 4.91791L7.39666 4.78774L7.61002 4.58878L7.33606 4.41903H7.93398L8.44921 3.93298L8.61404 4.10707L8.11306 4.57967V4.90047L7.82074 4.71934Z" fill="#383739"/>
<path d="M10.5974 6.26911H10.0578L9.77556 5.99703H9.22515L8.81848 5.78595L8.91331 5.55487L9.27607 5.74535H9.4349L9.99098 5.10223L10.5974 5.47155V6.26911Z" fill="#383739"/>
<path d="M7.67801 5.45252L7.86945 5.27408L7.70905 5.17472L7.51733 5.35344L7.67801 5.45252ZM8.15837 5.41952V5.13772L8.64754 4.67628L8.52196 4.54364L8.01917 5.01792H7.51013L8.15837 5.41952Z" fill="#D22630"/>
<path d="M8.68559 5.53974L8.87709 5.3613L8.71668 5.26194L8.52501 5.44066L8.68559 5.53974ZM9.16601 5.50674V5.22494L9.65518 4.7635L9.52951 4.63086L9.02676 5.1051H8.51776L9.16601 5.50674Z" fill="#D22630"/>
<path d="M7.60359 4.88219L7.79499 4.70375L7.63459 4.60439L7.44291 4.78313L7.60359 4.88219ZM8.08391 4.84919V4.56739L8.57304 4.10597L8.44754 3.97333L7.94475 4.44756H7.43567L8.08391 4.84919Z" fill="#D22630"/>
<path d="M10.5839 6.24078H10.0702L9.7879 5.9687H9.23299L8.85565 5.77286L8.92865 5.59494L9.26974 5.77406H9.44874L9.99757 5.13934L10.5839 5.49642V6.24078Z" fill="#D22630"/>
<path d="M7.53588 2.64824L7.27864 2.55212L7.27248 2.55641L6.94033 2.78688V2.84884L6.40833 3.52161L6.94033 4.19437V4.25637L7.27864 4.49108L7.53588 4.39497L7.37888 4.29101V4.09321L7.44128 4.01857H7.72004V3.02464H7.44128L7.37888 2.95001V2.75221L7.53588 2.64824Z" fill="#383739"/>
<path d="M6.9696 2.80166L7.28337 2.58398L7.47417 2.65526L7.35104 2.73678V2.96027L7.42864 3.05306H7.69217V3.98993H7.42864L7.35104 4.08274V4.30623L7.47417 4.38774L7.28337 4.45903L6.9696 4.24134L6.96964 4.18433L6.44543 3.52151L6.96964 2.85863L6.9696 2.80166Z" fill="#D22630"/>
<path d="M13.3024 1.75264L13.5154 1.55408L13.7265 1.68424L13.5131 1.8832L13.7871 2.05296H13.1893L12.6739 2.539L12.5091 2.36492L13.0101 1.89232V1.57152L13.3024 1.75264Z" fill="#383739"/>
<path d="M12.2944 1.66536L12.5074 1.4668L12.7185 1.59696L12.5052 1.79591L12.7792 1.96567H12.1812L11.6659 2.45172L11.5012 2.27765L12.0022 1.80503V1.48423L12.2944 1.66536Z" fill="#383739"/>
<path d="M13.3767 2.32295L13.5898 2.12439L13.8008 2.25455L13.5875 2.45351L13.8614 2.62326H13.2635L12.7483 3.10931L12.5834 2.93523L13.0844 2.46263V2.14183L13.3767 2.32295Z" fill="#383739"/>
<path d="M10.5999 0.773438H11.1394L11.4218 1.04552H11.9722L12.3788 1.2566L12.284 1.48768L11.9213 1.2972H11.7624L11.2064 1.94032L10.5999 1.571V0.773438Z" fill="#383739"/>
<path d="M13.5196 1.58984L13.3281 1.76829L13.4885 1.86764L13.6802 1.68893L13.5196 1.58984ZM13.0392 1.62284V1.90464L12.55 2.36609L12.6756 2.49873L13.1783 2.02444H13.6873L13.0392 1.62284Z" fill="#D22630"/>
<path d="M12.5119 1.50262L12.3204 1.68107L12.4809 1.78043L12.6724 1.60171L12.5119 1.50262ZM12.0314 1.53562V1.81743L11.5424 2.27887L11.6679 2.41151L12.1706 1.93727H12.6798L12.0314 1.53562Z" fill="#D22630"/>
<path d="M13.5938 2.16083L13.4024 2.33927L13.5628 2.43863L13.7546 2.2599L13.5938 2.16083ZM13.1136 2.19383V2.47563L12.6243 2.93707L12.7499 3.06969L13.2527 2.59547H13.7617L13.1136 2.19383Z" fill="#D22630"/>
<path d="M10.6134 0.801453H11.1272L11.4094 1.07353H11.9643L12.3417 1.26937L12.2687 1.4473L11.9277 1.26817H11.7487L11.1998 1.9029L10.6134 1.54581V0.801453Z" fill="#D22630"/>
<path d="M13.3024 5.28965L13.5154 5.48821L13.7265 5.35805L13.5131 5.1591L13.7871 4.98933H13.1893L12.6739 4.5033L12.5091 4.67737L13.0101 5.14997V5.47077L13.3024 5.28965Z" fill="#383739"/>
<path d="M12.2944 5.37688L12.5074 5.57544L12.7185 5.44528L12.5052 5.24632L12.7792 5.07656H12.1812L11.6659 4.59052L11.5012 4.7646L12.0022 5.2372V5.558L12.2944 5.37688Z" fill="#383739"/>
<path d="M13.3767 4.71934L13.5898 4.91791L13.8008 4.78774L13.5875 4.58878L13.8614 4.41903H13.2635L12.7483 3.93298L12.5834 4.10707L13.0844 4.57967V4.90047L13.3767 4.71934Z" fill="#383739"/>
<path d="M10.5999 6.26911H11.1394L11.4218 5.99703H11.9722L12.3788 5.78595L12.284 5.55487L11.9213 5.74535H11.7624L11.2064 5.10223L10.5999 5.47155V6.26911Z" fill="#383739"/>
<path d="M13.5196 5.45252L13.3281 5.27408L13.4885 5.17472L13.6802 5.35344L13.5196 5.45252ZM13.0392 5.41952V5.13772L12.55 4.67628L12.6756 4.54364L13.1783 5.01792H13.6873L13.0392 5.41952Z" fill="#D22630"/>
<path d="M12.5119 5.53913L12.3204 5.36069L12.4809 5.26133L12.6724 5.44005L12.5119 5.53913ZM12.0314 5.50613V5.22433L11.5424 4.76289L11.6679 4.63025L12.1706 5.10449H12.6798L12.0314 5.50613Z" fill="#D22630"/>
<path d="M13.5938 4.88153L13.4024 4.7031L13.5628 4.60373L13.7546 4.78246L13.5938 4.88153ZM13.1136 4.84853V4.56673L12.6243 4.1053L12.7499 3.97266L13.2527 4.4469H13.7617L13.1136 4.84853Z" fill="#D22630"/>
<path d="M10.6134 6.24078H11.1272L11.4094 5.9687H11.9643L12.3417 5.77286L12.2687 5.59494L11.9277 5.77406H11.7487L11.1998 5.13934L10.6134 5.49642V6.24078Z" fill="#D22630"/>
<path d="M13.6616 2.64757L13.9187 2.55145L13.925 2.55573L14.2572 2.78621V2.84817L14.7892 3.52093L14.2572 4.19369V4.25569L13.9187 4.49041L13.6616 4.39429L13.8186 4.29033V4.09253L13.7562 4.01789H13.4774V3.02397H13.7562L13.8186 2.94933V2.75153L13.6616 2.64757Z" fill="#383739"/>
<path d="M14.2278 2.80167L13.914 2.58398L13.7231 2.65527L13.8464 2.73678V2.96027L13.7688 3.05307H13.5051V3.98994H13.7688L13.8464 4.08274V4.30623L13.7231 4.38774L13.914 4.45903L14.2278 4.24134V4.18434L14.752 3.52151L14.2278 2.85863V2.80167Z" fill="#D22630"/>
<path d="M7.08044 4.08571L6.9356 3.96038V3.89998L6.62488 3.52098L6.93564 3.14195V3.08158L7.08048 2.95627L7.34064 3.16782L7.19048 3.16667L7.41236 3.39187H7.91936L8.31808 3.08007V2.25778H9.31529L10.4735 1.54707V1.36067L10.2964 1.24262H10.2402L10.0474 1.37171L10.0175 1.46798L9.86663 1.26198L10.1598 1.01562H10.2067L10.5376 0.772827H10.6624L10.9933 1.01562H11.0402L11.3334 1.26198L11.1826 1.46798L11.1527 1.37171L10.9598 1.24262H10.9037L10.7266 1.36067V1.54707L11.8847 2.25778H12.882V3.08007L13.2807 3.39187H13.7877L14.0096 3.16667L13.8594 3.16782L14.1196 2.95627L14.2644 3.08158V3.14195L14.5752 3.52098L14.2644 3.89998V3.96038L14.1196 4.08571L13.8594 3.87415L14.0096 3.87531L13.7877 3.65007H13.2807L12.882 3.96191V4.78418H11.8847L10.7266 5.49491V5.68131L10.9037 5.79934H10.9598L11.1527 5.67027L11.1826 5.57398L11.3334 5.77995L11.0402 6.02634H10.9933L10.6624 6.26914H10.5376L10.2067 6.02634H10.1598L9.86654 5.77995L10.0175 5.57398L10.0474 5.67027L10.2402 5.79934H10.2963L10.4735 5.68131V5.49491L9.31529 4.78418H8.31808V3.96191L7.91932 3.65007H7.41236L7.19048 3.87531L7.34064 3.87415L7.08044 4.08571Z" fill="#383739"/>
<path d="M10.6147 5.82161L10.7414 5.91854L10.6147 6.01545V5.82161ZM10.2118 5.9979H10.2164L10.5474 6.24073H10.586V6.0513L10.4124 5.91854L10.586 5.78577V5.42993L9.34675 4.66941H8.43067V3.90525L7.95763 3.53533H7.24419L7.06487 3.7381L6.88555 3.53533L6.67383 3.53537L6.96447 3.88985V3.94741L7.07959 4.04741L7.26455 3.90341L7.156 3.90425V3.86825L7.39791 3.62165H7.92951L8.347 3.94813V4.75577H9.32375L10.5024 5.47905V5.69665L10.3053 5.82797H10.2318L10.0234 5.68845L10.0074 5.6367L9.90575 5.77541L10.1706 5.9979H10.2118ZM7.06503 3.34721L7.20623 3.50681H6.9238L7.06503 3.34721ZM10.5861 1.02673L10.4594 1.12365L10.5861 1.22053V1.02673ZM13.9945 3.53537L14.1358 3.69497L14.277 3.53537H13.9945ZM10.9843 1.04425L10.6534 0.801453H10.6147V0.990812L10.7884 1.12365L10.6147 1.2565V1.61225L11.854 2.37277H12.7701V3.13693L13.2431 3.50685H13.9564L14.1358 3.30413L14.3151 3.50681H14.5269L14.2362 3.15233V3.09477L14.1211 2.99477L13.9362 3.13877L14.0447 3.1379V3.17393L13.8028 3.4205H13.2712L12.8537 3.09401V2.28641H11.8769L10.6983 1.56313V1.3455L10.8954 1.21421H10.9689L11.1773 1.35373L11.1933 1.4055L11.295 1.26677L11.0301 1.04425H10.9843Z" fill="#FFC72C"/>
<path d="M10.586 6.01541L10.4593 5.91854L10.586 5.82165V6.01541ZM7.20615 3.53537L7.06495 3.69497L6.92375 3.53537H7.20615ZM10.9889 5.9979H10.9842L10.6533 6.24073H10.6146V6.19113V6.05137L10.7883 5.91854L10.6146 5.7857V5.42993L11.8539 4.66941H12.77V3.90525L13.243 3.53533H13.9564L14.1357 3.7381L14.315 3.53533L14.5268 3.53537L14.2362 3.88985V3.94741L14.121 4.04741L13.9361 3.90341L14.0446 3.90425V3.86825L13.8027 3.62165H13.2711L12.8537 3.94813V4.75577H11.8769L10.6983 5.47905V5.69665L10.8953 5.82797H10.9688L11.1772 5.68845L11.1933 5.6367L11.2949 5.77541L11.03 5.9979H10.9889ZM14.1357 3.34721L13.9945 3.50681H14.2769L14.1357 3.34721ZM10.2164 1.04425L10.5473 0.801453H10.586V0.990812L10.4123 1.12365L10.586 1.2565L10.5861 1.61225L9.34675 2.37277H8.43067V3.13693L7.95763 3.50685H7.24411L7.06479 3.30413L6.88543 3.50681H6.67383L6.96451 3.15233V3.09477L7.07963 2.99477L7.26455 3.13877L7.156 3.1379V3.17393L7.39795 3.4205H7.92951L8.347 3.09401V2.28641H9.32375L10.5024 1.56313V1.3455L10.3053 1.21421H10.2318L10.0234 1.35373L10.0073 1.4055L9.90575 1.26677L10.1706 1.04425H10.2164ZM10.6146 1.22057L10.7413 1.12365L10.6146 1.02673V1.22057Z" fill="white"/>
<path d="M10.586 3.53553V1.64587L9.35475 2.40147H8.45908V3.15099L8.00391 3.50699L10.6146 3.50694V5.39663L11.8457 4.64107H12.7414V3.89156L13.1966 3.53556L10.586 3.53553Z" fill="#00843D"/>
<path d="M8.00391 3.53552L8.45916 3.89152V4.64103H9.35475L10.586 5.39663V3.50691L13.1966 3.50696L12.7414 3.15096V2.40143H11.8458L10.6146 1.64587V3.53549L8.00391 3.53552Z" fill="#D22630"/>
<path d="M9.27568 2.60481L9.06268 2.40625L8.8516 2.53637L9.06502 2.73533L8.79102 2.90509H9.38893L9.90418 3.39117L10.0691 3.21705L9.5681 2.74445V2.42369L9.27568 2.60481Z" fill="#383739"/>
<path d="M11.9242 4.43742L12.1372 4.63598L12.3483 4.50582L12.1349 4.30686L12.4089 4.13715H11.8109L11.2957 3.65106L11.1309 3.82515L11.6319 4.29778V4.61855L11.9242 4.43742Z" fill="#383739"/>
<path d="M9.27568 4.43742L9.06268 4.63598L8.8516 4.50582L9.06502 4.30686L8.79102 4.13715H9.38893L9.90418 3.65106L10.069 3.82515L9.56802 4.29778V4.61855L9.27568 4.43742Z" fill="#383739"/>
<path d="M11.9242 2.60481L12.1372 2.40625L12.3483 2.53637L12.1349 2.73533L12.4089 2.90509H11.8109L11.2957 3.39117L11.1309 3.21705L11.6319 2.74445V2.42369L11.9242 2.60481Z" fill="#383739"/>
<path d="M12.1419 4.60084L11.9505 4.42239L12.1109 4.32304L12.3025 4.50175L12.1419 4.60084ZM11.6615 4.56784V4.28608L11.1725 3.82464L11.298 3.69195L11.8008 4.16624H12.3099L11.6615 4.56784ZM9.05846 2.44208L9.24987 2.62052L9.08946 2.71992L8.89779 2.54119L9.05846 2.44208ZM9.53879 2.47512V2.75688L10.028 3.21832L9.90237 3.35099L9.39962 2.87672H8.89062L9.53879 2.47512Z" fill="#D22630"/>
<path d="M12.142 2.44208L11.9505 2.62052L12.111 2.71992L12.3026 2.54119L12.142 2.44208ZM11.6616 2.47512V2.75688L11.1725 3.21832L11.298 3.35099L11.8009 2.87672H12.3099L11.6616 2.47512ZM9.05854 4.60084L9.24987 4.42239L9.08954 4.32304L8.89779 4.50175L9.05854 4.60084ZM9.53879 4.56784V4.28608L10.028 3.82464L9.90246 3.69195L9.39962 4.16624H8.89062L9.53879 4.56784Z" fill="#00843D"/>
<path d="M11.9233 3.52107L10.5993 4.40341L9.27539 3.52107L10.5993 2.63867L11.9233 3.52107Z" fill="#383739"/>
<path d="M10.5845 2.68231L9.34766 3.5066H11.8498L10.6131 2.68231V4.35943L11.8499 3.53515H9.34766L10.5845 4.35943V2.68231Z" fill="white"/>
<path d="M10.9534 3.82409V4.06669H10.2454V3.82409H9.78711V3.21721H10.2454V2.97461H10.9534V3.21721H11.4116V3.82409H10.9534Z" fill="#383739"/>
<path d="M10.2745 3.0033V3.2459H9.81628V3.50655H10.5856V3.0033L10.2745 3.0033ZM10.6142 3.50655H11.3836V3.2459H10.9255V3.0033H10.6142V3.50655ZM9.81628 3.5351V3.79575H10.2745V4.03835H10.5856V3.5351H9.81628ZM10.6142 4.03835H10.9255V3.79575H11.3836V3.5351H10.6142V4.03835Z" fill="#D22630"/>
<path d="M12.8585 13.574V13.1854H13.9242V12.7966H14.9901V9.28454H13.9242V8.89587H12.8585V8.50721H11.7925V8.11853H9.40704V8.50721H8.34113V8.89587H7.27523V9.28454H6.20935V12.7966H7.27523V13.1854H8.34113V13.574H9.40704V13.9626H11.7925V13.574H12.8585Z" fill="#383739"/>
<path d="M9.4375 8.14648V8.53492H8.37108V8.92333H7.30467V9.31175H6.23828V12.7687H7.30467V13.1571H8.37108V13.5455H9.4375V13.9339H11.7644V13.5455H12.8308V13.1571H13.8972V12.7687H14.9636V9.31175H13.8972V8.92333H12.8308V8.53492H11.7644V8.14648H9.4375ZM9.71991 8.429H11.4819V8.81733H12.5483V9.20583H13.6148V9.59417H14.6811V12.4862H13.6148V12.8747H12.5483V13.263H11.4819V13.6514H9.71991V13.263H8.6535V12.8747H7.58716V12.4862H6.52077V9.59417H7.58716V9.20583H8.6535V8.81733H9.71991V8.429Z" fill="#FFC72C"/>
<path d="M8.68067 13.2351V12.8464H7.61475V12.4577H6.54883V9.62437H7.61475V9.23571H8.68067V8.84704H9.7465V8.45837H11.4533V8.84704H12.5192V9.23571H13.585V9.62437H14.6508V12.4577H13.585V12.8464H12.5192V13.2351H11.4533V13.6237H9.7465V13.2351H8.68067Z" fill="#D22630"/>
<path d="M8.92804 9.13452L8.65196 8.92585V9.3266L8.38754 9.49452L8.38688 9.24369L8.13333 9.47144L7.87976 9.24369L7.87908 9.49452L7.58613 9.30844V9.67994L7.34936 9.85135L7.3487 9.62352L7.06743 9.82727L6.78614 9.62352L6.78548 9.85135L6.52015 9.65927V10.7847H6.20935V11.297H6.52015V12.4224L6.78548 12.2303L6.78614 12.4581L7.06743 12.2544L7.34866 12.4581L7.34934 12.2303L7.5861 12.4017V12.7732L7.87906 12.5871L7.87974 12.8379L8.1333 12.6102L8.38688 12.8379L8.38754 12.5871L8.65188 12.755V13.1558L8.92796 12.9471L8.92854 13.227L9.19913 12.985L9.46971 13.227L9.47038 12.9471L9.71788 13.1342V13.5616L10.088 13.2243V13.6207L10.5998 13.2916L11.1116 13.6207V13.2243L11.4817 13.5616V13.1342L11.7292 12.9471L11.7298 13.227L12.0005 12.985L12.271 13.227L12.2716 12.9471L12.5476 13.1558V12.755L12.812 12.5871L12.8127 12.8379L13.0663 12.6102L13.32 12.8379L13.3205 12.5871L13.6135 12.7732V12.4017L13.8503 12.2303L13.851 12.4581L14.1322 12.2544L14.4135 12.4581L14.4141 12.2303L14.6795 12.4224V11.297H14.9903V10.7847H14.6795V9.65927L14.4141 9.85135L14.4135 9.62352L14.1322 9.82727L13.851 9.62352L13.8503 9.85135L13.6136 9.67994V9.30844L13.3206 9.49452L13.32 9.24369L13.0663 9.47144L12.8127 9.24369L12.8121 9.49452L12.5476 9.32652V8.92585L12.2716 9.13444L12.271 8.8546L12.0005 9.0966L11.7298 8.8546L11.7292 9.13452L11.4817 8.94735V8.52002L11.1117 8.85735V8.46094L10.5998 8.79002L10.088 8.46094V8.85735L9.71788 8.52002V8.94744L9.47038 9.13452L9.46979 8.8546L9.19913 9.0966L8.92863 8.8546L8.92804 9.13452Z" fill="#383739"/>
<path d="M6.81428 9.90752L6.81495 9.67969L7.06779 9.86285L7.07631 9.85669L7.32063 9.67969L7.3213 9.90752L7.58649 9.7156V12.3668L7.3213 12.1748L7.32063 12.4027L7.06779 12.2195L6.81495 12.4027L6.81428 12.1748L6.54908 12.3668V11.2688H6.23828V10.8136H6.54908V9.7156L6.81428 9.90752Z" fill="#00843D"/>
<path d="M8.95619 8.91858L9.19835 9.13516L9.44044 8.91858L9.4411 9.19208L9.71702 8.9835V13.0987L9.4411 12.8901L9.44044 13.1636L9.19835 12.947L8.95619 13.1636L8.9556 12.8901L8.67969 13.0987V8.9835L8.9556 9.19208L8.95619 8.91858Z" fill="#00843D"/>
<path d="M12.2433 8.91858L12.0011 9.13516L11.7589 8.91858L11.7583 9.19208L11.4824 8.9835V13.0987L11.7583 12.8901L11.7589 13.1636L12.0011 12.947L12.2433 13.1636L12.2438 12.8901L12.5198 13.0987V8.9835L12.2438 9.19208L12.2433 8.91858Z" fill="#00843D"/>
<path d="M14.3855 9.90752L14.3848 9.67969L14.132 9.86285L14.1234 9.85669L13.8791 9.67969L13.8784 9.90752L13.6133 9.7156V12.3668L13.8784 12.1748L13.8791 12.4027L14.132 12.2195L14.3848 12.4027L14.3855 12.1748L14.6507 12.3668V11.2687H14.9615V10.8136H14.6507V9.7156L14.3855 9.90752Z" fill="#00843D"/>
<path d="M7.90691 9.30792L8.13208 9.51026L8.35721 9.30792L8.35788 9.54684L8.65071 9.36067V12.7216L8.35788 12.5354L8.35721 12.7743L8.13208 12.5721L7.90691 12.7743L7.90625 12.5354L7.6134 12.7216V9.36067L7.90625 9.54684L7.90691 9.30792Z" fill="#FFC72C"/>
<path d="M10.1143 8.92242L9.74432 8.58509V13.4973L10.1143 13.1599V13.5688L10.5977 13.258L11.0809 13.5688V13.1599L11.4511 13.4973V8.58509L11.0809 8.92242V8.51367L10.5977 8.82434L10.1143 8.51367V8.92242Z" fill="#FFC72C"/>
<path d="M13.2908 9.30792L13.0657 9.51026L12.8405 9.30792L12.8399 9.54684L12.547 9.36067V12.7216L12.8399 12.5354L12.8405 12.7743L13.0657 12.5721L13.2908 12.7743L13.2915 12.5354L13.5843 12.7216V9.36067L13.2915 9.54684L13.2908 9.30792Z" fill="#FFC72C"/>
<path d="M6.9534 10.5578C6.98576 10.5906 7.02444 10.6071 7.06836 10.6071C7.11224 10.6071 7.15092 10.5906 7.18332 10.5578C7.28456 10.4558 7.28796 10.2713 7.28696 10.1387C7.28696 10.1387 7.16992 10.2623 7.1488 10.2847C7.13408 10.2592 7.06836 10.1458 7.06836 10.1458C7.06836 10.1458 7.00264 10.2592 6.98788 10.2847C6.96676 10.2623 6.84972 10.1387 6.84972 10.1387C6.84872 10.2713 6.85216 10.4558 6.9534 10.5578Z" fill="#383739"/>
<path d="M8.06627 10.2723L7.981 10.1872V10.0173L7.78516 10.1988L8.13523 10.549L8.48533 10.1988L8.28947 10.0173V10.1872L8.20423 10.2723V9.9716L8.35525 9.84193L8.13523 9.65302L7.91523 9.84193L8.06627 9.9716V10.2723Z" fill="#383739"/>
<path d="M9.13081 9.93513L9.04556 9.84988V9.68013L8.84973 9.86163L9.19982 10.2118L9.5499 9.86163L9.35406 9.68013V9.84988L9.26881 9.93513V9.6343L9.41982 9.50471L9.19982 9.3158L8.97982 9.50471L9.13081 9.6343V9.93513Z" fill="#383739"/>
<path d="M7.06771 10.2032C7.08518 10.2334 7.14258 10.3325 7.14258 10.3325C7.14258 10.3325 7.22346 10.2469 7.25651 10.2122C7.25255 10.362 7.21962 10.4805 7.16238 10.5382C7.13555 10.5652 7.10371 10.5789 7.06771 10.5789C7.03166 10.5789 6.99982 10.5652 6.97302 10.5382C6.91578 10.4805 6.88286 10.362 6.87891 10.2122C6.91191 10.247 6.99278 10.3325 6.99278 10.3325C7.01775 10.2894 7.04275 10.2463 7.06771 10.2032Z" fill="white"/>
<path d="M9.23987 9.62127V10.0042L9.38229 9.86185V9.74568L9.50837 9.86252L9.19954 10.1714L8.89062 9.86252L9.01671 9.74568V9.86185L9.15904 10.0042V9.62127L9.02337 9.50477L9.19954 9.35352L9.37562 9.50477L9.23987 9.62127Z" fill="white"/>
<path d="M8.17549 9.95855V10.3415L8.31789 10.199V10.0829L8.444 10.1998L8.13505 10.5087L7.82617 10.1998L7.95225 10.0829V10.199L8.09465 10.3415V9.95855L7.95893 9.84205L8.13505 9.6908L8.3112 9.84205L8.17549 9.95855Z" fill="#D22630"/>
<path d="M14.2457 10.5578C14.2134 10.5906 14.1747 10.6071 14.1308 10.6071C14.0869 10.6071 14.0482 10.5906 14.0158 10.5578C13.9146 10.4558 13.9112 10.2713 13.9122 10.1387C13.9122 10.1387 14.0292 10.2623 14.0503 10.2847C14.065 10.2592 14.1308 10.1458 14.1308 10.1458C14.1308 10.1458 14.1965 10.2592 14.2112 10.2847C14.2324 10.2623 14.3494 10.1387 14.3494 10.1387C14.3504 10.2713 14.347 10.4558 14.2457 10.5578Z" fill="#383739"/>
<path d="M13.1329 10.2723L13.2182 10.1872V10.0173L13.4141 10.1988L13.064 10.549L12.7139 10.1988L12.9097 10.0173V10.1872L12.995 10.2723V9.9716L12.844 9.84193L13.064 9.65302L13.284 9.84193L13.1329 9.9716V10.2723Z" fill="#383739"/>
<path d="M12.0684 9.93513L12.1537 9.84988V9.68013L12.3495 9.86163L11.9994 10.2118L11.6493 9.86163L11.8452 9.68013V9.84988L11.9305 9.93513V9.6343L11.7794 9.50471L11.9994 9.3158L12.2194 9.50471L12.0684 9.6343V9.93513Z" fill="#383739"/>
<path d="M14.1315 10.2032C14.114 10.2334 14.0565 10.3325 14.0565 10.3325C14.0565 10.3325 13.9758 10.2469 13.9426 10.2122C13.9467 10.362 13.9795 10.4805 14.0368 10.5382C14.0636 10.5652 14.0955 10.5789 14.1315 10.5789C14.1675 10.5789 14.1994 10.5652 14.2261 10.5382C14.2834 10.4805 14.3164 10.362 14.3203 10.2122C14.2873 10.247 14.2064 10.3325 14.2064 10.3325C14.1815 10.2894 14.1565 10.2463 14.1315 10.2032Z" fill="white"/>
<path d="M11.9592 9.62127V10.0042L11.8168 9.86185V9.74568L11.6907 9.86252L11.9997 10.1714L12.3086 9.86252L12.1824 9.74568V9.86185L12.0401 10.0042V9.62127L12.1757 9.50477L11.9997 9.35352L11.8236 9.50477L11.9592 9.62127Z" fill="white"/>
<path d="M13.0236 9.95855V10.3415L12.8813 10.199V10.0829L12.7551 10.1998L13.0642 10.5087L13.373 10.1998L13.247 10.0829V10.199L13.1045 10.3415V9.95855L13.2403 9.84205L13.0642 9.6908L12.888 9.84205L13.0236 9.95855Z" fill="#D22630"/>
<path d="M11.0194 10.0632L10.9048 9.90468L11.1988 9.63318L10.9246 9.40793V9.56751L10.81 9.66568V9.37618L11.069 9.18526L10.6004 8.83984L10.1318 9.18526L10.3909 9.37618V9.66568L10.2762 9.56751V9.40793L10.002 9.63318L10.2961 9.90468L10.1814 10.0632H11.0194Z" fill="#383739"/>
<path d="M10.2368 10.0342L10.3335 9.9005L10.0449 9.63408L10.247 9.468V9.58033L10.4189 9.72733V9.36133L10.1794 9.18492L10.5998 8.875L11.0203 9.18492L10.7808 9.36133V9.72733L10.9526 9.58033V9.468L11.1548 9.63408L10.8663 9.9005L10.963 10.0342H10.2368Z" fill="#D22630"/>
<path d="M10.3848 9.18518L10.5988 9.34301L10.813 9.18518L10.5988 9.02734L10.5903 9.03359L10.3848 9.18518Z" fill="#383739"/>
<path d="M10.5994 9.0625C10.6137 9.07292 10.7404 9.16642 10.7654 9.18483C10.7404 9.20325 10.6137 9.29675 10.5994 9.30717C10.5853 9.29675 10.4584 9.20325 10.4334 9.18483C10.4584 9.16642 10.5853 9.07292 10.5994 9.0625Z" fill="#00843D"/>
<path d="M6.9534 11.5239C6.98576 11.4911 7.02444 11.4746 7.06836 11.4746C7.11224 11.4746 7.15092 11.4911 7.18332 11.5239C7.28456 11.6259 7.28796 11.8104 7.28696 11.943C7.28696 11.943 7.16992 11.8194 7.1488 11.797C7.13408 11.8225 7.06836 11.9359 7.06836 11.9359C7.06836 11.9359 7.00264 11.8225 6.98788 11.797C6.96676 11.8194 6.84972 11.943 6.84972 11.943C6.84872 11.8104 6.85216 11.6259 6.9534 11.5239Z" fill="#383739"/>
<path d="M8.06627 11.8093L7.981 11.8944V12.0642L7.78516 11.8827L8.13523 11.5326L8.48533 11.8827L8.28947 12.0642V11.8944L8.20423 11.8093V12.1099L8.35525 12.2397L8.13523 12.4286L7.91523 12.2397L8.06627 12.1099V11.8093Z" fill="#383739"/>
<path d="M9.13081 12.1471L9.04556 12.2323V12.4021L8.84973 12.2204L9.19982 11.8704L9.5499 12.2204L9.35406 12.4021V12.2323L9.26881 12.1471V12.4478L9.41982 12.5774L9.19982 12.7663L8.97982 12.5774L9.13081 12.4478V12.1471Z" fill="#383739"/>
<path d="M7.06771 11.879C7.08518 11.8488 7.14258 11.7497 7.14258 11.7497C7.14258 11.7497 7.22346 11.8352 7.25651 11.87C7.25255 11.7201 7.21962 11.6017 7.16238 11.544C7.13555 11.517 7.10371 11.5033 7.06771 11.5033C7.03166 11.5033 6.99982 11.517 6.97302 11.544C6.91578 11.6017 6.88286 11.7201 6.87891 11.87C6.91191 11.8351 6.99278 11.7497 6.99278 11.7497C7.01775 11.7928 7.04275 11.8359 7.06771 11.879Z" fill="white"/>
<path d="M9.23987 12.4609V12.078L9.38229 12.2204V12.3366L9.50837 12.2197L9.19954 11.9108L8.89062 12.2197L9.01671 12.3366V12.2204L9.15904 12.078V12.4609L9.02337 12.5774L9.19954 12.7287L9.37562 12.5774L9.23987 12.4609Z" fill="white"/>
<path d="M8.17549 12.123V11.7401L8.31789 11.8825V11.9988L8.444 11.8819L8.13505 11.5729L7.82617 11.8819L7.95225 11.9988V11.8825L8.09465 11.7401V12.123L7.95893 12.2395L8.13505 12.3909L8.3112 12.2395L8.17549 12.123Z" fill="#D22630"/>
<path d="M14.2457 11.5238C14.2134 11.4911 14.1747 11.4746 14.1308 11.4746C14.0869 11.4746 14.0482 11.4911 14.0158 11.5238C13.9146 11.6258 13.9112 11.8103 13.9122 11.943C13.9122 11.943 14.0292 11.8194 14.0503 11.797C14.065 11.8224 14.1308 11.9359 14.1308 11.9359C14.1308 11.9359 14.1965 11.8224 14.2112 11.797C14.2324 11.8194 14.3494 11.943 14.3494 11.943C14.3504 11.8103 14.347 11.6258 14.2457 11.5238Z" fill="#383739"/>
<path d="M13.1329 11.8092L13.2182 11.8943V12.0642L13.4141 11.8826L13.064 11.5326L12.7139 11.8826L12.9097 12.0642V11.8943L12.995 11.8092V12.1099L12.844 12.2396L13.064 12.4284L13.284 12.2396L13.1329 12.1099V11.8092Z" fill="#383739"/>
<path d="M12.0684 12.1465L12.1537 12.2316V12.4015L12.3495 12.22L11.9994 11.8699L11.6493 12.22L11.8452 12.4015V12.2316L11.9305 12.1465V12.4472L11.7794 12.5768L11.9994 12.7657L12.2194 12.5768L12.0684 12.4472V12.1465Z" fill="#383739"/>
<path d="M14.1315 11.879C14.114 11.8489 14.0565 11.7497 14.0565 11.7497C14.0565 11.7497 13.9758 11.8352 13.9426 11.8701C13.9467 11.7201 13.9795 11.6017 14.0368 11.5441C14.0636 11.517 14.0955 11.5033 14.1315 11.5033C14.1675 11.5033 14.1994 11.517 14.2261 11.544C14.2834 11.6017 14.3164 11.7201 14.3203 11.8701C14.2873 11.8352 14.2064 11.7497 14.2064 11.7497C14.1815 11.7928 14.1565 11.8359 14.1315 11.879Z" fill="white"/>
<path d="M11.9592 12.4603V12.0774L11.8168 12.2197V12.3359L11.6907 12.2191L11.9997 11.9102L12.3086 12.2191L12.1824 12.3359V12.2197L12.0401 12.0774V12.4603L12.1757 12.5768L11.9997 12.7281L11.8236 12.5768L11.9592 12.4603Z" fill="white"/>
<path d="M13.0236 12.1231V11.7403L12.8813 11.8826V11.9988L12.7551 11.8819L13.0642 11.5729L13.373 11.8819L13.247 11.9988V11.8826L13.1045 11.7403V12.1231L13.2403 12.2396L13.0642 12.3909L12.888 12.2396L13.0236 12.1231Z" fill="#D22630"/>
<path d="M11.0194 12.0189L10.9048 12.1774L11.1988 12.4488L10.9246 12.6741V12.5145L10.81 12.4164V12.7059L11.069 12.8968L10.6004 13.2422L10.1318 12.8968L10.3909 12.7059V12.4164L10.2762 12.5145V12.6741L10.002 12.4488L10.2961 12.1774L10.1814 12.0189H11.0194Z" fill="#383739"/>
<path d="M10.2368 12.0469L10.3335 12.1806L10.0449 12.447L10.247 12.6131V12.5008L10.4189 12.3538V12.7198L10.1794 12.8963L10.5998 13.2062L11.0203 12.8963L10.7808 12.7198V12.3538L10.9526 12.5008V12.6131L11.1548 12.447L10.8663 12.1806L10.963 12.0469H10.2368Z" fill="#D22630"/>
<path d="M10.3848 12.8967L10.5988 12.7389L10.813 12.8967L10.5988 13.0545L10.5903 13.0482L10.3848 12.8967Z" fill="#383739"/>
<path d="M10.5994 13.0187C10.6137 13.0084 10.7404 12.9149 10.7654 12.8964C10.7404 12.878 10.6137 12.7845 10.5994 12.774C10.5853 12.7845 10.4584 12.878 10.4334 12.8964C10.4584 12.9149 10.5853 13.0084 10.5994 13.0187Z" fill="#00843D"/>
<path d="M14.3938 10.8774H13.9246V10.6904H12.4906L11.4923 10.0345H11.4881H9.70796L8.70979 10.6904H7.27569V10.8774H6.80652V11.2051H7.27569V11.3921H8.70979L9.70796 12.048H11.4923L12.4906 11.3921H13.9246V11.2051H14.3938V10.8774Z" fill="#383739"/>
<path d="M9.71533 10.0638L8.71608 10.717H7.30363V10.9042H6.83398V11.1761H7.30363V11.3632H8.71608L9.71533 12.02H11.4844L12.4802 11.3632H13.8961V11.1761H14.3657V10.9042H13.8961V10.717H12.4802L11.4844 10.0638H9.71533ZM9.7365 10.1591H11.4597L12.3742 10.7594V10.8512H13.3947V11.2326H12.3742V11.3244L11.4597 11.9211H9.7365L8.8255 11.3244V11.2326H7.8015V10.8512H8.8255V10.7594L9.7365 10.1591Z" fill="#D22630"/>
<path d="M11.4531 10.1888L12.345 10.7744V10.8783H13.3672V11.2037H12.345V11.3076L11.4531 11.8932H9.74621L8.8543 11.3076V11.2037H7.83215V10.8783H8.8543V10.7744L9.74621 10.1888H11.4531Z" fill="#D22630"/>
<path d="M9.3045 11.3732L9.69075 11.6632L9.94475 11.4723L9.79709 11.3614L9.69075 11.4413L9.59992 11.3732L11.0543 10.2812H10.7589L9.3045 11.3732ZM10.1476 11.7999H10.4428L11.8973 10.7079L11.5112 10.4182L11.2571 10.6088L11.4048 10.7197L11.5112 10.6398L11.6019 10.7079L10.1476 11.7999ZM10.7589 11.7999H11.0543L9.59992 10.7079L9.69075 10.6398L9.79709 10.7197L9.94475 10.6088L9.69075 10.4182L9.3045 10.7079L10.7589 11.7999ZM11.6019 11.3732L11.5112 11.4413L11.4048 11.3614L11.2571 11.4723L11.5112 11.6632L11.8973 11.3732L10.4428 10.2812H10.1476L11.6019 11.3732Z" fill="#383739"/>
<path d="M9.0116 11.0409L9.2711 11.2133L9.53068 11.0409L9.2711 10.8685L9.0116 11.0409Z" fill="#383739"/>
<path d="M10.3417 11.0409L10.6012 11.2133L10.8608 11.0409L10.6012 10.8685L10.3417 11.0409Z" fill="#383739"/>
<path d="M12.1888 11.0409L11.9293 11.2133L11.6697 11.0409L11.9293 10.8685L12.1888 11.0409Z" fill="#383739"/>
<path d="M11.8489 11.3739L11.5104 11.6282L11.3039 11.4731L11.4039 11.3979L11.5104 11.4778L11.6488 11.3739L10.2324 10.3106H10.4327L11.8489 11.3739ZM10.9679 11.7721H10.7678L9.35144 10.7088L9.69002 10.4546L9.89644 10.6096L9.79636 10.6847L9.69002 10.6048L9.55161 10.7088L10.9679 11.7721ZM10.4327 11.7721H10.2324L11.6488 10.7088L11.5104 10.6048L11.4039 10.6847L11.3039 10.6096L11.5104 10.4546L11.8489 10.7088L10.4327 11.7721ZM10.7678 10.3106H10.9679L9.55161 11.3739L9.69002 11.4778L9.79636 11.3979L9.89644 11.4731L9.69002 11.6282L9.35144 11.3739L10.7678 10.3106Z" fill="#FFC72C"/>
<path d="M9.27029 10.9023L9.47821 11.0404L9.27029 11.1786L9.06238 11.0404L9.27029 10.9023Z" fill="#00843D"/>
<path d="M10.6001 10.903L10.808 11.0411L10.6001 11.1792L10.3922 11.0411L10.6001 10.903Z" fill="#00843D"/>
<path d="M11.9303 10.9023L11.7223 11.0404L11.9303 11.1786L12.1381 11.0404L11.9303 10.9023Z" fill="#00843D"/>
<path d="M6.03365 18.2773L5.9318 18.4213L6.11436 18.5609L5.93176 18.7004L6.0336 18.8445L6.24573 18.8692L6.45113 18.7104L6.96325 19.0358V18.7657L6.64094 18.5609L6.96325 18.3562V18.0859L6.45113 18.4113L6.24573 18.2527L6.03365 18.2773Z" fill="#383739"/>
<path d="M6.03365 17.3384L5.9318 17.4825L6.11436 17.622L5.93176 17.7617L6.0336 17.9058L6.24573 17.9303L6.45113 17.7715L6.96325 18.097V17.8268L6.64094 17.622L6.96325 17.4173V17.1472L6.45113 17.4725L6.24573 17.3138L6.03365 17.3384Z" fill="#383739"/>
<path d="M6.03365 19.7827L5.9318 19.6386L6.11436 19.499L5.93176 19.3594L6.0336 19.2153L6.24573 19.1907L6.45113 19.3494L6.96325 19.0241V19.2943L6.64094 19.499L6.96325 19.7037V19.9739L6.45113 19.6486L6.24573 19.8073L6.03365 19.7827Z" fill="#383739"/>
<path d="M15.1642 18.2772L15.266 18.4213L15.0834 18.5609L15.266 18.7004L15.1642 18.8444L14.9522 18.8692L14.7467 18.7104L14.2345 19.0358V18.7655L14.5569 18.5609L14.2345 18.356V18.0859L14.7467 18.4113L14.9522 18.2525L15.1642 18.2772Z" fill="#383739"/>
<path d="M15.1642 17.3384L15.266 17.4825L15.0834 17.622L15.266 17.7617L15.1642 17.9058L14.9522 17.9304L14.7467 17.7717L14.2345 18.097V17.8268L14.5569 17.622L14.2345 17.4174V17.1472L14.7467 17.4725L14.9522 17.3138L15.1642 17.3384Z" fill="#383739"/>
<path d="M15.1642 19.7827L15.266 19.6387L15.0834 19.4991L15.266 19.3594L15.1642 19.2154L14.9522 19.1908L14.7467 19.3495L14.2345 19.0241V19.2943L14.5569 19.4991L14.2345 19.7038V19.9739L14.7467 19.6486L14.9522 19.8073L15.1642 19.7827Z" fill="#383739"/>
<path d="M13.1134 15.7155V16.1059H13.3974V16.2784H13.6763V15.9642H13.4276V15.7155H13.1134Z" fill="#383739"/>
<path d="M13.9517 16.3314V16.7217H14.2353V16.8943H14.5146V16.5801H14.2658V16.3314H13.9517Z" fill="#383739"/>
<path d="M8.08478 15.7155V16.1059H7.80073V16.2784H7.52185V15.9642H7.77061V15.7155H8.08478Z" fill="#383739"/>
<path d="M13.1134 21.4053V21.0149H13.3974V20.8424H13.6763V21.1566H13.4276V21.4053H13.1134Z" fill="#383739"/>
<path d="M8.08478 21.4053V21.0149H7.80073V20.8424H7.52185V21.1566H7.77061V21.4053H8.08478Z" fill="#383739"/>
<path d="M13.9517 20.7901V20.3998H14.2353V20.2273H14.5146V20.5414H14.2658V20.7901H13.9517Z" fill="#383739"/>
<path d="M7.24688 16.3307V16.721H6.96313V16.8937H6.68396V16.5794H6.93273V16.3307H7.24688Z" fill="#383739"/>
<path d="M7.24688 20.7901V20.3998H6.96313V20.2273H6.68396V20.5414H6.93273V20.7901H7.24688Z" fill="#383739"/>
<path d="M11.6498 15.7065C11.6317 15.6889 11.4332 15.4961 11.4332 15.4961L11.2202 15.6934C11.2202 15.6934 11.387 15.8552 11.4058 15.8735L11.1663 16.106H11.5219L11.6498 15.9818L11.7778 16.106H12.1333L11.8938 15.8735C11.9127 15.8552 12.0793 15.6934 12.0793 15.6934L11.8665 15.4961C11.7942 15.5662 11.722 15.6364 11.6498 15.7065Z" fill="#383739"/>
<path d="M10.5991 15.7065C10.581 15.6889 10.3824 15.4961 10.3824 15.4961L10.1695 15.6934C10.1695 15.6934 10.3363 15.8552 10.3551 15.8735L10.1156 16.106H10.4711L10.5991 15.9818L10.7271 16.106H11.0826L10.8431 15.8735C10.8619 15.8552 11.0287 15.6934 11.0287 15.6934L10.8158 15.4961C10.7435 15.5662 10.6713 15.6364 10.5991 15.7065Z" fill="#383739"/>
<path d="M9.55027 15.7065C9.56836 15.6889 9.76702 15.4961 9.76702 15.4961L9.97986 15.6934C9.97986 15.6934 9.81311 15.8552 9.79436 15.8735L10.0338 16.106H9.67827L9.55027 15.9818L9.42227 16.106H9.06677L9.30627 15.8735C9.28752 15.8552 9.12069 15.6934 9.12069 15.6934L9.33361 15.4961C9.40594 15.5662 9.47811 15.6364 9.55027 15.7065Z" fill="#383739"/>
<path d="M11.6498 21.4145C11.6317 21.432 11.4332 21.6248 11.4332 21.6248L11.2202 21.4276C11.2202 21.4276 11.387 21.2658 11.4058 21.2475L11.1663 21.015H11.5219L11.6498 21.1392L11.7778 21.015H12.1333L11.8938 21.2475C11.9127 21.2658 12.0793 21.4276 12.0793 21.4276L11.8665 21.6248C11.7942 21.5548 11.722 21.4846 11.6498 21.4145Z" fill="#383739"/>
<path d="M10.5991 21.4143C10.581 21.432 10.3824 21.6248 10.3824 21.6248L10.1695 21.4276C10.1695 21.4276 10.3363 21.2657 10.3551 21.2475L10.1156 21.015H10.4711L10.5991 21.1392L10.7271 21.015H11.0826L10.8431 21.2475C10.8619 21.2657 11.0287 21.4276 11.0287 21.4276L10.8158 21.6248C10.7435 21.5548 10.6713 21.4846 10.5991 21.4143Z" fill="#383739"/>
<path d="M9.55027 21.4143C9.56836 21.432 9.76702 21.6248 9.76702 21.6248L9.97986 21.4276C9.97986 21.4276 9.81311 21.2657 9.79436 21.2475L10.0338 21.015H9.67827L9.55027 21.1392L9.42227 21.015H9.06677L9.30627 21.2475C9.28752 21.2657 9.12069 21.4276 9.12069 21.4276L9.33361 21.6248C9.40594 21.5548 9.47811 21.4846 9.55027 21.4143Z" fill="#383739"/>
<path d="M6.93633 18.7814V18.9838L6.45113 18.6756L6.2391 18.8395L6.05121 18.8178L5.97266 18.7065L6.16306 18.5609L5.97266 18.4153L6.05126 18.3043L6.2391 18.2824L6.45113 18.4462L6.93633 18.138V18.3404L6.58926 18.5609L6.93633 18.7814Z" fill="#00843D"/>
<path d="M6.93633 17.8425V18.045L6.45113 17.7368L6.2391 17.9007L6.05121 17.8789L5.97266 17.7677L6.16306 17.6221L5.97266 17.4765L6.05126 17.3654L6.2391 17.3435L6.45113 17.5074L6.93633 17.1992V17.4017L6.58926 17.6221L6.93633 17.8425Z" fill="#00843D"/>
<path d="M6.93633 19.2786V19.0762L6.45113 19.3843L6.2391 19.2205L6.05121 19.2423L5.97266 19.3535L6.16306 19.4991L5.97266 19.6447L6.05126 19.7558L6.2391 19.7776L6.45113 19.6138L6.93633 19.922V19.7196L6.58926 19.4991L6.93633 19.2786Z" fill="#00843D"/>
<path d="M14.2655 18.7814V18.9838L14.7507 18.6756L14.9627 18.8395L15.1506 18.8178L15.2292 18.7065L15.0388 18.5609L15.2292 18.4153L15.1506 18.3043L14.9627 18.2824L14.7507 18.4462L14.2655 18.138V18.3404L14.6126 18.5609L14.2655 18.7814Z" fill="#00843D"/>
<path d="M14.2655 17.8425V18.045L14.7507 17.7368L14.9627 17.9007L15.1506 17.8789L15.2292 17.7677L15.0388 17.6221L15.2292 17.4765L15.1506 17.3654L14.9627 17.3435L14.7507 17.5074L14.2655 17.1992V17.4017L14.6126 17.6221L14.2655 17.8425Z" fill="#00843D"/>
<path d="M14.2655 19.2786V19.0762L14.7507 19.3843L14.9627 19.2205L15.1506 19.2423L15.2292 19.3535L15.0388 19.4991L15.2292 19.6447L15.1506 19.7558L14.9627 19.7776L14.7507 19.6138L14.2655 19.922V19.7196L14.6126 19.4991L14.2655 19.2786Z" fill="#00843D"/>
<path d="M13.4017 15.7441V15.9929H13.6504V16.2499H13.4287V16.0774H13.1447V15.7441H13.4017Z" fill="#00843D"/>
<path d="M14.2394 16.36V16.6087H14.4883V16.8658H14.2664V16.6933H13.9824V16.36H14.2394Z" fill="#00843D"/>
<path d="M7.79954 15.7441V15.9929H7.55078V16.2499H7.77258V16.0773H8.05654V15.7441H7.79954Z" fill="#00843D"/>
<path d="M13.4017 21.3769V21.1281H13.6504V20.8711H13.4287V21.0436H13.1447V21.3769H13.4017Z" fill="#00843D"/>
<path d="M7.79958 21.3776V21.1288H7.55078V20.8718H7.77258V21.0443H8.05658V21.3776H7.79958Z" fill="#00843D"/>
<path d="M14.2394 20.7616V20.5129H14.4883V20.2559H14.2664V20.4284H13.9824V20.7616H14.2394Z" fill="#00843D"/>
<path d="M6.9636 16.36V16.6087H6.71484V16.8658H6.93664V16.6933H7.2206V16.36H6.9636Z" fill="#00843D"/>
<path d="M6.96364 20.7616V20.5129H6.71484V20.2559H6.93664V20.4284H7.22064V20.7616H6.96364Z" fill="#00843D"/>
<path d="M11.434 15.5358C11.4518 15.553 11.6511 15.7466 11.6511 15.7466C11.6511 15.7466 11.8505 15.553 11.8683 15.5358C11.8851 15.5513 12.0206 15.6769 12.0393 15.6941C12.02 15.7127 11.8541 15.8737 11.8541 15.8737L12.0643 16.0777H11.7908L11.6511 15.9422L11.5115 16.0777H11.2381L11.4481 15.8737C11.4481 15.8737 11.2823 15.7127 11.2631 15.6941C11.2816 15.6769 11.4173 15.5513 11.434 15.5358Z" fill="#00843D"/>
<path d="M10.3835 15.5358C10.4012 15.553 10.6006 15.7466 10.6006 15.7466C10.6006 15.7466 10.8 15.553 10.8177 15.5358C10.8345 15.5513 10.9701 15.6769 10.9886 15.6941C10.9695 15.7127 10.8036 15.8737 10.8036 15.8737L11.0137 16.0777H10.7401L10.6006 15.9422L10.461 16.0777H10.1875L10.3976 15.8737C10.3976 15.8737 10.2317 15.7127 10.2125 15.6941C10.2311 15.6769 10.3667 15.5513 10.3835 15.5358Z" fill="#00843D"/>
<path d="M9.76689 15.5358C9.74914 15.553 9.54972 15.7466 9.54972 15.7466C9.54972 15.7466 9.3503 15.553 9.33264 15.5358C9.3158 15.5513 9.18022 15.6769 9.16172 15.6941C9.18089 15.7127 9.3468 15.8737 9.3468 15.8737L9.13672 16.0777H9.41014L9.54972 15.9422L9.6893 16.0777H9.9628L9.75272 15.8737C9.75272 15.8737 9.91864 15.7127 9.9378 15.6941C9.91922 15.6769 9.78372 15.5513 9.76689 15.5358Z" fill="#00843D"/>
<path d="M11.434 21.5855C11.4518 21.5683 11.6511 21.3747 11.6511 21.3747C11.6511 21.3747 11.8505 21.5683 11.8683 21.5855C11.8851 21.57 12.0206 21.4444 12.0393 21.4272C12.02 21.4086 11.8541 21.2476 11.8541 21.2476L12.0643 21.0436H11.7908L11.6511 21.1791L11.5115 21.0436H11.2381L11.4481 21.2476C11.4481 21.2476 11.2823 21.4086 11.2631 21.4272C11.2816 21.4444 11.4173 21.57 11.434 21.5855Z" fill="#00843D"/>
<path d="M10.3835 21.5855C10.4012 21.5682 10.6006 21.3746 10.6006 21.3746C10.6006 21.3746 10.8 21.5682 10.8177 21.5855C10.8345 21.5699 10.9701 21.4443 10.9886 21.4272C10.9695 21.4085 10.8036 21.2475 10.8036 21.2475L11.0137 21.0436H10.7401L10.6006 21.179L10.461 21.0436H10.1875L10.3976 21.2475C10.3976 21.2475 10.2317 21.4085 10.2125 21.4272C10.2311 21.4443 10.3667 21.5699 10.3835 21.5855Z" fill="#00843D"/>
<path d="M9.76689 21.5855C9.74914 21.5682 9.54972 21.3746 9.54972 21.3746C9.54972 21.3746 9.3503 21.5682 9.33264 21.5855C9.3158 21.5699 9.18022 21.4443 9.16172 21.4272C9.18089 21.4085 9.3468 21.2475 9.3468 21.2475L9.13672 21.0436H9.41014L9.54972 21.179L9.6893 21.0436H9.9628L9.75272 21.2475C9.75272 21.2475 9.91864 21.4085 9.9378 21.4272C9.91922 21.4443 9.78372 21.5699 9.76689 21.5855Z" fill="#00843D"/>
<path d="M7.77226 20.4283V21.044H13.428V20.4283H14.2647V16.6931H13.428V16.0775H7.77226V16.6931H6.93555V20.4283H7.77226Z" fill="#383739"/>
<path d="M7.8017 16.1055V16.72H6.96484V20.3992H7.8017V21.0137H13.3984V20.3992H14.2354V16.7198H13.3984V16.1055H7.8017ZM8.16188 16.3421H13.0383V16.9352L13.2396 17.0836H13.9988V20.0391H13.2361L13.0383 20.1838V20.7806H8.16188V20.1873L7.96062 20.0391H7.19789V17.0836H7.95709L8.16188 16.9352L8.16188 16.3421Z" fill="#FFC72C"/>
<path d="M8.19081 16.3704V16.9143L8.92529 16.3704H8.19081ZM12.2727 16.3704L13.0072 16.9143V16.3704H12.2727ZM7.23036 17.1121V17.6206L7.92245 17.1121H7.23036ZM13.2757 17.1121L13.9712 17.6241V17.1121H13.2757ZM13.9712 19.4954L13.2757 20.0111H13.9712V19.4954ZM7.23035 19.4989V20.0111H7.92244L7.23035 19.4989ZM8.1908 20.2088V20.7489H8.9217L8.1908 20.2088ZM13.0072 20.2088L12.2763 20.7489H13.0072V20.2088Z" fill="#D22630"/>
<path d="M12.2251 16.3711C12.2326 16.3766 13.9594 17.652 13.9709 17.6605V19.4612C13.9594 19.4697 12.2326 20.7451 12.2251 20.7507H8.97446C8.96696 20.7451 7.24012 19.4697 7.22864 19.4612V17.6605C7.24012 17.652 8.96696 16.3766 8.97446 16.3711H12.2251Z" fill="#00843D"/>
<path d="M7.64408 19.6683L7.44336 19.4353L7.6318 19.2166L7.44336 18.9979L7.6318 18.7793L7.44336 18.5606L7.6318 18.3419L7.44336 18.1233L7.63176 17.9046L7.44336 17.6859L7.64408 17.453H13.5548L13.7556 17.6859L13.5671 17.9046L13.7556 18.1233L13.5671 18.3419L13.7556 18.5606L13.5671 18.7793L13.7556 18.9979L13.5671 19.2166L13.7556 19.4353L13.5548 19.6683H7.64408ZM11.7071 16.6525L11.4742 16.4518L11.2554 16.6403L11.0368 16.4518L10.8181 16.6403L10.5994 16.4518L10.3808 16.6403L10.1621 16.4518L9.94342 16.6403L9.72475 16.4518L9.49183 16.6525V20.4688L9.72475 20.6694L9.94342 20.481L10.1621 20.6694L10.3808 20.481L10.5994 20.6694L10.8181 20.481L11.0368 20.6694L11.2554 20.481L11.4742 20.6694L11.7071 20.4688V16.6525Z" fill="#383739"/>
<path d="M11.2425 16.6658L11.0383 16.4896L10.8339 16.6658V20.4558L11.0383 20.6318L11.2425 20.4558V16.6658Z" fill="#FFC72C"/>
<path d="M10.3677 16.6658L10.1633 16.4896L9.95898 16.6658V20.4558L10.1633 20.6318L10.3677 20.4558V16.6658Z" fill="#FFC72C"/>
<path d="M7.65838 19.6399L7.4823 19.4355L7.65838 19.2311H13.543L13.7191 19.4355L13.543 19.6399H7.65838Z" fill="#FFC72C"/>
<path d="M13.5429 18.3561L13.7191 18.5605L13.5429 18.7649H7.65842L7.4823 18.5605L7.65842 18.3561H13.5429Z" fill="#FFC72C"/>
<path d="M13.543 17.8906L13.7191 17.6862L13.543 17.4818H7.65838L7.4823 17.6862L7.65838 17.8906H13.543Z" fill="#FFC72C"/>
<path d="M11.68 16.6658L11.4758 16.4896L11.2714 16.6658V20.4558L11.4758 20.6318L11.68 20.4558V16.6658Z" fill="#D22630"/>
<path d="M9.93011 16.6658L9.72578 16.4896L9.52136 16.6658V20.4558L9.72578 20.6318L9.93011 20.4558V16.6658Z" fill="#D22630"/>
<path d="M7.65842 19.2024L7.4823 18.998L7.65842 18.7936H13.5429L13.7191 18.998L13.5429 19.2024H7.65842Z" fill="#D22630"/>
<path d="M7.65842 18.3281L7.4823 18.1237L7.65842 17.9193H13.5429L13.7191 18.1237L13.5429 18.3281H7.65842Z" fill="#D22630"/>
<path d="M10.805 20.4558L10.6006 20.6318L10.3962 20.4558V16.6658L10.6006 16.4896L10.805 16.6658V20.4558Z" fill="#D22630"/>
<path d="M12.5756 16.7396H8.61025V17.0545H8.10352V20.0668H8.61025V20.3817H12.5899V20.0668H13.0967V17.0545H12.5899V16.7396H12.5756Z" fill="#383739"/>
<path d="M8.6392 16.7695V17.0839H8.13074V20.0394H8.6392V20.3537H9.05587L8.22607 19.658V17.4652L9.05587 16.7695H8.6392ZM12.1457 16.7695L12.9719 17.4652V19.658L12.1457 20.3537H12.5623V20.0394H13.0672V17.0839H12.5623V16.7695H12.1457Z" fill="#D22630"/>
<path d="M9.10121 16.7695C9.09338 16.7762 8.26383 17.4709 8.25378 17.4794V19.6439C8.26383 19.6524 9.09338 20.347 9.10121 20.3537H12.0991C12.107 20.347 12.933 19.6523 12.943 19.6439V17.4794C12.933 17.4709 12.107 16.7762 12.0991 16.7695H9.10121ZM9.14363 16.8897H12.0532L12.823 17.5359V19.5874L12.0532 20.23H9.14363L8.37738 19.5874V17.5359L9.14363 16.8897Z" fill="#00843D"/>
<path d="M9.91293 19.6191L10.0432 19.6754L10.0672 19.8275L9.90318 19.9718L10.1414 20.2021H9.91218L9.74835 20.0443L9.58451 20.2021H9.35535L9.59351 19.9718L9.42951 19.8275L9.45351 19.6754L9.58368 19.6191L9.74835 19.7508L9.75726 19.7437L9.91293 19.6191Z" fill="#00843D"/>
<path d="M10.7646 19.6191L10.8948 19.6754L10.9188 19.8275L10.7548 19.9718L10.993 20.2021H10.7638L10.5998 20.0443L10.4361 20.2021H10.2068L10.4451 19.9718L10.2811 19.8275L10.3051 19.6754L10.4353 19.6191L10.5998 19.7508L10.6088 19.7437L10.7646 19.6191Z" fill="#00843D"/>
<path d="M11.2849 19.6191L11.1547 19.6754L11.1307 19.8275L11.2946 19.9718L11.0565 20.2021H11.2856L11.4495 20.0443L11.6134 20.2021H11.8425L11.6044 19.9718L11.7683 19.8275L11.7443 19.6754L11.6141 19.6191L11.4495 19.7508L11.4406 19.7437L11.2849 19.6191Z" fill="#00843D"/>
<path d="M9.91293 17.5014L10.0432 17.4452L10.0672 17.2931L9.90318 17.1488L10.1414 16.9186H9.91218L9.74835 17.0762L9.58451 16.9186H9.35535L9.59351 17.1488L9.42951 17.293L9.45351 17.4452L9.58368 17.5014L9.74835 17.3698L9.75726 17.377L9.91293 17.5014Z" fill="#00843D"/>
<path d="M10.7646 17.5014L10.8948 17.4452L10.9188 17.2931L10.7548 17.1488L10.993 16.9186H10.7638L10.5998 17.0762L10.4361 16.9186H10.2068L10.4451 17.1488L10.2811 17.293L10.3051 17.4452L10.4353 17.5014L10.5998 17.3698L10.6088 17.377L10.7646 17.5014Z" fill="#00843D"/>
<path d="M11.2849 17.5014L11.1547 17.4452L11.1307 17.2931L11.2946 17.1488L11.0565 16.9186H11.2856L11.4495 17.0762L11.6134 16.9186H11.8425L11.6044 17.1488L11.7683 17.293L11.7443 17.4452L11.6141 17.5014L11.4495 17.3698L11.4406 17.377L11.2849 17.5014Z" fill="#00843D"/>
<path d="M12.7935 17.7448L12.6635 17.8525L12.7935 17.9601V18.1385L12.5937 17.9737C12.5937 17.9737 12.4592 18.0955 12.4502 18.1037C12.4387 18.1023 12.309 18.086 12.2963 18.0844C12.2905 18.0739 12.2501 17.9993 12.242 17.9844C12.2554 17.9711 12.3744 17.8525 12.3744 17.8525C12.3744 17.8525 12.2554 17.7338 12.242 17.7205C12.2501 17.7055 12.2905 17.6309 12.2963 17.6205C12.309 17.6189 12.4387 17.6025 12.4502 17.6011C12.4592 17.6093 12.5937 17.7311 12.5937 17.7311L12.7935 17.5664V17.7448Z" fill="#00843D"/>
<path d="M12.7935 18.4532L12.6635 18.5609L12.7935 18.6684V18.8469L12.5937 18.682C12.5937 18.682 12.4592 18.8039 12.4502 18.812C12.4387 18.8107 12.309 18.7944 12.2963 18.7928C12.2905 18.7823 12.2501 18.7077 12.242 18.6928C12.2554 18.6794 12.3744 18.5609 12.3744 18.5609C12.3744 18.5609 12.2554 18.4422 12.242 18.4288C12.2501 18.4139 12.2905 18.3393 12.2963 18.3288C12.309 18.3273 12.4387 18.3109 12.4502 18.3094C12.4592 18.3177 12.5937 18.4394 12.5937 18.4394L12.7935 18.2748V18.4532Z" fill="#00843D"/>
<path d="M12.7935 19.3768L12.6635 19.2692L12.7935 19.1616V18.9831L12.5937 19.1478C12.5937 19.1478 12.4592 19.026 12.4502 19.0178C12.4387 19.0193 12.309 19.0356 12.2963 19.0372C12.2905 19.0477 12.2501 19.1223 12.242 19.1372C12.2554 19.1506 12.3744 19.2692 12.3744 19.2692C12.3744 19.2692 12.2554 19.3878 12.242 19.4012C12.2501 19.416 12.2905 19.4906 12.2963 19.5012C12.309 19.5028 12.4387 19.519 12.4502 19.5205C12.4592 19.5123 12.5937 19.3905 12.5937 19.3905L12.7935 19.5552V19.3768Z" fill="#00843D"/>
<path d="M8.40588 17.7448L8.53588 17.8524L8.40588 17.96V18.1385L8.6058 17.9737C8.6058 17.9737 8.74022 18.0955 8.7493 18.1037C8.7608 18.1023 8.8903 18.086 8.90313 18.0844C8.90888 18.0739 8.94922 17.9993 8.9573 17.9844C8.94397 17.971 8.82497 17.8524 8.82497 17.8524C8.82497 17.8524 8.94397 17.7338 8.9573 17.7204C8.94922 17.7055 8.90888 17.6309 8.90313 17.6204C8.8903 17.6188 8.7608 17.6025 8.7493 17.6011C8.74022 17.6093 8.6058 17.7311 8.6058 17.7311L8.40588 17.5664V17.7448Z" fill="#00843D"/>
<path d="M8.40588 18.4532L8.53588 18.5608L8.40588 18.6684V18.8469L8.6058 18.682C8.6058 18.682 8.74022 18.8039 8.7493 18.812C8.7608 18.8107 8.8903 18.7943 8.90313 18.7928C8.90888 18.7823 8.94922 18.7077 8.9573 18.6928C8.94397 18.6794 8.82497 18.5608 8.82497 18.5608C8.82497 18.5608 8.94397 18.442 8.9573 18.4288C8.94922 18.4139 8.90888 18.3393 8.90313 18.3288C8.8903 18.3272 8.7608 18.3109 8.7493 18.3094C8.74022 18.3177 8.6058 18.4394 8.6058 18.4394L8.40588 18.2748V18.4532Z" fill="#00843D"/>
<path d="M8.40588 19.3768L8.53588 19.2692L8.40588 19.1616V18.9831L8.6058 19.1478C8.6058 19.1478 8.74022 19.026 8.7493 19.0178C8.7608 19.0193 8.8903 19.0356 8.90313 19.0372C8.90888 19.0477 8.94922 19.1223 8.9573 19.1372C8.94397 19.1506 8.82497 19.2692 8.82497 19.2692C8.82497 19.2692 8.94397 19.3878 8.9573 19.4012C8.94922 19.416 8.90888 19.4906 8.90313 19.5012C8.8903 19.5028 8.7608 19.519 8.7493 19.5205C8.74022 19.5123 8.6058 19.3905 8.6058 19.3905L8.40588 19.5552V19.3768Z" fill="#00843D"/>
<path d="M9.15471 16.918C9.14696 16.9245 8.44788 17.5096 8.41671 17.5358C8.47971 17.5881 8.54071 17.6427 8.60388 17.6947C8.61988 17.6803 8.74154 17.5711 8.74154 17.5711L8.92163 17.5958L8.99229 17.7266C8.99229 17.7266 8.88246 17.8365 8.86521 17.8536C8.88246 17.8708 8.99229 17.9807 8.99229 17.9807L8.92163 18.1115L8.74154 18.1326C8.74154 18.1326 8.61988 18.0271 8.60388 18.0126L8.40613 18.1786V18.235C8.47263 18.2901 8.53713 18.346 8.60388 18.401C8.61988 18.3866 8.74154 18.281 8.74154 18.281L8.92163 18.3021L8.99229 18.4327C8.99229 18.4327 8.88246 18.5426 8.86521 18.5598C8.88246 18.5771 8.99229 18.687 8.99229 18.687L8.92163 18.8211L8.74154 18.8423C8.74154 18.8423 8.61988 18.7332 8.60388 18.7187L8.40613 18.8847V18.9447L8.60388 19.1107C8.61988 19.0962 8.74154 18.9871 8.74154 18.9871L8.92163 19.0118L8.99229 19.1425C8.99229 19.1425 8.88246 19.2525 8.86521 19.2696C8.88246 19.2868 8.99229 19.3967 8.99229 19.3967L8.92163 19.5273L8.74154 19.5521C8.74154 19.5521 8.61988 19.443 8.60388 19.4286C8.54096 19.4803 8.47954 19.5321 8.41671 19.5838C8.44788 19.6101 9.14696 20.1953 9.15471 20.2018H9.31713L9.55371 19.9722L9.40188 19.8381L9.43013 19.6545L9.58904 19.5875L9.75146 19.7146L9.91038 19.5875L10.0693 19.6545L10.101 19.8381L9.94571 19.9722L10.1752 20.1912L10.4047 19.9722L10.2493 19.8381L10.2776 19.6545L10.44 19.5875L10.5989 19.7146L10.7614 19.5875L10.9203 19.6545L10.9485 19.8381L10.7967 19.9722L11.0227 20.1947L11.2522 19.9722L11.1003 19.8381L11.1286 19.6545L11.291 19.5875L11.4499 19.7146L11.6088 19.5875L11.7712 19.6545L11.7995 19.8381L11.6477 19.9722L11.8842 20.2018H12.0431C12.0508 20.1953 12.7499 19.6101 12.7811 19.5838C12.7182 19.5321 12.657 19.4805 12.594 19.4286C12.578 19.443 12.4598 19.5521 12.4598 19.5521L12.2797 19.5273L12.2056 19.3967C12.2056 19.3967 12.3154 19.2868 12.3327 19.2696C12.3154 19.2525 12.2056 19.1425 12.2056 19.1425L12.2797 19.0118L12.4598 18.9871C12.4598 18.9871 12.578 19.0962 12.594 19.1107L12.7917 18.9447V18.8847L12.594 18.7187C12.578 18.7332 12.4598 18.8423 12.4598 18.8423L12.2797 18.8211L12.2056 18.687C12.2056 18.687 12.3154 18.5771 12.3327 18.5598C12.3154 18.5426 12.2056 18.4327 12.2056 18.4327L12.2797 18.3021L12.4598 18.281C12.4598 18.281 12.578 18.3866 12.594 18.401C12.6603 18.3463 12.7256 18.293 12.7917 18.2386V18.175L12.594 18.0126C12.578 18.0271 12.4598 18.1326 12.4598 18.1326L12.2797 18.1115L12.2056 17.9807C12.2056 17.9807 12.3154 17.8708 12.3327 17.8536C12.3154 17.8365 12.2056 17.7266 12.2056 17.7266L12.2797 17.5958L12.4598 17.5711C12.4598 17.5711 12.578 17.6803 12.594 17.6947C12.6573 17.6426 12.7214 17.5916 12.7847 17.5393C12.7603 17.519 12.0509 16.9245 12.0431 16.918H11.8842L11.6476 17.1475L11.7995 17.2816L11.7712 17.4652L11.6088 17.5358L11.4499 17.4087L11.291 17.5358L11.1286 17.4652L11.1003 17.2816L11.2522 17.1475L11.0262 16.9286L10.7967 17.1475L10.9485 17.2816L10.9202 17.4652L10.7614 17.5358L10.5989 17.4087L10.44 17.5358L10.2776 17.4652L10.2493 17.2816L10.4047 17.1475L10.1752 16.9286L9.94571 17.1475L10.101 17.2816L10.0693 17.4652L9.91038 17.5358L9.75146 17.4087L9.58904 17.5358L9.43013 17.4652L9.40188 17.2816L9.55371 17.1475L9.31363 16.918H9.15471ZM8.40613 18.4892V18.6341L8.49088 18.5598L8.40613 18.4892Z" fill="#D22630"/>
<path d="M9.75038 20.0853L9.62671 20.2018H9.87038L9.75038 20.0853Z" fill="white"/>
<path d="M10.5983 20.0853L10.4783 20.2018H10.7219L10.5983 20.0853Z" fill="white"/>
<path d="M11.4495 20.0853L11.326 20.2018H11.5731L11.4495 20.0853Z" fill="white"/>
<path d="M9.62488 16.918L9.75196 17.038L9.87563 16.918H9.62488Z" fill="white"/>
<path d="M10.4744 16.918L10.5981 17.038L10.7252 16.918H10.4744Z" fill="white"/>
<path d="M11.326 16.918L11.4496 17.038L11.5732 16.918H11.326Z" fill="white"/>
<path d="M12.7916 17.7826L12.7068 17.8533L12.7916 17.9203V17.7826Z" fill="white"/>
<path d="M12.7916 18.4889L12.7068 18.5595L12.7916 18.6301V18.4889Z" fill="white"/>
<path d="M12.7916 19.1986L12.7068 19.2693L12.7916 19.3399V19.1986Z" fill="white"/>
<path d="M8.40613 17.7794V17.924L8.49088 17.8534L8.40613 17.7794Z" fill="white"/>
<path d="M8.40613 18.4889V18.6336L8.49088 18.5595L8.40613 18.4889Z" fill="white"/>
<path d="M8.40613 19.1953V19.3401L8.49088 19.2694L8.40613 19.1953Z" fill="white"/>
<path d="M11.3265 18.3242V18.0713H11.0707V17.7943H10.1286V18.0713H9.87286V18.3242H9.51953V18.7973H9.87286V19.0501H10.1286V19.3272H11.0707V19.0501H11.3265V18.7973H11.6799V18.3242H11.3265Z" fill="#383739"/>
<path d="M10.5841 17.8229V18.1085L10.1792 18.3388V18.5465H9.54688V18.3528H9.90013V18.1H10.156V17.8229H10.5841Z" fill="#FFC72C"/>
<path d="M10.6133 19.2985V19.0128L11.0182 18.7826V18.5748H11.6505V18.7686H11.2973V19.0213H11.0415V19.2985H10.6133Z" fill="#FFC72C"/>
<path d="M11.0182 18.5465V18.3388L10.6133 18.1085V17.8229H11.0415V18.1H11.2973V18.3528H11.6505V18.5465H11.0182Z" fill="white"/>
<path d="M9.54883 18.5748H10.1811V18.7826L10.5861 19.0128V19.2985H10.1579V19.0213H9.90208V18.7686H9.54883V18.5748Z" fill="white"/>
<path d="M10.2089 18.5748V18.7673L10.5853 18.9813V18.5748H10.2089Z" fill="#D22630"/>
<path d="M10.5853 18.14L10.2089 18.354V18.5465H10.5853V18.14Z" fill="#00843D"/>
<path d="M10.9896 18.5466V18.354L10.6133 18.14V18.5466H10.9896Z" fill="#D22630"/>
<path d="M10.6133 18.9815L10.9896 18.7675V18.5748H10.6133V18.9815Z" fill="#00843D"/>
<path d="M7.17666 23.5823V24.3634H6.43229V25.0719H5.67786V27.0891H6.43229V27.7976H7.17666V28.5787H9.88321L10.3591 28.8647L10.1304 29.0021H9.16537L9.08212 28.9082H9.95671L9.71029 28.6601H8.45921L9.02604 29.2502H10.1993L10.6 29.0094L11.0008 29.2502H12.1741L12.7409 28.6601H11.4898L11.2434 28.9082H12.118L12.0347 29.0021H11.0696L10.8409 28.8647L11.3169 28.5787H14.0234V27.7976H14.7678V27.0891H15.5222V25.0719H14.7678V24.3634H14.0234V23.5823H11.3169L10.8409 23.2963L11.0696 23.1589H12.0347L12.118 23.2528H11.2434L11.4898 23.5009H12.7409L12.1741 22.9108H11.0008L10.6 23.1516L10.1993 22.9108H9.02604L8.45921 23.5009H9.71029L9.95671 23.2528H9.08212L9.16537 23.1589H10.1304L10.3591 23.2963L9.88321 23.5823H7.17666Z" fill="#D22630"/>
<path d="M11.3088 28.5489H13.9961V27.7687H14.7376V27.0588H15.4932V25.0992H14.7376V24.3929H13.9961V23.6126H11.3088L10.1931 22.9382H9.03842L8.52642 23.4713H9.69875L9.88942 23.2807H9.01725L9.15142 23.1288H10.1401L11.4043 23.8916H13.7136V24.6718H14.4586V25.3817H15.2143V26.7799H14.4586V27.4897H13.7136V28.2701H11.4043L10.1401 29.0293H9.15142L9.01725 28.8809H9.88942L9.69875 28.6903H8.52642L9.03842 29.2234H10.1931L11.3088 28.5489ZM9.79409 28.2701H7.48475V27.4897H6.74321V26.7799H5.98756V25.3817H6.74321V24.6718H7.48475V23.8916H9.79409L11.0618 23.1288H12.0468L12.1811 23.2807H11.3124L11.5031 23.4713H12.6754L12.1634 22.9382H11.0088L9.89292 23.6126H7.20578V24.3929H6.46073V25.0992H5.70508V27.0588H6.46073V27.7687H7.20578V28.5489H9.89292L11.0088 29.2234H12.1634L12.6754 28.6903H11.5031L11.3124 28.8809H12.1811L12.0468 29.0293H11.0618L9.79409 28.2701Z" fill="#FFC72C"/>
<path d="M13.489 27.2643V28.0453H11.3423L10.5993 28.4918L9.85642 28.0453H7.70975V27.2643H6.96535V26.5558H6.21094V25.6059H6.96535V24.8974H7.70975V24.1163H9.85242H9.85642L10.5993 23.6699L11.3423 24.1163H13.489V24.8974H14.2333V25.6059H14.9877V26.5558H14.2333V27.2643H13.489Z" fill="#00843D"/>
<path d="M7.99023 26.9902V27.7462H9.17025L7.99023 26.9635V26.9902Z" fill="#383739"/>
<path d="M7.99023 25.1708V24.4148H9.17025L7.99023 25.1974V25.1708Z" fill="#383739"/>
<path d="M13.2073 26.9902V27.7462H12.0273L13.2073 26.9635V26.9902Z" fill="#383739"/>
<path d="M13.2073 25.1708V24.4148H12.0273L13.2073 25.1974V25.1708Z" fill="#383739"/>
<path d="M8.01953 27.017L9.07616 27.7178H8.01953V27.017Z" fill="#D22630"/>
<path d="M8.01953 25.1448C8.06061 25.1175 9.00416 24.4917 9.07616 24.444H8.01953V25.1448Z" fill="#D22630"/>
<path d="M13.1777 27.017C13.1366 27.0443 12.1931 27.6701 12.1211 27.7178H13.1777V27.017Z" fill="#D22630"/>
<path d="M13.1777 25.1448C13.1366 25.1176 12.1931 24.4917 12.1211 24.444H13.1777V25.1448Z" fill="#D22630"/>
<path d="M9.49767 25.8736V25.4874H9.366L8.73425 25.0924L8.72667 25.0972L8.10251 25.4874H7.97083V25.8736H7.67383V26.2882H7.97083V26.6742H8.10251L8.73425 27.0692L9.366 26.6742H9.49767V26.2882H9.94975V25.8736H9.49767Z" fill="#383739"/>
<path d="M8.73421 25.1257L9.31204 25.4869H8.15637L8.73421 25.1257ZM9.31196 26.6738L8.73421 27.0349L8.15641 26.6738H9.31196Z" fill="#D22630"/>
<path d="M9.17175 25.9017V26.2592H8.45117V25.9017H9.17175Z" fill="#D22630"/>
<path d="M9.47058 26.2877V26.6452H8.75V26.2877H9.47058Z" fill="#FFC72C"/>
<path d="M8.72058 26.2877V26.6452H8V26.2877H8.72058Z" fill="#FFC72C"/>
<path d="M9.92175 25.9017V26.2592H9.20117V25.9017H9.92175Z" fill="#FFC72C"/>
<path d="M8.42387 25.9017V26.2592H7.70325V25.9017H8.42387Z" fill="#FFC72C"/>
<path d="M9.47058 25.5157V25.8732H8.75V25.5157H9.47058Z" fill="#FFC72C"/>
<path d="M8.72058 25.5157V25.8732H8V25.5157H8.72058Z" fill="#FFC72C"/>
<path d="M8.22407 25.9811V26.1797H7.90039V25.9811H8.22407Z" fill="#383739"/>
<path d="M8.52092 25.5951V25.7938H8.19727V25.5951H8.52092Z" fill="#383739"/>
<path d="M9.27093 25.5951V25.7938H8.94727V25.5951H9.27093Z" fill="#383739"/>
<path d="M8.97406 25.9811V26.1797H8.65039V25.9811H8.97406Z" fill="#383739"/>
<path d="M9.72223 25.9811V26.1797H9.39856V25.9811H9.72223Z" fill="#383739"/>
<path d="M9.27093 26.3672V26.5659H8.94727V26.3672H9.27093Z" fill="#383739"/>
<path d="M8.52092 26.3672V26.5659H8.19727V26.3672H8.52092Z" fill="#383739"/>
<path d="M8.19436 26.0117H7.93164V26.1494H8.19436V26.0117Z" fill="white"/>
<path d="M8.49138 25.6257H8.22864V25.7633H8.49138V25.6257Z" fill="white"/>
<path d="M9.24127 25.6257H8.97852V25.7633H9.24127V25.6257Z" fill="white"/>
<path d="M8.94431 26.0117H8.68164V26.1494H8.94431V26.0117Z" fill="white"/>
<path d="M9.69256 26.0117H9.42981V26.1494H9.69256V26.0117Z" fill="white"/>
<path d="M9.24127 26.3978H8.97852V26.5354H9.24127V26.3978Z" fill="white"/>
<path d="M8.49138 26.3978H8.22864V26.5355H8.49138V26.3978Z" fill="white"/>
<path d="M11.7035 25.8736V25.4874H11.8352L12.467 25.0924L12.4745 25.0972L13.0987 25.4874H13.2303V25.8736H13.5273V26.2882H13.2303V26.6742H13.0987L12.467 27.0692L11.8352 26.6742H11.7035V26.2882H11.2515V25.8736H11.7035Z" fill="#383739"/>
<path d="M12.467 25.1257L11.8892 25.4869H13.0447L12.467 25.1257ZM11.8892 26.6738L12.467 27.0349L13.0447 26.6738H11.8892Z" fill="#D22630"/>
<path d="M12.0295 25.9017V26.2592H12.7501V25.9017H12.0295Z" fill="#D22630"/>
<path d="M11.7324 26.2871V26.6446H12.453V26.2871H11.7324Z" fill="#FFC72C"/>
<path d="M12.4824 26.2877V26.6453H13.203V26.2877H12.4824Z" fill="#FFC72C"/>
<path d="M11.2812 25.9017V26.2592H12.0018V25.9017H11.2812Z" fill="#FFC72C"/>
<path d="M12.7795 25.9017V26.2592H13.5001V25.9017H12.7795Z" fill="#FFC72C"/>
<path d="M11.7324 25.5157V25.8732H12.453V25.5157H11.7324Z" fill="#FFC72C"/>
<path d="M12.4824 25.5157V25.8732H13.203V25.5157H12.4824Z" fill="#FFC72C"/>
<path d="M12.9771 25.9811V26.1797H13.3007V25.9811H12.9771Z" fill="#383739"/>
<path d="M12.6802 25.5951V25.7938H13.0039V25.5951H12.6802Z" fill="#383739"/>
<path d="M11.9302 25.5951V25.7938H12.2539V25.5951H11.9302Z" fill="#383739"/>
<path d="M12.2271 25.9811V26.1797H12.5507V25.9811H12.2271Z" fill="#383739"/>
<path d="M11.4788 25.9811V26.1797H11.8025V25.9811H11.4788Z" fill="#383739"/>
<path d="M11.9302 26.3672V26.5658H12.2539V26.3672H11.9302Z" fill="#383739"/>
<path d="M12.6802 26.3672V26.5659H13.0039V26.3672H12.6802Z" fill="#383739"/>
<path d="M13.0067 26.0117H13.2693V26.1493H13.0067V26.0117Z" fill="white"/>
<path d="M12.7097 25.6257H12.9723V25.7633H12.7097V25.6257Z" fill="white"/>
<path d="M11.9598 25.6257H12.2226V25.7633H11.9598V25.6257Z" fill="white"/>
<path d="M12.2567 26.0117H12.5193V26.1494H12.2567V26.0117Z" fill="white"/>
<path d="M11.5085 26.0117H11.7712V26.1493H11.5085V26.0117Z" fill="white"/>
<path d="M11.9598 26.3978H12.2226V26.5355H11.9598V26.3978Z" fill="white"/>
<path d="M12.7097 26.3978H12.9723V26.5355H12.7097V26.3978Z" fill="white"/>
<path d="M11.3624 25.2283V25.6143H11.2307L10.5989 26.0093L10.5914 26.0047L9.96719 25.6143H9.83552V25.2283H9.46094V24.8137H9.83552V24.4277H9.96719L10.5989 24.0326L11.2307 24.4277H11.3624V24.8137H11.7369V25.2283H11.3624Z" fill="#383739"/>
<path d="M10.5992 25.9758L11.1771 25.6145H10.0215L10.5992 25.9758ZM11.1771 24.4277L10.5992 24.0664L10.0215 24.4277H11.1771Z" fill="#FFC72C"/>
<path d="M11.3319 24.8138V24.4564H10.6113V24.8138H11.3319Z" fill="#D22630"/>
<path d="M10.5838 24.8139V24.4564H9.8631V24.8139H10.5838Z" fill="#D22630"/>
<path d="M11.7069 25.1999V24.8424H10.9863V25.1999H11.7069Z" fill="#D22630"/>
<path d="M10.9589 25.1999V24.8424H10.2383V25.1999H10.9589Z" fill="#D22630"/>
<path d="M10.2092 25.1999V24.8424H9.48859V25.1999H10.2092Z" fill="#D22630"/>
<path d="M11.3319 25.586V25.2285H10.6113V25.586H11.3319Z" fill="#D22630"/>
<path d="M10.5838 25.586V25.2285H9.8631V25.586H10.5838Z" fill="#D22630"/>
<path d="M10.3862 24.5358V24.7344H10.0625V24.5358H10.3862Z" fill="#383739"/>
<path d="M11.1342 24.5358V24.7344H10.8105V24.5358H11.1342Z" fill="#383739"/>
<path d="M10.0112 24.9219V25.1206H9.6875V24.9219H10.0112Z" fill="#383739"/>
<path d="M10.7612 24.9219V25.1205H10.4375V24.9219H10.7612Z" fill="#383739"/>
<path d="M11.5094 24.9219V25.1206H11.1858V24.9219H11.5094Z" fill="#383739"/>
<path d="M10.3862 25.3079V25.5067H10.0625V25.3079H10.3862Z" fill="#383739"/>
<path d="M11.1342 25.3079V25.5067H10.8105V25.3079H11.1342Z" fill="#383739"/>
<path d="M10.3545 24.5658H10.0918V24.7035H10.3545V24.5658Z" fill="white"/>
<path d="M11.1027 24.5658H10.8398V24.7035H11.1027V24.5658Z" fill="white"/>
<path d="M9.97946 24.9518H9.7168V25.0895H9.97946V24.9518Z" fill="white"/>
<path d="M10.7295 24.9518H10.4668V25.0894H10.7295V24.9518Z" fill="white"/>
<path d="M11.4776 24.9518H11.215V25.0895H11.4776V24.9518Z" fill="white"/>
<path d="M10.3545 25.3379H10.0918V25.4756H10.3545V25.3379Z" fill="white"/>
<path d="M11.1027 25.3379H10.8398V25.4756H11.1027V25.3379Z" fill="white"/>
<path d="M11.3624 27.3481V27.7341H11.2307L10.5989 28.1291L10.5914 28.1243L9.96719 27.7341H9.83552V27.3481H9.46094V26.9333H9.83552V26.5473H9.96719L10.5989 26.1523L11.2307 26.5473H11.3624V26.9333H11.7369V27.3481H11.3624Z" fill="#383739"/>
<path d="M10.5992 28.0949L11.1771 27.7337H10.0215L10.5992 28.0949ZM11.1771 26.5469L10.5992 26.1856L10.0215 26.5469H11.1771Z" fill="#FFC72C"/>
<path d="M11.3319 26.9337V26.5762H10.6113V26.9337H11.3319Z" fill="#D22630"/>
<path d="M10.5838 26.9337V26.5762H9.8631V26.9337H10.5838Z" fill="#D22630"/>
<path d="M11.7069 27.3191V26.9616H10.9863V27.3191H11.7069Z" fill="#D22630"/>
<path d="M10.9589 27.3191V26.9616H10.2383V27.3191H10.9589Z" fill="#D22630"/>
<path d="M10.2092 27.3198V26.9623H9.48859V27.3198H10.2092Z" fill="#D22630"/>
<path d="M11.3319 27.7058V27.3483H10.6113V27.7058H11.3319Z" fill="#D22630"/>
<path d="M10.5838 27.7058V27.3483H9.8631V27.7058H10.5838Z" fill="#D22630"/>
<path d="M10.3862 26.6549V26.8536H10.0625V26.6549H10.3862Z" fill="#383739"/>
<path d="M11.1342 26.6549V26.8536H10.8105V26.6549H11.1342Z" fill="#383739"/>
<path d="M10.0112 27.041V27.2398H9.6875V27.041H10.0112Z" fill="#383739"/>
<path d="M10.7612 27.041V27.2398H10.4375V27.041H10.7612Z" fill="#383739"/>
<path d="M11.5094 27.041V27.2398H11.1858V27.041H11.5094Z" fill="#383739"/>
<path d="M10.3862 27.4277V27.6264H10.0625V27.4277H10.3862Z" fill="#383739"/>
<path d="M11.1342 27.4277V27.6264H10.8105V27.4277H11.1342Z" fill="#383739"/>
<path d="M10.3545 26.6856H10.0918V26.8232H10.3545V26.6856Z" fill="white"/>
<path d="M11.1027 26.6856H10.8398V26.8232H11.1027V26.6856Z" fill="white"/>
<path d="M9.97946 27.0716H9.7168V27.2093H9.97946V27.0716Z" fill="white"/>
<path d="M10.7295 27.0716H10.4668V27.2093H10.7295V27.0716Z" fill="white"/>
<path d="M11.4776 27.0716H11.215V27.2093H11.4776V27.0716Z" fill="white"/>
<path d="M10.3545 27.457H10.0918V27.5948H10.3545V27.457Z" fill="white"/>
<path d="M11.1027 27.457H10.8398V27.5948H11.1027V27.457Z" fill="white"/>
<path d="M6.51172 31.9574L9.31517 30.4486H9.31875H11.8845L14.6878 31.9574V34.4434L11.8845 35.9521H9.31517L6.51172 34.4434V31.9574Z" fill="#383739"/>
<path d="M9.3235 30.4773L6.54102 31.9744V34.4249L9.3235 35.922H11.8764L14.659 34.4249V31.9744L11.8764 30.4773H9.3235ZM9.37292 30.6785H11.827L14.4613 32.0944V34.3085L11.827 35.7244H9.37142L6.73727 34.3085V32.0944L9.37292 30.6785Z" fill="#00843D"/>
<path d="M10.6147 33.1857V35.6952H11.8211L14.4333 34.2894V33.2144H10.5861V30.7051H9.37984L6.76758 32.1109V33.1857H10.6147Z" fill="#FFC72C"/>
<path d="M10.5861 33.1857V35.6952H9.37984L6.76758 34.2894V33.2144H10.6147V30.7051H11.8211L14.4333 32.1109V33.1857H10.5861Z" fill="white"/>
<path d="M10.8349 35.5547V34.8295L10.6004 34.9782L10.3659 34.8295V35.5547H9.63652L10.1287 35.1937V34.679L9.37802 34.2026H8.85352V32.1979H9.37802L10.1287 31.7215V31.2067L9.63652 30.8457H9.6801H10.3659V31.571L10.6004 31.4222L10.8349 31.571V30.8457H11.5644L11.0722 31.2067V31.7215L11.8228 32.1979H12.3473V34.2026H11.8228L11.0722 34.679V35.1937L11.5644 35.5547H10.8349Z" fill="#383739"/>
<path d="M10.8636 30.8763V31.6249L10.6129 31.466V31.6779L11.7605 32.4088H12.1383V33.1857H12.3184V32.2253H11.8135L11.0437 31.7379V31.1941L11.478 30.8763H10.8636ZM8.88269 33.214V34.1744H9.38411L10.1574 34.6651V35.209L9.72311 35.5267H10.3375V34.7781L10.5846 34.9371V34.7181L9.43711 33.9943H9.06277V33.214H8.88269Z" fill="#FFC72C"/>
<path d="M9.72311 30.8763L10.1574 31.1941V31.7379L9.38411 32.2253H8.88269V33.1857H9.06277V32.4088H9.43711L10.5846 31.6814V31.4661L10.3375 31.6249V30.8763H9.72311ZM12.1383 33.214V33.9943H11.7605L10.6129 34.7181V34.9371L10.8636 34.7781V35.5267H11.478L11.0437 35.209V34.6651L11.8134 34.1744H12.3184V33.214H12.1383Z" fill="white"/>
<path d="M9.08984 33.9643H9.44568L10.5996 34.6964L11.7533 33.9643H12.1092V32.4366H11.7575H11.7533L10.5996 31.7045L9.44568 32.4366H9.08984V33.9643Z" fill="#D22630"/>
<path d="M11.3983 33.5631H11.6446V33.4466H11.4593V33.2347H11.8554V33.7751H11.4757V34.1437H10.6941V33.614H11.0381V33.8259H10.9048V33.9318H11.265V33.7293L9.80083 32.8371H9.5545V32.9536H9.73983V33.1655H9.34375V32.6252H9.7235V32.2565H9.73775H10.5051V32.7861H10.1611V32.5743H10.2943V32.4684H9.93425V32.6709L11.3983 33.5631ZM11.265 32.6709V32.4684H10.9048V32.5743H11.0381V32.7861H10.6941V32.2565H11.4757V32.6252H11.8554V33.1655H11.4593V32.9536H11.6447V32.8371H11.3983L9.93425 33.7293V33.9318H10.2943V33.8259H10.1611V33.614H10.5051V34.1437H9.7235V33.775H9.34375V33.2347H9.73983V33.4466H9.5545V33.5631H9.80083L11.265 32.6709Z" fill="#383739"/>
<path d="M11.2941 33.7139V33.961H10.8769V33.798H11.0101V33.6432H10.7233V34.1158H11.4478V33.7471H11.8275V33.264H11.4885V33.4187H11.6739V33.5924H11.391L9.9063 32.6876V32.4405H10.3235V32.6036H10.1904V32.7583H10.4771V32.2858H9.75271V32.6544H9.37305V33.1376H9.71196V32.9828H9.52663V32.8092H9.80955L11.2941 33.7139ZM11.391 32.8092H11.6739V32.9828H11.4885V33.1376H11.8275V32.6544H11.4478V32.2858H10.7234V32.7583H11.0101V32.6036H10.877V32.4405H11.2941V32.6876L9.80955 33.5924H9.52663V33.4187H9.71196V33.2639H9.37305V33.7471H9.75271V34.1158H10.4771V33.6432H10.1904V33.798H10.3235V33.961H9.9063V33.7139L11.391 32.8092Z" fill="white"/>
<path d="M13.869 33.3262V34.1103H13.5353V33.8333H13.1989V34.1103H12.8652V33.3262H13.1989V33.6031H13.5353V33.3262H13.869Z" fill="#383739"/>
<path d="M12.6756 34.3672V35.1513H12.342V34.8744H12.0056V35.1513H11.6719V34.3672H12.0056V34.6442H12.342V34.3672H12.6756Z" fill="#383739"/>
<path d="M13.869 33.0745V32.2903H13.5353V32.5673H13.1989V32.2903H12.8652V33.0745H13.1989V32.7976H13.5353V33.0745H13.869Z" fill="#383739"/>
<path d="M7.33008 33.3262V34.1103H7.66376V33.8333H8.00012V34.1103H8.33384V33.3262H8.00012V33.6031H7.66376V33.3262H7.33008Z" fill="#383739"/>
<path d="M7.33008 33.0745V32.2903H7.66376V32.5673H8.00012V32.2903H8.33384V33.0745H8.00012V32.7976H7.66376V33.0745H7.33008Z" fill="#383739"/>
<path d="M12.6756 32.0334V31.2493H12.342V31.5262H12.0056V31.2493H11.6719V32.0334H12.0056V31.7566H12.342V32.0334H12.6756Z" fill="#383739"/>
<path d="M8.52344 34.3672V35.1513H8.8571V34.8744H9.19352V35.1513H9.52719V34.3672H9.19352V34.6442H8.8571V34.3672H8.52344Z" fill="#383739"/>
<path d="M8.52344 32.0336V31.2493H8.8571V31.5263H9.19352V31.2493H9.52719V32.0336H9.19352V31.7566H8.8571V32.0336H8.52344Z" fill="#383739"/>
<path d="M12.8749 31.4844V32.0799H13.9814L12.8749 31.4844Z" fill="#383739"/>
<path d="M8.32523 34.9165V34.321H7.21875L8.32523 34.9165Z" fill="#383739"/>
<path d="M8.32523 31.4844V32.0799H7.21875L8.32523 31.4844Z" fill="#383739"/>
<path d="M12.8749 34.9165V34.321H13.9814L12.8749 34.9165Z" fill="#383739"/>
<path d="M13.5647 33.8042V34.0811H13.8412V33.3542H13.5647V33.6311H13.171V33.3542H12.8945V34.0811H13.171V33.8042H13.5647Z" fill="#D22630"/>
<path d="M12.3713 34.8452V35.1221H12.6478V34.3951H12.3713V34.6721H11.9778V34.3951H11.7012V35.1221H11.9778V34.8452H12.3713Z" fill="#D22630"/>
<path d="M13.5647 32.5953V32.3184H13.8412V33.0454H13.5647V32.7684H13.171V33.0454H12.8945V32.3184H13.171V32.5953H13.5647Z" fill="#D22630"/>
<path d="M7.63588 33.8042V34.0811H7.35938V33.3542H7.63588V33.6311H8.02941V33.3542H8.30592V34.0811H8.02941V33.8042H7.63588Z" fill="#D22630"/>
<path d="M7.63588 32.5953V32.3184H7.35938V33.0454H7.63588V32.7684H8.02941V33.0454H8.30592V32.3184H8.02941V32.5953H7.63588Z" fill="#D22630"/>
<path d="M12.3713 31.5543V31.2773H12.6478V32.0043H12.3713V31.7274H11.9778V32.0043H11.7012V31.2773H11.9778V31.5543H12.3713Z" fill="#D22630"/>
<path d="M8.82923 34.8447V35.1215H8.55273V34.3945H8.82923V34.6714H9.22273V34.3945H9.49932V35.1215H9.22273V34.8447H8.82923Z" fill="#D22630"/>
<path d="M8.82923 31.5543V31.2773H8.55273V32.0043H8.82923V31.7274H9.22273V32.0043H9.49932V31.2773H9.22273V31.5543H8.82923Z" fill="#D22630"/>
<path d="M12.9041 31.5326V32.0517H13.8682L12.9041 31.5326ZM7.33203 34.3504L8.29601 34.8696V34.3504H7.33203Z" fill="#FFC72C"/>
<path d="M8.29601 31.5326L7.33203 32.0517H8.29601V31.5326ZM12.904 34.3504V34.8696L13.8681 34.3504H12.904Z" fill="white"/>
<path d="M15.1256 35.3889C15.0723 35.6161 14.8917 35.7876 14.8487 36.0232C14.7625 35.7774 14.6831 35.5716 14.7424 35.3028C14.7848 35.1107 14.9465 34.9736 14.9652 34.776C15.1415 34.9346 15.1795 35.1593 15.1256 35.3889ZM15.1703 36.3407C15.0207 36.5457 14.8129 36.7029 14.5834 36.8077C14.6286 36.6282 14.5438 36.4931 14.4497 36.3504C14.3363 36.1788 14.281 36.0103 14.3734 35.8127C14.4165 35.9154 14.4744 36.0008 14.5423 36.0885C14.6427 36.2257 14.7088 36.3474 14.7243 36.5232C14.8404 36.4372 14.8915 36.3086 14.9536 36.1842C15.0483 36.0059 15.2011 35.8571 15.3766 35.7597C15.3299 35.9594 15.294 36.1708 15.1703 36.3407ZM14.3317 36.9517C14.3637 37.0656 14.3912 37.1784 14.3851 37.2974C14.4839 37.1909 14.6151 37.1108 14.7321 37.0252C14.8915 36.8963 15.0773 36.8053 15.2076 36.6412C15.1882 36.8828 15.0848 37.0797 14.8885 37.2267C14.6809 37.3819 14.4307 37.4656 14.2263 37.6286C14.2569 37.4088 14.1761 37.2328 14.1073 37.0308C14.0499 36.8378 14.1055 36.6419 14.2363 36.4948C14.2344 36.6578 14.2858 36.7978 14.3317 36.9517ZM13.866 37.6939C13.823 37.8606 13.7035 37.9962 13.622 38.1448C13.8419 38.0767 14.0359 37.9574 14.2347 37.8452C14.4715 37.7162 14.7287 37.6342 14.943 37.4639C14.8363 37.8588 14.5719 38.0878 14.1851 38.2047C13.9207 38.2844 13.6978 38.2447 13.3769 38.3743C13.4137 38.1571 13.4785 37.9226 13.5812 37.7268C13.6609 37.5851 13.7493 37.4453 13.7986 37.2893C13.8699 37.4174 13.9037 37.5478 13.866 37.6939ZM13.0567 38.2983C12.981 38.4279 12.8811 38.5372 12.7571 38.6233C13.0693 38.6432 13.3205 38.4453 13.6249 38.4367C13.8129 38.4314 13.9914 38.4897 14.1831 38.4722C13.9556 38.6257 13.7174 38.7598 13.4404 38.7957C13.0803 38.8423 12.7482 38.7517 12.351 38.7871C12.5366 38.6561 12.6295 38.4808 12.7452 38.2922C12.8959 38.0567 13.0381 37.8888 13.3312 37.8509C13.2135 37.9832 13.1451 38.1469 13.0567 38.2983ZM11.948 38.8164C12.498 38.9099 13.025 39.0309 13.5867 39.0366C12.958 39.2557 12.3655 39.2953 11.7419 39.0691C11.4049 38.9468 11.1465 38.8813 10.892 38.8994C10.5201 38.9262 10.068 39.0729 9.56776 39.6006L9.37109 39.4433C10.0881 38.8043 11.0264 38.6597 11.948 38.8164Z" fill="#FFC72C"/>
</g>
</g>
</g>
<defs>
<clipPath id="clip0_16699_277966">
<rect width="40" height="40" fill="white"/>
</clipPath>
</defs>
</svg>
