<svg width="40" height="40" viewBox="0 0 40 40" fill="none" xmlns="http://www.w3.org/2000/svg">
<g clip-path="url(#clip0_16699_278341)">
<mask id="mask0_16699_278341" style="mask-type:luminance" maskUnits="userSpaceOnUse" x="0" y="0" width="40" height="40">
<path d="M40 0H0V40H40V0Z" fill="white"/>
</mask>
<g mask="url(#mask0_16699_278341)">
<mask id="mask1_16699_278341" style="mask-type:luminance" maskUnits="userSpaceOnUse" x="0" y="0" width="40" height="40">
<path d="M40 20C40 8.95433 31.0457 0 20 0C8.95433 0 0 8.95433 0 20C0 31.0457 8.95433 40 20 40C31.0457 40 40 31.0457 40 20Z" fill="white"/>
</mask>
<g mask="url(#mask1_16699_278341)">
<path d="M-10 0H50V40H-10V0Z" fill="#E70013"/>
<path d="M20 30C25.5228 30 30 25.5228 30 20C30 14.4772 25.5228 10 20 10C14.4772 10 10 14.4772 10 20C10 25.5228 14.4772 30 20 30Z" fill="white"/>
<path d="M20 27.5C24.1421 27.5 27.5 24.1421 27.5 20C27.5 15.8579 24.1421 12.5 20 12.5C15.8579 12.5 12.5 15.8579 12.5 20C12.5 24.1421 15.8579 27.5 20 27.5Z" fill="#E70013"/>
<path d="M22.0002 26C25.3139 26 28.0002 23.3137 28.0002 20C28.0002 16.6863 25.3139 14 22.0002 14C18.6865 14 16.0002 16.6863 16.0002 20C16.0002 23.3137 18.6865 26 22.0002 26Z" fill="white"/>
<path d="M17.5 20.0001L25.6405 17.3551L20.61 24.2801V15.7201L25.64 22.6451L17.5 20.0001Z" fill="#E70013"/>
</g>
</g>
</g>
<defs>
<clipPath id="clip0_16699_278341">
<rect width="40" height="40" fill="white"/>
</clipPath>
</defs>
</svg>
