<svg width="40" height="40" viewBox="0 0 40 40" fill="none" xmlns="http://www.w3.org/2000/svg">
<g clip-path="url(#clip0_16699_278368)">
<mask id="mask0_16699_278368" style="mask-type:luminance" maskUnits="userSpaceOnUse" x="0" y="0" width="40" height="40">
<path d="M40 0H0V40H40V0Z" fill="white"/>
</mask>
<g mask="url(#mask0_16699_278368)">
<mask id="mask1_16699_278368" style="mask-type:luminance" maskUnits="userSpaceOnUse" x="0" y="0" width="40" height="40">
<path d="M40 20C40 8.95433 31.0457 0 20 0C8.95433 0 0 8.95433 0 20C0 31.0457 8.95433 40 20 40C31.0457 40 40 31.0457 40 20Z" fill="white"/>
</mask>
<g mask="url(#mask1_16699_278368)">
<path d="M-10 0H50V40H-10V0Z" fill="#E30A17"/>
<path d="M24.8335 20L33.8789 17.0613L28.2882 24.7553V15.2447L33.8789 22.9387L24.8335 20ZM25.4502 25.3473C24.2917 27.1782 22.5698 28.5832 20.5438 29.351C18.5178 30.1188 16.2973 30.2079 14.2163 29.6047C12.1353 29.0016 10.3065 27.739 9.00508 26.0068C7.70366 24.2746 7 22.1666 7 20C7 17.8334 7.70366 15.7254 9.00508 13.9932C10.3065 12.261 12.1353 10.9984 14.2163 10.3953C16.2973 9.79215 18.5178 9.88115 20.5438 10.649C22.5698 11.4168 24.2917 12.8218 25.4502 14.6527C24.3683 13.4488 22.9467 12.6014 21.3731 12.2224C19.7995 11.8434 18.1479 11.9507 16.6366 12.53C15.1252 13.1093 13.8251 14.1335 12.908 15.4672C11.9909 16.8009 11.4999 18.3814 11.4999 20C11.4999 21.6186 11.9909 23.1991 12.908 24.5328C13.8251 25.8665 15.1252 26.8907 16.6366 27.47C18.1479 28.0494 19.7995 28.1566 21.3731 27.7776C22.9467 27.3986 24.3683 26.5512 25.4502 25.3473Z" fill="white"/>
</g>
</g>
</g>
<defs>
<clipPath id="clip0_16699_278368">
<rect width="40" height="40" fill="white"/>
</clipPath>
</defs>
</svg>
