<svg width="40" height="40" viewBox="0 0 40 40" fill="none" xmlns="http://www.w3.org/2000/svg">
<g clip-path="url(#clip0_16699_278461)">
<mask id="mask0_16699_278461" style="mask-type:luminance" maskUnits="userSpaceOnUse" x="0" y="0" width="40" height="40">
<path d="M40 0H0V40H40V0Z" fill="white"/>
</mask>
<g mask="url(#mask0_16699_278461)">
<mask id="mask1_16699_278461" style="mask-type:luminance" maskUnits="userSpaceOnUse" x="0" y="0" width="40" height="40">
<path d="M40 20C40 8.95433 31.0457 0 20 0C8.95433 0 0 8.95433 0 20C0 31.0457 8.95433 40 20 40C31.0457 40 40 31.0457 40 20Z" fill="white"/>
</mask>
<g mask="url(#mask1_16699_278461)">
<path d="M-10 0H50V40H-10V0Z" fill="black"/>
<path d="M-10 6.66699H50V16.667H-10V6.66699ZM-10 26.667H50V40.0003H-10V26.667Z" fill="#FCDC04"/>
<path d="M-10 13.3334H50V20H-10V13.3334ZM-10 33.3334H50V40H-10V33.3334Z" fill="#D90000"/>
<path d="M19.999 26.2333C23.4415 26.2333 26.2323 23.4425 26.2323 19.9999C26.2323 16.5574 23.4415 13.7666 19.999 13.7666C16.5564 13.7666 13.7656 16.5574 13.7656 19.9999C13.7656 23.4425 16.5564 26.2333 19.999 26.2333Z" fill="white"/>
<path d="M18.9023 15.226L18.498 14.4813C18.6541 14.3253 18.9165 14.2047 19.335 14.2047C19.335 14.2331 19.2924 15.0203 19.2924 15.0203L18.9023 15.226Z" fill="#D90000" stroke="black" stroke-width="0.0333333"/>
<path d="M19.2908 15.0277L19.3475 14.2049C19.3475 14.2049 20.1844 14.1553 20.6383 14.7013C20.6454 14.6942 20.1915 15.3397 20.1915 15.3397L19.2908 15.0277Z" fill="#FCDC04" stroke="black" stroke-width="0.0333333"/>
<path d="M20.207 15.3327L20.6184 14.6943C20.8949 14.9852 21.0084 15.1908 21.0509 15.5028C21.058 15.5099 20.3984 15.6659 20.3984 15.6589C20.3984 15.6518 20.2142 15.3398 20.207 15.3327Z" fill="#D90000" stroke="black" stroke-width="0.0333333"/>
<path d="M19.1072 25.8715C19.1072 25.8715 19.8803 24.985 21.3838 25.1765C21.1568 24.8077 20.4263 24.8502 20.4263 24.8502C20.4263 24.8502 20.1994 23.1268 20.3767 23.0417C20.5539 22.9566 21.3058 23.0488 21.3058 23.0488C21.405 23.0488 21.5753 22.7793 21.4405 22.6091C21.3058 22.4388 20.9087 21.7864 21.0718 21.6587C21.2348 21.5311 22.1213 21.7296 22.1213 21.7296L19.6178 18.5239C19.6178 18.5239 19.3624 17.3183 19.8732 16.7367C20.4902 16.226 20.4263 15.6728 20.405 15.6799C20.3199 15.1196 19.4689 14.7153 18.8944 15.2331C18.5539 15.6445 18.7809 15.9565 18.7809 15.9565C18.7809 15.9565 17.8873 16.1977 17.8518 16.3537C17.8163 16.5097 18.8589 16.3254 18.8589 16.3254L18.7597 17.0417C18.7597 17.0417 16.7313 18.8856 18.2844 20.4814C18.2987 20.4743 18.3342 20.4105 18.3342 20.4105C18.3342 20.4105 18.8803 21.0843 19.4547 21.2332C19.9937 21.7864 19.944 21.7013 19.944 21.7013C19.944 21.7013 20.0504 22.5736 19.9512 22.7438C19.8163 22.7013 18.4405 22.6517 18.2348 22.7296C18.0504 22.7864 17.3412 22.7509 17.5184 23.907C17.6533 23.5949 17.7738 23.3183 17.7738 23.3183C17.7738 23.3183 17.7525 23.7367 17.9228 23.8857C17.8944 23.4459 18.0858 23.1481 18.0858 23.1481C18.0858 23.1481 18.1213 23.6304 18.2278 23.7013C18.3342 23.7722 18.3342 22.9211 18.9228 22.992C19.5114 23.063 19.9369 23.0417 19.9369 23.0417C19.9369 23.0417 20.1355 24.7084 20.0718 24.8644C19.6462 24.7651 18.6319 24.907 18.5682 25.1623C19.1638 25.1268 19.4405 25.1977 19.4405 25.1977C19.4405 25.1977 18.9583 25.6233 19.1072 25.8715Z" fill="black" stroke="black" stroke-width="0.0333333"/>
<path d="M19.3464 16.7773C19.3464 16.7773 17.8704 18.4042 18.5071 19.6491C18.541 19.4753 18.5263 19.3663 18.5475 19.3734C18.512 19.3522 18.7305 19.5233 18.7139 19.4899C18.7185 19.3999 18.6474 19.2071 18.6474 19.2071C18.7139 19.2237 18.7805 19.2403 18.847 19.2569C18.8083 19.1848 18.7694 19.1128 18.7305 19.0407C18.8249 19.0518 18.9191 19.0628 19.0134 19.0738C19.0134 19.0738 18.9136 18.8077 18.9469 18.8077C18.9801 18.8077 19.1799 18.8243 19.1799 18.8243C18.7601 18.0709 19.1561 17.4454 19.3464 16.7773Z" fill="#9CA69C" stroke="#9CA69C" stroke-width="0.0333333"/>
<path d="M19.8586 15.3818C19.8586 15.3818 19.9366 15.9422 19.6316 16.1053C19.582 16.1408 19.3905 16.2047 19.4189 16.3182C19.4543 16.4742 19.5394 16.4458 19.66 16.4173C19.9791 16.3607 20.3479 15.6798 19.8586 15.3818Z" fill="#9CA69C" stroke="#9CA69C" stroke-width="0.0333333"/>
<path d="M19.2001 15.9868C19.2664 15.9868 19.3201 15.9331 19.3201 15.8668C19.3201 15.8004 19.2664 15.7468 19.2001 15.7468C19.1337 15.7468 19.0801 15.8004 19.0801 15.8668C19.0801 15.9331 19.1337 15.9868 19.2001 15.9868Z" fill="white"/>
<path d="M18.8384 16.3323C18.7604 16.3963 18.3491 16.8218 18.7532 16.9778C19.1717 16.8643 19.0582 16.7863 19.1505 16.6941C19.1529 16.5027 18.9424 16.4529 18.8384 16.3323Z" fill="#D90000" stroke="black" stroke-width="0.0333333"/>
<path d="M19.7317 20.3538C19.7105 20.446 19.6183 20.7864 19.746 21.0488C20.1006 20.8999 20.2637 20.9424 20.3842 21.0204C20.0936 20.7864 19.9801 20.6872 19.7317 20.3538Z" fill="#9CA69C" stroke="#9CA69C" stroke-width="0.0333333"/>
<path d="M20.3418 21.9639L20.363 22.7582C20.363 22.7582 20.6396 22.8079 20.7673 22.7582C20.895 22.7086 20.7601 22.205 20.3418 21.9639Z" fill="white" stroke="white" stroke-width="0.0333333"/>
<path d="M22.3472 22.0628C22.3472 22.0628 21.8366 20.8287 20.5316 20.5166C19.2266 20.2046 19.3967 18.8145 19.5031 18.7294C19.5599 18.6088 19.6026 18.4244 19.9783 18.6018C20.3542 18.779 22.0847 19.6514 22.3331 19.6939C22.5812 19.7365 22.3684 22.0911 22.3472 22.0628Z" fill="#9CA69C" stroke="black" stroke-width="0.0333333"/>
<path d="M21.1074 20.5099C21.0861 20.5242 22.8521 21.5525 22.3202 22.439C22.8238 22.1057 22.6606 21.5242 22.6606 21.5242C22.6606 21.5242 23.0719 22.5952 22.0719 23.1199C22.1783 23.2122 22.2493 23.1908 22.2493 23.1908L22.079 23.361C22.079 23.361 22.001 23.4887 22.6748 23.1624C22.4904 23.3114 22.4762 23.4177 22.4762 23.4177C22.4762 23.4177 22.5258 23.5597 22.9656 23.1767C22.6109 23.5597 22.5329 23.7582 22.5329 23.7512C23.4904 23.666 25.5755 20.5525 21.8734 19.6305C22.072 19.8362 22.0436 19.8078 22.0436 19.8078L21.1074 20.5099Z" fill="#D90000" stroke="black" stroke-width="0.0333333"/>
<path d="M21.1857 20.2048C21.4268 20.3751 21.5119 20.4317 21.5402 20.517C21.3204 20.4673 21.1218 20.4815 21.1218 20.4815C21.1218 20.4815 20.6466 20.0276 20.5615 19.9921C20.4977 19.9921 20.1289 19.7581 20.1289 19.7581C19.9445 19.6658 19.7743 19.0276 20.4552 19.212C21.1572 19.5452 21.2565 19.5736 21.2565 19.5736C21.5355 19.6611 21.8145 19.7486 22.0934 19.8361C22.2542 20.0157 22.4149 20.1955 22.5757 20.3751C22.5757 20.3751 21.7176 19.9496 21.6112 19.9425C21.8452 20.1338 21.98 20.3963 21.98 20.3963C21.7081 20.3182 21.4717 20.2473 21.1857 20.2048Z" fill="white" stroke="black" stroke-width="0.0333333"/>
<path d="M17.8438 16.396C17.8438 16.396 18.6664 16.1973 18.7657 16.2257L17.8438 16.396Z" fill="black"/>
<path d="M17.8438 16.396C17.8438 16.396 18.6664 16.1973 18.7657 16.2257" stroke="white" stroke-width="0.0333333"/>
</g>
</g>
</g>
<defs>
<clipPath id="clip0_16699_278461">
<rect width="40" height="40" fill="white"/>
</clipPath>
</defs>
</svg>
