<svg width="40" height="40" viewBox="0 0 40 40" fill="none" xmlns="http://www.w3.org/2000/svg">
<g clip-path="url(#clip0_16699_278506)">
<mask id="mask0_16699_278506" style="mask-type:luminance" maskUnits="userSpaceOnUse" x="0" y="0" width="40" height="40">
<path d="M40 0H0V40H40V0Z" fill="white"/>
</mask>
<g mask="url(#mask0_16699_278506)">
<mask id="mask1_16699_278506" style="mask-type:luminance" maskUnits="userSpaceOnUse" x="0" y="0" width="40" height="40">
<path d="M40 20C40 8.95433 31.0457 0 20 0C8.95433 0 0 8.95433 0 20C0 31.0457 8.95433 40 20 40C31.0457 40 40 31.0457 40 20Z" fill="white"/>
</mask>
<g mask="url(#mask1_16699_278506)">
<path d="M50 0H-10V40H50V0Z" fill="#B22234"/>
<path d="M-10 4.61523H50.0586M50.0586 10.7691H-10M-10 16.923H50.0586M50.0586 23.0767H-10M-10 29.2306H50.0586M50.0586 35.3845H-10" stroke="white" stroke-width="3"/>
<path d="M20.4 0H-10V21.7093H20.4V0Z" fill="#3C3B6E"/>
<path d="M0.13513 3.07751L0.858558 5.30401L-1.0354 3.92796H1.30566L-0.588299 5.30401L0.13513 3.07751Z" fill="white"/>
<path d="M0.13538 7.38513L0.85881 9.61162L-1.03516 8.23557H1.30592L-0.588047 9.61162L0.13538 7.38513Z" fill="white"/>
<path d="M0.13538 11.6926L0.85881 13.9191L-1.03516 12.543H1.30592L-0.588047 13.9191L0.13538 11.6926Z" fill="white"/>
<path d="M0.13538 16.0004L0.85881 18.2269L-1.03516 16.8509H1.30592L-0.588047 18.2269L0.13538 16.0004Z" fill="white"/>
<path d="M2.66637 0.923828L3.38981 3.15031L1.49585 1.77427H3.83691L1.94295 3.15031L2.66637 0.923828Z" fill="white"/>
<path d="M2.66637 5.23181L3.38981 7.45829L1.49585 6.08225H3.83691L1.94295 7.45829L2.66637 5.23181Z" fill="white"/>
<path d="M2.66637 9.53943L3.38981 11.7658L1.49585 10.3898H3.83691L1.94295 11.7658L2.66637 9.53943Z" fill="white"/>
<path d="M2.66637 13.847L3.38981 16.0735L1.49585 14.6974H3.83691L1.94295 16.0735L2.66637 13.847Z" fill="white"/>
<path d="M2.66637 18.1543L3.38981 20.3808L1.49585 19.0048H3.83691L1.94295 20.3808L2.66637 18.1543Z" fill="white"/>
<path d="M5.19959 3.07715L5.92301 5.30362L4.02905 3.92759H6.37013L4.47616 5.30362L5.19959 3.07715Z" fill="white"/>
<path d="M5.19959 7.38513L5.92301 9.61162L4.02905 8.23557H6.37013L4.47616 9.61162L5.19959 7.38513Z" fill="white"/>
<path d="M5.19959 11.6926L5.92301 13.919L4.02905 12.543H6.37013L4.47616 13.919L5.19959 11.6926Z" fill="white"/>
<path d="M5.19959 16.0004L5.92301 18.2269L4.02905 16.8508H6.37013L4.47616 18.2269L5.19959 16.0004Z" fill="white"/>
<path d="M7.73474 0.923462L8.45817 3.14995L6.56421 1.7739H8.90525L7.01131 3.14995L7.73474 0.923462Z" fill="white"/>
<path d="M7.73451 5.23145L8.45791 7.45793L6.56396 6.08189H8.905L7.01107 7.45793L7.73451 5.23145Z" fill="white"/>
<path d="M7.73451 9.53906L8.45791 11.7656L6.56396 10.3895H8.905L7.01107 11.7656L7.73451 9.53906Z" fill="white"/>
<path d="M7.73451 13.8467L8.45791 16.0732L6.56396 14.6971H8.905L7.01107 16.0732L7.73451 13.8467Z" fill="white"/>
<path d="M7.73474 18.1543L8.45817 20.3808L6.56421 19.0046H8.90525L7.01131 20.3808L7.73474 18.1543Z" fill="white"/>
<path d="M10.266 3.07751L10.9895 5.30399L9.09546 3.92796H11.4365L9.54263 5.30399L10.266 3.07751Z" fill="white"/>
<path d="M10.266 7.38538L10.9895 9.61188L9.09546 8.23583H11.4365L9.54263 9.61188L10.266 7.38538Z" fill="white"/>
<path d="M10.266 11.693L10.9895 13.9194L9.09546 12.5434H11.4365L9.54263 13.9194L10.266 11.693Z" fill="white"/>
<path d="M10.266 16.001L10.9895 18.2274L9.09546 16.8514H11.4365L9.54263 18.2274L10.266 16.001Z" fill="white"/>
<path d="M12.7992 0.923218L13.5227 3.1497L11.6287 1.77366H13.9697L12.0757 3.1497L12.7992 0.923218Z" fill="white"/>
<path d="M12.7994 5.23108L13.5229 7.45757L11.6289 6.08152H13.97L12.076 7.45757L12.7994 5.23108Z" fill="white"/>
<path d="M12.7994 9.53876L13.5229 11.7652L11.6289 10.3892H13.97L12.076 11.7652L12.7994 9.53876Z" fill="white"/>
<path d="M12.7994 13.8467L13.5229 16.0731L11.6289 14.6971H13.97L12.076 16.0731L12.7994 13.8467Z" fill="white"/>
<path d="M12.7994 18.1543L13.5229 20.3808L11.6289 19.0046H13.97L12.076 20.3808L12.7994 18.1543Z" fill="white"/>
<path d="M15.3344 3.07751L16.0579 5.30399L14.1639 3.92796H16.5049L14.611 5.30399L15.3344 3.07751Z" fill="white"/>
<path d="M15.3344 7.38538L16.0579 9.61188L14.1639 8.23583H16.5049L14.611 9.61188L15.3344 7.38538Z" fill="white"/>
<path d="M15.3344 11.693L16.0579 13.9194L14.1639 12.5434H16.5049L14.611 13.9194L15.3344 11.693Z" fill="white"/>
<path d="M15.3344 16.001L16.0579 18.2274L14.1639 16.8514H16.5049L14.611 18.2274L15.3344 16.001Z" fill="white"/>
<path d="M17.8675 0.923218L18.5909 3.1497L16.697 1.77366H19.038L17.1441 3.1497L17.8675 0.923218Z" fill="white"/>
<path d="M17.8675 5.23108L18.5909 7.45756L16.697 6.08152H19.038L17.1441 7.45756L17.8675 5.23108Z" fill="white"/>
<path d="M17.8675 9.53845L18.5909 11.765L16.697 10.3889H19.038L17.1441 11.765L17.8675 9.53845Z" fill="white"/>
<path d="M17.8675 13.8463L18.5909 16.0728L16.697 14.6968H19.038L17.1441 16.0728L17.8675 13.8463Z" fill="white"/>
<path d="M17.8675 18.154L18.5909 20.3803L16.697 19.0043H19.038L17.1441 20.3803L17.8675 18.154Z" fill="white"/>
</g>
</g>
</g>
<defs>
<clipPath id="clip0_16699_278506">
<rect width="40" height="40" fill="white"/>
</clipPath>
</defs>
</svg>
