<svg width="40" height="40" viewBox="0 0 40 40" fill="none" xmlns="http://www.w3.org/2000/svg">
<g clip-path="url(#clip0_16699_278554)">
<mask id="mask0_16699_278554" style="mask-type:luminance" maskUnits="userSpaceOnUse" x="0" y="0" width="40" height="40">
<path d="M40 0H0V40H40V0Z" fill="white"/>
</mask>
<g mask="url(#mask0_16699_278554)">
<mask id="mask1_16699_278554" style="mask-type:luminance" maskUnits="userSpaceOnUse" x="0" y="0" width="40" height="40">
<path d="M40 20C40 8.95433 31.0457 0 20 0C8.95433 0 0 8.95433 0 20C0 31.0457 8.95433 40 20 40C31.0457 40 40 31.0457 40 20Z" fill="white"/>
</mask>
<g mask="url(#mask1_16699_278554)">
<path d="M-1 0H59V40H-1V0Z" fill="white"/>
<path d="M21.2227 4.44434H59.0003V8.88875H21.2227V4.44434Z" fill="#0038A8"/>
<path d="M21.2227 13.3337H59.0003V17.7782H21.2227V13.3337Z" fill="#0038A8"/>
<path d="M-1 22.2223H59V26.6667H-1V22.2223Z" fill="#0038A8"/>
<path d="M-1 31.1113H59V35.5558H-1V31.1113Z" fill="#0038A8"/>
<path d="M11.3088 13.3948L11.8249 14.1656C9.70426 15.7003 10.9989 16.6078 9.49609 17.0989C10.4308 16.1868 9.37259 16.0461 10.1601 14.1448" fill="#FCD116"/>
<path d="M11.3088 13.3948L11.8249 14.1656C9.70426 15.7003 10.9989 16.6078 9.49609 17.0989C10.4308 16.1868 9.37259 16.0461 10.1601 14.1448" stroke="#7B3F00" stroke-width="0.0558135" stroke-miterlimit="20" stroke-linecap="square"/>
<path d="M10.3332 12.6992L10.1532 13.6091C7.5684 13.1947 7.84216 14.7519 6.43213 14.0366C7.7381 14.0525 7.11877 13.1932 9.02009 12.4056" fill="#FCD116"/>
<path d="M10.3332 12.6992L10.1532 13.6091C7.5684 13.1947 7.84216 14.7519 6.43213 14.0366C7.7381 14.0525 7.11877 13.1932 9.02009 12.4056" stroke="#7B3F00" stroke-width="0.0558305" stroke-miterlimit="20" stroke-linecap="square"/>
<path d="M10.333 12.6991L9.92581 12.6257L9.93006 12.6424C8.84356 12.9088 8.25369 13.3592 7.79164 13.7014C7.56051 13.8726 7.3611 14.0181 7.14481 14.0968C7.00159 14.1499 6.84785 14.1684 6.69611 14.1509C7.81765 14.5493 7.74338 13.2228 10.1531 13.6091L10.333 12.6991Z" fill="#7B3F00" stroke="#7B3F00" stroke-width="0.025403" stroke-miterlimit="20" stroke-linecap="square"/>
<path d="M9.91652 12.5928C7.72555 13.129 7.51837 14.4214 6.43085 14.0366" stroke="#7B3F00" stroke-width="0.0558305" stroke-miterlimit="20"/>
<path d="M11.6619 11.8708L10.9343 11.1432L7.66016 15.8725L12.3895 12.5983L11.6619 11.8708Z" fill="#FCD116"/>
<path d="M11.6619 11.8708L10.9343 11.1432L7.66016 15.8725M11.6619 11.8708L12.3895 12.5983L7.66016 15.8725M11.6619 11.8708L7.66016 15.8725" stroke="#7B3F00" stroke-width="0.0558135" stroke-miterlimit="20"/>
<path d="M10.1386 11.5181L9.3679 12.0342C7.83316 9.91361 6.92564 11.2084 6.43439 9.70544C7.34659 10.6401 7.496 9.58361 9.39731 10.3711" fill="#FCD116"/>
<path d="M10.1386 11.5181L9.3679 12.0342C7.83316 9.91361 6.92564 11.2084 6.43439 9.70544C7.34659 10.6401 7.496 9.58361 9.39731 10.3711" stroke="#7B3F00" stroke-width="0.0558305" stroke-miterlimit="20" stroke-linecap="square"/>
<path d="M10.1377 11.5186L9.90152 11.1789L9.8926 11.1936C8.9361 10.6137 8.20051 10.515 7.63175 10.4305C7.34734 10.388 7.10343 10.3499 6.89476 10.2526C6.75595 10.189 6.63414 10.0934 6.53925 9.97363C7.05058 11.0484 7.93605 10.0579 9.36694 12.035L10.1377 11.5186Z" fill="#7B3F00" stroke="#7B3F00" stroke-width="0.025403" stroke-miterlimit="20" stroke-linecap="square"/>
<path d="M9.91943 11.1493C7.99098 9.97919 6.93064 10.7465 6.43378 9.70544" stroke="#7B3F00" stroke-width="0.0558305" stroke-miterlimit="20"/>
<path d="M11.6601 11.8714V10.8424L6.00079 11.8714L11.6601 12.9004V11.8714Z" fill="#FCD116"/>
<path d="M11.6601 11.8714V10.8424L6.00079 11.8714M11.6601 11.8714V12.9004L6.00079 11.8714M11.6601 11.8714H6.00079" stroke="#7B3F00" stroke-width="0.0558305" stroke-miterlimit="20"/>
<path d="M11.6601 11.8715H6.00079L11.6601 12.9005" fill="#7B3F00"/>
<path d="M10.8333 10.544L9.9235 10.364C10.3378 7.77921 8.78059 8.05298 9.49592 6.64294C9.48 7.94891 10.3834 7.43402 11.171 9.33529" fill="#FCD116"/>
<path d="M10.8333 10.544L9.9235 10.364C10.3378 7.77921 8.78059 8.05298 9.49592 6.64294C9.48 7.94891 10.3834 7.43402 11.171 9.33529" stroke="#7B3F00" stroke-width="0.0558305" stroke-miterlimit="20" stroke-linecap="square"/>
<path d="M10.8333 10.5435L10.9067 10.1364L10.89 10.1405C10.6237 9.05412 10.1733 8.46421 9.83099 8.00216C9.65991 7.77102 9.51441 7.57161 9.43557 7.35533C9.38249 7.21211 9.36391 7.05837 9.38149 6.90662C8.98307 8.02817 10.3096 7.9539 9.92341 10.3637L10.8333 10.5435Z" fill="#7B3F00" stroke="#7B3F00" stroke-width="0.025403" stroke-miterlimit="20" stroke-linecap="square"/>
<path d="M10.9415 10.1283C10.4051 7.93728 9.11281 7.73011 9.49764 6.64258" stroke="#7B3F00" stroke-width="0.0558305" stroke-miterlimit="20"/>
<path d="M11.6611 11.8715L12.3887 11.1439L7.65936 7.86975L10.9335 12.599L11.6611 11.8715Z" fill="#FCD116"/>
<path d="M11.6611 11.8715L12.3887 11.1439L7.65936 7.86975M11.6611 11.8715L10.9335 12.599L7.65936 7.86975M11.6611 11.8715L7.65936 7.86975" stroke="#7B3F00" stroke-width="0.0558305" stroke-miterlimit="20"/>
<path d="M11.662 11.8715L7.66034 7.86975L10.9344 12.5991" fill="#7B3F00"/>
<path d="M11.9987 10.3463L11.4826 9.57571C13.6033 8.04099 12.3086 7.13345 13.8114 6.64221C12.8767 7.5544 13.9296 7.70484 13.142 9.60613" fill="#FCD116"/>
<path d="M11.9987 10.3463L11.4826 9.57571C13.6033 8.04099 12.3086 7.13345 13.8114 6.64221C12.8767 7.5544 13.9296 7.70484 13.142 9.60613" stroke="#7B3F00" stroke-width="0.0558305" stroke-miterlimit="20" stroke-linecap="square"/>
<path d="M11.9974 10.3468L12.3372 10.1107L12.3224 10.1018C12.9023 9.14529 13.001 8.4097 13.0857 7.84093C13.1281 7.5565 13.1662 7.3126 13.2634 7.10394C13.3271 6.96511 13.4228 6.8433 13.5425 6.74841C12.4677 7.25975 13.4582 8.14522 11.4811 9.57604L11.9974 10.3468Z" fill="#7B3F00" stroke="#7B3F00" stroke-width="0.025403" stroke-miterlimit="20" stroke-linecap="square"/>
<path d="M12.3693 10.1279C13.5393 8.19943 12.772 7.13909 13.8131 6.64221" stroke="#7B3F00" stroke-width="0.0558305" stroke-miterlimit="20"/>
<path d="M11.6605 11.8712H12.6895L11.6605 6.21191L10.6315 11.8712H11.6605Z" fill="#FCD116"/>
<path d="M11.6605 11.8712H12.6895L11.6605 6.21191M11.6605 11.8712H10.6315L11.6605 6.21191M11.6605 11.8712V6.21191" stroke="#7B3F00" stroke-width="0.0558305" stroke-miterlimit="20"/>
<path d="M11.6583 11.8712V6.21191L10.6293 11.8712" fill="#7B3F00"/>
<path d="M12.9696 11.0427L13.1496 10.133C15.7343 10.5472 15.4606 8.99007 16.8706 9.7054C15.5646 9.68948 16.1465 10.5531 14.2452 11.3406" fill="#FCD116"/>
<path d="M12.9696 11.0427L13.1496 10.133C15.7343 10.5472 15.4606 8.99007 16.8706 9.7054C15.5646 9.68948 16.1465 10.5531 14.2452 11.3406" stroke="#7B3F00" stroke-width="0.0558305" stroke-miterlimit="20" stroke-linecap="square"/>
<path d="M12.9696 11.0424L13.3768 11.1158L13.3726 11.099C14.459 10.8327 15.049 10.3823 15.511 10.04C15.7421 9.86895 15.9415 9.72345 16.1578 9.64462C16.3011 9.59153 16.4548 9.57295 16.6065 9.59053C15.485 9.19212 15.5593 10.5186 13.1495 10.1324L12.9696 11.0424Z" fill="#7B3F00" stroke="#7B3F00" stroke-width="0.025403" stroke-miterlimit="20" stroke-linecap="square"/>
<path d="M13.3843 11.149C15.5753 10.6127 15.7825 9.32039 16.87 9.70522" stroke="#7B3F00" stroke-width="0.0558305" stroke-miterlimit="20"/>
<path d="M11.6434 11.8712L12.3711 12.5988L15.6452 7.86951L10.9158 11.1437L11.6434 11.8712Z" fill="#FCD116"/>
<path d="M11.6434 11.8712L12.3711 12.5988L15.6452 7.86951M11.6434 11.8712L10.9158 11.1437L15.6452 7.86951M11.6434 11.8712L15.6452 7.86951" stroke="#7B3F00" stroke-width="0.0558305" stroke-miterlimit="20"/>
<path d="M11.6405 11.8705L15.6423 7.86877L10.9129 11.1429" fill="#7B3F00"/>
<path d="M13.1851 12.2245L13.9556 11.7084C15.4903 13.829 16.398 12.5343 16.8891 14.0372C15.977 13.1025 15.8057 14.1484 13.9045 13.3609" fill="#FCD116"/>
<path d="M13.1851 12.2245L13.9556 11.7084C15.4903 13.829 16.398 12.5343 16.8891 14.0372C15.977 13.1025 15.8057 14.1484 13.9045 13.3609" stroke="#7B3F00" stroke-width="0.0558305" stroke-miterlimit="20" stroke-linecap="square"/>
<path d="M13.1866 12.2245L13.4226 12.5644L13.4316 12.5495C14.3881 13.1295 15.1236 13.2282 15.6925 13.3129C15.9769 13.3553 16.2207 13.3934 16.4295 13.4905C16.5682 13.5544 16.6901 13.65 16.785 13.7697C16.2736 12.6949 15.3881 13.6854 13.9574 11.7084L13.1866 12.2245Z" fill="#7B3F00" stroke="#7B3F00" stroke-width="0.025403" stroke-miterlimit="20" stroke-linecap="square"/>
<path d="M13.4046 12.5938C15.3331 13.7638 16.3934 12.9964 16.8904 14.0376" stroke="#7B3F00" stroke-width="0.0558305" stroke-miterlimit="20"/>
<path d="M11.6602 11.871V12.9L17.3194 11.871L11.6602 10.842V11.871Z" fill="#FCD116"/>
<path d="M11.6602 11.871V12.9L17.3194 11.871M11.6602 11.871V10.842L17.3194 11.871M11.6602 11.871H17.3194" stroke="#7B3F00" stroke-width="0.0558305" stroke-miterlimit="20"/>
<path d="M11.6602 11.871H17.3194L11.6602 10.842" fill="#7B3F00"/>
<path d="M12.4717 13.1953L13.3817 13.3753C12.9672 15.96 14.5245 15.6862 13.8092 17.0963C13.8252 15.7903 12.9652 16.3952 12.1777 14.4939" fill="#FCD116"/>
<path d="M12.4717 13.1953L13.3817 13.3753C12.9672 15.96 14.5245 15.6862 13.8092 17.0963C13.8252 15.7903 12.9652 16.3952 12.1777 14.4939" stroke="#7B3F00" stroke-width="0.0558305" stroke-miterlimit="20" stroke-linecap="square"/>
<path d="M12.4715 13.1953L12.3981 13.6025L12.4149 13.5984C12.6812 14.6848 13.1316 15.2747 13.4739 15.7367C13.645 15.9679 13.7905 16.1673 13.8693 16.3836C13.9224 16.5268 13.9409 16.6805 13.9234 16.8323C14.3218 15.7107 12.9953 15.785 13.3815 13.3753L12.4715 13.1953Z" fill="#7B3F00" stroke="#7B3F00" stroke-width="0.025403" stroke-miterlimit="20" stroke-linecap="square"/>
<path d="M12.3651 13.6104C12.9014 15.8014 14.1938 16.0084 13.8089 17.0961" stroke="#7B3F00" stroke-width="0.0558305" stroke-miterlimit="20"/>
<path d="M11.6475 11.8682L10.9199 12.5958L15.6493 15.8699L12.3751 11.1406L11.6475 11.8682Z" fill="#FCD116"/>
<path d="M11.6475 11.8682L10.9199 12.5958L15.6493 15.8699M11.6475 11.8682L12.3751 11.1406L15.6493 15.8699M11.6475 11.8682L15.6493 15.8699" stroke="#7B3F00" stroke-width="0.0558305" stroke-miterlimit="20"/>
<path d="M11.6445 11.8682L15.6463 15.8699L12.3721 11.1406" fill="#7B3F00"/>
<path d="M11.3107 13.3948L10.9709 13.6309L10.9857 13.6398C10.4059 14.5963 10.3071 15.3319 10.2224 15.9008C10.18 16.1852 10.1419 16.4291 10.0447 16.6378C9.98094 16.7766 9.88535 16.8983 9.76569 16.9933C10.8404 16.4818 9.84994 15.5964 11.8269 14.1656L11.3107 13.3948Z" fill="#7B3F00" stroke="#7B3F00" stroke-width="0.0253948" stroke-miterlimit="20" stroke-linecap="square"/>
<path d="M10.942 13.6136C9.77198 15.542 10.5392 16.6024 9.49823 17.0993" stroke="#7B3F00" stroke-width="0.0558135" stroke-miterlimit="20"/>
<path d="M11.6637 11.8704H10.6348L11.6637 17.5298L12.6927 11.8704H11.6637Z" fill="#FCD116"/>
<path d="M11.6637 11.8704H10.6348L11.6637 17.5298M11.6637 11.8704H12.6927L11.6637 17.5298M11.6637 11.8704V17.5298" stroke="#7B3F00" stroke-width="0.0558135" stroke-miterlimit="20"/>
<path d="M11.6621 11.8711V17.5304L12.6911 11.8711" fill="#7B3F00"/>
<path d="M11.6619 11.8711L7.66016 15.8728L12.3895 12.5987" fill="#7B3F00"/>
<path d="M11.6618 13.7572C12.7036 13.7572 13.5481 12.9126 13.5481 11.8709C13.5481 10.829 12.7036 9.98438 11.6618 9.98438C10.62 9.98438 9.77539 10.829 9.77539 11.8709C9.77539 12.9126 10.62 13.7572 11.6618 13.7572Z" fill="#FCD116" stroke="#7B3F00" stroke-width="0.0558135" stroke-miterlimit="20"/>
<path d="M13.0538 11.1124C12.9338 11.2497 12.8651 11.0095 12.4365 11.0095C12.0076 11.0095 11.9391 11.2668 11.8705 11.2153C11.8019 11.1639 12.2306 10.8552 12.3679 10.838C12.5051 10.8209 12.8995 10.9582 13.0538 11.1124ZM12.5565 11.2668C12.6766 11.3697 12.5736 11.5927 12.4536 11.5927C12.3336 11.5927 12.1106 11.3868 12.2135 11.2497" fill="#7B3F00"/>
<path d="M11.9882 11.4214C12.0054 11.2156 12.1769 11.1813 12.4512 11.1813C12.7256 11.1813 12.8456 11.3871 12.9486 11.4385C12.8286 11.4385 12.7256 11.267 12.4512 11.267C12.1769 11.267 12.1769 11.267 11.9882 11.4385M12.0396 11.4728C12.1082 11.3699 12.1941 11.5758 12.3826 11.5758C12.5712 11.5758 12.6741 11.5243 12.7942 11.4385C12.9142 11.3528 12.6227 11.6443 12.4341 11.6443C12.2455 11.6443 11.9882 11.5414 12.0396 11.4728Z" fill="#7B3F00"/>
<path d="M10.7048 11.2496C10.6191 11.284 10.4818 11.4553 10.7048 11.5755C10.5333 11.4553 10.6706 11.284 10.7048 11.2496Z" fill="#7B3F00"/>
<path d="M12.6248 11.2496C12.6592 11.284 12.7963 11.4553 12.6248 11.5755C12.8477 11.4553 12.7105 11.284 12.6248 11.2496Z" fill="#7B3F00"/>
<path d="M11.3901 11.9879C11.2357 12.0222 11.2872 12.2452 11.15 12.2623C11.0128 12.2796 10.9442 12.4338 10.9614 12.4167C11.0471 12.3482 11.2358 12.2967 11.3729 12.2967C11.5101 12.2967 11.5444 12.3824 11.6645 12.3824C11.7845 12.3824 11.8188 12.2967 11.956 12.2967C12.0932 12.2967 12.2819 12.3482 12.3676 12.4167C12.3848 12.4338 12.3162 12.2796 12.179 12.2623C12.0418 12.2452 12.0932 12.0222 11.9389 11.9879C11.9389 12.0566 11.9903 12.0394 12.0074 12.1423C12.0074 12.2281 11.8531 12.2281 11.8188 12.1423C11.8531 12.2796 11.7502 12.2796 11.6645 12.2796C11.5787 12.2796 11.4758 12.2796 11.5101 12.1423C11.4758 12.2281 11.3215 12.2281 11.3215 12.1423C11.3387 12.0394 11.3901 12.0566 11.3901 11.9879Z" fill="#7B3F00"/>
<path d="M10.8583 12.5707C10.7212 12.6735 10.6868 12.7249 10.6697 12.845C10.7108 12.773 10.7311 12.7434 10.7623 12.7012C10.7541 12.6975 10.747 12.6943 10.7383 12.6907C10.7483 12.6918 10.7573 12.6934 10.767 12.6948C10.7877 12.6668 10.8061 12.6424 10.8583 12.5707Z" fill="#7B3F00"/>
<path d="M10.7657 12.6947L10.7635 12.6976C10.785 12.7026 10.8077 12.7049 10.8316 12.705C10.8106 12.7013 10.7886 12.6979 10.7657 12.6947Z" fill="#7B3F00"/>
<path d="M10.8318 12.7052C10.9388 12.7239 11.0228 12.7485 11.0998 12.7734C11.1958 12.7663 11.3282 12.742 11.6635 12.742C11.9988 12.742 12.1313 12.7663 12.2273 12.7734C12.3043 12.7485 12.3882 12.7239 12.4952 12.7052C12.3062 12.7058 12.0543 12.5707 11.9378 12.5707C11.8007 12.5707 11.7663 12.6048 11.6635 12.6048C11.5606 12.6048 11.5263 12.5707 11.3891 12.5707C11.2728 12.5707 11.0208 12.7058 10.8318 12.7052Z" fill="#7B3F00"/>
<path d="M12.4959 12.705C12.5197 12.7049 12.5425 12.7026 12.5639 12.6976L12.5617 12.6947C12.5388 12.6979 12.5168 12.7013 12.4959 12.705Z" fill="#7B3F00"/>
<path d="M12.5601 12.6948C12.5696 12.6934 12.5786 12.6919 12.5886 12.6907C12.58 12.6943 12.5729 12.6975 12.5647 12.7012C12.5959 12.7434 12.6161 12.773 12.6572 12.845C12.6401 12.7249 12.6057 12.6735 12.4686 12.5707C12.5209 12.6424 12.5392 12.6668 12.5601 12.6948Z" fill="#7B3F00"/>
<path d="M12.5658 12.7007L12.5648 12.6996C12.3859 12.7684 12.3228 12.7802 12.2274 12.7732C12.0648 12.8258 11.9308 12.8789 11.6637 12.8789C11.3966 12.8789 11.2624 12.8258 11.0998 12.7732C11.0044 12.7802 10.9414 12.7684 10.7624 12.6996L10.7616 12.7007C11.3003 12.9326 11.2413 13.0161 11.6637 13.0161C12.0859 13.0161 12.0271 12.9326 12.5658 12.7007Z" fill="#7B3F00"/>
<path d="M10.7631 12.6993L10.7646 12.6971C10.7556 12.6951 10.7466 12.6931 10.7382 12.6901C10.748 12.6939 10.7539 12.6958 10.7631 12.6993Z" fill="#7B3F00"/>
<path d="M12.5659 12.6993C12.575 12.6958 12.5809 12.6939 12.5907 12.6901C12.5823 12.6931 12.5733 12.6951 12.5643 12.6971L12.5659 12.6993Z" fill="#7B3F00"/>
<path d="M10.276 11.1124C10.396 11.2497 10.4647 11.0095 10.8934 11.0095C11.3222 11.0095 11.3908 11.2668 11.4593 11.2153C11.5279 11.1639 11.0993 10.8552 10.962 10.838C10.8248 10.8209 10.4303 10.9582 10.276 11.1124ZM10.7733 11.2668C10.6533 11.3697 10.7563 11.5927 10.8763 11.5927C10.9963 11.5927 11.2193 11.3868 11.1163 11.2497" fill="#7B3F00"/>
<path d="M11.3396 11.4214C11.3226 11.2156 11.1511 11.1813 10.8766 11.1813C10.6023 11.1813 10.4823 11.3871 10.3794 11.4385C10.4994 11.4385 10.6023 11.267 10.8766 11.267C11.1511 11.267 11.1511 11.267 11.3396 11.4385M11.2883 11.4728C11.2196 11.3699 11.1339 11.5758 10.9453 11.5758C10.7566 11.5758 10.6536 11.5243 10.5336 11.4385C10.4136 11.3528 10.7051 11.6443 10.8938 11.6443C11.0825 11.6443 11.3396 11.5414 11.2883 11.4728Z" fill="#7B3F00"/>
<path d="M11.6639 13.1706C11.5782 13.1706 11.3553 13.222 11.6639 13.222C11.9727 13.222 11.7497 13.1706 11.6639 13.1706Z" fill="#7B3F00"/>
</g>
</g>
</g>
<defs>
<clipPath id="clip0_16699_278554">
<rect width="40" height="40" fill="white"/>
</clipPath>
</defs>
</svg>
