<svg width="40" height="40" viewBox="0 0 40 40" fill="none" xmlns="http://www.w3.org/2000/svg">
<g clip-path="url(#clip0_16699_278641)">
<mask id="mask0_16699_278641" style="mask-type:luminance" maskUnits="userSpaceOnUse" x="0" y="0" width="40" height="40">
<path d="M40 0H0V40H40V0Z" fill="white"/>
</mask>
<g mask="url(#mask0_16699_278641)">
<mask id="mask1_16699_278641" style="mask-type:luminance" maskUnits="userSpaceOnUse" x="0" y="0" width="40" height="40">
<path d="M40 20C40 8.95433 31.0457 0 20 0C8.95433 0 0 8.95433 0 20C0 31.0457 8.95433 40 20 40C31.0457 40 40 31.0457 40 20Z" fill="white"/>
</mask>
<g mask="url(#mask1_16699_278641)">
<path d="M-10 0H50.0457V40H-10V0Z" fill="#1EB53A"/>
<path d="M-10 0H50.0457V20H-10V0Z" fill="#0099B5"/>
<path d="M-10 12.8002H50.0721V27.2002H-10V12.8002Z" fill="#CE1126"/>
<path d="M-10 13.6002H50.0854V26.4002H-10V13.6002Z" fill="white"/>
<path d="M14.5858 10.1723C16.5662 10.1723 18.1717 8.56688 18.1717 6.58644C18.1717 4.60604 16.5662 3.00061 14.5858 3.00061C12.6054 3.00061 11 4.60604 11 6.58644C11 8.56688 12.6054 10.1723 14.5858 10.1723Z" fill="white"/>
<path d="M15.7811 10.1723C17.7615 10.1723 19.367 8.56688 19.367 6.58644C19.367 4.60604 17.7615 3.00061 15.7811 3.00061C13.8007 3.00061 12.1953 4.60604 12.1953 6.58644C12.1953 8.56688 13.8007 10.1723 15.7811 10.1723Z" fill="#0099B5"/>
<path d="M22.4749 8.73767L22.2532 9.41967L22.5943 9.5305" fill="white"/>
<path d="M22.475 8.73767L22.6966 9.41967L22.3555 9.5305" fill="white"/>
<path d="M23.1524 9.23376H22.4352V9.59235" fill="white"/>
<path d="M23.1525 9.23376L22.5723 9.65526L22.3615 9.36518" fill="white"/>
<path d="M21.7872 9.23242L22.3675 9.65401L22.5781 9.36384" fill="white"/>
<path d="M21.7872 9.23242H22.5043V9.59101" fill="white"/>
<path d="M22.8928 10.0349L22.6713 9.35284L22.3303 9.46368" fill="white"/>
<path d="M22.8928 10.0345L22.3127 9.61296L22.5235 9.32288" fill="white"/>
<path d="M22.0531 10.0294L22.6333 9.60779L22.4225 9.31763" fill="white"/>
<path d="M22.0531 10.0291L22.2747 9.34698L22.6157 9.45782" fill="white"/>
<path d="M22.4749 5.86975L22.2532 6.55181L22.5943 6.66262" fill="white"/>
<path d="M22.475 5.86975L22.6966 6.55181L22.3555 6.66262" fill="white"/>
<path d="M23.1524 6.36523H22.4352V6.72382" fill="white"/>
<path d="M23.1525 6.36523L22.5723 6.78678L22.3615 6.49668" fill="white"/>
<path d="M21.7872 6.36462L22.3675 6.78617L22.5781 6.49607" fill="white"/>
<path d="M21.7872 6.36462H22.5043V6.72322" fill="white"/>
<path d="M22.8928 7.16643L22.6713 6.48438L22.3303 6.59517" fill="white"/>
<path d="M22.8928 7.16672L22.3127 6.74518L22.5235 6.45508" fill="white"/>
<path d="M22.0531 7.16086L22.6333 6.73932L22.4225 6.44922" fill="white"/>
<path d="M22.0531 7.16118L22.2747 6.47913L22.6157 6.58993" fill="white"/>
<path d="M22.4749 3L22.2532 3.68207L22.5943 3.79287" fill="white"/>
<path d="M22.475 3L22.6966 3.68207L22.3555 3.79287" fill="white"/>
<path d="M23.1524 3.49609H22.4352V3.85468" fill="white"/>
<path d="M23.1525 3.49609L22.5723 3.91764L22.3615 3.62754" fill="white"/>
<path d="M21.7872 3.49548L22.3675 3.91702L22.5781 3.62692" fill="white"/>
<path d="M21.7872 3.49548H22.5043V3.85408" fill="white"/>
<path d="M22.8928 4.29865L22.6713 3.61658L22.3303 3.72739" fill="white"/>
<path d="M22.8928 4.29818L22.3127 3.87665L22.5235 3.58655" fill="white"/>
<path d="M22.0531 4.29232L22.6333 3.87078L22.4225 3.58069" fill="white"/>
<path d="M22.0531 4.29279L22.2747 3.61072L22.6157 3.72153" fill="white"/>
<path d="M25.3437 8.73767L25.1221 9.41967L25.4631 9.5305" fill="white"/>
<path d="M25.3437 8.73767L25.5652 9.41967L25.2242 9.5305" fill="white"/>
<path d="M26.0233 9.23309H25.3062V9.59168" fill="white"/>
<path d="M26.0232 9.23309L25.4431 9.65459L25.2322 9.36451" fill="white"/>
<path d="M24.66 9.23309L25.2402 9.65459L25.451 9.36451" fill="white"/>
<path d="M24.66 9.23309H25.3772V9.59168" fill="white"/>
<path d="M25.7636 10.0361L25.542 9.35413L25.201 9.46496" fill="white"/>
<path d="M25.7637 10.0358L25.1834 9.6143L25.3942 9.32422" fill="white"/>
<path d="M24.9199 10.0313L25.5001 9.60979L25.2893 9.3197" fill="white"/>
<path d="M24.9199 10.031L25.1415 9.349L25.4825 9.45975" fill="white"/>
<path d="M25.3438 5.86914L25.1223 6.5512L25.4633 6.66201" fill="white"/>
<path d="M25.3438 5.86914L25.5654 6.5512L25.2244 6.66201" fill="white"/>
<path d="M26.0235 6.36523H25.3063V6.72383" fill="white"/>
<path d="M26.0234 6.36523L25.4433 6.78678L25.2324 6.49668" fill="white"/>
<path d="M24.6602 6.36462L25.2403 6.78617L25.4512 6.49607" fill="white"/>
<path d="M24.6602 6.36462H25.3773V6.72321" fill="white"/>
<path d="M25.7638 7.16706L25.5422 6.48499L25.2012 6.59579" fill="white"/>
<path d="M25.7638 7.16732L25.1836 6.74579L25.3944 6.45569" fill="white"/>
<path d="M24.92 7.1622L25.5002 6.74066L25.2895 6.45056" fill="white"/>
<path d="M24.92 7.16193L25.1416 6.47986L25.4826 6.59067" fill="white"/>
<path d="M25.3438 3L25.1223 3.68207L25.4633 3.79287" fill="white"/>
<path d="M25.3438 3L25.5654 3.68207L25.2244 3.79287" fill="white"/>
<path d="M26.0235 3.49548H25.3063V3.85407" fill="white"/>
<path d="M26.0234 3.49548L25.4433 3.91702L25.2324 3.62692" fill="white"/>
<path d="M24.6602 3.49548L25.2403 3.91702L25.4512 3.62692" fill="white"/>
<path d="M24.6602 3.49548H25.3773V3.85408" fill="white"/>
<path d="M25.7638 4.29865L25.5422 3.61658L25.2012 3.72739" fill="white"/>
<path d="M25.7638 4.29818L25.1836 3.87665L25.3944 3.58655" fill="white"/>
<path d="M24.92 4.29232L25.5002 3.87078L25.2895 3.58069" fill="white"/>
<path d="M24.92 4.29279L25.1416 3.61072L25.4826 3.72153" fill="white"/>
<path d="M28.2147 8.73767L27.9932 9.41967L28.3342 9.5305" fill="white"/>
<path d="M28.2148 8.73767L28.4365 9.41967L28.0955 9.5305" fill="white"/>
<path d="M28.8966 9.23309H28.1793V9.59168" fill="white"/>
<path d="M28.8965 9.23309L28.3162 9.65459L28.1055 9.36451" fill="white"/>
<path d="M27.5312 9.23309L28.1114 9.65459L28.3222 9.36451" fill="white"/>
<path d="M27.5312 9.23309H28.2483V9.59168" fill="white"/>
<path d="M28.6367 10.0361L28.4151 9.35413L28.0741 9.46496" fill="white"/>
<path d="M28.6367 10.0358L28.0565 9.6143L28.2673 9.32422" fill="white"/>
<path d="M27.7949 10.0313L28.3751 9.60979L28.1644 9.3197" fill="white"/>
<path d="M27.7949 10.031L28.0165 9.349L28.3576 9.45975" fill="white"/>
<path d="M28.2147 5.86914L27.9932 6.55121L28.3342 6.66202" fill="white"/>
<path d="M28.2148 5.86914L28.4365 6.55121L28.0955 6.66202" fill="white"/>
<path d="M28.8966 6.36462H28.1793V6.72321" fill="white"/>
<path d="M28.8965 6.36462L28.3162 6.78617L28.1055 6.49607" fill="white"/>
<path d="M27.5312 6.36462L28.1114 6.78617L28.3222 6.49607" fill="white"/>
<path d="M27.5312 6.36462H28.2483V6.72322" fill="white"/>
<path d="M28.6367 7.16704L28.4151 6.48499L28.0741 6.59579" fill="white"/>
<path d="M28.6367 7.16672L28.0565 6.74518L28.2673 6.45508" fill="white"/>
<path d="M27.7949 7.16147L28.3751 6.73993L28.1644 6.44983" fill="white"/>
<path d="M27.7949 7.16193L28.0165 6.47986L28.3576 6.59067" fill="white"/>
<path d="M28.2147 3L27.9932 3.68207L28.3342 3.79287" fill="white"/>
<path d="M28.2148 3L28.4365 3.68207L28.0955 3.79287" fill="white"/>
<path d="M28.8925 3.49548H28.1753V3.85407" fill="white"/>
<path d="M28.8926 3.49548L28.3123 3.91702L28.1016 3.62692" fill="white"/>
<path d="M27.5352 3.49548L28.1153 3.91702L28.3261 3.62692" fill="white"/>
<path d="M27.5352 3.49548H28.2522V3.85408" fill="white"/>
<path d="M28.6367 4.29669L28.4151 3.61462L28.0741 3.72543" fill="white"/>
<path d="M28.6367 4.29698L28.0565 3.87543L28.2673 3.58533" fill="white"/>
<path d="M27.793 4.29172L28.3731 3.87018L28.1623 3.58008" fill="white"/>
<path d="M27.793 4.29204L28.0146 3.60999L28.3556 3.72079" fill="white"/>
<path d="M16.7401 8.73767L16.5186 9.41967L16.8596 9.5305" fill="white"/>
<path d="M16.7401 8.73767L16.9618 9.41967L16.6207 9.5305" fill="white"/>
<path d="M17.4179 9.23309H16.7007V9.59168" fill="white"/>
<path d="M17.418 9.23309L16.8378 9.65459L16.627 9.36451" fill="white"/>
<path d="M16.0545 9.23242L16.6348 9.65401L16.8455 9.36384" fill="white"/>
<path d="M16.0545 9.23242H16.7718V9.59101" fill="white"/>
<path d="M17.1602 10.0362L16.9385 9.35413L16.5975 9.46496" fill="white"/>
<path d="M17.1602 10.0365L16.5801 9.615L16.7907 9.32483" fill="white"/>
<path d="M16.3164 10.0306L16.8966 9.60905L16.6858 9.31897" fill="white"/>
<path d="M16.3164 10.0304L16.538 9.34833L16.8791 9.45908" fill="white"/>
<path d="M19.6073 8.73767L19.3857 9.41967L19.7267 9.5305" fill="white"/>
<path d="M19.6073 8.73767L19.8289 9.41967L19.4879 9.5305" fill="white"/>
<path d="M20.287 9.23309H19.5698V9.59168" fill="white"/>
<path d="M20.2871 9.23309L19.7069 9.65459L19.4961 9.36451" fill="white"/>
<path d="M18.9258 9.23242L19.506 9.65401L19.7168 9.36384" fill="white"/>
<path d="M18.9258 9.23242H19.643V9.59101" fill="white"/>
<path d="M20.0254 10.0349L19.8039 9.35284L19.4628 9.46368" fill="white"/>
<path d="M20.0254 10.0352L19.4452 9.61369L19.6559 9.32361" fill="white"/>
<path d="M19.1836 10.0306L19.7638 9.60905L19.553 9.31897" fill="white"/>
<path d="M19.1836 10.0303L19.4052 9.34833L19.7462 9.45908" fill="white"/>
<path d="M19.6094 5.86914L19.3878 6.5512L19.7288 6.66201" fill="white"/>
<path d="M19.6095 5.86914L19.8311 6.5512L19.4901 6.66201" fill="white"/>
<path d="M20.289 6.36462H19.5718V6.72321" fill="white"/>
<path d="M20.289 6.36462L19.7088 6.78617L19.498 6.49607" fill="white"/>
<path d="M18.9258 6.36462L19.506 6.78617L19.7168 6.49607" fill="white"/>
<path d="M18.9258 6.36462H19.643V6.72321" fill="white"/>
<path d="M20.0254 7.16779L19.8039 6.48572L19.4628 6.59653" fill="white"/>
<path d="M20.0254 7.16805L19.4452 6.74652L19.6559 6.45642" fill="white"/>
<path d="M19.1836 7.1622L19.7638 6.74066L19.553 6.45056" fill="white"/>
<path d="M19.1836 7.16193L19.4052 6.47986L19.7462 6.59067" fill="white"/>
</g>
</g>
</g>
<defs>
<clipPath id="clip0_16699_278641">
<rect width="40" height="40" fill="white"/>
</clipPath>
</defs>
</svg>
