<svg width="40" height="40" viewBox="0 0 40 40" fill="none" xmlns="http://www.w3.org/2000/svg">
<g clip-path="url(#clip0_16699_279018)">
<mask id="mask0_16699_279018" style="mask-type:luminance" maskUnits="userSpaceOnUse" x="0" y="0" width="40" height="40">
<path d="M40 0H0V40H40V0Z" fill="white"/>
</mask>
<g mask="url(#mask0_16699_279018)">
<mask id="mask1_16699_279018" style="mask-type:luminance" maskUnits="userSpaceOnUse" x="0" y="0" width="40" height="40">
<path d="M40 20C40 8.95433 31.0457 0 20 0C8.95433 0 0 8.95433 0 20C0 31.0457 8.95433 40 20 40C31.0457 40 40 31.0457 40 20Z" fill="white"/>
</mask>
<g mask="url(#mask1_16699_279018)">
<path d="M-10 0H50V40H-10V0Z" fill="#CF142B"/>
<path d="M-10 0H50V26.6667H-10V0Z" fill="#00247D"/>
<path d="M-10 0H50V13.3333H-10V0Z" fill="#FFCC00"/>
<path d="M22.3886 14.5398L21.6061 16.0114L22.4891 16.4809L22.3886 14.5398Z" fill="white"/>
<path d="M22.3887 14.5398L22.6206 16.1903L21.6304 16.3295L22.3887 14.5398Z" fill="white"/>
<path d="M23.752 15.9496L22.1108 15.6602L21.937 16.6449L23.752 15.9496Z" fill="white"/>
<path d="M23.7521 15.9493L22.2541 16.6801L21.8157 15.7812L23.7521 15.9493Z" fill="white"/>
<path d="M20.6289 15.399L21.7867 16.598L22.506 15.9034L20.6289 15.399Z" fill="white"/>
<path d="M20.6289 15.399L22.2703 15.6885L22.0966 16.6732L20.6289 15.399Z" fill="white"/>
<path d="M22.8105 17.6804L22.5786 16.0299L21.5884 16.1692L22.8105 17.6804Z" fill="white"/>
<path d="M22.8105 17.6801L21.6528 16.4812L22.3722 15.7865L22.8105 17.6801Z" fill="white"/>
<path d="M20.9004 17.3396L22.3984 16.609L21.96 15.7102L20.9004 17.3396Z" fill="white"/>
<path d="M20.9004 17.34L21.6827 15.8685L22.5657 16.3379L20.9004 17.34Z" fill="white"/>
<path d="M26.8319 16.168L25.5934 17.2831L26.2625 18.0262L26.8319 16.168Z" fill="white"/>
<path d="M26.8319 16.168L26.4854 17.7981L25.5073 17.5902L26.8319 16.168Z" fill="white"/>
<path d="M27.6288 17.9563L26.1855 17.123L25.6855 17.989L27.6288 17.9563Z" fill="white"/>
<path d="M27.6288 17.9564L25.9713 18.1307L25.8668 17.1361L27.6288 17.9564Z" fill="white"/>
<path d="M24.8848 16.3724L25.5627 17.8949L26.4762 17.4882L24.8848 16.3724Z" fill="white"/>
<path d="M24.8848 16.3724L26.3281 17.2057L25.8281 18.0717L24.8848 16.3724Z" fill="white"/>
<path d="M26.1738 19.2679L26.5203 17.6376L25.5422 17.4297L26.1738 19.2679Z" fill="white"/>
<path d="M26.1738 19.2678L25.4959 17.7453L26.4095 17.3385L26.1738 19.2678Z" fill="white"/>
<path d="M24.4764 18.2885L26.134 18.1144L26.0294 17.1199L24.4764 18.2885Z" fill="white"/>
<path d="M24.4764 18.2884L25.715 17.1732L26.3841 17.9162L24.4764 18.2884Z" fill="white"/>
<path d="M30.4861 19.2188L28.9407 19.8432L29.3153 20.7702L30.4861 19.2188Z" fill="white"/>
<path d="M30.486 19.2188L29.6028 20.6322L28.7548 20.1023L30.486 19.2188Z" fill="white"/>
<path d="M30.6228 21.1732L29.5515 19.8965L28.7855 20.5392L30.6228 21.1732Z" fill="white"/>
<path d="M30.6227 21.173L29.0055 20.7697L29.2474 19.7995L30.6227 21.173Z" fill="white"/>
<path d="M28.5859 18.7449L28.7023 20.4075L29.6999 20.3377L28.5859 18.7449Z" fill="white"/>
<path d="M28.5859 18.7449L29.6574 20.0216L28.8913 20.6645L28.5859 18.7449Z" fill="white"/>
<path d="M28.8066 21.9075L29.6898 20.4941L28.8418 19.9642L28.8066 21.9075Z" fill="white"/>
<path d="M28.8067 21.9074L28.6904 20.2448L29.6879 20.1752L28.8067 21.9074Z" fill="white"/>
<path d="M27.5469 20.4062L29.164 20.8095L29.406 19.8392L27.5469 20.4062Z" fill="white"/>
<path d="M27.5469 20.4062L29.0922 19.7819L29.4668 20.7091L27.5469 20.4062Z" fill="white"/>
<path d="M32.8574 23.3275L31.1918 23.3857L31.2267 24.3851L32.8574 23.3275Z" fill="white"/>
<path d="M32.8574 23.3275L31.5441 24.3536L30.9284 23.5656L32.8574 23.3275Z" fill="white"/>
<path d="M32.2987 25.2112L31.7287 23.6451L30.7891 23.9871L32.2987 25.2112Z" fill="white"/>
<path d="M32.2988 25.2115L30.9172 24.2795L31.4763 23.4505L32.2988 25.2115Z" fill="white"/>
<path d="M31.2345 22.2331L30.7751 23.8352L31.7363 24.1108L31.2345 22.2331Z" fill="white"/>
<path d="M31.2344 22.2331L31.8044 23.7993L30.8647 24.1413L31.2344 22.2331Z" fill="white"/>
<path d="M30.3496 25.281L31.663 24.2549L31.0474 23.4668L30.3496 25.281Z" fill="white"/>
<path d="M30.3496 25.2805L30.809 23.6784L31.7704 23.954L30.3496 25.2805Z" fill="white"/>
<path d="M29.6797 23.4395L31.0614 24.3714L31.6206 23.5424L29.6797 23.4395Z" fill="white"/>
<path d="M29.6797 23.4397L31.3453 23.3815L31.3802 24.3809L29.6797 23.4397Z" fill="white"/>
<path d="M7.16602 23.3287L8.47933 24.3549L9.095 23.5669L7.16602 23.3287Z" fill="white"/>
<path d="M7.16602 23.3287L8.83167 23.387L8.79675 24.3864L7.16602 23.3287Z" fill="white"/>
<path d="M8.79113 22.2318L8.22107 23.798L9.16079 24.14L8.79113 22.2318Z" fill="white"/>
<path d="M8.79104 22.2318L9.25046 23.8338L8.28918 24.1096L8.79104 22.2318Z" fill="white"/>
<path d="M7.69141 25.2108L9.07316 24.2788L8.51391 23.4498L7.69141 25.2108Z" fill="white"/>
<path d="M7.69141 25.2107L8.26143 23.6445L9.20116 23.9865L7.69141 25.2107Z" fill="white"/>
<path d="M10.3242 23.4358L8.65857 23.3776L8.62366 24.377L10.3242 23.4358Z" fill="white"/>
<path d="M10.3241 23.4355L8.94247 24.3675L8.3833 23.5384L10.3241 23.4355Z" fill="white"/>
<path d="M9.6524 25.2766L9.19298 23.6745L8.23175 23.9501L9.6524 25.2766Z" fill="white"/>
<path d="M9.65241 25.277L8.33899 24.2509L8.95466 23.4629L9.65241 25.277Z" fill="white"/>
<path d="M9.53113 19.2155L10.4143 20.6289L11.2625 20.099L9.53113 19.2155Z" fill="white"/>
<path d="M9.53113 19.2155L11.0765 19.8398L10.7018 20.767L9.53113 19.2155Z" fill="white"/>
<path d="M11.4293 18.7415L10.3581 20.0182L11.1242 20.661L11.4293 18.7415Z" fill="white"/>
<path d="M11.4294 18.7415L11.3131 20.4041L10.3156 20.3343L11.4294 18.7415Z" fill="white"/>
<path d="M9.39221 21.1704L11.0094 20.7672L10.7675 19.7969L9.39221 21.1704Z" fill="white"/>
<path d="M9.39221 21.1706L10.4635 19.8939L11.2295 20.5367L9.39221 21.1706Z" fill="white"/>
<path d="M12.4705 20.4029L10.9253 19.7787L10.5506 20.7059L12.4705 20.4029Z" fill="white"/>
<path d="M12.4704 20.403L10.8533 20.8063L10.6113 19.8359L12.4704 20.403Z" fill="white"/>
<path d="M11.2107 21.9036L11.327 20.241L10.3294 20.1713L11.2107 21.9036Z" fill="white"/>
<path d="M11.2107 21.9035L10.3275 20.4901L11.1755 19.9602L11.2107 21.9035Z" fill="white"/>
<path d="M13.1719 16.1635L13.5185 17.7938L14.4965 17.5858L13.1719 16.1635Z" fill="white"/>
<path d="M13.1719 16.1635L14.4105 17.2786L13.7413 18.0219L13.1719 16.1635Z" fill="white"/>
<path d="M15.1191 16.3685L13.6758 17.2019L14.1758 18.0679L15.1191 16.3685Z" fill="white"/>
<path d="M15.1191 16.3685L14.4412 17.8911L13.5277 17.4844L15.1191 16.3685Z" fill="white"/>
<path d="M12.373 17.9544L14.0306 18.1286L14.1351 17.1341L12.373 17.9544Z" fill="white"/>
<path d="M12.373 17.9544L13.8164 17.1211L14.3164 17.9871L12.373 17.9544Z" fill="white"/>
<path d="M15.5213 18.2851L14.2827 17.1699L13.6136 17.913L15.5213 18.2851Z" fill="white"/>
<path d="M15.5213 18.2846L13.8638 18.1104L13.9683 17.1159L15.5213 18.2846Z" fill="white"/>
<path d="M13.8261 19.2645L14.504 17.742L13.5905 17.3352L13.8261 19.2645Z" fill="white"/>
<path d="M13.8262 19.2645L13.4797 17.6343L14.4578 17.4264L13.8262 19.2645Z" fill="white"/>
<path d="M17.6405 14.5416L17.4085 16.1921L18.3988 16.3313L17.6405 14.5416Z" fill="white"/>
<path d="M17.6405 14.5416L18.423 16.0132L17.54 16.4827L17.6405 14.5416Z" fill="white"/>
<path d="M19.4022 15.401L17.7607 15.6904L17.9344 16.6753L19.4022 15.401Z" fill="white"/>
<path d="M19.4022 15.401L18.2443 16.5999L17.5251 15.9053L19.4022 15.401Z" fill="white"/>
<path d="M16.2753 15.9493L17.7733 16.6801L18.2117 15.7812L16.2753 15.9493Z" fill="white"/>
<path d="M16.2753 15.9496L17.9167 15.6602L18.0903 16.6449L16.2753 15.9496Z" fill="white"/>
<path d="M19.1268 17.3394L18.3443 15.8678L17.4614 16.3373L19.1268 17.3394Z" fill="white"/>
<path d="M19.1269 17.339L17.6289 16.6084L18.0673 15.7097L19.1269 17.339Z" fill="white"/>
<path d="M17.1758 17.6793L18.3336 16.4804L17.6142 15.7858L17.1758 17.6793Z" fill="white"/>
<path d="M17.1758 17.6791L17.4078 16.0287L18.398 16.1679L17.1758 17.6791Z" fill="white"/>
</g>
</g>
</g>
<defs>
<clipPath id="clip0_16699_279018">
<rect width="40" height="40" fill="white"/>
</clipPath>
</defs>
</svg>
