<svg width="40" height="40" viewBox="0 0 40 40" fill="none" xmlns="http://www.w3.org/2000/svg">
<g clip-path="url(#clip0_16699_279110)">
<mask id="mask0_16699_279110" style="mask-type:luminance" maskUnits="userSpaceOnUse" x="0" y="0" width="40" height="40">
<path d="M40 20C40 8.95431 31.0457 0 20 0C8.95431 0 0 8.95431 0 20C0 31.0457 8.95431 40 20 40C31.0457 40 40 31.0457 40 20Z" fill="white"/>
</mask>
<g mask="url(#mask0_16699_279110)">
<mask id="mask1_16699_279110" style="mask-type:luminance" maskUnits="userSpaceOnUse" x="-14" y="0" width="54" height="40">
<path d="M-13.3334 0H40V40H-13.3334V0Z" fill="white"/>
</mask>
<g mask="url(#mask1_16699_279110)">
<mask id="mask2_16699_279110" style="mask-type:luminance" maskUnits="userSpaceOnUse" x="-14" y="0" width="54" height="40">
<path d="M-13.3334 0H40V40H-13.3334V0Z" fill="white"/>
</mask>
<g mask="url(#mask2_16699_279110)">
<path d="M-13.3334 0H66.6666V40H-13.3334V0Z" fill="#000066"/>
<path fill-rule="evenodd" clip-rule="evenodd" d="M-13.3334 0H15.8335V14.5833H-13.3334V0Z" fill="#000066"/>
<path d="M-13.3334 0V1.6305L12.5725 14.5833H15.8334V12.9529L-10.0724 8.33333e-05H-13.3334V0ZM15.8335 0V1.63042L-10.0725 14.5834H-13.3334V12.953L12.5725 0H15.8335Z" fill="white"/>
<path d="M-1.18054 0V14.5833H3.68062V0H-1.18054ZM-13.3334 4.86117V9.72225H15.8335V4.86117H-13.3334Z" fill="white"/>
<path d="M-13.3334 5.83333V8.75H15.8335V5.83333H-13.3334ZM-0.208375 0V14.5833H2.70829V0H-0.208375ZM-13.3334 14.5833L-3.61112 9.72225H-1.43721L-11.1595 14.5834H-13.3334V14.5833ZM-13.3334 0L-3.61112 4.86117H-5.78504L-13.3334 1.087V0ZM3.93729 4.86117L13.6595 0H15.8335L6.11112 4.86117H3.93729ZM15.8335 14.5833L6.11112 9.72217H8.28504L15.8334 13.4963V14.5833H15.8335Z" fill="#CC0000"/>
<path fill-rule="evenodd" clip-rule="evenodd" d="M18.2061 12.8714L36.4846 12.8036L36.4507 29.0813C36.4507 29.0813 37.0951 31.5568 28.7868 35.321C31.771 35.0158 35.0265 31.8282 35.0265 31.8282C35.0265 31.8282 36.349 30.1326 36.9934 31.0821C37.6376 32.0316 38.2481 32.5063 38.7228 32.8794C39.1976 33.2524 39.5706 34.2698 38.8585 35.0158C38.1463 35.7618 37.0273 35.8636 36.7221 34.948C36.2473 35.1854 33.331 38.7122 27.3629 38.8818C21.2929 38.78 17.9696 34.9141 17.9696 34.9141C17.9696 34.9141 17.1557 36.2028 16.0027 35.1854C14.8837 33.8629 15.7315 33.0151 15.7315 33.0151C15.7315 33.0151 16.681 32.4725 16.9523 32.0994C17.3931 31.5908 17.5287 30.9125 18.2748 30.9125C19.1565 30.9803 19.4956 31.6925 19.4956 31.6925C19.4956 31.6925 22.5476 34.9141 25.837 35.321C18.4103 31.7603 18.1391 29.556 18.173 29.0135L18.2069 12.8718L18.2061 12.8714Z" fill="white"/>
<path fill-rule="evenodd" clip-rule="evenodd" d="M18.6466 13.3119L36.0766 13.2102V28.8771C36.1105 30.9118 32.6854 32.9805 27.3274 35.6255C21.8005 32.7769 18.6133 31.0472 18.5791 28.8437L18.6469 13.3127L18.6466 13.3119Z" fill="#006129" stroke="black" stroke-width="0.8585"/>
<path d="M20.7427 30.5752L21.7715 29.0641L22.8054 30.5784" fill="black"/>
<path d="M20.7427 30.5752L21.7715 29.0641L22.8054 30.5784" stroke="#F7C600" stroke-width="0.859"/>
<path fill-rule="evenodd" clip-rule="evenodd" d="M21.9783 30.0095C21.9783 30.0364 21.9731 30.063 21.9628 30.0877C21.9526 30.1125 21.9375 30.135 21.9185 30.154C21.8996 30.173 21.8771 30.1881 21.8522 30.1984C21.8275 30.2086 21.8009 30.214 21.7741 30.214C21.7472 30.214 21.7206 30.2087 21.6959 30.1985C21.6711 30.1882 21.6486 30.1731 21.6296 30.1542C21.6106 30.1352 21.5955 30.1127 21.5852 30.0879C21.575 30.0631 21.5696 30.0365 21.5696 30.0097C21.5696 29.9555 21.5911 29.9035 21.6294 29.8652C21.6677 29.8269 21.7197 29.8053 21.7739 29.8053C21.8281 29.8053 21.8801 29.8268 21.9184 29.8651C21.9567 29.9034 21.9783 29.9554 21.9783 30.0095Z" fill="#F7C600" stroke="black" stroke-width="0.4025"/>
<path fill-rule="evenodd" clip-rule="evenodd" d="M20.9361 31.6917L22.5311 31.6962C22.5311 31.6962 22.5561 31.4892 22.3645 31.3633C23.2 31.2485 22.983 30.5115 23.6826 30.4697C23.8185 30.4906 23.3171 30.7831 23.3171 30.7831C23.3171 30.7831 22.8953 31.0807 23.0874 31.2321C23.2399 31.3522 23.3067 31.159 23.3276 31.0128C23.3485 30.8666 24.0064 30.7726 23.9125 30.3549C23.7558 30.0102 22.8368 30.5847 22.8368 30.5847L22.1811 30.581C22.1403 30.5074 21.9595 30.2123 21.773 30.211C21.5516 30.219 21.3956 30.5847 21.3956 30.5847H19.9126C19.9126 30.5847 19.8618 30.9652 20.6137 31.0382C20.7831 31.2593 20.9143 31.3211 21.0615 31.3783C20.9633 31.4601 20.9356 31.559 20.9361 31.6917Z" fill="#F7C600" stroke="black" stroke-width="0.4025"/>
<path d="M20.4426 30.584C20.4426 30.584 20.5488 31.2054 21.0393 31.3526L20.4426 30.584Z" fill="black"/>
<path d="M21.051 31.3676L22.3796 31.3631M20.4426 30.584C20.4426 30.584 20.5488 31.2054 21.0393 31.3526" stroke="black" stroke-width="0.4025"/>
<path fill-rule="evenodd" clip-rule="evenodd" d="M20.3604 30.5757C20.4095 30.3387 20.4994 30.2978 20.5975 29.9953C20.6139 29.701 20.3604 29.7336 20.4341 29.5456C20.5648 29.3412 20.4994 29.145 20.2542 28.9896C20.3032 29.2594 19.9352 29.5129 19.9352 29.7336C19.9352 29.9544 20.1233 29.9054 20.0987 30.2406C20.1151 30.4368 20.0497 30.3877 20.0334 30.5757H20.3604Z" fill="url(#paint0_linear_16699_279110)" stroke="black" stroke-width="0.4025"/>
<path fill-rule="evenodd" clip-rule="evenodd" d="M21.9617 29.1022C21.9618 29.127 21.957 29.1514 21.9476 29.1742C21.9381 29.1971 21.9242 29.2178 21.9067 29.2352C21.876 29.266 21.8356 29.2852 21.7923 29.2895C21.749 29.2937 21.7056 29.2829 21.6694 29.2587C21.6332 29.2346 21.6066 29.1987 21.5939 29.1571C21.5812 29.1154 21.5834 29.0707 21.6001 29.0306C21.6166 28.9903 21.6466 28.9572 21.6851 28.9367C21.7234 28.9161 21.7676 28.9095 21.8103 28.918C21.853 28.9264 21.8914 28.9494 21.919 28.983C21.9466 29.0167 21.9617 29.0587 21.9617 29.1022Z" fill="#F7C600" stroke="black" stroke-width="0.4025"/>
<path d="M20.6846 27.465L21.7134 25.9539L22.7473 27.4682" fill="black"/>
<path d="M20.6846 27.465L21.7134 25.9539L22.7473 27.4682" stroke="#F7C600" stroke-width="0.859"/>
<path fill-rule="evenodd" clip-rule="evenodd" d="M21.92 26.8995C21.92 26.9263 21.9147 26.9529 21.9045 26.9776C21.8942 27.0025 21.8791 27.025 21.8602 27.044C21.8412 27.0629 21.8187 27.078 21.7939 27.0882C21.7691 27.0985 21.7426 27.1038 21.7157 27.1038C21.6889 27.1038 21.6624 27.0985 21.6376 27.0883C21.6128 27.078 21.5902 27.063 21.5713 27.044C21.5523 27.025 21.5372 27.0025 21.527 26.9777C21.5167 26.953 21.5114 26.9264 21.5114 26.8995C21.5109 26.8724 21.5157 26.8454 21.5257 26.8201C21.5357 26.7948 21.5507 26.7718 21.5697 26.7524C21.5887 26.733 21.6115 26.7175 21.6366 26.707C21.6616 26.6965 21.6885 26.691 21.7156 26.691C21.7428 26.691 21.7697 26.6965 21.7948 26.707C21.8199 26.7175 21.8426 26.7329 21.8616 26.7523C21.8806 26.7717 21.8956 26.7947 21.9056 26.82C21.9156 26.8453 21.9206 26.8723 21.92 26.8995Z" fill="#F7C600" stroke="black" stroke-width="0.4025"/>
<path fill-rule="evenodd" clip-rule="evenodd" d="M20.878 28.5814L22.4731 28.586C22.4731 28.586 22.4981 28.3789 22.3064 28.2531C23.1419 28.1382 22.9249 27.4013 23.6246 27.3595C23.7604 27.3804 23.2591 27.6729 23.2591 27.6729C23.2591 27.6729 22.8373 27.9705 23.0294 28.1219C23.1819 28.242 23.2487 28.0488 23.2696 27.9025C23.2904 27.7564 23.9484 27.6624 23.8544 27.2446C23.6978 26.9 22.7788 27.4744 22.7788 27.4744L22.1231 27.4707C22.0823 27.3971 21.9014 27.102 21.7149 27.1007C21.4935 27.1088 21.3376 27.4744 21.3376 27.4744H19.8546C19.8546 27.4744 19.8038 27.8549 20.5557 27.928C20.725 28.149 20.8563 28.2109 21.0034 28.268C20.9053 28.3499 20.8777 28.4488 20.8781 28.5814H20.878Z" fill="#F7C600" stroke="black" stroke-width="0.4025"/>
<path d="M20.3843 27.4739C20.3843 27.4739 20.4906 28.0952 20.9811 28.2424L20.3843 27.4739Z" fill="black"/>
<path d="M20.9928 28.2575L22.3214 28.2529M20.3843 27.4739C20.3843 27.4739 20.4906 28.0952 20.9811 28.2424" stroke="black" stroke-width="0.4025"/>
<path fill-rule="evenodd" clip-rule="evenodd" d="M20.3022 27.4655C20.3513 27.2284 20.4412 27.1876 20.5393 26.8851C20.5557 26.5907 20.3022 26.6234 20.3759 26.4354C20.5067 26.231 20.4412 26.0347 20.196 25.8794C20.2451 26.1491 19.8771 26.4026 19.8771 26.6234C19.8771 26.8441 20.0652 26.7951 20.0406 27.1303C20.0569 27.3265 19.9916 27.2775 19.9752 27.4655H20.3022Z" fill="url(#paint1_linear_16699_279110)" stroke="black" stroke-width="0.4025"/>
<path fill-rule="evenodd" clip-rule="evenodd" d="M21.9036 25.992C21.9037 26.0167 21.899 26.0412 21.8896 26.064C21.8801 26.0869 21.8663 26.1077 21.8488 26.1251C21.8314 26.1426 21.8106 26.1564 21.7877 26.1658C21.7649 26.1752 21.7405 26.1801 21.7157 26.18C21.6659 26.1799 21.6181 26.1602 21.5827 26.125C21.5609 26.1032 21.5447 26.0762 21.5357 26.0467C21.5268 26.0171 21.5252 25.9857 21.5312 25.9554C21.5373 25.9251 21.5507 25.8967 21.5703 25.8728C21.5899 25.8489 21.6151 25.8302 21.6436 25.8183C21.6722 25.8065 21.7032 25.8019 21.7341 25.8049C21.7648 25.808 21.7943 25.8185 21.8201 25.8357C21.8458 25.8528 21.8668 25.8761 21.8814 25.9034C21.896 25.9307 21.9036 25.9611 21.9036 25.992Z" fill="#F7C600" stroke="black" stroke-width="0.4025"/>
<path d="M31.6151 24.6376L32.644 23.1265L33.6779 24.6408" fill="black"/>
<path d="M31.6151 24.6376L32.644 23.1265L33.6779 24.6408" stroke="#F7C600" stroke-width="0.859"/>
<path fill-rule="evenodd" clip-rule="evenodd" d="M32.8506 24.0721C32.8505 24.1263 32.8289 24.1782 32.7907 24.2165C32.7524 24.2548 32.7005 24.2764 32.6463 24.2765C32.6059 24.2765 32.5664 24.2646 32.5327 24.2421C32.4992 24.2197 32.473 24.1878 32.4575 24.1504C32.442 24.1131 32.4379 24.072 32.4458 24.0324C32.4537 23.9928 32.4731 23.9563 32.5017 23.9278C32.5302 23.8992 32.5667 23.8797 32.6062 23.8718C32.6459 23.8639 32.687 23.8679 32.7243 23.8833C32.7617 23.8988 32.7936 23.925 32.8161 23.9586C32.8386 23.9922 32.8506 24.0317 32.8506 24.0721Z" fill="#F7C600" stroke="black" stroke-width="0.4025"/>
<path fill-rule="evenodd" clip-rule="evenodd" d="M31.8085 25.7542L33.4036 25.7587C33.4036 25.7587 33.4286 25.5517 33.237 25.4259C34.0725 25.3109 33.8554 24.574 34.5552 24.5323C34.6909 24.5531 34.1896 24.8456 34.1896 24.8456C34.1896 24.8456 33.7678 25.1433 33.9598 25.2946C34.1123 25.4148 34.1792 25.2215 34.2001 25.0753C34.2209 24.9291 34.8789 24.8351 34.7849 24.4174C34.6283 24.0728 33.7093 24.6471 33.7093 24.6471L33.0536 24.6435C33.0128 24.5699 32.8319 24.2748 32.6454 24.2734C32.424 24.2815 32.2681 24.6471 32.2681 24.6471H30.7851C30.7851 24.6471 30.7343 25.0276 31.4862 25.1007C31.6555 25.3219 31.7868 25.3836 31.9339 25.4409C31.8358 25.5225 31.8081 25.6215 31.8086 25.7542H31.8085Z" fill="#F7C600" stroke="black" stroke-width="0.4025"/>
<path d="M31.3147 24.6465C31.3147 24.6465 31.421 25.2678 31.9116 25.415L31.3147 24.6465Z" fill="black"/>
<path d="M31.9233 25.43L33.2518 25.4256M31.3147 24.6465C31.3147 24.6465 31.421 25.2678 31.9116 25.415" stroke="black" stroke-width="0.4025"/>
<path fill-rule="evenodd" clip-rule="evenodd" d="M31.2328 24.6382C31.2819 24.4012 31.3718 24.3603 31.4699 24.0578C31.4863 23.7635 31.2328 23.7961 31.3064 23.6081C31.4372 23.4037 31.3718 23.2075 31.1265 23.0521C31.1756 23.3219 30.8076 23.5754 30.8076 23.7961C30.8076 24.0169 30.9957 23.9679 30.9712 24.3031C30.9874 24.4993 30.9221 24.4502 30.9058 24.6382H31.2328Z" fill="url(#paint2_linear_16699_279110)" stroke="black" stroke-width="0.4025"/>
<path fill-rule="evenodd" clip-rule="evenodd" d="M32.8342 23.1647C32.8342 23.1893 32.8294 23.2137 32.8199 23.2366C32.8105 23.2594 32.7966 23.2801 32.7792 23.2976C32.7617 23.315 32.7411 23.3288 32.7182 23.3383C32.6954 23.3477 32.671 23.3527 32.6463 23.3527C32.6216 23.3527 32.5971 23.3478 32.5744 23.3383C32.5516 23.3289 32.5308 23.3151 32.5134 23.2976C32.4959 23.2802 32.4821 23.2594 32.4726 23.2367C32.4631 23.2138 32.4583 23.1894 32.4583 23.1647C32.4583 23.1148 32.4781 23.0671 32.5133 23.0318C32.5486 22.9966 32.5964 22.9767 32.6462 22.9767C32.6961 22.9767 32.7439 22.9965 32.7791 23.0317C32.8144 23.067 32.8342 23.1148 32.8342 23.1647Z" fill="#F7C600" stroke="black" stroke-width="0.4025"/>
<path d="M20.9394 21.6143L21.9682 20.1031L23.0021 21.6175" fill="black"/>
<path d="M20.9394 21.6143L21.9682 20.1031L23.0021 21.6175" stroke="#F7C600" stroke-width="0.859"/>
<path fill-rule="evenodd" clip-rule="evenodd" d="M22.1749 21.0488C22.1748 21.0823 22.1665 21.1153 22.1506 21.1449C22.1347 21.1745 22.1119 21.1998 22.084 21.2184C22.056 21.2371 22.024 21.2486 21.9905 21.2519C21.9571 21.2553 21.9235 21.2503 21.8924 21.2376C21.8676 21.2274 21.845 21.2123 21.826 21.1934C21.807 21.1744 21.792 21.1519 21.7818 21.1271C21.7702 21.0992 21.765 21.0691 21.7665 21.0388C21.768 21.0087 21.7761 20.9793 21.7903 20.9526C21.8045 20.9259 21.8245 20.9028 21.8488 20.8848C21.873 20.8668 21.901 20.8543 21.9306 20.8484C21.9603 20.8425 21.9909 20.8433 22.0201 20.8506C22.0495 20.8579 22.0768 20.8717 22.1001 20.8908C22.1235 20.91 22.1423 20.9341 22.1553 20.9614C22.1682 20.9887 22.1749 21.0185 22.1749 21.0488Z" fill="#F7C600" stroke="black" stroke-width="0.4025"/>
<path fill-rule="evenodd" clip-rule="evenodd" d="M21.1328 22.7308L22.7279 22.7353C22.7279 22.7353 22.7529 22.5283 22.5612 22.4025C23.3967 22.2876 23.1797 21.5507 23.8794 21.5089C24.0152 21.5298 23.5139 21.8222 23.5139 21.8222C23.5139 21.8222 23.092 22.1199 23.2841 22.2713C23.4366 22.3915 23.5034 22.1982 23.5244 22.052C23.5452 21.9058 24.2031 21.8118 24.1092 21.394C23.9525 21.0494 23.0335 21.6238 23.0335 21.6238L22.3779 21.6201C22.337 21.5465 22.1562 21.2515 21.9697 21.2501C21.7483 21.2582 21.5924 21.6238 21.5924 21.6238H20.1094C20.1094 21.6238 20.0585 22.0043 20.8104 22.0774C20.9798 22.2985 21.1109 22.3602 21.2581 22.4175C21.16 22.4992 21.1324 22.5981 21.1329 22.7308H21.1328Z" fill="#F7C600" stroke="black" stroke-width="0.4025"/>
<path d="M20.6392 21.623C20.6392 21.623 20.7455 22.2445 21.236 22.3916L20.6392 21.623Z" fill="black"/>
<path d="M21.2477 22.4066L22.5762 22.4021M20.6392 21.623C20.6392 21.623 20.7455 22.2445 21.236 22.3916" stroke="black" stroke-width="0.4025"/>
<path fill-rule="evenodd" clip-rule="evenodd" d="M20.5571 21.6148C20.6062 21.3777 20.6961 21.3369 20.7942 21.0344C20.8106 20.74 20.5571 20.7727 20.6308 20.5847C20.7615 20.3803 20.6961 20.184 20.4509 20.0287C20.5 20.2984 20.132 20.5519 20.132 20.7727C20.132 20.9934 20.32 20.9444 20.2955 21.2796C20.3118 21.4758 20.2465 21.4268 20.2301 21.6148H20.5571Z" fill="url(#paint3_linear_16699_279110)" stroke="black" stroke-width="0.4025"/>
<path fill-rule="evenodd" clip-rule="evenodd" d="M22.1586 20.1413C22.1585 20.1912 22.1388 20.239 22.1036 20.2742C22.0728 20.305 22.0323 20.3242 21.9891 20.3284C21.9458 20.3327 21.9023 20.3219 21.8662 20.2977C21.83 20.2736 21.8033 20.2377 21.7907 20.196C21.778 20.1544 21.7802 20.1097 21.7968 20.0695C21.8135 20.0293 21.8435 19.9961 21.8819 19.9756C21.9203 19.9551 21.9645 19.9485 22.0072 19.957C22.0498 19.9654 22.0883 19.9884 22.1158 20.0221C22.1434 20.0557 22.1586 20.0978 22.1586 20.1413Z" fill="#F7C600" stroke="black" stroke-width="0.4025"/>
<path d="M20.9626 18.6428L21.9915 17.1316L23.0253 18.6459" fill="black"/>
<path d="M20.9626 18.6428L21.9915 17.1316L23.0253 18.6459" stroke="#F7C600" stroke-width="0.859"/>
<path fill-rule="evenodd" clip-rule="evenodd" d="M22.1981 18.0772C22.1981 18.104 22.1928 18.1306 22.1825 18.1553C22.1723 18.1802 22.1573 18.2028 22.1383 18.2218C22.1193 18.2407 22.0968 18.2558 22.072 18.266C22.0219 18.2867 21.9657 18.2867 21.9156 18.266C21.8783 18.2505 21.8464 18.2243 21.8239 18.1908C21.8015 18.1572 21.7895 18.1177 21.7894 18.0773C21.7894 18.0231 21.8109 17.9711 21.8492 17.9328C21.8875 17.8944 21.9395 17.8729 21.9937 17.8729C22.0478 17.8728 22.0998 17.8944 22.1382 17.9327C22.1765 17.971 22.1981 18.023 22.1981 18.0772Z" fill="#F7C600" stroke="black" stroke-width="0.4025"/>
<path fill-rule="evenodd" clip-rule="evenodd" d="M21.156 19.7592L22.7511 19.7638C22.7511 19.7638 22.7761 19.5567 22.5845 19.4309C23.42 19.3159 23.2029 18.5791 23.9026 18.5373C24.0384 18.5582 23.5371 18.8507 23.5371 18.8507C23.5371 18.8507 23.1152 19.1483 23.3073 19.2997C23.4598 19.4198 23.5266 19.2266 23.5476 19.0803C23.5684 18.9342 24.2264 18.8402 24.1324 18.4224C23.9757 18.0778 23.0567 18.6522 23.0567 18.6522L22.4011 18.6485C22.3602 18.5749 22.1794 18.2798 21.9929 18.2785C21.7715 18.2866 21.6156 18.6522 21.6156 18.6522H20.1326C20.1326 18.6522 20.0817 19.0327 20.8336 19.1058C21.003 19.3268 21.1342 19.3887 21.2814 19.4458C21.1832 19.5277 21.1556 19.6266 21.1561 19.7592H21.156Z" fill="#F7C600" stroke="black" stroke-width="0.4025"/>
<path d="M20.6622 18.6515C20.6622 18.6515 20.7686 19.2729 21.2591 19.4201L20.6622 18.6515Z" fill="black"/>
<path d="M21.2708 19.4352L22.5993 19.4306M20.6622 18.6515C20.6622 18.6515 20.7686 19.2729 21.2591 19.4201" stroke="black" stroke-width="0.4025"/>
<path fill-rule="evenodd" clip-rule="evenodd" d="M20.5802 18.6432C20.6293 18.4061 20.7192 18.3653 20.8173 18.0627C20.8337 17.7685 20.5802 17.8011 20.6539 17.6131C20.7847 17.4086 20.7192 17.2125 20.4739 17.0571C20.523 17.3269 20.155 17.5804 20.155 17.8011C20.155 18.0219 20.3432 17.9728 20.3186 18.308C20.3349 18.5042 20.2695 18.4552 20.2532 18.6432H20.5802Z" fill="url(#paint4_linear_16699_279110)" stroke="black" stroke-width="0.4025"/>
<path fill-rule="evenodd" clip-rule="evenodd" d="M22.1817 17.1697C22.1818 17.1944 22.177 17.2189 22.1676 17.2418C22.1582 17.2646 22.1443 17.2854 22.1269 17.3029C22.1094 17.3203 22.0886 17.3342 22.0658 17.3436C22.0429 17.353 22.0184 17.3578 21.9937 17.3577C21.9439 17.3576 21.896 17.3379 21.8608 17.3027C21.8255 17.2674 21.8058 17.2196 21.8058 17.1698C21.8058 17.1199 21.8255 17.0721 21.8607 17.0368C21.887 17.0105 21.9205 16.9926 21.957 16.9853C21.9935 16.9781 22.0312 16.9817 22.0656 16.996C22.1 17.0102 22.1294 17.0343 22.15 17.0652C22.1707 17.0961 22.1817 17.1325 22.1817 17.1697Z" fill="#F7C600" stroke="black" stroke-width="0.4025"/>
<path d="M21.019 15.6277L22.0479 14.1166L23.0818 15.6309" fill="black"/>
<path d="M21.019 15.6277L22.0479 14.1166L23.0818 15.6309" stroke="#F7C600" stroke-width="0.859"/>
<path fill-rule="evenodd" clip-rule="evenodd" d="M22.2544 15.0622C22.255 15.0893 22.2502 15.1164 22.2402 15.1417C22.2302 15.1669 22.2152 15.1899 22.1961 15.2093C22.1771 15.2287 22.1544 15.2442 22.1293 15.2547C22.1043 15.2652 22.0774 15.2707 22.0502 15.2707C22.0097 15.2706 21.9701 15.2584 21.9365 15.2357C21.9028 15.2131 21.8767 15.181 21.8614 15.1435C21.8461 15.1059 21.8422 15.0647 21.8503 15.025C21.8585 14.9852 21.8782 14.9489 21.9071 14.9204C21.9356 14.8925 21.9717 14.8735 22.0107 14.8657C22.0499 14.858 22.0905 14.862 22.1274 14.877C22.1643 14.8921 22.1961 14.9177 22.2187 14.9506C22.2412 14.9835 22.2537 15.0222 22.2544 15.0622Z" fill="#F7C600" stroke="black" stroke-width="0.4025"/>
<path fill-rule="evenodd" clip-rule="evenodd" d="M21.2124 16.7442L22.8074 16.7487C22.8074 16.7487 22.8324 16.5417 22.6408 16.4159C23.4763 16.3009 23.2593 15.5641 23.959 15.5222C24.0948 15.5432 23.5935 15.8356 23.5935 15.8356C23.5935 15.8356 23.1716 16.1333 23.3637 16.2847C23.5162 16.4048 23.583 16.2116 23.6039 16.0653C23.6247 15.9192 24.2827 15.8252 24.1887 15.4074C24.032 15.0628 23.113 15.6372 23.113 15.6372L22.4574 15.6335C22.4165 15.5599 22.2358 15.2648 22.0492 15.2635C21.8278 15.2716 21.6719 15.6372 21.6719 15.6372H20.189C20.189 15.6372 20.1381 16.0177 20.89 16.0907C21.0593 16.3118 21.1905 16.3737 21.3377 16.4308C21.2396 16.5127 21.212 16.6116 21.2124 16.7442Z" fill="#F7C600" stroke="black" stroke-width="0.4025"/>
<path d="M20.7188 15.6365C20.7188 15.6365 20.825 16.2579 21.3156 16.4051L20.7188 15.6365Z" fill="black"/>
<path d="M21.3273 16.4201L22.6558 16.4156M20.7188 15.6365C20.7188 15.6365 20.825 16.2579 21.3156 16.4051" stroke="black" stroke-width="0.4025"/>
<path fill-rule="evenodd" clip-rule="evenodd" d="M20.6367 15.6283C20.6858 15.3913 20.7757 15.3503 20.8738 15.0478C20.8902 14.7536 20.6367 14.7862 20.7104 14.5982C20.8412 14.3938 20.7757 14.1976 20.5305 14.0422C20.5795 14.3119 20.2115 14.5654 20.2115 14.7862C20.2115 15.0069 20.3997 14.9579 20.3751 15.2932C20.3914 15.4893 20.326 15.4403 20.3097 15.6283H20.6367Z" fill="url(#paint5_linear_16699_279110)" stroke="black" stroke-width="0.4025"/>
<path fill-rule="evenodd" clip-rule="evenodd" d="M22.238 14.1547C22.2386 14.1798 22.2342 14.2046 22.2249 14.2279C22.2158 14.2512 22.2019 14.2724 22.1844 14.2902C22.167 14.3082 22.1461 14.3224 22.123 14.3321C22.0999 14.3418 22.0752 14.3468 22.0501 14.3467C22.0251 14.3467 22.0002 14.3418 21.9772 14.332C21.9542 14.3225 21.9333 14.3083 21.9157 14.2904C21.8982 14.2725 21.8844 14.2513 21.8752 14.228C21.8616 14.1936 21.8584 14.1559 21.8661 14.1197C21.8738 14.0835 21.892 14.0504 21.9185 14.0245C21.9447 13.9988 21.9778 13.9812 22.0138 13.9741C22.0498 13.967 22.0872 13.9706 22.1211 13.9845C22.1551 13.9984 22.1843 14.0219 22.2051 14.0521C22.2258 14.0824 22.2373 14.118 22.238 14.1547Z" fill="#F7C600" stroke="black" stroke-width="0.4025"/>
<path d="M31.6962 15.6768L32.7252 14.1656L33.759 15.68" fill="black"/>
<path d="M31.6962 15.6768L32.7252 14.1656L33.759 15.68" stroke="#F7C600" stroke-width="0.859"/>
<path fill-rule="evenodd" clip-rule="evenodd" d="M32.9317 15.1112C32.9317 15.1381 32.9265 15.1646 32.9162 15.1894C32.906 15.2142 32.8909 15.2367 32.872 15.2557C32.853 15.2747 32.8305 15.2897 32.8057 15.3001C32.7809 15.3103 32.7543 15.3156 32.7275 15.3156C32.7007 15.3156 32.6741 15.3104 32.6493 15.3001C32.6245 15.2898 32.602 15.2748 32.583 15.2558C32.564 15.2369 32.549 15.2143 32.5387 15.1896C32.5284 15.1648 32.5231 15.1382 32.5231 15.1114C32.5231 15.0571 32.5446 15.0052 32.5829 14.9669C32.6212 14.9286 32.6732 14.907 32.7273 14.907C32.7816 14.907 32.8335 14.9285 32.8718 14.9667C32.9102 15.0051 32.9317 15.057 32.9317 15.1112Z" fill="#F7C600" stroke="black" stroke-width="0.4025"/>
<path fill-rule="evenodd" clip-rule="evenodd" d="M31.8895 16.7934L33.4846 16.7979C33.4846 16.7979 33.5096 16.5909 33.318 16.465C34.1535 16.3501 33.9365 15.6132 34.6362 15.5715C34.772 15.5923 34.2707 15.8848 34.2707 15.8848C34.2707 15.8848 33.8488 16.1825 34.041 16.3338C34.1935 16.454 34.2602 16.2607 34.2811 16.1145C34.3019 15.9683 34.96 15.8743 34.866 15.4565C34.7093 15.112 33.7903 15.6863 33.7903 15.6863L33.1346 15.6827C33.0938 15.609 32.913 15.314 32.7264 15.3126C32.505 15.3207 32.3491 15.6863 32.3491 15.6863H30.8662C30.8662 15.6863 30.8154 16.0668 31.5673 16.1399C31.7365 16.361 31.8678 16.4228 32.0149 16.48C31.9169 16.5617 31.8891 16.6607 31.8895 16.7934Z" fill="#F7C600" stroke="black" stroke-width="0.4025"/>
<path d="M31.3961 15.6857C31.3961 15.6857 31.5024 16.307 31.993 16.4542L31.3961 15.6857Z" fill="black"/>
<path d="M32.0045 16.4692L33.3332 16.4648M31.3961 15.6857C31.3961 15.6857 31.5024 16.307 31.993 16.4542" stroke="black" stroke-width="0.4025"/>
<path fill-rule="evenodd" clip-rule="evenodd" d="M31.314 15.6773C31.363 15.4402 31.453 15.3994 31.551 15.0969C31.5675 14.8026 31.314 14.8352 31.3876 14.6472C31.5184 14.4427 31.453 14.2466 31.2077 14.0912C31.2568 14.361 30.8888 14.6145 30.8888 14.8352C30.8888 15.056 31.077 15.0069 31.0524 15.3422C31.0686 15.5383 31.0033 15.4893 30.987 15.6773H31.314Z" fill="url(#paint6_linear_16699_279110)" stroke="black" stroke-width="0.4025"/>
<path fill-rule="evenodd" clip-rule="evenodd" d="M32.9154 14.2038C32.9165 14.2537 32.8977 14.3019 32.8633 14.338C32.8288 14.374 32.7815 14.3949 32.7316 14.396C32.6817 14.3971 32.6335 14.3783 32.5974 14.3438C32.5614 14.3094 32.5405 14.262 32.5394 14.2122C32.5389 14.1875 32.5432 14.1629 32.5522 14.1399C32.5611 14.1168 32.5745 14.0958 32.5916 14.078C32.6086 14.0602 32.629 14.0458 32.6517 14.0359C32.6742 14.0259 32.6986 14.0205 32.7232 14.02C32.7479 14.0194 32.7725 14.0238 32.7955 14.0327C32.8186 14.0417 32.8396 14.055 32.8574 14.0721C32.8752 14.0892 32.8896 14.1096 32.8995 14.1322C32.9095 14.1548 32.9149 14.1792 32.9154 14.2038Z" fill="#F7C600" stroke="black" stroke-width="0.4025"/>
<path d="M31.5988 18.6365L32.6277 17.1254L33.6616 18.6397" fill="black"/>
<path d="M31.5988 18.6365L32.6277 17.1254L33.6616 18.6397" stroke="#F7C600" stroke-width="0.859"/>
<path fill-rule="evenodd" clip-rule="evenodd" d="M32.8343 18.0709C32.8343 18.125 32.8128 18.177 32.7745 18.2154C32.7361 18.2537 32.6841 18.2752 32.63 18.2752C32.5757 18.2752 32.5238 18.2537 32.4855 18.2154C32.4471 18.177 32.4255 18.125 32.4255 18.0709C32.4255 18.0167 32.4471 17.9647 32.4855 17.9264C32.5238 17.888 32.5757 17.8665 32.63 17.8665C32.6841 17.8665 32.7361 17.888 32.7745 17.9264C32.8128 17.9647 32.8343 18.0167 32.8343 18.0709Z" fill="#F7C600" stroke="black" stroke-width="0.4025"/>
<path fill-rule="evenodd" clip-rule="evenodd" d="M31.7921 19.7529L33.3872 19.7575C33.3872 19.7575 33.4122 19.5504 33.2206 19.4246C34.0561 19.3097 33.8391 18.5728 34.5388 18.5311C34.6746 18.5519 34.1732 18.8444 34.1732 18.8444C34.1732 18.8444 33.7514 19.142 33.9435 19.2934C34.096 19.4135 34.1628 19.2203 34.1837 19.0741C34.2046 18.9279 34.8626 18.8339 34.7686 18.4161C34.6119 18.0716 33.6929 18.6459 33.6929 18.6459L33.0372 18.6422C32.9964 18.5686 32.8156 18.2736 32.6291 18.2722C32.4076 18.2803 32.2517 18.6459 32.2517 18.6459H30.7687C30.7687 18.6459 30.7179 19.0264 31.4698 19.0995C31.6391 19.3206 31.7704 19.3824 31.9176 19.4395C31.8194 19.5214 31.7916 19.6203 31.7921 19.7529Z" fill="#F7C600" stroke="black" stroke-width="0.4025"/>
<path d="M31.2985 18.6453C31.2985 18.6453 31.4048 19.2667 31.8954 19.4138L31.2985 18.6453Z" fill="black"/>
<path d="M31.907 19.4289L33.2355 19.4243M31.2985 18.6453C31.2985 18.6453 31.4048 19.2667 31.8954 19.4138" stroke="black" stroke-width="0.4025"/>
<path fill-rule="evenodd" clip-rule="evenodd" d="M31.2165 18.637C31.2656 18.3999 31.3555 18.359 31.4536 18.0565C31.47 17.7623 31.2165 17.7949 31.2902 17.6068C31.421 17.4024 31.3555 17.2063 31.1102 17.0508C31.1593 17.3207 30.7913 17.5742 30.7913 17.7949C30.7913 18.0157 30.9795 17.9666 30.9549 18.3018C30.9712 18.498 30.9058 18.449 30.8895 18.637H31.2165Z" fill="url(#paint7_linear_16699_279110)" stroke="black" stroke-width="0.4025"/>
<path fill-rule="evenodd" clip-rule="evenodd" d="M32.818 17.1635C32.8179 17.2134 32.7981 17.2611 32.7629 17.2964C32.7277 17.3316 32.6799 17.3515 32.6301 17.3515C32.5802 17.3515 32.5323 17.3317 32.4971 17.2965C32.4618 17.2612 32.4421 17.2134 32.4421 17.1635C32.4421 17.1137 32.4617 17.0659 32.497 17.0306C32.5232 17.0043 32.5567 16.9864 32.5932 16.9791C32.6297 16.9718 32.6675 16.9755 32.7019 16.9898C32.7362 17.004 32.7656 17.0281 32.7862 17.059C32.8069 17.09 32.818 17.1263 32.818 17.1635Z" fill="#F7C600" stroke="black" stroke-width="0.4025"/>
<path d="M31.4679 21.6617L32.4967 20.1506L33.5306 21.6649" fill="black"/>
<path d="M31.4679 21.6617L32.4967 20.1506L33.5306 21.6649" stroke="#F7C600" stroke-width="0.859"/>
<path fill-rule="evenodd" clip-rule="evenodd" d="M32.7034 21.096C32.7043 21.137 32.6928 21.1773 32.6705 21.2116C32.6482 21.2459 32.6161 21.2728 32.5783 21.2886C32.5533 21.2993 32.5264 21.3047 32.4992 21.3048C32.472 21.3048 32.4451 21.2993 32.4201 21.2887C32.395 21.2783 32.3722 21.2629 32.3532 21.2434C32.3342 21.224 32.3192 21.201 32.3092 21.1757C32.2943 21.1384 32.2908 21.0974 32.2992 21.0579C32.3075 21.0186 32.3273 20.9825 32.3561 20.9544C32.3845 20.9264 32.4206 20.9074 32.4597 20.8997C32.4988 20.892 32.5394 20.8959 32.5763 20.911C32.6132 20.926 32.645 20.9516 32.6676 20.9845C32.6902 21.0174 32.7026 21.0562 32.7034 21.096Z" fill="#F7C600" stroke="black" stroke-width="0.4025"/>
<path fill-rule="evenodd" clip-rule="evenodd" d="M31.6613 22.7781L33.2563 22.7826C33.2563 22.7826 33.2813 22.5756 33.0898 22.4498C33.9253 22.3348 33.7082 21.5979 34.4079 21.5562C34.5438 21.577 34.0424 21.8695 34.0424 21.8695C34.0424 21.8695 33.6206 22.1672 33.8127 22.3185C33.9652 22.4387 34.032 22.2454 34.0528 22.0993C34.0737 21.953 34.7317 21.859 34.6377 21.4413C34.481 21.0967 33.562 21.6711 33.562 21.6711L32.9063 21.6674C32.8655 21.5938 32.6848 21.2988 32.4982 21.2974C32.2768 21.3054 32.1208 21.6711 32.1208 21.6711H30.6379C30.6379 21.6711 30.5871 22.0515 31.339 22.1247C31.5083 22.3458 31.6395 22.4075 31.7867 22.4647C31.6886 22.5465 31.6609 22.6455 31.6613 22.778V22.7781Z" fill="#F7C600" stroke="black" stroke-width="0.4025"/>
<path d="M31.1677 21.6704C31.1677 21.6704 31.2739 22.2918 31.7645 22.439L31.1677 21.6704Z" fill="black"/>
<path d="M31.7762 22.454L33.1047 22.4495M31.1677 21.6704C31.1677 21.6704 31.2739 22.2918 31.7645 22.439" stroke="black" stroke-width="0.4025"/>
<path fill-rule="evenodd" clip-rule="evenodd" d="M31.0857 21.6622C31.1348 21.4251 31.2247 21.3842 31.3228 21.0817C31.3392 20.7874 31.0857 20.82 31.1594 20.632C31.2902 20.4276 31.2247 20.2314 30.9795 20.076C31.0285 20.3458 30.6605 20.5992 30.6605 20.82C30.6605 21.0407 30.8487 20.9917 30.8241 21.327C30.8404 21.5232 30.775 21.4741 30.7588 21.6622H31.0857Z" fill="url(#paint8_linear_16699_279110)" stroke="black" stroke-width="0.4025"/>
<path fill-rule="evenodd" clip-rule="evenodd" d="M32.6869 20.1886C32.6875 20.2136 32.6831 20.2385 32.6739 20.2617C32.6647 20.2851 32.6509 20.3062 32.6334 20.3241C32.6159 20.3421 32.5951 20.3562 32.572 20.366C32.5489 20.3756 32.5241 20.3806 32.4991 20.3806C32.4741 20.3806 32.4493 20.3756 32.4263 20.3659C32.4032 20.3562 32.3823 20.3421 32.3647 20.3242C32.3472 20.3063 32.3334 20.2851 32.3242 20.2619C32.3129 20.2334 32.3087 20.2025 32.312 20.172C32.3154 20.1415 32.3261 20.1123 32.3434 20.0869C32.3606 20.0616 32.3838 20.0407 32.4109 20.0264C32.438 20.0121 32.4683 20.0046 32.4989 20.0046C32.5481 20.0046 32.5954 20.0237 32.6305 20.0581C32.6657 20.0926 32.6859 20.1394 32.6869 20.1886Z" fill="#F7C600" stroke="black" stroke-width="0.4025"/>
<path d="M31.5986 30.6058L32.6275 29.0948L33.6614 30.609" fill="black"/>
<path d="M31.5986 30.6058L32.6275 29.0948L33.6614 30.609" stroke="#F7C600" stroke-width="0.644"/>
<path fill-rule="evenodd" clip-rule="evenodd" d="M32.8338 30.0413C32.8343 30.0685 32.8295 30.0955 32.8194 30.1208C32.8094 30.1461 32.7945 30.1691 32.7755 30.1885C32.7565 30.2079 32.7337 30.2233 32.7087 30.2339C32.6836 30.2444 32.6568 30.2499 32.6296 30.2499C32.5891 30.2499 32.5494 30.2378 32.5157 30.2152C32.482 30.1926 32.4558 30.1604 32.4405 30.1228C32.4251 30.0853 32.4213 30.044 32.4295 30.0043C32.4376 29.9645 32.4575 29.9281 32.4865 29.8997C32.5149 29.8718 32.5509 29.8528 32.5901 29.845C32.6292 29.8373 32.6697 29.8412 32.7067 29.8563C32.7436 29.8713 32.7754 29.8969 32.798 29.9298C32.8206 29.9627 32.833 30.0014 32.8338 30.0413Z" fill="#F7C600" stroke="black" stroke-width="0.4025"/>
<path fill-rule="evenodd" clip-rule="evenodd" d="M31.7919 31.7222L33.3869 31.7267C33.3869 31.7267 33.4119 31.5197 33.2203 31.3939C34.0558 31.2791 33.8388 30.5421 34.5385 30.5003C34.6742 30.5212 34.173 30.8137 34.173 30.8137C34.173 30.8137 33.751 31.1113 33.9432 31.2627C34.0957 31.3829 34.1625 31.1897 34.1834 31.0434C34.2042 30.8972 34.8622 30.8032 34.7682 30.3855C34.6115 30.0408 33.6925 30.6152 33.6925 30.6152L33.0369 30.6116C32.996 30.538 32.8152 30.2429 32.6287 30.2416C32.4073 30.2497 32.2514 30.6152 32.2514 30.6152H30.7683C30.7683 30.6152 30.7175 30.9957 31.4694 31.0688C31.6386 31.2899 31.7699 31.3517 31.917 31.4089C31.819 31.4907 31.7913 31.5896 31.7917 31.7222H31.7919Z" fill="#F7C600" stroke="black" stroke-width="0.4025"/>
<path d="M31.2983 30.6154C31.2983 30.6154 31.4046 31.2367 31.8952 31.3839L31.2983 30.6154Z" fill="black"/>
<path d="M31.9065 31.398L33.2351 31.3935M31.2983 30.6154C31.2983 30.6154 31.4046 31.2367 31.8952 31.3839" stroke="black" stroke-width="0.4025"/>
<path fill-rule="evenodd" clip-rule="evenodd" d="M31.2161 30.6067C31.2652 30.3697 31.3551 30.3287 31.4533 30.0263C31.4696 29.732 31.2161 29.7647 31.2897 29.5766C31.4206 29.3722 31.3551 29.176 31.1098 29.0206C31.1589 29.2905 30.791 29.5439 30.791 29.7647C30.791 29.9854 30.979 29.9364 30.9544 30.2716C30.9708 30.4677 30.9054 30.4187 30.8891 30.6068H31.2161V30.6067Z" fill="url(#paint9_linear_16699_279110)" stroke="black" stroke-width="0.4025"/>
<path fill-rule="evenodd" clip-rule="evenodd" d="M32.8175 29.1337C32.8181 29.1587 32.8136 29.1837 32.8044 29.2069C32.7952 29.2302 32.7814 29.2514 32.7639 29.2692C32.7464 29.2872 32.7256 29.3014 32.7025 29.3111C32.6794 29.3208 32.6546 29.3258 32.6296 29.3257C32.6046 29.3258 32.5799 29.3208 32.5568 29.3111C32.5337 29.3014 32.5127 29.2872 32.4952 29.2694C32.4777 29.2515 32.4639 29.2303 32.4548 29.207C32.4411 29.1726 32.4379 29.1349 32.4456 29.0987C32.4533 29.0625 32.4715 29.0293 32.498 29.0035C32.5332 28.9692 32.5804 28.9499 32.6295 28.9498C32.6787 28.9498 32.7259 28.9691 32.7611 29.0034C32.7962 29.0378 32.8165 29.0846 32.8175 29.1337Z" fill="#F7C600" stroke="black" stroke-width="0.4025"/>
<path d="M31.5825 27.6136L32.6114 26.1024L33.6453 27.6168" fill="black"/>
<path d="M31.5825 27.6136L32.6114 26.1024L33.6453 27.6168" stroke="#F7C600" stroke-width="0.859"/>
<path fill-rule="evenodd" clip-rule="evenodd" d="M32.818 27.0481C32.818 27.075 32.8127 27.1015 32.8025 27.1263C32.7922 27.1511 32.7771 27.1736 32.7582 27.1926C32.7392 27.2116 32.7167 27.2267 32.6919 27.237C32.6671 27.2472 32.6406 27.2525 32.6137 27.2525C32.5869 27.2525 32.5603 27.2473 32.5356 27.237C32.5107 27.2268 32.4882 27.2117 32.4692 27.1927C32.4502 27.1738 32.4351 27.1513 32.4249 27.1265C32.4146 27.1017 32.4093 27.0751 32.4093 27.0483C32.4093 26.9941 32.4308 26.9421 32.4691 26.9038C32.5074 26.8655 32.5594 26.8439 32.6136 26.8439C32.6677 26.8439 32.7197 26.8654 32.7581 26.9036C32.7964 26.942 32.818 26.994 32.818 27.0481Z" fill="#F7C600" stroke="black" stroke-width="0.4025"/>
<path fill-rule="evenodd" clip-rule="evenodd" d="M31.7759 28.73L33.371 28.7346C33.371 28.7346 33.396 28.5275 33.2043 28.4017C34.0398 28.2868 33.8228 27.5499 34.5226 27.5082C34.6583 27.529 34.157 27.8215 34.157 27.8215C34.157 27.8215 33.7352 28.1192 33.9272 28.2705C34.0797 28.3907 34.1466 28.1974 34.1675 28.0512C34.1883 27.905 34.8463 27.811 34.7523 27.3932C34.5957 27.0487 33.6767 27.623 33.6767 27.623L33.021 27.6193C32.9802 27.5457 32.7993 27.2507 32.6128 27.2493C32.3914 27.2574 32.2355 27.623 32.2355 27.623H30.7525C30.7525 27.623 30.7017 28.0035 31.4536 28.0766C31.6229 28.2977 31.7542 28.3595 31.9013 28.4167C31.8032 28.4984 31.7755 28.5974 31.776 28.7301L31.7759 28.73Z" fill="#F7C600" stroke="black" stroke-width="0.4025"/>
<path d="M31.2822 27.6225C31.2822 27.6225 31.3886 28.2438 31.8791 28.391L31.2822 27.6225Z" fill="black"/>
<path d="M31.8908 28.4061L33.2193 28.4015M31.2822 27.6225C31.2822 27.6225 31.3886 28.2438 31.8791 28.391" stroke="black" stroke-width="0.4025"/>
<path fill-rule="evenodd" clip-rule="evenodd" d="M31.2003 27.614C31.2493 27.377 31.3393 27.3361 31.4373 27.0336C31.4538 26.7394 31.2003 26.772 31.2739 26.584C31.4048 26.3795 31.3393 26.1834 31.0941 26.028C31.1431 26.2977 30.7751 26.5512 30.7751 26.772C30.7751 26.9927 30.9633 26.9437 30.9387 27.279C30.955 27.4751 30.8896 27.426 30.8733 27.614H31.2003Z" fill="url(#paint10_linear_16699_279110)" stroke="black" stroke-width="0.4025"/>
<path fill-rule="evenodd" clip-rule="evenodd" d="M32.8016 26.1407C32.8016 26.1905 32.7818 26.2383 32.7466 26.2736C32.7203 26.2999 32.6868 26.3177 32.6504 26.325C32.6139 26.3323 32.5762 26.3285 32.5417 26.3145C32.5189 26.305 32.4982 26.2912 32.4807 26.2738C32.4632 26.2563 32.4494 26.2356 32.4399 26.2128C32.4293 26.187 32.4245 26.1594 32.4258 26.1316C32.4271 26.1039 32.4346 26.0767 32.4477 26.0522C32.4609 26.0277 32.4792 26.0064 32.5016 25.9898C32.5239 25.9732 32.5496 25.9618 32.5768 25.9564C32.6041 25.951 32.6322 25.9516 32.6592 25.9584C32.6862 25.9651 32.7113 25.9778 32.7328 25.9954C32.7543 26.013 32.7717 26.0352 32.7835 26.0603C32.7954 26.0855 32.8016 26.1129 32.8016 26.1407Z" fill="#F7C600" stroke="black" stroke-width="0.4025"/>
<path d="M22.8898 24.8325L23.9187 23.3213L24.9526 24.8356" fill="black"/>
<path d="M22.8898 24.8325L23.9187 23.3213L24.9526 24.8356" stroke="#F7C600" stroke-width="0.859"/>
<path fill-rule="evenodd" clip-rule="evenodd" d="M24.1253 24.2669C24.1253 24.2937 24.12 24.3203 24.1098 24.345C24.0995 24.3699 24.0845 24.3924 24.0655 24.4114C24.0466 24.4304 24.024 24.4455 23.9993 24.4557C23.9744 24.466 23.9479 24.4713 23.9211 24.4713C23.8943 24.4713 23.8677 24.466 23.8428 24.4558C23.8181 24.4455 23.7955 24.4305 23.7765 24.4115C23.7576 24.3925 23.7425 24.37 23.7323 24.3452C23.7219 24.3205 23.7167 24.2939 23.7167 24.267C23.7166 24.2129 23.7381 24.1609 23.7764 24.1225C23.8148 24.0842 23.8667 24.0626 23.9209 24.0626C23.9751 24.0626 24.0271 24.0841 24.0654 24.1224C24.1038 24.1607 24.1253 24.2127 24.1253 24.2669Z" fill="#F7C600" stroke="black" stroke-width="0.4025"/>
<path fill-rule="evenodd" clip-rule="evenodd" d="M23.0832 25.9488L24.6783 25.9533C24.6783 25.9533 24.7033 25.7463 24.5117 25.6205C25.3472 25.5056 25.1301 24.7686 25.8299 24.7269C25.9656 24.7477 25.4643 25.0402 25.4643 25.0402C25.4643 25.0402 25.0425 25.3379 25.2346 25.4892C25.3871 25.6094 25.4539 25.4161 25.4748 25.27C25.4956 25.1237 26.1536 25.0297 26.0596 24.6121C25.903 24.2674 24.984 24.8418 24.984 24.8418L24.3283 24.8381C24.2875 24.7646 24.1066 24.4695 23.9201 24.4681C23.6987 24.4761 23.5428 24.8418 23.5428 24.8418H22.0598C22.0598 24.8418 22.009 25.2222 22.7609 25.2954C22.9302 25.5165 23.0615 25.5782 23.2086 25.6354C23.1105 25.7172 23.0828 25.8162 23.0833 25.9487L23.0832 25.9488Z" fill="#F7C600" stroke="black" stroke-width="0.4025"/>
<path d="M22.5895 24.8412C22.5895 24.8412 22.6958 25.4627 23.1864 25.6098L22.5895 24.8412Z" fill="black"/>
<path d="M23.198 25.6248L24.5266 25.6203M22.5895 24.8412C22.5895 24.8412 22.6958 25.4627 23.1864 25.6098" stroke="black" stroke-width="0.4025"/>
<path fill-rule="evenodd" clip-rule="evenodd" d="M22.5075 24.8328C22.5566 24.5958 22.6465 24.5549 22.7446 24.2524C22.761 23.9582 22.5075 23.9908 22.5811 23.8028C22.7119 23.5983 22.6465 23.4022 22.4013 23.2468C22.4503 23.5165 22.0823 23.77 22.0823 23.9908C22.0823 24.2115 22.2704 24.1625 22.2458 24.4978C22.2622 24.6939 22.1968 24.6448 22.1805 24.8328H22.5075Z" fill="url(#paint11_linear_16699_279110)" stroke="black" stroke-width="0.4025"/>
<path fill-rule="evenodd" clip-rule="evenodd" d="M24.1089 23.3595C24.1088 23.4093 24.0891 23.457 24.0539 23.4924C24.0276 23.5186 23.9941 23.5365 23.9577 23.5437C23.9212 23.551 23.8834 23.5473 23.8491 23.5332C23.803 23.5141 23.7664 23.4775 23.7472 23.4315C23.7366 23.4058 23.7317 23.3781 23.7332 23.3504C23.7345 23.3226 23.742 23.2955 23.7551 23.271C23.7682 23.2465 23.7866 23.2251 23.8088 23.2085C23.8312 23.192 23.8569 23.1805 23.8842 23.1751C23.9114 23.1697 23.9396 23.1704 23.9665 23.1771C23.9935 23.1839 24.0186 23.1965 24.0401 23.2141C24.0616 23.2318 24.0789 23.254 24.0908 23.279C24.1027 23.3042 24.1089 23.3316 24.1089 23.3595ZM28.3951 32.0146C28.3951 32.0146 28.8113 32.9743 29.2854 32.3846C29.7595 31.795 29.5861 31.5405 29.5861 31.5405L28.5223 30.9625L28.2101 31.6215L28.3951 32.0146Z" fill="#F7C600" stroke="black" stroke-width="0.4025"/>
<path fill-rule="evenodd" clip-rule="evenodd" d="M29.3087 31.8877C29.3087 31.8877 29.3781 31.8993 29.4358 31.7952C29.4936 31.6911 29.3087 31.6449 29.2277 31.5293L29.1352 31.7143L29.3087 31.8877ZM26.9027 31.6331L25.9662 32.1419C25.9662 32.1419 25.5037 32.2344 25.469 32.1419C25.4343 32.0494 25.4806 31.9685 25.7233 31.9569C25.9662 31.9453 26.6252 31.3441 26.6252 31.3441L26.9027 31.6331ZM26.9149 14.9945C26.9149 14.9945 26.938 15.2141 26.9496 15.3297C26.9612 15.4453 26.7646 15.6882 26.753 15.6766C26.7414 15.6651 26.6489 15.6882 26.6605 15.7576C26.6721 15.8269 26.8108 15.8501 26.8108 15.8501C26.8108 15.8501 26.753 16.0929 26.8108 16.1045C26.8687 16.1161 26.6605 16.4166 26.8108 16.4976C26.9612 16.5785 27.2155 16.6826 27.3312 16.6595C27.4467 16.6363 27.3312 17.1104 27.3312 17.1104L27.0074 17.8041L28.788 17.6191L28.418 17.0295C28.418 17.0295 28.2445 16.9138 28.2907 16.5785C28.337 16.2432 28.2677 14.7285 28.2677 14.7285L26.9958 14.5551L26.9148 14.9945H26.9149ZM26.5908 17.6307C26.5908 17.6307 26.0127 17.8966 26.0358 18.6136C25.8856 19.3073 25.8046 20.0011 25.8046 20.0011C25.8046 20.0011 25.1224 20.7756 24.9143 21.0532C24.7062 21.3307 24.394 21.8972 24.2783 22.0476C24.1627 22.1979 23.7117 22.6951 23.7233 22.8801C23.7349 23.0651 23.6192 23.8861 24.0702 23.9785C24.1858 24.0247 24.5558 23.0304 24.5558 23.0304C24.5558 23.0304 24.579 22.6026 24.4518 22.5216C24.3247 22.4407 24.7293 22.1632 24.7293 22.1632C24.7293 22.1632 25.504 21.5966 25.6774 21.4579C25.8508 21.3192 26.3249 20.7872 26.3249 20.7872L26.5908 17.6306V17.6307Z" fill="#FFC6B5" stroke="black" stroke-width="0.4025"/>
<path fill-rule="evenodd" clip-rule="evenodd" d="M27.2501 17.0874C27.2501 17.0874 27.4004 17.4921 27.7357 17.4226C28.071 17.3533 28.4642 17.0411 28.4642 17.0411C28.4642 17.0411 28.7763 17.0296 28.8226 17.0758C28.8688 17.1221 29.6667 17.8966 29.6436 18.1396C29.6204 18.3824 29.2736 18.3129 29.1463 18.4748C29.0191 18.6367 28.811 19.0415 28.8688 19.3421C28.9267 19.6426 29.1001 20.0358 29.077 20.1861C29.0539 20.3365 28.9267 20.3826 28.9267 20.4636C28.9267 20.5445 29.0307 20.6833 29.0307 20.8336C29.0307 20.984 28.892 21.2036 28.9151 21.3539C28.9382 21.5042 28.9498 21.9436 28.9498 21.9436L28.9151 23.9786C28.9151 23.9786 29.0307 24.0481 29.0423 24.1636C29.0538 24.2793 29.8286 27.6439 29.8286 27.6439C29.8286 27.6439 29.7938 27.7481 29.7129 27.7364C29.632 27.7247 30.0251 28.2567 30.0367 28.4071C30.0482 28.5574 30.4413 29.7368 30.4298 29.8987C30.4182 30.0606 30.3604 30.419 30.3257 30.4306C30.2911 30.4421 30.5801 31.1706 30.5338 31.2861C30.4876 31.4018 30.0136 31.3903 30.0136 31.3903L29.8863 31.3671C29.8863 31.3671 29.898 31.5174 29.8055 31.529C29.713 31.5406 29.0307 31.4943 29.0307 31.4943C29.0307 31.4943 28.8342 31.7949 28.7186 31.7834C28.6029 31.7717 28.4526 31.5636 28.4179 31.5984C28.3832 31.6331 28.522 31.8296 28.4872 31.8874C28.4526 31.9452 27.8629 32.0724 27.7472 31.7949C27.6317 31.5174 27.8167 31.5868 27.782 31.5291C27.7472 31.4711 27.4813 31.3209 27.4004 31.3671C27.3195 31.4134 27.6085 31.4827 27.597 31.5984C27.5854 31.714 27.3426 31.8874 27.2501 31.8874C27.1576 31.8874 26.9379 31.4596 26.6142 31.5059C26.2904 31.5521 26.0822 31.6331 26.0822 31.6331C26.0822 31.6331 25.7007 31.7949 25.5388 31.7602C25.377 31.7256 25.3076 31.5984 25.3076 31.529C25.3076 31.4596 25.4232 31.159 25.4117 31.0665C25.4001 30.974 25.3076 30.8815 25.3076 30.7427C25.3076 30.604 25.5735 30.1299 25.5735 30.1299L25.562 28.0024C25.562 28.0024 25.3192 28.0024 25.3076 27.8521C25.296 27.7017 25.6776 24.4874 25.7354 24.2792C25.7932 24.0711 25.9435 23.3311 25.9435 23.3311C25.9435 23.3311 25.7702 23.4121 25.7585 23.3311C25.7468 23.2501 26.2788 21.4117 26.2788 21.4117C26.2788 21.4117 26.3713 20.4983 26.3713 20.2555C26.3713 20.0127 26.3251 19.6774 26.3251 19.6774C26.3251 19.6774 25.8504 19.4764 25.8395 19.1686C25.7961 18.6789 26.2903 18.4055 26.3482 18.2436L26.5795 17.5961C26.5795 17.5961 26.8338 17.1567 27.2501 17.0874Z" fill="white" stroke="black" stroke-width="0.4025"/>
<path fill-rule="evenodd" clip-rule="evenodd" d="M27.0769 31.7721C27.0769 31.7721 25.9554 32.3618 25.7935 32.4081C25.6316 32.4543 25.5275 32.2115 25.6894 32.1652C25.8513 32.119 26.1057 32.0958 26.1057 32.0958C26.1057 32.0958 25.7241 31.7952 25.7357 31.7837C25.7472 31.7721 26.256 31.5872 26.2676 31.5872C26.2792 31.5872 26.4294 31.8877 26.5334 31.8647C26.6374 31.8416 26.9382 31.6102 26.9382 31.6102C26.9382 31.6102 27.1001 31.7952 27.0769 31.7721Z" fill="#F7C600" stroke="black" stroke-width="0.4025"/>
<path fill-rule="evenodd" clip-rule="evenodd" d="M28.6574 32.0951C28.7635 32.2317 28.8049 32.469 29.0477 32.3302C29.2906 32.1915 28.9233 31.934 28.9233 31.934L28.6574 32.0951ZM29.1005 32.0719C29.1005 32.0719 29.2161 32.1644 29.3202 32.0603C29.4242 31.9562 29.112 31.7366 29.112 31.7366L28.9617 31.91L29.1005 32.0719Z" fill="#FFC6B5" stroke="black" stroke-width="0.4025"/>
<path d="M28.7534 17.5382C28.7534 17.5382 27.7242 18.1973 27.7474 18.4286L28.7534 17.5382ZM28.9848 17.6538C28.9848 17.6538 28.7535 17.9082 28.742 17.9082L28.9848 17.6538ZM29.2967 17.9314C29.2967 17.9314 28.788 18.3476 28.8689 18.6136L29.2967 17.9314ZM26.8919 17.4805C26.8919 17.4805 26.7416 17.7926 26.7762 17.8967C26.811 18.0008 27.0654 18.3939 27.1 18.6367C27.1347 18.8796 27.1 19.053 27.1 19.053M26.6263 18.0586C26.6263 18.0586 26.6725 18.4286 26.7419 18.4979C26.8113 18.5673 26.9963 18.8796 27.0194 19.0066M26.5337 19.5963C26.5337 19.5963 26.8343 19.7466 27.1118 19.1685L26.5337 19.5963ZM27.562 18.7639C27.5504 18.7639 27.3423 19.3305 27.7123 19.5386C28.0823 19.7466 28.3598 19.7236 28.5216 19.6658C28.6836 19.608 28.857 19.5039 28.857 19.5039M27.401 19.4576C27.401 19.4576 27.4241 20.2208 28.5457 20.9724L27.401 19.4576ZM27.4473 20.1745C27.4473 20.1745 27.4358 20.8451 27.8751 21.1457L27.4473 20.1745ZM27.2159 19.3882C27.2159 19.3882 26.8806 20.3826 26.6146 20.4867L27.2159 19.3882ZM27.1112 20.1167C27.1112 20.1167 27.0996 20.8336 27.0071 21.088L27.1112 20.1167ZM26.915 21.2614C26.915 21.2614 27.1463 21.5505 27.4006 21.5273C27.6551 21.5042 27.7591 21.2036 27.9326 21.2498C28.1059 21.2961 28.2678 21.4348 28.6726 21.4001M28.0942 21.7007C28.0942 21.7007 28.0942 22.2904 28.1984 22.3482C28.3026 22.4061 28.2561 22.9495 28.2561 22.9495M26.6836 21.4233C26.6836 21.4233 26.672 21.9783 26.6026 22.1749C26.5333 22.3714 26.3945 22.7067 26.4176 22.9958M25.9782 23.32C26.0361 23.2968 26.2326 23.1234 26.2326 23.1234L25.9782 23.32ZM26.3364 23.2505C26.3364 23.2505 25.8392 25.378 25.978 26.6499L26.3364 23.2505ZM26.4521 23.3541C26.4521 23.3541 26.1977 24.9497 26.3134 25.2504L26.4521 23.3541ZM26.3254 23.3078C26.337 23.3078 27.2966 23.3772 27.2966 23.3772L26.3254 23.3078ZM27.4352 23.2505C27.4352 23.2505 27.7011 23.3893 28.0711 23.3661L27.4352 23.2505ZM27.3195 24.0253C27.3195 24.0253 27.2732 26.7541 27.2039 27.3553L27.3195 24.0253ZM28.7423 24.6491C28.7423 24.6491 29.043 27.0426 29.2165 27.2622L28.7423 24.6491ZM28.1637 24.95C28.1637 24.95 28.3487 27.066 28.4528 27.251L28.1637 24.95ZM25.5396 27.9907C25.5396 27.9907 25.898 27.8751 26.2217 27.5282C26.5917 28.0254 27.1584 27.5514 27.1584 27.5514C27.1584 27.5514 28.037 28.1526 28.4301 27.482C29.0314 27.8751 29.332 27.4241 29.332 27.4241C29.332 27.4241 29.5517 27.7595 29.7136 27.7248M28.7534 27.9566C28.7534 27.9566 29.2042 30.0725 29.8749 30.6737L28.7534 27.9566ZM26.429 27.7361C26.429 27.7361 26.4868 29.5053 26.5909 30.754L26.429 27.7361ZM26.3486 29.7365C26.3486 29.7365 26.2907 30.8927 26.2213 30.9737L26.3486 29.7365ZM25.6663 31.0899C25.6663 31.0899 25.7935 31.5871 26.4295 31.1246C27.0654 30.6621 27.077 31.2981 27.1 31.3674C27.1232 31.4367 27.2273 31.934 27.47 31.5177M27.9786 30.8353C27.9786 30.8353 27.8745 31.8643 28.788 31.1128C29.7014 30.3612 29.8517 31.1012 29.8748 31.3325" fill="black"/>
<path d="M28.7534 17.5382C28.7534 17.5382 27.7242 18.1973 27.7474 18.4286M28.9848 17.6538C28.9848 17.6538 28.7535 17.9082 28.742 17.9082M29.2967 17.9314C29.2967 17.9314 28.788 18.3476 28.8689 18.6136M26.8919 17.4805C26.8919 17.4805 26.7416 17.7926 26.7762 17.8967C26.811 18.0008 27.0654 18.3939 27.1 18.6367C27.1347 18.8796 27.1 19.053 27.1 19.053M26.6263 18.0586C26.6263 18.0586 26.6725 18.4286 26.7419 18.4979C26.8113 18.5673 26.9963 18.8796 27.0194 19.0066M26.5337 19.5963C26.5337 19.5963 26.8343 19.7466 27.1118 19.1685M27.562 18.7639C27.5504 18.7639 27.3423 19.3305 27.7123 19.5386C28.0823 19.7466 28.3598 19.7236 28.5216 19.6658C28.6836 19.608 28.857 19.5039 28.857 19.5039M27.401 19.4576C27.401 19.4576 27.4241 20.2208 28.5457 20.9724M27.4473 20.1745C27.4473 20.1745 27.4358 20.8451 27.8751 21.1457M27.2159 19.3882C27.2159 19.3882 26.8806 20.3826 26.6146 20.4867M27.1112 20.1167C27.1112 20.1167 27.0996 20.8336 27.0071 21.088M26.915 21.2614C26.915 21.2614 27.1463 21.5505 27.4006 21.5273C27.6551 21.5042 27.7591 21.2036 27.9326 21.2498C28.1059 21.2961 28.2678 21.4348 28.6726 21.4001M28.0942 21.7007C28.0942 21.7007 28.0942 22.2904 28.1984 22.3482C28.3026 22.4061 28.2561 22.9495 28.2561 22.9495M26.6836 21.4233C26.6836 21.4233 26.672 21.9783 26.6026 22.1749C26.5333 22.3714 26.3945 22.7067 26.4176 22.9958M25.9782 23.32C26.0361 23.2968 26.2326 23.1234 26.2326 23.1234M26.3364 23.2505C26.3364 23.2505 25.8392 25.378 25.978 26.6499M26.4521 23.3541C26.4521 23.3541 26.1977 24.9497 26.3134 25.2504M26.3254 23.3078C26.337 23.3078 27.2966 23.3772 27.2966 23.3772M27.4352 23.2505C27.4352 23.2505 27.7011 23.3893 28.0711 23.3661M27.3195 24.0253C27.3195 24.0253 27.2732 26.7541 27.2039 27.3553M28.7423 24.6491C28.7423 24.6491 29.043 27.0426 29.2165 27.2622M28.1637 24.95C28.1637 24.95 28.3487 27.066 28.4528 27.251M25.5396 27.9907C25.5396 27.9907 25.898 27.8751 26.2217 27.5282C26.5917 28.0254 27.1584 27.5514 27.1584 27.5514C27.1584 27.5514 28.037 28.1526 28.4301 27.482C29.0314 27.8751 29.332 27.4241 29.332 27.4241C29.332 27.4241 29.5517 27.7595 29.7136 27.7248M28.7534 27.9566C28.7534 27.9566 29.2042 30.0725 29.8749 30.6737M26.429 27.7361C26.429 27.7361 26.4868 29.5053 26.5909 30.754M26.3486 29.7365C26.3486 29.7365 26.2907 30.8927 26.2213 30.9737M25.6663 31.0899C25.6663 31.0899 25.7935 31.5871 26.4295 31.1246C27.0654 30.6621 27.077 31.2981 27.1 31.3674C27.1232 31.4367 27.2273 31.934 27.47 31.5177M27.9786 30.8353C27.9786 30.8353 27.8745 31.8643 28.788 31.1128C29.7014 30.3612 29.8517 31.1012 29.8748 31.3325" stroke="black" stroke-width="0.4025"/>
<path fill-rule="evenodd" clip-rule="evenodd" d="M26.8797 14.925C26.8797 14.925 27.1341 14.9597 27.2728 14.8788C27.4116 14.7978 27.5735 14.7631 27.6891 14.925C27.8047 15.087 27.8857 15.0753 27.8857 15.0753C27.8857 15.0753 27.7122 15.5031 27.8857 15.5494C28.0591 15.5956 28.14 15.5956 28.1516 15.6535C28.1632 15.7113 28.0013 15.8385 28.0475 15.8962C28.0938 15.954 28.1748 16.0235 28.1863 16.0697C28.1978 16.116 28.0823 16.3125 28.1169 16.3588C28.1516 16.405 28.2557 16.59 28.325 16.59C28.3944 16.59 28.3482 16.879 28.5563 16.8097C28.7643 16.7404 28.7529 16.5553 28.7529 16.5553C28.7529 16.5553 28.9725 16.5206 29.0304 16.324C29.0882 16.1275 29.2269 16.0813 29.2269 16.0813C29.2269 16.0813 29.5044 15.931 29.1344 15.6996C29.1344 14.0809 28.0707 14.2544 28.0707 14.2544C28.0707 14.2544 27.9434 13.9653 27.7353 14C27.5272 14.0347 27.5157 14.2775 27.3653 14.2544C27.215 14.2312 27.1803 14.1272 27.1688 14.1388C27.1572 14.1503 27.03 14.3815 27.03 14.4394C27.03 14.4972 26.6253 14.3585 26.66 14.659C26.6947 14.9596 26.8913 14.948 26.8797 14.925Z" fill="#9C5100" stroke="black" stroke-width="0.4025"/>
<path d="M27.9907 14.532C27.9907 14.532 27.9097 15.0407 28.4532 14.9945C28.3837 15.272 28.5919 15.3645 28.5919 15.3645M28.9958 15.6766C29.0073 15.6766 29.2386 15.827 28.9842 16.012L28.9958 15.6766ZM28.21 16.0813C28.21 16.0813 28.3256 16.2201 28.4528 16.1855C28.5799 16.1507 28.7881 16.3126 28.7881 16.3126C28.7881 16.3126 28.9615 16.3704 28.9847 16.3357M27.5046 16.5207C27.5046 16.5207 27.8978 16.6711 28.1521 16.0467L27.5046 16.5207Z" fill="black"/>
<path d="M27.9907 14.532C27.9907 14.532 27.9097 15.0407 28.4532 14.9945C28.3837 15.272 28.5919 15.3645 28.5919 15.3645M28.9958 15.6766C29.0073 15.6766 29.2386 15.827 28.9842 16.012M28.21 16.0813C28.21 16.0813 28.3256 16.2201 28.4528 16.1855C28.5799 16.1507 28.7881 16.3126 28.7881 16.3126C28.7881 16.3126 28.9615 16.3704 28.9847 16.3357M27.5046 16.5207C27.5046 16.5207 27.8978 16.6711 28.1521 16.0467M26.776 15.8617L27.0073 15.8732" stroke="black" stroke-width="0.4025"/>
<path d="M26.8113 16.0928H27.0194L26.8344 16.1738" fill="black"/>
<path d="M26.8113 16.0928H27.0194L26.8344 16.1738" stroke="black" stroke-width="0.4025" stroke-linejoin="round"/>
<path d="M27.1001 15.4453C27.1348 15.4453 27.262 15.3991 27.2851 15.4338C27.3083 15.4685 27.1463 15.4916 27.1001 15.4453Z" fill="black" stroke="black" stroke-width="0.725" stroke-linejoin="round"/>
<path fill-rule="evenodd" clip-rule="evenodd" d="M29.5975 18.1926C29.6091 18.1926 29.9792 19.3373 30.0253 19.6264C30.0716 19.9155 30.2219 21.0717 30.1641 21.2336C30.1063 21.3955 29.5166 22.1701 29.4472 22.3667C29.3778 22.5632 28.9616 23.3148 28.9616 23.3148C28.9616 23.3148 28.8575 24.0548 28.8113 24.0895C28.765 24.1242 28.9307 24.3059 28.9153 24.367C28.8924 24.4359 28.58 24.7601 28.4413 24.7255C28.3025 24.6908 28.0828 24.5289 28.0713 24.3785C28.0597 24.2282 28.0828 23.731 28.1869 23.6039C28.291 23.4767 28.8344 22.1933 28.8691 22.1122C28.9038 22.0314 29.3663 21.0254 29.3778 20.852C29.3894 20.6785 29.2339 20.2775 29.0704 20.1304C28.7065 19.0593 28.8496 18.4134 29.5975 18.1926Z" fill="#FFC6B5" stroke="black" stroke-width="0.4025"/>
<path d="M23.7355 23.1161C23.7355 23.1161 24.0603 23.6594 24.0332 23.9489L23.7355 23.1161Z" fill="black"/>
<path d="M24.2102 23.1536L24.2284 23.6603M23.7355 23.1161C23.7355 23.1161 24.0603 23.6594 24.0332 23.9489" stroke="black" stroke-width="0.4025"/>
<path d="M28.0898 24.2512C28.0898 24.2512 28.3328 24.2257 28.3251 24.6312C28.4802 24.1275 28.7956 24.1155 28.7956 24.1155" fill="black"/>
<path d="M28.0898 24.2512C28.0898 24.2512 28.3328 24.2257 28.3251 24.6312C28.4802 24.1275 28.7956 24.1155 28.7956 24.1155" stroke="black" stroke-width="0.4025" stroke-linejoin="round"/>
<path fill-rule="evenodd" clip-rule="evenodd" d="M27.2599 35.8291C32.143 35.6934 35.2968 32.1666 35.2629 32.1327C35.2289 32.0988 35.9072 31.1494 36.4498 31.285C36.9923 31.4206 37.7723 33.0144 38.7218 33.3535C39.1965 34.0996 38.5862 34.7778 38.3827 34.9135C38.1792 35.0491 37.2636 35.4221 37.1279 34.8796C36.9924 34.337 36.721 34.4387 36.721 34.4387C36.721 34.4387 32.3804 38.6776 27.3619 38.5081C22.1738 38.5422 17.901 34.4389 17.901 34.4389L17.5279 34.8458C17.5279 34.8458 17.121 35.2866 16.9176 35.2527C16.7141 35.2188 15.8324 34.6423 15.7645 34.0658C15.6968 33.4893 16.3071 33.1163 16.3071 33.1163C16.3071 33.1163 17.7993 31.9633 17.9688 31.353C18.3079 31.0138 18.9521 31.5903 18.9521 31.5903C18.9521 31.5903 22.8859 36.1006 27.2604 35.8293L27.2599 35.8291Z" fill="#F7C600" stroke="black" stroke-width="0.8585"/>
<path d="M16.2054 33.2063C16.2054 33.2063 16.6089 33.0988 16.7569 33.2669C16.9049 33.435 17.9204 34.4303 17.9204 34.4303" fill="black"/>
<path d="M16.2054 33.2063C16.2054 33.2063 16.6089 33.0988 16.7569 33.2669C16.9049 33.435 17.9204 34.4303 17.9204 34.4303" stroke="black" stroke-width="0.8585"/>
<path d="M17.1267 33.6768L16.7231 33.9795C16.7231 33.9795 17.7386 34.1811 17.51 34.847M38.3581 33.1721C38.3581 33.1721 38.1564 33.0645 37.8403 33.2999C37.5242 33.5353 36.7239 34.4297 36.7239 34.4297" fill="black"/>
<path d="M17.1267 33.6768L16.7231 33.9795C16.7231 33.9795 17.7386 34.1811 17.51 34.847M38.3581 33.1721C38.3581 33.1721 38.1564 33.0645 37.8403 33.2999C37.5242 33.5353 36.7239 34.4297 36.7239 34.4297" stroke="black" stroke-width="0.8585"/>
<path d="M37.4504 33.6503L37.8875 33.9866C37.8875 33.9866 36.9729 34.0471 37.1747 34.9147" fill="black"/>
<path d="M37.4504 33.6503L37.8875 33.9866C37.8875 33.9866 36.9729 34.0471 37.1747 34.9147" stroke="black" stroke-width="0.8585"/>
<path d="M21.3745 34.2825L21.3452 34.3237C21.2838 34.2934 21.2138 34.2878 21.1352 34.3068C21.0776 34.3217 20.9689 34.376 20.8092 34.4693L19.4655 35.2526L19.4288 35.2265L19.7673 33.6556C19.8082 33.4663 19.8268 33.3513 19.8233 33.3106C19.8206 33.2706 19.7922 33.2262 19.7383 33.1777L19.7677 33.1365L20.492 33.6531L20.4626 33.6943L20.4381 33.6768C20.3727 33.6301 20.3223 33.6066 20.2868 33.606C20.2618 33.6049 20.2417 33.6151 20.2262 33.6367C20.2167 33.6501 20.2083 33.6681 20.201 33.6909C20.1943 33.7131 20.1796 33.776 20.1571 33.8799L19.9428 34.8617L20.719 34.405C20.8123 34.3494 20.8729 34.3108 20.9007 34.2891C20.9285 34.2675 20.9493 34.2471 20.9631 34.2277C20.9789 34.2054 20.987 34.1815 20.9873 34.1559C20.9876 34.1304 20.9794 34.1049 20.9627 34.0796C20.9398 34.0441 20.902 34.0076 20.8492 33.9701L20.8787 33.9288L21.3745 34.2825ZM21.857 36.6173L21.8328 36.6617L20.9813 36.1961L21.0057 36.1517L21.0597 36.1812C21.1069 36.2071 21.1496 36.2195 21.1876 36.2184C21.2145 36.2186 21.241 36.2081 21.2672 36.1871C21.2864 36.1726 21.3184 36.1246 21.3631 36.0429L21.9489 34.9718C21.9944 34.8886 22.0184 34.8341 22.021 34.8085C22.0236 34.7829 22.0154 34.755 21.9966 34.7249C21.9789 34.6945 21.9472 34.6667 21.9016 34.6418L21.8476 34.6122L21.8718 34.5678L22.7232 35.0334L22.6989 35.0778L22.6449 35.0483C22.5977 35.0225 22.5551 35.01 22.5171 35.0111C22.4901 35.0109 22.4632 35.0211 22.4362 35.0418C22.417 35.0562 22.385 35.1043 22.3404 35.1859L21.7546 36.2571C21.709 36.3403 21.685 36.3947 21.6824 36.4204C21.6806 36.4465 21.6886 36.4747 21.7063 36.5051C21.7251 36.5353 21.7574 36.5628 21.803 36.5877L21.8571 36.6173M24.9673 35.8878L24.7478 36.5041L24.7002 36.4871C24.7026 36.2981 24.6618 36.1392 24.5778 36.0106C24.4938 35.8819 24.3836 35.7931 24.2469 35.7445C24.1163 35.698 23.9944 35.6961 23.8813 35.7392C23.7683 35.7813 23.6704 35.8617 23.5875 35.9804C23.5044 36.0994 23.4377 36.2291 23.3892 36.366C23.3295 36.5335 23.2969 36.6876 23.2914 36.828C23.2859 36.9683 23.3165 37.084 23.3831 37.1745C23.4505 37.2653 23.5448 37.3323 23.666 37.3755C23.7093 37.3907 23.754 37.4018 23.7995 37.4086C23.8476 37.415 23.8978 37.4179 23.9503 37.4172L24.0799 37.0536C24.1044 36.9849 24.1154 36.9389 24.113 36.9158C24.1109 36.8918 24.0978 36.8663 24.0734 36.8392C24.0501 36.8126 24.0172 36.7916 23.9752 36.7766L23.93 36.7606L23.947 36.7128L24.7967 37.0155L24.7797 37.0631C24.7137 37.0445 24.6653 37.0375 24.6347 37.0421C24.6052 37.0461 24.578 37.0611 24.5533 37.0871C24.5397 37.1007 24.5216 37.1393 24.4989 37.2029L24.3694 37.5665C24.2399 37.5765 24.1102 37.5724 23.9801 37.5542C23.8475 37.5363 23.7171 37.5045 23.5911 37.4592C23.4252 37.4001 23.2952 37.3286 23.2011 37.2448C23.1109 37.1638 23.0344 37.0688 22.9744 36.9636C22.9173 36.8599 22.8816 36.7537 22.867 36.6449C22.8491 36.5049 22.8663 36.3613 22.9187 36.2143C23.0124 35.9513 23.1839 35.7621 23.4333 35.6465C23.6828 35.531 23.9475 35.5231 24.2277 35.6229C24.3146 35.6538 24.3902 35.6886 24.4551 35.7271C24.4904 35.7475 24.5444 35.789 24.617 35.8516C24.6907 35.9137 24.7353 35.9475 24.7508 35.9531C24.775 35.9616 24.8003 35.961 24.8271 35.9511C24.8542 35.9405 24.885 35.9136 24.9196 35.8708L24.9673 35.8878ZM26.2777 37.991L26.2702 38.0411L25.3107 37.8957L25.3182 37.8457L25.3792 37.8549C25.4323 37.863 25.4767 37.8599 25.512 37.846C25.5373 37.8368 25.5587 37.818 25.576 37.7891C25.5892 37.7691 25.6027 37.713 25.6167 37.6209L25.7995 36.4138C25.8137 36.3201 25.8177 36.2606 25.8113 36.2356C25.8049 36.2106 25.7877 36.1873 25.7597 36.1656C25.7326 36.1431 25.6933 36.1278 25.6419 36.1201L25.5811 36.1109L25.5886 36.0607L26.5481 36.2061L26.5405 36.2561L26.4796 36.247C26.4263 36.2389 26.3821 36.2418 26.3468 36.2559C26.3213 36.265 26.2996 36.2838 26.2814 36.3124C26.2682 36.3326 26.2546 36.3886 26.2407 36.4807L26.0578 37.6877C26.0437 37.7816 26.0397 37.841 26.0461 37.8659C26.0533 37.8911 26.0705 37.9148 26.0975 37.9374C26.1256 37.9592 26.1653 37.974 26.2168 37.9817L26.2777 37.991ZM28.7682 37.386L28.7316 38.0402L27.0859 38.1242L27.0833 38.0736L27.1448 38.0705C27.1986 38.0677 27.2413 38.056 27.2732 38.0351C27.2963 38.0212 27.3133 37.9984 27.3245 37.9668C27.3334 37.9443 27.3355 37.8867 27.3307 37.7937L27.2686 36.5746C27.2637 36.4797 27.2557 36.4208 27.2444 36.3976C27.2333 36.3744 27.2117 36.355 27.1798 36.3393C27.1488 36.3226 27.1073 36.3156 27.0554 36.3181L26.9939 36.3213L26.9913 36.2707L27.9796 36.2203L27.9821 36.2709L27.9015 36.2751C27.8477 36.2777 27.8049 36.2896 27.7732 36.3103C27.7501 36.3243 27.7325 36.3471 27.7204 36.3788C27.7115 36.4012 27.7094 36.4588 27.7142 36.5518L27.7744 37.7328C27.7792 37.8276 27.7878 37.8878 27.8001 37.9137C27.8123 37.9387 27.8348 37.9567 27.8673 37.9679C27.8905 37.9749 27.9458 37.9762 28.0333 37.9717L28.1877 37.9639C28.2862 37.9589 28.3673 37.9373 28.4311 37.8994C28.495 37.8614 28.5487 37.8038 28.5922 37.7267C28.6367 37.6495 28.6767 37.5369 28.7121 37.3889L28.7682 37.3861M30.5683 37.0737L29.9402 37.2614L29.9172 37.4568C29.91 37.5218 29.9119 37.5731 29.9232 37.6107C29.938 37.6606 29.9692 37.6913 30.0164 37.7029C30.0442 37.7098 30.1055 37.7029 30.2002 37.6822L30.2147 37.7308L29.6232 37.9075L29.6088 37.859C29.6697 37.8302 29.7143 37.7884 29.7426 37.7332C29.7707 37.6772 29.7946 37.5725 29.8144 37.419L30.0266 35.81L30.0515 35.8026L31.1283 37.0692C31.2308 37.1891 31.3071 37.2611 31.3572 37.2852C31.3949 37.3034 31.4416 37.3066 31.4972 37.2948L31.5117 37.3433L30.6513 37.6003L30.6368 37.5518L30.6722 37.5412C30.7413 37.5206 30.787 37.4965 30.8092 37.4689C30.8242 37.4491 30.8278 37.4261 30.82 37.3999C30.815 37.3834 30.8075 37.3678 30.7977 37.3537C30.7935 37.3464 30.7707 37.3176 30.7289 37.2671L30.5683 37.0737ZM30.4948 36.99L30.0468 36.4567L29.9572 37.1506L30.4948 36.9901M32.8664 34.5732L33.1043 35.0156L33.0609 35.039C32.9803 34.9506 32.9125 34.8929 32.8573 34.8656C32.8018 34.8374 32.7396 34.8248 32.6707 34.8276C32.6323 34.8296 32.5751 34.8511 32.4987 34.8921L32.3771 34.9576L33.0549 36.2186C33.0998 36.3021 33.1323 36.352 33.1524 36.3681C33.1733 36.3839 33.2013 36.3926 33.2365 36.3945C33.272 36.3951 33.3131 36.3828 33.3597 36.3577L33.4139 36.3286L33.4379 36.3731L32.582 36.8333L32.5581 36.7887L32.6123 36.7596C32.6597 36.7341 32.6933 36.7051 32.7131 36.6726C32.7281 36.6501 32.7341 36.6221 32.7314 36.5882C32.7299 36.5641 32.7072 36.5111 32.6631 36.4292L31.9852 35.1682L31.8671 35.2317C31.757 35.2909 31.6895 35.3572 31.6647 35.4306C31.6298 35.5333 31.6355 35.6499 31.6818 35.7804L31.636 35.8051L31.3982 35.3626L32.8664 34.5732ZM33.9797 33.9132L34.4347 34.5163L34.4641 34.4941C34.5581 34.4232 34.6039 34.3424 34.6017 34.2515C34.5994 34.1606 34.5607 34.0531 34.4856 33.9293L34.5271 33.898L35.1123 34.6738L35.0707 34.7051C34.9982 34.6272 34.9274 34.572 34.8584 34.5396C34.7901 34.5065 34.7304 34.4949 34.6796 34.5047C34.6281 34.5138 34.5671 34.545 34.4964 34.5983L34.8113 35.0156C34.8729 35.0973 34.9137 35.1447 34.934 35.158C34.955 35.1706 34.9794 35.1757 35.0072 35.1731C35.0349 35.1705 35.0698 35.1532 35.1122 35.1214L35.2007 35.0546C35.3391 34.9501 35.4256 34.8346 35.4602 34.7079C35.4957 34.5806 35.4822 34.4376 35.4197 34.2791L35.4601 34.2486L35.7487 34.7697L34.468 35.7356L34.4375 35.6952L34.4867 35.6581C34.5297 35.6257 34.5586 35.592 34.5732 35.5569C34.5845 35.5324 34.5858 35.504 34.5773 35.4715C34.5722 35.448 34.5416 35.399 34.4856 35.3248L33.7503 34.3501C33.6997 34.2831 33.667 34.2433 33.6518 34.2307C33.6277 34.2115 33.5976 34.2014 33.5667 34.2022C33.5237 34.2027 33.4782 34.2211 33.4301 34.2574L33.381 34.2945L33.3504 34.2541L34.5906 33.3186L34.9211 33.7567L34.8797 33.7881C34.7777 33.6969 34.6898 33.6426 34.6161 33.6251C34.543 33.607 34.4632 33.6134 34.3769 33.6443C34.3262 33.662 34.2447 33.7131 34.1326 33.7977L33.9796 33.9131" fill="black"/>
</g>
</g>
</g>
</g>
<defs>
<linearGradient id="paint0_linear_16699_279110" x1="9.91817" y1="32.8245" x2="9.10675" y2="32.7045" gradientUnits="userSpaceOnUse">
<stop stop-color="#FF0000"/>
<stop offset="1" stop-color="#FFFF00"/>
</linearGradient>
<linearGradient id="paint1_linear_16699_279110" x1="9.86207" y1="29.8184" x2="9.05057" y2="29.6984" gradientUnits="userSpaceOnUse">
<stop stop-color="#FF0000"/>
<stop offset="1" stop-color="#FFFF00"/>
</linearGradient>
<linearGradient id="paint2_linear_16699_279110" x1="20.4266" y1="27.0858" x2="19.6152" y2="26.9658" gradientUnits="userSpaceOnUse">
<stop stop-color="#FF0000"/>
<stop offset="1" stop-color="#FFFF00"/>
</linearGradient>
<linearGradient id="paint3_linear_16699_279110" x1="10.1084" y1="24.1635" x2="9.29687" y2="24.0435" gradientUnits="userSpaceOnUse">
<stop stop-color="#FF0000"/>
<stop offset="1" stop-color="#FFFF00"/>
</linearGradient>
<linearGradient id="paint4_linear_16699_279110" x1="10.1307" y1="21.2915" x2="9.31919" y2="21.1715" gradientUnits="userSpaceOnUse">
<stop stop-color="#FF0000"/>
<stop offset="1" stop-color="#FFFF00"/>
</linearGradient>
<linearGradient id="paint5_linear_16699_279110" x1="10.1853" y1="18.3774" x2="9.37389" y2="18.2575" gradientUnits="userSpaceOnUse">
<stop stop-color="#FF0000"/>
<stop offset="1" stop-color="#FFFF00"/>
</linearGradient>
<linearGradient id="paint6_linear_16699_279110" x1="20.5051" y1="18.4249" x2="19.6937" y2="18.3049" gradientUnits="userSpaceOnUse">
<stop stop-color="#FF0000"/>
<stop offset="1" stop-color="#FFFF00"/>
</linearGradient>
<linearGradient id="paint7_linear_16699_279110" x1="20.4109" y1="21.2854" x2="19.5994" y2="21.1655" gradientUnits="userSpaceOnUse">
<stop stop-color="#FF0000"/>
<stop offset="1" stop-color="#FFFF00"/>
</linearGradient>
<linearGradient id="paint8_linear_16699_279110" x1="20.2844" y1="24.2093" x2="19.473" y2="24.0893" gradientUnits="userSpaceOnUse">
<stop stop-color="#FF0000"/>
<stop offset="1" stop-color="#FFFF00"/>
</linearGradient>
<linearGradient id="paint9_linear_16699_279110" x1="20.4106" y1="32.8551" x2="19.5992" y2="32.7351" gradientUnits="userSpaceOnUse">
<stop stop-color="#FF0000"/>
<stop offset="1" stop-color="#FFFF00"/>
</linearGradient>
<linearGradient id="paint10_linear_16699_279110" x1="20.3952" y1="29.962" x2="19.5838" y2="29.842" gradientUnits="userSpaceOnUse">
<stop stop-color="#FF0000"/>
<stop offset="1" stop-color="#FFFF00"/>
</linearGradient>
<linearGradient id="paint11_linear_16699_279110" x1="11.9933" y1="27.2739" x2="11.1819" y2="27.1539" gradientUnits="userSpaceOnUse">
<stop stop-color="#FF0000"/>
<stop offset="1" stop-color="#FFFF00"/>
</linearGradient>
<clipPath id="clip0_16699_279110">
<rect width="40" height="40" fill="white"/>
</clipPath>
</defs>
</svg>
