<svg width="40" height="40" viewBox="0 0 40 40" fill="none" xmlns="http://www.w3.org/2000/svg">
<g clip-path="url(#clip0_16699_279251)">
<mask id="mask0_16699_279251" style="mask-type:luminance" maskUnits="userSpaceOnUse" x="0" y="0" width="40" height="40">
<path d="M40 20C40 8.95431 31.0457 0 20 0C8.95431 0 0 8.95431 0 20C0 31.0457 8.95431 40 20 40C31.0457 40 40 31.0457 40 20Z" fill="white"/>
</mask>
<g mask="url(#mask0_16699_279251)">
<mask id="mask1_16699_279251" style="mask-type:luminance" maskUnits="userSpaceOnUse" x="0" y="0" width="40" height="40">
<path d="M0 0H40V40H0V0Z" fill="white"/>
</mask>
<g mask="url(#mask1_16699_279251)">
<path d="M0 0H40V40H0V0Z" fill="white"/>
<path d="M12.7716 24.6833C12.7716 24.6833 12.7393 24.464 13.1556 24.3033C13.5719 24.1424 13.6044 23.5431 13.5211 23.1436C13.5211 23.1436 13.3036 23.5236 13.0399 23.6503C13.0399 23.6503 12.6096 23.8744 12.59 24.3025C12.59 24.3025 12.5865 24.4592 12.5541 24.5809C12.5364 24.6476 12.3459 24.045 12.7068 23.5968C13.0791 23.1343 13.1833 22.7588 12.8871 22.028C12.8871 22.028 12.8594 22.4713 12.568 22.7247C12.2766 22.978 12.2395 22.9975 12.2442 23.6017C12.2442 23.6017 12.2489 23.8112 12.1378 23.8793C12.1378 23.8793 11.9111 23.548 11.8509 23.3288C11.7909 23.1095 11.7631 23.0168 12.0221 22.7636C12.0221 22.7636 12.8521 22.2273 12.2534 21.0535C12.2534 21.0535 12.235 21.4578 11.9481 21.6966C11.6613 21.9353 11.6844 22.0961 11.6705 22.5103C11.6568 22.9243 11.629 22.8953 11.5966 22.9536C11.5966 22.9536 11.0692 21.984 11.4764 21.4676C11.8834 20.9512 12.1101 20.844 11.6614 19.8842C11.6614 19.8842 11.6814 20.3763 11.322 20.6198C10.9628 20.8635 11.0461 21.4335 11.0461 21.4335C11.0461 21.4335 11.0692 21.6479 10.9951 21.8038C10.9951 21.8038 10.487 20.8127 10.972 20.2789C11.3837 19.8258 11.4115 19.5091 11.1895 18.866C11.1895 18.866 11.1616 19.1632 10.935 19.324C10.7084 19.4848 10.5279 19.6455 10.5695 20.2643C10.5695 20.2643 10.588 20.6978 10.5325 20.8197C10.5325 20.8197 10.3197 20.425 10.2596 20.1668C10.1995 19.9085 10.1763 19.7575 10.3336 19.4993C10.4909 19.2411 11.1155 18.5006 10.3706 17.4335C10.3706 17.4335 10.3475 17.7795 10.1578 18.0913C9.96813 18.4032 10.056 18.7734 10.0976 19.056C10.1393 19.3386 10.0005 19.6114 10.0005 19.6114C10.0005 19.6114 9.6768 19.017 9.74613 18.3349C9.81555 17.6528 9.53805 17.0925 8.9088 16.6882C8.9088 16.6882 8.4508 17.7503 9.07538 18.2911C9.07538 18.2911 9.60738 18.8173 9.74163 19.4555C9.74163 19.4555 9.33913 19.4165 8.97346 18.7053C8.60813 17.994 7.8494 18.1058 7.79846 18.101C7.79846 18.101 7.92346 19.2022 9.08921 19.514C9.08921 19.514 9.83396 19.6407 9.97271 20.1863C9.97271 20.1863 10.0977 20.5615 10.1485 20.7613C10.1485 20.7613 9.91255 20.6687 9.69513 20.3471C9.47763 20.0255 9.50538 19.9865 8.76988 19.9135C8.76988 19.9135 8.47388 19.8793 8.31653 19.6698C8.31653 19.6698 8.62655 20.8343 9.42213 20.8245C9.42213 20.8245 10.1485 20.7466 10.5556 21.7015C10.5556 21.7015 10.4769 21.6528 10.3706 21.5797C10.2641 21.5067 9.99588 21.3703 9.4638 21.4335C8.93188 21.4969 8.7838 21.4092 8.64963 21.3654C8.64963 21.3654 9.18629 22.3495 9.94496 22.0573C10.7037 21.7648 11.0701 22.8308 11.0784 22.8513C11.0784 22.8513 10.9766 22.7735 10.8425 22.642C10.7083 22.5103 10.4298 22.3483 9.90338 22.5153C9.90338 22.5153 9.52396 22.6615 9.14005 22.5445C9.14005 22.5445 9.51005 23.2608 10.3752 23.1388C11.2404 23.017 11.4577 23.7771 11.4577 23.7771C11.4577 23.7771 11.3421 23.709 11.2635 23.6455C11.1847 23.5823 10.8934 23.4165 10.2689 23.6018C9.6443 23.7868 9.41763 23.5724 9.41763 23.5724C9.41763 23.5724 9.76446 24.2058 10.4307 24.2789C10.4307 24.2789 10.8009 24.2741 10.9581 24.2157C11.1154 24.1572 11.5319 24.0646 11.8186 24.4788C11.8186 24.4788 11.74 24.4933 11.6196 24.4398C11.6196 24.4398 11.1755 24.279 10.8378 24.5615C10.8378 24.5615 10.5371 24.8684 10.1115 24.81C10.1115 24.81 10.662 25.346 11.5364 24.8928C11.5364 24.8928 11.8325 24.6785 12.0499 24.8441C12.2674 25.0098 12.7716 24.6835 12.7716 24.6835V24.6833Z" fill="#369443" stroke="#010002" stroke-width="0.753" stroke-miterlimit="10"/>
<path d="M17.6382 11.4797C17.6382 11.4797 17.5367 10.573 18.2612 10.4858C19.0167 10.3949 19.3899 10.554 19.3899 10.554L19.7292 11.2199L19.612 11.6681L19.1432 11.8824C19.1432 11.8824 19.2234 11.1939 18.5922 11.1796C18.4322 11.1759 18.3382 11.2394 18.0853 11.1992C17.831 11.1588 17.6948 11.4384 17.6382 11.4797Z" fill="#F4C53D" stroke="#010002" stroke-width="0.7525" stroke-miterlimit="10"/>
<path d="M22.7361 13.7241C22.6281 13.8638 22.1963 13.9125 22.1963 13.9125C22.1963 13.9125 22.6405 14.2536 22.8317 14.7408C23.0229 15.2279 17.6843 14.744 17.6843 14.744C17.6843 14.744 17.9158 14.5783 18.0731 14.2665C18.0731 14.2665 17.8371 14.3543 17.6013 14.1203C17.6013 14.1203 17.7768 14.1788 18.0083 13.8281C18.0083 13.8281 18.3506 13.3895 18.5912 13.2726C18.5912 13.2726 18.4801 13.3408 18.2118 13.1946C18.2118 13.1946 18.6743 13.1362 18.8409 12.3468C18.8409 12.3468 18.8687 12.1716 19.0444 11.9183C19.2203 11.6648 19.1832 11.967 19.5071 11.5772C19.5071 11.5772 19.6552 11.3011 19.5256 11.1322C19.3961 10.9633 19.2573 11.0251 18.9858 10.8626C18.7144 10.7003 18.5942 10.6093 18.6867 10.3592C18.7792 10.1092 19.0198 10.1481 19.0537 10.1481C19.0876 10.1481 19.1062 9.93034 19.4023 9.781C19.6983 9.63159 20.4848 9.69659 20.6019 9.7615C20.7191 9.8265 21.1941 9.96609 21.4716 10.6678C21.7491 11.3693 21.3976 11.6323 22.1533 12.6912C22.1533 12.6912 21.851 12.7562 21.6567 12.6977C21.6567 12.6977 22.0483 13.3928 22.7361 13.7241Z" fill="#F4C53D" stroke="#010002" stroke-width="0.7525" stroke-miterlimit="10"/>
<path d="M19.4331 10.7635C18.8177 10.7343 19.0537 10.148 19.0537 10.148L19.4331 10.7635Z" fill="black"/>
<path d="M19.4331 10.7635C18.8177 10.7343 19.0537 10.148 19.0537 10.148" stroke="#010002" stroke-width="0.7525" stroke-miterlimit="10"/>
<path d="M20.5019 10.844C20.5019 10.844 20.3931 10.7929 20.3013 10.671C20.1721 10.5001 19.8843 10.4177 19.7294 10.5785C19.7294 10.5785 19.572 10.7539 19.4331 10.7635C19.4331 10.7635 19.5905 10.8123 19.6993 10.9123C19.808 11.0121 19.9213 11.0851 20.0832 11.0632C20.2451 11.0414 20.2705 10.9561 20.3469 10.905C20.4231 10.8537 20.5019 10.844 20.5019 10.844V10.844Z" fill="#F4C53D" stroke="#010002" stroke-width="0.7525" stroke-miterlimit="10"/>
<path d="M12.6758 26.0285C12.6758 26.0285 12.6619 25.6339 13.1616 25.6047L14.6327 27.6509C14.6327 27.6509 14.5772 27.7823 13.9109 27.7678C13.9109 27.7678 13.8404 27.7673 13.8034 27.8453C13.7466 27.9649 12.6758 26.0285 12.6758 26.0285Z" fill="#369443" stroke="#010002" stroke-width="0.753" stroke-miterlimit="10"/>
<path d="M14.291 23.6467C14.291 23.6467 13.8221 24.4522 13.2547 24.4652C13.2547 24.4652 12.2785 24.3464 12.0025 24.6016C11.81 24.7795 11.614 24.9265 11.5337 25.3811C11.4535 25.8359 11.688 25.9333 11.7435 25.9527C11.7435 25.9527 11.7867 26.2775 12.1074 26.1931C12.1074 26.1931 12.1259 26.531 12.6934 26.3685C13.2608 26.2061 13.4952 26.258 13.6062 25.693C13.7173 25.1278 13.8198 25.137 13.9208 25.0693C14.0565 24.9784 14.3115 24.8925 14.5006 24.7835C14.6705 24.6856 15.321 24.3547 15.543 24.3287C15.7651 24.3028 15.7157 23.5557 15.7157 23.5557H15.1421L14.8645 23.1465L14.291 23.6467ZM16.0976 19.6062C16.0976 19.6062 15.524 20.074 15.0429 19.6062C15.0429 19.6062 14.8485 19.84 14.46 19.7719C14.0714 19.7037 14.0066 19.499 13.9696 19.3821C13.9696 19.3821 13.6335 19.5782 13.3497 19.4233C13.066 19.2685 13.066 19.0345 13.066 19.0345C13.066 19.0345 12.5725 19.1319 12.3196 18.7974C12.0667 18.463 12.221 18.1316 12.3566 18.0927C12.3566 18.0927 11.8231 18.2325 11.6781 17.7744C11.5547 17.3846 11.8323 17.1832 11.8323 17.1832C11.8323 17.1832 10.7082 17.1778 10.2471 16.826C10.2471 16.826 9.86471 16.5856 10.0929 16.3322C10.0929 16.3322 9.08129 16.1699 8.82846 15.7671C8.82846 15.7671 8.71737 15.6567 8.75446 15.4618C8.75446 15.4618 8.76054 15.3514 8.87162 15.3449C8.87162 15.3449 7.71799 15.1667 7.38512 14.7862C7.38512 14.7862 7.22474 14.6108 7.30493 14.377C7.30493 14.377 7.32186 14.3152 7.34961 14.2739C7.34961 14.2739 6.29949 14.0522 5.78137 13.5845C5.78137 13.5845 5.4823 13.318 5.63649 12.9607C5.63649 12.9607 3.88156 12.4802 4.28868 11.7071C4.28868 11.7071 3.46831 11.4408 3.72737 10.7002C3.72737 10.7002 3.04887 10.356 3.34493 9.8103C3.62831 9.28813 4.49836 9.90122 5.52867 10.1863C5.52867 10.1863 8.31649 11.064 9.68937 11.2976L13.5902 17.1053L15.8663 17.9822L16.0976 19.6062Z" fill="#F4C53D" stroke="#010002" stroke-width="0.753"/>
<path d="M16.1255 15.3287C16.1255 15.3287 15.7599 15.0542 15.1077 15.3773C15.1077 15.3773 14.8882 15.5285 14.7155 15.3629C14.5712 15.2245 14.5577 14.9693 14.7562 14.822C15.2419 14.4615 15.4223 13.3798 14.6822 12.9317C14.6822 12.9317 13.6089 12.295 9.67342 11.2935C9.67342 11.2935 9.34366 11.2021 9.16783 11.246C8.97425 11.2943 8.84091 11.4603 8.81358 11.6024C8.81358 11.6024 8.63741 12.1029 9.2295 12.3893C9.2295 12.3893 9.49683 12.5115 9.77233 12.5906C9.77233 12.5906 9.46966 12.5253 9.34058 12.8245C9.21716 13.1103 9.39608 13.4026 9.95117 13.591C9.95117 13.591 10.1014 13.6494 10.3152 13.7014C10.3152 13.7014 9.84016 13.8378 10.0684 14.2211C10.0684 14.2211 10.2719 14.6238 10.9905 14.6953C10.9905 14.6953 10.4539 14.7538 10.8332 15.2637C10.8332 15.2637 10.9998 15.543 11.5241 15.647C11.5241 15.647 11.1262 15.6599 11.3267 16.0173C11.5272 16.3745 11.9989 16.5758 12.4632 16.6083C12.4632 16.6083 12.7146 16.6213 12.8903 16.5824C12.8903 16.5824 12.4493 16.8033 12.7084 17.1735C12.7084 17.1735 12.8996 17.4366 13.3777 17.4236C13.3777 17.4236 13.2536 17.8371 13.6043 17.9937C13.8772 18.1154 14.1039 17.9205 14.1039 17.9205C14.1039 17.9205 14.0114 18.3639 14.4092 18.5198C14.4092 18.5198 14.6082 18.6221 14.9042 18.5198C14.9042 18.5198 15.1309 19.0265 15.9359 18.6708C16.7408 18.3152 16.1255 15.3287 16.1255 15.3287ZM16.1732 19.9335C16.1732 19.9335 16.0552 20.5677 15.1186 21.3658C15.1186 21.3658 14.3959 22.0033 14.4144 22.7373C14.4332 23.4848 14.2849 23.5688 14.0012 23.8221C14.0012 23.8221 14.5872 23.8676 14.8709 23.4778C14.8709 23.4778 14.8585 24.1274 14.7722 24.1858C14.7722 24.1858 14.9559 24.1976 15.2224 23.9065C15.2224 23.9065 15.3828 23.7377 15.5308 23.6728C15.5308 23.6728 15.3582 24.1209 15.4938 24.5367C15.4938 24.5367 15.537 24.3743 15.7652 24.3028C15.7652 24.3028 16.1785 24.2183 16.3389 23.6208C16.3389 23.6208 16.4437 23.2245 17.0914 22.8738C17.0914 22.8738 17.8254 22.5968 17.8069 22.2351C17.7884 21.8733 16.1732 19.9335 16.1732 19.9335Z" fill="#F4C53D" stroke="#010002" stroke-width="0.753"/>
<path d="M19.5752 28.1094C19.5752 28.1094 19.4071 28.8514 18.8227 28.7915C18.8227 28.7915 18.4095 28.7525 18.4402 28.064C18.4402 28.064 17.8296 28.3887 17.731 27.5832C17.731 27.5832 17.1758 27.7132 17.182 26.9596C17.182 26.9596 16.6639 27.0505 16.7255 26.3815C16.7255 26.3815 16.1642 26.5309 16.1642 25.9007C16.1642 25.9007 14.8505 25.6829 17.5891 23.1855L20.0316 24.6405L19.5752 28.1094Z" fill="#F4C53D" stroke="#010002" stroke-width="0.753" stroke-miterlimit="10"/>
<path d="M19.847 24.7796C19.847 24.7796 19.4399 25.1407 19.15 24.6016C19.15 24.6016 18.7553 24.5822 18.6936 24.2832C18.6936 24.2832 18.3729 24.2508 18.3111 23.9455C18.3111 23.9455 17.8732 23.9 17.8856 23.5297C17.8856 23.5297 17.0894 23.4683 17.8853 22.5669C18.6813 21.6655 20.0321 24.0624 20.0321 24.0624L19.847 24.7796ZM20.3013 24.5562C20.6959 24.5562 21.143 27.0213 21.027 28.5066C20.9849 29.0459 20.6959 29.4866 20.3013 29.4866C19.9066 29.4866 19.6176 29.0459 19.5755 28.5066C19.4594 27.0213 19.9066 24.5562 20.3013 24.5562Z" fill="#F4C53D"/>
<path d="M20.3013 24.5562C20.6959 24.5562 21.143 27.0213 21.027 28.5066C20.9849 29.0459 20.6959 29.4866 20.3013 29.4866C19.9066 29.4866 19.6176 29.0459 19.5755 28.5066C19.4594 27.0213 19.9066 24.5562 20.3013 24.5562ZM19.847 24.7796C19.847 24.7796 19.4399 25.1407 19.15 24.6016C19.15 24.6016 18.7553 24.5822 18.6936 24.2832C18.6936 24.2832 18.3729 24.2508 18.3111 23.9455C18.3111 23.9455 17.8732 23.9 17.8856 23.5297C17.8856 23.5297 17.0894 23.4683 17.8853 22.5669C18.6813 21.6655 20.0321 24.0624 20.0321 24.0624L19.847 24.7796Z" fill="black" stroke="#010002" stroke-width="0.753"/>
<path d="M20.3009 25.3453C20.6025 25.3453 20.847 24.9833 20.847 24.5366C20.847 24.09 20.6025 23.7278 20.3009 23.7278C19.9994 23.7278 19.7549 24.09 19.7549 24.5366C19.7549 24.9833 19.9994 25.3453 20.3009 25.3453Z" fill="#F4C53D" stroke="#010002" stroke-width="0.753"/>
<path d="M18.4406 28.064C18.4406 28.064 18.5022 26.7582 19.6339 24.8874L18.4406 28.064ZM17.7312 27.5832C17.7312 27.5832 17.5555 26.8297 19.1499 24.6015C19.1499 24.6015 18.9648 24.069 19.5323 23.7279M17.1823 26.9596C17.1823 26.9596 17.1329 26.1444 18.6935 24.2833C18.6935 24.2833 18.5556 23.8025 19.1211 23.4193M16.7258 26.3815C16.7258 26.3815 16.7844 25.5565 18.3111 23.9455C18.3111 23.9455 18.2346 23.4518 18.7817 23.1465M16.1646 25.9008C16.1646 25.9008 16.2756 24.9589 17.8854 23.5297C17.8854 23.5297 17.8299 23.1595 18.3666 22.7827" fill="black"/>
<path d="M18.4406 28.064C18.4406 28.064 18.5022 26.7582 19.6339 24.8874M17.7312 27.5832C17.7312 27.5832 17.5555 26.8297 19.1499 24.6015C19.1499 24.6015 18.9648 24.069 19.5323 23.7279M17.1823 26.9596C17.1823 26.9596 17.1329 26.1444 18.6935 24.2833C18.6935 24.2833 18.5556 23.8025 19.1211 23.4193M16.7258 26.3815C16.7258 26.3815 16.7844 25.5565 18.3111 23.9455C18.3111 23.9455 18.2346 23.4518 18.7817 23.1465M16.1646 25.9008C16.1646 25.9008 16.2756 24.9589 17.8854 23.5297C17.8854 23.5297 17.8299 23.1595 18.3666 22.7827" stroke="#010002" stroke-width="0.753" stroke-miterlimit="10"/>
<path d="M3.72754 10.7003C3.72754 10.7003 4.99204 11.4324 8.92991 12.1645L3.72754 10.7003ZM4.28885 11.7072C4.28885 11.7072 7.71116 12.8235 9.305 12.9608L4.28885 11.7072ZM5.63666 12.9608C5.63666 12.9608 7.64435 13.591 9.99541 13.9887L5.63666 12.9608ZM7.34979 14.2739C7.34979 14.2739 9.61808 14.8188 10.7011 14.9092L7.34979 14.2739ZM8.87175 15.3449C8.87175 15.3449 10.7904 15.745 11.2765 15.7932L8.87175 15.3449ZM10.0931 16.3323C10.0931 16.3323 11.4932 16.545 12.0505 16.5337L10.0931 16.3323ZM11.8325 17.1833C11.8325 17.1833 12.3986 17.1567 12.6707 17.1115L11.8325 17.1833ZM12.3567 18.0928C12.3567 18.0928 12.8379 17.9628 13.1217 17.7809L12.3567 18.0928ZM13.0661 19.0346C13.0661 19.0346 13.4362 18.8918 13.6151 18.502L13.0661 19.0346ZM13.9697 19.3822C13.9697 19.3822 14.2565 19.1255 14.2751 18.8398L13.9697 19.3822ZM15.043 19.6063C15.043 19.6063 14.9356 19.5136 15.0091 19.111L15.043 19.6063ZM14.9042 18.5198C14.9042 18.5198 14.8487 18.4045 14.8672 18.2226L14.9042 18.5198ZM12.8811 12.753C12.8811 12.753 13.5287 13.0128 13.7446 13.3701C13.9605 13.7274 13.8183 14.0746 13.7446 14.2738C13.7076 14.374 13.2512 15.2539 13.7877 15.8905M12.8903 16.5823C12.8903 16.5823 12.8934 16.5791 13.1217 16.5077L12.8903 16.5823ZM11.5241 15.647C11.5241 15.647 11.9101 15.7247 12.2889 15.7282L11.5241 15.647ZM10.9905 14.6953C10.9905 14.6953 11.4439 14.7408 11.8695 14.7343L10.9905 14.6953ZM10.3151 13.7014C10.3151 13.7014 10.969 13.8313 11.3205 13.8378L10.3151 13.7014ZM9.77225 12.5906C9.77225 12.5906 10.5787 12.8208 11.1787 12.9024L9.77225 12.5906ZM12.511 13.3766C12.511 13.3766 11.9312 13.9158 12.6282 14.416C12.6282 14.416 12.3382 14.8707 12.9181 15.3448M12.7639 15.569C12.7639 15.569 12.6775 16.4361 13.7385 16.4362C13.7385 16.4362 13.5349 17.2093 14.5588 17.1833C14.5588 17.1833 14.676 17.8003 15.4162 17.6769M13.7852 24.4653C13.7852 24.4653 13.6175 24.5026 13.2532 24.4653H13.7852ZM12.2294 24.92C12.2294 24.92 11.7174 24.842 11.7421 25.9528L12.2294 24.92ZM12.5377 25.1733C12.5377 25.1733 12.0752 25.1148 12.106 26.1932L12.5377 25.1733ZM17.0051 22.5749C17.0051 22.5749 16.783 22.6203 16.6287 22.7958C16.4746 22.9712 16.1785 22.9387 16.1785 22.9387C16.1785 22.9387 16.3389 22.8088 16.3944 22.484C16.4499 22.1592 16.6287 22.0618 16.6287 22.0618M16.099 21.7542C16.099 21.7542 15.877 21.7996 15.7228 21.975C15.5686 22.1504 15.2725 22.1179 15.2725 22.1179C15.2725 22.1179 15.4329 21.988 15.4884 21.6633C15.544 21.3384 15.7228 21.241 15.7228 21.241M15.9464 23.015C15.9464 23.015 15.7525 23.0547 15.6179 23.2078C15.4832 23.361 15.2247 23.3326 15.2247 23.3326C15.2247 23.3326 15.3647 23.2192 15.4132 22.9356C15.4617 22.652 15.6179 22.5669 15.6179 22.5669" fill="black"/>
<path d="M3.72754 10.7003C3.72754 10.7003 4.99204 11.4324 8.92991 12.1645M4.28885 11.7072C4.28885 11.7072 7.71116 12.8235 9.305 12.9608M5.63666 12.9608C5.63666 12.9608 7.64435 13.591 9.99541 13.9887M7.34979 14.2739C7.34979 14.2739 9.61808 14.8188 10.7011 14.9092M8.87175 15.3449C8.87175 15.3449 10.7904 15.745 11.2765 15.7932M10.0931 16.3323C10.0931 16.3323 11.4932 16.545 12.0505 16.5337M11.8325 17.1833C11.8325 17.1833 12.3986 17.1567 12.6707 17.1115M12.3567 18.0928C12.3567 18.0928 12.8379 17.9628 13.1217 17.7809M13.0661 19.0346C13.0661 19.0346 13.4362 18.8918 13.6151 18.502M13.9697 19.3822C13.9697 19.3822 14.2565 19.1255 14.2751 18.8398M15.043 19.6063C15.043 19.6063 14.9356 19.5136 15.0091 19.111M14.9042 18.5198C14.9042 18.5198 14.8487 18.4045 14.8672 18.2226M12.8811 12.753C12.8811 12.753 13.5287 13.0128 13.7446 13.3701C13.9605 13.7274 13.8183 14.0746 13.7446 14.2738C13.7076 14.374 13.2512 15.2539 13.7877 15.8905M12.8903 16.5823C12.8903 16.5823 12.8934 16.5791 13.1217 16.5077M11.5241 15.647C11.5241 15.647 11.9101 15.7247 12.2889 15.7282M10.9905 14.6953C10.9905 14.6953 11.4439 14.7408 11.8695 14.7343M10.3151 13.7014C10.3151 13.7014 10.969 13.8313 11.3205 13.8378M9.77225 12.5906C9.77225 12.5906 10.5787 12.8208 11.1787 12.9024M12.511 13.3766C12.511 13.3766 11.9312 13.9158 12.6282 14.416C12.6282 14.416 12.3382 14.8707 12.9181 15.3448M12.7639 15.569C12.7639 15.569 12.6775 16.4361 13.7385 16.4362C13.7385 16.4362 13.5349 17.2093 14.5588 17.1833C14.5588 17.1833 14.676 17.8003 15.4162 17.6769M13.7852 24.4653C13.7852 24.4653 13.6175 24.5026 13.2532 24.4653M12.2294 24.92C12.2294 24.92 11.7174 24.842 11.7421 25.9528M12.5377 25.1733C12.5377 25.1733 12.0752 25.1148 12.106 26.1932M17.0051 22.5749C17.0051 22.5749 16.783 22.6203 16.6287 22.7958C16.4746 22.9712 16.1785 22.9387 16.1785 22.9387C16.1785 22.9387 16.3389 22.8088 16.3944 22.484C16.4499 22.1592 16.6287 22.0618 16.6287 22.0618M16.099 21.7542C16.099 21.7542 15.877 21.7996 15.7228 21.975C15.5686 22.1504 15.2725 22.1179 15.2725 22.1179C15.2725 22.1179 15.4329 21.988 15.4884 21.6633C15.544 21.3384 15.7228 21.241 15.7228 21.241M15.9464 23.015C15.9464 23.015 15.7525 23.0547 15.6179 23.2078C15.4832 23.361 15.2247 23.3326 15.2247 23.3326C15.2247 23.3326 15.3647 23.2192 15.4132 22.9356C15.4617 22.652 15.6179 22.5669 15.6179 22.5669" stroke="#010002" stroke-width="0.753"/>
<path d="M26.1587 23.6467C26.1587 23.6467 26.6275 24.4522 27.195 24.4652C27.195 24.4652 28.171 24.3464 28.447 24.6016C28.6395 24.7795 28.8357 24.9265 28.9159 25.3811C28.9961 25.8359 28.7617 25.9333 28.7061 25.9527C28.7061 25.9527 28.663 26.2775 28.3423 26.1931C28.3423 26.1931 28.3238 26.531 27.7563 26.3685C27.1888 26.2061 26.9544 26.258 26.8434 25.693C26.7323 25.1278 26.6298 25.137 26.5288 25.0693C26.3931 24.9784 26.1381 24.8925 25.9491 24.7835C25.7791 24.6856 25.1286 24.3547 24.9066 24.3287C24.6846 24.3028 24.7339 23.5557 24.7339 23.5557H25.3076L25.585 23.1465L26.1587 23.6467ZM24.3521 19.6062C24.3521 19.6062 24.9256 20.074 25.4068 19.6062C25.4068 19.6062 25.6011 19.84 25.9896 19.7719C26.3783 19.7037 26.443 19.499 26.48 19.3821C26.48 19.3821 26.8162 19.5782 27.1 19.4233C27.3837 19.2685 27.3837 19.0345 27.3837 19.0345C27.3837 19.0345 27.8771 19.1319 28.1301 18.7974C28.3829 18.463 28.2287 18.1316 28.0931 18.0927C28.0931 18.0927 28.6266 18.2325 28.7716 17.7744C28.8949 17.3846 28.6173 17.1832 28.6173 17.1832C28.6173 17.1832 29.7415 17.1778 30.2026 16.826C30.2026 16.826 30.585 16.5856 30.3567 16.3322C30.3567 16.3322 31.3683 16.1699 31.6212 15.7671C31.6212 15.7671 31.7322 15.6567 31.6952 15.4618C31.6952 15.4618 31.6891 15.3514 31.5781 15.3449C31.5781 15.3449 32.7316 15.1667 33.0646 14.7862C33.0646 14.7862 33.2249 14.6108 33.1447 14.377C33.1447 14.377 33.1278 14.3152 33.1 14.2739C33.1 14.2739 34.1501 14.0522 34.6683 13.5845C34.6683 13.5845 34.9673 13.318 34.8131 12.9607C34.8131 12.9607 36.5681 12.4802 36.161 11.7071C36.161 11.7071 36.9813 11.4408 36.7223 10.7002C36.7223 10.7002 37.4008 10.356 37.1047 9.8103C36.8213 9.28813 35.9512 9.90122 34.921 10.1863C34.921 10.1863 32.1331 11.064 30.7603 11.2976L26.8594 17.1053L24.5833 17.9822L24.3521 19.6062Z" fill="#F4C53D" stroke="#010002" stroke-width="0.753"/>
<path d="M24.3243 15.3287C24.3243 15.3287 24.6899 15.0542 25.3421 15.3773C25.3421 15.3773 25.5616 15.5285 25.7343 15.3629C25.8786 15.2245 25.8921 14.9693 25.6936 14.822C25.2078 14.4615 25.0274 13.3798 25.7676 12.9317C25.7676 12.9317 26.8408 12.295 30.7764 11.2935C30.7764 11.2935 31.1062 11.2021 31.282 11.246C31.4756 11.2943 31.6088 11.4603 31.6363 11.6024C31.6363 11.6024 31.8123 12.1029 31.2203 12.3893C31.2203 12.3893 30.953 12.5115 30.6775 12.5906C30.6775 12.5906 30.9801 12.5253 31.1093 12.8245C31.2326 13.1103 31.0538 13.4026 30.4986 13.591C30.4986 13.591 30.3484 13.6494 30.1347 13.7014C30.1347 13.7014 30.6096 13.8378 30.3813 14.2211C30.3813 14.2211 30.1778 14.6238 29.4593 14.6953C29.4593 14.6953 29.9958 14.7538 29.6166 15.2637C29.6166 15.2637 29.45 15.543 28.9257 15.647C28.9257 15.647 29.3236 15.6599 29.1231 16.0173C28.9226 16.3745 28.4508 16.5758 27.9867 16.6083C27.9867 16.6083 27.7353 16.6213 27.5594 16.5824C27.5594 16.5824 28.0005 16.8033 27.7414 17.1735C27.7414 17.1735 27.5503 17.4366 27.0722 17.4236C27.0722 17.4236 27.1963 17.8371 26.8455 17.9937C26.5726 18.1154 26.3458 17.9205 26.3458 17.9205C26.3458 17.9205 26.4384 18.3639 26.0406 18.5198C26.0406 18.5198 25.8416 18.6221 25.5456 18.5198C25.5456 18.5198 25.3188 19.0265 24.5139 18.6708C23.709 18.3152 24.3243 15.3287 24.3243 15.3287ZM24.2766 19.9335C24.2766 19.9335 24.3947 20.5677 25.3313 21.3658C25.3313 21.3658 26.0538 22.0033 26.0353 22.7373C26.0166 23.4848 26.1649 23.5688 26.4486 23.8221C26.4486 23.8221 25.8627 23.8676 25.5789 23.4778C25.5789 23.4778 25.5913 24.1274 25.6776 24.1858C25.6776 24.1858 25.4938 24.1976 25.2273 23.9065C25.2273 23.9065 25.067 23.7377 24.9189 23.6728C24.9189 23.6728 25.0917 24.1209 24.956 24.5367C24.956 24.5367 24.9128 24.3743 24.6846 24.3028C24.6846 24.3028 24.2713 24.2183 24.1109 23.6208C24.1109 23.6208 24.0061 23.2245 23.3584 22.8738C23.3584 22.8738 22.6244 22.5968 22.6429 22.2351C22.6614 21.8733 24.2766 19.9335 24.2766 19.9335Z" fill="#F4C53D" stroke="#010002" stroke-width="0.753"/>
<path d="M20.8741 28.1094C20.8741 28.1094 21.0422 28.8514 21.6267 28.7915C21.6267 28.7915 22.0399 28.7525 22.0091 28.064C22.0091 28.064 22.6197 28.3887 22.7184 27.5832C22.7184 27.5832 23.2735 27.7132 23.2673 26.9596C23.2673 26.9596 23.7854 27.0505 23.7237 26.3815C23.7237 26.3815 24.2851 26.5309 24.2851 25.9007C24.2851 25.9007 25.5989 25.6829 22.8602 23.1855L20.4177 24.6405L20.8742 28.1094H20.8741Z" fill="#F4C53D" stroke="#010002" stroke-width="0.753" stroke-miterlimit="10"/>
<path d="M20.603 24.7796C20.603 24.7796 21.01 25.1407 21.3 24.6016C21.3 24.6016 21.6947 24.5822 21.7564 24.2832C21.7564 24.2832 22.0771 24.2508 22.1388 23.9455C22.1388 23.9455 22.5767 23.9 22.5644 23.5297C22.5644 23.5297 23.3606 23.4683 22.5646 22.5669C21.7687 21.6655 20.4179 24.0624 20.4179 24.0624L20.603 24.7796ZM20.1487 24.5562C19.7541 24.5562 19.3069 27.0213 19.423 28.5066C19.4651 29.0459 19.7541 29.4866 20.1487 29.4866C20.5433 29.4866 20.8323 29.0459 20.8745 28.5066C20.9905 27.0213 20.5433 24.5562 20.1487 24.5562Z" fill="#F4C53D"/>
<path d="M20.1487 24.5562C19.7541 24.5562 19.3069 27.0213 19.423 28.5066C19.4651 29.0459 19.7541 29.4866 20.1487 29.4866C20.5433 29.4866 20.8323 29.0459 20.8745 28.5066C20.9905 27.0213 20.5433 24.5562 20.1487 24.5562ZM20.603 24.7796C20.603 24.7796 21.01 25.1407 21.3 24.6016C21.3 24.6016 21.6947 24.5822 21.7564 24.2832C21.7564 24.2832 22.0771 24.2508 22.1388 23.9455C22.1388 23.9455 22.5767 23.9 22.5644 23.5297C22.5644 23.5297 23.3606 23.4683 22.5646 22.5669C21.7687 21.6655 20.4179 24.0624 20.4179 24.0624L20.603 24.7796Z" fill="black" stroke="#010002" stroke-width="0.753"/>
<path d="M20.1486 25.3453C19.847 25.3453 19.6025 24.9833 19.6025 24.5366C19.6025 24.09 19.847 23.7278 20.1486 23.7278C20.4502 23.7278 20.6947 24.09 20.6947 24.5366C20.6947 24.9833 20.4502 25.3453 20.1486 25.3453Z" fill="#F4C53D" stroke="#010002" stroke-width="0.753"/>
<path d="M22.0093 28.064C22.0093 28.064 21.9476 26.7582 20.8159 24.8874L22.0093 28.064ZM22.7186 27.5832C22.7186 27.5832 22.8943 26.8297 21.2999 24.6015C21.2999 24.6015 21.4849 24.069 20.9175 23.7279M23.2676 26.9596C23.2676 26.9596 23.3169 26.1444 21.7563 24.2833C21.7563 24.2833 21.8942 23.8025 21.3288 23.4193M23.724 26.3815C23.724 26.3815 23.6654 25.5565 22.1388 23.9455C22.1388 23.9455 22.2152 23.4518 21.6681 23.1465M24.2853 25.9008C24.2853 25.9008 24.1743 24.9589 22.5643 23.5297C22.5643 23.5297 22.6199 23.1595 22.0833 22.7827" fill="black"/>
<path d="M22.0093 28.064C22.0093 28.064 21.9476 26.7582 20.8159 24.8874M22.7186 27.5832C22.7186 27.5832 22.8943 26.8297 21.2999 24.6015C21.2999 24.6015 21.4849 24.069 20.9175 23.7279M23.2676 26.9596C23.2676 26.9596 23.3169 26.1444 21.7563 24.2833C21.7563 24.2833 21.8942 23.8025 21.3288 23.4193M23.724 26.3815C23.724 26.3815 23.6654 25.5565 22.1388 23.9455C22.1388 23.9455 22.2152 23.4518 21.6681 23.1465M24.2853 25.9008C24.2853 25.9008 24.1743 24.9589 22.5643 23.5297C22.5643 23.5297 22.6199 23.1595 22.0833 22.7827" stroke="#010002" stroke-width="0.753" stroke-miterlimit="10"/>
<path d="M36.7223 10.7003C36.7223 10.7003 35.4578 11.4324 31.5198 12.1645L36.7223 10.7003ZM36.161 11.7072C36.161 11.7072 32.7385 12.8235 31.1448 12.9608L36.161 11.7072ZM34.8131 12.9608C34.8131 12.9608 32.8055 13.591 30.4544 13.9887L34.8131 12.9608ZM33.1 14.2739C33.1 14.2739 30.8316 14.8188 29.7487 14.9092L33.1 14.2739ZM31.578 15.3449C31.578 15.3449 29.6593 15.745 29.1732 15.7932L31.578 15.3449ZM30.3567 16.3323C30.3567 16.3323 28.9565 16.545 28.3993 16.5337L30.3567 16.3323ZM28.6173 17.1833C28.6173 17.1833 28.0511 17.1567 27.779 17.1115L28.6173 17.1833ZM28.093 18.0928C28.093 18.0928 27.6119 17.9628 27.3281 17.7809L28.093 18.0928ZM27.3836 19.0346C27.3836 19.0346 27.0135 18.8918 26.8347 18.502L27.3836 19.0346ZM26.48 19.3822C26.48 19.3822 26.1932 19.1255 26.1747 18.8398L26.48 19.3822ZM25.4068 19.6063C25.4068 19.6063 25.5141 19.5136 25.4407 19.111L25.4068 19.6063ZM25.5455 18.5198C25.5455 18.5198 25.601 18.4045 25.5825 18.2226L25.5455 18.5198ZM27.5687 12.753C27.5687 12.753 26.921 13.0128 26.7052 13.3701C26.4893 13.7274 26.6315 14.0746 26.7052 14.2738C26.7422 14.374 27.1986 15.2539 26.662 15.8905M27.5595 16.5823C27.5595 16.5823 27.5564 16.5791 27.3281 16.5077L27.5595 16.5823ZM28.9257 15.647C28.9257 15.647 28.5397 15.7247 28.1609 15.7282L28.9257 15.647ZM29.4593 14.6953C29.4593 14.6953 29.0059 14.7408 28.5803 14.7343L29.4593 14.6953ZM30.1346 13.7014C30.1346 13.7014 29.4808 13.8313 29.1293 13.8378L30.1346 13.7014ZM30.6775 12.5906C30.6775 12.5906 29.871 12.8208 29.2711 12.9024L30.6775 12.5906ZM27.9388 13.3766C27.9388 13.3766 28.5185 13.9158 27.8215 14.416C27.8215 14.416 28.1115 14.8707 27.5317 15.3448M27.6859 15.569C27.6859 15.569 27.7723 16.4361 26.7113 16.4362C26.7113 16.4362 26.9149 17.2093 25.891 17.1833C25.891 17.1833 25.7738 17.8003 25.0335 17.6769M26.6645 24.4653C26.6645 24.4653 26.8323 24.5026 27.1965 24.4653H26.6645ZM28.2204 24.92C28.2204 24.92 28.7324 24.842 28.7077 25.9528L28.2204 24.92ZM27.912 25.1733C27.912 25.1733 28.3745 25.1148 28.3438 26.1932L27.912 25.1733ZM23.4447 22.5749C23.4447 22.5749 23.6668 22.6203 23.821 22.7958C23.9752 22.9712 24.2713 22.9387 24.2713 22.9387C24.2713 22.9387 24.1109 22.8088 24.0554 22.484C23.9998 22.1592 23.821 22.0618 23.821 22.0618M24.3507 21.7542C24.3507 21.7542 24.5728 21.7996 24.727 21.975C24.8811 22.1504 25.1773 22.1179 25.1773 22.1179C25.1773 22.1179 25.0169 21.988 24.9613 21.6633C24.9058 21.3384 24.727 21.241 24.727 21.241M24.5034 23.015C24.5034 23.015 24.6973 23.0547 24.8319 23.2078C24.9665 23.361 25.225 23.3326 25.225 23.3326C25.225 23.3326 25.085 23.2192 25.0365 22.9356C24.988 22.652 24.8319 22.5669 24.8319 22.5669" fill="black"/>
<path d="M36.7223 10.7003C36.7223 10.7003 35.4578 11.4324 31.5198 12.1645M36.161 11.7072C36.161 11.7072 32.7385 12.8235 31.1448 12.9608M34.8131 12.9608C34.8131 12.9608 32.8055 13.591 30.4544 13.9887M33.1 14.2739C33.1 14.2739 30.8316 14.8188 29.7487 14.9092M31.578 15.3449C31.578 15.3449 29.6593 15.745 29.1732 15.7932M30.3567 16.3323C30.3567 16.3323 28.9565 16.545 28.3993 16.5337M28.6173 17.1833C28.6173 17.1833 28.0511 17.1567 27.779 17.1115M28.093 18.0928C28.093 18.0928 27.6119 17.9628 27.3281 17.7809M27.3836 19.0346C27.3836 19.0346 27.0135 18.8918 26.8347 18.502M26.48 19.3822C26.48 19.3822 26.1932 19.1255 26.1747 18.8398M25.4068 19.6063C25.4068 19.6063 25.5141 19.5136 25.4407 19.111M25.5455 18.5198C25.5455 18.5198 25.601 18.4045 25.5825 18.2226M27.5687 12.753C27.5687 12.753 26.921 13.0128 26.7052 13.3701C26.4893 13.7274 26.6315 14.0746 26.7052 14.2738C26.7422 14.374 27.1986 15.2539 26.662 15.8905M27.5595 16.5823C27.5595 16.5823 27.5564 16.5791 27.3281 16.5077M28.9257 15.647C28.9257 15.647 28.5397 15.7247 28.1609 15.7282M29.4593 14.6953C29.4593 14.6953 29.0059 14.7408 28.5803 14.7343M30.1346 13.7014C30.1346 13.7014 29.4808 13.8313 29.1293 13.8378M30.6775 12.5906C30.6775 12.5906 29.871 12.8208 29.2711 12.9024M27.9388 13.3766C27.9388 13.3766 28.5185 13.9158 27.8215 14.416C27.8215 14.416 28.1115 14.8707 27.5317 15.3448M27.6859 15.569C27.6859 15.569 27.7723 16.4361 26.7113 16.4362C26.7113 16.4362 26.9149 17.2093 25.891 17.1833C25.891 17.1833 25.7738 17.8003 25.0335 17.6769M26.6645 24.4653C26.6645 24.4653 26.8323 24.5026 27.1965 24.4653M28.2204 24.92C28.2204 24.92 28.7324 24.842 28.7077 25.9528M27.912 25.1733C27.912 25.1733 28.3745 25.1148 28.3438 26.1932M23.4447 22.5749C23.4447 22.5749 23.6668 22.6203 23.821 22.7958C23.9752 22.9712 24.2713 22.9387 24.2713 22.9387C24.2713 22.9387 24.1109 22.8088 24.0554 22.484C23.9998 22.1592 23.821 22.0618 23.821 22.0618M24.3507 21.7542C24.3507 21.7542 24.5728 21.7996 24.727 21.975C24.8811 22.1504 25.1773 22.1179 25.1773 22.1179C25.1773 22.1179 25.0169 21.988 24.9613 21.6633C24.9058 21.3384 24.727 21.241 24.727 21.241M24.5034 23.015C24.5034 23.015 24.6973 23.0547 24.8319 23.2078C24.9665 23.361 25.225 23.3326 25.225 23.3326C25.225 23.3326 25.085 23.2192 25.0365 22.9356C24.988 22.652 24.8319 22.5669 24.8319 22.5669" stroke="#010002" stroke-width="0.753"/>
<path d="M29.128 20.9956L28.233 24.859L27.8638 24.5938L28.735 20.8924L28.1275 20.9035L29.5694 18.263L29.6656 21.3074L29.128 20.9956ZM31.4387 21.8112L28.7524 24.9853L28.4616 24.6596L31.1376 21.5258L30.5963 21.2352L33.0466 19.6168L31.7743 22.3524L31.4387 21.8112Z" fill="#0081C6" stroke="#010002" stroke-width="0.7525" stroke-miterlimit="10"/>
<path d="M30.788 20.1278L28.3838 24.7506L28.0133 24.5343L30.4337 19.921L29.8442 19.7663L31.886 17.6088L31.2306 20.5756L30.788 20.1278Z" fill="#0081C6" stroke="#010002" stroke-width="0.7525" stroke-miterlimit="10"/>
<path d="M27.7888 26.1606L27.6088 26.8968L28.1018 27.3881L27.4049 30.3313L26.7852 29.4988L25.8668 29.9275L26.5637 26.9842L27.2097 26.8042L27.3773 26.0692C27.3773 26.0692 27.5728 25.9926 27.7888 26.1607V26.1606Z" fill="#0081C6" stroke="#010002" stroke-width="0.753" stroke-miterlimit="10"/>
<path d="M27.9541 25.6751L27.5993 26.3373L27.9548 26.946L26.5584 29.5991L26.1643 28.626L25.1719 28.7898L26.5684 26.1366L27.2366 26.1389L27.5793 25.4746C27.5793 25.4746 27.8285 25.4741 27.9541 25.6753V25.6751Z" fill="#0081C6" stroke="#010002" stroke-width="0.753" stroke-miterlimit="10"/>
<path d="M28.014 25.8678L27.07 27.067L27.2865 27.7445L25.3591 29.9987L25.183 28.9572L24.1811 28.8816L26.1085 26.6274L26.759 26.7877L27.7603 25.5146C27.7603 25.5146 28.029 25.648 28.014 25.8677V25.8678ZM4.09523 23.0562C4.32023 22.9644 4.4823 22.8757 4.48161 22.6356C4.48148 22.5784 4.44973 22.4516 4.3858 22.2556L2.87473 17.6375C2.78523 17.3631 2.71761 17.2 2.68617 17.1399C2.61823 17.0099 2.48492 16.9569 2.3053 16.882H4.22586C4.01723 16.9806 3.82698 17.0589 3.8288 17.2801C3.82942 17.3645 3.85317 17.4836 3.90223 17.6375L5.05973 21.2614L6.21623 17.6375C6.2653 17.4837 6.29061 17.3646 6.2898 17.2801C6.28755 17.0527 6.08948 16.9707 5.8948 16.882H7.75623C7.58598 16.9502 7.4473 17.0036 7.37605 17.1399C7.34461 17.1999 7.27698 17.363 7.18755 17.6374L5.67655 22.2557C5.61261 22.4518 5.58948 22.5806 5.58067 22.6402C5.58067 22.6402 5.51117 22.9323 5.96711 23.0564H4.09523V23.0562ZM36.2972 22.5813V17.3524C36.2972 17.262 36.2823 17.1926 36.2525 17.1443C36.2227 17.0961 36.0929 16.9571 35.9076 16.882H37.6382C37.453 16.9434 37.3232 17.0924 37.2934 17.1421C37.2635 17.1919 37.2487 17.262 37.2487 17.3525V22.5813C37.2487 22.6749 37.2641 22.7465 37.295 22.7963C37.3258 22.846 37.453 22.9674 37.6382 23.0563H35.9077C36.093 22.972 36.2227 22.8422 36.2525 22.794C36.2824 22.7459 36.2972 22.6749 36.2972 22.5815V22.5813Z" fill="#0081C6" stroke="#010002" stroke-width="0.753" stroke-miterlimit="10"/>
<path d="M20.3015 24.3604C20.3015 24.3604 24.9328 22.308 24.9444 17.5602H15.6585C15.6701 22.308 20.3015 24.3604 20.3015 24.3604Z" fill="white" stroke="#010002" stroke-width="0.753"/>
<path d="M16.3726 17.56V20.5935C16.3726 20.5935 16.7272 21.2971 17.0868 21.7383V17.56H16.3726ZM17.8011 17.56V22.5606C17.8011 22.5606 18.2478 22.9986 18.5153 23.2097V17.56H17.8011ZM19.2296 17.56V23.7412C19.2296 23.7412 19.7393 24.0702 19.9441 24.1782V17.56H19.2296ZM24.2296 17.56V20.5935C24.2296 20.5935 23.8749 21.2971 23.5153 21.7383V17.56H24.2296ZM22.8011 17.56V22.5606C22.8011 22.5606 22.3544 22.9986 22.0867 23.2097V17.56H22.8011ZM21.3726 17.56V23.7412C21.3726 23.7412 20.8629 24.0702 20.6581 24.1782V17.56H21.3726Z" fill="#A60032" stroke="#010002" stroke-width="0.7525"/>
<path d="M24.9444 14.1108C24.9444 14.1108 22.6719 15.2996 20.3015 14.0133C17.9311 15.2996 15.6585 14.1108 15.6585 14.1108V17.5602H24.9444V14.1108Z" fill="#162667" stroke="#010002" stroke-width="0.753" stroke-miterlimit="10"/>
</g>
</g>
</g>
<defs>
<clipPath id="clip0_16699_279251">
<rect width="40" height="40" fill="white"/>
</clipPath>
</defs>
</svg>
