<svg width="40" height="40" viewBox="0 0 40 40" fill="none" xmlns="http://www.w3.org/2000/svg">
<g clip-path="url(#clip0_16699_279296)">
<mask id="mask0_16699_279296" style="mask-type:luminance" maskUnits="userSpaceOnUse" x="0" y="0" width="40" height="40">
<path d="M40 0H0V40H40V0Z" fill="white"/>
</mask>
<g mask="url(#mask0_16699_279296)">
<mask id="mask1_16699_279296" style="mask-type:luminance" maskUnits="userSpaceOnUse" x="0" y="0" width="40" height="40">
<path d="M40 20C40 8.95433 31.0457 0 20 0C8.95433 0 0 8.95433 0 20C0 31.0457 8.95433 40 20 40C31.0457 40 40 31.0457 40 20Z" fill="white"/>
</mask>
<g mask="url(#mask1_16699_279296)">
<path d="M50 0H-10V40H50V0Z" fill="#DA251D"/>
<path d="M20.0001 8L12.9401 29.7L31.4201 16.3H8.58008L27.0601 29.7L20.0001 8Z" fill="#FFFF00"/>
</g>
</g>
</g>
<defs>
<clipPath id="clip0_16699_279296">
<rect width="40" height="40" fill="white"/>
</clipPath>
</defs>
</svg>
