<svg width="40" height="40" viewBox="0 0 40 40" fill="none" xmlns="http://www.w3.org/2000/svg">
<g clip-path="url(#clip0_16699_279307)">
<mask id="mask0_16699_279307" style="mask-type:luminance" maskUnits="userSpaceOnUse" x="0" y="0" width="40" height="40">
<path d="M40 0H0V40H40V0Z" fill="white"/>
</mask>
<g mask="url(#mask0_16699_279307)">
<mask id="mask1_16699_279307" style="mask-type:luminance" maskUnits="userSpaceOnUse" x="0" y="0" width="40" height="40">
<path d="M40 20C40 8.95433 31.0457 0 20 0C8.95433 0 0 8.95433 0 20C0 31.0457 8.95433 40 20 40C31.0457 40 40 31.0457 40 20Z" fill="white"/>
</mask>
<g mask="url(#mask1_16699_279307)">
<path d="M60 0H0V20H60V0Z" fill="#D21034"/>
<path d="M60 20H0V40H60V20Z" fill="#009543"/>
<path d="M0 0L38.7939 20L0 40V0Z" fill="black"/>
<path d="M60.0402 16.421H0V23.5789H60.0402V16.421Z" fill="black"/>
<path d="M0 2.84216L33.2808 19.9999L0 37.1576V2.84216Z" fill="#FDCE12"/>
<path d="M60.0522 18.9474H0V21.0526H60.0522V18.9474Z" fill="#FDCE12"/>
<path d="M0 5.21082L28.6864 20L0 34.7891V5.21082Z" fill="black"/>
<path d="M8.10297 23.826C8.10297 23.826 8.10297 25.2714 8.10297 26.1051C10.0856 26.1051 13.9767 24.5859 13.9767 19.6941C13.9767 14.8025 9.82616 13.8945 8.58475 13.8945C7.34332 13.8945 3.50781 14.7839 3.50781 18.7862C3.50781 22.7884 7.26922 23.159 8.01034 23.159C8.7515 23.159 11.5308 22.4919 11.2159 19.4904C11.2159 20.3426 10.2524 22.1399 8.23265 22.1399C6.213 22.1399 4.95308 20.639 4.95308 19.1569C4.95308 17.6744 6.17595 15.6919 8.30675 15.6919C10.4376 15.6919 11.994 17.5817 11.994 19.4904C11.994 21.3987 10.4932 23.826 8.10297 23.826Z" fill="#FDCE12"/>
<path d="M6.36523 20.8597L6.48334 20.9362C6.48334 20.9362 7.42138 18.7961 9.94358 17.2744C9.624 17.4481 7.93556 18.2889 6.36523 20.8597Z" fill="#FDCE12" stroke="#FDCE12" stroke-width="0.0350877"/>
<path d="M6.60937 20.4914C6.60937 20.4914 6.31758 19.8939 6.57464 19.6299C6.83176 19.3659 6.71365 20.3316 6.71365 20.3316L6.82481 20.1719C6.82481 20.1719 6.65106 19.4422 6.84565 19.2894C7.04018 19.1365 6.94292 19.9911 6.94292 19.9911L7.06102 19.8384C7.06102 19.8384 6.93597 19.1296 7.12355 18.9975C7.3112 18.8655 7.19309 19.6646 7.19309 19.6646L7.33204 19.5047C7.33204 19.5047 7.22783 18.8309 7.45709 18.671C7.68643 18.5111 7.48488 19.3102 7.48488 19.3102L7.63772 19.1435C7.63772 19.1435 7.56825 18.525 7.76285 18.3861C7.95737 18.2471 7.79064 18.9697 7.79064 18.9697L7.92958 18.8239C7.92958 18.8239 7.8879 18.2471 8.07548 18.1151C8.26313 17.9831 8.08937 18.664 8.08937 18.664L8.23534 18.525C8.23534 18.525 8.2006 17.9484 8.43683 17.8372C8.673 17.726 8.39516 18.3791 8.39516 18.3791L8.55491 18.2402C8.55491 18.2402 8.60358 17.5662 8.80508 17.5036C9.00658 17.4411 8.71475 18.1012 8.71475 18.1012L8.86067 17.9831C8.86067 17.9831 8.93708 17.4064 9.15941 17.3369C9.38183 17.2674 9.0205 17.865 9.0205 17.865L9.16633 17.7539C9.16633 17.7539 9.32625 17.1771 9.53466 17.1146C9.74316 17.052 9.31925 17.6565 9.31925 17.6565L9.45825 17.5594C9.45825 17.5594 9.6875 17.0381 9.87516 17.0034C10.0627 16.9686 9.66666 17.4342 9.66666 17.4342L9.84041 17.3299C9.84041 17.3299 10.1391 16.788 10.2434 16.9547C10.3476 17.1215 9.8265 17.3647 9.8265 17.3647L9.65275 17.4619C9.65275 17.4619 10.2851 17.1632 10.3615 17.316C10.4379 17.4689 9.49291 17.5662 9.49291 17.5662L9.34008 17.6704C9.34008 17.6704 9.97241 17.4967 9.896 17.6565C9.81958 17.8164 9.19425 17.7816 9.19425 17.7816L9.04825 17.8859C9.04825 17.8859 9.6805 17.733 9.59716 17.8789C9.51383 18.0247 8.89542 18.0109 8.89542 18.0109L8.74258 18.136C8.74258 18.136 9.36091 17.9761 9.27066 18.1639C9.18025 18.3514 8.4785 18.3444 8.4785 18.3444L8.30481 18.5042C8.30481 18.5042 8.95792 18.2819 8.90233 18.4556C8.84675 18.6294 8.10327 18.7196 8.10327 18.7196L7.93653 18.8864C7.93653 18.8864 8.63825 18.6502 8.42983 18.8655C8.22144 19.081 7.71422 19.1365 7.71422 19.1365L7.51267 19.3797C7.51267 19.3797 8.20755 18.9629 8.11022 19.1991C8.01295 19.4354 7.33204 19.5951 7.33204 19.5951L7.19309 19.7619C7.19309 19.7619 7.81843 19.4005 7.7559 19.6021C7.69337 19.8036 7.02629 20.0189 7.02629 20.0189L6.91513 20.1719C6.91513 20.1719 7.65162 19.7341 7.58909 19.9564C7.52657 20.1789 6.82481 20.3386 6.82481 20.3386L6.7345 20.4775C6.7345 20.4775 7.41541 20.0885 7.42236 20.276C7.4293 20.4636 6.62327 20.6514 6.62327 20.6514L6.60937 20.4914Z" fill="#FDCE12"/>
<path d="M10.371 20.8597L10.2529 20.9362C10.2529 20.9362 9.31488 18.7961 6.7926 17.2744C7.11225 17.4481 8.80071 18.2889 10.371 20.8597Z" fill="#FDCE12" stroke="#FDCE12" stroke-width="0.0350877"/>
<path d="M10.127 20.4914C10.127 20.4914 10.4188 19.8939 10.1618 19.6299C9.90462 19.3659 10.0228 20.3316 10.0228 20.3316L9.91162 20.1719C9.91162 20.1719 10.0854 19.4422 9.89071 19.2894C9.69621 19.1365 9.79346 19.9911 9.79346 19.9911L9.67537 19.8384C9.67537 19.8384 9.80046 19.1296 9.61287 18.9975C9.42521 18.8655 9.54329 19.6646 9.54329 19.6646L9.40437 19.5047C9.40437 19.5047 9.50854 18.8309 9.27929 18.671C9.04996 18.5111 9.25154 19.3102 9.25154 19.3102L9.09871 19.1435C9.09871 19.1435 9.16812 18.525 8.97354 18.3861C8.77904 18.2471 8.94579 18.9697 8.94579 18.9697L8.80679 18.8239C8.80679 18.8239 8.84854 18.2471 8.66096 18.1151C8.47329 17.9831 8.64704 18.664 8.64704 18.664L8.50104 18.525C8.50104 18.525 8.53579 17.9484 8.29959 17.8372C8.06338 17.726 8.34129 18.3791 8.34129 18.3791L8.18148 18.2402C8.18148 18.2402 8.13285 17.5662 7.93131 17.5036C7.72983 17.4411 8.02162 18.1012 8.02162 18.1012L7.87573 17.9831C7.87573 17.9831 7.7993 17.4064 7.57699 17.3369C7.3546 17.2674 7.71594 17.865 7.71594 17.865L7.57004 17.7539C7.57004 17.7539 7.41018 17.1771 7.20176 17.1146C6.99327 17.052 7.41713 17.6565 7.41713 17.6565L7.27818 17.5594C7.27818 17.5594 7.04892 17.0381 6.86127 17.0034C6.67369 16.9686 7.06976 17.4342 7.06976 17.4342L6.89601 17.3299C6.89601 17.3299 6.59727 16.788 6.49299 16.9547C6.38878 17.1215 6.9099 17.3647 6.9099 17.3647L7.08366 17.4619C7.08366 17.4619 6.45131 17.1632 6.37488 17.316C6.29846 17.4689 7.24345 17.5662 7.24345 17.5662L7.39629 17.6704C7.39629 17.6704 6.76401 17.4967 6.84043 17.6565C6.91685 17.8164 7.54218 17.7816 7.54218 17.7816L7.68815 17.8859C7.68815 17.8859 7.05587 17.733 7.13924 17.8789C7.2226 18.0247 7.84099 18.0109 7.84099 18.0109L7.99383 18.136C7.99383 18.136 7.37545 17.9761 7.46576 18.1639C7.55615 18.3514 8.2579 18.3444 8.2579 18.3444L8.43162 18.5042C8.43162 18.5042 7.77846 18.2819 7.83404 18.4556C7.88962 18.6294 8.63312 18.7196 8.63312 18.7196L8.79987 18.8864C8.79987 18.8864 8.09811 18.6502 8.30653 18.8655C8.51496 19.081 9.02221 19.1365 9.02221 19.1365L9.22371 19.3797C9.22371 19.3797 8.52887 18.9629 8.62621 19.1991C8.72346 19.4354 9.40437 19.5951 9.40437 19.5951L9.54329 19.7619C9.54329 19.7619 8.91796 19.4005 8.98054 19.6021C9.04304 19.8036 9.71012 20.0189 9.71012 20.0189L9.82129 20.1719C9.82129 20.1719 9.08479 19.7341 9.14729 19.9564C9.20979 20.1789 9.91162 20.3386 9.91162 20.3386L10.0019 20.4775C10.0019 20.4775 9.32096 20.0885 9.31404 20.276C9.30712 20.4636 10.1132 20.6514 10.1132 20.6514L10.127 20.4914Z" fill="#FDCE12"/>
</g>
</g>
</g>
<defs>
<clipPath id="clip0_16699_279307">
<rect width="40" height="40" fill="white"/>
</clipPath>
</defs>
</svg>
