<svg width="40" height="40" viewBox="0 0 40 40" fill="none" xmlns="http://www.w3.org/2000/svg">
<g clip-path="url(#clip0_16699_279357)">
<mask id="mask0_16699_279357" style="mask-type:luminance" maskUnits="userSpaceOnUse" x="0" y="0" width="40" height="40">
<path d="M40 0H0V40H40V0Z" fill="white"/>
</mask>
<g mask="url(#mask0_16699_279357)">
<mask id="mask1_16699_279357" style="mask-type:luminance" maskUnits="userSpaceOnUse" x="0" y="0" width="40" height="40">
<path d="M40 20C40 8.95433 31.0457 0 20 0C8.95433 0 0 8.95433 0 20C0 31.0457 8.95433 40 20 40C31.0457 40 40 31.0457 40 20Z" fill="white"/>
</mask>
<g mask="url(#mask1_16699_279357)">
<path d="M40 20C40 8.95433 31.0457 0 20 0C8.95433 0 0 8.95433 0 20C0 31.0457 8.95433 40 20 40C31.0457 40 40 31.0457 40 20Z" fill="#244AA5"/>
<path d="M-5 3H45V36.3333H-5V3Z" fill="#244AA5"/>
<path d="M20.2516 13.5631C20.4469 13.791 20.5776 14.0187 20.5776 14.2956C20.4138 14.3767 20.1873 14.4098 20.0564 14.5562C20.8704 14.442 21.0325 15.3859 21.9441 15.0277C21.9773 15.1584 22.1079 15.2725 22.27 15.2232L22.3678 14.9632C22.725 14.8656 22.6274 15.4512 23.0194 15.3371C23.2149 15.5001 23.0841 15.7764 23.2149 15.9725C23.2149 16.1999 23.3125 16.3952 23.41 16.5903C23.5078 16.477 23.5721 16.314 23.8004 16.3629C23.9626 16.5416 24.0934 16.7045 24.1263 16.8997C24.0601 17.2745 23.9625 17.5996 24.3529 17.7947V17.9089C24.6144 18.023 25.2 17.7947 25.2 18.2505C25.1669 18.4135 25.3621 18.2671 25.4284 18.3647C25.5905 18.2993 25.8189 18.3325 26.0139 18.3325C26.1761 18.6741 25.8189 18.9181 25.7211 19.2275C25.8833 19.3896 25.8189 19.6833 25.7858 19.8776L25.688 19.9264C25.9478 19.9752 26.2736 19.895 26.502 20.0414L26.9255 20.2035C27.1208 20.0903 27.3474 20.0729 27.6089 20.0903C27.804 20.2367 27.5426 20.4807 27.7065 20.594C27.9349 20.594 28.13 20.6272 28.1614 20.8224L28.1945 20.8869C28.3566 20.594 28.8133 20.7892 29.0085 20.5784C29.3344 20.5784 29.3989 20.9357 29.5609 21.131C29.6273 21.6364 29.0085 21.8648 29.2038 22.3685C29.073 22.6124 28.8133 22.8078 28.618 23.036C28.6825 23.0691 28.6494 23.1493 28.6494 23.1981C28.4543 23.3132 28.618 23.6548 28.3566 23.6863C28.3253 23.8988 27.9348 23.817 28.0638 24.0452C28.3251 24.3869 27.9348 24.5978 27.9348 24.908C27.7709 25.0875 27.445 24.7442 27.445 25.0875C27.2498 25.1363 27.0545 24.908 26.9255 25.1033C26.8594 25.3316 27.0545 25.4118 27.0233 25.6401C27.3474 25.607 27.445 25.9329 27.5758 26.1282L27.9018 26.4541C27.5758 26.7138 27.1523 26.4209 26.7618 26.5673C26.664 26.5186 26.7618 26.3896 26.664 26.3408C26.5664 26.2257 26.3713 26.2257 26.2091 26.1943C26.2405 26.3408 25.9478 26.3895 26.0784 26.5673C26.0784 26.6161 26.1429 26.7625 26.0139 26.7625C25.7525 26.8445 25.7856 26.536 25.5573 26.6492C25.2644 26.7625 25.4928 27.2018 25.0693 27.153C25.1338 27.5452 24.4191 27.8049 24.9071 28.1465C24.9715 28.2111 24.9384 28.3417 24.9384 28.4394C24.6456 28.7008 24.1261 28.6032 23.8003 28.5056C23.5389 28.4394 23.7026 28.1134 23.605 27.9356C23.5074 27.7718 23.2146 27.6585 23.2146 27.4302C23.0193 27.3499 22.8555 27.2996 22.7249 27.1373C22.2699 27.5766 21.7159 28.0001 21.0655 28.0158C20.7728 28.1622 20.6089 28.7496 20.1539 28.5055C19.9753 28.7984 19.4375 28.5055 19.4053 28.9274C19.1934 29.0093 19.2911 29.2864 19.1613 29.4154C19.1124 29.7413 19.1613 30.0184 19.4375 30.2138C19.5516 30.4577 19.1935 30.4577 19.3399 30.6861C19.373 30.7663 19.3399 30.8813 19.2911 30.9144C19.1935 30.9632 19.1613 31.0121 19.1934 31.1096C19.1124 31.1096 19.0794 31.1584 19.0149 31.2229C18.9329 31.3851 18.6731 31.4669 18.4936 31.5802C18.315 31.629 18.1843 31.5 18.0709 31.3851C18.0379 31.5646 17.8914 31.6622 17.7129 31.6622C17.4523 31.6622 17.501 31.4338 17.3058 31.3363C17.3869 31.0434 17.1263 30.9144 17.2081 30.653C17.4199 30.4909 17.7773 30.3758 17.6796 30.0343C17.4523 29.7588 17.5333 29.3509 17.3058 29.025C17.1594 28.896 16.9154 28.7009 16.9964 28.3906C17.2081 28.1466 16.9964 27.8537 16.8823 27.594C16.8334 27.3814 16.7036 27.1862 16.7036 26.9422C16.3454 26.7313 16.3289 26.177 15.8243 26.1282C15.4661 26.1282 15.4015 25.6732 15.0434 25.7046C15.0104 25.6401 14.9293 25.5914 14.8639 25.5268C14.6041 25.7046 14.2783 25.478 13.9531 25.5582C13.7414 25.2009 14.1319 24.7128 13.5619 24.5001V24.2736C13.6273 24.3049 13.6595 24.2404 13.676 24.2073C13.7083 23.9633 13.269 23.9319 13.4485 23.6547C13.3509 23.5729 13.2369 23.5397 13.3021 23.3776C13.0574 22.8739 12.3253 22.9227 12.1623 22.4173C12.2929 22.304 12.2929 22.1889 12.3419 22.0914C12.2276 21.8961 12.1954 21.6852 12.2276 21.4743C12.3419 21.4411 12.4063 21.2948 12.4716 21.1797C12.3253 21.0821 12.1465 20.9357 11.9835 20.9845C11.6908 20.9357 11.4789 20.7091 11.2184 20.5784C11.153 20.5139 11.1861 20.3989 11.1861 20.3187C11.5444 20.2036 11.1374 19.699 11.5766 19.7644C11.6909 19.618 11.9348 19.5692 12.1135 19.455C12.293 19.4228 12.4394 19.4881 12.618 19.537C12.7645 19.7313 13.0251 19.6503 13.1714 19.8132C13.3179 19.7801 13.4974 19.699 13.676 19.7801C13.676 19.5038 13.8059 19.3408 14.0019 19.1456C14.0343 19.0323 14.2129 18.9504 14.3594 18.8859C14.6365 18.9504 14.9615 18.9504 15.1576 18.7552C15.2875 18.837 15.4018 18.6741 15.5481 18.6741C15.7268 18.641 15.8731 18.6898 16.0039 18.7717C16.0195 18.4458 16.5895 18.7229 16.7038 18.3325C16.8336 18.0719 16.3455 17.9743 16.3778 17.746C16.2968 17.4854 16.4919 17.3555 16.5895 17.1769C16.7036 17.128 16.8335 17.0627 16.9799 17.0949C17.3548 16.965 17.0619 16.1999 17.664 16.477C17.664 16.5581 17.6309 16.6557 17.6798 16.6723C17.8915 16.6723 17.924 16.428 18.0711 16.3464C18.1355 16.1189 17.9893 15.8418 18.1844 15.6631C18.282 15.6466 18.3639 15.6143 18.4284 15.5324C18.4284 15.3537 18.3309 15.2561 18.1844 15.1419C18.1356 15.2233 18.0058 15.1585 17.924 15.1908C17.924 14.9955 17.8104 14.8657 17.7774 14.6861C17.6798 14.6373 17.6309 14.5563 17.664 14.4421C17.8104 14.2957 17.664 13.9375 18.0058 14.0187C18.1356 13.9053 18.3639 13.9863 18.4938 13.7911C18.8354 13.5959 19.2911 13.5959 19.5518 13.2377C19.6659 13.2542 19.7959 13.1401 19.9099 13.2377C19.9423 13.4494 20.2516 13.3675 20.2516 13.5631Z" fill="#D0A650"/>
<path d="M22.772 9.14992L22.3219 7.7666L21.8774 9.14992H20.4219L21.5997 10.0055L21.1497 11.3888L22.3219 10.5333L23.4997 11.3888L23.0497 10.0055L24.2275 9.14992H22.772Z" fill="white"/>
<path d="M27.35 9.95557L26.9 8.57782L26.4556 9.95557H25L26.1778 10.8111L25.7278 12.1945L26.9 11.3389L28.0778 12.1945L27.6278 10.8111L28.8056 9.95557H27.35Z" fill="white"/>
<path d="M31.7172 11.5443L31.2727 10.1665L30.8227 11.5443H29.3672L30.545 12.3998L30.095 13.7832L31.2727 12.9276L32.445 13.7832L31.995 12.3998L33.1727 11.5443H31.7172Z" fill="white"/>
<path d="M18.1234 9.14992L17.679 7.7666L17.229 9.14992H15.7734L16.9513 10.0055L16.5013 11.3888L17.679 10.5333L18.8513 11.3888L18.4013 10.0055L19.579 9.14992H18.1234Z" fill="white"/>
<path d="M13.5453 9.95539L13.1009 8.57764L12.6509 9.95539H11.1953L12.3731 10.811L11.9231 12.1943L13.1009 11.3386L14.2731 12.1943L13.8231 10.811L15.0009 9.95539H13.5453Z" fill="white"/>
<path d="M9.17817 11.5443L8.72817 10.1665L8.28368 11.5443H6.82812L8.00591 12.3998L7.55591 13.7832L8.72817 12.9276L9.90592 13.7832L9.45592 12.3998L10.6337 11.5443H9.17817Z" fill="white"/>
</g>
</g>
</g>
<defs>
<clipPath id="clip0_16699_279357">
<rect width="40" height="40" fill="white"/>
</clipPath>
</defs>
</svg>
