<svg width="40" height="40" viewBox="0 0 40 40" fill="none" xmlns="http://www.w3.org/2000/svg">
<g clip-path="url(#clip0_16699_279375)">
<mask id="mask0_16699_279375" style="mask-type:luminance" maskUnits="userSpaceOnUse" x="0" y="0" width="40" height="40">
<path d="M40 20C40 8.95431 31.0457 0 20 0C8.95431 0 0 8.95431 0 20C0 31.0457 8.95431 40 20 40C31.0457 40 40 31.0457 40 20Z" fill="white"/>
</mask>
<g mask="url(#mask0_16699_279375)">
<mask id="mask1_16699_279375" style="mask-type:luminance" maskUnits="userSpaceOnUse" x="-7" y="0" width="54" height="40">
<path d="M-6.66675 0H46.6666V40H-6.66675V0Z" fill="white"/>
</mask>
<g mask="url(#mask1_16699_279375)">
<path fill-rule="evenodd" clip-rule="evenodd" d="M9.56567 0H30.4365V40H9.56567V0Z" fill="white"/>
<path fill-rule="evenodd" clip-rule="evenodd" d="M-6.66675 0H9.56575V40H-6.66675V0ZM30.4358 0H46.6666V40H30.4358V0Z" fill="#198200"/>
<path fill-rule="evenodd" clip-rule="evenodd" d="M19.4583 29.2742V33.66L21.2309 33.6783C21.2309 33.6783 20.6644 29.8589 20.9751 29.3472C21.2857 28.8356 21.5781 28.9087 21.5781 28.9087C21.5781 28.9087 22.7293 29.2559 22.8572 29.2012C22.9852 29.1462 22.839 28.7625 23.4603 28.8173C23.6613 28.7442 23.5517 28.397 23.7345 28.3787C23.9172 28.3604 27.4442 29.3656 28.2117 28.4153C28.0107 27.8853 27.3162 28.3787 27.1335 28.397C26.969 28.397 26.2747 28.0681 25.8725 28.397C25.507 28.1229 23.8441 27.9402 23.8441 27.9402C23.6247 27.7208 27.8096 28.0498 28.0472 27.8853C28.5405 27.3919 27.1335 27.4467 26.9142 27.6112C26.5243 27.3737 26.0354 27.392 25.7369 27.5564C25.5937 27.2141 24.2339 27.3615 23.4786 27.264C23.2368 27.1222 23.2782 27.0416 23.442 26.9534C25.0197 27.0204 26.5897 27.2251 28.175 27.1544C28.6035 26.5957 27.6352 26.3862 27.042 26.8619C26.6937 26.2893 25.9821 26.8437 25.507 26.7889C25.0319 26.7341 25.2512 26.1493 25.8542 26.2406C26.4572 26.332 27.5354 26.2042 27.7365 25.93C27.9375 25.6559 27.6165 25.3775 26.6217 25.6377C26.2851 25.3086 25.5436 25.6377 25.1964 25.7472C24.7345 25.4896 23.6614 25.7107 23.2959 25.8021C22.9382 25.5797 25.1782 25.2173 25.1782 25.2173C26.0428 25.202 26.5305 25.0528 26.8045 24.9797C28.1117 24.2791 26.7858 24.2045 26.0998 24.7137C25.674 24.3812 25.2696 24.7421 24.8857 24.8701C24.502 24.998 23.771 25.0894 23.771 25.0346C23.771 24.9797 24.8127 24.3401 24.8127 24.3401C24.8127 24.3401 26.0918 24.2487 26.3477 24.2122C26.6035 24.1756 27.9128 23.5037 26.1284 23.9564C25.5071 24.0112 25.1416 23.9747 24.904 23.9929C23.5263 23.8504 25.0319 23.7188 25.0319 23.7188C25.0319 23.7188 26.9825 23.5395 27.0055 23.4447C27.0438 22.6842 25.4157 23.0427 25.3974 23.0427C25.4022 22.4993 23.8807 23.061 23.8807 23.0427C23.5899 22.8713 24.0452 22.6955 24.0452 22.6955C24.4472 22.598 25.0482 22.5694 25.2054 22.4413C25.2054 22.4413 26.3409 22.4304 26.4757 22.129C26.1972 21.3607 24.0737 22.2653 23.7893 22.4032C23.4056 22.4032 24.0452 21.7817 24.0635 21.7635C24.0817 21.7452 25.8177 21.6722 26.6402 20.5574C26.6972 19.8788 25.6716 20.9412 25.6716 20.9412C25.5951 20.0612 24.5568 20.996 23.9538 21.0692C23.3509 21.1422 23.3326 20.795 23.7529 20.7402C24.1732 20.6853 24.6483 20.7219 24.8859 20.0823C25.1234 19.4427 25.8362 20.1188 25.9641 19.8813C26.092 19.6437 25.7082 19.4427 25.7082 19.4427C25.7082 19.4427 26.2382 18.8945 25.3793 18.9127C24.5204 18.9311 23.4057 18.8032 23.4057 18.8032C23.4057 18.8032 24.3012 18.4559 25.1417 18.4742C25.9824 18.4925 25.5255 17.8712 24.7214 17.8712C23.9174 17.8712 23.4971 17.597 23.4971 17.597L24.8677 17.0853L24.7762 16.7016C24.7762 16.7016 25.5803 16.062 24.4473 16.2082C23.3143 16.3544 23.1865 16.3727 23.1865 16.3727C23.1865 16.3727 20.9204 16.7199 20.9022 16.7199C20.8838 16.7199 20.2808 16.5372 20.8656 16.3909C21.4504 16.2447 23.5153 15.8244 23.826 15.9341C24.1367 16.0437 23.7895 15.1666 22.693 15.0569C21.5966 14.9473 20.9205 15.3311 20.9205 15.3311C20.9205 15.3311 20.2077 15.0752 20.8657 14.8559C21.5235 14.6367 22.5652 14.929 22.5652 14.929C22.5652 14.929 23.7347 14.5818 22.7662 14.4357C21.7977 14.2894 21.4922 14.5665 21.0484 14.5818C20.8712 14.3607 22.5688 14.3078 22.6747 14.1249C22.4957 13.7959 21.4443 14.1249 20.8291 14.1249C20.5674 14.0139 20.5505 13.8339 20.8474 13.7229C21.4748 13.6985 22.0639 13.7354 22.6914 13.711C22.6731 13.376 22.6931 12.9797 22.6747 12.6447C21.8789 12.4993 20.9452 12.7497 20.4985 12.7285C20.618 12.3629 22.3374 12.2692 22.5287 12.1697C22.9266 11.6723 20.8474 12.1697 20.8292 12.1697C20.4665 12.1161 20.49 11.8872 20.7195 11.7493C21.2495 11.6885 22.4375 11.8265 22.3476 11.4672C22.2787 11.1305 21.5235 11.3107 21.2128 11.3838C20.9022 11.4569 20.4453 11.4022 20.4453 11.4022C20.2464 11.1343 22.2362 11.2432 22.2179 11.0367C22.192 10.7994 20.9569 10.9636 20.5367 10.9818C20.2083 10.7552 22.1142 10.6057 22.1448 10.5798C22.2137 9.97233 20.8657 10.5798 20.6098 10.5798C20.354 10.5798 20.4819 10.1961 20.4819 10.1961C20.4819 10.1961 21.0119 9.9585 20.9936 9.92191C20.9752 9.88541 20.5916 9.7575 20.555 9.7575C20.5185 9.7575 20.555 9.33716 20.555 9.33716C20.555 9.33716 20.9936 9.00825 20.9571 8.91683C20.9204 8.8255 20.4454 8.98991 20.4454 8.98991V8.6245C20.4454 8.6245 20.7926 8.58791 20.8292 8.42341C20.8657 8.25902 20.4088 8.24077 20.4088 8.24077L20.2261 6.32202L20.0617 8.11285L19.4586 8.20419C19.4586 8.20419 19.8789 8.44166 19.952 8.67925C20.0251 8.91683 19.4403 8.84375 19.4403 8.84375C19.4403 8.84375 19.9154 9.24575 19.952 9.392C19.9885 9.53816 19.2941 9.57475 19.2941 9.57475C19.2941 9.57475 19.8789 9.995 19.9154 10.2326C19.9521 10.4702 19.9154 10.5981 19.9154 10.5981C19.9154 10.5981 18.9469 9.7575 18.3255 9.995C18.0027 10.1637 19.0652 10.2417 19.7692 10.8539C19.7675 10.9902 18.0594 10.4379 17.9967 10.7808C18.0362 10.8762 19.8205 11.1325 19.9519 11.3657C19.3002 11.39 17.952 11.223 17.9966 11.4387C17.8604 11.6877 19.2699 11.5463 19.8605 11.7494C20.0337 11.9461 20.0156 12.1124 19.7143 12.1332C19.145 11.8609 17.8717 11.6576 17.8687 12.0052C17.8764 12.098 19.185 12.0377 19.6595 12.3524C19.0262 12.4966 16.8776 12.0592 16.864 12.2722C16.9252 12.3716 17.2657 12.8092 17.8503 12.791C18.4352 12.7727 19.7873 13.0285 19.8787 13.2113C19.9701 13.3941 18.1244 12.8276 17.43 13.1565C16.7357 13.4854 19.4218 13.2844 19.8604 13.6865C20.2991 14.0885 18.9832 13.6498 18.9832 13.6498C18.9832 13.6498 17.1558 13.394 16.8817 13.5219C16.6076 13.6499 16.297 13.9422 16.297 13.9422C16.297 13.9422 16.4797 14.3077 16.6625 14.2347C16.8452 14.1616 16.6077 14.4539 16.6077 14.4539C16.6077 14.4539 19.166 15.0752 19.7326 15.6235C20.2991 16.1718 16.4797 14.7647 16.4797 14.7647C16.4797 14.7647 14.9447 15.3312 16.5711 15.3677C16.3839 15.6415 16.6625 15.8062 16.6625 15.8062C16.6625 15.8062 19.3671 16.3727 19.6412 16.8112C19.9153 17.2499 17.7955 16.391 17.3203 16.1535C16.8452 15.9159 15.4928 16.2997 15.5112 16.391C15.5295 16.4824 16.1691 16.6103 16.1873 16.7747C16.2057 16.9392 15.4016 16.9941 15.4016 17.1402C15.4016 17.2865 18.8188 17.9992 19.7326 18.7667C20.6462 19.5342 17.0462 17.853 17.0462 17.853C17.0462 17.853 17.2472 18.1271 17.0462 18.2002C16.8452 18.2732 16.1326 17.1768 14.963 17.853C14.75 18.1312 15.9832 18.3523 16.297 18.383C16.1898 18.6584 16.096 18.7484 16.5346 19.0225C16.9732 19.2967 15.6757 18.6205 15.6757 18.657C15.6757 18.6936 15.7671 19.1322 15.7671 19.1322C15.3622 18.8032 14.8732 18.7039 14.4147 19.0407C14.4147 19.0407 14.3964 19.3697 14.8716 19.5707C14.6122 20.1008 15.164 19.9362 16.0412 20.4296C14.7375 20.0889 14.6341 20.7221 15.5661 20.8682C16.4981 21.0142 19.0564 21.1057 19.6594 21.8915C20.2625 22.6773 18.8027 21.5902 18.6361 21.5626C18.5996 21.5809 18.563 21.9647 18.563 21.9647C18.1732 21.739 17.8138 21.5363 17.3476 21.4407C17.311 21.5137 17.3204 21.6175 17.2838 21.6905C16.8607 21.3853 16.4912 21.172 15.8767 21.1423L15.8036 21.4347C15.8036 21.4347 15.2919 20.7951 14.2868 21.4347C13.7256 21.8371 16.4067 21.5809 16.8452 22.0561C17.2838 22.5312 16.9366 22.6042 16.9366 22.6042C16.5711 22.4703 16.2057 22.3362 15.8402 22.2022C15.8402 22.2022 14.5427 21.9647 14.1772 22.257C13.8117 22.5495 19.5133 23.2621 19.6777 24.0479C19.7886 24.4741 18.3377 23.6005 17.0828 23.2256L16.9366 23.6459C16.9366 23.6459 16.4382 23.1452 15.8767 23.0611C15.8583 23.0611 15.9863 23.5546 15.9863 23.5546C15.9863 23.5546 14.5792 22.8967 13.8666 23.2438C13.1538 23.5911 16.3519 23.7738 16.6442 24.1027C16.9366 24.4317 15.6757 23.8835 15.5661 24.1027C15.4563 24.3221 13.9031 23.7007 13.9213 23.9931C13.9396 24.2856 14.1406 24.45 14.1406 24.45C14.1406 24.45 17.3751 24.7606 17.4848 25.1444C17.5945 25.5282 15.694 24.9251 15.694 24.9251C15.694 24.9251 15.5112 25.1992 15.6573 25.3271C15.8036 25.4551 14.5609 24.5962 14.6705 25.1627C14.2676 25.0022 13.2268 24.5048 13.3731 24.8886C13.5193 25.2723 16.3152 25.8206 16.3152 25.8206C16.3152 25.8206 15.0908 25.9119 15.1457 26.2227C13.5707 25.2631 13.6107 25.8753 13.6472 25.8937C13.6838 25.912 11.6188 25.382 13.1721 26.2227C14.7254 27.0632 14.0127 26.917 14.031 26.9353C14.0492 26.9536 14.1954 27.3556 14.1588 27.3556C14.1223 27.3556 13.0989 26.8073 12.7517 26.7708C12.4045 26.7342 10.7598 27.2277 12.5142 27.9952C14.2687 28.7627 15.3467 27.8124 16.3152 27.9221C17.2837 28.0317 17.7405 28.1962 17.6492 28.5069C17.5578 28.8175 16.6597 27.4888 15.7146 28.6382C14.6394 28.4254 13.9097 28.302 14.4647 29.0921C12.7089 28.4359 11.6369 29.2927 13.8482 29.6399C16.0211 29.7039 17.3567 29.1099 17.3567 29.1099C17.3567 29.1099 17.7222 29.7861 18.2522 29.3109C18.7822 28.8358 18.8005 29.4937 18.8187 29.4937C18.837 29.4937 19.3304 29.2743 19.3304 29.2743H19.4583V29.2742Z" fill="#198200" stroke="black" stroke-width="0.371" stroke-linecap="round" stroke-linejoin="round"/>
<path fill-rule="evenodd" clip-rule="evenodd" d="M19.6724 26.68V26.3739C19.6724 26.3739 18.9821 26.2514 18.6455 26.3203C18.4462 26.2061 18.2578 26.0556 18.0195 26.1826C17.9736 26.282 18.4558 26.5422 18.6165 26.5422C18.8047 26.6614 19.6724 26.6953 19.6724 26.68ZM19.664 27.1775C19.664 27.1775 18.9739 26.9251 18.6984 27.2158C18.7434 27.525 19.5111 27.6749 19.6718 27.5907C19.8325 27.5065 19.6717 27.1928 19.664 27.1775ZM20.8274 27.3V27.5142C20.8274 27.5142 21.6538 27.6749 21.7992 27.499C21.9445 27.323 21.1411 27.2081 20.8274 27.3ZM20.7899 26.4458L20.8204 26.6875C20.8204 26.6875 21.532 26.8482 21.8075 26.458C22.0829 26.0677 21.182 26.4611 20.7899 26.4458ZM20.8274 25.6166V25.7773C20.8274 25.7773 21.363 25.8615 21.4855 25.632C21.608 25.4024 20.8427 25.632 20.8274 25.6166ZM19.7091 25.1216C19.6267 25.0041 19.3357 24.713 18.5552 24.6288C18.0127 24.627 19.5351 25.427 19.7091 25.1216ZM20.8124 24.3075C20.8124 24.3075 20.7818 24.5294 20.7894 24.5294C20.797 24.5294 22.6259 23.986 23.0544 24.0244C23.4371 23.916 23.5135 23.6494 23.4982 23.6494C23.1715 23.4113 21.5929 23.8407 20.8124 24.3075ZM20.8507 23.6575C20.843 23.6958 20.8277 23.8717 20.8277 23.8717C20.8277 23.8717 22.1209 23.6192 22.4653 23.3744C22.8096 23.1295 20.8661 23.6652 20.8507 23.6575ZM20.7974 23.0225L20.7975 23.2382C20.7975 23.2382 21.6607 23.2119 21.8381 23.0378C21.9514 22.8636 21.0773 23.013 20.7974 23.0225ZM22.5982 24.8341C22.5982 24.8341 23.0465 24.8968 23.1307 24.7667C23.1142 24.5359 22.5982 24.8417 22.5982 24.8341ZM20.8349 22.2191C20.8272 22.2574 20.8425 22.6935 20.8425 22.6935C20.8425 22.6935 22.9162 22.0355 23.0463 21.913C23.1764 21.7905 23.4651 21.422 20.8349 22.2191ZM20.774 21.5608V21.9051C20.774 21.9051 21.6081 21.8439 21.9908 21.5301C22.3734 21.2165 20.774 21.5685 20.774 21.5608ZM19.7715 20.78L19.8252 21.0937C19.8252 21.0937 17.078 20.206 17.0857 20.206C17.0933 20.206 16.9474 19.7539 19.7715 20.78ZM19.8174 19.6783C19.8097 19.7089 19.8097 19.9766 19.802 19.9691C19.7944 19.9614 17.8967 19.1733 17.8279 19.2421C17.5759 18.6516 19.8174 19.6935 19.8174 19.6783ZM20.7433 20.1683C20.7433 20.176 20.7738 20.4361 20.7738 20.4361C20.7738 20.4361 21.937 20.1913 22.0059 20.0765C22.0748 19.9617 20.7433 20.176 20.7433 20.1683ZM20.7707 20.7875C20.7815 20.8533 20.8044 21.063 20.8044 21.063C20.8044 21.063 21.2712 21.0247 21.34 20.9175C21.409 20.8105 20.7707 20.7951 20.7707 20.7875ZM20.6974 19.3725C20.6974 19.3955 20.705 19.6326 20.705 19.6326C20.705 19.6326 21.9829 19.3801 22.1206 19.2576C22.2584 19.1353 20.6744 19.3725 20.6974 19.3725ZM20.7049 18.6683C20.7049 18.6836 20.659 18.9285 20.6895 18.9285C20.72 18.9285 22.243 18.6683 22.4801 18.454C22.7175 18.2398 20.7278 18.6913 20.7049 18.6683ZM20.6824 17.4283V17.6961C20.6824 17.6961 21.6695 17.4895 21.8532 17.2829C22.0369 17.0762 20.6824 17.4436 20.6824 17.4283ZM20.5141 15.6225L20.5371 16.028C20.5371 16.028 21.8609 15.8444 22.052 15.6225C22.2434 15.4005 20.5065 15.6225 20.5141 15.6225ZM19.9015 12.585V12.8375C19.9015 12.8375 19.274 12.8069 19.427 12.6997C19.58 12.5925 19.9015 12.6079 19.9015 12.585ZM20.4832 12.9216L20.4985 13.266C20.4985 13.266 21.3096 13.1895 21.3709 13.0593C21.432 12.9293 20.4985 12.9216 20.4832 12.9216ZM20.4374 13.4191C20.4374 13.4191 20.4527 13.6334 20.468 13.6334C20.4833 13.6334 20.7894 13.6105 20.8582 13.5263C20.927 13.4421 20.468 13.4345 20.4374 13.4191ZM19.749 14.3983C19.749 14.4212 19.772 14.7274 19.7566 14.7196C19.7413 14.7119 17.9814 14.207 17.8206 14.2146C17.66 14.2223 17.614 13.809 19.749 14.3983ZM19.894 14.9725C19.894 15.0337 19.9324 15.355 19.871 15.3398C19.8099 15.3245 18.6774 14.9648 18.7921 14.8577C18.9069 14.7505 19.894 14.9955 19.894 14.9725ZM19.7949 17.39L19.8025 17.6808C19.8025 17.6808 17.8284 17.0839 17.7595 16.9845C17.6906 16.885 17.4992 16.4182 19.7949 17.39ZM19.8708 18.1016C19.8708 18.1093 19.886 18.3771 19.8784 18.3771C19.8707 18.3771 17.1926 17.436 17.1926 17.436C17.1926 17.436 16.9784 16.7319 19.8708 18.1016Z" fill="white" stroke="black" stroke-width="0.396" stroke-linecap="round" stroke-linejoin="round"/>
<path fill-rule="evenodd" clip-rule="evenodd" d="M16.6883 27.39C16.6883 27.3992 16.6791 27.6831 16.6791 27.6831C16.6791 27.6831 16.1571 27.5365 15.9923 27.2435C16.2946 27.1611 16.6975 27.3992 16.6883 27.39Z" fill="white" stroke="black" stroke-width="0.396" stroke-linejoin="round"/>
</g>
</g>
</g>
<defs>
<clipPath id="clip0_16699_279375">
<rect width="40" height="40" fill="white"/>
</clipPath>
</defs>
</svg>
