<svg width="40" height="40" viewBox="0 0 40 40" fill="none" xmlns="http://www.w3.org/2000/svg">
<g clip-path="url(#clip0_16699_279401)">
<mask id="mask0_16699_279401" style="mask-type:luminance" maskUnits="userSpaceOnUse" x="0" y="0" width="40" height="40">
<path d="M40 20C40 8.95431 31.0457 0 20 0C8.95431 0 0 8.95431 0 20C0 31.0457 8.95431 40 20 40C31.0457 40 40 31.0457 40 20Z" fill="white"/>
</mask>
<g mask="url(#mask0_16699_279401)">
<mask id="mask1_16699_279401" style="mask-type:luminance" maskUnits="userSpaceOnUse" x="-7" y="0" width="54" height="40">
<path d="M-6.66669 0H46.6666V40H-6.66669V0Z" fill="white"/>
</mask>
<g mask="url(#mask1_16699_279401)">
<path fill-rule="evenodd" clip-rule="evenodd" d="M6.10352e-05 0H40.0001V40H6.10352e-05V0Z" fill="white"/>
<path fill-rule="evenodd" clip-rule="evenodd" d="M6.10352e-05 0H13.3334V40H6.10352e-05V0Z" fill="#00267F"/>
<path fill-rule="evenodd" clip-rule="evenodd" d="M26.6667 0H40.0001V40H26.6667V0Z" fill="#F31830"/>
</g>
</g>
</g>
<defs>
<clipPath id="clip0_16699_279401">
<rect width="40" height="40" fill="white"/>
</clipPath>
</defs>
</svg>
