<svg width="40" height="40" viewBox="0 0 40 40" fill="none" xmlns="http://www.w3.org/2000/svg">
<g clip-path="url(#clip0_16699_279413)">
<mask id="mask0_16699_279413" style="mask-type:luminance" maskUnits="userSpaceOnUse" x="0" y="0" width="40" height="40">
<path d="M40 0H0V40H40V0Z" fill="white"/>
</mask>
<g mask="url(#mask0_16699_279413)">
<mask id="mask1_16699_279413" style="mask-type:luminance" maskUnits="userSpaceOnUse" x="0" y="0" width="40" height="40">
<path d="M40 20C40 8.95433 31.0457 0 20 0C8.95433 0 0 8.95433 0 20C0 31.0457 8.95433 40 20 40C31.0457 40 40 31.0457 40 20Z" fill="white"/>
</mask>
<g mask="url(#mask1_16699_279413)">
<path d="M59.9251 0H0V40H59.9251V0Z" fill="#000C8A"/>
<path d="M59.9251 0H0V20H59.9251V0Z" fill="#E1392D"/>
<path d="M0 0H11.985L31.9101 13.3333H59.9251V26.6667H31.9101L11.985 40H0V0Z" fill="white"/>
<path d="M0 0H7.26592L31.0861 15.9551H59.9251V24.0449H31.0861L7.26592 40H0V0Z" fill="#007847"/>
<path d="M0 4.86877L22.7715 19.9999L0 35.131V4.86877Z" fill="#FFB915"/>
<path d="M0 8.01501L17.9775 20L0 31.985V8.01501Z" fill="black"/>
</g>
</g>
</g>
<defs>
<clipPath id="clip0_16699_279413">
<rect width="40" height="40" fill="white"/>
</clipPath>
</defs>
</svg>
