<svg width="40" height="40" viewBox="0 0 40 40" fill="none" xmlns="http://www.w3.org/2000/svg">
<g clip-path="url(#clip0_16699_279428)">
<mask id="mask0_16699_279428" style="mask-type:luminance" maskUnits="userSpaceOnUse" x="0" y="0" width="40" height="40">
<path d="M40 0H0V40H40V0Z" fill="white"/>
</mask>
<g mask="url(#mask0_16699_279428)">
<mask id="mask1_16699_279428" style="mask-type:luminance" maskUnits="userSpaceOnUse" x="0" y="0" width="40" height="40">
<path d="M40 20C40 8.95433 31.0457 0 20 0C8.95433 0 0 8.95433 0 20C0 31.0457 8.95433 40 20 40C31.0457 40 40 31.0457 40 20Z" fill="white"/>
</mask>
<g mask="url(#mask1_16699_279428)">
<path d="M30.0007 12.8568H15.7148V39.9997H30.0007V12.8568Z" fill="#DE2010"/>
<path d="M40.0007 12.8568H25.7148V39.9997H40.0007V12.8568Z" fill="#EF7D00"/>
<path d="M32.8578 12.8568H25.7148V39.9997H32.8578V12.8568Z" fill="black"/>
<path d="M-20 0H40V14.2857H18.5714V40H-20V0Z" fill="#198A00"/>
<path d="M30.0261 7.46369C30.0261 7.46369 31.8685 6.74165 32.047 6.59277C32.1281 6.6821 31.3083 7.59024 29.7176 7.92522C31.1622 7.61257 32.396 6.62999 32.6475 6.65977C32.7206 6.67465 32.7042 7.62002 29.3931 8.43883C31.6816 7.88798 33.0126 6.87563 32.9965 6.98729C33.0126 7.00962 32.7692 7.78377 30.7646 8.38675C31.3246 8.2676 32.8422 7.41903 32.8261 7.5828C32.8747 7.64979 31.3571 9.43625 28.614 8.85567C30.8052 9.37675 32.2255 8.11874 32.4283 8.14107C32.469 8.14852 32.0226 9.24275 29.2632 9.30975C30.5861 9.18325 30.2046 9.30233 30.2046 9.30233C30.2046 9.30233 29.4256 9.86058 28.4841 9.481C29.2226 9.66708 29.3037 9.6745 29.3201 9.734C29.2713 9.80842 28.6626 9.92017 28.0783 9.62983C28.5491 9.80842 28.9711 9.83825 28.9791 9.90525C28.9711 9.92758 28.6707 10.0839 28.403 9.97225C28.1351 9.86058 25.668 8.46858 25.668 8.46858L29.872 7.41159L30.0261 7.46369Z" fill="#EF7D00" stroke="black" stroke-width="0.0240995" stroke-linecap="round" stroke-linejoin="round"/>
<path d="M25.0827 11.2288C24.7129 11.2288 24.7027 11.5305 24.7027 11.5305C24.7027 11.5305 24.6722 11.5523 24.6925 11.6987C24.7536 11.5989 24.7842 11.5678 24.7842 11.5678C24.8249 11.5742 24.9945 11.6208 25.2625 11.4278C25.0182 11.6613 25.1641 11.7483 25.1641 11.7483C25.1641 11.7483 25.1064 11.9319 25.293 11.9693C25.2354 11.8945 25.2693 11.8293 25.2693 11.8293C25.2693 11.8293 25.5305 11.8043 25.5135 11.5118C25.5237 11.7763 25.6798 11.8417 25.6798 11.8417C25.6798 11.8417 25.6798 11.9879 25.8494 12.0004C25.7578 11.9258 25.7781 11.8105 25.7781 11.8105C25.7781 11.8105 25.9987 11.6643 25.8121 11.4154C25.924 11.3563 26.0156 11.1913 26.0156 11.1913C26.0156 11.1913 25.863 11.1323 25.7917 11.0824C25.7578 11.0172 25.7883 10.6593 25.7883 10.6593L25.6967 10.1957L25.4355 10.9175C25.4456 10.8148 25.4524 11.2288 25.0827 11.2288Z" fill="#EF7D00" stroke="black" stroke-width="0.0240995" stroke-linecap="round" stroke-linejoin="round"/>
<path d="M26.9098 10.188C26.9179 10.1955 27.1858 10.471 27.4456 10.4561C27.543 10.3816 27.2426 10.2179 27.2426 10.1806C27.3481 10.27 27.7946 10.62 28.0788 10.4934C28.1924 10.3445 27.8758 10.3667 27.5267 9.96471C27.7702 10.1136 28.3791 10.4412 28.6632 10.3146C28.785 10.1955 28.03 9.82321 27.7784 9.53279L27.129 9.22754L26.2441 9.89029L26.9098 10.188Z" fill="#EF7D00" stroke="black" stroke-width="0.0240995" stroke-linecap="round" stroke-linejoin="round"/>
<path d="M25.9121 7.92496C25.9121 7.92496 26.2124 7.76121 27.4135 7.84309C27.5434 7.85796 28.2333 7.62721 28.4524 7.56022C28.8014 7.50067 29.9133 7.27736 30.2135 7.06894C30.4245 7.04661 30.1566 7.42624 29.8889 7.51556C29.6048 7.63466 28.5741 7.96219 28.2089 7.91752C28.6471 7.92496 28.4038 8.2525 27.6733 8.09617C28.0223 8.27482 27.8924 8.3046 27.8924 8.3046C27.8924 8.3046 27.2756 8.33437 27.1133 8.20782C27.5273 8.34929 27.3568 8.40137 27.3568 8.40137C27.3568 8.40137 26.9348 8.43862 26.7399 8.35671C27.0403 8.43862 26.886 8.49071 26.886 8.49071C26.886 8.49071 26.6425 8.52796 26.4396 8.46096C26.2368 8.39396 25.9284 7.92496 25.9121 7.92496Z" fill="#EF7D00" stroke="black" stroke-width="0.0240995" stroke-linecap="round" stroke-linejoin="round"/>
<path d="M26.3921 10.3415L26.4363 11.0696C26.4363 11.0696 26.4124 11.107 26.3921 11.1287C26.3718 11.1505 25.8289 11.0509 25.9035 11.4305C25.9035 11.5861 25.9069 11.6266 26.0223 11.7137C25.9918 11.611 26.0019 11.5395 26.0019 11.5395C26.0019 11.5395 26.1546 11.6235 26.3039 11.3932C26.2021 11.6204 26.2733 11.7013 26.2971 11.7075C26.3208 11.748 26.2564 11.9315 26.4599 11.9284C26.3819 11.86 26.4193 11.7604 26.4193 11.7604C26.4193 11.7604 26.6329 11.7293 26.5583 11.3746C26.6363 11.303 26.6669 11.3714 26.6669 11.3714C26.6669 11.3714 26.6906 11.583 26.8773 11.5395C26.962 11.583 26.8636 11.6982 26.8636 11.6982C26.8636 11.6982 26.9993 11.7013 27.04 11.5955C27.0808 11.4897 27.1283 11.2999 26.9043 11.2221C26.8773 11.1474 26.9926 11.1412 26.9926 11.1412C26.9926 11.1412 27.135 11.1847 27.1758 11.2501C27.2164 11.3154 27.2029 11.079 27.0265 11.054C26.8093 11.0478 26.7958 11.0074 26.7958 10.9981C26.7958 10.9887 26.7585 10.4691 26.7415 10.3197L26.3921 10.3415Z" fill="#EF7D00" stroke="black" stroke-width="0.0240995" stroke-linecap="round" stroke-linejoin="round"/>
<path d="M27.1477 10.9625C27.1504 10.929 26.7775 10.4685 26.8721 10.409C26.9666 10.4268 27.1218 10.6362 27.2474 10.5682C27.2093 10.4866 27.0971 10.5326 26.9696 10.3235C26.8422 10.0872 26.8236 9.73246 26.3772 9.34546C26.6662 9.75496 27.3217 9.99504 27.3495 9.87563C27.3772 9.75621 26.7722 9.30471 26.8032 9.19587C26.9236 9.41937 27.531 9.91729 27.9786 9.87604C28.0093 9.78021 27.6121 9.58671 27.5099 9.40604C27.2239 9.22988 26.4588 8.62496 26.4435 8.48463C26.1651 8.1122 25.9912 7.99952 25.9103 7.95663C25.879 7.92283 25.8712 7.89052 25.8651 7.86999C25.6922 7.49626 25.9212 7.37491 26.0551 7.35696C26.1654 7.34572 26.1974 7.36086 26.2768 7.32562C26.1828 7.2919 26.0889 7.26037 25.995 7.22666C26.1175 7.30907 26.4304 7.23651 26.3625 7.47389C26.4997 7.42602 26.7916 7.1075 26.0317 7.03561C25.7844 6.7754 24.7677 6.62585 24.5132 7.76155C24.5335 7.77747 24.5441 7.79055 24.6088 7.83485C24.2877 7.69211 23.4216 7.58204 23.1094 7.53578C22.2662 7.31263 21.3905 6.77488 21.3063 6.84101C21.1937 6.88685 21.8158 7.41767 21.7834 7.42942C21.244 7.14096 20.7513 6.9366 20.2928 6.75063C19.9702 6.64004 19.6472 6.38256 19.6115 6.43154C19.4928 6.65709 20.1287 7.22406 20.247 7.29075C20.3653 7.35455 21.2955 7.75032 21.2818 7.75526C19.8807 7.17198 19.6458 7.06623 19.5755 6.99898C19.452 6.97347 19.1512 6.60094 19.0673 6.62489C19.0214 6.66625 19.1135 7.25488 19.782 7.51911C19.891 7.59196 21.2152 8.02764 21.2022 8.0618C21.199 8.07034 19.6856 7.4889 19.6268 7.46811C19.335 7.36317 18.977 6.99532 18.9101 7.03669C18.8462 7.07422 19.0751 7.47237 19.3699 7.59725C19.5245 7.6598 20.1173 7.92909 20.6514 8.10049C20.6854 8.1118 19.6914 7.75473 19.2134 7.57154C18.9967 7.46123 18.8946 7.32372 18.8616 7.35331C18.8128 7.38289 18.9405 7.97105 20.4764 8.30292C20.5169 8.31872 21.017 8.19425 20.9923 8.21075C20.9861 8.21488 20.4957 8.31282 20.4479 8.30948C20.4054 8.30352 20.1367 8.33863 20.1318 8.35146C20.1156 8.39121 20.2292 8.60179 21.0222 8.55787C21.1236 8.55229 21.6737 8.37412 21.6275 8.41246C21.6044 8.43162 20.8783 8.64804 20.823 8.65229C20.775 8.65854 20.52 8.68296 20.5105 8.70788C20.499 8.74179 20.6993 8.89171 21.1252 8.91571C21.5023 8.93404 22.2187 8.70438 22.2044 8.71929C22.19 8.73413 21.5137 8.94671 21.496 8.95971C21.4715 8.97237 21.2238 8.98471 21.2151 9.00213C21.1949 9.04554 21.5724 9.36929 22.6886 9.02379C22.5765 9.16271 22.0354 9.25771 22.0362 9.28279C22.0337 9.30087 22.1554 9.40879 22.3446 9.44738C22.4392 9.46671 22.5687 9.46271 22.6869 9.44554C22.8994 9.40654 23.1233 9.32946 23.4078 9.08829C23.4418 9.16404 22.6971 9.50963 22.7321 9.54263C22.8936 9.67996 23.4299 9.52488 23.4651 9.50688C23.5002 9.48888 24.4979 8.97287 24.4945 8.91312C24.51 8.98971 23.2082 9.63846 23.2223 9.66504C23.3058 9.78738 23.7505 9.65862 23.7718 9.64737C23.793 9.63621 24.3393 9.36546 24.3543 9.35754C24.3692 9.34954 23.7122 9.71021 23.7707 9.76513C23.7424 9.99929 24.7968 9.60346 24.8794 9.55413C24.9207 9.52954 24.3729 9.77504 24.3715 9.89171C24.5479 10.1653 25.1127 10.0785 25.1999 10.0183C25.2434 9.98821 25.1486 10.2215 25.1791 10.2003C25.1898 10.196 25.302 10.0743 25.3451 9.98621C25.3314 10.0626 25.2695 10.183 25.2333 10.3212C25.1971 10.4593 25.1868 10.6152 25.1371 10.7808C25.1258 10.8536 25.4852 10.6386 25.433 10.1247C25.4637 10.392 25.3195 10.8918 25.3572 10.9178C25.4327 10.9698 25.6415 10.669 25.6626 10.4655C25.7246 10.5682 25.8547 10.7827 25.9666 10.8321C25.9545 10.6766 25.9688 10.6837 25.9184 10.531C25.9475 10.328 25.9515 10.0472 25.9585 9.73021C26.2627 10.2646 26.384 10.4903 26.299 10.8995C26.3895 10.9341 26.534 10.614 26.5223 10.449C26.6385 10.9071 27.1398 10.9757 27.1477 10.9625Z" fill="#EF7D00" stroke="black" stroke-width="0.0240995" stroke-linecap="round" stroke-linejoin="round"/>
<path d="M22.082 7.56934C22.082 7.56934 21.8749 7.71284 21.6172 7.70439C21.6816 7.94074 22.2154 7.75927 22.2154 7.75927C22.2154 7.75927 21.9577 8.02095 21.7736 8.06315C21.8841 8.14756 22.3489 8.11802 22.4271 8.07582C22.5053 8.03361 22.6434 7.86899 22.6434 7.86899C22.6434 7.86899 22.1648 8.3755 22.0958 8.37125C22.0866 8.43034 22.5973 8.40925 22.7032 8.32061C22.809 8.23198 23.0759 8.10114 23.0759 8.10114C23.0759 8.10114 22.3765 8.5485 22.3442 8.5485C22.6065 8.61184 23.1311 8.47259 23.4671 8.28263C22.9701 8.5865 22.9241 8.64142 22.671 8.74267C22.8965 8.78909 23.0115 8.92842 23.7754 8.6245C24.2125 8.43459 24.461 8.08848 24.461 8.08848C24.1895 8.42192 23.7615 8.70467 23.2876 8.98325C23.26 9.03392 23.7938 9.24067 24.4748 8.59075" fill="#EF7D00"/>
<path d="M22.082 7.56934C22.082 7.56934 21.8749 7.71284 21.6172 7.70439C21.6816 7.94074 22.2154 7.75927 22.2154 7.75927C22.2154 7.75927 21.9577 8.02095 21.7736 8.06315C21.8841 8.14756 22.3489 8.11802 22.4271 8.07582C22.5053 8.03361 22.6434 7.86899 22.6434 7.86899C22.6434 7.86899 22.1648 8.3755 22.0958 8.37125C22.0866 8.43034 22.5973 8.40925 22.7032 8.32061C22.809 8.23198 23.0759 8.10114 23.0759 8.10114C23.0759 8.10114 22.3765 8.5485 22.3442 8.5485C22.6065 8.61184 23.1311 8.47259 23.4671 8.28263C22.9701 8.5865 22.9241 8.64142 22.671 8.74267C22.8965 8.78909 23.0115 8.92842 23.7754 8.6245C24.2125 8.43459 24.461 8.08848 24.461 8.08848C24.1895 8.42192 23.7615 8.70467 23.2876 8.98325C23.26 9.03392 23.7938 9.24067 24.4748 8.59075" stroke="black" stroke-width="0.0240995" stroke-linecap="round" stroke-linejoin="round"/>
<path d="M25.7812 8.97852C25.7812 8.97852 25.8273 9.17693 26.0113 9.32885C26.1954 9.48077 26.2092 9.62852 26.2092 9.62852" fill="#EF7D00"/>
<path d="M25.7812 8.97852C25.7812 8.97852 25.8273 9.17693 26.0113 9.32885C26.1954 9.48077 26.2092 9.62852 26.2092 9.62852" stroke="black" stroke-width="0.0240995" stroke-linecap="round" stroke-linejoin="round"/>
<path d="M25.6873 7.6875C25.6873 7.6875 25.7517 7.86476 25.9403 7.97872C26.1337 8.09268 26.4237 8.45142 26.4467 8.51475C26.4688 8.59133 26.58 9.14367 26.5708 9.20267" fill="#EF7D00"/>
<path d="M25.6873 7.6875C25.6873 7.6875 25.7517 7.86476 25.9403 7.97872C26.1337 8.09268 26.4237 8.45142 26.4467 8.51475C26.4688 8.59133 26.58 9.14367 26.5708 9.20267" stroke="black" stroke-width="0.0240995" stroke-linecap="round" stroke-linejoin="round"/>
<path d="M24.5158 7.96191C24.5297 8.02944 24.2443 8.37133 24.6356 8.77225C24.2812 9.169 24.2813 9.21966 24.2813 9.21966C24.2813 9.21966 24.4791 9.32091 24.8334 9.04241C25.4178 9.70083 25.2231 10.0022 25.2231 10.0022" fill="#EF7D00"/>
<path d="M24.5158 7.96191C24.5297 8.02944 24.2443 8.37133 24.6356 8.77225C24.2812 9.169 24.2813 9.21966 24.2813 9.21966C24.2813 9.21966 24.4791 9.32091 24.8334 9.04241C25.4178 9.70083 25.2231 10.0022 25.2231 10.0022" stroke="black" stroke-width="0.0240995" stroke-linecap="round" stroke-linejoin="round"/>
<path d="M25.1753 9.53698C25.1753 9.53698 25.1216 9.46623 25.2176 9.20215C25.3039 9.29765 25.4001 9.31798 25.4422 9.35665C25.4843 9.39531 25.9256 9.4539 25.9536 9.72431" fill="#EF7D00"/>
<path d="M25.1753 9.53698C25.1753 9.53698 25.1216 9.46623 25.2176 9.20215C25.3039 9.29765 25.4001 9.31798 25.4422 9.35665C25.4843 9.39531 25.9256 9.4539 25.9536 9.72431" stroke="black" stroke-width="0.0240995" stroke-linecap="round" stroke-linejoin="round"/>
<path d="M25.6936 7.05826C25.6936 7.03839 25.6048 6.86353 25.2733 7.08211C25.451 7.09204 25.6263 7.18544 25.6936 7.05826Z" fill="#EF7D00" stroke="black" stroke-width="0.0240995" stroke-linecap="round" stroke-linejoin="round"/>
<path d="M28.8576 7.85803C28.8738 7.86547 29.848 8.05906 30.1727 7.96227C29.7587 8.46854 28.9307 8.12607 28.9307 8.12607C29.3365 8.23775 29.3528 8.23031 29.4827 8.33454C29.5233 8.43137 28.7359 8.38671 28.4761 8.25265C29.1986 8.46112 29.2148 8.44621 29.2392 8.52812C29.2717 8.63979 28.054 8.49837 27.9484 8.34946C28.2731 8.58029 28.4517 8.62496 28.6303 8.72912C28.4111 8.81854 28.0053 8.90787 27.2584 8.42387C28.2406 9.24287 29.1255 9.19079 29.2635 9.33971C28.9226 9.80129 27.5994 9.06421 26.9905 8.69196C26.3817 8.31966 28.3218 9.59287 28.5005 9.57054C28.4111 9.69704 27.7698 9.58537 27.7292 9.52587" fill="#EF7D00"/>
<path d="M28.8576 7.85803C28.8738 7.86547 29.848 8.05906 30.1727 7.96227C29.7587 8.46854 28.9307 8.12607 28.9307 8.12607C29.3365 8.23775 29.3528 8.23031 29.4827 8.33454C29.5233 8.43137 28.7359 8.38671 28.4761 8.25265C29.1986 8.46112 29.2148 8.44621 29.2392 8.52812C29.2717 8.63979 28.054 8.49837 27.9484 8.34946C28.2731 8.58029 28.4517 8.62496 28.6303 8.72912C28.4111 8.81854 28.0053 8.90787 27.2584 8.42387C28.2406 9.24287 29.1255 9.19079 29.2635 9.33971C28.9226 9.80129 27.5994 9.06421 26.9905 8.69196C26.3817 8.31966 28.3218 9.59287 28.5005 9.57054C28.4111 9.69704 27.7698 9.58537 27.7292 9.52587" stroke="black" stroke-width="0.0240995" stroke-linecap="round" stroke-linejoin="round"/>
<path d="M29.1086 8.71387C28.9951 8.72878 28.6541 8.72878 28.6055 8.72137L29.1086 8.71387Z" fill="#EF7D00"/>
<path d="M29.1086 8.71387C28.9951 8.72878 28.6541 8.72878 28.6055 8.72137" stroke="black" stroke-width="0.0240995" stroke-linecap="round" stroke-linejoin="round"/>
<path d="M21.7968 7.43396C21.7968 7.43396 22.5376 7.79271 22.8506 7.76739C22.7677 7.83914 22.6436 7.86869 22.6436 7.86869C22.7217 7.89823 22.9381 8.00375 23.2647 7.93622C23.1866 8.00796 23.0852 8.08816 23.0852 8.08816C23.0852 8.08816 23.366 8.18524 23.6836 8.03329C23.5868 8.14303 23.5316 8.22323 23.5316 8.22323L23.7526 8.23588" fill="#EF7D00"/>
<path d="M21.7968 7.43396C21.7968 7.43396 22.5376 7.79271 22.8506 7.76739C22.7677 7.83914 22.6436 7.86869 22.6436 7.86869C22.7217 7.89823 22.9381 8.00375 23.2647 7.93622C23.1866 8.00796 23.0852 8.08816 23.0852 8.08816C23.0852 8.08816 23.366 8.18524 23.6836 8.03329C23.5868 8.14303 23.5316 8.22323 23.5316 8.22323L23.7526 8.23588" stroke="black" stroke-width="0.0240995" stroke-linecap="round" stroke-linejoin="round"/>
</g>
</g>
</g>
<defs>
<clipPath id="clip0_16699_279428">
<rect width="40" height="40" fill="white"/>
</clipPath>
</defs>
</svg>
