<svg width="40" height="40" viewBox="0 0 40 40" fill="none" xmlns="http://www.w3.org/2000/svg">
<g clip-path="url(#clip0_16699_279464)">
<mask id="mask0_16699_279464" style="mask-type:luminance" maskUnits="userSpaceOnUse" x="0" y="0" width="40" height="40">
<path d="M40 0H0V40H40V0Z" fill="white"/>
</mask>
<g mask="url(#mask0_16699_279464)">
<mask id="mask1_16699_279464" style="mask-type:luminance" maskUnits="userSpaceOnUse" x="0" y="0" width="40" height="40">
<path d="M40 20C40 8.95433 31.0457 0 20 0C8.95433 0 0 8.95433 0 20C0 31.0457 8.95433 40 20 40C31.0457 40 40 31.0457 40 20Z" fill="white"/>
</mask>
<g mask="url(#mask1_16699_279464)">
<path d="M0 0H60V40H0V0Z" fill="#006400"/>
<path d="M0 5.71423H60.0082V34.2856H0V5.71423Z" fill="#FFD200"/>
<path d="M0 11.4287H60.0082V28.5715H0V11.4287Z" fill="#D40000"/>
<path d="M0 17.1429H60.0061V22.8572H0V17.1429Z" fill="black"/>
<mask id="mask2_16699_279464" style="mask-type:luminance" maskUnits="userSpaceOnUse" x="0" y="0" width="80" height="40">
<path d="M0 0H80V40H0V0Z" fill="white"/>
</mask>
<g mask="url(#mask2_16699_279464)">
<path d="M0 0V40L26.6667 20L0 0Z" fill="black" stroke="black" stroke-width="0.95238"/>
</g>
<path d="M0 0V40L26.6667 20L0 0Z" fill="white"/>
<path d="M10.1438 9.94434L15.4257 26.2001L1.59766 16.1535H18.6899L4.86196 26.2001L10.1438 9.94434Z" fill="#D40000"/>
<path fill-rule="evenodd" clip-rule="evenodd" d="M9.68483 13.705C9.496 13.4887 9.21642 13.3738 8.93008 13.3951C8.64375 13.4162 8.38408 13.5708 8.22909 13.8125C8.06468 13.8085 7.90026 13.8206 7.73821 13.8483C7.58661 13.8745 7.45512 13.968 7.38077 14.1027C7.30634 14.2372 7.29725 14.3985 7.35588 14.5406L7.9098 14.5078C8.13674 14.6358 8.27999 14.8735 8.28743 15.1338L8.34983 17.3351C8.24281 17.5561 8.18875 17.7991 8.19184 18.0448C8.19564 18.3405 8.21909 18.6356 8.2622 18.9282C8.30543 19.222 8.20882 19.5191 8.00103 19.7312C7.67897 20.0602 7.39892 20.4278 7.16733 20.8256C6.98953 21.1312 7.02085 21.5151 7.24581 21.7878L7.87695 24.2297H12.6139L12.8768 22.1578C12.9884 21.2782 13.4899 20.4956 14.2425 20.0268L14.4289 20.0797C14.5542 20.1152 14.687 20.0572 14.746 19.9411C14.8049 19.825 14.7735 19.6835 14.6709 19.6033L10.1899 16.0992L10.0721 14.6245C10.045 14.2843 9.90917 13.962 9.68483 13.705Z" fill="#FFD200"/>
<path d="M9.63933 13.7452L9.63567 13.7411L9.72642 13.6607L9.73008 13.6649L9.63933 13.7452ZM9.63567 13.7411C9.61117 13.7132 9.5845 13.6869 9.55642 13.6624L9.63625 13.5711C9.66767 13.5986 9.69792 13.6286 9.72642 13.6607L9.63567 13.7411ZM9.55642 13.6624C9.52825 13.6379 9.499 13.6157 9.469 13.5958L9.536 13.4946C9.57133 13.5181 9.60483 13.5437 9.63625 13.5711L9.55642 13.6624ZM9.469 13.5958C9.31333 13.4923 9.12558 13.4419 8.93442 13.4559L8.92583 13.3343C9.14342 13.3182 9.35783 13.3761 9.536 13.4946L9.469 13.5958ZM8.93442 13.4559L8.92875 13.4566L8.92025 13.3348L8.92583 13.3343L8.93442 13.4559ZM8.92875 13.4566C8.89 13.4596 8.85367 13.4648 8.81908 13.4721L8.79383 13.3534C8.83642 13.3443 8.87917 13.3381 8.92025 13.3348L8.92875 13.4566ZM8.81908 13.4721C8.783 13.4798 8.7475 13.4899 8.713 13.5021L8.67258 13.3877C8.712 13.3737 8.75258 13.3622 8.79383 13.3534L8.81908 13.4721ZM8.713 13.5021C8.53667 13.5646 8.3835 13.6843 8.28017 13.8453L8.17799 13.7798C8.29599 13.5959 8.471 13.4591 8.67258 13.3877L8.713 13.5021ZM8.28017 13.8453L8.22762 13.8734L8.22908 13.8126L8.28017 13.8453ZM8.22762 13.8734C8.22171 13.8733 8.21556 13.8731 8.21137 13.8731L8.21283 13.7516C8.22001 13.7516 8.22546 13.7517 8.23064 13.7517L8.22762 13.8734ZM8.21137 13.8731C8.18903 13.8729 8.1663 13.8726 8.14424 13.8729L8.14326 13.7512C8.16657 13.7511 8.18987 13.7511 8.21283 13.7516L8.21137 13.8731ZM8.14424 13.8729C8.12312 13.8731 8.10064 13.8736 8.0776 13.8743L8.07335 13.7527C8.09568 13.7521 8.11906 13.7512 8.14326 13.7512L8.14424 13.8729ZM8.0776 13.8743C7.96678 13.8783 7.85657 13.8898 7.74845 13.9083L7.72802 13.7886C7.84278 13.7689 7.95829 13.7568 8.07335 13.7527L8.0776 13.8743ZM7.74845 13.9083L7.74602 13.9089L7.72561 13.7891L7.72802 13.7886L7.74845 13.9083ZM7.74602 13.9089C7.72697 13.9122 7.70885 13.9166 7.6914 13.9221L7.65583 13.8061C7.67885 13.7989 7.7025 13.7932 7.72561 13.7891L7.74602 13.9089ZM7.6914 13.9221C7.67423 13.9273 7.65671 13.9341 7.63941 13.9419L7.58949 13.8312C7.61044 13.8217 7.63258 13.8132 7.65583 13.8061L7.6914 13.9221ZM7.63941 13.9419C7.55314 13.9812 7.48067 14.0474 7.43403 14.1321L7.32756 14.0736C7.38707 13.9656 7.47977 13.8811 7.58949 13.8312L7.63941 13.9419ZM7.43403 14.1321L7.43094 14.1376L7.32404 14.0801L7.32756 14.0736L7.43403 14.1321ZM7.43094 14.1376C7.42252 14.1534 7.41466 14.1703 7.40775 14.1886L7.29426 14.1452C7.30224 14.1241 7.31238 14.1021 7.32404 14.0801L7.43094 14.1376ZM7.40775 14.1886C7.40114 14.2061 7.39549 14.2238 7.39106 14.2416L7.27329 14.2127C7.27886 14.1899 7.28596 14.1671 7.29426 14.1452L7.40775 14.1886ZM7.39106 14.2416C7.3688 14.3326 7.37557 14.4292 7.41196 14.5176L7.29983 14.5637C7.25356 14.4514 7.24502 14.3282 7.27329 14.2127L7.39106 14.2416ZM7.35948 14.6016L7.29983 14.5637L7.35591 14.5407L7.35948 14.6016ZM7.35231 14.4799L7.90623 14.4471L7.9134 14.5687L7.35948 14.6016L7.35231 14.4799ZM7.90623 14.4471L7.93927 14.4549L7.90983 14.5078L7.90623 14.4471ZM7.93927 14.4549C7.94754 14.4596 7.95114 14.4616 7.95325 14.4628L7.89134 14.5673C7.88518 14.5637 7.88022 14.5608 7.88022 14.5608L7.93927 14.4549ZM7.95325 14.4628C7.98671 14.4826 8.01872 14.5048 8.04877 14.5291L7.97279 14.6236C7.94746 14.6032 7.9201 14.5842 7.89134 14.5673L7.95325 14.4628ZM8.04877 14.5291C8.07872 14.5532 8.10699 14.5794 8.13292 14.6074L8.0441 14.6901C8.02215 14.6664 7.99824 14.6441 7.97279 14.6236L8.04877 14.5291ZM8.13292 14.6074C8.26423 14.7484 8.34267 14.9346 8.34825 15.1323L8.22664 15.1356C8.22187 14.9674 8.1554 14.8096 8.0441 14.6901L8.13292 14.6074ZM8.34825 15.1323L8.41075 17.3334L8.28904 17.3367L8.22664 15.1356L8.34825 15.1323ZM8.41075 17.3334L8.4045 17.3614L8.34983 17.3351L8.41075 17.3334ZM8.4045 17.3614C8.401 17.3687 8.396 17.3793 8.39108 17.3901L8.28084 17.3392C8.28483 17.3306 8.28933 17.3209 8.29525 17.3087L8.4045 17.3614ZM8.39108 17.3901C8.37767 17.4193 8.365 17.4494 8.35308 17.4801L8.24002 17.4364C8.25236 17.4043 8.26603 17.3716 8.28084 17.3392L8.39108 17.3901ZM8.35308 17.4801C8.3415 17.5106 8.33098 17.5411 8.32133 17.5721L8.20533 17.5359C8.21574 17.5026 8.22747 17.4692 8.24002 17.4364L8.35308 17.4801ZM8.32133 17.5721C8.27401 17.7241 8.2507 17.8836 8.25269 18.0441L8.13105 18.0456C8.12886 17.8726 8.15409 17.7004 8.20533 17.5359L8.32133 17.5721ZM8.25269 18.0441C8.25276 18.0544 8.25295 18.0649 8.2532 18.0761L8.13156 18.0781C8.13143 18.0679 8.1313 18.0567 8.13105 18.0456L8.25269 18.0441ZM8.2532 18.0761C8.25393 18.1156 8.2549 18.1563 8.25651 18.1977L8.13487 18.2021C8.13341 18.1619 8.13224 18.1204 8.13156 18.0781L8.2532 18.0761ZM8.25651 18.1977C8.25772 18.2366 8.25977 18.2771 8.2621 18.3193L8.14046 18.3261C8.13827 18.2866 8.13637 18.2451 8.13487 18.2021L8.25651 18.1977ZM8.2621 18.3193C8.27315 18.5211 8.29327 18.7214 8.32237 18.9196L8.20211 18.9371C8.17218 18.7333 8.15155 18.5293 8.14046 18.3261L8.2621 18.3193ZM8.32237 18.9196L8.32287 18.9223L8.20262 18.9398L8.20211 18.9371L8.32237 18.9196ZM8.32287 18.9223C8.32922 18.9663 8.33268 19.0104 8.33324 19.0536L8.21157 19.0551C8.21106 19.0164 8.20807 18.9778 8.20262 18.9398L8.32287 18.9223ZM8.33324 19.0536C8.33375 19.0966 8.33154 19.1401 8.32648 19.1833L8.20578 19.1696C8.21006 19.1322 8.21206 19.0937 8.21157 19.0551L8.33324 19.0536ZM8.32648 19.1833C8.30081 19.4034 8.20303 19.6119 8.04441 19.7739L7.95794 19.6888C8.0973 19.5466 8.18323 19.3632 8.20578 19.1696L8.32648 19.1833ZM8.04441 19.7739C8.0427 19.7756 8.05448 19.7608 8.05125 19.7657L7.95001 19.6983C7.95352 19.6931 7.95573 19.6911 7.95794 19.6888L8.04441 19.7739ZM8.05125 19.7657L8.04441 19.7739L8.00118 19.7314L8.05125 19.7657ZM8.04441 19.7739C8.00271 19.8166 7.95836 19.8636 7.91277 19.9134L7.82297 19.8313C7.86413 19.7862 7.90952 19.7383 7.95794 19.6888L8.04441 19.7739ZM7.91277 19.9134C7.86883 19.9616 7.8265 20.0093 7.78621 20.0566L7.69407 19.9776C7.73719 19.9271 7.78027 19.8781 7.82297 19.8313L7.91277 19.9134ZM7.78621 20.0566C7.57379 20.3061 7.38429 20.5738 7.21995 20.8561L7.115 20.7952C7.28382 20.5052 7.47793 20.2316 7.69407 19.9776L7.78621 20.0566ZM7.21995 20.8561L7.21779 20.8601L7.11227 20.7993L7.115 20.7952L7.21995 20.8561ZM7.21779 20.8601C7.19455 20.9006 7.17543 20.9418 7.16047 20.9829L7.04642 20.9416C7.06435 20.8921 7.08634 20.8444 7.11227 20.7993L7.21779 20.8601ZM7.16047 20.9829C7.14517 21.0251 7.13351 21.0683 7.1258 21.1113L7.00649 21.0901C7.01552 21.0396 7.0289 20.9898 7.04642 20.9416L7.16047 20.9829ZM7.1258 21.1113C7.08573 21.3338 7.1431 21.5681 7.29267 21.7493L7.19903 21.8263C7.02649 21.6172 6.96027 21.3467 7.00649 21.0901L7.1258 21.1113ZM7.29267 21.7493L7.30455 21.7726L7.24586 21.7878L7.29267 21.7493ZM7.30455 21.7726L7.93571 24.2146L7.81832 24.2451L7.18716 21.8031L7.30455 21.7726ZM7.877 24.2906L7.81832 24.2451L7.877 24.2298V24.2906ZM7.877 24.1691H12.6139V24.2906H7.877V24.1691ZM12.6741 24.2374L12.6139 24.2906V24.2298L12.6741 24.2374ZM12.5538 24.2222L12.8167 22.1503L12.9369 22.1656L12.6741 24.2374L12.5538 24.2222ZM12.8167 22.1503C12.8176 22.1429 12.8148 22.1653 12.8172 22.1468L12.9375 22.1626C12.9353 22.1791 12.9381 22.1561 12.9369 22.1656L12.8167 22.1503ZM12.8172 22.1468C12.8333 22.0204 12.8572 21.8968 12.8881 21.7768L13.0059 21.8067C12.9757 21.9237 12.9527 22.0429 12.9375 22.1626L12.8172 22.1468ZM12.8881 21.7768C12.9194 21.6554 12.9582 21.5366 13.0038 21.4216L13.1169 21.4662C13.073 21.5771 13.0358 21.6909 13.0059 21.8067L12.8881 21.7768ZM13.0038 21.4216C13.2384 20.8287 13.6583 20.3193 14.2105 19.9753L14.2746 20.0786C13.7449 20.4086 13.3421 20.8973 13.1169 21.4662L13.0038 21.4216ZM14.2105 19.9753L14.259 19.9684L14.2426 20.0269L14.2105 19.9753ZM14.259 19.9684L14.4454 20.0213L14.4126 20.1383L14.2262 20.0854L14.259 19.9684ZM14.4454 20.0213L14.447 20.0218L14.4138 20.1388L14.4126 20.1383L14.4454 20.0213ZM14.447 20.0218C14.4596 20.0253 14.4729 20.0276 14.4876 20.0286L14.4787 20.1502C14.4583 20.1487 14.4361 20.1449 14.4138 20.1388L14.447 20.0218ZM14.4876 20.0286C14.502 20.0296 14.5158 20.0293 14.5283 20.0278L14.5425 20.1486C14.5209 20.1511 14.4994 20.1517 14.4787 20.1502L14.4876 20.0286ZM14.5283 20.0278C14.5967 20.0197 14.6591 19.9782 14.6918 19.9138L14.8002 19.9684C14.7485 20.0702 14.6503 20.1356 14.5425 20.1486L14.5283 20.0278ZM14.6918 19.9138L14.6923 19.9126L14.8011 19.9668L14.8002 19.9684L14.6918 19.9138ZM14.6923 19.9126C14.6988 19.8996 14.7039 19.8863 14.7074 19.8736L14.8244 19.9058C14.8186 19.9268 14.8108 19.9474 14.8011 19.9668L14.6923 19.9126ZM14.7074 19.8736C14.7108 19.8609 14.7129 19.8476 14.714 19.8336L14.8356 19.8426C14.8342 19.8631 14.8301 19.8846 14.8244 19.9058L14.7074 19.8736ZM14.714 19.8336C14.7191 19.7646 14.6904 19.6956 14.6336 19.6511L14.7082 19.5556C14.7981 19.6258 14.8436 19.7347 14.8356 19.8426L14.714 19.8336ZM14.6336 19.6511L10.1526 16.1471L10.2272 16.0516L14.7082 19.5556L14.6336 19.6511ZM10.1526 16.1471L10.1291 16.1041L10.1899 16.0993L10.1526 16.1471ZM10.1291 16.1041L10.0113 14.6293L10.133 14.6198L10.2508 16.0946L10.1291 16.1041ZM10.0113 14.6293L10.0108 14.6241L10.1325 14.6146L10.133 14.6198L10.0113 14.6293ZM10.0108 14.6241C10.0069 14.5763 10.0012 14.5311 9.99375 14.4882L10.1135 14.4678C10.1222 14.5182 10.1286 14.5676 10.1325 14.6146L10.0108 14.6241ZM9.99375 14.4882C9.986 14.4436 9.97608 14.3992 9.96433 14.3552L10.0817 14.3239C10.0944 14.3711 10.105 14.4191 10.1135 14.4678L9.99375 14.4882ZM9.96433 14.3552C9.90417 14.1307 9.7935 13.9218 9.63933 13.7452L9.73008 13.6649C9.89667 13.8558 10.0168 14.0817 10.0817 14.3239" fill="black"/>
<path d="M9.67331 17.7068C9.67281 17.708 9.67423 17.7042 9.67256 17.7092L9.55615 17.6741C9.55665 17.6724 9.55715 17.6714 9.55873 17.667L9.67331 17.7068ZM9.67256 17.7092L9.67206 17.7107L9.61431 17.6917L9.67256 17.7092ZM9.67206 17.7107C9.66115 17.7435 9.65231 17.7759 9.64573 17.8077L9.52698 17.783C9.5349 17.745 9.54481 17.7082 9.55665 17.6726L9.67206 17.7107ZM9.64573 17.8077C9.63881 17.8406 9.63381 17.8737 9.63073 17.9061L9.51006 17.8952C9.51356 17.8572 9.51931 17.8197 9.52698 17.783L9.64573 17.8077ZM9.63073 17.9061C9.6149 18.0746 9.64798 18.2459 9.72823 18.3984L9.62073 18.455C9.52956 18.2817 9.49206 18.0869 9.51006 17.8952L9.63073 17.9061ZM9.72823 18.3984L9.7289 18.3996L9.62148 18.4562L9.62073 18.455L9.72823 18.3984ZM9.7289 18.3996C9.74465 18.4295 9.76215 18.4583 9.7809 18.4858L9.68065 18.5542C9.65923 18.5229 9.63931 18.49 9.62148 18.4562L9.7289 18.3996ZM9.7809 18.4858C9.7999 18.5135 9.8204 18.54 9.84173 18.5648L9.74998 18.6441C9.72523 18.6153 9.70181 18.5851 9.68065 18.5542L9.7809 18.4858ZM9.84173 18.5648C9.95306 18.6935 10.1006 18.7884 10.2671 18.8356L10.2343 18.9526C10.0448 18.8989 9.8769 18.7908 9.74998 18.6441" fill="black"/>
<path d="M10.2243 16.1494L8.38483 17.4064L8.31641 17.3062L10.1559 16.0492" fill="black"/>
<path d="M9.15267 14.1558C9.15259 14.1061 9.13234 14.0603 9.09992 14.0279L9.18542 13.9419C9.24017 13.9965 9.27417 14.0721 9.27426 14.1552L9.15267 14.1558ZM9.09992 14.0279C9.06742 13.9956 9.02242 13.9753 8.97292 13.9752L8.97342 13.8535C9.05609 13.8538 9.131 13.8876 9.18542 13.9419L9.09992 14.0279ZM8.97292 13.9752H8.97167L8.97217 13.8535L8.97292 13.9752ZM8.97167 13.9752C8.92192 13.9752 8.87676 13.9955 8.84434 14.0279L8.75825 13.9424C8.81292 13.8876 8.88901 13.8537 8.97217 13.8535L8.97167 13.9752ZM8.84434 14.0279C8.81201 14.0603 8.79176 14.1054 8.79159 14.1549L8.66992 14.1544C8.67017 14.0717 8.70401 13.9968 8.75825 13.9424L8.84434 14.0279ZM8.79159 14.1549V14.1562L8.66992 14.1557L8.79159 14.1549ZM8.79159 14.1562C8.79167 14.206 8.81184 14.2511 8.84434 14.2835L8.75884 14.3696C8.70409 14.3149 8.67009 14.2388 8.66992 14.1557L8.79159 14.1562ZM8.84434 14.2835C8.87676 14.3158 8.92175 14.3361 8.97125 14.3362L8.97076 14.4579C8.88809 14.4576 8.81317 14.4238 8.75884 14.3696L8.84434 14.2835ZM8.97125 14.3362L8.97209 14.4579H8.97076L8.97125 14.3362ZM8.97125 14.3362H8.97259L8.97209 14.4579L8.97125 14.3362ZM8.97259 14.3362C9.02234 14.3362 9.06742 14.316 9.09984 14.2835L9.18592 14.369C9.13126 14.4238 9.05517 14.4577 8.97209 14.4579L8.97259 14.3362ZM9.09984 14.2835C9.13217 14.2511 9.15251 14.2053 9.15267 14.1558L9.27426 14.157C9.27401 14.2396 9.24017 14.3146 9.18592 14.369L9.09984 14.2835ZM9.15267 14.1558L9.27426 14.1552V14.157" fill="black"/>
<path d="M8.72443 19.9174L8.72876 19.9153L8.78293 20.0242L8.77868 20.0263L8.72443 19.9174ZM8.72876 19.9153C8.77851 19.8902 8.82534 19.8614 8.86876 19.8292L8.94109 19.9267C8.89168 19.9632 8.83859 19.996 8.78293 20.0242L8.72876 19.9153ZM8.86876 19.8292C8.91234 19.7969 8.95309 19.761 8.99034 19.7222L9.07784 19.8064C9.03618 19.8497 8.99034 19.8902 8.94109 19.9267L8.86876 19.8292ZM8.99034 19.7222C9.18076 19.5242 9.28218 19.2495 9.25751 18.9649L9.37909 18.9544C9.40701 19.2742 9.29259 19.583 9.07784 19.8064" fill="black"/>
<path d="M9.55882 18.6332L9.55457 18.6354L9.50041 18.5266L9.50466 18.5244L9.55882 18.6332ZM9.55457 18.6354C9.53724 18.6443 9.52191 18.6538 9.50799 18.6643L9.43532 18.5673C9.45607 18.5517 9.47824 18.538 9.50041 18.5266L9.55457 18.6354ZM9.50799 18.6643C9.49349 18.6751 9.47982 18.6874 9.46732 18.7005L9.37949 18.6169C9.39641 18.5992 9.41524 18.5824 9.43532 18.5673L9.50799 18.6643ZM9.46732 18.7005C9.40416 18.7668 9.37057 18.8589 9.37882 18.9543L9.25724 18.9648C9.24591 18.8346 9.29232 18.7085 9.37949 18.6169" fill="black"/>
<path d="M10.2426 20.4183L10.2416 20.4188L10.1965 20.3062L10.1975 20.3057L10.2426 20.4183ZM10.2416 20.4188C10.179 20.4441 10.1139 20.4707 10.0474 20.4983L10.0007 20.3862C10.0639 20.3601 10.1291 20.3332 10.1965 20.3062L10.2416 20.4188ZM10.0474 20.4983C9.98244 20.5252 9.91778 20.5526 9.85353 20.5798L9.80594 20.4682C9.87086 20.4405 9.93594 20.4131 10.0007 20.3862L10.0474 20.4983ZM9.85353 20.5798C9.52294 20.721 9.19553 20.871 8.87161 21.0297L8.81836 20.9203C9.14303 20.7613 9.47236 20.6105 9.80594 20.4682" fill="black"/>
<path d="M10.1974 20.3051L10.1996 20.3044L10.2433 20.4175L10.2411 20.4182L10.1974 20.3051ZM10.1986 20.3045C10.2678 20.2765 10.3339 20.244 10.3963 20.2077L10.4571 20.3126C10.3888 20.3524 10.3166 20.3878 10.2433 20.4175L10.1986 20.3045ZM10.3963 20.2077C10.458 20.1718 10.518 20.1308 10.5756 20.0853L10.6512 20.1809C10.5911 20.2283 10.5262 20.2725 10.4571 20.3126L10.3963 20.2077ZM10.5756 20.0853C10.8666 19.8556 11.0696 19.5253 11.138 19.1517L11.2573 19.1735C11.1835 19.5771 10.9647 19.9335 10.6512 20.1809" fill="black"/>
<path d="M9.59961 20.5625H13.5525V20.6842H9.59961" fill="black"/>
<path d="M10.4497 21.3647C10.4496 21.2552 10.4049 21.1552 10.3331 21.0835L10.4191 20.9973C10.5129 21.0911 10.5712 21.221 10.5713 21.3642L10.4497 21.3647ZM10.3331 21.0835C10.2614 21.0118 10.1625 20.9673 10.0532 20.9671V20.8455C10.1959 20.8457 10.3255 20.9038 10.4191 20.9973L10.3331 21.0835ZM10.0532 20.9671H10.0517V20.8455H10.0532V20.9671ZM10.0517 20.9671C9.94202 20.9671 9.8426 21.0116 9.77102 21.0835L9.68494 20.998C9.77885 20.9038 9.90869 20.8456 10.0517 20.8455V20.9671ZM9.77102 21.0835C9.69944 21.1551 9.65494 21.2542 9.65469 21.3636H9.53302C9.53327 21.221 9.59144 21.0916 9.68494 20.998L9.77102 21.0835ZM9.65469 21.3636V21.3651H9.53302L9.65469 21.3636ZM9.65469 21.3651C9.65477 21.4748 9.69935 21.5742 9.77102 21.646L9.68552 21.732C9.59144 21.638 9.53319 21.5081 9.53302 21.3651H9.65469ZM9.77102 21.646C9.84269 21.7175 9.94185 21.762 10.0512 21.7621V21.8838C9.90852 21.8835 9.7791 21.8255 9.68552 21.732L9.77102 21.646ZM10.0512 21.7621H10.0522V21.8838H10.0512V21.7621ZM10.0522 21.7621C10.1616 21.7621 10.2616 21.7175 10.3334 21.6455L10.4195 21.7316C10.3257 21.8255 10.1953 21.8837 10.0522 21.8838V21.7621ZM10.3334 21.6455C10.405 21.5738 10.4495 21.475 10.4497 21.3657H10.5713C10.5711 21.5083 10.513 21.638 10.4195 21.7316L10.3334 21.6455ZM10.4497 21.3657V21.3647L10.5713 21.3642V21.3657" fill="black"/>
<path d="M12.2722 21.365C12.2721 21.2555 12.2274 21.1555 12.1555 21.0836L12.2416 20.9976C12.3354 21.0915 12.3937 21.2212 12.3938 21.3645L12.2722 21.365ZM12.1555 21.0836C12.0838 21.012 11.985 20.9676 11.8757 20.9674V20.8457C12.0184 20.846 12.1479 20.904 12.2416 20.9976L12.1555 21.0836ZM11.8757 20.9674H11.8747V20.8457H11.8757V20.9674ZM11.8747 20.9674C11.765 20.9675 11.665 21.012 11.5934 21.0837L11.5073 20.9982C11.6013 20.9041 11.7316 20.8459 11.8747 20.8457V20.9674ZM11.5934 21.0837C11.5218 21.1555 11.4773 21.2545 11.4771 21.364H11.3555C11.3557 21.2211 11.4138 21.0919 11.5073 20.9982L11.5934 21.0837ZM11.4771 21.364V21.365H11.3555V21.364H11.4771ZM11.4771 21.365C11.4772 21.4745 11.5217 21.5745 11.5935 21.6461L11.5079 21.7322C11.4139 21.6382 11.3556 21.5079 11.3555 21.365H11.4771ZM11.5935 21.6461C11.6652 21.7177 11.7643 21.7622 11.8736 21.7625V21.8841C11.7309 21.8839 11.6016 21.8257 11.5079 21.7322L11.5935 21.6461ZM11.8736 21.7625H11.8746V21.8841H11.8736V21.7625ZM11.8746 21.7625C11.9841 21.7624 12.084 21.7176 12.1559 21.6459L12.2419 21.732C12.1481 21.8256 12.0178 21.884 11.8746 21.8841V21.7625ZM12.1559 21.6459C12.2275 21.574 12.2719 21.4744 12.2722 21.365L12.3938 21.366C12.3935 21.5086 12.3355 21.6382 12.2419 21.732L12.1559 21.6459Z" fill="black"/>
<path d="M10.945 19.7449C10.9665 19.7511 10.9879 19.7572 11.0093 19.763L10.9778 19.8803C10.9553 19.8743 10.9325 19.8678 10.9103 19.8611L10.945 19.7449ZM11.0093 19.763C11.0429 19.772 11.0754 19.7801 11.1063 19.7871L11.0796 19.9055C11.0443 19.8975 11.0101 19.889 10.9778 19.8803L11.0093 19.763ZM11.1063 19.7871C11.1389 19.7945 11.1716 19.8011 11.2043 19.8072L11.1824 19.9265C11.1479 19.9201 11.1135 19.913 11.0796 19.9055L11.1063 19.7871ZM11.2043 19.8072C11.3568 19.8352 11.5126 19.849 11.6693 19.848L11.6698 19.9696C11.507 19.9706 11.3436 19.956 11.1824 19.9265" fill="black"/>
<path d="M11.6681 19.8483C11.6896 19.8482 11.7102 19.847 11.7292 19.8452L11.7416 19.9659C11.7163 19.9684 11.6918 19.9698 11.6685 19.9699L11.6681 19.8483ZM11.7292 19.8452C11.7635 19.8418 11.7978 19.8354 11.8312 19.8267L11.862 19.944C11.8231 19.9544 11.7828 19.9617 11.7416 19.9659L11.7292 19.8452ZM11.8312 19.8267C11.8638 19.818 11.8963 19.8065 11.9275 19.7929L11.9763 19.904C11.9398 19.9202 11.9015 19.9337 11.862 19.944L11.8312 19.8267ZM11.9275 19.7929C12.0745 19.728 12.1958 19.6099 12.2627 19.457L12.3738 19.5054C12.2943 19.6869 12.1506 19.8272 11.9763 19.904" fill="black"/>
<path d="M14.2266 20.0851L10.2343 18.9525L10.2671 18.8356L14.2594 19.9682" fill="black"/>
<path d="M7.32617 22.0377H12.8849V22.1593H7.32617" fill="black"/>
<path d="M8.6095 23.2457H12.7312V23.3675H8.6095" fill="black"/>
<path d="M10.5361 22.8341L10.0438 23.3184L9.95868 23.2319L10.451 22.7477" fill="black"/>
<path d="M9.63589 22.7477L10.1283 23.2319L10.0431 23.3184L9.55072 22.8341" fill="black"/>
<path d="M9.72197 22.8341L9.22964 23.3184L9.14447 23.2319L9.63689 22.7477" fill="black"/>
<path d="M8.82141 22.7477L9.31383 23.2319L9.22875 23.3184L8.73633 22.8341" fill="black"/>
<path d="M11.3508 22.8341L10.8583 23.3184L10.7733 23.2319L11.2657 22.7477" fill="black"/>
<path d="M10.4503 22.7477L10.9427 23.2319L10.8577 23.3184L10.3652 22.8341" fill="black"/>
<path d="M12.1656 22.8341L11.6732 23.3184L11.5881 23.2319L12.0804 22.7477" fill="black"/>
<path d="M11.2648 22.7477L11.7572 23.2319L11.6721 23.3184L11.1797 22.8341" fill="black"/>
<path d="M12.819 22.9924L12.4877 23.318L12.4026 23.2317L12.7338 22.9059" fill="black"/>
<path d="M12.0812 22.7477L12.5736 23.2319L12.4885 23.3184L11.9961 22.8341" fill="black"/>
<path d="M10.5364 22.217L10.0441 22.7012L9.95898 22.6147L10.4513 22.1305" fill="black"/>
<path d="M9.63589 22.1305L10.1283 22.6147L10.0431 22.7012L9.55072 22.217" fill="black"/>
<path d="M9.72197 22.217L9.22964 22.7012L9.14447 22.6147L9.63689 22.1305" fill="black"/>
<path d="M8.82339 22.1299L9.31505 22.6148L9.22997 22.7013L8.73822 22.2164" fill="black"/>
<path d="M11.3508 22.217L10.8583 22.7012L10.7733 22.6148L11.2657 22.1305" fill="black"/>
<path d="M10.4503 22.1305L10.9428 22.6147L10.8577 22.7012L10.3652 22.217" fill="black"/>
<path d="M12.1656 22.217L11.6732 22.7012L11.5881 22.6148L12.0804 22.1305" fill="black"/>
<path d="M11.2648 22.1305L11.7572 22.6147L11.6721 22.7012L11.1797 22.217" fill="black"/>
<path d="M12.9086 22.2873L12.4877 22.7011L12.4026 22.6146L12.8235 22.2008" fill="black"/>
<path d="M12.0812 22.1305L12.5736 22.6147L12.4885 22.7012L11.9961 22.217" fill="black"/>
<path d="M8.44602 14.5367L7.91361 14.5683L7.90643 14.4465L8.43885 14.415" fill="black"/>
<path d="M8.7775 20.0268L8.77575 20.0275L8.7235 19.9177L8.72525 19.917L8.7775 20.0268ZM8.7225 19.9183L8.7235 19.9177L8.74959 19.9727L8.7225 19.9183ZM8.7775 20.0268C8.67409 20.0785 8.57684 20.1394 8.48825 20.2071L8.41458 20.1107C8.50983 20.0379 8.61283 19.9731 8.7225 19.9183L8.7775 20.0268ZM8.48825 20.2071C8.39959 20.275 8.31791 20.3508 8.24412 20.4329L8.15379 20.3517C8.23213 20.2644 8.31942 20.1835 8.41458 20.1107L8.48825 20.2071ZM8.24412 20.4329C7.86578 20.8541 7.69855 21.4419 7.82586 22.0205L7.70711 22.0466C7.57116 21.4289 7.74986 20.8014 8.15379 20.3517" fill="black"/>
<path d="M8.87009 21.0293L8.86267 21.0328L8.80942 20.9236L8.81684 20.9199L8.87009 21.0293ZM8.86267 21.0328C8.81075 21.0588 8.76225 21.0884 8.71667 21.1215L8.64534 21.0233C8.6965 20.986 8.75175 20.9524 8.80942 20.9236L8.86267 21.0328ZM8.71667 21.1215C8.67075 21.1549 8.628 21.1918 8.589 21.2313L8.5025 21.1461C8.54659 21.1014 8.59442 21.0601 8.64534 21.0233L8.71667 21.1215ZM8.589 21.2313C8.38834 21.4343 8.27632 21.716 8.29109 22.0118L8.16941 22.0175C8.15295 21.6876 8.27825 21.373 8.5025 21.1461" fill="black"/>
<path d="M7.44438 21.4515C7.45294 21.4808 7.46299 21.51 7.47423 21.5388L7.36115 21.5829C7.34886 21.5515 7.33981 21.4762 7.33008 21.443L7.44438 21.4515ZM7.47423 21.5388C7.48542 21.5675 7.4979 21.5957 7.51128 21.6228L7.40246 21.6764C7.38735 21.6457 7.37341 21.6144 7.36115 21.5829L7.47423 21.5388ZM7.51128 21.6228C7.58057 21.7632 7.68058 21.8877 7.80452 21.9862L7.72893 22.0812C7.59105 21.9717 7.47968 21.833 7.40246 21.6764" fill="black"/>
<path d="M7.44186 21.4914L7.30256 21.812L7.19141 21.7637L7.33071 21.443" fill="black"/>
<path d="M7.82074 22.0605L7.71289 22.0043L7.72863 22.0812L7.82074 22.0605ZM7.71289 22.0043C7.72793 21.9757 7.74213 21.9476 7.75551 21.9204L7.86475 21.9737C7.85006 22.0036 7.83531 22.0328 7.82074 22.0605L7.71289 22.0043ZM7.75551 21.9204C7.77138 21.8881 7.7851 21.8595 7.79612 21.8355L7.90633 21.8858C7.89088 21.9195 7.87696 21.9488 7.86475 21.9737L7.75551 21.9204ZM7.79612 21.8355C7.86317 21.6896 7.92076 21.5388 7.96834 21.3844L8.08432 21.4199C8.03544 21.5787 7.97591 21.7344 7.90633 21.8858" fill="black"/>
<path d="M7.97128 21.4266L7.96875 21.3843L8.08244 21.3776L7.97128 21.4266ZM8.17168 22.027L8.29002 21.9994L8.29221 22.0121L8.17168 22.027ZM8.17168 22.027C8.16424 21.9951 8.15699 21.9661 8.15037 21.9405L8.26776 21.9101C8.27629 21.9428 8.28376 21.9726 8.29002 21.9994L8.17168 22.027ZM8.15037 21.9405C8.14404 21.9163 8.13604 21.8876 8.12657 21.8546L8.24355 21.8214C8.25072 21.8463 8.25885 21.8761 8.26776 21.9101L8.15037 21.9405ZM8.12657 21.8546C8.0845 21.7093 8.03271 21.5663 7.97128 21.4266L8.08244 21.3776C8.14555 21.5211 8.19961 21.6696 8.24355 21.8214" fill="black"/>
<path d="M8.54901 24.2296V23.3066H8.67068V24.2296" fill="black"/>
<path d="M8.55208 23.3262L8.13867 22.1181L8.2537 22.0791L8.66708 23.2872" fill="black"/>
<path d="M8.90611 22.8341L8.58319 23.1517L8.49811 23.0652L8.82102 22.7477" fill="black"/>
<path d="M8.90852 22.2164L8.42694 22.69L8.34186 22.6036L8.82344 22.1299" fill="black"/>
</g>
</g>
</g>
<defs>
<clipPath id="clip0_16699_279464">
<rect width="40" height="40" fill="white"/>
</clipPath>
</defs>
</svg>
