<svg width="28" height="28" viewBox="0 0 28 28" fill="none" xmlns="http://www.w3.org/2000/svg">
<path d="M24.4994 14C24.4994 9.49067 21.6566 5.64588 17.6657 4.15849L16.5799 8.50501C16.3626 9.37337 15.6847 10.0525 14.8162 10.271L11.0702 11.2132C11.0436 11.2199 11.021 11.2378 11.0086 11.2622L10.6782 11.9173C9.99798 13.2676 8.26231 13.6746 7.0529 12.7672L4.08496 10.5398C3.70681 11.6235 3.49935 12.7874 3.49935 14C3.49935 19.799 8.20036 24.5 13.9993 24.5C19.7984 24.5 24.4994 19.799 24.4994 14ZM13.5208 14.0011L15.0635 14.0991H15.0646C15.4933 14.1266 15.9067 14.2675 16.2632 14.507L18.7777 16.1966H18.7788C19.7284 16.8351 20.0949 18.0421 19.6869 19.0905L19.5957 19.2978L19.1787 20.1307C18.7674 20.9534 17.9268 21.4728 17.0072 21.4728H14.6784C13.8665 21.4728 13.1087 21.0669 12.6584 20.3916L11.085 18.032C10.4419 17.0675 10.5698 15.783 11.3903 14.965L11.6523 14.7041L11.846 14.5309C12.3161 14.1532 12.913 13.9623 13.5208 14.0011ZM13.3727 16.3299C13.3457 16.3281 13.3189 16.3382 13.2998 16.3572L13.0378 16.6181C13.0058 16.6503 13.0015 16.7004 13.0264 16.7378L14.5998 19.0973C14.6174 19.1237 14.6469 19.1394 14.6784 19.1394H17.0072C17.0431 19.1394 17.0755 19.119 17.0915 19.087L17.5085 18.2542L17.5176 18.2212C17.5198 18.1987 17.5146 18.1759 17.5016 18.1573L17.4766 18.1334L14.9621 16.4438L14.9154 16.4279L13.3727 16.3299ZM13.9993 3.49996C10.2605 3.49996 6.97981 5.45523 5.11947 8.39791L8.45313 10.901L8.49186 10.9181C8.53177 10.9258 8.57456 10.9071 8.5944 10.868L8.92481 10.2129C9.24197 9.58323 9.81681 9.12246 10.5005 8.95048L14.2477 8.00826C14.2814 7.99968 14.3076 7.97272 14.3161 7.93876L15.4007 3.59566C14.9422 3.53449 14.4746 3.49996 13.9993 3.49996ZM26.8327 14C26.8327 21.0877 21.0871 26.8333 13.9993 26.8333C6.9117 26.8333 1.16602 21.0877 1.16602 14C1.16602 6.91231 6.9117 1.16663 13.9993 1.16663C21.0871 1.16663 26.8327 6.91231 26.8327 14Z" fill="#11A3FD"/>
</svg>
