<svg width="28" height="28" viewBox="0 0 28 28" fill="none" xmlns="http://www.w3.org/2000/svg">
<path d="M17.4994 24.5V22.1667C17.4994 21.2385 17.1303 20.3485 16.474 19.6921C15.8997 19.1179 15.1468 18.7634 14.3457 18.6838L13.9993 18.6667H6.99935C6.07109 18.6667 5.18112 19.0357 4.52474 19.6921C3.86836 20.3485 3.49935 21.2385 3.49935 22.1667V24.5C3.49935 25.1444 2.97701 25.6667 2.33268 25.6667C1.68835 25.6667 1.16602 25.1444 1.16602 24.5V22.1667C1.16602 20.6196 1.78104 19.1363 2.875 18.0424C3.96896 16.9484 5.45225 16.3334 6.99935 16.3334H13.9993C15.5464 16.3334 17.0297 16.9484 18.1237 18.0424C19.2177 19.1363 19.8327 20.6196 19.8327 22.1667V24.5C19.8327 25.1444 19.3103 25.6667 18.666 25.6667C18.0217 25.6667 17.4994 25.1444 17.4994 24.5Z" fill="#06BC6C"/>
<path d="M20.9948 8.16679C20.9948 7.39155 20.7377 6.63802 20.2633 6.02486C19.7888 5.41166 19.1237 4.97302 18.3732 4.77844C17.7496 4.61671 17.3753 3.98025 17.5369 3.35657C17.6987 2.73291 18.3351 2.35862 18.9588 2.5203C20.2097 2.84461 21.3171 3.57532 22.1079 4.59729C22.8987 5.61927 23.3281 6.87459 23.3281 8.16679C23.3281 9.459 22.8987 10.7143 22.1079 11.7363C21.3171 12.7583 20.2097 13.489 18.9588 13.8133C18.3352 13.9749 17.6987 13.6006 17.5369 12.977C17.3753 12.3533 17.7496 11.7169 18.3732 11.5551C19.1237 11.3606 19.7888 10.9219 20.2633 10.3087C20.7378 9.69557 20.9948 8.94205 20.9948 8.16679Z" fill="#06BC6C"/>
<path d="M24.4994 24.5002V22.168L24.4868 21.8786C24.4306 21.2064 24.1814 20.5625 23.7656 20.0261C23.2905 19.4132 22.6252 18.9746 21.8744 18.7808C21.2506 18.6196 20.8759 17.9839 21.0369 17.36C21.1981 16.7362 21.8339 16.3616 22.4577 16.5226C23.7091 16.8458 24.8184 17.5747 25.6102 18.5962C26.4019 19.6176 26.8317 20.8734 26.8327 22.1657V24.5002C26.8326 25.1444 26.3103 25.6668 25.666 25.6668C25.0217 25.6668 24.4994 25.1444 24.4994 24.5002Z" fill="#06BC6C"/>
<path d="M13.9993 8.16671C13.9993 6.23371 12.4323 4.66671 10.4993 4.66671C8.56635 4.66671 6.99935 6.23371 6.99935 8.16671C6.99935 10.0997 8.56635 11.6667 10.4993 11.6667C12.4323 11.6667 13.9993 10.0997 13.9993 8.16671ZM16.3327 8.16671C16.3327 11.3884 13.721 14 10.4993 14C7.27769 14 4.66602 11.3884 4.66602 8.16671C4.66602 4.94505 7.27769 2.33337 10.4993 2.33337C13.721 2.33337 16.3327 4.94505 16.3327 8.16671Z" fill="#06BC6C"/>
</svg>
