<svg width="22" height="22" viewBox="0 0 22 22" fill="none" xmlns="http://www.w3.org/2000/svg">
<path d="M17.4167 5.49959C15.2905 5.49959 12.8064 4.27438 11.1012 2.7863C11.073 2.76238 11.037 2.74959 11 2.74959C10.9629 2.74959 10.9271 2.76308 10.8988 2.78719L10.8979 2.7863C9.20271 4.26433 6.71007 5.49959 4.58333 5.49959V11.9163L4.59139 12.294C4.673 14.1507 5.3593 15.5269 6.40413 16.5972C7.54366 17.7642 9.15159 18.608 10.9964 19.2451C11.0031 19.2474 11.0104 19.2489 11.017 19.2514C12.855 18.61 14.4584 17.766 15.5959 16.599C16.7099 15.456 17.4167 13.9658 17.4167 11.9163V5.49959ZM19.25 11.9163C19.25 14.45 18.3525 16.3981 16.9091 17.8791C15.4906 19.3344 13.5854 20.2988 11.6132 20.9862L11.606 20.9889C11.2136 21.1219 10.788 21.1171 10.3984 20.9773C10.393 20.9754 10.3877 20.9738 10.3823 20.9719C10.3809 20.9714 10.3793 20.9716 10.3778 20.971C8.4077 20.2886 6.50793 19.3276 5.09269 17.8782C3.738 16.4907 2.86474 14.6922 2.76074 12.3853L2.75 11.9163V5.49959C2.75011 5.01351 2.94339 4.54709 3.28711 4.20337C3.63091 3.85968 4.0972 3.66626 4.58333 3.66626L4.87785 3.65552C6.3786 3.54504 8.29907 2.62362 9.7002 1.39966L9.70825 1.39339C10.0684 1.08569 10.5263 0.91626 11 0.91626C11.4737 0.91626 11.9316 1.08569 12.2917 1.39339L12.2998 1.39966C13.8027 2.71361 15.8793 3.66626 17.4167 3.66626C17.9028 3.66626 18.3691 3.85968 18.7129 4.20337C19.0566 4.54709 19.2499 5.01351 19.25 5.49959V11.9163Z" fill="#8B5CFF"/>
<path d="M13.1019 8.51856C13.4599 8.16058 14.0401 8.16058 14.3981 8.51856C14.7561 8.87654 14.7561 9.4568 14.3981 9.81478L10.7314 13.4815C10.3735 13.8394 9.7932 13.8394 9.43522 13.4815L7.60189 11.6481C7.24391 11.2901 7.24391 10.7099 7.60189 10.3519C7.95987 9.99391 8.54013 9.99391 8.89811 10.3519L10.0833 11.5371L13.1019 8.51856Z" fill="#8B5CFF"/>
</svg>
