<svg width="22" height="20" viewBox="0 0 22 20" fill="none" xmlns="http://www.w3.org/2000/svg">
<path d="M0.917969 18.25V1.75004C0.917969 1.24378 1.32837 0.833374 1.83464 0.833374C2.3409 0.833374 2.7513 1.24378 2.7513 1.75004V18.25C2.7513 18.7563 2.3409 19.1667 1.83464 19.1667C1.32837 19.1667 0.917969 18.7563 0.917969 18.25Z" fill="#4182FF"/>
<path d="M19.2513 12.75V5.41671C19.2513 5.17359 19.1547 4.9405 18.9827 4.7686C18.8108 4.59669 18.5778 4.50004 18.3346 4.50004H1.83464C1.32837 4.50004 0.917969 4.08964 0.917969 3.58337C0.917969 3.07711 1.32837 2.66671 1.83464 2.66671H18.3346C19.064 2.66671 19.7632 2.95665 20.279 3.47237C20.7947 3.9881 21.0846 4.68736 21.0846 5.41671V12.75C21.0846 13.4794 20.7947 14.1787 20.279 14.6944C19.7632 15.2101 19.064 15.5 18.3346 15.5H2.07275C1.56659 15.4999 1.15609 15.0896 1.15609 14.5834C1.15609 14.0772 1.56659 13.6668 2.07275 13.6667H18.3346C18.5778 13.6667 18.8108 13.5701 18.9827 13.3982C19.1547 13.2262 19.2513 12.9932 19.2513 12.75Z" fill="#4182FF"/>
<path d="M5.5013 17.3334V14.5834C5.5013 14.0771 5.91171 13.6667 6.41797 13.6667C6.92423 13.6667 7.33464 14.0771 7.33464 14.5834V17.3334H11.918V14.5834C11.918 14.0771 12.3284 13.6667 12.8346 13.6667C13.3409 13.6667 13.7513 14.0771 13.7513 14.5834V17.3334C13.7513 17.8196 13.558 18.2858 13.2142 18.6296C12.8704 18.9734 12.4042 19.1667 11.918 19.1667H7.33464C6.84841 19.1667 6.38223 18.9734 6.03841 18.6296C5.6946 18.2858 5.5013 17.8196 5.5013 17.3334Z" fill="#4182FF"/>
<path d="M15.5846 9.08337C15.5846 8.57711 15.1742 8.16671 14.668 8.16671C14.1617 8.16671 13.7513 8.57711 13.7513 9.08337C13.7513 9.58964 14.1617 10 14.668 10C15.1742 10 15.5846 9.58964 15.5846 9.08337ZM17.418 9.08337C17.418 10.6022 16.1868 11.8334 14.668 11.8334C13.1492 11.8334 11.918 10.6022 11.918 9.08337C11.918 7.56459 13.1492 6.33337 14.668 6.33337C16.1868 6.33337 17.418 7.56459 17.418 9.08337Z" fill="#4182FF"/>
<path d="M8.2513 9.08337C8.2513 8.57711 7.8409 8.16671 7.33464 8.16671C6.82837 8.16671 6.41797 8.57711 6.41797 9.08337C6.41797 9.58964 6.82837 10 7.33464 10C7.8409 10 8.2513 9.58964 8.2513 9.08337ZM10.0846 9.08337C10.0846 10.6022 8.85342 11.8334 7.33464 11.8334C5.81585 11.8334 4.58464 10.6022 4.58464 9.08337C4.58464 7.56459 5.81585 6.33337 7.33464 6.33337C8.85342 6.33337 10.0846 7.56459 10.0846 9.08337Z" fill="#4182FF"/>
</svg>
