<svg width="22" height="22" viewBox="0 0 22 22" fill="none" xmlns="http://www.w3.org/2000/svg">
<path d="M9.4367 14.9353C9.79468 14.5773 10.3749 14.5773 10.7329 14.9353L12.5663 16.7686C12.6617 16.8641 12.7755 16.9399 12.9002 16.9915C13.0248 17.0431 13.1583 17.0694 13.2931 17.0694C13.428 17.0694 13.5615 17.0431 13.6861 16.9915C13.8108 16.9399 13.9246 16.8641 14.02 16.7686C14.1155 16.6732 14.1913 16.5594 14.2429 16.4347C14.2945 16.3101 14.3208 16.1766 14.3208 16.0417C14.3208 15.9069 14.2945 15.7734 14.2429 15.6488C14.1913 15.5241 14.1155 15.4103 14.02 15.3149C13.6621 14.9569 13.6621 14.3766 14.02 14.0186C14.378 13.6607 14.9583 13.6607 15.3163 14.0186C15.5819 14.2843 15.7928 14.5998 15.9366 14.9469C16.0804 15.294 16.1542 15.6661 16.1542 16.0417C16.1542 16.4174 16.0804 16.7895 15.9366 17.1366C15.7928 17.4837 15.5819 17.7992 15.3163 18.0649C15.0506 18.3305 14.7351 18.5414 14.388 18.6852C14.0409 18.829 13.6688 18.9028 13.2931 18.9028C12.9175 18.9028 12.5454 18.829 12.1983 18.6852C11.8512 18.5414 11.5357 18.3305 11.27 18.0649L9.4367 16.2315C9.07872 15.8735 9.07872 15.2933 9.4367 14.9353Z" fill="#F7B532"/>
<path d="M12.1865 12.1848C12.5444 11.8271 13.1248 11.8272 13.4827 12.1848L15.7744 14.4765C15.9671 14.6692 16.2287 14.7781 16.5013 14.7782C16.7739 14.7782 17.0354 14.6693 17.2282 14.4765C17.4207 14.2839 17.5288 14.0229 17.5289 13.7505C17.5289 13.478 17.4209 13.2164 17.2282 13.0236L13.6716 9.46617C13.3279 9.12297 12.862 8.93086 12.3763 8.93086C11.8905 8.93091 11.4246 9.1238 11.0809 9.46707L11.0801 9.46617L10.2744 10.2736C9.73784 10.81 9.00996 11.1115 8.25128 11.1115C7.49256 11.1115 6.76468 10.8101 6.22816 10.2736C5.69168 9.73715 5.39039 9.0092 5.39027 8.25052C5.39027 7.49168 5.69158 6.76309 6.22816 6.22651L8.80539 3.65017C9.78597 2.67226 11.0645 2.04892 12.4389 1.8795C13.813 1.71018 15.2045 2.00374 16.393 2.71381L16.8235 2.97073L16.8289 2.97342C16.9997 3.07646 17.1986 3.12072 17.3956 3.10053L17.4797 3.088L19.0704 2.76842C19.5668 2.66859 20.0502 2.99004 20.15 3.48636C20.2497 3.98256 19.9283 4.46524 19.4321 4.56505L17.8369 4.88642L17.8333 4.88732C17.164 5.01905 16.4699 4.89676 15.8854 4.54536L15.4548 4.28934L15.4539 4.28844C14.6154 3.78709 13.6333 3.57998 12.6636 3.69941C11.694 3.8189 10.7916 4.25828 10.0998 4.94819L7.52439 7.52363C7.33182 7.71636 7.22361 7.97806 7.22361 8.25052C7.22372 8.52281 7.33193 8.78388 7.52439 8.97651C7.7171 9.16923 7.97874 9.27813 8.25128 9.27819C8.52388 9.27819 8.7854 9.16927 8.97816 8.97651L9.78472 8.16995C10.4722 7.48339 11.4047 7.09758 12.3763 7.09752C13.2873 7.09752 14.1638 7.43636 14.8362 8.04462L14.9678 8.16995L18.5244 11.7265C19.061 12.2631 19.3623 12.9917 19.3623 13.7505C19.3622 14.5092 19.0609 15.2372 18.5244 15.7736C17.9878 16.31 17.26 16.6115 16.5013 16.6115C15.7426 16.6115 15.0147 16.3101 14.4782 15.7736L12.1865 13.482C11.8285 13.124 11.8285 12.5428 12.1865 12.1848Z" fill="#F7B532"/>
<path d="M19.1682 1.837C19.6723 1.79117 20.1186 2.16277 20.1646 2.66683L21.0812 12.7502C21.1046 13.0067 21.0186 13.2618 20.8449 13.452C20.6712 13.642 20.4256 13.7501 20.1681 13.7501H18.3348C17.8286 13.7501 17.4181 13.3397 17.4181 12.8334C17.4181 12.3272 17.8286 11.9167 18.3348 11.9167H19.1638L18.3384 2.83333C18.2926 2.32923 18.6642 1.88295 19.1682 1.837Z" fill="#F7B532"/>
<path d="M2.83473 1.837C3.33879 1.88295 3.7104 2.32923 3.66457 2.83333L2.78639 12.4888L8.44126 18.1436C8.63403 18.3364 8.89554 18.4444 9.16815 18.4444C9.44076 18.4444 9.70227 18.3364 9.89504 18.1436C10.0878 17.9509 10.1958 17.6894 10.1958 17.4167C10.1958 17.1441 10.0878 16.8826 9.89504 16.6899C9.53706 16.3319 9.53706 15.7516 9.89504 15.3936C10.253 15.0357 10.8333 15.0357 11.1913 15.3936C11.7278 15.9302 12.0292 16.6579 12.0292 17.4167C12.0292 18.1756 11.7278 18.9033 11.1913 19.4399C10.6547 19.9764 9.92699 20.2778 9.16815 20.2778C8.40931 20.2778 7.68162 19.9764 7.14504 19.4399L1.1867 13.4815C0.994337 13.2892 0.8971 13.0211 0.92173 12.7502L1.8384 2.66683C1.88435 2.16277 2.33063 1.79117 2.83473 1.837Z" fill="#F7B532"/>
<path d="M10.0848 2.75008C10.5911 2.75008 11.0015 3.16049 11.0015 3.66675C11.0015 4.17301 10.5911 4.58342 10.0848 4.58342H2.75148C2.24522 4.58342 1.83482 4.17301 1.83482 3.66675C1.83482 3.16049 2.24522 2.75008 2.75148 2.75008H10.0848Z" fill="#F7B532"/>
</svg>
