<svg width="15" height="22" viewBox="0 0 15 22" fill="none" xmlns="http://www.w3.org/2000/svg">
<path d="M0.582031 16.9583C0.582031 16.452 0.992437 16.0416 1.4987 16.0416C2.00496 16.0416 2.41536 16.452 2.41536 16.9583C2.41536 17.2592 2.47476 17.5575 2.58993 17.8356C2.70509 18.1135 2.87403 18.3658 3.08675 18.5786C3.29948 18.7913 3.55183 18.9602 3.82975 19.0754C4.10779 19.1906 4.40609 19.25 4.70703 19.25C5.00798 19.25 5.30627 19.1906 5.58431 19.0754C5.86223 18.9602 6.11459 18.7913 6.32731 18.5786C6.54004 18.3658 6.70897 18.1135 6.82414 17.8356C6.9393 17.5575 6.9987 17.2592 6.9987 16.9583C6.9987 15.7738 7.45669 14.8826 8.07918 14.1564C8.66072 13.4779 9.446 12.8847 10.0781 12.358C10.7492 11.7988 11.3423 11.2458 11.7772 10.5452C12.2007 9.86284 12.4987 8.99962 12.4987 7.79163C12.4987 6.45449 11.9671 5.17251 11.0216 4.22701C10.1352 3.34055 8.95299 2.81799 7.70679 2.75623L7.45703 2.74996C6.1199 2.74996 4.83791 3.28151 3.89242 4.22701C2.94692 5.17251 2.41536 6.45449 2.41536 7.79163C2.41536 8.29789 2.00496 8.70829 1.4987 8.70829C0.992437 8.70829 0.582031 8.29789 0.582031 7.79163C0.582031 5.96826 1.30598 4.2192 2.5953 2.92989C3.88461 1.64058 5.63367 0.916626 7.45703 0.916626L7.7981 0.924683C9.49729 1.00901 11.1101 1.72119 12.3188 2.92989C13.6081 4.2192 14.332 5.96826 14.332 7.79163C14.332 9.33363 13.9425 10.5329 13.3348 11.512C12.7384 12.4728 11.9566 13.1803 11.2526 13.767C10.5097 14.386 9.91998 14.8241 9.4703 15.3488C9.06154 15.8256 8.83203 16.3095 8.83203 16.9583L8.82666 17.1615C8.80337 17.6337 8.6991 18.0988 8.51782 18.5365C8.31052 19.037 8.00658 19.4918 7.62354 19.8748C7.24049 20.2578 6.7857 20.5618 6.28524 20.7691C5.78484 20.9763 5.24865 21.0833 4.70703 21.0833C4.16541 21.0833 3.62923 20.9763 3.12882 20.7691C2.62836 20.5618 2.17357 20.2578 1.79053 19.8748C1.40749 19.4918 1.10354 19.037 0.89624 18.5365C0.689004 18.0361 0.582031 17.4999 0.582031 16.9583Z" fill="#06BC6C"/>
<path d="M8.83203 7.79163C8.83203 7.42695 8.68706 7.07732 8.4292 6.81946C8.20362 6.59388 7.90779 6.45508 7.5931 6.42379L7.45703 6.41663C7.09236 6.41663 6.74273 6.5616 6.48486 6.81946C6.227 7.07732 6.08203 7.42695 6.08203 7.79163V7.95186C6.46475 8.08734 6.81715 8.30474 7.1097 8.59729C7.62543 9.11302 7.91536 9.81228 7.91536 10.5416C7.91536 11.271 7.62543 11.9702 7.1097 12.486C6.59398 13.0017 5.89471 13.2916 5.16536 13.2916C4.6591 13.2916 4.2487 12.8812 4.2487 12.375C4.2487 11.8687 4.6591 11.4583 5.16536 11.4583C5.40848 11.4583 5.64157 11.3616 5.81348 11.1897C5.98539 11.0178 6.08203 10.7847 6.08203 10.5416C6.08203 10.2985 5.98539 10.0654 5.81348 9.89351C5.64157 9.72161 5.40848 9.62496 5.16536 9.62496C4.6591 9.62496 4.2487 9.21455 4.2487 8.70829V7.79163C4.2487 6.94072 4.58696 6.12491 5.18864 5.52323C5.79032 4.92156 6.60613 4.58329 7.45703 4.58329L7.61637 4.58687C8.40927 4.62627 9.1614 4.95922 9.72542 5.52323C10.3271 6.12491 10.6654 6.94072 10.6654 7.79163C10.6654 8.29789 10.255 8.70829 9.7487 8.70829C9.24244 8.70829 8.83203 8.29789 8.83203 7.79163Z" fill="#06BC6C"/>
</svg>
