<svg width="94" height="94" viewBox="0 0 94 94" fill="none" xmlns="http://www.w3.org/2000/svg">
<rect x="3" y="3" width="88" height="88" rx="44" fill="#F5F5F5"/>
<path d="M55.9382 24.7865C57.0868 23.4627 57.9623 21.9254 58.5148 20.2622C59.0674 18.5993 59.2862 16.8434 59.1584 15.0957C55.6326 15.3804 52.3597 17.0387 50.0447 19.7132C48.9362 20.9951 48.0964 22.4865 47.5743 24.0988C47.0524 25.711 46.8594 27.4119 47.0069 29.1002C48.7267 29.1144 50.4268 28.7328 51.9755 27.9849C53.5243 27.2368 54.88 26.1425 55.9382 24.7865ZM63.5935 47.3879C63.6139 45.06 64.2269 42.776 65.3752 40.7509C66.5233 38.7258 68.1681 37.0267 70.1553 35.8138C68.9013 34.007 67.2435 32.5172 65.3135 31.4627C63.3837 30.4081 61.2346 29.8176 59.0367 29.738C54.2977 29.2521 49.9233 32.5025 47.4017 32.5025C44.8803 32.5025 41.3261 29.799 37.3769 29.8597C34.7951 29.9447 32.2794 30.6975 30.0753 32.0444C27.8711 33.3914 26.0537 35.2866 24.8003 37.5455C19.4537 46.8412 23.4331 60.6633 28.7797 68.167C31.2101 71.8426 34.2479 76.0044 38.2578 75.8525C42.2677 75.7006 43.5742 73.3616 48.2219 73.3616C52.8699 73.3616 54.2977 75.8525 58.2469 75.7616C62.1961 75.6704 64.9908 71.9945 67.5427 68.3186C69.3503 65.65 70.7626 62.7339 71.735 59.661C69.3276 58.6341 67.2733 56.9247 65.8263 54.7435C64.3796 52.5624 63.6033 50.0053 63.5935 47.3879Z" fill="#111213"/>
</svg>
