<svg width="94" height="94" viewBox="0 0 94 94" fill="none" xmlns="http://www.w3.org/2000/svg">
<path d="M73.1361 36.1335C73.1361 41.3022 71.6034 46.3548 68.7318 50.6524C65.8602 54.9501 61.7787 58.2997 57.0035 60.2776C52.2282 62.2556 46.9736 62.7732 41.9042 61.7648C36.8348 60.7564 32.1783 58.2675 28.5235 54.6126C24.8686 50.9578 22.3797 46.3013 21.3713 41.2319C20.3629 36.1625 20.8805 30.9079 22.8584 26.1326C24.8364 21.3574 28.186 17.2759 32.4836 14.4043C36.7813 11.5327 41.8339 10 47.0026 10C53.9337 10 60.5808 12.7533 65.4818 17.6543C70.3828 22.5553 73.1361 29.2024 73.1361 36.1335Z" fill="#005FAB"/>
<path d="M73.0652 36.134C73.0581 41.2814 71.5248 46.3111 68.6591 50.587C65.7935 54.863 61.7242 58.1932 56.9659 60.1564C52.2076 62.1197 46.974 62.6279 41.9269 61.6167C36.8798 60.6055 32.2458 58.1204 28.6111 54.4756C24.9763 50.8309 22.504 46.1901 21.5068 41.1402C20.5095 36.0903 21.0321 30.8581 23.0085 26.1053C24.9849 21.3524 28.3263 17.2923 32.6102 14.4385C36.894 11.5846 41.9279 10.0652 47.0753 10.0723C50.4947 10.0713 53.8806 10.7453 57.039 12.0556C60.1973 13.3658 63.066 15.2866 65.4805 17.7078C67.895 20.129 69.8079 23.0029 71.1094 26.1649C72.411 29.3269 73.0756 32.7146 73.0652 36.134Z" fill="#005EAF"/>
<path d="M72.9182 36.1329C72.9182 41.259 71.3981 46.27 68.5502 50.5322C65.7023 54.7944 61.6545 58.1164 56.9185 60.0781C52.1826 62.0398 46.9714 62.5531 41.9438 61.553C36.9161 60.5529 32.298 58.0845 28.6733 54.4598C25.0486 50.8351 22.5801 46.2169 21.5801 41.1893C20.58 36.1617 21.0933 30.9504 23.0549 26.2145C25.0166 21.4786 28.3386 17.4307 32.6008 14.5828C36.863 11.7349 41.874 10.2148 47.0001 10.2148C53.8711 10.2243 60.458 12.958 65.3165 17.8166C70.175 22.6751 72.9087 29.2619 72.9182 36.1329Z" fill="#005FAF"/>
<path d="M72.8468 36.1329C72.861 41.2478 71.3572 46.252 68.5258 50.5118C65.6945 54.7717 61.6628 58.0956 56.9413 60.0629C52.2198 62.0301 47.0207 62.5522 42.0023 61.5631C36.9839 60.5739 32.3718 58.118 28.7499 54.5062C25.1281 50.8944 22.6593 46.2891 21.6562 41.2735C20.6531 36.2579 21.1607 31.0574 23.1148 26.3304C25.069 21.6034 28.3817 17.5625 32.6336 14.7193C36.8856 11.8761 41.8855 10.3584 47.0005 10.3584C53.8429 10.3584 60.4062 13.0716 65.2512 17.9032C70.0963 22.7348 72.8278 29.2905 72.8468 36.1329Z" fill="#0060B0"/>
<path d="M72.7042 36.1334C72.7042 41.2169 71.1968 46.1862 68.3725 50.413C65.5483 54.6398 61.5341 57.9342 56.8375 59.8796C52.141 61.8249 46.973 62.334 41.9872 61.3422C37.0014 60.3505 32.4216 57.9025 28.827 54.3079C25.2324 50.7133 22.7845 46.1336 21.7927 41.1477C20.801 36.1619 21.31 30.9939 23.2553 26.2974C25.2007 21.6008 28.4951 17.5866 32.7219 14.7624C36.9487 11.9381 41.918 10.4307 47.0015 10.4307C50.3779 10.4269 53.7219 11.0891 56.842 12.3795C59.9621 13.6698 62.797 15.5629 65.1845 17.9504C67.572 20.3379 69.4651 23.1728 70.7554 26.2929C72.0458 29.413 72.708 32.757 72.7042 36.1334Z" fill="#0060B0"/>
<path d="M72.6353 36.1329C72.6282 41.1951 71.1201 46.1415 68.3018 50.3466C65.4835 54.5518 61.4815 57.8267 56.8019 59.7574C52.1223 61.688 46.9753 62.1877 42.0118 61.1931C37.0482 60.1986 32.4911 57.7545 28.9166 54.17C25.3421 50.5854 22.9108 46.0214 21.9301 41.0551C20.9495 36.0888 21.4636 30.9432 23.4074 26.269C25.3512 21.5949 28.6373 17.6021 32.8504 14.7956C37.0634 11.9891 42.014 10.4949 47.0762 10.502C53.8615 10.521 60.3624 13.2298 65.1536 18.0344C69.9448 22.8391 72.6353 29.3476 72.6353 36.1329Z" fill="#0061B0"/>
<path d="M72.4903 36.1328C72.4903 41.1737 70.9955 46.1014 68.1949 50.2928C65.3943 54.4842 61.4137 57.7509 56.7565 59.68C52.0993 61.6091 46.9747 62.1138 42.0306 61.1304C37.0866 60.147 32.5452 57.7195 28.9807 54.1551C25.4162 50.5906 22.9888 46.0492 22.0054 41.1051C21.0219 36.1611 21.5267 31.0364 23.4557 26.3792C25.3848 21.722 28.6516 17.7415 32.843 14.9409C37.0343 12.1403 41.962 10.6455 47.0029 10.6455C53.762 10.6474 60.2437 13.3333 65.0231 18.1127C69.8025 22.8921 72.4884 29.3737 72.4903 36.1328Z" fill="#0061B1"/>
<path d="M72.4174 36.1318C72.4245 41.1514 70.943 46.0604 68.1601 50.238C65.3773 54.4156 61.4181 57.6742 56.7833 59.6016C52.1485 61.5291 47.0463 62.0389 42.1217 61.0666C37.1972 60.0943 32.6716 57.6835 29.1171 54.1392C25.5627 50.5948 23.1391 46.076 22.1529 41.1542C21.1667 36.2324 21.662 31.1287 23.5764 26.4885C25.4908 21.8483 28.7381 17.8799 32.9078 15.0853C37.0775 12.2906 41.9823 10.7952 47.0019 10.7881C53.7313 10.7843 60.1871 13.4509 64.9522 18.2025C69.7173 22.9542 72.4022 29.4025 72.4174 36.1318Z" fill="#0062B1"/>
<path d="M72.2743 36.1342C72.2743 41.1325 70.7922 46.0186 68.0152 50.1746C65.2383 54.3305 61.2914 57.5697 56.6736 59.4824C52.0557 61.3952 46.9744 61.8957 42.0721 60.9206C37.1698 59.9454 32.6668 57.5385 29.1325 54.0042C25.5981 50.4698 23.1912 45.9668 22.2161 41.0645C21.241 36.1623 21.7414 31.0809 23.6542 26.4631C25.567 21.8452 28.8061 17.8983 32.9621 15.1214C37.118 12.3445 42.0041 10.8623 47.0024 10.8623C53.702 10.8718 60.1245 13.5374 64.8619 18.2748C69.5992 23.0121 72.2648 29.4346 72.2743 36.1342Z" fill="#0062B2"/>
<path d="M72.2015 36.1342C72.2086 41.1112 70.7397 45.9786 67.9805 50.1207C65.2213 54.2629 61.2958 57.4939 56.7004 59.405C52.1049 61.3162 47.046 61.8218 42.1632 60.8578C37.2804 59.8938 32.7932 57.5035 29.2689 53.9892C25.7446 50.475 23.3415 45.9946 22.3636 41.1146C21.3857 36.2346 21.8768 31.1742 23.7749 26.5733C25.6729 21.9725 28.8927 18.0377 33.0269 15.2668C37.1612 12.4958 42.0244 11.013 47.0014 11.0059C53.6748 10.9983 60.0781 13.641 64.8036 18.353C69.5291 23.0651 72.1901 29.4608 72.2015 36.1342Z" fill="#0063B2"/>
<path d="M72.0584 36.1327C72.0584 41.0884 70.5889 45.9329 67.8356 50.0534C65.0824 54.1739 61.1691 57.3855 56.5906 59.2819C52.0121 61.1784 46.9741 61.6746 42.1136 60.7078C37.2531 59.741 32.7884 57.3546 29.2842 53.8504C25.78 50.3461 23.3936 45.8815 22.4268 41.021C21.46 36.1605 21.9562 31.1225 23.8526 26.544C25.7491 21.9655 28.9607 18.0522 33.0812 15.299C37.2017 12.5457 42.0461 11.0762 47.0019 11.0762C50.2931 11.0733 53.5527 11.7195 56.5939 12.9777C59.6352 14.2359 62.3986 16.0815 64.7258 18.4088C67.0531 20.736 68.8986 23.4994 70.1569 26.5406C71.4151 29.5819 72.0612 32.8415 72.0584 36.1327Z" fill="#0064B2"/>
<path d="M71.9875 36.1332C71.9804 41.0676 70.5103 45.8891 67.7629 49.988C65.0156 54.0868 61.1145 57.279 56.553 59.1607C51.9915 61.0425 46.9744 61.5293 42.1362 60.5597C37.298 59.5901 32.856 57.2076 29.3718 53.7134C25.8877 50.2192 23.518 45.7703 22.5623 40.9294C21.6066 36.0884 22.1079 31.0727 24.0027 26.5166C25.8976 21.9605 29.101 18.0687 33.2077 15.3332C37.3145 12.5977 42.1402 11.1414 47.0746 11.1485C53.6885 11.1675 60.025 13.8082 64.6951 18.4917C69.3651 23.1752 71.9876 29.5193 71.9875 36.1332Z" fill="#0064B3"/>
<path d="M71.8425 36.1322C71.8425 41.0453 70.3856 45.8481 67.656 49.9332C64.9264 54.0183 61.0468 57.2022 56.5076 59.0824C51.9685 60.9626 46.9738 61.4545 42.1551 60.496C37.3363 59.5375 32.9101 57.1716 29.436 53.6975C25.9619 50.2234 23.596 45.7972 22.6375 40.9784C21.679 36.1597 22.1709 31.165 24.0511 26.6259C25.9313 22.0867 29.1152 18.2071 33.2003 15.4775C37.2854 12.7479 42.0882 11.291 47.0013 11.291C53.589 11.2929 59.9064 13.9107 64.5646 18.5689C69.2228 23.2271 71.8406 29.5445 71.8425 36.1322Z" fill="#0065B3"/>
<path d="M71.7696 36.1336C71.7625 41.0255 70.305 45.8053 67.5814 49.8687C64.8577 53.9322 60.9903 57.0967 56.4681 58.9622C51.9459 60.8276 46.9722 61.3102 42.1757 60.3489C37.3793 59.3876 32.9757 57.0256 29.5216 53.5615C26.0676 50.0975 23.7184 45.687 22.771 40.8878C21.8236 36.0886 22.3207 31.1162 24.1992 26.5995C26.0778 22.0828 29.2535 18.2245 33.3249 15.5127C37.3962 12.8008 42.1803 11.3572 47.0721 11.3643C53.63 11.3795 59.914 13.9963 64.5445 18.6402C69.1749 23.2841 71.7735 29.5757 71.7696 36.1336Z" fill="#0065B4"/>
<path d="M71.6266 36.1326C71.6266 41.0031 70.1823 45.7643 67.4764 49.814C64.7705 53.8636 60.9244 57.02 56.4247 58.8839C51.9249 60.7477 46.9735 61.2354 42.1965 60.2852C37.4196 59.335 33.0317 56.9896 29.5877 53.5457C26.1438 50.1017 23.7984 45.7138 22.8482 40.9369C21.898 36.1599 22.3857 31.2085 24.2495 26.7087C26.1134 22.209 29.2697 18.3629 33.3194 15.657C37.3691 12.9511 42.1303 11.5068 47.0008 11.5068C53.5284 11.5182 59.7855 14.1164 64.4013 18.7321C69.017 23.3479 71.6152 29.6049 71.6266 36.1326Z" fill="#0066B4"/>
<path d="M71.5576 36.1331C71.5505 40.9823 70.1056 45.7205 67.4056 49.7485C64.7057 53.7766 60.8719 56.9135 56.389 58.7626C51.9062 60.6118 46.9758 61.0901 42.2211 60.1371C37.4665 59.1841 33.1012 56.8426 29.6773 53.4087C26.2534 49.9747 23.9247 45.6026 22.9856 40.8452C22.0466 36.0878 22.5393 31.1587 24.4016 26.6814C26.2638 22.204 29.412 18.3794 33.4479 15.6912C37.4838 13.0031 42.2262 11.572 47.0754 11.5791C53.5775 11.5905 59.8088 14.1834 64.3997 18.7878C68.9906 23.3921 71.5652 29.6311 71.5576 36.1331Z" fill="#0067B5"/>
<path d="M71.4145 36.1321C71.4145 40.96 69.9829 45.6795 67.3006 49.6937C64.6184 53.708 60.806 56.8368 56.3456 58.6843C51.8852 60.5319 46.9771 61.0153 42.2419 60.0734C37.5068 59.1315 33.1573 56.8067 29.7434 53.3928C26.3295 49.979 24.0047 45.6294 23.0628 40.8943C22.1209 36.1591 22.6043 31.251 24.4519 26.7906C26.2995 22.3302 29.4282 18.5178 33.4425 15.8356C37.4567 13.1533 42.1762 11.7217 47.0041 11.7217C53.4782 11.7217 59.6871 14.2935 64.2649 18.8713C68.8427 23.4492 71.4145 29.658 71.4145 36.1321Z" fill="#0067B5"/>
<path d="M71.3397 36.1335C71.3326 40.9402 69.9004 45.6367 67.2241 49.6293C64.5477 53.6219 60.7476 56.7312 56.3041 58.5641C51.8607 60.3969 46.9735 60.871 42.2606 59.9263C37.5478 58.9816 33.2209 56.6606 29.8271 53.2568C26.4333 49.853 24.1251 45.5193 23.1944 40.8036C22.2636 36.088 22.7521 31.2022 24.5981 26.7642C26.444 22.3262 29.5646 18.5353 33.5651 15.8708C37.5656 13.2062 42.2663 11.7879 47.0729 11.7949C53.5149 11.8158 59.686 14.3891 64.2344 18.951C68.7829 23.5129 71.3379 29.6915 71.3397 36.1335Z" fill="#0068B6"/>
<path d="M71.1966 36.1335C71.1966 40.9188 69.7776 45.5966 67.1191 49.5755C64.4605 53.5543 60.6817 56.6555 56.2607 58.4867C51.8396 60.318 46.9748 60.7971 42.2814 59.8636C37.5881 58.93 33.2769 56.6257 29.8932 53.2419C26.5095 49.8582 24.2051 45.5471 23.2716 40.8537C22.338 36.1603 22.8171 31.2955 24.6484 26.8744C26.4796 22.4534 29.5808 18.6746 33.5596 16.0161C37.5385 13.3575 42.2163 11.9385 47.0016 11.9385C53.4174 11.9423 59.5693 14.4926 64.1059 19.0292C68.6425 23.5658 71.1928 29.7177 71.1966 36.1335Z" fill="#0068B6"/>
<path d="M71.1258 36.133C71.1187 40.897 69.699 45.5519 67.0464 49.5091C64.3937 53.4663 60.6272 56.548 56.2231 58.3646C51.819 60.1811 46.9752 60.6509 42.3041 59.7145C37.633 58.7781 33.3445 56.4777 29.9808 53.104C26.6172 49.7303 24.3295 45.4349 23.407 40.7611C22.4846 36.0872 22.9688 31.2448 24.7985 26.8461C26.6281 22.4475 29.7211 18.6901 33.6861 16.0493C37.6512 13.4085 42.3104 12.0027 47.0744 12.0098C53.4604 12.0269 59.5789 14.5762 64.0878 19.0986C68.5966 23.6209 71.1277 29.747 71.1258 36.133Z" fill="#0069B6"/>
<path d="M70.9807 36.1329C70.9807 40.8757 69.5743 45.5119 66.9394 49.4553C64.3045 53.3987 60.5594 56.4722 56.1777 58.2872C51.796 60.1022 46.9745 60.577 42.3229 59.6518C37.6713 58.7265 33.3986 56.4427 30.045 53.0891C26.6914 49.7355 24.4075 45.4627 23.4823 40.8111C22.557 36.1595 23.0319 31.338 24.8468 26.9563C26.6618 22.5746 29.7353 18.8295 33.6787 16.1946C37.6222 13.5597 42.2584 12.1533 47.0011 12.1533C53.3574 12.1647 59.4501 14.6948 63.9447 19.1894C68.4393 23.6839 70.9693 29.7766 70.9807 36.1329Z" fill="#0069B7"/>
<path d="M70.9098 36.1329C70.9169 40.8543 69.5238 45.4718 66.9066 49.4015C64.2895 53.3311 60.5658 56.3964 56.2065 58.2098C51.8472 60.0232 47.048 60.5031 42.416 59.589C37.7839 58.6748 33.5269 56.4077 30.1834 53.0741C26.8398 49.7406 24.5598 45.4905 23.6317 40.8612C22.7037 36.2319 23.1692 31.4313 24.9695 27.0666C26.7697 22.7018 29.8238 18.969 33.7456 16.34C37.6673 13.711 42.2806 12.304 47.002 12.2969C53.3309 12.295 59.4022 14.8033 63.8842 19.2718C68.3661 23.7403 70.8927 29.804 70.9098 36.1329Z" fill="#006AB7"/>
<path d="M70.7648 36.1334C70.7648 40.8335 69.371 45.4281 66.7598 49.3361C64.1485 53.2441 60.4371 56.29 56.0947 58.0887C51.7524 59.8873 46.9742 60.3579 42.3644 59.441C37.7546 58.524 33.5202 56.2607 30.1967 52.9372C26.8732 49.6137 24.6099 45.3793 23.693 40.7695C22.776 36.1597 23.2466 31.3815 25.0453 27.0392C26.8439 22.6969 29.8899 18.9854 33.7979 16.3741C37.7059 13.7629 42.3004 12.3691 47.0006 12.3691C50.1219 12.3673 53.2129 12.9806 56.097 14.1742C58.981 15.3678 61.6015 17.1182 63.8086 19.3253C66.0157 21.5324 67.7661 24.1529 68.9597 27.037C70.1533 29.921 70.7667 33.0121 70.7648 36.1334Z" fill="#006BB8"/>
<path d="M70.6935 36.1329C70.6935 40.8188 69.3039 45.3995 66.7006 49.2957C64.0972 53.1919 60.397 56.2286 56.0677 58.0218C51.7385 59.815 46.9748 60.2842 42.3789 59.37C37.783 58.4559 33.5614 56.1994 30.248 52.8859C26.9345 49.5725 24.678 45.3509 23.7638 40.755C22.8497 36.1591 23.3189 31.3954 25.1121 27.0662C26.9053 22.7369 29.942 19.0367 33.8382 16.4333C37.7344 13.83 42.3151 12.4404 47.001 12.4404C50.1124 12.4404 53.1932 13.0533 56.0677 14.2439C58.9422 15.4346 61.5541 17.1797 63.7541 19.3798C65.9542 21.5798 67.6993 24.1917 68.89 27.0662C70.0806 29.9407 70.6935 33.0215 70.6935 36.1329Z" fill="#006BB8"/>
<path d="M70.5489 36.1328C70.5489 40.7903 69.1677 45.3433 66.5802 49.2159C63.9926 53.0884 60.3148 56.1068 56.0118 57.8891C51.7088 59.6715 46.9739 60.1378 42.4059 59.2292C37.8378 58.3205 33.6418 56.0777 30.3485 52.7844C27.0551 49.491 24.8123 45.295 23.9037 40.727C22.995 36.1589 23.4614 31.4241 25.2437 27.1211C27.0261 22.8181 30.0444 19.1403 33.917 16.5527C37.7896 13.9651 42.3425 12.584 47 12.584C53.2444 12.5878 59.2319 15.07 63.6474 19.4855C68.0628 23.9009 70.5451 29.8885 70.5489 36.1328Z" fill="#006CB9"/>
<path d="M70.4756 36.1323C70.4756 40.7756 69.0987 45.3147 66.519 49.1755C63.9393 53.0362 60.2727 56.0454 55.9828 57.8223C51.6929 59.5992 46.9725 60.0641 42.4184 59.1583C37.8643 58.2524 33.6811 56.0164 30.3978 52.7331C27.1144 49.4498 24.8785 45.2666 23.9726 40.7125C23.0667 36.1584 23.5317 31.4379 25.3086 27.148C27.0855 22.8582 30.0946 19.1916 33.9554 16.6119C37.8162 14.0322 42.3552 12.6553 46.9985 12.6553C53.2245 12.6572 59.1948 15.1313 63.5972 19.5336C67.9996 23.936 70.4737 29.9064 70.4756 36.1323Z" fill="#006CB9"/>
<path d="M70.3368 36.1333C70.3368 40.7482 68.9684 45.2595 66.4044 49.0966C63.8405 52.9338 60.1963 55.9245 55.9327 57.6906C51.6691 59.4566 46.9775 59.9187 42.4513 59.0184C37.925 58.118 33.7674 55.8957 30.5041 52.6325C27.2409 49.3693 25.0186 45.2116 24.1183 40.6854C23.218 36.1591 23.68 31.4676 25.4461 27.2039C27.2121 22.9403 30.2028 19.2961 34.04 16.7322C37.8772 14.1683 42.3885 12.7998 47.0034 12.7998C53.1918 12.7998 59.1268 15.2581 63.5026 19.634C67.8785 24.0099 70.3368 29.9448 70.3368 36.1333Z" fill="#006DBA"/>
<path d="M70.2621 36.1332C70.2692 40.7268 68.9139 45.2194 66.3677 49.0428C63.8216 52.8662 60.1988 55.8487 55.9576 57.6131C51.7163 59.3776 47.0471 59.8448 42.5404 58.9556C38.0337 58.0663 33.8918 55.8607 30.6386 52.6176C27.3854 49.3744 25.167 45.2394 24.2639 40.7354C23.3607 36.2315 23.8135 31.5608 25.5648 27.3142C27.3161 23.0675 30.2874 19.4355 34.1029 16.8776C37.9184 14.3196 42.4068 12.9505 47.0004 12.9434C53.1579 12.9414 59.0649 15.3817 63.4256 19.729C67.7864 24.0763 70.245 29.9757 70.2621 36.1332Z" fill="#006EBA"/>
<path d="M70.119 36.1337C70.119 40.706 68.7631 45.1757 66.2229 48.9774C63.6826 52.7792 60.0721 55.7423 55.8478 57.492C51.6235 59.2418 46.9752 59.6996 42.4908 58.8076C38.0063 57.9155 33.8871 55.7138 30.6539 52.4806C27.4208 49.2475 25.219 45.1283 24.327 40.6438C23.435 36.1593 23.8928 31.5111 25.6426 27.2868C27.3923 23.0625 30.3554 19.452 34.1572 16.9117C37.9589 14.3715 42.4286 13.0156 47.0009 13.0156C50.0373 13.0137 53.0444 13.6104 55.85 14.7715C58.6557 15.9327 61.205 17.6355 63.352 19.7825C65.4991 21.9296 67.2019 24.4789 68.363 27.2846C69.5242 30.0902 70.1208 33.0973 70.119 36.1337Z" fill="#006EBB"/>
<path d="M70.0495 36.1327C70.0637 40.6938 68.7241 45.1566 66.2004 48.956C63.6767 52.7554 60.0824 55.7205 55.8725 57.4758C51.6626 59.2311 47.0265 59.6978 42.5513 58.8166C38.076 57.9355 33.9628 55.7463 30.7326 52.5261C27.5023 49.3059 25.3002 45.1995 24.4052 40.7271C23.5101 36.2546 23.9623 31.6171 25.7044 27.4017C27.4466 23.1864 30.4005 19.5828 34.1919 17.0472C37.9834 14.5117 42.442 13.1582 47.0032 13.1582C53.1007 13.1657 58.9474 15.5864 63.2657 19.8913C67.584 24.1961 70.0229 30.0352 70.0495 36.1327Z" fill="#006FBB"/>
<path d="M69.905 36.1312C69.905 40.6609 68.5618 45.0889 66.0452 48.8553C63.5286 52.6216 59.9517 55.5571 55.7668 57.2905C51.5819 59.024 46.9769 59.4775 42.5342 58.5938C38.0915 57.7101 34.0107 55.5288 30.8077 52.3258C27.6047 49.1228 25.4234 45.042 24.5397 40.5993C23.656 36.1566 24.1095 31.5516 25.843 27.3667C27.5764 23.1818 30.5119 19.6049 34.2783 17.0883C38.0446 14.5717 42.4726 13.2285 47.0023 13.2285C50.0105 13.2266 52.9895 13.8177 55.769 14.968C58.5485 16.1183 61.0741 17.8053 63.2012 19.9324C65.3282 22.0594 67.0152 24.585 68.1655 27.3645C69.3158 30.144 69.9069 33.123 69.905 36.1312Z" fill="#006FBB"/>
<path d="M69.8337 36.1336C69.8337 40.6491 68.4947 45.0633 65.986 48.8178C63.4773 52.5723 59.9116 55.4986 55.7398 57.2266C51.568 58.9546 46.9774 59.4068 42.5487 58.5258C38.1199 57.6449 34.0519 55.4705 30.8589 52.2775C27.6659 49.0845 25.4915 45.0165 24.6106 40.5877C23.7296 36.1589 24.1818 31.5684 25.9098 27.3966C27.6378 23.2248 30.5641 19.6591 34.3186 17.1504C38.0731 14.6417 42.4873 13.3027 47.0028 13.3027C53.0567 13.3065 58.8616 15.7132 63.1424 19.9939C67.4232 24.2747 69.8299 30.0797 69.8337 36.1336Z" fill="#0070BC"/>
<path d="M69.6871 36.1326C69.6871 40.6197 68.3565 45.0061 65.8636 48.737C63.3707 52.4679 59.8274 55.3758 55.6819 57.0929C51.5363 58.8101 46.9746 59.2594 42.5737 58.384C38.1728 57.5086 34.1303 55.3478 30.9575 52.175C27.7846 49.0021 25.6238 44.9596 24.7484 40.5587C23.873 36.1578 24.3223 31.5961 26.0395 27.4506C27.7566 23.305 30.6645 19.7617 34.3954 17.2688C38.1263 14.7759 42.5127 13.4453 46.9998 13.4453C53.0169 13.4453 58.7875 15.8356 63.0422 20.0903C67.2968 24.345 69.6871 30.1156 69.6871 36.1326Z" fill="#0070BC"/>
<path d="M69.6182 36.1331C69.6111 40.5989 68.2799 44.9623 65.7929 48.6716C63.3059 52.3808 59.7748 55.2693 55.6462 56.9717C51.5177 58.6742 46.9769 59.1141 42.5983 58.2359C38.2197 57.3577 34.1998 55.2008 31.047 52.038C27.8943 48.8751 25.7502 44.8484 24.8859 40.467C24.0216 36.0856 24.476 31.5464 26.1915 27.4232C27.9071 23.3 30.8068 19.7782 34.5239 17.303C38.241 14.8278 42.6087 13.5105 47.0745 13.5176C53.06 13.5366 58.7939 15.9277 63.0197 20.1669C67.2454 24.406 69.6182 30.1475 69.6182 36.1331Z" fill="#0071BD"/>
<path d="M69.4751 36.1321C69.4751 40.5766 68.1571 44.9213 65.6879 48.6168C63.2186 52.3123 59.709 55.1926 55.6028 56.8934C51.4966 58.5943 46.9782 59.0393 42.6191 58.1722C38.26 57.3051 34.2559 55.1649 31.1131 52.0221C27.9704 48.8794 25.8301 44.8752 24.9631 40.5161C24.096 36.157 24.541 31.6386 26.2418 27.5324C27.9427 23.4262 30.823 19.9166 34.5184 17.4474C38.2139 14.9781 42.5586 13.6602 47.0032 13.6602C49.9548 13.6583 52.8778 14.2382 55.605 15.3669C58.3323 16.4955 60.8103 18.1507 62.8974 20.2378C64.9845 22.3249 66.6397 24.8029 67.7684 27.5302C68.897 30.2575 69.477 33.1805 69.4751 36.1321Z" fill="#0072BD"/>
<path d="M69.3999 36.1325C69.3999 40.5629 68.0861 44.8937 65.6248 48.5774C63.1634 52.2611 59.665 55.1321 55.5719 56.8275C51.4788 58.523 46.9749 58.9666 42.6297 58.1022C38.2845 57.2379 34.2932 55.1045 31.1605 51.9718C28.0277 48.8391 25.8943 44.8478 25.03 40.5026C24.1657 36.1574 24.6093 31.6535 26.3047 27.5604C28.0001 23.4673 30.8712 19.9689 34.5549 17.5075C38.2386 15.0462 42.5694 13.7324 46.9997 13.7324C52.9383 13.74 58.6314 16.1025 62.8306 20.3017C67.0298 24.5008 69.3923 30.194 69.3999 36.1325Z" fill="#0072BE"/>
<path d="M69.2592 36.1335C69.2592 40.5354 67.9538 44.8385 65.5083 48.4985C63.0627 52.1586 59.5867 55.0113 55.5198 56.6958C51.453 58.3804 46.9779 58.8211 42.6606 57.9624C38.3433 57.1036 34.3775 54.9838 31.2649 51.8712C28.1523 48.7586 26.0325 44.7929 25.1738 40.4755C24.315 36.1582 24.7557 31.6831 26.4403 27.6163C28.1248 23.5494 30.9775 20.0734 34.6376 17.6279C38.2976 15.1823 42.6007 13.877 47.0026 13.877C52.9054 13.877 58.5665 16.2218 62.7404 20.3957C66.9143 24.5696 69.2592 30.2307 69.2592 36.1335Z" fill="#0073BE"/>
<path d="M69.1878 36.133C69.1878 40.5207 67.8867 44.8099 65.449 48.4582C63.0113 52.1064 59.5466 54.9499 55.4928 56.629C51.4391 58.3081 46.9785 58.7474 42.6751 57.8914C38.3717 57.0354 34.4187 54.9225 31.3161 51.82C28.2135 48.7174 26.1006 44.7644 25.2446 40.461C24.3886 36.1576 24.828 31.697 26.5071 27.6432C28.1862 23.5895 31.0297 20.1247 34.6779 17.687C38.3262 15.2494 42.6154 13.9482 47.0031 13.9482C52.8857 13.952 58.5263 16.2906 62.6859 20.4502C66.8455 24.6098 69.184 30.2504 69.1878 36.133Z" fill="#0073BE"/>
<path d="M69.0413 36.1329C69.0413 40.4923 67.7486 44.7537 65.3267 48.3783C62.9048 52.003 59.4624 54.8281 55.4349 56.4963C51.4074 58.1645 46.9757 58.601 42.7001 57.7506C38.4246 56.9001 34.4972 54.8009 31.4147 51.7184C28.3322 48.6359 26.233 44.7085 25.3825 40.433C24.532 36.1574 24.9685 31.7257 26.6368 27.6982C28.305 23.6707 31.1301 20.2283 34.7547 17.8064C38.3794 15.3845 42.6408 14.0918 47.0001 14.0918C52.8452 14.0937 58.4504 16.4165 62.5835 20.5496C66.7166 24.6827 69.0394 30.2878 69.0413 36.1329Z" fill="#0074BF"/>
<path d="M68.9719 36.1334C68.9719 40.4785 67.6834 44.7261 65.2694 48.3389C62.8554 51.9518 59.4242 54.7676 55.4099 56.4304C51.3955 58.0932 46.9782 58.5283 42.7166 57.6806C38.4549 56.8329 34.5404 54.7406 31.4679 51.6681C28.3954 48.5956 26.303 44.6811 25.4553 40.4194C24.6077 36.1578 25.0427 31.7405 26.7055 27.7261C28.3683 23.7117 31.1842 20.2806 34.797 17.8666C38.4099 15.4525 42.6574 14.1641 47.0026 14.1641C49.8876 14.1641 52.7444 14.7323 55.4099 15.8364C58.0753 16.9404 60.4972 18.5587 62.5372 20.5987C64.5773 22.6388 66.1955 25.0607 67.2996 27.7261C68.4037 30.3915 68.9719 33.2484 68.9719 36.1334Z" fill="#0075BF"/>
<path d="M68.8273 36.1324C68.8273 40.4491 67.5472 44.6689 65.149 48.2581C62.7508 51.8474 59.342 54.6448 55.3539 56.2968C51.3658 57.9487 46.9773 58.3809 42.7436 57.5388C38.5098 56.6966 34.6208 54.6179 31.5684 51.5655C28.516 48.5131 26.4373 44.6242 25.5952 40.3904C24.753 36.1566 25.1852 31.7682 26.8372 27.78C28.4891 23.7919 31.2866 20.3832 34.8758 17.9849C38.465 15.5867 42.6848 14.3066 47.0015 14.3066C49.868 14.3057 52.7066 14.8696 55.355 15.9661C58.0035 17.0626 60.4099 18.6703 62.4368 20.6972C64.4637 22.7241 66.0713 25.1305 67.1678 27.7789C68.2644 30.4274 68.8282 33.2659 68.8273 36.1324Z" fill="#0075C0"/>
<path d="M68.7579 36.1319C68.7579 40.4344 67.4821 44.6403 65.0917 48.2177C62.7014 51.7952 59.3039 54.5834 55.3288 56.2299C51.3538 57.8764 46.9798 58.3072 42.76 57.4679C38.5401 56.6285 34.6639 54.5566 31.6216 51.5143C28.5793 48.4719 26.5074 44.5957 25.668 40.3759C24.8286 36.156 25.2594 31.782 26.9059 27.807C28.5524 23.832 31.3407 20.4345 34.9181 18.0441C38.4955 15.6538 42.7014 14.3779 47.004 14.3779C49.8613 14.376 52.6909 14.9374 55.3311 16.03C57.9712 17.1226 60.3701 18.7249 62.3906 20.7453C64.411 22.7657 66.0133 25.1646 67.1059 27.8048C68.1984 30.4449 68.7598 33.2746 68.7579 36.1319Z" fill="#0076C0"/>
<path d="M68.6114 36.1328C68.6114 40.407 67.3439 44.5851 64.9694 48.1389C62.5948 51.6927 59.2197 54.4626 55.2709 56.0982C51.3222 57.7338 46.977 58.1618 42.785 57.328C38.593 56.4941 34.7424 54.4359 31.7202 51.4137C28.6979 48.3914 26.6397 44.5408 25.8059 40.3488C24.972 36.1568 25.4 31.8117 27.0356 27.8629C28.6713 23.9141 31.4411 20.539 34.9949 18.1645C38.5487 15.7899 42.7269 14.5225 47.001 14.5225C52.7307 14.5282 58.224 16.8068 62.2755 20.8583C66.327 24.9098 68.6057 30.4032 68.6114 36.1328Z" fill="#0076C1"/>
<path d="M68.5401 36.1333C68.5401 40.3932 67.2768 44.5575 64.9101 48.0995C62.5435 51.6415 59.1796 54.4021 55.2439 56.0323C51.3083 57.6626 46.9776 58.0891 42.7995 57.258C38.6214 56.4269 34.7836 54.3756 31.7714 51.3634C28.7592 48.3511 26.7078 44.5133 25.8768 40.3353C25.0457 36.1572 25.4722 31.8265 27.1024 27.8908C28.7326 23.9552 31.4933 20.5913 35.0353 18.2246C38.5773 15.8579 42.7415 14.5947 47.0015 14.5947C52.7139 14.5947 58.1923 16.864 62.2315 20.9032C66.2708 24.9425 68.5401 30.4209 68.5401 36.1333Z" fill="#0077C1"/>
<path d="M68.4677 36.1333C68.4677 40.3648 67.2129 44.5013 64.862 48.0197C62.5111 51.5381 59.1697 54.2803 55.2602 55.8997C51.3508 57.519 47.049 57.9427 42.8988 57.1172C38.7486 56.2917 34.9363 54.254 31.9442 51.2618C28.952 48.2697 26.9144 44.4575 26.0888 40.3073C25.2633 36.157 25.687 31.8552 27.3063 27.9458C28.9257 24.0364 31.6679 20.6949 35.1863 18.344C38.7047 15.9931 42.8412 14.7383 47.0727 14.7383C49.8837 14.7336 52.6679 15.2838 55.2658 16.3573C57.8637 17.4308 60.2242 19.0066 62.2118 20.9942C64.1995 22.9819 65.7752 25.3423 66.8487 27.9402C67.9223 30.5381 68.4724 33.3223 68.4677 36.1333Z" fill="#0078C2"/>
<path d="M68.3241 36.1328C68.3241 40.3501 67.0735 44.4727 64.7305 47.9793C62.3875 51.4859 59.0573 54.2189 55.161 55.8328C51.2647 57.4467 46.9773 57.869 42.841 57.0462C38.7047 56.2235 34.9053 54.1926 31.9232 51.2105C28.9411 48.2284 26.9102 44.429 26.0875 40.2927C25.2647 36.1564 25.687 31.869 27.3009 27.9727C28.9148 24.0764 31.6478 20.7462 35.1544 18.4032C38.661 16.0602 42.7836 14.8096 47.0009 14.8096C52.6562 14.8096 58.0798 17.0561 62.0787 21.055C66.0776 25.0539 68.3241 30.4775 68.3241 36.1328Z" fill="#0078C2"/>
<path d="M68.2532 36.1329C68.2603 40.3289 67.023 44.4328 64.6977 47.9256C62.3724 51.4184 59.0636 54.1432 55.1897 55.7555C51.3158 57.3678 47.0508 57.7952 42.934 56.9836C38.8173 56.1719 35.0336 54.1577 32.0616 51.1957C29.0895 48.2337 27.0625 44.4569 26.237 40.3429C25.4114 36.2289 25.8243 31.9624 27.4235 28.0831C29.0227 24.2038 31.7363 20.8858 35.2212 18.5487C38.7061 16.2116 42.8058 14.9604 47.0018 14.9533C49.7895 14.9429 52.5517 15.4831 55.1301 16.5429C57.7084 17.6027 60.0521 19.1612 62.0266 21.1291C64.0011 23.0969 65.5676 25.4353 66.6361 28.01C67.7047 30.5848 68.2542 33.3452 68.2532 36.1329Z" fill="#0079C3"/>
<path d="M68.1086 36.1323C68.1015 40.2999 66.8587 44.3718 64.5374 47.8331C62.2161 51.2944 58.9205 53.9896 55.0674 55.5779C51.2143 57.1663 46.9768 57.5763 42.8906 56.7563C38.8045 55.9363 35.0532 53.923 32.1113 50.971C29.1694 48.019 27.1689 44.261 26.3628 40.172C25.5567 36.0831 25.9812 31.847 27.5826 27.9993C29.1841 24.1516 31.8905 20.8653 35.3597 18.5558C38.8289 16.2463 42.905 15.0174 47.0726 15.0244C52.6595 15.0397 58.0121 17.2707 61.9559 21.2279C65.8997 25.1852 68.1125 30.5454 68.1086 36.1323Z" fill="#007AC3"/>
<path d="M68.0417 36.1341C68.0417 40.2805 66.8122 44.3337 64.5086 47.7812C62.205 51.2288 58.9309 53.9158 55.1002 55.5025C51.2694 57.0893 47.0542 57.5044 42.9876 56.6955C38.9209 55.8866 35.1855 53.89 32.2536 50.9581C29.3217 48.0262 27.325 44.2907 26.5161 40.224C25.7072 36.1574 26.1224 31.9422 27.7091 28.1115C29.2958 24.2808 31.9829 21.0066 35.4304 18.703C38.878 16.3995 42.9312 15.1699 47.0775 15.1699C52.6358 15.1756 57.9648 17.3862 61.8951 21.3165C65.8255 25.2468 68.036 30.5758 68.0417 36.1341Z" fill="#007AC3"/>
<path d="M67.898 36.1331C67.9122 40.2683 66.699 44.3147 64.4119 47.7598C62.1249 51.205 58.867 53.894 55.0506 55.4863C51.2343 57.0786 47.0313 57.5026 42.9739 56.7046C38.9164 55.9066 35.187 53.9225 32.258 51.0035C29.3289 48.0845 27.332 44.362 26.52 40.3073C25.708 36.2526 26.1176 32.0482 27.6967 28.2264C29.2759 24.4047 31.9537 21.1375 35.391 18.8386C38.8282 16.5397 42.8704 15.3125 47.0056 15.3125C52.5365 15.3049 57.8441 17.4938 61.7618 21.398C65.6795 25.3022 67.8866 30.6022 67.898 36.1331Z" fill="#007BC4"/>
<path d="M67.8224 36.1321C67.8508 40.256 66.6539 44.2955 64.3835 47.7383C62.1131 51.1811 58.8714 53.872 55.0695 55.4699C51.2676 57.0678 47.0768 57.5007 43.0286 56.7136C38.9804 55.9265 35.2571 53.955 32.3309 51.049C29.4047 48.1429 27.4074 44.4334 26.5923 40.3907C25.7773 36.348 26.1811 32.1544 27.7527 28.3415C29.3242 24.5287 31.9927 21.2684 35.4197 18.9742C38.8467 16.68 42.8778 15.4552 47.0018 15.4551C52.499 15.4549 57.7731 17.6288 61.6736 21.5024C65.5742 25.3761 67.7845 30.6351 67.8224 36.1321Z" fill="#007BC4"/>
<path d="M67.6802 36.1321C67.6802 40.2216 66.4676 44.2193 64.1955 47.6197C61.9235 51.02 58.6942 53.6702 54.916 55.2352C51.1377 56.8002 46.9803 57.2097 42.9693 56.4118C38.9584 55.614 35.2741 53.6447 32.3823 50.753C29.4906 47.8612 27.5213 44.177 26.7235 40.166C25.9257 36.155 26.3351 31.9976 27.9001 28.2194C29.4651 24.4411 32.1153 21.2118 35.5157 18.9398C38.916 16.6678 42.9137 15.4551 47.0032 15.4551C52.4865 15.457 57.7447 17.6361 61.622 21.5133C65.4993 25.3906 67.6783 30.6488 67.6802 36.1321Z" fill="#007CC5"/>
<path d="M67.606 36.1321C67.606 40.1932 66.4017 44.1631 64.1454 47.5398C61.8892 50.9166 58.6823 53.5484 54.9303 55.1025C51.1783 56.6566 47.0497 57.0633 43.0666 56.271C39.0835 55.4787 35.4248 53.5231 32.5532 50.6514C29.6815 47.7798 27.7259 44.121 26.9336 40.138C26.1413 36.1549 26.548 32.0263 28.1021 28.2743C29.6562 24.5223 32.288 21.3154 35.6647 19.0591C39.0414 16.8029 43.0114 15.5986 47.0725 15.5986C49.7693 15.5977 52.4398 16.1282 54.9314 17.1597C57.4231 18.1913 59.6871 19.7037 61.594 21.6106C63.5008 23.5175 65.0133 25.7815 66.0449 28.2732C67.0764 30.7648 67.6069 33.4353 67.606 36.1321Z" fill="#007DC5"/>
<path d="M67.4624 36.1335C67.4624 40.1805 66.2623 44.1365 64.014 47.5014C61.7656 50.8663 58.5699 53.4889 54.8311 55.0376C51.0922 56.5863 46.978 56.9915 43.0088 56.202C39.0397 55.4125 35.3938 53.4637 32.5321 50.6021C29.6705 47.7405 27.7218 44.0946 26.9322 40.1254C26.1427 36.1562 26.5479 32.0421 28.0966 28.3032C29.6453 24.5643 32.2679 21.3686 35.6328 19.1203C38.9977 16.8719 42.9538 15.6719 47.0007 15.6719C49.688 15.6709 52.3492 16.1995 54.8322 17.2275C57.3151 18.2555 59.5712 19.7626 61.4714 21.6628C63.3716 23.5631 64.8788 25.8191 65.9067 28.3021C66.9347 30.785 67.4633 33.4462 67.4624 36.1335Z" fill="#007DC6"/>
<path d="M67.3915 36.1326C67.3986 40.1582 66.2118 44.0955 63.9812 47.4466C61.7505 50.7978 58.5763 53.4122 54.8598 54.9593C51.1433 56.5064 47.0516 56.9167 43.1019 56.1383C39.1522 55.3599 35.5221 53.4277 32.6705 50.5862C29.819 47.7447 27.8741 44.1214 27.0817 40.1745C26.2894 36.2276 26.6853 32.1344 28.2192 28.4125C29.7532 24.6906 32.3564 21.5071 35.6997 19.2647C39.0429 17.0223 42.976 15.8216 47.0016 15.8145C49.6748 15.8088 52.3229 16.33 54.7946 17.3482C57.2663 18.3664 59.5131 19.8616 61.4067 21.7485C63.3002 23.6354 64.8034 25.877 65.8303 28.345C66.8572 30.8131 67.3877 33.4594 67.3915 36.1326Z" fill="#007EC6"/>
<path d="M67.2484 36.133C67.2484 40.1373 66.061 44.0517 63.8363 47.3812C61.6116 50.7107 58.4496 53.3057 54.75 54.8381C51.0505 56.3705 46.9797 56.7714 43.0523 55.9902C39.1249 55.209 35.5174 53.2807 32.6859 50.4493C29.8544 47.6178 27.9261 44.0102 27.1449 40.0828C26.3637 36.1554 26.7646 32.0846 28.297 28.3851C29.8294 24.6856 32.4244 21.5235 35.7539 19.2988C39.0834 17.0742 42.9978 15.8867 47.0021 15.8867C49.6617 15.8839 52.2957 16.4056 54.7534 17.4221C57.2111 18.4386 59.4441 19.9298 61.3247 21.8104C63.2053 23.691 64.6965 25.9241 65.713 28.3817C66.7295 30.8394 67.2512 33.4734 67.2484 36.133Z" fill="#007EC7"/>
<path d="M67.1761 36.1329C67.1761 40.1089 65.9971 43.9955 63.7881 47.3014C61.5792 50.6073 58.4396 53.1839 54.7663 54.7054C51.0931 56.2269 47.0511 56.625 43.1515 55.8494C39.252 55.0737 35.6701 53.1591 32.8586 50.3477C30.0472 47.5363 28.1326 43.9543 27.357 40.0548C26.5813 36.1552 26.9794 32.1133 28.5009 28.44C30.0225 24.7667 32.5991 21.6271 35.9049 19.4182C39.2108 17.2093 43.0975 16.0303 47.0734 16.0303C52.4049 16.0303 57.5181 18.1482 61.2881 21.9182C65.0581 25.6882 67.1761 30.8014 67.1761 36.1329Z" fill="#007FC7"/>
<path d="M67.0325 36.1324C67.0325 40.0942 65.8577 43.9669 63.6567 47.261C61.4556 50.5551 58.3272 53.1225 54.6671 54.6386C51.0069 56.1546 46.9794 56.5513 43.0938 55.7784C39.2081 55.0055 35.639 53.0978 32.8376 50.2964C30.0363 47.495 28.1285 43.9259 27.3556 40.0403C26.5827 36.1547 26.9794 32.1271 28.4955 28.467C30.0116 24.8068 32.579 21.6784 35.873 19.4774C39.1671 17.2764 43.0399 16.1016 47.0016 16.1016C52.3135 16.1035 57.4073 18.2145 61.1635 21.9706C64.9196 25.7267 67.0306 30.8205 67.0325 36.1324Z" fill="#0080C7"/>
<path d="M66.9596 36.1335C66.9667 40.0739 65.8052 43.928 63.6219 47.2083C61.4386 50.4885 58.3316 53.0477 54.6939 54.5622C51.0561 56.0767 47.051 56.4785 43.1849 55.7167C39.3188 54.9549 35.7654 53.0638 32.9741 50.2825C30.1827 47.5013 28.2788 43.9547 27.5031 40.0914C26.7274 36.2281 27.1148 32.2215 28.6161 28.5783C30.1175 24.9351 32.6655 21.8189 35.9379 19.6238C39.2103 17.4287 43.0601 16.2533 47.0005 16.2462C49.6182 16.2368 52.212 16.7442 54.6331 17.7394C57.0543 18.7346 59.2551 20.198 61.1094 22.0456C62.9637 23.8933 64.435 26.0888 65.4389 28.5064C66.4429 30.9239 66.9596 33.5158 66.9596 36.1335Z" fill="#0080C8"/>
<path d="M66.8204 36.1339C66.8204 40.053 65.6583 43.8841 63.4809 47.1427C61.3036 50.4014 58.2088 52.9412 54.588 54.441C50.9672 55.9408 46.983 56.3332 43.1391 55.5686C39.2953 54.804 35.7645 52.9168 32.9933 50.1455C30.222 47.3743 28.3348 43.8435 27.5702 39.9997C26.8056 36.1558 27.198 32.1716 28.6978 28.5508C30.1976 24.93 32.7374 21.8352 35.9961 19.6579C39.2547 17.4805 43.0858 16.3184 47.005 16.3184C49.6074 16.3174 52.1846 16.8293 54.5891 17.8248C56.9937 18.8203 59.1785 20.2799 61.0187 22.1201C62.8589 23.9603 64.3185 26.1451 65.314 28.5497C66.3095 30.9542 66.8214 33.5314 66.8204 36.1339Z" fill="#0081C8"/>
<path d="M66.7462 36.1328C66.7462 40.0236 65.5924 43.8269 63.4308 47.062C61.2693 50.297 58.1969 52.8184 54.6024 54.3073C51.0078 55.7962 47.0524 56.1858 43.2365 55.4267C39.4205 54.6677 35.9153 52.7941 33.1641 50.043C30.413 47.2918 28.5394 43.7866 27.7803 39.9706C27.0213 36.1547 27.4109 32.1993 28.8998 28.6047C30.3887 25.0102 32.9101 21.9378 36.1451 19.7763C39.3802 17.6147 43.1835 16.4609 47.0743 16.4609C52.2892 16.4685 57.2884 18.5435 60.976 22.2311C64.6635 25.9186 66.7386 30.9179 66.7462 36.1328Z" fill="#0081C9"/>
<path d="M66.6026 36.1314C66.6026 40.0079 65.453 43.7974 63.2993 47.0206C61.1457 50.2438 58.0845 52.756 54.5031 54.2395C50.9216 55.723 46.9807 56.1111 43.1787 55.3549C39.3766 54.5986 35.8842 52.7319 33.1431 49.9907C30.402 47.2496 28.5352 43.7572 27.779 39.9552C27.0227 36.1531 27.4108 32.2122 28.8943 28.6307C30.3778 25.0493 32.89 21.9882 36.1132 19.8345C39.3364 17.6808 43.1259 16.5313 47.0025 16.5313C49.5772 16.5284 52.1272 17.0335 54.5064 18.0175C56.8857 19.0015 59.0475 20.4451 60.8681 22.2657C62.6887 24.0863 64.1324 26.2481 65.1164 28.6274C66.1004 31.0067 66.6054 33.5566 66.6026 36.1314Z" fill="#0082C9"/>
<path d="M66.5302 36.1333C66.5302 39.9814 65.3891 43.7431 63.2512 46.9427C61.1133 50.1424 58.0746 52.6361 54.5194 54.1088C50.9642 55.5814 47.0521 55.9667 43.2779 55.216C39.5037 54.4652 36.0369 52.6122 33.3159 49.8911C30.5948 47.1701 28.7418 43.7033 27.991 39.9291C27.2403 36.1549 27.6256 32.2428 29.0982 28.6876C30.5709 25.1324 33.0646 22.0937 36.2642 19.9558C39.4639 17.8179 43.2256 16.6768 47.0737 16.6768C49.6298 16.673 52.1616 17.1737 54.5239 18.1501C56.8861 19.1266 59.0325 20.5596 60.84 22.367C62.6474 24.1745 64.0804 26.3209 65.0569 28.6831C66.0333 31.0454 66.534 33.5772 66.5302 36.1333Z" fill="#0083CA"/>
<path d="M66.3866 36.1328C66.3866 39.9667 65.2497 43.7145 63.1197 46.9023C60.9897 50.0901 57.9622 52.5747 54.4201 54.0419C50.878 55.5091 46.9804 55.893 43.2201 55.145C39.4599 54.397 36.0058 52.5508 33.2948 49.8398C30.5838 47.1288 28.7376 43.6748 27.9897 39.9145C27.2417 36.1543 27.6256 32.2566 29.0928 28.7146C30.56 25.1725 33.0445 22.145 36.2323 20.015C39.4201 17.8849 43.168 16.748 47.0019 16.748C52.1431 16.748 57.0736 18.7904 60.709 22.4257C64.3443 26.061 66.3866 30.9916 66.3866 36.1328Z" fill="#0083CA"/>
<path d="M66.3143 36.1327C66.3143 39.9383 65.1858 43.6583 63.0716 46.8225C60.9573 49.9867 57.9523 52.4529 54.4364 53.9092C50.9206 55.3655 47.0518 55.7466 43.3194 55.0041C39.587 54.2617 36.1586 52.4292 33.4676 49.7383C30.7767 47.0473 28.9442 43.6189 28.2018 39.8865C27.4593 36.1541 27.8404 32.2853 29.2967 28.7695C30.753 25.2536 33.2192 22.2486 36.3834 20.1343C39.5476 18.0201 43.2676 16.8916 47.0732 16.8916C52.1762 16.8916 57.0703 18.9188 60.6787 22.5272C64.2871 26.1356 66.3143 31.0297 66.3143 36.1327Z" fill="#0084CB"/>
<path d="M66.1707 36.1322C66.1707 39.9236 65.0464 43.6298 62.9401 46.7821C60.8337 49.9345 57.8399 52.3915 54.3372 53.8424C50.8344 55.2933 46.9801 55.6729 43.2616 54.9332C39.5431 54.1936 36.1275 52.3679 33.4466 49.687C30.7657 47.0061 28.94 43.5905 28.2004 39.872C27.4607 36.1535 27.8403 32.2992 29.2912 28.7964C30.7421 25.2937 33.1991 22.2999 36.3515 20.1935C39.5038 18.0872 43.21 16.9629 47.0014 16.9629C49.519 16.9619 52.0121 17.4571 54.3383 18.4201C56.6644 19.3832 58.778 20.7951 60.5582 22.5754C62.3385 24.3556 63.7504 26.4692 64.7134 28.7953C65.6765 31.1215 66.1716 33.6146 66.1707 36.1322Z" fill="#0084CB"/>
<path d="M66.1003 36.1341C66.1003 39.8971 64.9845 43.5755 62.8939 46.7043C60.8033 49.833 57.8319 52.2716 54.3554 53.7116C50.8789 55.1517 47.0535 55.5284 43.3628 54.7943C39.6722 54.0602 36.2821 52.2482 33.6213 49.5874C30.9606 46.9266 29.1485 43.5365 28.4144 39.8459C27.6803 36.1553 28.0571 32.3298 29.4971 28.8533C30.9371 25.3768 33.3757 22.4054 36.5044 20.3148C39.6332 18.2242 43.3116 17.1084 47.0746 17.1084C49.5736 17.1065 52.0485 17.5973 54.3576 18.5528C56.6668 19.5083 58.7649 20.9096 60.532 22.6767C62.2991 24.4438 63.7005 26.5419 64.6559 28.8511C65.6114 31.1602 66.1022 33.6351 66.1003 36.1341Z" fill="#0085CB"/>
<path d="M65.9567 36.1327C65.9567 39.8814 64.8451 43.546 62.7624 46.6629C60.6797 49.7799 57.7195 52.2092 54.2561 53.6438C50.7928 55.0784 46.9818 55.4538 43.305 54.7224C39.6283 53.9911 36.2511 52.1859 33.6003 49.5351C30.9496 46.8844 29.1444 43.5071 28.413 39.8304C27.6817 36.1537 28.057 32.3427 29.4916 28.8793C30.9262 25.4159 33.3556 22.4557 36.4725 20.373C39.5895 18.2904 43.254 17.1787 47.0028 17.1787C49.4926 17.1759 51.9586 17.6642 54.2595 18.6157C56.5604 19.5673 58.651 20.9633 60.4116 22.7239C62.1722 24.4845 63.5682 26.5751 64.5197 28.876C65.4712 31.1768 65.9596 33.6428 65.9567 36.1327Z" fill="#0085CC"/>
<path d="M65.8863 36.1326C65.8863 39.853 64.7831 43.4898 62.7162 46.5831C60.6493 49.6765 57.7115 52.0874 54.2744 53.5111C50.8373 54.9349 47.0551 55.3074 43.4063 54.5816C39.7574 53.8558 36.4057 52.0642 33.7751 49.4336C31.1444 46.8029 29.3529 43.4512 28.6271 39.8024C27.9013 36.1535 28.2738 32.3714 29.6975 28.9342C31.1212 25.4971 33.5322 22.5593 36.6255 20.4924C39.7189 18.4255 43.3557 17.3223 47.076 17.3223C49.5473 17.3185 51.995 17.8025 54.2789 18.7464C56.5628 19.6904 58.6379 21.0758 60.3854 22.8233C62.1328 24.5707 63.5182 26.6459 64.4622 28.9298C65.4062 31.2136 65.8901 33.6614 65.8863 36.1326Z" fill="#0086CC"/>
<path d="M65.7426 36.1326C65.7568 39.8417 64.6699 43.4717 62.6196 46.5627C60.5692 49.6536 57.6476 52.0666 54.2249 53.4959C50.8021 54.9252 47.0322 55.3065 43.3926 54.5916C39.7529 53.8767 36.4073 52.0977 33.7795 49.48C31.1517 46.8622 29.3598 43.5235 28.631 39.8866C27.9021 36.2497 28.269 32.4783 29.6851 29.0501C31.1013 25.6219 33.503 22.6911 36.586 20.6289C39.6691 18.5667 43.2949 17.4658 47.0041 17.4658C51.9603 17.4696 56.7135 19.4352 60.2247 22.933C63.736 26.4308 65.7199 31.1764 65.7426 36.1326Z" fill="#0087CD"/>
<path d="M65.6693 36.1321C65.6835 39.8271 64.6009 43.4431 62.5584 46.5223C60.5159 49.6015 57.6055 52.0052 54.1959 53.4291C50.7863 54.8529 47.0308 55.2328 43.4051 54.5207C39.7794 53.8086 36.4466 52.0364 33.8288 49.4287C31.211 46.821 29.426 43.495 28.6999 39.8721C27.9738 36.2492 28.3393 32.4922 29.75 29.0771C31.1607 25.662 33.5532 22.7424 36.6244 20.6881C39.6957 18.6338 43.3076 17.5372 47.0026 17.5371C49.4492 17.5324 51.8728 18.0097 54.135 18.9416C56.3972 19.8735 58.4537 21.2419 60.1871 22.9686C61.9205 24.6953 63.2968 26.7465 64.2374 29.0051C65.1781 31.2637 65.6646 33.6855 65.6693 36.1321Z" fill="#0087CD"/>
<path d="M65.5249 36.1316C65.5249 39.7951 64.4385 43.3764 62.4032 46.4225C60.3678 49.4686 57.4749 51.8428 54.0902 53.2448C50.7055 54.6467 46.9812 55.0135 43.388 54.2988C39.7949 53.5841 36.4943 51.8199 33.9038 49.2294C31.3133 46.6389 29.5492 43.3384 28.8344 39.7453C28.1197 36.1521 28.4865 32.4277 29.8885 29.0431C31.2905 25.6584 33.6647 22.7655 36.7108 20.7301C39.7569 18.6948 43.3382 17.6084 47.0017 17.6084C49.4342 17.6084 51.8429 18.0875 54.0902 19.0184C56.3375 19.9493 58.3795 21.3137 60.0996 23.0337C61.8196 24.7537 63.184 26.7957 64.1149 29.0431C65.0458 31.2904 65.5249 33.6991 65.5249 36.1316Z" fill="#0088CE"/>
<path d="M65.4525 36.1325C65.4525 39.7677 64.3746 43.3212 62.355 46.3437C60.3354 49.3662 57.4649 51.7219 54.1065 53.113C50.7481 54.5041 47.0526 54.8681 43.4873 54.1589C39.922 53.4498 36.6471 51.6993 34.0766 49.1288C31.5062 46.5584 29.7557 43.2835 29.0465 39.7182C28.3373 36.1529 28.7013 32.4574 30.0924 29.099C31.4835 25.7405 33.8393 22.87 36.8618 20.8504C39.8843 18.8309 43.4378 17.7529 47.073 17.7529C49.4869 17.752 51.8773 18.2267 54.1076 19.1501C56.338 20.0734 58.3645 21.4272 60.0714 23.1341C61.7783 24.841 63.1321 26.8675 64.0554 29.0978C64.9787 31.3282 65.4535 33.7186 65.4525 36.1325Z" fill="#0089CE"/>
<path d="M65.3089 36.133C65.3089 39.7539 64.2352 43.2936 62.2235 46.3043C60.2118 49.315 57.3526 51.6615 54.0072 53.0472C50.6619 54.4329 46.9808 54.7954 43.4295 54.089C39.8781 53.3826 36.616 51.6389 34.0556 49.0786C31.4952 46.5182 29.7516 43.256 29.0451 39.7047C28.3387 36.1533 28.7013 32.4722 30.087 29.1269C31.4726 25.7816 33.8192 22.9223 36.8299 20.9106C39.8406 18.8989 43.3802 17.8252 47.0012 17.8252C49.4059 17.8233 51.7874 18.2956 54.0095 19.215C56.2315 20.1343 58.2505 21.4828 59.9509 23.1832C61.6513 24.8836 62.9998 26.9026 63.9192 29.1247C64.8386 31.3467 65.3108 33.7282 65.3089 36.133Z" fill="#0089CF"/>
<path d="M65.2381 36.1332C65.2451 39.7328 64.1847 43.2537 62.1907 46.2506C60.1968 49.2476 57.3589 51.5859 54.036 52.97C50.7131 54.3541 47.0544 54.7217 43.5225 54.0264C39.9907 53.3311 36.7443 51.6041 34.194 49.0638C31.6436 46.5235 29.9039 43.284 29.1946 39.7549C28.4854 36.2258 28.8386 32.5657 30.2096 29.2374C31.5805 25.909 33.9077 23.062 36.8967 21.0562C39.8857 19.0505 43.4024 17.9761 47.0021 17.969C49.3942 17.9567 51.7652 18.4176 53.9786 19.3252C56.192 20.2328 58.204 21.5691 59.8989 23.2573C61.5938 24.9455 62.938 26.9523 63.8544 29.162C64.7707 31.3718 65.2409 33.741 65.2381 36.1332Z" fill="#008ACF"/>
<path d="M65.093 36.1324C65.093 39.7108 64.0319 43.2088 62.0439 46.184C60.0559 49.1593 57.2302 51.4783 53.9243 52.8476C50.6183 54.217 46.9805 54.5753 43.471 53.8772C39.9614 53.1791 36.7376 51.456 34.2074 48.9257C31.6771 46.3954 29.954 43.1717 29.2559 39.6621C28.5578 36.1525 28.916 32.5147 30.2854 29.2088C31.6548 25.9028 33.9737 23.0772 36.949 21.0892C39.9243 19.1011 43.4223 18.04 47.0006 18.04C51.7979 18.0438 56.3975 19.9512 59.7897 23.3434C63.1818 26.7355 65.0892 31.3352 65.093 36.1324Z" fill="#008AD0"/>
<path d="M65.0226 36.1334C65.0226 39.6833 63.97 43.1535 61.9977 46.1052C60.0255 49.0569 57.2222 51.3574 53.9425 52.7159C50.6628 54.0744 47.0539 54.4299 43.5722 53.7373C40.0905 53.0448 36.8923 51.3353 34.3821 48.8251C31.8719 46.3149 30.1624 43.1168 29.4699 39.635C28.7773 36.1533 29.1328 32.5444 30.4913 29.2647C31.8498 25.985 34.1503 23.1817 37.102 21.2095C40.0537 19.2372 43.5239 18.1846 47.0738 18.1846C51.8341 18.1846 56.3995 20.0756 59.7655 23.4417C63.1316 26.8077 65.0226 31.3731 65.0226 36.1334Z" fill="#008BD0"/>
<path d="M64.879 36.1329C64.879 39.6686 63.8306 43.125 61.8662 46.0648C59.9019 49.0047 57.1099 51.296 53.8433 52.6491C50.5767 54.0022 46.9822 54.3562 43.5144 53.6664C40.0466 52.9766 36.8612 51.274 34.3611 48.7738C31.8609 46.2737 30.1583 43.0883 29.4685 39.6205C28.7787 36.1527 29.1327 32.5582 30.4858 29.2916C31.8389 26.025 34.1302 23.233 37.0701 21.2687C40.0099 19.3043 43.4663 18.2559 47.002 18.2559C51.7433 18.2559 56.2904 20.1393 59.643 23.4919C62.9956 26.8445 64.879 31.3916 64.879 36.1329Z" fill="#008CD0"/>
<path d="M64.8087 36.1328C64.8087 39.6402 63.7686 43.0688 61.82 45.985C59.8715 48.9013 57.1019 51.1742 53.8615 52.5164C50.6212 53.8586 47.0556 54.2098 43.6156 53.5255C40.1757 52.8413 37.0159 51.1523 34.5358 48.6723C32.0557 46.1922 30.3668 43.0324 29.6825 39.5925C28.9983 36.1525 29.3495 32.5869 30.6917 29.3466C32.0339 26.1062 34.3068 23.3366 37.2231 21.388C40.1393 19.4395 43.5679 18.3994 47.0752 18.3994C49.4043 18.3985 51.7107 18.8565 53.8626 19.7474C56.0146 20.6382 57.9699 21.9444 59.6168 23.5913C61.2637 25.2382 62.5699 27.1935 63.4607 29.3454C64.3516 31.4974 64.8096 33.8038 64.8087 36.1328Z" fill="#008CD1"/>
<path d="M64.6651 36.1333C64.6651 39.6265 63.6292 43.0412 61.6885 45.9456C59.7479 48.85 56.9895 51.1138 53.7622 52.4505C50.535 53.7873 46.9838 54.1371 43.5578 53.4556C40.1318 52.7741 36.9848 51.092 34.5148 48.622C32.0448 46.152 30.3626 43.0049 29.6812 39.5789C28.9997 36.1529 29.3494 32.6017 30.6862 29.3745C32.023 26.1473 34.2867 23.3889 37.1912 21.4482C40.0956 19.5075 43.5103 18.4717 47.0034 18.4717C49.3233 18.4698 51.6208 18.9253 53.7645 19.8123C55.9081 20.6992 57.8559 22 59.4963 23.6404C61.1367 25.2809 62.4376 27.2286 63.3245 29.3723C64.2114 31.5159 64.667 33.8134 64.6651 36.1333Z" fill="#008DD1"/>
<path d="M64.5927 36.1333C64.5927 39.598 63.5653 42.985 61.6404 45.8658C59.7155 48.7466 56.9796 50.992 53.7786 52.3179C50.5776 53.6438 47.0553 53.9907 43.6571 53.3147C40.2589 52.6388 37.1375 50.9704 34.6876 48.5204C32.2376 46.0705 30.5692 42.9491 29.8933 39.5509C29.2173 36.1527 29.5642 32.6304 30.8901 29.4294C32.216 26.2284 34.4614 23.4925 37.3422 21.5676C40.223 19.6427 43.6099 18.6152 47.0747 18.6152C49.376 18.6124 51.6552 19.0636 53.7819 19.943C55.9086 20.8223 57.8409 22.1126 59.4681 23.7398C61.0954 25.3671 62.3857 27.2994 63.265 29.4261C64.1444 31.5527 64.5956 33.832 64.5927 36.1333Z" fill="#008DD2"/>
<path d="M64.4491 36.1318C64.4491 39.5823 63.4259 42.9554 61.5089 45.8244C59.5919 48.6934 56.8672 50.9296 53.6793 52.25C50.4914 53.5705 46.9835 53.916 43.5993 53.2428C40.2151 52.5696 37.1064 50.9081 34.6665 48.4681C32.2266 46.0282 30.565 42.9196 29.8919 39.5354C29.2187 36.1511 29.5642 32.6433 30.8847 29.4554C32.2051 26.2675 34.4413 23.5428 37.3103 21.6258C40.1793 19.7088 43.5524 18.6855 47.0029 18.6855C51.6282 18.6912 56.0624 20.5312 59.333 23.8017C62.6035 27.0723 64.4434 31.5065 64.4491 36.1318Z" fill="#008ED2"/>
<path d="M64.3763 36.1329C64.3834 39.5621 63.3734 42.9164 61.4742 45.7717C59.5749 48.6269 56.8716 50.8548 53.7061 52.1737C50.5406 53.4925 47.0551 53.8431 43.6904 53.1811C40.3257 52.519 37.2328 50.8741 34.803 48.4543C32.3731 46.0345 30.7154 42.9485 30.0394 39.5865C29.3634 36.2246 29.6996 32.7376 31.0053 29.5667C32.3111 26.3958 34.5278 23.6833 37.3751 21.7722C40.2225 19.8611 43.5726 18.8373 47.0018 18.8302C49.2798 18.8217 51.5371 19.2629 53.6442 20.1286C55.7513 20.9942 57.6669 22.2672 59.281 23.8747C60.8951 25.4821 62.1761 27.3924 63.0504 29.4959C63.9248 31.5994 64.3754 33.8549 64.3763 36.1329Z" fill="#008FD3"/>
<path d="M64.2313 36.1332C64.2313 39.5411 63.2207 42.8726 61.3273 45.7062C59.434 48.5398 56.7429 50.7483 53.5944 52.0524C50.4458 53.3566 46.9813 53.6978 43.6388 53.033C40.2964 52.3681 37.2261 50.727 34.8163 48.3173C32.4066 45.9075 30.7655 42.8372 30.1006 39.4948C29.4358 36.1523 29.777 32.6878 31.0812 29.5392C32.3853 26.3907 34.5938 23.6996 37.4274 21.8063C40.261 19.9129 43.5925 18.9023 47.0004 18.9023C51.5703 18.9023 55.953 20.7177 59.1845 23.9491C62.4159 27.1806 64.2313 31.5633 64.2313 36.1332Z" fill="#008FD3"/>
<path d="M64.1609 36.1341C64.1609 39.5137 63.1587 42.8173 61.2812 45.6273C59.4036 48.4373 56.7349 50.6274 53.6126 51.9207C50.4903 53.214 47.0546 53.5524 43.74 52.8931C40.4254 52.2338 37.3808 50.6064 34.9911 48.2167C32.6014 45.827 30.974 42.7823 30.3147 39.4677C29.6553 36.1531 29.9937 32.7174 31.287 29.5951C32.5803 26.4728 34.7704 23.8042 37.5804 21.9266C40.3904 20.049 43.6941 19.0469 47.0736 19.0469C49.3178 19.0459 51.5402 19.4873 53.6137 20.3456C55.6873 21.204 57.5713 22.4626 59.1582 24.0495C60.7451 25.6364 62.0037 27.5205 62.8621 29.594C63.7205 31.6676 64.1618 33.8899 64.1609 36.1341Z" fill="#0090D3"/>
<path d="M64.0173 36.1327C64.0173 39.498 63.0193 42.7878 61.1497 45.586C59.28 48.3841 56.6225 50.5651 53.5134 51.8529C50.4042 53.1408 46.9829 53.4777 43.6823 52.8212C40.3816 52.1646 37.3497 50.5441 34.9701 48.1644C32.5904 45.7848 30.9698 42.7529 30.3133 39.4522C29.6567 36.1515 29.9937 32.7303 31.2816 29.6211C32.5694 26.512 34.7503 23.8545 37.5485 21.9848C40.3467 20.1151 43.6365 19.1172 47.0018 19.1172C49.2366 19.1162 51.4496 19.5557 53.5145 20.4105C55.5793 21.2653 57.4555 22.5186 59.0357 24.0988C60.6159 25.679 61.8692 27.5552 62.724 29.62C63.5788 31.6848 64.0182 33.8979 64.0173 36.1327Z" fill="#0091D4"/>
<path d="M63.9469 36.1336C63.9469 39.4706 62.9574 42.7326 61.1035 45.5071C59.2496 48.2817 56.6145 50.4442 53.5316 51.7212C50.4487 52.9982 47.0563 53.3323 43.7835 52.6813C40.5107 52.0303 37.5044 50.4234 35.1448 48.0638C32.7852 45.7043 31.1783 42.698 30.5273 39.4252C29.8763 36.1523 30.2104 32.76 31.4874 29.677C32.7644 26.5941 34.9269 23.9591 37.7015 22.1052C40.4761 20.2513 43.7381 19.2617 47.075 19.2617C49.2915 19.2589 51.4867 19.6934 53.535 20.5403C55.5832 21.3871 57.4443 22.6298 59.0116 24.1971C60.5788 25.7643 61.8215 27.6254 62.6684 29.6737C63.5153 31.7219 63.9497 33.9172 63.9469 36.1336Z" fill="#0091D4"/>
<path d="M63.8033 36.1331C63.8033 39.4558 62.818 42.704 60.972 45.4667C59.126 48.2295 56.5022 50.3828 53.4323 51.6544C50.3625 52.9259 46.9846 53.2586 43.7257 52.6104C40.4668 51.9621 37.4733 50.3621 35.1238 48.0126C32.7742 45.663 31.1742 42.6695 30.5259 39.4106C29.8777 36.1517 30.2104 32.7738 31.482 29.704C32.7535 26.6342 34.9068 24.0104 37.6696 22.1643C40.4324 20.3183 43.6805 19.333 47.0032 19.333C51.4571 19.3387 55.727 21.1105 58.8764 24.2599C62.0258 27.4093 63.7976 31.6792 63.8033 36.1331Z" fill="#0092D5"/>
<path d="M63.7329 36.1331C63.7329 39.4274 62.756 42.6478 60.9258 45.3869C59.0956 48.1261 56.4942 50.261 53.4506 51.5217C50.407 52.7823 47.058 53.1122 43.8269 52.4695C40.5959 51.8268 37.628 50.2404 35.2985 47.911C32.9691 45.5815 31.3827 42.6136 30.74 39.3826C30.0973 36.1515 30.4271 32.8025 31.6878 29.7589C32.9485 26.7153 35.0834 24.1139 37.8226 22.2837C40.5617 20.4534 43.7821 19.4766 47.0764 19.4766C51.4928 19.4804 55.7273 21.2365 58.8502 24.3593C61.973 27.4822 63.7291 31.7167 63.7329 36.1331Z" fill="#0092D5"/>
<path d="M63.5893 36.1337C63.5893 39.4138 62.6167 42.6203 60.7943 45.3477C58.972 48.075 56.3818 50.2007 53.3513 51.456C50.3209 52.7112 46.9862 53.0396 43.7691 52.3997C40.552 51.7598 37.5969 50.1803 35.2775 47.8608C32.9581 45.5414 31.3785 42.5863 30.7386 39.3692C30.0987 36.1521 30.4271 32.8175 31.6824 29.787C32.9376 26.7565 35.0633 24.1664 37.7907 22.344C40.518 20.5217 43.7245 19.549 47.0046 19.549C49.1852 19.5395 51.3461 19.962 53.3625 20.7921C55.379 21.6222 57.211 22.8434 58.753 24.3853C60.2949 25.9273 61.5162 27.7593 62.3463 29.7758C63.1763 31.7922 63.5988 33.9531 63.5893 36.1337Z" fill="#0093D6"/>
<path d="M63.5159 36.1325C63.5301 39.4015 62.5737 42.6011 60.7679 45.3261C58.9621 48.051 56.3882 50.1787 53.3721 51.4395C50.3561 52.7004 47.0336 53.0377 43.8257 52.4086C40.6178 51.7796 37.6688 50.2126 35.3522 47.9061C33.0357 45.5996 31.4558 42.6575 30.8128 39.4523C30.1698 36.2472 30.4926 32.9233 31.7403 29.9018C32.988 26.8803 35.1044 24.2971 37.8215 22.4794C40.5386 20.6617 43.734 19.6914 47.003 19.6914C51.3701 19.6914 55.5594 21.4213 58.6541 24.5025C61.7488 27.5838 63.4969 31.7655 63.5159 36.1325Z" fill="#0094D6"/>
<path d="M63.3715 36.132C63.3715 39.3696 62.4114 42.5344 60.6127 45.2263C58.814 47.9182 56.2575 50.0163 53.2664 51.2553C50.2753 52.4942 46.984 52.8184 43.8086 52.1868C40.6333 51.5552 37.7166 49.9962 35.4273 47.7069C33.138 45.4176 31.579 42.5008 30.9474 39.3255C30.3157 36.1502 30.6399 32.8588 31.8789 29.8677C33.1178 26.8766 35.2159 24.3201 37.9078 22.5214C40.5998 20.7227 43.7646 19.7627 47.0021 19.7627C49.1521 19.7618 51.2811 20.1845 53.2675 21.0068C55.254 21.8291 57.0589 23.0348 58.5791 24.5551C60.0993 26.0753 61.305 27.8802 62.1273 29.8666C62.9496 31.8531 63.3724 33.9821 63.3715 36.132Z" fill="#0094D6"/>
<path d="M63.3006 36.132C63.3077 39.3513 62.3591 42.5003 60.5749 45.18C58.7908 47.8597 56.2515 49.9495 53.2786 51.1848C50.3057 52.42 47.0331 52.7451 43.8753 52.1188C40.7175 51.4925 37.8167 49.943 35.5403 47.6666C33.2639 45.3902 31.7144 42.4894 31.0881 39.3316C30.4618 36.1738 30.7868 32.9011 32.0221 29.9283C33.2573 26.9554 35.3472 24.416 38.0269 22.6319C40.7066 20.8478 43.8555 19.8992 47.0748 19.9063C49.2062 19.9044 51.3169 20.3228 53.2864 21.1376C55.2558 21.9523 57.0453 23.1474 58.5524 24.6545C60.0594 26.1616 61.2545 27.951 62.0693 29.9205C62.884 31.8899 63.3024 34.0007 63.3006 36.132Z" fill="#0095D7"/>
<path d="M63.1536 36.1324C63.1536 39.3274 62.2062 42.4506 60.4311 45.1071C58.6561 47.7636 56.1332 49.8341 53.1815 51.0567C50.2297 52.2794 46.9817 52.5993 43.8482 51.976C40.7146 51.3527 37.8363 49.8142 35.5771 47.555C33.3179 45.2958 31.7794 42.4175 31.1561 39.2839C30.5328 36.1504 30.8527 32.9024 32.0754 29.9506C33.298 26.9989 35.3685 24.476 38.025 22.7009C40.6815 20.9259 43.8047 19.9785 46.9996 19.9785C51.2822 19.9842 55.3877 21.688 58.4159 24.7162C61.4441 27.7444 63.1479 31.8499 63.1536 36.1324Z" fill="#0095D7"/>
<path d="M63.0827 36.1334C63.0898 39.3101 62.1538 42.4174 60.3934 45.0617C58.6329 47.706 56.1272 49.7683 53.1937 50.9872C50.2601 52.2062 47.0308 52.5269 43.9148 51.9089C40.7988 51.2909 37.9363 49.762 35.6901 47.5157C33.4438 45.2694 31.9148 42.407 31.2968 39.291C30.6788 36.175 30.9996 32.9456 32.2186 30.0121C33.4375 27.0786 35.4998 24.5729 38.144 22.8124C40.7883 21.052 43.8956 20.116 47.0723 20.1231C51.3174 20.1269 55.3875 21.8149 58.3892 24.8166C61.3909 27.8183 63.0789 31.8884 63.0827 36.1334Z" fill="#0096D8"/>
<path d="M62.9396 36.1329C62.9396 39.2853 62.0048 42.3668 60.2535 44.9879C58.5021 47.609 56.0129 49.6519 53.1005 50.8582C50.1881 52.0646 46.9834 52.3802 43.8916 51.7652C40.7998 51.1502 37.9598 49.6322 35.7308 47.4032C33.5018 45.1741 31.9838 42.3342 31.3688 39.2424C30.7538 36.1506 31.0694 32.9459 32.2758 30.0335C33.4821 27.1211 35.525 24.6319 38.1461 22.8805C40.7672 21.1292 43.8487 20.1944 47.0011 20.1944C49.0955 20.1896 51.1702 20.5987 53.1061 21.398C55.042 22.1973 56.8009 23.3711 58.2819 24.8521C59.7628 26.3331 60.9367 28.092 61.736 30.0279C62.5353 31.9638 62.9443 34.0385 62.9396 36.1329Z" fill="#0097D8"/>
<path d="M62.8707 36.1329C62.8778 39.267 61.9544 42.3327 60.2176 44.9415C58.4809 47.5504 56.0088 49.585 53.1146 50.7877C50.2204 51.9903 47.0344 52.3068 43.9602 51.6972C40.886 51.0875 38.0619 49.579 35.8457 47.3628C33.6296 45.1467 32.1211 42.3226 31.5114 39.2484C30.9017 36.1742 31.2183 32.9881 32.4209 30.094C33.6236 27.1998 35.6582 24.7277 38.2671 22.9909C40.8759 21.2542 43.9416 20.3308 47.0757 20.3379C51.2648 20.3379 55.2823 22.002 58.2444 24.9642C61.2065 27.9263 62.8707 31.9438 62.8707 36.1329Z" fill="#0097D9"/>
<path d="M62.7256 36.1333C62.7256 39.2431 61.8035 42.283 60.0758 44.8686C58.3481 47.4543 55.8925 49.4696 53.0195 50.6596C50.1464 51.8497 46.985 52.161 43.935 51.5544C40.885 50.9477 38.0834 49.4502 35.8845 47.2513C33.6856 45.0523 32.1881 42.2507 31.5814 39.2008C30.9747 36.1508 31.2861 32.9894 32.4762 30.1163C33.6662 27.2433 35.6815 24.7877 38.2671 23.06C40.8528 21.3323 43.8927 20.4102 47.0025 20.4102C49.0675 20.4092 51.1125 20.8153 53.0206 21.6051C54.9286 22.3949 56.6623 23.553 58.1225 25.0133C59.5827 26.4735 60.7409 28.2072 61.5307 30.1152C62.3205 32.0233 62.7266 34.0683 62.7256 36.1333Z" fill="#0098D9"/>
<path d="M62.6528 36.1319C62.6457 39.2203 61.7229 42.2373 60.0011 44.8013C58.2794 47.3653 55.836 49.3611 52.9799 50.5365C50.1239 51.7118 46.9834 52.0138 43.9557 51.4043C40.928 50.7948 38.149 49.3012 35.9702 47.1123C33.7914 44.9234 32.3105 42.1376 31.715 39.1072C31.1194 36.0767 31.4359 32.9377 32.6243 30.087C33.8128 27.2364 35.8198 24.8022 38.3917 23.0923C40.9636 21.3823 43.9848 20.4734 47.0732 20.4805C49.1257 20.4786 51.1584 20.8826 53.0541 21.6694C54.9499 22.4561 56.6713 23.6101 58.1193 25.0648C59.5674 26.5195 60.7134 28.2462 61.4914 30.1455C62.2694 32.0449 62.6641 34.0794 62.6528 36.1319Z" fill="#0099DA"/>
<path d="M62.5116 36.1338C62.5116 39.2009 61.6021 42.1992 59.8981 44.7494C58.1941 47.2996 55.7721 49.2873 52.9384 50.4611C50.1048 51.6348 46.9867 51.9419 43.9785 51.3435C40.9702 50.7452 38.207 49.2682 36.0382 47.0994C33.8694 44.9306 32.3924 42.1674 31.7941 39.1592C31.1957 36.151 31.5028 33.0329 32.6766 30.1992C33.8503 27.3655 35.838 24.9435 38.3882 23.2395C40.9385 21.5355 43.9367 20.626 47.0039 20.626C51.1145 20.6336 55.0545 22.2699 57.9611 25.1765C60.8678 28.0831 62.5041 32.0232 62.5116 36.1338Z" fill="#0099DA"/>
<path d="M62.4368 36.1323C62.4297 39.1781 61.5196 42.1535 59.8215 44.682C58.1234 47.2106 55.7137 49.1789 52.897 50.3379C50.0803 51.4969 46.9831 51.7947 43.9972 51.1935C41.0113 50.5923 38.2707 49.1192 36.122 46.9605C33.9732 44.8017 32.5129 42.0543 31.9257 39.0656C31.3384 36.0769 31.6506 32.9812 32.8228 30.1699C33.9949 27.3586 35.9744 24.9581 38.5108 23.2718C41.0473 21.5855 44.0268 20.6892 47.0727 20.6963C49.0958 20.6982 51.0988 21.0993 52.9667 21.8766C54.8346 22.6538 56.5307 23.792 57.958 25.226C59.3853 26.6599 60.5156 28.3614 61.2841 30.2329C62.0527 32.1044 62.4444 34.1092 62.4368 36.1323Z" fill="#009ADA"/>
<path d="M62.2938 36.1323C62.2938 39.1568 61.3969 42.1134 59.7165 44.6283C58.0362 47.1431 55.6478 49.1032 52.8535 50.2606C50.0592 51.418 46.9844 51.7209 44.018 51.1308C41.0515 50.5408 38.3267 49.0843 36.188 46.9456C34.0493 44.8069 32.5929 42.0821 32.0028 39.1157C31.4128 36.1492 31.7156 33.0744 32.8731 30.2801C34.0305 27.4858 35.9906 25.0975 38.5054 23.4171C41.0202 21.7368 43.9768 20.8399 47.0014 20.8399C49.0109 20.8352 51.0016 21.2275 52.8591 21.9943C54.7166 22.7611 56.4043 23.8874 57.8253 25.3084C59.2463 26.7293 60.3725 28.417 61.1393 30.2745C61.9062 32.132 62.2985 34.1227 62.2938 36.1323Z" fill="#009BDB"/>
<path d="M62.2229 36.1347C62.2158 39.1379 61.3182 42.0716 59.6438 44.5648C57.9694 47.0579 55.5933 48.9986 52.8159 50.1413C50.0386 51.284 46.9848 51.5775 44.0406 50.9846C41.0965 50.3918 38.3943 48.9392 36.2757 46.8105C34.1571 44.6819 32.7173 41.9729 32.1383 39.0259C31.5594 36.079 31.8673 33.0266 33.0232 30.2547C34.179 27.4828 36.1309 25.1159 38.6319 23.4533C41.1329 21.7906 44.0708 20.907 47.0741 20.9141C51.099 20.9312 54.9531 22.5426 57.7924 25.3953C60.6317 28.2481 62.2248 32.1098 62.2229 36.1347Z" fill="#009BDB"/>
<path d="M62.0778 36.1327C62.0778 39.1146 61.1936 42.0296 59.5369 44.509C57.8802 46.9884 55.5255 48.9209 52.7706 50.062C50.0156 51.2031 46.9841 51.5017 44.0595 50.92C41.1348 50.3382 38.4483 48.9023 36.3398 46.7937C34.2312 44.6852 32.7953 41.9987 32.2135 39.074C31.6318 36.1494 31.9304 33.1179 33.0715 30.3629C34.2126 27.608 36.1451 25.2533 38.6245 23.5966C41.1039 21.9399 44.0189 21.0557 47.0008 21.0557C50.9995 21.0557 54.8344 22.6441 57.6619 25.4716C60.4894 28.2991 62.0778 32.134 62.0778 36.1327Z" fill="#009CDC"/>
<path d="M62.005 36.1322C61.9979 39.0928 61.113 41.9849 59.4622 44.4426C57.8115 46.9003 55.469 48.8134 52.731 49.9398C49.993 51.0662 46.9825 51.3554 44.0801 50.7709C41.1778 50.1863 38.5139 48.7543 36.4255 46.6557C34.337 44.5572 32.9177 41.8866 32.3471 38.9814C31.7765 36.0763 32.0801 33.0672 33.2197 30.3346C34.3592 27.6021 36.2834 25.2688 38.7491 23.6298C41.2147 21.9909 44.1109 21.1199 47.0716 21.127C51.0405 21.1403 54.842 22.7278 57.6418 25.541C60.4415 28.3542 62.0107 32.1632 62.005 36.1322Z" fill="#009CDC"/>
<path d="M61.8619 36.1321C61.8619 39.0715 60.9903 41.9448 59.3573 44.3888C57.7243 46.8328 55.4032 48.7376 52.6876 49.8625C49.972 50.9873 46.9838 51.2816 44.1009 50.7082C41.2181 50.1347 38.57 48.7193 36.4915 46.6409C34.4131 44.5624 32.9977 41.9144 32.4242 39.0315C31.8508 36.1486 32.1451 33.1604 33.27 30.4448C34.3948 27.7292 36.2996 25.4082 38.7436 23.7751C41.1876 22.1421 44.0609 21.2705 47.0003 21.2705C50.9395 21.2781 54.7152 22.8463 57.5007 25.6318C60.2861 28.4172 61.8543 32.1929 61.8619 36.1321Z" fill="#009DDD"/>
<path d="M61.793 36.1326C61.7859 39.0507 60.9136 41.9011 59.2865 44.3234C57.6594 46.7457 55.3506 48.6311 52.652 49.7412C49.9533 50.8514 46.9861 51.1363 44.1255 50.5601C41.2649 49.9838 38.6395 48.5723 36.5811 46.5039C34.5228 44.4355 33.124 41.8032 32.5617 38.9398C31.9994 36.0765 32.2988 33.1107 33.422 30.4175C34.5452 27.7243 36.4419 25.4246 38.8721 23.8094C41.3023 22.1941 44.1569 21.3357 47.0749 21.3428C50.9844 21.3637 54.7267 22.9309 57.4845 25.702C60.2422 28.4732 61.7911 32.2231 61.793 36.1326Z" fill="#009EDD"/>
<path d="M61.6499 36.1345C61.6499 39.0313 60.7909 41.863 59.1816 44.2715C57.5722 46.6801 55.2848 48.5574 52.6085 49.6659C49.9323 50.7744 46.9874 51.0645 44.1463 50.4993C41.3052 49.9342 38.6955 48.5393 36.6472 46.491C34.5989 44.4427 33.204 41.833 32.6389 38.9919C32.0737 36.1508 32.3638 33.2059 33.4723 30.5297C34.5808 27.8534 36.4581 25.566 38.8666 23.9566C41.2752 22.3473 44.1069 21.4883 47.0037 21.4883C48.9281 21.4845 50.8343 21.8608 52.613 22.5955C54.3917 23.3302 56.0078 24.4089 57.3685 25.7697C58.7293 27.1304 59.808 28.7465 60.5427 30.5252C61.2774 32.3039 61.6537 34.2101 61.6499 36.1345Z" fill="#009EDD"/>
<path d="M61.5751 36.1331C61.568 39.0085 60.7084 41.8173 59.1049 44.2042C57.5015 46.591 55.2263 48.4489 52.567 49.5427C49.9078 50.6365 46.9839 50.9172 44.1651 50.3493C41.3463 49.7813 38.7592 48.3903 36.7309 46.352C34.7027 44.3138 33.3245 41.7198 32.7704 38.8983C32.2164 36.0767 32.5116 33.1542 33.6185 30.5003C34.7254 27.8465 36.5945 25.5805 38.9893 23.9889C41.384 22.3973 44.197 21.5515 47.0724 21.5586C50.926 21.5757 54.6157 23.119 57.3338 25.8506C60.052 28.5822 61.577 32.2795 61.5751 36.1331Z" fill="#009FDE"/>
<path d="M61.434 36.132C61.434 38.9862 60.5876 41.7762 59.0019 44.1494C57.4162 46.5225 55.1625 48.3721 52.5256 49.4644C49.8887 50.5566 46.9871 50.8424 44.1878 50.2856C41.3885 49.7288 38.8172 48.3544 36.799 46.3362C34.7808 44.318 33.4064 41.7466 32.8496 38.9473C32.2927 36.148 32.5785 33.2465 33.6708 30.6096C34.763 27.9727 36.6126 25.7189 38.9858 24.1332C41.3589 22.5475 44.149 21.7012 47.0031 21.7012C50.8304 21.7012 54.501 23.2216 57.2073 25.9279C59.9136 28.6342 61.434 32.3047 61.434 36.132Z" fill="#009FDE"/>
<path d="M61.3626 36.1346C61.3626 38.9776 60.5186 41.7566 58.9376 44.1195C57.3566 46.4824 55.1098 48.3227 52.4818 49.4074C49.8539 50.492 46.9631 50.7722 44.1758 50.2123C41.3884 49.6524 38.8301 48.2777 36.8248 46.2623C34.8195 44.247 33.4577 41.6818 32.9117 38.8917C32.3658 36.1016 32.6605 33.2122 33.7583 30.5897C34.8561 27.9672 36.7077 25.7297 39.0785 24.1605C41.4492 22.5914 44.2324 21.7614 47.0754 21.7756C50.8712 21.7945 54.505 23.3157 57.1824 26.0065C59.8597 28.6973 61.3627 32.3388 61.3626 36.1346Z" fill="#00A0DF"/>
<path d="M61.2161 36.1325C61.2161 38.944 60.3824 41.6924 58.8203 44.0301C57.2583 46.3679 55.0382 48.1899 52.4406 49.2658C49.8431 50.3418 46.9849 50.6233 44.2273 50.0748C41.4698 49.5263 38.9368 48.1724 36.9488 46.1843C34.9607 44.1962 33.6068 41.6633 33.0583 38.9058C32.5098 36.1482 32.7913 33.29 33.8673 30.6924C34.9432 28.0949 36.7652 25.8747 39.1029 24.3127C41.4407 22.7507 44.1891 21.917 47.0006 21.917C50.7679 21.9265 54.3781 23.4272 57.042 26.0911C59.7059 28.7549 61.2066 32.3652 61.2161 36.1325Z" fill="#00A1DF"/>
<path d="M61.1452 36.1349C61.1381 38.9252 60.3037 41.6506 58.7476 43.9667C57.1916 46.2827 54.9836 48.0853 52.4031 49.1466C49.8225 50.2078 46.9852 50.4799 44.25 49.9286C41.5147 49.3773 39.0044 48.0273 37.0364 46.0493C35.0684 44.0712 33.7312 41.5541 33.1938 38.8161C32.6564 36.078 32.943 33.2422 34.0174 30.667C35.0917 28.0919 36.9055 25.8932 39.2295 24.3489C41.5534 22.8046 44.2831 21.9842 47.0733 21.9913C48.926 21.996 50.7596 22.3655 52.4694 23.0789C54.1792 23.7922 55.7318 24.8353 57.0385 26.1487C58.3452 27.4621 59.3804 29.0199 60.085 30.7334C60.7897 32.4468 61.1499 34.2823 61.1452 36.1349Z" fill="#00A1E0"/>
<path d="M61.0021 36.1329C61.0021 38.9019 60.181 41.6086 58.6427 43.9109C57.1043 46.2132 54.9178 48.0077 52.3596 49.0673C49.8014 50.1269 46.9865 50.4042 44.2708 49.864C41.555 49.3238 39.0604 47.9904 37.1025 46.0325C35.1445 44.0745 33.8112 41.5799 33.271 38.8642C32.7308 36.1484 33.008 33.3335 34.0677 30.7753C35.1273 28.2171 36.9217 26.0306 39.224 24.4923C41.5263 22.9539 44.2331 22.1328 47.002 22.1328C48.8416 22.1291 50.6638 22.4886 52.3641 23.1908C54.0644 23.8931 55.6092 24.9241 56.91 26.2249C58.2108 27.5257 59.2419 29.0706 59.9441 30.7708C60.6464 32.4711 61.0059 34.2933 61.0021 36.1329Z" fill="#00A2E0"/>
<path d="M60.9312 36.1315C60.9241 38.8791 60.1024 41.5629 58.57 43.8435C57.0375 46.1242 54.8633 47.8992 52.3221 48.9441C49.7808 49.989 46.9869 50.2569 44.2934 49.7139C41.5999 49.1709 39.128 47.8414 37.1901 45.8935C35.2523 43.9456 33.9356 41.4668 33.4065 38.7706C32.8774 36.0743 33.1597 33.2818 34.2178 30.746C35.2758 28.2102 37.062 26.0451 39.3505 24.5245C41.639 23.0039 44.3271 22.1961 47.0747 22.2032C50.7551 22.2259 54.2772 23.7029 56.873 26.3121C59.4687 28.9213 60.9275 32.451 60.9312 36.1315Z" fill="#00A3E0"/>
<path d="M60.7862 36.1323C60.7862 38.8587 59.9777 41.5238 58.463 43.7907C56.9484 46.0576 54.7955 47.8244 52.2767 48.8677C49.7578 49.9111 46.9862 50.184 44.3122 49.6522C41.6383 49.1203 39.1821 47.8074 37.2542 45.8796C35.3264 43.9518 34.0136 41.4956 33.4817 38.8216C32.9498 36.1476 33.2228 33.376 34.2661 30.8572C35.3094 28.3383 37.0762 26.1855 39.3431 24.6708C41.61 23.1561 44.2751 22.3477 47.0015 22.3477C48.8117 22.3477 50.6042 22.7042 52.2767 23.397C53.9491 24.0897 55.4687 25.1051 56.7487 26.3851C58.0288 27.6651 59.0441 29.1847 59.7369 30.8572C60.4296 32.5296 60.7862 34.3221 60.7862 36.1323Z" fill="#00A3E1"/>
<path d="M60.7147 36.1343C60.7289 38.8494 59.9367 41.5077 58.4386 43.7722C56.9405 46.0367 54.8038 47.8055 52.2994 48.8544C49.795 49.9033 47.0356 50.1851 44.3708 49.6642C41.706 49.1432 39.2559 47.8428 37.331 45.928C35.406 44.0131 34.0928 41.5698 33.5579 38.9078C33.0229 36.2458 33.2902 33.485 34.326 30.9751C35.3617 28.4652 37.1193 26.3193 39.3759 24.8093C41.6325 23.2993 44.2866 22.4932 47.0018 22.4932C50.6263 22.4931 54.1033 23.928 56.673 26.4842C59.2426 29.0403 60.6957 32.5098 60.7147 36.1343Z" fill="#00A4E1"/>
<path d="M60.5722 36.1347C60.5722 38.8185 59.7764 41.442 58.2854 43.6734C56.7943 45.9049 54.6751 47.6441 52.1956 48.6711C49.7162 49.6982 46.9878 49.9669 44.3557 49.4433C41.7235 48.9197 39.3057 47.6274 37.408 45.7297C35.5103 43.832 34.2179 41.4142 33.6943 38.782C33.1708 36.1498 33.4395 33.4215 34.4665 30.942C35.4935 28.4625 37.2327 26.3433 39.4642 24.8523C41.6957 23.3613 44.3191 22.5654 47.0029 22.5654C50.5988 22.5749 54.0447 24.0076 56.5874 26.5503C59.1301 29.0929 60.5627 32.5388 60.5722 36.1347Z" fill="#00A4E2"/>
<path d="M60.4974 36.1328C60.5045 38.7952 59.7219 41.3999 58.2486 43.6176C56.7754 45.8353 54.6776 47.5663 52.2205 48.5917C49.7634 49.6172 47.0575 49.891 44.4448 49.3785C41.8321 48.866 39.4301 47.5904 37.5425 45.7127C35.6548 43.8351 34.3663 41.4399 33.8399 38.83C33.3136 36.2201 33.5729 33.5128 34.5852 31.0503C35.5975 28.5878 37.3173 26.4808 39.5271 24.9957C41.7369 23.5106 44.3374 22.7141 46.9999 22.707C50.5684 22.7032 53.9929 24.1142 56.5229 26.6308C59.053 29.1473 60.4822 32.5643 60.4974 36.1328Z" fill="#00A5E2"/>
<path d="M60.3543 36.1313C60.3543 38.7724 59.5711 41.3543 58.1038 43.5503C56.6364 45.7464 54.5508 47.458 52.1107 48.4687C49.6706 49.4794 46.9856 49.7439 44.3952 49.2286C41.8048 48.7133 39.4253 47.4415 37.5578 45.5739C35.6902 43.7064 34.4183 41.3269 33.9031 38.7365C33.3878 36.1461 33.6523 33.4611 34.663 31.021C35.6737 28.5809 37.3853 26.4953 39.5814 25.0279C41.7774 23.5606 44.3593 22.7774 47.0004 22.7774C48.7551 22.7736 50.4933 23.1164 52.1152 23.7862C53.7371 24.4559 55.2107 25.4394 56.4515 26.6802C57.6923 27.921 58.6758 29.3946 59.3455 31.0165C60.0153 32.6384 60.3581 34.3766 60.3543 36.1313Z" fill="#00A6E3"/>
<path d="M60.285 36.1327C60.285 38.7597 59.506 41.3276 58.0465 43.5119C56.5871 45.6961 54.5127 47.3985 52.0857 48.4038C49.6587 49.4091 46.9881 49.6721 44.4116 49.1596C41.8351 48.6471 39.4685 47.3821 37.611 45.5246C35.7534 43.667 34.4884 41.3004 33.9759 38.7239C33.4634 36.1474 33.7265 33.4768 34.7318 31.0499C35.737 28.6229 37.4394 26.5485 39.6237 25.089C41.8079 23.6296 44.3759 22.8506 47.0028 22.8506C50.5243 22.8544 53.9005 24.255 56.3905 26.745C58.8806 29.2351 60.2812 32.6112 60.285 36.1327Z" fill="#00A6E3"/>
<path d="M60.1403 36.1327C60.1403 38.7312 59.3698 41.2714 57.9261 43.432C56.4824 45.5927 54.4305 47.2767 52.0297 48.2711C49.629 49.2655 46.9872 49.5257 44.4386 49.0187C41.89 48.5118 39.5489 47.2605 37.7115 45.423C35.874 43.5856 34.6227 41.2445 34.1157 38.6959C33.6088 36.1472 33.869 33.5055 34.8634 31.1048C35.8578 28.704 37.5418 26.6521 39.7024 25.2084C41.8631 23.7647 44.4033 22.9941 47.0018 22.9941C50.4858 22.996 53.8265 24.3809 56.2901 26.8444C58.7536 29.308 60.1384 32.6487 60.1403 36.1327Z" fill="#00A7E3"/>
<path d="M60.0671 36.1341C60.0671 38.7185 59.3007 41.2448 57.8649 43.3936C56.4291 45.5424 54.3884 47.2172 52.0008 48.2062C49.6131 49.1952 46.9858 49.454 44.4511 48.9498C41.9164 48.4456 39.5882 47.2011 37.7608 45.3737C35.9333 43.5463 34.6889 41.218 34.1847 38.6833C33.6805 36.1486 33.9393 33.5213 34.9282 31.1337C35.9172 28.7461 37.592 26.7053 39.7408 25.2695C41.8897 23.8337 44.416 23.0674 47.0003 23.0674C48.7163 23.0674 50.4154 23.4054 52.0008 24.062C53.5861 24.7187 55.0266 25.6812 56.2399 26.8945C57.4533 28.1079 58.4158 29.5484 59.0724 31.1337C59.7291 32.719 60.0671 34.4182 60.0671 36.1341Z" fill="#00A8E4"/>
<path d="M59.9244 36.1321C59.9244 38.6881 59.1665 41.1866 57.7465 43.3118C56.3265 45.437 54.3081 47.0934 51.9468 48.0716C49.5854 49.0497 46.9869 49.3056 44.4801 48.807C41.9733 48.3083 39.6706 47.0775 37.8632 45.2702C36.0559 43.4628 34.8251 41.1602 34.3264 38.6533C33.8278 36.1465 34.0837 33.5481 35.0618 31.1867C36.04 28.8253 37.6964 26.8069 39.8216 25.3869C41.9468 23.9669 44.4453 23.209 47.0013 23.209C50.4258 23.2185 53.7073 24.583 56.1289 27.0046C58.5504 29.4261 59.9149 32.7076 59.9244 36.1321Z" fill="#00A8E4"/>
<path d="M59.8531 36.1326C59.8531 38.6744 59.0994 41.159 57.6873 43.2724C56.2751 45.3858 54.268 47.033 51.9197 48.0057C49.5715 48.9784 46.9875 49.2329 44.4946 48.737C42.0017 48.2411 39.7118 47.0172 37.9145 45.2199C36.1172 43.4226 34.8932 41.1327 34.3973 38.6398C33.9015 36.1469 34.156 33.5629 35.1286 31.2146C36.1013 28.8663 37.7485 26.8592 39.8619 25.4471C41.9753 24.035 44.46 23.2813 47.0017 23.2813C48.6899 23.2794 50.3619 23.6105 51.922 24.2557C53.482 24.9008 54.8995 25.8474 56.0932 27.0411C57.287 28.2349 58.2335 29.6523 58.8787 31.2124C59.5239 32.7724 59.855 34.4444 59.8531 36.1326Z" fill="#00A9E5"/>
<path d="M59.7104 36.1326C59.7104 38.6459 58.9651 41.1029 57.5688 43.1926C56.1725 45.2824 54.1878 46.9112 51.8657 47.873C49.5437 48.8348 46.9886 49.0865 44.5235 48.5962C42.0585 48.1058 39.7942 46.8955 38.0169 45.1183C36.2397 43.3411 35.0294 41.0768 34.5391 38.6117C34.0488 36.1467 34.3004 33.5916 35.2622 31.2695C36.2241 28.9475 37.8529 26.9628 39.9426 25.5665C42.0324 24.1701 44.4893 23.4248 47.0027 23.4248C48.6723 23.422 50.326 23.7487 51.8691 24.3864C53.4121 25.024 54.8142 25.9599 55.9948 27.1405C57.1753 28.3211 58.1113 29.7231 58.7489 31.2662C59.3865 32.8092 59.7133 34.463 59.7104 36.1326Z" fill="#00AAE5"/>
<path d="M59.6372 36.134C59.6372 38.6332 58.8961 41.0762 57.5076 43.1542C56.1192 45.2321 54.1457 46.8517 51.8368 47.8081C49.5279 48.7645 46.9872 49.0147 44.536 48.5272C42.0849 48.0396 39.8334 46.8362 38.0662 45.069C36.2991 43.3018 35.0956 41.0503 34.608 38.5992C34.1205 36.148 34.3707 33.6074 35.3271 31.2984C36.2835 28.9895 37.9031 27.016 39.981 25.6276C42.059 24.2391 44.502 23.498 47.0012 23.498C50.3507 23.5037 53.5614 24.8369 55.9299 27.2053C58.2984 29.5738 59.6315 32.7845 59.6372 36.134Z" fill="#00AAE6"/>
<path d="M59.4945 36.134C59.4945 38.6047 58.7619 41.02 57.3892 43.0744C56.0165 45.1287 54.0655 46.7299 51.7828 47.6754C49.5001 48.6209 46.9883 48.8683 44.565 48.3863C42.1417 47.9043 39.9158 46.7145 38.1687 44.9674C36.4216 43.2203 35.2318 40.9944 34.7498 38.5711C34.2678 36.1478 34.5152 33.636 35.4607 31.3534C36.4062 29.0707 38.0074 27.1196 40.0618 25.7469C42.1161 24.3743 44.5314 23.6416 47.0021 23.6416C50.3147 23.6435 53.4911 24.9603 55.8335 27.3026C58.1759 29.645 59.4926 32.8214 59.4945 36.134Z" fill="#00ABE6"/>
<path d="M59.4232 36.1325C59.4232 38.5891 58.6947 40.9904 57.3299 43.033C55.9652 45.0755 54.0253 46.6675 51.7558 47.6076C49.4862 48.5477 46.9888 48.7937 44.5795 48.3144C42.1701 47.8352 39.957 46.6522 38.2199 44.9152C36.4829 43.1781 35.2999 40.965 34.8207 38.5556C34.3414 36.1463 34.5874 33.6489 35.5275 31.3793C36.4676 29.1098 38.0596 27.1699 40.1021 25.8052C42.1447 24.4404 44.5461 23.7119 47.0026 23.7119C50.2962 23.7138 53.4543 25.023 55.7832 27.3519C58.1121 29.6808 59.4213 32.8389 59.4232 36.1325Z" fill="#00ABE6"/>
<path d="M59.2766 36.1315C59.2766 38.5596 58.5566 40.9333 57.2076 42.9522C55.8586 44.9711 53.9412 46.5447 51.6978 47.4739C49.4545 48.4032 46.986 48.6463 44.6045 48.1726C42.223 47.6989 40.0355 46.5296 38.3185 44.8126C36.6015 43.0957 35.4323 40.9081 34.9586 38.5266C34.4849 36.1451 34.728 33.6766 35.6572 31.4333C36.5864 29.19 38.16 27.2726 40.1789 25.9235C42.1979 24.5745 44.5715 23.8545 46.9996 23.8545C48.6122 23.8536 50.209 24.1705 51.699 24.7871C53.1889 25.4037 54.5427 26.308 55.6829 27.4482C56.8231 28.5884 57.7274 29.9422 58.344 31.4322C58.9607 32.9221 59.2776 34.519 59.2766 36.1315Z" fill="#00ACE7"/>
<path d="M59.2053 36.1349C59.2053 38.5488 58.4895 40.9086 57.1484 42.9157C55.8072 44.9229 53.9011 46.4872 51.6708 47.411C49.4406 48.3348 46.9866 48.5765 44.619 48.1056C42.2514 47.6346 40.0767 46.4722 38.3697 44.7653C36.6628 43.0583 35.5004 40.8836 35.0294 38.516C34.5585 36.1484 34.8002 33.6944 35.724 31.4642C36.6478 29.2339 38.2121 27.3278 40.2193 25.9866C42.2264 24.6455 44.5862 23.9297 47.0001 23.9297C50.2371 23.9297 53.3416 25.2156 55.6305 27.5045C57.9194 29.7934 59.2053 32.8979 59.2053 36.1349Z" fill="#00ADE7"/>
<path d="M59.0646 36.1339C59.0646 38.5194 58.3572 40.8514 57.0319 42.835C55.7065 44.8185 53.8228 46.3644 51.6188 47.2774C49.4148 48.1903 46.9896 48.4291 44.6499 47.9637C42.3102 47.4983 40.161 46.3496 38.4742 44.6627C36.7873 42.9759 35.6386 40.8267 35.1732 38.487C34.7078 36.1473 34.9466 33.7221 35.8595 31.5181C36.7725 29.3141 38.3184 27.4304 40.3019 26.105C42.2855 24.7797 44.6175 24.0723 47.003 24.0723C48.5878 24.0694 50.1575 24.3795 51.6221 24.9846C53.0868 25.5898 54.4176 26.4781 55.5382 27.5987C56.6588 28.7193 57.5471 30.0501 58.1523 31.5148C58.7574 32.9794 59.0674 34.5491 59.0646 36.1339Z" fill="#00ADE8"/>
<path d="M58.9933 36.1324C58.9933 38.5037 58.2901 40.8218 56.9726 42.7936C55.6552 44.7653 53.7826 46.302 51.5918 47.2095C49.4009 48.117 46.9902 48.3544 44.6644 47.8918C42.3386 47.4292 40.2022 46.2873 38.5254 44.6105C36.8486 42.9337 35.7067 40.7973 35.2441 38.4715C34.7814 36.1457 35.0189 33.7349 35.9263 31.5441C36.8338 29.3532 38.3706 27.4807 40.3423 26.1632C42.314 24.8458 44.6321 24.1426 47.0035 24.1426C50.1816 24.1483 53.228 25.4133 55.4753 27.6606C57.7226 29.9079 58.9876 32.9542 58.9933 36.1324Z" fill="#00AEE8"/>
<path d="M58.8487 36.1324C58.8487 38.4753 58.1539 40.7657 56.8522 42.7138C55.5506 44.6619 53.7004 46.1802 51.5358 47.0768C49.3712 47.9734 46.9893 48.208 44.6914 47.7509C42.3935 47.2939 40.2827 46.1656 38.6259 44.5089C36.9692 42.8522 35.841 40.7414 35.3839 38.4434C34.9268 36.1455 35.1614 33.7636 36.058 31.599C36.9546 29.4344 38.473 27.5843 40.4211 26.2826C42.3692 24.9809 44.6595 24.2861 47.0025 24.2861C50.1431 24.2899 53.154 25.5392 55.3748 27.76C57.5956 29.9808 58.8449 32.9917 58.8487 36.1324Z" fill="#00AFE8"/>
<path d="M58.7754 36.1318C58.7754 38.4606 58.0849 40.7371 56.7911 42.6734C55.4973 44.6097 53.6584 46.1188 51.5069 47.01C49.3554 47.9012 46.9879 48.1343 44.7039 47.68C42.4199 47.2257 40.3219 46.1043 38.6752 44.4576C37.0285 42.8109 35.9071 40.7129 35.4528 38.4289C34.9985 36.1449 35.2317 33.7775 36.1228 31.626C37.014 29.4745 38.5232 27.6356 40.4595 26.3418C42.3958 25.048 44.6722 24.3574 47.001 24.3574C50.1232 24.3593 53.1169 25.6005 55.3247 27.8082C57.5324 30.0159 58.7735 33.0097 58.7754 36.1318Z" fill="#00AFE9"/>
<path d="M58.6328 36.1338C58.6328 38.4341 57.9506 40.6828 56.6726 42.5955C55.3946 44.5082 53.5781 45.9989 51.4529 46.8792C49.3276 47.7596 46.989 47.9899 44.7329 47.5411C42.4767 47.0923 40.4043 45.9846 38.7777 44.358C37.1511 42.7314 36.0434 40.659 35.5946 38.4028C35.1458 36.1467 35.3761 33.8081 36.2564 31.6828C37.1368 29.5576 38.6275 27.7411 40.5402 26.4631C42.4529 25.1851 44.7016 24.5029 47.0019 24.5029C50.0866 24.5029 53.045 25.7283 55.2262 27.9095C57.4074 30.0907 58.6328 33.0491 58.6328 36.1338Z" fill="#00B0E9"/>
<path d="M58.5612 36.1337C58.5754 38.4229 57.9096 40.6647 56.6482 42.575C55.3867 44.4853 53.5864 45.978 51.4756 46.8639C49.3648 47.7498 47.0384 47.989 44.7915 47.5511C42.5445 47.1133 40.4782 46.0181 38.8544 44.4044C37.2307 42.7908 36.1226 40.7313 35.6708 38.4871C35.2189 36.2429 35.4436 33.9151 36.3163 31.7988C37.1891 29.6825 38.6705 27.873 40.5729 26.5996C42.4753 25.3263 44.713 24.6465 47.0022 24.6465C50.056 24.6445 52.9863 25.8519 55.1524 28.0045C57.3185 30.1572 58.5441 33.08 58.5612 36.1337Z" fill="#00B1EA"/>
<path d="M58.4168 36.1342C58.4168 38.392 57.7473 40.599 56.493 42.4763C55.2386 44.3535 53.4558 45.8167 51.3699 46.6807C49.284 47.5447 46.9887 47.7708 44.7743 47.3303C42.56 46.8898 40.5259 45.8026 38.9294 44.2061C37.333 42.6097 36.2458 40.5756 35.8053 38.3612C35.3648 36.1469 35.5909 33.8516 36.4549 31.7657C37.3189 29.6798 38.782 27.897 40.6593 26.6426C42.5366 25.3883 44.7436 24.7188 47.0014 24.7188C48.501 24.7169 49.9863 25.0108 51.3721 25.5839C52.758 26.1569 54.0171 26.9977 55.0775 28.0581C56.1379 29.1184 56.9787 30.3776 57.5517 31.7635C58.1247 33.1493 58.4187 34.6346 58.4168 36.1342Z" fill="#00B1EA"/>
<path d="M58.3455 36.1317C58.3455 38.3753 57.6802 40.5685 56.4338 42.4339C55.1873 44.2994 53.4157 45.7533 51.3429 46.6119C49.2701 47.4705 46.9893 47.6951 44.7888 47.2574C42.5884 46.8197 40.5671 45.7393 38.9807 44.1529C37.3942 42.5665 36.3139 40.5452 35.8762 38.3448C35.4385 36.1443 35.6631 33.8635 36.5217 31.7907C37.3803 29.7179 38.8342 27.9463 40.6997 26.6998C42.5651 25.4534 44.7583 24.7881 47.0019 24.7881C50.0086 24.7938 52.8906 25.9907 55.0167 28.1169C57.1429 30.243 58.3398 33.125 58.3455 36.1317Z" fill="#00B2EB"/>
<path d="M58.2712 36.1317C58.2712 38.3469 57.6143 40.5123 56.3837 42.3541C55.153 44.196 53.4038 45.6315 51.3572 46.4792C49.3107 47.3269 47.0587 47.5487 44.8861 47.1166C42.7135 46.6844 40.7179 45.6177 39.1515 44.0513C37.5852 42.485 36.5185 40.4893 36.0863 38.3167C35.6541 36.1441 35.8759 33.8922 36.7237 31.8456C37.5714 29.7991 39.0069 28.0499 40.8487 26.8192C42.6906 25.5885 44.856 24.9316 47.0712 24.9316C50.0404 24.9354 52.887 26.1167 54.9866 28.2163C57.0862 30.3159 58.2674 33.1624 58.2712 36.1317Z" fill="#00B2EB"/>
<path d="M58.1276 36.1341C58.1276 38.3351 57.475 40.4866 56.2522 42.3167C55.0294 44.1467 53.2914 45.573 51.258 46.4153C49.2245 47.2576 46.987 47.4779 44.8283 47.0486C42.6697 46.6192 40.6868 45.5593 39.1305 44.003C37.5742 42.4467 36.5143 40.4638 36.0849 38.3051C35.6555 36.1465 35.8759 33.9089 36.7182 31.8755C37.5605 29.8421 38.9868 28.1041 40.8168 26.8813C42.6469 25.6585 44.7984 25.0059 46.9994 25.0059C49.9502 25.0078 52.7796 26.1808 54.8661 28.2674C56.9527 30.3539 58.1257 33.1833 58.1276 36.1341Z" fill="#00B3EB"/>
<path d="M58.0587 36.1324C58.0658 38.312 57.4263 40.4448 56.2213 42.2611C55.0162 44.0773 53.2997 45.4954 51.2887 46.3361C49.2776 47.1768 47.0625 47.4022 44.9234 46.984C42.7842 46.5657 40.8171 45.5225 39.2709 43.9863C37.7246 42.45 36.6686 40.4898 36.2364 38.3534C35.8042 36.217 36.0152 34.0005 36.8428 31.984C37.6703 29.9676 39.0772 28.2418 40.8856 27.025C42.694 25.8081 44.8226 25.1548 47.0022 25.1477C48.4508 25.1382 49.8869 25.4154 51.2279 25.9632C52.5689 26.5109 53.7884 27.3186 54.816 28.3395C55.8436 29.3605 56.6592 30.5746 57.2157 31.9121C57.7722 33.2495 58.0587 34.6838 58.0587 36.1324Z" fill="#00B4EC"/>
<path d="M57.9154 36.135C57.9296 38.2964 57.3017 40.4133 56.1112 42.2173C54.9208 44.0214 53.2214 45.4313 51.2287 46.2683C49.2359 47.1052 47.0394 47.3316 44.9178 46.9187C42.7962 46.5058 40.845 45.4721 39.3117 43.9488C37.7783 42.4255 36.7318 40.4812 36.3049 38.3624C35.8779 36.2435 36.0898 34.0457 36.9136 32.0474C37.7374 30.0491 39.1361 28.3405 40.9322 27.1382C42.7284 25.9359 44.8411 25.294 47.0025 25.2939C49.8849 25.292 52.6509 26.4313 54.6959 28.4627C56.7408 30.4942 57.8983 33.2526 57.9154 36.135Z" fill="#00B4EC"/>
<path d="M57.8413 36.1335C57.8413 38.2635 57.2097 40.3456 56.0264 42.1166C54.843 43.8876 53.1611 45.268 51.1933 46.0831C49.2254 46.8982 47.0601 47.1114 44.971 46.6959C42.882 46.2804 40.9631 45.2547 39.457 43.7486C37.9509 42.2425 36.9252 40.3236 36.5097 38.2345C36.0941 36.1455 36.3074 33.9801 37.1225 32.0123C37.9376 30.0445 39.3179 28.3626 41.0889 27.1792C42.8599 25.9959 44.9421 25.3643 47.072 25.3643C49.9282 25.3643 52.6674 26.4989 54.6871 28.5185C56.7067 30.5381 57.8413 33.2774 57.8413 36.1335Z" fill="#00B7EC"/>
<path d="M60.5009 36.1323C60.5009 38.8018 59.7093 41.4114 58.2261 43.6311C56.743 45.8507 54.635 47.5808 52.1686 48.6023C49.7023 49.6239 46.9884 49.8912 44.3701 49.3704C41.7519 48.8496 39.3469 47.5641 37.4592 45.6765C35.5715 43.7888 34.286 41.3838 33.7652 38.7655C33.2444 36.1473 33.5117 33.4334 34.5333 30.967C35.5549 28.5007 37.2849 26.3926 39.5046 24.9095C41.7242 23.4264 44.3338 22.6348 47.0034 22.6348C48.7764 22.6329 50.5324 22.9807 52.1709 23.6584C53.8093 24.336 55.298 25.3302 56.5518 26.5839C57.8055 27.8376 58.7996 29.3263 59.4773 30.9648C60.1549 32.6032 60.5028 34.3592 60.5009 36.1323Z" fill="#040000"/>
<path d="M43.9844 23.3536C43.9844 24.5321 43.6349 25.6842 42.9801 26.6642C42.3254 27.6442 41.3947 28.4079 40.3058 28.859C39.217 29.31 38.0188 29.428 36.8629 29.1981C35.7069 28.9681 34.6451 28.4006 33.8118 27.5672C32.9784 26.7338 32.4108 25.672 32.1809 24.5161C31.951 23.3602 32.069 22.162 32.52 21.0731C32.971 19.9843 33.7348 19.0536 34.7148 18.3988C35.6947 17.744 36.8468 17.3945 38.0254 17.3945C38.8085 17.3927 39.5842 17.5455 40.3081 17.8443C41.0319 18.1431 41.6896 18.582 42.2433 19.1357C42.797 19.6894 43.2359 20.3471 43.5347 21.0709C43.8335 21.7947 43.9863 22.5705 43.9844 23.3536Z" fill="white"/>
<path d="M25.436 91.0032C25.436 91.4595 25.2079 92.0678 24.5996 92.0678C24.4125 92.0683 24.231 92.0043 24.0855 91.8865C23.9401 91.7688 23.8397 91.6046 23.8013 91.4214C23.7619 91.2728 23.7491 91.1184 23.7632 90.9652C23.7632 90.2429 24.2195 89.9387 24.5616 89.9387C24.6894 89.9501 24.8135 89.9868 24.9269 90.0467C25.0403 90.1066 25.1406 90.1885 25.222 90.2876C25.3034 90.3867 25.3643 90.501 25.401 90.6239C25.4378 90.7468 25.4497 90.8757 25.436 91.0032ZM22.9648 87.9238V92.7901H23.7632V92.4099C23.8822 92.5467 24.0279 92.6577 24.1913 92.7362C24.3548 92.8146 24.5325 92.8589 24.7137 92.8661C25.5501 92.8661 26.2724 92.1438 26.2724 91.0413C26.2724 89.9387 25.5501 89.2164 24.7517 89.2164C24.3873 89.2206 24.0365 89.3555 23.7632 89.5966V87.8857H22.9648V87.9238Z" fill="#005BAC"/>
<path d="M29.5813 89.332L28.7069 92.3355L28.5168 92.9818C28.2887 93.7041 28.0226 93.9703 27.3762 93.9703C27.1101 93.9703 26.958 93.9322 26.882 93.9322V93.1719C26.958 93.1719 27.0341 93.2099 27.1101 93.2099C27.2411 93.2151 27.3714 93.1891 27.4903 93.1339C27.582 93.0693 27.6491 92.9754 27.6804 92.8677L26.4258 89.3701H27.3002L28.0606 91.9173L28.7069 89.3701H29.5813V89.332Z" fill="#005BAC"/>
<path d="M49.1233 92.4861H49.6175C49.6556 92.4861 49.6556 92.4861 49.6936 92.4481L51.7466 89.1024L52.8491 92.9423C52.8491 92.9803 52.8871 92.9803 52.9251 92.9803H55.0542C55.0643 92.9803 55.0739 92.9763 55.0811 92.9692C55.0882 92.9621 55.0922 92.9524 55.0922 92.9423L52.8491 85.7949C52.8491 85.7568 52.8111 85.7568 52.7731 85.7568H51.9747C51.9367 85.7568 51.9367 85.7568 51.8986 85.7949L49.1613 90.0529L46.424 85.7949C46.424 85.7568 46.386 85.7568 46.348 85.7568H45.5496C45.5116 85.7568 45.5116 85.7949 45.4736 85.7949L43.2305 92.9423C43.2305 92.9803 43.2305 92.9803 43.2685 92.9803H45.3975C45.4355 92.9803 45.4355 92.9423 45.4736 92.9423L46.5761 89.1024L48.6291 92.4481C48.6291 92.4861 48.6671 92.4861 48.7051 92.4861H49.1233Z" fill="#005BAC"/>
<path d="M43.2691 88.9129C43.2691 88.9028 43.2651 88.8932 43.258 88.886C43.2508 88.8789 43.2412 88.8749 43.2311 88.8749H37.1101C36.9589 88.8749 36.8138 88.935 36.7069 89.0419C36.5999 89.1489 36.5399 89.2939 36.5399 89.4452C36.5399 89.5964 36.5999 89.7415 36.7069 89.8484C36.8138 89.9554 36.9589 90.0155 37.1101 90.0155H40.7219C40.3037 91.156 38.821 91.9924 37.1101 91.9924C35.0191 91.9924 33.3463 90.7758 33.3463 89.2931C33.3463 87.8104 35.0191 86.5938 37.1101 86.5938C38.137 86.5628 39.1434 86.8849 39.9615 87.5063H42.5087C42.5188 87.5063 42.5285 87.5022 42.5356 87.4951C42.5428 87.488 42.5468 87.4783 42.5468 87.4682V87.4302C41.4822 86.2897 39.4673 85.5293 37.1482 85.5293C33.7265 85.5293 30.9512 87.2021 30.9512 89.2551C30.9512 91.3081 33.7265 92.9809 37.1482 92.9809C40.5698 92.9809 43.3451 91.3081 43.3451 89.2551C43.3071 89.1442 43.2816 89.0295 43.2691 88.9129Z" fill="#005BAC"/>
<path d="M61.1364 85.6436C57.7148 85.6436 54.9395 87.3164 54.9395 89.3694C54.9395 91.4223 57.7148 93.0951 61.1364 93.0951C64.5581 93.0951 67.3334 91.4223 67.3334 89.3694C67.3334 87.3164 64.5581 85.6436 61.1364 85.6436ZM61.1364 92.0306C59.0454 92.0306 57.3726 90.814 57.3726 89.3313C57.3726 87.8486 59.0454 86.632 61.1364 86.632C63.2274 86.632 64.9003 87.8486 64.9003 89.3313C64.9003 90.814 63.1894 92.0306 61.1364 92.0306Z" fill="#005BAC"/>
<path d="M11.7112 80.9298C10.2489 81.405 8.72435 81.6612 7.18704 81.6902C4.71585 81.6902 2.967 81.0819 1.75042 79.9413C1.181 79.3986 0.73129 78.7428 0.430126 78.0161C0.128962 77.2894 -0.0170081 76.5077 0.00157577 75.7213C0.00157577 71.8434 3.04304 69.4483 7.45317 69.4483C8.75025 69.4168 10.0412 69.6363 11.255 70.0946L10.6467 72.3377C9.61193 71.9099 8.49564 71.7152 7.37713 71.7674C4.90594 71.7674 3.00502 73.098 3.00502 75.5312C3.00502 77.8883 4.71585 79.4471 7.30109 79.4471C7.84035 79.477 8.3807 79.4127 8.89787 79.257V76.8238H6.76884V74.6568H11.6732L11.7112 80.9298Z" fill="#005FAB"/>
<path d="M16.2752 68.8008H13.9941V81.5369H16.2752V68.8008Z" fill="#005FAB"/>
<path d="M23.0052 80.1303C21.5985 80.1303 20.572 78.9517 20.572 77.2409C20.572 75.7202 21.3324 74.3135 23.0432 74.3135C24.754 74.3135 25.4763 75.7962 25.4763 77.2029C25.4763 79.1038 24.3738 80.1303 23.0052 80.1303ZM23.0052 81.7651C25.5144 81.7651 27.8715 80.2063 27.8715 77.1269C27.8715 74.5796 25.9706 72.6787 23.1572 72.6787C20.2298 72.6787 18.2148 74.5416 18.2148 77.3169C18.2148 80.0162 20.3059 81.7651 23.0052 81.7651Z" fill="#005FAB"/>
<path d="M32.0915 76.7466C32.0956 76.5543 32.1211 76.363 32.1676 76.1763C32.2881 75.6739 32.5756 75.2272 32.9831 74.9095C33.3906 74.5918 33.8939 74.4218 34.4106 74.4275C36.0454 74.4275 36.8818 75.6821 36.8818 77.2028C36.8818 78.9517 35.8933 80.0162 34.3726 80.0162C33.8677 80.019 33.3757 79.8573 32.9709 79.5554C32.5662 79.2536 32.2708 78.8281 32.1295 78.3434C32.098 78.1806 32.0852 78.0148 32.0915 77.8491V76.7466ZM29.8104 79.1037C29.8104 80.0542 29.7724 81.0047 29.7344 81.5749H31.6733L31.7874 80.2063H31.8254C32.5097 81.3848 33.6883 81.803 34.9049 81.803C37.0339 81.803 39.239 80.2443 39.239 77.1268C39.277 74.4655 37.5281 72.7167 35.247 72.7167C33.8023 72.7167 32.7378 73.325 32.1676 74.1994H32.1295V68.8008H29.8484V79.1037H29.8104Z" fill="#005FAB"/>
<path d="M46.1569 78.4206C46.1684 78.5889 46.1425 78.7577 46.0809 78.9148C45.9221 79.2952 45.6519 79.6187 45.3059 79.8426C44.9598 80.0666 44.554 80.1805 44.1419 80.1694C43.3436 80.1694 42.7733 79.7512 42.7733 78.9528C42.7733 77.6982 44.294 77.318 46.1189 77.3561V78.4206H46.1569ZM48.362 76.4436C48.362 74.5427 47.4876 72.6798 44.5221 72.6798C43.3389 72.6435 42.1685 72.9328 41.1385 73.5162L41.5947 74.9989C42.3858 74.5585 43.2746 74.3232 44.18 74.3146C45.9288 74.3146 46.0809 75.3411 46.0809 75.8353V75.9494C42.4691 75.9114 40.4922 77.0899 40.4922 79.257C40.4922 80.5116 41.4807 81.8422 43.4196 81.8422C43.944 81.8616 44.4659 81.7623 44.9465 81.5516C45.4271 81.341 45.8539 81.0244 46.1949 80.6256H46.233L46.385 81.6141H48.438C48.3382 80.9088 48.2874 80.1974 48.2859 79.4851V76.4436H48.362Z" fill="#005FAB"/>
<path d="M53.1522 68.8008H50.8711V81.5369H53.1522V68.8008Z" fill="#005FAB"/>
<path d="M55.8924 78.6099C56.9269 79.1464 58.0728 79.4328 59.238 79.4463C60.5306 79.4463 61.215 78.9521 61.215 78.1537C61.215 77.4694 60.6447 77.0131 59.0479 76.5569C56.9189 75.9486 55.3982 74.9221 55.3982 72.9452C55.3982 70.8542 57.2611 69.3334 60.1885 69.3334C61.3736 69.3122 62.5506 69.5321 63.6481 69.9798L62.9638 72.2228C62.0795 71.8238 61.1207 71.6165 60.1505 71.6145C58.8959 71.6145 58.3256 72.1468 58.3256 72.7551C58.3256 73.5155 59.0859 73.8576 60.7207 74.3899C63.0398 75.1122 64.1424 76.1767 64.1424 78.0396C64.1424 79.9786 62.6216 81.8035 59.0099 81.8035C57.7087 81.8082 56.4228 81.5224 55.2461 80.967L55.8924 78.6099Z" fill="#005FAB"/>
<path d="M66.1922 72.9061H68.4733V81.5743H66.1922V72.9061ZM67.3327 71.5374C67.1597 71.5509 66.9859 71.5285 66.822 71.4715C66.6581 71.4146 66.5078 71.3244 66.3804 71.2066C66.253 71.0887 66.1514 70.9459 66.0819 70.7869C66.0124 70.6279 65.9766 70.4563 65.9766 70.2828C65.9766 70.1093 66.0124 69.9377 66.0819 69.7787C66.1514 69.6198 66.253 69.4769 66.3804 69.3591C66.5078 69.2413 66.6581 69.1511 66.822 69.0941C66.9859 69.0372 67.1597 69.0147 67.3327 69.0282C67.5043 69.0155 67.6766 69.0387 67.8387 69.0962C68.0008 69.1538 68.1492 69.2445 68.2743 69.3625C68.3995 69.4805 68.4987 69.6233 68.5657 69.7817C68.6327 69.9402 68.6659 70.1108 68.6634 70.2828C68.6695 70.4558 68.6387 70.6281 68.573 70.7883C68.5072 70.9484 68.4081 71.0927 68.2821 71.2114C68.1562 71.3302 68.0063 71.4207 67.8426 71.4769C67.6789 71.5331 67.5051 71.5538 67.3327 71.5374Z" fill="#005FAB"/>
<path d="M77.2954 77.5831C77.2975 77.8534 77.259 78.1225 77.1813 78.3815C77.0403 78.8142 76.7656 79.191 76.3966 79.4575C76.0276 79.724 75.5835 79.8664 75.1283 79.8642C73.5316 79.8642 72.7332 78.5716 72.7332 77.2409C72.7332 75.416 73.7977 74.4276 75.1283 74.4276C75.5969 74.4145 76.0559 74.5619 76.4293 74.8454C76.8027 75.1289 77.068 75.5314 77.1813 75.9863C77.2253 76.1734 77.2508 76.3645 77.2574 76.5566L77.2954 77.5831ZM79.5765 75.302C79.5765 74.1234 79.6145 73.4391 79.6525 72.9068H77.6375L77.5615 74.1234H77.5235C77.0673 73.363 76.1928 72.6787 74.7101 72.6787C72.429 72.6787 70.4141 74.4656 70.4141 77.2789C70.4141 79.7881 72.1629 81.499 74.444 81.499C74.9943 81.5171 75.5409 81.4021 76.0373 81.1639C76.5337 80.9256 76.9653 80.571 77.2954 80.1303H77.3334V80.8907C77.3334 82.8296 76.0788 83.59 74.5581 83.59C73.569 83.5935 72.5973 83.3308 71.7447 82.8296L71.2505 84.5784C72.0488 85.0727 73.3795 85.3388 74.5961 85.3388C75.8127 85.3388 77.1813 85.1107 78.2078 84.2363C79.2343 83.3619 79.5765 81.9552 79.5765 80.2063V75.302Z" fill="#005FAB"/>
<path d="M82.1229 75.5304C82.1229 74.5039 82.0849 73.6675 82.0469 72.9071H84.0619L84.1759 74.3138H84.2519C84.5721 73.811 85.017 73.3996 85.5433 73.1198C86.0697 72.84 86.6595 72.7012 87.2554 72.717C88.7761 72.717 90.639 73.6295 90.639 76.6329V81.6133H88.3579V76.861C88.3579 75.4924 87.8257 74.5039 86.495 74.5039C86.0735 74.4991 85.6616 74.6293 85.3195 74.8756C84.9774 75.1219 84.7232 75.4713 84.5941 75.8726C84.5195 76.0799 84.4809 76.2985 84.4801 76.5189V81.5373H82.199V75.5304H82.1229Z" fill="#005FAB"/>
<path d="M90.7149 70.4356C90.7149 71.7282 92.1976 72.6787 93.5663 71.6522C94.5928 70.3216 93.6423 68.8008 92.3497 68.8008C92.1346 68.7993 91.9213 68.8406 91.7223 68.9222C91.5232 69.0038 91.3424 69.1242 91.1903 69.2763C91.0382 69.4284 90.9179 69.6092 90.8362 69.8082C90.7546 70.0072 90.7134 70.2205 90.7149 70.4356ZM90.905 70.4356C90.905 69.2951 92.2356 68.4587 93.4142 69.3711C94.3266 70.5497 93.4902 71.8803 92.3497 71.8803C92.1599 71.8803 91.9721 71.8429 91.7968 71.7703C91.6215 71.6977 91.4623 71.5913 91.3281 71.4572C91.194 71.323 91.0875 71.1637 91.0149 70.9885C90.9423 70.8132 90.905 70.6253 90.905 70.4356Z" fill="#040000"/>
<path d="M91.8952 69.6759H92.5035C92.6098 69.6733 92.715 69.6996 92.8076 69.7519C92.8439 69.7776 92.8734 69.8119 92.8933 69.8517C92.9132 69.8915 92.9229 69.9356 92.9217 69.98C92.9217 70.0561 92.9217 70.0941 92.8836 70.1321C92.8403 70.1791 92.7888 70.2177 92.7316 70.2462C92.6472 70.2802 92.5559 70.2932 92.4654 70.2842H91.9332L91.8952 69.6759ZM91.8952 71.3867V70.5503H92.3514C92.3894 70.5503 92.4274 70.5883 92.4654 70.5883L92.5795 70.7024C92.6175 70.7784 92.6935 70.8545 92.7696 70.9685L93.0357 71.3487H93.3399L92.9977 70.8164C92.9217 70.7024 92.8456 70.6264 92.8076 70.5503C92.7895 70.5271 92.7665 70.5083 92.7402 70.4951C92.7139 70.482 92.6849 70.4748 92.6555 70.4743C92.8121 70.4587 92.959 70.3918 93.0737 70.2842C93.1146 70.2377 93.1458 70.1834 93.1654 70.1246C93.185 70.0659 93.1926 70.0038 93.1878 69.942C93.1806 69.8369 93.1548 69.734 93.1117 69.6379C93.0687 69.557 93.0025 69.4908 92.9217 69.4478C92.7983 69.4122 92.6695 69.3993 92.5415 69.4098H91.7051V71.3107H91.8952V71.3867Z" fill="#040000"/>
</svg>
