<svg width="94" height="94" viewBox="0 0 94 94" fill="none" xmlns="http://www.w3.org/2000/svg">
<g clip-path="url(#clip0_38849_14548)">
<path d="M87.6701 62.0047H84.712C86.1423 57.8815 86.8707 53.5475 86.867 49.1832C86.867 27.5469 69.2714 10 47.5606 10C25.8498 10 8.2616 27.5469 8.2616 49.1832C8.2581 53.5475 8.98685 57.8815 10.4175 62.0047H6.33267C5.49927 62.0058 4.67426 62.1712 3.90482 62.4914C3.13538 62.8115 2.4366 63.2803 1.84845 63.8707C1.26031 64.4612 0.794321 65.1618 0.477151 65.9325C0.159981 66.7031 -0.0021532 67.5288 2.15919e-05 68.3622V83.6245C-0.0021532 84.4579 0.159981 85.2836 0.477151 86.0542C0.794321 86.8249 1.26031 87.5255 1.84845 88.116C2.4366 88.7064 3.13538 89.1752 3.90482 89.4953C4.67426 89.8155 5.49927 89.9809 6.33267 89.982H87.6701C88.5035 89.9809 89.3285 89.8155 90.098 89.4953C90.8674 89.1752 91.5662 88.7064 92.1544 88.116C92.7425 87.5255 93.2085 86.8249 93.5257 86.0542C93.8428 85.2836 94.005 84.4579 94.0028 83.6245V68.3622C94.005 67.5288 93.8428 66.7031 93.5257 65.9325C93.2085 65.1618 92.7425 64.4612 92.1544 63.8707C91.5662 63.2803 90.8674 62.8115 90.098 62.4914C89.3285 62.1712 88.5035 62.0058 87.6701 62.0047Z" fill="white"/>
<path d="M18.1123 62.0055C16.4928 58.0734 15.6623 53.8611 15.6679 49.6086C15.6679 31.6996 30.1224 17.1789 47.9496 17.1789C65.7768 17.1789 80.2276 31.7033 80.2276 49.6086C80.234 53.8609 79.4047 58.073 77.7868 62.0055H82.5508C83.9505 58.0224 84.6634 53.8304 84.6589 49.6086C84.6589 29.0612 68.0852 12.4131 47.6362 12.4131C27.1872 12.4131 10.6016 29.0612 10.6016 49.6086C10.5983 53.8307 11.3124 58.0226 12.7134 62.0055H18.1123Z" fill="#145273"/>
<path d="M61.6364 79.8486C61.7567 79.7232 61.8445 79.5701 61.8918 79.4029C61.9386 79.2648 61.9637 79.1204 61.9663 78.9746C61.9624 78.8287 61.9373 78.6842 61.8918 78.5455C61.8424 78.3818 61.7548 78.2322 61.6364 78.109C61.4802 77.9601 61.295 77.8449 61.0923 77.7708C60.8051 77.6645 60.4995 77.6167 60.1936 77.6302H58.7012V80.3264H60.1936C60.4995 80.3396 60.8049 80.2921 61.0923 80.1868C61.2948 80.1122 61.4799 79.9971 61.6364 79.8486Z" fill="#145273"/>
<path d="M68.7767 68.8142C68.8125 68.7544 68.8298 68.6853 68.8264 68.6157C68.8315 68.5551 68.817 68.4946 68.785 68.4429C68.7602 68.3999 68.723 68.3654 68.6784 68.3437C68.635 68.3111 68.5835 68.2911 68.5295 68.2858C68.4758 68.2721 68.4204 68.2665 68.365 68.2692H67.8945V68.9704H68.4459C68.511 68.9626 68.5747 68.9459 68.6352 68.9208C68.692 68.9001 68.7412 68.863 68.7767 68.8142Z" fill="#145273"/>
<path d="M31.8691 73.3757C32.1938 73.1127 32.4535 72.7784 32.6282 72.3988C33.0018 71.4958 33.0018 70.4815 32.6282 69.5785C32.4565 69.1958 32.1963 68.8594 31.8691 68.597C31.536 68.3295 31.1516 68.133 30.7397 68.0199C30.2858 67.8941 29.8166 67.8322 29.3456 67.8361H27.8945V74.1357H29.3456C29.8169 74.138 30.2862 74.0739 30.7397 73.9455C31.1514 73.8355 31.536 73.6415 31.8691 73.3757Z" fill="#145273"/>
<path d="M69.3821 67.9872C69.2441 67.8454 69.0787 67.7332 68.896 67.6573C68.7057 67.5761 68.5009 67.5342 68.294 67.5342C68.0871 67.5342 67.8824 67.5761 67.6921 67.6573C67.3224 67.8156 67.0294 68.1126 66.8761 68.4844C66.7942 68.6745 66.752 68.8793 66.752 69.0863C66.752 69.2933 66.7942 69.4981 66.8761 69.6882C67.0297 70.0599 67.3225 70.3567 67.6921 70.5153C67.8824 70.5966 68.0871 70.6384 68.294 70.6384C68.5009 70.6384 68.7057 70.5966 68.896 70.5153C69.0787 70.4395 69.2441 70.3272 69.3821 70.1854C69.5253 70.0454 69.6377 69.877 69.712 69.691C69.7939 69.5009 69.8361 69.2961 69.8361 69.0891C69.8361 68.8821 69.7939 68.6773 69.712 68.4871C69.6385 68.2991 69.5261 68.1287 69.3821 67.9872ZM68.896 70.1229L68.2775 69.2039H67.8934V70.1229H67.636V68.0323H68.4365C68.6671 68.0323 68.8399 68.0819 68.9391 68.1811C68.9917 68.2403 69.0318 68.3095 69.0572 68.3844C69.0826 68.4594 69.0928 68.5387 69.0871 68.6176C69.0875 68.7017 69.0738 68.7853 69.0467 68.8648C69.0209 68.9303 68.9814 68.9896 68.9309 69.0385C68.8848 69.0864 68.8281 69.1229 68.7655 69.1451C68.7024 69.1747 68.6361 69.1969 68.5679 69.2113L69.1864 70.1303L68.896 70.1229Z" fill="#145273"/>
<path d="M19.5172 79.8485C19.6399 79.7235 19.7305 79.5705 19.781 79.4028C19.8213 79.2635 19.8436 79.1196 19.8471 78.9746C19.8424 78.8294 19.8202 78.6853 19.781 78.5454C19.7284 78.3813 19.638 78.2318 19.5172 78.1089C19.3642 77.96 19.1817 77.8448 18.9815 77.7707C18.6913 77.6646 18.3831 77.6168 18.0744 77.6301H16.582V80.3264H18.0744C18.383 80.3395 18.6911 80.292 18.9815 80.1867C19.1815 80.1122 19.364 79.9971 19.5172 79.8485Z" fill="#145273"/>
<path d="M84.8214 65.1885H9.17702C8.45739 65.1894 7.74501 65.3323 7.08066 65.6089C6.4163 65.8855 5.81301 66.2904 5.30531 66.8004C4.7976 67.3104 4.39546 67.9155 4.12188 68.5811C3.8483 69.2467 3.70867 69.9597 3.71097 70.6793V81.2586C3.70867 81.9782 3.8483 82.6913 4.12186 83.357C4.39543 84.0226 4.79756 84.6278 5.30525 85.1379C5.81294 85.648 6.41623 86.0529 7.08059 86.3296C7.74495 86.6063 8.45735 86.7493 9.17702 86.7504H84.8214C86.2746 86.747 87.6669 86.1665 88.6922 85.1366C89.7174 84.1067 90.2916 82.7118 90.2884 81.2586V70.6793C90.29 69.9598 90.1498 69.2471 89.8759 68.5817C89.602 67.9164 89.1998 67.3115 88.6921 66.8017C88.1845 66.2918 87.5814 65.8869 86.9172 65.6101C86.2531 65.3333 85.5409 65.19 84.8214 65.1885ZM49.5972 67.1918H50.5042L55.1055 73.8296H55.122V67.1918H55.8306V74.778H54.9235L50.3232 68.132H50.2983V74.778H49.5972V67.1918ZM45.4618 71.9494H48.1002V72.5265H45.4664L45.4618 71.9494ZM34.6105 71.9494H37.2489V72.5265H34.6151L34.6105 71.9494ZM20.02 84.5733L17.8926 80.97H16.5821V84.5733H15.8809V76.9872H17.8604L18.2721 76.9955C18.4573 77.0031 18.6417 77.0252 18.8235 77.0616C19.0326 77.0973 19.2371 77.1556 19.4337 77.2353C19.6378 77.3105 19.8251 77.4251 19.9851 77.5726C20.157 77.733 20.2943 77.9269 20.3885 78.1423C20.5036 78.4045 20.5601 78.6887 20.5539 78.9749C20.5646 79.2882 20.4994 79.5994 20.3637 79.882C20.2486 80.1023 20.0887 80.2961 19.8941 80.4508C19.7064 80.597 19.4942 80.7087 19.2674 80.7807C19.0546 80.8478 18.8367 80.8973 18.6158 80.9287L20.8213 84.5733H20.02ZM26.9959 84.5733H22.2053V76.9872H26.8232V77.6305H22.9065V80.3267H26.5824V80.97H22.9065V83.93H26.9959V84.5733ZM27.1861 67.1918H29.5277C30.1792 67.1918 30.7316 67.2663 31.1929 67.4308C31.6052 67.564 31.9887 67.7738 32.3232 68.0492C32.6123 68.2771 32.8556 68.5578 33.04 68.8763C33.2023 69.1518 33.3325 69.4451 33.4278 69.7503C33.5036 69.9974 33.5532 70.2518 33.5758 70.5093C33.5952 70.6679 33.6062 70.8274 33.6089 70.9872C33.6089 71.0791 33.6006 71.2344 33.5758 71.466C33.5531 71.7205 33.5035 71.9718 33.4278 72.2159C33.3325 72.5211 33.2023 72.8143 33.04 73.0898C32.8553 73.4101 32.6122 73.6928 32.3232 73.9233C31.9847 74.1927 31.6023 74.4019 31.1929 74.5418C30.6545 74.7113 30.092 74.792 29.5277 74.7807H27.1861V67.1918ZM34.7631 84.0789C34.3353 84.3227 33.8744 84.5032 33.3947 84.6147C32.9203 84.7141 32.4367 84.764 31.952 84.7635C31.408 84.7679 30.8681 84.67 30.3603 84.475C29.8989 84.2855 29.4808 84.0041 29.1316 83.6479C28.7828 83.2824 28.5109 82.8505 28.3321 82.3779C27.9474 81.3463 27.9474 80.2106 28.3321 79.1789C28.5132 78.7099 28.7849 78.2812 29.1316 77.9172C29.4805 77.5606 29.8986 77.2792 30.3603 77.0901C30.8647 76.8817 31.4062 76.7779 31.952 76.785C33.0731 76.785 33.9801 77.1397 34.673 77.8409L34.1529 78.3767C34.035 78.2277 33.893 78.0994 33.7329 77.9971C33.5649 77.8732 33.3822 77.7708 33.1889 77.692C32.993 77.6069 32.7884 77.5434 32.5787 77.5027C32.3733 77.4541 32.163 77.4291 31.952 77.4283C31.494 77.424 31.0398 77.5108 30.6158 77.6838C30.2372 77.8517 29.8955 78.0928 29.6104 78.3932C29.3304 78.7036 29.1121 79.0644 28.9671 79.4565C28.6694 80.3107 28.6694 81.2406 28.9671 82.0948C29.11 82.4857 29.3286 82.8445 29.6104 83.1507C29.8933 83.4537 30.2355 83.6952 30.6158 83.8602C31.0387 84.037 31.4937 84.124 31.952 84.1157C32.333 84.1158 32.7135 84.0851 33.0896 84.0238C33.4322 83.9632 33.7616 83.8432 34.0628 83.669V81.1189H32.2488V80.4756H34.7631V84.0789ZM37.5421 84.5733H36.8335V76.9872H37.5421V84.5733ZM43.7516 83.5431C43.6239 83.7995 43.4456 84.0272 43.2272 84.2125C43.0089 84.3978 42.7552 84.5368 42.4816 84.6211C42.1946 84.7173 41.8937 84.7649 41.5911 84.7617C41.1192 84.7678 40.6507 84.6807 40.2126 84.5053C39.7798 84.3135 39.4089 84.0052 39.1411 83.6148L39.8092 83.17C39.978 83.4729 40.2295 83.7215 40.5342 83.8868C40.8462 84.0482 41.194 84.1279 41.5451 84.1184C41.7696 84.121 41.9929 84.0846 42.2049 84.0109C42.404 83.9486 42.5889 83.8478 42.749 83.7141C42.9067 83.5823 43.0329 83.417 43.1184 83.2301C43.204 83.0433 43.2467 82.8397 43.2434 82.6343C43.2509 82.4033 43.1939 82.1749 43.0789 81.9745C42.9598 81.8059 42.8083 81.6628 42.6332 81.5536C42.4342 81.4407 42.2242 81.3483 42.0064 81.2779L41.2979 81.0389C41.0507 80.9562 40.8109 80.8735 40.5802 80.7752C40.3535 80.6737 40.1425 80.5403 39.9535 80.3791C39.7655 80.2111 39.6141 80.0062 39.5087 79.7772C39.3915 79.4895 39.3352 79.1807 39.3433 78.8702C39.3384 78.5618 39.4064 78.2567 39.5418 77.9797C39.6688 77.7248 39.852 77.502 40.0775 77.3281C40.3051 77.1434 40.5691 77.0087 40.8522 76.933C41.1495 76.8391 41.4595 76.7917 41.7712 76.7924C42.1643 76.7881 42.5542 76.8638 42.9171 77.0148C43.2856 77.1701 43.6037 77.4246 43.8361 77.7499L43.2259 78.1864C43.0657 77.9514 42.8505 77.759 42.5992 77.6259C42.3382 77.4961 42.0498 77.4311 41.7583 77.4366C41.5379 77.437 41.3187 77.4679 41.1068 77.5285C40.9114 77.5897 40.7276 77.6828 40.5627 77.8042C40.41 77.9234 40.2859 78.0754 40.1997 78.2489C40.1001 78.4424 40.052 78.6582 40.0601 78.8757C40.0601 79.2552 40.152 79.552 40.3486 79.7496C40.5478 79.9643 40.7932 80.1309 41.0663 80.2367C41.3706 80.356 41.6814 80.4579 41.9973 80.5418C42.3235 80.6221 42.6391 80.7409 42.9374 80.8956C43.2231 81.0443 43.4692 81.2592 43.6551 81.5223C43.8444 81.798 43.9436 82.1656 43.9436 82.6361C43.9468 82.9489 43.8812 83.2585 43.7516 83.5431ZM44.1137 71.8722C44.1147 72.2664 44.0678 72.6592 43.974 73.042C43.8891 73.3995 43.7328 73.7362 43.5145 74.0318C43.2867 74.3244 42.9929 74.559 42.6571 74.7164C42.25 74.8993 41.8065 74.9867 41.3604 74.9719C40.8485 74.9719 40.412 74.8892 40.0656 74.7164C39.7284 74.5613 39.4341 74.3263 39.2082 74.0318C38.9899 73.7362 38.8336 73.3995 38.7487 73.042C38.6559 72.6615 38.609 72.2712 38.609 71.8795V67.1928H39.3093V71.6865C39.3108 71.9794 39.3357 72.2716 39.3837 72.5605C39.4316 72.8615 39.5321 73.1517 39.6805 73.4179C39.8307 73.6821 40.043 73.9057 40.299 74.0694C40.5627 74.2431 40.9175 74.3249 41.3632 74.3249C41.8089 74.3249 42.1544 74.2431 42.4264 74.0694C42.6824 73.9057 42.8947 73.6821 43.0449 73.4179C43.1875 73.1499 43.285 72.8602 43.3334 72.5605C43.3815 72.2716 43.4064 71.9794 43.4079 71.6865V67.1928H44.1109L44.1137 71.8722ZM50.5042 77.6277H47.9237V84.5706H47.2143V77.6305H44.6338V76.9872H50.5042V77.6277ZM56.4573 84.5706H51.6667V76.9872H56.2845V77.6305H52.3679V80.3267H56.0438V80.97H52.3679V83.93H56.4573V84.5706ZM57.3239 71.9466H59.954V72.5237H57.3239V71.9466ZM62.1301 84.5706L60.0091 80.97H58.7005V84.5733H57.9874V76.9872H59.9751L60.3786 76.9955C60.5669 77.003 60.7543 77.0251 60.9391 77.0616C61.1455 77.0974 61.3474 77.1556 61.5411 77.2353C61.7484 77.3102 61.9391 77.4247 62.1026 77.5726C62.2719 77.7352 62.4088 77.9286 62.506 78.1423C62.6182 78.4052 62.6718 78.6893 62.6631 78.9749C62.6757 79.2876 62.6127 79.5988 62.4793 79.882C62.359 80.0988 62.1998 80.2916 62.0097 80.4508C61.821 80.5954 61.6091 80.7069 61.383 80.7807C61.17 80.847 60.9522 80.8964 60.7315 80.9287L62.937 84.5733L62.1301 84.5706ZM63.4332 74.9719C62.9605 74.9794 62.4913 74.8896 62.0548 74.7081C61.6206 74.5221 61.2486 74.2161 60.9823 73.8259L61.6504 73.3802C61.8195 73.6834 62.0713 73.9323 62.3764 74.0979C62.6873 74.2585 63.0338 74.3378 63.3836 74.3286C63.608 74.3312 63.8312 74.2951 64.0434 74.222C64.2393 74.1581 64.4211 74.0573 64.5792 73.9252C64.734 73.7976 64.8581 73.6368 64.9422 73.4546C65.0362 73.2651 65.0843 73.056 65.0828 72.8444C65.0917 72.6121 65.0312 72.3824 64.9091 72.1846C64.8002 72.011 64.6503 71.8668 64.4726 71.7647C64.2725 71.6503 64.0628 71.5538 63.8459 71.4761L63.1281 71.2445C62.8872 71.1653 62.6507 71.0733 62.4196 70.9688C62.192 70.8729 61.9806 70.7424 61.7929 70.5819C61.6067 70.412 61.4554 70.2076 61.3472 69.98C61.2305 69.6922 61.1745 69.3834 61.1827 69.073C61.1764 68.7646 61.2442 68.4593 61.3802 68.1825C61.5071 67.9275 61.6903 67.7047 61.916 67.5309C62.1454 67.3464 62.409 67.209 62.6916 67.1266C62.9902 67.0398 63.2996 66.9956 63.6106 66.9952C64.0037 66.9915 64.3934 67.0671 64.7566 67.2176C65.1251 67.3728 65.4432 67.6273 65.6755 67.9528L65.0653 68.3902C64.9038 68.1495 64.6834 67.9541 64.4251 67.8227C64.1668 67.6913 63.8791 67.6282 63.5895 67.6394C63.3691 67.6403 63.1499 67.6712 62.9379 67.7313C62.7439 67.7896 62.5623 67.8831 62.4021 68.007C62.2499 68.1283 62.1247 68.2801 62.0346 68.4527C61.9406 68.6479 61.8952 68.8629 61.9022 69.0794C61.9022 69.458 61.9941 69.7549 62.1908 69.9534C62.3926 70.1648 62.6373 70.3305 62.9085 70.4395C63.2142 70.5633 63.5284 70.6653 63.8486 70.7446C64.1742 70.8332 64.4894 70.9564 64.7887 71.1122C65.0744 71.2607 65.3202 71.4756 65.5055 71.7389C65.6958 72.0146 65.7941 72.3739 65.7941 72.8518C65.7988 73.1644 65.7342 73.4742 65.6048 73.7588C65.479 74.0146 65.3024 74.2419 65.0856 74.4269C64.8642 74.6115 64.6093 74.7516 64.3348 74.8395C64.0438 74.9338 63.739 74.9785 63.4332 74.9719ZM69.1143 84.5779H64.3283V76.9872H68.9416V77.6305H65.0249V80.3267H68.6944V80.97H65.0249V83.93H69.1143V84.5779ZM69.9561 69.7935C69.8611 70.0067 69.7299 70.202 69.5683 70.3706C69.4022 70.5372 69.2065 70.6716 68.9912 70.7666C68.7691 70.8595 68.5307 70.9073 68.29 70.9073C68.0493 70.9073 67.811 70.8595 67.5888 70.7666C67.3736 70.6716 67.1779 70.5372 67.0117 70.3706C66.85 70.2007 66.7194 70.0038 66.6258 69.7889C66.533 69.5669 66.4852 69.3287 66.4852 69.0881C66.4852 68.8476 66.533 68.6094 66.6258 68.3874C66.7204 68.1742 66.8513 67.9789 67.0126 67.8103C67.177 67.6435 67.3732 67.5116 67.5898 67.4225C67.8106 67.3249 68.0495 67.2745 68.2909 67.2745C68.5324 67.2745 68.7712 67.3249 68.9921 67.4225C69.2086 67.5116 69.4049 67.6435 69.5692 67.8103C69.7306 67.9791 69.8618 68.1743 69.957 68.3874C70.0492 68.6095 70.0967 68.8477 70.0967 69.0881C70.0967 69.3286 70.0492 69.5667 69.957 69.7889L69.9561 69.7935ZM76.9477 81.2632C76.8839 81.8373 76.6984 82.3912 76.4036 82.8879C76.2194 83.206 75.979 83.4881 75.6942 83.7205C75.352 83.9886 74.9675 84.1976 74.5565 84.339C74.0182 84.5091 73.4557 84.5898 72.8913 84.5779H70.5498V76.9872H72.8913C73.5429 76.9872 74.1034 77.0616 74.5565 77.227C74.9706 77.3614 75.3563 77.5711 75.6942 77.8455C75.9771 78.0777 76.2172 78.3577 76.4036 78.6726C76.5645 78.9488 76.6945 79.2419 76.7914 79.5465C76.8656 79.7942 76.9178 80.0479 76.9477 80.3047C76.9642 80.528 76.9808 80.6925 76.9808 80.7835C76.9808 80.8744 76.9642 81.0279 76.9477 81.2586V81.2632ZM78.8481 77.3915H78.1965V79.1642H77.9411V77.3915H77.2859V77.1609H78.8481V77.3915ZM81.2806 79.1642H81.0169V77.4081H81.0086L80.3185 79.1642H80.1622L79.4693 77.4081H79.4611V79.1642H79.1973V77.1609H79.6173L80.244 78.7599L80.8708 77.1609H81.2751L81.2806 79.1642Z" fill="#145273"/>
<path d="M75.2406 78.3891C74.9017 78.1259 74.5155 77.93 74.103 77.8119C73.6492 77.6857 73.1799 77.6238 72.7089 77.6281H71.2578V83.9277H72.7089C73.1801 83.9303 73.6494 83.8666 74.103 83.7384C74.5162 83.6263 74.903 83.4329 75.2406 83.1696C75.5612 82.9029 75.8175 82.5674 75.9905 82.1881C76.1762 81.7411 76.2718 81.2619 76.2718 80.7779C76.2718 80.2939 76.1762 79.8147 75.9905 79.3678C75.8191 78.9882 75.5625 78.6533 75.2406 78.3891Z" fill="#145273"/>
<path d="M38.2612 34.2666L61.06 58.0386L58.6606 60.3645L55.0655 56.6206L51.5119 60.0677C50.6997 60.8623 49.7375 61.4873 48.6814 61.9062C47.6252 62.325 46.4962 62.5295 45.3602 62.5076H45.352C43.6417 62.4678 41.9813 61.9233 40.5796 60.9425C39.1778 59.9618 38.0973 58.5885 37.4738 56.9954C36.8503 55.4023 36.7116 53.6604 37.0752 51.9887C37.4388 50.3171 38.2885 48.7902 39.5174 47.6L41.9003 45.3026L44.217 47.7103L41.8341 50.0077C40.8199 50.9889 40.2357 52.3319 40.2094 53.7428C40.183 55.1537 40.7167 56.5176 41.6935 57.5359C42.1767 58.0393 42.7547 58.4421 43.3942 58.721C44.0338 58.9999 44.7222 59.1495 45.4199 59.161C46.1175 59.1725 46.8105 59.0458 47.4589 58.7882C48.1074 58.5306 48.6984 58.1472 49.1979 57.66L52.7506 54.2129L38.2612 39.1234V34.2666Z" fill="#145273"/>
<path d="M54.7715 38.0684V41.5311C55.514 41.8067 56.1242 42.2405 56.6931 42.8259C57.6661 43.8482 58.1964 45.2132 58.1685 46.6243C58.1406 48.0354 57.5569 49.3784 56.5442 50.3615L56.2391 50.65L58.5724 53.0394L58.8609 52.7637C60.5144 51.1646 61.4665 48.9751 61.5084 46.6752C61.5502 44.3753 60.6785 42.1527 59.0842 40.4944C57.9185 39.2766 56.4175 38.4323 54.7715 38.0684Z" fill="#2C95B4"/>
<path d="M40.429 30.9194L38.7812 32.5157L41.098 34.9234L42.7475 33.3317C43.1233 32.9663 43.5675 32.6788 44.0547 32.4855C44.5419 32.2923 45.0625 32.1973 45.5865 32.2058C46.1106 32.2143 46.6277 32.3263 47.1084 32.5353C47.589 32.7443 48.0236 33.0462 48.3873 33.4236C49.1197 34.1913 49.5193 35.217 49.4994 36.2778C49.4794 37.3386 49.0414 38.3486 48.2807 39.0882L46.6376 40.6578L48.9543 43.0655L50.5956 41.4904C53.4977 38.6728 53.5767 34.0035 50.7849 31.0931C50.117 30.4006 49.319 29.8466 48.4367 29.463C47.5543 29.0794 46.605 28.8736 45.643 28.8575C44.681 28.8413 43.7252 29.0152 42.8305 29.369C41.9358 29.7228 41.1197 30.2497 40.429 30.9194Z" fill="#2C95B4"/>
<path fill-rule="evenodd" clip-rule="evenodd" d="M23.4839 56.7533C23.4061 56.4739 23.297 56.2042 23.1586 55.9492C23.0317 55.725 22.864 55.5265 22.6642 55.3638C22.47 55.2088 22.2405 55.104 21.9961 55.0587C21.7087 55.0125 21.4144 55.0342 21.1369 55.1221C20.8557 55.1874 20.5915 55.3111 20.3613 55.4851C20.1698 55.6332 20.0172 55.8256 19.9165 56.0457C19.8223 56.2703 19.7745 56.5116 19.7759 56.7552C19.773 57.0309 19.8092 57.3056 19.8834 57.5712L20.1141 58.4203L23.676 57.4472L23.4839 56.7533ZM19.5177 59.581L18.9663 57.5198C18.8703 57.1796 18.8312 56.8259 18.8505 56.473C18.8716 56.132 18.958 55.7982 19.105 55.4897C19.2667 55.1754 19.4913 54.8976 19.7649 54.6737C20.0925 54.4223 20.4676 54.2398 20.8676 54.137C21.2421 54.0243 21.6373 53.9988 22.0232 54.0626C22.409 54.1263 22.7751 54.2775 23.0934 54.5046C23.65 54.9238 24.0528 55.5149 24.2393 56.1863L24.7678 58.141L19.5177 59.581Z" fill="#145273"/>
<path fill-rule="evenodd" clip-rule="evenodd" d="M21.3819 46.9568C21.6857 46.9552 21.9863 47.0178 22.2641 47.1406C22.5173 47.2485 22.745 47.4085 22.9322 47.6102C23.1122 47.816 23.2519 48.0539 23.3439 48.3114C23.4399 48.5896 23.4848 48.8829 23.4763 49.177C23.4739 49.4731 23.4182 49.7664 23.3118 50.0427C23.2111 50.2968 23.0626 50.5292 22.8743 50.7273C22.6798 50.922 22.4466 51.0735 22.1897 51.1721C21.9064 51.283 21.6032 51.3337 21.2992 51.321L17.8613 51.2548L17.8779 50.2899L21.2909 50.3561C21.4332 50.356 21.5748 50.3366 21.7118 50.2982C21.8647 50.262 22.0079 50.1931 22.1316 50.0964C22.2553 49.9996 22.3566 49.8772 22.4286 49.7376C22.5077 49.5559 22.5499 49.3603 22.5527 49.1622C22.5555 48.964 22.519 48.7673 22.4452 48.5834C22.3775 48.4329 22.2759 48.3002 22.1483 48.1956C22.0296 48.1045 21.8959 48.0348 21.7532 47.9897C21.6165 47.9488 21.4749 47.9266 21.3323 47.9236L17.9211 47.8555L17.9376 46.8906L21.3819 46.9568Z" fill="#145273"/>
<path fill-rule="evenodd" clip-rule="evenodd" d="M18.5273 43.0069L18.9152 41.7865L23.5578 40.5091L23.5661 40.4926L19.7064 39.2722L20.0041 38.3486L25.1816 39.9973L24.8186 41.168L20.0363 42.4546L20.028 42.4711L24.0026 43.7329L23.714 44.6565L18.5273 43.0069Z" fill="#145273"/>
<path fill-rule="evenodd" clip-rule="evenodd" d="M27.4666 32.0822L27.4169 32.3956C27.3991 32.4987 27.3935 32.6036 27.4004 32.7081C27.4028 32.8072 27.4224 32.9051 27.4583 32.9975C27.5005 33.0987 27.5652 33.1889 27.6476 33.2613C27.7286 33.3416 27.828 33.4009 27.9371 33.4341C28.0365 33.474 28.1436 33.4909 28.2504 33.4837C28.3591 33.4696 28.4648 33.4386 28.5638 33.3918C28.6667 33.3488 28.7574 33.2809 28.8276 33.1942C28.9698 33.0556 29.06 32.8723 29.083 32.675C29.108 32.4837 29.1163 32.2906 29.1078 32.0979L27.4666 32.0822ZM26.0311 30.2351C25.9133 30.3544 25.843 30.5125 25.8335 30.6799C25.8234 30.7551 25.8325 30.8316 25.86 30.9023C25.8874 30.973 25.9324 31.0356 25.9907 31.0842C26.043 31.1355 26.1057 31.175 26.1745 31.2C26.2522 31.2245 26.3323 31.2408 26.4134 31.2487C26.4961 31.257 26.5871 31.2653 26.6689 31.2653L26.917 31.2487L26.9823 30.973C26.9988 30.8722 27.0071 30.7701 27.0071 30.6679C27.0101 30.5701 26.9961 30.4724 26.9657 30.3794C26.9337 30.2883 26.8801 30.2063 26.8095 30.1404C26.7587 30.0917 26.6971 30.0557 26.6296 30.0356C26.5622 30.0154 26.4909 30.0117 26.4217 30.0247C26.2716 30.0443 26.1338 30.1178 26.0339 30.2314M29.8605 31.2037L31.6001 31.2285L30.7859 32.0988H29.9441C29.9849 32.4019 29.9656 32.7102 29.8871 33.0058C29.7885 33.2976 29.628 33.5647 29.4166 33.7888C29.2559 33.9612 29.07 34.1084 28.8652 34.2253C28.6775 34.3406 28.4678 34.4154 28.2495 34.4449C28.0346 34.4766 27.8154 34.4625 27.6062 34.4036C27.3783 34.335 27.1713 34.2102 27.0043 34.0406C26.8742 33.9246 26.7677 33.7845 26.6909 33.628C26.6184 33.4768 26.5685 33.3158 26.543 33.1501C26.5182 32.9807 26.5182 32.8086 26.543 32.6391C26.5657 32.4691 26.6098 32.3027 26.6744 32.1438L26.3068 32.119C26.193 32.1115 26.0799 32.0952 25.9686 32.0703C25.8573 32.0443 25.7494 32.0054 25.647 31.9545C25.5349 31.8993 25.4319 31.827 25.3419 31.7404C25.1914 31.6028 25.0731 31.4336 24.9954 31.2451C24.9298 31.0746 24.9043 30.8912 24.921 30.7093C24.9425 30.5231 24.9957 30.3419 25.0781 30.1735C25.2572 29.8199 25.5312 29.523 25.8694 29.3161C26.0213 29.2157 26.1925 29.148 26.3721 29.1176C26.545 29.0856 26.7231 29.0941 26.8922 29.1424C27.0839 29.203 27.2589 29.3075 27.4031 29.4475C27.5219 29.5554 27.6159 29.6877 27.6788 29.8353C27.7414 29.9737 27.7805 30.1216 27.7946 30.2728C27.8112 30.4289 27.8112 30.5863 27.7946 30.7424C27.7743 30.8956 27.7436 31.0473 27.7027 31.1963L28.981 31.2046L28.7118 30.1257L29.4469 29.3345L29.8605 31.2037Z" fill="#145273"/>
<path fill-rule="evenodd" clip-rule="evenodd" d="M36.7428 27.0606L37.5589 26.7141C37.6664 26.6654 37.7812 26.6075 37.9053 26.5414C38.0232 26.4741 38.1291 26.3878 38.2187 26.2859C38.3049 26.1902 38.3645 26.0736 38.3914 25.9477C38.4157 25.7986 38.3929 25.6457 38.3262 25.5103C38.2187 25.2465 38.0505 25.0986 37.8391 25.0655C37.6278 25.0324 37.3365 25.0986 36.9735 25.2493L36.1243 25.6123L36.7428 27.0606ZM35.8027 24.855L36.6105 24.5086C36.9073 24.3763 37.0975 24.2283 37.1959 24.0491C37.2406 23.9622 37.2655 23.8664 37.2689 23.7688C37.2723 23.6711 37.2541 23.5739 37.2155 23.484C37.177 23.3942 37.1191 23.314 37.0459 23.2492C36.9728 23.1844 36.8862 23.1365 36.7924 23.109C36.5939 23.0686 36.3329 23.1173 35.992 23.2661L35.2568 23.5795L35.8027 24.855ZM34.0566 23.1807L35.9865 22.3536C36.1738 22.2721 36.3704 22.2138 36.5719 22.1799C36.7639 22.1489 36.96 22.1545 37.1499 22.1964C37.3515 22.2401 37.5391 22.333 37.696 22.4669C37.8528 22.6008 37.974 22.7715 38.0487 22.9638C38.1684 23.2163 38.1888 23.5047 38.1056 23.7716C38.0189 24.0293 37.862 24.2578 37.6526 24.4314L37.6609 24.4479C37.8178 24.3984 37.9833 24.3815 38.147 24.3983C38.3044 24.4074 38.4585 24.4467 38.601 24.5141C38.7391 24.5831 38.8637 24.6765 38.9686 24.7898C39.0884 24.9093 39.1822 25.0523 39.2442 25.2098C39.3524 25.4279 39.3994 25.6711 39.3805 25.9138C39.3616 26.1565 39.2773 26.3895 39.1367 26.5882C38.9988 26.7807 38.8288 26.9479 38.634 27.0826C38.4263 27.2259 38.2054 27.3489 37.9742 27.4502L36.185 28.2166L34.0566 23.1807Z" fill="#145273"/>
<path fill-rule="evenodd" clip-rule="evenodd" d="M43.1658 22.7232C43.2972 22.6984 43.4415 22.6736 43.5692 22.6405C43.6971 22.6097 43.8196 22.5595 43.9322 22.4916C44.0345 22.4273 44.1172 22.336 44.1712 22.2279C44.2333 22.094 44.2478 21.9429 44.2125 21.7996C44.1997 21.6654 44.1483 21.5377 44.0646 21.4321C43.9861 21.349 43.8863 21.2892 43.776 21.2593C43.6564 21.2259 43.5327 21.2092 43.4084 21.2097C43.2844 21.2179 43.1529 21.2262 43.0408 21.2428L42.2138 21.3659L42.4279 22.8363L43.1658 22.7232ZM41.1367 20.6859L42.9921 20.4102C43.2405 20.3726 43.4919 20.3591 43.7429 20.3697C43.9756 20.3811 44.2044 20.434 44.4184 20.526C44.624 20.6093 44.8015 20.7496 44.9302 20.9303C45.1034 21.1883 45.2046 21.4879 45.2233 21.798C45.2421 22.1082 45.1777 22.4177 45.0368 22.6947C44.8485 23.0031 44.5465 23.2252 44.196 23.3132L45.9687 25.4902L44.8227 25.663L43.2393 23.5494L42.5483 23.6551L42.8938 25.947L41.9381 26.0876L41.1367 20.6859Z" fill="#145273"/>
<path fill-rule="evenodd" clip-rule="evenodd" d="M51.0812 23.7372L50.5041 21.4288L49.416 23.5479L51.0812 23.7372ZM50.2486 20.2451L51.0757 20.337L52.7666 26.0347L51.6749 25.8986L51.3201 24.6038L48.9951 24.3281L48.3684 25.5154L47.2969 25.3923L50.2486 20.2451Z" fill="#145273"/>
<path fill-rule="evenodd" clip-rule="evenodd" d="M56.3509 26.3842C56.6161 26.4966 56.8938 26.5768 57.178 26.6232C57.4332 26.6625 57.6936 26.6513 57.9444 26.5901C58.1888 26.5332 58.4154 26.417 58.6043 26.2519C58.8157 26.0487 58.9814 25.8028 59.0904 25.5305C59.2064 25.2648 59.2707 24.9794 59.2797 24.6896C59.2799 24.4454 59.2206 24.2047 59.1069 23.9885C58.9935 23.777 58.837 23.5916 58.6474 23.4444C58.4325 23.273 58.1935 23.1343 57.938 23.0327L57.1302 22.6863L55.6902 26.103L56.3509 26.3842ZM56.5816 21.5137L58.5436 22.3407C58.8643 22.4781 59.1618 22.6641 59.4258 22.8921C59.6889 23.1208 59.9002 23.4031 60.0454 23.7201C60.1905 24.0371 60.2663 24.3814 60.2676 24.7301C60.269 25.142 60.1819 25.5494 60.0121 25.9247C59.8597 26.3169 59.6166 26.6674 59.3027 26.9476C59.0239 27.1846 58.6977 27.3594 58.346 27.4604C58.0091 27.5581 57.6574 27.5945 57.3076 27.5679C56.9695 27.542 56.638 27.461 56.3261 27.328L54.4707 26.5414L56.5816 21.5137Z" fill="#145273"/>
<path fill-rule="evenodd" clip-rule="evenodd" d="M65.4215 27.8688C65.431 27.6897 65.3878 27.5118 65.2974 27.3569C65.2041 27.1975 65.0809 27.0577 64.9344 26.9452C64.8493 26.8749 64.755 26.8165 64.6541 26.7715C64.5597 26.7313 64.4596 26.7062 64.3573 26.6971C64.2585 26.6885 64.1591 26.7056 64.0688 26.7467C63.9661 26.7907 63.8777 26.8623 63.8133 26.9535C63.7585 27.0138 63.7193 27.0867 63.6992 27.1656C63.679 27.2446 63.6784 27.3273 63.6975 27.4065C63.7469 27.5815 63.8222 27.7482 63.9208 27.9009C64.0191 28.0746 64.1432 28.2557 64.2746 28.4459C64.4108 28.6266 64.5192 28.8267 64.5963 29.0395C64.6734 29.253 64.7016 29.4809 64.679 29.7067C64.6463 29.9781 64.5345 30.2338 64.3573 30.4419C64.1995 30.6518 63.9967 30.8235 63.7637 30.9446C63.5538 31.0508 63.3224 31.1074 63.0873 31.11C62.8503 31.1102 62.6155 31.0653 62.3953 30.9777C62.1574 30.8858 61.9349 30.7581 61.7355 30.599C61.4741 30.3982 61.2506 30.1524 61.0757 29.8731C60.8967 29.5883 60.7971 29.2609 60.7871 28.9247L61.7934 28.8089C61.7751 29.0208 61.8118 29.2338 61.9 29.4274C61.9886 29.6206 62.1215 29.7903 62.2878 29.9227C62.3791 29.9903 62.4789 30.0456 62.5846 30.0872C62.686 30.1339 62.7949 30.1619 62.9063 30.1699C63.0158 30.1778 63.1258 30.1608 63.2279 30.1203C63.3311 30.0738 63.4215 30.0032 63.4916 29.9144C63.5484 29.8481 63.5896 29.77 63.6125 29.6857C63.6354 29.6015 63.6393 29.5133 63.624 29.4274C63.5846 29.2465 63.5147 29.0737 63.4172 28.9164C63.3189 28.7436 63.1948 28.5617 63.0625 28.3724C62.9271 28.1911 62.8188 27.9911 62.7408 27.7787C62.6612 27.5684 62.6298 27.3429 62.6489 27.1189C62.6815 26.8475 62.7934 26.5918 62.9706 26.3837C63.122 26.1794 63.3237 26.0176 63.556 25.9141C63.7669 25.8242 63.995 25.7819 64.2241 25.7901C64.4599 25.7909 64.6929 25.8416 64.9078 25.9389C65.1393 26.0289 65.3561 26.1528 65.5511 26.3065C65.7719 26.4785 65.9639 26.6844 66.1199 26.9167C66.2804 27.1538 66.3848 27.4244 66.425 27.708L65.4215 27.8688Z" fill="#145273"/>
<path fill-rule="evenodd" clip-rule="evenodd" d="M69.1982 31.2817L68.1598 29.9878L68.8435 29.4346L71.5159 32.7741L70.8395 33.3273L69.8001 32.0325L66.2465 34.9098L65.6445 34.1599L69.1982 31.2817Z" fill="#145273"/>
<path fill-rule="evenodd" clip-rule="evenodd" d="M71.8033 38.0518C71.8612 38.1749 71.9274 38.299 71.9936 38.4148C72.0606 38.528 72.1439 38.6308 72.2408 38.7199C72.3316 38.8005 72.4429 38.8546 72.5624 38.8761C72.7077 38.8973 72.8559 38.8681 72.9824 38.7934C73.1068 38.7438 73.2132 38.6576 73.2875 38.5462C73.3456 38.4458 73.3772 38.3322 73.3794 38.2163C73.3772 38.091 73.3548 37.9669 73.3132 37.8487C73.2762 37.7283 73.2323 37.6102 73.1818 37.4949L72.8261 36.7422L71.49 37.369L71.8033 38.0518ZM73.1726 35.5117L73.9638 37.2265C74.0697 37.4542 74.1525 37.6918 74.211 37.936C74.268 38.1623 74.2848 38.3968 74.2607 38.6289C74.2359 38.8497 74.1535 39.0601 74.0217 39.2391C73.8573 39.4461 73.6451 39.6101 73.4033 39.7169C73.082 39.8776 72.7149 39.9215 72.3648 39.841C72.0166 39.7458 71.7197 39.5178 71.5377 39.206L69.9635 41.531L69.4682 40.476L71.0305 38.3569L70.7336 37.7219L68.6485 38.695L68.2441 37.8211L73.1726 35.5117Z" fill="#145273"/>
<path fill-rule="evenodd" clip-rule="evenodd" d="M75.8351 42.3887L76.5032 45.9185L75.6375 46.0829L75.1505 43.5025L73.84 43.7497L74.3013 46.1987L73.4439 46.3632L72.9817 43.9142L71.5306 44.1945L72.0425 46.9073L71.1842 47.0727L70.4922 43.4115L75.8351 42.3887Z" fill="#145273"/>
<path fill-rule="evenodd" clip-rule="evenodd" d="M76.7174 49.5385L76.5198 53.1253L75.6459 53.0756L75.7938 50.4538L74.4586 50.3794L74.318 52.8615L73.444 52.8119L73.5846 50.3297L72.1078 50.247L71.9599 53.0095L71.0859 52.9598L71.2918 49.2334L76.7174 49.5385Z" fill="#145273"/>
<path fill-rule="evenodd" clip-rule="evenodd" d="M74.7052 57.4862L75.183 55.8955L76.0239 56.151L74.7796 60.2487L73.9461 59.9932L74.4249 58.4015L70.0625 57.0746L70.3428 56.151L74.7052 57.4862Z" fill="#145273"/>
</g>
<defs>
<clipPath id="clip0_38849_14548">
<rect width="94" height="94" fill="white"/>
</clipPath>
</defs>
</svg>
