<svg width="94" height="94" viewBox="0 0 94 94" fill="none" xmlns="http://www.w3.org/2000/svg">
<rect x="5" y="5" width="84" height="84" rx="42" fill="url(#paint0_linear_38849_14545)"/>
<path d="M36.3771 62.5878C35.2971 62.5878 34.4637 62.3011 33.8771 61.7278C33.2971 61.1478 33.0071 60.2511 33.0071 59.0378C33.0071 58.2311 33.1471 57.5678 33.4271 57.0478C33.7071 56.5211 34.1137 56.1311 34.6471 55.8778C35.1804 55.6178 35.8204 55.4878 36.5671 55.4878C37.0137 55.4878 37.4337 55.5378 37.8271 55.6378C38.2204 55.7378 38.5671 55.8911 38.8671 56.0978C39.1737 56.3044 39.4104 56.5644 39.5771 56.8778C39.7504 57.1844 39.8371 57.5511 39.8371 57.9778H38.3271C38.3271 57.7711 38.2804 57.5878 38.1871 57.4278C38.1004 57.2678 37.9771 57.1344 37.8171 57.0278C37.6571 56.9211 37.4737 56.8411 37.2671 56.7878C37.0604 56.7344 36.8437 56.7078 36.6171 56.7078C36.2704 56.7078 35.9671 56.7544 35.7071 56.8478C35.4471 56.9344 35.2304 57.0711 35.0571 57.2578C34.8904 57.4378 34.7637 57.6644 34.6771 57.9378C34.5904 58.2111 34.5471 58.5278 34.5471 58.8878V59.1878C34.5471 59.6878 34.6204 60.0978 34.7671 60.4178C34.9137 60.7378 35.1337 60.9778 35.4271 61.1378C35.7204 61.2911 36.0837 61.3678 36.5171 61.3678C36.8771 61.3678 37.1937 61.3144 37.4671 61.2078C37.7471 61.0944 37.9637 60.9344 38.1171 60.7278C38.2771 60.5211 38.3571 60.2678 38.3571 59.9678V59.8978H36.3071V58.7578H39.8371V62.4678H38.8571L38.7271 61.7278C38.5271 61.9211 38.3104 62.0811 38.0771 62.2078C37.8504 62.3344 37.5971 62.4278 37.3171 62.4878C37.0371 62.5544 36.7237 62.5878 36.3771 62.5878ZM41.2746 62.4678V55.6078H44.0746C44.788 55.6078 45.3946 55.7311 45.8946 55.9778C46.3946 56.2244 46.778 56.6011 47.0446 57.1078C47.318 57.6078 47.4546 58.2511 47.4546 59.0378C47.4546 59.8178 47.318 60.4611 47.0446 60.9678C46.778 61.4744 46.3946 61.8511 45.8946 62.0978C45.3946 62.3444 44.788 62.4678 44.0746 62.4678H41.2746ZM42.7646 61.2378H44.0646C44.3646 61.2378 44.6313 61.1944 44.8646 61.1078C45.098 61.0211 45.2913 60.8944 45.4446 60.7278C45.598 60.5544 45.7146 60.3411 45.7946 60.0878C45.8746 59.8278 45.9146 59.5278 45.9146 59.1878V58.8878C45.9146 58.5478 45.8746 58.2511 45.7946 57.9978C45.7146 57.7378 45.598 57.5244 45.4446 57.3578C45.2913 57.1844 45.098 57.0544 44.8646 56.9678C44.6313 56.8744 44.3646 56.8278 44.0646 56.8278H42.7646V61.2378ZM48.6672 62.4678V55.6078H52.2372C52.7306 55.6078 53.1406 55.7011 53.4672 55.8878C53.8006 56.0678 54.0506 56.3244 54.2172 56.6578C54.3906 56.9844 54.4772 57.3744 54.4772 57.8278C54.4772 58.2811 54.3872 58.6778 54.2072 59.0178C54.0339 59.3511 53.7772 59.6111 53.4372 59.7978C53.0972 59.9844 52.6806 60.0778 52.1872 60.0778H50.1572V62.4678H48.6672ZM50.1572 58.8578H51.9872C52.3006 58.8578 52.5406 58.7678 52.7072 58.5878C52.8806 58.4078 52.9672 58.1578 52.9672 57.8378C52.9672 57.6178 52.9306 57.4344 52.8572 57.2878C52.7839 57.1411 52.6739 57.0278 52.5272 56.9478C52.3872 56.8678 52.2072 56.8278 51.9872 56.8278H50.1572V58.8578ZM55.4739 62.4678V55.6078H59.2339C59.7405 55.6078 60.1605 55.6978 60.4939 55.8778C60.8339 56.0578 61.0872 56.3111 61.2539 56.6378C61.4205 56.9578 61.5039 57.3278 61.5039 57.7478C61.5039 58.1944 61.4039 58.5911 61.2039 58.9378C61.0039 59.2778 60.7139 59.5378 60.3339 59.7178L61.7339 62.4678H60.0839L58.8739 59.9678H56.9639V62.4678H55.4739ZM56.9639 58.7878H59.0339C59.3339 58.7878 59.5672 58.6978 59.7339 58.5178C59.9005 58.3311 59.9839 58.0811 59.9839 57.7678C59.9839 57.5678 59.9472 57.3978 59.8739 57.2578C59.8005 57.1111 59.6939 57.0011 59.5539 56.9278C59.4139 56.8544 59.2405 56.8178 59.0339 56.8178H56.9639V58.7878Z" fill="white"/>
<path d="M46 13L47.058 15.5438L49.8042 15.7639L47.7119 17.5562L48.3511 20.2361L46 18.8L43.6489 20.2361L44.2881 17.5562L42.1958 15.7639L44.942 15.5438L46 13Z" fill="#EECA2B"/>
<path d="M46 73L47.058 75.5438L49.8042 75.7639L47.7119 77.5562L48.3511 80.2361L46 78.8L43.6489 80.2361L44.2881 77.5562L42.1958 75.7639L44.942 75.5438L46 73Z" fill="#EECA2B"/>
<path d="M32 18L33.058 20.5438L35.8042 20.7639L33.7119 22.5562L34.3511 25.2361L32 23.8L29.6489 25.2361L30.2881 22.5562L28.1958 20.7639L30.942 20.5438L32 18Z" fill="#EECA2B"/>
<path d="M63 18L64.058 20.5438L66.8042 20.7639L64.7119 22.5562L65.3511 25.2361L63 23.8L60.6489 25.2361L61.2881 22.5562L59.1958 20.7639L61.942 20.5438L63 18Z" fill="#EECA2B"/>
<path d="M32 67L33.058 69.5438L35.8042 69.7639L33.7119 71.5562L34.3511 74.2361L32 72.8L29.6489 74.2361L30.2881 71.5562L28.1958 69.7639L30.942 69.5438L32 67Z" fill="#EECA2B"/>
<path d="M63 67L64.058 69.5438L66.8042 69.7639L64.7119 71.5562L65.3511 74.2361L63 72.8L60.6489 74.2361L61.2881 71.5562L59.1958 69.7639L61.942 69.5438L63 67Z" fill="#EECA2B"/>
<path d="M22 28.8867L23.058 31.4305L25.8042 31.6507L23.7119 33.4429L24.3511 36.1228L22 34.6867L19.6489 36.1228L20.2881 33.4429L18.1958 31.6507L20.942 31.4305L22 28.8867Z" fill="#EECA2B"/>
<path d="M73 28.8867L74.058 31.4305L76.8042 31.6507L74.7119 33.4429L75.3511 36.1228L73 34.6867L70.6489 36.1228L71.2881 33.4429L69.1958 31.6507L71.942 31.4305L73 28.8867Z" fill="#EECA2B"/>
<path d="M22 57L23.058 59.5438L25.8042 59.7639L23.7119 61.5562L24.3511 64.2361L22 62.8L19.6489 64.2361L20.2881 61.5562L18.1958 59.7639L20.942 59.5438L22 57Z" fill="#EECA2B"/>
<path d="M73 57L74.058 59.5438L76.8042 59.7639L74.7119 61.5562L75.3511 64.2361L73 62.8L70.6489 64.2361L71.2881 61.5562L69.1958 59.7639L71.942 59.5438L73 57Z" fill="#EECA2B"/>
<path d="M17 43.2695L18.058 45.8133L20.8042 46.0335L18.7119 47.8258L19.3511 50.5056L17 49.0695L14.6489 50.5056L15.2881 47.8258L13.1958 46.0335L15.942 45.8133L17 43.2695Z" fill="#EECA2B"/>
<path d="M77 43.2695L78.058 45.8133L80.8042 46.0335L78.7119 47.8258L79.3511 50.5056L77 49.0695L74.6489 50.5056L75.2881 47.8258L73.1958 46.0335L75.942 45.8133L77 43.2695Z" fill="#EECA2B"/>
<rect x="8.9131" y="8.91407" width="76.1725" height="76.1725" rx="38.0862" stroke="white" stroke-width="0.357447"/>
<path d="M52.0147 31.996C50.0029 31.5666 48.4539 30.9089 47.5836 30.4487C47.222 30.2574 46.778 30.2574 46.4163 30.4487C45.546 30.9089 43.9971 31.5666 41.9852 31.996C40.5165 32.3095 39.4836 32.498 38.8103 32.6048C38.2808 32.6888 37.8594 33.1493 37.8594 33.6854V42.8911C37.8594 46.4824 43.3893 49.4231 46.5473 51.0382C46.8327 51.1842 47.1672 51.1842 47.4526 51.0382C50.6106 49.4231 56.1406 46.4824 56.1406 42.8911V33.6854C56.1406 33.1493 55.7191 32.6888 55.1896 32.6048C54.5163 32.498 53.4834 32.3095 52.0147 31.996Z" fill="white" stroke="black" stroke-opacity="0.06"/>
<path opacity="0.05" d="M52.0147 31.996C49.4151 31.4411 47.5884 30.5051 47 30.1064V51.2693C50.0469 49.714 56.1406 46.661 56.1406 42.8911V32.7262C55.8485 32.714 54.6144 32.5509 52.0147 31.996Z" fill="black"/>
<path d="M43 41.9C43 41.0599 43 40.6399 43.1635 40.319C43.3073 40.0368 43.5368 39.8073 43.819 39.6635C44.1399 39.5 44.5599 39.5 45.4 39.5H48.6C49.4401 39.5 49.8601 39.5 50.181 39.6635C50.4632 39.8073 50.6927 40.0368 50.8365 40.319C51 40.6399 51 41.0599 51 41.9V42.1C51 42.9401 51 43.3601 50.8365 43.681C50.6927 43.9632 50.4632 44.1927 50.181 44.3365C49.8601 44.5 49.4401 44.5 48.6 44.5H45.4C44.5599 44.5 44.1399 44.5 43.819 44.3365C43.5368 44.1927 43.3073 43.9632 43.1635 43.681C43 43.3601 43 42.9401 43 42.1V41.9Z" fill="#201B7C"/>
<path fill-rule="evenodd" clip-rule="evenodd" d="M44 38C44 36.3431 45.3431 35 47 35C48.6569 35 50 36.3431 50 38V39.0752C50.1413 39.1061 50.2769 39.1512 50.408 39.218C50.7843 39.4097 51.0903 39.7157 51.282 40.092C51.4057 40.3347 51.4549 40.593 51.4779 40.8741C51.5 41.1447 51.5 41.4769 51.5 41.8793V42.1207C51.5 42.5231 51.5 42.8553 51.4779 43.1259C51.4549 43.407 51.4057 43.6653 51.282 43.908C51.0903 44.2843 50.7843 44.5903 50.408 44.782C50.1653 44.9057 49.907 44.9549 49.6259 44.9779C49.3553 45 49.0231 45 48.6207 45H45.3793C44.9769 45 44.6447 45 44.3741 44.9779C44.093 44.9549 43.8347 44.9057 43.592 44.782C43.2157 44.5903 42.9097 44.2843 42.718 43.908C42.5943 43.6653 42.5451 43.407 42.5221 43.1259C42.5 42.8553 42.5 42.5231 42.5 42.1206V41.8794C42.5 41.4769 42.5 41.1447 42.5221 40.8741C42.5451 40.593 42.5943 40.3347 42.718 40.092C42.9097 39.7157 43.2157 39.4097 43.592 39.218C43.7231 39.1512 43.8587 39.1061 44 39.0752V38ZM45 39.0008C45.1189 39 45.2452 39 45.3794 39H48.6206C48.7548 39 48.8811 39 49 39.0008V38C49 36.8954 48.1046 36 47 36C45.8954 36 45 36.8954 45 38V39.0008ZM44.4555 40.0188C44.2363 40.0367 44.1242 40.0691 44.046 40.109C43.8578 40.2049 43.7049 40.3578 43.609 40.546C43.5691 40.6242 43.5367 40.7363 43.5188 40.9555C43.5004 41.1806 43.5 41.4717 43.5 41.9V42.1C43.5 42.5283 43.5004 42.8194 43.5188 43.0445C43.5367 43.2637 43.5691 43.3758 43.609 43.454C43.7049 43.6422 43.8578 43.7951 44.046 43.891C44.1242 43.9309 44.2363 43.9633 44.4555 43.9812C44.6806 43.9996 44.9717 44 45.4 44H48.6C49.0283 44 49.3194 43.9996 49.5445 43.9812C49.7637 43.9633 49.8758 43.9309 49.954 43.891C50.1422 43.7951 50.2951 43.6422 50.391 43.454C50.4309 43.3758 50.4633 43.2637 50.4812 43.0445C50.4996 42.8194 50.5 42.5283 50.5 42.1V41.9C50.5 41.4717 50.4996 41.1806 50.4812 40.9555C50.4633 40.7363 50.4309 40.6242 50.391 40.546C50.2951 40.3578 50.1422 40.2049 49.954 40.109C49.8758 40.0691 49.7637 40.0367 49.5445 40.0188C49.3194 40.0004 49.0283 40 48.6 40H45.4C44.9717 40 44.6806 40.0004 44.4555 40.0188Z" fill="#201B7C"/>
<defs>
<linearGradient id="paint0_linear_38849_14545" x1="7.45" y1="5" x2="72.9" y2="89" gradientUnits="userSpaceOnUse">
<stop stop-color="#302D5B"/>
<stop offset="0.433905" stop-color="#1F1987"/>
<stop offset="1" stop-color="#222040"/>
</linearGradient>
</defs>
</svg>
