<svg width="94" height="94" viewBox="0 0 94 94" fill="none" xmlns="http://www.w3.org/2000/svg">
<rect x="5" y="5" width="84" height="84" rx="42" fill="url(#paint0_linear_38849_14544)"/>
<rect x="8.9131" y="8.91407" width="76.1725" height="76.1725" rx="38.0862" stroke="white" stroke-width="0.357447"/>
<path d="M25.9798 65.6766L24.028 59.4308H23.989L22.0372 65.6766H21.2565L19.2656 58.2598H20.0073L21.6859 64.6617H21.7639L23.7157 58.2598H24.4574L26.4483 64.6617H26.4873L28.0487 58.2598H28.7514L26.7605 65.6766H25.9798Z" fill="white"/>
<path d="M31.0938 65.6766V58.2598H31.7964V65.6766H31.0938Z" fill="white"/>
<path d="M34.7246 58.2598H37.0277C38.0427 58.2598 38.7453 58.3378 39.1747 58.533C39.6041 58.6892 39.8383 59.0405 39.9554 59.5089C40.0725 59.9774 40.1116 60.7971 40.1116 62.0072C40.1116 63.2173 40.0725 63.9981 39.9554 64.5055C39.8383 64.974 39.5651 65.2862 39.1747 65.4814C38.7453 65.6376 38.0427 65.7547 37.0277 65.7547H34.7246V58.2598ZM36.8326 65.013C37.7304 65.013 38.355 64.974 38.6672 64.8569C38.9795 64.7788 39.1747 64.5055 39.2918 64.1542C39.3699 63.7638 39.448 63.0222 39.448 61.9682C39.448 60.9142 39.4089 60.1725 39.2918 59.7822C39.2138 59.3918 38.9795 59.1576 38.6672 59.0405C38.355 58.9624 37.7304 58.8843 36.8326 58.8843H35.3882V65.013H36.8326Z" fill="white"/>
<path d="M51.9786 65.6766L49.168 58.2598H49.9097L52.3689 64.7788H52.408L54.8672 58.2598H55.5699L52.7593 65.6766H51.9786Z" fill="white"/>
<path d="M57.7539 65.6766V58.2598H58.4565V65.6766H57.7539Z" fill="white"/>
<path d="M66.4205 65.6766L62.1655 59.548H62.1265V65.6766H61.4629V58.2598H62.1655L66.3814 64.3103H66.4205V58.2598H67.0841V65.6766H66.4205Z" fill="white"/>
<path d="M43.5093 65.013V62.2414H47.0225V61.5778H43.5093V58.8843H47.569L47.3739 58.2598H42.8066V65.6766H47.3739L47.569 65.013H43.5093Z" fill="white"/>
<path d="M70.7144 65.013V62.2414H74.2276V61.5778H70.7144V58.8843H74.7351L74.5789 58.2598H70.0117V65.6766H74.5789L74.7351 65.013H70.7144Z" fill="white"/>
<path d="M57.07 40.974H64.9216L68.4035 28.002H59.7327L56.5238 39.9499C56.319 40.6327 55.7728 40.974 55.2266 40.974H48.4675C47.853 40.974 47.5117 40.6327 47.3069 40.0865L45.2586 32.3032L37.2023 40.3596C36.9975 40.5644 36.4513 40.5644 36.3147 40.1547L34.2665 32.3032H25.5957L27.917 40.974H35.7003C36.3147 40.974 36.6561 41.3154 36.8609 41.8616L38.9774 49.6448L47.0338 41.5885C47.3069 41.3154 47.7165 41.4519 47.853 41.725L49.9695 49.6448H58.6403L56.5238 41.8616C56.3873 41.3837 56.5921 40.974 57.07 40.974Z" fill="white"/>
<defs>
<linearGradient id="paint0_linear_38849_14544" x1="7.45" y1="5" x2="72.9" y2="89" gradientUnits="userSpaceOnUse">
<stop stop-color="#302D5B"/>
<stop offset="0.433905" stop-color="#1F1987"/>
<stop offset="1" stop-color="#222040"/>
</linearGradient>
</defs>
</svg>
