<svg width="190" height="48" viewBox="0 0 190 48" fill="none" xmlns="http://www.w3.org/2000/svg">
<g clip-path="url(#clip0_6773_18203)">
<g filter="url(#filter0_i_6773_18203)">
<path d="M12.0015 12.6142C13.4012 10.5107 15.7123 9.1921 18.2353 9.05745L179.956 0.426794C184.371 0.191176 188.14 3.58153 188.372 7.99674L189.525 30.0022C189.756 34.4114 186.371 38.1742 181.962 38.4095L20.2045 47.0421C17.6935 47.1761 15.2657 46.1218 13.6495 44.1955L4.85986 33.7194C2.57791 30.9996 2.36144 27.1012 4.32825 24.1455L12.0015 12.6142Z" fill="url(#paint0_linear_6773_18203)"/>
</g>
<path d="M179.983 0.926234C184.122 0.705342 187.655 3.88382 187.872 8.02308L189.025 30.028C189.242 34.1616 186.069 37.6892 181.936 37.9099L20.1775 46.5427C17.8236 46.6683 15.5475 45.6802 14.0323 43.8744L5.24252 33.3982C3.10327 30.8484 2.9009 27.1936 4.74475 24.4227L12.4174 12.891C13.7295 10.9191 15.8964 9.68351 18.2616 9.55716L179.983 0.926234Z" stroke="white" stroke-opacity="0.1"/>
<path d="M30.5182 32.6343L29.8749 20.3591L41.5605 19.7467L41.6794 22.0159L32.7097 22.486L32.8652 25.4521L40.9772 25.027L41.0961 27.2962L32.9841 27.7213L33.2341 32.492L30.5182 32.6343ZM44.617 31.8955L43.9737 19.6203L53.6938 19.1109C54.5634 19.0653 55.2815 19.2068 55.8482 19.5355C56.4261 19.8516 56.8674 20.2943 57.172 20.8636C57.4759 21.421 57.6463 22.0511 57.6831 22.7539C57.7212 23.4805 57.5665 24.1755 57.219 24.8387C56.8829 25.4894 56.331 26.014 55.5636 26.4125L58.4289 31.1716L55.3735 31.3317L52.8927 27.0721L47.1035 27.3755L47.3329 31.7531L44.617 31.8955ZM46.9855 25.1242L53.2393 24.7964C53.7991 24.7671 54.2195 24.5838 54.5005 24.2466C54.7927 23.8968 54.9254 23.4658 54.8986 22.9536C54.8804 22.6082 54.7996 22.3197 54.6561 22.0884C54.512 21.8451 54.3058 21.6708 54.0375 21.5654C53.7685 21.4481 53.4435 21.3994 53.0623 21.4194L46.8086 21.7471L46.9855 25.1242ZM61.054 31.034L60.4107 18.7588L72.8289 18.108L72.9478 20.3772L63.2456 20.8857L63.3832 23.5123L72.0134 23.06L72.1323 25.3292L63.5021 25.7815L63.651 28.6225L73.4962 28.1065L73.6151 30.3757L61.054 31.034ZM76.5313 30.2229L75.888 17.9477L88.3061 17.2969L88.4251 19.5661L78.7228 20.0746L78.8605 22.7012L87.4907 22.2489L87.6096 24.5181L78.9794 24.9704L79.1283 27.8113L88.9735 27.2954L89.0924 29.5646L76.5313 30.2229Z" fill="#3193FE"/>
<path d="M97.7319 29.1118L97.0886 16.8366L106.094 16.3647C106.892 16.3228 107.592 16.4594 108.194 16.7742C108.807 17.0885 109.291 17.5409 109.645 18.1315C110.009 18.7097 110.212 19.3918 110.253 20.178C110.294 20.9523 110.164 21.6578 109.863 22.2947C109.561 22.9197 109.115 23.4209 108.526 23.7981C107.949 24.1748 107.255 24.3844 106.445 24.4268L100.227 24.7527L100.448 28.9695L97.7319 29.1118ZM100.108 22.4835L105.575 22.1969C106.207 22.1638 106.687 21.9834 107.016 21.6556C107.357 21.3271 107.514 20.8889 107.485 20.341C107.466 19.9717 107.372 19.6601 107.203 19.4062C107.034 19.1522 106.797 18.9616 106.492 18.8343C106.187 18.7069 105.82 18.6545 105.391 18.677L99.9234 18.9635L100.108 22.4835ZM113.035 28.3098L112.391 16.0346L122.111 15.5252C122.981 15.4797 123.699 15.6212 124.266 15.9498C124.844 16.2659 125.285 16.7087 125.59 17.278C125.894 17.8354 126.064 18.4655 126.101 19.1683C126.139 19.8949 125.984 20.5898 125.637 21.2531C125.301 21.9037 124.749 22.4284 123.981 22.8269L126.847 27.586L123.791 27.7461L121.31 23.4865L115.521 23.7899L115.751 28.1675L113.035 28.3098ZM115.403 21.5385L121.657 21.2108C122.217 21.1815 122.637 20.9982 122.918 20.6609C123.21 20.3112 123.343 19.8802 123.316 19.368C123.298 19.0225 123.217 18.7341 123.074 18.5028C122.93 18.2595 122.723 18.0851 122.455 17.9798C122.186 17.8625 121.861 17.8138 121.48 17.8338L115.226 18.1615L115.403 21.5385ZM136.844 27.277C135.213 27.3625 133.794 27.192 132.589 26.7654C131.384 26.3269 130.435 25.654 129.742 24.7467C129.061 23.8268 128.685 22.6879 128.614 21.33C128.542 19.972 128.798 18.806 129.38 17.8319C129.974 16.8571 130.848 16.0946 132.001 15.5444C133.154 14.9823 134.547 14.6585 136.179 14.573C137.811 14.4875 139.229 14.664 140.435 15.1025C141.64 15.529 142.582 16.1963 143.263 17.1043C143.956 18.0116 144.338 19.1442 144.409 20.5022C144.48 21.8601 144.219 23.0324 143.626 24.0191C143.043 24.9932 142.176 25.7613 141.023 26.3234C139.869 26.8736 138.476 27.1915 136.844 27.277ZM136.726 25.0078C137.464 24.9691 138.139 24.8501 138.749 24.6509C139.36 24.4517 139.883 24.1794 140.319 23.834C140.767 23.4881 141.103 23.0643 141.327 22.5629C141.564 22.0607 141.665 21.488 141.632 20.8448L141.61 20.4338C141.576 19.7906 141.416 19.2376 141.129 18.7749C140.853 18.2996 140.475 17.9133 139.993 17.616C139.524 17.3181 138.975 17.108 138.348 16.9856C137.72 16.8513 137.036 16.8035 136.298 16.8422C135.559 16.8809 134.884 16.9999 134.274 17.1991C133.662 17.3864 133.133 17.6531 132.685 17.999C132.249 18.3444 131.919 18.7678 131.695 19.2693C131.47 19.7589 131.374 20.3253 131.408 20.9685L131.429 21.3795C131.463 22.0227 131.618 22.582 131.893 23.0573C132.169 23.5326 132.542 23.9191 133.011 24.217C133.493 24.5143 134.047 24.7301 134.676 24.8644C135.304 24.9987 135.987 25.0465 136.726 25.0078ZM145.325 26.6176L150.745 19.9551L145.2 14.3152L148.72 14.1307L152.345 18.0079L152.56 17.9966L155.849 13.7571L159.137 13.5848L154.223 19.6474L160.334 25.831L156.814 26.0154L152.604 21.5777L152.39 21.5889L148.613 26.4453L145.325 26.6176ZM166.781 25.4931L166.52 20.5259L160.134 13.5326L163.404 13.3612L167.746 18.2758L167.925 18.2664L171.784 12.922L174.875 12.76L169.236 20.3835L169.497 25.3508L166.781 25.4931Z" fill="white"/>
<circle cx="15.9089" cy="28.6365" r="3.18183" fill="#30374E"/>
</g>
<defs>
<filter id="filter0_i_6773_18203" x="-1.01172" y="-3.58478" width="190.548" height="50.6383" filterUnits="userSpaceOnUse" color-interpolation-filters="sRGB">
<feFlood flood-opacity="0" result="BackgroundImageFix"/>
<feBlend mode="normal" in="SourceGraphic" in2="BackgroundImageFix" result="shape"/>
<feColorMatrix in="SourceAlpha" type="matrix" values="0 0 0 0 0 0 0 0 0 0 0 0 0 0 0 0 0 0 127 0" result="hardAlpha"/>
<feOffset dx="-4" dy="-4"/>
<feGaussianBlur stdDeviation="2"/>
<feComposite in2="hardAlpha" operator="arithmetic" k2="-1" k3="1"/>
<feColorMatrix type="matrix" values="0 0 0 0 1 0 0 0 0 1 0 0 0 0 1 0 0 0 0.02 0"/>
<feBlend mode="normal" in2="shape" result="effect1_innerShadow_6773_18203"/>
</filter>
<linearGradient id="paint0_linear_6773_18203" x1="5.83588e-09" y1="10.341" x2="190.114" y2="38.182" gradientUnits="userSpaceOnUse">
<stop stop-color="#4A5A6B"/>
<stop offset="1" stop-color="#3E454C"/>
</linearGradient>
<clipPath id="clip0_6773_18203">
<rect width="190" height="48" fill="white"/>
</clipPath>
</defs>
</svg>
