<svg width="267" height="92" viewBox="0 0 267 92" fill="none" xmlns="http://www.w3.org/2000/svg">
<g clip-path="url(#clip0_6773_22705)">
<g filter="url(#filter0_d_6773_22705)">
<g clip-path="url(#clip1_6773_22705)">
<rect x="66.1953" width="202.918" height="111.027" rx="4.76624" transform="rotate(5.62694 66.1953 0)" fill="url(#paint0_linear_6773_22705)"/>
<g opacity="0.05">
<path d="M233.938 31.6344L228.06 32.3904C231.293 31.9626 233.641 31.4327 233.669 31.4265C233.666 31.343 233.079 14.2414 227.304 9.78279C221.516 5.31387 213.199 6.38323 208.73 12.1717C204.261 17.9603 205.331 26.2762 211.119 30.7457C214.737 33.5389 222.641 33.1076 228.06 32.3904L204.847 35.376C201.634 35.7893 198.694 33.5194 198.281 30.3061L195.287 7.03319C194.874 3.81987 197.144 0.879933 200.357 0.46665L223.63 -2.52661C226.843 -2.9399 229.783 -0.670021 230.197 2.54329L233.938 31.6344Z" fill="white"/>
<path d="M215.076 17.0708C218.327 12.8601 224.376 12.0818 228.587 15.333C232.782 18.5729 233.214 30.9848 233.217 31.0774C233.127 31.0977 221.01 33.8203 216.813 30.5822C212.603 27.3309 211.825 21.2818 215.076 17.0708Z" fill="white"/>
<path d="M239.756 30.8826L245.634 30.1266C242.399 30.5307 239.993 30.6123 239.964 30.6133C239.946 30.5319 236.187 13.8382 240.645 8.06343C245.114 2.27515 253.43 1.20537 259.219 5.67452C265.008 10.1438 266.077 18.4598 261.608 24.2485C258.815 27.8663 251.059 29.4491 245.634 30.1266L268.847 27.141C272.061 26.7277 274.331 23.7878 273.917 20.5745L270.924 -2.69841C270.511 -5.91173 267.571 -8.1816 264.358 -7.76832L241.085 -4.77505C237.871 -4.36177 235.601 -1.42183 236.015 1.79148L239.756 30.8826Z" fill="white"/>
<path d="M254.32 12.0198C250.109 8.76895 244.06 9.54662 240.808 13.7576C237.57 17.9535 240.293 30.0708 240.313 30.1612C240.406 30.158 252.817 29.7258 256.058 25.5313C259.309 21.3203 258.531 15.2712 254.32 12.0198Z" fill="white"/>
<path d="M240.507 36.7007L246.385 35.9447C243.153 36.3725 240.804 36.9024 240.776 36.9086C240.779 36.992 241.367 54.0937 247.141 58.5523C252.93 63.0212 261.246 61.9519 265.715 56.1634C270.184 50.3748 269.114 42.0589 263.326 37.5894C259.708 34.7962 251.804 35.2275 246.385 35.9447L269.598 32.9591C272.811 32.5458 275.751 34.8157 276.165 38.029L279.158 61.3019C279.571 64.5152 277.301 67.4551 274.088 67.8684L250.815 70.8617C247.602 71.275 244.662 69.0051 244.249 65.7918L240.507 36.7007Z" fill="white"/>
<path d="M259.37 51.2643C256.118 55.475 250.069 56.2533 245.858 53.0021C241.663 49.7622 241.232 37.3503 241.228 37.2577C241.319 37.2374 253.436 34.5148 257.632 37.7528C261.843 41.0042 262.621 47.0533 259.37 51.2643Z" fill="white"/>
<path d="M234.689 37.4523L228.811 38.2083C232.047 37.8043 234.453 37.7226 234.481 37.7217C234.499 37.8031 238.259 54.4968 233.8 60.2715C229.331 66.0598 221.015 67.1296 215.226 62.6604C209.438 58.1911 208.368 49.8751 212.837 44.0864C215.631 40.4686 223.387 38.8858 228.811 38.2083L205.598 41.1939C202.385 41.6072 200.115 44.5471 200.528 47.7605L203.521 71.0333C203.934 74.2467 206.874 76.5165 210.088 76.1032L233.361 73.11C236.574 72.6967 238.844 69.7568 238.431 66.5434L234.689 37.4523Z" fill="white"/>
<path d="M220.125 56.3151C224.337 59.566 230.386 58.7883 233.637 54.5773C236.875 50.3814 234.152 38.2641 234.132 38.1738C234.04 38.1769 221.628 38.6091 218.388 42.8037C215.137 47.0147 215.915 53.0638 220.125 56.3151Z" fill="white"/>
</g>
<path d="M74.8354 18.4686L75.4775 11.9514L80.7426 12.4701C81.2106 12.5162 81.5839 12.6488 81.8624 12.8678C82.1473 13.0875 82.3504 13.3597 82.4716 13.6845C82.5929 14.0094 82.6348 14.3616 82.5974 14.741C82.5588 15.1331 82.4214 15.49 82.1854 15.8115C81.9563 16.1274 81.6298 16.3634 81.2057 16.5196L82.3108 19.2052L80.4704 19.0238L79.545 16.6529L76.6991 16.3725L76.4766 18.6303L74.8354 18.4686ZM76.8262 15.0824L79.9662 15.3917C80.2318 15.4179 80.4483 15.3594 80.6157 15.2163C80.79 15.0674 80.8896 14.8665 80.9145 14.6135C80.932 14.4364 80.9119 14.2844 80.8541 14.1574C80.7964 14.0304 80.7074 13.929 80.5871 13.8533C80.4669 13.7776 80.3151 13.7307 80.1317 13.7126L76.9916 13.4033L76.8262 15.0824ZM86.1628 19.6996C85.5114 19.6354 84.9582 19.482 84.5032 19.2392C84.0545 18.997 83.7195 18.6703 83.4982 18.2589C83.2839 17.8419 83.205 17.3456 83.2617 16.7701C83.3191 16.1882 83.4932 15.7169 83.7842 15.356C84.0815 14.9958 84.4735 14.7439 84.9602 14.6002C85.4539 14.4509 86.0264 14.4084 86.6778 14.4725C87.3292 14.5367 87.8793 14.6899 88.3279 14.9321C88.7836 15.1685 89.1189 15.4921 89.3338 15.9028C89.5551 16.3141 89.6371 16.8107 89.5798 17.3926C89.5231 17.9681 89.3458 18.4391 89.0478 18.8057C88.7568 19.1666 88.3645 19.4217 87.8709 19.571C87.3836 19.7209 86.8142 19.7638 86.1628 19.6996ZM86.2693 18.6182C86.6109 18.6518 86.9074 18.6235 87.1589 18.5334C87.4174 18.4375 87.6205 18.2883 87.7682 18.0857C87.9158 17.8832 88.0043 17.6333 88.0336 17.336L88.0523 17.1463C88.0822 16.8427 88.0442 16.5804 87.9383 16.3592C87.833 16.1317 87.6626 15.9489 87.4272 15.8107C87.1981 15.6732 86.9128 15.5876 86.5712 15.554C86.2234 15.5197 85.9237 15.5477 85.6722 15.6378C85.4206 15.728 85.221 15.8744 85.0733 16.0769C84.9263 16.2732 84.8378 16.5231 84.8079 16.8266L84.7892 17.0164C84.7599 17.3136 84.7979 17.576 84.9032 17.8035C85.0085 18.031 85.1754 18.2166 85.4039 18.3605C85.633 18.498 85.9215 18.5839 86.2693 18.6182ZM89.4269 19.9063L92.084 17.5339L90.0807 14.9227L91.978 15.1097L93.2144 16.7545L93.2714 16.7601L94.7955 15.3873L96.5695 15.5621L94.0933 17.7511L96.2097 20.5746L94.3314 20.3895L92.9723 18.5314L92.9059 18.5249L91.2103 20.082L89.4269 19.9063ZM97.3198 22.6092C97.1301 22.5905 96.9577 22.5576 96.8027 22.5104C96.6541 22.4638 96.5158 22.4087 96.388 22.345L96.4787 21.4248L97.1902 21.4949C97.4684 21.5223 97.6929 21.5125 97.8636 21.4655C98.0342 21.4184 98.1732 21.3363 98.2805 21.2192C98.3936 21.109 98.4996 20.9726 98.5987 20.8099L96.6532 15.5703L98.2754 15.7301L99.0757 18.2037C99.1157 18.3162 99.1624 18.458 99.2158 18.6293C99.2698 18.7943 99.3235 18.9624 99.3768 19.1337C99.4302 19.305 99.476 19.4564 99.5141 19.5878L99.59 19.5953C99.5982 19.577 99.6231 19.5188 99.6647 19.4207C99.7126 19.3232 99.7718 19.2077 99.8425 19.0742C99.9131 18.9407 99.984 18.804 100.055 18.6642C100.127 18.5243 100.19 18.3996 100.245 18.2902L101.415 16.0395L102.971 16.1928L100.456 20.5236C100.256 20.8679 100.06 21.1774 99.8668 21.4521C99.6737 21.7268 99.4594 21.958 99.2238 22.1455C98.9945 22.3336 98.726 22.4668 98.4181 22.545C98.1097 22.6296 97.7436 22.651 97.3198 22.6092ZM110.022 22.0503C108.706 21.9207 107.744 21.5449 107.135 20.923C106.532 20.3016 106.286 19.4249 106.398 18.2928C106.47 17.5529 106.699 16.9496 107.084 16.483C107.475 16.0107 108.002 15.6795 108.666 15.4895C109.336 15.3001 110.12 15.2496 111.018 15.3381C111.587 15.3942 112.104 15.4962 112.569 15.6441C113.04 15.7863 113.443 15.9761 113.777 16.2134C114.111 16.4506 114.358 16.7304 114.518 17.0527C114.678 17.3749 114.737 17.7416 114.697 18.1527L113.103 17.9957C113.124 17.787 113.078 17.6036 112.966 17.4457C112.86 17.2884 112.704 17.1549 112.498 17.0452C112.298 16.9361 112.063 16.8491 111.795 16.7844C111.534 16.714 111.255 16.6641 110.957 16.6348C110.565 16.5962 110.201 16.6018 109.864 16.6516C109.528 16.6951 109.231 16.7872 108.975 16.928C108.725 17.063 108.522 17.2473 108.365 17.4809C108.214 17.7151 108.122 17.9998 108.089 18.335L108.066 18.5626C108.02 19.0306 108.084 19.4201 108.258 19.7309C108.432 20.0355 108.699 20.2725 109.059 20.4421C109.419 20.6117 109.859 20.722 110.377 20.7731C110.915 20.8261 111.365 20.8226 111.729 20.7626C112.099 20.7032 112.384 20.5909 112.586 20.4256C112.787 20.2602 112.901 20.0511 112.926 19.7981L112.932 19.7317L110.437 19.4859L110.553 18.3095L114.651 18.7133L114.292 22.3562L113.306 22.259L113.226 21.4177C112.964 21.6154 112.664 21.7679 112.328 21.8753C111.999 21.9769 111.638 22.0404 111.246 22.0656C110.86 22.0978 110.452 22.0927 110.022 22.0503ZM116.319 16.732L116.427 15.6315L117.907 15.7774L117.799 16.8778L116.319 16.732ZM115.75 22.4998L116.243 17.5004L117.723 17.6462L117.23 22.6456L115.75 22.4998ZM119.042 22.8241L119.428 18.9061L118.394 18.8043L118.5 17.7228L119.534 17.8247L119.571 17.4547C119.606 17.1005 119.701 16.813 119.857 16.5921C120.02 16.3655 120.237 16.2048 120.508 16.1102C120.779 16.0156 121.101 15.9867 121.474 16.0235C121.601 16.0359 121.736 16.0556 121.88 16.0826C122.031 16.1102 122.171 16.1432 122.301 16.1816C122.439 16.2143 122.562 16.2552 122.673 16.3044L122.582 17.2246L121.937 17.161C121.633 17.1311 121.414 17.151 121.28 17.2208C121.152 17.2848 121.078 17.4149 121.059 17.6109L121.024 17.9714L122.494 18.1163L122.387 19.1978L120.917 19.0529L120.531 22.9708L119.042 22.8241ZM125.028 23.5288C124.642 23.4908 124.327 23.4119 124.084 23.2921C123.847 23.1666 123.68 22.981 123.583 22.7351C123.487 22.483 123.459 22.1513 123.499 21.7402L123.736 19.3307L122.769 19.2353L122.875 18.1539L123.89 18.2539L124.33 16.8029L125.469 16.9151L125.323 18.395L126.698 18.5305L126.592 19.612L125.216 19.4765L124.998 21.6963C124.974 21.9367 125 22.1244 125.076 22.2596C125.159 22.3891 125.353 22.4689 125.656 22.4988L126.301 22.5623L126.211 23.4825C126.119 23.5054 125.999 23.5223 125.851 23.5333C125.709 23.5449 125.562 23.5495 125.409 23.5472C125.262 23.5456 125.135 23.5394 125.028 23.5288ZM129.779 23.9969C129.406 23.9602 129.052 23.8934 128.716 23.7965C128.381 23.7059 128.083 23.5871 127.822 23.4402C127.569 23.2938 127.372 23.1149 127.234 22.9032C127.095 22.6916 127.038 22.453 127.065 22.1873C127.068 22.1557 127.071 22.1273 127.073 22.102C127.082 22.0773 127.091 22.0526 127.099 22.0279L128.617 22.1775C128.616 22.1901 128.611 22.2056 128.603 22.224C128.601 22.243 128.6 22.2588 128.598 22.2714C128.584 22.4169 128.636 22.5401 128.754 22.6411C128.871 22.7421 129.029 22.8247 129.227 22.8889C129.432 22.9474 129.652 22.9882 129.886 23.0113C130.107 23.0331 130.323 23.0416 130.535 23.0369C130.752 23.0328 130.934 23.0028 131.08 22.9469C131.226 22.8847 131.307 22.7778 131.322 22.626C131.337 22.4742 131.266 22.3554 131.108 22.2696C130.951 22.1839 130.725 22.1105 130.431 22.0496C130.144 21.983 129.807 21.9019 129.42 21.8064C129.127 21.7328 128.855 21.6485 128.602 21.5534C128.356 21.4589 128.14 21.3482 127.955 21.2214C127.776 21.0889 127.642 20.9288 127.552 20.7411C127.462 20.5534 127.43 20.3299 127.455 20.0706C127.483 19.7924 127.572 19.5617 127.724 19.3788C127.877 19.1895 128.08 19.0434 128.333 18.9406C128.592 18.8384 128.895 18.7757 129.242 18.7524C129.589 18.7291 129.968 18.7378 130.379 18.7783C130.74 18.8138 131.075 18.8756 131.386 18.9637C131.703 19.0524 131.976 19.1686 132.204 19.3125C132.433 19.4563 132.608 19.6236 132.73 19.8144C132.851 20.0052 132.901 20.2176 132.877 20.4516C132.875 20.4769 132.872 20.5022 132.87 20.5275C132.867 20.5528 132.862 20.5746 132.854 20.593L131.336 20.4434L131.341 20.396C131.353 20.2695 131.309 20.163 131.209 20.0765C131.109 19.99 130.976 19.9226 130.808 19.8741C130.641 19.8194 130.459 19.7823 130.263 19.763C130.194 19.7561 130.089 19.749 129.949 19.7416C129.81 19.7343 129.663 19.7357 129.508 19.7461C129.36 19.757 129.233 19.786 129.126 19.833C129.019 19.8799 128.961 19.9571 128.95 20.0646C128.937 20.1975 129.006 20.3033 129.158 20.3821C129.31 20.4609 129.511 20.5286 129.761 20.5851C130.017 20.6423 130.292 20.7045 130.585 20.7718C130.898 20.8409 131.194 20.9179 131.473 21.0028C131.758 21.0884 132.006 21.199 132.216 21.3347C132.433 21.4646 132.595 21.6307 132.703 21.8329C132.811 22.0351 132.85 22.288 132.82 22.5915C132.789 22.9078 132.696 23.17 132.541 23.3783C132.387 23.5802 132.177 23.7351 131.911 23.843C131.652 23.9452 131.339 24.007 130.973 24.0284C130.614 24.0504 130.215 24.0399 129.779 23.9969Z" fill="white"/>
<path d="M73.4348 25.5359L74.1258 25.604L75.2786 28.0661L75.337 28.0718L76.9481 25.882L77.6391 25.9501L75.55 28.7021L75.3477 30.7556L74.7443 30.6961L74.9467 28.6426L73.4348 25.5359ZM78.8327 31.1775C78.4953 31.1443 78.2072 31.0348 77.9683 30.8492C77.7311 30.6636 77.5554 30.4195 77.4411 30.1167C77.3284 29.8141 77.2911 29.4698 77.3291 29.0837C77.3675 28.6944 77.4715 28.3616 77.6412 28.0851C77.8126 27.8089 78.0327 27.6029 78.3015 27.4673C78.572 27.3318 78.876 27.2806 79.2133 27.3139C79.5507 27.3471 79.838 27.4565 80.0752 27.642C80.3141 27.8277 80.4897 28.0726 80.6022 28.3769C80.7164 28.6813 80.7543 29.0281 80.7159 29.4174C80.6779 29.8034 80.5733 30.1338 80.4021 30.4085C80.2325 30.6833 80.0125 30.8884 79.742 31.0239C79.4732 31.1596 79.17 31.2108 78.8327 31.1775ZM78.8835 30.6617C79.1398 30.687 79.3571 30.6421 79.5355 30.527C79.7139 30.4119 79.8534 30.2512 79.9539 30.0449C80.0545 29.8387 80.1171 29.6106 80.1417 29.3608C80.1663 29.111 80.1495 28.8744 80.0913 28.6508C80.0331 28.4273 79.9278 28.2408 79.7754 28.0915C79.6231 27.9422 79.4188 27.8549 79.1625 27.8297C78.9062 27.8044 78.6888 27.8502 78.5103 27.9669C78.3317 28.0836 78.1921 28.2459 78.0913 28.4538C77.9906 28.6617 77.9279 28.8905 77.9033 29.1403C77.8787 29.3901 77.8956 29.626 77.954 29.8479C78.0124 30.0698 78.1178 30.2546 78.2703 30.4023C78.4228 30.55 78.6272 30.6365 78.8835 30.6617ZM83.9159 30.057L84.1336 27.8478L84.7078 27.9044L84.3396 31.6415L83.7654 31.5849L83.8277 30.9523L83.7888 30.9485C83.6825 31.1296 83.5303 31.2776 83.3323 31.3924C83.1345 31.5056 82.8944 31.5482 82.6122 31.5204C82.3786 31.4974 82.1761 31.4259 82.0045 31.3058C81.833 31.1841 81.7056 31.0143 81.6223 30.7964C81.5391 30.577 81.5131 30.3083 81.5445 29.9904L81.7784 27.6157L82.3526 27.6723L82.1225 30.008C82.0956 30.2805 82.1505 30.5054 82.287 30.6826C82.4251 30.86 82.6133 30.9604 82.8518 30.9839C82.9945 30.998 83.1433 30.9758 83.2981 30.9173C83.4545 30.859 83.5904 30.7594 83.7058 30.6185C83.8229 30.4777 83.8929 30.2905 83.9159 30.057ZM85.3913 31.7451L85.7595 28.008L86.3142 28.0626L86.2586 28.6271L86.2975 28.6309C86.3838 28.4527 86.5219 28.3148 86.7117 28.2173C86.9014 28.1197 87.1082 28.0819 87.3321 28.104C87.3743 28.1081 87.4269 28.1141 87.49 28.122C87.5531 28.1298 87.6007 28.137 87.6328 28.1434L87.5753 28.7273C87.5563 28.7206 87.5124 28.7089 87.4436 28.6923C87.3766 28.6742 87.305 28.6614 87.2288 28.6539C87.0471 28.636 86.8811 28.6581 86.7309 28.7203C86.5824 28.781 86.4603 28.8738 86.3645 28.9986C86.2704 29.122 86.2151 29.2681 86.1985 29.4368L85.9655 31.8017L85.3913 31.7451ZM91.378 32.4136C91.0406 32.3803 90.7525 32.2709 90.5136 32.0852C90.2764 31.8997 90.1007 31.6555 89.9864 31.3528C89.8737 31.0501 89.8364 30.7058 89.8744 30.3198C89.9128 29.9305 90.0168 29.5976 90.1865 29.3212C90.3579 29.0449 90.578 28.8389 90.8468 28.7033C91.1173 28.5678 91.4212 28.5167 91.7586 28.5499C92.096 28.5832 92.3833 28.6925 92.6205 28.878C92.8593 29.0637 93.035 29.3087 93.1475 29.6129C93.2617 29.9173 93.2995 30.2642 93.2612 30.6534C93.2232 31.0395 93.1185 31.3698 92.9474 31.6445C92.7778 31.9193 92.5578 32.1245 92.2873 32.2599C92.0184 32.3956 91.7153 32.4468 91.378 32.4136ZM91.4288 31.8978C91.6851 31.923 91.9024 31.8781 92.0808 31.763C92.2592 31.6479 92.3986 31.4872 92.4992 31.281C92.5998 31.0747 92.6624 30.8467 92.687 30.5969C92.7116 30.3471 92.6948 30.1104 92.6366 29.8868C92.5784 29.6633 92.4731 29.4769 92.3207 29.3275C92.1684 29.1782 91.9641 29.091 91.7078 29.0657C91.4515 29.0405 91.2341 29.0862 91.0556 29.2029C90.877 29.3196 90.7374 29.4819 90.6366 29.6898C90.5359 29.8977 90.4732 30.1265 90.4486 30.3763C90.424 30.6261 90.4409 30.862 90.4993 31.0839C90.5577 31.3059 90.6631 31.4907 90.8156 31.6384C90.9681 31.786 91.1725 31.8725 91.4288 31.8978ZM93.9555 32.5889L94.3237 28.8518L94.8784 28.9064L94.8228 29.4709L94.8618 29.4747C94.9481 29.2965 95.0862 29.1586 95.2759 29.061C95.4657 28.9635 95.6725 28.9257 95.8963 28.9478C95.9385 28.9519 95.9911 28.9579 96.0542 28.9658C96.1173 28.9736 96.1649 28.9808 96.1971 28.9872L96.1395 29.5711C96.1206 29.5644 96.0767 29.5527 96.0079 29.5361C95.9409 29.518 95.8692 29.5052 95.793 29.4977C95.6113 29.4798 95.4454 29.5019 95.2951 29.5641C95.1467 29.6248 95.0245 29.7176 94.9287 29.8424C94.8347 29.9658 94.7793 30.1119 94.7627 30.2806L94.5297 32.6455L93.9555 32.5889ZM97.7945 33.0457C97.483 33.0151 97.2158 32.9093 96.9929 32.7285C96.7701 32.546 96.6057 32.3038 96.4995 32.0018C96.3935 31.6982 96.3599 31.3485 96.3989 30.9528C96.4376 30.5602 96.5385 30.2262 96.7016 29.9508C96.8646 29.6753 97.0739 29.4708 97.3295 29.3371C97.5851 29.2034 97.8702 29.1521 98.1849 29.1831C98.4282 29.207 98.6164 29.2665 98.7495 29.3615C98.8844 29.4551 98.9841 29.5566 99.0487 29.6661C99.115 29.7742 99.166 29.8628 99.2018 29.9318L99.2505 29.9366L99.4317 28.0972L100.006 28.1538L99.515 33.1366L98.9602 33.082L99.0168 32.5078L98.9487 32.5011C98.8998 32.5651 98.8313 32.6451 98.7432 32.7412C98.6553 32.8358 98.5352 32.9165 98.3828 32.9833C98.2306 33.0486 98.0345 33.0694 97.7945 33.0457ZM97.9231 32.5376C98.1535 32.5603 98.354 32.5195 98.5248 32.4151C98.6957 32.3091 98.8331 32.1531 98.9369 31.9472C99.0409 31.7396 99.1068 31.4947 99.1346 31.2125C99.1621 30.9335 99.1456 30.6854 99.0851 30.4681C99.0248 30.2493 98.9209 30.0736 98.7734 29.9412C98.6262 29.8071 98.4357 29.7286 98.2022 29.7056C97.9589 29.6816 97.7499 29.7241 97.5754 29.833C97.4027 29.9404 97.2653 30.0964 97.1633 30.3009C97.063 30.5039 97 30.7368 96.9741 30.9996C96.9479 31.2656 96.9646 31.5113 97.0243 31.7366C97.0858 31.9605 97.1905 32.1444 97.3384 32.2884C97.4882 32.4309 97.6831 32.514 97.9231 32.5376ZM102.206 33.4803C101.845 33.4449 101.543 33.3348 101.297 33.1501C101.053 32.964 100.875 32.7204 100.762 32.4194C100.651 32.1169 100.615 31.7743 100.652 31.3915C100.69 31.0087 100.793 30.6782 100.961 30.4C101.131 30.1203 101.35 29.9109 101.618 29.7719C101.887 29.6313 102.19 29.5777 102.528 29.611C102.722 29.6301 102.911 29.6815 103.095 29.7651C103.278 29.8487 103.441 29.9711 103.582 30.1324C103.723 30.2921 103.829 30.4958 103.898 30.7433C103.967 30.9909 103.984 31.289 103.949 31.6377L103.926 31.881L101.045 31.5972L101.094 31.1009L103.39 31.3272C103.411 31.1163 103.388 30.924 103.32 30.7502C103.253 30.5766 103.148 30.4344 103.003 30.3235C102.86 30.2128 102.685 30.1472 102.477 30.1268C102.248 30.1042 102.045 30.1415 101.867 30.2386C101.69 30.3342 101.548 30.4676 101.441 30.6389C101.334 30.8101 101.271 30.9988 101.251 31.2048L101.218 31.5356C101.19 31.8179 101.215 32.0619 101.293 32.2678C101.373 32.4722 101.495 32.6341 101.661 32.7535C101.826 32.8714 102.024 32.9417 102.256 32.9645C102.407 32.9794 102.546 32.9717 102.671 32.9416C102.799 32.9099 102.912 32.8555 103.009 32.7783C103.107 32.6995 103.187 32.5976 103.248 32.4727L103.788 32.683C103.711 32.8654 103.596 33.0212 103.444 33.1504C103.292 33.2779 103.111 33.3714 102.901 33.4309C102.69 33.4888 102.459 33.5053 102.206 33.4803ZM104.634 33.641L105.002 29.9039L105.557 29.9585L105.501 30.523L105.54 30.5268C105.627 30.3486 105.765 30.2107 105.954 30.1132C106.144 30.0156 106.351 29.9778 106.575 29.9999C106.617 30.004 106.67 30.01 106.733 30.0179C106.796 30.0257 106.843 30.0329 106.876 30.0393L106.818 30.6232C106.799 30.6165 106.755 30.6048 106.686 30.5882C106.619 30.5701 106.548 30.5573 106.472 30.5498C106.29 30.5319 106.124 30.554 105.974 30.6162C105.825 30.6769 105.703 30.7697 105.607 30.8946C105.513 31.0179 105.458 31.164 105.441 31.3327L105.208 33.6976L104.634 33.641ZM108.171 28.9582L108.002 30.6711L107.467 30.6183L107.635 28.9055L108.171 28.9582ZM111.635 31.4025L111.105 31.4976C111.081 31.4085 111.041 31.3202 110.986 31.2329C110.932 31.1441 110.855 31.0676 110.753 31.0036C110.651 30.9395 110.517 30.8992 110.35 30.8828C110.121 30.8602 109.925 30.8942 109.762 30.9846C109.601 31.0735 109.513 31.1983 109.497 31.3589C109.483 31.5016 109.524 31.6195 109.619 31.7124C109.715 31.8054 109.871 31.8903 110.086 31.9672L110.627 32.1581C110.953 32.2721 111.19 32.4207 111.337 32.6039C111.485 32.7855 111.546 33.0069 111.52 33.268C111.499 33.4821 111.418 33.6674 111.278 33.824C111.14 33.9807 110.957 34.0969 110.728 34.1727C110.5 34.2484 110.24 34.272 109.95 34.2434C109.569 34.2058 109.261 34.092 109.028 33.9019C108.794 33.7119 108.66 33.4546 108.625 33.1302L109.183 33.0476C109.215 33.2538 109.299 33.4144 109.433 33.5292C109.569 33.6441 109.755 33.7132 109.99 33.7363C110.258 33.7627 110.476 33.7269 110.644 33.6288C110.815 33.5293 110.908 33.3993 110.923 33.2387C110.936 33.1089 110.901 32.9958 110.819 32.8993C110.737 32.8011 110.604 32.7208 110.42 32.6585L109.812 32.4512C109.478 32.3363 109.239 32.1859 109.095 31.9997C108.953 31.8121 108.895 31.5894 108.92 31.3315C108.941 31.1206 109.018 30.9399 109.153 30.7894C109.289 30.639 109.464 30.5278 109.679 30.4556C109.896 30.3836 110.136 30.3605 110.399 30.3864C110.768 30.4229 111.051 30.5326 111.246 30.7155C111.442 30.8987 111.572 31.1277 111.635 31.4025ZM116.241 31.0112L116.193 31.4978L114.179 31.2993L114.226 30.8127L116.241 31.0112ZM114.462 34.6093L114.881 30.3563C114.902 30.1422 114.97 29.9688 115.084 29.8359C115.199 29.7031 115.34 29.6089 115.508 29.5534C115.675 29.4978 115.848 29.4788 116.027 29.4964C116.168 29.5103 116.282 29.533 116.369 29.5645C116.456 29.596 116.52 29.6237 116.562 29.6474L116.348 30.1275C116.319 30.1149 116.28 30.0987 116.23 30.079C116.181 30.0594 116.115 30.0456 116.032 30.0374C115.843 30.0187 115.701 30.0531 115.607 30.1405C115.515 30.228 115.46 30.3643 115.441 30.5492L115.036 34.6659L114.462 34.6093ZM116.678 34.8276L117.046 31.0905L117.6 31.1451L117.545 31.7096L117.584 31.7134C117.67 31.5352 117.808 31.3973 117.998 31.2998C118.188 31.2022 118.395 31.1644 118.618 31.1865C118.661 31.1906 118.713 31.1966 118.776 31.2045C118.839 31.2123 118.887 31.2195 118.919 31.2259L118.862 31.8098C118.843 31.8031 118.799 31.7914 118.73 31.7748C118.663 31.7567 118.591 31.7439 118.515 31.7364C118.333 31.7185 118.167 31.7406 118.017 31.8028C117.869 31.8635 117.747 31.9563 117.651 32.0811C117.557 32.2045 117.501 32.3506 117.485 32.5193L117.252 34.8842L116.678 34.8276ZM120.672 35.2998C120.312 35.2643 120.009 35.1542 119.764 34.9695C119.52 34.7834 119.342 34.5398 119.229 34.2388C119.118 33.9364 119.081 33.5937 119.119 33.2109C119.157 32.8281 119.26 32.4976 119.428 32.2194C119.598 31.9397 119.817 31.7304 120.084 31.5913C120.354 31.4508 120.657 31.3971 120.994 31.4304C121.189 31.4496 121.378 31.5009 121.561 31.5845C121.745 31.6681 121.907 31.7906 122.049 31.9519C122.19 32.1116 122.295 32.3152 122.364 32.5627C122.433 32.8103 122.451 33.1084 122.416 33.4572L122.392 33.7005L119.511 33.4166L119.56 32.9203L121.857 33.1466C121.878 32.9357 121.854 32.7434 121.786 32.5697C121.72 32.3961 121.614 32.2538 121.47 32.143C121.327 32.0322 121.151 31.9666 120.944 31.9462C120.715 31.9237 120.511 31.9609 120.333 32.058C120.157 32.1536 120.015 32.2871 119.908 32.4583C119.801 32.6296 119.737 32.8182 119.717 33.0242L119.685 33.3551C119.657 33.6373 119.682 33.8814 119.76 34.0872C119.84 34.2916 119.962 34.4535 120.127 34.573C120.292 34.6908 120.491 34.7611 120.723 34.784C120.874 34.7988 121.012 34.7912 121.138 34.761C121.266 34.7294 121.378 34.6749 121.476 34.5978C121.574 34.519 121.653 34.4171 121.715 34.2921L122.254 34.5025C122.177 34.6849 122.063 34.8407 121.911 34.9698C121.759 35.0973 121.578 35.1909 121.367 35.2504C121.157 35.3082 120.925 35.3247 120.672 35.2998ZM124.66 35.6927C124.3 35.6572 123.997 35.5471 123.752 35.3624C123.508 35.1763 123.33 34.9327 123.217 34.6317C123.106 34.3292 123.069 33.9866 123.107 33.6038C123.144 33.221 123.247 32.8905 123.416 32.6123C123.586 32.3326 123.805 32.1232 124.072 31.9842C124.341 31.8437 124.645 31.79 124.982 31.8233C125.177 31.8425 125.366 31.8938 125.549 31.9774C125.733 32.061 125.895 32.1834 126.036 32.3448C126.178 32.5045 126.283 32.7081 126.352 32.9556C126.421 33.2032 126.438 33.5013 126.404 33.8501L126.38 34.0934L123.499 33.8095L123.548 33.3132L125.845 33.5395C125.866 33.3286 125.842 33.1363 125.774 32.9626C125.708 32.789 125.602 32.6467 125.457 32.5358C125.314 32.4251 125.139 32.3595 124.931 32.3391C124.703 32.3166 124.499 32.3538 124.321 32.4509C124.144 32.5465 124.003 32.68 123.896 32.8512C123.789 33.0225 123.725 33.2111 123.705 33.4171L123.672 33.748C123.645 34.0302 123.67 34.2743 123.748 34.4801C123.827 34.6845 123.95 34.8464 124.115 34.9659C124.28 35.0837 124.479 35.154 124.711 35.1769C124.862 35.1917 125 35.1841 125.126 35.1539C125.253 35.1222 125.366 35.0678 125.464 34.9907C125.561 34.9119 125.641 34.81 125.703 34.685L126.242 34.8954C126.165 35.0778 126.051 35.2336 125.899 35.3627C125.747 35.4902 125.566 35.5838 125.355 35.6433C125.145 35.7011 124.913 35.7176 124.66 35.6927ZM130.378 37.6711C130.101 37.6438 129.866 37.5846 129.673 37.4936C129.481 37.4042 129.324 37.2953 129.202 37.1671C129.082 37.0406 128.989 36.9086 128.924 36.7712L129.413 36.4951C129.458 36.5683 129.516 36.6527 129.587 36.7481C129.658 36.8451 129.759 36.9329 129.89 37.0113C130.023 37.0916 130.203 37.1428 130.428 37.165C130.73 37.1948 130.986 37.1463 131.197 37.0196C131.407 36.893 131.528 36.674 131.558 36.3625L131.633 35.6034L131.585 35.5986C131.536 35.6626 131.467 35.741 131.38 35.8339C131.294 35.9254 131.175 36.0029 131.023 36.0665C130.872 36.1287 130.676 36.1478 130.432 36.1238C130.131 36.0941 129.867 35.9961 129.641 35.8297C129.416 35.6634 129.248 35.4372 129.135 35.151C129.024 34.8649 128.988 34.5272 129.026 34.1379C129.064 33.7551 129.164 33.4284 129.327 33.1578C129.489 32.8856 129.699 32.6835 129.954 32.5514C130.209 32.4177 130.495 32.3664 130.809 32.3974C131.053 32.4214 131.242 32.4809 131.376 32.5761C131.513 32.6698 131.614 32.7715 131.68 32.8812C131.748 32.9894 131.8 33.0781 131.836 33.1471L131.894 33.1529L131.953 32.5592L132.508 32.6139L132.129 36.458C132.097 36.7792 131.998 37.0332 131.833 37.2199C131.668 37.4084 131.459 37.5377 131.205 37.6076C130.952 37.6793 130.677 37.7005 130.378 37.6711ZM130.561 35.6157C130.791 35.6384 130.991 35.6049 131.16 35.5151C131.33 35.4253 131.466 35.2856 131.568 35.0958C131.67 34.9061 131.735 34.6734 131.762 34.3976C131.788 34.1284 131.771 33.8867 131.711 33.6728C131.65 33.4588 131.546 33.2855 131.398 33.1531C131.251 33.0207 131.06 32.9429 130.827 32.9199C130.583 32.8959 130.374 32.9376 130.2 33.0449C130.027 33.1523 129.89 33.3059 129.789 33.5055C129.689 33.7053 129.626 33.9317 129.601 34.1847C129.576 34.4443 129.594 34.6778 129.655 34.8853C129.718 35.0913 129.825 35.259 129.974 35.3884C130.125 35.5163 130.321 35.5921 130.561 35.6157ZM133.19 36.4545L133.559 32.7174L134.133 32.774L133.765 36.5111L133.19 36.4545ZM133.912 32.1233C133.8 32.1123 133.707 32.0647 133.634 31.9805C133.562 31.8964 133.531 31.8008 133.542 31.6938C133.552 31.5867 133.601 31.499 133.688 31.4306C133.777 31.3623 133.877 31.3337 133.989 31.3448C134.101 31.3558 134.193 31.4033 134.265 31.4874C134.338 31.5716 134.37 31.6673 134.359 31.7743C134.349 31.8814 134.299 31.969 134.21 32.0373C134.123 32.1057 134.024 32.1344 133.912 32.1233ZM136.849 33.0416L136.801 33.5282L134.786 33.3297L134.834 32.8431L136.849 33.0416ZM135.069 36.6397L135.488 32.3867C135.509 32.1726 135.577 31.9992 135.692 31.8663C135.807 31.7335 135.948 31.6393 136.115 31.5838C136.283 31.5282 136.456 31.5092 136.634 31.5268C136.776 31.5407 136.89 31.5634 136.977 31.5949C137.064 31.6264 137.128 31.6541 137.17 31.6778L136.955 32.1579C136.927 32.1453 136.888 32.1291 136.837 32.1094C136.789 32.0898 136.723 32.076 136.64 32.0678C136.45 32.0491 136.308 32.0835 136.215 32.1709C136.123 32.2584 136.067 32.3946 136.049 32.5796L135.644 36.6962L135.069 36.6397ZM139.279 33.281L139.231 33.7676L137.294 33.5768L137.342 33.0902L139.279 33.281ZM137.995 32.2504L138.569 32.307L138.218 35.869C138.202 36.0312 138.214 36.1551 138.253 36.2409C138.293 36.3251 138.35 36.3847 138.422 36.4197C138.495 36.4531 138.574 36.474 138.659 36.4823C138.722 36.4886 138.774 36.4904 138.815 36.4879C138.857 36.4838 138.89 36.4805 138.915 36.4781L138.981 37.0054C138.94 37.0161 138.884 37.0254 138.813 37.0331C138.742 37.0424 138.653 37.0418 138.546 37.0313C138.383 37.0153 138.228 36.9648 138.079 36.8797C137.932 36.7948 137.814 36.6759 137.726 36.5231C137.64 36.3704 137.607 36.1855 137.628 35.9681L137.995 32.2504Z" fill="#C5B0C5"/>
<path d="M70.3763 86.066C69.8815 86.0173 69.4621 85.8965 69.1178 85.7036C68.7741 85.5052 68.5232 85.2279 68.3653 84.8717C68.2074 84.5156 68.154 84.0789 68.2049 83.5617L68.5613 79.9442L69.5058 80.0372L69.1469 83.6801C69.0998 84.1579 69.1908 84.5302 69.42 84.7968C69.6491 85.0635 69.9942 85.2195 70.4552 85.2649C70.9218 85.3109 71.2963 85.2258 71.5787 85.0095C71.8667 84.7938 72.0343 84.4471 72.0814 83.9692L72.4403 80.3264L73.3847 80.4194L73.0283 84.037C72.9773 84.5542 72.8369 84.9717 72.6069 85.2896C72.3825 85.6081 72.0796 85.8308 71.6981 85.9579C71.3228 86.0798 70.8822 86.1159 70.3763 86.066ZM76.2835 86.648C75.9687 86.617 75.6685 86.5534 75.3828 86.4571C75.0966 86.3665 74.8479 86.2398 74.6369 86.0771C74.4265 85.9088 74.2674 85.7087 74.1597 85.4767C74.0525 85.2391 74.0142 84.9657 74.0447 84.6565C74.048 84.6227 74.051 84.5918 74.0538 84.5637C74.0627 84.5305 74.0683 84.5027 74.0705 84.4802L75.015 84.5733C75.0133 84.5901 75.008 84.6152 74.9991 84.6483C74.9957 84.6821 74.993 84.7102 74.9908 84.7327C74.9703 84.9407 75.0147 85.1238 75.1239 85.2822C75.2332 85.4405 75.3939 85.5671 75.6059 85.6617C75.8236 85.757 76.0758 85.8187 76.3625 85.847C76.5199 85.8625 76.6725 85.869 76.8203 85.8665C76.9687 85.8584 77.1039 85.8405 77.2258 85.8128C77.3539 85.78 77.466 85.7372 77.562 85.6842C77.6586 85.6256 77.7366 85.5538 77.7961 85.4688C77.8555 85.3839 77.8911 85.2824 77.9027 85.1643C77.9204 84.9844 77.8817 84.8302 77.7865 84.7016C77.697 84.5736 77.5661 84.4614 77.394 84.3649C77.2275 84.2691 77.0348 84.1791 76.816 84.0951C76.6029 84.0117 76.3813 83.9274 76.1513 83.8423C75.9213 83.7572 75.698 83.6614 75.4814 83.5549C75.2705 83.449 75.0809 83.3282 74.9126 83.1924C74.7505 83.0515 74.625 82.8859 74.5359 82.6955C74.453 82.5 74.4245 82.2702 74.4506 82.0059C74.4755 81.753 74.551 81.5334 74.6772 81.3471C74.8034 81.1609 74.9741 81.0131 75.1892 80.9037C75.4049 80.7887 75.6566 80.7114 75.9443 80.6716C76.232 80.6318 76.553 80.6294 76.9072 80.6643C77.2107 80.6942 77.4941 80.7562 77.7573 80.8502C78.021 80.9387 78.2475 81.0603 78.4366 81.2152C78.6256 81.37 78.7662 81.557 78.8581 81.7761C78.9557 81.9957 78.9903 82.2489 78.9621 82.5356L78.9521 82.6368L78.0161 82.5445L78.0269 82.4349C78.0446 82.255 78.0062 82.098 77.9115 81.9638C77.8169 81.8296 77.6773 81.7193 77.4929 81.633C77.3084 81.5468 77.0896 81.4911 76.8367 81.4662C76.5387 81.4369 76.2855 81.4431 76.077 81.485C75.8691 81.5213 75.7065 81.5876 75.5891 81.6839C75.478 81.7751 75.4152 81.8938 75.4008 82.04C75.3847 82.203 75.4249 82.3432 75.5211 82.4605C75.618 82.5722 75.7499 82.6732 75.917 82.7635C76.0897 82.8543 76.2826 82.9414 76.4958 83.0248C76.7151 83.1032 76.9367 83.1875 77.1605 83.2776C77.3906 83.3627 77.611 83.4582 77.822 83.5642C78.0385 83.6707 78.2278 83.7943 78.3899 83.9352C78.5576 84.0766 78.6858 84.2453 78.7743 84.4413C78.8634 84.6317 78.8949 84.8591 78.8689 85.1233C78.8279 85.5393 78.6904 85.8691 78.4563 86.1129C78.2229 86.351 77.9176 86.511 77.5406 86.5931C77.1692 86.6757 76.7501 86.694 76.2835 86.648ZM81.5301 87.0628L82.1 81.2781L83.0445 81.3712L82.4745 87.1558L81.5301 87.0628ZM85.976 87.603C85.6612 87.572 85.3609 87.5083 85.0752 87.4121C84.789 87.3214 84.5404 87.1948 84.3294 87.0321C84.1189 86.8638 83.9598 86.6636 83.8521 86.4316C83.745 86.194 83.7066 85.9206 83.7371 85.6114C83.7404 85.5777 83.7435 85.5468 83.7462 85.5187C83.7552 85.4855 83.7608 85.4577 83.763 85.4352L84.7074 85.5282C84.7057 85.5451 84.7004 85.5701 84.6915 85.6033C84.6882 85.637 84.6854 85.6651 84.6832 85.6876C84.6627 85.8956 84.7071 86.0788 84.8164 86.2371C84.9256 86.3955 85.0863 86.522 85.2983 86.6167C85.516 86.7119 85.7682 86.7737 86.0549 86.8019C86.2123 86.8174 86.3649 86.8239 86.5127 86.8215C86.6611 86.8134 86.7963 86.7955 86.9182 86.7678C87.0463 86.735 87.1584 86.6921 87.2544 86.6391C87.351 86.5805 87.4291 86.5087 87.4885 86.4238C87.548 86.3388 87.5835 86.2373 87.5951 86.1193C87.6129 85.9394 87.5741 85.7851 87.479 85.6566C87.3894 85.5285 87.2585 85.4163 87.0864 85.3199C86.9199 85.224 86.7272 85.1341 86.5085 85.0501C86.2953 84.9666 86.0737 84.8824 85.8437 84.7973C85.6137 84.7122 85.3904 84.6164 85.1739 84.5099C84.9629 84.404 84.7733 84.2831 84.6051 84.1473C84.443 84.0065 84.3174 83.8409 84.2283 83.6504C84.1454 83.455 84.1169 83.2251 84.143 82.9609C84.1679 82.7079 84.2435 82.4883 84.3697 82.3021C84.4959 82.1158 84.6665 81.968 84.8816 81.8587C85.0973 81.7437 85.349 81.6663 85.6367 81.6266C85.9245 81.5868 86.2454 81.5844 86.5996 81.6193C86.9032 81.6492 87.1865 81.7111 87.4497 81.8052C87.7135 81.8936 87.9399 82.0153 88.129 82.1701C88.3181 82.325 88.4586 82.5119 88.5505 82.731C88.6481 82.9507 88.6827 83.2038 88.6545 83.4905L88.6445 83.5917L87.7085 83.4995L87.7193 83.3899C87.737 83.21 87.6986 83.0529 87.604 82.9187C87.5093 82.7845 87.3698 82.6743 87.1853 82.588C87.0008 82.5017 86.7821 82.4461 86.5291 82.4212C86.2311 82.3918 85.9779 82.3981 85.7695 82.44C85.5615 82.4763 85.3989 82.5425 85.2816 82.6388C85.1704 82.7301 85.1076 82.8487 85.0932 82.9949C85.0772 83.1579 85.1173 83.2981 85.2136 83.4155C85.3104 83.5272 85.4424 83.6282 85.6094 83.7184C85.7821 83.8092 85.9751 83.8963 86.1882 83.9798C86.4075 84.0581 86.6291 84.1424 86.853 84.2326C87.083 84.3177 87.3035 84.4132 87.5144 84.5191C87.731 84.6256 87.9203 84.7493 88.0824 84.8901C88.2501 85.0315 88.3782 85.2002 88.4667 85.3963C88.5558 85.5867 88.5873 85.814 88.5613 86.0782C88.5203 86.4942 88.3828 86.8241 88.1488 87.0678C87.9153 87.3059 87.61 87.466 87.233 87.548C86.8616 87.6307 86.4426 87.649 85.976 87.603ZM89.4932 87.8474L90.0631 82.0627L92.9471 82.3468C93.3574 82.3872 93.6901 82.4967 93.945 82.675C94.1998 82.8534 94.3814 83.0841 94.4898 83.3673C94.6043 83.6453 94.6435 83.9671 94.6075 84.3325C94.5715 84.6979 94.4666 85.0139 94.2928 85.2806C94.1194 85.5417 93.8848 85.7343 93.5887 85.8583C93.2983 85.983 92.9535 86.0257 92.5544 85.9863L90.6487 85.7986L90.4376 87.9404L89.4932 87.8474ZM90.7284 84.989L92.592 85.1727C92.89 85.202 93.1321 85.1351 93.3185 84.9718C93.5105 84.8091 93.6223 84.5675 93.6538 84.247C93.6749 84.0334 93.6561 83.8499 93.5974 83.6966C93.5393 83.5376 93.4438 83.4118 93.311 83.3193C93.1782 83.2267 93.005 83.1699 92.7914 83.1489L90.9278 82.9652L90.7284 84.989ZM96.4434 88.5321L97.0134 82.7475L99.8973 83.0316C100.308 83.072 100.64 83.1814 100.895 83.3598C101.15 83.5382 101.332 83.7689 101.44 84.0521C101.555 84.3301 101.594 84.6519 101.558 85.0173C101.522 85.3827 101.417 85.6987 101.243 85.9654C101.07 86.2265 100.835 86.419 100.539 86.5431C100.249 86.6678 99.9038 86.7104 99.5046 86.6711L97.5989 86.4833L97.3879 88.6252L96.4434 88.5321ZM97.6786 85.6738L99.5422 85.8574C99.8402 85.8868 100.082 85.8198 100.269 85.6565C100.461 85.4938 100.572 85.2522 100.604 84.9318C100.625 84.7182 100.606 84.5347 100.548 84.3813C100.489 84.2223 100.394 84.0966 100.261 84.004C100.128 83.9115 99.9552 83.8547 99.7416 83.8336L97.878 83.65L97.6786 85.6738ZM101.95 89.0747L102.387 84.6392L103.112 84.7106L103.117 85.4349L103.168 85.4398C103.232 85.3043 103.31 85.1785 103.401 85.0626C103.497 84.9473 103.614 84.8566 103.751 84.7906C103.894 84.7252 104.061 84.7019 104.252 84.7208C104.342 84.7296 104.42 84.7458 104.486 84.7693C104.557 84.7934 104.612 84.813 104.65 84.8281L104.569 85.6545L104.273 85.6254C104.094 85.6077 103.931 85.62 103.784 85.6624C103.644 85.7053 103.52 85.7783 103.414 85.8813C103.313 85.9792 103.233 86.1047 103.172 86.2577C103.118 86.4112 103.08 86.5863 103.061 86.7831L102.827 89.1611L101.95 89.0747ZM106.661 89.6411C106.2 89.5956 105.818 89.4756 105.513 89.281C105.215 89.0814 105.002 88.802 104.872 88.4431C104.749 88.0846 104.713 87.6412 104.765 87.1128C104.818 86.5787 104.939 86.1508 105.13 85.829C105.327 85.5021 105.59 85.2727 105.921 85.1407C106.258 85.0036 106.657 84.9578 107.118 85.0032C107.591 85.0497 107.976 85.1728 108.274 85.3725C108.573 85.5665 108.784 85.8428 108.908 86.2012C109.037 86.5545 109.076 86.9983 109.023 87.5323C108.971 88.0607 108.847 88.4884 108.65 88.8153C108.459 89.1427 108.198 89.3752 107.866 89.5128C107.535 89.6448 107.134 89.6876 106.661 89.6411ZM106.733 88.9159C107.014 88.9436 107.25 88.9129 107.44 88.8238C107.631 88.7291 107.78 88.5734 107.886 88.3569C107.998 88.1409 108.071 87.8614 108.105 87.5185L108.12 87.3667C108.154 87.0238 108.137 86.7354 108.069 86.5017C108.007 86.2685 107.891 86.0897 107.722 85.9652C107.553 85.835 107.328 85.7561 107.047 85.7284C106.772 85.7012 106.538 85.735 106.347 85.8297C106.157 85.9188 106.006 86.0714 105.894 86.2874C105.787 86.5039 105.717 86.7837 105.683 87.1266L105.668 87.2784C105.634 87.6213 105.649 87.9093 105.711 88.1425C105.779 88.3762 105.897 88.5582 106.066 88.6883C106.235 88.8129 106.457 88.8887 106.733 88.9159ZM109.037 89.773L110.847 87.6524L109.567 85.3466L110.63 85.4513L111.462 87.0318L111.512 87.0368L112.645 85.6499L113.648 85.7487L111.937 87.7343L113.296 90.1925L112.242 90.0887L111.323 88.3549L111.281 88.3507L110.041 89.8718L109.037 89.773ZM114.294 91.8405C114.125 91.8239 113.986 91.796 113.876 91.7568C113.766 91.7232 113.697 91.7022 113.67 91.6938L113.732 91.0614L114.154 91.1029C114.277 91.1151 114.404 91.0992 114.533 91.0552C114.668 91.0117 114.792 90.9331 114.905 90.8194C115.019 90.7057 115.118 90.5594 115.204 90.3805L113.912 85.7747L114.831 85.8653L115.474 88.1593C115.503 88.2644 115.533 88.3951 115.563 88.5513C115.599 88.708 115.631 88.8673 115.661 89.0292C115.696 89.1916 115.724 89.3363 115.746 89.4633L115.788 89.4674C115.824 89.3859 115.862 89.2931 115.9 89.189C115.945 89.0799 115.99 88.968 116.036 88.8533C116.081 88.7385 116.126 88.6294 116.17 88.5259C116.215 88.4168 116.252 88.324 116.283 88.2475L117.218 86.1004L118.112 86.1885L116.19 90.3074C116.083 90.5352 115.968 90.7482 115.846 90.9462C115.725 91.1442 115.589 91.3125 115.439 91.451C115.294 91.5956 115.128 91.7013 114.94 91.7679C114.751 91.8401 114.536 91.8643 114.294 91.8405Z" fill="white"/>
</g>
</g>
<g filter="url(#filter1_d_6773_22705)">
<g clip-path="url(#clip2_6773_22705)">
<rect x="-1.04395" y="60.5735" width="208.453" height="101.459" rx="4.76624" transform="rotate(-3.20948 -1.04395 60.5735)" fill="url(#paint1_linear_6773_22705)"/>
<g opacity="0.05">
<path d="M178.326 64.2551L172.634 65.905C175.762 64.9858 178.001 64.1014 178.028 64.091C178.012 64.009 174.804 47.2006 168.414 43.6819C162.007 40.1552 153.954 42.4894 150.427 48.8957C146.9 55.3021 149.235 63.355 155.641 66.8823C159.645 69.0865 167.389 67.4462 172.634 65.905L150.155 72.421C147.043 73.323 143.789 71.5317 142.887 68.42L136.354 45.8832C135.452 42.7715 137.244 39.5178 140.355 38.6158L162.892 32.083C166.004 31.181 169.258 32.9723 170.16 36.084L178.326 64.2551Z" fill="#850E8E"/>
<path d="M157.45 52.7619C160.016 48.1017 165.873 46.4034 170.534 48.9692C175.177 51.5262 177.51 63.7245 177.527 63.8155C177.441 63.8494 165.886 68.4011 161.242 65.8461C156.582 63.2801 154.884 57.4223 157.45 52.7619Z" fill="#850E8E"/>
<path d="M183.959 62.6187L189.651 60.9687C186.516 61.865 184.151 62.3152 184.123 62.3206C184.092 62.243 177.813 46.3249 181.332 39.9338C184.859 33.5277 192.912 31.1931 199.318 34.7201C205.724 38.2471 208.059 46.3001 204.532 52.7066C202.327 56.7106 194.907 59.4661 189.651 60.9687L212.13 54.4527C215.241 53.5507 217.033 50.297 216.131 47.1853L209.598 24.6484C208.696 21.5367 205.442 19.7454 202.331 20.6474L179.794 27.1802C176.682 28.0822 174.891 31.3359 175.793 34.4476L183.959 62.6187Z" fill="#850E8E"/>
<path d="M195.452 41.7426C190.791 39.1772 184.934 40.8749 182.368 45.5353C179.812 50.1789 184.364 61.7341 184.398 61.8202C184.489 61.8029 196.687 59.4693 199.245 54.8267C201.81 50.1664 200.112 44.3085 195.452 41.7426Z" fill="#850E8E"/>
<path d="M185.592 68.2527L191.284 66.6028C188.156 67.522 185.916 68.4064 185.89 68.4168C185.906 68.4988 189.113 85.3072 195.504 88.8259C201.91 92.3526 209.963 90.0184 213.49 83.6121C217.017 77.2057 214.683 69.1528 208.277 65.6256C204.273 63.4213 196.529 65.0616 191.284 66.6028L213.763 60.0868C216.875 59.1848 220.128 60.9761 221.03 64.0878L227.563 86.6246C228.465 89.7363 226.674 92.9901 223.562 93.892L201.025 100.425C197.914 101.327 194.66 99.5355 193.758 96.4238L185.592 68.2527Z" fill="#850E8E"/>
<path d="M206.468 79.7459C203.902 84.4061 198.044 86.1044 193.384 83.5386C188.741 80.9816 186.408 68.7833 186.39 68.6923C186.476 68.6584 198.031 64.1068 202.675 66.6618C207.335 69.2277 209.033 75.0855 206.468 79.7459Z" fill="#850E8E"/>
<path d="M179.958 69.8891L174.266 71.539C177.401 70.6427 179.766 70.1925 179.794 70.1872C179.825 70.2648 186.104 86.1829 182.585 92.5739C179.058 98.9801 171.005 101.315 164.599 97.7877C158.192 94.2607 155.858 86.2076 159.385 79.8011C161.59 75.7972 169.01 73.0417 174.266 71.539L151.787 78.0551C148.676 78.957 146.884 82.2108 147.786 85.3225L154.319 107.859C155.221 110.971 158.475 112.762 161.586 111.86L184.123 105.328C187.235 104.426 189.026 101.172 188.124 98.0602L179.958 69.8891Z" fill="#850E8E"/>
<path d="M168.465 90.7651C173.126 93.3305 178.983 91.6329 181.549 86.9724C184.105 82.3288 179.553 70.7737 179.519 70.6875C179.428 70.7048 167.23 73.0384 164.672 77.681C162.107 82.3414 163.805 88.1992 168.465 90.7651Z" fill="#850E8E"/>
</g>
<path d="M10.3308 77.4957L9.96418 70.9571L15.2464 70.6609C15.7159 70.6346 16.1052 70.7083 16.414 70.8819C16.7293 71.0552 16.9718 71.293 17.1415 71.5954C17.3112 71.8977 17.4067 72.2393 17.4281 72.62C17.4501 73.0134 17.3692 73.3871 17.1854 73.7411C17.0076 74.0884 16.7211 74.3718 16.3261 74.5912L17.8306 77.0751L15.9842 77.1787L14.7056 74.9781L11.8503 75.1382L11.9774 77.4034L10.3308 77.4957ZM11.7778 73.8438L14.9281 73.6672C15.1946 73.6522 15.3995 73.5612 15.5429 73.394C15.6923 73.2201 15.7598 73.0063 15.7456 72.7525C15.7356 72.5748 15.6924 72.4277 15.6158 72.311C15.5393 72.1944 15.4358 72.1079 15.3053 72.0516C15.1748 71.9952 15.0176 71.9722 14.8336 71.9826L11.6833 72.1592L11.7778 73.8438ZM21.7128 76.972C21.0593 77.0087 20.4891 76.942 20.0022 76.772C19.5216 76.6016 19.1404 76.3302 18.8586 75.9577C18.5827 75.5786 18.4286 75.1003 18.3962 74.5229C18.3635 73.9392 18.4632 73.4466 18.6953 73.0454C18.9337 72.6437 19.2823 72.3346 19.7412 72.1179C20.2061 71.8945 20.7652 71.7645 21.4188 71.7279C22.0723 71.6912 22.6394 71.7581 23.1199 71.9284C23.6065 72.0921 23.9875 72.3603 24.263 72.7332C24.5449 73.1056 24.7022 73.5837 24.7349 74.1675C24.7673 74.7449 24.6644 75.2375 24.4263 75.6455C24.1942 76.0468 23.8458 76.3591 23.3809 76.5825C22.9224 76.8055 22.3664 76.9354 21.7128 76.972ZM21.652 75.887C21.9946 75.8678 22.2833 75.7943 22.518 75.6666C22.7587 75.5322 22.9365 75.3535 23.0513 75.1307C23.1661 74.9078 23.2151 74.6473 23.1984 74.3491L23.1877 74.1587C23.1706 73.8542 23.0928 73.6008 22.9541 73.3985C22.8151 73.1899 22.6187 73.0354 22.3648 72.9351C22.1173 72.8344 21.8223 72.7936 21.4796 72.8129C21.1306 72.8324 20.8388 72.9061 20.6041 73.0338C20.3694 73.1615 20.1946 73.3368 20.0798 73.5597C19.9647 73.7762 19.9156 74.0367 19.9327 74.3413L19.9434 74.5316C19.9601 74.8298 20.038 75.0833 20.177 75.2919C20.316 75.5005 20.5094 75.6583 20.7573 75.7653C21.0048 75.866 21.303 75.9066 21.652 75.887ZM24.9699 76.6748L27.2311 73.9225L24.8505 71.65L26.754 71.5433L28.2284 72.9786L28.2855 72.9754L29.5807 71.3848L31.3605 71.285L29.2499 73.8284L31.775 76.2932L29.8905 76.3989L28.2621 74.7717L28.1955 74.7754L26.7592 76.5745L24.9699 76.6748ZM33.1844 78.1332C32.9941 78.1439 32.8187 78.1378 32.6583 78.115C32.5042 78.0918 32.3591 78.0586 32.2231 78.0153L32.1713 77.0921L32.8851 77.0521C33.1643 77.0364 33.3846 76.9922 33.546 76.9195C33.7074 76.8468 33.8321 76.7444 33.9202 76.6121C34.015 76.4859 34.0988 76.3348 34.1717 76.1588L31.4444 71.2802L33.0719 71.189L34.2427 73.5102C34.2995 73.6152 34.3675 73.7483 34.4465 73.9093C34.5252 74.064 34.6041 74.2219 34.6831 74.383C34.7622 74.544 34.8306 74.6866 34.8885 74.8106L34.9646 74.8064C34.9699 74.787 34.9856 74.7256 35.0116 74.6223C35.044 74.5187 35.0848 74.3954 35.1341 74.2527C35.1834 74.1099 35.2325 73.9639 35.2814 73.8148C35.3303 73.6656 35.3738 73.5327 35.4118 73.416L36.2222 71.0123L37.7831 70.9248L35.9634 75.5905C35.8187 75.9615 35.672 76.2975 35.5234 76.5986C35.3748 76.8997 35.1985 77.161 34.9945 77.3825C34.7969 77.6036 34.552 77.7765 34.2598 77.9011C33.968 78.032 33.6095 78.1094 33.1844 78.1332ZM45.6496 75.6298C44.3298 75.7038 43.3212 75.4803 42.6236 74.9593C41.9324 74.4379 41.555 73.6094 41.4913 72.4736C41.4497 71.7312 41.583 71.1 41.8911 70.5799C42.2053 70.0531 42.6757 69.6448 43.3023 69.3551C43.9353 69.065 44.7023 68.8947 45.6033 68.8441C46.1743 68.8121 46.7006 68.8335 47.1822 68.9084C47.6697 68.9765 48.0969 69.1021 48.4636 69.2852C48.8303 69.4683 49.1174 69.7068 49.3248 70.0007C49.5322 70.2946 49.6475 70.6478 49.6706 71.0602L48.0717 71.1499C48.0599 70.9405 47.9865 70.7664 47.8514 70.6276C47.7227 70.4884 47.548 70.3804 47.3273 70.3037C47.1129 70.2266 46.8682 70.1767 46.5933 70.1539C46.3243 70.1244 46.0407 70.1181 45.7425 70.1348C45.3491 70.1568 44.9897 70.2184 44.6644 70.3193C44.3387 70.414 44.06 70.5506 43.8281 70.729C43.6022 70.9008 43.4296 71.1142 43.3102 71.3691C43.1972 71.6237 43.1501 71.9191 43.169 72.2554L43.1818 72.4838C43.2081 72.9534 43.331 73.3284 43.5504 73.6089C43.7695 73.883 44.0699 74.0762 44.4517 74.1885C44.8335 74.3007 45.2846 74.3422 45.8049 74.3131C46.3442 74.2828 46.7889 74.2102 47.1389 74.0951C47.4952 73.9796 47.7602 73.8247 47.9339 73.6304C48.1076 73.4361 48.1873 73.212 48.1731 72.9582L48.1693 72.8916L45.6662 73.0319L45.6001 71.8518L49.7116 71.6212L49.9166 75.2759L48.9267 75.3314L48.7185 74.5125C48.4899 74.7481 48.2176 74.9448 47.9019 75.1025C47.5921 75.2535 47.2455 75.3716 46.862 75.4568C46.4852 75.5479 46.0811 75.6056 45.6496 75.6298ZM51.0549 69.4073L50.993 68.3032L52.4777 68.22L52.5396 69.324L51.0549 69.4073ZM51.3794 75.1939L51.0981 70.1782L52.5828 70.0949L52.8641 75.1107L51.3794 75.1939ZM54.6814 75.0088L54.461 71.078L53.4236 71.1362L53.3628 70.0512L54.4002 69.993L54.3794 69.6218C54.3594 69.2665 54.4095 68.9677 54.5296 68.7255C54.6557 68.4766 54.8454 68.2845 55.0988 68.1494C55.3522 68.0142 55.666 67.9362 56.0404 67.9152C56.1673 67.908 56.3041 67.9067 56.4507 67.9113C56.6037 67.9154 56.7475 67.9264 56.8822 67.9443C57.0229 67.9555 57.1514 67.977 57.2677 68.0087L57.3195 68.9319L56.6723 68.9681C56.3677 68.9852 56.1543 69.0386 56.032 69.1282C55.9157 69.2111 55.8631 69.3509 55.8741 69.5476L55.8944 69.9092L57.3696 69.8265L57.4305 70.9115L55.9553 70.9942L56.1757 74.925L54.6814 75.0088ZM60.7048 74.7856C60.3177 74.8073 59.9946 74.7776 59.7355 74.6967C59.4823 74.6091 59.2889 74.4512 59.1552 74.2232C59.0211 73.9889 58.9425 73.6655 58.9194 73.2531L58.7838 70.8356L57.813 70.89L57.7522 69.805L58.7706 69.7479L58.9824 68.2467L60.1245 68.1826L60.2077 69.6674L61.5878 69.59L61.6486 70.675L60.2686 70.7524L60.3935 72.9795C60.407 73.2206 60.4617 73.4021 60.5577 73.524C60.6596 73.6392 60.8628 73.6883 61.1674 73.6712L61.8146 73.6349L61.8664 74.5581C61.7793 74.5948 61.6635 74.63 61.519 74.6635C61.3808 74.6967 61.236 74.724 61.0844 74.7452C60.9392 74.7661 60.8126 74.7795 60.7048 74.7856ZM65.4716 74.5183C65.0972 74.5393 64.7369 74.5276 64.3908 74.4834C64.0449 74.4455 63.7322 74.3739 63.4526 74.2687C63.1794 74.1631 62.9579 74.0164 62.7883 73.8286C62.6186 73.6408 62.5263 73.4136 62.5114 73.1471C62.5096 73.1154 62.508 73.0868 62.5066 73.0615C62.5115 73.0357 62.5164 73.01 62.5213 72.9843L64.0441 72.8989C64.0448 72.9116 64.0425 72.9276 64.0373 72.947C64.0383 72.966 64.0392 72.9819 64.0399 72.9946C64.0481 73.1405 64.1182 73.2543 64.25 73.336C64.3819 73.4178 64.5506 73.4751 64.7562 73.5082C64.9677 73.5345 65.1908 73.5411 65.4256 73.5279C65.6477 73.5155 65.8627 73.4907 66.0706 73.4536C66.285 73.4161 66.4599 73.3585 66.5956 73.2809C66.7309 73.1969 66.7943 73.0788 66.7858 72.9265C66.7773 72.7742 66.6885 72.6678 66.5197 72.6073C66.3508 72.5467 66.1163 72.509 65.8163 72.494C65.5223 72.4723 65.177 72.4439 64.7804 72.4088C64.4797 72.3812 64.1974 72.3397 63.9333 72.2845C63.6756 72.2289 63.4453 72.1527 63.2426 72.0559C63.0458 71.9524 62.8886 71.8148 62.7707 71.6432C62.6529 71.4716 62.5867 71.2557 62.5721 70.9955C62.5565 70.7164 62.6097 70.4747 62.7319 70.2705C62.8538 70.06 63.0317 69.8845 63.2657 69.7441C63.5061 69.6033 63.796 69.4948 64.1354 69.4185C64.4748 69.3422 64.8507 69.2924 65.2632 69.2693C65.6248 69.249 65.9659 69.2585 66.2863 69.2979C66.6131 69.3368 66.9005 69.4098 67.1484 69.5168C67.3962 69.6239 67.5949 69.7623 67.7445 69.9322C67.894 70.102 67.9754 70.3043 67.9886 70.5391C67.99 70.5644 67.9914 70.5898 67.9928 70.6152C67.9943 70.6406 67.9923 70.663 67.987 70.6823L66.4642 70.7677L66.4616 70.7202C66.4545 70.5932 66.3948 70.4948 66.2827 70.4247C66.1706 70.3546 66.0279 70.3085 65.8549 70.2863C65.6814 70.2579 65.4963 70.2492 65.2996 70.2602C65.2298 70.2641 65.1253 70.2732 64.9861 70.2873C64.8469 70.3015 64.7018 70.3255 64.551 70.3595C64.4064 70.393 64.285 70.4412 64.1867 70.504C64.0884 70.5668 64.0423 70.6521 64.0483 70.76C64.0558 70.8932 64.1406 70.9871 64.3028 71.0417C64.465 71.0963 64.6739 71.1323 64.9294 71.1498C65.1914 71.1669 65.4725 71.1862 65.7728 71.2075C66.0922 71.2278 66.3963 71.2585 66.685 71.2996C66.9801 71.3403 67.2419 71.4116 67.4703 71.5133C67.7048 71.6084 67.8908 71.7475 68.0284 71.9307C68.166 72.114 68.2433 72.3579 68.2604 72.6624C68.2782 72.9797 68.2267 73.2531 68.1059 73.4826C67.9847 73.7058 67.801 73.8912 67.5547 74.0387C67.3143 74.1794 67.0149 74.2885 66.6565 74.3659C66.3043 74.4429 65.9094 74.4937 65.4716 74.5183Z" fill="#111213"/>
<path d="M10.0325 84.6942L10.7257 84.6554L12.243 86.9112L12.3016 86.9079L13.5572 84.4966L14.2504 84.4577L12.6089 87.4979L12.7245 89.5581L12.1191 89.592L12.0036 87.5319L10.0325 84.6942ZM16.2328 89.4397C15.8944 89.4587 15.5929 89.3948 15.3283 89.248C15.0654 89.1012 14.8543 88.8869 14.6948 88.6053C14.537 88.3236 14.4472 87.989 14.4255 87.6017C14.4036 87.2112 14.4553 86.8663 14.5805 86.5671C14.7074 86.2678 14.8933 86.0304 15.1381 85.8551C15.3845 85.6797 15.677 85.5824 16.0155 85.5635C16.354 85.5445 16.6547 85.6084 16.9176 85.7553C17.1821 85.9021 17.3933 86.1171 17.5512 86.4005C17.7107 86.6838 17.8015 87.0207 17.8234 87.4112C17.8451 87.7985 17.7925 88.141 17.6655 88.4387C17.5402 88.7363 17.3543 88.9728 17.1078 89.1482C16.863 89.3236 16.5713 89.4207 16.2328 89.4397ZM16.2038 88.9222C16.4609 88.9078 16.6688 88.8301 16.8274 88.6889C16.986 88.5478 17.0991 88.3676 17.1668 88.1483C17.2345 87.9291 17.2613 87.6941 17.2473 87.4435C17.2332 87.1929 17.1803 86.9616 17.0884 86.7497C16.9965 86.5377 16.8639 86.3697 16.6904 86.2455C16.5169 86.1214 16.3016 86.0665 16.0445 86.081C15.7874 86.0954 15.5796 86.174 15.4211 86.3167C15.2626 86.4594 15.1495 86.6413 15.0819 86.8622C15.0143 87.0831 14.9875 87.3188 15.0016 87.5694C15.0156 87.82 15.0686 88.0505 15.1603 88.2609C15.2521 88.4712 15.3847 88.6376 15.5581 88.7601C15.7315 88.8826 15.9467 88.9367 16.2038 88.9222ZM21.0836 87.5516L20.9594 85.3352L21.5354 85.3029L21.7457 89.0522L21.1696 89.0845L21.134 88.4499L21.095 88.4521C21.0178 88.6474 20.8901 88.817 20.7121 88.9608C20.534 89.103 20.3034 89.1821 20.0202 89.198C19.7859 89.2111 19.5747 89.1715 19.3867 89.0792C19.1986 88.9853 19.0466 88.8371 18.9308 88.6347C18.8149 88.4306 18.748 88.1691 18.7301 87.8501L18.5965 85.4677L19.1726 85.4354L19.304 87.7787C19.3193 88.0521 19.408 88.2659 19.5701 88.4201C19.7338 88.5741 19.9353 88.6444 20.1745 88.631C20.3177 88.623 20.4613 88.5782 20.6053 88.4967C20.7509 88.4151 20.8699 88.2957 20.9623 88.1387C21.0563 87.9817 21.0968 87.7859 21.0836 87.5516ZM22.8008 88.9931L22.5905 85.2437L23.1471 85.2125L23.1788 85.7788L23.2179 85.7767C23.2758 85.5873 23.3911 85.4298 23.5636 85.3043C23.7361 85.1787 23.9347 85.1096 24.1592 85.097C24.2016 85.0946 24.2545 85.0925 24.318 85.0906C24.3816 85.0886 24.4297 85.0884 24.4625 85.0898L24.4953 85.6756C24.4755 85.6719 24.4304 85.667 24.3598 85.6612C24.2908 85.6536 24.2181 85.652 24.1416 85.6563C23.9594 85.6665 23.7988 85.7139 23.6599 85.7984C23.5225 85.8812 23.416 85.9916 23.3405 86.1297C23.2666 86.2661 23.2343 86.4189 23.2438 86.5882L23.3769 88.9608L22.8008 88.9931ZM28.8191 88.734C28.4806 88.7529 28.1791 88.689 27.9146 88.5423C27.6517 88.3954 27.4405 88.1811 27.2811 87.8995C27.1233 87.6178 27.0335 87.2833 27.0118 86.896C26.9899 86.5054 27.0416 86.1605 27.1668 85.8613C27.2937 85.562 27.4795 85.3247 27.7243 85.1493C27.9708 84.9739 28.2633 84.8767 28.6017 84.8577C28.9402 84.8387 29.2409 84.9027 29.5038 85.0495C29.7683 85.1963 29.9795 85.4114 30.1375 85.6947C30.297 85.978 30.3877 86.3149 30.4096 86.7054C30.4313 87.0927 30.3787 87.4352 30.2518 87.7329C30.1264 88.0305 29.9405 88.267 29.6941 88.4425C29.4492 88.6178 29.1576 88.715 28.8191 88.734ZM28.7901 88.2165C29.0472 88.2021 29.2551 88.1243 29.4137 87.9832C29.5722 87.842 29.6854 87.6618 29.7531 87.4426C29.8208 87.2233 29.8476 86.9884 29.8335 86.7377C29.8195 86.4871 29.7665 86.2559 29.6747 86.0439C29.5828 85.8319 29.4501 85.6639 29.2766 85.5398C29.1032 85.4156 28.8879 85.3608 28.6308 85.3752C28.3736 85.3896 28.1658 85.4682 28.0073 85.6109C27.8488 85.7537 27.7358 85.9355 27.6682 86.1564C27.6006 86.3773 27.5738 86.6131 27.5879 86.8637C27.6019 87.1143 27.6548 87.3447 27.7466 87.5551C27.8384 87.7654 27.971 87.9318 28.1443 88.0543C28.3177 88.1768 28.533 88.2309 28.7901 88.2165ZM31.393 88.5113L31.1828 84.7619L31.7393 84.7307L31.7711 85.297L31.8101 85.2948C31.8681 85.1055 31.9833 84.948 32.1558 84.8225C32.3283 84.6969 32.5269 84.6278 32.7515 84.6152C32.7938 84.6128 32.8467 84.6107 32.9103 84.6088C32.9738 84.6068 33.022 84.6066 33.0547 84.608L33.0875 85.1938C33.0677 85.19 33.0226 85.1852 32.9521 85.1794C32.8831 85.1718 32.8103 85.1702 32.7338 85.1745C32.5516 85.1847 32.391 85.2321 32.2521 85.3166C32.1147 85.3994 32.0083 85.5098 31.9328 85.6479C31.8588 85.7843 31.8265 85.9371 31.836 86.1063L31.9691 88.479L31.393 88.5113ZM35.2566 88.373C34.9441 88.3905 34.6639 88.327 34.4158 88.1826C34.1676 88.0365 33.9679 87.8225 33.8166 87.5404C33.6652 87.2567 33.5784 86.9163 33.5561 86.5192C33.534 86.1254 33.5824 85.7799 33.7012 85.4826C33.82 85.1854 33.9954 84.9511 34.2274 84.7798C34.4594 84.6084 34.7333 84.5139 35.049 84.4962C35.2931 84.4825 35.4882 84.5124 35.6343 84.5858C35.782 84.6575 35.8961 84.7425 35.9767 84.8408C36.0589 84.9374 36.1229 85.0171 36.1689 85.0798L36.2177 85.0771L36.1142 83.2317L36.6903 83.1994L36.9706 88.1985L36.4141 88.2297L36.3818 87.6536L36.3134 87.6575C36.275 87.7282 36.2196 87.8178 36.1473 87.9264C36.0749 88.0333 35.9686 88.1314 35.8284 88.2209C35.688 88.3088 35.4974 88.3595 35.2566 88.373ZM35.3057 87.8511C35.5367 87.8382 35.7286 87.767 35.8814 87.6376C36.034 87.5066 36.1458 87.3314 36.2167 87.112C36.2876 86.8909 36.3151 86.6388 36.2992 86.3556C36.2835 86.0757 36.2291 85.8331 36.1359 85.6277C36.0427 85.4207 35.9131 85.2631 35.747 85.1549C35.5809 85.045 35.3807 84.9967 35.1463 85.0098C34.9022 85.0235 34.7023 85.0976 34.5466 85.232C34.3925 85.3647 34.2807 85.5399 34.2113 85.7577C34.1434 85.9737 34.1168 86.2135 34.1316 86.4771C34.1466 86.744 34.2009 86.9842 34.2945 87.1977C34.3896 87.4095 34.5213 87.5751 34.6896 87.6947C34.8595 87.8125 35.0648 87.8646 35.3057 87.8511ZM39.682 88.1248C39.3208 88.1451 39.0047 88.0828 38.7337 87.938C38.4643 87.7915 38.2508 87.5782 38.093 87.2981C37.9368 87.0163 37.848 86.6834 37.8264 86.2993C37.8049 85.9153 37.8559 85.5729 37.9794 85.2721C38.1045 84.9696 38.2885 84.7292 38.5315 84.5506C38.7761 84.3704 39.0676 84.2708 39.4061 84.2518C39.6014 84.2409 39.796 84.2626 39.9901 84.317C40.1841 84.3715 40.3634 84.4675 40.5278 84.6052C40.6921 84.7413 40.8274 84.9263 40.9336 85.1603C41.0397 85.3944 41.1026 85.6863 41.1223 86.0362L41.1359 86.2803L38.2458 86.4423L38.2179 85.9444L40.5222 85.8152C40.5103 85.6036 40.4574 85.4172 40.3635 85.256C40.2712 85.0946 40.1451 84.9703 39.9851 84.883C39.8267 84.7955 39.6434 84.7577 39.4351 84.7693C39.2057 84.7822 39.0103 84.8503 38.8491 84.9736C38.6894 85.0952 38.5699 85.2488 38.4905 85.4345C38.4111 85.6201 38.3772 85.8163 38.3888 86.0229L38.4074 86.3549C38.4233 86.6381 38.4856 86.8754 38.5943 87.0668C38.7045 87.2565 38.8504 87.3977 39.0319 87.4904C39.2133 87.5814 39.4203 87.6204 39.653 87.6073C39.8044 87.5989 39.9399 87.57 40.0595 87.5209C40.1808 87.47 40.2837 87.3989 40.3684 87.3077C40.4529 87.2148 40.516 87.1019 40.5575 86.9689L41.1228 87.094C41.0748 87.286 40.9857 87.4575 40.8554 87.6085C40.725 87.7578 40.5603 87.8781 40.3614 87.9692C40.1623 88.0587 39.9359 88.1106 39.682 88.1248ZM42.1064 87.9105L41.8962 84.1612L42.4527 84.13L42.4845 84.6963L42.5235 84.6941C42.5815 84.5048 42.6967 84.3473 42.8692 84.2217C43.0418 84.0961 43.2403 84.0271 43.4649 84.0145C43.5072 84.0121 43.5601 84.0099 43.6237 84.008C43.6872 84.0061 43.7354 84.0058 43.7681 84.0072L43.801 84.5931C43.7812 84.5893 43.736 84.5845 43.6655 84.5786C43.5965 84.5711 43.5238 84.5694 43.4473 84.5737C43.265 84.584 43.1044 84.6313 42.9655 84.7158C42.8281 84.7986 42.7217 84.9091 42.6462 85.0472C42.5722 85.1835 42.54 85.3364 42.5494 85.5056L42.6825 87.8782L42.1064 87.9105ZM44.8816 82.7401L44.9779 84.4585L44.4409 84.4886L44.3446 82.7702L44.8816 82.7401ZM48.6803 84.6231L48.1711 84.7986C48.1337 84.7142 48.081 84.633 48.013 84.5552C47.9465 84.4757 47.858 84.4121 47.7476 84.3644C47.6372 84.3168 47.4982 84.2976 47.3306 84.307C47.1011 84.3199 46.9129 84.3835 46.7658 84.4978C46.6203 84.6105 46.5521 84.7473 46.5611 84.9084C46.5692 85.0517 46.6276 85.1618 46.7364 85.239C46.8452 85.3161 47.0118 85.3762 47.2362 85.4191L47.8004 85.5246C48.1402 85.5871 48.397 85.6976 48.5707 85.856C48.7444 86.0128 48.8386 86.2222 48.8533 86.4842C48.8653 86.699 48.8142 86.8945 48.7001 87.0706C48.5875 87.2467 48.4241 87.3898 48.2099 87.4997C47.9957 87.6097 47.7429 87.6728 47.4517 87.6891C47.0692 87.7106 46.7481 87.6453 46.4882 87.4934C46.2282 87.3415 46.056 87.1079 45.9714 86.7927L46.5105 86.6253C46.5739 86.8242 46.6808 86.97 46.8313 87.0628C46.9834 87.1555 47.1775 87.1952 47.4134 87.182C47.6819 87.1669 47.8919 87.098 48.0434 86.9752C48.1964 86.8508 48.2683 86.708 48.2593 86.5469C48.252 86.4167 48.2003 86.3102 48.1043 86.2274C48.0081 86.143 47.8644 86.0842 47.6732 86.0508L47.0401 85.9394C46.6922 85.8773 46.4329 85.7653 46.2622 85.6035C46.093 85.4399 46.0012 85.2288 45.9867 84.97C45.9748 84.7585 46.0237 84.568 46.1334 84.3986C46.2447 84.2291 46.4011 84.0922 46.6026 83.9879C46.8057 83.8834 47.039 83.8238 47.3026 83.8091C47.6737 83.7882 47.9695 83.8533 48.1902 84.0041C48.4125 84.1549 48.5759 84.3612 48.6803 84.6231ZM53.1716 83.5289L53.199 84.0171L51.1779 84.1305L51.1505 83.6423L53.1716 83.5289ZM51.9661 87.3576L51.7269 83.0908C51.7148 82.876 51.7552 82.6942 51.8481 82.5453C51.9409 82.3965 52.0659 82.2817 52.223 82.2011C52.3801 82.1204 52.5482 82.0751 52.7272 82.0651C52.8687 82.0571 52.9849 82.062 53.0757 82.0798C53.1665 82.0976 53.2344 82.115 53.2794 82.132L53.1413 82.6393C53.1115 82.6312 53.0701 82.6213 53.0172 82.6095C52.966 82.5977 52.8988 82.5941 52.8159 82.5988C52.6255 82.6095 52.4906 82.6652 52.4114 82.7659C52.3338 82.8666 52.3002 83.0097 52.3106 83.1952L52.5422 87.3253L51.9661 87.3576ZM54.1892 87.233L53.979 83.4837L54.5355 83.4524L54.5673 84.0187L54.6063 84.0166C54.6643 83.8272 54.7795 83.6698 54.952 83.5442C55.1246 83.4186 55.3231 83.3495 55.5477 83.3369C55.59 83.3345 55.6429 83.3324 55.7065 83.3305C55.77 83.3285 55.8182 83.3283 55.8509 83.3297L55.8838 83.9155C55.864 83.9118 55.8188 83.9069 55.7483 83.9011C55.6793 83.8935 55.6066 83.8919 55.5301 83.8962C55.3478 83.9064 55.1872 83.9538 55.0483 84.0383C54.9109 84.1211 54.8045 84.2315 54.729 84.3696C54.655 84.506 54.6228 84.6588 54.6323 84.8281L54.7653 87.2007L54.1892 87.233ZM58.209 87.0859C57.8477 87.1062 57.5316 87.0439 57.2607 86.8991C56.9913 86.7526 56.7777 86.5393 56.62 86.2592C56.4638 85.9774 56.375 85.6445 56.3534 85.2605C56.3319 84.8764 56.3829 84.534 56.5064 84.2332C56.6315 83.9308 56.8155 83.6903 57.0585 83.5118C57.3031 83.3315 57.5946 83.2319 57.9331 83.213C58.1283 83.202 58.323 83.2237 58.5171 83.2782C58.7111 83.3326 58.8903 83.4286 59.0548 83.5663C59.2191 83.7024 59.3544 83.8874 59.4605 84.1215C59.5667 84.3555 59.6296 84.6474 59.6492 84.9973L59.6629 85.2414L56.7728 85.4034L56.7449 84.9055L59.0492 84.7763C59.0373 84.5647 58.9844 84.3783 58.8905 84.2171C58.7982 84.0558 58.672 83.9314 58.5121 83.8441C58.3537 83.7566 58.1704 83.7188 57.9621 83.7304C57.7326 83.7433 57.5373 83.8114 57.3761 83.9347C57.2164 84.0563 57.0968 84.2099 57.0175 84.3956C56.9381 84.5812 56.9042 84.7774 56.9158 84.9841L56.9344 85.316C56.9503 85.5992 57.0126 85.8365 57.1212 86.0279C57.2315 86.2176 57.3773 86.3588 57.5588 86.4515C57.7402 86.5425 57.9473 86.5815 58.18 86.5684C58.3313 86.56 58.4668 86.5311 58.5865 86.482C58.7077 86.4311 58.8107 86.36 58.8953 86.2688C58.9799 86.1759 59.043 86.063 59.0845 85.9301L59.6498 86.0551C59.6018 86.2471 59.5126 86.4186 59.3823 86.5696C59.252 86.7189 59.0873 86.8392 58.8884 86.9303C58.6893 87.0198 58.4629 87.0717 58.209 87.0859ZM62.2098 86.8616C61.8485 86.8818 61.5324 86.8196 61.2615 86.6748C60.9921 86.5283 60.7785 86.315 60.6208 86.0349C60.4646 85.7531 60.3757 85.4202 60.3542 85.0361C60.3326 84.6521 60.3836 84.3097 60.5072 84.0089C60.6322 83.7064 60.8162 83.4659 61.0593 83.2874C61.3038 83.1072 61.5953 83.0076 61.9338 82.9886C62.1291 82.9777 62.3238 82.9994 62.5178 83.0538C62.7119 83.1082 62.8911 83.2043 63.0555 83.342C63.2199 83.4781 63.3551 83.6631 63.4613 83.8971C63.5675 84.1311 63.6304 84.4231 63.65 84.7729L63.6637 85.017L60.7736 85.1791L60.7456 84.6811L63.0499 84.5519C63.0381 84.3404 62.9852 84.154 62.8912 83.9927C62.7989 83.8314 62.6728 83.7071 62.5128 83.6197C62.3545 83.5323 62.1711 83.4944 61.9628 83.5061C61.7334 83.519 61.538 83.5871 61.3768 83.7104C61.2171 83.832 61.0976 83.9856 61.0182 84.1712C60.9389 84.3569 60.905 84.553 60.9165 84.7597L60.9352 85.0917C60.951 85.3748 61.0133 85.6121 61.122 85.8036C61.2322 85.9933 61.3781 86.1345 61.5596 86.2271C61.741 86.3182 61.948 86.3572 62.1807 86.3441C62.3321 86.3356 62.4676 86.3068 62.5873 86.2576C62.7085 86.2068 62.8114 86.1357 62.8961 86.0444C62.9807 85.9515 63.0437 85.8386 63.0852 85.7057L63.6505 85.8307C63.6025 86.0228 63.5134 86.1943 63.3831 86.3452C63.2527 86.4946 63.088 86.6148 62.8891 86.706C62.6901 86.7955 62.4636 86.8474 62.2098 86.8616ZM68.164 87.9381C67.8857 87.9537 67.6445 87.9313 67.4404 87.871C67.2363 87.8122 67.0643 87.7288 66.9243 87.6208C66.7861 87.5142 66.6743 87.3981 66.5889 87.2723L67.0298 86.9243C67.0857 86.9898 67.156 87.0642 67.2406 87.1476C67.3254 87.2326 67.4387 87.3038 67.5807 87.3611C67.7244 87.42 67.9094 87.4431 68.1355 87.4304C68.4382 87.4134 68.6839 87.3262 68.8726 87.1687C69.0613 87.0112 69.1469 86.7762 69.1294 86.4638L69.0867 85.7022L69.0378 85.7049C68.9994 85.7757 68.9439 85.8637 68.8714 85.9689C68.8005 86.0725 68.6948 86.1674 68.5544 86.2536C68.4155 86.3381 68.224 86.3872 67.9799 86.4009C67.6772 86.4179 67.4014 86.3615 67.1525 86.2318C66.9053 86.102 66.704 85.9044 66.5488 85.6388C66.3951 85.3732 66.3073 85.0451 66.2854 84.6545C66.2639 84.2705 66.3127 83.9323 66.4318 83.6399C66.5508 83.346 66.7263 83.1141 66.9584 82.9444C67.1904 82.773 67.4642 82.6785 67.7799 82.6608C68.024 82.6471 68.22 82.6769 68.3677 82.7503C68.517 82.8219 68.6328 82.9068 68.715 83.005C68.7988 83.1016 68.8637 83.1812 68.9096 83.2439L68.9682 83.2406L68.9348 82.645L69.4914 82.6138L69.7076 86.4705C69.7257 86.7927 69.6672 87.0588 69.532 87.2688C69.3986 87.4804 69.2117 87.6402 68.9712 87.7484C68.7325 87.8581 68.4634 87.9213 68.164 87.9381ZM68.029 85.879C68.26 85.8661 68.4524 85.8022 68.6059 85.6875C68.7594 85.5728 68.8722 85.4139 68.944 85.2107C69.0159 85.0075 69.044 84.7676 69.0285 84.4909C69.0134 84.2208 68.9593 83.9847 68.8664 83.7826C68.7734 83.5805 68.6439 83.4253 68.4779 83.3171C68.3118 83.2089 68.1116 83.1613 67.8773 83.1744C67.6332 83.1881 67.4333 83.2614 67.2775 83.3942C67.1233 83.5269 67.0114 83.6997 66.9417 83.9125C66.8736 84.1253 66.8467 84.3586 66.861 84.6125C66.8756 84.8728 66.9291 85.1008 67.0217 85.2964C67.1159 85.4903 67.2467 85.6397 67.4142 85.7446C67.5832 85.8477 67.7881 85.8925 68.029 85.879ZM70.7561 86.304L70.5459 82.5547L71.1219 82.5224L71.3322 86.2717L70.7561 86.304ZM70.8037 81.9134C70.6915 81.9197 70.5925 81.8868 70.5068 81.8149C70.4228 81.7429 70.3778 81.6532 70.3718 81.5458C70.3657 81.4384 70.4004 81.3442 70.4759 81.2633C70.553 81.1822 70.6477 81.1385 70.7599 81.1322C70.8722 81.1259 70.9704 81.1588 71.0544 81.2308C71.1401 81.3027 71.1859 81.3924 71.1919 81.4998C71.1979 81.6072 71.1624 81.7014 71.0853 81.7825C71.0099 81.8634 70.916 81.9071 70.8037 81.9134ZM73.8467 82.3696L73.874 82.8578L71.8529 82.9711L71.8255 82.4829L73.8467 82.3696ZM72.6411 86.1983L72.4019 81.9315C72.3898 81.7167 72.4302 81.5348 72.5231 81.386C72.616 81.2371 72.7409 81.1224 72.898 81.0417C73.0551 80.9611 73.2232 80.9158 73.4022 80.9057C73.5438 80.8978 73.6599 80.9027 73.7507 80.9205C73.8415 80.9382 73.9094 80.9556 73.9544 80.9727L73.8164 81.48C73.7865 81.4718 73.7452 81.4619 73.6923 81.4502C73.641 81.4384 73.5739 81.4348 73.4909 81.4395C73.3005 81.4501 73.1657 81.5058 73.0864 81.6066C73.0088 81.7073 72.9752 81.8504 72.9856 82.0359L73.2172 86.166L72.6411 86.1983ZM76.2846 82.2329L76.312 82.7211L74.3689 82.83L74.3416 82.3418L76.2846 82.2329ZM74.8575 81.4118L75.4336 81.3795L75.634 84.9531C75.6431 85.1158 75.6735 85.2365 75.7253 85.3152C75.7786 85.3923 75.8434 85.4425 75.9198 85.466C75.9978 85.4877 76.0791 85.4962 76.1637 85.4915C76.2271 85.4879 76.279 85.4817 76.3194 85.4729C76.3596 85.4625 76.3918 85.4542 76.4159 85.4479L76.5621 85.9588C76.5238 85.9757 76.4702 85.9934 76.401 86.012C76.3319 86.0322 76.2437 86.0453 76.1363 86.0513C75.9736 86.0604 75.8121 86.0344 75.652 85.9731C75.4935 85.9118 75.3589 85.8125 75.2484 85.675C75.1395 85.5375 75.0789 85.3597 75.0667 85.1416L74.8575 81.4118Z" fill="#8B628D"/>
</g>
</g>
</g>
<defs>
<filter id="filter0_d_6773_22705" x="52.1316" y="-2.11833" width="219.182" height="136.743" filterUnits="userSpaceOnUse" color-interpolation-filters="sRGB">
<feFlood flood-opacity="0" result="BackgroundImageFix"/>
<feColorMatrix in="SourceAlpha" type="matrix" values="0 0 0 0 0 0 0 0 0 0 0 0 0 0 0 0 0 0 127 0" result="hardAlpha"/>
<feOffset dy="1.05917"/>
<feGaussianBlur stdDeviation="1.58875"/>
<feComposite in2="hardAlpha" operator="out"/>
<feColorMatrix type="matrix" values="0 0 0 0 0 0 0 0 0 0 0 0 0 0 0 0 0 0 0.08 0"/>
<feBlend mode="normal" in2="BackgroundImageFix" result="effect1_dropShadow_6773_22705"/>
<feBlend mode="normal" in="SourceGraphic" in2="effect1_dropShadow_6773_22705" result="shape"/>
</filter>
<filter id="filter1_d_6773_22705" x="-5.19455" y="46.1359" width="222.107" height="121.272" filterUnits="userSpaceOnUse" color-interpolation-filters="sRGB">
<feFlood flood-opacity="0" result="BackgroundImageFix"/>
<feColorMatrix in="SourceAlpha" type="matrix" values="0 0 0 0 0 0 0 0 0 0 0 0 0 0 0 0 0 0 127 0" result="hardAlpha"/>
<feOffset dy="1.38353"/>
<feGaussianBlur stdDeviation="2.0753"/>
<feComposite in2="hardAlpha" operator="out"/>
<feColorMatrix type="matrix" values="0 0 0 0 0 0 0 0 0 0 0 0 0 0 0 0 0 0 0.03 0"/>
<feBlend mode="normal" in2="BackgroundImageFix" result="effect1_dropShadow_6773_22705"/>
<feBlend mode="normal" in="SourceGraphic" in2="effect1_dropShadow_6773_22705" result="shape"/>
</filter>
<linearGradient id="paint0_linear_6773_22705" x1="95.6313" y1="1.22418e-06" x2="176.526" y2="104.136" gradientUnits="userSpaceOnUse">
<stop stop-color="#483349"/>
<stop offset="1" stop-color="#664B67"/>
</linearGradient>
<linearGradient id="paint1_linear_6773_22705" x1="29.1948" y1="60.5735" x2="100.559" y2="163.846" gradientUnits="userSpaceOnUse">
<stop stop-color="#FBD8FD"/>
<stop offset="1" stop-color="#FCE7FD"/>
</linearGradient>
<clipPath id="clip0_6773_22705">
<rect width="267" height="92" fill="white"/>
</clipPath>
<clipPath id="clip1_6773_22705">
<rect x="66.1953" width="202.918" height="111.027" rx="4.76624" transform="rotate(5.62694 66.1953 0)" fill="white"/>
</clipPath>
<clipPath id="clip2_6773_22705">
<rect x="-1.04395" y="60.5735" width="208.453" height="101.459" rx="4.76624" transform="rotate(-3.20948 -1.04395 60.5735)" fill="white"/>
</clipPath>
</defs>
</svg>
