<svg width="634" height="230" viewBox="0 0 634 230" fill="none" xmlns="http://www.w3.org/2000/svg">
<g clip-path="url(#clip0_7224_52618)">
<g filter="url(#filter0_d_7224_52618)">
<g clip-path="url(#clip1_7224_52618)">
<rect x="61.123" y="21.0562" width="365.996" height="220.076" rx="9.44758" transform="rotate(3 61.123 21.0562)" fill="url(#paint0_linear_7224_52618)"/>
<rect x="61.123" y="21.0562" width="365.996" height="220.076" rx="9.44758" transform="rotate(3 61.123 21.0562)" fill="url(#paint1_linear_7224_52618)"/>
<g opacity="0.05">
<path d="M359.634 66.5419L348.063 68.5728C354.425 67.4321 359.027 66.1696 359.081 66.1546C359.068 65.9897 356.351 32.1801 344.512 23.8762C332.644 15.5532 316.275 18.4261 307.951 30.2939C299.627 42.1619 302.501 58.5311 314.369 66.8553C321.786 72.0574 337.398 70.4853 348.063 68.5728L302.37 76.5935C296.045 77.7038 290.017 73.4763 288.907 67.1511L280.866 21.3404C279.756 15.0152 283.983 8.98764 290.308 7.87737L336.119 -0.163909C342.444 -1.27418 348.472 2.95331 349.582 9.27846L359.634 66.5419Z" fill="white"/>
<path d="M320.96 39.4181C327.016 30.7851 338.923 28.6944 347.556 34.7496C356.157 40.7838 358.14 65.3215 358.154 65.5045C357.978 65.5529 334.232 72.0448 325.629 66.0143C316.996 59.9588 314.906 48.0517 320.96 39.4181Z" fill="white"/>
<path d="M371.084 64.5251L382.654 62.4942C376.284 63.5882 371.528 63.9684 371.471 63.9729C371.428 63.8134 362.467 31.0997 370.771 19.2601C379.095 7.39269 395.464 4.51892 407.332 12.8424C419.2 21.1661 422.073 37.5355 413.75 49.4038C408.547 56.8212 393.333 60.6599 382.654 62.4942L428.348 54.4735C434.673 53.3632 438.9 47.3356 437.79 41.0105L429.749 -4.80023C428.638 -11.1254 422.611 -15.3529 416.286 -14.2426L370.475 -6.20133C364.15 -5.09106 359.922 0.936535 361.032 7.26168L371.084 64.5251Z" fill="white"/>
<path d="M398.208 25.8518C389.574 19.7973 377.667 21.8868 371.612 30.5203C365.58 39.1229 372.073 62.8689 372.121 63.046C372.304 63.0314 396.841 61.0481 402.876 52.448C408.931 43.8145 406.841 31.9073 398.208 25.8518Z" fill="white"/>
<path d="M373.095 75.9776L384.665 73.9467C378.304 75.0874 373.702 76.35 373.647 76.3649C373.66 76.5298 376.377 110.339 388.216 118.643C400.084 126.966 416.454 124.093 424.778 112.226C433.101 100.358 430.227 83.9884 418.36 75.6643C410.942 70.4621 395.331 72.0342 384.665 73.9467L430.358 65.926C436.684 64.8158 442.711 69.0433 443.821 75.3684L451.863 121.179C452.973 127.504 448.746 133.532 442.42 134.642L396.61 142.683C390.284 143.794 384.257 139.566 383.147 133.241L373.095 75.9776Z" fill="white"/>
<path d="M411.768 103.101C405.713 111.734 393.806 113.825 385.172 107.77C376.571 101.736 374.589 77.198 374.574 77.015C374.751 76.9666 398.496 70.4748 407.1 76.5052C415.733 82.5607 417.823 94.4679 411.768 103.101Z" fill="white"/>
<path d="M361.646 77.9949L350.076 80.0258C356.446 78.9318 361.203 78.5516 361.259 78.5471C361.303 78.7066 370.263 111.42 361.96 123.26C353.636 135.127 337.266 138.001 325.398 129.678C313.53 121.354 310.658 104.984 318.981 93.1162C324.183 85.6988 339.397 81.8601 350.076 80.0258L304.383 88.0465C298.058 89.1568 293.83 95.1844 294.941 101.51L302.982 147.32C304.092 153.645 310.12 157.873 316.445 156.763L362.256 148.721C368.581 147.611 372.808 141.583 371.698 135.258L361.646 77.9949Z" fill="white"/>
<path d="M334.523 116.668C343.156 122.723 355.064 120.633 361.119 112C367.15 103.397 360.658 79.6511 360.609 79.474C360.426 79.4886 335.89 81.4719 329.854 90.072C323.8 98.7056 325.89 110.613 334.523 116.668Z" fill="white"/>
</g>
<path d="M80.723 58.0758L81.8248 44.8419L85.1574 45.1194L84.0555 58.3532L80.723 58.0758ZM87.6081 58.649L88.7099 45.4152L98.6305 46.2412C99.4909 46.3128 100.227 46.5616 100.838 46.9875C101.449 47.4133 101.906 47.9752 102.21 48.6729C102.515 49.3578 102.632 50.1304 102.56 50.9908C102.489 51.8513 102.238 52.6063 101.809 53.2559C101.394 53.8938 100.844 54.3716 100.158 54.6895C99.4717 55.0074 98.6985 55.1305 97.8381 55.0589L91.3079 54.5152L90.9406 58.9265L87.6081 58.649ZM91.5276 51.8761L97.1332 52.3429C97.7753 52.3963 98.2826 52.2834 98.655 52.004C99.0274 51.7247 99.2371 51.3025 99.2841 50.7375C99.3151 50.365 99.2643 50.044 99.1316 49.7743C98.9999 49.4918 98.7859 49.2671 98.4894 49.1002C98.2069 48.9215 97.8537 48.8145 97.4299 48.7792L91.8243 48.3125L91.5276 51.8761Z" fill="white"/>
<path d="M120.941 50.9396L123.377 51.1424C124.618 51.2457 125.172 51.8109 125.083 52.8813L124.816 56.0927C124.726 57.1632 124.086 57.6289 122.845 57.5256L118.962 57.2022L118.701 60.3343C118.656 60.8696 118.935 61.1323 119.572 61.2652C120.414 61.4351 121.701 61.5422 122.536 61.512C123.163 61.4844 123.484 61.2515 123.527 60.7361L123.659 59.1502L126.413 59.6989L126.238 61.8002C126.144 62.9302 125.154 63.706 123.767 63.6904C121.94 63.678 119.734 63.4943 117.976 63.2082C116.605 62.9943 115.757 62.0654 115.851 60.9354L116.17 57.1095C114.296 59.6083 111.046 61.3937 105.818 62.4954L105.281 60.0553C109.042 59.3504 111.496 58.2174 113.079 56.7124L110 56.456C108.759 56.3527 108.204 55.7876 108.293 54.7171L108.564 51.466C108.131 51.6695 107.676 51.8512 107.198 52.031L106.694 49.7534C109.823 48.5767 111.961 47.078 113.161 45.1619L115.804 45.3819C115.559 45.8206 115.292 46.2575 115.002 46.6725L121.506 47.214C123.229 47.3575 123.798 48.862 122.542 49.7754L120.941 50.9396ZM118.087 52.6981C117.924 53.5428 117.674 54.3205 117.357 55.0725L121.815 55.4437C122.045 55.4628 122.168 55.3733 122.185 55.1751L122.337 53.3513C122.353 53.1531 122.246 53.0444 122.017 53.0252L118.087 52.6981ZM117.356 50.6411L119.62 49.0132L113.37 48.4928C112.72 49.0774 112.004 49.6166 111.175 50.1264L117.356 50.6411ZM115.307 52.4666L111.561 52.1547C111.331 52.1356 111.208 52.2251 111.192 52.4234L111.04 54.2471C111.023 54.4454 111.13 54.5541 111.36 54.5732L114.485 54.8334C114.869 54.1069 115.144 53.3113 115.307 52.4666Z" fill="white"/>
<path d="M147.854 58.4101C147.95 58.6377 147.996 58.921 147.97 59.2382L147.674 62.7866L145.009 62.5647L145.25 59.6704C145.265 59.492 145.137 59.3616 144.93 59.3444L133.923 58.4279C133.716 58.4107 133.568 58.5182 133.553 58.6966L133.312 61.5908L130.647 61.3689L130.942 57.8205C130.952 57.7015 130.96 57.6024 130.992 57.5052C130.547 57.568 130.058 57.6071 129.544 57.6641L129.011 55.444C131.349 55.439 132.941 55.2123 133.992 54.8207L131.763 54.6351C130.752 54.551 130.179 53.9244 130.344 53.0598L130.597 51.6837C130.762 50.8191 131.546 50.2856 132.558 50.3698L136.004 50.6568L136.079 49.7647L130.472 49.2979L130.407 47.5758L136.221 48.0599L136.302 47.0885L138.921 47.3067L138.84 48.278L141.575 48.5057L141.656 47.5343L144.275 47.7524L144.194 48.7238L147.917 49.0337C148.905 49.116 149.547 49.7483 149.474 50.6205L149.359 52.0082C149.286 52.8804 148.547 53.4177 147.559 53.3355L143.836 53.0255L143.762 53.9176L148.197 54.2868C149.208 54.371 149.656 54.8275 149.675 55.7074C149.718 56.3097 149.69 56.9262 149.538 57.3527C149.41 58.0606 148.663 58.4176 147.854 58.4101ZM144.908 57.3864L144.628 56.3051C145.532 56.56 146.405 56.6327 146.774 56.6435C147.006 56.6428 147.032 56.6051 147.07 56.4286C147.103 56.3116 147.134 56.2144 147.096 56.1114C147.088 55.9311 147.09 55.9113 146.906 55.896L143.62 55.6224L143.529 56.7127L140.91 56.4946L141 55.4043L137.691 55.1288C137.227 55.7089 136.493 56.1867 135.371 56.5924L144.908 57.3864ZM143.978 51.3207L146.46 51.5273C146.667 51.5445 146.788 51.4748 146.803 51.2964L146.833 50.9396C146.846 50.781 146.764 50.6544 146.534 50.6353L144.053 50.4286L143.978 51.3207ZM140.576 61.3373C142.337 62.7015 145.112 63.5513 149.44 64.0913L148.746 66.3091C143.932 65.4891 140.885 64.5767 139.141 63.0142C137.482 64.0339 134.358 64.5922 128.987 64.6241L128.6 62.3362C135.507 62.4721 137.912 61.6544 138.027 60.2667L138.105 59.335L140.816 59.5608L140.737 60.5123C140.712 60.8097 140.666 61.0853 140.576 61.3373ZM141.142 53.6995L141.217 52.8074L138.482 52.5797L138.449 52.9762C138.434 53.1546 138.421 53.3132 138.385 53.4699L141.142 53.6995ZM141.359 51.1026L141.433 50.2105L138.698 49.9828L138.624 50.8749L141.359 51.1026ZM135.863 52.3616L133.404 52.1569C133.197 52.1397 133.12 52.233 133.061 52.3878L132.967 52.6794C132.927 52.8757 133.054 53.026 133.284 53.0451L135.742 53.2498C135.778 53.0932 135.815 52.9365 135.83 52.7581L135.863 52.3616Z" fill="white"/>
<path d="M158.301 52.4333L153.565 50.6816L153.74 48.5804L158.476 50.3321L158.301 52.4333ZM165.044 52.0367L162.425 51.8185L161.763 49.2084L164.336 49.4227L165.044 52.0367ZM169.975 52.8464L172.617 53.0664L172.452 55.0488L167.167 54.6087L166.989 56.7497L172.894 57.2414L172.729 59.2237L167.651 58.8009C168.443 60.4038 169.836 61.7374 172.483 62.7363L171.786 64.9938C168.537 63.7252 166.745 62.1787 165.667 60.3923C164.378 61.9816 162.088 63.0884 158.644 63.8795L158.167 61.5444C161.262 60.784 163.041 59.974 163.813 58.4814L158.85 58.0681L158.785 56.0666L164.277 56.5239L164.455 54.383L159.699 53.9869L159.634 51.9854L167.355 52.6283L168.748 49.7901L171.322 50.0043L169.975 52.8464ZM157.015 60.9295C157.047 63.6069 158.803 64.4716 161.307 64.6802L172.705 65.6292L171.933 67.6807L161.086 66.7777C158.122 66.5309 156.363 65.4263 155.666 63.7913C155.196 64.7103 153.884 65.7389 151.973 66.458L151.359 64.3908C153.037 63.6922 154.244 62.2557 154.387 60.8105L154.79 55.9735C154.806 55.7753 154.657 55.6231 154.427 55.604L152.727 55.4624L152.662 53.4609L155.787 53.7211C156.982 53.8206 157.558 54.4075 157.474 55.4185L157.015 60.9295Z" fill="white"/>
<path d="M84.3083 71.2324L85.2491 71.5455C84.923 72.255 84.5173 72.9257 84.032 73.5575C83.5558 74.1901 83.0609 74.7152 82.5473 75.1329C82.4978 75.0643 82.4307 74.9851 82.3461 74.8951C82.2615 74.8052 82.172 74.7195 82.0774 74.638C81.9837 74.5473 81.9021 74.4761 81.8328 74.4243C82.3334 74.0515 82.8005 73.5839 83.234 73.0215C83.6767 72.4598 84.0348 71.8634 84.3083 71.2324ZM83.967 74.6709L84.9204 74.9988C84.656 75.5201 84.3379 76.0231 83.9661 76.5078C83.5943 76.9926 83.2202 77.3942 82.8438 77.7128C82.7927 77.6625 82.715 77.6008 82.6105 77.5277C82.516 77.4461 82.4211 77.3692 82.3259 77.2968C82.2306 77.2244 82.1391 77.1616 82.0515 77.1082C82.4439 76.8186 82.8055 76.4573 83.1361 76.0244C83.4676 75.5824 83.7445 75.1312 83.967 74.6709ZM84.073 72.5664L90.0126 73.0605L89.9384 73.9522L83.6422 73.4284L84.073 72.5664ZM86.0381 73.3514L87.0257 73.4336L86.6286 78.2072C86.6073 78.4633 86.5586 78.6618 86.4824 78.8028C86.4062 78.9438 86.2687 79.0475 86.0698 79.1138C85.8808 79.1717 85.6392 79.1977 85.3451 79.1916C85.0608 79.1772 84.6992 79.1517 84.2603 79.1152C84.2534 78.9765 84.2248 78.8222 84.1745 78.6523C84.1249 78.4732 84.0689 78.3166 84.0064 78.1825C84.3257 78.2182 84.6133 78.2468 84.8694 78.2681C85.1346 78.2901 85.3084 78.3046 85.3907 78.3114C85.4829 78.3099 85.5438 78.2966 85.5736 78.2714C85.6124 78.247 85.6353 78.1937 85.6421 78.1114L86.0381 73.3514ZM87.6319 75.2796L88.512 74.9937C88.7163 75.3054 88.9091 75.6437 89.0905 76.0087C89.272 76.3737 89.4309 76.7322 89.5674 77.0843C89.7137 77.428 89.8258 77.7412 89.9036 78.0239L88.9766 78.3749C88.8988 78.0922 88.7917 77.7748 88.6552 77.4228C88.5195 77.0616 88.3613 76.6939 88.1807 76.3198C88 75.9456 87.8171 75.5989 87.6319 75.2796ZM89.7245 73.0366L89.8892 73.0503L90.056 73.0365L90.7545 73.2742C90.5549 73.6811 90.3351 74.1095 90.0951 74.5591C89.865 75.0004 89.6506 75.3647 89.4517 75.652L88.5886 75.4006C88.7685 75.1209 88.9631 74.7734 89.1726 74.3581C89.3821 73.9427 89.5623 73.5479 89.7131 73.1737L89.7245 73.0366ZM81.2963 79.5454L82.3113 79.6299L82.1037 82.1264C82.0884 82.3093 82.1288 82.4324 82.2249 82.4956C82.3308 82.5505 82.5667 82.5931 82.9325 82.6236C83.0148 82.6304 83.1657 82.643 83.3851 82.6612C83.6138 82.6802 83.8607 82.7008 84.1259 82.7228C84.4002 82.7457 84.6563 82.767 84.8941 82.7867C85.1318 82.8065 85.3101 82.8214 85.429 82.8312C85.6302 82.848 85.7838 82.8285 85.8897 82.7729C86.0048 82.718 86.0897 82.5823 86.1445 82.3659C86.2085 82.1502 86.2683 81.8191 86.3239 81.3725C86.3925 81.4335 86.4793 81.496 86.5845 81.56C86.6905 81.6148 86.7968 81.6651 86.9035 81.7108C87.0193 81.7573 87.1264 81.7984 87.2247 81.8342C87.1326 82.3882 87.0237 82.812 86.898 83.1054C86.7723 83.3988 86.5951 83.5912 86.3665 83.6827C86.1371 83.7833 85.8258 83.8173 85.4326 83.7846C85.3686 83.7793 85.2451 83.769 85.0622 83.7538C84.8793 83.7386 84.6736 83.7214 84.4449 83.7024C84.2163 83.6834 83.9831 83.664 83.7454 83.6442C83.5076 83.6244 83.3018 83.6073 83.1281 83.5929C82.9543 83.5784 82.8354 83.5685 82.7714 83.5632C82.2959 83.5236 81.929 83.4517 81.6706 83.3473C81.4214 83.2437 81.2549 83.0871 81.171 82.8776C81.0864 82.6772 81.0589 82.3986 81.0886 82.042L81.2963 79.5454ZM82.4965 79.2309L83.2463 78.6855C83.5275 78.8471 83.8156 79.0368 84.1105 79.2547C84.4062 79.4634 84.6779 79.684 84.9257 79.9164C85.1825 80.1496 85.3811 80.3641 85.5213 80.5599L84.7384 81.1716C84.5989 80.9666 84.4053 80.7479 84.1576 80.5155C83.9099 80.2831 83.6435 80.0538 83.3585 79.8275C83.0734 79.6012 82.7861 79.4023 82.4965 79.2309ZM86.9399 80.4431L87.8303 80.0337C88.1534 80.3553 88.4648 80.7081 88.7643 81.0921C89.0647 81.467 89.3326 81.8438 89.5681 82.2225C89.8036 82.6012 89.9771 82.9518 90.0884 83.2741L89.1248 83.7326C89.0226 83.411 88.8587 83.0567 88.6331 82.6696C88.4166 82.2833 88.1586 81.8981 87.8591 81.514C87.5694 81.1216 87.263 80.7646 86.9399 80.4431ZM79.6079 79.5845L80.5019 79.9628C80.2771 80.561 79.9899 81.1357 79.6402 81.6867C79.3004 82.2293 78.8413 82.6561 78.263 82.9671L77.4753 82.3077C78.0049 82.0295 78.4419 81.6468 78.7862 81.1598C79.1405 80.6644 79.4144 80.1393 79.6079 79.5845ZM81.6345 70.9961L82.5422 71.3755C82.1933 71.9174 81.7994 72.4463 81.3605 72.9623C80.9216 73.4783 80.4625 73.9604 79.9833 74.4085C79.5139 74.8483 79.0357 75.2275 78.5488 75.5461C78.5183 75.4699 78.4657 75.3827 78.391 75.2844C78.3171 75.1769 78.2386 75.0691 78.1555 74.9609C78.0816 74.8535 78.0107 74.7647 77.9429 74.6946C78.6416 74.2647 79.3175 73.7224 79.9705 73.0677C80.6242 72.4038 81.1789 71.7133 81.6345 70.9961ZM80.1592 73.4563L81.2141 72.5634L81.2404 72.5794L80.7212 78.8208L79.7198 78.7375L80.1592 73.4563ZM97.8896 72.3484L99.0144 72.442L98.5648 77.8466L97.44 77.753L97.8896 72.3484ZM93.1858 72.9378L94.1494 72.645C94.3789 72.9864 94.5969 73.3544 94.8034 73.7491C95.0108 74.1347 95.1952 74.5184 95.3569 74.9002C95.5192 75.2728 95.6385 75.6096 95.7148 75.9106L94.6895 76.2811C94.614 75.971 94.5 75.6254 94.3476 75.2444C94.1958 74.8542 94.0171 74.4572 93.8113 74.0533C93.6146 73.6502 93.4061 73.2784 93.1858 72.9378ZM102.555 73.2199L103.635 73.6827C103.401 74.0592 103.153 74.4437 102.89 74.8362C102.637 75.2203 102.38 75.5949 102.12 75.96C101.859 76.3251 101.611 76.6452 101.377 76.9203L100.514 76.5032C100.741 76.209 100.98 75.8744 101.232 75.4994C101.485 75.1153 101.73 74.7259 101.965 74.3311C102.201 73.9272 102.398 73.5568 102.555 73.2199ZM93.0549 76.8357L103.123 77.6733L102.476 85.4511L101.393 85.3609L101.954 78.612L92.9693 77.8645L93.0549 76.8357ZM93.2566 79.8912L102.2 80.6352L102.118 81.6229L93.1744 80.8789L93.2566 79.8912ZM92.2694 82.9583L102.077 83.7742L101.992 84.803L92.1838 83.9871L92.2694 82.9583ZM105.871 75.1947L118.134 76.2149L118.056 77.1614L105.792 76.1412L105.871 75.1947ZM106.917 79.7292L110.771 80.0499L110.704 80.8592L106.849 80.5386L106.917 79.7292ZM106.734 81.924L110.589 82.2447L110.521 83.054L106.667 82.7333L106.734 81.924ZM113.238 78.128L114.198 78.2079L113.73 83.832L112.77 83.7521L113.238 78.128ZM110.573 77.782L111.574 77.8653L110.984 84.9572C110.963 85.2133 110.91 85.4114 110.825 85.5516C110.748 85.6926 110.611 85.7963 110.412 85.8626C110.213 85.9289 109.957 85.9583 109.645 85.9507C109.342 85.9439 108.957 85.9211 108.49 85.8823C108.474 85.752 108.436 85.5924 108.378 85.4034C108.329 85.2243 108.273 85.0677 108.21 84.9336C108.557 84.9716 108.872 85.0025 109.156 85.026C109.438 85.0588 109.626 85.0744 109.718 85.0728C109.819 85.0812 109.884 85.0682 109.915 85.0339C109.954 85.0004 109.977 84.9425 109.984 84.8602L110.573 77.782ZM116.057 77.9481L117.072 78.0326L116.466 85.3165C116.441 85.6091 116.382 85.8298 116.286 85.9784C116.19 86.1361 116.029 86.247 115.803 86.3111C115.586 86.3759 115.298 86.4026 114.94 86.3912C114.59 86.3897 114.15 86.3624 113.621 86.3091C113.605 86.1697 113.568 86.0009 113.511 85.8027C113.453 85.6137 113.393 85.4431 113.332 85.2906C113.742 85.3432 114.117 85.3835 114.455 85.4117C114.793 85.4398 115.022 85.4543 115.142 85.455C115.252 85.4641 115.326 85.4519 115.366 85.4184C115.415 85.3856 115.443 85.3189 115.452 85.2183L116.057 77.9481ZM108.15 73.5335L109.139 73.2704C109.381 73.576 109.614 73.9223 109.84 74.3094C110.065 74.6965 110.236 75.0283 110.351 75.305L109.304 75.6046C109.216 75.3303 109.06 74.9996 108.834 74.6125C108.618 74.217 108.39 73.8573 108.15 73.5335ZM115.248 73.7234L116.315 74.1713C116.024 74.5798 115.709 74.991 115.37 75.4048C115.041 75.8194 114.74 76.1765 114.466 76.4761L113.575 76.0704C113.767 75.8562 113.967 75.615 114.173 75.3467C114.381 75.0693 114.574 74.7907 114.754 74.511C114.944 74.2229 115.108 73.9604 115.248 73.7234ZM106.554 77.4477L110.902 77.8094L110.829 78.6873L107.455 78.4066L106.845 85.7317L105.871 85.6506L106.554 77.4477ZM120.528 75.1709L121.282 74.5707C121.51 74.8198 121.746 75.0881 121.989 75.3753C122.241 75.6633 122.476 75.9453 122.692 76.2211C122.908 76.4969 123.081 76.7461 123.21 76.9686L122.422 77.6352C122.302 77.4226 122.134 77.1738 121.918 76.8888C121.703 76.5947 121.475 76.2994 121.232 76.003C120.991 75.6974 120.756 75.4201 120.528 75.1709ZM119.369 78.4723L122.442 78.728L122.36 79.7156L119.287 79.46L119.369 78.4723ZM124.378 75.7122L132.115 76.3558L132.029 77.3846L124.292 76.741L124.378 75.7122ZM128.56 76.4192L129.643 76.5093L128.844 86.1115C128.815 86.459 128.743 86.72 128.627 86.8945C128.52 87.079 128.334 87.2108 128.07 87.2901C127.816 87.3519 127.468 87.3782 127.027 87.3691C126.595 87.3608 126.054 87.3296 125.405 87.2756C125.396 87.1644 125.37 87.0379 125.326 86.8961C125.291 86.7643 125.252 86.6275 125.208 86.4858C125.165 86.344 125.115 86.2202 125.06 86.1143C125.406 86.1615 125.734 86.198 126.045 86.2239C126.365 86.2505 126.639 86.2733 126.868 86.2924C127.106 86.3121 127.275 86.3262 127.376 86.3346C127.504 86.3361 127.598 86.3163 127.657 86.2751C127.716 86.2248 127.751 86.1356 127.762 86.0076L128.56 76.4192ZM120.832 86.619L120.737 85.6028L121.091 85.1764L124.332 83.4018C124.342 83.5039 124.356 83.6156 124.373 83.7367C124.401 83.8495 124.428 83.9623 124.456 84.0751C124.493 84.1795 124.527 84.2698 124.558 84.346C123.793 84.7889 123.179 85.1475 122.714 85.4219C122.25 85.6872 121.892 85.8922 121.641 86.0371C121.388 86.191 121.204 86.3092 121.086 86.3915C120.977 86.4837 120.893 86.5596 120.832 86.619ZM120.832 86.619C120.812 86.5344 120.774 86.4346 120.719 86.3195C120.674 86.2052 120.619 86.0902 120.555 85.9743C120.499 85.8684 120.442 85.7762 120.384 85.6977C120.519 85.6261 120.682 85.4969 120.872 85.3101C121.073 85.115 121.185 84.8666 121.211 84.5648L121.701 78.6663L122.703 78.7496L122.138 85.5397C122.138 85.5397 122.094 85.5637 122.007 85.6118C121.921 85.6598 121.814 85.7246 121.687 85.8061C121.561 85.8877 121.434 85.9738 121.307 86.0645C121.179 86.1644 121.069 86.2612 120.979 86.3549C120.888 86.4487 120.839 86.5367 120.832 86.619ZM138.818 78.6262L139.874 78.714L139.063 88.4671L138.007 88.3792L138.818 78.6262ZM135.331 81.0295L135.208 82.5109L142.944 83.1546L143.067 81.6731L135.331 81.0295ZM135.52 78.7524L135.399 80.2064L143.136 80.85L143.257 79.396L135.52 78.7524ZM134.592 77.7912L144.372 78.6048L143.914 84.1192L134.133 83.3056L134.592 77.7912ZM132.735 84.5014L145.012 85.5228L144.932 86.483L132.655 85.4616L132.735 84.5014ZM135.944 75.9837L136.856 75.6453C137.114 75.9798 137.368 76.3509 137.62 76.7585C137.872 77.1571 138.055 77.5083 138.167 77.8124L137.211 78.1886C137.096 77.9028 136.918 77.5519 136.677 77.1359C136.445 76.7114 136.201 76.3274 135.944 75.9837ZM142.48 76.1131L143.56 76.5759C143.25 76.9921 142.915 77.4154 142.557 77.8461C142.209 78.2683 141.889 78.6238 141.598 78.9127L140.749 78.4967C140.941 78.2917 141.145 78.0509 141.361 77.7742C141.578 77.4975 141.785 77.2156 141.984 76.9282C142.184 76.6318 142.349 76.3601 142.48 76.1131ZM148.09 78.7483L152.26 79.0952L151.513 88.0664L147.343 87.7195L147.421 86.7867L150.645 87.0549L151.237 79.9355L148.013 79.6674L148.09 78.7483ZM147.486 78.6981L148.433 78.7768L147.596 88.8317L146.65 88.7529L147.486 78.6981ZM147.704 82.556L151.49 82.871L151.415 83.7763L147.629 83.4614L147.704 82.556ZM149.771 76.6368L150.866 76.9212C150.693 77.3396 150.506 77.7615 150.305 78.1867C150.113 78.6128 149.935 78.9755 149.772 79.275L148.953 78.9997C149.054 78.7779 149.153 78.5283 149.25 78.2509C149.356 77.9743 149.453 77.6923 149.541 77.405C149.639 77.1184 149.715 76.8624 149.771 76.6368ZM154.225 79.2173L158.436 79.5676L158.357 80.5141L154.146 80.1638L154.225 79.2173ZM158.066 79.5368L159.04 79.6178C159.04 79.6178 159.037 79.6498 159.032 79.7138C159.026 79.7778 159.02 79.8556 159.012 79.947C159.005 80.0293 158.995 80.093 158.982 80.1379C158.797 81.7063 158.631 83.0323 158.486 84.116C158.35 85.2004 158.216 86.0871 158.085 86.776C157.955 87.4558 157.823 87.9835 157.691 88.3593C157.567 88.7357 157.43 89.0006 157.279 89.1538C157.107 89.342 156.931 89.4655 156.751 89.5242C156.58 89.5928 156.37 89.6306 156.12 89.6375C155.89 89.6367 155.588 89.6162 155.214 89.5759C154.848 89.5454 154.47 89.5002 154.079 89.44C154.082 89.2929 154.059 89.1207 154.011 88.9233C153.972 88.7267 153.908 88.5602 153.818 88.4238C154.272 88.4984 154.682 88.5555 155.047 88.5951C155.421 88.6355 155.69 88.6625 155.855 88.6762C155.992 88.6876 156.103 88.683 156.188 88.6624C156.282 88.6334 156.374 88.5766 156.464 88.492C156.584 88.3823 156.7 88.1479 156.813 87.789C156.935 87.4217 157.057 86.8977 157.178 86.2172C157.299 85.5366 157.432 84.6682 157.575 83.612C157.719 82.5466 157.876 81.2614 158.047 79.7563L158.066 79.5368ZM154.684 77.0179L155.653 77.3195C155.432 77.9917 155.175 78.6471 154.882 79.2857C154.599 79.916 154.292 80.5074 153.961 81.06C153.639 81.6133 153.304 82.0965 152.956 82.5096C152.897 82.4494 152.815 82.3781 152.712 82.2958C152.618 82.2052 152.519 82.1233 152.415 82.0501C152.311 81.9678 152.22 81.9004 152.141 81.8478C152.496 81.4629 152.827 81.0163 153.137 80.508C153.447 79.9905 153.733 79.4341 153.994 78.8389C154.255 78.2437 154.485 77.6367 154.684 77.0179ZM153.573 82.7404L154.42 82.355C154.649 82.6964 154.885 83.0705 155.127 83.4775C155.379 83.8851 155.609 84.2772 155.817 84.6536C156.034 85.0308 156.204 85.3627 156.328 85.6492L155.404 86.1248C155.291 85.8299 155.13 85.4897 154.923 85.1041C154.725 84.7102 154.506 84.3097 154.263 83.9028C154.031 83.4875 153.8 83.1 153.573 82.7404ZM166.554 87.4115L170.862 87.7698L170.795 88.5654L166.488 88.2071L166.554 87.4115ZM167.071 78.3798L167.918 78.1602C168.081 78.4132 168.228 78.6925 168.359 78.9981C168.491 79.2945 168.584 79.5555 168.639 79.781L167.734 80.0372C167.688 79.8124 167.6 79.5427 167.47 79.2279C167.34 78.9132 167.206 78.6305 167.071 78.3798ZM171.171 78.4032L172.103 78.8261C171.854 79.1553 171.592 79.488 171.315 79.8241C171.048 80.161 170.803 80.4445 170.582 80.6747L169.893 80.3135C170.037 80.1413 170.186 79.9466 170.343 79.7294C170.499 79.503 170.652 79.2717 170.801 79.0354C170.949 78.7992 171.073 78.5884 171.171 78.4032ZM162.862 80.1568L163.658 80.223L163.331 84.1461C163.29 84.64 163.219 85.1681 163.117 85.7305C163.025 86.2845 162.868 86.8333 162.648 87.3766C162.437 87.9208 162.137 88.4345 161.747 88.9177C161.357 89.3917 160.858 89.8014 160.249 90.1467C160.202 90.0507 160.129 89.9387 160.029 89.8107C159.929 89.6827 159.836 89.5783 159.751 89.4975C160.319 89.204 160.777 88.837 161.127 88.3965C161.486 87.9567 161.759 87.4915 161.948 87.0007C162.136 86.5007 162.27 85.9962 162.35 85.4871C162.438 84.9788 162.5 84.5098 162.536 84.08L162.862 80.1568ZM162.841 87.5446L163.496 87.1433C163.697 87.3902 163.89 87.6641 164.077 87.9651C164.274 88.2577 164.457 88.5446 164.627 88.8258C164.798 89.0978 164.93 89.3344 165.024 89.5356L164.321 90.0158C164.229 89.7964 164.102 89.5464 163.941 89.266C163.781 88.9764 163.603 88.6808 163.407 88.379C163.212 88.0773 163.023 87.7992 162.841 87.5446ZM161.306 78.2732L165.586 78.6292L164.886 87.038L164.091 86.9718L164.72 79.4135L162.017 79.1887L161.385 86.7881L160.603 86.7231L161.306 78.2732ZM166.157 85.3757L171.603 85.8288L171.173 91.0002L170.24 90.9226L170.603 86.5605L166.982 86.2592L166.614 90.6762L165.723 90.602L166.157 85.3757ZM166.342 89.2999L170.814 89.672L170.748 90.4676L166.276 90.0956L166.342 89.2999ZM168.911 80.4943L169.625 80.5536L169.303 84.4219L168.59 84.3626L168.911 80.4943ZM166.864 80.6969L166.598 83.8931L171.358 84.289L171.624 81.0929L166.864 80.6969ZM166.094 79.8317L172.568 80.3703L172.171 85.144L165.697 84.6053L166.094 79.8317ZM166.997 81.4262L167.574 81.2947C167.749 81.6315 167.907 82.0037 168.048 82.4114C168.189 82.8099 168.286 83.1448 168.337 83.4161L167.7 83.598C167.65 83.3175 167.554 82.9735 167.413 82.5658C167.282 82.1497 167.143 81.7699 166.997 81.4262ZM170.719 81.5148L171.384 81.8188C171.199 82.1625 170.999 82.5142 170.785 82.874C170.571 83.2337 170.375 83.5397 170.198 83.7919L169.68 83.5417C169.788 83.3572 169.906 83.1461 170.037 82.9084C170.168 82.6614 170.294 82.4187 170.415 82.1801C170.537 81.9325 170.638 81.7107 170.719 81.5148ZM177.924 80.581L177.707 83.1873L183.18 83.6426L183.397 81.0363L177.924 80.581ZM177.003 79.5238L184.534 80.1503L184.154 84.7182L176.623 84.0917L177.003 79.5238ZM174.499 85.3928L179.382 85.7991L178.893 91.6701L177.865 91.5845L178.272 86.6874L175.405 86.4489L174.987 91.4695L174 91.3873L174.499 85.3928ZM180.891 85.9246L186.049 86.3537L185.557 92.2658L184.514 92.1791L184.925 87.2409L181.797 86.9807L181.38 92.0012L180.392 91.9191L180.891 85.9246ZM174.597 89.6829L178.425 90.0012L178.341 91.0026L174.514 90.6842L174.597 89.6829ZM181.031 90.2181L185.105 90.557L185.022 91.5583L180.948 91.2194L181.031 90.2181Z" fill="#C5B0C5"/>
<path d="M74.6156 176.208L88.0101 177.322L87.8944 178.713L74.4999 177.599L74.6156 176.208ZM75.1996 178.807L87.0874 179.796L86.9772 181.121L75.0894 180.132L75.1996 178.807ZM73.5195 181.168L88.2385 182.393L88.1214 183.8L73.4024 182.576L73.5195 181.168ZM73.1777 183.874L88.1947 185.123L88.079 186.514L73.062 185.265L73.1777 183.874ZM80.3899 177.539L82.0125 177.674L81.5759 182.922L79.9533 182.787L80.3899 177.539ZM76.8064 174.723L78.244 174.276C78.4952 174.597 78.7321 174.956 78.9547 175.352C79.1783 175.737 79.3384 176.084 79.435 176.392L77.9077 176.915C77.8332 176.609 77.691 176.247 77.4813 175.83C77.2825 175.413 77.0576 175.044 76.8064 174.723ZM84.4708 174.777L86.0879 175.379C85.8019 175.744 85.5062 176.092 85.2009 176.422C84.8955 176.752 84.6159 177.04 84.3621 177.286L82.992 176.722C83.1621 176.547 83.3341 176.35 83.5079 176.131C83.6937 175.902 83.8739 175.672 84.0487 175.442C84.2243 175.201 84.365 174.98 84.4708 174.777ZM79.814 182.859L81.4697 182.997C81.329 183.752 81.1438 184.442 80.9139 185.068C80.696 185.683 80.3999 186.237 80.0256 186.728C79.6624 187.22 79.1878 187.647 78.6019 188.01C78.028 188.362 77.3037 188.652 76.429 188.879C75.5543 189.107 74.5016 189.269 73.2709 189.367C73.2497 189.22 73.2023 189.055 73.1287 188.871C73.0542 188.699 72.9691 188.519 72.8734 188.333C72.7768 188.159 72.6834 188.012 72.5933 187.893C73.732 187.832 74.6918 187.718 75.4727 187.549C76.2646 187.382 76.9167 187.158 77.429 186.878C77.9413 186.599 78.3469 186.266 78.6458 185.879C78.9566 185.483 79.1994 185.036 79.3741 184.54C79.5497 184.032 79.6963 183.472 79.814 182.859ZM81.7197 185.001C82.0905 186.155 82.804 187.064 83.86 187.73C84.9271 188.397 86.3598 188.877 88.158 189.171C88.0385 189.273 87.9051 189.406 87.758 189.572C87.6219 189.738 87.4913 189.905 87.3662 190.073C87.2522 190.241 87.1556 190.4 87.0765 190.549C85.8099 190.276 84.7236 189.908 83.8175 189.444C82.9105 188.991 82.164 188.412 81.5779 187.707C81.003 187.004 80.5572 186.15 80.2406 185.145L81.7197 185.001ZM93.5444 178.933L101.906 179.629L101.79 181.02L93.4287 180.324L93.5444 178.933ZM93.709 182.365L101.242 182.991L101.131 184.332L93.5975 183.706L93.709 182.365ZM92.7313 186.101L101.622 186.841L101.515 188.132L92.6239 187.392L92.7313 186.101ZM96.9013 179.663L98.3749 179.785L97.7564 187.219L96.2829 187.097L96.9013 179.663ZM98.7743 184.803L99.8132 184.339C100.079 184.617 100.347 184.934 100.618 185.29C100.889 185.635 101.091 185.941 101.225 186.207L100.114 186.732C99.9809 186.465 99.7849 186.149 99.5264 185.783C99.2679 185.417 99.0172 185.09 98.7743 184.803ZM91.0632 176.093L104.888 177.243L103.669 191.896L102.014 191.758L103.113 178.545L92.5328 177.665L91.4337 190.878L89.8443 190.745L91.0632 176.093ZM90.8953 188.532L102.965 189.536L102.844 190.993L90.7741 189.989L90.8953 188.532ZM107.097 178.143L114.051 178.722L113.957 179.848L107.004 179.269L107.097 178.143ZM116.078 179.007L119.257 179.272L119.156 180.48L115.977 180.216L116.078 179.007ZM113.921 187.497L119.551 187.965L119.443 189.257L113.814 188.788L113.921 187.497ZM107.282 180.126L113.541 180.647L113.45 181.739L107.191 181.219L107.282 180.126ZM106.473 182.043L113.907 182.661L113.81 183.82L106.376 183.202L106.473 182.043ZM113.517 184.546L121.778 185.233L121.67 186.541L113.408 185.854L113.517 184.546ZM107.854 186.275L112.01 186.621L111.921 187.697L107.765 187.352L107.854 186.275ZM107.682 188.345L111.838 188.691L111.75 189.75L107.594 189.405L107.682 188.345ZM109.948 176.947L111.405 177.068L110.905 183.078L109.448 182.957L109.948 176.947ZM107.254 184.075L112.089 184.477L111.991 185.653L108.53 185.365L107.957 192.252L106.583 192.138L107.254 184.075ZM111.542 184.432L112.949 184.549L112.403 191.122C112.375 191.453 112.314 191.714 112.221 191.907C112.127 192.099 111.965 192.236 111.736 192.317C111.507 192.409 111.231 192.452 110.909 192.448C110.586 192.454 110.187 192.438 109.712 192.398C109.695 192.208 109.652 191.988 109.584 191.737C109.516 191.487 109.445 191.27 109.371 191.086C109.68 191.123 109.961 191.152 110.214 191.173C110.479 191.195 110.656 191.21 110.744 191.217C110.899 191.23 110.983 191.154 110.997 190.988L111.542 184.432ZM114.482 181.759L121.038 182.304L120.399 189.986L118.992 189.869L119.524 183.478L114.375 183.05L114.482 181.759ZM116.445 182.605L117.902 182.727L117.189 191.303C117.158 191.678 117.089 191.973 116.982 192.186C116.886 192.4 116.701 192.557 116.426 192.657C116.173 192.758 115.858 192.809 115.48 192.811C115.102 192.813 114.637 192.791 114.085 192.745C114.08 192.534 114.04 192.286 113.963 192.002C113.887 191.717 113.802 191.471 113.708 191.264C114.104 191.308 114.457 191.343 114.766 191.368C115.086 191.395 115.307 191.413 115.428 191.423C115.539 191.433 115.612 191.422 115.648 191.392C115.696 191.351 115.724 191.276 115.733 191.165L116.445 182.605ZM116.373 177.465L117.736 177.911C117.329 178.8 116.83 179.648 116.241 180.455C115.663 181.251 115.069 181.913 114.459 182.44C114.389 182.345 114.287 182.237 114.152 182.115C114.029 181.993 113.895 181.871 113.749 181.748C113.616 181.614 113.497 181.51 113.392 181.435C113.986 180.973 114.546 180.391 115.071 179.69C115.596 178.989 116.03 178.247 116.373 177.465ZM118.926 179.244L119.24 179.27L119.461 179.222L120.369 179.931C120.151 180.28 119.893 180.647 119.594 181.034C119.306 181.421 119.008 181.791 118.701 182.143C118.394 182.495 118.096 182.804 117.807 183.069C117.683 182.959 117.527 182.834 117.338 182.696C117.15 182.547 116.988 182.428 116.851 182.339C117.094 182.093 117.346 181.802 117.607 181.468C117.869 181.123 118.114 180.783 118.342 180.446C118.571 180.098 118.758 179.791 118.902 179.526L118.926 179.244ZM123.553 180.329L138.438 181.568L138.317 183.025L123.432 181.786L123.553 180.329ZM130.421 178.533L132.06 178.67C131.913 179.502 131.73 180.309 131.509 181.091C131.288 181.873 130.988 182.615 130.607 183.317C130.238 184.009 129.758 184.641 129.165 185.214C128.573 185.787 127.825 186.292 126.922 186.728C126.02 187.153 124.925 187.484 123.639 187.722C123.577 187.528 123.468 187.296 123.313 187.028C123.169 186.749 123.022 186.515 122.871 186.324C124.077 186.125 125.09 185.842 125.909 185.477C126.74 185.112 127.42 184.68 127.951 184.179C128.482 183.679 128.905 183.131 129.222 182.535C129.539 181.928 129.787 181.287 129.965 180.613C130.143 179.938 130.295 179.245 130.421 178.533ZM132.105 181.141C132.481 182.628 133.176 183.903 134.188 184.965C135.199 186.027 136.539 186.822 138.207 187.35C138.087 187.451 137.949 187.584 137.79 187.749C137.644 187.903 137.503 188.064 137.367 188.23C137.242 188.398 137.134 188.556 137.044 188.704C135.869 188.261 134.86 187.7 134.017 187.018C133.174 186.326 132.475 185.506 131.921 184.56C131.377 183.614 130.949 182.545 130.637 181.352L132.105 181.141ZM128.528 185.861L129.937 185.162C130.254 185.355 130.574 185.581 130.897 185.842C131.232 186.092 131.544 186.346 131.834 186.603C132.135 186.862 132.381 187.104 132.574 187.331L131.075 188.107C130.904 187.893 130.68 187.652 130.402 187.384C130.124 187.117 129.818 186.852 129.484 186.591C129.162 186.32 128.844 186.076 128.528 185.861ZM126.47 188.357L128.01 188.486L127.756 191.532C127.735 191.786 127.793 191.957 127.93 192.047C128.079 192.126 128.408 192.186 128.915 192.229C129.004 192.236 129.158 192.249 129.379 192.267C129.6 192.286 129.842 192.306 130.107 192.328C130.383 192.351 130.665 192.374 130.952 192.398C131.239 192.422 131.498 192.443 131.73 192.463C131.962 192.482 132.144 192.497 132.276 192.508C132.552 192.531 132.766 192.504 132.916 192.428C133.067 192.352 133.182 192.178 133.26 191.907C133.35 191.625 133.435 191.21 133.514 190.661C133.618 190.747 133.749 190.836 133.908 190.927C134.067 191.018 134.233 191.104 134.404 191.185C134.576 191.255 134.732 191.312 134.873 191.357C134.746 192.08 134.588 192.639 134.4 193.035C134.212 193.419 133.952 193.676 133.619 193.804C133.286 193.931 132.833 193.972 132.259 193.924C132.17 193.916 132.005 193.903 131.762 193.882C131.519 193.862 131.238 193.839 130.917 193.812C130.608 193.787 130.299 193.761 129.99 193.735C129.681 193.709 129.405 193.686 129.162 193.666C128.931 193.647 128.771 193.634 128.682 193.626C127.987 193.568 127.451 193.463 127.075 193.309C126.709 193.168 126.461 192.941 126.331 192.63C126.212 192.332 126.173 191.928 126.215 191.42L126.47 188.357ZM128.814 188.236L130.082 187.624C130.369 187.915 130.664 188.24 130.968 188.598C131.271 188.957 131.553 189.314 131.812 189.669C132.073 190.013 132.28 190.325 132.435 190.604L131.076 191.308C130.943 191.03 130.747 190.714 130.488 190.359C130.24 190.005 129.969 189.643 129.678 189.275C129.387 188.895 129.099 188.548 128.814 188.236ZM134.387 189.183L135.798 188.85C136.036 189.337 136.27 189.862 136.501 190.426C136.733 190.978 136.932 191.517 137.1 192.043C137.267 192.568 137.384 193.039 137.449 193.455L135.916 193.845C135.861 193.44 135.755 192.975 135.599 192.451C135.443 191.916 135.256 191.361 135.037 190.787C134.829 190.214 134.612 189.679 134.387 189.183ZM124.439 188.122L125.791 188.701C125.641 189.167 125.467 189.658 125.268 190.175C125.07 190.692 124.85 191.196 124.609 191.687C124.38 192.168 124.128 192.592 123.853 192.958L122.506 192.112C122.769 191.767 123.018 191.377 123.254 190.941C123.502 190.495 123.724 190.03 123.92 189.546C124.128 189.052 124.301 188.577 124.439 188.122ZM144.843 183.134L154.926 183.973L154.802 185.463L144.719 184.624L144.843 183.134ZM144.99 187.981L154.046 188.734L153.924 190.208L144.867 189.454L144.99 187.981ZM143.591 193.166L154.337 194.06L154.213 195.55L143.468 194.656L143.591 193.166ZM149.044 183.934L150.634 184.066L149.756 194.613L148.167 194.48L149.044 183.934ZM147.127 181.123L148.263 180.101C148.664 180.357 149.084 180.647 149.524 180.973C149.964 181.298 150.386 181.628 150.792 181.962C151.198 182.296 151.528 182.601 151.783 182.878L150.554 184.026C150.332 183.752 150.024 183.443 149.63 183.099C149.248 182.756 148.837 182.41 148.4 182.063C147.963 181.704 147.539 181.391 147.127 181.123ZM143.853 179.801L145.27 180.402C144.818 181.298 144.299 182.189 143.714 183.073C143.141 183.948 142.528 184.77 141.875 185.538C141.223 186.295 140.557 186.956 139.876 187.522C139.843 187.386 139.785 187.215 139.703 187.008C139.62 186.801 139.531 186.593 139.438 186.385C139.344 186.178 139.253 186.003 139.164 185.863C139.759 185.39 140.339 184.838 140.903 184.207C141.478 183.565 142.019 182.871 142.526 182.124C143.034 181.366 143.476 180.592 143.853 179.801ZM141.814 184.066L143.427 182.716L143.442 182.734L142.416 195.069L140.91 194.944L141.814 184.066ZM167.186 185.493L168.322 186.871C167.649 187.082 166.911 187.27 166.108 187.437C165.306 187.593 164.466 187.728 163.59 187.844C162.725 187.95 161.845 188.038 160.95 188.108C160.056 188.167 159.185 188.217 158.337 188.258C158.321 188.056 158.274 187.819 158.196 187.546C158.119 187.273 158.044 187.039 157.971 186.844C158.797 186.801 159.636 186.743 160.487 186.669C161.348 186.597 162.19 186.505 163.01 186.396C163.831 186.275 164.593 186.144 165.293 186.002C166.006 185.85 166.637 185.681 167.186 185.493ZM156.055 190.235L170.788 189.894L170.849 191.366L156.129 191.758L156.055 190.235ZM162.226 187.398L163.915 187.538L163.348 194.36C163.328 194.602 163.34 194.787 163.385 194.913C163.441 195.04 163.55 195.132 163.712 195.19C163.875 195.237 164.133 195.275 164.486 195.304C164.586 195.313 164.735 195.325 164.933 195.342C165.143 195.359 165.38 195.379 165.645 195.401C165.921 195.424 166.197 195.447 166.473 195.47C166.749 195.493 166.997 195.513 167.218 195.532C167.439 195.55 167.61 195.564 167.731 195.574C168.04 195.6 168.277 195.564 168.44 195.467C168.616 195.359 168.752 195.131 168.847 194.784C168.943 194.436 169.035 193.927 169.125 193.256C169.25 193.356 169.397 193.457 169.566 193.56C169.746 193.664 169.933 193.757 170.126 193.84C170.319 193.923 170.491 193.992 170.642 194.049C170.494 194.893 170.312 195.55 170.095 196.021C169.89 196.482 169.603 196.792 169.234 196.95C168.864 197.119 168.359 197.177 167.719 197.124C167.62 197.116 167.449 197.101 167.206 197.081C166.974 197.062 166.704 197.039 166.395 197.014C166.097 196.989 165.799 196.964 165.501 196.939C165.203 196.914 164.938 196.892 164.706 196.873C164.474 196.854 164.308 196.84 164.209 196.832C163.492 196.772 162.94 196.654 162.555 196.477C162.168 196.312 161.907 196.046 161.771 195.679C161.645 195.324 161.607 194.843 161.658 194.236L162.226 187.398ZM163.393 181.393L165.065 181.532L164.83 184.363L163.157 184.224L163.393 181.393ZM157.117 182.488L171.19 183.659L170.88 187.384L169.224 187.246L169.41 185.011L158.582 184.11L158.396 186.345L156.807 186.213L157.117 182.488ZM177.559 188.256L187.852 187.779L187.943 189.287L177.651 189.764L177.559 188.256ZM184.304 184.133L185.525 183.484C185.824 183.765 186.126 184.079 186.43 184.426C186.735 184.774 187.017 185.12 187.278 185.464C187.539 185.797 187.741 186.103 187.885 186.381L186.576 187.089C186.442 186.823 186.251 186.518 186.002 186.175C185.752 185.832 185.481 185.481 185.189 185.123C184.897 184.755 184.602 184.424 184.304 184.133ZM177.503 182.717L178.954 183.321C178.463 184.269 177.897 185.195 177.256 186.097C176.615 186.989 175.929 187.821 175.197 188.593C174.477 189.367 173.749 190.04 173.012 190.612C172.967 190.486 172.898 190.319 172.804 190.111C172.721 189.904 172.627 189.697 172.522 189.488C172.417 189.279 172.326 189.11 172.248 188.981C172.91 188.503 173.563 187.935 174.207 187.277C174.85 186.619 175.455 185.903 176.019 185.127C176.584 184.352 177.079 183.548 177.503 182.717ZM175.319 187.136L177.04 185.679L177.055 185.697L176.042 197.883L174.436 197.749L175.319 187.136ZM181.452 183.145L183.025 183.276C182.918 185.101 182.881 186.81 182.915 188.402C182.951 189.983 183.056 191.387 183.232 192.613C183.42 193.829 183.695 194.802 184.056 195.532C184.43 196.252 184.9 196.675 185.468 196.8C185.677 196.828 185.866 196.616 186.037 196.164C186.209 195.711 186.366 195.018 186.51 194.086C186.613 194.194 186.736 194.316 186.88 194.45C187.037 194.574 187.193 194.693 187.351 194.806C187.519 194.92 187.646 195.003 187.73 195.054C187.525 196.049 187.295 196.818 187.038 197.364C186.782 197.898 186.513 198.259 186.231 198.447C185.96 198.636 185.67 198.712 185.362 198.675C184.606 198.545 183.973 198.204 183.463 197.65C182.953 197.107 182.541 196.379 182.228 195.463C181.927 194.538 181.706 193.453 181.565 192.207C181.425 190.951 181.352 189.561 181.345 188.038C181.339 186.515 181.374 184.884 181.452 183.145ZM196.825 189.342L196.673 191.163L202.335 191.635L202.487 189.813L196.825 189.342ZM197.079 186.279L196.929 188.084L202.592 188.555L202.742 186.75L197.079 186.279ZM195.767 184.82L204.343 185.533L203.714 193.1L195.138 192.386L195.767 184.82ZM194.847 194.079L203.787 194.823L203.669 196.247L194.728 195.503L194.847 194.079ZM193.338 197.388L204.05 198.279L203.932 199.703L193.219 198.812L193.338 197.388ZM189.698 184.632L195.012 185.074L194.891 186.531L189.576 186.089L189.698 184.632ZM189.465 189.43L194.366 189.838L194.246 191.278L189.345 190.871L189.465 189.43ZM188.593 195.709C189.066 195.627 189.603 195.521 190.203 195.393C190.802 195.265 191.437 195.124 192.105 194.968C192.774 194.812 193.443 194.657 194.111 194.501L194.252 196.014C193.321 196.247 192.38 196.48 191.427 196.712C190.474 196.944 189.612 197.156 188.84 197.347L188.593 195.709ZM191.62 185.375L193.11 185.499L192.26 195.714L190.748 195.855L191.62 185.375ZM199.325 185.733L200.667 185.844L200.142 192.152L200.258 192.162L199.725 198.569L198.135 198.437L198.668 192.03L198.801 192.041L199.325 185.733ZM209.236 199.277L210.181 187.919L212.036 188.074L211.091 199.432L209.236 199.277ZM213.78 199.655L214.725 188.297L220.387 188.768C221.193 188.835 221.848 189.04 222.353 189.382C222.858 189.724 223.221 190.171 223.442 190.723C223.675 191.265 223.761 191.894 223.702 192.612C223.642 193.329 223.446 193.952 223.113 194.48C222.781 194.997 222.327 195.382 221.75 195.634C221.184 195.887 220.51 195.981 219.726 195.915L215.984 195.604L215.634 199.81L213.78 199.655ZM216.116 194.015L219.775 194.319C220.36 194.368 220.833 194.229 221.194 193.904C221.565 193.579 221.777 193.102 221.829 192.473C221.864 192.053 221.822 191.694 221.702 191.395C221.584 191.085 221.393 190.841 221.13 190.664C220.867 190.486 220.525 190.38 220.106 190.345L216.447 190.041L216.116 194.015Z" fill="white"/>
<path d="M76.8594 201.854L76.7778 202.835L80.9253 203.18L81.0069 202.199L76.8594 201.854ZM76.9968 200.202L76.9152 201.183L81.0627 201.528L81.1443 200.547L76.9968 200.202ZM76.1989 199.423L82.0972 199.914L81.7594 203.974L75.8611 203.484L76.1989 199.423ZM75.2279 204.331L82.368 204.925L82.3029 205.708L75.1628 205.114L75.2279 204.331ZM78.2382 204.969L79.1198 205.043L78.6973 210.121L77.8456 209.688L78.2382 204.969ZM76.3841 207.116C76.5505 207.821 76.7975 208.359 77.1253 208.728C77.4613 209.098 77.8649 209.356 78.3361 209.504C78.8156 209.652 79.345 209.75 79.9245 209.798C79.999 209.805 80.1439 209.817 80.3591 209.835C80.5744 209.853 80.8145 209.872 81.0794 209.895C81.3443 209.917 81.5926 209.937 81.8244 209.957C82.0562 209.976 82.2304 209.986 82.347 209.987C82.3001 210.05 82.2518 210.13 82.2022 210.226C82.1525 210.321 82.1108 210.422 82.077 210.528C82.0432 210.633 82.0146 210.727 81.9911 210.808L81.482 210.766L79.8181 210.627C79.2965 210.584 78.8198 210.503 78.388 210.383C77.9554 210.272 77.5697 210.099 77.231 209.862C76.8922 209.625 76.6024 209.301 76.3616 208.889C76.1215 208.469 75.9324 207.937 75.7943 207.292L76.3841 207.116ZM78.6917 206.883L81.5726 207.122L81.5085 207.892L78.6276 207.653L78.6917 206.883ZM75.9204 205.777L76.7689 205.947C76.56 206.955 76.258 207.83 75.8628 208.573C75.4683 209.307 74.9686 209.903 74.3637 210.361C74.3271 210.3 74.2664 210.228 74.1815 210.146C74.096 210.072 74.0107 209.994 73.9259 209.912C73.8486 209.839 73.7782 209.783 73.7148 209.745C74.3059 209.352 74.7753 208.82 75.1229 208.149C75.4794 207.47 75.7453 206.679 75.9204 205.777ZM70.9657 205.215C71.4562 205.13 72.0495 205.013 72.7455 204.863C73.4422 204.704 74.1473 204.546 74.8605 204.388L74.9145 205.243C74.2591 205.405 73.5996 205.567 72.936 205.729C72.2731 205.882 71.6695 206.023 71.1252 206.153L70.9657 205.215ZM71.4422 201.141L75.2295 201.456L75.1572 202.325L71.3699 202.01L71.4422 201.141ZM73.1896 198.773L74.0588 198.845L73.2066 209.09C73.1852 209.346 73.1359 209.538 73.0587 209.665C72.989 209.801 72.8725 209.9 72.709 209.961C72.5538 210.023 72.351 210.056 72.1005 210.06C71.8501 210.065 71.5266 210.046 71.1299 210.005C71.1306 209.896 71.1092 209.753 71.0657 209.574C71.0298 209.404 70.988 209.255 70.9404 209.126C71.2046 209.156 71.4444 209.181 71.6596 209.198C71.8831 209.217 72.0325 209.225 72.1077 209.223C72.1822 209.229 72.2374 209.217 72.2732 209.187C72.3084 209.165 72.3298 209.108 72.3374 209.017L73.1896 198.773ZM86.91 199.927L87.7689 200.273C87.4372 200.954 87.0606 201.623 86.6392 202.28C86.2185 202.928 85.7719 203.537 85.2994 204.106C84.8352 204.676 84.3562 205.174 83.8623 205.6C83.8437 205.523 83.8061 205.424 83.7495 205.303C83.7012 205.182 83.6446 205.061 83.5797 204.939C83.5238 204.809 83.47 204.704 83.4183 204.625C83.857 204.261 84.2888 203.831 84.7136 203.332C85.1385 202.834 85.5375 202.296 85.9107 201.719C86.2928 201.134 86.6259 200.537 86.91 199.927ZM85.3138 203.032L86.2946 202.214L86.306 202.227L85.554 211.267L84.6351 211.191L85.3138 203.032ZM87.5106 202.627L95.135 203.262L95.0606 204.156L87.4362 203.521L87.5106 202.627ZM86.8706 206.563L94.942 207.234L94.8666 208.141L86.7952 207.469L86.8706 206.563ZM89.3221 200.24L90.2286 200.315L89.6491 207.282L88.7426 207.206L89.3221 200.24ZM92.6511 200.504L93.57 200.581L92.9884 207.572L92.0695 207.495L92.6511 200.504ZM88.898 208.344L89.7683 208.704C89.5317 209.043 89.2662 209.379 88.9717 209.713C88.6778 210.039 88.373 210.347 88.057 210.638C87.7411 210.928 87.4328 211.177 87.132 211.386C87.0782 211.331 87.0089 211.263 86.924 211.181C86.8474 211.1 86.7626 211.018 86.6694 210.935C86.5846 210.853 86.5066 210.788 86.4355 210.74C86.8929 210.453 87.3433 210.099 87.7868 209.677C88.231 209.247 88.6014 208.803 88.898 208.344ZM91.691 209.039L92.4587 208.678C92.7182 208.966 92.9752 209.284 93.2298 209.63C93.4927 209.977 93.7311 210.318 93.945 210.652C94.1596 210.979 94.3269 211.272 94.447 211.532L93.6234 211.963C93.5122 211.696 93.3501 211.39 93.1369 211.048C92.9312 210.714 92.7015 210.37 92.4476 210.015C92.1936 209.66 91.9414 209.335 91.691 209.039ZM97.4497 202.791L101.225 203.106L100.549 211.227L96.7741 210.913L96.8444 210.068L99.7625 210.311L100.299 203.866L97.3805 203.623L97.4497 202.791ZM96.9034 202.746L97.7602 202.817L97.003 211.919L96.1461 211.848L96.9034 202.746ZM97.1005 206.238L100.528 206.524L100.46 207.343L97.0323 207.058L97.1005 206.238ZM98.9716 200.88L99.963 201.138C99.8064 201.516 99.6371 201.898 99.4551 202.283C99.2813 202.669 99.1206 202.997 98.973 203.268L98.231 203.019C98.3227 202.818 98.4124 202.592 98.5 202.341C98.5958 202.091 98.6837 201.836 98.7637 201.575C98.852 201.316 98.9213 201.084 98.9716 200.88ZM103.003 203.216L106.816 203.533L106.744 204.39L102.932 204.073L103.003 203.216ZM106.48 203.505L107.362 203.579C107.362 203.579 107.36 203.608 107.355 203.666C107.35 203.723 107.344 203.794 107.337 203.877C107.331 203.951 107.322 204.009 107.31 204.049C107.142 205.469 106.992 206.67 106.861 207.651C106.737 208.632 106.616 209.435 106.498 210.059C106.38 210.674 106.261 211.152 106.141 211.492C106.029 211.833 105.905 212.072 105.769 212.211C105.613 212.381 105.453 212.493 105.291 212.546C105.135 212.608 104.945 212.643 104.719 212.649C104.511 212.648 104.238 212.63 103.899 212.593C103.568 212.566 103.225 212.525 102.871 212.47C102.874 212.337 102.854 212.181 102.81 212.002C102.775 211.824 102.717 211.674 102.635 211.55C103.046 211.618 103.417 211.669 103.748 211.705C104.086 211.742 104.33 211.766 104.479 211.779C104.603 211.789 104.704 211.785 104.78 211.766C104.866 211.74 104.949 211.689 105.031 211.612C105.139 211.513 105.244 211.3 105.346 210.976C105.457 210.643 105.568 210.169 105.677 209.553C105.787 208.937 105.906 208.15 106.036 207.194C106.166 206.23 106.309 205.066 106.464 203.704L106.48 203.505ZM103.419 201.225L104.297 201.498C104.096 202.107 103.863 202.7 103.599 203.278C103.343 203.849 103.065 204.384 102.765 204.884C102.473 205.385 102.17 205.822 101.855 206.196C101.801 206.142 101.728 206.077 101.634 206.003C101.549 205.921 101.459 205.847 101.365 205.78C101.271 205.706 101.188 205.645 101.117 205.597C101.438 205.249 101.739 204.845 102.019 204.384C102.299 203.916 102.558 203.412 102.794 202.874C103.031 202.335 103.239 201.785 103.419 201.225ZM102.413 206.405L103.18 206.056C103.387 206.365 103.601 206.704 103.82 207.073C104.048 207.442 104.256 207.796 104.445 208.137C104.641 208.479 104.795 208.779 104.907 209.038L104.071 209.469C103.968 209.202 103.823 208.894 103.635 208.545C103.457 208.188 103.258 207.826 103.038 207.458C102.828 207.082 102.619 206.731 102.413 206.405ZM113.97 203.562L113.219 212.593L112.125 212.502L112.877 203.471L113.97 203.562ZM115.412 212.776L116.163 203.745L119.214 203.999C119.923 204.057 120.491 204.234 120.92 204.527C121.351 204.817 121.658 205.188 121.84 205.638C122.021 206.088 122.09 206.579 122.046 207.111C122.001 207.643 121.852 208.118 121.599 208.535C121.348 208.952 120.987 209.271 120.516 209.493C120.044 209.711 119.458 209.791 118.755 209.733L116.568 209.551L116.649 208.58L118.8 208.759C119.286 208.8 119.682 208.748 119.99 208.605C120.298 208.462 120.53 208.254 120.686 207.979C120.845 207.703 120.94 207.383 120.97 207.022C121 206.66 120.959 206.331 120.848 206.035C120.739 205.739 120.543 205.497 120.26 205.311C119.976 205.122 119.589 205.007 119.098 204.966L117.176 204.806L116.505 212.867L115.412 212.776ZM131.619 208.222L135.481 208.544L135.41 209.4L131.548 209.079L131.619 208.222ZM130.714 212.186C131.106 212.085 131.558 211.968 132.069 211.836C132.58 211.703 133.126 211.557 133.706 211.397C134.286 211.237 134.862 211.076 135.434 210.915L135.528 211.736C134.75 211.971 133.959 212.21 133.155 212.451C132.36 212.693 131.651 212.905 131.027 213.087L130.714 212.186ZM132.349 205.757L137.465 206.183L137.391 207.077L132.275 206.651L132.349 205.757ZM137.167 206.158L138.099 206.236C138.099 206.236 138.096 206.269 138.09 206.335C138.086 206.393 138.08 206.463 138.073 206.546C138.066 206.629 138.057 206.691 138.045 206.731C137.884 208.16 137.738 209.373 137.605 210.371C137.472 211.36 137.347 212.171 137.227 212.802C137.109 213.426 136.989 213.912 136.868 214.261C136.756 214.61 136.632 214.854 136.495 214.992C136.339 215.163 136.18 215.274 136.017 215.328C135.853 215.389 135.659 215.423 135.433 215.429C135.216 215.436 134.93 215.42 134.574 215.383C134.219 215.353 133.855 215.31 133.485 215.254C133.488 215.113 133.469 214.949 133.426 214.762C133.391 214.584 133.333 214.425 133.253 214.285C133.663 214.361 134.042 214.413 134.39 214.442C134.745 214.48 134.998 214.505 135.147 214.517C135.27 214.536 135.37 214.532 135.448 214.505C135.533 214.487 135.616 214.44 135.697 214.363C135.805 214.264 135.911 214.052 136.013 213.727C136.124 213.394 136.234 212.916 136.345 212.291C136.463 211.668 136.588 210.874 136.718 209.909C136.849 208.937 136.993 207.757 137.15 206.369L137.167 206.158ZM132.856 203.724L133.782 204.013C133.548 204.627 133.277 205.226 132.97 205.809C132.672 206.384 132.348 206.92 131.999 207.416C131.658 207.905 131.306 208.334 130.941 208.704C130.888 208.641 130.815 208.568 130.722 208.485C130.629 208.402 130.532 208.319 130.43 208.236C130.337 208.153 130.251 208.088 130.171 208.039C130.73 207.536 131.237 206.903 131.692 206.14C132.156 205.379 132.544 204.573 132.856 203.724ZM126.965 206.147L130.902 206.475L130.828 207.356L126.892 207.029L126.965 206.147ZM128.765 203.459L129.671 203.534L128.995 211.655L128.089 211.58L128.765 203.459ZM126.281 211.667C126.648 211.564 127.067 211.445 127.536 211.309C128.015 211.165 128.524 211.011 129.063 210.848C129.601 210.684 130.136 210.516 130.667 210.344L130.793 211.242C130.055 211.489 129.31 211.735 128.556 211.981C127.81 212.227 127.138 212.442 126.539 212.626L126.281 211.667ZM139.747 207.311L149.321 208.107L149.244 209.038L139.67 208.242L139.747 207.311ZM148.949 208.076L149.917 208.157C149.917 208.157 149.91 208.189 149.897 208.255C149.892 208.313 149.886 208.379 149.88 208.454C149.874 208.528 149.869 208.59 149.865 208.64C149.712 209.877 149.574 210.929 149.452 211.794C149.33 212.659 149.213 213.37 149.1 213.928C148.996 214.478 148.885 214.906 148.768 215.213C148.659 215.521 148.536 215.74 148.4 215.87C148.245 216.032 148.086 216.14 147.923 216.193C147.76 216.254 147.561 216.288 147.327 216.293C147.111 216.292 146.821 216.272 146.457 216.234C146.101 216.204 145.73 216.161 145.343 216.103C145.346 215.962 145.326 215.798 145.284 215.611C145.241 215.424 145.18 215.256 145.1 215.108C145.519 215.184 145.906 215.242 146.261 215.28C146.617 215.309 146.87 215.33 147.019 215.343C147.151 215.362 147.259 215.363 147.344 215.345C147.429 215.327 147.507 215.283 147.58 215.214C147.688 215.115 147.791 214.923 147.89 214.64C147.989 214.348 148.091 213.931 148.194 213.39C148.306 212.841 148.423 212.146 148.543 211.306C148.662 210.465 148.793 209.451 148.933 208.262L148.949 208.076ZM144.08 204.683L145.023 204.761L144.9 206.239C144.854 206.793 144.779 207.392 144.676 208.033C144.581 208.675 144.422 209.337 144.198 210.019C143.984 210.693 143.678 211.364 143.281 212.031C142.884 212.69 142.377 213.327 141.759 213.942C141.141 214.549 140.374 215.102 139.458 215.601C139.414 215.523 139.35 215.438 139.266 215.348C139.19 215.258 139.106 215.168 139.014 215.077C138.93 214.986 138.852 214.913 138.782 214.857C139.654 214.388 140.385 213.87 140.974 213.302C141.572 212.735 142.059 212.142 142.435 211.523C142.812 210.904 143.101 210.282 143.303 209.657C143.506 209.024 143.653 208.411 143.744 207.818C143.843 207.226 143.914 206.669 143.958 206.148L144.08 204.683ZM140.932 205.096L141.755 204.814C141.989 205.109 142.22 205.441 142.448 205.81C142.676 206.179 142.845 206.493 142.957 206.752L142.079 207.092C142.01 206.911 141.915 206.707 141.792 206.48C141.669 206.253 141.53 206.017 141.376 205.771C141.23 205.525 141.082 205.3 140.932 205.096ZM144.69 210.572L145.491 210.264C145.686 210.522 145.883 210.805 146.083 211.113C146.282 211.422 146.465 211.725 146.632 212.022C146.808 212.312 146.941 212.569 147.031 212.793L146.174 213.172C146.085 212.939 145.961 212.675 145.803 212.378C145.645 212.073 145.466 211.767 145.266 211.458C145.076 211.142 144.884 210.847 144.69 210.572ZM158.956 205.92L159.887 205.998L159.035 216.242L158.104 216.165L158.956 205.92ZM154.742 215.697C155.309 215.686 155.968 215.679 156.719 215.674C157.479 215.663 158.284 215.646 159.136 215.625C159.988 215.605 160.84 215.584 161.692 215.563L161.63 216.458C160.827 216.491 160.016 216.52 159.197 216.543C158.378 216.575 157.592 216.597 156.841 216.61C156.098 216.631 155.429 216.655 154.835 216.68L154.742 215.697ZM160.322 213.848L161.2 213.659C161.36 214.047 161.521 214.469 161.683 214.924C161.846 215.371 161.993 215.805 162.125 216.224C162.266 216.636 162.373 216.995 162.448 217.301L161.489 217.559C161.423 217.245 161.328 216.879 161.205 216.46C161.082 216.033 160.94 215.592 160.777 215.137C160.624 214.674 160.472 214.244 160.322 213.848ZM156.872 209.023L156.627 211.966L161.16 212.343L161.405 209.4L156.872 209.023ZM156.021 208.127L162.429 208.66L162.047 213.254L155.639 212.721L156.021 208.127ZM152.008 206.017L152.708 205.575C153.247 206.112 153.664 206.659 153.959 207.217C154.263 207.768 154.48 208.324 154.608 208.884C154.736 209.445 154.806 210.014 154.816 210.59C154.827 211.166 154.808 211.748 154.759 212.335C154.708 212.94 154.639 213.517 154.552 214.069C154.473 214.612 154.371 215.091 154.245 215.506C154.119 215.921 153.959 216.237 153.766 216.454C153.674 216.555 153.567 216.633 153.446 216.69C153.324 216.755 153.183 216.793 153.024 216.805C152.805 216.828 152.572 216.83 152.323 216.809C152.083 216.797 151.83 216.776 151.566 216.746C151.57 216.596 151.554 216.437 151.518 216.267C151.49 216.106 151.44 215.96 151.367 215.829C151.664 215.871 151.928 215.901 152.16 215.92C152.392 215.94 152.578 215.947 152.721 215.942C152.905 215.932 153.047 215.873 153.148 215.765C153.267 215.633 153.371 215.392 153.458 215.04C153.554 214.69 153.635 214.272 153.7 213.785C153.774 213.3 153.834 212.784 153.879 212.237C153.925 211.683 153.941 211.138 153.927 210.603C153.914 210.069 153.845 209.546 153.72 209.036C153.605 208.518 153.41 208.009 153.134 207.511C152.868 207.006 152.493 206.508 152.008 206.017ZM154.087 210.191L154.748 210.659C154.516 211.048 154.232 211.446 153.899 211.851C153.565 212.249 153.209 212.623 152.83 212.975C152.459 213.319 152.098 213.606 151.746 213.835C151.68 213.721 151.595 213.589 151.491 213.439C151.387 213.289 151.28 213.167 151.171 213.075C151.52 212.887 151.878 212.642 152.245 212.339C152.613 212.028 152.958 211.685 153.281 211.312C153.604 210.931 153.873 210.557 154.087 210.191ZM155.066 205.784L155.852 206.262C155.387 206.932 154.825 207.577 154.165 208.197C153.513 208.818 152.839 209.354 152.143 209.805C152.107 209.735 152.051 209.659 151.975 209.578C151.906 209.497 151.834 209.42 151.756 209.347C151.688 209.267 151.618 209.202 151.547 209.155C152.004 208.876 152.452 208.551 152.891 208.179C153.331 207.807 153.738 207.416 154.114 207.005C154.49 206.595 154.807 206.188 155.066 205.784ZM163.801 214.563L174.902 215.487L174.834 216.306L163.733 215.383L163.801 214.563ZM169.501 206.76L170.482 206.842L170.351 208.419L169.37 208.337L169.501 206.76ZM165.155 212.413L172.991 213.064L172.928 213.822L165.092 213.17L165.155 212.413ZM168.891 214.249L169.872 214.33L169.622 217.335C169.601 217.592 169.539 217.779 169.438 217.895C169.344 218.021 169.183 218.103 168.955 218.143C168.735 218.183 168.438 218.191 168.065 218.169C167.7 218.147 167.24 218.113 166.685 218.066C166.67 217.948 166.635 217.816 166.581 217.67C166.526 217.524 166.471 217.39 166.414 217.269C166.703 217.301 166.98 217.328 167.245 217.35C167.509 217.381 167.737 217.399 167.928 217.407C168.127 217.424 168.263 217.435 168.338 217.441C168.446 217.442 168.522 217.427 168.567 217.398C168.611 217.368 168.636 217.312 168.643 217.229L168.891 214.249ZM172.792 213.048L173.04 213.069L173.256 213.036L173.833 213.61C173.441 213.81 173.001 213.995 172.512 214.162C172.031 214.331 171.531 214.481 171.011 214.613C170.501 214.737 169.996 214.841 169.497 214.924C169.446 214.837 169.375 214.739 169.284 214.632C169.194 214.516 169.118 214.426 169.057 214.363C169.504 214.291 169.958 214.196 170.418 214.076C170.887 213.948 171.328 213.814 171.74 213.673C172.152 213.524 172.498 213.378 172.776 213.234L172.792 213.048ZM166.822 209.963L166.729 211.081L172.59 211.568L172.683 210.451L166.822 209.963ZM165.948 209.19L173.722 209.837L173.513 212.345L165.74 211.698L165.948 209.19ZM164.518 207.446L175.334 208.345L175.267 209.153L164.451 208.253L164.518 207.446ZM181.794 209.205L181.043 218.235L179.949 218.145L180.7 209.114L181.794 209.205ZM183.235 218.418L183.987 209.387L187.038 209.641C187.747 209.7 188.315 209.876 188.744 210.169C189.175 210.459 189.482 210.83 189.664 211.28C189.845 211.73 189.914 212.221 189.87 212.754C189.825 213.286 189.676 213.76 189.423 214.177C189.172 214.594 188.811 214.914 188.339 215.135C187.868 215.353 187.282 215.433 186.579 215.375L184.392 215.193L184.472 214.223L186.624 214.402C187.109 214.442 187.506 214.391 187.814 214.248C188.122 214.104 188.354 213.896 188.51 213.622C188.669 213.345 188.764 213.026 188.794 212.664C188.824 212.302 188.783 211.973 188.671 211.677C188.563 211.381 188.367 211.14 188.083 210.953C187.8 210.764 187.413 210.649 186.922 210.608L185 210.448L184.329 218.509L183.235 218.418Z" fill="#C5B0C5"/>
</g>
</g>
<g filter="url(#filter1_d_7224_52618)">
<g clip-path="url(#clip2_7224_52618)">
<rect x="199.428" y="102.182" width="377.903" height="229.481" rx="9.44758" transform="rotate(-4 199.428 102.182)" fill="url(#paint2_linear_7224_52618)"/>
<g opacity="0.05">
<path d="M520.371 106.997L509.135 110.423C515.31 108.515 519.724 106.701 519.776 106.68C519.743 106.518 512.926 73.2913 500.163 66.4921C487.369 59.6774 471.472 64.5239 464.656 77.3176C457.841 90.1116 462.689 106.009 475.482 112.824C483.478 117.084 498.782 113.621 509.135 110.423L464.76 123.952C458.617 125.825 452.119 122.364 450.246 116.221L436.682 71.7317C434.809 65.589 438.271 59.0911 444.413 57.2183L488.903 43.654C495.045 41.7812 501.543 45.2426 503.416 51.3853L520.371 106.997Z" fill="#850E8E"/>
<path d="M478.681 84.7884C483.639 75.4818 495.203 71.9555 504.51 76.9135C513.782 81.8544 518.74 105.968 518.777 106.148C518.607 106.217 495.83 115.554 486.556 110.617C477.249 105.659 473.724 94.0954 478.681 84.7884Z" fill="#850E8E"/>
<path d="M531.489 103.6L542.726 100.174C536.537 102.036 531.862 102.993 531.807 103.005C531.744 102.852 518.863 71.4738 525.662 58.7105C532.478 45.9171 548.375 41.0698 561.169 47.8849C573.963 54.7002 578.809 70.5975 571.994 83.3916C567.734 91.3877 553.102 97.052 542.726 100.174L587.101 86.6445C593.244 84.7717 596.705 78.2738 594.832 72.1311L581.268 27.6419C579.395 21.4992 572.897 18.0378 566.755 19.9106L522.265 33.4749C516.123 35.3477 512.661 41.8456 514.534 47.9883L531.489 103.6Z" fill="#850E8E"/>
<path d="M553.698 61.9093C544.391 56.9521 532.827 60.4771 527.869 69.7843C522.931 79.0578 532.269 101.836 532.339 102.005C532.518 101.969 556.631 97.0098 561.573 87.7383C566.53 78.4313 563.004 66.8675 553.698 61.9093Z" fill="#850E8E"/>
<path d="M534.881 114.722L546.117 111.296C539.942 113.204 535.528 115.017 535.476 115.039C535.509 115.201 542.326 148.427 555.089 155.227C567.883 162.041 583.78 157.195 590.596 144.401C597.411 131.607 592.563 115.71 579.77 108.894C571.774 104.635 556.47 108.098 546.117 111.296L590.492 97.7665C596.635 95.8937 603.133 99.3551 605.006 105.498L618.57 149.987C620.443 156.13 616.981 162.628 610.839 164.5L566.349 178.065C560.207 179.938 553.709 176.476 551.836 170.333L534.881 114.722Z" fill="#850E8E"/>
<path d="M576.571 136.93C571.613 146.237 560.049 149.763 550.742 144.805C541.47 139.864 536.512 115.751 536.475 115.571C536.645 115.502 559.422 106.164 568.696 111.101C578.003 116.06 581.528 127.623 576.571 136.93Z" fill="#850E8E"/>
<path d="M523.761 118.119L512.524 121.545C518.713 119.683 523.388 118.725 523.443 118.714C523.506 118.867 536.387 150.245 529.588 163.008C522.772 175.802 506.875 180.649 494.081 173.834C481.287 167.019 476.441 151.121 483.256 138.327C487.516 130.331 502.148 124.667 512.524 121.545L468.149 135.074C462.006 136.947 458.545 143.445 460.418 149.588L473.982 194.077C475.855 200.22 482.353 203.681 488.495 201.808L532.985 188.244C539.127 186.371 542.589 179.873 540.716 173.73L523.761 118.119Z" fill="#850E8E"/>
<path d="M501.552 159.809C510.859 164.767 522.423 161.242 527.381 151.934C532.319 142.661 522.981 119.883 522.911 119.713C522.732 119.75 498.619 124.709 493.677 133.98C488.72 143.287 492.246 154.851 501.552 159.809Z" fill="#850E8E"/>
</g>
<path d="M222.936 136.545L222.192 123.277L225.533 123.089L226.277 136.358L222.936 136.545ZM229.839 136.158L229.095 122.89L239.041 122.332C239.904 122.284 240.667 122.428 241.332 122.765C241.997 123.103 242.528 123.596 242.926 124.245C243.323 124.882 243.546 125.631 243.595 126.494C243.643 127.356 243.5 128.139 243.165 128.843C242.842 129.533 242.362 130.082 241.727 130.493C241.091 130.903 240.342 131.132 239.479 131.181L232.932 131.548L233.18 135.971L229.839 136.158ZM232.783 128.902L238.404 128.587C239.047 128.551 239.534 128.368 239.865 128.04C240.195 127.711 240.344 127.264 240.313 126.697C240.292 126.324 240.197 126.013 240.028 125.764C239.858 125.502 239.615 125.309 239.298 125.185C238.993 125.047 238.628 124.99 238.203 125.014L232.583 125.329L232.783 128.902Z" fill="#111213"/>
<path d="M261.788 123.898L264.23 123.761C265.474 123.692 266.102 124.175 266.162 125.248L266.343 128.468C266.403 129.541 265.833 130.091 264.589 130.161L260.695 130.379L260.871 133.52C260.901 134.056 261.214 134.278 261.864 134.321C262.722 134.373 264.012 134.301 264.836 134.155C265.453 134.04 265.738 133.765 265.709 133.248L265.62 131.658L268.426 131.82L268.544 133.927C268.607 135.06 267.734 135.966 266.357 136.143C264.545 136.384 262.333 136.508 260.551 136.469C259.163 136.447 258.194 135.644 258.13 134.511L257.915 130.675C256.405 133.411 253.432 135.632 248.403 137.449L247.532 135.105C251.162 133.885 253.437 132.421 254.797 130.71L251.71 130.883C250.466 130.953 249.838 130.47 249.778 129.397L249.595 126.137C249.193 126.399 248.768 126.642 248.319 126.887L247.503 124.699C250.441 123.099 252.352 121.317 253.276 119.252L255.926 119.103C255.744 119.572 255.539 120.042 255.31 120.493L261.83 120.128C263.558 120.031 264.331 121.443 263.213 122.522L261.788 123.898ZM259.204 126.037C259.159 126.897 259.02 127.702 258.81 128.491L263.279 128.241C263.51 128.228 263.619 128.122 263.608 127.923L263.505 126.095C263.494 125.896 263.374 125.803 263.143 125.816L259.204 126.037ZM258.194 124.1L260.212 122.172L253.945 122.524C253.382 123.193 252.747 123.827 251.996 124.447L258.194 124.1ZM256.416 126.193L252.66 126.404C252.43 126.417 252.32 126.523 252.332 126.721L252.434 128.55C252.445 128.749 252.566 128.842 252.796 128.829L255.93 128.653C256.21 127.88 256.372 127.053 256.416 126.193Z" fill="#111213"/>
<path d="M289.496 127.568C289.623 127.78 289.708 128.055 289.726 128.373L289.926 131.93L287.253 132.08L287.09 129.178C287.08 128.999 286.935 128.888 286.728 128.9L275.692 129.518C275.485 129.53 275.353 129.657 275.363 129.836L275.526 132.738L272.854 132.888L272.654 129.33C272.647 129.211 272.642 129.111 272.659 129.011C272.227 129.135 271.748 129.241 271.247 129.369L270.411 127.243C272.727 126.913 274.273 126.468 275.26 125.934L273.025 126.059C272.012 126.116 271.357 125.575 271.4 124.695L271.461 123.296C271.504 122.416 272.208 121.779 273.221 121.722L276.677 121.528L276.627 120.634L271.005 120.949L270.702 119.251L276.531 118.924L276.476 117.951L279.103 117.803L279.158 118.777L281.899 118.623L281.845 117.65L284.471 117.502L284.526 118.476L288.258 118.267C289.249 118.211 289.972 118.749 290.021 119.623L290.099 121.015C290.148 121.889 289.49 122.524 288.5 122.58L284.767 122.789L284.818 123.683L289.264 123.434C290.278 123.377 290.785 123.767 290.926 124.637C291.052 125.228 291.109 125.843 291.019 126.286C290.99 127.006 290.299 127.463 289.496 127.568ZM286.434 126.962L286.007 125.929C286.938 126.057 287.814 126.007 288.181 125.967C288.411 125.934 288.431 125.893 288.444 125.713C288.461 125.592 288.478 125.492 288.427 125.395C288.394 125.217 288.392 125.197 288.208 125.208L284.914 125.393L284.975 126.486L282.348 126.633L282.287 125.54L278.969 125.726C278.589 126.365 277.928 126.941 276.873 127.498L286.434 126.962ZM284.672 121.08L287.16 120.94C287.367 120.929 287.478 120.843 287.468 120.664L287.448 120.306C287.439 120.147 287.34 120.033 287.11 120.046L284.621 120.185L284.672 121.08ZM282.689 131.479C284.624 132.586 287.492 133.044 291.856 132.978L291.477 135.272C286.592 135.128 283.445 134.646 281.5 133.34C279.998 134.58 276.979 135.567 271.661 136.344L270.959 134.13C277.823 133.307 280.093 132.163 280.015 130.771L279.963 129.837L282.681 129.685L282.735 130.639C282.752 130.937 282.744 131.216 282.689 131.479ZM282.191 123.831L282.141 122.936L279.399 123.09L279.422 123.488C279.432 123.666 279.441 123.825 279.427 123.986L282.191 123.831ZM282.045 121.227L281.995 120.333L279.253 120.486L279.304 121.381L282.045 121.227ZM276.773 123.237L274.308 123.376C274.1 123.387 274.037 123.49 274 123.652L273.947 123.954C273.935 124.154 274.081 124.285 274.312 124.273L276.777 124.134C276.791 123.974 276.805 123.814 276.795 123.635L276.773 123.237Z" fill="#111213"/>
<path d="M299.02 120.195L294.083 119.116L293.965 117.01L298.902 118.088L299.02 120.195ZM305.648 118.867L303.022 119.014L302.004 116.519L304.584 116.374L305.648 118.867ZM310.647 118.985L313.296 118.836L313.408 120.824L308.109 121.121L308.229 123.268L314.15 122.935L314.262 124.923L309.17 125.208C310.178 126.687 311.743 127.816 314.505 128.438L314.128 130.772C310.731 129.966 308.741 128.682 307.425 127.061C306.368 128.815 304.252 130.229 300.948 131.491L300.152 129.243C303.113 128.06 304.765 127.011 305.323 125.424L300.346 125.703L300.004 123.729L305.511 123.42L305.39 121.273L300.621 121.541L300.279 119.566L308.021 119.132L309.007 116.126L311.588 115.981L310.647 118.985ZM298.925 128.794C299.328 131.443 301.188 132.056 303.699 131.915L315.126 131.274L314.646 133.415L303.771 134.025C300.799 134.191 298.903 133.341 297.985 131.817C297.647 132.793 296.489 133.994 294.695 134.972L293.799 133.009C295.365 132.084 296.362 130.493 296.304 129.04L296.032 124.191C296.021 123.992 295.852 123.862 295.621 123.875L293.917 123.971L293.575 121.996L296.708 121.82C297.906 121.753 298.558 122.255 298.615 123.268L298.925 128.794Z" fill="#111213"/>
<path d="M228.309 149.067L229.284 149.247C229.059 149.995 228.75 150.715 228.357 151.409C227.973 152.101 227.556 152.69 227.105 153.175C227.046 153.114 226.969 153.045 226.873 152.967C226.776 152.89 226.676 152.817 226.571 152.75C226.465 152.673 226.375 152.614 226.299 152.572C226.743 152.133 227.141 151.606 227.492 150.988C227.853 150.37 228.125 149.73 228.309 149.067ZM228.447 152.521L229.437 152.713C229.247 153.266 229.002 153.809 228.701 154.34C228.4 154.872 228.085 155.322 227.756 155.689C227.699 155.647 227.613 155.596 227.499 155.538C227.394 155.471 227.29 155.408 227.185 155.349C227.081 155.291 226.982 155.241 226.887 155.2C227.236 154.859 227.544 154.451 227.812 153.976C228.079 153.493 228.291 153.007 228.447 152.521ZM228.26 150.421L234.213 150.087L234.263 150.981L227.953 151.335L228.26 150.421ZM230.316 150.926L231.306 150.871L231.574 155.655C231.588 155.911 231.567 156.115 231.511 156.265C231.456 156.415 231.334 156.537 231.146 156.63C230.967 156.714 230.731 156.773 230.439 156.808C230.155 156.833 229.793 156.858 229.354 156.882C229.328 156.746 229.278 156.597 229.204 156.436C229.131 156.265 229.053 156.118 228.973 155.994C229.294 155.985 229.583 155.973 229.84 155.959C230.105 155.944 230.279 155.934 230.362 155.929C230.453 155.915 230.512 155.893 230.538 155.864C230.573 155.835 230.588 155.779 230.583 155.696L230.316 150.926ZM232.162 152.616L232.994 152.21C233.24 152.491 233.478 152.799 233.708 153.136C233.938 153.472 234.145 153.805 234.329 154.135C234.522 154.455 234.676 154.75 234.792 155.019L233.923 155.495C233.807 155.226 233.657 154.927 233.473 154.597C233.288 154.258 233.08 153.915 232.85 153.57C232.619 153.224 232.39 152.906 232.162 152.616ZM233.924 150.104L234.089 150.094L234.252 150.058L234.977 150.196C234.836 150.627 234.677 151.082 234.502 151.56C234.335 152.029 234.173 152.42 234.016 152.732L233.126 152.603C233.266 152.301 233.41 151.93 233.56 151.489C233.71 151.049 233.834 150.633 233.932 150.241L233.924 150.104ZM226.477 157.719L227.494 157.662L227.635 160.164C227.645 160.347 227.702 160.464 227.806 160.513C227.918 160.553 228.158 160.562 228.525 160.542C228.607 160.537 228.758 160.529 228.978 160.516C229.207 160.503 229.455 160.489 229.72 160.475C229.995 160.459 230.252 160.445 230.49 160.431C230.729 160.418 230.907 160.408 231.026 160.401C231.228 160.39 231.377 160.349 231.475 160.28C231.581 160.209 231.646 160.063 231.671 159.841C231.704 159.619 231.717 159.282 231.711 158.832C231.787 158.883 231.882 158.933 231.995 158.982C232.107 159.022 232.22 159.057 232.332 159.087C232.453 159.117 232.565 159.143 232.667 159.165C232.652 159.726 232.603 160.161 232.519 160.469C232.436 160.777 232.287 160.993 232.073 161.115C231.86 161.246 231.556 161.323 231.162 161.345C231.098 161.349 230.974 161.356 230.791 161.366C230.608 161.376 230.401 161.388 230.172 161.401C229.943 161.414 229.71 161.427 229.471 161.44C229.233 161.453 229.027 161.465 228.853 161.475C228.679 161.484 228.559 161.491 228.495 161.495C228.019 161.521 227.645 161.501 227.375 161.433C227.114 161.365 226.927 161.233 226.815 161.037C226.703 160.851 226.637 160.578 226.617 160.221L226.477 157.719ZM227.622 157.241L228.29 156.597C228.591 156.718 228.902 156.866 229.225 157.041C229.546 157.207 229.846 157.388 230.124 157.584C230.411 157.779 230.637 157.964 230.803 158.139L230.112 158.853C229.946 158.669 229.724 158.48 229.446 158.284C229.168 158.088 228.873 157.898 228.559 157.713C228.245 157.528 227.933 157.371 227.622 157.241ZM232.192 157.826L233.017 157.297C233.382 157.571 233.739 157.877 234.089 158.216C234.439 158.546 234.756 158.882 235.042 159.225C235.328 159.567 235.548 159.89 235.703 160.194L234.812 160.782C234.666 160.478 234.455 160.149 234.178 159.797C233.91 159.444 233.601 159.099 233.251 158.76C232.91 158.411 232.557 158.1 232.192 157.826ZM224.81 157.992L225.748 158.243C225.608 158.867 225.404 159.476 225.133 160.07C224.872 160.655 224.477 161.141 223.947 161.529L223.075 160.985C223.561 160.636 223.941 160.197 224.215 159.666C224.497 159.127 224.695 158.568 224.81 157.992ZM225.627 149.204L226.579 149.454C226.308 150.039 225.992 150.617 225.628 151.189C225.265 151.761 224.877 152.302 224.465 152.813C224.061 153.313 223.639 153.755 223.201 154.138C223.161 154.067 223.096 153.988 223.009 153.901C222.921 153.805 222.828 153.709 222.731 153.613C222.642 153.517 222.56 153.439 222.483 153.379C223.116 152.856 223.71 152.225 224.266 151.486C224.822 150.738 225.275 149.977 225.627 149.204ZM224.507 151.845L225.428 150.814L225.456 150.827L225.807 157.081L224.804 157.137L224.507 151.845ZM241.917 148.29L243.044 148.227L243.348 153.643L242.22 153.706L241.917 148.29ZM237.339 149.526L238.253 149.102C238.527 149.409 238.794 149.743 239.054 150.106C239.313 150.459 239.548 150.813 239.761 151.169C239.974 151.516 240.139 151.833 240.256 152.12L239.292 152.629C239.174 152.333 239.013 152.006 238.809 151.65C238.605 151.284 238.373 150.916 238.113 150.544C237.862 150.172 237.604 149.833 237.339 149.526ZM246.659 148.507L247.793 148.816C247.613 149.221 247.421 149.636 247.215 150.062C247.017 150.477 246.815 150.884 246.607 151.282C246.4 151.679 246.199 152.031 246.005 152.336L245.092 152.042C245.276 151.719 245.467 151.355 245.665 150.948C245.862 150.533 246.05 150.113 246.228 149.689C246.406 149.257 246.55 148.862 246.659 148.507ZM237.749 153.405L247.839 152.84L248.276 160.634L247.19 160.695L246.811 153.931L237.807 154.436L237.749 153.405ZM238.373 156.404L247.335 155.902L247.391 156.891L238.428 157.394L238.373 156.404ZM237.82 159.579L247.648 159.028L247.706 160.059L237.878 160.61L237.82 159.579ZM250.217 150.004L262.507 149.314L262.56 150.263L250.271 150.952L250.217 150.004ZM251.881 154.35L255.744 154.134L255.79 154.945L251.927 155.161L251.881 154.35ZM252.005 156.55L255.868 156.333L255.913 157.144L252.05 157.361L252.005 156.55ZM257.921 151.888L258.883 151.834L259.199 157.47L258.237 157.524L257.921 151.888ZM255.234 151.915L256.237 151.859L256.636 158.965C256.65 159.222 256.625 159.426 256.56 159.576C256.504 159.727 256.382 159.848 256.194 159.942C256.006 160.035 255.757 160.099 255.446 160.135C255.145 160.17 254.761 160.201 254.293 160.227C254.259 160.101 254.199 159.948 254.116 159.769C254.042 159.598 253.965 159.451 253.884 159.326C254.233 159.316 254.549 159.303 254.833 159.287C255.118 159.28 255.306 159.27 255.397 159.255C255.498 159.25 255.561 159.228 255.586 159.19C255.621 159.151 255.636 159.09 255.631 159.008L255.234 151.915ZM260.688 151.319L261.706 151.262L262.115 158.562C262.131 158.855 262.103 159.082 262.029 159.242C261.956 159.412 261.812 159.544 261.596 159.639C261.39 159.733 261.109 159.799 260.752 159.838C260.406 159.885 259.966 159.918 259.434 159.939C259.399 159.803 259.339 159.641 259.255 159.453C259.172 159.274 259.089 159.113 259.008 158.97C259.421 158.965 259.797 158.953 260.136 158.934C260.475 158.915 260.704 158.898 260.823 158.882C260.933 158.876 261.005 158.854 261.04 158.815C261.084 158.776 261.103 158.706 261.097 158.605L260.688 151.319ZM252.245 148.042L253.188 147.644C253.469 147.914 253.749 148.224 254.026 148.576C254.303 148.929 254.518 149.234 254.67 149.492L253.675 149.934C253.55 149.674 253.349 149.368 253.072 149.016C252.803 148.654 252.528 148.33 252.245 148.042ZM259.302 147.246L260.421 147.542C260.189 147.987 259.934 148.438 259.656 148.895C259.388 149.351 259.139 149.747 258.909 150.082L257.97 149.803C258.131 149.564 258.295 149.298 258.463 149.003C258.629 148.7 258.783 148.397 258.922 148.095C259.07 147.783 259.197 147.501 259.302 147.246ZM251.206 152.141L255.564 151.896L255.613 152.776L252.231 152.966L252.643 160.306L251.667 160.361L251.206 152.141ZM264.733 147.949L265.397 147.249C265.657 147.465 265.928 147.698 266.208 147.949C266.498 148.199 266.769 148.446 267.022 148.689C267.275 148.932 267.48 149.155 267.639 149.358L266.951 150.127C266.802 149.933 266.601 149.71 266.348 149.458C266.094 149.196 265.827 148.935 265.546 148.675C265.264 148.406 264.993 148.164 264.733 147.949ZM264.043 151.379L267.122 151.207L267.177 152.197L264.098 152.369L264.043 151.379ZM268.622 147.951L276.374 147.516L276.432 148.547L268.679 148.982L268.622 147.951ZM272.862 148.072L273.948 148.011L274.487 157.633C274.507 157.982 274.471 158.25 274.381 158.439C274.3 158.637 274.134 158.793 273.883 158.908C273.64 159.005 273.3 159.079 272.861 159.131C272.432 159.183 271.892 159.227 271.242 159.263C271.217 159.154 271.173 159.033 271.111 158.898C271.058 158.773 271 158.642 270.937 158.508C270.875 158.374 270.808 158.258 270.739 158.161C271.088 158.16 271.418 158.15 271.73 158.133C272.051 158.115 272.325 158.099 272.555 158.086C272.793 158.073 272.962 158.064 273.063 158.058C273.191 158.042 273.281 158.009 273.333 157.96C273.385 157.902 273.408 157.809 273.401 157.68L272.862 148.072ZM266.621 159.247L266.386 158.253L266.677 157.782L269.642 155.575C269.666 155.674 269.695 155.783 269.729 155.901C269.772 156.009 269.815 156.117 269.858 156.224C269.909 156.323 269.955 156.407 269.996 156.479C269.3 157.023 268.741 157.464 268.319 157.8C267.896 158.127 267.57 158.38 267.341 158.558C267.112 158.746 266.946 158.888 266.841 158.986C266.746 159.092 266.673 159.179 266.621 159.247ZM266.621 159.247C266.589 159.166 266.538 159.072 266.468 158.966C266.406 158.859 266.336 158.752 266.257 158.646C266.187 158.549 266.118 158.466 266.049 158.396C266.173 158.306 266.316 158.156 266.479 157.944C266.651 157.723 266.728 157.462 266.711 157.159L266.38 151.248L267.383 151.192L267.765 157.997C267.765 157.997 267.725 158.026 267.645 158.086C267.566 158.146 267.469 158.225 267.355 158.323C267.241 158.421 267.128 158.524 267.014 158.632C266.901 158.748 266.806 158.859 266.729 158.965C266.653 159.07 266.617 159.164 266.621 159.247ZM283.329 148.836L284.388 148.777L284.936 158.55L283.877 158.61L283.329 148.836ZM280.208 151.7L280.291 153.185L288.044 152.75L287.961 151.265L280.208 151.7ZM280.08 149.418L280.162 150.875L287.915 150.441L287.833 148.984L280.08 149.418ZM279.027 148.595L288.828 148.045L289.138 153.571L279.337 154.121L279.027 148.595ZM278.118 155.499L290.421 154.809L290.475 155.772L278.172 156.461L278.118 155.499ZM280.116 146.617L280.973 146.155C281.274 146.451 281.578 146.783 281.884 147.152C282.189 147.512 282.418 147.835 282.572 148.12L281.677 148.626C281.524 148.358 281.299 148.035 281.002 147.657C280.713 147.268 280.418 146.922 280.116 146.617ZM286.609 145.839L287.743 146.148C287.493 146.603 287.22 147.069 286.925 147.545C286.639 148.012 286.371 148.408 286.123 148.735L285.224 148.44C285.386 148.211 285.555 147.944 285.731 147.64C285.907 147.336 286.073 147.028 286.23 146.715C286.387 146.394 286.513 146.102 286.609 145.839ZM292.531 147.672L296.71 147.438L297.214 156.428L293.035 156.662L292.982 155.728L296.213 155.546L295.813 148.412L292.582 148.593L292.531 147.672ZM291.926 147.706L292.874 147.653L293.439 157.729L292.491 157.782L291.926 147.706ZM292.676 151.498L296.47 151.285L296.521 152.192L292.727 152.405L292.676 151.498ZM293.903 145.348L295.028 145.478C294.914 145.916 294.787 146.36 294.647 146.809C294.516 147.258 294.391 147.641 294.271 147.961L293.42 147.802C293.49 147.568 293.554 147.307 293.611 147.019C293.677 146.73 293.735 146.437 293.782 146.14C293.839 145.843 293.88 145.579 293.903 145.348ZM298.673 147.286L302.893 147.05L302.946 147.998L298.726 148.235L298.673 147.286ZM302.522 147.071L303.498 147.016C303.498 147.016 303.5 147.048 303.503 147.112C303.507 147.176 303.511 147.254 303.516 147.346C303.521 147.428 303.52 147.493 303.513 147.539C303.547 149.118 303.567 150.455 303.573 151.548C303.588 152.641 303.579 153.538 303.544 154.239C303.51 154.93 303.453 155.471 303.373 155.862C303.303 156.252 303.204 156.533 303.076 156.706C302.931 156.916 302.774 157.063 302.604 157.146C302.444 157.238 302.241 157.304 301.995 157.346C301.767 157.377 301.465 157.398 301.088 157.41C300.722 157.431 300.341 157.438 299.945 157.433C299.928 157.287 299.882 157.119 299.807 156.931C299.741 156.741 299.654 156.585 299.546 156.463C300.006 156.474 300.42 156.473 300.787 156.462C301.163 156.45 301.434 156.439 301.599 156.43C301.736 156.423 301.845 156.403 301.926 156.37C302.016 156.329 302.099 156.26 302.177 156.163C302.28 156.038 302.363 155.79 302.425 155.419C302.495 155.038 302.543 154.502 302.569 153.811C302.594 153.12 302.605 152.242 302.6 151.175C302.595 150.1 302.573 148.805 302.534 147.291L302.522 147.071ZM298.823 145.044L299.825 145.209C299.699 145.905 299.535 146.59 299.333 147.263C299.141 147.927 298.919 148.555 298.667 149.148C298.424 149.741 298.16 150.266 297.873 150.723C297.806 150.672 297.715 150.613 297.601 150.546C297.495 150.469 297.386 150.401 297.272 150.343C297.158 150.276 297.059 150.222 296.974 150.181C297.271 149.751 297.538 149.262 297.774 148.716C298.009 148.16 298.215 147.569 298.392 146.944C298.568 146.318 298.712 145.685 298.823 145.044ZM298.515 150.867L299.301 150.368C299.575 150.674 299.861 151.012 300.157 151.381C300.463 151.75 300.745 152.107 301.003 152.451C301.271 152.794 301.486 153.1 301.648 153.366L300.799 153.965C300.645 153.689 300.439 153.374 300.18 153.021C299.93 152.658 299.657 152.292 299.36 151.922C299.072 151.543 298.791 151.191 298.515 150.867ZM312.022 153.695L316.338 153.453L316.383 154.25L312.067 154.492L312.022 153.695ZM311.282 144.676L312.09 144.342C312.287 144.569 312.471 144.826 312.644 145.11C312.815 145.386 312.944 145.631 313.03 145.847L312.169 146.226C312.092 146.01 311.967 145.755 311.795 145.461C311.622 145.168 311.451 144.906 311.282 144.676ZM315.347 144.131L316.328 144.421C316.128 144.782 315.914 145.148 315.687 145.519C315.468 145.89 315.265 146.204 315.078 146.463L314.346 146.201C314.464 146.01 314.585 145.797 314.71 145.56C314.834 145.314 314.953 145.064 315.068 144.809C315.182 144.554 315.275 144.328 315.347 144.131ZM307.359 147.02L308.156 146.975L308.377 150.907C308.405 151.402 308.407 151.935 308.384 152.506C308.369 153.067 308.291 153.633 308.148 154.201C308.014 154.77 307.788 155.32 307.468 155.853C307.148 156.376 306.711 156.851 306.155 157.278C306.095 157.189 306.007 157.089 305.89 156.976C305.774 156.863 305.667 156.772 305.572 156.704C306.093 156.334 306.497 155.907 306.782 155.423C307.077 154.937 307.283 154.438 307.402 153.926C307.519 153.405 307.582 152.886 307.59 152.371C307.607 151.855 307.604 151.382 307.58 150.951L307.359 147.02ZM308.363 154.341L308.956 153.853C309.189 154.07 309.418 154.314 309.645 154.586C309.88 154.849 310.102 155.108 310.309 155.363C310.516 155.608 310.68 155.824 310.8 156.011L310.171 156.584C310.049 156.379 309.889 156.149 309.691 155.894C309.492 155.629 309.275 155.361 309.039 155.089C308.803 154.817 308.578 154.568 308.363 154.341ZM305.557 145.37L309.846 145.129L310.318 153.556L309.521 153.6L309.096 146.026L306.388 146.178L306.815 153.794L306.032 153.837L305.557 145.37ZM311.347 151.733L316.804 151.427L317.094 156.609L316.16 156.662L315.915 152.29L312.286 152.494L312.534 156.92L311.64 156.97L311.347 151.733ZM312.073 155.595L316.555 155.343L316.599 156.141L312.118 156.392L312.073 155.595ZM313.398 146.516L314.113 146.476L314.33 150.352L313.616 150.392L313.398 146.516ZM311.398 147L311.578 150.203L316.348 149.936L316.168 146.733L311.398 147ZM310.515 146.25L317.003 145.886L317.272 150.67L310.783 151.034L310.515 146.25ZM311.631 147.704L312.184 147.494C312.404 147.803 312.612 148.15 312.808 148.535C313.004 148.91 313.146 149.228 313.234 149.49L312.629 149.758C312.54 149.487 312.397 149.16 312.201 148.776C312.014 148.382 311.823 148.024 311.631 147.704ZM315.33 147.276L316.031 147.485C315.895 147.851 315.746 148.227 315.584 148.613C315.422 148.999 315.27 149.33 315.13 149.604L314.582 149.428C314.663 149.23 314.751 149.005 314.847 148.751C314.943 148.488 315.034 148.231 315.121 147.977C315.208 147.715 315.277 147.481 315.33 147.276ZM322.338 145.353L322.484 147.964L327.969 147.657L327.822 145.045L322.338 145.353ZM321.279 144.433L328.826 144.01L329.083 148.587L321.536 149.01L321.279 144.433ZM319.612 150.594L324.505 150.319L324.835 156.203L323.804 156.261L323.529 151.353L320.656 151.514L320.938 156.545L319.948 156.601L319.612 150.594ZM326.017 150.235L331.186 149.945L331.518 155.869L330.473 155.928L330.196 150.979L327.062 151.155L327.344 156.186L326.354 156.242L326.017 150.235ZM320.304 154.83L324.139 154.615L324.196 155.618L320.36 155.833L320.304 154.83ZM326.751 154.468L330.834 154.239L330.89 155.243L326.807 155.472L326.751 154.468Z" fill="#8B628D"/>
</g>
</g>
</g>
<defs>
<filter id="filter0_d_7224_52618" x="43.3071" y="16.8572" width="389.608" height="251.526" filterUnits="userSpaceOnUse" color-interpolation-filters="sRGB">
<feFlood flood-opacity="0" result="BackgroundImageFix"/>
<feColorMatrix in="SourceAlpha" type="matrix" values="0 0 0 0 0 0 0 0 0 0 0 0 0 0 0 0 0 0 127 0" result="hardAlpha"/>
<feOffset dy="2.09946"/>
<feGaussianBlur stdDeviation="3.14919"/>
<feComposite in2="hardAlpha" operator="out"/>
<feColorMatrix type="matrix" values="0 0 0 0 0 0 0 0 0 0 0 0 0 0 0 0 0 0 0.08 0"/>
<feBlend mode="normal" in2="BackgroundImageFix" result="effect1_dropShadow_7224_52618"/>
<feBlend mode="normal" in="SourceGraphic" in2="effect1_dropShadow_7224_52618" result="shape"/>
</filter>
<filter id="filter1_d_7224_52618" x="191.2" y="70.3355" width="409.445" height="271.738" filterUnits="userSpaceOnUse" color-interpolation-filters="sRGB">
<feFlood flood-opacity="0" result="BackgroundImageFix"/>
<feColorMatrix in="SourceAlpha" type="matrix" values="0 0 0 0 0 0 0 0 0 0 0 0 0 0 0 0 0 0 127 0" result="hardAlpha"/>
<feOffset dy="2.74242"/>
<feGaussianBlur stdDeviation="4.11363"/>
<feComposite in2="hardAlpha" operator="out"/>
<feColorMatrix type="matrix" values="0 0 0 0 0 0 0 0 0 0 0 0 0 0 0 0 0 0 0.03 0"/>
<feBlend mode="normal" in2="BackgroundImageFix" result="effect1_dropShadow_7224_52618"/>
<feBlend mode="normal" in="SourceGraphic" in2="effect1_dropShadow_7224_52618" result="shape"/>
</filter>
<linearGradient id="paint0_linear_7224_52618" x1="114.215" y1="21.0562" x2="277.656" y2="212.504" gradientUnits="userSpaceOnUse">
<stop stop-color="#483349"/>
<stop offset="1" stop-color="#664B67"/>
</linearGradient>
<linearGradient id="paint1_linear_7224_52618" x1="114.215" y1="21.0562" x2="277.656" y2="212.504" gradientUnits="userSpaceOnUse">
<stop stop-color="#483349"/>
<stop offset="1" stop-color="#3D273E"/>
</linearGradient>
<linearGradient id="paint2_linear_7224_52618" x1="254.247" y1="102.182" x2="424.927" y2="300.153" gradientUnits="userSpaceOnUse">
<stop stop-color="#FBD8FD"/>
<stop offset="1" stop-color="#FCE7FD"/>
</linearGradient>
<clipPath id="clip0_7224_52618">
<rect width="634" height="230" fill="white"/>
</clipPath>
<clipPath id="clip1_7224_52618">
<rect x="61.123" y="21.0562" width="365.996" height="220.076" rx="9.44758" transform="rotate(3 61.123 21.0562)" fill="white"/>
</clipPath>
<clipPath id="clip2_7224_52618">
<rect x="199.428" y="102.182" width="377.903" height="229.481" rx="9.44758" transform="rotate(-4 199.428 102.182)" fill="white"/>
</clipPath>
</defs>
</svg>
