<svg width="634" height="230" viewBox="0 0 634 230" fill="none" xmlns="http://www.w3.org/2000/svg">
<g clip-path="url(#clip0_7224_52488)">
<g filter="url(#filter0_d_7224_52488)">
<g clip-path="url(#clip1_7224_52488)">
<rect x="61.1211" y="21.0562" width="365.996" height="220.076" rx="9.44758" transform="rotate(3 61.1211 21.0562)" fill="url(#paint0_linear_7224_52488)"/>
<rect x="61.1211" y="21.0562" width="365.996" height="220.076" rx="9.44758" transform="rotate(3 61.1211 21.0562)" fill="url(#paint1_linear_7224_52488)"/>
<g opacity="0.05">
<path d="M359.632 66.5419L348.061 68.5728C354.423 67.4321 359.025 66.1696 359.079 66.1546C359.066 65.9897 356.349 32.1801 344.51 23.8762C332.642 15.5532 316.273 18.4261 307.949 30.2939C299.625 42.1619 302.499 58.5311 314.367 66.8553C321.784 72.0574 337.396 70.4853 348.061 68.5728L302.368 76.5935C296.043 77.7038 290.015 73.4763 288.905 67.1511L280.864 21.3404C279.754 15.0152 283.981 8.98764 290.306 7.87737L336.117 -0.163909C342.442 -1.27418 348.47 2.95331 349.58 9.27846L359.632 66.5419Z" fill="white"/>
<path d="M320.958 39.4181C327.014 30.7851 338.921 28.6944 347.554 34.7496C356.155 40.7838 358.138 65.3215 358.152 65.5045C357.976 65.5529 334.23 72.0448 325.627 66.0143C316.994 59.9588 314.904 48.0517 320.958 39.4181Z" fill="white"/>
<path d="M371.082 64.5251L382.652 62.4942C376.282 63.5882 371.526 63.9684 371.469 63.9729C371.426 63.8134 362.465 31.0997 370.769 19.2601C379.093 7.39269 395.462 4.51892 407.33 12.8424C419.198 21.1661 422.071 37.5355 413.748 49.4038C408.545 56.8212 393.331 60.6599 382.652 62.4942L428.346 54.4735C434.671 53.3632 438.898 47.3356 437.788 41.0105L429.747 -4.80023C428.636 -11.1254 422.609 -15.3529 416.284 -14.2426L370.473 -6.20133C364.148 -5.09106 359.92 0.936535 361.031 7.26168L371.082 64.5251Z" fill="white"/>
<path d="M398.206 25.8518C389.572 19.7973 377.665 21.8868 371.61 30.5203C365.578 39.1229 372.071 62.8689 372.119 63.046C372.302 63.0314 396.839 61.0481 402.874 52.448C408.929 43.8145 406.839 31.9073 398.206 25.8518Z" fill="white"/>
<path d="M373.093 75.9776L384.663 73.9467C378.302 75.0874 373.7 76.35 373.645 76.3649C373.658 76.5298 376.375 110.339 388.214 118.643C400.083 126.966 416.452 124.093 424.776 112.226C433.099 100.358 430.225 83.9884 418.358 75.6643C410.94 70.4621 395.329 72.0342 384.663 73.9467L430.356 65.926C436.682 64.8158 442.709 69.0433 443.819 75.3684L451.861 121.179C452.971 127.504 448.744 133.532 442.418 134.642L396.608 142.683C390.283 143.794 384.255 139.566 383.145 133.241L373.093 75.9776Z" fill="white"/>
<path d="M411.766 103.101C405.711 111.734 393.804 113.825 385.17 107.77C376.569 101.736 374.587 77.198 374.572 77.015C374.749 76.9666 398.494 70.4748 407.098 76.5052C415.731 82.5607 417.821 94.4679 411.766 103.101Z" fill="white"/>
<path d="M361.644 77.9949L350.074 80.0258C356.444 78.9318 361.201 78.5516 361.257 78.5471C361.301 78.7066 370.261 111.42 361.958 123.26C353.634 135.127 337.264 138.001 325.396 129.678C313.529 121.354 310.656 104.984 318.979 93.1162C324.181 85.6988 339.395 81.8601 350.074 80.0258L304.381 88.0465C298.056 89.1568 293.828 95.1844 294.939 101.51L302.98 147.32C304.09 153.645 310.118 157.873 316.443 156.763L362.254 148.721C368.579 147.611 372.806 141.583 371.696 135.258L361.644 77.9949Z" fill="white"/>
<path d="M334.521 116.668C343.155 122.723 355.062 120.633 361.117 112C367.149 103.397 360.656 79.6511 360.607 79.474C360.424 79.4886 335.888 81.4719 329.852 90.072C323.798 98.7056 325.888 110.613 334.521 116.668Z" fill="white"/>
</g>
<path d="M79.8482 57.9822L80.5276 45.0191L91 45.5679C91.9309 45.6167 92.6821 45.8453 93.2535 46.2536C93.8376 46.6627 94.2644 47.1833 94.534 47.8155C94.8036 48.4477 94.9186 49.1412 94.8791 49.896C94.8382 50.6759 94.5987 51.395 94.1605 52.0532C93.7356 52.6994 93.1104 53.1965 92.2849 53.5442L94.7172 58.7615L91.0566 58.5696L89.0087 53.9591L83.348 53.6624L83.1126 58.1533L79.8482 57.9822ZM83.4824 51.0962L89.7282 51.4235C90.2565 51.4512 90.6799 51.3157 90.9983 51.0171C91.3299 50.7065 91.5089 50.2996 91.5353 49.7964C91.5537 49.4442 91.5 49.1449 91.3742 48.8987C91.2483 48.6524 91.0629 48.4598 90.8179 48.3208C90.5729 48.1818 90.268 48.1028 89.9032 48.0837L83.6575 47.7564L83.4824 51.0962ZM102.389 59.3906C101.094 59.3227 99.9843 59.0691 99.0613 58.6296C98.1509 58.1909 97.4579 57.5743 96.9823 56.78C96.52 55.9737 96.3189 54.9981 96.3789 53.8534C96.4395 52.6961 96.7415 51.7469 97.2849 51.006C97.8409 50.2656 98.5942 49.7312 99.5449 49.4026C100.509 49.0621 101.639 48.9258 102.934 48.9937C104.23 49.0616 105.333 49.3149 106.243 49.7536C107.167 50.1805 107.86 50.7907 108.323 51.5845C108.799 52.3788 109.006 53.3547 108.946 54.512C108.886 55.6567 108.577 56.6056 108.021 57.3585C107.477 58.0994 106.724 58.6402 105.76 58.9807C104.809 59.3219 103.685 59.4585 102.389 59.3906ZM102.502 57.2395C103.181 57.2751 103.766 57.1922 104.256 56.9909C104.759 56.7776 105.148 56.4636 105.422 56.0491C105.696 55.6346 105.848 55.1317 105.879 54.5405L105.899 54.1631C105.93 53.5593 105.831 53.0432 105.602 52.6149C105.372 52.174 105.018 51.8275 104.54 51.5754C104.074 51.3239 103.501 51.1804 102.822 51.1448C102.13 51.1085 101.539 51.1911 101.049 51.3924C100.559 51.5938 100.177 51.9018 99.903 52.3163C99.6297 52.7182 99.4772 53.2211 99.4456 53.8249L99.4258 54.2023C99.3948 54.7935 99.4939 55.3096 99.7231 55.7505C99.9522 56.1914 100.3 56.5438 100.765 56.8079C101.231 57.0594 101.81 57.2033 102.502 57.2395ZM108.871 59.5033L113.917 54.5644L109.713 49.576L113.487 49.7738L116.085 52.9184L116.198 52.9243L119.091 50.0675L122.62 50.2524L117.916 54.8118L122.363 60.2103L118.627 60.0145L115.767 56.4588L115.635 56.4519L112.419 59.6892L108.871 59.5033ZM124.746 64.1384C124.368 64.1186 124.024 64.069 123.713 63.9896C123.414 63.9109 123.136 63.8143 122.877 63.6998L122.973 61.8695L124.388 61.9437C124.941 61.9727 125.385 61.9328 125.719 61.8242C126.052 61.7155 126.32 61.5404 126.522 61.2987C126.736 61.0702 126.933 60.7904 127.115 60.4594L122.786 50.2611L126.013 50.4302L127.822 55.2553C127.912 55.4744 128.017 55.7512 128.138 56.0855C128.26 56.4072 128.382 56.7352 128.503 57.0696C128.624 57.4039 128.729 57.6995 128.816 57.9563L128.967 57.9643C128.982 57.9272 129.026 57.8096 129.099 57.6117C129.185 57.4144 129.292 57.1803 129.42 56.9095C129.547 56.6387 129.675 56.3616 129.804 56.0782C129.932 55.7948 130.046 55.5422 130.146 55.3203L132.259 50.7575L135.353 50.9197L130.767 59.7236C130.402 60.4235 130.041 61.0542 129.684 61.6157C129.327 62.1773 128.923 62.6544 128.474 63.0471C128.037 63.4405 127.517 63.7286 126.915 63.9114C126.312 64.1069 125.589 64.1825 124.746 64.1384ZM149.846 61.8777C147.229 61.7406 145.29 61.0839 144.027 59.9077C142.777 58.7321 142.21 57.0185 142.328 54.7667C142.406 53.2949 142.804 52.0796 143.522 51.1208C144.254 50.15 145.269 49.4463 146.566 49.0098C147.875 48.5738 149.423 48.4027 151.209 48.4963C152.342 48.5556 153.374 48.7106 154.307 48.9614C155.253 49.2001 156.068 49.5393 156.751 49.9787C157.435 50.4182 157.949 50.9497 158.295 51.5733C158.641 52.1969 158.792 52.9176 158.749 53.7352L155.579 53.5691C155.601 53.154 155.494 52.7951 155.257 52.4926C155.033 52.1908 154.712 51.9406 154.294 51.7421C153.888 51.5442 153.416 51.3933 152.879 51.2895C152.356 51.1738 151.798 51.1004 151.207 51.0694C150.427 51.0285 149.706 51.0727 149.043 51.202C148.381 51.3187 147.802 51.528 147.307 51.83C146.825 52.1201 146.439 52.5035 146.15 52.9803C145.872 53.4577 145.716 54.0298 145.681 54.6965L145.657 55.1493C145.609 56.0802 145.77 56.8455 146.143 57.4453C146.515 58.0325 147.066 58.4776 147.794 58.7807C148.523 59.0837 149.403 59.2623 150.434 59.3164C151.503 59.3724 152.395 59.3245 153.11 59.1727C153.837 59.0216 154.392 58.7732 154.776 58.4275C155.16 58.0819 155.365 57.6574 155.391 57.1542L155.398 57.0222L150.436 56.7621L150.558 54.4223L158.71 54.8495L158.33 62.0953L156.368 61.9924L156.133 60.334C155.632 60.7492 155.053 61.0784 154.397 61.3215C153.754 61.5527 153.046 61.7111 152.272 61.7967C151.51 61.8955 150.701 61.9225 149.846 61.8777ZM161.831 50.7748L161.946 48.5859L164.89 48.7402L164.775 50.929L161.831 50.7748ZM161.23 62.2473L161.751 52.3032L164.695 52.4574L164.174 62.4015L161.23 62.2473ZM167.777 62.5904L168.185 54.7974L166.128 54.6896L166.241 52.5385L168.298 52.6463L168.336 51.9104C168.373 51.2059 168.536 50.6279 168.825 50.1763C169.126 49.7128 169.542 49.375 170.07 49.163C170.598 48.9511 171.233 48.8645 171.976 48.9034C172.227 48.9166 172.497 48.9434 172.785 48.9837C173.086 49.0247 173.367 49.0772 173.628 49.1414C173.903 49.1936 174.151 49.2634 174.374 49.3508L174.278 51.1811L172.995 51.1139C172.391 51.0822 171.959 51.1416 171.699 51.2919C171.452 51.4303 171.318 51.6945 171.298 52.0845L171.26 52.8015L174.185 52.9548L174.072 55.1059L171.148 54.9526L170.739 62.7456L167.777 62.5904ZM179.694 63.442C178.927 63.4018 178.296 63.2741 177.803 63.0591C177.323 62.8321 176.976 62.4796 176.761 62.0016C176.547 61.5111 176.461 60.857 176.504 60.0393L176.755 55.2465L174.831 55.1457L174.944 52.9946L176.963 53.1004L177.702 50.1874L179.966 50.3061L179.812 53.2497L182.548 53.3931L182.435 55.5442L179.699 55.4008L179.468 59.8162C179.443 60.2942 179.512 60.6636 179.674 60.9245C179.851 61.1734 180.241 61.3136 180.844 61.3453L182.128 61.4125L182.032 63.2428C181.852 63.2965 181.617 63.3409 181.325 63.3761C181.045 63.4119 180.754 63.4345 180.451 63.4438C180.16 63.4538 179.908 63.4532 179.694 63.442ZM189.144 63.9373C188.402 63.8984 187.695 63.7982 187.022 63.6368C186.349 63.488 185.748 63.2799 185.22 63.0126C184.704 62.7459 184.299 62.4093 184.005 62.0028C183.711 61.5964 183.577 61.129 183.605 60.6007C183.608 60.5378 183.611 60.4812 183.614 60.4308C183.629 60.3812 183.645 60.3315 183.66 60.2819L186.679 60.4401C186.677 60.4652 186.67 60.4964 186.655 60.5334C186.653 60.5712 186.651 60.6026 186.65 60.6278C186.635 60.9171 186.748 61.1564 186.991 61.3457C187.233 61.535 187.553 61.6843 187.951 61.7934C188.362 61.8906 188.801 61.9515 189.266 61.9758C189.706 61.9989 190.135 61.9962 190.553 61.9676C190.984 61.9397 191.341 61.8638 191.625 61.74C191.909 61.6035 192.06 61.3843 192.075 61.0824C192.091 60.7805 191.939 60.5518 191.619 60.3963C191.3 60.2408 190.846 60.1161 190.258 60.0222C189.683 59.9164 189.009 59.7864 188.235 59.6323C187.648 59.5133 187.101 59.3711 186.592 59.2057C186.096 59.0409 185.659 58.8414 185.28 58.6071C184.915 58.3609 184.634 58.0561 184.439 57.6927C184.243 57.3292 184.159 56.8896 184.186 56.3739C184.215 55.8204 184.372 55.3556 184.657 54.9794C184.942 54.5907 185.33 54.2831 185.821 54.0566C186.325 53.8307 186.92 53.679 187.605 53.6013C188.29 53.5237 189.042 53.5063 189.859 53.5492C190.576 53.5868 191.246 53.6787 191.869 53.8248C192.505 53.9717 193.055 54.1771 193.521 54.4412C193.986 54.7052 194.348 55.0206 194.607 55.3874C194.865 55.7541 194.982 56.1702 194.957 56.6356C194.955 56.6859 194.952 56.7363 194.95 56.7866C194.947 56.8369 194.938 56.8806 194.924 56.9177L191.905 56.7595L191.91 56.6651C191.923 56.4135 191.826 56.2066 191.621 56.0445C191.415 55.8823 191.143 55.7609 190.807 55.6802C190.471 55.5869 190.109 55.5301 189.719 55.5096C189.58 55.5024 189.372 55.4978 189.095 55.4959C188.818 55.4939 188.527 55.5102 188.222 55.5447C187.93 55.5799 187.68 55.6488 187.473 55.7514C187.266 55.8541 187.157 56.0124 187.146 56.2262C187.132 56.4904 187.279 56.6936 187.587 56.8359C187.895 56.9782 188.298 57.0939 188.798 57.1832C189.311 57.2731 189.861 57.3713 190.448 57.4778C191.073 57.5862 191.666 57.7119 192.226 57.8548C192.798 57.9983 193.299 58.1948 193.727 58.4444C194.169 58.6819 194.506 58.996 194.738 59.3866C194.969 59.7772 195.07 60.2743 195.038 60.8782C195.005 61.5071 194.845 62.0348 194.558 62.4613C194.271 62.8751 193.869 63.201 193.352 63.4388C192.848 63.6647 192.235 63.8154 191.512 63.891C190.802 63.9673 190.012 63.9827 189.144 63.9373Z" fill="white"/>
<path d="M77.7617 71.2646L79.1361 71.3366L81.6424 76.1072L81.7586 76.1133L84.7498 71.6308L86.1242 71.7029L82.2377 77.3419L82.0236 81.4263L80.8235 81.3634L81.0375 77.279L77.7617 71.2646ZM88.9625 81.9453C88.2914 81.9101 87.711 81.7195 87.2212 81.3736C86.7347 81.0278 86.3645 80.5603 86.1107 79.9712C85.8601 79.3822 85.7549 78.7038 85.7951 77.9359C85.8357 77.1616 86.0115 76.4931 86.3224 75.9303C86.6366 75.3676 87.0537 74.9398 87.5738 74.6468C88.097 74.3539 88.6942 74.2251 89.3653 74.2603C90.0363 74.2954 90.6151 74.4859 91.1017 74.8317C91.5915 75.1776 91.9616 75.6467 92.212 76.2389C92.4656 76.8313 92.5722 77.5147 92.5316 78.289C92.4914 79.0568 92.3142 79.7204 92.0002 80.2798C91.6894 80.8394 91.2724 81.2656 90.7492 81.5585C90.2291 81.8515 89.6336 81.9804 88.9625 81.9453ZM89.0163 80.9193C89.526 80.946 89.9523 80.8373 90.2951 80.5932C90.6378 80.3492 90.8994 80.0183 91.0798 79.6007C91.2602 79.1832 91.3635 78.726 91.3895 78.2291C91.4155 77.7323 91.3608 77.2651 91.2252 76.8278C91.0896 76.3904 90.8641 76.0308 90.5489 75.749C90.2337 75.4672 89.8212 75.3129 89.3115 75.2862C88.8017 75.2595 88.3754 75.3698 88.0324 75.6171C87.6895 75.8644 87.4277 76.1985 87.2472 76.6193C87.0666 77.0401 86.9633 77.4989 86.9372 77.9958C86.9112 78.4926 86.9661 78.9581 87.1018 79.3923C87.2376 79.8264 87.4632 80.1828 87.7786 80.4614C88.0939 80.7399 88.5065 80.8926 89.0163 80.9193ZM98.9261 79.2646L99.1564 74.8704L100.298 74.9303L99.9089 82.3636L98.7668 82.3038L98.8327 81.0455L98.7553 81.0415C98.5613 81.4098 98.2735 81.7166 97.8918 81.9619C97.5103 82.204 97.0389 82.3103 96.4775 82.2809C96.0129 82.2565 95.6053 82.1332 95.2546 81.9111C94.9041 81.6856 94.6364 81.361 94.4516 80.9373C94.2669 80.5102 94.1911 79.9806 94.2243 79.3482L94.4718 74.6249L95.6139 74.6848L95.3704 79.3306C95.342 79.8726 95.471 80.3129 95.7574 80.6514C96.047 80.9901 96.4289 81.1719 96.9031 81.1968C97.1871 81.2116 97.4796 81.1542 97.7808 81.0244C98.0852 80.8948 98.3453 80.6852 98.5611 80.3956C98.7801 80.1062 98.9017 79.7292 98.9261 79.2646ZM102.001 82.4733L102.39 75.0399L103.494 75.0978L103.435 76.2205L103.512 76.2246C103.667 75.8639 103.928 75.5783 104.295 75.3678C104.662 75.1574 105.068 75.0638 105.513 75.0871C105.597 75.0915 105.702 75.0986 105.827 75.1084C105.953 75.1183 106.048 75.1281 106.112 75.1379L106.051 76.2994C106.013 76.2877 105.925 76.2685 105.787 76.2419C105.653 76.2122 105.51 76.1934 105.358 76.1854C104.997 76.1665 104.67 76.2254 104.379 76.3622C104.09 76.4959 103.857 76.6907 103.678 76.9466C103.503 77.1995 103.407 77.4937 103.389 77.8292L103.143 82.5331L102.001 82.4733ZM113.916 83.253C113.245 83.2178 112.664 83.0273 112.174 82.6813C111.688 82.3355 111.318 81.8681 111.064 81.2789C110.813 80.6899 110.708 80.0115 110.748 79.2437C110.789 78.4694 110.965 77.8008 111.276 77.238C111.59 76.6754 112.007 76.2476 112.527 75.9545C113.05 75.6617 113.647 75.5328 114.318 75.568C114.99 75.6032 115.568 75.7936 116.055 76.1394C116.545 76.4854 116.915 76.9545 117.165 77.5467C117.419 78.1391 117.525 78.8224 117.485 79.5967C117.445 80.3646 117.267 81.0282 116.953 81.5876C116.643 82.1471 116.226 82.5734 115.702 82.8662C115.182 83.1592 114.587 83.2882 113.916 83.253ZM113.97 82.227C114.479 82.2538 114.906 82.1451 115.248 81.901C115.591 81.6569 115.853 81.3261 116.033 80.9085C116.213 80.4909 116.317 80.0337 116.343 79.5368C116.369 79.04 116.314 78.5729 116.178 78.1355C116.043 77.6981 115.817 77.3385 115.502 77.0567C115.187 76.7749 114.774 76.6207 114.265 76.594C113.755 76.5672 113.329 76.6775 112.986 76.9249C112.643 77.1722 112.381 77.5062 112.2 77.927C112.02 78.3478 111.917 78.8067 111.89 79.3035C111.864 79.8004 111.919 80.2659 112.055 80.7C112.191 81.1342 112.416 81.4905 112.732 81.7691C113.047 82.0477 113.46 82.2003 113.97 82.227ZM119.035 83.366L119.425 75.9327L120.528 75.9905L120.47 77.1133L120.547 77.1173C120.702 76.7566 120.963 76.471 121.33 76.2606C121.696 76.0501 122.102 75.9565 122.548 75.9799C122.632 75.9843 122.736 75.9914 122.862 76.0012C122.988 76.011 123.083 76.0208 123.147 76.0307L123.086 77.1921C123.048 77.1804 122.96 77.1613 122.822 77.1346C122.688 77.1049 122.545 77.0861 122.393 77.0782C122.032 77.0592 121.705 77.1182 121.413 77.2549C121.125 77.3886 120.891 77.5834 120.713 77.8394C120.538 78.0922 120.442 78.3864 120.424 78.722L120.178 83.4259L119.035 83.366ZM126.678 83.9219C126.059 83.8894 125.52 83.7043 125.063 83.3665C124.605 83.0254 124.257 82.5608 124.019 81.9725C123.782 81.3809 123.684 80.6915 123.725 79.9043C123.766 79.1236 123.935 78.4531 124.233 77.8928C124.531 77.3326 124.927 76.9085 125.421 76.6206C125.915 76.3326 126.475 76.2051 127.101 76.2379C127.585 76.2633 127.963 76.3639 128.235 76.54C128.51 76.7129 128.717 76.9049 128.855 77.116C128.996 77.3239 129.105 77.4947 129.182 77.6281L129.279 77.6332L129.471 73.9746L130.613 74.0344L130.094 83.9456L128.99 83.8877L129.05 82.7456L128.915 82.7385C128.824 82.8696 128.695 83.0344 128.53 83.2327C128.364 83.4279 128.133 83.5986 127.838 83.7448C127.542 83.8879 127.156 83.9469 126.678 83.9219ZM126.887 82.904C127.345 82.928 127.739 82.829 128.067 82.6068C128.396 82.3814 128.654 82.0601 128.841 81.6428C129.028 81.2223 129.136 80.7314 129.166 80.17C129.195 79.6151 129.139 79.1253 129 78.7007C128.861 78.2728 128.639 77.9345 128.335 77.6856C128.031 77.4335 127.647 77.2953 127.182 77.2709C126.698 77.2456 126.289 77.3487 125.953 77.5802C125.621 77.8086 125.363 78.13 125.179 78.5441C124.999 78.9553 124.896 79.4222 124.868 79.9448C124.84 80.4739 124.896 80.9589 125.035 81.3997C125.177 81.8374 125.401 82.192 125.707 82.4637C126.016 82.7322 126.41 82.879 126.887 82.904ZM135.452 84.3817C134.736 84.3441 134.127 84.1537 133.624 83.8103C133.124 83.4638 132.749 82.9977 132.498 82.412C132.251 81.8231 132.147 81.148 132.187 80.3866C132.227 79.6252 132.401 78.9614 132.709 78.3952C133.02 77.826 133.434 77.3916 133.952 77.0919C134.472 76.7892 135.068 76.6554 135.739 76.6906C136.126 76.7109 136.505 76.7955 136.876 76.9443C137.246 77.0931 137.579 77.3208 137.874 77.6274C138.168 77.9308 138.395 78.3244 138.554 78.8083C138.713 79.2922 138.775 79.881 138.738 80.5747L138.713 81.0586L132.983 80.7583L133.035 79.7711L137.603 80.0105C137.625 79.5911 137.561 79.2124 137.41 78.8746C137.263 78.5369 137.041 78.2648 136.745 78.0584C136.451 77.8521 136.098 77.7382 135.685 77.7166C135.23 77.6927 134.831 77.785 134.487 77.9934C134.146 78.1988 133.877 78.4759 133.681 78.8247C133.485 79.1735 133.376 79.5528 133.355 79.9625L133.32 80.6207C133.291 81.1821 133.363 81.663 133.536 82.0635C133.712 82.461 133.969 82.7705 134.307 82.992C134.645 83.2103 135.045 83.3315 135.506 83.3557C135.806 83.3715 136.079 83.3437 136.326 83.2725C136.575 83.1983 136.794 83.0803 136.98 82.9186C137.167 82.7537 137.315 82.5447 137.425 82.2917L138.512 82.6592C138.377 83.0274 138.164 83.3462 137.875 83.6158C137.586 83.8821 137.236 84.0837 136.824 84.2207C136.413 84.3544 135.956 84.4081 135.452 84.3817ZM140.276 84.4792L140.665 77.0458L141.769 77.1037L141.71 78.2264L141.787 78.2305C141.942 77.8698 142.203 77.5842 142.57 77.3737C142.937 77.1633 143.343 77.0697 143.788 77.093C143.872 77.0974 143.977 77.1045 144.102 77.1143C144.228 77.1242 144.323 77.134 144.387 77.1438L144.326 78.3053C144.288 78.2936 144.2 78.2744 144.062 78.2478C143.928 78.2181 143.785 78.1993 143.633 78.1913C143.272 78.1724 142.945 78.2313 142.653 78.3681C142.365 78.5018 142.132 78.6966 141.953 78.9525C141.778 79.2054 141.682 79.4996 141.664 79.8351L141.418 84.539L140.276 84.4792ZM146.853 74.8855L146.674 78.2925L145.61 78.2367L145.788 74.8297L146.853 74.8855ZM153.935 79.4106L152.894 79.6472C152.838 79.4728 152.752 79.3017 152.634 79.1338C152.52 78.9628 152.36 78.8185 152.152 78.7009C151.945 78.5833 151.675 78.5157 151.343 78.4983C150.888 78.4745 150.503 78.5595 150.189 78.7533C149.878 78.944 149.714 79.1991 149.698 79.5185C149.683 79.8024 149.774 80.0321 149.972 80.2074C150.17 80.3828 150.485 80.5368 150.918 80.6695L152.008 80.9983C152.664 81.1945 153.146 81.4672 153.454 81.8166C153.763 82.1628 153.904 82.5956 153.877 83.115C153.854 83.5409 153.712 83.9152 153.449 84.2378C153.189 84.5607 152.837 84.8075 152.391 84.9782C151.945 85.149 151.434 85.2192 150.856 85.189C150.098 85.1492 149.479 84.9518 149 84.5967C148.52 84.2416 148.231 83.7444 148.131 83.1051L149.23 82.8909C149.312 83.2964 149.491 83.6066 149.768 83.8217C150.048 84.037 150.422 84.1568 150.89 84.1814C151.422 84.2093 151.85 84.1185 152.175 83.909C152.503 83.6965 152.676 83.4306 152.693 83.1112C152.706 82.8531 152.627 82.6322 152.456 82.4485C152.284 82.2616 152.014 82.1148 151.644 82.0081L150.42 81.6528C149.748 81.4558 149.261 81.1795 148.959 80.824C148.661 80.4655 148.526 80.0297 148.552 79.5167C148.574 79.0973 148.712 78.7325 148.964 78.4222C149.22 78.1121 149.557 77.8758 149.977 77.7134C150.399 77.5511 150.872 77.4837 151.394 77.5111C152.13 77.5496 152.699 77.7412 153.102 78.0858C153.507 78.4306 153.785 78.8722 153.935 79.4106ZM163.02 78.2174L162.969 79.1853L158.962 78.9753L159.013 78.0074L163.02 78.2174ZM159.823 85.5036L160.267 77.0443C160.289 76.6185 160.408 76.2688 160.622 75.9954C160.837 75.7219 161.108 75.5226 161.435 75.3974C161.762 75.2722 162.103 75.2189 162.458 75.2375C162.738 75.2522 162.966 75.2868 163.141 75.3412C163.316 75.3957 163.446 75.4446 163.532 75.4879L163.151 76.4579C163.094 76.4355 163.014 76.407 162.913 76.3726C162.814 76.3383 162.683 76.3169 162.518 76.3082C162.141 76.2885 161.863 76.3693 161.685 76.5509C161.511 76.7326 161.414 77.0074 161.395 77.3752L160.965 85.5635L159.823 85.5036ZM164.231 85.7346L164.62 78.3013L165.724 78.3591L165.665 79.4818L165.742 79.4859C165.897 79.1252 166.158 78.8396 166.525 78.6292C166.892 78.4187 167.298 78.3251 167.743 78.3485C167.827 78.3529 167.932 78.36 168.057 78.3698C168.183 78.3796 168.278 78.3894 168.342 78.3993L168.281 79.5607C168.243 79.549 168.155 79.5298 168.017 79.5032C167.883 79.4735 167.74 79.4547 167.588 79.4468C167.227 79.4278 166.9 79.4867 166.609 79.6235C166.32 79.7572 166.087 79.952 165.908 80.2079C165.733 80.4608 165.637 80.755 165.619 81.0906L165.373 85.7945L164.231 85.7346ZM172.184 86.3067C171.467 86.2691 170.858 86.0787 170.355 85.7353C169.855 85.3888 169.48 84.9227 169.23 84.337C168.982 83.7481 168.878 83.073 168.918 82.3116C168.958 81.5502 169.132 80.8864 169.44 80.3202C169.751 79.751 170.166 79.3166 170.683 79.0169C171.203 78.7142 171.799 78.5804 172.47 78.6156C172.857 78.6359 173.236 78.7205 173.607 78.8693C173.978 79.0181 174.31 79.2458 174.605 79.5524C174.899 79.8558 175.126 80.2494 175.285 80.7333C175.444 81.2172 175.506 81.806 175.469 82.4997L175.444 82.9836L169.714 82.6833L169.766 81.6961L174.334 81.9355C174.356 81.5161 174.292 81.1374 174.141 80.7996C173.994 80.4619 173.772 80.1898 173.476 79.9834C173.182 79.7771 172.829 79.6632 172.416 79.6416C171.961 79.6177 171.562 79.71 171.218 79.9184C170.877 80.1238 170.609 80.4009 170.412 80.7497C170.216 81.0985 170.107 81.4778 170.086 81.8875L170.051 82.5457C170.022 83.1071 170.094 83.588 170.267 83.9885C170.443 84.386 170.701 84.6955 171.038 84.917C171.376 85.1353 171.776 85.2565 172.237 85.2807C172.537 85.2965 172.811 85.2687 173.057 85.1975C173.307 85.1233 173.525 85.0053 173.711 84.8436C173.898 84.6787 174.046 84.4697 174.156 84.2167L175.244 84.5842C175.108 84.9524 174.895 85.2712 174.606 85.5408C174.317 85.8071 173.967 86.0087 173.556 86.1457C173.144 86.2794 172.687 86.3331 172.184 86.3067ZM180.115 86.7224C179.399 86.6848 178.79 86.4944 178.287 86.151C177.787 85.8045 177.412 85.3384 177.161 84.7526C176.914 84.1638 176.81 83.4887 176.85 82.7273C176.89 81.9659 177.064 81.3021 177.372 80.7359C177.683 80.1667 178.097 79.7322 178.615 79.4326C179.135 79.1299 179.731 78.9961 180.402 79.0313C180.789 79.0516 181.168 79.1361 181.539 79.285C181.909 79.4338 182.242 79.6615 182.537 79.9681C182.831 80.2715 183.058 80.6651 183.217 81.149C183.376 81.6329 183.438 82.2217 183.401 82.9154L183.376 83.3993L177.646 83.099L177.698 82.1118L182.266 82.3512C182.288 81.9318 182.224 81.5531 182.073 81.2153C181.926 80.8775 181.704 80.6055 181.408 80.3991C181.114 80.1928 180.761 80.0789 180.348 80.0572C179.893 80.0334 179.494 80.1257 179.15 80.3341C178.809 80.5395 178.54 80.8166 178.344 81.1654C178.148 81.5142 178.039 81.8935 178.018 82.3032L177.983 82.9614C177.954 83.5228 178.026 84.0037 178.199 84.4042C178.375 84.8017 178.632 85.1112 178.97 85.3327C179.308 85.551 179.708 85.6722 180.169 85.6964C180.469 85.7121 180.742 85.6844 180.989 85.6132C181.238 85.5389 181.457 85.421 181.643 85.2593C181.83 85.0944 181.978 84.8854 182.088 84.6323L183.175 84.9999C183.04 85.3681 182.827 85.6869 182.538 85.9564C182.249 86.2228 181.899 86.4244 181.487 86.5613C181.076 86.6951 180.619 86.7487 180.115 86.7224ZM191.618 90.1203C191.066 90.0914 190.595 89.9956 190.206 89.8328C189.817 89.6733 189.495 89.4721 189.243 89.2292C188.993 88.9896 188.798 88.7367 188.657 88.4705L189.6 87.8794C189.696 88.0203 189.819 88.182 189.968 88.3645C190.116 88.5503 190.325 88.7148 190.592 88.8583C190.863 89.0051 191.222 89.0902 191.67 89.1137C192.271 89.1452 192.773 89.026 193.179 88.7561C193.585 88.4862 193.804 88.0415 193.836 87.422L193.915 85.9121L193.818 85.9071C193.727 86.0382 193.599 86.1997 193.434 86.3916C193.272 86.5805 193.043 86.7448 192.748 86.8846C192.456 87.0214 192.068 87.0771 191.584 87.0517C190.984 87.0202 190.453 86.85 189.99 86.5411C189.531 86.2323 189.177 85.7997 188.928 85.2431C188.682 84.6867 188.579 84.0214 188.62 83.2471C188.66 82.4857 188.828 81.8297 189.126 81.2791C189.423 80.7253 189.819 80.3061 190.313 80.0214C190.807 79.7335 191.366 79.6059 191.992 79.6387C192.476 79.6641 192.856 79.7649 193.131 79.9411C193.41 80.1142 193.62 80.3064 193.761 80.5176C193.906 80.7257 194.016 80.8965 194.093 81.0299L194.21 81.036L194.271 79.8552L195.375 79.913L194.974 87.5593C194.941 88.1981 194.768 88.7099 194.457 89.0948C194.149 89.483 193.746 89.7579 193.249 89.9195C192.755 90.0845 192.211 90.1515 191.618 90.1203ZM191.793 86.0338C192.251 86.0579 192.644 85.9733 192.971 85.7802C193.298 85.587 193.554 85.298 193.739 84.913C193.925 84.528 194.032 84.0613 194.06 83.5128C194.088 82.9772 194.033 82.5004 193.893 82.0822C193.753 81.664 193.531 81.3305 193.227 81.0816C192.923 80.8327 192.539 80.6961 192.074 80.6718C191.59 80.6464 191.18 80.7479 190.845 80.9762C190.513 81.2046 190.255 81.5211 190.072 81.9256C189.892 82.3303 189.789 82.7843 189.763 83.2876C189.736 83.8038 189.793 84.2645 189.933 84.6698C190.077 85.072 190.303 85.3945 190.61 85.637C190.921 85.8766 191.316 86.0088 191.793 86.0338ZM197.076 87.456L197.465 80.0226L198.608 80.0825L198.218 87.5158L197.076 87.456ZM198.111 78.8142C197.889 78.8025 197.701 78.7166 197.547 78.5565C197.397 78.3966 197.328 78.2102 197.339 77.9972C197.35 77.7843 197.438 77.6062 197.604 77.4628C197.774 77.3196 197.97 77.2539 198.192 77.2655C198.415 77.2772 198.601 77.363 198.751 77.5229C198.905 77.683 198.976 77.8695 198.965 78.0825C198.954 78.2954 198.863 78.4734 198.694 78.6166C198.528 78.76 198.334 78.8258 198.111 78.8142ZM204.01 80.3656L203.959 81.3335L199.952 81.1235L200.003 80.1556L204.01 80.3656ZM200.813 87.6518L201.256 79.1925C201.279 78.7666 201.397 78.417 201.612 78.1436C201.827 77.8701 202.098 77.6708 202.425 77.5456C202.752 77.4204 203.093 77.3671 203.448 77.3857C203.728 77.4004 203.956 77.435 204.131 77.4894C204.306 77.5439 204.436 77.5928 204.521 77.6361L204.141 78.6061C204.084 78.5837 204.004 78.5552 203.902 78.5208C203.804 78.4865 203.672 78.4651 203.508 78.4564C203.13 78.4366 202.853 78.5175 202.675 78.6991C202.501 78.8808 202.404 79.1556 202.384 79.5234L201.955 87.7117L200.813 87.6518ZM208.843 80.6189L208.792 81.5868L204.94 81.3849L204.991 80.417L208.843 80.6189ZM206.207 78.6949L207.349 78.7548L206.978 85.8397C206.961 86.1623 206.995 86.4067 207.08 86.573C207.168 86.7361 207.285 86.849 207.431 86.9116C207.58 86.9712 207.738 87.0054 207.906 87.0142C208.032 87.0208 208.135 87.0197 208.217 87.011C208.298 86.9991 208.363 86.9896 208.412 86.9825L208.591 88.0206C208.512 88.0456 208.402 88.069 208.262 88.0907C208.122 88.1157 207.945 88.1226 207.732 88.1115C207.409 88.0946 207.097 88.0086 206.794 87.8537C206.495 87.6989 206.251 87.4742 206.063 87.1796C205.878 86.8852 205.797 86.5219 205.819 86.0896L206.207 78.6949Z" fill="#C5B0C5"/>
<path d="M77.1238 192.915C76.1398 192.864 75.2982 192.663 74.5989 192.312C73.9003 191.95 73.3785 191.424 73.0335 190.733C72.6884 190.042 72.5429 189.183 72.5968 188.154L72.9739 180.958L74.8524 181.057L74.4727 188.303C74.4229 189.253 74.637 189.982 75.115 190.489C75.5929 190.996 76.2904 191.274 77.2073 191.322C78.1354 191.371 78.8692 191.168 79.4088 190.714C79.9595 190.261 80.2598 189.559 80.3096 188.609L80.6893 181.363L82.5679 181.461L82.1908 188.657C82.1368 189.685 81.8966 190.525 81.4701 191.175C81.0548 191.826 80.4752 192.295 79.7314 192.581C78.9993 192.857 78.1301 192.968 77.1238 192.915ZM88.8737 193.531C88.2475 193.498 87.6472 193.4 87.0728 193.235C86.4978 193.082 85.994 192.853 85.5613 192.55C85.1293 192.236 84.7961 191.854 84.5618 191.405C84.3281 190.944 84.2273 190.406 84.2595 189.791C84.2631 189.724 84.2663 189.663 84.2692 189.607C84.2839 189.54 84.2924 189.484 84.2948 189.44L86.1733 189.538C86.1716 189.572 86.1633 189.622 86.1486 189.688C86.1451 189.755 86.1422 189.811 86.1398 189.856C86.1182 190.27 86.2227 190.628 86.4535 190.932C86.6842 191.236 87.0138 191.472 87.4423 191.64C87.882 191.809 88.3869 191.908 88.9572 191.938C89.2703 191.954 89.5731 191.953 89.8656 191.935C90.1586 191.905 90.4246 191.858 90.6635 191.792C90.9142 191.715 91.1322 191.62 91.3176 191.506C91.5035 191.382 91.6515 191.232 91.7615 191.059C91.8715 190.885 91.9327 190.681 91.945 190.446C91.9638 190.088 91.8731 189.786 91.6729 189.541C91.484 189.295 91.2147 189.085 90.8651 188.91C90.5266 188.735 90.137 188.574 89.6962 188.428C89.2665 188.282 88.8201 188.135 88.3569 187.988C87.8937 187.84 87.4429 187.671 87.0044 187.479C86.5771 187.289 86.1907 187.067 85.8452 186.813C85.5115 186.549 85.2477 186.232 85.054 185.864C84.8721 185.484 84.7949 185.031 84.8224 184.506C84.8488 184.003 84.9785 183.561 85.2114 183.181C85.4444 182.801 85.7689 182.492 86.1849 182.256C86.6015 182.009 87.0929 181.833 87.659 181.728C88.2251 181.623 88.8604 181.589 89.5649 181.626C90.1687 181.658 90.7355 181.755 91.2651 181.917C91.7954 182.068 92.2548 182.288 92.6433 182.578C93.0318 182.867 93.327 183.225 93.5289 183.65C93.7421 184.076 93.8337 184.574 93.8038 185.145L93.7933 185.346L91.9315 185.248L91.9429 185.03C91.9617 184.673 91.8713 184.365 91.6717 184.108C91.4721 183.851 91.1858 183.645 90.8126 183.491C90.4395 183.337 90.0013 183.247 89.4981 183.22C88.9055 183.189 88.4047 183.225 87.9957 183.327C87.5873 183.417 87.2713 183.563 87.0477 183.765C86.8359 183.955 86.7224 184.196 86.7071 184.487C86.6901 184.811 86.7823 185.085 86.9836 185.309C87.1855 185.521 87.456 185.709 87.795 185.873C88.1452 186.037 88.5351 186.192 88.9648 186.338C89.4062 186.473 89.8526 186.62 90.304 186.778C90.7672 186.925 91.2125 187.094 91.6398 187.285C92.0782 187.476 92.4643 187.704 92.7981 187.968C93.143 188.233 93.412 188.555 93.6051 188.935C93.7989 189.304 93.8819 189.752 93.8544 190.277C93.811 191.105 93.5687 191.77 93.1274 192.274C92.6868 192.767 92.0969 193.111 91.3577 193.308C90.6298 193.506 89.8018 193.58 88.8737 193.531ZM99.3001 193.876L99.9031 182.37L101.782 182.468L101.179 193.974L99.3001 193.876ZM108.152 194.542C107.526 194.509 106.926 194.41 106.352 194.245C105.777 194.092 105.273 193.864 104.84 193.561C104.408 193.247 104.075 192.865 103.841 192.415C103.607 191.954 103.506 191.416 103.538 190.801C103.542 190.734 103.545 190.673 103.548 190.617C103.563 190.55 103.571 190.495 103.574 190.45L105.452 190.549C105.45 190.582 105.442 190.632 105.427 190.699C105.424 190.766 105.421 190.822 105.419 190.866C105.397 191.28 105.501 191.639 105.732 191.942C105.963 192.246 106.293 192.482 106.721 192.65C107.161 192.819 107.666 192.918 108.236 192.948C108.549 192.965 108.852 192.964 109.144 192.945C109.437 192.916 109.703 192.868 109.942 192.802C110.193 192.726 110.411 192.63 110.596 192.517C110.782 192.392 110.93 192.243 111.04 192.069C111.15 191.896 111.211 191.691 111.224 191.457C111.243 191.099 111.152 190.797 110.952 190.551C110.763 190.305 110.493 190.095 110.144 189.92C109.805 189.745 109.416 189.585 108.975 189.438C108.545 189.292 108.099 189.146 107.636 188.998C107.172 188.85 106.722 188.681 106.283 188.49C105.856 188.299 105.469 188.077 105.124 187.824C104.79 187.559 104.526 187.243 104.333 186.874C104.151 186.494 104.074 186.042 104.101 185.516C104.128 185.013 104.257 184.571 104.49 184.191C104.723 183.811 105.048 183.503 105.464 183.267C105.88 183.019 106.372 182.843 106.938 182.738C107.504 182.634 108.139 182.6 108.844 182.636C109.447 182.668 110.014 182.765 110.544 182.927C111.074 183.079 111.534 183.299 111.922 183.588C112.311 183.878 112.606 184.235 112.808 184.661C113.021 185.087 113.112 185.585 113.083 186.155L113.072 186.356L111.21 186.259L111.222 186.041C111.24 185.683 111.15 185.375 110.95 185.118C110.751 184.861 110.465 184.656 110.091 184.501C109.718 184.347 109.28 184.257 108.777 184.231C108.184 184.2 107.683 184.235 107.274 184.337C106.866 184.428 106.55 184.574 106.326 184.775C106.115 184.966 106.001 185.207 105.986 185.497C105.969 185.822 106.061 186.095 106.262 186.319C106.464 186.531 106.735 186.719 107.074 186.883C107.424 187.047 107.814 187.202 108.244 187.348C108.685 187.483 109.131 187.63 109.583 187.788C110.046 187.936 110.491 188.105 110.918 188.295C111.357 188.487 111.743 188.714 112.077 188.978C112.422 189.243 112.691 189.566 112.884 189.946C113.078 190.315 113.161 190.762 113.133 191.287C113.09 192.115 112.847 192.781 112.406 193.284C111.966 193.777 111.376 194.122 110.636 194.319C109.909 194.516 109.081 194.59 108.152 194.542ZM115.139 194.706L115.742 183.2L121.478 183.5C122.295 183.543 122.963 183.73 123.484 184.06C124.005 184.39 124.386 184.83 124.626 185.381C124.878 185.921 124.985 186.555 124.947 187.281C124.909 188.008 124.73 188.644 124.41 189.187C124.09 189.72 123.643 190.123 123.068 190.395C122.504 190.669 121.825 190.784 121.032 190.743L117.241 190.544L117.018 194.804L115.139 194.706ZM117.325 188.934L121.032 189.128C121.625 189.159 122.098 189.005 122.452 188.664C122.818 188.325 123.017 187.836 123.051 187.199C123.073 186.774 123.019 186.412 122.889 186.114C122.759 185.804 122.559 185.564 122.287 185.393C122.016 185.222 121.668 185.125 121.243 185.103L117.536 184.908L117.325 188.934ZM128.963 195.43L129.566 183.924L135.303 184.225C136.119 184.268 136.788 184.454 137.308 184.784C137.829 185.114 138.21 185.555 138.45 186.105C138.702 186.646 138.809 187.279 138.771 188.006C138.733 188.733 138.554 189.368 138.234 189.912C137.914 190.445 137.467 190.847 136.892 191.12C136.329 191.393 135.65 191.509 134.856 191.467L131.065 191.269L130.842 195.529L128.963 195.43ZM131.15 189.658L134.856 189.853C135.449 189.884 135.922 189.729 136.277 189.389C136.642 189.049 136.841 188.561 136.875 187.923C136.897 187.498 136.843 187.137 136.713 186.839C136.584 186.529 136.383 186.289 136.112 186.117C135.84 185.946 135.492 185.85 135.067 185.827L131.361 185.633L131.15 189.658ZM139.916 196.004L140.378 187.182L141.821 187.258L141.897 188.691L141.998 188.696C142.113 188.422 142.255 188.166 142.425 187.928C142.605 187.691 142.828 187.501 143.094 187.358C143.37 187.215 143.699 187.154 144.079 187.174C144.258 187.183 144.413 187.208 144.546 187.249C144.689 187.29 144.8 187.324 144.877 187.35L144.791 188.994L144.204 188.963C143.846 188.945 143.524 188.984 143.239 189.081C142.965 189.179 142.727 189.334 142.525 189.548C142.335 189.751 142.187 190.007 142.081 190.315C141.986 190.624 141.929 190.975 141.908 191.366L141.66 196.096L139.916 196.004ZM149.297 196.698C148.38 196.65 147.611 196.447 146.991 196.089C146.382 195.721 145.934 195.187 145.645 194.488C145.368 193.79 145.257 192.915 145.312 191.864C145.368 190.802 145.57 189.943 145.918 189.289C146.278 188.624 146.779 188.145 147.423 187.854C148.078 187.552 148.864 187.425 149.78 187.473C150.72 187.522 151.494 187.731 152.102 188.099C152.711 188.456 153.155 188.984 153.432 189.683C153.721 190.37 153.838 191.245 153.782 192.308C153.727 193.359 153.52 194.217 153.16 194.882C152.811 195.548 152.314 196.032 151.671 196.335C151.027 196.626 150.236 196.747 149.297 196.698ZM149.373 195.255C149.932 195.285 150.396 195.203 150.765 195.009C151.134 194.804 151.415 194.482 151.606 194.044C151.808 193.606 151.927 193.046 151.963 192.364L151.979 192.062C152.014 191.38 151.955 190.81 151.799 190.354C151.655 189.898 151.409 189.554 151.063 189.323C150.717 189.08 150.264 188.945 149.705 188.915C149.157 188.887 148.698 188.975 148.329 189.18C147.96 189.373 147.674 189.689 147.472 190.127C147.281 190.565 147.167 191.126 147.131 191.808L147.116 192.11C147.08 192.792 147.134 193.361 147.278 193.817C147.434 194.274 147.685 194.623 148.031 194.866C148.377 195.097 148.825 195.227 149.373 195.255ZM154.013 196.743L157.404 192.38L154.66 187.93L156.774 188.041L158.565 191.095L158.665 191.1L160.782 188.251L162.778 188.356L159.57 192.443L162.484 197.187L160.387 197.077L158.41 193.728L158.326 193.723L156.009 196.848L154.013 196.743ZM164.61 200.36C164.274 200.342 163.996 200.299 163.775 200.232C163.554 200.175 163.416 200.14 163.361 200.126L163.426 198.868L164.265 198.912C164.511 198.925 164.76 198.882 165.012 198.783C165.275 198.685 165.514 198.518 165.728 198.282C165.942 198.047 166.126 197.748 166.279 197.386L163.303 188.383L165.131 188.479L166.612 192.963C166.68 193.169 166.75 193.425 166.824 193.731C166.909 194.038 166.988 194.351 167.061 194.669C167.145 194.987 167.214 195.271 167.268 195.521L167.352 195.525C167.417 195.36 167.483 195.173 167.55 194.963C167.629 194.743 167.708 194.518 167.787 194.286C167.867 194.055 167.945 193.835 168.024 193.626C168.102 193.406 168.168 193.219 168.221 193.064L169.878 188.728L171.656 188.821L168.226 197.152C168.033 197.613 167.826 198.045 167.603 198.448C167.38 198.851 167.126 199.196 166.842 199.484C166.568 199.784 166.248 200.008 165.882 200.157C165.515 200.317 165.091 200.385 164.61 200.36Z" fill="white"/>
<path d="M71.4312 213.743L70.2698 213.682L74.1085 204.709L75.2521 204.769L78.132 214.094L76.9705 214.033L74.6402 206.189L74.5687 206.185L71.4312 213.743ZM72.0474 210.192L76.729 210.437L76.6774 211.42L71.9959 211.174L72.0474 210.192ZM80.9478 205.068L80.4683 214.217L79.414 214.161L79.8935 205.013L80.9478 205.068ZM83.9329 205.224L83.4535 214.373L82.3992 214.318L82.8787 205.169L83.9329 205.224ZM90.6526 205.576L90.1732 214.725L89.0653 214.667L89.5448 205.518L90.6526 205.576ZM92.3945 214.842L92.8739 205.693L95.9652 205.855C96.6829 205.892 97.2628 206.053 97.7049 206.336C98.1501 206.616 98.4714 206.981 98.6689 207.43C98.8663 207.879 98.9509 208.373 98.9226 208.912C98.8944 209.452 98.7585 209.936 98.515 210.365C98.2745 210.794 97.9196 211.128 97.4502 211.366C96.981 211.601 96.3905 211.7 95.6787 211.663L93.463 211.547L93.5145 210.564L95.6945 210.678C96.1859 210.704 96.5849 210.64 96.8916 210.486C97.1983 210.332 97.4263 210.114 97.5754 209.832C97.7277 209.547 97.8135 209.222 97.8327 208.855C97.8519 208.489 97.8005 208.158 97.6787 207.862C97.5598 207.566 97.3543 207.328 97.062 207.149C96.77 206.966 96.3753 206.862 95.878 206.836L93.9303 206.734L93.5023 214.9L92.3945 214.842ZM105.376 210.182L104.415 210.401C104.364 210.24 104.284 210.082 104.175 209.927C104.07 209.769 103.922 209.636 103.73 209.527C103.539 209.419 103.29 209.356 102.983 209.34C102.563 209.318 102.208 209.397 101.918 209.576C101.631 209.752 101.48 209.987 101.465 210.282C101.451 210.544 101.535 210.756 101.718 210.918C101.901 211.08 102.192 211.222 102.591 211.344L103.597 211.648C104.203 211.829 104.648 212.081 104.932 212.403C105.217 212.723 105.347 213.122 105.322 213.602C105.302 213.995 105.17 214.34 104.927 214.638C104.688 214.936 104.362 215.164 103.951 215.322C103.539 215.479 103.067 215.544 102.534 215.516C101.834 215.48 101.263 215.297 100.82 214.97C100.378 214.642 100.11 214.183 100.019 213.593L101.033 213.395C101.109 213.769 101.274 214.056 101.53 214.254C101.788 214.453 102.133 214.564 102.565 214.586C103.056 214.612 103.452 214.528 103.752 214.335C104.055 214.139 104.214 213.893 104.229 213.598C104.242 213.36 104.169 213.156 104.011 212.987C103.852 212.814 103.603 212.679 103.261 212.58L102.132 212.252C101.511 212.07 101.062 211.815 100.783 211.487C100.508 211.156 100.383 210.754 100.408 210.28C100.428 209.893 100.554 209.556 100.787 209.27C101.023 208.984 101.335 208.766 101.722 208.616C102.112 208.466 102.549 208.404 103.031 208.429C103.71 208.465 104.235 208.641 104.607 208.96C104.981 209.278 105.238 209.685 105.376 210.182ZM112.358 216.049C111.923 216.026 111.532 215.924 111.187 215.741C110.841 215.556 110.572 215.301 110.38 214.978C110.188 214.651 110.104 214.265 110.127 213.818C110.148 213.425 110.242 213.11 110.41 212.874C110.577 212.635 110.795 212.452 111.061 212.326C111.327 212.199 111.619 212.11 111.935 212.058C112.255 212.003 112.575 211.963 112.896 211.938C113.315 211.906 113.655 211.884 113.916 211.871C114.18 211.855 114.373 211.816 114.495 211.753C114.621 211.691 114.688 211.575 114.697 211.406L114.699 211.37C114.722 210.929 114.62 210.58 114.391 210.323C114.166 210.067 113.81 209.926 113.325 209.9C112.822 209.874 112.421 209.963 112.124 210.169C111.826 210.374 111.613 210.599 111.484 210.843L110.502 210.433C110.702 210.026 110.958 209.713 111.268 209.497C111.581 209.277 111.917 209.131 112.276 209.057C112.638 208.98 112.992 208.951 113.338 208.969C113.558 208.981 113.81 209.021 114.093 209.089C114.379 209.155 114.652 209.275 114.912 209.45C115.174 209.625 115.386 209.88 115.548 210.214C115.71 210.548 115.776 210.987 115.748 211.532L115.511 216.053L114.457 215.998L114.505 215.069L114.452 215.066C114.372 215.211 114.245 215.364 114.069 215.525C113.894 215.686 113.664 215.819 113.381 215.923C113.098 216.028 112.757 216.07 112.358 216.049ZM112.568 215.11C112.985 215.132 113.341 215.069 113.635 214.92C113.933 214.771 114.161 214.571 114.321 214.32C114.483 214.069 114.572 213.8 114.587 213.514L114.637 212.549C114.59 212.6 114.489 212.644 114.335 212.681C114.184 212.715 114.009 212.743 113.811 212.766C113.616 212.785 113.425 212.802 113.239 212.816C113.056 212.828 112.908 212.838 112.794 212.847C112.518 212.868 112.259 212.913 112.017 212.981C111.777 213.046 111.581 213.153 111.426 213.304C111.275 213.451 111.193 213.659 111.179 213.927C111.16 214.293 111.281 214.577 111.542 214.779C111.806 214.978 112.148 215.088 112.568 215.11ZM117.435 216.154L117.795 209.292L118.813 209.346L118.759 210.382L118.83 210.386C118.973 210.053 119.214 209.789 119.553 209.595C119.891 209.401 120.266 209.314 120.677 209.336C120.755 209.34 120.851 209.347 120.967 209.356C121.083 209.365 121.171 209.374 121.23 209.383L121.174 210.455C121.139 210.444 121.058 210.426 120.93 210.402C120.806 210.374 120.674 210.357 120.534 210.35C120.201 210.332 119.899 210.387 119.63 210.513C119.364 210.636 119.148 210.816 118.984 211.052C118.822 211.286 118.733 211.557 118.717 211.867L118.489 216.209L117.435 216.154ZM124.776 216.682C124.115 216.647 123.552 216.471 123.088 216.155C122.627 215.835 122.281 215.404 122.049 214.864C121.821 214.32 121.725 213.697 121.762 212.994C121.799 212.291 121.959 211.679 122.244 211.156C122.531 210.631 122.913 210.23 123.391 209.953C123.871 209.674 124.421 209.55 125.041 209.582C125.398 209.601 125.748 209.679 126.09 209.817C126.432 209.954 126.739 210.164 127.011 210.447C127.283 210.727 127.492 211.091 127.639 211.537C127.786 211.984 127.843 212.527 127.809 213.168L127.786 213.614L122.497 213.337L122.544 212.426L126.761 212.647C126.782 212.26 126.722 211.91 126.583 211.598C126.447 211.287 126.243 211.036 125.969 210.845C125.698 210.655 125.372 210.55 124.991 210.53C124.571 210.508 124.202 210.593 123.885 210.785C123.57 210.975 123.322 211.23 123.141 211.552C122.96 211.874 122.86 212.225 122.84 212.603L122.808 213.21C122.781 213.728 122.847 214.172 123.007 214.542C123.17 214.909 123.407 215.195 123.719 215.399C124.031 215.601 124.4 215.713 124.826 215.735C125.103 215.749 125.355 215.724 125.582 215.658C125.813 215.59 126.014 215.481 126.186 215.331C126.358 215.179 126.495 214.986 126.597 214.753L127.601 215.092C127.475 215.432 127.279 215.726 127.013 215.975C126.746 216.221 126.422 216.407 126.043 216.533C125.663 216.657 125.241 216.706 124.776 216.682ZM135.35 217.236C134.778 217.206 134.281 217.035 133.858 216.723C133.436 216.409 133.115 215.98 132.895 215.437C132.676 214.891 132.586 214.254 132.624 213.528C132.661 212.807 132.818 212.188 133.093 211.671C133.368 211.154 133.733 210.762 134.189 210.496C134.645 210.231 135.162 210.113 135.739 210.143C136.186 210.167 136.535 210.26 136.786 210.422C137.041 210.582 137.232 210.759 137.359 210.954C137.489 211.146 137.59 211.303 137.661 211.426L137.75 211.431L137.927 208.054L138.982 208.109L138.502 217.258L137.484 217.205L137.539 216.15L137.414 216.144C137.33 216.265 137.211 216.417 137.058 216.6C136.906 216.78 136.693 216.938 136.42 217.073C136.147 217.205 135.791 217.259 135.35 217.236ZM135.542 216.297C135.965 216.319 136.328 216.227 136.632 216.022C136.935 215.814 137.173 215.517 137.346 215.132C137.519 214.744 137.618 214.291 137.646 213.773C137.672 213.261 137.622 212.809 137.493 212.417C137.364 212.022 137.159 211.709 136.879 211.48C136.598 211.247 136.244 211.119 135.815 211.097C135.368 211.073 134.99 211.169 134.68 211.382C134.373 211.593 134.135 211.89 133.966 212.272C133.8 212.652 133.704 213.083 133.679 213.565C133.653 214.053 133.704 214.501 133.832 214.908C133.964 215.312 134.17 215.639 134.453 215.89C134.738 216.138 135.102 216.273 135.542 216.297ZM143.449 217.661C142.788 217.626 142.225 217.45 141.761 217.133C141.3 216.813 140.953 216.383 140.722 215.842C140.494 215.299 140.398 214.676 140.435 213.973C140.472 213.27 140.632 212.657 140.916 212.135C141.204 211.609 141.586 211.208 142.063 210.932C142.544 210.652 143.094 210.529 143.713 210.561C144.071 210.58 144.42 210.658 144.763 210.795C145.105 210.933 145.412 211.143 145.684 211.426C145.956 211.706 146.165 212.069 146.312 212.516C146.459 212.963 146.515 213.506 146.482 214.146L146.458 214.593L141.169 214.316L141.217 213.405L145.434 213.626C145.454 213.238 145.395 212.889 145.256 212.577C145.12 212.265 144.915 212.014 144.642 211.824C144.371 211.633 144.045 211.528 143.664 211.508C143.244 211.486 142.875 211.571 142.557 211.764C142.243 211.953 141.995 212.209 141.814 212.531C141.633 212.853 141.532 213.203 141.512 213.581L141.481 214.189C141.453 214.707 141.52 215.151 141.68 215.521C141.842 215.888 142.08 216.173 142.392 216.378C142.704 216.579 143.073 216.691 143.498 216.714C143.775 216.728 144.028 216.702 144.255 216.637C144.486 216.568 144.687 216.459 144.859 216.31C145.031 216.158 145.168 215.965 145.27 215.731L146.274 216.071C146.148 216.41 145.952 216.705 145.685 216.954C145.419 217.199 145.095 217.385 144.715 217.512C144.336 217.635 143.913 217.685 143.449 217.661ZM150.485 218.029C149.913 217.999 149.416 217.828 148.993 217.517C148.57 217.202 148.249 216.773 148.03 216.23C147.811 215.684 147.72 215.047 147.758 214.321C147.796 213.6 147.952 212.981 148.227 212.464C148.502 211.947 148.868 211.555 149.324 211.29C149.78 211.024 150.296 210.906 150.874 210.936C151.321 210.96 151.67 211.053 151.921 211.215C152.176 211.375 152.366 211.552 152.494 211.747C152.624 211.939 152.725 212.096 152.796 212.22L152.885 212.224L153.062 208.847L154.116 208.902L153.637 218.051L152.618 217.998L152.674 216.944L152.549 216.937C152.465 217.058 152.346 217.21 152.193 217.393C152.04 217.573 151.828 217.731 151.555 217.866C151.282 217.998 150.925 218.052 150.485 218.029ZM150.677 217.09C151.1 217.112 151.463 217.02 151.767 216.815C152.07 216.607 152.308 216.311 152.481 215.926C152.653 215.537 152.753 215.084 152.78 214.566C152.807 214.054 152.756 213.602 152.627 213.21C152.499 212.815 152.294 212.502 152.014 212.273C151.733 212.04 151.378 211.912 150.95 211.89C150.503 211.867 150.125 211.962 149.815 212.175C149.508 212.386 149.27 212.683 149.101 213.065C148.935 213.445 148.839 213.876 148.813 214.358C148.788 214.847 148.839 215.294 148.967 215.701C149.098 216.105 149.305 216.433 149.588 216.683C149.873 216.931 150.236 217.067 150.677 217.09ZM155.714 218.16L156.074 211.298L157.128 211.354L156.768 218.215L155.714 218.16ZM156.67 210.183C156.464 210.172 156.291 210.093 156.149 209.945C156.011 209.798 155.946 209.625 155.957 209.429C155.967 209.232 156.049 209.068 156.202 208.936C156.358 208.803 156.539 208.743 156.745 208.753C156.95 208.764 157.122 208.843 157.261 208.991C157.402 209.139 157.468 209.311 157.458 209.508C157.447 209.704 157.364 209.868 157.208 210.001C157.055 210.133 156.875 210.194 156.67 210.183ZM161.479 218.605C160.836 218.572 160.29 218.391 159.841 218.063C159.393 217.735 159.057 217.297 158.835 216.751C158.613 216.205 158.52 215.59 158.556 214.905C158.592 214.208 158.752 213.599 159.036 213.08C159.324 212.557 159.706 212.158 160.183 211.881C160.664 211.602 161.214 211.478 161.833 211.511C162.316 211.536 162.746 211.648 163.124 211.847C163.501 212.046 163.805 212.313 164.036 212.647C164.266 212.982 164.4 213.365 164.437 213.797L163.383 213.742C163.319 213.425 163.154 213.139 162.89 212.883C162.629 212.624 162.266 212.483 161.801 212.459C161.39 212.437 161.025 212.525 160.704 212.724C160.386 212.919 160.13 213.206 159.937 213.584C159.747 213.959 159.639 214.406 159.612 214.924C159.584 215.454 159.643 215.92 159.789 216.322C159.938 216.724 160.161 217.042 160.456 217.275C160.754 217.509 161.112 217.637 161.529 217.658C161.803 217.673 162.054 217.638 162.282 217.555C162.511 217.471 162.707 217.344 162.871 217.173C163.036 217.003 163.157 216.794 163.236 216.547L164.29 216.603C164.209 217.005 164.043 217.362 163.79 217.674C163.541 217.983 163.219 218.223 162.825 218.394C162.434 218.561 161.986 218.632 161.479 218.605ZM167.737 218.951C167.302 218.929 166.912 218.826 166.566 218.644C166.22 218.458 165.951 218.204 165.759 217.88C165.567 217.554 165.483 217.167 165.507 216.72C165.527 216.327 165.621 216.012 165.789 215.776C165.957 215.537 166.174 215.355 166.44 215.228C166.707 215.102 166.998 215.013 167.314 214.96C167.634 214.906 167.954 214.866 168.275 214.841C168.695 214.809 169.035 214.786 169.295 214.773C169.559 214.757 169.752 214.718 169.875 214.656C170 214.594 170.068 214.478 170.077 214.308L170.078 214.272C170.102 213.831 169.999 213.483 169.77 213.226C169.545 212.969 169.19 212.828 168.704 212.803C168.201 212.776 167.8 212.866 167.503 213.071C167.206 213.276 166.992 213.501 166.863 213.745L165.881 213.335C166.082 212.928 166.337 212.616 166.647 212.399C166.96 212.18 167.296 212.033 167.655 211.959C168.018 211.883 168.372 211.853 168.717 211.871C168.937 211.883 169.189 211.923 169.472 211.992C169.759 212.057 170.031 212.178 170.291 212.353C170.554 212.528 170.766 212.782 170.927 213.116C171.089 213.45 171.156 213.89 171.127 214.435L170.89 218.955L169.836 218.9L169.885 217.971L169.831 217.968C169.752 218.113 169.624 218.266 169.449 218.427C169.273 218.588 169.043 218.721 168.76 218.826C168.477 218.93 168.136 218.972 167.737 218.951ZM167.947 218.013C168.364 218.035 168.72 217.971 169.014 217.822C169.312 217.674 169.54 217.474 169.7 217.222C169.862 216.971 169.951 216.702 169.966 216.416L170.017 215.451C169.969 215.503 169.868 215.547 169.714 215.583C169.563 215.617 169.388 215.645 169.19 215.668C168.995 215.688 168.804 215.704 168.619 215.719C168.436 215.73 168.287 215.74 168.173 215.749C167.898 215.77 167.638 215.815 167.396 215.883C167.157 215.948 166.96 216.056 166.806 216.206C166.655 216.353 166.572 216.561 166.558 216.829C166.539 217.195 166.66 217.479 166.921 217.681C167.185 217.88 167.527 217.991 167.947 218.013ZM176.158 212.351L176.111 213.244L172.555 213.058L172.602 212.165L176.158 212.351ZM173.725 210.575L174.779 210.63L174.436 217.17C174.421 217.468 174.452 217.694 174.531 217.847C174.612 217.998 174.72 218.102 174.855 218.16C174.992 218.215 175.138 218.246 175.293 218.254C175.409 218.26 175.505 218.26 175.58 218.251C175.655 218.241 175.715 218.232 175.761 218.225L175.925 219.183C175.853 219.206 175.751 219.228 175.622 219.248C175.492 219.271 175.329 219.278 175.133 219.267C174.835 219.252 174.546 219.172 174.267 219.029C173.991 218.886 173.766 218.679 173.592 218.407C173.421 218.135 173.346 217.8 173.367 217.401L173.725 210.575ZM180.18 219.586C179.519 219.551 178.956 219.375 178.492 219.058C178.031 218.738 177.685 218.308 177.453 217.767C177.225 217.224 177.129 216.601 177.166 215.898C177.203 215.195 177.363 214.582 177.648 214.06C177.935 213.534 178.317 213.133 178.795 212.857C179.275 212.577 179.825 212.454 180.445 212.486C180.802 212.505 181.152 212.583 181.494 212.72C181.836 212.858 182.143 213.068 182.415 213.351C182.687 213.631 182.896 213.994 183.043 214.441C183.19 214.888 183.247 215.431 183.213 216.071L183.19 216.518L177.901 216.241L177.948 215.33L182.165 215.551C182.186 215.163 182.126 214.814 181.987 214.502C181.851 214.19 181.646 213.939 181.373 213.749C181.102 213.558 180.776 213.453 180.395 213.433C179.975 213.411 179.606 213.496 179.289 213.689C178.974 213.878 178.726 214.134 178.545 214.456C178.364 214.778 178.263 215.128 178.244 215.506L178.212 216.114C178.185 216.632 178.251 217.076 178.411 217.446C178.574 217.813 178.811 218.098 179.123 218.303C179.435 218.504 179.804 218.616 180.23 218.639C180.507 218.653 180.759 218.627 180.986 218.562C181.217 218.493 181.418 218.384 181.59 218.235C181.762 218.083 181.899 217.89 182.001 217.656L183.005 217.996C182.879 218.335 182.683 218.63 182.416 218.879C182.15 219.124 181.826 219.31 181.446 219.437C181.067 219.56 180.645 219.61 180.18 219.586ZM187.216 219.954C186.644 219.924 186.147 219.753 185.724 219.442C185.302 219.127 184.981 218.698 184.761 218.155C184.542 217.609 184.451 216.972 184.489 216.246C184.527 215.525 184.684 214.906 184.959 214.389C185.234 213.872 185.599 213.48 186.055 213.215C186.511 212.949 187.028 212.831 187.605 212.861C188.052 212.885 188.401 212.978 188.652 213.14C188.907 213.3 189.098 213.477 189.225 213.672C189.355 213.864 189.456 214.021 189.527 214.145L189.616 214.149L189.793 210.772L190.848 210.827L190.368 219.976L189.35 219.923L189.405 218.869L189.28 218.862C189.196 218.983 189.077 219.135 188.924 219.318C188.772 219.498 188.559 219.656 188.286 219.791C188.013 219.923 187.656 219.977 187.216 219.954ZM187.408 219.015C187.831 219.037 188.194 218.945 188.498 218.74C188.801 218.532 189.039 218.236 189.212 217.851C189.384 217.462 189.484 217.009 189.512 216.491C189.538 215.979 189.487 215.527 189.359 215.135C189.23 214.74 189.025 214.427 188.745 214.198C188.464 213.965 188.11 213.837 187.681 213.815C187.234 213.792 186.856 213.887 186.546 214.1C186.239 214.311 186.001 214.608 185.832 214.99C185.666 215.37 185.57 215.801 185.545 216.283C185.519 216.772 185.57 217.219 185.698 217.626C185.829 218.03 186.036 218.358 186.319 218.608C186.604 218.856 186.968 218.992 187.408 219.015ZM193.21 220.197C192.99 220.185 192.805 220.096 192.655 219.93C192.505 219.764 192.436 219.571 192.448 219.351C192.46 219.13 192.548 218.945 192.714 218.796C192.881 218.646 193.074 218.577 193.294 218.589C193.515 218.6 193.7 218.689 193.849 218.855C193.999 219.021 194.068 219.214 194.056 219.435C194.048 219.581 194.004 219.713 193.923 219.831C193.846 219.949 193.744 220.043 193.618 220.111C193.495 220.176 193.359 220.205 193.21 220.197Z" fill="#C5B0C5"/>
</g>
</g>
<g filter="url(#filter1_d_7224_52488)">
<g clip-path="url(#clip2_7224_52488)">
<rect x="199.426" y="102.182" width="377.903" height="229.481" rx="9.44758" transform="rotate(-4 199.426 102.182)" fill="url(#paint2_linear_7224_52488)"/>
<g opacity="0.05">
<path d="M520.369 106.997L509.133 110.423C515.308 108.515 519.722 106.701 519.774 106.68C519.741 106.518 512.924 73.2913 500.161 66.4921C487.367 59.6774 471.47 64.5239 464.654 77.3176C457.839 90.1116 462.687 106.009 475.48 112.824C483.476 117.084 498.78 113.621 509.133 110.423L464.758 123.952C458.615 125.825 452.117 122.364 450.244 116.221L436.68 71.7317C434.807 65.589 438.269 59.0911 444.411 57.2183L488.901 43.654C495.043 41.7812 501.541 45.2426 503.414 51.3853L520.369 106.997Z" fill="#850E8E"/>
<path d="M478.679 84.7884C483.637 75.4818 495.201 71.9555 504.508 76.9135C513.78 81.8544 518.738 105.968 518.775 106.148C518.605 106.217 495.828 115.554 486.554 110.617C477.247 105.659 473.722 94.0954 478.679 84.7884Z" fill="#850E8E"/>
<path d="M531.487 103.6L542.724 100.174C536.535 102.036 531.86 102.993 531.805 103.005C531.742 102.852 518.861 71.4738 525.66 58.7105C532.476 45.9171 548.373 41.0698 561.167 47.8849C573.961 54.7002 578.807 70.5975 571.992 83.3916C567.733 91.3877 553.1 97.052 542.724 100.174L587.099 86.6445C593.242 84.7717 596.703 78.2738 594.83 72.1311L581.266 27.6419C579.393 21.4992 572.895 18.0378 566.753 19.9106L522.263 33.4749C516.121 35.3477 512.659 41.8456 514.532 47.9883L531.487 103.6Z" fill="#850E8E"/>
<path d="M553.696 61.9093C544.389 56.9521 532.825 60.4771 527.867 69.7843C522.929 79.0578 532.267 101.836 532.337 102.005C532.516 101.969 556.629 97.0098 561.571 87.7383C566.528 78.4313 563.002 66.8675 553.696 61.9093Z" fill="#850E8E"/>
<path d="M534.879 114.722L546.115 111.296C539.94 113.204 535.526 115.017 535.474 115.039C535.507 115.201 542.324 148.427 555.087 155.227C567.881 162.041 583.778 157.195 590.594 144.401C597.409 131.607 592.561 115.71 579.768 108.894C571.772 104.635 556.468 108.098 546.115 111.296L590.49 97.7665C596.633 95.8937 603.131 99.3551 605.004 105.498L618.568 149.987C620.441 156.13 616.979 162.628 610.837 164.5L566.347 178.065C560.205 179.938 553.707 176.476 551.834 170.333L534.879 114.722Z" fill="#850E8E"/>
<path d="M576.569 136.93C571.611 146.237 560.047 149.763 550.74 144.805C541.468 139.864 536.51 115.751 536.473 115.571C536.643 115.502 559.42 106.164 568.694 111.101C578.001 116.06 581.526 127.623 576.569 136.93Z" fill="#850E8E"/>
<path d="M523.759 118.119L512.522 121.545C518.711 119.683 523.386 118.725 523.442 118.714C523.504 118.867 536.385 150.245 529.586 163.008C522.77 175.802 506.873 180.649 494.079 173.834C481.285 167.019 476.439 151.121 483.254 138.327C487.514 130.331 502.146 124.667 512.522 121.545L468.147 135.074C462.004 136.947 458.543 143.445 460.416 149.588L473.98 194.077C475.853 200.22 482.351 203.681 488.493 201.808L532.983 188.244C539.125 186.371 542.587 179.873 540.714 173.73L523.759 118.119Z" fill="#850E8E"/>
<path d="M501.55 159.809C510.857 164.767 522.421 161.242 527.379 151.934C532.317 142.661 522.979 119.883 522.909 119.713C522.73 119.75 498.618 124.709 493.675 133.98C488.718 143.287 492.244 154.851 501.55 159.809Z" fill="#850E8E"/>
</g>
<path d="M222.514 136.55L221.608 123.601L232.069 122.869C232.999 122.804 233.773 122.94 234.39 123.275C235.019 123.61 235.506 124.075 235.851 124.67C236.196 125.264 236.394 125.938 236.447 126.692C236.502 127.472 236.351 128.214 235.997 128.921C235.654 129.614 235.094 130.184 234.317 130.63L237.367 135.512L233.71 135.767L231.116 131.441L225.461 131.836L225.775 136.322L222.514 136.55ZM225.282 129.273L231.521 128.836C232.049 128.799 232.452 128.613 232.732 128.278C233.023 127.929 233.151 127.504 233.116 127.001C233.091 126.649 233.002 126.359 232.847 126.13C232.692 125.901 232.484 125.732 232.224 125.624C231.964 125.516 231.652 125.475 231.287 125.5L225.048 125.936L225.282 129.273ZM245.059 135.201C243.764 135.292 242.632 135.175 241.663 134.851C240.705 134.527 239.942 133.999 239.374 133.269C238.816 132.525 238.498 131.581 238.418 130.438C238.337 129.282 238.521 128.303 238.97 127.501C239.432 126.698 240.114 126.076 241.018 125.634C241.933 125.179 243.038 124.906 244.332 124.815C245.627 124.725 246.752 124.842 247.709 125.166C248.678 125.477 249.441 125.998 249.997 126.73C250.566 127.46 250.891 128.404 250.971 129.56C251.051 130.703 250.861 131.683 250.4 132.498C249.951 133.299 249.269 133.928 248.354 134.383C247.451 134.838 246.353 135.111 245.059 135.201ZM244.908 133.052C245.587 133.005 246.157 132.851 246.619 132.592C247.092 132.319 247.439 131.96 247.661 131.515C247.882 131.07 247.972 130.552 247.931 129.962L247.905 129.585C247.863 128.982 247.701 128.481 247.421 128.084C247.14 127.675 246.746 127.374 246.24 127.182C245.747 126.989 245.161 126.917 244.483 126.964C243.791 127.012 243.215 127.166 242.753 127.426C242.292 127.685 241.95 128.038 241.729 128.482C241.506 128.915 241.416 129.432 241.458 130.036L241.485 130.413C241.526 131.003 241.687 131.503 241.968 131.913C242.25 132.323 242.637 132.63 243.132 132.836C243.625 133.028 244.217 133.101 244.908 133.052ZM251.506 134.523L255.912 129.006L251.132 124.567L254.902 124.303L257.863 127.108L257.976 127.1L260.5 123.912L264.025 123.665L259.911 128.764L264.983 133.58L261.251 133.841L257.979 130.661L257.847 130.67L255.05 134.275L251.506 134.523ZM267.827 137.189C267.45 137.215 267.102 137.208 266.784 137.167C266.478 137.125 266.189 137.063 265.918 136.981L265.79 135.153L267.204 135.054C267.757 135.015 268.192 134.922 268.51 134.773C268.828 134.625 269.073 134.418 269.244 134.154C269.428 133.901 269.59 133.599 269.73 133.249L264.191 123.654L267.414 123.428L269.798 127.997C269.914 128.204 270.052 128.465 270.213 128.783C270.373 129.087 270.534 129.398 270.695 129.715C270.856 130.032 270.995 130.313 271.114 130.557L271.264 130.546C271.274 130.508 271.304 130.386 271.352 130.18C271.414 129.974 271.491 129.729 271.585 129.444C271.679 129.16 271.772 128.869 271.865 128.572C271.958 128.275 272.04 128.011 272.113 127.778L273.653 122.992L276.744 122.776L273.265 132.073C272.989 132.812 272.707 133.482 272.421 134.083C272.135 134.684 271.792 135.207 271.394 135.651C271.008 136.095 270.528 136.444 269.952 136.699C269.377 136.967 268.669 137.13 267.827 137.189ZM292.464 131.886C289.851 132.069 287.845 131.653 286.449 130.64C285.064 129.625 284.294 127.994 284.136 125.744C284.034 124.274 284.28 123.019 284.877 121.98C285.485 120.927 286.406 120.105 287.64 119.514C288.887 118.922 290.403 118.563 292.187 118.438C293.318 118.359 294.362 118.387 295.318 118.522C296.286 118.644 297.136 118.881 297.868 119.234C298.6 119.587 299.175 120.052 299.595 120.629C300.014 121.206 300.252 121.902 300.309 122.719L297.142 122.941C297.113 122.526 296.963 122.183 296.692 121.911C296.433 121.639 296.083 121.43 295.644 121.284C295.217 121.137 294.731 121.045 294.185 121.007C293.651 120.956 293.089 120.951 292.498 120.992C291.719 121.047 291.008 121.179 290.366 121.388C289.724 121.584 289.175 121.863 288.72 122.223C288.277 122.569 287.941 122.997 287.711 123.505C287.494 124.013 287.409 124.6 287.456 125.266L287.487 125.718C287.552 126.648 287.806 127.388 288.248 127.938C288.69 128.475 289.291 128.85 290.051 129.062C290.811 129.274 291.706 129.344 292.736 129.272C293.804 129.197 294.684 129.041 295.374 128.804C296.077 128.565 296.598 128.251 296.937 127.861C297.276 127.471 297.428 127.025 297.393 126.522L297.384 126.39L292.426 126.737L292.263 124.399L300.406 123.83L300.912 131.068L298.951 131.205L298.516 129.588C298.07 130.061 297.535 130.458 296.914 130.779C296.304 131.087 295.62 131.331 294.863 131.51C294.118 131.701 293.319 131.826 292.464 131.886ZM303.007 119.405L302.855 117.219L305.795 117.013L305.948 119.2L303.007 119.405ZM303.809 130.866L303.114 120.932L306.055 120.726L306.749 130.66L303.809 130.866ZM310.348 130.408L309.804 122.624L307.75 122.767L307.599 120.618L309.654 120.475L309.602 119.74C309.553 119.036 309.644 118.442 309.876 117.959C310.119 117.462 310.49 117.076 310.988 116.802C311.487 116.527 312.107 116.363 312.848 116.312C313.099 116.294 313.37 116.288 313.661 116.293C313.964 116.297 314.25 116.315 314.517 116.346C314.796 116.365 315.052 116.404 315.283 116.463L315.411 118.292L314.129 118.381C313.526 118.423 313.104 118.535 312.865 118.716C312.636 118.883 312.536 119.162 312.563 119.552L312.613 120.268L315.535 120.063L315.685 122.212L312.763 122.417L313.308 130.201L310.348 130.408ZM322.281 129.801C321.514 129.855 320.873 129.805 320.357 129.652C319.853 129.485 319.465 129.177 319.194 128.729C318.922 128.268 318.757 127.629 318.7 126.813L318.365 122.025L316.443 122.159L316.292 120.011L318.309 119.869L318.688 116.888L320.95 116.73L321.155 119.67L323.889 119.479L324.039 121.628L321.306 121.819L321.614 126.23C321.648 126.707 321.761 127.066 321.954 127.305C322.16 127.53 322.564 127.622 323.167 127.58L324.449 127.49L324.577 129.319C324.405 129.394 324.177 129.467 323.891 129.537C323.618 129.607 323.332 129.664 323.032 129.711C322.745 129.756 322.494 129.786 322.281 129.801ZM331.721 129.141C330.98 129.193 330.265 129.18 329.578 129.101C328.891 129.036 328.27 128.902 327.713 128.702C327.168 128.5 326.725 128.215 326.384 127.847C326.042 127.48 325.853 127.032 325.816 126.504C325.812 126.442 325.808 126.385 325.805 126.335C325.814 126.284 325.823 126.232 325.832 126.181L328.848 125.97C328.849 125.996 328.845 126.027 328.835 126.066C328.838 126.104 328.84 126.135 328.842 126.16C328.862 126.449 329.004 126.673 329.268 126.831C329.531 126.99 329.867 127.099 330.275 127.159C330.695 127.205 331.138 127.212 331.603 127.179C332.043 127.149 332.468 127.094 332.879 127.014C333.303 126.934 333.648 126.815 333.915 126.658C334.181 126.488 334.303 126.252 334.282 125.95C334.261 125.649 334.082 125.44 333.746 125.325C333.41 125.209 332.944 125.141 332.349 125.119C331.766 125.084 331.081 125.038 330.294 124.979C329.697 124.932 329.136 124.858 328.611 124.756C328.099 124.653 327.64 124.508 327.236 124.322C326.843 124.122 326.528 123.853 326.289 123.516C326.051 123.18 325.914 122.753 325.878 122.238C325.839 121.685 325.938 121.205 326.175 120.797C326.411 120.376 326.759 120.024 327.219 119.739C327.691 119.453 328.263 119.23 328.933 119.07C329.604 118.909 330.348 118.8 331.164 118.743C331.881 118.693 332.557 118.703 333.193 118.772C333.842 118.84 334.413 118.977 334.908 119.182C335.402 119.388 335.799 119.657 336.101 119.989C336.402 120.322 336.568 120.72 336.601 121.185C336.604 121.236 336.608 121.286 336.611 121.336C336.615 121.386 336.612 121.431 336.602 121.469L333.586 121.68L333.579 121.586C333.562 121.335 333.441 121.141 333.217 121.005C332.993 120.869 332.709 120.782 332.365 120.743C332.02 120.691 331.653 120.679 331.264 120.706C331.126 120.716 330.919 120.737 330.643 120.769C330.368 120.8 330.081 120.852 329.783 120.923C329.497 120.994 329.258 121.093 329.065 121.22C328.872 121.347 328.782 121.517 328.797 121.731C328.816 121.995 328.986 122.179 329.309 122.282C329.632 122.386 330.047 122.452 330.554 122.479C331.074 122.506 331.632 122.537 332.228 122.571C332.861 122.602 333.465 122.655 334.038 122.728C334.624 122.801 335.145 122.935 335.6 123.131C336.068 123.312 336.44 123.583 336.718 123.943C336.996 124.302 337.156 124.783 337.198 125.386C337.242 126.015 337.147 126.558 336.914 127.016C336.68 127.462 336.321 127.834 335.837 128.133C335.364 128.419 334.774 128.643 334.065 128.807C333.37 128.969 332.588 129.08 331.721 129.141Z" fill="#111213"/>
<path d="M222.061 149.988L223.434 149.892L226.503 154.322L226.619 154.314L229.041 149.5L230.414 149.404L227.244 155.475L227.529 159.555L226.33 159.639L226.045 155.559L222.061 149.988ZM234.48 159.224C233.809 159.271 233.21 159.153 232.682 158.869C232.157 158.585 231.732 158.166 231.408 157.612C231.088 157.058 230.901 156.398 230.847 155.631C230.793 154.857 230.886 154.172 231.126 153.576C231.369 152.979 231.731 152.504 232.212 152.149C232.695 151.795 233.272 151.594 233.943 151.547C234.613 151.501 235.211 151.619 235.736 151.903C236.264 152.187 236.689 152.607 237.009 153.164C237.333 153.722 237.522 154.387 237.576 155.16C237.63 155.927 237.535 156.608 237.292 157.201C237.051 157.794 236.689 158.268 236.206 158.623C235.725 158.977 235.15 159.177 234.48 159.224ZM234.408 158.199C234.917 158.164 235.327 158.004 235.637 157.72C235.948 157.436 236.167 157.076 236.295 156.639C236.424 156.203 236.47 155.736 236.436 155.24C236.401 154.744 236.29 154.287 236.102 153.869C235.914 153.452 235.646 153.122 235.299 152.881C234.952 152.64 234.524 152.537 234.014 152.572C233.505 152.608 233.095 152.769 232.785 153.057C232.475 153.344 232.256 153.707 232.128 154.147C232 154.587 231.953 155.055 231.988 155.551C232.023 156.047 232.134 156.503 232.322 156.917C232.509 157.331 232.777 157.658 233.124 157.896C233.471 158.134 233.899 158.235 234.408 158.199ZM244.042 155.349L243.735 150.96L244.876 150.88L245.395 158.306L244.254 158.385L244.167 157.128L244.089 157.134C243.942 157.523 243.693 157.863 243.344 158.153C242.995 158.439 242.54 158.602 241.979 158.642C241.515 158.674 241.096 158.601 240.721 158.424C240.345 158.242 240.04 157.953 239.805 157.555C239.57 157.154 239.43 156.637 239.386 156.005L239.056 151.287L240.197 151.207L240.521 155.848C240.559 156.39 240.741 156.811 241.066 157.112C241.395 157.413 241.796 157.547 242.27 157.514C242.553 157.494 242.837 157.401 243.12 157.236C243.406 157.07 243.639 156.83 243.818 156.516C244 156.202 244.075 155.813 244.042 155.349ZM247.485 158.159L246.966 150.734L248.068 150.657L248.146 151.778L248.224 151.773C248.333 151.396 248.557 151.081 248.896 150.827C249.235 150.574 249.626 150.431 250.071 150.4C250.155 150.394 250.26 150.389 250.385 150.383C250.511 150.378 250.607 150.376 250.672 150.378L250.753 151.538C250.713 151.531 250.624 151.523 250.484 151.513C250.347 151.5 250.203 151.499 250.051 151.509C249.69 151.534 249.373 151.633 249.1 151.804C248.83 151.972 248.622 152.194 248.476 152.469C248.334 152.742 248.274 153.046 248.297 153.381L248.626 158.08L247.485 158.159ZM259.406 157.481C258.736 157.528 258.137 157.41 257.608 157.126C257.083 156.842 256.659 156.423 256.335 155.869C256.015 155.315 255.827 154.655 255.774 153.888C255.72 153.114 255.813 152.429 256.053 151.833C256.296 151.236 256.658 150.761 257.138 150.406C257.622 150.052 258.199 149.851 258.869 149.804C259.54 149.758 260.137 149.876 260.663 150.16C261.191 150.444 261.615 150.864 261.936 151.421C262.26 151.978 262.449 152.644 262.503 153.417C262.557 154.184 262.462 154.865 262.218 155.458C261.978 156.051 261.616 156.525 261.132 156.88C260.652 157.234 260.077 157.434 259.406 157.481ZM259.335 156.456C259.844 156.421 260.254 156.261 260.564 155.977C260.875 155.693 261.094 155.333 261.222 154.896C261.35 154.46 261.397 153.993 261.362 153.497C261.328 153.001 261.216 152.544 261.028 152.126C260.84 151.709 260.573 151.379 260.226 151.138C259.878 150.897 259.45 150.794 258.941 150.829C258.432 150.865 258.022 151.026 257.712 151.314C257.402 151.601 257.183 151.964 257.055 152.404C256.927 152.844 256.88 153.312 256.915 153.808C256.949 154.304 257.061 154.76 257.248 155.174C257.436 155.588 257.703 155.915 258.05 156.153C258.397 156.391 258.825 156.492 259.335 156.456ZM264.502 156.969L263.982 149.544L265.085 149.467L265.163 150.589L265.24 150.583C265.35 150.206 265.574 149.891 265.913 149.637C266.251 149.384 266.643 149.241 267.087 149.21C267.171 149.204 267.276 149.199 267.402 149.193C267.528 149.188 267.623 149.186 267.688 149.188L267.769 150.348C267.73 150.341 267.64 150.333 267.5 150.323C267.364 150.31 267.219 150.309 267.068 150.319C266.707 150.345 266.39 150.443 266.117 150.614C265.847 150.782 265.639 151.004 265.493 151.28C265.35 151.552 265.29 151.856 265.314 152.191L265.642 156.89L264.502 156.969ZM272.155 156.59C271.537 156.633 270.979 156.515 270.484 156.235C269.988 155.953 269.586 155.534 269.279 154.979C268.971 154.421 268.789 153.748 268.734 152.962C268.68 152.182 268.766 151.496 268.994 150.904C269.221 150.311 269.562 149.842 270.017 149.496C270.472 149.15 271.013 148.955 271.638 148.912C272.121 148.878 272.509 148.932 272.8 149.073C273.095 149.211 273.324 149.377 273.486 149.569C273.652 149.759 273.781 149.915 273.873 150.038L273.97 150.031L273.715 146.376L274.856 146.296L275.548 156.197L274.446 156.274L274.366 155.133L274.23 155.143C274.156 155.284 274.049 155.463 273.909 155.68C273.768 155.894 273.56 156.092 273.284 156.273C273.009 156.451 272.632 156.556 272.155 156.59ZM272.238 155.554C272.696 155.522 273.074 155.376 273.374 155.115C273.672 154.851 273.889 154.501 274.024 154.064C274.158 153.624 274.206 153.124 274.167 152.563C274.128 152.008 274.013 151.529 273.823 151.125C273.633 150.717 273.371 150.408 273.039 150.198C272.707 149.985 272.309 149.895 271.845 149.927C271.361 149.961 270.967 150.113 270.662 150.384C270.36 150.651 270.144 151.001 270.012 151.435C269.883 151.865 269.837 152.341 269.874 152.863C269.911 153.391 270.025 153.866 270.216 154.287C270.411 154.704 270.676 155.029 271.013 155.261C271.353 155.49 271.761 155.587 272.238 155.554ZM280.92 155.977C280.204 156.027 279.576 155.912 279.035 155.633C278.497 155.35 278.068 154.933 277.748 154.382C277.431 153.828 277.245 153.17 277.192 152.409C277.139 151.649 277.231 150.969 277.467 150.369C277.707 149.766 278.065 149.285 278.542 148.924C279.022 148.56 279.597 148.355 280.267 148.308C280.654 148.281 281.04 148.319 281.426 148.421C281.812 148.524 282.17 148.709 282.5 148.978C282.829 149.243 283.102 149.606 283.319 150.067C283.536 150.528 283.669 151.105 283.717 151.798L283.751 152.281L278.027 152.681L277.958 151.695L282.522 151.376C282.493 150.957 282.383 150.589 282.192 150.272C282.005 149.955 281.751 149.712 281.432 149.543C281.116 149.374 280.751 149.304 280.339 149.333C279.884 149.365 279.499 149.505 279.183 149.754C278.87 149.999 278.637 150.307 278.485 150.677C278.332 151.047 278.271 151.437 278.299 151.846L278.345 152.504C278.384 153.065 278.514 153.533 278.735 153.91C278.959 154.283 279.252 154.558 279.614 154.737C279.976 154.913 280.387 154.984 280.848 154.952C281.148 154.931 281.416 154.87 281.652 154.77C281.89 154.665 282.092 154.522 282.258 154.338C282.423 154.152 282.545 153.927 282.623 153.662L283.747 153.894C283.657 154.276 283.485 154.619 283.231 154.921C282.977 155.221 282.654 155.464 282.262 155.65C281.87 155.833 281.423 155.942 280.92 155.977ZM285.719 155.486L285.2 148.06L286.302 147.983L286.38 149.105L286.458 149.099C286.567 148.723 286.792 148.407 287.13 148.154C287.469 147.9 287.86 147.758 288.305 147.727C288.389 147.721 288.494 147.715 288.62 147.71C288.745 147.704 288.841 147.702 288.906 147.704L288.987 148.864C288.948 148.857 288.858 148.849 288.718 148.839C288.581 148.826 288.437 148.825 288.285 148.836C287.924 148.861 287.607 148.959 287.334 149.13C287.064 149.298 286.856 149.52 286.711 149.796C286.568 150.068 286.508 150.372 286.531 150.707L286.86 155.406L285.719 155.486ZM291.078 145.162L291.316 148.565L290.252 148.64L290.015 145.236L291.078 145.162ZM298.659 148.79L297.654 149.152C297.578 148.986 297.471 148.826 297.334 148.674C297.2 148.518 297.023 148.395 296.803 148.303C296.583 148.212 296.307 148.178 295.975 148.201C295.52 148.233 295.149 148.364 294.861 148.594C294.575 148.822 294.444 149.095 294.466 149.414C294.486 149.697 294.605 149.914 294.823 150.064C295.04 150.214 295.372 150.329 295.818 150.407L296.939 150.601C297.614 150.716 298.126 150.928 298.475 151.237C298.824 151.543 299.016 151.955 299.052 152.474C299.082 152.9 298.986 153.289 298.765 153.641C298.546 153.993 298.226 154.281 297.805 154.505C297.383 154.728 296.884 154.861 296.307 154.901C295.55 154.954 294.912 154.833 294.392 154.539C293.873 154.245 293.525 153.787 293.349 153.165L294.413 152.818C294.544 153.211 294.76 153.497 295.061 153.676C295.365 153.856 295.75 153.929 296.218 153.897C296.749 153.859 297.164 153.717 297.461 153.47C297.76 153.219 297.899 152.934 297.877 152.615C297.859 152.357 297.753 152.147 297.561 151.986C297.368 151.821 297.082 151.709 296.702 151.648L295.444 151.444C294.752 151.331 294.235 151.116 293.893 150.8C293.553 150.48 293.365 150.064 293.329 149.552C293.3 149.133 293.392 148.754 293.605 148.415C293.82 148.076 294.127 147.801 294.523 147.588C294.923 147.376 295.384 147.251 295.906 147.215C296.641 147.163 297.229 147.284 297.67 147.577C298.115 147.87 298.444 148.274 298.659 148.79ZM307.53 146.499L307.598 147.466L303.595 147.746L303.528 146.779L307.53 146.499ZM305.246 154.12L304.655 145.67C304.625 145.245 304.7 144.883 304.88 144.586C305.06 144.288 305.305 144.057 305.614 143.893C305.923 143.729 306.255 143.634 306.609 143.61C306.89 143.59 307.12 143.597 307.301 143.629C307.481 143.662 307.616 143.695 307.706 143.727L307.446 144.737C307.387 144.721 307.304 144.703 307.199 144.681C307.097 144.659 306.964 144.654 306.8 144.665C306.423 144.691 306.157 144.806 306.003 145.007C305.852 145.209 305.789 145.494 305.815 145.861L306.387 154.041L305.246 154.12ZM309.649 153.812L309.129 146.387L310.232 146.31L310.31 147.432L310.387 147.426C310.497 147.049 310.721 146.734 311.06 146.48C311.398 146.227 311.79 146.084 312.235 146.053C312.318 146.047 312.423 146.042 312.549 146.036C312.675 146.031 312.77 146.029 312.835 146.031L312.916 147.191C312.877 147.184 312.787 147.176 312.648 147.166C312.511 147.153 312.366 147.152 312.215 147.162C311.854 147.188 311.537 147.286 311.264 147.457C310.994 147.625 310.786 147.847 310.64 148.123C310.497 148.395 310.437 148.699 310.461 149.034L310.79 153.733L309.649 153.812ZM317.612 153.411C316.896 153.461 316.268 153.346 315.727 153.067C315.189 152.784 314.76 152.367 314.44 151.816C314.123 151.262 313.937 150.604 313.884 149.844C313.831 149.083 313.923 148.403 314.159 147.804C314.399 147.201 314.757 146.719 315.234 146.359C315.714 145.995 316.289 145.789 316.959 145.742C317.346 145.715 317.732 145.753 318.118 145.856C318.504 145.958 318.862 146.144 319.192 146.412C319.521 146.677 319.794 147.04 320.011 147.501C320.228 147.962 320.361 148.539 320.409 149.232L320.443 149.715L314.719 150.116L314.65 149.129L319.214 148.81C319.185 148.391 319.075 148.023 318.884 147.706C318.697 147.389 318.443 147.146 318.124 146.977C317.808 146.808 317.443 146.738 317.031 146.767C316.576 146.799 316.191 146.939 315.875 147.188C315.562 147.434 315.329 147.741 315.177 148.111C315.024 148.482 314.963 148.871 314.991 149.281L315.037 149.938C315.076 150.499 315.206 150.967 315.427 151.344C315.651 151.717 315.944 151.993 316.306 152.171C316.668 152.347 317.079 152.418 317.54 152.386C317.84 152.365 318.108 152.304 318.343 152.204C318.582 152.1 318.784 151.956 318.95 151.773C319.115 151.586 319.237 151.361 319.315 151.096L320.439 151.329C320.349 151.71 320.177 152.053 319.923 152.356C319.669 152.655 319.346 152.898 318.954 153.084C318.562 153.267 318.115 153.376 317.612 153.411ZM325.535 152.857C324.82 152.907 324.191 152.792 323.65 152.513C323.113 152.23 322.683 151.813 322.363 151.262C322.046 150.708 321.861 150.05 321.807 149.29C321.754 148.529 321.846 147.849 322.083 147.25C322.322 146.647 322.68 146.165 323.157 145.805C323.637 145.441 324.212 145.235 324.882 145.188C325.269 145.161 325.655 145.199 326.042 145.302C326.428 145.404 326.786 145.59 327.115 145.858C327.445 146.123 327.718 146.486 327.935 146.947C328.151 147.408 328.284 147.985 328.333 148.678L328.366 149.161L322.643 149.562L322.574 148.575L327.137 148.256C327.108 147.837 326.998 147.469 326.807 147.152C326.62 146.835 326.367 146.592 326.047 146.423C325.731 146.254 325.366 146.184 324.954 146.213C324.5 146.245 324.114 146.385 323.798 146.634C323.485 146.879 323.252 147.187 323.1 147.557C322.948 147.927 322.886 148.317 322.915 148.726L322.96 149.384C323 149.945 323.13 150.413 323.35 150.79C323.574 151.163 323.867 151.439 324.229 151.617C324.591 151.793 325.003 151.864 325.463 151.832C325.763 151.811 326.031 151.75 326.267 151.65C326.506 151.546 326.708 151.402 326.873 151.219C327.038 151.032 327.16 150.807 327.239 150.542L328.363 150.774C328.273 151.156 328.101 151.499 327.847 151.802C327.592 152.101 327.269 152.344 326.877 152.53C326.485 152.713 326.038 152.822 325.535 152.857ZM337.366 154.828C336.815 154.866 336.336 154.829 335.93 154.715C335.524 154.604 335.18 154.443 334.9 154.233C334.623 154.025 334.399 153.798 334.226 153.551L335.09 152.85C335.203 152.978 335.344 153.123 335.514 153.286C335.684 153.452 335.911 153.59 336.194 153.7C336.48 153.813 336.848 153.854 337.296 153.822C337.895 153.78 338.38 153.601 338.749 153.284C339.119 152.966 339.282 152.498 339.239 151.879L339.133 150.371L339.037 150.378C338.962 150.519 338.855 150.695 338.714 150.906C338.576 151.113 338.37 151.304 338.094 151.479C337.821 151.65 337.442 151.752 336.959 151.786C336.359 151.828 335.811 151.724 335.314 151.474C334.821 151.223 334.417 150.837 334.102 150.315C333.79 149.793 333.607 149.145 333.553 148.371C333.5 147.611 333.587 146.939 333.815 146.356C334.043 145.77 334.384 145.306 334.84 144.963C335.295 144.617 335.835 144.422 336.46 144.379C336.944 144.345 337.333 144.399 337.628 144.54C337.926 144.678 338.157 144.843 338.323 145.035C338.492 145.224 338.623 145.38 338.715 145.504L338.831 145.495L338.749 144.316L339.851 144.239L340.385 151.877C340.43 152.515 340.321 153.044 340.059 153.464C339.8 153.887 339.434 154.209 338.961 154.43C338.49 154.654 337.959 154.786 337.366 154.828ZM337.042 150.75C337.5 150.718 337.879 150.587 338.18 150.355C338.481 150.124 338.7 149.805 338.837 149.401C338.974 148.996 339.023 148.52 338.985 147.972C338.948 147.437 338.834 146.97 338.644 146.572C338.455 146.174 338.194 145.87 337.862 145.66C337.53 145.45 337.131 145.362 336.667 145.394C336.184 145.428 335.79 145.579 335.484 145.846C335.183 146.113 334.965 146.459 334.833 146.883C334.704 147.306 334.657 147.769 334.692 148.272C334.728 148.788 334.841 149.238 335.03 149.623C335.222 150.005 335.485 150.297 335.82 150.501C336.158 150.701 336.565 150.784 337.042 150.75ZM342.459 151.518L341.939 144.093L343.08 144.013L343.6 151.438L342.459 151.518ZM342.433 142.815C342.211 142.83 342.014 142.768 341.842 142.628C341.673 142.487 341.582 142.311 341.567 142.098C341.552 141.885 341.618 141.698 341.765 141.535C341.916 141.372 342.102 141.283 342.325 141.268C342.547 141.252 342.743 141.315 342.911 141.455C343.083 141.595 343.176 141.772 343.191 141.984C343.206 142.197 343.138 142.385 342.988 142.548C342.84 142.71 342.655 142.799 342.433 142.815ZM348.477 143.636L348.544 144.602L344.541 144.882L344.474 143.916L348.477 143.636ZM346.192 151.257L345.601 142.807C345.571 142.381 345.646 142.02 345.826 141.722C346.006 141.425 346.251 141.194 346.56 141.03C346.869 140.866 347.201 140.771 347.556 140.746C347.836 140.727 348.066 140.733 348.247 140.766C348.427 140.799 348.562 140.832 348.652 140.864L348.392 141.873C348.333 141.858 348.251 141.839 348.145 141.818C348.043 141.796 347.91 141.79 347.746 141.802C347.369 141.828 347.103 141.942 346.949 142.144C346.798 142.346 346.735 142.63 346.761 142.998L347.333 151.177L346.192 151.257ZM353.305 143.298L353.372 144.265L349.524 144.534L349.457 143.567L353.305 143.298ZM350.454 141.71L351.595 141.63L352.09 148.707C352.112 149.03 352.176 149.268 352.281 149.423C352.388 149.574 352.518 149.672 352.67 149.716C352.825 149.757 352.987 149.772 353.154 149.76C353.28 149.751 353.383 149.737 353.462 149.719C353.542 149.697 353.605 149.68 353.653 149.667L353.957 150.675C353.881 150.71 353.775 150.746 353.639 150.785C353.503 150.827 353.328 150.855 353.115 150.87C352.793 150.893 352.472 150.845 352.153 150.729C351.837 150.611 351.568 150.418 351.345 150.149C351.126 149.879 351.001 149.528 350.97 149.096L350.454 141.71Z" fill="#8B628D"/>
</g>
</g>
</g>
<defs>
<filter id="filter0_d_7224_52488" x="43.3051" y="16.8572" width="389.608" height="251.526" filterUnits="userSpaceOnUse" color-interpolation-filters="sRGB">
<feFlood flood-opacity="0" result="BackgroundImageFix"/>
<feColorMatrix in="SourceAlpha" type="matrix" values="0 0 0 0 0 0 0 0 0 0 0 0 0 0 0 0 0 0 127 0" result="hardAlpha"/>
<feOffset dy="2.09946"/>
<feGaussianBlur stdDeviation="3.14919"/>
<feComposite in2="hardAlpha" operator="out"/>
<feColorMatrix type="matrix" values="0 0 0 0 0 0 0 0 0 0 0 0 0 0 0 0 0 0 0.08 0"/>
<feBlend mode="normal" in2="BackgroundImageFix" result="effect1_dropShadow_7224_52488"/>
<feBlend mode="normal" in="SourceGraphic" in2="effect1_dropShadow_7224_52488" result="shape"/>
</filter>
<filter id="filter1_d_7224_52488" x="191.199" y="70.3355" width="409.445" height="271.738" filterUnits="userSpaceOnUse" color-interpolation-filters="sRGB">
<feFlood flood-opacity="0" result="BackgroundImageFix"/>
<feColorMatrix in="SourceAlpha" type="matrix" values="0 0 0 0 0 0 0 0 0 0 0 0 0 0 0 0 0 0 127 0" result="hardAlpha"/>
<feOffset dy="2.74242"/>
<feGaussianBlur stdDeviation="4.11363"/>
<feComposite in2="hardAlpha" operator="out"/>
<feColorMatrix type="matrix" values="0 0 0 0 0 0 0 0 0 0 0 0 0 0 0 0 0 0 0.03 0"/>
<feBlend mode="normal" in2="BackgroundImageFix" result="effect1_dropShadow_7224_52488"/>
<feBlend mode="normal" in="SourceGraphic" in2="effect1_dropShadow_7224_52488" result="shape"/>
</filter>
<linearGradient id="paint0_linear_7224_52488" x1="114.213" y1="21.0562" x2="277.654" y2="212.504" gradientUnits="userSpaceOnUse">
<stop stop-color="#483349"/>
<stop offset="1" stop-color="#664B67"/>
</linearGradient>
<linearGradient id="paint1_linear_7224_52488" x1="114.213" y1="21.0562" x2="277.654" y2="212.504" gradientUnits="userSpaceOnUse">
<stop stop-color="#483349"/>
<stop offset="1" stop-color="#3D273E"/>
</linearGradient>
<linearGradient id="paint2_linear_7224_52488" x1="254.246" y1="102.182" x2="424.925" y2="300.153" gradientUnits="userSpaceOnUse">
<stop stop-color="#FBD8FD"/>
<stop offset="1" stop-color="#FCE7FD"/>
</linearGradient>
<clipPath id="clip0_7224_52488">
<rect width="634" height="230" fill="white"/>
</clipPath>
<clipPath id="clip1_7224_52488">
<rect x="61.1211" y="21.0562" width="365.996" height="220.076" rx="9.44758" transform="rotate(3 61.1211 21.0562)" fill="white"/>
</clipPath>
<clipPath id="clip2_7224_52488">
<rect x="199.426" y="102.182" width="377.903" height="229.481" rx="9.44758" transform="rotate(-4 199.426 102.182)" fill="white"/>
</clipPath>
</defs>
</svg>
