<svg width="164" height="44" viewBox="0 0 164 44" fill="none" xmlns="http://www.w3.org/2000/svg">
<path d="M31.6 6H12.4C8.86538 6 6 8.86538 6 12.4V31.6C6 35.1346 8.86538 38 12.4 38H31.6C35.1346 38 38 35.1346 38 31.6V12.4C38 8.86538 35.1346 6 31.6 6Z" fill="white"/>
<path d="M31.6 6.20001H12.4C8.97585 6.20001 6.20001 8.97585 6.20001 12.4V31.6C6.20001 35.0242 8.97585 37.8 12.4 37.8H31.6C35.0242 37.8 37.8 35.0242 37.8 31.6V12.4C37.8 8.97585 35.0242 6.20001 31.6 6.20001Z" stroke="black" stroke-opacity="0.05" stroke-width="0.4"/>
<path d="M15.3767 22.0038C20.3675 12.5041 25.6731 5.67722 29.5085 1.91982C30.1982 1.2441 31.2522 2.0087 30.9689 2.93178C28.8259 9.9136 27.3465 20.9648 26.6851 26.2742C26.6144 26.8419 26.0588 27.2137 25.5064 27.065L16.5485 24.6532C15.3998 24.344 14.8234 23.0569 15.3767 22.0038Z" fill="#7EC9FF"/>
<path d="M23.5009 26.7075C23.4016 20.2306 24.0407 14.9524 24.726 11.3975C25.0162 9.89195 26.8604 9.54044 27.6991 10.824C30.3369 14.861 32.1049 18.924 33.0086 22.6527C33.1929 23.4136 32.8443 24.1947 32.1776 24.605L26.3088 28.2168C25.092 28.9657 23.5228 28.1361 23.5009 26.7075Z" fill="#1A93EB"/>
<path d="M9.61215 26.4472C8.90932 25.8153 9.53624 24.6665 10.448 24.9156L33.2431 31.145C34.1822 31.4016 34.4087 32.6298 33.6229 33.2045C32.5248 34.0077 31.1951 34.4318 29.8346 34.4128L19.5777 34.2695C18.7487 34.2579 17.952 33.946 17.3355 33.3917L9.61215 26.4472Z" fill="#1B5BBC"/>
<path d="M50.52 29V15.28H58.04C59.0533 15.28 59.8933 15.46 60.56 15.82C61.24 16.18 61.7467 16.6867 62.08 17.34C62.4133 17.98 62.58 18.72 62.58 19.56C62.58 20.4533 62.38 21.2467 61.98 21.94C61.58 22.62 61 23.14 60.24 23.5L63.04 29H59.74L57.32 24H53.5V29H50.52ZM53.5 21.64H57.64C58.24 21.64 58.7067 21.46 59.04 21.1C59.3733 20.7267 59.54 20.2267 59.54 19.6C59.54 19.2 59.4667 18.86 59.32 18.58C59.1733 18.2867 58.96 18.0667 58.68 17.92C58.4 17.7733 58.0533 17.7 57.64 17.7H53.5V21.64ZM69.495 29.24C68.3483 29.24 67.375 29.0467 66.575 28.66C65.775 28.26 65.1683 27.6533 64.755 26.84C64.3417 26.0133 64.135 24.98 64.135 23.74C64.135 22.4733 64.3417 21.44 64.755 20.64C65.1683 19.8267 65.775 19.2267 66.575 18.84C67.375 18.44 68.3483 18.24 69.495 18.24C70.6683 18.24 71.6483 18.44 72.435 18.84C73.235 19.2267 73.8417 19.8267 74.255 20.64C74.6683 21.44 74.875 22.4733 74.875 23.74C74.875 24.98 74.6683 26.0133 74.255 26.84C73.8417 27.6533 73.235 28.26 72.435 28.66C71.6483 29.0467 70.6683 29.24 69.495 29.24ZM69.495 27.08C70.1083 27.08 70.595 26.9667 70.955 26.74C71.3283 26.5133 71.6017 26.1667 71.775 25.7C71.9483 25.2333 72.035 24.66 72.035 23.98V23.5C72.035 22.82 71.9483 22.2467 71.775 21.78C71.6017 21.3133 71.3283 20.9667 70.955 20.74C70.595 20.5 70.1083 20.38 69.495 20.38C68.895 20.38 68.4083 20.5 68.035 20.74C67.675 20.9667 67.4083 21.3133 67.235 21.78C67.0617 22.2467 66.975 22.82 66.975 23.5V23.98C66.975 24.66 67.0617 25.2333 67.235 25.7C67.4083 26.1667 67.675 26.5133 68.035 26.74C68.4083 26.9667 68.895 27.08 69.495 27.08ZM75.2542 29L79.0742 23.54L75.5342 18.48H78.8742L80.8742 21.64H80.9742L82.9942 18.48H86.1342L82.5742 23.52L86.3342 29H83.0542L80.7742 25.42H80.6742L78.3942 29H75.2542ZM89.3195 32.76C88.8262 32.76 88.4129 32.72 88.0795 32.64C87.7595 32.5733 87.5529 32.5267 87.4595 32.5V30.62H88.6795C89.0129 30.62 89.3129 30.54 89.5795 30.38C89.8462 30.2333 90.0795 30.0333 90.2795 29.78C90.4795 29.54 90.6262 29.28 90.7195 29L86.5995 18.48H89.5395L91.3395 23.34C91.4195 23.5667 91.5062 23.8533 91.5995 24.2C91.7062 24.5333 91.8129 24.8867 91.9195 25.26C92.0262 25.62 92.1129 25.94 92.1795 26.22H92.2795C92.3329 26.0333 92.3929 25.8133 92.4595 25.56C92.5262 25.3067 92.5929 25.0467 92.6595 24.78C92.7395 24.5133 92.8129 24.26 92.8795 24.02C92.9595 23.7667 93.0262 23.5467 93.0795 23.36L94.5795 18.48H97.3795L93.7995 28.5C93.5995 29.0867 93.3662 29.6333 93.0995 30.14C92.8462 30.66 92.5462 31.1133 92.1995 31.5C91.8529 31.9 91.4395 32.2067 90.9595 32.42C90.4929 32.6467 89.9462 32.76 89.3195 32.76ZM97.797 30.96C98.877 28.32 99.6104 25.76 99.997 23.28H102.457C102.07 25.6933 101.37 28.2533 100.357 30.96H97.797ZM98.357 20.18V18.02L102.097 19.16V21.32L98.357 20.18ZM98.877 15.58V13.42L102.537 14.56V16.72L98.877 15.58ZM112.837 26.46H110.677V14.6H112.837V26.46ZM116.197 28.56C116.197 30.0667 115.457 30.8467 113.977 30.9C113.124 30.94 112.27 30.8667 111.417 30.68L110.877 28.62C111.53 28.7533 112.17 28.82 112.797 28.82C113.197 28.82 113.47 28.7467 113.617 28.6C113.764 28.4533 113.837 28.1933 113.837 27.82V13H116.197V28.56ZM109.557 17.54C109.357 20.4333 108.817 22.8267 107.937 24.72C108.844 26.72 109.617 28.5733 110.257 30.28H107.797C107.397 29.2267 106.977 28.1667 106.537 27.1C105.484 28.54 104.07 29.8867 102.297 31.14L101.897 28.36C103.47 27.1333 104.65 25.8467 105.437 24.5C104.877 23.2333 104.004 21.2533 102.817 18.56H105.157C105.637 19.6133 106.117 20.66 106.597 21.7C106.917 20.54 107.11 19.1533 107.177 17.54H103.057L102.857 15.44H105.457V13H107.777V15.44H110.177V17.54H109.557ZM120.397 21.86C120.41 20.82 120.944 20.2933 121.997 20.28H132.957C134.01 20.2933 134.544 20.82 134.557 21.86V26.24H132.157V22.58C132.157 22.38 132.057 22.28 131.857 22.28H123.077C122.89 22.28 122.797 22.38 122.797 22.58V26.22H120.397V21.86ZM134.197 19.9H131.817L131.197 17.24H133.577L134.197 19.9ZM125.637 19.64H123.317V13H125.637V19.64ZM121.597 19.3H119.277V13.72H121.597V19.3ZM131.217 14.64H136.257V16.64H130.337C129.617 17.8933 128.517 19.08 127.037 20.2L126.177 17.84C127.804 16.4533 128.804 14.84 129.177 13H131.637C131.544 13.5733 131.404 14.12 131.217 14.64ZM128.397 25.48H129.677V27.52C129.677 27.88 129.757 28.1467 129.917 28.32C130.05 28.4667 130.27 28.5667 130.577 28.62C131.417 28.7667 132.257 28.7667 133.097 28.62C133.684 28.5267 133.977 28.16 133.977 27.52V26.66L136.297 26.98V28.22C136.297 28.86 136.084 29.3933 135.657 29.82C135.27 30.2067 134.764 30.4467 134.137 30.54C132.577 30.78 131.01 30.78 129.437 30.54C128.81 30.4467 128.304 30.2067 127.917 29.82C127.49 29.3933 127.277 28.86 127.277 28.22V27.2C125.757 28.8 122.99 30.0667 118.977 31L118.337 28.78C123.617 27.6467 126.257 26.04 126.257 23.96V22.74H128.657V23.96C128.657 24.4533 128.57 24.96 128.397 25.48ZM150.397 26.58C150.224 26.6067 150.124 26.7067 150.097 26.88V28.46C150.097 28.5267 150.13 28.5933 150.197 28.66C150.264 28.7267 150.33 28.76 150.397 28.76H153.357C153.45 28.76 153.524 28.7267 153.577 28.66C153.63 28.5933 153.657 28.5267 153.657 28.46V26.88C153.657 26.8 153.63 26.7333 153.577 26.68C153.51 26.6133 153.437 26.58 153.357 26.58H150.397ZM141.837 26.58C141.637 26.58 141.537 26.68 141.537 26.88V28.46C141.537 28.66 141.637 28.76 141.837 28.76H144.497C144.697 28.76 144.797 28.66 144.797 28.46V26.88C144.797 26.68 144.697 26.58 144.497 26.58H141.837ZM154.037 13.46C155.104 13.46 155.637 13.9933 155.637 15.06V17.02C155.637 18.0867 155.104 18.62 154.037 18.62H149.777C148.71 18.62 148.177 18.0867 148.177 17.02V15.06C148.177 13.9933 148.71 13.46 149.777 13.46H154.037ZM150.557 15.22C150.357 15.22 150.257 15.32 150.257 15.52V16.64C150.257 16.84 150.357 16.94 150.557 16.94H153.257C153.457 16.94 153.557 16.84 153.557 16.64V15.52C153.557 15.32 153.457 15.22 153.257 15.22H150.557ZM145.217 13.46C145.764 13.46 146.164 13.5867 146.417 13.84C146.684 14.1067 146.817 14.5133 146.817 15.06V17.02C146.817 17.5667 146.684 17.9733 146.417 18.24C146.164 18.4933 145.764 18.62 145.217 18.62H141.057C139.99 18.6333 139.457 18.1 139.457 17.02V15.06C139.457 14.5133 139.59 14.1067 139.857 13.84C140.11 13.5867 140.51 13.46 141.057 13.46H145.217ZM141.837 15.22C141.637 15.22 141.537 15.32 141.537 15.52V16.56C141.537 16.76 141.637 16.86 141.837 16.86H144.437C144.637 16.86 144.737 16.76 144.737 16.56V15.52C144.737 15.32 144.637 15.22 144.437 15.22H141.837ZM155.357 25.34C155.624 25.6467 155.757 25.9933 155.757 26.38V28.96C155.757 29.36 155.61 29.72 155.317 30.04C155.01 30.3867 154.624 30.56 154.157 30.56H149.597C149.13 30.56 148.744 30.3867 148.437 30.04C148.144 29.72 147.997 29.36 147.997 28.96V26.38C147.997 25.98 148.144 25.62 148.437 25.3C148.744 24.9533 149.13 24.78 149.597 24.78H152.497C151.297 24.4867 150.297 24.12 149.497 23.68C148.737 23.2667 148.017 22.7133 147.337 22.02C146.324 23.3133 144.704 24.2333 142.477 24.78H145.297C146.364 24.78 146.897 25.3133 146.897 26.38V28.96C146.897 30.0267 146.364 30.56 145.297 30.56H141.037C139.97 30.56 139.437 30.0267 139.437 28.96V26.38C139.437 25.9533 139.53 25.6067 139.717 25.34C139.397 25.3933 139.077 25.44 138.757 25.48L138.397 23.2C141.104 22.9067 143.05 22.4067 144.237 21.7H138.837L138.637 19.7H146.097C146.27 19.3267 146.404 18.96 146.497 18.6H149.117C148.93 19.1067 148.79 19.4733 148.697 19.7H151.317L150.897 18.84H153.237L153.677 19.7H156.297V21.7H150.617C152.07 22.58 154.084 23.08 156.657 23.2L156.357 25.48C156.024 25.44 155.69 25.3933 155.357 25.34Z" fill="black"/>
</svg>
