<svg width="152" height="37" viewBox="0 0 152 37" fill="none" xmlns="http://www.w3.org/2000/svg">
<path d="M25.6 4.3378H6.4C2.86538 4.3378 0 7.20318 0 10.7378V29.9378C0 33.4724 2.86538 36.3378 6.4 36.3378H25.6C29.1346 36.3378 32 33.4724 32 29.9378V10.7378C32 7.20318 29.1346 4.3378 25.6 4.3378Z" fill="white"/>
<path d="M25.6002 4.53781H6.4002C2.97603 4.53781 0.200195 7.31365 0.200195 10.7378V29.9378C0.200195 33.362 2.97603 36.1378 6.4002 36.1378H25.6002C29.0244 36.1378 31.8002 33.362 31.8002 29.9378V10.7378C31.8002 7.31365 29.0244 4.53781 25.6002 4.53781Z" stroke="black" stroke-opacity="0.05" stroke-width="0.4"/>
<path d="M9.37634 20.3416C14.3671 10.8419 19.6727 4.01502 23.5081 0.257616C24.1978 -0.418104 25.2518 0.346496 24.9685 1.26958C22.8255 8.2514 21.3461 19.3026 20.6847 24.612C20.614 25.1797 20.0584 25.5515 19.506 25.4028L10.5481 22.991C9.39944 22.6818 8.82304 21.3947 9.37634 20.3416Z" fill="#7EC9FF"/>
<path d="M17.5005 25.0453C17.4012 18.5684 18.0403 13.2902 18.7256 9.7353C19.0158 8.22975 20.86 7.87824 21.6987 9.1618C24.3365 13.1988 26.1045 17.2618 27.0082 20.9905C27.1925 21.7514 26.8439 22.5325 26.1772 22.9428L20.3084 26.5546C19.0916 27.3035 17.5224 26.4739 17.5005 25.0453Z" fill="#1A93EB"/>
<path d="M3.61227 24.785C2.90944 24.1531 3.53636 23.0043 4.44814 23.2534L27.2432 29.4828C28.1823 29.7394 28.4088 30.9676 27.623 31.5423C26.5249 32.3455 25.1952 32.7696 23.8347 32.7506L13.5778 32.6073C12.7488 32.5957 11.9521 32.2838 11.3356 31.7295L3.61227 24.785Z" fill="#1B5BBC"/>
<path d="M44.52 27.3378V13.6178H52.04C53.0533 13.6178 53.8933 13.7978 54.56 14.1578C55.24 14.5178 55.7467 15.0245 56.08 15.6778C56.4133 16.3178 56.58 17.0578 56.58 17.8978C56.58 18.7911 56.38 19.5845 55.98 20.2778C55.58 20.9578 55 21.4778 54.24 21.8378L57.04 27.3378H53.74L51.32 22.3378H47.5V27.3378H44.52ZM47.5 19.9778H51.64C52.24 19.9778 52.7067 19.7978 53.04 19.4378C53.3733 19.0645 53.54 18.5645 53.54 17.9378C53.54 17.5378 53.4667 17.1978 53.32 16.9178C53.1733 16.6245 52.96 16.4045 52.68 16.2578C52.4 16.1111 52.0533 16.0378 51.64 16.0378H47.5V19.9778ZM63.495 27.5778C62.3483 27.5778 61.375 27.3845 60.575 26.9978C59.775 26.5978 59.1683 25.9911 58.755 25.1778C58.3417 24.3511 58.135 23.3178 58.135 22.0778C58.135 20.8111 58.3417 19.7778 58.755 18.9778C59.1683 18.1645 59.775 17.5645 60.575 17.1778C61.375 16.7778 62.3483 16.5778 63.495 16.5778C64.6683 16.5778 65.6483 16.7778 66.435 17.1778C67.235 17.5645 67.8417 18.1645 68.255 18.9778C68.6683 19.7778 68.875 20.8111 68.875 22.0778C68.875 23.3178 68.6683 24.3511 68.255 25.1778C67.8417 25.9911 67.235 26.5978 66.435 26.9978C65.6483 27.3845 64.6683 27.5778 63.495 27.5778ZM63.495 25.4178C64.1083 25.4178 64.595 25.3045 64.955 25.0778C65.3283 24.8511 65.6017 24.5045 65.775 24.0378C65.9483 23.5711 66.035 22.9978 66.035 22.3178V21.8378C66.035 21.1578 65.9483 20.5845 65.775 20.1178C65.6017 19.6511 65.3283 19.3045 64.955 19.0778C64.595 18.8378 64.1083 18.7178 63.495 18.7178C62.895 18.7178 62.4083 18.8378 62.035 19.0778C61.675 19.3045 61.4083 19.6511 61.235 20.1178C61.0617 20.5845 60.975 21.1578 60.975 21.8378V22.3178C60.975 22.9978 61.0617 23.5711 61.235 24.0378C61.4083 24.5045 61.675 24.8511 62.035 25.0778C62.4083 25.3045 62.895 25.4178 63.495 25.4178ZM69.2542 27.3378L73.0742 21.8778L69.5342 16.8178H72.8742L74.8742 19.9778H74.9742L76.9942 16.8178H80.1342L76.5742 21.8578L80.3342 27.3378H77.0542L74.7742 23.7578H74.6742L72.3942 27.3378H69.2542ZM83.3195 31.0978C82.8262 31.0978 82.4129 31.0578 82.0795 30.9778C81.7595 30.9111 81.5529 30.8645 81.4595 30.8378V28.9578H82.6795C83.0129 28.9578 83.3129 28.8778 83.5795 28.7178C83.8462 28.5711 84.0795 28.3711 84.2795 28.1178C84.4795 27.8778 84.6262 27.6178 84.7195 27.3378L80.5995 16.8178H83.5395L85.3395 21.6778C85.4195 21.9045 85.5062 22.1911 85.5995 22.5378C85.7062 22.8711 85.8129 23.2245 85.9195 23.5978C86.0262 23.9578 86.1129 24.2778 86.1795 24.5578H86.2795C86.3329 24.3711 86.3929 24.1511 86.4595 23.8978C86.5262 23.6445 86.5929 23.3845 86.6595 23.1178C86.7395 22.8511 86.8129 22.5978 86.8795 22.3578C86.9595 22.1045 87.0262 21.8845 87.0795 21.6978L88.5795 16.8178H91.3795L87.7995 26.8378C87.5995 27.4245 87.3662 27.9711 87.0995 28.4778C86.8462 28.9978 86.5462 29.4511 86.1995 29.8378C85.8529 30.2378 85.4395 30.5445 84.9595 30.7578C84.4929 30.9845 83.9462 31.0978 83.3195 31.0978ZM91.797 29.2978C92.877 26.6578 93.6104 24.0978 93.997 21.6178H96.457C96.0704 24.0311 95.3704 26.5911 94.357 29.2978H91.797ZM92.357 18.5178V16.3578L96.097 17.4978V19.6578L92.357 18.5178ZM92.877 13.9178V11.7578L96.537 12.8978V15.0578L92.877 13.9178ZM106.837 24.7978H104.677V12.9378H106.837V24.7978ZM110.197 26.8978C110.197 28.4045 109.457 29.1845 107.977 29.2378C107.124 29.2778 106.27 29.2045 105.417 29.0178L104.877 26.9578C105.53 27.0911 106.17 27.1578 106.797 27.1578C107.197 27.1578 107.47 27.0845 107.617 26.9378C107.764 26.7911 107.837 26.5311 107.837 26.1578V11.3378H110.197V26.8978ZM103.557 15.8778C103.357 18.7711 102.817 21.1645 101.937 23.0578C102.844 25.0578 103.617 26.9111 104.257 28.6178H101.797C101.397 27.5645 100.977 26.5045 100.537 25.4378C99.4837 26.8778 98.0704 28.2245 96.297 29.4778L95.897 26.6978C97.4704 25.4711 98.6504 24.1845 99.437 22.8378C98.877 21.5711 98.0037 19.5911 96.817 16.8978H99.157C99.637 17.9511 100.117 18.9978 100.597 20.0378C100.917 18.8778 101.11 17.4911 101.177 15.8778H97.057L96.857 13.7778H99.457V11.3378H101.777V13.7778H104.177V15.8778H103.557ZM114.397 20.1978C114.41 19.1578 114.944 18.6311 115.997 18.6178H126.957C128.01 18.6311 128.544 19.1578 128.557 20.1978V24.5778H126.157V20.9178C126.157 20.7178 126.057 20.6178 125.857 20.6178H117.077C116.89 20.6178 116.797 20.7178 116.797 20.9178V24.5578H114.397V20.1978ZM128.197 18.2378H125.817L125.197 15.5778H127.577L128.197 18.2378ZM119.637 17.9778H117.317V11.3378H119.637V17.9778ZM115.597 17.6378H113.277V12.0578H115.597V17.6378ZM125.217 12.9778H130.257V14.9778H124.337C123.617 16.2311 122.517 17.4178 121.037 18.5378L120.177 16.1778C121.804 14.7911 122.804 13.1778 123.177 11.3378H125.637C125.544 11.9111 125.404 12.4578 125.217 12.9778ZM122.397 23.8178H123.677V25.8578C123.677 26.2178 123.757 26.4845 123.917 26.6578C124.05 26.8045 124.27 26.9045 124.577 26.9578C125.417 27.1045 126.257 27.1045 127.097 26.9578C127.684 26.8645 127.977 26.4978 127.977 25.8578V24.9978L130.297 25.3178V26.5578C130.297 27.1978 130.084 27.7311 129.657 28.1578C129.27 28.5445 128.764 28.7845 128.137 28.8778C126.577 29.1178 125.01 29.1178 123.437 28.8778C122.81 28.7845 122.304 28.5445 121.917 28.1578C121.49 27.7311 121.277 27.1978 121.277 26.5578V25.5378C119.757 27.1378 116.99 28.4045 112.977 29.3378L112.337 27.1178C117.617 25.9845 120.257 24.3778 120.257 22.2978V21.0778H122.657V22.2978C122.657 22.7911 122.57 23.2978 122.397 23.8178ZM144.397 24.9178C144.224 24.9445 144.124 25.0445 144.097 25.2178V26.7978C144.097 26.8645 144.13 26.9311 144.197 26.9978C144.264 27.0645 144.33 27.0978 144.397 27.0978H147.357C147.45 27.0978 147.524 27.0645 147.577 26.9978C147.63 26.9311 147.657 26.8645 147.657 26.7978V25.2178C147.657 25.1378 147.63 25.0711 147.577 25.0178C147.51 24.9511 147.437 24.9178 147.357 24.9178H144.397ZM135.837 24.9178C135.637 24.9178 135.537 25.0178 135.537 25.2178V26.7978C135.537 26.9978 135.637 27.0978 135.837 27.0978H138.497C138.697 27.0978 138.797 26.9978 138.797 26.7978V25.2178C138.797 25.0178 138.697 24.9178 138.497 24.9178H135.837ZM148.037 11.7978C149.104 11.7978 149.637 12.3311 149.637 13.3978V15.3578C149.637 16.4245 149.104 16.9578 148.037 16.9578H143.777C142.71 16.9578 142.177 16.4245 142.177 15.3578V13.3978C142.177 12.3311 142.71 11.7978 143.777 11.7978H148.037ZM144.557 13.5578C144.357 13.5578 144.257 13.6578 144.257 13.8578V14.9778C144.257 15.1778 144.357 15.2778 144.557 15.2778H147.257C147.457 15.2778 147.557 15.1778 147.557 14.9778V13.8578C147.557 13.6578 147.457 13.5578 147.257 13.5578H144.557ZM139.217 11.7978C139.764 11.7978 140.164 11.9245 140.417 12.1778C140.684 12.4445 140.817 12.8511 140.817 13.3978V15.3578C140.817 15.9045 140.684 16.3111 140.417 16.5778C140.164 16.8311 139.764 16.9578 139.217 16.9578H135.057C133.99 16.9711 133.457 16.4378 133.457 15.3578V13.3978C133.457 12.8511 133.59 12.4445 133.857 12.1778C134.11 11.9245 134.51 11.7978 135.057 11.7978H139.217ZM135.837 13.5578C135.637 13.5578 135.537 13.6578 135.537 13.8578V14.8978C135.537 15.0978 135.637 15.1978 135.837 15.1978H138.437C138.637 15.1978 138.737 15.0978 138.737 14.8978V13.8578C138.737 13.6578 138.637 13.5578 138.437 13.5578H135.837ZM149.357 23.6778C149.624 23.9845 149.757 24.3311 149.757 24.7178V27.2978C149.757 27.6978 149.61 28.0578 149.317 28.3778C149.01 28.7245 148.624 28.8978 148.157 28.8978H143.597C143.13 28.8978 142.744 28.7245 142.437 28.3778C142.144 28.0578 141.997 27.6978 141.997 27.2978V24.7178C141.997 24.3178 142.144 23.9578 142.437 23.6378C142.744 23.2911 143.13 23.1178 143.597 23.1178H146.497C145.297 22.8245 144.297 22.4578 143.497 22.0178C142.737 21.6045 142.017 21.0511 141.337 20.3578C140.324 21.6511 138.704 22.5711 136.477 23.1178H139.297C140.364 23.1178 140.897 23.6511 140.897 24.7178V27.2978C140.897 28.3645 140.364 28.8978 139.297 28.8978H135.037C133.97 28.8978 133.437 28.3645 133.437 27.2978V24.7178C133.437 24.2911 133.53 23.9445 133.717 23.6778C133.397 23.7311 133.077 23.7778 132.757 23.8178L132.397 21.5378C135.104 21.2445 137.05 20.7445 138.237 20.0378H132.837L132.637 18.0378H140.097C140.27 17.6645 140.404 17.2978 140.497 16.9378H143.117C142.93 17.4445 142.79 17.8111 142.697 18.0378H145.317L144.897 17.1778H147.237L147.677 18.0378H150.297V20.0378H144.617C146.07 20.9178 148.084 21.4178 150.657 21.5378L150.357 23.8178C150.024 23.7778 149.69 23.7311 149.357 23.6778Z" fill="white"/>
</svg>
