<svg xmlns="http://www.w3.org/2000/svg" width="160" height="196" viewBox="0 0 160 196" fill="none">
  <path d="M47.6587 124.465C75.3853 71.6894 104.861 33.7623 126.169 12.8878C130.001 9.13384 135.856 13.3816 134.282 18.5098C122.377 57.2977 114.158 118.693 110.483 148.19C110.091 151.344 107.004 153.409 103.935 152.583L54.1688 139.185C47.7873 137.466 44.585 130.316 47.6587 124.465Z" fill="#7EC9FF"/>
  <path d="M92.7865 150.597C92.2348 114.615 95.7853 85.2912 99.5926 65.5419C101.205 57.1775 111.45 55.2247 116.11 62.3558C130.764 84.7834 140.587 107.355 145.607 128.071C146.631 132.298 144.695 136.637 140.991 138.917L108.386 158.982C101.626 163.143 92.9082 158.534 92.7865 150.597Z" fill="#1A93EB"/>
  <path d="M15.6227 149.151C11.7181 145.64 15.201 139.258 20.2662 140.642L146.906 175.25C152.123 176.675 153.381 183.498 149.016 186.691C142.915 191.153 135.528 193.51 127.97 193.404L70.9867 192.608C66.3812 192.543 61.9554 190.811 58.5303 187.731L15.6227 149.151Z" fill="#1B5BBC"/>
</svg>