<svg width="100%" viewBox="0 0 1280 120" fill="none" preserveAspectRatio="none" xmlns="http://www.w3.org/2000/svg">
<mask id="mask0_19121_64169" style="mask-type:alpha" maskUnits="userSpaceOnUse" x="0" y="0" width="1280" height="120">
<rect width="1280" height="120" rx="12" fill="#4047FF"/>
</mask>
<g mask="url(#mask0_19121_64169)">
<rect width="1280" height="120" fill="#11A3FD"/>
<g filter="url(#filter0_f_19121_64169)">
<path d="M-15 231L318 -48L-15 -48L-15 231Z" fill="url(#paint0_linear_19121_64169)"/>
</g>
<g opacity="0.5" filter="url(#filter1_f_19121_64169)">
<path d="M149.5 209L-37 52V209H149.5Z" fill="#F4EDE2"/>
</g>
<g filter="url(#filter2_f_19121_64169)">
<path d="M613.5 -24H1481L1240.5 149L822 184L613.5 -24Z" fill="url(#paint1_linear_19121_64169)"/>
</g>
<g filter="url(#filter3_f_19121_64169)">
<path d="M1344.5 204H799L802.5 160.5C802.5 160.5 825 135 932.5 117C1040 99 1068.5 89.5 1148 75.5C1227.5 61.5 1344.5 -4 1344.5 -4V204Z" fill="#0080D1"/>
</g>
<g opacity="0.6" filter="url(#filter4_f_19121_64169)">
<path d="M467 0H599L806.5 160H467V0Z" fill="#11A3FD"/>
</g>
<g opacity="0.6" filter="url(#filter5_f_19121_64169)">
<path d="M734.5 59.0001C725.827 73.4405 624.36 44.312 594.703 26.5002C565.045 8.68832 586.03 -11.4126 594.703 -25.8531C603.376 -40.2935 626.342 -26.3117 656 -8.4999C685.657 9.31195 743.172 44.5596 734.5 59.0001Z" fill="white"/>
</g>
</g>
<defs>
<filter id="filter0_f_19121_64169" x="-55" y="-88" width="413" height="359" filterUnits="userSpaceOnUse" color-interpolation-filters="sRGB">
<feFlood flood-opacity="0" result="BackgroundImageFix"/>
<feBlend mode="normal" in="SourceGraphic" in2="BackgroundImageFix" result="shape"/>
<feGaussianBlur stdDeviation="20" result="effect1_foregroundBlur_19121_64169"/>
</filter>
<filter id="filter1_f_19121_64169" x="-67" y="22" width="246.5" height="217" filterUnits="userSpaceOnUse" color-interpolation-filters="sRGB">
<feFlood flood-opacity="0" result="BackgroundImageFix"/>
<feBlend mode="normal" in="SourceGraphic" in2="BackgroundImageFix" result="shape"/>
<feGaussianBlur stdDeviation="15" result="effect1_foregroundBlur_19121_64169"/>
</filter>
<filter id="filter2_f_19121_64169" x="563.5" y="-74" width="967.5" height="308" filterUnits="userSpaceOnUse" color-interpolation-filters="sRGB">
<feFlood flood-opacity="0" result="BackgroundImageFix"/>
<feBlend mode="normal" in="SourceGraphic" in2="BackgroundImageFix" result="shape"/>
<feGaussianBlur stdDeviation="25" result="effect1_foregroundBlur_19121_64169"/>
</filter>
<filter id="filter3_f_19121_64169" x="729" y="-74" width="685.5" height="348" filterUnits="userSpaceOnUse" color-interpolation-filters="sRGB">
<feFlood flood-opacity="0" result="BackgroundImageFix"/>
<feBlend mode="normal" in="SourceGraphic" in2="BackgroundImageFix" result="shape"/>
<feGaussianBlur stdDeviation="35" result="effect1_foregroundBlur_19121_64169"/>
</filter>
<filter id="filter4_f_19121_64169" x="447" y="-20" width="379.5" height="200" filterUnits="userSpaceOnUse" color-interpolation-filters="sRGB">
<feFlood flood-opacity="0" result="BackgroundImageFix"/>
<feBlend mode="normal" in="SourceGraphic" in2="BackgroundImageFix" result="shape"/>
<feGaussianBlur stdDeviation="10" result="effect1_foregroundBlur_19121_64169"/>
</filter>
<filter id="filter5_f_19121_64169" x="519.375" y="-91.8452" width="276.005" height="214.735" filterUnits="userSpaceOnUse" color-interpolation-filters="sRGB">
<feFlood flood-opacity="0" result="BackgroundImageFix"/>
<feBlend mode="normal" in="SourceGraphic" in2="BackgroundImageFix" result="shape"/>
<feGaussianBlur stdDeviation="30" result="effect1_foregroundBlur_19121_64169"/>
</filter>
<linearGradient id="paint0_linear_19121_64169" x1="9" y1="-6.5" x2="133.5" y2="120.5" gradientUnits="userSpaceOnUse">
<stop offset="0.0721154" stop-color="#D8EEFB"/>
<stop offset="0.52109" stop-color="#12A3FC"/>
<stop offset="1" stop-color="#D8EEFB"/>
</linearGradient>
<linearGradient id="paint1_linear_19121_64169" x1="1481" y1="109" x2="631" y2="109" gradientUnits="userSpaceOnUse">
<stop offset="0.293269" stop-color="#6EAEDC"/>
<stop offset="0.552885" stop-color="#E665A7"/>
<stop offset="0.865385" stop-color="#F9CDCE"/>
<stop offset="1" stop-color="#CD5ACA"/>
</linearGradient>
</defs>
</svg>
