<svg width="48" height="48" viewBox="0 0 48 48" fill="none" xmlns="http://www.w3.org/2000/svg">
<circle cx="24.0002" cy="24" r="23.3333" fill="white" stroke="white" stroke-width="1.33333"/>
<path d="M20.9757 29.1952V33.0693C20.4283 33.0921 19.1805 33.1375 18.5684 33.1375C17.8032 33.1375 16.1909 33.2515 14.5649 32.0162C12.9388 30.7809 12.0623 28.9007 12.0623 26.8555C12.0623 24.8104 11.8594 22.7239 12.1873 19.114C12.5153 15.5041 14.1088 13.7452 17.1149 13.3197C20.121 12.8942 24.6395 12.9514 29.4996 13.1569C34.4563 13.3666 35.7703 15.8369 35.8983 18.9401C36.0185 21.8535 36.0577 24.5926 35.8744 27.6455C35.682 30.8515 33.3445 33.0693 30.3539 33.0693H26.9937L21.0471 37L21.0071 33.0985L26.9937 29.1952H30.2834C31.8653 29.1952 32.0512 27.3959 32.0859 25.8416C32.1205 24.2874 32.096 20.9924 31.969 19.009C31.842 17.0255 30.4704 17.0049 27.8608 17.0049C25.2512 17.0049 20.8826 16.9686 18.8157 17.0614C16.7489 17.1542 16.3475 17.4269 16.1165 18.9464C15.8856 20.4659 16.0704 26.0447 16.0704 26.8555C16.0704 27.6663 16.3421 29.1952 17.9265 29.1952H20.9757Z" fill="#FF5100"/>
</svg>
