<svg width="16" height="16" viewBox="0 0 16 16" fill="none" xmlns="http://www.w3.org/2000/svg">
<g id="rx_ic_check_fill" clip-path="url(#clip0_25885_1386)">
<path id="Outlined" fill-rule="evenodd" clip-rule="evenodd" d="M0.666504 8.00008C0.666504 3.94999 3.94975 0.666748 7.99984 0.666748C12.0499 0.666748 15.3332 3.94999 15.3332 8.00008C15.3332 12.0501 12.0499 15.3334 7.99984 15.3334C3.94975 15.3334 0.666504 12.0501 0.666504 8.00008ZM11.4712 6.47149C11.7316 6.21114 11.7316 5.78903 11.4712 5.52868C11.2109 5.26833 10.7888 5.26833 10.5284 5.52868L6.99984 9.05727L5.47124 7.52868C5.21089 7.26833 4.78878 7.26833 4.52843 7.52868C4.26808 7.78903 4.26808 8.21114 4.52843 8.47149L6.52843 10.4715C6.78878 10.7318 7.21089 10.7318 7.47124 10.4715L11.4712 6.47149Z" fill="#1CC94D"/>
</g>
<defs>
<clipPath id="clip0_25885_1386">
<rect width="16" height="16" fill="white"/>
</clipPath>
</defs>
</svg>
