<svg width="48" height="48" viewBox="0 0 48 48" fill="none" xmlns="http://www.w3.org/2000/svg">
<path fill-rule="evenodd" clip-rule="evenodd" d="M24.0432 5.67857C22.1887 5.67865 19.8757 5.86016 18.0291 6.03999C15.2522 6.3104 12.9425 8.26054 12.2127 10.9545C11.7297 12.7376 11.1689 14.9761 10.8639 16.7969C10.617 18.2705 10.4375 20.0684 10.3114 21.6685C9.80743 21.698 9.35126 21.7256 8.95444 21.7502C8.42675 21.7828 8.00373 21.81 7.71231 21.829L7.37716 21.8512L7.28986 21.857L7.26737 21.8586L7.26156 21.859C6.32684 21.9229 5.61878 22.7326 5.68272 23.6674C5.74666 24.6021 6.55624 25.308 7.49097 25.2441L7.49775 25.2436L7.51903 25.2422L7.60387 25.2364L7.93375 25.2146C8.22152 25.1958 8.64045 25.1689 9.16368 25.1366C10.2103 25.0719 11.6735 24.9856 13.3387 24.8994C16.6772 24.7265 20.7972 24.5553 24.0002 24.5553C27.2032 24.5553 31.3232 24.7265 34.6618 24.8994C36.3268 24.9856 37.7901 25.0719 38.8367 25.1366C39.36 25.1689 39.7788 25.1958 40.0665 25.2146L40.3966 25.2364L40.4813 25.2422L40.5027 25.2436L40.5079 25.244C41.4424 25.3079 42.2537 24.6021 42.3178 23.6674C42.3815 22.7326 41.6758 21.9231 40.741 21.8591L40.6251 23.5516C40.741 21.8591 40.7413 21.8591 40.741 21.8591L40.7329 21.8586L40.7106 21.857L40.6232 21.8512L40.288 21.829C39.9968 21.81 39.5736 21.7828 39.046 21.7502C38.6719 21.7271 38.2452 21.7012 37.7757 21.6736C37.6495 20.072 37.4698 18.2715 37.2228 16.7962C36.9177 14.9755 36.3569 12.7371 35.874 10.9541C35.1442 8.25991 32.834 6.30969 30.0571 6.03949C28.2104 5.85982 25.8977 5.6785 24.0432 5.67857ZM25.7222 32.2395C26.0283 31.4614 26.4719 30.7595 27.0686 30.1628C28.3774 28.854 30.1917 28.2818 32.2076 28.2818C34.2232 28.2818 36.0374 28.854 37.3463 30.1628C38.6551 31.4715 39.2273 33.2858 39.2273 35.3015C39.2273 37.3174 38.6551 39.1316 37.3463 40.4404C36.0374 41.7493 34.2232 42.3214 32.2076 42.3214C30.1917 42.3214 28.3774 41.7493 27.0686 40.4404C25.8288 39.2005 25.25 37.5071 25.1925 35.6185C24.4204 35.353 23.5759 35.3533 22.8041 35.6196C22.7273 37.4631 22.1472 39.114 20.932 40.3291C19.6233 41.638 17.8089 42.2101 15.7932 42.2101C13.7775 42.2101 11.9631 41.638 10.6544 40.3291C9.34559 39.0203 8.77342 37.2061 8.77342 35.1902C8.77342 33.1746 9.34559 31.3602 10.6544 30.0514C11.9631 28.7427 13.7775 28.1705 15.7932 28.1705C17.8089 28.1705 19.6233 28.7427 20.932 30.0514C21.5546 30.674 22.0105 31.4111 22.3175 32.2297C23.435 31.9559 24.606 31.9592 25.7222 32.2395ZM13.0535 32.4507C12.5523 32.9517 12.1663 33.7991 12.1663 35.1902C12.1663 36.5815 12.5523 37.4289 13.0535 37.93C13.5547 38.431 14.402 38.8173 15.7932 38.8173C17.1844 38.8173 18.0317 38.431 18.5329 37.93C19.0341 37.4289 19.4201 36.5815 19.4201 35.1902C19.4201 33.7991 19.0341 32.9517 18.5329 32.4507C18.0317 31.9494 17.1844 31.5634 15.7932 31.5634C14.402 31.5634 13.5547 31.9494 13.0535 32.4507ZM28.5805 35.3015C28.5805 33.9104 28.9666 33.063 29.4678 32.5619C29.9689 32.0607 30.8163 31.6747 32.2076 31.6747C33.5987 31.6747 34.4461 32.0607 34.9471 32.5619C35.4484 33.063 35.8344 33.9104 35.8344 35.3015C35.8344 36.6928 35.4484 37.5402 34.9471 38.0413C34.4461 38.5426 33.5987 38.9286 32.2076 38.9286C30.8163 38.9286 29.9689 38.5426 29.4678 38.0413C28.9666 37.5402 28.5805 36.6928 28.5805 35.3015Z" fill="url(#paint0_linear_961_31914)"/>
<defs>
<linearGradient id="paint0_linear_961_31914" x1="8.42694" y1="5.67858" x2="64.6841" y2="54.3214" gradientUnits="userSpaceOnUse">
<stop stop-color="#F9B3B4"/>
<stop offset="1" stop-color="#A633FF"/>
</linearGradient>
</defs>
</svg>
