<svg width="48" height="48" viewBox="0 0 48 48" fill="none" xmlns="http://www.w3.org/2000/svg">
<path fill-rule="evenodd" clip-rule="evenodd" d="M22.4027 5.60485C23.4819 4.79843 24.9631 4.79833 26.0421 5.60485L28.5602 7.4869C29.0968 7.88795 29.7508 8.10074 30.4207 8.09173L33.5644 8.04869C34.9115 8.03053 36.1102 8.90143 36.5092 10.1883L37.4398 13.1909C37.6382 13.8309 38.0427 14.3874 38.5901 14.7739L41.1579 16.5869C42.2584 17.364 42.7159 18.7733 42.2822 20.0489L41.2707 23.0249C41.055 23.6593 41.055 24.3475 41.2707 24.9819L42.2822 27.9578C42.7158 29.2333 42.2583 30.642 41.1579 31.4191L38.5901 33.2321C38.0428 33.6186 37.6383 34.1752 37.4398 34.8151L36.5092 37.8178C36.1102 39.1046 34.9115 39.9755 33.5644 39.9573L30.4207 39.915C29.7509 39.906 29.0968 40.1181 28.5602 40.5191L26.0421 42.4012C24.963 43.2078 23.4819 43.2077 22.4027 42.4012L19.8847 40.5191C19.348 40.118 18.6934 39.906 18.0234 39.915L14.8805 39.9573C13.5333 39.9756 12.3347 39.1047 11.9357 37.8178L11.0051 34.8151C10.8066 34.1752 10.4021 33.6186 9.8548 33.2321L7.28702 31.4191C6.18646 30.6421 5.72839 29.2334 6.16195 27.9578L7.17422 24.9819C7.38989 24.3475 7.38984 23.6593 7.17422 23.0249L6.16195 20.0489C5.72828 18.7733 6.18637 17.364 7.28702 16.5869L9.8548 14.7739C10.4022 14.3874 10.8067 13.8309 11.0051 13.1909L11.9357 10.1883C12.3347 8.90141 13.5333 8.03043 14.8805 8.04869L18.0234 8.09173C18.6935 8.10081 19.3479 7.88809 19.8847 7.4869L22.4027 5.60485ZM31.1762 16.6359C30.5176 16.2055 29.6349 16.3907 29.2044 17.0492L22.169 27.8087L19.1299 24.2635C18.6178 23.666 17.7177 23.597 17.1203 24.1091C16.523 24.6213 16.4538 25.5207 16.9659 26.1181L21.2406 31.1052C21.5323 31.4455 21.9673 31.6285 22.4146 31.5995C22.862 31.5705 23.2698 31.3328 23.5152 30.9575L31.5896 18.6085C32.02 17.9498 31.8348 17.0665 31.1762 16.6359Z" fill="url(#paint0_linear_961_31913)"/>
<defs>
<linearGradient id="paint0_linear_961_31913" x1="8.73332" y1="5" x2="66.6811" y2="53.0453" gradientUnits="userSpaceOnUse">
<stop stop-color="#F9B3B4"/>
<stop offset="1" stop-color="#A633FF"/>
</linearGradient>
</defs>
</svg>
