<svg width="40" height="40" viewBox="0 0 40 40" fill="none" xmlns="http://www.w3.org/2000/svg">
<rect width="40" height="40" rx="8" fill="white"/>
<path d="M22.5421 5.49228C20.0817 4.07179 16.9357 4.91477 15.5152 7.37513L5.17236 25.2894C3.75187 27.7498 4.59485 30.8958 7.05521 32.3163C9.51557 33.7368 12.6616 32.8938 14.0821 30.4335L24.4249 12.5192C25.8454 10.0588 25.0024 6.91277 22.5421 5.49228Z" fill="#FCBC03"/>
<path d="M17.3999 5.49228C19.8603 4.07179 23.0063 4.91477 24.4268 7.37513L34.7697 25.2894C36.1901 27.7498 35.3472 30.8958 32.8868 32.3163C30.4264 33.7368 27.2804 32.8938 25.8599 30.4335L15.5171 12.5192C14.0966 10.0588 14.9396 6.91277 17.3999 5.49228Z" fill="#4385F5"/>
<path d="M14.9679 27.8767C14.9679 30.7781 12.6159 33.1302 9.71443 33.1302C6.81301 33.1302 4.46094 30.7781 4.46094 27.8767C4.46094 24.9753 6.81301 22.6232 9.71443 22.6232C12.6159 22.6232 14.9679 24.9753 14.9679 27.8767Z" fill="#34A853"/>
</svg>
