<svg width="61" height="60" viewBox="0 0 61 60" fill="none" xmlns="http://www.w3.org/2000/svg">
<path d="M22.9268 15.0103C23.7263 14.4196 24.8526 14.5887 25.4434 15.3882C26.034 16.1877 25.8649 17.3141 25.0654 17.9048L11.8125 27.6968L11.6592 27.7984C10.8745 28.2636 9.84979 28.0682 9.2959 27.3189C8.70516 26.5193 8.87427 25.3921 9.67383 24.8013L22.9268 15.0103Z" fill="#FF6F47"/>
<path d="M31.3087 11.5738C30.5091 10.9833 29.3817 11.1532 28.7911 11.9527C28.2006 12.7523 28.3705 13.8797 29.17 14.4703L42.1202 24.0367C42.9198 24.6274 44.0471 24.4584 44.6378 23.6588C45.2283 22.8592 45.0584 21.7319 44.2589 21.1412L31.3087 11.5738Z" fill="#FF6F47"/>
<path d="M25.0095 46.5807L24.826 46.5895C23.9181 46.6815 23.2097 47.4484 23.2097 48.3805C23.2097 49.3126 23.9181 50.0795 24.826 50.1716L25.0095 50.1803H41.6453C42.6394 50.1803 43.4451 49.3746 43.4451 48.3805C43.4451 47.3864 42.6394 46.5807 41.6453 46.5807H25.0095Z" fill="#FF6F47"/>
<path d="M14.6407 32.5695C14.3234 31.6276 13.3026 31.121 12.3606 31.438C11.4185 31.7552 10.912 32.776 11.2291 33.7182L16.359 48.9608C16.6761 49.9029 17.697 50.4094 18.6391 50.0923C19.5811 49.7751 20.0876 48.7543 19.7706 47.8122L14.6407 32.5695Z" fill="#FF6F47"/>
<path d="M47.2543 25.8981L47.3237 25.7279C47.7115 24.9019 48.6695 24.4875 49.5489 24.7965C50.4282 25.1054 50.9164 26.0278 50.7024 26.9147L50.6505 27.091L45.3182 42.2676C44.9887 43.2055 43.9615 43.6987 43.0237 43.3693C42.0858 43.0397 41.5926 42.0125 41.922 41.0747L47.2543 25.8981Z" fill="#FF6F47"/>
<path d="M33.6709 12.8519C33.6709 14.7741 32.1126 16.3324 30.1904 16.3324C28.2682 16.3324 26.71 14.7741 26.71 12.8519C26.71 10.9297 28.2682 9.37142 30.1904 9.37142C32.1126 9.37142 33.6709 10.9297 33.6709 12.8519Z" fill="#FF6F47"/>
<path d="M52.46 26.5091C52.46 28.4313 50.9017 29.9896 48.9795 29.9896C47.0573 29.9896 45.499 28.4313 45.499 26.5091C45.499 24.5869 47.0573 23.0286 48.9795 23.0286C50.9017 23.0286 52.46 24.5869 52.46 26.5091Z" fill="#FF6F47"/>
<path d="M45.0413 48.3809C45.0413 50.3031 43.4831 51.8613 41.5609 51.8613C39.6387 51.8613 38.0804 50.3031 38.0804 48.3809C38.0804 46.4586 39.6387 44.9004 41.5609 44.9004C43.4831 44.9004 45.0413 46.4586 45.0413 48.3809Z" fill="#FF6F47"/>
<path d="M21.4574 48.3809C21.4574 50.3031 19.8991 51.8613 17.9769 51.8613C16.0547 51.8613 14.4964 50.3031 14.4964 48.3809C14.4964 46.4586 16.0547 44.9004 17.9769 44.9004C19.8991 44.9004 21.4574 46.4586 21.4574 48.3809Z" fill="#FF6F47"/>
<path d="M14.4489 26.2503C14.4489 28.1725 12.8906 29.7308 10.9684 29.7308C9.04621 29.7308 7.48796 28.1725 7.48796 26.2503C7.48796 24.3281 9.04621 22.7699 10.9684 22.7699C12.8906 22.7699 14.4489 24.3281 14.4489 26.2503Z" fill="#FF6F47"/>
<path d="M21.3783 12.8525C21.3783 7.98731 25.3226 4.04297 30.1878 4.04297C34.2977 4.04319 37.746 6.85621 38.721 10.6592C38.8026 10.9774 38.8666 11.3023 38.9124 11.6328C39.049 12.6174 38.3619 13.5264 37.3773 13.6631C36.3927 13.7996 35.4838 13.1124 35.347 12.1279C35.3199 11.9325 35.2818 11.7402 35.2337 11.5527C34.6569 9.30352 32.614 7.6428 30.1878 7.64258C27.3108 7.64258 24.9779 9.97553 24.9779 12.8525C24.9779 13.6841 25.1721 14.4661 25.516 15.1602L25.6722 15.4521L25.7562 15.6162C26.1305 16.4482 25.8209 17.4449 25.014 17.9111C24.1532 18.4084 23.0522 18.1138 22.555 17.2529C21.8063 15.9566 21.3783 14.4519 21.3783 12.8525Z" fill="#FF6F47"/>
<path d="M54.1878 26.5098C54.1878 23.6328 51.8558 21.2998 48.9788 21.2998C47.1833 21.2998 45.5989 22.2068 44.6595 23.5957L44.5482 23.7432C43.9635 24.4432 42.9324 24.6008 42.1605 24.0791C41.337 23.5222 41.1202 22.4026 41.6771 21.5791L41.8284 21.3623C43.4253 19.1473 46.0329 17.7002 48.9788 17.7002C53.844 17.7002 57.7884 21.6446 57.7884 26.5098C57.7882 29.6479 56.1455 32.4011 53.682 33.959C52.8417 34.4903 51.7299 34.2396 51.1986 33.3994C50.6675 32.5592 50.918 31.4473 51.7581 30.916C53.2221 29.9901 54.1877 28.3621 54.1878 26.5098Z" fill="#FF6F47"/>
<path d="M46.7666 48.3805C46.7664 46.0522 45.2372 44.0762 43.124 43.4108C42.1759 43.1122 41.6497 42.1011 41.9482 41.153C42.247 40.2052 43.2571 39.6789 44.2051 39.9772C47.7743 41.101 50.366 44.4357 50.3662 48.3805C50.3662 53.2457 46.4227 57.1899 41.5576 57.1901C39.4941 57.1901 37.5923 56.4789 36.0908 55.2897L35.7959 55.0456L35.6631 54.9176C35.037 54.2541 35.0027 53.2114 35.6123 52.5065C36.2221 51.8017 37.2591 51.6854 38.0059 52.2096L38.1514 52.3229L38.3262 52.4674C39.2147 53.1714 40.3354 53.5905 41.5576 53.5905C44.4345 53.5903 46.7666 51.2574 46.7666 48.3805Z" fill="#FF6F47"/>
<path d="M9.16471 48.3796C9.16474 46.7488 9.60943 45.2162 10.3854 43.903C10.8911 43.0475 11.9945 42.7638 12.8503 43.2692C13.7061 43.7749 13.9908 44.8792 13.485 45.735C13.0278 46.5088 12.7643 47.4106 12.7643 48.3796C12.7643 51.2566 15.0973 53.5885 17.9743 53.5885C20.8511 53.5883 23.1833 51.2564 23.1833 48.3796C23.1833 47.3855 23.989 46.5798 24.9831 46.5798C25.9771 46.5798 26.7828 47.3855 26.7829 48.3796C26.7829 53.2446 22.8393 57.1889 17.9743 57.1891C13.1091 57.1891 9.16471 53.2448 9.16471 48.3796Z" fill="#FF6F47"/>
<path d="M2.15625 26.251C2.15625 21.3857 6.10059 17.4414 10.9658 17.4414C11.4226 17.4414 11.8724 17.4763 12.3125 17.5439C13.2951 17.695 13.9694 18.6141 13.8184 19.5967C13.6767 20.5177 12.8602 21.1678 11.9492 21.1211L11.7656 21.1025L11.5693 21.0762C11.3719 21.0535 11.1706 21.041 10.9658 21.041C8.08882 21.041 5.75586 23.374 5.75586 26.251C5.75612 29.1278 8.08898 31.46 10.9658 31.46C11.4735 31.4599 11.9612 31.3873 12.4209 31.2539C13.3756 30.9768 14.3742 31.5267 14.6514 32.4814C14.9282 33.4359 14.3792 34.4337 13.4248 34.7109C12.6423 34.9381 11.8166 35.0595 10.9658 35.0596C6.10075 35.0596 2.15651 31.116 2.15625 26.251Z" fill="#FF6F47"/>
<mask id="mask0_22014_40830" style="mask-type:alpha" maskUnits="userSpaceOnUse" x="2" y="4" width="56" height="54">
<path d="M22.9287 15.0103C23.7283 14.4196 24.8546 14.5887 25.4453 15.3882C26.036 16.1877 25.8668 17.3141 25.0674 17.9048L11.8145 27.6968L11.6611 27.7984C10.8764 28.2636 9.85175 28.0682 9.29785 27.3189C8.70712 26.5193 8.87622 25.3921 9.67578 24.8013L22.9287 15.0103Z" fill="#FF6F47"/>
<path d="M31.3106 11.5738C30.5111 10.9833 29.3837 11.1532 28.7931 11.9527C28.2026 12.7523 28.3725 13.8797 29.172 14.4703L42.1222 24.0367C42.9217 24.6274 44.049 24.4584 44.6397 23.6588C45.2303 22.8592 45.0604 21.7319 44.2608 21.1412L31.3106 11.5738Z" fill="#FF6F47"/>
<path d="M25.0115 46.5807L24.8279 46.5895C23.9201 46.6815 23.2117 47.4484 23.2117 48.3805C23.2117 49.3126 23.9201 50.0795 24.8279 50.1716L25.0115 50.1803H41.6472C42.6414 50.1803 43.447 49.3746 43.447 48.3805C43.447 47.3864 42.6414 46.5807 41.6472 46.5807H25.0115Z" fill="#FF6F47"/>
<path d="M14.6426 32.5695C14.3254 31.6276 13.3046 31.121 12.3625 31.438C11.4205 31.7552 10.914 32.776 11.231 33.7182L16.3609 48.9608C16.6781 49.9029 17.6989 50.4094 18.641 50.0923C19.5831 49.7751 20.0896 48.7543 19.7725 47.8122L14.6426 32.5695Z" fill="#FF6F47"/>
<path d="M47.2563 25.8981L47.3257 25.7279C47.7134 24.9019 48.6714 24.4875 49.5508 24.7965C50.4302 25.1054 50.9183 26.0278 50.7044 26.9147L50.6525 27.091L45.3202 42.2676C44.9907 43.2055 43.9635 43.6987 43.0256 43.3693C42.0878 43.0397 41.5945 42.0125 41.924 41.0747L47.2563 25.8981Z" fill="#FF6F47"/>
<path d="M33.6729 12.8519C33.6729 14.7741 32.1146 16.3324 30.1924 16.3324C28.2702 16.3324 26.7119 14.7741 26.7119 12.8519C26.7119 10.9297 28.2702 9.37142 30.1924 9.37142C32.1146 9.37142 33.6729 10.9297 33.6729 12.8519Z" fill="#FF6F47"/>
<path d="M52.4619 26.5091C52.4619 28.4313 50.9037 29.9896 48.9814 29.9896C47.0592 29.9896 45.501 28.4313 45.501 26.5091C45.501 24.5869 47.0592 23.0286 48.9814 23.0286C50.9037 23.0286 52.4619 24.5869 52.4619 26.5091Z" fill="#FF6F47"/>
<path d="M45.0433 48.3809C45.0433 50.3031 43.485 51.8613 41.5628 51.8613C39.6406 51.8613 38.0824 50.3031 38.0824 48.3809C38.0824 46.4586 39.6406 44.9004 41.5628 44.9004C43.485 44.9004 45.0433 46.4586 45.0433 48.3809Z" fill="#FF6F47"/>
<path d="M21.4593 48.3809C21.4593 50.3031 19.9011 51.8613 17.9788 51.8613C16.0566 51.8613 14.4984 50.3031 14.4984 48.3809C14.4984 46.4586 16.0566 44.9004 17.9788 44.9004C19.9011 44.9004 21.4593 46.4586 21.4593 48.3809Z" fill="#FF6F47"/>
<path d="M14.4508 26.2503C14.4508 28.1725 12.8926 29.7308 10.9704 29.7308C9.04817 29.7308 7.48991 28.1725 7.48991 26.2503C7.48991 24.3281 9.04817 22.7699 10.9704 22.7699C12.8926 22.7699 14.4508 24.3281 14.4508 26.2503Z" fill="#FF6F47"/>
<path d="M21.3802 12.8525C21.3802 7.98731 25.3246 4.04297 30.1898 4.04297C34.2996 4.04319 37.7479 6.85621 38.723 10.6592C38.8046 10.9774 38.8685 11.3023 38.9144 11.6328C39.0509 12.6174 38.3638 13.5264 37.3792 13.6631C36.3947 13.7996 35.4857 13.1124 35.349 12.1279C35.3219 11.9325 35.2837 11.7402 35.2357 11.5527C34.6589 9.30352 32.616 7.6428 30.1898 7.64258C27.3128 7.64258 24.9798 9.97553 24.9798 12.8525C24.9799 13.6841 25.1741 14.4661 25.5179 15.1602L25.6742 15.4521L25.7581 15.6162C26.1324 16.4482 25.8229 17.4449 25.016 17.9111C24.1551 18.4084 23.0542 18.1138 22.557 17.2529C21.8082 15.9566 21.3803 14.4519 21.3802 12.8525Z" fill="#FF6F47"/>
<path d="M54.1898 26.5098C54.1898 23.6328 51.8578 21.2998 48.9808 21.2998C47.1853 21.2998 45.6008 22.2068 44.6615 23.5957L44.5501 23.7432C43.9654 24.4432 42.9344 24.6008 42.1624 24.0791C41.3389 23.5222 41.1222 22.4026 41.679 21.5791L41.8304 21.3623C43.4272 19.1473 46.0349 17.7002 48.9808 17.7002C53.846 17.7002 57.7904 21.6446 57.7904 26.5098C57.7902 29.6479 56.1474 32.4011 53.6839 33.959C52.8437 34.4903 51.7318 34.2396 51.2005 33.3994C50.6694 32.5592 50.9199 31.4473 51.7601 30.916C53.224 29.9901 54.1896 28.3621 54.1898 26.5098Z" fill="#FF6F47"/>
<path d="M46.7686 48.3805C46.7684 46.0522 45.2392 44.0762 43.126 43.4108C42.1779 43.1122 41.6517 42.1011 41.9502 41.153C42.2489 40.2052 43.259 39.6789 44.207 39.9772C47.7762 41.101 50.368 44.4357 50.3682 48.3805C50.3682 53.2457 46.4247 57.1899 41.5596 57.1901C39.496 57.1901 37.5942 56.4789 36.0928 55.2897L35.7979 55.0456L35.665 54.9176C35.0389 54.2541 35.0046 53.2114 35.6143 52.5065C36.224 51.8017 37.2611 51.6854 38.0078 52.2096L38.1533 52.3229L38.3281 52.4674C39.2167 53.1714 40.3374 53.5905 41.5596 53.5905C44.4364 53.5903 46.7686 51.2574 46.7686 48.3805Z" fill="#FF6F47"/>
<path d="M9.16667 48.3796C9.16669 46.7488 9.61139 45.2162 10.3874 43.903C10.8931 43.0475 11.9965 42.7638 12.8522 43.2692C13.7081 43.7749 13.9927 44.8792 13.487 45.735C13.0298 46.5088 12.7663 47.4106 12.7663 48.3796C12.7663 51.2566 15.0992 53.5885 17.9762 53.5885C20.853 53.5883 23.1852 51.2564 23.1852 48.3796C23.1853 47.3855 23.991 46.5798 24.985 46.5798C25.9791 46.5798 26.7848 47.3855 26.7848 48.3796C26.7848 53.2446 22.8412 57.1889 17.9762 57.1891C13.111 57.1891 9.16667 53.2448 9.16667 48.3796Z" fill="#FF6F47"/>
<path d="M2.1582 26.251C2.1582 21.3857 6.10254 17.4414 10.9678 17.4414C11.4246 17.4414 11.8744 17.4763 12.3145 17.5439C13.297 17.695 13.9714 18.6141 13.8203 19.5967C13.6786 20.5177 12.8622 21.1678 11.9512 21.1211L11.7676 21.1025L11.5713 21.0762C11.3739 21.0535 11.1725 21.041 10.9678 21.041C8.09077 21.041 5.75781 23.374 5.75781 26.251C5.75808 29.1278 8.09093 31.46 10.9678 31.46C11.4755 31.4599 11.9632 31.3873 12.4229 31.2539C13.3776 30.9768 14.3762 31.5267 14.6533 32.4814C14.9302 33.4359 14.3812 34.4337 13.4268 34.7109C12.6443 34.9381 11.8185 35.0595 10.9678 35.0596C6.10271 35.0596 2.15847 31.116 2.1582 26.251Z" fill="#FF6F47"/>
</mask>
<g mask="url(#mask0_22014_40830)">
<circle cx="41.6182" cy="15.915" r="24.8643" fill="#FF9A7E"/>
</g>
<path d="M18.964 37L22.06 28.756H24.64L27.736 37H25.444L24.952 35.572H21.664L21.172 37H18.964ZM22.18 33.964H24.424L23.836 32.224C23.804 32.136 23.764 32.028 23.716 31.9C23.676 31.764 23.632 31.624 23.584 31.48C23.544 31.328 23.504 31.176 23.464 31.024C23.424 30.872 23.384 30.74 23.344 30.628H23.26C23.228 30.78 23.18 30.952 23.116 31.144C23.06 31.336 23 31.528 22.936 31.72C22.88 31.912 22.828 32.08 22.78 32.224L22.18 33.964ZM28.6852 37V28.756H33.2212C33.7812 28.756 34.2572 28.872 34.6492 29.104C35.0492 29.328 35.3532 29.644 35.5612 30.052C35.7772 30.452 35.8852 30.924 35.8852 31.468C35.8852 32.028 35.7732 32.512 35.5492 32.92C35.3332 33.328 35.0212 33.648 34.6132 33.88C34.2132 34.104 33.7332 34.216 33.1732 34.216H30.8332V37H28.6852ZM30.8332 32.56H32.6692C33.0052 32.56 33.2612 32.468 33.4372 32.284C33.6132 32.092 33.7012 31.828 33.7012 31.492C33.7012 31.252 33.6612 31.056 33.5812 30.904C33.5092 30.752 33.3972 30.636 33.2452 30.556C33.0932 30.468 32.9012 30.424 32.6692 30.424H30.8332V32.56ZM37.0281 37V28.756H39.1761V37H37.0281Z" fill="#FF6F47"/>
</svg>
