<svg width="60" height="60" viewBox="0 0 60 60" fill="none" xmlns="http://www.w3.org/2000/svg">
<path d="M27.5026 35.5469C27.5026 34.1662 28.6219 33.0469 30.0026 33.0469C31.3833 33.0469 32.5026 34.1662 32.5026 35.5469C32.5026 42.6028 38.2191 48.3201 45.2679 48.3203C45.4546 48.3203 45.5486 48.3052 45.9515 48.2829C47.3301 48.2064 48.5101 49.2627 48.5866 50.6413C48.6628 52.0195 47.6079 53.1979 46.2298 53.2747C46.0833 53.2829 45.6361 53.3203 45.2679 53.3203C35.4556 53.3201 27.5026 45.3621 27.5026 35.5469ZM35.1361 35.5469C35.1361 32.7089 32.8368 30.4102 30.0026 30.4102C27.1685 30.4102 24.8691 32.709 24.8691 35.5469C24.8692 42.6286 28.4757 48.8695 33.9609 52.5326L34.498 52.8792L34.708 53.0241C35.7099 53.7998 35.9805 55.2249 35.2956 56.3232C34.5648 57.4944 33.023 57.8513 31.8516 57.1208C24.6648 52.639 19.8692 44.6552 19.8691 35.5469C19.8691 29.9488 24.4059 25.4102 30.0026 25.4102C35.5995 25.4102 40.1361 29.9488 40.1361 35.5469C40.1361 38.3845 42.4368 40.6836 45.2712 40.6836C48.1053 40.6835 50.4046 38.3846 50.4046 35.5469C50.4046 24.2729 41.2702 15.1371 30.0059 15.1367C18.7412 15.1367 9.60547 24.2727 9.60547 35.5469C9.60548 37.8507 9.83126 40.1038 10.2516 42.2917L10.4437 43.2259L10.486 43.4782C10.631 44.737 9.80057 45.9256 8.53613 46.2028C7.27226 46.4796 6.02288 45.7475 5.6276 44.5443L5.55924 44.2969L5.34115 43.2357C4.86312 40.7479 4.60548 38.1787 4.60547 35.5469C4.60547 21.5131 15.978 10.1367 30.0059 10.1367C44.0334 10.1371 55.4046 21.5133 55.4046 35.5469C55.4046 41.1449 50.8678 45.6835 45.2712 45.6836C39.6746 45.6836 35.1361 41.1451 35.1361 35.5469ZM42.763 35.5469C42.763 28.4905 37.0467 22.7734 29.9977 22.7734C22.9487 22.7737 17.2324 28.4907 17.2324 35.5469C17.2325 41.5292 19.1084 47.0643 22.2992 51.6178C23.0912 52.7485 22.8161 54.307 21.6855 55.0993C20.5549 55.8915 18.9965 55.6178 18.2041 54.4873C14.4455 49.1234 12.2325 42.5924 12.2324 35.5469C12.2324 25.7314 20.1852 17.7737 29.9977 17.7734C39.8103 17.7734 47.763 25.7313 47.763 35.5469C47.763 36.9275 46.6437 38.0469 45.263 38.0469C43.8827 38.0465 42.7631 36.9273 42.763 35.5469ZM30.001 2.5C39.2503 2.5 47.534 6.57992 53.1911 13.0062C54.1034 14.0425 54.0028 15.6225 52.9665 16.5348C51.9303 17.4464 50.3517 17.3458 49.4395 16.3102C44.6856 10.9099 37.7456 7.5 30.001 7.5C22.2564 7.50015 15.3181 10.91 10.5641 16.3102C9.65183 17.3463 8.07177 17.4469 7.03548 16.5348C5.99921 15.6226 5.89876 14.0425 6.81087 13.0062C12.468 6.57996 20.7517 2.50015 30.001 2.5Z" fill="#4CD2AE"/>
<mask id="mask0_22014_40798" style="mask-type:alpha" maskUnits="userSpaceOnUse" x="4" y="2" width="52" height="56">
<path d="M27.5026 35.5469C27.5026 34.1662 28.6219 33.0469 30.0026 33.0469C31.3833 33.0469 32.5026 34.1662 32.5026 35.5469C32.5026 42.6028 38.2191 48.3201 45.2679 48.3203C45.4546 48.3203 45.5486 48.3052 45.9515 48.2829C47.3301 48.2064 48.5101 49.2627 48.5866 50.6413C48.6628 52.0195 47.6079 53.1979 46.2298 53.2747C46.0833 53.2829 45.6361 53.3203 45.2679 53.3203C35.4556 53.3201 27.5026 45.3621 27.5026 35.5469ZM35.1361 35.5469C35.1361 32.7089 32.8368 30.4102 30.0026 30.4102C27.1685 30.4102 24.8691 32.709 24.8691 35.5469C24.8692 42.6286 28.4757 48.8695 33.9609 52.5326L34.498 52.8792L34.708 53.0241C35.7099 53.7998 35.9805 55.2249 35.2956 56.3232C34.5648 57.4944 33.023 57.8513 31.8516 57.1208C24.6648 52.639 19.8692 44.6552 19.8691 35.5469C19.8691 29.9488 24.4059 25.4102 30.0026 25.4102C35.5995 25.4102 40.1361 29.9488 40.1361 35.5469C40.1361 38.3845 42.4368 40.6836 45.2712 40.6836C48.1053 40.6835 50.4046 38.3846 50.4046 35.5469C50.4046 24.2729 41.2702 15.1371 30.0059 15.1367C18.7412 15.1367 9.60547 24.2727 9.60547 35.5469C9.60548 37.8507 9.83126 40.1038 10.2516 42.2917L10.4437 43.2259L10.486 43.4782C10.631 44.737 9.80057 45.9256 8.53613 46.2028C7.27226 46.4796 6.02288 45.7475 5.6276 44.5443L5.55924 44.2969L5.34115 43.2357C4.86312 40.7479 4.60548 38.1787 4.60547 35.5469C4.60547 21.5131 15.978 10.1367 30.0059 10.1367C44.0334 10.1371 55.4046 21.5133 55.4046 35.5469C55.4046 41.1449 50.8678 45.6835 45.2712 45.6836C39.6746 45.6836 35.1361 41.1451 35.1361 35.5469ZM42.763 35.5469C42.763 28.4905 37.0467 22.7734 29.9977 22.7734C22.9487 22.7737 17.2324 28.4907 17.2324 35.5469C17.2325 41.5292 19.1084 47.0643 22.2992 51.6178C23.0912 52.7485 22.8161 54.307 21.6855 55.0993C20.5549 55.8915 18.9965 55.6178 18.2041 54.4873C14.4455 49.1234 12.2325 42.5924 12.2324 35.5469C12.2324 25.7314 20.1852 17.7737 29.9977 17.7734C39.8103 17.7734 47.763 25.7313 47.763 35.5469C47.763 36.9275 46.6437 38.0469 45.263 38.0469C43.8827 38.0465 42.7631 36.9273 42.763 35.5469ZM30.001 2.5C39.2503 2.5 47.534 6.57992 53.1911 13.0062C54.1034 14.0425 54.0028 15.6225 52.9665 16.5348C51.9303 17.4464 50.3517 17.3458 49.4395 16.3102C44.6856 10.9099 37.7456 7.5 30.001 7.5C22.2564 7.50015 15.3181 10.91 10.5641 16.3102C9.65183 17.3463 8.07177 17.4469 7.03548 16.5348C5.99921 15.6226 5.89876 14.0425 6.81087 13.0062C12.468 6.57996 20.7517 2.50015 30.001 2.5Z" fill="#4CD2AE"/>
</mask>
<g mask="url(#mask0_22014_40798)">
<circle cx="40" cy="5" r="26" fill="#7FDFC5"/>
</g>
</svg>
