<svg width="1280" height="1280" viewBox="0 0 1280 1280" fill="none" xmlns="http://www.w3.org/2000/svg">
<g clip-path="url(#clip0_22876_42670)" filter="url(#filter0_n_22876_42670)">
<rect width="1280" height="1280" fill="url(#paint0_linear_22876_42670)"/>
<path opacity="0.06" d="M-72 -176C-22.5 -130.167 92.9 -29.2 158.5 8C240.5 54.5 299.5 83 446 62.5C592.5 42 782 -62.5 865.5 -106" stroke="url(#paint1_linear_22876_42670)" stroke-width="10"/>
<path opacity="0.06" d="M-81 -130C-31.5 -84.1667 83.9 16.8 149.5 54C231.5 100.5 290.5 129 437 108.5C583.5 88 773 -16.5 856.5 -60" stroke="url(#paint2_linear_22876_42670)" stroke-width="10"/>
<path opacity="0.06" d="M-78 -84C-28.5 -38.1667 86.9 62.8 152.5 100C234.5 146.5 293.5 175 440 154.5C586.5 134 776 29.5 859.5 -14" stroke="url(#paint3_linear_22876_42670)" stroke-width="10"/>
<path opacity="0.06" d="M-75 -38C-25.5 7.83333 89.9 108.8 155.5 146C237.5 192.5 296.5 221 443 200.5C589.5 180 779 75.5 862.5 32" stroke="url(#paint4_linear_22876_42670)" stroke-width="10"/>
<path d="M921 176C981.5 111 1030.21 8.10756 1028.71 -19.8924C1027.21 -47.8924 988.105 -56.2924 947.706 -47.8924C897.207 -37.3924 802.205 17.1076 674.205 37.1076C546.205 57.1076 467.706 139.108 425.206 187.608C382.706 236.108 379.706 285.108 530.706 298.608C681.706 312.108 854.806 247.117 921 176Z" fill="url(#paint5_linear_22876_42670)"/>
<path opacity="0.06" d="M1275.96 1315.8C1236.05 1261.41 1148.84 1135.29 1119.33 1065.89C1082.44 979.143 1060.83 917.288 1097.83 774.064C1134.84 630.84 1260.18 454.434 1312.88 376.414" stroke="url(#paint6_linear_22876_42670)" stroke-width="10"/>
<path opacity="0.06" d="M1284.39 1242.11C1244.47 1187.73 1157.26 1061.61 1127.75 992.208C1090.87 905.457 1069.25 843.602 1106.26 700.378C1143.26 557.154 1268.6 380.748 1321.31 302.728" stroke="url(#paint7_linear_22876_42670)" stroke-width="10"/>
<path opacity="0.06" d="M1292.81 1168.42C1252.89 1114.04 1165.69 987.919 1136.18 918.519C1099.29 831.769 1077.67 769.914 1114.68 626.69C1151.68 483.466 1277.03 307.059 1329.73 229.039" stroke="url(#paint8_linear_22876_42670)" stroke-width="10"/>
<path opacity="0.06" d="M1301.23 1094.74C1261.32 1040.35 1174.11 914.233 1144.6 844.833C1107.71 758.083 1086.1 696.228 1123.1 553.004C1160.11 409.78 1285.45 233.373 1338.15 155.353" stroke="url(#paint9_linear_22876_42670)" stroke-width="10"/>
<path opacity="0.5" d="M21.028 962.838C-37.5874 1029.54 -135.086 1088.31 -163.095 1089.62C-191.105 1090.93 -203.378 1052.87 -199.065 1011.83C-193.674 960.531 -148.961 860.55 -141.879 731.191C-134.796 601.831 -61.0683 515.516 -17.0677 468.373C26.9329 421.23 75.3863 413.339 103.938 562.228C132.49 711.117 85.1596 889.855 21.028 962.838Z" fill="url(#paint10_linear_22876_42670)"/>
<path opacity="0.06" d="M-257 1348.25C-207.5 1302.42 -92.1 1201.45 -26.5 1164.25C55.5 1117.75 114.5 1089.25 261 1109.75C407.5 1130.25 572.5 1224 680.5 1278.25C788.5 1332.5 905.9 1339 1045.5 1318C1185.1 1297 1282.67 1267 1347.5 1239.5" stroke="url(#paint11_linear_22876_42670)" stroke-width="10"/>
<path opacity="0.06" d="M-194 1348.25C-144.5 1302.42 -29.1 1201.45 36.5 1164.25C118.5 1117.75 177.5 1089.25 324 1109.75C470.5 1130.25 635.5 1224 743.5 1278.25C851.5 1332.5 968.9 1339 1108.5 1318C1248.1 1297 1345.67 1267 1410.5 1239.5" stroke="url(#paint12_linear_22876_42670)" stroke-width="10"/>
<path opacity="0.06" d="M-131 1348.25C-81.5 1302.42 33.9 1201.45 99.5 1164.25C181.5 1117.75 240.5 1089.25 387 1109.75C533.5 1130.25 698.5 1224 806.5 1278.25C914.5 1332.5 1031.9 1339 1171.5 1318C1311.1 1297 1408.67 1267 1473.5 1239.5" stroke="url(#paint13_linear_22876_42670)" stroke-width="10"/>
<path opacity="0.06" d="M-68 1348.25C-18.5 1302.42 96.9 1201.45 162.5 1164.25C244.5 1117.75 303.5 1089.25 450 1109.75C596.5 1130.25 761.5 1224 869.5 1278.25C977.5 1332.5 1094.9 1339 1234.5 1318C1374.1 1297 1471.67 1267 1536.5 1239.5" stroke="url(#paint14_linear_22876_42670)" stroke-width="10"/>
</g>
<defs>
<filter id="filter0_n_22876_42670" x="0" y="0" width="1280" height="1280" filterUnits="userSpaceOnUse" color-interpolation-filters="sRGB">
<feFlood flood-opacity="0" result="BackgroundImageFix"/>
<feBlend mode="normal" in="SourceGraphic" in2="BackgroundImageFix" result="shape"/>
<feTurbulence type="fractalNoise" baseFrequency="2 2" stitchTiles="stitch" numOctaves="3" result="noise" seed="770" />
<feColorMatrix in="noise" type="luminanceToAlpha" result="alphaNoise" />
<feComponentTransfer in="alphaNoise" result="coloredNoise1">
<feFuncA type="discrete" tableValues="1 1 1 1 1 1 1 1 1 1 1 1 1 1 1 1 1 1 1 1 1 1 1 1 1 1 1 1 1 1 1 1 1 1 1 1 1 1 1 1 1 1 1 1 1 1 1 1 1 1 1 0 0 0 0 0 0 0 0 0 0 0 0 0 0 0 0 0 0 0 0 0 0 0 0 0 0 0 0 0 0 0 0 0 0 0 0 0 0 0 0 0 0 0 0 0 0 0 0 0 "/>
</feComponentTransfer>
<feComposite operator="in" in2="shape" in="coloredNoise1" result="noise1Clipped" />
<feFlood flood-color="rgba(255, 255, 255, 0.15)" result="color1Flood" />
<feComposite operator="in" in2="noise1Clipped" in="color1Flood" result="color1" />
<feMerge result="effect1_noise_22876_42670">
<feMergeNode in="shape" />
<feMergeNode in="color1" />
</feMerge>
</filter>
<linearGradient id="paint0_linear_22876_42670" x1="0" y1="640" x2="1280" y2="640" gradientUnits="userSpaceOnUse">
<stop stop-color="#12A3FC"/>
<stop offset="1" stop-color="#45B7FD"/>
</linearGradient>
<linearGradient id="paint1_linear_22876_42670" x1="-72" y1="-53.3756" x2="865.5" y2="-53.3756" gradientUnits="userSpaceOnUse">
<stop stop-color="white"/>
<stop offset="0.86637" stop-color="white" stop-opacity="0"/>
</linearGradient>
<linearGradient id="paint2_linear_22876_42670" x1="-81" y1="-7.37563" x2="856.5" y2="-7.37563" gradientUnits="userSpaceOnUse">
<stop stop-color="white"/>
<stop offset="0.86637" stop-color="white" stop-opacity="0"/>
</linearGradient>
<linearGradient id="paint3_linear_22876_42670" x1="-78" y1="38.6244" x2="859.5" y2="38.6244" gradientUnits="userSpaceOnUse">
<stop stop-color="white"/>
<stop offset="0.86637" stop-color="white" stop-opacity="0"/>
</linearGradient>
<linearGradient id="paint4_linear_22876_42670" x1="-75" y1="84.6244" x2="862.5" y2="84.6244" gradientUnits="userSpaceOnUse">
<stop stop-color="white"/>
<stop offset="0.86637" stop-color="white" stop-opacity="0"/>
</linearGradient>
<linearGradient id="paint5_linear_22876_42670" x1="690.5" y1="50" x2="817.5" y2="238" gradientUnits="userSpaceOnUse">
<stop stop-color="#54BDFC" stop-opacity="0"/>
<stop offset="1" stop-color="#54BDFC"/>
</linearGradient>
<linearGradient id="paint6_linear_22876_42670" x1="1154.13" y1="1301.87" x2="1260.6" y2="370.438" gradientUnits="userSpaceOnUse">
<stop stop-color="white"/>
<stop offset="0.86637" stop-color="white" stop-opacity="0"/>
</linearGradient>
<linearGradient id="paint7_linear_22876_42670" x1="1162.56" y1="1228.19" x2="1269.02" y2="296.752" gradientUnits="userSpaceOnUse">
<stop stop-color="white"/>
<stop offset="0.86637" stop-color="white" stop-opacity="0"/>
</linearGradient>
<linearGradient id="paint8_linear_22876_42670" x1="1170.98" y1="1154.5" x2="1277.44" y2="223.063" gradientUnits="userSpaceOnUse">
<stop stop-color="white"/>
<stop offset="0.86637" stop-color="white" stop-opacity="0"/>
</linearGradient>
<linearGradient id="paint9_linear_22876_42670" x1="1179.4" y1="1080.81" x2="1285.87" y2="149.377" gradientUnits="userSpaceOnUse">
<stop stop-color="white"/>
<stop offset="0.86637" stop-color="white" stop-opacity="0"/>
</linearGradient>
<linearGradient id="paint10_linear_22876_42670" x1="-127.419" y1="746.113" x2="72.3527" y2="853.65" gradientUnits="userSpaceOnUse">
<stop stop-color="#54BDFC" stop-opacity="0"/>
<stop offset="1" stop-color="#54BDFC"/>
</linearGradient>
<linearGradient id="paint11_linear_22876_42670" x1="-257" y1="1225.62" x2="680.5" y2="1225.62" gradientUnits="userSpaceOnUse">
<stop stop-color="white"/>
<stop offset="0.86637" stop-color="white" stop-opacity="0.2"/>
</linearGradient>
<linearGradient id="paint12_linear_22876_42670" x1="-194" y1="1225.62" x2="743.5" y2="1225.62" gradientUnits="userSpaceOnUse">
<stop stop-color="white"/>
<stop offset="0.86637" stop-color="white" stop-opacity="0.2"/>
</linearGradient>
<linearGradient id="paint13_linear_22876_42670" x1="-131" y1="1225.62" x2="806.5" y2="1225.62" gradientUnits="userSpaceOnUse">
<stop stop-color="white"/>
<stop offset="0.86637" stop-color="white" stop-opacity="0.2"/>
</linearGradient>
<linearGradient id="paint14_linear_22876_42670" x1="-68" y1="1225.62" x2="869.5" y2="1225.62" gradientUnits="userSpaceOnUse">
<stop stop-color="white"/>
<stop offset="0.86637" stop-color="white" stop-opacity="0.2"/>
</linearGradient>
<clipPath id="clip0_22876_42670">
<rect width="1280" height="1280" fill="white"/>
</clipPath>
</defs>
</svg>
