<svg width="61" height="60" viewBox="0 0 61 60" fill="none" xmlns="http://www.w3.org/2000/svg">
<path d="M13.166 52.5V37.5M13.166 37.5C15.9274 37.5 18.166 35.2615 18.166 32.5C18.166 29.7385 15.9274 27.5 13.166 27.5C10.4046 27.5 8.16602 29.7385 8.16602 32.5C8.16602 35.2615 10.4046 37.5 13.166 37.5ZM13.166 17.5V7.5M30.666 52.5V37.5M30.666 17.5V7.5M30.666 17.5C27.9045 17.5 25.666 19.7386 25.666 22.5C25.666 25.2615 27.9045 27.5 30.666 27.5C33.4275 27.5 35.666 25.2615 35.666 22.5C35.666 19.7386 33.4275 17.5 30.666 17.5ZM48.166 52.5V42.5M48.166 42.5C50.9275 42.5 53.166 40.2615 53.166 37.5C53.166 34.7385 50.9275 32.5 48.166 32.5C45.4045 32.5 43.166 34.7385 43.166 37.5C43.166 40.2615 45.4045 42.5 48.166 42.5ZM48.166 22.5V7.5" stroke="#079CEE" stroke-width="5" stroke-linecap="round" stroke-linejoin="round"/>
<mask id="mask0_22014_40814" style="mask-type:alpha" maskUnits="userSpaceOnUse" x="5" y="5" width="51" height="50">
<path d="M15.666 32.5C15.666 31.1192 14.5468 30 13.166 30C11.7853 30 10.666 31.1192 10.666 32.5C10.666 33.8808 11.7853 35 13.166 35C14.5468 35 15.666 33.8808 15.666 32.5ZM28.166 52.5V37.5C28.166 36.1193 29.2853 35 30.666 35C32.0467 35 33.166 36.1193 33.166 37.5V52.5C33.166 53.8807 32.0467 55 30.666 55C29.2853 55 28.166 53.8807 28.166 52.5ZM50.666 37.5C50.666 36.1192 49.5468 35 48.166 35C46.7852 35 45.666 36.1192 45.666 37.5C45.666 38.8808 46.7852 40 48.166 40C49.5468 40 50.666 38.8808 50.666 37.5ZM33.166 22.5C33.166 21.1193 32.0468 20 30.666 20C29.2853 20 28.166 21.1193 28.166 22.5C28.166 23.8808 29.2852 25 30.666 25C32.0468 25 33.166 23.8808 33.166 22.5ZM45.666 22.5V7.5C45.666 6.11929 46.7853 5 48.166 5C49.5467 5 50.666 6.11929 50.666 7.5V22.5C50.666 23.8807 49.5467 25 48.166 25C46.7853 25 45.666 23.8807 45.666 22.5ZM10.666 17.5V7.5C10.666 6.11929 11.7853 5 13.166 5C14.5467 5 15.666 6.11929 15.666 7.5V17.5C15.666 18.8807 14.5467 20 13.166 20C11.7853 20 10.666 18.8807 10.666 17.5ZM55.666 37.5C55.666 40.7653 53.5785 43.5405 50.666 44.5703V52.5C50.666 53.8807 49.5467 55 48.166 55C46.7853 55 45.666 53.8807 45.666 52.5V44.5703C42.7535 43.5405 40.666 40.7653 40.666 37.5C40.666 33.3578 44.0238 30 48.166 30C52.3082 30 55.666 33.3578 55.666 37.5ZM20.666 32.5C20.666 35.7653 18.5785 38.5405 15.666 39.5703V52.5C15.666 53.8807 14.5467 55 13.166 55C11.7853 55 10.666 53.8807 10.666 52.5V39.5703C7.75353 38.5405 5.66602 35.7653 5.66602 32.5C5.66602 28.3578 9.0239 25 13.166 25C17.3081 25 20.666 28.3578 20.666 32.5ZM38.166 22.5C38.166 26.6422 34.8082 30 30.666 30C26.5238 30 23.166 26.6422 23.166 22.5C23.166 19.2346 25.2532 16.4578 28.166 15.4281V7.5C28.166 6.11929 29.2853 5 30.666 5C32.0467 5 33.166 6.11929 33.166 7.5V15.4281C36.0788 16.4578 38.166 19.2346 38.166 22.5Z" fill="#079CEE"/>
</mask>
<g mask="url(#mask0_22014_40814)">
<circle cx="9.83203" cy="54.167" r="42.5" fill="#51B9F3"/>
<circle cx="8.16667" cy="52.4997" r="29.1667" fill="#83CDF6"/>
</g>
</svg>
