<svg width="61" height="60" viewBox="0 0 61 60" fill="none" xmlns="http://www.w3.org/2000/svg">
<path d="M49.6782 17.754C49.6782 15.4603 49.6295 15.07 49.513 14.787C49.3837 14.4732 49.177 14.1705 48.8928 13.9092L48.7661 13.8001C48.4496 13.5424 47.9636 13.3317 45.6692 12.5368L30.6962 7.34981C30.3872 7.24277 30.2259 7.18798 30.105 7.15138C30.0052 7.12117 30.006 7.12633 30.0458 7.13165H29.9503C29.9901 7.12633 29.9908 7.12117 29.891 7.15138C29.7702 7.18798 29.6089 7.24277 29.2999 7.34981L14.3269 12.5368C12.0326 13.3317 11.5466 13.5423 11.23 13.8001C10.8801 14.085 10.6309 14.4274 10.4831 14.786C10.3664 15.0691 10.3179 15.4596 10.3179 17.754V30.0904C10.3179 35.3513 13.4422 40.1681 17.6574 44.2251C21.8262 48.2372 26.6864 51.1396 29.3103 52.5537C29.4694 52.6394 29.5868 52.7023 29.6885 52.7552C29.7883 52.8071 29.8502 52.8365 29.891 52.8549C29.9053 52.8613 29.916 52.8654 29.9232 52.8684C29.9425 52.8698 29.9683 52.8715 29.998 52.8715C30.0273 52.8715 30.0527 52.8698 30.0718 52.8684C30.0791 52.8655 30.0902 52.8616 30.105 52.8549C30.1459 52.8365 30.2077 52.8071 30.3076 52.7552C30.4093 52.7023 30.5257 52.6394 30.6847 52.5537C33.3086 51.1396 38.1688 48.2372 42.3376 44.2251C46.5531 40.168 49.6782 35.3514 49.6782 30.0904V17.754ZM30.986 16.5281C32.0649 15.5318 33.747 15.599 34.7435 16.6777C35.7402 17.7566 35.6738 19.4386 34.595 20.4353L29.1389 25.4748L36.6976 28.9664C37.5038 29.3387 38.0718 30.089 38.2102 30.9662C38.3486 31.8432 38.0396 32.7312 37.3874 33.3337L29.0101 41.0732C27.9313 42.0698 26.2492 42.0033 25.2525 40.9247C24.2559 39.8458 24.3222 38.1628 25.4011 37.1661L30.8561 32.1266L23.2984 28.636C22.4923 28.2637 21.9244 27.5133 21.7859 26.6362C21.6474 25.7591 21.9564 24.8702 22.6086 24.2676L30.986 16.5281ZM54.9971 30.0904C54.9971 37.4916 50.6463 43.6113 46.0266 48.0575C41.9435 51.9872 37.3482 54.905 34.3768 56.5896L33.2092 57.2358C32.7348 57.4915 32.165 57.8171 31.4275 58.0139L31.1003 58.0897C30.5053 58.2075 29.7841 58.2218 29.1576 58.1334L28.8958 58.0897C28.2214 57.9561 27.6775 57.7069 27.2191 57.4675L26.7869 57.2358C23.971 55.7183 18.6359 52.5485 13.9695 48.0575C9.34978 43.6113 4.99895 37.4916 4.99895 30.0904V17.754C4.99895 15.9233 4.95045 14.2499 5.56409 12.7602C6.06144 11.5527 6.86054 10.4978 7.87139 9.67477C9.09525 8.67839 10.6996 8.16427 12.5857 7.51083L27.5588 2.32381C28.04 2.15712 28.6214 1.9429 29.2469 1.85944L29.622 1.82204C29.9977 1.79711 30.3755 1.80955 30.7491 1.85944L30.9818 1.89684C31.5186 1.99609 32.0163 2.17799 32.4373 2.32381L47.4103 7.51083C49.2964 8.16423 50.9009 8.67831 52.1247 9.67477C53.1356 10.4978 53.9347 11.5528 54.432 12.7602C55.0459 14.2501 54.9971 15.9234 54.9971 17.754V30.0904Z" fill="url(#paint0_radial_22014_40878)"/>
<path d="M31.9472 54.8943C37.3869 51.9628 52.3377 42.7532 52.3377 30.0909V17.7536C52.3377 15.6911 52.3377 14.6598 51.9724 13.7733C51.6499 12.9902 51.1257 12.2915 50.4452 11.7375C49.6751 11.1104 48.6297 10.7482 46.5394 10.0241L31.5655 4.83665C30.9859 4.63584 30.6959 4.5354 30.3974 4.49558C30.1326 4.46021 29.8634 4.46021 29.5987 4.49558C29.3002 4.5354 29.0102 4.63584 28.4305 4.83665L13.4564 10.0242C11.3662 10.7483 10.321 11.1104 9.55076 11.7375C8.8703 12.2915 8.34613 12.9902 8.02357 13.7733C7.65843 14.6598 7.65843 15.6911 7.65843 17.7536V30.0909C7.65843 42.7532 22.6091 51.9628 28.0489 54.8943C28.6672 55.2276 28.9763 55.3943 29.4125 55.4807C29.7512 55.5478 30.2449 55.5478 30.5836 55.4807C31.0198 55.3943 31.3289 55.2276 31.9472 54.8943Z" fill="url(#paint1_radial_22014_40878)"/>
<mask id="mask0_22014_40878" style="mask-type:alpha" maskUnits="userSpaceOnUse" x="4" y="1" width="51" height="58">
<path d="M49.6782 17.754C49.6782 15.4603 49.6295 15.07 49.513 14.787C49.3837 14.4732 49.177 14.1705 48.8928 13.9092L48.7661 13.8001C48.4496 13.5424 47.9636 13.3317 45.6692 12.5368L30.6962 7.34981C30.3872 7.24277 30.2259 7.18798 30.105 7.15138C30.0052 7.12117 30.006 7.12633 30.0458 7.13165H29.9503C29.9901 7.12633 29.9908 7.12117 29.891 7.15138C29.7702 7.18798 29.6089 7.24277 29.2999 7.34981L14.3269 12.5368C12.0326 13.3317 11.5466 13.5423 11.23 13.8001C10.8801 14.085 10.6309 14.4274 10.4831 14.786C10.3664 15.0691 10.3179 15.4596 10.3179 17.754V30.0904C10.3179 35.3513 13.4422 40.1681 17.6574 44.2251C21.8262 48.2372 26.6864 51.1396 29.3103 52.5537C29.4694 52.6394 29.5868 52.7023 29.6885 52.7552C29.7883 52.8071 29.8502 52.8365 29.891 52.8549C29.9053 52.8613 29.916 52.8654 29.9232 52.8684C29.9425 52.8698 29.9683 52.8715 29.998 52.8715C30.0273 52.8715 30.0527 52.8698 30.0718 52.8684C30.0791 52.8655 30.0902 52.8616 30.105 52.8549C30.1459 52.8365 30.2077 52.8071 30.3076 52.7552C30.4093 52.7023 30.5257 52.6394 30.6847 52.5537C33.3086 51.1396 38.1688 48.2372 42.3376 44.2251C46.5531 40.168 49.6782 35.3514 49.6782 30.0904V17.754ZM30.986 16.5281C32.0649 15.5318 33.747 15.599 34.7435 16.6777C35.7402 17.7566 35.6738 19.4386 34.595 20.4353L29.1389 25.4748L36.6976 28.9664C37.5038 29.3387 38.0718 30.089 38.2102 30.9662C38.3486 31.8432 38.0396 32.7312 37.3874 33.3337L29.0101 41.0732C27.9313 42.0698 26.2492 42.0033 25.2525 40.9247C24.2559 39.8458 24.3222 38.1628 25.4011 37.1661L30.8561 32.1266L23.2984 28.636C22.4923 28.2637 21.9244 27.5133 21.7859 26.6362C21.6474 25.7591 21.9564 24.8702 22.6086 24.2676L30.986 16.5281ZM54.9971 30.0904C54.9971 37.4916 50.6463 43.6113 46.0266 48.0575C41.9435 51.9872 37.3482 54.905 34.3768 56.5896L33.2092 57.2358C32.7348 57.4915 32.165 57.8171 31.4275 58.0139L31.1003 58.0897C30.5053 58.2075 29.7841 58.2218 29.1576 58.1334L28.8958 58.0897C28.2214 57.9561 27.6775 57.7069 27.2191 57.4675L26.7869 57.2358C23.971 55.7183 18.6359 52.5485 13.9695 48.0575C9.34978 43.6113 4.99895 37.4916 4.99895 30.0904V17.754C4.99895 15.9233 4.95045 14.2499 5.56409 12.7602C6.06144 11.5527 6.86054 10.4978 7.87139 9.67477C9.09525 8.67839 10.6996 8.16427 12.5857 7.51083L27.5588 2.32381C28.04 2.15712 28.6214 1.9429 29.2469 1.85944L29.622 1.82204C29.9977 1.79711 30.3755 1.80955 30.7491 1.85944L30.9818 1.89684C31.5186 1.99609 32.0163 2.17799 32.4373 2.32381L47.4103 7.51083C49.2964 8.16423 50.9009 8.67831 52.1247 9.67477C53.1356 10.4978 53.9347 11.5528 54.432 12.7602C55.0459 14.2501 54.9971 15.9234 54.9971 17.754V30.0904Z" fill="#1BAAF8"/>
<path d="M31.9472 54.8943C37.3869 51.9628 52.3377 42.7532 52.3377 30.0909V17.7536C52.3377 15.6911 52.3377 14.6598 51.9724 13.7733C51.6499 12.9902 51.1257 12.2915 50.4452 11.7375C49.6751 11.1104 48.6297 10.7482 46.5394 10.0241L31.5655 4.83665C30.9859 4.63584 30.6959 4.5354 30.3974 4.49558C30.1326 4.46021 29.8634 4.46021 29.5987 4.49558C29.3002 4.5354 29.0102 4.63584 28.4305 4.83665L13.4564 10.0242C11.3662 10.7483 10.321 11.1104 9.55076 11.7375C8.8703 12.2915 8.34613 12.9902 8.02357 13.7733C7.65843 14.6598 7.65843 15.6911 7.65843 17.7536V30.0909C7.65843 42.7532 22.6091 51.9628 28.0489 54.8943C28.6672 55.2276 28.9763 55.3943 29.4125 55.4807C29.7512 55.5478 30.2449 55.5478 30.5836 55.4807C31.0198 55.3943 31.3289 55.2276 31.9472 54.8943Z" fill="#1BAAF8"/>
</mask>
<g mask="url(#mask0_22014_40878)">
<circle cx="49.1475" cy="6.59673" r="26.5948" fill="#67C7FC"/>
</g>
<path d="M30.9885 16.5284C32.0673 15.5317 33.7494 15.5982 34.7461 16.6769C35.7427 17.7557 35.6763 19.4378 34.5975 20.4345L29.1414 25.474L36.7002 28.9656C37.5063 29.3379 38.0743 30.0882 38.2127 30.9654C38.3512 31.8425 38.0422 32.7314 37.39 33.334L29.0126 41.0724C27.9338 42.069 26.2518 42.0025 25.2551 40.9239C24.2584 39.845 24.3247 38.162 25.4036 37.1653L30.8587 32.1258L23.301 28.6352C22.4948 28.2628 21.9269 27.5125 21.7884 26.6354C21.6499 25.7583 21.9589 24.8694 22.6112 24.2668L30.9885 16.5284Z" fill="white"/>
<defs>
<radialGradient id="paint0_radial_22014_40878" cx="0" cy="0" r="1" gradientUnits="userSpaceOnUse" gradientTransform="translate(29.998 30) rotate(90) scale(28.1904 25)">
<stop stop-color="#1BAAF8"/>
<stop offset="1" stop-color="#62C4F9"/>
</radialGradient>
<radialGradient id="paint1_radial_22014_40878" cx="0" cy="0" r="1" gradientUnits="userSpaceOnUse" gradientTransform="translate(29.998 30) rotate(90) scale(28.1904 25)">
<stop stop-color="#1BAAF8"/>
<stop offset="1" stop-color="#62C4F9"/>
</radialGradient>
</defs>
</svg>
