<svg width="60" height="60" viewBox="0 0 60 60" fill="none" xmlns="http://www.w3.org/2000/svg">
<path fill-rule="evenodd" clip-rule="evenodd" d="M49.1334 7.89726C49.2775 7.90457 49.4199 7.91873 49.56 7.93973C49.5875 7.94386 49.6147 7.94925 49.6421 7.95389C49.753 7.9727 49.8626 7.9948 49.9705 8.02184L49.9969 8.02844C50.0378 8.03897 50.0783 8.05075 50.1187 8.06242C50.1385 8.06814 50.1584 8.07341 50.1781 8.07941C50.2076 8.08837 50.2367 8.09815 50.2659 8.10772C50.3724 8.14266 50.4774 8.18102 50.5801 8.2238C50.6132 8.23756 50.6457 8.25266 50.6783 8.26721C50.7076 8.28029 50.7371 8.29314 50.7661 8.30685C50.8075 8.32641 50.8481 8.34737 50.8887 8.36819C50.9083 8.3782 50.9279 8.38809 50.9473 8.39839C50.9749 8.41307 51.0021 8.42843 51.0294 8.44369C51.1273 8.49848 51.2232 8.55632 51.3163 8.61828C51.3389 8.63333 51.361 8.64907 51.3833 8.66452C51.4146 8.68626 51.4459 8.70805 51.4767 8.73059C51.5111 8.75581 51.545 8.78177 51.5786 8.80797C51.5954 8.82105 51.612 8.83429 51.6286 8.84761C51.6621 8.87447 51.6951 8.90189 51.7277 8.92971C51.7512 8.94968 51.7746 8.96966 51.7976 8.99011C51.821 9.01099 51.8444 9.03197 51.8674 9.05334C51.8997 9.08333 51.9314 9.11395 51.9627 9.14489C51.9767 9.15864 51.9905 9.17248 52.0042 9.18641C52.0382 9.22078 52.0715 9.25569 52.1043 9.29117C52.1199 9.30802 52.1352 9.32503 52.1505 9.34213C52.18 9.37503 52.2089 9.40837 52.2374 9.44216C52.254 9.46198 52.271 9.48151 52.2874 9.50162C52.3121 9.53205 52.3361 9.563 52.36 9.59411C52.3808 9.6212 52.4012 9.64862 52.4214 9.67621C52.442 9.70446 52.4618 9.73334 52.4818 9.76209C52.4986 9.78624 52.5155 9.81026 52.5318 9.83476C52.5551 9.86984 52.5774 9.90561 52.5997 9.9414C52.6141 9.96442 52.6292 9.98699 52.6432 10.0103C52.6657 10.0479 52.6869 10.0862 52.7083 10.1245C52.7202 10.1459 52.7326 10.1671 52.7441 10.1887C52.7635 10.2248 52.7824 10.2613 52.8008 10.2981C52.8144 10.3254 52.8283 10.3526 52.8413 10.3802C52.8558 10.4108 52.8691 10.4418 52.8829 10.4727C52.8987 10.5084 52.9142 10.5442 52.9291 10.5803C52.9423 10.6121 52.9544 10.6444 52.9669 10.6766C52.9774 10.7039 52.988 10.7311 52.998 10.7587C53.0121 10.7975 53.0256 10.8364 53.0386 10.8757C53.0491 10.9074 53.06 10.939 53.0697 10.971C53.0792 11.0019 53.0874 11.0332 53.0962 11.0645C53.1057 11.0984 53.1158 11.1321 53.1245 11.1664C53.1516 11.2733 53.1733 11.382 53.1924 11.492C53.1982 11.5256 53.2053 11.5591 53.2103 11.5929C53.2419 11.8042 53.2585 12.0203 53.2585 12.2404V40.4695L48.9097 38.1894V17.5555H8.3214V47.0303H41.2126L42.5971 51.3791H8.3214C5.99467 51.3791 4.09473 49.5518 3.97832 47.254L3.97266 47.0303V12.2404C3.97266 9.8386 5.91966 7.8916 8.3214 7.8916H48.9097L49.1334 7.89726ZM9.77099 10.7908C8.70354 10.7908 7.83821 11.6561 7.83821 12.7235C7.83821 13.791 8.70354 14.6563 9.77099 14.6563C10.8384 14.6563 11.7038 13.791 11.7038 12.7235C11.7038 11.6561 10.8384 10.7908 9.77099 10.7908ZM15.5693 10.7908C14.5019 10.7908 13.6365 11.6561 13.6365 12.7235C13.6365 13.791 14.5019 14.6563 15.5693 14.6563C16.6368 14.6563 17.5021 13.791 17.5021 12.7235C17.5021 11.6561 16.6368 10.7908 15.5693 10.7908Z" fill="#9A59C5"/>
<path d="M48.9645 51.3772L48.9097 51.3791H44.7195L46.758 48.7498L48.9645 51.3772Z" fill="#9A59C5"/>
<path d="M43.7588 50.2523L46.2569 47.0303H46.2588L43.7588 50.2523Z" fill="#9A59C5"/>
<path d="M53.2585 47.0303L53.2566 47.0926L51.387 44.8663L53.2585 43.8792V47.0303Z" fill="#9A59C5"/>
<rect x="7.83789" y="17.5557" width="41.5547" height="29.958" fill="#DECAEC"/>
<mask id="mask0_22014_40846" style="mask-type:alpha" maskUnits="userSpaceOnUse" x="3" y="7" width="51" height="45">
<path fill-rule="evenodd" clip-rule="evenodd" d="M49.1334 7.89726C49.2775 7.90457 49.4199 7.91873 49.56 7.93973C49.5875 7.94386 49.6147 7.94925 49.6421 7.95389C49.753 7.9727 49.8626 7.9948 49.9705 8.02184L49.9969 8.02844C50.0378 8.03897 50.0783 8.05075 50.1187 8.06242C50.1385 8.06814 50.1584 8.07341 50.1781 8.07941C50.2076 8.08837 50.2367 8.09815 50.2659 8.10772C50.3724 8.14266 50.4774 8.18102 50.5801 8.2238C50.6132 8.23756 50.6457 8.25266 50.6783 8.26721C50.7076 8.28029 50.7371 8.29314 50.7661 8.30685C50.8075 8.32641 50.8481 8.34737 50.8887 8.36819C50.9083 8.3782 50.9279 8.38809 50.9473 8.39839C50.9749 8.41307 51.0021 8.42843 51.0294 8.44369C51.1273 8.49848 51.2232 8.55632 51.3163 8.61828C51.3389 8.63333 51.361 8.64907 51.3833 8.66452C51.4146 8.68626 51.4459 8.70805 51.4767 8.73059C51.5111 8.75581 51.545 8.78177 51.5786 8.80797C51.5954 8.82105 51.612 8.83429 51.6286 8.84761C51.6621 8.87447 51.6951 8.90189 51.7277 8.92971C51.7512 8.94968 51.7746 8.96966 51.7976 8.99011C51.821 9.01099 51.8444 9.03197 51.8674 9.05334C51.8997 9.08333 51.9314 9.11395 51.9627 9.14489C51.9767 9.15864 51.9905 9.17248 52.0042 9.18641C52.0382 9.22078 52.0715 9.25569 52.1043 9.29117C52.1199 9.30802 52.1352 9.32503 52.1505 9.34213C52.18 9.37503 52.2089 9.40837 52.2374 9.44216C52.254 9.46198 52.271 9.48151 52.2874 9.50162C52.3121 9.53205 52.3361 9.563 52.36 9.59411C52.3808 9.6212 52.4012 9.64862 52.4214 9.67621C52.442 9.70446 52.4618 9.73334 52.4818 9.76209C52.4986 9.78624 52.5155 9.81026 52.5318 9.83476C52.5551 9.86984 52.5774 9.90561 52.5997 9.9414C52.6141 9.96442 52.6292 9.98699 52.6432 10.0103C52.6657 10.0479 52.6869 10.0862 52.7083 10.1245C52.7202 10.1459 52.7326 10.1671 52.7441 10.1887C52.7635 10.2248 52.7824 10.2613 52.8008 10.2981C52.8144 10.3254 52.8283 10.3526 52.8413 10.3802C52.8558 10.4108 52.8691 10.4418 52.8829 10.4727C52.8987 10.5084 52.9142 10.5442 52.9291 10.5803C52.9423 10.6121 52.9544 10.6444 52.9669 10.6766C52.9774 10.7039 52.988 10.7311 52.998 10.7587C53.0121 10.7975 53.0256 10.8364 53.0386 10.8757C53.0491 10.9074 53.06 10.939 53.0697 10.971C53.0792 11.0019 53.0874 11.0332 53.0962 11.0645C53.1057 11.0984 53.1158 11.1321 53.1245 11.1664C53.1516 11.2733 53.1733 11.382 53.1924 11.492C53.1982 11.5256 53.2053 11.5591 53.2103 11.5929C53.2419 11.8042 53.2585 12.0203 53.2585 12.2404V40.4695L48.9097 38.1894V17.5555H8.3214V47.0303H41.2126L42.5971 51.3791H8.3214C5.99467 51.3791 4.09473 49.5518 3.97832 47.254L3.97266 47.0303V12.2404C3.97266 9.8386 5.91966 7.8916 8.3214 7.8916H48.9097L49.1334 7.89726ZM9.77099 10.7908C8.70354 10.7908 7.83821 11.6561 7.83821 12.7235C7.83821 13.791 8.70354 14.6563 9.77099 14.6563C10.8384 14.6563 11.7038 13.791 11.7038 12.7235C11.7038 11.6561 10.8384 10.7908 9.77099 10.7908ZM15.5693 10.7908C14.5019 10.7908 13.6365 11.6561 13.6365 12.7235C13.6365 13.791 14.5019 14.6563 15.5693 14.6563C16.6368 14.6563 17.5021 13.791 17.5021 12.7235C17.5021 11.6561 16.6368 10.7908 15.5693 10.7908Z" fill="#9A59C5"/>
<path d="M48.9645 51.3772L48.9097 51.3791H44.7195L46.758 48.7498L48.9645 51.3772Z" fill="#9A59C5"/>
<path d="M43.7588 50.2523L46.2569 47.0303H46.2588L43.7588 50.2523Z" fill="#9A59C5"/>
<path d="M53.2585 47.0303L53.2566 47.0926L51.387 44.8663L53.2585 43.8792V47.0303Z" fill="#9A59C5"/>
</mask>
<g mask="url(#mask0_22014_40846)">
<circle cx="49.8756" cy="3.54264" r="28.5085" fill="#B88AD6"/>
</g>
<path d="M38.7458 34.4989L43.7575 50.2524L46.713 46.4419L51.9564 52.6869L54.3635 50.6671L49.1201 44.4221L53.3859 42.1733L38.7458 34.4989Z" fill="#9A59C5"/>
</svg>
