<svg width="61" height="60" viewBox="0 0 61 60" fill="none" xmlns="http://www.w3.org/2000/svg">
<path d="M51.2399 13.0502L35.1379 3.73377C33.7743 2.96204 32.2329 2.55936 30.666 2.5655C29.0359 2.5655 27.5156 2.98388 26.217 3.73377L10.0487 13.0502C8.71049 13.8698 7.60486 15.0191 6.83753 16.388C6.07021 17.7569 5.66686 19.2998 5.66602 20.8691V39.1521C5.66377 40.725 6.06825 42.2717 6.84018 43.6422C7.61212 45.0126 8.72529 46.1601 10.0716 46.9734L26.1073 56.2235C27.4493 56.9939 28.9925 57.4352 30.666 57.4352C32.319 57.4352 33.8828 56.9939 35.2248 56.2235L51.0844 47.0602C52.4764 46.2566 53.6325 45.1009 54.4366 43.7093C55.2408 42.3176 55.6648 40.7389 55.666 39.1316V20.8485C55.6593 19.2781 55.2486 17.7359 54.4735 16.3701C53.6983 15.0044 52.5847 13.8611 51.2399 13.0502ZM51.9212 30.2747H51.8343C40.3139 30.3204 30.9312 39.7466 30.9312 51.2669C30.9306 51.3371 30.9025 51.4042 30.8529 51.4538C30.8033 51.5034 30.7362 51.5315 30.666 51.5321C30.5961 51.5309 30.5293 51.5026 30.4798 51.4531C30.4303 51.4037 30.402 51.3369 30.4008 51.2669V51.18C30.3574 39.6597 20.9289 30.2747 9.41088 30.2747C9.34094 30.2747 9.27383 30.2471 9.22416 30.1978C9.17449 30.1486 9.14628 30.0817 9.14568 30.0118C9.14568 29.8563 9.27828 29.7466 9.41088 29.7466H9.49776C21.0181 29.7031 30.4008 20.2747 30.4008 8.75434C30.4008 8.60116 30.5334 8.49142 30.666 8.49142C30.8192 8.49142 30.9312 8.62403 30.9312 8.75434C30.9312 20.3204 40.3368 29.7466 51.9212 29.7466C52.0766 29.7466 52.1864 29.8792 52.1864 30.0118C52.2092 30.1649 52.0766 30.2747 51.9212 30.2747Z" fill="url(#paint0_radial_22014_40862)"/>
<mask id="mask0_22014_40862" style="mask-type:alpha" maskUnits="userSpaceOnUse" x="5" y="2" width="51" height="56">
<path d="M51.2399 13.0502L35.1379 3.73377C33.7743 2.96204 32.2329 2.55936 30.666 2.5655C29.0359 2.5655 27.5156 2.98388 26.217 3.73377L10.0487 13.0502C8.71049 13.8698 7.60486 15.0191 6.83753 16.388C6.07021 17.7569 5.66686 19.2998 5.66602 20.8691V39.1521C5.66377 40.725 6.06825 42.2717 6.84018 43.6422C7.61212 45.0126 8.72529 46.1601 10.0716 46.9734L26.1073 56.2235C27.4493 56.9939 28.9925 57.4352 30.666 57.4352C32.319 57.4352 33.8828 56.9939 35.2248 56.2235L51.0844 47.0602C52.4764 46.2566 53.6325 45.1009 54.4366 43.7093C55.2408 42.3176 55.6648 40.7389 55.666 39.1316V20.8485C55.6593 19.2781 55.2486 17.7359 54.4735 16.3701C53.6983 15.0044 52.5847 13.8611 51.2399 13.0502ZM51.9212 30.2747H51.8343C40.3139 30.3204 30.9312 39.7466 30.9312 51.2669C30.9306 51.3371 30.9025 51.4042 30.8529 51.4538C30.8033 51.5034 30.7362 51.5315 30.666 51.5321C30.5961 51.5309 30.5293 51.5026 30.4798 51.4531C30.4303 51.4037 30.402 51.3369 30.4008 51.2669V51.18C30.3574 39.6597 20.9289 30.2747 9.41088 30.2747C9.34094 30.2747 9.27383 30.2471 9.22416 30.1978C9.17449 30.1486 9.14628 30.0817 9.14568 30.0118C9.14568 29.8563 9.27828 29.7466 9.41088 29.7466H9.49776C21.0181 29.7031 30.4008 20.2747 30.4008 8.75434C30.4008 8.60116 30.5334 8.49142 30.666 8.49142C30.8192 8.49142 30.9312 8.62403 30.9312 8.75434C30.9312 20.3204 40.3368 29.7466 51.9212 29.7466C52.0766 29.7466 52.1864 29.8792 52.1864 30.0118C52.2092 30.1649 52.0766 30.2747 51.9212 30.2747Z" fill="#55835D"/>
</mask>
<g mask="url(#mask0_22014_40862)">
<circle opacity="0.5" cx="49.2606" cy="8.96663" r="26.5203" fill="#8CD9AC"/>
</g>
<defs>
<radialGradient id="paint0_radial_22014_40862" cx="0" cy="0" r="1" gradientUnits="userSpaceOnUse" gradientTransform="translate(30.666 30.0003) rotate(90) scale(27.4349 25)">
<stop stop-color="#4BC47C"/>
<stop offset="1" stop-color="#6FD097"/>
</radialGradient>
</defs>
</svg>
