<svg xmlns="http://www.w3.org/2000/svg" width="1280" height="197" viewBox="0 0 1280 197" fill="none">
  <g filter="url(#filter0_n_24298_12679)">
    <g clip-path="url(#clip0_24298_12679)">
      <rect width="1280" height="197" rx="12" fill="url(#paint0_linear_24298_12679)"></rect>
      <path opacity="0.06" d="M-72 -176C-22.5 -130.167 92.9 -29.2 158.5 8C240.5 54.5 299.5 83 446 62.5C592.5 42 782 -62.5 865.5 -106" stroke="url(#paint1_linear_24298_12679)" stroke-width="10"></path>
      <path opacity="0.06" d="M-81 -130C-31.5 -84.1667 83.9 16.8 149.5 54C231.5 100.5 290.5 129 437 108.5C583.5 88 773 -16.5 856.5 -60" stroke="url(#paint2_linear_24298_12679)" stroke-width="10"></path>
      <path opacity="0.06" d="M-78 -84C-28.5 -38.1667 86.9 62.8 152.5 100C234.5 146.5 293.5 175 440 154.5C586.5 134 776 29.5 859.5 -14" stroke="url(#paint3_linear_24298_12679)" stroke-width="10"></path>
      <path opacity="0.06" d="M-75 -38C-25.5 7.83333 89.9 108.8 155.5 146C237.5 192.5 296.5 221 443 200.5C589.5 180 779 75.5 862.5 32" stroke="url(#paint4_linear_24298_12679)" stroke-width="10"></path>
      <path d="M921 166C981.5 101 1030.21 -1.89244 1028.71 -29.8924C1027.21 -57.8924 988.105 -66.2924 947.706 -57.8924C897.207 -47.3924 802.205 7.10757 674.205 27.1076C546.205 47.1076 467.706 129.108 425.206 177.608C382.706 226.108 379.706 275.108 530.706 288.608C681.706 302.108 854.806 237.117 921 166Z" fill="url(#paint5_linear_24298_12679)" style="
"></path>
      
      
      
      
      
      
    </g>
  </g>
  <defs>
    <filter id="filter0_n_24298_12679" x="0" y="0" width="1280" height="197" filterUnits="userSpaceOnUse" color-interpolation-filters="sRGB">
      <feFlood flood-opacity="0" result="BackgroundImageFix"></feFlood>
      <feBlend mode="normal" in="SourceGraphic" in2="BackgroundImageFix" result="shape"></feBlend>
      <feTurbulence type="fractalNoise" baseFrequency="2 2" stitchTiles="stitch" numOctaves="3" result="noise" seed="770"></feTurbulence>
      <feColorMatrix in="noise" type="luminanceToAlpha" result="alphaNoise"></feColorMatrix>
      <feComponentTransfer in="alphaNoise" result="coloredNoise1">
        <feFuncA type="discrete" tableValues="1 1 1 1 1 1 1 1 1 1 1 1 1 1 1 1 1 1 1 1 1 1 1 1 1 1 1 1 1 1 1 1 1 1 1 1 1 1 1 1 1 1 1 1 1 1 1 1 1 1 1 0 0 0 0 0 0 0 0 0 0 0 0 0 0 0 0 0 0 0 0 0 0 0 0 0 0 0 0 0 0 0 0 0 0 0 0 0 0 0 0 0 0 0 0 0 0 0 0 0 "></feFuncA>
      </feComponentTransfer>
      <feComposite operator="in" in2="shape" in="coloredNoise1" result="noise1Clipped"></feComposite>
      <feFlood flood-color="rgba(255, 255, 255, 0.15)" result="color1Flood"></feFlood>
      <feComposite operator="in" in2="noise1Clipped" in="color1Flood" result="color1"></feComposite>
      <feMerge result="effect1_noise_24298_12679">
        <feMergeNode in="shape"></feMergeNode>
        <feMergeNode in="color1"></feMergeNode>
      </feMerge>
    </filter>
    <linearGradient id="paint0_linear_24298_12679" x1="0" y1="98.5" x2="1280" y2="98.5" gradientUnits="userSpaceOnUse">
      <stop stop-color="#12A3FC"></stop>
      <stop offset="1" stop-color="#45B7FD"></stop>
    </linearGradient>
    <linearGradient id="paint1_linear_24298_12679" x1="-72" y1="-53.3756" x2="865.5" y2="-53.3756" gradientUnits="userSpaceOnUse">
      <stop stop-color="white"></stop>
      <stop offset="0.86637" stop-color="white" stop-opacity="0"></stop>
    </linearGradient>
    <linearGradient id="paint2_linear_24298_12679" x1="-81" y1="-7.37563" x2="856.5" y2="-7.37563" gradientUnits="userSpaceOnUse">
      <stop stop-color="white"></stop>
      <stop offset="0.86637" stop-color="white" stop-opacity="0"></stop>
    </linearGradient>
    <linearGradient id="paint3_linear_24298_12679" x1="-78" y1="38.6244" x2="859.5" y2="38.6244" gradientUnits="userSpaceOnUse">
      <stop stop-color="white"></stop>
      <stop offset="0.86637" stop-color="white" stop-opacity="0"></stop>
    </linearGradient>
    <linearGradient id="paint4_linear_24298_12679" x1="-75" y1="84.6244" x2="862.5" y2="84.6244" gradientUnits="userSpaceOnUse">
      <stop stop-color="white"></stop>
      <stop offset="0.86637" stop-color="white" stop-opacity="0"></stop>
    </linearGradient>
    <linearGradient id="paint5_linear_24298_12679" x1="690.5" y1="40" x2="817.5" y2="228" gradientUnits="userSpaceOnUse">
      <stop stop-color="#54BDFC" stop-opacity="0"></stop>
      <stop offset="1" stop-color="#54BDFC"></stop>
    </linearGradient>
    <clipPath id="clip0_24298_12679">
      <rect width="1280" height="197" rx="12" fill="white"></rect>
    </clipPath>
  </defs>
</svg>