<svg width="150" height="36" viewBox="0 0 150 36" fill="none" xmlns="http://www.w3.org/2000/svg">
<path d="M57.9082 32.2674C57.9082 32.6712 57.5815 33.0002 57.1763 33.0002H28.6414C28.2377 33.0002 27.9102 32.6712 27.9102 32.2674V3.73313C27.9102 3.32814 28.2377 3.00024 28.6414 3.00024H57.1763C57.5815 3.00024 57.9082 3.32814 57.9082 3.73313V32.2674Z" fill="#E21E25"/>
<path d="M45.9799 13.2364L36.4182 22.3095C33.1993 16.6184 39.9372 9.79946 45.9799 13.2364ZM51.6965 20.1732L51.6465 20.1184L49.993 21.6884C50.4326 22.1511 50.4127 22.8821 49.9495 23.3209C49.487 23.7594 48.7557 23.7411 48.3161 23.2789C48.2629 23.2311 48.2131 23.18 48.168 23.1267C48.168 23.1267 45.4711 20.2827 43.7187 18.4349L49.7891 12.6741C45.9967 9.1021 40.046 8.94481 36.3336 12.5361C32.6232 16.1277 32.163 21.944 35.6601 26.0823L42.0415 20.0269L46.7274 24.9662C47.3798 25.5861 48.2861 25.9194 49.22 25.8914C50.0929 25.8661 50.8594 25.5076 51.4355 24.9635C52.1336 24.3053 52.5525 23.3742 52.5444 22.4362C52.5371 21.4518 52.1633 20.6982 51.6965 20.1732Z" fill="white"/>
<path d="M75.3205 12.7384C74.99 11.7723 74.7361 10.8572 74.5069 9.81502H74.3293C74.0751 10.8572 73.8212 11.7723 73.5158 12.7384L71.3297 19.0683H77.4561L75.3205 12.7384ZM80.2015 27.305L77.9896 20.619H70.8212L68.5843 27.305H66.8555L73.2615 8.41675H75.626L82.007 27.305H80.2015Z" fill="white"/>
<path d="M89.1765 27.3051H86.8633L82.1094 13.501H83.9145L87.0158 22.8309C87.3972 24 87.7023 25.0676 88.0073 26.1608H88.0578C88.3887 25.0676 88.6684 24.0256 89.0493 22.8309L92.1253 13.501H93.9304L89.1765 27.3051Z" fill="white"/>
<path d="M97.2344 27.3051V13.501H98.9116V27.3051H97.2344ZM97.2344 10.8064V7.6543H98.9374V10.8064H97.2344Z" fill="white"/>
<path d="M105.244 15.9161V27.305H103.617V13.5009H105.244V14.6195C106.871 13.4502 108.829 13.1451 110.43 13.1451V14.645C108.905 14.645 106.77 15.0008 105.244 15.9161Z" fill="white"/>
<path d="M120.343 20.3649H118.004C114.673 20.3649 113.352 20.8223 113.352 23.288V23.7714C113.352 25.678 114.42 26.3389 116.148 26.3389C117.876 26.3389 119.58 25.5761 120.343 25.0931V20.3649ZM120.419 27.305V26.3133C119.453 26.8983 117.876 27.6351 115.818 27.6351C113.123 27.6351 111.699 26.4148 111.699 23.6694V23.288C111.699 19.7799 113.962 19.0682 118.004 19.0682H120.343V17.899C120.343 15.2043 119.758 14.5688 116.682 14.5688C115.334 14.5688 114.191 14.6705 112.64 14.8485V13.6283C113.937 13.3993 115.029 13.1451 116.809 13.1451C121.207 13.1451 122.021 14.645 122.021 17.899V27.305H120.419Z" fill="white"/>
</svg>
