<svg width="150" height="36" viewBox="0 0 150 36" fill="none" xmlns="http://www.w3.org/2000/svg">
<path d="M61.6745 14.5626C58.1375 14.3981 55.1351 17.1537 54.9706 20.7318C54.9706 20.9375 54.9706 21.1431 54.9706 21.3488C54.9706 25.3793 57.9318 28.0938 62.2503 28.0938C63.443 28.0938 64.5946 27.8881 65.6639 27.4357L67.5147 24.3922L67.2679 24.2689C65.8284 25.0503 64.1833 25.5027 62.5382 25.5027C60.3173 25.5027 58.4254 24.3922 58.1786 22.4592H67.9671V21.5544C68.0082 17.0714 65.2938 14.5626 61.6745 14.5626ZM58.2197 20.0327C58.302 18.2642 59.7826 16.9069 61.51 16.9892C63.5253 16.9892 64.7591 18.1819 64.7591 20.0327H58.2197ZM128.425 14.5626C124.888 14.3981 121.886 17.1537 121.721 20.7318C121.721 20.9375 121.721 21.1431 121.721 21.3488C121.721 25.3793 124.683 28.0938 129.001 28.0938C130.194 28.0938 131.345 27.8881 132.415 27.4357L134.266 24.3922L134.019 24.2689C132.579 25.0503 130.934 25.5027 129.289 25.5027C127.068 25.5027 125.176 24.3922 124.929 22.4592H134.718C135.129 17.4005 132.415 14.5626 128.425 14.5626ZM124.929 20.0327C125.012 18.2642 126.492 16.9069 128.22 16.9892C130.235 16.9892 131.469 18.1819 131.469 20.0327H124.929ZM83.5546 14.5626C80.0176 14.3981 77.0153 17.1537 76.8508 20.7318C76.8508 20.9375 76.8508 21.1431 76.8508 21.3488C76.8508 25.3793 79.812 28.0938 84.1304 28.0938C85.3231 28.0938 86.4747 27.8881 87.5441 27.4357L89.3537 24.3922L89.1069 24.2689C87.6674 25.0503 86.0223 25.5027 84.3772 25.5027C82.1563 25.5027 80.2644 24.3922 80.0176 22.4592H89.8061C90.2585 17.4005 87.5441 14.5626 83.5546 14.5626ZM80.0588 20.0327C80.141 18.2642 81.6216 16.9069 83.349 16.9892C85.3643 16.9892 86.5981 18.1819 86.5981 20.0327H80.0588ZM17.1739 17.7706V17.7295C19.1069 17.2771 20.4642 15.5497 20.4642 13.5756C20.4642 10.0797 17.5441 8.76357 14.6651 8.76357H5V9.05146L5.98707 9.87403C7.13866 10.82 7.30317 11.0256 7.30317 11.8893V27.7647H14.1304C17.7086 27.7647 21.2867 26.4898 21.2867 22.3358C21.3278 19.9915 19.5593 17.9763 17.1739 17.7706ZM10.6757 11.6837H13.4724C15.3643 11.6837 15.9401 11.9304 16.5159 12.5062C16.9683 12.9175 17.1739 13.5344 17.1328 14.1513C17.1328 14.7683 16.9271 15.3029 16.4747 15.7553C15.8989 16.29 15.1586 16.5368 13.7603 16.5368H10.6757V11.6837ZM13.7603 24.8858H10.6757V19.4157H13.9248C16.6392 19.4157 17.9553 20.1149 17.9553 22.0891C17.9142 24.5568 15.4877 24.8858 13.7603 24.8858ZM27.6616 10.5321C27.7438 11.6837 26.8801 12.6707 25.7286 12.7119C24.577 12.7941 23.5899 11.9304 23.5488 10.7788C23.5076 9.62726 24.3302 8.64018 25.4818 8.59906C25.5229 8.59906 25.564 8.59906 25.6052 8.59906C26.7156 8.55793 27.6204 9.38049 27.7027 10.4498C27.6616 10.4909 27.6616 10.4909 27.6616 10.5321ZM22.2738 14.8917H27.2092V27.7647H24.0012V17.6472C24.0012 16.5779 23.96 16.4134 22.7673 15.5086L22.2738 15.0973V14.8917ZM47.8143 8.2289L48.8425 8.88695C49.7474 9.46274 49.9119 9.75064 49.9119 10.5732V16.5368H49.8296C48.7603 15.2207 47.1563 14.4804 45.47 14.5626C41.8096 14.5626 39.2597 17.5238 39.2597 21.3076C39.2597 25.0914 41.604 28.0526 45.5934 28.0526C47.3619 28.1349 49.0482 27.3123 49.9941 25.8317H50.0353L50.3643 27.7647H53.0787V7.98213H47.8143V8.2289ZM46.2103 25.1737C44.0717 25.2148 42.3032 23.5285 42.262 21.3899C42.2209 19.2512 43.9072 17.4827 46.0458 17.4416C48.1845 17.4005 49.953 19.0867 49.9941 21.2254C49.9941 21.2665 49.9941 21.2665 49.9941 21.3076C50.0764 23.364 48.4724 25.0914 46.3749 25.1737C46.3337 25.1737 46.2926 25.1737 46.2103 25.1737ZM114.442 8.2289L114.894 8.5168C116.457 9.50387 116.622 9.79177 116.622 11.4369V16.5368H116.539C115.47 15.2207 113.866 14.4804 112.18 14.5626C108.519 14.5626 105.969 17.5238 105.969 21.3076C105.969 25.0914 108.355 28.0938 112.303 28.0938C114.072 28.176 115.758 27.3535 116.704 25.8728H116.745L117.074 27.8059H119.788V7.98213H114.401L114.442 8.2289ZM112.961 25.1737C110.823 25.2148 109.054 23.5285 109.013 21.3899C108.972 19.2512 110.658 17.4827 112.797 17.4416C114.935 17.4005 116.704 19.0867 116.745 21.2254C116.745 21.2665 116.745 21.2665 116.745 21.3076C116.827 23.364 115.223 25.0914 113.167 25.1737C113.043 25.1737 113.002 25.1737 112.961 25.1737ZM145 14.7271V17.8529C144.506 17.7295 143.972 17.6472 143.437 17.6061C141.669 17.4827 140.106 18.8399 139.982 20.6085C139.982 20.6907 139.982 20.773 139.982 20.8552V27.7647H136.774V18.2642C136.774 16.6602 136.692 16.4134 135.376 15.5908L134.553 15.0562V14.9328H139.982V16.9892H140.023C140.723 15.5086 142.203 14.6038 143.807 14.6449C144.26 14.5626 144.63 14.6449 145 14.7271ZM73.6839 14.8505H76.6451V17.6061H73.6839V27.8059H70.4759V18.6754C70.4759 17.6061 70.2703 17.3593 68.9953 16.3311L67.3502 15.015V14.8094H70.4759V12.4651C70.4759 8.96921 72.738 6.74829 77.6733 7.73537L78.4136 10.4498L78.2491 10.5732C75.6992 9.58613 73.6839 10.2442 73.6839 12.4651V14.8505ZM104.119 19.6214V27.7647H100.911V20.6085C100.911 19.2101 100.541 17.4827 98.3196 17.4827C96.2221 17.4827 95.3584 19.0456 95.3584 20.773V27.8059H92.1504V18.2642C92.1504 16.6602 92.0682 16.4134 90.7521 15.5908L89.9706 15.0562V14.9328H95.235V16.9069H95.2761C96.181 15.5086 97.7027 14.6449 99.389 14.6449C102.391 14.5626 104.16 16.6602 104.119 19.6214ZM38.2315 25.1737L38.3549 25.2559L36.7509 27.8059C34.1598 28.505 31.1986 27.7647 31.1986 23.5697V18.3464C31.1986 17.5238 31.0752 17.565 29.2656 16.0844L28.114 15.0562V14.8917H31.2397L32.4324 11.149H34.4888V14.8917H37.9436V17.6061H34.4888V23.4463C34.4066 25.7906 36.0106 25.8317 38.2315 25.1737Z" fill="white"/>
</svg>
