<svg width="150" height="36" viewBox="0 0 150 36" fill="none" xmlns="http://www.w3.org/2000/svg">
<path d="M67.9953 18.0284C67.9953 23.5735 64.6066 26.2038 60.3649 26.2038H57.782V22.8626H60.1754C62.7346 22.8626 64.4408 21.4882 64.4408 18.0047C64.4408 14.5687 62.8294 12.8626 60.1043 12.8626C57.4739 12.8626 55.6019 14.4739 55.6019 17.9337V31.8673H52.0474V9.97156H55.5782V11.8673H56.0758C57.2607 10.2796 58.9905 9.56872 60.8152 9.56872C64.7251 9.56872 67.9953 12.4123 67.9953 18.0284ZM44.7725 16.5829L42.4265 16.346C40.5782 16.1801 39.6066 15.6825 39.6066 14.5924C39.6066 13.3128 40.8626 12.5782 42.6398 12.5782C44.4882 12.5782 45.673 13.455 45.7678 14.6872H49.1564C49.0142 11.5118 46.5735 9.56872 42.6635 9.56872C38.7299 9.56872 36.0758 11.654 36.0758 14.7109C36.0758 17.2701 37.6872 18.9289 41.3602 19.2844L43.7536 19.5213C45.1991 19.6635 46.1706 19.9479 46.1706 21.346C46.1706 22.6019 45.2701 23.5024 42.8768 23.5024C40.673 23.5024 39.5829 22.5071 39.2038 21.1564H35.5308C35.8863 24.2133 38.4692 26.5829 42.8768 26.5829C47.0237 26.5829 49.7014 24.4028 49.7014 21.1564C49.6777 18.3365 47.8057 16.8673 44.7725 16.5829ZM81.6682 21.1801C81.1232 22.4597 79.7962 23.4076 77.9005 23.4076C75.3175 23.4076 73.3981 21.7251 73.3981 18.0995C73.3981 14.6398 75.1754 12.7204 77.9479 12.7204C80.4123 12.7204 81.8104 14.1896 81.9526 16.4171H75.6019V18.9763H85.436V17.2938C85.436 12.6256 82.3318 9.59242 77.9242 9.59242C73.8246 9.59242 69.891 12.3886 69.891 18.0995C69.891 23.8104 73.8246 26.6066 77.9242 26.6066C81.6683 26.6066 84.3697 24.2844 85.1991 21.1801H81.6682ZM25.9573 9.56872C22.0948 9.56872 19.2038 11.5829 18.8483 14.6872H22.6398C22.9005 13.5498 23.9431 12.6967 25.9336 12.6967C28.4929 12.6967 29.3223 14.0474 29.3223 15.6825V21.2275C27.8768 22.8863 26.1943 23.6446 24.5118 23.6446C22.7583 23.6446 21.5498 22.7915 21.5498 21.2986C21.5498 19.8531 22.4976 18.9526 24.2986 18.9526H27.1185V16.4171H24.1801C20.1517 16.4171 17.8768 18.4313 17.8768 21.5355C17.8768 24.4265 20.0569 26.6066 23.6588 26.6066C25.673 26.6066 27.4502 25.8009 28.7773 24.8294H29.2749V26.2038H32.8057V15.3744C32.9005 11.3697 30.1754 9.56872 25.9573 9.56872ZM2 26.2038H5.53081V4H2V26.2038ZM16.8341 9.97156H12.5213L7.37915 16.7488V18.8578L12.6635 26.2038H17.0474L10.8389 17.7915L16.8341 9.97156ZM144.583 9.97156L141.692 16.3934C140.981 17.9336 140.318 19.4502 140.104 20.4692H139.607C139.393 19.4502 138.706 17.981 137.995 16.4408L135.104 9.97156H131.194L137.995 24.545L134.63 31.891H138.398L148.493 9.97156H144.583ZM130.412 9.97156H126.1L120.957 16.7251V18.8341L126.242 26.1801H130.626L124.441 17.7678L130.412 9.97156ZM108.28 16.5829L105.934 16.346C104.085 16.1801 103.114 15.6825 103.114 14.5924C103.114 13.3128 104.37 12.5782 106.147 12.5782C107.995 12.5782 109.18 13.455 109.275 14.6872H112.664C112.521 11.5118 110.081 9.56872 106.171 9.56872C102.237 9.56872 99.5829 11.654 99.5829 14.7109C99.5829 17.2701 101.194 18.9289 104.867 19.2844L107.261 19.5213C108.706 19.6635 109.678 19.9479 109.678 21.346C109.678 22.6019 108.777 23.5024 106.384 23.5024C104.18 23.5024 103.09 22.5071 102.711 21.1564H99.0379C99.3934 24.2133 101.976 26.5829 106.384 26.5829C110.531 26.5829 113.209 24.4028 113.209 21.1564C113.209 18.3365 111.313 16.8673 108.28 16.5829ZM115.578 26.2038H119.109V4H115.578V26.2038ZM92.2607 11.8673H91.763V9.97156H88.2322V26.2038H91.763V17.7204C91.763 14.8294 93.09 13.1469 95.7441 13.1469H97.9716V9.56872H96.6682C94.2275 9.56872 93.1848 10.4929 92.2607 11.8673Z" fill="#009982"/>
</svg>
