<svg width="150" height="36" viewBox="0 0 150 36" fill="none" xmlns="http://www.w3.org/2000/svg">
<path fill-rule="evenodd" clip-rule="evenodd" d="M75.0008 22.45L71.4508 20.45L71.2008 20.85C70.4008 22.05 69.3008 22.7 67.9008 22.65C65.5508 22.65 63.7508 20.95 63.7508 18.7C63.7508 16.45 65.5508 14.8 67.9008 14.8C69.3008 14.8 70.3508 15.4 71.2008 16.65L71.4508 17.05L75.0508 15.05L74.7508 14.6C73.0508 12.25 70.8008 11.1 67.9508 11.1C62.5008 11.1 59.5508 15.05 59.5508 18.75C59.5508 22.45 62.5008 26.4 67.9508 26.4C70.7508 26.4 73.3508 25.05 74.8008 22.9L75.0008 22.45Z" fill="#C01818"/>
<path fill-rule="evenodd" clip-rule="evenodd" d="M84.75 14.05L86.65 18.85H82.8L84.75 14.05ZM75 26.35H79.75L81.15 22.9H88.25L89.65 26.4H94.4L85.95 6H81.75L82.9 8.7L75 26.35Z" fill="#C01818"/>
<path fill-rule="evenodd" clip-rule="evenodd" d="M96.1484 26.35H100.098V17.2H102.698V13.35H100.098V11.55C100.098 10.75 100.598 9.95 101.548 9.95C102.048 9.95 102.348 10.05 102.648 10.2L103.098 10.4L104.748 6.65L104.298 6.45C103.548 6.15 102.548 6 101.798 6C99.9984 6 98.4984 6.6 97.4984 7.75C96.5984 8.75 96.1484 10.15 96.1484 11.7V13.35H94.3984V17.2H96.1484V26.35Z" fill="#C01818"/>
<path fill-rule="evenodd" clip-rule="evenodd" d="M40.0508 6V26.35H44.6508V14.7L49.1008 17.9L53.5508 14.7V26.35H58.1508V6L49.1008 12.65L40.0508 6Z" fill="#C01818"/>
<path fill-rule="evenodd" clip-rule="evenodd" d="M109.15 16.85C109.7 15.45 110.85 14.65 112.35 14.65C113.85 14.65 115.05 15.45 115.7 16.85H109.15ZM112.75 11.1C107.55 11.1 104.75 15.05 104.75 18.75C104.75 22.45 107.55 26.4 112.75 26.4C115.15 26.35 117.35 25.3 119.1 23.35L115.75 21.5C114.9 22.4 113.85 22.85 112.7 22.85C111 22.85 109.5 21.7 109.1 20.25H120.3V19.25C120.3 13.6 115.9 11.1 112.75 11.1Z" fill="#C01818"/>
<path fill-rule="evenodd" clip-rule="evenodd" d="M126.002 16.85C126.552 15.45 127.702 14.65 129.202 14.65C130.702 14.65 131.902 15.45 132.552 16.85H126.002ZM129.602 11.1C124.402 11.1 121.602 15.05 121.602 18.75C121.602 22.45 124.402 26.4 129.602 26.4C132.002 26.35 134.202 25.3 135.952 23.35L132.602 21.5C131.752 22.4 130.702 22.85 129.552 22.85C127.852 22.85 126.352 21.7 125.952 20.25H137.152V19.25C137.102 13.6 132.702 11.1 129.602 11.1Z" fill="#C01818"/>
<path fill-rule="evenodd" clip-rule="evenodd" d="M137.102 9.80005H138.402V10.2H137.902V12.35H137.602V10.2H137.102V9.80005Z" fill="#C01818"/>
<path fill-rule="evenodd" clip-rule="evenodd" d="M138.398 9.80005H138.998L139.698 11.8L140.348 9.80005H140.948V12.35H140.548V10.4L139.848 12.35H139.498L138.798 10.4V12.35H138.398V9.80005Z" fill="#C01818"/>
<path fill-rule="evenodd" clip-rule="evenodd" d="M13.5 23.35V13.05L19.95 16.05V11.1L9 6V26.25L19.95 31.35V26.4L13.5 23.35Z" fill="#BD2E2B"/>
<path fill-rule="evenodd" clip-rule="evenodd" d="M26.3992 23.35V13.05L19.9492 16.05V11.1L30.8992 6V26.25L19.9492 31.35V26.4L26.3992 23.35Z" fill="#75160D"/>
</svg>
