<svg width="150" height="36" viewBox="0 0 150 36" fill="none" xmlns="http://www.w3.org/2000/svg">
<path fill-rule="evenodd" clip-rule="evenodd" d="M71.5552 10.1205C73.117 10.1205 74.5429 10.4261 75.7991 11.0711C77.0553 11.7162 78.0399 12.6329 78.7529 13.8551C79.4659 15.0774 79.8394 16.5373 79.8394 18.2349V18.7442C79.8394 20.4417 79.4659 21.9016 78.7529 23.1239C78.0399 24.3461 77.0553 25.2628 75.7991 25.9079C74.5429 26.553 73.1509 26.8585 71.5552 26.8585C69.9934 26.8585 68.5675 26.553 67.3113 25.9079C66.0551 25.2628 65.0705 24.3461 64.3575 23.1239C63.6445 21.9016 63.2711 20.4417 63.2711 18.7442V18.2349C63.2711 16.5373 63.6445 15.0774 64.3575 13.8551C65.0705 12.6329 66.0551 11.7162 67.3113 11.0711C68.5675 10.4261 69.9934 10.1205 71.5552 10.1205ZM110.803 10.1205C112.365 10.1205 113.791 10.4261 115.047 11.0711C116.303 11.7162 117.288 12.6329 118.001 13.8551C118.714 15.0774 119.087 16.5373 119.087 18.2349V18.7442C119.087 20.4417 118.714 21.9016 118.001 23.1239C117.288 24.3461 116.303 25.2628 115.047 25.9079C113.791 26.553 112.399 26.8585 110.803 26.8585C109.241 26.8585 107.815 26.553 106.559 25.9079C105.303 25.2628 104.318 24.3461 103.605 23.1239C102.892 21.9016 102.519 20.4417 102.519 18.7442V18.2349C102.519 16.5373 102.892 15.0774 103.605 13.8551C104.318 12.6329 105.303 11.7162 106.559 11.0711C107.849 10.4261 109.241 10.1205 110.803 10.1205ZM55.0548 10.3242C56.2771 10.3242 57.3635 10.5958 58.2802 11.173C59.1969 11.7502 59.9099 12.4971 60.4191 13.5156C60.9284 14.5002 61.1661 15.6546 61.1661 16.9787V26.4172H57.1937V17.2503C57.1937 16.062 56.8882 15.1793 56.311 14.5681C55.7338 13.957 54.8851 13.6854 53.7986 13.6854C52.5764 13.6854 51.6257 14.0928 50.9467 14.9076C50.2677 15.7225 49.9281 16.8768 49.9281 18.3367V26.3493H45.9219V10.5619H49.8602V12.6329H50.4374C50.6751 12.0897 51.1843 11.5464 51.8634 11.0711C52.5764 10.5619 53.6288 10.3242 55.0548 10.3242ZM97.528 5.67285V10.5958H101.84V13.923H97.528V22.1393C97.528 22.7844 97.8336 23.0899 98.4108 23.0899H101.466V26.4172H97.0188C95.9663 26.4172 95.1514 26.0777 94.5064 25.4326C93.8613 24.7875 93.5218 23.9048 93.5218 22.8523V13.8891H89.4137C88.2593 13.923 87.5463 14.3644 86.9012 14.9076C86.2562 15.4509 85.9167 16.2996 85.9167 17.42V26.4172H81.9104V10.5619H85.8488V12.3613H86.4259C86.6636 11.7162 87.071 11.3088 87.6142 11.0032C88.1575 10.6977 88.7686 10.5958 89.4816 10.5958H93.5218V5.67285H97.528ZM130.291 10.3242C131.513 10.3242 132.6 10.5958 133.517 11.173C134.433 11.7502 135.146 12.4971 135.655 13.5156C136.165 14.5002 136.402 15.6546 136.402 16.9787V26.4172H132.396V17.2503C132.396 16.062 132.091 15.1793 131.513 14.5681C130.936 13.957 130.087 13.6854 129.001 13.6854C127.779 13.6854 126.828 14.0928 126.149 14.9076C125.47 15.7225 125.131 16.8768 125.131 18.3367V26.3493H121.124V10.5619H125.063V12.6329H125.64C125.877 12.0897 126.387 11.5464 127.066 11.0711C127.813 10.5619 128.899 10.3242 130.291 10.3242ZM71.5552 13.6854C70.333 13.6854 69.3144 14.0928 68.4996 14.8737C67.6847 15.6546 67.2773 16.8089 67.2773 18.3028V18.6083C67.2773 20.1022 67.6847 21.2226 68.4996 22.0374C69.3144 22.8183 70.333 23.2257 71.5552 23.2257C72.7775 23.2257 73.796 22.8183 74.6108 22.0374C75.4257 21.2566 75.8331 20.1022 75.8331 18.6083V18.3028C75.8331 16.8089 75.4257 15.6885 74.6448 14.8737C73.8299 14.0928 72.8114 13.6854 71.5552 13.6854ZM110.803 13.6854C109.581 13.6854 108.562 14.0928 107.747 14.8737C106.933 15.6546 106.525 16.8089 106.525 18.3028V18.6083C106.525 20.1022 106.933 21.2226 107.747 22.0374C108.562 22.8183 109.581 23.2257 110.803 23.2257C112.025 23.2257 113.044 22.8183 113.859 22.0374C114.674 21.2566 115.081 20.1022 115.081 18.6083V18.3028C115.081 16.8089 114.674 15.6885 113.893 14.8737C113.078 14.0928 112.059 13.6854 110.803 13.6854ZM138.609 10.5619L138.949 12.0897H139.017L139.356 10.5619H140.001V12.3952H139.662V10.8674H139.594L139.254 12.3952H138.711L138.372 10.8674H138.304V12.3952H137.964V10.5619H138.609ZM137.727 10.5619V10.8674H137.115V12.3952H136.776V10.8674H136.165V10.5619H137.727Z" fill="white"/>
<path fill-rule="evenodd" clip-rule="evenodd" d="M39.6396 18.3368C39.6396 26.5191 32.9851 33.1735 24.8028 33.1735C16.6545 33.2075 10 26.553 10 18.3368C10 10.1545 16.6545 3.5 24.8368 3.5C27.1115 3.5 29.2505 4.00927 31.1517 4.92596L28.6733 8.08344C27.485 7.64207 26.1609 7.37046 24.8028 7.37046C19.0311 7.37046 14.3118 11.8521 13.9044 17.5219C13.9044 17.6238 13.9044 17.7596 13.8705 17.8615C13.8705 17.9973 13.8705 18.167 13.8705 18.3028C13.8705 24.3801 18.7934 29.3031 24.8368 29.3031C30.8801 29.3031 35.7691 24.3801 35.7691 18.3368C35.7691 17.5219 35.6673 16.7411 35.5315 15.9941L38.3834 12.3274C39.1982 14.1607 39.6396 16.1978 39.6396 18.3368Z" fill="#FFE01A"/>
<path fill-rule="evenodd" clip-rule="evenodd" d="M36.6165 9.37362L34.1041 12.599L25.3786 23.9048L18.2148 17.488L20.7952 14.6021L24.8354 18.2349L31.4559 9.67918L33.8325 6.5896C34.9189 7.40443 35.8356 8.32112 36.6165 9.37362Z" fill="white"/>
</svg>
