<svg width="32" height="32" viewBox="0 0 32 32" fill="none" xmlns="http://www.w3.org/2000/svg">
<rect width="32" height="32" rx="16" fill="white"/>
<path fill-rule="evenodd" clip-rule="evenodd" d="M18.5428 10.4782V8.7646C18.5428 7.72413 17.6126 6.56609 16.1336 6.56609C14.6547 6.56609 13.78 7.39316 13.5176 7.88614C13.4042 8.09921 13.3299 8.33726 13.2634 8.55004C13.1761 8.82954 13.1024 9.06544 12.9717 9.14385C12.9205 9.17456 12.8918 9.20275 12.8674 9.22677C12.782 9.31076 12.7483 9.34388 11.9846 9.25638C11.6827 9.22178 11.3619 9.18283 11.0481 9.14474C10.3413 9.05892 9.67014 8.97743 9.33009 8.95972C8.83906 8.93414 8.53208 8.67329 8.69575 8.01347C8.85943 7.35365 9.64062 4.70211 12.3026 3.69486C14.9646 2.68762 18.49 2.63988 20.4485 3.63913C22.407 4.63838 23.5491 5.78341 23.5491 9.59694V16.5915C23.5491 17.6077 24.178 18.3846 24.5551 18.8505C24.6508 18.9687 24.7303 19.0669 24.7792 19.1439C25.0207 19.5243 25.1716 19.8986 24.8154 20.2066C24.4592 20.5145 22.4123 22.2414 22.0923 22.4648C21.7723 22.6882 21.3979 22.7244 21.0054 22.344C20.9349 22.2756 20.8573 22.2024 20.7758 22.1254C20.404 21.7744 19.951 21.3465 19.7133 20.9553C19.6676 20.8801 19.625 20.8083 19.5851 20.7411C19.3718 20.382 19.2382 20.1569 19.1518 20.279C19.0491 20.4239 17.3259 22.2766 15.1718 22.6232C13.0178 22.9697 10.3539 22.9387 8.80704 20.4175C7.35774 18.0553 8.1939 14.8512 9.28029 13.4557C10.3667 12.0603 12.7368 11.1223 14.9564 10.8882C16.7321 10.7009 18.0872 10.5369 18.5428 10.4782ZM18.5284 13.2711V15.2085C18.5284 16.7592 17.5789 19.235 15.4624 19.235C13.346 19.235 12.8923 16.9365 13.3541 15.6602C13.8159 14.3839 14.6941 13.7072 16.4184 13.4088C17.5792 13.2079 18.2008 13.2501 18.4398 13.2664C18.4798 13.2691 18.5091 13.2711 18.5284 13.2711Z" fill="#241F21"/>
<path d="M0.927923 22.9503C0.36172 22.6472 0.238492 22.648 0.112282 22.8752C-0.0139283 23.1024 0.589566 23.5276 1.61207 24.328C2.83059 25.2817 7.1917 28.7532 15.0753 29.0677C22.2169 29.3525 27.4425 26.1608 28.3052 25.6339L28.3156 25.6275C29.1459 25.1205 29.1395 24.8036 29.0825 24.6388C29.0255 24.474 28.7868 24.2237 27.9555 24.5855C27.1243 24.9473 22.471 27.1284 14.83 26.7978C7.18908 26.4673 1.56328 23.2903 0.927923 22.9503Z" fill="#F8A61B"/>
<path d="M27.3233 22.4991C25.8723 22.9561 25.9406 23.3314 26.0076 23.4384C26.0746 23.5454 26.2636 23.545 26.4244 23.5205C26.6255 23.4899 28.6175 23.229 29.5439 23.3032C30.4703 23.3775 30.5184 23.8713 30.3742 24.588C30.23 25.3046 29.8935 26.2398 29.6444 26.9171C29.3953 27.5945 29.2599 27.7736 29.5002 27.8304C29.7405 27.8872 30.6102 27.0395 31.0865 26.1393C31.5628 25.2391 31.9212 23.8076 31.9029 23.1716C31.8847 22.5357 31.7933 22.4551 31.1866 22.2797C30.5799 22.1042 28.7743 22.0421 27.3233 22.4991Z" fill="#F8A61B"/>
</svg>
