<svg width="32" height="31" viewBox="0 0 32 31" fill="none" xmlns="http://www.w3.org/2000/svg">
<g id="&#231;&#137;&#136;&#230;&#156;&#172;2">
<path id="Rectangle 3096" d="M26.8802 21.4992V9.63749C26.8802 8.32195 26.3617 7.05941 25.4372 6.12354L21.3695 2.00607C20.4302 1.05519 19.1492 0.52002 17.8125 0.52002H7.8904C5.3534 0.52002 3.29675 2.57667 3.29675 5.11367V19.057V21.4992C3.29675 24.2606 5.53533 26.4992 8.29675 26.4992H21.8802C24.6416 26.4992 26.8802 24.2606 26.8802 21.4992Z" fill="url(#paint0_linear_19482_18903)"/>
<path id="Rectangle 3097" d="M7.37146 22.491V26.3236C7.37146 28.1646 8.86385 29.657 10.7048 29.657H26.7462C28.5872 29.657 30.0795 28.1646 30.0795 26.3236V12.8129C30.0795 11.9359 29.7339 11.0942 29.1175 10.4703L24.3386 5.63279C23.7123 4.99887 22.8583 4.64209 21.9672 4.64209H10.7048C8.86384 4.64209 7.37146 6.13447 7.37146 7.97542V9.06523" stroke="#12A3FC" stroke-width="2.5" stroke-linecap="round"/>
<path id="Vector 29" d="M4.6732 12.7368L1.92041 15.8979L4.6732 19.0589" stroke="#12A3FC" stroke-width="2.5" stroke-linecap="round" stroke-linejoin="round"/>
<path id="Vector 30" d="M10.0698 12.7368L12.8226 15.8979L10.0698 19.0589" stroke="#12A3FC" stroke-width="2.5" stroke-linecap="round" stroke-linejoin="round"/>
</g>
<defs>
<linearGradient id="paint0_linear_19482_18903" x1="3.29675" y1="13.5096" x2="26.8802" y2="13.5096" gradientUnits="userSpaceOnUse">
<stop stop-color="#BFE8FF"/>
<stop offset="1" stop-color="#F1F9FF"/>
</linearGradient>
</defs>
</svg>
