<svg width="120" height="36" viewBox="0 0 120 36" fill="none" xmlns="http://www.w3.org/2000/svg">
<path d="M41.5326 4.06641C41.0015 4.06641 40.5346 4.26827 40.1311 4.67172C39.7489 5.05392 39.5581 5.5209 39.5581 6.07293C39.5581 6.62496 39.7489 7.09246 40.1311 7.47466C40.5346 7.85685 41.0015 8.04795 41.5326 8.04795C42.0846 8.04795 42.5518 7.85685 42.9343 7.47466C43.3375 7.09246 43.5393 6.62496 43.5393 6.07293C43.5393 5.5209 43.3375 5.05392 42.934 4.67172C42.5518 4.26827 42.0849 4.06641 41.5326 4.06641ZM41.5326 9.99042C41.0015 9.99042 40.5346 10.1923 40.1311 10.5957C39.7489 10.9779 39.5581 11.4347 39.5581 11.9654V24.0046C39.5581 24.5353 39.7489 25.0026 40.1311 25.4058C40.5346 25.788 41.0015 25.9796 41.5326 25.9796C42.0846 25.9796 42.5518 25.788 42.9343 25.4058C43.3375 25.0026 43.5393 24.5353 43.5393 24.0046V11.9654C43.5393 11.4347 43.3375 10.9779 42.934 10.5957C42.5518 10.1923 42.0849 9.99042 41.5326 9.99042ZM23.0964 10.0224C22.5656 10.0224 22.0987 10.224 21.6952 10.6275C21.313 11.0097 21.1216 11.4769 21.1216 12.029V31.744C21.1216 32.296 21.313 32.7635 21.6952 33.1457C22.0987 33.5492 22.5656 33.7505 23.0964 33.7505C23.6484 33.7505 24.1157 33.5492 24.4979 33.1457C24.9011 32.7635 25.1029 32.296 25.1029 31.744V24.8645C26.3346 25.5864 27.6617 25.9476 29.0842 25.9476C31.2926 25.9476 33.1718 25.1724 34.7218 23.6224C36.2719 22.0723 37.0468 20.1931 37.0468 17.9847C37.0468 15.7976 36.2719 13.9292 34.7218 12.3791C33.1718 10.8078 31.2926 10.0224 29.0842 10.0224H23.0964ZM10.2128 10.0545C8.00444 10.0545 6.12523 10.8291 4.57519 12.3791C3.02515 13.9294 2.25 15.8084 2.25 18.0168C2.25 20.2036 3.02515 22.0723 4.57519 23.6224C6.12523 25.1724 7.99368 25.9583 10.1808 25.9796H16.2001C16.7311 25.9796 17.1879 25.788 17.5701 25.4058C17.9735 25.0023 18.1751 24.5353 18.1751 24.0046V18.0168C18.1751 15.8084 17.4 13.9292 15.8499 12.3791C14.2999 10.8291 12.4209 10.0545 10.2128 10.0545ZM29.0842 14.0037C30.1885 14.0037 31.1225 14.3964 31.8869 15.1823C32.6725 15.9465 33.0655 16.8807 33.0655 17.9847C33.0655 19.0888 32.6725 20.0341 31.8869 20.8197C31.1225 21.5841 30.1885 21.966 29.0842 21.966C27.9801 21.966 27.0354 21.5841 26.2498 20.8197C25.4854 20.0341 25.1029 19.0888 25.1029 17.9847C25.1029 16.8807 25.4854 15.9465 26.2498 15.1821C27.0354 14.3964 27.9801 14.0037 29.0842 14.0037ZM10.2128 14.0358C11.3169 14.0358 12.2508 14.4284 13.0152 15.2144C13.8009 15.9785 14.1938 16.9127 14.1938 18.0168C14.1938 19.1208 13.8009 20.0656 13.0152 20.8512C12.2508 21.6156 11.3169 21.9983 10.2128 21.9983C9.10876 21.9983 8.16352 21.6156 7.37786 20.8512C6.61347 20.0656 6.23128 19.1208 6.23128 18.0168C6.23128 16.9124 6.61347 15.9785 7.37786 15.2141C8.16352 14.4284 9.10876 14.0358 10.2128 14.0358Z" fill="url(#paint0_linear_38793_26833)"/>
<path d="M105.242 2.25C104.711 2.25 104.244 2.45186 103.84 2.85532C103.458 3.23751 103.267 3.70449 103.267 4.25652V11.1365C102.036 10.4144 100.708 10.0535 99.2858 10.0535C97.0774 10.0535 95.1987 10.8281 93.6486 12.3782C92.0986 13.9282 91.3235 15.8074 91.3235 18.0158C91.3235 20.2029 92.0986 22.0819 93.6486 23.6534C95.1987 25.2035 97.0774 25.9786 99.2858 25.9786H105.242C105.794 25.9786 106.261 25.787 106.644 25.4048C107.047 25.0016 107.249 24.5236 107.249 23.9716V4.25652C107.249 3.70449 107.047 3.23751 106.643 2.85532C106.261 2.45186 105.794 2.25 105.242 2.25ZM86.2205 4.06542C85.6898 4.06542 85.2228 4.26728 84.8193 4.67074C84.4371 5.05293 84.2455 5.51992 84.2455 6.07195C84.2455 6.62397 84.4371 7.09148 84.8193 7.47367C85.2228 7.85587 85.6898 8.04697 86.2205 8.04697C86.7726 8.04697 87.2395 7.85587 87.6217 7.47367C88.0252 7.09148 88.2271 6.62397 88.2271 6.07195C88.2271 5.51992 88.0252 5.05293 87.6217 4.67074C87.2395 4.26728 86.7726 4.06542 86.2205 4.06542ZM86.2205 9.98944C85.6898 9.98944 85.2228 10.1913 84.8193 10.5948C84.4371 10.9769 84.2455 11.4337 84.2455 11.9645V24.0036C84.2455 24.5344 84.4371 25.0016 84.8193 25.4048C85.2228 25.787 85.6898 25.9786 86.2205 25.9786C86.7726 25.9786 87.2395 25.787 87.6217 25.4048C88.0252 25.0016 88.2271 24.5344 88.2271 24.0036V11.9645C88.2271 11.4337 88.0252 10.9769 87.6217 10.5948C87.2395 10.1913 86.7726 9.98944 86.2205 9.98944ZM48.8363 10.0535C48.2843 10.0535 47.8066 10.2551 47.4031 10.6585C47.0209 11.0407 46.8301 11.497 46.8301 12.028C46.8301 12.3251 46.8936 12.6013 47.0209 12.8559L52.9134 24.7995C53.2956 25.5854 53.9007 25.9786 54.7289 25.9786C55.5783 25.9786 56.1936 25.5854 56.576 24.7997L62.4683 12.8562C62.5956 12.6013 62.6597 12.3251 62.6597 12.028C62.6597 11.497 62.4578 11.041 62.0543 10.6585C61.6721 10.2551 61.2049 10.0535 60.6526 10.0535C59.8247 10.0535 59.2199 10.4462 58.8377 11.2318L54.7289 19.5128L50.652 11.2318C50.2698 10.4462 49.6645 10.0532 48.8363 10.0532V10.0535ZM73.2493 10.0535C71.0409 10.0535 69.1617 10.8281 67.6116 12.3782C66.0616 13.9282 65.287 15.8074 65.287 18.0158C65.287 20.2239 66.0616 22.1031 67.6116 23.6532C69.1617 25.2032 71.0409 25.9786 73.2493 25.9786C75.4574 25.9786 77.3366 25.2032 78.8866 23.6532C80.4367 22.1031 81.2116 20.2239 81.2116 18.0158C81.2116 15.8074 80.4367 13.9282 78.8866 12.3782C77.3366 10.8281 75.4574 10.0535 73.2493 10.0535ZM73.2493 14.0348C74.3533 14.0348 75.2878 14.4275 76.0522 15.2134C76.8379 15.9775 77.2308 16.9117 77.2308 18.0158C77.2308 19.1198 76.8379 20.0646 76.0522 20.8502C75.2878 21.6146 74.3533 21.9973 73.2493 21.9973C72.145 21.9973 71.2002 21.6146 70.4146 20.8502C69.6502 20.0646 69.2677 19.1198 69.2677 18.0158C69.2677 16.9117 69.6502 15.9775 70.4148 15.2131C71.2002 14.4275 72.145 14.0348 73.2493 14.0348ZM99.2858 14.0348C100.39 14.0348 101.324 14.4275 102.089 15.2134C102.874 15.9775 103.267 16.9117 103.267 18.0158C103.267 19.1198 102.874 20.0646 102.089 20.8502C101.324 21.6146 100.39 21.9973 99.2858 21.9973C98.1817 21.9973 97.2367 21.6146 96.4511 20.8502C95.6867 20.0646 95.3047 19.1198 95.3047 18.0158C95.3047 16.9117 95.6867 15.9775 96.4511 15.2131C97.2367 14.4275 98.1817 14.0348 99.2858 14.0348Z" fill="white"/>
<defs>
<linearGradient id="paint0_linear_38793_26833" x1="22.9466" y1="33.6726" x2="22.9466" y2="4.05752" gradientUnits="userSpaceOnUse">
<stop stop-color="#EE5B24"/>
<stop offset="0.5" stop-color="#F38321"/>
<stop offset="1" stop-color="#F79E1F"/>
</linearGradient>
</defs>
</svg>
