<svg width="20" height="20" viewBox="0 0 20 20" fill="none" xmlns="http://www.w3.org/2000/svg">
<g clip-path="url(#clip0_38737_38719)">
<path d="M13.5781 6.49382C13.9036 6.16838 14.4311 6.16838 14.7565 6.49382C15.0819 6.81925 15.0819 7.34676 14.7565 7.6722L8.92318 13.5055C8.59774 13.831 8.07023 13.831 7.74479 13.5055L5.24479 11.0055C4.91935 10.6801 4.91935 10.1526 5.24479 9.82715C5.57023 9.50171 6.09774 9.50171 6.42318 9.82715L8.33398 11.738L13.5781 6.49382Z" fill="#1DC94D"/>
<path d="M17.5007 9.99967C17.5007 5.85754 14.1427 2.49967 10.0007 2.49967C5.85851 2.49967 2.50065 5.85754 2.50065 9.99967C2.50065 14.1418 5.85852 17.4997 10.0007 17.4997C14.1427 17.4997 17.5007 14.1418 17.5007 9.99967ZM19.1673 9.99967C19.1673 15.0622 15.0632 19.1663 10.0007 19.1663C4.93804 19.1663 0.833984 15.0622 0.833984 9.99967C0.833984 4.93706 4.93804 0.833008 10.0007 0.833008C15.0632 0.833008 19.1673 4.93706 19.1673 9.99967Z" fill="#1DC94D"/>
</g>
<defs>
<clipPath id="clip0_38737_38719">
<rect width="20" height="20" fill="white"/>
</clipPath>
</defs>
</svg>
