<svg width="32" height="32" viewBox="0 0 32 32" fill="none" xmlns="http://www.w3.org/2000/svg">
<g id="social_icon">
<g clip-path="url(#clip0_18681_113500)">
<rect width="32" height="32" rx="16" fill="white"/>
<path id="Subtract" d="M6.4 0C2.86538 0 0 2.86538 0 6.4V25.6C0 29.1346 2.86538 32 6.4 32H12.0986V20.8869H8.77262V16.0109H12.0986C12.0986 16.5262 12.155 14.2683 12.155 13.116C12.155 8.07079 15.3092 5.88158 19.3293 5.88158C22.5455 5.88158 23.6144 6.20269 23.4702 6.36325V10.6557H21.1498C18.8274 10.6557 17.9765 11.7763 17.9765 14.0993V16.0109H23.2852L22.3349 20.8869H17.9765V32H25.6C29.1346 32 32 29.1346 32 25.6V6.4C32 2.86538 29.1346 0 25.6 0H6.4Z" fill="#0866FF"/>
</g>
</g>
<defs>
<clipPath id="clip0_18681_113500">
<rect width="32" height="32" rx="16" fill="white"/>
</clipPath>
</defs>
</svg>
