<svg width="120" height="28" viewBox="0 0 120 28" fill="none" xmlns="http://www.w3.org/2000/svg">
<path d="M22.0866 9.67615H18.9309C19.0159 9.18099 19.3226 8.90385 19.9434 8.58975L20.5235 8.29413C21.5619 7.76202 22.1162 7.15969 22.1162 6.17676C22.1162 5.55965 21.876 5.07188 21.3993 4.72083C20.9226 4.36978 20.3609 4.19611 19.7032 4.19611C19.1943 4.19012 18.6948 4.33267 18.2657 4.60628C17.8334 4.87234 17.5119 5.21599 17.3124 5.64464L18.2251 6.56106C18.5798 5.84418 19.0935 5.49314 19.7697 5.49314C20.3425 5.49314 20.6935 5.78876 20.6935 6.19893C20.6935 6.54259 20.5235 6.82712 19.8658 7.15969L19.4925 7.34076C18.6833 7.75093 18.1216 8.22023 17.7964 8.75234C17.4713 9.28446 17.3124 9.9533 17.3124 10.7626V10.9843H22.0866V9.67615ZM21.6654 12.4919H16.4403L13.8277 17.0149H19.0528L21.6654 21.5416L24.2779 17.0149L21.6654 12.4919Z" fill="white"/>
<path d="M14.2786 20.0339C10.9528 20.0339 8.24423 17.3253 8.24423 13.9996C8.24423 10.6739 10.9528 7.96525 14.2786 7.96525L16.3442 3.64551C15.664 3.51025 14.9721 3.44218 14.2786 3.44228C8.44747 3.44228 3.72125 8.16849 3.72125 13.9996C3.72125 19.8307 8.44747 24.5569 14.2786 24.5569C16.5132 24.5611 18.6907 23.8516 20.494 22.5319L18.2103 18.5706C17.1178 19.5144 15.7223 20.0337 14.2786 20.0339Z" fill="white"/>
<path d="M44 6L45.9279 11.3464L51.6085 11.5279L47.1195 15.0136L48.7023 20.4721L44 17.28L39.2977 20.4721L40.8805 15.0136L36.3915 11.5279L42.0721 11.3464L44 6Z" fill="url(#paint0_linear_18681_97024)"/>
<path d="M61 6L62.9279 11.3464L68.6085 11.5279L64.1195 15.0136L65.7023 20.4721L61 17.28L56.2977 20.4721L57.8805 15.0136L53.3915 11.5279L59.0721 11.3464L61 6Z" fill="url(#paint1_linear_18681_97024)"/>
<path d="M78 6L79.8339 11.4759L85.6085 11.5279L80.9673 14.9641L82.7023 20.4721L78 17.12L73.2977 20.4721L75.0327 14.9641L70.3915 11.5279L76.1661 11.4759L78 6Z" fill="url(#paint2_linear_18681_97024)"/>
<path d="M95 6L96.8339 11.4759L102.608 11.5279L97.9673 14.9641L99.7023 20.4721L95 17.12L90.2977 20.4721L92.0327 14.9641L87.3915 11.5279L93.1661 11.4759L95 6Z" fill="url(#paint3_linear_18681_97024)"/>
<path d="M113.834 11.4756L119.608 11.5283L114.968 14.9639L116.702 20.4717L112 17.1201L107.298 20.4717L109.032 14.9639L104.392 11.5283L110.166 11.4756L112 6L113.834 11.4756ZM112.055 16.167L115.232 18.4414L114.039 14.6641L117.262 12.2812H113.272L112.055 8.69922V16.167Z" fill="url(#paint4_linear_18681_97024)"/>
<defs>
<linearGradient id="paint0_linear_18681_97024" x1="44" y1="6" x2="44" y2="22" gradientUnits="userSpaceOnUse">
<stop stop-color="white"/>
<stop offset="1" stop-color="white" stop-opacity="0.6"/>
</linearGradient>
<linearGradient id="paint1_linear_18681_97024" x1="61" y1="6" x2="61" y2="22" gradientUnits="userSpaceOnUse">
<stop stop-color="white"/>
<stop offset="1" stop-color="white" stop-opacity="0.6"/>
</linearGradient>
<linearGradient id="paint2_linear_18681_97024" x1="78" y1="6" x2="78" y2="22" gradientUnits="userSpaceOnUse">
<stop stop-color="white"/>
<stop offset="1" stop-color="white" stop-opacity="0.6"/>
</linearGradient>
<linearGradient id="paint3_linear_18681_97024" x1="95" y1="6" x2="95" y2="22" gradientUnits="userSpaceOnUse">
<stop stop-color="white"/>
<stop offset="1" stop-color="white" stop-opacity="0.6"/>
</linearGradient>
<linearGradient id="paint4_linear_18681_97024" x1="112" y1="6" x2="112" y2="22" gradientUnits="userSpaceOnUse">
<stop stop-color="white"/>
<stop offset="1" stop-color="white" stop-opacity="0.6"/>
</linearGradient>
</defs>
</svg>
