<svg width="120" height="28" viewBox="0 0 120 28" fill="none" xmlns="http://www.w3.org/2000/svg">
<path d="M14 2C20.6274 2 26 7.37258 26 14C26 20.6274 20.6274 26 14 26C7.37258 26 2 20.6274 2 14C2 7.37258 7.37258 2 14 2ZM9.39453 7.73242V20.8564H12.0273V16.9053H15.4004C18.6741 16.9051 20.332 14.5389 20.332 12.1807C20.3318 9.82261 18.3094 7.7326 15.4004 7.73242H9.39453ZM15.4648 10.3535C16.367 10.3536 17.7009 10.7733 17.7012 12.2139C17.7012 13.6548 16.6176 14.2938 15.4648 14.2939H12.0254V10.3535H15.4648Z" fill="white"/>
<path d="M44 6L45.9279 11.3464L51.6085 11.5279L47.1195 15.0136L48.7023 20.4721L44 17.28L39.2977 20.4721L40.8805 15.0136L36.3915 11.5279L42.0721 11.3464L44 6Z" fill="url(#paint0_linear_18681_97042)"/>
<path d="M61 6L62.9279 11.3464L68.6085 11.5279L64.1195 15.0136L65.7023 20.4721L61 17.28L56.2977 20.4721L57.8805 15.0136L53.3915 11.5279L59.0721 11.3464L61 6Z" fill="url(#paint1_linear_18681_97042)"/>
<path d="M78 6L79.8339 11.4759L85.6085 11.5279L80.9673 14.9641L82.7023 20.4721L78 17.12L73.2977 20.4721L75.0327 14.9641L70.3915 11.5279L76.1661 11.4759L78 6Z" fill="url(#paint2_linear_18681_97042)"/>
<path d="M95 6L96.8339 11.4759L102.608 11.5279L97.9673 14.9641L99.7023 20.4721L95 17.12L90.2977 20.4721L92.0327 14.9641L87.3915 11.5279L93.1661 11.4759L95 6Z" fill="url(#paint3_linear_18681_97042)"/>
<path d="M112 6L113.834 11.4759L119.608 11.5279L114.967 14.9641L116.702 20.4721L112 17.12L107.298 20.4721L109.033 14.9641L104.392 11.5279L110.166 11.4759L112 6Z" fill="url(#paint4_linear_18681_97042)"/>
<defs>
<linearGradient id="paint0_linear_18681_97042" x1="44" y1="6" x2="44" y2="22" gradientUnits="userSpaceOnUse">
<stop stop-color="white"/>
<stop offset="1" stop-color="white" stop-opacity="0.6"/>
</linearGradient>
<linearGradient id="paint1_linear_18681_97042" x1="61" y1="6" x2="61" y2="22" gradientUnits="userSpaceOnUse">
<stop stop-color="white"/>
<stop offset="1" stop-color="white" stop-opacity="0.6"/>
</linearGradient>
<linearGradient id="paint2_linear_18681_97042" x1="78" y1="6" x2="78" y2="22" gradientUnits="userSpaceOnUse">
<stop stop-color="white"/>
<stop offset="1" stop-color="white" stop-opacity="0.6"/>
</linearGradient>
<linearGradient id="paint3_linear_18681_97042" x1="95" y1="6" x2="95" y2="22" gradientUnits="userSpaceOnUse">
<stop stop-color="white"/>
<stop offset="1" stop-color="white" stop-opacity="0.6"/>
</linearGradient>
<linearGradient id="paint4_linear_18681_97042" x1="112" y1="6" x2="112" y2="22" gradientUnits="userSpaceOnUse">
<stop stop-color="white"/>
<stop offset="1" stop-color="white" stop-opacity="0.6"/>
</linearGradient>
</defs>
</svg>
