<svg width="36" height="28" viewBox="0 0 36 28" fill="none" xmlns="http://www.w3.org/2000/svg">
<g id="Group 3">
<path id="Ellipse 380" d="M16.8061 0.955078C7.9246 0.955078 0.724731 8.15495 0.724731 17.0364C0.724731 19.7176 1.38089 22.2455 2.54137 24.4684C3.05517 25.4526 4.11459 25.9943 5.22479 25.9943H28.3874C29.4976 25.9943 30.557 25.4526 31.0708 24.4684C32.2313 22.2455 32.8874 19.7176 32.8874 17.0364C32.8874 8.15495 25.6876 0.955078 16.8061 0.955078Z" fill="url(#paint0_linear_18701_25597)"/>
<path id="Vector" d="M6.56385 25.9944C4.96113 23.0448 4.43073 19.6307 5.06301 16.3339C5.6953 13.0371 7.45115 10.0615 10.0314 7.91413C12.6116 5.76677 15.8566 4.58051 19.2134 4.55747C22.5703 4.53443 25.8312 5.67603 28.4407 7.78777C31.0502 9.8995 32.8467 12.8507 33.5242 16.1385C34.2017 19.4264 33.7182 22.8474 32.1561 25.8187M12.4185 22.8131C11.5518 21.218 11.265 19.3718 11.6069 17.5889C11.9488 15.8061 12.8984 14.1969 14.2937 13.0357C15.6891 11.8744 17.4439 11.2329 19.2592 11.2205C21.0745 11.208 22.838 11.8254 24.2491 12.9673C25.6603 14.1093 26.6318 15.7053 26.9982 17.4833C27.3645 19.2613 27.1031 21.1113 26.2583 22.7181" stroke="white" stroke-width="2.5" stroke-linecap="round"/>
<path id="Vector 31" d="M28.7828 6.45166L19.6918 18.6405" stroke="white" stroke-width="2.5" stroke-linecap="round" stroke-linejoin="round"/>
<circle id="Ellipse 377" cx="19.6917" cy="19.1371" r="2.88612" fill="white"/>
</g>
<defs>
<linearGradient id="paint0_linear_18701_25597" x1="0.724731" y1="13.4747" x2="32.8874" y2="13.4747" gradientUnits="userSpaceOnUse">
<stop stop-color="white" stop-opacity="0.2"/>
<stop offset="1" stop-color="white" stop-opacity="0"/>
</linearGradient>
</defs>
</svg>
