<svg width="100" height="100" viewBox="0 0 100 100" fill="none" xmlns="http://www.w3.org/2000/svg">
<circle cx="50" cy="50" r="44" stroke="#1DC94D" stroke-width="10"/>
<path d="M36.8771 31.5455V49H33.7152V34.6222H33.6129L29.5305 37.2301V34.3324L33.8686 31.5455H36.8771ZM47.7607 49.3324C46.3572 49.3324 45.1527 48.9773 44.147 48.267C43.147 47.5511 42.3771 46.5199 41.8374 45.1733C41.3033 43.821 41.0362 42.1932 41.0362 40.2898C41.0419 38.3864 41.3118 36.767 41.8459 35.4318C42.3857 34.0909 43.1555 33.0682 44.1555 32.3636C45.1612 31.6591 46.3629 31.3068 47.7607 31.3068C49.1584 31.3068 50.3601 31.6591 51.3658 32.3636C52.3714 33.0682 53.1413 34.0909 53.6754 35.4318C54.2152 36.7727 54.4851 38.392 54.4851 40.2898C54.4851 42.1989 54.2152 43.8295 53.6754 45.1818C53.1413 46.5284 52.3714 47.5568 51.3658 48.267C50.3658 48.9773 49.1641 49.3324 47.7607 49.3324ZM47.7607 46.6648C48.8516 46.6648 49.7124 46.1278 50.343 45.054C50.9794 43.9744 51.2976 42.3864 51.2976 40.2898C51.2976 38.9034 51.1527 37.7386 50.8629 36.7955C50.5732 35.8523 50.1641 35.142 49.6357 34.6648C49.1072 34.1818 48.4822 33.9403 47.7607 33.9403C46.6754 33.9403 45.8175 34.4801 45.1868 35.5597C44.5561 36.6335 44.2379 38.2102 44.2322 40.2898C44.2266 41.6818 44.3658 42.8523 44.6499 43.8011C44.9396 44.75 45.3487 45.4659 45.8771 45.9489C46.4055 46.4261 47.0334 46.6648 47.7607 46.6648ZM63.7685 49.3324C62.3651 49.3324 61.1605 48.9773 60.1548 48.267C59.1548 47.5511 58.3849 46.5199 57.8452 45.1733C57.3111 43.821 57.044 42.1932 57.044 40.2898C57.0497 38.3864 57.3196 36.767 57.8537 35.4318C58.3935 34.0909 59.1634 33.0682 60.1634 32.3636C61.169 31.6591 62.3707 31.3068 63.7685 31.3068C65.1662 31.3068 66.3679 31.6591 67.3736 32.3636C68.3793 33.0682 69.1491 34.0909 69.6832 35.4318C70.223 36.7727 70.4929 38.392 70.4929 40.2898C70.4929 42.1989 70.223 43.8295 69.6832 45.1818C69.1491 46.5284 68.3793 47.5568 67.3736 48.267C66.3736 48.9773 65.1719 49.3324 63.7685 49.3324ZM63.7685 46.6648C64.8594 46.6648 65.7202 46.1278 66.3509 45.054C66.9872 43.9744 67.3054 42.3864 67.3054 40.2898C67.3054 38.9034 67.1605 37.7386 66.8707 36.7955C66.581 35.8523 66.1719 35.142 65.6435 34.6648C65.1151 34.1818 64.4901 33.9403 63.7685 33.9403C62.6832 33.9403 61.8253 34.4801 61.1946 35.5597C60.5639 36.6335 60.2457 38.2102 60.2401 40.2898C60.2344 41.6818 60.3736 42.8523 60.6577 43.8011C60.9474 44.75 61.3565 45.4659 61.8849 45.9489C62.4134 46.4261 63.0412 46.6648 63.7685 46.6648Z" fill="#1DC94D"/>
<path d="M40.8761 62.1023L37.8292 73.4219H36.8321L39.879 62.1023H40.8761ZM45.473 62.5455V72H44.3281V63.7457H44.2727L41.9644 65.2784V64.1151L44.3281 62.5455H45.473ZM51.2759 72.1293C50.5803 72.1293 49.9879 71.94 49.4985 71.5614C49.0092 71.1798 48.6353 70.6274 48.3767 69.9041C48.1182 69.1778 47.9889 68.3007 47.9889 67.2727C47.9889 66.2509 48.1182 65.3784 48.3767 64.6552C48.6383 63.9289 49.0138 63.3749 49.5032 62.9933C49.9956 62.6085 50.5865 62.4162 51.2759 62.4162C51.9653 62.4162 52.5546 62.6085 53.044 62.9933C53.5364 63.3749 53.9119 63.9289 54.1704 64.6552C54.432 65.3784 54.5628 66.2509 54.5628 67.2727C54.5628 68.3007 54.4335 69.1778 54.175 69.9041C53.9165 70.6274 53.5426 71.1798 53.0532 71.5614C52.5639 71.94 51.9714 72.1293 51.2759 72.1293ZM51.2759 71.1136C51.9653 71.1136 52.5008 70.7812 52.8824 70.1165C53.264 69.4517 53.4549 68.5038 53.4549 67.2727C53.4549 66.4541 53.3671 65.757 53.1917 65.1815C53.0194 64.6059 52.7701 64.1674 52.4438 63.8658C52.1207 63.5642 51.7314 63.4134 51.2759 63.4134C50.5926 63.4134 50.0587 63.7504 49.674 64.4244C49.2893 65.0953 49.0969 66.0447 49.0969 67.2727C49.0969 68.0914 49.1831 68.7869 49.3554 69.3594C49.5278 69.9318 49.7755 70.3673 50.0987 70.6658C50.4249 70.9644 50.8173 71.1136 51.2759 71.1136ZM59.4009 72.1293C58.7053 72.1293 58.1129 71.94 57.6235 71.5614C57.1342 71.1798 56.7603 70.6274 56.5017 69.9041C56.2432 69.1778 56.1139 68.3007 56.1139 67.2727C56.1139 66.2509 56.2432 65.3784 56.5017 64.6552C56.7633 63.9289 57.1388 63.3749 57.6282 62.9933C58.1206 62.6085 58.7115 62.4162 59.4009 62.4162C60.0903 62.4162 60.6796 62.6085 61.169 62.9933C61.6614 63.3749 62.0369 63.9289 62.2954 64.6552C62.557 65.3784 62.6878 66.2509 62.6878 67.2727C62.6878 68.3007 62.5585 69.1778 62.3 69.9041C62.0415 70.6274 61.6676 71.1798 61.1782 71.5614C60.6889 71.94 60.0964 72.1293 59.4009 72.1293ZM59.4009 71.1136C60.0903 71.1136 60.6258 70.7812 61.0074 70.1165C61.389 69.4517 61.5799 68.5038 61.5799 67.2727C61.5799 66.4541 61.4921 65.757 61.3167 65.1815C61.1444 64.6059 60.8951 64.1674 60.5688 63.8658C60.2457 63.5642 59.8564 63.4134 59.4009 63.4134C58.7176 63.4134 58.1837 63.7504 57.799 64.4244C57.4143 65.0953 57.2219 66.0447 57.2219 67.2727C57.2219 68.0914 57.3081 68.7869 57.4804 69.3594C57.6528 69.9318 57.9005 70.3673 58.2237 70.6658C58.5499 70.9644 58.9423 71.1136 59.4009 71.1136Z" fill="#34393D"/>
</svg>
