<svg width="56" height="56" viewBox="0 0 56 56" fill="none" xmlns="http://www.w3.org/2000/svg">
<g id="Live-chat">
<rect id="Rectangle 2955" width="56" height="56" rx="12" fill="white"/>
<path id="Vector 887" d="M23.4633 35.2928V41.104C22.6422 41.1381 20.7706 41.2062 19.8524 41.2062C18.7046 41.2062 16.2861 41.3773 13.847 39.5243C11.408 37.6714 10.0932 34.851 10.0932 31.7833C10.0932 28.7156 9.78885 25.5858 10.2808 20.171C10.7727 14.7562 13.163 12.1178 17.6721 11.4796C22.1812 10.8413 28.959 10.9271 36.2491 11.2354C43.6842 11.5499 45.6553 15.2554 45.8473 19.9101C46.0275 24.2803 46.0863 28.3889 45.8114 32.9682C45.5227 37.7772 42.0166 41.104 37.5306 41.104H32.4903L23.5703 47L23.5104 41.1477L32.4903 35.2928H37.4249C39.7978 35.2928 40.0766 32.5939 40.1286 30.2625C40.1805 27.9311 40.1438 22.9886 39.9533 20.0134C39.7628 17.0383 37.7053 17.0073 33.7909 17.0073C29.8765 17.0073 23.3237 16.9529 20.2234 17.0921C17.123 17.2313 16.521 17.6403 16.1746 19.9196C15.8282 22.1988 16.1053 30.5671 16.1053 31.7833C16.1053 32.9995 16.5129 35.2928 18.8895 35.2928H23.4633Z" fill="#FF5100"/>
</g>
</svg>
