<svg width="56" height="56" viewBox="0 0 56 56" fill="none" xmlns="http://www.w3.org/2000/svg" preserveAspectRatio="none">
<path d="M0 12C0 5.37258 5.37258 0 12 0H44C50.6274 0 56 5.37258 56 12V44C56 50.6274 50.6274 56 44 56H12C5.37258 56 0 50.6274 0 44V12Z" fill="url(#paint0_linear_6254_20162)"/>
<path d="M38.4185 16.9883C37.3117 17.229 30.349 20.1152 27.4482 21.3457C24.0801 22.8076 17.0062 25.8781 15.6555 26.4656C13.9671 27.2 11.6573 28.0975 10.9166 28.7377C10.176 29.3779 10.7712 30.1964 11.8923 30.5823C13.0134 30.9681 16.7844 32.111 18.1457 32.111C19.507 32.111 20.4555 31.3691 22.9186 29.7123L22.9478 29.6927C25.4351 28.0195 32.209 23.4631 32.7187 23.2063C33.2304 22.9485 33.5273 23.3196 33.5547 23.5969C33.582 23.8743 33.1902 24.2418 32.4404 25.0493C31.6906 25.8568 25.0445 31.9986 24.1774 32.9331C23.3103 33.8676 23.7679 34.7141 25.4819 35.9384C27.196 37.1628 32.3831 40.5729 33.3833 41.197C34.3835 41.8212 34.4791 41.9983 35.832 41.9983C37.5425 41.9983 37.7572 39.5209 38.5725 34.8413C39.3878 30.1617 40.4935 23.0379 40.6675 21.4498C40.8416 19.8617 41.1804 17.9687 40.7473 17.425C40.3142 16.8812 39.5252 16.7475 38.4185 16.9883Z" fill="white"/>
<defs>
<linearGradient id="paint0_linear_6254_20162" x1="28" y1="0" x2="28" y2="56" gradientUnits="userSpaceOnUse">
<stop stop-color="#2AABEE"/>
<stop offset="1" stop-color="#229EDA"/>
</linearGradient>
</defs>
</svg>
