<svg width="188" height="36" viewBox="0 0 188 36" fill="none" xmlns="http://www.w3.org/2000/svg">
<path d="M2.3418 4.97357V22.4081L14.0344 34.2051L25.727 22.4081V4.97357C25.727 4.97357 14.8696 -2.75188 2.3418 4.97357Z" fill="white"/>
<path d="M2.3418 22.4081L7.97928 16.7706L13.8256 22.4081L25.727 10.9242V22.4081L14.0344 34.2051L2.3418 22.4081Z" fill="#CC1517" stroke="black" stroke-width="0.073937"/>
<path d="M19.5196 16.9151L13.8268 22.4082L7.98047 16.7707L13.6778 11.0734L19.5196 16.9151Z" fill="#1F2A3E" stroke="black" stroke-width="0.073937"/>
<path d="M38.4554 15.069C38.085 14.7684 37.715 14.5457 37.3449 14.4009C36.9745 14.2564 36.6161 14.184 36.269 14.184C35.8292 14.184 35.4708 14.2881 35.1932 14.4963C34.9156 14.7046 34.7767 14.9766 34.7767 15.3119C34.7767 15.5434 34.8462 15.7343 34.9849 15.8846C35.1238 16.0351 35.306 16.1652 35.5316 16.275C35.7571 16.3851 36.0115 16.4805 36.2951 16.5613C36.5784 16.6424 36.859 16.7291 37.1367 16.8216C38.2472 17.1919 39.0597 17.6865 39.5746 18.3051C40.0892 18.9241 40.3468 19.731 40.3468 20.7258C40.3468 21.3968 40.234 22.0041 40.0084 22.5478C39.7828 23.0917 39.4532 23.5572 39.0194 23.9446C38.5855 24.3323 38.0533 24.633 37.4229 24.8469C36.7923 25.0608 36.0782 25.168 35.2799 25.168C33.6255 25.168 32.0928 24.6764 30.6816 23.693L32.1392 20.9514C32.6482 21.4025 33.1514 21.7382 33.6489 21.9578C34.1461 22.1777 34.6379 22.2875 35.1238 22.2875C35.679 22.2875 36.0925 22.1603 36.3644 21.9057C36.6361 21.6515 36.7722 21.3621 36.7722 21.0381C36.7722 20.8415 36.7375 20.671 36.6681 20.5262C36.5987 20.3817 36.483 20.2486 36.3211 20.1272C36.1589 20.0057 35.948 19.8929 35.6877 19.7888C35.4274 19.6847 35.1122 19.5692 34.742 19.4417C34.3023 19.3029 33.8714 19.1498 33.4493 18.982C33.0269 18.8143 32.6511 18.5915 32.3214 18.3139C31.9917 18.0362 31.7255 17.6865 31.5232 17.264C31.3207 16.8419 31.2195 16.307 31.2195 15.659C31.2195 15.0112 31.3264 14.4243 31.5406 13.8978C31.7545 13.3715 32.0552 12.9203 32.4429 12.5443C32.8303 12.1684 33.3045 11.8762 33.8658 11.668C34.4267 11.4598 35.0544 11.3557 35.7485 11.3557C36.3962 11.3557 37.0729 11.4454 37.7786 11.6246C38.4841 11.8041 39.1609 12.0671 39.8089 12.4141L38.4554 15.069Z" fill="#CC1517" stroke="black" stroke-width="0.073937"/>
<path d="M52.2387 16.0928C51.4519 15.1327 50.4802 14.6526 49.3236 14.6526C48.8144 14.6526 48.3432 14.7453 47.9094 14.9302C47.4756 15.1153 47.1025 15.367 46.7901 15.685C46.4778 16.0033 46.2319 16.3821 46.0527 16.8216C45.8732 17.2614 45.7838 17.7355 45.7838 18.2444C45.7838 18.765 45.8732 19.2452 46.0527 19.6847C46.2319 20.1244 46.4805 20.5062 46.7988 20.8299C47.1168 21.1539 47.49 21.4085 47.9181 21.5934C48.3459 21.7785 48.8087 21.871 49.3062 21.871C50.3934 21.871 51.3711 21.4085 52.2387 20.4829V24.5086L51.8917 24.6301C51.3711 24.8149 50.8853 24.951 50.4341 25.0378C49.983 25.1246 49.5375 25.168 49.098 25.168C48.1957 25.168 47.3308 24.9972 46.5038 24.656C45.6766 24.315 44.9478 23.8348 44.3175 23.2159C43.6868 22.5971 43.1809 21.8624 42.7991 21.0121C42.4174 20.1618 42.2266 19.2335 42.2266 18.2271C42.2266 17.2206 42.4144 16.2983 42.7905 15.4595C43.1662 14.6208 43.6695 13.8978 44.3001 13.2904C44.9305 12.6831 45.6623 12.2089 46.4952 11.8675C47.3281 11.5264 48.2013 11.3557 49.1153 11.3557C49.6359 11.3557 50.1478 11.4107 50.651 11.5205C51.1542 11.6305 51.6835 11.8011 52.2387 12.0324V16.0928Z" fill="#CC1517" stroke="black" stroke-width="0.073937"/>
<path d="M62.1528 19.9452L60.6258 15.5898L59.0989 19.9452H62.1528ZM63.0551 22.5306H58.1965L57.4157 24.8037H53.7891L58.7692 11.7203H62.4825L67.4626 24.8037H63.836L63.0551 22.5306Z" fill="#CC1517" stroke="black" stroke-width="0.073937"/>
<path d="M68.9062 24.8037L71.1273 11.7202H74.4937L77.1139 18.6958L79.7166 11.7202H83.0829L85.3041 24.8037H81.9203L80.7925 17.2729L77.7038 24.8037H76.3504L73.4178 17.2729L72.29 24.8037H68.9062Z" fill="#CC1517" stroke="black" stroke-width="0.073937"/>
<path d="M94.9477 19.9452L93.4207 15.5898L91.8938 19.9452H94.9477ZM95.8501 22.5306H90.9914L90.2106 24.8037H86.584L91.5641 11.7203H95.2774L100.258 24.8037H96.6309L95.8501 22.5306Z" fill="white" stroke="white" stroke-width="0.073937"/>
<path d="M105.19 21.9232H105.971C106.561 21.9232 107.087 21.8308 107.55 21.6456C108.012 21.4607 108.403 21.2061 108.721 20.8821C109.039 20.5584 109.282 20.1736 109.45 19.7282C109.618 19.283 109.702 18.7942 109.702 18.2619C109.702 17.7413 109.615 17.2555 109.441 16.8043C109.268 16.3532 109.022 15.9658 108.704 15.6418C108.386 15.318 107.995 15.0634 107.533 14.8783C107.07 14.6933 106.549 14.6006 105.971 14.6006H105.19V21.9232ZM101.789 11.7202H106.821C107.712 11.7202 108.548 11.8997 109.329 12.2581C110.109 12.6168 110.792 13.094 111.376 13.6897C111.96 14.2856 112.42 14.9797 112.756 15.7719C113.091 16.5644 113.259 17.3943 113.259 18.2619C113.259 19.1182 113.094 19.9424 112.764 20.7346C112.435 21.5271 111.977 22.2241 111.393 22.8255C110.809 23.4272 110.127 23.9073 109.346 24.2658C108.565 24.6245 107.723 24.8037 106.821 24.8037H101.789V11.7202Z" fill="white" stroke="white" stroke-width="0.073937"/>
<path d="M116.852 11.7203L120.01 19.6849L123.186 11.7203H126.882L121.364 24.8038H118.657L113.156 11.7203H116.852Z" fill="white" stroke="white" stroke-width="0.073937"/>
<path d="M131.766 24.8037H128.365V11.7202H131.766V24.8037Z" fill="white" stroke="white" stroke-width="0.073937"/>
<path d="M141.739 15.069C141.368 14.7684 140.998 14.5457 140.628 14.4009C140.258 14.2564 139.899 14.184 139.552 14.184C139.112 14.184 138.754 14.2881 138.476 14.4963C138.199 14.7046 138.06 14.9766 138.06 15.3119C138.06 15.5434 138.129 15.7343 138.268 15.8846C138.407 16.0351 138.589 16.1652 138.815 16.275C139.04 16.3851 139.295 16.4805 139.578 16.5613C139.862 16.6424 140.142 16.7291 140.42 16.8216C141.53 17.1919 142.343 17.6865 142.858 18.3051C143.372 18.9241 143.63 19.731 143.63 20.7258C143.63 21.3968 143.517 22.0041 143.292 22.5478C143.066 23.0917 142.736 23.5572 142.303 23.9446C141.869 24.3323 141.337 24.633 140.706 24.8469C140.076 25.0608 139.361 25.168 138.563 25.168C136.909 25.168 135.376 24.6764 133.965 23.693L135.422 20.9514C135.931 21.4025 136.435 21.7382 136.932 21.9578C137.429 22.1777 137.921 22.2875 138.407 22.2875C138.962 22.2875 139.376 22.1603 139.648 21.9057C139.919 21.6515 140.055 21.3621 140.055 21.0381C140.055 20.8415 140.021 20.671 139.951 20.5262C139.882 20.3817 139.766 20.2486 139.604 20.1272C139.442 20.0057 139.231 19.8929 138.971 19.7888C138.711 19.6847 138.395 19.5692 138.025 19.4417C137.585 19.3029 137.155 19.1498 136.732 18.982C136.31 18.8143 135.934 18.5915 135.605 18.3139C135.275 18.0362 135.009 17.6865 134.806 17.264C134.604 16.8419 134.503 16.307 134.503 15.659C134.503 15.0112 134.61 14.4243 134.824 13.8978C135.038 13.3715 135.338 12.9203 135.726 12.5443C136.114 12.1684 136.588 11.8762 137.149 11.668C137.71 11.4598 138.338 11.3557 139.032 11.3557C139.679 11.3557 140.356 11.4454 141.062 11.6246C141.767 11.8041 142.444 12.0671 143.092 12.4141L141.739 15.069Z" fill="white" stroke="white" stroke-width="0.073937"/>
<path d="M153.485 14.6006H149.442V16.787H153.26V19.6675H149.442V21.9232H153.485V24.8037H146.041V11.7202H153.485V14.6006Z" fill="white" stroke="white" stroke-width="0.073937"/>
<path d="M159.671 17.5679H160.313C160.983 17.5679 161.498 17.4291 161.857 17.1515C162.215 16.8738 162.395 16.4747 162.395 15.9542C162.395 15.4335 162.215 15.0345 161.857 14.7569C161.498 14.4792 160.983 14.3404 160.313 14.3404H159.671V17.5679ZM167.149 24.8037H162.915L159.671 19.7716V24.8037H156.27V11.7203H161.562C162.291 11.7203 162.927 11.8273 163.471 12.0412C164.014 12.2554 164.462 12.5474 164.815 12.9175C165.168 13.2879 165.434 13.7158 165.614 14.2016C165.793 14.6874 165.883 15.2079 165.883 15.7633C165.883 16.7583 165.642 17.5652 165.163 18.1839C164.682 18.8028 163.974 19.2223 163.037 19.4419L167.149 24.8037Z" fill="white" stroke="white" stroke-width="0.073937"/>
</svg>
