<svg width="34" height="26" viewBox="0 0 34 26" fill="none" xmlns="http://www.w3.org/2000/svg">
<g id="&#231;&#137;&#136;&#230;&#156;&#172;5">
<path id="Vector 42 (Stroke)" fill-rule="evenodd" clip-rule="evenodd" d="M9.43261 12.9878L10.2442 15.1555L10.3349 14.8279C10.4611 14.3722 10.8171 14.0162 11.2727 13.8901L11.6003 13.7994L9.43261 12.9878ZM6.41605 11.7032C6.0112 10.6219 7.06675 9.56634 8.14808 9.97119L15.3988 12.6859C16.6196 13.143 16.5423 14.8952 15.286 15.2429L12.468 16.0231L11.6878 18.8412C11.34 20.0974 9.5878 20.1747 9.13073 18.9539L6.41605 11.7032Z" fill="white"/>
<path id="Subtract" d="M11.0879 0.855469C13.7141 0.855648 15.8426 2.98416 15.8428 5.61035V11.0049L13.249 10.0342V5.61035C13.2489 4.41676 12.2815 3.4494 11.0879 3.44922H5.23633C4.04281 3.44948 3.07534 4.41681 3.0752 5.61035V20.7217C3.0752 21.9153 4.04272 22.8835 5.23633 22.8838H11.0879C12.2816 22.8836 13.249 21.9154 13.249 20.7217V19.6152C13.2878 19.5146 13.3245 19.411 13.3545 19.3027L13.873 17.4287L15.7471 16.9092C15.7796 16.9002 15.811 16.8877 15.8428 16.8779V20.7217C15.8428 23.348 13.7142 25.4774 11.0879 25.4775H5.23633C2.61012 25.4773 0.481445 23.3479 0.481445 20.7217V5.61035C0.481595 2.98421 2.61021 0.85573 5.23633 0.855469H11.0879ZM15.3984 12.6855C15.5731 12.7509 15.7209 12.8436 15.8428 12.9541V14.9385C15.6946 15.0739 15.5095 15.1813 15.2861 15.2432L13.249 15.8066V11.8799L15.3984 12.6855Z" fill="white"/>
<path id="Vector 42 (Stroke)_2" opacity="0.6" fill-rule="evenodd" clip-rule="evenodd" d="M26.1428 12.9878L26.9544 15.1555L27.0451 14.8279C27.1713 14.3722 27.5273 14.0162 27.9829 13.8901L28.3105 13.7994L26.1428 12.9878ZM23.1263 11.7032C22.7214 10.6219 23.777 9.56634 24.8583 9.97119L32.109 12.6859C33.3298 13.143 33.2525 14.8952 31.9962 15.2429L29.1782 16.0231L28.398 18.8412C28.0502 20.0974 26.298 20.1747 25.8409 18.9539L23.1263 11.7032Z" fill="white"/>
<path id="Subtract_2" d="M21.9133 0.855469C19.2869 0.855469 17.1577 2.98462 17.1577 5.61105V20.7222C17.1577 23.3486 19.2869 25.4777 21.9133 25.4777H27.764C30.3905 25.4777 32.5196 23.3486 32.5196 20.7222V16.8921C32.4991 16.8982 32.4785 16.9041 32.4577 16.9098L30.5836 17.4287L30.0647 19.3029C30.0258 19.4434 29.9792 19.5775 29.9257 19.705V20.7222C29.9257 21.916 28.9579 22.8838 27.764 22.8838H21.9133C20.7195 22.8838 19.7517 21.916 19.7517 20.7222V5.61105C19.7517 4.41721 20.7195 3.44942 21.9133 3.44942H27.764C28.9579 3.44942 29.9257 4.41721 29.9257 5.61104V10.0221L32.5196 10.9933V5.61104C32.5196 2.98461 30.3905 0.855469 27.764 0.855469H21.9133Z" fill="white"/>
</g>
</svg>
