<svg xmlns="http://www.w3.org/2000/svg" width="140" height="140" fill="currentColor" viewBox="0 0 140 140">
  <path d="M69.127 73.985a.6.6 0 0 1 .429 1.115l-.7.35a.6.6 0 0 1-.628-1.016c.27-.203.58-.36.899-.449Z"/>
  <path d="M74.103 107.92a.603.603 0 0 1 .533.034l11.278 6.514 2.411 1.387a.6.6 0 0 1 .195.859 18.665 18.665 0 0 1-1.579 1.995h.001c-2.001 2.28-4.398 3.953-7.171 4.999l-.003.001c-3.529 1.31-7.481 1.524-11.825.644a.598.598 0 0 1-.388-.907c1.38-2.19 2.576-4.542 3.614-7.058a57.994 57.994 0 0 0 2.144-6.338c.146-.561.292-1.144.44-1.725l.022-.067a.602.602 0 0 1 .328-.338Zm.369 2.442-.002.007a59.224 59.224 0 0 1-2.19 6.473l-.002.004a48.15 48.15 0 0 1-3.247 6.488c3.823.651 7.26.386 10.319-.75 2.582-.974 4.815-2.531 6.69-4.666l.008-.008c.389-.427.755-.877 1.103-1.346l-1.834-1.056-10.596-6.12c-.084.328-.166.656-.25.974Zm-27.655-18.07a.6.6 0 0 1 .653-.035l17.648 10.191a.6.6 0 0 1 .278.682c-.94 3.324-2.17 6.342-3.66 9.038-1.493 2.711-3.262 5.099-5.322 7.186a.6.6 0 0 1-.972-.171 134.942 134.942 0 0 1-4.68-11.5l-.567-1.643a117.905 117.905 0 0 1-3.612-13.138.6.6 0 0 1 .234-.61Zm1.232 1.685a117.12 117.12 0 0 0 3.284 11.68l.56 1.628a132.869 132.869 0 0 0 4.274 10.591 31.412 31.412 0 0 0 4.518-6.287v-.001c1.377-2.487 2.526-5.27 3.425-8.337l-16.06-9.274Zm-24.49-15.064a.6.6 0 0 1 .69-.063l13.69 7.915.105.076a.6.6 0 0 1 .184.331 140.144 140.144 0 0 0 2.6 11.124 157.972 157.972 0 0 0 3.649 11.319.6.6 0 0 1-.979.638c-4.289-4.085-8.154-8.752-11.584-13.998a87.875 87.875 0 0 1-8.525-16.67.601.601 0 0 1 .17-.672Zm1.583 1.84a86.697 86.697 0 0 0 7.777 14.846c2.879 4.404 6.068 8.387 9.555 11.954a155.07 155.07 0 0 1-2.801-8.933v-.002a141.462 141.462 0 0 1-2.57-10.95l-11.961-6.916Zm18.641-10.9c0-1.79.055-3.54.177-5.267a67.25 67.25 0 0 1 .516-5.061.6.6 0 0 1 .894-.437l10.915 6.3.227.122c1.109.58 1.903.58 2.49.252.621-.36 1.03-1.105 1.03-2.507 0-.791-.136-1.602-.413-2.419v-.002a10.352 10.352 0 0 0-.84-1.842c-.845-1.46-1.879-2.533-3.09-3.225l-.002-.002-8.818-5.101a.6.6 0 0 1-.276-.684c.94-3.31 2.154-6.327 3.645-9.036l.002-.003c1.08-1.942 2.3-3.738 3.674-5.36l.403-.467c.406-.462.82-.91 1.24-1.341a.6.6 0 0 1 .727-.103c.78.444 1.538.87 2.308 1.268l.004.002c.591.311 1.19.66 1.783 1.043l.592.394.01.006c1.256.898 2.075.98 2.63.71.548-.289.944-.975.944-2.403a9.738 9.738 0 0 0-.558-3.298l-.004-.012a8.69 8.69 0 0 0-.416-1.02l-.002-.003a8.554 8.554 0 0 0-2.813-3.371 64.763 64.763 0 0 0-2.535-1.667 74.668 74.668 0 0 0-2.537-1.523l-.003-.002a66.4 66.4 0 0 0-3.487-1.877.604.604 0 0 1-.074-.03c-4.153-2.063-8.145-3.387-11.924-3.996a37.238 37.238 0 0 0-2.37-.278c-4.743-.397-8.929.238-12.573 1.88l-1.853.92c-4.041 2.314-7.269 5.94-9.658 10.93-2.388 4.973-3.603 11.098-3.603 18.41 0 6.853 1.067 13.926 3.195 21.242l.44 1.466.464 1.47c2.373 7.324 5.511 14.333 9.402 21.062l.79 1.337a110.096 110.096 0 0 0 13.884 18.465c5.605 6.019 11.603 10.867 17.967 14.536 6.367 3.683 12.326 5.732 17.868 6.18 5.436.45 10.16-.451 14.171-2.685l.01-.006.214-.113c3.971-2.26 7.152-5.796 9.517-10.62l.019-.033a5.61 5.61 0 0 0 .145-.28c1.542-3.231 2.602-6.934 3.146-11.13v-.003c.305-2.271.452-4.707.452-7.269 0-.883-.013-1.858-.053-2.94a84.042 84.042 0 0 0-.172-2.995l-.062-.498a8.53 8.53 0 0 0-.354-1.451 9.215 9.215 0 0 0-1.113-2.24l-.002-.002a9.811 9.811 0 0 0-3.288-3.099l-.002-.002c-.426-.248-.804-.377-1.125-.42h-.011a1.748 1.748 0 0 0-.543.012.987.987 0 0 0-.362.13c-.125.063-.24.146-.404.272-.156.147-.29.292-.4.45-.37.574-.538 1.359-.431 2.413.15.983.234 1.862.234 2.616v2.395a43.42 43.42 0 0 1-.3 5.223 39.948 39.948 0 0 1-.875 4.907.598.598 0 0 1-.882.379l-15.79-9.113a.6.6 0 0 1-.295-.603c.227-1.628.4-3.298.52-4.995a64.712 64.712 0 0 0 .149-4.009c.025-.38.025-.765.025-1.172v-2.867c0-1.004-.04-1.966-.118-2.873a9.237 9.237 0 0 0-.465-2.118l-.104-.277a10.167 10.167 0 0 0-.965-1.874c-.884-1.358-1.935-2.378-3.16-3.078l-.001-.002c-.836-.478-1.47-.567-1.982-.415l-.03.005-.56.291c-.592.437-.929 1.18-.85 2.392l.022.253.001.013c.082.956.123 1.835.123 2.649v2.53c0 1.007-.027 2.012-.067 3-.027.773-.068 1.531-.109 2.27v.01a74.51 74.51 0 0 1-.393 3.976c-.04.361-.082.718-.137 1.09a.6.6 0 0 1-.894.432l-21.834-12.6a.6.6 0 0 1-.295-.448 92.978 92.978 0 0 1-.515-5.657l-.071-1.178a67.933 67.933 0 0 1-.082-2.332l-.01-1.149a17.97 17.97 0 0 1-.014-.82Zm-25.55-14.741c0-1.797.095-3.543.3-5.238l.077-.628a39.89 39.89 0 0 1 .798-4.265l.02-.067a.6.6 0 0 1 .863-.311l15.791 9.114a.6.6 0 0 1 .294.6c-.2 1.47-.36 2.978-.467 4.512v.007l-.04.485a73.232 73.232 0 0 0-.174 5.174c0 1.323.03 2.66.096 4.02l.078 1.365v.004c.107 1.83.28 3.704.508 5.605a.6.6 0 0 1-.896.59l-15.79-9.126a.601.601 0 0 1-.29-.409 68.44 68.44 0 0 1-.869-5.88 52.135 52.135 0 0 1-.299-5.552Zm21.523-26.863h.02c1.379.055 2.785.22 4.257.523a.6.6 0 0 1 .388.907 46.308 46.308 0 0 0-3.615 7.054 57.077 57.077 0 0 0-2.584 8.06.6.6 0 0 1-.883.378l-13.69-7.901a.6.6 0 0 1-.194-.86c2.299-3.338 5.221-5.667 8.75-6.992a17.93 17.93 0 0 1 4.66-1.073 22.181 22.181 0 0 1 2.89-.096Zm-.033 1.199c-.934-.026-1.85 0-2.736.092h-.005a16.736 16.736 0 0 0-4.354 1c-3.095 1.163-5.7 3.156-7.807 6.02l12.418 7.168.012.007a57.788 57.788 0 0 1 2.444-7.453v-.002a47.837 47.837 0 0 1 3.25-6.491c-.93-.16-1.833-.264-2.722-.317l-.495-.024h-.005Zm-20.29 25.664c0 1.536.072 3.113.223 4.731l.07.697v.005l.076.702c.176 1.56.426 3.168.73 4.806l14.519 8.392a90.746 90.746 0 0 1-.38-4.49 83.24 83.24 0 0 1-.176-5.46c0-1.79.055-3.54.177-5.266v-.008l.04-.484c.1-1.42.244-2.817.423-4.18l-14.742-8.51a38.26 38.26 0 0 0-.667 3.963v.004a42.45 42.45 0 0 0-.292 5.098ZM65.756 34.69c0 1.587-.44 2.866-1.587 3.467l-.01.005c-1.166.582-2.494.181-3.865-.795l-.563-.375a22.496 22.496 0 0 0-1.69-.989 59.6 59.6 0 0 1-1.941-1.06c-.431.454-.854.925-1.269 1.414-1.317 1.554-2.495 3.284-3.54 5.164v.001c-1.376 2.5-2.514 5.282-3.413 8.338l8.408 4.865.265.158c1.221.76 2.25 1.844 3.09 3.211l.178.298.001.003c.393.688.707 1.369.937 2.057l.11.35a8.63 8.63 0 0 1 .365 2.453c0 1.612-.479 2.885-1.632 3.55l-.007.003c-1.15.645-2.495.425-3.902-.38h-.002l-10.14-5.852a65.236 65.236 0 0 0-.39 4.09v.005a73.239 73.239 0 0 0-.175 5.181c0 .27 0 .527.013.793l.001.028c0 1.12.03 2.264.09 3.418l.07 1.159v.005a91.44 91.44 0 0 0 .475 5.294l20.79 11.997c.007-.056.015-.114.021-.172v-.008a73.33 73.33 0 0 0 .388-3.912c.04-.738.08-1.483.106-2.24v-.004c.04-.977.068-1.965.068-2.95v-2.531c0-.77-.04-1.61-.118-2.534l-.027-.303c-.096-1.495.322-2.715 1.38-3.468a.598.598 0 0 1 .07-.043l.7-.364.066-.028a.598.598 0 0 1 .164-.036c.916-.242 1.87-.007 2.836.547 1.412.807 2.595 1.968 3.569 3.463.512.783.896 1.58 1.193 2.4l.002.006.097.29c.186.587.316 1.187.396 1.8l.036.308.001.01c.082.948.123 1.948.123 2.986v2.867c0 .393 0 .808-.027 1.226 0 1.374-.068 2.716-.149 4.034v.006a75.869 75.869 0 0 1-.478 4.672l14.742 8.508a38.07 38.07 0 0 0 .668-3.974v-.005c.199-1.628.292-3.328.292-5.084v-2.395c0-.672-.076-1.488-.222-2.44l-.004-.03c-.13-1.246.05-2.339.619-3.215l.01-.014a4.1 4.1 0 0 1 .597-.678l.042-.035c.17-.13.367-.282.606-.404l.17-.084a2.08 2.08 0 0 1 .562-.167c.287-.05.554-.05.828-.021a.6.6 0 0 1 .054.004c.51.066 1.043.26 1.58.573a11.016 11.016 0 0 1 3.685 3.468l.198.301c.446.71.796 1.451 1.058 2.225a9.73 9.73 0 0 1 .444 1.94l.03.284.002.012c.067.931.135 1.95.176 3.05.04 1.099.053 2.09.053 2.985 0 2.605-.149 5.094-.463 7.425l.001.001c-.559 4.308-1.651 8.14-3.257 11.503l-.005.01a8.16 8.16 0 0 1-.16.305c-2.454 5.003-5.788 8.737-10.001 11.135l-.016.008-.229.121c-4.252 2.365-9.218 3.293-14.842 2.828-5.765-.467-11.895-2.592-18.37-6.338-6.478-3.735-12.569-8.661-18.245-14.757A111.467 111.467 0 0 1 22.61 95.596v-.002c-4.196-7.253-7.526-14.833-9.976-22.779-2.452-7.938-3.688-15.618-3.688-23.062 0-7.44 1.235-13.753 3.72-18.93l.235-.48c2.458-4.937 5.769-8.605 9.93-10.981l.031-.017 1.871-.928.02-.01c3.864-1.745 8.263-2.4 13.18-1.99.605.052 1.218.119 1.833.2l.615.088h.007c3.898.628 7.985 1.985 12.206 4.075.028.009.055.02.082.033a67.777 67.777 0 0 1 3.608 1.94c.79.45 1.646.966 2.58 1.547.703.439 1.36.87 1.977 1.286l.603.413.007.004a9.754 9.754 0 0 1 3.208 3.836c.186.386.344.773.474 1.162.425 1.196.623 2.431.623 3.689Zm22.152 20.678v-5.331c0-.846.282-1.572.995-1.984.623-.366 1.299-.306 1.942-.011l.273.14.006.003 4.638 2.689c.732.413 1.353 1.079 1.85 1.953l.181.323c.395.754.603 1.504.603 2.244a.603.603 0 0 1-.013.124v5.207c0 .13 0 .31-.033.5l-.005.035h-.001c-.095.62-.395 1.136-.95 1.453l-.005.003c-.7.391-1.486.28-2.225-.154l-.003-.002-.347-.206-.14-.07a.592.592 0 0 1-.032-.017l-4.12-2.383c-.736-.417-1.343-1.088-1.837-1.96-.506-.87-.777-1.726-.777-2.556Zm1.2 0c0 .495.142 1.055.467 1.684l.152.275.002.006c.368.648.773 1.102 1.204 1.394l.185.116.006.003 4.1 2.372.148.074.038.021.362.214.178.095c.399.188.665.152.854.047.185-.108.311-.279.357-.609l.007-.035a1.62 1.62 0 0 0 .015-.3v-5.33c0-.033.004-.065.01-.096-.02-.556-.206-1.174-.613-1.86l-.006-.01c-.417-.737-.898-1.226-1.402-1.51l-.006-.003-4.644-2.693c-.512-.288-.808-.256-1.01-.137l-.006.004c-.224.128-.399.368-.399.947v5.33Z"/>
  <path d="M23.56 78.913a.6.6 0 0 1 .689-.063l13.69 7.915a.602.602 0 0 1 .29.408c.697 3.67 1.567 7.383 2.6 11.123a157.972 157.972 0 0 0 3.648 11.319.6.6 0 0 1-.978.639c-4.289-4.085-8.155-8.752-11.585-13.999a87.875 87.875 0 0 1-8.525-16.67.601.601 0 0 1 .17-.672Zm1.582 1.84a86.697 86.697 0 0 0 7.777 14.846c2.88 4.404 6.068 8.388 9.556 11.955a155.116 155.116 0 0 1-2.802-8.934v-.002a141.462 141.462 0 0 1-2.57-10.95l-11.961-6.916Zm21.673 11.539a.6.6 0 0 1 .653-.034l17.648 10.19a.6.6 0 0 1 .278.683c-.94 3.324-2.17 6.341-3.66 9.037-1.493 2.711-3.262 5.099-5.322 7.186a.6.6 0 0 1-.972-.171 134.642 134.642 0 0 1-4.68-11.5l-.567-1.643a117.84 117.84 0 0 1-3.612-13.138.6.6 0 0 1 .234-.61Zm1.232 1.685a117.078 117.078 0 0 0 3.284 11.679 131.11 131.11 0 0 0 4.834 12.22c1.722-1.851 3.225-3.939 4.518-6.286v-.001c1.377-2.488 2.526-5.27 3.425-8.337l-16.061-9.275ZM19.755 44.572a.599.599 0 0 1 .535.032l15.79 9.113c.211.122.329.36.296.6a68.692 68.692 0 0 0-.469 4.512.6.6 0 0 1-.33.495l-15.32 7.646a.6.6 0 0 1-.856-.425 68.429 68.429 0 0 1-.869-5.878 52.131 52.131 0 0 1-.299-5.555c0-1.798.094-3.546.3-5.241.19-1.681.491-3.32.873-4.889a.603.603 0 0 1 .349-.41Zm-.323 10.54c0 1.536.072 3.114.223 4.732l.07.697.002.004a64.81 64.81 0 0 0 .712 4.993l14.297-7.136a69.82 69.82 0 0 1 .399-3.846l-14.743-8.508a38.242 38.242 0 0 0-.666 3.962l-.002.005a42.454 42.454 0 0 0-.292 5.097Z"/>
  <path d="M34.494 64.495c0-1.595.046-3.159.142-4.702l-13.381 6.679 13.796 7.973a90.743 90.743 0 0 1-.381-4.49 83.24 83.24 0 0 1-.176-5.46Zm1.2 0c0 1.323.03 2.661.096 4.02l.078 1.366v.004c.107 1.83.281 3.703.509 5.604a.602.602 0 0 1-.897.591l-15.79-9.127a.6.6 0 0 1 .033-1.056l15.319-7.647a.6.6 0 0 1 .865.587l-.04.476a73.27 73.27 0 0 0-.173 5.182Zm38.269-6.515V41.986c0-2.019.537-3.617 1.755-4.611a3.83 3.83 0 0 1 .593-.4l.016-.008.43-.216.039-.018c1.506-.625 3.219-.296 5.025.762l13.934 8.05.379.228c1.754 1.101 3.253 2.68 4.513 4.715l.266.444h.001c1.402 2.415 2.113 4.793 2.113 7.14v15.992c0 2.332-.712 4.086-2.334 5.003-1.518.872-3.27.69-5.158-.302l-.38-.21-13.933-8.05-.004-.002a11.223 11.223 0 0 1-1.372-.934c-1.442-1.13-2.7-2.618-3.769-4.45-1.184-2.042-1.882-4.06-2.058-6.05l-.029-.4a6.304 6.304 0 0 1-.027-.69Zm13.945-2.612v-5.331c0-.846.282-1.573.996-1.984l.135-.072c.585-.285 1.21-.212 1.807.061l.273.14.006.004 4.638 2.688c.732.414 1.353 1.08 1.85 1.953l.18.323c.396.755.604 1.505.604 2.245v5.33a.601.601 0 0 1-.016.131c-.002.12-.007.26-.036.404h-.001c-.095.62-.394 1.137-.95 1.454l-.004.003c-.7.391-1.487.279-2.226-.155l-.002-.001-.348-.206-.14-.07a.592.592 0 0 1-.031-.017l-4.115-2.38c-.738-.418-1.346-1.09-1.842-1.963-.506-.87-.778-1.727-.778-2.557Zm1.2 0c0 .496.143 1.055.468 1.685l.15.274.005.006c.367.648.772 1.102 1.203 1.395l.185.116.005.002 4.102 2.373.147.074.038.02.361.214.18.095c.398.189.665.152.853.047.185-.108.311-.278.357-.608l.006-.036c.013-.066.016-.14.016-.3 0-.042.005-.084.013-.124v-5.206c0-.582-.186-1.23-.616-1.956l-.006-.01c-.417-.736-.898-1.225-1.402-1.51l-.006-.003-4.639-2.69c-.516-.291-.812-.259-1.015-.14l-.006.005c-.223.127-.399.368-.399.946v5.331ZM75.162 57.98a4.86 4.86 0 0 0 .026.627c.102 1.892.737 3.86 1.925 5.91l.19.318c.897 1.468 1.915 2.664 3.04 3.597l.244.195.006.006c.387.312.792.578 1.233.838l13.929 8.048c1.843 1.062 3.243 1.142 4.342.51l.004-.002c1.095-.618 1.727-1.852 1.727-3.96V58.072c0-2.094-.634-4.266-1.951-6.535l-.25-.417c-1.266-2.044-2.756-3.546-4.472-4.535v-.001l-13.933-8.05-.003-.002c-1.632-.956-2.931-1.114-3.952-.695l-.392.196a2.637 2.637 0 0 0-.397.272c-.829.675-1.316 1.85-1.316 3.681V57.98Zm-6.035 16.005a.6.6 0 0 1 .429 1.115l-.7.35a.6.6 0 0 1-.628-1.016c.27-.203.58-.36.899-.449ZM39.756 28.249a.6.6 0 0 1 .253 1.135l-2.975 1.494v.001l-12.816 6.408a.6.6 0 0 1-.763-.877c2.299-3.338 5.221-5.667 8.75-6.992l.558-.2a17.99 17.99 0 0 1 4.102-.872 22.166 22.166 0 0 1 2.89-.097Zm-2.769 1.29h-.005a16.736 16.736 0 0 0-4.354 1.002c-2.502.939-4.682 2.421-6.54 4.467l10.407-5.202.538-.271-.046.005Z"/>
  <path d="M39.776 28.249c1.379.055 2.785.22 4.257.523a.601.601 0 0 1 .388.907 46.307 46.307 0 0 0-3.614 7.057l-.001-.001a57.076 57.076 0 0 0-2.584 8.059.6.6 0 0 1-.883.377l-13.69-7.901a.6.6 0 0 1 .032-1.057l12.814-6.407 2.976-1.494.063-.027a.599.599 0 0 1 .205-.036h.037Zm-2.742 2.63-11.82 5.909 12.025 6.94.012.007a57.788 57.788 0 0 1 2.444-7.453v-.002a47.837 47.837 0 0 1 3.25-6.491 24.789 24.789 0 0 0-3.077-.334l-2.834 1.423Z"/>
  <path d="M91.478 21.229a9.94 9.94 0 0 0-.977-4.332l-.001-.002a8.555 8.555 0 0 0-2.814-3.37l-1.213-.82a74.866 74.866 0 0 0-3.858-2.371l-.004-.002c-6.366-3.683-12.325-5.731-17.854-6.18-5.555-.463-10.345.478-14.408 2.79l-.029.016-19.25 9.63c2.161-.315 4.449-.372 6.862-.17.605.05 1.22.118 1.835.2l.613.087h.007c3.9.628 7.989 1.985 12.212 4.076a.82.82 0 0 1 .076.032 67.777 67.777 0 0 1 3.608 1.94c.79.45 1.646.966 2.58 1.547.703.439 1.36.87 1.977 1.286l.603.413.007.004a9.754 9.754 0 0 1 3.208 3.836c.186.386.344.773.474 1.162.425 1.196.623 2.431.623 3.689 0 .502-.044.972-.14 1.4l24.92-12.46c.549-.287.943-.974.944-2.401Zm1.2 0c0 1.587-.44 2.865-1.586 3.466l-.01.005-14.983 7.485h-.001l-11.939 5.977a.6.6 0 0 1-.547-1.069c.55-.288.943-.975.943-2.403a9.738 9.738 0 0 0-.558-3.298l-.004-.012a8.69 8.69 0 0 0-.416-1.02v-.004a8.555 8.555 0 0 0-2.815-3.37 64.763 64.763 0 0 0-2.535-1.667 74.668 74.668 0 0 0-2.537-1.523l-.002-.002a66.451 66.451 0 0 0-3.488-1.877.604.604 0 0 1-.074-.03c-4.153-2.063-8.145-3.387-11.924-3.996a37.238 37.238 0 0 0-2.37-.278c-4.749-.397-8.938.24-12.585 1.887a.6.6 0 0 1-.516-1.082L49.783 5.883c4.303-2.44 9.332-3.407 15.073-2.928h-.001c5.751.467 11.882 2.59 18.357 6.337a78.1 78.1 0 0 1 2.574 1.545 66.12 66.12 0 0 1 2.581 1.699l.008.004a9.755 9.755 0 0 1 3.21 3.84 11.137 11.137 0 0 1 1.094 4.848Z"/>
  <path d="M75.56 31.125a.6.6 0 0 1 .822.767 44.268 44.268 0 0 0-1.713 4.954.6.6 0 0 1-.31.373l-11.59 5.79-.001-.002-15.331 7.674a.6.6 0 0 1-.846-.7c.94-3.31 2.154-6.327 3.645-9.037l.002-.003c1.08-1.941 2.3-3.738 3.674-5.36a34.863 34.863 0 0 1 1.644-1.808.6.6 0 0 1 .726-.102c.78.443 1.538.87 2.308 1.267l.004.002c.591.312 1.19.662 1.783 1.044l.592.393.01.006c1.263.903 2.085.983 2.64.706l11.94-5.964Zm-11.405 7.037c-1.165.582-2.493.181-3.864-.795l-.564-.374a22.5 22.5 0 0 0-1.692-.99 59.676 59.676 0 0 1-1.94-1.06c-.43.454-.853.925-1.268 1.414-1.317 1.555-2.494 3.284-3.54 5.164l.001.001c-1.243 2.26-2.293 4.75-3.147 7.464l25.447-12.723c.335-1.16.703-2.281 1.108-3.366l-10.54 5.265Zm2.848 42.567c0-.77-.04-1.61-.118-2.534l-.025-.303c-.096-1.495.32-2.715 1.377-3.468.269-.199.566-.345.859-.443l.051-.014 6.922-3.466-4.098-2.365-9.606 4.797-6.717 3.364v.001l-6.825 3.405-2.491 1.25 20.089 11.593.02-.172.002-.008c.16-1.284.293-2.592.386-3.912.04-.738.082-1.483.109-2.24l-.002-.004c.04-.978.067-1.965.067-2.95v-2.531Zm1.201 2.53a73.12 73.12 0 0 1-.07 2.995l.002.001c-.027.774-.067 1.534-.108 2.274l-.002.01a74.355 74.355 0 0 1-.393 3.966v.001c-.04.364-.08.724-.135 1.099a.602.602 0 0 1-.894.432l-21.834-12.6a.601.601 0 0 1 .029-1.056l3.487-1.75h.001l6.825-3.407 6.716-3.364.001-.001 9.895-4.94.068-.03a.6.6 0 0 1 .499.047l5.345 3.082a.6.6 0 0 1-.031 1.057l-8.01 4.011a.6.6 0 0 1-.185.057 1.862 1.862 0 0 0-.464.25l-.012.009c-.609.433-.958 1.182-.877 2.412l.021.253.003.013c.082.956.123 1.835.123 2.649v2.53Zm17.211 31.165a.597.597 0 0 1 .498.045l2.41 1.386a.601.601 0 0 1 .195.86 18.554 18.554 0 0 1-1.579 1.994l.001.001c-2 2.279-4.398 3.953-7.171 4.998l-.003.001c-3.529 1.311-7.481 1.525-11.825.646a.6.6 0 0 1-.149-1.125l17.554-8.778.069-.028Zm-15.436 9.053c3.445.456 6.566.149 9.369-.892 2.583-.974 4.815-2.532 6.69-4.667l.008-.008.392-.446c.247-.29.483-.591.712-.9l-1.556-.894-15.614 7.807Z"/>
  <path d="M74.1 107.921a.6.6 0 0 1 .534.033l11.28 6.516a.599.599 0 0 1-.031 1.055l-17.554 8.778a.601.601 0 0 1-.776-.857c1.38-2.189 2.576-4.541 3.614-7.057a58.045 58.045 0 0 0 2.144-6.338c.146-.561.292-1.145.441-1.726a.6.6 0 0 1 .349-.404Zm.37 2.441-.002.007a59.263 59.263 0 0 1-2.19 6.474l-.002.004a49.149 49.149 0 0 1-2.648 5.464l14.72-7.361-9.63-5.561c-.083.327-.165.655-.248.973ZM44.807 59.069a.6.6 0 0 1 .563.02l10.915 6.298.226.124c1.111.58 1.907.58 2.494.25l.024-.012 12.103-6.058.07-.03a.6.6 0 0 1 .798.55c.007.258.016.52.03.782l.05.792v.01c.107 1.83.28 3.688.508 5.59a.6.6 0 0 1-.327.608l-9.895 4.94h.001l-6.718 3.365-6.825 3.407v-.002l-3.485 1.75a.6.6 0 0 1-.864-.464 92.978 92.978 0 0 1-.515-5.657l-.071-1.178a67.933 67.933 0 0 1-.082-2.332l-.01-1.149a17.97 17.97 0 0 1-.014-.82c0-1.79.055-3.54.177-5.267a67.25 67.25 0 0 1 .516-5.061l.014-.072a.601.601 0 0 1 .317-.384Zm.176 10.783c0 .27 0 .527.013.793l.001.028c0 1.12.03 2.264.09 3.418l.07 1.159v.005a89.78 89.78 0 0 0 .411 4.74l2.72-1.365 6.824-3.406 6.717-3.365h.001l9.519-4.752a92.245 92.245 0 0 1-.467-5.243c-.017-.228-.03-.458-.043-.685l-11.272 5.643v-.001c-1.146.628-2.48.406-3.877-.393h-.002l-10.14-5.852a65.236 65.236 0 0 0-.39 4.09v.005a73.239 73.239 0 0 0-.175 5.181ZM92.54 95.617c-.001-.672-.077-1.487-.223-2.44l-.003-.028a6.176 6.176 0 0 1 .033-1.662l-.932.467-13.957 6.972 14.121 8.15c.286-1.29.514-2.609.668-3.973l.001-.006c.199-1.629.291-3.328.291-5.083v-2.397Zm1.2 2.397a43.4 43.4 0 0 1-.301 5.222 39.934 39.934 0 0 1-.874 4.907.603.603 0 0 1-.346.411.605.605 0 0 1-.537-.032l-15.79-9.114a.6.6 0 0 1 .03-1.056l17.245-8.616a.6.6 0 0 1 .77.868c-.37.562-.542 1.35-.43 2.42.148.974.232 1.845.232 2.593v2.397Z"/>
  <path d="M80.03 68.528a.6.6 0 0 1 .565.104c.387.312.793.578 1.234.838l13.928 8.048.34.187c1.676.882 2.971.915 4.002.323l.031-.016 3.379-1.683a.6.6 0 0 1 .867.537c0 1.218-.069 2.393-.136 3.56v.008a71.928 71.928 0 0 1-.475 4.629.602.602 0 0 1-.327.457l-8.695 4.348a2.562 2.562 0 0 0-.409.275 2.854 2.854 0 0 0-.401.457.602.602 0 0 1-.227.197l-17.244 8.629a.6.6 0 0 1-.862-.62c.227-1.629.4-3.298.52-4.995a64.725 64.725 0 0 0 .148-4.009c.025-.38.026-.764.026-1.171v-2.867c0-1.004-.04-1.966-.118-2.873l-.032-.276a9.11 9.11 0 0 0-.434-1.843l-.104-.277a10.163 10.163 0 0 0-.964-1.874h-.001c-.884-1.358-1.935-2.378-3.16-3.078l-.001-.002c-.835-.478-1.469-.567-1.981-.415a.6.6 0 0 1-.44-1.112L79.95 68.56l.08-.033ZM77.493 88.63c0 .388 0 .8-.026 1.213l-.012 1.028a77.961 77.961 0 0 1-.138 3.02v.005a76.52 76.52 0 0 1-.383 3.952l16.106-8.06c.156-.206.328-.387.501-.547l.042-.035c.173-.133.377-.288.623-.411l8.409-4.206a70.22 70.22 0 0 0 .428-4.237 82.25 82.25 0 0 0 .118-2.51l-2.496 1.244-.001-.001c-1.511.852-3.25.666-5.127-.32l-.38-.208-13.932-8.05-.005-.003a12.04 12.04 0 0 1-1.07-.7l-8.732 4.37c.219.091.439.2.66.327 1.411.807 2.594 1.968 3.567 3.463.449.685.798 1.38 1.078 2.093l.116.306v.006c.24.678.4 1.375.494 2.09l.036.308.001.01.054.721c.046.73.07 1.486.07 2.265v2.867Z"/>
  <path d="M128.754 89.91c0-.882-.014-1.858-.054-2.94a83.669 83.669 0 0 0-.173-2.99l-.032-.28a8.979 8.979 0 0 0-1.496-3.913l-.002-.003a9.808 9.808 0 0 0-3.288-3.098c-.899-.51-1.535-.532-2.025-.282l-.017.01-.218.1h.001L96.827 88.826c.185.08.371.174.558.282a11.017 11.017 0 0 1 3.684 3.468l.198.302c.446.709.796 1.45 1.058 2.225a9.72 9.72 0 0 1 .443 1.939l.031.284.001.012c.067.931.136 1.95.177 3.051.04 1.099.053 2.089.053 2.984 0 2.607-.149 5.097-.463 7.43-.559 4.306-1.651 8.137-3.256 11.5l-.005.01a9.305 9.305 0 0 1-.162.304l.001.001c-1.407 2.87-3.105 5.321-5.091 7.343l19.895-9.932c.52-.234 1.027-.493 1.521-.779l.004-.002c4.05-2.313 7.285-5.942 9.677-10.926 2.388-4.973 3.603-11.098 3.603-18.41Zm1.199 0c0 7.44-1.235 13.754-3.721 18.931-2.48 5.166-5.868 8.995-10.164 11.448l-.001-.001c-.528.306-1.069.585-1.625.835l-25.327 12.644a.601.601 0 0 1-.564-1.059c3.97-2.26 7.152-5.796 9.517-10.619l.018-.035c.044-.077.09-.168.146-.28 1.542-3.23 2.602-6.934 3.146-11.129v-.003c.305-2.272.452-4.708.452-7.27 0-.882-.013-1.858-.053-2.939a81.61 81.61 0 0 0-.173-2.996l-.061-.498a8.525 8.525 0 0 0-.354-1.45 9.214 9.214 0 0 0-1.113-2.24l-.002-.003a9.81 9.81 0 0 0-3.288-3.099l-.002-.002c-.426-.248-.805-.377-1.126-.42h-.011a1.744 1.744 0 0 0-.541.012.884.884 0 0 0-.253.076l-.11.055a.6.6 0 0 1-.553-1.065l.016-.008 26.708-13.354.013-.006.212-.099c.927-.472 1.94-.332 2.962.197l.205.112.003.002a11.015 11.015 0 0 1 3.684 3.467l.18.275a10.168 10.168 0 0 1 1.512 4.153l.037.317.001.018c.067.931.136 1.949.176 3.05a79.34 79.34 0 0 1 .054 2.983ZM73.962 57.979V41.986c0-1.654.361-3.026 1.162-4.014l-1.054-.609-25.637 12.82 7.853 4.544c1.338.764 2.452 1.904 3.353 3.368l.177.297.001.003c.393.687.707 1.369.937 2.057l.11.35c.242.818.366 1.64.366 2.454 0 .53-.054 1.025-.165 1.473L71.13 59.69v-.002l2.835-1.41c-.003-.108-.003-.21-.003-.3Zm1.2 0c0 .223.001.414.023.586a.6.6 0 0 1-.329.61l-3.19 1.588h.001l-12.102 6.058a.6.6 0 0 1-.568-1.056c.623-.36 1.032-1.105 1.032-2.51a7.51 7.51 0 0 0-.412-2.418v-.003a10.268 10.268 0 0 0-.842-1.844c-.845-1.459-1.878-2.532-3.087-3.223l-.003-.001-8.818-5.103a.6.6 0 0 1 .032-1.055l26.923-13.461a.6.6 0 0 1 .569.016l2.005 1.157a.601.601 0 0 1 .082.986c-.829.675-1.316 1.85-1.316 3.681V57.98Z"/>
  <path d="M128.752 60.605V44.611c0-2.095-.634-4.267-1.951-6.537-1.318-2.257-2.891-3.896-4.721-4.951l-13.934-8.05c-1.828-1.062-3.228-1.142-4.328-.51l-.03.015-24.046 12.023c.675.176 1.37.478 2.081.894l13.934 8.05c1.918 1.106 3.54 2.763 4.89 4.943l.268.444h.001c1.402 2.415 2.113 4.793 2.113 7.14v15.992c0 1.019-.137 1.927-.425 2.704l.902-.453h.001l23.114-11.55.403-.203c1.096-.618 1.728-1.85 1.728-3.959Zm1.2 0c0 2.333-.714 4.088-2.338 5.004a.32.32 0 0 1-.026.015l-23.544 11.764-3.378 1.697a.6.6 0 0 1-.565-1.059c1.095-.618 1.727-1.852 1.727-3.96V58.072c0-2.095-.632-4.267-1.95-6.537-1.318-2.257-2.893-3.895-4.723-4.95l-13.931-8.05-.003-.003c-1.638-.96-2.941-1.115-3.964-.69a.6.6 0 0 1-.5-1.091l26.494-13.246c1.613-.91 3.487-.637 5.497.53l13.93 8.048c2.046 1.18 3.759 2.987 5.16 5.387l.001.002c1.401 2.414 2.113 4.792 2.113 7.14v15.992ZM94.231 88.782a.6.6 0 0 1 .488 1.097l-.122.054a.6.6 0 0 1-.487-1.097l.121-.054Z"/>
</svg>
