<svg xmlns="http://www.w3.org/2000/svg" width="140" height="140" fill="currentColor" viewBox="0 0 140 140">
  <path d="M7.273 77.492c0-1.846.555-3.37 1.94-4.162l.043-.022.306-.154.065-.029c1.225-.493 2.562-.233 3.914.483l.271.15h.003l41.78 24.118.005.003c1.624.95 2.973 2.358 4.033 4.186l.194.345c.944 1.727 1.434 3.478 1.434 5.237 0 1.847-.555 3.372-1.953 4.163l-.001-.001c-1.378.785-2.978.51-4.586-.43L12.94 87.263c-1.643-.943-2.981-2.355-4.05-4.19l-.002-.004c-1.058-1.836-1.615-3.702-1.616-5.577Zm1.75 0c0 1.515.449 3.082 1.38 4.7l.179.298c.907 1.467 1.981 2.54 3.23 3.255l.003.001 41.78 24.117.005.002c1.341.785 2.232.772 2.842.423l.004-.002c.614-.347 1.065-1.096 1.065-2.639 0-1.516-.449-3.083-1.39-4.701l-.002-.002c-.929-1.602-2.072-2.775-3.398-3.552L12.94 75.274c-1.209-.692-2.043-.763-2.637-.534l-.238.118c-.598.35-1.042 1.103-1.042 2.634Zm-1.75-29.969c0-1.846.555-3.37 1.94-4.162l.043-.023.306-.153.065-.03c1.225-.492 2.562-.233 3.914.484l.271.15h.003l15.659 9.044c1.54.884 2.813 2.18 3.847 3.852l.204.339.002.004c1.057 1.835 1.615 3.69 1.616 5.577 0 .151-.001.362-.028.574-.103 1.58-.674 2.878-1.91 3.587l-.007.003c-1.059.596-2.24.583-3.468.11a7.852 7.852 0 0 1-1.12-.536l-.006-.004-1.105-.634-.002-.001-14.556-8.41-.304-.182c-1.505-.939-2.744-2.288-3.746-4.009l-.002-.003c-1.058-1.836-1.615-3.702-1.616-5.577Zm1.75 0c0 1.515.449 3.081 1.38 4.7l.179.298c.907 1.466 1.981 2.539 3.23 3.255l.003.002 14.555 8.409 1.098.63.239.132c.154.081.299.15.437.21l.203.08.013.007c.871.335 1.485.277 1.979-.001.547-.317.956-.954 1.033-2.202l.007-.069c.011-.08.014-.18.014-.369 0-1.526-.45-3.083-1.382-4.703-.943-1.618-2.077-2.787-3.408-3.55l-.001-.002-15.662-9.045c-1.209-.693-2.043-.763-2.637-.534l-.238.118c-.598.35-1.042 1.103-1.042 2.634Zm45.26 15.16c0-4.981 1.576-8.907 5.014-10.867l.451-.24c2.268-1.131 4.82-1.223 7.585-.35 1.113.337 2.255.838 3.43 1.48l.505.282v.001c2.946 1.7 5.585 3.992 7.931 6.877a.877.877 0 0 1 .15.274c.633 1.879 1.48 3.78 2.544 5.706l.468.826.001.002a36.848 36.848 0 0 0 3.312 4.829.878.878 0 0 1 .151.273c1.023 3.034 1.544 6.028 1.544 8.998 0 1.981-.237 3.745-.718 5.28-.767 2.49-2.186 4.38-4.285 5.575-.446.254-.918.47-1.392.64v.001c-3.14 1.141-6.69.429-10.578-1.802l-.002-.001C65.886 87.862 62.09 83.86 58.979 78.5l-.157-.272a12.25 12.25 0 0 1-.138-.251c-2.926-5.181-4.4-10.293-4.4-15.294Zm1.75 0c0 4.355 1.203 8.863 3.665 13.503l.51.93.01.019.262.465.007.01c2.99 5.156 6.586 8.916 10.78 11.34l.678.375c3.353 1.779 6.126 2.139 8.432 1.301l.003-.001a7.266 7.266 0 0 0 1.121-.518c1.662-.947 2.824-2.448 3.478-4.57l.002-.005c.417-1.33.638-2.912.638-4.758 0-2.716-.47-5.474-1.406-8.296a38.69 38.69 0 0 1-3.364-4.925c-1.308-2.245-2.342-4.477-3.102-6.696-2.201-2.682-4.648-4.792-7.353-6.352-1.27-.731-2.456-1.269-3.568-1.606l-.01-.002c-2.418-.765-4.494-.651-6.297.25l-.356.19c-2.665 1.519-4.13 4.68-4.13 9.346Z"/>
  <path d="M43.838 56.645c0-1.968.145-3.801.44-5.488.679-4.137 2.244-7.462 4.738-9.874a13.968 13.968 0 0 1 2.898-2.187l.039-.022 1.323-.667h.003l.044-.023.045-.02c4.163-1.795 8.871-1.5 14.063.707 1.25.53 2.53 1.17 3.84 1.931a44.108 44.108 0 0 1 7.016 5.053l.824.737c4.09 3.749 7.735 8.414 10.95 13.963 3.852 6.629 6.27 13.153 7.251 19.556l.118.819c.256 1.911.384 3.84.384 5.67 0 2.087-.18 4.056-.574 5.925h.001a21.225 21.225 0 0 1-.57 2.303c-.702 2.29-1.723 4.231-3.085 5.808l16.131 27.819.001.002c1.018 1.767 1.549 3.6 1.549 5.468 0 1.827-.521 3.352-1.872 4.128l-.004.002c-1.362.774-2.938.441-4.52-.473-1.636-.938-2.955-2.302-3.984-4.069l-.001-.002-16.135-27.837c-2.061.379-4.27.283-6.614-.274a25.572 25.572 0 0 1-4.263-1.412 29.456 29.456 0 0 1-3.48-1.735c-5.9-3.408-11.087-8.301-15.556-14.667A66.693 66.693 0 0 1 51.59 82.7c-2.37-4.073-4.19-8.112-5.46-12.096-1.155-3.558-1.87-7.08-2.149-10.563h.001c-.1-1.142-.145-2.27-.145-3.395Zm10.445 6.038c0-4.981 1.576-8.908 5.014-10.868l.451-.24c2.271-1.132 4.826-1.223 7.596-.348 1.269.386 2.574.984 3.923 1.76v.001c2.762 1.593 5.255 3.709 7.489 6.344l.443.534.001.001a39.83 39.83 0 0 1 3.49 5.088 38.291 38.291 0 0 1 2.835 5.973l.3.847v.001c1.023 3.034 1.544 6.027 1.544 8.996 0 1.982-.237 3.747-.718 5.283-.767 2.49-2.187 4.377-4.285 5.573a9.053 9.053 0 0 1-1.392.642c-3.14 1.14-6.69.429-10.578-1.802l-.002-.001c-4.508-2.605-8.304-6.608-11.415-11.968a12.475 12.475 0 0 1-.295-.522l-.532-.971c-2.572-4.849-3.869-9.635-3.869-14.323Zm1.75 0c0 4.355 1.203 8.863 3.665 13.503l.51.93.01.019.262.465.007.01.567.95c2.875 4.67 6.28 8.117 10.214 10.39l.677.374c3.353 1.78 6.125 2.139 8.432 1.301l.003-.001a7.255 7.255 0 0 0 1.12-.517c1.663-.947 2.825-2.448 3.48-4.572v-.003h.001c.417-1.33.638-2.913.638-4.76 0-2.76-.484-5.564-1.452-8.436l-.284-.803a35.817 35.817 0 0 0-2.242-4.877l-.464-.822a38.088 38.088 0 0 0-3.336-4.865c-2.225-2.736-4.704-4.883-7.446-6.465-1.271-.731-2.457-1.268-3.569-1.605l-.01-.002c-2.418-.765-4.495-.652-6.297.248l-.356.19c-2.665 1.52-4.13 4.682-4.13 9.348Zm-10.445-6.038c0 1.08.042 2.16.138 3.248l.001.006c.251 3.132.87 6.307 1.867 9.525l.204.644.002.005c1.225 3.848 2.991 7.771 5.303 11.747l.001.001a64.978 64.978 0 0 0 3.162 4.953l.002.004c4.21 5.995 9.04 10.6 14.473 13.85l.528.31.003.002c.82.478 1.64.902 2.458 1.276l.819.357.006.003c1.169.501 2.333.902 3.485 1.198l.492.122h.005c2.374.565 4.52.598 6.455.142l.14-.021a.874.874 0 0 1 .817.434l16.449 28.381.171.283c.807 1.299 1.778 2.29 2.924 3.001l.249.149.002.002c1.366.789 2.216.785 2.778.468.553-.317.995-1.046.995-2.61 0-1.523-.431-3.058-1.316-4.594l-16.448-28.369a.875.875 0 0 1 .125-1.044c1.365-1.426 2.408-3.279 3.12-5.601a19.512 19.512 0 0 0 .527-2.135c.368-1.735.54-3.587.54-5.582 0-2-.162-4.133-.483-6.222-.943-6.152-3.272-12.47-7.033-18.944-3.352-5.784-7.155-10.54-11.413-14.262h-.002a42.373 42.373 0 0 0-6.74-4.856h-.003a32.384 32.384 0 0 0-3.641-1.832l-.001-.001c-4.883-2.077-9.072-2.265-12.67-.721l-.016.007h.001l-1.294.652a12.22 12.22 0 0 0-2.532 1.914l-.006.006c-2.163 2.093-3.596 5.044-4.23 8.908v.009c-.275 1.573-.414 3.304-.414 5.187Z"/>
  <path d="M43.836 56.645c0-1.964.144-3.795.437-5.48.605-3.685 1.91-6.725 3.95-9.051l-11.9-6.876-3.165 1.583v-.001c-1.05.575-2.216.557-3.43.09a7.852 7.852 0 0 1-1.12-.535l-.006-.004-.699-.402-14.857 7.429c.164.073.328.154.493.241l.271.15h.002l15.66 9.045.305.182c1.405.876 2.577 2.11 3.542 3.67l.204.339.002.003c1.058 1.836 1.616 3.692 1.616 5.578 0 .15-.002.36-.028.571a6.93 6.93 0 0 1-.084.72l.934-.466 7.972-3.982c-.067-.94-.1-1.873-.1-2.804Zm1.75 0c0 1.081.043 2.16.139 3.248a.875.875 0 0 1-.48.86L33.157 66.79a.875.875 0 0 1-.826-1.542c.55-.316.961-.952 1.038-2.204l.007-.07c.011-.08.014-.18.014-.368 0-1.526-.449-3.084-1.382-4.704-.943-1.618-2.077-2.787-3.407-3.55H28.6l-15.66-9.047v.002c-1.226-.703-2.067-.767-2.663-.527a.875.875 0 0 1-.717-1.595l17.981-8.99a.875.875 0 0 1 .827.023l1.098.631c.247.14.468.253.676.342l.203.081.013.005c.872.335 1.485.277 1.979-.001a.856.856 0 0 1 .039-.02l3.587-1.794a.875.875 0 0 1 .829.025l13.268 7.667a.876.876 0 0 1 .17 1.386c-2.164 2.093-3.595 5.044-4.229 8.909l-.002.009c-.274 1.572-.413 3.304-.413 5.187Z"/>
  <path d="M7.273 17.554c0-1.846.555-3.37 1.94-4.162l.043-.022.306-.154.065-.029c1.225-.493 2.562-.233 3.914.483l.271.15h.003l15.659 9.045c1.54.883 2.813 2.18 3.847 3.851l.204.34.002.003c1.057 1.836 1.615 3.691 1.616 5.577 0 .152-.001.362-.028.575-.103 1.579-.674 2.878-1.91 3.586l-.007.003c-1.059.597-2.24.583-3.468.11a7.853 7.853 0 0 1-1.12-.535l-.006-.004-1.105-.635-.002-.001-14.556-8.41-.304-.182c-1.505-.938-2.744-2.288-3.746-4.009l-.002-.003c-1.058-1.836-1.615-3.702-1.616-5.577Zm1.75 0c0 1.515.449 3.082 1.38 4.7l.179.298c.907 1.467 1.981 2.54 3.23 3.255l.003.002 14.555 8.41 1.098.63.239.131c.154.081.299.15.437.21l.203.081.013.006c.871.335 1.485.277 1.979-.001.547-.316.956-.954 1.033-2.201l.007-.07c.011-.08.014-.18.014-.369 0-1.526-.45-3.083-1.382-4.703-.943-1.618-2.077-2.787-3.408-3.55l-.001-.002-15.662-9.045c-1.209-.692-2.043-.763-2.637-.534l-.238.118c-.598.35-1.042 1.103-1.042 2.634Zm108.915 58.308c0-8.105-2.48-16.487-7.516-25.166-5.037-8.69-11.094-15.041-18.154-19.117-6.822-3.936-12.451-4.547-17.059-2.198L59.606 37.2c2.467.07 5.079.703 7.826 1.871 1.249.53 2.527 1.17 3.836 1.93a44.135 44.135 0 0 1 7.017 5.053c4.426 3.868 8.345 8.782 11.775 14.7 3.85 6.63 6.269 13.153 7.25 19.556l.12.819c.256 1.912.382 3.84.382 5.67 0 2.087-.177 4.056-.572 5.925h.001a21.233 21.233 0 0 1-.571 2.305 17.93 17.93 0 0 1-1.378 3.323l9.841-4.92.07-.032 8.648-4.328c1.316-1.411 2.327-3.228 3.021-5.494.714-2.32 1.066-4.89 1.066-7.717Zm1.75 0c0 2.97-.37 5.717-1.143 8.23-.776 2.534-1.942 4.64-3.529 6.299a.886.886 0 0 1-.241.177l-8.848 4.43a.998.998 0 0 1-.081.034l-12.947 6.474a.875.875 0 0 1-1.023-1.388c1.365-1.426 2.409-3.279 3.12-5.601l.001-.001c.21-.68.388-1.393.524-2.115l.004-.02c.368-1.734.537-3.586.537-5.581 0-2-.159-4.133-.48-6.222-.943-6.152-3.274-12.47-7.035-18.943-3.351-5.784-7.155-10.54-11.413-14.262l-.002-.002a42.373 42.373 0 0 0-6.74-4.854v-.001a32.395 32.395 0 0 0-3.644-1.832v-.001c-4.892-2.08-9.086-2.265-12.688-.712a.876.876 0 0 1-.737-1.587l2.548-1.269 18.543-9.294.504-.244c5.236-2.423 11.355-1.477 18.225 2.486 7.377 4.26 13.636 10.858 18.793 19.755l.475.833c4.841 8.597 7.277 17 7.277 25.211Z"/>
  <path d="M131.393 123.188c0-1.523-.432-3.058-1.317-4.594L114.04 90.936l-8.112 4.061c-.026.013-.053.023-.079.033l-12.117 6.059 15.985 27.566.001.002c1.018 1.767 1.549 3.6 1.549 5.468 0 .45-.032.881-.1 1.287l19.238-9.619c.55-.32.988-1.049.988-2.605Zm1.75 0c0 1.827-.522 3.351-1.872 4.127l-.045.024-21.874 10.937a.876.876 0 0 1-.829-1.541c.553-.317.994-1.046.994-2.61 0-1.523-.431-3.058-1.316-4.594l-16.448-28.369a.876.876 0 0 1 .365-1.222l13.015-6.507.073-.032 8.787-4.398.078-.035a.876.876 0 0 1 1.071.379l16.45 28.371.001.002c1.018 1.766 1.55 3.6 1.55 5.468Zm-97.18-59.757a.875.875 0 0 1 .829.025l10.61 6.125.068.044c.154.11.27.266.328.448 1.149 3.608 2.772 7.282 4.876 11.003l.428.745a66.562 66.562 0 0 0 2.753 4.368l.409.586.002.003c4.21 5.996 9.039 10.602 14.473 13.851l.528.31.002.001a27.659 27.659 0 0 0 3.277 1.633.877.877 0 0 1 .055 1.591l-15.335 7.666a.874.874 0 0 1-.822-1.544c.614-.347 1.065-1.096 1.065-2.639 0-1.516-.449-3.083-1.39-4.701l-.002-.001c-.93-1.605-2.075-2.778-3.403-3.555L12.94 75.274v.002c-1.226-.703-2.067-.767-2.663-.527a.875.875 0 0 1-.717-1.595l17.981-8.99a.876.876 0 0 1 .827.023l1.098.631c.247.14.468.253.676.342l.203.081.013.005c.872.336 1.485.278 1.979 0a.293.293 0 0 1 .039-.021l3.587-1.794Zm25.296 44.216c0 .448-.034.877-.104 1.281l11.025-5.512a29.855 29.855 0 0 1-1.791-.963c-5.9-3.408-11.086-8.303-15.556-14.669a66.707 66.707 0 0 1-3.245-5.084c-2.304-3.962-4.09-7.894-5.353-11.771l-9.912-5.723-3.165 1.584c-1.05.574-2.216.557-3.43.089a7.863 7.863 0 0 1-1.12-.535l-.006-.004-.699-.401-14.857 7.428c.164.073.328.154.493.241l.271.15h.002l41.78 24.118.006.003c1.624.95 2.973 2.358 4.033 4.186l.194.346c.943 1.727 1.434 3.478 1.434 5.236ZM55.266 21.7c0-1.527-.45-3.084-1.382-4.704-.943-1.618-2.077-2.786-3.407-3.55h-.002L34.812 4.398c-1.36-.778-2.242-.773-2.862-.422l-.039.021-18.865 9.432c.164.073.328.154.493.24l.271.15.002.001 15.66 9.044c1.54.884 2.813 2.18 3.847 3.852l.204.34.002.003c1.058 1.835 1.616 3.69 1.616 5.577 0 .151-.001.362-.028.574a6.907 6.907 0 0 1-.084.717l18.915-9.456.279-.14c.598-.35 1.043-1.102 1.043-2.633Zm1.75 0c0 1.846-.555 3.37-1.94 4.161a.799.799 0 0 1-.043.023L33.158 36.82a.874.874 0 0 1-.826-1.542c.55-.315.961-.952 1.038-2.204l.007-.07c.011-.08.014-.18.014-.368 0-1.526-.45-3.083-1.382-4.703-.943-1.619-2.077-2.787-3.407-3.55l-.002-.001-15.663-9.046c-1.223-.702-2.064-.765-2.66-.525a.875.875 0 0 1-.717-1.595L31.129 2.433c1.295-.712 2.759-.5 4.254.284l.302.166h.002l15.66 9.045c1.54.883 2.813 2.18 3.847 3.851l.204.34.002.003c1.058 1.836 1.616 3.691 1.616 5.577Zm-3.693 16.684a.874.874 0 1 1 .783 1.565l-.044.022h-.001l-1.302.656c-.944.54-1.783 1.18-2.52 1.908a.876.876 0 0 1-1.23-1.246 13.968 13.968 0 0 1 2.905-2.193l.039-.022 1.323-.667h.003l.044-.023Z"/>
</svg>
