<svg xmlns="http://www.w3.org/2000/svg" width="140" height="140" fill="currentColor" viewBox="0 0 140 140">
  <path d="M73.363 123.279c0-2.555.796-4.449 2.568-5.461 1.759-1.011 3.82-.738 6.037.548l.414.248c2.047 1.285 3.799 3.197 5.246 5.707l.282.501c1.368 2.503 2.065 4.955 2.065 7.359 0 2.554-.797 4.447-2.568 5.46h-.002c-1.758.999-3.819.728-6.036-.547l-.002-.001c-2.225-1.292-4.114-3.289-5.658-5.955-1.555-2.677-2.346-5.296-2.346-7.859Zm1.2 0c0 2.164.625 4.419 1.917 6.782l.267.475c1.46 2.523 3.212 4.351 5.22 5.518l.374.205c1.718.899 3.107.994 4.234.463l.238-.123c1.255-.718 1.961-2.103 1.962-4.418 0-2.308-.711-4.721-2.184-7.257l-.001-.002c-1.461-2.535-3.213-4.361-5.22-5.516l-.003-.001c-2.016-1.171-3.595-1.262-4.84-.546l-.002.001c-1.256.718-1.962 2.103-1.962 4.419Zm-39.741-22.251c0-2.555.796-4.449 2.568-5.461 1.759-1.012 3.82-.739 6.037.548l.414.248c2.048 1.286 3.8 3.209 5.246 5.707l.282.501c1.368 2.503 2.065 4.955 2.065 7.358 0 2.555-.797 4.448-2.568 5.46l-.002.001c-1.756.998-3.817.741-6.038-.549-2.224-1.291-4.114-3.288-5.658-5.955-1.554-2.677-2.346-5.295-2.346-7.858Zm1.2 0c0 2.163.625 4.419 1.917 6.782l.267.475c1.461 2.523 3.213 4.351 5.223 5.518 2.012 1.169 3.594 1.252 4.842.544 1.256-.718 1.962-2.102 1.962-4.418 0-2.308-.71-4.721-2.183-7.257l-.001-.001c-1.462-2.525-3.214-4.362-5.22-5.516l-.003-.001c-2.016-1.171-3.595-1.263-4.84-.546h-.002c-1.256.719-1.962 2.103-1.962 4.42ZM19.398 16.949c0-1.358.412-2.465 1.418-3.038l.029-.015.228-.114.04-.018c.942-.386 1.99-.144 3.043.468l6.363 3.665h.002c.786.458 1.512 1.129 2.183 1.98a9.061 9.061 0 0 1 1.544 2.903l15.25 45.882 26.304 15.187 3.011-4.453 4.29-6.362 4.303-6.364 2.05-3.038a2.22 2.22 0 0 1 .723-.775l.052-.03.432-.215.096-.038a2.38 2.38 0 0 1 .482-.091l.02-.002c.738-.044 1.504.204 2.27.648 1.616.933 2.8 2.404 3.581 4.373.75 1.874.846 3.53.058 4.818l-.003.005-.01.018-.02.042a.604.604 0 0 1-.037.064l-8.47 12.714-4.244 6.385-.001.002-1.059 1.582v.001c-.493.732-1.115 1.297-1.847 1.647l-.09.046a4.687 4.687 0 0 1-1.34.356h-.005c-1.361.142-2.786-.265-4.265-1.111l-.002-.002-4.917-2.845-19.827-11.44-3.484-2.015-3.57 5.392 29.633 17.12 12.213 7.045c1.126.645 2.056 1.599 2.813 2.827l.15.249c.261.453.493.926.666 1.394.343.894.518 1.798.518 2.697 0 1.354-.4 2.451-1.407 3.025-1.004.571-2.158.369-3.338-.308l-.001-.001-2.79-1.604v-.001L43.908 93.352l-1.08-.626c-3.032-1.742-5.307-4.57-6.86-8.41v-.001c-1.531-3.817-1.664-7.004-.091-9.376v-.001l5.05-7.587-13.71-41.13-3.66-2.105-.002-.002c-1.196-.698-2.176-1.724-2.96-3.075-.783-1.348-1.197-2.714-1.197-4.09Zm1.2 0c0 1.127.338 2.287 1.035 3.488.695 1.197 1.534 2.061 2.523 2.639l3.859 2.218.088.064a.6.6 0 0 1 .181.267L42.16 67.25a.6.6 0 0 1-.07.523L36.876 75.6h.001c-1.25 1.885-1.269 4.594.205 8.267 1.383 3.42 3.33 5.91 5.835 7.51l.509.309 39.61 22.878 2.788 1.604c1.005.576 1.671.577 2.147.306.471-.268.801-.833.801-1.982 0-.741-.144-1.499-.438-2.266l-.003-.008a7.98 7.98 0 0 0-.582-1.216c-.697-1.201-1.538-2.072-2.522-2.636l-.002-.001-42.399-24.484a.6.6 0 0 1-.2-.85l4.234-6.397.074-.09a.6.6 0 0 1 .727-.098l3.973 2.298 19.826 11.44 4.915 2.844c1.344.77 2.515 1.067 3.544.96a3.48 3.48 0 0 0 .955-.248l.068-.034.012-.005c.45-.213.865-.553 1.225-1.027l.15-.21 1.058-1.582 12.691-19.065a1.25 1.25 0 0 1 .006-.012l.01-.018.002-.005v-.001a.578.578 0 0 1 .031-.054c.521-.822.568-2.038-.13-3.781v-.002c-.7-1.764-1.724-3.002-3.066-3.777-.644-.373-1.174-.513-1.595-.49-.07.007-.136.02-.194.035l-.337.168a1.09 1.09 0 0 0-.33.382.63.63 0 0 1-.025.04l-2.049 3.04-4.302 6.362h-.001l-4.29 6.363-3.325 4.917a.6.6 0 0 1-.797.183L48.7 69.586a.6.6 0 0 1-.268-.33L33.11 23.16l-.004-.007a7.87 7.87 0 0 0-1.343-2.53l-.001-.002c-.604-.765-1.22-1.323-1.845-1.685l-6.361-3.664-.002-.001c-.898-.522-1.53-.577-1.976-.4l-.174.086c-.47.27-.807.85-.807 1.993Z"/>
  <path d="M46.386 45.79c0-1.352.397-2.462 1.407-3.037l.028-.015.228-.114 15.504-7.747-7.678-23.1-.003-.008a7.862 7.862 0 0 0-1.344-2.53c-.604-.766-1.221-1.324-1.845-1.686l-6.36-3.664-.004-.002c-1.003-.586-1.67-.586-2.144-.316l-.028.016L23.51 13.904c.215.092.43.202.646.327l6.363 3.665.002.001c.786.457 1.512 1.129 2.183 1.979l.252.333a9.054 9.054 0 0 1 1.292 2.57l15.102 45.44 8.692-4.35c.027-1.28.416-2.31 1.355-2.856l2.489-1.498-11.354-6.558-.003-.002c-1.195-.697-2.175-1.723-2.959-3.073-.784-1.352-1.185-2.718-1.185-4.092Zm1.2 0c0 1.13.327 2.291 1.023 3.49.695 1.197 1.535 2.06 2.524 2.638l11.508 6.646.728.422a.6.6 0 0 1 .009 1.033l-3.37 2.027-.007.005c-.436.253-.76.803-.76 1.962v.227a.601.601 0 0 1-.332.537l-9.64 4.825a.6.6 0 0 1-.838-.346L33.11 23.16l-.002-.009a7.861 7.861 0 0 0-1.345-2.529c-.604-.765-1.22-1.324-1.844-1.686l-6.362-3.665h-.002c-.905-.527-1.54-.579-1.987-.396a.6.6 0 0 1-.496-1.091L43.61 2.513c.998-.551 2.14-.346 3.31.336l6.363 3.665h.002c.787.457 1.513 1.13 2.184 1.98l.252.333a9.052 9.052 0 0 1 1.292 2.57l7.843 23.596a.6.6 0 0 1-.301.726l-15.969 7.978-.212.106c-.463.27-.788.845-.788 1.987Z"/>
  <path d="M80.682 62.378a.6.6 0 0 1 .5.046l7.022 4.063a.601.601 0 0 1 .197.855L84.1 73.704l-4.29 6.363h-.001l-3.324 4.918a.6.6 0 0 1-.796.184L48.7 69.587a.601.601 0 0 1 .031-1.057l9.641-4.826a.6.6 0 0 1 .867.497l.018.236.023.208.003.025c.093.915.402 1.824.935 2.752.689 1.186 1.469 2.018 2.334 2.532l.175.099.004.002c.966.53 1.618.52 2.069.265l.026-.014 15.787-7.899.069-.03Zm-15.32 9c-.953.524-2.065.354-3.204-.27-1.182-.635-2.165-1.684-2.977-3.083l-.002-.003c-.536-.933-.89-1.881-1.041-2.859l-7.874 3.941L75.803 83.85l11.243-16.646-6.186-3.58-15.498 7.755Z"/>
  <path d="M46.387 45.79c0-1.352.397-2.462 1.407-3.037l.028-.015.228-.114.04-.018c.943-.386 1.99-.144 3.043.468l10.295 5.94-.084-.146-2.265-3.892-.002-.003c-.798-1.394-1.222-2.745-1.183-4.05v-.006c.025-.625.135-1.202.387-1.7l.1-.192a2.649 2.649 0 0 1 1.063-1.029c1.003-.472 2.111-.314 3.24.301 1.076.586 1.996 1.534 2.775 2.791l.154.255.001.003 10.017 17.29a12 12 0 0 1 .286.517l.251.51.005.01c.459 1.038.7 2.043.7 3.03 0 1.31-.444 2.361-1.463 2.946l-2.903 1.662-4.622 2.63-.001-.001-2.491 1.423-.002.002c-.96.541-2.082.372-3.232-.257-1.182-.636-2.164-1.685-2.977-3.083l-.002-.003c-.604-1.051-.978-2.122-1.09-3.232a7.298 7.298 0 0 1-.048-.55v-.227c0-1.346.381-2.434 1.356-3l2.49-1.498-11.355-6.558-.002-.002c-1.195-.697-2.176-1.722-2.96-3.073-.784-1.352-1.184-2.719-1.184-4.093Zm1.199 0c0 1.13.328 2.29 1.023 3.489.696 1.198 1.536 2.06 2.525 2.638l12.235 7.07a.6.6 0 0 1 .01 1.033l-3.37 2.025-.007.005c-.436.254-.76.805-.76 1.963v.2c.005.081.01.155.016.224l.023.208.003.024c.093.915.402 1.824.935 2.752.689 1.186 1.469 2.019 2.334 2.532l.175.1.003.001c.965.529 1.616.52 2.067.267l2.493-1.423 4.621-2.63 2.902-1.66c.528-.304.859-.87.859-1.905 0-.785-.19-1.62-.594-2.536a11.01 11.01 0 0 0-.485-.927l-.001-.003-6.875-11.86-3.142-5.43c-.736-1.254-1.564-2.105-2.466-2.596-.909-.495-1.594-.524-2.136-.276a1.446 1.446 0 0 0-.608.654l-.008.019c-.151.292-.244.685-.265 1.21-.029 1.016.298 2.146 1.023 3.415l2.265 3.892v.001l1.208 2.083a.6.6 0 0 1-.817.822l-.638-.364-.002-.002-11.599-6.692v-.001c-.9-.523-1.533-.578-1.98-.399l-.165.083-.087.054c-.423.288-.715.86-.715 1.94Z"/>
  <path d="M70.586 31.357c.794-.444 1.696-.403 2.623-.004a.6.6 0 0 1 .032 1.088l-3.13 1.57-10.123 5.056c-.28.157-.484.371-.622.662l-.008.019c-.152.294-.243.689-.264 1.217-.029 1.015.3 2.144 1.025 3.411l2.263 3.89 1.207 2.083a.6.6 0 0 1-.817.822l-.638-.364-.002-.002-11.598-6.691-.002-.002c-.904-.526-1.54-.579-1.986-.396a.6.6 0 0 1-.496-1.092l22.536-11.267Zm-20.099 11.39c.215.092.43.201.646.327l10.295 5.94-.084-.146-2.265-3.892-.002-.003c-.798-1.393-1.22-2.744-1.182-4.049v-.007c.024-.632.137-1.216.395-1.718.09-.188.198-.36.322-.515l-8.125 4.063Z"/>
  <path d="M98.438 51.322c0-1.05-.343-2.199-1.08-3.466v-.001L87.343 30.568c-.736-1.256-1.565-2.108-2.467-2.599-.916-.498-1.605-.525-2.148-.272L73.24 32.44v-.001l-3.13 1.571v.001l-5.248 2.616-2.773 1.388c.197.08.395.173.595.281 1.075.586 1.995 1.534 2.774 2.791l.155.256.001.003L75.63 58.634c.203.347.382.693.537 1.028l.006.01c.459 1.039.698 2.043.698 3.03 0 .659-.112 1.251-.352 1.752l11.057-5.525 10.002-5.705c.529-.303.859-.87.859-1.903Zm1.2 0c0 1.31-.444 2.36-1.463 2.945l-10.017 5.714a.686.686 0 0 1-.029.015l-6.978 3.483h.001l-15.788 7.9a.6.6 0 0 1-.566-1.058l7.115-4.052 2.9-1.661.098-.06c.472-.316.762-.875.762-1.845 0-.785-.19-1.62-.594-2.536a11.01 11.01 0 0 0-.485-.927v-.002l-6.876-11.86-3.142-5.43c-.735-1.254-1.562-2.106-2.464-2.597-.919-.5-1.61-.525-2.155-.269a.6.6 0 0 1-.524-1.079l.013-.007.006-.003 10.123-5.055 3.128-1.57 9.494-4.746.013-.007c1.003-.472 2.111-.314 3.24.3 1.147.625 2.117 1.662 2.928 3.046l.002.003 10.016 17.29.286.52c.626 1.213.956 2.395.956 3.548Zm14.398-.223c.739-.043 1.506.204 2.272.649 1.616.932 2.799 2.403 3.58 4.372l.136.359c.641 1.786.661 3.36-.148 4.587a.605.605 0 0 1-.064.078l-13.721 20.604-.003.005c-.481.709-1.079 1.264-1.791 1.614l-.017.006-.112.052L81.48 94.787a.601.601 0 0 1-.526-1.08l.012-.005c.514-.243.982-.654 1.375-1.239l1.058-1.58L96.093 71.81l.016-.03.03-.054c.52-.821.567-2.037-.13-3.78l-.001-.002c-.7-1.764-1.723-3.002-3.066-3.777h-.001c-.644-.374-1.173-.514-1.594-.49a1.271 1.271 0 0 0-.232.045.6.6 0 0 1-.44-1.111l22.356-11.196.116-.063.006-.004a2.318 2.318 0 0 1 .883-.25Zm.081 1.196a1.122 1.122 0 0 0-.396.11l-.125.07-.019.01-20.64 10.336c.2.088.403.191.604.308 1.616.933 2.8 2.403 3.581 4.371.753 1.882.85 3.543.05 4.834l-.01.026-.01.018-.004.005v.002a.605.605 0 0 1-.038.065l-8.467 12.713-4.246 6.385v.002l-.439.654 1.23-.614 18.451-9.242.02-.01.117-.053c.492-.243.938-.642 1.32-1.206l13.768-20.676.046-.06.004-.005c.509-.83.549-2.044-.141-3.774-.7-1.764-1.724-3.003-3.066-3.778h-.002c-.64-.372-1.167-.513-1.588-.49ZM44.009 92.266a.601.601 0 0 1 .499.047l22.48 12.975a.602.602 0 0 1-.033 1.057l-18.12 9.06a.6.6 0 0 1-.564-1.058c1.256-.718 1.96-2.103 1.96-4.419 0-2.308-.71-4.72-2.183-7.256-1.462-2.525-3.215-4.364-5.222-5.518v-.001c-1.838-1.067-3.312-1.236-4.5-.715l-.373.186a.6.6 0 0 1-.567-1.056c.143-.083.29-.154.437-.22l6.117-3.053.069-.029Zm7.423 17.662c0 1.184-.175 2.225-.535 3.104l14.524-7.263-21.234-12.256-3.193 1.593c.783.182 1.596.523 2.43 1.008 2.228 1.281 4.12 3.29 5.663 5.956l.282.501c1.368 2.502 2.063 4.954 2.063 7.357Zm60.105 10.87c0-2.308-.711-4.721-2.184-7.257l-.001-.002c-1.098-1.906-2.369-3.416-3.78-4.524l-17.035 8.518v-.001c-.998.552-2.14.347-3.31-.323l-2.51-1.445-3.186 1.593c.785.182 1.6.523 2.436 1.008l.413.249c2.047 1.285 3.8 3.197 5.247 5.707l.282.502c1.368 2.502 2.064 4.954 2.064 7.357 0 1.184-.175 2.225-.535 3.103l20.144-10.072c1.251-.719 1.955-2.102 1.955-4.413Zm1.2 0c0 2.555-.796 4.449-2.567 5.461l-.029.016-22.765 11.381a.6.6 0 0 1-.566-1.057c1.257-.718 1.962-2.103 1.962-4.419 0-2.308-.71-4.72-2.183-7.256l-.001-.002c-1.461-2.535-3.213-4.362-5.22-5.517h-.002c-1.836-1.067-3.31-1.236-4.498-.716l-.373.187a.6.6 0 0 1-.568-1.056 4.52 4.52 0 0 1 .426-.215l6.116-3.058a.6.6 0 0 1 .567.017l2.787 1.604c1.005.576 1.672.578 2.148.307l.03-.016 17.368-8.684.078-.032a.602.602 0 0 1 .547.086c1.683 1.242 3.157 2.959 4.397 5.11 1.554 2.677 2.346 5.296 2.346 7.859Z"/>
  <path d="M51.135 78.698a.602.602 0 0 1 .499.047L71.46 90.183l.001.001 4.914 2.844c1.343.769 2.512 1.067 3.54.96l.257-.038a3.54 3.54 0 0 0 .704-.21l.066-.033 12.44-6.226.07-.03a.6.6 0 0 1 .5.047l14.623 8.444c1.201.688 2.182 1.729 2.964 3.077.761 1.31 1.159 2.634 1.183 3.965a.657.657 0 0 1 .013.126c0 1.355-.398 2.452-1.407 3.026l-.028.015-.228.114-22.536 11.268a.6.6 0 0 1-.565-1.058c.47-.269.8-.833.8-1.982 0-.741-.144-1.5-.438-2.268l-.003-.006a7.55 7.55 0 0 0-.411-.91l-.171-.306c-.697-1.201-1.537-2.073-2.521-2.637l-.002-.001-42.399-24.483a.6.6 0 0 1 .032-1.057l8.206-4.098.07-.029Zm38.838 35.794c0 .362-.03.706-.091 1.026l20.655-10.327.206-.103c.453-.262.774-.801.792-1.877a.665.665 0 0 1-.01-.101c0-1.13-.328-2.291-1.023-3.489-.697-1.201-1.538-2.074-2.522-2.638h-.001l-14.347-8.285-12.153 6.083-.09.045a4.68 4.68 0 0 1-1.34.355h-.004c-1.36.143-2.786-.264-4.265-1.11l-.003-.002-4.916-2.846-19.548-11.278-6.92 3.455 29.22 16.881 12.21 7.043c1.201.688 2.182 1.73 2.964 3.078.262.453.494.926.667 1.394h.001c.343.894.518 1.798.518 2.696Z"/>
  <path d="M46.86 76.635a.601.601 0 0 1 .802-.188l3.972 2.3a.6.6 0 0 1-.032 1.055L43.395 83.9a.6.6 0 0 1-.768-.868l4.233-6.397Zm-1.997 5.19 5.205-2.599-2.52-1.457-2.685 4.057Z"/>
</svg>
