<svg xmlns="http://www.w3.org/2000/svg" width="140" height="140" fill="currentColor" viewBox="0 0 140 140">
  <path d="M2.271 62.976c0-1.901.576-3.362 1.895-4.112 1.248-.714 2.687-.53 4.223.275l.308.17H8.7l32.144 18.56-9.223-15.908a14.438 14.438 0 0 1-.936-1.936l-.004-.01a10.204 10.204 0 0 1-.66-3.584c0-1.854.538-3.299 1.786-4.136l.073-.042.347-.168.029-.013c1.268-.53 2.669-.256 4.118.57l.002.002c1.53.88 2.832 2.231 3.938 4.018l.218.364.001.001 16.536 28.527h.001l3.194 5.527.208.368c.466.857.814 1.704 1.027 2.523.253.913.366 1.826.366 2.723 0 .885-.113 1.696-.388 2.398l-.001.004a3.163 3.163 0 0 1-.44.78l.001.001c-.26.367-.603.661-.985.888l-.009.005-19.875 11.332-.001-.001c-1.36.782-2.896.547-4.474-.415-1.578-.963-2.935-2.459-4.072-4.424l-.007-.012c-1.053-1.92-1.614-3.795-1.665-5.62v-.347c.036-1.684.618-2.988 1.896-3.71l9.44-5.393L8.1 73.02c-1.675-.96-3.048-2.407-4.156-4.31v-.002c-1.096-1.893-1.673-3.814-1.673-5.733ZM31.22 56.43c0 1.05.19 2.102.584 3.162.227.578.511 1.171.854 1.765l10.35 17.854a.6.6 0 0 1-.819.82L8.1 60.35c-1.481-.848-2.54-.899-3.338-.442l-.002.001c-.786.447-1.288 1.38-1.288 3.068 0 1.67.5 3.386 1.51 5.13.958 1.648 2.103 2.877 3.446 3.713l.27.162H8.7l34.09 19.683a.6.6 0 0 1-.003 1.041l-10.35 5.91-.002.002c-.838.474-1.32 1.385-1.288 2.979.045 1.596.537 3.286 1.517 5.074 1.063 1.835 2.29 3.16 3.652 3.991 1.365.832 2.413.884 3.254.4l.002-.002 19.864-11.326a1.994 1.994 0 0 0 .645-.58c.105-.13.196-.297.277-.5.204-.518.306-1.168.306-1.959 0-.798-.101-1.605-.325-2.412l-.002-.008c-.211-.811-.582-1.682-1.11-2.59l-.001-.002-3.196-5.528-16.535-28.524-.203-.338c-1.026-1.66-2.196-2.85-3.515-3.608-1.27-.724-2.26-.836-3.047-.512l-.284.138c-.77.53-1.226 1.499-1.226 3.12Z"/>
  <path d="M30.02 56.431c0-1.853.538-3.299 1.786-4.136a.616.616 0 0 1 .073-.042l.347-.168 3.328-1.664-3.52-2.038c-1.483-.848-2.543-.9-3.342-.442l-.029.017-21.403 10.7c.468.152.948.37 1.437.65l.002.002 32.145 18.559L31.62 61.96v-.001a14.417 14.417 0 0 1-.937-1.935l-.004-.01a10.204 10.204 0 0 1-.66-3.584Zm1.2 0c0 1.05.19 2.102.584 3.162.227.578.511 1.171.854 1.765l.001.001 10.35 17.853a.601.601 0 0 1-.819.82L8.102 60.35c-1.35-.772-2.348-.883-3.119-.552l-.252.127a.601.601 0 0 1-.566-1.058l.03-.016.072-.037c.062-.033.124-.066.188-.095l23.671-11.834c1.242-.695 2.67-.51 4.195.29l.309.169.002.001 4.487 2.597a.6.6 0 0 1-.032 1.056l-4.332 2.166-.007.003-.302.145c-.77.53-1.226 1.499-1.226 3.12Z"/>
  <path d="M54.324 55.007c0-.885.114-1.691.373-2.388l.005-.012c.284-.71.752-1.29 1.432-1.675l.503-.287 7.276-4.14-.486-.842c-1.074-1.835-2.31-3.136-3.716-3.944-1.417-.815-2.493-.86-3.339-.372l-.03.017-21.326 10.667c.446.144.9.351 1.359.613h.002c1.53.88 2.832 2.231 3.938 4.018l.216.364.003.002L57.07 85.553h.001l3.194 5.527.208.368c.464.854.81 1.697 1.024 2.513.255.917.37 1.845.37 2.733 0 .885-.114 1.696-.39 2.398v.004a3.167 3.167 0 0 1-.44.78l.001.001c-.26.367-.603.661-.985.888l-.01.005-.69.392 3.842-1.92.324-.157 11.044-6.298-18.65-32.168a12.241 12.241 0 0 1-1.232-2.868l-.002-.01a10.892 10.892 0 0 1-.355-2.735Zm1.2 0c0 .787.101 1.61.316 2.434.225.806.586 1.677 1.11 2.577h.001L75.904 92.71a.6.6 0 0 1-.221.822L64.1 100.137a.276.276 0 0 1-.036.018l-.347.168-23.577 11.795a.6.6 0 0 1-.566-1.058l19.864-11.326c.264-.157.474-.342.62-.55l.023-.03c.105-.13.198-.297.28-.5.203-.518.305-1.168.305-1.959 0-.786-.101-1.606-.325-2.412l-.004-.008c-.211-.811-.582-1.682-1.11-2.59l-.001-.002-3.194-5.528L39.495 57.63c-1.074-1.835-2.31-3.136-3.716-3.944-1.278-.728-2.27-.837-3.06-.506a.6.6 0 0 1-.5-1.09l23.586-11.798c1.349-.76 2.894-.538 4.504.387 1.53.88 2.832 2.231 3.937 4.019l.218.363.002.002.79 1.364a.6.6 0 0 1-.223.822l-7.802 4.44v-.001l-.502.287-.002.002c-.419.237-.716.59-.91 1.076-.193.522-.293 1.172-.293 1.955Zm44.458-27.388c1.267-.715 2.687-.55 4.15.26l.295.171.003.002c1.576.974 2.919 2.456 4.067 4.42l.01.017c1.04 1.918 1.601 3.793 1.652 5.617.052 1.852-.52 3.285-1.882 4.056l-10.363 5.912-.028.015-23.932 11.965a.6.6 0 0 1-.565-1.057l9.884-5.636.476-.274.004-.003c.838-.473 1.319-1.385 1.275-2.978-.045-1.595-.536-3.282-1.502-5.07-1.077-1.837-2.293-3.153-3.659-3.997a7.064 7.064 0 0 0-.55-.303l-.002-.001c-.972-.464-1.759-.503-2.42-.228a.6.6 0 0 1-.498-1.09L99.982 27.62Zm3.568 1.31c-1.243-.69-2.212-.708-3.001-.254l-.03.017-21.36 10.685a6.042 6.042 0 0 1 1.012.45l.316.184.011.007c1.576.974 2.92 2.456 4.068 4.42l.01.017c1.039 1.918 1.6 3.792 1.652 5.617.03 1.1-.163 2.053-.608 2.806l11.721-5.86 10.342-5.898.002-.001c.838-.474 1.318-1.386 1.274-2.979-.044-1.595-.535-3.283-1.502-5.07-1.075-1.836-2.29-3.151-3.655-3.995l-.252-.147Z"/>
  <path d="M54.324 55.007c0-.898.114-1.692.373-2.388l.005-.012c.284-.71.752-1.29 1.432-1.675l.503-.287v-.001L76.023 39.6l.036-.019.347-.168.03-.013c1.061-.442 2.212-.313 3.393.25.117.056.232.116.343.178l.316.183.011.007c1.576.974 2.92 2.456 4.068 4.42l.01.017c1.039 1.918 1.6 3.792 1.652 5.617.051 1.85-.52 3.283-1.881 4.054v.001l-.478.275-.002.002-8.975 5.117 33.197 19.161.001.001c.392.228.775.482 1.135.765 1.023.79 1.919 1.798 2.694 3.011l.325.534h.001c1.097 1.896 1.66 3.818 1.66 5.734 0 1.896-.561 3.358-1.882 4.11h.001c-1.332.763-2.882.503-4.534-.443l-.001-.001-4.487-2.584-27.668-15.975 9.233 15.908.001.002c1.048 1.82 1.6 3.67 1.6 5.528 0 1.844-.55 3.298-1.782 4.134a.614.614 0 0 1-.04.025c-1.364.777-2.906.575-4.533-.373-1.631-.937-3.016-2.411-4.157-4.383L55.913 60.62a12.241 12.241 0 0 1-1.232-2.868l-.002-.01a10.823 10.823 0 0 1-.355-2.735Zm1.2 0c0 .798.101 1.61.316 2.434.197.705.498 1.46.92 2.24l.19.337h.001l19.743 34.056c.995 1.718 2.153 2.97 3.454 3.787l.263.157.003.002c1.398.815 2.456.857 3.314.38.768-.531 1.24-1.515 1.24-3.128 0-1.612-.477-3.256-1.439-4.928L73.167 72.491a.6.6 0 0 1 .82-.82l34.099 19.682c1.483.849 2.542.9 3.341.442h.002c.783-.446 1.276-1.375 1.276-3.068 0-1.673-.49-3.39-1.499-5.132-.781-1.343-1.689-2.405-2.719-3.2l-.004-.004a8.54 8.54 0 0 0-.995-.67L73.387 60.036a.601.601 0 0 1 .002-1.04l9.884-5.636.476-.274.004-.003c.838-.473 1.319-1.385 1.275-2.978-.045-1.593-.533-3.278-1.498-5.063l-.203-.34c-1.026-1.665-2.177-2.872-3.46-3.664a7.064 7.064 0 0 0-.55-.303l-.002-.001c-.963-.46-1.743-.502-2.4-.236l-.308.148-11.574 6.601-7.803 4.439h.001l-.502.287-.002.001c-.42.237-.716.591-.91 1.077-.193.522-.293 1.16-.293 1.955Z"/>
  <path d="M136.636 76.762c0-1.673-.491-3.39-1.499-5.132-1.022-1.756-2.256-3.037-3.715-3.873l-.002-.001-33.823-19.522L74.95 59.557l33.137 19.126h.002c.391.227.771.481 1.13.762l.218.173c1.078.881 2.012 2.01 2.805 3.375l.001.001c1.097 1.895 1.66 3.817 1.66 5.734 0 .719-.081 1.375-.254 1.955l21.718-10.86c.779-.447 1.268-1.375 1.268-3.061Zm1.2 0c0 1.896-.561 3.36-1.883 4.111l-.028.015-23.932 11.966a.6.6 0 0 1-.564-1.06c.783-.445 1.275-1.374 1.275-3.066 0-1.569-.43-3.176-1.315-4.806l-.183-.327c-.781-1.343-1.69-2.404-2.72-3.2l-.004-.003a8.534 8.534 0 0 0-.994-.672L73.386 60.038a.6.6 0 0 1 .031-1.056l23.932-11.966.069-.03a.6.6 0 0 1 .499.047l34.101 19.683.31.186c1.433.892 2.637 2.158 3.636 3.774l.211.352h.001c1.097 1.895 1.66 3.817 1.66 5.734Zm-64.574-4.996a.6.6 0 0 1 .724-.096l29.615 17.099a.6.6 0 0 1-.032 1.057l-19.252 9.62a.6.6 0 0 1-.606-1.033c.78-.528 1.258-1.505 1.258-3.141 0-1.612-.478-3.256-1.44-4.928L73.167 72.491a.6.6 0 0 1 .095-.725Zm12.906 23.506c0 .757-.094 1.444-.286 2.05l16.152-8.072-26.7-15.417 9.233 15.909.001.002c1.048 1.82 1.6 3.67 1.6 5.528Z"/>
</svg>
