<svg width="73" height="73" viewBox="0 0 73 73" fill="none" xmlns="http://www.w3.org/2000/svg">
<path d="M57.6496 0.0499725H14.4496C6.49666 0.0499725 0.0495605 6.49707 0.0495605 14.45V57.65C0.0495605 65.6029 6.49666 72.05 14.4496 72.05H57.6496C65.6025 72.05 72.0496 65.6029 72.0496 57.65V14.45C72.0496 6.49707 65.6025 0.0499725 57.6496 0.0499725Z" fill="white"/>
<path d="M57.65 0.5H14.45C6.74563 0.5 0.5 6.74563 0.5 14.45V57.65C0.5 65.3544 6.74563 71.6 14.45 71.6H57.65C65.3544 71.6 71.6 65.3544 71.6 57.65V14.45C71.6 6.74563 65.3544 0.5 57.65 0.5Z" stroke="black" stroke-opacity="0.05"/>
<path d="M56.299 27.0473C57.4924 27.0473 58.637 27.5214 59.4809 28.3653C60.3248 29.2092 60.7989 30.3538 60.7989 31.5473V40.5472C60.7989 41.7406 60.3248 42.8852 59.4809 43.7291C58.637 44.573 57.4924 45.0471 56.299 45.0471H53.9095C53.3614 49.3972 51.2445 53.3976 47.956 56.2975C44.6675 59.1974 40.4337 60.7973 36.0492 60.7969V56.297C39.6296 56.297 43.0633 54.8747 45.595 52.3429C48.1268 49.8112 49.549 46.3775 49.549 42.7971V29.2973C49.549 25.7169 48.1268 22.2832 45.595 19.7515C43.0633 17.2198 39.6296 15.7975 36.0492 15.7975C32.4689 15.7975 29.0351 17.2198 26.5034 19.7515C23.9717 22.2832 22.5494 25.7169 22.5494 29.2973V45.0471H15.7995C14.606 45.0471 13.4615 44.573 12.6176 43.7291C11.7737 42.8852 11.2996 41.7406 11.2996 40.5472V31.5473C11.2996 30.3538 11.7737 29.2092 12.6176 28.3653C13.4615 27.5214 14.606 27.0473 15.7995 27.0473H18.189C18.738 22.6979 20.8554 18.6983 24.1437 15.799C27.432 12.8997 31.6653 11.3 36.0492 11.3C40.4332 11.3 44.6665 12.8997 47.9548 15.799C51.2431 18.6983 53.3604 22.6979 53.9095 27.0473H56.299ZM26.5094 44.5634L28.8943 40.7474C31.0386 42.0909 33.5188 42.8015 36.0492 42.7971C38.5797 42.8015 41.0598 42.0909 43.2041 40.7474L45.5891 44.5634C42.7301 46.355 39.4232 47.3026 36.0492 47.2971C32.6753 47.3026 29.3683 46.355 26.5094 44.5634Z" fill="#11A3FD"/>
</svg>
