<svg width="40" height="40" viewBox="0 0 40 40" fill="none" xmlns="http://www.w3.org/2000/svg">
<rect width="40" height="40" rx="5" fill="#EC5D85"/>
<path fill-rule="evenodd" clip-rule="evenodd" d="M34.2428 25.9761C34.094 25.9761 33.9673 25.9878 33.8433 25.9733C33.5913 25.9442 33.3387 25.9498 33.0867 25.9428C32.9233 25.938 32.9281 25.938 32.915 25.7801C32.8741 25.2983 32.8298 24.8164 32.7869 24.3346C32.7495 23.9116 32.7142 23.4879 32.6727 23.0649C32.6353 22.6772 32.5896 22.2916 32.5494 21.9046C32.51 21.5404 32.474 21.1763 32.4338 20.8135C32.3826 20.3566 32.33 19.8997 32.2746 19.4428C32.2261 19.0391 32.1777 18.6341 32.1237 18.2312C32.0392 17.6061 31.952 16.9816 31.8633 16.3571C31.7661 15.6922 31.6567 15.0291 31.5352 14.3681C31.5144 14.2498 31.5172 14.2456 31.63 14.2262C32.1001 14.1459 32.5723 14.0774 33.0507 14.0878C33.1019 14.0891 33.1545 14.0905 33.2057 14.0968C33.2895 14.1071 33.3331 14.148 33.338 14.2463C33.3546 14.5883 33.3788 14.9296 33.4037 15.2709C33.4439 15.8303 33.4875 16.3897 33.529 16.9484C33.556 17.3084 33.5789 17.667 33.6052 18.0263C33.6488 18.603 33.6952 19.1797 33.7381 19.7564C33.7651 20.1094 33.788 20.4625 33.815 20.8156C33.8565 21.3334 33.9015 21.8506 33.9437 22.3678C33.97 22.6973 33.9936 23.0268 34.022 23.3564C34.0635 23.8444 34.1078 24.3325 34.15 24.8199C34.1819 25.2007 34.2103 25.5828 34.2428 25.9761ZM16.0476 14.0933C16.1168 14.0933 16.2207 14.0857 16.3231 14.0947C16.4533 14.1071 16.4782 14.1404 16.4865 14.2719C16.5239 14.8728 16.5592 15.4738 16.5993 16.0754C16.643 16.7234 16.6907 17.3707 16.7385 18.018C16.7828 18.6127 16.8271 19.2067 16.8742 19.8014C16.9261 20.4542 16.9836 21.1064 17.0355 21.7599C17.0757 22.2598 17.1089 22.7603 17.1497 23.2608C17.1885 23.7254 17.2342 24.1885 17.2764 24.6531C17.311 25.0525 17.3477 25.452 17.3823 25.8521C17.3934 25.9788 17.3844 25.9871 17.248 25.9837C16.8915 25.9747 16.537 25.9331 16.1805 25.9428C16.0988 25.9456 16.0753 25.9082 16.0614 25.83C16.0317 25.6611 16.0365 25.4894 16.0185 25.3184C15.97 24.867 15.9417 24.4135 15.9008 23.9608C15.8634 23.5495 15.8184 23.139 15.7762 22.7284C15.7388 22.3525 15.7021 21.9773 15.662 21.6014C15.6218 21.2324 15.5796 20.8627 15.538 20.4937C15.5 20.1538 15.4619 19.8138 15.421 19.4739C15.3608 18.9761 15.3013 18.4784 15.2355 17.9813C15.1753 17.5251 15.1074 17.0709 15.043 16.6154C14.9557 15.9966 14.8576 15.3795 14.7488 14.7641C14.7239 14.6249 14.6976 14.486 14.6699 14.3474C14.656 14.2774 14.6685 14.2366 14.7481 14.2262C14.9579 14.1978 15.167 14.1542 15.3781 14.1334C15.5886 14.1141 15.7997 14.0746 16.0476 14.0933ZM30.9772 20.0942C31.3787 20.0942 31.3884 20.097 31.4528 20.4591C31.5324 20.9063 31.5878 21.357 31.6404 21.8077C31.6958 22.2881 31.7519 22.7679 31.8031 23.2491C31.8447 23.6361 31.8793 24.0244 31.918 24.4108C31.9596 24.8164 32.0025 25.2208 32.0447 25.6258C32.0676 25.8542 32.0897 26.0834 32.1153 26.3118C32.123 26.3783 32.1036 26.4129 32.0385 26.4205C31.9007 26.4364 31.765 26.4551 31.628 26.469C31.3773 26.4967 31.126 26.523 30.8754 26.5465C30.7453 26.5583 30.737 26.5514 30.7127 26.4254C30.4926 25.2858 30.2717 24.147 30.0537 23.0061C29.9083 22.248 29.767 21.4899 29.6244 20.7311C29.605 20.6273 29.5877 20.5221 29.5711 20.4175C29.5614 20.3573 29.578 20.3185 29.6459 20.3026C30.098 20.1967 30.5549 20.115 30.9772 20.0942ZM14.1036 20.0942C14.5328 20.0942 14.5314 20.0956 14.5979 20.4868C14.7003 21.0911 14.773 21.6997 14.8381 22.3096C14.9011 22.9022 14.971 23.4934 15.0333 24.0854C15.0749 24.4911 15.1081 24.8968 15.1476 25.3011C15.1753 25.5891 15.2092 25.8764 15.2397 26.1637C15.2431 26.199 15.2452 26.2343 15.2473 26.2703C15.2542 26.4108 15.2473 26.4226 15.1123 26.4364C14.8443 26.4641 14.575 26.4877 14.3071 26.514C14.2102 26.5237 14.1133 26.5382 14.0163 26.5472C13.8883 26.559 13.8841 26.559 13.8592 26.4295C13.7692 25.9726 13.6813 25.5157 13.5933 25.0588C13.3815 23.9594 13.1676 22.8607 12.9564 21.7613C12.8733 21.321 12.8007 20.8793 12.7183 20.439C12.703 20.3587 12.7141 20.3213 12.7972 20.3019C13.2458 20.1967 13.6972 20.115 14.1036 20.0942ZM19.7736 24.705V26.55C19.7736 26.5673 19.7722 26.5853 19.775 26.6033C19.7833 26.6933 19.7507 26.7321 19.6587 26.7279C19.5375 26.7231 19.4177 26.7265 19.2966 26.7293C19.0439 26.7341 18.7912 26.7238 18.5385 26.7528C18.3993 26.7694 18.4021 26.7604 18.3883 26.613C18.3467 26.1491 18.3017 25.6846 18.2595 25.2201C18.2207 24.7908 18.1854 24.3616 18.146 23.9324C18.1058 23.4914 18.0601 23.0511 18.0193 22.6101C17.9916 22.3165 17.9667 22.023 17.9424 21.7288C17.9099 21.3459 17.8801 20.9638 17.8462 20.5809C17.8323 20.4196 17.8441 20.3968 18.0033 20.3801C18.4148 20.3346 18.8291 20.3216 19.2426 20.3414C19.3464 20.3476 19.4482 20.3677 19.5479 20.3919C19.6739 20.4217 19.6877 20.4404 19.6947 20.5719C19.7085 20.8378 19.7223 21.1036 19.7293 21.3694C19.7369 21.6651 19.7307 21.9607 19.741 22.2563C19.7687 23.0718 19.7646 23.8881 19.7743 24.7043L19.7736 24.705ZM36.614 24.7881V26.5354C36.614 26.5652 36.6133 26.5943 36.6147 26.6248C36.6209 26.7009 36.5849 26.7286 36.5129 26.7279C36.3343 26.7265 36.1563 26.7279 35.9784 26.73C35.777 26.7321 35.5762 26.7314 35.3754 26.7528C35.2425 26.7681 35.2418 26.7584 35.23 26.6261L35.0625 24.8109C35.0127 24.2522 34.9656 23.6935 34.915 23.1348C34.8617 22.5581 34.8043 21.9835 34.753 21.4075C34.7278 21.1192 34.7048 20.8308 34.6838 20.5421C34.6762 20.4161 34.6893 20.394 34.8313 20.3829C35.077 20.3628 35.3221 20.3296 35.57 20.3344C35.8164 20.3386 36.0643 20.3248 36.3093 20.3718C36.517 20.412 36.5281 20.4238 36.5399 20.6467C36.5759 21.3023 36.5648 21.9593 36.5883 22.6149C36.6119 23.3128 36.5953 24.0099 36.614 24.7881ZM30.5583 16.9234C30.7037 16.9318 30.818 16.9248 30.9322 16.9498C31.0042 16.9664 31.0409 16.9996 31.0478 17.0771C31.0824 17.4531 31.1191 17.829 31.1565 18.2056C31.1863 18.5102 31.2188 18.8148 31.2493 19.1201L31.252 19.1381C31.277 19.3299 31.2714 19.3354 31.0845 19.3458C30.9184 19.3548 30.7522 19.3694 30.586 19.3798C30.4773 19.3867 30.4427 19.4047 30.4247 19.2454C30.3624 18.6826 30.2904 18.1218 30.2212 17.5597C30.2021 17.4018 30.1809 17.2441 30.1575 17.0868C30.1437 16.9968 30.1783 16.9484 30.2613 16.9414C30.3707 16.9311 30.4801 16.9283 30.5583 16.9234ZM13.7387 16.9255C13.8509 16.9324 13.9665 16.9234 14.0793 16.9491C14.1437 16.9643 14.1763 16.9913 14.1832 17.0654C14.197 17.2412 14.2233 17.4171 14.24 17.5929C14.2926 18.1329 14.3424 18.6736 14.3923 19.2143C14.4027 19.332 14.3999 19.3348 14.2905 19.3424C14.096 19.3569 13.9007 19.3714 13.7055 19.3791C13.592 19.3846 13.5781 19.3708 13.5636 19.2544C13.5144 18.8564 13.468 18.4583 13.4203 18.0595C13.3822 17.7314 13.3497 17.4032 13.3026 17.0758C13.2901 16.9858 13.3199 16.9601 13.3919 16.9456C13.5061 16.9221 13.621 16.9297 13.7387 16.9255ZM19.6621 18.414V19.44C19.6621 19.5937 19.66 19.5951 19.507 19.593C19.3239 19.594 19.1408 19.5845 18.9587 19.5646C18.841 19.5494 18.8383 19.5535 18.8348 19.4282C18.823 19.0101 18.8106 18.5912 18.8023 18.1731C18.796 17.8899 18.7926 17.6074 18.776 17.3243C18.767 17.1789 18.7746 17.1768 18.9144 17.1748C19.1214 17.1727 19.3277 17.1817 19.5327 17.2135C19.6559 17.2329 19.6614 17.2329 19.6621 17.37L19.6628 18.414H19.6621ZM36.5108 18.4223V19.4497C36.5108 19.5937 36.508 19.5951 36.364 19.5937C36.1752 19.5918 35.9866 19.5828 35.7984 19.5667C35.7043 19.5598 35.6773 19.5203 35.6835 19.4351V19.3991C35.6697 18.7387 35.6544 18.0782 35.642 17.4178C35.6413 17.3831 35.6392 17.3471 35.6406 17.3118C35.6427 17.1782 35.6427 17.1748 35.7763 17.1761C35.9597 17.1768 36.1425 17.1865 36.3253 17.2045C36.5489 17.2267 36.5094 17.2544 36.5108 17.4316V18.4223ZM13.2777 19.2254C13.2825 19.4137 13.2825 19.4137 13.1025 19.4573C12.9807 19.4871 12.8588 19.5196 12.7356 19.5473C12.631 19.5708 12.6123 19.5577 12.5943 19.4545L12.2198 17.3513C12.1949 17.2059 12.2011 17.1976 12.3437 17.172C12.5189 17.1415 12.6933 17.1111 12.8685 17.0834C12.98 17.0661 12.9945 17.0723 13.0167 17.1955C13.061 17.4448 13.1025 17.694 13.1357 17.9453C13.1863 18.342 13.2278 18.7408 13.2742 19.1381C13.2777 19.1672 13.2763 19.197 13.2777 19.2261V19.2254ZM29.0692 17.1928C29.2983 17.1554 29.5296 17.1166 29.7615 17.0806C29.8446 17.0674 29.8695 17.1201 29.8799 17.1941C29.9193 17.4683 29.9692 17.7411 30.001 18.0152C30.0488 18.4133 30.1139 18.8093 30.1257 19.2101L30.1277 19.3348C30.1298 19.3978 30.098 19.431 30.0391 19.4448C29.8827 19.4794 29.7255 19.5154 29.5697 19.5528C29.495 19.5708 29.4693 19.539 29.4569 19.4656C29.4105 19.1866 29.3558 18.909 29.308 18.6314C29.227 18.1731 29.1481 17.7148 29.0692 17.2564C29.0671 17.2398 29.0692 17.2218 29.0692 17.1928ZM18.524 18.8003C18.517 19.044 18.5316 19.2565 18.4983 19.4684C18.4887 19.5355 18.4693 19.5791 18.3973 19.5854C18.2422 19.5978 18.0878 19.6103 17.9334 19.6262C17.8593 19.6338 17.8386 19.602 17.8261 19.5286C17.7915 19.3119 17.7984 19.0924 17.777 18.8751C17.7375 18.4638 17.7209 18.0505 17.6939 17.6386C17.6877 17.5382 17.678 17.4378 17.6697 17.3381C17.6655 17.2821 17.6877 17.2502 17.7472 17.2481C17.948 17.2398 18.1473 17.2031 18.3488 17.2108C18.4665 17.2149 18.4762 17.2225 18.4845 17.3416C18.49 17.424 18.4887 17.5071 18.4907 17.5901L18.524 18.8003ZM35.365 18.5642C35.365 18.8481 35.3685 19.1319 35.365 19.4158C35.3623 19.5625 35.3457 19.575 35.2065 19.5888C35.0687 19.6013 34.9323 19.6117 34.7953 19.6262C34.7177 19.6345 34.6817 19.6124 34.6769 19.5224C34.6568 19.1458 34.6298 18.7691 34.6035 18.3925C34.5827 18.0803 34.5599 17.7681 34.5384 17.4565C34.5357 17.4205 34.5377 17.3852 34.5357 17.3499C34.5322 17.2876 34.5509 17.2509 34.6208 17.2488C34.8153 17.2419 35.0085 17.2045 35.2044 17.2114C35.3242 17.2156 35.3263 17.2177 35.3353 17.3423C35.3643 17.7487 35.3671 18.1564 35.365 18.5642ZM12.703 23.634C12.9488 23.9054 12.9613 24.2266 12.8803 24.5624C12.7986 24.8988 12.6123 25.1758 12.3867 25.4243C12.0087 25.8397 11.551 26.1457 11.065 26.406C10.2341 26.8469 9.34064 27.1582 8.41558 27.3288C7.75053 27.46 7.07752 27.547 6.40097 27.5891C6.19466 27.6002 5.98904 27.6099 5.78273 27.6085C5.6332 27.6085 5.48297 27.6127 5.33412 27.6071C5.20673 27.603 5.18873 27.5808 5.17835 27.4479C5.13958 26.9716 5.10704 26.4946 5.06481 26.0183C5.01497 25.4658 4.9575 24.9141 4.9042 24.3623C4.86543 23.9628 4.8315 23.5627 4.78858 23.1646C4.73943 22.6952 4.68404 22.2265 4.62935 21.7571C4.58089 21.3238 4.53243 20.8904 4.4805 20.4563C4.42235 19.9758 4.36212 19.4968 4.29773 19.0177C4.23543 18.5559 4.16966 18.0948 4.10181 17.6338C3.99104 16.8757 3.87127 16.1183 3.74112 15.363C3.63603 14.7469 3.51901 14.133 3.39012 13.5214C3.37281 13.4398 3.39704 13.4072 3.46904 13.3774C4.15581 13.0915 4.8405 12.8008 5.52727 12.5134C5.65466 12.4601 5.7855 12.4158 5.92189 12.3902C6.01535 12.3729 6.03958 12.3923 6.03681 12.4871C6.02989 12.7294 6.03958 12.9724 6.01604 13.2141C6.01019 13.2787 6.00696 13.3436 6.00635 13.4086C5.99527 14.2774 5.98558 15.1463 6.00773 16.0158C6.0285 16.7774 6.06797 17.5382 6.11158 18.2991C6.1462 18.9 6.19604 19.5009 6.24797 20.1004C6.29781 20.6882 6.35873 21.2753 6.41689 21.8631C6.42727 21.9745 6.43766 21.9849 6.56435 21.9683C6.81358 21.9302 7.06627 21.9094 7.31897 21.906C8.10335 21.9039 8.87527 22.0119 9.6382 22.1933C10.307 22.3525 10.9563 22.5644 11.5794 22.86C11.8882 23.0068 12.1831 23.1764 12.4517 23.391C12.5438 23.4637 12.6255 23.5468 12.703 23.634ZM29.425 23.4914C29.729 23.7586 29.839 24.0854 29.7532 24.4897C29.6812 24.8234 29.5192 25.1038 29.3025 25.3551C28.955 25.758 28.5327 26.064 28.0764 26.3201C27.1806 26.8228 26.2273 27.1495 25.2241 27.3378C24.6772 27.4417 24.1254 27.5192 23.5702 27.5691C23.2559 27.5968 22.9402 27.63 22.5878 27.6085H22.1759C22.0956 27.6085 22.0499 27.5829 22.043 27.4874C22.0132 27.0699 21.9779 26.6524 21.9405 26.2343C21.9003 25.794 21.856 25.353 21.8145 24.912C21.7764 24.5077 21.7411 24.102 21.7003 23.6963C21.6622 23.3148 21.6186 22.9341 21.577 22.5526C21.539 22.1947 21.5016 21.8368 21.4593 21.4795C21.4088 21.0461 21.3555 20.6128 21.3015 20.1801C21.251 19.7758 21.2011 19.3721 21.1478 18.9685C21.0903 18.5358 21.0301 18.1031 20.9671 17.6718C20.8827 17.1111 20.792 16.5531 20.7027 15.9944C20.5782 15.2024 20.4342 14.4136 20.2707 13.6288C20.2637 13.5941 20.261 13.5581 20.2499 13.5249C20.2257 13.4488 20.2499 13.4072 20.324 13.3781C21.0537 13.0922 21.7598 12.7468 22.4964 12.4747C22.5927 12.4387 22.6903 12.3985 22.7941 12.3874C22.8876 12.3784 22.9111 12.3937 22.9021 12.4934C22.853 13.0354 22.8813 13.5803 22.8557 14.1231C22.835 14.5661 22.837 15.0092 22.8592 15.4523C22.8647 15.5651 22.8689 15.678 22.8682 15.7901C22.862 16.3218 22.8903 16.8535 22.9167 17.3852C22.952 18.0872 23.0025 18.7878 23.0551 19.4884C23.0918 19.9945 23.141 20.4992 23.188 21.0046C23.2137 21.2815 23.2407 21.5584 23.2746 21.8333C23.2933 21.9849 23.3009 21.9856 23.4497 21.9662C23.7109 21.9262 23.9747 21.9058 24.239 21.9053C25.1649 21.9211 26.0846 22.0606 26.9736 22.32C27.5787 22.4924 28.1678 22.7077 28.7244 23.0088C28.975 23.1424 29.2104 23.3044 29.425 23.4914ZM7.96004 26.1131C8.30343 25.9491 9.97258 24.6413 10.1048 24.4281C9.29481 24.0778 8.48204 23.7531 7.60835 23.4865L7.96004 26.1131ZM26.9133 24.5139C26.9556 24.4675 26.9514 24.4315 26.8926 24.4059C26.7777 24.3533 26.6634 24.2972 26.5464 24.2488C25.9233 23.9933 25.2968 23.7461 24.655 23.544C24.599 23.5267 24.5415 23.4879 24.4695 23.5211L24.8157 26.1021C24.8669 26.1131 24.887 26.0896 24.9098 26.0737C25.4934 25.6444 26.0798 25.2201 26.6406 24.7583C26.7347 24.6814 26.8289 24.6032 26.9133 24.5139Z" fill="white"/>
</svg>
