<svg width="40" height="40" viewBox="0 0 40 40" fill="none" xmlns="http://www.w3.org/2000/svg">
<rect width="40" height="40" rx="5" fill="#5865F2"/>
<path d="M30.3963 10.4622C28.4842 9.58481 26.4337 8.93842 24.2899 8.5682C24.2508 8.56106 24.2118 8.57891 24.1917 8.61463C23.928 9.08365 23.6359 9.69552 23.4314 10.1764C21.1255 9.83124 18.8315 9.83124 16.5729 10.1764C16.3683 9.68483 16.0656 9.08365 15.8007 8.61463C15.7806 8.58011 15.7416 8.56225 15.7026 8.5682C13.5599 8.93724 11.5095 9.58363 9.59617 10.4622C9.57961 10.4693 9.56541 10.4812 9.55599 10.4967C5.66674 16.3071 4.60131 21.9748 5.12398 27.5721C5.12634 27.5995 5.14171 27.6257 5.163 27.6424C7.72901 29.5268 10.2146 30.6708 12.6541 31.4291C12.6931 31.441 12.7345 31.4267 12.7594 31.3946C13.3364 30.6065 13.8508 29.7756 14.2918 28.9018C14.3179 28.8506 14.293 28.7899 14.2398 28.7697C13.4239 28.4602 12.647 28.0828 11.8997 27.6543C11.8405 27.6198 11.8358 27.5352 11.8902 27.4947C12.0475 27.3769 12.2048 27.2543 12.3549 27.1305C12.3821 27.1079 12.42 27.1031 12.4519 27.1174C17.3616 29.359 22.6769 29.359 27.5287 27.1174C27.5606 27.1019 27.5985 27.1067 27.6268 27.1293C27.7771 27.2531 27.9343 27.3769 28.0928 27.4947C28.1472 27.5352 28.1436 27.6198 28.0845 27.6543C27.3372 28.0911 26.5602 28.4602 25.7431 28.7685C25.6899 28.7887 25.6663 28.8506 25.6923 28.9018C26.1428 29.7744 26.6572 30.6053 27.2236 31.3934C27.2473 31.4267 27.2898 31.441 27.3289 31.4291C29.7802 30.6708 32.2658 29.5268 34.8318 27.6424C34.8543 27.6257 34.8685 27.6007 34.8708 27.5733C35.4964 21.1022 33.8231 15.481 30.4353 10.4979C30.427 10.4812 30.4128 10.4693 30.3963 10.4622ZM15.025 24.1639C13.5469 24.1639 12.3289 22.8069 12.3289 21.1403C12.3289 19.4737 13.5233 18.1166 15.025 18.1166C16.5386 18.1166 17.7448 19.4856 17.7211 21.1403C17.7211 22.8069 16.5268 24.1639 15.025 24.1639ZM24.9934 24.1639C23.5153 24.1639 22.2974 22.8069 22.2974 21.1403C22.2974 19.4737 23.4917 18.1166 24.9934 18.1166C26.507 18.1166 27.7132 19.4856 27.6896 21.1403C27.6896 22.8069 26.507 24.1639 24.9934 24.1639Z" fill="white"/>
</svg>
