<svg width="40" height="40" viewBox="0 0 40 40" fill="none" xmlns="http://www.w3.org/2000/svg">
<g clip-path="url(#clip0_41225_28246)">
<path d="M20.0065 0C11.6567 0 9.21464 0.0086172 8.73997 0.0479999C7.02645 0.190473 5.9602 0.460347 4.79855 1.03884C3.90335 1.48351 3.19732 1.99893 2.50052 2.72146C1.23154 4.03911 0.462451 5.66016 0.184036 7.5871C0.0486834 8.52256 0.00930044 8.71334 0.00130295 13.4916C-0.00176602 15.0844 0.00130295 17.1805 0.00130295 19.9921C0.00130295 28.3375 0.010525 30.7777 0.0505275 31.2516C0.188964 32.9194 0.450447 33.9687 1.00419 35.1165C2.06246 37.3136 4.0836 38.963 6.4647 39.5784C7.28917 39.7907 8.19977 39.9077 9.36877 39.9631C9.86407 39.9846 14.9123 40 19.9637 40C25.0151 40 30.0664 39.9938 30.5494 39.9692C31.903 39.9055 32.689 39.8 33.5581 39.5753C35.9546 38.9568 37.9388 37.3321 39.0186 35.1042C39.5616 33.9841 39.8369 32.8948 39.9615 31.314C39.9886 30.9694 39.9999 25.4745 39.9999 19.9869C39.9999 14.4985 39.9876 9.01368 39.9606 8.66903C39.8344 7.06274 39.5591 5.98266 38.9986 4.84102C38.5387 3.90647 38.028 3.20856 37.2866 2.49499C35.9635 1.23087 34.3453 0.461571 32.4171 0.183398C31.4828 0.0483024 31.2967 0.00829984 26.516 0H20.0065Z" fill="url(#paint0_radial_41225_28246)"/>
<path d="M20.0065 0C11.6567 0 9.21464 0.0086172 8.73997 0.0479999C7.02645 0.190473 5.9602 0.460347 4.79855 1.03884C3.90335 1.48351 3.19732 1.99893 2.50052 2.72146C1.23154 4.03911 0.462451 5.66016 0.184036 7.5871C0.0486834 8.52256 0.00930044 8.71334 0.00130295 13.4916C-0.00176602 15.0844 0.00130295 17.1805 0.00130295 19.9921C0.00130295 28.3375 0.010525 30.7777 0.0505275 31.2516C0.188964 32.9194 0.450447 33.9687 1.00419 35.1165C2.06246 37.3136 4.0836 38.963 6.4647 39.5784C7.28917 39.7907 8.19977 39.9077 9.36877 39.9631C9.86407 39.9846 14.9123 40 19.9637 40C25.0151 40 30.0664 39.9938 30.5494 39.9692C31.903 39.9055 32.689 39.8 33.5581 39.5753C35.9546 38.9568 37.9388 37.3321 39.0186 35.1042C39.5616 33.9841 39.8369 32.8948 39.9615 31.314C39.9886 30.9694 39.9999 25.4745 39.9999 19.9869C39.9999 14.4985 39.9876 9.01368 39.9606 8.66903C39.8344 7.06274 39.5591 5.98266 38.9986 4.84102C38.5387 3.90647 38.028 3.20856 37.2866 2.49499C35.9635 1.23087 34.3453 0.461571 32.4171 0.183398C31.4828 0.0483024 31.2967 0.00829984 26.516 0H20.0065Z" fill="url(#paint1_radial_41225_28246)"/>
<path d="M20.0065 0C11.6567 0 9.21464 0.0086172 8.73997 0.0479999C7.02645 0.190473 5.9602 0.460347 4.79855 1.03884C3.90335 1.48351 3.19732 1.99893 2.50052 2.72146C1.23154 4.03911 0.462451 5.66016 0.184036 7.5871C0.0486834 8.52256 0.00930044 8.71334 0.00130295 13.4916C-0.00176602 15.0844 0.00130295 17.1805 0.00130295 19.9921C0.00130295 28.3375 0.010525 30.7777 0.0505275 31.2516C0.188964 32.9194 0.450447 33.9687 1.00419 35.1165C2.06246 37.3136 4.0836 38.963 6.4647 39.5784C7.28917 39.7907 8.19977 39.9077 9.36877 39.9631C9.86407 39.9846 14.9123 40 19.9637 40C25.0151 40 30.0664 39.9938 30.5494 39.9692C31.903 39.9055 32.689 39.8 33.5581 39.5753C35.9546 38.9568 37.9388 37.3321 39.0186 35.1042C39.5616 33.9841 39.8369 32.8948 39.9615 31.314C39.9886 30.9694 39.9999 25.4745 39.9999 19.9869C39.9999 14.4985 39.9876 9.01368 39.9606 8.66903C39.8344 7.06274 39.5591 5.98266 38.9986 4.84102C38.5387 3.90647 38.028 3.20856 37.2866 2.49499C35.9635 1.23087 34.3453 0.461571 32.4171 0.183398C31.4828 0.0483024 31.2967 0.00829984 26.516 0H20.0065Z" fill="url(#paint2_radial_41225_28246)"/>
<path d="M20.0065 0C11.6567 0 9.21464 0.0086172 8.73997 0.0479999C7.02645 0.190473 5.9602 0.460347 4.79855 1.03884C3.90335 1.48351 3.19732 1.99893 2.50052 2.72146C1.23154 4.03911 0.462451 5.66016 0.184036 7.5871C0.0486834 8.52256 0.00930044 8.71334 0.00130295 13.4916C-0.00176602 15.0844 0.00130295 17.1805 0.00130295 19.9921C0.00130295 28.3375 0.010525 30.7777 0.0505275 31.2516C0.188964 32.9194 0.450447 33.9687 1.00419 35.1165C2.06246 37.3136 4.0836 38.963 6.4647 39.5784C7.28917 39.7907 8.19977 39.9077 9.36877 39.9631C9.86407 39.9846 14.9123 40 19.9637 40C25.0151 40 30.0664 39.9938 30.5494 39.9692C31.903 39.9055 32.689 39.8 33.5581 39.5753C35.9546 38.9568 37.9388 37.3321 39.0186 35.1042C39.5616 33.9841 39.8369 32.8948 39.9615 31.314C39.9886 30.9694 39.9999 25.4745 39.9999 19.9869C39.9999 14.4985 39.9876 9.01368 39.9606 8.66903C39.8344 7.06274 39.5591 5.98266 38.9986 4.84102C38.5387 3.90647 38.028 3.20856 37.2866 2.49499C35.9635 1.23087 34.3453 0.461571 32.4171 0.183398C31.4828 0.0483024 31.2967 0.00829984 26.516 0H20.0065Z" fill="url(#paint3_radial_41225_28246)"/>
<path d="M20.0081 5.13608C15.969 5.13608 15.4621 5.15372 13.8757 5.22586C12.2925 5.29831 11.2117 5.54878 10.2661 5.91631C9.28794 6.29588 8.45819 6.80363 7.63154 7.62997C6.80428 8.45603 6.29613 9.28515 5.91503 10.2623C5.54632 11.2075 5.29534 12.2877 5.22409 13.8692C5.15314 15.4544 5.13454 15.9613 5.13454 19.9973C5.13454 24.0334 5.15252 24.5384 5.22439 26.1236C5.29721 27.7057 5.54787 28.7856 5.91533 29.7305C6.29551 30.708 6.80364 31.5371 7.6306 32.3631C8.45696 33.1898 9.2867 33.6988 10.2642 34.0784C11.2105 34.4459 12.2915 34.6964 13.8745 34.7688C15.4609 34.8409 15.9675 34.8586 20.0062 34.8586C24.0456 34.8586 24.5509 34.8409 26.1373 34.7688C27.7206 34.6964 28.8026 34.4459 29.7488 34.0784C30.7267 33.6988 31.5552 33.1898 32.3815 32.3631C33.2088 31.5371 33.7169 30.708 34.098 29.7308C34.4636 28.7856 34.7146 27.7054 34.789 26.1239C34.8602 24.5387 34.8788 24.0334 34.8788 19.9973C34.8788 15.9612 34.8602 15.4547 34.789 13.8695C34.7146 12.2874 34.4636 11.2075 34.098 10.2626C33.7169 9.28515 33.2088 8.45601 32.3815 7.62997C31.5542 6.80332 30.727 6.29556 29.7479 5.91629C28.7998 5.54878 27.7184 5.29831 26.1352 5.22586C24.5488 5.15372 24.0437 5.13608 20.0034 5.13608H20.0081ZM18.6739 7.8142C19.0699 7.81358 19.5117 7.8142 20.0081 7.8142C23.979 7.8142 24.4496 7.82844 26.0177 7.89965C27.4678 7.96591 28.2548 8.20802 28.779 8.41143C29.4731 8.68079 29.9679 9.00279 30.4881 9.52293C31.0086 10.0431 31.3308 10.5385 31.601 11.232C31.8046 11.7552 32.0472 12.5416 32.1132 13.9906C32.1845 15.5572 32.2 16.0278 32.2 19.9939C32.2 23.96 32.1845 24.4306 32.1132 25.9973C32.0469 27.4462 31.8046 28.2326 31.601 28.7559C31.3315 29.4494 31.0086 29.9432 30.4881 30.4631C29.9676 30.9832 29.4734 31.3052 28.779 31.5746C28.2554 31.7789 27.4678 32.0204 26.0177 32.0867C24.4499 32.1579 23.979 32.1733 20.0081 32.1733C16.0369 32.1733 15.5662 32.1579 13.9984 32.0867C12.5484 32.0198 11.7614 31.7777 11.2368 31.5743C10.5428 31.3049 10.047 30.9829 9.52652 30.4628C9.00599 29.9426 8.68376 29.4485 8.41357 28.7546C8.21001 28.2314 7.96741 27.445 7.90142 25.996C7.83015 24.4294 7.81589 23.9588 7.81589 19.9902C7.81589 16.0216 7.83015 15.5535 7.90142 13.9869C7.96772 12.5379 8.21001 11.7515 8.41357 11.2276C8.68313 10.5341 9.00599 10.0387 9.52652 9.51861C10.047 8.99845 10.5428 8.67647 11.2368 8.40649C11.7611 8.20213 12.5484 7.96065 13.9984 7.89407C15.3704 7.83215 15.9021 7.81358 18.6739 7.81047L18.6739 7.8142ZM27.9468 10.2818C26.9615 10.2818 26.1621 11.0797 26.1621 12.0645C26.1621 13.0491 26.9615 13.8479 27.9468 13.8479C28.9321 13.8479 29.7315 13.0491 29.7315 12.0645C29.7315 11.08 28.9321 10.2818 27.9468 10.2818ZM20.0081 12.3655C15.7902 12.3655 12.3705 15.7826 12.3705 19.9973C12.3705 24.212 15.7902 27.6277 20.0081 27.6277C24.2259 27.6277 27.6444 24.212 27.6444 19.9973C27.6444 15.7826 24.2259 12.3655 20.0081 12.3655ZM20.0081 15.0436C22.7458 15.0436 24.9655 17.2613 24.9655 19.9973C24.9655 22.733 22.7458 24.9511 20.0081 24.9511C17.27 24.9511 15.0506 22.733 15.0506 19.9973C15.0506 17.2613 17.27 15.0436 20.0081 15.0436Z" fill="white"/>
</g>
<defs>
<radialGradient id="paint0_radial_41225_28246" cx="0" cy="0" r="1" gradientTransform="matrix(-24.5982 6.93727 -4.99804 -17.7218 38.7083 18.7485)" gradientUnits="userSpaceOnUse">
<stop stop-color="#FF005F"/>
<stop offset="1" stop-color="#FC01D8"/>
</radialGradient>
<radialGradient id="paint1_radial_41225_28246" cx="0" cy="0" r="1" gradientUnits="userSpaceOnUse" gradientTransform="translate(10.6246 43.0808) rotate(-90) scale(31.9288 33.8757)">
<stop stop-color="#FFCC00"/>
<stop offset="0.1242" stop-color="#FFCC00"/>
<stop offset="0.5672" stop-color="#FE4A05"/>
<stop offset="0.6942" stop-color="#FF0F3F"/>
<stop offset="1" stop-color="#FE0657" stop-opacity="0"/>
</radialGradient>
<radialGradient id="paint2_radial_41225_28246" cx="0" cy="0" r="1" gradientTransform="matrix(6.62727 -11.419 14.8662 8.628 21.0107 39.4359)" gradientUnits="userSpaceOnUse">
<stop stop-color="#FFCC00"/>
<stop offset="1" stop-color="#FFCC00" stop-opacity="0"/>
</radialGradient>
<radialGradient id="paint3_radial_41225_28246" cx="0" cy="0" r="1" gradientTransform="matrix(-24.3282 6.8504 -2.33333 -8.28875 5.42708 1.62879)" gradientUnits="userSpaceOnUse">
<stop stop-color="#780CFF"/>
<stop offset="1" stop-color="#820BFF" stop-opacity="0"/>
</radialGradient>
<clipPath id="clip0_41225_28246">
<rect width="40" height="40" rx="3.33333" fill="white"/>
</clipPath>
</defs>
</svg>
