<svg width="40" height="40" viewBox="0 0 40 40" fill="none" xmlns="http://www.w3.org/2000/svg">
<rect width="40" height="40" rx="5" fill="#FF2442"/>
<path d="M34.5668 17.0309C34.5696 17.0533 34.5808 17.0589 34.6648 17.0575H35.6798C35.8474 17.0581 36.013 17.0208 36.1642 16.9485C36.3155 16.8763 36.4485 16.7708 36.5534 16.6401C36.6583 16.5094 36.7325 16.3567 36.7703 16.1933C36.808 16.03 36.8086 15.8603 36.7718 15.6968C36.7123 15.4232 36.5518 15.1822 36.3224 15.0218C36.093 14.8614 35.8115 14.7935 35.5342 14.8316C35.2649 14.8668 35.0177 14.9992 34.8393 15.2039C34.6609 15.4087 34.5635 15.6716 34.5654 15.9432C34.5654 16.0846 34.5626 16.8755 34.5668 17.0309ZM18.4545 23.762C18.1703 23.7634 16.5604 23.7676 16.0956 23.7662C15.7312 23.763 15.3694 23.7035 15.0232 23.5898C15.015 23.5874 15.0062 23.588 14.9985 23.5917C14.9907 23.5953 14.9846 23.6016 14.9812 23.6094L13.9802 25.778C13.9766 25.7858 13.976 25.7948 13.9786 25.8031C13.9812 25.8113 13.9867 25.8184 13.9942 25.8228C14.1496 25.9068 14.4646 25.9964 14.6872 25.9964C15.6112 26.0104 16.5352 25.9992 17.4605 25.9964C17.4745 25.9964 17.4885 25.988 17.4927 25.9754L18.4895 23.8124C18.4922 23.8069 18.4934 23.8008 18.493 23.7947C18.4927 23.7885 18.4906 23.7826 18.4872 23.7775C18.4838 23.7724 18.4792 23.7683 18.4737 23.7656C18.4682 23.7628 18.462 23.7616 18.4559 23.762H18.4545ZM3.86821 17.0743C3.76882 17.0743 3.76182 17.0771 3.76182 17.0883C3.75535 17.1254 3.75068 17.1628 3.74782 17.2003C3.71002 17.7561 3.69462 17.8933 3.42022 21.4842C3.40342 21.8202 3.37262 22.0288 3.23123 22.334C3.19483 22.4138 3.18503 22.3928 3.23543 22.4908C3.29983 22.6196 4.18881 24.623 4.33721 24.9268C4.34841 24.9478 4.35261 24.9548 4.36101 24.9548C4.3722 24.9548 4.4072 24.9184 4.4268 24.8932C4.6326 24.6314 4.802 24.3458 4.94619 24.0448C5.37458 23.1558 5.56218 22.1898 5.62658 21.6564C5.64618 21.5024 5.65598 21.3485 5.66858 21.1945L5.95417 17.5321L5.98497 17.1219C5.98917 17.0813 5.98497 17.0757 5.94297 17.0743H3.86821ZM13.9522 22.334C13.8275 22.0681 13.763 21.778 13.7632 21.4842C13.7576 21.3667 13.7198 20.9383 13.4342 17.2003C13.4331 17.1617 13.4285 17.1233 13.4202 17.0855C13.4146 17.0701 13.3474 17.0743 13.3138 17.0743H11.2419C11.1999 17.0757 11.1943 17.0813 11.1999 17.1219L11.2293 17.5321C11.3357 18.9069 11.4435 20.2817 11.5555 21.6564C11.6255 22.2164 11.8159 23.1754 12.2372 24.0448C12.3814 24.3458 12.5494 24.6314 12.7552 24.8932C12.7762 24.9184 12.807 24.9646 12.8224 24.9618C12.8504 24.9576 13.8612 22.663 13.948 22.4908C13.9984 22.3928 13.99 22.4138 13.9522 22.334ZM19.3575 21.0559H18.1367C18.1071 21.0561 18.0778 21.049 18.0517 21.035C18.0256 21.021 18.0034 21.0006 17.9872 20.9758C17.971 20.9509 17.9614 20.9224 17.9591 20.8929C17.9569 20.8633 17.9621 20.8337 17.9743 20.8067L19.6235 17.1317C19.6258 17.1264 19.6268 17.1206 19.6263 17.1148C19.6258 17.109 19.6239 17.1034 19.6207 17.0985C19.6175 17.0937 19.6131 17.0897 19.608 17.0869C19.6029 17.0842 19.5971 17.0827 19.5913 17.0827L17.7461 17.0785C17.7113 17.0787 17.677 17.07 17.6464 17.0534C17.6158 17.0368 17.5898 17.0127 17.571 16.9834C17.5521 16.9541 17.541 16.9205 17.5386 16.8857C17.5362 16.851 17.5425 16.8162 17.5571 16.7845L18.7835 14.049C18.7858 14.0437 18.7868 14.0378 18.7863 14.032C18.7858 14.0262 18.7839 14.0206 18.7807 14.0158C18.7775 14.0109 18.7731 14.0069 18.768 14.0042C18.7629 14.0014 18.7571 14 18.7513 14H16.5674C16.5534 14 16.5394 14.0084 16.5338 14.021L15.2374 16.9161C15.1184 17.1527 14.7978 17.8037 14.6788 18.2293C14.6534 18.316 14.6439 18.4066 14.6508 18.4967C14.6557 18.6049 14.6877 18.7101 14.744 18.8026C14.8003 18.8951 14.879 18.9719 14.9728 19.0259C15.1706 19.1334 15.3917 19.1906 15.6168 19.1925H16.4428C16.5002 19.1925 15.4796 21.2673 15.2752 21.9532C15.2513 22.0312 15.2404 22.1125 15.243 22.194C15.2438 22.3068 15.2739 22.4175 15.3303 22.5152C15.3868 22.6129 15.4676 22.6942 15.565 22.7512C15.775 22.88 16.0438 22.9192 16.23 22.9192L18.5539 22.9178C18.5679 22.9178 18.5819 22.9094 18.5861 22.8968L19.3911 21.1049C19.3935 21.0994 19.3944 21.0934 19.3939 21.0875C19.3933 21.0816 19.3913 21.0759 19.3879 21.071C19.3845 21.0661 19.38 21.0622 19.3747 21.0595C19.3694 21.0569 19.3634 21.0556 19.3575 21.0559ZM9.6557 14.1442H7.54034C7.53411 14.1438 7.52786 14.1447 7.522 14.1469C7.51614 14.149 7.5108 14.1524 7.50631 14.1568C7.50183 14.1611 7.49831 14.1664 7.49597 14.1721C7.49363 14.1779 7.49253 14.1842 7.49274 14.1904C7.49274 15.6576 7.47874 18.1033 7.47874 23.7508C7.47874 24.154 7.10215 24.1176 7.08675 24.1176H6.05077C5.99477 24.119 5.98917 24.1232 5.99477 24.1834C5.99617 24.2352 6.64576 25.673 6.77176 25.9516C6.78576 25.9796 6.81376 25.9978 6.84315 25.9978C7.06295 26.002 7.91693 26.0104 8.15633 25.9782C8.37052 25.9502 8.57632 25.8942 8.76952 25.7934C9.18951 25.575 9.4555 25.2068 9.6025 24.7224C9.6753 24.4816 9.7075 24.2282 9.7075 23.9762C9.7103 20.7143 9.7075 17.4523 9.6977 14.189C9.6977 14.1771 9.69298 14.1657 9.68458 14.1573C9.67618 14.1489 9.66478 14.1442 9.6529 14.1442H9.6557ZM26.153 23.7984C26.153 23.7788 26.139 23.769 26.1194 23.7676H24.0684C24.0012 23.7662 23.9998 23.7648 23.9984 23.699V17.1751C23.9984 17.0743 23.9914 17.0771 24.0964 17.0771H25.3046C25.4166 17.0771 25.4096 17.0827 25.4096 16.9735V14.9506C25.4096 14.8358 25.418 14.8442 25.2976 14.8442H20.3977C20.3081 14.8442 20.2927 14.8358 20.2927 14.9464V16.9693C20.2927 17.0855 20.2843 17.0771 20.4047 17.0771H21.6003C21.7053 17.0771 21.6983 17.0715 21.6983 17.1751V23.6486C21.6983 23.7816 21.7095 23.7662 21.5793 23.7662C21.0613 23.7662 20.0253 23.7634 19.7537 23.7662C19.6865 23.7676 19.6697 23.8082 19.6697 23.8082L18.6939 25.9348C18.6939 25.9348 18.6743 25.9698 18.6827 25.9852C18.6911 25.9992 18.7009 25.9964 18.7639 25.9964C21.2111 26.0006 23.6568 25.9992 26.104 25.9992C26.146 25.9978 26.1516 25.9908 26.153 25.953V23.7984ZM32.0007 18.9965C32.0007 19.0147 31.9909 19.0287 31.9727 19.0301C31.4883 19.0385 31.0039 19.0357 30.5209 19.0357C30.5013 19.0329 30.4901 19.0217 30.4901 19.0021C30.4831 18.3945 30.4803 17.7855 30.4761 17.1779C30.4761 17.0771 30.4677 17.0785 30.5741 17.0799L31.6003 17.0757C31.6577 17.0757 31.7137 17.0785 31.7683 17.0967C31.8985 17.1317 31.9922 17.2465 31.9992 17.3823C32.0076 17.9857 32.0021 18.9965 32.0007 18.9965ZM35.7386 19.3381C35.3568 19.1386 34.9332 19.0321 34.5024 19.0273H34.2504C34.1944 19.0259 34.1944 19.0231 34.1916 18.9713V17.4943C34.1916 17.3095 34.1818 17.1261 34.1566 16.9427C34.1233 16.686 34.051 16.4358 33.9424 16.2008C33.7439 15.7746 33.4109 15.4253 32.9946 15.2068C32.5639 14.9753 32.0836 14.8514 31.5947 14.8456C31.3805 14.8414 30.8009 14.8456 30.5867 14.8456C30.4887 14.8456 30.4915 14.8512 30.4915 14.7546V14.0644C30.4915 14.021 30.4775 14.007 30.4271 14.0098H28.3019C28.3019 14.0098 28.2795 14.0098 28.2697 14.0196C28.2613 14.028 28.2585 14.0364 28.2585 14.0518V14.8162C28.2473 14.8666 28.1787 14.8372 28.1437 14.847H26.8138C26.783 14.8498 26.7746 14.8582 26.7718 14.8918V16.9651C26.7718 17.0911 26.7662 17.0799 26.8866 17.0799H28.1647C28.2795 17.0799 28.2655 17.2591 28.2655 17.2591V18.8663C28.2655 18.8663 28.2697 19.0301 28.1815 19.0301H26.1068C26.0116 19.0301 26.0228 19.1449 26.0228 19.1449V21.1679C26.0228 21.1679 26.0088 21.2631 26.1124 21.2631H28.1521C28.2669 21.2631 28.2585 21.2547 28.2585 21.3737V25.8886C28.2585 26.0118 28.2487 26.002 28.3733 26.002H30.3753C30.5013 26.002 30.4901 26.0118 30.4901 25.89V21.3121C30.4901 21.2715 30.4985 21.2631 30.5363 21.2631L33.7884 21.2589C33.9256 21.2589 34.0558 21.2869 34.1804 21.3443C34.2916 21.3933 34.3866 21.4729 34.4545 21.5737C34.5224 21.6746 34.5603 21.7925 34.564 21.914C34.5752 22.467 34.5682 23.02 34.5682 23.573C34.5682 23.9356 34.4184 24.0868 34.1062 24.0868H32.401C32.3688 24.0896 32.3604 24.098 32.3618 24.133C32.6194 24.7448 32.8854 25.3524 33.1598 25.9572C33.1648 25.9679 33.1727 25.977 33.1826 25.9834C33.1925 25.9898 33.204 25.9934 33.2158 25.9936C33.4538 26.0006 33.6918 25.9964 33.9298 25.9978C34.1398 25.995 34.6536 26.0034 34.8622 25.9838C35.0557 25.9684 35.2471 25.9332 35.4334 25.8788C36.2594 25.6268 36.7984 24.9016 36.7998 24.0406V21.2673C36.7998 21.0881 36.7858 20.9117 36.7522 20.7353C36.7522 20.8445 36.7116 19.8379 35.7386 19.3381Z" fill="white"/>
</svg>
