<svg width="40" height="40" viewBox="0 0 40 40" fill="none" xmlns="http://www.w3.org/2000/svg">
<rect width="40" height="40" rx="5" fill="url(#paint0_radial_41225_28248)"/>
<path d="M17.2296 16.9935V15.8917C16.8456 15.835 16.4615 15.8098 16.0711 15.8098C11.3426 15.8035 7.49561 19.6505 7.49561 24.3853C7.49561 27.1872 8.8619 29.8064 11.16 31.412C9.68041 29.8253 8.8556 27.7412 8.8556 25.569C8.8556 20.9035 12.5956 17.1005 17.2296 16.9935Z" fill="#25F4EE"/>
<path d="M17.4374 29.4853C19.5403 29.479 21.2655 27.8168 21.3474 25.7138L21.3537 7.03282H24.7662C24.6907 6.64245 24.6592 6.24579 24.6592 5.84912H20L19.9874 24.5301C19.9118 26.6898 18.0985 28.3772 15.9389 28.3016C15.3533 28.2827 14.7741 28.1253 14.2578 27.8546C14.9881 28.8746 16.1718 29.4853 17.4374 29.4853Z" fill="#25F4EE"/>
<path d="M31.1444 13.3732V12.3343C29.8915 12.3343 28.6637 11.9691 27.6122 11.2828C28.5315 12.3469 29.7718 13.0772 31.1444 13.3732Z" fill="#25F4EE"/>
<path d="M27.6122 11.2828C26.5859 10.1054 26.0192 8.5943 26.0192 7.03282H24.7725C25.0936 8.77689 26.12 10.3132 27.6122 11.2828Z" fill="#FE2C55"/>
<path d="M16.0774 20.4628C13.9115 20.4628 12.1611 22.2131 12.1611 24.379C12.1611 25.8398 12.9671 27.1746 14.2641 27.8483C12.9922 26.1042 13.3763 23.6676 15.1141 22.3957C16.1152 21.6653 17.4122 21.4513 18.5959 21.8291V17.0691C18.2119 17.0124 17.8278 16.9872 17.4374 16.9872C17.3682 16.9872 17.3052 16.9935 17.2359 16.9935V20.6454C16.8582 20.5257 16.4678 20.4628 16.0774 20.4628Z" fill="#FE2C55"/>
<path d="M31.1444 13.3732L31.1444 16.9935C28.8148 16.9935 26.5481 16.2694 24.6592 14.9094V24.3853C24.6592 29.1201 20.8122 32.9671 16.0774 32.9671C14.3145 32.9671 12.6019 32.4257 11.16 31.412C12.7782 33.156 15.0511 34.1508 17.4374 34.1508C22.1659 34.1508 26.0192 30.3038 26.0192 25.569V16.0931C27.9081 17.4531 30.1747 18.1835 32.5044 18.1772V13.518C32.0447 13.518 31.5915 13.4676 31.1444 13.3732Z" fill="#FE2C55"/>
<path d="M24.6592 24.3853V14.9094C26.5481 16.2694 28.8148 16.9998 31.1444 16.9935L31.1444 13.3732C29.7718 13.0772 28.5315 12.3469 27.6122 11.2828C26.12 10.3132 25.0936 8.77689 24.7662 7.03282H21.3537L21.3474 25.7138C21.2718 27.8735 19.4585 29.5609 17.2989 29.4853C16.09 29.4412 14.963 28.8431 14.2578 27.8546C12.3437 26.8535 11.6008 24.4861 12.6019 22.5657C13.2756 21.275 14.6167 20.4628 16.0711 20.4628C16.4615 20.4628 16.8518 20.5257 17.2296 20.6453L17.2296 16.9935C12.5956 17.1068 8.85559 20.9098 8.85559 25.5753C8.85559 27.7475 9.6804 29.8316 11.16 31.4183C12.6019 32.432 14.3145 32.9734 16.0774 32.9734C20.8059 32.9671 24.6592 29.1138 24.6592 24.3853Z" fill="white"/>
<defs>
<radialGradient id="paint0_radial_41225_28248" cx="0" cy="0" r="1" gradientUnits="userSpaceOnUse" gradientTransform="translate(20 20) rotate(90) scale(20)">
<stop stop-color="#2A1216"/>
<stop offset="1" stop-color="#1A1720"/>
</radialGradient>
</defs>
</svg>
