<svg width="40" height="40" viewBox="0 0 40 40" fill="none" xmlns="http://www.w3.org/2000/svg">
<rect width="40" height="40" rx="5" fill="url(#paint0_linear_41337_423)"/>
<path fill-rule="evenodd" clip-rule="evenodd" d="M36.1741 23.8131C36.1741 19.3168 31.8012 15.6786 26.4079 15.6786C21.0143 15.6786 16.6417 19.3168 16.6417 23.8131C16.6417 28.2933 21.0143 31.9312 26.4079 31.9476C27.522 31.9312 28.598 31.7724 29.6114 31.4784C29.6861 31.4583 29.6801 31.459 29.8764 31.4203C30.0731 31.3819 30.2441 31.4784 30.3925 31.5564L32.5019 32.8079C32.5989 32.86 32.6566 32.886 32.7363 32.886C32.9073 32.886 33.0526 32.7405 33.049 32.5733C33.0526 32.4809 33.023 32.4074 33.0003 32.3297C32.9773 32.2526 32.7156 31.2985 32.5803 30.6961C32.5609 30.6107 32.5503 30.5616 32.5503 30.4004C32.5503 30.2389 32.6336 30.0654 32.8146 29.9139C34.8581 28.4575 36.1741 26.2533 36.1741 23.8131ZM23.088 22.4051C22.436 22.4051 21.876 21.8451 21.876 21.1159C21.876 20.4625 22.436 19.9022 23.088 19.9022C23.8167 19.9022 24.3761 20.4628 24.3761 21.1159C24.3761 21.8451 23.8167 22.4051 23.088 22.4051ZM29.5727 22.4051C28.9207 22.4051 28.3607 21.8451 28.3607 21.1159C28.3607 20.4625 28.9207 19.9022 29.5727 19.9022C30.3015 19.9022 30.8608 20.4628 30.8608 21.1159C30.8608 21.8451 30.3015 22.4051 29.5727 22.4051Z" fill="white"/>
<path fill-rule="evenodd" clip-rule="evenodd" d="M3.75024 16.4609C3.75024 19.3743 5.328 22.019 7.81315 23.8128C7.99616 23.9479 8.09383 24.1021 8.09383 24.3611C8.09383 24.4509 8.07816 24.547 8.04716 24.6735C7.83948 25.5245 7.61147 26.4983 7.57847 26.6291C7.5458 26.7592 7.4938 26.846 7.50046 26.9418C7.4938 27.1584 7.66847 27.3329 7.89115 27.3329C7.96882 27.3329 8.03849 27.3012 8.1255 27.2545L10.7037 25.7684C10.867 25.6696 11.0503 25.6186 11.1737 25.6186C11.2977 25.6186 11.504 25.6569 11.6414 25.6903C12.8368 25.996 14.1272 26.1876 15.4696 26.1595C15.6772 26.1846 15.887 26.1846 16.0946 26.1595C15.8482 25.4013 15.7165 24.6104 15.7039 23.8131C15.7139 18.8707 20.4966 14.888 26.4079 14.8964C26.6106 14.888 26.8219 14.8947 27.0329 14.8964C26.1506 10.2466 21.3076 6.68347 15.4696 6.68347C8.99455 6.68347 3.75024 11.0502 3.75024 16.4609ZM11.485 14.8964C11.2798 14.8964 11.0766 14.8559 10.8871 14.7773C10.6975 14.6987 10.5252 14.5835 10.3801 14.4382C10.235 14.2929 10.1199 14.1205 10.0414 13.9307C9.96286 13.7409 9.92244 13.5375 9.92244 13.3321C9.92244 13.1266 9.96286 12.9232 10.0414 12.7334C10.1199 12.5436 10.235 12.3712 10.3801 12.2259C10.5252 12.0807 10.6975 11.9654 10.8871 11.8868C11.0766 11.8082 11.2798 11.7677 11.485 11.7677C11.6902 11.7677 11.8934 11.8082 12.083 11.8868C12.2726 11.9654 12.4448 12.0807 12.5899 12.2259C12.735 12.3712 12.8501 12.5436 12.9287 12.7334C13.0072 12.9232 13.0476 13.1266 13.0476 13.3321C13.0476 13.5375 13.0072 13.7409 12.9287 13.9307C12.8501 14.1205 12.735 14.2929 12.5899 14.4382C12.4448 14.5835 12.2726 14.6987 12.083 14.7773C11.8934 14.8559 11.6902 14.8964 11.485 14.8964ZM19.2982 14.8964C19.0929 14.8964 18.8898 14.8559 18.7002 14.7773C18.5106 14.6987 18.3383 14.5835 18.1932 14.4382C18.0481 14.2929 17.933 14.1205 17.8545 13.9307C17.776 13.7409 17.7356 13.5375 17.7356 13.3321C17.7356 13.1266 17.776 12.9232 17.8545 12.7334C17.933 12.5436 18.0481 12.3712 18.1932 12.2259C18.3383 12.0807 18.5106 11.9654 18.7002 11.8868C18.8898 11.8082 19.0929 11.7677 19.2982 11.7677C19.7086 11.7737 20.1003 11.9412 20.3884 12.2339C20.6766 12.5266 20.8381 12.9211 20.8381 13.3321C20.8381 13.743 20.6766 14.1375 20.3884 14.4302C20.1003 14.7229 19.7086 14.8904 19.2982 14.8964Z" fill="white"/>
<defs>
<linearGradient id="paint0_linear_41337_423" x1="20.0002" y1="0.108711" x2="20.0002" y2="40.0007" gradientUnits="userSpaceOnUse">
<stop stop-color="#02E36F"/>
<stop offset="1" stop-color="#07C160"/>
</linearGradient>
</defs>
</svg>
