<svg width="40" height="40" viewBox="0 0 40 40" fill="none" xmlns="http://www.w3.org/2000/svg">
<path d="M39.1641 10.3097C38.7041 8.57747 37.3489 7.21338 35.6277 6.75042C32.5084 5.90906 20 5.90906 20 5.90906C20 5.90906 7.49166 5.90906 4.37225 6.75042C2.65127 7.21338 1.29581 8.57747 0.835848 10.3097C0 13.4494 0 20 0 20C0 20 0 26.5505 0.835848 29.6904C1.29581 31.4225 2.65127 32.7865 4.37225 33.2497C7.49166 34.0909 20 34.0909 20 34.0909C20 34.0909 32.5084 34.0909 35.6277 33.2497C37.3489 32.7865 38.7041 31.4225 39.1641 29.6904C40 26.5505 40 20 40 20C40 20 40 13.4494 39.1641 10.3097Z" fill="#ED1D24"/>
<path d="M15.9091 25.9474L26.3636 20.0002L15.9091 14.0525V25.9474Z" fill="white"/>
</svg>
