<svg width="40" height="40" viewBox="0 0 40 40" fill="none" xmlns="http://www.w3.org/2000/svg">
<path d="M15.0013 12.0149L27.1292 27.9116H25.081L12.903 12.0149H15.0013Z" fill="#042144"/>
<path fill-rule="evenodd" clip-rule="evenodd" d="M31 1.66663C35.05 1.66663 38.3333 4.94987 38.3333 8.99996V31C38.3333 35.05 35.05 38.3333 31 38.3333H8.99996C4.94987 38.3333 1.66663 35.05 1.66663 31V8.99996C1.66663 4.94987 4.94987 1.66663 8.99996 1.66663H31ZM8.91044 9.92737L17.4899 21.1386L9.65165 30.0743H12.3372L18.7306 22.7768L24.3559 30.0743H31.0895L22.1305 18.3099L29.4585 9.93632H26.8033L20.8969 16.652L15.7854 9.92737H8.91044Z" fill="#042144"/>
</svg>
