<svg width="72" height="82" viewBox="0 0 72 82" fill="none" xmlns="http://www.w3.org/2000/svg">
<path d="M57.6 9.76007H14.4C6.4471 9.76007 0 16.2072 0 24.1601V67.3601C0 75.313 6.4471 81.7601 14.4 81.7601H57.6C65.5529 81.7601 72 75.313 72 67.3601V24.1601C72 16.2072 65.5529 9.76007 57.6 9.76007Z" fill="white"/>
<path d="M57.6004 10.2101H14.4004C6.69605 10.2101 0.450424 16.4557 0.450424 24.1601V67.3601C0.450424 75.0645 6.69605 81.3101 14.4004 81.3101H57.6004C65.3048 81.3101 71.5504 75.0645 71.5504 67.3601V24.1601C71.5504 16.4557 65.3048 10.2101 57.6004 10.2101Z" stroke="black" stroke-opacity="0.05" stroke-width="0.900011"/>
<path d="M21.0967 45.7686C32.326 24.3943 44.2636 9.03379 52.8932 0.579637C54.4451 -0.940733 56.8166 0.779617 56.1792 2.85655C51.3574 18.5656 48.0288 43.4308 46.5406 55.377C46.3815 56.6543 45.1314 57.4909 43.8885 57.1563L23.7333 51.7297C21.1487 51.034 19.8518 48.1381 21.0967 45.7686Z" fill="#7EC9FF"/>
<path d="M39.3765 56.3521C39.1531 41.7791 40.5911 29.9031 42.133 21.9046C42.7859 18.5171 46.9354 17.7262 48.8225 20.6142C54.7575 29.6975 58.7355 38.8392 60.7688 47.2288C61.1835 48.9408 60.3992 50.6983 58.8991 51.6215L45.6943 59.748C42.9565 61.433 39.4258 59.5664 39.3765 56.3521Z" fill="#1A93EB"/>
<path d="M8.12771 55.7669C6.54634 54.3451 7.95691 51.7603 10.0084 52.3208L61.2974 66.3369C63.4104 66.9143 63.92 69.6777 62.1519 70.9708C59.6812 72.778 56.6894 73.7322 53.6283 73.6895L30.5502 73.367C28.685 73.3409 26.8924 72.6392 25.5053 71.392L8.12771 55.7669Z" fill="#1B5BBC"/>
</svg>
