<svg xmlns="http://www.w3.org/2000/svg" width="24" height="24" fill="currentColor" viewBox="0 0 24 24">
  <path d="M11 10a1 1 0 0 0-1-1 4 4 0 0 1-4-4V3.34a1 1 0 0 1 2 0V5a2 2 0 0 0 2 2 3 3 0 0 1 3 3 1 1 0 1 0 2 0c0-1.652 1.348-3 3-3h3.17a1 1 0 1 1 0 2H18c-.548 0-1 .452-1 1a3 3 0 0 1-6 0Zm-1 11.95V18a1 1 0 0 0-1-1 3 3 0 0 1-3-3v-1a1 1 0 0 0-1-1H2.05a1 1 0 1 1 0-2H5a3 3 0 0 1 3 3v1a1 1 0 0 0 .902.995l.394.02A3 3 0 0 1 12 18v3.95a1 1 0 0 1-2 0Z"/>
  <path d="M21 12a9 9 0 1 0-7.831 8.925 1 1 0 0 1 .257 1.983c-.467.06-.943.092-1.426.092-6.075 0-11-4.925-11-11S5.925 1 12 1s11 4.925 11 11c0 .653-.056 1.293-.166 1.916a1 1 0 0 1-1.97-.347A9.202 9.202 0 0 0 21 12Z"/>
  <path fill="#12A3FC" d="M18.77 18.786a1 1 0 0 1 1.413 0l2.225 2.224a1 1 0 1 1-1.414 1.414L18.769 20.2a1 1 0 0 1 0-1.414Z"/>
  <path fill="#12A3FC" d="M19.356 17.373a2 2 0 1 0-4 0 2 2 0 0 0 4 0Zm2 0a4 4 0 1 1-8 0 4 4 0 0 1 8 0Z"/>
</svg>
