<svg width="1512" height="720" viewBox="0 0 1512 720" fill="none" xmlns="http://www.w3.org/2000/svg" xmlns:xlink="http://www.w3.org/1999/xlink">
<g clip-path="url(#clip0_39338_111959)">
<rect width="1512" height="720" fill="white"/>
<rect width="1512" height="720" fill="white"/>
<rect width="1512" height="720" fill="url(#paint0_linear_39338_111959)" fill-opacity="0.04"/>
<g clip-path="url(#clip1_39338_111959)">
<mask id="mask0_39338_111959" style="mask-type:alpha" maskUnits="userSpaceOnUse" x="0" y="0" width="1512" height="720">
<rect width="1512" height="720" fill="url(#paint1_linear_39338_111959)"/>
</mask>
<g mask="url(#mask0_39338_111959)">
<rect width="1512" height="720" fill="url(#pattern0_39338_111959)" fill-opacity="0.2"/>
<g filter="url(#filter0_f_39338_111959)">
<path d="M-282 202.903H326.693L644 818.903H35.3065L-282 202.903Z" fill="url(#paint2_linear_39338_111959)"/>
</g>
</g>
</g>
<g opacity="0.3" filter="url(#filter1_f_39338_111959)">
<path d="M1074.67 -114.732H1683.37L2000.67 501.268H1391.98L1074.67 -114.732Z" fill="url(#paint3_linear_39338_111959)"/>
</g>
</g>
<defs>
<filter id="filter0_f_39338_111959" x="-422" y="62.9028" width="1206" height="896" filterUnits="userSpaceOnUse" color-interpolation-filters="sRGB">
<feFlood flood-opacity="0" result="BackgroundImageFix"/>
<feBlend mode="normal" in="SourceGraphic" in2="BackgroundImageFix" result="shape"/>
<feGaussianBlur stdDeviation="70" result="effect1_foregroundBlur_39338_111959"/>
</filter>
<filter id="filter1_f_39338_111959" x="934.673" y="-254.732" width="1206" height="896" filterUnits="userSpaceOnUse" color-interpolation-filters="sRGB">
<feFlood flood-opacity="0" result="BackgroundImageFix"/>
<feBlend mode="normal" in="SourceGraphic" in2="BackgroundImageFix" result="shape"/>
<feGaussianBlur stdDeviation="70" result="effect1_foregroundBlur_39338_111959"/>
</filter>
<linearGradient id="paint0_linear_39338_111959" x1="756" y1="0" x2="756" y2="720" gradientUnits="userSpaceOnUse">
<stop stop-color="#1DBDBC"/>
<stop offset="1" stop-color="#1DBDBC" stop-opacity="0.5"/>
</linearGradient>
<linearGradient id="paint1_linear_39338_111959" x1="756" y1="218.234" x2="756" y2="948.148" gradientUnits="userSpaceOnUse">
<stop stop-color="white" stop-opacity="0"/>
<stop offset="1" stop-color="white" stop-opacity="0.6"/>
</linearGradient>
<linearGradient id="paint2_linear_39338_111959" x1="339.653" y1="202.903" x2="339.653" y2="818.903" gradientUnits="userSpaceOnUse">
<stop stop-color="#33FDF6" stop-opacity="0.3"/>
<stop offset="1" stop-color="#33FDF6"/>
</linearGradient>
<linearGradient id="paint3_linear_39338_111959" x1="1696.33" y1="-114.732" x2="1696.33" y2="501.268" gradientUnits="userSpaceOnUse">
<stop stop-color="#3990F8"/>
<stop offset="1" stop-color="#13DD8D" stop-opacity="0"/>
</linearGradient>
<clipPath id="clip0_39338_111959">
<rect width="1512" height="720" fill="white"/>
</clipPath>
<clipPath id="clip1_39338_111959">
<rect width="1512" height="720" fill="white"/>
</clipPath>
<pattern id="pattern0_39338_111959" patternUnits="userSpaceOnUse" patternTransform="matrix(28 0 0 28 0 0)" preserveAspectRatio="none" viewBox="0 0 28 28" width="1" height="1">
<g id="pattern0_39338_111959_inner">
<path d="M7 3L7.76122 5.05715C7.96379 5.60459 8.39541 6.03621 8.94285 6.23878L11 7L8.94285 7.76122C8.39541 7.96379 7.96379 8.39541 7.76122 8.94285L7 11L6.23878 8.94285C6.03621 8.39541 5.60459 7.96379 5.05715 7.76122L3 7L5.05715 6.23878C5.60459 6.03621 6.03621 5.60459 6.23878 5.05715L7 3Z" fill="#F1F5F8"/>
<path d="M7 3L7.76122 5.05715C7.96379 5.60459 8.39541 6.03621 8.94285 6.23878L11 7L8.94285 7.76122C8.39541 7.96379 7.96379 8.39541 7.76122 8.94285L7 11L6.23878 8.94285C6.03621 8.39541 5.60459 7.96379 5.05715 7.76122L3 7L5.05715 6.23878C5.60459 6.03621 6.03621 5.60459 6.23878 5.05715L7 3Z" fill="black"/>
</g>
</pattern></defs>
</svg>
