<svg width="60" height="60" viewBox="0 0 60 60" fill="none" xmlns="http://www.w3.org/2000/svg">
<rect width="60" height="60" rx="10" fill="#11A3FD" fill-opacity="0.15"/>
<path fill-rule="evenodd" clip-rule="evenodd" d="M13.958 29.9999C13.958 21.1403 21.1401 13.9583 29.9997 13.9583C38.8592 13.9583 46.0413 21.1403 46.0413 29.9999C46.0413 38.8594 38.8592 46.0416 29.9997 46.0416C21.1401 46.0416 13.958 38.8594 13.958 29.9999ZM16.9548 28.5416H22.7811C23.108 24.5119 24.4567 20.6439 26.683 17.2976C21.4959 18.6482 17.5572 23.0921 16.9548 28.5416ZM29.9997 17.6782C27.5647 20.8152 26.075 24.5849 25.7087 28.5416H34.2907C33.9244 24.5849 32.4347 20.8152 29.9997 17.6782ZM34.2907 31.4583C33.9244 35.415 32.4347 39.1845 29.9997 42.3217C27.5647 39.1846 26.075 35.415 25.7087 31.4583H34.2907ZM22.7811 31.4583H16.9548C17.5572 36.9077 21.4959 41.3516 26.683 42.7022C24.4567 39.356 23.108 35.4879 22.7811 31.4583ZM33.3164 42.7022C35.5427 39.356 36.8914 35.4879 37.2183 31.4583H43.0446C42.4422 36.9076 38.5035 41.3516 33.3164 42.7022ZM43.0446 28.5416H37.2183C36.8914 24.5119 35.5427 20.6439 33.3164 17.2976C38.5035 18.6482 42.4422 23.0922 43.0446 28.5416Z" fill="#11A3FD"/>
</svg>
