<svg width="240" height="240" viewBox="0 0 240 240" fill="none" xmlns="http://www.w3.org/2000/svg">
<g opacity="0.3" clip-path="url(#clip0_39322_111472)">
<path d="M-20.4736 -13.1274H17.998V-74.3999H20.3262V-13.1274H58.7979V-74.3999H61.126V-13.1274H99.5977V-74.3999H101.926V-13.1274H140.398V-74.3999H142.727V-13.1274H181.198V-74.3999H183.526V-13.1274H221.998V-74.3999H224.326V-13.1274H262.798V-74.3999H265.126V-13.1274H326.397V-10.7993H265.126V27.6724H326.397V30.0005H265.126V68.4722H326.397V70.8003H265.126V109.272H326.397V111.6H265.126V150.073H326.397V152.401H265.126V190.873H326.397V193.201H265.126V231.672H326.397V234H265.126V272.472H326.397V274.8H265.126V338.4H262.798V274.8H224.326V338.4H221.998V274.8H183.526V338.4H181.198V274.8H142.727V338.4H140.398V274.8H101.926V338.4H99.5977V274.8H61.126V338.4H58.7979V274.8H20.3262V338.4H17.998V274.8H-20.4736V338.4H-22.8018V274.8H-86.4023V272.472H-22.8018V234H-86.4023V231.672H-22.8018V193.201H-86.4023V190.873H-22.8018V152.401H-86.4023V150.073H-22.8018V111.6H-86.4023V109.272H-22.8018V70.8003H-86.4023V68.4722H-22.8018V30.0005H-86.4023V27.6724H-22.8018V-10.7993H-86.4023V-13.1274H-22.8018V-74.3999H-20.4736V-13.1274ZM-20.4736 272.472H17.998V234H-20.4736V272.472ZM20.3262 272.472H58.7979V234H20.3262V272.472ZM61.126 272.472H99.5977V234H61.126V272.472ZM101.926 272.472H140.398V234H101.926V272.472ZM142.727 272.472H181.198V234H142.727V272.472ZM183.526 272.472H221.998V234H183.526V272.472ZM224.326 272.472H262.798V234H224.326V272.472ZM-20.4736 231.672H17.998V193.201H-20.4736V231.672ZM20.3262 231.672H58.7979V193.201H20.3262V231.672ZM61.126 231.672H99.5977V193.201H61.126V231.672ZM101.926 231.672H140.398V193.201H101.926V231.672ZM142.727 231.672H181.198V193.201H142.727V231.672ZM183.526 231.672H221.998V193.201H183.526V231.672ZM224.326 231.672H262.798V193.201H224.326V231.672ZM-20.4736 190.873H17.998V152.401H-20.4736V190.873ZM20.3262 190.873H58.7979V152.401H20.3262V190.873ZM61.126 190.873H99.5977V152.401H61.126V190.873ZM101.926 190.873H140.398V152.401H101.926V190.873ZM142.727 190.873H181.198V152.401H142.727V190.873ZM183.526 190.873H221.998V152.401H183.526V190.873ZM224.326 190.873H262.798V152.401H224.326V190.873ZM-20.4736 150.073H17.998V111.6H-20.4736V150.073ZM20.3262 150.073H58.7979V111.6H20.3262V150.073ZM61.126 150.073H99.5977V111.6H61.126V150.073ZM101.926 150.073H140.398V111.6H101.926V150.073ZM142.727 150.073H181.198V111.6H142.727V150.073ZM183.526 150.073H221.998V111.6H183.526V150.073ZM224.326 150.073H262.798V111.6H224.326V150.073ZM-20.4736 109.272H17.998V70.8003H-20.4736V109.272ZM20.3262 109.272H58.7979V70.8003H20.3262V109.272ZM61.126 109.272H99.5977V70.8003H61.126V109.272ZM101.926 109.272H140.398V70.8003H101.926V109.272ZM142.727 109.272H181.198V70.8003H142.727V109.272ZM183.526 109.272H221.998V70.8003H183.526V109.272ZM224.326 109.272H262.798V70.8003H224.326V109.272ZM-20.4736 68.4722H17.998V30.0005H-20.4736V68.4722ZM20.3262 68.4722H58.7979V30.0005H20.3262V68.4722ZM61.126 68.4722H99.5977V30.0005H61.126V68.4722ZM101.926 68.4722H140.398V30.0005H101.926V68.4722ZM142.727 68.4722H181.198V30.0005H142.727V68.4722ZM183.526 68.4722H221.998V30.0005H183.526V68.4722ZM224.326 68.4722H262.798V30.0005H224.326V68.4722ZM-20.4736 27.6724H17.998V-10.7993H-20.4736V27.6724ZM20.3262 27.6724H58.7979V-10.7993H20.3262V27.6724ZM61.126 27.6724H99.5977V-10.7993H61.126V27.6724ZM101.926 27.6724H140.398V-10.7993H101.926V27.6724ZM142.727 27.6724H181.198V-10.7993H142.727V27.6724ZM183.526 27.6724H221.998V-10.7993H183.526V27.6724ZM224.326 27.6724H262.798V-10.7993H224.326V27.6724Z" fill="url(#paint0_radial_39322_111472)"/>
<path d="M142.467 110.401H182.399V151.634H223.199" stroke="url(#paint1_linear_39322_111472)" stroke-width="2.328"/>
<path d="M60.2185 191.133L60.2185 151.2H100.8L100.8 110.4" stroke="url(#paint2_linear_39322_111472)" stroke-width="2.328"/>
<path d="M101.233 29.8618V69.7944H60V110.594" stroke="url(#paint3_linear_39322_111472)" stroke-width="2.328"/>
<circle cx="141.6" cy="110.4" r="2.4" fill="#FD9F12"/>
<circle cx="59.9996" cy="191.89" r="2.4" transform="rotate(-90 59.9996 191.89)" fill="#FD9F12"/>
<circle cx="100.837" cy="28.7999" r="2.4" transform="rotate(90 100.837 28.7999)" fill="#FD9F12"/>
</g>
<defs>
<radialGradient id="paint0_radial_39322_111472" cx="0" cy="0" r="1" gradientUnits="userSpaceOnUse" gradientTransform="translate(119.998 132) rotate(90) scale(139.2)">
<stop stop-color="#E6E6E6"/>
<stop offset="1" stop-color="#E6E6E6" stop-opacity="0"/>
</radialGradient>
<linearGradient id="paint1_linear_39322_111472" x1="143.4" y1="106.634" x2="222" y2="152.234" gradientUnits="userSpaceOnUse">
<stop stop-color="#FDA623"/>
<stop offset="1" stop-color="#FDA623" stop-opacity="0"/>
</linearGradient>
<linearGradient id="paint2_linear_39322_111472" x1="56.4514" y1="190.2" x2="102.051" y2="111.6" gradientUnits="userSpaceOnUse">
<stop stop-color="#FDA623"/>
<stop offset="1" stop-color="#FDA623" stop-opacity="0"/>
</linearGradient>
<linearGradient id="paint3_linear_39322_111472" x1="105" y1="30.7946" x2="59.4" y2="109.395" gradientUnits="userSpaceOnUse">
<stop stop-color="#FDA623"/>
<stop offset="1" stop-color="#FDA623" stop-opacity="0"/>
</linearGradient>
<clipPath id="clip0_39322_111472">
<rect width="240" height="240" fill="white"/>
</clipPath>
</defs>
</svg>
