<svg width="240" height="240" viewBox="0 0 240 240" fill="none" xmlns="http://www.w3.org/2000/svg">
<g opacity="0.3" clip-path="url(#clip0_39322_111506)">
<path d="M70.5945 168.013C70.5945 168.013 79.0417 181.282 93.9945 192.013C110.195 202.813 127.595 209.413 132.395 209.413C137.195 209.413 164.195 198.613 183.395 180.013C204.395 159.669 203.195 129.013 203.195 129.013L203.195 64.4065C203.195 64.2784 203.175 64.1525 203.132 64.0317C202.859 63.2631 201.723 60.2476 200.197 58.8127C197.381 56.1654 194.415 57.0014 190.595 56.4133C151.582 50.407 140.782 29.4135 131.797 29.4131C122.813 29.4126 107.182 52.8068 69.396 56.4133C62.1651 57.1035 60.3969 62.0131 60.3973 64.2131L60.3973 143.414" stroke="#E6E6E6" stroke-opacity="0.8" stroke-width="2.328" stroke-linecap="round"/>
<path d="M70.5903 168.012L107.638 131.009C108.107 130.541 108.867 130.541 109.335 131.01L126.262 147.936C126.73 148.405 127.49 148.405 127.959 147.936L169.448 106.447C169.911 105.984 170.659 105.978 171.13 106.433L184.33 119.189C185.091 119.925 186.364 119.385 186.364 118.326L186.364 75.4924C186.364 74.8297 185.826 74.2924 185.164 74.2924L141.263 74.2924C140.161 74.2924 139.642 75.6519 140.462 76.3865L153.268 87.8502C153.776 88.3047 153.803 89.0904 153.329 89.5796L127.977 115.723C127.504 116.212 126.719 116.209 126.249 115.717L109.325 98.0248C108.864 97.5422 108.097 97.5293 107.62 97.9961L71.245 133.551L60.3931 143.413" stroke="url(#paint0_linear_39322_111506)" stroke-width="2.328" stroke-linecap="round"/>
</g>
<defs>
<linearGradient id="paint0_linear_39322_111506" x1="198.397" y1="3.59902" x2="84.6357" y2="161.617" gradientUnits="userSpaceOnUse">
<stop stop-color="#1DC94D"/>
<stop offset="1" stop-color="#D5F5DE"/>
</linearGradient>
<clipPath id="clip0_39322_111506">
<rect width="240" height="240" fill="white"/>
</clipPath>
</defs>
</svg>
