<svg width="240" height="240" viewBox="0 0 240 240" fill="none" xmlns="http://www.w3.org/2000/svg">
<g opacity="0.3">
<path d="M224.91 94.3398C224.858 94.1302 224.809 93.9206 224.757 93.7118C222.561 84.9643 219.298 76.6366 215.111 68.8769C214.998 68.6689 214.886 68.4616 214.772 68.2543C210.315 60.1232 204.841 52.6263 198.524 45.9323C198.327 45.7242 198.131 45.5154 197.933 45.3089C190.215 37.2579 181.267 30.3952 171.391 25.0297C171.055 24.8463 170.712 24.6713 170.373 24.4918C157.976 17.9265 144.157 13.7068 129.507 12.423C127.087 12.1487 124.64 12 122.165 12V12.0177C121.924 12.0116 121.684 12 121.443 12V12.0185C121.293 12.0162 121.143 12.0139 120.992 12.0131C120.902 12.01 120.812 12.0008 120.722 12.0008V12.01C120.481 12.0085 120.242 12.0008 120.001 12.0008C119.76 12.0008 119.52 12.0085 119.279 12.01V12C119.189 12 119.098 12.0092 119.009 12.0123C118.859 12.0139 118.709 12.0162 118.558 12.0185V12C118.317 12 118.077 12.0116 117.836 12.0177V12C115.361 12 112.912 12.1487 110.492 12.423C95.8413 13.7076 82.0227 17.9273 69.6267 24.4918C69.2876 24.6713 68.9455 24.847 68.6087 25.0297C58.7324 30.3952 49.7846 37.2579 42.0659 45.3089C41.8678 45.5154 41.6721 45.7242 41.4756 45.9323C35.1578 52.6263 29.6837 60.1232 25.2267 68.2543C25.1104 68.467 24.9948 68.6797 24.88 68.8924C20.6966 76.6474 17.4363 84.9704 15.2418 93.7118C15.1894 93.9206 15.1393 94.131 15.0884 94.3398C13.0757 102.568 12 111.16 12 120C12 120.651 12.0131 121.299 12.0247 121.948C12.0285 122.168 12.0277 122.389 12.0331 122.608C12.2589 132.083 13.713 141.259 16.2389 149.985C16.2997 150.195 16.3645 150.403 16.4261 150.613C19.0044 159.322 22.6531 167.575 27.2202 175.22C27.3435 175.426 27.4621 175.634 27.587 175.839C32.5224 183.977 38.5028 191.414 45.34 197.964C45.5573 198.173 45.7785 198.378 45.9981 198.585C54.7902 206.869 64.9671 213.698 76.141 218.684C76.551 218.867 76.9632 219.047 77.3762 219.225C87.6887 223.672 98.8272 226.554 110.491 227.576C112.912 227.851 115.36 228 117.835 228V227.982C118.076 227.988 118.316 228 118.557 228V227.982C118.708 227.984 118.858 227.986 119.008 227.987C119.098 227.99 119.188 227.999 119.278 227.999V227.99C119.519 227.992 119.758 227.999 120 227.999C120.241 227.999 120.48 227.992 120.721 227.99V227.999C120.811 227.999 120.901 227.99 120.991 227.987C121.142 227.985 121.292 227.983 121.442 227.982V228C121.684 228 121.923 227.988 122.164 227.982V228C124.638 228 127.086 227.851 129.506 227.577C141.172 226.554 152.311 223.672 162.625 219.225C163.038 219.047 163.449 218.867 163.86 218.685C175.034 213.699 185.21 206.87 194.003 198.586C194.222 198.378 194.443 198.173 194.661 197.965C201.497 191.415 207.478 183.978 212.414 175.84C212.542 175.629 212.664 175.415 212.79 175.204C217.352 167.564 220.997 159.316 223.574 150.613C223.636 150.404 223.7 150.196 223.761 149.985C226.286 141.259 227.741 132.084 227.967 122.609C227.972 122.39 227.971 122.168 227.975 121.949C227.987 121.3 228 120.652 228 120.001C227.998 111.16 226.923 102.568 224.91 94.3398ZM224.108 93.8428C220.753 94.4932 214.64 95.2846 203.508 96.049C202.006 87.491 199.715 79.3182 196.742 71.661C196.75 71.6603 196.757 71.6595 196.765 71.6587C202.64 70.9875 208.966 70.1129 214.436 69.0156C218.638 76.7676 221.909 85.0945 224.108 93.8428ZM204.9 121.948H177.15C177.156 121.299 177.162 120.651 177.162 120C177.162 112.485 176.763 105.149 176.005 98.0625C183.462 97.8051 190.426 97.4946 196.746 97.1332C198.968 97.006 201.032 96.8781 202.957 96.7479C204.238 104.238 204.919 112.017 204.919 119.999C204.919 120.651 204.908 121.299 204.9 121.948ZM35.0792 120C35.0792 112.018 35.7604 104.239 37.0403 96.7487C38.9659 96.8781 41.0287 97.0068 43.2518 97.1339C49.572 97.4946 56.5355 97.8051 63.9923 98.0633C63.2348 105.149 62.8357 112.486 62.8357 120.001C62.8357 120.652 62.8426 121.3 62.8488 121.949H35.0977C35.0892 121.299 35.0792 120.651 35.0792 120ZM176.489 121.948H148.74C148.743 121.299 148.746 120.65 148.746 120C148.746 112.778 148.564 105.665 148.21 98.7383C157.743 98.5926 166.86 98.3738 175.347 98.0856C176.103 105.163 176.502 112.492 176.502 120.001C176.502 120.651 176.495 121.299 176.489 121.948ZM119.669 216.586C115.548 216.589 111.465 216.645 107.43 216.75C104.426 211.069 101.726 203.296 99.4521 193.918C106.048 193.702 112.808 193.59 119.668 193.587L119.669 216.586ZM63.4953 120C63.4953 112.492 63.8944 105.163 64.6504 98.0848C73.1374 98.373 82.2547 98.5927 91.7881 98.7375C91.4329 105.664 91.2518 112.777 91.2518 119.999C91.2518 120.65 91.2549 121.298 91.2579 121.947H63.5084C63.5022 121.299 63.4953 120.651 63.4953 120ZM120.329 27.9702C125.174 27.9671 129.97 27.8908 134.693 27.7452C137.298 33.8396 139.625 41.5816 141.578 50.6035C134.656 50.8416 127.547 50.9649 120.328 50.9688V27.9702H120.329ZM148.085 120C148.085 120.651 148.082 121.299 148.079 121.948H120.329V98.9487C129.638 98.9471 138.764 98.8785 147.545 98.7483C147.899 105.62 148.085 112.726 148.085 120ZM119.669 192.926C112.685 192.93 105.879 193.043 99.2949 193.255C97.6536 186.37 96.2404 178.642 95.1023 170.254C103.064 170.041 111.292 169.93 119.668 169.927L119.669 192.926ZM91.9122 120C91.9122 112.726 92.0986 105.62 92.4515 98.7483C101.233 98.8793 110.359 98.9471 119.669 98.9487V121.948H91.9191C91.916 121.299 91.9122 120.651 91.9122 120ZM120.329 51.6292C127.673 51.6253 134.823 51.5012 141.721 51.2678C143.209 58.2469 144.474 65.9757 145.475 74.2864C137.333 74.5091 128.908 74.6254 120.328 74.6285V51.6292H120.329ZM120.329 75.2889C128.936 75.2858 137.387 75.1687 145.554 74.9452C146.42 82.2549 147.082 90.0054 147.511 98.0879C138.742 98.2181 129.627 98.286 120.33 98.2883L120.329 75.2889ZM119.669 98.2883C110.371 98.2867 101.256 98.2189 92.4862 98.0879C92.9154 89.9992 93.5789 82.2441 94.445 74.9306C102.746 75.1641 111.229 75.2858 119.669 75.2889V98.2883ZM119.669 122.608V145.607C110.452 145.609 101.414 145.676 92.7135 145.803C92.2427 138.345 91.9692 130.584 91.9206 122.608H119.669V122.608ZM119.669 146.268V169.268C111.262 169.271 103.004 169.382 95.0144 169.596C94.0451 162.331 93.2815 154.582 92.7552 146.464C101.442 146.336 110.467 146.27 119.669 146.268ZM120.329 146.268C129.531 146.27 138.555 146.337 147.243 146.464C146.715 154.587 145.951 162.34 144.981 169.609C136.862 169.385 128.575 169.27 120.329 169.267V146.268ZM120.329 145.607V122.608H148.076C148.028 130.585 147.755 138.346 147.283 145.804C138.584 145.676 129.546 145.609 120.329 145.607ZM146.218 74.9275C154.909 74.6825 163.27 74.3157 171.143 73.8341C172.967 81.2678 174.363 89.1731 175.273 97.4268C166.798 97.7142 157.693 97.933 148.173 98.0779C147.75 90.0655 147.094 82.3088 146.218 74.9275ZM146.141 74.2687C145.15 66.0643 143.888 58.3347 142.373 51.2462C149.624 50.9927 156.591 50.6166 163.206 50.1319C166.278 57.0995 168.898 64.8399 170.982 73.1822C163.134 73.6607 154.801 74.0252 146.141 74.2687ZM142.228 50.5804C141.721 48.2432 141.187 45.9724 140.623 43.7839C139.023 37.5608 137.255 32.1922 135.36 27.7251C139.978 27.5764 144.527 27.3622 148.982 27.0825C154.234 33.0213 158.938 40.6022 162.909 49.4638C156.273 49.9532 149.352 50.3277 142.228 50.5804ZM135.08 27.0717C131.762 19.4584 128.059 14.5953 124.162 12.7922C132.939 13.629 141.181 18.4944 148.415 26.4529C144.072 26.7203 139.621 26.9276 135.08 27.0717ZM119.669 74.6285C111.088 74.6254 102.664 74.5091 94.5221 74.2864C95.5238 65.9757 96.7883 58.2469 98.2755 51.2678C105.174 51.502 112.324 51.6261 119.669 51.6292V74.6285ZM97.6251 51.2454C96.1094 58.3339 94.8472 66.0636 93.8571 74.2679C85.1975 74.0244 76.8638 73.6599 69.0164 73.1814C71.0992 64.8391 73.7207 57.0987 76.7921 50.1312C83.4067 50.6166 90.3733 50.9919 97.6251 51.2454ZM77.0888 49.4631C81.0595 40.6022 85.7638 33.0205 91.0152 27.0817C95.4706 27.3614 100.019 27.5756 104.638 27.7244C102.742 32.1914 100.976 37.56 99.3743 43.7832C98.811 45.9716 98.277 48.2425 97.7692 50.5796C90.6461 50.3269 83.7249 49.9532 77.0888 49.4631ZM93.7808 74.9113C92.9046 82.2973 92.2481 90.0593 91.8243 98.0779C82.3048 97.933 73.2005 97.7142 64.7243 97.4268C65.6351 89.1654 67.0322 81.2532 68.8592 73.8133C76.7983 74.2956 85.1898 74.6632 93.7808 74.9113ZM91.2603 122.608C91.308 130.521 91.5762 138.29 92.0493 145.814C82.6222 145.957 73.6005 146.172 65.189 146.453C64.1903 138.797 63.6132 130.816 63.5122 122.608H91.2603ZM92.0902 146.474C92.6103 154.518 93.3701 162.272 94.351 169.614C85.884 169.847 77.7268 170.195 70.0227 170.653C67.9892 163.277 66.3841 155.388 65.2753 147.111C73.6744 146.83 82.68 146.616 92.0902 146.474ZM94.4396 170.272C95.5639 178.538 96.9732 186.266 98.6484 193.276C91.7781 193.504 85.1582 193.842 78.8457 194.278C75.4714 187.425 72.5571 179.703 70.203 171.303C77.8794 170.849 86.0058 170.504 94.4396 170.272ZM98.8064 193.939C98.9929 194.707 99.1817 195.468 99.3743 196.217C101.554 204.692 104.042 211.588 106.745 216.767C102.86 216.874 99.0237 217.03 95.2456 217.23C89.2152 211.714 83.7796 204.128 79.1786 194.942C85.4987 194.503 92.064 194.166 98.8064 193.939ZM107.092 217.421C109.825 222.477 112.771 225.79 115.837 227.209C108.774 226.535 102.057 223.259 95.9337 217.857C99.5862 217.668 103.31 217.522 107.092 217.421ZM120.329 169.928C128.705 169.931 136.933 170.042 144.894 170.254C143.756 178.642 142.343 186.371 140.701 193.255C134.118 193.043 127.312 192.93 120.328 192.926V169.928H120.329ZM141.191 193.939C147.934 194.166 154.499 194.503 160.819 194.943C156.218 204.128 150.783 211.714 144.752 217.231C140.974 217.031 137.137 216.875 133.253 216.768C135.955 211.589 138.443 204.693 140.623 196.218C140.816 195.468 141.005 194.707 141.191 193.939ZM141.35 193.276C143.024 186.267 144.435 178.539 145.559 170.272C153.993 170.504 162.119 170.85 169.795 171.304C167.441 179.704 164.527 187.425 161.153 194.279C154.84 193.842 148.22 193.505 141.35 193.276ZM145.644 169.628C146.627 162.282 147.387 154.523 147.908 146.474C157.318 146.616 166.324 146.83 174.722 147.111C173.612 155.396 172.005 163.292 169.969 170.674C162.198 170.215 154.015 169.865 145.644 169.628ZM147.948 145.814C148.422 138.291 148.69 130.521 148.737 122.608H176.485C176.384 130.816 175.807 138.797 174.808 146.453C166.397 146.171 157.375 145.956 147.948 145.814ZM171.798 73.7932C180.581 73.2469 188.744 72.558 196.067 71.7358C199.046 79.3791 201.342 87.5426 202.847 96.0929C200.945 96.2208 198.906 96.348 196.708 96.4736C190.379 96.835 183.403 97.1463 175.931 97.4037C175.021 89.1469 173.624 81.237 171.798 73.7932ZM171.639 73.1413C169.559 64.8037 166.94 57.0633 163.873 50.0826C170.877 49.5602 177.482 48.9152 183.597 48.1608C188.396 55.0582 192.517 62.7624 195.82 71.0993C188.519 71.9146 180.387 72.5988 171.639 73.1413ZM163.581 49.4138C159.64 40.5884 154.974 33.0144 149.766 27.0308C153.98 26.7581 158.109 26.4275 162.136 26.0407C170.006 31.6959 177.094 38.9632 183.134 47.5012C176.989 48.2579 170.442 48.8982 163.581 49.4138ZM149.22 26.4036C143.179 19.6426 136.427 15.0222 129.239 13.0626C129.308 13.0688 129.379 13.075 129.448 13.0811C140.892 14.3818 151.675 18.7117 161.315 25.4558C157.393 25.8234 153.357 26.1408 149.22 26.4036ZM134.413 27.0925C129.802 27.232 125.102 27.3059 120.329 27.309V12.6642C120.542 12.665 120.754 12.6704 120.966 12.6719C125.859 12.843 130.45 18.0714 134.413 27.0925ZM119.669 50.9688C112.45 50.9649 105.341 50.8416 98.4188 50.6035C100.372 41.5816 102.699 33.8396 105.304 27.7452C110.028 27.89 114.823 27.9663 119.669 27.9702V50.9688ZM91.5831 26.4521C98.8172 18.4936 107.059 13.6282 115.837 12.7914C111.94 14.5945 108.237 19.4576 104.919 27.0709C100.377 26.9276 95.926 26.7203 91.5831 26.4521ZM110.759 13.0626C103.571 15.0222 96.8183 19.6426 90.7779 26.4036C86.6407 26.1408 82.6045 25.8234 78.6823 25.4558C88.3221 18.7125 99.1054 14.3826 110.548 13.0819C110.618 13.075 110.688 13.068 110.759 13.0626ZM90.2308 27.0308C85.0233 33.0144 80.3568 40.5884 76.4161 49.4138C69.5558 48.8982 63.0075 48.2579 56.8638 47.5004C62.9027 38.9624 69.9919 31.6951 77.8617 26.0399C81.8879 26.4275 86.0173 26.7581 90.2308 27.0308ZM76.1248 50.0818C73.058 57.0633 70.4388 64.8029 68.3583 73.1405C59.6109 72.5981 51.4783 71.9138 44.1772 71.0977C47.4806 62.7609 51.6016 55.0567 56.4007 48.1593C62.5159 48.9144 69.1204 49.5594 76.1248 50.0818ZM68.205 73.7724C66.3772 81.2223 64.9771 89.1392 64.0663 97.4037C56.5956 97.1463 49.6197 96.835 43.2895 96.4736C41.0919 96.348 39.0522 96.2208 37.1505 96.0929C38.6554 87.5441 40.9501 79.383 43.9283 71.7412C51.2325 72.5518 59.4375 73.2315 68.205 73.7724ZM62.8519 122.608C62.9528 130.822 63.5307 138.81 64.5309 146.475C56.87 146.736 49.723 147.053 43.251 147.422C41.3523 147.531 39.5693 147.641 37.8887 147.751C36.2258 139.7 35.2649 131.281 35.1046 122.608H62.8519ZM43.2895 148.082C49.7746 147.711 56.9378 147.394 64.6172 147.133C65.7261 155.412 67.3327 163.305 69.3677 170.692C60.8569 171.206 52.9124 171.852 45.7299 172.623C42.4396 165.068 39.8359 156.948 38.0266 148.404C39.6748 148.296 41.4255 148.188 43.2895 148.082ZM69.5442 171.343C71.8937 179.733 74.8002 187.457 78.1661 194.326C71.5708 194.791 65.3177 195.363 59.4752 196.031C54.2431 189.274 49.7014 181.618 46.0027 173.258C53.1612 172.494 61.0726 171.852 69.5442 171.343ZM78.4974 194.989C83.0445 204.111 88.4092 211.693 94.3626 217.278C90.865 217.471 87.4198 217.702 84.037 217.973C75.0622 212.743 66.9335 205.496 59.99 196.682C65.8463 196.013 72.0401 195.447 78.4974 194.989ZM95.0484 217.904C99.9422 222.336 105.221 225.429 110.759 226.938C110.688 226.932 110.618 226.926 110.547 226.92C101.567 225.899 92.994 223.011 85.0603 218.556C88.3229 218.303 91.6556 218.086 95.0484 217.904ZM107.786 217.403C111.689 217.304 115.652 217.25 119.669 217.247V227.337C119.455 227.336 119.243 227.33 119.03 227.329C115.019 227.188 111.212 223.646 107.786 217.403ZM120.329 193.587C127.189 193.591 133.949 193.702 140.544 193.918C138.27 203.296 135.571 211.068 132.567 216.75C128.532 216.645 124.449 216.589 120.329 216.586V193.587ZM144.065 217.857C137.941 223.259 131.224 226.536 124.162 227.209C127.228 225.79 130.174 222.477 132.907 217.421C136.688 217.522 140.411 217.668 144.065 217.857ZM129.238 226.938C134.776 225.429 140.055 222.336 144.949 217.904C148.342 218.086 151.675 218.303 154.937 218.555C147.002 223.011 138.429 225.899 129.448 226.92C129.378 226.926 129.308 226.932 129.238 226.938ZM145.635 217.278C151.589 211.693 156.953 204.111 161.5 194.989C167.958 195.447 174.152 196.013 180.008 196.682C173.064 205.496 164.935 212.743 155.961 217.973C152.578 217.703 149.133 217.471 145.635 217.278ZM161.831 194.326C165.197 187.457 168.104 179.734 170.453 171.343C178.924 171.852 186.836 172.494 193.994 173.258C190.296 181.618 185.754 189.274 180.522 196.031C174.679 195.362 168.426 194.791 161.831 194.326ZM170.625 170.712C172.662 163.319 174.27 155.42 175.38 147.133C183.059 147.394 190.223 147.711 196.708 148.082C198.571 148.188 200.323 148.296 201.972 148.404C200.163 156.947 197.559 165.065 194.27 172.62C187.098 171.86 179.115 171.222 170.625 170.712ZM196.747 147.422C190.274 147.053 183.128 146.736 175.467 146.475C176.467 138.809 177.045 130.821 177.146 122.608H204.894C204.734 131.281 203.772 139.7 202.11 147.751C200.428 147.641 198.645 147.531 196.747 147.422ZM214.092 68.393C209.34 69.3416 203.488 70.2255 196.69 71.0014C196.626 71.0091 196.561 71.0161 196.497 71.023C193.208 62.6892 189.104 54.9812 184.327 48.0683C189.12 47.4665 193.608 46.7984 197.749 46.0702C204.106 52.7534 209.61 60.2542 214.092 68.393ZM197.144 45.4468C196.986 45.4746 196.831 45.5023 196.671 45.5301C192.653 46.2182 188.373 46.8447 183.874 47.4087C177.902 38.9054 170.896 31.6427 163.119 25.9436C165.531 25.7055 167.905 25.4465 170.238 25.1676C180.252 30.4946 189.326 37.3589 197.144 45.4468ZM169.219 24.6297C166.963 24.8917 164.66 25.1352 162.316 25.361C155.55 20.5303 148.215 16.8808 140.475 14.6277C150.637 16.5988 160.292 20.004 169.219 24.6297ZM119.669 12.6642V27.309C114.896 27.3059 110.195 27.232 105.584 27.0925C109.547 18.0714 114.138 12.843 119.03 12.6719C119.243 12.6704 119.456 12.665 119.669 12.6642ZM99.5215 14.6284C91.7827 16.8816 84.4477 20.5303 77.6821 25.361C75.3381 25.1352 73.0349 24.891 70.7787 24.6297C79.7056 20.004 89.3608 16.5988 99.5215 14.6284ZM69.7592 25.1684C72.0917 25.4473 74.4658 25.7055 76.8777 25.9443C69.1011 31.6427 62.0952 38.9062 56.1225 47.4095C51.6232 46.8454 47.3427 46.2189 43.3258 45.5308C43.1662 45.5031 43.0114 45.4753 42.8526 45.4476C50.6715 37.3589 59.7457 30.4946 69.7592 25.1684ZM42.2485 46.0702C46.3895 46.7984 50.8773 47.4673 55.6702 48.0683C50.8935 54.9812 46.7894 62.6892 43.5007 71.023C43.4367 71.0161 43.372 71.0091 43.308 71.0014C36.5101 70.2255 30.6577 69.3416 25.9056 68.393C30.3872 60.2542 35.8914 52.7534 42.2485 46.0702ZM25.5527 69.0318C30.4643 70.0189 36.4593 70.8989 43.2533 71.6664C40.2813 79.3221 37.9911 87.4933 36.4885 96.049C25.357 95.2846 19.2441 94.4932 15.889 93.8428C18.0867 85.1006 21.3547 76.78 25.5527 69.0318ZM12.6604 120C12.6604 111.206 13.7307 102.659 15.7349 94.4739C19.2418 95.1721 25.4348 95.9534 36.3783 96.704C35.0984 104.21 34.418 112.004 34.418 120C34.418 120.651 34.428 121.299 34.4373 121.948H12.685C12.6735 121.299 12.6604 120.651 12.6604 120ZM12.6935 122.608H34.4442C34.6037 131.294 35.5639 139.728 37.2244 147.795C26.8958 148.487 20.6565 149.207 16.8923 149.866C14.3718 141.179 12.9193 132.043 12.6935 122.608ZM17.0803 150.498C20.7305 149.875 26.9112 149.149 37.3608 148.449C39.1663 156.998 41.7631 165.127 45.0449 172.697C44.4354 172.763 43.8305 172.831 43.2325 172.898C38.1822 173.476 32.7975 174.202 27.9098 175.092C23.3258 167.456 19.6656 159.206 17.0803 150.498ZM28.2805 175.712C32.5641 174.934 37.6005 174.206 43.308 173.554C43.9715 173.479 44.6419 173.404 45.32 173.331C48.9994 181.684 53.5134 189.344 58.7162 196.117C54.277 196.635 50.0821 197.209 46.1568 197.832C39.271 191.296 33.2483 183.86 28.2805 175.712ZM46.8241 198.454C50.7471 197.838 54.8919 197.277 59.2256 196.772C66.069 205.531 74.0721 212.769 82.9081 218.065C81.0803 218.216 79.2726 218.379 77.4849 218.554C66.1144 213.629 55.7596 206.794 46.8241 198.454ZM78.754 219.094C80.4469 218.936 82.1607 218.787 83.8952 218.648C88.8677 221.527 94.0952 223.793 99.5223 225.372C92.3182 223.975 85.3685 221.859 78.754 219.094ZM120.329 227.336V217.247C124.345 217.25 128.308 217.303 132.211 217.402C128.785 223.646 124.978 227.188 120.966 227.327C120.754 227.33 120.542 227.336 120.329 227.336ZM140.475 225.372C145.903 223.793 151.131 221.527 156.103 218.648C157.838 218.787 159.552 218.936 161.244 219.094C154.628 221.859 147.679 223.975 140.475 225.372ZM162.514 218.553C160.725 218.379 158.917 218.216 157.09 218.064C165.925 212.768 173.929 205.53 180.772 196.772C185.107 197.276 189.251 197.837 193.174 198.453C184.238 206.794 173.883 213.629 162.514 218.553ZM193.841 197.832C189.916 197.209 185.721 196.635 181.281 196.117C186.484 189.344 190.999 181.684 194.678 173.331C195.355 173.404 196.026 173.479 196.69 173.554C202.397 174.206 207.434 174.934 211.717 175.712C206.749 183.86 200.727 191.296 193.841 197.832ZM212.096 175.077C207.209 174.187 201.42 173.39 194.954 172.693C198.235 165.125 200.831 156.998 202.636 148.449C213.086 149.149 219.266 149.875 222.917 150.498C220.334 159.201 216.677 167.445 212.096 175.077ZM223.105 149.866C219.341 149.207 213.102 148.487 202.773 147.795C204.434 139.728 205.394 131.295 205.553 122.608H227.304C227.078 132.043 225.626 141.179 223.105 149.866ZM205.56 121.948C205.57 121.299 205.58 120.651 205.58 120C205.58 112.003 204.899 104.209 203.619 96.704C214.563 95.9534 220.757 95.1721 224.263 94.4739C226.267 102.659 227.337 111.206 227.337 120C227.337 120.651 227.324 121.299 227.313 121.948H205.56Z" fill="url(#paint0_radial_39322_111467)" fill-opacity="0.8" stroke="url(#paint1_radial_39322_111467)" stroke-opacity="0.8" stroke-width="1.2"/>
<circle cx="64.8" cy="146.8" r="4.8" fill="#65C3FC"/>
<circle cx="120.198" cy="170.2" r="4.8" fill="#65C3FC"/>
<circle cx="145.8" cy="73.8" r="4.8" fill="#98D6FD"/>
</g>
<defs>
<radialGradient id="paint0_radial_39322_111467" cx="0" cy="0" r="1" gradientUnits="userSpaceOnUse" gradientTransform="translate(120 120) rotate(90) scale(108)">
<stop stop-color="#E6E6E6"/>
<stop offset="1" stop-color="#E6E6E6" stop-opacity="0.3"/>
</radialGradient>
<radialGradient id="paint1_radial_39322_111467" cx="0" cy="0" r="1" gradientUnits="userSpaceOnUse" gradientTransform="translate(120 122.4) rotate(90) scale(105.6)">
<stop stop-color="#E6E6E6"/>
<stop offset="1" stop-color="#E6E6E6" stop-opacity="0.3"/>
</radialGradient>
</defs>
</svg>
