<svg width="60" height="60" viewBox="0 0 60 60" fill="none" xmlns="http://www.w3.org/2000/svg">
<rect width="60" height="60" rx="10" fill="#5D54FE" fill-opacity="0.15"/>
<path d="M20.8699 15.2418C19.3686 15.2418 18.4329 15.172 17.4379 15.679C16.6815 16.0644 16.0641 16.6817 15.6787 17.4382C15.1717 18.4332 15.2415 19.3688 15.2415 20.8701V26.8676C15.2415 27.5233 15.2271 27.9543 15.3515 28.4724C15.45 28.8825 15.6128 29.275 15.8332 29.6347C16.1115 30.0888 16.4271 30.3857 16.8908 30.8494L27.1684 41.127C28.7608 42.7194 29.6406 43.6983 31.0088 44.1428C32.0855 44.4926 33.2464 44.4927 34.323 44.1428C35.6913 43.6984 36.5711 42.7194 38.1634 41.127L41.1268 38.1636C42.7191 36.5713 43.6981 35.6916 44.1426 34.3233C44.4924 33.2466 44.4924 32.0857 44.1426 31.0091C43.6981 29.6409 42.7191 28.761 41.1268 27.1687L30.8491 16.891C30.3855 16.4273 30.0886 16.1117 29.6345 15.8334C29.2747 15.613 28.8823 15.4502 28.4721 15.3517C27.954 15.2274 27.5231 15.2418 26.8674 15.2418H20.8699ZM20.8699 17.9225H26.8674C27.5231 17.9225 27.7475 17.9353 27.8465 17.9591C27.9832 17.9919 28.1138 18.0452 28.2339 18.1188C28.3207 18.172 28.4902 18.3228 28.9538 18.7863L39.2315 29.064C40.8238 30.6563 41.4408 31.3711 41.5928 31.8389C41.7678 32.3776 41.7678 32.9549 41.5928 33.4934C41.4408 33.9614 40.8238 34.676 39.2315 36.2683L36.2681 39.2317C34.6758 40.824 33.9611 41.441 33.4932 41.593C32.9547 41.768 32.3774 41.7681 31.8387 41.593C31.3709 41.441 30.6561 40.824 29.0638 39.2317L18.7861 28.9541C18.3225 28.4905 18.1718 28.321 18.1185 28.2341C18.045 28.1141 17.9917 27.9834 17.9589 27.8467C17.9351 27.7477 17.9222 27.5233 17.9222 26.8676V20.8701C17.9222 19.3688 17.9915 18.8073 18.0688 18.6555C18.1974 18.4031 18.4029 18.1976 18.6552 18.0691C18.807 17.9917 19.3686 17.9225 20.8699 17.9225ZM24.6239 22.6136C23.5294 22.6136 22.6134 23.5296 22.6134 24.6241C22.6134 25.7186 23.5294 26.6346 24.6239 26.6346C25.7184 26.6346 26.6344 25.7186 26.6344 24.6241C26.6344 23.5296 25.7184 22.6136 24.6239 22.6136Z" fill="#5D54FE"/>
</svg>
