<svg width="60" height="60" viewBox="0 0 60 60" fill="none" xmlns="http://www.w3.org/2000/svg">
<rect width="60" height="60" rx="10" fill="#FD9F12" fill-opacity="0.15"/>
<path d="M31.7862 13.9918C32.2133 13.9128 32.653 13.962 33.0494 14.1328L33.216 14.2139L33.3755 14.3079C33.6856 14.5093 33.9391 14.7864 34.1132 15.1126L34.1944 15.2792L34.2599 15.4529C34.3958 15.8621 34.4077 16.3035 34.2927 16.7219C34.2875 16.7407 34.283 16.7602 34.277 16.7788L31.4771 25.5573L31.4529 25.6257H41.6655C42.216 25.6246 42.7559 25.7788 43.2221 26.0714C43.6895 26.3649 44.0634 26.7856 44.3016 27.2834C44.5398 27.7812 44.6327 28.3361 44.568 28.8841C44.5032 29.4323 44.2834 29.9509 43.9356 30.3795C43.9085 30.4129 43.8802 30.4454 43.8502 30.4763L29.4121 45.3516L29.4107 45.3502C29.0917 45.6913 28.6736 45.9244 28.213 46.0096C27.7251 46.0998 27.2207 46.0214 26.7831 45.7874C26.3456 45.5534 26.0005 45.1766 25.8047 44.7207C25.6092 44.265 25.5749 43.7563 25.7065 43.2781L25.7221 43.2211L28.522 34.4426L28.5462 34.3757H18.3322V34.3742C17.7822 34.3751 17.2429 34.2209 16.777 33.9285C16.3099 33.6352 15.9357 33.2154 15.6975 32.718C15.4593 32.2201 15.3664 31.6639 15.4312 31.1158C15.496 30.5678 15.7159 30.0489 16.0635 29.6204C16.0906 29.5871 16.1191 29.5544 16.149 29.5236L30.587 14.6497C30.906 14.3084 31.3254 14.077 31.7862 13.9918ZM18.3365 31.459H28.5405C29.0109 31.4581 29.4747 31.5709 29.8921 31.788C30.3105 32.0057 30.6707 32.3209 30.9402 32.708C31.2098 33.0952 31.3811 33.543 31.4401 34.0111C31.496 34.4553 31.4438 34.9045 31.2977 35.327L31.302 35.3284L29.4548 41.119L41.6627 28.5423H31.4572V28.5409C30.9874 28.5416 30.524 28.4302 30.1071 28.2134C29.6886 27.9956 29.3285 27.6791 29.0589 27.2919C28.7895 26.9049 28.6181 26.4581 28.559 25.9903C28.503 25.5454 28.5535 25.0945 28.7 24.6715H28.6972L30.5429 18.8795L18.3365 31.459Z" fill="#FD9F12"/>
</svg>
