<svg width="60" height="60" viewBox="0 0 60 60" fill="none" xmlns="http://www.w3.org/2000/svg">
<rect width="60" height="60" rx="10" fill="#1DC94D" fill-opacity="0.15"/>
<path d="M30 13.958C30.7536 13.958 31.4817 14.2274 32.0547 14.7168L32.0674 14.7266C34.4583 16.8169 37.7623 18.3329 40.208 18.333C40.9814 18.333 41.7236 18.6407 42.2705 19.1875C42.8171 19.7342 43.1248 20.4759 43.125 21.249V31.458C43.1249 35.4888 41.6967 38.5883 39.4004 40.9443C37.1438 43.2594 34.1129 44.7932 30.9756 45.8867L30.9639 45.8916C30.3396 46.1031 29.6627 46.0955 29.043 45.873V45.874C29.0345 45.8711 29.0261 45.8672 29.0176 45.8643C29.0153 45.8634 29.012 45.8641 29.0098 45.8633V45.8613C25.8756 44.7756 22.853 43.2482 20.6016 40.9424C18.3028 38.5878 16.8751 35.4885 16.875 31.458V21.249C16.8752 20.4759 17.1828 19.7342 17.7295 19.1875C18.2764 18.6407 19.0186 18.333 19.792 18.333C22.2366 18.3328 25.554 16.8035 27.9316 14.7266L27.9453 14.7168C28.5183 14.2274 29.2464 13.958 30 13.958ZM30 16.874C29.941 16.874 29.8838 16.8962 29.8389 16.9346L29.8379 16.9326C27.141 19.2839 23.1754 21.2489 19.792 21.249V31.458C19.7921 34.7182 20.9156 37.0883 22.6885 38.9043C24.5013 40.761 27.0592 42.1036 29.9941 43.1172C30.0048 43.1209 30.0168 43.123 30.0273 43.127C32.9513 42.1065 35.502 40.7637 37.3115 38.9072C39.0837 37.0889 40.2079 34.7184 40.208 31.458V21.249C36.8255 21.2489 32.8739 19.2999 30.1611 16.9326C30.1163 16.8946 30.0588 16.874 30 16.874ZM33.3438 26.0527C33.9133 25.4832 34.8367 25.4832 35.4062 26.0527C35.9754 26.6222 35.9755 27.5448 35.4062 28.1143L29.5732 33.9482C29.0038 34.5177 28.0803 34.5174 27.5107 33.9482L24.5938 31.0312C24.0242 30.4617 24.0242 29.5383 24.5938 28.9688C25.1633 28.3992 26.0867 28.3992 26.6562 28.9688L28.542 30.8545L33.3438 26.0527Z" fill="#1DC94D"/>
</svg>
