<svg width="240" height="240" viewBox="0 0 240 240" fill="none" xmlns="http://www.w3.org/2000/svg">
<g opacity="0.3">
<path d="M101.449 43.2159C102.111 43.2158 102.648 42.6791 102.649 42.0167V30.0011C102.649 29.3384 102.111 28.801 101.449 28.8009C100.786 28.8011 100.248 29.3384 100.248 30.0011V42.0167C100.249 42.679 100.786 43.2157 101.449 43.2159ZM200.082 62.3995C200.745 62.3991 201.282 61.8618 201.282 61.1993V48.5997C201.281 47.9373 200.745 47.3999 200.082 47.3995C199.42 47.3995 198.882 47.937 198.882 48.5997V61.1993C198.882 61.8621 199.42 62.3995 200.082 62.3995ZM82.2044 208.872C83.1135 210.44 85.3646 210.472 86.3196 208.933L119.682 155.124C120.673 153.525 119.523 151.459 117.642 151.459H102.649V54.0313C102.649 53.3687 102.111 52.8312 101.449 52.8311C100.786 52.8313 100.248 53.3688 100.248 54.0313V151.459C100.248 152.784 101.323 153.859 102.649 153.859H117.642L84.2805 207.668L53.0706 153.859H68.137C69.4624 153.859 70.5372 152.784 70.5374 151.459V134.31C70.5372 133.647 69.9997 133.11 69.3372 133.109C68.6747 133.11 68.1371 133.647 68.137 134.31V151.459H53.0706C51.2213 151.459 50.0665 153.464 50.9944 155.064L82.2044 208.872ZM200.082 84.0001C200.745 83.9997 201.282 83.4624 201.282 82.7999V69.5997C201.281 68.9373 200.745 68.3999 200.082 68.3995C199.42 68.3995 198.882 68.937 198.882 69.5997V82.7999C198.882 83.4626 199.42 84.0001 200.082 84.0001ZM132.959 195.109C133.868 196.677 136.121 196.71 137.075 195.17L170.437 141.361C171.428 139.763 170.278 137.697 168.398 137.696H153.404V82.7013C153.403 82.039 152.867 81.5026 152.204 81.502C151.542 81.502 151.004 82.0387 151.004 82.7013V137.696C151.004 139.022 152.078 140.097 153.404 140.097H168.398L135.035 193.905L127.725 181.301C127.392 180.728 126.657 180.533 126.084 180.865C125.511 181.198 125.316 181.932 125.649 182.505L132.959 195.109ZM180.837 181.347C181.746 182.914 183.999 182.947 184.953 181.407L218.315 127.599C219.306 126 218.156 123.934 216.276 123.934H201.282V90.7286C201.281 90.0663 200.745 89.5288 200.082 89.5284C199.42 89.5284 198.882 90.066 198.882 90.7286V123.934C198.882 125.259 199.956 126.334 201.282 126.334H216.276L182.913 180.143L175.603 167.538C175.27 166.965 174.535 166.77 173.962 167.103C173.389 167.435 173.194 168.169 173.527 168.742L180.837 181.347ZM69.3372 121.756C69.9996 121.756 70.5371 121.218 70.5374 120.556V106.801C70.5373 106.138 69.9997 105.601 69.3372 105.601C68.6747 105.601 68.1371 106.138 68.137 106.801V120.556C68.1373 121.218 68.6748 121.756 69.3372 121.756Z" fill="#E6E6E6" fill-opacity="0.8"/>
<path d="M218.067 148.269C218.067 148.269 99.2664 141.669 44.6669 118.269C-9.93269 94.8694 44.6671 84.6694 44.6671 84.6694" stroke="url(#paint0_linear_39322_111497)" stroke-width="1.2" stroke-linecap="round"/>
<circle cx="39.2678" cy="85.8696" r="1.8" fill="#5D54FE"/>
</g>
<defs>
<linearGradient id="paint0_linear_39322_111497" x1="54.8664" y1="80.4695" x2="163.466" y2="174.069" gradientUnits="userSpaceOnUse">
<stop stop-color="#5D54FE"/>
<stop offset="1" stop-color="#5D54FE" stop-opacity="0"/>
</linearGradient>
</defs>
</svg>
