<svg width="36" height="36" viewBox="0 0 36 36" fill="currentColor" xmlns="http://www.w3.org/2000/svg">
<g id="Profile Templates-2">
<g id="Vector">
<path d="M31.0699 19.5996V12.9166C31.0699 11.6739 30.056 10.6664 28.8055 10.6664H11.1945C9.94399 10.6664 8.93008 11.6739 8.93008 12.9166V27.0834C8.93008 28.3261 9.94399 29.3336 11.1945 29.3336H17.4841L17.5955 29.3393C18.1453 29.3948 18.5742 29.8559 18.5742 30.4168C18.5742 30.9778 18.1453 31.4389 17.5955 31.4943L17.4841 31.5H11.1945C8.73979 31.5 6.75 29.5227 6.75 27.0834V12.9166C6.75 10.4773 8.73979 8.5 11.1945 8.5H28.8055C31.2602 8.5 33.25 10.4773 33.25 12.9166V19.5996C33.2499 20.1978 32.762 20.6828 32.16 20.6828C31.5579 20.6828 31.0701 20.1978 31.0699 19.5996Z" />
<path d="M27.5969 8.44745C27.5969 7.1961 26.5956 6.18152 25.3605 6.18152H7.13946C5.90443 6.18152 4.90308 7.1961 4.90308 8.44745V23.5526C4.90308 24.7256 5.78304 25.6909 6.91057 25.807L7.13946 25.8185L7.24946 25.8242C7.79242 25.8801 8.216 26.3444 8.216 26.9092C8.216 27.4741 7.79242 27.9384 7.24946 27.9943L7.13946 28L6.9138 27.9943C4.59435 27.8753 2.75 25.9322 2.75 23.5526V8.44745C2.75 5.9911 4.71514 4 7.13946 4H25.3605C27.7849 4 29.75 5.9911 29.75 8.44745C29.75 9.04995 29.2681 9.53821 28.6735 9.53821C28.0788 9.53821 27.5969 9.04995 27.5969 8.44745Z" />
<path d="M30.5073 23.7472C30.927 23.3938 31.5457 23.4194 31.9369 23.8235C32.328 24.2275 32.3528 24.8667 32.0107 25.3003L31.9369 25.384L25.3615 32.1767C24.9442 32.6078 24.2681 32.6078 23.8508 32.1767L20.5631 28.7804L20.4893 28.6966C20.1472 28.2631 20.172 27.6239 20.5631 27.2198C20.9543 26.8158 21.573 26.7901 21.9927 27.1435L22.0737 27.2198L24.6061 29.8359L30.4263 23.8235L30.5073 23.7472Z" />
</g>
</g>
</svg>
