<svg width="36" height="36" viewBox="0 0 36 36" fill="none" xmlns="http://www.w3.org/2000/svg">
<g id="Team space-3">
<path id="Vector" fill-rule="evenodd" clip-rule="evenodd" d="M17.8791 4.97563C14.7809 4.97563 11.2256 5.06836 8.51662 5.15791C6.72875 5.217 5.3187 6.65953 5.28222 8.46264C5.23466 10.8131 5.19127 14.0978 5.19127 18.258C5.19127 22.2894 5.23202 25.4135 5.27779 27.6511C5.31434 29.438 6.7045 30.8556 8.46672 30.9029C10.8059 30.9657 14.0229 31.0244 17.8791 31.0244C20.8319 31.0244 22.5368 31.0071 23.506 30.9856V5.06114L23.5015 5.06094C22.5656 5.0188 20.8736 4.97563 17.8791 4.97563ZM25.9473 5.17992V30.8633L27.2579 30.8371C29.0605 30.8012 30.5091 29.383 30.5876 27.5891C30.6991 25.0417 30.8087 21.6241 30.8087 18.0365C30.8087 14.4384 30.6985 11.0111 30.5866 8.46139C30.5083 6.6744 29.0698 5.25883 27.2746 5.21346L25.9473 5.17992ZM25.1228 33.3558C25.0288 33.381 24.9501 33.3916 24.9187 33.3958C24.807 33.4108 24.6622 33.4214 24.4892 33.4302C23.7831 33.4661 22.04 33.5 17.8791 33.5C13.9988 33.5 10.76 33.441 8.40211 33.3777C5.33728 33.2954 2.90064 30.8113 2.83705 27.7025C2.79092 25.4476 2.75 22.3063 2.75 18.258C2.75 14.0803 2.79358 10.7787 2.84146 8.41186C2.90478 5.28235 5.36234 2.78523 8.43709 2.6836C11.1551 2.59375 14.7413 2.5 17.8791 2.5C20.8921 2.5 22.6238 2.54335 23.6098 2.58775C24.103 2.60995 24.4163 2.6327 24.6142 2.6513C24.7076 2.66008 24.778 2.66819 24.8316 2.67533L27.3354 2.73861C30.3809 2.81557 32.8887 5.23287 33.0255 8.35138C33.1384 10.9246 33.25 14.3905 33.25 18.0365C33.25 21.6718 33.139 25.1281 33.0265 27.6989C32.8895 30.8298 30.3635 33.2513 27.3059 33.3123L25.1228 33.3558ZM16.1721 14.0732C15.5964 14.4333 14.8976 14.9682 14.1984 15.5596C13.5314 16.1237 12.9419 16.6677 12.5264 17.1652C12.3201 17.4122 12.1813 17.6189 12.0981 17.7837C12.0166 17.9452 12.0133 18.0168 12.0133 18.0168C12.0145 18.0235 12.0554 18.262 12.535 18.7808C12.9736 19.2552 13.5874 19.7634 14.2766 20.3052L14.3032 20.3261C15.0192 20.889 15.6542 21.3877 16.1661 21.7478C16.4208 21.9269 16.616 22.051 16.7555 22.126C16.7779 22.1115 16.8032 22.0896 16.8313 22.0567C16.8692 22.0123 16.9 21.9598 16.9196 21.9096C16.9367 21.866 16.9389 21.8416 16.9389 21.8416C16.9389 21.8416 16.9389 21.8426 16.9389 21.8448C16.9389 21.5632 16.9491 20.5556 16.961 19.3871C16.9634 19.1455 16.9659 18.897 16.9684 18.6466C16.9832 17.1746 16.9978 15.6313 16.9978 14.9763C16.9978 14.6334 16.9972 14.3761 16.9821 14.1542C16.967 13.9334 16.9409 13.8175 16.92 13.7582C16.9165 13.7483 16.9137 13.7414 16.9117 13.7368C16.903 13.7312 16.8866 13.7218 16.8596 13.7102C16.8533 13.7125 16.8466 13.715 16.8396 13.7177C16.6861 13.7769 16.4625 13.8915 16.1721 14.0732ZM16.9533 13.6818C16.9533 13.6818 16.949 13.6831 16.9411 13.6841C16.9495 13.6821 16.9533 13.6818 16.9533 13.6818ZM16.9078 13.7291L16.9087 13.7305L16.9078 13.7291ZM15.9716 11.4039C16.275 11.2868 16.7932 11.1251 17.3329 11.2673C17.7624 11.3805 18.1687 11.5661 18.5121 11.8661C18.8633 12.173 19.0843 12.5435 19.2187 12.9246C19.4412 13.5556 19.4401 14.3006 19.4392 14.8719C19.4391 14.9074 19.4391 14.9422 19.4391 14.9763C19.4391 15.6473 19.4243 17.2068 19.4096 18.6718C19.407 18.9257 19.4045 19.1766 19.402 19.4196C19.3902 20.5892 19.3802 21.5773 19.3802 21.8448C19.3802 22.51 19.1039 23.1771 18.6771 23.677C18.2328 24.1975 17.5423 24.6294 16.6688 24.6294C16.2254 24.6294 15.8258 24.428 15.617 24.316C15.3509 24.1732 15.0625 23.9843 14.7747 23.7819C14.2037 23.3803 13.5193 22.8423 12.8285 22.2992L12.7809 22.2618C12.0936 21.7215 11.3393 21.1071 10.754 20.474C10.2172 19.8933 9.57205 19.0388 9.57205 18.0165C9.57205 17.0407 10.1493 16.1808 10.6635 15.5652C11.2202 14.8987 11.9426 14.2438 12.6348 13.6584C13.3758 13.0317 14.1748 12.4139 14.8903 11.9663C15.2455 11.7441 15.6159 11.5411 15.9716 11.4039Z" fill="#73BB81"/>
</g>
</svg>
