<svg width="36" height="36" viewBox="0 0 36 36" fill="none" xmlns="http://www.w3.org/2000/svg">
<g id="Windows sync-1">
<path id="Vector" d="M18 2.92212C20.038 2.92212 21.7203 4.43991 21.9814 6.40649C27.6069 8.10155 31.71 13.2938 31.71 19.4495C31.7099 20.203 31.648 20.9429 31.5293 21.6643C32.622 22.3824 33.3437 23.6185 33.3438 25.0237C33.3438 27.2427 31.5451 29.0422 29.3262 29.0422C28.849 29.0422 28.3914 28.9576 27.9668 28.8049C25.4679 31.4347 21.9261 33.0784 18 33.0784C14.0738 33.0783 10.5321 31.4349 8.0332 28.8049C7.60837 28.9578 7.15032 29.0422 6.67285 29.0422C4.45398 29.0421 2.65527 27.2426 2.65527 25.0237C2.65536 23.6177 3.37804 22.3812 4.47168 21.6633C4.35309 20.9422 4.29103 20.2027 4.29102 19.4495C4.29102 13.294 8.39348 8.10177 14.0186 6.40649C14.2796 4.44 15.9622 2.92234 18 2.92212ZM14.3613 8.6438C9.80634 10.1553 6.53027 14.4275 6.53027 19.4495C6.53028 19.978 6.56678 20.4976 6.63672 21.0061C6.64875 21.006 6.6608 21.0061 6.67285 21.0061C8.89179 21.0061 10.6913 22.8048 10.6914 25.0237C10.6914 25.9447 10.3796 26.7923 9.8584 27.47C11.9367 29.5502 14.8156 30.838 18 30.8381C21.1837 30.8381 24.0613 29.5502 26.1396 27.4709C25.6184 26.7933 25.3086 25.9447 25.3086 25.0237C25.3087 22.8048 27.1072 21.0061 29.3262 21.0061C29.3386 21.0061 29.3509 21.006 29.3633 21.0061C29.4332 20.4976 29.4697 19.978 29.4697 19.4495C29.4697 14.4273 26.1939 10.1561 21.6387 8.64478C20.9973 10.0113 19.6095 10.9583 18 10.9583C16.3903 10.9581 15.0024 10.0109 14.3613 8.6438ZM6.67285 23.2463C5.69111 23.2465 4.89564 24.0419 4.89551 25.0237C4.89551 26.0055 5.69103 26.8018 6.67285 26.802C7.65482 26.802 8.45117 26.0056 8.45117 25.0237C8.45104 24.0418 7.65474 23.2463 6.67285 23.2463ZM29.3262 23.2463C28.3443 23.2463 27.548 24.0418 27.5479 25.0237C27.5479 26.0056 28.3442 26.802 29.3262 26.802C30.3081 26.8019 31.1045 26.0056 31.1045 25.0237C31.1044 24.0419 30.308 23.2464 29.3262 23.2463ZM18 12.7542C21.6973 12.7542 24.6943 15.7521 24.6943 19.4495C24.6942 23.1466 21.6972 26.1438 18 26.1438C14.3028 26.1437 11.3058 23.1466 11.3057 19.4495C11.3057 15.7522 14.3027 12.7542 18 12.7542ZM18 14.9944C15.5398 14.9945 13.5459 16.9892 13.5459 19.4495C13.5461 21.9095 15.5399 23.9035 18 23.9036C20.4602 23.9036 22.4549 21.9096 22.4551 19.4495C22.4551 16.9892 20.4603 14.9944 18 14.9944ZM18 5.16235C17.0182 5.1626 16.2227 5.95886 16.2227 6.94067C16.2229 7.9223 17.0184 8.71778 18 8.71802C18.9818 8.71802 19.7781 7.92244 19.7783 6.94067C19.7783 5.95871 18.982 5.16235 18 5.16235Z" fill="#11A3FD"/>
</g>
</svg>
