<svg width="36" height="36" viewBox="0 0 36 36" fill="none" xmlns="http://www.w3.org/2000/svg">
<g id="Windows sync-3">
<path id="Vector" fill-rule="evenodd" clip-rule="evenodd" d="M2.75098 8.66983C2.75098 6.3669 4.62798 4.5 6.94337 4.5H14.1483C16.4637 4.5 18.3407 6.36689 18.3407 8.66983V27.3302C18.3407 29.6331 16.4637 31.5 14.1483 31.5H6.94338C4.62798 31.5 2.75098 29.6331 2.75098 27.3302V8.66983ZM6.94337 7.02129C6.02798 7.02129 5.28591 7.75937 5.28591 8.66983V11.4269H15.8058V8.66983C15.8058 7.75937 15.0637 7.02129 14.1483 7.02129H6.94337ZM15.8058 13.9482H5.28591V27.3302C5.28591 28.2406 6.02799 28.9787 6.94338 28.9787H14.1483C15.0637 28.9787 15.8058 28.2406 15.8058 27.3302V13.9482ZM20.6681 5.76065C20.6681 5.06441 21.2355 4.5 21.9355 4.5H29.0586C31.374 4.5 33.251 6.3669 33.251 8.66983V27.3302C33.251 29.6331 31.374 31.5 29.0586 31.5H21.9355C21.2355 31.5 20.6681 30.9356 20.6681 30.2394C20.6681 29.5431 21.2355 28.9787 21.9355 28.9787H29.0586C29.974 28.9787 30.716 28.2406 30.716 27.3302V13.9482H21.9355C21.2355 13.9482 20.6681 13.3837 20.6681 12.6875C20.6681 11.9913 21.2355 11.4269 21.9355 11.4269H30.716V8.66983C30.716 7.75937 29.974 7.02129 29.0586 7.02129H21.9355C21.2355 7.02129 20.6681 6.45688 20.6681 5.76065Z" fill="#11A3FD"/>
</g>
</svg>
