<svg xmlns="http://www.w3.org/2000/svg" width="73" height="72" fill="currentColor" viewBox="0 0 73 72">
  <path fill-rule="evenodd" d="M31.516 21.006c-5.787 0-10.48 4.69-10.48 10.475 0 4.397 2.711 8.166 6.562 9.72a2.47 2.47 0 1 1-1.849 4.58c-5.655-2.281-9.653-7.82-9.653-14.3 0-8.513 6.904-15.414 15.42-15.414 6.391 0 11.868 3.885 14.207 9.412a2.47 2.47 0 0 1-4.55 1.925 10.483 10.483 0 0 0-9.657-6.398Z" clip-rule="evenodd"/>
  <path fill-rule="evenodd" d="M38.363 36.702c-.864.08-1.12.288-1.145.313-.33.326-.66 1.161-.379 3.3.187 1.42.558 2.907.963 4.533.184.738.376 1.504.56 2.306.186.81.37 1.66.558 2.525.385 1.778.783 3.612 1.234 5.266.333 1.217.658 2.19.968 2.857a5.1 5.1 0 0 0 .166.328c.171-.017.413-.074.737-.212a5.155 5.155 0 0 0 1.297-.814 62.585 62.585 0 0 1 2.191-1.9c1.829-1.508 4.431-1.196 5.926.472 1.384 1.544 3.274 3.643 4.621 5 .385.389.664.539.813.598.14.056.224.054.266.05a.6.6 0 0 0 .27-.107l.005-.004.131-.115a54.765 54.765 0 0 0 1.495-1.411c.859-.843 1.689-1.714 2.105-2.258.132-.173.213-.426.202-.714a1.076 1.076 0 0 0-.07-.35c-.454-.463-2.28-2.162-4.1-3.857l-1.422-1.324a4.347 4.347 0 0 1-.273-6.086c.7-.781 1.503-1.664 2.013-2.195.472-.491.785-.88.952-1.224a.978.978 0 0 0 .11-.343 3.948 3.948 0 0 0-.379-.225c-.604-.32-1.488-.655-2.591-.989-1.863-.564-4.003-1.026-5.828-1.42a92.782 92.782 0 0 1-3.218-.744c-1.595-.392-3.307-.814-5.037-1.075-1.25-.19-2.317-.258-3.14-.18Zm9.673-3.465c.7.172 1.322.324 1.818.433l.9.194c1.814.391 4.189.903 6.265 1.531 1.218.369 2.455.813 3.474 1.353A7.535 7.535 0 0 1 62 37.77c.455.408.967 1.005 1.23 1.821 1.065 3.31-1.242 5.767-2.17 6.733-.364.379-.931.998-1.512 1.641l.87.81c1.898 1.767 3.994 3.717 4.48 4.226.925.972 1.339 2.309 1.387 3.518.05 1.26-.28 2.689-1.214 3.91-.651.85-1.709 1.938-2.568 2.782-.85.834-1.714 1.633-2.029 1.881a5.526 5.526 0 0 1-2.902 1.152c-1.643.145-3.404-.46-5.02-2.09-1.313-1.324-3.056-3.249-4.385-4.729-.62.525-1.17 1.014-1.515 1.329-.549.5-1.515 1.205-2.68 1.704-1.131.484-2.84.937-4.61.32-.858-.3-1.44-.889-1.799-1.345a7.87 7.87 0 0 1-.92-1.55c-.488-1.048-.9-2.338-1.254-3.637-.486-1.78-.936-3.855-1.336-5.7-.179-.823-.348-1.6-.505-2.286a113.95 113.95 0 0 0-.463-1.903c-.436-1.748-.919-3.686-1.144-5.4-.302-2.302-.33-5.34 1.798-7.449 1.204-1.193 2.81-1.597 4.167-1.724 1.399-.13 2.916 0 4.337.215 1.952.295 4.103.823 5.794 1.238Z" clip-rule="evenodd"/>
  <path fill-rule="evenodd" d="M31.516 9.58c-12.101 0-21.911 9.805-21.911 21.901 0 11.369 8.667 20.717 19.755 21.797a2.47 2.47 0 1 1-.48 4.916C15.287 56.87 4.665 45.417 4.665 31.481c0-14.824 12.022-26.84 26.852-26.84 13.863 0 25.27 10.5 26.7 23.98a2.47 2.47 0 0 1-4.913.52C52.137 18.147 42.825 9.58 31.516 9.58Z" clip-rule="evenodd"/>
</svg>
