<svg width="36" height="36" viewBox="0 0 36 36" fill="currentColor" xmlns="http://www.w3.org/2000/svg">
<g id="Profile Templates-3">
<g id="Vector">
<path d="M30.9128 7.75541C30.9128 6.40024 29.8258 5.30148 28.4851 5.30148H7.51491C6.17424 5.30148 5.08724 6.40024 5.08724 7.75541V10.3008H30.9128V7.75541ZM33.25 15.9186C33.25 16.5711 32.7269 17.0999 32.0814 17.0999C31.4359 17.0999 30.9128 16.5711 30.9128 15.9186V12.6642H5.08724V25.6225C5.08724 26.9777 6.17424 28.0764 7.51491 28.0764H15.0868C15.7322 28.0765 16.2554 28.6053 16.2554 29.2577C16.2554 29.9101 15.7322 30.4389 15.0868 30.439H7.51491C4.88323 30.439 2.75 28.2827 2.75 25.6225V7.75541C2.75 5.09527 4.88323 2.93896 7.51491 2.93896H28.4851C31.1168 2.93896 33.25 5.09527 33.25 7.75541V15.9186Z" />
<path d="M25.0446 15.7597C25.9206 14.9977 27.2735 15.6829 27.2233 16.8764L27.0197 21.6868L30.1855 22.3582C31.1371 22.56 31.5782 23.7255 30.9724 24.5381C30.4972 25.1755 29.0984 27.0221 27.6168 28.685C26.1806 30.2968 24.4304 31.9478 23.7446 32.5833C22.8717 33.3923 21.5119 32.7256 21.5278 31.5435L21.5936 26.6196L18.7875 25.9615C17.85 25.7413 17.4286 24.5862 18.0292 23.7844L18.5466 23.1012C19.2068 22.2374 20.2438 20.9109 21.1907 19.8324C22.398 18.4572 24.2347 16.5767 24.9614 15.8383L25.0446 15.7597ZM24.808 19.3638C24.1508 20.054 23.4539 20.8017 22.9014 21.431C22.191 22.2401 21.4189 23.2091 20.8085 23.9945L22.8763 24.48C23.4887 24.6239 23.9205 25.1902 23.9119 25.8381L23.866 29.2179C24.5249 28.5658 25.2599 27.8126 25.9182 27.0738C26.7445 26.1464 27.5477 25.1501 28.1662 24.3602L25.7405 23.846C25.1002 23.7102 24.6504 23.1152 24.6789 22.4414L24.808 19.3638Z" />
</g>
</g>
</svg>
