<svg width="36" height="36" viewBox="0 0 36 36" fill="none" xmlns="http://www.w3.org/2000/svg">
<g id="Account hub-3">
<path id="Vector" fill-rule="evenodd" clip-rule="evenodd" d="M5.33557 11.3869C5.43392 12.0744 6.01988 14.2791 9.37522 17.0673C10.3782 17.9008 11.27 18.5984 12.0567 19.2138L12.1 19.2477C12.8873 19.8637 13.5929 20.4161 14.1703 20.9259C15.2874 21.9122 16.2634 23.0178 16.2634 24.5928V31.2773C16.2634 31.7791 16.767 32.1187 17.2224 31.9241L18.9362 31.1916C19.1925 31.0821 19.3591 30.8273 19.3591 30.5449V24.5928C19.3591 23.8402 19.6631 23.192 20.0415 22.6516C20.4162 22.1165 20.9304 21.5931 21.5057 21.0681C22.1223 20.5053 22.9243 19.8421 23.8402 19.0847C24.5758 18.4764 25.3848 17.8074 26.2302 17.081C29.9297 13.902 30.5982 12.3158 30.6752 11.3813C29.9668 11.75 29.1409 12.0682 28.2417 12.3397C25.5655 13.1477 21.9449 13.6288 18 13.6288C14.0551 13.6288 10.4345 13.1477 7.75832 12.3397C6.86368 12.0696 6.04154 11.7532 5.33557 11.3869ZM33.25 8.10885V11.1757C33.25 12.6213 32.6611 14.1092 31.0626 15.975C31.9197 17.8349 32.9083 20.992 31.2261 24.4088C28.808 29.3201 24.1549 29.4854 21.9256 29.3799V30.5449C21.9256 31.8761 21.1399 33.0776 19.9317 33.5939L18.2179 34.3264C16.0709 35.244 13.6969 33.6429 13.6969 31.2773V24.5928C13.6969 24.251 13.5401 23.8232 12.4864 22.8928C11.9783 22.4442 11.339 21.9424 10.5338 21.3125L10.4839 21.2735C9.69957 20.6599 8.78246 19.9424 7.74993 19.0844C3.34845 15.4269 2.75 12.2713 2.75 11.1757V8.10885C2.75 6.8894 3.56222 5.99426 4.39289 5.40132C5.25888 4.78317 6.42851 4.27947 7.75832 3.87798C10.4345 3.06999 14.0551 2.58887 18 2.58887C21.9449 2.58887 25.5655 3.06999 28.2417 3.87798C29.5715 4.27947 30.7411 4.78317 31.6071 5.40132C32.4378 5.99426 33.25 6.8894 33.25 8.10885ZM21.9256 26.7695C23.9302 26.8736 27.2061 26.7456 28.9305 23.2432C29.8928 21.2888 29.6247 19.4372 29.1063 17.9844C28.7309 18.3332 28.3254 18.6948 27.8879 19.0707C26.9353 19.8893 26.1046 20.5749 25.3776 21.1749C24.5262 21.8775 23.8171 22.4627 23.2211 23.0067C22.688 23.4932 22.3417 23.8641 22.133 24.1621C21.9279 24.4549 21.9256 24.5786 21.9256 24.5928V26.7695ZM30.6817 8.10885C30.6697 8.06605 30.5929 7.86315 30.1313 7.53363C29.5837 7.1428 28.708 6.73786 27.5103 6.37626C25.1315 5.65806 21.7688 5.19522 18 5.19522C14.2312 5.19522 10.8685 5.65806 8.48969 6.37626C7.29201 6.73786 6.41626 7.1428 5.86874 7.53363C5.4071 7.86315 5.33028 8.06605 5.3183 8.10885C5.33028 8.15165 5.4071 8.35454 5.86874 8.68406C6.41626 9.07489 7.29201 9.47984 8.48969 9.84144C10.8685 10.5596 14.2312 11.0225 18 11.0225C21.7688 11.0225 25.1315 10.5596 27.5103 9.84144C28.708 9.47984 29.5837 9.07489 30.1313 8.68406C30.5929 8.35454 30.6697 8.15165 30.6817 8.10885Z" fill="#AA86F8"/>
</g>
</svg>
