<svg width="1em" height="1em" viewBox="0 0 72 72" fill="none" xmlns="http://www.w3.org/2000/svg">
<circle cx="36" cy="36" r="36" fill="#F8F9FB"/>
<path opacity="0.8" d="M52.6779 37.2435C52.6779 30.6952 48.904 25.0284 43.4125 22.2993M19.3223 37.2435C19.3223 30.6952 23.0962 25.0284 28.5877 22.2993M25.5165 50.2152C28.3809 52.533 32.0284 53.9214 36.0001 53.9214C39.9718 53.9214 43.6193 52.533 46.4836 50.2152" stroke="#0064D2" stroke-width="3.2" stroke-linecap="round" stroke-linejoin="round"/>
<circle cx="36.0008" cy="18.0994" r="4.2" fill="#B675F7"/>
<circle cx="19.3211" cy="45.0948" r="4.2" fill="#B675F7"/>
<circle cx="53.075" cy="45.0948" r="4.2" fill="#B675F7"/>
<path d="M31.0633 37.7007L35.5174 31.0196C35.8686 30.4928 36.6905 30.7986 36.612 31.4268L36.085 35.6425C36.0402 36.0006 36.3195 36.3169 36.6804 36.3169H40.3116C40.8147 36.3169 41.0944 36.8989 40.7801 37.2918L35.6881 43.6569C35.2954 44.1479 34.5079 43.7809 34.6312 43.1645L35.3939 39.3512C35.4681 38.9799 35.1842 38.6335 34.8055 38.6335H31.5625C31.0833 38.6335 30.7975 38.0994 31.0633 37.7007Z" fill="#B675F7"/>
</svg>
