<svg width="1em" height="1em" viewBox="0 0 72 72" fill="none" xmlns="http://www.w3.org/2000/svg">
<circle cx="36" cy="36" r="36" fill="#F8F9FB"/>
<path d="M36.0105 22.4163H25.8046C23.0141 22.4163 20.752 24.6784 20.752 27.4689V43.0153H50.5062V39.2007" stroke="#3282DA" stroke-width="3.2" stroke-linecap="round"/>
<path d="M20.7521 43.0151H50.5064L52.9309 47.3794C53.5546 48.5019 52.7429 49.8815 51.4587 49.8815H19.7998C18.5157 49.8815 17.7039 48.5019 18.3276 47.3794L20.7521 43.0151Z" stroke="#3282DA" stroke-width="3.2"/>
<path d="M46.7603 18.6438C47.8024 18.0421 49.0865 18.0421 50.1287 18.6438L54.2239 21.0082C55.2661 21.6099 55.9081 22.7219 55.9081 23.9253V28.6541C55.9081 29.8575 55.2661 30.9695 54.2239 31.5712L50.1287 33.9356C49.0865 34.5373 47.8024 34.5373 46.7603 33.9356L42.665 31.5712C41.6228 30.9695 40.9808 29.8575 40.9808 28.6541V23.9253C40.9808 22.7219 41.6228 21.6099 42.665 21.0082L46.7603 18.6438Z" stroke="#B675F7" stroke-width="3.2"/>
<circle cx="48.4428" cy="26.2895" r="2.46237" fill="#B675F7"/>
</svg>
