<svg width="1em" height="1em" viewBox="0 0 72 72" fill="none" xmlns="http://www.w3.org/2000/svg">
<circle cx="36" cy="36" r="36" fill="#F8F9FB"/>
<path opacity="0.8" d="M23.6133 49.0608C23.6487 49.001 23.685 48.9418 23.7221 48.8826C26.4311 44.5762 27.9993 39.4836 27.9993 34C27.9993 29.5817 31.5811 26 35.9993 26C40.4175 26 43.9993 29.5817 43.9993 34C43.9993 36.034 43.8609 38.0372 43.5927 40M39.3579 53.6872C40.5813 51.2452 41.5843 48.6738 42.3409 46" stroke="#0064D2" stroke-width="3.2" stroke-linecap="round" stroke-linejoin="round"/>
<path d="M50.0194 48.264C51.3094 43.7314 52 38.9464 52 34C52 25.1634 44.8366 18 36 18C33.0858 18 30.3534 18.7792 28 20.1405M18 42.7282C19.2813 40.0908 20 37.1292 20 34C20 31.0857 20.7792 28.3534 22.1405 26M35.9998 34C35.9998 41.0344 33.9822 47.5976 30.4941 53.1424" stroke="#B675F7" stroke-width="3.2" stroke-linecap="round" stroke-linejoin="round"/>
</svg>
