<svg width="1em" height="1em" viewBox="0 0 72 72" fill="none" xmlns="http://www.w3.org/2000/svg">
<circle cx="36" cy="36" r="36" fill="#F8F9FB"/>
<path d="M51.5288 40.8271C51.5288 42.2896 50.8165 43.5857 49.7199 44.3875C49.7199 44.3875 51.2554 45.365 52.2921 46.646C53.115 47.6628 53.5701 49.0722 53.3843 49.7992C52.9341 51.5608 47.624 51.3324 47.1212 51.3324C46.6183 51.3324 41.3877 51.5608 40.9375 49.7992C40.745 49.0457 41.1276 47.8764 41.979 46.7971C42.9838 45.5234 44.5224 44.3875 44.5224 44.3875C43.4258 43.5857 42.7135 42.2896 42.7135 40.8271C42.7135 38.3928 44.6869 36.4194 47.1212 36.4194C49.5554 36.4194 51.5288 38.3928 51.5288 40.8271Z" stroke="#B675F7" stroke-width="3.2" stroke-linecap="round" stroke-linejoin="round"/>
<path opacity="0.8" fill-rule="evenodd" clip-rule="evenodd" d="M35.6862 18.5979C32.4484 18.598 30.2073 20.7296 29.3825 22.1034C28.7851 23.0985 28.4263 24.4384 28.2436 25.8577C28.1266 26.7669 28.0881 27.6574 28.0894 28.4267C32.8372 28.2547 40.2289 28.2411 43.8803 28.5029C43.8751 28.2457 43.873 27.996 43.871 27.7514C43.8555 25.8851 43.8425 24.3251 42.4497 22.1398C41.2548 20.2651 39.0406 18.5979 35.6862 18.5979ZM47.1016 29.0723C47.0871 28.74 47.0866 28.3829 47.086 28.0024C47.083 26.0381 47.079 23.4493 45.1482 20.4199C43.4315 17.7264 40.2508 15.3978 35.6861 15.3979C31.0048 15.3981 27.8559 18.4292 26.639 20.4563C25.7183 21.9898 25.2789 23.8246 25.0698 25.4492C24.9221 26.5972 24.8818 27.7029 24.8905 28.6292C23.0855 28.8708 21.7065 29.4306 20.7129 30.3792C19.5166 31.5212 19.1478 32.9771 18.9595 34.1934C18.6227 36.3688 18.6862 39.6823 18.7593 43.4927C18.7674 43.911 18.7755 44.3353 18.7832 44.7647C18.8248 47.0689 19.1995 49.0096 20.3924 50.3678C21.6288 51.7754 23.4121 52.1934 25.3075 52.2861C28.2747 52.4312 32.9557 52.4643 35.3223 52.4308C36.2059 52.4183 36.912 51.6919 36.8995 50.8083C36.887 49.9247 36.1606 49.2186 35.277 49.2311C32.9533 49.264 28.3433 49.2307 25.4638 49.0899C23.8399 49.0105 23.1619 48.6718 22.7967 48.2561C22.3882 47.7909 22.0212 46.8416 21.9827 44.7071C21.9756 44.3097 21.9683 43.9209 21.9611 43.5408C21.8869 39.5814 21.8304 36.5653 22.1218 34.683C22.2799 33.6622 22.5101 33.0876 22.9225 32.6938C23.338 32.2971 24.2077 31.8346 26.2181 31.716C30.5591 31.4602 40.0026 31.4016 43.903 31.7137C45.2925 31.8249 46.5982 32.2244 47.5757 32.6112C48.0594 32.8026 48.4501 32.9858 48.7154 33.1187C48.8478 33.185 48.9481 33.2384 49.0123 33.2733C49.0443 33.2908 49.0673 33.3037 49.0806 33.3112L49.0918 33.3175C49.0916 33.3174 49.0919 33.3176 49.0918 33.3175C49.0923 33.3178 49.0934 33.3184 49.0939 33.3188C49.8563 33.7627 50.8345 33.5057 51.2801 32.7438C51.7262 31.9811 51.4695 31.0011 50.7068 30.5549L49.9337 31.8766C50.7068 30.5549 50.7071 30.5551 50.7068 30.5549L50.7038 30.5532L50.6999 30.5509L50.6891 30.5447L50.6558 30.5257C50.6285 30.5103 50.591 30.4893 50.5438 30.4636C50.4495 30.4122 50.3163 30.3416 50.1484 30.2575C49.8132 30.0896 49.3367 29.8666 48.7532 29.6357C48.2761 29.4469 47.7188 29.2494 47.1016 29.0723Z" fill="#3282DA"/>
</svg>
