<svg width="36" height="36" viewBox="0 0 36 36" fill="none" xmlns="http://www.w3.org/2000/svg">
<g id="Windows sync-2">
<g id="Vector">
<path fill-rule="evenodd" clip-rule="evenodd" d="M3.34375 7.6145C3.34375 5.06598 5.3753 3 7.88135 3H28.3062C30.8122 3 32.8438 5.06598 32.8438 7.6145V28.3855C32.8438 30.934 30.8122 33 28.3062 33H7.88135C5.3753 33 3.34375 30.934 3.34375 28.3855V7.6145ZM7.88135 5.26372C6.60468 5.26372 5.56974 6.3162 5.56974 7.6145V28.3855C5.56974 29.6838 6.60468 30.7363 7.88135 30.7363H28.3062C29.5828 30.7363 30.6178 29.6838 30.6178 28.3855V7.6145C30.6178 6.3162 29.5828 5.26372 28.3062 5.26372H7.88135Z" fill="#11A3FD"/>
<path fill-rule="evenodd" clip-rule="evenodd" d="M8.68131 11.8123C8.68131 9.94305 10.1714 8.42771 12.0095 8.42771C13.8476 8.42771 15.3377 9.94305 15.3377 11.8123V12.9332L20.8505 12.9332L20.8506 11.8121C20.8508 9.94285 22.341 8.42771 24.179 8.42771C26.017 8.42771 27.5072 9.94301 27.5072 11.8123C27.5072 13.6816 26.0171 15.1969 24.179 15.1969H23.0764V20.8031H24.179C26.0171 20.8031 27.5072 22.3185 27.5072 24.1877C27.5072 26.057 26.017 27.5723 24.179 27.5723C22.341 27.5723 20.8508 26.0572 20.8506 24.188L20.8505 23.0668H15.3376L15.3376 24.1877C15.3377 26.0569 13.8476 27.5723 12.0095 27.5723C10.1714 27.5723 8.68131 26.057 8.68131 24.1877C8.68131 22.3185 10.1714 20.8031 12.0095 20.8031H13.1116L13.1117 15.1969H12.0095C10.1714 15.1969 8.68131 13.6816 8.68131 11.8123ZM13.1117 12.9332V11.8123C13.1117 11.1933 12.6182 10.6914 12.0095 10.6914C11.4008 10.6914 10.9073 11.1933 10.9073 11.8123C10.9073 12.4314 11.4008 12.9332 12.0095 12.9332H13.1117ZM15.3377 15.1969L15.3376 20.8031H20.8504V15.1969L15.3377 15.1969ZM13.1116 23.0668H12.0095C11.4008 23.0668 10.9073 23.5687 10.9073 24.1877C10.9073 24.8068 11.4008 25.3086 12.0095 25.3086C12.6182 25.3086 13.1117 24.8068 13.1116 24.1877L13.1116 23.0668ZM23.0765 23.0668L23.0766 24.1877C23.0767 24.8067 23.5702 25.3086 24.179 25.3086C24.7877 25.3086 25.2812 24.8067 25.2812 24.1877C25.2812 23.5687 24.7878 23.0668 24.179 23.0668H23.0765ZM23.0765 12.9332L23.0766 11.8123C23.0767 11.1933 23.5702 10.6914 24.179 10.6914C24.7877 10.6914 25.2812 11.1933 25.2812 11.8123C25.2812 12.4313 24.7878 12.9332 24.179 12.9332L23.0765 12.9332Z" fill="#11A3FD"/>
</g>
</g>
</svg>
