<svg width="36" height="36" viewBox="0 0 36 36" fill="none" xmlns="http://www.w3.org/2000/svg">
<g id="Account hub-2">
<path id="Vector" fill-rule="evenodd" clip-rule="evenodd" d="M23.3061 6.58276C21.5865 5.58675 19.6355 5.06304 17.6498 5.06439C15.6642 5.06574 13.7139 5.59211 11.9956 6.59046C10.2774 7.5888 8.85173 9.02385 7.86242 10.751C6.89586 12.4384 6.45906 14.367 6.36047 16.4617V18.0093C6.36047 18.0235 6.36023 18.0378 6.35976 18.052C6.24066 21.6467 6.70081 25.2371 7.72246 28.6846C7.92422 29.3654 7.5376 30.0814 6.85892 30.2839C6.18024 30.4863 5.4665 30.0984 5.26474 29.4176C4.16649 25.7116 3.67072 21.8523 3.79644 17.9881V16.4319C3.79644 16.4123 3.79688 16.3927 3.79777 16.3732C3.90626 13.9919 4.40711 11.6206 5.63929 9.46946C6.85314 7.35031 8.60234 5.58955 10.7106 4.36462C12.8189 3.13968 15.2118 2.49385 17.6481 2.49219C20.0844 2.49053 22.4782 3.13311 24.5881 4.35517C25.2013 4.71032 25.4114 5.49689 25.0574 6.11202C24.7033 6.72715 23.9193 6.93791 23.3061 6.58276ZM27.846 9.02078C28.4524 8.65422 29.2403 8.85027 29.6057 9.45867C31.1604 12.0474 31.8318 15.0733 31.5192 18.0779V19.5882C31.5176 21.0233 31.8925 22.4336 32.6062 23.6774C32.9594 24.2929 32.7483 25.0792 32.1347 25.4336C31.5211 25.788 30.7373 25.5762 30.384 24.9606C29.4459 23.3257 28.9531 21.4718 28.9552 19.5854L30.2372 19.5868H28.9552V19.5854V18.0094C28.9552 17.9626 28.9577 17.9158 28.9628 17.8693C29.2324 15.4013 28.6867 12.9127 27.4095 10.7861C27.0441 10.1777 27.2395 9.38734 27.846 9.02078ZM17.6587 11.4084C16.3307 11.4084 15.057 11.9376 14.1179 12.8797C13.1788 13.8218 12.6512 15.0996 12.6512 16.4319C12.6512 17.1422 12.0772 17.718 11.3692 17.718C10.6612 17.718 10.0872 17.1422 10.0872 16.4319C10.0872 14.4174 10.8849 12.4854 12.3048 11.0609C13.7248 9.63644 15.6506 8.83618 17.6587 8.83618C19.6668 8.83618 21.5927 9.63644 23.0126 11.0609C24.4326 12.4854 25.2303 14.4174 25.2303 16.4319V18.0093C25.2303 21.144 26.2438 24.1942 28.1187 26.702C28.5435 27.2702 28.4287 28.0764 27.8623 28.5026C27.2958 28.9287 26.4923 28.8136 26.0675 28.2453C23.8597 25.2923 22.6663 21.7006 22.6663 18.0093V16.4319C22.6663 15.0996 22.1387 13.8218 21.1996 12.8797C20.2605 11.9376 18.9868 11.4084 17.6587 11.4084ZM18.9353 16.544L17.6581 16.432L16.381 16.3196C16.4429 15.612 17.0648 15.0887 17.7702 15.1508C18.4751 15.2128 18.9965 15.8369 18.9353 16.544ZM18.9353 16.544L18.9348 16.5494L18.9323 16.582C18.9301 16.6128 18.9268 16.6615 18.923 16.7271C18.9154 16.8582 18.9061 17.0569 18.8998 17.3153C18.8871 17.8322 18.8869 18.5865 18.9382 19.5158C18.9852 20.3684 19.3064 22.5061 19.9411 24.9023C20.5789 27.3106 21.4894 29.8069 22.6422 31.4725C23.046 32.056 22.9018 32.8573 22.3202 33.2624C21.7386 33.6675 20.9398 33.5229 20.536 32.9395C19.1246 30.9001 18.1229 28.0543 17.463 25.5629C16.7999 23.0594 16.4377 20.74 16.3781 19.6578C16.3226 18.6522 16.3224 17.8291 16.3365 17.2524C16.3435 16.9639 16.3541 16.7366 16.3632 16.5786C16.3678 16.4996 16.372 16.4378 16.3751 16.3943L16.3791 16.3429L16.3803 16.3277L16.3807 16.3227L16.381 16.3196C16.381 16.3196 16.381 16.3196 17.6581 16.432M11.2201 21.4639C11.9233 21.3813 12.5602 21.8862 12.6425 22.5917C13.0098 25.7389 13.9244 28.7971 15.3446 31.6274C15.663 32.2618 15.4084 33.0351 14.7759 33.3544C14.1435 33.6738 13.3727 33.4184 13.0544 32.7839C11.4994 29.685 10.4981 26.3367 10.0959 22.8908C10.0135 22.1854 10.5169 21.5465 11.2201 21.4639Z" fill="#AA86F8"/>
</g>
</svg>
