<svg xmlns="http://www.w3.org/2000/svg" width="73" height="72" fill="currentColor" viewBox="0 0 73 72">
  <path fill-rule="evenodd" d="M32.939 21.608c-5.45 0-9.866 4.434-9.866 9.903a9.9 9.9 0 0 0 4.392 8.24c1.556 1.045 1.481 3.498-.348 4.335-1.042.476-4.085 1.914-5.667 3.063-.866.628-2.062 1.827-3.125 2.986a60.326 60.326 0 0 0-1.652 1.882l-.098.116-.024.03-.005.006a2.293 2.293 0 0 1-3.236.308 2.312 2.312 0 0 1-.306-3.247l1.77 1.47-1.77-1.47.013-.015.03-.037.112-.133a64.926 64.926 0 0 1 1.786-2.033c1.065-1.163 2.534-2.674 3.813-3.602.981-.711 2.307-1.46 3.52-2.091a14.496 14.496 0 0 1-3.8-9.808c0-8.016 6.474-14.515 14.46-14.515 7.987 0 14.462 6.499 14.462 14.515 0 3.658-1.35 7-3.571 9.55.152.081.305.165.457.253a2.311 2.311 0 0 1 .84 3.15 2.293 2.293 0 0 1-3.137.845c-1.008-.584-2.179-.961-2.781-1.13-2.048-.571-2.47-3.284-.732-4.47a9.9 9.9 0 0 0 4.329-8.198c0-5.47-4.417-9.903-9.866-9.903Z" clip-rule="evenodd"/>
  <path fill-rule="evenodd" d="M32.57 10.073c-12.656 0-22.915 10.298-22.915 23 0 12.703 10.26 23 22.914 23a2.302 2.302 0 0 1 2.298 2.307 2.302 2.302 0 0 1-2.298 2.306c-15.192 0-27.508-12.363-27.508-27.613S17.377 5.461 32.569 5.461c15.193 0 27.51 12.362 27.51 27.612 0 4.141-.91 8.075-2.542 11.606a2.294 2.294 0 0 1-3.05 1.122 2.31 2.31 0 0 1-1.118-3.063 22.98 22.98 0 0 0 2.114-9.665c0-12.702-10.259-23-22.914-23Z" clip-rule="evenodd"/>
  <path fill-rule="evenodd" d="M39.686 48.95c1.63-1.332 3.655-1.988 5.342-1.988 1.435 0 2.558.248 3.562.775.705.37 1.341.898 1.788 1.268.1.083.19.158.27.221a2.312 2.312 0 0 1 .366 3.241 2.292 2.292 0 0 1-3.228.368 50.48 50.48 0 0 1-.562-.456c-.354-.292-.518-.426-.763-.555-.207-.108-.563-.25-1.433-.25-.619 0-1.62.283-2.44.953-.746.61-1.315 1.512-1.315 2.877 0 1.386.552 2.225 1.229 2.769.755.606 1.712.869 2.357.869.89 0 1.298-.126 1.652-.34.44-.267 1.027-.816 1.988-2.117.867-1.174 1.602-2.286 2.296-3.337l.234-.353c.738-1.114 1.485-2.229 2.265-3.127 1.908-2.197 4.213-2.718 6.377-2.718 1.695 0 3.638.612 5.187 1.956 1.613 1.4 2.706 3.515 2.706 6.26 0 4.582-3.744 8.347-8.05 8.347-3.2 0-5.069-1.507-5.883-2.244a2.312 2.312 0 0 1-.167-3.257 2.291 2.291 0 0 1 3.245-.168c.41.371 1.22 1.057 2.805 1.057 1.677 0 3.455-1.608 3.455-3.736 0-1.415-.521-2.254-1.116-2.77-.657-.57-1.513-.833-2.183-.833-1.34 0-2.162.273-2.912 1.137-.55.633-1.136 1.492-1.903 2.65l-.232.351c-.69 1.044-1.49 2.255-2.432 3.53-1.052 1.426-2.074 2.574-3.306 3.32-1.318.799-2.646 1.004-4.026 1.004-1.625 0-3.61-.58-5.229-1.88-1.697-1.364-2.952-3.498-2.952-6.37 0-2.894 1.305-5.06 3.008-6.453Z" clip-rule="evenodd"/>
</svg>
