<svg width="22" height="22" viewBox="0 0 22 22" fill="none" xmlns="http://www.w3.org/2000/svg">
<g>
<path d="M12.8335 16.5V18.3333L14.3537 19.0934C14.5456 19.1894 14.6668 19.3855 14.6668 19.6001C14.6668 19.913 14.4132 20.1667 14.1003 20.1667H7.89651C7.58524 20.1667 7.33258 19.9149 7.33146 19.6037C7.33068 19.389 7.45155 19.1925 7.64345 19.0964L9.16683 18.3333V16.5H2.74265C2.24054 16.5 1.8335 16.0885 1.8335 15.5765V3.67352C1.8335 3.16348 2.25086 2.75 2.74265 2.75H19.2577C19.7598 2.75 20.1668 3.16151 20.1668 3.67352V15.5765C20.1668 16.0865 19.7495 16.5 19.2577 16.5H12.8335ZM4.66683 4.58333C4.11455 4.58333 3.66683 5.03105 3.66683 5.58333V12.75C3.66683 13.3023 4.11454 13.75 4.66683 13.75H17.3335C17.8858 13.75 18.3335 13.3023 18.3335 12.75V5.58333C18.3335 5.03105 17.8858 4.58333 17.3335 4.58333H4.66683Z" fill="currentColor"/>
</g>
</svg>
