<svg width="24" height="24" viewBox="0 0 24 24" fill="none" xmlns="http://www.w3.org/2000/svg">
<path d="M12 1.5C17.7989 1.5 22.5 6.20101 22.5 12C22.5 13.1093 22.3283 14.1796 22.0088 15.1846C21.9251 15.4476 21.643 15.5934 21.3799 15.5098C21.1169 15.426 20.972 15.1439 21.0557 14.8809C21.2418 14.2952 21.3729 13.6843 21.4424 13.0547L21.5029 12.5H16.4893L16.4512 12.96C16.3625 14.0522 16.1615 15.1267 15.8535 16.167C15.7751 16.4318 15.4962 16.5833 15.2314 16.5049C14.9668 16.4264 14.8162 16.1475 14.8945 15.8828C15.1673 14.9615 15.351 14.0115 15.4404 13.0459L15.4912 12.5H8.50879L8.55957 13.0459C8.85592 16.2467 10.1883 19.2755 12.3691 21.6631C12.5026 21.8094 12.5369 22.0209 12.457 22.2021C12.377 22.3831 12.1979 22.5 12 22.5C6.20101 22.5 1.5 17.7989 1.5 12C1.5 6.20101 6.20101 1.5 12 1.5ZM21.8916 16.9141C21.9935 16.9128 22.0686 16.9241 22.0947 16.9316C22.1447 16.9462 22.2243 16.9895 22.3066 17.0674C22.3879 17.1443 22.4429 17.2288 22.4678 17.2939C22.4837 17.3357 22.4951 17.3726 22.4961 17.498C22.4969 17.6044 22.4862 17.6602 22.4746 17.6973C22.4636 17.7323 22.4438 17.7765 22.3906 17.8477C22.4034 17.8307 22.4031 17.8332 22.3574 17.8818C22.3221 17.9194 22.2717 17.9713 22.208 18.0371C22.0809 18.1684 21.9038 18.3501 21.6885 18.5684C21.258 19.0046 20.6786 19.5859 20.0557 20.207C18.8131 21.446 18.2365 22.0228 17.9219 22.3027C17.7627 22.4443 17.7084 22.4747 17.6963 22.4805H17.6943C17.6746 22.4847 17.6647 22.4856 17.5996 22.4961C17.4915 22.5135 17.3538 22.4962 17.2314 22.4404C17.2517 22.4497 17.2287 22.4497 17.0254 22.2588C16.8356 22.0806 16.5275 21.7755 15.9902 21.2393C15.462 20.712 15.156 20.4031 14.9736 20.21C14.7794 20.0043 14.766 19.9704 14.7705 19.9795C14.6488 19.7337 14.6941 19.4702 14.8789 19.2852C15.0675 19.0965 15.3221 19.0483 15.582 19.1709C15.5881 19.1758 15.5969 19.1827 15.6084 19.1924C15.6475 19.2254 15.7036 19.2751 15.7764 19.3428C15.9213 19.4775 16.1217 19.672 16.376 19.9248L17.1562 20.7002L17.5098 21.0518L17.8623 20.6982L19.6934 18.8643L19.6943 18.8652L21.6055 16.9844C21.6164 16.978 21.6305 16.9696 21.6475 16.9609C21.6625 16.9532 21.6773 16.9468 21.6895 16.9414C21.6953 16.9388 21.7003 16.937 21.7041 16.9355C21.708 16.934 21.71 16.9326 21.71 16.9326C21.7113 16.9322 21.7158 16.9314 21.7236 16.9297C21.7341 16.9274 21.7481 16.9252 21.7656 16.9229C21.8014 16.9181 21.8451 16.9146 21.8916 16.9141ZM2.55762 13.0547C2.99379 17.0003 5.84491 20.2167 9.59961 21.1943L10.8682 21.5244L10.1416 20.4336C8.6619 18.2095 7.76622 15.6382 7.54883 12.96L7.51074 12.5H2.49707L2.55762 13.0547ZM9.59961 2.80566C5.8449 3.78332 2.99379 6.99963 2.55762 10.9453L2.49707 11.5H7.51074L7.54883 11.04C7.76622 8.36179 8.6619 5.7905 10.1416 3.56641L10.8682 2.47559L9.59961 2.80566ZM11.6055 3.24414C9.8774 5.4705 8.81955 8.14604 8.55957 10.9541L8.50879 11.5H15.4912L15.4404 10.9541C15.1805 8.14604 14.1226 5.47051 12.3945 3.24414L12 2.73535L11.6055 3.24414ZM13.8584 3.56641C15.3381 5.79049 16.2338 8.3618 16.4512 11.04L16.4893 11.5H21.5029L21.4424 10.9453C21.0062 6.99964 18.1551 3.78333 14.4004 2.80566L13.1318 2.47559L13.8584 3.56641Z" fill="currentColor" stroke="currentColor"/>
</svg>
