<svg width="17" height="22" viewBox="0 0 17 22" fill="none" xmlns="http://www.w3.org/2000/svg">
<path d="M7.4375 16.6971C3.24455 16.1815 0 12.6548 0 8.38095C0 3.75228 3.80558 0 8.5 0C13.1944 0 17 3.75228 17 8.38095C17 12.6548 13.7554 16.1815 9.5625 16.6971V18.8693C13.7554 18.966 17 19.6272 17 20.4286C17 21.2964 13.1944 22 8.5 22C3.80558 22 0 21.2964 0 20.4286C0 19.6272 3.24455 18.966 7.4375 18.8693V16.6971ZM8.5 14.6667C12.0208 14.6667 14.875 11.8524 14.875 8.38095C14.875 4.90945 12.0208 2.09524 8.5 2.09524C4.97918 2.09524 2.125 4.90945 2.125 8.38095C2.125 11.8524 4.97918 14.6667 8.5 14.6667ZM8.5 10.4762C7.32636 10.4762 6.375 9.53815 6.375 8.38095C6.375 7.22378 7.32636 6.28571 8.5 6.28571C9.67364 6.28571 10.625 7.22378 10.625 8.38095C10.625 9.53815 9.67364 10.4762 8.5 10.4762Z" fill="currentColor"/>
</svg>
