<svg width="22" height="22" viewBox="0 0 22 22" fill="none" xmlns="http://www.w3.org/2000/svg">
<g>
<path d="M11.0002 20.1666C5.94016 20.1666 1.8335 16.0599 1.8335 10.9999C1.8335 5.93992 5.94016 1.83325 11.0002 1.83325C16.0602 1.83325 20.1668 5.93992 20.1668 10.9999C20.1668 16.0599 16.0602 20.1666 11.0002 20.1666ZM11.0002 18.3333C15.0518 18.3333 18.3335 15.0516 18.3335 10.9999C18.3335 6.94825 15.0518 3.66659 11.0002 3.66659C6.9485 3.66659 3.66683 6.94825 3.66683 10.9999C3.66683 15.0516 6.9485 18.3333 11.0002 18.3333ZM11.0002 15.5833C9.66112 15.5833 8.45559 15.0081 7.61735 14.0914C7.2757 13.7178 7.42181 13.1465 7.85587 12.8859C8.28958 12.6256 8.84577 12.7826 9.2333 13.1077C9.71108 13.5086 10.3273 13.7499 11.0002 13.7499C12.5195 13.7499 13.7502 12.5193 13.7502 10.9999C13.7502 9.48054 12.5195 8.24992 11.0002 8.24992C10.3275 8.24992 9.71134 8.49117 9.23358 8.89191C8.8462 9.21683 8.29041 9.37382 7.85676 9.11384C7.42228 8.85335 7.27591 8.28165 7.61784 7.90786C8.45606 6.99155 9.66138 6.41659 11.0002 6.41659C13.5302 6.41659 15.5835 8.46992 15.5835 10.9999C15.5835 13.5299 13.5302 15.5833 11.0002 15.5833Z" fill="currentColor"/>
</g>
</svg>
