<svg width="24" height="24" viewBox="0 0 24 24" fill="none" xmlns="http://www.w3.org/2000/svg">
<path d="M14.4008 16.7822C14.5211 16.3571 14.963 16.1102 15.3881 16.2305C15.8132 16.3508 16.0606 16.7927 15.9404 17.2178C15.5482 18.6036 15.028 19.9366 14.394 21.2021C14.1961 21.5969 13.7157 21.7568 13.3208 21.5591C12.9257 21.3612 12.7659 20.8804 12.9638 20.4854C13.5532 19.3089 14.0364 18.0702 14.4008 16.7822ZM15.1997 11C15.1997 9.23269 13.7667 7.7998 11.9995 7.7998C10.2322 7.79989 8.79976 9.23274 8.79976 11C8.79976 13.8966 7.97018 16.5893 6.53804 18.8662L6.53853 18.8667C6.52301 18.8914 6.50866 18.915 6.49507 18.938C6.26991 19.3181 5.77903 19.4439 5.39888 19.2188C5.01873 18.9936 4.89295 18.5027 5.11812 18.1226C5.13989 18.0858 5.16198 18.0505 5.18355 18.0161L5.18403 18.0151C6.46052 15.9858 7.19966 13.5866 7.19966 11C7.19966 8.34908 9.34857 6.20028 11.9995 6.2002C14.6504 6.2002 16.7998 8.34903 16.7998 11C16.7998 12.0533 16.7278 13.0912 16.5888 14.1084C16.529 14.5461 16.1257 14.8523 15.6879 14.7925C15.2502 14.7326 14.944 14.3293 15.0039 13.8916C15.1331 12.946 15.1997 11.9806 15.1997 11Z" fill="currentColor"/>
<path d="M11.1996 11C11.1996 10.5582 11.5581 10.2002 11.9999 10.2002C12.4417 10.2002 12.7997 10.5582 12.7997 11C12.7997 14.6722 11.7461 18.1009 9.92425 20.9971C9.68903 21.371 9.19518 21.4836 8.82122 21.2485C8.44724 21.0133 8.33449 20.519 8.56976 20.145C10.2358 17.4965 11.1996 14.3621 11.1996 11ZM19.2001 11C19.2001 7.02355 15.9764 3.7998 11.9999 3.7998C10.6872 3.7998 9.45853 4.15056 8.40032 4.7627C8.01789 4.98383 7.52876 4.85311 7.30755 4.4707C7.08636 4.08826 7.21711 3.59915 7.59954 3.37793C8.8947 2.62874 10.3985 2.2002 11.9999 2.2002C16.8601 2.2002 20.7997 6.13989 20.7997 11C20.7997 13.548 20.4443 16.0143 19.7792 18.3511C19.6583 18.776 19.2154 19.0223 18.7905 18.9014C18.3656 18.7804 18.1193 18.338 18.2402 17.9131C18.8651 15.7173 19.2001 13.3984 19.2001 11ZM3.20013 11C3.20013 9.3985 3.62867 7.89477 4.37786 6.59961C4.59909 6.21718 5.0882 6.08643 5.47064 6.30762C5.85304 6.52883 5.98376 7.01796 5.76263 7.40039C5.15049 8.4586 4.79974 9.68724 4.79974 11C4.79974 12.6883 4.4121 14.2886 3.71966 15.7139C3.52656 16.1112 3.0477 16.2766 2.65032 16.0835C2.25303 15.8904 2.08728 15.412 2.28021 15.0146C2.86909 13.8025 3.20013 12.4409 3.20013 11Z" fill="currentColor"/>
</svg>
