<svg width="26" height="26" viewBox="0 0 26 26" fill="none" xmlns="http://www.w3.org/2000/svg">
<path d="M12.9985 3.25L13.1137 3.25682L13.1713 3.26463L13.2308 3.2773L13.3392 3.31045C13.4141 3.33801 13.4852 3.37468 13.5511 3.41965L13.6526 3.4996L13.9015 3.71215C15.8709 5.34582 18.3599 6.22307 20.9198 6.18572L21.2537 6.17597C21.4719 6.16603 21.6872 6.22951 21.8651 6.35625C22.043 6.48299 22.1732 6.66567 22.2348 6.87505C22.7145 8.50483 22.8613 10.2143 22.6665 11.9019C22.4716 13.5894 21.9391 15.2207 21.1005 16.6986C20.262 18.1766 19.1345 19.4711 17.7851 20.5053C16.4357 21.5395 14.8919 22.2922 13.2455 22.7188C13.0848 22.7604 12.9161 22.7604 12.7554 22.7188C11.1089 22.2923 9.56501 21.5397 8.21551 20.5056C6.86601 19.4714 5.73842 18.1769 4.89977 16.6989C4.06112 15.2209 3.52851 13.5897 3.3336 11.9021C3.13868 10.2144 3.28544 8.5049 3.76515 6.87505C3.82676 6.66567 3.95693 6.48299 4.13481 6.35625C4.31269 6.22951 4.528 6.16603 4.74628 6.17597C7.41872 6.29798 10.0405 5.41936 12.0984 3.71215L12.3552 3.49277L12.4489 3.41965C12.5147 3.37468 12.5859 3.33801 12.6607 3.31045L12.7701 3.2773C12.8083 3.26807 12.8471 3.26123 12.8862 3.25682L12.9985 3.25ZM16.6204 10.3607C16.5297 10.27 16.422 10.1981 16.3035 10.149C16.185 10.1 16.058 10.0747 15.9297 10.0747C15.8014 10.0747 15.6744 10.1 15.5558 10.149C15.4373 10.1981 15.3297 10.27 15.239 10.3607L12.0242 13.5704L10.7619 12.3107L10.6702 12.2297C10.4739 12.0782 10.2273 12.007 9.98041 12.0305C9.73349 12.0539 9.50479 12.1704 9.34074 12.3562C9.1767 12.542 9.08962 12.7832 9.09719 13.0308C9.10476 13.2784 9.20642 13.5139 9.38151 13.6893L11.334 15.6393L11.4258 15.7202C11.6136 15.8658 11.8481 15.9378 12.0854 15.9229C12.3227 15.908 12.5463 15.8072 12.7144 15.6393L16.6194 11.7393L16.7004 11.6477C16.8461 11.4601 16.9183 11.2258 16.9034 10.9889C16.8885 10.7519 16.7875 10.5286 16.6194 10.3607H16.6204Z" fill="currentColor"/>
</svg>
