<svg width="24" height="24" viewBox="0 0 24 24" fill="none" xmlns="http://www.w3.org/2000/svg">
<path d="M8.7002 13.625C11.2741 13.6251 16.3999 14.9119 16.4004 17.4746V18.8496C16.4004 19.1534 16.1534 19.4004 15.8496 19.4004H1.5498C1.24614 19.4003 1 19.1533 1 18.8496V17.4746C1.00046 14.9118 6.12631 13.625 8.7002 13.625ZM16.4443 13.6914C19.1502 13.9885 22.9996 15.2529 23 17.4746V18.8496C23 19.1533 22.7539 19.4003 22.4502 19.4004H18.5996V17.4746C18.5995 15.847 17.72 14.6153 16.4443 13.6914ZM8.7002 4C10.823 4.00011 12.5496 5.72683 12.5498 7.84961C12.5498 9.97254 10.8231 11.7001 8.7002 11.7002C6.5772 11.7002 4.84961 9.97261 4.84961 7.84961C4.8498 5.72677 6.57731 4 8.7002 4ZM15.2998 4C17.4227 4 19.1502 5.72677 19.1504 7.84961C19.1504 9.97261 17.4228 11.7002 15.2998 11.7002C14.7061 11.7002 14.1562 11.5573 13.6504 11.3154C14.3434 10.3364 14.75 9.13661 14.75 7.84961C14.7499 6.56277 14.3433 5.36367 13.6504 4.38477C14.1562 4.14291 14.706 4.00003 15.2998 4Z" fill="currentColor"/>
</svg>
