<svg width="24" height="24" viewBox="0 0 24 24" fill="none" xmlns="http://www.w3.org/2000/svg">
<path d="M15.0391 2C15.9503 2.00009 16.8126 2.41441 17.3818 3.12598L20.3428 6.82715C20.7682 7.35899 20.9999 8.02009 21 8.70117V19C21 20.6569 19.6569 22 18 22H6C4.34315 22 3 20.6569 3 19V5C3 3.34315 4.34315 2 6 2H15.0391ZM6 4C5.44772 4 5 4.44772 5 5V19C5 19.5523 5.44772 20 6 20H18C18.5523 20 19 19.5523 19 19V8.70117C18.9999 8.47439 18.9228 8.2543 18.7812 8.07715L15.8193 4.375C15.6296 4.13806 15.3426 4.00009 15.0391 4H6ZM12 7C13.6569 7 15 8.34315 15 10V11H16V16H8V11H9V10C9 8.34315 10.3431 7 12 7ZM12 9C11.4477 9 11 9.44772 11 10V11H13V10C13 9.44772 12.5523 9 12 9Z" fill="currentColor"/>
</svg>
