<svg width="24" height="24" viewBox="0 0 24 24" fill="none" xmlns="http://www.w3.org/2000/svg">
<path fill-rule="evenodd" clip-rule="evenodd" d="M17 4C17.5523 4 18 4.40333 18 4.90039V10.0791H20.1914C20.8209 10.0793 21.2989 10.4447 21.5811 10.8477C21.8651 11.2535 22.0116 11.7665 22.0117 12.2891V18.79C22.0117 19.3126 21.865 19.8256 21.5811 20.2314C21.2989 20.6343 20.8207 20.9998 20.1914 21H3.80957C3.18013 20.9999 2.70209 20.6343 2.41992 20.2314C2.13591 19.8256 1.98835 19.3127 1.98828 18.79V12.2891C1.98836 11.7665 2.13598 11.2535 2.41992 10.8477C2.70209 10.4448 3.18012 10.0792 3.80957 10.0791H6V4.90039C6 4.40341 6.44783 4.00012 7 4C7.55228 4 8 4.40333 8 4.90039V10.0791H16V4.90039C16 4.40341 16.4478 4.00012 17 4ZM7.4502 15.9951C6.94758 15.9952 6.54004 16.4027 6.54004 16.9053C6.5403 17.4077 6.94774 17.8144 7.4502 17.8145H11.0908C11.5931 17.8142 12.0007 17.4075 12.001 16.9053C12.001 16.4028 11.5932 15.9954 11.0908 15.9951H7.4502ZM15.6416 15.9951C15.139 15.9951 14.7314 16.4026 14.7314 16.9053C14.7317 17.4077 15.1391 17.8145 15.6416 17.8145C16.1438 17.8141 16.5515 17.4075 16.5518 16.9053C16.5518 16.4028 16.144 15.9954 15.6416 15.9951Z" fill="currentColor"/>
</svg>
