<svg width="24" height="24" viewBox="0 0 24 24" fill="none" xmlns="http://www.w3.org/2000/svg">
<path fill-rule="evenodd" clip-rule="evenodd" d="M11.2949 2.7061C11.6856 2.31627 12.3178 2.31684 12.708 2.70707L14.3438 4.34281C14.5312 4.53022 14.7858 4.63472 15.0508 4.63481H18.3653C18.9172 4.63501 19.365 5.08287 19.3653 5.63481V8.94926C19.3653 9.21439 19.4707 9.46881 19.6582 9.65629L21.293 11.292C21.6833 11.6823 21.6838 12.3145 21.294 12.7051L19.6573 14.3438C19.47 14.5313 19.3653 14.7858 19.3653 15.0508V18.3653C19.3651 18.9173 18.9172 19.3651 18.3653 19.3653H15.0508C14.7857 19.3654 14.5312 19.4708 14.3438 19.6582L12.708 21.293C12.3178 21.6833 11.6856 21.6839 11.2949 21.294L9.65628 19.6573C9.46878 19.47 9.21425 19.3653 8.94925 19.3653H5.63479C5.08285 19.365 4.635 18.9172 4.63479 18.3653V15.0508C4.63479 14.7858 4.53007 14.5313 4.3428 14.3438L2.70608 12.7051C2.3163 12.3145 2.31682 11.6823 2.70706 11.292L4.3428 9.65629C4.5302 9.46882 4.63473 9.21433 4.63479 8.94926V5.63481C4.63505 5.0829 5.08288 4.63506 5.63479 4.63481H8.94925C9.21425 4.63481 9.46878 4.53008 9.65628 4.34281L11.2949 2.7061ZM9.00003 11C8.44779 11.0001 8.00006 11.4478 8.00003 12C8.00003 12.5523 8.44777 13 9.00003 13H15L15.1026 12.9952C15.6067 12.9438 16 12.5177 16 12C16 11.4824 15.6067 11.0563 15.1026 11.0049L15 11H9.00003Z" fill="currentColor"/>
</svg>
