<svg width="200" height="100" viewBox="0 0 200 100" fill="none" xmlns="http://www.w3.org/2000/svg">
<path d="M67.8961 58.345V36.5001H80.8075V39.2388H70.5697V45.9553H79.7641V48.6941H70.5697V55.541H81.5247V58.2797H67.8961V58.345Z" fill="white"/>
<path d="M95.0881 58.3456L90.6539 52.5421L86.2197 58.3456H83.0897L89.1541 50.5857L82.7637 42.5651H86.285L90.6539 48.5643L95.0881 42.5651H98.5442L92.4797 50.5857L98.2181 58.3456H95.0881Z" fill="white"/>
<path d="M102.522 55.9981V66.7575H99.8486V50.6509C99.8486 46.5428 102.979 42.1738 107.869 42.1738C112.825 42.1738 116.542 45.3038 116.542 50.4553C116.622 52.6227 115.837 54.7329 114.361 56.3217C112.884 57.9106 110.837 58.8478 108.67 58.9274C108.599 58.93 108.527 58.9317 108.456 58.9324C106.369 58.9324 103.565 58.0196 102.522 55.9981ZM113.738 50.4553C113.738 46.9341 111.456 44.8474 107.413 45.043C105.457 45.1083 102.457 46.5428 102.718 51.5639C102.884 52.8874 103.537 54.1017 104.549 54.9698C105.562 55.8378 106.862 56.2975 108.195 56.259C111.391 56.2589 113.738 54.433 113.738 50.4553Z" fill="white"/>
<path d="M118.824 58.3449V42.5645H121.497V44.2598C122.211 43.5481 123.069 42.999 124.015 42.6501C124.96 42.3012 125.97 42.1608 126.975 42.2384V45.1075C126.649 45.0423 123.453 44.6511 121.497 48.8244V58.4102H118.824V58.3449Z" fill="white"/>
<path d="M127.693 50.4541C127.643 49.4174 127.798 48.3811 128.148 47.4042C128.499 46.4274 129.039 45.5292 129.736 44.761C130.434 43.9927 131.276 43.3694 132.215 42.9266C133.154 42.4839 134.17 42.2303 135.207 42.1805C135.289 42.1766 135.371 42.1739 135.452 42.1725C141.06 42.1725 143.147 45.8894 143.147 50.6497V51.9538H130.627C130.749 53.2555 131.379 54.4568 132.379 55.2986C133.379 56.1404 134.671 56.5551 135.974 56.4532C136.794 56.4605 137.606 56.296 138.359 55.9703C139.111 55.6446 139.787 55.165 140.343 54.5622L142.104 56.3881C140.445 58.0525 138.193 58.9907 135.844 58.9964C133.698 59.0156 131.632 58.1816 130.101 56.6779C128.57 55.1741 127.699 53.1238 127.68 50.978C127.679 50.8032 127.683 50.6286 127.693 50.4541ZM135.257 44.8461C134.044 44.8949 132.895 45.3984 132.037 46.2563C131.179 47.1142 130.676 48.2636 130.627 49.4759H140.343C140.343 48.2426 139.853 47.0598 138.981 46.1877C138.109 45.3156 136.926 44.8257 135.693 44.8257C135.547 44.8257 135.402 44.8325 135.257 44.8461Z" fill="white"/>
<path d="M144.516 56.1273L146.472 54.3667C146.808 54.7683 147.179 55.1393 147.581 55.4752C148.005 55.8609 148.522 56.1304 149.081 56.2577C150.776 56.7141 153.841 56.5837 154.102 54.2362C154.232 52.932 153.254 52.2147 152.146 51.7583C150.711 51.2366 149.146 51.0409 147.711 50.3889C146.928 50.114 146.25 49.6022 145.771 48.9245C145.292 48.2468 145.036 47.4368 145.038 46.6068C145.038 41.8466 151.819 41.0641 154.884 43.2812C155.015 43.4116 156.515 44.781 156.449 44.781L154.493 46.346C154.04 45.7329 153.434 45.2482 152.737 44.9395C152.04 44.6309 151.274 44.5088 150.515 44.5854C149.472 44.5854 148.037 45.0418 147.777 46.1504C147.385 47.7154 149.146 48.3023 150.32 48.6283C151.93 48.8901 153.491 49.3958 154.949 50.1281C155.818 50.7542 156.45 51.6539 156.746 52.6827C157.042 53.7115 156.983 54.8098 156.58 55.8013C155.797 57.9532 153.45 58.8009 151.363 58.8661C150.186 58.9557 149.004 58.7862 147.9 58.3693C146.796 57.9524 145.796 57.2984 144.973 56.4534C144.842 56.4533 144.516 56.1273 144.516 56.1273Z" fill="white"/>
<path d="M158.275 56.1274L160.231 54.3667C160.567 54.7683 160.938 55.1393 161.34 55.4752C161.764 55.8609 162.28 56.1305 162.84 56.2577C164.535 56.7142 167.6 56.5838 167.861 54.2363C167.991 52.9321 167.013 52.2148 165.904 51.7583C164.47 51.2367 162.905 51.041 161.47 50.3889C160.687 50.1141 160.009 49.6023 159.53 48.9246C159.051 48.2468 158.794 47.4368 158.797 46.6068C158.797 41.8466 165.578 41.0641 168.643 43.2812C168.774 43.4116 170.273 44.781 170.208 44.781L168.252 46.346C167.798 45.7329 167.193 45.2482 166.496 44.9395C165.799 44.6309 165.033 44.5088 164.274 44.5854C163.231 44.5854 161.796 45.0418 161.535 46.1504C161.144 47.7154 162.905 48.3023 164.078 48.6283C165.689 48.8901 167.25 49.3958 168.708 50.1281C169.576 50.7542 170.209 51.6539 170.505 52.6827C170.8 53.7114 170.742 54.8097 170.338 55.8012C169.556 57.9531 167.208 58.8009 165.122 58.8661C163.945 58.9557 162.763 58.7861 161.659 58.3693C160.555 57.9524 159.555 57.2984 158.731 56.4533C158.601 56.4534 158.275 56.1274 158.275 56.1274Z" fill="white"/>
<path d="M170.991 42.5641V40.8687H170.404V40.5426H171.969V40.8687H171.382V42.5641H170.991Z" fill="white"/>
<path d="M173.925 42.5641V40.9991L173.339 42.5641H173.208L172.621 40.9991V42.5641H172.295V40.5426H172.817L173.338 41.9121L173.86 40.5427H174.382V42.5641L173.925 42.5641Z" fill="white"/>
<path d="M49.7678 58.3445L47.8116 53.1278H37.2477L35.2915 58.3445H32.4875L40.9646 36.4996H44.0295L52.4414 58.3445H49.7678ZM42.3993 39.6296L38.4215 50.4542H46.703L42.3993 39.6296Z" fill="white"/>
<path d="M54.2025 58.3445V36.4996H56.9413V58.3445H54.2025Z" fill="white"/>
<path d="M61.0488 58.344V42.8895H63.7876V58.344H61.0488Z" fill="white"/>
<path d="M66.396 37.8689V37.6081C65.3868 37.5731 64.4284 37.1566 63.7143 36.4425C63.0003 35.7284 62.5837 34.77 62.5487 33.7608H62.1575C62.1225 34.77 61.7059 35.7284 60.9919 36.4425C60.2778 37.1566 59.3194 37.5731 58.3102 37.6081V37.8689C59.3194 37.9039 60.2778 38.3205 60.9919 39.0345C61.706 39.7486 62.1225 40.707 62.1575 41.7162H62.5487C62.5837 40.707 63.0003 39.7486 63.7143 39.0345C64.4284 38.3205 65.3868 37.9039 66.396 37.8689Z" fill="white"/>
</svg>
