<svg width="200" height="100" viewBox="0 0 200 100" fill="none" xmlns="http://www.w3.org/2000/svg">
<g clip-path="url(#clip0_1_57)">
<path d="M58.9397 38.7272C51.1477 38.7272 44.6547 42.033 44.6547 52.0062C44.6547 59.9072 49.0207 64.8829 59.1408 64.8829C71.0526 64.8829 71.8162 57.0362 71.8162 57.0362H66.0444C66.0444 57.0362 64.8069 61.2614 58.7887 61.2614C57.7035 61.3338 56.6149 61.1814 55.5913 60.8136C54.5676 60.4459 53.6309 59.8707 52.8399 59.1242C52.0488 58.3777 51.4204 57.4759 50.994 56.4753C50.5676 55.4746 50.3524 54.3967 50.3618 53.3091H72.4199V50.3966C72.4199 45.8051 69.5051 38.7272 58.9397 38.7272ZM58.7385 42.4494C63.4043 42.4494 66.5852 45.3077 66.5852 49.5919H50.4894C50.4894 45.0438 54.6413 42.4494 58.7385 42.4494Z" fill="white"/>
<path d="M72.4162 29.069V59.8735C72.4162 61.6221 72.2914 64.0773 72.2914 64.0773H77.7965C77.7965 64.0773 77.9941 62.314 77.9941 60.7024C77.9941 60.7024 80.7139 64.9575 88.1095 64.9575C89.8555 65.0408 91.5995 64.7571 93.229 64.1245C94.8584 63.492 96.3371 62.5247 97.5695 61.2852C98.8019 60.0456 99.7607 58.5614 100.384 56.9283C101.007 55.2952 101.281 53.5496 101.187 51.8042C101.27 50.0695 100.987 48.3368 100.359 46.7179C99.7308 45.0989 98.7702 43.6295 97.5393 42.4045C96.3083 41.1795 94.8344 40.226 93.2124 39.6055C91.5904 38.985 89.8564 38.7112 88.1221 38.8019C80.4376 38.8019 78.0497 42.9515 78.0497 42.9515V29.069H72.4162ZM86.7012 42.6121C91.9897 42.6121 95.3526 46.5371 95.3526 51.8043C95.3526 57.4524 91.4686 61.1474 86.7389 61.1474C81.0944 61.1474 78.0497 56.7402 78.0497 51.8546C78.0497 47.3021 80.7818 42.6121 86.7012 42.6121Z" fill="white"/>
<path d="M114.869 38.7272C103.147 38.7272 102.395 45.1458 102.395 46.1715H108.229C108.229 46.1715 108.535 42.4242 114.467 42.4242C118.321 42.4242 121.307 44.1883 121.307 47.5799V48.7871H114.467C105.385 48.7871 100.584 51.4437 100.584 56.835C100.584 62.1406 105.02 65.0274 111.015 65.0274C119.185 65.0274 121.817 60.5131 121.817 60.5131C121.817 62.3086 121.955 64.0781 121.955 64.0781H127.142C127.142 64.0781 126.941 61.8848 126.941 60.4817V48.3534C126.941 40.4009 120.526 38.7272 114.869 38.7272ZM121.307 52.4086V54.0182C121.307 56.1175 120.012 61.3367 112.386 61.3367C108.209 61.3367 106.419 59.2525 106.419 56.835C106.419 52.437 112.449 52.4086 121.307 52.4086Z" fill="white"/>
<path d="M123.799 39.7335H130.363L139.783 58.6065L149.182 39.7335H155.128L138.008 73.3333H131.771L136.711 63.9669L123.799 39.7335Z" fill="white"/>
</g>
<defs>
<clipPath id="clip0_1_57">
<rect width="200" height="100" fill="white"/>
</clipPath>
</defs>
</svg>
