<svg width="200" height="100" viewBox="0 0 200 100" fill="none" xmlns="http://www.w3.org/2000/svg">
<g clip-path="url(#clip0_1_63)">
<path d="M67.0551 34.2941V46.8474C67.0551 46.8474 71.4784 46.8474 73.8458 46.6677C75.7074 46.3418 76.0501 46.1621 76.3928 44.3004L77.0781 41.5737H79.1028L78.7601 47.5328L78.9398 53.6381H76.8984L76.3928 51.2541C76.3161 50.6367 76.0133 50.0696 75.5429 49.6625C75.0724 49.2553 74.4678 49.037 73.8458 49.0496C72.1491 48.87 67.0551 48.87 67.0551 48.87V59.3986C67.0551 61.4233 68.0831 62.2883 70.4505 62.2883H77.5838C79.7881 62.2883 81.9905 62.1086 83.3631 58.893L85.2081 54.8123H86.9215C86.7418 55.6606 85.8935 63.1366 85.7305 64.8186C85.7305 64.8186 79.2825 64.6556 76.5725 64.6556H64.3451L57.0488 64.8186V62.9736L59.4162 62.4512C61.1295 62.1086 61.6351 61.6029 61.6351 60.2469C61.6351 60.2469 61.8148 55.6606 61.8148 48.0195C61.8148 40.3973 61.6351 35.8089 61.6351 35.8089C61.6351 34.2899 61.1295 33.9472 59.4162 33.6045L57.0488 33.1031V31.2414L64.1822 31.3877H77.7635C80.4735 31.3877 85.043 30.8988 85.043 30.8988C85.043 30.8988 84.8801 33.7717 84.7004 40.5624H82.8387L82.1534 38.1783C81.4847 35.1257 80.4714 33.6067 78.595 33.6067H67.9201C67.0551 33.6087 67.0551 33.7717 67.0551 34.2941ZM94.5437 35.6334H96.585V42.7667L103.555 42.4241L103.213 45.6564L96.4221 45.1341V57.7041C96.4221 61.2624 97.613 62.633 99.6544 62.633C100.381 62.6495 101.101 62.487 101.749 62.1598C102.398 61.8326 102.957 61.3507 103.376 60.7567L104.387 61.9477C103.735 63.1058 102.768 64.0551 101.597 64.685C100.427 65.3149 99.1018 65.5996 97.776 65.506C96.9719 65.5729 96.1629 65.4671 95.403 65.1956C94.6432 64.9242 93.9501 64.4935 93.3704 63.9324C92.7906 63.3712 92.3376 62.6926 92.0415 61.942C91.7455 61.1914 91.6134 60.3862 91.654 59.5804V45.3116H87.6047V43.615C91.0021 43.2724 93.5325 41.231 94.5437 35.6334ZM109.153 57.5223L110.507 60.7546C110.833 61.6345 111.444 62.3804 112.242 62.8742C113.04 63.368 113.98 63.5817 114.914 63.4813C117.803 63.4813 118.994 61.9477 118.994 60.086C118.994 54.3066 107.617 56.0053 107.617 48.2013C107.617 43.7946 111.176 41.7366 115.762 41.7366C118.013 41.703 120.254 42.0506 122.39 42.7646C122.046 44.6114 121.871 46.4857 121.867 48.3643L120.185 48.5272L118.994 45.132C118.614 44.5999 118.099 44.1787 117.503 43.9118C116.906 43.6448 116.249 43.5416 115.599 43.6129C113.557 43.6129 111.518 44.4613 111.518 46.6656C111.518 51.9226 123.238 50.7463 123.238 58.5503C123.238 62.9736 119.337 65.3409 114.571 65.3409C112.135 65.2657 109.727 64.803 107.437 63.9703C107.699 61.8289 107.699 59.6637 107.437 57.5223H109.153ZM122.392 73.8136C122.899 71.6862 123.297 69.534 123.583 67.3656L125.444 67.2026L126.13 70.7609C126.16 70.9932 126.236 71.2171 126.353 71.42C126.47 71.623 126.625 71.8009 126.811 71.9436C126.997 72.0863 127.209 72.1911 127.435 72.2519C127.661 72.3127 127.897 72.3284 128.129 72.2981L128.154 72.2946C130.359 72.2946 133.248 70.9406 135.973 66.1893C134.765 63.2996 131.207 53.9786 127.975 46.8453C127.126 44.969 126.963 44.8039 125.787 44.4613L124.922 44.1353V42.422L130.031 42.6017L136.299 42.259V43.9577L134.765 44.3004C133.574 44.4634 133.083 45.1321 133.083 45.8194C133.075 46.0583 133.131 46.295 133.246 46.5047C133.572 47.5327 136.299 55.1571 138.34 60.249C140.022 56.6907 143.255 48.709 143.76 47.3531C143.938 46.9202 144.053 46.4643 144.103 45.9991C144.103 45.1341 143.597 44.6284 142.421 44.3024L141.213 43.9577V42.261L145.979 42.424L150.386 42.2611V43.9577L149.537 44.6264C147.841 45.3117 147.661 45.4747 146.99 46.8453L139.531 64.3109C135.108 74.3339 130.522 75.1822 127.304 75.1822C125.567 75.2232 123.857 74.7468 122.392 73.8136Z" fill="white"/>
</g>
<defs>
<clipPath id="clip0_1_63">
<rect width="200" height="100" fill="white"/>
</clipPath>
</defs>
</svg>
