<svg width="200" height="100" viewBox="0 0 200 100" fill="none" xmlns="http://www.w3.org/2000/svg">
<path d="M34.5953 39.4831C32.7779 39.4831 32.2623 40.289 32.2623 42.0641V44.9972H37.0945L36.6198 49.7448H32.2624V64.1387H26.4806V49.7448H22.5601V44.9973H26.4609V42.1472C26.4609 37.3573 28.3811 34.8384 33.7697 34.8384C34.8949 34.8351 36.0191 34.9043 37.1353 35.0455V39.5058M37.468 55.1577C37.468 60.5055 40.008 64.5106 45.2939 64.5106C46.4373 64.5885 47.5772 64.3162 48.562 63.7301C49.5468 63.144 50.3297 62.2718 50.8065 61.2297V64.1206H56.3614V44.9942H50.8065V47.9275C50.3324 46.8788 49.5522 45.9982 48.5683 45.4012C47.5844 44.8043 46.4429 44.5191 45.2939 44.583C40.002 44.583 37.468 48.6093 37.468 53.936M43.2708 53.8528C43.2708 51.0027 44.3231 49.1052 47.0084 49.1052C49.3822 49.1052 50.5812 50.8395 50.5812 53.5655V55.4858C50.5812 58.2118 49.3837 59.9461 47.0084 59.9461C44.3247 59.9461 43.2708 58.0668 43.2708 55.1986V53.8528ZM68.4208 44.5814C61.6442 44.5844 58.5447 48.2373 58.5447 54.1022V54.9898C58.5447 60.8531 61.6412 64.509 68.4359 64.509C70.3699 64.5988 72.2914 64.1559 73.9909 63.2284L72.7102 59.1189C71.5022 59.6901 70.1849 59.9929 68.8487 60.0065C65.7099 60.0065 64.3476 58.1891 64.3476 55.1123V53.998C64.3476 50.9015 65.7084 49.1038 68.8487 49.1038C70.1857 49.1098 71.5047 49.413 72.7102 49.9913L73.9909 45.8818C72.2964 44.9398 70.3725 44.4894 68.436 44.5815M74.7333 55.2771C74.7333 60.894 77.4593 64.5485 84.7682 64.5485C87.3159 64.5933 89.8457 64.1147 92.2009 63.1423L91.1486 59.1569C89.19 59.9317 87.1012 60.3243 84.9949 60.3136C81.7744 60.3136 80.6178 59.1569 80.4938 56.5336H92.6757V53.4793C92.6757 48.1874 90.0751 44.5587 84.127 44.5587C77.807 44.5587 74.7317 48.1315 74.7317 53.561V55.2891M80.5135 52.7913C80.5135 50.2104 81.5265 48.579 84.1422 48.579C86.6822 48.579 87.5078 50.2316 87.5078 52.3166V52.7914L80.5135 52.7913ZM114.15 53.948C114.15 48.6002 111.569 44.5951 106.283 44.5951C105.188 44.5408 104.1 44.7991 103.146 45.3399C102.192 45.8807 101.411 46.6816 100.895 47.6493V34.8686L95.113 35.3827V64.1099H100.586V61.2191C101.104 62.2711 101.922 63.1462 102.936 63.7341C103.95 64.322 105.116 64.5965 106.286 64.5228C111.578 64.5228 114.153 60.4964 114.153 55.1698M108.371 55.253C108.371 57.9368 107.319 59.9613 104.552 59.9613C102.178 59.9613 100.898 58.2678 100.898 55.5418V53.5386C100.898 50.8126 102.178 49.1191 104.552 49.1191C107.319 49.1191 108.371 51.1225 108.371 53.8274V55.253ZM116.094 55.0262C116.094 60.5388 119.233 64.5031 125.614 64.5031C131.994 64.5031 135.133 60.5176 135.133 55.0262V54.0555C135.133 48.5429 131.994 44.5785 125.614 44.5785C119.233 44.5785 116.094 48.5641 116.094 54.0555V55.0262ZM129.351 55.4193C129.351 57.9593 128.299 59.9612 125.614 59.9612C122.928 59.9612 121.876 57.9579 121.876 55.4193V53.6442C121.876 51.1042 122.928 49.1023 125.614 49.1023C128.299 49.1023 129.351 51.1056 129.351 53.6442L129.351 55.4193ZM137.053 55.0262C137.053 60.5388 140.192 64.5032 146.572 64.5032C152.953 64.5032 156.092 60.5176 156.092 55.0262V54.0555C156.092 48.5429 152.953 44.5785 146.572 44.5785C140.192 44.5785 137.053 48.5641 137.053 54.0555V55.0262ZM150.328 55.4193C150.328 57.9593 149.276 59.9612 146.591 59.9612C143.905 59.9612 142.851 57.9957 142.851 55.4253V53.6502C142.851 51.1101 143.904 49.1083 146.589 49.1083C149.274 49.1083 150.327 51.1116 150.327 53.6502L150.328 55.4193ZM164.06 34.8535L158.278 35.3676V64.0585H164.06V54.7056L170.006 64.0585H176.16L169.925 54.382L175.912 44.9473H169.758L164.058 54.0735" fill="white"/>
</svg>
