<svg width="200" height="100" viewBox="0 0 200 100" fill="none" xmlns="http://www.w3.org/2000/svg">
<g clip-path="url(#clip0_1_69)">
<path d="M53.9199 33.4401C53.7599 33.4401 50.3999 33.1201 50.3999 33.1201C50.3999 33.1201 47.9999 30.7201 47.6799 30.5601C47.5199 30.4001 47.5199 30.4001 47.3599 30.4001L45.4399 69.7601L59.1999 66.7201C59.1999 66.7201 54.3999 34.0801 54.3999 33.7601C54.3999 33.6001 54.0799 33.4401 53.9199 33.4401Z" fill="white" fill-opacity="0.8"/>
<path fill-rule="evenodd" clip-rule="evenodd" d="M38.6511 26.9146C38.4628 26.8058 38.3143 26.7201 38.08 26.7201C33.92 26.7201 31.68 32.1601 30.56 35.3601L34.08 34.4001C35.04 29.9201 36.96 27.8401 38.88 27.0401C38.7943 26.9972 38.72 26.9543 38.6511 26.9146ZM40.48 32.1601C40.48 30.4001 40.16 29.2801 39.84 28.3201C38.4 28.9601 36.8 30.4001 35.84 33.7601L40.48 32.4801V32.1601ZM41.92 31.8401L44 31.2001C43.52 29.6001 42.56 28.1601 41.44 27.8401C41.76 28.8001 41.92 29.9201 41.92 31.3601V31.8401ZM54.08 33.4401C54.24 33.4401 54.4 33.6001 54.4 33.7601C54.4 34.0801 59.2 66.7201 59.2 66.7201L45.44 69.7601L20 64.9601C20 64.9601 23.2 39.6801 23.36 38.8801C23.3629 38.8598 23.3657 38.8398 23.3686 38.8201C23.5204 37.7542 23.5432 37.5943 24.8 37.2801C25.1678 37.1575 25.5252 37.0349 25.8748 36.9149C26.8939 36.5653 27.847 36.2383 28.8 36.0001C29.76 32.3201 32.48 25.1201 38.24 25.2801C39.04 25.2801 40 25.6001 40.64 26.5601H40.8C43.2 26.5601 44.64 28.6401 45.44 30.8801C46.24 30.5601 46.72 30.4001 46.72 30.4001C46.752 30.4001 46.7968 30.3937 46.8506 30.386C47.0656 30.3553 47.424 30.3041 47.68 30.5601C48 30.7201 50.4 33.1201 50.4 33.1201C50.4 33.1201 53.76 33.4401 54.08 33.4401ZM39.04 46.2401L40.8 41.1201C40.8 41.1201 39.68 40.3201 36.96 40.4801C31.04 40.4801 28 44.4801 28 48.6401C28 51.4221 29.5604 52.694 30.9308 53.8111C32.0037 54.6856 32.96 55.4652 32.96 56.8001C32.96 57.6001 32.48 58.5601 31.2 58.5601C29.28 58.5601 27.04 56.6401 27.04 56.6401L25.92 60.4801C25.92 60.4801 28.16 63.2001 32.48 63.2001C36.16 63.2001 38.88 60.4801 38.88 56.1601C38.88 52.8464 36.6241 51.195 34.8606 49.904C33.7289 49.0756 32.8 48.3956 32.8 47.5201C32.8 47.0401 32.96 45.4401 35.68 45.4401C37.6 45.4401 39.04 46.2401 39.04 46.2401Z" fill="white"/>
<path d="M75.36 50.5601C73.92 49.7601 73.28 49.1201 73.28 48.3201C73.28 47.2001 74.24 46.5601 75.84 46.5601C77.6 46.5601 79.2 47.3601 79.2 47.3601L80.48 43.5201C80.48 43.5201 79.36 42.5601 76 42.5601C71.2 42.5601 68 45.2801 68 49.1201C68 51.3601 69.6 52.9601 71.52 54.0801C73.12 55.0401 73.76 55.6801 73.76 56.6401C73.76 57.6001 72.96 58.5601 71.36 58.5601C69.12 58.5601 66.88 57.4401 66.88 57.4401L65.6 61.2801C65.6 61.2801 67.52 62.5601 70.88 62.5601C75.68 62.5601 79.2 60.1601 79.2 55.8401C79.2 53.4401 77.44 51.6801 75.36 50.5601ZM94.72 42.4001C92.32 42.4001 90.4 43.5201 88.96 45.2801L91.04 34.4001H85.6L80.32 62.0801H85.76L87.52 52.6401C88.16 49.1201 90.08 46.8801 91.84 46.8801C93.12 46.8801 93.6 47.6801 93.6 48.9601C93.6 49.7601 93.6 50.5601 93.44 51.3601L91.36 62.2401H96.8L98.88 51.0401C99.04 49.9201 99.2 48.4801 99.2 47.5201C99.2 44.3201 97.6 42.4001 94.72 42.4001ZM108.64 58.2401C106.72 58.2401 106.08 56.6401 106.08 54.7201C106.08 51.6801 107.68 46.5601 110.56 46.5601C112.48 46.5601 113.12 48.1601 113.12 49.7601C113.12 53.2801 111.52 58.2401 108.64 58.2401ZM111.36 42.4001C104.8 42.4001 100.48 48.3201 100.48 54.8801C100.48 59.0401 103.04 62.4001 108 62.4001C114.4 62.4001 118.72 56.6401 118.72 49.9201C118.72 46.0801 116.48 42.4001 111.36 42.4001ZM127.36 58.4001C125.92 58.4001 125.12 57.6001 125.12 57.6001L126.08 52.4801C126.72 49.1201 128.48 46.8801 130.4 46.8801C132 46.8801 132.64 48.4801 132.64 49.9201C132.48 53.4401 130.4 58.4001 127.36 58.4001ZM132.64 42.4001C128.96 42.4001 126.88 45.6001 126.88 45.6001L127.2 42.7201H122.4C122.24 44.6401 121.76 47.6801 121.28 49.9201L117.44 69.7601H122.88L124.32 61.7601H124.48C124.48 61.7601 125.6 62.4001 127.68 62.4001C134.08 62.4001 138.24 55.8401 138.24 49.2801C138.24 45.7601 136.64 42.4001 132.64 42.4001ZM145.92 34.7201C144.16 34.7201 142.88 36.1601 142.88 37.9201C142.88 39.5201 143.84 40.6401 145.44 40.6401C147.2 40.6401 148.64 39.5201 148.64 37.4401C148.64 35.8401 147.52 34.7201 145.92 34.7201ZM138.4 62.0801H143.84L147.52 42.8801H142.08L138.4 62.0801ZM161.28 42.8801H157.44L157.6 41.9201C157.92 40.0001 159.04 38.4001 160.8 38.4001C161.76 38.4001 162.56 38.7201 162.56 38.7201L163.68 34.4001C163.68 34.4001 162.72 33.9201 160.8 33.9201C158.88 33.9201 156.96 34.4001 155.52 35.6801C153.6 37.2801 152.8 39.5201 152.32 41.7601L152.16 42.7201H149.6L148.8 46.8801H151.36L148.48 62.0801H153.92L156.8 46.8801H160.48L161.28 42.8801ZM174.24 42.8801C174.24 42.8801 170.88 51.3601 169.28 56.0001C169.12 54.5601 168 42.8801 168 42.8801H162.24L165.44 60.4801C165.44 60.8001 165.44 61.1201 165.28 61.4401C164.64 62.7201 163.52 63.8401 162.4 64.6401C161.44 65.4401 160.16 65.9201 159.36 66.2401L160.8 70.8801C161.92 70.7201 164.16 69.7601 166.08 68.0001C168.48 65.7601 170.88 62.0801 173.12 57.2801L179.68 43.0401L174.24 42.8801Z" fill="white"/>
</g>
<defs>
<clipPath id="clip0_1_69">
<rect width="160" height="45.76" fill="white" transform="translate(20 25.1201)"/>
</clipPath>
</defs>
</svg>
