<svg width="48" height="48" viewBox="0 0 48 48" fill="none" xmlns="http://www.w3.org/2000/svg">
<rect width="48" height="48" rx="10" fill="black"/>
<path d="M17.625 31.1177H13.5516V25.2994H10.9077V31.1177H6.72612L6.71118 16.122H10.9077V21.7002H13.5516V16.122H17.625V31.1177ZM36.2884 31.1881C40.4887 31.1864 43.9066 27.6965 43.9057 23.4957C43.9049 19.2062 40.4887 15.8743 36.2884 15.8711C32.0931 15.8681 29.9495 18.9562 29.4198 20.2028C29.4247 18.3316 27.5805 16.1228 25.423 16.1205H18.4725V31.1124L24.9527 31.1147C27.5655 31.1147 29.4245 28.8508 29.4279 26.9095C30.0244 28.1313 32.0931 31.1896 36.2884 31.1881ZM24.4098 25.0879C25.0095 25.0879 25.4818 25.6802 25.4818 26.3547C25.4818 27.0294 25.0095 27.6215 24.4098 27.6215H22.3487V25.0879H24.4098ZM24.4174 19.4585C25.017 19.4585 25.4894 20.0505 25.4894 20.7253C25.4894 21.4 25.017 21.9922 24.4174 21.9922H22.356V19.4585H24.4174ZM27.1608 23.4988C27.633 23.4388 28.4202 22.8991 28.6976 22.5542C28.6001 22.9816 28.5927 24.2183 28.7065 24.6456C28.3902 24.1585 27.6406 23.5587 27.1608 23.4988ZM32.4747 23.4988C32.4747 21.3911 34.1832 19.6824 36.2909 19.6824C38.3986 19.6824 40.1073 21.3911 40.1073 23.4988C40.1073 25.6066 38.3986 27.3151 36.2909 27.3151C34.1832 27.3151 32.4747 25.6066 32.4747 23.4988ZM36.2909 26.4988C37.9478 26.4988 39.2909 25.1558 39.2909 23.4988C39.2909 21.8419 37.9478 20.4987 36.2909 20.4987C34.634 20.4987 33.2908 21.8419 33.2908 23.4988C33.2908 25.1558 34.634 26.4988 36.2909 26.4988Z" fill="white"/>
<path d="M44.0948 16.3586C44.3786 16.3586 44.6209 16.4589 44.8213 16.6591C45.0206 16.8584 45.1205 17.099 45.1205 17.3811C45.1205 17.6653 45.0208 17.9076 44.8213 18.1078C44.622 18.3081 44.3798 18.4083 44.0948 18.4083C43.8098 18.4083 43.5676 18.3083 43.3683 18.1078C43.1699 17.9076 43.0708 17.6653 43.0708 17.3811C43.0708 17.0992 43.1705 16.8584 43.37 16.6591C43.5702 16.4589 43.8119 16.3586 44.0948 16.3586ZM45.281 17.3794C45.281 17.0525 45.1651 16.7737 44.9334 16.5434C44.7018 16.3131 44.4216 16.1979 44.0931 16.1979C43.7665 16.1979 43.4882 16.3131 43.2575 16.5434C43.0258 16.7747 42.9099 17.0534 42.9099 17.3794C42.9099 17.7086 43.0247 17.9891 43.2542 18.2203C43.4848 18.4529 43.7644 18.569 44.0931 18.569C44.4217 18.569 44.7018 18.4529 44.9334 18.2203C45.1651 17.9879 45.281 17.7075 45.281 17.3794ZM44.4085 17.1226C44.4085 17.2213 44.3631 17.2883 44.2722 17.3232C44.2228 17.3425 44.1489 17.352 44.0504 17.352H43.8401V16.8868H44.0388C44.168 16.8868 44.262 16.9027 44.3204 16.9346C44.3792 16.9664 44.4085 17.029 44.4085 17.1226ZM43.6162 16.7261V18.0235H43.8401V17.5125H44.0241C44.1477 17.5125 44.2342 17.5265 44.2835 17.5543C44.3667 17.6025 44.4083 17.7016 44.4083 17.8516V17.9544L44.413 17.9962C44.4142 18.0015 44.4151 18.0065 44.4163 18.0108C44.4174 18.0152 44.4183 18.0193 44.4195 18.0237H44.6322L44.6241 18.0076C44.6186 17.9968 44.6146 17.9743 44.6125 17.9399C44.6105 17.9057 44.6093 17.8733 44.6093 17.8434V17.7483C44.6093 17.6829 44.5857 17.616 44.5388 17.5473C44.4917 17.4787 44.4174 17.4363 44.3159 17.4201C44.3966 17.4072 44.4596 17.3864 44.5048 17.3573C44.5899 17.3026 44.6324 17.2173 44.6324 17.1012C44.6324 16.9382 44.5649 16.8286 44.4299 16.7728C44.3542 16.7416 44.2353 16.7261 44.0732 16.7261H43.6162Z" fill="white"/>
</svg>
