<svg width="48" height="48" viewBox="0 0 48 48" fill="none" xmlns="http://www.w3.org/2000/svg">
<rect width="48" height="48" rx="10" fill="#0073B2"/>
<rect x="5.08441" y="7.13989" width="37.9531" height="36.5925" fill="white"/>
<path d="M40.0599 38.7584H33.6333V28.8422C33.6333 26.4775 33.5904 23.4335 30.2907 23.4335C26.9435 23.4335 26.4314 26.0099 26.4314 28.67V38.7578H20.0047V18.3659H26.1743V21.1527H26.2607C26.8781 20.1125 27.7703 19.2568 28.8423 18.6768C29.9142 18.0967 31.1258 17.814 32.3479 17.8587C38.8616 17.8587 40.0626 22.08 40.0626 27.5718L40.0599 38.7584ZM12.7533 15.5785C12.0156 15.5786 11.2945 15.3632 10.6811 14.9596C10.0678 14.5559 9.58967 13.9821 9.30727 13.3107C9.02487 12.6393 8.95086 11.9005 9.09463 11.1877C9.23841 10.4749 9.5935 9.82005 10.115 9.30606C10.6365 8.79207 11.3009 8.44199 12.0244 8.30007C12.7478 8.15816 13.4977 8.2308 14.1792 8.5088C14.8607 8.7868 15.4432 9.25767 15.8532 9.86188C16.2631 10.4661 16.4819 11.1765 16.4821 11.9033C16.4822 12.3858 16.3858 12.8636 16.1984 13.3095C16.0111 13.7553 15.7365 14.1605 15.3902 14.5018C15.044 14.843 14.6329 15.1138 14.1804 15.2985C13.728 15.4833 13.243 15.5784 12.7533 15.5785ZM15.9666 38.7584H9.53322V18.3659H15.9666V38.7584ZM43.2639 2.3491H6.30383C5.46494 2.33978 4.65657 2.65897 4.05643 3.23656C3.45628 3.81414 3.11345 4.60285 3.10321 5.42938V42.5699C3.1131 43.3968 3.45573 44.1861 4.05585 44.7642C4.65598 45.3424 5.46453 45.6622 6.30383 45.6535H43.2639C44.1049 45.6638 44.9157 45.3449 45.5182 44.7668C46.1207 44.1886 46.4656 43.3984 46.4772 42.5699V5.42675C46.4652 4.59858 46.1201 3.80897 45.5176 3.2314C44.915 2.65383 44.1045 2.33554 43.2639 2.34646" fill="#0073B2"/>
</svg>
