<svg width="48" height="48" viewBox="0 0 48 48" fill="none" xmlns="http://www.w3.org/2000/svg">
<g clip-path="url(#clip0_19443_86417)">
<path d="M24.0078 0C13.9881 0 11.0576 0.0103406 10.488 0.0575999C8.43181 0.228568 7.15231 0.552416 5.75833 1.24661C4.68409 1.78021 3.83685 2.39872 3.0007 3.26575C1.47792 4.84693 0.555014 6.79219 0.220916 9.10452C0.0584934 10.2271 0.0112338 10.456 0.00163679 16.1899C-0.00204598 18.1012 0.00163679 20.6166 0.00163679 23.9906C0.00163679 34.005 0.0127032 36.9332 0.0607062 37.5019C0.22683 39.5033 0.540609 40.7625 1.2051 42.1398C2.47503 44.7763 4.9004 46.7556 7.75772 47.4941C8.74708 47.7489 9.83979 47.8892 11.2426 47.9557C11.837 47.9815 17.8949 48 23.9565 48C30.0182 48 36.0798 47.9926 36.6594 47.9631C38.2837 47.8866 39.2269 47.76 40.2698 47.4904C43.1455 46.7482 45.5266 44.7985 46.8224 42.125C47.4739 40.7809 47.8043 39.4737 47.9539 37.5768C47.9863 37.1633 48 30.5693 48 23.9843C48 17.3981 47.9852 10.8164 47.9527 10.4028C47.8014 8.47529 47.471 7.17919 46.7984 5.80922C46.2465 4.68777 45.6337 3.85027 44.744 2.99398C43.1563 1.47705 41.2145 0.553885 38.9005 0.220077C37.7794 0.0579629 37.5561 0.00995981 31.8193 0H24.0078Z" fill="url(#paint0_radial_19443_86417)"/>
<path d="M24.0078 0C13.9881 0 11.0576 0.0103406 10.488 0.0575999C8.43181 0.228568 7.15231 0.552416 5.75833 1.24661C4.68409 1.78021 3.83685 2.39872 3.0007 3.26575C1.47792 4.84693 0.555014 6.79219 0.220916 9.10452C0.0584934 10.2271 0.0112338 10.456 0.00163679 16.1899C-0.00204598 18.1012 0.00163679 20.6166 0.00163679 23.9906C0.00163679 34.005 0.0127032 36.9332 0.0607062 37.5019C0.22683 39.5033 0.540609 40.7625 1.2051 42.1398C2.47503 44.7763 4.9004 46.7556 7.75772 47.4941C8.74708 47.7489 9.83979 47.8892 11.2426 47.9557C11.837 47.9815 17.8949 48 23.9565 48C30.0182 48 36.0798 47.9926 36.6594 47.9631C38.2837 47.8866 39.2269 47.76 40.2698 47.4904C43.1455 46.7482 45.5266 44.7985 46.8224 42.125C47.4739 40.7809 47.8043 39.4737 47.9539 37.5768C47.9863 37.1633 48 30.5693 48 23.9843C48 17.3981 47.9852 10.8164 47.9527 10.4028C47.8014 8.47529 47.471 7.17919 46.7984 5.80922C46.2465 4.68777 45.6337 3.85027 44.744 2.99398C43.1563 1.47705 41.2145 0.553885 38.9005 0.220077C37.7794 0.0579629 37.5561 0.00995981 31.8193 0H24.0078Z" fill="url(#paint1_radial_19443_86417)"/>
<path d="M24.0078 0C13.9881 0 11.0576 0.0103406 10.488 0.0575999C8.43181 0.228568 7.15231 0.552416 5.75833 1.24661C4.68409 1.78021 3.83685 2.39872 3.0007 3.26575C1.47792 4.84693 0.555014 6.79219 0.220916 9.10452C0.0584934 10.2271 0.0112338 10.456 0.00163679 16.1899C-0.00204598 18.1012 0.00163679 20.6166 0.00163679 23.9906C0.00163679 34.005 0.0127032 36.9332 0.0607062 37.5019C0.22683 39.5033 0.540609 40.7625 1.2051 42.1398C2.47503 44.7763 4.9004 46.7556 7.75772 47.4941C8.74708 47.7489 9.83979 47.8892 11.2426 47.9557C11.837 47.9815 17.8949 48 23.9565 48C30.0182 48 36.0798 47.9926 36.6594 47.9631C38.2837 47.8866 39.2269 47.76 40.2698 47.4904C43.1455 46.7482 45.5266 44.7985 46.8224 42.125C47.4739 40.7809 47.8043 39.4737 47.9539 37.5768C47.9863 37.1633 48 30.5693 48 23.9843C48 17.3981 47.9852 10.8164 47.9527 10.4028C47.8014 8.47529 47.471 7.17919 46.7984 5.80922C46.2465 4.68777 45.6337 3.85027 44.744 2.99398C43.1563 1.47705 41.2145 0.553885 38.9005 0.220077C37.7794 0.0579629 37.5561 0.00995981 31.8193 0H24.0078Z" fill="url(#paint2_radial_19443_86417)"/>
<path d="M24.0078 0C13.9881 0 11.0576 0.0103406 10.488 0.0575999C8.43181 0.228568 7.15231 0.552416 5.75833 1.24661C4.68409 1.78021 3.83685 2.39872 3.0007 3.26575C1.47792 4.84693 0.555014 6.79219 0.220916 9.10452C0.0584934 10.2271 0.0112338 10.456 0.00163679 16.1899C-0.00204598 18.1012 0.00163679 20.6166 0.00163679 23.9906C0.00163679 34.005 0.0127032 36.9332 0.0607062 37.5019C0.22683 39.5033 0.540609 40.7625 1.2051 42.1398C2.47503 44.7763 4.9004 46.7556 7.75772 47.4941C8.74708 47.7489 9.83979 47.8892 11.2426 47.9557C11.837 47.9815 17.8949 48 23.9565 48C30.0182 48 36.0798 47.9926 36.6594 47.9631C38.2837 47.8866 39.2269 47.76 40.2698 47.4904C43.1455 46.7482 45.5266 44.7985 46.8224 42.125C47.4739 40.7809 47.8043 39.4737 47.9539 37.5768C47.9863 37.1633 48 30.5693 48 23.9843C48 17.3981 47.9852 10.8164 47.9527 10.4028C47.8014 8.47529 47.471 7.17919 46.7984 5.80922C46.2465 4.68777 45.6337 3.85027 44.744 2.99398C43.1563 1.47705 41.2145 0.553885 38.9005 0.220077C37.7794 0.0579629 37.5561 0.00995981 31.8193 0H24.0078Z" fill="url(#paint3_radial_19443_86417)"/>
<path d="M24.0097 6.16333C19.1629 6.16333 18.5546 6.1845 16.6509 6.27107C14.751 6.35801 13.4541 6.65858 12.3194 7.09961C11.1456 7.55509 10.1499 8.1644 9.1579 9.15601C8.16518 10.1473 7.5554 11.1422 7.09808 12.3148C6.65563 13.4491 6.35445 14.7453 6.26895 16.6431C6.18381 18.5454 6.1615 19.1536 6.1615 23.9968C6.1615 28.8401 6.18307 29.4461 6.26932 31.3483C6.3567 33.2469 6.65749 34.5428 7.09845 35.6767C7.55466 36.8496 8.16442 37.8446 9.15677 38.8358C10.1484 39.8278 11.1441 40.4386 12.3171 40.8941C13.4526 41.3351 14.7499 41.6357 16.6494 41.7226C18.5531 41.8092 19.161 41.8303 24.0075 41.8303C28.8548 41.8303 29.4612 41.8092 31.3648 41.7226C33.2648 41.6357 34.5631 41.3351 35.6986 40.8941C36.872 40.4386 37.8663 39.8278 38.8579 38.8358C39.8506 37.8446 40.4604 36.8496 40.9177 35.6771C41.3564 34.5428 41.6576 33.2465 41.7468 31.3487C41.8323 29.4465 41.8546 28.8401 41.8546 23.9968C41.8546 19.1535 41.8323 18.5457 41.7468 16.6435C41.6576 14.745 41.3564 13.4491 40.9177 12.3152C40.4604 11.1422 39.8506 10.1473 38.8579 9.15601C37.8651 8.16402 36.8724 7.55471 35.6975 7.09959C34.5598 6.65858 33.2622 6.35801 31.3622 6.27107C29.4586 6.1845 28.8525 6.16333 24.0042 6.16333H24.0097ZM22.4087 9.37708C22.8839 9.37634 23.4141 9.37708 24.0097 9.37708C28.7748 9.37708 29.3396 9.39417 31.2213 9.47962C32.9614 9.55914 33.9058 9.84966 34.5349 10.0938C35.3677 10.417 35.9615 10.8034 36.5858 11.4276C37.2104 12.0517 37.5971 12.6462 37.9213 13.4784C38.1656 14.1063 38.4567 15.05 38.5359 16.7888C38.6214 18.6687 38.64 19.2334 38.64 23.9928C38.64 28.7521 38.6214 29.3168 38.5359 31.1967C38.4563 32.9355 38.1656 33.8792 37.9213 34.5071C37.5978 35.3393 37.2104 35.9319 36.5858 36.5557C35.9611 37.1799 35.3681 37.5663 34.5349 37.8895C33.9065 38.1347 32.9614 38.4245 31.2213 38.504C29.34 38.5895 28.7748 38.608 24.0097 38.608C19.2443 38.608 18.6795 38.5895 16.7982 38.504C15.0581 38.4238 14.1137 38.1332 13.4842 37.8891C12.6514 37.5659 12.0565 37.1795 11.4319 36.5553C10.8072 35.9312 10.4206 35.3382 10.0963 34.5056C9.85205 33.8777 9.56093 32.934 9.48174 31.1953C9.39622 29.3153 9.37912 28.7506 9.37912 23.9883C9.37912 19.226 9.39622 18.6642 9.48174 16.7843C9.56131 15.0455 9.85205 14.1018 10.0963 13.4732C10.4198 12.641 10.8072 12.0465 11.4319 11.4224C12.0565 10.7982 12.6514 10.4118 13.4842 10.0878C14.1133 9.8426 15.0581 9.55282 16.7982 9.47293C18.4445 9.39862 19.0825 9.37634 22.4087 9.3726L22.4087 9.37708ZM33.5362 12.3382C32.3538 12.3382 31.3946 13.2956 31.3946 14.4775C31.3946 15.6589 32.3538 16.6175 33.5362 16.6175C34.7185 16.6175 35.6778 15.6589 35.6778 14.4775C35.6778 13.296 34.7185 12.3375 33.5362 12.3375L33.5362 12.3382ZM24.0097 14.8386C18.9483 14.8386 14.8447 18.9392 14.8447 23.9968C14.8447 29.0545 18.9483 33.1532 24.0097 33.1532C29.0712 33.1532 33.1733 29.0545 33.1733 23.9968C33.1733 18.9392 29.0708 14.8386 24.0094 14.8386H24.0097ZM24.0097 18.0523C27.295 18.0523 29.9587 20.7136 29.9587 23.9968C29.9587 27.2797 27.295 29.9413 24.0097 29.9413C20.7241 29.9413 18.0608 27.2797 18.0608 23.9968C18.0608 20.7136 20.7241 18.0523 24.0097 18.0523Z" fill="white"/>
</g>
<defs>
<radialGradient id="paint0_radial_19443_86417" cx="0" cy="0" r="1" gradientUnits="userSpaceOnUse" gradientTransform="translate(46.4501 22.4982) rotate(164.25) scale(30.6693 22.0957)">
<stop stop-color="#FF005F"/>
<stop offset="1" stop-color="#FC01D8"/>
</radialGradient>
<radialGradient id="paint1_radial_19443_86417" cx="0" cy="0" r="1" gradientUnits="userSpaceOnUse" gradientTransform="translate(12.7496 51.697) rotate(-90) scale(38.3145 40.6509)">
<stop stop-color="#FFCC00"/>
<stop offset="0.1242" stop-color="#FFCC00"/>
<stop offset="0.5672" stop-color="#FE4A05"/>
<stop offset="0.6942" stop-color="#FF0F3F"/>
<stop offset="1" stop-color="#FE0657" stop-opacity="0"/>
</radialGradient>
<radialGradient id="paint2_radial_19443_86417" cx="0" cy="0" r="1" gradientUnits="userSpaceOnUse" gradientTransform="translate(25.2129 47.3231) rotate(-59.8703) scale(15.8434 20.6263)">
<stop stop-color="#FFCC00"/>
<stop offset="1" stop-color="#FFCC00" stop-opacity="0"/>
</radialGradient>
<radialGradient id="paint3_radial_19443_86417" cx="0" cy="0" r="1" gradientUnits="userSpaceOnUse" gradientTransform="translate(6.51257 1.95455) rotate(164.274) scale(30.3291 10.3331)">
<stop stop-color="#780CFF"/>
<stop offset="1" stop-color="#820BFF" stop-opacity="0"/>
</radialGradient>
<clipPath id="clip0_19443_86417">
<rect width="48" height="48" rx="10" fill="white"/>
</clipPath>
</defs>
</svg>
