<svg width="48" height="48" viewBox="0 0 48 48" fill="none" xmlns="http://www.w3.org/2000/svg">
<path d="M46.9969 12.3716C46.4449 10.2929 44.8186 8.656 42.7533 8.10046C39.0101 7.09082 24 7.09082 24 7.09082C24 7.09082 8.98999 7.09082 5.2467 8.10046C3.18153 8.656 1.55497 10.2929 1.00302 12.3716C0 16.1392 0 23.9999 0 23.9999C0 23.9999 0 31.8605 1.00302 35.6284C1.55497 37.7069 3.18153 39.3438 5.2467 39.8996C8.98999 40.909 24 40.909 24 40.909C24 40.909 39.0101 40.909 42.7533 39.8996C44.8186 39.3438 46.4449 37.7069 46.9969 35.6284C48 31.8605 48 23.9999 48 23.9999C48 23.9999 48 16.1392 46.9969 12.3716Z" fill="#ED1D24"/>
<path d="M19.0909 31.1368L31.6364 24.0002L19.0909 16.863V31.1368Z" fill="white"/>
</svg>
