<svg width="48" height="48" viewBox="0 0 48 48" fill="none" xmlns="http://www.w3.org/2000/svg">
<rect width="48" height="48" rx="24" fill="url(#paint0_linear_19443_86429)"/>
<path fill-rule="evenodd" clip-rule="evenodd" d="M11.0466 22.486C18.1051 19.3908 22.8233 17.3903 25.1635 16.4089C31.8823 13.6157 33.2789 13.125 34.1848 13.125C34.3735 13.125 34.8265 13.1627 35.1284 13.3892C35.3549 13.578 35.4304 13.8422 35.4682 14.0309C35.5059 14.2196 35.5437 14.6348 35.5059 14.9745C35.1284 18.7869 33.5809 28.1101 32.7505 32.3754C32.4107 34.1872 31.7313 34.7911 31.0896 34.8666C29.693 34.9798 28.5984 33.923 27.2396 33.0548C25.1258 31.6582 23.9179 30.7901 21.8419 29.4312C19.4639 27.8459 21.0115 26.9777 22.3704 25.5811C22.7101 25.2037 28.9381 19.5795 29.0514 19.0511C29.0514 18.9756 29.0891 18.7491 28.9381 18.6359C28.7871 18.5227 28.5984 18.5604 28.4474 18.5981C28.221 18.6359 24.8238 20.9006 18.2183 25.3547C17.2369 26.0341 16.3688 26.336 15.5761 26.336C14.708 26.336 13.0471 25.8453 11.8015 25.4301C10.2917 24.9394 9.08382 24.6752 9.19706 23.8448C9.3103 23.3919 9.91423 22.9389 11.0466 22.486Z" fill="white"/>
<defs>
<linearGradient id="paint0_linear_19443_86429" x1="0.0355888" y1="23.9826" x2="48.0009" y2="23.9826" gradientUnits="userSpaceOnUse">
<stop stop-color="#2AABEE"/>
<stop offset="1" stop-color="#229ED9"/>
</linearGradient>
</defs>
</svg>
