<svg width="48" height="48" viewBox="0 0 48 48" fill="none" xmlns="http://www.w3.org/2000/svg">
<rect width="48" height="48" rx="10" fill="#F1641E"/>
<path d="M20.0483 12.9043V23.5279C20.0483 23.5279 23.6012 23.5279 25.4864 23.3751C27.0091 23.0693 27.2266 22.9165 27.5166 21.3879L28.0967 19.095H29.6918L29.4018 24.0629L29.5468 29.2601H27.9517L27.5166 27.2729C27.0816 25.8208 26.574 25.5151 25.4864 25.4386C24.1088 25.2858 20.0483 25.2858 20.0483 25.2858V34.228C20.0483 35.9094 20.8459 36.6737 22.8036 36.6737H28.5317C30.2719 36.6737 32.0846 36.5208 33.1722 33.7694L34.6224 30.3301H36C35.855 31.0179 35.2024 37.3615 35.0574 38.8137C35.0574 38.8137 29.9094 38.6608 27.7341 38.6608H17.8731H12V37.1323L13.8852 36.6737C15.2628 36.368 15.6979 35.9858 15.6979 34.8394C15.6979 34.8394 15.8429 30.9415 15.8429 24.5215C15.8429 18.1015 15.6979 14.2036 15.6979 14.2036C15.6979 12.9043 15.2628 12.5986 13.8852 12.3693L12 11.8343V10.3057L17.7281 10.4586H28.6042C30.7795 10.3821 34.4773 10 34.4773 10C34.4773 10 34.3323 12.4457 34.1873 18.1779H32.6647L32.0846 16.1907C31.577 13.5922 30.7795 12.2929 29.2568 12.2929H20.7009C20.0483 12.2929 20.0483 12.4457 20.0483 12.9043Z" fill="white"/>
</svg>
