<svg width="48" height="48" viewBox="0 0 48 48" fill="none" xmlns="http://www.w3.org/2000/svg">
<rect width="48" height="48" rx="10" fill="white"/>
<path fill-rule="evenodd" clip-rule="evenodd" d="M26.8029 19.1361V17.2997C26.8029 16.1847 25.7777 14.9437 24.1477 14.9437C22.5176 14.9437 21.5536 15.83 21.2644 16.3583C21.1394 16.5866 21.0574 16.8417 20.9842 17.0697C20.8879 17.3693 20.8067 17.6221 20.6627 17.7061C20.6062 17.739 20.5746 17.7692 20.5477 17.7949C20.4535 17.8849 20.4164 17.9204 19.5747 17.8267C19.2419 17.7896 18.8883 17.7479 18.5425 17.707C17.7635 17.6151 17.0238 17.5277 16.649 17.5088C16.1078 17.4813 15.7694 17.2018 15.9498 16.4947C16.1302 15.7876 16.9912 12.9462 19.9252 11.8668C22.8592 10.7874 26.7448 10.7362 28.9034 11.807C31.062 12.8779 32.3208 14.1049 32.3208 18.1916V25.6872C32.3208 26.7762 33.014 27.6088 33.4296 28.1081C33.5351 28.2347 33.6227 28.3399 33.6766 28.4224C33.9428 28.8301 34.1091 29.2313 33.7165 29.5613C33.3238 29.8913 31.0678 31.7418 30.7151 31.9812C30.3624 32.2206 29.9498 32.2595 29.5172 31.8518C29.4395 31.7785 29.354 31.7 29.2642 31.6176C28.8544 31.2413 28.3551 30.7829 28.0931 30.3636C28.0427 30.2831 27.9957 30.2061 27.9518 30.1341C27.7167 29.7492 27.5695 29.5081 27.4742 29.6389C27.361 29.7942 25.4617 31.7796 23.0876 32.151C20.7134 32.5223 17.7774 32.4891 16.0725 29.7873C14.4751 27.2559 15.3967 23.8222 16.5941 22.3268C17.7915 20.8314 20.4037 19.8263 22.8501 19.5754C24.8073 19.3747 26.3008 19.1989 26.8029 19.1361ZM26.7872 22.1289V24.2051C26.7872 25.867 25.7406 28.5201 23.4079 28.5201C21.0752 28.5201 20.5752 26.0569 21.0841 24.6892C21.5931 23.3215 22.5611 22.5963 24.4615 22.2765C25.741 22.0613 26.426 22.1065 26.6895 22.1239C26.7336 22.1268 26.7659 22.1289 26.7872 22.1289Z" fill="#2C2E30"/>
<path d="M7.38832 32.5015C6.76427 32.1768 6.62845 32.1776 6.48934 32.4211C6.35024 32.6646 7.01539 33.1202 8.14237 33.9779C9.48539 35 14.2921 38.7201 22.9812 39.0571C30.8525 39.3623 36.6121 35.942 37.5629 35.3773L37.5743 35.3705C38.4894 34.8272 38.4824 34.4875 38.4196 34.3109C38.3567 34.1344 38.0936 33.8661 37.1774 34.2539C36.2612 34.6416 31.1326 36.9789 22.7109 36.6247C14.2892 36.2705 8.0886 32.8659 7.38832 32.5015Z" fill="#F8A61B"/>
<path d="M36.4806 32.018C34.8813 32.5077 34.9566 32.9099 35.0305 33.0246C35.1043 33.1393 35.3127 33.1388 35.4899 33.1126C35.7115 33.0798 37.9071 32.8001 38.9281 32.8797C39.9492 32.9594 40.0022 33.4885 39.8432 34.2565C39.6843 35.0245 39.3134 36.0267 39.0389 36.7525C38.7644 37.4784 38.6151 37.6704 38.88 37.7312C39.1449 37.7921 40.1033 36.8836 40.6283 35.9189C41.1533 34.9543 41.5483 33.4202 41.5282 32.7387C41.5081 32.0572 41.4073 31.9708 40.7386 31.7828C40.0699 31.5948 38.0799 31.5283 36.4806 32.018Z" fill="#F8A61B"/>
</svg>
