<svg width="48" height="48" viewBox="0 0 48 48" fill="none" xmlns="http://www.w3.org/2000/svg">
<g clip-path="url(#clip0_19443_86437)">
<circle cx="24" cy="24" r="24" fill="white"/>
<path d="M23.9585 0C11.351 0 1.02271 9.7212 0.0412598 22.0753L12.9048 27.3938C13.9948 26.6484 15.3115 26.2117 16.7281 26.2117C16.8551 26.2117 16.9815 26.216 17.1068 26.2231L22.8273 17.9314C22.8273 17.8918 22.8268 17.8533 22.8268 17.8142C22.8268 12.8234 26.8866 8.76308 31.878 8.76308C36.8688 8.76308 40.9286 12.8234 40.9286 17.8142C40.9286 22.8051 36.8688 26.866 31.878 26.866C31.8091 26.866 31.7407 26.8643 31.6723 26.8627L23.5136 32.6841C23.518 32.7899 23.5218 32.8979 23.5218 33.0053C23.5218 36.7521 20.4743 39.799 16.7281 39.799C13.4398 39.799 10.6902 37.452 10.0674 34.3438L0.868088 30.5406C3.71641 40.6144 12.9716 48 23.9585 48C37.2138 48 47.9588 37.2545 47.9588 24.0008C47.9588 10.745 37.2133 0 23.9585 0Z" fill="url(#paint0_linear_19443_86437)"/>
<path d="M15.081 36.4161L12.1328 35.1981C12.6553 36.2859 13.5591 37.1968 14.7592 37.6971C17.3537 38.7778 20.3447 37.5468 21.426 34.9502C21.9495 33.6948 21.9528 32.3086 21.4335 31.0499C20.9154 29.7907 19.9378 28.8087 18.6807 28.2846C17.4334 27.7654 16.0971 27.7843 14.9231 28.2276L17.9684 29.4868C19.8819 30.2844 20.7868 32.4816 19.9893 34.3952C19.1934 36.3093 16.9945 37.2142 15.081 36.4161Z" fill="url(#paint1_linear_19443_86437)"/>
<path d="M37.9083 17.8141C37.9083 14.4888 35.2032 11.7832 31.8774 11.7832C28.5522 11.7832 25.8466 14.4888 25.8466 17.8141C25.8466 21.1398 28.5522 23.8444 31.8774 23.8444C35.2032 23.8438 37.9083 21.1393 37.9083 17.8141ZM27.357 17.8038C27.357 15.3016 29.3855 13.2736 31.8877 13.2736C34.3899 13.2736 36.4185 15.3016 36.4185 17.8038C36.4185 20.3059 34.3899 22.3339 31.8877 22.3339C29.3855 22.3339 27.357 20.3054 27.357 17.8038Z" fill="url(#paint2_linear_19443_86437)"/>
</g>
<defs>
<linearGradient id="paint0_linear_19443_86437" x1="31.9807" y1="11.7279" x2="31.9807" y2="23.7323" gradientUnits="userSpaceOnUse">
<stop stop-color="#161D30"/>
<stop offset="1" stop-color="#2074A2"/>
</linearGradient>
<linearGradient id="paint1_linear_19443_86437" x1="18.5903" y1="30.3857" x2="18.5903" y2="32.9352" gradientUnits="userSpaceOnUse">
<stop stop-color="#161D30"/>
<stop offset="1" stop-color="#2074A2"/>
</linearGradient>
<linearGradient id="paint2_linear_19443_86437" x1="33.8863" y1="14.7301" x2="33.8863" y2="17.7465" gradientUnits="userSpaceOnUse">
<stop stop-color="#161D30"/>
<stop offset="1" stop-color="#2074A2"/>
</linearGradient>
<clipPath id="clip0_19443_86437">
<rect width="48" height="48" rx="4" fill="white"/>
</clipPath>
</defs>
</svg>
