<svg width="48" height="48" viewBox="0 0 48 48" fill="none" xmlns="http://www.w3.org/2000/svg">
<rect width="48" height="48" rx="10" fill="#E00095"/>
<path d="M29.4615 10.9219C30.6892 10.9219 32.1087 11.2274 33.0953 11.9756L33.7906 12.5029L33.6754 13.3691L32.6764 20.8555C33.0873 20.3649 33.4528 19.9669 33.7955 19.6514C34.3821 19.1114 34.972 18.7326 35.6617 18.5186C36.3174 18.3152 36.9598 18.2969 37.5387 18.2969C38.7892 18.2969 39.9617 18.4609 40.8463 19.0518C41.8779 19.7408 42.2233 20.7899 42.2233 21.8105C42.2232 22.9445 41.8649 23.8391 41.2213 24.543L40.7369 25.0723L40.0211 25.0273C39.5127 24.9956 39.007 24.9951 38.5455 24.9951C38.5144 24.9951 38.4915 24.9964 38.4752 24.9971C38.4511 25.0133 38.4089 25.0425 38.3483 25.0957C38.0695 25.34 37.6395 25.8321 36.8844 26.834L38.8395 30.3574C38.8677 30.3551 38.8965 30.3544 38.9254 30.3516C39.1172 30.3326 39.2834 30.3048 39.402 30.2734L40.0865 30.0928L40.6617 30.5059C41.61 31.1878 41.8131 32.3033 41.8131 33.001L41.8043 33.2627C41.7644 33.8716 41.5819 34.4541 41.2321 34.9727C40.839 35.5551 40.294 35.9694 39.7018 36.2598C38.5608 36.8192 37.0653 37.0068 35.443 37.0068C34.5255 37.0068 33.6308 36.8394 32.8463 36.1865C32.1593 35.6146 31.7161 34.7873 31.3219 33.9531V33.9541L30.9948 33.2871L30.7135 35.4014L30.5963 36.2832L29.7653 36.6025C29.2161 36.8137 28.5833 36.9043 28.066 36.9502C27.5242 36.9983 26.9846 37.0068 26.5699 37.0068C25.5896 37.0068 24.5571 36.8143 23.7692 36.1201C23.0608 35.4959 22.7706 34.6649 22.7008 33.834C22.5922 33.9531 22.4813 34.0708 22.3658 34.1846C20.4105 36.1098 17.6367 37.078 14.3483 37.0781C12.0303 37.0781 9.85056 36.5727 8.23694 35.1865C6.58093 33.7638 5.77706 31.638 5.77698 28.9639C5.77698 25.8919 6.71675 23.1756 8.60901 21.2197C10.5084 19.2566 13.2169 18.2149 16.443 18.2148C19.3815 18.2148 21.6732 18.946 23.2145 20.5088C23.5813 20.8808 23.8893 21.2859 24.1481 21.7158L25.0123 15.1406C25.1738 13.8926 25.4991 12.7073 26.3717 11.8975C27.2749 11.0592 28.4377 10.9219 29.4615 10.9219ZM16.3151 25.1484C15.7102 25.1484 15.2436 25.4091 14.8658 25.9863C14.4535 26.6166 14.1617 27.631 14.1617 28.9639C14.1618 29.9804 14.3303 30.3517 14.4176 30.4658C14.4275 30.4794 14.5225 30.6484 15.2028 30.6484C15.7478 30.6484 16.2437 30.4155 16.6481 29.8682C17.0749 29.2905 17.4254 28.3107 17.4254 26.8682C17.4254 25.8614 17.2641 25.4801 17.1686 25.3535C17.1537 25.3337 17.0471 25.1485 16.3151 25.1484Z" fill="#0000BF" stroke="white" stroke-width="3"/>
</svg>
