<svg width="48" height="48" viewBox="0 0 48 48" fill="none" xmlns="http://www.w3.org/2000/svg">
<rect width="48" height="48" rx="10" fill="url(#paint0_linear_19533_73220)"/>
<path d="M24.0081 39.597C23.7456 39.5988 23.4872 39.5316 23.2587 39.4022C21.3029 38.2706 6.81722 29.1881 6.27017 28.9108C5.85385 28.7165 5.56956 28.3185 5.52079 27.8616V15.1221C5.51001 14.6466 5.7451 14.1991 6.14277 13.9381L6.24769 13.8781C7.64904 13.0088 12.3402 10.1462 13.0821 9.73403C13.2523 9.633 13.4462 9.57872 13.6441 9.57666C13.8297 9.57876 14.012 9.625 14.1762 9.71155C14.1762 9.71155 20.7408 13.9905 21.745 14.3727C22.4495 14.6964 23.2178 14.8578 23.9931 14.8448C24.8716 14.8632 25.7397 14.6514 26.511 14.2303C27.4927 13.7133 33.7651 9.73403 33.8325 9.73403C33.9907 9.63852 34.1724 9.58919 34.3571 9.59165C34.5552 9.59262 34.7493 9.64698 34.9191 9.74902C35.7735 10.2211 41.5887 13.7807 41.836 13.9381C42.245 14.1848 42.4929 14.6295 42.4879 15.1071V27.8467C42.4421 28.3046 42.1569 28.7039 41.7386 28.8958C41.1915 29.1955 26.7509 38.2781 24.7575 39.3872C24.5305 39.5219 24.272 39.5943 24.0081 39.597Z" fill="url(#paint1_linear_19533_73220)"/>
<path d="M23.9332 39.5971L24.0081 39.597C24.2706 39.5988 24.5291 39.5316 24.7575 39.4022C26.7134 38.2706 41.1915 29.1881 41.7386 28.9108C42.1569 28.7189 42.4421 28.3196 42.4879 27.8616V15.1221C42.4903 14.9064 42.4416 14.6933 42.3455 14.5001L23.9332 24.6093V39.5971Z" fill="url(#paint2_linear_19533_73220)"/>
<path d="M23.8691 39.4174L23.795 39.4174C23.5353 39.4191 23.2796 39.3527 23.0536 39.2246C21.1186 38.1051 6.79469 29.1193 6.25345 28.845C5.83961 28.6551 5.55746 28.2601 5.51208 27.807V15.2032C5.50969 14.9898 5.55795 14.7789 5.65294 14.5878L23.8691 24.5893V39.4174Z" fill="url(#paint3_linear_19533_73220)"/>
<path d="M13.0319 15.8934H11.167V28.4548H16.8539V26.6188H13.0319V15.8934Z" fill="white"/>
<path fill-rule="evenodd" clip-rule="evenodd" d="M25.4073 19.2615H27.3428V28.4458H25.4073V27.4661C25.4073 27.0943 25.1709 27.2328 24.8647 27.5755C24.5585 27.9182 23.618 28.7274 22.3932 28.7274C21.1684 28.7274 17.7915 27.5969 17.7915 24.1257C17.7915 20.6546 20.2778 19.0131 22.2121 19.0131C24.078 19.0131 24.8623 20.1442 24.9951 20.3357C25 20.3427 25.004 20.3485 25.0071 20.3529C25.0958 20.4771 25.4073 20.6481 25.4073 20.2436V19.2615ZM22.6775 20.7728C24.6924 20.7728 25.624 22.273 25.624 23.9629C25.624 25.3278 24.6851 26.9167 22.6775 26.9167C20.6698 26.9167 19.6009 25.4217 19.6009 23.7751C19.6009 22.4579 20.6626 20.7728 22.6775 20.7728Z" fill="white"/>
<path d="M29.303 20.9593V19.2569H36.7102V20.7465L31.6848 26.8278H36.833V28.4893H29.0902V26.9506L34.263 20.9593H29.303Z" fill="white"/>
<defs>
<linearGradient id="paint0_linear_19533_73220" x1="24" y1="0" x2="24" y2="48" gradientUnits="userSpaceOnUse">
<stop stop-color="#0000BE"/>
<stop offset="1" stop-color="#0E136F"/>
</linearGradient>
<linearGradient id="paint1_linear_19533_73220" x1="5.48953" y1="9.85099" x2="42.1256" y2="9.56716" gradientUnits="userSpaceOnUse">
<stop offset="1e-07" stop-color="#FF9200"/>
<stop offset="0.337553" stop-color="#F36D00"/>
<stop offset="0.56729" stop-color="#F83C72"/>
<stop offset="0.78" stop-color="#FC1CBE"/>
<stop offset="0.93" stop-color="#FE08ED"/>
<stop offset="1" stop-color="#FF00FF"/>
</linearGradient>
<linearGradient id="paint2_linear_19533_73220" x1="-10.7202" y1="35.8496" x2="41.8131" y2="-12.6088" gradientUnits="userSpaceOnUse">
<stop stop-color="#EE0A3F"/>
<stop offset="1" stop-color="#EE0A3F" stop-opacity="0"/>
</linearGradient>
<linearGradient id="paint3_linear_19533_73220" x1="19.4219" y1="31.0757" x2="1.37662" y2="16.5392" gradientUnits="userSpaceOnUse">
<stop stop-color="#ED6600"/>
<stop offset="1" stop-color="#F98200"/>
</linearGradient>
</defs>
</svg>
