<svg width="48" height="48" viewBox="0 0 48 48" fill="none" xmlns="http://www.w3.org/2000/svg">
<rect width="48" height="48" rx="10" fill="white"/>
<path d="M28.6802 24.4275C27.0822 24.4799 26.0893 24.7683 26.0893 25.8209C26.0893 26.5023 26.6325 27.2411 28.0117 27.2411C29.8608 27.2411 30.8479 26.2331 30.8479 24.58L30.848 24.3982C30.1997 24.3982 29.4002 24.4039 28.6802 24.4275ZM32.6104 26.6116C32.6104 27.1245 32.6253 27.6307 32.67 28.0866H31.0306C30.9869 27.7112 30.9709 27.3382 30.9709 26.9764C30.0846 28.066 29.0304 28.3792 27.5679 28.3792C25.3988 28.3792 24.2374 27.2327 24.2374 25.9065C24.2374 23.9859 25.817 23.3087 28.5593 23.2459C29.3092 23.2287 30.1516 23.2262 30.848 23.2262L30.8479 23.0385C30.8479 21.7527 30.0234 21.224 28.5946 21.224C27.534 21.224 26.7523 21.663 26.6717 22.4214H24.82C25.016 20.5303 27.0028 20.0521 28.7498 20.0521C30.8427 20.0521 32.6104 20.7967 32.6104 23.0103L32.6104 26.6116Z" fill="#FFBC13"/>
<path d="M13.4365 23.4896C13.3681 21.841 12.1781 21.224 10.9063 21.224C9.53494 21.224 8.44003 21.918 8.24824 23.4896H13.4365ZM8.21024 24.6616C8.30535 26.2613 9.40845 27.2073 10.9252 27.2073C11.9761 27.2073 12.9109 26.7792 13.2239 25.8477H15.0415C14.688 27.7377 12.6798 28.3792 10.9513 28.3792C7.80833 28.3792 6.41541 26.6483 6.41541 24.314C6.41541 21.7444 7.85613 20.0521 10.9799 20.0521C13.4664 20.0521 15.2882 21.3533 15.2882 24.1934V24.6616H8.21024Z" fill="#F12C2D"/>
<path d="M19.8089 27.1739C21.4469 27.1739 22.5676 25.9949 22.5676 24.2158C22.5676 22.4369 21.4469 21.2578 19.8089 21.2578C18.1802 21.2578 17.0501 22.4369 17.0501 24.2158C17.0501 25.9949 18.1802 27.1739 19.8089 27.1739ZM15.2881 16.9529H17.0501L17.05 21.3799C17.9136 20.3508 19.1035 20.0521 20.2746 20.0521C22.2383 20.0521 24.4193 21.3771 24.4193 24.2382C24.4193 26.634 22.6848 28.3792 20.2419 28.3792C18.9633 28.3792 17.7597 27.9205 17.0174 27.0117C17.0174 27.3747 16.9971 27.7405 16.9574 28.0866H15.2281C15.2582 27.5271 15.2881 26.8304 15.2881 26.2667L15.2881 16.9529Z" fill="#0968F6"/>
<path d="M41.5846 20.3452L36.1353 31.047H34.1621L35.7288 28.0753L31.6278 20.3452H33.6897L36.7074 26.3848L39.7165 20.3452H41.5846Z" fill="#93C822"/>
</svg>
