<svg width="48" height="48" viewBox="0 0 48 48" fill="none" xmlns="http://www.w3.org/2000/svg">
<rect width="48" height="48" rx="10" fill="#E52E04"/>
<path d="M15.9454 34.9884V29.6182H19.1199V30.2938H16.6037V31.9438H18.8644V32.6194H16.6037V34.3041H19.2975V34.9797H15.9454V34.9884Z" fill="white"/>
<path d="M22.6323 34.9883L21.541 33.5592L20.4496 34.9883H19.6787L21.1685 33.0784L19.5964 31.1079H20.4626L21.5366 32.5847L22.628 31.1079H23.4769L21.987 33.0784L23.3989 34.9883H22.6323Z" fill="white"/>
<path d="M24.4598 34.4124V37.0585H23.8015V33.0958C23.8015 32.0867 24.5724 31.0127 25.772 31.0127C26.989 31.0127 27.9071 31.7836 27.9071 33.0482C27.9071 34.2825 26.976 35.1313 25.9193 35.1313C25.4082 35.1313 24.7153 34.9104 24.4598 34.4124ZM27.2185 33.0482C27.2185 32.182 26.6555 31.671 25.6638 31.7186C25.183 31.7359 24.4468 32.0867 24.5074 33.321C24.5248 33.7238 24.9405 34.4774 25.8543 34.4774C26.6425 34.4774 27.2185 34.0269 27.2185 33.0482Z" fill="white"/>
<path d="M28.4702 34.9881V31.1077H29.1285V31.5234C29.449 31.1553 29.947 31.0254 30.4754 31.0254V31.7313C30.3931 31.714 29.6092 31.6187 29.1285 32.6451V35.0011H28.4702V34.9881Z" fill="white"/>
<path d="M30.653 33.0482C30.653 31.9265 31.4542 31.0127 32.5628 31.0127C33.94 31.0127 34.4554 31.9265 34.4554 33.0958V33.4163H31.3762C31.4238 34.1525 32.0821 34.538 32.6928 34.525C33.1432 34.5077 33.4463 34.3821 33.7668 34.0616L34.1999 34.512C33.7971 34.8974 33.2861 35.153 32.6625 35.153C31.4845 35.1313 30.653 34.2651 30.653 33.0482ZM32.5109 31.671C31.8872 31.671 31.4022 32.2167 31.3719 32.81H33.7625C33.7625 32.2297 33.3467 31.671 32.5109 31.671Z" fill="white"/>
<path d="M34.7889 34.4425L35.2697 34.0094C35.2523 34.0094 35.5122 34.2649 35.5425 34.2822C35.6551 34.3775 35.7677 34.4425 35.9106 34.4728C36.3264 34.5854 37.0799 34.5551 37.1449 33.9747C37.1752 33.6542 36.937 33.4767 36.6642 33.3641C36.3134 33.2342 35.9279 33.1865 35.5728 33.0263C35.1701 32.8487 34.9145 32.5456 34.9145 32.0951C34.9145 30.9258 36.5819 30.7309 37.3355 31.2766C37.3658 31.3069 37.7382 31.6447 37.7209 31.6447L37.2402 32.0302C36.9977 31.74 36.7768 31.5971 36.2614 31.5971C36.0059 31.5971 35.6508 31.7097 35.5858 31.9825C35.4905 32.368 35.9236 32.5109 36.2094 32.5932C36.5949 32.6885 37.0107 32.7534 37.3485 32.9613C37.8119 33.2515 37.9245 33.8751 37.7512 34.3558C37.5607 34.8842 36.9803 35.0921 36.4693 35.1094C35.863 35.1484 35.3346 34.9578 34.9015 34.5247C34.8669 34.5247 34.7889 34.4425 34.7889 34.4425Z" fill="white"/>
<path d="M38.1714 34.4425L38.6521 34.0094C38.6348 34.0094 38.8946 34.2649 38.925 34.2822C39.0376 34.3775 39.1502 34.4425 39.2931 34.4728C39.7088 34.5854 40.4624 34.5551 40.5274 33.9747C40.5577 33.6542 40.3195 33.4767 40.0466 33.3641C39.6958 33.2342 39.3104 33.1865 38.9553 33.0263C38.5525 32.8487 38.297 32.5456 38.297 32.0951C38.297 30.9258 39.9643 30.7309 40.7179 31.2766C40.7482 31.3069 41.1207 31.6447 41.1034 31.6447L40.6226 32.0302C40.3801 31.74 40.1592 31.5971 39.6439 31.5971C39.3883 31.5971 39.0332 31.7097 38.9683 31.9825C38.873 32.368 39.3061 32.5109 39.5919 32.5932C39.9773 32.6885 40.3931 32.7534 40.7309 32.9613C41.1943 33.2515 41.3069 33.8751 41.1337 34.3558C40.9431 34.8842 40.3628 35.0921 39.8517 35.1094C39.2411 35.1397 38.7127 34.9492 38.2797 34.5161C38.2537 34.5247 38.1714 34.4425 38.1714 34.4425Z" fill="white"/>
<path d="M11.4847 34.9883L11.004 33.7064H8.40553L7.92481 34.9883H7.23621L9.31933 29.6138H10.0729L12.143 34.9883H11.4847ZM9.67446 30.3847L8.69569 33.0481H10.7312L9.67446 30.3847Z" fill="white"/>
<path d="M12.576 34.9884V29.6182H13.2517V34.9927H12.576V34.9884Z" fill="white"/>
<path d="M14.2609 34.9885V31.186H14.9365V34.9885H14.2609Z" fill="white"/>
<path d="M15.5774 29.9515C15.5774 29.9342 15.5774 29.9342 15.5774 29.9212C15.5774 29.9039 15.5774 29.9039 15.5774 29.8909C15.0664 29.8736 14.6463 29.4578 14.6333 28.9468C14.6159 28.9468 14.603 28.9468 14.5856 28.9468C14.5683 28.9468 14.5553 28.9468 14.538 28.9468C14.5207 29.4578 14.1049 29.8779 13.5939 29.8909C13.5939 29.9082 13.5939 29.9082 13.5939 29.9212C13.5939 29.9385 13.5939 29.9385 13.5939 29.9515C14.1049 29.9689 14.525 30.3846 14.538 30.8956C14.5553 30.8956 14.5683 30.8956 14.5856 30.8956C14.603 30.8956 14.6159 30.8956 14.6333 30.8956C14.6463 30.3846 15.062 29.9689 15.5774 29.9515Z" fill="white"/>
<circle cx="12.143" cy="13.0818" r="2.2" fill="#B9250B"/>
<circle cx="35.7354" cy="13.0818" r="2.2" fill="#B9250B"/>
<path d="M12.2646 13.0757C12.2646 15.4467 14.4591 24.478 24.1165 24.478C33.7738 24.478 35.7354 15.1004 35.7354 13.0757" stroke="white" stroke-width="2" stroke-linecap="round"/>
</svg>
