<svg width="48" height="48" viewBox="0 0 48 48" fill="none" xmlns="http://www.w3.org/2000/svg">
<rect width="48" height="48" rx="10" fill="#06C755"/>
<path d="M23.9999 8.72705C32.8144 8.72705 39.9706 14.5746 39.9706 21.731C39.9705 24.6109 38.9236 27.2291 36.5673 29.8472C33.2508 33.6871 25.7453 38.4 23.9999 39.0981C22.2547 39.7961 22.5161 38.6614 22.6034 38.2251C22.6907 37.9632 22.8651 36.8286 22.8651 36.8286C22.8651 36.3923 22.9527 35.7815 22.7782 35.3452C22.6036 34.9089 21.9053 34.6473 21.3817 34.5601C13.7019 33.5128 8.02933 28.189 8.02917 21.731C8.02917 14.5746 15.1854 8.72714 23.9999 8.72705ZM27.3163 18.2397C27.1419 18.2399 26.968 18.414 26.9677 18.5884V22.6909L23.7382 18.4146H22.6034C22.429 18.4148 22.2549 18.5888 22.2548 18.7632V25.7456C22.255 25.9199 22.4291 26.094 22.6034 26.0942H23.5634C23.7378 26.0942 23.9127 25.92 23.913 25.7456V21.5562L27.1415 25.9194L27.2294 26.0073H28.451C28.6256 26.0073 28.7997 25.8322 28.7997 25.6577V18.6763C28.7997 18.4145 28.6256 18.2398 28.451 18.2397H27.3163ZM19.6366 18.2397C19.4622 18.2397 19.2873 18.414 19.287 18.5884V25.5708C19.2871 25.7453 19.4621 25.9194 19.6366 25.9194H20.7714C20.9457 25.9192 21.1199 25.7452 21.12 25.5708V18.5884C21.0329 18.4141 20.9455 18.24 20.7714 18.2397H19.6366ZM13.5272 18.1528C13.3527 18.1529 13.1786 18.327 13.1786 18.5015V25.4829C13.1786 25.6574 13.3527 25.8325 13.5272 25.8325H18.0653C18.2399 25.8325 18.4149 25.6575 18.4149 25.4829V24.436C18.4149 24.2615 18.2399 24.0864 18.0653 24.0864H15.0106V18.5015C15.0106 18.327 14.8365 18.1529 14.662 18.1528H13.5272ZM30.1962 18.1528C30.0217 18.153 29.8475 18.327 29.8475 18.5015V25.4829C29.8475 25.6574 30.0217 25.8324 30.1962 25.8325H34.6473C34.8189 25.8325 34.9902 25.7475 34.996 25.7446V24.6108C34.996 24.4363 34.8219 24.2613 34.6473 24.2612H31.5927V23.0396H34.6473C34.8217 23.0395 34.9957 22.8653 34.996 22.6909V21.5562C34.996 21.3816 34.8219 21.2066 34.6473 21.2065H31.5927V19.9849H34.6473C34.8218 19.9848 34.9958 19.8107 34.996 19.6362V18.5015C34.996 18.3269 34.8219 18.1529 34.6473 18.1528H30.1962Z" fill="white"/>
</svg>
