<svg width="48" height="48" viewBox="0 0 48 48" fill="none" xmlns="http://www.w3.org/2000/svg">
<g clip-path="url(#clip0_19443_86426)">
<g clip-path="url(#clip1_19443_86426)">
<path d="M24 0C10.7444 0 0 10.7444 0 24C0 30.6267 2.68667 36.6267 7.02889 40.9711L2.45778 45.5422C1.55111 46.4489 2.19333 48 3.47556 48H24C37.2556 48 48 37.2556 48 24C48 10.7444 37.2556 0 24 0Z" fill="#FF4500"/>
<path d="M37.6044 29.3778C40.6997 29.3778 43.2089 26.8686 43.2089 23.7734C43.2089 20.6781 40.6997 18.1689 37.6044 18.1689C34.5092 18.1689 32 20.6781 32 23.7734C32 26.8686 34.5092 29.3778 37.6044 29.3778Z" fill="url(#paint0_radial_19443_86426)"/>
<path d="M10.3956 29.3778C13.4908 29.3778 16 26.8686 16 23.7734C16 20.6781 13.4908 18.1689 10.3956 18.1689C7.30033 18.1689 4.79114 20.6781 4.79114 23.7734C4.79114 26.8686 7.30033 29.3778 10.3956 29.3778Z" fill="url(#paint1_radial_19443_86426)"/>
<path d="M24.0133 40.5864C32.8499 40.5864 40.0133 35.2138 40.0133 28.5864C40.0133 21.959 32.8499 16.5864 24.0133 16.5864C15.1767 16.5864 8.01331 21.959 8.01331 28.5864C8.01331 35.2138 15.1767 40.5864 24.0133 40.5864Z" fill="url(#paint2_radial_19443_86426)"/>
<path d="M19.2844 27.4402C19.1911 29.458 17.8422 30.1913 16.2711 30.1913C14.7 30.1913 13.5022 29.0958 13.5956 27.078C13.6889 25.0602 15.0378 23.7402 16.6089 23.7402C18.18 23.7402 19.3778 25.4247 19.2844 27.4425V27.4402Z" fill="url(#paint3_radial_19443_86426)"/>
<path d="M28.7444 27.4402C28.8378 29.458 30.1866 30.1913 31.7578 30.1913C33.3289 30.1913 34.5266 29.0958 34.4333 27.078C34.34 25.0602 32.9911 23.7402 31.42 23.7402C29.8489 23.7402 28.6511 25.4247 28.7444 27.4425V27.4402Z" fill="url(#paint4_radial_19443_86426)"/>
<path d="M17.6956 26.5377C18.0392 26.5377 18.3178 26.2342 18.3178 25.8599C18.3178 25.4856 18.0392 25.1821 17.6956 25.1821C17.3519 25.1821 17.0734 25.4856 17.0734 25.8599C17.0734 26.2342 17.3519 26.5377 17.6956 26.5377Z" fill="#FFC49C"/>
<path d="M32.4911 26.5377C32.8348 26.5377 33.1133 26.2342 33.1133 25.8599C33.1133 25.4856 32.8348 25.1821 32.4911 25.1821C32.1475 25.1821 31.8689 25.4856 31.8689 25.8599C31.8689 26.2342 32.1475 26.5377 32.4911 26.5377Z" fill="#FFC49C"/>
<path d="M24.0134 31.7598C22.0667 31.7598 20.2 31.8553 18.4756 32.0309C18.18 32.0598 17.9934 32.3664 18.1089 32.6398C19.0756 34.9487 21.3556 36.5709 24.0134 36.5709C26.6711 36.5709 28.9534 34.9487 29.9178 32.6398C30.0334 32.3664 29.8445 32.0598 29.5511 32.0309C27.8245 31.8553 25.96 31.7598 24.0134 31.7598Z" fill="url(#paint5_radial_19443_86426)"/>
<path d="M32.7756 14.9554C34.9687 14.9554 36.7467 13.1775 36.7467 10.9843C36.7467 8.79111 34.9687 7.01318 32.7756 7.01318C30.5824 7.01318 28.8044 8.79111 28.8044 10.9843C28.8044 13.1775 30.5824 14.9554 32.7756 14.9554Z" fill="url(#paint6_radial_19443_86426)"/>
<path d="M23.9556 17.0935C23.48 17.0935 23.0956 16.8957 23.0956 16.5891C23.0956 13.0313 25.9911 10.1357 29.5489 10.1357C30.0245 10.1357 30.4089 10.5202 30.4089 10.9957C30.4089 11.4713 30.0245 11.8557 29.5489 11.8557C26.94 11.8557 24.8178 13.978 24.8178 16.5869C24.8178 16.8935 24.4334 17.0913 23.9578 17.0913L23.9556 17.0935Z" fill="url(#paint7_radial_19443_86426)"/>
<path d="M13.96 27.2558C14.0467 25.3536 15.3111 24.1091 16.78 24.1091C18.1711 24.1091 19.2467 25.5291 19.2867 27.2936C19.3244 25.3202 18.1467 23.7402 16.6089 23.7402C15.0711 23.7402 13.6889 25.0847 13.5956 27.118C13.5022 29.1513 14.7 30.1913 16.2711 30.1913C16.3089 30.1913 16.3489 30.1913 16.3867 30.1913C14.9556 30.1558 13.8756 29.1269 13.9622 27.258L13.96 27.2558Z" fill="#842123"/>
<path d="M34.0667 27.2558C33.98 25.3536 32.7156 24.1091 31.2467 24.1091C29.8556 24.1091 28.78 25.5291 28.74 27.2936C28.7022 25.3202 29.88 23.7402 31.4178 23.7402C32.9889 23.7402 34.3378 25.0847 34.4311 27.118C34.5245 29.1513 33.3267 30.1913 31.7556 30.1913C31.7178 30.1913 31.6778 30.1913 31.64 30.1913C33.0711 30.1558 34.1511 29.1269 34.0645 27.258L34.0667 27.2558Z" fill="#842123"/>
</g>
</g>
<defs>
<radialGradient id="paint0_radial_19443_86426" cx="0" cy="0" r="1" gradientUnits="userSpaceOnUse" gradientTransform="translate(37.7222 20.4101) scale(11.3289 9.85613)">
<stop stop-color="#FEFFFF"/>
<stop offset="0.4" stop-color="#FEFFFF"/>
<stop offset="0.51" stop-color="#F9FCFC"/>
<stop offset="0.62" stop-color="#EDF3F5"/>
<stop offset="0.7" stop-color="#DEE9EC"/>
<stop offset="0.72" stop-color="#D8E4E8"/>
<stop offset="0.76" stop-color="#CCD8DF"/>
<stop offset="0.8" stop-color="#C8D5DD"/>
<stop offset="0.83" stop-color="#CCD6DE"/>
<stop offset="0.85" stop-color="#D8DBE2"/>
<stop offset="0.88" stop-color="#EDE3E9"/>
<stop offset="0.9" stop-color="#FFEBEF"/>
</radialGradient>
<radialGradient id="paint1_radial_19443_86426" cx="0" cy="0" r="1" gradientUnits="userSpaceOnUse" gradientTransform="translate(10.5134 2.68339) scale(11.3289 9.85613)">
<stop stop-color="#FEFFFF"/>
<stop offset="0.4" stop-color="#FEFFFF"/>
<stop offset="0.51" stop-color="#F9FCFC"/>
<stop offset="0.62" stop-color="#EDF3F5"/>
<stop offset="0.7" stop-color="#DEE9EC"/>
<stop offset="0.72" stop-color="#D8E4E8"/>
<stop offset="0.76" stop-color="#CCD8DF"/>
<stop offset="0.8" stop-color="#C8D5DD"/>
<stop offset="0.83" stop-color="#CCD6DE"/>
<stop offset="0.85" stop-color="#D8DBE2"/>
<stop offset="0.88" stop-color="#EDE3E9"/>
<stop offset="0.9" stop-color="#FFEBEF"/>
</radialGradient>
<radialGradient id="paint2_radial_19443_86426" cx="0" cy="0" r="1" gradientUnits="userSpaceOnUse" gradientTransform="translate(24.3577 18.9938) scale(34.1733 23.9213)">
<stop stop-color="#FEFFFF"/>
<stop offset="0.4" stop-color="#FEFFFF"/>
<stop offset="0.51" stop-color="#F9FCFC"/>
<stop offset="0.62" stop-color="#EDF3F5"/>
<stop offset="0.7" stop-color="#DEE9EC"/>
<stop offset="0.72" stop-color="#D8E4E8"/>
<stop offset="0.76" stop-color="#CCD8DF"/>
<stop offset="0.8" stop-color="#C8D5DD"/>
<stop offset="0.83" stop-color="#CCD6DE"/>
<stop offset="0.85" stop-color="#D8DBE2"/>
<stop offset="0.88" stop-color="#EDE3E9"/>
<stop offset="0.9" stop-color="#FFEBEF"/>
</radialGradient>
<radialGradient id="paint3_radial_19443_86426" cx="0" cy="0" r="1" gradientUnits="userSpaceOnUse" gradientTransform="translate(16.5887 28.3367) scale(3.05544 4.42611)">
<stop stop-color="#FF6600"/>
<stop offset="0.5" stop-color="#FF4500"/>
<stop offset="0.7" stop-color="#FC4301"/>
<stop offset="0.82" stop-color="#F43F07"/>
<stop offset="0.92" stop-color="#E53812"/>
<stop offset="1" stop-color="#D4301F"/>
</radialGradient>
<radialGradient id="paint4_radial_19443_86426" cx="0" cy="0" r="1" gradientUnits="userSpaceOnUse" gradientTransform="translate(31.4596 28.3367) rotate(180) scale(3.05544 4.42611)">
<stop stop-color="#FF6600"/>
<stop offset="0.5" stop-color="#FF4500"/>
<stop offset="0.7" stop-color="#FC4301"/>
<stop offset="0.82" stop-color="#F43F07"/>
<stop offset="0.92" stop-color="#E53812"/>
<stop offset="1" stop-color="#D4301F"/>
</radialGradient>
<radialGradient id="paint5_radial_19443_86426" cx="0" cy="0" r="1" gradientUnits="userSpaceOnUse" gradientTransform="translate(23.9845 37.2428) scale(10.0667 6.644)">
<stop stop-color="#172E35"/>
<stop offset="0.29" stop-color="#0E1C21"/>
<stop offset="0.73" stop-color="#030708"/>
<stop offset="1"/>
</radialGradient>
<radialGradient id="paint6_radial_19443_86426" cx="0" cy="0" r="1" gradientUnits="userSpaceOnUse" gradientTransform="translate(32.8622 7.29345) scale(8.83778 8.66102)">
<stop stop-color="#FEFFFF"/>
<stop offset="0.4" stop-color="#FEFFFF"/>
<stop offset="0.51" stop-color="#F9FCFC"/>
<stop offset="0.62" stop-color="#EDF3F5"/>
<stop offset="0.7" stop-color="#DEE9EC"/>
<stop offset="0.72" stop-color="#D8E4E8"/>
<stop offset="0.76" stop-color="#CCD8DF"/>
<stop offset="0.8" stop-color="#C8D5DD"/>
<stop offset="0.83" stop-color="#CCD6DE"/>
<stop offset="0.85" stop-color="#D8DBE2"/>
<stop offset="0.88" stop-color="#EDE3E9"/>
<stop offset="0.9" stop-color="#FFEBEF"/>
</radialGradient>
<radialGradient id="paint7_radial_19443_86426" cx="0" cy="0" r="1" gradientUnits="userSpaceOnUse" gradientTransform="translate(29.18 16.2402) scale(7.24444)">
<stop offset="0.48" stop-color="#7A9299"/>
<stop offset="0.67" stop-color="#172E35"/>
<stop offset="0.75"/>
<stop offset="0.82" stop-color="#172E35"/>
</radialGradient>
<clipPath id="clip0_19443_86426">
<rect width="48" height="48" rx="4" fill="white"/>
</clipPath>
<clipPath id="clip1_19443_86426">
<rect width="48" height="48" fill="white"/>
</clipPath>
</defs>
</svg>
