<svg width="48" height="48" viewBox="0 0 48 48" fill="none" xmlns="http://www.w3.org/2000/svg">
<path d="M14.3334 17.7418H33.4786V41.5115H14.3334V17.7418Z" fill="white"/>
<path fill-rule="evenodd" clip-rule="evenodd" d="M31.0972 34.8589C30.8428 36.9583 29.5707 38.6397 27.6002 39.4817C26.5028 39.9507 25.0294 40.2039 23.8632 40.1243C22.0439 40.0548 20.3346 39.6124 18.7591 38.8036C18.1963 38.5144 17.3572 37.9372 16.7129 37.3965C16.5497 37.2599 16.5304 37.1723 16.6383 37.0192C16.6966 36.9313 16.8041 36.7727 17.0417 36.4245C17.3864 35.9196 17.4293 35.8563 17.4681 35.7971C17.5784 35.6279 17.7575 35.6131 17.9342 35.7522C17.9528 35.7666 17.9528 35.7666 17.9668 35.7776C17.9958 35.8001 17.9958 35.8001 18.0642 35.8532C18.1334 35.9072 18.1744 35.939 18.191 35.9514C19.8902 37.2822 21.8691 38.0497 23.8669 38.1264C26.6465 38.0886 28.6453 36.8388 29.0034 34.9198C29.3972 32.8077 27.7393 30.9833 24.4956 29.9664C23.4811 29.6484 20.9169 28.622 20.4441 28.3447C18.2238 27.042 17.1857 25.3356 17.3333 23.228C17.5593 20.3065 20.2714 18.1276 23.6984 18.113C25.2309 18.1099 26.7602 18.4284 28.2293 19.0474C28.7495 19.2667 29.6783 19.7721 29.999 20.0115C30.1837 20.1471 30.2201 20.3052 30.1143 20.4758C30.0552 20.5747 29.9574 20.7314 29.7514 21.0583L29.7491 21.0619C29.478 21.4923 29.4695 21.5058 29.4073 21.6065C29.2998 21.7701 29.1734 21.7854 28.9796 21.6624C27.4075 20.6063 25.6647 20.075 23.748 20.0366C21.3618 20.0838 19.5732 21.504 19.4557 23.4386C19.4244 25.1859 20.7349 26.4616 23.5658 27.4342C29.312 29.2808 31.511 31.4456 31.0972 34.8589ZM24.0006 4.69461C27.7417 4.69461 30.7911 8.24484 30.9338 12.689H17.0676C17.2103 8.24484 20.2597 4.69461 24.0006 4.69461ZM43.3619 13.5245C43.3619 13.0631 42.9903 12.689 42.532 12.689H33.5443C33.3238 6.82108 29.1353 2.14209 24.0006 2.14209C18.8661 2.14209 14.6776 6.82108 14.4571 12.689L5.4566 12.6892C5.00531 12.6974 4.64197 13.0683 4.64197 13.5245C4.64197 13.5463 4.64279 13.568 4.64441 13.5893H4.63806L5.92108 41.872C5.92125 41.9507 5.92417 42.0301 5.93004 42.1099C5.93135 42.128 5.93281 42.1459 5.93428 42.1637L5.93705 42.2234L5.94014 42.2265C6.13508 44.1946 7.56337 45.7797 9.5055 45.8529L9.50989 45.8571H38.0603C38.0738 45.8573 38.0873 45.8575 38.1008 45.8575C38.1144 45.8575 38.1279 45.8573 38.1414 45.8571H38.2021C40.1781 45.8032 41.78 44.1948 41.9491 42.2024L41.9514 42.1747C41.953 42.1537 41.9545 42.1329 41.9558 42.1119C41.9589 42.0617 41.961 42.0117 41.9618 41.962L43.3618 13.5677C43.3626 13.5534 43.3619 13.539 43.3619 13.5245Z" fill="#EE4D2D"/>
</svg>
