<svg width="144" height="56" viewBox="0 0 144 56" fill="none" xmlns="http://www.w3.org/2000/svg">
<g opacity="0.3">
<g opacity="0.6">
<path d="M49.9765 31.0788L47.5351 31.733L45.8897 30.783L48.5882 30.0599C48.8735 29.9833 49.0428 29.6901 48.9663 29.4048C48.8899 29.1195 48.5965 28.95 48.3112 29.0266L44.5795 30.0265L43.1662 29.2105C43.1185 29.183 43.0684 29.1637 43.0174 29.1521L44.5189 28.4913C44.7128 28.4058 44.8381 28.214 44.8383 28.0021C44.8384 27.7903 44.7134 27.5981 44.5195 27.5125L43.0144 26.8476C43.0664 26.836 43.1177 26.8175 43.1662 26.7894L44.5796 25.9733L48.3115 26.9732C48.3578 26.9856 48.4044 26.9916 48.4503 26.9916C48.6864 26.9915 48.9025 26.834 48.9665 26.595C49.043 26.3096 48.8737 26.0164 48.5884 25.9399L45.8898 25.2169L47.5351 24.267L49.9766 24.921C50.0229 24.9335 50.0694 24.9394 50.1153 24.9394C50.3515 24.9394 50.5676 24.7818 50.6316 24.5428C50.708 24.2575 50.5388 23.9642 50.2534 23.8878L48.8454 23.5105L50.1964 22.7305C50.4522 22.5828 50.5399 22.2557 50.3922 21.9999C50.2444 21.7441 49.9173 21.6564 49.6615 21.8041L48.3104 22.5842L48.6877 21.1762C48.7641 20.8908 48.5949 20.5975 48.3095 20.5211C48.0241 20.4446 47.7309 20.614 47.6545 20.8993L47.0004 23.3406L45.355 24.2906L46.0781 21.5921C46.1546 21.3068 45.9853 21.0136 45.7 20.9371C45.4145 20.8605 45.1213 21.0299 45.0448 21.3153L44.0449 25.0471L42.6315 25.8631C42.5843 25.8903 42.543 25.9237 42.5077 25.9616L42.6861 24.3316C42.7092 24.1209 42.6057 23.9165 42.4222 23.8103C42.2386 23.7043 42.0098 23.7165 41.8388 23.8416L40.5104 24.8126C40.5263 24.7621 40.5349 24.7083 40.5349 24.6525V23.0204L43.2667 20.2885C43.4755 20.0796 43.4755 19.7409 43.2667 19.532C43.0579 19.3232 42.7192 19.3232 42.5103 19.532L40.5348 21.5075V19.6078L42.3219 17.8205C42.5307 17.6117 42.5307 17.273 42.3219 17.0641C42.1131 16.8553 41.7744 16.8553 41.5655 17.0641L40.5347 18.0949V16.5349C40.5347 16.2395 40.2952 16 39.9998 16C39.7044 16 39.465 16.2395 39.465 16.5349V18.0949L38.4342 17.0642C38.2254 16.8554 37.8867 16.8554 37.6778 17.0642C37.4689 17.273 37.4689 17.6117 37.6778 17.8206L39.465 19.6078V21.5077L37.4895 19.5323C37.2806 19.3235 36.9419 19.3235 36.7331 19.5323C36.5242 19.7411 36.5242 20.0798 36.7331 20.2887L39.4649 23.0205V24.6525C39.4649 24.7065 39.473 24.7584 39.4879 24.8075L38.167 23.8392C37.9961 23.7138 37.7673 23.7014 37.5837 23.8071C37.4001 23.913 37.2962 24.1173 37.319 24.328L37.4961 25.9658C37.4599 25.9262 37.4172 25.8912 37.3683 25.863L35.9549 25.047L34.9549 21.3152C34.8785 21.0298 34.5852 20.8604 34.2998 20.937C34.0145 21.0134 33.8451 21.3067 33.9216 21.592L34.6447 24.2905L32.9994 23.3406L32.3452 20.8992C32.2688 20.6139 31.9754 20.4445 31.6901 20.521C31.4047 20.5975 31.2355 20.8908 31.3119 21.1762L31.6892 22.5841L30.3382 21.8041C30.0824 21.6565 29.7553 21.744 29.6076 21.9999C29.4598 22.2557 29.5475 22.5828 29.8033 22.7305L31.1544 23.5105L29.7464 23.8878C29.4611 23.9643 29.2917 24.2576 29.3682 24.5429C29.4322 24.7819 29.6483 24.9395 29.8845 24.9395C29.9303 24.9395 29.9769 24.9336 30.0233 24.9211L32.4646 24.267L34.11 25.2169L31.4114 25.9401C31.1261 26.0166 30.9568 26.3098 31.0332 26.5951C31.0972 26.8341 31.3133 26.9917 31.5495 26.9917C31.5953 26.9917 31.642 26.9858 31.6883 26.9733L35.4201 25.9735L36.8334 26.7895C36.8804 26.8166 36.9298 26.835 36.98 26.8466L35.4811 27.5063C35.2872 27.5917 35.1618 27.7836 35.1617 27.9955C35.1615 28.2073 35.2865 28.3995 35.4804 28.485L36.9876 29.1509C36.9348 29.1624 36.8827 29.1819 36.8334 29.2104L35.4199 30.0264L31.6881 29.0266C31.4027 28.95 31.1094 29.1194 31.033 29.4048C30.9565 29.6902 31.1259 29.9834 31.4112 30.0599L34.1097 30.7829L32.4644 31.7329L30.023 31.0788C29.7376 31.0023 29.4444 31.1716 29.368 31.457C29.2915 31.7423 29.4609 32.0356 29.7462 32.112L31.1542 32.4893L29.8032 33.2693C29.5474 33.417 29.4597 33.7441 29.6074 33.9999C29.7065 34.1715 29.8862 34.2675 30.0711 34.2675C30.1618 34.2675 30.2538 34.2443 30.3381 34.1957L31.6891 33.4156L31.3118 34.8236C31.2354 35.1089 31.4047 35.4022 31.69 35.4787C31.7364 35.4911 31.783 35.4971 31.8288 35.4971C32.065 35.4971 32.2811 35.3395 32.3452 35.1005L32.9993 32.6592L34.6447 31.7092L33.9216 34.4076C33.8451 34.6929 34.0145 34.9862 34.2998 35.0627C34.3462 35.0751 34.3928 35.0811 34.4386 35.0811C34.6748 35.0811 34.8909 34.9235 34.9549 34.6845L35.9549 30.9527L37.3682 30.1367C37.4155 30.1094 37.4568 30.076 37.4922 30.038L37.314 31.6659C37.2909 31.8766 37.3944 32.081 37.5779 32.1872C37.7614 32.2931 37.9902 32.2809 38.1613 32.1559L39.4904 31.1844C39.474 31.2358 39.4649 31.2904 39.4649 31.3472V32.9794L36.7331 35.7112C36.5243 35.9202 36.5243 36.2589 36.7331 36.4678C36.8376 36.5722 36.9745 36.6244 37.1113 36.6244C37.2482 36.6244 37.3851 36.5722 37.4895 36.4678L39.465 34.4924V36.3923L37.6779 38.1795C37.469 38.3884 37.469 38.727 37.6779 38.936C37.7823 39.0404 37.9192 39.0927 38.0561 39.0927C38.1929 39.0927 38.3299 39.0404 38.4343 38.936L39.465 37.9051V39.4651C39.465 39.7605 39.7044 40 39.9998 40C40.2952 40 40.5347 39.7605 40.5347 39.4651V37.9051L41.5655 38.9359C41.7743 39.1447 42.113 39.1447 42.322 38.9359C42.5308 38.727 42.5308 38.3883 42.322 38.1794L40.5348 36.3922V34.4923L42.5101 36.4677C42.719 36.6765 43.0577 36.6765 43.2667 36.4677C43.4755 36.2589 43.4755 35.9202 43.2667 35.7112L40.5348 32.9795V31.3475C40.5348 31.2924 40.5265 31.2393 40.511 31.1893L41.8332 32.1585C41.9269 32.2272 42.038 32.262 42.1494 32.262C42.2413 32.262 42.3335 32.2384 42.4165 32.1905C42.6001 32.0847 42.7039 31.8803 42.6811 31.6697L42.5045 30.035C42.5405 30.0743 42.5829 30.1089 42.6315 30.1369L44.045 30.953L45.045 34.6848C45.109 34.9238 45.3251 35.0814 45.5613 35.0814C45.607 35.0813 45.6537 35.0755 45.7001 35.0629C45.9854 34.9864 46.1548 34.6932 46.0783 34.4078L45.3551 31.7095L47.0005 32.6594L47.6546 35.1007C47.7186 35.3398 47.9347 35.4974 48.1709 35.4974C48.2167 35.4972 48.2634 35.4914 48.3097 35.479C48.595 35.4024 48.7644 35.1091 48.6879 34.8238L48.3106 33.4159L49.6616 34.1959C49.7458 34.2445 49.8378 34.2677 49.9285 34.2677C50.1134 34.2677 50.2932 34.1717 50.3922 34.0001C50.5399 33.7443 50.4523 33.4172 50.1964 33.2695L48.8454 32.4895L50.2534 32.1121C50.5387 32.0356 50.708 31.7424 50.6316 31.4571C50.555 31.1717 50.2617 31.0023 49.9765 31.0788ZM41.6472 28.5865C41.4339 28.6804 41.3059 28.9018 41.3309 29.1335L41.487 30.5788L40.3147 29.7194C40.2205 29.6504 40.1095 29.6158 39.9984 29.6158C39.8876 29.6158 39.7768 29.6503 39.6828 29.7189L38.5093 30.5767L38.6675 29.1318C38.6929 28.9 38.5652 28.6785 38.352 28.5843L37.0223 27.997L38.3528 27.4114C38.5661 27.3175 38.6941 27.0961 38.6691 26.8644L38.513 25.4192L39.6853 26.2787C39.8733 26.4165 40.129 26.4166 40.3171 26.2791L41.4906 25.4213L41.3325 26.8662C41.307 27.098 41.4348 27.3195 41.6479 27.4136L42.9777 28.001L41.6472 28.5865Z" fill="white" fill-opacity="0.8"/>
</g>
<g opacity="0.3">
<path d="M133.976 31.0788L131.535 31.733L129.89 30.783L132.588 30.0599C132.873 29.9833 133.043 29.6901 132.966 29.4048C132.89 29.1195 132.597 28.95 132.311 29.0266L128.58 30.0265L127.166 29.2105C127.118 29.183 127.068 29.1637 127.017 29.1521L128.519 28.4913C128.713 28.4058 128.838 28.214 128.838 28.0021C128.838 27.7903 128.713 27.5981 128.52 27.5125L127.014 26.8476C127.066 26.836 127.118 26.8175 127.166 26.7894L128.58 25.9733L132.311 26.9732C132.358 26.9856 132.404 26.9916 132.45 26.9916C132.686 26.9915 132.903 26.834 132.967 26.595C133.043 26.3096 132.874 26.0164 132.588 25.9399L129.89 25.2169L131.535 24.267L133.977 24.921C134.023 24.9335 134.069 24.9394 134.115 24.9394C134.351 24.9394 134.568 24.7818 134.632 24.5428C134.708 24.2575 134.539 23.9642 134.253 23.8878L132.845 23.5105L134.196 22.7305C134.452 22.5828 134.54 22.2557 134.392 21.9999C134.244 21.7441 133.917 21.6564 133.662 21.8041L132.31 22.5842L132.688 21.1762C132.764 20.8908 132.595 20.5975 132.309 20.5211C132.024 20.4446 131.731 20.614 131.654 20.8993L131 23.3406L129.355 24.2906L130.078 21.5921C130.155 21.3068 129.985 21.0136 129.7 20.9371C129.415 20.8605 129.121 21.0299 129.045 21.3153L128.045 25.0471L126.632 25.8631C126.584 25.8903 126.543 25.9237 126.508 25.9616L126.686 24.3316C126.709 24.1209 126.606 23.9165 126.422 23.8103C126.239 23.7043 126.01 23.7165 125.839 23.8416L124.51 24.8126C124.526 24.7621 124.535 24.7083 124.535 24.6525V23.0204L127.267 20.2885C127.476 20.0796 127.476 19.7409 127.267 19.532C127.058 19.3232 126.719 19.3232 126.51 19.532L124.535 21.5075V19.6078L126.322 17.8205C126.531 17.6117 126.531 17.273 126.322 17.0641C126.113 16.8553 125.774 16.8553 125.565 17.0641L124.535 18.0949V16.5349C124.535 16.2395 124.295 16 124 16C123.704 16 123.465 16.2395 123.465 16.5349V18.0949L122.434 17.0642C122.225 16.8554 121.887 16.8554 121.678 17.0642C121.469 17.273 121.469 17.6117 121.678 17.8206L123.465 19.6078V21.5077L121.489 19.5323C121.281 19.3235 120.942 19.3235 120.733 19.5323C120.524 19.7411 120.524 20.0798 120.733 20.2887L123.465 23.0205V24.6525C123.465 24.7065 123.473 24.7584 123.488 24.8075L122.167 23.8392C121.996 23.7138 121.767 23.7014 121.584 23.8071C121.4 23.913 121.296 24.1173 121.319 24.328L121.496 25.9658C121.46 25.9262 121.417 25.8912 121.368 25.863L119.955 25.047L118.955 21.3152C118.878 21.0298 118.585 20.8604 118.3 20.937C118.014 21.0134 117.845 21.3067 117.922 21.592L118.645 24.2905L116.999 23.3406L116.345 20.8992C116.269 20.6139 115.975 20.4445 115.69 20.521C115.405 20.5975 115.235 20.8908 115.312 21.1762L115.689 22.5841L114.338 21.8041C114.082 21.6565 113.755 21.744 113.608 21.9999C113.46 22.2557 113.548 22.5828 113.803 22.7305L115.154 23.5105L113.746 23.8878C113.461 23.9643 113.292 24.2576 113.368 24.5429C113.432 24.7819 113.648 24.9395 113.884 24.9395C113.93 24.9395 113.977 24.9336 114.023 24.9211L116.465 24.267L118.11 25.2169L115.411 25.9401C115.126 26.0166 114.957 26.3098 115.033 26.5951C115.097 26.8341 115.313 26.9917 115.55 26.9917C115.595 26.9917 115.642 26.9858 115.688 26.9733L119.42 25.9735L120.833 26.7895C120.88 26.8166 120.93 26.835 120.98 26.8466L119.481 27.5063C119.287 27.5917 119.162 27.7836 119.162 27.9955C119.162 28.2073 119.287 28.3995 119.48 28.485L120.988 29.1509C120.935 29.1624 120.883 29.1819 120.833 29.2104L119.42 30.0264L115.688 29.0266C115.403 28.95 115.109 29.1194 115.033 29.4048C114.957 29.6902 115.126 29.9834 115.411 30.0599L118.11 30.7829L116.464 31.7329L114.023 31.0788C113.738 31.0023 113.444 31.1716 113.368 31.457C113.292 31.7423 113.461 32.0356 113.746 32.112L115.154 32.4893L113.803 33.2693C113.547 33.417 113.46 33.7441 113.607 33.9999C113.706 34.1715 113.886 34.2675 114.071 34.2675C114.162 34.2675 114.254 34.2443 114.338 34.1957L115.689 33.4156L115.312 34.8236C115.235 35.1089 115.405 35.4022 115.69 35.4787C115.736 35.4911 115.783 35.4971 115.829 35.4971C116.065 35.4971 116.281 35.3395 116.345 35.1005L116.999 32.6592L118.645 31.7092L117.922 34.4076C117.845 34.6929 118.014 34.9862 118.3 35.0627C118.346 35.0751 118.393 35.0811 118.439 35.0811C118.675 35.0811 118.891 34.9235 118.955 34.6845L119.955 30.9527L121.368 30.1367C121.415 30.1094 121.457 30.076 121.492 30.038L121.314 31.6659C121.291 31.8766 121.394 32.081 121.578 32.1872C121.761 32.2931 121.99 32.2809 122.161 32.1559L123.49 31.1844C123.474 31.2358 123.465 31.2904 123.465 31.3472V32.9794L120.733 35.7112C120.524 35.9202 120.524 36.2589 120.733 36.4678C120.838 36.5722 120.974 36.6244 121.111 36.6244C121.248 36.6244 121.385 36.5722 121.49 36.4678L123.465 34.4924V36.3923L121.678 38.1795C121.469 38.3884 121.469 38.727 121.678 38.936C121.782 39.0404 121.919 39.0927 122.056 39.0927C122.193 39.0927 122.33 39.0404 122.434 38.936L123.465 37.9051V39.4651C123.465 39.7605 123.704 40 124 40C124.295 40 124.535 39.7605 124.535 39.4651V37.9051L125.565 38.9359C125.774 39.1447 126.113 39.1447 126.322 38.9359C126.531 38.727 126.531 38.3883 126.322 38.1794L124.535 36.3922V34.4923L126.51 36.4677C126.719 36.6765 127.058 36.6765 127.267 36.4677C127.476 36.2589 127.476 35.9202 127.267 35.7112L124.535 32.9795V31.3475C124.535 31.2924 124.526 31.2393 124.511 31.1893L125.833 32.1585C125.927 32.2272 126.038 32.262 126.149 32.262C126.241 32.262 126.334 32.2384 126.416 32.1905C126.6 32.0847 126.704 31.8803 126.681 31.6697L126.504 30.035C126.54 30.0743 126.583 30.1089 126.632 30.1369L128.045 30.953L129.045 34.6848C129.109 34.9238 129.325 35.0814 129.561 35.0814C129.607 35.0813 129.654 35.0755 129.7 35.0629C129.985 34.9864 130.155 34.6932 130.078 34.4078L129.355 31.7095L131 32.6594L131.655 35.1007C131.719 35.3398 131.935 35.4974 132.171 35.4974C132.217 35.4972 132.263 35.4914 132.31 35.479C132.595 35.4024 132.764 35.1091 132.688 34.8238L132.311 33.4159L133.662 34.1959C133.746 34.2445 133.838 34.2677 133.929 34.2677C134.113 34.2677 134.293 34.1717 134.392 34.0001C134.54 33.7443 134.452 33.4172 134.196 33.2695L132.845 32.4895L134.253 32.1121C134.539 32.0356 134.708 31.7424 134.632 31.4571C134.555 31.1717 134.262 31.0023 133.976 31.0788ZM125.647 28.5865C125.434 28.6804 125.306 28.9018 125.331 29.1335L125.487 30.5788L124.315 29.7194C124.221 29.6504 124.109 29.6158 123.998 29.6158C123.888 29.6158 123.777 29.6503 123.683 29.7189L122.509 30.5767L122.667 29.1318C122.693 28.9 122.565 28.6785 122.352 28.5843L121.022 27.997L122.353 27.4114C122.566 27.3175 122.694 27.0961 122.669 26.8644L122.513 25.4192L123.685 26.2787C123.873 26.4165 124.129 26.4166 124.317 26.2791L125.491 25.4213L125.332 26.8662C125.307 27.098 125.435 27.3195 125.648 27.4136L126.978 28.001L125.647 28.5865Z" fill="white" fill-opacity="0.8"/>
</g>
<g opacity="0.4" clip-path="url(#clip0_6728_6840)">
<path d="M78.9882 7.53942L77.7675 7.8665L76.9449 7.39148L78.2941 7.02993C78.4367 6.99166 78.5214 6.84505 78.4832 6.7024C78.445 6.55975 78.2983 6.47498 78.1556 6.5133L76.2898 7.01324L75.5831 6.60525C75.5592 6.5915 75.5342 6.58185 75.5087 6.57604L76.2594 6.24565C76.3564 6.20292 76.4191 6.10701 76.4191 6.00106C76.4192 5.89513 76.3567 5.79906 76.2598 5.75625L75.5072 5.4238C75.5332 5.41802 75.5588 5.40874 75.5831 5.3947L76.2898 4.98667L78.1557 5.48659C78.1789 5.4928 78.2022 5.49579 78.2251 5.49579C78.3432 5.49576 78.4513 5.41698 78.4833 5.29749C78.5215 5.15481 78.4369 5.00818 78.2942 4.96996L76.9449 4.60844L77.7676 4.13348L78.9883 4.46052C79.0114 4.46673 79.0347 4.46972 79.0577 4.46972C79.1757 4.4697 79.2838 4.39091 79.3158 4.27142C79.354 4.12874 79.2694 3.98211 79.1267 3.94389L78.4227 3.75527L79.0982 3.36527C79.2261 3.2914 79.2699 3.12787 79.1961 2.99995C79.1222 2.87204 78.9587 2.82818 78.8308 2.90207L78.1552 3.2921L78.3438 2.58808C78.3821 2.4454 78.2974 2.29877 78.1547 2.26055C78.0121 2.22231 77.8655 2.30698 77.8272 2.44965L77.5002 3.67031L76.6775 4.1453L77.0391 2.79606C77.0773 2.65341 76.9927 2.50678 76.85 2.46853C76.7073 2.43024 76.5607 2.51496 76.5224 2.65764L76.0225 4.52353L75.3158 4.93153C75.2922 4.94517 75.2715 4.96186 75.2539 4.98079L75.3431 4.16578C75.3546 4.06044 75.3028 3.95823 75.2111 3.90517C75.1193 3.85213 75.0049 3.85826 74.9194 3.92079L74.2552 4.40631C74.2631 4.38104 74.2674 4.35414 74.2674 4.32624V3.51022L75.6334 2.14424C75.7378 2.03981 75.7378 1.87047 75.6334 1.76601C75.5289 1.6616 75.3596 1.6616 75.2551 1.76601L74.2674 2.75373V1.8039L75.161 0.910269C75.2654 0.805835 75.2654 0.636495 75.161 0.532035C75.0565 0.427629 74.8872 0.427629 74.7827 0.532035L74.2674 1.04744V0.267435C74.2674 0.119757 74.1476 0 73.9999 0C73.8522 0 73.7325 0.119757 73.7325 0.267435V1.04746L73.2171 0.532089C73.1127 0.427682 72.9433 0.427682 72.8389 0.532089C72.7344 0.636522 72.7344 0.805862 72.8389 0.910322L73.7325 1.8039V2.75383L72.7447 1.76614C72.6403 1.66173 72.471 1.66173 72.3665 1.76614C72.2621 1.87057 72.2621 2.03991 72.3665 2.14437L73.7325 3.51025V4.32627C73.7325 4.35323 73.7365 4.3792 73.744 4.40375L73.0835 3.91958C72.9981 3.85692 72.8836 3.85069 72.7918 3.90356C72.7 3.95649 72.6481 4.05865 72.6595 4.16399L72.748 4.9829C72.73 4.96309 72.7086 4.94562 72.6841 4.9315L71.9774 4.52348L71.4774 2.65758C71.4392 2.51491 71.2926 2.43021 71.1499 2.46848C71.0072 2.50672 70.9226 2.65336 70.9608 2.79601L71.3224 4.14524L70.4997 3.67028L70.1726 2.4496C70.1344 2.30695 69.9877 2.22225 69.845 2.26052C69.7024 2.29877 69.6177 2.4454 69.6559 2.58808L69.8446 3.29205L69.1691 2.90205C69.0412 2.82823 68.8777 2.87201 68.8038 2.99993C68.7299 3.12784 68.7738 3.29138 68.9017 3.36524L69.5772 3.75527L68.8732 3.94392C68.7305 3.98216 68.6459 4.1288 68.6841 4.27145C68.7161 4.39094 68.8241 4.46975 68.9422 4.46975C68.9651 4.46975 68.9885 4.46678 69.0116 4.46055L70.2323 4.1335L71.055 4.60847L69.7057 4.97004C69.5631 5.00828 69.4784 5.15492 69.5166 5.29757C69.5486 5.41706 69.6567 5.49587 69.7748 5.49587C69.7977 5.49587 69.821 5.4929 69.8442 5.48667L71.71 4.98673L72.4167 5.39473C72.4402 5.40829 72.4649 5.41749 72.49 5.42332L71.7405 5.75314C71.6436 5.79585 71.5809 5.89178 71.5808 5.99774C71.5808 6.10367 71.6433 6.19973 71.7402 6.24252L72.4938 6.57545C72.4674 6.58118 72.4414 6.59094 72.4167 6.60519L71.71 7.01319L69.844 6.5133C69.7014 6.47498 69.5547 6.5597 69.5165 6.7024C69.4783 6.84508 69.5629 6.99172 69.7056 7.02993L71.0548 7.39145L70.2322 7.86644L69.0115 7.5394C68.8688 7.50113 68.7222 7.5858 68.684 7.7285C68.6458 7.87115 68.7304 8.01781 68.8731 8.056L69.5771 8.24465L68.9016 8.63465C68.7737 8.70852 68.7298 8.87205 68.8037 8.99997C68.8532 9.08573 68.9431 9.13374 69.0355 9.13374C69.0809 9.13374 69.1269 9.12213 69.169 9.09785L69.8446 8.70782L69.6559 9.41182C69.6177 9.55447 69.7023 9.7011 69.845 9.73937C69.8682 9.74555 69.8915 9.74857 69.9144 9.74857C70.0325 9.74857 70.1406 9.66976 70.1726 9.55024L70.4996 8.32959L71.3223 7.85459L70.9608 9.20381C70.9226 9.34646 71.0072 9.49312 71.1499 9.53136C71.1731 9.53754 71.1964 9.54056 71.2193 9.54056C71.3374 9.54056 71.4455 9.46175 71.4775 9.34226L71.9774 7.47634L72.6841 7.06834C72.7077 7.0547 72.7284 7.03798 72.7461 7.01902L72.657 7.83293C72.6455 7.93828 72.6972 8.04052 72.789 8.09358C72.8807 8.14655 72.9951 8.14043 73.0807 8.07796L73.7452 7.59219C73.737 7.61789 73.7325 7.64519 73.7325 7.67362V8.4897L72.3666 9.85562C72.2621 9.96008 72.2621 10.1294 72.3666 10.2339C72.4188 10.2861 72.4872 10.3122 72.5557 10.3122C72.6241 10.3122 72.6926 10.2861 72.7448 10.2339L73.7325 9.24622V10.1961L72.8389 11.0898C72.7345 11.1942 72.7345 11.3635 72.8389 11.468C72.8912 11.5202 72.9596 11.5463 73.028 11.5463C73.0965 11.5463 73.1649 11.5202 73.2171 11.468L73.7325 10.9526V11.7326C73.7325 11.8803 73.8522 12 73.9999 12C74.1476 12 74.2674 11.8803 74.2674 11.7326V10.9526L74.7827 11.4679C74.8872 11.5723 75.0565 11.5723 75.161 11.4679C75.2654 11.3635 75.2654 11.1941 75.161 11.0897L74.2674 10.1961V9.24617L75.2551 10.2339C75.3595 10.3383 75.5288 10.3383 75.6333 10.2339C75.7378 10.1295 75.7378 9.96011 75.6333 9.85562L74.2674 8.48975V7.67373C74.2674 7.64621 74.2632 7.61965 74.2555 7.59465L74.9166 8.07927C74.9634 8.11358 75.019 8.13102 75.0747 8.13102C75.1207 8.13102 75.1668 8.1192 75.2082 8.09526C75.3001 8.04234 75.352 7.94017 75.3406 7.83486L75.2522 7.01752C75.2702 7.03715 75.2914 7.05446 75.3158 7.06844L76.0225 7.4765L76.5225 9.34242C76.5545 9.46191 76.6625 9.54069 76.7806 9.54069C76.8035 9.54067 76.8269 9.53775 76.8501 9.53147C76.9927 9.49322 77.0774 9.34662 77.0391 9.20391L76.6776 7.85473L77.5002 8.32972L77.8273 9.55035C77.8593 9.66989 77.9673 9.74868 78.0854 9.74868C78.1083 9.74862 78.1317 9.74571 78.1549 9.73948C78.2975 9.70121 78.3822 9.55457 78.3439 9.41192L78.1553 8.70793L78.8308 9.09795C78.8729 9.12224 78.9189 9.13384 78.9643 9.13384C79.0567 9.13384 79.1466 9.08584 79.1961 9.00007C79.27 8.87216 79.2261 8.70862 79.0982 8.63476L78.4227 8.24473L79.1267 8.05605C79.2694 8.01781 79.354 7.8712 79.3158 7.72855C79.2775 7.58585 79.1308 7.50113 78.9882 7.53942ZM74.8236 6.29323C74.7169 6.34019 74.6529 6.45088 74.6655 6.56676L74.7435 7.2894L74.1573 6.85968C74.1103 6.82518 74.0547 6.80791 73.9992 6.80791C73.9438 6.80791 73.8884 6.82513 73.8414 6.85947L73.2547 7.28836L73.3337 6.56591C73.3464 6.45 73.2826 6.33925 73.176 6.29216L72.5111 5.99849L73.1764 5.7057C73.2831 5.65877 73.3471 5.54807 73.3345 5.43219L73.2565 4.70961L73.8427 5.13933C73.9367 5.20825 74.0645 5.2083 74.1586 5.13954L74.7453 4.71063L74.6662 5.4331C74.6535 5.54898 74.7174 5.65973 74.824 5.70682L75.4888 6.00049L74.8236 6.29323Z" fill="white" fill-opacity="0.8"/>
</g>
<g opacity="0.4" clip-path="url(#clip1_6728_6840)">
<path d="M104.988 49.5394L103.768 49.8665L102.945 49.3915L104.294 49.0299C104.437 48.9917 104.521 48.8451 104.483 48.7024C104.445 48.5598 104.298 48.475 104.156 48.5133L102.29 49.0132L101.583 48.6052C101.559 48.5915 101.534 48.5818 101.509 48.576L102.259 48.2457C102.356 48.2029 102.419 48.107 102.419 48.0011C102.419 47.8951 102.357 47.7991 102.26 47.7562L101.507 47.4238C101.533 47.418 101.559 47.4087 101.583 47.3947L102.29 46.9867L104.156 47.4866C104.179 47.4928 104.202 47.4958 104.225 47.4958C104.343 47.4958 104.451 47.417 104.483 47.2975C104.521 47.1548 104.437 47.0082 104.294 46.97L102.945 46.6084L103.768 46.1335L104.988 46.4605C105.011 46.4667 105.035 46.4697 105.058 46.4697C105.176 46.4697 105.284 46.3909 105.316 46.2714C105.354 46.1287 105.269 45.9821 105.127 45.9439L104.423 45.7553L105.098 45.3653C105.226 45.2914 105.27 45.1279 105.196 45C105.122 44.872 104.959 44.8282 104.831 44.9021L104.155 45.2921L104.344 44.5881C104.382 44.4454 104.297 44.2988 104.155 44.2605C104.012 44.2223 103.865 44.307 103.827 44.4497L103.5 45.6703L102.678 46.1453L103.039 44.7961C103.077 44.6534 102.993 44.5068 102.85 44.4685C102.707 44.4302 102.561 44.515 102.522 44.6576L102.022 46.5235L101.316 46.9315C101.292 46.9452 101.272 46.9619 101.254 46.9808L101.343 46.1658C101.355 46.0604 101.303 45.9582 101.211 45.9052C101.119 45.8521 101.005 45.8583 100.919 45.9208L100.255 46.4063C100.263 46.381 100.267 46.3541 100.267 46.3262V45.5102L101.633 44.1442C101.738 44.0398 101.738 43.8705 101.633 43.766C101.529 43.6616 101.36 43.6616 101.255 43.766L100.267 44.7537V43.8039L101.161 42.9103C101.265 42.8058 101.265 42.6365 101.161 42.532C101.057 42.4276 100.887 42.4276 100.783 42.532L100.267 43.0474V42.2674C100.267 42.1198 100.148 42 99.9999 42C99.8522 42 99.7325 42.1198 99.7325 42.2674V43.0475L99.2171 42.5321C99.1127 42.4277 98.9433 42.4277 98.8389 42.5321C98.7344 42.6365 98.7344 42.8059 98.8389 42.9103L99.7325 43.8039V44.7538L98.7447 43.7661C98.6403 43.6617 98.471 43.6617 98.3665 43.7661C98.2621 43.8706 98.2621 44.0399 98.3665 44.1444L99.7325 45.5102V46.3263C99.7325 46.3532 99.7365 46.3792 99.744 46.4037L99.0835 45.9196C98.9981 45.8569 98.8836 45.8507 98.7918 45.9036C98.7 45.9565 98.6481 46.0586 98.6595 46.164L98.748 46.9829C98.73 46.9631 98.7086 46.9456 98.6841 46.9315L97.9774 46.5235L97.4774 44.6576C97.4392 44.5149 97.2926 44.4302 97.1499 44.4685C97.0072 44.5067 96.9226 44.6534 96.9608 44.796L97.3224 46.1452L96.4997 45.6703L96.1726 44.4496C96.1344 44.3069 95.9877 44.2223 95.845 44.2605C95.7024 44.2988 95.6177 44.4454 95.6559 44.5881L95.8446 45.292L95.1691 44.902C95.0412 44.8282 94.8777 44.872 94.8038 44.9999C94.7299 45.1278 94.7738 45.2914 94.9017 45.3652L95.5772 45.7553L94.8732 45.9439C94.7305 45.9822 94.6459 46.1288 94.6841 46.2714C94.7161 46.3909 94.8241 46.4697 94.9422 46.4697C94.9651 46.4697 94.9885 46.4668 95.0116 46.4605L96.2323 46.1335L97.055 46.6085L95.7057 46.97C95.5631 47.0083 95.4784 47.1549 95.5166 47.2976C95.5486 47.4171 95.6567 47.4959 95.7748 47.4959C95.7977 47.4959 95.821 47.4929 95.8442 47.4867L97.71 46.9867L98.4167 47.3947C98.4402 47.4083 98.4649 47.4175 98.49 47.4233L97.7405 47.7531C97.6436 47.7959 97.5809 47.8918 97.5808 47.9977C97.5808 48.1037 97.6433 48.1997 97.7402 48.2425L98.4938 48.5755C98.4674 48.5812 98.4414 48.5909 98.4167 48.6052L97.71 49.0132L95.844 48.5133C95.7014 48.475 95.5547 48.5597 95.5165 48.7024C95.4783 48.8451 95.5629 48.9917 95.7056 49.0299L97.0548 49.3915L96.2322 49.8664L95.0115 49.5394C94.8688 49.5011 94.7222 49.5858 94.684 49.7285C94.6458 49.8711 94.7304 50.0178 94.8731 50.056L95.5771 50.2446L94.9016 50.6346C94.7737 50.7085 94.7298 50.8721 94.8037 51C94.8532 51.0857 94.9431 51.1337 95.0355 51.1337C95.0809 51.1337 95.1269 51.1221 95.169 51.0978L95.8446 50.7078L95.6559 51.4118C95.6177 51.5545 95.7023 51.7011 95.845 51.7394C95.8682 51.7455 95.8915 51.7486 95.9144 51.7486C96.0325 51.7486 96.1406 51.6698 96.1726 51.5502L96.4996 50.3296L97.3223 49.8546L96.9608 51.2038C96.9226 51.3465 97.0072 51.4931 97.1499 51.5314C97.1731 51.5375 97.1964 51.5406 97.2193 51.5406C97.3374 51.5406 97.4455 51.4617 97.4775 51.3423L97.9774 49.4763L98.6841 49.0683C98.7077 49.0547 98.7284 49.038 98.7461 49.019L98.657 49.8329C98.6455 49.9383 98.6972 50.0405 98.789 50.0936C98.8807 50.1466 98.9951 50.1404 99.0807 50.078L99.7452 49.5922C99.737 49.6179 99.7325 49.6452 99.7325 49.6736V50.4897L98.3666 51.8556C98.2621 51.9601 98.2621 52.1294 98.3666 52.2339C98.4188 52.2861 98.4872 52.3122 98.5557 52.3122C98.6241 52.3122 98.6926 52.2861 98.7448 52.2339L99.7325 51.2462V52.1961L98.8389 53.0898C98.7345 53.1942 98.7345 53.3635 98.8389 53.468C98.8912 53.5202 98.9596 53.5463 99.028 53.5463C99.0965 53.5463 99.1649 53.5202 99.2171 53.468L99.7325 52.9526V53.7326C99.7325 53.8803 99.8522 54 99.9999 54C100.148 54 100.267 53.8803 100.267 53.7326V52.9526L100.783 53.4679C100.887 53.5723 101.057 53.5723 101.161 53.4679C101.265 53.3635 101.265 53.1941 101.161 53.0897L100.267 52.1961V51.2462L101.255 52.2339C101.36 52.3383 101.529 52.3383 101.633 52.2339C101.738 52.1295 101.738 51.9601 101.633 51.8556L100.267 50.4898V49.6737C100.267 49.6462 100.263 49.6197 100.256 49.5946L100.917 50.0793C100.963 50.1136 101.019 50.131 101.075 50.131C101.121 50.131 101.167 50.1192 101.208 50.0953C101.3 50.0423 101.352 49.9402 101.341 49.8349L101.252 49.0175C101.27 49.0372 101.291 49.0545 101.316 49.0684L102.022 49.4765L102.523 51.3424C102.554 51.4619 102.663 51.5407 102.781 51.5407C102.804 51.5407 102.827 51.5378 102.85 51.5315C102.993 51.4932 103.077 51.3466 103.039 51.2039L102.678 49.8547L103.5 50.3297L103.827 51.5503C103.859 51.6699 103.967 51.7487 104.085 51.7487C104.108 51.7486 104.132 51.7457 104.155 51.7395C104.298 51.7012 104.382 51.5546 104.344 51.4119L104.155 50.7079L104.831 51.098C104.873 51.1222 104.919 51.1338 104.964 51.1338C105.057 51.1338 105.147 51.0858 105.196 51.0001C105.27 50.8722 105.226 50.7086 105.098 50.6348L104.423 50.2447L105.127 50.0561C105.269 50.0178 105.354 49.8712 105.316 49.7286C105.278 49.5858 105.131 49.5011 104.988 49.5394ZM100.824 48.2932C100.717 48.3402 100.653 48.4509 100.665 48.5668L100.744 49.2894L100.157 48.8597C100.11 48.8252 100.055 48.8079 99.9992 48.8079C99.9438 48.8079 99.8884 48.8251 99.8414 48.8595L99.2547 49.2884L99.3337 48.5659C99.3464 48.45 99.2826 48.3393 99.176 48.2922L98.5111 47.9985L99.1764 47.7057C99.2831 47.6588 99.3471 47.5481 99.3345 47.4322L99.2565 46.7096L99.8427 47.1393C99.9367 47.2082 100.065 47.2083 100.159 47.1395L100.745 46.7106L100.666 47.4331C100.654 47.549 100.717 47.6597 100.824 47.7068L101.489 48.0005L100.824 48.2932Z" fill="white" fill-opacity="0.8"/>
</g>
<g opacity="0.4" clip-path="url(#clip2_6728_6840)">
<path d="M18.9882 47.5394L17.7675 47.8665L16.9449 47.3915L18.2941 47.0299C18.4367 46.9917 18.5214 46.8451 18.4832 46.7024C18.445 46.5598 18.2983 46.475 18.1556 46.5133L16.2898 47.0132L15.5831 46.6052C15.5592 46.5915 15.5342 46.5818 15.5087 46.576L16.2594 46.2457C16.3564 46.2029 16.4191 46.107 16.4191 46.0011C16.4192 45.8951 16.3567 45.7991 16.2598 45.7562L15.5072 45.4238C15.5332 45.418 15.5588 45.4087 15.5831 45.3947L16.2898 44.9867L18.1557 45.4866C18.1789 45.4928 18.2022 45.4958 18.2251 45.4958C18.3432 45.4958 18.4513 45.417 18.4833 45.2975C18.5215 45.1548 18.4369 45.0082 18.2942 44.97L16.9449 44.6084L17.7676 44.1335L18.9883 44.4605C19.0114 44.4667 19.0347 44.4697 19.0577 44.4697C19.1757 44.4697 19.2838 44.3909 19.3158 44.2714C19.354 44.1287 19.2694 43.9821 19.1267 43.9439L18.4227 43.7553L19.0982 43.3653C19.2261 43.2914 19.2699 43.1279 19.1961 43C19.1222 42.872 18.9587 42.8282 18.8308 42.9021L18.1552 43.2921L18.3438 42.5881C18.3821 42.4454 18.2974 42.2988 18.1547 42.2605C18.0121 42.2223 17.8655 42.307 17.8272 42.4497L17.5002 43.6703L16.6775 44.1453L17.0391 42.7961C17.0773 42.6534 16.9927 42.5068 16.85 42.4685C16.7073 42.4302 16.5607 42.515 16.5224 42.6576L16.0225 44.5235L15.3158 44.9315C15.2922 44.9452 15.2715 44.9619 15.2539 44.9808L15.3431 44.1658C15.3546 44.0604 15.3028 43.9582 15.2111 43.9052C15.1193 43.8521 15.0049 43.8583 14.9194 43.9208L14.2552 44.4063C14.2631 44.381 14.2674 44.3541 14.2674 44.3262V43.5102L15.6334 42.1442C15.7378 42.0398 15.7378 41.8705 15.6334 41.766C15.5289 41.6616 15.3596 41.6616 15.2551 41.766L14.2674 42.7537V41.8039L15.161 40.9103C15.2654 40.8058 15.2654 40.6365 15.161 40.532C15.0565 40.4276 14.8872 40.4276 14.7827 40.532L14.2674 41.0474V40.2674C14.2674 40.1198 14.1476 40 13.9999 40C13.8522 40 13.7325 40.1198 13.7325 40.2674V41.0475L13.2171 40.5321C13.1127 40.4277 12.9433 40.4277 12.8389 40.5321C12.7344 40.6365 12.7344 40.8059 12.8389 40.9103L13.7325 41.8039V42.7538L12.7447 41.7661C12.6403 41.6617 12.471 41.6617 12.3665 41.7661C12.2621 41.8706 12.2621 42.0399 12.3665 42.1444L13.7325 43.5102V44.3263C13.7325 44.3532 13.7365 44.3792 13.744 44.4037L13.0835 43.9196C12.9981 43.8569 12.8836 43.8507 12.7918 43.9036C12.7 43.9565 12.6481 44.0586 12.6595 44.164L12.748 44.9829C12.73 44.9631 12.7086 44.9456 12.6841 44.9315L11.9774 44.5235L11.4774 42.6576C11.4392 42.5149 11.2926 42.4302 11.1499 42.4685C11.0072 42.5067 10.9226 42.6534 10.9608 42.796L11.3224 44.1452L10.4997 43.6703L10.1726 42.4496C10.1344 42.3069 9.9877 42.2223 9.84505 42.2605C9.70237 42.2988 9.61773 42.4454 9.65594 42.5881L9.84459 43.292L9.16911 42.902C9.04122 42.8282 8.87766 42.872 8.80379 42.9999C8.72992 43.1278 8.77376 43.2914 8.90167 43.3652L9.57721 43.7553L8.87319 43.9439C8.73054 43.9822 8.64587 44.1288 8.68409 44.2714C8.7161 44.3909 8.82414 44.4697 8.94224 44.4697C8.96513 44.4697 8.98845 44.4668 9.01164 44.4605L10.2323 44.1335L11.055 44.6085L9.70571 44.97C9.56306 45.0083 9.47839 45.1549 9.51661 45.2976C9.54862 45.4171 9.65667 45.4959 9.77477 45.4959C9.79766 45.4959 9.82098 45.4929 9.84417 45.4867L11.71 44.9867L12.4167 45.3947C12.4402 45.4083 12.4649 45.4175 12.49 45.4233L11.7405 45.7531C11.6436 45.7959 11.5809 45.8918 11.5808 45.9977C11.5808 46.1037 11.6433 46.1997 11.7402 46.2425L12.4938 46.5755C12.4674 46.5812 12.4414 46.5909 12.4167 46.6052L11.71 47.0132L9.84403 46.5133C9.70136 46.475 9.55472 46.5597 9.5165 46.7024C9.47826 46.8451 9.56293 46.9917 9.70561 47.0299L11.0548 47.3915L10.2322 47.8664L9.01151 47.5394C8.8688 47.5011 8.7222 47.5858 8.68398 47.7285C8.64576 47.8711 8.73043 48.0178 8.87308 48.056L9.57708 48.2446L8.90159 48.6346C8.77368 48.7085 8.72984 48.8721 8.80371 49C8.85324 49.0857 8.94312 49.1337 9.03555 49.1337C9.08091 49.1337 9.1269 49.1221 9.16903 49.0978L9.84457 48.7078L9.65592 49.4118C9.61768 49.5545 9.70235 49.7011 9.84502 49.7394C9.86821 49.7455 9.8915 49.7486 9.91442 49.7486C10.0325 49.7486 10.1406 49.6698 10.1726 49.5502L10.4996 48.3296L11.3223 47.8546L10.9608 49.2038C10.9226 49.3465 11.0072 49.4931 11.1499 49.5314C11.1731 49.5375 11.1964 49.5406 11.2193 49.5406C11.3374 49.5406 11.4455 49.4617 11.4775 49.3423L11.9774 47.4763L12.6841 47.0683C12.7077 47.0547 12.7284 47.038 12.7461 47.019L12.657 47.8329C12.6455 47.9383 12.6972 48.0405 12.789 48.0936C12.8807 48.1466 12.9951 48.1404 13.0807 48.078L13.7452 47.5922C13.737 47.6179 13.7325 47.6452 13.7325 47.6736V48.4897L12.3666 49.8556C12.2621 49.9601 12.2621 50.1294 12.3666 50.2339C12.4188 50.2861 12.4872 50.3122 12.5557 50.3122C12.6241 50.3122 12.6926 50.2861 12.7448 50.2339L13.7325 49.2462V50.1961L12.8389 51.0898C12.7345 51.1942 12.7345 51.3635 12.8389 51.468C12.8912 51.5202 12.9596 51.5463 13.028 51.5463C13.0965 51.5463 13.1649 51.5202 13.2171 51.468L13.7325 50.9526V51.7326C13.7325 51.8803 13.8522 52 13.9999 52C14.1476 52 14.2674 51.8803 14.2674 51.7326V50.9526L14.7827 51.4679C14.8872 51.5723 15.0565 51.5723 15.161 51.4679C15.2654 51.3635 15.2654 51.1941 15.161 51.0897L14.2674 50.1961V49.2462L15.2551 50.2339C15.3595 50.3383 15.5288 50.3383 15.6333 50.2339C15.7378 50.1295 15.7378 49.9601 15.6333 49.8556L14.2674 48.4898V47.6737C14.2674 47.6462 14.2632 47.6197 14.2555 47.5946L14.9166 48.0793C14.9634 48.1136 15.019 48.131 15.0747 48.131C15.1207 48.131 15.1668 48.1192 15.2082 48.0953C15.3001 48.0423 15.352 47.9402 15.3406 47.8349L15.2522 47.0175C15.2702 47.0372 15.2914 47.0545 15.3158 47.0684L16.0225 47.4765L16.5225 49.3424C16.5545 49.4619 16.6625 49.5407 16.7806 49.5407C16.8035 49.5407 16.8269 49.5378 16.8501 49.5315C16.9927 49.4932 17.0774 49.3466 17.0391 49.2039L16.6776 47.8547L17.5002 48.3297L17.8273 49.5503C17.8593 49.6699 17.9673 49.7487 18.0854 49.7487C18.1083 49.7486 18.1317 49.7457 18.1549 49.7395C18.2975 49.7012 18.3822 49.5546 18.3439 49.4119L18.1553 48.7079L18.8308 49.098C18.8729 49.1222 18.9189 49.1338 18.9643 49.1338C19.0567 49.1338 19.1466 49.0858 19.1961 49.0001C19.27 48.8722 19.2261 48.7086 19.0982 48.6348L18.4227 48.2447L19.1267 48.0561C19.2694 48.0178 19.354 47.8712 19.3158 47.7286C19.2775 47.5858 19.1308 47.5011 18.9882 47.5394ZM14.8236 46.2932C14.7169 46.3402 14.6529 46.4509 14.6655 46.5668L14.7435 47.2894L14.1573 46.8597C14.1103 46.8252 14.0547 46.8079 13.9992 46.8079C13.9438 46.8079 13.8884 46.8251 13.8414 46.8595L13.2547 47.2884L13.3337 46.5659C13.3464 46.45 13.2826 46.3393 13.176 46.2922L12.5111 45.9985L13.1764 45.7057C13.2831 45.6588 13.3471 45.5481 13.3345 45.4322L13.2565 44.7096L13.8427 45.1393C13.9367 45.2082 14.0645 45.2083 14.1586 45.1395L14.7453 44.7106L14.6662 45.4331C14.6535 45.549 14.7174 45.6597 14.824 45.7068L15.4888 46.0005L14.8236 46.2932Z" fill="white" fill-opacity="0.8"/>
</g>
<circle opacity="0.4" cx="67" cy="45" r="1" fill="white" fill-opacity="0.8"/>
<circle opacity="0.6" cx="22" cy="8" r="1" fill="white" fill-opacity="0.8"/>
<circle opacity="0.78" cx="96" cy="18" r="2" fill="white" fill-opacity="0.8"/>
</g>
<defs>
<clipPath id="clip0_6728_6840">
<rect width="12" height="12" fill="white" transform="translate(68)"/>
</clipPath>
<clipPath id="clip1_6728_6840">
<rect width="12" height="12" fill="white" transform="translate(94 42)"/>
</clipPath>
<clipPath id="clip2_6728_6840">
<rect width="12" height="12" fill="white" transform="translate(8 40)"/>
</clipPath>
</defs>
</svg>
