<svg width="28" height="28" viewBox="0 0 28 28" fill="none" xmlns="http://www.w3.org/2000/svg">
<rect width="28" height="28" rx="8" fill="white"/>
<path fill-rule="evenodd" clip-rule="evenodd" d="M15.7589 10.181V8.99575C15.7589 8.27611 15.1156 7.47515 14.0927 7.47515C13.0698 7.47515 12.4648 8.0472 12.2833 8.38816C12.2049 8.53554 12.1534 8.70018 12.1075 8.84735C12.0471 9.04067 11.9961 9.20383 11.9057 9.25807C11.8703 9.27931 11.8505 9.2988 11.8336 9.31541C11.7745 9.37351 11.7512 9.39642 11.223 9.33589C11.0141 9.31197 10.7923 9.28503 10.5752 9.25868C10.0864 9.19932 9.62218 9.14296 9.38698 9.13071C9.04736 9.11302 8.83503 8.9326 8.94824 8.47623C9.06145 8.01987 9.60176 6.18592 11.4429 5.48926C13.2841 4.7926 15.7224 4.75958 17.0771 5.45071C18.4317 6.14185 19.2216 6.93381 19.2216 9.57144V14.4092C19.2216 15.1121 19.6566 15.6495 19.9174 15.9717C19.9836 16.0535 20.0386 16.1214 20.0724 16.1746C20.2394 16.4377 20.3438 16.6966 20.0974 16.9096C19.851 17.1226 18.4353 18.317 18.214 18.4715C17.9926 18.626 17.7337 18.6511 17.4622 18.388C17.4135 18.3407 17.3598 18.29 17.3034 18.2368C17.0463 17.994 16.733 17.6981 16.5685 17.4275C16.537 17.3755 16.5075 17.3258 16.4799 17.2793C16.3324 17.0309 16.24 16.8753 16.1802 16.9597C16.1092 17.06 14.9173 18.3414 13.4274 18.5811C11.9376 18.8207 10.0951 18.7993 9.02521 17.0555C8.0228 15.4217 8.60113 13.2055 9.35254 12.2404C10.1039 11.2752 11.7432 10.6265 13.2784 10.4646C14.5066 10.335 15.4438 10.2215 15.7589 10.181ZM15.749 12.1127V13.4527C15.749 14.5253 15.0923 16.2376 13.6284 16.2376C12.1646 16.2376 11.8508 14.6478 12.1702 13.7651C12.4896 12.8824 13.097 12.4143 14.2896 12.2079C15.0925 12.069 15.5224 12.0982 15.6878 12.1094C15.7154 12.1113 15.7357 12.1127 15.749 12.1127Z" fill="#2C2E30"/>
<path d="M3.57561 18.8073C3.18399 18.5977 3.09876 18.5982 3.01147 18.7554C2.92417 18.9126 3.34158 19.2066 4.0488 19.7602C4.89159 20.4199 7.90796 22.8209 13.3606 23.0384C18.3001 23.2354 21.9145 21.0278 22.5112 20.6634L22.5183 20.659C23.0926 20.3083 23.0882 20.0891 23.0488 19.9752C23.0093 19.8612 22.8442 19.688 22.2693 19.9383C21.6943 20.1886 18.4759 21.6971 13.191 21.4685C7.90614 21.2399 4.01505 19.0425 3.57561 18.8073Z" fill="#F8A61B"/>
<path d="M21.832 18.4952C20.8284 18.8113 20.8756 19.0709 20.922 19.1449C20.9683 19.2189 21.0991 19.2186 21.2103 19.2017C21.3494 19.1805 22.7271 19 23.3679 19.0514C24.0087 19.1028 24.0419 19.4443 23.9422 19.94C23.8424 20.4357 23.6097 21.0825 23.4374 21.551C23.2651 22.0195 23.1714 22.1434 23.3377 22.1827C23.5039 22.222 24.1054 21.6356 24.4348 21.013C24.7643 20.3904 25.0122 19.4003 24.9995 18.9604C24.9869 18.5205 24.9237 18.4648 24.5041 18.3435C24.0844 18.2221 22.8356 18.1792 21.832 18.4952Z" fill="#F8A61B"/>
</svg>
