<svg width="28" height="28" viewBox="0 0 28 28" fill="none" xmlns="http://www.w3.org/2000/svg">
<rect width="28" height="28" rx="8" fill="white"/>
<rect x="1" y="1" width="26" height="26" rx="7" fill="#FB7701"/>
<path d="M14.7207 14.5063C14.8553 14.5063 14.9805 14.5691 15.0566 14.6782L16.2754 16.5063L17.4912 14.6782C17.5674 14.5692 17.6943 14.5064 17.8262 14.5063H18.1719C18.479 14.5039 18.7275 14.7549 18.7275 15.062V18.8833C18.73 19.193 18.479 19.4418 18.1719 19.4419C17.8621 19.4419 17.6133 19.1905 17.6133 18.8833V16.3745L16.6738 17.6997C16.4758 17.9739 16.0695 17.9739 15.874 17.6997L14.9346 16.3745V18.8833C14.9345 19.193 14.6831 19.4418 14.376 19.4419C14.0688 19.4419 13.8194 19.1905 13.8193 18.8833V15.062C13.8168 14.7548 14.0688 14.5063 14.376 14.5063H14.7207ZM23.3594 14.5063C23.6664 14.504 23.915 14.7549 23.915 15.062V17.355C23.9175 18.7564 23.0542 19.4419 21.6934 19.4419C20.3326 19.4419 19.5002 18.7488 19.5 17.3882V15.062C19.4975 14.7548 19.7484 14.5063 20.0557 14.5063C20.3654 14.5038 20.6143 14.7548 20.6143 15.062V17.3628C20.6119 18.1141 21.0257 18.5024 21.7061 18.5024C22.3865 18.505 22.8008 18.1288 22.8008 17.395V15.062C22.8008 14.7548 23.0521 14.5063 23.3594 14.5063ZM7.69629 14.5063C8.00591 14.504 8.25488 14.7549 8.25488 15.062C8.25484 15.3716 8.00335 15.6204 7.69629 15.6206H6.62402V18.8784C6.62388 19.1881 6.37257 19.437 6.06543 19.437C5.75851 19.4368 5.50991 19.1854 5.50977 18.8784V15.6206H4.43848C4.12874 15.6206 3.87992 15.3692 3.87988 15.062C3.87988 14.7548 4.13125 14.5063 4.43848 14.5063H7.69629ZM12.5176 14.5063C12.8248 14.5038 13.0732 14.7548 13.0732 15.062C13.0757 15.3717 12.8248 15.6206 12.5176 15.6206H10.0547V16.4126H12.1973C12.507 16.4126 12.7558 16.664 12.7559 16.9712C12.7559 17.2784 12.5045 17.5278 12.1973 17.5278H10.0547V18.3198H12.5176C12.8248 18.3198 13.0732 18.5712 13.0732 18.8784C13.0756 19.1881 12.8247 19.437 12.5176 19.437H9.49902C9.18935 19.437 8.94057 19.1855 8.94043 18.8784V15.062C8.94043 14.7548 9.1918 14.5063 9.49902 14.5063H12.5176ZM7.18066 8.68604L7.19043 8.70459C7.2541 8.80909 7.49466 9.26059 7.10645 9.75537L7.08691 9.77588C7.00312 9.87236 6.8502 10.0882 6.91113 10.3599L6.92383 10.4106L6.91602 10.3774L8.0332 12.188C8.11445 12.32 8.0916 12.4872 7.98242 12.5913L7.94434 12.6245C7.65476 12.8276 7.07342 13.1069 6.06836 13.1069C5.0604 13.1069 4.4789 12.8276 4.18945 12.6245C4.0499 12.5255 4.00937 12.3352 4.10059 12.188L5.2207 10.3774C5.29941 10.0753 5.10605 9.83916 5.02734 9.75537C4.64198 9.261 4.87946 8.80705 4.94336 8.70459L4.95605 8.68604C5.50703 8.65557 5.87285 8.86182 6.06836 9.15381C6.23587 8.9 6.53288 8.71212 6.9668 8.68408L7.07129 8.68115L7.18066 8.68604ZM9.56738 8.83643C9.81621 8.63838 10.3139 8.76807 10.6973 9.52979C10.7076 9.5451 11.0361 10.0321 11.251 10.1646C11.4083 10.2634 11.5987 10.2907 11.8447 10.2349C12.1391 10.1689 12.322 10.083 12.5098 9.88525C12.6621 9.72275 12.8732 9.6335 13.0078 9.90771C13.0662 10.0245 13.1722 10.1996 12.9844 10.4966C12.9463 10.5549 12.8959 10.6164 12.835 10.6772C12.7513 10.7635 12.6929 10.8294 12.665 10.8979C12.7209 11.0629 12.7717 11.1999 12.8174 11.3091L13.1016 11.9438C13.1549 11.9007 13.2061 11.8577 13.2568 11.812C13.3406 11.736 13.4676 11.7386 13.5488 11.8198C13.6247 11.9011 13.6218 12.0279 13.5381 12.104C12.8906 12.698 12.0349 13.0337 11.126 13.0337C10.2196 13.0311 9.36907 12.6955 8.72168 12.104C8.68362 12.0685 8.66076 12.0176 8.6582 11.9644C8.65567 11.9086 8.67596 11.8579 8.71387 11.8198C8.79508 11.7412 8.92207 11.736 9.00586 11.812C9.07185 11.8729 9.17859 11.9568 9.32324 12.0659C9.58984 11.6647 9.76777 11.0931 9.82617 10.73C9.7043 10.8138 9.42265 11.0983 9.07227 10.8774C8.45027 10.4865 8.42245 10.3192 8.90723 9.63135C8.93769 9.59073 9.37692 8.98885 9.56738 8.83643ZM17.7383 8.75537C18.1623 8.90784 18.9289 9.35679 18.8301 9.87451C18.7158 10.4712 18.5733 10.6465 18.5732 11.436C18.5707 12.2257 18.601 12.7849 18.6416 12.9702H18.1699C18.2182 12.7849 18.4285 11.0044 17.9766 11.0044C17.5246 11.0072 17.1081 12.9702 15.8184 12.9702C14.3357 12.9677 13.8331 12.787 13.8711 12.561C13.9168 12.2868 15.0949 11.7438 15.7119 11.7388C15.9302 11.7389 16.0651 11.9972 16.2275 11.9185C17.7048 11.2049 16.9259 9.52722 17.7383 8.75537ZM22.3691 8.81885C23.2248 8.81885 23.9332 9.48135 23.9941 10.3345L24.0908 11.7026C24.134 12.3551 23.6211 12.9066 22.9688 12.9067H20.4443C19.7945 12.904 19.2795 12.3525 19.3252 11.7026L19.4209 10.3345C19.4793 9.48151 20.1904 8.81909 21.0459 8.81885H22.3691ZM11.1309 11.9673C10.7554 11.9675 10.4026 12.2004 10.2959 12.52C10.5624 12.5911 10.7098 12.6294 11.126 12.6294C11.4027 12.6319 11.6747 12.5969 11.9463 12.5259C11.8346 12.1628 11.5295 11.9673 11.1309 11.9673ZM22.8418 9.95361C22.8418 9.80635 22.3086 9.80635 22.3086 9.95361V9.9917C22.3084 10.3242 22.036 10.5933 21.7061 10.5933C21.3763 10.593 21.1076 10.3215 21.1074 9.9917V9.95361C21.1049 9.80635 20.5742 9.80635 20.5742 9.95361V9.9917C20.5744 10.616 21.0818 11.1233 21.7061 11.1235C22.3331 11.1235 22.8417 10.6162 22.8418 9.9917V9.95361Z" fill="#FCFCFC"/>
</svg>
