<svg width="28" height="28" viewBox="0 0 28 28" fill="none" xmlns="http://www.w3.org/2000/svg">
<rect width="28" height="28" rx="8" fill="white"/>
<path d="M5.37249 9.8569C5.48708 8.63197 6.51519 7.69557 7.74546 7.69556L18.3567 7.69556C19.5855 7.69556 20.6129 8.62981 20.7293 9.85309L21.9225 22.391C22.0557 23.7901 20.9554 25.0001 19.5499 25.0001H6.5725C5.16854 25.0001 4.06876 23.7926 4.19953 22.3948L5.37249 9.8569Z" fill="#1DF8F0"/>
<path d="M7.18206 9.8569C7.29666 8.63197 8.32476 7.69557 9.55503 7.69556L20.1662 7.69556C21.3951 7.69556 22.4224 8.62981 22.5389 9.85309L23.7321 22.391C23.8652 23.7901 22.7649 25.0001 21.3595 25.0001H8.38207C6.97811 25.0001 5.87833 23.7926 6.0091 22.3948L7.18206 9.8569Z" fill="#FF2A51"/>
<path d="M6.29778 9.8569C6.41238 8.63197 7.44048 7.69557 8.67075 7.69556L19.282 7.69556C20.5108 7.69556 21.5382 8.62981 21.6546 9.85309L22.8478 22.391C22.9809 23.7901 21.8807 25.0001 20.4752 25.0001H7.4978C6.09383 25.0001 4.99405 23.7926 5.12482 22.3948L6.29778 9.8569Z" fill="black"/>
<path d="M17.3928 13.2388C16.6277 12.7395 16.1641 11.8896 16.1641 10.9756H14.2231L14.2193 18.7528C14.1854 19.6517 13.4279 20.3546 12.529 20.3188C11.6301 20.2849 10.9272 19.5273 10.963 18.6284C10.9969 17.7521 11.7168 17.0605 12.593 17.0605C12.757 17.0605 12.9191 17.0869 13.0736 17.1359V15.1535C12.9134 15.1308 12.7532 15.1195 12.593 15.1177C10.6238 15.1177 9.02197 16.7195 9.02197 18.6887C9.02574 20.6599 10.6219 22.2579 12.5949 22.2598C14.5642 22.2598 16.166 20.658 16.166 18.6887V14.7464C16.9518 15.3118 17.896 15.617 18.8646 15.6152V13.6742C18.3407 13.676 17.83 13.5234 17.3928 13.2388Z" fill="white"/>
<path d="M10.3553 6.69076C10.3554 5.12768 11.6228 3.86033 13.1859 3.86019L14.9 3.4201C14.3878 3.15117 13.8046 2.99902 13.1859 2.99902C11.1469 2.99917 9.49428 4.65179 9.49414 6.69076V7.70768H10.3553V6.69076Z" fill="#1DF8F0"/>
<path d="M14.8426 3.86019C16.4058 3.86019 17.673 5.12759 17.6732 6.69076V7.70768H18.5352V6.69076C18.5351 4.65171 16.8817 2.99902 14.8426 2.99902C14.2711 2.99906 13.73 3.12892 13.2471 3.36072L14.8426 3.86019Z" fill="#FF2A51"/>
<path d="M10.29 8.83105V7.42025C10.29 7.17471 10.4894 6.97534 10.7349 6.97534C10.9805 6.97534 11.1799 7.17471 11.1799 7.42025V8.83105C11.1797 9.07647 10.9804 9.27507 10.7349 9.27507C10.4895 9.27507 10.2902 9.07647 10.29 8.83105ZM16.8132 8.83105V7.42025C16.8132 7.17471 17.0126 6.97534 17.2581 6.97534C17.5035 6.97554 17.7021 7.17483 17.7021 7.42025V8.83105C17.702 9.07635 17.5034 9.27487 17.2581 9.27507C17.0127 9.27507 16.8134 9.07647 16.8132 8.83105Z" fill="white"/>
<path d="M16.8132 6.69067C16.8131 5.1351 15.5517 3.87443 13.9961 3.87443C12.4406 3.87457 11.18 5.13519 11.1799 6.69067V7.7076H10.29V6.69067C10.2902 4.64412 11.9495 2.98476 13.9961 2.98462C16.0428 2.98462 17.702 4.64403 17.7021 6.69067V7.7076H16.8132V6.69067Z" fill="black"/>
</svg>
