<svg width="28" height="28" viewBox="0 0 28 28" fill="none" xmlns="http://www.w3.org/2000/svg">
<rect width="28" height="28" rx="8" fill="white"/>
<path d="M13.2481 3.71349C13.4063 3.71349 13.4855 3.79262 13.6437 3.87175C12.6941 4.26741 11.7446 5.29613 11.2698 7.51182L9.52887 7.98661C10.0828 6.40397 11.1906 3.71349 13.2481 3.71349ZM14.1185 4.50481C14.2768 4.9796 14.4351 5.53352 14.4351 6.40397C14.4351 6.48311 14.4351 6.48311 14.4351 6.56224L12.1402 7.19529C12.615 5.53352 13.4063 4.82133 14.1185 4.50481ZM16.176 5.92918L15.1472 6.24571C15.1472 6.16658 15.1472 6.08745 15.1472 6.00831C15.1472 5.29613 15.0681 4.7422 14.9098 4.26741C15.4638 4.42567 15.9386 5.13786 16.176 5.92918ZM21.3195 7.19529C21.3195 7.11616 21.2404 7.03703 21.1613 7.03703C21.003 7.03703 19.3412 6.87877 19.3412 6.87877C19.3412 6.87877 18.1543 5.69179 17.996 5.61265C17.8377 5.45439 17.6003 5.53352 17.5212 5.53352C17.5212 5.53352 17.2838 5.61265 16.8881 5.77092C16.4925 4.66307 15.7803 3.63435 14.5933 3.63435H14.5142C14.1977 3.15956 13.7229 3.0013 13.3272 3.0013C10.4784 2.92217 9.13321 6.48311 8.65841 8.30314C8.02536 8.46141 7.3923 8.6988 6.68011 8.9362C6.04706 9.09446 6.04706 9.17359 5.96792 9.72752C5.88879 10.1232 4.30615 22.626 4.30615 22.626L16.8881 25L23.6935 23.4965C23.6935 23.4965 21.3195 7.35356 21.3195 7.19529Z" fill="#88C229"/>
<path d="M21.0821 7.03724C21.003 7.03724 19.3412 6.87877 19.3412 6.87877C19.3412 6.87877 18.1543 5.69179 17.996 5.61265C17.9169 5.53352 17.9168 5.53373 17.8377 5.53373L16.8881 25L23.6935 23.4965C23.6935 23.4965 21.3195 7.35356 21.3195 7.19529C21.3195 7.11616 21.1612 7.03724 21.0821 7.03724Z" fill="#4E9030"/>
<path d="M14.5933 10.8355L13.7228 13.3677C13.7228 13.3677 13.0106 12.972 12.0611 12.972C10.7158 12.972 10.6367 13.7633 10.6367 14.0007C10.6367 15.1086 13.6437 15.5834 13.6437 18.2739C13.6437 20.4104 12.2984 21.7557 10.4784 21.7557C8.34185 21.7557 7.234 20.4104 7.234 20.4104L7.78792 18.5113C7.78792 18.5113 8.89577 19.4608 9.84536 19.4608C10.4784 19.4608 10.7158 18.986 10.7158 18.5904C10.7158 17.0869 8.26271 17.0078 8.26271 14.5547C8.26271 12.4972 9.76622 10.5189 12.6941 10.5189C14.0394 10.4398 14.5933 10.8355 14.5933 10.8355Z" fill="#FFFFFD"/>
</svg>
