<svg width="28" height="28" viewBox="0 0 28 28" fill="none" xmlns="http://www.w3.org/2000/svg">
<rect width="28" height="28" rx="8" fill="white"/>
<path d="M9.1665 10.8709H18.7391V22.7557H9.1665V10.8709Z" fill="white"/>
<path fill-rule="evenodd" clip-rule="evenodd" d="M17.5484 19.4295C17.4212 20.4792 16.7851 21.3199 15.7999 21.7408C15.2512 21.9753 14.5145 22.1019 13.9314 22.0622C13.0217 22.0274 12.1671 21.8062 11.3794 21.4018C11.0979 21.2572 10.6784 20.9686 10.3563 20.6983C10.2747 20.63 10.265 20.5862 10.319 20.5096C10.3481 20.4656 10.4019 20.3863 10.5207 20.2123C10.693 19.9598 10.7145 19.9282 10.7339 19.8986C10.789 19.8139 10.8786 19.8066 10.9669 19.8761C10.9762 19.8833 10.9762 19.8833 10.9832 19.8888C10.9977 19.9 10.9977 19.9 11.0319 19.9266C11.0665 19.9536 11.087 19.9695 11.0953 19.9757C11.9449 20.6411 12.9344 21.0248 13.9333 21.0632C15.3231 21.0443 16.3225 20.4194 16.5015 19.4599C16.6984 18.4039 15.8695 17.4917 14.2476 16.9832C13.7404 16.8242 12.4582 16.311 12.2219 16.1724C11.1117 15.521 10.5927 14.6678 10.6664 13.614C10.7795 12.1533 12.1355 11.0638 13.849 11.0565C14.6153 11.0549 15.3799 11.2142 16.1145 11.5237C16.3746 11.6333 16.839 11.886 16.9993 12.0058C17.0916 12.0736 17.1099 12.1526 17.057 12.2379C17.0274 12.2873 16.9785 12.3657 16.8755 12.5291L16.8744 12.5309C16.7388 12.7462 16.7346 12.7529 16.7035 12.8032C16.6497 12.8851 16.5865 12.8927 16.4896 12.8312C15.7036 12.3031 14.8322 12.0375 13.8738 12.0183C12.6807 12.0419 11.7864 12.752 11.7276 13.7193C11.712 14.593 12.3673 15.2308 13.7827 15.7171C16.6558 16.6404 17.7553 17.7228 17.5484 19.4295ZM14.0001 4.3473C15.8707 4.3473 17.3954 6.12242 17.4667 8.3445H10.5336C10.605 6.12242 12.1297 4.3473 14.0001 4.3473ZM23.6808 8.76226C23.6808 8.53153 23.4949 8.3445 23.2658 8.3445H18.772C18.6617 5.41054 16.5675 3.07104 14.0001 3.07104C11.4329 3.07104 9.33864 5.41054 9.22838 8.3445L4.72812 8.34458C4.50247 8.34868 4.3208 8.53415 4.3208 8.76226C4.3208 8.77317 4.32121 8.78399 4.32202 8.79465H4.31885L4.96036 22.936C4.96044 22.9753 4.9619 23.015 4.96484 23.055C4.96549 23.064 4.96622 23.0729 4.96696 23.0819L4.96834 23.1117L4.96989 23.1133C5.06736 24.0973 5.7815 24.8899 6.75256 24.9264L6.75476 24.9286H21.03C21.0367 24.9287 21.0435 24.9287 21.0502 24.9287C21.057 24.9287 21.0638 24.9287 21.0705 24.9286H21.1009C22.0889 24.9016 22.8898 24.0974 22.9744 23.1012L22.9755 23.0874C22.9763 23.0769 22.9771 23.0665 22.9777 23.056C22.9793 23.0309 22.9803 23.0059 22.9807 22.981L23.6807 8.78384C23.6811 8.7767 23.6808 8.76948 23.6808 8.76226Z" fill="#EE4D2D"/>
</svg>
