<svg width="28" height="28" viewBox="0 0 28 28" fill="none" xmlns="http://www.w3.org/2000/svg">
<rect x="0.5" y="0.5" width="27" height="27" rx="7.5" fill="#FF4500"/>
<rect x="0.5" y="0.5" width="27" height="27" rx="7.5" stroke="white"/>
<g clip-path="url(#clip0_41478_27287)">
<path d="M14 1C6.81991 1 1 6.81991 1 14C1 17.5894 2.45528 20.8394 4.80731 23.1927L2.3313 25.6687C1.84019 26.1598 2.18806 27 2.88259 27H14C21.1801 27 27 21.1801 27 14C27 6.81991 21.1801 1 14 1Z" fill="#FF4500"/>
<path d="M21.3691 16.913C23.0457 16.913 24.4048 15.5538 24.4048 13.8772C24.4048 12.2006 23.0457 10.8415 21.3691 10.8415C19.6925 10.8415 18.3333 12.2006 18.3333 13.8772C18.3333 15.5538 19.6925 16.913 21.3691 16.913Z" fill="url(#paint0_radial_41478_27287)"/>
<path d="M6.63093 16.913C8.30752 16.913 9.66667 15.5538 9.66667 13.8772C9.66667 12.2006 8.30752 10.8415 6.63093 10.8415C4.95433 10.8415 3.59518 12.2006 3.59518 13.8772C3.59518 15.5538 4.95433 16.913 6.63093 16.913Z" fill="url(#paint1_radial_41478_27287)"/>
<path d="M14.0072 22.9844C18.7937 22.9844 22.6739 20.0743 22.6739 16.4844C22.6739 12.8946 18.7937 9.98444 14.0072 9.98444C9.22075 9.98444 5.34056 12.8946 5.34056 16.4844C5.34056 20.0743 9.22075 22.9844 14.0072 22.9844Z" fill="url(#paint2_radial_41478_27287)"/>
<path d="M11.4457 15.8633C11.3952 16.9563 10.6645 17.3535 9.81352 17.3535C8.9625 17.3535 8.3137 16.7601 8.36426 15.6671C8.41481 14.5742 9.14546 13.8592 9.99648 13.8592C10.8475 13.8592 11.4963 14.7716 11.4457 15.8645V15.8633Z" fill="url(#paint3_radial_41478_27287)"/>
<path d="M16.5699 15.8633C16.6205 16.9563 17.3511 17.3535 18.2021 17.3535C19.0531 17.3535 19.7019 16.7601 19.6514 15.6671C19.6008 14.5742 18.8702 13.8592 18.0192 13.8592C17.1681 13.8592 16.5194 14.7716 16.5699 15.8645V15.8633Z" fill="url(#paint4_radial_41478_27287)"/>
<path d="M10.5851 15.3746C10.7712 15.3746 10.9221 15.2103 10.9221 15.0075C10.9221 14.8047 10.7712 14.6404 10.5851 14.6404C10.399 14.6404 10.2481 14.8047 10.2481 15.0075C10.2481 15.2103 10.399 15.3746 10.5851 15.3746Z" fill="#FFC49C"/>
<path d="M18.5994 15.3746C18.7855 15.3746 18.9364 15.2103 18.9364 15.0075C18.9364 14.8047 18.7855 14.6404 18.5994 14.6404C18.4132 14.6404 18.2623 14.8047 18.2623 15.0075C18.2623 15.2103 18.4132 15.3746 18.5994 15.3746Z" fill="#FFC49C"/>
<path d="M14.0072 18.2033C12.9528 18.2033 11.9417 18.2551 11.0076 18.3502C10.8475 18.3658 10.7464 18.5319 10.809 18.68C11.3326 19.9306 12.5676 20.8094 14.0072 20.8094C15.4469 20.8094 16.6831 19.9306 17.2055 18.68C17.2681 18.5319 17.1657 18.3658 17.0068 18.3502C16.0716 18.2551 15.0617 18.2033 14.0072 18.2033Z" fill="url(#paint5_radial_41478_27287)"/>
<path d="M18.7534 9.10093C19.9414 9.10093 20.9044 8.13788 20.9044 6.94991C20.9044 5.76193 19.9414 4.79889 18.7534 4.79889C17.5655 4.79889 16.6024 5.76193 16.6024 6.94991C16.6024 8.13788 17.5655 9.10093 18.7534 9.10093Z" fill="url(#paint6_radial_41478_27287)"/>
<path d="M13.9759 10.2589C13.7183 10.2589 13.5101 10.1518 13.5101 9.98565C13.5101 8.05852 15.0785 6.49009 17.0056 6.49009C17.2632 6.49009 17.4715 6.69833 17.4715 6.95593C17.4715 7.21352 17.2632 7.42176 17.0056 7.42176C15.5925 7.42176 14.443 8.5713 14.443 9.98444C14.443 10.1506 14.2347 10.2577 13.9771 10.2577L13.9759 10.2589Z" fill="url(#paint7_radial_41478_27287)"/>
<path d="M8.56167 15.7634C8.60861 14.7331 9.29352 14.059 10.0892 14.059C10.8427 14.059 11.4253 14.8281 11.4469 15.7839C11.4674 14.715 10.8294 13.8592 9.99648 13.8592C9.16352 13.8592 8.41481 14.5874 8.36426 15.6888C8.3137 16.7902 8.9625 17.3535 9.81352 17.3535C9.83398 17.3535 9.85565 17.3535 9.87611 17.3535C9.10092 17.3343 8.51593 16.7769 8.56287 15.7646L8.56167 15.7634Z" fill="#842123"/>
<path d="M19.4528 15.7634C19.4058 14.7331 18.7209 14.059 17.9253 14.059C17.1718 14.059 16.5892 14.8281 16.5675 15.7839C16.547 14.715 17.185 13.8592 18.018 13.8592C18.869 13.8592 19.5996 14.5874 19.6502 15.6888C19.7007 16.7902 19.0519 17.3535 18.2009 17.3535C18.1805 17.3535 18.1588 17.3535 18.1383 17.3535C18.9135 17.3343 19.4985 16.7769 19.4516 15.7646L19.4528 15.7634Z" fill="#842123"/>
</g>
<defs>
<radialGradient id="paint0_radial_41478_27287" cx="0" cy="0" r="1" gradientUnits="userSpaceOnUse" gradientTransform="translate(14.2732 6.19861) scale(26.2783 22.8622)">
<stop stop-color="#FEFFFF"/>
<stop offset="0.4" stop-color="#FEFFFF"/>
<stop offset="0.51" stop-color="#F9FCFC"/>
<stop offset="0.62" stop-color="#EDF3F5"/>
<stop offset="0.7" stop-color="#DEE9EC"/>
<stop offset="0.72" stop-color="#D8E4E8"/>
<stop offset="0.76" stop-color="#CCD8DF"/>
<stop offset="0.8" stop-color="#C8D5DD"/>
<stop offset="0.83" stop-color="#CCD6DE"/>
<stop offset="0.85" stop-color="#D8DBE2"/>
<stop offset="0.88" stop-color="#EDE3E9"/>
<stop offset="0.9" stop-color="#FFEBEF"/>
</radialGradient>
<radialGradient id="paint1_radial_41478_27287" cx="0" cy="0" r="1" gradientUnits="userSpaceOnUse" gradientTransform="translate(14.2732 -34.9201) scale(26.2783 22.8622)">
<stop stop-color="#FEFFFF"/>
<stop offset="0.4" stop-color="#FEFFFF"/>
<stop offset="0.51" stop-color="#F9FCFC"/>
<stop offset="0.62" stop-color="#EDF3F5"/>
<stop offset="0.7" stop-color="#DEE9EC"/>
<stop offset="0.72" stop-color="#D8E4E8"/>
<stop offset="0.76" stop-color="#CCD8DF"/>
<stop offset="0.8" stop-color="#C8D5DD"/>
<stop offset="0.83" stop-color="#CCD6DE"/>
<stop offset="0.85" stop-color="#D8DBE2"/>
<stop offset="0.88" stop-color="#EDE3E9"/>
<stop offset="0.9" stop-color="#FFEBEF"/>
</radialGradient>
<radialGradient id="paint2_radial_41478_27287" cx="0" cy="0" r="1" gradientUnits="userSpaceOnUse" gradientTransform="translate(14.2799 3.60794) scale(27.7658 25.9148)">
<stop stop-color="#FEFFFF"/>
<stop offset="0.4" stop-color="#FEFFFF"/>
<stop offset="0.51" stop-color="#F9FCFC"/>
<stop offset="0.62" stop-color="#EDF3F5"/>
<stop offset="0.7" stop-color="#DEE9EC"/>
<stop offset="0.72" stop-color="#D8E4E8"/>
<stop offset="0.76" stop-color="#CCD8DF"/>
<stop offset="0.8" stop-color="#C8D5DD"/>
<stop offset="0.83" stop-color="#CCD6DE"/>
<stop offset="0.85" stop-color="#D8DBE2"/>
<stop offset="0.88" stop-color="#EDE3E9"/>
<stop offset="0.9" stop-color="#FFEBEF"/>
</radialGradient>
<radialGradient id="paint3_radial_41478_27287" cx="0" cy="0" r="1" gradientUnits="userSpaceOnUse" gradientTransform="translate(14.6785 19.5251) scale(13.9393 17.8386)">
<stop stop-color="#FF6600"/>
<stop offset="0.5" stop-color="#FF4500"/>
<stop offset="0.7" stop-color="#FC4301"/>
<stop offset="0.82" stop-color="#F43F07"/>
<stop offset="0.92" stop-color="#E53812"/>
<stop offset="1" stop-color="#D4301F"/>
</radialGradient>
<radialGradient id="paint4_radial_41478_27287" cx="0" cy="0" r="1" gradientUnits="userSpaceOnUse" gradientTransform="translate(13.4105 19.5251) rotate(-180) scale(13.9393 17.8386)">
<stop stop-color="#FF6600"/>
<stop offset="0.5" stop-color="#FF4500"/>
<stop offset="0.7" stop-color="#FC4301"/>
<stop offset="0.82" stop-color="#F43F07"/>
<stop offset="0.92" stop-color="#E53812"/>
<stop offset="1" stop-color="#D4301F"/>
</radialGradient>
<radialGradient id="paint5_radial_41478_27287" cx="0" cy="0" r="1" gradientUnits="userSpaceOnUse" gradientTransform="translate(13.937 30.6311) scale(22.0353 35.9052)">
<stop stop-color="#172E35"/>
<stop offset="0.29" stop-color="#0E1C21"/>
<stop offset="0.73" stop-color="#030708"/>
<stop offset="1"/>
</radialGradient>
<radialGradient id="paint6_radial_41478_27287" cx="0" cy="0" r="1" gradientUnits="userSpaceOnUse" gradientTransform="translate(14.2837 1.91749) scale(28.9317 28.3531)">
<stop stop-color="#FEFFFF"/>
<stop offset="0.4" stop-color="#FEFFFF"/>
<stop offset="0.51" stop-color="#F9FCFC"/>
<stop offset="0.62" stop-color="#EDF3F5"/>
<stop offset="0.7" stop-color="#DEE9EC"/>
<stop offset="0.72" stop-color="#D8E4E8"/>
<stop offset="0.76" stop-color="#CCD8DF"/>
<stop offset="0.8" stop-color="#C8D5DD"/>
<stop offset="0.83" stop-color="#CCD6DE"/>
<stop offset="0.85" stop-color="#D8DBE2"/>
<stop offset="0.88" stop-color="#EDE3E9"/>
<stop offset="0.9" stop-color="#FFEBEF"/>
</radialGradient>
<radialGradient id="paint7_radial_41478_27287" cx="0" cy="0" r="1" gradientUnits="userSpaceOnUse" gradientTransform="translate(22.6311 23.8112) scale(25.7551 27.0712)">
<stop offset="0.48" stop-color="#7A9299"/>
<stop offset="0.67" stop-color="#172E35"/>
<stop offset="0.75"/>
<stop offset="0.82" stop-color="#172E35"/>
</radialGradient>
<clipPath id="clip0_41478_27287">
<rect x="1" y="1" width="26" height="26" rx="5" fill="white"/>
</clipPath>
</defs>
</svg>
