<svg width="28" height="28" viewBox="0 0 28 28" fill="none" xmlns="http://www.w3.org/2000/svg">
<rect x="0.5" y="0.5" width="27" height="27" rx="7.5" stroke="white"/>
<g clip-path="url(#clip0_41478_27292)">
<path d="M14.0042 1C8.57687 1 6.98956 1.0056 6.68102 1.0312C5.56723 1.12381 4.87417 1.29923 4.1191 1.67525C3.53722 1.96428 3.0783 2.29931 2.62538 2.76895C1.80054 3.62542 1.30063 4.6791 1.11966 5.93162C1.03168 6.53967 1.00608 6.66367 1.00089 9.76954C0.998892 10.8048 1.00089 12.1673 1.00089 13.9949C1.00089 19.4194 1.00688 21.0055 1.03288 21.3135C1.12287 22.3976 1.29283 23.0797 1.65276 23.8257C2.34064 25.2538 3.65438 26.3259 5.2021 26.726C5.738 26.864 6.32989 26.94 7.08974 26.976C7.41169 26.99 10.6931 27 13.9764 27C17.2598 27 20.5432 26.996 20.8571 26.98C21.737 26.9386 22.2479 26.87 22.8128 26.724C24.3705 26.3219 25.6603 25.2658 26.3621 23.8177C26.7151 23.0897 26.894 22.3816 26.975 21.3541C26.9926 21.1301 27 17.5584 27 13.9915C27 10.424 26.992 6.85889 26.9744 6.63487C26.8924 5.59078 26.7135 4.88873 26.3491 4.14666C26.0502 3.53921 25.7182 3.08557 25.2363 2.62174C24.3763 1.80007 23.3245 1.30002 22.0711 1.11921C21.4638 1.0314 21.3429 1.00539 18.2354 1H14.0042Z" fill="url(#paint0_radial_41478_27292)"/>
<path d="M14.0042 1C8.57687 1 6.98956 1.0056 6.68102 1.0312C5.56723 1.12381 4.87417 1.29923 4.1191 1.67525C3.53722 1.96428 3.0783 2.29931 2.62538 2.76895C1.80054 3.62542 1.30063 4.6791 1.11966 5.93162C1.03168 6.53967 1.00608 6.66367 1.00089 9.76954C0.998892 10.8048 1.00089 12.1673 1.00089 13.9949C1.00089 19.4194 1.00688 21.0055 1.03288 21.3135C1.12287 22.3976 1.29283 23.0797 1.65276 23.8257C2.34064 25.2538 3.65438 26.3259 5.2021 26.726C5.738 26.864 6.32989 26.94 7.08974 26.976C7.41169 26.99 10.6931 27 13.9764 27C17.2598 27 20.5432 26.996 20.8571 26.98C21.737 26.9386 22.2479 26.87 22.8128 26.724C24.3705 26.3219 25.6603 25.2658 26.3621 23.8177C26.7151 23.0897 26.894 22.3816 26.975 21.3541C26.9926 21.1301 27 17.5584 27 13.9915C27 10.424 26.992 6.85889 26.9744 6.63487C26.8924 5.59078 26.7135 4.88873 26.3491 4.14666C26.0502 3.53921 25.7182 3.08557 25.2363 2.62174C24.3763 1.80007 23.3245 1.30002 22.0711 1.11921C21.4638 1.0314 21.3429 1.00539 18.2354 1H14.0042Z" fill="url(#paint1_radial_41478_27292)"/>
<path d="M14.0042 1C8.57687 1 6.98956 1.0056 6.68102 1.0312C5.56723 1.12381 4.87417 1.29923 4.1191 1.67525C3.53722 1.96428 3.0783 2.29931 2.62538 2.76895C1.80054 3.62542 1.30063 4.6791 1.11966 5.93162C1.03168 6.53967 1.00608 6.66367 1.00089 9.76954C0.998892 10.8048 1.00089 12.1673 1.00089 13.9949C1.00089 19.4194 1.00688 21.0055 1.03288 21.3135C1.12287 22.3976 1.29283 23.0797 1.65276 23.8257C2.34064 25.2538 3.65438 26.3259 5.2021 26.726C5.738 26.864 6.32989 26.94 7.08974 26.976C7.41169 26.99 10.6931 27 13.9764 27C17.2598 27 20.5432 26.996 20.8571 26.98C21.737 26.9386 22.2479 26.87 22.8128 26.724C24.3705 26.3219 25.6603 25.2658 26.3621 23.8177C26.7151 23.0897 26.894 22.3816 26.975 21.3541C26.9926 21.1301 27 17.5584 27 13.9915C27 10.424 26.992 6.85889 26.9744 6.63487C26.8924 5.59078 26.7135 4.88873 26.3491 4.14666C26.0502 3.53921 25.7182 3.08557 25.2363 2.62174C24.3763 1.80007 23.3245 1.30002 22.0711 1.11921C21.4638 1.0314 21.3429 1.00539 18.2354 1H14.0042Z" fill="url(#paint2_radial_41478_27292)"/>
<path d="M14.0042 1C8.57687 1 6.98956 1.0056 6.68102 1.0312C5.56723 1.12381 4.87417 1.29923 4.1191 1.67525C3.53722 1.96428 3.0783 2.29931 2.62538 2.76895C1.80054 3.62542 1.30063 4.6791 1.11966 5.93162C1.03168 6.53967 1.00608 6.66367 1.00089 9.76954C0.998892 10.8048 1.00089 12.1673 1.00089 13.9949C1.00089 19.4194 1.00688 21.0055 1.03288 21.3135C1.12287 22.3976 1.29283 23.0797 1.65276 23.8257C2.34064 25.2538 3.65438 26.3259 5.2021 26.726C5.738 26.864 6.32989 26.94 7.08974 26.976C7.41169 26.99 10.6931 27 13.9764 27C17.2598 27 20.5432 26.996 20.8571 26.98C21.737 26.9386 22.2479 26.87 22.8128 26.724C24.3705 26.3219 25.6603 25.2658 26.3621 23.8177C26.7151 23.0897 26.894 22.3816 26.975 21.3541C26.9926 21.1301 27 17.5584 27 13.9915C27 10.424 26.992 6.85889 26.9744 6.63487C26.8924 5.59078 26.7135 4.88873 26.3491 4.14666C26.0502 3.53921 25.7182 3.08557 25.2363 2.62174C24.3763 1.80007 23.3245 1.30002 22.0711 1.11921C21.4638 1.0314 21.3429 1.00539 18.2354 1H14.0042Z" fill="url(#paint3_radial_41478_27292)"/>
<path d="M14.0053 4.33845C11.3799 4.33845 11.0504 4.34992 10.0193 4.39681C8.99014 4.4439 8.28767 4.60671 7.673 4.8456C7.0372 5.09232 6.49786 5.42236 5.96054 5.95948C5.42282 6.49642 5.09252 7.03535 4.84481 7.67048C4.60514 8.28489 4.44201 8.98703 4.3957 10.015C4.34958 11.0454 4.33749 11.3748 4.33749 13.9983C4.33749 16.6217 4.34918 16.9499 4.39589 17.9803C4.44323 19.0087 4.60616 19.7106 4.84501 20.3248C5.09212 20.9602 5.42241 21.4991 5.95993 22.036C6.49706 22.5734 7.0364 22.9042 7.6718 23.1509C8.28685 23.3898 8.98954 23.5526 10.0185 23.5997C11.0496 23.6466 11.3789 23.6581 14.0041 23.6581C16.6297 23.6581 16.9582 23.6466 17.9893 23.5997C19.0184 23.5526 19.7217 23.3898 20.3368 23.1509C20.9724 22.9042 21.5109 22.5734 22.048 22.036C22.5858 21.4991 22.916 20.9602 23.1638 20.325C23.4014 19.7106 23.5645 19.0085 23.6129 17.9805C23.6592 16.9501 23.6713 16.6217 23.6713 13.9983C23.6713 11.3748 23.6592 11.0456 23.6129 10.0152C23.5645 8.98683 23.4014 8.28489 23.1638 7.67069C22.916 7.03535 22.5858 6.49641 22.048 5.95948C21.5103 5.42216 20.9726 5.09211 20.3362 4.84559C19.7199 4.60671 19.017 4.4439 17.9879 4.39681C16.9567 4.34992 16.6285 4.33845 14.0023 4.33845H14.0053ZM13.1381 6.07923C13.3955 6.07883 13.6827 6.07923 14.0053 6.07923C16.5864 6.07923 16.8923 6.08849 17.9116 6.13477C18.8541 6.17784 19.3656 6.33521 19.7064 6.46743C20.1575 6.64251 20.4792 6.85181 20.8173 7.1899C21.1556 7.528 21.3651 7.85 21.5407 8.30078C21.673 8.64089 21.8307 9.15205 21.8736 10.0939C21.9199 11.1122 21.93 11.4181 21.93 13.9961C21.93 16.574 21.9199 16.8799 21.8736 17.8982C21.8305 18.84 21.673 19.3512 21.5407 19.6913C21.3655 20.1421 21.1556 20.4631 20.8173 20.801C20.479 21.1391 20.1577 21.3484 19.7064 21.5235C19.366 21.6563 18.8541 21.8133 17.9116 21.8563C16.8925 21.9026 16.5864 21.9127 14.0053 21.9127C11.424 21.9127 11.1181 21.9026 10.099 21.8563C9.15649 21.8129 8.64495 21.6555 8.30398 21.5233C7.85285 21.3482 7.53061 21.1389 7.19228 20.8008C6.85393 20.4627 6.64448 20.1415 6.46886 19.6905C6.33654 19.3504 6.17885 18.8392 6.13596 17.8974C6.08964 16.8791 6.08037 16.5732 6.08037 13.9936C6.08037 11.4141 6.08964 11.1098 6.13596 10.0915C6.17906 9.14964 6.33654 8.63848 6.46886 8.29797C6.64407 7.84718 6.85393 7.52518 7.19228 7.18709C7.53061 6.84899 7.85285 6.6397 8.30398 6.46422C8.64474 6.33139 9.15649 6.17442 10.099 6.13115C10.9908 6.0909 11.3364 6.07883 13.1381 6.0768L13.1381 6.07923ZM19.1655 7.68316C18.525 7.68316 18.0054 8.20178 18.0054 8.84193C18.0054 9.4819 18.525 10.0011 19.1655 10.0011C19.8059 10.0011 20.3255 9.4819 20.3255 8.84193C20.3255 8.20197 19.8059 7.68316 19.1655 7.68316ZM14.0053 9.03754C11.2637 9.03754 9.04089 11.2587 9.04089 13.9983C9.04089 16.7378 11.2637 18.958 14.0053 18.958C16.7469 18.958 18.9689 16.7378 18.9689 13.9983C18.9689 11.2587 16.7469 9.03754 14.0053 9.03754ZM14.0053 10.7783C15.7848 10.7783 17.2276 12.2199 17.2276 13.9983C17.2276 15.7765 15.7848 17.2182 14.0053 17.2182C12.2256 17.2182 10.783 15.7765 10.783 13.9983C10.783 12.2199 12.2256 10.7783 14.0053 10.7783Z" fill="white"/>
</g>
<defs>
<radialGradient id="paint0_radial_41478_27292" cx="0" cy="0" r="1" gradientTransform="matrix(-15.9888 4.50922 -3.24873 -11.5192 26.1605 13.1865)" gradientUnits="userSpaceOnUse">
<stop stop-color="#FF005F"/>
<stop offset="1" stop-color="#FC01D8"/>
</radialGradient>
<radialGradient id="paint1_radial_41478_27292" cx="0" cy="0" r="1" gradientUnits="userSpaceOnUse" gradientTransform="translate(7.90605 29.0025) rotate(-90) scale(20.7537 22.0192)">
<stop stop-color="#FFCC00"/>
<stop offset="0.1242" stop-color="#FFCC00"/>
<stop offset="0.5672" stop-color="#FE4A05"/>
<stop offset="0.6942" stop-color="#FF0F3F"/>
<stop offset="1" stop-color="#FE0657" stop-opacity="0"/>
</radialGradient>
<radialGradient id="paint2_radial_41478_27292" cx="0" cy="0" r="1" gradientTransform="matrix(4.30773 -7.42235 9.66305 5.6082 14.657 26.6333)" gradientUnits="userSpaceOnUse">
<stop stop-color="#FFCC00"/>
<stop offset="1" stop-color="#FFCC00" stop-opacity="0"/>
</radialGradient>
<radialGradient id="paint3_radial_41478_27292" cx="0" cy="0" r="1" gradientTransform="matrix(-15.8133 4.45276 -1.51666 -5.38769 4.52764 2.05871)" gradientUnits="userSpaceOnUse">
<stop stop-color="#780CFF"/>
<stop offset="1" stop-color="#820BFF" stop-opacity="0"/>
</radialGradient>
<clipPath id="clip0_41478_27292">
<rect width="26" height="26" fill="white" transform="translate(1 1)"/>
</clipPath>
</defs>
</svg>
