<svg width="40" height="40" viewBox="0 0 40 40" fill="none" xmlns="http://www.w3.org/2000/svg">
<rect width="40" height="40" rx="8" fill="white"/>
<path fill-rule="evenodd" clip-rule="evenodd" d="M22.9309 13.6347V11.6593C22.9309 10.4599 21.8586 9.12492 20.1538 9.12492C18.4489 9.12492 17.4407 10.0783 17.1382 10.6466C17.0075 10.8922 16.9217 11.1666 16.8451 11.4119C16.7445 11.7341 16.6595 12.0061 16.5089 12.0965C16.4499 12.1319 16.4168 12.1643 16.3886 12.192C16.2901 12.2889 16.2513 12.327 15.371 12.2262C15.0229 12.1863 14.6531 12.1414 14.2914 12.0975C13.4767 11.9985 12.703 11.9046 12.311 11.8842C11.7449 11.8547 11.3911 11.554 11.5798 10.7934C11.7684 10.0328 12.669 6.97621 15.7376 5.81511C18.8062 4.65401 22.8701 4.59898 25.1278 5.75086C27.3855 6.90275 28.702 8.22269 28.702 12.6187V20.6817C28.702 21.8532 29.427 22.7488 29.8617 23.2858C29.972 23.4221 30.0636 23.5353 30.12 23.624C30.3984 24.0625 30.5724 24.4941 30.1617 24.849C29.7511 25.204 27.3915 27.1947 27.0226 27.4522C26.6537 27.7097 26.2222 27.7515 25.7698 27.313C25.6884 27.2342 25.599 27.1497 25.5051 27.061C25.0765 26.6563 24.5543 26.1631 24.2803 25.7121C24.2276 25.6255 24.1784 25.5427 24.1325 25.4652C23.8866 25.0512 23.7326 24.7918 23.6329 24.9326C23.5146 25.0996 21.5282 27.2353 19.0451 27.6348C16.5619 28.0342 13.4912 27.9985 11.708 25.0922C10.0374 22.3692 11.0012 18.6756 12.2536 17.067C13.5059 15.4583 16.238 14.3772 18.7967 14.1073C20.8437 13.8913 22.4057 13.7022 22.9309 13.6347ZM22.9144 16.8541V19.0874C22.9144 20.8751 21.8198 23.7291 19.3801 23.7291C16.9403 23.7291 16.4174 21.0794 16.9497 19.6082C17.482 18.1369 18.4944 17.3569 20.482 17.0129C21.8202 16.7813 22.5367 16.83 22.8123 16.8487C22.8584 16.8518 22.8921 16.8541 22.9144 16.8541Z" fill="#2C2E30"/>
<path d="M2.62536 28.0118C1.97267 27.6625 1.83062 27.6634 1.68513 27.9253C1.53964 28.1873 2.23532 28.6774 3.41401 29.6C4.81867 30.6994 9.84595 34.7012 18.9337 35.0637C27.1663 35.392 33.1902 31.7127 34.1846 31.1054L34.1966 31.0981C35.1537 30.5135 35.1464 30.1482 35.0806 29.9583C35.0149 29.7683 34.7397 29.4797 33.7815 29.8969C32.8233 30.314 27.4592 32.8281 18.6511 32.4471C9.84292 32.0661 3.35777 28.4038 2.62536 28.0118Z" fill="#F8A61B"/>
<path d="M33.0527 27.4917C31.38 28.0185 31.4588 28.4512 31.536 28.5746C31.6132 28.6979 31.8312 28.6974 32.0166 28.6692C32.2483 28.6339 34.5446 28.3331 35.6125 28.4187C36.6804 28.5044 36.7359 29.0736 36.5696 29.8997C36.4034 30.7259 36.0155 31.8039 35.7284 32.5846C35.4412 33.3654 35.2851 33.572 35.5621 33.6375C35.8392 33.703 36.8416 32.7257 37.3907 31.688C37.9398 30.6503 38.353 29.0001 38.3319 28.267C38.3108 27.5339 38.2055 27.441 37.5061 27.2388C36.8067 27.0366 34.7254 26.9649 33.0527 27.4917Z" fill="#F8A61B"/>
</svg>
