<svg width="40" height="40" viewBox="0 0 40 40" fill="none" xmlns="http://www.w3.org/2000/svg">
<rect width="40" height="40" rx="8" fill="white"/>
<path d="M21.4536 8.45309L23.5717 12.4584L28.2626 13.1021C30.1534 13.3882 30.5317 14.6041 29.2458 15.82L25.8416 18.967L26.6738 23.4015C26.9766 25.1896 25.9171 25.9048 24.2528 25.1181L20.0166 23.0439L15.7803 25.1181C14.116 25.9763 12.981 25.1181 13.3593 23.4015L14.1915 18.967L10.7874 15.82C9.42515 14.6041 9.87971 13.3882 11.7706 13.1021L16.4607 12.4584L18.5788 8.45309C19.411 6.87957 20.7732 6.87957 21.6054 8.45309H21.4536Z" fill="#F9B317"/>
<path d="M6.97448 32.7042C6.4837 32.7042 6.10059 32.601 5.84916 32.406C5.62164 32.2225 5.478 31.9701 5.4541 31.6374V31.5801H5.76539C5.86111 31.5801 5.94488 31.6489 5.98085 31.7407C6.0167 31.8898 6.11254 32.016 6.28007 32.1077C6.45968 32.1995 6.69915 32.2569 6.98643 32.2569C7.59695 32.2569 7.89629 32.0848 7.89629 31.7292C7.89629 31.3736 7.84837 31.5227 7.7407 31.4539C7.61154 31.3726 7.47022 31.3107 7.32162 31.2703C7.15408 31.2245 6.96253 31.1786 6.75902 31.1327C6.55552 31.0868 6.36396 31.0294 6.18435 30.9606C6.00475 30.8918 5.84916 30.8 5.72943 30.6853C5.59774 30.5591 5.53787 30.3985 5.53787 30.2035C5.53787 30.0085 5.65761 29.6873 5.87306 29.5153C6.10059 29.3432 6.43578 29.2514 6.86669 29.2514C7.29772 29.2514 7.65681 29.3547 7.90824 29.5497C8.13576 29.7217 8.25538 29.9626 8.2794 30.2379V30.2953H7.94421C7.86032 30.2953 7.77655 30.2379 7.75265 30.1576C7.69278 29.9626 7.5372 29.825 7.26175 29.7561C7.15408 29.7217 7.01045 29.7103 6.84279 29.7103C6.67514 29.7103 6.5315 29.7217 6.42383 29.7676C6.31604 29.802 6.22021 29.8479 6.17241 29.8938C6.11254 29.9397 6.07657 29.997 6.05267 30.0544C6.02877 30.1118 6.0167 30.1806 6.0167 30.2494C6.0167 30.3182 6.04072 30.3641 6.10059 30.4215C6.16046 30.4788 6.24422 30.5247 6.35189 30.5706C6.45968 30.6165 6.57942 30.6509 6.72305 30.6853L7.15408 30.7886C7.29772 30.823 7.45331 30.8574 7.585 30.9147C7.72863 30.9606 7.86032 31.018 7.96811 31.0868C8.23148 31.2474 8.35122 31.4654 8.35122 31.7407C8.35122 32.016 8.21953 32.3142 7.96811 32.4863C7.71668 32.6469 7.36954 32.7272 6.93851 32.7272L6.97448 32.7042ZM11.4039 32.6584H11.1047C11.0795 32.6587 11.0544 32.6542 11.031 32.6451C11.0077 32.636 10.9864 32.6225 10.9686 32.6054C10.9507 32.5883 10.9366 32.5679 10.9271 32.5455C10.9176 32.5231 10.9128 32.499 10.9131 32.4748V31.1786C10.9131 30.9606 10.8533 30.8 10.7216 30.6624C10.6019 30.5362 10.4343 30.4788 10.2428 30.4788C10.0512 30.4788 9.8716 30.5477 9.72796 30.6738C9.58432 30.8115 9.5125 30.9721 9.5125 31.1786V32.6584H9.0216V29.0908H9.5125V30.3756C9.58432 30.3068 9.66809 30.2265 9.76381 30.1691C9.90757 30.0888 10.0632 30.0315 10.2547 30.0315C10.4463 30.0315 10.5899 30.0544 10.7216 30.1003C10.8533 30.1462 10.9611 30.2265 11.0687 30.3182C11.2963 30.5247 11.4039 30.8115 11.4039 31.1556V32.6584ZM13.2835 32.7042C12.9004 32.7042 12.5772 32.5666 12.3378 32.3142C12.1103 32.0619 11.9786 31.7407 11.9786 31.3736C11.9786 31.0065 12.0983 30.6853 12.3378 30.4329C12.5772 30.1806 12.9123 30.0429 13.3194 30.0429C13.7265 30.0429 13.9539 30.1576 14.1574 30.3871V30.0888H14.6483V32.6698H14.1574V32.3716C13.9419 32.601 13.6547 32.7157 13.2835 32.7157V32.7042ZM13.3434 30.4788C13.08 30.4788 12.8765 30.5591 12.7088 30.7427C12.5533 30.9033 12.4814 31.1212 12.4814 31.3736C12.4814 31.626 12.5533 31.8324 12.7088 32.0045C12.8646 32.1766 13.08 32.2683 13.3434 32.2683C13.6068 32.2683 13.8103 32.188 13.9658 32.0045C14.1096 31.8439 14.1934 31.626 14.1934 31.3736C14.1934 31.1212 14.1216 30.9147 13.9658 30.7427C13.8103 30.5706 13.6068 30.4788 13.3434 30.4788ZM15.9412 32.6584H15.4504V30.0888H15.9412V30.5132C16.0489 30.3527 16.2045 30.2265 16.3961 30.1347C16.5158 30.0773 16.6595 30.0544 16.8391 30.0544H16.9109V30.3412C16.9109 30.4329 16.8391 30.5132 16.7433 30.5247C16.4679 30.5706 16.3243 30.6394 16.1806 30.823C16.037 31.0065 15.9412 31.2933 15.9412 31.5915V32.6584ZM18.5271 32.7042C18.1201 32.7042 17.7848 32.5666 17.5335 32.3142C17.294 32.0619 17.1623 31.7521 17.1623 31.3736C17.1623 30.995 17.282 30.6738 17.5214 30.4329C17.7728 30.1806 18.108 30.0429 18.5031 30.0429C18.8981 30.0429 19.2333 30.1806 19.4848 30.4329C19.7242 30.6738 19.844 30.995 19.844 31.3736V31.5801H17.6891C17.725 31.7751 17.8088 31.9357 17.9524 32.0504C18.108 32.1995 18.2996 32.2683 18.551 32.2683C18.8024 32.2683 19.0777 32.1651 19.2214 31.9357C19.2574 31.8783 19.3172 31.8554 19.389 31.8554H19.808L19.7841 31.9242C19.6883 32.1536 19.5446 32.3486 19.3411 32.4978C19.1257 32.6469 18.8623 32.7157 18.551 32.7157L18.5271 32.7042ZM17.6891 31.1212H19.3172C19.2813 30.9377 19.1975 30.8 19.0658 30.6853C18.9102 30.5477 18.7306 30.4903 18.5031 30.4903C18.2757 30.4903 18.0961 30.5591 17.9405 30.6853C17.8088 30.8 17.725 30.9492 17.6891 31.1212ZM23.603 32.6584H23.1841C23.1122 32.6584 23.0284 32.6125 23.0045 32.5436L22.6333 31.7062H21.0172L20.646 32.5436C20.6101 32.6125 20.5503 32.6584 20.4664 32.6584H20.0475L21.4721 29.4579C21.5199 29.3547 21.6277 29.2858 21.7475 29.2858H21.903C22.0228 29.2858 22.1306 29.3547 22.1784 29.4579L23.603 32.6584ZM21.2088 31.2589H22.4417L21.8312 29.8479L21.2207 31.2589H21.2088ZM25.4107 32.7042C24.9199 32.7042 24.5368 32.601 24.2854 32.406C24.058 32.2225 23.9143 31.9701 23.8903 31.6374V31.5801H24.2016C24.2974 31.5801 24.3812 31.6489 24.4171 31.7407C24.453 31.8898 24.5487 32.016 24.7164 32.1077C24.896 32.1995 25.1354 32.2569 25.4227 32.2569C26.0333 32.2569 26.3326 32.0848 26.3326 31.7292C26.3326 31.3736 26.2847 31.5227 26.1769 31.4539C26.0692 31.3851 25.9255 31.3162 25.7579 31.2703C25.5903 31.2245 25.3987 31.1786 25.1952 31.1327C24.9917 31.0868 24.8002 31.0294 24.6206 30.9606C24.4411 30.8918 24.2854 30.8 24.1657 30.6853C24.0341 30.5591 23.9742 30.3985 23.9742 30.2035C23.9742 30.0085 24.0938 29.6873 24.3094 29.5153C24.5368 29.3432 24.872 29.2514 25.303 29.2514C25.7339 29.2514 26.0931 29.3547 26.3446 29.5497C26.572 29.7217 26.6917 29.9626 26.7156 30.2379V30.2953H26.3685C26.2847 30.2953 26.2009 30.2379 26.1769 30.1576C26.117 29.9626 25.9614 29.825 25.6861 29.7561C25.5783 29.7217 25.4347 29.7103 25.267 29.7103C25.0995 29.7103 24.9559 29.7217 24.8481 29.7676C24.7403 29.802 24.6446 29.8479 24.5967 29.8938C24.5368 29.9397 24.5009 29.997 24.4769 30.0544C24.453 30.1118 24.4411 30.1806 24.4411 30.2494C24.4411 30.3182 24.465 30.3641 24.5248 30.4215C24.5847 30.4788 24.6685 30.5247 24.7763 30.5706C24.8839 30.6165 25.0037 30.6509 25.1473 30.6853L25.5783 30.7886C25.722 30.823 25.8777 30.8574 26.0094 30.9147C26.153 30.9606 26.2847 31.018 26.3924 31.0868C26.6557 31.2474 26.7755 31.4654 26.7755 31.7407C26.7755 32.016 26.6438 32.3142 26.3924 32.4863C26.153 32.6469 25.8057 32.7272 25.3748 32.7272L25.4107 32.7042ZM28.5952 32.7042C28.2121 32.7042 27.8888 32.5666 27.6494 32.3142C27.422 32.0619 27.2903 31.7407 27.2903 31.3736C27.2903 31.0065 27.41 30.6853 27.6494 30.4329C27.8888 30.1806 28.224 30.0429 28.631 30.0429C29.0382 30.0429 29.2656 30.1576 29.4691 30.3871V30.0888H29.96V32.6698H29.4691V32.3716C29.2536 32.601 28.9664 32.7157 28.5952 32.7157V32.7042ZM28.6431 30.4788C28.3797 30.4788 28.1761 30.5591 28.0086 30.7427C27.853 30.9033 27.781 31.1212 27.781 31.3736C27.781 31.626 27.853 31.8324 28.0086 32.0045C28.1642 32.1766 28.3797 32.2683 28.6431 32.2683C28.9065 32.2683 29.11 32.188 29.2656 32.0045C29.4092 31.8439 29.4931 31.626 29.4931 31.3736C29.4931 31.1212 29.4212 30.9147 29.2656 30.7427C29.11 30.5706 28.9065 30.4788 28.6431 30.4788ZM31.2409 32.6584H30.7501V29.0908H31.2409V32.6584ZM33.2281 32.7042C32.8211 32.7042 32.4859 32.5666 32.2345 32.3142C31.9952 32.0619 31.8635 31.7521 31.8635 31.3736C31.8635 30.995 31.9831 30.6738 32.2226 30.4329C32.474 30.1806 32.8092 30.0429 33.2042 30.0429C33.5993 30.0429 33.9345 30.1806 34.1859 30.4329C34.4133 30.6738 34.545 30.995 34.545 31.3736V31.5801H32.3902C32.4261 31.7751 32.5098 31.9357 32.6536 32.0504C32.8092 32.1995 33.0127 32.2683 33.2522 32.2683C33.4915 32.2683 33.7789 32.1651 33.9225 31.9357C33.9584 31.8783 34.0183 31.8554 34.0901 31.8554H34.5092L34.4851 31.9242C34.3894 32.1536 34.2458 32.3486 34.0423 32.4978C33.8267 32.6469 33.5633 32.7157 33.2522 32.7157L33.2281 32.7042ZM32.3902 31.1212H34.0183C33.9824 30.9377 33.8986 30.8 33.7668 30.6853C33.6113 30.5477 33.4316 30.4903 33.2042 30.4903C32.9767 30.4903 32.7972 30.5591 32.6415 30.6853C32.5098 30.8 32.4261 30.9492 32.3902 31.1212Z" fill="#22282C"/>
</svg>
