<svg width="40" height="40" viewBox="0 0 40 40" fill="none" xmlns="http://www.w3.org/2000/svg">
<g clip-path="url(#clip0_55809_28964)">
<mask id="mask0_55809_28964" style="mask-type:luminance" maskUnits="userSpaceOnUse" x="0" y="0" width="40" height="40">
<path d="M40 0H0V40H40V0Z" fill="white"/>
</mask>
<g mask="url(#mask0_55809_28964)">
<mask id="mask1_55809_28964" style="mask-type:luminance" maskUnits="userSpaceOnUse" x="0" y="0" width="40" height="40">
<path d="M40 20C40 8.95433 31.0457 0 20 0C8.95433 0 0 8.95433 0 20C0 31.0457 8.95433 40 20 40C31.0457 40 40 31.0457 40 20Z" fill="white"/>
</mask>
<g mask="url(#mask1_55809_28964)">
<path d="M50 0H-10V20H50V0Z" fill="white"/>
<path d="M50 20H-10V40H50V20Z" fill="#D52B1E"/>
<path d="M50 13.3334H-10V26.6667H50V13.3334Z" fill="#0039A6"/>
</g>
<path d="M1.66669 0.041626C2.56415 0.041626 3.29169 0.769163 3.29169 1.66663C3.29169 2.56409 2.56415 3.29163 1.66669 3.29163C0.769225 3.29163 0.041687 2.56409 0.041687 1.66663C0.041687 0.769163 0.769225 0.041626 1.66669 0.041626Z" stroke="black" stroke-opacity="0.2" stroke-width="0.5"/>
</g>
</g>
<defs>
<clipPath id="clip0_55809_28964">
<rect width="40" height="40" fill="white"/>
</clipPath>
</defs>
</svg>
