<svg width="24" height="24" viewBox="0 0 24 24" fill="none" xmlns="http://www.w3.org/2000/svg">
<g clip-path="url(#clip0_77674_705)">
<mask id="mask0_77674_705" style="mask-type:luminance" maskUnits="userSpaceOnUse" x="0" y="0" width="24" height="24">
<path d="M24 0H0V24H24V0Z" fill="white"/>
</mask>
<g mask="url(#mask0_77674_705)">
<mask id="mask1_77674_705" style="mask-type:luminance" maskUnits="userSpaceOnUse" x="0" y="0" width="24" height="24">
<path d="M24 12C24 5.3726 18.6274 0 12 0C5.3726 0 0 5.3726 0 12C0 18.6274 5.3726 24 12 24C18.6274 24 24 18.6274 24 12Z" fill="white"/>
</mask>
<g mask="url(#mask1_77674_705)">
<path d="M30.0114 0H-6V24H30.0114V0Z" fill="black"/>
<path d="M30.0115 8H-6V24H30.0115V8Z" fill="#DD0000"/>
<path d="M30.0114 16H-6V24H30.0114V16Z" fill="#FFCE00"/>
</g>
</g>
</g>
<defs>
<clipPath id="clip0_77674_705">
<rect width="24" height="24" fill="white"/>
</clipPath>
</defs>
</svg>
