<svg width="16" height="16" viewBox="0 0 16 16" fill="none" xmlns="http://www.w3.org/2000/svg">
<g clip-path="url(#clip0_39791_28594)">
<path fill-rule="evenodd" clip-rule="evenodd" d="M0.666016 8.00008C0.666016 3.94999 3.94926 0.666748 7.99935 0.666748C12.0494 0.666748 15.3327 3.94999 15.3327 8.00008C15.3327 12.0501 12.0494 15.3334 7.99935 15.3334C3.94926 15.3334 0.666016 12.0501 0.666016 8.00008ZM11.4708 6.47149C11.7311 6.21114 11.7311 5.78903 11.4708 5.52868C11.2104 5.26833 10.7883 5.26833 10.5279 5.52868L6.99935 9.05727L5.47075 7.52868C5.2104 7.26833 4.78829 7.26833 4.52794 7.52868C4.2676 7.78903 4.2676 8.21114 4.52794 8.47149L6.52794 10.4715C6.78829 10.7318 7.2104 10.7318 7.47075 10.4715L11.4708 6.47149Z" fill="#11A3FD"/>
</g>
<defs>
<clipPath id="clip0_39791_28594">
<rect width="16" height="16" fill="white"/>
</clipPath>
</defs>
</svg>
