<svg width="23" height="23" viewBox="0 0 23 23" fill="none" xmlns="http://www.w3.org/2000/svg">
<g clip-path="url(#clip0_39723_38698)">
<path d="M8.81878 11.6423C8.7265 10.9857 8.8991 10.3195 9.29807 9.78996C9.69706 9.26049 10.29 8.91099 10.9465 8.81867C11.4023 8.75462 11.8237 9.07216 11.8877 9.52792C11.9518 9.98367 11.6342 10.4051 11.1785 10.4691C10.9597 10.4999 10.762 10.6164 10.629 10.7929C10.496 10.9694 10.4385 11.1915 10.4692 11.4103C10.5933 12.2932 10.685 13.5669 10.7263 14.8299C10.7413 15.2898 10.3809 15.6749 9.921 15.69C9.46109 15.7051 9.07597 15.3446 9.06081 14.8848C9.02053 13.6515 8.93129 12.4428 8.81878 11.6423Z" fill="white"/>
<path d="M12.2498 12.1026C12.1857 11.6468 12.5032 11.2254 12.959 11.1614C13.4148 11.0973 13.8362 11.4149 13.9002 11.8706C14.0378 12.8497 14.2275 14.1966 14.3134 15.5764C14.3984 16.9428 14.3874 18.4144 14.0891 19.629C13.9793 20.0759 13.528 20.3495 13.0811 20.2399C12.6342 20.1301 12.3605 19.6788 12.4702 19.2319C12.7071 18.2677 12.7319 16.9992 12.6497 15.6795C12.5685 14.3732 12.3882 13.0875 12.2498 12.1026Z" fill="white"/>
<path d="M16.7329 14.7417C17.1927 14.7221 17.5813 15.0787 17.601 15.5385C17.6287 16.1882 17.5673 17.6661 17.538 18.1722C17.5114 18.6317 17.1174 18.9832 16.658 18.9566C16.1986 18.93 15.848 18.5358 15.8744 18.0765C15.904 17.5642 15.9598 16.1646 15.9361 15.6098C15.9165 15.15 16.2731 14.7614 16.7329 14.7417Z" fill="white"/>
<path d="M2.21718 12.5701C1.94943 10.6649 2.28786 8.72383 3.18456 7.02174C4.08133 5.3196 5.49104 3.94258 7.2138 3.08609C8.93656 2.22959 10.8855 1.93654 12.7838 2.24903C14.6821 2.56156 16.4338 3.46414 17.791 4.82758C18.1156 5.15377 18.1143 5.68097 17.7881 6.00563C17.4619 6.33021 16.9347 6.32886 16.6101 6.00272C15.4996 4.8872 14.066 4.1494 12.5129 3.89373C10.9597 3.63807 9.36555 3.87784 7.95607 4.57852C6.54666 5.27923 5.39324 6.40564 4.65951 7.79814C3.92579 9.1908 3.64855 10.7793 3.86763 12.3381C3.93168 12.7939 3.61414 13.2153 3.15838 13.2793C2.70263 13.3434 2.28124 13.0258 2.21718 12.5701Z" fill="white"/>
<path d="M3.3984 14.9286C3.85416 14.8646 4.27555 15.1821 4.3396 15.6379C4.40365 16.0936 4.08611 16.515 3.63035 16.5791L3.62229 16.5802C3.16654 16.6443 2.74515 16.3267 2.68109 15.871C2.61704 15.4152 2.93458 14.9938 3.39034 14.9298L3.3984 14.9286Z" fill="white"/>
<path d="M18.8718 7.72129C19.3056 7.56797 19.7824 7.79543 19.9359 8.22917C20.0057 8.4268 20.0776 8.75728 20.1447 9.10709C20.216 9.47875 20.293 9.93695 20.3657 10.4279C20.5102 11.404 20.6433 12.5456 20.6785 13.4254C20.6968 13.8852 20.3388 14.273 19.8789 14.2914C19.4191 14.3097 19.0314 13.9517 19.013 13.4918C18.9813 12.6982 18.8578 11.6234 18.7169 10.6719C18.6469 10.199 18.5742 9.76466 18.5082 9.4209C18.4383 9.05594 18.3856 8.84709 18.3639 8.7854C18.2106 8.35156 18.438 7.87475 18.8718 7.72129Z" fill="white"/>
<path d="M5.5748 10.1357C5.66566 9.68459 6.10522 9.39251 6.55638 9.48333C7.00756 9.57415 7.2996 10.0137 7.20878 10.4649C7.1155 10.9284 7.10184 11.4045 7.1683 11.8726L7.16852 11.8742C7.52577 14.4162 7.46563 17.0428 7.20712 18.4465C7.12364 18.8989 6.68932 19.1979 6.23678 19.1145C5.78429 19.0311 5.48536 18.5967 5.5687 18.1442C5.78744 16.9562 5.85667 14.5153 5.51808 12.1062C5.42514 11.4509 5.44421 10.7845 5.5748 10.1357Z" fill="white"/>
<path d="M9.0953 18.1893C9.11143 17.7294 9.49792 17.3699 9.95788 17.386C10.4177 17.4023 10.7772 17.7879 10.7611 18.2478C10.7384 18.8955 10.6003 19.5526 10.5116 20.0744C10.4344 20.5279 10.0042 20.8336 9.55063 20.7567C9.09705 20.6796 8.79137 20.2494 8.86827 19.7958C8.97303 19.1797 9.07769 18.6915 9.0953 18.1893Z" fill="white"/>
<path d="M15.6527 12.3649L15.4206 10.7137C15.3193 9.98918 15.0287 9.30407 14.5786 8.72739C14.1284 8.15072 13.5342 7.70287 12.856 7.42861C12.1778 7.15439 11.4395 7.06324 10.7151 7.16491C9.99058 7.26662 9.30547 7.55736 8.72894 8.0078C8.36627 8.29114 7.84239 8.22671 7.55904 7.86404C7.27582 7.50138 7.34017 6.97746 7.7028 6.69414C8.50989 6.0636 9.46891 5.65686 10.4832 5.51446C11.4974 5.37208 12.5316 5.49893 13.4811 5.88288C14.4306 6.26687 15.2621 6.89466 15.8923 7.70205C16.5225 8.50937 16.9292 9.46829 17.0712 10.4825L17.3032 12.133C17.3672 12.5887 17.0497 13.0101 16.5939 13.0742C16.1382 13.1382 15.7168 12.8207 15.6527 12.3649Z" fill="white"/>
</g>
<defs>
<clipPath id="clip0_39723_38698">
<rect width="20" height="20" fill="white" transform="translate(0 2.78346) rotate(-8)"/>
</clipPath>
</defs>
</svg>
