<svg width="41" height="40" viewBox="0 0 41 40" fill="none" xmlns="http://www.w3.org/2000/svg">
<g clip-path="url(#clip0_27135_73959)">
<path d="M39.7198 24.8461C37.0524 35.5715 26.188 42.0735 15.4904 39.406C4.7928 36.7385 -1.73691 25.8742 0.930546 15.1766C3.598 4.45121 14.4623 -2.05072 25.1599 0.616739C35.8853 3.25641 42.3873 14.1207 39.7198 24.8461Z" fill="#F7931A"/>
<path d="M29.134 17.1491C29.523 14.4816 27.4946 13.0645 24.7438 12.092L25.633 8.47984L23.4379 7.92412L22.5765 11.4252C21.993 11.2862 21.4095 11.1473 20.826 11.0084L21.7151 7.47955L19.52 6.92383L18.6309 10.536C18.1585 10.4249 17.6862 10.3137 17.2416 10.2026L14.2129 9.45235L13.6294 11.7864C13.6294 11.7864 15.2688 12.1476 15.2132 12.1754C16.1024 12.3977 16.2691 12.9812 16.2413 13.4535L15.2132 17.5659C15.2688 17.5937 15.3521 17.5937 15.4355 17.6492C15.3521 17.6214 15.2966 17.6214 15.2132 17.5937L13.7683 23.3454C13.6572 23.6232 13.3793 24.0122 12.768 23.8733C12.7958 23.9011 11.1842 23.4843 11.1842 23.4843L10.1006 25.985L12.9625 26.7075C13.4905 26.8464 14.0184 26.9853 14.5186 27.1243L13.6016 30.7642L15.7967 31.3199L16.6859 27.7078C17.2972 27.8745 17.8529 28.0134 18.4364 28.1523L17.5472 31.7367L19.7423 32.2925L20.6593 28.6525C24.4104 29.3471 27.2168 29.0693 28.4116 25.6794C29.3563 22.9564 28.356 21.3726 26.3832 20.3445C27.7725 20.0388 28.8561 19.0941 29.134 17.1491ZM24.1325 24.1789C23.4657 26.902 18.8532 25.4293 17.3805 25.0681L18.5753 20.2333C20.0758 20.5945 24.8272 21.3448 24.1325 24.1789ZM24.7994 17.1213C24.1881 19.5942 20.3536 18.3439 19.131 18.0382L20.2147 13.648C21.4651 13.9537 25.4662 14.5372 24.7994 17.1213Z" fill="white"/>
</g>
<defs>
<clipPath id="clip0_27135_73959">
<rect width="40" height="40" fill="white" transform="translate(0.333008)"/>
</clipPath>
</defs>
</svg>
