<svg width="41" height="40" viewBox="0 0 41 40" fill="none" xmlns="http://www.w3.org/2000/svg">
<g clip-path="url(#clip0_27135_73824)">
<path d="M20.3369 40C31.3826 40 40.3369 31.0457 40.3369 20C40.3369 8.9543 31.3826 0 20.3369 0C9.29122 0 0.336914 8.9543 0.336914 20C0.336914 31.0457 9.29122 40 20.3369 40Z" fill="#988430"/>
<path d="M20.3369 39.3593C31.0288 39.3593 39.6963 30.6919 39.6963 20C39.6963 9.3081 31.0288 0.640625 20.3369 0.640625C9.64502 0.640625 0.977539 9.3081 0.977539 20C0.977539 30.6919 9.64502 39.3593 20.3369 39.3593Z" fill="#7A6A2A"/>
<path d="M20.3372 38.9513C30.8038 38.9513 39.2887 30.4664 39.2887 19.9998C39.2887 9.5332 30.8038 1.04834 20.3372 1.04834C9.8706 1.04834 1.38574 9.5332 1.38574 19.9998C1.38574 30.4664 9.8706 38.9513 20.3372 38.9513Z" fill="#BA9F33"/>
<path fill-rule="evenodd" clip-rule="evenodd" d="M9.0813 17.8643C8.96802 17.7608 8.84834 17.6571 8.73826 17.5537C8.62818 17.4502 8.51512 17.3465 8.40184 17.2431L8.0652 16.9231C8.01016 16.868 7.95192 16.8196 7.89688 16.7643C7.84184 16.7159 7.7772 16.6609 7.72216 16.6122C7.27544 16.1883 6.82616 15.7644 6.38562 15.3403C6.84194 15.7578 7.28866 16.1723 7.74498 16.596L7.90349 16.7547C7.95853 16.8096 8.01677 16.8582 8.07181 16.9132L8.40824 17.2239C8.52152 17.3273 8.6316 17.431 8.74488 17.5439C8.85816 17.6567 8.96824 17.7606 9.08152 17.8639L9.0813 17.8643ZM3.15256 17.8003C3.15256 17.8003 4.77709 17.9684 5.57005 18.0817C6.30456 18.1853 8.60237 18.538 8.60237 18.538L3.15256 17.8003ZM3.15256 17.8003C3.60888 17.8391 4.0652 17.8875 4.52152 17.9362C4.75448 17.9588 4.97784 17.9846 5.2012 18.0072L5.54402 18.0463C5.6573 18.0623 5.76738 18.0785 5.88066 18.0947L7.24002 18.3114L7.91949 18.4247C8.14285 18.4635 8.36621 18.5058 8.59917 18.5446C8.37581 18.522 8.14285 18.4896 7.91949 18.4571L7.24002 18.3601L5.88066 18.1595C5.76738 18.1433 5.6573 18.1205 5.54402 18.1045L5.20098 18.065C4.97762 18.0424 4.74466 18.01 4.5213 17.984C4.06498 17.9291 3.60866 17.8707 3.15234 17.7996L3.15256 17.8003ZM8.44066 18.9612C8.44066 18.9612 6.70605 19.4016 6.12024 19.5699C5.54424 19.7284 3.79981 20.2592 3.79981 20.2592L8.44045 18.9615L8.44066 18.9612Z" fill="#CFB66C"/>
<path fill-rule="evenodd" clip-rule="evenodd" d="M8.44013 18.9609C8.05506 19.0742 7.67213 19.1843 7.28151 19.288L6.1229 19.5986C5.73783 19.7119 5.3549 19.822 4.9709 19.9352L4.3949 20.0937C4.20397 20.1488 4.00983 20.1972 3.8125 20.2525C4.00322 20.1885 4.19757 20.123 4.3885 20.0679L4.9645 19.8836C5.34957 19.7637 5.7325 19.6504 6.1165 19.5308C6.50797 19.4337 6.89325 19.33 7.28471 19.2361C7.65677 19.1423 8.04845 19.0486 8.44013 18.9612V18.9609ZM4.04226 21.3268C4.23298 21.2556 6.43373 20.2298 6.94509 19.9903C7.20109 19.8704 7.94519 19.6063 7.94519 19.6063L4.04226 21.3268Z" fill="#CFB66C"/>
<path fill-rule="evenodd" clip-rule="evenodd" d="M4.04221 21.3267C4.21031 21.2627 4.36903 21.1844 4.53074 21.11L5.00967 20.8866L5.97095 20.4239C6.29095 20.2718 6.60199 20.1039 6.93202 19.9609C7.10034 19.8899 7.26866 19.8317 7.43677 19.7766L7.69277 19.6958C7.78002 19.6732 7.86109 19.6471 7.94877 19.6245C7.62877 19.7766 7.29191 19.9061 6.97149 20.0548C6.65149 20.2135 6.32423 20.343 5.99399 20.4853L5.01671 20.9156C4.68861 21.0485 4.36861 21.1908 4.04199 21.3267H4.04221ZM4.25554 22.2227C4.25554 22.2227 6.24893 21.0545 6.93501 20.679C7.29426 20.4785 8.45607 19.9023 8.45607 19.9023L4.25554 22.2227Z" fill="#CFB66C"/>
<path fill-rule="evenodd" clip-rule="evenodd" d="M4.25586 22.2233C4.59229 22.0162 4.93533 21.8058 5.27837 21.5923L5.79037 21.2814C5.96509 21.178 6.13341 21.0809 6.31154 20.9774C6.48626 20.8738 6.65458 20.7703 6.8325 20.6732C6.9172 20.6209 7.00594 20.5755 7.09789 20.5373L7.36967 20.4014C7.72893 20.2267 8.08818 20.0486 8.46685 19.8965C8.12381 20.1134 7.77095 20.298 7.41831 20.4887C7.24359 20.5858 7.06546 20.6732 6.89074 20.7703C6.71602 20.8674 6.5477 20.971 6.36957 21.0649C6.19485 21.1684 6.02653 21.2654 5.84861 21.3593L5.32103 21.6473L4.25629 22.2233H4.25586ZM8.44018 20.1585C8.44018 20.1585 7.20071 21.1099 6.79943 21.4141C6.39815 21.7184 5.21693 22.5728 5.21693 22.5728L8.44018 20.1585Z" fill="#CFB66C"/>
<path fill-rule="evenodd" clip-rule="evenodd" d="M15.5542 27.8318L14.9199 26.6311L15.2888 25.1295L17.9198 24.1134L16.8 21.8158L17.3534 19.4954L18.3923 17.4175L21.6028 16.9127L23.9618 14.6636L29.0558 15.0486L30.0557 20.4953L28.1302 27.3529L27.0332 30.9031L22.5865 31.0715L20.5218 29.6411L18.1043 28.6311L15.5542 27.8318Z" fill="#E2CC85"/>
<path fill-rule="evenodd" clip-rule="evenodd" d="M23.3529 27.7928C23.3529 27.7928 22.7379 28.0744 21.6889 28.0096C21.3854 27.6019 19.2593 27.4109 19.2593 27.4109C19.2593 27.4109 18.9939 27.3301 18.5246 27.5242C18.0522 27.7162 17.6055 27.6925 17.188 27.796C16.7705 27.8995 16.356 27.3559 16.036 27.2426C15.716 27.1229 15.2917 26.8349 15.2917 26.8349L14.3957 26.7475L12.5965 25.9869L9.738 23.1392L8.96125 24.3552L8.72168 25.86L9.58589 27.6433L11.9127 29.7629L16.4499 30.9149L19.1392 30.1226L22.5081 28.6986L23.3529 27.7926V27.7928Z" fill="#F1D789"/>
<path fill-rule="evenodd" clip-rule="evenodd" d="M7.23287 17.728L7.80887 15.9838L8.49517 14.8574L10.7053 14.6729L10.0418 16.6082L8.19415 19.8963L8.96109 22.8316L7.60194 23.511L7.18424 22.8704L6.84781 21.4012L6.8252 19.7506L7.23287 17.728Z" fill="#F4ECB4"/>
<path fill-rule="evenodd" clip-rule="evenodd" d="M9.7118 27.6732L9.28791 27.0809C9.28791 27.0809 9.17463 26.7993 9.23948 26.5534C9.30348 26.3042 9.29431 26.288 9.26209 26.1941C9.22988 26.1002 8.95788 25.7766 8.97409 25.4982C8.99009 25.2166 8.95148 25.1228 9.15841 24.8996C9.37516 24.6829 9.31052 24.3074 9.31052 24.3074L9.59212 24.4821L9.65612 24.3851C9.65612 24.3851 9.75959 24.4659 9.75959 24.5922C9.7822 24.4175 9.68833 23.6083 9.90188 23.424C10.1154 23.2397 10.4941 24.288 10.4941 24.288L10.2611 22.7669L9.66231 21.2072L8.59756 19.7832L8.53356 18.2135V18.0776C8.53356 18.0776 8.04481 18.8286 7.90892 19.4216C7.81185 19.8293 8.04481 20.3245 7.99639 20.9103C7.95735 21.4929 7.90892 21.4474 8.05121 21.6783C8.19351 21.9091 8.53996 22.3838 8.40407 22.7268C8.28439 23.0214 7.87649 22.8143 7.87649 22.8143C7.87649 22.8143 7.79564 23.0536 7.68556 23.1411C7.64673 22.9988 7.60471 22.9081 7.52705 22.8211C7.52044 22.8761 7.50444 22.9506 7.50444 22.9506C7.50444 22.9506 7.43319 22.7272 7.36193 22.4456C7.26508 22.0704 7.1614 21.5752 7.06753 21.3099C7.02871 21.462 6.93164 21.9247 6.93164 21.9247L6.98668 22.6368L7.25207 23.6141L7.50807 24.2541L7.75724 25.0372L7.97377 25.5633L8.14849 25.9646L8.3006 26.8676L9.03511 27.6441L9.42679 27.8191L9.71137 27.6734L9.7118 27.6732Z" fill="#F3E19D"/>
<path fill-rule="evenodd" clip-rule="evenodd" d="M7.61835 16.304C7.61835 16.304 7.09078 17.2 6.93888 18.1032C6.78699 19.0065 6.65088 19.9609 6.74688 21.1906C6.84395 22.4303 7.02848 23.1906 7.17739 23.7344C7.43339 24.6374 8.09643 25.8931 8.09643 25.8931L8.11904 25.8445C8.00759 25.6332 7.91864 25.4108 7.85366 25.181C7.76619 24.838 7.73376 24.4303 7.65291 24.2457C7.58166 24.0614 7.46198 23.9027 7.40374 23.6761C7.3487 23.4594 7.33974 23.1164 7.17078 22.8608C7.09952 22.7571 7.01206 22.4853 6.98624 22.2135C6.95382 21.8056 7.00246 21.3493 6.96363 20.9741C6.89238 20.3494 6.84395 19.9255 6.90859 19.5985C6.97323 19.2714 7.31008 18.343 7.51723 17.6051C7.65312 17.1326 7.57206 16.7345 7.82123 16.3234C8.0704 15.9157 8.22272 15.5565 8.27755 15.3073C8.34155 15.0807 7.6175 16.304 7.6175 16.304H7.61835Z" fill="#F2E8B0"/>
<path fill-rule="evenodd" clip-rule="evenodd" d="M10.12 15.9448C10.12 15.9448 9.84824 16.0259 9.71874 16.1682C9.58925 16.3041 9.53421 16.4174 9.35949 16.6471C9.18477 16.8769 9.17496 17.0646 9.03245 17.3526C8.89016 17.6342 8.57613 18.0581 8.5373 18.2102C8.49848 18.3623 8.43384 19.0742 8.35298 19.4109C8.28173 19.7475 8.43384 20.1618 8.43384 20.1618L8.61816 20.1227C8.61816 20.1227 8.61816 20.3623 8.80269 20.5242C8.98701 20.6827 9.01944 19.9869 9.01944 19.9869L9.70872 17.66L10.7474 16.9545L10.8607 16.3849L10.1196 15.9448H10.12Z" fill="#F5EEC0"/>
<path fill-rule="evenodd" clip-rule="evenodd" d="M10.625 17C10.625 17 10.1363 17.0322 9.89689 17.2072C9.79982 17.2782 9.761 17.3364 9.65753 17.4239C9.4666 17.5824 9.27225 17.7281 9.1786 17.9359C9.07492 18.1428 8.96164 18.4569 8.88398 19.0491C8.85156 19.2983 8.85156 19.528 8.82894 19.7288C8.79652 20.0006 8.74809 20.2173 8.7739 20.3688C8.80633 20.6794 9.12676 20.8413 9.1579 21.1939L9.82137 20.8575L10.446 18.3946L11.7729 17.5626L11.022 16.7212L10.6241 16.9985L10.625 17Z" fill="#E6DB9D"/>
<path fill-rule="evenodd" clip-rule="evenodd" d="M7.12521 33.5847C7.12799 33.5604 7.13076 33.5361 7.13353 33.5111C7.23039 32.6791 7.24681 32.0485 7.31785 31.6536C7.42132 31.0939 7.49257 30.8856 7.47636 30.6761C7.45375 30.3397 7.42793 30.0937 7.46036 29.8348C7.50879 29.4917 7.84543 29.084 7.83583 28.8024C7.82921 28.5791 7.71593 28.4336 7.61887 28.2977C7.5218 28.1618 7.44415 28.0485 7.44415 28.0485C7.44415 28.0485 8.10761 27.5922 8.10121 25.7539C8.11476 25.7577 8.1278 25.7632 8.14004 25.7701L8.46687 26.6988L8.69023 26.9705L9.54783 28.5693L10.6514 29.6406L12.2823 30.7376L13.3051 31.8505L13.4085 34.8182L12.072 36.5528L11.8531 36.9492C10.1142 36.0762 8.51955 34.9414 7.125 33.5845L7.12521 33.5847Z" fill="#E5CB7A"/>
<path fill-rule="evenodd" clip-rule="evenodd" d="M11.207 36.4239C11.207 36.4239 11.2296 36.055 11.5339 35.8155C11.5825 35.8963 11.6147 35.9742 11.6051 36.0322C11.6602 35.9354 12.0452 35.3139 12.9158 35.152C13.7864 34.9935 13.9968 34.3593 13.9968 34.3593L15.8445 32.6797L17.9578 30.7347L20.5274 29.8317L21.7282 29.5371C21.7282 29.5371 21.7508 29.6245 21.7056 29.8187C21.9287 29.8027 22.4239 29.6894 22.9384 29.5081C23.1456 29.4272 23.3399 29.3948 23.4434 29.5017C23.5955 29.644 23.6181 29.9806 23.6277 30.1811C23.8769 30.1261 24.1649 29.8867 24.3957 29.9093C24.7648 29.9482 25.0916 30.3819 25.4671 30.3819C25.9622 30.3819 26.1854 30.0777 26.5318 29.8381C26.739 29.6958 27.0366 29.5181 27.2049 29.398C27.6062 29.1034 31.8522 27.8057 31.8522 27.8057L33.3408 27.9027L33.5804 29.5015L33.4524 33.6807C33.4366 33.6958 33.4208 33.7116 33.4048 33.7267L26.6362 37.2619L17.2538 38.7002C15.1521 38.3568 13.1239 37.6592 11.2557 36.637L11.2077 36.4237L11.207 36.4239Z" fill="#D8C173"/>
<path fill-rule="evenodd" clip-rule="evenodd" d="M7.69336 34.1164C7.82669 33.8376 7.94659 33.6044 7.96771 33.521C7.98435 33.6891 8.01485 34.058 8.07629 34.4501C7.9473 34.3404 7.81965 34.2291 7.69336 34.1162V34.1164Z" fill="#F1D789"/>
<path fill-rule="evenodd" clip-rule="evenodd" d="M14.5474 38.0496L15.7608 37.7122L15.8643 37.7446C15.8643 37.7446 15.9193 37.777 15.9193 37.8869C16.0714 37.7996 16.2009 37.8156 16.2948 37.7576C16.3432 37.8611 16.3917 38.2041 16.6054 38.2461C16.8286 38.2948 17.0681 38.1491 17.3109 37.9647C17.5503 37.7738 17.8229 37.5342 18.0292 37.4372C18.1049 37.5763 18.1719 37.72 18.23 37.8675C18.5017 37.6507 18.9743 36.7705 19.6473 36.7865C19.8419 36.3268 20.1669 35.9341 20.5822 35.6571C21.2068 35.2332 21.5983 35.2008 22.087 35.2396C22.2811 34.9875 22.5204 34.7735 22.7925 34.6086C22.8734 34.641 23.0967 34.7769 23.3751 34.6474C23.6567 34.5181 23.9737 34.0164 24.3912 33.9517C24.6162 33.9208 24.845 33.9688 25.0385 34.0876C25.0385 34.0876 26.2545 32.8804 27.0935 32.4791C27.0611 32.382 26.9965 32.0164 27.9801 31.2072C28.0352 31.2558 27.9964 31.3917 28.0352 31.3992C28.0512 31.3992 28.2912 31.2957 28.595 31.0626C28.9704 30.7812 29.4201 30.4866 29.6919 30.4057C30.2039 30.2536 30.7471 30.5642 30.7471 30.5642C30.7933 30.5318 30.8447 30.5077 30.8992 30.493C31.0285 30.4703 31.1223 30.4541 31.1936 30.429C31.1872 30.5973 31.281 30.8853 31.1936 31.1345C31.2949 31.1914 31.4022 31.237 31.5136 31.2703C31.4588 31.39 31.3389 31.6942 31.1383 31.8399C31.3064 31.9208 31.329 32.0147 31.5686 32.0959C31.4716 32.2318 31.3126 32.465 31.2418 32.6079C31.1705 32.7601 30.9148 33.3911 30.8015 33.6305C30.6818 33.87 30.5201 34.3101 30.4422 34.3985C30.3644 34.4868 30.083 34.8612 29.8662 35.0455C30.0582 34.9742 30.8437 34.7349 31.1769 34.6442C31.0777 34.7897 30.5749 35.5357 30.0915 36.2532C27.7769 37.6405 25.1933 38.5185 22.5127 38.8288C19.8321 39.1392 17.1162 38.8746 14.5459 38.0529L14.5474 38.0496Z" fill="#E0CD81"/>
<path fill-rule="evenodd" clip-rule="evenodd" d="M10.7048 16.9127C10.7048 16.9127 10.4234 16.9127 10.3683 16.9516C10.3133 16.9904 10.6499 17.0715 10.7534 17.1103C10.8569 17.1491 11.0802 17.327 11.1385 17.4695C11.1935 17.6054 13.1611 18.3982 13.1611 18.3982L14.5527 18.3269L15.0324 17.6641L14.1198 16.8647L14.7598 14.978L13.912 15.1139L11.8732 16.3299L10.8505 16.7216L10.7048 16.9127Z" fill="#DFC57C"/>
<path fill-rule="evenodd" clip-rule="evenodd" d="M13.7611 17.5375C13.7812 17.5701 13.8096 17.5968 13.8433 17.6149C13.877 17.6331 13.9148 17.6421 13.9531 17.641C14.2411 17.641 14.5063 17.7122 14.6164 17.8577C14.8009 18.0909 15.3122 18.8352 15.3122 18.8352L16.5355 19.2753L16.6144 17.8349L15.2779 16.9062L13.7568 17.466V17.5373H13.7602L13.7611 17.5375Z" fill="#E5CC7C"/>
<path fill-rule="evenodd" clip-rule="evenodd" d="M13.5206 18.0713C13.5206 18.0713 13.7438 18.0875 14.0254 17.9839C14.307 17.8802 14.7697 17.657 14.9704 17.7445C15.2518 17.8642 15.1936 18.2396 15.498 18.5765C15.6823 18.7836 16.019 18.7772 16.2099 19.0006C16.4008 19.224 17.0577 19.1203 17.0577 19.1203L17.3068 20.4643L16.307 21.746L15.9799 23.3381H14.6278L13.3926 22.8481L12.7842 21.3761L13.0884 19.8874L13.5206 18.0713Z" fill="#D2C281"/>
<path fill-rule="evenodd" clip-rule="evenodd" d="M16.136 18.1358C16.1695 18.1461 16.2044 18.1516 16.2395 18.152C16.2006 18.1844 16.1196 18.2555 16.152 18.44C16.1844 18.6245 16.2879 18.8575 16.2006 18.9998C16.2703 19.0759 16.3222 19.1666 16.3527 19.2652C16.4078 19.4239 16.424 19.5694 16.783 19.5922C16.7312 19.6241 16.6834 19.6621 16.6407 19.7055C16.6407 19.7055 16.8899 19.9222 17.0162 20.1228C17.1455 20.1172 17.4885 20.0106 17.4885 20.0106L17.5598 20.0592L17.7119 19.9952C17.7119 19.9952 17.5696 19.9402 17.6731 19.5939C17.7701 19.2897 17.8576 19.3059 17.8651 19.2833C17.8725 19.2607 17.9363 18.9403 17.9363 18.8108C17.9847 18.6427 18.0236 18.1313 18.0236 18.1313L17.9201 17.0019L17.3377 16.6491L16.8641 16.1919L16.4174 17.0333L16.1232 17.3266L16.1006 18.0547L16.136 18.1358Z" fill="#E2C270"/>
<path fill-rule="evenodd" clip-rule="evenodd" d="M17.5371 17.191C17.5371 17.191 17.6406 17.4854 17.6796 17.712C17.6934 17.6679 17.701 17.6222 17.7022 17.5761C17.7022 17.5761 17.7831 18.0228 17.7991 18.2073C17.8315 18.2007 17.8631 18.1911 17.8703 18.2233C17.8776 18.2556 17.9514 18.615 17.9343 18.8156C18.0691 18.5932 18.2556 18.4067 18.4779 18.272C18.6074 18.1909 18.7595 18.1037 18.9182 18.097C19.1674 18.0906 19.3485 18.2558 19.6463 18.2558C20.3646 18.2558 21.0153 17.7282 21.4942 17.5665C21.8469 17.4466 22.1511 17.3593 22.3646 17.165C22.4683 17.0777 22.6528 16.8836 22.8209 16.5954C23.0443 16.2114 23.2773 15.8771 23.5104 15.8351C23.4049 15.8545 23.2976 15.862 23.1904 15.8577C23.1904 15.8577 23.2617 15.7864 23.3824 15.6894C23.5032 15.5923 23.6478 15.4726 23.8548 15.4726C24.2238 15.4726 24.4081 15.5274 24.6153 15.5274C24.8224 15.521 24.9421 15.4726 24.9421 15.4726C24.9421 15.4726 25.1591 15.6247 25.6476 15.6247C26.1364 15.6311 26.4632 15.6732 26.719 15.696C26.9748 15.7188 27.8321 15.6247 28.0781 15.632C28.2385 15.6382 28.396 15.6767 28.5411 15.7453L27.7481 13.4413L24.8997 10.9517L23.2039 12.1523L20.5952 14.7607L18.0711 15.696L17.5435 16.2882V17.191H17.5371Z" fill="#CCB360"/>
<path fill-rule="evenodd" clip-rule="evenodd" d="M23.2016 15.8707C23.2016 15.8707 23.2728 15.7997 23.3923 15.7026C23.5118 15.6055 23.6579 15.4856 23.8648 15.4856C24.2337 15.4856 24.4182 15.5407 24.6254 15.5407C24.8325 15.5343 24.9522 15.4856 24.9522 15.4856C24.9522 15.4856 25.1694 15.6375 25.6577 15.6375C26.1464 15.6439 26.4733 15.686 26.729 15.7086C26.9848 15.7312 27.8422 15.6375 28.0882 15.6446C28.2485 15.6506 28.4059 15.6892 28.5509 15.7579L28.1917 14.7189L27.7744 13.9262L26.5833 12.6219C26.5833 12.6219 25.154 11.7805 25.1431 11.7741C25.1367 11.7677 24.648 11.6382 24.648 11.6382L23.3535 12.4213L22.1789 15.4603L22.1562 16.1003L22.9166 16.4595C23.1075 16.1395 23.3181 15.8835 23.5154 15.8511C23.3373 15.8705 23.2014 15.8705 23.2014 15.8705L23.2016 15.8707Z" fill="#D5B457"/>
<path fill-rule="evenodd" clip-rule="evenodd" d="M23.1847 16.0876C23.0714 16.094 22.9778 16.0714 22.9517 15.9905C22.8547 15.7188 22.777 15.6799 22.6957 15.6799C22.6145 15.6799 22.5048 15.8547 22.4397 15.8707C22.3747 15.8867 22.2974 15.6701 22.2974 15.6701L22.2262 15.6377C22.2262 15.6377 21.8087 15.9095 21.5143 16.2299C21.2199 16.5503 20.7375 17.0941 20.5208 17.191C20.3041 17.2878 19.5595 17.3205 19.3048 17.3755C19.0501 17.4305 18.7676 17.6151 18.7288 17.6571C18.69 17.6991 18.8423 17.7444 18.8649 17.7864C18.8875 17.8252 18.6155 17.809 18.5929 17.8504C18.5769 17.8828 18.6569 18.0671 18.6966 18.161C18.766 18.1265 18.8422 18.1077 18.9197 18.106C19.1689 18.0996 19.3502 18.2647 19.6478 18.2647C20.3663 18.2647 21.0168 17.7371 21.4957 17.5752C21.8486 17.4555 22.1528 17.368 22.3663 17.1739C22.4698 17.0867 22.6543 16.8923 22.8227 16.6043C22.9455 16.407 23.0654 16.2224 23.1853 16.0865L23.1847 16.0876Z" fill="#D2B257"/>
<path fill-rule="evenodd" clip-rule="evenodd" d="M12.8808 32.1036C12.8808 32.1036 12.8168 31.864 12.2237 31.246C12.0554 31.0713 11.9519 30.926 11.8387 30.8221C11.5571 30.5565 11.3919 30.4854 11.1914 30.3333C10.7513 30.0065 10.2724 30.0065 9.90352 29.6052C9.53466 29.204 9.1048 28.4372 8.80613 27.6537C8.51173 26.8705 8.43066 26.6213 8.43066 26.5987C8.43066 26.5761 8.51173 26.424 8.6152 26.4466C8.71866 26.4692 8.71866 26.6698 8.74469 26.7184C8.79624 26.7978 8.85471 26.8725 8.91941 26.9416C9.07152 27.1165 9.28826 27.3256 9.39834 27.6374C9.37573 27.3721 9.28506 27.0777 9.28506 27.0777C9.28506 27.0777 9.85466 27.4369 10.34 27.8122C10.8287 28.1876 11.0293 28.3171 11.172 28.5565C11.3147 28.7958 11.6509 29.4271 11.812 29.6116C11.9731 29.7962 14.18 30.4919 14.18 30.4919L15.2298 31.2746L15.751 32.417L15.3431 33.057L14.5599 33.2253L13.2881 32.6557L12.8808 32.1034V32.1036Z" fill="#D2B159"/>
<path fill-rule="evenodd" clip-rule="evenodd" d="M10.0557 28.1683C10.0557 28.1683 10.3211 28.5921 10.9683 28.9934C11.5509 29.3463 12.4732 29.6667 13.2953 29.8576C13.7677 29.9709 14.2402 30.0582 14.6641 30.0648C15.8065 30.0808 16.5928 29.7542 17.5671 29.6473C18.0947 29.5923 18.742 29.5502 19.415 29.3913C20.279 29.1841 20.7904 28.951 21.4863 28.6233C21.991 28.3903 22.454 28.2156 22.8292 27.9923C23.3568 27.6816 23.7419 27.3354 24.1886 27.2319C24.1335 27.384 24.0753 27.6558 23.6352 27.9374C23.8681 27.9308 24.1886 27.9148 24.1886 27.9148C24.1886 27.9148 23.878 28.0991 23.331 28.5134C22.9943 28.7694 22.5478 29.2027 22.0915 29.4907C21.7969 29.6752 21.4765 29.8107 21.2661 29.9212C20.7541 30.2028 20.5476 30.3451 20.2112 30.6892C20.3309 30.6828 20.3407 30.6892 20.3407 30.6892C20.3407 30.6892 19.9166 30.7443 19.6126 30.906C19.5486 30.906 19.4376 30.8833 19.2435 30.9384C19.0914 30.9868 18.8907 31.0971 18.6837 31.1551C18.3891 31.2426 18.2923 31.2038 18.2923 31.2038L18.3407 31.3008C18.3407 31.3008 17.9567 31.2942 17.8287 31.3072C17.8513 31.3136 17.8449 31.3235 17.8449 31.3235C17.8224 31.3272 17.8008 31.3349 17.7809 31.3461C17.7193 31.386 17.6515 31.4155 17.5804 31.4333C17.5415 31.4397 17.5091 31.4397 17.4605 31.4495C17.4767 31.4884 17.603 31.7055 17.6612 31.8335C17.6128 31.866 16.8845 32.4161 16.8845 32.4161C16.9071 32.4517 16.9255 32.4897 16.9395 32.5294C16.9621 32.6005 16.9719 32.7041 16.9945 32.7526C17.0494 32.8496 17.0818 32.8659 17.0818 32.8659C17.0818 32.8659 16.9945 32.8821 16.8422 32.9209C16.7129 32.9533 16.5542 33.0081 16.3302 33.0406C16.2615 33.0495 16.1924 33.0549 16.1231 33.0568C16.1555 33.128 16.2978 33.3998 16.0356 33.7136C15.7734 34.0275 15.6926 34.0731 15.6117 34.2736C15.571 34.2429 15.5277 34.2157 15.4822 34.1926C15.395 34.1537 15.2751 34.0957 15.2331 34.0179C15.2086 34.1216 15.1761 34.2233 15.136 34.3221C15.0551 34.5388 14.9355 34.7526 14.9128 34.9143C14.8254 34.8172 14.6637 34.6263 14.4403 34.6651C14.2169 34.7039 14.039 35.0081 14.0002 35.0956C14.0002 35.0406 13.9614 34.9985 13.9518 35.0632C13.9452 35.1344 13.8223 35.8785 13.1362 36.4806C13.1298 36.3285 13.1298 35.9918 13.1136 35.882C13.0496 35.946 12.9713 36.0405 12.5052 36.2412C12.0488 36.4417 12.1212 36.6425 12.1212 36.6425C12.1212 36.6425 12.0823 36.3225 12.3283 35.9854C12.5775 35.649 12.7296 35.4903 12.7296 35.4645C12.7256 35.4382 12.7143 35.4135 12.6972 35.3932C12.6647 35.3608 12.6001 35.322 12.6001 35.2961C12.6389 35.2801 13.024 35.0956 13.0014 34.7135C12.9788 34.3707 12.8333 34.1926 12.7296 34.0665C12.7136 34.0503 12.8819 33.9306 12.8591 33.8918C12.8429 33.8692 12.6359 33.7168 12.6099 33.6358C12.616 33.5874 12.6269 33.5397 12.6423 33.4935C12.6649 33.4222 12.6812 33.3736 12.6748 33.3252C12.6585 33.2443 12.5711 33.0209 12.5453 32.9983C12.5679 33.0047 12.7296 32.9983 12.7296 32.9983C12.7296 32.9983 12.6003 32.7912 12.5775 32.6941C12.5547 32.5971 12.5062 32.3413 12.4804 32.2928C12.5355 32.2992 12.6713 32.3088 12.6713 32.2928C12.678 32.2442 12.5517 32.1633 12.6073 32.1008C12.6462 32.1072 12.7206 32.1397 12.7917 32.2303C12.7528 32.1267 12.6882 31.9261 12.5521 31.8453C12.6161 31.8227 12.8337 31.7642 13.0246 31.8775C13.2156 31.9908 13.2806 32.1493 13.2806 32.1493C13.2806 32.1493 13.3939 32.2367 13.5688 32.3662C13.7694 32.5247 14.0249 32.7502 14.4328 32.9098C14.5203 32.9584 14.7435 32.9584 14.9054 32.926C14.9759 32.9092 15.0435 32.882 15.1059 32.8452C15.1284 32.8319 15.1523 32.821 15.1772 32.8127C15.1424 32.7429 15.1024 32.6758 15.0575 32.612C15.1125 32.612 15.1772 32.6186 15.1772 32.6186C15.1772 32.6186 15.216 32.5311 15.0413 32.3626C15.0801 32.3238 15.1287 32.2986 15.1287 32.2331C15.0737 32.2267 14.9766 32.1459 14.954 32.1134C14.9862 32.0908 15.0349 32.0164 15.0899 31.9937C15.0413 31.9549 14.9216 31.793 14.8665 31.777C14.9191 31.7575 14.97 31.7336 15.0187 31.7057C15.0187 31.7057 14.7469 31.6345 14.6594 31.5763C14.5719 31.5123 14.4427 31.4015 14.365 31.3691C14.2839 31.3367 14.1416 31.3207 14.0834 31.2558C14.1382 31.272 14.2257 31.2558 14.2905 31.2558C14.339 31.2558 14.3618 31.2622 14.3778 31.2622C14.3714 31.2396 14.3714 31.191 14.4977 31.175C14.5584 31.1658 14.6174 31.1472 14.6724 31.1199C14.6724 31.1199 14.5525 31.1135 14.4164 30.984C14.2803 30.8545 14.1672 30.7511 14.0896 30.7349C14.0087 30.7187 13.8566 30.7899 13.7628 30.7833C13.6333 30.7673 13.5782 30.7024 13.5782 30.7024C13.5782 30.7024 13.1479 30.7413 12.1933 30.1589C11.3679 29.6539 11.0086 29.2074 11.0086 29.2074C10.9314 29.1794 10.8567 29.1447 10.7855 29.1037C10.4749 28.942 10.0444 28.6054 10.0574 28.1651L10.0557 28.1683Z" fill="#C2A44D"/>
<path fill-rule="evenodd" clip-rule="evenodd" d="M21.9616 8.74437C22.0365 8.76869 22.103 8.81356 22.1536 8.87386C22.3057 9.04858 22.4028 9.37861 22.0566 9.73146C22.1925 9.77989 22.2486 9.79546 22.3672 9.77989C22.2475 9.92239 21.9757 10.2266 21.9595 10.492C21.9433 10.7087 22.0792 10.7736 22.0792 10.7736C22.0792 10.7736 21.872 11.013 21.8624 11.4136C21.9603 11.3033 22.0673 11.2015 22.1824 11.1094C22.422 10.9184 22.752 10.7017 22.9754 10.5658C22.9724 10.6228 22.98 10.6798 22.998 10.7339C22.998 10.7339 23.4153 10.3909 23.766 10.5432C23.9245 10.6144 23.8533 10.8376 23.8533 10.8376C23.8533 10.8376 24.0702 10.7567 24.2223 10.9088C24.3744 11.061 24.5895 11.4533 24.6998 11.6054C24.7482 11.6766 24.8745 11.8125 25.0038 12.0229C25.1804 12.3174 25.3279 12.6284 25.4441 12.9515C25.4505 12.7832 25.4925 12.5212 25.9717 12.6861C26.4506 12.8544 26.9942 13.2073 27.4505 13.9021C27.9068 14.597 28.0199 15.3814 28.2496 15.68C28.4826 15.968 28.7222 16.447 28.7384 16.6477C28.7546 16.8485 28.6671 17.4955 29.1461 19.2463C29.282 18.7028 29.4891 17.4955 29.4891 17.4955L29.6024 16.4308L29.7319 13.1363L26.2917 10.2782L23.6024 8.32666L21.8516 8.49498L21.9614 8.74415L21.9616 8.74437Z" fill="#CAA13E"/>
<path fill-rule="evenodd" clip-rule="evenodd" d="M28.3533 13.6471C28.3533 13.6471 28.3047 13.3271 27.4957 12.7831C26.6865 12.2459 26.0555 12.2459 25.4731 11.7896C25.0264 11.4304 24.5605 10.605 24.2571 10.3332C23.9625 10.0646 23.9141 9.28786 23.9141 9.28786L24.9076 8.45586L26.3851 6.32018L27.6342 4.94482L28.2328 5.77682L29.0648 6.7541L29.5275 8.71528L29.6958 11.5859L28.3518 13.6473L28.3533 13.6471Z" fill="#B59544"/>
<path fill-rule="evenodd" clip-rule="evenodd" d="M29.3528 17.0878C29.3773 16.6524 29.3235 16.2162 29.1941 15.7999C28.9808 15.1364 28.5146 13.9584 28.2981 13.5172C28.2106 13.0285 28.2755 12.9896 28.3694 12.9346C28.4632 12.8796 28.8161 12.6786 29.0094 11.9735C29.2026 11.2685 29.8023 11.2454 29.8023 11.2454L30.1712 10.9736L30.7312 12.3748L31.2197 13.6403L31.3718 14.608L31.4851 15.4332L31.2197 17.1776L29.9092 18.362L29.3526 17.0878H29.3528Z" fill="#C89D3A"/>
<path fill-rule="evenodd" clip-rule="evenodd" d="M11.0654 36.5308V36.4949C11.0927 36.4779 11.1167 36.4562 11.1365 36.4309C11.1591 36.3985 11.1755 36.3597 11.1915 36.3501C11.2239 36.3339 11.376 36.2861 11.4569 36.3014C11.5377 36.3168 11.7515 36.4049 11.8648 36.3985C12.0977 36.3921 12.3695 36.214 12.8 36.295C13.4473 36.4147 13.5994 36.8548 13.9749 37.104C14.2309 37.2789 14.4958 37.2011 14.5347 37.2011H14.6219C14.6381 37.2011 14.7578 37.0652 14.8227 37.0718C14.9521 37.0782 14.9649 37.1851 15.0458 37.1915C15.2367 37.2141 15.6058 37.0944 15.7903 37.143C15.8451 37.1602 15.8948 37.1903 15.9354 37.2308C15.9759 37.2713 16.0061 37.3211 16.0233 37.3758C16.0621 37.4955 16.0297 37.6476 15.9358 37.735C15.7353 37.9194 15.5444 38.0943 15.5055 38.247C15.5549 38.2847 15.6023 38.3248 15.6476 38.3674C14.0464 37.9594 12.5058 37.3425 11.0654 36.5327V36.5308Z" fill="#CEB052"/>
<path fill-rule="evenodd" clip-rule="evenodd" d="M28.2979 30.0651C28.2979 30.0651 28.8026 29.392 28.9775 29.0586C29.1523 28.7149 28.4241 24.3629 28.4241 24.3629L29.887 19.5702L29.8479 18.0103C29.8479 18.0103 29.9192 16.5701 30.0875 15.9454C30.2882 16.3047 30.9129 16.7384 31.0488 16.9681C31.1128 16.5278 31.3302 15.5992 31.298 14.6089C31.4176 14.7932 31.7056 16.6477 31.7056 16.6477L31.9936 17.8968L32.3691 19.2237L32.7866 20.6251L33.0358 21.5928L33.1781 21.8257L33.298 22.2334L33.4112 22.6737L33.7381 23.7061L33.9301 24.5538L34.0822 26.0911C34.1153 26.2088 34.1391 26.329 34.1534 26.4504C34.1598 26.6187 34.1308 26.7158 34.1308 26.745C34.1308 26.7742 34.1859 27.1138 34.1632 27.3696C34.1308 27.6256 34.1308 27.826 33.9301 28.0096C33.7293 28.1933 33.6032 29.2911 33.6032 29.2911L33.244 29.0518C33.244 29.0518 33.3152 28.7247 33.1469 28.4271C32.9786 28.1295 32.6518 28.0679 32.4672 28.1165C32.2829 28.1553 31.9141 28.2134 31.7942 28.317C31.6809 28.4205 31.4027 28.7409 31.1469 28.8866C30.8269 29.0786 30.3055 29.0938 30.0273 29.1584C29.7457 29.2224 29.4351 29.4144 29.1081 29.6374C28.8517 29.8034 28.5809 29.9462 28.2991 30.064L28.2979 30.0651Z" fill="#CCA847"/>
<path fill-rule="evenodd" clip-rule="evenodd" d="M28.2979 37.1361C28.2979 37.1361 28.3192 37.15 28.3604 37.1726C30.6596 36.0954 32.7197 34.5684 34.419 32.6819C34.4005 32.027 34.3764 31.3556 34.3499 31.1069C34.2951 30.5793 34.3339 30.0421 34.3177 29.7315C34.3015 29.4209 34.1268 28.1554 34.0459 27.8286C33.9584 27.5018 33.7899 27.3398 33.7643 27.3398C33.7417 27.3465 33.6056 27.9549 33.6056 28.1078C33.6056 28.2608 33.5732 28.629 33.5732 28.7229C33.5505 28.7163 33.5409 28.6589 33.5409 28.6354C33.5085 28.7163 33.4697 28.8588 33.4535 28.875C33.4373 28.8912 33.4761 28.7391 33.4535 28.7067C33.4309 28.6742 33.3895 28.6905 33.3984 28.6096C33.4023 28.5617 33.4098 28.5141 33.421 28.4673C33.421 28.4673 33.324 28.6096 33.2529 28.9721C33.1817 29.3313 33.1817 29.3411 33.1559 29.3733C33.1333 29.4124 33.0038 29.5417 32.9972 29.5903C32.9908 29.6776 33.1171 29.765 33.1267 29.8134C33.1331 29.8945 33.0134 30.2698 32.9745 30.4534C32.9357 30.6371 32.9519 30.997 32.9105 31.1815C32.8781 31.3499 32.8465 31.4469 32.7358 31.518C32.8167 31.5342 32.8943 31.5568 32.8943 31.5568C32.8943 31.5568 33.0076 32.0357 32.7196 32.4436C32.6161 32.5859 32.5903 32.6508 32.4802 32.7803C32.2633 33.0196 32.095 33.2923 32.0788 33.4695C32.0676 33.4172 32.06 33.3642 32.0561 33.3108C32.0561 33.3108 31.7197 33.7025 31.5772 33.9259C31.3929 34.2139 31.1371 34.1977 31.0652 34.2689C30.9933 34.3402 30.9777 34.4694 31.0012 34.5731C30.9372 34.5891 30.8169 34.6119 30.7358 34.8611C30.697 34.9904 30.5999 35.1171 30.4478 35.2042C30.2957 35.2912 30.1112 35.3174 30.0173 35.3401C30.0982 35.3627 30.1306 35.3627 30.1694 35.3885C30.121 35.4693 29.8976 35.5956 29.6485 35.7575C29.3993 35.9097 29.2794 36.1328 29.218 36.2785C29.154 36.4144 29.0595 36.5019 28.9073 36.5181C28.9713 36.5569 29.0661 36.6474 29.1145 36.6766C29.0432 36.6928 28.9225 36.6928 28.7068 36.8773C28.4802 37.0651 28.4026 37.1201 28.2989 37.1363L28.2979 37.1361Z" fill="#C39D3C"/>
<path fill-rule="evenodd" clip-rule="evenodd" d="M23.795 38.6355C23.9189 38.5487 24.0531 38.4775 24.1946 38.4237C24.6993 38.2232 25.2333 38.1843 25.4437 38.1197C25.6444 38.0557 25.8029 37.9674 26.0521 37.9189C26.0455 37.9757 26.0399 38.029 26.0339 38.0794C25.2993 38.3103 24.5513 38.4961 23.7939 38.6355H23.795Z" fill="#D2BA6B"/>
<path fill-rule="evenodd" clip-rule="evenodd" d="M33.1053 25.3593C33.1053 25.3593 33.0019 25.9191 32.8173 26.272C32.6328 26.6248 32.4333 27.1134 32.4333 27.1134C32.4345 27.0033 32.4476 26.8936 32.4722 26.7863C32.2392 26.9222 31.6728 27.2493 31.5122 27.3948C31.3601 27.5307 31.1043 27.7702 31.0396 27.8835C31.1917 27.437 31.3502 27.0357 31.3763 26.8512C31.1433 27.0195 30.0557 27.9159 29.4895 28.5081L27.7257 29.9353C27.5222 30.0452 27.3125 30.1433 27.0979 30.2293C26.7939 30.3586 26.4346 30.4687 26.1692 30.5724C26.2405 30.3814 26.3535 30.2129 26.5123 30.0512C26.6806 29.8927 27.1853 29.3457 27.263 29.0912C27.3342 28.8258 27.3505 28.6673 27.2566 28.4439C27.1691 28.4665 26.9686 28.4764 26.8327 28.5152C26.6968 28.554 26.5511 28.6995 26.5511 28.6995C26.5511 28.6995 26.6546 28.1073 26.8779 27.5475C26.7096 27.5539 26.4216 27.6023 26.4216 27.6023C26.4216 27.6023 26.8229 26.9293 27.5096 26.4601C27.2993 26.5049 27.0935 26.5687 26.8948 26.6509C26.4935 26.8192 26.0534 27.0684 25.7266 27.2043C25.9109 26.9483 27.2054 25.1008 27.9757 23.379C28.7437 21.6606 29.0307 21.2205 29.199 20.2982C29.2862 19.8419 29.263 19.1676 29.2862 18.5636C29.3089 17.9648 29.3833 17.4276 29.3349 17.0684C29.5354 17.3175 30.2863 18.0198 30.3122 19.5895C30.3348 21.159 29.5939 23.2789 28.8073 24.4211C28.9993 24.4761 29.4968 24.541 30.008 23.6531C30.5191 22.7652 30.5129 22.5173 30.6974 22.1483C30.7201 22.3328 30.7134 22.3974 30.7134 22.3974C30.7134 22.3974 31.458 21.4946 31.8106 20.3586C31.8819 20.8473 32.0922 21.2779 31.762 22.1743C31.4676 22.9832 31.0825 23.1808 31.0825 23.1808C31.0825 23.1808 31.2734 23.1484 31.5548 22.98C31.6035 23.0997 31.5939 23.236 31.6747 23.2843C31.7556 23.3325 31.8657 23.4137 31.8819 23.4914C31.9691 23.3619 32.105 23.1968 32.1473 23.0739C32.1148 23.3299 32.0922 24.4493 32.2113 25.0189C32.4606 24.9963 32.7162 24.98 32.8909 24.5301C32.7713 24.9704 32.7713 25.2356 32.8521 25.6111C32.9848 25.5206 33.1045 25.3587 33.1045 25.3587L33.1053 25.3593Z" fill="#C0993A"/>
<path fill-rule="evenodd" clip-rule="evenodd" d="M24.696 7.52125C24.696 7.52125 24.4468 7.62471 24.023 7.62471C23.6541 7.62471 23.7576 7.48242 23.1816 7.48242C22.295 7.48242 19.1978 7.99442 18.654 7.98717C18.3011 7.98077 19.8448 8.13927 19.8448 8.13927L23.79 8.19432L24.5827 8.13032L24.8774 7.53085L24.696 7.52125Z" fill="#A88F33"/>
<path fill-rule="evenodd" clip-rule="evenodd" d="M14.4668 15.233C14.4668 15.233 13.9619 15.6181 13.7483 15.9127C13.5348 16.2073 13.4215 16.4013 13.1787 16.6408C13.2357 16.643 13.2926 16.6354 13.347 16.6182C13.347 16.6182 13.347 16.6822 13.3082 16.6991C13.3418 16.6953 13.3757 16.6991 13.4076 16.7102C13.4395 16.7213 13.4685 16.7393 13.4925 16.7631C13.4213 16.8019 13.2271 16.9962 13.3792 17.226C13.4925 17.4007 13.7321 17.4167 13.7321 17.4167C13.7321 17.4167 13.6771 17.5754 13.9068 17.5592C14.402 17.5366 14.9554 17.3197 15.2109 17.3747C15.4669 17.4387 15.6124 17.4622 15.7935 17.7762C15.9855 18.0868 16.1528 18.1354 16.1528 18.1354C16.1528 18.1354 16.2661 17.8472 16.2403 17.4169C16.3331 17.185 16.3846 16.9386 16.3924 16.6888L16.224 15.4494L15.4895 14.5205L14.5381 15.0481L14.4668 15.2324V15.233Z" fill="#E3C571"/>
<path fill-rule="evenodd" clip-rule="evenodd" d="M15.3691 15.0483C15.3691 15.0483 15.4404 15.2166 15.7382 15.2326C15.7058 15.3039 15.7058 15.3137 15.7156 15.3685C15.722 15.4236 15.7316 15.5044 15.7316 15.5044C15.7644 15.4886 15.794 15.4669 15.8191 15.4404C15.8353 15.5117 15.8028 15.6248 15.8191 15.7058C15.8291 15.7551 15.8453 15.8029 15.8675 15.8481C15.8722 15.837 15.8776 15.8263 15.8837 15.8159C15.8901 15.7997 15.9477 15.9906 16.1071 16.1359C16.1069 16.1136 16.1124 16.0915 16.1231 16.0719C16.1255 16.1125 16.1389 16.1516 16.1619 16.1852C16.15 16.1795 16.1391 16.1719 16.1297 16.1626C16.1297 16.1626 16.1457 16.6746 16.2331 16.9393C16.2478 16.9222 16.2608 16.9038 16.272 16.8843C16.272 16.8683 16.2656 17.0268 16.2494 17.1403C16.2267 17.2536 16.243 17.4121 16.243 17.4121C16.3013 17.3661 16.3654 17.328 16.4337 17.2988C16.5307 17.2597 16.6897 17.1401 16.7865 16.8747C16.8427 16.7244 16.886 16.5696 16.916 16.412C16.9473 16.4722 16.9689 16.537 16.98 16.604C16.9866 16.6848 17.1387 16.6428 17.1387 16.6428L17.1712 16.2899L17.3632 15.4906L17.5379 14.9954L18.3793 13.6849L19.8995 12.5141L21.2264 12.8184L22.346 11.2973L20.4172 10.1387L18.592 10.3296L16.9354 12.624L15.6087 14.7051L15.3691 15.0481V15.0483Z" fill="#D8B65B"/>
<path fill-rule="evenodd" clip-rule="evenodd" d="M24.9294 11.7283C24.9294 11.7283 24.8161 11.7509 24.4893 11.9203C24.1625 12.0897 23.9359 12.1435 23.8096 12.3926C23.6833 12.6418 23.6737 12.8393 23.6737 12.8393C23.6737 12.8393 23.8971 12.7423 24.0266 12.7099C24.1625 12.6776 24.3146 12.6872 24.2984 12.7423C24.2828 12.78 24.2612 12.815 24.2344 12.8457C24.2344 12.8457 24.4904 12.8393 24.4836 12.9656C24.4767 13.0919 24.4351 13.231 24.3867 13.2925C24.3381 13.3565 24.1375 13.4512 24.1149 13.5256C24.0599 13.6777 24.1375 13.6841 24.1083 13.807C24.0857 13.9269 23.979 14.1599 23.6294 14.5676C23.2701 14.9755 23.1174 15.2635 23.1174 15.2635C23.1174 15.2635 22.9426 14.9366 22.852 14.655C22.788 14.6872 22.4443 14.8782 22.4443 14.8782L21.6481 12.1048L21.6641 11.9203C21.6641 11.9203 21.7354 11.8331 21.7516 11.6711C21.6319 11.6323 21.6157 11.5999 21.457 11.448C21.2983 11.2961 21.169 11.1113 20.9038 10.9851C20.865 10.9138 20.8164 10.8169 20.6222 10.7779C20.4281 10.7389 20.3116 10.7069 20.3116 10.7069C20.3116 10.7069 20.4151 10.6678 20.4637 10.587C20.3438 10.6032 20.247 10.642 19.9848 10.6356C19.7194 10.629 19.6902 10.6194 19.5447 10.642C19.3992 10.6646 19.2247 10.7295 19.1596 10.5061C19.0884 10.4511 18.9362 10.4997 18.8068 10.6904C18.6773 10.8812 18.632 11.0335 18.3829 11.1079C18.3653 11.2178 18.3269 11.3232 18.2696 11.4185C18.1983 11.5384 18.085 11.6581 17.9329 11.836C17.6934 12.1176 17.7322 12.5804 17.3503 12.9332C16.9653 13.2859 17.4143 11.9557 17.4143 11.9557L18.0292 10.4837L19.78 8.77172L22.4985 8.5874L22.7639 9.9954L24.0908 10.4517L24.929 11.73L24.9294 11.7283Z" fill="#D3AE4D"/>
<path fill-rule="evenodd" clip-rule="evenodd" d="M25.3594 12.0387L24.217 10.3915L23.4176 9.7765C23.4176 9.7765 22.848 8.72818 22.8092 8.69575C22.7767 8.67314 22.2396 8.6149 21.8965 8.59229L21.9605 8.75079C22.0354 8.77511 22.1019 8.81998 22.1525 8.88029C22.3046 9.05501 22.4017 9.38503 22.0555 9.73789C22.1914 9.78631 22.2475 9.80189 22.3661 9.78631C22.2464 9.92882 21.9746 10.233 21.9584 10.4984C21.9422 10.7152 22.0781 10.7798 22.0781 10.7798C22.0781 10.7798 21.8709 11.0194 21.8613 11.4198C21.9592 11.3095 22.0662 11.2077 22.1813 11.1156C22.4209 10.9236 22.7509 10.7077 22.9743 10.5718C22.9712 10.6288 22.9789 10.6859 22.9969 10.7401C22.9969 10.7401 23.4142 10.3971 23.7649 10.5492C23.9234 10.6204 23.8522 10.8438 23.8522 10.8438C23.8522 10.8438 24.0691 10.763 24.2212 10.9151C24.3733 11.0672 24.5901 11.4586 24.7002 11.611C24.7486 11.6822 24.8749 11.8181 25.0042 12.0282C25.1808 12.3228 25.3283 12.6339 25.4445 12.9571C25.4509 12.8276 25.4769 12.6465 25.7005 12.6465L25.3606 12.038L25.3594 12.0387Z" fill="#CAA13E"/>
<path fill-rule="evenodd" clip-rule="evenodd" d="M8.2332 16.7186C8.2332 16.7186 8.15235 16.5178 8.2332 16.1263C8.31405 15.7349 8.44035 15.5503 8.48237 14.9743C8.5244 14.3983 8.89987 13.6798 8.89987 13.6798L9.93859 13.2075L10.6733 13.4081L10.8901 14.3919L9.9612 14.9039C9.9612 14.9039 9.91277 15.1207 9.65059 15.2954C9.3884 15.4701 9.02595 15.606 8.93869 15.7842C8.88653 15.8932 8.84847 16.0085 8.82541 16.1272C8.82541 16.1272 8.56003 16.0722 8.40152 16.2469C8.2332 16.425 8.2396 16.5835 8.2332 16.7194V16.7186Z" fill="#F4EFC8"/>
<path fill-rule="evenodd" clip-rule="evenodd" d="M10.3301 16.4563C10.3301 16.4563 10.2427 16.5113 10.178 16.6483C10.114 16.5448 9.96105 15.9298 9.95465 15.3764C9.94825 14.823 9.91518 14.6858 10.0432 14.4951C10.1712 14.3044 10.6732 14.1034 10.6019 13.76C10.5307 13.4331 10.2328 13.2972 9.86718 13.3911C9.61118 13.4551 9.42068 13.9995 9.15529 14.2713C8.95454 14.4785 8.71518 14.446 8.65054 14.5593C8.56308 14.7114 8.64393 14.8635 8.61812 14.9606C8.6115 14.993 8.53065 15.1677 8.38494 15.3781C8.09054 15.802 7.5922 16.4008 7.52734 16.938C7.54996 16.6338 7.53396 16.6274 7.61481 16.2907L7.56617 16.2099L7.88617 15.1613L8.09332 14.2973L8.55625 12.8505L9.37161 11.3717L10.1646 10.4849L10.9897 10.5399L11.0868 11.7794L11.5593 14.1064L12.5528 15.3297L10.9605 16.4012L10.3295 16.4563H10.3301Z" fill="#EBCC73"/>
<path fill-rule="evenodd" clip-rule="evenodd" d="M10.826 16.8961C10.826 16.8961 10.6901 16.9285 10.6414 16.9027C10.5928 16.8769 10.5446 16.8476 10.5606 16.8152C10.5766 16.7828 10.664 16.728 10.664 16.7019C10.6658 16.6784 10.6584 16.6551 10.6433 16.637C10.6282 16.6189 10.6066 16.6073 10.5832 16.6049C10.5087 16.5953 10.4861 16.6437 10.4861 16.6437C10.4861 16.6437 10.4149 16.5889 10.3568 16.5797C10.3912 16.5755 10.4257 16.5733 10.4603 16.5731C10.3709 16.5326 10.276 16.5053 10.1787 16.4922C10.2596 16.4438 10.4183 16.3013 10.5218 16.3013C10.6252 16.3013 10.6901 16.2853 10.6739 16.2302C10.6576 16.1752 10.5768 16.0944 10.4895 16.0619C10.5218 16.0231 10.5446 15.9649 10.4669 15.8059C10.3859 15.6474 10.4183 15.5405 10.4443 15.5019C10.4669 15.4533 10.5478 15.366 10.5866 15.311C10.6254 15.256 10.6579 15.1815 10.7225 15.1427C10.7549 15.1201 10.8584 15.0787 10.9621 15.0392C11.0754 15.0004 11.1692 14.9517 11.2339 15.0004C11.3051 15.0488 11.2727 15.1137 11.2727 15.1137C11.2727 15.1137 11.496 15.0326 11.6966 15.1363C11.8973 15.2331 12.3861 15.2948 12.3861 15.2948L12.5612 15.6476L11.4026 16.6411L10.9237 16.8807L10.8266 16.8967L10.826 16.8961Z" fill="#E5C66B"/>
<path fill-rule="evenodd" clip-rule="evenodd" d="M12.4337 15.2719C12.4337 15.2719 12.0744 15.5114 11.9936 15.5987C12.042 15.6053 12.1229 15.6377 12.0904 15.6861C12.0516 15.7346 11.8186 15.9029 11.6891 16.0616C11.5533 16.2201 11.4238 16.4209 11.3785 16.5179C11.3301 16.6052 10.961 16.861 10.835 16.8932C11.1003 16.8932 11.6343 16.5664 11.8349 16.5664C11.8285 16.6634 11.8899 16.7735 12.0032 16.7831C12.1165 16.7927 12.4433 16.8544 12.8834 16.5826C13.3235 16.3172 13.178 16.1196 13.3623 15.9904C13.7152 15.7572 13.8575 15.55 14.0516 15.4208C14.2457 15.2915 14.3462 15.262 14.3462 15.262C14.3462 15.262 14.3526 15.165 14.4102 15.1748C14.426 15.1766 14.441 15.1827 14.4535 15.1924C14.4661 15.2021 14.4757 15.215 14.4815 15.2298C14.4815 15.2298 14.8181 14.9903 15.2495 14.9256C15.2394 14.9211 15.2314 14.9131 15.2269 14.903C15.2269 14.903 15.2591 14.8868 15.2657 14.8706C15.2657 14.8706 15.2883 14.8381 15.3045 14.8544C15.3207 14.8706 15.3433 14.9903 15.3758 15.0389C15.447 15.0065 15.5829 14.7022 15.5829 14.7022L15.9099 13.767V12.9126L15.6539 12.9612L13.7339 13.7766L12.5687 14.9839L12.4328 15.2719H12.4337Z" fill="#E6BD62"/>
<path fill-rule="evenodd" clip-rule="evenodd" d="M17.9613 11.081C18.0651 11.0558 18.1647 11.0154 18.2567 10.9611C18.2179 11.0648 18.2179 11.1781 18.0496 11.4241C17.8813 11.67 17.8749 11.7057 17.739 11.9612C17.6031 12.2266 17.5869 12.6085 17.4574 12.7766C17.5154 12.7484 17.5777 12.7299 17.6417 12.7218C17.6417 12.7218 17.5124 12.835 17.4574 12.9547C17.4023 13.0744 17.3053 13.3236 17.0659 13.4759C16.8265 13.6282 16.5221 13.7251 16.1953 14.0843C15.8682 14.437 15.5318 14.8837 15.3633 15.0443C15.4507 14.8922 15.5704 14.588 15.6029 14.3875C15.6353 14.1869 15.5962 13.9472 15.6513 13.682C15.7063 13.4168 15.7063 13.2257 15.9713 12.7627C16.2362 12.2998 16.6898 10.6915 16.6898 10.6915L17.6671 10.3809L17.9617 11.08L17.9613 11.081Z" fill="#B6933F"/>
<path fill-rule="evenodd" clip-rule="evenodd" d="M17.2557 10.4887C17.2557 10.4887 16.9613 10.9126 16.8805 11.288C16.7996 11.6635 16.8739 11.6311 16.8254 11.8156C16.7965 11.9281 16.7965 12.0461 16.8254 12.1586C16.9274 11.9944 17.067 11.8568 17.2327 11.7572C17.5111 11.589 17.7376 11.4692 17.8727 11.3269C18.0086 11.1748 18.1219 10.9256 18.4163 10.7346C18.2966 10.7184 18.1283 10.6634 18.0963 10.6706C18.2162 10.5348 18.5752 10.3276 18.9376 10.0784C19.2969 9.82243 19.2743 9.71918 19.8569 9.46361C19.666 9.49603 19.5753 9.44739 19.4166 9.46361C19.4806 9.32771 19.7046 9.26286 19.9286 9.03971C20.1526 8.81657 19.7863 8.48633 19.7863 8.48633L18.0796 9.51865L17.2544 10.4895L17.2557 10.4887Z" fill="#C49937"/>
<path fill-rule="evenodd" clip-rule="evenodd" d="M12.625 9.71858L12.6638 9.40797L13.1526 8.62482L13.6639 7.24946V5.36914L13.6251 4.28178L13.706 3.56967L13.7674 3.34333L13.8323 3.25586L14.2495 3.47261L14.8257 4.25575L14.8808 5.76722L14.3208 8.15229L12.7221 9.89671L12.625 9.71858Z" fill="#DFC068"/>
<path fill-rule="evenodd" clip-rule="evenodd" d="M13.8971 3.16818C13.8971 3.16818 13.6411 3.17479 13.5865 4.23954C13.5319 5.30428 13.5054 5.86407 13.4666 6.39164C13.4278 6.91922 13.3373 7.23943 13.2919 7.55026C13.2464 7.86108 13.2206 8.28476 13.0751 8.54375C13.0111 8.66343 12.8744 9.0389 12.554 9.3205C12.1947 9.63111 11.658 9.84807 11.5767 9.86428C11.4342 9.8965 10.7125 9.96775 10.4181 10.1297C10.3146 10.1847 10.1365 10.2494 9.93913 10.4339C9.54745 10.7865 9.02649 11.4176 8.65102 12.1781C8.07502 13.3141 7.49902 16.5211 7.49902 16.5211L7.62852 16.3044C7.62852 16.3044 7.64473 16.0164 7.93273 15.5114C8.21433 15.0067 8.13348 14.4403 8.52494 13.4726C8.67705 13.1038 8.86798 12.6248 9.10094 12.2169C9.47001 11.5535 9.91652 10.9839 10.3664 10.6732C11.1009 10.1685 11.9101 10.0584 11.9101 10.0584L12.7807 9.48242C12.7807 9.48242 12.9328 9.18802 13.1336 8.85138C13.415 8.37906 13.7736 7.85148 13.8519 7.08455C13.9718 5.94855 13.6836 5.20423 13.6998 4.53116C13.716 3.8581 13.7224 3.36295 13.8585 3.24306C13.9946 3.12316 13.8973 3.1686 13.8973 3.1686L13.8971 3.16818Z" fill="#A88F33"/>
<path fill-rule="evenodd" clip-rule="evenodd" d="M13.8969 8.24925C13.8969 8.24925 14.2809 7.30419 14.4567 6.466C14.4891 6.29768 14.5538 6.12957 14.57 5.99368C14.6508 5.20072 14.6734 4.87389 14.57 4.44019C14.4891 4.12019 14.1785 3.83176 14.0166 3.60819C13.8581 3.37501 13.7836 3.28819 13.8161 3.23912C13.8485 3.19005 13.9746 3.10984 14.0974 3.11944C14.2281 3.12324 14.3565 3.15357 14.4751 3.20858C14.5936 3.26359 14.6997 3.34214 14.7869 3.43944C15.0361 3.72744 15.2334 4.70493 15.2334 4.70493L15.441 5.99475L15.9686 7.61928L13.8973 8.25053L13.8969 8.24925Z" fill="#C99E3D"/>
<path fill-rule="evenodd" clip-rule="evenodd" d="M17.5051 7.26535C17.5051 7.26535 17.4338 7.29756 17.3045 7.26535C17.3101 7.31818 17.3009 7.37151 17.278 7.41946C17.2552 7.46742 17.2195 7.50814 17.175 7.53714C17.0392 7.4821 15.767 7.59218 15.767 7.59218C15.767 7.59218 15.1748 7.4885 14.9903 6.70535C14.861 6.18418 15.0874 5.46588 15.0129 4.99335C14.8996 4.29746 14.7411 4.16135 14.7249 3.94482C14.7087 3.72828 14.6925 3.67303 14.6925 3.53714C14.6212 3.52092 14.5792 3.49831 14.5082 3.49831C14.492 3.43431 14.5242 3.37842 14.4531 3.26514C14.492 3.28135 14.7573 3.31378 15.068 3.60818C15.324 3.84775 15.324 3.935 15.3626 3.98364C15.411 4.03207 15.8027 4.36764 15.971 4.70215C16.1393 5.03666 16.4661 6.10332 16.5406 6.27804C16.5632 6.3493 16.6118 6.42055 16.7326 6.58226C16.9203 6.81543 17.1953 7.20092 17.5059 7.26492L17.5051 7.26535Z" fill="#B58634"/>
<path fill-rule="evenodd" clip-rule="evenodd" d="M15.4082 4C15.6043 4.3167 15.7804 4.6453 15.9356 4.98389C16.1265 5.41419 16.2398 5.76704 16.4794 6.05504C16.3499 5.67979 16.1201 4.94187 15.9842 4.67968C15.8321 4.40235 15.5215 4.10368 15.4082 4.00021V4Z" fill="#A88F33"/>
<path fill-rule="evenodd" clip-rule="evenodd" d="M13.2073 9.32053C13.2073 9.32053 12.8805 9.40138 12.2721 9.72181C12.0713 9.82527 11.8806 9.91253 11.6961 9.99359C11.2167 10.2103 10.7026 10.4107 10.2947 10.5212C10.3271 10.56 10.3431 10.576 10.3431 10.576C10.3431 10.576 10.3431 10.7347 10.4306 10.8252C10.3821 10.8738 9.73467 11.3139 9.92582 12.7863C10.0551 12.7379 10.2072 12.6731 10.2298 12.6731C10.2689 12.6797 10.2785 12.7863 10.3269 12.7863C10.3753 12.7863 10.534 12.7223 10.7024 12.5047C10.696 12.5922 10.5989 13.4724 11.1198 14.0646C11.2169 13.9514 11.4629 13.5759 11.4629 13.5759L11.4693 13.4562C11.4693 13.4562 11.4919 13.0387 11.628 12.6568C11.7641 12.275 12.0293 11.9934 12.0293 11.9934L13.414 10.016L13.2069 9.32031L13.2073 9.32053Z" fill="#E6C367"/>
<path fill-rule="evenodd" clip-rule="evenodd" d="M11.913 12.2242C11.8496 12.269 11.7797 12.3039 11.7058 12.3277C11.6832 12.2468 11.6508 11.9684 11.8417 11.6967C12.0651 11.3696 12.5536 10.9457 12.6895 10.6087C12.777 10.3917 12.7382 9.84812 13.5149 9.15223C14.2917 8.45634 14.5957 8.21698 14.5957 8.21698L15.8513 7.58594L17.395 8.19436L16.6281 11.2002L16.0327 12.6082L13.6647 12.1617L11.9128 12.2242H11.913Z" fill="#DCBA5A"/>
<path fill-rule="evenodd" clip-rule="evenodd" d="M12.8164 11.4079L13.111 11.039V10.7768C13.111 10.7768 13.4378 10.6894 13.7905 10.3301C14.1431 9.97087 14.6319 9.28159 15.0624 9.32361C15.4929 9.37225 15.5349 10.2589 15.5511 10.5083C15.5673 10.7576 15.6224 11.3236 15.7096 11.628C15.8067 11.9323 14.6611 13.0843 14.6611 13.0843L13.8831 13.6765L12.8164 11.4079Z" fill="#E9CE77"/>
<path fill-rule="evenodd" clip-rule="evenodd" d="M13.7285 14.479C13.7285 14.479 13.9681 14.1035 13.7925 14.0227C13.896 13.7897 14.0869 13.5438 14.0869 13.5438C14.0869 13.5438 14.2228 13.2073 14.6629 12.793C15.103 12.3787 15.375 12.1035 15.4463 11.8254C15.4902 11.6441 15.5141 11.4585 15.5175 11.272C15.5651 11.3108 15.616 11.3455 15.6696 11.3754C15.7409 11.4079 16.0773 11.6861 16.0289 12.2461C15.9805 12.8061 15.7729 13.039 15.7729 13.039C15.7729 13.039 15.5724 13.2395 15.4301 13.3432C15.2777 13.4467 15.2229 13.5664 14.9671 13.5762C14.9934 13.5553 15.023 13.5389 15.0546 13.5275C15.0546 13.5275 14.7892 13.4953 14.6467 13.6246C14.5042 13.7539 14.2013 14.1522 14.0492 14.2721C13.897 14.3691 13.7292 14.4792 13.7292 14.4792L13.7285 14.479Z" fill="#CDAE50"/>
<path fill-rule="evenodd" clip-rule="evenodd" d="M24.4889 8.18415C24.1066 8.04481 23.7048 7.9662 23.2981 7.95119C22.6184 7.92858 21.6249 7.96741 20.6509 7.97381C19.6023 7.98021 18.6509 7.61455 17.3305 7.54991C17.1138 7.42042 16.5625 6.85402 14.8418 8.05466C14.9453 8.04826 16.0911 7.78927 16.4889 8.28783C16.8902 8.78298 16.7769 9.62437 16.7221 9.8249C16.6184 10.2716 16.2818 10.9221 16.1461 11.3784C16.0104 11.8347 16.0424 12.0745 15.9454 12.3945C15.8483 12.7145 15.6348 12.8734 15.7608 13.2423C15.9292 13.1388 16.0168 13.1388 16.298 12.5078C16.5792 11.8767 16.5214 11.4268 16.9875 10.8928C17.4438 10.3557 18.2035 9.62095 18.4924 9.43642C18.7812 9.25189 21.0748 8.06106 23.4763 9.19706C24.0555 9.13562 24.4892 8.18394 24.4892 8.18394L24.4889 8.18415Z" fill="#D2A83E"/>
<path fill-rule="evenodd" clip-rule="evenodd" d="M15.8095 7.74404C15.8071 7.71972 15.8017 7.69578 15.7935 7.67278C15.771 7.62546 15.7415 7.5818 15.706 7.54329C15.706 7.54329 15.1364 7.43982 14.8484 7.47204C14.3435 7.52708 13.8871 8.15172 13.6736 8.47214C13.4601 8.79257 13.1947 9.2875 12.9067 9.54329C12.9098 9.51837 12.9041 9.49314 12.8905 9.47204C12.8905 9.47204 12.9067 9.49465 12.8745 9.52708C12.8422 9.5595 12.842 9.5755 12.8582 9.59108L12.9069 9.6395C12.9229 9.6395 13.3696 9.43876 13.978 8.8715C14.6253 8.27929 15.1204 7.9755 15.3794 7.8714C15.5175 7.8127 15.6619 7.76997 15.8097 7.74404H15.8095Z" fill="#C29637"/>
<path fill-rule="evenodd" clip-rule="evenodd" d="M26.8578 5.31055C26.8578 5.31055 26.7541 5.43983 26.6247 5.58233C26.3367 5.88655 25.9612 6.22937 25.6408 6.58223C25.3368 6.91887 24.9937 7.18105 24.6084 7.62116C24.2232 8.06127 23.7764 8.5498 23.6634 8.69231C23.5599 8.83481 23.4791 9.06777 23.4791 9.18745C23.424 9.14863 23.3594 9.1066 23.3594 9.1066C23.3866 9.15741 23.4191 9.20518 23.4564 9.24911C23.5373 9.36239 23.6634 9.50511 23.7282 9.59215C23.8078 9.70295 23.8649 9.82826 23.8963 9.961C23.9352 9.9674 24.1843 10.016 24.4952 9.50468C24.806 8.99332 25.2135 8.43353 25.2135 8.43353L25.8607 7.47225L26.2686 6.65689L26.7806 5.74425L26.8585 5.31055H26.8578Z" fill="#AC8132"/>
<path fill-rule="evenodd" clip-rule="evenodd" d="M27.5216 4.65723C27.5216 4.65723 27.1299 4.97723 26.9778 5.16923C26.8257 5.36123 26.4658 5.86512 26.4658 5.86512L26.5953 5.84891L27.2524 5.26651L27.5084 4.81019L27.5214 4.65808L27.5216 4.65723Z" fill="#A88F33"/>
<path fill-rule="evenodd" clip-rule="evenodd" d="M27.4021 30.3752C27.4021 30.3752 27.3957 30.1098 27.5446 29.9513C27.6967 29.7926 28.0818 29.5597 28.4572 28.6859C28.8327 27.812 28.8745 27.6147 28.8745 27.6147C28.8745 27.6147 28.2015 28.1907 27.7865 28.3266C27.8836 28.1258 27.9386 27.9836 27.9873 27.8799C27.9322 27.8314 27.6993 27.7764 27.6767 27.7506C27.8059 27.6211 27.8772 27.3039 28.1394 27.0935C28.476 26.8375 29.0908 26.3976 29.5687 26.0055C30.0466 25.6134 30.9861 24.7014 31.106 24.436C31.1772 24.5395 31.1932 24.6041 31.1932 24.6041C31.1932 24.6041 30.7209 25.2192 30.475 25.6106C30.258 25.9473 30.2742 26.1382 30.2742 26.1382L30.7209 25.9462C30.7209 25.9462 30.8502 26.4252 30.2646 27.1535C30.5206 27.0564 30.6239 27.1146 30.7694 27.0336C30.5298 27.1859 30.1998 27.393 29.8891 27.9624C29.5849 28.532 29.1706 29.1955 28.4718 29.6096C27.7921 30.0465 27.4004 30.3733 27.4004 30.3733L27.4021 30.3752Z" fill="#A67A2E"/>
<path fill-rule="evenodd" clip-rule="evenodd" d="M25.6475 8.5211C25.6475 8.5211 25.3822 9.07427 25.3433 9.50478C25.3369 9.60846 25.3109 9.68931 25.3109 9.80899C25.3045 10.1941 25.3335 10.6246 25.2469 10.8251C25.2145 10.7442 25.1983 10.6892 25.1658 10.657C25.1174 10.7929 25.03 11.2168 24.9587 11.3753C24.9265 11.2718 24.8552 10.9126 24.8618 10.4887C24.8685 10.0648 24.8778 9.98371 24.8778 9.89646C24.8618 10.0257 24.7744 10.2007 24.7419 10.3041C24.6935 10.2169 24.6385 10.1036 24.5736 10.0097C24.5348 10.0737 24.4864 10.1682 24.4444 10.2169C24.4377 10.1781 24.4217 10.0744 24.4119 9.92889C24.4055 9.76057 24.3957 9.54382 24.4055 9.49838C24.4215 9.41112 24.5576 9.06809 24.8456 8.75406C25.1887 8.37859 25.5415 7.6571 25.645 7.43374C25.7485 7.21038 26.1886 6.28174 26.1886 6.28174H26.5252L26.0365 7.39491C26.0365 7.39491 25.7421 8.00334 25.5899 8.22691C25.4378 8.45049 25.1174 9.09112 24.9749 9.3403C25.0784 9.2044 25.1658 9.13315 25.2695 9.00366C25.3698 8.91299 25.648 8.52153 25.648 8.52153L25.6475 8.5211Z" fill="#8C6228"/>
<path fill-rule="evenodd" clip-rule="evenodd" d="M27.5276 4.61475C27.4726 4.78399 27.3857 4.94113 27.2716 5.07768C27.0708 5.31725 26.6403 5.63747 26.4302 5.89304C26.2382 6.14221 25.8542 6.82189 26.0287 7.62765C26.0927 7.45293 26.2132 7.10669 26.5337 6.71501C26.8541 6.32333 27.1971 5.87363 27.3657 5.52419C27.5338 5.17133 27.5564 4.89315 27.5564 4.89315L27.6204 4.81229L27.5816 4.62776L27.5265 4.61475H27.5276Z" fill="#CBA94C"/>
<path fill-rule="evenodd" clip-rule="evenodd" d="M34.0809 26.0807C34.0809 26.0807 33.9514 25.728 33.9126 25.4076C33.8738 25.0872 33.9766 25.0236 33.8576 24.6569C33.7863 24.4335 33.657 24.4649 33.6246 24.4335C33.5922 24.4022 33.5696 24.0647 33.576 23.8801C33.5824 23.6956 33.5696 23.4563 33.5371 23.3526C33.4887 23.3137 33.4563 23.2813 33.385 23.042C33.3042 22.8024 33.2653 22.6827 33.2265 22.6117C33.1877 22.5406 33.0742 22.4758 33.0742 22.4045C33.0742 22.262 33.2037 22.1878 33.2037 22.1485C33.1973 22.0677 33.1002 22.1325 33.0742 22.1097C33.042 22.0709 33.1553 21.8379 33.1132 21.8055C33.097 21.7895 32.9837 21.9254 32.9545 21.8865C32.9221 21.8475 32.8833 21.4624 32.825 21.2069C32.7702 20.9577 32.7117 20.7766 32.7053 20.7021C32.6989 20.6309 32.2586 19.3752 32.152 19.071C32.066 18.8139 31.9936 18.5525 31.9352 18.2878C31.9028 18.1357 31.8802 17.8249 31.864 17.8573C31.8477 17.8897 31.8576 18.0482 31.8315 18.0418C31.8089 18.0352 31.7281 17.4821 31.7023 17.3946C31.6796 17.3071 31.5435 17.0106 31.5103 16.796C31.4778 16.579 31.4068 16.0126 31.3581 15.6276C31.3095 15.2425 31.2869 15.084 31.2869 14.9876C31.2948 14.7517 31.2819 14.5156 31.2481 14.2821C31.1841 13.8742 31.0561 13.379 30.9439 13.0912C30.7271 12.5474 30.1509 11.1559 30.0479 10.8096C30.0479 10.7222 30.1611 10.7708 30.1611 10.7708C30.1611 10.7708 30.4425 11.4763 30.6497 12.0199C30.8504 12.5637 31.0413 13.0426 31.09 13.0912C31.1288 13.1397 31.433 13.6736 31.5689 14.5474C31.7048 15.4213 31.7532 16.227 31.8343 16.7642C31.8731 17.0202 31.9056 17.2918 31.9864 17.5636C32.0737 17.8582 32.2096 18.1624 32.3877 18.6283C32.5398 19.02 32.6531 19.3468 32.7145 19.6284C32.7858 19.9877 32.7858 20.2595 32.8278 20.4376C32.8668 20.5897 32.9249 20.8937 33.061 21.3336C33.1971 21.7735 33.3974 22.3401 33.5333 22.6927C33.7989 23.3982 33.9173 23.9872 33.9574 24.3013C33.9928 24.6249 34.1127 25.7447 34.0803 26.0811L34.0809 26.0807Z" fill="#A88F33"/>
<path fill-rule="evenodd" clip-rule="evenodd" d="M27.5446 4.57595L27.5284 4.61477C27.5284 4.61477 27.5769 4.63099 27.5673 4.69584C27.5679 4.78457 27.5625 4.87324 27.551 4.96123C27.535 5.07451 27.5026 5.16176 27.4962 5.23301C27.4962 5.38512 27.5188 5.55984 27.3042 5.99355C27.2402 6.11323 27.2007 6.21669 27.1683 6.28795C27.0875 6.46267 27.0713 6.48869 27 6.56955C27.1133 6.50555 27.5212 6.24955 27.7281 6.28795C27.5858 6.3688 27.3689 6.52752 27.233 6.73467C27.2654 6.74107 27.4013 6.76709 27.617 6.73467C27.9762 6.67963 28.3775 6.55013 28.7301 6.57595C29.1154 6.59856 28.9633 6.11323 28.9633 6.11323L28.5187 5.13595L27.6773 4.54395L27.5446 4.57616V4.57595Z" fill="#BE9C44"/>
<path fill-rule="evenodd" clip-rule="evenodd" d="M29.7378 11.8967C29.7378 11.8967 29.3623 11.5213 29.2102 10.2327C29.0581 8.93822 29.0906 7.03273 29.0906 7.03273L28.7863 6.28841C28.7863 6.28841 28.7223 5.79326 28.563 5.60894C28.4036 5.42462 28.0907 5.11379 27.9482 4.96169C27.8056 4.80958 27.6439 4.60243 27.5469 4.57001C27.5953 4.48915 27.8123 4.03283 28.6438 4.02643C29.4754 4.02003 29.7318 4.48275 29.8187 4.65107C29.9055 4.81939 30.2976 5.54707 30.4431 6.93374C30.579 8.3187 30.5856 8.42238 30.563 8.90131C30.5468 9.1667 30.4593 9.78153 30.307 10.4384C30.1679 10.9952 30.0158 11.6166 29.7374 11.898L29.7378 11.8967Z" fill="#A17C34"/>
<path fill-rule="evenodd" clip-rule="evenodd" d="M28.5609 13.0003C28.6861 13.0093 28.8111 12.9811 28.9202 12.9192C29.0399 12.9128 29.4736 12.9678 29.8068 12.5439C29.8294 12.6408 29.8879 12.9032 29.7356 13.1362C29.8166 13.0551 29.9363 13.0229 29.9525 13.0003C29.9589 13.1199 30.0722 13.4888 29.5933 14.3852C29.7225 14.2429 29.8747 14.2493 30.0105 14.2331C30.0172 14.4014 30.1076 14.9676 29.8683 15.2721C29.7097 15.4792 29.4508 15.4143 29.4508 15.4143C29.4545 15.3691 29.4545 15.3237 29.4508 15.2785C29.4444 15.191 29.4119 15.1037 29.4348 15.0455C29.3096 14.9883 29.1956 14.9094 29.0981 14.8123C28.8165 14.5469 28.4509 14.094 28.4251 13.7574C28.3926 13.3819 28.7293 13.3011 28.7293 13.3011C28.7011 13.2758 28.677 13.2463 28.658 13.2136C28.6418 13.1588 28.6256 13.0713 28.5609 13.0003Z" fill="#8C6228"/>
<path fill-rule="evenodd" clip-rule="evenodd" d="M26.0654 8.92887C26.0654 8.92887 26.0492 8.90626 25.9619 9.00973C25.9781 8.90626 25.9943 8.80898 26.0007 8.71511C26.042 8.62821 26.0955 8.54762 26.1595 8.47575C26.1108 8.57261 26.0784 8.66007 26.0784 8.66007C26.0784 8.66007 26.1983 8.43671 26.373 8.30082C26.4927 8.20375 26.6448 8.15853 26.7094 8.06786C26.7807 7.97079 26.7645 7.95458 26.7807 7.93837C26.7807 7.93837 26.9394 7.8349 27.1822 7.53047C27.2144 7.49165 27.263 7.44962 27.2955 7.41079C27.3503 7.38818 27.4798 7.32994 27.6319 7.25207C27.7906 7.16482 27.9685 7.04514 28.0786 6.99607C28.2954 6.89901 28.5253 6.90882 28.632 6.7565C28.7128 6.73389 28.8001 6.49111 28.7841 6.28418C28.9038 6.33261 29.5186 6.71447 29.7292 7.54946C29.8813 8.14167 29.6093 9.05431 29.496 9.49463C29.3827 9.93495 29.3667 10.2616 29.208 10.4621C29.0072 10.7277 28.3602 11.1021 28.2015 11.2875C28.0656 11.4396 27.6579 11.8247 27.6739 12.1028C27.6901 12.31 27.9457 12.4228 28.001 12.4621C28.0562 12.5014 28.0558 12.5496 28.1595 12.5261C28.2631 12.5026 28.3018 12.4548 28.344 12.4548C28.3924 12.4612 28.3924 12.4711 28.415 12.4711C28.4314 12.4706 28.4477 12.4684 28.4637 12.4644C28.4637 12.4644 28.4475 12.7591 27.7582 12.8484C27.7095 12.8551 27.6611 12.8711 27.5995 12.8809C27.6805 12.842 27.729 12.842 27.8164 12.7224C27.7194 12.7062 27.441 12.6899 27.3697 12.6673C27.3923 12.6285 27.4668 12.5248 27.5282 12.4764C27.5832 12.428 27.5218 12.4124 27.4734 12.4376C27.39 12.4943 27.31 12.5558 27.2338 12.6219C27.153 12.6931 27.0817 12.7902 26.9522 12.8779C26.9134 12.7484 26.9198 12.5024 27.0721 12.3245C27.0331 12.3309 26.9586 12.4442 26.8876 12.4216C26.8747 12.3035 26.8824 12.1841 26.9102 12.0687C26.949 11.923 27.1594 11.6674 27.1594 11.6674L28.1755 9.85175L28.3922 8.47639L26.0654 8.92845V8.92887Z" fill="#92723A"/>
<path fill-rule="evenodd" clip-rule="evenodd" d="M26.0098 9.00653C26.0098 9.00653 25.9548 9.04536 26.0648 9.11981C26.0486 9.14242 26.0098 9.22328 25.9612 9.27832C25.9063 9.34232 25.8479 9.382 25.8253 9.43704C25.7768 9.55032 25.738 9.62797 25.738 9.67661C25.738 9.72525 25.7218 10.0359 25.5859 10.2364C25.5373 10.3077 25.4822 10.4273 25.4434 10.5082C25.3625 10.6505 25.2913 10.7642 25.2751 10.8282C25.2429 10.9415 25.2202 11.2521 25.2202 11.2521C25.2202 11.2521 25.2915 11.1646 25.3173 11.1324C25.2783 11.2133 25.2362 11.3005 25.1748 11.3654C25.2136 11.3329 25.3269 11.2521 25.5178 11.0838C25.7832 10.8606 26.1975 10.4851 26.7025 10.1878C26.5502 10.2428 26.4209 10.2428 26.3174 10.259C26.3983 10.1782 27.1264 9.32376 27.5082 9.2429C27.5314 9.2135 27.543 9.1766 27.5407 9.13922L27.2136 9.10701L26.5502 9.2493L26.4533 8.7373L26.0098 9.00589V9.00653Z" fill="#B18E3E"/>
<path fill-rule="evenodd" clip-rule="evenodd" d="M27.0651 11.9191C27.0651 11.9191 26.9776 12.0063 26.8968 12.2233C26.8345 12.1583 26.7812 12.0853 26.7381 12.0063C26.6184 11.8058 26.4341 11.55 26.0036 11.6957C25.9972 11.5598 25.9874 11.4886 26.0036 11.3915C26.0748 11.3755 26.2916 11.2008 26.5083 10.945C26.6606 10.7703 26.8029 10.5695 26.9 10.314C26.964 10.2653 27.0747 10.1845 27.22 10.0906C27.4271 9.94831 27.6763 9.75396 27.7151 9.53721C27.6181 9.57604 27.4109 9.67311 27.1001 9.65711C27.22 9.60207 27.4043 9.54383 27.3817 9.30425C27.4303 9.27183 27.4692 9.24921 27.4692 9.24921C27.4327 9.23705 27.3943 9.23155 27.3559 9.233C27.3493 9.21039 27.3397 9.17817 27.2846 9.19417C27.2296 9.21017 27.2206 9.21039 27.2134 9.233C27.1908 9.23961 27.1163 9.233 27.0613 9.27204C27.0062 9.31108 26.8541 9.44015 26.7959 9.46276C26.8185 9.42393 26.8507 9.36591 26.8507 9.36591C26.8507 9.36591 26.6922 9.38191 26.5789 9.42991C26.3718 9.50116 26.1324 9.63065 25.8896 9.75673C25.9123 9.71791 25.9221 9.69273 25.9381 9.68548C25.9541 9.67823 25.9931 9.66948 25.9931 9.66287C25.9931 9.65625 25.9771 9.59887 25.9867 9.57561C26.0593 9.42185 26.1449 9.27461 26.2427 9.13551C26.356 8.98319 26.3786 8.76644 26.3786 8.76644L26.8738 8.51727L28.2653 8.19727L29.1684 8.25231L29.0551 8.87695L28.5218 9.96751L28.0654 10.961L27.5443 11.5696L27.0653 11.9191H27.0651Z" fill="#543E26"/>
<path fill-rule="evenodd" clip-rule="evenodd" d="M29.3212 9.21584C29.3212 9.21584 28.7774 9.88891 28.6253 9.99259C28.7224 9.78544 29.3212 8.55238 29.5379 8.20934C29.4895 8.17051 29.4247 8.17051 29.5768 7.56934C29.4475 7.87334 29.402 8.03206 29.2954 8.11291C29.1887 8.19376 29.1755 8.16795 29.1034 8.16795C29.117 8.14332 29.1226 8.11506 29.1194 8.0871C29.1194 8.0871 28.6631 8.03206 28.3514 8.03206C28.0397 8.03206 27.4227 8.20038 27.0795 8.33627C26.8077 8.44955 26.6556 8.44955 26.5585 8.52059C26.4615 8.60144 26.4064 8.68891 26.3578 8.71152C26.3189 8.73414 26.1346 8.79238 26.0924 8.85382C26.0536 8.91782 25.9889 8.98971 25.9889 9.00592C25.9889 9.02214 25.9727 9.04496 26.0213 9.02854C26.0373 9.02214 26.1572 8.95728 26.2931 8.87643C26.4775 8.77296 26.7008 8.65328 26.8627 8.58203C27.3255 8.3975 27.4712 8.42992 27.6781 8.3911C27.8948 8.35227 28.2057 8.2616 28.4126 8.2616C28.6197 8.2552 29.0114 8.2616 29.1021 8.27782C29.0633 8.31024 29.0308 8.34907 29.0471 8.48496C29.0471 8.52379 29.0146 8.56582 28.9831 8.65968C28.8862 8.92507 28.7017 9.36518 28.5991 9.58854C28.4568 9.89254 28.2951 10.1483 28.2151 10.3068C28.1351 10.4653 27.9591 10.8828 27.7848 11.1062C27.6105 11.3295 27.5194 11.4654 27.4648 11.5141C27.4101 11.5627 27.018 11.8505 27.0473 11.9542C27.1185 11.9316 27.5684 11.7622 27.8951 11.3944C28.2217 11.0266 28.2867 10.8022 28.5423 10.6014C28.7979 10.4007 28.9986 10.0643 29.1183 9.78608C29.2186 9.5271 29.196 9.44624 29.322 9.21648L29.3212 9.21584Z" fill="#806031"/>
<path fill-rule="evenodd" clip-rule="evenodd" d="M17.6023 14.2396C17.6023 14.2396 17.5311 14.534 17.3691 14.6797C17.2106 14.8222 16.929 14.9451 16.8968 15.1847C16.858 15.424 17.1784 15.5439 17.1784 15.5439C17.1784 15.5439 17.0035 15.8319 17.0035 16.0487C17.0035 16.272 16.9971 16.3141 17.0197 16.5276C16.994 16.5441 16.9722 16.5659 16.9557 16.5916C16.9557 16.5916 16.9717 16.7988 17.1304 16.928C17.2891 17.0573 17.4248 17.1352 17.5057 17.1028C17.518 17.1291 17.5288 17.1562 17.5381 17.1838C17.5381 17.1838 17.658 16.8796 17.7388 16.6142C17.8197 16.3424 17.891 16.381 17.9232 16.0154C17.9554 15.6497 18.3072 15.0219 18.3072 15.0219L18.5472 14.4854L18.1557 14.1812L17.6023 14.2394V14.2396Z" fill="#B6903C"/>
<path fill-rule="evenodd" clip-rule="evenodd" d="M18.3308 14.7671C18.2501 14.85 18.1756 14.9387 18.1079 15.0325C18.0044 15.175 17.9236 15.3043 17.7715 15.3595C17.6194 15.4148 17.5223 15.4143 17.5319 15.5667C17.5415 15.719 17.684 15.7834 17.7649 15.8611C17.8523 15.9419 17.9236 16.0778 17.8848 16.2301C17.9332 16.2075 18.0206 16.1815 18.1015 16.0068C18.1824 15.832 18.7479 14.7673 18.7479 14.7673H18.3308V14.7671Z" fill="#685026"/>
<path fill-rule="evenodd" clip-rule="evenodd" d="M20.561 12.3105C20.561 12.3105 20.6094 12.1812 20.561 12.0874C20.5124 11.9903 20.218 11.9579 20.0722 11.8478C19.9201 11.7345 19.7356 11.6558 19.5835 11.7055C19.6061 11.6505 19.6968 11.5306 19.6223 11.5048C19.5511 11.4821 19.2859 11.6018 19.2146 11.6569C19.1434 11.7119 18.9815 11.7765 18.9493 11.8156C18.917 11.8546 18.8618 11.9289 18.8294 11.8964C18.7969 11.8738 18.7809 11.8156 18.7259 11.8478C18.6709 11.88 18.4059 12.097 18.357 12.2233C18.3082 12.3496 18.1983 12.6312 17.8683 12.9514C17.5383 13.2716 17.3958 13.4789 17.4928 13.5986C17.5899 13.7183 17.6353 13.6311 17.6516 13.7345C17.664 13.8361 17.6585 13.9391 17.6353 14.0387C17.5965 14.2071 17.5319 14.3656 17.6191 14.398C17.8425 14.4692 18.0594 14.334 18.1079 14.3754C18.2049 14.4626 18.0528 14.7767 18.2826 14.8381C18.5158 14.9021 18.7455 14.7831 18.7455 14.7831L19.5933 14.3267L20.4089 13.8964L20.8262 13.0711L20.6024 12.3818L20.5597 12.3105H20.561Z" fill="#D4B968"/>
<path fill-rule="evenodd" clip-rule="evenodd" d="M19.7608 14.2818C19.7608 14.2818 19.6183 14.0651 19.7932 13.8739C19.9681 13.6828 20.2171 13.6021 20.3142 13.4824C20.2957 13.4596 20.2709 13.4428 20.2429 13.434C20.3073 13.3187 20.4056 13.226 20.5245 13.1684C20.4761 13.12 20.4112 13.0812 20.3402 13.0812C20.1815 13.0812 20.0842 13.1782 19.9387 13.1782C19.7964 13.1782 19.7802 13.107 19.7802 13.107C19.7802 13.107 20.0198 13.0844 19.9969 12.9775C19.9743 12.8642 19.9329 12.8642 19.9329 12.8642C19.9329 12.8642 20.3957 12.6722 20.4765 12.5698C20.5574 12.4674 20.5478 12.3464 20.564 12.298C20.6188 12.298 20.9392 12.1297 21.0687 12.2009C21.1982 12.2722 21.1075 12.4663 21.1075 12.4663C21.1075 12.4663 21.4994 12.1717 21.6991 11.8829C21.8738 11.8991 21.9551 11.7632 22.0831 11.7632C22.2418 11.7632 22.491 11.9799 22.5394 12.4426C22.5719 12.708 22.6203 12.8601 22.5719 13.3295C22.5493 13.5949 22.5557 14.1615 22.6359 14.4426C22.6907 14.666 22.8202 14.6434 22.8202 14.6434C22.8003 14.7115 22.7609 14.7722 22.7069 14.8181C22.6194 14.899 22.6098 15.1127 22.6194 15.1936C22.6323 15.2527 22.6486 15.311 22.6681 15.3683C22.6681 15.3683 22.5646 15.488 22.5386 15.569C22.516 15.6499 22.4093 15.7049 22.3314 15.7049C22.2536 15.7049 22.2926 15.6983 22.1891 15.7049C22.0857 15.7116 22.0533 15.7276 21.9884 15.7049C21.9235 15.6823 21.8751 15.6563 21.9011 15.4489C21.9238 15.2418 21.1018 14.7597 21.1018 14.7597L19.7578 14.2807L19.7608 14.2818Z" fill="#CCA849"/>
<path fill-rule="evenodd" clip-rule="evenodd" d="M18.2169 16.3266C18.2169 16.3266 18.5113 16.7183 19.7217 16.7183C20.2977 16.7183 20.4985 16.6632 20.6177 16.6308C20.7472 16.5984 21.2326 16.4077 21.7213 15.8314C22.1614 15.3105 22.0644 15.0969 22.0644 15.0969L21.8084 15.0581L20.9764 15.1714L18.5145 16.2199L18.2158 16.3266H18.2169Z" fill="#585136"/>
<path fill-rule="evenodd" clip-rule="evenodd" d="M19.1198 16.4239C19.1198 16.4239 18.0713 16.6571 18.0713 15.9936C18.0713 15.3464 18.7185 14.6667 18.8805 14.547C19.0488 14.4271 19.4501 14.291 19.4501 14.291H20.4177L20.6021 14.7798L20.5212 15.8347L19.1198 16.4237V16.4239Z" fill="#252211"/>
<path fill-rule="evenodd" clip-rule="evenodd" d="M20.0879 14.4887C20.0879 14.4887 19.8873 14.3042 19.431 14.5527C18.9747 14.8013 18.6056 15.3208 18.583 15.7924C18.5604 16.2097 18.9261 16.5205 19.4957 16.5367C19.9196 16.5527 20.1753 16.5043 20.3048 16.4727C20.2724 16.4339 20.1041 16.2236 20.1041 16.2236L20.0881 14.489L20.0879 14.4887Z" fill="#C3B378"/>
<path fill-rule="evenodd" clip-rule="evenodd" d="M19.8908 14.5922C19.8908 14.5922 19.8424 14.5534 19.6988 14.6311C19.5791 14.6951 19.4044 14.8642 19.2685 14.9839C19.1811 15.0552 19.126 15.0874 19.0765 15.1424C18.8758 15.382 18.7074 15.7737 18.8047 15.9678C18.902 16.1619 19.2222 16.3853 20.0378 16.2332L19.8885 14.5924L19.8908 14.5922Z" fill="#E6D89C"/>
<path fill-rule="evenodd" clip-rule="evenodd" d="M19.6252 14.9937C19.6252 14.9937 19.4957 15.1944 19.4957 15.5149C19.4957 15.8417 19.6803 16.3626 20.3599 16.4015C20.8809 16.4339 21.2303 15.6507 21.609 15.3465C21.897 15.1136 22.0717 15.107 22.0717 15.107C22.0717 15.107 21.7773 14.787 20.991 14.3725C20.2142 13.955 19.3436 13.8999 18.8711 14.5408C19.0945 14.5246 19.8162 14.34 19.8162 14.34L20.169 14.4533L19.6252 14.9939V14.9937Z" fill="#252211"/>
<path fill-rule="evenodd" clip-rule="evenodd" d="M20.6416 15.4173C20.619 15.3689 20.6028 15.304 20.6967 15.288C20.7905 15.272 20.8325 15.2814 20.865 15.352C20.8974 15.4226 20.929 15.4815 20.881 15.5107C20.8325 15.5365 20.7062 15.5107 20.6414 15.4169L20.6416 15.4173ZM20.4895 14.961C20.4895 14.961 20.4571 14.9836 20.4733 14.9384C20.4797 14.8835 20.5219 14.7862 20.6254 14.8091C20.7289 14.8319 20.7065 14.945 20.6894 14.9774C20.6723 15.0098 20.5859 15.0646 20.5211 15.0414C20.5129 15.0393 20.5052 15.0353 20.4989 15.0297C20.4925 15.0241 20.4875 15.0171 20.4844 15.0092C20.4812 15.0013 20.4799 14.9928 20.4807 14.9844C20.4814 14.9759 20.4842 14.9677 20.4887 14.9605L20.4895 14.961Z" fill="#6F674D"/>
<path fill-rule="evenodd" clip-rule="evenodd" d="M11.7285 15.1679C11.7285 15.1679 11.9845 15.3599 12.2819 15.3524C12.5763 15.3458 12.955 15.0418 13.1297 14.8475C13.2332 14.7342 13.3217 14.6145 13.4177 14.5206C13.4988 14.4398 13.5536 14.401 13.5924 14.3459C13.6474 14.2819 13.7057 14.1616 13.7349 14.1226C13.6637 14.1776 13.5602 14.2749 13.4533 14.3395C13.3498 14.4035 13.1265 14.5238 13.0358 14.5563C12.9486 14.5887 12.0423 15.0683 12.0423 15.0683L11.7285 15.1679Z" fill="#AC924C"/>
<path fill-rule="evenodd" clip-rule="evenodd" d="M12.1201 12.7769C12.1201 12.7769 12.2624 12.6798 12.5376 12.6182C12.803 12.5542 13.337 12.5049 13.337 12.5049L13.7771 12.6969L13.9518 13.3604L13.6318 14.0498L13.2241 14.3058L12.7612 13.5615L12.1212 12.7782L12.1201 12.7769Z" fill="#9F8E57"/>
<path fill-rule="evenodd" clip-rule="evenodd" d="M11.5439 13.3688L11.3916 13.4825C11.3916 13.4825 11.4306 13.4112 11.4629 13.1945C11.4951 12.9777 11.6636 12.4501 11.9096 12.1459C12.1555 11.8417 12.1491 11.8579 12.1491 11.8579C12.1265 11.8538 12.1033 11.8545 12.0809 11.8601C12.0586 11.8656 12.0377 11.8759 12.0197 11.8901C12.0521 11.8185 12.2592 11.5625 12.4664 11.4345C12.6735 11.3065 12.7544 11.2661 12.9711 11.3705C13.1879 11.4748 13.2429 11.529 13.4016 11.5226C13.5603 11.5162 13.696 11.3479 13.696 11.3479C13.696 11.3479 13.7285 11.4513 13.6088 11.6909C13.4891 11.9305 13.0166 12.419 13.0166 12.419L12.0327 13.0921L11.5439 13.3694V13.3688Z" fill="#EAC970"/>
<path fill-rule="evenodd" clip-rule="evenodd" d="M12.2723 12.6957C12.2723 12.6957 12.9844 12.7928 13.2012 12.5923C13.2076 12.6149 13.2336 12.6149 13.2336 12.6311C13.2319 12.6433 13.2262 12.6546 13.2174 12.6633C13.241 12.6595 13.2648 12.6574 13.2887 12.6569C13.3172 12.6654 13.3465 12.6708 13.3761 12.6731C13.4 12.6726 13.4238 12.6704 13.4474 12.6665C13.4451 12.6826 13.4397 12.6981 13.4313 12.712C13.4229 12.7259 13.4119 12.738 13.3987 12.7476C13.4312 12.7476 13.4627 12.754 13.4627 12.7798C13.4627 12.8056 13.4691 12.8835 13.4303 12.8997C13.3981 12.9086 13.3639 12.9062 13.3332 12.8931C13.3358 12.9543 13.3525 13.0142 13.3819 13.068C13.4459 13.1877 13.5824 13.324 13.7659 13.2847C13.7659 13.2847 13.8627 13.5177 13.4551 14.0355C13.4002 14.1067 13.3418 14.2038 13.2707 14.2846C13.2427 14.3458 13.2212 14.4098 13.2067 14.4756C13.2067 14.4756 13.8962 14.2102 14.0936 13.605C14.2943 12.9965 14.3331 12.3979 14.2943 11.8381C14.2877 11.6794 14.2619 11.5663 14.2231 11.4853C14.126 11.2845 13.854 11.317 13.7441 11.4302C13.5854 11.589 13.32 11.9836 12.9512 12.2554C12.5757 12.5272 12.5597 12.5754 12.2715 12.6957H12.2723Z" fill="#D7BC6B"/>
<path fill-rule="evenodd" clip-rule="evenodd" d="M11.4177 13.5696C11.4177 13.5696 11.2818 13.6504 11.2105 13.9536C11.1393 14.2642 11.2745 14.6429 11.3528 14.7625C11.4311 14.8822 11.6088 15.2093 11.9774 15.2255C12.0687 15.225 12.1589 15.2063 12.2428 15.1704C12.3715 15.1114 12.4922 15.0364 12.6021 14.9471C12.7608 14.8274 12.8901 14.7239 12.8739 14.7141C12.835 14.6979 11.8966 13.9212 11.8966 13.9212L11.5437 13.5273L11.4174 13.57L11.4177 13.5696Z" fill="#585136"/>
<path fill-rule="evenodd" clip-rule="evenodd" d="M12.3046 14.8578C12.3046 14.8578 12.4955 14.8418 12.6088 14.7706C12.7221 14.6993 11.9453 13.9292 11.9453 13.9292L12.0004 14.7612L12.3046 14.8578Z" fill="#453A25"/>
<path fill-rule="evenodd" clip-rule="evenodd" d="M11.4792 13.5111C11.4792 13.5111 11.3821 13.6956 11.3821 13.7442C11.3659 13.9027 11.4145 14.4011 11.4534 14.5596C11.4922 14.7279 11.7025 14.9835 11.9745 14.9835C12.1426 14.9835 12.3758 14.88 12.3758 14.8542C12.3758 14.8218 12.1362 14.7902 12.0716 14.6697C12.0328 14.6057 12.0166 14.4465 12.0076 14.2857C12.0012 14.1822 12.0012 14.0689 12.04 14.0297C12.1275 13.9326 12.1435 13.6542 12.1435 13.6542L12.4541 13.0771H12.0456L11.5568 13.3814L11.4792 13.5111Z" fill="#84754B"/>
<path fill-rule="evenodd" clip-rule="evenodd" d="M11.3594 13.6896C11.3594 13.6896 11.6794 13.2657 11.9678 13.1684C12.2562 13.0711 12.3853 13.1296 12.3853 13.1296L12.217 13.5601L11.9774 13.8255L11.9936 13.9614C11.9936 13.9614 11.9546 14.3206 12.1941 14.5698C12.4337 14.819 12.6116 14.8094 12.7153 14.8094C12.819 14.8094 13.1166 14.7219 13.2687 14.3626C13.4046 14.0262 13.5179 13.5946 13.2461 13.162C12.9805 12.7315 12.5114 12.7148 12.4207 12.7148C12.33 12.7148 11.6181 12.7505 11.3594 13.6889V13.6896Z" fill="#252211"/>
<path fill-rule="evenodd" clip-rule="evenodd" d="M19.5763 15.1292C19.4566 15.0742 19.5699 14.7378 19.6896 14.6341C19.8093 14.5304 19.9614 14.4109 20.227 14.3945C20.3238 14.3881 20.4177 14.4495 20.4017 14.5144C20.3791 14.6341 20.2108 14.8024 20.0587 14.9221C19.8483 15.0872 19.7122 15.1907 19.5763 15.1292Z" fill="#F7F7E7"/>
<path fill-rule="evenodd" clip-rule="evenodd" d="M13.1036 13.2943C13.1911 13.2879 13.3044 13.3583 13.327 13.4531C13.3496 13.5565 13.272 13.7637 13.1036 13.7637C12.9677 13.7637 12.8965 13.5954 12.8965 13.5469C12.898 13.5071 12.9091 13.4683 12.9289 13.4337C12.9353 13.4238 12.9515 13.3106 13.1036 13.2943Z" fill="#F8F6DE"/>
<path fill-rule="evenodd" clip-rule="evenodd" d="M11.8417 13.3691C11.8417 13.3691 11.6184 13.4726 11.5149 13.6891C11.441 13.849 11.4186 14.028 11.4509 14.2011C11.4671 14.282 11.548 14.4825 11.603 14.5538C11.6581 14.625 11.7325 14.6737 11.7876 14.6671C11.8426 14.6604 11.9557 14.515 11.9557 14.4277C11.9557 14.3404 11.9623 13.9714 12.0689 13.7706C12.1628 13.5701 11.8424 13.3694 11.8424 13.3694L11.8417 13.3691Z" fill="#D4C38B"/>
<path fill-rule="evenodd" clip-rule="evenodd" d="M11.8741 13.3527C11.8353 13.3753 11.7707 13.4078 11.7867 13.4498C11.8029 13.4886 11.9388 13.5138 11.9874 13.6085C12.0425 13.7056 12.0425 13.8091 12.0262 13.8577C12.0685 13.8376 12.1069 13.8102 12.1395 13.7766C12.2108 13.6958 12.298 13.5859 12.3725 13.5859C12.4211 13.5859 12.4696 13.6085 12.515 13.6085C12.5862 13.6085 12.6573 13.5859 12.6671 13.5115C12.6831 13.4144 12.5312 13.3269 12.4437 13.3431C12.46 13.2791 12.4826 13.1846 12.4113 13.1198C12.3401 13.0549 12.1169 13.1684 12.0683 13.2008C12.0196 13.2333 11.8741 13.3529 11.8741 13.3529V13.3527Z" fill="#E2D59D"/>
<path fill-rule="evenodd" clip-rule="evenodd" d="M17.0169 20.1522L17.4958 20.0107L17.6317 20.1078C17.6317 20.1078 17.7285 20.315 17.8809 20.3408C17.8322 20.4442 17.7059 20.5328 17.7125 20.6062C17.7192 20.6795 17.7838 20.7356 17.7838 20.7356C17.7838 20.7356 17.3533 21.4475 18.2013 22.165C18.0006 22.2458 17.745 22.357 17.6091 22.421C17.7059 22.4436 17.9131 22.485 18.0005 22.5635C18.088 22.642 18.088 22.667 18.1689 22.7156C18.2497 22.7642 18.2981 22.8289 18.2821 22.8579C18.2271 22.8255 18.0426 22.7286 18.0104 22.8191C17.9781 22.9095 17.211 22.8741 17.211 22.8741L15.9165 23.1233C15.9165 23.1233 15.9649 22.9938 15.829 22.8741C15.6705 22.7318 15.4764 22.8805 15.2692 22.722C14.9975 22.5148 14.9876 22.2753 14.9004 22.1848C14.9876 22.1298 15.1658 22.0489 15.5897 21.9928C15.5735 21.9604 15.5184 21.8633 15.5508 21.7761C15.5897 21.6628 15.7514 21.5915 15.703 21.4561C15.7742 21.4399 15.8064 21.4399 15.9845 21.2165C16.1529 20.9931 16.2563 20.9447 16.3858 20.9285C16.5153 20.9123 16.593 20.9285 16.8325 20.7051C17.0007 20.5466 16.9458 20.4107 16.9458 20.4107C16.9458 20.4107 17.0557 20.3751 17.0171 20.1518L17.0169 20.1522Z" fill="#CBAC5A"/>
<path fill-rule="evenodd" clip-rule="evenodd" d="M15.6023 20.2239C15.6087 20.1915 15.6347 20.1753 15.8095 20.1915C15.9842 20.2077 17.091 20.0881 17.392 20.0718C17.6962 20.0492 18.7673 20.0652 19.2885 20.1753C19.8097 20.2854 20.337 20.4149 20.5926 20.4795C20.8486 20.5508 20.9292 20.5764 20.9194 20.6088C20.913 20.6412 20.8554 20.6728 20.8224 20.6638C20.7902 20.6574 19.9422 20.3985 19.6802 20.3438C19.4182 20.2892 18.5118 20.1431 18.0162 20.1518C17.5535 20.1585 17.3689 20.1454 16.9775 20.1907C16.5858 20.2393 15.9385 20.3039 15.7444 20.2781C15.5524 20.2555 15.5921 20.2555 15.6019 20.2231L15.6023 20.2239Z" fill="#D6BC6F"/>
<path fill-rule="evenodd" clip-rule="evenodd" d="M18.2079 22.7604C18.2079 22.7604 18.8713 23.1196 19.1109 23.5598C19.2856 23.8866 19.0074 24.0485 19.0074 24.0485C19.0074 24.0485 19.3829 24.0485 19.3343 24.2556C19.3116 24.3849 18.687 24.7344 18.2695 24.9189C17.8456 25.1034 17.8618 25.0938 17.6547 25.126C17.4539 25.1585 16.9038 25.062 16.7905 25.2231C16.6772 25.3842 16.7265 25.5502 16.758 25.576C16.7905 25.5986 17.0527 25.631 17.0527 25.631C17.0527 25.631 16.9976 25.7831 16.454 25.7993C15.9105 25.8155 15.7744 25.8542 15.7419 25.9126C15.7095 25.9674 15.8454 25.9352 16.0948 25.9766C16.344 26.0154 16.6934 26.0406 16.6934 26.0406C16.6934 26.0406 16.5801 26.1377 16.2857 26.2153C15.9491 26.3026 15.4215 26.3836 15.263 26.4807C15.3439 26.5358 15.4638 26.6166 15.519 26.623C15.3831 26.6554 15.192 26.7267 15.1598 26.7525C15.2082 26.7849 15.273 26.8238 15.273 26.8238C15.273 26.8238 15.001 27.1506 14.8425 27.2316C14.684 27.3127 13.7714 27.7364 13.4574 27.6555C12.6742 27.4484 12.5771 26.5908 12.3862 26.5262C12.0982 26.4291 11.9623 26.623 11.7065 26.4871C11.8198 26.4063 11.8815 26.3578 12.0011 26.3028C11.8716 26.2388 11.2018 25.814 11.2018 25.814C11.1317 25.6614 11.054 25.5123 10.9688 25.3675C10.8393 25.1442 10.6488 24.8464 10.5059 24.5842C10.1953 24.0082 10.1791 23.7428 9.89746 23.416C9.9461 23.352 10.1142 23.3609 10.1142 23.3609L12.4737 24.1377L16.6574 24.2588L17.7454 22.7056L18.2081 22.7606L18.2079 22.7604Z" fill="#DFC677"/>
<path fill-rule="evenodd" clip-rule="evenodd" d="M12.0098 25.1293C12.035 25.1574 12.0644 25.1815 12.097 25.2006C12.1781 25.2556 12.2978 25.3205 12.3786 25.4173C12.411 25.3689 12.4919 25.2814 12.6346 25.4173C12.7773 25.5532 12.9546 25.4564 13.0649 25.4886C13.1782 25.5276 13.1846 25.5436 13.1846 25.5436C13.1846 25.5436 13.2486 25.4886 13.3917 25.4304C13.4792 25.3979 13.5827 25.3753 13.696 25.3431C13.7994 25.3205 13.9127 25.2881 13.9906 25.2881C14.0618 25.3365 14.3174 25.6081 15.3433 25.2072C16.311 24.8317 16.5341 24.7897 16.6961 24.8477C16.7123 24.8089 16.7285 24.7345 16.9777 24.7443C16.9777 24.6408 16.7705 24.288 16.7705 24.288L15.6281 23.8965H15.0033L13.1296 24.2395L12.0913 24.832L12.0104 25.1306L12.0098 25.1293Z" fill="#C4A859"/>
<path fill-rule="evenodd" clip-rule="evenodd" d="M11.3857 24.4727C11.3857 24.4727 11.4084 24.6475 11.6673 24.832C11.9233 25.0163 12.0038 25.1264 12.0038 25.1264C12.0038 25.1264 12.0524 25.0624 12.0912 24.9971C12.1301 24.9259 12.1625 24.845 12.2271 24.8224C12.3566 24.7673 12.651 24.8708 12.7159 24.8546C12.7709 24.8386 12.7547 24.7253 12.8129 24.7253C12.9488 24.7187 13.0361 24.8126 13.0847 24.8126C13.1334 24.8126 13.2528 24.8062 13.269 24.7804C13.2853 24.7545 13.2917 24.4857 13.4762 24.3563C13.6769 24.214 13.9229 24.2754 13.9882 24.3078C13.9882 24.3563 13.9946 24.4761 14.1241 24.4825C14.2536 24.4889 14.2664 24.4663 14.3801 24.5052C14.4938 24.544 14.6293 24.4988 14.6907 24.6895C14.7457 24.6735 14.8752 24.6573 14.8428 24.4727C14.9068 24.4243 14.9627 24.3919 15.0988 24.2009C15.1312 24.1525 15.1861 24.0975 15.2283 24.0262C15.3416 24.0262 15.4775 24.0036 15.6586 24.1621C15.6036 24.2009 15.5711 24.2261 15.5551 24.2656C15.6025 24.3125 15.6458 24.3634 15.6844 24.4177C15.733 24.4817 15.7655 24.5602 15.8269 24.5764C15.9628 24.6152 16.1862 24.5602 16.4353 24.5764C16.6749 24.5926 16.8754 24.6799 16.9629 24.7349C16.9953 24.7189 16.9953 24.7123 17.0762 24.7285C17.157 24.7447 17.2185 24.7511 17.1312 24.6477C17.1797 24.6703 17.2347 24.7189 17.2833 24.6703C17.332 24.6216 17.3706 24.5506 17.5065 24.5344C17.6424 24.5182 17.691 24.5408 17.7461 24.3985C17.8173 24.2238 17.5713 24.2238 17.5713 24.2238C17.5713 24.2238 17.6846 24.1201 17.8109 23.9842C17.963 23.8419 18.1377 23.6574 18.1798 23.4308C18.251 23.0133 17.8433 22.9585 17.8433 22.9585L15.866 23.5669L13.4485 23.447L11.387 24.4729L11.3857 24.4727Z" fill="#927D49"/>
<path fill-rule="evenodd" clip-rule="evenodd" d="M9.60901 18.7603C9.60901 18.7603 9.54501 18.8412 9.50554 19.0321C9.46608 19.223 9.48293 19.2004 9.4505 19.3363C9.41808 19.4722 9.01978 20.8249 9.16912 21.2813C9.31845 21.7376 9.57701 21.9059 9.73872 22.2748C9.77114 22.3556 9.80272 22.4043 9.81957 22.4755C9.87461 22.7149 9.82618 22.8994 9.89082 23.139C9.91344 23.2198 9.97189 23.3137 10.0591 23.4108C10.2511 23.6113 10.5641 23.8022 10.6991 23.9381C10.8899 24.1389 11.1619 24.5468 11.5081 24.5854C11.6926 24.608 11.9548 24.5303 12.1716 24.4011C12.3636 24.2812 12.4822 24.1131 12.6836 24.0171C12.8259 23.9458 12.978 23.92 13.1139 23.8876C13.3955 23.8325 13.6513 23.8236 13.8034 23.8551C14.0363 23.9038 14.5865 24.0721 14.8914 24.0721C15.1296 24.0682 15.3665 24.0357 15.5969 23.975C16.0596 23.8391 16.6194 23.606 16.9884 23.5025C17.2052 23.4385 17.3799 23.4216 17.558 23.3828C17.8622 23.3116 18.1178 23.2145 18.2635 23.03C18.1665 22.9167 18.0468 22.742 17.3993 22.7484C16.6648 22.7646 15.8168 23.1723 15.3993 23.2371C14.9818 23.302 14.8007 23.3568 14.3346 23.1885C13.8776 23.0184 13.8625 22.906 13.8625 22.906C13.8625 22.906 13.3827 22.5704 13.1819 21.715C12.9812 20.8595 13.1819 20.2361 13.7031 19.6437C13.839 19.4916 13.8066 19.3557 13.8066 19.3557C13.8066 19.3557 14.1496 18.893 14.0557 18.4597C13.9523 18.0292 13.2888 18.1167 13.2888 18.1167L9.60922 18.7603H9.60901Z" fill="#6E6342"/>
<path fill-rule="evenodd" clip-rule="evenodd" d="M10.1623 20.2007C10.1338 20.2543 10.1204 20.3147 10.1235 20.3754C10.1299 20.4627 10.1559 20.5759 10.4179 20.8317C10.6413 21.0549 10.5926 21.304 10.5926 21.304C10.5926 21.304 10.705 21.3267 11.0101 21.1839C11.2497 21.0707 11.3301 21.2714 11.3301 21.2714C11.3998 21.2348 11.4754 21.2107 11.5535 21.2002C11.6242 21.1936 11.6926 21.1718 11.754 21.1362C11.754 21.1362 12.0356 21.4242 12.2816 21.56C12.5049 21.6799 12.6344 21.7608 12.7445 21.6799C12.848 21.6087 12.848 21.463 12.8414 21.3983C12.8157 21.3387 12.7832 21.2822 12.7445 21.23C12.6733 21.1266 12.56 21.0067 12.5525 20.91C12.5363 20.6869 12.7208 20.4213 12.6818 20.3566C12.6427 20.292 12.4975 20.2758 12.1382 20.4053C11.7662 20.5282 10.1608 20.2013 10.1608 20.2013L10.1623 20.2007Z" fill="#39331F"/>
<path fill-rule="evenodd" clip-rule="evenodd" d="M11.0104 21.6473C11.0104 21.6473 10.8261 21.4726 10.8907 20.6246C10.969 20.6235 11.0471 20.6311 11.1237 20.6472C11.1237 20.6472 11.2241 21.3043 11.0104 21.6473Z" fill="#292311"/>
<path fill-rule="evenodd" clip-rule="evenodd" d="M9.69653 18.1132C9.72225 18.0942 9.74611 18.0728 9.76778 18.0492C9.70378 18.1689 9.40832 18.6479 9.64789 19.402C9.88746 20.1527 10.4893 20.7125 11.2304 20.7385C11.9715 20.7646 12.3611 20.4019 12.8065 19.8583C12.9812 19.6416 13.182 19.3696 13.3599 19.1852C13.6253 18.897 13.8324 18.8162 13.8324 18.538C13.8324 17.9684 13.2498 17.7126 12.3922 17.457C11.5346 17.2015 10.7611 17.233 10.3598 17.408C9.96832 17.5987 9.8 17.7994 9.69632 18.1135L9.69653 18.1132Z" fill="#252211"/>
<path fill-rule="evenodd" clip-rule="evenodd" d="M12.4499 21.9028L12.5139 21.8704C12.5139 21.8704 12.5299 21.6144 12.6335 21.6212C12.737 21.6374 12.7856 21.7735 12.7758 21.822C12.7694 21.8704 12.7436 21.9515 12.6399 21.9417C12.504 21.9449 12.4492 21.9028 12.4492 21.9028H12.4499Z" fill="#3F3824"/>
<path fill-rule="evenodd" clip-rule="evenodd" d="M12.1621 20.8156C12.1621 20.8156 12.2261 20.793 12.3044 20.8706C12.3684 20.8706 12.6474 20.8382 12.7349 20.8932C12.8224 20.9483 12.8482 20.9967 12.8482 20.9967C12.8482 20.9967 12.5214 21.0679 12.3432 20.9967C12.1621 20.9352 12.1621 20.8156 12.1621 20.8156Z" fill="#2D2815"/>
<path fill-rule="evenodd" clip-rule="evenodd" d="M13.6029 20.8642C13.6029 20.8479 13.4281 20.7283 13.2436 20.6892C13.2112 20.6828 13.2046 20.7054 13.1796 20.7054C13.1634 20.699 13.157 20.6504 13.157 20.6504L13.052 20.7056C13.052 20.7056 13.0358 20.7283 13.0909 20.7696C13.1393 20.8085 13.2204 20.8409 13.243 20.9055C13.2656 20.9702 13.2656 20.9928 13.2754 21.0026C13.2818 21.009 13.3951 21.0026 13.4501 20.9702C13.5052 20.9378 13.6088 20.8848 13.6022 20.8635L13.6029 20.8642Z" fill="#82764F"/>
<path fill-rule="evenodd" clip-rule="evenodd" d="M11.9678 21.5209C11.9678 21.5209 12 21.2978 12.2169 21.288C12.4401 21.2718 12.4823 21.4885 12.4823 21.4885L12.3528 21.618C12.3528 21.6148 12.2558 21.4789 11.9688 21.5209H11.9678Z" fill="#2D2816"/>
<path fill-rule="evenodd" clip-rule="evenodd" d="M13.3755 20.5599C13.3755 20.5599 13.2556 20.6894 12.9904 20.7283C12.9678 20.6958 12.9192 20.6312 12.9904 20.5277C13.0617 20.4243 13.1425 20.3918 13.2234 20.4241C13.2591 20.4298 13.2924 20.4457 13.3193 20.4698C13.3463 20.4939 13.3658 20.5251 13.3755 20.5599Z" fill="#574F35"/>
<path fill-rule="evenodd" clip-rule="evenodd" d="M13.8644 20.7184C13.871 20.686 13.8484 20.6796 13.8644 20.6634C13.8804 20.6471 13.9681 20.6149 13.9843 20.6309C13.9907 20.6375 13.9843 20.6634 13.9843 20.6949C13.9843 20.7265 13.9843 20.7589 13.9681 20.7822C13.9455 20.8146 13.8808 20.8308 13.8484 20.8212C13.816 20.8116 13.8096 20.7662 13.8096 20.7572C13.8256 20.7508 13.8644 20.7346 13.8644 20.7184ZM14.4169 20.369C14.4169 20.3527 14.472 20.3203 14.5044 20.3203C14.5528 20.3203 14.5528 20.3591 14.5594 20.369C14.5754 20.3754 14.5754 20.3623 14.5916 20.3916C14.6079 20.4208 14.6307 20.4724 14.6143 20.5048C14.5978 20.5373 14.5334 20.5597 14.5174 20.5533C14.4948 20.5371 14.4235 20.3916 14.4169 20.369Z" fill="#82764F"/>
<path fill-rule="evenodd" clip-rule="evenodd" d="M13.3047 20.7932C13.3047 20.7932 13.3759 20.8092 13.473 20.8902C13.4406 20.9129 13.3919 20.9387 13.3919 20.9387C13.3919 20.9387 13.3855 20.8642 13.3047 20.793V20.7932Z" fill="#6E6342"/>
<path fill-rule="evenodd" clip-rule="evenodd" d="M13.1461 20.081C13.1299 20.065 13.1945 20.0261 13.2334 20.0325C13.2722 20.0389 13.2884 20.065 13.3304 20.0714C13.3725 20.0778 13.3791 20.0552 13.3944 20.0389C13.4098 20.0227 13.4657 20.0325 13.4753 20.0389C13.4813 20.0461 13.4867 20.0536 13.4915 20.0616C13.4922 20.0493 13.4954 20.0372 13.5009 20.0262C13.5065 20.0152 13.5142 20.0054 13.5237 19.9976C13.5361 19.9884 13.5504 19.9822 13.5656 19.9794C13.5807 19.9766 13.5963 19.9773 13.6112 19.9813C13.6176 20.004 13.65 20.0848 13.6436 20.101C13.6372 20.1172 13.5401 20.1401 13.5237 20.1236C13.5399 20.1627 13.6112 20.2435 13.6208 20.2595C13.6304 20.2755 13.5495 20.3146 13.5173 20.3082C13.4721 20.305 13.1937 20.1431 13.1453 20.0816L13.1461 20.081ZM13.57 19.5438C13.564 19.5275 13.5526 19.5138 13.5376 19.505C13.515 19.4986 13.4405 19.505 13.4405 19.5438C13.4405 19.5826 13.5045 19.7998 13.5764 19.9129C13.6575 20.0261 13.7123 20.1198 13.7673 20.1458C13.7846 20.1537 13.8042 20.1547 13.8223 20.1487C13.8403 20.1427 13.8553 20.1301 13.8644 20.1134C13.8708 20.0972 13.887 19.9775 13.8806 19.6959C13.8742 19.4143 13.8644 19.1425 13.8482 19.1263C13.832 19.1101 13.7673 19.1103 13.7447 19.1425C13.7221 19.1747 13.5764 19.4954 13.5698 19.5438H13.57Z" fill="#585136"/>
<path fill-rule="evenodd" clip-rule="evenodd" d="M13.2824 21.2007C13.2824 21.2007 13.1691 21.1295 13.0591 21.1781C12.9556 21.2268 12.962 21.4177 12.962 21.4177C12.9853 21.4268 13.0104 21.4301 13.0353 21.4273C13.0601 21.4244 13.0839 21.4156 13.1045 21.4015C13.1758 21.3531 13.2662 21.2722 13.2824 21.201V21.2007Z" fill="#574F35"/>
<path fill-rule="evenodd" clip-rule="evenodd" d="M13.4956 21.4566C13.4892 21.3926 13.4316 21.3926 13.4316 21.3596C13.4356 21.3438 13.4448 21.3297 13.4576 21.3198C13.4705 21.3098 13.4864 21.3044 13.5027 21.3045C13.5351 21.3045 13.5667 21.3434 13.6064 21.3685C13.6452 21.3911 13.7034 21.4325 13.7098 21.4818C13.7162 21.5311 13.6458 21.6661 13.5675 21.6661C13.4892 21.6661 13.5125 21.5204 13.4963 21.4558L13.4956 21.4566ZM14.1203 21.3692C14.1203 21.3692 13.9908 21.408 14.0004 21.3692C14.01 21.3303 14.0394 21.3207 14.0815 21.3207C14.1028 21.2984 14.1315 21.2845 14.1623 21.2817C14.1799 21.2808 14.1972 21.2866 14.2107 21.2979C14.2107 21.2979 14.2982 21.2591 14.324 21.2817C14.3498 21.3043 14.3306 21.3043 14.3466 21.3303C14.367 21.3592 14.3804 21.3925 14.3857 21.4274C14.3857 21.4532 14.2886 21.5083 14.2107 21.4987C14.1203 21.4792 14.1363 21.3854 14.1203 21.3692ZM14.8742 21.2235C14.8742 21.2235 14.913 21.2461 14.8808 21.2721C14.8582 21.2947 14.7449 21.3361 14.6476 21.3434C14.5506 21.3434 14.4633 21.3594 14.4633 21.3271C14.4633 21.2949 14.5442 21.2301 14.5926 21.2139C14.6023 21.2017 14.6146 21.1919 14.6287 21.1852C14.6427 21.1784 14.6581 21.175 14.6737 21.175C14.7125 21.175 14.8644 21.1588 14.9066 21.1524C14.9455 21.1458 14.9779 21.1684 14.9551 21.2008C14.9455 21.2235 14.8742 21.2235 14.8742 21.2235ZM15.0976 20.2242C15.0976 20.2242 15.0489 20.3277 14.9941 20.3277C14.9391 20.3213 14.9391 20.3051 14.9391 20.2888C14.9391 20.2662 14.9941 20.208 14.9875 20.1918C14.9715 20.1918 14.9324 20.1918 14.9391 20.153C14.9391 20.1205 14.9941 20.0817 15.0425 20.089C15.0791 20.0589 15.1247 20.0418 15.172 20.0405C15.2271 20.0405 15.2755 20.0565 15.2755 20.089C15.2755 20.1214 15.2115 20.1924 15.188 20.2088C15.1622 20.2347 15.1298 20.2515 15.0976 20.2248V20.2242ZM14.3596 22.1367C14.3596 22.1367 14.2956 22.1434 14.2956 22.1756C14.2956 22.1918 14.3116 22.1918 14.3345 22.1822C14.3476 22.1814 14.3606 22.1792 14.3733 22.1756C14.3797 22.1822 14.3797 22.2144 14.4283 22.2144C14.4683 22.209 14.5068 22.1958 14.5416 22.1756C14.5804 22.1596 14.6129 22.1431 14.6129 22.1116C14.5967 22.0565 14.5642 22.0305 14.5158 22.0305C14.491 22.0289 14.4662 22.0346 14.4445 22.0467C14.4445 22.0467 14.4283 22.0143 14.3733 22.0467C14.3183 22.0791 14.3247 22.0791 14.3409 22.0954C14.3699 22.1212 14.3603 22.138 14.3603 22.138L14.3596 22.1367ZM13.994 22.4734C13.994 22.4572 14.0748 22.4247 14.0975 22.4346C14.1201 22.441 14.1847 22.5638 14.1847 22.5768C14.1847 22.5931 14.1039 22.6319 14.0714 22.6319C14.039 22.6319 13.9842 22.5768 13.9842 22.5679C13.9842 22.5615 14.023 22.5519 14.023 22.5453C14.0326 22.5293 13.994 22.4902 13.994 22.474V22.4734ZM13.738 22.0008C13.7542 21.9944 13.7542 21.9782 13.7768 21.962C13.7839 21.9573 13.792 21.9543 13.8004 21.9532C13.8088 21.9521 13.8174 21.9529 13.8255 21.9556C13.8312 21.9454 13.8391 21.9367 13.8486 21.9299C13.8581 21.9232 13.869 21.9186 13.8805 21.9166C13.9193 21.9102 13.9517 21.9166 13.9445 21.9328C13.9445 21.9814 13.9769 22.0136 13.9769 22.0525C13.9769 22.0913 13.9543 22.1399 13.8735 22.1724C13.7926 22.195 13.6825 22.195 13.6663 22.1886C13.6501 22.1822 13.6339 22.1173 13.6501 22.0849C13.6663 22.0525 13.7115 22.0171 13.7376 22.0008H13.738Z" fill="#82764F"/>
<path fill-rule="evenodd" clip-rule="evenodd" d="M13.8408 22.0225C13.8408 22.0225 13.7858 22.0549 13.7858 22.0711C13.7809 22.0868 13.7788 22.1031 13.7794 22.1195C13.7794 22.1291 13.8507 22.1131 13.8603 22.1033C13.8635 22.0969 13.8408 22.0393 13.8408 22.0225Z" fill="#6E6342"/>
<path fill-rule="evenodd" clip-rule="evenodd" d="M13.3596 21.8704C13.3919 21.877 13.4469 21.8704 13.4889 21.8866C13.5213 21.9029 13.544 21.9353 13.5115 21.9741C13.4791 22.0129 13.4475 22.0712 13.3756 22.0614C13.2948 22.055 13.2171 22.0129 13.2171 21.9805C13.2158 21.96 13.2185 21.9394 13.2252 21.92C13.2318 21.9005 13.2423 21.8826 13.256 21.8672C13.2884 21.8414 13.3044 21.8576 13.3594 21.8704H13.3596Z" fill="#585136"/>
<path fill-rule="evenodd" clip-rule="evenodd" d="M13.3211 21.9028C13.3211 21.9028 13.2176 21.9837 13.1916 22.0227C13.1591 22.0616 13.0006 22.2621 12.9522 22.3041C12.9683 22.2757 12.9866 22.2487 13.007 22.2233C12.943 22.2642 12.8951 22.3259 12.8711 22.398C12.8323 22.5179 13.0881 22.5825 13.2562 22.6312C13.4243 22.6798 13.4894 22.6952 13.4894 22.6952C13.4275 22.6021 13.3744 22.5036 13.3307 22.4008C13.2667 22.2486 13.2336 22.2324 13.2756 22.1612C13.308 22.0899 13.3567 22.0415 13.3567 21.9865C13.3373 21.9353 13.3211 21.9028 13.3211 21.9028Z" fill="#574F35"/>
<path fill-rule="evenodd" clip-rule="evenodd" d="M9.63129 22.1588C9.65484 22.1631 9.67899 22.1631 9.70254 22.1588C9.75097 22.1522 10.2559 21.9668 10.7835 22.0001C11.1784 22.024 11.5699 22.0883 11.9517 22.1921C12.6152 22.3668 13.4404 22.7131 13.9743 22.9106C14.1166 22.9654 14.2559 23.0627 14.3583 23.1013C14.7662 23.26 14.7822 23.26 15.0218 23.3021C15.3034 23.3409 15.5914 23.247 15.8924 23.1824C16.2613 23.1013 16.8923 23.0625 17.4457 22.9816C17.6246 22.9568 17.8011 22.9168 17.9733 22.862C17.9733 22.862 17.5332 23.3021 16.478 23.4606C16.0515 23.5253 15.6181 23.5308 15.1901 23.4768C14.8535 23.4444 14.6303 23.3957 14.462 23.3473C14.2711 23.2922 13.8794 23.1465 13.3973 23.0273C13.0606 22.9398 12.6852 22.8752 12.2549 22.7943C11.1933 22.6 10.0413 22.3768 9.63086 22.1601L9.63129 22.1588Z" fill="#252211"/>
<path fill-rule="evenodd" clip-rule="evenodd" d="M8.44031 20.1587C8.18431 20.3754 7.91274 20.5826 7.64756 20.7831L6.8482 21.3973C6.57642 21.5978 6.31103 21.805 6.03903 22.0057C5.76703 22.2065 5.49546 22.3972 5.20703 22.5817C5.46303 22.365 5.7346 22.1642 6.00639 21.9669C6.27818 21.7696 6.55999 21.5761 6.82218 21.376L7.62154 20.7609C7.89652 20.5604 8.16191 20.3533 8.44031 20.1591V20.1587ZM7.02612 22.4241C7.02612 22.4241 7.31412 22.1845 7.67338 21.8481C8.11988 21.4308 8.66687 20.8966 8.84159 20.7998L7.02591 22.4243L7.02612 22.4241Z" fill="#CFB66C"/>
<path fill-rule="evenodd" clip-rule="evenodd" d="M7.02637 22.4241C7.16887 22.2818 7.32098 22.1427 7.47309 22.0066L7.70605 21.8061C7.7773 21.7421 7.85837 21.6702 7.92941 21.5989C8.0717 21.4566 8.21101 21.3043 8.3533 21.1588C8.42383 21.0857 8.4984 21.0165 8.57666 20.9517C8.61579 20.9171 8.65924 20.8877 8.70594 20.8642C8.74498 20.8416 8.78701 20.8002 8.84183 20.793C8.80962 20.8416 8.77079 20.8642 8.73837 20.9062C8.69954 20.9387 8.66711 20.9775 8.6349 21.0097C8.56365 21.081 8.48279 21.1456 8.41154 21.2105C8.25943 21.34 8.10093 21.4665 7.94882 21.6019C7.79671 21.7374 7.65442 21.8835 7.5021 22.0194C7.33719 22.1587 7.18509 22.2946 7.02637 22.4248V22.4241ZM8.96173 21.1296C8.96173 21.1296 7.90679 22.1621 7.68983 22.3302L8.96173 21.1296Z" fill="#CFB66C"/>
<path fill-rule="evenodd" clip-rule="evenodd" d="M8.96135 21.1294C8.86645 21.2392 8.7647 21.343 8.65671 21.44L8.33671 21.7442C8.23324 21.8477 8.13596 21.9514 8.02609 22.0548C7.91281 22.1519 7.80935 22.2468 7.68945 22.3364L8.00007 22.0322C8.10375 21.9288 8.21703 21.8415 8.32711 21.7378L8.63772 21.4336C8.74439 21.3269 8.84807 21.2233 8.96135 21.1294ZM9.00977 21.6892C8.91253 21.9606 8.79795 22.2254 8.66673 22.4821C8.39495 23.0259 7.98727 23.7054 7.80913 24.0518L9.00977 21.6892Z" fill="#CFB66C"/>
<path fill-rule="evenodd" clip-rule="evenodd" d="M9.00994 21.6895C9.00994 21.8091 8.97751 21.9128 8.93869 22.0163C8.90084 22.1198 8.85769 22.2214 8.80941 22.3205C8.76077 22.4176 8.70573 22.5212 8.65069 22.6151C8.59565 22.709 8.53101 22.8058 8.48237 22.9031L8.15554 23.4791C8.04226 23.6711 7.93218 23.8642 7.8125 24.0487C7.89335 23.8416 8.00343 23.6474 8.10711 23.4565C8.22039 23.2645 8.32386 23.0725 8.42711 22.8739C8.47753 22.7749 8.52288 22.6734 8.56301 22.5699C8.61143 22.4662 8.65986 22.3691 8.6989 22.2753C8.74733 22.1718 8.78615 22.0745 8.83479 21.9809C8.88962 21.8804 8.93506 21.7833 9.00951 21.6895H9.00994Z" fill="#CFB66C"/>
<path fill-rule="evenodd" clip-rule="evenodd" d="M10.1623 24.3433C10.1623 24.3433 9.84232 24.7672 9.87432 25.3043C9.96157 25.0229 10.0717 24.5924 10.1623 24.3433ZM10.4665 24.7682C10.4665 24.7682 10.3533 25.9202 10.2594 26.4866C10.3921 25.8319 10.4179 25.8869 10.4665 24.7682ZM12.5862 26.5547C12.5862 26.5547 12.1073 27.9627 12.0975 28.3539C12.2011 27.9516 12.4017 27.1296 12.5862 26.5536V26.5547Z" fill="#DEC270"/>
<path fill-rule="evenodd" clip-rule="evenodd" d="M13.7061 24.2559C13.7061 24.2559 14.4828 25.5374 15.0654 26.6311C14.9078 26.0807 14.5451 25.0712 13.7061 24.2559Z" fill="#CBAF59"/>
<path fill-rule="evenodd" clip-rule="evenodd" d="M15.793 26.1426C16.2194 26.8964 16.604 27.6732 16.945 28.4694C16.8803 27.9192 16.7054 26.9776 15.793 26.1426Z" fill="#E3C677"/>
<path fill-rule="evenodd" clip-rule="evenodd" d="M21.9295 28.0321C22.0588 27.9513 22.3145 27.5109 22.5379 27.4011C22.761 27.2878 22.9294 27.2652 23.1301 27.0418C23.3306 26.8086 23.3861 26.6664 23.8258 26.482C24.4408 26.2164 24.0178 25.8734 24.0178 25.8734C24.0855 25.8068 24.158 25.7453 24.2345 25.6891C24.3933 25.5694 24.5776 25.4237 24.5616 25.1679C24.539 24.7376 24.4581 24.113 24.1053 23.7505C24.4483 23.6793 25.1052 23.6308 25.5133 23.5274C25.9856 23.4075 26.2025 23.2392 26.2025 23.2392C26.2025 23.2392 25.9308 22.7764 26.3709 22.3105C26.811 21.8446 27.1702 21.5662 27.4356 21.045C27.1314 21.0062 26.6676 20.8445 25.484 21.2942C25.5479 21.3243 25.6096 21.3588 25.6686 21.3977C25.6686 21.3977 24.9405 21.5984 24.6751 21.8218C24.2121 22.2132 24.1539 22.5337 23.6524 22.7732C23.1508 23.0128 22.6458 22.948 22.2286 23.1421C21.8113 23.3362 21.7496 23.5013 21.5973 23.5726C21.6297 23.6114 21.5909 23.6761 21.6524 23.7311C21.6135 23.7861 21.387 24.155 21.1572 24.155C21.1798 24.2425 21.374 24.3071 21.374 24.3071C21.374 24.3071 21.2317 24.4108 20.8692 24.4366C21.0535 24.6286 21.2285 24.8379 21.7106 25.1421C21.6718 25.2229 21.5098 25.3428 21.5747 25.4949C21.646 25.647 21.8307 25.8542 22.5682 26.0225C22.1927 26.0385 21.7528 26.126 21.1602 26.0451C20.568 25.9739 20.4709 25.9318 20.1053 26.0225C20.1441 26.0613 20.2476 26.0613 20.3382 26.1648C20.2412 26.1712 19.6327 26.0936 19.4256 26.3656C19.2088 26.6469 19.115 27.1099 19.1312 27.4205C19.0179 27.4755 18.9078 27.5726 18.9629 27.7733C19.0179 27.9741 19.3059 28.0387 19.4904 28.1648C19.6748 28.3007 19.691 28.3491 19.8659 28.3169C20.0502 28.2781 20.322 28.0938 20.4807 28.0938C20.6394 28.0938 20.7525 28.2134 20.7525 28.2134C20.7525 28.2134 21.183 28.0063 21.225 28.0451C21.2639 28.084 21.2314 28.3331 21.2735 28.372C21.3161 28.4012 21.801 28.1132 21.9305 28.0321H21.9295Z" fill="#ECD592"/>
<path fill-rule="evenodd" clip-rule="evenodd" d="M31.3371 15.0811C29.3145 9.85782 24.3144 8.89014 24.3144 8.89014H10.049L10.1041 14.2105H12.945V26.0908H10.0488V31.4015H23.9195C27.2625 31.4015 29.9422 28.0421 29.9422 28.0421C34.2334 21.9517 31.3369 15.0811 31.3369 15.0811H31.3371ZM23.994 24.4628C23.994 24.4628 22.906 26.0325 21.7222 26.0325H19.3542L19.2981 14.2235H22.337C22.337 14.2235 23.745 14.5179 24.7287 17.3042C24.7287 17.3042 26.0328 21.2936 23.994 24.4628Z" fill="white" fill-opacity="0.8"/>
</g>
<defs>
<clipPath id="clip0_27135_73824">
<rect width="40" height="40" fill="white" transform="translate(0.333008)"/>
</clipPath>
</defs>
</svg>
