<svg width="941" height="1032" viewBox="0 0 941 1032" fill="none" xmlns="http://www.w3.org/2000/svg">
<g opacity="0.5" filter="url(#filter0_fn_40336_65772)">
<g filter="url(#filter1_f_40336_65772)">
<ellipse cx="584.5" cy="500" rx="324.5" ry="272" fill="#0006A8"/>
</g>
<g filter="url(#filter2_f_40336_65772)">
<path d="M882.372 621.444C939.842 578.707 961.775 497.413 915.397 502.89C869.018 508.367 748.534 616.232 624.202 684.01C468.786 768.733 466.667 812.363 559.065 788.324C713.61 748.116 824.902 664.181 882.372 621.444Z" fill="url(#paint0_linear_40336_65772)"/>
</g>
<g opacity="0.6" filter="url(#filter3_f_40336_65772)">
<path d="M937.954 643.471C995.424 600.734 976.64 502.484 943.613 510.001C910.587 517.518 804.116 638.258 679.783 706.037C524.367 790.759 522.249 834.389 614.647 810.35C769.192 770.143 880.484 686.207 937.954 643.471Z" fill="url(#paint1_linear_40336_65772)"/>
</g>
<g opacity="0.6" filter="url(#filter4_f_40336_65772)">
<path d="M895.544 639.662C953.014 596.925 934.231 498.675 901.204 506.192C868.177 513.709 761.707 634.45 637.374 702.228C481.958 786.951 485.94 802.577 578.338 778.539C732.883 738.331 838.074 682.399 895.544 639.662Z" fill="url(#paint2_linear_40336_65772)"/>
</g>
<g filter="url(#filter5_f_40336_65772)">
<path d="M882.37 621.443C939.84 578.706 921.056 480.456 888.03 487.973C855.003 495.49 748.532 616.231 624.2 684.009C468.784 768.732 296.248 853.554 388.646 829.515C543.192 789.307 824.9 664.18 882.37 621.443Z" fill="url(#paint3_linear_40336_65772)"/>
</g>
<g filter="url(#filter6_f_40336_65772)">
<path d="M863.331 622.061C885.301 569.604 907.733 529.605 878.137 522.822C848.541 516.038 832.704 566.405 803.707 586.126C758.285 617.015 722.813 651.774 662.39 684.676C538.642 752.058 486.316 772.486 559.883 753.361C682.932 721.373 841.311 674.638 863.331 622.061Z" fill="url(#paint4_linear_40336_65772)"/>
</g>
</g>
<defs>
<filter id="filter0_fn_40336_65772" x="236" y="204" width="762.895" height="653.656" filterUnits="userSpaceOnUse" color-interpolation-filters="sRGB">
<feFlood flood-opacity="0" result="BackgroundImageFix"/>
<feBlend mode="normal" in="SourceGraphic" in2="BackgroundImageFix" result="shape"/>
<feGaussianBlur stdDeviation="12" result="effect1_foregroundBlur_40336_65772"/>
<feTurbulence type="fractalNoise" baseFrequency="2 2" stitchTiles="stitch" numOctaves="3" result="noise" seed="1898" />
<feColorMatrix in="noise" type="luminanceToAlpha" result="alphaNoise" />
<feComponentTransfer in="alphaNoise" result="coloredNoise1">
<feFuncA type="discrete" tableValues="1 1 1 1 1 1 1 1 1 1 1 1 1 1 1 1 1 1 1 1 1 1 1 1 1 1 1 1 1 1 1 1 1 1 1 1 1 1 1 1 1 1 1 1 1 1 1 1 1 1 1 0 0 0 0 0 0 0 0 0 0 0 0 0 0 0 0 0 0 0 0 0 0 0 0 0 0 0 0 0 0 0 0 0 0 0 0 0 0 0 0 0 0 0 0 0 0 0 0 0 "/>
</feComponentTransfer>
<feComposite operator="in" in2="effect1_foregroundBlur_40336_65772" in="coloredNoise1" result="noise1Clipped" />
<feFlood flood-color="rgba(255, 255, 255, 0.12)" result="color1Flood" />
<feComposite operator="in" in2="noise1Clipped" in="color1Flood" result="color1" />
<feMerge result="effect2_noise_40336_65772">
<feMergeNode in="effect1_foregroundBlur_40336_65772" />
<feMergeNode in="color1" />
</feMerge>
</filter>
<filter id="filter1_f_40336_65772" x="0" y="-31.9998" width="1169" height="1064" filterUnits="userSpaceOnUse" color-interpolation-filters="sRGB">
<feFlood flood-opacity="0" result="BackgroundImageFix"/>
<feBlend mode="normal" in="SourceGraphic" in2="BackgroundImageFix" result="shape"/>
<feGaussianBlur stdDeviation="130" result="effect1_foregroundBlur_40336_65772"/>
</filter>
<filter id="filter2_f_40336_65772" x="326.973" y="332.626" width="783.51" height="632.259" filterUnits="userSpaceOnUse" color-interpolation-filters="sRGB">
<feFlood flood-opacity="0" result="BackgroundImageFix"/>
<feBlend mode="normal" in="SourceGraphic" in2="BackgroundImageFix" result="shape"/>
<feGaussianBlur stdDeviation="85" result="effect1_foregroundBlur_40336_65772"/>
</filter>
<filter id="filter3_f_40336_65772" x="412.555" y="369.592" width="702.34" height="587.32" filterUnits="userSpaceOnUse" color-interpolation-filters="sRGB">
<feFlood flood-opacity="0" result="BackgroundImageFix"/>
<feBlend mode="normal" in="SourceGraphic" in2="BackgroundImageFix" result="shape"/>
<feGaussianBlur stdDeviation="70" result="effect1_foregroundBlur_40336_65772"/>
</filter>
<filter id="filter4_f_40336_65772" x="443.766" y="435.784" width="558.721" height="422.976" filterUnits="userSpaceOnUse" color-interpolation-filters="sRGB">
<feFlood flood-opacity="0" result="BackgroundImageFix"/>
<feBlend mode="normal" in="SourceGraphic" in2="BackgroundImageFix" result="shape"/>
<feGaussianBlur stdDeviation="35" result="effect1_foregroundBlur_40336_65772"/>
</filter>
<filter id="filter5_f_40336_65772" x="292.725" y="417.565" width="696.588" height="486.091" filterUnits="userSpaceOnUse" color-interpolation-filters="sRGB">
<feFlood flood-opacity="0" result="BackgroundImageFix"/>
<feBlend mode="normal" in="SourceGraphic" in2="BackgroundImageFix" result="shape"/>
<feGaussianBlur stdDeviation="35" result="effect1_foregroundBlur_40336_65772"/>
</filter>
<filter id="filter6_f_40336_65772" x="456.135" y="452.198" width="506.211" height="377.997" filterUnits="userSpaceOnUse" color-interpolation-filters="sRGB">
<feFlood flood-opacity="0" result="BackgroundImageFix"/>
<feBlend mode="normal" in="SourceGraphic" in2="BackgroundImageFix" result="shape"/>
<feGaussianBlur stdDeviation="35" result="effect1_foregroundBlur_40336_65772"/>
</filter>
<linearGradient id="paint0_linear_40336_65772" x1="895.122" y1="504.897" x2="549.634" y2="801.882" gradientUnits="userSpaceOnUse">
<stop stop-color="#0098EA"/>
<stop offset="1" stop-color="#0B2E83"/>
</linearGradient>
<linearGradient id="paint1_linear_40336_65772" x1="950.704" y1="526.928" x2="605.216" y2="823.912" gradientUnits="userSpaceOnUse">
<stop stop-color="#2A17FF"/>
<stop offset="1" stop-color="#2A17FF" stop-opacity="0"/>
</linearGradient>
<linearGradient id="paint2_linear_40336_65772" x1="908.295" y1="523.12" x2="562.807" y2="820.104" gradientUnits="userSpaceOnUse">
<stop stop-color="#7900EA"/>
<stop offset="1" stop-color="#830B5F"/>
</linearGradient>
<linearGradient id="paint3_linear_40336_65772" x1="895.122" y1="504.901" x2="549.634" y2="801.886" gradientUnits="userSpaceOnUse">
<stop stop-color="#00C7EA"/>
<stop offset="1" stop-color="#0B4F83"/>
</linearGradient>
<linearGradient id="paint4_linear_40336_65772" x1="878.109" y1="542.226" x2="603.308" y2="778.753" gradientUnits="userSpaceOnUse">
<stop stop-color="#CFE7FA"/>
<stop offset="1" stop-color="#4379FF"/>
</linearGradient>
</defs>
</svg>
