<svg width="982" height="506" viewBox="0 0 982 506" fill="none" xmlns="http://www.w3.org/2000/svg">
<g opacity="0.8">
<g filter="url(#filter0_f_40336_65767)">
<path d="M116.931 266.182C178.512 182.583 273.423 146.399 362.8 100.976C452.177 55.5537 455.701 33.5562 578.484 13.757C704.619 -6.58259 859.109 0.340129 859.109 0.340129C859.109 0.340129 633.985 6.37358 396.076 123.394C158.167 240.414 13.0004 405.799 13.0004 405.799C13.0004 405.799 67.6671 333.06 116.931 266.182Z" fill="url(#paint0_linear_40336_65767)"/>
</g>
<g filter="url(#filter1_f_40336_65767)">
<path d="M128.496 216.506C190.076 132.908 284.987 96.7234 374.364 51.3007C463.742 5.87788 467.265 -16.1196 590.048 -35.9188C716.183 -56.2584 870.673 -49.3357 870.673 -49.3357C870.673 -49.3357 645.549 -43.3022 407.64 73.7182C169.732 190.739 24.5649 356.123 24.5649 356.123C24.5649 356.123 79.2315 283.384 128.496 216.506Z" fill="url(#paint1_linear_40336_65767)"/>
</g>
<g opacity="0.4" filter="url(#filter2_f_40336_65767)">
<path d="M20.1303 226.014C88.9009 125.047 178.722 59.5552 281.834 2.26455C384.946 -55.0261 408.332 -62.2205 551.836 -90.8357C699.256 -120.232 881.201 -118.807 881.201 -118.807C881.201 -118.807 632.498 -96.9667 357.86 50.9609C83.2219 198.888 -96 394.687 -96 394.687C-96 394.687 -34.8862 306.789 20.1303 226.014Z" fill="url(#paint2_linear_40336_65767)"/>
</g>
<g filter="url(#filter3_f_40336_65767)">
<path d="M115.177 196.313C167.749 119.173 206.852 89.7416 276.13 32.5319C345.408 -24.6778 405.571 -32.0298 515.274 -53.8927C627.971 -76.3524 767.061 -75.2646 767.061 -75.2646C767.061 -75.2646 576.937 -58.5773 366.988 54.4411C157.038 167.459 20.0313 317.051 20.0313 317.051C20.0313 317.051 73.1195 258.025 115.177 196.313Z" fill="#F86F8F"/>
<path d="M20.0313 317.051L22.9441 319.704L17.0926 314.426L20.0313 317.051ZM20.0313 317.051L22.9451 319.704C22.9459 319.703 22.9465 319.702 22.9481 319.7C22.9516 319.696 22.9574 319.689 22.965 319.681C22.9668 319.679 22.968 319.676 22.97 319.674L22.971 319.675C22.9714 319.675 22.9721 319.673 22.973 319.672L22.9809 319.663C22.995 319.648 23.0134 319.628 23.0356 319.604C23.0993 319.535 23.1962 319.43 23.3258 319.291C23.5854 319.01 23.9771 318.59 24.4982 318.035C25.5407 316.925 27.1026 315.276 29.1675 313.134C33.2976 308.85 39.4417 302.593 47.4736 294.728C63.5384 278.997 87.1538 256.832 117.319 231.14C177.659 179.747 264.154 114.283 368.801 57.9502C473.4 1.6434 573.078 -30.6744 646.608 -48.9128C683.368 -58.0307 713.578 -63.6266 734.581 -66.9409C745.082 -68.598 753.28 -69.6848 758.843 -70.3563C761.625 -70.6921 763.747 -70.9239 765.169 -71.0715C765.88 -71.1452 766.416 -71.198 766.772 -71.232C766.949 -71.249 767.082 -71.2607 767.169 -71.2686C767.212 -71.2726 767.244 -71.2759 767.265 -71.2778C767.275 -71.2787 767.283 -71.2796 767.287 -71.28C767.289 -71.2802 767.291 -71.28 767.292 -71.2801L767.212 -79.2644L767.061 -75.2648C767.212 -79.2643 767.211 -79.2644 767.209 -79.2644L767.184 -79.2641C767.166 -79.2642 767.14 -79.2647 767.106 -79.2649C767.037 -79.2654 766.934 -79.2659 766.799 -79.2666C766.529 -79.268 766.128 -79.2695 765.601 -79.2707C764.547 -79.2732 762.99 -79.2741 760.97 -79.267C756.931 -79.2528 751.04 -79.2074 743.62 -79.0826C728.782 -78.8331 707.826 -78.2663 683.342 -76.9957C634.403 -74.4561 571.234 -69.0998 514.605 -57.8142C405.232 -36.017 343.89 -28.5354 273.638 29.4789C204.393 86.6613 164.842 116.434 111.893 194.128C90.9638 224.838 67.265 254.914 48.7774 277.335C39.5384 288.539 31.6107 297.819 25.9953 304.296C23.1877 307.534 20.9581 310.071 19.4326 311.796C18.67 312.658 18.0834 313.318 17.6882 313.761C17.4907 313.983 17.3406 314.15 17.2408 314.261C17.1912 314.317 17.1541 314.358 17.1294 314.386C17.1172 314.399 17.1076 314.41 17.1016 314.416C17.0986 314.42 17.096 314.423 17.0946 314.424L17.0936 314.425L20.0313 317.051Z" stroke="#E301B2" stroke-width="8"/>
</g>
</g>
<defs>
<filter id="filter0_f_40336_65767" x="-87" y="-100.795" width="1046.11" height="606.594" filterUnits="userSpaceOnUse" color-interpolation-filters="sRGB">
<feFlood flood-opacity="0" result="BackgroundImageFix"/>
<feBlend mode="normal" in="SourceGraphic" in2="BackgroundImageFix" result="shape"/>
<feGaussianBlur stdDeviation="50" result="effect1_foregroundBlur_40336_65767"/>
</filter>
<filter id="filter1_f_40336_65767" x="-75.4355" y="-150.471" width="1046.11" height="606.594" filterUnits="userSpaceOnUse" color-interpolation-filters="sRGB">
<feFlood flood-opacity="0" result="BackgroundImageFix"/>
<feBlend mode="normal" in="SourceGraphic" in2="BackgroundImageFix" result="shape"/>
<feGaussianBlur stdDeviation="50" result="effect1_foregroundBlur_40336_65767"/>
</filter>
<filter id="filter2_f_40336_65767" x="-196" y="-218.818" width="1177.2" height="713.505" filterUnits="userSpaceOnUse" color-interpolation-filters="sRGB">
<feFlood flood-opacity="0" result="BackgroundImageFix"/>
<feBlend mode="normal" in="SourceGraphic" in2="BackgroundImageFix" result="shape"/>
<feGaussianBlur stdDeviation="50" result="effect1_foregroundBlur_40336_65767"/>
</filter>
<filter id="filter3_f_40336_65767" x="-45.8457" y="-143.273" width="873.371" height="525.63" filterUnits="userSpaceOnUse" color-interpolation-filters="sRGB">
<feFlood flood-opacity="0" result="BackgroundImageFix"/>
<feBlend mode="normal" in="SourceGraphic" in2="BackgroundImageFix" result="shape"/>
<feGaussianBlur stdDeviation="30" result="effect1_foregroundBlur_40336_65767"/>
</filter>
<linearGradient id="paint0_linear_40336_65767" x1="819.244" y1="-13.8888" x2="183.571" y2="579.8" gradientUnits="userSpaceOnUse">
<stop stop-color="#703CFF"/>
<stop offset="1" stop-color="#4885FF"/>
</linearGradient>
<linearGradient id="paint1_linear_40336_65767" x1="830.809" y1="-63.5646" x2="195.136" y2="530.125" gradientUnits="userSpaceOnUse">
<stop stop-color="#FF693C"/>
<stop offset="1" stop-color="#D003E7"/>
</linearGradient>
<linearGradient id="paint2_linear_40336_65767" x1="833.711" y1="-133.804" x2="112.113" y2="591.859" gradientUnits="userSpaceOnUse">
<stop stop-color="#F81BF8"/>
<stop offset="1" stop-color="#650798"/>
</linearGradient>
</defs>
</svg>
