<svg width="144" height="72" viewBox="0 0 144 72" fill="none" xmlns="http://www.w3.org/2000/svg">
<path d="M38.8797 43.9447V22.458H51.5811V25.1612H41.5136V31.7631H50.5588V34.4663H41.5136V41.2069H52.2916V43.9101H38.8797V43.9447Z" fill="#7D8387"/>
<path d="M65.6345 43.9444L61.2678 38.2262L56.9012 43.9444H53.8168L59.7776 36.3028L53.4876 28.4186H56.9532L61.2505 34.3274L65.6172 28.4186H69.0135L63.0526 36.3028L68.7016 43.9444H65.6345Z" fill="#7D8387"/>
<path d="M72.9465 41.6405V52.2279H70.3126V36.3728C70.3126 32.3354 73.397 28.038 78.1969 28.038C83.066 28.038 86.7396 31.1224 86.7396 36.1822C86.7396 41.1206 83.014 44.5169 78.786 44.5169C76.7413 44.5169 73.9688 43.6332 72.9465 41.6405ZM83.9844 36.1822C83.9844 32.7166 81.7318 30.6719 77.7637 30.8625C75.8403 30.9318 72.8945 32.3354 73.1371 37.2738C73.2064 38.8853 74.8699 41.9004 78.5261 41.9004C81.6798 41.9004 83.9844 40.0983 83.9844 36.1822Z" fill="#7D8387"/>
<path d="M88.992 28.419H91.6259V30.0825C92.9082 28.6096 94.9009 28.0897 97.0149 28.0897V30.9142C96.6857 30.8449 93.5493 30.4637 91.6259 34.5704V43.9968H88.992V28.419Z" fill="#7D8387"/>
<path d="M97.7255 36.1822C97.7255 31.6942 100.931 28.038 105.367 28.038C110.877 28.038 112.939 31.6942 112.939 36.3728V37.6551H100.619C100.81 40.6008 103.444 42.143 105.887 42.091C107.689 42.0217 108.902 41.5192 110.184 40.2369L111.917 42.039C110.306 43.5812 108.261 44.6036 105.766 44.6036C101.052 44.5169 97.7255 41.0513 97.7255 36.1822ZM105.159 30.6719C102.664 30.6719 100.723 32.8552 100.602 35.2291H110.167C110.167 32.9072 108.504 30.6719 105.159 30.6719Z" fill="#7D8387"/>
<path d="M114.274 41.7608L116.197 40.028C116.128 40.028 117.168 41.0503 117.289 41.1196C117.74 41.5009 118.19 41.7608 118.762 41.8821C120.425 42.3326 123.441 42.2113 123.7 39.8894C123.822 38.6071 122.869 37.8966 121.777 37.4461C120.373 36.9263 118.831 36.7357 117.41 36.0945C115.799 35.3841 114.777 34.1711 114.777 32.369C114.777 27.6905 121.448 26.9107 124.463 29.094C124.584 29.2153 126.074 30.5669 126.005 30.5669L124.082 32.1091C123.111 30.9481 122.228 30.3763 120.166 30.3763C119.143 30.3763 117.722 30.8268 117.462 31.9185C117.081 33.4607 118.814 34.0325 119.958 34.3617C121.5 34.743 123.163 35.0029 124.515 35.8346C126.369 36.9956 126.819 39.4908 126.126 41.4142C125.364 43.5282 123.042 44.36 120.997 44.4293C118.571 44.5852 116.457 43.8228 114.725 42.09C114.586 42.09 114.274 41.7608 114.274 41.7608Z" fill="#7D8387"/>
<path d="M127.807 41.7608L129.731 40.028C129.661 40.028 130.701 41.0503 130.822 41.1196C131.273 41.5009 131.723 41.7608 132.295 41.8821C133.959 42.3326 136.974 42.2113 137.234 39.8894C137.355 38.6071 136.402 37.8966 135.31 37.4461C133.907 36.9263 132.364 36.7357 130.944 36.0945C129.332 35.3841 128.31 34.1711 128.31 32.369C128.31 27.6905 134.981 26.9107 137.996 29.094C138.117 29.2153 139.608 30.5669 139.538 30.5669L137.615 32.1091C136.644 30.9481 135.761 30.3763 133.699 30.3763C132.676 30.3763 131.255 30.8268 130.996 31.9185C130.614 33.4607 132.347 34.0325 133.491 34.3617C135.033 34.743 136.696 35.0029 138.048 35.8346C139.902 36.9956 140.353 39.4908 139.66 41.4142C138.897 43.5282 136.575 44.36 134.53 44.4293C132.087 44.5506 129.973 43.7882 128.24 42.0554C128.136 42.09 127.807 41.7608 127.807 41.7608Z" fill="#7D8387"/>
<path d="M21.0319 43.9443L19.1085 38.8153H8.71176L6.78835 43.9443H4.0332L12.368 22.4403H15.383L23.6658 43.9443H21.0319ZM13.7889 25.5247L9.87273 36.1814H18.0169L13.7889 25.5247Z" fill="#7D8387"/>
<path d="M25.3983 22.458H28.1014V43.962H25.3983V22.458Z" fill="#7D8387"/>
<path d="M32.1394 43.9445V28.7305H34.8426V43.9445H32.1394Z" fill="#7D8387"/>
<path d="M37.4065 23.7923C37.4065 23.723 37.4065 23.723 37.4065 23.671C37.4065 23.6017 37.4065 23.6017 37.4065 23.5497C35.3618 23.4804 33.681 21.8169 33.629 19.7722C33.5597 19.7722 33.5077 19.7722 33.4384 19.7722C33.3691 19.7722 33.3171 19.7722 33.2478 19.7722C33.1785 21.8169 31.515 23.4977 29.4703 23.5497C29.4703 23.619 29.4703 23.619 29.4703 23.671C29.4703 23.7403 29.4703 23.7403 29.4703 23.7923C31.515 23.8616 33.1958 25.5251 33.2478 27.5698C33.3171 27.5698 33.3691 27.5698 33.4384 27.5698C33.5077 27.5698 33.5597 27.5698 33.629 27.5698C33.681 25.5251 35.3445 23.8616 37.4065 23.7923Z" fill="#7D8387"/>
</svg>
