<svg width="144" height="72" viewBox="0 0 144 72" fill="none" xmlns="http://www.w3.org/2000/svg">
<path fill-rule="evenodd" clip-rule="evenodd" d="M85.1228 45.6248C79.4958 49.7723 71.3399 51.9852 64.3177 51.9852C54.4716 51.9852 45.6075 48.3434 38.9015 42.2865C38.3746 41.8102 38.8467 41.1611 39.479 41.5321C46.716 45.7428 55.6644 48.276 64.9078 48.276C71.1418 48.276 77.9995 46.9862 84.3051 44.3097C85.2577 43.9051 86.0543 44.9335 85.1228 45.6248Z" fill="#7D8387"/>
<path fill-rule="evenodd" clip-rule="evenodd" d="M87.462 42.9483C86.7454 42.0294 82.7075 42.5141 80.8951 42.7291C80.3429 42.7965 80.2586 42.316 80.756 41.9704C83.972 39.707 89.2491 40.3603 89.8645 41.119C90.4799 41.8819 89.7044 47.1717 86.6822 49.6964C86.2186 50.0842 85.776 49.8777 85.9825 49.3634C86.6612 47.669 88.1828 43.8713 87.462 42.9483Z" fill="#7D8387"/>
<path fill-rule="evenodd" clip-rule="evenodd" d="M81.0215 25.9915V23.7913C81.0215 23.4583 81.2744 23.2349 81.5779 23.2349H91.4283C91.7444 23.2349 91.9973 23.4625 91.9973 23.7913V25.6754C91.9931 25.9915 91.7275 26.4046 91.2554 27.0579L86.1511 34.3456C88.0479 34.2992 90.05 34.5816 91.7697 35.551C92.1574 35.7702 92.2628 36.0906 92.2923 36.4067V38.7544C92.2923 39.0748 91.9383 39.4499 91.5674 39.256C88.5368 37.667 84.5115 37.4941 81.1606 39.2729C80.8192 39.4583 80.4609 39.0874 80.4609 38.7671V36.5373C80.4609 36.1791 80.4651 35.5679 80.8234 35.0242L86.737 26.5437H81.5905C81.2744 26.5437 81.0215 26.3203 81.0215 25.9915Z" fill="#7D8387"/>
<path fill-rule="evenodd" clip-rule="evenodd" d="M45.0891 39.7196H42.0923C41.8057 39.6986 41.578 39.4836 41.557 39.2096V23.8292C41.557 23.5215 41.8141 23.2771 42.1344 23.2771H44.9289C45.2198 23.2897 45.4516 23.5131 45.4727 23.7913V25.8018H45.5275C46.2567 23.8587 47.6265 22.9525 49.4727 22.9525C51.3483 22.9525 52.5201 23.8587 53.3631 25.8018C54.0881 23.8587 55.7361 22.9525 57.5022 22.9525C58.7582 22.9525 60.1323 23.471 60.9711 24.6343C61.9195 25.9283 61.7256 27.8082 61.7256 29.4562L61.7214 39.1633C61.7214 39.471 61.4642 39.7196 61.1439 39.7196H58.1513C57.852 39.6986 57.6118 39.4583 57.6118 39.1633V31.0115C57.6118 30.3624 57.6708 28.7439 57.5275 28.1285C57.3041 27.0958 56.6339 26.805 55.7656 26.805C55.0406 26.805 54.2819 27.2897 53.9743 28.0653C53.6666 28.8408 53.6961 30.139 53.6961 31.0115V39.1633C53.6961 39.471 53.439 39.7196 53.1186 39.7196H50.126C49.8225 39.6986 49.5865 39.4583 49.5865 39.1633L49.5823 31.0115C49.5823 29.296 49.8647 26.7713 47.7361 26.7713C45.5823 26.7713 45.6666 29.2328 45.6666 31.0115V39.1633C45.6666 39.471 45.4094 39.7196 45.0891 39.7196Z" fill="#7D8387"/>
<path fill-rule="evenodd" clip-rule="evenodd" d="M100.478 22.9525C104.925 22.9525 107.331 26.7713 107.331 31.6269C107.331 36.3182 104.672 40.04 100.478 40.04C96.1111 40.04 93.7338 36.2212 93.7338 31.4625C93.7338 26.6743 96.1406 22.9525 100.478 22.9525ZM100.503 26.0927C98.2944 26.0927 98.1553 29.1021 98.1553 30.9778C98.1553 32.8577 98.1258 36.8703 100.478 36.8703C102.8 36.8703 102.91 33.6332 102.91 31.6606C102.91 30.3624 102.855 28.8113 102.463 27.5805C102.126 26.5099 101.456 26.0927 100.503 26.0927Z" fill="#7D8387"/>
<path fill-rule="evenodd" clip-rule="evenodd" d="M113.097 39.7196H110.113C109.814 39.6986 109.574 39.4583 109.574 39.1633L109.569 23.7787C109.595 23.4962 109.843 23.2771 110.147 23.2771H112.924C113.186 23.2897 113.401 23.4667 113.46 23.707V26.0589H113.515C114.353 23.9557 115.529 22.9525 117.599 22.9525C118.943 22.9525 120.254 23.4372 121.097 24.765C121.881 25.9957 121.881 28.0653 121.881 29.5531V39.2349C121.848 39.5047 121.599 39.7196 121.304 39.7196H118.299C118.025 39.6986 117.797 39.4963 117.767 39.2349V30.8809C117.767 29.1991 117.961 26.7376 115.892 26.7376C115.163 26.7376 114.492 27.2265 114.159 27.9683C113.738 28.9083 113.683 29.844 113.683 30.8809V39.1633C113.679 39.471 113.418 39.7196 113.097 39.7196Z" fill="#7D8387"/>
<path fill-rule="evenodd" clip-rule="evenodd" d="M73.1692 32.373C73.1692 33.5405 73.1987 34.5142 72.6086 35.5511C72.1323 36.3941 71.3736 36.9125 70.5349 36.9125C69.3842 36.9125 68.7098 36.0358 68.7098 34.7418C68.7098 32.1875 70.9985 31.7239 73.1692 31.7239V32.373ZM76.1913 39.6775C75.9932 39.8545 75.7066 39.8672 75.4832 39.7492C74.4885 38.923 74.3072 38.5395 73.7635 37.7513C72.1197 39.4288 70.9521 39.9304 68.8236 39.9304C66.2988 39.9304 64.3389 38.3751 64.3389 35.2602C64.3389 32.8282 65.6539 31.1717 67.5338 30.3625C69.1608 29.6459 71.4326 29.5195 73.1692 29.3214V28.9336C73.1692 28.2212 73.224 27.3783 72.8025 26.7629C72.44 26.2107 71.7403 25.9831 71.1207 25.9831C69.9785 25.9831 68.9627 26.569 68.714 27.7829C68.6634 28.0527 68.4653 28.3182 68.1913 28.3308L65.2872 28.0189C65.0428 27.9641 64.7688 27.766 64.8404 27.3909C65.5064 23.8672 68.6929 22.805 71.5422 22.805C73.0006 22.805 74.9058 23.1928 76.0564 24.2971C77.5148 25.6586 77.3757 27.4752 77.3757 29.452V34.1222C77.3757 35.5258 77.9574 36.1412 78.5053 36.8999C78.695 37.1696 78.7372 37.4942 78.4927 37.6965C77.8815 38.2065 76.7941 39.1549 76.1955 39.686L76.1913 39.6775Z" fill="#7D8387"/>
<path fill-rule="evenodd" clip-rule="evenodd" d="M33.8811 32.3729C33.8811 33.5404 33.9106 34.5141 33.3205 35.551C32.8442 36.394 32.0898 36.9124 31.2468 36.9124C30.0961 36.9124 29.4259 36.0357 29.4259 34.7417C29.4259 32.1874 31.7146 31.7238 33.8811 31.7238V32.3729ZM36.9033 39.6774C36.7052 39.8545 36.4185 39.8671 36.1951 39.7491C35.2004 38.923 35.0234 38.5394 34.4754 37.7512C32.8316 39.4287 31.6683 39.9303 29.5355 39.9303C27.015 39.9303 25.0508 38.375 25.0508 35.2602C25.0508 32.8281 26.3701 31.1716 28.2457 30.3624C29.8727 29.6458 32.1446 29.5194 33.8811 29.3213V28.9335C33.8811 28.2212 33.9359 27.3782 33.5186 26.7628C33.1519 26.2106 32.4523 25.983 31.8369 25.983C30.6946 25.983 29.6746 26.5689 29.4259 27.7828C29.3753 28.0526 29.1772 28.3181 28.9075 28.3307L25.9991 28.0188C25.7547 27.964 25.4849 27.7659 25.5524 27.3908C26.2225 23.8671 29.4048 22.8049 32.2542 22.8049C33.7125 22.8049 35.6177 23.1927 36.7684 24.297C38.2268 25.6585 38.0877 27.4751 38.0877 29.4519V34.1221C38.0877 35.5257 38.6693 36.1411 39.2173 36.8998C39.4112 37.1695 39.4533 37.4941 39.2088 37.6964C38.5977 38.2064 37.5102 39.1548 36.9117 39.6859L36.9033 39.6774Z" fill="#7D8387"/>
</svg>
