<svg width="144" height="72" viewBox="0 0 144 72" fill="none" xmlns="http://www.w3.org/2000/svg">
<path d="M44.6803 27.3306C39.4821 27.3306 35.1504 29.6279 35.1504 36.5585C35.1504 42.0491 38.0631 45.5068 44.8145 45.5068C52.7612 45.5068 53.2706 40.054 53.2706 40.054H49.42C49.42 40.054 48.5945 42.9901 44.5796 42.9901C43.8556 43.0404 43.1294 42.9345 42.4465 42.679C41.7636 42.4234 41.1387 42.0237 40.6109 41.505C40.0832 40.9862 39.664 40.3595 39.3795 39.6642C39.095 38.9688 38.9515 38.2197 38.9578 37.4639H53.6733V35.44C53.6733 32.2492 51.7287 27.3306 44.6803 27.3306ZM44.5461 29.9172C47.6588 29.9172 49.7808 31.9036 49.7808 34.8807H39.0429C39.0429 31.7201 41.8127 29.9172 44.5461 29.9172Z" fill="#7D8387"/>
<path d="M53.6708 20.6196V42.0264C53.6708 43.2415 53.5876 44.9477 53.5876 44.9477H57.2602C57.2602 44.9477 57.392 43.7223 57.392 42.6024C57.392 42.6024 59.2065 45.5594 64.1403 45.5594C65.305 45.6173 66.4685 45.4201 67.5556 44.9805C68.6426 44.5409 69.6291 43.8687 70.4513 43.0073C71.2734 42.146 71.913 41.1145 72.3288 39.9797C72.7445 38.8448 72.9271 37.6318 72.8648 36.4188C72.9197 35.2133 72.7315 34.0093 72.3123 32.8842C71.8931 31.7591 71.2523 30.7381 70.4311 29.8868C69.6099 29.0355 68.6266 28.3729 67.5445 27.9417C66.4625 27.5104 65.3056 27.3202 64.1487 27.3832C59.0222 27.3832 57.4291 30.2669 57.4291 30.2669V20.6196H53.6708ZM63.2007 30.031C66.7289 30.031 68.9723 32.7586 68.9723 36.4189C68.9723 40.3439 66.3812 42.9116 63.2259 42.9116C59.4603 42.9116 57.4291 39.849 57.4291 36.4538C57.4291 33.2902 59.2518 30.031 63.2007 30.031Z" fill="#7D8387"/>
<path d="M81.9919 27.3306C74.1716 27.3306 73.67 31.7911 73.67 32.5038H77.5625C77.5625 32.5038 77.7666 29.8998 81.7234 29.8998C84.2946 29.8998 86.287 31.1257 86.287 33.4825V34.3214H81.7234C75.6649 34.3214 72.462 36.1676 72.462 39.9141C72.462 43.6011 75.4214 45.6072 79.4206 45.6072C84.8711 45.6072 86.6268 42.4701 86.6268 42.4701C86.6268 43.7179 86.7191 44.9475 86.7191 44.9475H90.1795C90.1795 44.9475 90.0453 43.4234 90.0453 42.4483V34.02C90.0453 28.4937 85.766 27.3306 81.9919 27.3306ZM86.287 36.8381V37.9567C86.287 39.4155 85.4228 43.0425 80.3351 43.0425C77.549 43.0425 76.3545 41.5941 76.3545 39.9141C76.3545 36.8578 80.3772 36.8381 86.287 36.8381Z" fill="#7D8387"/>
<path d="M87.9489 28.0308H92.328L98.6125 41.146L104.883 28.0308H108.849L97.4285 51.3801H93.2675L96.5632 44.8712L87.9489 28.0308Z" fill="#7D8387"/>
</svg>
