<svg width="144" height="72" viewBox="0 0 144 72" fill="none" xmlns="http://www.w3.org/2000/svg">
<path d="M45.6933 23.7687V32.7863C45.6933 32.7863 48.8722 32.7863 50.5589 32.6566C51.9213 32.3971 52.1159 32.2673 52.3754 30.9698L52.8944 29.0236H54.3217L54.0622 33.2404L54.1919 37.6519H52.7647L52.3754 35.9652C51.9862 34.7326 51.532 34.4731 50.5589 34.4082C49.3263 34.2784 45.6933 34.2784 45.6933 34.2784V41.8688C45.6933 43.2961 46.4069 43.9448 48.1585 43.9448H53.2837C54.8407 43.9448 56.4625 43.8151 57.4357 41.4796L58.7332 38.5602H59.9658C59.836 39.1441 59.2522 44.5287 59.1224 45.7613C59.1224 45.7613 54.5163 45.6316 52.57 45.6316H38.4922V44.3341L40.1789 43.9448C41.4116 43.6853 41.8008 43.3609 41.8008 42.3878C41.8008 42.3878 41.9306 39.0792 41.9306 33.6297C41.9306 28.1802 41.8008 24.8716 41.8008 24.8716C41.8008 23.7687 41.4116 23.5092 40.1789 23.3146L38.4922 22.8605V21.563L43.6173 21.6927H53.3485C55.2948 21.6278 58.6034 21.3035 58.6034 21.3035C58.6034 21.3035 58.4737 23.3795 58.3439 28.2451H56.9815L56.4625 26.5583C56.0084 24.3526 55.2948 23.2497 53.9324 23.2497H46.2772C45.6933 23.2497 45.6933 23.3795 45.6933 23.7687ZM65.4153 24.677H66.9074V29.8021L71.9028 29.5426L71.6433 31.8781L66.7776 31.4888V40.5064C66.7776 43.0366 67.621 44.0746 69.1131 44.0746C70.4106 44.0746 71.4486 43.3609 71.773 42.7122L72.4866 43.5556C71.773 45.2423 69.697 46.0857 67.7508 46.0857C65.3504 46.0857 63.3393 44.6584 63.3393 41.8039V31.6186H60.4199V30.386C62.8852 30.1913 64.7016 28.6992 65.4153 24.677ZM75.925 40.4416L76.8981 42.7771C77.2874 43.7502 78.1308 44.7233 80.077 44.7233C82.153 44.7233 82.9964 43.6204 82.9964 42.2581C82.9964 38.1061 74.8221 39.3387 74.8221 33.6946C74.8221 30.5157 77.3523 29.0236 80.6609 29.0236C82.153 29.0236 84.2939 29.2831 85.3967 29.7372C85.1372 30.9698 85.0075 32.5268 85.0075 33.7594L83.7749 33.8892L82.9315 31.424C82.672 30.8401 81.6989 30.3211 80.4663 30.3211C78.9741 30.3211 77.5469 30.905 77.5469 32.5268C77.5469 36.2896 85.9806 35.4462 85.9806 41.0903C85.9806 44.2692 83.191 45.9559 79.7526 45.9559C77.2225 45.9559 74.6275 44.9828 74.6275 44.9828C74.887 43.5556 74.7573 41.9337 74.6275 40.3767C74.6924 40.4416 75.925 40.4416 75.925 40.4416ZM85.3967 52.119C85.786 50.7567 85.9806 49.0699 86.2401 47.5129L87.6025 47.3832L88.1215 49.9133C88.2512 50.4972 88.5756 51.0162 89.5487 51.0162C91.1057 51.0162 93.1817 50.043 95.1929 46.6047C94.3495 44.5287 91.7545 37.8466 89.419 32.7214C88.8351 31.3591 88.7054 31.2293 87.862 31.0347L87.2132 30.7752V29.5426L90.9111 29.6723L95.3875 29.4128V30.6455L94.2846 30.905C93.4412 31.0347 93.052 31.4888 93.052 32.0078C93.052 32.1376 93.052 32.2673 93.1817 32.5268C93.4412 33.2404 95.3875 38.7548 96.8147 42.3878C98.0474 39.8577 100.318 34.0838 100.707 33.1107C100.837 32.5917 100.967 32.5268 100.967 32.1376C100.967 31.4888 100.577 31.1645 99.7341 30.905L98.8907 30.6455V29.4128L102.329 29.5426L105.508 29.4128V30.6455L104.924 31.0996C103.691 31.6186 103.562 31.6835 103.108 32.7214L97.723 45.3072C94.5441 52.5083 91.2355 53.0922 88.9649 53.0922C87.4727 53.0922 86.3699 52.7029 85.3967 52.119Z" fill="#7D8387"/>
</svg>
