<svg width="144" height="72" viewBox="0 0 144 72" fill="none" xmlns="http://www.w3.org/2000/svg">
<path d="M22.1223 28.1358C20.7227 28.1358 20.3256 28.7564 20.3256 30.1234V32.3824H24.047L23.6814 36.0386H20.3256V47.1239H15.8729V36.0386H12.8535V32.3824H15.8577V30.1875C15.8577 26.4986 17.3365 24.5587 21.4865 24.5587C22.353 24.5561 23.2188 24.6094 24.0785 24.7182V28.1532M24.3346 40.2073C24.3346 44.3259 26.2908 47.4103 30.3617 47.4103C31.2422 47.4703 32.1201 47.2606 32.8786 46.8092C33.637 46.3578 34.2399 45.6861 34.6071 44.8836V47.11H38.8852V32.38H34.6071V34.639C34.242 33.8314 33.6411 33.1532 32.8834 32.6935C32.1257 32.2338 31.2466 32.0141 30.3617 32.0634C26.2862 32.0634 24.3346 35.1642 24.3346 39.2664M28.8036 39.2023C28.8036 37.0074 29.6141 35.5461 31.6821 35.5461C33.5102 35.5461 34.4336 36.8817 34.4336 38.9811V40.46C34.4336 42.5594 33.5114 43.895 31.6821 43.895C29.6153 43.895 28.8036 42.4477 28.8036 40.2388V39.2023ZM48.1725 32.0621C42.9536 32.0645 40.5666 34.8777 40.5666 39.3944V40.078C40.5666 44.5936 42.9513 47.4091 48.1842 47.4091C49.6736 47.4783 51.1534 47.1371 52.4622 46.4229L51.476 43.258C50.5457 43.6979 49.5311 43.9311 48.5021 43.9415C46.0847 43.9415 45.0356 42.5419 45.0356 40.1723V39.3142C45.0356 36.9294 46.0836 35.545 48.5021 35.545C49.5318 35.5496 50.5476 35.7831 51.476 36.2285L52.4622 33.0636C51.1572 32.3381 49.6756 31.9913 48.1842 32.0622M53.034 40.2993C53.034 44.6251 55.1334 47.4395 60.7622 47.4395C62.7243 47.474 64.6726 47.1054 66.4865 46.3566L65.676 43.2872C64.1676 43.8839 62.559 44.1863 60.9369 44.178C58.4566 44.178 57.5659 43.2872 57.4704 41.267H66.8521V38.9147C66.8521 34.8392 64.8493 32.0447 60.2685 32.0447C55.4012 32.0447 53.0328 34.7962 53.0328 38.9776V40.3085M57.4855 38.3849C57.4855 36.3972 58.2657 35.1408 60.2801 35.1408C62.2363 35.1408 62.8721 36.4135 62.8721 38.0193V38.3849L57.4855 38.3849ZM83.3903 39.2757C83.3903 35.1571 81.4027 32.0727 77.3319 32.0727C76.4883 32.0308 75.6502 32.2298 74.9154 32.6462C74.1806 33.0627 73.5794 33.6796 73.1819 34.4248V24.5819L68.7291 24.9779V47.1017H72.9443V44.8754C73.3431 45.6856 73.9727 46.3595 74.754 46.8123C75.5352 47.2651 76.433 47.4764 77.3342 47.4197C81.4097 47.4197 83.3926 44.3189 83.3926 40.2167M78.9399 40.2807C78.9399 42.3476 78.1294 43.9067 75.9986 43.9067C74.1704 43.9067 73.1842 42.6025 73.1842 40.5031V38.9604C73.1842 36.861 74.1704 35.5568 75.9986 35.5568C78.1294 35.5568 78.9399 37.0997 78.9399 39.1828V40.2807ZM84.8877 40.106C84.8877 44.3515 87.305 47.4046 92.2189 47.4046C97.1327 47.4046 99.55 44.3352 99.55 40.106V39.3585C99.55 35.113 97.1327 32.0599 92.2189 32.0599C87.305 32.0599 84.8877 35.1293 84.8877 39.3585V40.106ZM95.0973 40.4088C95.0973 42.365 94.2868 43.9067 92.2188 43.9067C90.1508 43.9067 89.3404 42.3638 89.3404 40.4088V39.0417C89.3404 37.0855 90.1509 35.5438 92.2189 35.5438C94.2869 35.5438 95.0974 37.0866 95.0974 39.0417L95.0973 40.4088ZM101.029 40.106C101.029 44.3515 103.446 47.4046 108.36 47.4046C113.274 47.4046 115.691 44.3352 115.691 40.106V39.3585C115.691 35.113 113.274 32.0599 108.36 32.0599C103.446 32.0599 101.029 35.1293 101.029 39.3585V40.106ZM111.252 40.4088C111.252 42.365 110.442 43.9067 108.374 43.9067C106.306 43.9067 105.494 42.3929 105.494 40.4134V39.0463C105.494 37.0901 106.305 35.5484 108.373 35.5484C110.441 35.5484 111.251 37.0913 111.251 39.0463L111.252 40.4088ZM121.828 24.5703L117.375 24.9662V47.0621H121.828V39.8591L126.407 47.0621H131.146L126.344 39.6099L130.955 32.3439H126.216L121.826 39.3723" fill="#7D8387"/>
</svg>
