<svg width="144" height="72" viewBox="0 0 144 72" fill="none" xmlns="http://www.w3.org/2000/svg">
<path d="M34.0751 34.5239C32.92 33.8822 32.4067 33.3688 32.4067 32.7271C32.4067 31.8287 33.1767 31.3153 34.4602 31.3153C35.872 31.3153 37.1554 31.957 37.1554 31.957L38.1822 28.8767C38.1822 28.8767 37.2838 28.1067 34.5885 28.1067C30.7382 28.1067 28.1713 30.2885 28.1713 33.3688C28.1713 35.1656 29.4547 36.4491 30.9949 37.3475C32.2783 38.1176 32.7917 38.631 32.7917 39.401C32.7917 40.1711 32.15 40.9412 30.8665 40.9412C29.0697 40.9412 27.2729 40.0427 27.2729 40.0427L26.2461 43.123C26.2461 43.123 27.7862 44.1498 30.4815 44.1498C34.3318 44.1498 37.1554 42.2246 37.1554 38.7593C37.1554 36.8341 35.7436 35.4223 34.0751 34.5239ZM49.6049 27.9783C47.6797 27.9783 46.1396 28.8767 44.9845 30.2885L46.653 21.5611H42.2892L38.0538 43.7648H42.4176L43.8294 36.1924C44.3427 33.3688 45.8829 31.572 47.2947 31.572C48.3214 31.572 48.7065 32.2137 48.7065 33.2405C48.7065 33.8822 48.7065 34.5239 48.5781 35.1656L46.9096 43.8931H51.2734L52.9419 34.9089C53.0702 34.0105 53.1986 32.8554 53.1986 32.0854C53.1986 29.5185 51.9151 27.9783 49.6049 27.9783ZM60.7709 40.6845C59.2308 40.6845 58.7174 39.401 58.7174 37.8609C58.7174 35.4223 60.0008 31.3153 62.3111 31.3153C63.8512 31.3153 64.3646 32.5987 64.3646 33.8822C64.3646 36.7058 63.0811 40.6845 60.7709 40.6845ZM62.9528 27.9783C57.6906 27.9783 54.2253 32.7271 54.2253 37.9892C54.2253 41.3262 56.2788 44.0214 60.2575 44.0214C65.3913 44.0214 68.8567 39.401 68.8567 34.0105C68.8567 30.9302 67.0598 27.9783 62.9528 27.9783ZM75.7873 40.8128C74.6322 40.8128 73.9904 40.1711 73.9904 40.1711L74.7605 36.0641C75.2739 33.3688 76.6857 31.572 78.2258 31.572C79.5093 31.572 80.0227 32.8554 80.0227 34.0105C79.8943 36.8341 78.2258 40.8128 75.7873 40.8128ZM80.0227 27.9783C77.0707 27.9783 75.4023 30.5452 75.4023 30.5452L75.6589 28.235H71.8086C71.6802 29.7751 71.2952 32.2137 70.9102 34.0105L67.8299 49.9253H72.1936L73.3487 43.5081H73.4771C73.4771 43.5081 74.3755 44.0214 76.044 44.0214C81.1778 44.0214 84.5148 38.7593 84.5148 33.4972C84.5148 30.6736 83.2313 27.9783 80.0227 27.9783ZM90.6753 21.8178C89.2635 21.8178 88.2368 22.9729 88.2368 24.3847C88.2368 25.6681 89.0068 26.5665 90.2903 26.5665C91.7021 26.5665 92.8572 25.6681 92.8572 23.9996C92.8572 22.7162 91.9588 21.8178 90.6753 21.8178ZM84.6431 43.7648H89.0068L91.9588 28.3633H87.595L84.6431 43.7648ZM102.996 28.3633H99.9162L100.045 27.5933C100.301 26.0531 101.2 24.7697 102.611 24.7697C103.381 24.7697 104.023 25.0264 104.023 25.0264L104.922 21.5611C104.922 21.5611 104.152 21.176 102.611 21.176C101.071 21.176 99.5311 21.5611 98.376 22.5878C96.8359 23.8713 96.1941 25.6681 95.8091 27.4649L95.6808 28.235H93.6272L92.9855 31.572H95.039L92.7288 43.7648H97.0926L99.4028 31.572H102.355L102.996 28.3633ZM113.392 28.3633C113.392 28.3633 110.697 35.1656 109.414 38.8876C109.285 37.7325 108.387 28.3633 108.387 28.3633H103.767L106.333 42.4813C106.333 42.738 106.333 42.9947 106.205 43.2514C105.692 44.2781 104.793 45.1765 103.895 45.8183C103.125 46.46 102.098 46.845 101.456 47.1017L102.611 50.8237C103.51 50.6954 105.307 49.9253 106.847 48.5135C108.772 46.7167 110.697 43.7648 112.494 39.9144L117.756 28.4917L113.392 28.3633Z" fill="#7D8387"/>
</svg>
