<svg width="144" height="72" viewBox="0 0 144 72" fill="none" xmlns="http://www.w3.org/2000/svg">
<path d="M38.8792 43.9447V22.458H51.5806V25.1612H41.5131V31.7631H50.5583V34.4663H41.5131V41.2069H52.2911V43.9101H38.8792V43.9447Z" fill="white"/>
<path d="M65.634 43.9444L61.2674 38.2262L56.9007 43.9444H53.8163L59.7772 36.3028L53.4871 28.4186H56.9527L61.25 34.3274L65.6167 28.4186H69.013L63.0521 36.3028L68.7011 43.9444H65.634Z" fill="white"/>
<path d="M72.946 41.6405V52.2279H70.3122V36.3728C70.3122 32.3354 73.3965 28.038 78.1964 28.038C83.0656 28.038 86.7391 31.1224 86.7391 36.1822C86.7391 41.1206 83.0136 44.5169 78.7855 44.5169C76.7408 44.5169 73.9684 43.6332 72.946 41.6405ZM83.9839 36.1822C83.9839 32.7166 81.7313 30.6719 77.7632 30.8625C75.8398 30.9318 72.894 32.3354 73.1366 37.2738C73.2059 38.8853 74.8694 41.9004 78.5256 41.9004C81.6793 41.9004 83.9839 40.0983 83.9839 36.1822Z" fill="white"/>
<path d="M88.9915 28.419H91.6254V30.0825C92.9077 28.6096 94.9004 28.0897 97.0144 28.0897V30.9142C96.6852 30.8449 93.5488 30.4637 91.6254 34.5704V43.9968H88.9915V28.419Z" fill="white"/>
<path d="M97.725 36.1822C97.725 31.6942 100.931 28.038 105.367 28.038C110.877 28.038 112.939 31.6942 112.939 36.3728V37.6551H100.619C100.809 40.6008 103.443 42.143 105.886 42.091C107.689 42.0217 108.902 41.5192 110.184 40.2369L111.917 42.039C110.305 43.5812 108.26 44.6036 105.765 44.6036C101.052 44.5169 97.725 41.0513 97.725 36.1822ZM105.159 30.6719C102.663 30.6719 100.723 32.8552 100.601 35.2291H110.167C110.167 32.9072 108.503 30.6719 105.159 30.6719Z" fill="white"/>
<path d="M114.274 41.7608L116.197 40.028C116.128 40.028 117.167 41.0503 117.289 41.1196C117.739 41.5009 118.19 41.7608 118.761 41.8821C120.425 42.3326 123.44 42.2113 123.7 39.8894C123.821 38.6071 122.868 37.8966 121.777 37.4461C120.373 36.9263 118.831 36.7357 117.41 36.0945C115.798 35.3841 114.776 34.1711 114.776 32.369C114.776 27.6905 121.447 26.9107 124.462 29.094C124.584 29.2153 126.074 30.5669 126.005 30.5669L124.081 32.1091C123.111 30.9481 122.227 30.3763 120.165 30.3763C119.143 30.3763 117.722 30.8268 117.462 31.9185C117.081 33.4607 118.813 34.0325 119.957 34.3617C121.499 34.743 123.163 35.0029 124.514 35.8346C126.368 36.9956 126.819 39.4908 126.126 41.4142C125.363 43.5282 123.041 44.36 120.997 44.4293C118.571 44.5852 116.457 43.8228 114.724 42.09C114.585 42.09 114.274 41.7608 114.274 41.7608Z" fill="white"/>
<path d="M127.807 41.7608L129.73 40.028C129.661 40.028 130.7 41.0503 130.822 41.1196C131.272 41.5009 131.723 41.7608 132.295 41.8821C133.958 42.3326 136.973 42.2113 137.233 39.8894C137.354 38.6071 136.401 37.8966 135.31 37.4461C133.906 36.9263 132.364 36.7357 130.943 36.0945C129.332 35.3841 128.309 34.1711 128.309 32.369C128.309 27.6905 134.98 26.9107 137.996 29.094C138.117 29.2153 139.607 30.5669 139.538 30.5669L137.614 32.1091C136.644 30.9481 135.76 30.3763 133.698 30.3763C132.676 30.3763 131.255 30.8268 130.995 31.9185C130.614 33.4607 132.347 34.0325 133.49 34.3617C135.032 34.743 136.696 35.0029 138.048 35.8346C139.902 36.9956 140.352 39.4908 139.659 41.4142C138.897 43.5282 136.575 44.36 134.53 44.4293C132.087 44.5506 129.973 43.7882 128.24 42.0554C128.136 42.09 127.807 41.7608 127.807 41.7608Z" fill="white"/>
<path d="M21.0315 43.9443L19.1081 38.8153H8.71127L6.78786 43.9443H4.03271L12.3675 22.4403H15.3825L23.6653 43.9443H21.0315ZM13.7884 25.5247L9.87224 36.1814H18.0164L13.7884 25.5247Z" fill="white"/>
<path d="M25.3978 22.458H28.1009V43.962H25.3978V22.458Z" fill="white"/>
<path d="M32.1389 43.9445V28.7305H34.8421V43.9445H32.1389Z" fill="white"/>
<path d="M37.4061 23.7923C37.4061 23.723 37.4061 23.723 37.4061 23.671C37.4061 23.6017 37.4061 23.6017 37.4061 23.5497C35.3613 23.4804 33.6805 21.8169 33.6286 19.7722C33.5592 19.7722 33.5073 19.7722 33.4379 19.7722C33.3686 19.7722 33.3166 19.7722 33.2473 19.7722C33.178 21.8169 31.5145 23.4977 29.4698 23.5497C29.4698 23.619 29.4698 23.619 29.4698 23.671C29.4698 23.7403 29.4698 23.7403 29.4698 23.7923C31.5145 23.8616 33.1954 25.5251 33.2473 27.5698C33.3166 27.5698 33.3686 27.5698 33.4379 27.5698C33.5073 27.5698 33.5592 27.5698 33.6286 27.5698C33.6805 25.5251 35.344 23.8616 37.4061 23.7923Z" fill="white"/>
</svg>
