<svg width="144" height="72" viewBox="0 0 144 72" fill="none" xmlns="http://www.w3.org/2000/svg">
<path fill-rule="evenodd" clip-rule="evenodd" d="M85.1227 45.6248C79.4958 49.7723 71.3398 51.9852 64.3177 51.9852C54.4715 51.9852 45.6075 48.3434 38.9014 42.2865C38.3746 41.8102 38.8466 41.1611 39.4789 41.5321C46.716 45.7428 55.6644 48.276 64.9078 48.276C71.1417 48.276 77.9994 46.9862 84.305 44.3097C85.2576 43.9051 86.0542 44.9335 85.1227 45.6248Z" fill="white"/>
<path fill-rule="evenodd" clip-rule="evenodd" d="M87.4619 42.9483C86.7454 42.0294 82.7075 42.5141 80.895 42.7291C80.3429 42.7965 80.2586 42.316 80.7559 41.9704C83.9719 39.707 89.2491 40.3603 89.8645 41.119C90.4798 41.8819 89.7043 47.1717 86.6822 49.6964C86.2185 50.0842 85.7759 49.8777 85.9825 49.3634C86.6611 47.669 88.1827 43.8713 87.4619 42.9483Z" fill="white"/>
<path fill-rule="evenodd" clip-rule="evenodd" d="M81.0215 25.9915V23.7913C81.0215 23.4583 81.2744 23.2349 81.5778 23.2349H91.4282C91.7443 23.2349 91.9972 23.4625 91.9972 23.7913V25.6754C91.993 25.9915 91.7275 26.4046 91.2554 27.0579L86.1511 34.3456C88.0478 34.2992 90.0499 34.5816 91.7696 35.551C92.1574 35.7702 92.2628 36.0906 92.2923 36.4067V38.7544C92.2923 39.0748 91.9382 39.4499 91.5673 39.256C88.5367 37.667 84.5114 37.4941 81.1605 39.2729C80.8191 39.4583 80.4609 39.0874 80.4609 38.7671V36.5373C80.4609 36.1791 80.4651 35.5679 80.8233 35.0242L86.7369 26.5437H81.5905C81.2743 26.5437 81.0215 26.3203 81.0215 25.9915Z" fill="white"/>
<path fill-rule="evenodd" clip-rule="evenodd" d="M45.089 39.7196H42.0922C41.8056 39.6986 41.578 39.4836 41.5569 39.2096V23.8292C41.5569 23.5215 41.814 23.2771 42.1344 23.2771H44.9289C45.2197 23.2897 45.4515 23.5131 45.4726 23.7913V25.8018H45.5274C46.2566 23.8587 47.6265 22.9525 49.4726 22.9525C51.3483 22.9525 52.52 23.8587 53.363 25.8018C54.088 23.8587 55.736 22.9525 57.5021 22.9525C58.7582 22.9525 60.1323 23.471 60.971 24.6343C61.9194 25.9283 61.7255 27.8082 61.7255 29.4562L61.7213 39.1633C61.7213 39.471 61.4642 39.7196 61.1438 39.7196H58.1512C57.852 39.6986 57.6117 39.4583 57.6117 39.1633V31.0115C57.6117 30.3624 57.6707 28.7439 57.5274 28.1285C57.304 27.0958 56.6338 26.805 55.7656 26.805C55.0406 26.805 54.2819 27.2897 53.9742 28.0653C53.6665 28.8408 53.696 30.139 53.696 31.0115V39.1633C53.696 39.471 53.4389 39.7196 53.1186 39.7196H50.1259C49.8225 39.6986 49.5864 39.4583 49.5864 39.1633L49.5822 31.0115C49.5822 29.296 49.8646 26.7713 47.7361 26.7713C45.5822 26.7713 45.6665 29.2328 45.6665 31.0115V39.1633C45.6665 39.471 45.4094 39.7196 45.089 39.7196Z" fill="white"/>
<path fill-rule="evenodd" clip-rule="evenodd" d="M100.478 22.9525C104.924 22.9525 107.331 26.7713 107.331 31.6269C107.331 36.3182 104.672 40.04 100.478 40.04C96.111 40.04 93.7338 36.2212 93.7338 31.4625C93.7338 26.6743 96.1405 22.9525 100.478 22.9525ZM100.503 26.0927C98.2943 26.0927 98.1553 29.1021 98.1553 30.9778C98.1553 32.8577 98.1257 36.8703 100.478 36.8703C102.8 36.8703 102.91 33.6332 102.91 31.6606C102.91 30.3624 102.855 28.8113 102.463 27.5805C102.126 26.5099 101.456 26.0927 100.503 26.0927Z" fill="white"/>
<path fill-rule="evenodd" clip-rule="evenodd" d="M113.097 39.7196H110.113C109.814 39.6986 109.574 39.4583 109.574 39.1633L109.569 23.7787C109.595 23.4962 109.843 23.2771 110.147 23.2771H112.924C113.186 23.2897 113.401 23.4667 113.46 23.707V26.0589H113.515C114.353 23.9557 115.529 22.9525 117.599 22.9525C118.943 22.9525 120.254 23.4372 121.097 24.765C121.881 25.9957 121.881 28.0653 121.881 29.5531V39.2349C121.848 39.5047 121.599 39.7196 121.304 39.7196H118.299C118.025 39.6986 117.797 39.4963 117.767 39.2349V30.8809C117.767 29.1991 117.961 26.7376 115.892 26.7376C115.163 26.7376 114.492 27.2265 114.159 27.9683C113.738 28.9083 113.683 29.844 113.683 30.8809V39.1633C113.679 39.471 113.418 39.7196 113.097 39.7196Z" fill="white"/>
<path fill-rule="evenodd" clip-rule="evenodd" d="M73.1691 32.373C73.1691 33.5405 73.1986 34.5142 72.6086 35.5511C72.1323 36.3941 71.3736 36.9125 70.5348 36.9125C69.3841 36.9125 68.7097 36.0358 68.7097 34.7418C68.7097 32.1875 70.9984 31.7239 73.1691 31.7239V32.373ZM76.1913 39.6775C75.9932 39.8545 75.7065 39.8672 75.4832 39.7492C74.4884 38.923 74.3072 38.5395 73.7635 37.7513C72.1196 39.4288 70.9521 39.9304 68.8235 39.9304C66.2987 39.9304 64.3388 38.3751 64.3388 35.2602C64.3388 32.8282 65.6539 31.1717 67.5337 30.3625C69.1607 29.6459 71.4326 29.5195 73.1691 29.3214V28.9336C73.1691 28.2212 73.2239 27.3783 72.8024 26.7629C72.44 26.2107 71.7403 25.9831 71.1207 25.9831C69.9784 25.9831 68.9626 26.569 68.7139 27.7829C68.6633 28.0527 68.4652 28.3182 68.1913 28.3308L65.2872 28.0189C65.0427 27.9641 64.7687 27.766 64.8404 27.3909C65.5063 23.8672 68.6928 22.805 71.5422 22.805C73.0005 22.805 74.9057 23.1928 76.0564 24.2971C77.5148 25.6586 77.3757 27.4752 77.3757 29.452V34.1222C77.3757 35.5258 77.9573 36.1412 78.5053 36.8999C78.695 37.1696 78.7371 37.4942 78.4926 37.6965C77.8815 38.2065 76.794 39.1549 76.1955 39.686L76.1913 39.6775Z" fill="white"/>
<path fill-rule="evenodd" clip-rule="evenodd" d="M33.8811 32.3729C33.8811 33.5404 33.9106 34.5141 33.3205 35.551C32.8442 36.394 32.0897 36.9124 31.2467 36.9124C30.096 36.9124 29.4259 36.0357 29.4259 34.7417C29.4259 32.1874 31.7146 31.7238 33.8811 31.7238V32.3729ZM36.9032 39.6774C36.7051 39.8545 36.4185 39.8671 36.1951 39.7491C35.2004 38.923 35.0233 38.5394 34.4754 37.7512C32.8315 39.4287 31.6682 39.9303 29.5354 39.9303C27.0149 39.9303 25.0507 38.375 25.0507 35.2602C25.0507 32.8281 26.37 31.1716 28.2457 30.3624C29.8726 29.6458 32.1445 29.5194 33.8811 29.3213V28.9335C33.8811 28.2212 33.9359 27.3782 33.5186 26.7628C33.1519 26.2106 32.4522 25.983 31.8368 25.983C30.6946 25.983 29.6745 26.5689 29.4259 27.7828C29.3753 28.0526 29.1772 28.3181 28.9074 28.3307L25.9991 28.0188C25.7546 27.964 25.4849 27.7659 25.5523 27.3908C26.2225 23.8671 29.4048 22.8049 32.2541 22.8049C33.7125 22.8049 35.6176 23.1927 36.7683 24.297C38.2267 25.6585 38.0876 27.4751 38.0876 29.4519V34.1221C38.0876 35.5257 38.6693 36.1411 39.2172 36.8998C39.4111 37.1695 39.4532 37.4941 39.2088 37.6964C38.5976 38.2064 37.5101 39.1548 36.9116 39.6859L36.9032 39.6774Z" fill="white"/>
</svg>
