<svg width="144" height="72" viewBox="0 0 144 72" fill="none" xmlns="http://www.w3.org/2000/svg">
<path fill-rule="evenodd" clip-rule="evenodd" d="M74.4201 48.9947H75.5571C75.7638 48.9947 75.8671 48.9947 75.8671 49.0981C75.8671 49.2015 75.9705 49.2015 75.9705 49.3048V49.4082C75.9705 49.5115 75.8671 49.6149 75.8671 49.6149C75.7638 49.6149 75.6604 49.7182 75.5571 49.7182H74.3167L73.8 53.7492C73.8 53.9559 73.8 54.0593 73.8 54.266C73.8 54.3694 73.8 54.5761 73.9033 54.6794C73.9033 54.7828 74.0067 54.8862 74.11 54.8862C74.2134 54.9895 74.3168 54.9895 74.5235 54.9895C74.7302 54.9895 74.9369 54.9895 75.0403 54.8862C75.1436 54.8862 75.247 54.7828 75.3503 54.7828C75.4537 54.7828 75.4537 54.7828 75.5571 54.6794H75.6604C75.6604 54.6794 75.6604 54.6794 75.7638 54.7828V55.0929C75.7638 55.1962 75.7638 55.2996 75.7638 55.403C75.6604 55.5063 75.6604 55.5063 75.4537 55.6097C75.3503 55.6097 75.1436 55.713 75.0403 55.713C74.8335 55.8164 74.5235 55.8164 74.2134 55.8164C73.6966 55.8164 73.2832 55.6097 73.0765 55.2996C72.8697 54.9895 72.7664 54.4727 72.8697 53.8526C73.0765 52.0955 73.2832 50.3384 73.3865 48.9947L73.5932 47.1343C73.5932 46.9276 73.6966 46.8242 73.6966 46.8242C73.8 46.7209 73.9033 46.7209 74.0067 46.7209H74.2134C74.3167 46.7209 74.4201 46.7209 74.5235 46.8242C74.5235 46.9276 74.6268 47.0309 74.5235 47.1343L74.4201 48.9947ZM77.8309 51.7854L78.141 49.2015C78.141 48.9947 78.2444 48.8914 78.2444 48.8914C78.3477 48.788 78.4511 48.788 78.5544 48.788H78.7612C78.8645 48.788 78.9679 48.788 79.0712 48.8914C79.0712 48.9947 79.1746 49.0981 79.0712 49.2015V49.3048C79.3813 49.2015 79.7947 48.9947 80.1048 48.9947C80.6216 48.8914 81.2418 48.8914 81.7586 48.9947C81.8619 48.9947 81.8619 48.9947 81.9653 49.0981C81.9653 49.0981 82.0686 49.0981 82.0686 49.2015V49.5115C82.0686 49.6149 82.0686 49.6149 81.9653 49.7182C81.9653 49.7182 81.9653 49.8216 81.8619 49.8216H81.7586C81.7586 49.8216 81.6552 49.8216 81.5518 49.8216C81.3451 49.8216 81.2418 49.8216 81.035 49.8216C80.8283 49.8216 80.6216 49.8216 80.4149 49.8216C80.2082 49.8216 80.0015 49.925 79.7947 50.0283C79.588 50.1317 79.278 50.235 79.0712 50.4418L78.5544 55.403C78.5544 55.6097 78.4511 55.713 78.4511 55.713C78.3477 55.8164 78.2444 55.8164 78.141 55.8164H77.9343C77.8309 55.8164 77.7276 55.8164 77.6242 55.713C77.5209 55.6097 77.5209 55.5063 77.5209 55.403L77.8309 51.7854ZM102.74 55.713C102.637 55.713 102.637 55.713 102.534 55.713C102.534 55.713 102.43 55.713 102.43 55.6097V55.5063C102.43 55.403 102.43 55.403 102.43 55.2996L103.36 47.1343C103.36 46.9276 103.464 46.8242 103.464 46.8242C103.567 46.7209 103.671 46.7209 103.774 46.7209H103.981C104.084 46.7209 104.187 46.7209 104.291 46.8242C104.291 46.9276 104.394 47.0309 104.291 47.1343L103.36 55.2996C103.36 55.5063 103.257 55.6097 103.257 55.6097C103.154 55.713 103.05 55.713 102.947 55.713H102.74ZM96.6421 52.819C96.6421 53.5425 96.7455 54.1627 97.1589 54.4727C97.469 54.7828 97.9858 54.9895 98.7093 54.9895C98.8127 54.9895 99.0194 54.9895 99.1227 54.9895C99.2261 54.9895 99.4328 54.8862 99.5362 54.8862C99.6395 54.8862 99.7429 54.7828 99.8463 54.7828C99.9496 54.7828 100.053 54.6794 100.053 54.6794C100.156 54.6794 100.26 54.5761 100.363 54.5761C100.466 54.5761 100.466 54.5761 100.57 54.6794L100.673 54.8862V55.0929C100.673 55.0929 100.673 55.1962 100.57 55.1962C100.57 55.1962 100.466 55.2996 100.363 55.2996C100.26 55.2996 100.156 55.403 100.053 55.403C99.9496 55.403 99.7429 55.5063 99.6395 55.5063C99.4328 55.5063 99.3295 55.6097 99.1227 55.6097C98.916 55.6097 98.7093 55.6097 98.5026 55.6097C97.469 55.6097 96.7455 55.2996 96.3321 54.6794C95.9186 54.0593 95.7119 53.2324 95.8153 51.9921C95.9186 51.4753 96.022 50.9585 96.2287 50.5451C96.4354 50.1317 96.6421 49.8216 96.9522 49.5115C97.2623 49.2015 97.5724 48.9947 97.9858 48.8914C98.3992 48.788 98.8127 48.6847 99.2261 48.6847C99.5362 48.6847 99.8462 48.788 100.156 48.8914C100.466 48.9947 100.673 49.0981 100.88 49.3048C101.087 49.5115 101.293 49.7182 101.397 50.0283C101.5 50.3384 101.5 50.5451 101.5 50.8552C101.5 51.1653 101.397 51.372 101.293 51.5787C101.19 51.7854 101.087 51.9921 100.88 52.0955C100.673 52.1988 100.466 52.4056 100.156 52.4056C99.8462 52.5089 99.5362 52.5089 99.1227 52.5089H96.6421V52.819ZM99.0194 49.7182C98.7093 49.7182 98.5026 49.7182 98.1925 49.8216C97.9858 49.925 97.7791 50.0283 97.5724 50.235C97.3656 50.4418 97.2623 50.6485 97.0556 50.9585C96.9522 51.2686 96.8489 51.5787 96.7455 51.8888H99.0194C99.2261 51.8888 99.4328 51.8888 99.6395 51.8888C99.8462 51.8888 99.9496 51.7854 100.053 51.7854C100.156 51.6821 100.26 51.6821 100.363 51.5787C100.466 51.4753 100.466 51.372 100.466 51.1653C100.466 50.9585 100.466 50.7518 100.363 50.5451C100.26 50.3384 100.156 50.235 100.053 50.1317C99.9496 50.0283 99.7429 49.925 99.5362 49.925C99.4328 49.7182 99.2261 49.7182 99.0194 49.7182ZM91.0608 55.713C90.8541 55.713 90.7507 55.713 90.6474 55.6097C90.544 55.5063 90.4407 55.5063 90.4407 55.2996C90.1306 54.4727 89.7171 53.5425 89.5104 52.5089C89.2003 51.4753 89.097 50.4418 88.9936 49.3048C88.9936 49.0981 88.9936 48.9947 88.9936 48.9947C88.9936 48.8914 89.097 48.8914 89.3037 48.8914H89.6138C89.7171 48.8914 89.7171 48.8914 89.8205 48.8914H89.9239C89.9239 48.8914 89.9239 48.9947 90.0272 48.9947C90.0272 48.9947 90.0272 49.0981 90.0272 49.2015C90.0272 49.4082 90.0272 49.6149 90.1306 49.925C90.1306 50.235 90.2339 50.5451 90.2339 50.8552C90.3373 51.1653 90.3373 51.4753 90.4407 51.8888C90.544 52.1988 90.6474 52.6123 90.6474 52.9224C90.7507 53.2324 90.8541 53.5425 90.9574 53.9559C91.0608 54.266 91.1641 54.5761 91.2675 54.7828H91.3709C91.5776 54.4727 91.8877 54.0593 92.0944 53.5425C92.3011 53.1291 92.6112 52.6123 92.8179 52.0955C93.0246 51.5787 93.2313 51.1653 93.438 50.6485C93.6447 50.1317 93.7481 49.7182 93.9548 49.3048C93.9548 49.0981 94.0582 48.9947 94.1615 48.9947C94.2649 48.8914 94.3683 48.8914 94.4716 48.8914H94.7817C94.885 48.8914 94.885 48.8914 94.9884 48.8914C94.9884 48.8914 95.0918 48.8914 95.0918 48.9947V49.0981C95.0918 49.0981 95.0918 49.2015 95.0918 49.3048C94.9884 49.8216 94.7817 50.3384 94.575 50.8552C94.3683 51.372 94.1615 51.8888 93.8515 52.4056C93.6447 52.9224 93.3347 53.4391 93.0246 53.8526C92.7145 54.3694 92.5078 54.7828 92.1977 55.1962C92.0944 55.2996 91.991 55.403 91.8877 55.5063C91.7843 55.6097 91.6809 55.6097 91.4742 55.6097H91.0608V55.713ZM83.2056 49.7182V49.5115C83.2056 49.5115 83.2056 49.4082 83.3089 49.4082C83.3089 49.4082 83.4123 49.3048 83.5156 49.3048C83.619 49.3048 83.7224 49.2015 83.8257 49.2015C83.9291 49.2015 84.1358 49.0981 84.2392 49.0981C84.4459 49.0981 84.5492 48.9947 84.7559 48.9947C84.9627 48.9947 85.1694 48.9947 85.3761 48.9947C85.6862 48.9947 86.0996 48.9947 86.3063 49.0981C86.6164 49.2015 86.8231 49.3048 87.0298 49.5115C87.2365 49.7182 87.3399 49.925 87.4433 50.1317C87.5466 50.4418 87.5466 50.7518 87.5466 51.0619L87.0298 55.2996C87.0298 55.5063 86.9265 55.6097 86.9265 55.6097C86.9265 55.713 86.8231 55.713 86.7197 55.713H86.513C86.4097 55.713 86.3063 55.713 86.3063 55.6097C86.3063 55.5063 86.203 55.403 86.203 55.2996V55.0929C86.0996 55.1962 85.9962 55.1962 85.8929 55.2996C85.7895 55.403 85.5828 55.5063 85.4794 55.5063C85.2727 55.6097 85.066 55.6097 84.8593 55.713C84.5492 55.8164 84.3425 55.8164 84.0324 55.8164C83.7224 55.8164 83.5156 55.8164 83.2056 55.713C82.9988 55.6097 82.7921 55.5063 82.5854 55.403C82.3787 55.1962 82.2753 54.9895 82.172 54.7828C82.0686 54.4727 82.0686 54.1627 82.172 53.8526C82.172 53.5425 82.2753 53.2324 82.3787 53.0257C82.4821 52.819 82.6888 52.6123 82.8955 52.4056C83.1022 52.1988 83.4123 52.0955 83.619 51.9921C83.9291 51.8888 84.2391 51.7854 84.5492 51.7854L86.3063 51.6821L86.4097 51.0619C86.4097 50.8552 86.4097 50.7518 86.4097 50.5451C86.4097 50.4418 86.3063 50.235 86.203 50.1317C86.0996 50.0283 85.9962 49.925 85.7895 49.8216C85.5828 49.7182 85.3761 49.7182 84.9627 49.7182C84.7559 49.7182 84.6526 49.7182 84.5492 49.7182C84.4459 49.7182 84.2391 49.8216 84.1358 49.8216C84.0324 49.8216 83.9291 49.925 83.8257 49.925C83.7224 49.925 83.619 50.0283 83.619 50.0283C83.5156 50.0283 83.5156 50.0283 83.4123 50.1317H83.2056L83.1022 50.0283L83.2056 49.7182ZM86.4097 52.4056L84.7559 52.5089C84.5492 52.5089 84.4459 52.5089 84.2392 52.6123C84.0324 52.6123 83.9291 52.7156 83.7224 52.819C83.619 52.9224 83.4123 53.0257 83.3089 53.2324C83.2056 53.4391 83.1022 53.5425 83.1022 53.8526C83.1022 54.0593 83.1022 54.266 83.1022 54.4727C83.2056 54.6794 83.2056 54.7828 83.3089 54.8862C83.4123 54.9895 83.5156 55.0929 83.7224 55.0929C83.9291 55.0929 84.0324 55.1962 84.2392 55.1962C84.4459 55.1962 84.6526 55.1962 84.8593 55.0929C85.066 55.0929 85.1694 54.9895 85.3761 54.9895C85.5828 54.8862 85.6862 54.8862 85.7895 54.7828C85.8929 54.6794 85.9962 54.6794 86.0996 54.5761L86.4097 52.4056Z" fill="white"/>
<path fill-rule="evenodd" clip-rule="evenodd" d="M82.999 31.8372L82.0688 40.416H85.7897C87.1333 40.416 88.477 40.1059 89.6139 39.279C90.6475 38.4522 91.0609 37.3152 91.2676 35.9716C91.6811 32.5607 88.8904 31.8372 85.9964 31.8372H82.999ZM84.0326 22.535L83.2057 30.3902H85.9964C87.34 30.3902 88.5803 30.0801 89.7173 29.2533C90.7508 28.4264 91.2676 27.3928 91.371 26.1525C91.6811 23.4652 89.924 22.535 87.4434 22.535H84.0326ZM89.0971 30.907C90.2341 31.1137 91.2676 31.5272 92.0945 32.4574C92.9214 33.491 93.1281 34.7313 93.0247 35.9716C92.818 37.7287 92.0945 39.1757 90.8542 40.3126C89.5105 41.5529 87.8568 41.9663 86.0997 41.9663H80.415L82.5855 21.8115C82.6889 21.2947 82.999 20.9846 83.5158 20.9846H88.0635C89.5106 20.9846 90.8542 21.2947 91.8878 22.3283C92.818 23.2585 93.1281 24.6022 93.0247 25.9458C92.9214 27.1861 92.5079 28.2197 91.6811 29.1499C90.9576 29.9768 90.1307 30.5969 89.0971 30.907ZM103.877 42.0697L104.084 39.8992C103.981 40.0025 103.981 40.1059 103.877 40.3126C102.844 41.7596 101.19 42.3798 99.2262 42.3798C95.7121 42.3798 94.1617 40.1059 94.6785 35.6615L95.6087 26.876C96.0221 26.566 96.7456 26.566 97.2624 26.876L96.3322 35.3514C96.1255 37.3152 96.0221 38.5555 96.6423 39.4858C97.1591 40.416 98.1926 40.8294 99.5363 40.8294C102.637 40.8294 104.187 38.4522 104.497 35.5581L105.428 26.876C105.945 26.6693 106.565 26.6693 107.081 26.876L105.428 42.0697C104.911 42.2764 104.394 42.2764 103.877 42.0697ZM112.766 45.0671L122.172 26.876C121.655 26.6693 120.828 26.6693 120.311 26.876L114.42 38.4522L114.006 39.4858H113.903C113.903 39.3824 113.8 39.1757 113.8 38.969C113.8 38.8656 113.696 38.6589 113.696 38.3488L110.389 26.876C109.872 26.6693 109.149 26.6693 108.735 26.876L112.766 41.4496L110.802 45.0671C109.975 46.6175 108.839 47.9611 106.978 47.2376C106.565 47.7544 106.461 48.2712 106.875 48.8914C107.185 48.9947 107.598 49.0981 108.012 49.0981C109.045 49.0981 109.975 48.788 110.699 48.1678C111.319 47.4443 112.043 46.4108 112.766 45.0671Z" fill="white"/>
<path fill-rule="evenodd" clip-rule="evenodd" d="M35.3507 41.7596H27.0821C26.2552 41.7596 25.7384 41.2428 25.8418 40.416L27.9089 22.535C28.0123 21.6047 28.5291 21.088 29.4593 21.088H36.281C40.0019 21.088 41.6556 22.845 41.1388 26.5659C40.9321 28.6331 39.7951 30.0801 37.9347 30.5969C40.622 30.8036 41.759 32.8708 41.4489 35.5581C41.1388 38.5555 39.3817 41.7596 35.3507 41.7596ZM37.0045 26.6693C37.0045 26.2559 37.0045 25.8424 36.9011 25.5324C36.7978 25.2223 36.6944 24.9122 36.3843 24.7055C36.1776 24.4988 35.8675 24.2921 35.4541 24.1887C35.0407 24.0853 34.5239 23.982 33.9037 23.982H31.7332L31.2164 29.5633H33.5937C34.2138 29.5633 34.7306 29.46 35.0407 29.3566C35.4541 29.2533 35.7642 29.0465 36.0743 28.7365C36.3843 28.4264 36.591 28.2197 36.6944 27.8062C36.9011 27.3928 37.0045 27.0827 37.0045 26.6693ZM37.3146 35.7648C37.4179 35.248 37.3145 34.7312 37.2112 34.3178C37.1078 33.9044 36.9011 33.4909 36.591 33.1809C36.281 32.8708 35.8675 32.6641 35.4541 32.4574C34.9373 32.2506 34.3172 32.2506 33.4903 32.2506H30.9063L30.1828 39.0723H33.3869C34.0071 39.0723 34.5239 38.9689 34.9373 38.8656C35.3507 38.7622 35.7642 38.5555 36.0743 38.2454C36.3843 37.9354 36.6944 37.6253 36.9011 37.2118C37.1078 36.6951 37.3146 36.2816 37.3146 35.7648ZM56.8493 33.4909C56.7459 34.1111 56.0224 34.938 55.2989 34.938H47.0302C46.7202 37.3152 47.4437 38.9689 50.131 39.0723C50.8545 39.0723 51.3713 38.9689 52.0948 38.7622C53.4384 38.3488 54.9888 36.7984 54.9888 38.3488C54.9888 38.8656 54.8855 39.7958 54.6787 40.3126C54.3687 41.5529 50.6478 42.0697 49.6142 42.0697C47.6504 42.0697 45.5832 41.5529 44.2396 40.0025C43.7228 39.279 43.3093 38.4521 43.1026 37.4186C42.8959 36.385 42.8959 35.1447 43.1026 33.801C43.206 32.4574 43.516 31.3204 44.0328 30.1835C44.4463 29.1499 45.0664 28.2197 45.6866 27.4962C47.0302 26.0492 48.994 25.2223 50.8545 25.2223C52.8183 25.2223 54.7821 25.7391 55.919 27.2894C56.3325 27.9096 56.6425 28.7365 56.8493 29.5633C57.056 30.907 57.056 32.2506 56.8493 33.4909ZM52.9217 32.2506C53.2317 30.2868 52.9217 28.1163 50.5444 28.1163C49.0974 28.1163 48.1672 29.46 47.7537 30.5969C47.547 31.1137 47.4437 31.6305 47.3403 32.2506H52.9217ZM68.8388 37.4186C68.4254 41.0361 65.0146 42.173 61.9138 42.173C61.397 42.173 60.8802 42.173 60.4668 42.0697C59.95 41.9663 59.5366 41.863 59.2265 41.7596C58.8131 41.6563 58.6064 41.4495 58.2963 41.3462C58.0896 41.2428 57.8829 41.0361 57.7795 40.9327C57.6761 40.8294 57.5728 40.6227 57.5728 40.416C57.5728 40.2092 57.5728 39.7958 57.5728 39.279C57.5728 38.9689 57.6761 38.6589 57.6761 38.4521C57.6761 38.2454 57.7795 38.1421 57.7795 37.9354C57.8829 37.832 57.8829 37.7286 57.9862 37.7286C58.0896 37.7286 58.0896 37.6253 58.1929 37.6253C58.2963 37.6253 58.503 37.7286 58.7097 37.832C58.9164 37.9354 59.2265 38.1421 59.5366 38.2454C59.8467 38.4521 60.2601 38.5555 60.6735 38.7622C61.087 38.8656 61.6037 38.9689 62.1205 38.9689C62.4306 38.9689 62.844 38.9689 63.0508 38.8656C63.3608 38.7622 63.5676 38.6589 63.7743 38.5555C63.981 38.4521 64.1877 38.2454 64.2911 38.0387C64.3944 37.832 64.4978 37.5219 64.4978 37.3152C64.4978 37.0051 64.4978 36.6951 64.2911 36.4883C64.0843 36.2816 63.8776 36.0749 63.5676 35.8682C63.2575 35.6615 62.9474 35.5581 62.534 35.3514C62.1205 35.248 61.7071 35.0413 61.397 34.8346C59.5366 33.9044 58.2963 32.4574 58.6064 30.0801C58.9164 27.1861 61.5004 25.429 64.8079 25.429C65.8414 25.429 66.7717 25.6357 67.7019 26.1525C67.9086 26.2559 68.1153 26.3592 68.2187 26.4626C68.322 26.5659 68.322 26.6693 68.4254 26.6693C68.4254 26.7727 68.5287 26.876 68.5287 26.9794C68.5287 27.0827 68.5287 27.2895 68.5287 27.3928C68.5287 27.5995 68.5287 27.8062 68.5287 28.013C68.5287 28.323 68.4254 28.5297 68.4254 28.7365C68.4254 28.9432 68.322 29.0465 68.322 29.1499C68.322 29.2533 68.2187 29.3566 68.1153 29.3566C68.012 29.3566 68.012 29.46 67.9086 29.46C67.8052 29.46 67.7019 29.3566 67.4952 29.2533C66.5649 28.6331 65.6347 28.2197 64.4978 28.323C63.6709 28.4264 62.9474 28.8398 62.844 29.8734C62.6373 31.4238 64.7045 31.9406 65.7381 32.354C68.1153 33.5943 69.0455 35.0413 68.8388 37.4186ZM70.3892 38.9689C71.5261 28.8398 71.5261 28.5298 72.353 21.9148C72.4564 20.9846 76.4873 20.8812 76.384 21.9148L75.9706 25.3256H78.0377C79.0713 25.3256 78.6579 28.013 77.7276 28.013H75.6605L74.5235 38.2454C74.4202 39.1757 74.937 38.9689 75.6605 38.8656C77.0041 38.6589 77.2108 38.4521 77.3142 39.3824C77.3142 39.6924 77.2108 40.5193 77.0041 40.8294C76.384 42.6898 69.8724 43.1033 70.3892 38.9689Z" fill="white"/>
</svg>
