<svg width="144" height="72" viewBox="0 0 144 72" fill="none" xmlns="http://www.w3.org/2000/svg">
<path d="M37.3439 26.3256C35.4004 25.4163 33.3223 24.7554 31.1497 24.3792C30.8829 24.8616 30.5712 25.5104 30.3562 26.0265C28.0467 25.6792 25.7584 25.6792 23.4914 26.0265C23.2765 25.5104 22.9577 24.8616 22.6885 24.3792C20.5135 24.7554 18.433 25.4187 16.4895 26.3304C12.5694 32.2542 11.5067 38.0309 12.0381 43.7255C14.6381 45.6671 17.1578 46.8466 19.635 47.6184C20.2467 46.7766 20.7922 45.8818 21.2621 44.9387C20.3671 44.5986 19.5099 44.179 18.6999 43.6917C18.9148 43.5326 19.125 43.3661 19.328 43.1949C24.2683 45.5055 29.636 45.5055 34.5172 43.1949C34.7227 43.3661 34.9328 43.5326 35.1454 43.6917C34.333 44.1814 33.4734 44.601 32.5784 44.9412C33.0484 45.8818 33.5915 46.7791 34.2055 47.6208C36.6851 46.849 39.2072 45.6696 41.8072 43.7255C42.4306 37.124 40.7422 31.4004 37.3439 26.3256ZM21.9351 40.2234C20.4521 40.2234 19.2359 38.8389 19.2359 37.1529C19.2359 35.467 20.4262 34.0801 21.9351 34.0801C23.4442 34.0801 24.6603 35.4645 24.6343 37.1529C24.6367 38.8389 23.4442 40.2234 21.9351 40.2234ZM31.9101 40.2234C30.4271 40.2234 29.2109 38.8389 29.2109 37.1529C29.2109 35.467 30.4011 34.0801 31.9101 34.0801C33.4191 34.0801 34.6353 35.4645 34.6093 37.1529C34.6093 38.8389 33.4191 40.2234 31.9101 40.2234Z" fill="white"/>
<path d="M52.2566 30.3083H58.7033C60.2574 30.3083 61.5703 30.5567 62.6474 31.0512C63.7216 31.5456 64.527 32.2354 65.0608 33.1182C65.5942 34.001 65.8634 35.0116 65.8634 36.1501C65.8634 37.2644 65.5848 38.275 65.0275 39.1795C64.4702 40.0864 63.6224 40.8027 62.4819 41.331C61.3415 41.8592 59.929 42.1245 58.2407 42.1245H52.2566V30.3083ZM58.1744 39.1216C59.2207 39.1216 60.0261 38.8539 60.5879 38.3208C61.1501 37.7854 61.4312 37.057 61.4312 36.1332C61.4312 35.2769 61.1806 34.5943 60.6801 34.083C60.1796 33.5716 59.4215 33.3136 58.4082 33.3136H56.3915V39.1216H58.1744Z" fill="white"/>
<path d="M75.5152 42.1101C74.6225 41.8737 73.817 41.5312 73.1017 41.0802V38.2775C73.6425 38.7044 74.3673 39.0565 75.2765 39.3339C76.1856 39.6089 77.0643 39.7463 77.9142 39.7463C78.311 39.7463 78.611 39.6933 78.8139 39.5871C79.0172 39.481 79.1189 39.3532 79.1189 39.2061C79.1189 39.0372 79.0646 38.8973 78.9534 38.784C78.8423 38.6706 78.6275 38.5765 78.3089 38.4969L76.3251 38.0411C75.1892 37.771 74.3838 37.3971 73.9047 36.9171C73.4252 36.4395 73.1865 35.8124 73.1865 35.0358C73.1865 34.3821 73.3943 33.8153 73.815 33.3305C74.2327 32.8457 74.8278 32.4719 75.5999 32.2089C76.3725 31.9436 77.2742 31.811 78.311 31.811C79.2366 31.811 80.0844 31.9123 80.8569 32.1149C81.6291 32.3175 82.2666 32.5756 82.7745 32.8915V35.5423C82.2546 35.2263 81.6595 34.9779 80.9796 34.7897C80.3017 34.604 79.6054 34.5124 78.8872 34.5124C77.8504 34.5124 77.3335 34.6933 77.3335 35.0527C77.3335 35.2215 77.4137 35.3469 77.5743 35.4313C77.7348 35.5158 78.0299 35.6026 78.4575 35.6943L80.1104 35.9982C81.1899 36.1887 81.9949 36.524 82.5238 37.0015C83.0531 37.4791 83.3173 38.1858 83.3173 39.1217C83.3173 40.1467 82.8806 40.9596 82.0044 41.5626C81.1282 42.1655 79.886 42.467 78.2756 42.467C77.3285 42.4646 76.4079 42.3464 75.5152 42.1101Z" fill="white"/>
<path d="M87.219 41.7554C86.2723 41.2826 85.5566 40.641 85.0796 39.8306C84.6026 39.0202 84.3618 38.1085 84.3618 37.0954C84.3618 36.0824 84.6096 35.1755 85.1055 34.3772C85.6015 33.5788 86.3287 32.9517 87.2877 32.4958C88.2462 32.04 89.3916 31.8133 90.726 31.8133C92.3788 31.8133 93.751 32.1678 94.8421 32.8769V35.9667C94.4573 35.6965 94.0082 35.477 93.4958 35.3082C92.9834 35.1394 92.4356 35.0549 91.85 35.0549C90.8251 35.0549 90.0246 35.2455 89.446 35.629C88.8673 36.0125 88.5771 36.5118 88.5771 37.1316C88.5771 37.7394 88.8578 38.2363 89.42 38.6271C89.9822 39.0154 90.7967 39.2108 91.8664 39.2108C92.4167 39.2108 92.96 39.1287 93.4958 38.9671C94.0296 38.8031 94.4902 38.6029 94.875 38.3665V41.355C93.6638 42.0978 92.2586 42.4693 90.6597 42.4693C89.3139 42.4645 88.166 42.2281 87.219 41.7554Z" fill="white"/>
<path d="M98.9652 41.7555C98.0112 41.2827 97.284 40.6363 96.7831 39.8138C96.2826 38.9914 96.0299 38.0748 96.0299 37.0618C96.0299 36.0488 96.2801 35.1443 96.7831 34.3508C97.286 33.5572 98.0087 32.9349 98.9582 32.4839C99.9049 32.0328 101.036 31.8085 102.347 31.8085C103.658 31.8085 104.789 32.0328 105.736 32.4839C106.683 32.9349 107.405 33.5524 107.901 34.3411C108.397 35.1298 108.645 36.0343 108.645 37.0594C108.645 38.0724 108.397 38.989 107.901 39.8114C107.405 40.6339 106.68 41.2803 105.726 41.7531C104.772 42.2258 103.646 42.4622 102.345 42.4622C101.043 42.4622 99.9168 42.2282 98.9652 41.7555ZM103.988 38.7598C104.39 38.3498 104.593 37.8071 104.593 37.1318C104.593 36.4564 104.392 35.9185 103.988 35.5205C103.587 35.1202 103.039 34.92 102.345 34.92C101.638 34.92 101.086 35.1202 100.682 35.5205C100.281 35.921 100.08 36.4564 100.08 37.1318C100.08 37.8071 100.281 38.3498 100.682 38.7598C101.084 39.1699 101.638 39.3773 102.345 39.3773C103.039 39.3749 103.587 39.1699 103.988 38.7598Z" fill="white"/>
<path d="M118.577 32.4356V36.0825C118.157 35.8003 117.614 35.6604 116.941 35.6604C116.06 35.6604 115.38 35.933 114.907 36.4781C114.433 37.0232 114.197 37.8722 114.197 39.0203V42.1269H110.147V32.2499H114.114V35.3903C114.334 34.2422 114.691 33.3956 115.182 32.8481C115.671 32.303 116.303 32.0304 117.073 32.0304C117.656 32.0304 118.157 32.1655 118.577 32.4356Z" fill="white"/>
<path d="M132.033 29.9706V42.1269H127.983V39.9152C127.641 40.7473 127.121 41.3816 126.422 41.8158C125.723 42.2476 124.859 42.4646 123.834 42.4646C122.918 42.4646 122.12 42.2379 121.437 41.782C120.755 41.3262 120.228 40.7015 119.857 39.9079C119.489 39.1144 119.302 38.2172 119.302 37.2138C119.291 36.1791 119.487 35.2504 119.89 34.4279C120.292 33.6055 120.861 32.9639 121.593 32.5032C122.325 32.0425 123.161 31.811 124.099 31.811C126.028 31.811 127.322 32.6672 127.983 34.3773V29.9706H132.033ZM127.379 38.6923C127.792 38.2823 127.997 37.7492 127.997 37.098C127.997 36.4685 127.797 35.9547 127.395 35.5616C126.994 35.1684 126.443 34.9706 125.752 34.9706C125.069 34.9706 124.524 35.1708 124.115 35.5712C123.706 35.9716 123.504 36.4902 123.504 37.1318C123.504 37.7734 123.706 38.2968 124.115 38.7019C124.524 39.1071 125.062 39.3098 125.735 39.3098C126.417 39.3074 126.965 39.1023 127.379 38.6923Z" fill="white"/>
<path d="M69.2762 33.3014C70.3911 33.3014 71.2954 32.4721 71.2954 31.4491C71.2954 30.426 70.3911 29.5967 69.2762 29.5967C68.1608 29.5967 67.257 30.426 67.257 31.4491C67.257 32.4721 68.1608 33.3014 69.2762 33.3014Z" fill="white"/>
<path d="M67.2553 34.5774C68.4925 35.1225 70.0277 35.1466 71.2932 34.5774V42.1799H67.2553V34.5774Z" fill="white"/>
</svg>
