<svg width="144" height="72" viewBox="0 0 144 72" fill="none" xmlns="http://www.w3.org/2000/svg">
<path d="M44.6805 27.3308C39.4823 27.3308 35.1506 29.628 35.1506 36.5586C35.1506 42.0492 38.0633 45.5069 44.8147 45.5069C52.7613 45.5069 53.2707 40.0541 53.2707 40.0541H49.4202C49.4202 40.0541 48.5946 42.9902 44.5798 42.9902C43.8558 43.0406 43.1296 42.9346 42.4467 42.6791C41.7638 42.4235 41.1389 42.0239 40.6111 41.5051C40.0834 40.9863 39.6642 40.3596 39.3797 39.6643C39.0952 38.9689 38.9517 38.2199 38.958 37.464H53.6735V35.4401C53.6735 32.2494 51.7289 27.3308 44.6805 27.3308ZM44.5463 29.9174C47.659 29.9174 49.781 31.9037 49.781 34.8808H39.0431C39.0431 31.7203 41.8129 29.9174 44.5463 29.9174Z" fill="white"/>
<path d="M53.671 20.6198V42.0265C53.671 43.2416 53.5878 44.9478 53.5878 44.9478H57.2604C57.2604 44.9478 57.3922 43.7224 57.3922 42.6025C57.3922 42.6025 59.2067 45.5595 64.1405 45.5595C65.3052 45.6174 66.4687 45.4202 67.5558 44.9806C68.6428 44.541 69.6293 43.8688 70.4515 43.0075C71.2736 42.1461 71.9132 41.1147 72.329 39.9798C72.7447 38.8449 72.9273 37.6319 72.865 36.4189C72.9199 35.2135 72.7317 34.0094 72.3125 32.8843C71.8933 31.7593 71.2525 30.7382 70.4313 29.8869C69.6101 29.0356 68.6268 28.373 67.5447 27.9418C66.4626 27.5106 65.3058 27.3203 64.1489 27.3833C59.0223 27.3833 57.4293 30.267 57.4293 30.267V20.6198H53.671ZM63.2009 30.0311C66.729 30.0311 68.9725 32.7587 68.9725 36.419C68.9725 40.344 66.3814 42.9117 63.2261 42.9117C59.4605 42.9117 57.4293 39.8491 57.4293 36.4539C57.4293 33.2903 59.252 30.0311 63.2009 30.0311Z" fill="white"/>
<path d="M81.9921 27.3308C74.1717 27.3308 73.6702 31.7912 73.6702 32.504H77.5627C77.5627 32.504 77.7668 29.8999 81.7236 29.8999C84.2948 29.8999 86.2872 31.1258 86.2872 33.4827V34.3216H81.7236C75.6651 34.3216 72.4622 36.1677 72.4622 39.9142C72.4622 43.6013 75.4216 45.6074 79.4208 45.6074C84.8712 45.6074 86.627 42.4702 86.627 42.4702C86.627 43.718 86.7192 44.9476 86.7192 44.9476H90.1797C90.1797 44.9476 90.0455 43.4235 90.0455 42.4484V34.0202C90.0455 28.4938 85.7662 27.3308 81.9921 27.3308ZM86.2872 36.8383V37.9568C86.2872 39.4157 85.423 43.0426 80.3353 43.0426C77.5492 43.0426 76.3547 41.5942 76.3547 39.9142C76.3547 36.858 80.3774 36.8383 86.2872 36.8383Z" fill="white"/>
<path d="M87.9491 28.0309H92.3282L98.6127 41.1462L104.883 28.0309H108.85L97.4286 51.3802H93.2677L96.5634 44.8713L87.9491 28.0309Z" fill="white"/>
</svg>
