<svg width="144" height="72" viewBox="0 0 144 72" fill="none" xmlns="http://www.w3.org/2000/svg">
<path d="M45.6931 23.7686V32.7862C45.6931 32.7862 48.872 32.7862 50.5587 32.6565C51.9211 32.397 52.1157 32.2672 52.3752 30.9697L52.8942 29.0235H54.3215L54.062 33.2403L54.1917 37.6518H52.7645L52.3752 35.9651C51.986 34.7324 51.5319 34.4729 50.5587 34.4081C49.3261 34.2783 45.6931 34.2783 45.6931 34.2783V41.8687C45.6931 43.2959 46.4067 43.9447 48.1584 43.9447H53.2835C54.8405 43.9447 56.4624 43.8149 57.4355 41.4794L58.733 38.5601H59.9656C59.8358 39.1439 59.252 44.5286 59.1222 45.7612C59.1222 45.7612 54.5161 45.6314 52.5699 45.6314H38.492V44.3339L40.1788 43.9447C41.4114 43.6852 41.8006 43.3608 41.8006 42.3877C41.8006 42.3877 41.9304 39.0791 41.9304 33.6296C41.9304 28.1801 41.8006 24.8715 41.8006 24.8715C41.8006 23.7686 41.4114 23.5091 40.1788 23.3145L38.492 22.8603V21.5628L43.6171 21.6926H53.3484C55.2946 21.6277 58.6032 21.3033 58.6032 21.3033C58.6032 21.3033 58.4735 23.3793 58.3437 28.245H56.9814L56.4624 26.5582C56.0082 24.3525 55.2946 23.2496 53.9322 23.2496H46.277C45.6931 23.2496 45.6931 23.3793 45.6931 23.7686ZM65.4151 24.6768H66.9072V29.802L71.9026 29.5425L71.6431 31.878L66.7775 31.4887V40.5063C66.7775 43.0364 67.6208 44.0744 69.113 44.0744C70.4105 44.0744 71.4485 43.3608 71.7728 42.7121L72.4865 43.5554C71.7728 45.2422 69.6968 46.0856 67.7506 46.0856C65.3502 46.0856 63.3391 44.6583 63.3391 41.8038V31.6185H60.4197V30.3858C62.885 30.1912 64.7015 28.6991 65.4151 24.6768ZM75.9248 40.4414L76.8979 42.7769C77.2872 43.7501 78.1306 44.7232 80.0768 44.7232C82.1528 44.7232 82.9962 43.6203 82.9962 42.2579C82.9962 38.1059 74.822 39.3386 74.822 33.6945C74.822 30.5156 77.3521 29.0235 80.6607 29.0235C82.1528 29.0235 84.2937 29.283 85.3966 29.7371C85.1371 30.9697 85.0073 32.5267 85.0073 33.7593L83.7747 33.8891L82.9313 31.4238C82.6718 30.84 81.6987 30.321 80.4661 30.321C78.9739 30.321 77.5467 30.9048 77.5467 32.5267C77.5467 36.2894 85.9804 35.4461 85.9804 41.0902C85.9804 44.2691 83.1908 45.9558 79.7524 45.9558C77.2223 45.9558 74.6273 44.9827 74.6273 44.9827C74.8868 43.5554 74.7571 41.9336 74.6273 40.3766C74.6922 40.4414 75.9248 40.4414 75.9248 40.4414ZM85.3966 52.1189C85.7858 50.7565 85.9804 49.0698 86.2399 47.5128L87.6023 47.3831L88.1213 49.9132C88.2511 50.497 88.5754 51.016 89.5486 51.016C91.1056 51.016 93.1816 50.0429 95.1927 46.6046C94.3493 44.5286 91.7543 37.8464 89.4188 32.7213C88.8349 31.359 88.7052 31.2292 87.8618 31.0346L87.2131 30.7751V29.5425L90.9109 29.6722L95.3873 29.4127V30.6453L94.2844 30.9048C93.4411 31.0346 93.0518 31.4887 93.0518 32.0077C93.0518 32.1375 93.0518 32.2672 93.1816 32.5267C93.4411 33.2403 95.3873 38.7547 96.8145 42.3877C98.0472 39.8576 100.318 34.0837 100.707 33.1106C100.837 32.5916 100.967 32.5267 100.967 32.1375C100.967 31.4887 100.577 31.1643 99.7339 30.9048L98.8905 30.6453V29.4127L102.329 29.5425L105.508 29.4127V30.6453L104.924 31.0995C103.691 31.6185 103.562 31.6833 103.107 32.7213L97.7228 45.3071C94.5439 52.5082 91.2353 53.092 88.9647 53.092C87.4726 53.092 86.3697 52.7028 85.3966 52.1189Z" fill="white"/>
</svg>
