<svg width="144" height="72" viewBox="0 0 144 72" fill="none" xmlns="http://www.w3.org/2000/svg">
<path d="M22.1221 28.1358C20.7225 28.1358 20.3254 28.7564 20.3254 30.1234V32.3824H24.0469L23.6812 36.0386H20.3254V47.1239H15.8727V36.0386H12.8533V32.3824H15.8575V30.1875C15.8575 26.4986 17.3363 24.5587 21.4863 24.5587C22.3528 24.5561 23.2186 24.6094 24.0783 24.7182V28.1532M24.3345 40.2073C24.3345 44.3259 26.2907 47.4103 30.3615 47.4103C31.242 47.4703 32.12 47.2606 32.8784 46.8092C33.6368 46.3578 34.2398 45.6861 34.6069 44.8836V47.11H38.885V32.38H34.6069V34.639C34.2418 33.8314 33.6409 33.1532 32.8832 32.6935C32.1255 32.2338 31.2464 32.0141 30.3615 32.0634C26.286 32.0634 24.3345 35.1642 24.3345 39.2664M28.8034 39.2023C28.8034 37.0074 29.6139 35.5461 31.6819 35.5461C33.51 35.5461 34.4334 36.8817 34.4334 38.9811V40.46C34.4334 42.5594 33.5112 43.895 31.6819 43.895C29.6151 43.895 28.8034 42.4477 28.8034 40.2388V39.2023ZM48.1724 32.0621C42.9535 32.0645 40.5664 34.8777 40.5664 39.3944V40.078C40.5664 44.5936 42.9511 47.4091 48.184 47.4091C49.6734 47.4783 51.1533 47.1371 52.4621 46.4229L51.4758 43.258C50.5455 43.6979 49.5309 43.9311 48.5019 43.9415C46.0846 43.9415 45.0354 42.5419 45.0354 40.1723V39.3142C45.0354 36.9294 46.0834 35.545 48.5019 35.545C49.5316 35.5496 50.5474 35.7831 51.4758 36.2285L52.4621 33.0636C51.1571 32.3381 49.6754 31.9913 48.184 32.0622M53.0338 40.2993C53.0338 44.6251 55.1332 47.4395 60.762 47.4395C62.7241 47.474 64.6724 47.1054 66.4863 46.3566L65.6759 43.2872C64.1675 43.8839 62.5588 44.1863 60.9367 44.178C58.4565 44.178 57.5657 43.2872 57.4702 41.267H66.8519V38.9147C66.8519 34.8392 64.8491 32.0447 60.2683 32.0447C55.401 32.0447 53.0326 34.7962 53.0326 38.9776V40.3085M57.4854 38.3849C57.4854 36.3972 58.2655 35.1408 60.28 35.1408C62.2362 35.1408 62.872 36.4135 62.872 38.0193V38.3849L57.4854 38.3849ZM83.3901 39.2757C83.3901 35.1571 81.4025 32.0727 77.3317 32.0727C76.4881 32.0308 75.65 32.2298 74.9152 32.6462C74.1804 33.0627 73.5792 33.6796 73.1817 34.4248V24.5819L68.729 24.9779V47.1017H72.9441V44.8754C73.3429 45.6856 73.9726 46.3595 74.7538 46.8123C75.535 47.2651 76.4328 47.4764 77.334 47.4197C81.4095 47.4197 83.3924 44.3189 83.3924 40.2167M78.9397 40.2807C78.9397 42.3476 78.1293 43.9067 75.9984 43.9067C74.1703 43.9067 73.184 42.6025 73.184 40.5031V38.9604C73.184 36.861 74.1703 35.5568 75.9984 35.5568C78.1293 35.5568 78.9397 37.0997 78.9397 39.1828V40.2807ZM84.8875 40.106C84.8875 44.3515 87.3048 47.4046 92.2187 47.4046C97.1326 47.4046 99.5498 44.3352 99.5498 40.106V39.3585C99.5498 35.113 97.1325 32.0599 92.2187 32.0599C87.3049 32.0599 84.8875 35.1293 84.8875 39.3585V40.106ZM95.0971 40.4088C95.0971 42.365 94.2866 43.9067 92.2186 43.9067C90.1506 43.9067 89.3403 42.3638 89.3403 40.4088V39.0417C89.3403 37.0855 90.1507 35.5438 92.2187 35.5438C94.2868 35.5438 95.0972 37.0866 95.0972 39.0417L95.0971 40.4088ZM101.029 40.106C101.029 44.3515 103.446 47.4046 108.36 47.4046C113.274 47.4046 115.691 44.3352 115.691 40.106V39.3585C115.691 35.113 113.274 32.0599 108.36 32.0599C103.446 32.0599 101.029 35.1293 101.029 39.3585V40.106ZM111.252 40.4088C111.252 42.365 110.442 43.9067 108.374 43.9067C106.306 43.9067 105.494 42.3929 105.494 40.4134V39.0463C105.494 37.0901 106.305 35.5484 108.373 35.5484C110.441 35.5484 111.251 37.0913 111.251 39.0463L111.252 40.4088ZM121.827 24.5703L117.375 24.9662V47.0621H121.827V39.8591L126.407 47.0621H131.146L126.344 39.6099L130.955 32.3439H126.216L121.826 39.3723" fill="white"/>
</svg>
