<svg width="144" height="72" viewBox="0 0 144 72" fill="none" xmlns="http://www.w3.org/2000/svg">
<path d="M14.2322 17.8813C11.595 18.9834 8.69514 22.0938 7.77986 26.0061C6.61861 30.9587 11.4465 33.0502 11.841 32.3678C12.3051 31.5585 10.9731 31.2868 10.7011 28.7188C10.3511 25.398 11.893 21.6878 13.8386 20.0598C14.2016 19.7622 14.1839 20.1822 14.1839 20.9564C14.1839 22.3525 14.106 34.844 14.106 37.452C14.106 40.9823 13.9612 42.0938 13.6938 43.1914C13.4311 44.3076 13.006 45.0604 13.3262 45.3534C13.6892 45.6769 15.231 44.9066 16.1249 43.6606C17.1943 42.1679 17.5711 40.3741 17.6407 38.4273C17.7196 36.0827 17.715 32.3548 17.7196 30.2327C17.7196 28.2812 17.7503 22.5759 17.689 19.1411C17.6714 18.3012 15.3322 17.4214 14.2322 17.8813ZM135.818 36.4145C135.441 36.4145 135.262 36.8085 135.117 37.4697C134.618 39.7752 134.093 40.2953 133.413 40.2953C132.656 40.2953 131.976 39.1542 131.797 36.8697C131.661 35.0758 131.683 31.768 131.858 28.4778C131.894 27.8039 131.709 27.1354 129.895 26.4744C129.111 26.1944 127.976 25.7745 127.412 27.1391C125.812 30.9856 125.191 34.0478 125.041 35.2863C125.038 35.3512 124.959 35.3605 124.945 35.2121C124.854 34.2183 124.643 32.4114 124.617 28.6132C124.608 27.879 124.454 27.2438 123.631 26.7275C123.101 26.3956 121.489 25.8004 120.906 26.505C120.406 27.0825 119.824 28.6317 119.215 30.4692C118.724 31.9655 118.383 32.9807 118.383 32.9807C118.383 32.9807 118.386 28.946 118.396 27.4145C118.396 26.8369 118.001 26.645 117.883 26.6097C117.344 26.4522 116.279 26.1944 115.833 26.1944C115.277 26.1944 115.145 26.505 115.145 26.9556C115.145 27.0121 115.053 32.2622 115.053 35.9335V36.4497C114.75 38.1389 113.753 40.4317 112.67 40.4317C111.588 40.4317 111.075 39.473 111.075 35.0981C111.075 32.5468 111.154 31.4362 111.19 29.5894C111.211 28.526 111.255 27.7083 111.251 27.5202C111.242 26.9556 110.256 26.6663 109.8 26.5615C109.341 26.4522 108.941 26.4169 108.627 26.4299C108.189 26.4567 107.878 26.7451 107.878 27.1484V27.7602C107.312 26.8684 106.396 26.2464 105.784 26.0674C104.145 25.5816 102.432 26.0145 101.139 27.8168C100.115 29.2529 99.4964 30.8753 99.256 33.2078C99.0759 34.9145 99.1335 36.6427 99.4529 38.1037C99.0676 39.753 98.3575 40.4317 97.5823 40.4317C96.4517 40.4317 95.6377 38.5933 95.7296 35.4124C95.7955 33.3218 96.2114 31.8561 96.6708 29.7294C96.8686 28.8236 96.7062 28.3518 96.3079 27.8919C95.944 27.4802 95.1642 27.2661 94.0476 27.5239C93.2539 27.7121 92.1111 27.9132 91.0724 28.0671C91.0724 28.0671 91.1336 27.8168 91.1866 27.3755C91.4539 25.0606 88.9346 25.2488 88.1328 25.9886C87.651 26.4299 87.3224 26.9509 87.1997 27.8873C87.003 29.3753 88.2162 30.0752 88.2162 30.0752C87.8181 31.8951 86.8451 34.2748 85.8333 35.9947C85.2941 36.918 84.8819 37.5967 84.3482 38.3225C84.3434 38.0555 84.3434 37.7838 84.3434 37.5177C84.3342 33.689 84.3824 30.675 84.4046 29.5894C84.4268 28.526 84.4705 27.7297 84.4705 27.5414C84.4613 27.1298 84.2209 26.9685 83.712 26.7757C83.2656 26.6014 82.7356 26.4744 82.1879 26.4299C81.5 26.378 81.0797 26.7451 81.0927 27.1781V27.7602C80.5234 26.8684 79.6074 26.2464 79.003 26.0674C77.36 25.5816 75.6475 26.0145 74.3553 27.8168C73.3343 29.2529 72.6594 31.2609 72.4663 33.1856C72.2918 34.9887 72.3223 36.511 72.5675 37.7977C72.3048 39.0835 71.5557 40.4317 70.7063 40.4317C69.6239 40.4317 69.0057 39.473 69.0057 35.0981C69.0057 32.5468 69.0846 31.4362 69.1245 29.5894C69.1459 28.526 69.1858 27.7083 69.1811 27.5202C69.1764 26.9556 68.1917 26.6663 67.7312 26.5615C67.2541 26.4484 66.8374 26.4132 66.5216 26.4299C66.1013 26.4651 65.8079 26.8369 65.8079 27.1215V27.7602C65.2389 26.8684 64.3226 26.2464 63.7137 26.0674C62.0754 25.5816 60.3757 26.0239 59.0744 27.8168C58.225 28.9859 57.5371 30.2847 57.1825 33.1642C57.086 33.9958 57.0378 34.7737 57.0423 35.5005C56.7045 37.565 55.2109 39.9458 53.993 39.9458C53.2746 39.9458 52.5914 38.5626 52.5914 35.6098C52.5914 31.6809 52.8363 26.0804 52.88 25.538C52.88 25.538 54.4218 25.5111 54.7244 25.5074C55.4913 25.5028 56.192 25.5204 57.2132 25.4676C57.7302 25.4417 58.225 23.5995 57.6903 23.3678C57.4536 23.2667 55.7539 23.1749 55.079 23.1619C54.51 23.149 52.9366 23.0312 52.9366 23.0312C52.9366 23.0312 53.0778 19.3164 53.1084 18.927C53.1344 18.5942 52.7138 18.4283 52.4689 18.3272C51.8765 18.0741 51.3465 17.9555 50.7246 17.8284C49.853 17.6495 49.4631 17.8247 49.3889 18.5543C49.2747 19.6622 49.2135 22.9089 49.2135 22.9089C48.5738 22.9089 46.4055 22.7809 45.7695 22.7809C45.1791 22.7809 44.5387 25.3192 45.3583 25.3498C46.3006 25.3851 47.9343 25.4203 49.0204 25.4499C49.0204 25.4499 48.9719 31.1432 48.9719 32.8972V33.4396C48.3724 36.5498 46.2737 38.2307 46.2737 38.2307C46.7247 36.1699 45.8049 34.6253 44.1404 33.3218C43.5269 32.836 42.3182 31.921 40.9639 30.9281C40.9639 30.9281 41.7483 30.154 42.4445 28.6049C42.9357 27.5063 42.9579 26.2426 41.7483 25.9664C39.7507 25.5074 38.1078 26.9732 37.613 28.539C37.2362 29.747 37.4338 30.6481 38.182 31.5798L38.3527 31.7903C37.9063 32.6561 37.2844 33.8243 36.7627 34.7301C35.3043 37.2462 34.2044 39.2329 33.3763 39.2329C32.7108 39.2329 32.7191 37.2157 32.7191 35.3253C32.7191 33.6973 32.8418 31.2433 32.9382 28.7059C32.9689 27.8696 32.5484 27.3885 31.8439 26.9556C31.414 26.6932 30.5024 26.1768 29.9724 26.1768C29.1844 26.1768 26.8971 26.2815 24.738 32.5162C24.466 33.3042 23.9313 34.7347 23.9313 34.7347L23.9797 27.2355C23.9797 27.0603 23.8878 26.8944 23.6733 26.7757C23.3094 26.5791 22.3329 26.1768 21.4743 26.1768C21.0575 26.1768 20.8514 26.3696 20.8514 26.7498L20.7818 38.4755C20.7818 39.3682 20.8031 40.4093 20.8913 40.8645C20.9786 41.3197 21.1234 41.6915 21.2988 41.9141C21.4743 42.129 21.6794 42.2951 22.0126 42.3693C22.3236 42.4351 24.0363 42.6491 24.1245 41.9975C24.234 41.2141 24.2377 40.3705 25.1362 37.2072C26.538 32.289 28.3611 29.8916 29.2197 29.0378C29.3728 28.8894 29.5436 28.8802 29.5343 29.1259C29.4953 30.2059 29.3681 32.8972 29.2809 35.1853C29.0488 41.3152 30.1608 42.4481 31.7603 42.4481C32.9782 42.4481 34.6956 41.2363 36.5399 38.1742C37.6919 36.2617 38.8049 34.3935 39.6106 33.0418C40.163 33.5573 40.7932 34.1135 41.4197 34.7087C42.879 36.0865 43.356 37.3992 43.0368 38.6424C42.7953 39.5953 41.8802 40.5753 40.2547 39.6222C39.7814 39.346 39.58 39.132 39.1028 38.8165C38.8484 38.646 38.4539 38.5978 38.2219 38.773C37.6083 39.2329 37.262 39.8143 37.0606 40.5365C36.8722 41.241 37.5777 41.6081 38.3092 41.9316C38.9357 42.2163 40.2854 42.4656 41.1478 42.4963C44.508 42.6103 47.1982 40.8775 49.0686 36.4145C49.4064 40.2695 50.8295 42.4528 53.3051 42.4528C54.9649 42.4528 56.6255 40.313 57.3533 38.2085C57.5584 39.066 57.8694 39.8096 58.2687 40.4447C60.179 43.4631 63.8846 42.816 65.742 40.2518C66.3202 39.4553 66.4085 39.1708 66.4085 39.1708C66.6795 41.5914 68.6336 42.4434 69.751 42.4434C71.008 42.4434 72.2963 41.8492 73.2024 39.8096C73.3119 40.033 73.4261 40.2435 73.5579 40.4447C75.4636 43.4631 79.1691 42.816 81.0314 40.2518C81.1149 40.1248 81.1938 40.02 81.2587 39.919L81.3163 41.5116C81.3163 41.5116 80.2516 42.4833 79.5991 43.0821C76.7297 45.7123 74.5475 47.7074 74.386 50.0259C74.1844 52.988 76.585 54.0867 78.4072 54.2303C80.3352 54.3842 81.9912 53.3207 83.0066 51.8245C83.9006 50.5117 84.4881 47.6898 84.4445 44.8983C84.427 43.7783 84.4001 42.3608 84.3739 40.834C85.3859 39.6705 86.5248 38.1908 87.5681 36.4591C88.7108 34.5771 89.9287 32.0434 90.5505 30.0706C90.5505 30.0706 91.6154 30.0798 92.7459 30.0094C93.1097 29.9871 93.2147 30.0622 93.1442 30.3246C93.0653 30.6435 91.7166 35.8462 92.9473 39.3117C93.7931 41.6823 95.6895 42.4481 96.8202 42.4481C98.1382 42.4481 99.4007 41.4505 100.074 39.9718C100.158 40.134 100.242 40.2953 100.338 40.4447C102.244 43.4631 105.936 42.8115 107.812 40.2518C108.237 39.6705 108.473 39.1708 108.473 39.1708C108.876 41.6785 110.83 42.4528 111.947 42.4528C113.117 42.4528 114.22 41.976 115.119 39.8578C115.154 40.7905 115.211 41.5515 115.307 41.7916C115.364 41.941 115.697 42.1245 115.934 42.2163C117.002 42.6103 118.089 42.422 118.487 42.3386C118.768 42.282 118.987 42.0633 119.014 41.4858C119.092 39.9718 119.044 37.4297 119.504 35.5357C120.279 32.3679 120.998 31.1386 121.339 30.5304C121.528 30.1883 121.747 30.1318 121.751 30.4905C121.764 31.221 121.804 33.3654 122.106 36.2532C122.321 38.3707 122.615 39.626 122.842 40.0247C123.482 41.1575 124.279 41.2103 124.923 41.2103C125.335 41.2103 126.194 41.0963 126.119 40.3741C126.08 40.0247 126.146 37.8497 126.903 34.7264C127.403 32.6831 128.23 30.841 128.528 30.1669C128.643 29.9176 128.691 30.1104 128.691 30.1494C128.625 31.5539 128.485 36.1522 129.054 38.6637C129.835 42.0725 132.081 42.4528 132.865 42.4528C134.534 42.4528 135.906 41.1835 136.366 37.8414C136.48 37.0357 136.313 36.4145 135.818 36.4145ZM65.7725 34.3499C65.6807 36.117 65.3344 37.5965 64.7829 38.6682C63.7749 40.6151 61.7913 41.2278 60.9187 38.4235C60.2838 36.3979 60.4982 33.6323 60.7656 32.1397C61.1507 29.9259 62.1282 28.36 63.6524 28.5037C65.212 28.6576 65.9739 30.6657 65.7725 34.3499ZM81.0574 34.3759C80.9702 36.0427 80.5366 37.7226 80.0633 38.6682C79.0868 40.6281 77.0446 41.2408 76.199 38.4235C75.6216 36.4933 75.7571 34.0041 76.0458 32.4373C76.4188 30.3987 77.3164 28.5037 78.9336 28.5037C80.5061 28.5037 81.2811 30.2281 81.0574 34.3759ZM81.4565 45.7687C81.4343 48.8189 80.9572 51.4879 79.9315 52.2667C78.4684 53.369 76.5016 52.5375 76.9091 50.3152C77.2682 48.3461 78.9726 46.3381 81.4612 43.8831C81.4612 43.8831 81.4698 44.4429 81.4565 45.7687ZM107.847 34.3935C107.759 36.2272 107.351 37.6577 106.848 38.6682C105.871 40.6281 103.847 41.2363 102.984 38.4235C102.515 36.8873 102.493 34.323 102.831 32.1842C103.172 30.0047 104.132 28.36 105.717 28.5037C107.285 28.653 108.018 30.6657 107.847 34.3935Z" fill="white"/>
</svg>
