<svg width="144" height="72" viewBox="0 0 144 72" fill="none" xmlns="http://www.w3.org/2000/svg">
<path d="M132.125 47.6714C132.195 47.6721 132.264 47.6585 132.328 47.6312C132.393 47.604 132.451 47.5638 132.499 47.5132C132.548 47.4625 132.585 47.4025 132.609 47.3368C132.633 47.2711 132.644 47.2012 132.64 47.1314C132.64 46.7483 132.408 46.5653 131.934 46.5653H131.168V48.5707H131.456V47.6966H131.81L131.819 47.7072L132.368 48.5707H132.676L132.085 47.677L132.125 47.6714ZM131.791 47.4706H131.457V46.7926H131.881C132.099 46.7926 132.349 46.8283 132.349 47.1148C132.349 47.4442 132.096 47.4706 131.79 47.4706" fill="white"/>
<path d="M19.8752 25.7437H24.1282V41.2355H32.0018V45.1604H19.8752V25.7437Z" fill="white"/>
<path d="M33.8822 31.9954H37.9679V45.1532H33.8822V31.9954ZM35.9251 25.4539C36.3938 25.454 36.852 25.5931 37.2417 25.8536C37.6315 26.1141 37.9352 26.4843 38.1145 26.9174C38.2938 27.3505 38.3407 27.827 38.2492 28.2867C38.1577 28.7465 37.9319 29.1688 37.6005 29.5002C37.269 29.8316 36.8466 30.0573 36.3869 30.1487C35.9271 30.2402 35.4506 30.1932 35.0175 30.0138C34.5845 29.8344 34.2143 29.5306 33.9539 29.1408C33.6935 28.7511 33.5545 28.2928 33.5545 27.8241C33.5545 27.5128 33.6158 27.2045 33.7349 26.917C33.8541 26.6294 34.0287 26.3681 34.2488 26.148C34.469 25.9279 34.7303 25.7533 35.0179 25.6342C35.3055 25.5151 35.6138 25.4539 35.9251 25.4539Z" fill="white"/>
<path d="M55.0593 25.7406H59.1451V37.3446L63.7756 31.9893H68.7849L63.4224 38.0809L68.6721 45.1586H63.5368L59.1996 38.6546H59.1459V45.1577H55.0602L55.0593 25.7406Z" fill="white"/>
<path d="M40.2332 31.9966H44.1568V33.7948H44.2126C44.6045 33.1233 45.1714 32.571 45.8528 32.1966C46.5341 31.8223 47.3044 31.64 48.0813 31.6693C52.2245 31.6693 52.9872 34.3953 52.9872 37.9367V45.1523H48.9014V38.7551C48.9014 37.2281 48.8733 35.2652 46.7734 35.2652C44.6497 35.2652 44.322 36.928 44.322 38.644V45.1506H40.2362L40.2332 31.9966Z" fill="white"/>
<path d="M77.389 37.0438C77.3968 36.7123 77.3372 36.3827 77.2139 36.075C77.0906 35.7672 76.9061 35.4876 76.6715 35.2533C76.437 35.0189 76.1573 34.8346 75.8495 34.7114C75.5416 34.5883 75.212 34.529 74.8805 34.537C74.1666 34.4926 73.4639 34.7305 72.9238 35.1995C72.3837 35.6684 72.0495 36.3308 71.9932 37.0438H77.389ZM80.8499 42.8745C80.171 43.6979 79.3175 44.3599 78.3511 44.8127C77.3848 45.2654 76.3298 45.4976 75.2627 45.4924C71.1769 45.4924 67.9058 42.7652 67.9058 38.5419C67.9058 34.3187 71.1765 31.5927 75.2627 31.5927C79.0816 31.5927 81.4764 34.3166 81.4764 38.5419V39.823H71.9932C72.1113 40.5495 72.4879 41.2089 73.0538 41.6796C73.6196 42.1504 74.3365 42.4008 75.0724 42.3847C75.654 42.3811 76.2254 42.2321 76.7346 41.9512C77.2439 41.6704 77.6748 41.2667 77.9882 40.7768L80.8499 42.8745Z" fill="white"/>
<path d="M89.9928 35.1759C87.95 35.1759 86.7242 36.5399 86.7242 38.5275C86.7242 40.515 87.9495 41.8803 89.9928 41.8803C92.0361 41.8803 93.2644 40.5184 93.2644 38.5275C93.2644 36.5365 92.0383 35.1759 89.9928 35.1759ZM97.0259 45.1506H93.2644V43.4057H93.2087C92.7368 44.0404 92.1247 44.5576 91.4202 44.9169C90.7156 45.2763 89.9376 45.4681 89.1468 45.4775C85.221 45.4775 82.6351 42.6443 82.6351 38.6377C82.6351 34.958 84.9235 31.5791 88.6854 31.5791C90.3763 31.5791 91.9557 32.0417 92.8822 33.3241H92.9358V25.7395H97.0254L97.0259 45.1506Z" fill="white"/>
<path d="M124.609 45.1583H120.523V38.7598C120.523 37.2341 120.496 35.2699 118.398 35.2699C116.27 35.2699 115.944 36.9323 115.944 38.6488V45.1579H111.858V32H115.781V33.7982H115.836C116.228 33.127 116.795 32.5749 117.477 32.2006C118.158 31.8264 118.929 31.6439 119.706 31.6728C123.847 31.6728 124.61 34.3966 124.61 37.9401L124.609 45.1583ZM107.248 30.2015C106.779 30.2015 106.321 30.0626 105.931 29.8021C105.541 29.5416 105.237 29.1714 105.058 28.7382C104.878 28.305 104.831 27.8282 104.922 27.3683C105.014 26.9083 105.24 26.4858 105.571 26.1542C105.903 25.8225 106.325 25.5966 106.785 25.5051C107.245 25.4135 107.722 25.4604 108.155 25.6397C108.588 25.8191 108.959 26.123 109.219 26.5128C109.48 26.9027 109.619 27.3611 109.619 27.83C109.619 28.1414 109.558 28.4497 109.439 28.7374C109.32 29.0251 109.145 29.2865 108.925 29.5067C108.705 29.7269 108.443 29.9016 108.156 30.0208C107.868 30.14 107.56 30.2014 107.248 30.2015ZM109.291 45.1583H105.201V32H109.291V45.1583ZM126.646 21.6652H103.148C102.615 21.6592 102.101 21.8652 101.719 22.2378C101.338 22.6105 101.12 23.1194 101.113 23.6528V47.2476C101.12 47.7811 101.338 48.2904 101.719 48.6635C102.101 49.0366 102.615 49.2429 103.148 49.2372H126.646C127.18 49.2439 127.696 49.0382 128.079 48.6651C128.462 48.292 128.681 47.7822 128.688 47.2476V23.6511C128.681 23.1167 128.461 22.6072 128.078 22.2345C127.695 21.8618 127.18 21.6565 126.646 21.6635" fill="white"/>
<path d="M131.826 45.672C131.329 45.6767 130.854 45.8782 130.505 46.2322C130.156 46.5863 129.962 47.0641 129.964 47.5612C129.966 48.0583 130.166 48.5343 130.518 48.8849C130.87 49.2356 131.347 49.4325 131.844 49.4325C132.341 49.4325 132.818 49.2356 133.171 48.8849C133.523 48.5343 133.722 48.0583 133.725 47.5612C133.727 47.0641 133.532 46.5863 133.183 46.2322C132.834 45.8782 132.359 45.6767 131.862 45.672H131.826ZM131.826 49.2172C131.5 49.2226 131.18 49.1312 130.906 48.9546C130.632 48.778 130.416 48.524 130.286 48.2249C130.156 47.9257 130.118 47.5948 130.177 47.274C130.235 46.9531 130.387 46.6568 130.614 46.4224C130.84 46.188 131.131 46.0261 131.45 45.9571C131.769 45.8882 132.101 45.9153 132.404 46.0351C132.708 46.1549 132.969 46.3619 133.154 46.63C133.34 46.898 133.442 47.2151 133.447 47.5412C133.447 47.5506 133.447 47.5595 133.447 47.5689C133.456 47.9966 133.295 48.4104 132.999 48.7194C132.703 49.0283 132.297 49.2071 131.869 49.2164L131.826 49.2172Z" fill="white"/>
</svg>
