<svg width="144" height="72" viewBox="0 0 144 72" fill="none" xmlns="http://www.w3.org/2000/svg">
<path d="M114.225 35.3868L119.307 48.8506C117.817 48.6462 116.299 48.3541 114.78 48.1205L111.918 40.673L108.968 47.5071C107.537 47.2735 106.106 47.1859 104.646 47.0106L109.815 35.2408L105.142 23.1497H109.494L112.122 29.8962L114.926 23.1497H119.307L114.225 35.3868ZM101.725 23.1497H97.7823V46.4849C99.0674 46.5726 100.411 46.631 101.725 46.777V23.1497ZM94.3945 46.2221C90.8022 45.9884 87.2099 45.7548 83.5592 45.6964V23.1497H87.5603V41.8997C89.8676 41.9581 92.1748 42.1333 94.3945 42.2501V46.2221ZM79.266 32.291V36.2922H73.7753V45.4335H69.8033V23.1497H81.0475V27.1508H73.7753V32.2618L79.266 32.291ZM63.0569 27.1508V45.638C61.7134 45.638 60.3407 45.638 59.0265 45.6964V27.1508H54.8793V23.1497H67.2333V27.1508H63.0569ZM50.5568 36.4966C48.8045 36.4966 46.7017 36.4966 45.2122 36.5842V42.5422C47.5779 42.3669 49.9143 42.1917 52.3092 42.1041V45.9592L41.2111 46.8354V23.1497H52.3092V27.1508H45.2122V32.5539C46.7601 32.5539 49.155 32.4662 50.5568 32.4662V36.4966ZM28.3022 34.2478V48.2665C26.8711 48.4417 25.5861 48.6462 24.2134 48.8506V23.1497H28.0393L33.2671 37.7525V23.1497H37.2975V47.1859C35.8664 47.4195 34.4354 47.5071 32.9167 47.7116L28.3022 34.2478Z" fill="white"/>
</svg>
