<svg width="144" height="72" viewBox="0 0 144 72" fill="none" xmlns="http://www.w3.org/2000/svg">
<path d="M39.0329 28.0252L36.8975 33.1013C36.6259 32.9655 35.9891 32.8157 35.385 32.8157C34.7809 32.8157 34.1721 32.9655 33.5868 33.2512C32.4254 33.8412 31.5685 35.0166 31.5685 36.7165V46.0166H26.2535V27.9221H31.4186V30.4602H31.517C32.7298 28.8447 34.5795 27.6505 36.9818 27.6505C37.8575 27.6552 38.6957 27.8238 39.0329 28.0252Z" fill="white"/>
<path d="M38.0075 37.0209C38.0075 31.7902 41.5899 27.6553 46.9564 27.6553C51.8172 27.6553 55.2965 31.2049 55.2965 36.1968C55.2965 37.0725 55.2122 37.8966 55.0296 38.6833H42.8542C43.4115 40.5846 45.0552 42.0643 47.5277 42.0643C48.8904 42.0643 50.8244 41.5773 51.8687 40.7719L53.517 44.7382C51.9857 45.7825 49.649 46.2836 47.5979 46.2836C41.8568 46.2882 38.0075 42.5888 38.0075 37.0209ZM42.7465 35.3539H50.3983C50.3983 33.0312 48.8155 31.8043 46.8815 31.8043C44.6993 31.809 43.2195 33.2185 42.7465 35.3539Z" fill="white"/>
<path d="M100.898 19.7927C102.682 19.7927 104.143 21.2538 104.143 23.0379C104.143 24.8221 102.682 26.2831 100.898 26.2831C99.1135 26.2831 97.6525 24.8221 97.6525 23.0379C97.6525 21.2538 99.1135 19.7927 100.898 19.7927ZM103.553 46.0165H98.2378V27.9221H103.553V46.0165Z" fill="white"/>
<path d="M70.0379 20.1207L70.0192 29.6409H69.9162C68.4551 28.2454 66.8723 27.6741 64.8025 27.6741C59.7076 27.6741 56.3266 31.7762 56.3266 36.9741C56.3266 42.1721 59.4875 46.2883 64.6339 46.2883C66.788 46.2883 68.8204 45.5484 70.1316 43.8673H70.2814V46.0213H75.3436V20.1207H70.0379ZM70.2955 41.7038H70.1175L68.9328 40.4722C68.1601 41.2449 67.1065 41.7038 65.8702 41.7038C63.2666 41.7038 61.445 39.6434 61.445 36.9741C61.445 34.3049 63.2666 32.2445 65.8702 32.2445C68.4739 32.2445 70.2955 34.3049 70.2955 36.9741V41.7038Z" fill="white"/>
<path d="M90.338 20.1207L90.3192 29.6409H90.2162C88.7552 28.2454 87.1724 27.6741 85.1026 27.6741C80.0077 27.6741 76.6267 31.7762 76.6267 36.9741C76.6267 42.1721 79.7876 46.2883 84.934 46.2883C87.0881 46.2883 89.1204 45.5484 90.4316 43.8673H90.5815V46.0213H95.6436V20.1207H90.338ZM90.5628 41.7038H90.3848L89.2 40.4722C88.4274 41.2449 87.3691 41.7038 86.1375 41.7038C83.5338 41.7038 81.7122 39.6434 81.7122 36.9741C81.7122 34.3049 83.5338 32.2445 86.1375 32.2445C88.7411 32.2445 90.5628 34.3049 90.5628 36.9741V41.7038Z" fill="white"/>
<path d="M113.86 27.9222H117.747V32.4458H113.86V46.0166H108.545V32.4458H104.677V27.9222H108.545V23.0053H113.86V27.9222Z" fill="white"/>
</svg>
