<svg width="144" height="72" viewBox="0 0 144 72" fill="none" xmlns="http://www.w3.org/2000/svg">
<path d="M34.0743 34.5239C32.9192 33.8822 32.4058 33.3688 32.4058 32.7271C32.4058 31.8287 33.1759 31.3153 34.4593 31.3153C35.8711 31.3153 37.1546 31.957 37.1546 31.957L38.1813 28.8767C38.1813 28.8767 37.2829 28.1067 34.5877 28.1067C30.7373 28.1067 28.1704 30.2885 28.1704 33.3688C28.1704 35.1656 29.4539 36.4491 30.994 37.3475C32.2775 38.1176 32.7908 38.631 32.7908 39.401C32.7908 40.1711 32.1491 40.9412 30.8657 40.9412C29.0688 40.9412 27.272 40.0427 27.272 40.0427L26.2452 43.123C26.2452 43.123 27.7854 44.1498 30.4806 44.1498C34.331 44.1498 37.1546 42.2246 37.1546 38.7593C37.1546 36.8341 35.7428 35.4223 34.0743 34.5239ZM49.604 27.9783C47.6789 27.9783 46.1387 28.8767 44.9836 30.2885L46.6521 21.5611H42.2884L38.053 43.7648H42.4167L43.8285 36.1924C44.3419 33.3688 45.882 31.572 47.2938 31.572C48.3206 31.572 48.7056 32.2137 48.7056 33.2405C48.7056 33.8822 48.7056 34.5239 48.5773 35.1656L46.9088 43.8931H51.2725L52.941 34.9089C53.0694 34.0105 53.1977 32.8554 53.1977 32.0854C53.1977 29.5185 51.9142 27.9783 49.604 27.9783ZM60.7701 40.6845C59.2299 40.6845 58.7165 39.401 58.7165 37.8609C58.7165 35.4223 60 31.3153 62.3102 31.3153C63.8503 31.3153 64.3637 32.5987 64.3637 33.8822C64.3637 36.7058 63.0803 40.6845 60.7701 40.6845ZM62.9519 27.9783C57.6898 27.9783 54.2245 32.7271 54.2245 37.9892C54.2245 41.3262 56.278 44.0214 60.2567 44.0214C65.3905 44.0214 68.8558 39.401 68.8558 34.0105C68.8558 30.9302 67.059 27.9783 62.9519 27.9783ZM75.7864 40.8128C74.6313 40.8128 73.9896 40.1711 73.9896 40.1711L74.7597 36.0641C75.2731 33.3688 76.6848 31.572 78.225 31.572C79.5084 31.572 80.0218 32.8554 80.0218 34.0105C79.8935 36.8341 78.225 40.8128 75.7864 40.8128ZM80.0218 27.9783C77.0699 27.9783 75.4014 30.5452 75.4014 30.5452L75.6581 28.235H71.8077C71.6794 29.7751 71.2943 32.2137 70.9093 34.0105L67.829 49.9253H72.1928L73.3479 43.5081H73.4762C73.4762 43.5081 74.3746 44.0214 76.0431 44.0214C81.1769 44.0214 84.5139 38.7593 84.5139 33.4972C84.5139 30.6736 83.2304 27.9783 80.0218 27.9783ZM90.6745 21.8178C89.2627 21.8178 88.2359 22.9729 88.2359 24.3847C88.2359 25.6681 89.006 26.5665 90.2894 26.5665C91.7012 26.5665 92.8563 25.6681 92.8563 23.9996C92.8563 22.7162 91.9579 21.8178 90.6745 21.8178ZM84.6422 43.7648H89.006L91.9579 28.3633H87.5942L84.6422 43.7648ZM102.996 28.3633H99.9153L100.044 27.5933C100.3 26.0531 101.199 24.7697 102.611 24.7697C103.381 24.7697 104.022 25.0264 104.022 25.0264L104.921 21.5611C104.921 21.5611 104.151 21.176 102.611 21.176C101.07 21.176 99.5303 21.5611 98.3752 22.5878C96.835 23.8713 96.1933 25.6681 95.8083 27.4649L95.6799 28.235H93.6264L92.9847 31.572H95.0382L92.728 43.7648H97.0917L99.4019 31.572H102.354L102.996 28.3633ZM113.392 28.3633C113.392 28.3633 110.696 35.1656 109.413 38.8876C109.284 37.7325 108.386 28.3633 108.386 28.3633H103.766L106.333 42.4813C106.333 42.738 106.333 42.9947 106.204 43.2514C105.691 44.2781 104.792 45.1765 103.894 45.8183C103.124 46.46 102.097 46.845 101.455 47.1017L102.611 50.8237C103.509 50.6954 105.306 49.9253 106.846 48.5135C108.771 46.7167 110.696 43.7648 112.493 39.9144L117.755 28.4917L113.392 28.3633Z" fill="white"/>
</svg>
