<svg width="144" height="72" viewBox="0 0 144 72" fill="none" xmlns="http://www.w3.org/2000/svg">
<path fill-rule="evenodd" clip-rule="evenodd" d="M110.967 34.7448C111.53 32.9085 113.232 31.6844 115.219 31.6844C117.115 31.6844 118.92 32.972 119.543 34.7413L119.586 34.8629H110.931L110.967 34.7448ZM121.512 37.4051C121.524 37.4056 121.524 37.4056 121.541 37.4057C121.558 37.4056 121.558 37.4056 121.576 37.4051C121.99 37.3861 122.318 37.0328 122.318 36.6029C122.318 36.582 122.318 36.564 122.316 36.5352C122.316 36.5299 122.316 36.5194 122.316 36.4856C122.316 32.4303 119.137 29.1439 115.216 29.1439C111.295 29.1439 108.116 32.4303 108.116 36.4856C108.116 36.7879 108.134 37.0894 108.169 37.3891L108.171 37.4051L108.182 37.4842C108.378 38.9433 109 40.2825 109.984 41.3662C109.984 41.3662 109.984 41.3667 109.989 41.3724C111.079 42.5722 112.56 43.3899 114.201 43.6957L114.223 43.6998V43.6977L114.329 43.7155C114.384 43.7248 114.442 43.734 114.519 43.746C116.68 44.0058 118.597 43.6943 120.22 42.877C120.62 42.6756 120.979 42.4534 121.291 42.2187C121.391 42.1431 121.481 42.0699 121.559 42.0015C121.599 41.9662 121.631 41.9365 121.648 41.9194C122.014 41.5421 122.037 41.4083 121.816 41.0639C121.573 40.6768 121.358 40.347 121.174 40.0739C121.11 39.9783 121.054 39.8969 121.007 39.8293C120.981 39.7921 120.981 39.7921 120.964 39.7686C120.958 39.7595 120.958 39.7595 120.954 39.7536L120.951 39.7507C120.751 39.5016 120.614 39.4788 120.392 39.6749C120.368 39.6959 120.289 39.757 120.275 39.7721C118.714 41.1587 116.581 41.6047 114.452 41.1592C114.056 41.0527 113.685 40.9175 113.343 40.7542C112.009 40.0853 111.064 38.8935 110.791 37.514L110.77 37.405L121.512 37.4051ZM94.0721 34.7448C94.635 32.9085 96.3372 31.6844 98.3234 31.6844C100.219 31.6844 102.024 32.972 102.648 34.7413L102.691 34.8629H94.0358L94.0721 34.7448ZM104.617 37.4051C104.629 37.4056 104.629 37.4056 104.646 37.4057C104.663 37.4056 104.663 37.4056 104.681 37.4051C105.095 37.3861 105.423 37.0328 105.423 36.6029C105.423 36.582 105.422 36.564 105.421 36.5352C105.421 36.5299 105.421 36.5194 105.421 36.4856C105.421 32.4303 102.242 29.1439 98.3209 29.1439C94.4003 29.1439 91.2209 32.4303 91.2209 36.4856C91.2209 36.7879 91.2387 37.0894 91.274 37.3891L91.2763 37.4051L91.2873 37.4842C91.4826 38.9433 92.1052 40.2825 93.0885 41.3662C93.0885 41.3662 93.089 41.3667 93.0939 41.3724C94.1842 42.5722 95.6644 43.3899 97.3061 43.6957L97.3276 43.6998V43.6977L97.4342 43.7155C97.4891 43.7248 97.5469 43.734 97.6245 43.746C99.7853 44.0058 101.702 43.6943 103.325 42.877C103.725 42.6756 104.084 42.4534 104.395 42.2187C104.495 42.1431 104.586 42.0699 104.664 42.0015C104.704 41.9662 104.736 41.9365 104.753 41.9194C105.119 41.5421 105.142 41.4083 104.921 41.0639C104.678 40.6768 104.463 40.347 104.279 40.0739C104.215 39.9783 104.159 39.8969 104.112 39.8293C104.086 39.7921 104.086 39.7921 104.069 39.7686C104.063 39.7595 104.063 39.7595 104.058 39.7536L104.057 39.7507C103.856 39.5016 103.72 39.4788 103.497 39.6749C103.474 39.6959 103.395 39.757 103.38 39.7721C101.819 41.1587 99.6868 41.6047 97.5576 41.1592C97.1611 41.0527 96.7902 40.9175 96.4487 40.7542C95.1147 40.0853 94.1698 38.8935 93.897 37.514L93.8754 37.405L104.617 37.4051ZM81.1779 41.4485C78.5372 41.4485 76.3774 39.3549 76.3111 36.7312V36.4842C76.3767 33.8647 78.5372 31.7707 81.1779 31.7707C83.8663 31.7707 86.0458 33.9371 86.0458 36.6096C86.0458 39.2821 83.8663 41.4485 81.1779 41.4485ZM81.1794 29.2036C79.4474 29.2036 77.7925 29.7935 76.4625 30.8755L76.3113 30.9984V29.6442C76.3113 29.2831 76.2337 29.2036 75.8682 29.2036H74.1684C73.7982 29.2036 73.7251 29.2772 73.7251 29.6442V51.2303C73.7251 51.5848 73.8078 51.6709 74.1684 51.6709H75.8682C76.2302 51.6709 76.3113 51.5867 76.3113 51.2303V42.2282L76.4625 42.3511C77.7927 43.4333 79.4476 44.0232 81.1794 44.0232C85.2962 44.0232 88.6336 40.7057 88.6336 36.6133C88.6336 32.5211 85.2962 29.2036 81.1794 29.2036ZM63.6736 41.2832C60.9797 41.2832 58.7958 39.1357 58.7958 36.486C58.7958 33.8362 60.9798 31.6887 63.6736 31.6887C66.367 31.6887 68.551 33.8362 68.551 36.486C68.551 39.1356 66.3672 41.2832 63.6736 41.2832ZM63.6752 29.1439C59.5502 29.1439 56.2067 32.4328 56.2067 36.4897C56.2067 40.5464 59.5502 43.8354 63.6752 43.8354C67.8 43.8354 71.1431 40.5464 71.1431 36.4897C71.1431 32.4328 67.8001 29.1439 63.6752 29.1439ZM47.0267 29.307C45.5209 29.307 44.0638 29.7912 42.8549 30.6859L42.708 30.7947V20.7697C42.708 20.4374 42.599 20.329 42.2667 20.329H40.4875C40.1282 20.329 40.0461 20.4149 40.0461 20.7697V43.6392C40.0461 43.9854 40.1347 44.0803 40.4875 44.0803H42.2667C42.5968 44.0803 42.708 43.9664 42.708 43.6392V36.1693C42.7265 33.8178 44.655 31.9198 47.0267 31.9198C49.4044 31.9198 51.3352 33.8271 51.3453 36.1863V43.6392C51.3453 44.0175 51.4082 44.0801 51.7867 44.0801H53.5616C53.9378 44.0801 54.003 44.0157 54.003 43.6392V36.1645C53.9889 32.3939 50.8447 29.307 47.0267 29.307ZM22.2341 39.9319L22.2299 39.9383C21.9762 40.3226 21.87 40.4843 21.8106 40.5771C21.6106 40.8748 21.6354 41.0075 21.9409 41.2657C22.6536 41.8404 23.5699 42.4438 24.1881 42.7461C25.908 43.5871 27.7657 44.0316 29.7343 44.0718C31.0061 44.1359 32.6032 43.8335 33.7926 43.3031C35.9457 42.3426 37.3172 40.4706 37.5575 38.1648C37.9469 34.4285 35.5158 32.0929 29.2541 30.2106L29.2525 30.2101C26.335 29.2692 24.9646 28.0184 24.9641 26.272C25.05 24.3418 26.8396 22.8998 29.2541 22.8098C31.1991 22.8147 32.9187 23.3312 34.6083 24.4185C34.9646 24.6346 35.1289 24.5948 35.3684 24.284C35.3959 24.2381 35.4725 24.1268 35.7928 23.6669L35.7938 23.6655C36.0929 23.2359 36.1913 23.0925 36.2158 23.0501C36.4176 22.6703 36.3888 22.5239 36.0245 22.2655C35.6657 22.0085 34.655 21.4826 34.077 21.2519C32.4695 20.6106 30.8076 20.2991 29.1536 20.3313C25.3894 20.4131 22.4538 22.8611 22.2603 26.0726C22.1376 28.3923 23.3149 30.2577 25.7748 31.6367C26.4643 32.0008 28.9858 32.9539 30.1626 33.2985C33.5089 34.2784 35.2535 36.0811 34.893 38.208C34.5656 40.1404 32.5409 41.4256 29.6997 41.5135C27.6393 41.4706 25.5634 40.7155 23.7609 39.361C23.7519 39.3544 23.7062 39.3204 23.622 39.2576C23.5035 39.1693 23.5035 39.1693 23.4859 39.1561C23.1184 38.9024 22.9022 38.9236 22.6779 39.2578C22.6508 39.2992 22.3717 39.7235 22.2341 39.9319Z" fill="white"/>
</svg>
