<svg width="144" height="72" viewBox="0 0 144 72" fill="none" xmlns="http://www.w3.org/2000/svg">
<path d="M74.6227 37.5866C75.1033 37.5866 75.5483 37.8143 75.8204 38.2042L80.1727 44.7315L84.5157 38.2042C84.7877 37.8143 85.2407 37.5866 85.7121 37.5866H86.945C88.0421 37.5775 88.9313 38.4758 88.9313 39.5729V53.2194C88.94 54.3253 88.0419 55.2139 86.945 55.2139C85.8392 55.2137 84.9507 54.3161 84.9504 53.2194V44.2604L81.5954 48.9936C80.8881 49.9726 79.4376 49.9728 78.7395 48.9936L75.3844 44.2604V53.2194C75.3841 54.3253 74.4868 55.2139 73.3899 55.2139C72.293 55.2139 71.405 54.3162 71.4047 53.2194V39.5729C71.3957 38.4758 72.2928 37.5867 73.3899 37.5866H74.6227Z" fill="white"/>
<path d="M105.47 37.5866C106.567 37.5778 107.455 38.4759 107.455 39.5729V47.7608C107.464 52.7656 104.381 55.2139 99.5215 55.2139C94.6615 55.2139 91.6875 52.738 91.6875 47.878V39.5729C91.6785 38.476 92.5758 37.5869 93.6727 37.5866C94.7789 37.5775 95.6684 38.4758 95.6684 39.5729V47.7878C95.6594 50.4715 97.1373 51.8589 99.5672 51.8589C101.997 51.8678 103.474 50.5252 103.474 47.905V39.5729C103.474 38.4758 104.373 37.5866 105.47 37.5866Z" fill="white"/>
<path d="M49.5364 37.5866C50.6425 37.5776 51.5309 38.4759 51.5309 39.5729C51.5308 40.679 50.6334 41.5674 49.5364 41.5675H45.7102V53.2007C45.7102 54.3068 44.8116 55.1952 43.7145 55.1952C42.6176 55.1949 41.7293 54.2976 41.7293 53.2007V41.5675H37.9032C36.797 41.5675 35.9087 40.67 35.9086 39.5729C35.9086 38.4758 36.806 37.5866 37.9032 37.5866H49.5364Z" fill="white"/>
<path d="M66.7547 37.5866C67.8518 37.5776 68.7399 38.4758 68.7399 39.5729C68.7489 40.679 67.8518 41.5674 66.7547 41.5675H57.9598V44.3964H65.6121C66.7182 44.3964 67.6065 45.2939 67.6067 46.3909C67.6067 47.488 66.7093 48.3772 65.6121 48.3772H57.9598V51.2061H66.7547C67.8518 51.2062 68.7399 52.1036 68.7399 53.2007C68.7489 54.3068 67.8518 55.1952 66.7547 55.1952H55.9735C54.8675 55.195 53.9789 54.2977 53.9789 53.2007V39.5729C53.9789 38.4759 54.8765 37.5868 55.9735 37.5866H66.7547Z" fill="white"/>
<path d="M47.6953 16.8057L47.7317 16.869C47.9585 17.2411 48.8198 18.8548 47.4328 20.6225L47.3602 20.6952C47.061 21.0397 46.5171 21.81 46.7344 22.78L46.7801 22.9616L46.752 22.8444L50.7422 29.3085C51.0324 29.78 50.9505 30.3793 50.5606 30.751L50.4246 30.8682C49.391 31.5936 47.3144 32.5909 43.7239 32.5909C40.1247 32.5908 38.0486 31.5936 37.0149 30.8682C36.5162 30.5146 36.3709 29.8344 36.6973 29.3085L40.6957 22.8444C40.9768 21.7655 40.2878 20.9218 40.0067 20.6225C38.6285 18.8545 39.4811 17.2318 39.7078 16.869L39.7524 16.8057C41.7198 16.6969 43.0256 17.4308 43.7239 18.4733C44.3223 17.5667 45.3833 16.8962 46.9336 16.7964L47.3051 16.787L47.6953 16.8057Z" fill="white"/>
<path fill-rule="evenodd" clip-rule="evenodd" d="M56.2184 17.3401C57.1069 16.6329 58.8841 17.0954 60.2532 19.8151C60.2532 19.8151 61.4503 21.6021 62.2301 22.0827C62.7922 22.4362 63.4729 22.5353 64.3524 22.3358C65.4038 22.1001 66.057 21.7924 66.7278 21.0854C67.2717 20.5052 68.0238 20.1874 68.5043 21.1663C68.7129 21.5833 69.0941 22.2092 68.4235 23.2698C68.2875 23.4783 68.1055 23.6967 67.8879 23.9143C67.5889 24.2225 67.3806 24.4583 67.2809 24.703C67.4803 25.2921 67.6615 25.7816 67.8246 26.1714L68.8407 28.4378C69.0308 28.2838 69.2126 28.1297 69.3938 27.9667C69.6929 27.6952 70.1456 27.704 70.4356 27.9936C70.7076 28.2838 70.6985 28.7376 70.3993 29.0096C68.0872 31.1312 65.0319 32.3284 61.786 32.3284C58.5491 32.3193 55.5117 31.1222 53.1996 29.0096C53.0636 28.8827 52.9814 28.7008 52.9723 28.5104C52.9634 28.3112 53.0357 28.1295 53.1715 27.9936C53.4616 27.7126 53.9153 27.6949 54.2145 27.9667C54.4502 28.1842 54.831 28.4839 55.3477 28.8737C56.2997 27.4411 56.9345 25.4008 57.143 24.1042C56.7076 24.4036 55.701 25.419 54.45 24.6303C52.2289 23.2341 52.13 22.6355 53.8618 20.1784C53.9714 20.0321 55.5385 17.8841 56.2184 17.3401ZM61.8036 28.5198C60.4618 28.52 59.2019 29.3544 58.8211 30.4968C59.773 30.7506 60.2991 30.887 61.786 30.887C62.7743 30.896 63.7443 30.7682 64.7145 30.5143C64.3154 29.218 63.227 28.5198 61.8036 28.5198Z" fill="white"/>
<path d="M85.3969 17.0495C86.9111 17.5935 89.6494 19.1994 89.2957 21.0491C88.8877 23.1795 88.3793 23.8052 88.3793 26.6249C88.3703 29.4441 88.4792 31.4387 88.6243 32.101H86.9379C87.1104 31.4373 87.8625 25.0839 86.2489 25.0839C84.635 25.0934 83.1474 32.101 78.5414 32.101C73.2475 32.0919 71.4522 31.4488 71.5875 30.6421C71.7507 29.6629 75.9571 27.7226 78.1606 27.7042C78.9403 27.7042 79.4213 28.6285 80.0016 28.3475C85.2787 25.7997 82.4954 19.8059 85.3969 17.0495Z" fill="white"/>
<path fill-rule="evenodd" clip-rule="evenodd" d="M101.936 17.2768C104.991 17.277 107.521 19.6433 107.739 22.6897L108.083 27.5764C108.237 29.9066 106.405 31.8746 104.075 31.8749H95.0625C92.7414 31.8658 90.9009 29.8976 91.0641 27.5764L91.4086 22.6897C91.6172 19.6432 94.1562 17.2768 97.2118 17.2768H101.936ZM103.622 21.3292C103.621 20.804 101.719 20.804 101.718 21.3292V21.4663C101.717 22.6538 100.747 23.6143 99.5684 23.6143C98.39 23.6142 97.4289 22.6447 97.4286 21.4663V21.3292C97.4182 20.804 95.5255 20.804 95.5243 21.3292V21.4663C95.5246 23.6965 97.3382 25.5091 99.5684 25.5093C101.808 25.5093 103.622 23.6965 103.622 21.4663V21.3292Z" fill="white"/>
</svg>
