<svg width="144" height="72" viewBox="0 0 144 72" fill="none" xmlns="http://www.w3.org/2000/svg">
<path d="M38.254 27.4988C36.5641 26.4004 35.5502 24.5295 35.5442 22.5198H31.2712L31.2652 39.6477C31.1867 41.6273 29.521 43.1723 27.5415 43.0998C25.5619 43.0274 24.0169 41.3496 24.0893 39.3701C24.1618 37.4388 25.749 35.9179 27.6803 35.9179C28.0424 35.9179 28.3985 35.9723 28.7425 36.0869V31.7235C28.3924 31.6752 28.0364 31.651 27.6803 31.645C23.347 31.645 19.8164 35.1756 19.8164 39.5089C19.8164 43.8542 23.3349 47.3728 27.6803 47.3728C32.0256 47.3728 35.5442 43.8542 35.5442 39.5089V30.8242C37.2763 32.0675 39.3584 32.7374 41.4888 32.7374V28.4645C40.3422 28.4645 39.2196 28.1325 38.254 27.4988Z" fill="white"/>
<path d="M45.5748 28.4886H59.0453L57.8081 32.3391H54.3077V46.5942H49.9563V32.3391L45.5748 32.3451V28.4886Z" fill="white"/>
<path d="M81.1223 28.4886H94.9067L93.6695 32.3391H89.8673V46.5942H85.5038V32.3391L81.1223 32.3451V28.4886Z" fill="white"/>
<path d="M59.8721 34.2462H64.1873V46.5942H59.8962L59.8721 34.2462Z" fill="white"/>
<path d="M65.9013 28.4342H70.2165V36.8653L74.4955 32.6709H79.6435L74.236 37.9215L80.2953 46.5941H75.5396L71.496 40.577L70.2165 41.8202V46.5881H65.9013V28.4342Z" fill="white"/>
<path d="M109.783 28.4342H114.099V36.8653L118.377 32.6709H123.532L118.124 37.9215L124.183 46.5941H119.428L115.384 40.577L114.105 41.8202V46.5881H109.789V28.4342H109.783Z" fill="white"/>
<path d="M62.0268 32.8339C63.2267 32.8339 64.1995 31.8612 64.1995 30.6613C64.1995 29.4613 63.2267 28.4886 62.0268 28.4886C60.8269 28.4886 59.8541 29.4613 59.8541 30.6613C59.8541 31.8612 60.8269 32.8339 62.0268 32.8339Z" fill="white"/>
<path d="M100.634 31.8078C96.5542 31.8078 93.2409 35.1151 93.2409 39.1949C93.2409 43.2747 96.5482 46.588 100.628 46.588C104.708 46.588 108.021 43.2807 108.021 39.2009C108.027 35.1211 104.72 31.8138 100.634 31.8078ZM100.634 42.7919C98.6484 42.7919 97.0431 41.1865 97.0431 39.2009C97.0431 37.2154 98.6484 35.61 100.634 35.61C102.62 35.61 104.225 37.2154 104.225 39.2009C104.231 41.1865 102.62 42.7919 100.634 42.7919Z" fill="white"/>
</svg>
