<svg width="144" height="72" viewBox="0 0 144 72" fill="none" xmlns="http://www.w3.org/2000/svg">
<path d="M47.9751 43.1534C48.2121 42.5346 48.3311 41.5232 48.3311 40.1197V34.2057C48.3311 32.8435 48.2121 31.8479 47.9751 31.2181C47.7378 30.5887 47.3197 30.2737 46.7214 30.2737C46.1433 30.2737 45.7353 30.5887 45.4983 31.2181C45.2609 31.8479 45.1422 32.8435 45.1422 34.2057V40.1197C45.1422 41.5232 45.2556 42.5346 45.4829 43.1534C45.7096 43.7729 46.1223 44.0822 46.7214 44.0822C47.3197 44.0822 47.7378 43.7729 47.9751 43.1534ZM43.1764 46.1258C42.3193 45.5485 41.7103 44.6503 41.3496 43.4321C40.9883 42.2147 40.8079 40.5943 40.8079 38.5714V35.8158C40.8079 33.7725 41.0139 32.1313 41.427 30.893C41.8397 29.6546 42.4843 28.7518 43.3621 28.184C44.2392 27.6165 45.3899 27.3325 46.8144 27.3325C48.2178 27.3325 49.3426 27.6217 50.189 28.1994C51.035 28.7773 51.6544 29.6806 52.0468 30.9085C52.4384 32.1367 52.6348 33.7725 52.6348 35.8158V38.5714C52.6348 40.5943 52.4438 42.22 52.0621 43.4478C51.6801 44.676 51.0607 45.574 50.2043 46.1413C49.3475 46.7089 48.1868 46.9928 46.7214 46.9928C45.2142 46.9928 44.0325 46.7036 43.1764 46.1258Z" fill="white"/>
<path d="M109.478 30.6286C109.261 30.897 109.116 31.3357 109.044 31.9443C108.972 32.5533 108.936 33.4769 108.936 34.7153V36.0776H112.063V34.7153C112.063 33.4978 112.022 32.5741 111.939 31.9443C111.857 31.3149 111.707 30.8714 111.491 30.6132C111.274 30.3551 110.938 30.226 110.484 30.226C110.03 30.226 109.694 30.3605 109.478 30.6286ZM108.936 38.6166V39.5765C108.936 40.7946 108.972 41.7078 109.044 42.3164C109.116 42.9254 109.266 43.3693 109.493 43.6481C109.72 43.9264 110.071 44.066 110.546 44.066C111.186 44.066 111.625 43.8182 111.862 43.3226C112.099 42.8273 112.228 42.0018 112.249 40.8456L115.933 41.0625C115.954 41.2282 115.964 41.4551 115.964 41.7435C115.964 43.4983 115.485 44.8091 114.525 45.676C113.565 46.5426 112.207 46.9762 110.453 46.9762C108.348 46.9762 106.872 46.316 106.026 44.9946C105.179 43.6741 104.756 41.6305 104.756 38.8644V35.5513C104.756 32.7029 105.195 30.6238 106.072 29.3125C106.949 28.002 108.451 27.3466 110.577 27.3466C112.042 27.3466 113.167 27.615 113.952 28.1515C114.736 28.6886 115.288 29.5245 115.608 30.6594C115.928 31.7948 116.088 33.3637 116.088 35.3656V38.6166H108.936Z" fill="white"/>
<path d="M32.7723 38.2613L27.9113 20.706H32.1529L33.8557 28.6632C34.2894 30.6245 34.6091 32.2964 34.8154 33.6789H34.9395C35.0838 32.6882 35.4038 31.0269 35.8992 28.6942L37.664 20.706H41.9056L36.9829 38.2613V46.6833H32.7723V38.2613Z" fill="white"/>
<path d="M66.4305 27.704V46.6832H63.0866L62.7149 44.3612H62.6222C61.7138 46.1155 60.3514 46.9926 58.5353 46.9926C57.2762 46.9926 56.3474 46.5802 55.7487 45.7543C55.15 44.9292 54.851 43.6387 54.851 41.8842V27.704H59.1237V41.6364C59.1237 42.4832 59.2167 43.0867 59.4023 43.4477C59.588 43.8092 59.8977 43.9895 60.3311 43.9895C60.7028 43.9895 61.0588 43.8763 61.3991 43.6487C61.7398 43.4218 61.9925 43.1334 62.1579 42.7822V27.704H66.4305Z" fill="white"/>
<path d="M88.3463 27.704V46.6832H85.0024L84.6307 44.3612H84.5384C83.6293 46.1155 82.2672 46.9926 80.4511 46.9926C79.192 46.9926 78.2632 46.5802 77.6645 45.7543C77.0658 44.9292 76.7668 43.6387 76.7668 41.8842V27.704H81.0394V41.6364C81.0394 42.4832 81.1321 43.0867 81.3178 43.4477C81.5038 43.8092 81.8135 43.9895 82.2469 43.9895C82.6186 43.9895 82.9746 43.8763 83.3149 43.6487C83.6556 43.4218 83.9083 43.1334 84.0737 42.7822V27.704H88.3463Z" fill="white"/>
<path d="M78.0402 24.1434H73.7985V46.6833H69.6189V24.1434H65.3772V20.7066H78.0402V24.1434Z" fill="white"/>
<path d="M98.5711 38.4795C98.5711 39.8625 98.5137 40.9463 98.4004 41.7303C98.2871 42.5152 98.0961 43.0723 97.8277 43.4022C97.5593 43.7326 97.1976 43.8976 96.7443 43.8976C96.3929 43.8976 96.0679 43.8154 95.7689 43.6498C95.4692 43.4848 95.2272 43.2373 95.0411 42.9067V32.1322C95.1855 31.6166 95.4332 31.1932 95.7842 30.8629C96.1352 30.5331 96.5166 30.3676 96.9296 30.3676C97.3633 30.3676 97.6983 30.538 97.936 30.8783C98.173 31.2189 98.3384 31.7917 98.4314 32.5969C98.5244 33.4017 98.5711 34.5473 98.5711 36.0334V38.4795ZM102.487 30.7377C102.229 29.5409 101.811 28.6741 101.233 28.137C100.655 27.6008 99.8605 27.3322 98.8494 27.3322C98.0651 27.3322 97.3323 27.5543 96.6513 27.9978C95.9702 28.4417 95.4435 29.0249 95.0722 29.7473H95.0408L95.0411 19.7466H90.9235V46.6828H94.4528L94.8865 44.8873H94.9791C95.3092 45.527 95.8045 46.0328 96.4652 46.4043C97.1256 46.7758 97.8587 46.9616 98.6638 46.9616C100.108 46.9616 101.171 46.2958 101.853 44.9646C102.534 43.6331 102.874 41.5539 102.874 38.7259V35.7226C102.874 33.5969 102.745 31.9353 102.487 30.7377Z" fill="white"/>
</svg>
