<svg width="36" height="36" viewBox="0 0 36 36" fill="none" xmlns="http://www.w3.org/2000/svg">
<path d="M19.4052 5.43096C19.6951 4.6474 20.8033 4.6474 21.0933 5.43096L22.1941 8.40593C23.1968 11.1157 25.3334 13.2523 28.0432 14.255L31.0182 15.3558C31.8017 15.6458 31.8017 16.754 31.0182 17.044L28.0432 18.1448C25.3334 19.1475 23.1968 21.2841 22.1941 23.9939L21.0933 26.9688C20.8033 27.7524 19.6951 27.7524 19.4052 26.9688L18.3043 23.9939C17.3016 21.2841 15.1651 19.1475 12.4552 18.1448L9.48027 17.044C8.69672 16.754 8.69672 15.6458 9.48027 15.3558L12.4552 14.255C15.1651 13.2523 17.3016 11.1157 18.3043 8.40593L19.4052 5.43096Z" fill="url(#paint0_radial_39915_50952)"/>
<path opacity="0.8" d="M7.43877 20.8988C7.54635 20.6081 7.95755 20.6081 8.06513 20.8988C8.80923 22.9097 10.3947 24.4952 12.4056 25.2393C12.6963 25.3469 12.6963 25.7581 12.4056 25.8657C10.3947 26.6098 8.80923 28.1952 8.06513 30.2061C7.95755 30.4969 7.54635 30.4969 7.43877 30.2061C6.69467 28.1952 5.10921 26.6098 3.09831 25.8657C2.80758 25.7581 2.80758 25.3469 3.09831 25.2393C5.10921 24.4952 6.69467 22.9097 7.43877 20.8988Z" fill="url(#paint1_radial_39915_50952)"/>
<path opacity="0.6" d="M29.7709 24.5302C29.8209 24.3949 30.0123 24.3949 30.0624 24.5302C30.6396 26.0901 31.8696 27.3201 33.4295 27.8973C33.5649 27.9474 33.5649 28.1388 33.4295 28.1889C31.8696 28.7661 30.6396 29.996 30.0624 31.556C30.0123 31.6913 29.8209 31.6913 29.7709 31.556C29.1936 29.996 27.9637 28.7661 26.4037 28.1889C26.2684 28.1388 26.2684 27.9474 26.4037 27.8973C27.9637 27.3201 29.1936 26.0901 29.7709 24.5302Z" fill="url(#paint2_radial_39915_50952)"/>
<path d="M28.7065 4.38529C28.7327 4.29091 28.8665 4.29091 28.8927 4.38529L28.9859 4.72102C29.3314 5.96582 30.1912 7.00426 31.3497 7.57584C31.411 7.60609 31.411 7.69352 31.3497 7.72377C30.1912 8.29535 29.3314 9.33379 28.9859 10.5786L28.8927 10.9143C28.8665 11.0087 28.7327 11.0087 28.7065 10.9143L28.6133 10.5786C28.2679 9.33379 27.408 8.29535 26.2495 7.72377C26.1882 7.69352 26.1882 7.60609 26.2495 7.57584C27.408 7.00426 28.2679 5.96582 28.6133 4.72102L28.7065 4.38529Z" fill="url(#paint3_radial_39915_50952)"/>
<defs>
<radialGradient id="paint0_radial_39915_50952" cx="0" cy="0" r="1" gradientUnits="userSpaceOnUse" gradientTransform="translate(15 6.5) rotate(49.7636) scale(25.5441 43.5813)">
<stop stop-color="#3FAAF6"/>
<stop offset="0.5" stop-color="#F359DC"/>
<stop offset="1" stop-color="#F28FB0"/>
</radialGradient>
<radialGradient id="paint1_radial_39915_50952" cx="0" cy="0" r="1" gradientUnits="userSpaceOnUse" gradientTransform="translate(5.53964 21.4644) rotate(49.7636) scale(10.7657 18.3676)">
<stop stop-color="#3FAAF6"/>
<stop offset="0.610577" stop-color="#F359DC"/>
<stop offset="1" stop-color="#F28FB0"/>
</radialGradient>
<radialGradient id="paint2_radial_39915_50952" cx="0" cy="0" r="1" gradientUnits="userSpaceOnUse" gradientTransform="translate(28.3451 25.1392) rotate(49.7636) scale(7.64729 13.0472)">
<stop stop-color="#3FAAF6"/>
<stop offset="0.610577" stop-color="#F359DC"/>
<stop offset="1" stop-color="#F28FB0"/>
</radialGradient>
<radialGradient id="paint3_radial_39915_50952" cx="0" cy="0" r="1" gradientTransform="matrix(3.41379 5.37931 -6.88332 7.7658 27.7136 4.97397)" gradientUnits="userSpaceOnUse">
<stop stop-color="#3FAAF6"/>
<stop offset="0.610577" stop-color="#F359DC"/>
<stop offset="1" stop-color="#F28FB0"/>
</radialGradient>
</defs>
</svg>
