<svg width="160" height="160" viewBox="0 0 160 160" fill="none" xmlns="http://www.w3.org/2000/svg">
<g opacity="0.5">
<path d="M43.3967 16.7261C43.6456 16.6273 43.929 16.7424 44.0383 16.9869C44.1475 17.2312 44.0444 17.5185 43.8049 17.6382L41.4182 18.8316C41.1785 18.9514 40.8869 18.8609 40.7571 18.6265C40.6274 18.3922 40.7053 18.0972 40.9338 17.9576C41.7313 17.471 42.5437 17.0646 43.3967 16.7261Z" fill="#11A3FD"/>
<path d="M30.7141 112.352C30.7142 110.6 31.242 109.264 32.4358 108.586C32.4459 108.581 32.4565 108.575 32.467 108.57L32.7688 108.426C32.7775 108.422 32.7862 108.417 32.7952 108.414C33.9284 107.951 35.2129 108.209 36.5774 109.007L97.9817 144.443L97.9836 144.444C99.4175 145.278 100.63 146.509 101.616 148.104L101.811 148.428L101.812 148.431C102.817 150.183 103.347 151.946 103.347 153.703C103.347 155.457 102.818 156.788 101.629 157.479L101.622 157.483C100.421 158.156 99.0007 157.943 97.4807 157.059L36.0784 121.612L36.0774 121.611C34.5493 120.722 33.2708 119.396 32.2502 117.64L32.2493 117.637C31.2442 115.885 30.7141 114.121 30.7141 112.352ZM31.7141 112.352C31.7141 113.913 32.1805 115.507 33.1155 117.137L33.2952 117.437C34.2073 118.912 35.3067 120.005 36.5784 120.746L97.9817 156.194L97.9836 156.195C99.347 156.988 100.365 157.039 101.13 156.612C101.88 156.174 102.347 155.277 102.347 153.703C102.347 152.155 101.881 150.561 100.946 148.93C99.9981 147.301 98.8362 146.097 97.4807 145.308L36.0793 109.874L36.0764 109.873C34.8505 109.154 33.9087 109.042 33.1819 109.335L32.9182 109.462C32.178 109.889 31.7142 110.781 31.7141 112.352Z" fill="#11A3FD"/>
<path d="M30.7141 42.7788C30.7141 30.4868 34.0645 22.1183 40.9358 17.9576L40.9709 17.938L43.3577 16.7447C43.3695 16.7387 43.3815 16.733 43.3938 16.7281C47.8917 14.9127 53.1106 15.0796 59.011 17.1656C61.6296 18.0827 64.3867 19.383 67.2795 21.0474C74.3499 25.131 80.5613 30.4691 85.8704 37.0454L86.3772 37.6734C88.8977 40.8315 91.1873 44.2659 93.301 47.9742C95.9913 52.6954 98.129 57.4594 99.7268 62.2788C102.144 69.4763 103.347 76.7566 103.347 84.1431C103.347 92.6514 100.835 99.9251 95.8137 105.923C95.651 106.127 95.457 106.339 95.3186 106.501L95.3147 106.505C93.5852 108.474 91.5645 110.307 89.2688 111.966C87.5703 113.227 85.7167 114.379 83.7102 115.461L83.7112 115.462L83.6194 115.514L83.6096 115.52C82.5112 116.116 81.3729 116.685 80.1819 117.227L80.1458 117.246C80.1382 117.249 80.13 117.253 80.1223 117.256C79.7246 117.43 79.2894 117.632 78.8518 117.805L78.8528 117.806C77.0258 118.614 75.0963 119.341 73.0803 120.026C72.1316 120.347 71.0968 120.384 70.0051 120.174C68.9207 119.966 67.8453 119.55 66.7805 118.936C65.7165 118.322 64.6617 117.509 63.6155 116.503C62.5657 115.494 61.5983 114.338 60.7268 113.038L60.7258 113.037C57.5747 108.323 54.6731 103.779 52.0198 99.4048C46.201 89.8164 41.5853 81.0219 38.177 73.021C33.2186 61.368 30.7141 51.2909 30.7141 42.7788ZM56.301 56.6675C56.301 53.3317 57.3331 50.9417 59.553 49.6773C59.9946 49.4208 60.4546 49.2329 60.9319 49.1158L61.2922 49.0298C62.9854 48.6835 64.8407 49.0963 66.8459 50.1587L67.2776 50.397L67.2805 50.398C70.1921 52.0772 72.6489 54.693 74.6887 58.2124C76.7297 61.7208 77.76 65.1514 77.76 68.4839C77.76 71.808 76.7269 74.2121 74.5042 75.4761L74.5032 75.4751C73.9563 75.7912 73.3673 76.0076 72.7639 76.1226L72.7629 76.1216C71.0629 76.47 69.199 76.0634 67.1858 74.979L66.7805 74.7525C63.869 73.0732 61.412 70.4578 59.3723 66.9517L59.3713 66.9507C57.331 63.4301 56.3011 60.0132 56.301 56.6675ZM57.301 56.6675C57.3011 59.8 58.2634 63.0454 60.2356 66.4488C62.2089 69.8407 64.5529 72.3131 67.2805 73.8863C69.3314 75.0709 71.0794 75.4484 72.5686 75.1412L72.5764 75.1402C73.0732 75.0456 73.5575 74.8677 74.0061 74.6079L74.009 74.606C75.7992 73.5881 76.76 71.612 76.76 68.4839C76.76 65.364 75.7966 62.1054 73.8245 58.7154C71.852 55.3119 69.5097 52.8393 66.7834 51.2661L66.3752 51.0415C64.3589 49.9734 62.6511 49.6834 61.1946 50.0806C61.19 50.0818 61.1855 50.0834 61.1809 50.0845C60.7975 50.1775 60.4222 50.3293 60.0549 50.5425L60.051 50.5445C58.2607 51.5626 57.301 53.5268 57.301 56.6675ZM31.7141 42.7788C31.7141 51.1059 34.1671 61.0425 39.0969 72.6285C42.4821 80.575 47.0735 89.3274 52.8743 98.8863C55.5193 103.247 58.414 107.778 61.5579 112.481C62.3913 113.725 63.3118 114.825 64.3079 115.783C65.3073 116.744 66.2989 117.504 67.2805 118.07C68.2616 118.636 69.2321 119.008 70.1936 119.193C71.0287 119.353 71.7876 119.342 72.4709 119.165L72.759 119.079C74.7557 118.4 76.6562 117.684 78.4485 116.892L78.467 116.884C78.8849 116.72 79.2788 116.533 79.7102 116.344L79.7512 116.325C79.7565 116.322 79.7625 116.319 79.7678 116.317C80.9338 115.786 82.0478 115.229 83.1233 114.646L83.2151 114.594L83.2258 114.587C85.202 113.521 87.0173 112.393 88.6731 111.165L88.679 111.161C90.9189 109.542 92.8837 107.757 94.5627 105.845C94.7373 105.642 94.8827 105.488 95.0334 105.299L95.0403 105.291C99.9021 99.4874 102.347 92.4434 102.347 84.1431C102.347 76.8675 101.163 69.6947 98.7795 62.5972L98.7786 62.5952C97.2027 57.8417 95.092 53.1375 92.4319 48.4693C90.2012 44.5558 87.7776 40.9597 85.0959 37.6792L85.094 37.6763C79.8593 31.1916 73.742 25.9344 66.7805 21.9136C63.9297 20.2735 61.23 19.0024 58.6819 18.1099L58.6799 18.1089C52.9415 16.0799 47.9883 15.9564 43.7815 17.6499L41.4387 18.8218C35.0212 22.7167 31.7141 30.6342 31.7141 42.7788Z" fill="#11A3FD"/>
<path d="M128.576 140.589C128.576 139.041 128.11 137.448 127.175 135.817C126.227 134.187 125.065 132.983 123.71 132.195L89.6091 112.513L83.7029 115.466L83.6194 115.514L83.6096 115.52C82.5163 116.113 81.383 116.679 80.198 117.219L80.1458 117.246C80.1382 117.249 80.13 117.253 80.1223 117.256C79.7187 117.433 79.2767 117.64 78.8328 117.815L78.8318 117.814C77.0106 118.618 75.0891 119.343 73.0803 120.026C72.1316 120.347 71.0968 120.384 70.0051 120.174C68.9207 119.966 67.8453 119.55 66.7805 118.936C65.7165 118.322 64.6617 117.509 63.6155 116.503C62.5657 115.494 61.5983 114.338 60.7268 113.038C57.67 108.465 54.8469 104.051 52.2585 99.798L35.1316 108.362C35.6019 108.501 36.0861 108.719 36.5808 109.009L97.9812 144.445L97.9832 144.446C99.4171 145.28 100.63 146.51 101.616 148.106L101.811 148.428L101.812 148.431C102.816 150.183 103.347 151.933 103.347 153.703C103.347 154.427 103.254 155.08 103.064 155.645L127.09 143.626L127.373 143.489C128.115 143.049 128.576 142.154 128.576 140.589ZM129.576 140.589C129.576 142.343 129.047 143.675 127.858 144.365C127.847 144.372 127.835 144.378 127.823 144.384L127.521 144.529L101.601 157.495C101.36 157.616 101.066 157.523 100.937 157.285C100.809 157.048 100.893 156.751 101.127 156.615C101.879 156.178 102.347 155.279 102.347 153.703C102.347 152.142 101.88 150.563 100.945 148.932C99.9975 147.302 98.8358 146.099 97.4802 145.31L36.0793 109.874L36.0764 109.873C34.8458 109.152 33.9015 109.043 33.1736 109.34C32.9248 109.442 32.64 109.328 32.5291 109.083C32.4181 108.838 32.5202 108.55 32.7605 108.43L52.2224 98.6984L52.3123 98.6643C52.5241 98.605 52.7561 98.6918 52.8743 98.8863C55.5193 103.247 58.414 107.778 61.5579 112.481C62.3913 113.725 63.3118 114.825 64.3079 115.783C65.3073 116.744 66.2989 117.504 67.2805 118.07C68.2616 118.636 69.2321 119.008 70.1936 119.193C71.0287 119.353 71.7876 119.342 72.4709 119.165L72.759 119.079C74.7557 118.4 76.6562 117.684 78.4485 116.892L78.467 116.884C78.8828 116.721 79.275 116.536 79.7039 116.348L79.7512 116.325L79.7678 116.317C80.9338 115.786 82.0478 115.229 83.1233 114.646L83.2151 114.594L83.239 114.58L89.4031 111.498C89.5533 111.423 89.7313 111.429 89.8767 111.513L124.211 131.329L124.213 131.33C125.647 132.165 126.859 133.395 127.845 134.99L128.04 135.315L128.041 135.318C129.046 137.069 129.576 138.833 129.576 140.589Z" fill="#11A3FD"/>
<path d="M56.301 56.6675C56.301 53.3317 57.3331 50.9417 59.553 49.6773C59.9988 49.4184 60.4633 49.23 60.9454 49.1132C62.7312 48.6308 64.7024 49.0244 66.8458 50.16L67.2776 50.397L67.2805 50.398C70.1921 52.0772 72.6489 54.693 74.6887 58.2124C76.7297 61.7208 77.76 65.1514 77.76 68.4839C77.76 71.808 76.7269 74.2121 74.5042 75.4761L74.5032 75.4751C73.9563 75.7912 73.3673 76.0076 72.7639 76.1226L72.7629 76.1216C70.9494 76.4932 68.9493 76.0053 66.7805 74.7525L66.7804 74.7538C63.8687 73.0745 61.4121 70.458 59.3723 66.9517C57.3319 63.431 56.301 60.0134 56.301 56.6675ZM57.301 56.6675C57.3011 59.8 58.2634 63.0454 60.2356 66.4488C62.0856 69.6289 64.2613 72.0016 66.7735 73.5819L67.2804 73.8876L67.6612 74.1005C69.5485 75.1169 71.1723 75.4304 72.5684 75.1424L72.5764 75.1402C73.0731 75.0456 73.5573 74.8689 74.0059 74.6092L74.0098 74.6073C75.7999 73.5893 76.76 71.612 76.76 68.4839C76.76 65.5591 75.9134 62.513 74.1827 59.3505L73.8245 58.7154C71.852 55.3119 69.5097 52.8393 66.7834 51.2661L66.3752 51.0415C64.3589 49.9734 62.6511 49.6834 61.1946 50.0806C61.19 50.0818 61.1855 50.0834 61.1809 50.0845C60.7975 50.1775 60.4222 50.3293 60.0549 50.5425L60.051 50.5445C58.2607 51.5626 57.301 53.5268 57.301 56.6675Z" fill="#11A3FD"/>
<path d="M128.576 71.0272C128.576 58.8866 125.271 46.9973 118.661 35.3534C112.051 23.6984 103.495 14.8603 93.0094 8.79773C82.5003 2.73489 74.0995 1.79953 67.6832 5.69714C67.6715 5.70425 67.6593 5.71152 67.6471 5.71765L47.8863 15.5966C51.2686 15.2104 54.9821 15.7404 59.0133 17.1659C61.6316 18.083 64.387 19.3832 67.2795 21.0474C74.3499 25.131 80.5613 30.4691 85.8704 37.0454L86.3772 37.6734C88.8977 40.8315 91.1873 44.2659 93.301 47.9742C95.9913 52.6954 98.129 57.4594 99.7268 62.2788C102.144 69.4763 103.347 76.7566 103.347 84.1431C103.347 92.6514 100.835 99.9251 95.8137 105.923C95.651 106.127 95.457 106.339 95.3186 106.501L95.3147 106.505C93.98 108.025 92.4694 109.461 90.7955 110.802L106.412 103.007C112.748 100.053 117.694 96.4348 121.27 92.1747C126.132 86.3715 128.576 79.3274 128.576 71.0272ZM129.576 71.0272C129.576 79.5398 127.062 86.8173 122.036 92.8173C118.346 97.2128 113.272 100.913 106.835 103.914L83.6861 115.474C83.4418 115.597 83.145 115.5 83.0191 115.258C82.8933 115.015 82.9856 114.717 83.2258 114.587C83.2304 114.585 83.2344 114.583 83.239 114.58L83.2447 114.576C85.2133 113.513 87.0228 112.389 88.6731 111.165L88.679 111.161C90.9171 109.544 92.88 107.759 94.5582 105.849C94.7345 105.644 94.8815 105.489 95.0334 105.299L95.0403 105.291C99.9021 99.4874 102.347 92.4434 102.347 84.1431C102.347 76.8675 101.163 69.6947 98.7795 62.5972L98.7786 62.5952C97.2027 57.8417 95.092 53.1375 92.4319 48.4693C90.2012 44.5558 87.7776 40.9597 85.0959 37.6792L85.094 37.6763C79.8593 31.1916 73.742 25.9344 66.7805 21.9136C63.9297 20.2735 61.23 19.0024 58.6819 18.1099L58.6799 18.1089C52.9356 16.0777 47.9778 15.9562 43.7681 17.6551C43.5194 17.7556 43.235 17.6418 43.1246 17.3973C43.0143 17.1527 43.1176 16.8647 43.3577 16.7447L67.1793 4.83288C73.8439 0.793834 82.3359 1.73719 92.5182 7.37194L93.5094 7.93249L94.5025 8.51843C104.705 14.6565 113.05 23.4339 119.53 34.8592C126.217 46.638 129.576 58.696 129.576 71.0272Z" fill="#11A3FD"/>
</g>
</svg>
