<svg width="160" height="160" viewBox="0 0 160 160" fill="none" xmlns="http://www.w3.org/2000/svg">
<g opacity="0.4">
<path d="M80.6804 56.4034C80.6804 51.8444 79.2887 47.1306 76.4626 42.2687C75.9495 41.3824 75.4137 40.5467 74.8591 39.7433L54.7468 49.8136H54.7449L52.907 50.7277L54.7732 51.8077L80.6804 66.7638V56.4034ZM81.6804 67.631C81.6802 67.8093 81.5848 67.9743 81.4304 68.0636C81.2758 68.1528 81.0851 68.1527 80.9304 68.0636L54.2722 52.674L51.6013 51.1281C51.442 51.0359 51.3455 50.8628 51.3513 50.6788C51.3572 50.495 51.4639 50.3291 51.6287 50.2472L54.2996 48.9181L74.8005 38.6544L74.8845 38.6212C75.0861 38.5625 75.3076 38.6368 75.4324 38.8136C76.0908 39.7464 76.7223 40.7216 77.3269 41.7658C80.2228 46.7478 81.6804 51.6338 81.6804 56.4034V67.631Z" fill="#11A3FD"/>
<path d="M55.8748 29.5968C58.8429 27.9008 62.3817 28.265 66.3708 30.464L66.7585 30.6818L66.7595 30.6827C70.0565 32.5944 72.9414 35.3046 75.4314 38.8126C75.5158 38.9316 75.5448 39.0812 75.5095 39.2228C75.4742 39.3644 75.3783 39.4836 75.2478 39.549L54.7468 49.8136H54.7449L52.074 51.1427C51.919 51.2197 51.7348 51.2114 51.5876 51.1202C51.4406 51.0291 51.3513 50.8675 51.3513 50.6945V39.4816C51.3513 35.3211 52.4578 32.2291 54.7898 30.3341L54.8611 30.2863C54.8631 30.2851 54.8649 30.2835 54.8669 30.2823C55.184 30.0269 55.5236 29.7992 55.8728 29.5978L55.8748 29.5968ZM52.3513 49.8868L54.2996 48.9181L74.2722 38.9181C71.9346 35.7423 69.2668 33.2928 66.2576 31.548C62.2704 29.2491 59.0015 28.9618 56.3708 30.465L56.3699 30.464C56.0392 30.6549 55.7246 30.8702 55.4373 31.1075C55.4146 31.1262 55.3902 31.1421 55.365 31.1564C53.3945 32.7921 52.3513 35.5169 52.3513 39.4816V49.8868Z" fill="#11A3FD"/>
<path d="M26.9031 103.887V47.8064C26.9031 44.6156 27.9032 42.3134 30.031 41.1062L30.0535 41.0945L30.6501 40.7956C30.6613 40.79 30.6728 40.7847 30.6843 40.78C32.6714 39.9671 34.9415 40.3615 37.4275 41.7995L41.574 44.1872V33.8259C41.574 25.9739 43.9821 20.5256 48.9714 17.6765C48.9793 17.672 48.9877 17.6679 48.9958 17.6638L50.1892 17.0671C50.1963 17.0635 50.2044 17.0606 50.2117 17.0573C54.9305 14.9744 60.4889 15.8464 66.7576 19.4675L66.7595 19.4685C67.4494 19.8701 68.1309 20.2942 68.8035 20.7351L69.4734 21.1814L69.4773 21.1843C73.0879 23.6829 76.3777 26.8234 79.3611 30.614L80.0076 31.445C81.5021 33.4093 82.9023 35.5392 84.2283 37.8327L84.6208 38.5163C85.0064 39.1984 85.372 39.8739 85.7292 40.5476L85.7312 40.5515C89.4759 47.7675 91.4008 54.8416 91.4558 61.7409V72.9812L96.0847 75.657L96.4509 75.8728C97.2991 76.3917 98.1012 77.0025 98.8572 77.6853C100.473 79.1342 101.913 80.939 103.17 83.1199L103.414 83.5447C103.652 83.9693 103.873 84.3933 104.072 84.8113C105.441 87.5929 106.113 90.2968 106.113 92.9587V149.052C106.113 152.229 105.127 154.531 102.986 155.752L102.985 155.753C100.86 156.958 98.356 156.653 95.5876 155.059L36.9294 121.188C34.1533 119.59 31.7903 117.091 29.8445 113.724C28.0211 110.569 27.0314 107.496 26.9148 104.488L26.9031 103.887ZM61.1267 112.429V101.504L51.6003 95.9949C50.1307 95.1448 48.9059 93.8694 47.9333 92.1921C46.9621 90.5171 46.4558 88.8315 46.4558 87.1413C46.4558 85.4709 46.9582 84.1787 48.115 83.5222L48.3347 83.407C49.4456 82.8811 50.7373 83.1267 52.1013 83.9157L54.7703 85.4607L61.1267 89.1228V78.7751C61.1268 77.1077 61.6145 75.8114 62.7771 75.154C63.9307 74.502 65.2985 74.705 66.7585 75.5495C68.2279 76.3995 69.453 77.6741 70.4255 79.365L70.6023 79.6794C71.4581 81.2508 71.903 82.8314 71.9031 84.4157V95.3532L72.2898 95.5759L81.4294 100.851L81.4363 100.855C81.6356 100.975 81.8662 101.112 82.0847 101.284C83.122 102.002 84.0073 102.961 84.7712 104.131L85.0935 104.649L85.0964 104.653C86.0693 106.331 86.5603 108.017 86.5603 109.718C86.5603 111.404 86.0701 112.667 84.9148 113.337L84.907 113.342L84.906 113.341C83.7377 113.991 82.3849 113.773 80.9285 112.93L71.9031 107.722V118.07C71.9031 119.743 71.3991 121.036 70.239 121.692L70.238 121.691C69.0804 122.359 67.7105 122.137 66.2576 121.297C64.7879 120.447 63.5631 119.171 62.5906 117.494L62.5896 117.493C61.6179 115.803 61.1267 114.117 61.1267 112.429ZM51.3503 39.4802C51.3504 35.3197 52.4576 32.2276 54.7898 30.3327L54.8601 30.2849C54.863 30.2832 54.8659 30.2816 54.8689 30.28C55.1852 30.0254 55.5235 29.7974 55.8718 29.5964L55.8738 29.5954C58.9376 27.8448 62.61 28.2896 66.7576 30.6814C69.8485 32.4736 72.5789 34.9675 74.9597 38.1628L75.4314 38.8113C76.0898 39.7439 76.7214 40.7203 77.3259 41.7644C80.2218 46.7464 81.6794 51.6325 81.6794 56.4021V67.6296C81.6794 67.8081 81.584 67.9729 81.4294 68.0622C81.2747 68.1516 81.0841 68.1515 80.9294 68.0622L51.6003 51.1267C51.4459 51.0373 51.3504 50.8725 51.3503 50.6941V39.4802ZM62.1267 89.989C62.1267 90.1675 62.0313 90.3323 61.8767 90.4216C61.7221 90.5109 61.5314 90.5117 61.3767 90.4226L54.2722 86.3269L51.6003 84.781C50.2895 84.0228 49.3294 83.9747 48.6169 84.3874L48.6121 84.3904C47.901 84.7923 47.4558 85.6412 47.4558 87.1413C47.4558 88.6241 47.8986 90.139 48.7986 91.6911C49.6972 93.2407 50.805 94.3788 52.1013 95.1286L61.8767 100.783C62.0312 100.872 62.1267 101.038 62.1267 101.217V112.429C62.1267 113.914 62.5571 115.428 63.4558 116.992C64.3545 118.542 65.4621 119.681 66.7585 120.43C68.0696 121.189 69.0295 121.237 69.7419 120.824L69.7468 120.821C70.4578 120.419 70.9031 119.57 70.9031 118.07V106.857C70.9031 106.679 70.9984 106.513 71.1531 106.424C71.3077 106.334 71.4984 106.334 71.6531 106.424L81.4294 112.064C82.7337 112.819 83.6831 112.873 84.4119 112.471C85.1277 112.056 85.5603 111.231 85.5603 109.718C85.5603 108.22 85.1305 106.707 84.2341 105.16L83.9343 104.677C83.2206 103.585 82.4136 102.722 81.4929 102.09C81.4841 102.084 81.475 102.077 81.4666 102.07C81.3055 101.944 81.129 101.837 80.9216 101.713L71.7908 96.4421L71.1541 96.0769C70.9989 95.9877 70.9031 95.8223 70.9031 95.6433V84.4157C70.903 82.9331 70.4602 81.4189 69.5603 79.8669L69.5593 79.865C68.6609 78.3026 67.5537 77.1645 66.2576 76.4148C64.9515 75.6594 63.9868 75.6186 63.2693 76.0241C62.5612 76.4244 62.1268 77.2703 62.1267 78.7751V89.989ZM52.3503 50.405L54.7712 51.8064L80.6794 66.7634V56.4021C80.6794 51.8431 79.2886 47.129 76.4626 42.2673L76.4617 42.2663C75.8734 41.2502 75.2579 40.3001 74.615 39.3894C72.1969 35.9829 69.4152 33.3771 66.2585 31.5466C62.2715 29.2474 59.0016 28.9593 56.3708 30.4616L56.3718 30.4626C56.0404 30.6538 55.7241 30.8684 55.4363 31.1062C55.4133 31.1252 55.3887 31.1415 55.363 31.156C53.3932 32.7918 52.3504 35.5163 52.3503 39.4802V50.405ZM42.574 45.0534C42.5739 45.232 42.4785 45.3967 42.324 45.4861C42.1694 45.5753 41.9786 45.5762 41.824 45.487L36.9294 42.6667L36.9285 42.6657C34.5936 41.3147 32.6639 41.0553 31.074 41.7009L30.5154 41.9812C28.825 42.9449 27.9031 44.8193 27.9031 47.8064V103.887L27.9138 104.448C28.0227 107.26 28.9493 110.175 30.7107 113.223C32.5885 116.473 34.8354 118.829 37.4285 120.322L96.0857 154.192C98.5243 155.596 100.528 155.821 102.169 155.05L102.492 154.883C104.201 153.907 105.113 152.031 105.113 149.052V92.9587C105.113 90.4699 104.485 87.914 103.172 85.2468L103.169 85.2409C102.918 84.7139 102.627 84.1705 102.307 83.6247L102.305 83.6218C101.095 81.5198 99.7168 79.8 98.1882 78.4294L98.1863 78.4275C97.3688 77.6892 96.5026 77.0474 95.5886 76.5251L95.5867 76.5232L90.7048 73.7029C90.5505 73.6135 90.4558 73.4486 90.4558 73.2702V61.7488L90.4451 61.1189C90.2831 54.602 88.4142 47.8932 84.8435 41.0124C84.3716 40.1226 83.8874 39.2348 83.364 38.3357L83.363 38.3337C81.8685 35.7487 80.2826 33.3828 78.5779 31.2351L78.5759 31.2341C75.6477 27.5134 72.4291 24.4433 68.908 22.0066C68.0362 21.4166 67.1527 20.8538 66.2576 20.3327C60.1391 16.7983 54.9358 16.069 50.6267 17.9656L49.4617 18.5486C44.9095 21.1512 42.574 26.1699 42.574 33.8259V45.0534Z" fill="#11A3FD"/>
<path d="M85.5611 109.719C85.5611 108.222 85.1314 106.708 84.2349 105.161C83.5083 103.938 82.6813 102.97 81.7291 102.259L72.4595 106.889L81.4302 112.066L81.6714 112.2C82.8576 112.828 83.7372 112.85 84.4214 112.468C85.1321 112.052 85.561 111.215 85.5611 109.719ZM86.5611 109.719C86.561 111.391 86.0715 112.668 84.9156 113.338L84.9087 113.342C83.7405 113.993 82.3867 113.774 80.9302 112.931L71.1539 107.291C70.9947 107.199 70.8985 107.027 70.9039 106.843C70.9094 106.659 71.0157 106.493 71.1802 106.411L81.5533 101.231L81.6158 101.205C81.7638 101.154 81.9291 101.176 82.0601 101.266C83.2584 102.089 84.2532 103.234 85.0943 104.65L85.0972 104.655C86.0701 106.333 86.5611 108.018 86.5611 109.719Z" fill="#11A3FD"/>
<path d="M61.1275 112.431V101.218C61.1275 101.029 61.2345 100.856 61.4039 100.771L71.8169 95.5638L71.8746 95.5394C72.0113 95.4912 72.1632 95.505 72.2906 95.5784L81.4302 100.853L81.4371 100.857C81.6362 100.976 81.867 101.114 82.0855 101.285C82.2202 101.391 82.2913 101.559 82.274 101.73C82.2565 101.9 82.1527 102.05 81.9996 102.126L71.9039 107.167V118.072C71.9039 119.744 71.3997 121.038 70.2398 121.694L70.239 121.692C69.0813 122.36 67.7113 122.139 66.2584 121.298C64.7887 120.448 63.5639 119.173 62.5914 117.495L62.5906 117.494C61.6189 115.804 61.1275 114.119 61.1275 112.431ZM62.1275 112.431C62.1275 113.916 62.5576 115.431 63.4566 116.994L63.6275 117.28C64.4944 118.685 65.5438 119.73 66.7593 120.433C68.0702 121.191 69.0303 121.238 69.7427 120.826L69.7476 120.824C70.4587 120.422 70.9039 119.572 70.9039 118.072V106.859C70.9039 106.669 71.0108 106.495 71.1802 106.411L80.7662 101.624L72.024 96.5775L62.1275 101.527V112.431Z" fill="#11A3FD"/>
<path d="M48.1195 83.5214C49.2773 82.8528 50.6478 83.0764 52.1009 83.9169L54.7718 85.4618L61.6439 89.4228L71.1791 84.6611C71.3339 84.5837 71.5181 84.5926 71.6654 84.6835C71.8126 84.7746 71.9026 84.9352 71.9027 85.1083V95.3544L72.2894 95.5771C72.4488 95.6688 72.5455 95.8405 72.5404 96.0243C72.5351 96.2084 72.4287 96.3756 72.264 96.4579L61.8499 101.664C61.6997 101.739 61.5218 101.734 61.3763 101.65L51.5999 95.996C50.1303 95.1459 48.9055 93.8706 47.933 92.1933C46.9618 90.5183 46.4554 88.8326 46.4554 87.1425C46.4554 85.4698 46.9594 84.1771 48.1195 83.5214ZM47.4554 87.1425C47.4554 88.6251 47.8987 90.1391 48.7986 91.6911C49.6972 93.2409 50.8045 94.3799 52.1009 95.1298L61.6429 100.648L71.0179 95.9618C70.9452 95.8737 70.9027 95.7623 70.9027 95.6445V85.9169L61.8499 90.4374C61.6999 90.5123 61.522 90.5063 61.3767 90.4226L54.2718 86.328L51.5999 84.7822C50.289 84.0239 49.329 83.9757 48.6166 84.3886L48.6117 84.3915C47.9006 84.7934 47.4554 85.6423 47.4554 87.1425Z" fill="#11A3FD"/>
<path d="M61.1267 78.7751C61.1268 77.1077 61.6145 75.8114 62.7771 75.154C63.9307 74.502 65.2985 74.705 66.7585 75.5495C68.2279 76.3995 69.453 77.6741 70.4255 79.365L70.6023 79.6794C71.4581 81.2508 71.903 82.8314 71.9031 84.4157L71.9039 85.1077C71.9039 85.2971 71.7968 85.4703 71.6275 85.555L61.8511 90.4368C61.6962 90.5142 61.5121 90.5054 61.3648 90.4144C61.2175 90.3233 61.1276 90.1627 61.1275 89.9896L61.1267 78.7751ZM62.1275 89.18L70.9039 84.7982L70.9031 84.4157C70.903 82.9331 70.4602 81.4189 69.5603 79.8669L69.5593 79.865C68.6609 78.3026 67.5537 77.1645 66.2576 76.4148C64.9515 75.6594 63.9868 75.6186 63.2693 76.0241C62.5612 76.4244 62.1268 77.2703 62.1267 78.7751L62.1275 89.18Z" fill="#11A3FD"/>
<path d="M41.8505 35.1974C42.0054 35.12 42.1895 35.1279 42.3369 35.2189C42.4843 35.31 42.5742 35.4714 42.5742 35.6447V45.0548C42.5742 45.2333 42.4787 45.3981 42.3242 45.4874C42.1696 45.5768 41.9789 45.5775 41.8242 45.4884L36.9296 42.6681L36.9294 42.6667C34.5892 41.3126 32.6554 41.056 31.0634 41.7072C30.8147 41.8089 30.53 41.696 30.4189 41.4513C30.3078 41.2065 30.4099 40.9172 30.6503 40.797L41.8505 35.1974ZM33.6425 40.4181C34.8359 40.566 36.1011 41.0335 37.4277 41.8009L41.5742 44.1896V36.4532L33.6425 40.4181Z" fill="#11A3FD"/>
<path d="M132.233 135.495V79.4003C132.233 76.4152 131.317 73.3145 129.426 70.0654L129.425 70.0644C127.547 66.8283 125.3 64.4717 122.705 62.9648L118.057 60.2782L92.0099 73.3017L96.0861 75.6572L96.4523 75.874C97.2998 76.3925 98.1017 77.003 98.8572 77.6853L99.1574 77.9609C100.652 79.361 101.992 81.0752 103.17 83.1199C103.5 83.6838 103.805 84.2509 104.069 84.8066L104.319 85.3271C105.522 87.9277 106.113 90.4616 106.113 92.9587L106.113 149.054C106.113 150.846 105.799 152.359 105.141 153.558L129.037 141.61L129.618 141.318C131.323 140.341 132.233 138.468 132.233 135.495ZM133.233 135.495C133.233 138.671 132.246 140.972 130.106 142.193C130.098 142.198 130.089 142.202 130.081 142.206L102.963 155.766C102.721 155.887 102.426 155.792 102.298 155.554C102.17 155.315 102.256 155.018 102.491 154.884C104.201 153.908 105.113 152.033 105.113 149.054L105.113 92.9587C105.113 90.47 104.486 87.915 103.172 85.248L103.169 85.2421C102.919 84.7152 102.627 84.1715 102.308 83.6259L102.305 83.6218C101.095 81.5198 99.7168 79.8 98.1882 78.4294C97.3707 77.691 96.504 77.0476 95.59 76.5253L95.5886 76.5251L90.7062 73.704C90.5471 73.6121 90.4509 73.4404 90.4562 73.2568C90.4617 73.0729 90.5681 72.9065 90.7326 72.8241L98.1759 69.0956L98.1769 69.0947L117.852 59.2646L117.909 59.2402C118.046 59.1922 118.198 59.2058 118.325 59.2792L123.206 62.0995C125.981 63.7112 128.344 66.2089 130.29 69.5624L130.646 70.1923C132.369 73.3385 133.233 76.4023 133.233 79.4003V135.495Z" fill="#11A3FD"/>
<path d="M117.575 48.4993C117.575 41.0885 115.366 33.4292 110.92 25.5413L110.483 24.7767C105.758 16.6193 100.053 10.6285 93.3773 6.77571C86.7066 2.91801 81.1303 2.39845 76.5863 4.98762C76.5784 4.9921 76.57 4.99627 76.5619 5.00032L54.5951 15.9837C58.2656 15.7293 62.3351 16.914 66.7582 19.4691L66.7601 19.47C67.6799 20.0054 68.5841 20.5812 69.473 21.1829L69.4769 21.1859C73.0879 23.6848 76.379 26.8253 79.3626 30.6165C81.1011 32.8069 82.7133 35.2124 84.2283 37.8327C84.4949 38.2909 84.7512 38.7464 85.0003 39.1986L85.7298 40.5491L85.7318 40.5531C89.4764 47.769 91.4004 54.8432 91.4554 61.7425V72.4613L117.575 59.4027V48.4993ZM118.575 59.7122C118.575 59.9015 118.467 60.0747 118.298 60.1595L91.18 73.7191C91.025 73.7967 90.8402 73.7887 90.6927 73.6976C90.5452 73.6065 90.4554 73.4451 90.4554 73.2718V61.7503C90.4019 55.0373 88.5306 48.1192 84.846 41.0179C84.3734 40.1266 83.8888 39.2379 83.3646 38.3372L83.364 38.3357C81.8695 35.7505 80.2823 33.3844 78.5775 31.2366L78.5765 31.2357C75.6495 27.5164 72.432 24.4473 68.9125 22.0111C68.0388 21.4197 67.1532 20.8564 66.2562 20.3343C60.1331 16.7976 54.9265 16.0701 50.6156 17.973C50.3673 18.0826 50.0769 17.9743 49.9613 17.7288C49.8457 17.4832 49.947 17.1901 50.1898 17.0687L76.1019 4.11165C81.0738 1.28473 87.0469 1.96096 93.8753 5.9095C100.732 9.86675 106.553 15.9987 111.347 24.2747C116.154 32.551 118.575 40.6375 118.575 48.4993V59.7122Z" fill="#11A3FD"/>
</g>
</svg>
