<svg width="1512" height="565" viewBox="0 0 1512 565" fill="none" xmlns="http://www.w3.org/2000/svg">
<g opacity="0.3" filter="url(#filter0_f_40232_78752)">
<path d="M736.265 138.755C838.593 138.755 863.847 -24.2945 863.847 -126.412C863.847 -228.53 1107.76 -290.479 966.343 -356.104C900.71 -386.56 849.888 -378.426 781.062 -356.104C617.566 -303.078 550.984 -148.263 550.984 -46.1455C550.984 55.972 633.937 138.755 736.265 138.755Z" fill="#BF0053"/>
</g>
<g filter="url(#filter1_f_40232_78752)">
<path d="M789.216 -358.059C845.494 -423.269 893.103 -528.305 891.704 -614.426C887.251 -888.669 277.943 -638.418 147.677 -397.039C36.8176 -191.621 -74.1251 217.659 158.685 234.855C306.323 245.76 466.522 197.762 529.978 64.0267C567.64 -15.3476 552.624 -145.982 605.379 -216.239C646.646 -271.197 744.312 -306.029 789.216 -358.059Z" fill="#B1F2EB"/>
</g>
<g filter="url(#filter2_f_40232_78752)">
<ellipse cx="1233.28" cy="-74.7578" rx="352.284" ry="352.242" fill="#CFEDFD"/>
</g>
<g opacity="0.3" filter="url(#filter3_f_40232_78752)">
<ellipse cx="1041.27" cy="-43.4672" rx="86.0104" ry="86.0001" fill="#BF0053"/>
</g>
<defs>
<filter id="filter0_f_40232_78752" x="264.283" y="-662.713" width="1032.87" height="1088.17" filterUnits="userSpaceOnUse" color-interpolation-filters="sRGB">
<feFlood flood-opacity="0" result="BackgroundImageFix"/>
<feBlend mode="normal" in="SourceGraphic" in2="BackgroundImageFix" result="shape"/>
<feGaussianBlur stdDeviation="143.351" result="effect1_foregroundBlur_40232_78752"/>
</filter>
<filter id="filter1_f_40232_78752" x="-265.002" y="-1020.85" width="1443.44" height="1543.9" filterUnits="userSpaceOnUse" color-interpolation-filters="sRGB">
<feFlood flood-opacity="0" result="BackgroundImageFix"/>
<feBlend mode="normal" in="SourceGraphic" in2="BackgroundImageFix" result="shape"/>
<feGaussianBlur stdDeviation="143.351" result="effect1_foregroundBlur_40232_78752"/>
</filter>
<filter id="filter2_f_40232_78752" x="594.299" y="-713.701" width="1277.97" height="1277.89" filterUnits="userSpaceOnUse" color-interpolation-filters="sRGB">
<feFlood flood-opacity="0" result="BackgroundImageFix"/>
<feBlend mode="normal" in="SourceGraphic" in2="BackgroundImageFix" result="shape"/>
<feGaussianBlur stdDeviation="143.351" result="effect1_foregroundBlur_40232_78752"/>
</filter>
<filter id="filter3_f_40232_78752" x="740.232" y="-344.493" width="602.073" height="602.052" filterUnits="userSpaceOnUse" color-interpolation-filters="sRGB">
<feFlood flood-opacity="0" result="BackgroundImageFix"/>
<feBlend mode="normal" in="SourceGraphic" in2="BackgroundImageFix" result="shape"/>
<feGaussianBlur stdDeviation="107.513" result="effect1_foregroundBlur_40232_78752"/>
</filter>
</defs>
</svg>
