<svg width="1448" height="344" viewBox="0 0 1448 344" fill="none" xmlns="http://www.w3.org/2000/svg">
<path opacity="0.3" d="M210.816 96.9623C122.985 45.1648 21.1683 72.5649 -23.4038 96.9623V367.21H1471.4L1467.67 0C1452.66 16.4213 1413.63 56.1012 1368.12 94.3863C1311.23 142.243 1289.82 199.373 1151.08 223.719C1015.8 247.456 1019.58 251.792 901.35 264.459C783.117 277.127 792.969 208.158 677.551 208.158C562.133 208.158 523.74 321.693 407.787 264.459C303.936 213.2 320.604 161.709 210.816 96.9623Z" fill="url(#paint0_linear_7732_143006)"/>
<path opacity="0.2" d="M220.101 174.042C132.27 122.244 21.1683 158.09 -23.4038 182.487V452.735H1471.4V99.4421C1456.39 115.863 1414.99 158.277 1369.48 196.562C1312.59 244.419 1305.31 262.717 1164.56 268.347C1023.81 273.977 1019.58 337.316 901.35 349.984C783.117 362.652 792.969 293.683 677.551 293.683C562.133 293.683 558.757 326.056 447.562 293.683C336.366 261.309 329.889 238.789 220.101 174.042Z" fill="url(#paint1_linear_7732_143006)"/>
<path opacity="0.2" d="M220.101 237.175C123.778 203.723 21.1683 221.223 -23.4038 245.621V515.868H1471.4V203.392C1456.39 219.813 1426.43 236.131 1377.11 264.964C1312.94 302.485 1264 305.75 1123.24 311.38C982.49 317.01 940.246 326.183 822.013 338.851C703.779 351.519 792.969 356.816 677.551 356.816C562.133 356.816 585.561 343.754 474.365 311.38C363.169 279.007 346.484 281.068 220.101 237.175Z" fill="url(#paint2_linear_7732_143006)"/>
<defs>
<linearGradient id="paint0_linear_7732_143006" x1="724" y1="13.9172" x2="724" y2="367.21" gradientUnits="userSpaceOnUse">
<stop stop-color="#F9CE7A"/>
<stop offset="1" stop-color="#F9CE7A" stop-opacity="0"/>
</linearGradient>
<linearGradient id="paint1_linear_7732_143006" x1="724" y1="99.4421" x2="724" y2="452.735" gradientUnits="userSpaceOnUse">
<stop stop-color="#F9CE7A"/>
<stop offset="1" stop-color="#F9CE7A" stop-opacity="0"/>
</linearGradient>
<linearGradient id="paint2_linear_7732_143006" x1="724" y1="162.576" x2="724" y2="515.869" gradientUnits="userSpaceOnUse">
<stop stop-color="#F9CE7A"/>
<stop offset="1" stop-color="#F9CE7A" stop-opacity="0"/>
</linearGradient>
</defs>
</svg>
