<svg width="80" height="234" viewBox="0 0 80 234" fill="none" xmlns="http://www.w3.org/2000/svg">
<path d="M40.4684 -27.8693L39.7828 -28C39.5086 -27.7387 39.5086 -27.7387 39.4744 -27.3896L39.4745 -26.9347C39.4734 -26.6646 39.4727 -26.3946 39.4737 -26.1245C39.4745 -25.9242 39.4747 -25.7239 39.4745 -25.5235C39.4734 -24.9693 39.4732 -24.4151 39.4743 -23.8609C39.4756 -23.2505 39.4756 -22.6401 39.4752 -22.0296C39.4744 -20.9605 39.4744 -19.8913 39.4755 -18.8222C39.4771 -17.2187 39.4777 -15.6153 39.4775 -14.0118C39.4771 -11.3165 39.4777 -8.62116 39.4793 -5.92584C39.4809 -3.24157 39.4822 -0.557299 39.4825 2.12697L39.4826 2.63127L39.4828 5.16781L39.4835 10.3241L39.4836 10.8459C39.4843 15.0371 39.486 19.2282 39.4878 23.4194L39.4896 27.7863L39.4898 28.0599C39.4915 32.2567 39.4926 36.4536 39.4934 40.6504L39.4936 41.4678L39.4946 46.8862L39.4968 57.6731L39.497 58.187C39.4995 69.5498 39.5038 80.9125 39.5084 92.2753L39.5086 92.5917L39.2234 92.6152L38.8493 92.6479C38.4283 92.6837 38.1175 92.7294 37.7176 92.8694C36.1626 93.8151 35.0636 94.9039 34.5726 96.642C34.3632 98.3925 34.7319 99.7839 35.8467 101.204C36.5909 102.069 37.8094 102.775 38.9859 102.897L39.5086 102.913V104.35C39.1231 104.345 38.7377 104.341 38.3522 104.338L37.8804 104.334L37.4117 104.327L36.9645 104.325C36.5511 104.321 36.5511 104.321 36.2179 104.35C35.9437 104.612 35.9437 104.612 35.9169 104.923L35.9265 105.281L35.934 105.642L35.9437 105.918C35.6372 105.916 35.3308 105.913 35.0243 105.912L34.6497 105.91L34.2767 105.907L33.9218 105.905C33.7274 105.904 33.5327 105.907 33.3386 105.918C33.2015 106.049 33.2015 106.049 33.1881 106.405L33.1929 106.841L33.1966 107.278L33.2015 107.617C27.0897 107.617 20.0275 111.641 15.385 115.112L15.1027 115.325C14.1776 116.019 13.3072 116.742 12.4728 117.534L12.0948 117.897C11.0532 118.896 10.0308 119.902 9.10387 121L8.93268 121.205C7.43833 122.973 6.11818 124.835 4.92914 126.802L4.68222 127.215C4.68222 127.215 4.15414 128.157 3.78261 128.919C3.41109 129.68 2.9544 130.917 2.9544 130.917L2.81408 131.237L2.65886 131.604C1.28447 134.792 0.518261 138.155 0.160006 141.579C-0.739144 151.143 2.15903 161.335 8.65846 168.778C8.99703 169.157 9.33445 169.534 9.66163 169.922C12.7249 173.572 16.9428 176.599 21.2394 178.796L21.547 178.953C26.6993 181.577 32.4095 182.976 38.2317 183.215L39.6457 183.264V189.274C37.3327 189.274 35.3681 189.914 33.3964 191.045C30.8791 192.625 28.9943 195.119 28.2691 197.906L28.1969 198.208C27.9912 199.064 27.9912 199.064 27.9912 200.772H52.1229C52.1229 198.606 51.6801 196.919 50.6113 195.037C49.025 192.37 46.3707 190.461 43.285 189.623L42.945 189.535C42.5318 189.429 42.1269 189.328 41.7024 189.274H40.4684V183.264C48.9133 182.975 57.0783 180.738 63.8673 175.766C64.1009 175.592 64.3344 175.419 64.57 175.248C66.4035 173.92 68.0344 172.462 69.5789 170.836L69.8103 170.591C74.8352 165.29 78.1913 158.756 79.4874 151.712L79.5452 151.385C79.9026 149.407 79.9929 147.447 79.9988 145.443L79.9994 145.065C80.0083 142.889 79.9254 140.718 79.5052 138.574L79.4424 138.279C78.4689 133.612 76.758 129.149 74.0884 125.109L73.9236 124.863C73.1733 123.736 72.3802 122.648 71.5118 121.601L71.1814 121.205C69.4283 119.029 67.25 117.022 64.9771 115.339L64.6 115.064C60.5877 112.062 56.0017 109.752 51.0645 108.48L50.7517 108.401C49.5754 108.097 48.401 107.833 47.1954 107.656L46.9126 107.617L46.9174 107.278L46.9212 106.841C46.9241 106.577 46.9225 106.313 46.9126 106.049C46.7755 105.918 46.7755 105.918 46.5208 105.903L46.1922 105.905L45.8374 105.907L45.4644 105.91C45.112 105.912 44.7597 105.913 44.4073 105.916L44.1704 105.918L44.18 105.642L44.1875 105.281V105.281C44.1972 104.923 44.1972 104.923 44.1704 104.612C43.8962 104.35 43.8962 104.35 43.5504 104.321L43.1196 104.325L42.6536 104.327L42.1651 104.334L41.2086 104.341L40.4684 104.35V102.913C40.8886 102.932 41.2223 102.937 41.6204 102.799L41.9766 102.652C42.6712 102.368 43.3116 102.076 43.8619 101.574C45.0226 100.366 45.6231 99.1471 45.5624 97.4937L45.5415 97.1646C45.5082 96.5722 45.3573 96.092 45.1216 95.5477C44.4582 94.2368 43.4176 93.2497 41.9766 92.7224L40.4684 92.5917V-27.8693Z" fill="#FFB36E"/>
<path d="M40.8796 108.008C41.3156 108.21 41.6312 108.472 41.9765 108.792C42.0546 108.854 42.1328 108.916 42.2133 108.979C45.3708 111.631 46.3795 116.968 47.1868 120.682C47.2332 120.889 47.2796 121.096 47.326 121.303C47.6124 122.604 47.8533 123.912 48.0866 125.222C48.1137 125.372 48.1408 125.523 48.1688 125.678C48.6172 128.246 48.8961 130.825 49.0899 133.421C49.1234 133.869 49.1584 134.316 49.1936 134.763C49.4556 138.148 49.5506 141.525 49.5519 144.918C49.552 145.015 49.5521 145.111 49.5522 145.211C49.5555 150.857 49.3076 156.494 48.5579 162.098C48.5358 162.266 48.5137 162.433 48.4909 162.605C48.1945 164.805 47.7982 166.982 47.3239 169.154C47.2961 169.281 47.2684 169.409 47.2398 169.54C46.8913 171.124 46.4688 172.667 45.9254 174.2C45.8126 174.519 45.703 174.839 45.5934 175.158C44.6761 177.79 43.5865 180.645 41.0253 182.202C40.3703 182.432 39.8446 182.474 39.1979 182.235C37.1129 181.211 36.1347 179.092 35.2581 177.123C35.1934 176.979 35.1934 176.979 35.1274 176.832C33.2288 172.525 32.2873 167.727 31.7378 163.099C31.6864 162.699 31.6249 162.302 31.563 161.903C30.7347 156.432 30.5725 150.933 30.5627 145.415C30.562 145.088 30.5609 144.761 30.5598 144.435C30.5473 140.325 30.7081 136.229 31.1361 132.138C31.1603 131.9 31.1844 131.663 31.2084 131.425C31.3877 129.67 31.5774 127.916 31.8303 126.169C31.8478 126.045 31.8654 125.922 31.8835 125.794C32.3816 122.365 33.1193 118.866 34.2983 115.586C34.3348 115.484 34.3713 115.381 34.4089 115.275C35.1304 113.272 35.9305 111.255 37.3147 109.576C37.3704 109.502 37.4261 109.428 37.4834 109.351C38.3483 108.251 39.4445 107.73 40.8796 108.008Z" fill="#D43316"/>
<path d="M37.4517 108.27C37.3951 108.326 37.3386 108.381 37.2803 108.439C34.1785 111.639 33.1587 116.292 32.1702 120.409C32.1035 120.685 32.0351 120.96 31.9666 121.236C31.5834 122.798 31.3157 124.37 31.076 125.957C31.0554 126.092 31.0349 126.227 31.0137 126.366C30.5938 129.145 30.2876 131.927 30.0729 134.726C30.0491 135.035 30.0241 135.344 29.999 135.653C29.4952 141.985 29.4928 148.542 30.0225 154.872C30.0496 155.197 30.0754 155.523 30.1012 155.848C30.4607 160.322 30.9642 164.817 32.0214 169.195C32.1094 169.567 32.1905 169.94 32.2704 170.314C32.617 171.924 33.0425 173.482 33.6125 175.033C33.6578 175.157 33.7031 175.281 33.7497 175.409C34.5164 177.491 35.3183 179.638 36.847 181.335C37.0476 181.574 37.1815 181.811 37.3146 182.088C32.9749 181.751 29.0305 179.193 25.9886 176.385C25.816 176.226 25.641 176.07 25.4657 175.913C21.5384 172.33 18.5663 167.009 17.022 162.099C16.957 161.913 16.8913 161.728 16.8249 161.543C16.7535 161.336 16.6821 161.13 16.6107 160.923C16.5616 160.785 16.5124 160.647 16.4618 160.505C15.5142 157.753 14.9348 154.908 14.554 152.038C14.5333 151.884 14.5126 151.73 14.4913 151.57C13.7085 145.485 13.9954 139.154 15.4624 133.175C15.4968 133.035 15.5312 132.894 15.5666 132.75C16.7965 127.881 18.7221 122.577 21.9516 118.552C22.158 118.293 22.3546 118.034 22.5472 117.766C23.2515 116.79 24.0105 115.911 24.8701 115.056C25.1291 114.798 25.373 114.533 25.6103 114.257C25.949 113.871 26.301 113.563 26.7023 113.239C26.9421 113.045 27.178 112.847 27.4115 112.646C29.8231 110.594 32.8062 109.089 35.9434 108.36C36.0453 108.336 36.1472 108.312 36.2521 108.287C36.9905 108.123 36.9905 108.123 37.4517 108.27Z" fill="#D43316"/>
<path d="M42.6621 108.14C47.1172 108.947 50.6381 110.768 53.9053 113.758C53.9825 113.828 54.0598 113.898 54.1395 113.97C55.3179 115.044 56.3659 116.165 57.3331 117.416C57.4167 117.522 57.5003 117.629 57.5864 117.738C59.7298 120.558 61.3852 123.708 62.6804 126.954C62.7196 127.05 62.7588 127.147 62.7991 127.246C63.3956 128.726 63.8254 130.24 64.2217 131.779C64.3254 132.178 64.4332 132.577 64.5411 132.975C65.142 135.256 65.4592 137.551 65.6969 139.888C65.7088 140.004 65.7207 140.12 65.733 140.239C65.826 141.205 65.856 142.163 65.857 143.132C65.8575 143.288 65.8579 143.444 65.8584 143.605C65.8591 143.934 65.8594 144.262 65.8594 144.591C65.8597 145.083 65.8622 145.576 65.8648 146.068C65.8716 148.752 65.7003 151.377 65.2177 154.022C65.165 154.312 65.1146 154.601 65.0643 154.891C64.7573 156.633 64.3826 158.37 63.803 160.049C63.7687 160.151 63.7344 160.252 63.6991 160.356C62.8044 162.976 61.8355 165.537 60.4866 167.978C60.4298 168.082 60.3731 168.185 60.3146 168.291C59.1898 170.326 57.9307 172.227 56.3733 173.988C56.3123 174.058 56.2514 174.128 56.1886 174.199C54.8656 175.71 53.4897 177.095 51.8486 178.3C51.7772 178.352 51.7059 178.405 51.6323 178.459C49.2477 180.197 45.896 182.089 42.7992 182.089C43.0048 181.658 43.2679 181.311 43.5705 180.937C44.9064 179.187 45.6406 177.304 46.3689 175.27C46.4772 174.97 46.5884 174.671 46.7026 174.372C48.9822 168.245 49.5675 161.353 50.0661 154.913C50.0746 154.805 50.083 154.697 50.0918 154.585C50.5834 148.204 50.5292 141.696 50.0661 135.315C50.052 135.114 50.0379 134.913 50.0238 134.712C49.3649 125.256 49.2769 122.931 47.6716 117.416C46.9828 115.05 46.3086 112.137 43.3477 109.054C43.2129 108.875 43.0786 108.695 42.9449 108.515C42.8049 108.329 42.8049 108.329 42.6621 108.14Z" fill="#D43316"/>
<path d="M31.9673 108.793C31.6833 109.063 31.4808 109.158 31.1189 109.315C27.6497 110.937 24.6527 113.698 22.3695 116.632C22.3097 116.708 22.25 116.785 22.1884 116.864C21.3635 117.926 20.5983 119.016 19.9015 120.159C19.8448 120.252 19.788 120.345 19.7296 120.44C18.4009 122.625 17.2582 124.907 16.4785 127.325C16.3366 127.737 16.3366 127.737 16.1416 128.156C14.6987 131.295 14.1145 135.063 13.7314 138.451C13.7204 138.54 13.7094 138.629 13.698 138.72C13.4669 140.598 13.4145 142.458 13.4215 144.348C13.4229 144.818 13.4215 145.287 13.4197 145.757C13.418 148.372 13.5568 150.979 13.98 153.566C14.0147 153.783 14.0147 153.783 14.0501 154.005C14.2833 155.412 14.5963 156.799 14.9655 158.179C15.0046 158.326 15.0437 158.473 15.084 158.624C15.4173 159.847 15.8042 161.048 16.2252 162.246C16.258 162.339 16.2908 162.433 16.3246 162.529C18.0593 167.457 20.6507 172.155 24.4262 175.948C24.5841 176.124 24.7413 176.301 24.8975 176.479C26.3759 178.087 28.2301 179.321 30.1163 180.455C30.2049 180.509 30.2935 180.562 30.3847 180.617C30.9408 180.945 31.4977 181.203 32.1044 181.435C31.628 181.587 31.4664 181.539 30.9888 181.42C30.8462 181.384 30.7037 181.349 30.5568 181.312C30.4029 181.272 30.2491 181.232 30.0906 181.19C29.8512 181.128 29.8512 181.128 29.607 181.064C24.9585 179.818 20.3837 177.805 16.6108 174.903C16.5003 174.821 16.3899 174.739 16.276 174.654C15.9267 174.393 15.5826 174.126 15.2397 173.857C15.1709 173.804 15.102 173.75 15.0311 173.695C13.1001 172.184 11.276 170.525 9.75521 168.631C9.64952 168.505 9.54382 168.379 9.43493 168.249C7.87492 166.366 6.52506 164.359 5.36764 162.229C5.27673 162.063 5.27673 162.063 5.184 161.892C3.19089 158.189 1.86246 154.235 1.29439 150.106C1.26826 149.918 1.24071 149.73 1.21151 149.542C-0.204217 140.41 2.79598 130.553 8.51578 123.204C9.37162 122.12 10.2779 121.084 11.2377 120.082C11.5284 119.777 11.8115 119.467 12.0947 119.155C12.5109 118.709 12.9464 118.313 13.4251 117.929C13.7895 117.629 14.1358 117.314 14.4856 116.999C18.7589 113.226 24.3428 110.581 29.9449 109.186C30.2709 109.102 30.5947 109.01 30.9143 108.907C31.2884 108.791 31.5767 108.771 31.9673 108.793Z" fill="#D43316"/>
<path d="M48.1464 108.792C48.8826 108.866 49.571 108.987 50.2802 109.193C50.4278 109.235 50.4278 109.235 50.5783 109.278C55.6529 110.76 60.3199 112.922 64.4627 116.109C64.5692 116.19 64.5692 116.19 64.6778 116.273C65.8296 117.156 66.8858 118.13 67.9333 119.122C68.0593 119.241 68.1853 119.36 68.3152 119.482C73.5818 124.524 77.4016 131.567 78.5252 138.606C78.5407 138.697 78.5561 138.788 78.5721 138.881C78.6268 139.216 78.6752 139.552 78.7223 139.888C78.7461 140.054 78.7699 140.22 78.7944 140.391C78.9899 141.841 79.0392 143.275 79.0323 144.737C79.0308 145.105 79.0323 145.473 79.034 145.841C79.0359 148.009 78.8313 150.12 78.4052 152.251C78.3756 152.401 78.346 152.551 78.3155 152.705C78.0713 153.904 77.746 155.058 77.3512 156.219C77.2597 156.516 77.1683 156.812 77.0769 157.109C75.9387 160.806 73.7198 164.599 71.1811 167.586C71.0432 167.752 70.9054 167.918 70.7677 168.084C69.8127 169.227 68.8142 170.32 67.7534 171.375C67.6464 171.482 67.5395 171.589 67.4293 171.7C66.7929 172.324 66.1186 172.881 65.4059 173.424C64.9992 173.736 64.6028 174.057 64.2056 174.38C63.3685 175.045 62.4923 175.638 61.5833 176.209C61.4584 176.289 61.3334 176.368 61.2047 176.45C57.371 178.798 52.5816 181.104 48.0093 181.566C48.4099 181.257 48.8356 181.021 49.2884 180.788C51.0146 179.897 52.5341 178.864 53.9576 177.576C54.2446 177.319 54.5346 177.076 54.8392 176.838C55.3636 176.412 55.7965 175.929 56.236 175.425C56.3 175.352 56.3641 175.28 56.4301 175.205C58.6238 172.718 60.4017 170 61.8576 167.063C61.9009 166.976 61.9443 166.89 61.989 166.8C64.5552 161.619 65.876 156.141 66.5194 150.47C66.5413 150.28 66.5413 150.28 66.5637 150.086C66.7111 148.581 66.6837 147.065 66.6822 145.555C66.682 145.331 66.682 145.331 66.6819 145.103C66.6786 142.919 66.6528 140.753 66.3822 138.581C66.366 138.446 66.3498 138.31 66.3331 138.171C65.8565 134.344 64.913 130.564 63.5029 126.953C63.4481 126.813 63.3933 126.672 63.3368 126.528C61.9119 122.925 60.0861 119.55 57.6071 116.501C57.5131 116.384 57.419 116.266 57.3222 116.145C56.5993 115.262 55.8078 114.441 55.002 113.627C54.9019 113.524 54.8019 113.422 54.6988 113.316C52.8607 111.493 50.5544 109.974 48.1464 108.923C48.1464 108.88 48.1464 108.837 48.1464 108.792Z" fill="#D43316"/>
<path d="M42.4135 93.9361C43.3671 94.5798 44.2409 95.4362 44.519 96.5477C44.7959 98.1199 44.5257 99.2578 43.6218 100.562C42.827 101.484 41.5462 102.026 40.3215 102.161C38.955 102.208 37.7668 101.69 36.7663 100.823C35.7357 99.7863 35.4437 98.5818 35.4766 97.1943C35.5506 96.0756 36.1915 95.0947 37.0501 94.3511C38.6283 93.2095 40.6515 92.9467 42.4135 93.9361Z" fill="#D43316"/>
<path d="M35.6009 203.221C36.0808 203.254 36.0808 203.254 36.355 203.515C36.3822 203.911 36.3919 204.295 36.3898 204.691C36.3905 204.876 36.3905 204.876 36.3911 205.064C36.3922 205.48 36.3913 205.895 36.3905 206.311C36.3909 206.608 36.3913 206.905 36.3919 207.202C36.3932 208.01 36.3927 208.819 36.3918 209.627C36.3911 210.472 36.3918 211.316 36.3922 212.16C36.3927 213.67 36.3919 215.179 36.3905 216.688C36.3893 218.057 36.3895 219.427 36.3907 220.796C36.3922 222.385 36.3928 223.973 36.392 225.562C36.3915 226.404 36.3915 227.245 36.3924 228.087C36.3932 228.878 36.3926 229.669 36.391 230.46C36.3907 230.751 36.3908 231.042 36.3914 231.333C36.3921 231.729 36.3912 232.124 36.3898 232.52C36.3907 232.695 36.3907 232.695 36.3917 232.873C36.3863 233.666 36.3863 233.666 36.0808 233.957C35.6009 233.998 35.6009 233.998 35.121 233.957C34.7566 233.436 34.8087 232.984 34.8119 232.379C34.8115 232.256 34.8111 232.133 34.8106 232.007C34.8096 231.593 34.8104 231.18 34.8113 230.766C34.8109 230.471 34.8104 230.175 34.8098 229.879C34.8086 229.075 34.8091 228.27 34.8099 227.466C34.8106 226.626 34.81 225.785 34.8096 224.945C34.809 223.443 34.8099 221.941 34.8113 220.44C34.8125 219.077 34.8123 217.715 34.811 216.352C34.8096 214.771 34.809 213.19 34.8098 211.608C34.8102 210.771 34.8103 209.933 34.8094 209.096C34.8086 208.309 34.8091 207.522 34.8107 206.735C34.8111 206.445 34.811 206.156 34.8104 205.866C34.8096 205.472 34.8106 205.079 34.8119 204.685C34.8113 204.569 34.8107 204.453 34.8101 204.334C34.8173 203.275 34.8173 203.275 35.6009 203.221Z" fill="#FFB36E"/>
<path d="M44.5126 203.221C44.9925 203.254 44.9925 203.254 45.2667 203.515C45.2942 203.909 45.3042 204.291 45.3025 204.685C45.303 204.807 45.3035 204.93 45.3041 205.056C45.3055 205.47 45.3049 205.884 45.3044 206.297C45.305 206.593 45.3057 206.888 45.3065 207.183C45.3084 207.988 45.3084 208.792 45.3081 209.597C45.3079 210.267 45.3086 210.938 45.3093 211.608C45.3109 213.28 45.3108 214.952 45.3099 216.624C45.3092 218.077 45.3107 219.529 45.3133 220.982C45.316 222.473 45.3171 223.964 45.3166 225.454C45.3163 226.292 45.3167 227.129 45.3186 227.967C45.3203 228.754 45.3201 229.541 45.3183 230.328C45.3179 230.618 45.3183 230.907 45.3195 231.197C45.3209 231.591 45.3198 231.985 45.318 232.379C45.3191 232.495 45.3201 232.61 45.3211 232.729C45.3138 233.507 45.3138 233.507 45.0841 233.791C44.7362 234.044 44.4561 234 44.0327 233.957C43.667 233.609 43.725 233.347 43.7218 232.873C43.7224 232.757 43.7231 232.64 43.7237 232.52C43.7233 232.397 43.7228 232.274 43.7224 232.147C43.7213 231.731 43.7222 231.315 43.723 230.9C43.7227 230.603 43.7222 230.306 43.7216 230.009C43.7203 229.2 43.7208 228.392 43.7217 227.584C43.7224 226.739 43.7217 225.895 43.7213 225.05C43.7208 223.541 43.7216 222.032 43.723 220.523C43.7242 219.154 43.724 217.784 43.7228 216.415C43.7213 214.826 43.7207 213.237 43.7216 211.649C43.722 210.807 43.722 209.966 43.7211 209.124C43.7203 208.333 43.7209 207.542 43.7225 206.751C43.7228 206.46 43.7227 206.169 43.7221 205.878C43.7214 205.482 43.7223 205.086 43.7237 204.691C43.7231 204.574 43.7225 204.458 43.7218 204.338C43.729 203.275 43.729 203.275 44.5126 203.221Z" fill="#FFB36E"/>
<path d="M41.4967 203.221C41.9766 203.254 41.9766 203.254 42.2508 203.515C42.2779 203.911 42.2877 204.295 42.2856 204.691C42.2862 204.876 42.2862 204.876 42.2869 205.064C42.288 205.48 42.2871 205.895 42.2863 206.311C42.2866 206.608 42.2871 206.905 42.2877 207.202C42.289 208.01 42.2885 208.819 42.2876 209.627C42.2869 210.472 42.2876 211.316 42.288 212.16C42.2885 213.67 42.2877 215.179 42.2863 216.688C42.2851 218.057 42.2853 219.427 42.2865 220.796C42.288 222.385 42.2885 223.973 42.2877 225.562C42.2873 226.404 42.2873 227.245 42.2882 228.087C42.2889 228.878 42.2884 229.669 42.2868 230.46C42.2865 230.751 42.2866 231.042 42.2872 231.333C42.2879 231.729 42.287 232.124 42.2856 232.52C42.2865 232.695 42.2865 232.695 42.2875 232.873C42.2821 233.666 42.2821 233.666 41.9766 233.957C41.2546 234.03 41.2546 234.03 40.9252 233.791C40.5987 233.387 40.687 232.869 40.6912 232.379C40.6907 232.256 40.6902 232.133 40.6896 232.007C40.6883 231.593 40.6899 231.18 40.6915 230.766C40.6912 230.471 40.6907 230.175 40.69 229.879C40.6887 229.075 40.69 228.27 40.6918 227.466C40.6934 226.626 40.6928 225.785 40.6925 224.945C40.6924 223.534 40.6939 222.122 40.6965 220.711C40.6991 219.258 40.7 217.805 40.6993 216.352C40.6984 214.602 40.6988 212.853 40.7005 211.103C40.7012 210.434 40.7013 209.765 40.701 209.096C40.7007 208.309 40.7018 207.522 40.704 206.735C40.7046 206.445 40.7047 206.156 40.7043 205.866C40.7039 205.472 40.7051 205.079 40.7068 204.685C40.7063 204.569 40.7058 204.453 40.7052 204.334C40.7133 203.275 40.7133 203.275 41.4967 203.221Z" fill="#FFB36E"/>
<path d="M38.6171 203.221C39.097 203.254 39.097 203.254 39.3712 203.515C39.3987 203.909 39.4087 204.291 39.407 204.685C39.4075 204.807 39.408 204.93 39.4086 205.056C39.41 205.47 39.4094 205.884 39.4089 206.297C39.4095 206.593 39.4102 206.888 39.411 207.183C39.4128 207.988 39.4129 208.792 39.4126 209.597C39.4124 210.267 39.4131 210.938 39.4138 211.608C39.4154 213.28 39.4152 214.952 39.4144 216.624C39.4137 218.077 39.4152 219.529 39.4178 220.982C39.4205 222.473 39.4216 223.964 39.4211 225.454C39.4208 226.292 39.4212 227.129 39.4231 227.967C39.4248 228.754 39.4246 229.541 39.4228 230.328C39.4224 230.618 39.4228 230.907 39.4239 231.197C39.4254 231.591 39.4243 231.985 39.4225 232.379C39.4235 232.495 39.4246 232.61 39.4256 232.729C39.4183 233.507 39.4183 233.507 39.1886 233.791C38.8407 234.044 38.5606 234 38.1372 233.957C37.7715 233.609 37.8295 233.347 37.8263 232.873C37.8269 232.757 37.8275 232.64 37.8282 232.52C37.8277 232.397 37.8273 232.274 37.8269 232.147C37.8258 231.731 37.8267 231.315 37.8275 230.9C37.8271 230.603 37.8267 230.306 37.8261 230.009C37.8248 229.2 37.8253 228.392 37.8262 227.584C37.8269 226.739 37.8262 225.895 37.8258 225.05C37.8252 223.541 37.8261 222.032 37.8275 220.523C37.8287 219.154 37.8285 217.784 37.8272 216.415C37.8258 214.826 37.8252 213.237 37.826 211.649C37.8265 210.807 37.8265 209.966 37.8256 209.124C37.8248 208.333 37.8254 207.542 37.827 206.751C37.8273 206.46 37.8272 206.169 37.8266 205.878C37.8259 205.482 37.8268 205.086 37.8282 204.691C37.8276 204.574 37.827 204.458 37.8263 204.338C37.8335 203.275 37.8335 203.275 38.6171 203.221Z" fill="#FFB36E"/>
<path d="M47.3837 203.229C47.8722 203.254 47.8722 203.254 48.1464 203.515C48.1736 203.911 48.1833 204.295 48.1812 204.69C48.1819 204.875 48.1819 204.875 48.1825 205.064C48.1836 205.48 48.1828 205.895 48.1819 206.311C48.1823 206.608 48.1828 206.905 48.1834 207.202C48.1846 208.01 48.1841 208.819 48.1833 209.627C48.1826 210.472 48.1832 211.316 48.1836 212.16C48.1842 213.67 48.1833 215.179 48.1819 216.688C48.1807 218.057 48.1809 219.426 48.1822 220.796C48.1836 222.385 48.1842 223.973 48.1834 225.562C48.1829 226.404 48.1829 227.245 48.1838 228.087C48.1846 228.878 48.184 229.669 48.1825 230.46C48.1821 230.751 48.1822 231.042 48.1828 231.333C48.1835 231.729 48.1826 232.124 48.1812 232.52C48.1822 232.695 48.1822 232.695 48.1831 232.873C48.1777 233.666 48.1777 233.666 47.8722 233.957C47.4609 233.99 47.4609 233.99 47.0495 233.957C46.6829 233.608 46.7421 233.344 46.7393 232.869C46.74 232.752 46.7407 232.635 46.7414 232.514C46.7411 232.39 46.7407 232.267 46.7404 232.139C46.7396 231.721 46.7408 231.303 46.742 230.886C46.7418 230.587 46.7416 230.289 46.7412 229.99C46.7405 229.178 46.7416 228.365 46.743 227.553C46.7442 226.704 46.7439 225.856 46.7439 225.007C46.744 223.583 46.7452 222.158 46.7471 220.733C46.749 219.265 46.75 217.798 46.7499 216.33C46.7499 216.195 46.7499 216.195 46.7499 216.056C46.7499 215.966 46.7499 215.876 46.7499 215.783C46.7498 214.199 46.7505 212.615 46.7516 211.031C46.7521 210.355 46.7523 209.679 46.7524 209.004C46.7526 208.209 46.7534 207.414 46.7548 206.62C46.7552 206.327 46.7553 206.034 46.7553 205.742C46.7552 205.344 46.756 204.947 46.757 204.549C46.7568 204.432 46.7565 204.314 46.7563 204.193C46.7602 203.262 46.7602 203.262 47.3837 203.229Z" fill="#FFB36E"/>
<path d="M32.5756 203.229C33.0641 203.254 33.0641 203.254 33.3383 203.515C33.3655 203.911 33.3752 204.295 33.3731 204.69C33.3738 204.875 33.3738 204.875 33.3744 205.064C33.3755 205.48 33.3747 205.895 33.3738 206.311C33.3742 206.608 33.3747 206.905 33.3753 207.202C33.3765 208.01 33.376 208.819 33.3751 209.627C33.3745 210.472 33.3751 211.316 33.3755 212.16C33.3761 213.67 33.3752 215.179 33.3738 216.688C33.3726 218.057 33.3728 219.426 33.3741 220.796C33.3755 222.385 33.3761 223.973 33.3753 225.562C33.3748 226.404 33.3748 227.245 33.3757 228.087C33.3765 228.878 33.3759 229.669 33.3743 230.46C33.374 230.751 33.3741 231.042 33.3747 231.333C33.3754 231.729 33.3745 232.124 33.3731 232.52C33.3741 232.695 33.3741 232.695 33.375 232.873C33.3696 233.666 33.3696 233.666 33.0641 233.957C32.6528 233.99 32.6528 233.99 32.2414 233.957C31.8748 233.608 31.934 233.344 31.9312 232.869C31.9319 232.752 31.9326 232.635 31.9333 232.514C31.933 232.39 31.9326 232.267 31.9323 232.139C31.9315 231.721 31.9327 231.303 31.9339 230.886C31.9337 230.587 31.9335 230.289 31.9331 229.99C31.9324 229.178 31.9335 228.365 31.9349 227.553C31.9361 226.704 31.9358 225.856 31.9358 225.007C31.9359 223.583 31.9371 222.158 31.939 220.733C31.9409 219.265 31.9419 217.798 31.9418 216.33C31.9418 216.195 31.9418 216.195 31.9418 216.056C31.9418 215.966 31.9418 215.876 31.9418 215.783C31.9417 214.199 31.9424 212.615 31.9435 211.031C31.944 210.355 31.9442 209.679 31.9443 209.004C31.9445 208.209 31.9453 207.414 31.9467 206.62C31.9471 206.327 31.9472 206.034 31.9472 205.742C31.9471 205.344 31.9479 204.947 31.9489 204.549C31.9486 204.432 31.9484 204.314 31.9482 204.193C31.9521 203.262 31.9521 203.262 32.5756 203.229Z" fill="#FFB36E"/>
<path d="M49.1062 180.912C49.1967 180.955 49.2872 180.999 49.3804 181.043C49.3804 181.129 49.3804 181.215 49.3804 181.304C48.9279 181.391 48.4755 181.477 48.0093 181.566C48.7144 181.062 48.7144 181.062 49.1062 180.912Z" fill="#D43316"/>
</svg>
