<svg width="36" height="36" viewBox="0 0 36 36" fill="none" xmlns="http://www.w3.org/2000/svg">
<path d="M18.0813 1.87939C18.2802 1.90093 18.2802 1.90093 18.4831 1.9229C20.1577 4.38314 19.7285 8.29054 19.2534 11.1027C19.0681 12.0691 18.8393 13.0275 18.6008 13.9819C18.19 15.5374 18.19 15.5374 18.4831 17.0645C18.8272 16.9783 18.8272 16.9783 19.1781 16.8904C19.0634 17.1776 18.9488 17.4648 18.8306 17.7606C19.06 17.8181 19.2893 17.8755 19.5256 17.9347C19.2676 18.107 19.2676 18.107 19.0044 18.2827C19.0617 18.5699 19.119 18.8571 19.1781 19.1529C18.8914 19.0955 18.6048 19.0381 18.3094 18.9789C18.2575 20.1401 18.4534 21.1484 18.722 22.2748C19.4749 25.6116 20.371 29.9796 19.0044 33.2503C18.6243 33.8159 18.6243 33.8159 18.3094 34.1205C17.8995 34.0865 17.8995 34.0865 17.4407 33.9464C17.2099 33.5671 17.2099 33.5671 17.0497 33.098C16.9951 32.9441 16.9404 32.7902 16.8841 32.6316C16.8156 32.4209 16.8156 32.4209 16.7457 32.206C16.6883 32.0337 16.631 31.8614 16.5719 31.6839C16.3216 27.9471 16.8108 24.4496 17.6965 20.8383C17.832 20.1478 17.8237 19.5061 17.7881 18.8049C17.3581 18.9772 17.3581 18.9772 16.9194 19.1529C16.9767 18.8658 17.0341 18.5786 17.0932 18.2827C16.9211 18.2253 16.7491 18.1679 16.5719 18.1087C16.5719 17.9938 16.5719 17.879 16.5719 17.7606C16.8013 17.7606 17.0306 17.7606 17.2669 17.7606C17.1522 17.4735 17.0376 17.1863 16.9194 16.8904C17.2061 16.9478 17.4928 17.0053 17.7881 17.0645C17.8454 15.9739 17.6256 15.0113 17.3755 13.9535C15.4272 5.26738 15.4272 5.26738 17.3429 2.22204C17.6144 1.9229 17.6144 1.9229 18.0813 1.87939Z" fill="#FCD690"/>
<path d="M19.3521 19.3271C19.9666 19.5549 20.4906 19.8251 21.0366 20.1872C21.1887 20.288 21.3408 20.3888 21.4975 20.4926C21.6567 20.5998 21.8159 20.707 21.98 20.8174C22.2257 20.9823 22.2257 20.9823 22.4763 21.1506C23.6352 21.9363 24.7311 22.7495 25.7807 23.6782C25.9294 23.8043 26.0781 23.9303 26.2313 24.0602C27.5221 25.1779 29.3651 26.781 29.5705 28.5839C29.5813 28.8029 29.592 29.0219 29.6031 29.2475C29.4885 29.3623 29.3738 29.4772 29.2556 29.5956C27.4738 29.5956 26.0791 28.2635 24.8516 27.1046C24.1138 26.3558 23.4626 25.5591 22.827 24.7224C22.7517 24.6234 22.6765 24.5244 22.5989 24.4224C21.6952 23.2272 20.8293 22.0101 20.0145 20.7521C19.9473 20.6489 19.8801 20.5458 19.8109 20.4395C19.3521 19.7184 19.3521 19.7184 19.3521 19.3271Z" fill="#FCD58F"/>
<path d="M29.0709 16.4772C29.2735 16.4769 29.4761 16.4766 29.6848 16.4763C31.1494 16.4955 32.6957 16.5668 33.9466 17.4126C34.0987 17.8804 34.0987 17.8804 34.1204 18.2828C33.023 19.3821 31.4184 19.5635 29.9282 19.5737C29.7671 19.5713 29.606 19.5689 29.4401 19.5664C29.1815 19.5641 29.1815 19.5641 28.9177 19.5618C26.2644 19.5101 22.3844 19.3067 20.0469 17.9348C22.9461 16.8684 25.9958 16.4812 29.0709 16.4772Z" fill="#FBD48E"/>
<path d="M6.97245 6.43237C9.0917 6.57611 10.7836 8.33299 12.1323 9.8667C12.7132 10.5628 13.2561 11.2862 13.792 12.0173C13.8696 12.1223 13.9472 12.2273 14.0271 12.3354C16.572 15.7907 16.572 15.7907 16.572 16.5424C15.9574 16.3147 15.4334 16.0444 14.8874 15.6824C14.7353 15.5816 14.5832 15.4808 14.4265 15.3769C14.1877 15.2162 14.1877 15.2162 13.9441 15.0522C13.7803 14.9422 13.6165 14.8322 13.4477 14.7189C12.2886 13.933 11.194 13.1191 10.1433 12.1914C9.99663 12.0693 9.84993 11.9473 9.69879 11.8215C8.40277 10.715 7.03284 9.32508 6.49465 7.6663C6.46207 7.10066 6.46207 7.10066 6.49465 6.62205C6.6684 6.44801 6.6684 6.44801 6.97245 6.43237Z" fill="#FCD690"/>
<path d="M16.2243 19.5012C16.339 19.5587 16.4536 19.6161 16.5718 19.6753C11.6501 28.0518 11.6501 28.0518 7.7107 29.5956C7.10259 29.6609 7.10259 29.6609 6.66822 29.5956C6.49447 29.4215 6.49447 29.4215 6.41846 28.9103C6.45942 26.8995 8.69711 25.0888 10.0237 23.8087C11.783 22.1845 14.0063 20.4333 16.2243 19.5012Z" fill="#FCD690"/>
<path d="M29.4295 6.4481C29.6032 6.62215 29.6032 6.62215 29.6032 7.20953C29.1977 9.90461 26.1698 12.1605 24.1071 13.6912C23.4654 14.1497 22.8177 14.5992 22.1647 15.0414C22.0608 15.1119 21.9568 15.1824 21.8498 15.255C21.1026 15.7502 20.333 16.1529 19.5259 16.5425C19.7667 15.6837 20.1559 14.9984 20.6552 14.2691C20.7319 14.1557 20.8086 14.0424 20.8876 13.9256C26.2305 6.1108 26.2305 6.1108 29.4295 6.4481Z" fill="#FCD790"/>
<path d="M6.52713 16.477C6.84754 16.4792 6.84754 16.4792 7.17444 16.4816C10.0214 16.5266 12.992 16.8328 15.7031 17.7605C15.7891 17.9328 15.7891 17.9328 15.8769 18.1086C6.24578 20.7559 6.24577 20.7559 2.36331 18.7266C1.97713 18.4567 1.97713 18.4567 1.87939 18.0216C1.97713 17.5865 1.97713 17.5865 2.22689 17.3037C3.63149 16.5487 4.95102 16.4583 6.52713 16.477Z" fill="#FBD58F"/>
<path d="M17.788 15.4983C17.9027 15.4983 18.0174 15.4983 18.1355 15.4983C18.2502 16.0152 18.3648 16.5321 18.483 17.0647C18.7123 17.0072 18.9417 16.9498 19.178 16.8906C19.0633 17.1778 18.9486 17.465 18.8305 17.7608C19.0598 17.8183 19.2892 17.8757 19.5255 17.9349C19.3535 18.0497 19.1815 18.1646 19.0042 18.2829C19.0616 18.5701 19.1189 18.8573 19.178 19.1531C18.8913 19.0957 18.6046 19.0383 18.3092 18.9791C18.3092 19.5534 18.3092 20.1278 18.3092 20.7195C18.1372 20.7195 17.9652 20.7195 17.788 20.7195C17.788 20.0877 17.788 19.456 17.788 18.8051C17.5013 18.9199 17.2146 19.0348 16.9193 19.1531C16.9766 18.866 17.0339 18.5788 17.093 18.2829C16.921 18.2255 16.749 18.1681 16.5718 18.1089C16.5718 17.994 16.5718 17.8792 16.5718 17.7608C16.8011 17.7608 17.0305 17.7608 17.2668 17.7608C17.1521 17.4737 17.0374 17.1865 16.9193 16.8906C17.206 16.9481 17.4926 17.0055 17.788 17.0647C17.788 16.5478 17.788 16.0309 17.788 15.4983Z" fill="#F4C987"/>
</svg>
