<svg width="138" height="74" viewBox="0 0 138 74" fill="none" xmlns="http://www.w3.org/2000/svg">
<path d="M73.2981 23.3001C73.6212 22.8189 73.9481 22.3404 74.2781 21.8639C75.1451 20.6151 75.6298 19.9477 76.8691 18.1128C76.8691 18.1128 77.4159 15.6094 76.983 13.5249C76.5502 11.4403 75.8491 9.71435 75.8491 9.71435L75.4867 9.15308C75.1823 8.6797 74.8657 8.27116 74.4866 7.85243C69.7084 3.02323 63.7814 0.0969086 56.8762 0C50.7473 0.170944 44.6405 2.44035 40.362 6.90709L39.9036 7.4117C37.4406 10.1132 36.229 13.0196 36.1061 16.7087C36.2161 19.9277 36.9344 23.26 39.2233 25.6549C42.0838 28.2599 45.8153 29.1988 49.6364 29.0855L50.1075 29.0567C51.459 28.9789 52.7589 28.7573 54.059 28.3794C56.8617 27.3844 59.0706 25.8271 60.4418 23.1561L60.7752 22.379V23.3001C60.3372 25.0395 59.4084 26.3418 58.1227 27.5744C54.3079 30.8243 49.6275 31.4786 44.7736 31.1291C41.5664 30.5585 38.3728 29.3855 36.3045 26.764L35.9612 26.2935C34.825 24.8519 34.1985 23.3516 33.615 21.6297L33.4102 20.9974C29.1861 21.1389 24.8502 22.3901 21.4371 24.9389L20.8873 25.3725C19.1575 26.7002 17.4302 27.9757 16.4811 29.9778C18.4614 31.1768 19.8909 32.7209 20.8873 34.8134C21.7811 37.249 22.0392 40.1727 21.1192 42.6424C20.1563 44.7793 19.1858 46.4924 16.9739 47.4492C15.4543 47.9434 14.0139 47.8487 12.5386 47.2477C13.5783 47.2845 14.5731 47.3032 15.5969 47.1038C17.0707 46.3884 18.0568 45.3696 18.7992 43.9197C19.7367 41.5582 19.6556 39.0975 18.8726 36.7131C18.1109 34.8142 16.7516 33.3663 14.8577 32.5107C12.6246 32.3001 9.90917 33.1949 7.96757 34.262L7.43672 34.5831C5.83473 35.539 4.55059 36.6629 3.32218 38.0623C0.675897 41.4263 -0.319761 45.5926 0.0881779 49.7951C0.886805 54.3367 3.30653 57.769 7.04537 60.4305C10.4515 62.5816 14.6339 63.2035 18.5682 62.4453L18.5827 62.246C18.8552 58.5048 19.1336 54.6811 21.1192 51.3925C20.1352 54.8935 19.9597 58.6106 21.6265 61.956L22.0468 62.6755C22.0468 62.6755 22.8214 63.7078 24.1957 64.7201C25.57 65.7325 27.3825 66.5145 27.3825 66.5145C28.5148 67.0871 29.6254 67.3852 30.8705 67.5932L31.4535 67.6839C33.4555 68.0038 35.3459 68.1009 37.3526 67.7414C41.4208 66.8158 44.9473 65.0554 47.3445 61.5584C49.4374 58.1402 50.9781 54.6844 50.093 50.6154L50.093 50.6152C49.9459 50.083 49.9459 50.0829 49.8756 49.5504C49.9354 48.8498 50.0071 48.5092 50.4852 47.9844L50.9337 47.6363C51.1972 47.4273 51.4623 47.2201 51.7308 47.0175C52.3556 48.3705 52.7463 49.6989 53.0711 51.1493C53.9247 55.3144 52.5119 59.1876 50.2524 62.6612C49.8208 63.3024 49.4107 63.7631 49.4136 64.5456C50.9026 67.3454 55.377 69.7838 58.1841 71.1871C66.1495 74.9585 74.6862 74.6924 82.8987 71.843C84.1497 71.3059 84.7911 70.6854 85.3663 69.454L85.5891 68.8927C85.9081 68.1307 86.1375 67.4032 86.2849 66.5901C86.5536 63.4138 85.913 61.0669 83.9658 58.5308C81.9225 56.2381 78.8698 54.7796 75.8491 54.386C73.2176 54.182 71.0653 54.7903 69.0006 56.4107L68.66 56.6886L68.8919 55.9978C69.9539 54.9834 71.1677 54.1836 72.5372 53.6457L73.0662 53.4649C75.173 52.7335 77.4142 53.0196 79.5596 53.4649C83.0641 54.3774 85.9294 56.4567 87.775 59.5445C89.472 62.6907 89.6739 65.7169 88.7788 69.1518C88.6198 69.7538 88.4886 70.3539 88.372 70.9651C89.1411 71.1737 89.9133 71.3542 90.6965 71.5012C97.6135 72.593 103.12 70.506 108.707 66.6764C111.956 64.4462 114.818 62.9066 118.839 62.7619C119.901 62.7421 120.884 62.7173 121.924 62.4849C128.386 60.2204 133.294 54.5372 136.574 48.7222L136.855 48.212C137.612 46.8731 137.901 45.793 138 44.2543C137.24 44.2543 136.71 44.3178 135.985 44.4846C134.373 44.8618 132.886 44.7819 131.27 44.4629C125.585 43.2916 120.25 43.3267 114.522 44.1909L114.114 44.2543C116.35 38.0665 116.926 31.5934 114.213 25.4264C111.437 19.7089 106.917 15.6213 100.945 13.3479C95.1522 11.3245 88.9335 11.9258 83.4517 14.525L82.9512 14.7658C82.0454 15.1949 81.3084 15.5814 80.5796 16.2778C80.0377 16.8775 80.0377 16.8775 79.3331 17.3185C76.7173 19.0165 74.5596 21.4754 73.1405 24.2319C71.399 28.0995 71.3764 32.4922 72.8633 36.454C73.9854 38.9649 76.0103 40.8062 78.5631 41.8383C82.8202 43.3288 87.2568 43.1551 91.3868 41.3714C94.0052 40.0884 95.3116 38.6242 96.3266 35.9512L96.4888 35.5042C96.5423 37.1231 95.8977 38.5309 95.0085 39.863C92.7879 42.6857 89.3975 44.2839 85.8906 44.8786C81.5174 45.4235 77.1595 44.7744 73.53 42.1819C70.5367 39.6206 69.1765 36.3327 68.66 32.5107C68.5105 30.8211 68.3407 29.3227 69.4671 27.9464L69.863 27.4826C70.1574 27.134 70.4522 26.7856 70.7471 26.4374L71.1983 25.9103L71.6313 25.3958C72.0766 24.8723 72.3719 24.4481 72.6486 23.8167L72.8343 23.3001H73.2981Z" fill="#F9CE77"/>
</svg>
