<svg xmlns="http://www.w3.org/2000/svg" width="20" height="20" viewBox="0 0 20 20" fill="none">
  <g clip-path="url(#clip0_invite_hero_benefit_check)">
    <path fill-rule="evenodd" clip-rule="evenodd" d="M0.833252 9.99992C0.833252 4.93731 4.93731 0.833252 9.99992 0.833252C15.0625 0.833252 19.1666 4.9373 19.1666 9.99992C19.1666 15.0625 15.0625 19.1666 9.99992 19.1666C4.9373 19.1666 0.833252 15.0625 0.833252 9.99992ZM14.3392 8.08917C14.6646 7.76374 14.6646 7.2361 14.3392 6.91066C14.0137 6.58523 13.4861 6.58523 13.1607 6.91066L8.74992 11.3214L6.83917 9.41066C6.51374 9.08523 5.9861 9.08523 5.66066 9.41066C5.33523 9.7361 5.33523 10.2637 5.66066 10.5892L8.16066 13.0892C8.4861 13.4146 9.01374 13.4146 9.33918 13.0892L14.3392 8.08917Z" fill="#11A3FD"/>
  </g>
  <defs>
    <clipPath id="clip0_invite_hero_benefit_check">
      <rect width="20" height="20" fill="white"/>
    </clipPath>
  </defs>
</svg>
