<svg width="1178" height="725" viewBox="0 0 1178 725" fill="none" xmlns="http://www.w3.org/2000/svg">
<g opacity="0.8">
<g filter="url(#filter0_f_40611_54290)">
<path d="M312.931 485C374.511 401.401 469.422 365.217 558.8 319.794C648.177 274.372 651.7 252.374 774.484 232.575C900.618 212.235 1055.11 219.158 1055.11 219.158C1055.11 219.158 829.984 225.191 592.076 342.212C354.167 459.232 209 624.616 209 624.616C209 624.616 263.667 551.878 312.931 485Z" fill="url(#paint0_linear_40611_54290)"/>
</g>
<g filter="url(#filter1_f_40611_54290)">
<path d="M324.496 435.324C386.076 351.725 480.987 315.541 570.364 270.119C659.742 224.696 663.265 202.698 786.048 182.899C912.183 162.56 1066.67 169.482 1066.67 169.482C1066.67 169.482 841.549 175.516 603.64 292.536C365.732 409.556 220.565 574.941 220.565 574.941C220.565 574.941 275.232 502.202 324.496 435.324Z" fill="url(#paint1_linear_40611_54290)"/>
</g>
<g opacity="0.4" filter="url(#filter2_f_40611_54290)">
<path d="M216.13 444.832C284.901 343.864 374.722 278.373 477.834 221.082C580.946 163.792 604.332 156.597 747.836 127.982C895.256 98.5858 1077.2 100.011 1077.2 100.011C1077.2 100.011 828.498 121.851 553.86 269.779C279.222 417.706 100 613.505 100 613.505C100 613.505 161.114 525.607 216.13 444.832Z" fill="url(#paint2_linear_40611_54290)"/>
</g>
<g filter="url(#filter3_f_40611_54290)">
<path d="M311.177 415.13C363.749 337.991 402.852 308.559 472.13 251.35C541.408 194.14 601.571 186.788 711.274 164.925C823.971 142.465 963.061 143.553 963.061 143.553C963.061 143.553 772.937 160.24 562.988 273.259C353.038 386.277 216.031 535.869 216.031 535.869C216.031 535.869 269.119 476.842 311.177 415.13Z" fill="#F86F8F"/>
<path d="M216.031 535.869L218.944 538.522L213.093 533.244L216.031 535.869ZM216.031 535.869L218.945 538.522C218.946 538.521 218.947 538.519 218.948 538.518C218.952 538.514 218.957 538.507 218.965 538.499C218.967 538.497 218.968 538.494 218.97 538.492L218.971 538.493C218.971 538.492 218.972 538.491 218.973 538.49L218.981 538.481C218.995 538.466 219.013 538.446 219.036 538.422C219.099 538.353 219.196 538.248 219.326 538.108C219.585 537.828 219.977 537.407 220.498 536.852C221.541 535.742 223.103 534.093 225.167 531.952C229.298 527.668 235.442 521.411 243.474 513.546C259.538 497.814 283.154 475.649 313.319 449.957C373.659 398.565 460.154 333.101 564.801 276.768C669.4 220.461 769.078 188.143 842.608 169.905C879.368 160.787 909.578 155.191 930.581 151.877C941.082 150.22 949.28 149.133 954.843 148.461C957.624 148.126 959.747 147.894 961.169 147.746C961.88 147.673 962.416 147.62 962.772 147.586C962.949 147.569 963.082 147.557 963.169 147.549C963.212 147.545 963.244 147.542 963.265 147.54C963.275 147.539 963.283 147.538 963.287 147.538C963.289 147.538 963.291 147.538 963.292 147.538L963.212 139.553L963.061 143.553C963.212 139.553 963.211 139.553 963.209 139.553L963.184 139.554C963.166 139.554 963.14 139.553 963.106 139.553C963.037 139.552 962.934 139.552 962.799 139.551C962.529 139.55 962.128 139.548 961.601 139.547C960.547 139.545 958.99 139.544 956.97 139.551C952.931 139.565 947.039 139.61 939.62 139.735C924.782 139.985 903.826 140.551 879.341 141.822C830.403 144.362 767.234 149.718 710.605 161.004C601.232 182.801 539.89 190.282 469.638 248.297C400.393 305.479 360.842 335.252 307.893 412.946C286.964 443.656 263.265 473.732 244.777 496.152C235.538 507.357 227.611 516.637 221.995 523.113C219.188 526.351 216.958 528.888 215.433 530.613C214.67 531.476 214.083 532.136 213.688 532.579C213.491 532.8 213.341 532.968 213.241 533.079C213.191 533.134 213.154 533.176 213.129 533.204C213.117 533.217 213.108 533.228 213.102 533.234C213.099 533.238 213.096 533.241 213.095 533.242L213.094 533.243L216.031 535.869Z" stroke="#E301B2" stroke-width="8"/>
</g>
</g>
<defs>
<filter id="filter0_f_40611_54290" x="109" y="118.022" width="1046.11" height="606.594" filterUnits="userSpaceOnUse" color-interpolation-filters="sRGB">
<feFlood flood-opacity="0" result="BackgroundImageFix"/>
<feBlend mode="normal" in="SourceGraphic" in2="BackgroundImageFix" result="shape"/>
<feGaussianBlur stdDeviation="50" result="effect1_foregroundBlur_40611_54290"/>
</filter>
<filter id="filter1_f_40611_54290" x="120.565" y="68.3467" width="1046.11" height="606.594" filterUnits="userSpaceOnUse" color-interpolation-filters="sRGB">
<feFlood flood-opacity="0" result="BackgroundImageFix"/>
<feBlend mode="normal" in="SourceGraphic" in2="BackgroundImageFix" result="shape"/>
<feGaussianBlur stdDeviation="50" result="effect1_foregroundBlur_40611_54290"/>
</filter>
<filter id="filter2_f_40611_54290" x="0" y="0" width="1177.2" height="713.505" filterUnits="userSpaceOnUse" color-interpolation-filters="sRGB">
<feFlood flood-opacity="0" result="BackgroundImageFix"/>
<feBlend mode="normal" in="SourceGraphic" in2="BackgroundImageFix" result="shape"/>
<feGaussianBlur stdDeviation="50" result="effect1_foregroundBlur_40611_54290"/>
</filter>
<filter id="filter3_f_40611_54290" x="150.155" y="75.5449" width="873.37" height="525.63" filterUnits="userSpaceOnUse" color-interpolation-filters="sRGB">
<feFlood flood-opacity="0" result="BackgroundImageFix"/>
<feBlend mode="normal" in="SourceGraphic" in2="BackgroundImageFix" result="shape"/>
<feGaussianBlur stdDeviation="30" result="effect1_foregroundBlur_40611_54290"/>
</filter>
<linearGradient id="paint0_linear_40611_54290" x1="1015.24" y1="204.929" x2="379.571" y2="798.618" gradientUnits="userSpaceOnUse">
<stop stop-color="#703CFF"/>
<stop offset="1" stop-color="#4885FF"/>
</linearGradient>
<linearGradient id="paint1_linear_40611_54290" x1="1026.81" y1="155.253" x2="391.136" y2="748.942" gradientUnits="userSpaceOnUse">
<stop stop-color="#FF693C"/>
<stop offset="1" stop-color="#D003E7"/>
</linearGradient>
<linearGradient id="paint2_linear_40611_54290" x1="1029.71" y1="85.0137" x2="308.113" y2="810.677" gradientUnits="userSpaceOnUse">
<stop stop-color="#F81BF8"/>
<stop offset="1" stop-color="#650798"/>
</linearGradient>
</defs>
</svg>
