<svg xmlns="http://www.w3.org/2000/svg" width="11" height="14" viewBox="0 0 11 14" fill="none">
  <path d="M9.14286 9.62963C9.14286 9.22053 8.80174 8.88889 8.38095 8.88889C7.96016 8.88889 7.61905 9.22053 7.61905 9.62963V11.1111C7.61905 11.5202 7.96016 11.8519 8.38095 11.8519C8.80174 11.8519 9.14286 11.5202 9.14286 11.1111V9.62963ZM10.6667 11.1111C10.6667 12.3384 9.64332 13.3333 8.38095 13.3333C7.11859 13.3333 6.09524 12.3384 6.09524 11.1111V9.62963C6.09524 8.40233 7.11859 7.40741 8.38095 7.40741C9.64332 7.40741 10.6667 8.40233 10.6667 9.62963V11.1111Z" fill="#575D60"/>
  <path d="M3.04762 2.22222C3.04762 1.81312 2.7065 1.48148 2.28571 1.48148C1.86493 1.48148 1.52381 1.81312 1.52381 2.22222V3.7037C1.52381 4.1128 1.86493 4.44444 2.28571 4.44444C2.7065 4.44444 3.04762 4.1128 3.04762 3.7037V2.22222ZM4.57143 3.7037C4.57143 4.931 3.54808 5.92593 2.28571 5.92593C1.02335 5.92593 0 4.931 0 3.7037V2.22222C0 0.994923 1.02335 0 2.28571 0C3.54808 0 4.57143 0.994923 4.57143 2.22222V3.7037Z" fill="#575D60"/>
  <path d="M3.80952 11.8519C4.23031 11.8519 4.57143 12.1835 4.57143 12.5926C4.57143 13.0017 4.23031 13.3333 3.80952 13.3333H0.761905C0.341116 13.3333 0 13.0017 0 12.5926C0 12.1835 0.341116 11.8519 0.761905 11.8519H3.80952Z" fill="#575D60"/>
  <path d="M9.90476 4.44444C10.3256 4.44444 10.6667 4.77609 10.6667 5.18519C10.6667 5.59428 10.3256 5.92593 9.90476 5.92593H6.85714C6.43635 5.92593 6.09524 5.59428 6.09524 5.18519C6.09524 4.77609 6.43635 4.44444 6.85714 4.44444H9.90476Z" fill="#575D60"/>
  <path d="M1.52381 12.5926V8.88889H0.761905C0.341116 8.88889 0 8.55725 0 8.14815C0 7.73905 0.341116 7.40741 0.761905 7.40741H2.28571L2.36384 7.41102C2.74794 7.44905 3.04762 7.76468 3.04762 8.14815V12.5926C3.04762 13.0017 2.7065 13.3333 2.28571 13.3333C1.86493 13.3333 1.52381 13.0017 1.52381 12.5926Z" fill="#575D60"/>
  <path d="M7.61905 5.18519V1.48148H6.85714C6.43635 1.48148 6.09524 1.14984 6.09524 0.740741C6.09524 0.331641 6.43635 0 6.85714 0H8.38095L8.45908 0.0036169C8.84318 0.0416403 9.14286 0.357276 9.14286 0.740741V5.18519C9.14286 5.59428 8.80174 5.92593 8.38095 5.92593C7.96016 5.92593 7.61905 5.59428 7.61905 5.18519Z" fill="#575D60"/>
</svg>
