<svg xmlns="http://www.w3.org/2000/svg" width="11" height="15" viewBox="0 0 11 15" fill="none">
  <path d="M9.33333 2C9.33333 1.63181 9.03486 1.33333 8.66667 1.33333H2C1.63181 1.33333 1.33333 1.63181 1.33333 2V12.6667C1.33333 13.0349 1.63181 13.3333 2 13.3333H8.66667C9.03486 13.3333 9.33333 13.0349 9.33333 12.6667V2ZM10.6667 12.6667C10.6667 13.7712 9.77124 14.6667 8.66667 14.6667H2C0.895431 14.6667 0 13.7712 0 12.6667V2C0 0.895431 0.895431 0 2 0H8.66667C9.77124 0 10.6667 0.895431 10.6667 2V12.6667Z" fill="#575D60"/>
  <path d="M5.33984 10.6667C5.70803 10.6667 6.00651 10.9651 6.00651 11.3333C6.00651 11.7015 5.70803 12 5.33984 12H5.33333C4.96514 12 4.66667 11.7015 4.66667 11.3333C4.66667 10.9651 4.96514 10.6667 5.33333 10.6667H5.33984Z" fill="#575D60"/>
</svg>
