<svg xmlns="http://www.w3.org/2000/svg" width="16" height="16" viewBox="0 0 16 16" fill="none">
  <path fill-rule="evenodd" clip-rule="evenodd" d="M4 5.33325C4 3.12411 5.79086 1.33325 8 1.33325C9.93594 1.33325 11.5493 2.70789 11.92 4.53396C11.9932 4.89479 11.7601 5.24668 11.3993 5.31993C11.0384 5.39317 10.6866 5.16004 10.6133 4.79921C10.3663 3.58229 9.28934 2.66659 8 2.66659C6.52724 2.66659 5.33333 3.86049 5.33333 5.33325V6.66767C5.49181 6.66658 5.66026 6.66658 5.83913 6.66658H10.1609C10.6975 6.66658 11.1404 6.66657 11.5012 6.69605C11.876 6.72666 12.2204 6.79237 12.544 6.95723C13.0457 7.2129 13.4537 7.62084 13.7094 8.12261C13.8742 8.44617 13.9399 8.79064 13.9705 9.16537C14 9.52616 14 9.96906 14 10.5057V10.8275C14 11.3641 14 11.807 13.9705 12.1678C13.9399 12.5425 13.8742 12.887 13.7094 13.2106C13.4537 13.7123 13.0457 14.1203 12.544 14.3759C12.2204 14.5408 11.876 14.6065 11.5012 14.6371C11.1404 14.6666 10.6975 14.6666 10.1609 14.6666H5.83912C5.30248 14.6666 4.85958 14.6666 4.49878 14.6371C4.12405 14.6065 3.77958 14.5408 3.45603 14.3759C2.95426 14.1203 2.54631 13.7123 2.29065 13.2106C2.12579 12.887 2.06008 12.5425 2.02946 12.1678C1.99998 11.807 1.99999 11.3641 2 10.8275V10.5057C1.99999 9.96907 1.99998 9.52616 2.02946 9.16537C2.06008 8.79064 2.12579 8.44617 2.29065 8.12261C2.54631 7.62084 2.95426 7.2129 3.45603 6.95723C3.63076 6.8682 3.8116 6.80809 4 6.7668V5.33325ZM4.60736 8.02495C4.31508 8.04883 4.16561 8.09212 4.06135 8.14524C3.81046 8.27307 3.60649 8.47705 3.47866 8.72793C3.42553 8.8322 3.38225 8.98167 3.35837 9.27394C3.33385 9.574 3.33333 9.9622 3.33333 10.5333V10.7999C3.33333 11.371 3.33385 11.7592 3.35837 12.0592C3.38225 12.3515 3.42553 12.501 3.47866 12.6052C3.60649 12.8561 3.81046 13.0601 4.06135 13.1879C4.16561 13.2411 4.31508 13.2843 4.60736 13.3082C4.90742 13.3327 5.29561 13.3333 5.86667 13.3333H10.1333C10.7044 13.3333 11.0926 13.3327 11.3926 13.3082C11.6849 13.2843 11.8344 13.2411 11.9387 13.1879C12.1895 13.0601 12.3935 12.8561 12.5213 12.6052C12.5745 12.501 12.6178 12.3515 12.6416 12.0592C12.6661 11.7592 12.6667 11.371 12.6667 10.7999V10.5333C12.6667 9.9622 12.6661 9.574 12.6416 9.27394C12.6178 8.98167 12.5745 8.8322 12.5213 8.72793C12.3935 8.47705 12.1895 8.27307 11.9387 8.14524C11.8344 8.09212 11.6849 8.04883 11.3926 8.02495C11.0926 8.00044 10.7044 7.99992 10.1333 7.99992H5.86667C5.29561 7.99992 4.90742 8.00044 4.60736 8.02495Z" fill="#575D60"/>
</svg>
