<svg xmlns="http://www.w3.org/2000/svg" width="16" height="16" viewBox="0 0 16 16" fill="none">
  <path d="M6.66668 1.33325C4.64954 1.33325 3.00002 2.98277 3.00002 4.99992C3.00002 7.01706 4.64954 8.66658 6.66668 8.66658C8.68384 8.66658 10.3333 7.01706 10.3333 4.99992C10.3333 2.98278 8.68384 1.33325 6.66668 1.33325ZM6.66668 2.66659C7.96326 2.66659 9.00002 3.70336 9.00002 4.99992C9.00002 6.29648 7.96326 7.33325 6.66668 7.33325C5.37012 7.33325 4.33335 6.29648 4.33335 4.99992C4.33335 3.70336 5.37012 2.66659 6.66668 2.66659ZM12.6667 9.33325C12.4899 9.33325 12.3203 9.40349 12.1953 9.52851C12.0703 9.65354 12 9.82311 12 9.99992V11.3333H10.6667C10.4899 11.3333 10.3203 11.4035 10.1953 11.5285C10.0703 11.6535 10 11.8231 10 11.9999C10 12.1767 10.0703 12.3463 10.1953 12.4713C10.3203 12.5963 10.4899 12.6666 10.6667 12.6666H12V13.9999C12 14.1767 12.0703 14.3463 12.1953 14.4713C12.3203 14.5963 12.4899 14.6666 12.6667 14.6666C12.8435 14.6666 13.0131 14.5963 13.1381 14.4713C13.2631 14.3463 13.3334 14.1767 13.3334 13.9999V12.6666H14.6667C14.8435 12.6666 15.0131 12.5963 15.1381 12.4713C15.2631 12.3463 15.3334 12.1767 15.3334 11.9999C15.3334 11.8231 15.2631 11.6535 15.1381 11.5285C15.0131 11.4035 14.8435 11.3333 14.6667 11.3333H13.3334V9.99992C13.3334 9.82311 13.2631 9.65354 13.1381 9.52851C13.0131 9.40349 12.8435 9.33325 12.6667 9.33325ZM5.00002 9.66658C4.06964 9.66658 3.55626 9.65098 3.03257 9.80981C1.96795 10.1328 1.13285 10.9679 0.809912 12.0325C0.651048 12.5562 0.666683 13.0695 0.666683 13.9999C0.666683 14.1767 0.736921 14.3463 0.861945 14.4713C0.986969 14.5963 1.15654 14.6666 1.33335 14.6666C1.51016 14.6666 1.67973 14.5963 1.80475 14.4713C1.92978 14.3463 2.00002 14.1767 2.00002 13.9999C2.00002 13.0695 2.01516 12.6525 2.08595 12.4192C2.28008 11.7792 2.77936 11.28 3.41929 11.0859C3.65264 11.0151 4.06964 10.9999 5.00002 10.9999H8.00002C8.17683 10.9999 8.3464 10.9297 8.47142 10.8047C8.59644 10.6796 8.66668 10.5101 8.66668 10.3333C8.66668 10.1564 8.59644 9.98687 8.47142 9.86185C8.3464 9.73682 8.17683 9.66658 8.00002 9.66658H5.00002Z" fill="#575D60"/>
</svg>
