<svg xmlns="http://www.w3.org/2000/svg" width="24" height="24" fill="none" viewBox="0 0 24 24">
  <path fill="#34393D" d="M20.995 12a3 3 0 0 0-1.384-2.527 1 1 0 0 1-.436-1.062 3.002 3.002 0 0 0-3.585-3.585 1.001 1.001 0 0 1-1.063-.437 3 3 0 0 0-5.055 0 1 1 0 0 1-1.061.437 3 3 0 0 0-3.585 3.577 1 1 0 0 1-.441 1.062 3 3 0 0 0 0 5.07 1 1 0 0 1 .44 1.062 3.002 3.002 0 0 0 3.586 3.578l.154-.023a1 1 0 0 1 .908.461 3 3 0 0 0 5.063 0 1 1 0 0 1 1.06-.44 3.002 3.002 0 0 0 3.579-3.584 1 1 0 0 1 .436-1.062A3 3 0 0 0 20.995 12Zm2 0a5 5 0 0 1-1.769 3.813 4.999 4.999 0 0 1-1.44 3.964 5 5 0 0 1-3.96 1.448 4.999 4.999 0 0 1-6.228 1.16 4.997 4.997 0 0 1-1.414-1.159 4.997 4.997 0 0 1-1.82-.176 5 5 0 0 1-3.59-5.223 5 5 0 0 1-1.165-6.238 5 5 0 0 1 1.164-1.417A5 5 0 0 1 6.364 2.95a5 5 0 0 1 1.822-.178 5 5 0 0 1 6.215-1.153c.54.295 1.017.687 1.412 1.153A5 5 0 0 1 21.05 6.36a5 5 0 0 1 .176 1.826A4.998 4.998 0 0 1 22.995 12Z"/>
  <path fill="#34393D" d="M14.293 8.293a1 1 0 1 1 1.414 1.414l-6 6a1 1 0 1 1-1.414-1.414l6-6ZM9.01 8a1 1 0 1 1 0 2H9a1 1 0 1 1 0-2h.01Zm6 6a1 1 0 1 1 0 2H15a1 1 0 0 1 0-2h.01Z"/>
</svg>
