<svg xmlns="http://www.w3.org/2000/svg" width="24" height="24" fill="none" viewBox="0 0 24 24">
  <path fill="#34393D" d="M1 15.8V8.2c0-.543-.001-1.012.03-1.395.033-.396.104-.789.297-1.167a3 3 0 0 1 1.31-1.31c.379-.194.772-.265 1.168-.298C4.188 4 4.657 4 5.2 4h1.752a1 1 0 1 1 0 2H5.2c-.576 0-.949.001-1.232.024-.272.023-.373.06-.422.085a1 1 0 0 0-.437.437c-.025.05-.062.15-.085.422C3.001 7.25 3 7.624 3 8.2V9h6.6a1 1 0 0 1 0 2H3v4.8c0 .576.001.949.024 1.232.023.272.06.373.085.422.096.188.249.34.437.437.05.025.15.063.422.086C4.25 18 4.624 18 5.2 18h9.522a1 1 0 0 1 0 2H5.2c-.543 0-1.012.001-1.395-.03-.396-.033-.789-.104-1.167-.297a3 3 0 0 1-1.31-1.31c-.194-.379-.265-.772-.298-1.168C1 16.812 1 16.343 1 15.8Zm20 0V11h-6.68a1 1 0 0 1 0-2H21v-.8c0-.576-.001-.949-.024-1.232-.023-.272-.06-.373-.085-.422a1 1 0 0 0-.437-.437c-.05-.025-.15-.062-.422-.085A16.943 16.943 0 0 0 18.8 6h-7.308a1 1 0 1 1 0-2H18.8c.543 0 1.012-.001 1.395.03.396.033.789.104 1.167.297a3 3 0 0 1 1.31 1.31c.194.379.265.772.298 1.168.031.383.03.852.03 1.395v7.6c0 .543.001 1.012-.03 1.395-.033.396-.104.789-.297 1.167a3 3 0 0 1-1.31 1.31c-.379.194-.772.265-1.168.298-.383.031-.465.03-1.008.03h-.247a1 1 0 0 1 0-2h.247c.576 0 .562 0 .845-.023.272-.023.373-.061.422-.086a.999.999 0 0 0 .437-.437c.025-.05.062-.15.085-.422.023-.283.024-.656.024-1.232Z"/>
  <path fill="#34393D" d="M5.01 1.124a1 1 0 0 1 1.358.395l11 20a1 1 0 1 1-1.752.963l-11-20a1 1 0 0 1 .395-1.358Z"/>
</svg>
