<svg width="1702" height="1423" viewBox="0 0 1702 1423" fill="none" xmlns="http://www.w3.org/2000/svg">
<g opacity="0.5" filter="url(#filter0_fn_40611_54295)">
<g filter="url(#filter1_f_40611_54295)">
<ellipse cx="824.966" cy="702.724" rx="324.5" ry="272" fill="#0006A8"/>
</g>
<g filter="url(#filter2_f_40611_54295)">
<path d="M1122.84 824.167C1180.31 781.43 1202.24 700.136 1155.86 705.613C1109.48 711.09 988.999 818.955 864.666 886.733C709.25 971.456 707.132 1015.09 799.53 991.047C954.075 950.84 1065.37 866.904 1122.84 824.167Z" fill="url(#paint0_linear_40611_54295)"/>
</g>
<g opacity="0.6" filter="url(#filter3_f_40611_54295)">
<path d="M1178.42 846.194C1235.89 803.457 1217.11 705.207 1184.08 712.724C1151.05 720.241 1044.58 840.982 920.249 908.76C764.833 993.483 762.714 1037.11 855.112 1013.07C1009.66 972.866 1120.95 888.931 1178.42 846.194Z" fill="url(#paint1_linear_40611_54295)"/>
</g>
<g opacity="0.6" filter="url(#filter4_f_40611_54295)">
<path d="M1136.01 842.385C1193.48 799.649 1174.7 701.399 1141.67 708.915C1108.64 716.432 1002.17 837.173 877.84 904.951C722.424 989.674 726.405 1005.3 818.804 981.262C973.349 941.054 1078.54 885.122 1136.01 842.385Z" fill="url(#paint2_linear_40611_54295)"/>
</g>
<g filter="url(#filter5_f_40611_54295)">
<path d="M1122.84 824.166C1180.31 781.43 1161.52 683.179 1128.5 690.696C1095.47 698.213 988.999 818.954 864.666 886.732C709.25 971.455 536.714 1056.28 629.112 1032.24C783.658 992.031 1065.37 866.903 1122.84 824.166Z" fill="url(#paint3_linear_40611_54295)"/>
</g>
<g filter="url(#filter6_f_40611_54295)">
<path d="M1103.8 824.784C1125.77 772.327 1148.2 732.328 1118.6 725.545C1089.01 718.762 1073.17 769.129 1044.17 788.849C998.75 819.738 963.277 854.497 902.854 887.399C779.107 954.782 726.781 975.209 800.348 956.084C923.397 924.096 1081.78 877.361 1103.8 824.784Z" fill="url(#paint4_linear_40611_54295)"/>
</g>
</g>
<defs>
<filter id="filter0_fn_40611_54295" x="-24" y="-24" width="1749.01" height="1470.53" filterUnits="userSpaceOnUse" color-interpolation-filters="sRGB">
<feFlood flood-opacity="0" result="BackgroundImageFix"/>
<feBlend mode="normal" in="SourceGraphic" in2="BackgroundImageFix" result="shape"/>
<feGaussianBlur stdDeviation="12" result="effect1_foregroundBlur_40611_54295"/>
<feTurbulence type="fractalNoise" baseFrequency="2 2" stitchTiles="stitch" numOctaves="3" result="noise" seed="1898" />
<feColorMatrix in="noise" type="luminanceToAlpha" result="alphaNoise" />
<feComponentTransfer in="alphaNoise" result="coloredNoise1">
<feFuncA type="discrete" tableValues="1 1 1 1 1 1 1 1 1 1 1 1 1 1 1 1 1 1 1 1 1 1 1 1 1 1 1 1 1 1 1 1 1 1 1 1 1 1 1 1 1 1 1 1 1 1 1 1 1 1 1 0 0 0 0 0 0 0 0 0 0 0 0 0 0 0 0 0 0 0 0 0 0 0 0 0 0 0 0 0 0 0 0 0 0 0 0 0 0 0 0 0 0 0 0 0 0 0 0 0 "/>
</feComponentTransfer>
<feComposite operator="in" in2="effect1_foregroundBlur_40611_54295" in="coloredNoise1" result="noise1Clipped" />
<feFlood flood-color="rgba(255, 255, 255, 0.12)" result="color1Flood" />
<feComposite operator="in" in2="noise1Clipped" in="color1Flood" result="color1" />
<feMerge result="effect2_noise_40611_54295">
<feMergeNode in="effect1_foregroundBlur_40611_54295" />
<feMergeNode in="color1" />
</feMerge>
</filter>
<filter id="filter1_f_40611_54295" x="240.466" y="170.724" width="1169" height="1064" filterUnits="userSpaceOnUse" color-interpolation-filters="sRGB">
<feFlood flood-opacity="0" result="BackgroundImageFix"/>
<feBlend mode="normal" in="SourceGraphic" in2="BackgroundImageFix" result="shape"/>
<feGaussianBlur stdDeviation="130" result="effect1_foregroundBlur_40611_54295"/>
</filter>
<filter id="filter2_f_40611_54295" x="567.438" y="535.35" width="783.51" height="632.259" filterUnits="userSpaceOnUse" color-interpolation-filters="sRGB">
<feFlood flood-opacity="0" result="BackgroundImageFix"/>
<feBlend mode="normal" in="SourceGraphic" in2="BackgroundImageFix" result="shape"/>
<feGaussianBlur stdDeviation="85" result="effect1_foregroundBlur_40611_54295"/>
</filter>
<filter id="filter3_f_40611_54295" x="653.02" y="572.316" width="702.341" height="587.32" filterUnits="userSpaceOnUse" color-interpolation-filters="sRGB">
<feFlood flood-opacity="0" result="BackgroundImageFix"/>
<feBlend mode="normal" in="SourceGraphic" in2="BackgroundImageFix" result="shape"/>
<feGaussianBlur stdDeviation="70" result="effect1_foregroundBlur_40611_54295"/>
</filter>
<filter id="filter4_f_40611_54295" x="684.232" y="638.507" width="558.72" height="422.976" filterUnits="userSpaceOnUse" color-interpolation-filters="sRGB">
<feFlood flood-opacity="0" result="BackgroundImageFix"/>
<feBlend mode="normal" in="SourceGraphic" in2="BackgroundImageFix" result="shape"/>
<feGaussianBlur stdDeviation="35" result="effect1_foregroundBlur_40611_54295"/>
</filter>
<filter id="filter5_f_40611_54295" x="533.19" y="620.288" width="696.588" height="486.091" filterUnits="userSpaceOnUse" color-interpolation-filters="sRGB">
<feFlood flood-opacity="0" result="BackgroundImageFix"/>
<feBlend mode="normal" in="SourceGraphic" in2="BackgroundImageFix" result="shape"/>
<feGaussianBlur stdDeviation="35" result="effect1_foregroundBlur_40611_54295"/>
</filter>
<filter id="filter6_f_40611_54295" x="696.599" y="654.922" width="506.212" height="377.997" filterUnits="userSpaceOnUse" color-interpolation-filters="sRGB">
<feFlood flood-opacity="0" result="BackgroundImageFix"/>
<feBlend mode="normal" in="SourceGraphic" in2="BackgroundImageFix" result="shape"/>
<feGaussianBlur stdDeviation="35" result="effect1_foregroundBlur_40611_54295"/>
</filter>
<linearGradient id="paint0_linear_40611_54295" x1="1135.59" y1="707.621" x2="790.099" y2="1004.61" gradientUnits="userSpaceOnUse">
<stop stop-color="#0098EA"/>
<stop offset="1" stop-color="#0B2E83"/>
</linearGradient>
<linearGradient id="paint1_linear_40611_54295" x1="1191.17" y1="729.651" x2="845.682" y2="1026.64" gradientUnits="userSpaceOnUse">
<stop stop-color="#2A17FF"/>
<stop offset="1" stop-color="#2A17FF" stop-opacity="0"/>
</linearGradient>
<linearGradient id="paint2_linear_40611_54295" x1="1148.76" y1="725.843" x2="803.273" y2="1022.83" gradientUnits="userSpaceOnUse">
<stop stop-color="#7900EA"/>
<stop offset="1" stop-color="#830B5F"/>
</linearGradient>
<linearGradient id="paint3_linear_40611_54295" x1="1135.59" y1="707.624" x2="790.1" y2="1004.61" gradientUnits="userSpaceOnUse">
<stop stop-color="#00C7EA"/>
<stop offset="1" stop-color="#0B4F83"/>
</linearGradient>
<linearGradient id="paint4_linear_40611_54295" x1="1118.57" y1="744.949" x2="843.773" y2="981.476" gradientUnits="userSpaceOnUse">
<stop stop-color="#CFE7FA"/>
<stop offset="1" stop-color="#4379FF"/>
</linearGradient>
</defs>
</svg>
